<?xml version="1.0" encoding="UTF-8" standalone="no"?>
<!DOCTYPE svg PUBLIC "-//W3C//DTD SVG 1.1//EN"
 "http://www.w3.org/Graphics/SVG/1.1/DTD/svg11.dtd">
<!-- Generated by graphviz version 13.1.0 (20250701.0955)
 -->
<!-- Title: src/Alarm.cpp Pages: 1 -->
<svg width="729pt" height="304pt"
 viewBox="0.00 0.00 729.00 304.00" xmlns="http://www.w3.org/2000/svg" xmlns:xlink="http://www.w3.org/1999/xlink">
<g id="graph0" class="graph" transform="scale(1 1) rotate(0) translate(4 299.5)">
<title>src/Alarm.cpp</title>
<!-- Node1 -->
<g id="Node000001" class="node">
<title>Node1</title>
<g id="a_Node000001"><a xlink:title="Implementation of alarm management system for temperature monitoring.">
<polygon fill="#999999" stroke="#666666" points="481,-295.5 404.25,-295.5 404.25,-276.25 481,-276.25 481,-295.5"/>
<text xml:space="preserve" text-anchor="middle" x="442.62" y="-282" font-family="Helvetica,sans-Serif" font-size="10.00">src/Alarm.cpp</text>
</a>
</g>
</g>
<!-- Node2 -->
<g id="Node000002" class="node">
<title>Node2</title>
<g id="a_Node000002"><a xlink:href="_alarm_8h.html" target="_top" xlink:title="Alarm management system for temperature monitoring.">
<polygon fill="white" stroke="#666666" points="441.5,-240.25 391.75,-240.25 391.75,-221 441.5,-221 441.5,-240.25"/>
<text xml:space="preserve" text-anchor="middle" x="416.62" y="-226.75" font-family="Helvetica,sans-Serif" font-size="10.00">Alarm.h</text>
</a>
</g>
</g>
<!-- Node1&#45;&gt;Node2 -->
<g id="edge1_Node000001_Node000002" class="edge">
<title>Node1&#45;&gt;Node2</title>
<g id="a_edge1_Node000001_Node000002"><a xlink:title=" ">
<path fill="none" stroke="#63b8ff" d="M438.33,-276.08C435,-269.26 430.26,-259.56 426.06,-250.95"/>
<polygon fill="#63b8ff" stroke="#63b8ff" points="429.21,-249.42 421.68,-241.97 422.92,-252.49 429.21,-249.42"/>
</a>
</g>
</g>
<!-- Node10 -->
<g id="Node000010" class="node">
<title>Node10</title>
<g id="a_Node000010"><a xlink:href="_logger_manager_8h.html" target="_top" xlink:title="Comprehensive data and event logging system for temperature monitoring.">
<polygon fill="white" stroke="#666666" points="514.75,-129.75 424.5,-129.75 424.5,-110.5 514.75,-110.5 514.75,-129.75"/>
<text xml:space="preserve" text-anchor="middle" x="469.62" y="-116.25" font-family="Helvetica,sans-Serif" font-size="10.00">LoggerManager.h</text>
</a>
</g>
</g>
<!-- Node1&#45;&gt;Node10 -->
<g id="edge25_Node000001_Node000010" class="edge">
<title>Node1&#45;&gt;Node10</title>
<g id="a_edge25_Node000001_Node000010"><a xlink:title=" ">
<path fill="none" stroke="#63b8ff" d="M444.27,-275.99C445.92,-266.99 448.52,-252.67 450.62,-240.25 456.5,-205.58 462.84,-165.14 466.51,-141.42"/>
<polygon fill="#63b8ff" stroke="#63b8ff" points="469.96,-142.01 468.02,-131.6 463.04,-140.95 469.96,-142.01"/>
</a>
</g>
</g>
<!-- Node3 -->
<g id="Node000003" class="node">
<title>Node3</title>
<g id="a_Node000003"><a xlink:title=" ">
<polygon fill="#e0e0e0" stroke="#999999" points="57.25,-19.25 0,-19.25 0,0 57.25,0 57.25,-19.25"/>
<text xml:space="preserve" text-anchor="middle" x="28.62" y="-5.75" font-family="Helvetica,sans-Serif" font-size="10.00">Arduino.h</text>
</a>
</g>
</g>
<!-- Node2&#45;&gt;Node3 -->
<g id="edge2_Node000002_Node000003" class="edge">
<title>Node2&#45;&gt;Node3</title>
<g id="a_edge2_Node000002_Node000003"><a xlink:title=" ">
<path fill="none" stroke="#63b8ff" d="M391.46,-228.44C329.89,-224.37 169.17,-206.57 65.62,-129.75 40.41,-111.05 31.98,-104.13 21.62,-74.5 16.66,-60.29 18.87,-43.33 22.07,-30.45"/>
<polygon fill="#63b8ff" stroke="#63b8ff" points="25.38,-31.61 24.82,-21.03 18.66,-29.65 25.38,-31.61"/>
</a>
</g>
</g>
<!-- Node4 -->
<g id="Node000004" class="node">
<title>Node4</title>
<g id="a_Node000004"><a xlink:title=" ">
<polygon fill="#e0e0e0" stroke="#999999" points="684.12,-74.5 641.12,-74.5 641.12,-55.25 684.12,-55.25 684.12,-74.5"/>
<text xml:space="preserve" text-anchor="middle" x="662.62" y="-61" font-family="Helvetica,sans-Serif" font-size="10.00">vector</text>
</a>
</g>
</g>
<!-- Node2&#45;&gt;Node4 -->
<g id="edge3_Node000002_Node000004" class="edge">
<title>Node2&#45;&gt;Node4</title>
<g id="a_edge3_Node000002_Node000004"><a xlink:title=" ">
<path fill="none" stroke="#63b8ff" d="M430.2,-220.59C470.44,-193.8 589.38,-114.63 639.71,-81.13"/>
<polygon fill="#63b8ff" stroke="#63b8ff" points="641.45,-84.18 647.83,-75.72 637.57,-78.35 641.45,-84.18"/>
</a>
</g>
</g>
<!-- Node5 -->
<g id="Node000005" class="node">
<title>Node5</title>
<g id="a_Node000005"><a xlink:href="_measurement_point_8h.html" target="_top" xlink:title="Measurement point abstraction for temperature monitoring system.">
<polygon fill="white" stroke="#666666" points="319.62,-185 213.62,-185 213.62,-165.75 319.62,-165.75 319.62,-185"/>
<text xml:space="preserve" text-anchor="middle" x="266.62" y="-171.5" font-family="Helvetica,sans-Serif" font-size="10.00">MeasurementPoint.h</text>
</a>
</g>
</g>
<!-- Node2&#45;&gt;Node5 -->
<g id="edge4_Node000002_Node000005" class="edge">
<title>Node2&#45;&gt;Node5</title>
<g id="a_edge4_Node000002_Node000005"><a xlink:title=" ">
<path fill="none" stroke="#63b8ff" d="M391.52,-220.71C367.33,-212.12 330.47,-199.04 303.05,-189.31"/>
<polygon fill="#63b8ff" stroke="#63b8ff" points="304.34,-186.05 293.74,-186 302,-192.65 304.34,-186.05"/>
</a>
</g>
</g>
<!-- Node2&#45;&gt;Node10 -->
<g id="edge24_Node000002_Node000010" class="edge">
<title>Node2&#45;&gt;Node10</title>
<g id="a_edge24_Node000002_Node000010"><a xlink:title=" ">
<path fill="none" stroke="#63b8ff" d="M420.96,-220.75C429.5,-203.26 448.67,-164.02 460.24,-140.34"/>
<polygon fill="#63b8ff" stroke="#63b8ff" points="463.32,-142.01 464.56,-131.49 457.03,-138.94 463.32,-142.01"/>
</a>
</g>
</g>
<!-- Node5&#45;&gt;Node3 -->
<g id="edge5_Node000005_Node000003" class="edge">
<title>Node5&#45;&gt;Node3</title>
<g id="a_edge5_Node000005_Node000003"><a xlink:title=" ">
<path fill="none" stroke="#63b8ff" d="M213.33,-168.03C157.91,-158.31 73.61,-134.09 32.62,-74.5 23.85,-61.74 23.44,-43.95 24.89,-30.38"/>
<polygon fill="#63b8ff" stroke="#63b8ff" points="28.3,-31.28 26.33,-20.87 21.38,-30.23 28.3,-31.28"/>
</a>
</g>
</g>
<!-- Node6 -->
<g id="Node000006" class="node">
<title>Node6</title>
<g id="a_Node000006"><a xlink:href="_sensor_8h.html" target="_top" xlink:title="Temperature sensor abstraction layer.">
<polygon fill="white" stroke="#666666" points="216.75,-129.75 162.5,-129.75 162.5,-110.5 216.75,-110.5 216.75,-129.75"/>
<text xml:space="preserve" text-anchor="middle" x="189.62" y="-116.25" font-family="Helvetica,sans-Serif" font-size="10.00">Sensor.h</text>
</a>
</g>
</g>
<!-- Node5&#45;&gt;Node6 -->
<g id="edge6_Node000005_Node000006" class="edge">
<title>Node5&#45;&gt;Node6</title>
<g id="a_edge6_Node000005_Node000006"><a xlink:title=" ">
<path fill="none" stroke="#63b8ff" d="M253.56,-165.34C242.17,-157.46 225.4,-145.86 211.89,-136.52"/>
<polygon fill="#63b8ff" stroke="#63b8ff" points="214.21,-133.87 204,-131.06 210.23,-139.63 214.21,-133.87"/>
</a>
</g>
</g>
<!-- Node5&#45;&gt;Node10 -->
<g id="edge11_Node000005_Node000010" class="edge">
<title>Node5&#45;&gt;Node10</title>
<g id="a_edge11_Node000005_Node000010"><a xlink:title=" ">
<path fill="none" stroke="#63b8ff" d="M301.06,-165.34C334.89,-156.47 386.71,-142.87 423.96,-133.1"/>
<polygon fill="#63b8ff" stroke="#63b8ff" points="424.77,-136.51 433.56,-130.59 423,-129.74 424.77,-136.51"/>
</a>
</g>
</g>
<!-- Node6&#45;&gt;Node3 -->
<g id="edge7_Node000006_Node000003" class="edge">
<title>Node6&#45;&gt;Node3</title>
<g id="a_edge7_Node000006_Node000003"><a xlink:title=" ">
<path fill="none" stroke="#63b8ff" d="M162.19,-117.95C130.34,-115.1 78.27,-105.62 47.62,-74.5 36.19,-62.89 31.59,-44.71 29.76,-30.71"/>
<polygon fill="#63b8ff" stroke="#63b8ff" points="33.25,-30.5 28.88,-20.85 26.28,-31.12 33.25,-30.5"/>
</a>
</g>
</g>
<!-- Node7 -->
<g id="Node000007" class="node">
<title>Node7</title>
<g id="a_Node000007"><a xlink:title=" ">
<polygon fill="#e0e0e0" stroke="#999999" points="118.88,-74.5 56.38,-74.5 56.38,-55.25 118.88,-55.25 118.88,-74.5"/>
<text xml:space="preserve" text-anchor="middle" x="87.62" y="-61" font-family="Helvetica,sans-Serif" font-size="10.00">OneWire.h</text>
</a>
</g>
</g>
<!-- Node6&#45;&gt;Node7 -->
<g id="edge8_Node000006_Node000007" class="edge">
<title>Node6&#45;&gt;Node7</title>
<g id="a_edge8_Node000006_Node000007"><a xlink:title=" ">
<path fill="none" stroke="#63b8ff" d="M172.32,-110.09C156.64,-101.91 133.27,-89.71 115.05,-80.19"/>
<polygon fill="#63b8ff" stroke="#63b8ff" points="116.84,-77.18 106.35,-75.65 113.6,-83.38 116.84,-77.18"/>
</a>
</g>
</g>
<!-- Node8 -->
<g id="Node000008" class="node">
<title>Node8</title>
<g id="a_Node000008"><a xlink:title=" ">
<polygon fill="#e0e0e0" stroke="#999999" points="242.62,-74.5 136.62,-74.5 136.62,-55.25 242.62,-55.25 242.62,-74.5"/>
<text xml:space="preserve" text-anchor="middle" x="189.62" y="-61" font-family="Helvetica,sans-Serif" font-size="10.00">DallasTemperature.h</text>
</a>
</g>
</g>
<!-- Node6&#45;&gt;Node8 -->
<g id="edge9_Node000006_Node000008" class="edge">
<title>Node6&#45;&gt;Node8</title>
<g id="a_edge9_Node000006_Node000008"><a xlink:title=" ">
<path fill="none" stroke="#63b8ff" d="M189.62,-110.33C189.62,-103.82 189.62,-94.67 189.62,-86.37"/>
<polygon fill="#63b8ff" stroke="#63b8ff" points="193.13,-86.37 189.63,-76.37 186.13,-86.37 193.13,-86.37"/>
</a>
</g>
</g>
<!-- Node9 -->
<g id="Node000009" class="node">
<title>Node9</title>
<g id="a_Node000009"><a xlink:title=" ">
<polygon fill="#e0e0e0" stroke="#999999" points="372.25,-74.5 261,-74.5 261,-55.25 372.25,-55.25 372.25,-74.5"/>
<text xml:space="preserve" text-anchor="middle" x="316.62" y="-61" font-family="Helvetica,sans-Serif" font-size="10.00">Adafruit_MAX31865.h</text>
</a>
</g>
</g>
<!-- Node6&#45;&gt;Node9 -->
<g id="edge10_Node000006_Node000009" class="edge">
<title>Node6&#45;&gt;Node9</title>
<g id="a_edge10_Node000006_Node000009"><a xlink:title=" ">
<path fill="none" stroke="#63b8ff" d="M211.17,-110.09C231.24,-101.68 261.43,-89.02 284.37,-79.4"/>
<polygon fill="#63b8ff" stroke="#63b8ff" points="285.71,-82.63 293.58,-75.54 283,-76.18 285.71,-82.63"/>
</a>
</g>
</g>
<!-- Node10&#45;&gt;Node3 -->
<g id="edge12_Node000010_Node000003" class="edge">
<title>Node10&#45;&gt;Node3</title>
<g id="a_edge12_Node000010_Node000003"><a xlink:title=" ">
<path fill="none" stroke="#63b8ff" d="M460.81,-110.31C445.94,-96.03 414.27,-68.17 381.62,-55.25 325.37,-32.99 148.56,-18.67 68.59,-13.17"/>
<polygon fill="#63b8ff" stroke="#63b8ff" points="69.25,-9.71 59.04,-12.52 68.78,-16.69 69.25,-9.71"/>
</a>
</g>
</g>
<!-- Node10&#45;&gt;Node4 -->
<g id="edge23_Node000010_Node000004" class="edge">
<title>Node10&#45;&gt;Node4</title>
<g id="a_edge23_Node000010_Node000004"><a xlink:title=" ">
<path fill="none" stroke="#63b8ff" d="M502.83,-110.01C533.34,-101.62 580.11,-88.75 629.94,-74.96"/>
<polygon fill="#63b8ff" stroke="#63b8ff" points="630.78,-78.36 639.49,-72.32 628.92,-71.61 630.78,-78.36"/>
</a>
</g>
</g>
<!-- Node11 -->
<g id="Node000011" class="node">
<title>Node11</title>
<g id="a_Node000011"><a xlink:title=" ">
<polygon fill="#e0e0e0" stroke="#999999" points="566.12,-74.5 529.12,-74.5 529.12,-55.25 566.12,-55.25 566.12,-74.5"/>
<text xml:space="preserve" text-anchor="middle" x="547.62" y="-61" font-family="Helvetica,sans-Serif" font-size="10.00">FS.h</text>
</a>
</g>
</g>
<!-- Node10&#45;&gt;Node11 -->
<g id="edge13_Node000010_Node000011" class="edge">
<title>Node10&#45;&gt;Node11</title>
<g id="a_edge13_Node000010_Node000011"><a xlink:title=" ">
<path fill="none" stroke="#63b8ff" d="M482.86,-110.09C494.4,-102.21 511.39,-90.61 525.07,-81.27"/>
<polygon fill="#63b8ff" stroke="#63b8ff" points="526.79,-84.33 533.08,-75.81 522.85,-78.55 526.79,-84.33"/>
</a>
</g>
</g>
<!-- Node12 -->
<g id="Node000012" class="node">
<title>Node12</title>
<g id="a_Node000012"><a xlink:title=" ">
<polygon fill="#e0e0e0" stroke="#999999" points="622.88,-74.5 584.38,-74.5 584.38,-55.25 622.88,-55.25 622.88,-74.5"/>
<text xml:space="preserve" text-anchor="middle" x="603.62" y="-61" font-family="Helvetica,sans-Serif" font-size="10.00">SD.h</text>
</a>
</g>
</g>
<!-- Node10&#45;&gt;Node12 -->
<g id="edge14_Node000010_Node000012" class="edge">
<title>Node10&#45;&gt;Node12</title>
<g id="a_edge14_Node000010_Node000012"><a xlink:title=" ">
<path fill="none" stroke="#63b8ff" d="M492.36,-110.09C514.76,-101.19 549.12,-87.54 573.73,-77.76"/>
<polygon fill="#63b8ff" stroke="#63b8ff" points="574.86,-81.07 582.86,-74.13 572.28,-74.57 574.86,-81.07"/>
</a>
</g>
</g>
<!-- Node13 -->
<g id="Node000013" class="node">
<title>Node13</title>
<g id="a_Node000013"><a xlink:href="_time_manager_8h.html" target="_top" xlink:title="Real&#45;time clock and time synchronization management.">
<polygon fill="white" stroke="#666666" points="511,-74.5 428.25,-74.5 428.25,-55.25 511,-55.25 511,-74.5"/>
<text xml:space="preserve" text-anchor="middle" x="469.62" y="-61" font-family="Helvetica,sans-Serif" font-size="10.00">TimeManager.h</text>
</a>
</g>
</g>
<!-- Node10&#45;&gt;Node13 -->
<g id="edge15_Node000010_Node000013" class="edge">
<title>Node10&#45;&gt;Node13</title>
<g id="a_edge15_Node000010_Node000013"><a xlink:title=" ">
<path fill="none" stroke="#63b8ff" d="M469.62,-110.33C469.62,-103.82 469.62,-94.67 469.62,-86.37"/>
<polygon fill="#63b8ff" stroke="#63b8ff" points="473.13,-86.37 469.63,-76.37 466.13,-86.37 473.13,-86.37"/>
</a>
</g>
</g>
<!-- Node13&#45;&gt;Node3 -->
<g id="edge16_Node000013_Node000003" class="edge">
<title>Node13&#45;&gt;Node3</title>
<g id="a_edge16_Node000013_Node000003"><a xlink:title=" ">
<path fill="none" stroke="#63b8ff" d="M427.91,-57.15C423.43,-56.48 418.93,-55.84 414.62,-55.25 288.88,-38.13 139.51,-22.07 69.13,-14.76"/>
<polygon fill="#63b8ff" stroke="#63b8ff" points="69.54,-11.29 59.23,-13.74 68.82,-18.25 69.54,-11.29"/>
</a>
</g>
</g>
<!-- Node14 -->
<g id="Node000014" class="node">
<title>Node14</title>
<g id="a_Node000014"><a xlink:title=" ">
<polygon fill="#e0e0e0" stroke="#999999" points="319.88,-19.25 275.38,-19.25 275.38,0 319.88,0 319.88,-19.25"/>
<text xml:space="preserve" text-anchor="middle" x="297.62" y="-5.75" font-family="Helvetica,sans-Serif" font-size="10.00">WiFi.h</text>
</a>
</g>
</g>
<!-- Node13&#45;&gt;Node14 -->
<g id="edge17_Node000013_Node000014" class="edge">
<title>Node13&#45;&gt;Node14</title>
<g id="a_edge17_Node000013_Node000014"><a xlink:title=" ">
<path fill="none" stroke="#63b8ff" d="M440.45,-54.84C410.23,-45.49 363.07,-30.89 331.29,-21.05"/>
<polygon fill="#63b8ff" stroke="#63b8ff" points="332.37,-17.72 321.79,-18.11 330.3,-24.41 332.37,-17.72"/>
</a>
</g>
</g>
<!-- Node15 -->
<g id="Node000015" class="node">
<title>Node15</title>
<g id="a_Node000015"><a xlink:title=" ">
<polygon fill="#e0e0e0" stroke="#999999" points="382.88,-19.25 338.38,-19.25 338.38,0 382.88,0 382.88,-19.25"/>
<text xml:space="preserve" text-anchor="middle" x="360.62" y="-5.75" font-family="Helvetica,sans-Serif" font-size="10.00">Wire.h</text>
</a>
</g>
</g>
<!-- Node13&#45;&gt;Node15 -->
<g id="edge18_Node000013_Node000015" class="edge">
<title>Node13&#45;&gt;Node15</title>
<g id="a_edge18_Node000013_Node000015"><a xlink:title=" ">
<path fill="none" stroke="#63b8ff" d="M451.13,-54.84C434.22,-46.58 408.94,-34.23 389.39,-24.68"/>
<polygon fill="#63b8ff" stroke="#63b8ff" points="391.09,-21.61 380.57,-20.37 388.01,-27.9 391.09,-21.61"/>
</a>
</g>
</g>
<!-- Node16 -->
<g id="Node000016" class="node">
<title>Node16</title>
<g id="a_Node000016"><a xlink:title=" ">
<polygon fill="#e0e0e0" stroke="#999999" points="456.12,-19.25 401.12,-19.25 401.12,0 456.12,0 456.12,-19.25"/>
<text xml:space="preserve" text-anchor="middle" x="428.62" y="-5.75" font-family="Helvetica,sans-Serif" font-size="10.00">RTClib.h</text>
</a>
</g>
</g>
<!-- Node13&#45;&gt;Node16 -->
<g id="edge19_Node000013_Node000016" class="edge">
<title>Node13&#45;&gt;Node16</title>
<g id="a_edge19_Node000013_Node000016"><a xlink:title=" ">
<path fill="none" stroke="#63b8ff" d="M462.85,-55.08C457.31,-47.88 449.28,-37.46 442.4,-28.51"/>
<polygon fill="#63b8ff" stroke="#63b8ff" points="445.34,-26.6 436.47,-20.81 439.79,-30.87 445.34,-26.6"/>
</a>
</g>
</g>
<!-- Node17 -->
<g id="Node000017" class="node">
<title>Node17</title>
<g id="a_Node000017"><a xlink:title=" ">
<polygon fill="#e0e0e0" stroke="#999999" points="544.62,-19.25 474.62,-19.25 474.62,0 544.62,0 544.62,-19.25"/>
<text xml:space="preserve" text-anchor="middle" x="509.62" y="-5.75" font-family="Helvetica,sans-Serif" font-size="10.00">NTPClient.h</text>
</a>
</g>
</g>
<!-- Node13&#45;&gt;Node17 -->
<g id="edge20_Node000013_Node000017" class="edge">
<title>Node13&#45;&gt;Node17</title>
<g id="a_edge20_Node000013_Node000017"><a xlink:title=" ">
<path fill="none" stroke="#63b8ff" d="M476.23,-55.08C481.58,-47.96 489.3,-37.68 495.97,-28.8"/>
<polygon fill="#63b8ff" stroke="#63b8ff" points="498.76,-30.92 501.97,-20.82 493.16,-26.71 498.76,-30.92"/>
</a>
</g>
</g>
<!-- Node18 -->
<g id="Node000018" class="node">
<title>Node18</title>
<g id="a_Node000018"><a xlink:title=" ">
<polygon fill="#e0e0e0" stroke="#999999" points="624.88,-19.25 562.38,-19.25 562.38,0 624.88,0 624.88,-19.25"/>
<text xml:space="preserve" text-anchor="middle" x="593.62" y="-5.75" font-family="Helvetica,sans-Serif" font-size="10.00">WiFiUdp.h</text>
</a>
</g>
</g>
<!-- Node13&#45;&gt;Node18 -->
<g id="edge21_Node000013_Node000018" class="edge">
<title>Node13&#45;&gt;Node18</title>
<g id="a_edge21_Node000013_Node000018"><a xlink:title=" ">
<path fill="none" stroke="#63b8ff" d="M490.66,-54.84C510.26,-46.43 539.73,-33.77 562.13,-24.15"/>
<polygon fill="#63b8ff" stroke="#63b8ff" points="563.29,-27.46 571.1,-20.3 560.53,-21.03 563.29,-27.46"/>
</a>
</g>
</g>
<!-- Node19 -->
<g id="Node000019" class="node">
<title>Node19</title>
<g id="a_Node000019"><a xlink:title=" ">
<polygon fill="#e0e0e0" stroke="#999999" points="720.75,-19.25 642.5,-19.25 642.5,0 720.75,0 720.75,-19.25"/>
<text xml:space="preserve" text-anchor="middle" x="681.62" y="-5.75" font-family="Helvetica,sans-Serif" font-size="10.00">ArduinoJson.h</text>
</a>
</g>
</g>
<!-- Node13&#45;&gt;Node19 -->
<g id="edge22_Node000013_Node000019" class="edge">
<title>Node13&#45;&gt;Node19</title>
<g id="a_edge22_Node000013_Node000019"><a xlink:title=" ">
<path fill="none" stroke="#63b8ff" d="M505.59,-54.84C541.07,-45.93 595.5,-32.26 634.44,-22.48"/>
<polygon fill="#63b8ff" stroke="#63b8ff" points="635.17,-25.9 644.02,-20.07 633.47,-19.11 635.17,-25.9"/>
</a>
</g>
</g>
</g>
</svg>
