<?xml version="1.0" encoding="UTF-8" standalone="no"?>
<!DOCTYPE svg PUBLIC "-//W3C//DTD SVG 1.1//EN"
 "http://www.w3.org/Graphics/SVG/1.1/DTD/svg11.dtd">
<!-- Generated by graphviz version 13.1.0 (20250701.0955)
 -->
<!-- Title: include/Alarm.h Pages: 1 -->
<svg width="780pt" height="248pt"
 viewBox="0.00 0.00 780.00 248.00" xmlns="http://www.w3.org/2000/svg" xmlns:xlink="http://www.w3.org/1999/xlink">
<g id="graph0" class="graph" transform="scale(1 1) rotate(0) translate(4 244.25)">
<title>include/Alarm.h</title>
<!-- Node1 -->
<g id="Node000001" class="node">
<title>Node1</title>
<g id="a_Node000001"><a xlink:title="Alarm management system for temperature monitoring.">
<polygon fill="#999999" stroke="#666666" points="457.38,-240.25 373.88,-240.25 373.88,-221 457.38,-221 457.38,-240.25"/>
<text xml:space="preserve" text-anchor="middle" x="415.62" y="-226.75" font-family="Helvetica,sans-Serif" font-size="10.00">include/Alarm.h</text>
</a>
</g>
</g>
<!-- Node2 -->
<g id="Node000002" class="node">
<title>Node2</title>
<g id="a_Node000002"><a xlink:href="_temperature_controller_8h.html" target="_top" xlink:title="Central temperature monitoring and control system.">
<polygon fill="white" stroke="#666666" points="426.25,-185 273,-185 273,-165.75 426.25,-165.75 426.25,-185"/>
<text xml:space="preserve" text-anchor="middle" x="349.62" y="-171.5" font-family="Helvetica,sans-Serif" font-size="10.00">include/TemperatureController.h</text>
</a>
</g>
</g>
<!-- Node1&#45;&gt;Node2 -->
<g id="edge1_Node000001_Node000002" class="edge">
<title>Node1&#45;&gt;Node2</title>
<g id="a_edge1_Node000001_Node000002"><a xlink:title=" ">
<path fill="none" stroke="#63b8ff" d="M395.53,-213.41C384.07,-204.17 370.14,-192.93 360.66,-185.27"/>
<polygon fill="#63b8ff" stroke="#63b8ff" points="393.27,-216.09 403.25,-219.64 397.67,-210.64 393.27,-216.09"/>
</a>
</g>
</g>
<!-- Node11 -->
<g id="Node000011" class="node">
<title>Node11</title>
<g id="a_Node000011"><a xlink:href="_alarm_8cpp.html" target="_top" xlink:title="Implementation of alarm management system for temperature monitoring.">
<polygon fill="white" stroke="#666666" points="521,-185 444.25,-185 444.25,-165.75 521,-165.75 521,-185"/>
<text xml:space="preserve" text-anchor="middle" x="482.62" y="-171.5" font-family="Helvetica,sans-Serif" font-size="10.00">src/Alarm.cpp</text>
</a>
</g>
</g>
<!-- Node1&#45;&gt;Node11 -->
<g id="edge12_Node000001_Node000011" class="edge">
<title>Node1&#45;&gt;Node11</title>
<g id="a_edge12_Node000001_Node000011"><a xlink:title=" ">
<path fill="none" stroke="#63b8ff" d="M435.67,-213.69C447.37,-204.39 461.7,-193.01 471.43,-185.27"/>
<polygon fill="#63b8ff" stroke="#63b8ff" points="433.83,-210.69 428.18,-219.65 438.18,-216.17 433.83,-210.69"/>
</a>
</g>
</g>
<!-- Node3 -->
<g id="Node000003" class="node">
<title>Node3</title>
<g id="a_Node000003"><a xlink:href="_c_s_v_config_manager_8h.html" target="_top" xlink:title="CSV configuration import/export manager for measurement points and alarms.">
<polygon fill="white" stroke="#666666" points="278.75,-129.75 134.5,-129.75 134.5,-110.5 278.75,-110.5 278.75,-129.75"/>
<text xml:space="preserve" text-anchor="middle" x="206.62" y="-116.25" font-family="Helvetica,sans-Serif" font-size="10.00">include/CSVConfigManager.h</text>
</a>
</g>
</g>
<!-- Node2&#45;&gt;Node3 -->
<g id="edge2_Node000002_Node000003" class="edge">
<title>Node2&#45;&gt;Node3</title>
<g id="a_edge2_Node000002_Node000003"><a xlink:title=" ">
<path fill="none" stroke="#63b8ff" d="M314.84,-161.42C288.88,-151.75 254.05,-138.79 231,-130.2"/>
<polygon fill="#63b8ff" stroke="#63b8ff" points="313.36,-164.6 323.95,-164.81 315.8,-158.04 313.36,-164.6"/>
</a>
</g>
</g>
<!-- Node4 -->
<g id="Node000004" class="node">
<title>Node4</title>
<g id="a_Node000004"><a xlink:href="_config_manager_8h.html" target="_top" xlink:title="Configuration management system for temperature monitoring device.">
<polygon fill="white" stroke="#666666" points="123.25,-74.5 0,-74.5 0,-55.25 123.25,-55.25 123.25,-74.5"/>
<text xml:space="preserve" text-anchor="middle" x="61.62" y="-61" font-family="Helvetica,sans-Serif" font-size="10.00">include/ConfigManager.h</text>
</a>
</g>
</g>
<!-- Node2&#45;&gt;Node4 -->
<g id="edge7_Node000002_Node000004" class="edge">
<title>Node2&#45;&gt;Node4</title>
<g id="a_edge7_Node000002_Node000004"><a xlink:title=" ">
<path fill="none" stroke="#63b8ff" d="M261.21,-168.76C218.27,-163.12 167.12,-151.91 125.62,-129.75 100.15,-116.14 78.23,-89.1 67.92,-74.96"/>
<polygon fill="#63b8ff" stroke="#63b8ff" points="260.66,-172.22 271.01,-169.96 261.51,-165.27 260.66,-172.22"/>
</a>
</g>
</g>
<!-- Node6 -->
<g id="Node000006" class="node">
<title>Node6</title>
<g id="a_Node000006"><a xlink:href="main_8cpp.html" target="_top" xlink:title="Main application entry point for Industrial Temperature Monitoring System.">
<polygon fill="white" stroke="#666666" points="275.75,-19.25 203.5,-19.25 203.5,0 275.75,0 275.75,-19.25"/>
<text xml:space="preserve" text-anchor="middle" x="239.62" y="-5.75" font-family="Helvetica,sans-Serif" font-size="10.00">src/main.cpp</text>
</a>
</g>
</g>
<!-- Node2&#45;&gt;Node6 -->
<g id="edge11_Node000002_Node000006" class="edge">
<title>Node2&#45;&gt;Node6</title>
<g id="a_edge11_Node000002_Node000006"><a xlink:title=" ">
<path fill="none" stroke="#63b8ff" d="M339.34,-155.48C335.06,-147.55 330.06,-138.22 325.62,-129.75 308.38,-96.82 310.02,-84.91 287.62,-55.25 277.07,-41.27 261.84,-27.96 251.38,-19.57"/>
<polygon fill="#63b8ff" stroke="#63b8ff" points="336.22,-157.06 344.07,-164.18 342.38,-153.73 336.22,-157.06"/>
</a>
</g>
</g>
<!-- Node8 -->
<g id="Node000008" class="node">
<title>Node8</title>
<g id="a_Node000008"><a xlink:href="_logger_manager_8cpp.html" target="_top" xlink:title="Implementation of data logging and event management system.">
<polygon fill="white" stroke="#666666" points="452.25,-129.75 335,-129.75 335,-110.5 452.25,-110.5 452.25,-129.75"/>
<text xml:space="preserve" text-anchor="middle" x="393.62" y="-116.25" font-family="Helvetica,sans-Serif" font-size="10.00">src/LoggerManager.cpp</text>
</a>
</g>
</g>
<!-- Node2&#45;&gt;Node8 -->
<g id="edge8_Node000002_Node000008" class="edge">
<title>Node2&#45;&gt;Node8</title>
<g id="a_edge8_Node000002_Node000008"><a xlink:title=" ">
<path fill="none" stroke="#63b8ff" d="M364.21,-156.72C371.58,-147.81 380.2,-137.37 386.2,-130.11"/>
<polygon fill="#63b8ff" stroke="#63b8ff" points="361.53,-154.48 357.85,-164.42 366.92,-158.94 361.53,-154.48"/>
</a>
</g>
</g>
<!-- Node9 -->
<g id="Node000009" class="node">
<title>Node9</title>
<g id="a_Node000009"><a xlink:href="_temp_modbus_server_8cpp.html" target="_top" xlink:title="Implementation of Modbus RTU server for temperature monitoring.">
<polygon fill="white" stroke="#666666" points="607.38,-129.75 469.88,-129.75 469.88,-110.5 607.38,-110.5 607.38,-129.75"/>
<text xml:space="preserve" text-anchor="middle" x="538.62" y="-116.25" font-family="Helvetica,sans-Serif" font-size="10.00">src/TempModbusServer.cpp</text>
</a>
</g>
</g>
<!-- Node2&#45;&gt;Node9 -->
<g id="edge9_Node000002_Node000009" class="edge">
<title>Node2&#45;&gt;Node9</title>
<g id="a_edge9_Node000002_Node000009"><a xlink:title=" ">
<path fill="none" stroke="#63b8ff" d="M392.41,-162.32C427.02,-152.57 474.99,-139.05 506.41,-130.2"/>
<polygon fill="#63b8ff" stroke="#63b8ff" points="391.82,-158.85 383.14,-164.93 393.72,-165.59 391.82,-158.85"/>
</a>
</g>
</g>
<!-- Node10 -->
<g id="Node000010" class="node">
<title>Node10</title>
<g id="a_Node000010"><a xlink:href="_temperature_controller_8cpp.html" target="_top" xlink:title="Implementation of the central temperature monitoring and control system.">
<polygon fill="white" stroke="#666666" points="771.88,-129.75 625.38,-129.75 625.38,-110.5 771.88,-110.5 771.88,-129.75"/>
<text xml:space="preserve" text-anchor="middle" x="698.62" y="-116.25" font-family="Helvetica,sans-Serif" font-size="10.00">src/TemperatureController.cpp</text>
</a>
</g>
</g>
<!-- Node2&#45;&gt;Node10 -->
<g id="edge10_Node000002_Node000010" class="edge">
<title>Node2&#45;&gt;Node10</title>
<g id="a_edge10_Node000002_Node000010"><a xlink:title=" ">
<path fill="none" stroke="#63b8ff" d="M420.47,-163.57C484.74,-153.76 578.45,-139.46 638.98,-130.23"/>
<polygon fill="#63b8ff" stroke="#63b8ff" points="420.08,-160.08 410.72,-165.05 421.13,-167 420.08,-160.08"/>
</a>
</g>
</g>
<!-- Node3&#45;&gt;Node4 -->
<g id="edge3_Node000003_Node000004" class="edge">
<title>Node3&#45;&gt;Node4</title>
<g id="a_edge3_Node000003_Node000004"><a xlink:title=" ">
<path fill="none" stroke="#63b8ff" d="M171.36,-106.17C145.03,-96.5 109.71,-83.54 86.34,-74.95"/>
<polygon fill="#63b8ff" stroke="#63b8ff" points="170.01,-109.41 180.61,-109.57 172.43,-102.84 170.01,-109.41"/>
</a>
</g>
</g>
<!-- Node7 -->
<g id="Node000007" class="node">
<title>Node7</title>
<g id="a_Node000007"><a xlink:href="_c_s_v_config_manager_8cpp.html" target="_top" xlink:title="Implementation of CSV configuration management for measurement points.">
<polygon fill="white" stroke="#666666" points="278.38,-74.5 140.88,-74.5 140.88,-55.25 278.38,-55.25 278.38,-74.5"/>
<text xml:space="preserve" text-anchor="middle" x="209.62" y="-61" font-family="Helvetica,sans-Serif" font-size="10.00">src/CSVConfigManager.cpp</text>
</a>
</g>
</g>
<!-- Node3&#45;&gt;Node7 -->
<g id="edge6_Node000003_Node000007" class="edge">
<title>Node3&#45;&gt;Node7</title>
<g id="a_edge6_Node000003_Node000007"><a xlink:title=" ">
<path fill="none" stroke="#63b8ff" d="M207.77,-98.88C208.23,-90.59 208.75,-81.42 209.12,-74.86"/>
<polygon fill="#63b8ff" stroke="#63b8ff" points="204.27,-98.64 207.21,-108.82 211.26,-99.03 204.27,-98.64"/>
</a>
</g>
</g>
<!-- Node5 -->
<g id="Node000005" class="node">
<title>Node5</title>
<g id="a_Node000005"><a xlink:href="_config_manager_8cpp.html" target="_top" xlink:title="Implementation of web&#45;based configuration management system.">
<polygon fill="white" stroke="#666666" points="119.88,-19.25 3.38,-19.25 3.38,0 119.88,0 119.88,-19.25"/>
<text xml:space="preserve" text-anchor="middle" x="61.62" y="-5.75" font-family="Helvetica,sans-Serif" font-size="10.00">src/ConfigManager.cpp</text>
</a>
</g>
</g>
<!-- Node4&#45;&gt;Node5 -->
<g id="edge4_Node000004_Node000005" class="edge">
<title>Node4&#45;&gt;Node5</title>
<g id="a_edge4_Node000004_Node000005"><a xlink:title=" ">
<path fill="none" stroke="#63b8ff" d="M61.62,-43.63C61.62,-35.34 61.62,-26.17 61.62,-19.61"/>
<polygon fill="#63b8ff" stroke="#63b8ff" points="58.13,-43.57 61.63,-53.57 65.13,-43.57 58.13,-43.57"/>
</a>
</g>
</g>
<!-- Node4&#45;&gt;Node6 -->
<g id="edge5_Node000004_Node000006" class="edge">
<title>Node4&#45;&gt;Node6</title>
<g id="a_edge5_Node000004_Node000006"><a xlink:title=" ">
<path fill="none" stroke="#63b8ff" d="M102.77,-51.57C135.3,-41.84 179.95,-28.48 209.28,-19.7"/>
<polygon fill="#63b8ff" stroke="#63b8ff" points="101.85,-48.19 93.27,-54.41 103.85,-54.9 101.85,-48.19"/>
</a>
</g>
</g>
</g>
</svg>
