<?xml version="1.0" encoding="UTF-8" standalone="no"?>
<!DOCTYPE svg PUBLIC "-//W3C//DTD SVG 1.1//EN"
 "http://www.w3.org/Graphics/SVG/1.1/DTD/svg11.dtd">
<!-- Generated by graphviz version 13.1.0 (20250701.0955)
 -->
<!-- Title: include/CSVConfigManager.h Pages: 1 -->
<svg width="339pt" height="138pt"
 viewBox="0.00 0.00 339.00 138.00" xmlns="http://www.w3.org/2000/svg" xmlns:xlink="http://www.w3.org/1999/xlink">
<g id="graph0" class="graph" transform="scale(1 1) rotate(0) translate(4 133.75)">
<title>include/CSVConfigManager.h</title>
<!-- Node1 -->
<g id="Node000001" class="node">
<title>Node1</title>
<g id="a_Node000001"><a xlink:title=" ">
<polygon fill="#999999" stroke="#666666" points="260.38,-129.75 116.12,-129.75 116.12,-110.5 260.38,-110.5 260.38,-129.75"/>
<text xml:space="preserve" text-anchor="middle" x="188.25" y="-116.25" font-family="Helvetica,sans-Serif" font-size="10.00">include/CSVConfigManager.h</text>
</a>
</g>
</g>
<!-- Node2 -->
<g id="Node000002" class="node">
<title>Node2</title>
<g id="a_Node000002"><a xlink:href="_config_manager_8h.html" target="_top" xlink:title=" ">
<polygon fill="white" stroke="#666666" points="175.88,-74.5 52.62,-74.5 52.62,-55.25 175.88,-55.25 175.88,-74.5"/>
<text xml:space="preserve" text-anchor="middle" x="114.25" y="-61" font-family="Helvetica,sans-Serif" font-size="10.00">include/ConfigManager.h</text>
</a>
</g>
</g>
<!-- Node1&#45;&gt;Node2 -->
<g id="edge1_Node000001_Node000002" class="edge">
<title>Node1&#45;&gt;Node2</title>
<g id="a_edge1_Node000001_Node000002"><a xlink:title=" ">
<path fill="none" stroke="#63b8ff" d="M166.49,-103.47C153.5,-94.12 137.47,-82.58 126.62,-74.77"/>
<polygon fill="#63b8ff" stroke="#63b8ff" points="164.31,-106.21 174.47,-109.21 168.4,-100.53 164.31,-106.21"/>
</a>
</g>
</g>
<!-- Node5 -->
<g id="Node000005" class="node">
<title>Node5</title>
<g id="a_Node000005"><a xlink:href="_c_s_v_config_manager_8cpp.html" target="_top" xlink:title=" ">
<polygon fill="white" stroke="#666666" points="331,-74.5 193.5,-74.5 193.5,-55.25 331,-55.25 331,-74.5"/>
<text xml:space="preserve" text-anchor="middle" x="262.25" y="-61" font-family="Helvetica,sans-Serif" font-size="10.00">src/CSVConfigManager.cpp</text>
</a>
</g>
</g>
<!-- Node1&#45;&gt;Node5 -->
<g id="edge4_Node000001_Node000005" class="edge">
<title>Node1&#45;&gt;Node5</title>
<g id="a_edge4_Node000001_Node000005"><a xlink:title=" ">
<path fill="none" stroke="#63b8ff" d="M210.01,-103.47C223,-94.12 239.03,-82.58 249.88,-74.77"/>
<polygon fill="#63b8ff" stroke="#63b8ff" points="208.1,-100.53 202.03,-109.21 212.19,-106.21 208.1,-100.53"/>
</a>
</g>
</g>
<!-- Node3 -->
<g id="Node000003" class="node">
<title>Node3</title>
<g id="a_Node000003"><a xlink:href="_config_manager_8cpp.html" target="_top" xlink:title=" ">
<polygon fill="white" stroke="#666666" points="116.5,-19.25 0,-19.25 0,0 116.5,0 116.5,-19.25"/>
<text xml:space="preserve" text-anchor="middle" x="58.25" y="-5.75" font-family="Helvetica,sans-Serif" font-size="10.00">src/ConfigManager.cpp</text>
</a>
</g>
</g>
<!-- Node2&#45;&gt;Node3 -->
<g id="edge2_Node000002_Node000003" class="edge">
<title>Node2&#45;&gt;Node3</title>
<g id="a_edge2_Node000002_Node000003"><a xlink:title=" ">
<path fill="none" stroke="#63b8ff" d="M96.62,-47.11C87.01,-37.97 75.5,-27.03 67.61,-19.52"/>
<polygon fill="#63b8ff" stroke="#63b8ff" points="93.99,-49.44 103.65,-53.8 98.82,-44.37 93.99,-49.44"/>
</a>
</g>
</g>
<!-- Node4 -->
<g id="Node000004" class="node">
<title>Node4</title>
<g id="a_Node000004"><a xlink:href="main_8cpp.html" target="_top" xlink:title=" ">
<polygon fill="white" stroke="#666666" points="206.38,-19.25 134.12,-19.25 134.12,0 206.38,0 206.38,-19.25"/>
<text xml:space="preserve" text-anchor="middle" x="170.25" y="-5.75" font-family="Helvetica,sans-Serif" font-size="10.00">src/main.cpp</text>
</a>
</g>
</g>
<!-- Node2&#45;&gt;Node4 -->
<g id="edge3_Node000002_Node000004" class="edge">
<title>Node2&#45;&gt;Node4</title>
<g id="a_edge3_Node000002_Node000004"><a xlink:title=" ">
<path fill="none" stroke="#63b8ff" d="M131.88,-47.11C141.49,-37.97 153,-27.03 160.89,-19.52"/>
<polygon fill="#63b8ff" stroke="#63b8ff" points="129.68,-44.37 124.85,-53.8 134.51,-49.44 129.68,-44.37"/>
</a>
</g>
</g>
</g>
</svg>
