<?xml version="1.0" encoding="UTF-8" standalone="no"?>
<!DOCTYPE svg PUBLIC "-//W3C//DTD SVG 1.1//EN"
 "http://www.w3.org/Graphics/SVG/1.1/DTD/svg11.dtd">
<!-- Generated by graphviz version 13.1.0 (20250701.0955)
 -->
<!-- Title: include/CSVConfigManager.h Pages: 1 -->
<svg width="1148pt" height="359pt"
 viewBox="0.00 0.00 1148.00 359.00" xmlns="http://www.w3.org/2000/svg" xmlns:xlink="http://www.w3.org/1999/xlink">
<g id="graph0" class="graph" transform="scale(1 1) rotate(0) translate(4 354.75)">
<title>include/CSVConfigManager.h</title>
<!-- Node1 -->
<g id="Node000001" class="node">
<title>Node1</title>
<g id="a_Node000001"><a xlink:title="CSV configuration import/export manager for measurement points and alarms.">
<polygon fill="#999999" stroke="#666666" points="930.38,-350.75 786.12,-350.75 786.12,-331.5 930.38,-331.5 930.38,-350.75"/>
<text xml:space="preserve" text-anchor="middle" x="858.25" y="-337.25" font-family="Helvetica,sans-Serif" font-size="10.00">include/CSVConfigManager.h</text>
</a>
</g>
</g>
<!-- Node2 -->
<g id="Node000002" class="node">
<title>Node2</title>
<g id="a_Node000002"><a xlink:title=" ">
<polygon fill="#e0e0e0" stroke="#999999" points="581.88,-19.25 524.62,-19.25 524.62,0 581.88,0 581.88,-19.25"/>
<text xml:space="preserve" text-anchor="middle" x="553.25" y="-5.75" font-family="Helvetica,sans-Serif" font-size="10.00">Arduino.h</text>
</a>
</g>
</g>
<!-- Node1&#45;&gt;Node2 -->
<g id="edge1_Node000001_Node000002" class="edge">
<title>Node1&#45;&gt;Node2</title>
<g id="a_edge1_Node000001_Node000002"><a xlink:title=" ">
<path fill="none" stroke="#63b8ff" d="M870.72,-331.09C913.81,-298.8 1050.44,-187 987.25,-110.5 974.67,-95.27 837.43,-59.97 818.25,-55.25 739.49,-35.86 645.49,-22.23 593.27,-15.47"/>
<polygon fill="#63b8ff" stroke="#63b8ff" points="594.03,-12.04 583.67,-14.25 593.14,-18.98 594.03,-12.04"/>
</a>
</g>
</g>
<!-- Node3 -->
<g id="Node000003" class="node">
<title>Node3</title>
<g id="a_Node000003"><a xlink:title=" ">
<polygon fill="#e0e0e0" stroke="#999999" points="897.38,-295.5 819.12,-295.5 819.12,-276.25 897.38,-276.25 897.38,-295.5"/>
<text xml:space="preserve" text-anchor="middle" x="858.25" y="-282" font-family="Helvetica,sans-Serif" font-size="10.00">CSV_Parser.h</text>
</a>
</g>
</g>
<!-- Node1&#45;&gt;Node3 -->
<g id="edge2_Node000001_Node000003" class="edge">
<title>Node1&#45;&gt;Node3</title>
<g id="a_edge2_Node000001_Node000003"><a xlink:title=" ">
<path fill="none" stroke="#63b8ff" d="M858.25,-331.33C858.25,-324.82 858.25,-315.67 858.25,-307.37"/>
<polygon fill="#63b8ff" stroke="#63b8ff" points="861.75,-307.37 858.25,-297.37 854.75,-307.37 861.75,-307.37"/>
</a>
</g>
</g>
<!-- Node4 -->
<g id="Node000004" class="node">
<title>Node4</title>
<g id="a_Node000004"><a xlink:href="_temperature_controller_8h.html" target="_top" xlink:title=" ">
<polygon fill="white" stroke="#666666" points="626,-295.5 506.5,-295.5 506.5,-276.25 626,-276.25 626,-295.5"/>
<text xml:space="preserve" text-anchor="middle" x="566.25" y="-282" font-family="Helvetica,sans-Serif" font-size="10.00">TemperatureController.h</text>
</a>
</g>
</g>
<!-- Node1&#45;&gt;Node4 -->
<g id="edge3_Node000001_Node000004" class="edge">
<title>Node1&#45;&gt;Node4</title>
<g id="a_edge3_Node000001_Node000004"><a xlink:title=" ">
<path fill="none" stroke="#63b8ff" d="M808.39,-331.03C758.2,-321.88 680.74,-307.75 627,-297.95"/>
<polygon fill="#63b8ff" stroke="#63b8ff" points="627.86,-294.55 617.4,-296.2 626.61,-301.44 627.86,-294.55"/>
</a>
</g>
</g>
<!-- Node4&#45;&gt;Node2 -->
<g id="edge4_Node000004_Node000002" class="edge">
<title>Node4&#45;&gt;Node2</title>
<g id="a_edge4_Node000004_Node000002"><a xlink:title=" ">
<path fill="none" stroke="#63b8ff" d="M626.05,-280.9C759.59,-269.8 1063.12,-230.91 968.25,-110.5 956.44,-95.51 694.77,-39.94 593.12,-18.83"/>
<polygon fill="#63b8ff" stroke="#63b8ff" points="594.09,-15.46 583.59,-16.86 592.67,-22.31 594.09,-15.46"/>
</a>
</g>
</g>
<!-- Node5 -->
<g id="Node000005" class="node">
<title>Node5</title>
<g id="a_Node000005"><a xlink:title=" ">
<polygon fill="#e0e0e0" stroke="#999999" points="641.75,-74.5 598.75,-74.5 598.75,-55.25 641.75,-55.25 641.75,-74.5"/>
<text xml:space="preserve" text-anchor="middle" x="620.25" y="-61" font-family="Helvetica,sans-Serif" font-size="10.00">vector</text>
</a>
</g>
</g>
<!-- Node4&#45;&gt;Node5 -->
<g id="edge5_Node000004_Node000005" class="edge">
<title>Node4&#45;&gt;Node5</title>
<g id="a_edge5_Node000004_Node000005"><a xlink:title=" ">
<path fill="none" stroke="#63b8ff" d="M568.43,-276.02C576.41,-243.69 604.06,-131.53 615.37,-85.66"/>
<polygon fill="#63b8ff" stroke="#63b8ff" points="618.74,-86.62 617.74,-76.07 611.94,-84.94 618.74,-86.62"/>
</a>
</g>
</g>
<!-- Node6 -->
<g id="Node000006" class="node">
<title>Node6</title>
<g id="a_Node000006"><a xlink:href="_sensor_8h.html" target="_top" xlink:title=" ">
<polygon fill="white" stroke="#666666" points="287.38,-129.75 233.12,-129.75 233.12,-110.5 287.38,-110.5 287.38,-129.75"/>
<text xml:space="preserve" text-anchor="middle" x="260.25" y="-116.25" font-family="Helvetica,sans-Serif" font-size="10.00">Sensor.h</text>
</a>
</g>
</g>
<!-- Node4&#45;&gt;Node6 -->
<g id="edge6_Node000004_Node000006" class="edge">
<title>Node4&#45;&gt;Node6</title>
<g id="a_edge6_Node000004_Node000006"><a xlink:title=" ">
<path fill="none" stroke="#63b8ff" d="M506.16,-278.61C463.28,-272.58 404.99,-261.19 357.25,-240.25 318.35,-223.19 304,-219.53 279.25,-185 270.06,-172.17 265.27,-154.88 262.8,-141.52"/>
<polygon fill="#63b8ff" stroke="#63b8ff" points="266.27,-141.05 261.3,-131.69 259.35,-142.1 266.27,-141.05"/>
</a>
</g>
</g>
<!-- Node7 -->
<g id="Node000007" class="node">
<title>Node7</title>
<g id="a_Node000007"><a xlink:title=" ">
<polygon fill="#e0e0e0" stroke="#999999" points="62.5,-74.5 0,-74.5 0,-55.25 62.5,-55.25 62.5,-74.5"/>
<text xml:space="preserve" text-anchor="middle" x="31.25" y="-61" font-family="Helvetica,sans-Serif" font-size="10.00">OneWire.h</text>
</a>
</g>
</g>
<!-- Node4&#45;&gt;Node7 -->
<g id="edge44_Node000004_Node000007" class="edge">
<title>Node4&#45;&gt;Node7</title>
<g id="a_edge44_Node000004_Node000007"><a xlink:title=" ">
<path fill="none" stroke="#63b8ff" d="M506.17,-283.45C446.6,-280.23 353.72,-270.3 279.25,-240.25 182.1,-201.05 86.1,-117.39 48.19,-82.11"/>
<polygon fill="#63b8ff" stroke="#63b8ff" points="51,-79.95 41.32,-75.64 46.2,-85.04 51,-79.95"/>
</a>
</g>
</g>
<!-- Node8 -->
<g id="Node000008" class="node">
<title>Node8</title>
<g id="a_Node000008"><a xlink:title=" ">
<polygon fill="#e0e0e0" stroke="#999999" points="186.25,-74.5 80.25,-74.5 80.25,-55.25 186.25,-55.25 186.25,-74.5"/>
<text xml:space="preserve" text-anchor="middle" x="133.25" y="-61" font-family="Helvetica,sans-Serif" font-size="10.00">DallasTemperature.h</text>
</a>
</g>
</g>
<!-- Node4&#45;&gt;Node8 -->
<g id="edge45_Node000004_Node000008" class="edge">
<title>Node4&#45;&gt;Node8</title>
<g id="a_edge45_Node000004_Node000008"><a xlink:title=" ">
<path fill="none" stroke="#63b8ff" d="M506.12,-284.2C452.56,-281.37 373.43,-271.57 312.25,-240.25 236.71,-201.58 172.1,-120.2 145.82,-83.95"/>
<polygon fill="#63b8ff" stroke="#63b8ff" points="148.98,-82.35 140.33,-76.23 143.27,-86.41 148.98,-82.35"/>
</a>
</g>
</g>
<!-- Node10 -->
<g id="Node000010" class="node">
<title>Node10</title>
<g id="a_Node000010"><a xlink:href="_measurement_point_8h.html" target="_top" xlink:title="Measurement point abstraction for temperature monitoring system.">
<polygon fill="white" stroke="#666666" points="460.25,-185 354.25,-185 354.25,-165.75 460.25,-165.75 460.25,-185"/>
<text xml:space="preserve" text-anchor="middle" x="407.25" y="-171.5" font-family="Helvetica,sans-Serif" font-size="10.00">MeasurementPoint.h</text>
</a>
</g>
</g>
<!-- Node4&#45;&gt;Node10 -->
<g id="edge11_Node000004_Node000010" class="edge">
<title>Node4&#45;&gt;Node10</title>
<g id="a_edge11_Node000004_Node000010"><a xlink:title=" ">
<path fill="none" stroke="#63b8ff" d="M550.61,-275.87C535.66,-267.13 512.58,-253.3 493.25,-240.25 470.1,-224.62 444.51,-205.35 427.32,-192.08"/>
<polygon fill="#63b8ff" stroke="#63b8ff" points="429.94,-189.69 419.89,-186.32 425.65,-195.22 429.94,-189.69"/>
</a>
</g>
</g>
<!-- Node20 -->
<g id="Node000020" class="node">
<title>Node20</title>
<g id="a_Node000020"><a xlink:title=" ">
<polygon fill="#e0e0e0" stroke="#999999" points="1140.38,-19.25 1062.12,-19.25 1062.12,0 1140.38,0 1140.38,-19.25"/>
<text xml:space="preserve" text-anchor="middle" x="1101.25" y="-5.75" font-family="Helvetica,sans-Serif" font-size="10.00">ArduinoJson.h</text>
</a>
</g>
</g>
<!-- Node4&#45;&gt;Node20 -->
<g id="edge46_Node000004_Node000020" class="edge">
<title>Node4&#45;&gt;Node20</title>
<g id="a_edge46_Node000004_Node000020"><a xlink:title=" ">
<path fill="none" stroke="#63b8ff" d="M626.21,-285.3C696.63,-283.96 815.94,-275.91 911.25,-240.25 952.76,-224.72 963.5,-216.91 994.25,-185 1040.99,-136.5 1077.2,-64.17 1092.83,-29.92"/>
<polygon fill="#63b8ff" stroke="#63b8ff" points="1095.99,-31.44 1096.87,-20.88 1089.59,-28.59 1095.99,-31.44"/>
</a>
</g>
</g>
<!-- Node21 -->
<g id="Node000021" class="node">
<title>Node21</title>
<g id="a_Node000021"><a xlink:href="_register_map_8h.html" target="_top" xlink:title=" ">
<polygon fill="white" stroke="#666666" points="446.12,-240.25 366.38,-240.25 366.38,-221 446.12,-221 446.12,-240.25"/>
<text xml:space="preserve" text-anchor="middle" x="406.25" y="-226.75" font-family="Helvetica,sans-Serif" font-size="10.00">RegisterMap.h</text>
</a>
</g>
</g>
<!-- Node4&#45;&gt;Node21 -->
<g id="edge27_Node000004_Node000021" class="edge">
<title>Node4&#45;&gt;Node21</title>
<g id="a_edge27_Node000004_Node000021"><a xlink:title=" ">
<path fill="none" stroke="#63b8ff" d="M539.11,-275.84C513.02,-267.16 473.35,-253.96 444.15,-244.24"/>
<polygon fill="#63b8ff" stroke="#63b8ff" points="445.55,-241.02 434.96,-241.18 443.34,-247.66 445.55,-241.02"/>
</a>
</g>
</g>
<!-- Node23 -->
<g id="Node000023" class="node">
<title>Node23</title>
<g id="a_Node000023"><a xlink:href="_indicator_interface_8h.html" target="_top" xlink:title="Hardware interface for PCF8575 I/O expander and SH1106 OLED display.">
<polygon fill="white" stroke="#666666" points="811.25,-185 711.25,-185 711.25,-165.75 811.25,-165.75 811.25,-185"/>
<text xml:space="preserve" text-anchor="middle" x="761.25" y="-171.5" font-family="Helvetica,sans-Serif" font-size="10.00">IndicatorInterface.h</text>
</a>
</g>
</g>
<!-- Node4&#45;&gt;Node23 -->
<g id="edge30_Node000004_Node000023" class="edge">
<title>Node4&#45;&gt;Node23</title>
<g id="a_edge30_Node000004_Node000023"><a xlink:title=" ">
<path fill="none" stroke="#63b8ff" d="M578.12,-275.91C595.7,-262.87 629.96,-238.33 661.25,-221 682.62,-209.16 707.73,-197.97 727.44,-189.75"/>
<polygon fill="#63b8ff" stroke="#63b8ff" points="728.75,-193 736.67,-185.96 726.09,-186.52 728.75,-193"/>
</a>
</g>
</g>
<!-- Node28 -->
<g id="Node000028" class="node">
<title>Node28</title>
<g id="a_Node000028"><a xlink:href="_alarm_8h.html" target="_top" xlink:title="Alarm management system for temperature monitoring.">
<polygon fill="white" stroke="#666666" points="552.12,-240.25 502.38,-240.25 502.38,-221 552.12,-221 552.12,-240.25"/>
<text xml:space="preserve" text-anchor="middle" x="527.25" y="-226.75" font-family="Helvetica,sans-Serif" font-size="10.00">Alarm.h</text>
</a>
</g>
</g>
<!-- Node4&#45;&gt;Node28 -->
<g id="edge39_Node000004_Node000028" class="edge">
<title>Node4&#45;&gt;Node28</title>
<g id="a_edge39_Node000004_Node000028"><a xlink:title=" ">
<path fill="none" stroke="#63b8ff" d="M559.81,-276.08C554.59,-268.96 547.06,-258.68 540.56,-249.8"/>
<polygon fill="#63b8ff" stroke="#63b8ff" points="543.46,-247.83 534.72,-241.83 537.81,-251.97 543.46,-247.83"/>
</a>
</g>
</g>
<!-- Node29 -->
<g id="Node000029" class="node">
<title>Node29</title>
<g id="a_Node000029"><a xlink:title=" ">
<polygon fill="#e0e0e0" stroke="#999999" points="726.12,-240.25 670.38,-240.25 670.38,-221 726.12,-221 726.12,-240.25"/>
<text xml:space="preserve" text-anchor="middle" x="698.25" y="-226.75" font-family="Helvetica,sans-Serif" font-size="10.00">algorithm</text>
</a>
</g>
</g>
<!-- Node4&#45;&gt;Node29 -->
<g id="edge47_Node000004_Node000029" class="edge">
<title>Node4&#45;&gt;Node29</title>
<g id="a_edge47_Node000004_Node000029"><a xlink:title=" ">
<path fill="none" stroke="#63b8ff" d="M588.64,-275.84C609.69,-267.35 641.45,-254.54 665.37,-244.89"/>
<polygon fill="#63b8ff" stroke="#63b8ff" points="666.38,-248.26 674.34,-241.27 663.76,-241.76 666.38,-248.26"/>
</a>
</g>
</g>
<!-- Node6&#45;&gt;Node2 -->
<g id="edge7_Node000006_Node000002" class="edge">
<title>Node6&#45;&gt;Node2</title>
<g id="a_edge7_Node000006_Node000002"><a xlink:title=" ">
<path fill="none" stroke="#63b8ff" d="M272.58,-110.16C291.99,-96.44 331.31,-70.24 368.25,-55.25 416.25,-35.78 474.84,-23.42 513.05,-16.76"/>
<polygon fill="#63b8ff" stroke="#63b8ff" points="513.45,-20.25 522.73,-15.13 512.29,-13.34 513.45,-20.25"/>
</a>
</g>
</g>
<!-- Node6&#45;&gt;Node7 -->
<g id="edge8_Node000006_Node000007" class="edge">
<title>Node6&#45;&gt;Node7</title>
<g id="a_edge8_Node000006_Node000007"><a xlink:title=" ">
<path fill="none" stroke="#63b8ff" d="M232.63,-112.7C193.15,-103.52 120.24,-86.57 73.83,-75.78"/>
<polygon fill="#63b8ff" stroke="#63b8ff" points="74.64,-72.37 64.11,-73.52 73.06,-79.19 74.64,-72.37"/>
</a>
</g>
</g>
<!-- Node6&#45;&gt;Node8 -->
<g id="edge9_Node000006_Node000008" class="edge">
<title>Node6&#45;&gt;Node8</title>
<g id="a_edge9_Node000006_Node000008"><a xlink:title=" ">
<path fill="none" stroke="#63b8ff" d="M238.71,-110.09C218.64,-101.68 188.45,-89.02 165.5,-79.4"/>
<polygon fill="#63b8ff" stroke="#63b8ff" points="166.87,-76.18 156.3,-75.54 164.16,-82.63 166.87,-76.18"/>
</a>
</g>
</g>
<!-- Node9 -->
<g id="Node000009" class="node">
<title>Node9</title>
<g id="a_Node000009"><a xlink:title=" ">
<polygon fill="#e0e0e0" stroke="#999999" points="315.88,-74.5 204.62,-74.5 204.62,-55.25 315.88,-55.25 315.88,-74.5"/>
<text xml:space="preserve" text-anchor="middle" x="260.25" y="-61" font-family="Helvetica,sans-Serif" font-size="10.00">Adafruit_MAX31865.h</text>
</a>
</g>
</g>
<!-- Node6&#45;&gt;Node9 -->
<g id="edge10_Node000006_Node000009" class="edge">
<title>Node6&#45;&gt;Node9</title>
<g id="a_edge10_Node000006_Node000009"><a xlink:title=" ">
<path fill="none" stroke="#63b8ff" d="M260.25,-110.33C260.25,-103.82 260.25,-94.67 260.25,-86.37"/>
<polygon fill="#63b8ff" stroke="#63b8ff" points="263.75,-86.37 260.25,-76.37 256.75,-86.37 263.75,-86.37"/>
</a>
</g>
</g>
<!-- Node10&#45;&gt;Node2 -->
<g id="edge12_Node000010_Node000002" class="edge">
<title>Node10&#45;&gt;Node2</title>
<g id="a_edge12_Node000010_Node000002"><a xlink:title=" ">
<path fill="none" stroke="#63b8ff" d="M403.92,-165.51C396.52,-144.12 381.24,-88.98 406.25,-55.25 430.66,-22.34 478.71,-12.86 513.24,-10.54"/>
<polygon fill="#63b8ff" stroke="#63b8ff" points="513.05,-14.05 522.87,-10.07 512.71,-7.06 513.05,-14.05"/>
</a>
</g>
</g>
<!-- Node10&#45;&gt;Node6 -->
<g id="edge13_Node000010_Node000006" class="edge">
<title>Node10&#45;&gt;Node6</title>
<g id="a_edge13_Node000010_Node000006"><a xlink:title=" ">
<path fill="none" stroke="#63b8ff" d="M382.31,-165.34C358.56,-156.74 322.54,-143.69 295.79,-134"/>
<polygon fill="#63b8ff" stroke="#63b8ff" points="297.33,-130.83 286.73,-130.72 294.94,-137.41 297.33,-130.83"/>
</a>
</g>
</g>
<!-- Node11 -->
<g id="Node000011" class="node">
<title>Node11</title>
<g id="a_Node000011"><a xlink:href="_logger_manager_8h.html" target="_top" xlink:title="Comprehensive data and event logging system for temperature monitoring.">
<polygon fill="white" stroke="#666666" points="538.38,-129.75 448.12,-129.75 448.12,-110.5 538.38,-110.5 538.38,-129.75"/>
<text xml:space="preserve" text-anchor="middle" x="493.25" y="-116.25" font-family="Helvetica,sans-Serif" font-size="10.00">LoggerManager.h</text>
</a>
</g>
</g>
<!-- Node10&#45;&gt;Node11 -->
<g id="edge14_Node000010_Node000011" class="edge">
<title>Node10&#45;&gt;Node11</title>
<g id="a_edge14_Node000010_Node000011"><a xlink:title=" ">
<path fill="none" stroke="#63b8ff" d="M421.84,-165.34C434.69,-157.39 453.66,-145.64 468.82,-136.25"/>
<polygon fill="#63b8ff" stroke="#63b8ff" points="470.64,-139.24 477.3,-131 466.96,-133.29 470.64,-139.24"/>
</a>
</g>
</g>
<!-- Node11&#45;&gt;Node2 -->
<g id="edge15_Node000011_Node000002" class="edge">
<title>Node11&#45;&gt;Node2</title>
<g id="a_edge15_Node000011_Node000002"><a xlink:title=" ">
<path fill="none" stroke="#63b8ff" d="M487.39,-110.29C479.65,-97.41 468.11,-73.07 478.25,-55.25 486.13,-41.4 500.19,-31.39 514.03,-24.41"/>
<polygon fill="#63b8ff" stroke="#63b8ff" points="515.44,-27.62 523.09,-20.28 512.54,-21.25 515.44,-27.62"/>
</a>
</g>
</g>
<!-- Node11&#45;&gt;Node5 -->
<g id="edge26_Node000011_Node000005" class="edge">
<title>Node11&#45;&gt;Node5</title>
<g id="a_edge26_Node000011_Node000005"><a xlink:title=" ">
<path fill="none" stroke="#63b8ff" d="M514.79,-110.09C534.86,-101.68 565.05,-89.02 588,-79.4"/>
<polygon fill="#63b8ff" stroke="#63b8ff" points="589.34,-82.63 597.2,-75.54 586.63,-76.18 589.34,-82.63"/>
</a>
</g>
</g>
<!-- Node12 -->
<g id="Node000012" class="node">
<title>Node12</title>
<g id="a_Node000012"><a xlink:title=" ">
<polygon fill="#e0e0e0" stroke="#999999" points="523.75,-74.5 486.75,-74.5 486.75,-55.25 523.75,-55.25 523.75,-74.5"/>
<text xml:space="preserve" text-anchor="middle" x="505.25" y="-61" font-family="Helvetica,sans-Serif" font-size="10.00">FS.h</text>
</a>
</g>
</g>
<!-- Node11&#45;&gt;Node12 -->
<g id="edge16_Node000011_Node000012" class="edge">
<title>Node11&#45;&gt;Node12</title>
<g id="a_edge16_Node000011_Node000012"><a xlink:title=" ">
<path fill="none" stroke="#63b8ff" d="M495.23,-110.33C496.72,-103.74 498.81,-94.46 500.7,-86.07"/>
<polygon fill="#63b8ff" stroke="#63b8ff" points="504.11,-86.86 502.89,-76.34 497.28,-85.32 504.11,-86.86"/>
</a>
</g>
</g>
<!-- Node13 -->
<g id="Node000013" class="node">
<title>Node13</title>
<g id="a_Node000013"><a xlink:title=" ">
<polygon fill="#e0e0e0" stroke="#999999" points="580.5,-74.5 542,-74.5 542,-55.25 580.5,-55.25 580.5,-74.5"/>
<text xml:space="preserve" text-anchor="middle" x="561.25" y="-61" font-family="Helvetica,sans-Serif" font-size="10.00">SD.h</text>
</a>
</g>
</g>
<!-- Node11&#45;&gt;Node13 -->
<g id="edge17_Node000011_Node000013" class="edge">
<title>Node11&#45;&gt;Node13</title>
<g id="a_edge17_Node000011_Node000013"><a xlink:title=" ">
<path fill="none" stroke="#63b8ff" d="M504.79,-110.09C514.71,-102.32 529.26,-90.92 541.11,-81.65"/>
<polygon fill="#63b8ff" stroke="#63b8ff" points="542.98,-84.63 548.69,-75.71 538.66,-79.12 542.98,-84.63"/>
</a>
</g>
</g>
<!-- Node14 -->
<g id="Node000014" class="node">
<title>Node14</title>
<g id="a_Node000014"><a xlink:href="_time_manager_8h.html" target="_top" xlink:title=" ">
<polygon fill="white" stroke="#666666" points="994.62,-74.5 911.88,-74.5 911.88,-55.25 994.62,-55.25 994.62,-74.5"/>
<text xml:space="preserve" text-anchor="middle" x="953.25" y="-61" font-family="Helvetica,sans-Serif" font-size="10.00">TimeManager.h</text>
</a>
</g>
</g>
<!-- Node11&#45;&gt;Node14 -->
<g id="edge18_Node000011_Node000014" class="edge">
<title>Node11&#45;&gt;Node14</title>
<g id="a_edge18_Node000011_Node000014"><a xlink:title=" ">
<path fill="none" stroke="#63b8ff" d="M538.62,-113.87C624.17,-103.97 808.93,-82.58 900.12,-72.02"/>
<polygon fill="#63b8ff" stroke="#63b8ff" points="900.53,-75.5 910.06,-70.88 899.72,-68.55 900.53,-75.5"/>
</a>
</g>
</g>
<!-- Node14&#45;&gt;Node2 -->
<g id="edge19_Node000014_Node000002" class="edge">
<title>Node14&#45;&gt;Node2</title>
<g id="a_edge19_Node000014_Node000002"><a xlink:title=" ">
<path fill="none" stroke="#63b8ff" d="M911.53,-57.21C907.05,-56.53 902.56,-55.87 898.25,-55.25 788.22,-39.51 658.08,-23.34 593.62,-15.49"/>
<polygon fill="#63b8ff" stroke="#63b8ff" points="594.22,-12.04 583.87,-14.3 593.37,-18.98 594.22,-12.04"/>
</a>
</g>
</g>
<!-- Node15 -->
<g id="Node000015" class="node">
<title>Node15</title>
<g id="a_Node000015"><a xlink:title=" ">
<polygon fill="#e0e0e0" stroke="#999999" points="981.5,-19.25 937,-19.25 937,0 981.5,0 981.5,-19.25"/>
<text xml:space="preserve" text-anchor="middle" x="959.25" y="-5.75" font-family="Helvetica,sans-Serif" font-size="10.00">WiFi.h</text>
</a>
</g>
</g>
<!-- Node14&#45;&gt;Node15 -->
<g id="edge20_Node000014_Node000015" class="edge">
<title>Node14&#45;&gt;Node15</title>
<g id="a_edge20_Node000014_Node000015"><a xlink:title=" ">
<path fill="none" stroke="#63b8ff" d="M954.24,-55.08C954.98,-48.49 956.03,-39.21 956.97,-30.82"/>
<polygon fill="#63b8ff" stroke="#63b8ff" points="960.43,-31.44 958.07,-21.11 953.47,-30.66 960.43,-31.44"/>
</a>
</g>
</g>
<!-- Node16 -->
<g id="Node000016" class="node">
<title>Node16</title>
<g id="a_Node000016"><a xlink:title=" ">
<polygon fill="#e0e0e0" stroke="#999999" points="1044.5,-19.25 1000,-19.25 1000,0 1044.5,0 1044.5,-19.25"/>
<text xml:space="preserve" text-anchor="middle" x="1022.25" y="-5.75" font-family="Helvetica,sans-Serif" font-size="10.00">Wire.h</text>
</a>
</g>
</g>
<!-- Node14&#45;&gt;Node16 -->
<g id="edge21_Node000014_Node000016" class="edge">
<title>Node14&#45;&gt;Node16</title>
<g id="a_edge21_Node000014_Node000016"><a xlink:title=" ">
<path fill="none" stroke="#63b8ff" d="M964.95,-54.84C975.03,-47.07 989.79,-35.67 1001.81,-26.4"/>
<polygon fill="#63b8ff" stroke="#63b8ff" points="1003.74,-29.33 1009.52,-20.45 999.46,-23.79 1003.74,-29.33"/>
</a>
</g>
</g>
<!-- Node17 -->
<g id="Node000017" class="node">
<title>Node17</title>
<g id="a_Node000017"><a xlink:title=" ">
<polygon fill="#e0e0e0" stroke="#999999" points="749.75,-19.25 694.75,-19.25 694.75,0 749.75,0 749.75,-19.25"/>
<text xml:space="preserve" text-anchor="middle" x="722.25" y="-5.75" font-family="Helvetica,sans-Serif" font-size="10.00">RTClib.h</text>
</a>
</g>
</g>
<!-- Node14&#45;&gt;Node17 -->
<g id="edge22_Node000014_Node000017" class="edge">
<title>Node14&#45;&gt;Node17</title>
<g id="a_edge22_Node000014_Node000017"><a xlink:title=" ">
<path fill="none" stroke="#63b8ff" d="M913.49,-54.76C876.56,-46.3 819.76,-33.25 761.1,-19.67"/>
<polygon fill="#63b8ff" stroke="#63b8ff" points="762.13,-16.32 751.6,-17.47 760.56,-23.14 762.13,-16.32"/>
</a>
</g>
</g>
<!-- Node18 -->
<g id="Node000018" class="node">
<title>Node18</title>
<g id="a_Node000018"><a xlink:title=" ">
<polygon fill="#e0e0e0" stroke="#999999" points="838.25,-19.25 768.25,-19.25 768.25,0 838.25,0 838.25,-19.25"/>
<text xml:space="preserve" text-anchor="middle" x="803.25" y="-5.75" font-family="Helvetica,sans-Serif" font-size="10.00">NTPClient.h</text>
</a>
</g>
</g>
<!-- Node14&#45;&gt;Node18 -->
<g id="edge23_Node000014_Node000018" class="edge">
<title>Node14&#45;&gt;Node18</title>
<g id="a_edge23_Node000014_Node000018"><a xlink:title=" ">
<path fill="none" stroke="#63b8ff" d="M927.8,-54.84C903.56,-46.24 866.82,-33.19 839.51,-23.5"/>
<polygon fill="#63b8ff" stroke="#63b8ff" points="840.84,-20.26 830.25,-20.21 838.5,-26.85 840.84,-20.26"/>
</a>
</g>
</g>
<!-- Node19 -->
<g id="Node000019" class="node">
<title>Node19</title>
<g id="a_Node000019"><a xlink:title=" ">
<polygon fill="#e0e0e0" stroke="#999999" points="918.5,-19.25 856,-19.25 856,0 918.5,0 918.5,-19.25"/>
<text xml:space="preserve" text-anchor="middle" x="887.25" y="-5.75" font-family="Helvetica,sans-Serif" font-size="10.00">WiFiUdp.h</text>
</a>
</g>
</g>
<!-- Node14&#45;&gt;Node19 -->
<g id="edge24_Node000014_Node000019" class="edge">
<title>Node14&#45;&gt;Node19</title>
<g id="a_edge24_Node000014_Node000019"><a xlink:title=" ">
<path fill="none" stroke="#63b8ff" d="M942.05,-54.84C932.51,-47.15 918.58,-35.9 907.14,-26.68"/>
<polygon fill="#63b8ff" stroke="#63b8ff" points="909.44,-24.03 899.46,-20.48 905.04,-29.48 909.44,-24.03"/>
</a>
</g>
</g>
<!-- Node14&#45;&gt;Node20 -->
<g id="edge25_Node000014_Node000020" class="edge">
<title>Node14&#45;&gt;Node20</title>
<g id="a_edge25_Node000014_Node000020"><a xlink:title=" ">
<path fill="none" stroke="#63b8ff" d="M978.36,-54.84C1002.28,-46.24 1038.53,-33.19 1065.47,-23.5"/>
<polygon fill="#63b8ff" stroke="#63b8ff" points="1066.37,-26.89 1074.6,-20.21 1064,-20.31 1066.37,-26.89"/>
</a>
</g>
</g>
<!-- Node21&#45;&gt;Node10 -->
<g id="edge29_Node000021_Node000010" class="edge">
<title>Node21&#45;&gt;Node10</title>
<g id="a_edge29_Node000021_Node000010"><a xlink:title=" ">
<path fill="none" stroke="#63b8ff" d="M406.42,-220.83C406.54,-214.32 406.71,-205.17 406.87,-196.87"/>
<polygon fill="#63b8ff" stroke="#63b8ff" points="410.36,-196.94 407.05,-186.87 403.37,-196.8 410.36,-196.94"/>
</a>
</g>
</g>
<!-- Node22 -->
<g id="Node000022" class="node">
<title>Node22</title>
<g id="a_Node000022"><a xlink:title=" ">
<polygon fill="#e0e0e0" stroke="#999999" points="336.38,-185 288.12,-185 288.12,-165.75 336.38,-165.75 336.38,-185"/>
<text xml:space="preserve" text-anchor="middle" x="312.25" y="-171.5" font-family="Helvetica,sans-Serif" font-size="10.00">stdint.h</text>
</a>
</g>
</g>
<!-- Node21&#45;&gt;Node22 -->
<g id="edge28_Node000021_Node000022" class="edge">
<title>Node21&#45;&gt;Node22</title>
<g id="a_edge28_Node000021_Node000022"><a xlink:title=" ">
<path fill="none" stroke="#63b8ff" d="M390.3,-220.59C375.99,-212.48 354.72,-200.43 338,-190.96"/>
<polygon fill="#63b8ff" stroke="#63b8ff" points="340.02,-188.08 329.59,-186.2 336.57,-194.17 340.02,-188.08"/>
</a>
</g>
</g>
<!-- Node23&#45;&gt;Node2 -->
<g id="edge31_Node000023_Node000002" class="edge">
<title>Node23&#45;&gt;Node2</title>
<g id="a_edge31_Node000023_Node000002"><a xlink:title=" ">
<path fill="none" stroke="#63b8ff" d="M717.63,-165.28C697.36,-158.78 674.8,-147.87 661.25,-129.75 641.24,-103 671.16,-82.08 651.25,-55.25 637.34,-36.5 613.68,-25.43 593.09,-19"/>
<polygon fill="#63b8ff" stroke="#63b8ff" points="594.09,-15.64 583.51,-16.3 592.19,-22.38 594.09,-15.64"/>
</a>
</g>
</g>
<!-- Node23&#45;&gt;Node5 -->
<g id="edge37_Node000023_Node000005" class="edge">
<title>Node23&#45;&gt;Node5</title>
<g id="a_edge37_Node000023_Node000005"><a xlink:title=" ">
<path fill="none" stroke="#63b8ff" d="M811.5,-165.39C852.97,-155.8 901.5,-138.12 878.25,-110.5 849.85,-76.77 716.33,-68.53 653.32,-66.52"/>
<polygon fill="#63b8ff" stroke="#63b8ff" points="653.67,-63.03 643.58,-66.25 653.48,-70.03 653.67,-63.03"/>
</a>
</g>
</g>
<!-- Node23&#45;&gt;Node11 -->
<g id="edge38_Node000023_Node000011" class="edge">
<title>Node23&#45;&gt;Node11</title>
<g id="a_edge38_Node000023_Node000011"><a xlink:title=" ">
<path fill="none" stroke="#63b8ff" d="M715.48,-165.28C669.71,-156.19 599.22,-142.18 549.94,-132.39"/>
<polygon fill="#63b8ff" stroke="#63b8ff" points="550.8,-128.99 540.31,-130.48 549.44,-135.86 550.8,-128.99"/>
</a>
</g>
</g>
<!-- Node23&#45;&gt;Node16 -->
<g id="edge32_Node000023_Node000016" class="edge">
<title>Node23&#45;&gt;Node16</title>
<g id="a_edge32_Node000023_Node000016"><a xlink:title=" ">
<path fill="none" stroke="#63b8ff" d="M811.54,-174.2C856.34,-171.72 921.82,-162.15 968.25,-129.75 1001.37,-106.64 1014.53,-58.15 1019.48,-30.7"/>
<polygon fill="#63b8ff" stroke="#63b8ff" points="1022.93,-31.34 1021.03,-20.91 1016.01,-30.25 1022.93,-31.34"/>
</a>
</g>
</g>
<!-- Node24 -->
<g id="Node000024" class="node">
<title>Node24</title>
<g id="a_Node000024"><a xlink:title=" ">
<polygon fill="#e0e0e0" stroke="#999999" points="959.62,-129.75 924.88,-129.75 924.88,-110.5 959.62,-110.5 959.62,-129.75"/>
<text xml:space="preserve" text-anchor="middle" x="942.25" y="-116.25" font-family="Helvetica,sans-Serif" font-size="10.00">map</text>
</a>
</g>
</g>
<!-- Node23&#45;&gt;Node24 -->
<g id="edge33_Node000023_Node000024" class="edge">
<title>Node23&#45;&gt;Node24</title>
<g id="a_edge33_Node000023_Node000024"><a xlink:title=" ">
<path fill="none" stroke="#63b8ff" d="M791.95,-165.34C826.06,-155.31 880.67,-139.24 913.82,-129.49"/>
<polygon fill="#63b8ff" stroke="#63b8ff" points="914.53,-132.93 923.14,-126.75 912.56,-126.21 914.53,-132.93"/>
</a>
</g>
</g>
<!-- Node25 -->
<g id="Node000025" class="node">
<title>Node25</title>
<g id="a_Node000025"><a xlink:title=" ">
<polygon fill="#e0e0e0" stroke="#999999" points="710.25,-129.75 670.25,-129.75 670.25,-110.5 710.25,-110.5 710.25,-129.75"/>
<text xml:space="preserve" text-anchor="middle" x="690.25" y="-116.25" font-family="Helvetica,sans-Serif" font-size="10.00">string</text>
</a>
</g>
</g>
<!-- Node23&#45;&gt;Node25 -->
<g id="edge34_Node000023_Node000025" class="edge">
<title>Node23&#45;&gt;Node25</title>
<g id="a_edge34_Node000023_Node000025"><a xlink:title=" ">
<path fill="none" stroke="#63b8ff" d="M749.21,-165.34C738.84,-157.57 723.65,-146.17 711.28,-136.9"/>
<polygon fill="#63b8ff" stroke="#63b8ff" points="713.43,-134.13 703.33,-130.93 709.23,-139.73 713.43,-134.13"/>
</a>
</g>
</g>
<!-- Node26 -->
<g id="Node000026" class="node">
<title>Node26</title>
<g id="a_Node000026"><a xlink:title=" ">
<polygon fill="#e0e0e0" stroke="#999999" points="794,-129.75 728.5,-129.75 728.5,-110.5 794,-110.5 794,-129.75"/>
<text xml:space="preserve" text-anchor="middle" x="761.25" y="-116.25" font-family="Helvetica,sans-Serif" font-size="10.00">PCF8575.h</text>
</a>
</g>
</g>
<!-- Node23&#45;&gt;Node26 -->
<g id="edge35_Node000023_Node000026" class="edge">
<title>Node23&#45;&gt;Node26</title>
<g id="a_edge35_Node000023_Node000026"><a xlink:title=" ">
<path fill="none" stroke="#63b8ff" d="M761.25,-165.58C761.25,-159.07 761.25,-149.92 761.25,-141.62"/>
<polygon fill="#63b8ff" stroke="#63b8ff" points="764.75,-141.62 761.25,-131.62 757.75,-141.62 764.75,-141.62"/>
</a>
</g>
</g>
<!-- Node27 -->
<g id="Node000027" class="node">
<title>Node27</title>
<g id="a_Node000027"><a xlink:title=" ">
<polygon fill="#e0e0e0" stroke="#999999" points="868.88,-129.75 811.62,-129.75 811.62,-110.5 868.88,-110.5 868.88,-129.75"/>
<text xml:space="preserve" text-anchor="middle" x="840.25" y="-116.25" font-family="Helvetica,sans-Serif" font-size="10.00">U8g2lib.h</text>
</a>
</g>
</g>
<!-- Node23&#45;&gt;Node27 -->
<g id="edge36_Node000023_Node000027" class="edge">
<title>Node23&#45;&gt;Node27</title>
<g id="a_edge36_Node000023_Node000027"><a xlink:title=" ">
<path fill="none" stroke="#63b8ff" d="M774.65,-165.34C786.34,-157.46 803.55,-145.86 817.41,-136.52"/>
<polygon fill="#63b8ff" stroke="#63b8ff" points="819.19,-139.54 825.53,-131.05 815.28,-133.74 819.19,-139.54"/>
</a>
</g>
</g>
<!-- Node28&#45;&gt;Node2 -->
<g id="edge40_Node000028_Node000002" class="edge">
<title>Node28&#45;&gt;Node2</title>
<g id="a_edge40_Node000028_Node000002"><a xlink:title=" ">
<path fill="none" stroke="#63b8ff" d="M519.04,-220.66C497.6,-197.19 441.36,-135.34 439.25,-129.75 436.23,-121.75 437.09,-118.78 439.25,-110.5 446.37,-83.26 450.16,-74.98 470.25,-55.25 483.85,-41.9 502.25,-31.46 518.28,-24.04"/>
<polygon fill="#63b8ff" stroke="#63b8ff" points="519.25,-27.44 527.01,-20.21 516.44,-21.03 519.25,-27.44"/>
</a>
</g>
</g>
<!-- Node28&#45;&gt;Node5 -->
<g id="edge41_Node000028_Node000005" class="edge">
<title>Node28&#45;&gt;Node5</title>
<g id="a_edge41_Node000028_Node000005"><a xlink:title=" ">
<path fill="none" stroke="#63b8ff" d="M531.53,-220.78C541.29,-200.78 566.23,-150.65 590.25,-110.5 595.52,-101.7 601.79,-92.23 607.23,-84.29"/>
<polygon fill="#63b8ff" stroke="#63b8ff" points="610.05,-86.37 612.89,-76.16 604.3,-82.37 610.05,-86.37"/>
</a>
</g>
</g>
<!-- Node28&#45;&gt;Node10 -->
<g id="edge42_Node000028_Node000010" class="edge">
<title>Node28&#45;&gt;Node10</title>
<g id="a_edge42_Node000028_Node000010"><a xlink:title=" ">
<path fill="none" stroke="#63b8ff" d="M506.89,-220.59C488.02,-212.22 459.66,-199.63 438.02,-190.03"/>
<polygon fill="#63b8ff" stroke="#63b8ff" points="439.65,-186.92 429.09,-186.07 436.81,-193.32 439.65,-186.92"/>
</a>
</g>
</g>
<!-- Node28&#45;&gt;Node11 -->
<g id="edge43_Node000028_Node000011" class="edge">
<title>Node28&#45;&gt;Node11</title>
<g id="a_edge43_Node000028_Node000011"><a xlink:title=" ">
<path fill="none" stroke="#63b8ff" d="M524.47,-220.75C519.04,-203.42 506.91,-164.73 499.47,-140.99"/>
<polygon fill="#63b8ff" stroke="#63b8ff" points="502.85,-140.07 496.52,-131.57 496.17,-142.16 502.85,-140.07"/>
</a>
</g>
</g>
</g>
</svg>
