<?xml version="1.0" encoding="UTF-8" standalone="no"?>
<!DOCTYPE svg PUBLIC "-//W3C//DTD SVG 1.1//EN"
 "http://www.w3.org/Graphics/SVG/1.1/DTD/svg11.dtd">
<!-- Generated by graphviz version 13.1.0 (20250701.0955)
 -->
<!-- Title: include/CSVConfigManager.h Pages: 1 -->
<svg width="1166pt" height="359pt"
 viewBox="0.00 0.00 1166.00 359.00" xmlns="http://www.w3.org/2000/svg" xmlns:xlink="http://www.w3.org/1999/xlink">
<g id="graph0" class="graph" transform="scale(1 1) rotate(0) translate(4 354.75)">
<title>include/CSVConfigManager.h</title>
<!-- Node1 -->
<g id="Node000001" class="node">
<title>Node1</title>
<g id="a_Node000001"><a xlink:title=" ">
<polygon fill="#999999" stroke="#666666" points="938.38,-350.75 794.12,-350.75 794.12,-331.5 938.38,-331.5 938.38,-350.75"/>
<text xml:space="preserve" text-anchor="middle" x="866.25" y="-337.25" font-family="Helvetica,sans-Serif" font-size="10.00">include/CSVConfigManager.h</text>
</a>
</g>
</g>
<!-- Node2 -->
<g id="Node000002" class="node">
<title>Node2</title>
<g id="a_Node000002"><a xlink:title=" ">
<polygon fill="#e0e0e0" stroke="#999999" points="590.88,-19.25 533.62,-19.25 533.62,0 590.88,0 590.88,-19.25"/>
<text xml:space="preserve" text-anchor="middle" x="562.25" y="-5.75" font-family="Helvetica,sans-Serif" font-size="10.00">Arduino.h</text>
</a>
</g>
</g>
<!-- Node1&#45;&gt;Node2 -->
<g id="edge1_Node000001_Node000002" class="edge">
<title>Node1&#45;&gt;Node2</title>
<g id="a_edge1_Node000001_Node000002"><a xlink:title=" ">
<path fill="none" stroke="#63b8ff" d="M879.52,-331.18C925.42,-299.21 1071.11,-188.34 1006.25,-110.5 993.27,-94.92 851.97,-59.99 832.25,-55.25 751.72,-35.92 655.67,-22.22 602.58,-15.45"/>
<polygon fill="#63b8ff" stroke="#63b8ff" points="603.15,-12 592.8,-14.22 602.28,-18.94 603.15,-12"/>
</a>
</g>
</g>
<!-- Node3 -->
<g id="Node000003" class="node">
<title>Node3</title>
<g id="a_Node000003"><a xlink:title=" ">
<polygon fill="#e0e0e0" stroke="#999999" points="905.38,-295.5 827.12,-295.5 827.12,-276.25 905.38,-276.25 905.38,-295.5"/>
<text xml:space="preserve" text-anchor="middle" x="866.25" y="-282" font-family="Helvetica,sans-Serif" font-size="10.00">CSV_Parser.h</text>
</a>
</g>
</g>
<!-- Node1&#45;&gt;Node3 -->
<g id="edge2_Node000001_Node000003" class="edge">
<title>Node1&#45;&gt;Node3</title>
<g id="a_edge2_Node000001_Node000003"><a xlink:title=" ">
<path fill="none" stroke="#63b8ff" d="M866.25,-331.33C866.25,-324.82 866.25,-315.67 866.25,-307.37"/>
<polygon fill="#63b8ff" stroke="#63b8ff" points="869.75,-307.37 866.25,-297.37 862.75,-307.37 869.75,-307.37"/>
</a>
</g>
</g>
<!-- Node4 -->
<g id="Node000004" class="node">
<title>Node4</title>
<g id="a_Node000004"><a xlink:href="_temperature_controller_8h.html" target="_top" xlink:title=" ">
<polygon fill="white" stroke="#666666" points="624,-295.5 504.5,-295.5 504.5,-276.25 624,-276.25 624,-295.5"/>
<text xml:space="preserve" text-anchor="middle" x="564.25" y="-282" font-family="Helvetica,sans-Serif" font-size="10.00">TemperatureController.h</text>
</a>
</g>
</g>
<!-- Node1&#45;&gt;Node4 -->
<g id="edge3_Node000001_Node000004" class="edge">
<title>Node1&#45;&gt;Node4</title>
<g id="a_edge3_Node000001_Node000004"><a xlink:title=" ">
<path fill="none" stroke="#63b8ff" d="M814.68,-331.03C762.75,-321.87 682.57,-307.74 626.98,-297.94"/>
<polygon fill="#63b8ff" stroke="#63b8ff" points="627.81,-294.53 617.35,-296.24 626.59,-301.42 627.81,-294.53"/>
</a>
</g>
</g>
<!-- Node4&#45;&gt;Node2 -->
<g id="edge4_Node000004_Node000002" class="edge">
<title>Node4&#45;&gt;Node2</title>
<g id="a_edge4_Node000004_Node000002"><a xlink:title=" ">
<path fill="none" stroke="#63b8ff" d="M624.38,-281.74C763.06,-272.3 1086.02,-236.51 986.25,-110.5 974.13,-95.19 705.58,-39.57 602.26,-18.65"/>
<polygon fill="#63b8ff" stroke="#63b8ff" points="603.05,-15.24 592.56,-16.69 601.66,-22.11 603.05,-15.24"/>
</a>
</g>
</g>
<!-- Node5 -->
<g id="Node000005" class="node">
<title>Node5</title>
<g id="a_Node000005"><a xlink:title=" ">
<polygon fill="#e0e0e0" stroke="#999999" points="641.75,-74.5 598.75,-74.5 598.75,-55.25 641.75,-55.25 641.75,-74.5"/>
<text xml:space="preserve" text-anchor="middle" x="620.25" y="-61" font-family="Helvetica,sans-Serif" font-size="10.00">vector</text>
</a>
</g>
</g>
<!-- Node4&#45;&gt;Node5 -->
<g id="edge5_Node000004_Node000005" class="edge">
<title>Node4&#45;&gt;Node5</title>
<g id="a_edge5_Node000004_Node000005"><a xlink:title=" ">
<path fill="none" stroke="#63b8ff" d="M566.51,-276.02C574.78,-243.69 603.46,-131.53 615.19,-85.66"/>
<polygon fill="#63b8ff" stroke="#63b8ff" points="618.56,-86.62 617.64,-76.07 611.78,-84.89 618.56,-86.62"/>
</a>
</g>
</g>
<!-- Node6 -->
<g id="Node000006" class="node">
<title>Node6</title>
<g id="a_Node000006"><a xlink:href="_sensor_8h.html" target="_top" xlink:title=" ">
<polygon fill="white" stroke="#666666" points="285.38,-129.75 231.12,-129.75 231.12,-110.5 285.38,-110.5 285.38,-129.75"/>
<text xml:space="preserve" text-anchor="middle" x="258.25" y="-116.25" font-family="Helvetica,sans-Serif" font-size="10.00">Sensor.h</text>
</a>
</g>
</g>
<!-- Node4&#45;&gt;Node6 -->
<g id="edge6_Node000004_Node000006" class="edge">
<title>Node4&#45;&gt;Node6</title>
<g id="a_edge6_Node000004_Node000006"><a xlink:title=" ">
<path fill="none" stroke="#63b8ff" d="M504.34,-279.52C458.93,-273.86 395.76,-262.53 344.25,-240.25 305.26,-223.39 288.08,-221.45 266.25,-185 258.42,-171.92 256.66,-154.64 256.73,-141.36"/>
<polygon fill="#63b8ff" stroke="#63b8ff" points="260.21,-141.76 257.15,-131.62 253.22,-141.46 260.21,-141.76"/>
</a>
</g>
</g>
<!-- Node7 -->
<g id="Node000007" class="node">
<title>Node7</title>
<g id="a_Node000007"><a xlink:title=" ">
<polygon fill="#e0e0e0" stroke="#999999" points="62.5,-74.5 0,-74.5 0,-55.25 62.5,-55.25 62.5,-74.5"/>
<text xml:space="preserve" text-anchor="middle" x="31.25" y="-61" font-family="Helvetica,sans-Serif" font-size="10.00">OneWire.h</text>
</a>
</g>
</g>
<!-- Node4&#45;&gt;Node7 -->
<g id="edge45_Node000004_Node000007" class="edge">
<title>Node4&#45;&gt;Node7</title>
<g id="a_edge45_Node000004_Node000007"><a xlink:title=" ">
<path fill="none" stroke="#63b8ff" d="M504.24,-284.59C441.77,-282.35 342.21,-273.25 263.25,-240.25 171.11,-201.74 82.57,-118.34 47.3,-82.64"/>
<polygon fill="#63b8ff" stroke="#63b8ff" points="50.05,-80.45 40.56,-75.73 45.04,-85.33 50.05,-80.45"/>
</a>
</g>
</g>
<!-- Node8 -->
<g id="Node000008" class="node">
<title>Node8</title>
<g id="a_Node000008"><a xlink:title=" ">
<polygon fill="#e0e0e0" stroke="#999999" points="186.25,-74.5 80.25,-74.5 80.25,-55.25 186.25,-55.25 186.25,-74.5"/>
<text xml:space="preserve" text-anchor="middle" x="133.25" y="-61" font-family="Helvetica,sans-Serif" font-size="10.00">DallasTemperature.h</text>
</a>
</g>
</g>
<!-- Node4&#45;&gt;Node8 -->
<g id="edge46_Node000004_Node000008" class="edge">
<title>Node4&#45;&gt;Node8</title>
<g id="a_edge46_Node000004_Node000008"><a xlink:title=" ">
<path fill="none" stroke="#63b8ff" d="M504.23,-279.34C436.79,-272.34 332.17,-258.91 297.25,-240.25 225.53,-201.92 167.63,-120.3 144.33,-83.97"/>
<polygon fill="#63b8ff" stroke="#63b8ff" points="147.54,-82.51 139.26,-75.9 141.62,-86.23 147.54,-82.51"/>
</a>
</g>
</g>
<!-- Node10 -->
<g id="Node000010" class="node">
<title>Node10</title>
<g id="a_Node000010"><a xlink:href="_measurement_point_8h.html" target="_top" xlink:title=" ">
<polygon fill="white" stroke="#666666" points="447.25,-185 341.25,-185 341.25,-165.75 447.25,-165.75 447.25,-185"/>
<text xml:space="preserve" text-anchor="middle" x="394.25" y="-171.5" font-family="Helvetica,sans-Serif" font-size="10.00">MeasurementPoint.h</text>
</a>
</g>
</g>
<!-- Node4&#45;&gt;Node10 -->
<g id="edge11_Node000004_Node000010" class="edge">
<title>Node4&#45;&gt;Node10</title>
<g id="a_edge11_Node000004_Node000010"><a xlink:title=" ">
<path fill="none" stroke="#63b8ff" d="M545.45,-275.9C528.12,-267.4 501.89,-253.92 480.25,-240.25 456.72,-225.38 431.32,-206.07 414.27,-192.59"/>
<polygon fill="#63b8ff" stroke="#63b8ff" points="416.45,-189.86 406.46,-186.35 412.08,-195.33 416.45,-189.86"/>
</a>
</g>
</g>
<!-- Node20 -->
<g id="Node000020" class="node">
<title>Node20</title>
<g id="a_Node000020"><a xlink:title=" ">
<polygon fill="#e0e0e0" stroke="#999999" points="1158.38,-19.25 1080.12,-19.25 1080.12,0 1158.38,0 1158.38,-19.25"/>
<text xml:space="preserve" text-anchor="middle" x="1119.25" y="-5.75" font-family="Helvetica,sans-Serif" font-size="10.00">ArduinoJson.h</text>
</a>
</g>
</g>
<!-- Node4&#45;&gt;Node20 -->
<g id="edge47_Node000004_Node000020" class="edge">
<title>Node4&#45;&gt;Node20</title>
<g id="a_edge47_Node000004_Node000020"><a xlink:title=" ">
<path fill="none" stroke="#63b8ff" d="M624.42,-281.11C714.1,-274.92 878.19,-261.12 933.25,-240.25 1031.43,-203.03 1091.5,-78.57 1111.65,-30.14"/>
<polygon fill="#63b8ff" stroke="#63b8ff" points="1114.86,-31.55 1115.35,-20.97 1108.36,-28.93 1114.86,-31.55"/>
</a>
</g>
</g>
<!-- Node21 -->
<g id="Node000021" class="node">
<title>Node21</title>
<g id="a_Node000021"><a xlink:href="_register_map_8h.html" target="_top" xlink:title=" ">
<polygon fill="white" stroke="#666666" points="433.12,-240.25 353.38,-240.25 353.38,-221 433.12,-221 433.12,-240.25"/>
<text xml:space="preserve" text-anchor="middle" x="393.25" y="-226.75" font-family="Helvetica,sans-Serif" font-size="10.00">RegisterMap.h</text>
</a>
</g>
</g>
<!-- Node4&#45;&gt;Node21 -->
<g id="edge28_Node000004_Node000021" class="edge">
<title>Node4&#45;&gt;Node21</title>
<g id="a_edge28_Node000004_Node000021"><a xlink:title=" ">
<path fill="none" stroke="#63b8ff" d="M535.24,-275.84C507.24,-267.12 464.59,-253.84 433.35,-244.11"/>
<polygon fill="#63b8ff" stroke="#63b8ff" points="434.43,-240.78 423.85,-241.15 432.35,-247.47 434.43,-240.78"/>
</a>
</g>
</g>
<!-- Node23 -->
<g id="Node000023" class="node">
<title>Node23</title>
<g id="a_Node000023"><a xlink:href="_indicator_interface_8h.html" target="_top" xlink:title=" ">
<polygon fill="white" stroke="#666666" points="829.25,-185 729.25,-185 729.25,-165.75 829.25,-165.75 829.25,-185"/>
<text xml:space="preserve" text-anchor="middle" x="779.25" y="-171.5" font-family="Helvetica,sans-Serif" font-size="10.00">IndicatorInterface.h</text>
</a>
</g>
</g>
<!-- Node4&#45;&gt;Node23 -->
<g id="edge31_Node000004_Node000023" class="edge">
<title>Node4&#45;&gt;Node23</title>
<g id="a_edge31_Node000004_Node000023"><a xlink:title=" ">
<path fill="none" stroke="#63b8ff" d="M579.64,-275.76C601.49,-262.95 642.88,-239.17 679.25,-221 701.63,-209.82 727.44,-198.33 747.22,-189.82"/>
<polygon fill="#63b8ff" stroke="#63b8ff" points="748.33,-193.16 756.15,-186.01 745.58,-186.72 748.33,-193.16"/>
</a>
</g>
</g>
<!-- Node28 -->
<g id="Node000028" class="node">
<title>Node28</title>
<g id="a_Node000028"><a xlink:href="_alarm_8h.html" target="_top" xlink:title=" ">
<polygon fill="white" stroke="#666666" points="539.12,-240.25 489.38,-240.25 489.38,-221 539.12,-221 539.12,-240.25"/>
<text xml:space="preserve" text-anchor="middle" x="514.25" y="-226.75" font-family="Helvetica,sans-Serif" font-size="10.00">Alarm.h</text>
</a>
</g>
</g>
<!-- Node4&#45;&gt;Node28 -->
<g id="edge40_Node000004_Node000028" class="edge">
<title>Node4&#45;&gt;Node28</title>
<g id="a_edge40_Node000004_Node000028"><a xlink:title=" ">
<path fill="none" stroke="#63b8ff" d="M555.99,-276.08C549.09,-268.73 539.03,-258.01 530.51,-248.94"/>
<polygon fill="#63b8ff" stroke="#63b8ff" points="533.12,-246.61 523.72,-241.71 528.02,-251.4 533.12,-246.61"/>
</a>
</g>
</g>
<!-- Node29 -->
<g id="Node000029" class="node">
<title>Node29</title>
<g id="a_Node000029"><a xlink:title=" ">
<polygon fill="#e0e0e0" stroke="#999999" points="744.12,-240.25 688.38,-240.25 688.38,-221 744.12,-221 744.12,-240.25"/>
<text xml:space="preserve" text-anchor="middle" x="716.25" y="-226.75" font-family="Helvetica,sans-Serif" font-size="10.00">algorithm</text>
</a>
</g>
</g>
<!-- Node4&#45;&gt;Node29 -->
<g id="edge48_Node000004_Node000029" class="edge">
<title>Node4&#45;&gt;Node29</title>
<g id="a_edge48_Node000004_Node000029"><a xlink:title=" ">
<path fill="none" stroke="#63b8ff" d="M590.03,-275.84C614.6,-267.24 651.84,-254.19 679.51,-244.5"/>
<polygon fill="#63b8ff" stroke="#63b8ff" points="680.63,-247.81 688.91,-241.2 678.32,-241.21 680.63,-247.81"/>
</a>
</g>
</g>
<!-- Node6&#45;&gt;Node2 -->
<g id="edge7_Node000006_Node000002" class="edge">
<title>Node6&#45;&gt;Node2</title>
<g id="a_edge7_Node000006_Node000002"><a xlink:title=" ">
<path fill="none" stroke="#63b8ff" d="M270.81,-110.13C290.6,-96.36 330.66,-70.09 368.25,-55.25 419.45,-35.03 482.04,-22.7 522.02,-16.26"/>
<polygon fill="#63b8ff" stroke="#63b8ff" points="522.33,-19.76 531.67,-14.76 521.25,-12.84 522.33,-19.76"/>
</a>
</g>
</g>
<!-- Node6&#45;&gt;Node7 -->
<g id="edge8_Node000006_Node000007" class="edge">
<title>Node6&#45;&gt;Node7</title>
<g id="a_edge8_Node000006_Node000007"><a xlink:title=" ">
<path fill="none" stroke="#63b8ff" d="M230.87,-112.7C191.84,-103.55 119.86,-86.66 73.84,-75.87"/>
<polygon fill="#63b8ff" stroke="#63b8ff" points="74.74,-72.48 64.21,-73.61 73.14,-79.3 74.74,-72.48"/>
</a>
</g>
</g>
<!-- Node6&#45;&gt;Node8 -->
<g id="edge9_Node000006_Node000008" class="edge">
<title>Node6&#45;&gt;Node8</title>
<g id="a_edge9_Node000006_Node000008"><a xlink:title=" ">
<path fill="none" stroke="#63b8ff" d="M237.05,-110.09C217.29,-101.68 187.58,-89.02 165,-79.4"/>
<polygon fill="#63b8ff" stroke="#63b8ff" points="166.52,-76.24 155.95,-75.55 163.78,-82.68 166.52,-76.24"/>
</a>
</g>
</g>
<!-- Node9 -->
<g id="Node000009" class="node">
<title>Node9</title>
<g id="a_Node000009"><a xlink:title=" ">
<polygon fill="#e0e0e0" stroke="#999999" points="315.88,-74.5 204.62,-74.5 204.62,-55.25 315.88,-55.25 315.88,-74.5"/>
<text xml:space="preserve" text-anchor="middle" x="260.25" y="-61" font-family="Helvetica,sans-Serif" font-size="10.00">Adafruit_MAX31865.h</text>
</a>
</g>
</g>
<!-- Node6&#45;&gt;Node9 -->
<g id="edge10_Node000006_Node000009" class="edge">
<title>Node6&#45;&gt;Node9</title>
<g id="a_edge10_Node000006_Node000009"><a xlink:title=" ">
<path fill="none" stroke="#63b8ff" d="M258.58,-110.33C258.83,-103.74 259.18,-94.46 259.49,-86.07"/>
<polygon fill="#63b8ff" stroke="#63b8ff" points="262.98,-86.5 259.86,-76.37 255.98,-86.23 262.98,-86.5"/>
</a>
</g>
</g>
<!-- Node10&#45;&gt;Node2 -->
<g id="edge12_Node000010_Node000002" class="edge">
<title>Node10&#45;&gt;Node2</title>
<g id="a_edge12_Node000010_Node000002"><a xlink:title=" ">
<path fill="none" stroke="#63b8ff" d="M392.1,-165.33C387.5,-143.56 379.19,-87.62 406.25,-55.25 434.37,-21.61 485.97,-12.38 522.1,-10.31"/>
<polygon fill="#63b8ff" stroke="#63b8ff" points="521.87,-13.82 531.72,-9.93 521.59,-6.83 521.87,-13.82"/>
</a>
</g>
</g>
<!-- Node10&#45;&gt;Node6 -->
<g id="edge13_Node000010_Node000006" class="edge">
<title>Node10&#45;&gt;Node6</title>
<g id="a_edge13_Node000010_Node000006"><a xlink:title=" ">
<path fill="none" stroke="#63b8ff" d="M371.18,-165.34C349.49,-156.85 316.77,-144.04 292.12,-134.39"/>
<polygon fill="#63b8ff" stroke="#63b8ff" points="293.43,-131.14 282.84,-130.75 290.88,-137.66 293.43,-131.14"/>
</a>
</g>
</g>
<!-- Node11 -->
<g id="Node000011" class="node">
<title>Node11</title>
<g id="a_Node000011"><a xlink:href="_logger_manager_8h.html" target="_top" xlink:title=" ">
<polygon fill="white" stroke="#666666" points="538.38,-129.75 448.12,-129.75 448.12,-110.5 538.38,-110.5 538.38,-129.75"/>
<text xml:space="preserve" text-anchor="middle" x="493.25" y="-116.25" font-family="Helvetica,sans-Serif" font-size="10.00">LoggerManager.h</text>
</a>
</g>
</g>
<!-- Node10&#45;&gt;Node11 -->
<g id="edge14_Node000010_Node000011" class="edge">
<title>Node10&#45;&gt;Node11</title>
<g id="a_edge14_Node000010_Node000011"><a xlink:title=" ">
<path fill="none" stroke="#63b8ff" d="M411.04,-165.34C426.26,-157.16 448.95,-144.96 466.63,-135.44"/>
<polygon fill="#63b8ff" stroke="#63b8ff" points="467.89,-138.74 475.04,-130.92 464.58,-132.57 467.89,-138.74"/>
</a>
</g>
</g>
<!-- Node11&#45;&gt;Node2 -->
<g id="edge15_Node000011_Node000002" class="edge">
<title>Node11&#45;&gt;Node2</title>
<g id="a_edge15_Node000011_Node000002"><a xlink:title=" ">
<path fill="none" stroke="#63b8ff" d="M487.28,-110.23C479.39,-97.26 467.69,-72.82 478.25,-55.25 488.02,-39 505.93,-28.34 522.71,-21.54"/>
<polygon fill="#63b8ff" stroke="#63b8ff" points="523.86,-24.84 532.05,-18.12 521.46,-18.27 523.86,-24.84"/>
</a>
</g>
</g>
<!-- Node11&#45;&gt;Node5 -->
<g id="edge26_Node000011_Node000005" class="edge">
<title>Node11&#45;&gt;Node5</title>
<g id="a_edge26_Node000011_Node000005"><a xlink:title=" ">
<path fill="none" stroke="#63b8ff" d="M514.79,-110.09C534.86,-101.68 565.05,-89.02 588,-79.4"/>
<polygon fill="#63b8ff" stroke="#63b8ff" points="589.34,-82.63 597.2,-75.54 586.63,-76.18 589.34,-82.63"/>
</a>
</g>
</g>
<!-- Node11&#45;&gt;Node11 -->
<g id="edge27_Node000011_Node000011" class="edge">
<title>Node11&#45;&gt;Node11</title>
<g id="a_edge27_Node000011_Node000011"><a xlink:title=" ">
<path fill="none" stroke="#63b8ff" d="M526.38,-130.23C542.31,-131.48 556.38,-128.11 556.38,-120.12 556.38,-114.14 548.46,-110.74 537.79,-109.95"/>
<polygon fill="#63b8ff" stroke="#63b8ff" points="537.87,-106.45 527.89,-110.01 537.91,-113.45 537.87,-106.45"/>
</a>
</g>
</g>
<!-- Node12 -->
<g id="Node000012" class="node">
<title>Node12</title>
<g id="a_Node000012"><a xlink:title=" ">
<polygon fill="#e0e0e0" stroke="#999999" points="523.75,-74.5 486.75,-74.5 486.75,-55.25 523.75,-55.25 523.75,-74.5"/>
<text xml:space="preserve" text-anchor="middle" x="505.25" y="-61" font-family="Helvetica,sans-Serif" font-size="10.00">FS.h</text>
</a>
</g>
</g>
<!-- Node11&#45;&gt;Node12 -->
<g id="edge16_Node000011_Node000012" class="edge">
<title>Node11&#45;&gt;Node12</title>
<g id="a_edge16_Node000011_Node000012"><a xlink:title=" ">
<path fill="none" stroke="#63b8ff" d="M495.23,-110.33C496.72,-103.74 498.81,-94.46 500.7,-86.07"/>
<polygon fill="#63b8ff" stroke="#63b8ff" points="504.11,-86.86 502.89,-76.34 497.28,-85.32 504.11,-86.86"/>
</a>
</g>
</g>
<!-- Node13 -->
<g id="Node000013" class="node">
<title>Node13</title>
<g id="a_Node000013"><a xlink:title=" ">
<polygon fill="#e0e0e0" stroke="#999999" points="580.5,-74.5 542,-74.5 542,-55.25 580.5,-55.25 580.5,-74.5"/>
<text xml:space="preserve" text-anchor="middle" x="561.25" y="-61" font-family="Helvetica,sans-Serif" font-size="10.00">SD.h</text>
</a>
</g>
</g>
<!-- Node11&#45;&gt;Node13 -->
<g id="edge17_Node000011_Node000013" class="edge">
<title>Node11&#45;&gt;Node13</title>
<g id="a_edge17_Node000011_Node000013"><a xlink:title=" ">
<path fill="none" stroke="#63b8ff" d="M504.79,-110.09C514.71,-102.32 529.26,-90.92 541.11,-81.65"/>
<polygon fill="#63b8ff" stroke="#63b8ff" points="542.98,-84.63 548.69,-75.71 538.66,-79.12 542.98,-84.63"/>
</a>
</g>
</g>
<!-- Node14 -->
<g id="Node000014" class="node">
<title>Node14</title>
<g id="a_Node000014"><a xlink:href="_time_manager_8h.html" target="_top" xlink:title=" ">
<polygon fill="white" stroke="#666666" points="1012.62,-74.5 929.88,-74.5 929.88,-55.25 1012.62,-55.25 1012.62,-74.5"/>
<text xml:space="preserve" text-anchor="middle" x="971.25" y="-61" font-family="Helvetica,sans-Serif" font-size="10.00">TimeManager.h</text>
</a>
</g>
</g>
<!-- Node11&#45;&gt;Node14 -->
<g id="edge18_Node000011_Node000014" class="edge">
<title>Node11&#45;&gt;Node14</title>
<g id="a_edge18_Node000011_Node000014"><a xlink:title=" ">
<path fill="none" stroke="#63b8ff" d="M538.65,-114.07C627.46,-104.17 823.74,-82.31 918.3,-71.77"/>
<polygon fill="#63b8ff" stroke="#63b8ff" points="918.53,-75.27 928.08,-70.68 917.75,-68.31 918.53,-75.27"/>
</a>
</g>
</g>
<!-- Node14&#45;&gt;Node2 -->
<g id="edge19_Node000014_Node000002" class="edge">
<title>Node14&#45;&gt;Node2</title>
<g id="a_edge19_Node000014_Node000002"><a xlink:title=" ">
<path fill="none" stroke="#63b8ff" d="M929.53,-57.2C925.05,-56.52 920.56,-55.86 916.25,-55.25 802.55,-39.17 667.9,-22.98 602.26,-15.27"/>
<polygon fill="#63b8ff" stroke="#63b8ff" points="603.04,-11.84 592.7,-14.15 602.23,-18.79 603.04,-11.84"/>
</a>
</g>
</g>
<!-- Node15 -->
<g id="Node000015" class="node">
<title>Node15</title>
<g id="a_Node000015"><a xlink:title=" ">
<polygon fill="#e0e0e0" stroke="#999999" points="999.5,-19.25 955,-19.25 955,0 999.5,0 999.5,-19.25"/>
<text xml:space="preserve" text-anchor="middle" x="977.25" y="-5.75" font-family="Helvetica,sans-Serif" font-size="10.00">WiFi.h</text>
</a>
</g>
</g>
<!-- Node14&#45;&gt;Node15 -->
<g id="edge20_Node000014_Node000015" class="edge">
<title>Node14&#45;&gt;Node15</title>
<g id="a_edge20_Node000014_Node000015"><a xlink:title=" ">
<path fill="none" stroke="#63b8ff" d="M972.24,-55.08C972.98,-48.49 974.03,-39.21 974.97,-30.82"/>
<polygon fill="#63b8ff" stroke="#63b8ff" points="978.43,-31.44 976.07,-21.11 971.47,-30.66 978.43,-31.44"/>
</a>
</g>
</g>
<!-- Node16 -->
<g id="Node000016" class="node">
<title>Node16</title>
<g id="a_Node000016"><a xlink:title=" ">
<polygon fill="#e0e0e0" stroke="#999999" points="1062.5,-19.25 1018,-19.25 1018,0 1062.5,0 1062.5,-19.25"/>
<text xml:space="preserve" text-anchor="middle" x="1040.25" y="-5.75" font-family="Helvetica,sans-Serif" font-size="10.00">Wire.h</text>
</a>
</g>
</g>
<!-- Node14&#45;&gt;Node16 -->
<g id="edge21_Node000014_Node000016" class="edge">
<title>Node14&#45;&gt;Node16</title>
<g id="a_edge21_Node000014_Node000016"><a xlink:title=" ">
<path fill="none" stroke="#63b8ff" d="M982.95,-54.84C993.03,-47.07 1007.79,-35.67 1019.81,-26.4"/>
<polygon fill="#63b8ff" stroke="#63b8ff" points="1021.74,-29.33 1027.52,-20.45 1017.46,-23.79 1021.74,-29.33"/>
</a>
</g>
</g>
<!-- Node17 -->
<g id="Node000017" class="node">
<title>Node17</title>
<g id="a_Node000017"><a xlink:title=" ">
<polygon fill="#e0e0e0" stroke="#999999" points="767.75,-19.25 712.75,-19.25 712.75,0 767.75,0 767.75,-19.25"/>
<text xml:space="preserve" text-anchor="middle" x="740.25" y="-5.75" font-family="Helvetica,sans-Serif" font-size="10.00">RTClib.h</text>
</a>
</g>
</g>
<!-- Node14&#45;&gt;Node17 -->
<g id="edge22_Node000014_Node000017" class="edge">
<title>Node14&#45;&gt;Node17</title>
<g id="a_edge22_Node000014_Node000017"><a xlink:title=" ">
<path fill="none" stroke="#63b8ff" d="M931.49,-54.76C894.56,-46.3 837.76,-33.25 779.1,-19.67"/>
<polygon fill="#63b8ff" stroke="#63b8ff" points="780.13,-16.32 769.6,-17.47 778.56,-23.14 780.13,-16.32"/>
</a>
</g>
</g>
<!-- Node18 -->
<g id="Node000018" class="node">
<title>Node18</title>
<g id="a_Node000018"><a xlink:title=" ">
<polygon fill="#e0e0e0" stroke="#999999" points="856.25,-19.25 786.25,-19.25 786.25,0 856.25,0 856.25,-19.25"/>
<text xml:space="preserve" text-anchor="middle" x="821.25" y="-5.75" font-family="Helvetica,sans-Serif" font-size="10.00">NTPClient.h</text>
</a>
</g>
</g>
<!-- Node14&#45;&gt;Node18 -->
<g id="edge23_Node000014_Node000018" class="edge">
<title>Node14&#45;&gt;Node18</title>
<g id="a_edge23_Node000014_Node000018"><a xlink:title=" ">
<path fill="none" stroke="#63b8ff" d="M945.8,-54.84C921.56,-46.24 884.82,-33.19 857.51,-23.5"/>
<polygon fill="#63b8ff" stroke="#63b8ff" points="858.84,-20.26 848.25,-20.21 856.5,-26.85 858.84,-20.26"/>
</a>
</g>
</g>
<!-- Node19 -->
<g id="Node000019" class="node">
<title>Node19</title>
<g id="a_Node000019"><a xlink:title=" ">
<polygon fill="#e0e0e0" stroke="#999999" points="936.5,-19.25 874,-19.25 874,0 936.5,0 936.5,-19.25"/>
<text xml:space="preserve" text-anchor="middle" x="905.25" y="-5.75" font-family="Helvetica,sans-Serif" font-size="10.00">WiFiUdp.h</text>
</a>
</g>
</g>
<!-- Node14&#45;&gt;Node19 -->
<g id="edge24_Node000014_Node000019" class="edge">
<title>Node14&#45;&gt;Node19</title>
<g id="a_edge24_Node000014_Node000019"><a xlink:title=" ">
<path fill="none" stroke="#63b8ff" d="M960.05,-54.84C950.51,-47.15 936.58,-35.9 925.14,-26.68"/>
<polygon fill="#63b8ff" stroke="#63b8ff" points="927.44,-24.03 917.46,-20.48 923.04,-29.48 927.44,-24.03"/>
</a>
</g>
</g>
<!-- Node14&#45;&gt;Node20 -->
<g id="edge25_Node000014_Node000020" class="edge">
<title>Node14&#45;&gt;Node20</title>
<g id="a_edge25_Node000014_Node000020"><a xlink:title=" ">
<path fill="none" stroke="#63b8ff" d="M996.36,-54.84C1020.28,-46.24 1056.53,-33.19 1083.47,-23.5"/>
<polygon fill="#63b8ff" stroke="#63b8ff" points="1084.37,-26.89 1092.6,-20.21 1082,-20.31 1084.37,-26.89"/>
</a>
</g>
</g>
<!-- Node21&#45;&gt;Node10 -->
<g id="edge30_Node000021_Node000010" class="edge">
<title>Node21&#45;&gt;Node10</title>
<g id="a_edge30_Node000021_Node000010"><a xlink:title=" ">
<path fill="none" stroke="#63b8ff" d="M393.42,-220.83C393.54,-214.32 393.71,-205.17 393.87,-196.87"/>
<polygon fill="#63b8ff" stroke="#63b8ff" points="397.36,-196.94 394.05,-186.87 390.37,-196.8 397.36,-196.94"/>
</a>
</g>
</g>
<!-- Node22 -->
<g id="Node000022" class="node">
<title>Node22</title>
<g id="a_Node000022"><a xlink:title=" ">
<polygon fill="#e0e0e0" stroke="#999999" points="323.38,-185 275.12,-185 275.12,-165.75 323.38,-165.75 323.38,-185"/>
<text xml:space="preserve" text-anchor="middle" x="299.25" y="-171.5" font-family="Helvetica,sans-Serif" font-size="10.00">stdint.h</text>
</a>
</g>
</g>
<!-- Node21&#45;&gt;Node22 -->
<g id="edge29_Node000021_Node000022" class="edge">
<title>Node21&#45;&gt;Node22</title>
<g id="a_edge29_Node000021_Node000022"><a xlink:title=" ">
<path fill="none" stroke="#63b8ff" d="M377.3,-220.59C362.99,-212.48 341.72,-200.43 325,-190.96"/>
<polygon fill="#63b8ff" stroke="#63b8ff" points="327.02,-188.08 316.59,-186.2 323.57,-194.17 327.02,-188.08"/>
</a>
</g>
</g>
<!-- Node23&#45;&gt;Node2 -->
<g id="edge32_Node000023_Node000002" class="edge">
<title>Node23&#45;&gt;Node2</title>
<g id="a_edge32_Node000023_Node000002"><a xlink:title=" ">
<path fill="none" stroke="#63b8ff" d="M741.76,-165.35C720.93,-158.62 695.93,-147.47 679.25,-129.75 655,-104 674.91,-81.54 651.25,-55.25 637.94,-40.46 618.61,-29.95 601.36,-22.86"/>
<polygon fill="#63b8ff" stroke="#63b8ff" points="602.96,-19.72 592.37,-19.42 600.46,-26.26 602.96,-19.72"/>
</a>
</g>
</g>
<!-- Node23&#45;&gt;Node5 -->
<g id="edge38_Node000023_Node000005" class="edge">
<title>Node23&#45;&gt;Node5</title>
<g id="a_edge38_Node000023_Node000005"><a xlink:title=" ">
<path fill="none" stroke="#63b8ff" d="M829.57,-165.33C871.09,-155.7 919.65,-137.99 896.25,-110.5 865.37,-74.23 719.59,-67.34 653.26,-66.11"/>
<polygon fill="#63b8ff" stroke="#63b8ff" points="653.41,-62.61 643.36,-65.96 653.3,-69.61 653.41,-62.61"/>
</a>
</g>
</g>
<!-- Node23&#45;&gt;Node11 -->
<g id="edge39_Node000023_Node000011" class="edge">
<title>Node23&#45;&gt;Node11</title>
<g id="a_edge39_Node000023_Node000011"><a xlink:title=" ">
<path fill="none" stroke="#63b8ff" d="M730.41,-165.28C680.32,-155.96 602.48,-141.46 549.76,-131.65"/>
<polygon fill="#63b8ff" stroke="#63b8ff" points="550.55,-128.23 540.07,-129.84 549.26,-135.11 550.55,-128.23"/>
</a>
</g>
</g>
<!-- Node23&#45;&gt;Node16 -->
<g id="edge33_Node000023_Node000016" class="edge">
<title>Node23&#45;&gt;Node16</title>
<g id="a_edge33_Node000023_Node000016"><a xlink:title=" ">
<path fill="none" stroke="#63b8ff" d="M829.54,-174.2C874.34,-171.72 939.82,-162.15 986.25,-129.75 1019.37,-106.64 1032.53,-58.15 1037.48,-30.7"/>
<polygon fill="#63b8ff" stroke="#63b8ff" points="1040.93,-31.34 1039.03,-20.91 1034.01,-30.25 1040.93,-31.34"/>
</a>
</g>
</g>
<!-- Node24 -->
<g id="Node000024" class="node">
<title>Node24</title>
<g id="a_Node000024"><a xlink:title=" ">
<polygon fill="#e0e0e0" stroke="#999999" points="977.62,-129.75 942.88,-129.75 942.88,-110.5 977.62,-110.5 977.62,-129.75"/>
<text xml:space="preserve" text-anchor="middle" x="960.25" y="-116.25" font-family="Helvetica,sans-Serif" font-size="10.00">map</text>
</a>
</g>
</g>
<!-- Node23&#45;&gt;Node24 -->
<g id="edge34_Node000023_Node000024" class="edge">
<title>Node23&#45;&gt;Node24</title>
<g id="a_edge34_Node000023_Node000024"><a xlink:title=" ">
<path fill="none" stroke="#63b8ff" d="M809.95,-165.34C844.06,-155.31 898.67,-139.24 931.82,-129.49"/>
<polygon fill="#63b8ff" stroke="#63b8ff" points="932.53,-132.93 941.14,-126.75 930.56,-126.21 932.53,-132.93"/>
</a>
</g>
</g>
<!-- Node25 -->
<g id="Node000025" class="node">
<title>Node25</title>
<g id="a_Node000025"><a xlink:title=" ">
<polygon fill="#e0e0e0" stroke="#999999" points="728.25,-129.75 688.25,-129.75 688.25,-110.5 728.25,-110.5 728.25,-129.75"/>
<text xml:space="preserve" text-anchor="middle" x="708.25" y="-116.25" font-family="Helvetica,sans-Serif" font-size="10.00">string</text>
</a>
</g>
</g>
<!-- Node23&#45;&gt;Node25 -->
<g id="edge35_Node000023_Node000025" class="edge">
<title>Node23&#45;&gt;Node25</title>
<g id="a_edge35_Node000023_Node000025"><a xlink:title=" ">
<path fill="none" stroke="#63b8ff" d="M767.21,-165.34C756.84,-157.57 741.65,-146.17 729.28,-136.9"/>
<polygon fill="#63b8ff" stroke="#63b8ff" points="731.43,-134.13 721.33,-130.93 727.23,-139.73 731.43,-134.13"/>
</a>
</g>
</g>
<!-- Node26 -->
<g id="Node000026" class="node">
<title>Node26</title>
<g id="a_Node000026"><a xlink:title=" ">
<polygon fill="#e0e0e0" stroke="#999999" points="812,-129.75 746.5,-129.75 746.5,-110.5 812,-110.5 812,-129.75"/>
<text xml:space="preserve" text-anchor="middle" x="779.25" y="-116.25" font-family="Helvetica,sans-Serif" font-size="10.00">PCF8575.h</text>
</a>
</g>
</g>
<!-- Node23&#45;&gt;Node26 -->
<g id="edge36_Node000023_Node000026" class="edge">
<title>Node23&#45;&gt;Node26</title>
<g id="a_edge36_Node000023_Node000026"><a xlink:title=" ">
<path fill="none" stroke="#63b8ff" d="M779.25,-165.58C779.25,-159.07 779.25,-149.92 779.25,-141.62"/>
<polygon fill="#63b8ff" stroke="#63b8ff" points="782.75,-141.62 779.25,-131.62 775.75,-141.62 782.75,-141.62"/>
</a>
</g>
</g>
<!-- Node27 -->
<g id="Node000027" class="node">
<title>Node27</title>
<g id="a_Node000027"><a xlink:title=" ">
<polygon fill="#e0e0e0" stroke="#999999" points="886.88,-129.75 829.62,-129.75 829.62,-110.5 886.88,-110.5 886.88,-129.75"/>
<text xml:space="preserve" text-anchor="middle" x="858.25" y="-116.25" font-family="Helvetica,sans-Serif" font-size="10.00">U8g2lib.h</text>
</a>
</g>
</g>
<!-- Node23&#45;&gt;Node27 -->
<g id="edge37_Node000023_Node000027" class="edge">
<title>Node23&#45;&gt;Node27</title>
<g id="a_edge37_Node000023_Node000027"><a xlink:title=" ">
<path fill="none" stroke="#63b8ff" d="M792.65,-165.34C804.34,-157.46 821.55,-145.86 835.41,-136.52"/>
<polygon fill="#63b8ff" stroke="#63b8ff" points="837.19,-139.54 843.53,-131.05 833.28,-133.74 837.19,-139.54"/>
</a>
</g>
</g>
<!-- Node28&#45;&gt;Node2 -->
<g id="edge41_Node000028_Node000002" class="edge">
<title>Node28&#45;&gt;Node2</title>
<g id="a_edge41_Node000028_Node000002"><a xlink:title=" ">
<path fill="none" stroke="#63b8ff" d="M504.19,-220.67C486.92,-204.54 452.22,-168.63 439.25,-129.75 436.54,-121.63 437.09,-118.78 439.25,-110.5 446.37,-83.26 449.75,-74.56 470.25,-55.25 485.12,-41.24 505.22,-30.81 522.84,-23.56"/>
<polygon fill="#63b8ff" stroke="#63b8ff" points="523.95,-26.89 532.01,-20.01 521.42,-20.36 523.95,-26.89"/>
</a>
</g>
</g>
<!-- Node28&#45;&gt;Node5 -->
<g id="edge42_Node000028_Node000005" class="edge">
<title>Node28&#45;&gt;Node5</title>
<g id="a_edge42_Node000028_Node000005"><a xlink:title=" ">
<path fill="none" stroke="#63b8ff" d="M519.95,-220.82C536.63,-195.05 585.6,-119.4 608.36,-84.24"/>
<polygon fill="#63b8ff" stroke="#63b8ff" points="611.2,-86.29 613.7,-75.99 605.33,-82.49 611.2,-86.29"/>
</a>
</g>
</g>
<!-- Node28&#45;&gt;Node10 -->
<g id="edge43_Node000028_Node000010" class="edge">
<title>Node28&#45;&gt;Node10</title>
<g id="a_edge43_Node000028_Node000010"><a xlink:title=" ">
<path fill="none" stroke="#63b8ff" d="M493.89,-220.59C475.02,-212.22 446.66,-199.63 425.02,-190.03"/>
<polygon fill="#63b8ff" stroke="#63b8ff" points="426.65,-186.92 416.09,-186.07 423.81,-193.32 426.65,-186.92"/>
</a>
</g>
</g>
<!-- Node28&#45;&gt;Node11 -->
<g id="edge44_Node000028_Node000011" class="edge">
<title>Node28&#45;&gt;Node11</title>
<g id="a_edge44_Node000028_Node000011"><a xlink:title=" ">
<path fill="none" stroke="#63b8ff" d="M512.53,-220.75C509.19,-203.5 501.76,-165.08 497.16,-141.31"/>
<polygon fill="#63b8ff" stroke="#63b8ff" points="500.62,-140.77 495.28,-131.61 493.74,-142.1 500.62,-140.77"/>
</a>
</g>
</g>
</g>
</svg>
