<?xml version="1.0" encoding="UTF-8" standalone="no"?>
<!DOCTYPE svg PUBLIC "-//W3C//DTD SVG 1.1//EN"
 "http://www.w3.org/Graphics/SVG/1.1/DTD/svg11.dtd">
<!-- Generated by graphviz version 13.1.0 (20250701.0955)
 -->
<!-- Title: src/ConfigManager.cpp Pages: 1 -->
<svg width="1316pt" height="469pt"
 viewBox="0.00 0.00 1316.00 469.00" xmlns="http://www.w3.org/2000/svg" xmlns:xlink="http://www.w3.org/1999/xlink">
<g id="graph0" class="graph" transform="scale(1 1) rotate(0) translate(4 465.25)">
<title>src/ConfigManager.cpp</title>
<!-- Node1 -->
<g id="Node000001" class="node">
<title>Node1</title>
<g id="a_Node000001"><a xlink:title="Implementation of web&#45;based configuration management system.">
<polygon fill="#999999" stroke="#666666" points="1093.38,-461.25 976.88,-461.25 976.88,-442 1093.38,-442 1093.38,-461.25"/>
<text xml:space="preserve" text-anchor="middle" x="1035.12" y="-447.75" font-family="Helvetica,sans-Serif" font-size="10.00">src/ConfigManager.cpp</text>
</a>
</g>
</g>
<!-- Node2 -->
<g id="Node000002" class="node">
<title>Node2</title>
<g id="a_Node000002"><a xlink:href="_config_manager_8h.html" target="_top" xlink:title="Configuration management system for temperature monitoring device.">
<polygon fill="white" stroke="#666666" points="895.88,-406 806.38,-406 806.38,-386.75 895.88,-386.75 895.88,-406"/>
<text xml:space="preserve" text-anchor="middle" x="851.12" y="-392.5" font-family="Helvetica,sans-Serif" font-size="10.00">ConfigManager.h</text>
</a>
</g>
</g>
<!-- Node1&#45;&gt;Node2 -->
<g id="edge1_Node000001_Node000002" class="edge">
<title>Node1&#45;&gt;Node2</title>
<g id="a_edge1_Node000001_Node000002"><a xlink:title=" ">
<path fill="none" stroke="#63b8ff" d="M1003.91,-441.59C973.51,-432.79 927.09,-419.36 893.39,-409.61"/>
<polygon fill="#63b8ff" stroke="#63b8ff" points="894.52,-406.29 883.95,-406.87 892.58,-413.02 894.52,-406.29"/>
</a>
</g>
</g>
<!-- Node24 -->
<g id="Node000024" class="node">
<title>Node24</title>
<g id="a_Node000024"><a xlink:title=" ">
<polygon fill="#e0e0e0" stroke="#999999" points="78.25,-19.25 0,-19.25 0,0 78.25,0 78.25,-19.25"/>
<text xml:space="preserve" text-anchor="middle" x="39.12" y="-5.75" font-family="Helvetica,sans-Serif" font-size="10.00">ArduinoJson.h</text>
</a>
</g>
</g>
<!-- Node1&#45;&gt;Node24 -->
<g id="edge61_Node000001_Node000024" class="edge">
<title>Node1&#45;&gt;Node24</title>
<g id="a_edge61_Node000001_Node000024"><a xlink:title=" ">
<path fill="none" stroke="#63b8ff" d="M976.6,-450.43C763.31,-448.95 40.12,-436.94 40.12,-342.12 40.12,-342.12 40.12,-342.12 40.12,-119.12 40.12,-88.4 39.72,-52.79 39.42,-30.99"/>
<polygon fill="#63b8ff" stroke="#63b8ff" points="42.93,-31.09 39.29,-21.14 35.93,-31.19 42.93,-31.09"/>
</a>
</g>
</g>
<!-- Node33 -->
<g id="Node000033" class="node">
<title>Node33</title>
<g id="a_Node000033"><a xlink:title=" ">
<polygon fill="#e0e0e0" stroke="#999999" points="1193,-240.25 1137.25,-240.25 1137.25,-221 1193,-221 1193,-240.25"/>
<text xml:space="preserve" text-anchor="middle" x="1165.12" y="-226.75" font-family="Helvetica,sans-Serif" font-size="10.00">algorithm</text>
</a>
</g>
</g>
<!-- Node1&#45;&gt;Node33 -->
<g id="edge63_Node000001_Node000033" class="edge">
<title>Node1&#45;&gt;Node33</title>
<g id="a_edge63_Node000001_Node000033"><a xlink:title=" ">
<path fill="none" stroke="#63b8ff" d="M1067.25,-441.51C1106.24,-428.52 1170.23,-400.55 1198.12,-350.75 1216.49,-317.97 1194.29,-274.3 1178.43,-249.98"/>
<polygon fill="#63b8ff" stroke="#63b8ff" points="1181.36,-248.06 1172.82,-241.79 1175.59,-252.02 1181.36,-248.06"/>
</a>
</g>
</g>
<!-- Node37 -->
<g id="Node000037" class="node">
<title>Node37</title>
<g id="a_Node000037"><a xlink:title=" ">
<polygon fill="#e0e0e0" stroke="#999999" points="1307.62,-406 1264.62,-406 1264.62,-386.75 1307.62,-386.75 1307.62,-406"/>
<text xml:space="preserve" text-anchor="middle" x="1286.12" y="-392.5" font-family="Helvetica,sans-Serif" font-size="10.00">time.h</text>
</a>
</g>
</g>
<!-- Node1&#45;&gt;Node37 -->
<g id="edge62_Node000001_Node000037" class="edge">
<title>Node1&#45;&gt;Node37</title>
<g id="a_edge62_Node000001_Node000037"><a xlink:title=" ">
<path fill="none" stroke="#63b8ff" d="M1080.93,-441.54C1124.51,-432.79 1191.9,-419.01 1250.12,-406 1251.29,-405.74 1252.47,-405.47 1253.66,-405.2"/>
<polygon fill="#63b8ff" stroke="#63b8ff" points="1254.03,-408.71 1262.97,-403.03 1252.44,-401.89 1254.03,-408.71"/>
</a>
</g>
</g>
<!-- Node3 -->
<g id="Node000003" class="node">
<title>Node3</title>
<g id="a_Node000003"><a xlink:title=" ">
<polygon fill="#e0e0e0" stroke="#999999" points="782.75,-19.25 725.5,-19.25 725.5,0 782.75,0 782.75,-19.25"/>
<text xml:space="preserve" text-anchor="middle" x="754.12" y="-5.75" font-family="Helvetica,sans-Serif" font-size="10.00">Arduino.h</text>
</a>
</g>
</g>
<!-- Node2&#45;&gt;Node3 -->
<g id="edge2_Node000002_Node000003" class="edge">
<title>Node2&#45;&gt;Node3</title>
<g id="a_edge2_Node000002_Node000003"><a xlink:title=" ">
<path fill="none" stroke="#63b8ff" d="M896.28,-392.73C977.55,-387.46 1144.94,-374.08 1198.12,-350.75 1238.53,-333.02 1274.12,-331 1274.12,-286.88 1274.12,-286.88 1274.12,-286.88 1274.12,-119.12 1274.12,-21.28 916.89,-11.1 794.61,-10.47"/>
<polygon fill="#63b8ff" stroke="#63b8ff" points="794.72,-6.97 784.71,-10.45 794.7,-13.97 794.72,-6.97"/>
</a>
</g>
</g>
<!-- Node4 -->
<g id="Node000004" class="node">
<title>Node4</title>
<g id="a_Node000004"><a xlink:title=" ">
<polygon fill="#e0e0e0" stroke="#999999" points="1170.38,-295.5 1089.88,-295.5 1089.88,-276.25 1170.38,-276.25 1170.38,-295.5"/>
<text xml:space="preserve" text-anchor="middle" x="1130.12" y="-282" font-family="Helvetica,sans-Serif" font-size="10.00">ConfigAssist.h</text>
</a>
</g>
</g>
<!-- Node2&#45;&gt;Node4 -->
<g id="edge3_Node000002_Node000004" class="edge">
<title>Node2&#45;&gt;Node4</title>
<g id="a_edge3_Node000002_Node000004"><a xlink:title=" ">
<path fill="none" stroke="#63b8ff" d="M896.1,-386.65C930.31,-379.24 978.15,-367.17 1018.12,-350.75 1050.66,-337.39 1085.44,-316.37 1107.46,-302.12"/>
<polygon fill="#63b8ff" stroke="#63b8ff" points="1109.2,-305.17 1115.64,-296.75 1105.36,-299.32 1109.2,-305.17"/>
</a>
</g>
</g>
<!-- Node5 -->
<g id="Node000005" class="node">
<title>Node5</title>
<g id="a_Node000005"><a xlink:title=" ">
<polygon fill="#e0e0e0" stroke="#999999" points="343.25,-350.75 235,-350.75 235,-331.5 343.25,-331.5 343.25,-350.75"/>
<text xml:space="preserve" text-anchor="middle" x="289.12" y="-337.25" font-family="Helvetica,sans-Serif" font-size="10.00">ConfigAssistHelper.h</text>
</a>
</g>
</g>
<!-- Node2&#45;&gt;Node5 -->
<g id="edge4_Node000002_Node000005" class="edge">
<title>Node2&#45;&gt;Node5</title>
<g id="a_edge4_Node000002_Node000005"><a xlink:title=" ">
<path fill="none" stroke="#63b8ff" d="M805.98,-392.05C720.24,-385.58 527.65,-370.32 355.08,-351.04"/>
<polygon fill="#63b8ff" stroke="#63b8ff" points="355.57,-347.57 345.25,-349.93 354.79,-354.53 355.57,-347.57"/>
</a>
</g>
</g>
<!-- Node6 -->
<g id="Node000006" class="node">
<title>Node6</title>
<g id="a_Node000006"><a xlink:title=" ">
<polygon fill="#e0e0e0" stroke="#999999" points="432.88,-350.75 361.38,-350.75 361.38,-331.5 432.88,-331.5 432.88,-350.75"/>
<text xml:space="preserve" text-anchor="middle" x="397.12" y="-337.25" font-family="Helvetica,sans-Serif" font-size="10.00">WebServer.h</text>
</a>
</g>
</g>
<!-- Node2&#45;&gt;Node6 -->
<g id="edge5_Node000002_Node000006" class="edge">
<title>Node2&#45;&gt;Node6</title>
<g id="a_edge5_Node000002_Node000006"><a xlink:title=" ">
<path fill="none" stroke="#63b8ff" d="M805.88,-391.64C732.3,-385.31 581.89,-371.27 444.11,-350.93"/>
<polygon fill="#63b8ff" stroke="#63b8ff" points="444.85,-347.5 434.44,-349.48 443.81,-354.42 444.85,-347.5"/>
</a>
</g>
</g>
<!-- Node7 -->
<g id="Node000007" class="node">
<title>Node7</title>
<g id="a_Node000007"><a xlink:title=" ">
<polygon fill="#e0e0e0" stroke="#999999" points="509.12,-350.75 451.12,-350.75 451.12,-331.5 509.12,-331.5 509.12,-350.75"/>
<text xml:space="preserve" text-anchor="middle" x="480.12" y="-337.25" font-family="Helvetica,sans-Serif" font-size="10.00">LittleFS.h</text>
</a>
</g>
</g>
<!-- Node2&#45;&gt;Node7 -->
<g id="edge6_Node000002_Node000007" class="edge">
<title>Node2&#45;&gt;Node7</title>
<g id="a_edge6_Node000002_Node000007"><a xlink:title=" ">
<path fill="none" stroke="#63b8ff" d="M805.89,-390.13C742.5,-382.58 623.72,-367.66 523.12,-350.75 522.14,-350.58 521.14,-350.41 520.14,-350.24"/>
<polygon fill="#63b8ff" stroke="#63b8ff" points="521.18,-346.87 510.71,-348.49 519.91,-353.75 521.18,-346.87"/>
</a>
</g>
</g>
<!-- Node8 -->
<g id="Node000008" class="node">
<title>Node8</title>
<g id="a_Node000008"><a xlink:href="_temperature_controller_8h.html" target="_top" xlink:title="Central temperature monitoring and control system.">
<polygon fill="white" stroke="#666666" points="910.88,-295.5 791.38,-295.5 791.38,-276.25 910.88,-276.25 910.88,-295.5"/>
<text xml:space="preserve" text-anchor="middle" x="851.12" y="-282" font-family="Helvetica,sans-Serif" font-size="10.00">TemperatureController.h</text>
</a>
</g>
</g>
<!-- Node2&#45;&gt;Node8 -->
<g id="edge7_Node000002_Node000008" class="edge">
<title>Node2&#45;&gt;Node8</title>
<g id="a_edge7_Node000002_Node000008"><a xlink:title=" ">
<path fill="none" stroke="#63b8ff" d="M851.12,-386.5C851.12,-369.25 851.12,-330.83 851.12,-307.06"/>
<polygon fill="#63b8ff" stroke="#63b8ff" points="854.63,-307.39 851.13,-297.39 847.63,-307.39 854.63,-307.39"/>
</a>
</g>
</g>
<!-- Node9 -->
<g id="Node000009" class="node">
<title>Node9</title>
<g id="a_Node000009"><a xlink:title=" ">
<polygon fill="#e0e0e0" stroke="#999999" points="518.62,-74.5 475.62,-74.5 475.62,-55.25 518.62,-55.25 518.62,-74.5"/>
<text xml:space="preserve" text-anchor="middle" x="497.12" y="-61" font-family="Helvetica,sans-Serif" font-size="10.00">vector</text>
</a>
</g>
</g>
<!-- Node2&#45;&gt;Node9 -->
<g id="edge60_Node000002_Node000009" class="edge">
<title>Node2&#45;&gt;Node9</title>
<g id="a_edge60_Node000002_Node000009"><a xlink:title=" ">
<path fill="none" stroke="#63b8ff" d="M817.77,-386.25C792.73,-378.66 758.1,-366.55 730.12,-350.75 612.95,-284.55 591.74,-245.52 523.12,-129.75 514.81,-115.71 507.98,-98.52 503.41,-85.51"/>
<polygon fill="#63b8ff" stroke="#63b8ff" points="506.84,-84.75 500.35,-76.38 500.21,-86.97 506.84,-84.75"/>
</a>
</g>
</g>
<!-- Node15 -->
<g id="Node000015" class="node">
<title>Node15</title>
<g id="a_Node000015"><a xlink:href="_logger_manager_8h.html" target="_top" xlink:title="Comprehensive data and event logging system for temperature monitoring.">
<polygon fill="white" stroke="#666666" points="693.25,-129.75 603,-129.75 603,-110.5 693.25,-110.5 693.25,-129.75"/>
<text xml:space="preserve" text-anchor="middle" x="648.12" y="-116.25" font-family="Helvetica,sans-Serif" font-size="10.00">LoggerManager.h</text>
</a>
</g>
</g>
<!-- Node2&#45;&gt;Node15 -->
<g id="edge59_Node000002_Node000015" class="edge">
<title>Node2&#45;&gt;Node15</title>
<g id="a_edge59_Node000002_Node000015"><a xlink:title=" ">
<path fill="none" stroke="#63b8ff" d="M830.61,-386.37C779.09,-362.47 644.73,-291.82 594.12,-185 585.16,-166.07 603.45,-148.18 621.12,-136.18"/>
<polygon fill="#63b8ff" stroke="#63b8ff" points="622.82,-139.25 629.42,-130.96 619.09,-133.33 622.82,-139.25"/>
</a>
</g>
</g>
<!-- Node34 -->
<g id="Node000034" class="node">
<title>Node34</title>
<g id="a_Node000034"><a xlink:href="_c_s_v_config_manager_8h.html" target="_top" xlink:title="CSV configuration import/export manager for measurement points and alarms.">
<polygon fill="white" stroke="#666666" points="1009.38,-350.75 898.88,-350.75 898.88,-331.5 1009.38,-331.5 1009.38,-350.75"/>
<text xml:space="preserve" text-anchor="middle" x="954.12" y="-337.25" font-family="Helvetica,sans-Serif" font-size="10.00">CSVConfigManager.h</text>
</a>
</g>
</g>
<!-- Node2&#45;&gt;Node34 -->
<g id="edge52_Node000002_Node000034" class="edge">
<title>Node2&#45;&gt;Node34</title>
<g id="a_edge52_Node000002_Node000034"><a xlink:title=" ">
<path fill="none" stroke="#63b8ff" d="M868.6,-386.34C884.43,-378.16 908.03,-365.96 926.43,-356.44"/>
<polygon fill="#63b8ff" stroke="#63b8ff" points="927.95,-359.6 935.22,-351.9 924.73,-353.38 927.95,-359.6"/>
</a>
</g>
</g>
<!-- Node36 -->
<g id="Node000036" class="node">
<title>Node36</title>
<g id="a_Node000036"><a xlink:href="_settings_c_s_v_manager_8h.html" target="_top" xlink:title="CSV import/export manager for system settings.">
<polygon fill="white" stroke="#666666" points="1189.12,-350.75 1071.12,-350.75 1071.12,-331.5 1189.12,-331.5 1189.12,-350.75"/>
<text xml:space="preserve" text-anchor="middle" x="1130.12" y="-337.25" font-family="Helvetica,sans-Serif" font-size="10.00">SettingsCSVManager.h</text>
</a>
</g>
</g>
<!-- Node2&#45;&gt;Node36 -->
<g id="edge56_Node000002_Node000036" class="edge">
<title>Node2&#45;&gt;Node36</title>
<g id="a_edge56_Node000002_Node000036"><a xlink:title=" ">
<path fill="none" stroke="#63b8ff" d="M896.26,-386.76C943.96,-377.66 1019.38,-363.26 1071.62,-353.29"/>
<polygon fill="#63b8ff" stroke="#63b8ff" points="1072.07,-356.77 1081.23,-351.46 1070.75,-349.89 1072.07,-356.77"/>
</a>
</g>
</g>
<!-- Node8&#45;&gt;Node3 -->
<g id="edge8_Node000008_Node000003" class="edge">
<title>Node8&#45;&gt;Node3</title>
<g id="a_edge8_Node000008_Node000003"><a xlink:title=" ">
<path fill="none" stroke="#63b8ff" d="M879.85,-275.8C966.45,-247.07 1213.84,-154.12 1126.12,-55.25 1104.36,-30.72 886.05,-17.15 794.35,-12.49"/>
<polygon fill="#63b8ff" stroke="#63b8ff" points="794.72,-9 784.56,-12 794.37,-15.99 794.72,-9"/>
</a>
</g>
</g>
<!-- Node8&#45;&gt;Node9 -->
<g id="edge9_Node000008_Node000009" class="edge">
<title>Node8&#45;&gt;Node9</title>
<g id="a_edge9_Node000008_Node000009"><a xlink:title=" ">
<path fill="none" stroke="#63b8ff" d="M791.08,-276.91C753.8,-270.41 705.63,-259.12 666.12,-240.25 591.68,-204.69 532.3,-121.61 508.45,-84.43"/>
<polygon fill="#63b8ff" stroke="#63b8ff" points="511.53,-82.75 503.25,-76.14 505.6,-86.47 511.53,-82.75"/>
</a>
</g>
</g>
<!-- Node10 -->
<g id="Node000010" class="node">
<title>Node10</title>
<g id="a_Node000010"><a xlink:href="_sensor_8h.html" target="_top" xlink:title="Temperature sensor abstraction layer.">
<polygon fill="white" stroke="#666666" points="907.25,-129.75 853,-129.75 853,-110.5 907.25,-110.5 907.25,-129.75"/>
<text xml:space="preserve" text-anchor="middle" x="880.12" y="-116.25" font-family="Helvetica,sans-Serif" font-size="10.00">Sensor.h</text>
</a>
</g>
</g>
<!-- Node8&#45;&gt;Node10 -->
<g id="edge10_Node000008_Node000010" class="edge">
<title>Node8&#45;&gt;Node10</title>
<g id="a_edge10_Node000008_Node000010"><a xlink:title=" ">
<path fill="none" stroke="#63b8ff" d="M856.35,-275.91C865.93,-258.88 885.98,-220.4 893.12,-185 896.11,-170.2 892.46,-153.49 888.27,-140.87"/>
<polygon fill="#63b8ff" stroke="#63b8ff" points="891.6,-139.78 884.82,-131.64 885.04,-142.23 891.6,-139.78"/>
</a>
</g>
</g>
<!-- Node11 -->
<g id="Node000011" class="node">
<title>Node11</title>
<g id="a_Node000011"><a xlink:title=" ">
<polygon fill="#e0e0e0" stroke="#999999" points="993.38,-74.5 930.88,-74.5 930.88,-55.25 993.38,-55.25 993.38,-74.5"/>
<text xml:space="preserve" text-anchor="middle" x="962.12" y="-61" font-family="Helvetica,sans-Serif" font-size="10.00">OneWire.h</text>
</a>
</g>
</g>
<!-- Node8&#45;&gt;Node11 -->
<g id="edge48_Node000008_Node000011" class="edge">
<title>Node8&#45;&gt;Node11</title>
<g id="a_edge48_Node000008_Node000011"><a xlink:title=" ">
<path fill="none" stroke="#63b8ff" d="M861.35,-275.8C870.4,-267.32 883.49,-253.96 892.12,-240.25 924.67,-188.62 947.03,-119.31 956.71,-85.75"/>
<polygon fill="#63b8ff" stroke="#63b8ff" points="960.06,-86.78 959.39,-76.2 953.32,-84.89 960.06,-86.78"/>
</a>
</g>
</g>
<!-- Node12 -->
<g id="Node000012" class="node">
<title>Node12</title>
<g id="a_Node000012"><a xlink:title=" ">
<polygon fill="#e0e0e0" stroke="#999999" points="1117.12,-74.5 1011.12,-74.5 1011.12,-55.25 1117.12,-55.25 1117.12,-74.5"/>
<text xml:space="preserve" text-anchor="middle" x="1064.12" y="-61" font-family="Helvetica,sans-Serif" font-size="10.00">DallasTemperature.h</text>
</a>
</g>
</g>
<!-- Node8&#45;&gt;Node12 -->
<g id="edge49_Node000008_Node000012" class="edge">
<title>Node8&#45;&gt;Node12</title>
<g id="a_edge49_Node000008_Node000012"><a xlink:title=" ">
<path fill="none" stroke="#63b8ff" d="M864.62,-276.05C877.21,-267.55 896.24,-253.98 911.12,-240.25 967.73,-188.04 1025.14,-116.53 1050.57,-83.69"/>
<polygon fill="#63b8ff" stroke="#63b8ff" points="1053.16,-86.07 1056.47,-76 1047.6,-81.8 1053.16,-86.07"/>
</a>
</g>
</g>
<!-- Node14 -->
<g id="Node000014" class="node">
<title>Node14</title>
<g id="a_Node000014"><a xlink:href="_measurement_point_8h.html" target="_top" xlink:title="Measurement point abstraction for temperature monitoring system.">
<polygon fill="white" stroke="#666666" points="851.12,-185 745.12,-185 745.12,-165.75 851.12,-165.75 851.12,-185"/>
<text xml:space="preserve" text-anchor="middle" x="798.12" y="-171.5" font-family="Helvetica,sans-Serif" font-size="10.00">MeasurementPoint.h</text>
</a>
</g>
</g>
<!-- Node8&#45;&gt;Node14 -->
<g id="edge15_Node000008_Node000014" class="edge">
<title>Node8&#45;&gt;Node14</title>
<g id="a_edge15_Node000008_Node000014"><a xlink:title=" ">
<path fill="none" stroke="#63b8ff" d="M849.51,-275.81C847,-263.07 841.45,-239.36 832.12,-221 827.23,-211.37 820.2,-201.71 813.79,-193.85"/>
<polygon fill="#63b8ff" stroke="#63b8ff" points="816.62,-191.77 807.47,-186.43 811.3,-196.31 816.62,-191.77"/>
</a>
</g>
</g>
<!-- Node8&#45;&gt;Node24 -->
<g id="edge50_Node000008_Node000024" class="edge">
<title>Node8&#45;&gt;Node24</title>
<g id="a_edge50_Node000008_Node000024"><a xlink:title=" ">
<path fill="none" stroke="#63b8ff" d="M791.11,-282.75C609.49,-275.54 78.12,-248.28 78.12,-176.38 78.12,-176.38 78.12,-176.38 78.12,-119.12 78.12,-86.04 61.87,-50.45 50.34,-29.38"/>
<polygon fill="#63b8ff" stroke="#63b8ff" points="53.46,-27.78 45.46,-20.84 47.39,-31.25 53.46,-27.78"/>
</a>
</g>
</g>
<!-- Node25 -->
<g id="Node000025" class="node">
<title>Node25</title>
<g id="a_Node000025"><a xlink:href="_register_map_8h.html" target="_top" xlink:title="Modbus register mapping for temperature monitoring system.">
<polygon fill="white" stroke="#666666" points="755,-240.25 675.25,-240.25 675.25,-221 755,-221 755,-240.25"/>
<text xml:space="preserve" text-anchor="middle" x="715.12" y="-226.75" font-family="Helvetica,sans-Serif" font-size="10.00">RegisterMap.h</text>
</a>
</g>
</g>
<!-- Node8&#45;&gt;Node25 -->
<g id="edge31_Node000008_Node000025" class="edge">
<title>Node8&#45;&gt;Node25</title>
<g id="a_edge31_Node000008_Node000025"><a xlink:title=" ">
<path fill="none" stroke="#63b8ff" d="M828.05,-275.84C806.37,-267.35 773.64,-254.54 749,-244.89"/>
<polygon fill="#63b8ff" stroke="#63b8ff" points="750.31,-241.64 739.72,-241.25 747.75,-248.16 750.31,-241.64"/>
</a>
</g>
</g>
<!-- Node27 -->
<g id="Node000027" class="node">
<title>Node27</title>
<g id="a_Node000027"><a xlink:href="_indicator_interface_8h.html" target="_top" xlink:title="Hardware interface for PCF8575 I/O expander and SH1106 OLED display.">
<polygon fill="white" stroke="#666666" points="375.12,-185 275.12,-185 275.12,-165.75 375.12,-165.75 375.12,-185"/>
<text xml:space="preserve" text-anchor="middle" x="325.12" y="-171.5" font-family="Helvetica,sans-Serif" font-size="10.00">IndicatorInterface.h</text>
</a>
</g>
</g>
<!-- Node8&#45;&gt;Node27 -->
<g id="edge34_Node000008_Node000027" class="edge">
<title>Node8&#45;&gt;Node27</title>
<g id="a_edge34_Node000008_Node000027"><a xlink:title=" ">
<path fill="none" stroke="#63b8ff" d="M791.07,-277.62C732.17,-270.05 639.99,-256.94 561.12,-240.25 491.49,-225.52 411.83,-202.68 365.15,-188.68"/>
<polygon fill="#63b8ff" stroke="#63b8ff" points="366.34,-185.38 355.75,-185.84 364.31,-192.08 366.34,-185.38"/>
</a>
</g>
</g>
<!-- Node32 -->
<g id="Node000032" class="node">
<title>Node32</title>
<g id="a_Node000032"><a xlink:href="_alarm_8h.html" target="_top" xlink:title="Alarm management system for temperature monitoring.">
<polygon fill="white" stroke="#666666" points="823,-240.25 773.25,-240.25 773.25,-221 823,-221 823,-240.25"/>
<text xml:space="preserve" text-anchor="middle" x="798.12" y="-226.75" font-family="Helvetica,sans-Serif" font-size="10.00">Alarm.h</text>
</a>
</g>
</g>
<!-- Node8&#45;&gt;Node32 -->
<g id="edge43_Node000008_Node000032" class="edge">
<title>Node8&#45;&gt;Node32</title>
<g id="a_edge43_Node000008_Node000032"><a xlink:title=" ">
<path fill="none" stroke="#63b8ff" d="M842.37,-276.08C834.98,-268.65 824.16,-257.79 815.08,-248.66"/>
<polygon fill="#63b8ff" stroke="#63b8ff" points="817.67,-246.3 808.13,-241.68 812.71,-251.24 817.67,-246.3"/>
</a>
</g>
</g>
<!-- Node8&#45;&gt;Node33 -->
<g id="edge51_Node000008_Node000033" class="edge">
<title>Node8&#45;&gt;Node33</title>
<g id="a_edge51_Node000008_Node000033"><a xlink:title=" ">
<path fill="none" stroke="#63b8ff" d="M904.75,-275.78C967.54,-265.13 1070.06,-247.75 1125.88,-238.28"/>
<polygon fill="#63b8ff" stroke="#63b8ff" points="1126.29,-241.76 1135.56,-236.64 1125.12,-234.86 1126.29,-241.76"/>
</a>
</g>
</g>
<!-- Node10&#45;&gt;Node3 -->
<g id="edge11_Node000010_Node000003" class="edge">
<title>Node10&#45;&gt;Node3</title>
<g id="a_edge11_Node000010_Node000003"><a xlink:title=" ">
<path fill="none" stroke="#63b8ff" d="M853.09,-110.03C834.32,-102.69 809.64,-90.88 792.12,-74.5 778.72,-61.97 768.49,-43.65 762.03,-29.85"/>
<polygon fill="#63b8ff" stroke="#63b8ff" points="765.34,-28.67 758.12,-20.92 758.93,-31.48 765.34,-28.67"/>
</a>
</g>
</g>
<!-- Node10&#45;&gt;Node11 -->
<g id="edge12_Node000010_Node000011" class="edge">
<title>Node10&#45;&gt;Node11</title>
<g id="a_edge12_Node000010_Node000011"><a xlink:title=" ">
<path fill="none" stroke="#63b8ff" d="M894.04,-110.09C906.29,-102.14 924.38,-90.39 938.84,-81"/>
<polygon fill="#63b8ff" stroke="#63b8ff" points="940.4,-84.16 946.88,-75.78 936.58,-78.29 940.4,-84.16"/>
</a>
</g>
</g>
<!-- Node10&#45;&gt;Node12 -->
<g id="edge13_Node000010_Node000012" class="edge">
<title>Node10&#45;&gt;Node12</title>
<g id="a_edge13_Node000010_Node000012"><a xlink:title=" ">
<path fill="none" stroke="#63b8ff" d="M907.67,-111.15C937.89,-102.41 986.74,-88.27 1021.82,-78.12"/>
<polygon fill="#63b8ff" stroke="#63b8ff" points="1022.6,-81.54 1031.23,-75.39 1020.65,-74.81 1022.6,-81.54"/>
</a>
</g>
</g>
<!-- Node13 -->
<g id="Node000013" class="node">
<title>Node13</title>
<g id="a_Node000013"><a xlink:title=" ">
<polygon fill="#e0e0e0" stroke="#999999" points="912.75,-74.5 801.5,-74.5 801.5,-55.25 912.75,-55.25 912.75,-74.5"/>
<text xml:space="preserve" text-anchor="middle" x="857.12" y="-61" font-family="Helvetica,sans-Serif" font-size="10.00">Adafruit_MAX31865.h</text>
</a>
</g>
</g>
<!-- Node10&#45;&gt;Node13 -->
<g id="edge14_Node000010_Node000013" class="edge">
<title>Node10&#45;&gt;Node13</title>
<g id="a_edge14_Node000010_Node000013"><a xlink:title=" ">
<path fill="none" stroke="#63b8ff" d="M876.33,-110.33C873.38,-103.51 869.19,-93.81 865.47,-85.2"/>
<polygon fill="#63b8ff" stroke="#63b8ff" points="868.78,-84.04 861.61,-76.25 862.36,-86.82 868.78,-84.04"/>
</a>
</g>
</g>
<!-- Node14&#45;&gt;Node3 -->
<g id="edge16_Node000014_Node000003" class="edge">
<title>Node14&#45;&gt;Node3</title>
<g id="a_edge16_Node000014_Node000003"><a xlink:title=" ">
<path fill="none" stroke="#63b8ff" d="M787.81,-165.48C770.08,-149.44 734.47,-113.67 721.12,-74.5 715.42,-57.77 726.13,-40 736.84,-27.46"/>
<polygon fill="#63b8ff" stroke="#63b8ff" points="739.11,-30.16 743.36,-20.46 733.99,-25.39 739.11,-30.16"/>
</a>
</g>
</g>
<!-- Node14&#45;&gt;Node10 -->
<g id="edge17_Node000014_Node000010" class="edge">
<title>Node14&#45;&gt;Node10</title>
<g id="a_edge17_Node000014_Node000010"><a xlink:title=" ">
<path fill="none" stroke="#63b8ff" d="M812.04,-165.34C824.29,-157.39 842.38,-145.64 856.84,-136.25"/>
<polygon fill="#63b8ff" stroke="#63b8ff" points="858.4,-139.41 864.88,-131.03 854.58,-133.54 858.4,-139.41"/>
</a>
</g>
</g>
<!-- Node14&#45;&gt;Node15 -->
<g id="edge18_Node000014_Node000015" class="edge">
<title>Node14&#45;&gt;Node15</title>
<g id="a_edge18_Node000014_Node000015"><a xlink:title=" ">
<path fill="none" stroke="#63b8ff" d="M772.68,-165.34C748.44,-156.74 711.69,-143.69 684.39,-134"/>
<polygon fill="#63b8ff" stroke="#63b8ff" points="685.72,-130.76 675.12,-130.71 683.37,-137.35 685.72,-130.76"/>
</a>
</g>
</g>
<!-- Node15&#45;&gt;Node3 -->
<g id="edge19_Node000015_Node000003" class="edge">
<title>Node15&#45;&gt;Node3</title>
<g id="a_edge19_Node000015_Node000003"><a xlink:title=" ">
<path fill="none" stroke="#63b8ff" d="M618.78,-110C588.27,-98.99 547.38,-78.96 566.12,-55.25 584.18,-32.41 664.19,-20.03 713.83,-14.42"/>
<polygon fill="#63b8ff" stroke="#63b8ff" points="714.06,-17.92 723.63,-13.36 713.31,-10.96 714.06,-17.92"/>
</a>
</g>
</g>
<!-- Node15&#45;&gt;Node9 -->
<g id="edge30_Node000015_Node000009" class="edge">
<title>Node15&#45;&gt;Node9</title>
<g id="a_edge30_Node000015_Node000009"><a xlink:title=" ">
<path fill="none" stroke="#63b8ff" d="M622.51,-110.09C596.92,-101.07 557.5,-87.17 529.7,-77.36"/>
<polygon fill="#63b8ff" stroke="#63b8ff" points="530.96,-74.1 520.37,-74.07 528.63,-80.7 530.96,-74.1"/>
</a>
</g>
</g>
<!-- Node16 -->
<g id="Node000016" class="node">
<title>Node16</title>
<g id="a_Node000016"><a xlink:title=" ">
<polygon fill="#e0e0e0" stroke="#999999" points="612.62,-74.5 575.62,-74.5 575.62,-55.25 612.62,-55.25 612.62,-74.5"/>
<text xml:space="preserve" text-anchor="middle" x="594.12" y="-61" font-family="Helvetica,sans-Serif" font-size="10.00">FS.h</text>
</a>
</g>
</g>
<!-- Node15&#45;&gt;Node16 -->
<g id="edge20_Node000015_Node000016" class="edge">
<title>Node15&#45;&gt;Node16</title>
<g id="a_edge20_Node000015_Node000016"><a xlink:title=" ">
<path fill="none" stroke="#63b8ff" d="M639.21,-110.33C631.67,-102.9 620.66,-92.04 611.4,-82.91"/>
<polygon fill="#63b8ff" stroke="#63b8ff" points="613.89,-80.45 604.31,-75.92 608.98,-85.44 613.89,-80.45"/>
</a>
</g>
</g>
<!-- Node17 -->
<g id="Node000017" class="node">
<title>Node17</title>
<g id="a_Node000017"><a xlink:title=" ">
<polygon fill="#e0e0e0" stroke="#999999" points="669.38,-74.5 630.88,-74.5 630.88,-55.25 669.38,-55.25 669.38,-74.5"/>
<text xml:space="preserve" text-anchor="middle" x="650.12" y="-61" font-family="Helvetica,sans-Serif" font-size="10.00">SD.h</text>
</a>
</g>
</g>
<!-- Node15&#45;&gt;Node17 -->
<g id="edge21_Node000015_Node000017" class="edge">
<title>Node15&#45;&gt;Node17</title>
<g id="a_edge21_Node000015_Node000017"><a xlink:title=" ">
<path fill="none" stroke="#63b8ff" d="M648.46,-110.33C648.7,-103.74 649.05,-94.46 649.37,-86.07"/>
<polygon fill="#63b8ff" stroke="#63b8ff" points="652.85,-86.5 649.73,-76.37 645.86,-86.23 652.85,-86.5"/>
</a>
</g>
</g>
<!-- Node18 -->
<g id="Node000018" class="node">
<title>Node18</title>
<g id="a_Node000018"><a xlink:href="_time_manager_8h.html" target="_top" xlink:title="Real&#45;time clock and time synchronization management.">
<polygon fill="white" stroke="#666666" points="227.5,-74.5 144.75,-74.5 144.75,-55.25 227.5,-55.25 227.5,-74.5"/>
<text xml:space="preserve" text-anchor="middle" x="186.12" y="-61" font-family="Helvetica,sans-Serif" font-size="10.00">TimeManager.h</text>
</a>
</g>
</g>
<!-- Node15&#45;&gt;Node18 -->
<g id="edge22_Node000015_Node000018" class="edge">
<title>Node15&#45;&gt;Node18</title>
<g id="a_edge22_Node000015_Node000018"><a xlink:title=" ">
<path fill="none" stroke="#63b8ff" d="M602.56,-113.87C516.55,-103.96 330.69,-82.54 239.2,-71.99"/>
<polygon fill="#63b8ff" stroke="#63b8ff" points="239.83,-68.54 229.5,-70.87 239.03,-75.5 239.83,-68.54"/>
</a>
</g>
</g>
<!-- Node18&#45;&gt;Node3 -->
<g id="edge23_Node000018_Node000003" class="edge">
<title>Node18&#45;&gt;Node3</title>
<g id="a_edge23_Node000018_Node000003"><a xlink:title=" ">
<path fill="none" stroke="#63b8ff" d="M227.83,-57.03C232.31,-56.38 236.81,-55.78 241.12,-55.25 416.57,-33.89 626.99,-18.91 713.72,-13.19"/>
<polygon fill="#63b8ff" stroke="#63b8ff" points="713.87,-16.69 723.62,-12.54 713.41,-9.7 713.87,-16.69"/>
</a>
</g>
</g>
<!-- Node19 -->
<g id="Node000019" class="node">
<title>Node19</title>
<g id="a_Node000019"><a xlink:title=" ">
<polygon fill="#e0e0e0" stroke="#999999" points="445.38,-19.25 400.88,-19.25 400.88,0 445.38,0 445.38,-19.25"/>
<text xml:space="preserve" text-anchor="middle" x="423.12" y="-5.75" font-family="Helvetica,sans-Serif" font-size="10.00">WiFi.h</text>
</a>
</g>
</g>
<!-- Node18&#45;&gt;Node19 -->
<g id="edge24_Node000018_Node000019" class="edge">
<title>Node18&#45;&gt;Node19</title>
<g id="a_edge24_Node000018_Node000019"><a xlink:title=" ">
<path fill="none" stroke="#63b8ff" d="M227.88,-55.41C267.05,-47.33 327.52,-34.51 389.3,-19.6"/>
<polygon fill="#63b8ff" stroke="#63b8ff" points="390.07,-23.01 398.96,-17.25 388.42,-16.21 390.07,-23.01"/>
</a>
</g>
</g>
<!-- Node20 -->
<g id="Node000020" class="node">
<title>Node20</title>
<g id="a_Node000020"><a xlink:title=" ">
<polygon fill="#e0e0e0" stroke="#999999" points="140.38,-19.25 95.88,-19.25 95.88,0 140.38,0 140.38,-19.25"/>
<text xml:space="preserve" text-anchor="middle" x="118.12" y="-5.75" font-family="Helvetica,sans-Serif" font-size="10.00">Wire.h</text>
</a>
</g>
</g>
<!-- Node18&#45;&gt;Node20 -->
<g id="edge25_Node000018_Node000020" class="edge">
<title>Node18&#45;&gt;Node20</title>
<g id="a_edge25_Node000018_Node000020"><a xlink:title=" ">
<path fill="none" stroke="#63b8ff" d="M174.59,-54.84C164.66,-47.07 150.11,-35.67 138.27,-26.4"/>
<polygon fill="#63b8ff" stroke="#63b8ff" points="140.71,-23.87 130.68,-20.46 136.4,-29.38 140.71,-23.87"/>
</a>
</g>
</g>
<!-- Node21 -->
<g id="Node000021" class="node">
<title>Node21</title>
<g id="a_Node000021"><a xlink:title=" ">
<polygon fill="#e0e0e0" stroke="#999999" points="213.62,-19.25 158.62,-19.25 158.62,0 213.62,0 213.62,-19.25"/>
<text xml:space="preserve" text-anchor="middle" x="186.12" y="-5.75" font-family="Helvetica,sans-Serif" font-size="10.00">RTClib.h</text>
</a>
</g>
</g>
<!-- Node18&#45;&gt;Node21 -->
<g id="edge26_Node000018_Node000021" class="edge">
<title>Node18&#45;&gt;Node21</title>
<g id="a_edge26_Node000018_Node000021"><a xlink:title=" ">
<path fill="none" stroke="#63b8ff" d="M186.12,-55.08C186.12,-48.57 186.12,-39.42 186.12,-31.12"/>
<polygon fill="#63b8ff" stroke="#63b8ff" points="189.63,-31.12 186.13,-21.12 182.63,-31.12 189.63,-31.12"/>
</a>
</g>
</g>
<!-- Node22 -->
<g id="Node000022" class="node">
<title>Node22</title>
<g id="a_Node000022"><a xlink:title=" ">
<polygon fill="#e0e0e0" stroke="#999999" points="302.12,-19.25 232.12,-19.25 232.12,0 302.12,0 302.12,-19.25"/>
<text xml:space="preserve" text-anchor="middle" x="267.12" y="-5.75" font-family="Helvetica,sans-Serif" font-size="10.00">NTPClient.h</text>
</a>
</g>
</g>
<!-- Node18&#45;&gt;Node22 -->
<g id="edge27_Node000018_Node000022" class="edge">
<title>Node18&#45;&gt;Node22</title>
<g id="a_edge27_Node000018_Node000022"><a xlink:title=" ">
<path fill="none" stroke="#63b8ff" d="M199.87,-54.84C211.85,-46.96 229.5,-35.36 243.71,-26.02"/>
<polygon fill="#63b8ff" stroke="#63b8ff" points="245.62,-28.95 252.05,-20.53 241.77,-23.1 245.62,-28.95"/>
</a>
</g>
</g>
<!-- Node23 -->
<g id="Node000023" class="node">
<title>Node23</title>
<g id="a_Node000023"><a xlink:title=" ">
<polygon fill="#e0e0e0" stroke="#999999" points="382.38,-19.25 319.88,-19.25 319.88,0 382.38,0 382.38,-19.25"/>
<text xml:space="preserve" text-anchor="middle" x="351.12" y="-5.75" font-family="Helvetica,sans-Serif" font-size="10.00">WiFiUdp.h</text>
</a>
</g>
</g>
<!-- Node18&#45;&gt;Node23 -->
<g id="edge28_Node000018_Node000023" class="edge">
<title>Node18&#45;&gt;Node23</title>
<g id="a_edge28_Node000018_Node000023"><a xlink:title=" ">
<path fill="none" stroke="#63b8ff" d="M214.12,-54.84C241.14,-46.12 282.28,-32.84 312.43,-23.11"/>
<polygon fill="#63b8ff" stroke="#63b8ff" points="313.12,-26.57 321.56,-20.17 310.97,-19.91 313.12,-26.57"/>
</a>
</g>
</g>
<!-- Node18&#45;&gt;Node24 -->
<g id="edge29_Node000018_Node000024" class="edge">
<title>Node18&#45;&gt;Node24</title>
<g id="a_edge29_Node000018_Node000024"><a xlink:title=" ">
<path fill="none" stroke="#63b8ff" d="M161.19,-54.84C137.43,-46.24 101.42,-33.19 74.66,-23.5"/>
<polygon fill="#63b8ff" stroke="#63b8ff" points="76.2,-20.33 65.61,-20.22 73.82,-26.91 76.2,-20.33"/>
</a>
</g>
</g>
<!-- Node25&#45;&gt;Node14 -->
<g id="edge33_Node000025_Node000014" class="edge">
<title>Node25&#45;&gt;Node14</title>
<g id="a_edge33_Node000025_Node000014"><a xlink:title=" ">
<path fill="none" stroke="#63b8ff" d="M729.2,-220.59C741.61,-212.64 759.92,-200.89 774.55,-191.5"/>
<polygon fill="#63b8ff" stroke="#63b8ff" points="776.18,-194.62 782.7,-186.27 772.4,-188.72 776.18,-194.62"/>
</a>
</g>
</g>
<!-- Node26 -->
<g id="Node000026" class="node">
<title>Node26</title>
<g id="a_Node000026"><a xlink:title=" ">
<polygon fill="#e0e0e0" stroke="#999999" points="651.25,-185 603,-185 603,-165.75 651.25,-165.75 651.25,-185"/>
<text xml:space="preserve" text-anchor="middle" x="627.12" y="-171.5" font-family="Helvetica,sans-Serif" font-size="10.00">stdint.h</text>
</a>
</g>
</g>
<!-- Node25&#45;&gt;Node26 -->
<g id="edge32_Node000025_Node000026" class="edge">
<title>Node25&#45;&gt;Node26</title>
<g id="a_edge32_Node000025_Node000026"><a xlink:title=" ">
<path fill="none" stroke="#63b8ff" d="M700.2,-220.59C686.92,-212.56 667.26,-200.66 651.67,-191.23"/>
<polygon fill="#63b8ff" stroke="#63b8ff" points="653.79,-188.42 643.42,-186.24 650.16,-194.41 653.79,-188.42"/>
</a>
</g>
</g>
<!-- Node27&#45;&gt;Node3 -->
<g id="edge35_Node000027_Node000003" class="edge">
<title>Node27&#45;&gt;Node3</title>
<g id="a_edge35_Node000027_Node000003"><a xlink:title=" ">
<path fill="none" stroke="#63b8ff" d="M274.67,-170.28C219.29,-163.84 142.07,-147.96 173.12,-110.5 207.93,-68.52 587.47,-27.22 713.62,-14.56"/>
<polygon fill="#63b8ff" stroke="#63b8ff" points="713.91,-18.05 723.51,-13.57 713.22,-11.08 713.91,-18.05"/>
</a>
</g>
</g>
<!-- Node27&#45;&gt;Node9 -->
<g id="edge41_Node000027_Node000009" class="edge">
<title>Node27&#45;&gt;Node9</title>
<g id="a_edge41_Node000027_Node000009"><a xlink:title=" ">
<path fill="none" stroke="#63b8ff" d="M362.46,-165.27C386.65,-158.19 418.02,-146.68 442.12,-129.75 459.67,-117.43 475.14,-98.31 485.17,-84.19"/>
<polygon fill="#63b8ff" stroke="#63b8ff" points="487.86,-86.45 490.61,-76.21 482.08,-82.5 487.86,-86.45"/>
</a>
</g>
</g>
<!-- Node27&#45;&gt;Node15 -->
<g id="edge42_Node000027_Node000015" class="edge">
<title>Node27&#45;&gt;Node15</title>
<g id="a_edge42_Node000027_Node000015"><a xlink:title=" ">
<path fill="none" stroke="#63b8ff" d="M375.59,-166.05C434.1,-156.41 530.29,-140.55 591.35,-130.48"/>
<polygon fill="#63b8ff" stroke="#63b8ff" points="591.91,-133.94 601.21,-128.86 590.77,-127.03 591.91,-133.94"/>
</a>
</g>
</g>
<!-- Node27&#45;&gt;Node20 -->
<g id="edge36_Node000027_Node000020" class="edge">
<title>Node27&#45;&gt;Node20</title>
<g id="a_edge36_Node000027_Node000020"><a xlink:title=" ">
<path fill="none" stroke="#63b8ff" d="M274.71,-168.41C226.45,-161.65 158.36,-149 140.12,-129.75 114.77,-102.98 113.82,-57.01 115.75,-30.69"/>
<polygon fill="#63b8ff" stroke="#63b8ff" points="119.2,-31.32 116.68,-21.02 112.24,-30.64 119.2,-31.32"/>
</a>
</g>
</g>
<!-- Node28 -->
<g id="Node000028" class="node">
<title>Node28</title>
<g id="a_Node000028"><a xlink:title=" ">
<polygon fill="#e0e0e0" stroke="#999999" points="216.5,-129.75 181.75,-129.75 181.75,-110.5 216.5,-110.5 216.5,-129.75"/>
<text xml:space="preserve" text-anchor="middle" x="199.12" y="-116.25" font-family="Helvetica,sans-Serif" font-size="10.00">map</text>
</a>
</g>
</g>
<!-- Node27&#45;&gt;Node28 -->
<g id="edge37_Node000027_Node000028" class="edge">
<title>Node27&#45;&gt;Node28</title>
<g id="a_edge37_Node000027_Node000028"><a xlink:title=" ">
<path fill="none" stroke="#63b8ff" d="M303.75,-165.34C282.75,-156.47 250.59,-142.87 227.47,-133.1"/>
<polygon fill="#63b8ff" stroke="#63b8ff" points="228.9,-129.91 218.33,-129.24 226.17,-136.36 228.9,-129.91"/>
</a>
</g>
</g>
<!-- Node29 -->
<g id="Node000029" class="node">
<title>Node29</title>
<g id="a_Node000029"><a xlink:title=" ">
<polygon fill="#e0e0e0" stroke="#999999" points="274.12,-129.75 234.12,-129.75 234.12,-110.5 274.12,-110.5 274.12,-129.75"/>
<text xml:space="preserve" text-anchor="middle" x="254.12" y="-116.25" font-family="Helvetica,sans-Serif" font-size="10.00">string</text>
</a>
</g>
</g>
<!-- Node27&#45;&gt;Node29 -->
<g id="edge38_Node000027_Node000029" class="edge">
<title>Node27&#45;&gt;Node29</title>
<g id="a_edge38_Node000027_Node000029"><a xlink:title=" ">
<path fill="none" stroke="#63b8ff" d="M313.08,-165.34C302.72,-157.57 287.52,-146.17 275.16,-136.9"/>
<polygon fill="#63b8ff" stroke="#63b8ff" points="277.3,-134.13 267.2,-130.93 273.1,-139.73 277.3,-134.13"/>
</a>
</g>
</g>
<!-- Node30 -->
<g id="Node000030" class="node">
<title>Node30</title>
<g id="a_Node000030"><a xlink:title=" ">
<polygon fill="#e0e0e0" stroke="#999999" points="357.88,-129.75 292.38,-129.75 292.38,-110.5 357.88,-110.5 357.88,-129.75"/>
<text xml:space="preserve" text-anchor="middle" x="325.12" y="-116.25" font-family="Helvetica,sans-Serif" font-size="10.00">PCF8575.h</text>
</a>
</g>
</g>
<!-- Node27&#45;&gt;Node30 -->
<g id="edge39_Node000027_Node000030" class="edge">
<title>Node27&#45;&gt;Node30</title>
<g id="a_edge39_Node000027_Node000030"><a xlink:title=" ">
<path fill="none" stroke="#63b8ff" d="M325.12,-165.58C325.12,-159.07 325.12,-149.92 325.12,-141.62"/>
<polygon fill="#63b8ff" stroke="#63b8ff" points="328.63,-141.62 325.13,-131.62 321.63,-141.62 328.63,-141.62"/>
</a>
</g>
</g>
<!-- Node31 -->
<g id="Node000031" class="node">
<title>Node31</title>
<g id="a_Node000031"><a xlink:title=" ">
<polygon fill="#e0e0e0" stroke="#999999" points="432.75,-129.75 375.5,-129.75 375.5,-110.5 432.75,-110.5 432.75,-129.75"/>
<text xml:space="preserve" text-anchor="middle" x="404.12" y="-116.25" font-family="Helvetica,sans-Serif" font-size="10.00">U8g2lib.h</text>
</a>
</g>
</g>
<!-- Node27&#45;&gt;Node31 -->
<g id="edge40_Node000027_Node000031" class="edge">
<title>Node27&#45;&gt;Node31</title>
<g id="a_edge40_Node000027_Node000031"><a xlink:title=" ">
<path fill="none" stroke="#63b8ff" d="M338.53,-165.34C350.22,-157.46 367.43,-145.86 381.29,-136.52"/>
<polygon fill="#63b8ff" stroke="#63b8ff" points="383.07,-139.54 389.4,-131.05 379.15,-133.74 383.07,-139.54"/>
</a>
</g>
</g>
<!-- Node32&#45;&gt;Node3 -->
<g id="edge44_Node000032_Node000003" class="edge">
<title>Node32&#45;&gt;Node3</title>
<g id="a_edge44_Node000032_Node000003"><a xlink:title=" ">
<path fill="none" stroke="#63b8ff" d="M819.56,-220.62C833.91,-213.32 851.66,-201.52 860.12,-185 864.03,-177.39 863.33,-173.68 860.12,-165.75 839.04,-113.5 800.17,-123.37 772.12,-74.5 764.3,-60.87 759.71,-43.63 757.12,-30.5"/>
<polygon fill="#63b8ff" stroke="#63b8ff" points="760.61,-30.17 755.47,-20.91 753.71,-31.36 760.61,-30.17"/>
</a>
</g>
</g>
<!-- Node32&#45;&gt;Node9 -->
<g id="edge45_Node000032_Node000009" class="edge">
<title>Node32&#45;&gt;Node9</title>
<g id="a_edge45_Node000032_Node000009"><a xlink:title=" ">
<path fill="none" stroke="#63b8ff" d="M777.41,-220.54C740.05,-203.92 659.19,-166.9 594.12,-129.75 567.56,-114.58 538.41,-94.95 519.07,-81.48"/>
<polygon fill="#63b8ff" stroke="#63b8ff" points="521.1,-78.63 510.9,-75.75 517.08,-84.36 521.1,-78.63"/>
</a>
</g>
</g>
<!-- Node32&#45;&gt;Node14 -->
<g id="edge46_Node000032_Node000014" class="edge">
<title>Node32&#45;&gt;Node14</title>
<g id="a_edge46_Node000032_Node000014"><a xlink:title=" ">
<path fill="none" stroke="#63b8ff" d="M798.12,-220.83C798.12,-214.32 798.12,-205.17 798.12,-196.87"/>
<polygon fill="#63b8ff" stroke="#63b8ff" points="801.63,-196.87 798.13,-186.87 794.63,-196.87 801.63,-196.87"/>
</a>
</g>
</g>
<!-- Node32&#45;&gt;Node15 -->
<g id="edge47_Node000032_Node000015" class="edge">
<title>Node32&#45;&gt;Node15</title>
<g id="a_edge47_Node000032_Node000015"><a xlink:title=" ">
<path fill="none" stroke="#63b8ff" d="M785.76,-220.75C773.24,-211.75 753.32,-197.43 736.12,-185 713.51,-168.65 687.67,-149.89 669.87,-136.95"/>
<polygon fill="#63b8ff" stroke="#63b8ff" points="672.02,-134.18 661.87,-131.13 667.9,-139.84 672.02,-134.18"/>
</a>
</g>
</g>
<!-- Node34&#45;&gt;Node3 -->
<g id="edge53_Node000034_Node000003" class="edge">
<title>Node34&#45;&gt;Node3</title>
<g id="a_edge53_Node000034_Node000003"><a xlink:title=" ">
<path fill="none" stroke="#63b8ff" d="M968.81,-331.01C1027.95,-293.31 1240.95,-147.23 1146.12,-55.25 1121.2,-31.07 889.7,-17.19 794.61,-12.47"/>
<polygon fill="#63b8ff" stroke="#63b8ff" points="794.85,-8.98 784.7,-11.99 794.51,-15.97 794.85,-8.98"/>
</a>
</g>
</g>
<!-- Node34&#45;&gt;Node8 -->
<g id="edge55_Node000034_Node000008" class="edge">
<title>Node34&#45;&gt;Node8</title>
<g id="a_edge55_Node000034_Node000008"><a xlink:title=" ">
<path fill="none" stroke="#63b8ff" d="M936.65,-331.09C920.82,-322.91 897.22,-310.71 878.82,-301.19"/>
<polygon fill="#63b8ff" stroke="#63b8ff" points="880.52,-298.13 870.03,-296.65 877.3,-304.35 880.52,-298.13"/>
</a>
</g>
</g>
<!-- Node35 -->
<g id="Node000035" class="node">
<title>Node35</title>
<g id="a_Node000035"><a xlink:title=" ">
<polygon fill="#e0e0e0" stroke="#999999" points="1007.25,-295.5 929,-295.5 929,-276.25 1007.25,-276.25 1007.25,-295.5"/>
<text xml:space="preserve" text-anchor="middle" x="968.12" y="-282" font-family="Helvetica,sans-Serif" font-size="10.00">CSV_Parser.h</text>
</a>
</g>
</g>
<!-- Node34&#45;&gt;Node35 -->
<g id="edge54_Node000034_Node000035" class="edge">
<title>Node34&#45;&gt;Node35</title>
<g id="a_edge54_Node000034_Node000035"><a xlink:title=" ">
<path fill="none" stroke="#63b8ff" d="M956.44,-331.33C958.19,-324.67 960.67,-315.24 962.89,-306.78"/>
<polygon fill="#63b8ff" stroke="#63b8ff" points="966.22,-307.88 965.38,-297.32 959.45,-306.1 966.22,-307.88"/>
</a>
</g>
</g>
<!-- Node36&#45;&gt;Node3 -->
<g id="edge57_Node000036_Node000003" class="edge">
<title>Node36&#45;&gt;Node3</title>
<g id="a_edge57_Node000036_Node000003"><a xlink:title=" ">
<path fill="none" stroke="#63b8ff" d="M1142.83,-331.1C1153.67,-322.85 1169.06,-309.8 1179.12,-295.5 1211.44,-249.59 1221.12,-232.51 1221.12,-176.38 1221.12,-176.38 1221.12,-176.38 1221.12,-119.12 1221.12,-81.95 1199.95,-72.69 1167.12,-55.25 1103.2,-21.29 885.59,-13.15 794.62,-11.22"/>
<polygon fill="#63b8ff" stroke="#63b8ff" points="794.73,-7.72 784.67,-11.02 794.6,-14.72 794.73,-7.72"/>
</a>
</g>
</g>
<!-- Node36&#45;&gt;Node4 -->
<g id="edge58_Node000036_Node000004" class="edge">
<title>Node36&#45;&gt;Node4</title>
<g id="a_edge58_Node000036_Node000004"><a xlink:title=" ">
<path fill="none" stroke="#63b8ff" d="M1130.12,-331.33C1130.12,-324.82 1130.12,-315.67 1130.12,-307.37"/>
<polygon fill="#63b8ff" stroke="#63b8ff" points="1133.63,-307.37 1130.13,-297.37 1126.63,-307.37 1133.63,-307.37"/>
</a>
</g>
</g>
</g>
</svg>
