<?xml version="1.0" encoding="UTF-8" standalone="no"?>
<!DOCTYPE svg PUBLIC "-//W3C//DTD SVG 1.1//EN"
 "http://www.w3.org/Graphics/SVG/1.1/DTD/svg11.dtd">
<!-- Generated by graphviz version 13.1.0 (20250701.0955)
 -->
<!-- Title: include/ConfigManager.h Pages: 1 -->
<svg width="1493pt" height="414pt"
 viewBox="0.00 0.00 1493.00 414.00" xmlns="http://www.w3.org/2000/svg" xmlns:xlink="http://www.w3.org/1999/xlink">
<g id="graph0" class="graph" transform="scale(1 1) rotate(0) translate(4 410)">
<title>include/ConfigManager.h</title>
<!-- Node1 -->
<g id="Node000001" class="node">
<title>Node1</title>
<g id="a_Node000001"><a xlink:title="Configuration management system for temperature monitoring device.">
<polygon fill="#999999" stroke="#666666" points="1091.75,-406 968.5,-406 968.5,-386.75 1091.75,-386.75 1091.75,-406"/>
<text xml:space="preserve" text-anchor="middle" x="1030.12" y="-392.5" font-family="Helvetica,sans-Serif" font-size="10.00">include/ConfigManager.h</text>
</a>
</g>
</g>
<!-- Node2 -->
<g id="Node000002" class="node">
<title>Node2</title>
<g id="a_Node000002"><a xlink:title=" ">
<polygon fill="#e0e0e0" stroke="#999999" points="797.75,-19.25 740.5,-19.25 740.5,0 797.75,0 797.75,-19.25"/>
<text xml:space="preserve" text-anchor="middle" x="769.12" y="-5.75" font-family="Helvetica,sans-Serif" font-size="10.00">Arduino.h</text>
</a>
</g>
</g>
<!-- Node1&#45;&gt;Node2 -->
<g id="edge1_Node000001_Node000002" class="edge">
<title>Node1&#45;&gt;Node2</title>
<g id="a_edge1_Node000001_Node000002"><a xlink:title=" ">
<path fill="none" stroke="#63b8ff" d="M968.32,-394.2C769.01,-389.61 156.12,-368.82 156.12,-286.88 156.12,-286.88 156.12,-286.88 156.12,-174.38 156.12,-144.76 153.14,-130.35 175.12,-110.5 257.19,-36.41 608.96,-16.57 728.89,-11.91"/>
<polygon fill="#63b8ff" stroke="#63b8ff" points="728.71,-15.42 738.57,-11.55 728.44,-8.43 728.71,-15.42"/>
</a>
</g>
</g>
<!-- Node3 -->
<g id="Node000003" class="node">
<title>Node3</title>
<g id="a_Node000003"><a xlink:title=" ">
<polygon fill="#e0e0e0" stroke="#999999" points="1382.38,-295.5 1301.88,-295.5 1301.88,-276.25 1382.38,-276.25 1382.38,-295.5"/>
<text xml:space="preserve" text-anchor="middle" x="1342.12" y="-282" font-family="Helvetica,sans-Serif" font-size="10.00">ConfigAssist.h</text>
</a>
</g>
</g>
<!-- Node1&#45;&gt;Node3 -->
<g id="edge2_Node000001_Node000003" class="edge">
<title>Node1&#45;&gt;Node3</title>
<g id="a_edge2_Node000001_Node000003"><a xlink:title=" ">
<path fill="none" stroke="#63b8ff" d="M1061.74,-386.29C1089.2,-378.05 1129.84,-365.05 1164.12,-350.75 1181.6,-343.46 1184.61,-338.68 1202.12,-331.5 1233.35,-318.71 1269.69,-307.22 1297.51,-299.11"/>
<polygon fill="#63b8ff" stroke="#63b8ff" points="1298.4,-302.5 1307.04,-296.37 1296.46,-295.77 1298.4,-302.5"/>
</a>
</g>
</g>
<!-- Node4 -->
<g id="Node000004" class="node">
<title>Node4</title>
<g id="a_Node000004"><a xlink:title=" ">
<polygon fill="#e0e0e0" stroke="#999999" points="1319.25,-350.75 1211,-350.75 1211,-331.5 1319.25,-331.5 1319.25,-350.75"/>
<text xml:space="preserve" text-anchor="middle" x="1265.12" y="-337.25" font-family="Helvetica,sans-Serif" font-size="10.00">ConfigAssistHelper.h</text>
</a>
</g>
</g>
<!-- Node1&#45;&gt;Node4 -->
<g id="edge3_Node000001_Node000004" class="edge">
<title>Node1&#45;&gt;Node4</title>
<g id="a_edge3_Node000001_Node000004"><a xlink:title=" ">
<path fill="none" stroke="#63b8ff" d="M1070.26,-386.28C1109.97,-377.28 1170.9,-363.48 1214.05,-353.7"/>
<polygon fill="#63b8ff" stroke="#63b8ff" points="1214.7,-357.14 1223.68,-351.52 1213.16,-350.31 1214.7,-357.14"/>
</a>
</g>
</g>
<!-- Node5 -->
<g id="Node000005" class="node">
<title>Node5</title>
<g id="a_Node000005"><a xlink:title=" ">
<polygon fill="#e0e0e0" stroke="#999999" points="1408.88,-350.75 1337.38,-350.75 1337.38,-331.5 1408.88,-331.5 1408.88,-350.75"/>
<text xml:space="preserve" text-anchor="middle" x="1373.12" y="-337.25" font-family="Helvetica,sans-Serif" font-size="10.00">WebServer.h</text>
</a>
</g>
</g>
<!-- Node1&#45;&gt;Node5 -->
<g id="edge4_Node000001_Node000005" class="edge">
<title>Node1&#45;&gt;Node5</title>
<g id="a_edge4_Node000001_Node000005"><a xlink:title=" ">
<path fill="none" stroke="#63b8ff" d="M1092.17,-386.83C1150.05,-378.7 1239.1,-365.75 1326.13,-351.03"/>
<polygon fill="#63b8ff" stroke="#63b8ff" points="1326.52,-354.51 1335.8,-349.38 1325.35,-347.61 1326.52,-354.51"/>
</a>
</g>
</g>
<!-- Node6 -->
<g id="Node000006" class="node">
<title>Node6</title>
<g id="a_Node000006"><a xlink:title=" ">
<polygon fill="#e0e0e0" stroke="#999999" points="1485.12,-350.75 1427.12,-350.75 1427.12,-331.5 1485.12,-331.5 1485.12,-350.75"/>
<text xml:space="preserve" text-anchor="middle" x="1456.12" y="-337.25" font-family="Helvetica,sans-Serif" font-size="10.00">LittleFS.h</text>
</a>
</g>
</g>
<!-- Node1&#45;&gt;Node6 -->
<g id="edge5_Node000001_Node000006" class="edge">
<title>Node1&#45;&gt;Node6</title>
<g id="a_edge5_Node000001_Node000006"><a xlink:title=" ">
<path fill="none" stroke="#63b8ff" d="M1092.24,-390.33C1166.78,-383.8 1295.72,-371.04 1415.54,-351.02"/>
<polygon fill="#63b8ff" stroke="#63b8ff" points="1415.96,-354.5 1425.24,-349.38 1414.79,-347.6 1415.96,-354.5"/>
</a>
</g>
</g>
<!-- Node7 -->
<g id="Node000007" class="node">
<title>Node7</title>
<g id="a_Node000007"><a xlink:href="_temperature_controller_8h.html" target="_top" xlink:title="Central temperature monitoring and control system.">
<polygon fill="white" stroke="#666666" points="915.88,-295.5 796.38,-295.5 796.38,-276.25 915.88,-276.25 915.88,-295.5"/>
<text xml:space="preserve" text-anchor="middle" x="856.12" y="-282" font-family="Helvetica,sans-Serif" font-size="10.00">TemperatureController.h</text>
</a>
</g>
</g>
<!-- Node1&#45;&gt;Node7 -->
<g id="edge6_Node000001_Node000007" class="edge">
<title>Node1&#45;&gt;Node7</title>
<g id="a_edge6_Node000001_Node000007"><a xlink:title=" ">
<path fill="none" stroke="#63b8ff" d="M980.88,-386.28C954.93,-379.67 923.7,-368.64 900.12,-350.75 884.55,-338.93 872.49,-319.97 864.97,-305.78"/>
<polygon fill="#63b8ff" stroke="#63b8ff" points="868.18,-304.39 860.6,-296.99 861.92,-307.5 868.18,-304.39"/>
</a>
</g>
</g>
<!-- Node8 -->
<g id="Node000008" class="node">
<title>Node8</title>
<g id="a_Node000008"><a xlink:title=" ">
<polygon fill="#e0e0e0" stroke="#999999" points="571.62,-74.5 528.62,-74.5 528.62,-55.25 571.62,-55.25 571.62,-74.5"/>
<text xml:space="preserve" text-anchor="middle" x="550.12" y="-61" font-family="Helvetica,sans-Serif" font-size="10.00">vector</text>
</a>
</g>
</g>
<!-- Node1&#45;&gt;Node8 -->
<g id="edge59_Node000001_Node000008" class="edge">
<title>Node1&#45;&gt;Node8</title>
<g id="a_edge59_Node000001_Node000008"><a xlink:title=" ">
<path fill="none" stroke="#63b8ff" d="M968.23,-396.07C858.24,-396.22 634.19,-391.34 569.12,-350.75 481.16,-295.87 524.26,-140.47 542.97,-85.47"/>
<polygon fill="#63b8ff" stroke="#63b8ff" points="546.21,-86.82 546.23,-76.23 539.6,-84.49 546.21,-86.82"/>
</a>
</g>
</g>
<!-- Node14 -->
<g id="Node000014" class="node">
<title>Node14</title>
<g id="a_Node000014"><a xlink:href="_logger_manager_8h.html" target="_top" xlink:title="Comprehensive data and event logging system for temperature monitoring.">
<polygon fill="white" stroke="#666666" points="733.25,-129.75 643,-129.75 643,-110.5 733.25,-110.5 733.25,-129.75"/>
<text xml:space="preserve" text-anchor="middle" x="688.12" y="-116.25" font-family="Helvetica,sans-Serif" font-size="10.00">LoggerManager.h</text>
</a>
</g>
</g>
<!-- Node1&#45;&gt;Node14 -->
<g id="edge58_Node000001_Node000014" class="edge">
<title>Node1&#45;&gt;Node14</title>
<g id="a_edge58_Node000001_Node000014"><a xlink:title=" ">
<path fill="none" stroke="#63b8ff" d="M968.44,-394.57C836.56,-391.16 539.12,-373.85 539.12,-286.88 539.12,-286.88 539.12,-286.88 539.12,-229.62 539.12,-178.15 597.96,-148.52 641.69,-133.61"/>
<polygon fill="#63b8ff" stroke="#63b8ff" points="642.56,-137.01 651,-130.6 640.4,-130.35 642.56,-137.01"/>
</a>
</g>
</g>
<!-- Node33 -->
<g id="Node000033" class="node">
<title>Node33</title>
<g id="a_Node000033"><a xlink:href="_c_s_v_config_manager_8h.html" target="_top" xlink:title="CSV configuration import/export manager for measurement points and alarms.">
<polygon fill="white" stroke="#666666" points="1019.38,-350.75 908.88,-350.75 908.88,-331.5 1019.38,-331.5 1019.38,-350.75"/>
<text xml:space="preserve" text-anchor="middle" x="964.12" y="-337.25" font-family="Helvetica,sans-Serif" font-size="10.00">CSVConfigManager.h</text>
</a>
</g>
</g>
<!-- Node1&#45;&gt;Node33 -->
<g id="edge51_Node000001_Node000033" class="edge">
<title>Node1&#45;&gt;Node33</title>
<g id="a_edge51_Node000001_Node000033"><a xlink:title=" ">
<path fill="none" stroke="#63b8ff" d="M1018.93,-386.34C1009.39,-378.65 995.45,-367.4 984.02,-358.18"/>
<polygon fill="#63b8ff" stroke="#63b8ff" points="986.31,-355.53 976.33,-351.98 981.92,-360.98 986.31,-355.53"/>
</a>
</g>
</g>
<!-- Node35 -->
<g id="Node000035" class="node">
<title>Node35</title>
<g id="a_Node000035"><a xlink:href="_settings_c_s_v_manager_8h.html" target="_top" xlink:title="CSV import/export manager for system settings.">
<polygon fill="white" stroke="#666666" points="1155.12,-350.75 1037.12,-350.75 1037.12,-331.5 1155.12,-331.5 1155.12,-350.75"/>
<text xml:space="preserve" text-anchor="middle" x="1096.12" y="-337.25" font-family="Helvetica,sans-Serif" font-size="10.00">SettingsCSVManager.h</text>
</a>
</g>
</g>
<!-- Node1&#45;&gt;Node35 -->
<g id="edge55_Node000001_Node000035" class="edge">
<title>Node1&#45;&gt;Node35</title>
<g id="a_edge55_Node000001_Node000035"><a xlink:title=" ">
<path fill="none" stroke="#63b8ff" d="M1041.32,-386.34C1050.86,-378.65 1064.8,-367.4 1076.23,-358.18"/>
<polygon fill="#63b8ff" stroke="#63b8ff" points="1078.33,-360.98 1083.92,-351.98 1073.94,-355.53 1078.33,-360.98"/>
</a>
</g>
</g>
<!-- Node7&#45;&gt;Node2 -->
<g id="edge7_Node000007_Node000002" class="edge">
<title>Node7&#45;&gt;Node2</title>
<g id="a_edge7_Node000007_Node000002"><a xlink:title=" ">
<path fill="none" stroke="#63b8ff" d="M853.23,-275.75C840.92,-236.95 792.77,-85.15 775.41,-30.43"/>
<polygon fill="#63b8ff" stroke="#63b8ff" points="778.76,-29.42 772.4,-20.95 772.09,-31.54 778.76,-29.42"/>
</a>
</g>
</g>
<!-- Node7&#45;&gt;Node8 -->
<g id="edge8_Node000007_Node000008" class="edge">
<title>Node7&#45;&gt;Node8</title>
<g id="a_edge8_Node000007_Node000008"><a xlink:title=" ">
<path fill="none" stroke="#63b8ff" d="M806.27,-275.78C777.31,-268.99 740.97,-257.79 712.12,-240.25 643.65,-198.61 585.95,-119.99 562,-84.31"/>
<polygon fill="#63b8ff" stroke="#63b8ff" points="564.93,-82.4 556.51,-75.97 559.08,-86.25 564.93,-82.4"/>
</a>
</g>
</g>
<!-- Node9 -->
<g id="Node000009" class="node">
<title>Node9</title>
<g id="a_Node000009"><a xlink:href="_sensor_8h.html" target="_top" xlink:title="Temperature sensor abstraction layer.">
<polygon fill="white" stroke="#666666" points="964.25,-129.75 910,-129.75 910,-110.5 964.25,-110.5 964.25,-129.75"/>
<text xml:space="preserve" text-anchor="middle" x="937.12" y="-116.25" font-family="Helvetica,sans-Serif" font-size="10.00">Sensor.h</text>
</a>
</g>
</g>
<!-- Node7&#45;&gt;Node9 -->
<g id="edge9_Node000007_Node000009" class="edge">
<title>Node7&#45;&gt;Node9</title>
<g id="a_edge9_Node000007_Node000009"><a xlink:title=" ">
<path fill="none" stroke="#63b8ff" d="M857.78,-275.97C861.88,-255.41 873.82,-203.51 896.12,-165.75 902.11,-155.61 910.7,-145.81 918.47,-137.99"/>
<polygon fill="#63b8ff" stroke="#63b8ff" points="920.82,-140.58 925.62,-131.14 915.98,-135.53 920.82,-140.58"/>
</a>
</g>
</g>
<!-- Node10 -->
<g id="Node000010" class="node">
<title>Node10</title>
<g id="a_Node000010"><a xlink:title=" ">
<polygon fill="#e0e0e0" stroke="#999999" points="878.38,-74.5 815.88,-74.5 815.88,-55.25 878.38,-55.25 878.38,-74.5"/>
<text xml:space="preserve" text-anchor="middle" x="847.12" y="-61" font-family="Helvetica,sans-Serif" font-size="10.00">OneWire.h</text>
</a>
</g>
</g>
<!-- Node7&#45;&gt;Node10 -->
<g id="edge47_Node000007_Node000010" class="edge">
<title>Node7&#45;&gt;Node10</title>
<g id="a_edge47_Node000007_Node000010"><a xlink:title=" ">
<path fill="none" stroke="#63b8ff" d="M855.76,-276.02C854.44,-243.76 849.84,-132.01 847.95,-85.96"/>
<polygon fill="#63b8ff" stroke="#63b8ff" points="851.45,-85.96 847.55,-76.11 844.46,-86.25 851.45,-85.96"/>
</a>
</g>
</g>
<!-- Node11 -->
<g id="Node000011" class="node">
<title>Node11</title>
<g id="a_Node000011"><a xlink:title=" ">
<polygon fill="#e0e0e0" stroke="#999999" points="1170.12,-74.5 1064.12,-74.5 1064.12,-55.25 1170.12,-55.25 1170.12,-74.5"/>
<text xml:space="preserve" text-anchor="middle" x="1117.12" y="-61" font-family="Helvetica,sans-Serif" font-size="10.00">DallasTemperature.h</text>
</a>
</g>
</g>
<!-- Node7&#45;&gt;Node11 -->
<g id="edge48_Node000007_Node000011" class="edge">
<title>Node7&#45;&gt;Node11</title>
<g id="a_edge48_Node000007_Node000011"><a xlink:title=" ">
<path fill="none" stroke="#63b8ff" d="M916.36,-275.92C987.72,-265.03 1097.82,-247.25 1104.12,-240.25 1142.85,-197.29 1131.13,-121.68 1122.61,-85.82"/>
<polygon fill="#63b8ff" stroke="#63b8ff" points="1126.06,-85.2 1120.19,-76.38 1119.28,-86.94 1126.06,-85.2"/>
</a>
</g>
</g>
<!-- Node13 -->
<g id="Node000013" class="node">
<title>Node13</title>
<g id="a_Node000013"><a xlink:href="_measurement_point_8h.html" target="_top" xlink:title="Measurement point abstraction for temperature monitoring system.">
<polygon fill="white" stroke="#666666" points="1011.12,-185 905.12,-185 905.12,-165.75 1011.12,-165.75 1011.12,-185"/>
<text xml:space="preserve" text-anchor="middle" x="958.12" y="-171.5" font-family="Helvetica,sans-Serif" font-size="10.00">MeasurementPoint.h</text>
</a>
</g>
</g>
<!-- Node7&#45;&gt;Node13 -->
<g id="edge14_Node000007_Node000013" class="edge">
<title>Node7&#45;&gt;Node13</title>
<g id="a_edge14_Node000007_Node000013"><a xlink:title=" ">
<path fill="none" stroke="#63b8ff" d="M913.6,-275.78C934.33,-269.42 955.67,-258.61 968.12,-240.25 976.98,-227.19 973.09,-209.2 967.79,-195.64"/>
<polygon fill="#63b8ff" stroke="#63b8ff" points="971.14,-194.58 963.86,-186.88 964.75,-197.44 971.14,-194.58"/>
</a>
</g>
</g>
<!-- Node23 -->
<g id="Node000023" class="node">
<title>Node23</title>
<g id="a_Node000023"><a xlink:title=" ">
<polygon fill="#e0e0e0" stroke="#999999" points="78.25,-19.25 0,-19.25 0,0 78.25,0 78.25,-19.25"/>
<text xml:space="preserve" text-anchor="middle" x="39.12" y="-5.75" font-family="Helvetica,sans-Serif" font-size="10.00">ArduinoJson.h</text>
</a>
</g>
</g>
<!-- Node7&#45;&gt;Node23 -->
<g id="edge49_Node000007_Node000023" class="edge">
<title>Node7&#45;&gt;Node23</title>
<g id="a_edge49_Node000007_Node000023"><a xlink:title=" ">
<path fill="none" stroke="#63b8ff" d="M796.33,-284.33C668.79,-280.61 364.5,-257.84 153.12,-129.75 109.04,-103.03 70.56,-54.95 51.62,-28.79"/>
<polygon fill="#63b8ff" stroke="#63b8ff" points="54.65,-27.01 46.02,-20.86 48.93,-31.05 54.65,-27.01"/>
</a>
</g>
</g>
<!-- Node24 -->
<g id="Node000024" class="node">
<title>Node24</title>
<g id="a_Node000024"><a xlink:href="_register_map_8h.html" target="_top" xlink:title="Modbus register mapping for temperature monitoring system.">
<polygon fill="white" stroke="#666666" points="1095,-240.25 1015.25,-240.25 1015.25,-221 1095,-221 1095,-240.25"/>
<text xml:space="preserve" text-anchor="middle" x="1055.12" y="-226.75" font-family="Helvetica,sans-Serif" font-size="10.00">RegisterMap.h</text>
</a>
</g>
</g>
<!-- Node7&#45;&gt;Node24 -->
<g id="edge30_Node000007_Node000024" class="edge">
<title>Node7&#45;&gt;Node24</title>
<g id="a_edge30_Node000007_Node000024"><a xlink:title=" ">
<path fill="none" stroke="#63b8ff" d="M889.88,-275.84C923.05,-266.97 973.84,-253.37 1010.36,-243.6"/>
<polygon fill="#63b8ff" stroke="#63b8ff" points="1010.98,-247.06 1019.74,-241.09 1009.17,-240.3 1010.98,-247.06"/>
</a>
</g>
</g>
<!-- Node26 -->
<g id="Node000026" class="node">
<title>Node26</title>
<g id="a_Node000026"><a xlink:href="_indicator_interface_8h.html" target="_top" xlink:title="Hardware interface for PCF8575 I/O expander and SH1106 OLED display.">
<polygon fill="white" stroke="#666666" points="461.12,-185 361.12,-185 361.12,-165.75 461.12,-165.75 461.12,-185"/>
<text xml:space="preserve" text-anchor="middle" x="411.12" y="-171.5" font-family="Helvetica,sans-Serif" font-size="10.00">IndicatorInterface.h</text>
</a>
</g>
</g>
<!-- Node7&#45;&gt;Node26 -->
<g id="edge33_Node000007_Node000026" class="edge">
<title>Node7&#45;&gt;Node26</title>
<g id="a_edge33_Node000007_Node000026"><a xlink:title=" ">
<path fill="none" stroke="#63b8ff" d="M796.07,-276.98C744.05,-269.52 667.01,-256.99 601.12,-240.25 545.25,-226.06 482.14,-203.49 444.54,-189.32"/>
<polygon fill="#63b8ff" stroke="#63b8ff" points="446.19,-186.21 435.6,-185.93 443.71,-192.75 446.19,-186.21"/>
</a>
</g>
</g>
<!-- Node31 -->
<g id="Node000031" class="node">
<title>Node31</title>
<g id="a_Node000031"><a xlink:href="_alarm_8h.html" target="_top" xlink:title="Alarm management system for temperature monitoring.">
<polygon fill="white" stroke="#666666" points="771,-240.25 721.25,-240.25 721.25,-221 771,-221 771,-240.25"/>
<text xml:space="preserve" text-anchor="middle" x="746.12" y="-226.75" font-family="Helvetica,sans-Serif" font-size="10.00">Alarm.h</text>
</a>
</g>
</g>
<!-- Node7&#45;&gt;Node31 -->
<g id="edge42_Node000007_Node000031" class="edge">
<title>Node7&#45;&gt;Node31</title>
<g id="a_edge42_Node000007_Node000031"><a xlink:title=" ">
<path fill="none" stroke="#63b8ff" d="M837.46,-275.84C820.4,-267.58 794.88,-255.23 775.15,-245.68"/>
<polygon fill="#63b8ff" stroke="#63b8ff" points="776.76,-242.57 766.24,-241.36 773.71,-248.87 776.76,-242.57"/>
</a>
</g>
</g>
<!-- Node32 -->
<g id="Node000032" class="node">
<title>Node32</title>
<g id="a_Node000032"><a xlink:title=" ">
<polygon fill="#e0e0e0" stroke="#999999" points="959,-240.25 903.25,-240.25 903.25,-221 959,-221 959,-240.25"/>
<text xml:space="preserve" text-anchor="middle" x="931.12" y="-226.75" font-family="Helvetica,sans-Serif" font-size="10.00">algorithm</text>
</a>
</g>
</g>
<!-- Node7&#45;&gt;Node32 -->
<g id="edge50_Node000007_Node000032" class="edge">
<title>Node7&#45;&gt;Node32</title>
<g id="a_edge50_Node000007_Node000032"><a xlink:title=" ">
<path fill="none" stroke="#63b8ff" d="M868.85,-275.84C879.84,-268.04 895.97,-256.59 909.06,-247.29"/>
<polygon fill="#63b8ff" stroke="#63b8ff" points="910.98,-250.22 917.11,-241.58 906.93,-244.51 910.98,-250.22"/>
</a>
</g>
</g>
<!-- Node9&#45;&gt;Node2 -->
<g id="edge10_Node000009_Node000002" class="edge">
<title>Node9&#45;&gt;Node2</title>
<g id="a_edge10_Node000009_Node000002"><a xlink:title=" ">
<path fill="none" stroke="#63b8ff" d="M932.18,-110.01C924.33,-96.31 907.77,-70.44 887.12,-55.25 863.82,-38.11 833.15,-26.78 808.92,-19.82"/>
<polygon fill="#63b8ff" stroke="#63b8ff" points="809.98,-16.48 799.41,-17.24 808.14,-23.24 809.98,-16.48"/>
</a>
</g>
</g>
<!-- Node9&#45;&gt;Node10 -->
<g id="edge11_Node000009_Node000010" class="edge">
<title>Node9&#45;&gt;Node10</title>
<g id="a_edge11_Node000009_Node000010"><a xlink:title=" ">
<path fill="none" stroke="#63b8ff" d="M921.86,-110.09C908.28,-102.06 888.17,-90.16 872.23,-80.73"/>
<polygon fill="#63b8ff" stroke="#63b8ff" points="874.16,-77.8 863.77,-75.72 870.59,-83.83 874.16,-77.8"/>
</a>
</g>
</g>
<!-- Node9&#45;&gt;Node11 -->
<g id="edge12_Node000009_Node000011" class="edge">
<title>Node9&#45;&gt;Node11</title>
<g id="a_edge12_Node000009_Node000011"><a xlink:title=" ">
<path fill="none" stroke="#63b8ff" d="M964.46,-111.04C993.98,-102.31 1041.33,-88.3 1075.48,-78.19"/>
<polygon fill="#63b8ff" stroke="#63b8ff" points="1076.46,-81.55 1085.06,-75.36 1074.48,-74.84 1076.46,-81.55"/>
</a>
</g>
</g>
<!-- Node12 -->
<g id="Node000012" class="node">
<title>Node12</title>
<g id="a_Node000012"><a xlink:title=" ">
<polygon fill="#e0e0e0" stroke="#999999" points="1045.75,-74.5 934.5,-74.5 934.5,-55.25 1045.75,-55.25 1045.75,-74.5"/>
<text xml:space="preserve" text-anchor="middle" x="990.12" y="-61" font-family="Helvetica,sans-Serif" font-size="10.00">Adafruit_MAX31865.h</text>
</a>
</g>
</g>
<!-- Node9&#45;&gt;Node12 -->
<g id="edge13_Node000009_Node000012" class="edge">
<title>Node9&#45;&gt;Node12</title>
<g id="a_edge13_Node000009_Node000012"><a xlink:title=" ">
<path fill="none" stroke="#63b8ff" d="M945.88,-110.33C953.27,-102.9 964.09,-92.04 973.17,-82.91"/>
<polygon fill="#63b8ff" stroke="#63b8ff" points="975.54,-85.49 980.12,-75.93 970.58,-80.55 975.54,-85.49"/>
</a>
</g>
</g>
<!-- Node13&#45;&gt;Node2 -->
<g id="edge15_Node000013_Node000002" class="edge">
<title>Node13&#45;&gt;Node2</title>
<g id="a_edge15_Node000013_Node000002"><a xlink:title=" ">
<path fill="none" stroke="#63b8ff" d="M1011.46,-165.94C1092.82,-150.95 1233.12,-115.44 1179.12,-55.25 1154.69,-28.01 907.8,-15.82 809.35,-12.01"/>
<polygon fill="#63b8ff" stroke="#63b8ff" points="809.74,-8.52 799.61,-11.65 809.47,-15.52 809.74,-8.52"/>
</a>
</g>
</g>
<!-- Node13&#45;&gt;Node9 -->
<g id="edge16_Node000013_Node000009" class="edge">
<title>Node13&#45;&gt;Node9</title>
<g id="a_edge16_Node000013_Node000009"><a xlink:title=" ">
<path fill="none" stroke="#63b8ff" d="M954.66,-165.58C952,-158.84 948.23,-149.27 944.86,-140.74"/>
<polygon fill="#63b8ff" stroke="#63b8ff" points="948.15,-139.54 941.22,-131.52 941.64,-142.1 948.15,-139.54"/>
</a>
</g>
</g>
<!-- Node13&#45;&gt;Node14 -->
<g id="edge17_Node000013_Node000014" class="edge">
<title>Node13&#45;&gt;Node14</title>
<g id="a_edge17_Node000013_Node000014"><a xlink:title=" ">
<path fill="none" stroke="#63b8ff" d="M912.02,-165.28C865.77,-156.16 794.46,-142.1 744.78,-132.3"/>
<polygon fill="#63b8ff" stroke="#63b8ff" points="745.57,-128.89 735.08,-130.39 744.21,-135.75 745.57,-128.89"/>
</a>
</g>
</g>
<!-- Node14&#45;&gt;Node2 -->
<g id="edge18_Node000014_Node000002" class="edge">
<title>Node14&#45;&gt;Node2</title>
<g id="a_edge18_Node000014_Node000002"><a xlink:title=" ">
<path fill="none" stroke="#63b8ff" d="M682.49,-110.13C675.09,-97.05 664.24,-72.47 675.12,-55.25 687.04,-36.4 709.33,-25.35 729.21,-18.97"/>
<polygon fill="#63b8ff" stroke="#63b8ff" points="730.13,-22.34 738.78,-16.22 728.2,-15.61 730.13,-22.34"/>
</a>
</g>
</g>
<!-- Node14&#45;&gt;Node8 -->
<g id="edge29_Node000014_Node000008" class="edge">
<title>Node14&#45;&gt;Node8</title>
<g id="a_edge29_Node000014_Node000008"><a xlink:title=" ">
<path fill="none" stroke="#63b8ff" d="M664.72,-110.09C642.07,-101.36 607.58,-88.04 582.35,-78.31"/>
<polygon fill="#63b8ff" stroke="#63b8ff" points="583.83,-75.13 573.24,-74.79 581.31,-81.66 583.83,-75.13"/>
</a>
</g>
</g>
<!-- Node15 -->
<g id="Node000015" class="node">
<title>Node15</title>
<g id="a_Node000015"><a xlink:title=" ">
<polygon fill="#e0e0e0" stroke="#999999" points="721.62,-74.5 684.62,-74.5 684.62,-55.25 721.62,-55.25 721.62,-74.5"/>
<text xml:space="preserve" text-anchor="middle" x="703.12" y="-61" font-family="Helvetica,sans-Serif" font-size="10.00">FS.h</text>
</a>
</g>
</g>
<!-- Node14&#45;&gt;Node15 -->
<g id="edge19_Node000014_Node000015" class="edge">
<title>Node14&#45;&gt;Node15</title>
<g id="a_edge19_Node000014_Node000015"><a xlink:title=" ">
<path fill="none" stroke="#63b8ff" d="M690.6,-110.33C692.48,-103.67 695.13,-94.24 697.52,-85.78"/>
<polygon fill="#63b8ff" stroke="#63b8ff" points="700.84,-86.89 700.18,-76.32 694.1,-84.99 700.84,-86.89"/>
</a>
</g>
</g>
<!-- Node16 -->
<g id="Node000016" class="node">
<title>Node16</title>
<g id="a_Node000016"><a xlink:title=" ">
<polygon fill="#e0e0e0" stroke="#999999" points="628.38,-74.5 589.88,-74.5 589.88,-55.25 628.38,-55.25 628.38,-74.5"/>
<text xml:space="preserve" text-anchor="middle" x="609.12" y="-61" font-family="Helvetica,sans-Serif" font-size="10.00">SD.h</text>
</a>
</g>
</g>
<!-- Node14&#45;&gt;Node16 -->
<g id="edge20_Node000014_Node000016" class="edge">
<title>Node14&#45;&gt;Node16</title>
<g id="a_edge20_Node000014_Node000016"><a xlink:title=" ">
<path fill="none" stroke="#63b8ff" d="M674.72,-110.09C663.03,-102.21 645.82,-90.61 631.96,-81.27"/>
<polygon fill="#63b8ff" stroke="#63b8ff" points="634.1,-78.49 623.85,-75.8 630.18,-84.29 634.1,-78.49"/>
</a>
</g>
</g>
<!-- Node17 -->
<g id="Node000017" class="node">
<title>Node17</title>
<g id="a_Node000017"><a xlink:href="_time_manager_8h.html" target="_top" xlink:title="Real&#45;time clock and time synchronization management.">
<polygon fill="white" stroke="#666666" points="234.5,-74.5 151.75,-74.5 151.75,-55.25 234.5,-55.25 234.5,-74.5"/>
<text xml:space="preserve" text-anchor="middle" x="193.12" y="-61" font-family="Helvetica,sans-Serif" font-size="10.00">TimeManager.h</text>
</a>
</g>
</g>
<!-- Node14&#45;&gt;Node17 -->
<g id="edge21_Node000014_Node000017" class="edge">
<title>Node14&#45;&gt;Node17</title>
<g id="a_edge21_Node000014_Node000017"><a xlink:title=" ">
<path fill="none" stroke="#63b8ff" d="M642.88,-114.26C551.26,-104.4 344.19,-82.13 246.3,-71.59"/>
<polygon fill="#63b8ff" stroke="#63b8ff" points="246.74,-68.12 236.42,-70.53 245.99,-75.08 246.74,-68.12"/>
</a>
</g>
</g>
<!-- Node17&#45;&gt;Node2 -->
<g id="edge22_Node000017_Node000002" class="edge">
<title>Node17&#45;&gt;Node2</title>
<g id="a_edge22_Node000017_Node000002"><a xlink:title=" ">
<path fill="none" stroke="#63b8ff" d="M234.82,-57.02C239.31,-56.38 243.81,-55.77 248.12,-55.25 426.91,-33.6 641.47,-18.71 729,-13.1"/>
<polygon fill="#63b8ff" stroke="#63b8ff" points="728.98,-16.61 738.74,-12.48 728.53,-9.62 728.98,-16.61"/>
</a>
</g>
</g>
<!-- Node18 -->
<g id="Node000018" class="node">
<title>Node18</title>
<g id="a_Node000018"><a xlink:title=" ">
<polygon fill="#e0e0e0" stroke="#999999" points="371.38,-19.25 326.88,-19.25 326.88,0 371.38,0 371.38,-19.25"/>
<text xml:space="preserve" text-anchor="middle" x="349.12" y="-5.75" font-family="Helvetica,sans-Serif" font-size="10.00">WiFi.h</text>
</a>
</g>
</g>
<!-- Node17&#45;&gt;Node18 -->
<g id="edge23_Node000017_Node000018" class="edge">
<title>Node17&#45;&gt;Node18</title>
<g id="a_edge23_Node000017_Node000018"><a xlink:title=" ">
<path fill="none" stroke="#63b8ff" d="M219.59,-54.84C246.14,-45.78 287.12,-31.79 315.85,-21.98"/>
<polygon fill="#63b8ff" stroke="#63b8ff" points="316.82,-25.35 325.16,-18.81 314.56,-18.72 316.82,-25.35"/>
</a>
</g>
</g>
<!-- Node19 -->
<g id="Node000019" class="node">
<title>Node19</title>
<g id="a_Node000019"><a xlink:title=" ">
<polygon fill="#e0e0e0" stroke="#999999" points="140.38,-19.25 95.88,-19.25 95.88,0 140.38,0 140.38,-19.25"/>
<text xml:space="preserve" text-anchor="middle" x="118.12" y="-5.75" font-family="Helvetica,sans-Serif" font-size="10.00">Wire.h</text>
</a>
</g>
</g>
<!-- Node17&#45;&gt;Node19 -->
<g id="edge24_Node000017_Node000019" class="edge">
<title>Node17&#45;&gt;Node19</title>
<g id="a_edge24_Node000017_Node000019"><a xlink:title=" ">
<path fill="none" stroke="#63b8ff" d="M180.4,-54.84C169.41,-47.04 153.28,-35.59 140.19,-26.29"/>
<polygon fill="#63b8ff" stroke="#63b8ff" points="142.32,-23.51 132.14,-20.58 138.27,-29.22 142.32,-23.51"/>
</a>
</g>
</g>
<!-- Node20 -->
<g id="Node000020" class="node">
<title>Node20</title>
<g id="a_Node000020"><a xlink:title=" ">
<polygon fill="#e0e0e0" stroke="#999999" points="444.62,-19.25 389.62,-19.25 389.62,0 444.62,0 444.62,-19.25"/>
<text xml:space="preserve" text-anchor="middle" x="417.12" y="-5.75" font-family="Helvetica,sans-Serif" font-size="10.00">RTClib.h</text>
</a>
</g>
</g>
<!-- Node17&#45;&gt;Node20 -->
<g id="edge25_Node000017_Node000020" class="edge">
<title>Node17&#45;&gt;Node20</title>
<g id="a_edge25_Node000017_Node000020"><a xlink:title=" ">
<path fill="none" stroke="#63b8ff" d="M231.38,-54.78C272.38,-45.03 337.13,-29.64 378.33,-19.85"/>
<polygon fill="#63b8ff" stroke="#63b8ff" points="378.9,-23.31 387.82,-17.59 377.28,-16.5 378.9,-23.31"/>
</a>
</g>
</g>
<!-- Node21 -->
<g id="Node000021" class="node">
<title>Node21</title>
<g id="a_Node000021"><a xlink:title=" ">
<polygon fill="#e0e0e0" stroke="#999999" points="228.12,-19.25 158.12,-19.25 158.12,0 228.12,0 228.12,-19.25"/>
<text xml:space="preserve" text-anchor="middle" x="193.12" y="-5.75" font-family="Helvetica,sans-Serif" font-size="10.00">NTPClient.h</text>
</a>
</g>
</g>
<!-- Node17&#45;&gt;Node21 -->
<g id="edge26_Node000017_Node000021" class="edge">
<title>Node17&#45;&gt;Node21</title>
<g id="a_edge26_Node000017_Node000021"><a xlink:title=" ">
<path fill="none" stroke="#63b8ff" d="M193.12,-55.08C193.12,-48.57 193.12,-39.42 193.12,-31.12"/>
<polygon fill="#63b8ff" stroke="#63b8ff" points="196.63,-31.12 193.13,-21.12 189.63,-31.12 196.63,-31.12"/>
</a>
</g>
</g>
<!-- Node22 -->
<g id="Node000022" class="node">
<title>Node22</title>
<g id="a_Node000022"><a xlink:title=" ">
<polygon fill="#e0e0e0" stroke="#999999" points="308.38,-19.25 245.88,-19.25 245.88,0 308.38,0 308.38,-19.25"/>
<text xml:space="preserve" text-anchor="middle" x="277.12" y="-5.75" font-family="Helvetica,sans-Serif" font-size="10.00">WiFiUdp.h</text>
</a>
</g>
</g>
<!-- Node17&#45;&gt;Node22 -->
<g id="edge27_Node000017_Node000022" class="edge">
<title>Node17&#45;&gt;Node22</title>
<g id="a_edge27_Node000017_Node000022"><a xlink:title=" ">
<path fill="none" stroke="#63b8ff" d="M207.37,-54.84C219.92,-46.89 238.46,-35.14 253.27,-25.75"/>
<polygon fill="#63b8ff" stroke="#63b8ff" points="254.96,-28.82 261.53,-20.51 251.21,-22.91 254.96,-28.82"/>
</a>
</g>
</g>
<!-- Node17&#45;&gt;Node23 -->
<g id="edge28_Node000017_Node000023" class="edge">
<title>Node17&#45;&gt;Node23</title>
<g id="a_edge28_Node000017_Node000023"><a xlink:title=" ">
<path fill="none" stroke="#63b8ff" d="M167,-54.84C142,-46.2 104.05,-33.07 75.98,-23.37"/>
<polygon fill="#63b8ff" stroke="#63b8ff" points="77.4,-20.16 66.81,-20.2 75.11,-26.77 77.4,-20.16"/>
</a>
</g>
</g>
<!-- Node24&#45;&gt;Node13 -->
<g id="edge32_Node000024_Node000013" class="edge">
<title>Node24&#45;&gt;Node13</title>
<g id="a_edge32_Node000024_Node000013"><a xlink:title=" ">
<path fill="none" stroke="#63b8ff" d="M1038.67,-220.59C1023.9,-212.48 1001.95,-200.43 984.69,-190.96"/>
<polygon fill="#63b8ff" stroke="#63b8ff" points="986.44,-187.93 975.99,-186.18 983.07,-194.06 986.44,-187.93"/>
</a>
</g>
</g>
<!-- Node25 -->
<g id="Node000025" class="node">
<title>Node25</title>
<g id="a_Node000025"><a xlink:title=" ">
<polygon fill="#e0e0e0" stroke="#999999" points="1079.25,-185 1031,-185 1031,-165.75 1079.25,-165.75 1079.25,-185"/>
<text xml:space="preserve" text-anchor="middle" x="1055.12" y="-171.5" font-family="Helvetica,sans-Serif" font-size="10.00">stdint.h</text>
</a>
</g>
</g>
<!-- Node24&#45;&gt;Node25 -->
<g id="edge31_Node000024_Node000025" class="edge">
<title>Node24&#45;&gt;Node25</title>
<g id="a_edge31_Node000024_Node000025"><a xlink:title=" ">
<path fill="none" stroke="#63b8ff" d="M1055.12,-220.83C1055.12,-214.32 1055.12,-205.17 1055.12,-196.87"/>
<polygon fill="#63b8ff" stroke="#63b8ff" points="1058.63,-196.87 1055.13,-186.87 1051.63,-196.87 1058.63,-196.87"/>
</a>
</g>
</g>
<!-- Node26&#45;&gt;Node2 -->
<g id="edge34_Node000026_Node000002" class="edge">
<title>Node26&#45;&gt;Node2</title>
<g id="a_edge34_Node000026_Node000002"><a xlink:title=" ">
<path fill="none" stroke="#63b8ff" d="M411.77,-165.64C413.13,-152.46 417.35,-127.24 430.12,-110.5 458.38,-73.5 475.65,-71.92 519.12,-55.25 589.82,-28.15 678.17,-17.32 728.67,-13.14"/>
<polygon fill="#63b8ff" stroke="#63b8ff" points="728.85,-16.63 738.55,-12.37 728.31,-9.65 728.85,-16.63"/>
</a>
</g>
</g>
<!-- Node26&#45;&gt;Node8 -->
<g id="edge40_Node000026_Node000008" class="edge">
<title>Node26&#45;&gt;Node8</title>
<g id="a_edge40_Node000026_Node000008"><a xlink:title=" ">
<path fill="none" stroke="#63b8ff" d="M427.51,-165.29C442.29,-156.82 464.38,-143.45 482.12,-129.75 501.05,-115.13 520.77,-96.13 534.07,-82.66"/>
<polygon fill="#63b8ff" stroke="#63b8ff" points="536.28,-85.4 540.75,-75.79 531.27,-80.52 536.28,-85.4"/>
</a>
</g>
</g>
<!-- Node26&#45;&gt;Node14 -->
<g id="edge41_Node000026_Node000014" class="edge">
<title>Node26&#45;&gt;Node14</title>
<g id="a_edge41_Node000026_Node000014"><a xlink:title=" ">
<path fill="none" stroke="#63b8ff" d="M458.43,-165.28C506.41,-156.06 580.68,-141.78 631.7,-131.97"/>
<polygon fill="#63b8ff" stroke="#63b8ff" points="632.21,-135.44 641.37,-130.11 630.89,-128.56 632.21,-135.44"/>
</a>
</g>
</g>
<!-- Node26&#45;&gt;Node19 -->
<g id="edge35_Node000026_Node000019" class="edge">
<title>Node26&#45;&gt;Node19</title>
<g id="a_edge35_Node000026_Node000019"><a xlink:title=" ">
<path fill="none" stroke="#63b8ff" d="M360.76,-169.78C300.58,-163.46 204.34,-150.45 175.12,-129.75 142.02,-106.3 127.44,-58.34 121.6,-30.97"/>
<polygon fill="#63b8ff" stroke="#63b8ff" points="125.05,-30.34 119.73,-21.18 118.17,-31.66 125.05,-30.34"/>
</a>
</g>
</g>
<!-- Node27 -->
<g id="Node000027" class="node">
<title>Node27</title>
<g id="a_Node000027"><a xlink:title=" ">
<polygon fill="#e0e0e0" stroke="#999999" points="473.5,-129.75 438.75,-129.75 438.75,-110.5 473.5,-110.5 473.5,-129.75"/>
<text xml:space="preserve" text-anchor="middle" x="456.12" y="-116.25" font-family="Helvetica,sans-Serif" font-size="10.00">map</text>
</a>
</g>
</g>
<!-- Node26&#45;&gt;Node27 -->
<g id="edge36_Node000026_Node000027" class="edge">
<title>Node26&#45;&gt;Node27</title>
<g id="a_edge36_Node000026_Node000027"><a xlink:title=" ">
<path fill="none" stroke="#63b8ff" d="M418.56,-165.58C424.71,-158.3 433.64,-147.73 441.25,-138.73"/>
<polygon fill="#63b8ff" stroke="#63b8ff" points="443.77,-141.16 447.56,-131.27 438.43,-136.64 443.77,-141.16"/>
</a>
</g>
</g>
<!-- Node28 -->
<g id="Node000028" class="node">
<title>Node28</title>
<g id="a_Node000028"><a xlink:title=" ">
<polygon fill="#e0e0e0" stroke="#999999" points="224.12,-129.75 184.12,-129.75 184.12,-110.5 224.12,-110.5 224.12,-129.75"/>
<text xml:space="preserve" text-anchor="middle" x="204.12" y="-116.25" font-family="Helvetica,sans-Serif" font-size="10.00">string</text>
</a>
</g>
</g>
<!-- Node26&#45;&gt;Node28 -->
<g id="edge37_Node000026_Node000028" class="edge">
<title>Node26&#45;&gt;Node28</title>
<g id="a_edge37_Node000026_Node000028"><a xlink:title=" ">
<path fill="none" stroke="#63b8ff" d="M372.8,-165.28C339,-157.14 288.15,-144.63 235.32,-130.26"/>
<polygon fill="#63b8ff" stroke="#63b8ff" points="236.4,-126.93 225.83,-127.67 234.56,-133.68 236.4,-126.93"/>
</a>
</g>
</g>
<!-- Node29 -->
<g id="Node000029" class="node">
<title>Node29</title>
<g id="a_Node000029"><a xlink:title=" ">
<polygon fill="#e0e0e0" stroke="#999999" points="307.88,-129.75 242.38,-129.75 242.38,-110.5 307.88,-110.5 307.88,-129.75"/>
<text xml:space="preserve" text-anchor="middle" x="275.12" y="-116.25" font-family="Helvetica,sans-Serif" font-size="10.00">PCF8575.h</text>
</a>
</g>
</g>
<!-- Node26&#45;&gt;Node29 -->
<g id="edge38_Node000026_Node000029" class="edge">
<title>Node26&#45;&gt;Node29</title>
<g id="a_edge38_Node000026_Node000029"><a xlink:title=" ">
<path fill="none" stroke="#63b8ff" d="M388.05,-165.34C366.37,-156.85 333.64,-144.04 309,-134.39"/>
<polygon fill="#63b8ff" stroke="#63b8ff" points="310.31,-131.14 299.72,-130.75 307.75,-137.66 310.31,-131.14"/>
</a>
</g>
</g>
<!-- Node30 -->
<g id="Node000030" class="node">
<title>Node30</title>
<g id="a_Node000030"><a xlink:title=" ">
<polygon fill="#e0e0e0" stroke="#999999" points="382.75,-129.75 325.5,-129.75 325.5,-110.5 382.75,-110.5 382.75,-129.75"/>
<text xml:space="preserve" text-anchor="middle" x="354.12" y="-116.25" font-family="Helvetica,sans-Serif" font-size="10.00">U8g2lib.h</text>
</a>
</g>
</g>
<!-- Node26&#45;&gt;Node30 -->
<g id="edge39_Node000026_Node000030" class="edge">
<title>Node26&#45;&gt;Node30</title>
<g id="a_edge39_Node000026_Node000030"><a xlink:title=" ">
<path fill="none" stroke="#63b8ff" d="M401.46,-165.34C393.38,-157.8 381.66,-146.85 371.9,-137.73"/>
<polygon fill="#63b8ff" stroke="#63b8ff" points="374.45,-135.33 364.76,-131.06 369.68,-140.44 374.45,-135.33"/>
</a>
</g>
</g>
<!-- Node31&#45;&gt;Node2 -->
<g id="edge43_Node000031_Node000002" class="edge">
<title>Node31&#45;&gt;Node2</title>
<g id="a_edge43_Node000031_Node000002"><a xlink:title=" ">
<path fill="none" stroke="#63b8ff" d="M747.06,-220.77C750.44,-188.51 762.18,-76.76 767.02,-30.71"/>
<polygon fill="#63b8ff" stroke="#63b8ff" points="770.49,-31.17 768.05,-20.86 763.52,-30.44 770.49,-31.17"/>
</a>
</g>
</g>
<!-- Node31&#45;&gt;Node8 -->
<g id="edge44_Node000031_Node000008" class="edge">
<title>Node31&#45;&gt;Node8</title>
<g id="a_edge44_Node000031_Node000008"><a xlink:title=" ">
<path fill="none" stroke="#63b8ff" d="M735.31,-220.59C703.51,-194.02 610.02,-115.91 569.37,-81.95"/>
<polygon fill="#63b8ff" stroke="#63b8ff" points="571.75,-79.38 561.83,-75.65 567.26,-84.75 571.75,-79.38"/>
</a>
</g>
</g>
<!-- Node31&#45;&gt;Node13 -->
<g id="edge45_Node000031_Node000013" class="edge">
<title>Node31&#45;&gt;Node13</title>
<g id="a_edge45_Node000031_Node000013"><a xlink:title=" ">
<path fill="none" stroke="#63b8ff" d="M771.28,-223.31C805.61,-214.68 867.8,-199.06 910.96,-188.22"/>
<polygon fill="#63b8ff" stroke="#63b8ff" points="911.72,-191.64 920.57,-185.81 910.02,-184.85 911.72,-191.64"/>
</a>
</g>
</g>
<!-- Node31&#45;&gt;Node14 -->
<g id="edge46_Node000031_Node000014" class="edge">
<title>Node31&#45;&gt;Node14</title>
<g id="a_edge46_Node000031_Node000014"><a xlink:title=" ">
<path fill="none" stroke="#63b8ff" d="M741.38,-220.75C731.99,-203.18 710.86,-163.66 698.22,-140.02"/>
<polygon fill="#63b8ff" stroke="#63b8ff" points="701.45,-138.63 693.65,-131.46 695.28,-141.93 701.45,-138.63"/>
</a>
</g>
</g>
<!-- Node33&#45;&gt;Node2 -->
<g id="edge52_Node000033_Node000002" class="edge">
<title>Node33&#45;&gt;Node2</title>
<g id="a_edge52_Node000033_Node000002"><a xlink:title=" ">
<path fill="none" stroke="#63b8ff" d="M1013.07,-331.02C1091.38,-315.05 1236.12,-279.1 1236.12,-231.62 1236.12,-231.62 1236.12,-231.62 1236.12,-119.12 1236.12,-86.09 1225.96,-73.04 1198.12,-55.25 1134.3,-14.44 903.35,-10.26 809.35,-10.31"/>
<polygon fill="#63b8ff" stroke="#63b8ff" points="809.57,-6.81 799.58,-10.33 809.58,-13.81 809.57,-6.81"/>
</a>
</g>
</g>
<!-- Node33&#45;&gt;Node7 -->
<g id="edge54_Node000033_Node000007" class="edge">
<title>Node33&#45;&gt;Node7</title>
<g id="a_edge54_Node000033_Node000007"><a xlink:title=" ">
<path fill="none" stroke="#63b8ff" d="M945.8,-331.09C929.05,-322.83 903.99,-310.48 884.62,-300.93"/>
<polygon fill="#63b8ff" stroke="#63b8ff" points="886.41,-297.9 875.89,-296.62 883.31,-304.18 886.41,-297.9"/>
</a>
</g>
</g>
<!-- Node34 -->
<g id="Node000034" class="node">
<title>Node34</title>
<g id="a_Node000034"><a xlink:title=" ">
<polygon fill="#e0e0e0" stroke="#999999" points="1012.25,-295.5 934,-295.5 934,-276.25 1012.25,-276.25 1012.25,-295.5"/>
<text xml:space="preserve" text-anchor="middle" x="973.12" y="-282" font-family="Helvetica,sans-Serif" font-size="10.00">CSV_Parser.h</text>
</a>
</g>
</g>
<!-- Node33&#45;&gt;Node34 -->
<g id="edge53_Node000033_Node000034" class="edge">
<title>Node33&#45;&gt;Node34</title>
<g id="a_edge53_Node000033_Node000034"><a xlink:title=" ">
<path fill="none" stroke="#63b8ff" d="M965.61,-331.33C966.72,-324.74 968.29,-315.46 969.71,-307.07"/>
<polygon fill="#63b8ff" stroke="#63b8ff" points="973.14,-307.8 971.35,-297.35 966.24,-306.63 973.14,-307.8"/>
</a>
</g>
</g>
<!-- Node35&#45;&gt;Node2 -->
<g id="edge56_Node000035_Node000002" class="edge">
<title>Node35&#45;&gt;Node2</title>
<g id="a_edge56_Node000035_Node000002"><a xlink:title=" ">
<path fill="none" stroke="#63b8ff" d="M1149.05,-331.04C1201.52,-318.64 1274.12,-290.8 1274.12,-231.62 1274.12,-231.62 1274.12,-231.62 1274.12,-119.12 1274.12,-83.07 1255.73,-72.6 1224.12,-55.25 1153.25,-16.33 906.97,-11.09 809.39,-10.58"/>
<polygon fill="#63b8ff" stroke="#63b8ff" points="809.51,-7.08 799.49,-10.54 809.48,-14.08 809.51,-7.08"/>
</a>
</g>
</g>
<!-- Node35&#45;&gt;Node3 -->
<g id="edge57_Node000035_Node000003" class="edge">
<title>Node35&#45;&gt;Node3</title>
<g id="a_edge57_Node000035_Node000003"><a xlink:title=" ">
<path fill="none" stroke="#63b8ff" d="M1138.13,-331.03C1180.26,-321.91 1245.2,-307.85 1290.46,-298.06"/>
<polygon fill="#63b8ff" stroke="#63b8ff" points="1291,-301.52 1300.04,-295.99 1289.52,-294.68 1291,-301.52"/>
</a>
</g>
</g>
</g>
</svg>
