<?xml version="1.0" encoding="UTF-8" standalone="no"?>
<!DOCTYPE svg PUBLIC "-//W3C//DTD SVG 1.1//EN"
 "http://www.w3.org/Graphics/SVG/1.1/DTD/svg11.dtd">
<!-- Generated by graphviz version 13.1.0 (20250701.0955)
 -->
<!-- Title: include/ConfigManager.h Pages: 1 -->
<svg width="1550pt" height="414pt"
 viewBox="0.00 0.00 1550.00 414.00" xmlns="http://www.w3.org/2000/svg" xmlns:xlink="http://www.w3.org/1999/xlink">
<g id="graph0" class="graph" transform="scale(1 1) rotate(0) translate(4 410)">
<title>include/ConfigManager.h</title>
<!-- Node1 -->
<g id="Node000001" class="node">
<title>Node1</title>
<g id="a_Node000001"><a xlink:title="Configuration management system for temperature monitoring device.">
<polygon fill="#999999" stroke="#666666" points="1214.75,-406 1091.5,-406 1091.5,-386.75 1214.75,-386.75 1214.75,-406"/>
<text xml:space="preserve" text-anchor="middle" x="1153.12" y="-392.5" font-family="Helvetica,sans-Serif" font-size="10.00">include/ConfigManager.h</text>
</a>
</g>
</g>
<!-- Node2 -->
<g id="Node000002" class="node">
<title>Node2</title>
<g id="a_Node000002"><a xlink:title=" ">
<polygon fill="#e0e0e0" stroke="#999999" points="747.75,-19.25 690.5,-19.25 690.5,0 747.75,0 747.75,-19.25"/>
<text xml:space="preserve" text-anchor="middle" x="719.12" y="-5.75" font-family="Helvetica,sans-Serif" font-size="10.00">Arduino.h</text>
</a>
</g>
</g>
<!-- Node1&#45;&gt;Node2 -->
<g id="edge1_Node000001_Node000002" class="edge">
<title>Node1&#45;&gt;Node2</title>
<g id="a_edge1_Node000001_Node000002"><a xlink:title=" ">
<path fill="none" stroke="#63b8ff" d="M1091.19,-395.66C862.69,-395.89 80.12,-389.21 80.12,-286.88 80.12,-286.88 80.12,-286.88 80.12,-174.38 80.12,-136.33 103.87,-129 137.12,-110.5 231.32,-58.1 563.45,-24.4 679.08,-14.03"/>
<polygon fill="#63b8ff" stroke="#63b8ff" points="679.05,-17.55 688.7,-13.18 678.43,-10.57 679.05,-17.55"/>
</a>
</g>
</g>
<!-- Node3 -->
<g id="Node000003" class="node">
<title>Node3</title>
<g id="a_Node000003"><a xlink:title=" ">
<polygon fill="#e0e0e0" stroke="#999999" points="1332.38,-295.5 1251.88,-295.5 1251.88,-276.25 1332.38,-276.25 1332.38,-295.5"/>
<text xml:space="preserve" text-anchor="middle" x="1292.12" y="-282" font-family="Helvetica,sans-Serif" font-size="10.00">ConfigAssist.h</text>
</a>
</g>
</g>
<!-- Node1&#45;&gt;Node3 -->
<g id="edge2_Node000001_Node000003" class="edge">
<title>Node1&#45;&gt;Node3</title>
<g id="a_edge2_Node000001_Node000003"><a xlink:title=" ">
<path fill="none" stroke="#63b8ff" d="M1168.43,-386.26C1182.52,-377.65 1203.79,-364.11 1221.12,-350.75 1240.52,-335.8 1261.16,-316.85 1275.16,-303.48"/>
<polygon fill="#63b8ff" stroke="#63b8ff" points="1277.47,-306.12 1282.23,-296.65 1272.6,-301.08 1277.47,-306.12"/>
</a>
</g>
</g>
<!-- Node4 -->
<g id="Node000004" class="node">
<title>Node4</title>
<g id="a_Node000004"><a xlink:title=" ">
<polygon fill="#e0e0e0" stroke="#999999" points="1376.25,-350.75 1268,-350.75 1268,-331.5 1376.25,-331.5 1376.25,-350.75"/>
<text xml:space="preserve" text-anchor="middle" x="1322.12" y="-337.25" font-family="Helvetica,sans-Serif" font-size="10.00">ConfigAssistHelper.h</text>
</a>
</g>
</g>
<!-- Node1&#45;&gt;Node4 -->
<g id="edge3_Node000001_Node000004" class="edge">
<title>Node1&#45;&gt;Node4</title>
<g id="a_edge3_Node000001_Node000004"><a xlink:title=" ">
<path fill="none" stroke="#63b8ff" d="M1181.79,-386.34C1209.47,-377.62 1251.61,-364.34 1282.5,-354.61"/>
<polygon fill="#63b8ff" stroke="#63b8ff" points="1283.39,-358 1291.87,-351.66 1281.28,-351.32 1283.39,-358"/>
</a>
</g>
</g>
<!-- Node5 -->
<g id="Node000005" class="node">
<title>Node5</title>
<g id="a_Node000005"><a xlink:title=" ">
<polygon fill="#e0e0e0" stroke="#999999" points="1465.88,-350.75 1394.38,-350.75 1394.38,-331.5 1465.88,-331.5 1465.88,-350.75"/>
<text xml:space="preserve" text-anchor="middle" x="1430.12" y="-337.25" font-family="Helvetica,sans-Serif" font-size="10.00">WebServer.h</text>
</a>
</g>
</g>
<!-- Node1&#45;&gt;Node5 -->
<g id="edge4_Node000001_Node000005" class="edge">
<title>Node1&#45;&gt;Node5</title>
<g id="a_edge4_Node000001_Node000005"><a xlink:title=" ">
<path fill="none" stroke="#63b8ff" d="M1200.43,-386.28C1251.43,-376.48 1332.12,-360.97 1383.03,-351.18"/>
<polygon fill="#63b8ff" stroke="#63b8ff" points="1383.4,-354.67 1392.56,-349.35 1382.08,-347.8 1383.4,-354.67"/>
</a>
</g>
</g>
<!-- Node6 -->
<g id="Node000006" class="node">
<title>Node6</title>
<g id="a_Node000006"><a xlink:title=" ">
<polygon fill="#e0e0e0" stroke="#999999" points="1542.12,-350.75 1484.12,-350.75 1484.12,-331.5 1542.12,-331.5 1542.12,-350.75"/>
<text xml:space="preserve" text-anchor="middle" x="1513.12" y="-337.25" font-family="Helvetica,sans-Serif" font-size="10.00">LittleFS.h</text>
</a>
</g>
</g>
<!-- Node1&#45;&gt;Node6 -->
<g id="edge5_Node000001_Node000006" class="edge">
<title>Node1&#45;&gt;Node6</title>
<g id="a_edge5_Node000001_Node000006"><a xlink:title=" ">
<path fill="none" stroke="#63b8ff" d="M1215.1,-388.38C1277.65,-380.96 1377.24,-368.18 1472.43,-351.11"/>
<polygon fill="#63b8ff" stroke="#63b8ff" points="1473.01,-354.56 1482.23,-349.33 1471.76,-347.67 1473.01,-354.56"/>
</a>
</g>
</g>
<!-- Node7 -->
<g id="Node000007" class="node">
<title>Node7</title>
<g id="a_Node000007"><a xlink:href="_temperature_controller_8h.html" target="_top" xlink:title="Central temperature monitoring and control system.">
<polygon fill="white" stroke="#666666" points="915.88,-295.5 796.38,-295.5 796.38,-276.25 915.88,-276.25 915.88,-295.5"/>
<text xml:space="preserve" text-anchor="middle" x="856.12" y="-282" font-family="Helvetica,sans-Serif" font-size="10.00">TemperatureController.h</text>
</a>
</g>
</g>
<!-- Node1&#45;&gt;Node7 -->
<g id="edge6_Node000001_Node000007" class="edge">
<title>Node1&#45;&gt;Node7</title>
<g id="a_edge6_Node000001_Node000007"><a xlink:title=" ">
<path fill="none" stroke="#63b8ff" d="M1091.43,-386.86C1051.99,-380.08 1000.31,-368.7 957.12,-350.75 927.27,-338.34 896.34,-317.37 876.7,-302.86"/>
<polygon fill="#63b8ff" stroke="#63b8ff" points="878.83,-300.08 868.74,-296.85 874.61,-305.67 878.83,-300.08"/>
</a>
</g>
</g>
<!-- Node14 -->
<g id="Node000014" class="node">
<title>Node14</title>
<g id="a_Node000014"><a xlink:href="_logger_manager_8h.html" target="_top" xlink:title="Comprehensive data and event logging system for temperature monitoring.">
<polygon fill="white" stroke="#666666" points="666.25,-129.75 576,-129.75 576,-110.5 666.25,-110.5 666.25,-129.75"/>
<text xml:space="preserve" text-anchor="middle" x="621.12" y="-116.25" font-family="Helvetica,sans-Serif" font-size="10.00">LoggerManager.h</text>
</a>
</g>
</g>
<!-- Node1&#45;&gt;Node14 -->
<g id="edge58_Node000001_Node000014" class="edge">
<title>Node1&#45;&gt;Node14</title>
<g id="a_edge58_Node000001_Node000014"><a xlink:title=" ">
<path fill="none" stroke="#63b8ff" d="M1091.22,-391.63C927.42,-380.92 495.12,-346.94 495.12,-286.88 495.12,-286.88 495.12,-286.88 495.12,-229.62 495.12,-200.01 494.32,-187.77 514.12,-165.75 527.68,-150.67 547.14,-140.55 565.75,-133.82"/>
<polygon fill="#63b8ff" stroke="#63b8ff" points="566.73,-137.18 575.12,-130.72 564.53,-130.54 566.73,-137.18"/>
</a>
</g>
</g>
<!-- Node33 -->
<g id="Node000033" class="node">
<title>Node33</title>
<g id="a_Node000033"><a xlink:href="_c_s_v_config_manager_8h.html" target="_top" xlink:title="CSV configuration import/export manager for measurement points and alarms.">
<polygon fill="white" stroke="#666666" points="1076.38,-350.75 965.88,-350.75 965.88,-331.5 1076.38,-331.5 1076.38,-350.75"/>
<text xml:space="preserve" text-anchor="middle" x="1021.12" y="-337.25" font-family="Helvetica,sans-Serif" font-size="10.00">CSVConfigManager.h</text>
</a>
</g>
</g>
<!-- Node1&#45;&gt;Node33 -->
<g id="edge51_Node000001_Node000033" class="edge">
<title>Node1&#45;&gt;Node33</title>
<g id="a_edge51_Node000001_Node000033"><a xlink:title=" ">
<path fill="none" stroke="#63b8ff" d="M1130.73,-386.34C1109.68,-377.85 1077.92,-365.04 1054,-355.39"/>
<polygon fill="#63b8ff" stroke="#63b8ff" points="1055.61,-352.26 1045.03,-351.77 1052.99,-358.76 1055.61,-352.26"/>
</a>
</g>
</g>
<!-- Node35 -->
<g id="Node000035" class="node">
<title>Node35</title>
<g id="a_Node000035"><a xlink:href="_settings_c_s_v_manager_8h.html" target="_top" xlink:title="CSV import/export manager for system settings.">
<polygon fill="white" stroke="#666666" points="1212.12,-350.75 1094.12,-350.75 1094.12,-331.5 1212.12,-331.5 1212.12,-350.75"/>
<text xml:space="preserve" text-anchor="middle" x="1153.12" y="-337.25" font-family="Helvetica,sans-Serif" font-size="10.00">SettingsCSVManager.h</text>
</a>
</g>
</g>
<!-- Node1&#45;&gt;Node35 -->
<g id="edge55_Node000001_Node000035" class="edge">
<title>Node1&#45;&gt;Node35</title>
<g id="a_edge55_Node000001_Node000035"><a xlink:title=" ">
<path fill="none" stroke="#63b8ff" d="M1153.12,-386.58C1153.12,-380.07 1153.12,-370.92 1153.12,-362.62"/>
<polygon fill="#63b8ff" stroke="#63b8ff" points="1156.63,-362.62 1153.13,-352.62 1149.63,-362.62 1156.63,-362.62"/>
</a>
</g>
</g>
<!-- Node7&#45;&gt;Node2 -->
<g id="edge7_Node000007_Node000002" class="edge">
<title>Node7&#45;&gt;Node2</title>
<g id="a_edge7_Node000007_Node000002"><a xlink:title=" ">
<path fill="none" stroke="#63b8ff" d="M912.43,-275.76C997.28,-260.41 1148.12,-226.13 1148.12,-176.38 1148.12,-176.38 1148.12,-176.38 1148.12,-119.12 1148.12,-89.51 1151.87,-74.22 1129.12,-55.25 1101.08,-31.87 857.4,-17.41 759.54,-12.51"/>
<polygon fill="#63b8ff" stroke="#63b8ff" points="759.76,-9.01 749.6,-12.02 759.41,-16 759.76,-9.01"/>
</a>
</g>
</g>
<!-- Node8 -->
<g id="Node000008" class="node">
<title>Node8</title>
<g id="a_Node000008"><a xlink:title=" ">
<polygon fill="#e0e0e0" stroke="#999999" points="522.62,-74.5 479.62,-74.5 479.62,-55.25 522.62,-55.25 522.62,-74.5"/>
<text xml:space="preserve" text-anchor="middle" x="501.12" y="-61" font-family="Helvetica,sans-Serif" font-size="10.00">vector</text>
</a>
</g>
</g>
<!-- Node7&#45;&gt;Node8 -->
<g id="edge8_Node000007_Node000008" class="edge">
<title>Node7&#45;&gt;Node8</title>
<g id="a_edge8_Node000007_Node000008"><a xlink:title=" ">
<path fill="none" stroke="#63b8ff" d="M796.1,-282.5C740.95,-278.55 657.88,-268.05 591.12,-240.25 552.24,-224.06 535.37,-221.37 514.12,-185 496.08,-154.1 496.41,-110.94 498.58,-85.95"/>
<polygon fill="#63b8ff" stroke="#63b8ff" points="502.04,-86.52 499.63,-76.2 495.08,-85.77 502.04,-86.52"/>
</a>
</g>
</g>
<!-- Node9 -->
<g id="Node000009" class="node">
<title>Node9</title>
<g id="a_Node000009"><a xlink:href="_sensor_8h.html" target="_top" xlink:title="Temperature sensor abstraction layer.">
<polygon fill="white" stroke="#666666" points="883.25,-129.75 829,-129.75 829,-110.5 883.25,-110.5 883.25,-129.75"/>
<text xml:space="preserve" text-anchor="middle" x="856.12" y="-116.25" font-family="Helvetica,sans-Serif" font-size="10.00">Sensor.h</text>
</a>
</g>
</g>
<!-- Node7&#45;&gt;Node9 -->
<g id="edge9_Node000007_Node000009" class="edge">
<title>Node7&#45;&gt;Node9</title>
<g id="a_edge9_Node000007_Node000009"><a xlink:title=" ">
<path fill="none" stroke="#63b8ff" d="M856.12,-276.07C856.12,-250.75 856.12,-177.25 856.12,-141.34"/>
<polygon fill="#63b8ff" stroke="#63b8ff" points="859.63,-141.49 856.13,-131.49 852.63,-141.49 859.63,-141.49"/>
</a>
</g>
</g>
<!-- Node10 -->
<g id="Node000010" class="node">
<title>Node10</title>
<g id="a_Node000010"><a xlink:title=" ">
<polygon fill="#e0e0e0" stroke="#999999" points="996.38,-74.5 933.88,-74.5 933.88,-55.25 996.38,-55.25 996.38,-74.5"/>
<text xml:space="preserve" text-anchor="middle" x="965.12" y="-61" font-family="Helvetica,sans-Serif" font-size="10.00">OneWire.h</text>
</a>
</g>
</g>
<!-- Node7&#45;&gt;Node10 -->
<g id="edge47_Node000007_Node000010" class="edge">
<title>Node7&#45;&gt;Node10</title>
<g id="a_edge47_Node000007_Node000010"><a xlink:title=" ">
<path fill="none" stroke="#63b8ff" d="M860.53,-276.02C876.73,-243.48 933.16,-130.09 955.71,-84.79"/>
<polygon fill="#63b8ff" stroke="#63b8ff" points="958.78,-86.47 960.11,-75.96 952.52,-83.35 958.78,-86.47"/>
</a>
</g>
</g>
<!-- Node11 -->
<g id="Node000011" class="node">
<title>Node11</title>
<g id="a_Node000011"><a xlink:title=" ">
<polygon fill="#e0e0e0" stroke="#999999" points="1120.12,-74.5 1014.12,-74.5 1014.12,-55.25 1120.12,-55.25 1120.12,-74.5"/>
<text xml:space="preserve" text-anchor="middle" x="1067.12" y="-61" font-family="Helvetica,sans-Serif" font-size="10.00">DallasTemperature.h</text>
</a>
</g>
</g>
<!-- Node7&#45;&gt;Node11 -->
<g id="edge48_Node000007_Node000011" class="edge">
<title>Node7&#45;&gt;Node11</title>
<g id="a_edge48_Node000007_Node000011"><a xlink:title=" ">
<path fill="none" stroke="#63b8ff" d="M916.16,-279.44C945.92,-273.87 980.46,-262.68 1004.12,-240.25 1048.45,-198.25 1061.68,-122.74 1065.56,-86.45"/>
<polygon fill="#63b8ff" stroke="#63b8ff" points="1069.04,-86.77 1066.46,-76.5 1062.07,-86.14 1069.04,-86.77"/>
</a>
</g>
</g>
<!-- Node13 -->
<g id="Node000013" class="node">
<title>Node13</title>
<g id="a_Node000013"><a xlink:href="_measurement_point_8h.html" target="_top" xlink:title="Measurement point abstraction for temperature monitoring system.">
<polygon fill="white" stroke="#666666" points="771.12,-185 665.12,-185 665.12,-165.75 771.12,-165.75 771.12,-185"/>
<text xml:space="preserve" text-anchor="middle" x="718.12" y="-171.5" font-family="Helvetica,sans-Serif" font-size="10.00">MeasurementPoint.h</text>
</a>
</g>
</g>
<!-- Node7&#45;&gt;Node13 -->
<g id="edge14_Node000007_Node000013" class="edge">
<title>Node7&#45;&gt;Node13</title>
<g id="a_edge14_Node000007_Node000013"><a xlink:title=" ">
<path fill="none" stroke="#63b8ff" d="M844.83,-276C821.58,-257.72 768.08,-215.65 738.58,-192.46"/>
<polygon fill="#63b8ff" stroke="#63b8ff" points="740.79,-189.74 730.76,-186.31 736.46,-195.24 740.79,-189.74"/>
</a>
</g>
</g>
<!-- Node23 -->
<g id="Node000023" class="node">
<title>Node23</title>
<g id="a_Node000023"><a xlink:title=" ">
<polygon fill="#e0e0e0" stroke="#999999" points="78.25,-19.25 0,-19.25 0,0 78.25,0 78.25,-19.25"/>
<text xml:space="preserve" text-anchor="middle" x="39.12" y="-5.75" font-family="Helvetica,sans-Serif" font-size="10.00">ArduinoJson.h</text>
</a>
</g>
</g>
<!-- Node7&#45;&gt;Node23 -->
<g id="edge49_Node000007_Node000023" class="edge">
<title>Node7&#45;&gt;Node23</title>
<g id="a_edge49_Node000007_Node000023"><a xlink:title=" ">
<path fill="none" stroke="#63b8ff" d="M796.12,-283.2C607.68,-277.17 40.12,-252.66 40.12,-176.38 40.12,-176.38 40.12,-176.38 40.12,-119.12 40.12,-88.4 39.72,-52.79 39.42,-30.99"/>
<polygon fill="#63b8ff" stroke="#63b8ff" points="42.93,-31.09 39.29,-21.14 35.93,-31.19 42.93,-31.09"/>
</a>
</g>
</g>
<!-- Node24 -->
<g id="Node000024" class="node">
<title>Node24</title>
<g id="a_Node000024"><a xlink:href="_register_map_8h.html" target="_top" xlink:title="Modbus register mapping for temperature monitoring system.">
<polygon fill="white" stroke="#666666" points="680,-240.25 600.25,-240.25 600.25,-221 680,-221 680,-240.25"/>
<text xml:space="preserve" text-anchor="middle" x="640.12" y="-226.75" font-family="Helvetica,sans-Serif" font-size="10.00">RegisterMap.h</text>
</a>
</g>
</g>
<!-- Node7&#45;&gt;Node24 -->
<g id="edge30_Node000007_Node000024" class="edge">
<title>Node7&#45;&gt;Node24</title>
<g id="a_edge30_Node000007_Node000024"><a xlink:title=" ">
<path fill="none" stroke="#63b8ff" d="M819.48,-275.84C783.25,-266.91 727.64,-253.2 687.94,-243.41"/>
<polygon fill="#63b8ff" stroke="#63b8ff" points="688.96,-240.06 678.42,-241.06 687.29,-246.86 688.96,-240.06"/>
</a>
</g>
</g>
<!-- Node26 -->
<g id="Node000026" class="node">
<title>Node26</title>
<g id="a_Node000026"><a xlink:href="_indicator_interface_8h.html" target="_top" xlink:title="Hardware interface for PCF8575 I/O expander and SH1106 OLED display.">
<polygon fill="white" stroke="#666666" points="423.12,-185 323.12,-185 323.12,-165.75 423.12,-165.75 423.12,-185"/>
<text xml:space="preserve" text-anchor="middle" x="373.12" y="-171.5" font-family="Helvetica,sans-Serif" font-size="10.00">IndicatorInterface.h</text>
</a>
</g>
</g>
<!-- Node7&#45;&gt;Node26 -->
<g id="edge33_Node000007_Node000026" class="edge">
<title>Node7&#45;&gt;Node26</title>
<g id="a_edge33_Node000007_Node000026"><a xlink:title=" ">
<path fill="none" stroke="#63b8ff" d="M796.08,-282.95C697.15,-279.03 504.68,-268.01 443.12,-240.25 420.24,-229.93 399.77,-209.22 386.96,-194.17"/>
<polygon fill="#63b8ff" stroke="#63b8ff" points="389.69,-191.98 380.66,-186.44 384.27,-196.41 389.69,-191.98"/>
</a>
</g>
</g>
<!-- Node31 -->
<g id="Node000031" class="node">
<title>Node31</title>
<g id="a_Node000031"><a xlink:href="_alarm_8h.html" target="_top" xlink:title="Alarm management system for temperature monitoring.">
<polygon fill="white" stroke="#666666" points="748,-240.25 698.25,-240.25 698.25,-221 748,-221 748,-240.25"/>
<text xml:space="preserve" text-anchor="middle" x="723.12" y="-226.75" font-family="Helvetica,sans-Serif" font-size="10.00">Alarm.h</text>
</a>
</g>
</g>
<!-- Node7&#45;&gt;Node31 -->
<g id="edge42_Node000007_Node000031" class="edge">
<title>Node7&#45;&gt;Node31</title>
<g id="a_edge42_Node000007_Node000031"><a xlink:title=" ">
<path fill="none" stroke="#63b8ff" d="M833.56,-275.84C812.35,-267.35 780.35,-254.54 756.25,-244.89"/>
<polygon fill="#63b8ff" stroke="#63b8ff" points="757.79,-241.73 747.2,-241.27 755.19,-248.23 757.79,-241.73"/>
</a>
</g>
</g>
<!-- Node32 -->
<g id="Node000032" class="node">
<title>Node32</title>
<g id="a_Node000032"><a xlink:title=" ">
<polygon fill="#e0e0e0" stroke="#999999" points="995,-240.25 939.25,-240.25 939.25,-221 995,-221 995,-240.25"/>
<text xml:space="preserve" text-anchor="middle" x="967.12" y="-226.75" font-family="Helvetica,sans-Serif" font-size="10.00">algorithm</text>
</a>
</g>
</g>
<!-- Node7&#45;&gt;Node32 -->
<g id="edge50_Node000007_Node000032" class="edge">
<title>Node7&#45;&gt;Node32</title>
<g id="a_edge50_Node000007_Node000032"><a xlink:title=" ">
<path fill="none" stroke="#63b8ff" d="M874.95,-275.84C892.18,-267.58 917.93,-255.23 937.83,-245.68"/>
<polygon fill="#63b8ff" stroke="#63b8ff" points="939.34,-248.84 946.84,-241.36 936.31,-242.53 939.34,-248.84"/>
</a>
</g>
</g>
<!-- Node9&#45;&gt;Node2 -->
<g id="edge10_Node000009_Node000002" class="edge">
<title>Node9&#45;&gt;Node2</title>
<g id="a_edge10_Node000009_Node000002"><a xlink:title=" ">
<path fill="none" stroke="#63b8ff" d="M843.32,-110.14C830.85,-101.3 811.44,-87.3 795.12,-74.5 775.14,-58.82 752.97,-40.02 737.76,-26.89"/>
<polygon fill="#63b8ff" stroke="#63b8ff" points="740.26,-24.43 730.41,-20.52 735.67,-29.71 740.26,-24.43"/>
</a>
</g>
</g>
<!-- Node9&#45;&gt;Node10 -->
<g id="edge11_Node000009_Node000010" class="edge">
<title>Node9&#45;&gt;Node10</title>
<g id="a_edge11_Node000009_Node000010"><a xlink:title=" ">
<path fill="none" stroke="#63b8ff" d="M874.62,-110.09C891.53,-101.83 916.81,-89.48 936.36,-79.93"/>
<polygon fill="#63b8ff" stroke="#63b8ff" points="937.74,-83.15 945.18,-75.62 934.66,-76.86 937.74,-83.15"/>
</a>
</g>
</g>
<!-- Node9&#45;&gt;Node11 -->
<g id="edge12_Node000009_Node000011" class="edge">
<title>Node9&#45;&gt;Node11</title>
<g id="a_edge12_Node000009_Node000011"><a xlink:title=" ">
<path fill="none" stroke="#63b8ff" d="M883.71,-112.16C918.3,-103.44 978.12,-88.34 1020.02,-77.76"/>
<polygon fill="#63b8ff" stroke="#63b8ff" points="1020.75,-81.19 1029.59,-75.35 1019.04,-74.4 1020.75,-81.19"/>
</a>
</g>
</g>
<!-- Node12 -->
<g id="Node000012" class="node">
<title>Node12</title>
<g id="a_Node000012"><a xlink:title=" ">
<polygon fill="#e0e0e0" stroke="#999999" points="915.75,-74.5 804.5,-74.5 804.5,-55.25 915.75,-55.25 915.75,-74.5"/>
<text xml:space="preserve" text-anchor="middle" x="860.12" y="-61" font-family="Helvetica,sans-Serif" font-size="10.00">Adafruit_MAX31865.h</text>
</a>
</g>
</g>
<!-- Node9&#45;&gt;Node12 -->
<g id="edge13_Node000009_Node000012" class="edge">
<title>Node9&#45;&gt;Node12</title>
<g id="a_edge13_Node000009_Node000012"><a xlink:title=" ">
<path fill="none" stroke="#63b8ff" d="M856.79,-110.33C857.28,-103.74 857.98,-94.46 858.61,-86.07"/>
<polygon fill="#63b8ff" stroke="#63b8ff" points="862.08,-86.6 859.34,-76.37 855.1,-86.08 862.08,-86.6"/>
</a>
</g>
</g>
<!-- Node13&#45;&gt;Node2 -->
<g id="edge15_Node000013_Node000002" class="edge">
<title>Node13&#45;&gt;Node2</title>
<g id="a_edge15_Node000013_Node000002"><a xlink:title=" ">
<path fill="none" stroke="#63b8ff" d="M718.18,-165.57C718.33,-140.25 718.78,-66.75 719,-30.84"/>
<polygon fill="#63b8ff" stroke="#63b8ff" points="722.5,-31.01 719.06,-20.99 715.5,-30.96 722.5,-31.01"/>
</a>
</g>
</g>
<!-- Node13&#45;&gt;Node9 -->
<g id="edge16_Node000013_Node000009" class="edge">
<title>Node13&#45;&gt;Node9</title>
<g id="a_edge16_Node000013_Node000009"><a xlink:title=" ">
<path fill="none" stroke="#63b8ff" d="M741.53,-165.34C763.64,-156.81 797.04,-143.92 822.09,-134.26"/>
<polygon fill="#63b8ff" stroke="#63b8ff" points="823.12,-137.61 831.19,-130.75 820.6,-131.08 823.12,-137.61"/>
</a>
</g>
</g>
<!-- Node13&#45;&gt;Node14 -->
<g id="edge17_Node000013_Node000014" class="edge">
<title>Node13&#45;&gt;Node14</title>
<g id="a_edge17_Node000013_Node000014"><a xlink:title=" ">
<path fill="none" stroke="#63b8ff" d="M701.67,-165.34C686.9,-157.23 664.95,-145.18 647.69,-135.71"/>
<polygon fill="#63b8ff" stroke="#63b8ff" points="649.44,-132.68 638.99,-130.93 646.07,-138.81 649.44,-132.68"/>
</a>
</g>
</g>
<!-- Node14&#45;&gt;Node2 -->
<g id="edge18_Node000014_Node000002" class="edge">
<title>Node14&#45;&gt;Node2</title>
<g id="a_edge18_Node000014_Node000002"><a xlink:title=" ">
<path fill="none" stroke="#63b8ff" d="M629.14,-110.25C645.37,-92.28 682.33,-51.36 703.49,-27.94"/>
<polygon fill="#63b8ff" stroke="#63b8ff" points="705.87,-30.52 709.98,-20.75 700.68,-25.82 705.87,-30.52"/>
</a>
</g>
</g>
<!-- Node14&#45;&gt;Node8 -->
<g id="edge29_Node000014_Node000008" class="edge">
<title>Node14&#45;&gt;Node8</title>
<g id="a_edge29_Node000014_Node000008"><a xlink:title=" ">
<path fill="none" stroke="#63b8ff" d="M600.77,-110.09C581.89,-101.72 553.54,-89.13 531.9,-79.53"/>
<polygon fill="#63b8ff" stroke="#63b8ff" points="533.52,-76.42 522.96,-75.57 530.69,-82.82 533.52,-76.42"/>
</a>
</g>
</g>
<!-- Node15 -->
<g id="Node000015" class="node">
<title>Node15</title>
<g id="a_Node000015"><a xlink:title=" ">
<polygon fill="#e0e0e0" stroke="#999999" points="577.62,-74.5 540.62,-74.5 540.62,-55.25 577.62,-55.25 577.62,-74.5"/>
<text xml:space="preserve" text-anchor="middle" x="559.12" y="-61" font-family="Helvetica,sans-Serif" font-size="10.00">FS.h</text>
</a>
</g>
</g>
<!-- Node14&#45;&gt;Node15 -->
<g id="edge19_Node000014_Node000015" class="edge">
<title>Node14&#45;&gt;Node15</title>
<g id="a_edge19_Node000014_Node000015"><a xlink:title=" ">
<path fill="none" stroke="#63b8ff" d="M610.61,-110.09C601.74,-102.47 588.81,-91.37 578.14,-82.2"/>
<polygon fill="#63b8ff" stroke="#63b8ff" points="580.5,-79.62 570.64,-75.76 575.94,-84.93 580.5,-79.62"/>
</a>
</g>
</g>
<!-- Node16 -->
<g id="Node000016" class="node">
<title>Node16</title>
<g id="a_Node000016"><a xlink:title=" ">
<polygon fill="#e0e0e0" stroke="#999999" points="634.38,-74.5 595.88,-74.5 595.88,-55.25 634.38,-55.25 634.38,-74.5"/>
<text xml:space="preserve" text-anchor="middle" x="615.12" y="-61" font-family="Helvetica,sans-Serif" font-size="10.00">SD.h</text>
</a>
</g>
</g>
<!-- Node14&#45;&gt;Node16 -->
<g id="edge20_Node000014_Node000016" class="edge">
<title>Node14&#45;&gt;Node16</title>
<g id="a_edge20_Node000014_Node000016"><a xlink:title=" ">
<path fill="none" stroke="#63b8ff" d="M620.13,-110.33C619.39,-103.74 618.35,-94.46 617.4,-86.07"/>
<polygon fill="#63b8ff" stroke="#63b8ff" points="620.9,-85.91 616.31,-76.36 613.95,-86.69 620.9,-85.91"/>
</a>
</g>
</g>
<!-- Node17 -->
<g id="Node000017" class="node">
<title>Node17</title>
<g id="a_Node000017"><a xlink:href="_time_manager_8h.html" target="_top" xlink:title="Real&#45;time clock and time synchronization management.">
<polygon fill="white" stroke="#666666" points="234.5,-74.5 151.75,-74.5 151.75,-55.25 234.5,-55.25 234.5,-74.5"/>
<text xml:space="preserve" text-anchor="middle" x="193.12" y="-61" font-family="Helvetica,sans-Serif" font-size="10.00">TimeManager.h</text>
</a>
</g>
</g>
<!-- Node14&#45;&gt;Node17 -->
<g id="edge21_Node000014_Node000017" class="edge">
<title>Node14&#45;&gt;Node17</title>
<g id="a_edge21_Node000014_Node000017"><a xlink:title=" ">
<path fill="none" stroke="#63b8ff" d="M575.73,-113.48C495.92,-103.55 330.92,-83.02 246.07,-72.46"/>
<polygon fill="#63b8ff" stroke="#63b8ff" points="246.75,-69.02 236.39,-71.26 245.88,-75.97 246.75,-69.02"/>
</a>
</g>
</g>
<!-- Node17&#45;&gt;Node2 -->
<g id="edge22_Node000017_Node000002" class="edge">
<title>Node17&#45;&gt;Node2</title>
<g id="a_edge22_Node000017_Node000002"><a xlink:title=" ">
<path fill="none" stroke="#63b8ff" d="M234.83,-57.06C239.31,-56.41 243.81,-55.79 248.12,-55.25 407,-35.28 597.05,-19.85 678.65,-13.62"/>
<polygon fill="#63b8ff" stroke="#63b8ff" points="678.9,-17.11 688.61,-12.87 678.37,-10.13 678.9,-17.11"/>
</a>
</g>
</g>
<!-- Node18 -->
<g id="Node000018" class="node">
<title>Node18</title>
<g id="a_Node000018"><a xlink:title=" ">
<polygon fill="#e0e0e0" stroke="#999999" points="371.38,-19.25 326.88,-19.25 326.88,0 371.38,0 371.38,-19.25"/>
<text xml:space="preserve" text-anchor="middle" x="349.12" y="-5.75" font-family="Helvetica,sans-Serif" font-size="10.00">WiFi.h</text>
</a>
</g>
</g>
<!-- Node17&#45;&gt;Node18 -->
<g id="edge23_Node000017_Node000018" class="edge">
<title>Node17&#45;&gt;Node18</title>
<g id="a_edge23_Node000017_Node000018"><a xlink:title=" ">
<path fill="none" stroke="#63b8ff" d="M219.59,-54.84C246.14,-45.78 287.12,-31.79 315.85,-21.98"/>
<polygon fill="#63b8ff" stroke="#63b8ff" points="316.82,-25.35 325.16,-18.81 314.56,-18.72 316.82,-25.35"/>
</a>
</g>
</g>
<!-- Node19 -->
<g id="Node000019" class="node">
<title>Node19</title>
<g id="a_Node000019"><a xlink:title=" ">
<polygon fill="#e0e0e0" stroke="#999999" points="140.38,-19.25 95.88,-19.25 95.88,0 140.38,0 140.38,-19.25"/>
<text xml:space="preserve" text-anchor="middle" x="118.12" y="-5.75" font-family="Helvetica,sans-Serif" font-size="10.00">Wire.h</text>
</a>
</g>
</g>
<!-- Node17&#45;&gt;Node19 -->
<g id="edge24_Node000017_Node000019" class="edge">
<title>Node17&#45;&gt;Node19</title>
<g id="a_edge24_Node000017_Node000019"><a xlink:title=" ">
<path fill="none" stroke="#63b8ff" d="M180.4,-54.84C169.41,-47.04 153.28,-35.59 140.19,-26.29"/>
<polygon fill="#63b8ff" stroke="#63b8ff" points="142.32,-23.51 132.14,-20.58 138.27,-29.22 142.32,-23.51"/>
</a>
</g>
</g>
<!-- Node20 -->
<g id="Node000020" class="node">
<title>Node20</title>
<g id="a_Node000020"><a xlink:title=" ">
<polygon fill="#e0e0e0" stroke="#999999" points="444.62,-19.25 389.62,-19.25 389.62,0 444.62,0 444.62,-19.25"/>
<text xml:space="preserve" text-anchor="middle" x="417.12" y="-5.75" font-family="Helvetica,sans-Serif" font-size="10.00">RTClib.h</text>
</a>
</g>
</g>
<!-- Node17&#45;&gt;Node20 -->
<g id="edge25_Node000017_Node000020" class="edge">
<title>Node17&#45;&gt;Node20</title>
<g id="a_edge25_Node000017_Node000020"><a xlink:title=" ">
<path fill="none" stroke="#63b8ff" d="M231.38,-54.78C272.38,-45.03 337.13,-29.64 378.33,-19.85"/>
<polygon fill="#63b8ff" stroke="#63b8ff" points="378.9,-23.31 387.82,-17.59 377.28,-16.5 378.9,-23.31"/>
</a>
</g>
</g>
<!-- Node21 -->
<g id="Node000021" class="node">
<title>Node21</title>
<g id="a_Node000021"><a xlink:title=" ">
<polygon fill="#e0e0e0" stroke="#999999" points="228.12,-19.25 158.12,-19.25 158.12,0 228.12,0 228.12,-19.25"/>
<text xml:space="preserve" text-anchor="middle" x="193.12" y="-5.75" font-family="Helvetica,sans-Serif" font-size="10.00">NTPClient.h</text>
</a>
</g>
</g>
<!-- Node17&#45;&gt;Node21 -->
<g id="edge26_Node000017_Node000021" class="edge">
<title>Node17&#45;&gt;Node21</title>
<g id="a_edge26_Node000017_Node000021"><a xlink:title=" ">
<path fill="none" stroke="#63b8ff" d="M193.12,-55.08C193.12,-48.57 193.12,-39.42 193.12,-31.12"/>
<polygon fill="#63b8ff" stroke="#63b8ff" points="196.63,-31.12 193.13,-21.12 189.63,-31.12 196.63,-31.12"/>
</a>
</g>
</g>
<!-- Node22 -->
<g id="Node000022" class="node">
<title>Node22</title>
<g id="a_Node000022"><a xlink:title=" ">
<polygon fill="#e0e0e0" stroke="#999999" points="308.38,-19.25 245.88,-19.25 245.88,0 308.38,0 308.38,-19.25"/>
<text xml:space="preserve" text-anchor="middle" x="277.12" y="-5.75" font-family="Helvetica,sans-Serif" font-size="10.00">WiFiUdp.h</text>
</a>
</g>
</g>
<!-- Node17&#45;&gt;Node22 -->
<g id="edge27_Node000017_Node000022" class="edge">
<title>Node17&#45;&gt;Node22</title>
<g id="a_edge27_Node000017_Node000022"><a xlink:title=" ">
<path fill="none" stroke="#63b8ff" d="M207.37,-54.84C219.92,-46.89 238.46,-35.14 253.27,-25.75"/>
<polygon fill="#63b8ff" stroke="#63b8ff" points="254.96,-28.82 261.53,-20.51 251.21,-22.91 254.96,-28.82"/>
</a>
</g>
</g>
<!-- Node17&#45;&gt;Node23 -->
<g id="edge28_Node000017_Node000023" class="edge">
<title>Node17&#45;&gt;Node23</title>
<g id="a_edge28_Node000017_Node000023"><a xlink:title=" ">
<path fill="none" stroke="#63b8ff" d="M167,-54.84C142,-46.2 104.05,-33.07 75.98,-23.37"/>
<polygon fill="#63b8ff" stroke="#63b8ff" points="77.4,-20.16 66.81,-20.2 75.11,-26.77 77.4,-20.16"/>
</a>
</g>
</g>
<!-- Node24&#45;&gt;Node13 -->
<g id="edge32_Node000024_Node000013" class="edge">
<title>Node24&#45;&gt;Node13</title>
<g id="a_edge32_Node000024_Node000013"><a xlink:title=" ">
<path fill="none" stroke="#63b8ff" d="M653.36,-220.59C664.9,-212.71 681.89,-201.11 695.57,-191.77"/>
<polygon fill="#63b8ff" stroke="#63b8ff" points="697.29,-194.83 703.58,-186.31 693.35,-189.05 697.29,-194.83"/>
</a>
</g>
</g>
<!-- Node25 -->
<g id="Node000025" class="node">
<title>Node25</title>
<g id="a_Node000025"><a xlink:title=" ">
<polygon fill="#e0e0e0" stroke="#999999" points="571.25,-185 523,-185 523,-165.75 571.25,-165.75 571.25,-185"/>
<text xml:space="preserve" text-anchor="middle" x="547.12" y="-171.5" font-family="Helvetica,sans-Serif" font-size="10.00">stdint.h</text>
</a>
</g>
</g>
<!-- Node24&#45;&gt;Node25 -->
<g id="edge31_Node000024_Node000025" class="edge">
<title>Node24&#45;&gt;Node25</title>
<g id="a_edge31_Node000024_Node000025"><a xlink:title=" ">
<path fill="none" stroke="#63b8ff" d="M624.35,-220.59C610.19,-212.48 589.14,-200.43 572.6,-190.96"/>
<polygon fill="#63b8ff" stroke="#63b8ff" points="574.71,-188.14 564.29,-186.2 571.23,-194.21 574.71,-188.14"/>
</a>
</g>
</g>
<!-- Node26&#45;&gt;Node2 -->
<g id="edge34_Node000026_Node000002" class="edge">
<title>Node26&#45;&gt;Node2</title>
<g id="a_edge34_Node000026_Node000002"><a xlink:title=" ">
<path fill="none" stroke="#63b8ff" d="M395.16,-165.33C410.81,-157.88 431.24,-145.92 444.12,-129.75 465.98,-102.32 443.44,-78.01 470.12,-55.25 500.97,-28.94 616.81,-17.37 679.02,-12.96"/>
<polygon fill="#63b8ff" stroke="#63b8ff" points="679.09,-16.47 688.84,-12.3 678.62,-9.48 679.09,-16.47"/>
</a>
</g>
</g>
<!-- Node26&#45;&gt;Node8 -->
<g id="edge40_Node000026_Node000008" class="edge">
<title>Node26&#45;&gt;Node8</title>
<g id="a_edge40_Node000026_Node000008"><a xlink:title=" ">
<path fill="none" stroke="#63b8ff" d="M373.43,-165.36C374.35,-151.81 377.99,-126.11 392.12,-110.5 411.94,-88.61 444.07,-77.22 468.33,-71.45"/>
<polygon fill="#63b8ff" stroke="#63b8ff" points="468.99,-74.88 478.03,-69.36 467.52,-68.04 468.99,-74.88"/>
</a>
</g>
</g>
<!-- Node26&#45;&gt;Node14 -->
<g id="edge41_Node000026_Node000014" class="edge">
<title>Node26&#45;&gt;Node14</title>
<g id="a_edge41_Node000026_Node000014"><a xlink:title=" ">
<path fill="none" stroke="#63b8ff" d="M415.48,-165.28C457.56,-156.24 522.24,-142.36 567.8,-132.57"/>
<polygon fill="#63b8ff" stroke="#63b8ff" points="568.43,-136.02 577.47,-130.5 566.96,-129.18 568.43,-136.02"/>
</a>
</g>
</g>
<!-- Node26&#45;&gt;Node19 -->
<g id="edge35_Node000026_Node000019" class="edge">
<title>Node26&#45;&gt;Node19</title>
<g id="a_edge35_Node000026_Node000019"><a xlink:title=" ">
<path fill="none" stroke="#63b8ff" d="M322.71,-171.5C261.2,-166.9 162.26,-155.62 137.12,-129.75 111.54,-103.42 112.09,-57.29 114.97,-30.82"/>
<polygon fill="#63b8ff" stroke="#63b8ff" points="118.42,-31.46 116.27,-21.08 111.48,-30.53 118.42,-31.46"/>
</a>
</g>
</g>
<!-- Node27 -->
<g id="Node000027" class="node">
<title>Node27</title>
<g id="a_Node000027"><a xlink:title=" ">
<polygon fill="#e0e0e0" stroke="#999999" points="435.5,-129.75 400.75,-129.75 400.75,-110.5 435.5,-110.5 435.5,-129.75"/>
<text xml:space="preserve" text-anchor="middle" x="418.12" y="-116.25" font-family="Helvetica,sans-Serif" font-size="10.00">map</text>
</a>
</g>
</g>
<!-- Node26&#45;&gt;Node27 -->
<g id="edge36_Node000026_Node000027" class="edge">
<title>Node26&#45;&gt;Node27</title>
<g id="a_edge36_Node000026_Node000027"><a xlink:title=" ">
<path fill="none" stroke="#63b8ff" d="M380.56,-165.58C386.71,-158.3 395.64,-147.73 403.25,-138.73"/>
<polygon fill="#63b8ff" stroke="#63b8ff" points="405.77,-141.16 409.56,-131.27 400.43,-136.64 405.77,-141.16"/>
</a>
</g>
</g>
<!-- Node28 -->
<g id="Node000028" class="node">
<title>Node28</title>
<g id="a_Node000028"><a xlink:title=" ">
<polygon fill="#e0e0e0" stroke="#999999" points="186.12,-129.75 146.12,-129.75 146.12,-110.5 186.12,-110.5 186.12,-129.75"/>
<text xml:space="preserve" text-anchor="middle" x="166.12" y="-116.25" font-family="Helvetica,sans-Serif" font-size="10.00">string</text>
</a>
</g>
</g>
<!-- Node26&#45;&gt;Node28 -->
<g id="edge37_Node000026_Node000028" class="edge">
<title>Node26&#45;&gt;Node28</title>
<g id="a_edge37_Node000026_Node000028"><a xlink:title=" ">
<path fill="none" stroke="#63b8ff" d="M334.8,-165.28C301,-157.14 250.15,-144.63 197.32,-130.26"/>
<polygon fill="#63b8ff" stroke="#63b8ff" points="198.4,-126.93 187.83,-127.67 196.56,-133.68 198.4,-126.93"/>
</a>
</g>
</g>
<!-- Node29 -->
<g id="Node000029" class="node">
<title>Node29</title>
<g id="a_Node000029"><a xlink:title=" ">
<polygon fill="#e0e0e0" stroke="#999999" points="269.88,-129.75 204.38,-129.75 204.38,-110.5 269.88,-110.5 269.88,-129.75"/>
<text xml:space="preserve" text-anchor="middle" x="237.12" y="-116.25" font-family="Helvetica,sans-Serif" font-size="10.00">PCF8575.h</text>
</a>
</g>
</g>
<!-- Node26&#45;&gt;Node29 -->
<g id="edge38_Node000026_Node000029" class="edge">
<title>Node26&#45;&gt;Node29</title>
<g id="a_edge38_Node000026_Node000029"><a xlink:title=" ">
<path fill="none" stroke="#63b8ff" d="M350.05,-165.34C328.37,-156.85 295.64,-144.04 271,-134.39"/>
<polygon fill="#63b8ff" stroke="#63b8ff" points="272.31,-131.14 261.72,-130.75 269.75,-137.66 272.31,-131.14"/>
</a>
</g>
</g>
<!-- Node30 -->
<g id="Node000030" class="node">
<title>Node30</title>
<g id="a_Node000030"><a xlink:title=" ">
<polygon fill="#e0e0e0" stroke="#999999" points="344.75,-129.75 287.5,-129.75 287.5,-110.5 344.75,-110.5 344.75,-129.75"/>
<text xml:space="preserve" text-anchor="middle" x="316.12" y="-116.25" font-family="Helvetica,sans-Serif" font-size="10.00">U8g2lib.h</text>
</a>
</g>
</g>
<!-- Node26&#45;&gt;Node30 -->
<g id="edge39_Node000026_Node000030" class="edge">
<title>Node26&#45;&gt;Node30</title>
<g id="a_edge39_Node000026_Node000030"><a xlink:title=" ">
<path fill="none" stroke="#63b8ff" d="M363.46,-165.34C355.38,-157.8 343.66,-146.85 333.9,-137.73"/>
<polygon fill="#63b8ff" stroke="#63b8ff" points="336.45,-135.33 326.76,-131.06 331.68,-140.44 336.45,-135.33"/>
</a>
</g>
</g>
<!-- Node31&#45;&gt;Node2 -->
<g id="edge43_Node000031_Node000002" class="edge">
<title>Node31&#45;&gt;Node2</title>
<g id="a_edge43_Node000031_Node000002"><a xlink:title=" ">
<path fill="none" stroke="#63b8ff" d="M742.32,-220.5C755.63,-213.02 772.31,-201.04 780.12,-185 783.87,-177.31 781.72,-174.16 780.12,-165.75 770.37,-114.29 743.92,-58.06 729.26,-29.53"/>
<polygon fill="#63b8ff" stroke="#63b8ff" points="732.55,-28.27 724.81,-21.04 726.35,-31.52 732.55,-28.27"/>
</a>
</g>
</g>
<!-- Node31&#45;&gt;Node8 -->
<g id="edge44_Node000031_Node000008" class="edge">
<title>Node31&#45;&gt;Node8</title>
<g id="a_edge44_Node000031_Node000008"><a xlink:title=" ">
<path fill="none" stroke="#63b8ff" d="M703.67,-220.64C686.08,-212.23 659.7,-198.9 638.12,-185 604.51,-163.34 597.31,-155.97 567.12,-129.75 549.71,-114.63 530.91,-96.21 517.85,-83.04"/>
<polygon fill="#63b8ff" stroke="#63b8ff" points="520.37,-80.62 510.87,-75.95 515.39,-85.53 520.37,-80.62"/>
</a>
</g>
</g>
<!-- Node31&#45;&gt;Node13 -->
<g id="edge45_Node000031_Node000013" class="edge">
<title>Node31&#45;&gt;Node13</title>
<g id="a_edge45_Node000031_Node000013"><a xlink:title=" ">
<path fill="none" stroke="#63b8ff" d="M722.3,-220.83C721.68,-214.24 720.81,-204.96 720.02,-196.57"/>
<polygon fill="#63b8ff" stroke="#63b8ff" points="723.53,-196.5 719.11,-186.87 716.56,-197.15 723.53,-196.5"/>
</a>
</g>
</g>
<!-- Node31&#45;&gt;Node14 -->
<g id="edge46_Node000031_Node000014" class="edge">
<title>Node31&#45;&gt;Node14</title>
<g id="a_edge46_Node000031_Node000014"><a xlink:title=" ">
<path fill="none" stroke="#63b8ff" d="M704.88,-220.64C690.32,-212.78 670.11,-200.24 656.12,-185 644.23,-172.03 634.92,-154.27 628.9,-140.78"/>
<polygon fill="#63b8ff" stroke="#63b8ff" points="632.16,-139.5 625.07,-131.63 625.71,-142.21 632.16,-139.5"/>
</a>
</g>
</g>
<!-- Node33&#45;&gt;Node2 -->
<g id="edge52_Node000033_Node000002" class="edge">
<title>Node33&#45;&gt;Node2</title>
<g id="a_edge52_Node000033_Node000002"><a xlink:title=" ">
<path fill="none" stroke="#63b8ff" d="M1065.78,-331.01C1114.64,-318.12 1186.12,-289.39 1186.12,-231.62 1186.12,-231.62 1186.12,-231.62 1186.12,-119.12 1186.12,-86.75 1178.09,-73.16 1151.12,-55.25 1087.5,-13 854.04,-9.67 759.39,-10.12"/>
<polygon fill="#63b8ff" stroke="#63b8ff" points="759.52,-6.62 749.54,-10.19 759.57,-13.62 759.52,-6.62"/>
</a>
</g>
</g>
<!-- Node33&#45;&gt;Node7 -->
<g id="edge54_Node000033_Node000007" class="edge">
<title>Node33&#45;&gt;Node7</title>
<g id="a_edge54_Node000033_Node000007"><a xlink:title=" ">
<path fill="none" stroke="#63b8ff" d="M993.13,-331.09C966.11,-322.37 924.97,-309.09 894.82,-299.36"/>
<polygon fill="#63b8ff" stroke="#63b8ff" points="896.28,-296.16 885.69,-296.42 894.13,-302.82 896.28,-296.16"/>
</a>
</g>
</g>
<!-- Node34 -->
<g id="Node000034" class="node">
<title>Node34</title>
<g id="a_Node000034"><a xlink:title=" ">
<polygon fill="#e0e0e0" stroke="#999999" points="1060.25,-295.5 982,-295.5 982,-276.25 1060.25,-276.25 1060.25,-295.5"/>
<text xml:space="preserve" text-anchor="middle" x="1021.12" y="-282" font-family="Helvetica,sans-Serif" font-size="10.00">CSV_Parser.h</text>
</a>
</g>
</g>
<!-- Node33&#45;&gt;Node34 -->
<g id="edge53_Node000033_Node000034" class="edge">
<title>Node33&#45;&gt;Node34</title>
<g id="a_edge53_Node000033_Node000034"><a xlink:title=" ">
<path fill="none" stroke="#63b8ff" d="M1021.12,-331.33C1021.12,-324.82 1021.12,-315.67 1021.12,-307.37"/>
<polygon fill="#63b8ff" stroke="#63b8ff" points="1024.63,-307.37 1021.13,-297.37 1017.63,-307.37 1024.63,-307.37"/>
</a>
</g>
</g>
<!-- Node35&#45;&gt;Node2 -->
<g id="edge56_Node000035_Node000002" class="edge">
<title>Node35&#45;&gt;Node2</title>
<g id="a_edge56_Node000035_Node000002"><a xlink:title=" ">
<path fill="none" stroke="#63b8ff" d="M1164.53,-331.01C1184.6,-313.86 1224.12,-274.62 1224.12,-231.62 1224.12,-231.62 1224.12,-231.62 1224.12,-119.12 1224.12,-83.61 1207.09,-72.64 1176.12,-55.25 1105.32,-15.47 857.73,-10.74 759.62,-10.47"/>
<polygon fill="#63b8ff" stroke="#63b8ff" points="759.66,-6.97 749.66,-10.46 759.65,-13.97 759.66,-6.97"/>
</a>
</g>
</g>
<!-- Node35&#45;&gt;Node3 -->
<g id="edge57_Node000035_Node000003" class="edge">
<title>Node35&#45;&gt;Node3</title>
<g id="a_edge57_Node000035_Node000003"><a xlink:title=" ">
<path fill="none" stroke="#63b8ff" d="M1176.7,-331.09C1198.97,-322.56 1232.62,-309.67 1257.85,-300.01"/>
<polygon fill="#63b8ff" stroke="#63b8ff" points="1258.93,-303.34 1267.02,-296.49 1256.43,-296.8 1258.93,-303.34"/>
</a>
</g>
</g>
</g>
</svg>
