<?xml version="1.0" encoding="UTF-8" standalone="no"?>
<!DOCTYPE svg PUBLIC "-//W3C//DTD SVG 1.1//EN"
 "http://www.w3.org/Graphics/SVG/1.1/DTD/svg11.dtd">
<!-- Generated by graphviz version 13.1.0 (20250701.0955)
 -->
<!-- Title: src/ConfigManager.cpp Pages: 1 -->
<svg width="1612pt" height="469pt"
 viewBox="0.00 0.00 1612.00 469.00" xmlns="http://www.w3.org/2000/svg" xmlns:xlink="http://www.w3.org/1999/xlink">
<g id="graph0" class="graph" transform="scale(1 1) rotate(0) translate(4 465.25)">
<title>src/ConfigManager.cpp</title>
<!-- Node1 -->
<g id="Node000001" class="node">
<title>Node1</title>
<g id="a_Node000001"><a xlink:title="Implementation of web&#45;based configuration management system.">
<polygon fill="#999999" stroke="#666666" points="1485.5,-461.25 1369,-461.25 1369,-442 1485.5,-442 1485.5,-461.25"/>
<text xml:space="preserve" text-anchor="middle" x="1427.25" y="-447.75" font-family="Helvetica,sans-Serif" font-size="10.00">src/ConfigManager.cpp</text>
</a>
</g>
</g>
<!-- Node2 -->
<g id="Node000002" class="node">
<title>Node2</title>
<g id="a_Node000002"><a xlink:href="_config_manager_8h.html" target="_top" xlink:title="Configuration management system for temperature monitoring device.">
<polygon fill="white" stroke="#666666" points="958,-406 868.5,-406 868.5,-386.75 958,-386.75 958,-406"/>
<text xml:space="preserve" text-anchor="middle" x="913.25" y="-392.5" font-family="Helvetica,sans-Serif" font-size="10.00">ConfigManager.h</text>
</a>
</g>
</g>
<!-- Node1&#45;&gt;Node2 -->
<g id="edge1_Node000001_Node000002" class="edge">
<title>Node1&#45;&gt;Node2</title>
<g id="a_edge1_Node000001_Node000002"><a xlink:title=" ">
<path fill="none" stroke="#63b8ff" d="M1368.79,-444.57C1269.17,-434.25 1067.78,-413.38 969.61,-403.21"/>
<polygon fill="#63b8ff" stroke="#63b8ff" points="969.98,-399.73 959.67,-402.18 969.26,-406.7 969.98,-399.73"/>
</a>
</g>
</g>
<!-- Node24 -->
<g id="Node000024" class="node">
<title>Node24</title>
<g id="a_Node000024"><a xlink:title=" ">
<polygon fill="#e0e0e0" stroke="#999999" points="1455.38,-19.25 1377.12,-19.25 1377.12,0 1455.38,0 1455.38,-19.25"/>
<text xml:space="preserve" text-anchor="middle" x="1416.25" y="-5.75" font-family="Helvetica,sans-Serif" font-size="10.00">ArduinoJson.h</text>
</a>
</g>
</g>
<!-- Node1&#45;&gt;Node24 -->
<g id="edge61_Node000001_Node000024" class="edge">
<title>Node1&#45;&gt;Node24</title>
<g id="a_edge61_Node000001_Node000024"><a xlink:title=" ">
<path fill="none" stroke="#63b8ff" d="M1446.51,-441.66C1476.82,-426.07 1532.25,-390.88 1532.25,-342.12 1532.25,-342.12 1532.25,-342.12 1532.25,-119.12 1532.25,-73.27 1483.3,-41.2 1449,-24.36"/>
<polygon fill="#63b8ff" stroke="#63b8ff" points="1450.8,-21.34 1440.26,-20.27 1447.83,-27.68 1450.8,-21.34"/>
</a>
</g>
</g>
<!-- Node33 -->
<g id="Node000033" class="node">
<title>Node33</title>
<g id="a_Node000033"><a xlink:title=" ">
<polygon fill="#e0e0e0" stroke="#999999" points="1399.12,-240.25 1343.38,-240.25 1343.38,-221 1399.12,-221 1399.12,-240.25"/>
<text xml:space="preserve" text-anchor="middle" x="1371.25" y="-226.75" font-family="Helvetica,sans-Serif" font-size="10.00">algorithm</text>
</a>
</g>
</g>
<!-- Node1&#45;&gt;Node33 -->
<g id="edge63_Node000001_Node000033" class="edge">
<title>Node1&#45;&gt;Node33</title>
<g id="a_edge63_Node000001_Node000033"><a xlink:title=" ">
<path fill="none" stroke="#63b8ff" d="M1424.28,-441.79C1421.32,-432.82 1416.72,-418.52 1413.25,-406 1397.84,-350.37 1382.72,-283.86 1375.56,-251.41"/>
<polygon fill="#63b8ff" stroke="#63b8ff" points="1379.03,-250.88 1373.46,-241.87 1372.19,-252.38 1379.03,-250.88"/>
</a>
</g>
</g>
<!-- Node37 -->
<g id="Node000037" class="node">
<title>Node37</title>
<g id="a_Node000037"><a xlink:title=" ">
<polygon fill="#e0e0e0" stroke="#999999" points="1603.75,-406 1560.75,-406 1560.75,-386.75 1603.75,-386.75 1603.75,-406"/>
<text xml:space="preserve" text-anchor="middle" x="1582.25" y="-392.5" font-family="Helvetica,sans-Serif" font-size="10.00">time.h</text>
</a>
</g>
</g>
<!-- Node1&#45;&gt;Node37 -->
<g id="edge62_Node000001_Node000037" class="edge">
<title>Node1&#45;&gt;Node37</title>
<g id="a_edge62_Node000001_Node000037"><a xlink:title=" ">
<path fill="none" stroke="#63b8ff" d="M1453.54,-441.59C1480.08,-432.48 1521.11,-418.38 1549.69,-408.56"/>
<polygon fill="#63b8ff" stroke="#63b8ff" points="1550.59,-411.95 1558.91,-405.39 1548.32,-405.33 1550.59,-411.95"/>
</a>
</g>
</g>
<!-- Node38 -->
<g id="Node000038" class="node">
<title>Node38</title>
<g id="a_Node000038"><a xlink:href="_m_q_t_t_manager_8h.html" target="_top" xlink:title="MQTT Manager for temperature controller using 256dpi/MQTT library.">
<polygon fill="white" stroke="#666666" points="1322.62,-129.75 1233.88,-129.75 1233.88,-110.5 1322.62,-110.5 1322.62,-129.75"/>
<text xml:space="preserve" text-anchor="middle" x="1278.25" y="-116.25" font-family="Helvetica,sans-Serif" font-size="10.00">MQTTManager.h</text>
</a>
</g>
</g>
<!-- Node1&#45;&gt;Node38 -->
<g id="edge64_Node000001_Node000038" class="edge">
<title>Node1&#45;&gt;Node38</title>
<g id="a_edge64_Node000001_Node000038"><a xlink:title=" ">
<path fill="none" stroke="#63b8ff" d="M1427.25,-441.62C1427.25,-423.03 1427.25,-379.05 1427.25,-342.12 1427.25,-342.12 1427.25,-342.12 1427.25,-229.62 1427.25,-178.15 1368.41,-148.52 1324.69,-133.61"/>
<polygon fill="#63b8ff" stroke="#63b8ff" points="1325.97,-130.35 1315.38,-130.6 1323.82,-137.01 1325.97,-130.35"/>
</a>
</g>
</g>
<!-- Node3 -->
<g id="Node000003" class="node">
<title>Node3</title>
<g id="a_Node000003"><a xlink:title=" ">
<polygon fill="#e0e0e0" stroke="#999999" points="593.88,-19.25 536.62,-19.25 536.62,0 593.88,0 593.88,-19.25"/>
<text xml:space="preserve" text-anchor="middle" x="565.25" y="-5.75" font-family="Helvetica,sans-Serif" font-size="10.00">Arduino.h</text>
</a>
</g>
</g>
<!-- Node2&#45;&gt;Node3 -->
<g id="edge2_Node000002_Node000003" class="edge">
<title>Node2&#45;&gt;Node3</title>
<g id="a_edge2_Node000002_Node000003"><a xlink:title=" ">
<path fill="none" stroke="#63b8ff" d="M868.05,-396.15C717.62,-395.9 235.56,-371.42 98.25,-74.5 94.66,-66.73 92.5,-61.58 98.25,-55.25 126.73,-23.92 417.1,-14.04 525.09,-11.44"/>
<polygon fill="#63b8ff" stroke="#63b8ff" points="525.01,-14.94 534.93,-11.21 524.85,-7.94 525.01,-14.94"/>
</a>
</g>
</g>
<!-- Node4 -->
<g id="Node000004" class="node">
<title>Node4</title>
<g id="a_Node000004"><a xlink:title=" ">
<polygon fill="#e0e0e0" stroke="#999999" points="919.5,-295.5 839,-295.5 839,-276.25 919.5,-276.25 919.5,-295.5"/>
<text xml:space="preserve" text-anchor="middle" x="879.25" y="-282" font-family="Helvetica,sans-Serif" font-size="10.00">ConfigAssist.h</text>
</a>
</g>
</g>
<!-- Node2&#45;&gt;Node4 -->
<g id="edge3_Node000002_Node000004" class="edge">
<title>Node2&#45;&gt;Node4</title>
<g id="a_edge3_Node000002_Node000004"><a xlink:title=" ">
<path fill="none" stroke="#63b8ff" d="M910.76,-386.67C907.22,-374.34 900.47,-351.13 894.25,-331.5 891.66,-323.32 888.67,-314.34 886.05,-306.6"/>
<polygon fill="#63b8ff" stroke="#63b8ff" points="889.37,-305.5 882.82,-297.17 882.74,-307.76 889.37,-305.5"/>
</a>
</g>
</g>
<!-- Node5 -->
<g id="Node000005" class="node">
<title>Node5</title>
<g id="a_Node000005"><a xlink:title=" ">
<polygon fill="#e0e0e0" stroke="#999999" points="1049.38,-350.75 941.12,-350.75 941.12,-331.5 1049.38,-331.5 1049.38,-350.75"/>
<text xml:space="preserve" text-anchor="middle" x="995.25" y="-337.25" font-family="Helvetica,sans-Serif" font-size="10.00">ConfigAssistHelper.h</text>
</a>
</g>
</g>
<!-- Node2&#45;&gt;Node5 -->
<g id="edge4_Node000002_Node000005" class="edge">
<title>Node2&#45;&gt;Node5</title>
<g id="a_edge4_Node000002_Node000005"><a xlink:title=" ">
<path fill="none" stroke="#63b8ff" d="M927.16,-386.34C939.41,-378.39 957.5,-366.64 971.96,-357.25"/>
<polygon fill="#63b8ff" stroke="#63b8ff" points="973.52,-360.41 980,-352.03 969.71,-354.54 973.52,-360.41"/>
</a>
</g>
</g>
<!-- Node6 -->
<g id="Node000006" class="node">
<title>Node6</title>
<g id="a_Node000006"><a xlink:title=" ">
<polygon fill="#e0e0e0" stroke="#999999" points="1139,-350.75 1067.5,-350.75 1067.5,-331.5 1139,-331.5 1139,-350.75"/>
<text xml:space="preserve" text-anchor="middle" x="1103.25" y="-337.25" font-family="Helvetica,sans-Serif" font-size="10.00">WebServer.h</text>
</a>
</g>
</g>
<!-- Node2&#45;&gt;Node6 -->
<g id="edge5_Node000002_Node000006" class="edge">
<title>Node2&#45;&gt;Node6</title>
<g id="a_edge5_Node000002_Node000006"><a xlink:title=" ">
<path fill="none" stroke="#63b8ff" d="M945.48,-386.34C977.01,-377.51 1025.23,-363.99 1060.06,-354.23"/>
<polygon fill="#63b8ff" stroke="#63b8ff" points="1060.72,-357.68 1069.4,-351.61 1058.83,-350.94 1060.72,-357.68"/>
</a>
</g>
</g>
<!-- Node7 -->
<g id="Node000007" class="node">
<title>Node7</title>
<g id="a_Node000007"><a xlink:title=" ">
<polygon fill="#e0e0e0" stroke="#999999" points="1215.25,-350.75 1157.25,-350.75 1157.25,-331.5 1215.25,-331.5 1215.25,-350.75"/>
<text xml:space="preserve" text-anchor="middle" x="1186.25" y="-337.25" font-family="Helvetica,sans-Serif" font-size="10.00">LittleFS.h</text>
</a>
</g>
</g>
<!-- Node2&#45;&gt;Node7 -->
<g id="edge6_Node000002_Node000007" class="edge">
<title>Node2&#45;&gt;Node7</title>
<g id="a_edge6_Node000002_Node000007"><a xlink:title=" ">
<path fill="none" stroke="#63b8ff" d="M958.4,-387.29C1003.46,-379.12 1074.98,-365.85 1145.9,-351.18"/>
<polygon fill="#63b8ff" stroke="#63b8ff" points="1146.25,-354.69 1155.33,-349.22 1144.83,-347.83 1146.25,-354.69"/>
</a>
</g>
</g>
<!-- Node8 -->
<g id="Node000008" class="node">
<title>Node8</title>
<g id="a_Node000008"><a xlink:href="_temperature_controller_8h.html" target="_top" xlink:title="Central temperature monitoring and control system.">
<polygon fill="white" stroke="#666666" points="610,-295.5 490.5,-295.5 490.5,-276.25 610,-276.25 610,-295.5"/>
<text xml:space="preserve" text-anchor="middle" x="550.25" y="-282" font-family="Helvetica,sans-Serif" font-size="10.00">TemperatureController.h</text>
</a>
</g>
</g>
<!-- Node2&#45;&gt;Node8 -->
<g id="edge7_Node000002_Node000008" class="edge">
<title>Node2&#45;&gt;Node8</title>
<g id="a_edge7_Node000002_Node000008"><a xlink:title=" ">
<path fill="none" stroke="#63b8ff" d="M868.42,-386.28C830.08,-378.13 773.61,-365.26 725.25,-350.75 674.94,-335.65 618.02,-314 583.14,-300.19"/>
<polygon fill="#63b8ff" stroke="#63b8ff" points="584.61,-297.01 574.03,-296.56 582.02,-303.51 584.61,-297.01"/>
</a>
</g>
</g>
<!-- Node9 -->
<g id="Node000009" class="node">
<title>Node9</title>
<g id="a_Node000009"><a xlink:title=" ">
<polygon fill="#e0e0e0" stroke="#999999" points="682.75,-74.5 639.75,-74.5 639.75,-55.25 682.75,-55.25 682.75,-74.5"/>
<text xml:space="preserve" text-anchor="middle" x="661.25" y="-61" font-family="Helvetica,sans-Serif" font-size="10.00">vector</text>
</a>
</g>
</g>
<!-- Node2&#45;&gt;Node9 -->
<g id="edge60_Node000002_Node000009" class="edge">
<title>Node2&#45;&gt;Node9</title>
<g id="a_edge60_Node000002_Node000009"><a xlink:title=" ">
<path fill="none" stroke="#63b8ff" d="M868.07,-393.68C833.62,-390 787.29,-379.53 758.25,-350.75 737.21,-329.9 739.25,-316.49 739.25,-286.88 739.25,-286.88 739.25,-286.88 739.25,-229.62 739.25,-214.04 692.62,-124.67 671.47,-84.93"/>
<polygon fill="#63b8ff" stroke="#63b8ff" points="674.64,-83.43 666.84,-76.26 668.47,-86.73 674.64,-83.43"/>
</a>
</g>
</g>
<!-- Node15 -->
<g id="Node000015" class="node">
<title>Node15</title>
<g id="a_Node000015"><a xlink:href="_logger_manager_8h.html" target="_top" xlink:title="Comprehensive data and event logging system for temperature monitoring.">
<polygon fill="white" stroke="#666666" points="1174.38,-129.75 1084.12,-129.75 1084.12,-110.5 1174.38,-110.5 1174.38,-129.75"/>
<text xml:space="preserve" text-anchor="middle" x="1129.25" y="-116.25" font-family="Helvetica,sans-Serif" font-size="10.00">LoggerManager.h</text>
</a>
</g>
</g>
<!-- Node2&#45;&gt;Node15 -->
<g id="edge59_Node000002_Node000015" class="edge">
<title>Node2&#45;&gt;Node15</title>
<g id="a_edge59_Node000002_Node000015"><a xlink:title=" ">
<path fill="none" stroke="#63b8ff" d="M958.19,-392.76C1063.09,-385.42 1315.25,-360.16 1315.25,-286.88 1315.25,-286.88 1315.25,-286.88 1315.25,-229.62 1315.25,-168.94 1240.47,-141.59 1185.75,-129.7"/>
<polygon fill="#63b8ff" stroke="#63b8ff" points="1186.73,-126.33 1176.23,-127.76 1185.33,-133.19 1186.73,-126.33"/>
</a>
</g>
</g>
<!-- Node34 -->
<g id="Node000034" class="node">
<title>Node34</title>
<g id="a_Node000034"><a xlink:href="_c_s_v_config_manager_8h.html" target="_top" xlink:title="CSV configuration import/export manager for measurement points and alarms.">
<polygon fill="white" stroke="#666666" points="110.5,-350.75 0,-350.75 0,-331.5 110.5,-331.5 110.5,-350.75"/>
<text xml:space="preserve" text-anchor="middle" x="55.25" y="-337.25" font-family="Helvetica,sans-Serif" font-size="10.00">CSVConfigManager.h</text>
</a>
</g>
</g>
<!-- Node2&#45;&gt;Node34 -->
<g id="edge52_Node000002_Node000034" class="edge">
<title>Node2&#45;&gt;Node34</title>
<g id="a_edge52_Node000002_Node000034"><a xlink:title=" ">
<path fill="none" stroke="#63b8ff" d="M868.25,-393.9C747.57,-389.71 406.75,-376.37 124.25,-350.75 123.57,-350.69 122.89,-350.63 122.21,-350.56"/>
<polygon fill="#63b8ff" stroke="#63b8ff" points="122.76,-347.1 112.46,-349.57 122.05,-354.06 122.76,-347.1"/>
</a>
</g>
</g>
<!-- Node36 -->
<g id="Node000036" class="node">
<title>Node36</title>
<g id="a_Node000036"><a xlink:href="_settings_c_s_v_manager_8h.html" target="_top" xlink:title="CSV import/export manager for system settings.">
<polygon fill="white" stroke="#666666" points="885.25,-350.75 767.25,-350.75 767.25,-331.5 885.25,-331.5 885.25,-350.75"/>
<text xml:space="preserve" text-anchor="middle" x="826.25" y="-337.25" font-family="Helvetica,sans-Serif" font-size="10.00">SettingsCSVManager.h</text>
</a>
</g>
</g>
<!-- Node2&#45;&gt;Node36 -->
<g id="edge56_Node000002_Node000036" class="edge">
<title>Node2&#45;&gt;Node36</title>
<g id="a_edge56_Node000002_Node000036"><a xlink:title=" ">
<path fill="none" stroke="#63b8ff" d="M898.49,-386.34C885.37,-378.31 865.93,-366.41 850.52,-356.98"/>
<polygon fill="#63b8ff" stroke="#63b8ff" points="852.73,-354.23 842.37,-351.99 849.07,-360.2 852.73,-354.23"/>
</a>
</g>
</g>
<!-- Node8&#45;&gt;Node3 -->
<g id="edge8_Node000008_Node000003" class="edge">
<title>Node8&#45;&gt;Node3</title>
<g id="a_edge8_Node000008_Node000003"><a xlink:title=" ">
<path fill="none" stroke="#63b8ff" d="M532.29,-275.83C500.54,-258.43 438.62,-217.39 447.25,-165.75 456.33,-111.45 464.98,-94.83 503.25,-55.25 514.12,-44 528.14,-33.64 540.1,-25.74"/>
<polygon fill="#63b8ff" stroke="#63b8ff" points="541.72,-28.86 548.26,-20.54 537.95,-22.96 541.72,-28.86"/>
</a>
</g>
</g>
<!-- Node8&#45;&gt;Node9 -->
<g id="edge9_Node000008_Node000009" class="edge">
<title>Node8&#45;&gt;Node9</title>
<g id="a_edge9_Node000008_Node000009"><a xlink:title=" ">
<path fill="none" stroke="#63b8ff" d="M610.48,-279.96C637.01,-274.45 665.82,-263.15 682.25,-240.25 701.55,-213.35 691.54,-197.53 682.25,-165.75 676.93,-147.53 664.57,-147.97 659.25,-129.75 656.85,-121.54 659.06,-119.05 659.25,-110.5 659.43,-102.55 659.78,-93.82 660.15,-86.2"/>
<polygon fill="#63b8ff" stroke="#63b8ff" points="663.64,-86.44 660.66,-76.27 656.65,-86.08 663.64,-86.44"/>
</a>
</g>
</g>
<!-- Node10 -->
<g id="Node000010" class="node">
<title>Node10</title>
<g id="a_Node000010"><a xlink:href="_sensor_8h.html" target="_top" xlink:title="Temperature sensor abstraction layer.">
<polygon fill="white" stroke="#666666" points="359.38,-129.75 305.12,-129.75 305.12,-110.5 359.38,-110.5 359.38,-129.75"/>
<text xml:space="preserve" text-anchor="middle" x="332.25" y="-116.25" font-family="Helvetica,sans-Serif" font-size="10.00">Sensor.h</text>
</a>
</g>
</g>
<!-- Node8&#45;&gt;Node10 -->
<g id="edge10_Node000008_Node000010" class="edge">
<title>Node8&#45;&gt;Node10</title>
<g id="a_edge10_Node000008_Node000010"><a xlink:title=" ">
<path fill="none" stroke="#63b8ff" d="M490.14,-281.65C455.35,-276.9 412.74,-265.79 383.25,-240.25 353.44,-214.43 340.54,-168.11 335.37,-141.47"/>
<polygon fill="#63b8ff" stroke="#63b8ff" points="338.82,-140.9 333.67,-131.65 331.93,-142.1 338.82,-140.9"/>
</a>
</g>
</g>
<!-- Node11 -->
<g id="Node000011" class="node">
<title>Node11</title>
<g id="a_Node000011"><a xlink:title=" ">
<polygon fill="#e0e0e0" stroke="#999999" points="169.5,-74.5 107,-74.5 107,-55.25 169.5,-55.25 169.5,-74.5"/>
<text xml:space="preserve" text-anchor="middle" x="138.25" y="-61" font-family="Helvetica,sans-Serif" font-size="10.00">OneWire.h</text>
</a>
</g>
</g>
<!-- Node8&#45;&gt;Node11 -->
<g id="edge48_Node000008_Node000011" class="edge">
<title>Node8&#45;&gt;Node11</title>
<g id="a_edge48_Node000008_Node000011"><a xlink:title=" ">
<path fill="none" stroke="#63b8ff" d="M490.34,-280.66C445.87,-275.61 384.79,-264.53 336.25,-240.25 256.12,-200.17 182.84,-119.53 152.73,-83.72"/>
<polygon fill="#63b8ff" stroke="#63b8ff" points="155.45,-81.51 146.38,-76.04 150.06,-85.98 155.45,-81.51"/>
</a>
</g>
</g>
<!-- Node12 -->
<g id="Node000012" class="node">
<title>Node12</title>
<g id="a_Node000012"><a xlink:title=" ">
<polygon fill="#e0e0e0" stroke="#999999" points="293.25,-74.5 187.25,-74.5 187.25,-55.25 293.25,-55.25 293.25,-74.5"/>
<text xml:space="preserve" text-anchor="middle" x="240.25" y="-61" font-family="Helvetica,sans-Serif" font-size="10.00">DallasTemperature.h</text>
</a>
</g>
</g>
<!-- Node8&#45;&gt;Node12 -->
<g id="edge49_Node000008_Node000012" class="edge">
<title>Node8&#45;&gt;Node12</title>
<g id="a_edge49_Node000008_Node000012"><a xlink:title=" ">
<path fill="none" stroke="#63b8ff" d="M490.36,-281.6C451.06,-276.96 400.13,-265.98 362.25,-240.25 303.23,-200.16 263.83,-121.34 248.04,-85.02"/>
<polygon fill="#63b8ff" stroke="#63b8ff" points="251.44,-84.08 244.33,-76.22 244.99,-86.8 251.44,-84.08"/>
</a>
</g>
</g>
<!-- Node14 -->
<g id="Node000014" class="node">
<title>Node14</title>
<g id="a_Node000014"><a xlink:href="_measurement_point_8h.html" target="_top" xlink:title="Measurement point abstraction for temperature monitoring system.">
<polygon fill="white" stroke="#666666" points="569.25,-185 463.25,-185 463.25,-165.75 569.25,-165.75 569.25,-185"/>
<text xml:space="preserve" text-anchor="middle" x="516.25" y="-171.5" font-family="Helvetica,sans-Serif" font-size="10.00">MeasurementPoint.h</text>
</a>
</g>
</g>
<!-- Node8&#45;&gt;Node14 -->
<g id="edge15_Node000008_Node000014" class="edge">
<title>Node8&#45;&gt;Node14</title>
<g id="a_edge15_Node000008_Node000014"><a xlink:title=" ">
<path fill="none" stroke="#63b8ff" d="M540.64,-276.04C532.38,-267.72 521.05,-254.46 516.25,-240.25 511.52,-226.22 511.72,-209.46 513,-196.62"/>
<polygon fill="#63b8ff" stroke="#63b8ff" points="516.45,-197.22 514.29,-186.84 509.51,-196.3 516.45,-197.22"/>
</a>
</g>
</g>
<!-- Node8&#45;&gt;Node24 -->
<g id="edge50_Node000008_Node000024" class="edge">
<title>Node8&#45;&gt;Node24</title>
<g id="a_edge50_Node000008_Node000024"><a xlink:title=" ">
<path fill="none" stroke="#63b8ff" d="M610.36,-281.36C799.49,-268.87 1375.72,-219.3 1475.25,-74.5 1487.96,-56 1466.01,-37.45 1445.37,-25.14"/>
<polygon fill="#63b8ff" stroke="#63b8ff" points="1447.26,-22.19 1436.82,-20.37 1443.84,-28.3 1447.26,-22.19"/>
</a>
</g>
</g>
<!-- Node25 -->
<g id="Node000025" class="node">
<title>Node25</title>
<g id="a_Node000025"><a xlink:href="_register_map_8h.html" target="_top" xlink:title="Modbus register mapping for temperature monitoring system.">
<polygon fill="white" stroke="#666666" points="673.12,-240.25 593.38,-240.25 593.38,-221 673.12,-221 673.12,-240.25"/>
<text xml:space="preserve" text-anchor="middle" x="633.25" y="-226.75" font-family="Helvetica,sans-Serif" font-size="10.00">RegisterMap.h</text>
</a>
</g>
</g>
<!-- Node8&#45;&gt;Node25 -->
<g id="edge31_Node000008_Node000025" class="edge">
<title>Node8&#45;&gt;Node25</title>
<g id="a_edge31_Node000008_Node000025"><a xlink:title=" ">
<path fill="none" stroke="#63b8ff" d="M564.33,-275.84C576.73,-267.89 595.04,-256.14 609.68,-246.75"/>
<polygon fill="#63b8ff" stroke="#63b8ff" points="611.3,-249.87 617.83,-241.52 607.52,-243.97 611.3,-249.87"/>
</a>
</g>
</g>
<!-- Node27 -->
<g id="Node000027" class="node">
<title>Node27</title>
<g id="a_Node000027"><a xlink:href="_indicator_interface_8h.html" target="_top" xlink:title="Hardware interface for PCF8575 I/O expander and SH1106 OLED display.">
<polygon fill="white" stroke="#666666" points="937.25,-185 837.25,-185 837.25,-165.75 937.25,-165.75 937.25,-185"/>
<text xml:space="preserve" text-anchor="middle" x="887.25" y="-171.5" font-family="Helvetica,sans-Serif" font-size="10.00">IndicatorInterface.h</text>
</a>
</g>
</g>
<!-- Node8&#45;&gt;Node27 -->
<g id="edge34_Node000008_Node000027" class="edge">
<title>Node8&#45;&gt;Node27</title>
<g id="a_edge34_Node000008_Node000027"><a xlink:title=" ">
<path fill="none" stroke="#63b8ff" d="M587.56,-275.82C621.19,-267.42 671.87,-254.14 715.25,-240.25 764.39,-224.52 820.2,-203.12 854.57,-189.53"/>
<polygon fill="#63b8ff" stroke="#63b8ff" points="855.53,-192.91 863.53,-185.97 852.95,-186.41 855.53,-192.91"/>
</a>
</g>
</g>
<!-- Node32 -->
<g id="Node000032" class="node">
<title>Node32</title>
<g id="a_Node000032"><a xlink:href="_alarm_8h.html" target="_top" xlink:title="Alarm management system for temperature monitoring.">
<polygon fill="white" stroke="#666666" points="575.12,-240.25 525.38,-240.25 525.38,-221 575.12,-221 575.12,-240.25"/>
<text xml:space="preserve" text-anchor="middle" x="550.25" y="-226.75" font-family="Helvetica,sans-Serif" font-size="10.00">Alarm.h</text>
</a>
</g>
</g>
<!-- Node8&#45;&gt;Node32 -->
<g id="edge43_Node000008_Node000032" class="edge">
<title>Node8&#45;&gt;Node32</title>
<g id="a_edge43_Node000008_Node000032"><a xlink:title=" ">
<path fill="none" stroke="#63b8ff" d="M550.25,-276.08C550.25,-269.57 550.25,-260.42 550.25,-252.12"/>
<polygon fill="#63b8ff" stroke="#63b8ff" points="553.75,-252.12 550.25,-242.12 546.75,-252.12 553.75,-252.12"/>
</a>
</g>
</g>
<!-- Node8&#45;&gt;Node33 -->
<g id="edge51_Node000008_Node000033" class="edge">
<title>Node8&#45;&gt;Node33</title>
<g id="a_edge51_Node000008_Node000033"><a xlink:title=" ">
<path fill="none" stroke="#63b8ff" d="M610.35,-282.22C736.6,-276.43 1038.57,-261.47 1291.25,-240.25 1304.47,-239.14 1318.88,-237.67 1331.79,-236.25"/>
<polygon fill="#63b8ff" stroke="#63b8ff" points="1332.09,-239.74 1341.64,-235.15 1331.31,-232.79 1332.09,-239.74"/>
</a>
</g>
</g>
<!-- Node10&#45;&gt;Node3 -->
<g id="edge11_Node000010_Node000003" class="edge">
<title>Node10&#45;&gt;Node3</title>
<g id="a_edge11_Node000010_Node000003"><a xlink:title=" ">
<path fill="none" stroke="#63b8ff" d="M330.47,-110.38C328.23,-96.71 326.24,-70.3 340.25,-55.25 364.81,-28.87 467.15,-17.48 524.98,-13.08"/>
<polygon fill="#63b8ff" stroke="#63b8ff" points="525.03,-16.58 534.75,-12.37 524.52,-9.6 525.03,-16.58"/>
</a>
</g>
</g>
<!-- Node10&#45;&gt;Node11 -->
<g id="edge12_Node000010_Node000011" class="edge">
<title>Node10&#45;&gt;Node11</title>
<g id="a_edge12_Node000010_Node000011"><a xlink:title=" ">
<path fill="none" stroke="#63b8ff" d="M304.87,-111.61C272.45,-102.71 218.11,-87.8 180.34,-77.43"/>
<polygon fill="#63b8ff" stroke="#63b8ff" points="181.7,-74.17 171.13,-74.9 179.85,-80.92 181.7,-74.17"/>
</a>
</g>
</g>
<!-- Node10&#45;&gt;Node12 -->
<g id="edge13_Node000010_Node000012" class="edge">
<title>Node10&#45;&gt;Node12</title>
<g id="a_edge13_Node000010_Node000012"><a xlink:title=" ">
<path fill="none" stroke="#63b8ff" d="M316.64,-110.09C302.63,-101.98 281.82,-89.93 265.45,-80.46"/>
<polygon fill="#63b8ff" stroke="#63b8ff" points="267.65,-77.69 257.24,-75.71 264.14,-83.75 267.65,-77.69"/>
</a>
</g>
</g>
<!-- Node13 -->
<g id="Node000013" class="node">
<title>Node13</title>
<g id="a_Node000013"><a xlink:title=" ">
<polygon fill="#e0e0e0" stroke="#999999" points="460.88,-74.5 349.62,-74.5 349.62,-55.25 460.88,-55.25 460.88,-74.5"/>
<text xml:space="preserve" text-anchor="middle" x="405.25" y="-61" font-family="Helvetica,sans-Serif" font-size="10.00">Adafruit_MAX31865.h</text>
</a>
</g>
</g>
<!-- Node10&#45;&gt;Node13 -->
<g id="edge14_Node000010_Node000013" class="edge">
<title>Node10&#45;&gt;Node13</title>
<g id="a_edge14_Node000010_Node000013"><a xlink:title=" ">
<path fill="none" stroke="#63b8ff" d="M344.63,-110.09C355.4,-102.24 371.22,-90.7 384,-81.37"/>
<polygon fill="#63b8ff" stroke="#63b8ff" points="385.81,-84.39 391.83,-75.67 381.69,-78.73 385.81,-84.39"/>
</a>
</g>
</g>
<!-- Node14&#45;&gt;Node3 -->
<g id="edge16_Node000014_Node000003" class="edge">
<title>Node14&#45;&gt;Node3</title>
<g id="a_edge16_Node000014_Node000003"><a xlink:title=" ">
<path fill="none" stroke="#63b8ff" d="M518.88,-165.57C526.5,-140.14 548.65,-66.1 559.34,-30.37"/>
<polygon fill="#63b8ff" stroke="#63b8ff" points="562.65,-31.51 562.17,-20.92 555.95,-29.5 562.65,-31.51"/>
</a>
</g>
</g>
<!-- Node14&#45;&gt;Node10 -->
<g id="edge17_Node000014_Node000010" class="edge">
<title>Node14&#45;&gt;Node10</title>
<g id="a_edge17_Node000014_Node000010"><a xlink:title=" ">
<path fill="none" stroke="#63b8ff" d="M485.04,-165.34C453.44,-156.2 404.53,-142.04 370.59,-132.22"/>
<polygon fill="#63b8ff" stroke="#63b8ff" points="371.74,-128.91 361.16,-129.49 369.79,-135.63 371.74,-128.91"/>
</a>
</g>
</g>
<!-- Node14&#45;&gt;Node15 -->
<g id="edge18_Node000014_Node000015" class="edge">
<title>Node14&#45;&gt;Node15</title>
<g id="a_edge18_Node000014_Node000015"><a xlink:title=" ">
<path fill="none" stroke="#63b8ff" d="M569.7,-169.69C584.75,-168.39 601.14,-166.99 616.25,-165.75 816.5,-149.26 870.13,-153.73 1072.59,-129.98"/>
<polygon fill="#63b8ff" stroke="#63b8ff" points="1072.89,-133.47 1082.41,-128.81 1072.07,-126.51 1072.89,-133.47"/>
</a>
</g>
</g>
<!-- Node15&#45;&gt;Node3 -->
<g id="edge19_Node000015_Node000003" class="edge">
<title>Node15&#45;&gt;Node3</title>
<g id="a_edge19_Node000015_Node000003"><a xlink:title=" ">
<path fill="none" stroke="#63b8ff" d="M1083.63,-110.16C1020.29,-97.73 902.09,-74.6 801.25,-55.25 732.54,-42.06 652.52,-26.99 605.53,-18.17"/>
<polygon fill="#63b8ff" stroke="#63b8ff" points="606.29,-14.75 595.81,-16.35 605,-21.63 606.29,-14.75"/>
</a>
</g>
</g>
<!-- Node15&#45;&gt;Node9 -->
<g id="edge30_Node000015_Node000009" class="edge">
<title>Node15&#45;&gt;Node9</title>
<g id="a_edge30_Node000015_Node000009"><a xlink:title=" ">
<path fill="none" stroke="#63b8ff" d="M1083.9,-111.71C1080.98,-111.28 1078.07,-110.88 1075.25,-110.5 933.68,-91.58 764.04,-75.28 693.98,-68.83"/>
<polygon fill="#63b8ff" stroke="#63b8ff" points="694.63,-65.38 684.35,-67.95 693.99,-72.35 694.63,-65.38"/>
</a>
</g>
</g>
<!-- Node16 -->
<g id="Node000016" class="node">
<title>Node16</title>
<g id="a_Node000016"><a xlink:title=" ">
<polygon fill="#e0e0e0" stroke="#999999" points="1027.75,-74.5 990.75,-74.5 990.75,-55.25 1027.75,-55.25 1027.75,-74.5"/>
<text xml:space="preserve" text-anchor="middle" x="1009.25" y="-61" font-family="Helvetica,sans-Serif" font-size="10.00">FS.h</text>
</a>
</g>
</g>
<!-- Node15&#45;&gt;Node16 -->
<g id="edge20_Node000015_Node000016" class="edge">
<title>Node15&#45;&gt;Node16</title>
<g id="a_edge20_Node000015_Node000016"><a xlink:title=" ">
<path fill="none" stroke="#63b8ff" d="M1108.89,-110.09C1089.56,-101.51 1060.28,-88.52 1038.46,-78.84"/>
<polygon fill="#63b8ff" stroke="#63b8ff" points="1040.07,-75.72 1029.51,-74.86 1037.23,-82.12 1040.07,-75.72"/>
</a>
</g>
</g>
<!-- Node17 -->
<g id="Node000017" class="node">
<title>Node17</title>
<g id="a_Node000017"><a xlink:title=" ">
<polygon fill="#e0e0e0" stroke="#999999" points="972.5,-74.5 934,-74.5 934,-55.25 972.5,-55.25 972.5,-74.5"/>
<text xml:space="preserve" text-anchor="middle" x="953.25" y="-61" font-family="Helvetica,sans-Serif" font-size="10.00">SD.h</text>
</a>
</g>
</g>
<!-- Node15&#45;&gt;Node17 -->
<g id="edge21_Node000015_Node000017" class="edge">
<title>Node15&#45;&gt;Node17</title>
<g id="a_edge21_Node000015_Node000017"><a xlink:title=" ">
<path fill="none" stroke="#63b8ff" d="M1099.39,-110.09C1067.11,-100.32 1015.93,-84.84 983.49,-75.03"/>
<polygon fill="#63b8ff" stroke="#63b8ff" points="984.9,-71.79 974.31,-72.25 982.87,-78.49 984.9,-71.79"/>
</a>
</g>
</g>
<!-- Node18 -->
<g id="Node000018" class="node">
<title>Node18</title>
<g id="a_Node000018"><a xlink:href="_time_manager_8h.html" target="_top" xlink:title="Real&#45;time clock and time synchronization management.">
<polygon fill="white" stroke="#666666" points="1166.62,-74.5 1083.88,-74.5 1083.88,-55.25 1166.62,-55.25 1166.62,-74.5"/>
<text xml:space="preserve" text-anchor="middle" x="1125.25" y="-61" font-family="Helvetica,sans-Serif" font-size="10.00">TimeManager.h</text>
</a>
</g>
</g>
<!-- Node15&#45;&gt;Node18 -->
<g id="edge22_Node000015_Node000018" class="edge">
<title>Node15&#45;&gt;Node18</title>
<g id="a_edge22_Node000015_Node000018"><a xlink:title=" ">
<path fill="none" stroke="#63b8ff" d="M1128.59,-110.33C1128.09,-103.74 1127.4,-94.46 1126.77,-86.07"/>
<polygon fill="#63b8ff" stroke="#63b8ff" points="1130.28,-86.08 1126.04,-76.37 1123.3,-86.6 1130.28,-86.08"/>
</a>
</g>
</g>
<!-- Node18&#45;&gt;Node3 -->
<g id="edge23_Node000018_Node000003" class="edge">
<title>Node18&#45;&gt;Node3</title>
<g id="a_edge23_Node000018_Node000003"><a xlink:title=" ">
<path fill="none" stroke="#63b8ff" d="M1083.55,-57.03C1079.07,-56.39 1074.57,-55.78 1070.25,-55.25 897.95,-34.15 691.4,-19.08 605.64,-13.27"/>
<polygon fill="#63b8ff" stroke="#63b8ff" points="606.08,-9.79 595.87,-12.61 605.61,-16.77 606.08,-9.79"/>
</a>
</g>
</g>
<!-- Node19 -->
<g id="Node000019" class="node">
<title>Node19</title>
<g id="a_Node000019"><a xlink:title=" ">
<polygon fill="#e0e0e0" stroke="#999999" points="1278.5,-19.25 1234,-19.25 1234,0 1278.5,0 1278.5,-19.25"/>
<text xml:space="preserve" text-anchor="middle" x="1256.25" y="-5.75" font-family="Helvetica,sans-Serif" font-size="10.00">WiFi.h</text>
</a>
</g>
</g>
<!-- Node18&#45;&gt;Node19 -->
<g id="edge24_Node000018_Node000019" class="edge">
<title>Node18&#45;&gt;Node19</title>
<g id="a_edge24_Node000018_Node000019"><a xlink:title=" ">
<path fill="none" stroke="#63b8ff" d="M1147.47,-54.84C1168.27,-46.39 1199.6,-33.65 1223.3,-24.02"/>
<polygon fill="#63b8ff" stroke="#63b8ff" points="1224.57,-27.28 1232.52,-20.27 1221.93,-20.8 1224.57,-27.28"/>
</a>
</g>
</g>
<!-- Node20 -->
<g id="Node000020" class="node">
<title>Node20</title>
<g id="a_Node000020"><a xlink:title=" ">
<polygon fill="#e0e0e0" stroke="#999999" points="1215.5,-19.25 1171,-19.25 1171,0 1215.5,0 1215.5,-19.25"/>
<text xml:space="preserve" text-anchor="middle" x="1193.25" y="-5.75" font-family="Helvetica,sans-Serif" font-size="10.00">Wire.h</text>
</a>
</g>
</g>
<!-- Node18&#45;&gt;Node20 -->
<g id="edge25_Node000018_Node000020" class="edge">
<title>Node18&#45;&gt;Node20</title>
<g id="a_edge25_Node000018_Node000020"><a xlink:title=" ">
<path fill="none" stroke="#63b8ff" d="M1136.79,-54.84C1146.71,-47.07 1161.26,-35.67 1173.11,-26.4"/>
<polygon fill="#63b8ff" stroke="#63b8ff" points="1174.98,-29.38 1180.69,-20.46 1170.66,-23.87 1174.98,-29.38"/>
</a>
</g>
</g>
<!-- Node21 -->
<g id="Node000021" class="node">
<title>Node21</title>
<g id="a_Node000021"><a xlink:title=" ">
<polygon fill="#e0e0e0" stroke="#999999" points="1152.75,-19.25 1097.75,-19.25 1097.75,0 1152.75,0 1152.75,-19.25"/>
<text xml:space="preserve" text-anchor="middle" x="1125.25" y="-5.75" font-family="Helvetica,sans-Serif" font-size="10.00">RTClib.h</text>
</a>
</g>
</g>
<!-- Node18&#45;&gt;Node21 -->
<g id="edge26_Node000018_Node000021" class="edge">
<title>Node18&#45;&gt;Node21</title>
<g id="a_edge26_Node000018_Node000021"><a xlink:title=" ">
<path fill="none" stroke="#63b8ff" d="M1125.25,-55.08C1125.25,-48.57 1125.25,-39.42 1125.25,-31.12"/>
<polygon fill="#63b8ff" stroke="#63b8ff" points="1128.75,-31.12 1125.25,-21.12 1121.75,-31.12 1128.75,-31.12"/>
</a>
</g>
</g>
<!-- Node22 -->
<g id="Node000022" class="node">
<title>Node22</title>
<g id="a_Node000022"><a xlink:title=" ">
<polygon fill="#e0e0e0" stroke="#999999" points="999.25,-19.25 929.25,-19.25 929.25,0 999.25,0 999.25,-19.25"/>
<text xml:space="preserve" text-anchor="middle" x="964.25" y="-5.75" font-family="Helvetica,sans-Serif" font-size="10.00">NTPClient.h</text>
</a>
</g>
</g>
<!-- Node18&#45;&gt;Node22 -->
<g id="edge27_Node000018_Node000022" class="edge">
<title>Node18&#45;&gt;Node22</title>
<g id="a_edge27_Node000018_Node000022"><a xlink:title=" ">
<path fill="none" stroke="#63b8ff" d="M1097.94,-54.84C1071.69,-46.16 1031.77,-32.96 1002.39,-23.24"/>
<polygon fill="#63b8ff" stroke="#63b8ff" points="1003.73,-19.99 993.13,-20.18 1001.53,-26.64 1003.73,-19.99"/>
</a>
</g>
</g>
<!-- Node23 -->
<g id="Node000023" class="node">
<title>Node23</title>
<g id="a_Node000023"><a xlink:title=" ">
<polygon fill="#e0e0e0" stroke="#999999" points="1079.5,-19.25 1017,-19.25 1017,0 1079.5,0 1079.5,-19.25"/>
<text xml:space="preserve" text-anchor="middle" x="1048.25" y="-5.75" font-family="Helvetica,sans-Serif" font-size="10.00">WiFiUdp.h</text>
</a>
</g>
</g>
<!-- Node18&#45;&gt;Node23 -->
<g id="edge28_Node000018_Node000023" class="edge">
<title>Node18&#45;&gt;Node23</title>
<g id="a_edge28_Node000018_Node000023"><a xlink:title=" ">
<path fill="none" stroke="#63b8ff" d="M1112.19,-54.84C1100.79,-46.96 1084.02,-35.36 1070.51,-26.02"/>
<polygon fill="#63b8ff" stroke="#63b8ff" points="1072.84,-23.37 1062.62,-20.56 1068.85,-29.13 1072.84,-23.37"/>
</a>
</g>
</g>
<!-- Node18&#45;&gt;Node24 -->
<g id="edge29_Node000018_Node000024" class="edge">
<title>Node18&#45;&gt;Node24</title>
<g id="a_edge29_Node000018_Node000024"><a xlink:title=" ">
<path fill="none" stroke="#63b8ff" d="M1166.94,-56.25C1219.43,-46.64 1309.53,-30.15 1365.83,-19.85"/>
<polygon fill="#63b8ff" stroke="#63b8ff" points="1366.27,-23.33 1375.48,-18.09 1365.01,-16.44 1366.27,-23.33"/>
</a>
</g>
</g>
<!-- Node25&#45;&gt;Node14 -->
<g id="edge33_Node000025_Node000014" class="edge">
<title>Node25&#45;&gt;Node14</title>
<g id="a_edge33_Node000025_Node000014"><a xlink:title=" ">
<path fill="none" stroke="#63b8ff" d="M613.4,-220.59C595.08,-212.25 567.6,-199.75 546.54,-190.16"/>
<polygon fill="#63b8ff" stroke="#63b8ff" points="548.12,-187.04 537.57,-186.08 545.22,-193.41 548.12,-187.04"/>
</a>
</g>
</g>
<!-- Node26 -->
<g id="Node000026" class="node">
<title>Node26</title>
<g id="a_Node000026"><a xlink:title=" ">
<polygon fill="#e0e0e0" stroke="#999999" points="673.38,-185 625.12,-185 625.12,-165.75 673.38,-165.75 673.38,-185"/>
<text xml:space="preserve" text-anchor="middle" x="649.25" y="-171.5" font-family="Helvetica,sans-Serif" font-size="10.00">stdint.h</text>
</a>
</g>
</g>
<!-- Node25&#45;&gt;Node26 -->
<g id="edge32_Node000025_Node000026" class="edge">
<title>Node25&#45;&gt;Node26</title>
<g id="a_edge32_Node000025_Node000026"><a xlink:title=" ">
<path fill="none" stroke="#63b8ff" d="M635.89,-220.83C637.89,-214.17 640.73,-204.74 643.27,-196.28"/>
<polygon fill="#63b8ff" stroke="#63b8ff" points="646.59,-197.39 646.11,-186.81 639.89,-195.38 646.59,-197.39"/>
</a>
</g>
</g>
<!-- Node27&#45;&gt;Node3 -->
<g id="edge35_Node000027_Node000003" class="edge">
<title>Node27&#45;&gt;Node3</title>
<g id="a_edge35_Node000027_Node000003"><a xlink:title=" ">
<path fill="none" stroke="#63b8ff" d="M867.82,-165.32C850.9,-157.06 826.06,-144 806.25,-129.75 766.54,-101.19 767.99,-79.03 725.25,-55.25 687.49,-34.24 639.12,-22.54 605.5,-16.44"/>
<polygon fill="#63b8ff" stroke="#63b8ff" points="606.2,-13.01 595.75,-14.77 605.02,-19.91 606.2,-13.01"/>
</a>
</g>
</g>
<!-- Node27&#45;&gt;Node9 -->
<g id="edge41_Node000027_Node000009" class="edge">
<title>Node27&#45;&gt;Node9</title>
<g id="a_edge41_Node000027_Node000009"><a xlink:title=" ">
<path fill="none" stroke="#63b8ff" d="M860.99,-165.32C837.58,-156.97 802.59,-143.77 773.25,-129.75 741.86,-114.76 707.32,-94.43 685.01,-80.77"/>
<polygon fill="#63b8ff" stroke="#63b8ff" points="687.02,-77.9 676.68,-75.62 683.35,-83.86 687.02,-77.9"/>
</a>
</g>
</g>
<!-- Node27&#45;&gt;Node15 -->
<g id="edge42_Node000027_Node000015" class="edge">
<title>Node27&#45;&gt;Node15</title>
<g id="a_edge42_Node000027_Node000015"><a xlink:title=" ">
<path fill="none" stroke="#63b8ff" d="M928.58,-165.28C969.56,-156.26 1032.49,-142.42 1076.93,-132.64"/>
<polygon fill="#63b8ff" stroke="#63b8ff" points="1077.6,-136.07 1086.62,-130.51 1076.1,-129.24 1077.6,-136.07"/>
</a>
</g>
</g>
<!-- Node27&#45;&gt;Node20 -->
<g id="edge36_Node000027_Node000020" class="edge">
<title>Node27&#45;&gt;Node20</title>
<g id="a_edge36_Node000027_Node000020"><a xlink:title=" ">
<path fill="none" stroke="#63b8ff" d="M937.49,-174.03C1013.08,-172.37 1150.71,-164.51 1183.25,-129.75 1208.12,-103.19 1203.61,-57.14 1198.31,-30.75"/>
<polygon fill="#63b8ff" stroke="#63b8ff" points="1201.73,-30 1196.1,-21.02 1194.9,-31.55 1201.73,-30"/>
</a>
</g>
</g>
<!-- Node28 -->
<g id="Node000028" class="node">
<title>Node28</title>
<g id="a_Node000028"><a xlink:title=" ">
<polygon fill="#e0e0e0" stroke="#999999" points="849.62,-129.75 814.88,-129.75 814.88,-110.5 849.62,-110.5 849.62,-129.75"/>
<text xml:space="preserve" text-anchor="middle" x="832.25" y="-116.25" font-family="Helvetica,sans-Serif" font-size="10.00">map</text>
</a>
</g>
</g>
<!-- Node27&#45;&gt;Node28 -->
<g id="edge37_Node000027_Node000028" class="edge">
<title>Node27&#45;&gt;Node28</title>
<g id="a_edge37_Node000027_Node000028"><a xlink:title=" ">
<path fill="none" stroke="#63b8ff" d="M878.17,-165.58C870.41,-158.07 859.04,-147.06 849.55,-137.88"/>
<polygon fill="#63b8ff" stroke="#63b8ff" points="852.24,-135.6 842.62,-131.16 847.37,-140.63 852.24,-135.6"/>
</a>
</g>
</g>
<!-- Node29 -->
<g id="Node000029" class="node">
<title>Node29</title>
<g id="a_Node000029"><a xlink:title=" ">
<polygon fill="#e0e0e0" stroke="#999999" points="907.25,-129.75 867.25,-129.75 867.25,-110.5 907.25,-110.5 907.25,-129.75"/>
<text xml:space="preserve" text-anchor="middle" x="887.25" y="-116.25" font-family="Helvetica,sans-Serif" font-size="10.00">string</text>
</a>
</g>
</g>
<!-- Node27&#45;&gt;Node29 -->
<g id="edge38_Node000027_Node000029" class="edge">
<title>Node27&#45;&gt;Node29</title>
<g id="a_edge38_Node000027_Node000029"><a xlink:title=" ">
<path fill="none" stroke="#63b8ff" d="M887.25,-165.58C887.25,-159.07 887.25,-149.92 887.25,-141.62"/>
<polygon fill="#63b8ff" stroke="#63b8ff" points="890.75,-141.62 887.25,-131.62 883.75,-141.62 890.75,-141.62"/>
</a>
</g>
</g>
<!-- Node30 -->
<g id="Node000030" class="node">
<title>Node30</title>
<g id="a_Node000030"><a xlink:title=" ">
<polygon fill="#e0e0e0" stroke="#999999" points="991,-129.75 925.5,-129.75 925.5,-110.5 991,-110.5 991,-129.75"/>
<text xml:space="preserve" text-anchor="middle" x="958.25" y="-116.25" font-family="Helvetica,sans-Serif" font-size="10.00">PCF8575.h</text>
</a>
</g>
</g>
<!-- Node27&#45;&gt;Node30 -->
<g id="edge39_Node000027_Node000030" class="edge">
<title>Node27&#45;&gt;Node30</title>
<g id="a_edge39_Node000027_Node000030"><a xlink:title=" ">
<path fill="none" stroke="#63b8ff" d="M899.29,-165.34C909.66,-157.57 924.85,-146.17 937.22,-136.9"/>
<polygon fill="#63b8ff" stroke="#63b8ff" points="939.27,-139.73 945.17,-130.93 935.07,-134.13 939.27,-139.73"/>
</a>
</g>
</g>
<!-- Node31 -->
<g id="Node000031" class="node">
<title>Node31</title>
<g id="a_Node000031"><a xlink:title=" ">
<polygon fill="#e0e0e0" stroke="#999999" points="1065.88,-129.75 1008.62,-129.75 1008.62,-110.5 1065.88,-110.5 1065.88,-129.75"/>
<text xml:space="preserve" text-anchor="middle" x="1037.25" y="-116.25" font-family="Helvetica,sans-Serif" font-size="10.00">U8g2lib.h</text>
</a>
</g>
</g>
<!-- Node27&#45;&gt;Node31 -->
<g id="edge40_Node000027_Node000031" class="edge">
<title>Node27&#45;&gt;Node31</title>
<g id="a_edge40_Node000027_Node000031"><a xlink:title=" ">
<path fill="none" stroke="#63b8ff" d="M912.7,-165.34C936.94,-156.74 973.68,-143.69 1000.99,-134"/>
<polygon fill="#63b8ff" stroke="#63b8ff" points="1002,-137.35 1010.25,-130.71 999.66,-130.76 1002,-137.35"/>
</a>
</g>
</g>
<!-- Node32&#45;&gt;Node3 -->
<g id="edge44_Node000032_Node000003" class="edge">
<title>Node32&#45;&gt;Node3</title>
<g id="a_edge44_Node000032_Node000003"><a xlink:title=" ">
<path fill="none" stroke="#63b8ff" d="M525.25,-225.68C502.36,-220.6 469.77,-209.33 454.25,-185 449.65,-177.79 451.64,-173.9 454.25,-165.75 472.71,-108.24 521.2,-53.94 547.57,-27.46"/>
<polygon fill="#63b8ff" stroke="#63b8ff" points="549.83,-30.15 554.51,-20.65 544.92,-25.16 549.83,-30.15"/>
</a>
</g>
</g>
<!-- Node32&#45;&gt;Node9 -->
<g id="edge45_Node000032_Node000009" class="edge">
<title>Node32&#45;&gt;Node9</title>
<g id="a_edge45_Node000032_Node000009"><a xlink:title=" ">
<path fill="none" stroke="#63b8ff" d="M555.93,-220.79C561.65,-211.83 570.7,-197.54 578.25,-185 597.97,-152.25 598.82,-141.46 621.25,-110.5 628.17,-100.95 636.8,-91.11 644.28,-83.11"/>
<polygon fill="#63b8ff" stroke="#63b8ff" points="646.64,-85.7 651.02,-76.06 641.58,-80.86 646.64,-85.7"/>
</a>
</g>
</g>
<!-- Node32&#45;&gt;Node14 -->
<g id="edge46_Node000032_Node000014" class="edge">
<title>Node32&#45;&gt;Node14</title>
<g id="a_edge46_Node000032_Node000014"><a xlink:title=" ">
<path fill="none" stroke="#63b8ff" d="M544.64,-220.83C540.13,-213.78 533.66,-203.65 528.04,-194.83"/>
<polygon fill="#63b8ff" stroke="#63b8ff" points="531.13,-193.18 522.8,-186.63 525.23,-196.95 531.13,-193.18"/>
</a>
</g>
</g>
<!-- Node32&#45;&gt;Node15 -->
<g id="edge47_Node000032_Node000015" class="edge">
<title>Node32&#45;&gt;Node15</title>
<g id="a_edge47_Node000032_Node000015"><a xlink:title=" ">
<path fill="none" stroke="#63b8ff" d="M575.41,-222.8C578.38,-222.12 581.37,-221.51 584.25,-221 743.5,-193.04 788.38,-219.88 946.25,-185 1001.19,-172.86 1062.43,-149.33 1098.3,-134.47"/>
<polygon fill="#63b8ff" stroke="#63b8ff" points="1099.32,-137.83 1107.19,-130.74 1096.61,-131.38 1099.32,-137.83"/>
</a>
</g>
</g>
<!-- Node34&#45;&gt;Node3 -->
<g id="edge53_Node000034_Node000003" class="edge">
<title>Node34&#45;&gt;Node3</title>
<g id="a_edge53_Node000034_Node000003"><a xlink:title=" ">
<path fill="none" stroke="#63b8ff" d="M47.41,-331.13C40.25,-322.5 29.79,-308.86 23.25,-295.5 10.22,-268.9 4.25,-261.24 4.25,-231.62 4.25,-231.62 4.25,-231.62 4.25,-119.12 4.25,-79.87 29.88,-72.28 65.25,-55.25 146.25,-16.25 421.4,-11.13 525.19,-10.61"/>
<polygon fill="#63b8ff" stroke="#63b8ff" points="524.9,-14.11 534.89,-10.57 524.88,-7.11 524.9,-14.11"/>
</a>
</g>
</g>
<!-- Node34&#45;&gt;Node8 -->
<g id="edge55_Node000034_Node000008" class="edge">
<title>Node34&#45;&gt;Node8</title>
<g id="a_edge55_Node000034_Node000008"><a xlink:title=" ">
<path fill="none" stroke="#63b8ff" d="M110.59,-334.17C200.84,-324.46 379.59,-305.23 479.12,-294.53"/>
<polygon fill="#63b8ff" stroke="#63b8ff" points="479.2,-298.04 488.77,-293.49 478.45,-291.08 479.2,-298.04"/>
</a>
</g>
</g>
<!-- Node35 -->
<g id="Node000035" class="node">
<title>Node35</title>
<g id="a_Node000035"><a xlink:title=" ">
<polygon fill="#e0e0e0" stroke="#999999" points="110.38,-295.5 32.12,-295.5 32.12,-276.25 110.38,-276.25 110.38,-295.5"/>
<text xml:space="preserve" text-anchor="middle" x="71.25" y="-282" font-family="Helvetica,sans-Serif" font-size="10.00">CSV_Parser.h</text>
</a>
</g>
</g>
<!-- Node34&#45;&gt;Node35 -->
<g id="edge54_Node000034_Node000035" class="edge">
<title>Node34&#45;&gt;Node35</title>
<g id="a_edge54_Node000034_Node000035"><a xlink:title=" ">
<path fill="none" stroke="#63b8ff" d="M57.89,-331.33C59.89,-324.67 62.73,-315.24 65.27,-306.78"/>
<polygon fill="#63b8ff" stroke="#63b8ff" points="68.59,-307.89 68.11,-297.31 61.89,-305.88 68.59,-307.89"/>
</a>
</g>
</g>
<!-- Node36&#45;&gt;Node3 -->
<g id="edge57_Node000036_Node000003" class="edge">
<title>Node36&#45;&gt;Node3</title>
<g id="a_edge57_Node000036_Node000003"><a xlink:title=" ">
<path fill="none" stroke="#63b8ff" d="M824.65,-331.22C817.25,-292.47 782.71,-136.94 692.25,-55.25 668.12,-33.46 632.71,-22.17 605.4,-16.41"/>
<polygon fill="#63b8ff" stroke="#63b8ff" points="606.22,-13 595.74,-14.55 604.9,-19.88 606.22,-13"/>
</a>
</g>
</g>
<!-- Node36&#45;&gt;Node4 -->
<g id="edge58_Node000036_Node000004" class="edge">
<title>Node36&#45;&gt;Node4</title>
<g id="a_edge58_Node000036_Node000004"><a xlink:title=" ">
<path fill="none" stroke="#63b8ff" d="M835,-331.33C842.4,-323.9 853.21,-313.04 862.3,-303.91"/>
<polygon fill="#63b8ff" stroke="#63b8ff" points="864.67,-306.49 869.24,-296.93 859.71,-301.55 864.67,-306.49"/>
</a>
</g>
</g>
<!-- Node38&#45;&gt;Node3 -->
<g id="edge65_Node000038_Node000003" class="edge">
<title>Node38&#45;&gt;Node3</title>
<g id="a_edge65_Node000038_Node000003"><a xlink:title=" ">
<path fill="none" stroke="#63b8ff" d="M1233.39,-112.61C1191.64,-105.77 1128.1,-93.35 1075.25,-74.5 1057.42,-68.14 1055.44,-60.51 1037.25,-55.25 956.52,-31.9 704.27,-17.41 605.49,-12.5"/>
<polygon fill="#63b8ff" stroke="#63b8ff" points="605.9,-9.01 595.74,-12.02 605.56,-16.01 605.9,-9.01"/>
</a>
</g>
</g>
<!-- Node38&#45;&gt;Node16 -->
<g id="edge71_Node000038_Node000016" class="edge">
<title>Node38&#45;&gt;Node16</title>
<g id="a_edge71_Node000038_Node000016"><a xlink:title=" ">
<path fill="none" stroke="#63b8ff" d="M1233.7,-111.64C1186.11,-103.43 1108.56,-89.42 1042.25,-74.5 1041.24,-74.27 1040.21,-74.04 1039.18,-73.79"/>
<polygon fill="#63b8ff" stroke="#63b8ff" points="1040.06,-70.41 1029.51,-71.39 1038.37,-77.2 1040.06,-70.41"/>
</a>
</g>
</g>
<!-- Node38&#45;&gt;Node17 -->
<g id="edge70_Node000038_Node000017" class="edge">
<title>Node38&#45;&gt;Node17</title>
<g id="a_edge70_Node000038_Node000017"><a xlink:title=" ">
<path fill="none" stroke="#63b8ff" d="M1233.51,-114.35C1177.45,-107.94 1078.3,-95.17 983.99,-74.58"/>
<polygon fill="#63b8ff" stroke="#63b8ff" points="984.81,-71.17 974.29,-72.42 983.29,-78.01 984.81,-71.17"/>
</a>
</g>
</g>
<!-- Node38&#45;&gt;Node19 -->
<g id="edge66_Node000038_Node000019" class="edge">
<title>Node38&#45;&gt;Node19</title>
<g id="a_edge66_Node000038_Node000019"><a xlink:title=" ">
<path fill="none" stroke="#63b8ff" d="M1270.85,-110.25C1264.24,-101.7 1255.05,-88.11 1251.25,-74.5 1247.26,-60.2 1248.79,-43.44 1251.17,-30.68"/>
<polygon fill="#63b8ff" stroke="#63b8ff" points="1254.58,-31.49 1253.33,-20.97 1247.74,-29.97 1254.58,-31.49"/>
</a>
</g>
</g>
<!-- Node38&#45;&gt;Node24 -->
<g id="edge69_Node000038_Node000024" class="edge">
<title>Node38&#45;&gt;Node24</title>
<g id="a_edge69_Node000038_Node000024"><a xlink:title=" ">
<path fill="none" stroke="#63b8ff" d="M1289.15,-110.13C1304.31,-97.66 1332.66,-74.48 1357.25,-55.25 1369.61,-45.58 1383.62,-34.97 1394.88,-26.53"/>
<polygon fill="#63b8ff" stroke="#63b8ff" points="1396.83,-29.44 1402.75,-20.65 1392.64,-23.83 1396.83,-29.44"/>
</a>
</g>
</g>
<!-- Node39 -->
<g id="Node000039" class="node">
<title>Node39</title>
<g id="a_Node000039"><a xlink:title=" ">
<polygon fill="#e0e0e0" stroke="#999999" points="1466.62,-74.5 1365.88,-74.5 1365.88,-55.25 1466.62,-55.25 1466.62,-74.5"/>
<text xml:space="preserve" text-anchor="middle" x="1416.25" y="-61" font-family="Helvetica,sans-Serif" font-size="10.00">WiFiClientSecure.h</text>
</a>
</g>
</g>
<!-- Node38&#45;&gt;Node39 -->
<g id="edge67_Node000038_Node000039" class="edge">
<title>Node38&#45;&gt;Node39</title>
<g id="a_edge67_Node000038_Node000039"><a xlink:title=" ">
<path fill="none" stroke="#63b8ff" d="M1301.66,-110.09C1323.77,-101.56 1357.17,-88.67 1382.22,-79.01"/>
<polygon fill="#63b8ff" stroke="#63b8ff" points="1383.24,-82.36 1391.31,-75.5 1380.72,-75.83 1383.24,-82.36"/>
</a>
</g>
</g>
<!-- Node40 -->
<g id="Node000040" class="node">
<title>Node40</title>
<g id="a_Node000040"><a xlink:title=" ">
<polygon fill="#e0e0e0" stroke="#999999" points="1310.5,-74.5 1260,-74.5 1260,-55.25 1310.5,-55.25 1310.5,-74.5"/>
<text xml:space="preserve" text-anchor="middle" x="1285.25" y="-61" font-family="Helvetica,sans-Serif" font-size="10.00">MQTT.h</text>
</a>
</g>
</g>
<!-- Node38&#45;&gt;Node40 -->
<g id="edge68_Node000038_Node000040" class="edge">
<title>Node38&#45;&gt;Node40</title>
<g id="a_edge68_Node000038_Node000040"><a xlink:title=" ">
<path fill="none" stroke="#63b8ff" d="M1279.41,-110.33C1280.27,-103.74 1281.49,-94.46 1282.59,-86.07"/>
<polygon fill="#63b8ff" stroke="#63b8ff" points="1286.04,-86.73 1283.87,-76.36 1279.1,-85.82 1286.04,-86.73"/>
</a>
</g>
</g>
</g>
</svg>
