<?xml version="1.0" encoding="UTF-8" standalone="no"?>
<!DOCTYPE svg PUBLIC "-//W3C//DTD SVG 1.1//EN"
 "http://www.w3.org/Graphics/SVG/1.1/DTD/svg11.dtd">
<!-- Generated by graphviz version 13.1.0 (20250701.0955)
 -->
<!-- Title: include/ConfigManager.h Pages: 1 -->
<svg width="214pt" height="83pt"
 viewBox="0.00 0.00 214.00 83.00" xmlns="http://www.w3.org/2000/svg" xmlns:xlink="http://www.w3.org/1999/xlink">
<g id="graph0" class="graph" transform="scale(1 1) rotate(0) translate(4 78.5)">
<title>include/ConfigManager.h</title>
<!-- Node1 -->
<g id="Node000001" class="node">
<title>Node1</title>
<g id="a_Node000001"><a xlink:title="Configuration management system for temperature monitoring device.">
<polygon fill="#999999" stroke="#666666" points="175.88,-74.5 52.62,-74.5 52.62,-55.25 175.88,-55.25 175.88,-74.5"/>
<text xml:space="preserve" text-anchor="middle" x="114.25" y="-61" font-family="Helvetica,sans-Serif" font-size="10.00">include/ConfigManager.h</text>
</a>
</g>
</g>
<!-- Node2 -->
<g id="Node000002" class="node">
<title>Node2</title>
<g id="a_Node000002"><a xlink:href="_config_manager_8cpp.html" target="_top" xlink:title="Implementation of web&#45;based configuration management system.">
<polygon fill="white" stroke="#666666" points="116.5,-19.25 0,-19.25 0,0 116.5,0 116.5,-19.25"/>
<text xml:space="preserve" text-anchor="middle" x="58.25" y="-5.75" font-family="Helvetica,sans-Serif" font-size="10.00">src/ConfigManager.cpp</text>
</a>
</g>
</g>
<!-- Node1&#45;&gt;Node2 -->
<g id="edge1_Node000001_Node000002" class="edge">
<title>Node1&#45;&gt;Node2</title>
<g id="a_edge1_Node000001_Node000002"><a xlink:title=" ">
<path fill="none" stroke="#63b8ff" d="M96.62,-47.11C87.01,-37.97 75.5,-27.03 67.61,-19.52"/>
<polygon fill="#63b8ff" stroke="#63b8ff" points="93.99,-49.44 103.65,-53.8 98.82,-44.37 93.99,-49.44"/>
</a>
</g>
</g>
<!-- Node3 -->
<g id="Node000003" class="node">
<title>Node3</title>
<g id="a_Node000003"><a xlink:href="main_8cpp.html" target="_top" xlink:title="Main application entry point for Industrial Temperature Monitoring System.">
<polygon fill="white" stroke="#666666" points="206.38,-19.25 134.12,-19.25 134.12,0 206.38,0 206.38,-19.25"/>
<text xml:space="preserve" text-anchor="middle" x="170.25" y="-5.75" font-family="Helvetica,sans-Serif" font-size="10.00">src/main.cpp</text>
</a>
</g>
</g>
<!-- Node1&#45;&gt;Node3 -->
<g id="edge2_Node000001_Node000003" class="edge">
<title>Node1&#45;&gt;Node3</title>
<g id="a_edge2_Node000001_Node000003"><a xlink:title=" ">
<path fill="none" stroke="#63b8ff" d="M131.88,-47.11C141.49,-37.97 153,-27.03 160.89,-19.52"/>
<polygon fill="#63b8ff" stroke="#63b8ff" points="129.68,-44.37 124.85,-53.8 134.51,-49.44 129.68,-44.37"/>
</a>
</g>
</g>
</g>
</svg>
