<?xml version="1.0" encoding="UTF-8" standalone="no"?>
<!DOCTYPE svg PUBLIC "-//W3C//DTD SVG 1.1//EN"
 "http://www.w3.org/Graphics/SVG/1.1/DTD/svg11.dtd">
<!-- Generated by graphviz version 13.1.0 (20250701.0955)
 -->
<!-- Title: src/ConfigManager.cpp Pages: 1 -->
<svg width="1362pt" height="469pt"
 viewBox="0.00 0.00 1362.00 469.00" xmlns="http://www.w3.org/2000/svg" xmlns:xlink="http://www.w3.org/1999/xlink">
<g id="graph0" class="graph" transform="scale(1 1) rotate(0) translate(4 465.25)">
<title>src/ConfigManager.cpp</title>
<!-- Node1 -->
<g id="Node000001" class="node">
<title>Node1</title>
<g id="a_Node000001"><a xlink:title=" ">
<polygon fill="#999999" stroke="#666666" points="488.38,-461.25 371.88,-461.25 371.88,-442 488.38,-442 488.38,-461.25"/>
<text xml:space="preserve" text-anchor="middle" x="430.12" y="-447.75" font-family="Helvetica,sans-Serif" font-size="10.00">src/ConfigManager.cpp</text>
</a>
</g>
</g>
<!-- Node2 -->
<g id="Node000002" class="node">
<title>Node2</title>
<g id="a_Node000002"><a xlink:href="_config_manager_8h.html" target="_top" xlink:title=" ">
<polygon fill="white" stroke="#666666" points="944.88,-406 855.38,-406 855.38,-386.75 944.88,-386.75 944.88,-406"/>
<text xml:space="preserve" text-anchor="middle" x="900.12" y="-392.5" font-family="Helvetica,sans-Serif" font-size="10.00">ConfigManager.h</text>
</a>
</g>
</g>
<!-- Node1&#45;&gt;Node2 -->
<g id="edge1_Node000001_Node000002" class="edge">
<title>Node1&#45;&gt;Node2</title>
<g id="a_edge1_Node000001_Node000002"><a xlink:title=" ">
<path fill="none" stroke="#63b8ff" d="M488.7,-443.99C579.7,-433.68 753.87,-413.95 843.6,-403.78"/>
<polygon fill="#63b8ff" stroke="#63b8ff" points="843.85,-407.27 853.39,-402.67 843.06,-400.32 843.85,-407.27"/>
</a>
</g>
</g>
<!-- Node24 -->
<g id="Node000024" class="node">
<title>Node24</title>
<g id="a_Node000024"><a xlink:title=" ">
<polygon fill="#e0e0e0" stroke="#999999" points="78.25,-19.25 0,-19.25 0,0 78.25,0 78.25,-19.25"/>
<text xml:space="preserve" text-anchor="middle" x="39.12" y="-5.75" font-family="Helvetica,sans-Serif" font-size="10.00">ArduinoJson.h</text>
</a>
</g>
</g>
<!-- Node1&#45;&gt;Node24 -->
<g id="edge61_Node000001_Node000024" class="edge">
<title>Node1&#45;&gt;Node24</title>
<g id="a_edge61_Node000001_Node000024"><a xlink:title=" ">
<path fill="none" stroke="#63b8ff" d="M371.82,-448.02C254.53,-441.2 1.12,-417.7 1.12,-342.12 1.12,-342.12 1.12,-342.12 1.12,-119.12 1.12,-86.13 16.97,-50.51 28.19,-29.41"/>
<polygon fill="#63b8ff" stroke="#63b8ff" points="31.15,-31.3 32.95,-20.86 25.03,-27.9 31.15,-31.3"/>
</a>
</g>
</g>
<!-- Node3 -->
<g id="Node000003" class="node">
<title>Node3</title>
<g id="a_Node000003"><a xlink:title=" ">
<polygon fill="#e0e0e0" stroke="#999999" points="803.75,-19.25 746.5,-19.25 746.5,0 803.75,0 803.75,-19.25"/>
<text xml:space="preserve" text-anchor="middle" x="775.12" y="-5.75" font-family="Helvetica,sans-Serif" font-size="10.00">Arduino.h</text>
</a>
</g>
</g>
<!-- Node2&#45;&gt;Node3 -->
<g id="edge2_Node000002_Node000003" class="edge">
<title>Node2&#45;&gt;Node3</title>
<g id="a_edge2_Node000002_Node000003"><a xlink:title=" ">
<path fill="none" stroke="#63b8ff" d="M945.22,-392.8C1014.4,-388.1 1142.65,-376.17 1180.12,-350.75 1207.46,-332.21 1218.12,-319.91 1218.12,-286.88 1218.12,-286.88 1218.12,-286.88 1218.12,-119.12 1218.12,-80.78 1194.24,-72.77 1160.12,-55.25 1100.67,-24.71 901.65,-14.7 815.47,-11.74"/>
<polygon fill="#63b8ff" stroke="#63b8ff" points="815.71,-8.25 805.6,-11.42 815.48,-15.24 815.71,-8.25"/>
</a>
</g>
</g>
<!-- Node4 -->
<g id="Node000004" class="node">
<title>Node4</title>
<g id="a_Node000004"><a xlink:title=" ">
<polygon fill="#e0e0e0" stroke="#999999" points="1152.38,-295.5 1071.88,-295.5 1071.88,-276.25 1152.38,-276.25 1152.38,-295.5"/>
<text xml:space="preserve" text-anchor="middle" x="1112.12" y="-282" font-family="Helvetica,sans-Serif" font-size="10.00">ConfigAssist.h</text>
</a>
</g>
</g>
<!-- Node2&#45;&gt;Node4 -->
<g id="edge3_Node000002_Node000004" class="edge">
<title>Node2&#45;&gt;Node4</title>
<g id="a_edge3_Node000002_Node000004"><a xlink:title=" ">
<path fill="none" stroke="#63b8ff" d="M924.14,-386.4C945.92,-378 978.72,-364.69 1006.12,-350.75 1035.75,-335.69 1068.28,-315.51 1089.38,-301.89"/>
<polygon fill="#63b8ff" stroke="#63b8ff" points="1091.02,-305 1097.49,-296.61 1087.2,-299.13 1091.02,-305"/>
</a>
</g>
</g>
<!-- Node5 -->
<g id="Node000005" class="node">
<title>Node5</title>
<g id="a_Node000005"><a xlink:title=" ">
<polygon fill="#e0e0e0" stroke="#999999" points="1354.25,-350.75 1246,-350.75 1246,-331.5 1354.25,-331.5 1354.25,-350.75"/>
<text xml:space="preserve" text-anchor="middle" x="1300.12" y="-337.25" font-family="Helvetica,sans-Serif" font-size="10.00">ConfigAssistHelper.h</text>
</a>
</g>
</g>
<!-- Node2&#45;&gt;Node5 -->
<g id="edge4_Node000002_Node000005" class="edge">
<title>Node2&#45;&gt;Node5</title>
<g id="a_edge4_Node000002_Node000005"><a xlink:title=" ">
<path fill="none" stroke="#63b8ff" d="M945.23,-389.37C1015.87,-379.97 1152.94,-361.72 1234.51,-350.86"/>
<polygon fill="#63b8ff" stroke="#63b8ff" points="1234.68,-354.37 1244.14,-349.58 1233.76,-347.43 1234.68,-354.37"/>
</a>
</g>
</g>
<!-- Node6 -->
<g id="Node000006" class="node">
<title>Node6</title>
<g id="a_Node000006"><a xlink:title=" ">
<polygon fill="#e0e0e0" stroke="#999999" points="423.88,-350.75 352.38,-350.75 352.38,-331.5 423.88,-331.5 423.88,-350.75"/>
<text xml:space="preserve" text-anchor="middle" x="388.12" y="-337.25" font-family="Helvetica,sans-Serif" font-size="10.00">WebServer.h</text>
</a>
</g>
</g>
<!-- Node2&#45;&gt;Node6 -->
<g id="edge5_Node000002_Node000006" class="edge">
<title>Node2&#45;&gt;Node6</title>
<g id="a_edge5_Node000002_Node000006"><a xlink:title=" ">
<path fill="none" stroke="#63b8ff" d="M854.88,-392.47C773.16,-386.92 595.34,-373.44 434.96,-350.87"/>
<polygon fill="#63b8ff" stroke="#63b8ff" points="435.83,-347.46 425.43,-349.52 434.84,-354.39 435.83,-347.46"/>
</a>
</g>
</g>
<!-- Node7 -->
<g id="Node000007" class="node">
<title>Node7</title>
<g id="a_Node000007"><a xlink:title=" ">
<polygon fill="#e0e0e0" stroke="#999999" points="500.12,-350.75 442.12,-350.75 442.12,-331.5 500.12,-331.5 500.12,-350.75"/>
<text xml:space="preserve" text-anchor="middle" x="471.12" y="-337.25" font-family="Helvetica,sans-Serif" font-size="10.00">LittleFS.h</text>
</a>
</g>
</g>
<!-- Node2&#45;&gt;Node7 -->
<g id="edge6_Node000002_Node000007" class="edge">
<title>Node2&#45;&gt;Node7</title>
<g id="a_edge6_Node000002_Node000007"><a xlink:title=" ">
<path fill="none" stroke="#63b8ff" d="M855.09,-391.39C782.9,-384.73 636.9,-370.13 514.12,-350.75 513.14,-350.59 512.14,-350.43 511.13,-350.26"/>
<polygon fill="#63b8ff" stroke="#63b8ff" points="512.16,-346.89 501.7,-348.57 510.92,-353.78 512.16,-346.89"/>
</a>
</g>
</g>
<!-- Node8 -->
<g id="Node000008" class="node">
<title>Node8</title>
<g id="a_Node000008"><a xlink:href="_temperature_controller_8h.html" target="_top" xlink:title=" ">
<polygon fill="white" stroke="#666666" points="918.88,-295.5 799.38,-295.5 799.38,-276.25 918.88,-276.25 918.88,-295.5"/>
<text xml:space="preserve" text-anchor="middle" x="859.12" y="-282" font-family="Helvetica,sans-Serif" font-size="10.00">TemperatureController.h</text>
</a>
</g>
</g>
<!-- Node2&#45;&gt;Node8 -->
<g id="edge7_Node000002_Node000008" class="edge">
<title>Node2&#45;&gt;Node8</title>
<g id="a_edge7_Node000002_Node000008"><a xlink:title=" ">
<path fill="none" stroke="#63b8ff" d="M895.11,-386.35C890.32,-377.48 883.11,-363.46 878.12,-350.75 872.43,-336.22 867.46,-319.27 864.03,-306.48"/>
<polygon fill="#63b8ff" stroke="#63b8ff" points="867.52,-305.98 861.63,-297.18 860.74,-307.73 867.52,-305.98"/>
</a>
</g>
</g>
<!-- Node15 -->
<g id="Node000015" class="node">
<title>Node15</title>
<g id="a_Node000015"><a xlink:href="_logger_manager_8h.html" target="_top" xlink:title=" ">
<polygon fill="white" stroke="#666666" points="616.25,-129.75 526,-129.75 526,-110.5 616.25,-110.5 616.25,-129.75"/>
<text xml:space="preserve" text-anchor="middle" x="571.12" y="-116.25" font-family="Helvetica,sans-Serif" font-size="10.00">LoggerManager.h</text>
</a>
</g>
</g>
<!-- Node2&#45;&gt;Node15 -->
<g id="edge60_Node000002_Node000015" class="edge">
<title>Node2&#45;&gt;Node15</title>
<g id="a_edge60_Node000002_Node000015"><a xlink:title=" ">
<path fill="none" stroke="#63b8ff" d="M854.88,-391.76C755.74,-382.6 528.12,-354.23 528.12,-286.88 528.12,-286.88 528.12,-286.88 528.12,-229.62 528.12,-196.15 546.03,-160.7 558.73,-139.76"/>
<polygon fill="#63b8ff" stroke="#63b8ff" points="561.57,-141.82 563.97,-131.5 555.66,-138.07 561.57,-141.82"/>
</a>
</g>
</g>
<!-- Node34 -->
<g id="Node000034" class="node">
<title>Node34</title>
<g id="a_Node000034"><a xlink:href="_c_s_v_config_manager_8h.html" target="_top" xlink:title=" ">
<polygon fill="white" stroke="#666666" points="997.38,-350.75 886.88,-350.75 886.88,-331.5 997.38,-331.5 997.38,-350.75"/>
<text xml:space="preserve" text-anchor="middle" x="942.12" y="-337.25" font-family="Helvetica,sans-Serif" font-size="10.00">CSVConfigManager.h</text>
</a>
</g>
</g>
<!-- Node2&#45;&gt;Node34 -->
<g id="edge53_Node000002_Node000034" class="edge">
<title>Node2&#45;&gt;Node34</title>
<g id="a_edge53_Node000002_Node000034"><a xlink:title=" ">
<path fill="none" stroke="#63b8ff" d="M907.06,-386.58C912.74,-379.38 920.96,-368.96 928.02,-360.01"/>
<polygon fill="#63b8ff" stroke="#63b8ff" points="930.66,-362.32 934.1,-352.3 925.16,-357.98 930.66,-362.32"/>
</a>
</g>
</g>
<!-- Node36 -->
<g id="Node000036" class="node">
<title>Node36</title>
<g id="a_Node000036"><a xlink:href="_settings_c_s_v_manager_8h.html" target="_top" xlink:title=" ">
<polygon fill="white" stroke="#666666" points="1171.12,-350.75 1053.12,-350.75 1053.12,-331.5 1171.12,-331.5 1171.12,-350.75"/>
<text xml:space="preserve" text-anchor="middle" x="1112.12" y="-337.25" font-family="Helvetica,sans-Serif" font-size="10.00">SettingsCSVManager.h</text>
</a>
</g>
</g>
<!-- Node2&#45;&gt;Node36 -->
<g id="edge57_Node000002_Node000036" class="edge">
<title>Node2&#45;&gt;Node36</title>
<g id="a_edge57_Node000002_Node000036"><a xlink:title=" ">
<path fill="none" stroke="#63b8ff" d="M936.09,-386.34C971.57,-377.43 1026,-363.76 1064.94,-353.98"/>
<polygon fill="#63b8ff" stroke="#63b8ff" points="1065.67,-357.4 1074.52,-351.57 1063.97,-350.61 1065.67,-357.4"/>
</a>
</g>
</g>
<!-- Node8&#45;&gt;Node3 -->
<g id="edge8_Node000008_Node000003" class="edge">
<title>Node8&#45;&gt;Node3</title>
<g id="a_edge8_Node000008_Node000003"><a xlink:title=" ">
<path fill="none" stroke="#63b8ff" d="M919.29,-277.74C972.69,-270.42 1045.76,-257.63 1069.12,-240.25 1095.1,-220.93 1104.12,-208.75 1104.12,-176.38 1104.12,-176.38 1104.12,-176.38 1104.12,-119.12 1104.12,-89.51 1107.54,-74.61 1085.12,-55.25 1045.48,-21.01 889.88,-13.03 815.35,-11.18"/>
<polygon fill="#63b8ff" stroke="#63b8ff" points="815.7,-7.69 805.63,-10.97 815.55,-14.69 815.7,-7.69"/>
</a>
</g>
</g>
<!-- Node9 -->
<g id="Node000009" class="node">
<title>Node9</title>
<g id="a_Node000009"><a xlink:title=" ">
<polygon fill="#e0e0e0" stroke="#999999" points="223.62,-74.5 180.62,-74.5 180.62,-55.25 223.62,-55.25 223.62,-74.5"/>
<text xml:space="preserve" text-anchor="middle" x="202.12" y="-61" font-family="Helvetica,sans-Serif" font-size="10.00">vector</text>
</a>
</g>
</g>
<!-- Node8&#45;&gt;Node9 -->
<g id="edge9_Node000008_Node000009" class="edge">
<title>Node8&#45;&gt;Node9</title>
<g id="a_edge9_Node000008_Node000009"><a xlink:title=" ">
<path fill="none" stroke="#63b8ff" d="M799.04,-278.63C732.49,-271.29 622.17,-257.84 528.12,-240.25 361.52,-209.09 257.59,-270.48 163.12,-129.75 152.51,-113.94 166.84,-95.29 181.02,-82.24"/>
<polygon fill="#63b8ff" stroke="#63b8ff" points="183.12,-85.05 188.46,-75.9 178.58,-79.72 183.12,-85.05"/>
</a>
</g>
</g>
<!-- Node10 -->
<g id="Node000010" class="node">
<title>Node10</title>
<g id="a_Node000010"><a xlink:href="_sensor_8h.html" target="_top" xlink:title=" ">
<polygon fill="white" stroke="#666666" points="948.25,-129.75 894,-129.75 894,-110.5 948.25,-110.5 948.25,-129.75"/>
<text xml:space="preserve" text-anchor="middle" x="921.12" y="-116.25" font-family="Helvetica,sans-Serif" font-size="10.00">Sensor.h</text>
</a>
</g>
</g>
<!-- Node8&#45;&gt;Node10 -->
<g id="edge10_Node000008_Node000010" class="edge">
<title>Node8&#45;&gt;Node10</title>
<g id="a_edge10_Node000008_Node000010"><a xlink:title=" ">
<path fill="none" stroke="#63b8ff" d="M864.88,-275.93C870.36,-267.12 878.58,-253.14 884.12,-240.25 898.62,-206.52 910.14,-165.22 916.27,-141.17"/>
<polygon fill="#63b8ff" stroke="#63b8ff" points="919.67,-142.04 918.68,-131.49 912.87,-140.35 919.67,-142.04"/>
</a>
</g>
</g>
<!-- Node11 -->
<g id="Node000011" class="node">
<title>Node11</title>
<g id="a_Node000011"><a xlink:title=" ">
<polygon fill="#e0e0e0" stroke="#999999" points="1076.38,-74.5 1013.88,-74.5 1013.88,-55.25 1076.38,-55.25 1076.38,-74.5"/>
<text xml:space="preserve" text-anchor="middle" x="1045.12" y="-61" font-family="Helvetica,sans-Serif" font-size="10.00">OneWire.h</text>
</a>
</g>
</g>
<!-- Node8&#45;&gt;Node11 -->
<g id="edge49_Node000008_Node000011" class="edge">
<title>Node8&#45;&gt;Node11</title>
<g id="a_edge49_Node000008_Node000011"><a xlink:title=" ">
<path fill="none" stroke="#63b8ff" d="M868.24,-275.85C877.1,-266.97 890.83,-252.95 902.12,-240.25 951.43,-184.81 1006.09,-115.9 1031.17,-83.84"/>
<polygon fill="#63b8ff" stroke="#63b8ff" points="1033.91,-86.02 1037.29,-75.98 1028.39,-81.72 1033.91,-86.02"/>
</a>
</g>
</g>
<!-- Node12 -->
<g id="Node000012" class="node">
<title>Node12</title>
<g id="a_Node000012"><a xlink:title=" ">
<polygon fill="#e0e0e0" stroke="#999999" points="828.12,-74.5 722.12,-74.5 722.12,-55.25 828.12,-55.25 828.12,-74.5"/>
<text xml:space="preserve" text-anchor="middle" x="775.12" y="-61" font-family="Helvetica,sans-Serif" font-size="10.00">DallasTemperature.h</text>
</a>
</g>
</g>
<!-- Node8&#45;&gt;Node12 -->
<g id="edge50_Node000008_Node000012" class="edge">
<title>Node8&#45;&gt;Node12</title>
<g id="a_edge50_Node000008_Node000012"><a xlink:title=" ">
<path fill="none" stroke="#63b8ff" d="M860.23,-275.84C862.38,-255.44 865.68,-204.57 851.12,-165.75 838.7,-132.61 811.45,-101.32 793.18,-82.87"/>
<polygon fill="#63b8ff" stroke="#63b8ff" points="795.72,-80.45 786.13,-75.95 790.82,-85.45 795.72,-80.45"/>
</a>
</g>
</g>
<!-- Node14 -->
<g id="Node000014" class="node">
<title>Node14</title>
<g id="a_Node000014"><a xlink:href="_measurement_point_8h.html" target="_top" xlink:title=" ">
<polygon fill="white" stroke="#666666" points="776.12,-185 670.12,-185 670.12,-165.75 776.12,-165.75 776.12,-185"/>
<text xml:space="preserve" text-anchor="middle" x="723.12" y="-171.5" font-family="Helvetica,sans-Serif" font-size="10.00">MeasurementPoint.h</text>
</a>
</g>
</g>
<!-- Node8&#45;&gt;Node14 -->
<g id="edge15_Node000008_Node000014" class="edge">
<title>Node8&#45;&gt;Node14</title>
<g id="a_edge15_Node000008_Node000014"><a xlink:title=" ">
<path fill="none" stroke="#63b8ff" d="M819.69,-275.76C797.85,-269.02 771.49,-257.88 753.12,-240.25 740.69,-228.31 732.86,-210.18 728.33,-196.29"/>
<polygon fill="#63b8ff" stroke="#63b8ff" points="731.74,-195.51 725.59,-186.88 725.02,-197.46 731.74,-195.51"/>
</a>
</g>
</g>
<!-- Node8&#45;&gt;Node24 -->
<g id="edge51_Node000008_Node000024" class="edge">
<title>Node8&#45;&gt;Node24</title>
<g id="a_edge51_Node000008_Node000024"><a xlink:title=" ">
<path fill="none" stroke="#63b8ff" d="M799.16,-283.24C610.13,-277.32 39.12,-253.07 39.12,-176.38 39.12,-176.38 39.12,-176.38 39.12,-119.12 39.12,-88.41 39.12,-52.8 39.12,-30.99"/>
<polygon fill="#63b8ff" stroke="#63b8ff" points="42.63,-31.14 39.13,-21.14 35.63,-31.14 42.63,-31.14"/>
</a>
</g>
</g>
<!-- Node25 -->
<g id="Node000025" class="node">
<title>Node25</title>
<g id="a_Node000025"><a xlink:href="_register_map_8h.html" target="_top" xlink:title=" ">
<polygon fill="white" stroke="#666666" points="842,-240.25 762.25,-240.25 762.25,-221 842,-221 842,-240.25"/>
<text xml:space="preserve" text-anchor="middle" x="802.12" y="-226.75" font-family="Helvetica,sans-Serif" font-size="10.00">RegisterMap.h</text>
</a>
</g>
</g>
<!-- Node8&#45;&gt;Node25 -->
<g id="edge32_Node000008_Node000025" class="edge">
<title>Node8&#45;&gt;Node25</title>
<g id="a_edge32_Node000008_Node000025"><a xlink:title=" ">
<path fill="none" stroke="#63b8ff" d="M849.46,-275.84C841.38,-268.3 829.66,-257.35 819.9,-248.23"/>
<polygon fill="#63b8ff" stroke="#63b8ff" points="822.45,-245.83 812.76,-241.56 817.68,-250.94 822.45,-245.83"/>
</a>
</g>
</g>
<!-- Node27 -->
<g id="Node000027" class="node">
<title>Node27</title>
<g id="a_Node000027"><a xlink:href="_indicator_interface_8h.html" target="_top" xlink:title=" ">
<polygon fill="white" stroke="#666666" points="407.12,-185 307.12,-185 307.12,-165.75 407.12,-165.75 407.12,-185"/>
<text xml:space="preserve" text-anchor="middle" x="357.12" y="-171.5" font-family="Helvetica,sans-Serif" font-size="10.00">IndicatorInterface.h</text>
</a>
</g>
</g>
<!-- Node8&#45;&gt;Node27 -->
<g id="edge35_Node000008_Node000027" class="edge">
<title>Node8&#45;&gt;Node27</title>
<g id="a_edge35_Node000008_Node000027"><a xlink:title=" ">
<path fill="none" stroke="#63b8ff" d="M800.82,-275.75C749.79,-267.47 673.78,-254.42 608.12,-240.25 534.73,-224.41 450.28,-202.05 400.43,-188.43"/>
<polygon fill="#63b8ff" stroke="#63b8ff" points="401.47,-185.08 390.9,-185.81 399.61,-191.83 401.47,-185.08"/>
</a>
</g>
</g>
<!-- Node32 -->
<g id="Node000032" class="node">
<title>Node32</title>
<g id="a_Node000032"><a xlink:href="_alarm_8h.html" target="_top" xlink:title=" ">
<polygon fill="white" stroke="#666666" points="667,-240.25 617.25,-240.25 617.25,-221 667,-221 667,-240.25"/>
<text xml:space="preserve" text-anchor="middle" x="642.12" y="-226.75" font-family="Helvetica,sans-Serif" font-size="10.00">Alarm.h</text>
</a>
</g>
</g>
<!-- Node8&#45;&gt;Node32 -->
<g id="edge44_Node000008_Node000032" class="edge">
<title>Node8&#45;&gt;Node32</title>
<g id="a_edge44_Node000008_Node000032"><a xlink:title=" ">
<path fill="none" stroke="#63b8ff" d="M822.31,-275.84C782.14,-265.98 718.24,-250.3 678.32,-240.51"/>
<polygon fill="#63b8ff" stroke="#63b8ff" points="679.26,-237.13 668.71,-238.15 677.59,-243.93 679.26,-237.13"/>
</a>
</g>
</g>
<!-- Node33 -->
<g id="Node000033" class="node">
<title>Node33</title>
<g id="a_Node000033"><a xlink:title=" ">
<polygon fill="#e0e0e0" stroke="#999999" points="1060,-240.25 1004.25,-240.25 1004.25,-221 1060,-221 1060,-240.25"/>
<text xml:space="preserve" text-anchor="middle" x="1032.12" y="-226.75" font-family="Helvetica,sans-Serif" font-size="10.00">algorithm</text>
</a>
</g>
</g>
<!-- Node8&#45;&gt;Node33 -->
<g id="edge52_Node000008_Node000033" class="edge">
<title>Node8&#45;&gt;Node33</title>
<g id="a_edge52_Node000008_Node000033"><a xlink:title=" ">
<path fill="none" stroke="#63b8ff" d="M888.47,-275.84C917.27,-266.98 961.38,-253.4 993.12,-243.63"/>
<polygon fill="#63b8ff" stroke="#63b8ff" points="993.81,-247.08 1002.34,-240.79 991.75,-240.39 993.81,-247.08"/>
</a>
</g>
</g>
<!-- Node10&#45;&gt;Node3 -->
<g id="edge11_Node000010_Node000003" class="edge">
<title>Node10&#45;&gt;Node3</title>
<g id="a_edge11_Node000010_Node000003"><a xlink:title=" ">
<path fill="none" stroke="#63b8ff" d="M909.51,-110.14C893.37,-97.69 863.19,-74.54 837.12,-55.25 823.8,-45.39 808.7,-34.52 796.75,-25.98"/>
<polygon fill="#63b8ff" stroke="#63b8ff" points="798.95,-23.25 788.78,-20.3 794.89,-28.95 798.95,-23.25"/>
</a>
</g>
</g>
<!-- Node10&#45;&gt;Node11 -->
<g id="edge12_Node000010_Node000011" class="edge">
<title>Node10&#45;&gt;Node11</title>
<g id="a_edge12_Node000010_Node000011"><a xlink:title=" ">
<path fill="none" stroke="#63b8ff" d="M942.16,-110.09C961.76,-101.68 991.23,-89.02 1013.63,-79.4"/>
<polygon fill="#63b8ff" stroke="#63b8ff" points="1014.79,-82.71 1022.6,-75.55 1012.03,-76.28 1014.79,-82.71"/>
</a>
</g>
</g>
<!-- Node10&#45;&gt;Node12 -->
<g id="edge13_Node000010_Node000012" class="edge">
<title>Node10&#45;&gt;Node12</title>
<g id="a_edge13_Node000010_Node000012"><a xlink:title=" ">
<path fill="none" stroke="#63b8ff" d="M896.36,-110.09C872.87,-101.52 837.31,-88.56 810.77,-78.88"/>
<polygon fill="#63b8ff" stroke="#63b8ff" points="812.03,-75.61 801.44,-75.47 809.63,-82.19 812.03,-75.61"/>
</a>
</g>
</g>
<!-- Node13 -->
<g id="Node000013" class="node">
<title>Node13</title>
<g id="a_Node000013"><a xlink:title=" ">
<polygon fill="#e0e0e0" stroke="#999999" points="995.75,-74.5 884.5,-74.5 884.5,-55.25 995.75,-55.25 995.75,-74.5"/>
<text xml:space="preserve" text-anchor="middle" x="940.12" y="-61" font-family="Helvetica,sans-Serif" font-size="10.00">Adafruit_MAX31865.h</text>
</a>
</g>
</g>
<!-- Node10&#45;&gt;Node13 -->
<g id="edge14_Node000010_Node000013" class="edge">
<title>Node10&#45;&gt;Node13</title>
<g id="a_edge14_Node000010_Node000013"><a xlink:title=" ">
<path fill="none" stroke="#63b8ff" d="M924.26,-110.33C926.67,-103.59 930.08,-94.02 933.13,-85.49"/>
<polygon fill="#63b8ff" stroke="#63b8ff" points="936.35,-86.88 936.41,-76.28 929.75,-84.53 936.35,-86.88"/>
</a>
</g>
</g>
<!-- Node14&#45;&gt;Node3 -->
<g id="edge16_Node000014_Node000003" class="edge">
<title>Node14&#45;&gt;Node3</title>
<g id="a_edge16_Node000014_Node000003"><a xlink:title=" ">
<path fill="none" stroke="#63b8ff" d="M719.3,-165.38C711.12,-144.64 694.1,-92.38 713.12,-55.25 719.74,-42.34 732.02,-32.32 743.92,-25.07"/>
<polygon fill="#63b8ff" stroke="#63b8ff" points="745.33,-28.29 752.36,-20.37 741.92,-22.17 745.33,-28.29"/>
</a>
</g>
</g>
<!-- Node14&#45;&gt;Node10 -->
<g id="edge17_Node000014_Node000010" class="edge">
<title>Node14&#45;&gt;Node10</title>
<g id="a_edge17_Node000014_Node000010"><a xlink:title=" ">
<path fill="none" stroke="#63b8ff" d="M756.71,-165.34C791.71,-155.93 846.44,-141.21 883.03,-131.37"/>
<polygon fill="#63b8ff" stroke="#63b8ff" points="883.55,-134.85 892.3,-128.88 881.73,-128.09 883.55,-134.85"/>
</a>
</g>
</g>
<!-- Node14&#45;&gt;Node15 -->
<g id="edge18_Node000014_Node000015" class="edge">
<title>Node14&#45;&gt;Node15</title>
<g id="a_edge18_Node000014_Node000015"><a xlink:title=" ">
<path fill="none" stroke="#63b8ff" d="M697.34,-165.34C672.77,-156.74 635.54,-143.69 607.87,-134"/>
<polygon fill="#63b8ff" stroke="#63b8ff" points="609.06,-130.71 598.46,-130.7 606.75,-137.31 609.06,-130.71"/>
</a>
</g>
</g>
<!-- Node15&#45;&gt;Node3 -->
<g id="edge19_Node000015_Node000003" class="edge">
<title>Node15&#45;&gt;Node3</title>
<g id="a_edge19_Node000015_Node000003"><a xlink:title=" ">
<path fill="none" stroke="#63b8ff" d="M578.96,-110.01C591.17,-96.33 616.06,-70.46 642.12,-55.25 671.21,-38.28 707.67,-26.63 735.05,-19.49"/>
<polygon fill="#63b8ff" stroke="#63b8ff" points="735.87,-22.9 744.72,-17.08 734.17,-16.11 735.87,-22.9"/>
</a>
</g>
</g>
<!-- Node15&#45;&gt;Node9 -->
<g id="edge30_Node000015_Node000009" class="edge">
<title>Node15&#45;&gt;Node9</title>
<g id="a_edge30_Node000015_Node000009"><a xlink:title=" ">
<path fill="none" stroke="#63b8ff" d="M525.71,-112.48C521.12,-111.81 516.53,-111.14 512.12,-110.5 411.15,-95.85 291.64,-78.7 235.02,-70.59"/>
<polygon fill="#63b8ff" stroke="#63b8ff" points="235.82,-67.17 225.42,-69.21 234.83,-74.09 235.82,-67.17"/>
</a>
</g>
</g>
<!-- Node15&#45;&gt;Node15 -->
<g id="edge31_Node000015_Node000015" class="edge">
<title>Node15&#45;&gt;Node15</title>
<g id="a_edge31_Node000015_Node000015"><a xlink:title=" ">
<path fill="none" stroke="#63b8ff" d="M604.25,-130.23C620.18,-131.48 634.25,-128.11 634.25,-120.12 634.25,-114.14 626.34,-110.74 615.66,-109.95"/>
<polygon fill="#63b8ff" stroke="#63b8ff" points="615.74,-106.45 605.76,-110.01 615.79,-113.45 615.74,-106.45"/>
</a>
</g>
</g>
<!-- Node16 -->
<g id="Node000016" class="node">
<title>Node16</title>
<g id="a_Node000016"><a xlink:title=" ">
<polygon fill="#e0e0e0" stroke="#999999" points="589.62,-74.5 552.62,-74.5 552.62,-55.25 589.62,-55.25 589.62,-74.5"/>
<text xml:space="preserve" text-anchor="middle" x="571.12" y="-61" font-family="Helvetica,sans-Serif" font-size="10.00">FS.h</text>
</a>
</g>
</g>
<!-- Node15&#45;&gt;Node16 -->
<g id="edge20_Node000015_Node000016" class="edge">
<title>Node15&#45;&gt;Node16</title>
<g id="a_edge20_Node000015_Node000016"><a xlink:title=" ">
<path fill="none" stroke="#63b8ff" d="M571.12,-110.33C571.12,-103.82 571.12,-94.67 571.12,-86.37"/>
<polygon fill="#63b8ff" stroke="#63b8ff" points="574.63,-86.37 571.13,-76.37 567.63,-86.37 574.63,-86.37"/>
</a>
</g>
</g>
<!-- Node17 -->
<g id="Node000017" class="node">
<title>Node17</title>
<g id="a_Node000017"><a xlink:title=" ">
<polygon fill="#e0e0e0" stroke="#999999" points="534.38,-74.5 495.88,-74.5 495.88,-55.25 534.38,-55.25 534.38,-74.5"/>
<text xml:space="preserve" text-anchor="middle" x="515.12" y="-61" font-family="Helvetica,sans-Serif" font-size="10.00">SD.h</text>
</a>
</g>
</g>
<!-- Node15&#45;&gt;Node17 -->
<g id="edge21_Node000015_Node000017" class="edge">
<title>Node15&#45;&gt;Node17</title>
<g id="a_edge21_Node000015_Node000017"><a xlink:title=" ">
<path fill="none" stroke="#63b8ff" d="M561.63,-110.09C553.69,-102.55 542.18,-91.6 532.59,-82.48"/>
<polygon fill="#63b8ff" stroke="#63b8ff" points="535.24,-80.17 525.58,-75.82 530.42,-85.24 535.24,-80.17"/>
</a>
</g>
</g>
<!-- Node18 -->
<g id="Node000018" class="node">
<title>Node18</title>
<g id="a_Node000018"><a xlink:href="_time_manager_8h.html" target="_top" xlink:title=" ">
<polygon fill="white" stroke="#666666" points="396.5,-74.5 313.75,-74.5 313.75,-55.25 396.5,-55.25 396.5,-74.5"/>
<text xml:space="preserve" text-anchor="middle" x="355.12" y="-61" font-family="Helvetica,sans-Serif" font-size="10.00">TimeManager.h</text>
</a>
</g>
</g>
<!-- Node15&#45;&gt;Node18 -->
<g id="edge22_Node000015_Node000018" class="edge">
<title>Node15&#45;&gt;Node18</title>
<g id="a_edge22_Node000015_Node000018"><a xlink:title=" ">
<path fill="none" stroke="#63b8ff" d="M534.48,-110.09C498.25,-101.16 442.64,-87.45 402.94,-77.66"/>
<polygon fill="#63b8ff" stroke="#63b8ff" points="403.96,-74.31 393.42,-75.31 402.29,-81.11 403.96,-74.31"/>
</a>
</g>
</g>
<!-- Node18&#45;&gt;Node3 -->
<g id="edge23_Node000018_Node000003" class="edge">
<title>Node18&#45;&gt;Node3</title>
<g id="a_edge23_Node000018_Node000003"><a xlink:title=" ">
<path fill="none" stroke="#63b8ff" d="M396.93,-58.57C478.01,-48.29 655.64,-25.77 735.2,-15.69"/>
<polygon fill="#63b8ff" stroke="#63b8ff" points="735.22,-19.21 744.7,-14.48 734.34,-12.27 735.22,-19.21"/>
</a>
</g>
</g>
<!-- Node19 -->
<g id="Node000019" class="node">
<title>Node19</title>
<g id="a_Node000019"><a xlink:title=" ">
<polygon fill="#e0e0e0" stroke="#999999" points="430.38,-19.25 385.88,-19.25 385.88,0 430.38,0 430.38,-19.25"/>
<text xml:space="preserve" text-anchor="middle" x="408.12" y="-5.75" font-family="Helvetica,sans-Serif" font-size="10.00">WiFi.h</text>
</a>
</g>
</g>
<!-- Node18&#45;&gt;Node19 -->
<g id="edge24_Node000018_Node000019" class="edge">
<title>Node18&#45;&gt;Node19</title>
<g id="a_edge24_Node000018_Node000019"><a xlink:title=" ">
<path fill="none" stroke="#63b8ff" d="M363.88,-55.08C371.27,-47.65 382.09,-36.79 391.17,-27.66"/>
<polygon fill="#63b8ff" stroke="#63b8ff" points="393.54,-30.24 398.12,-20.68 388.58,-25.3 393.54,-30.24"/>
</a>
</g>
</g>
<!-- Node20 -->
<g id="Node000020" class="node">
<title>Node20</title>
<g id="a_Node000020"><a xlink:title=" ">
<polygon fill="#e0e0e0" stroke="#999999" points="179.38,-19.25 134.88,-19.25 134.88,0 179.38,0 179.38,-19.25"/>
<text xml:space="preserve" text-anchor="middle" x="157.12" y="-5.75" font-family="Helvetica,sans-Serif" font-size="10.00">Wire.h</text>
</a>
</g>
</g>
<!-- Node18&#45;&gt;Node20 -->
<g id="edge25_Node000018_Node000020" class="edge">
<title>Node18&#45;&gt;Node20</title>
<g id="a_edge25_Node000018_Node000020"><a xlink:title=" ">
<path fill="none" stroke="#63b8ff" d="M321.54,-54.84C285.1,-45.04 227.26,-29.49 190.79,-19.68"/>
<polygon fill="#63b8ff" stroke="#63b8ff" points="191.78,-16.32 181.22,-17.1 189.97,-23.08 191.78,-16.32"/>
</a>
</g>
</g>
<!-- Node21 -->
<g id="Node000021" class="node">
<title>Node21</title>
<g id="a_Node000021"><a xlink:title=" ">
<polygon fill="#e0e0e0" stroke="#999999" points="503.62,-19.25 448.62,-19.25 448.62,0 503.62,0 503.62,-19.25"/>
<text xml:space="preserve" text-anchor="middle" x="476.12" y="-5.75" font-family="Helvetica,sans-Serif" font-size="10.00">RTClib.h</text>
</a>
</g>
</g>
<!-- Node18&#45;&gt;Node21 -->
<g id="edge26_Node000018_Node000021" class="edge">
<title>Node18&#45;&gt;Node21</title>
<g id="a_edge26_Node000018_Node000021"><a xlink:title=" ">
<path fill="none" stroke="#63b8ff" d="M375.65,-54.84C394.69,-46.47 423.28,-33.88 445.1,-24.28"/>
<polygon fill="#63b8ff" stroke="#63b8ff" points="446.37,-27.54 454.11,-20.31 443.55,-21.14 446.37,-27.54"/>
</a>
</g>
</g>
<!-- Node22 -->
<g id="Node000022" class="node">
<title>Node22</title>
<g id="a_Node000022"><a xlink:title=" ">
<polygon fill="#e0e0e0" stroke="#999999" points="287.12,-19.25 217.12,-19.25 217.12,0 287.12,0 287.12,-19.25"/>
<text xml:space="preserve" text-anchor="middle" x="252.12" y="-5.75" font-family="Helvetica,sans-Serif" font-size="10.00">NTPClient.h</text>
</a>
</g>
</g>
<!-- Node18&#45;&gt;Node22 -->
<g id="edge27_Node000018_Node000022" class="edge">
<title>Node18&#45;&gt;Node22</title>
<g id="a_edge27_Node000018_Node000022"><a xlink:title=" ">
<path fill="none" stroke="#63b8ff" d="M337.65,-54.84C321.82,-46.66 298.22,-34.46 279.82,-24.94"/>
<polygon fill="#63b8ff" stroke="#63b8ff" points="281.52,-21.88 271.03,-20.4 278.3,-28.1 281.52,-21.88"/>
</a>
</g>
</g>
<!-- Node23 -->
<g id="Node000023" class="node">
<title>Node23</title>
<g id="a_Node000023"><a xlink:title=" ">
<polygon fill="#e0e0e0" stroke="#999999" points="367.38,-19.25 304.88,-19.25 304.88,0 367.38,0 367.38,-19.25"/>
<text xml:space="preserve" text-anchor="middle" x="336.12" y="-5.75" font-family="Helvetica,sans-Serif" font-size="10.00">WiFiUdp.h</text>
</a>
</g>
</g>
<!-- Node18&#45;&gt;Node23 -->
<g id="edge28_Node000018_Node000023" class="edge">
<title>Node18&#45;&gt;Node23</title>
<g id="a_edge28_Node000018_Node000023"><a xlink:title=" ">
<path fill="none" stroke="#63b8ff" d="M351.99,-55.08C349.58,-48.34 346.17,-38.77 343.12,-30.24"/>
<polygon fill="#63b8ff" stroke="#63b8ff" points="346.5,-29.28 339.84,-21.03 339.9,-31.63 346.5,-29.28"/>
</a>
</g>
</g>
<!-- Node18&#45;&gt;Node24 -->
<g id="edge29_Node000018_Node000024" class="edge">
<title>Node18&#45;&gt;Node24</title>
<g id="a_edge29_Node000018_Node000024"><a xlink:title=" ">
<path fill="none" stroke="#63b8ff" d="M313.49,-56.86C255.74,-47.13 151.47,-29.56 89.44,-19.1"/>
<polygon fill="#63b8ff" stroke="#63b8ff" points="90.3,-15.7 79.86,-17.49 89.14,-22.6 90.3,-15.7"/>
</a>
</g>
</g>
<!-- Node25&#45;&gt;Node14 -->
<g id="edge34_Node000025_Node000014" class="edge">
<title>Node25&#45;&gt;Node14</title>
<g id="a_edge34_Node000025_Node000014"><a xlink:title=" ">
<path fill="none" stroke="#63b8ff" d="M788.72,-220.59C777.03,-212.71 759.82,-201.11 745.96,-191.77"/>
<polygon fill="#63b8ff" stroke="#63b8ff" points="748.1,-188.99 737.85,-186.3 744.18,-194.79 748.1,-188.99"/>
</a>
</g>
</g>
<!-- Node26 -->
<g id="Node000026" class="node">
<title>Node26</title>
<g id="a_Node000026"><a xlink:title=" ">
<polygon fill="#e0e0e0" stroke="#999999" points="842.25,-185 794,-185 794,-165.75 842.25,-165.75 842.25,-185"/>
<text xml:space="preserve" text-anchor="middle" x="818.12" y="-171.5" font-family="Helvetica,sans-Serif" font-size="10.00">stdint.h</text>
</a>
</g>
</g>
<!-- Node25&#45;&gt;Node26 -->
<g id="edge33_Node000025_Node000026" class="edge">
<title>Node25&#45;&gt;Node26</title>
<g id="a_edge33_Node000025_Node000026"><a xlink:title=" ">
<path fill="none" stroke="#63b8ff" d="M804.77,-220.83C806.77,-214.17 809.6,-204.74 812.14,-196.28"/>
<polygon fill="#63b8ff" stroke="#63b8ff" points="815.46,-197.39 814.99,-186.81 808.76,-195.38 815.46,-197.39"/>
</a>
</g>
</g>
<!-- Node27&#45;&gt;Node3 -->
<g id="edge36_Node000027_Node000003" class="edge">
<title>Node27&#45;&gt;Node3</title>
<g id="a_edge36_Node000027_Node000003"><a xlink:title=" ">
<path fill="none" stroke="#63b8ff" d="M381.7,-165.41C399.7,-157.93 423.89,-145.9 441.12,-129.75 469.52,-103.14 454.7,-76.76 487.12,-55.25 527.08,-28.75 665.74,-17.03 735.05,-12.73"/>
<polygon fill="#63b8ff" stroke="#63b8ff" points="735.06,-16.23 744.83,-12.14 734.64,-9.25 735.06,-16.23"/>
</a>
</g>
</g>
<!-- Node27&#45;&gt;Node9 -->
<g id="edge42_Node000027_Node000009" class="edge">
<title>Node27&#45;&gt;Node9</title>
<g id="a_edge42_Node000027_Node000009"><a xlink:title=" ">
<path fill="none" stroke="#63b8ff" d="M306.86,-169.19C257.94,-162.98 188.63,-150.71 172.12,-129.75 160.93,-115.54 172.63,-96.47 184.54,-82.88"/>
<polygon fill="#63b8ff" stroke="#63b8ff" points="186.78,-85.6 191.11,-75.94 181.7,-80.79 186.78,-85.6"/>
</a>
</g>
</g>
<!-- Node27&#45;&gt;Node15 -->
<g id="edge43_Node000027_Node000015" class="edge">
<title>Node27&#45;&gt;Node15</title>
<g id="a_edge43_Node000027_Node000015"><a xlink:title=" ">
<path fill="none" stroke="#63b8ff" d="M393.43,-165.34C429.24,-156.43 484.19,-142.76 523.5,-132.98"/>
<polygon fill="#63b8ff" stroke="#63b8ff" points="524.32,-136.38 533.18,-130.57 522.63,-129.59 524.32,-136.38"/>
</a>
</g>
</g>
<!-- Node27&#45;&gt;Node20 -->
<g id="edge37_Node000027_Node000020" class="edge">
<title>Node27&#45;&gt;Node20</title>
<g id="a_edge37_Node000027_Node000020"><a xlink:title=" ">
<path fill="none" stroke="#63b8ff" d="M307.02,-169.64C255.83,-163.68 181.33,-151.47 163.12,-129.75 139.92,-102.06 145.56,-56.79 151.5,-30.76"/>
<polygon fill="#63b8ff" stroke="#63b8ff" points="154.87,-31.71 153.94,-21.15 148.09,-29.98 154.87,-31.71"/>
</a>
</g>
</g>
<!-- Node28 -->
<g id="Node000028" class="node">
<title>Node28</title>
<g id="a_Node000028"><a xlink:title=" ">
<polygon fill="#e0e0e0" stroke="#999999" points="374.5,-129.75 339.75,-129.75 339.75,-110.5 374.5,-110.5 374.5,-129.75"/>
<text xml:space="preserve" text-anchor="middle" x="357.12" y="-116.25" font-family="Helvetica,sans-Serif" font-size="10.00">map</text>
</a>
</g>
</g>
<!-- Node27&#45;&gt;Node28 -->
<g id="edge38_Node000027_Node000028" class="edge">
<title>Node27&#45;&gt;Node28</title>
<g id="a_edge38_Node000027_Node000028"><a xlink:title=" ">
<path fill="none" stroke="#63b8ff" d="M357.12,-165.58C357.12,-159.07 357.12,-149.92 357.12,-141.62"/>
<polygon fill="#63b8ff" stroke="#63b8ff" points="360.63,-141.62 357.13,-131.62 353.63,-141.62 360.63,-141.62"/>
</a>
</g>
</g>
<!-- Node29 -->
<g id="Node000029" class="node">
<title>Node29</title>
<g id="a_Node000029"><a xlink:title=" ">
<polygon fill="#e0e0e0" stroke="#999999" points="432.12,-129.75 392.12,-129.75 392.12,-110.5 432.12,-110.5 432.12,-129.75"/>
<text xml:space="preserve" text-anchor="middle" x="412.12" y="-116.25" font-family="Helvetica,sans-Serif" font-size="10.00">string</text>
</a>
</g>
</g>
<!-- Node27&#45;&gt;Node29 -->
<g id="edge39_Node000027_Node000029" class="edge">
<title>Node27&#45;&gt;Node29</title>
<g id="a_edge39_Node000027_Node000029"><a xlink:title=" ">
<path fill="none" stroke="#63b8ff" d="M366.21,-165.58C373.96,-158.07 385.34,-147.06 394.82,-137.88"/>
<polygon fill="#63b8ff" stroke="#63b8ff" points="397.01,-140.63 401.76,-131.16 392.14,-135.6 397.01,-140.63"/>
</a>
</g>
</g>
<!-- Node30 -->
<g id="Node000030" class="node">
<title>Node30</title>
<g id="a_Node000030"><a xlink:title=" ">
<polygon fill="#e0e0e0" stroke="#999999" points="246.88,-129.75 181.38,-129.75 181.38,-110.5 246.88,-110.5 246.88,-129.75"/>
<text xml:space="preserve" text-anchor="middle" x="214.12" y="-116.25" font-family="Helvetica,sans-Serif" font-size="10.00">PCF8575.h</text>
</a>
</g>
</g>
<!-- Node27&#45;&gt;Node30 -->
<g id="edge40_Node000027_Node000030" class="edge">
<title>Node27&#45;&gt;Node30</title>
<g id="a_edge40_Node000027_Node000030"><a xlink:title=" ">
<path fill="none" stroke="#63b8ff" d="M332.87,-165.34C309.86,-156.77 275.03,-143.81 249.04,-134.13"/>
<polygon fill="#63b8ff" stroke="#63b8ff" points="250.51,-130.94 239.92,-130.73 248.07,-137.5 250.51,-130.94"/>
</a>
</g>
</g>
<!-- Node31 -->
<g id="Node000031" class="node">
<title>Node31</title>
<g id="a_Node000031"><a xlink:title=" ">
<polygon fill="#e0e0e0" stroke="#999999" points="321.75,-129.75 264.5,-129.75 264.5,-110.5 321.75,-110.5 321.75,-129.75"/>
<text xml:space="preserve" text-anchor="middle" x="293.12" y="-116.25" font-family="Helvetica,sans-Serif" font-size="10.00">U8g2lib.h</text>
</a>
</g>
</g>
<!-- Node27&#45;&gt;Node31 -->
<g id="edge41_Node000027_Node000031" class="edge">
<title>Node27&#45;&gt;Node31</title>
<g id="a_edge41_Node000027_Node000031"><a xlink:title=" ">
<path fill="none" stroke="#63b8ff" d="M346.27,-165.34C337.02,-157.65 323.5,-146.4 312.42,-137.18"/>
<polygon fill="#63b8ff" stroke="#63b8ff" points="314.91,-134.7 304.98,-130.99 310.43,-140.08 314.91,-134.7"/>
</a>
</g>
</g>
<!-- Node32&#45;&gt;Node3 -->
<g id="edge45_Node000032_Node000003" class="edge">
<title>Node32&#45;&gt;Node3</title>
<g id="a_edge45_Node000032_Node000003"><a xlink:title=" ">
<path fill="none" stroke="#63b8ff" d="M643.08,-220.59C646.42,-192.87 659.87,-107.71 703.12,-55.25 713.71,-42.41 729.01,-32.2 742.78,-24.81"/>
<polygon fill="#63b8ff" stroke="#63b8ff" points="744.2,-28.01 751.56,-20.39 741.05,-21.76 744.2,-28.01"/>
</a>
</g>
</g>
<!-- Node32&#45;&gt;Node9 -->
<g id="edge46_Node000032_Node000009" class="edge">
<title>Node32&#45;&gt;Node9</title>
<g id="a_edge46_Node000032_Node000009"><a xlink:title=" ">
<path fill="none" stroke="#63b8ff" d="M630.64,-220.81C601.03,-198.55 518.96,-139.78 441.12,-110.5 370.62,-83.98 282.26,-72.75 235.21,-68.38"/>
<polygon fill="#63b8ff" stroke="#63b8ff" points="235.68,-64.9 225.41,-67.52 235.07,-71.88 235.68,-64.9"/>
</a>
</g>
</g>
<!-- Node32&#45;&gt;Node14 -->
<g id="edge47_Node000032_Node000014" class="edge">
<title>Node32&#45;&gt;Node14</title>
<g id="a_edge47_Node000032_Node000014"><a xlink:title=" ">
<path fill="none" stroke="#63b8ff" d="M655.87,-220.59C667.85,-212.71 685.5,-201.11 699.71,-191.77"/>
<polygon fill="#63b8ff" stroke="#63b8ff" points="701.62,-194.7 708.05,-186.28 697.77,-188.85 701.62,-194.7"/>
</a>
</g>
</g>
<!-- Node32&#45;&gt;Node15 -->
<g id="edge48_Node000032_Node000015" class="edge">
<title>Node32&#45;&gt;Node15</title>
<g id="a_edge48_Node000032_Node000015"><a xlink:title=" ">
<path fill="none" stroke="#63b8ff" d="M636.31,-220.75C624.77,-203.1 598.72,-163.3 583.28,-139.7"/>
<polygon fill="#63b8ff" stroke="#63b8ff" points="586.25,-137.84 577.84,-131.39 580.39,-141.68 586.25,-137.84"/>
</a>
</g>
</g>
<!-- Node34&#45;&gt;Node3 -->
<g id="edge54_Node000034_Node000003" class="edge">
<title>Node34&#45;&gt;Node3</title>
<g id="a_edge54_Node000034_Node000003"><a xlink:title=" ">
<path fill="none" stroke="#63b8ff" d="M943.1,-331.31C945.09,-317.54 950.91,-290.99 967.12,-276.25 1010.21,-237.06 1044.97,-273.01 1093.12,-240.25 1122.71,-220.13 1142.12,-212.15 1142.12,-176.38 1142.12,-176.38 1142.12,-176.38 1142.12,-119.12 1142.12,-86.75 1133.81,-73.57 1107.12,-55.25 1060.49,-23.24 893.05,-14.11 815.31,-11.57"/>
<polygon fill="#63b8ff" stroke="#63b8ff" points="815.69,-8.08 805.59,-11.28 815.48,-15.08 815.69,-8.08"/>
</a>
</g>
</g>
<!-- Node34&#45;&gt;Node8 -->
<g id="edge56_Node000034_Node000008" class="edge">
<title>Node34&#45;&gt;Node8</title>
<g id="a_edge56_Node000034_Node000008"><a xlink:title=" ">
<path fill="none" stroke="#63b8ff" d="M928.05,-331.09C915.64,-323.14 897.33,-311.39 882.7,-302"/>
<polygon fill="#63b8ff" stroke="#63b8ff" points="884.85,-299.22 874.55,-296.77 881.07,-305.12 884.85,-299.22"/>
</a>
</g>
</g>
<!-- Node35 -->
<g id="Node000035" class="node">
<title>Node35</title>
<g id="a_Node000035"><a xlink:title=" ">
<polygon fill="#e0e0e0" stroke="#999999" points="1054.25,-295.5 976,-295.5 976,-276.25 1054.25,-276.25 1054.25,-295.5"/>
<text xml:space="preserve" text-anchor="middle" x="1015.12" y="-282" font-family="Helvetica,sans-Serif" font-size="10.00">CSV_Parser.h</text>
</a>
</g>
</g>
<!-- Node34&#45;&gt;Node35 -->
<g id="edge55_Node000034_Node000035" class="edge">
<title>Node34&#45;&gt;Node35</title>
<g id="a_edge55_Node000034_Node000035"><a xlink:title=" ">
<path fill="none" stroke="#63b8ff" d="M954.51,-331.09C965.27,-323.24 981.1,-311.7 993.88,-302.37"/>
<polygon fill="#63b8ff" stroke="#63b8ff" points="995.69,-305.39 1001.7,-296.67 991.56,-299.73 995.69,-305.39"/>
</a>
</g>
</g>
<!-- Node36&#45;&gt;Node3 -->
<g id="edge58_Node000036_Node000003" class="edge">
<title>Node36&#45;&gt;Node3</title>
<g id="a_edge58_Node000036_Node000003"><a xlink:title=" ">
<path fill="none" stroke="#63b8ff" d="M1125.65,-331.03C1136.7,-322.93 1151.95,-310.12 1161.12,-295.5 1176.87,-270.42 1180.12,-261.24 1180.12,-231.62 1180.12,-231.62 1180.12,-231.62 1180.12,-119.12 1180.12,-83.61 1162.85,-73.06 1132.12,-55.25 1079.01,-24.46 896.96,-14.64 815.31,-11.74"/>
<polygon fill="#63b8ff" stroke="#63b8ff" points="815.64,-8.25 805.53,-11.42 815.41,-15.25 815.64,-8.25"/>
</a>
</g>
</g>
<!-- Node36&#45;&gt;Node4 -->
<g id="edge59_Node000036_Node000004" class="edge">
<title>Node36&#45;&gt;Node4</title>
<g id="a_edge59_Node000036_Node000004"><a xlink:title=" ">
<path fill="none" stroke="#63b8ff" d="M1112.12,-331.33C1112.12,-324.82 1112.12,-315.67 1112.12,-307.37"/>
<polygon fill="#63b8ff" stroke="#63b8ff" points="1115.63,-307.37 1112.13,-297.37 1108.63,-307.37 1115.63,-307.37"/>
</a>
</g>
</g>
</g>
</svg>
