<?xml version="1.0" encoding="UTF-8" standalone="no"?>
<!DOCTYPE svg PUBLIC "-//W3C//DTD SVG 1.1//EN"
 "http://www.w3.org/Graphics/SVG/1.1/DTD/svg11.dtd">
<!-- Generated by graphviz version 13.1.0 (20250701.0955)
 -->
<!-- Title: include/ConfigManager.h Pages: 1 -->
<svg width="1553pt" height="414pt"
 viewBox="0.00 0.00 1553.00 414.00" xmlns="http://www.w3.org/2000/svg" xmlns:xlink="http://www.w3.org/1999/xlink">
<g id="graph0" class="graph" transform="scale(1 1) rotate(0) translate(4 410)">
<title>include/ConfigManager.h</title>
<!-- Node1 -->
<g id="Node000001" class="node">
<title>Node1</title>
<g id="a_Node000001"><a xlink:title=" ">
<polygon fill="#999999" stroke="#666666" points="1217.75,-406 1094.5,-406 1094.5,-386.75 1217.75,-386.75 1217.75,-406"/>
<text xml:space="preserve" text-anchor="middle" x="1156.12" y="-392.5" font-family="Helvetica,sans-Serif" font-size="10.00">include/ConfigManager.h</text>
</a>
</g>
</g>
<!-- Node2 -->
<g id="Node000002" class="node">
<title>Node2</title>
<g id="a_Node000002"><a xlink:title=" ">
<polygon fill="#e0e0e0" stroke="#999999" points="749.75,-19.25 692.5,-19.25 692.5,0 749.75,0 749.75,-19.25"/>
<text xml:space="preserve" text-anchor="middle" x="721.12" y="-5.75" font-family="Helvetica,sans-Serif" font-size="10.00">Arduino.h</text>
</a>
</g>
</g>
<!-- Node1&#45;&gt;Node2 -->
<g id="edge1_Node000001_Node000002" class="edge">
<title>Node1&#45;&gt;Node2</title>
<g id="a_edge1_Node000001_Node000002"><a xlink:title=" ">
<path fill="none" stroke="#63b8ff" d="M1094.02,-395.67C864.88,-395.97 80.12,-389.49 80.12,-286.88 80.12,-286.88 80.12,-286.88 80.12,-174.38 80.12,-136.33 103.86,-128.98 137.12,-110.5 231.66,-57.98 564.92,-24.35 680.94,-14.02"/>
<polygon fill="#63b8ff" stroke="#63b8ff" points="680.94,-17.53 690.6,-13.17 680.33,-10.56 680.94,-17.53"/>
</a>
</g>
</g>
<!-- Node3 -->
<g id="Node000003" class="node">
<title>Node3</title>
<g id="a_Node000003"><a xlink:title=" ">
<polygon fill="#e0e0e0" stroke="#999999" points="1334.38,-295.5 1253.88,-295.5 1253.88,-276.25 1334.38,-276.25 1334.38,-295.5"/>
<text xml:space="preserve" text-anchor="middle" x="1294.12" y="-282" font-family="Helvetica,sans-Serif" font-size="10.00">ConfigAssist.h</text>
</a>
</g>
</g>
<!-- Node1&#45;&gt;Node3 -->
<g id="edge2_Node000001_Node000003" class="edge">
<title>Node1&#45;&gt;Node3</title>
<g id="a_edge2_Node000001_Node000003"><a xlink:title=" ">
<path fill="none" stroke="#63b8ff" d="M1171.45,-386.29C1185.56,-377.7 1206.84,-364.17 1224.12,-350.75 1243.31,-335.85 1263.65,-316.89 1277.43,-303.51"/>
<polygon fill="#63b8ff" stroke="#63b8ff" points="1279.7,-306.18 1284.38,-296.68 1274.8,-301.19 1279.7,-306.18"/>
</a>
</g>
</g>
<!-- Node4 -->
<g id="Node000004" class="node">
<title>Node4</title>
<g id="a_Node000004"><a xlink:title=" ">
<polygon fill="#e0e0e0" stroke="#999999" points="1379.25,-350.75 1271,-350.75 1271,-331.5 1379.25,-331.5 1379.25,-350.75"/>
<text xml:space="preserve" text-anchor="middle" x="1325.12" y="-337.25" font-family="Helvetica,sans-Serif" font-size="10.00">ConfigAssistHelper.h</text>
</a>
</g>
</g>
<!-- Node1&#45;&gt;Node4 -->
<g id="edge3_Node000001_Node000004" class="edge">
<title>Node1&#45;&gt;Node4</title>
<g id="a_edge3_Node000001_Node000004"><a xlink:title=" ">
<path fill="none" stroke="#63b8ff" d="M1184.79,-386.34C1212.47,-377.62 1254.61,-364.34 1285.5,-354.61"/>
<polygon fill="#63b8ff" stroke="#63b8ff" points="1286.39,-358 1294.87,-351.66 1284.28,-351.32 1286.39,-358"/>
</a>
</g>
</g>
<!-- Node5 -->
<g id="Node000005" class="node">
<title>Node5</title>
<g id="a_Node000005"><a xlink:title=" ">
<polygon fill="#e0e0e0" stroke="#999999" points="1468.88,-350.75 1397.38,-350.75 1397.38,-331.5 1468.88,-331.5 1468.88,-350.75"/>
<text xml:space="preserve" text-anchor="middle" x="1433.12" y="-337.25" font-family="Helvetica,sans-Serif" font-size="10.00">WebServer.h</text>
</a>
</g>
</g>
<!-- Node1&#45;&gt;Node5 -->
<g id="edge4_Node000001_Node000005" class="edge">
<title>Node1&#45;&gt;Node5</title>
<g id="a_edge4_Node000001_Node000005"><a xlink:title=" ">
<path fill="none" stroke="#63b8ff" d="M1203.43,-386.28C1254.43,-376.48 1335.12,-360.97 1386.03,-351.18"/>
<polygon fill="#63b8ff" stroke="#63b8ff" points="1386.4,-354.67 1395.56,-349.35 1385.08,-347.8 1386.4,-354.67"/>
</a>
</g>
</g>
<!-- Node6 -->
<g id="Node000006" class="node">
<title>Node6</title>
<g id="a_Node000006"><a xlink:title=" ">
<polygon fill="#e0e0e0" stroke="#999999" points="1545.12,-350.75 1487.12,-350.75 1487.12,-331.5 1545.12,-331.5 1545.12,-350.75"/>
<text xml:space="preserve" text-anchor="middle" x="1516.12" y="-337.25" font-family="Helvetica,sans-Serif" font-size="10.00">LittleFS.h</text>
</a>
</g>
</g>
<!-- Node1&#45;&gt;Node6 -->
<g id="edge5_Node000001_Node000006" class="edge">
<title>Node1&#45;&gt;Node6</title>
<g id="a_edge5_Node000001_Node000006"><a xlink:title=" ">
<path fill="none" stroke="#63b8ff" d="M1218.1,-388.38C1280.65,-380.96 1380.24,-368.18 1475.43,-351.11"/>
<polygon fill="#63b8ff" stroke="#63b8ff" points="1476.01,-354.56 1485.23,-349.33 1474.76,-347.67 1476.01,-354.56"/>
</a>
</g>
</g>
<!-- Node7 -->
<g id="Node000007" class="node">
<title>Node7</title>
<g id="a_Node000007"><a xlink:href="_temperature_controller_8h.html" target="_top" xlink:title=" ">
<polygon fill="white" stroke="#666666" points="918.88,-295.5 799.38,-295.5 799.38,-276.25 918.88,-276.25 918.88,-295.5"/>
<text xml:space="preserve" text-anchor="middle" x="859.12" y="-282" font-family="Helvetica,sans-Serif" font-size="10.00">TemperatureController.h</text>
</a>
</g>
</g>
<!-- Node1&#45;&gt;Node7 -->
<g id="edge6_Node000001_Node000007" class="edge">
<title>Node1&#45;&gt;Node7</title>
<g id="a_edge6_Node000001_Node000007"><a xlink:title=" ">
<path fill="none" stroke="#63b8ff" d="M1094.43,-386.86C1054.99,-380.08 1003.31,-368.7 960.12,-350.75 930.27,-338.34 899.34,-317.37 879.7,-302.86"/>
<polygon fill="#63b8ff" stroke="#63b8ff" points="881.83,-300.08 871.74,-296.85 877.61,-305.67 881.83,-300.08"/>
</a>
</g>
</g>
<!-- Node14 -->
<g id="Node000014" class="node">
<title>Node14</title>
<g id="a_Node000014"><a xlink:href="_logger_manager_8h.html" target="_top" xlink:title=" ">
<polygon fill="white" stroke="#666666" points="657.25,-129.75 567,-129.75 567,-110.5 657.25,-110.5 657.25,-129.75"/>
<text xml:space="preserve" text-anchor="middle" x="612.12" y="-116.25" font-family="Helvetica,sans-Serif" font-size="10.00">LoggerManager.h</text>
</a>
</g>
</g>
<!-- Node1&#45;&gt;Node14 -->
<g id="edge59_Node000001_Node000014" class="edge">
<title>Node1&#45;&gt;Node14</title>
<g id="a_edge59_Node000001_Node000014"><a xlink:title=" ">
<path fill="none" stroke="#63b8ff" d="M1094.03,-391.65C929.74,-380.98 496.12,-347.11 496.12,-286.88 496.12,-286.88 496.12,-286.88 496.12,-229.62 496.12,-200.01 495.72,-188.13 515.12,-165.75 527.9,-151.02 546.55,-140.86 564.09,-134"/>
<polygon fill="#63b8ff" stroke="#63b8ff" points="565.16,-137.34 573.38,-130.66 562.79,-130.75 565.16,-137.34"/>
</a>
</g>
</g>
<!-- Node33 -->
<g id="Node000033" class="node">
<title>Node33</title>
<g id="a_Node000033"><a xlink:href="_c_s_v_config_manager_8h.html" target="_top" xlink:title=" ">
<polygon fill="white" stroke="#666666" points="1079.38,-350.75 968.88,-350.75 968.88,-331.5 1079.38,-331.5 1079.38,-350.75"/>
<text xml:space="preserve" text-anchor="middle" x="1024.12" y="-337.25" font-family="Helvetica,sans-Serif" font-size="10.00">CSVConfigManager.h</text>
</a>
</g>
</g>
<!-- Node1&#45;&gt;Node33 -->
<g id="edge52_Node000001_Node000033" class="edge">
<title>Node1&#45;&gt;Node33</title>
<g id="a_edge52_Node000001_Node000033"><a xlink:title=" ">
<path fill="none" stroke="#63b8ff" d="M1133.73,-386.34C1112.68,-377.85 1080.92,-365.04 1057,-355.39"/>
<polygon fill="#63b8ff" stroke="#63b8ff" points="1058.61,-352.26 1048.03,-351.77 1055.99,-358.76 1058.61,-352.26"/>
</a>
</g>
</g>
<!-- Node35 -->
<g id="Node000035" class="node">
<title>Node35</title>
<g id="a_Node000035"><a xlink:href="_settings_c_s_v_manager_8h.html" target="_top" xlink:title=" ">
<polygon fill="white" stroke="#666666" points="1215.12,-350.75 1097.12,-350.75 1097.12,-331.5 1215.12,-331.5 1215.12,-350.75"/>
<text xml:space="preserve" text-anchor="middle" x="1156.12" y="-337.25" font-family="Helvetica,sans-Serif" font-size="10.00">SettingsCSVManager.h</text>
</a>
</g>
</g>
<!-- Node1&#45;&gt;Node35 -->
<g id="edge56_Node000001_Node000035" class="edge">
<title>Node1&#45;&gt;Node35</title>
<g id="a_edge56_Node000001_Node000035"><a xlink:title=" ">
<path fill="none" stroke="#63b8ff" d="M1156.12,-386.58C1156.12,-380.07 1156.12,-370.92 1156.12,-362.62"/>
<polygon fill="#63b8ff" stroke="#63b8ff" points="1159.63,-362.62 1156.13,-352.62 1152.63,-362.62 1159.63,-362.62"/>
</a>
</g>
</g>
<!-- Node7&#45;&gt;Node2 -->
<g id="edge7_Node000007_Node000002" class="edge">
<title>Node7&#45;&gt;Node2</title>
<g id="a_edge7_Node000007_Node000002"><a xlink:title=" ">
<path fill="none" stroke="#63b8ff" d="M914.89,-275.79C999.39,-260.42 1150.12,-226.05 1150.12,-176.38 1150.12,-176.38 1150.12,-176.38 1150.12,-119.12 1150.12,-89.51 1153.87,-74.22 1131.12,-55.25 1103.08,-31.87 859.4,-17.41 761.54,-12.51"/>
<polygon fill="#63b8ff" stroke="#63b8ff" points="761.76,-9.01 751.6,-12.02 761.41,-16 761.76,-9.01"/>
</a>
</g>
</g>
<!-- Node8 -->
<g id="Node000008" class="node">
<title>Node8</title>
<g id="a_Node000008"><a xlink:title=" ">
<polygon fill="#e0e0e0" stroke="#999999" points="524.62,-74.5 481.62,-74.5 481.62,-55.25 524.62,-55.25 524.62,-74.5"/>
<text xml:space="preserve" text-anchor="middle" x="503.12" y="-61" font-family="Helvetica,sans-Serif" font-size="10.00">vector</text>
</a>
</g>
</g>
<!-- Node7&#45;&gt;Node8 -->
<g id="edge8_Node000007_Node000008" class="edge">
<title>Node7&#45;&gt;Node8</title>
<g id="a_edge8_Node000007_Node000008"><a xlink:title=" ">
<path fill="none" stroke="#63b8ff" d="M798.92,-282.75C743.12,-278.97 658.77,-268.6 591.12,-240.25 552.61,-224.11 535.92,-221.21 515.12,-185 497.41,-154.15 498.02,-111.3 500.37,-86.29"/>
<polygon fill="#63b8ff" stroke="#63b8ff" points="503.83,-86.83 501.49,-76.49 496.87,-86.03 503.83,-86.83"/>
</a>
</g>
</g>
<!-- Node9 -->
<g id="Node000009" class="node">
<title>Node9</title>
<g id="a_Node000009"><a xlink:href="_sensor_8h.html" target="_top" xlink:title=" ">
<polygon fill="white" stroke="#666666" points="886.25,-129.75 832,-129.75 832,-110.5 886.25,-110.5 886.25,-129.75"/>
<text xml:space="preserve" text-anchor="middle" x="859.12" y="-116.25" font-family="Helvetica,sans-Serif" font-size="10.00">Sensor.h</text>
</a>
</g>
</g>
<!-- Node7&#45;&gt;Node9 -->
<g id="edge9_Node000007_Node000009" class="edge">
<title>Node7&#45;&gt;Node9</title>
<g id="a_edge9_Node000007_Node000009"><a xlink:title=" ">
<path fill="none" stroke="#63b8ff" d="M859.12,-276.07C859.12,-250.75 859.12,-177.25 859.12,-141.34"/>
<polygon fill="#63b8ff" stroke="#63b8ff" points="862.63,-141.49 859.13,-131.49 855.63,-141.49 862.63,-141.49"/>
</a>
</g>
</g>
<!-- Node10 -->
<g id="Node000010" class="node">
<title>Node10</title>
<g id="a_Node000010"><a xlink:title=" ">
<polygon fill="#e0e0e0" stroke="#999999" points="998.38,-74.5 935.88,-74.5 935.88,-55.25 998.38,-55.25 998.38,-74.5"/>
<text xml:space="preserve" text-anchor="middle" x="967.12" y="-61" font-family="Helvetica,sans-Serif" font-size="10.00">OneWire.h</text>
</a>
</g>
</g>
<!-- Node7&#45;&gt;Node10 -->
<g id="edge48_Node000007_Node000010" class="edge">
<title>Node7&#45;&gt;Node10</title>
<g id="a_edge48_Node000007_Node000010"><a xlink:title=" ">
<path fill="none" stroke="#63b8ff" d="M863.49,-276.02C879.54,-243.48 935.46,-130.09 957.8,-84.79"/>
<polygon fill="#63b8ff" stroke="#63b8ff" points="960.87,-86.48 962.15,-75.96 954.59,-83.38 960.87,-86.48"/>
</a>
</g>
</g>
<!-- Node11 -->
<g id="Node000011" class="node">
<title>Node11</title>
<g id="a_Node000011"><a xlink:title=" ">
<polygon fill="#e0e0e0" stroke="#999999" points="1122.12,-74.5 1016.12,-74.5 1016.12,-55.25 1122.12,-55.25 1122.12,-74.5"/>
<text xml:space="preserve" text-anchor="middle" x="1069.12" y="-61" font-family="Helvetica,sans-Serif" font-size="10.00">DallasTemperature.h</text>
</a>
</g>
</g>
<!-- Node7&#45;&gt;Node11 -->
<g id="edge49_Node000007_Node000011" class="edge">
<title>Node7&#45;&gt;Node11</title>
<g id="a_edge49_Node000007_Node000011"><a xlink:title=" ">
<path fill="none" stroke="#63b8ff" d="M919.2,-279.49C948.98,-273.93 983.51,-262.74 1007.12,-240.25 1051.26,-198.21 1064.03,-122.72 1067.68,-86.44"/>
<polygon fill="#63b8ff" stroke="#63b8ff" points="1071.17,-86.76 1068.53,-76.49 1064.2,-86.16 1071.17,-86.76"/>
</a>
</g>
</g>
<!-- Node13 -->
<g id="Node000013" class="node">
<title>Node13</title>
<g id="a_Node000013"><a xlink:href="_measurement_point_8h.html" target="_top" xlink:title=" ">
<polygon fill="white" stroke="#666666" points="772.12,-185 666.12,-185 666.12,-165.75 772.12,-165.75 772.12,-185"/>
<text xml:space="preserve" text-anchor="middle" x="719.12" y="-171.5" font-family="Helvetica,sans-Serif" font-size="10.00">MeasurementPoint.h</text>
</a>
</g>
</g>
<!-- Node7&#45;&gt;Node13 -->
<g id="edge14_Node000007_Node000013" class="edge">
<title>Node7&#45;&gt;Node13</title>
<g id="a_edge14_Node000007_Node000013"><a xlink:title=" ">
<path fill="none" stroke="#63b8ff" d="M847.67,-276C823.98,-257.64 769.34,-215.29 739.49,-192.16"/>
<polygon fill="#63b8ff" stroke="#63b8ff" points="741.98,-189.66 731.94,-186.3 737.7,-195.2 741.98,-189.66"/>
</a>
</g>
</g>
<!-- Node23 -->
<g id="Node000023" class="node">
<title>Node23</title>
<g id="a_Node000023"><a xlink:title=" ">
<polygon fill="#e0e0e0" stroke="#999999" points="78.25,-19.25 0,-19.25 0,0 78.25,0 78.25,-19.25"/>
<text xml:space="preserve" text-anchor="middle" x="39.12" y="-5.75" font-family="Helvetica,sans-Serif" font-size="10.00">ArduinoJson.h</text>
</a>
</g>
</g>
<!-- Node7&#45;&gt;Node23 -->
<g id="edge50_Node000007_Node000023" class="edge">
<title>Node7&#45;&gt;Node23</title>
<g id="a_edge50_Node000007_Node000023"><a xlink:title=" ">
<path fill="none" stroke="#63b8ff" d="M798.9,-283.23C609.76,-277.26 40.12,-252.93 40.12,-176.38 40.12,-176.38 40.12,-176.38 40.12,-119.12 40.12,-88.4 39.72,-52.79 39.42,-30.99"/>
<polygon fill="#63b8ff" stroke="#63b8ff" points="42.93,-31.09 39.29,-21.14 35.93,-31.19 42.93,-31.09"/>
</a>
</g>
</g>
<!-- Node24 -->
<g id="Node000024" class="node">
<title>Node24</title>
<g id="a_Node000024"><a xlink:href="_register_map_8h.html" target="_top" xlink:title=" ">
<polygon fill="white" stroke="#666666" points="680,-240.25 600.25,-240.25 600.25,-221 680,-221 680,-240.25"/>
<text xml:space="preserve" text-anchor="middle" x="640.12" y="-226.75" font-family="Helvetica,sans-Serif" font-size="10.00">RegisterMap.h</text>
</a>
</g>
</g>
<!-- Node7&#45;&gt;Node24 -->
<g id="edge31_Node000007_Node000024" class="edge">
<title>Node7&#45;&gt;Node24</title>
<g id="a_edge31_Node000007_Node000024"><a xlink:title=" ">
<path fill="none" stroke="#63b8ff" d="M821.97,-275.84C785.24,-266.91 728.85,-253.2 688.61,-243.41"/>
<polygon fill="#63b8ff" stroke="#63b8ff" points="689.47,-240.02 678.93,-241.06 687.82,-246.82 689.47,-240.02"/>
</a>
</g>
</g>
<!-- Node26 -->
<g id="Node000026" class="node">
<title>Node26</title>
<g id="a_Node000026"><a xlink:href="_indicator_interface_8h.html" target="_top" xlink:title=" ">
<polygon fill="white" stroke="#666666" points="423.12,-185 323.12,-185 323.12,-165.75 423.12,-165.75 423.12,-185"/>
<text xml:space="preserve" text-anchor="middle" x="373.12" y="-171.5" font-family="Helvetica,sans-Serif" font-size="10.00">IndicatorInterface.h</text>
</a>
</g>
</g>
<!-- Node7&#45;&gt;Node26 -->
<g id="edge34_Node000007_Node000026" class="edge">
<title>Node7&#45;&gt;Node26</title>
<g id="a_edge34_Node000007_Node000026"><a xlink:title=" ">
<path fill="none" stroke="#63b8ff" d="M799.21,-282.95C699.95,-279.01 506.16,-267.94 444.12,-240.25 420.8,-229.84 399.84,-208.83 386.84,-193.75"/>
<polygon fill="#63b8ff" stroke="#63b8ff" points="389.87,-191.91 380.8,-186.44 384.47,-196.37 389.87,-191.91"/>
</a>
</g>
</g>
<!-- Node31 -->
<g id="Node000031" class="node">
<title>Node31</title>
<g id="a_Node000031"><a xlink:href="_alarm_8h.html" target="_top" xlink:title=" ">
<polygon fill="white" stroke="#666666" points="748,-240.25 698.25,-240.25 698.25,-221 748,-221 748,-240.25"/>
<text xml:space="preserve" text-anchor="middle" x="723.12" y="-226.75" font-family="Helvetica,sans-Serif" font-size="10.00">Alarm.h</text>
</a>
</g>
</g>
<!-- Node7&#45;&gt;Node31 -->
<g id="edge43_Node000007_Node000031" class="edge">
<title>Node7&#45;&gt;Node31</title>
<g id="a_edge43_Node000007_Node000031"><a xlink:title=" ">
<path fill="none" stroke="#63b8ff" d="M836.05,-275.84C814.37,-267.35 781.64,-254.54 757,-244.89"/>
<polygon fill="#63b8ff" stroke="#63b8ff" points="758.31,-241.64 747.72,-241.25 755.75,-248.16 758.31,-241.64"/>
</a>
</g>
</g>
<!-- Node32 -->
<g id="Node000032" class="node">
<title>Node32</title>
<g id="a_Node000032"><a xlink:title=" ">
<polygon fill="#e0e0e0" stroke="#999999" points="998,-240.25 942.25,-240.25 942.25,-221 998,-221 998,-240.25"/>
<text xml:space="preserve" text-anchor="middle" x="970.12" y="-226.75" font-family="Helvetica,sans-Serif" font-size="10.00">algorithm</text>
</a>
</g>
</g>
<!-- Node7&#45;&gt;Node32 -->
<g id="edge51_Node000007_Node000032" class="edge">
<title>Node7&#45;&gt;Node32</title>
<g id="a_edge51_Node000007_Node000032"><a xlink:title=" ">
<path fill="none" stroke="#63b8ff" d="M877.95,-275.84C895.18,-267.58 920.93,-255.23 940.83,-245.68"/>
<polygon fill="#63b8ff" stroke="#63b8ff" points="942.34,-248.84 949.84,-241.36 939.31,-242.53 942.34,-248.84"/>
</a>
</g>
</g>
<!-- Node9&#45;&gt;Node2 -->
<g id="edge10_Node000009_Node000002" class="edge">
<title>Node9&#45;&gt;Node2</title>
<g id="a_edge10_Node000009_Node000002"><a xlink:title=" ">
<path fill="none" stroke="#63b8ff" d="M846.09,-110.17C833.4,-101.35 813.66,-87.37 797.12,-74.5 777.08,-58.89 754.92,-40.08 739.73,-26.93"/>
<polygon fill="#63b8ff" stroke="#63b8ff" points="742.23,-24.47 732.39,-20.55 737.64,-29.75 742.23,-24.47"/>
</a>
</g>
</g>
<!-- Node9&#45;&gt;Node10 -->
<g id="edge11_Node000009_Node000010" class="edge">
<title>Node9&#45;&gt;Node10</title>
<g id="a_edge11_Node000009_Node000010"><a xlink:title=" ">
<path fill="none" stroke="#63b8ff" d="M877.45,-110.09C894.2,-101.83 919.26,-89.48 938.63,-79.93"/>
<polygon fill="#63b8ff" stroke="#63b8ff" points="939.94,-83.18 947.36,-75.62 936.84,-76.9 939.94,-83.18"/>
</a>
</g>
</g>
<!-- Node9&#45;&gt;Node11 -->
<g id="edge12_Node000009_Node000011" class="edge">
<title>Node9&#45;&gt;Node11</title>
<g id="a_edge12_Node000009_Node000011"><a xlink:title=" ">
<path fill="none" stroke="#63b8ff" d="M886.58,-112.16C921,-103.44 980.55,-88.34 1022.24,-77.76"/>
<polygon fill="#63b8ff" stroke="#63b8ff" points="1022.93,-81.2 1031.76,-75.35 1021.21,-74.42 1022.93,-81.2"/>
</a>
</g>
</g>
<!-- Node12 -->
<g id="Node000012" class="node">
<title>Node12</title>
<g id="a_Node000012"><a xlink:title=" ">
<polygon fill="#e0e0e0" stroke="#999999" points="917.75,-74.5 806.5,-74.5 806.5,-55.25 917.75,-55.25 917.75,-74.5"/>
<text xml:space="preserve" text-anchor="middle" x="862.12" y="-61" font-family="Helvetica,sans-Serif" font-size="10.00">Adafruit_MAX31865.h</text>
</a>
</g>
</g>
<!-- Node9&#45;&gt;Node12 -->
<g id="edge13_Node000009_Node000012" class="edge">
<title>Node9&#45;&gt;Node12</title>
<g id="a_edge13_Node000009_Node000012"><a xlink:title=" ">
<path fill="none" stroke="#63b8ff" d="M859.62,-110.33C859.99,-103.74 860.51,-94.46 860.99,-86.07"/>
<polygon fill="#63b8ff" stroke="#63b8ff" points="864.47,-86.55 861.53,-76.37 857.48,-86.16 864.47,-86.55"/>
</a>
</g>
</g>
<!-- Node13&#45;&gt;Node2 -->
<g id="edge15_Node000013_Node000002" class="edge">
<title>Node13&#45;&gt;Node2</title>
<g id="a_edge15_Node000013_Node000002"><a xlink:title=" ">
<path fill="none" stroke="#63b8ff" d="M719.23,-165.57C719.54,-140.25 720.44,-66.75 720.88,-30.84"/>
<polygon fill="#63b8ff" stroke="#63b8ff" points="724.38,-31.03 721,-20.99 717.38,-30.94 724.38,-31.03"/>
</a>
</g>
</g>
<!-- Node13&#45;&gt;Node9 -->
<g id="edge16_Node000013_Node000009" class="edge">
<title>Node13&#45;&gt;Node9</title>
<g id="a_edge16_Node000013_Node000009"><a xlink:title=" ">
<path fill="none" stroke="#63b8ff" d="M742.87,-165.34C765.3,-156.81 799.19,-143.92 824.6,-134.26"/>
<polygon fill="#63b8ff" stroke="#63b8ff" points="825.74,-137.57 833.84,-130.74 823.25,-131.02 825.74,-137.57"/>
</a>
</g>
</g>
<!-- Node13&#45;&gt;Node14 -->
<g id="edge17_Node000013_Node000014" class="edge">
<title>Node13&#45;&gt;Node14</title>
<g id="a_edge17_Node000013_Node000014"><a xlink:title=" ">
<path fill="none" stroke="#63b8ff" d="M700.97,-165.34C684.45,-157.12 659.78,-144.84 640.63,-135.31"/>
<polygon fill="#63b8ff" stroke="#63b8ff" points="642.23,-132.2 631.72,-130.88 639.11,-138.47 642.23,-132.2"/>
</a>
</g>
</g>
<!-- Node14&#45;&gt;Node2 -->
<g id="edge18_Node000014_Node000002" class="edge">
<title>Node14&#45;&gt;Node2</title>
<g id="a_edge18_Node000014_Node000002"><a xlink:title=" ">
<path fill="none" stroke="#63b8ff" d="M621.04,-110.25C639.17,-92.21 680.57,-51 704.05,-27.63"/>
<polygon fill="#63b8ff" stroke="#63b8ff" points="706.39,-30.23 711.01,-20.69 701.45,-25.27 706.39,-30.23"/>
</a>
</g>
</g>
<!-- Node14&#45;&gt;Node8 -->
<g id="edge29_Node000014_Node000008" class="edge">
<title>Node14&#45;&gt;Node8</title>
<g id="a_edge29_Node000014_Node000008"><a xlink:title=" ">
<path fill="none" stroke="#63b8ff" d="M593.63,-110.09C576.72,-101.83 551.44,-89.48 531.89,-79.93"/>
<polygon fill="#63b8ff" stroke="#63b8ff" points="533.59,-76.86 523.07,-75.62 530.51,-83.15 533.59,-76.86"/>
</a>
</g>
</g>
<!-- Node14&#45;&gt;Node14 -->
<g id="edge30_Node000014_Node000014" class="edge">
<title>Node14&#45;&gt;Node14</title>
<g id="a_edge30_Node000014_Node000014"><a xlink:title=" ">
<path fill="none" stroke="#63b8ff" d="M645.25,-130.23C661.18,-131.48 675.25,-128.11 675.25,-120.12 675.25,-114.14 667.34,-110.74 656.66,-109.95"/>
<polygon fill="#63b8ff" stroke="#63b8ff" points="656.74,-106.45 646.76,-110.01 656.79,-113.45 656.74,-106.45"/>
</a>
</g>
</g>
<!-- Node15 -->
<g id="Node000015" class="node">
<title>Node15</title>
<g id="a_Node000015"><a xlink:title=" ">
<polygon fill="#e0e0e0" stroke="#999999" points="579.62,-74.5 542.62,-74.5 542.62,-55.25 579.62,-55.25 579.62,-74.5"/>
<text xml:space="preserve" text-anchor="middle" x="561.12" y="-61" font-family="Helvetica,sans-Serif" font-size="10.00">FS.h</text>
</a>
</g>
</g>
<!-- Node14&#45;&gt;Node15 -->
<g id="edge19_Node000014_Node000015" class="edge">
<title>Node14&#45;&gt;Node15</title>
<g id="a_edge19_Node000014_Node000015"><a xlink:title=" ">
<path fill="none" stroke="#63b8ff" d="M603.7,-110.33C596.59,-102.9 586.18,-92.04 577.44,-82.91"/>
<polygon fill="#63b8ff" stroke="#63b8ff" points="580.22,-80.75 570.78,-75.95 575.17,-85.6 580.22,-80.75"/>
</a>
</g>
</g>
<!-- Node16 -->
<g id="Node000016" class="node">
<title>Node16</title>
<g id="a_Node000016"><a xlink:title=" ">
<polygon fill="#e0e0e0" stroke="#999999" points="636.38,-74.5 597.88,-74.5 597.88,-55.25 636.38,-55.25 636.38,-74.5"/>
<text xml:space="preserve" text-anchor="middle" x="617.12" y="-61" font-family="Helvetica,sans-Serif" font-size="10.00">SD.h</text>
</a>
</g>
</g>
<!-- Node14&#45;&gt;Node16 -->
<g id="edge20_Node000014_Node000016" class="edge">
<title>Node14&#45;&gt;Node16</title>
<g id="a_edge20_Node000014_Node000016"><a xlink:title=" ">
<path fill="none" stroke="#63b8ff" d="M612.95,-110.33C613.57,-103.74 614.44,-94.46 615.23,-86.07"/>
<polygon fill="#63b8ff" stroke="#63b8ff" points="618.69,-86.65 616.14,-76.37 611.72,-86 618.69,-86.65"/>
</a>
</g>
</g>
<!-- Node17 -->
<g id="Node000017" class="node">
<title>Node17</title>
<g id="a_Node000017"><a xlink:href="_time_manager_8h.html" target="_top" xlink:title=" ">
<polygon fill="white" stroke="#666666" points="234.5,-74.5 151.75,-74.5 151.75,-55.25 234.5,-55.25 234.5,-74.5"/>
<text xml:space="preserve" text-anchor="middle" x="193.12" y="-61" font-family="Helvetica,sans-Serif" font-size="10.00">TimeManager.h</text>
</a>
</g>
</g>
<!-- Node14&#45;&gt;Node17 -->
<g id="edge21_Node000014_Node000017" class="edge">
<title>Node14&#45;&gt;Node17</title>
<g id="a_edge21_Node000014_Node000017"><a xlink:title=" ">
<path fill="none" stroke="#63b8ff" d="M566.89,-113.38C488.77,-103.45 329.01,-83.14 245.94,-72.59"/>
<polygon fill="#63b8ff" stroke="#63b8ff" points="246.61,-69.14 236.25,-71.36 245.72,-76.09 246.61,-69.14"/>
</a>
</g>
</g>
<!-- Node17&#45;&gt;Node2 -->
<g id="edge22_Node000017_Node000002" class="edge">
<title>Node17&#45;&gt;Node2</title>
<g id="a_edge22_Node000017_Node000002"><a xlink:title=" ">
<path fill="none" stroke="#63b8ff" d="M234.83,-57.06C239.31,-56.41 243.81,-55.79 248.12,-55.25 408.03,-35.19 599.39,-19.75 681.03,-13.57"/>
<polygon fill="#63b8ff" stroke="#63b8ff" points="681.04,-17.08 690.75,-12.84 680.52,-10.1 681.04,-17.08"/>
</a>
</g>
</g>
<!-- Node18 -->
<g id="Node000018" class="node">
<title>Node18</title>
<g id="a_Node000018"><a xlink:title=" ">
<polygon fill="#e0e0e0" stroke="#999999" points="371.38,-19.25 326.88,-19.25 326.88,0 371.38,0 371.38,-19.25"/>
<text xml:space="preserve" text-anchor="middle" x="349.12" y="-5.75" font-family="Helvetica,sans-Serif" font-size="10.00">WiFi.h</text>
</a>
</g>
</g>
<!-- Node17&#45;&gt;Node18 -->
<g id="edge23_Node000017_Node000018" class="edge">
<title>Node17&#45;&gt;Node18</title>
<g id="a_edge23_Node000017_Node000018"><a xlink:title=" ">
<path fill="none" stroke="#63b8ff" d="M219.59,-54.84C246.14,-45.78 287.12,-31.79 315.85,-21.98"/>
<polygon fill="#63b8ff" stroke="#63b8ff" points="316.82,-25.35 325.16,-18.81 314.56,-18.72 316.82,-25.35"/>
</a>
</g>
</g>
<!-- Node19 -->
<g id="Node000019" class="node">
<title>Node19</title>
<g id="a_Node000019"><a xlink:title=" ">
<polygon fill="#e0e0e0" stroke="#999999" points="140.38,-19.25 95.88,-19.25 95.88,0 140.38,0 140.38,-19.25"/>
<text xml:space="preserve" text-anchor="middle" x="118.12" y="-5.75" font-family="Helvetica,sans-Serif" font-size="10.00">Wire.h</text>
</a>
</g>
</g>
<!-- Node17&#45;&gt;Node19 -->
<g id="edge24_Node000017_Node000019" class="edge">
<title>Node17&#45;&gt;Node19</title>
<g id="a_edge24_Node000017_Node000019"><a xlink:title=" ">
<path fill="none" stroke="#63b8ff" d="M180.4,-54.84C169.41,-47.04 153.28,-35.59 140.19,-26.29"/>
<polygon fill="#63b8ff" stroke="#63b8ff" points="142.32,-23.51 132.14,-20.58 138.27,-29.22 142.32,-23.51"/>
</a>
</g>
</g>
<!-- Node20 -->
<g id="Node000020" class="node">
<title>Node20</title>
<g id="a_Node000020"><a xlink:title=" ">
<polygon fill="#e0e0e0" stroke="#999999" points="444.62,-19.25 389.62,-19.25 389.62,0 444.62,0 444.62,-19.25"/>
<text xml:space="preserve" text-anchor="middle" x="417.12" y="-5.75" font-family="Helvetica,sans-Serif" font-size="10.00">RTClib.h</text>
</a>
</g>
</g>
<!-- Node17&#45;&gt;Node20 -->
<g id="edge25_Node000017_Node000020" class="edge">
<title>Node17&#45;&gt;Node20</title>
<g id="a_edge25_Node000017_Node000020"><a xlink:title=" ">
<path fill="none" stroke="#63b8ff" d="M231.38,-54.78C272.38,-45.03 337.13,-29.64 378.33,-19.85"/>
<polygon fill="#63b8ff" stroke="#63b8ff" points="378.9,-23.31 387.82,-17.59 377.28,-16.5 378.9,-23.31"/>
</a>
</g>
</g>
<!-- Node21 -->
<g id="Node000021" class="node">
<title>Node21</title>
<g id="a_Node000021"><a xlink:title=" ">
<polygon fill="#e0e0e0" stroke="#999999" points="228.12,-19.25 158.12,-19.25 158.12,0 228.12,0 228.12,-19.25"/>
<text xml:space="preserve" text-anchor="middle" x="193.12" y="-5.75" font-family="Helvetica,sans-Serif" font-size="10.00">NTPClient.h</text>
</a>
</g>
</g>
<!-- Node17&#45;&gt;Node21 -->
<g id="edge26_Node000017_Node000021" class="edge">
<title>Node17&#45;&gt;Node21</title>
<g id="a_edge26_Node000017_Node000021"><a xlink:title=" ">
<path fill="none" stroke="#63b8ff" d="M193.12,-55.08C193.12,-48.57 193.12,-39.42 193.12,-31.12"/>
<polygon fill="#63b8ff" stroke="#63b8ff" points="196.63,-31.12 193.13,-21.12 189.63,-31.12 196.63,-31.12"/>
</a>
</g>
</g>
<!-- Node22 -->
<g id="Node000022" class="node">
<title>Node22</title>
<g id="a_Node000022"><a xlink:title=" ">
<polygon fill="#e0e0e0" stroke="#999999" points="308.38,-19.25 245.88,-19.25 245.88,0 308.38,0 308.38,-19.25"/>
<text xml:space="preserve" text-anchor="middle" x="277.12" y="-5.75" font-family="Helvetica,sans-Serif" font-size="10.00">WiFiUdp.h</text>
</a>
</g>
</g>
<!-- Node17&#45;&gt;Node22 -->
<g id="edge27_Node000017_Node000022" class="edge">
<title>Node17&#45;&gt;Node22</title>
<g id="a_edge27_Node000017_Node000022"><a xlink:title=" ">
<path fill="none" stroke="#63b8ff" d="M207.37,-54.84C219.92,-46.89 238.46,-35.14 253.27,-25.75"/>
<polygon fill="#63b8ff" stroke="#63b8ff" points="254.96,-28.82 261.53,-20.51 251.21,-22.91 254.96,-28.82"/>
</a>
</g>
</g>
<!-- Node17&#45;&gt;Node23 -->
<g id="edge28_Node000017_Node000023" class="edge">
<title>Node17&#45;&gt;Node23</title>
<g id="a_edge28_Node000017_Node000023"><a xlink:title=" ">
<path fill="none" stroke="#63b8ff" d="M167,-54.84C142,-46.2 104.05,-33.07 75.98,-23.37"/>
<polygon fill="#63b8ff" stroke="#63b8ff" points="77.4,-20.16 66.81,-20.2 75.11,-26.77 77.4,-20.16"/>
</a>
</g>
</g>
<!-- Node24&#45;&gt;Node13 -->
<g id="edge33_Node000024_Node000013" class="edge">
<title>Node24&#45;&gt;Node13</title>
<g id="a_edge33_Node000024_Node000013"><a xlink:title=" ">
<path fill="none" stroke="#63b8ff" d="M653.53,-220.59C665.22,-212.71 682.43,-201.11 696.29,-191.77"/>
<polygon fill="#63b8ff" stroke="#63b8ff" points="698.07,-194.79 704.4,-186.3 694.15,-188.99 698.07,-194.79"/>
</a>
</g>
</g>
<!-- Node25 -->
<g id="Node000025" class="node">
<title>Node25</title>
<g id="a_Node000025"><a xlink:title=" ">
<polygon fill="#e0e0e0" stroke="#999999" points="572.25,-185 524,-185 524,-165.75 572.25,-165.75 572.25,-185"/>
<text xml:space="preserve" text-anchor="middle" x="548.12" y="-171.5" font-family="Helvetica,sans-Serif" font-size="10.00">stdint.h</text>
</a>
</g>
</g>
<!-- Node24&#45;&gt;Node25 -->
<g id="edge32_Node000024_Node000025" class="edge">
<title>Node24&#45;&gt;Node25</title>
<g id="a_edge32_Node000024_Node000025"><a xlink:title=" ">
<path fill="none" stroke="#63b8ff" d="M624.52,-220.59C610.51,-212.48 589.69,-200.43 573.32,-190.96"/>
<polygon fill="#63b8ff" stroke="#63b8ff" points="575.53,-188.19 565.12,-186.21 572.02,-194.25 575.53,-188.19"/>
</a>
</g>
</g>
<!-- Node26&#45;&gt;Node2 -->
<g id="edge35_Node000026_Node000002" class="edge">
<title>Node26&#45;&gt;Node2</title>
<g id="a_edge35_Node000026_Node000002"><a xlink:title=" ">
<path fill="none" stroke="#63b8ff" d="M394.72,-165.39C410.35,-157.91 430.96,-145.88 444.12,-129.75 466.49,-102.35 444.94,-77.88 472.12,-55.25 503.28,-29.31 618.98,-17.58 681.09,-13.05"/>
<polygon fill="#63b8ff" stroke="#63b8ff" points="681.16,-16.55 690.89,-12.37 680.67,-9.57 681.16,-16.55"/>
</a>
</g>
</g>
<!-- Node26&#45;&gt;Node8 -->
<g id="edge41_Node000026_Node000008" class="edge">
<title>Node26&#45;&gt;Node8</title>
<g id="a_edge41_Node000026_Node000008"><a xlink:title=" ">
<path fill="none" stroke="#63b8ff" d="M373.42,-165.35C374.32,-151.78 377.94,-126.07 392.12,-110.5 412.53,-88.1 445.73,-76.74 470.51,-71.11"/>
<polygon fill="#63b8ff" stroke="#63b8ff" points="470.99,-74.58 480.09,-69.15 469.59,-67.72 470.99,-74.58"/>
</a>
</g>
</g>
<!-- Node26&#45;&gt;Node14 -->
<g id="edge42_Node000026_Node000014" class="edge">
<title>Node26&#45;&gt;Node14</title>
<g id="a_edge42_Node000026_Node000014"><a xlink:title=" ">
<path fill="none" stroke="#63b8ff" d="M413.94,-165.28C454.41,-156.26 516.56,-142.42 560.46,-132.64"/>
<polygon fill="#63b8ff" stroke="#63b8ff" points="561,-136.1 570,-130.51 559.48,-129.27 561,-136.1"/>
</a>
</g>
</g>
<!-- Node26&#45;&gt;Node19 -->
<g id="edge36_Node000026_Node000019" class="edge">
<title>Node26&#45;&gt;Node19</title>
<g id="a_edge36_Node000026_Node000019"><a xlink:title=" ">
<path fill="none" stroke="#63b8ff" d="M322.71,-171.5C261.2,-166.9 162.26,-155.62 137.12,-129.75 111.54,-103.42 112.09,-57.29 114.97,-30.82"/>
<polygon fill="#63b8ff" stroke="#63b8ff" points="118.42,-31.46 116.27,-21.08 111.48,-30.53 118.42,-31.46"/>
</a>
</g>
</g>
<!-- Node27 -->
<g id="Node000027" class="node">
<title>Node27</title>
<g id="a_Node000027"><a xlink:title=" ">
<polygon fill="#e0e0e0" stroke="#999999" points="435.5,-129.75 400.75,-129.75 400.75,-110.5 435.5,-110.5 435.5,-129.75"/>
<text xml:space="preserve" text-anchor="middle" x="418.12" y="-116.25" font-family="Helvetica,sans-Serif" font-size="10.00">map</text>
</a>
</g>
</g>
<!-- Node26&#45;&gt;Node27 -->
<g id="edge37_Node000026_Node000027" class="edge">
<title>Node26&#45;&gt;Node27</title>
<g id="a_edge37_Node000026_Node000027"><a xlink:title=" ">
<path fill="none" stroke="#63b8ff" d="M380.56,-165.58C386.71,-158.3 395.64,-147.73 403.25,-138.73"/>
<polygon fill="#63b8ff" stroke="#63b8ff" points="405.77,-141.16 409.56,-131.27 400.43,-136.64 405.77,-141.16"/>
</a>
</g>
</g>
<!-- Node28 -->
<g id="Node000028" class="node">
<title>Node28</title>
<g id="a_Node000028"><a xlink:title=" ">
<polygon fill="#e0e0e0" stroke="#999999" points="186.12,-129.75 146.12,-129.75 146.12,-110.5 186.12,-110.5 186.12,-129.75"/>
<text xml:space="preserve" text-anchor="middle" x="166.12" y="-116.25" font-family="Helvetica,sans-Serif" font-size="10.00">string</text>
</a>
</g>
</g>
<!-- Node26&#45;&gt;Node28 -->
<g id="edge38_Node000026_Node000028" class="edge">
<title>Node26&#45;&gt;Node28</title>
<g id="a_edge38_Node000026_Node000028"><a xlink:title=" ">
<path fill="none" stroke="#63b8ff" d="M334.8,-165.28C301,-157.14 250.15,-144.63 197.32,-130.26"/>
<polygon fill="#63b8ff" stroke="#63b8ff" points="198.4,-126.93 187.83,-127.67 196.56,-133.68 198.4,-126.93"/>
</a>
</g>
</g>
<!-- Node29 -->
<g id="Node000029" class="node">
<title>Node29</title>
<g id="a_Node000029"><a xlink:title=" ">
<polygon fill="#e0e0e0" stroke="#999999" points="269.88,-129.75 204.38,-129.75 204.38,-110.5 269.88,-110.5 269.88,-129.75"/>
<text xml:space="preserve" text-anchor="middle" x="237.12" y="-116.25" font-family="Helvetica,sans-Serif" font-size="10.00">PCF8575.h</text>
</a>
</g>
</g>
<!-- Node26&#45;&gt;Node29 -->
<g id="edge39_Node000026_Node000029" class="edge">
<title>Node26&#45;&gt;Node29</title>
<g id="a_edge39_Node000026_Node000029"><a xlink:title=" ">
<path fill="none" stroke="#63b8ff" d="M350.05,-165.34C328.37,-156.85 295.64,-144.04 271,-134.39"/>
<polygon fill="#63b8ff" stroke="#63b8ff" points="272.31,-131.14 261.72,-130.75 269.75,-137.66 272.31,-131.14"/>
</a>
</g>
</g>
<!-- Node30 -->
<g id="Node000030" class="node">
<title>Node30</title>
<g id="a_Node000030"><a xlink:title=" ">
<polygon fill="#e0e0e0" stroke="#999999" points="344.75,-129.75 287.5,-129.75 287.5,-110.5 344.75,-110.5 344.75,-129.75"/>
<text xml:space="preserve" text-anchor="middle" x="316.12" y="-116.25" font-family="Helvetica,sans-Serif" font-size="10.00">U8g2lib.h</text>
</a>
</g>
</g>
<!-- Node26&#45;&gt;Node30 -->
<g id="edge40_Node000026_Node000030" class="edge">
<title>Node26&#45;&gt;Node30</title>
<g id="a_edge40_Node000026_Node000030"><a xlink:title=" ">
<path fill="none" stroke="#63b8ff" d="M363.46,-165.34C355.38,-157.8 343.66,-146.85 333.9,-137.73"/>
<polygon fill="#63b8ff" stroke="#63b8ff" points="336.45,-135.33 326.76,-131.06 331.68,-140.44 336.45,-135.33"/>
</a>
</g>
</g>
<!-- Node31&#45;&gt;Node2 -->
<g id="edge44_Node000031_Node000002" class="edge">
<title>Node31&#45;&gt;Node2</title>
<g id="a_edge44_Node000031_Node000002"><a xlink:title=" ">
<path fill="none" stroke="#63b8ff" d="M742.65,-220.59C756.18,-213.15 773.16,-201.19 781.12,-185 784.9,-177.32 782.69,-174.16 781.12,-165.75 771.58,-114.61 745.75,-58.61 731.29,-29.93"/>
<polygon fill="#63b8ff" stroke="#63b8ff" points="734.41,-28.35 726.72,-21.06 728.18,-31.55 734.41,-28.35"/>
</a>
</g>
</g>
<!-- Node31&#45;&gt;Node8 -->
<g id="edge45_Node000031_Node000008" class="edge">
<title>Node31&#45;&gt;Node8</title>
<g id="a_edge45_Node000031_Node000008"><a xlink:title=" ">
<path fill="none" stroke="#63b8ff" d="M702.96,-220.55C670.14,-205.13 604.2,-171.41 558.12,-129.75 542.4,-115.53 526.86,-96.96 516.34,-83.5"/>
<polygon fill="#63b8ff" stroke="#63b8ff" points="519.41,-81.76 510.54,-75.95 513.85,-86.02 519.41,-81.76"/>
</a>
</g>
</g>
<!-- Node31&#45;&gt;Node13 -->
<g id="edge46_Node000031_Node000013" class="edge">
<title>Node31&#45;&gt;Node13</title>
<g id="a_edge46_Node000031_Node000013"><a xlink:title=" ">
<path fill="none" stroke="#63b8ff" d="M722.46,-220.83C721.97,-214.24 721.27,-204.96 720.64,-196.57"/>
<polygon fill="#63b8ff" stroke="#63b8ff" points="724.15,-196.58 719.91,-186.87 717.17,-197.1 724.15,-196.58"/>
</a>
</g>
</g>
<!-- Node31&#45;&gt;Node14 -->
<g id="edge47_Node000031_Node000014" class="edge">
<title>Node31&#45;&gt;Node14</title>
<g id="a_edge47_Node000031_Node000014"><a xlink:title=" ">
<path fill="none" stroke="#63b8ff" d="M706.45,-220.64C692.32,-212.52 672.03,-199.63 657.12,-185 643.37,-171.51 631.03,-153.33 622.76,-139.81"/>
<polygon fill="#63b8ff" stroke="#63b8ff" points="625.93,-138.29 617.83,-131.45 619.9,-141.84 625.93,-138.29"/>
</a>
</g>
</g>
<!-- Node33&#45;&gt;Node2 -->
<g id="edge53_Node000033_Node000002" class="edge">
<title>Node33&#45;&gt;Node2</title>
<g id="a_edge53_Node000033_Node000002"><a xlink:title=" ">
<path fill="none" stroke="#63b8ff" d="M1068.07,-331.04C1116.65,-318.12 1188.12,-289.32 1188.12,-231.62 1188.12,-231.62 1188.12,-231.62 1188.12,-119.12 1188.12,-86.75 1180.09,-73.16 1153.12,-55.25 1089.5,-13 856.04,-9.67 761.39,-10.12"/>
<polygon fill="#63b8ff" stroke="#63b8ff" points="761.52,-6.62 751.54,-10.19 761.57,-13.62 761.52,-6.62"/>
</a>
</g>
</g>
<!-- Node33&#45;&gt;Node7 -->
<g id="edge55_Node000033_Node000007" class="edge">
<title>Node33&#45;&gt;Node7</title>
<g id="a_edge55_Node000033_Node000007"><a xlink:title=" ">
<path fill="none" stroke="#63b8ff" d="M996.13,-331.09C969.11,-322.37 927.97,-309.09 897.82,-299.36"/>
<polygon fill="#63b8ff" stroke="#63b8ff" points="899.28,-296.16 888.69,-296.42 897.13,-302.82 899.28,-296.16"/>
</a>
</g>
</g>
<!-- Node34 -->
<g id="Node000034" class="node">
<title>Node34</title>
<g id="a_Node000034"><a xlink:title=" ">
<polygon fill="#e0e0e0" stroke="#999999" points="1063.25,-295.5 985,-295.5 985,-276.25 1063.25,-276.25 1063.25,-295.5"/>
<text xml:space="preserve" text-anchor="middle" x="1024.12" y="-282" font-family="Helvetica,sans-Serif" font-size="10.00">CSV_Parser.h</text>
</a>
</g>
</g>
<!-- Node33&#45;&gt;Node34 -->
<g id="edge54_Node000033_Node000034" class="edge">
<title>Node33&#45;&gt;Node34</title>
<g id="a_edge54_Node000033_Node000034"><a xlink:title=" ">
<path fill="none" stroke="#63b8ff" d="M1024.12,-331.33C1024.12,-324.82 1024.12,-315.67 1024.12,-307.37"/>
<polygon fill="#63b8ff" stroke="#63b8ff" points="1027.63,-307.37 1024.13,-297.37 1020.63,-307.37 1027.63,-307.37"/>
</a>
</g>
</g>
<!-- Node35&#45;&gt;Node2 -->
<g id="edge57_Node000035_Node000002" class="edge">
<title>Node35&#45;&gt;Node2</title>
<g id="a_edge57_Node000035_Node000002"><a xlink:title=" ">
<path fill="none" stroke="#63b8ff" d="M1167.06,-331.24C1186.75,-314.18 1226.12,-274.67 1226.12,-231.62 1226.12,-231.62 1226.12,-231.62 1226.12,-119.12 1226.12,-83.61 1209.09,-72.64 1178.12,-55.25 1107.32,-15.47 859.73,-10.74 761.62,-10.47"/>
<polygon fill="#63b8ff" stroke="#63b8ff" points="761.66,-6.97 751.66,-10.46 761.65,-13.97 761.66,-6.97"/>
</a>
</g>
</g>
<!-- Node35&#45;&gt;Node3 -->
<g id="edge58_Node000035_Node000003" class="edge">
<title>Node35&#45;&gt;Node3</title>
<g id="a_edge58_Node000035_Node000003"><a xlink:title=" ">
<path fill="none" stroke="#63b8ff" d="M1179.53,-331.09C1201.64,-322.56 1235.04,-309.67 1260.09,-300.01"/>
<polygon fill="#63b8ff" stroke="#63b8ff" points="1261.12,-303.36 1269.19,-296.5 1258.6,-296.83 1261.12,-303.36"/>
</a>
</g>
</g>
</g>
</svg>
