<?xml version="1.0" encoding="UTF-8" standalone="no"?>
<!DOCTYPE svg PUBLIC "-//W3C//DTD SVG 1.1//EN"
 "http://www.w3.org/Graphics/SVG/1.1/DTD/svg11.dtd">
<!-- Generated by graphviz version 13.1.0 (20250701.0955)
 -->
<!-- Title: src/ConfigManager.cpp Pages: 1 -->
<svg width="1392pt" height="469pt"
 viewBox="0.00 0.00 1392.00 469.00" xmlns="http://www.w3.org/2000/svg" xmlns:xlink="http://www.w3.org/1999/xlink">
<g id="graph0" class="graph" transform="scale(1 1) rotate(0) translate(4 465.25)">
<title>src/ConfigManager.cpp</title>
<!-- Node1 -->
<g id="Node000001" class="node">
<title>Node1</title>
<g id="a_Node000001"><a xlink:title="Implementation of web&#45;based configuration management system.">
<polygon fill="#999999" stroke="#666666" points="475.25,-461.25 358.75,-461.25 358.75,-442 475.25,-442 475.25,-461.25"/>
<text xml:space="preserve" text-anchor="middle" x="417" y="-447.75" font-family="Helvetica,sans-Serif" font-size="10.00">src/ConfigManager.cpp</text>
</a>
</g>
</g>
<!-- Node2 -->
<g id="Node000002" class="node">
<title>Node2</title>
<g id="a_Node000002"><a xlink:href="_config_manager_8h.html" target="_top" xlink:title="Configuration management system for temperature monitoring device.">
<polygon fill="white" stroke="#666666" points="461.75,-406 372.25,-406 372.25,-386.75 461.75,-386.75 461.75,-406"/>
<text xml:space="preserve" text-anchor="middle" x="417" y="-392.5" font-family="Helvetica,sans-Serif" font-size="10.00">ConfigManager.h</text>
</a>
</g>
</g>
<!-- Node1&#45;&gt;Node2 -->
<g id="edge1_Node000001_Node000002" class="edge">
<title>Node1&#45;&gt;Node2</title>
<g id="a_edge1_Node000001_Node000002"><a xlink:title=" ">
<path fill="none" stroke="#63b8ff" d="M417,-441.83C417,-435.32 417,-426.17 417,-417.87"/>
<polygon fill="#63b8ff" stroke="#63b8ff" points="420.5,-417.87 417,-407.87 413.5,-417.87 420.5,-417.87"/>
</a>
</g>
</g>
<!-- Node24 -->
<g id="Node000024" class="node">
<title>Node24</title>
<g id="a_Node000024"><a xlink:title=" ">
<polygon fill="#e0e0e0" stroke="#999999" points="177.12,-19.25 98.88,-19.25 98.88,0 177.12,0 177.12,-19.25"/>
<text xml:space="preserve" text-anchor="middle" x="138" y="-5.75" font-family="Helvetica,sans-Serif" font-size="10.00">ArduinoJson.h</text>
</a>
</g>
</g>
<!-- Node1&#45;&gt;Node24 -->
<g id="edge61_Node000001_Node000024" class="edge">
<title>Node1&#45;&gt;Node24</title>
<g id="a_edge61_Node000001_Node000024"><a xlink:title=" ">
<path fill="none" stroke="#63b8ff" d="M358.58,-447.59C243.81,-440.03 0,-415.34 0,-342.12 0,-342.12 0,-342.12 0,-119.12 0,-69.57 55.67,-39.2 96.29,-23.63"/>
<polygon fill="#63b8ff" stroke="#63b8ff" points="97.41,-26.94 105.61,-20.23 95.01,-20.37 97.41,-26.94"/>
</a>
</g>
</g>
<!-- Node37 -->
<g id="Node000037" class="node">
<title>Node37</title>
<g id="a_Node000037"><a xlink:title=" ">
<polygon fill="#e0e0e0" stroke="#999999" points="522.5,-406 479.5,-406 479.5,-386.75 522.5,-386.75 522.5,-406"/>
<text xml:space="preserve" text-anchor="middle" x="501" y="-392.5" font-family="Helvetica,sans-Serif" font-size="10.00">time.h</text>
</a>
</g>
</g>
<!-- Node1&#45;&gt;Node37 -->
<g id="edge62_Node000001_Node000037" class="edge">
<title>Node1&#45;&gt;Node37</title>
<g id="a_edge62_Node000001_Node000037"><a xlink:title=" ">
<path fill="none" stroke="#63b8ff" d="M431.25,-441.59C443.8,-433.64 462.33,-421.89 477.14,-412.5"/>
<polygon fill="#63b8ff" stroke="#63b8ff" points="478.83,-415.57 485.4,-407.26 475.08,-409.66 478.83,-415.57"/>
</a>
</g>
</g>
<!-- Node3 -->
<g id="Node000003" class="node">
<title>Node3</title>
<g id="a_Node000003"><a xlink:title=" ">
<polygon fill="#e0e0e0" stroke="#999999" points="907.62,-19.25 850.38,-19.25 850.38,0 907.62,0 907.62,-19.25"/>
<text xml:space="preserve" text-anchor="middle" x="879" y="-5.75" font-family="Helvetica,sans-Serif" font-size="10.00">Arduino.h</text>
</a>
</g>
</g>
<!-- Node2&#45;&gt;Node3 -->
<g id="edge2_Node000002_Node000003" class="edge">
<title>Node2&#45;&gt;Node3</title>
<g id="a_edge2_Node000002_Node000003"><a xlink:title=" ">
<path fill="none" stroke="#63b8ff" d="M462.03,-387.8C465.06,-387.41 468.07,-387.05 471,-386.75 806.48,-352.1 899.8,-424.08 1229,-350.75 1301.73,-334.55 1384,-361.38 1384,-286.88 1384,-286.88 1384,-286.88 1384,-119.12 1384,-86.75 1376.04,-73.05 1349,-55.25 1313.45,-31.85 1026.17,-17.04 919.06,-12.29"/>
<polygon fill="#63b8ff" stroke="#63b8ff" points="919.45,-8.81 909.31,-11.87 919.15,-15.8 919.45,-8.81"/>
</a>
</g>
</g>
<!-- Node4 -->
<g id="Node000004" class="node">
<title>Node4</title>
<g id="a_Node000004"><a xlink:title=" ">
<polygon fill="#e0e0e0" stroke="#999999" points="187.25,-295.5 106.75,-295.5 106.75,-276.25 187.25,-276.25 187.25,-295.5"/>
<text xml:space="preserve" text-anchor="middle" x="147" y="-282" font-family="Helvetica,sans-Serif" font-size="10.00">ConfigAssist.h</text>
</a>
</g>
</g>
<!-- Node2&#45;&gt;Node4 -->
<g id="edge3_Node000002_Node000004" class="edge">
<title>Node2&#45;&gt;Node4</title>
<g id="a_edge3_Node000002_Node000004"><a xlink:title=" ">
<path fill="none" stroke="#63b8ff" d="M372.07,-393.08C280.16,-387.92 77.57,-374.02 57,-350.75 37.96,-329.21 72.16,-310.98 103.72,-299.57"/>
<polygon fill="#63b8ff" stroke="#63b8ff" points="104.49,-303.01 112.82,-296.46 102.22,-296.39 104.49,-303.01"/>
</a>
</g>
</g>
<!-- Node5 -->
<g id="Node000005" class="node">
<title>Node5</title>
<g id="a_Node000005"><a xlink:title=" ">
<polygon fill="#e0e0e0" stroke="#999999" points="174.12,-350.75 65.88,-350.75 65.88,-331.5 174.12,-331.5 174.12,-350.75"/>
<text xml:space="preserve" text-anchor="middle" x="120" y="-337.25" font-family="Helvetica,sans-Serif" font-size="10.00">ConfigAssistHelper.h</text>
</a>
</g>
</g>
<!-- Node2&#45;&gt;Node5 -->
<g id="edge4_Node000002_Node000005" class="edge">
<title>Node2&#45;&gt;Node5</title>
<g id="a_edge4_Node000002_Node000005"><a xlink:title=" ">
<path fill="none" stroke="#63b8ff" d="M371.89,-387.29C321.26,-378.21 238.8,-363.42 182.1,-353.26"/>
<polygon fill="#63b8ff" stroke="#63b8ff" points="182.72,-349.81 172.26,-351.49 181.48,-356.7 182.72,-349.81"/>
</a>
</g>
</g>
<!-- Node6 -->
<g id="Node000006" class="node">
<title>Node6</title>
<g id="a_Node000006"><a xlink:title=" ">
<polygon fill="#e0e0e0" stroke="#999999" points="263.75,-350.75 192.25,-350.75 192.25,-331.5 263.75,-331.5 263.75,-350.75"/>
<text xml:space="preserve" text-anchor="middle" x="228" y="-337.25" font-family="Helvetica,sans-Serif" font-size="10.00">WebServer.h</text>
</a>
</g>
</g>
<!-- Node2&#45;&gt;Node6 -->
<g id="edge5_Node000002_Node000006" class="edge">
<title>Node2&#45;&gt;Node6</title>
<g id="a_edge5_Node000002_Node000006"><a xlink:title=" ">
<path fill="none" stroke="#63b8ff" d="M384.94,-386.34C353.58,-377.51 305.61,-363.99 270.96,-354.23"/>
<polygon fill="#63b8ff" stroke="#63b8ff" points="272.25,-350.96 261.68,-351.61 270.35,-357.69 272.25,-350.96"/>
</a>
</g>
</g>
<!-- Node7 -->
<g id="Node000007" class="node">
<title>Node7</title>
<g id="a_Node000007"><a xlink:title=" ">
<polygon fill="#e0e0e0" stroke="#999999" points="340,-350.75 282,-350.75 282,-331.5 340,-331.5 340,-350.75"/>
<text xml:space="preserve" text-anchor="middle" x="311" y="-337.25" font-family="Helvetica,sans-Serif" font-size="10.00">LittleFS.h</text>
</a>
</g>
</g>
<!-- Node2&#45;&gt;Node7 -->
<g id="edge6_Node000002_Node000007" class="edge">
<title>Node2&#45;&gt;Node7</title>
<g id="a_edge6_Node000002_Node000007"><a xlink:title=" ">
<path fill="none" stroke="#63b8ff" d="M399.02,-386.34C382.65,-378.12 358.21,-365.84 339.24,-356.31"/>
<polygon fill="#63b8ff" stroke="#63b8ff" points="340.93,-353.24 330.42,-351.88 337.79,-359.5 340.93,-353.24"/>
</a>
</g>
</g>
<!-- Node8 -->
<g id="Node000008" class="node">
<title>Node8</title>
<g id="a_Node000008"><a xlink:href="_temperature_controller_8h.html" target="_top" xlink:title="Central temperature monitoring and control system.">
<polygon fill="white" stroke="#666666" points="910.75,-295.5 791.25,-295.5 791.25,-276.25 910.75,-276.25 910.75,-295.5"/>
<text xml:space="preserve" text-anchor="middle" x="851" y="-282" font-family="Helvetica,sans-Serif" font-size="10.00">TemperatureController.h</text>
</a>
</g>
</g>
<!-- Node2&#45;&gt;Node8 -->
<g id="edge7_Node000002_Node000008" class="edge">
<title>Node2&#45;&gt;Node8</title>
<g id="a_edge7_Node000002_Node000008"><a xlink:title=" ">
<path fill="none" stroke="#63b8ff" d="M453.26,-386.31C531.52,-366.75 716.26,-320.56 803.63,-298.72"/>
<polygon fill="#63b8ff" stroke="#63b8ff" points="804.22,-302.18 813.07,-296.36 802.52,-295.39 804.22,-302.18"/>
</a>
</g>
</g>
<!-- Node9 -->
<g id="Node000009" class="node">
<title>Node9</title>
<g id="a_Node000009"><a xlink:title=" ">
<polygon fill="#e0e0e0" stroke="#999999" points="681.5,-74.5 638.5,-74.5 638.5,-55.25 681.5,-55.25 681.5,-74.5"/>
<text xml:space="preserve" text-anchor="middle" x="660" y="-61" font-family="Helvetica,sans-Serif" font-size="10.00">vector</text>
</a>
</g>
</g>
<!-- Node2&#45;&gt;Node9 -->
<g id="edge60_Node000002_Node000009" class="edge">
<title>Node2&#45;&gt;Node9</title>
<g id="a_edge60_Node000002_Node000009"><a xlink:title=" ">
<path fill="none" stroke="#63b8ff" d="M441.8,-386.29C457.26,-379.19 475.88,-367.65 485,-350.75 489.06,-343.22 487.64,-339.64 485,-331.5 448.73,-219.51 261.7,-199.29 339,-110.5 376.1,-67.89 552.53,-64.67 626.86,-65.26"/>
<polygon fill="#63b8ff" stroke="#63b8ff" points="626.73,-68.76 636.77,-65.37 626.81,-61.76 626.73,-68.76"/>
</a>
</g>
</g>
<!-- Node15 -->
<g id="Node000015" class="node">
<title>Node15</title>
<g id="a_Node000015"><a xlink:href="_logger_manager_8h.html" target="_top" xlink:title="Comprehensive data and event logging system for temperature monitoring.">
<polygon fill="white" stroke="#666666" points="832.12,-129.75 741.88,-129.75 741.88,-110.5 832.12,-110.5 832.12,-129.75"/>
<text xml:space="preserve" text-anchor="middle" x="787" y="-116.25" font-family="Helvetica,sans-Serif" font-size="10.00">LoggerManager.h</text>
</a>
</g>
</g>
<!-- Node2&#45;&gt;Node15 -->
<g id="edge59_Node000002_Node000015" class="edge">
<title>Node2&#45;&gt;Node15</title>
<g id="a_edge59_Node000002_Node000015"><a xlink:title=" ">
<path fill="none" stroke="#63b8ff" d="M462.08,-387.76C582.41,-367.26 903.2,-311.38 920,-295.5 962.94,-254.91 984.81,-212.75 949,-165.75 936.05,-148.74 884.83,-136.58 843.4,-129.29"/>
<polygon fill="#63b8ff" stroke="#63b8ff" points="844.23,-125.88 833.78,-127.67 843.06,-132.79 844.23,-125.88"/>
</a>
</g>
</g>
<!-- Node34 -->
<g id="Node000034" class="node">
<title>Node34</title>
<g id="a_Node000034"><a xlink:href="_c_s_v_config_manager_8h.html" target="_top" xlink:title="CSV configuration import/export manager for measurement points and alarms.">
<polygon fill="white" stroke="#666666" points="1220.25,-350.75 1109.75,-350.75 1109.75,-331.5 1220.25,-331.5 1220.25,-350.75"/>
<text xml:space="preserve" text-anchor="middle" x="1165" y="-337.25" font-family="Helvetica,sans-Serif" font-size="10.00">CSVConfigManager.h</text>
</a>
</g>
</g>
<!-- Node2&#45;&gt;Node34 -->
<g id="edge52_Node000002_Node000034" class="edge">
<title>Node2&#45;&gt;Node34</title>
<g id="a_edge52_Node000002_Node000034"><a xlink:title=" ">
<path fill="none" stroke="#63b8ff" d="M462.04,-387.83C465.06,-387.43 468.07,-387.07 471,-386.75 747.62,-356.77 818.91,-376.02 1096,-350.75 1096.68,-350.69 1097.36,-350.63 1098.04,-350.56"/>
<polygon fill="#63b8ff" stroke="#63b8ff" points="1098.2,-354.06 1107.79,-349.57 1097.49,-347.1 1098.2,-354.06"/>
</a>
</g>
</g>
<!-- Node36 -->
<g id="Node000036" class="node">
<title>Node36</title>
<g id="a_Node000036"><a xlink:href="_settings_c_s_v_manager_8h.html" target="_top" xlink:title="CSV import/export manager for system settings.">
<polygon fill="white" stroke="#666666" points="476,-350.75 358,-350.75 358,-331.5 476,-331.5 476,-350.75"/>
<text xml:space="preserve" text-anchor="middle" x="417" y="-337.25" font-family="Helvetica,sans-Serif" font-size="10.00">SettingsCSVManager.h</text>
</a>
</g>
</g>
<!-- Node2&#45;&gt;Node36 -->
<g id="edge56_Node000002_Node000036" class="edge">
<title>Node2&#45;&gt;Node36</title>
<g id="a_edge56_Node000002_Node000036"><a xlink:title=" ">
<path fill="none" stroke="#63b8ff" d="M417,-386.58C417,-380.07 417,-370.92 417,-362.62"/>
<polygon fill="#63b8ff" stroke="#63b8ff" points="420.5,-362.62 417,-352.62 413.5,-362.62 420.5,-362.62"/>
</a>
</g>
</g>
<!-- Node8&#45;&gt;Node3 -->
<g id="edge8_Node000008_Node000003" class="edge">
<title>Node8&#45;&gt;Node3</title>
<g id="a_edge8_Node000008_Node000003"><a xlink:title=" ">
<path fill="none" stroke="#63b8ff" d="M865.8,-275.8C889.09,-260.51 933.27,-227.1 949,-185 970.63,-127.12 921.93,-59.43 895.14,-28.14"/>
<polygon fill="#63b8ff" stroke="#63b8ff" points="897.87,-25.95 888.63,-20.78 892.63,-30.59 897.87,-25.95"/>
</a>
</g>
</g>
<!-- Node8&#45;&gt;Node9 -->
<g id="edge9_Node000008_Node000009" class="edge">
<title>Node8&#45;&gt;Node9</title>
<g id="a_edge9_Node000008_Node000009"><a xlink:title=" ">
<path fill="none" stroke="#63b8ff" d="M790.75,-280.07C736.66,-274.36 663.06,-262.64 645,-240.25 626.28,-217.04 645.07,-126.96 654.87,-86.16"/>
<polygon fill="#63b8ff" stroke="#63b8ff" points="658.26,-87.01 657.26,-76.47 651.47,-85.34 658.26,-87.01"/>
</a>
</g>
</g>
<!-- Node10 -->
<g id="Node000010" class="node">
<title>Node10</title>
<g id="a_Node000010"><a xlink:href="_sensor_8h.html" target="_top" xlink:title="Temperature sensor abstraction layer.">
<polygon fill="white" stroke="#666666" points="1065.12,-129.75 1010.88,-129.75 1010.88,-110.5 1065.12,-110.5 1065.12,-129.75"/>
<text xml:space="preserve" text-anchor="middle" x="1038" y="-116.25" font-family="Helvetica,sans-Serif" font-size="10.00">Sensor.h</text>
</a>
</g>
</g>
<!-- Node8&#45;&gt;Node10 -->
<g id="edge10_Node000008_Node000010" class="edge">
<title>Node8&#45;&gt;Node10</title>
<g id="a_edge10_Node000008_Node000010"><a xlink:title=" ">
<path fill="none" stroke="#63b8ff" d="M908.36,-275.77C933.38,-269.36 961.59,-258.51 982,-240.25 1011.86,-213.54 1027.08,-167.55 1033.72,-141.21"/>
<polygon fill="#63b8ff" stroke="#63b8ff" points="1037.12,-142.03 1035.97,-131.5 1030.3,-140.45 1037.12,-142.03"/>
</a>
</g>
</g>
<!-- Node11 -->
<g id="Node000011" class="node">
<title>Node11</title>
<g id="a_Node000011"><a xlink:title=" ">
<polygon fill="#e0e0e0" stroke="#999999" points="1194.25,-74.5 1131.75,-74.5 1131.75,-55.25 1194.25,-55.25 1194.25,-74.5"/>
<text xml:space="preserve" text-anchor="middle" x="1163" y="-61" font-family="Helvetica,sans-Serif" font-size="10.00">OneWire.h</text>
</a>
</g>
</g>
<!-- Node8&#45;&gt;Node11 -->
<g id="edge48_Node000008_Node000011" class="edge">
<title>Node8&#45;&gt;Node11</title>
<g id="a_edge48_Node000008_Node000011"><a xlink:title=" ">
<path fill="none" stroke="#63b8ff" d="M908.96,-275.76C938.97,-269.18 975.24,-258.19 1004,-240.25 1071.42,-198.2 1127.94,-119.79 1151.38,-84.24"/>
<polygon fill="#63b8ff" stroke="#63b8ff" points="1154.26,-86.24 1156.75,-75.94 1148.38,-82.44 1154.26,-86.24"/>
</a>
</g>
</g>
<!-- Node12 -->
<g id="Node000012" class="node">
<title>Node12</title>
<g id="a_Node000012"><a xlink:title=" ">
<polygon fill="#e0e0e0" stroke="#999999" points="1318,-74.5 1212,-74.5 1212,-55.25 1318,-55.25 1318,-74.5"/>
<text xml:space="preserve" text-anchor="middle" x="1265" y="-61" font-family="Helvetica,sans-Serif" font-size="10.00">DallasTemperature.h</text>
</a>
</g>
</g>
<!-- Node8&#45;&gt;Node12 -->
<g id="edge49_Node000008_Node000012" class="edge">
<title>Node8&#45;&gt;Node12</title>
<g id="a_edge49_Node000008_Node000012"><a xlink:title=" ">
<path fill="none" stroke="#63b8ff" d="M910.98,-276.17C946.98,-269.46 993.02,-258.21 1031,-240.25 1121.36,-197.52 1211.42,-117.09 1247.98,-82.44"/>
<polygon fill="#63b8ff" stroke="#63b8ff" points="1250.19,-85.17 1254.99,-75.72 1245.35,-80.11 1250.19,-85.17"/>
</a>
</g>
</g>
<!-- Node14 -->
<g id="Node000014" class="node">
<title>Node14</title>
<g id="a_Node000014"><a xlink:href="_measurement_point_8h.html" target="_top" xlink:title="Measurement point abstraction for temperature monitoring system.">
<polygon fill="white" stroke="#666666" points="940,-185 834,-185 834,-165.75 940,-165.75 940,-185"/>
<text xml:space="preserve" text-anchor="middle" x="887" y="-171.5" font-family="Helvetica,sans-Serif" font-size="10.00">MeasurementPoint.h</text>
</a>
</g>
</g>
<!-- Node8&#45;&gt;Node14 -->
<g id="edge15_Node000008_Node000014" class="edge">
<title>Node8&#45;&gt;Node14</title>
<g id="a_edge15_Node000008_Node000014"><a xlink:title=" ">
<path fill="none" stroke="#63b8ff" d="M860.5,-276C868.7,-267.66 879.98,-254.38 885,-240.25 889.96,-226.29 890.29,-209.52 889.47,-196.67"/>
<polygon fill="#63b8ff" stroke="#63b8ff" points="892.97,-196.5 888.54,-186.87 886,-197.16 892.97,-196.5"/>
</a>
</g>
</g>
<!-- Node8&#45;&gt;Node24 -->
<g id="edge50_Node000008_Node000024" class="edge">
<title>Node8&#45;&gt;Node24</title>
<g id="a_edge50_Node000008_Node000024"><a xlink:title=" ">
<path fill="none" stroke="#63b8ff" d="M790.9,-279.8C680.74,-268.22 442.22,-232.38 272,-129.75 223.8,-100.69 176.85,-53.26 153.42,-27.9"/>
<polygon fill="#63b8ff" stroke="#63b8ff" points="156.23,-25.79 146.91,-20.75 151.05,-30.5 156.23,-25.79"/>
</a>
</g>
</g>
<!-- Node25 -->
<g id="Node000025" class="node">
<title>Node25</title>
<g id="a_Node000025"><a xlink:href="_register_map_8h.html" target="_top" xlink:title="Modbus register mapping for temperature monitoring system.">
<polygon fill="white" stroke="#666666" points="733.88,-240.25 654.12,-240.25 654.12,-221 733.88,-221 733.88,-240.25"/>
<text xml:space="preserve" text-anchor="middle" x="694" y="-226.75" font-family="Helvetica,sans-Serif" font-size="10.00">RegisterMap.h</text>
</a>
</g>
</g>
<!-- Node8&#45;&gt;Node25 -->
<g id="edge31_Node000008_Node000025" class="edge">
<title>Node8&#45;&gt;Node25</title>
<g id="a_edge31_Node000008_Node000025"><a xlink:title=" ">
<path fill="none" stroke="#63b8ff" d="M824.37,-275.84C798.88,-267.2 760.19,-254.07 731.57,-244.37"/>
<polygon fill="#63b8ff" stroke="#63b8ff" points="732.79,-241.09 722.2,-241.19 730.54,-247.72 732.79,-241.09"/>
</a>
</g>
</g>
<!-- Node27 -->
<g id="Node000027" class="node">
<title>Node27</title>
<g id="a_Node000027"><a xlink:href="_indicator_interface_8h.html" target="_top" xlink:title="Hardware interface for PCF8575 I/O expander and SH1106 OLED display.">
<polygon fill="white" stroke="#666666" points="552,-185 452,-185 452,-165.75 552,-165.75 552,-185"/>
<text xml:space="preserve" text-anchor="middle" x="502" y="-171.5" font-family="Helvetica,sans-Serif" font-size="10.00">IndicatorInterface.h</text>
</a>
</g>
</g>
<!-- Node8&#45;&gt;Node27 -->
<g id="edge34_Node000008_Node000027" class="edge">
<title>Node8&#45;&gt;Node27</title>
<g id="a_edge34_Node000008_Node000027"><a xlink:title=" ">
<path fill="none" stroke="#63b8ff" d="M791.05,-279.41C741.78,-273.58 670.77,-262.06 612,-240.25 579.26,-228.1 545,-206.59 523.59,-191.92"/>
<polygon fill="#63b8ff" stroke="#63b8ff" points="525.61,-189.06 515.41,-186.2 521.6,-194.8 525.61,-189.06"/>
</a>
</g>
</g>
<!-- Node32 -->
<g id="Node000032" class="node">
<title>Node32</title>
<g id="a_Node000032"><a xlink:href="_alarm_8h.html" target="_top" xlink:title="Alarm management system for temperature monitoring.">
<polygon fill="white" stroke="#666666" points="875.88,-240.25 826.12,-240.25 826.12,-221 875.88,-221 875.88,-240.25"/>
<text xml:space="preserve" text-anchor="middle" x="851" y="-226.75" font-family="Helvetica,sans-Serif" font-size="10.00">Alarm.h</text>
</a>
</g>
</g>
<!-- Node8&#45;&gt;Node32 -->
<g id="edge43_Node000008_Node000032" class="edge">
<title>Node8&#45;&gt;Node32</title>
<g id="a_edge43_Node000008_Node000032"><a xlink:title=" ">
<path fill="none" stroke="#63b8ff" d="M851,-276.08C851,-269.57 851,-260.42 851,-252.12"/>
<polygon fill="#63b8ff" stroke="#63b8ff" points="854.5,-252.12 851,-242.12 847.5,-252.12 854.5,-252.12"/>
</a>
</g>
</g>
<!-- Node33 -->
<g id="Node000033" class="node">
<title>Node33</title>
<g id="a_Node000033"><a xlink:title=" ">
<polygon fill="#e0e0e0" stroke="#999999" points="807.88,-240.25 752.12,-240.25 752.12,-221 807.88,-221 807.88,-240.25"/>
<text xml:space="preserve" text-anchor="middle" x="780" y="-226.75" font-family="Helvetica,sans-Serif" font-size="10.00">algorithm</text>
</a>
</g>
</g>
<!-- Node8&#45;&gt;Node33 -->
<g id="edge51_Node000008_Node000033" class="edge">
<title>Node8&#45;&gt;Node33</title>
<g id="a_edge51_Node000008_Node000033"><a xlink:title=" ">
<path fill="none" stroke="#63b8ff" d="M838.96,-275.84C828.59,-268.07 813.4,-256.67 801.03,-247.4"/>
<polygon fill="#63b8ff" stroke="#63b8ff" points="803.18,-244.63 793.08,-241.43 798.98,-250.23 803.18,-244.63"/>
</a>
</g>
</g>
<!-- Node10&#45;&gt;Node3 -->
<g id="edge11_Node000010_Node000003" class="edge">
<title>Node10&#45;&gt;Node3</title>
<g id="a_edge11_Node000010_Node000003"><a xlink:title=" ">
<path fill="none" stroke="#63b8ff" d="M1026.22,-110.19C1009.51,-97.6 977.84,-74.07 950,-55.25 934.91,-45.05 917.61,-34.16 903.87,-25.69"/>
<polygon fill="#63b8ff" stroke="#63b8ff" points="905.79,-22.77 895.44,-20.53 902.14,-28.74 905.79,-22.77"/>
</a>
</g>
</g>
<!-- Node10&#45;&gt;Node11 -->
<g id="edge12_Node000010_Node000011" class="edge">
<title>Node10&#45;&gt;Node11</title>
<g id="a_edge12_Node000010_Node000011"><a xlink:title=" ">
<path fill="none" stroke="#63b8ff" d="M1059.2,-110.09C1078.96,-101.68 1108.67,-89.02 1131.25,-79.4"/>
<polygon fill="#63b8ff" stroke="#63b8ff" points="1132.47,-82.68 1140.3,-75.55 1129.73,-76.24 1132.47,-82.68"/>
</a>
</g>
</g>
<!-- Node10&#45;&gt;Node12 -->
<g id="edge13_Node000010_Node000012" class="edge">
<title>Node10&#45;&gt;Node12</title>
<g id="a_edge13_Node000010_Node000012"><a xlink:title=" ">
<path fill="none" stroke="#63b8ff" d="M1065.38,-112.7C1102.42,-104.01 1169.14,-88.36 1215.19,-77.56"/>
<polygon fill="#63b8ff" stroke="#63b8ff" points="1215.72,-81.03 1224.65,-75.34 1214.12,-74.22 1215.72,-81.03"/>
</a>
</g>
</g>
<!-- Node13 -->
<g id="Node000013" class="node">
<title>Node13</title>
<g id="a_Node000013"><a xlink:title=" ">
<polygon fill="#e0e0e0" stroke="#999999" points="1113.62,-74.5 1002.38,-74.5 1002.38,-55.25 1113.62,-55.25 1113.62,-74.5"/>
<text xml:space="preserve" text-anchor="middle" x="1058" y="-61" font-family="Helvetica,sans-Serif" font-size="10.00">Adafruit_MAX31865.h</text>
</a>
</g>
</g>
<!-- Node10&#45;&gt;Node13 -->
<g id="edge14_Node000010_Node000013" class="edge">
<title>Node10&#45;&gt;Node13</title>
<g id="a_edge14_Node000010_Node000013"><a xlink:title=" ">
<path fill="none" stroke="#63b8ff" d="M1041.3,-110.33C1043.83,-103.59 1047.43,-94.02 1050.63,-85.49"/>
<polygon fill="#63b8ff" stroke="#63b8ff" points="1053.85,-86.87 1054.09,-76.28 1047.3,-84.41 1053.85,-86.87"/>
</a>
</g>
</g>
<!-- Node14&#45;&gt;Node3 -->
<g id="edge16_Node000014_Node000003" class="edge">
<title>Node14&#45;&gt;Node3</title>
<g id="a_edge16_Node000014_Node000003"><a xlink:title=" ">
<path fill="none" stroke="#63b8ff" d="M886.57,-165.57C885.33,-140.25 881.74,-66.75 879.99,-30.84"/>
<polygon fill="#63b8ff" stroke="#63b8ff" points="883.49,-30.8 879.51,-20.98 876.5,-31.14 883.49,-30.8"/>
</a>
</g>
</g>
<!-- Node14&#45;&gt;Node10 -->
<g id="edge17_Node000014_Node000010" class="edge">
<title>Node14&#45;&gt;Node10</title>
<g id="a_edge17_Node000014_Node000010"><a xlink:title=" ">
<path fill="none" stroke="#63b8ff" d="M912.62,-165.34C937.02,-156.74 974.01,-143.69 1001.5,-134"/>
<polygon fill="#63b8ff" stroke="#63b8ff" points="1002.57,-137.33 1010.83,-130.71 1000.24,-130.73 1002.57,-137.33"/>
</a>
</g>
</g>
<!-- Node14&#45;&gt;Node15 -->
<g id="edge18_Node000014_Node000015" class="edge">
<title>Node14&#45;&gt;Node15</title>
<g id="a_edge18_Node000014_Node000015"><a xlink:title=" ">
<path fill="none" stroke="#63b8ff" d="M870.04,-165.34C854.74,-157.19 831.97,-145.07 814.14,-135.58"/>
<polygon fill="#63b8ff" stroke="#63b8ff" points="815.85,-132.52 805.38,-130.91 812.56,-138.7 815.85,-132.52"/>
</a>
</g>
</g>
<!-- Node15&#45;&gt;Node3 -->
<g id="edge19_Node000015_Node000003" class="edge">
<title>Node15&#45;&gt;Node3</title>
<g id="a_edge19_Node000015_Node000003"><a xlink:title=" ">
<path fill="none" stroke="#63b8ff" d="M768.45,-110.05C746.44,-98.05 714.56,-75.99 730,-55.25 754.84,-21.87 803.76,-12.51 838.77,-10.34"/>
<polygon fill="#63b8ff" stroke="#63b8ff" points="838.7,-13.85 848.54,-9.92 838.4,-6.85 838.7,-13.85"/>
</a>
</g>
</g>
<!-- Node15&#45;&gt;Node9 -->
<g id="edge30_Node000015_Node000009" class="edge">
<title>Node15&#45;&gt;Node9</title>
<g id="a_edge30_Node000015_Node000009"><a xlink:title=" ">
<path fill="none" stroke="#63b8ff" d="M765.46,-110.09C745.39,-101.68 715.2,-89.02 692.25,-79.4"/>
<polygon fill="#63b8ff" stroke="#63b8ff" points="693.62,-76.18 683.05,-75.54 690.91,-82.63 693.62,-76.18"/>
</a>
</g>
</g>
<!-- Node16 -->
<g id="Node000016" class="node">
<title>Node16</title>
<g id="a_Node000016"><a xlink:title=" ">
<polygon fill="#e0e0e0" stroke="#999999" points="775.5,-74.5 738.5,-74.5 738.5,-55.25 775.5,-55.25 775.5,-74.5"/>
<text xml:space="preserve" text-anchor="middle" x="757" y="-61" font-family="Helvetica,sans-Serif" font-size="10.00">FS.h</text>
</a>
</g>
</g>
<!-- Node15&#45;&gt;Node16 -->
<g id="edge20_Node000015_Node000016" class="edge">
<title>Node15&#45;&gt;Node16</title>
<g id="a_edge20_Node000015_Node000016"><a xlink:title=" ">
<path fill="none" stroke="#63b8ff" d="M782.05,-110.33C778.12,-103.36 772.49,-93.37 767.56,-84.62"/>
<polygon fill="#63b8ff" stroke="#63b8ff" points="770.76,-83.17 762.8,-76.18 764.66,-86.61 770.76,-83.17"/>
</a>
</g>
</g>
<!-- Node17 -->
<g id="Node000017" class="node">
<title>Node17</title>
<g id="a_Node000017"><a xlink:title=" ">
<polygon fill="#e0e0e0" stroke="#999999" points="832.25,-74.5 793.75,-74.5 793.75,-55.25 832.25,-55.25 832.25,-74.5"/>
<text xml:space="preserve" text-anchor="middle" x="813" y="-61" font-family="Helvetica,sans-Serif" font-size="10.00">SD.h</text>
</a>
</g>
</g>
<!-- Node15&#45;&gt;Node17 -->
<g id="edge21_Node000015_Node000017" class="edge">
<title>Node15&#45;&gt;Node17</title>
<g id="a_edge21_Node000015_Node000017"><a xlink:title=" ">
<path fill="none" stroke="#63b8ff" d="M791.29,-110.33C794.62,-103.51 799.36,-93.81 803.56,-85.2"/>
<polygon fill="#63b8ff" stroke="#63b8ff" points="806.71,-86.74 807.95,-76.22 800.42,-83.67 806.71,-86.74"/>
</a>
</g>
</g>
<!-- Node18 -->
<g id="Node000018" class="node">
<title>Node18</title>
<g id="a_Node000018"><a xlink:href="_time_manager_8h.html" target="_top" xlink:title="Real&#45;time clock and time synchronization management.">
<polygon fill="white" stroke="#666666" points="327.38,-74.5 244.62,-74.5 244.62,-55.25 327.38,-55.25 327.38,-74.5"/>
<text xml:space="preserve" text-anchor="middle" x="286" y="-61" font-family="Helvetica,sans-Serif" font-size="10.00">TimeManager.h</text>
</a>
</g>
</g>
<!-- Node15&#45;&gt;Node18 -->
<g id="edge22_Node000015_Node000018" class="edge">
<title>Node15&#45;&gt;Node18</title>
<g id="a_edge22_Node000015_Node000018"><a xlink:title=" ">
<path fill="none" stroke="#63b8ff" d="M741.66,-114.31C648.86,-104.44 437.74,-82 338.89,-71.5"/>
<polygon fill="#63b8ff" stroke="#63b8ff" points="339.51,-68.04 329.2,-70.47 338.77,-75 339.51,-68.04"/>
</a>
</g>
</g>
<!-- Node18&#45;&gt;Node3 -->
<g id="edge23_Node000018_Node000003" class="edge">
<title>Node18&#45;&gt;Node3</title>
<g id="a_edge23_Node000018_Node000003"><a xlink:title=" ">
<path fill="none" stroke="#63b8ff" d="M327.7,-57.01C332.18,-56.37 336.68,-55.77 341,-55.25 526.47,-33.05 749.23,-18.37 838.81,-12.95"/>
<polygon fill="#63b8ff" stroke="#63b8ff" points="838.77,-16.46 848.55,-12.37 838.35,-9.48 838.77,-16.46"/>
</a>
</g>
</g>
<!-- Node19 -->
<g id="Node000019" class="node">
<title>Node19</title>
<g id="a_Node000019"><a xlink:title=" ">
<polygon fill="#e0e0e0" stroke="#999999" points="544.25,-19.25 499.75,-19.25 499.75,0 544.25,0 544.25,-19.25"/>
<text xml:space="preserve" text-anchor="middle" x="522" y="-5.75" font-family="Helvetica,sans-Serif" font-size="10.00">WiFi.h</text>
</a>
</g>
</g>
<!-- Node18&#45;&gt;Node19 -->
<g id="edge24_Node000018_Node000019" class="edge">
<title>Node18&#45;&gt;Node19</title>
<g id="a_edge24_Node000018_Node000019"><a xlink:title=" ">
<path fill="none" stroke="#63b8ff" d="M327.55,-55.39C366.53,-47.3 426.7,-34.47 488.22,-19.59"/>
<polygon fill="#63b8ff" stroke="#63b8ff" points="488.95,-23.01 497.84,-17.24 487.29,-16.21 488.95,-23.01"/>
</a>
</g>
</g>
<!-- Node20 -->
<g id="Node000020" class="node">
<title>Node20</title>
<g id="a_Node000020"><a xlink:title=" ">
<polygon fill="#e0e0e0" stroke="#999999" points="239.25,-19.25 194.75,-19.25 194.75,0 239.25,0 239.25,-19.25"/>
<text xml:space="preserve" text-anchor="middle" x="217" y="-5.75" font-family="Helvetica,sans-Serif" font-size="10.00">Wire.h</text>
</a>
</g>
</g>
<!-- Node18&#45;&gt;Node20 -->
<g id="edge25_Node000018_Node000020" class="edge">
<title>Node18&#45;&gt;Node20</title>
<g id="a_edge25_Node000018_Node000020"><a xlink:title=" ">
<path fill="none" stroke="#63b8ff" d="M274.3,-54.84C264.22,-47.07 249.46,-35.67 237.44,-26.4"/>
<polygon fill="#63b8ff" stroke="#63b8ff" points="239.79,-23.79 229.73,-20.45 235.51,-29.33 239.79,-23.79"/>
</a>
</g>
</g>
<!-- Node21 -->
<g id="Node000021" class="node">
<title>Node21</title>
<g id="a_Node000021"><a xlink:title=" ">
<polygon fill="#e0e0e0" stroke="#999999" points="312.5,-19.25 257.5,-19.25 257.5,0 312.5,0 312.5,-19.25"/>
<text xml:space="preserve" text-anchor="middle" x="285" y="-5.75" font-family="Helvetica,sans-Serif" font-size="10.00">RTClib.h</text>
</a>
</g>
</g>
<!-- Node18&#45;&gt;Node21 -->
<g id="edge26_Node000018_Node000021" class="edge">
<title>Node18&#45;&gt;Node21</title>
<g id="a_edge26_Node000018_Node000021"><a xlink:title=" ">
<path fill="none" stroke="#63b8ff" d="M285.83,-55.08C285.71,-48.57 285.54,-39.42 285.38,-31.12"/>
<polygon fill="#63b8ff" stroke="#63b8ff" points="288.88,-31.05 285.2,-21.12 281.89,-31.19 288.88,-31.05"/>
</a>
</g>
</g>
<!-- Node22 -->
<g id="Node000022" class="node">
<title>Node22</title>
<g id="a_Node000022"><a xlink:title=" ">
<polygon fill="#e0e0e0" stroke="#999999" points="401,-19.25 331,-19.25 331,0 401,0 401,-19.25"/>
<text xml:space="preserve" text-anchor="middle" x="366" y="-5.75" font-family="Helvetica,sans-Serif" font-size="10.00">NTPClient.h</text>
</a>
</g>
</g>
<!-- Node18&#45;&gt;Node22 -->
<g id="edge27_Node000018_Node000022" class="edge">
<title>Node18&#45;&gt;Node22</title>
<g id="a_edge27_Node000018_Node000022"><a xlink:title=" ">
<path fill="none" stroke="#63b8ff" d="M299.57,-54.84C311.41,-46.96 328.84,-35.36 342.87,-26.02"/>
<polygon fill="#63b8ff" stroke="#63b8ff" points="344.72,-29 351.1,-20.54 340.84,-23.17 344.72,-29"/>
</a>
</g>
</g>
<!-- Node23 -->
<g id="Node000023" class="node">
<title>Node23</title>
<g id="a_Node000023"><a xlink:title=" ">
<polygon fill="#e0e0e0" stroke="#999999" points="481.25,-19.25 418.75,-19.25 418.75,0 481.25,0 481.25,-19.25"/>
<text xml:space="preserve" text-anchor="middle" x="450" y="-5.75" font-family="Helvetica,sans-Serif" font-size="10.00">WiFiUdp.h</text>
</a>
</g>
</g>
<!-- Node18&#45;&gt;Node23 -->
<g id="edge28_Node000018_Node000023" class="edge">
<title>Node18&#45;&gt;Node23</title>
<g id="a_edge28_Node000018_Node000023"><a xlink:title=" ">
<path fill="none" stroke="#63b8ff" d="M313.82,-54.84C340.56,-46.16 381.22,-32.96 411.15,-23.24"/>
<polygon fill="#63b8ff" stroke="#63b8ff" points="412.17,-26.59 420.6,-20.17 410.01,-19.93 412.17,-26.59"/>
</a>
</g>
</g>
<!-- Node18&#45;&gt;Node24 -->
<g id="edge29_Node000018_Node000024" class="edge">
<title>Node18&#45;&gt;Node24</title>
<g id="a_edge29_Node000018_Node000024"><a xlink:title=" ">
<path fill="none" stroke="#63b8ff" d="M260.89,-54.84C236.97,-46.24 200.72,-33.19 173.78,-23.5"/>
<polygon fill="#63b8ff" stroke="#63b8ff" points="175.25,-20.31 164.65,-20.21 172.88,-26.89 175.25,-20.31"/>
</a>
</g>
</g>
<!-- Node25&#45;&gt;Node14 -->
<g id="edge33_Node000025_Node000014" class="edge">
<title>Node25&#45;&gt;Node14</title>
<g id="a_edge33_Node000025_Node000014"><a xlink:title=" ">
<path fill="none" stroke="#63b8ff" d="M726.74,-220.59C758.76,-211.76 807.75,-198.24 843.13,-188.48"/>
<polygon fill="#63b8ff" stroke="#63b8ff" points="843.93,-191.89 852.64,-185.86 842.07,-185.14 843.93,-191.89"/>
</a>
</g>
</g>
<!-- Node26 -->
<g id="Node000026" class="node">
<title>Node26</title>
<g id="a_Node000026"><a xlink:title=" ">
<polygon fill="#e0e0e0" stroke="#999999" points="702.12,-185 653.88,-185 653.88,-165.75 702.12,-165.75 702.12,-185"/>
<text xml:space="preserve" text-anchor="middle" x="678" y="-171.5" font-family="Helvetica,sans-Serif" font-size="10.00">stdint.h</text>
</a>
</g>
</g>
<!-- Node25&#45;&gt;Node26 -->
<g id="edge32_Node000025_Node000026" class="edge">
<title>Node25&#45;&gt;Node26</title>
<g id="a_edge32_Node000025_Node000026"><a xlink:title=" ">
<path fill="none" stroke="#63b8ff" d="M691.36,-220.83C689.36,-214.17 686.52,-204.74 683.98,-196.28"/>
<polygon fill="#63b8ff" stroke="#63b8ff" points="687.36,-195.38 681.14,-186.81 680.66,-197.39 687.36,-195.38"/>
</a>
</g>
</g>
<!-- Node27&#45;&gt;Node3 -->
<g id="edge35_Node000027_Node000003" class="edge">
<title>Node27&#45;&gt;Node3</title>
<g id="a_edge35_Node000027_Node000003"><a xlink:title=" ">
<path fill="none" stroke="#63b8ff" d="M552.45,-167.12C576.16,-161.08 602.74,-150.01 619,-129.75 639.95,-103.65 606.7,-79.28 630,-55.25 658.29,-26.07 775.81,-15.76 838.76,-12.28"/>
<polygon fill="#63b8ff" stroke="#63b8ff" points="838.9,-15.78 848.71,-11.77 838.54,-8.79 838.9,-15.78"/>
</a>
</g>
</g>
<!-- Node27&#45;&gt;Node9 -->
<g id="edge41_Node000027_Node000009" class="edge">
<title>Node27&#45;&gt;Node9</title>
<g id="a_edge41_Node000027_Node000009"><a xlink:title=" ">
<path fill="none" stroke="#63b8ff" d="M451.77,-170.1C396.08,-163.47 318.04,-147.39 350,-110.5 385.58,-69.43 554.57,-65.29 626.96,-65.45"/>
<polygon fill="#63b8ff" stroke="#63b8ff" points="626.58,-68.94 636.6,-65.5 626.62,-61.95 626.58,-68.94"/>
</a>
</g>
</g>
<!-- Node27&#45;&gt;Node15 -->
<g id="edge42_Node000027_Node000015" class="edge">
<title>Node27&#45;&gt;Node15</title>
<g id="a_edge42_Node000027_Node000015"><a xlink:title=" ">
<path fill="none" stroke="#63b8ff" d="M550.67,-165.28C600.58,-155.96 678.15,-141.46 730.68,-131.65"/>
<polygon fill="#63b8ff" stroke="#63b8ff" points="731.15,-135.12 740.34,-129.84 729.86,-128.24 731.15,-135.12"/>
</a>
</g>
</g>
<!-- Node27&#45;&gt;Node20 -->
<g id="edge36_Node000027_Node000020" class="edge">
<title>Node27&#45;&gt;Node20</title>
<g id="a_edge36_Node000027_Node000020"><a xlink:title=" ">
<path fill="none" stroke="#63b8ff" d="M451.66,-170.35C390.66,-162.62 289.44,-140.08 236,-74.5 225.82,-62 221.09,-44.19 218.9,-30.54"/>
<polygon fill="#63b8ff" stroke="#63b8ff" points="222.41,-30.45 217.7,-20.96 215.47,-31.32 222.41,-30.45"/>
</a>
</g>
</g>
<!-- Node28 -->
<g id="Node000028" class="node">
<title>Node28</title>
<g id="a_Node000028"><a xlink:title=" ">
<polygon fill="#e0e0e0" stroke="#999999" points="393.38,-129.75 358.62,-129.75 358.62,-110.5 393.38,-110.5 393.38,-129.75"/>
<text xml:space="preserve" text-anchor="middle" x="376" y="-116.25" font-family="Helvetica,sans-Serif" font-size="10.00">map</text>
</a>
</g>
</g>
<!-- Node27&#45;&gt;Node28 -->
<g id="edge37_Node000027_Node000028" class="edge">
<title>Node27&#45;&gt;Node28</title>
<g id="a_edge37_Node000027_Node000028"><a xlink:title=" ">
<path fill="none" stroke="#63b8ff" d="M480.63,-165.34C459.63,-156.47 427.46,-142.87 404.34,-133.1"/>
<polygon fill="#63b8ff" stroke="#63b8ff" points="405.77,-129.91 395.2,-129.24 403.05,-136.36 405.77,-129.91"/>
</a>
</g>
</g>
<!-- Node29 -->
<g id="Node000029" class="node">
<title>Node29</title>
<g id="a_Node000029"><a xlink:title=" ">
<polygon fill="#e0e0e0" stroke="#999999" points="451,-129.75 411,-129.75 411,-110.5 451,-110.5 451,-129.75"/>
<text xml:space="preserve" text-anchor="middle" x="431" y="-116.25" font-family="Helvetica,sans-Serif" font-size="10.00">string</text>
</a>
</g>
</g>
<!-- Node27&#45;&gt;Node29 -->
<g id="edge38_Node000027_Node000029" class="edge">
<title>Node27&#45;&gt;Node29</title>
<g id="a_edge38_Node000027_Node000029"><a xlink:title=" ">
<path fill="none" stroke="#63b8ff" d="M489.96,-165.34C479.59,-157.57 464.4,-146.17 452.03,-136.9"/>
<polygon fill="#63b8ff" stroke="#63b8ff" points="454.18,-134.13 444.08,-130.93 449.98,-139.73 454.18,-134.13"/>
</a>
</g>
</g>
<!-- Node30 -->
<g id="Node000030" class="node">
<title>Node30</title>
<g id="a_Node000030"><a xlink:title=" ">
<polygon fill="#e0e0e0" stroke="#999999" points="534.75,-129.75 469.25,-129.75 469.25,-110.5 534.75,-110.5 534.75,-129.75"/>
<text xml:space="preserve" text-anchor="middle" x="502" y="-116.25" font-family="Helvetica,sans-Serif" font-size="10.00">PCF8575.h</text>
</a>
</g>
</g>
<!-- Node27&#45;&gt;Node30 -->
<g id="edge39_Node000027_Node000030" class="edge">
<title>Node27&#45;&gt;Node30</title>
<g id="a_edge39_Node000027_Node000030"><a xlink:title=" ">
<path fill="none" stroke="#63b8ff" d="M502,-165.58C502,-159.07 502,-149.92 502,-141.62"/>
<polygon fill="#63b8ff" stroke="#63b8ff" points="505.5,-141.62 502,-131.62 498.5,-141.62 505.5,-141.62"/>
</a>
</g>
</g>
<!-- Node31 -->
<g id="Node000031" class="node">
<title>Node31</title>
<g id="a_Node000031"><a xlink:title=" ">
<polygon fill="#e0e0e0" stroke="#999999" points="609.62,-129.75 552.38,-129.75 552.38,-110.5 609.62,-110.5 609.62,-129.75"/>
<text xml:space="preserve" text-anchor="middle" x="581" y="-116.25" font-family="Helvetica,sans-Serif" font-size="10.00">U8g2lib.h</text>
</a>
</g>
</g>
<!-- Node27&#45;&gt;Node31 -->
<g id="edge40_Node000027_Node000031" class="edge">
<title>Node27&#45;&gt;Node31</title>
<g id="a_edge40_Node000027_Node000031"><a xlink:title=" ">
<path fill="none" stroke="#63b8ff" d="M515.4,-165.34C527.09,-157.46 544.3,-145.86 558.16,-136.52"/>
<polygon fill="#63b8ff" stroke="#63b8ff" points="559.94,-139.54 566.28,-131.05 556.03,-133.74 559.94,-139.54"/>
</a>
</g>
</g>
<!-- Node32&#45;&gt;Node3 -->
<g id="edge44_Node000032_Node000003" class="edge">
<title>Node32&#45;&gt;Node3</title>
<g id="a_edge44_Node000032_Node000003"><a xlink:title=" ">
<path fill="none" stroke="#63b8ff" d="M843.87,-220.7C837.5,-212.12 828.65,-198.5 825,-185 822.77,-176.74 823.22,-174.12 825,-165.75 828.63,-148.62 834.77,-146.11 841,-129.75 854.08,-95.37 866.49,-54.31 873.39,-30.47"/>
<polygon fill="#63b8ff" stroke="#63b8ff" points="876.67,-31.74 876.06,-21.16 869.94,-29.81 876.67,-31.74"/>
</a>
</g>
</g>
<!-- Node32&#45;&gt;Node9 -->
<g id="edge45_Node000032_Node000009" class="edge">
<title>Node32&#45;&gt;Node9</title>
<g id="a_edge45_Node000032_Node000009"><a xlink:title=" ">
<path fill="none" stroke="#63b8ff" d="M835.04,-220.55C820.65,-212.07 799.17,-198.71 782,-185 740.77,-152.08 697.81,-107.26 675.52,-83.06"/>
<polygon fill="#63b8ff" stroke="#63b8ff" points="678.38,-81.01 669.06,-75.98 673.22,-85.73 678.38,-81.01"/>
</a>
</g>
</g>
<!-- Node32&#45;&gt;Node14 -->
<g id="edge46_Node000032_Node000014" class="edge">
<title>Node32&#45;&gt;Node14</title>
<g id="a_edge46_Node000032_Node000014"><a xlink:title=" ">
<path fill="none" stroke="#63b8ff" d="M856.94,-220.83C861.71,-213.78 868.56,-203.65 874.52,-194.83"/>
<polygon fill="#63b8ff" stroke="#63b8ff" points="877.38,-196.86 880.08,-186.61 871.58,-192.94 877.38,-196.86"/>
</a>
</g>
</g>
<!-- Node32&#45;&gt;Node15 -->
<g id="edge47_Node000032_Node000015" class="edge">
<title>Node32&#45;&gt;Node15</title>
<g id="a_edge47_Node000032_Node000015"><a xlink:title=" ">
<path fill="none" stroke="#63b8ff" d="M831.81,-220.63C818.19,-213.15 800.82,-201.11 792,-185 784.72,-171.69 783.78,-154.43 784.49,-141.21"/>
<polygon fill="#63b8ff" stroke="#63b8ff" points="787.94,-141.81 785.38,-131.53 780.97,-141.17 787.94,-141.81"/>
</a>
</g>
</g>
<!-- Node34&#45;&gt;Node3 -->
<g id="edge53_Node000034_Node000003" class="edge">
<title>Node34&#45;&gt;Node3</title>
<g id="a_edge53_Node000034_Node000003"><a xlink:title=" ">
<path fill="none" stroke="#63b8ff" d="M1219.8,-331.1C1273.07,-318.83 1346,-291.16 1346,-231.62 1346,-231.62 1346,-231.62 1346,-119.12 1346,-89.51 1349.83,-74.11 1327,-55.25 1295.89,-29.54 1023.36,-16.27 919.22,-12.1"/>
<polygon fill="#63b8ff" stroke="#63b8ff" points="919.6,-8.61 909.47,-11.72 919.32,-15.61 919.6,-8.61"/>
</a>
</g>
</g>
<!-- Node34&#45;&gt;Node8 -->
<g id="edge55_Node000034_Node000008" class="edge">
<title>Node34&#45;&gt;Node8</title>
<g id="a_edge55_Node000034_Node000008"><a xlink:title=" ">
<path fill="none" stroke="#63b8ff" d="M1111.38,-331.03C1057.27,-321.86 973.67,-307.68 915.86,-297.88"/>
<polygon fill="#63b8ff" stroke="#63b8ff" points="916.6,-294.45 906.16,-296.23 915.43,-301.35 916.6,-294.45"/>
</a>
</g>
</g>
<!-- Node35 -->
<g id="Node000035" class="node">
<title>Node35</title>
<g id="a_Node000035"><a xlink:title=" ">
<polygon fill="#e0e0e0" stroke="#999999" points="1204.12,-295.5 1125.88,-295.5 1125.88,-276.25 1204.12,-276.25 1204.12,-295.5"/>
<text xml:space="preserve" text-anchor="middle" x="1165" y="-282" font-family="Helvetica,sans-Serif" font-size="10.00">CSV_Parser.h</text>
</a>
</g>
</g>
<!-- Node34&#45;&gt;Node35 -->
<g id="edge54_Node000034_Node000035" class="edge">
<title>Node34&#45;&gt;Node35</title>
<g id="a_edge54_Node000034_Node000035"><a xlink:title=" ">
<path fill="none" stroke="#63b8ff" d="M1165,-331.33C1165,-324.82 1165,-315.67 1165,-307.37"/>
<polygon fill="#63b8ff" stroke="#63b8ff" points="1168.5,-307.37 1165,-297.37 1161.5,-307.37 1168.5,-307.37"/>
</a>
</g>
</g>
<!-- Node36&#45;&gt;Node3 -->
<g id="edge57_Node000036_Node000003" class="edge">
<title>Node36&#45;&gt;Node3</title>
<g id="a_edge57_Node000036_Node000003"><a xlink:title=" ">
<path fill="none" stroke="#63b8ff" d="M374.44,-331.1C326.44,-318.13 255,-289.17 255,-231.62 255,-231.62 255,-231.62 255,-174.38 255,-53.17 701.05,-19.86 838.91,-12.46"/>
<polygon fill="#63b8ff" stroke="#63b8ff" points="838.84,-15.97 848.64,-11.96 838.48,-8.98 838.84,-15.97"/>
</a>
</g>
</g>
<!-- Node36&#45;&gt;Node4 -->
<g id="edge58_Node000036_Node000004" class="edge">
<title>Node36&#45;&gt;Node4</title>
<g id="a_edge58_Node000036_Node000004"><a xlink:title=" ">
<path fill="none" stroke="#63b8ff" d="M370.89,-331.03C323.1,-321.61 248.56,-306.91 198.78,-297.09"/>
<polygon fill="#63b8ff" stroke="#63b8ff" points="199.59,-293.68 189.11,-295.18 198.24,-300.55 199.59,-293.68"/>
</a>
</g>
</g>
</g>
</svg>
