<?xml version="1.0" encoding="UTF-8" standalone="no"?>
<!DOCTYPE svg PUBLIC "-//W3C//DTD SVG 1.1//EN"
 "http://www.w3.org/Graphics/SVG/1.1/DTD/svg11.dtd">
<!-- Generated by graphviz version 13.1.0 (20250701.0955)
 -->
<!-- Title: src/ConfigManager.cpp Pages: 1 -->
<svg width="1350pt" height="469pt"
 viewBox="0.00 0.00 1350.00 469.00" xmlns="http://www.w3.org/2000/svg" xmlns:xlink="http://www.w3.org/1999/xlink">
<g id="graph0" class="graph" transform="scale(1 1) rotate(0) translate(4 465.25)">
<title>src/ConfigManager.cpp</title>
<!-- Node1 -->
<g id="Node000001" class="node">
<title>Node1</title>
<g id="a_Node000001"><a xlink:title=" ">
<polygon fill="#999999" stroke="#666666" points="482.38,-461.25 365.88,-461.25 365.88,-442 482.38,-442 482.38,-461.25"/>
<text xml:space="preserve" text-anchor="middle" x="424.12" y="-447.75" font-family="Helvetica,sans-Serif" font-size="10.00">src/ConfigManager.cpp</text>
</a>
</g>
</g>
<!-- Node2 -->
<g id="Node000002" class="node">
<title>Node2</title>
<g id="a_Node000002"><a xlink:href="_config_manager_8h.html" target="_top" xlink:title="Configuration management system for temperature monitoring device.">
<polygon fill="white" stroke="#666666" points="932.88,-406 843.38,-406 843.38,-386.75 932.88,-386.75 932.88,-406"/>
<text xml:space="preserve" text-anchor="middle" x="888.12" y="-392.5" font-family="Helvetica,sans-Serif" font-size="10.00">ConfigManager.h</text>
</a>
</g>
</g>
<!-- Node1&#45;&gt;Node2 -->
<g id="edge1_Node000001_Node000002" class="edge">
<title>Node1&#45;&gt;Node2</title>
<g id="a_edge1_Node000001_Node000002"><a xlink:title=" ">
<path fill="none" stroke="#63b8ff" d="M482.42,-443.93C572.1,-433.64 742.82,-414.05 831.49,-403.87"/>
<polygon fill="#63b8ff" stroke="#63b8ff" points="831.88,-407.35 841.42,-402.74 831.08,-400.4 831.88,-407.35"/>
</a>
</g>
</g>
<!-- Node24 -->
<g id="Node000024" class="node">
<title>Node24</title>
<g id="a_Node000024"><a xlink:title=" ">
<polygon fill="#e0e0e0" stroke="#999999" points="78.25,-19.25 0,-19.25 0,0 78.25,0 78.25,-19.25"/>
<text xml:space="preserve" text-anchor="middle" x="39.12" y="-5.75" font-family="Helvetica,sans-Serif" font-size="10.00">ArduinoJson.h</text>
</a>
</g>
</g>
<!-- Node1&#45;&gt;Node24 -->
<g id="edge60_Node000001_Node000024" class="edge">
<title>Node1&#45;&gt;Node24</title>
<g id="a_edge60_Node000001_Node000024"><a xlink:title=" ">
<path fill="none" stroke="#63b8ff" d="M365.75,-447.81C249.71,-440.61 1.12,-416.52 1.12,-342.12 1.12,-342.12 1.12,-342.12 1.12,-119.12 1.12,-86.13 16.97,-50.51 28.19,-29.41"/>
<polygon fill="#63b8ff" stroke="#63b8ff" points="31.15,-31.3 32.95,-20.86 25.03,-27.9 31.15,-31.3"/>
</a>
</g>
</g>
<!-- Node3 -->
<g id="Node000003" class="node">
<title>Node3</title>
<g id="a_Node000003"><a xlink:title=" ">
<polygon fill="#e0e0e0" stroke="#999999" points="791.75,-19.25 734.5,-19.25 734.5,0 791.75,0 791.75,-19.25"/>
<text xml:space="preserve" text-anchor="middle" x="763.12" y="-5.75" font-family="Helvetica,sans-Serif" font-size="10.00">Arduino.h</text>
</a>
</g>
</g>
<!-- Node2&#45;&gt;Node3 -->
<g id="edge2_Node000002_Node000003" class="edge">
<title>Node2&#45;&gt;Node3</title>
<g id="a_edge2_Node000002_Node000003"><a xlink:title=" ">
<path fill="none" stroke="#63b8ff" d="M933.22,-392.8C1002.4,-388.1 1130.65,-376.17 1168.12,-350.75 1195.46,-332.21 1206.12,-319.91 1206.12,-286.88 1206.12,-286.88 1206.12,-286.88 1206.12,-119.12 1206.12,-80.78 1182.24,-72.77 1148.12,-55.25 1088.67,-24.71 889.65,-14.7 803.47,-11.74"/>
<polygon fill="#63b8ff" stroke="#63b8ff" points="803.71,-8.25 793.6,-11.42 803.48,-15.24 803.71,-8.25"/>
</a>
</g>
</g>
<!-- Node4 -->
<g id="Node000004" class="node">
<title>Node4</title>
<g id="a_Node000004"><a xlink:title=" ">
<polygon fill="#e0e0e0" stroke="#999999" points="1140.38,-295.5 1059.88,-295.5 1059.88,-276.25 1140.38,-276.25 1140.38,-295.5"/>
<text xml:space="preserve" text-anchor="middle" x="1100.12" y="-282" font-family="Helvetica,sans-Serif" font-size="10.00">ConfigAssist.h</text>
</a>
</g>
</g>
<!-- Node2&#45;&gt;Node4 -->
<g id="edge3_Node000002_Node000004" class="edge">
<title>Node2&#45;&gt;Node4</title>
<g id="a_edge3_Node000002_Node000004"><a xlink:title=" ">
<path fill="none" stroke="#63b8ff" d="M912.14,-386.4C933.92,-378 966.72,-364.69 994.12,-350.75 1023.75,-335.69 1056.28,-315.51 1077.38,-301.89"/>
<polygon fill="#63b8ff" stroke="#63b8ff" points="1079.02,-305 1085.49,-296.61 1075.2,-299.13 1079.02,-305"/>
</a>
</g>
</g>
<!-- Node5 -->
<g id="Node000005" class="node">
<title>Node5</title>
<g id="a_Node000005"><a xlink:title=" ">
<polygon fill="#e0e0e0" stroke="#999999" points="1342.25,-350.75 1234,-350.75 1234,-331.5 1342.25,-331.5 1342.25,-350.75"/>
<text xml:space="preserve" text-anchor="middle" x="1288.12" y="-337.25" font-family="Helvetica,sans-Serif" font-size="10.00">ConfigAssistHelper.h</text>
</a>
</g>
</g>
<!-- Node2&#45;&gt;Node5 -->
<g id="edge4_Node000002_Node000005" class="edge">
<title>Node2&#45;&gt;Node5</title>
<g id="a_edge4_Node000002_Node000005"><a xlink:title=" ">
<path fill="none" stroke="#63b8ff" d="M933.23,-389.37C1003.87,-379.97 1140.94,-361.72 1222.51,-350.86"/>
<polygon fill="#63b8ff" stroke="#63b8ff" points="1222.68,-354.37 1232.14,-349.58 1221.76,-347.43 1222.68,-354.37"/>
</a>
</g>
</g>
<!-- Node6 -->
<g id="Node000006" class="node">
<title>Node6</title>
<g id="a_Node000006"><a xlink:title=" ">
<polygon fill="#e0e0e0" stroke="#999999" points="412.88,-350.75 341.38,-350.75 341.38,-331.5 412.88,-331.5 412.88,-350.75"/>
<text xml:space="preserve" text-anchor="middle" x="377.12" y="-337.25" font-family="Helvetica,sans-Serif" font-size="10.00">WebServer.h</text>
</a>
</g>
</g>
<!-- Node2&#45;&gt;Node6 -->
<g id="edge5_Node000002_Node000006" class="edge">
<title>Node2&#45;&gt;Node6</title>
<g id="a_edge5_Node000002_Node000006"><a xlink:title=" ">
<path fill="none" stroke="#63b8ff" d="M842.97,-392.47C761.43,-386.91 583.99,-373.41 423.94,-350.87"/>
<polygon fill="#63b8ff" stroke="#63b8ff" points="424.83,-347.46 414.43,-349.52 423.84,-354.39 424.83,-347.46"/>
</a>
</g>
</g>
<!-- Node7 -->
<g id="Node000007" class="node">
<title>Node7</title>
<g id="a_Node000007"><a xlink:title=" ">
<polygon fill="#e0e0e0" stroke="#999999" points="489.12,-350.75 431.12,-350.75 431.12,-331.5 489.12,-331.5 489.12,-350.75"/>
<text xml:space="preserve" text-anchor="middle" x="460.12" y="-337.25" font-family="Helvetica,sans-Serif" font-size="10.00">LittleFS.h</text>
</a>
</g>
</g>
<!-- Node2&#45;&gt;Node7 -->
<g id="edge6_Node000002_Node000007" class="edge">
<title>Node2&#45;&gt;Node7</title>
<g id="a_edge6_Node000002_Node000007"><a xlink:title=" ">
<path fill="none" stroke="#63b8ff" d="M842.91,-391.36C770.81,-384.67 625.42,-370.07 503.12,-350.75 502.14,-350.59 501.14,-350.43 500.13,-350.26"/>
<polygon fill="#63b8ff" stroke="#63b8ff" points="501.16,-346.89 490.7,-348.57 499.92,-353.78 501.16,-346.89"/>
</a>
</g>
</g>
<!-- Node8 -->
<g id="Node000008" class="node">
<title>Node8</title>
<g id="a_Node000008"><a xlink:href="_temperature_controller_8h.html" target="_top" xlink:title=" ">
<polygon fill="white" stroke="#666666" points="906.88,-295.5 787.38,-295.5 787.38,-276.25 906.88,-276.25 906.88,-295.5"/>
<text xml:space="preserve" text-anchor="middle" x="847.12" y="-282" font-family="Helvetica,sans-Serif" font-size="10.00">TemperatureController.h</text>
</a>
</g>
</g>
<!-- Node2&#45;&gt;Node8 -->
<g id="edge7_Node000002_Node000008" class="edge">
<title>Node2&#45;&gt;Node8</title>
<g id="a_edge7_Node000002_Node000008"><a xlink:title=" ">
<path fill="none" stroke="#63b8ff" d="M883.11,-386.35C878.32,-377.48 871.11,-363.46 866.12,-350.75 860.43,-336.22 855.46,-319.27 852.03,-306.48"/>
<polygon fill="#63b8ff" stroke="#63b8ff" points="855.52,-305.98 849.63,-297.18 848.74,-307.73 855.52,-305.98"/>
</a>
</g>
</g>
<!-- Node15 -->
<g id="Node000015" class="node">
<title>Node15</title>
<g id="a_Node000015"><a xlink:href="_logger_manager_8h.html" target="_top" xlink:title="Comprehensive data and event logging system for temperature monitoring.">
<polygon fill="white" stroke="#666666" points="616.25,-129.75 526,-129.75 526,-110.5 616.25,-110.5 616.25,-129.75"/>
<text xml:space="preserve" text-anchor="middle" x="571.12" y="-116.25" font-family="Helvetica,sans-Serif" font-size="10.00">LoggerManager.h</text>
</a>
</g>
</g>
<!-- Node2&#45;&gt;Node15 -->
<g id="edge59_Node000002_Node000015" class="edge">
<title>Node2&#45;&gt;Node15</title>
<g id="a_edge59_Node000002_Node000015"><a xlink:title=" ">
<path fill="none" stroke="#63b8ff" d="M843,-391.74C744.13,-382.53 517.12,-354.07 517.12,-286.88 517.12,-286.88 517.12,-286.88 517.12,-229.62 517.12,-194.73 539.79,-159.51 555.75,-139.03"/>
<polygon fill="#63b8ff" stroke="#63b8ff" points="558.37,-141.36 561.97,-131.4 552.94,-136.94 558.37,-141.36"/>
</a>
</g>
</g>
<!-- Node34 -->
<g id="Node000034" class="node">
<title>Node34</title>
<g id="a_Node000034"><a xlink:href="_c_s_v_config_manager_8h.html" target="_top" xlink:title="CSV configuration import/export manager for measurement points and alarms.">
<polygon fill="white" stroke="#666666" points="985.38,-350.75 874.88,-350.75 874.88,-331.5 985.38,-331.5 985.38,-350.75"/>
<text xml:space="preserve" text-anchor="middle" x="930.12" y="-337.25" font-family="Helvetica,sans-Serif" font-size="10.00">CSVConfigManager.h</text>
</a>
</g>
</g>
<!-- Node2&#45;&gt;Node34 -->
<g id="edge52_Node000002_Node000034" class="edge">
<title>Node2&#45;&gt;Node34</title>
<g id="a_edge52_Node000002_Node000034"><a xlink:title=" ">
<path fill="none" stroke="#63b8ff" d="M895.06,-386.58C900.74,-379.38 908.96,-368.96 916.02,-360.01"/>
<polygon fill="#63b8ff" stroke="#63b8ff" points="918.66,-362.32 922.1,-352.3 913.16,-357.98 918.66,-362.32"/>
</a>
</g>
</g>
<!-- Node36 -->
<g id="Node000036" class="node">
<title>Node36</title>
<g id="a_Node000036"><a xlink:href="_settings_c_s_v_manager_8h.html" target="_top" xlink:title=" ">
<polygon fill="white" stroke="#666666" points="1159.12,-350.75 1041.12,-350.75 1041.12,-331.5 1159.12,-331.5 1159.12,-350.75"/>
<text xml:space="preserve" text-anchor="middle" x="1100.12" y="-337.25" font-family="Helvetica,sans-Serif" font-size="10.00">SettingsCSVManager.h</text>
</a>
</g>
</g>
<!-- Node2&#45;&gt;Node36 -->
<g id="edge56_Node000002_Node000036" class="edge">
<title>Node2&#45;&gt;Node36</title>
<g id="a_edge56_Node000002_Node000036"><a xlink:title=" ">
<path fill="none" stroke="#63b8ff" d="M924.09,-386.34C959.57,-377.43 1014,-363.76 1052.94,-353.98"/>
<polygon fill="#63b8ff" stroke="#63b8ff" points="1053.67,-357.4 1062.52,-351.57 1051.97,-350.61 1053.67,-357.4"/>
</a>
</g>
</g>
<!-- Node8&#45;&gt;Node3 -->
<g id="edge8_Node000008_Node000003" class="edge">
<title>Node8&#45;&gt;Node3</title>
<g id="a_edge8_Node000008_Node000003"><a xlink:title=" ">
<path fill="none" stroke="#63b8ff" d="M907.29,-277.74C960.69,-270.42 1033.76,-257.63 1057.12,-240.25 1083.1,-220.93 1092.12,-208.75 1092.12,-176.38 1092.12,-176.38 1092.12,-176.38 1092.12,-119.12 1092.12,-89.51 1095.54,-74.61 1073.12,-55.25 1033.48,-21.01 877.88,-13.03 803.35,-11.18"/>
<polygon fill="#63b8ff" stroke="#63b8ff" points="803.7,-7.69 793.63,-10.97 803.55,-14.69 803.7,-7.69"/>
</a>
</g>
</g>
<!-- Node9 -->
<g id="Node000009" class="node">
<title>Node9</title>
<g id="a_Node000009"><a xlink:title=" ">
<polygon fill="#e0e0e0" stroke="#999999" points="298.62,-74.5 255.62,-74.5 255.62,-55.25 298.62,-55.25 298.62,-74.5"/>
<text xml:space="preserve" text-anchor="middle" x="277.12" y="-61" font-family="Helvetica,sans-Serif" font-size="10.00">vector</text>
</a>
</g>
</g>
<!-- Node8&#45;&gt;Node9 -->
<g id="edge9_Node000008_Node000009" class="edge">
<title>Node8&#45;&gt;Node9</title>
<g id="a_edge9_Node000008_Node000009"><a xlink:title=" ">
<path fill="none" stroke="#63b8ff" d="M787.04,-281.35C633.33,-270.87 233.02,-233.88 163.12,-129.75 140.87,-96.59 203.13,-78.83 244.19,-70.97"/>
<polygon fill="#63b8ff" stroke="#63b8ff" points="244.66,-74.44 253.89,-69.24 243.43,-67.55 244.66,-74.44"/>
</a>
</g>
</g>
<!-- Node10 -->
<g id="Node000010" class="node">
<title>Node10</title>
<g id="a_Node000010"><a xlink:href="_sensor_8h.html" target="_top" xlink:title=" ">
<polygon fill="white" stroke="#666666" points="936.25,-129.75 882,-129.75 882,-110.5 936.25,-110.5 936.25,-129.75"/>
<text xml:space="preserve" text-anchor="middle" x="909.12" y="-116.25" font-family="Helvetica,sans-Serif" font-size="10.00">Sensor.h</text>
</a>
</g>
</g>
<!-- Node8&#45;&gt;Node10 -->
<g id="edge10_Node000008_Node000010" class="edge">
<title>Node8&#45;&gt;Node10</title>
<g id="a_edge10_Node000008_Node000010"><a xlink:title=" ">
<path fill="none" stroke="#63b8ff" d="M853.15,-275.97C858.89,-267.19 867.47,-253.24 873.12,-240.25 887.74,-206.67 898.79,-165.32 904.58,-141.22"/>
<polygon fill="#63b8ff" stroke="#63b8ff" points="907.98,-142.05 906.84,-131.52 901.16,-140.46 907.98,-142.05"/>
</a>
</g>
</g>
<!-- Node11 -->
<g id="Node000011" class="node">
<title>Node11</title>
<g id="a_Node000011"><a xlink:title=" ">
<polygon fill="#e0e0e0" stroke="#999999" points="1064.38,-74.5 1001.88,-74.5 1001.88,-55.25 1064.38,-55.25 1064.38,-74.5"/>
<text xml:space="preserve" text-anchor="middle" x="1033.12" y="-61" font-family="Helvetica,sans-Serif" font-size="10.00">OneWire.h</text>
</a>
</g>
</g>
<!-- Node8&#45;&gt;Node11 -->
<g id="edge48_Node000008_Node000011" class="edge">
<title>Node8&#45;&gt;Node11</title>
<g id="a_edge48_Node000008_Node000011"><a xlink:title=" ">
<path fill="none" stroke="#63b8ff" d="M856.49,-275.89C865.58,-267.05 879.65,-253.05 891.12,-240.25 940.51,-185.17 994.59,-116.09 1019.35,-83.91"/>
<polygon fill="#63b8ff" stroke="#63b8ff" points="1022.09,-86.1 1025.4,-76.03 1016.54,-81.84 1022.09,-86.1"/>
</a>
</g>
</g>
<!-- Node12 -->
<g id="Node000012" class="node">
<title>Node12</title>
<g id="a_Node000012"><a xlink:title=" ">
<polygon fill="#e0e0e0" stroke="#999999" points="816.12,-74.5 710.12,-74.5 710.12,-55.25 816.12,-55.25 816.12,-74.5"/>
<text xml:space="preserve" text-anchor="middle" x="763.12" y="-61" font-family="Helvetica,sans-Serif" font-size="10.00">DallasTemperature.h</text>
</a>
</g>
</g>
<!-- Node8&#45;&gt;Node12 -->
<g id="edge49_Node000008_Node000012" class="edge">
<title>Node8&#45;&gt;Node12</title>
<g id="a_edge49_Node000008_Node000012"><a xlink:title=" ">
<path fill="none" stroke="#63b8ff" d="M848.35,-275.84C850.74,-255.44 854.63,-204.56 840.12,-165.75 827.67,-132.44 800.03,-101.19 781.48,-82.8"/>
<polygon fill="#63b8ff" stroke="#63b8ff" points="783.94,-80.31 774.3,-75.9 779.08,-85.36 783.94,-80.31"/>
</a>
</g>
</g>
<!-- Node14 -->
<g id="Node000014" class="node">
<title>Node14</title>
<g id="a_Node000014"><a xlink:href="_measurement_point_8h.html" target="_top" xlink:title="Measurement point abstraction for temperature monitoring system.">
<polygon fill="white" stroke="#666666" points="765.12,-185 659.12,-185 659.12,-165.75 765.12,-165.75 765.12,-185"/>
<text xml:space="preserve" text-anchor="middle" x="712.12" y="-171.5" font-family="Helvetica,sans-Serif" font-size="10.00">MeasurementPoint.h</text>
</a>
</g>
</g>
<!-- Node8&#45;&gt;Node14 -->
<g id="edge15_Node000008_Node000014" class="edge">
<title>Node8&#45;&gt;Node14</title>
<g id="a_edge15_Node000008_Node000014"><a xlink:title=" ">
<path fill="none" stroke="#63b8ff" d="M808.32,-275.76C786.63,-269 760.38,-257.84 742.12,-240.25 729.71,-228.28 721.87,-210.16 717.34,-196.28"/>
<polygon fill="#63b8ff" stroke="#63b8ff" points="720.76,-195.49 714.59,-186.88 714.04,-197.46 720.76,-195.49"/>
</a>
</g>
</g>
<!-- Node8&#45;&gt;Node24 -->
<g id="edge50_Node000008_Node000024" class="edge">
<title>Node8&#45;&gt;Node24</title>
<g id="a_edge50_Node000008_Node000024"><a xlink:title=" ">
<path fill="none" stroke="#63b8ff" d="M787.05,-283.12C599.8,-276.86 39.12,-251.83 39.12,-176.38 39.12,-176.38 39.12,-176.38 39.12,-119.12 39.12,-88.41 39.12,-52.8 39.12,-30.99"/>
<polygon fill="#63b8ff" stroke="#63b8ff" points="42.63,-31.14 39.13,-21.14 35.63,-31.14 42.63,-31.14"/>
</a>
</g>
</g>
<!-- Node25 -->
<g id="Node000025" class="node">
<title>Node25</title>
<g id="a_Node000025"><a xlink:href="_register_map_8h.html" target="_top" xlink:title=" ">
<polygon fill="white" stroke="#666666" points="831,-240.25 751.25,-240.25 751.25,-221 831,-221 831,-240.25"/>
<text xml:space="preserve" text-anchor="middle" x="791.12" y="-226.75" font-family="Helvetica,sans-Serif" font-size="10.00">RegisterMap.h</text>
</a>
</g>
</g>
<!-- Node8&#45;&gt;Node25 -->
<g id="edge31_Node000008_Node000025" class="edge">
<title>Node8&#45;&gt;Node25</title>
<g id="a_edge31_Node000008_Node000025"><a xlink:title=" ">
<path fill="none" stroke="#63b8ff" d="M837.63,-275.84C829.69,-268.3 818.18,-257.35 808.59,-248.23"/>
<polygon fill="#63b8ff" stroke="#63b8ff" points="811.24,-245.92 801.58,-241.57 806.42,-250.99 811.24,-245.92"/>
</a>
</g>
</g>
<!-- Node27 -->
<g id="Node000027" class="node">
<title>Node27</title>
<g id="a_Node000027"><a xlink:href="_indicator_interface_8h.html" target="_top" xlink:title="Hardware interface for PCF8575 I/O expander and SH1106 OLED display.">
<polygon fill="white" stroke="#666666" points="407.12,-185 307.12,-185 307.12,-165.75 407.12,-165.75 407.12,-185"/>
<text xml:space="preserve" text-anchor="middle" x="357.12" y="-171.5" font-family="Helvetica,sans-Serif" font-size="10.00">IndicatorInterface.h</text>
</a>
</g>
</g>
<!-- Node8&#45;&gt;Node27 -->
<g id="edge34_Node000008_Node000027" class="edge">
<title>Node8&#45;&gt;Node27</title>
<g id="a_edge34_Node000008_Node000027"><a xlink:title=" ">
<path fill="none" stroke="#63b8ff" d="M788,-275.75C737.17,-267.56 662.01,-254.65 597.12,-240.25 526.98,-224.68 446.46,-202.32 398.8,-188.6"/>
<polygon fill="#63b8ff" stroke="#63b8ff" points="400.02,-185.31 389.44,-185.9 398.08,-192.04 400.02,-185.31"/>
</a>
</g>
</g>
<!-- Node32 -->
<g id="Node000032" class="node">
<title>Node32</title>
<g id="a_Node000032"><a xlink:href="_alarm_8h.html" target="_top" xlink:title="Alarm management system for temperature monitoring.">
<polygon fill="white" stroke="#666666" points="656,-240.25 606.25,-240.25 606.25,-221 656,-221 656,-240.25"/>
<text xml:space="preserve" text-anchor="middle" x="631.12" y="-226.75" font-family="Helvetica,sans-Serif" font-size="10.00">Alarm.h</text>
</a>
</g>
</g>
<!-- Node8&#45;&gt;Node32 -->
<g id="edge43_Node000008_Node000032" class="edge">
<title>Node8&#45;&gt;Node32</title>
<g id="a_edge43_Node000008_Node000032"><a xlink:title=" ">
<path fill="none" stroke="#63b8ff" d="M810.48,-275.84C770.61,-266.01 707.24,-250.39 667.48,-240.59"/>
<polygon fill="#63b8ff" stroke="#63b8ff" points="668.46,-237.22 657.91,-238.23 666.78,-244.02 668.46,-237.22"/>
</a>
</g>
</g>
<!-- Node33 -->
<g id="Node000033" class="node">
<title>Node33</title>
<g id="a_Node000033"><a xlink:title=" ">
<polygon fill="#e0e0e0" stroke="#999999" points="1048,-240.25 992.25,-240.25 992.25,-221 1048,-221 1048,-240.25"/>
<text xml:space="preserve" text-anchor="middle" x="1020.12" y="-226.75" font-family="Helvetica,sans-Serif" font-size="10.00">algorithm</text>
</a>
</g>
</g>
<!-- Node8&#45;&gt;Node33 -->
<g id="edge51_Node000008_Node000033" class="edge">
<title>Node8&#45;&gt;Node33</title>
<g id="a_edge51_Node000008_Node000033"><a xlink:title=" ">
<path fill="none" stroke="#63b8ff" d="M876.47,-275.84C905.27,-266.98 949.38,-253.4 981.12,-243.63"/>
<polygon fill="#63b8ff" stroke="#63b8ff" points="981.81,-247.08 990.34,-240.79 979.75,-240.39 981.81,-247.08"/>
</a>
</g>
</g>
<!-- Node10&#45;&gt;Node3 -->
<g id="edge11_Node000010_Node000003" class="edge">
<title>Node10&#45;&gt;Node3</title>
<g id="a_edge11_Node000010_Node000003"><a xlink:title=" ">
<path fill="none" stroke="#63b8ff" d="M897.51,-110.14C881.37,-97.69 851.19,-74.54 825.12,-55.25 811.8,-45.39 796.7,-34.52 784.75,-25.98"/>
<polygon fill="#63b8ff" stroke="#63b8ff" points="786.95,-23.25 776.78,-20.3 782.89,-28.95 786.95,-23.25"/>
</a>
</g>
</g>
<!-- Node10&#45;&gt;Node11 -->
<g id="edge12_Node000010_Node000011" class="edge">
<title>Node10&#45;&gt;Node11</title>
<g id="a_edge12_Node000010_Node000011"><a xlink:title=" ">
<path fill="none" stroke="#63b8ff" d="M930.16,-110.09C949.76,-101.68 979.23,-89.02 1001.63,-79.4"/>
<polygon fill="#63b8ff" stroke="#63b8ff" points="1002.79,-82.71 1010.6,-75.55 1000.03,-76.28 1002.79,-82.71"/>
</a>
</g>
</g>
<!-- Node10&#45;&gt;Node12 -->
<g id="edge13_Node000010_Node000012" class="edge">
<title>Node10&#45;&gt;Node12</title>
<g id="a_edge13_Node000010_Node000012"><a xlink:title=" ">
<path fill="none" stroke="#63b8ff" d="M884.36,-110.09C860.87,-101.52 825.31,-88.56 798.77,-78.88"/>
<polygon fill="#63b8ff" stroke="#63b8ff" points="800.03,-75.61 789.44,-75.47 797.63,-82.19 800.03,-75.61"/>
</a>
</g>
</g>
<!-- Node13 -->
<g id="Node000013" class="node">
<title>Node13</title>
<g id="a_Node000013"><a xlink:title=" ">
<polygon fill="#e0e0e0" stroke="#999999" points="983.75,-74.5 872.5,-74.5 872.5,-55.25 983.75,-55.25 983.75,-74.5"/>
<text xml:space="preserve" text-anchor="middle" x="928.12" y="-61" font-family="Helvetica,sans-Serif" font-size="10.00">Adafruit_MAX31865.h</text>
</a>
</g>
</g>
<!-- Node10&#45;&gt;Node13 -->
<g id="edge14_Node000010_Node000013" class="edge">
<title>Node10&#45;&gt;Node13</title>
<g id="a_edge14_Node000010_Node000013"><a xlink:title=" ">
<path fill="none" stroke="#63b8ff" d="M912.26,-110.33C914.67,-103.59 918.08,-94.02 921.13,-85.49"/>
<polygon fill="#63b8ff" stroke="#63b8ff" points="924.35,-86.88 924.41,-76.28 917.75,-84.53 924.35,-86.88"/>
</a>
</g>
</g>
<!-- Node14&#45;&gt;Node3 -->
<g id="edge16_Node000014_Node000003" class="edge">
<title>Node14&#45;&gt;Node3</title>
<g id="a_edge16_Node000014_Node000003"><a xlink:title=" ">
<path fill="none" stroke="#63b8ff" d="M708.18,-165.39C699.73,-144.65 682.09,-92.4 701.12,-55.25 707.74,-42.34 720.02,-32.32 731.92,-25.07"/>
<polygon fill="#63b8ff" stroke="#63b8ff" points="733.33,-28.29 740.36,-20.37 729.92,-22.17 733.33,-28.29"/>
</a>
</g>
</g>
<!-- Node14&#45;&gt;Node10 -->
<g id="edge17_Node000014_Node000010" class="edge">
<title>Node14&#45;&gt;Node10</title>
<g id="a_edge17_Node000014_Node000010"><a xlink:title=" ">
<path fill="none" stroke="#63b8ff" d="M745.54,-165.34C780.26,-155.96 834.51,-141.29 870.91,-131.45"/>
<polygon fill="#63b8ff" stroke="#63b8ff" points="871.39,-134.95 880.13,-128.96 869.56,-128.19 871.39,-134.95"/>
</a>
</g>
</g>
<!-- Node14&#45;&gt;Node15 -->
<g id="edge18_Node000014_Node000015" class="edge">
<title>Node14&#45;&gt;Node15</title>
<g id="a_edge18_Node000014_Node000015"><a xlink:title=" ">
<path fill="none" stroke="#63b8ff" d="M688.21,-165.34C665.62,-156.81 631.49,-143.92 605.9,-134.26"/>
<polygon fill="#63b8ff" stroke="#63b8ff" points="607.17,-131 596.58,-130.74 604.7,-137.54 607.17,-131"/>
</a>
</g>
</g>
<!-- Node15&#45;&gt;Node3 -->
<g id="edge19_Node000015_Node000003" class="edge">
<title>Node15&#45;&gt;Node3</title>
<g id="a_edge19_Node000015_Node000003"><a xlink:title=" ">
<path fill="none" stroke="#63b8ff" d="M576.97,-110.39C586.53,-96.74 606.81,-70.34 630.12,-55.25 658.61,-36.82 695.48,-25.23 723.17,-18.5"/>
<polygon fill="#63b8ff" stroke="#63b8ff" points="723.62,-21.99 732.57,-16.33 722.04,-15.17 723.62,-21.99"/>
</a>
</g>
</g>
<!-- Node15&#45;&gt;Node9 -->
<g id="edge30_Node000015_Node000009" class="edge">
<title>Node15&#45;&gt;Node9</title>
<g id="a_edge30_Node000015_Node000009"><a xlink:title=" ">
<path fill="none" stroke="#63b8ff" d="M525.85,-111.08C476.12,-102.22 393.9,-87.5 323.12,-74.5 318.96,-73.74 314.59,-72.93 310.27,-72.12"/>
<polygon fill="#63b8ff" stroke="#63b8ff" points="311.07,-68.71 300.6,-70.31 309.79,-75.59 311.07,-68.71"/>
</a>
</g>
</g>
<!-- Node16 -->
<g id="Node000016" class="node">
<title>Node16</title>
<g id="a_Node000016"><a xlink:title=" ">
<polygon fill="#e0e0e0" stroke="#999999" points="577.62,-74.5 540.62,-74.5 540.62,-55.25 577.62,-55.25 577.62,-74.5"/>
<text xml:space="preserve" text-anchor="middle" x="559.12" y="-61" font-family="Helvetica,sans-Serif" font-size="10.00">FS.h</text>
</a>
</g>
</g>
<!-- Node15&#45;&gt;Node16 -->
<g id="edge20_Node000015_Node000016" class="edge">
<title>Node15&#45;&gt;Node16</title>
<g id="a_edge20_Node000015_Node000016"><a xlink:title=" ">
<path fill="none" stroke="#63b8ff" d="M569.14,-110.33C567.66,-103.74 565.57,-94.46 563.68,-86.07"/>
<polygon fill="#63b8ff" stroke="#63b8ff" points="567.1,-85.32 561.48,-76.34 560.27,-86.86 567.1,-85.32"/>
</a>
</g>
</g>
<!-- Node17 -->
<g id="Node000017" class="node">
<title>Node17</title>
<g id="a_Node000017"><a xlink:title=" ">
<polygon fill="#e0e0e0" stroke="#999999" points="522.38,-74.5 483.88,-74.5 483.88,-55.25 522.38,-55.25 522.38,-74.5"/>
<text xml:space="preserve" text-anchor="middle" x="503.12" y="-61" font-family="Helvetica,sans-Serif" font-size="10.00">SD.h</text>
</a>
</g>
</g>
<!-- Node15&#45;&gt;Node17 -->
<g id="edge21_Node000015_Node000017" class="edge">
<title>Node15&#45;&gt;Node17</title>
<g id="a_edge21_Node000015_Node000017"><a xlink:title=" ">
<path fill="none" stroke="#63b8ff" d="M559.59,-110.09C549.66,-102.32 535.11,-90.92 523.27,-81.65"/>
<polygon fill="#63b8ff" stroke="#63b8ff" points="525.71,-79.12 515.68,-75.71 521.4,-84.63 525.71,-79.12"/>
</a>
</g>
</g>
<!-- Node18 -->
<g id="Node000018" class="node">
<title>Node18</title>
<g id="a_Node000018"><a xlink:href="_time_manager_8h.html" target="_top" xlink:title=" ">
<polygon fill="white" stroke="#666666" points="414.5,-74.5 331.75,-74.5 331.75,-55.25 414.5,-55.25 414.5,-74.5"/>
<text xml:space="preserve" text-anchor="middle" x="373.12" y="-61" font-family="Helvetica,sans-Serif" font-size="10.00">TimeManager.h</text>
</a>
</g>
</g>
<!-- Node15&#45;&gt;Node18 -->
<g id="edge22_Node000015_Node000018" class="edge">
<title>Node15&#45;&gt;Node18</title>
<g id="a_edge22_Node000015_Node000018"><a xlink:title=" ">
<path fill="none" stroke="#63b8ff" d="M537.54,-110.09C504.54,-101.22 454,-87.62 417.66,-77.85"/>
<polygon fill="#63b8ff" stroke="#63b8ff" points="418.91,-74.56 408.34,-75.35 417.09,-81.32 418.91,-74.56"/>
</a>
</g>
</g>
<!-- Node18&#45;&gt;Node3 -->
<g id="edge23_Node000018_Node000003" class="edge">
<title>Node18&#45;&gt;Node3</title>
<g id="a_edge23_Node000018_Node000003"><a xlink:title=" ">
<path fill="none" stroke="#63b8ff" d="M414.86,-58.18C490.31,-47.87 648.45,-26.28 722.83,-16.13"/>
<polygon fill="#63b8ff" stroke="#63b8ff" points="723.09,-19.62 732.53,-14.8 722.14,-12.69 723.09,-19.62"/>
</a>
</g>
</g>
<!-- Node19 -->
<g id="Node000019" class="node">
<title>Node19</title>
<g id="a_Node000019"><a xlink:title=" ">
<polygon fill="#e0e0e0" stroke="#999999" points="453.38,-19.25 408.88,-19.25 408.88,0 453.38,0 453.38,-19.25"/>
<text xml:space="preserve" text-anchor="middle" x="431.12" y="-5.75" font-family="Helvetica,sans-Serif" font-size="10.00">WiFi.h</text>
</a>
</g>
</g>
<!-- Node18&#45;&gt;Node19 -->
<g id="edge24_Node000018_Node000019" class="edge">
<title>Node18&#45;&gt;Node19</title>
<g id="a_edge24_Node000018_Node000019"><a xlink:title=" ">
<path fill="none" stroke="#63b8ff" d="M382.96,-54.84C391.18,-47.3 403.11,-36.35 413.04,-27.23"/>
<polygon fill="#63b8ff" stroke="#63b8ff" points="415.32,-29.89 420.32,-20.55 410.58,-24.73 415.32,-29.89"/>
</a>
</g>
</g>
<!-- Node20 -->
<g id="Node000020" class="node">
<title>Node20</title>
<g id="a_Node000020"><a xlink:title=" ">
<polygon fill="#e0e0e0" stroke="#999999" points="195.38,-19.25 150.88,-19.25 150.88,0 195.38,0 195.38,-19.25"/>
<text xml:space="preserve" text-anchor="middle" x="173.12" y="-5.75" font-family="Helvetica,sans-Serif" font-size="10.00">Wire.h</text>
</a>
</g>
</g>
<!-- Node18&#45;&gt;Node20 -->
<g id="edge25_Node000018_Node000020" class="edge">
<title>Node18&#45;&gt;Node20</title>
<g id="a_edge25_Node000018_Node000020"><a xlink:title=" ">
<path fill="none" stroke="#63b8ff" d="M339.2,-54.84C302.13,-44.97 243.14,-29.27 206.35,-19.47"/>
<polygon fill="#63b8ff" stroke="#63b8ff" points="207.72,-16.22 197.16,-17.02 205.92,-22.98 207.72,-16.22"/>
</a>
</g>
</g>
<!-- Node21 -->
<g id="Node000021" class="node">
<title>Node21</title>
<g id="a_Node000021"><a xlink:title=" ">
<polygon fill="#e0e0e0" stroke="#999999" points="526.62,-19.25 471.62,-19.25 471.62,0 526.62,0 526.62,-19.25"/>
<text xml:space="preserve" text-anchor="middle" x="499.12" y="-5.75" font-family="Helvetica,sans-Serif" font-size="10.00">RTClib.h</text>
</a>
</g>
</g>
<!-- Node18&#45;&gt;Node21 -->
<g id="edge26_Node000018_Node000021" class="edge">
<title>Node18&#45;&gt;Node21</title>
<g id="a_edge26_Node000018_Node000021"><a xlink:title=" ">
<path fill="none" stroke="#63b8ff" d="M394.5,-54.84C414.41,-46.43 444.36,-33.77 467.13,-24.15"/>
<polygon fill="#63b8ff" stroke="#63b8ff" points="468.4,-27.41 476.25,-20.29 465.68,-20.96 468.4,-27.41"/>
</a>
</g>
</g>
<!-- Node22 -->
<g id="Node000022" class="node">
<title>Node22</title>
<g id="a_Node000022"><a xlink:title=" ">
<polygon fill="#e0e0e0" stroke="#999999" points="310.12,-19.25 240.12,-19.25 240.12,0 310.12,0 310.12,-19.25"/>
<text xml:space="preserve" text-anchor="middle" x="275.12" y="-5.75" font-family="Helvetica,sans-Serif" font-size="10.00">NTPClient.h</text>
</a>
</g>
</g>
<!-- Node18&#45;&gt;Node22 -->
<g id="edge27_Node000018_Node000022" class="edge">
<title>Node18&#45;&gt;Node22</title>
<g id="a_edge27_Node000018_Node000022"><a xlink:title=" ">
<path fill="none" stroke="#63b8ff" d="M356.5,-54.84C341.44,-46.66 318.98,-34.46 301.47,-24.94"/>
<polygon fill="#63b8ff" stroke="#63b8ff" points="303.62,-22.12 293.16,-20.43 300.28,-28.27 303.62,-22.12"/>
</a>
</g>
</g>
<!-- Node23 -->
<g id="Node000023" class="node">
<title>Node23</title>
<g id="a_Node000023"><a xlink:title=" ">
<polygon fill="#e0e0e0" stroke="#999999" points="390.38,-19.25 327.88,-19.25 327.88,0 390.38,0 390.38,-19.25"/>
<text xml:space="preserve" text-anchor="middle" x="359.12" y="-5.75" font-family="Helvetica,sans-Serif" font-size="10.00">WiFiUdp.h</text>
</a>
</g>
</g>
<!-- Node18&#45;&gt;Node23 -->
<g id="edge28_Node000018_Node000023" class="edge">
<title>Node18&#45;&gt;Node23</title>
<g id="a_edge28_Node000018_Node000023"><a xlink:title=" ">
<path fill="none" stroke="#63b8ff" d="M370.81,-55.08C369.06,-48.42 366.58,-38.99 364.36,-30.53"/>
<polygon fill="#63b8ff" stroke="#63b8ff" points="367.8,-29.85 361.87,-21.07 361.03,-31.63 367.8,-29.85"/>
</a>
</g>
</g>
<!-- Node18&#45;&gt;Node24 -->
<g id="edge29_Node000018_Node000024" class="edge">
<title>Node18&#45;&gt;Node24</title>
<g id="a_edge29_Node000018_Node000024"><a xlink:title=" ">
<path fill="none" stroke="#63b8ff" d="M331.5,-57.24C270.3,-47.48 156.15,-29.28 90.04,-18.74"/>
<polygon fill="#63b8ff" stroke="#63b8ff" points="90.59,-15.29 80.17,-17.17 89.49,-22.2 90.59,-15.29"/>
</a>
</g>
</g>
<!-- Node25&#45;&gt;Node14 -->
<g id="edge33_Node000025_Node000014" class="edge">
<title>Node25&#45;&gt;Node14</title>
<g id="a_edge33_Node000025_Node000014"><a xlink:title=" ">
<path fill="none" stroke="#63b8ff" d="M777.72,-220.59C766.03,-212.71 748.82,-201.11 734.96,-191.77"/>
<polygon fill="#63b8ff" stroke="#63b8ff" points="737.1,-188.99 726.85,-186.3 733.18,-194.79 737.1,-188.99"/>
</a>
</g>
</g>
<!-- Node26 -->
<g id="Node000026" class="node">
<title>Node26</title>
<g id="a_Node000026"><a xlink:title=" ">
<polygon fill="#e0e0e0" stroke="#999999" points="831.25,-185 783,-185 783,-165.75 831.25,-165.75 831.25,-185"/>
<text xml:space="preserve" text-anchor="middle" x="807.12" y="-171.5" font-family="Helvetica,sans-Serif" font-size="10.00">stdint.h</text>
</a>
</g>
</g>
<!-- Node25&#45;&gt;Node26 -->
<g id="edge32_Node000025_Node000026" class="edge">
<title>Node25&#45;&gt;Node26</title>
<g id="a_edge32_Node000025_Node000026"><a xlink:title=" ">
<path fill="none" stroke="#63b8ff" d="M793.77,-220.83C795.77,-214.17 798.6,-204.74 801.14,-196.28"/>
<polygon fill="#63b8ff" stroke="#63b8ff" points="804.46,-197.39 803.99,-186.81 797.76,-195.38 804.46,-197.39"/>
</a>
</g>
</g>
<!-- Node27&#45;&gt;Node3 -->
<g id="edge35_Node000027_Node000003" class="edge">
<title>Node27&#45;&gt;Node3</title>
<g id="a_edge35_Node000027_Node000003"><a xlink:title=" ">
<path fill="none" stroke="#63b8ff" d="M383.86,-165.4C401.98,-158.18 425.39,-146.46 441.12,-129.75 466.08,-103.25 446.11,-77.22 475.12,-55.25 513.35,-26.3 652.84,-15.76 722.7,-12.23"/>
<polygon fill="#63b8ff" stroke="#63b8ff" points="722.75,-15.73 732.58,-11.76 722.42,-8.74 722.75,-15.73"/>
</a>
</g>
</g>
<!-- Node27&#45;&gt;Node9 -->
<g id="edge41_Node000027_Node000009" class="edge">
<title>Node27&#45;&gt;Node9</title>
<g id="a_edge41_Node000027_Node000009"><a xlink:title=" ">
<path fill="none" stroke="#63b8ff" d="M306.86,-169.19C257.94,-162.98 188.63,-150.71 172.12,-129.75 149.18,-100.61 205.81,-81.59 244.53,-72.38"/>
<polygon fill="#63b8ff" stroke="#63b8ff" points="244.91,-75.89 253.9,-70.28 243.38,-69.06 244.91,-75.89"/>
</a>
</g>
</g>
<!-- Node27&#45;&gt;Node15 -->
<g id="edge42_Node000027_Node000015" class="edge">
<title>Node27&#45;&gt;Node15</title>
<g id="a_edge42_Node000027_Node000015"><a xlink:title=" ">
<path fill="none" stroke="#63b8ff" d="M393.43,-165.34C429.24,-156.43 484.19,-142.76 523.5,-132.98"/>
<polygon fill="#63b8ff" stroke="#63b8ff" points="524.32,-136.38 533.18,-130.57 522.63,-129.59 524.32,-136.38"/>
</a>
</g>
</g>
<!-- Node27&#45;&gt;Node20 -->
<g id="edge36_Node000027_Node000020" class="edge">
<title>Node27&#45;&gt;Node20</title>
<g id="a_edge36_Node000027_Node000020"><a xlink:title=" ">
<path fill="none" stroke="#63b8ff" d="M306.81,-169.82C255.43,-164 180.78,-151.92 163.12,-129.75 140.37,-101.17 153.64,-55.56 164.15,-29.86"/>
<polygon fill="#63b8ff" stroke="#63b8ff" points="167.23,-31.54 168.04,-20.98 160.82,-28.74 167.23,-31.54"/>
</a>
</g>
</g>
<!-- Node28 -->
<g id="Node000028" class="node">
<title>Node28</title>
<g id="a_Node000028"><a xlink:title=" ">
<polygon fill="#e0e0e0" stroke="#999999" points="374.5,-129.75 339.75,-129.75 339.75,-110.5 374.5,-110.5 374.5,-129.75"/>
<text xml:space="preserve" text-anchor="middle" x="357.12" y="-116.25" font-family="Helvetica,sans-Serif" font-size="10.00">map</text>
</a>
</g>
</g>
<!-- Node27&#45;&gt;Node28 -->
<g id="edge37_Node000027_Node000028" class="edge">
<title>Node27&#45;&gt;Node28</title>
<g id="a_edge37_Node000027_Node000028"><a xlink:title=" ">
<path fill="none" stroke="#63b8ff" d="M357.12,-165.58C357.12,-159.07 357.12,-149.92 357.12,-141.62"/>
<polygon fill="#63b8ff" stroke="#63b8ff" points="360.63,-141.62 357.13,-131.62 353.63,-141.62 360.63,-141.62"/>
</a>
</g>
</g>
<!-- Node29 -->
<g id="Node000029" class="node">
<title>Node29</title>
<g id="a_Node000029"><a xlink:title=" ">
<polygon fill="#e0e0e0" stroke="#999999" points="432.12,-129.75 392.12,-129.75 392.12,-110.5 432.12,-110.5 432.12,-129.75"/>
<text xml:space="preserve" text-anchor="middle" x="412.12" y="-116.25" font-family="Helvetica,sans-Serif" font-size="10.00">string</text>
</a>
</g>
</g>
<!-- Node27&#45;&gt;Node29 -->
<g id="edge38_Node000027_Node000029" class="edge">
<title>Node27&#45;&gt;Node29</title>
<g id="a_edge38_Node000027_Node000029"><a xlink:title=" ">
<path fill="none" stroke="#63b8ff" d="M366.21,-165.58C373.96,-158.07 385.34,-147.06 394.82,-137.88"/>
<polygon fill="#63b8ff" stroke="#63b8ff" points="397.01,-140.63 401.76,-131.16 392.14,-135.6 397.01,-140.63"/>
</a>
</g>
</g>
<!-- Node30 -->
<g id="Node000030" class="node">
<title>Node30</title>
<g id="a_Node000030"><a xlink:title=" ">
<polygon fill="#e0e0e0" stroke="#999999" points="246.88,-129.75 181.38,-129.75 181.38,-110.5 246.88,-110.5 246.88,-129.75"/>
<text xml:space="preserve" text-anchor="middle" x="214.12" y="-116.25" font-family="Helvetica,sans-Serif" font-size="10.00">PCF8575.h</text>
</a>
</g>
</g>
<!-- Node27&#45;&gt;Node30 -->
<g id="edge39_Node000027_Node000030" class="edge">
<title>Node27&#45;&gt;Node30</title>
<g id="a_edge39_Node000027_Node000030"><a xlink:title=" ">
<path fill="none" stroke="#63b8ff" d="M332.87,-165.34C309.86,-156.77 275.03,-143.81 249.04,-134.13"/>
<polygon fill="#63b8ff" stroke="#63b8ff" points="250.51,-130.94 239.92,-130.73 248.07,-137.5 250.51,-130.94"/>
</a>
</g>
</g>
<!-- Node31 -->
<g id="Node000031" class="node">
<title>Node31</title>
<g id="a_Node000031"><a xlink:title=" ">
<polygon fill="#e0e0e0" stroke="#999999" points="321.75,-129.75 264.5,-129.75 264.5,-110.5 321.75,-110.5 321.75,-129.75"/>
<text xml:space="preserve" text-anchor="middle" x="293.12" y="-116.25" font-family="Helvetica,sans-Serif" font-size="10.00">U8g2lib.h</text>
</a>
</g>
</g>
<!-- Node27&#45;&gt;Node31 -->
<g id="edge40_Node000027_Node000031" class="edge">
<title>Node27&#45;&gt;Node31</title>
<g id="a_edge40_Node000027_Node000031"><a xlink:title=" ">
<path fill="none" stroke="#63b8ff" d="M346.27,-165.34C337.02,-157.65 323.5,-146.4 312.42,-137.18"/>
<polygon fill="#63b8ff" stroke="#63b8ff" points="314.91,-134.7 304.98,-130.99 310.43,-140.08 314.91,-134.7"/>
</a>
</g>
</g>
<!-- Node32&#45;&gt;Node3 -->
<g id="edge44_Node000032_Node000003" class="edge">
<title>Node32&#45;&gt;Node3</title>
<g id="a_edge44_Node000032_Node000003"><a xlink:title=" ">
<path fill="none" stroke="#63b8ff" d="M632.02,-220.6C635.21,-192.89 648.15,-107.79 691.12,-55.25 701.66,-42.37 716.95,-32.16 730.73,-24.77"/>
<polygon fill="#63b8ff" stroke="#63b8ff" points="732.16,-27.97 739.52,-20.35 729.01,-21.72 732.16,-27.97"/>
</a>
</g>
</g>
<!-- Node32&#45;&gt;Node9 -->
<g id="edge45_Node000032_Node000009" class="edge">
<title>Node32&#45;&gt;Node9</title>
<g id="a_edge45_Node000032_Node000009"><a xlink:title=" ">
<path fill="none" stroke="#63b8ff" d="M619.8,-220.82C591.33,-199.09 513.88,-142.37 441.12,-110.5 397.61,-91.44 343.95,-78.7 310.13,-71.87"/>
<polygon fill="#63b8ff" stroke="#63b8ff" points="311.01,-68.48 300.53,-69.99 309.67,-75.35 311.01,-68.48"/>
</a>
</g>
</g>
<!-- Node32&#45;&gt;Node14 -->
<g id="edge46_Node000032_Node000014" class="edge">
<title>Node32&#45;&gt;Node14</title>
<g id="a_edge46_Node000032_Node000014"><a xlink:title=" ">
<path fill="none" stroke="#63b8ff" d="M644.87,-220.59C656.85,-212.71 674.5,-201.11 688.71,-191.77"/>
<polygon fill="#63b8ff" stroke="#63b8ff" points="690.62,-194.7 697.05,-186.28 686.77,-188.85 690.62,-194.7"/>
</a>
</g>
</g>
<!-- Node32&#45;&gt;Node15 -->
<g id="edge47_Node000032_Node000015" class="edge">
<title>Node32&#45;&gt;Node15</title>
<g id="a_edge47_Node000032_Node000015"><a xlink:title=" ">
<path fill="none" stroke="#63b8ff" d="M626.21,-220.75C616.5,-203.18 594.65,-163.66 581.57,-140.02"/>
<polygon fill="#63b8ff" stroke="#63b8ff" points="584.74,-138.51 576.84,-131.45 578.61,-141.9 584.74,-138.51"/>
</a>
</g>
</g>
<!-- Node34&#45;&gt;Node3 -->
<g id="edge53_Node000034_Node000003" class="edge">
<title>Node34&#45;&gt;Node3</title>
<g id="a_edge53_Node000034_Node000003"><a xlink:title=" ">
<path fill="none" stroke="#63b8ff" d="M931.1,-331.31C933.09,-317.54 938.91,-290.99 955.12,-276.25 998.21,-237.06 1032.97,-273.01 1081.12,-240.25 1110.71,-220.13 1130.12,-212.15 1130.12,-176.38 1130.12,-176.38 1130.12,-176.38 1130.12,-119.12 1130.12,-86.75 1121.81,-73.57 1095.12,-55.25 1048.49,-23.24 881.05,-14.11 803.31,-11.57"/>
<polygon fill="#63b8ff" stroke="#63b8ff" points="803.69,-8.08 793.59,-11.28 803.48,-15.08 803.69,-8.08"/>
</a>
</g>
</g>
<!-- Node34&#45;&gt;Node8 -->
<g id="edge55_Node000034_Node000008" class="edge">
<title>Node34&#45;&gt;Node8</title>
<g id="a_edge55_Node000034_Node000008"><a xlink:title=" ">
<path fill="none" stroke="#63b8ff" d="M916.05,-331.09C903.64,-323.14 885.33,-311.39 870.7,-302"/>
<polygon fill="#63b8ff" stroke="#63b8ff" points="872.85,-299.22 862.55,-296.77 869.07,-305.12 872.85,-299.22"/>
</a>
</g>
</g>
<!-- Node35 -->
<g id="Node000035" class="node">
<title>Node35</title>
<g id="a_Node000035"><a xlink:title=" ">
<polygon fill="#e0e0e0" stroke="#999999" points="1042.25,-295.5 964,-295.5 964,-276.25 1042.25,-276.25 1042.25,-295.5"/>
<text xml:space="preserve" text-anchor="middle" x="1003.12" y="-282" font-family="Helvetica,sans-Serif" font-size="10.00">CSV_Parser.h</text>
</a>
</g>
</g>
<!-- Node34&#45;&gt;Node35 -->
<g id="edge54_Node000034_Node000035" class="edge">
<title>Node34&#45;&gt;Node35</title>
<g id="a_edge54_Node000034_Node000035"><a xlink:title=" ">
<path fill="none" stroke="#63b8ff" d="M942.51,-331.09C953.27,-323.24 969.1,-311.7 981.88,-302.37"/>
<polygon fill="#63b8ff" stroke="#63b8ff" points="983.69,-305.39 989.7,-296.67 979.56,-299.73 983.69,-305.39"/>
</a>
</g>
</g>
<!-- Node36&#45;&gt;Node3 -->
<g id="edge57_Node000036_Node000003" class="edge">
<title>Node36&#45;&gt;Node3</title>
<g id="a_edge57_Node000036_Node000003"><a xlink:title=" ">
<path fill="none" stroke="#63b8ff" d="M1113.65,-331.03C1124.7,-322.93 1139.95,-310.12 1149.12,-295.5 1164.87,-270.42 1168.12,-261.24 1168.12,-231.62 1168.12,-231.62 1168.12,-231.62 1168.12,-119.12 1168.12,-83.61 1150.85,-73.06 1120.12,-55.25 1067.01,-24.46 884.96,-14.64 803.31,-11.74"/>
<polygon fill="#63b8ff" stroke="#63b8ff" points="803.64,-8.25 793.53,-11.42 803.41,-15.25 803.64,-8.25"/>
</a>
</g>
</g>
<!-- Node36&#45;&gt;Node4 -->
<g id="edge58_Node000036_Node000004" class="edge">
<title>Node36&#45;&gt;Node4</title>
<g id="a_edge58_Node000036_Node000004"><a xlink:title=" ">
<path fill="none" stroke="#63b8ff" d="M1100.12,-331.33C1100.12,-324.82 1100.12,-315.67 1100.12,-307.37"/>
<polygon fill="#63b8ff" stroke="#63b8ff" points="1103.63,-307.37 1100.13,-297.37 1096.63,-307.37 1103.63,-307.37"/>
</a>
</g>
</g>
</g>
</svg>
