<?xml version="1.0" encoding="UTF-8" standalone="no"?>
<!DOCTYPE svg PUBLIC "-//W3C//DTD SVG 1.1//EN"
 "http://www.w3.org/Graphics/SVG/1.1/DTD/svg11.dtd">
<!-- Generated by graphviz version 13.1.0 (20250701.0955)
 -->
<!-- Title: src/IndicatorInterface.cpp Pages: 1 -->
<svg width="532pt" height="248pt"
 viewBox="0.00 0.00 532.00 248.00" xmlns="http://www.w3.org/2000/svg" xmlns:xlink="http://www.w3.org/1999/xlink">
<g id="graph0" class="graph" transform="scale(1 1) rotate(0) translate(4 244.25)">
<title>src/IndicatorInterface.cpp</title>
<!-- Node1 -->
<g id="Node000001" class="node">
<title>Node1</title>
<g id="a_Node000001"><a xlink:title=" ">
<polygon fill="#999999" stroke="#666666" points="256.75,-240.25 129.75,-240.25 129.75,-221 256.75,-221 256.75,-240.25"/>
<text xml:space="preserve" text-anchor="middle" x="193.25" y="-226.75" font-family="Helvetica,sans-Serif" font-size="10.00">src/IndicatorInterface.cpp</text>
</a>
</g>
</g>
<!-- Node2 -->
<g id="Node000002" class="node">
<title>Node2</title>
<g id="a_Node000002"><a xlink:href="_indicator_interface_8h.html" target="_top" xlink:title=" ">
<polygon fill="white" stroke="#666666" points="243.25,-185 143.25,-185 143.25,-165.75 243.25,-165.75 243.25,-185"/>
<text xml:space="preserve" text-anchor="middle" x="193.25" y="-171.5" font-family="Helvetica,sans-Serif" font-size="10.00">IndicatorInterface.h</text>
</a>
</g>
</g>
<!-- Node1&#45;&gt;Node2 -->
<g id="edge1_Node000001_Node000002" class="edge">
<title>Node1&#45;&gt;Node2</title>
<g id="a_edge1_Node000001_Node000002"><a xlink:title=" ">
<path fill="none" stroke="#63b8ff" d="M193.25,-220.83C193.25,-214.32 193.25,-205.17 193.25,-196.87"/>
<polygon fill="#63b8ff" stroke="#63b8ff" points="196.75,-196.87 193.25,-186.87 189.75,-196.87 196.75,-196.87"/>
</a>
</g>
</g>
<!-- Node3 -->
<g id="Node000003" class="node">
<title>Node3</title>
<g id="a_Node000003"><a xlink:title=" ">
<polygon fill="#e0e0e0" stroke="#999999" points="523.88,-19.25 466.62,-19.25 466.62,0 523.88,0 523.88,-19.25"/>
<text xml:space="preserve" text-anchor="middle" x="495.25" y="-5.75" font-family="Helvetica,sans-Serif" font-size="10.00">Arduino.h</text>
</a>
</g>
</g>
<!-- Node2&#45;&gt;Node3 -->
<g id="edge2_Node000002_Node000003" class="edge">
<title>Node2&#45;&gt;Node3</title>
<g id="a_edge2_Node000002_Node000003"><a xlink:title=" ">
<path fill="none" stroke="#63b8ff" d="M243.74,-173.04C315.14,-170.07 440.49,-160.5 472.25,-129.75 498.78,-104.06 499.76,-57.69 497.74,-31.01"/>
<polygon fill="#63b8ff" stroke="#63b8ff" points="501.24,-30.78 496.76,-21.18 494.27,-31.48 501.24,-30.78"/>
</a>
</g>
</g>
<!-- Node4 -->
<g id="Node000004" class="node">
<title>Node4</title>
<g id="a_Node000004"><a xlink:title=" ">
<polygon fill="#e0e0e0" stroke="#999999" points="44.5,-19.25 0,-19.25 0,0 44.5,0 44.5,-19.25"/>
<text xml:space="preserve" text-anchor="middle" x="22.25" y="-5.75" font-family="Helvetica,sans-Serif" font-size="10.00">Wire.h</text>
</a>
</g>
</g>
<!-- Node2&#45;&gt;Node4 -->
<g id="edge3_Node000002_Node000004" class="edge">
<title>Node2&#45;&gt;Node4</title>
<g id="a_edge3_Node000002_Node000004"><a xlink:title=" ">
<path fill="none" stroke="#63b8ff" d="M143.05,-166.39C118.15,-160.14 89.2,-149.11 69.25,-129.75 41.27,-102.61 29.57,-56.78 24.98,-30.58"/>
<polygon fill="#63b8ff" stroke="#63b8ff" points="28.48,-30.3 23.48,-20.96 21.56,-31.38 28.48,-30.3"/>
</a>
</g>
</g>
<!-- Node5 -->
<g id="Node000005" class="node">
<title>Node5</title>
<g id="a_Node000005"><a xlink:title=" ">
<polygon fill="#e0e0e0" stroke="#999999" points="120.62,-129.75 85.88,-129.75 85.88,-110.5 120.62,-110.5 120.62,-129.75"/>
<text xml:space="preserve" text-anchor="middle" x="103.25" y="-116.25" font-family="Helvetica,sans-Serif" font-size="10.00">map</text>
</a>
</g>
</g>
<!-- Node2&#45;&gt;Node5 -->
<g id="edge4_Node000002_Node000005" class="edge">
<title>Node2&#45;&gt;Node5</title>
<g id="a_edge4_Node000002_Node000005"><a xlink:title=" ">
<path fill="none" stroke="#63b8ff" d="M177.98,-165.34C164.41,-157.31 144.3,-145.41 128.35,-135.98"/>
<polygon fill="#63b8ff" stroke="#63b8ff" points="130.28,-133.05 119.89,-130.97 126.72,-139.08 130.28,-133.05"/>
</a>
</g>
</g>
<!-- Node6 -->
<g id="Node000006" class="node">
<title>Node6</title>
<g id="a_Node000006"><a xlink:title=" ">
<polygon fill="#e0e0e0" stroke="#999999" points="178.25,-129.75 138.25,-129.75 138.25,-110.5 178.25,-110.5 178.25,-129.75"/>
<text xml:space="preserve" text-anchor="middle" x="158.25" y="-116.25" font-family="Helvetica,sans-Serif" font-size="10.00">string</text>
</a>
</g>
</g>
<!-- Node2&#45;&gt;Node6 -->
<g id="edge5_Node000002_Node000006" class="edge">
<title>Node2&#45;&gt;Node6</title>
<g id="a_edge5_Node000002_Node000006"><a xlink:title=" ">
<path fill="none" stroke="#63b8ff" d="M187.47,-165.58C182.84,-158.53 176.18,-148.4 170.38,-139.58"/>
<polygon fill="#63b8ff" stroke="#63b8ff" points="173.4,-137.81 164.99,-131.37 167.55,-141.65 173.4,-137.81"/>
</a>
</g>
</g>
<!-- Node7 -->
<g id="Node000007" class="node">
<title>Node7</title>
<g id="a_Node000007"><a xlink:title=" ">
<polygon fill="#e0e0e0" stroke="#999999" points="262,-129.75 196.5,-129.75 196.5,-110.5 262,-110.5 262,-129.75"/>
<text xml:space="preserve" text-anchor="middle" x="229.25" y="-116.25" font-family="Helvetica,sans-Serif" font-size="10.00">PCF8575.h</text>
</a>
</g>
</g>
<!-- Node2&#45;&gt;Node7 -->
<g id="edge6_Node000002_Node000007" class="edge">
<title>Node2&#45;&gt;Node7</title>
<g id="a_edge6_Node000002_Node000007"><a xlink:title=" ">
<path fill="none" stroke="#63b8ff" d="M199.19,-165.58C203.96,-158.53 210.81,-148.4 216.77,-139.58"/>
<polygon fill="#63b8ff" stroke="#63b8ff" points="219.63,-141.61 222.33,-131.36 213.83,-137.69 219.63,-141.61"/>
</a>
</g>
</g>
<!-- Node8 -->
<g id="Node000008" class="node">
<title>Node8</title>
<g id="a_Node000008"><a xlink:title=" ">
<polygon fill="#e0e0e0" stroke="#999999" points="336.88,-129.75 279.62,-129.75 279.62,-110.5 336.88,-110.5 336.88,-129.75"/>
<text xml:space="preserve" text-anchor="middle" x="308.25" y="-116.25" font-family="Helvetica,sans-Serif" font-size="10.00">U8g2lib.h</text>
</a>
</g>
</g>
<!-- Node2&#45;&gt;Node8 -->
<g id="edge7_Node000002_Node000008" class="edge">
<title>Node2&#45;&gt;Node8</title>
<g id="a_edge7_Node000002_Node000008"><a xlink:title=" ">
<path fill="none" stroke="#63b8ff" d="M212.76,-165.34C230.77,-157 257.77,-144.5 278.48,-134.91"/>
<polygon fill="#63b8ff" stroke="#63b8ff" points="279.67,-138.22 287.27,-130.84 276.73,-131.86 279.67,-138.22"/>
</a>
</g>
</g>
<!-- Node9 -->
<g id="Node000009" class="node">
<title>Node9</title>
<g id="a_Node000009"><a xlink:title=" ">
<polygon fill="#e0e0e0" stroke="#999999" points="152.75,-74.5 109.75,-74.5 109.75,-55.25 152.75,-55.25 152.75,-74.5"/>
<text xml:space="preserve" text-anchor="middle" x="131.25" y="-61" font-family="Helvetica,sans-Serif" font-size="10.00">vector</text>
</a>
</g>
</g>
<!-- Node2&#45;&gt;Node9 -->
<g id="edge8_Node000002_Node000009" class="edge">
<title>Node2&#45;&gt;Node9</title>
<g id="a_edge8_Node000002_Node000009"><a xlink:title=" ">
<path fill="none" stroke="#63b8ff" d="M142.83,-168.19C118.75,-162.42 92.03,-151.27 77.25,-129.75 65.07,-112.01 85.08,-93.41 104.1,-80.89"/>
<polygon fill="#63b8ff" stroke="#63b8ff" points="105.81,-83.94 112.49,-75.72 102.14,-77.98 105.81,-83.94"/>
</a>
</g>
</g>
<!-- Node10 -->
<g id="Node000010" class="node">
<title>Node10</title>
<g id="a_Node000010"><a xlink:href="_logger_manager_8h.html" target="_top" xlink:title=" ">
<polygon fill="white" stroke="#666666" points="445.38,-129.75 355.12,-129.75 355.12,-110.5 445.38,-110.5 445.38,-129.75"/>
<text xml:space="preserve" text-anchor="middle" x="400.25" y="-116.25" font-family="Helvetica,sans-Serif" font-size="10.00">LoggerManager.h</text>
</a>
</g>
</g>
<!-- Node2&#45;&gt;Node10 -->
<g id="edge9_Node000002_Node000010" class="edge">
<title>Node2&#45;&gt;Node10</title>
<g id="a_edge9_Node000002_Node000010"><a xlink:title=" ">
<path fill="none" stroke="#63b8ff" d="M228.36,-165.34C263.01,-156.43 316.16,-142.76 354.18,-132.98"/>
<polygon fill="#63b8ff" stroke="#63b8ff" points="354.68,-136.46 363.5,-130.58 352.94,-129.68 354.68,-136.46"/>
</a>
</g>
</g>
<!-- Node10&#45;&gt;Node3 -->
<g id="edge10_Node000010_Node000003" class="edge">
<title>Node10&#45;&gt;Node3</title>
<g id="a_edge10_Node000010_Node000003"><a xlink:title=" ">
<path fill="none" stroke="#63b8ff" d="M389.81,-110.42C375.84,-97.7 354.24,-73.57 367.25,-55.25 372.64,-47.66 420.21,-32.42 455.8,-21.88"/>
<polygon fill="#63b8ff" stroke="#63b8ff" points="456.34,-25.37 464.95,-19.19 454.37,-18.65 456.34,-25.37"/>
</a>
</g>
</g>
<!-- Node10&#45;&gt;Node9 -->
<g id="edge21_Node000010_Node000009" class="edge">
<title>Node10&#45;&gt;Node9</title>
<g id="a_edge21_Node000010_Node000009"><a xlink:title=" ">
<path fill="none" stroke="#63b8ff" d="M354.92,-110.15C300.95,-99.47 212.11,-81.88 164.25,-72.41"/>
<polygon fill="#63b8ff" stroke="#63b8ff" points="164.99,-68.99 154.5,-70.48 163.63,-75.85 164.99,-68.99"/>
</a>
</g>
</g>
<!-- Node10&#45;&gt;Node10 -->
<g id="edge22_Node000010_Node000010" class="edge">
<title>Node10&#45;&gt;Node10</title>
<g id="a_edge22_Node000010_Node000010"><a xlink:title=" ">
<path fill="none" stroke="#63b8ff" d="M433.38,-130.23C449.31,-131.48 463.38,-128.11 463.38,-120.12 463.38,-114.14 455.46,-110.74 444.79,-109.95"/>
<polygon fill="#63b8ff" stroke="#63b8ff" points="444.87,-106.45 434.89,-110.01 444.91,-113.45 444.87,-106.45"/>
</a>
</g>
</g>
<!-- Node11 -->
<g id="Node000011" class="node">
<title>Node11</title>
<g id="a_Node000011"><a xlink:title=" ">
<polygon fill="#e0e0e0" stroke="#999999" points="412.75,-74.5 375.75,-74.5 375.75,-55.25 412.75,-55.25 412.75,-74.5"/>
<text xml:space="preserve" text-anchor="middle" x="394.25" y="-61" font-family="Helvetica,sans-Serif" font-size="10.00">FS.h</text>
</a>
</g>
</g>
<!-- Node10&#45;&gt;Node11 -->
<g id="edge11_Node000010_Node000011" class="edge">
<title>Node10&#45;&gt;Node11</title>
<g id="a_edge11_Node000010_Node000011"><a xlink:title=" ">
<path fill="none" stroke="#63b8ff" d="M399.26,-110.33C398.52,-103.74 397.47,-94.46 396.53,-86.07"/>
<polygon fill="#63b8ff" stroke="#63b8ff" points="400.03,-85.91 395.43,-76.36 393.07,-86.69 400.03,-85.91"/>
</a>
</g>
</g>
<!-- Node12 -->
<g id="Node000012" class="node">
<title>Node12</title>
<g id="a_Node000012"><a xlink:title=" ">
<polygon fill="#e0e0e0" stroke="#999999" points="469.5,-74.5 431,-74.5 431,-55.25 469.5,-55.25 469.5,-74.5"/>
<text xml:space="preserve" text-anchor="middle" x="450.25" y="-61" font-family="Helvetica,sans-Serif" font-size="10.00">SD.h</text>
</a>
</g>
</g>
<!-- Node10&#45;&gt;Node12 -->
<g id="edge12_Node000010_Node000012" class="edge">
<title>Node10&#45;&gt;Node12</title>
<g id="a_edge12_Node000010_Node000012"><a xlink:title=" ">
<path fill="none" stroke="#63b8ff" d="M408.51,-110.33C415.41,-102.98 425.47,-92.26 433.99,-83.19"/>
<polygon fill="#63b8ff" stroke="#63b8ff" points="436.48,-85.65 440.78,-75.96 431.38,-80.86 436.48,-85.65"/>
</a>
</g>
</g>
<!-- Node13 -->
<g id="Node000013" class="node">
<title>Node13</title>
<g id="a_Node000013"><a xlink:href="_time_manager_8h.html" target="_top" xlink:title=" ">
<polygon fill="white" stroke="#666666" points="297.62,-74.5 214.88,-74.5 214.88,-55.25 297.62,-55.25 297.62,-74.5"/>
<text xml:space="preserve" text-anchor="middle" x="256.25" y="-61" font-family="Helvetica,sans-Serif" font-size="10.00">TimeManager.h</text>
</a>
</g>
</g>
<!-- Node10&#45;&gt;Node13 -->
<g id="edge13_Node000010_Node000013" class="edge">
<title>Node10&#45;&gt;Node13</title>
<g id="a_edge13_Node000010_Node000013"><a xlink:title=" ">
<path fill="none" stroke="#63b8ff" d="M375.82,-110.09C352.65,-101.52 317.59,-88.56 291.41,-78.88"/>
<polygon fill="#63b8ff" stroke="#63b8ff" points="292.81,-75.66 282.22,-75.48 290.38,-82.23 292.81,-75.66"/>
</a>
</g>
</g>
<!-- Node13&#45;&gt;Node3 -->
<g id="edge14_Node000013_Node000003" class="edge">
<title>Node13&#45;&gt;Node3</title>
<g id="a_edge14_Node000013_Node000003"><a xlink:title=" ">
<path fill="none" stroke="#63b8ff" d="M297.45,-54.79C335.79,-46.32 394.81,-33.25 455.3,-19.68"/>
<polygon fill="#63b8ff" stroke="#63b8ff" points="455.74,-23.17 464.73,-17.56 454.21,-16.34 455.74,-23.17"/>
</a>
</g>
</g>
<!-- Node13&#45;&gt;Node4 -->
<g id="edge16_Node000013_Node000004" class="edge">
<title>Node13&#45;&gt;Node4</title>
<g id="a_edge16_Node000013_Node000004"><a xlink:title=" ">
<path fill="none" stroke="#63b8ff" d="M214.65,-54.81C174.35,-45.97 111.53,-32.02 57.25,-19.25 56.75,-19.13 56.24,-19.01 55.73,-18.89"/>
<polygon fill="#63b8ff" stroke="#63b8ff" points="56.84,-15.56 46.3,-16.62 55.2,-22.36 56.84,-15.56"/>
</a>
</g>
</g>
<!-- Node14 -->
<g id="Node000014" class="node">
<title>Node14</title>
<g id="a_Node000014"><a xlink:title=" ">
<polygon fill="#e0e0e0" stroke="#999999" points="110.5,-19.25 66,-19.25 66,0 110.5,0 110.5,-19.25"/>
<text xml:space="preserve" text-anchor="middle" x="88.25" y="-5.75" font-family="Helvetica,sans-Serif" font-size="10.00">WiFi.h</text>
</a>
</g>
</g>
<!-- Node13&#45;&gt;Node14 -->
<g id="edge15_Node000013_Node000014" class="edge">
<title>Node13&#45;&gt;Node14</title>
<g id="a_edge15_Node000013_Node000014"><a xlink:title=" ">
<path fill="none" stroke="#63b8ff" d="M227.75,-54.84C198.4,-45.54 152.69,-31.05 121.66,-21.22"/>
<polygon fill="#63b8ff" stroke="#63b8ff" points="122.98,-17.96 112.39,-18.28 120.87,-24.64 122.98,-17.96"/>
</a>
</g>
</g>
<!-- Node15 -->
<g id="Node000015" class="node">
<title>Node15</title>
<g id="a_Node000015"><a xlink:title=" ">
<polygon fill="#e0e0e0" stroke="#999999" points="183.75,-19.25 128.75,-19.25 128.75,0 183.75,0 183.75,-19.25"/>
<text xml:space="preserve" text-anchor="middle" x="156.25" y="-5.75" font-family="Helvetica,sans-Serif" font-size="10.00">RTClib.h</text>
</a>
</g>
</g>
<!-- Node13&#45;&gt;Node15 -->
<g id="edge17_Node000013_Node000015" class="edge">
<title>Node13&#45;&gt;Node15</title>
<g id="a_edge17_Node000013_Node000015"><a xlink:title=" ">
<path fill="none" stroke="#63b8ff" d="M239.29,-54.84C223.99,-46.69 201.22,-34.57 183.39,-25.08"/>
<polygon fill="#63b8ff" stroke="#63b8ff" points="185.1,-22.02 174.63,-20.41 181.81,-28.2 185.1,-22.02"/>
</a>
</g>
</g>
<!-- Node16 -->
<g id="Node000016" class="node">
<title>Node16</title>
<g id="a_Node000016"><a xlink:title=" ">
<polygon fill="#e0e0e0" stroke="#999999" points="272.25,-19.25 202.25,-19.25 202.25,0 272.25,0 272.25,-19.25"/>
<text xml:space="preserve" text-anchor="middle" x="237.25" y="-5.75" font-family="Helvetica,sans-Serif" font-size="10.00">NTPClient.h</text>
</a>
</g>
</g>
<!-- Node13&#45;&gt;Node16 -->
<g id="edge18_Node000013_Node000016" class="edge">
<title>Node13&#45;&gt;Node16</title>
<g id="a_edge18_Node000013_Node000016"><a xlink:title=" ">
<path fill="none" stroke="#63b8ff" d="M253.11,-55.08C250.71,-48.34 247.29,-38.77 244.25,-30.24"/>
<polygon fill="#63b8ff" stroke="#63b8ff" points="247.62,-29.28 240.96,-21.03 241.03,-31.63 247.62,-29.28"/>
</a>
</g>
</g>
<!-- Node17 -->
<g id="Node000017" class="node">
<title>Node17</title>
<g id="a_Node000017"><a xlink:title=" ">
<polygon fill="#e0e0e0" stroke="#999999" points="352.5,-19.25 290,-19.25 290,0 352.5,0 352.5,-19.25"/>
<text xml:space="preserve" text-anchor="middle" x="321.25" y="-5.75" font-family="Helvetica,sans-Serif" font-size="10.00">WiFiUdp.h</text>
</a>
</g>
</g>
<!-- Node13&#45;&gt;Node17 -->
<g id="edge19_Node000013_Node000017" class="edge">
<title>Node13&#45;&gt;Node17</title>
<g id="a_edge19_Node000013_Node000017"><a xlink:title=" ">
<path fill="none" stroke="#63b8ff" d="M267.28,-54.84C276.67,-47.15 290.4,-35.9 301.66,-26.68"/>
<polygon fill="#63b8ff" stroke="#63b8ff" points="303.7,-29.53 309.22,-20.48 299.26,-24.11 303.7,-29.53"/>
</a>
</g>
</g>
<!-- Node18 -->
<g id="Node000018" class="node">
<title>Node18</title>
<g id="a_Node000018"><a xlink:title=" ">
<polygon fill="#e0e0e0" stroke="#999999" points="448.38,-19.25 370.12,-19.25 370.12,0 448.38,0 448.38,-19.25"/>
<text xml:space="preserve" text-anchor="middle" x="409.25" y="-5.75" font-family="Helvetica,sans-Serif" font-size="10.00">ArduinoJson.h</text>
</a>
</g>
</g>
<!-- Node13&#45;&gt;Node18 -->
<g id="edge20_Node000013_Node000018" class="edge">
<title>Node13&#45;&gt;Node18</title>
<g id="a_edge20_Node000013_Node000018"><a xlink:title=" ">
<path fill="none" stroke="#63b8ff" d="M282.2,-54.84C307.04,-46.2 344.75,-33.07 372.63,-23.37"/>
<polygon fill="#63b8ff" stroke="#63b8ff" points="373.44,-26.79 381.74,-20.2 371.14,-20.18 373.44,-26.79"/>
</a>
</g>
</g>
</g>
</svg>
