<?xml version="1.0" encoding="UTF-8" standalone="no"?>
<!DOCTYPE svg PUBLIC "-//W3C//DTD SVG 1.1//EN"
 "http://www.w3.org/Graphics/SVG/1.1/DTD/svg11.dtd">
<!-- Generated by graphviz version 13.1.0 (20250701.0955)
 -->
<!-- Title: include/IndicatorInterface.h Pages: 1 -->
<svg width="532pt" height="193pt"
 viewBox="0.00 0.00 532.00 193.00" xmlns="http://www.w3.org/2000/svg" xmlns:xlink="http://www.w3.org/1999/xlink">
<g id="graph0" class="graph" transform="scale(1 1) rotate(0) translate(4 189)">
<title>include/IndicatorInterface.h</title>
<!-- Node1 -->
<g id="Node000001" class="node">
<title>Node1</title>
<g id="a_Node000001"><a xlink:title="Hardware interface for PCF8575 I/O expander and SH1106 OLED display.">
<polygon fill="#999999" stroke="#666666" points="256.12,-185 122.38,-185 122.38,-165.75 256.12,-165.75 256.12,-185"/>
<text xml:space="preserve" text-anchor="middle" x="189.25" y="-171.5" font-family="Helvetica,sans-Serif" font-size="10.00">include/IndicatorInterface.h</text>
</a>
</g>
</g>
<!-- Node2 -->
<g id="Node000002" class="node">
<title>Node2</title>
<g id="a_Node000002"><a xlink:title=" ">
<polygon fill="#e0e0e0" stroke="#999999" points="523.88,-19.25 466.62,-19.25 466.62,0 523.88,0 523.88,-19.25"/>
<text xml:space="preserve" text-anchor="middle" x="495.25" y="-5.75" font-family="Helvetica,sans-Serif" font-size="10.00">Arduino.h</text>
</a>
</g>
</g>
<!-- Node1&#45;&gt;Node2 -->
<g id="edge1_Node000001_Node000002" class="edge">
<title>Node1&#45;&gt;Node2</title>
<g id="a_edge1_Node000001_Node000002"><a xlink:title=" ">
<path fill="none" stroke="#63b8ff" d="M256.55,-169.71C323.43,-163.89 420.24,-151.89 450.25,-129.75 481.74,-106.53 491.19,-58.48 494.03,-31.03"/>
<polygon fill="#63b8ff" stroke="#63b8ff" points="497.51,-31.48 494.82,-21.23 490.53,-30.92 497.51,-31.48"/>
</a>
</g>
</g>
<!-- Node3 -->
<g id="Node000003" class="node">
<title>Node3</title>
<g id="a_Node000003"><a xlink:title=" ">
<polygon fill="#e0e0e0" stroke="#999999" points="44.5,-19.25 0,-19.25 0,0 44.5,0 44.5,-19.25"/>
<text xml:space="preserve" text-anchor="middle" x="22.25" y="-5.75" font-family="Helvetica,sans-Serif" font-size="10.00">Wire.h</text>
</a>
</g>
</g>
<!-- Node1&#45;&gt;Node3 -->
<g id="edge2_Node000001_Node000003" class="edge">
<title>Node1&#45;&gt;Node3</title>
<g id="a_edge2_Node000001_Node000003"><a xlink:title=" ">
<path fill="none" stroke="#63b8ff" d="M133.52,-165.26C109.84,-158.86 83.54,-148.02 65.25,-129.75 37.98,-102.51 27.89,-56.71 24.25,-30.55"/>
<polygon fill="#63b8ff" stroke="#63b8ff" points="27.76,-30.47 23.1,-20.95 20.81,-31.3 27.76,-30.47"/>
</a>
</g>
</g>
<!-- Node4 -->
<g id="Node000004" class="node">
<title>Node4</title>
<g id="a_Node000004"><a xlink:title=" ">
<polygon fill="#e0e0e0" stroke="#999999" points="116.62,-129.75 81.88,-129.75 81.88,-110.5 116.62,-110.5 116.62,-129.75"/>
<text xml:space="preserve" text-anchor="middle" x="99.25" y="-116.25" font-family="Helvetica,sans-Serif" font-size="10.00">map</text>
</a>
</g>
</g>
<!-- Node1&#45;&gt;Node4 -->
<g id="edge3_Node000001_Node000004" class="edge">
<title>Node1&#45;&gt;Node4</title>
<g id="a_edge3_Node000001_Node000004"><a xlink:title=" ">
<path fill="none" stroke="#63b8ff" d="M173.98,-165.34C160.41,-157.31 140.3,-145.41 124.35,-135.98"/>
<polygon fill="#63b8ff" stroke="#63b8ff" points="126.28,-133.05 115.89,-130.97 122.72,-139.08 126.28,-133.05"/>
</a>
</g>
</g>
<!-- Node5 -->
<g id="Node000005" class="node">
<title>Node5</title>
<g id="a_Node000005"><a xlink:title=" ">
<polygon fill="#e0e0e0" stroke="#999999" points="174.25,-129.75 134.25,-129.75 134.25,-110.5 174.25,-110.5 174.25,-129.75"/>
<text xml:space="preserve" text-anchor="middle" x="154.25" y="-116.25" font-family="Helvetica,sans-Serif" font-size="10.00">string</text>
</a>
</g>
</g>
<!-- Node1&#45;&gt;Node5 -->
<g id="edge4_Node000001_Node000005" class="edge">
<title>Node1&#45;&gt;Node5</title>
<g id="a_edge4_Node000001_Node000005"><a xlink:title=" ">
<path fill="none" stroke="#63b8ff" d="M183.47,-165.58C178.84,-158.53 172.18,-148.4 166.38,-139.58"/>
<polygon fill="#63b8ff" stroke="#63b8ff" points="169.4,-137.81 160.99,-131.37 163.55,-141.65 169.4,-137.81"/>
</a>
</g>
</g>
<!-- Node6 -->
<g id="Node000006" class="node">
<title>Node6</title>
<g id="a_Node000006"><a xlink:title=" ">
<polygon fill="#e0e0e0" stroke="#999999" points="258,-129.75 192.5,-129.75 192.5,-110.5 258,-110.5 258,-129.75"/>
<text xml:space="preserve" text-anchor="middle" x="225.25" y="-116.25" font-family="Helvetica,sans-Serif" font-size="10.00">PCF8575.h</text>
</a>
</g>
</g>
<!-- Node1&#45;&gt;Node6 -->
<g id="edge5_Node000001_Node000006" class="edge">
<title>Node1&#45;&gt;Node6</title>
<g id="a_edge5_Node000001_Node000006"><a xlink:title=" ">
<path fill="none" stroke="#63b8ff" d="M195.19,-165.58C199.96,-158.53 206.81,-148.4 212.77,-139.58"/>
<polygon fill="#63b8ff" stroke="#63b8ff" points="215.63,-141.61 218.33,-131.36 209.83,-137.69 215.63,-141.61"/>
</a>
</g>
</g>
<!-- Node7 -->
<g id="Node000007" class="node">
<title>Node7</title>
<g id="a_Node000007"><a xlink:title=" ">
<polygon fill="#e0e0e0" stroke="#999999" points="332.88,-129.75 275.62,-129.75 275.62,-110.5 332.88,-110.5 332.88,-129.75"/>
<text xml:space="preserve" text-anchor="middle" x="304.25" y="-116.25" font-family="Helvetica,sans-Serif" font-size="10.00">U8g2lib.h</text>
</a>
</g>
</g>
<!-- Node1&#45;&gt;Node7 -->
<g id="edge6_Node000001_Node000007" class="edge">
<title>Node1&#45;&gt;Node7</title>
<g id="a_edge6_Node000001_Node000007"><a xlink:title=" ">
<path fill="none" stroke="#63b8ff" d="M208.76,-165.34C226.77,-157 253.77,-144.5 274.48,-134.91"/>
<polygon fill="#63b8ff" stroke="#63b8ff" points="275.67,-138.22 283.27,-130.84 272.73,-131.86 275.67,-138.22"/>
</a>
</g>
</g>
<!-- Node8 -->
<g id="Node000008" class="node">
<title>Node8</title>
<g id="a_Node000008"><a xlink:title=" ">
<polygon fill="#e0e0e0" stroke="#999999" points="151.75,-74.5 108.75,-74.5 108.75,-55.25 151.75,-55.25 151.75,-74.5"/>
<text xml:space="preserve" text-anchor="middle" x="130.25" y="-61" font-family="Helvetica,sans-Serif" font-size="10.00">vector</text>
</a>
</g>
</g>
<!-- Node1&#45;&gt;Node8 -->
<g id="edge7_Node000001_Node000008" class="edge">
<title>Node1&#45;&gt;Node8</title>
<g id="a_edge7_Node000001_Node000008"><a xlink:title=" ">
<path fill="none" stroke="#63b8ff" d="M128.26,-165.33C107.27,-158.98 85.89,-148.16 73.25,-129.75 60.8,-111.62 81.79,-93.1 101.72,-80.71"/>
<polygon fill="#63b8ff" stroke="#63b8ff" points="103.38,-83.8 110.26,-75.74 99.86,-77.74 103.38,-83.8"/>
</a>
</g>
</g>
<!-- Node9 -->
<g id="Node000009" class="node">
<title>Node9</title>
<g id="a_Node000009"><a xlink:href="_logger_manager_8h.html" target="_top" xlink:title="Comprehensive data and event logging system for temperature monitoring.">
<polygon fill="white" stroke="#666666" points="441.38,-129.75 351.12,-129.75 351.12,-110.5 441.38,-110.5 441.38,-129.75"/>
<text xml:space="preserve" text-anchor="middle" x="396.25" y="-116.25" font-family="Helvetica,sans-Serif" font-size="10.00">LoggerManager.h</text>
</a>
</g>
</g>
<!-- Node1&#45;&gt;Node9 -->
<g id="edge8_Node000001_Node000009" class="edge">
<title>Node1&#45;&gt;Node9</title>
<g id="a_edge8_Node000001_Node000009"><a xlink:title=" ">
<path fill="none" stroke="#63b8ff" d="M224.36,-165.34C259.01,-156.43 312.16,-142.76 350.18,-132.98"/>
<polygon fill="#63b8ff" stroke="#63b8ff" points="350.68,-136.46 359.5,-130.58 348.94,-129.68 350.68,-136.46"/>
</a>
</g>
</g>
<!-- Node9&#45;&gt;Node2 -->
<g id="edge9_Node000009_Node000002" class="edge">
<title>Node9&#45;&gt;Node2</title>
<g id="a_edge9_Node000009_Node000002"><a xlink:title=" ">
<path fill="none" stroke="#63b8ff" d="M386.74,-110.3C374.05,-97.44 354.55,-73.12 367.25,-55.25 372.64,-47.66 420.21,-32.42 455.8,-21.88"/>
<polygon fill="#63b8ff" stroke="#63b8ff" points="456.34,-25.37 464.95,-19.19 454.37,-18.65 456.34,-25.37"/>
</a>
</g>
</g>
<!-- Node9&#45;&gt;Node8 -->
<g id="edge20_Node000009_Node000008" class="edge">
<title>Node9&#45;&gt;Node8</title>
<g id="a_edge20_Node000009_Node000008"><a xlink:title=" ">
<path fill="none" stroke="#63b8ff" d="M350.83,-110.03C297.48,-99.35 210.29,-81.9 163.09,-72.45"/>
<polygon fill="#63b8ff" stroke="#63b8ff" points="163.97,-69.06 153.48,-70.53 162.6,-75.92 163.97,-69.06"/>
</a>
</g>
</g>
<!-- Node10 -->
<g id="Node000010" class="node">
<title>Node10</title>
<g id="a_Node000010"><a xlink:title=" ">
<polygon fill="#e0e0e0" stroke="#999999" points="412.75,-74.5 375.75,-74.5 375.75,-55.25 412.75,-55.25 412.75,-74.5"/>
<text xml:space="preserve" text-anchor="middle" x="394.25" y="-61" font-family="Helvetica,sans-Serif" font-size="10.00">FS.h</text>
</a>
</g>
</g>
<!-- Node9&#45;&gt;Node10 -->
<g id="edge10_Node000009_Node000010" class="edge">
<title>Node9&#45;&gt;Node10</title>
<g id="a_edge10_Node000009_Node000010"><a xlink:title=" ">
<path fill="none" stroke="#63b8ff" d="M395.92,-110.33C395.67,-103.74 395.32,-94.46 395.01,-86.07"/>
<polygon fill="#63b8ff" stroke="#63b8ff" points="398.52,-86.23 394.64,-76.37 391.52,-86.5 398.52,-86.23"/>
</a>
</g>
</g>
<!-- Node11 -->
<g id="Node000011" class="node">
<title>Node11</title>
<g id="a_Node000011"><a xlink:title=" ">
<polygon fill="#e0e0e0" stroke="#999999" points="469.5,-74.5 431,-74.5 431,-55.25 469.5,-55.25 469.5,-74.5"/>
<text xml:space="preserve" text-anchor="middle" x="450.25" y="-61" font-family="Helvetica,sans-Serif" font-size="10.00">SD.h</text>
</a>
</g>
</g>
<!-- Node9&#45;&gt;Node11 -->
<g id="edge11_Node000009_Node000011" class="edge">
<title>Node9&#45;&gt;Node11</title>
<g id="a_edge11_Node000009_Node000011"><a xlink:title=" ">
<path fill="none" stroke="#63b8ff" d="M405.17,-110.33C412.7,-102.9 423.72,-92.04 432.98,-82.91"/>
<polygon fill="#63b8ff" stroke="#63b8ff" points="435.4,-85.44 440.06,-75.92 430.48,-80.45 435.4,-85.44"/>
</a>
</g>
</g>
<!-- Node12 -->
<g id="Node000012" class="node">
<title>Node12</title>
<g id="a_Node000012"><a xlink:href="_time_manager_8h.html" target="_top" xlink:title=" ">
<polygon fill="white" stroke="#666666" points="297.62,-74.5 214.88,-74.5 214.88,-55.25 297.62,-55.25 297.62,-74.5"/>
<text xml:space="preserve" text-anchor="middle" x="256.25" y="-61" font-family="Helvetica,sans-Serif" font-size="10.00">TimeManager.h</text>
</a>
</g>
</g>
<!-- Node9&#45;&gt;Node12 -->
<g id="edge12_Node000009_Node000012" class="edge">
<title>Node9&#45;&gt;Node12</title>
<g id="a_edge12_Node000009_Node000012"><a xlink:title=" ">
<path fill="none" stroke="#63b8ff" d="M372.5,-110.09C350.08,-101.56 316.19,-88.67 290.78,-79.01"/>
<polygon fill="#63b8ff" stroke="#63b8ff" points="292.12,-75.77 281.53,-75.49 289.63,-82.32 292.12,-75.77"/>
</a>
</g>
</g>
<!-- Node12&#45;&gt;Node2 -->
<g id="edge13_Node000012_Node000002" class="edge">
<title>Node12&#45;&gt;Node2</title>
<g id="a_edge13_Node000012_Node000002"><a xlink:title=" ">
<path fill="none" stroke="#63b8ff" d="M297.45,-54.79C335.79,-46.32 394.81,-33.25 455.3,-19.68"/>
<polygon fill="#63b8ff" stroke="#63b8ff" points="455.74,-23.17 464.73,-17.56 454.21,-16.34 455.74,-23.17"/>
</a>
</g>
</g>
<!-- Node12&#45;&gt;Node3 -->
<g id="edge15_Node000012_Node000003" class="edge">
<title>Node12&#45;&gt;Node3</title>
<g id="a_edge15_Node000012_Node000003"><a xlink:title=" ">
<path fill="none" stroke="#63b8ff" d="M214.65,-54.81C174.35,-45.97 111.53,-32.02 57.25,-19.25 56.75,-19.13 56.24,-19.01 55.73,-18.89"/>
<polygon fill="#63b8ff" stroke="#63b8ff" points="56.84,-15.56 46.3,-16.62 55.2,-22.36 56.84,-15.56"/>
</a>
</g>
</g>
<!-- Node13 -->
<g id="Node000013" class="node">
<title>Node13</title>
<g id="a_Node000013"><a xlink:title=" ">
<polygon fill="#e0e0e0" stroke="#999999" points="110.5,-19.25 66,-19.25 66,0 110.5,0 110.5,-19.25"/>
<text xml:space="preserve" text-anchor="middle" x="88.25" y="-5.75" font-family="Helvetica,sans-Serif" font-size="10.00">WiFi.h</text>
</a>
</g>
</g>
<!-- Node12&#45;&gt;Node13 -->
<g id="edge14_Node000012_Node000013" class="edge">
<title>Node12&#45;&gt;Node13</title>
<g id="a_edge14_Node000012_Node000013"><a xlink:title=" ">
<path fill="none" stroke="#63b8ff" d="M227.75,-54.84C198.4,-45.54 152.69,-31.05 121.66,-21.22"/>
<polygon fill="#63b8ff" stroke="#63b8ff" points="122.98,-17.96 112.39,-18.28 120.87,-24.64 122.98,-17.96"/>
</a>
</g>
</g>
<!-- Node14 -->
<g id="Node000014" class="node">
<title>Node14</title>
<g id="a_Node000014"><a xlink:title=" ">
<polygon fill="#e0e0e0" stroke="#999999" points="183.75,-19.25 128.75,-19.25 128.75,0 183.75,0 183.75,-19.25"/>
<text xml:space="preserve" text-anchor="middle" x="156.25" y="-5.75" font-family="Helvetica,sans-Serif" font-size="10.00">RTClib.h</text>
</a>
</g>
</g>
<!-- Node12&#45;&gt;Node14 -->
<g id="edge16_Node000012_Node000014" class="edge">
<title>Node12&#45;&gt;Node14</title>
<g id="a_edge16_Node000012_Node000014"><a xlink:title=" ">
<path fill="none" stroke="#63b8ff" d="M239.29,-54.84C223.99,-46.69 201.22,-34.57 183.39,-25.08"/>
<polygon fill="#63b8ff" stroke="#63b8ff" points="185.1,-22.02 174.63,-20.41 181.81,-28.2 185.1,-22.02"/>
</a>
</g>
</g>
<!-- Node15 -->
<g id="Node000015" class="node">
<title>Node15</title>
<g id="a_Node000015"><a xlink:title=" ">
<polygon fill="#e0e0e0" stroke="#999999" points="272.25,-19.25 202.25,-19.25 202.25,0 272.25,0 272.25,-19.25"/>
<text xml:space="preserve" text-anchor="middle" x="237.25" y="-5.75" font-family="Helvetica,sans-Serif" font-size="10.00">NTPClient.h</text>
</a>
</g>
</g>
<!-- Node12&#45;&gt;Node15 -->
<g id="edge17_Node000012_Node000015" class="edge">
<title>Node12&#45;&gt;Node15</title>
<g id="a_edge17_Node000012_Node000015"><a xlink:title=" ">
<path fill="none" stroke="#63b8ff" d="M253.11,-55.08C250.71,-48.34 247.29,-38.77 244.25,-30.24"/>
<polygon fill="#63b8ff" stroke="#63b8ff" points="247.62,-29.28 240.96,-21.03 241.03,-31.63 247.62,-29.28"/>
</a>
</g>
</g>
<!-- Node16 -->
<g id="Node000016" class="node">
<title>Node16</title>
<g id="a_Node000016"><a xlink:title=" ">
<polygon fill="#e0e0e0" stroke="#999999" points="352.5,-19.25 290,-19.25 290,0 352.5,0 352.5,-19.25"/>
<text xml:space="preserve" text-anchor="middle" x="321.25" y="-5.75" font-family="Helvetica,sans-Serif" font-size="10.00">WiFiUdp.h</text>
</a>
</g>
</g>
<!-- Node12&#45;&gt;Node16 -->
<g id="edge18_Node000012_Node000016" class="edge">
<title>Node12&#45;&gt;Node16</title>
<g id="a_edge18_Node000012_Node000016"><a xlink:title=" ">
<path fill="none" stroke="#63b8ff" d="M267.28,-54.84C276.67,-47.15 290.4,-35.9 301.66,-26.68"/>
<polygon fill="#63b8ff" stroke="#63b8ff" points="303.7,-29.53 309.22,-20.48 299.26,-24.11 303.7,-29.53"/>
</a>
</g>
</g>
<!-- Node17 -->
<g id="Node000017" class="node">
<title>Node17</title>
<g id="a_Node000017"><a xlink:title=" ">
<polygon fill="#e0e0e0" stroke="#999999" points="448.38,-19.25 370.12,-19.25 370.12,0 448.38,0 448.38,-19.25"/>
<text xml:space="preserve" text-anchor="middle" x="409.25" y="-5.75" font-family="Helvetica,sans-Serif" font-size="10.00">ArduinoJson.h</text>
</a>
</g>
</g>
<!-- Node12&#45;&gt;Node17 -->
<g id="edge19_Node000012_Node000017" class="edge">
<title>Node12&#45;&gt;Node17</title>
<g id="a_edge19_Node000012_Node000017"><a xlink:title=" ">
<path fill="none" stroke="#63b8ff" d="M282.2,-54.84C307.04,-46.2 344.75,-33.07 372.63,-23.37"/>
<polygon fill="#63b8ff" stroke="#63b8ff" points="373.44,-26.79 381.74,-20.2 371.14,-20.18 373.44,-26.79"/>
</a>
</g>
</g>
</g>
</svg>
