<?xml version="1.0" encoding="UTF-8" standalone="no"?>
<!DOCTYPE svg PUBLIC "-//W3C//DTD SVG 1.1//EN"
 "http://www.w3.org/Graphics/SVG/1.1/DTD/svg11.dtd">
<!-- Generated by graphviz version 13.1.0 (20250701.0955)
 -->
<!-- Title: include/IndicatorInterface.h Pages: 1 -->
<svg width="771pt" height="248pt"
 viewBox="0.00 0.00 771.00 248.00" xmlns="http://www.w3.org/2000/svg" xmlns:xlink="http://www.w3.org/1999/xlink">
<g id="graph0" class="graph" transform="scale(1 1) rotate(0) translate(4 244.25)">
<title>include/IndicatorInterface.h</title>
<!-- Node1 -->
<g id="Node000001" class="node">
<title>Node1</title>
<g id="a_Node000001"><a xlink:title="Hardware interface for PCF8575 I/O expander and SH1106 OLED display.">
<polygon fill="#999999" stroke="#666666" points="674.12,-240.25 540.38,-240.25 540.38,-221 674.12,-221 674.12,-240.25"/>
<text xml:space="preserve" text-anchor="middle" x="607.25" y="-226.75" font-family="Helvetica,sans-Serif" font-size="10.00">include/IndicatorInterface.h</text>
</a>
</g>
</g>
<!-- Node2 -->
<g id="Node000002" class="node">
<title>Node2</title>
<g id="a_Node000002"><a xlink:href="_temperature_controller_8h.html" target="_top" xlink:title="Central temperature monitoring and control system.">
<polygon fill="white" stroke="#666666" points="386.88,-185 233.62,-185 233.62,-165.75 386.88,-165.75 386.88,-185"/>
<text xml:space="preserve" text-anchor="middle" x="310.25" y="-171.5" font-family="Helvetica,sans-Serif" font-size="10.00">include/TemperatureController.h</text>
</a>
</g>
</g>
<!-- Node1&#45;&gt;Node2 -->
<g id="edge1_Node000001_Node000002" class="edge">
<title>Node1&#45;&gt;Node2</title>
<g id="a_edge1_Node000001_Node000002"><a xlink:title=" ">
<path fill="none" stroke="#63b8ff" d="M545.24,-218.51C490.51,-208.69 411.73,-194.57 360.76,-185.43"/>
<polygon fill="#63b8ff" stroke="#63b8ff" points="544.58,-221.94 555.04,-220.26 545.82,-215.05 544.58,-221.94"/>
</a>
</g>
</g>
<!-- Node7 -->
<g id="Node000007" class="node">
<title>Node7</title>
<g id="a_Node000007"><a xlink:href="main_8cpp.html" target="_top" xlink:title="Main application entry point for Industrial Temperature Monitoring System.">
<polygon fill="white" stroke="#666666" points="605.38,-19.25 533.12,-19.25 533.12,0 605.38,0 605.38,-19.25"/>
<text xml:space="preserve" text-anchor="middle" x="569.25" y="-5.75" font-family="Helvetica,sans-Serif" font-size="10.00">src/main.cpp</text>
</a>
</g>
</g>
<!-- Node1&#45;&gt;Node7 -->
<g id="edge14_Node000001_Node000007" class="edge">
<title>Node1&#45;&gt;Node7</title>
<g id="a_edge14_Node000001_Node000007"><a xlink:title=" ">
<path fill="none" stroke="#63b8ff" d="M606.7,-209.64C605.41,-176.9 601.16,-110 587.25,-55.25 584,-42.46 577.91,-28.46 573.71,-19.61"/>
<polygon fill="#63b8ff" stroke="#63b8ff" points="603.19,-209.38 607.02,-219.25 610.18,-209.14 603.19,-209.38"/>
</a>
</g>
</g>
<!-- Node11 -->
<g id="Node000011" class="node">
<title>Node11</title>
<g id="a_Node000011"><a xlink:href="_indicator_interface_8cpp.html" target="_top" xlink:title="Implementation of user interface with OLED display and input handling.">
<polygon fill="white" stroke="#666666" points="762.75,-185 635.75,-185 635.75,-165.75 762.75,-165.75 762.75,-185"/>
<text xml:space="preserve" text-anchor="middle" x="699.25" y="-171.5" font-family="Helvetica,sans-Serif" font-size="10.00">src/IndicatorInterface.cpp</text>
</a>
</g>
</g>
<!-- Node1&#45;&gt;Node11 -->
<g id="edge13_Node000001_Node000011" class="edge">
<title>Node1&#45;&gt;Node11</title>
<g id="a_edge13_Node000001_Node000011"><a xlink:title=" ">
<path fill="none" stroke="#63b8ff" d="M632.36,-215.09C648.71,-205.63 669.53,-193.58 683.57,-185.45"/>
<polygon fill="#63b8ff" stroke="#63b8ff" points="631.07,-211.79 624.17,-219.83 634.57,-217.85 631.07,-211.79"/>
</a>
</g>
</g>
<!-- Node3 -->
<g id="Node000003" class="node">
<title>Node3</title>
<g id="a_Node000003"><a xlink:href="_c_s_v_config_manager_8h.html" target="_top" xlink:title="CSV configuration import/export manager for measurement points and alarms.">
<polygon fill="white" stroke="#666666" points="541.38,-129.75 397.12,-129.75 397.12,-110.5 541.38,-110.5 541.38,-129.75"/>
<text xml:space="preserve" text-anchor="middle" x="469.25" y="-116.25" font-family="Helvetica,sans-Serif" font-size="10.00">include/CSVConfigManager.h</text>
</a>
</g>
</g>
<!-- Node2&#45;&gt;Node3 -->
<g id="edge2_Node000002_Node000003" class="edge">
<title>Node2&#45;&gt;Node3</title>
<g id="a_edge2_Node000002_Node000003"><a xlink:title=" ">
<path fill="none" stroke="#63b8ff" d="M347.77,-161.81C376.75,-152.1 416.17,-138.9 442.15,-130.2"/>
<polygon fill="#63b8ff" stroke="#63b8ff" points="347.03,-158.37 338.66,-164.86 349.25,-165 347.03,-158.37"/>
</a>
</g>
</g>
<!-- Node4 -->
<g id="Node000004" class="node">
<title>Node4</title>
<g id="a_Node000004"><a xlink:href="_config_manager_8h.html" target="_top" xlink:title="Configuration management system for temperature monitoring device.">
<polygon fill="white" stroke="#666666" points="349.88,-74.5 226.62,-74.5 226.62,-55.25 349.88,-55.25 349.88,-74.5"/>
<text xml:space="preserve" text-anchor="middle" x="288.25" y="-61" font-family="Helvetica,sans-Serif" font-size="10.00">include/ConfigManager.h</text>
</a>
</g>
</g>
<!-- Node2&#45;&gt;Node4 -->
<g id="edge8_Node000002_Node000004" class="edge">
<title>Node2&#45;&gt;Node4</title>
<g id="a_edge8_Node000002_Node000004"><a xlink:title=" ">
<path fill="none" stroke="#63b8ff" d="M222.02,-167.01C170.75,-160.69 113.2,-149.39 97.25,-129.75 59.61,-83.41 157.15,-70.47 226.29,-66.99"/>
<polygon fill="#63b8ff" stroke="#63b8ff" points="221.34,-170.45 231.68,-168.14 222.16,-163.5 221.34,-170.45"/>
</a>
</g>
</g>
<!-- Node6 -->
<g id="Node000006" class="node">
<title>Node6</title>
<g id="a_Node000006"><a xlink:href="_temperature_controller_8cpp.html" target="_top" xlink:title="Implementation of the central temperature monitoring and control system.">
<polygon fill="white" stroke="#666666" points="146.5,-19.25 0,-19.25 0,0 146.5,0 146.5,-19.25"/>
<text xml:space="preserve" text-anchor="middle" x="73.25" y="-5.75" font-family="Helvetica,sans-Serif" font-size="10.00">src/TemperatureController.cpp</text>
</a>
</g>
</g>
<!-- Node2&#45;&gt;Node6 -->
<g id="edge11_Node000002_Node000006" class="edge">
<title>Node2&#45;&gt;Node6</title>
<g id="a_edge11_Node000002_Node000006"><a xlink:title=" ">
<path fill="none" stroke="#63b8ff" d="M222.12,-167.57C167.23,-161.38 103.67,-150.01 85.25,-129.75 56.73,-98.37 66.04,-41.36 71,-19.49"/>
<polygon fill="#63b8ff" stroke="#63b8ff" points="221.5,-171.02 231.82,-168.61 222.25,-164.06 221.5,-171.02"/>
</a>
</g>
</g>
<!-- Node2&#45;&gt;Node7 -->
<g id="edge12_Node000002_Node000007" class="edge">
<title>Node2&#45;&gt;Node7</title>
<g id="a_edge12_Node000002_Node000007"><a xlink:title=" ">
<path fill="none" stroke="#63b8ff" d="M398.62,-168.48C458.08,-162.61 529.3,-151.24 550.25,-129.75 580.07,-99.15 574.43,-41.68 570.91,-19.59"/>
<polygon fill="#63b8ff" stroke="#63b8ff" points="398.42,-164.98 388.8,-169.41 399.08,-171.95 398.42,-164.98"/>
</a>
</g>
</g>
<!-- Node9 -->
<g id="Node000009" class="node">
<title>Node9</title>
<g id="a_Node000009"><a xlink:href="_logger_manager_8cpp.html" target="_top" xlink:title="Implementation of data logging and event management system.">
<polygon fill="white" stroke="#666666" points="223.88,-129.75 106.62,-129.75 106.62,-110.5 223.88,-110.5 223.88,-129.75"/>
<text xml:space="preserve" text-anchor="middle" x="165.25" y="-116.25" font-family="Helvetica,sans-Serif" font-size="10.00">src/LoggerManager.cpp</text>
</a>
</g>
</g>
<!-- Node2&#45;&gt;Node9 -->
<g id="edge9_Node000002_Node000009" class="edge">
<title>Node2&#45;&gt;Node9</title>
<g id="a_edge9_Node000002_Node000009"><a xlink:title=" ">
<path fill="none" stroke="#63b8ff" d="M274.98,-161.42C248.66,-151.75 213.34,-138.79 189.97,-130.2"/>
<polygon fill="#63b8ff" stroke="#63b8ff" points="273.64,-164.66 284.23,-164.82 276.05,-158.09 273.64,-164.66"/>
</a>
</g>
</g>
<!-- Node10 -->
<g id="Node000010" class="node">
<title>Node10</title>
<g id="a_Node000010"><a xlink:href="_temp_modbus_server_8cpp.html" target="_top" xlink:title="Implementation of Modbus RTU server for temperature monitoring.">
<polygon fill="white" stroke="#666666" points="379,-129.75 241.5,-129.75 241.5,-110.5 379,-110.5 379,-129.75"/>
<text xml:space="preserve" text-anchor="middle" x="310.25" y="-116.25" font-family="Helvetica,sans-Serif" font-size="10.00">src/TempModbusServer.cpp</text>
</a>
</g>
</g>
<!-- Node2&#45;&gt;Node10 -->
<g id="edge10_Node000002_Node000010" class="edge">
<title>Node2&#45;&gt;Node10</title>
<g id="a_edge10_Node000002_Node000010"><a xlink:title=" ">
<path fill="none" stroke="#63b8ff" d="M310.25,-154.13C310.25,-145.84 310.25,-136.67 310.25,-130.11"/>
<polygon fill="#63b8ff" stroke="#63b8ff" points="306.75,-154.07 310.25,-164.07 313.75,-154.07 306.75,-154.07"/>
</a>
</g>
</g>
<!-- Node3&#45;&gt;Node4 -->
<g id="edge3_Node000003_Node000004" class="edge">
<title>Node3&#45;&gt;Node4</title>
<g id="a_edge3_Node000003_Node000004"><a xlink:title=" ">
<path fill="none" stroke="#63b8ff" d="M427.84,-106.94C394.73,-97.2 349.06,-83.77 319.1,-74.95"/>
<polygon fill="#63b8ff" stroke="#63b8ff" points="426.51,-110.2 437.09,-109.66 428.49,-103.48 426.51,-110.2"/>
</a>
</g>
</g>
<!-- Node8 -->
<g id="Node000008" class="node">
<title>Node8</title>
<g id="a_Node000008"><a xlink:href="_c_s_v_config_manager_8cpp.html" target="_top" xlink:title="Implementation of CSV configuration management for measurement points.">
<polygon fill="white" stroke="#666666" points="538,-74.5 400.5,-74.5 400.5,-55.25 538,-55.25 538,-74.5"/>
<text xml:space="preserve" text-anchor="middle" x="469.25" y="-61" font-family="Helvetica,sans-Serif" font-size="10.00">src/CSVConfigManager.cpp</text>
</a>
</g>
</g>
<!-- Node3&#45;&gt;Node8 -->
<g id="edge7_Node000003_Node000008" class="edge">
<title>Node3&#45;&gt;Node8</title>
<g id="a_edge7_Node000003_Node000008"><a xlink:title=" ">
<path fill="none" stroke="#63b8ff" d="M469.25,-98.88C469.25,-90.59 469.25,-81.42 469.25,-74.86"/>
<polygon fill="#63b8ff" stroke="#63b8ff" points="465.75,-98.82 469.25,-108.82 472.75,-98.82 465.75,-98.82"/>
</a>
</g>
</g>
<!-- Node5 -->
<g id="Node000005" class="node">
<title>Node5</title>
<g id="a_Node000005"><a xlink:href="_config_manager_8cpp.html" target="_top" xlink:title="Implementation of web&#45;based configuration management system.">
<polygon fill="white" stroke="#666666" points="346.5,-19.25 230,-19.25 230,0 346.5,0 346.5,-19.25"/>
<text xml:space="preserve" text-anchor="middle" x="288.25" y="-5.75" font-family="Helvetica,sans-Serif" font-size="10.00">src/ConfigManager.cpp</text>
</a>
</g>
</g>
<!-- Node4&#45;&gt;Node5 -->
<g id="edge4_Node000004_Node000005" class="edge">
<title>Node4&#45;&gt;Node5</title>
<g id="a_edge4_Node000004_Node000005"><a xlink:title=" ">
<path fill="none" stroke="#63b8ff" d="M288.25,-43.63C288.25,-35.34 288.25,-26.17 288.25,-19.61"/>
<polygon fill="#63b8ff" stroke="#63b8ff" points="284.75,-43.57 288.25,-53.57 291.75,-43.57 284.75,-43.57"/>
</a>
</g>
</g>
<!-- Node4&#45;&gt;Node6 -->
<g id="edge5_Node000004_Node000006" class="edge">
<title>Node4&#45;&gt;Node6</title>
<g id="a_edge5_Node000004_Node000006"><a xlink:title=" ">
<path fill="none" stroke="#63b8ff" d="M240.85,-52.13C201.39,-42.36 146.03,-28.65 109.9,-19.7"/>
<polygon fill="#63b8ff" stroke="#63b8ff" points="239.76,-55.47 250.31,-54.48 241.44,-48.68 239.76,-55.47"/>
</a>
</g>
</g>
<!-- Node4&#45;&gt;Node7 -->
<g id="edge6_Node000004_Node000007" class="edge">
<title>Node4&#45;&gt;Node7</title>
<g id="a_edge6_Node000004_Node000007"><a xlink:title=" ">
<path fill="none" stroke="#63b8ff" d="M347.41,-52.66C403.38,-42.06 485.62,-26.47 532.65,-17.56"/>
<polygon fill="#63b8ff" stroke="#63b8ff" points="346.9,-49.2 337.72,-54.5 348.2,-56.08 346.9,-49.2"/>
</a>
</g>
</g>
</g>
</svg>
