<?xml version="1.0" encoding="UTF-8" standalone="no"?>
<!DOCTYPE svg PUBLIC "-//W3C//DTD SVG 1.1//EN"
 "http://www.w3.org/Graphics/SVG/1.1/DTD/svg11.dtd">
<!-- Generated by graphviz version 13.1.0 (20250701.0955)
 -->
<!-- Title: include/IndicatorInterface.h Pages: 1 -->
<svg width="808pt" height="248pt"
 viewBox="0.00 0.00 808.00 248.00" xmlns="http://www.w3.org/2000/svg" xmlns:xlink="http://www.w3.org/1999/xlink">
<g id="graph0" class="graph" transform="scale(1 1) rotate(0) translate(4 244.25)">
<title>include/IndicatorInterface.h</title>
<!-- Node1 -->
<g id="Node000001" class="node">
<title>Node1</title>
<g id="a_Node000001"><a xlink:title="Hardware interface for PCF8575 I/O expander and SH1106 OLED display.">
<polygon fill="#999999" stroke="#666666" points="711.5,-240.25 577.75,-240.25 577.75,-221 711.5,-221 711.5,-240.25"/>
<text xml:space="preserve" text-anchor="middle" x="644.62" y="-226.75" font-family="Helvetica,sans-Serif" font-size="10.00">include/IndicatorInterface.h</text>
</a>
</g>
</g>
<!-- Node2 -->
<g id="Node000002" class="node">
<title>Node2</title>
<g id="a_Node000002"><a xlink:href="_temperature_controller_8h.html" target="_top" xlink:title="Central temperature monitoring and control system.">
<polygon fill="white" stroke="#666666" points="427.25,-185 274,-185 274,-165.75 427.25,-165.75 427.25,-185"/>
<text xml:space="preserve" text-anchor="middle" x="350.62" y="-171.5" font-family="Helvetica,sans-Serif" font-size="10.00">include/TemperatureController.h</text>
</a>
</g>
</g>
<!-- Node1&#45;&gt;Node2 -->
<g id="edge1_Node000001_Node000002" class="edge">
<title>Node1&#45;&gt;Node2</title>
<g id="a_edge1_Node000001_Node000002"><a xlink:title=" ">
<path fill="none" stroke="#63b8ff" d="M583.24,-218.51C529.06,-208.69 451.08,-194.57 400.62,-185.43"/>
<polygon fill="#63b8ff" stroke="#63b8ff" points="582.47,-221.92 592.93,-220.26 583.71,-215.04 582.47,-221.92"/>
</a>
</g>
</g>
<!-- Node6 -->
<g id="Node000006" class="node">
<title>Node6</title>
<g id="a_Node000006"><a xlink:href="main_8cpp.html" target="_top" xlink:title="Main application entry point for Industrial Temperature Monitoring System.">
<polygon fill="white" stroke="#666666" points="342.75,-19.25 270.5,-19.25 270.5,0 342.75,0 342.75,-19.25"/>
<text xml:space="preserve" text-anchor="middle" x="306.62" y="-5.75" font-family="Helvetica,sans-Serif" font-size="10.00">src/main.cpp</text>
</a>
</g>
</g>
<!-- Node1&#45;&gt;Node6 -->
<g id="edge12_Node000001_Node000006" class="edge">
<title>Node1&#45;&gt;Node6</title>
<g id="a_edge12_Node000001_Node000006"><a xlink:title=" ">
<path fill="none" stroke="#63b8ff" d="M647.37,-209.12C649.67,-183.02 649.41,-138.02 625.62,-110.5 552.86,-26.31 410.13,-12.21 343.07,-10.43"/>
<polygon fill="#63b8ff" stroke="#63b8ff" points="643.9,-208.73 646.26,-219.05 650.85,-209.5 643.9,-208.73"/>
</a>
</g>
</g>
<!-- Node10 -->
<g id="Node000010" class="node">
<title>Node10</title>
<g id="a_Node000010"><a xlink:href="_indicator_interface_8cpp.html" target="_top" xlink:title="Implementation of user interface with OLED display and input handling.">
<polygon fill="white" stroke="#666666" points="800.12,-185 673.12,-185 673.12,-165.75 800.12,-165.75 800.12,-185"/>
<text xml:space="preserve" text-anchor="middle" x="736.62" y="-171.5" font-family="Helvetica,sans-Serif" font-size="10.00">src/IndicatorInterface.cpp</text>
</a>
</g>
</g>
<!-- Node1&#45;&gt;Node10 -->
<g id="edge11_Node000001_Node000010" class="edge">
<title>Node1&#45;&gt;Node10</title>
<g id="a_edge11_Node000001_Node000010"><a xlink:title=" ">
<path fill="none" stroke="#63b8ff" d="M669.73,-215.09C686.08,-205.63 706.91,-193.58 720.94,-185.45"/>
<polygon fill="#63b8ff" stroke="#63b8ff" points="668.44,-211.79 661.54,-219.83 671.95,-217.85 668.44,-211.79"/>
</a>
</g>
</g>
<!-- Node3 -->
<g id="Node000003" class="node">
<title>Node3</title>
<g id="a_Node000003"><a xlink:href="_c_s_v_config_manager_8h.html" target="_top" xlink:title="CSV configuration import/export manager for measurement points and alarms.">
<polygon fill="white" stroke="#666666" points="278.75,-129.75 134.5,-129.75 134.5,-110.5 278.75,-110.5 278.75,-129.75"/>
<text xml:space="preserve" text-anchor="middle" x="206.62" y="-116.25" font-family="Helvetica,sans-Serif" font-size="10.00">include/CSVConfigManager.h</text>
</a>
</g>
</g>
<!-- Node2&#45;&gt;Node3 -->
<g id="edge2_Node000002_Node000003" class="edge">
<title>Node2&#45;&gt;Node3</title>
<g id="a_edge2_Node000002_Node000003"><a xlink:title=" ">
<path fill="none" stroke="#63b8ff" d="M315.6,-161.42C289.45,-151.75 254.38,-138.79 231.17,-130.2"/>
<polygon fill="#63b8ff" stroke="#63b8ff" points="314.18,-164.63 324.78,-164.82 316.61,-158.07 314.18,-164.63"/>
</a>
</g>
</g>
<!-- Node4 -->
<g id="Node000004" class="node">
<title>Node4</title>
<g id="a_Node000004"><a xlink:href="_config_manager_8h.html" target="_top" xlink:title="Configuration management system for temperature monitoring device.">
<polygon fill="white" stroke="#666666" points="123.25,-74.5 0,-74.5 0,-55.25 123.25,-55.25 123.25,-74.5"/>
<text xml:space="preserve" text-anchor="middle" x="61.62" y="-61" font-family="Helvetica,sans-Serif" font-size="10.00">include/ConfigManager.h</text>
</a>
</g>
</g>
<!-- Node2&#45;&gt;Node4 -->
<g id="edge7_Node000002_Node000004" class="edge">
<title>Node2&#45;&gt;Node4</title>
<g id="a_edge7_Node000002_Node000004"><a xlink:title=" ">
<path fill="none" stroke="#63b8ff" d="M262.32,-168.89C219.09,-163.29 167.47,-152.08 125.62,-129.75 100.14,-116.15 78.23,-89.1 67.92,-74.96"/>
<polygon fill="#63b8ff" stroke="#63b8ff" points="261.84,-172.36 272.19,-170.09 262.68,-165.41 261.84,-172.36"/>
</a>
</g>
</g>
<!-- Node2&#45;&gt;Node6 -->
<g id="edge10_Node000002_Node000006" class="edge">
<title>Node2&#45;&gt;Node6</title>
<g id="a_edge10_Node000002_Node000006"><a xlink:title=" ">
<path fill="none" stroke="#63b8ff" d="M338.12,-155.53C333.53,-147.83 328.72,-138.64 325.62,-129.75 311.88,-90.18 308.01,-39.73 306.98,-19.55"/>
<polygon fill="#63b8ff" stroke="#63b8ff" points="335.15,-157.38 343.44,-163.98 341.07,-153.65 335.15,-157.38"/>
</a>
</g>
</g>
<!-- Node8 -->
<g id="Node000008" class="node">
<title>Node8</title>
<g id="a_Node000008"><a xlink:href="_logger_manager_8cpp.html" target="_top" xlink:title="Implementation of data logging and event management system.">
<polygon fill="white" stroke="#666666" points="452.25,-129.75 335,-129.75 335,-110.5 452.25,-110.5 452.25,-129.75"/>
<text xml:space="preserve" text-anchor="middle" x="393.62" y="-116.25" font-family="Helvetica,sans-Serif" font-size="10.00">src/LoggerManager.cpp</text>
</a>
</g>
</g>
<!-- Node2&#45;&gt;Node8 -->
<g id="edge8_Node000002_Node000008" class="edge">
<title>Node2&#45;&gt;Node8</title>
<g id="a_edge8_Node000002_Node000008"><a xlink:title=" ">
<path fill="none" stroke="#63b8ff" d="M364.88,-156.72C372.08,-147.81 380.51,-137.37 386.37,-130.11"/>
<polygon fill="#63b8ff" stroke="#63b8ff" points="362.24,-154.43 358.68,-164.4 367.68,-158.82 362.24,-154.43"/>
</a>
</g>
</g>
<!-- Node9 -->
<g id="Node000009" class="node">
<title>Node9</title>
<g id="a_Node000009"><a xlink:href="_temperature_controller_8cpp.html" target="_top" xlink:title="Implementation of the central temperature monitoring and control system.">
<polygon fill="white" stroke="#666666" points="616.88,-129.75 470.38,-129.75 470.38,-110.5 616.88,-110.5 616.88,-129.75"/>
<text xml:space="preserve" text-anchor="middle" x="543.62" y="-116.25" font-family="Helvetica,sans-Serif" font-size="10.00">src/TemperatureController.cpp</text>
</a>
</g>
</g>
<!-- Node2&#45;&gt;Node9 -->
<g id="edge9_Node000002_Node000009" class="edge">
<title>Node2&#45;&gt;Node9</title>
<g id="a_edge9_Node000002_Node000009"><a xlink:title=" ">
<path fill="none" stroke="#63b8ff" d="M394.32,-162.32C429.66,-152.57 478.64,-139.05 510.72,-130.2"/>
<polygon fill="#63b8ff" stroke="#63b8ff" points="393.53,-158.91 384.82,-164.94 395.39,-165.65 393.53,-158.91"/>
</a>
</g>
</g>
<!-- Node3&#45;&gt;Node4 -->
<g id="edge3_Node000003_Node000004" class="edge">
<title>Node3&#45;&gt;Node4</title>
<g id="a_edge3_Node000003_Node000004"><a xlink:title=" ">
<path fill="none" stroke="#63b8ff" d="M171.36,-106.17C145.03,-96.5 109.71,-83.54 86.34,-74.95"/>
<polygon fill="#63b8ff" stroke="#63b8ff" points="170.01,-109.41 180.61,-109.57 172.43,-102.84 170.01,-109.41"/>
</a>
</g>
</g>
<!-- Node7 -->
<g id="Node000007" class="node">
<title>Node7</title>
<g id="a_Node000007"><a xlink:href="_c_s_v_config_manager_8cpp.html" target="_top" xlink:title="Implementation of CSV configuration management for measurement points.">
<polygon fill="white" stroke="#666666" points="278.38,-74.5 140.88,-74.5 140.88,-55.25 278.38,-55.25 278.38,-74.5"/>
<text xml:space="preserve" text-anchor="middle" x="209.62" y="-61" font-family="Helvetica,sans-Serif" font-size="10.00">src/CSVConfigManager.cpp</text>
</a>
</g>
</g>
<!-- Node3&#45;&gt;Node7 -->
<g id="edge6_Node000003_Node000007" class="edge">
<title>Node3&#45;&gt;Node7</title>
<g id="a_edge6_Node000003_Node000007"><a xlink:title=" ">
<path fill="none" stroke="#63b8ff" d="M207.77,-98.88C208.23,-90.59 208.75,-81.42 209.12,-74.86"/>
<polygon fill="#63b8ff" stroke="#63b8ff" points="204.27,-98.64 207.21,-108.82 211.26,-99.03 204.27,-98.64"/>
</a>
</g>
</g>
<!-- Node5 -->
<g id="Node000005" class="node">
<title>Node5</title>
<g id="a_Node000005"><a xlink:href="_config_manager_8cpp.html" target="_top" xlink:title="Implementation of web&#45;based configuration management system.">
<polygon fill="white" stroke="#666666" points="119.88,-19.25 3.38,-19.25 3.38,0 119.88,0 119.88,-19.25"/>
<text xml:space="preserve" text-anchor="middle" x="61.62" y="-5.75" font-family="Helvetica,sans-Serif" font-size="10.00">src/ConfigManager.cpp</text>
</a>
</g>
</g>
<!-- Node4&#45;&gt;Node5 -->
<g id="edge4_Node000004_Node000005" class="edge">
<title>Node4&#45;&gt;Node5</title>
<g id="a_edge4_Node000004_Node000005"><a xlink:title=" ">
<path fill="none" stroke="#63b8ff" d="M61.62,-43.63C61.62,-35.34 61.62,-26.17 61.62,-19.61"/>
<polygon fill="#63b8ff" stroke="#63b8ff" points="58.13,-43.57 61.63,-53.57 65.13,-43.57 58.13,-43.57"/>
</a>
</g>
</g>
<!-- Node4&#45;&gt;Node6 -->
<g id="edge5_Node000004_Node000006" class="edge">
<title>Node4&#45;&gt;Node6</title>
<g id="a_edge5_Node000004_Node000006"><a xlink:title=" ">
<path fill="none" stroke="#63b8ff" d="M114.64,-52.35C161.63,-42.14 228.98,-27.5 270.16,-18.55"/>
<polygon fill="#63b8ff" stroke="#63b8ff" points="113.97,-48.92 104.94,-54.46 115.46,-55.76 113.97,-48.92"/>
</a>
</g>
</g>
</g>
</svg>
