<?xml version="1.0" encoding="UTF-8" standalone="no"?>
<!DOCTYPE svg PUBLIC "-//W3C//DTD SVG 1.1//EN"
 "http://www.w3.org/Graphics/SVG/1.1/DTD/svg11.dtd">
<!-- Generated by graphviz version 13.1.0 (20250701.0955)
 -->
<!-- Title: include/IndicatorInterface.h Pages: 1 -->
<svg width="963pt" height="248pt"
 viewBox="0.00 0.00 963.00 248.00" xmlns="http://www.w3.org/2000/svg" xmlns:xlink="http://www.w3.org/1999/xlink">
<g id="graph0" class="graph" transform="scale(1 1) rotate(0) translate(4 244.25)">
<title>include/IndicatorInterface.h</title>
<!-- Node1 -->
<g id="Node000001" class="node">
<title>Node1</title>
<g id="a_Node000001"><a xlink:title="Hardware interface for PCF8575 I/O expander and SH1106 OLED display.">
<polygon fill="#999999" stroke="#666666" points="866.5,-240.25 732.75,-240.25 732.75,-221 866.5,-221 866.5,-240.25"/>
<text xml:space="preserve" text-anchor="middle" x="799.62" y="-226.75" font-family="Helvetica,sans-Serif" font-size="10.00">include/IndicatorInterface.h</text>
</a>
</g>
</g>
<!-- Node2 -->
<g id="Node000002" class="node">
<title>Node2</title>
<g id="a_Node000002"><a xlink:href="_temperature_controller_8h.html" target="_top" xlink:title="Central temperature monitoring and control system.">
<polygon fill="white" stroke="#666666" points="470.25,-185 317,-185 317,-165.75 470.25,-165.75 470.25,-185"/>
<text xml:space="preserve" text-anchor="middle" x="393.62" y="-171.5" font-family="Helvetica,sans-Serif" font-size="10.00">include/TemperatureController.h</text>
</a>
</g>
</g>
<!-- Node1&#45;&gt;Node2 -->
<g id="edge1_Node000001_Node000002" class="edge">
<title>Node1&#45;&gt;Node2</title>
<g id="a_edge1_Node000001_Node000002"><a xlink:title=" ">
<path fill="none" stroke="#63b8ff" d="M721.37,-219.36C646.57,-209.55 534.89,-194.9 463.15,-185.49"/>
<polygon fill="#63b8ff" stroke="#63b8ff" points="720.71,-222.8 731.08,-220.64 721.62,-215.86 720.71,-222.8"/>
</a>
</g>
</g>
<!-- Node6 -->
<g id="Node000006" class="node">
<title>Node6</title>
<g id="a_Node000006"><a xlink:href="main_8cpp.html" target="_top" xlink:title="Main application entry point for Industrial Temperature Monitoring System.">
<polygon fill="white" stroke="#666666" points="342.75,-19.25 270.5,-19.25 270.5,0 342.75,0 342.75,-19.25"/>
<text xml:space="preserve" text-anchor="middle" x="306.62" y="-5.75" font-family="Helvetica,sans-Serif" font-size="10.00">src/main.cpp</text>
</a>
</g>
</g>
<!-- Node1&#45;&gt;Node6 -->
<g id="edge13_Node000001_Node000006" class="edge">
<title>Node1&#45;&gt;Node6</title>
<g id="a_edge13_Node000001_Node000006"><a xlink:title=" ">
<path fill="none" stroke="#63b8ff" d="M802.7,-209.51C805.49,-183.13 805.94,-137.1 780.62,-110.5 720.11,-46.91 443.11,-20.62 342.92,-13.08"/>
<polygon fill="#63b8ff" stroke="#63b8ff" points="799.25,-208.84 801.43,-219.21 806.19,-209.74 799.25,-208.84"/>
</a>
</g>
</g>
<!-- Node11 -->
<g id="Node000011" class="node">
<title>Node11</title>
<g id="a_Node000011"><a xlink:href="_indicator_interface_8cpp.html" target="_top" xlink:title="Implementation of user interface with OLED display and input handling.">
<polygon fill="white" stroke="#666666" points="955.12,-185 828.12,-185 828.12,-165.75 955.12,-165.75 955.12,-185"/>
<text xml:space="preserve" text-anchor="middle" x="891.62" y="-171.5" font-family="Helvetica,sans-Serif" font-size="10.00">src/IndicatorInterface.cpp</text>
</a>
</g>
</g>
<!-- Node1&#45;&gt;Node11 -->
<g id="edge12_Node000001_Node000011" class="edge">
<title>Node1&#45;&gt;Node11</title>
<g id="a_edge12_Node000001_Node000011"><a xlink:title=" ">
<path fill="none" stroke="#63b8ff" d="M824.73,-215.09C841.08,-205.63 861.91,-193.58 875.94,-185.45"/>
<polygon fill="#63b8ff" stroke="#63b8ff" points="823.44,-211.79 816.54,-219.83 826.95,-217.85 823.44,-211.79"/>
</a>
</g>
</g>
<!-- Node3 -->
<g id="Node000003" class="node">
<title>Node3</title>
<g id="a_Node000003"><a xlink:href="_c_s_v_config_manager_8h.html" target="_top" xlink:title="CSV configuration import/export manager for measurement points and alarms.">
<polygon fill="white" stroke="#666666" points="278.75,-129.75 134.5,-129.75 134.5,-110.5 278.75,-110.5 278.75,-129.75"/>
<text xml:space="preserve" text-anchor="middle" x="206.62" y="-116.25" font-family="Helvetica,sans-Serif" font-size="10.00">include/CSVConfigManager.h</text>
</a>
</g>
</g>
<!-- Node2&#45;&gt;Node3 -->
<g id="edge2_Node000002_Node000003" class="edge">
<title>Node2&#45;&gt;Node3</title>
<g id="a_edge2_Node000002_Node000003"><a xlink:title=" ">
<path fill="none" stroke="#63b8ff" d="M350.84,-162.19C316.64,-152.45 269.45,-139.02 238.5,-130.2"/>
<polygon fill="#63b8ff" stroke="#63b8ff" points="349.87,-165.55 360.45,-164.93 351.79,-158.82 349.87,-165.55"/>
</a>
</g>
</g>
<!-- Node4 -->
<g id="Node000004" class="node">
<title>Node4</title>
<g id="a_Node000004"><a xlink:href="_config_manager_8h.html" target="_top" xlink:title="Configuration management system for temperature monitoring device.">
<polygon fill="white" stroke="#666666" points="123.25,-74.5 0,-74.5 0,-55.25 123.25,-55.25 123.25,-74.5"/>
<text xml:space="preserve" text-anchor="middle" x="61.62" y="-61" font-family="Helvetica,sans-Serif" font-size="10.00">include/ConfigManager.h</text>
</a>
</g>
</g>
<!-- Node2&#45;&gt;Node4 -->
<g id="edge7_Node000002_Node000004" class="edge">
<title>Node2&#45;&gt;Node4</title>
<g id="a_edge7_Node000002_Node000004"><a xlink:title=" ">
<path fill="none" stroke="#63b8ff" d="M305.3,-173.17C250.88,-169.24 181.14,-158.28 125.62,-129.75 99.66,-116.4 77.64,-88.73 67.54,-74.6"/>
<polygon fill="#63b8ff" stroke="#63b8ff" points="304.95,-176.65 315.16,-173.81 305.4,-169.67 304.95,-176.65"/>
</a>
</g>
</g>
<!-- Node2&#45;&gt;Node6 -->
<g id="edge11_Node000002_Node000006" class="edge">
<title>Node2&#45;&gt;Node6</title>
<g id="a_edge11_Node000002_Node000006"><a xlink:title=" ">
<path fill="none" stroke="#63b8ff" d="M360.62,-160.05C347.72,-152.81 334.04,-142.75 325.62,-129.75 302.65,-94.23 304.1,-40.59 305.74,-19.55"/>
<polygon fill="#63b8ff" stroke="#63b8ff" points="358.84,-163.07 369.33,-164.56 362.06,-156.86 358.84,-163.07"/>
</a>
</g>
</g>
<!-- Node8 -->
<g id="Node000008" class="node">
<title>Node8</title>
<g id="a_Node000008"><a xlink:href="_logger_manager_8cpp.html" target="_top" xlink:title="Implementation of data logging and event management system.">
<polygon fill="white" stroke="#666666" points="452.25,-129.75 335,-129.75 335,-110.5 452.25,-110.5 452.25,-129.75"/>
<text xml:space="preserve" text-anchor="middle" x="393.62" y="-116.25" font-family="Helvetica,sans-Serif" font-size="10.00">src/LoggerManager.cpp</text>
</a>
</g>
</g>
<!-- Node2&#45;&gt;Node8 -->
<g id="edge8_Node000002_Node000008" class="edge">
<title>Node2&#45;&gt;Node8</title>
<g id="a_edge8_Node000002_Node000008"><a xlink:title=" ">
<path fill="none" stroke="#63b8ff" d="M393.62,-154.13C393.62,-145.84 393.62,-136.67 393.62,-130.11"/>
<polygon fill="#63b8ff" stroke="#63b8ff" points="390.13,-154.07 393.63,-164.07 397.13,-154.07 390.13,-154.07"/>
</a>
</g>
</g>
<!-- Node9 -->
<g id="Node000009" class="node">
<title>Node9</title>
<g id="a_Node000009"><a xlink:href="_temp_modbus_server_8cpp.html" target="_top" xlink:title="Implementation of Modbus RTU server for temperature monitoring.">
<polygon fill="white" stroke="#666666" points="607.38,-129.75 469.88,-129.75 469.88,-110.5 607.38,-110.5 607.38,-129.75"/>
<text xml:space="preserve" text-anchor="middle" x="538.62" y="-116.25" font-family="Helvetica,sans-Serif" font-size="10.00">src/TempModbusServer.cpp</text>
</a>
</g>
</g>
<!-- Node2&#45;&gt;Node9 -->
<g id="edge9_Node000002_Node000009" class="edge">
<title>Node2&#45;&gt;Node9</title>
<g id="a_edge9_Node000002_Node000009"><a xlink:title=" ">
<path fill="none" stroke="#63b8ff" d="M428.89,-161.42C455.22,-151.75 490.54,-138.79 513.91,-130.2"/>
<polygon fill="#63b8ff" stroke="#63b8ff" points="427.82,-158.09 419.64,-164.82 430.24,-164.66 427.82,-158.09"/>
</a>
</g>
</g>
<!-- Node10 -->
<g id="Node000010" class="node">
<title>Node10</title>
<g id="a_Node000010"><a xlink:href="_temperature_controller_8cpp.html" target="_top" xlink:title="Implementation of the central temperature monitoring and control system.">
<polygon fill="white" stroke="#666666" points="771.88,-129.75 625.38,-129.75 625.38,-110.5 771.88,-110.5 771.88,-129.75"/>
<text xml:space="preserve" text-anchor="middle" x="698.62" y="-116.25" font-family="Helvetica,sans-Serif" font-size="10.00">src/TemperatureController.cpp</text>
</a>
</g>
</g>
<!-- Node2&#45;&gt;Node10 -->
<g id="edge10_Node000002_Node000010" class="edge">
<title>Node2&#45;&gt;Node10</title>
<g id="a_edge10_Node000002_Node000010"><a xlink:title=" ">
<path fill="none" stroke="#63b8ff" d="M456.94,-163.32C513.06,-153.52 594.04,-139.38 646.5,-130.23"/>
<polygon fill="#63b8ff" stroke="#63b8ff" points="456.45,-159.85 447.2,-165.02 457.65,-166.75 456.45,-159.85"/>
</a>
</g>
</g>
<!-- Node3&#45;&gt;Node4 -->
<g id="edge3_Node000003_Node000004" class="edge">
<title>Node3&#45;&gt;Node4</title>
<g id="a_edge3_Node000003_Node000004"><a xlink:title=" ">
<path fill="none" stroke="#63b8ff" d="M171.36,-106.17C145.03,-96.5 109.71,-83.54 86.34,-74.95"/>
<polygon fill="#63b8ff" stroke="#63b8ff" points="170.01,-109.41 180.61,-109.57 172.43,-102.84 170.01,-109.41"/>
</a>
</g>
</g>
<!-- Node7 -->
<g id="Node000007" class="node">
<title>Node7</title>
<g id="a_Node000007"><a xlink:href="_c_s_v_config_manager_8cpp.html" target="_top" xlink:title="Implementation of CSV configuration management for measurement points.">
<polygon fill="white" stroke="#666666" points="278.38,-74.5 140.88,-74.5 140.88,-55.25 278.38,-55.25 278.38,-74.5"/>
<text xml:space="preserve" text-anchor="middle" x="209.62" y="-61" font-family="Helvetica,sans-Serif" font-size="10.00">src/CSVConfigManager.cpp</text>
</a>
</g>
</g>
<!-- Node3&#45;&gt;Node7 -->
<g id="edge6_Node000003_Node000007" class="edge">
<title>Node3&#45;&gt;Node7</title>
<g id="a_edge6_Node000003_Node000007"><a xlink:title=" ">
<path fill="none" stroke="#63b8ff" d="M207.77,-98.88C208.23,-90.59 208.75,-81.42 209.12,-74.86"/>
<polygon fill="#63b8ff" stroke="#63b8ff" points="204.27,-98.64 207.21,-108.82 211.26,-99.03 204.27,-98.64"/>
</a>
</g>
</g>
<!-- Node5 -->
<g id="Node000005" class="node">
<title>Node5</title>
<g id="a_Node000005"><a xlink:href="_config_manager_8cpp.html" target="_top" xlink:title="Implementation of web&#45;based configuration management system.">
<polygon fill="white" stroke="#666666" points="119.88,-19.25 3.38,-19.25 3.38,0 119.88,0 119.88,-19.25"/>
<text xml:space="preserve" text-anchor="middle" x="61.62" y="-5.75" font-family="Helvetica,sans-Serif" font-size="10.00">src/ConfigManager.cpp</text>
</a>
</g>
</g>
<!-- Node4&#45;&gt;Node5 -->
<g id="edge4_Node000004_Node000005" class="edge">
<title>Node4&#45;&gt;Node5</title>
<g id="a_edge4_Node000004_Node000005"><a xlink:title=" ">
<path fill="none" stroke="#63b8ff" d="M61.62,-43.63C61.62,-35.34 61.62,-26.17 61.62,-19.61"/>
<polygon fill="#63b8ff" stroke="#63b8ff" points="58.13,-43.57 61.63,-53.57 65.13,-43.57 58.13,-43.57"/>
</a>
</g>
</g>
<!-- Node4&#45;&gt;Node6 -->
<g id="edge5_Node000004_Node000006" class="edge">
<title>Node4&#45;&gt;Node6</title>
<g id="a_edge5_Node000004_Node000006"><a xlink:title=" ">
<path fill="none" stroke="#63b8ff" d="M114.64,-52.35C161.63,-42.14 228.98,-27.5 270.16,-18.55"/>
<polygon fill="#63b8ff" stroke="#63b8ff" points="113.97,-48.92 104.94,-54.46 115.46,-55.76 113.97,-48.92"/>
</a>
</g>
</g>
</g>
</svg>
