<?xml version="1.0" encoding="UTF-8" standalone="no"?>
<!DOCTYPE svg PUBLIC "-//W3C//DTD SVG 1.1//EN"
 "http://www.w3.org/Graphics/SVG/1.1/DTD/svg11.dtd">
<!-- Generated by graphviz version 13.1.0 (20250701.0955)
 -->
<!-- Title: include/LoggerManager.h Pages: 1 -->
<svg width="885pt" height="359pt"
 viewBox="0.00 0.00 885.00 359.00" xmlns="http://www.w3.org/2000/svg" xmlns:xlink="http://www.w3.org/1999/xlink">
<g id="graph0" class="graph" transform="scale(1 1) rotate(0) translate(4 354.75)">
<title>include/LoggerManager.h</title>
<!-- Node1 -->
<g id="Node000001" class="node">
<title>Node1</title>
<g id="a_Node000001"><a xlink:title="Comprehensive data and event logging system for temperature monitoring.">
<polygon fill="#999999" stroke="#666666" points="341,-350.75 217,-350.75 217,-331.5 341,-331.5 341,-350.75"/>
<text xml:space="preserve" text-anchor="middle" x="279" y="-337.25" font-family="Helvetica,sans-Serif" font-size="10.00">include/LoggerManager.h</text>
</a>
</g>
</g>
<!-- Node2 -->
<g id="Node000002" class="node">
<title>Node2</title>
<g id="a_Node000002"><a xlink:href="_alarm_8h.html" target="_top" xlink:title="Alarm management system for temperature monitoring.">
<polygon fill="white" stroke="#666666" points="409.75,-240.25 326.25,-240.25 326.25,-221 409.75,-221 409.75,-240.25"/>
<text xml:space="preserve" text-anchor="middle" x="368" y="-226.75" font-family="Helvetica,sans-Serif" font-size="10.00">include/Alarm.h</text>
</a>
</g>
</g>
<!-- Node1&#45;&gt;Node2 -->
<g id="edge1_Node000001_Node000002" class="edge">
<title>Node1&#45;&gt;Node2</title>
<g id="a_edge1_Node000001_Node000002"><a xlink:title=" ">
<path fill="none" stroke="#63b8ff" d="M293.58,-322.35C312.81,-298.91 345.93,-258.53 360.62,-240.63"/>
<polygon fill="#63b8ff" stroke="#63b8ff" points="290.88,-320.12 287.24,-330.08 296.29,-324.56 290.88,-320.12"/>
</a>
</g>
</g>
<!-- Node5 -->
<g id="Node000005" class="node">
<title>Node5</title>
<g id="a_Node000005"><a xlink:href="_config_manager_8h.html" target="_top" xlink:title="Configuration management system for temperature monitoring device.">
<polygon fill="white" stroke="#666666" points="547.62,-74.5 424.38,-74.5 424.38,-55.25 547.62,-55.25 547.62,-74.5"/>
<text xml:space="preserve" text-anchor="middle" x="486" y="-61" font-family="Helvetica,sans-Serif" font-size="10.00">include/ConfigManager.h</text>
</a>
</g>
</g>
<!-- Node1&#45;&gt;Node5 -->
<g id="edge15_Node000001_Node000005" class="edge">
<title>Node1&#45;&gt;Node5</title>
<g id="a_edge15_Node000001_Node000005"><a xlink:title=" ">
<path fill="none" stroke="#63b8ff" d="M263.01,-322.65C246.14,-302.34 222,-267.08 222,-231.62 222,-231.62 222,-231.62 222,-174.38 222,-87.41 346.07,-68.69 424.1,-65.52"/>
<polygon fill="#63b8ff" stroke="#63b8ff" points="260.16,-324.7 269.35,-329.96 265.44,-320.12 260.16,-324.7"/>
</a>
</g>
</g>
<!-- Node8 -->
<g id="Node000008" class="node">
<title>Node8</title>
<g id="a_Node000008"><a xlink:href="main_8cpp.html" target="_top" xlink:title="Main application entry point for Industrial Temperature Monitoring System.">
<polygon fill="white" stroke="#666666" points="296.12,-19.25 223.88,-19.25 223.88,0 296.12,0 296.12,-19.25"/>
<text xml:space="preserve" text-anchor="middle" x="260" y="-5.75" font-family="Helvetica,sans-Serif" font-size="10.00">src/main.cpp</text>
</a>
</g>
</g>
<!-- Node1&#45;&gt;Node8 -->
<g id="edge34_Node000001_Node000008" class="edge">
<title>Node1&#45;&gt;Node8</title>
<g id="a_edge34_Node000001_Node000008"><a xlink:title=" ">
<path fill="none" stroke="#63b8ff" d="M216.26,-328.76C133.99,-312.04 0,-277.73 0,-231.62 0,-231.62 0,-231.62 0,-119.12 0,-23.38 152.02,-10.62 223.57,-9.92"/>
<polygon fill="#63b8ff" stroke="#63b8ff" points="215.53,-332.18 226.02,-330.71 216.9,-325.32 215.53,-332.18"/>
</a>
</g>
</g>
<!-- Node10 -->
<g id="Node000010" class="node">
<title>Node10</title>
<g id="a_Node000010"><a xlink:href="_logger_manager_8cpp.html" target="_top" xlink:title="Implementation of data logging and event management system.">
<polygon fill="white" stroke="#666666" points="876.62,-129.75 759.38,-129.75 759.38,-110.5 876.62,-110.5 876.62,-129.75"/>
<text xml:space="preserve" text-anchor="middle" x="818" y="-116.25" font-family="Helvetica,sans-Serif" font-size="10.00">src/LoggerManager.cpp</text>
</a>
</g>
</g>
<!-- Node1&#45;&gt;Node10 -->
<g id="edge33_Node000001_Node000010" class="edge">
<title>Node1&#45;&gt;Node10</title>
<g id="a_edge33_Node000001_Node000010"><a xlink:title=" ">
<path fill="none" stroke="#63b8ff" d="M352.37,-338.63C427.01,-335.39 545.29,-325.45 643,-295.5 729.16,-269.09 772.95,-265.73 813,-185 821.9,-167.06 820.76,-142.77 819.29,-129.93"/>
<polygon fill="#63b8ff" stroke="#63b8ff" points="352.59,-335.12 342.74,-339.02 352.87,-342.11 352.59,-335.12"/>
</a>
</g>
</g>
<!-- Node12 -->
<g id="Node000012" class="node">
<title>Node12</title>
<g id="a_Node000012"><a xlink:href="_alarm_8cpp.html" target="_top" xlink:title="Implementation of alarm management system for temperature monitoring.">
<polygon fill="white" stroke="#666666" points="326.38,-185 249.62,-185 249.62,-165.75 326.38,-165.75 326.38,-185"/>
<text xml:space="preserve" text-anchor="middle" x="288" y="-171.5" font-family="Helvetica,sans-Serif" font-size="10.00">src/Alarm.cpp</text>
</a>
</g>
</g>
<!-- Node1&#45;&gt;Node12 -->
<g id="edge32_Node000001_Node000012" class="edge">
<title>Node1&#45;&gt;Node12</title>
<g id="a_edge32_Node000001_Node000012"><a xlink:title=" ">
<path fill="none" stroke="#63b8ff" d="M279.56,-319.83C280.28,-296.11 281.72,-255.68 284,-221 284.82,-208.58 286.18,-194.25 287.08,-185.26"/>
<polygon fill="#63b8ff" stroke="#63b8ff" points="276.07,-319.54 279.27,-329.64 283.06,-319.74 276.07,-319.54"/>
</a>
</g>
</g>
<!-- Node13 -->
<g id="Node000013" class="node">
<title>Node13</title>
<g id="a_Node000013"><a xlink:href="_indicator_interface_8h.html" target="_top" xlink:title="Hardware interface for PCF8575 I/O expander and SH1106 OLED display.">
<polygon fill="white" stroke="#666666" points="193.88,-240.25 60.12,-240.25 60.12,-221 193.88,-221 193.88,-240.25"/>
<text xml:space="preserve" text-anchor="middle" x="127" y="-226.75" font-family="Helvetica,sans-Serif" font-size="10.00">include/IndicatorInterface.h</text>
</a>
</g>
</g>
<!-- Node1&#45;&gt;Node13 -->
<g id="edge16_Node000001_Node000013" class="edge">
<title>Node1&#45;&gt;Node13</title>
<g id="a_edge16_Node000001_Node000013"><a xlink:title=" ">
<path fill="none" stroke="#63b8ff" d="M253.71,-325.13C239.96,-316.76 222.79,-305.93 208,-295.5 181.95,-277.12 152.97,-253.42 137.72,-240.68"/>
<polygon fill="#63b8ff" stroke="#63b8ff" points="251.79,-328.06 262.16,-330.23 255.4,-322.07 251.79,-328.06"/>
</a>
</g>
</g>
<!-- Node15 -->
<g id="Node000015" class="node">
<title>Node15</title>
<g id="a_Node000015"><a xlink:href="_measurement_point_8h.html" target="_top" xlink:title="Measurement point abstraction for temperature monitoring system.">
<polygon fill="white" stroke="#666666" points="633.88,-295.5 494.12,-295.5 494.12,-276.25 633.88,-276.25 633.88,-295.5"/>
<text xml:space="preserve" text-anchor="middle" x="564" y="-282" font-family="Helvetica,sans-Serif" font-size="10.00">include/MeasurementPoint.h</text>
</a>
</g>
</g>
<!-- Node1&#45;&gt;Node15 -->
<g id="edge20_Node000001_Node000015" class="edge">
<title>Node1&#45;&gt;Node15</title>
<g id="a_edge20_Node000001_Node000015"><a xlink:title=" ">
<path fill="none" stroke="#63b8ff" d="M338.84,-328.94C391.34,-319.14 466.73,-305.05 515.53,-295.93"/>
<polygon fill="#63b8ff" stroke="#63b8ff" points="338.34,-325.48 329.16,-330.75 339.63,-332.36 338.34,-325.48"/>
</a>
</g>
</g>
<!-- Node17 -->
<g id="Node000017" class="node">
<title>Node17</title>
<g id="a_Node000017"><a xlink:href="_temp_modbus_server_8h.html" target="_top" xlink:title="Modbus RTU server for temperature monitoring system.">
<polygon fill="white" stroke="#666666" points="489.12,-185 344.88,-185 344.88,-165.75 489.12,-165.75 489.12,-185"/>
<text xml:space="preserve" text-anchor="middle" x="417" y="-171.5" font-family="Helvetica,sans-Serif" font-size="10.00">include/TempModbusServer.h</text>
</a>
</g>
</g>
<!-- Node1&#45;&gt;Node17 -->
<g id="edge31_Node000001_Node000017" class="edge">
<title>Node1&#45;&gt;Node17</title>
<g id="a_edge31_Node000001_Node000017"><a xlink:title=" ">
<path fill="none" stroke="#63b8ff" d="M280.46,-319.8C283.34,-293.89 291.86,-249.09 317,-221 332.97,-203.15 357.45,-192.06 378.19,-185.4"/>
<polygon fill="#63b8ff" stroke="#63b8ff" points="276.99,-319.36 279.57,-329.64 283.96,-319.99 276.99,-319.36"/>
</a>
</g>
</g>
<!-- Node3 -->
<g id="Node000003" class="node">
<title>Node3</title>
<g id="a_Node000003"><a xlink:href="_temperature_controller_8h.html" target="_top" xlink:title="Central temperature monitoring and control system.">
<polygon fill="white" stroke="#666666" points="660.62,-185 507.38,-185 507.38,-165.75 660.62,-165.75 660.62,-185"/>
<text xml:space="preserve" text-anchor="middle" x="584" y="-171.5" font-family="Helvetica,sans-Serif" font-size="10.00">include/TemperatureController.h</text>
</a>
</g>
</g>
<!-- Node2&#45;&gt;Node3 -->
<g id="edge2_Node000002_Node000003" class="edge">
<title>Node2&#45;&gt;Node3</title>
<g id="a_edge2_Node000002_Node000003"><a xlink:title=" ">
<path fill="none" stroke="#63b8ff" d="M415.62,-217.88C455.26,-208.11 510.89,-194.4 547.18,-185.45"/>
<polygon fill="#63b8ff" stroke="#63b8ff" points="414.98,-214.44 406.11,-220.23 416.66,-221.23 414.98,-214.44"/>
</a>
</g>
</g>
<!-- Node2&#45;&gt;Node12 -->
<g id="edge14_Node000002_Node000012" class="edge">
<title>Node2&#45;&gt;Node12</title>
<g id="a_edge14_Node000002_Node000012"><a xlink:title=" ">
<path fill="none" stroke="#63b8ff" d="M344.95,-214.28C330.93,-204.95 313.5,-193.35 301.64,-185.45"/>
<polygon fill="#63b8ff" stroke="#63b8ff" points="342.91,-217.13 353.17,-219.75 346.78,-211.3 342.91,-217.13"/>
</a>
</g>
</g>
<!-- Node4 -->
<g id="Node000004" class="node">
<title>Node4</title>
<g id="a_Node000004"><a xlink:href="_c_s_v_config_manager_8h.html" target="_top" xlink:title="CSV configuration import/export manager for measurement points and alarms.">
<polygon fill="white" stroke="#666666" points="664.12,-129.75 519.88,-129.75 519.88,-110.5 664.12,-110.5 664.12,-129.75"/>
<text xml:space="preserve" text-anchor="middle" x="592" y="-116.25" font-family="Helvetica,sans-Serif" font-size="10.00">include/CSVConfigManager.h</text>
</a>
</g>
</g>
<!-- Node3&#45;&gt;Node4 -->
<g id="edge3_Node000003_Node000004" class="edge">
<title>Node3&#45;&gt;Node4</title>
<g id="a_edge3_Node000003_Node000004"><a xlink:title=" ">
<path fill="none" stroke="#63b8ff" d="M587,-154.42C588.25,-146.05 589.65,-136.75 590.65,-130.11"/>
<polygon fill="#63b8ff" stroke="#63b8ff" points="583.57,-153.68 585.55,-164.09 590.49,-154.72 583.57,-153.68"/>
</a>
</g>
</g>
<!-- Node3&#45;&gt;Node5 -->
<g id="edge9_Node000003_Node000005" class="edge">
<title>Node3&#45;&gt;Node5</title>
<g id="a_edge9_Node000003_Node000005"><a xlink:title=" ">
<path fill="none" stroke="#63b8ff" d="M551.26,-160.23C537.31,-152.84 521.8,-142.63 511,-129.75 497.08,-113.14 490.32,-87.86 487.57,-74.64"/>
<polygon fill="#63b8ff" stroke="#63b8ff" points="549.66,-163.34 560.17,-164.65 552.77,-157.07 549.66,-163.34"/>
</a>
</g>
</g>
<!-- Node7 -->
<g id="Node000007" class="node">
<title>Node7</title>
<g id="a_Node000007"><a xlink:href="_temperature_controller_8cpp.html" target="_top" xlink:title="Implementation of the central temperature monitoring and control system.">
<polygon fill="white" stroke="#666666" points="756.25,-19.25 609.75,-19.25 609.75,0 756.25,0 756.25,-19.25"/>
<text xml:space="preserve" text-anchor="middle" x="683" y="-5.75" font-family="Helvetica,sans-Serif" font-size="10.00">src/TemperatureController.cpp</text>
</a>
</g>
</g>
<!-- Node3&#45;&gt;Node7 -->
<g id="edge12_Node000003_Node000007" class="edge">
<title>Node3&#45;&gt;Node7</title>
<g id="a_edge12_Node000003_Node000007"><a xlink:title=" ">
<path fill="none" stroke="#63b8ff" d="M620.04,-161.13C637.28,-153.65 657.48,-143.1 673,-129.75 695.79,-110.15 702.91,-103.15 712,-74.5 718.48,-54.07 702.35,-31.54 691.63,-19.45"/>
<polygon fill="#63b8ff" stroke="#63b8ff" points="619.06,-157.75 611.16,-164.81 621.74,-164.21 619.06,-157.75"/>
</a>
</g>
</g>
<!-- Node3&#45;&gt;Node8 -->
<g id="edge13_Node000003_Node000008" class="edge">
<title>Node3&#45;&gt;Node8</title>
<g id="a_edge13_Node000003_Node000008"><a xlink:title=" ">
<path fill="none" stroke="#63b8ff" d="M555.79,-160.27C538.28,-151.51 515.32,-140 495,-129.75 413.72,-88.77 316.8,-39.52 277.67,-19.62"/>
<polygon fill="#63b8ff" stroke="#63b8ff" points="554.06,-163.32 564.57,-164.66 557.19,-157.06 554.06,-163.32"/>
</a>
</g>
</g>
<!-- Node3&#45;&gt;Node10 -->
<g id="edge10_Node000003_Node000010" class="edge">
<title>Node3&#45;&gt;Node10</title>
<g id="a_edge10_Node000003_Node000010"><a xlink:title=" ">
<path fill="none" stroke="#63b8ff" d="M635.04,-162.76C678.05,-152.97 738.72,-139.17 778.2,-130.18"/>
<polygon fill="#63b8ff" stroke="#63b8ff" points="634.41,-159.31 625.44,-164.95 635.96,-166.14 634.41,-159.31"/>
</a>
</g>
</g>
<!-- Node11 -->
<g id="Node000011" class="node">
<title>Node11</title>
<g id="a_Node000011"><a xlink:href="_temp_modbus_server_8cpp.html" target="_top" xlink:title="Implementation of Modbus RTU server for temperature monitoring.">
<polygon fill="white" stroke="#666666" points="425.75,-129.75 288.25,-129.75 288.25,-110.5 425.75,-110.5 425.75,-129.75"/>
<text xml:space="preserve" text-anchor="middle" x="357" y="-116.25" font-family="Helvetica,sans-Serif" font-size="10.00">src/TempModbusServer.cpp</text>
</a>
</g>
</g>
<!-- Node3&#45;&gt;Node11 -->
<g id="edge11_Node000003_Node000011" class="edge">
<title>Node3&#45;&gt;Node11</title>
<g id="a_edge11_Node000003_Node000011"><a xlink:title=" ">
<path fill="none" stroke="#63b8ff" d="M534.22,-162.7C492.51,-152.91 433.83,-139.15 395.6,-130.18"/>
<polygon fill="#63b8ff" stroke="#63b8ff" points="533.23,-166.06 543.76,-164.94 534.83,-159.24 533.23,-166.06"/>
</a>
</g>
</g>
<!-- Node4&#45;&gt;Node5 -->
<g id="edge4_Node000004_Node000005" class="edge">
<title>Node4&#45;&gt;Node5</title>
<g id="a_edge4_Node000004_Node000005"><a xlink:title=" ">
<path fill="none" stroke="#63b8ff" d="M563.87,-104.99C544.91,-95.47 520.47,-83.19 504.07,-74.95"/>
<polygon fill="#63b8ff" stroke="#63b8ff" points="562.16,-108.05 572.67,-109.41 565.3,-101.8 562.16,-108.05"/>
</a>
</g>
</g>
<!-- Node9 -->
<g id="Node000009" class="node">
<title>Node9</title>
<g id="a_Node000009"><a xlink:href="_c_s_v_config_manager_8cpp.html" target="_top" xlink:title="Implementation of CSV configuration management for measurement points.">
<polygon fill="white" stroke="#666666" points="702.75,-74.5 565.25,-74.5 565.25,-55.25 702.75,-55.25 702.75,-74.5"/>
<text xml:space="preserve" text-anchor="middle" x="634" y="-61" font-family="Helvetica,sans-Serif" font-size="10.00">src/CSVConfigManager.cpp</text>
</a>
</g>
</g>
<!-- Node4&#45;&gt;Node9 -->
<g id="edge8_Node000004_Node000009" class="edge">
<title>Node4&#45;&gt;Node9</title>
<g id="a_edge8_Node000004_Node000009"><a xlink:title=" ">
<path fill="none" stroke="#63b8ff" d="M605.92,-101.47C612.96,-92.56 621.19,-82.12 626.91,-74.86"/>
<polygon fill="#63b8ff" stroke="#63b8ff" points="603.32,-99.12 599.87,-109.14 608.81,-103.46 603.32,-99.12"/>
</a>
</g>
</g>
<!-- Node6 -->
<g id="Node000006" class="node">
<title>Node6</title>
<g id="a_Node000006"><a xlink:href="_config_manager_8cpp.html" target="_top" xlink:title="Implementation of web&#45;based configuration management system.">
<polygon fill="white" stroke="#666666" points="544.25,-19.25 427.75,-19.25 427.75,0 544.25,0 544.25,-19.25"/>
<text xml:space="preserve" text-anchor="middle" x="486" y="-5.75" font-family="Helvetica,sans-Serif" font-size="10.00">src/ConfigManager.cpp</text>
</a>
</g>
</g>
<!-- Node5&#45;&gt;Node6 -->
<g id="edge5_Node000005_Node000006" class="edge">
<title>Node5&#45;&gt;Node6</title>
<g id="a_edge5_Node000005_Node000006"><a xlink:title=" ">
<path fill="none" stroke="#63b8ff" d="M486,-43.63C486,-35.34 486,-26.17 486,-19.61"/>
<polygon fill="#63b8ff" stroke="#63b8ff" points="482.5,-43.57 486,-53.57 489.5,-43.57 482.5,-43.57"/>
</a>
</g>
</g>
<!-- Node5&#45;&gt;Node7 -->
<g id="edge6_Node000005_Node000007" class="edge">
<title>Node5&#45;&gt;Node7</title>
<g id="a_edge6_Node000005_Node000007"><a xlink:title=" ">
<path fill="none" stroke="#63b8ff" d="M530.13,-51.95C566.24,-42.19 616.53,-28.59 649.42,-19.7"/>
<polygon fill="#63b8ff" stroke="#63b8ff" points="529.62,-48.46 520.88,-54.45 531.45,-55.22 529.62,-48.46"/>
</a>
</g>
</g>
<!-- Node5&#45;&gt;Node8 -->
<g id="edge7_Node000005_Node000008" class="edge">
<title>Node5&#45;&gt;Node8</title>
<g id="a_edge7_Node000005_Node000008"><a xlink:title=" ">
<path fill="none" stroke="#63b8ff" d="M436.27,-52.16C394.07,-42.21 334.5,-28.18 296.56,-19.24"/>
<polygon fill="#63b8ff" stroke="#63b8ff" points="435.4,-55.55 445.93,-54.43 437,-48.73 435.4,-55.55"/>
</a>
</g>
</g>
<!-- Node13&#45;&gt;Node3 -->
<g id="edge17_Node000013_Node000003" class="edge">
<title>Node13&#45;&gt;Node3</title>
<g id="a_edge17_Node000013_Node000003"><a xlink:title=" ">
<path fill="none" stroke="#63b8ff" d="M205.25,-220.51C289.61,-210.68 423.05,-195.13 506.94,-185.35"/>
<polygon fill="#63b8ff" stroke="#63b8ff" points="204.97,-217.02 195.44,-221.65 205.78,-223.97 204.97,-217.02"/>
</a>
</g>
</g>
<!-- Node13&#45;&gt;Node8 -->
<g id="edge19_Node000013_Node000008" class="edge">
<title>Node13&#45;&gt;Node8</title>
<g id="a_edge19_Node000013_Node000008"><a xlink:title=" ">
<path fill="none" stroke="#63b8ff" d="M92.48,-215.83C69.95,-204.53 46.5,-186.98 57,-165.75 95.33,-88.22 193.05,-38.79 237.44,-19.64"/>
<polygon fill="#63b8ff" stroke="#63b8ff" points="90.73,-218.87 101.27,-219.93 93.69,-212.53 90.73,-218.87"/>
</a>
</g>
</g>
<!-- Node14 -->
<g id="Node000014" class="node">
<title>Node14</title>
<g id="a_Node000014"><a xlink:href="_indicator_interface_8cpp.html" target="_top" xlink:title="Implementation of user interface with OLED display and input handling.">
<polygon fill="white" stroke="#666666" points="193.5,-185 66.5,-185 66.5,-165.75 193.5,-165.75 193.5,-185"/>
<text xml:space="preserve" text-anchor="middle" x="130" y="-171.5" font-family="Helvetica,sans-Serif" font-size="10.00">src/IndicatorInterface.cpp</text>
</a>
</g>
</g>
<!-- Node13&#45;&gt;Node14 -->
<g id="edge18_Node000013_Node000014" class="edge">
<title>Node13&#45;&gt;Node14</title>
<g id="a_edge18_Node000013_Node000014"><a xlink:title=" ">
<path fill="none" stroke="#63b8ff" d="M128.14,-209.38C128.61,-201.09 129.12,-191.92 129.49,-185.36"/>
<polygon fill="#63b8ff" stroke="#63b8ff" points="124.65,-209.14 127.58,-219.32 131.64,-209.53 124.65,-209.14"/>
</a>
</g>
</g>
<!-- Node15&#45;&gt;Node2 -->
<g id="edge21_Node000015_Node000002" class="edge">
<title>Node15&#45;&gt;Node2</title>
<g id="a_edge21_Node000015_Node000002"><a xlink:title=" ">
<path fill="none" stroke="#63b8ff" d="M520.09,-272.95C484.17,-263.19 434.13,-249.59 401.41,-240.7"/>
<polygon fill="#63b8ff" stroke="#63b8ff" points="518.72,-276.2 529.29,-275.45 520.56,-269.45 518.72,-276.2"/>
</a>
</g>
</g>
<!-- Node15&#45;&gt;Node3 -->
<g id="edge28_Node000015_Node000003" class="edge">
<title>Node15&#45;&gt;Node3</title>
<g id="a_edge28_Node000015_Node000003"><a xlink:title=" ">
<path fill="none" stroke="#63b8ff" d="M645.24,-275.95C666.8,-269.45 687.74,-258.52 701,-240.25 721.6,-211.88 676.84,-194.72 636.87,-185.43"/>
<polygon fill="#63b8ff" stroke="#63b8ff" points="644.52,-272.52 635.76,-278.49 646.33,-279.29 644.52,-272.52"/>
</a>
</g>
</g>
<!-- Node15&#45;&gt;Node10 -->
<g id="edge29_Node000015_Node000010" class="edge">
<title>Node15&#45;&gt;Node10</title>
<g id="a_edge29_Node000015_Node000010"><a xlink:title=" ">
<path fill="none" stroke="#63b8ff" d="M621.72,-273.18C651.41,-265.93 687.63,-255.12 718,-240.25 755.51,-221.89 768.7,-218.22 794,-185 806.92,-168.04 813.54,-143.35 816.33,-130.19"/>
<polygon fill="#63b8ff" stroke="#63b8ff" points="621.09,-269.73 612.16,-275.43 622.7,-276.54 621.09,-269.73"/>
</a>
</g>
</g>
<!-- Node16 -->
<g id="Node000016" class="node">
<title>Node16</title>
<g id="a_Node000016"><a xlink:href="_register_map_8h.html" target="_top" xlink:title="Modbus register mapping for temperature monitoring system.">
<polygon fill="white" stroke="#666666" points="691.75,-240.25 578.25,-240.25 578.25,-221 691.75,-221 691.75,-240.25"/>
<text xml:space="preserve" text-anchor="middle" x="635" y="-226.75" font-family="Helvetica,sans-Serif" font-size="10.00">include/RegisterMap.h</text>
</a>
</g>
</g>
<!-- Node15&#45;&gt;Node16 -->
<g id="edge22_Node000015_Node000016" class="edge">
<title>Node15&#45;&gt;Node16</title>
<g id="a_edge22_Node000015_Node000016"><a xlink:title=" ">
<path fill="none" stroke="#63b8ff" d="M585.25,-268.94C597.64,-259.64 612.82,-248.26 623.13,-240.52"/>
<polygon fill="#63b8ff" stroke="#63b8ff" points="583.16,-266.13 577.26,-274.93 587.36,-271.73 583.16,-266.13"/>
</a>
</g>
</g>
<!-- Node19 -->
<g id="Node000019" class="node">
<title>Node19</title>
<g id="a_Node000019"><a xlink:href="_measurement_point_8cpp.html" target="_top" xlink:title="Implementation of temperature measurement point management.">
<polygon fill="white" stroke="#666666" points="560.5,-240.25 427.5,-240.25 427.5,-221 560.5,-221 560.5,-240.25"/>
<text xml:space="preserve" text-anchor="middle" x="494" y="-226.75" font-family="Helvetica,sans-Serif" font-size="10.00">src/MeasurementPoint.cpp</text>
</a>
</g>
</g>
<!-- Node15&#45;&gt;Node19 -->
<g id="edge30_Node000015_Node000019" class="edge">
<title>Node15&#45;&gt;Node19</title>
<g id="a_edge30_Node000015_Node000019"><a xlink:title=" ">
<path fill="none" stroke="#63b8ff" d="M543.05,-268.94C530.83,-259.64 515.86,-248.26 505.7,-240.52"/>
<polygon fill="#63b8ff" stroke="#63b8ff" points="540.84,-271.66 550.92,-274.93 545.08,-266.09 540.84,-271.66"/>
</a>
</g>
</g>
<!-- Node16&#45;&gt;Node3 -->
<g id="edge26_Node000016_Node000003" class="edge">
<title>Node16&#45;&gt;Node3</title>
<g id="a_edge26_Node000016_Node000003"><a xlink:title=" ">
<path fill="none" stroke="#63b8ff" d="M618.64,-212.54C609.98,-203.5 599.7,-192.77 592.6,-185.36"/>
<polygon fill="#63b8ff" stroke="#63b8ff" points="616.09,-214.94 625.53,-219.74 621.14,-210.1 616.09,-214.94"/>
</a>
</g>
</g>
<!-- Node16&#45;&gt;Node17 -->
<g id="edge23_Node000016_Node000017" class="edge">
<title>Node16&#45;&gt;Node17</title>
<g id="a_edge23_Node000016_Node000017"><a xlink:title=" ">
<path fill="none" stroke="#63b8ff" d="M586.94,-217.88C546.93,-208.11 490.79,-194.4 454.16,-185.45"/>
<polygon fill="#63b8ff" stroke="#63b8ff" points="586,-221.26 596.55,-220.23 587.67,-214.46 586,-221.26"/>
</a>
</g>
</g>
<!-- Node18 -->
<g id="Node000018" class="node">
<title>Node18</title>
<g id="a_Node000018"><a xlink:href="_register_map_8cpp.html" target="_top" xlink:title="Implementation of Modbus register mapping for temperature monitoring.">
<polygon fill="white" stroke="#666666" points="785.38,-185 678.62,-185 678.62,-165.75 785.38,-165.75 785.38,-185"/>
<text xml:space="preserve" text-anchor="middle" x="732" y="-171.5" font-family="Helvetica,sans-Serif" font-size="10.00">src/RegisterMap.cpp</text>
</a>
</g>
</g>
<!-- Node16&#45;&gt;Node18 -->
<g id="edge27_Node000016_Node000018" class="edge">
<title>Node16&#45;&gt;Node18</title>
<g id="a_edge27_Node000016_Node000018"><a xlink:title=" ">
<path fill="none" stroke="#63b8ff" d="M661.47,-215.09C678.71,-205.63 700.67,-193.58 715.46,-185.45"/>
<polygon fill="#63b8ff" stroke="#63b8ff" points="659.86,-211.98 652.78,-219.86 663.23,-218.12 659.86,-211.98"/>
</a>
</g>
</g>
<!-- Node17&#45;&gt;Node8 -->
<g id="edge25_Node000017_Node000008" class="edge">
<title>Node17&#45;&gt;Node8</title>
<g id="a_edge25_Node000017_Node000008"><a xlink:title=" ">
<path fill="none" stroke="#63b8ff" d="M333.9,-163.24C313.28,-156.63 293.09,-146.2 279,-129.75 251.35,-97.46 255.6,-41.47 258.55,-19.68"/>
<polygon fill="#63b8ff" stroke="#63b8ff" points="332.65,-166.52 343.23,-165.93 334.59,-159.8 332.65,-166.52"/>
</a>
</g>
</g>
<!-- Node17&#45;&gt;Node11 -->
<g id="edge24_Node000017_Node000011" class="edge">
<title>Node17&#45;&gt;Node11</title>
<g id="a_edge24_Node000017_Node000011"><a xlink:title=" ">
<path fill="none" stroke="#63b8ff" d="M398.42,-157.89C388.06,-148.69 375.57,-137.6 367.03,-130.02"/>
<polygon fill="#63b8ff" stroke="#63b8ff" points="395.89,-160.32 405.69,-164.34 400.53,-155.08 395.89,-160.32"/>
</a>
</g>
</g>
</g>
</svg>
