<?xml version="1.0" encoding="UTF-8" standalone="no"?>
<!DOCTYPE svg PUBLIC "-//W3C//DTD SVG 1.1//EN"
 "http://www.w3.org/Graphics/SVG/1.1/DTD/svg11.dtd">
<!-- Generated by graphviz version 13.1.0 (20250701.0955)
 -->
<!-- Title: src/LoggerManager.cpp Pages: 1 -->
<svg width="1171pt" height="359pt"
 viewBox="0.00 0.00 1171.00 359.00" xmlns="http://www.w3.org/2000/svg" xmlns:xlink="http://www.w3.org/1999/xlink">
<g id="graph0" class="graph" transform="scale(1 1) rotate(0) translate(4 354.75)">
<title>src/LoggerManager.cpp</title>
<!-- Node1 -->
<g id="Node000001" class="node">
<title>Node1</title>
<g id="a_Node000001"><a xlink:title="Implementation of data logging and event management system.">
<polygon fill="#999999" stroke="#666666" points="313.88,-350.75 196.62,-350.75 196.62,-331.5 313.88,-331.5 313.88,-350.75"/>
<text xml:space="preserve" text-anchor="middle" x="255.25" y="-337.25" font-family="Helvetica,sans-Serif" font-size="10.00">src/LoggerManager.cpp</text>
</a>
</g>
</g>
<!-- Node2 -->
<g id="Node000002" class="node">
<title>Node2</title>
<g id="a_Node000002"><a xlink:href="_logger_manager_8h.html" target="_top" xlink:title="Comprehensive data and event logging system for temperature monitoring.">
<polygon fill="white" stroke="#666666" points="638.38,-129.75 548.12,-129.75 548.12,-110.5 638.38,-110.5 638.38,-129.75"/>
<text xml:space="preserve" text-anchor="middle" x="593.25" y="-116.25" font-family="Helvetica,sans-Serif" font-size="10.00">LoggerManager.h</text>
</a>
</g>
</g>
<!-- Node1&#45;&gt;Node2 -->
<g id="edge1_Node000001_Node000002" class="edge">
<title>Node1&#45;&gt;Node2</title>
<g id="a_edge1_Node000001_Node000002"><a xlink:title=" ">
<path fill="none" stroke="#63b8ff" d="M257.26,-331.08C264.26,-301.8 290.5,-209.02 350.25,-165.75 379.32,-144.7 474.21,-132.1 536.45,-125.9"/>
<polygon fill="#63b8ff" stroke="#63b8ff" points="536.55,-129.41 546.17,-124.96 535.88,-122.44 536.55,-129.41"/>
</a>
</g>
</g>
<!-- Node14 -->
<g id="Node000014" class="node">
<title>Node14</title>
<g id="a_Node000014"><a xlink:href="_temperature_controller_8h.html" target="_top" xlink:title="Central temperature monitoring and control system.">
<polygon fill="white" stroke="#666666" points="611,-295.5 491.5,-295.5 491.5,-276.25 611,-276.25 611,-295.5"/>
<text xml:space="preserve" text-anchor="middle" x="551.25" y="-282" font-family="Helvetica,sans-Serif" font-size="10.00">TemperatureController.h</text>
</a>
</g>
</g>
<!-- Node1&#45;&gt;Node14 -->
<g id="edge14_Node000001_Node000014" class="edge">
<title>Node1&#45;&gt;Node14</title>
<g id="a_edge14_Node000001_Node000014"><a xlink:title=" ">
<path fill="none" stroke="#63b8ff" d="M305.8,-331.03C356.67,-321.88 435.19,-307.75 489.67,-297.95"/>
<polygon fill="#63b8ff" stroke="#63b8ff" points="490.2,-301.41 499.42,-296.2 488.96,-294.52 490.2,-301.41"/>
</a>
</g>
</g>
<!-- Node19 -->
<g id="Node000019" class="node">
<title>Node19</title>
<g id="a_Node000019"><a xlink:href="_measurement_point_8h.html" target="_top" xlink:title="Measurement point abstraction for temperature monitoring system.">
<polygon fill="white" stroke="#666666" points="531.25,-185 425.25,-185 425.25,-165.75 531.25,-165.75 531.25,-185"/>
<text xml:space="preserve" text-anchor="middle" x="478.25" y="-171.5" font-family="Helvetica,sans-Serif" font-size="10.00">MeasurementPoint.h</text>
</a>
</g>
</g>
<!-- Node1&#45;&gt;Node19 -->
<g id="edge47_Node000001_Node000019" class="edge">
<title>Node1&#45;&gt;Node19</title>
<g id="a_edge47_Node000001_Node000019"><a xlink:title=" ">
<path fill="none" stroke="#63b8ff" d="M266.11,-331.09C290.8,-310.69 353.24,-259.82 408.25,-221 422.98,-210.6 440.03,-199.71 453.62,-191.29"/>
<polygon fill="#63b8ff" stroke="#63b8ff" points="455.26,-194.39 461.95,-186.17 451.59,-188.43 455.26,-194.39"/>
</a>
</g>
</g>
<!-- Node3 -->
<g id="Node000003" class="node">
<title>Node3</title>
<g id="a_Node000003"><a xlink:title=" ">
<polygon fill="#e0e0e0" stroke="#999999" points="566.88,-19.25 509.62,-19.25 509.62,0 566.88,0 566.88,-19.25"/>
<text xml:space="preserve" text-anchor="middle" x="538.25" y="-5.75" font-family="Helvetica,sans-Serif" font-size="10.00">Arduino.h</text>
</a>
</g>
</g>
<!-- Node2&#45;&gt;Node3 -->
<g id="edge2_Node000002_Node000003" class="edge">
<title>Node2&#45;&gt;Node3</title>
<g id="a_edge2_Node000002_Node000003"><a xlink:title=" ">
<path fill="none" stroke="#63b8ff" d="M612.18,-110.09C634.21,-98.31 665.83,-76.68 651.25,-55.25 635.05,-31.43 603.97,-20.32 578.5,-15.15"/>
<polygon fill="#63b8ff" stroke="#63b8ff" points="579.21,-11.72 568.76,-13.42 577.99,-18.61 579.21,-11.72"/>
</a>
</g>
</g>
<!-- Node4 -->
<g id="Node000004" class="node">
<title>Node4</title>
<g id="a_Node000004"><a xlink:title=" ">
<polygon fill="#e0e0e0" stroke="#999999" points="641.75,-74.5 604.75,-74.5 604.75,-55.25 641.75,-55.25 641.75,-74.5"/>
<text xml:space="preserve" text-anchor="middle" x="623.25" y="-61" font-family="Helvetica,sans-Serif" font-size="10.00">FS.h</text>
</a>
</g>
</g>
<!-- Node2&#45;&gt;Node4 -->
<g id="edge3_Node000002_Node000004" class="edge">
<title>Node2&#45;&gt;Node4</title>
<g id="a_edge3_Node000002_Node000004"><a xlink:title=" ">
<path fill="none" stroke="#63b8ff" d="M598.2,-110.33C602.13,-103.36 607.76,-93.37 612.69,-84.62"/>
<polygon fill="#63b8ff" stroke="#63b8ff" points="615.59,-86.61 617.45,-76.18 609.49,-83.17 615.59,-86.61"/>
</a>
</g>
</g>
<!-- Node5 -->
<g id="Node000005" class="node">
<title>Node5</title>
<g id="a_Node000005"><a xlink:title=" ">
<polygon fill="#e0e0e0" stroke="#999999" points="586.5,-74.5 548,-74.5 548,-55.25 586.5,-55.25 586.5,-74.5"/>
<text xml:space="preserve" text-anchor="middle" x="567.25" y="-61" font-family="Helvetica,sans-Serif" font-size="10.00">SD.h</text>
</a>
</g>
</g>
<!-- Node2&#45;&gt;Node5 -->
<g id="edge4_Node000002_Node000005" class="edge">
<title>Node2&#45;&gt;Node5</title>
<g id="a_edge4_Node000002_Node000005"><a xlink:title=" ">
<path fill="none" stroke="#63b8ff" d="M588.96,-110.33C585.63,-103.51 580.89,-93.81 576.69,-85.2"/>
<polygon fill="#63b8ff" stroke="#63b8ff" points="579.83,-83.67 572.3,-76.22 573.54,-86.74 579.83,-83.67"/>
</a>
</g>
</g>
<!-- Node6 -->
<g id="Node000006" class="node">
<title>Node6</title>
<g id="a_Node000006"><a xlink:href="_time_manager_8h.html" target="_top" xlink:title="Real&#45;time clock and time synchronization management.">
<polygon fill="white" stroke="#666666" points="416.62,-74.5 333.88,-74.5 333.88,-55.25 416.62,-55.25 416.62,-74.5"/>
<text xml:space="preserve" text-anchor="middle" x="375.25" y="-61" font-family="Helvetica,sans-Serif" font-size="10.00">TimeManager.h</text>
</a>
</g>
</g>
<!-- Node2&#45;&gt;Node6 -->
<g id="edge5_Node000002_Node000006" class="edge">
<title>Node2&#45;&gt;Node6</title>
<g id="a_edge5_Node000002_Node000006"><a xlink:title=" ">
<path fill="none" stroke="#63b8ff" d="M556.27,-110.09C519.71,-101.16 463.57,-87.45 423.51,-77.66"/>
<polygon fill="#63b8ff" stroke="#63b8ff" points="424.43,-74.28 413.88,-75.31 422.77,-81.08 424.43,-74.28"/>
</a>
</g>
</g>
<!-- Node13 -->
<g id="Node000013" class="node">
<title>Node13</title>
<g id="a_Node000013"><a xlink:title=" ">
<polygon fill="#e0e0e0" stroke="#999999" points="938.75,-74.5 895.75,-74.5 895.75,-55.25 938.75,-55.25 938.75,-74.5"/>
<text xml:space="preserve" text-anchor="middle" x="917.25" y="-61" font-family="Helvetica,sans-Serif" font-size="10.00">vector</text>
</a>
</g>
</g>
<!-- Node2&#45;&gt;Node13 -->
<g id="edge13_Node000002_Node000013" class="edge">
<title>Node2&#45;&gt;Node13</title>
<g id="a_edge13_Node000002_Node000013"><a xlink:title=" ">
<path fill="none" stroke="#63b8ff" d="M638.64,-111.66C704.79,-100.79 826.13,-80.85 884.36,-71.28"/>
<polygon fill="#63b8ff" stroke="#63b8ff" points="884.67,-74.78 893.97,-69.7 883.53,-67.87 884.67,-74.78"/>
</a>
</g>
</g>
<!-- Node6&#45;&gt;Node3 -->
<g id="edge6_Node000006_Node000003" class="edge">
<title>Node6&#45;&gt;Node3</title>
<g id="a_edge6_Node000006_Node000003"><a xlink:title=" ">
<path fill="none" stroke="#63b8ff" d="M402.9,-54.84C429.48,-46.16 469.89,-32.96 499.64,-23.24"/>
<polygon fill="#63b8ff" stroke="#63b8ff" points="500.61,-26.6 509.02,-20.17 498.43,-19.95 500.61,-26.6"/>
</a>
</g>
</g>
<!-- Node7 -->
<g id="Node000007" class="node">
<title>Node7</title>
<g id="a_Node000007"><a xlink:title=" ">
<polygon fill="#e0e0e0" stroke="#999999" points="329.5,-19.25 285,-19.25 285,0 329.5,0 329.5,-19.25"/>
<text xml:space="preserve" text-anchor="middle" x="307.25" y="-5.75" font-family="Helvetica,sans-Serif" font-size="10.00">WiFi.h</text>
</a>
</g>
</g>
<!-- Node6&#45;&gt;Node7 -->
<g id="edge7_Node000006_Node000007" class="edge">
<title>Node6&#45;&gt;Node7</title>
<g id="a_edge7_Node000006_Node000007"><a xlink:title=" ">
<path fill="none" stroke="#63b8ff" d="M363.71,-54.84C353.79,-47.07 339.24,-35.67 327.39,-26.4"/>
<polygon fill="#63b8ff" stroke="#63b8ff" points="329.84,-23.87 319.81,-20.46 325.52,-29.38 329.84,-23.87"/>
</a>
</g>
</g>
<!-- Node8 -->
<g id="Node000008" class="node">
<title>Node8</title>
<g id="a_Node000008"><a xlink:title=" ">
<polygon fill="#e0e0e0" stroke="#999999" points="867.5,-19.25 823,-19.25 823,0 867.5,0 867.5,-19.25"/>
<text xml:space="preserve" text-anchor="middle" x="845.25" y="-5.75" font-family="Helvetica,sans-Serif" font-size="10.00">Wire.h</text>
</a>
</g>
</g>
<!-- Node6&#45;&gt;Node8 -->
<g id="edge8_Node000006_Node000008" class="edge">
<title>Node6&#45;&gt;Node8</title>
<g id="a_edge8_Node000006_Node000008"><a xlink:title=" ">
<path fill="none" stroke="#63b8ff" d="M416.96,-59.15C508.82,-48.74 727.12,-24.01 811.31,-14.47"/>
<polygon fill="#63b8ff" stroke="#63b8ff" points="811.69,-17.95 821.23,-13.35 810.9,-10.99 811.69,-17.95"/>
</a>
</g>
</g>
<!-- Node9 -->
<g id="Node000009" class="node">
<title>Node9</title>
<g id="a_Node000009"><a xlink:title=" ">
<polygon fill="#e0e0e0" stroke="#999999" points="402.75,-19.25 347.75,-19.25 347.75,0 402.75,0 402.75,-19.25"/>
<text xml:space="preserve" text-anchor="middle" x="375.25" y="-5.75" font-family="Helvetica,sans-Serif" font-size="10.00">RTClib.h</text>
</a>
</g>
</g>
<!-- Node6&#45;&gt;Node9 -->
<g id="edge9_Node000006_Node000009" class="edge">
<title>Node6&#45;&gt;Node9</title>
<g id="a_edge9_Node000006_Node000009"><a xlink:title=" ">
<path fill="none" stroke="#63b8ff" d="M375.25,-55.08C375.25,-48.57 375.25,-39.42 375.25,-31.12"/>
<polygon fill="#63b8ff" stroke="#63b8ff" points="378.75,-31.12 375.25,-21.12 371.75,-31.12 378.75,-31.12"/>
</a>
</g>
</g>
<!-- Node10 -->
<g id="Node000010" class="node">
<title>Node10</title>
<g id="a_Node000010"><a xlink:title=" ">
<polygon fill="#e0e0e0" stroke="#999999" points="491.25,-19.25 421.25,-19.25 421.25,0 491.25,0 491.25,-19.25"/>
<text xml:space="preserve" text-anchor="middle" x="456.25" y="-5.75" font-family="Helvetica,sans-Serif" font-size="10.00">NTPClient.h</text>
</a>
</g>
</g>
<!-- Node6&#45;&gt;Node10 -->
<g id="edge10_Node000006_Node000010" class="edge">
<title>Node6&#45;&gt;Node10</title>
<g id="a_edge10_Node000006_Node000010"><a xlink:title=" ">
<path fill="none" stroke="#63b8ff" d="M388.99,-54.84C400.98,-46.96 418.62,-35.36 432.83,-26.02"/>
<polygon fill="#63b8ff" stroke="#63b8ff" points="434.74,-28.95 441.18,-20.53 430.9,-23.1 434.74,-28.95"/>
</a>
</g>
</g>
<!-- Node11 -->
<g id="Node000011" class="node">
<title>Node11</title>
<g id="a_Node000011"><a xlink:title=" ">
<polygon fill="#e0e0e0" stroke="#999999" points="266.5,-19.25 204,-19.25 204,0 266.5,0 266.5,-19.25"/>
<text xml:space="preserve" text-anchor="middle" x="235.25" y="-5.75" font-family="Helvetica,sans-Serif" font-size="10.00">WiFiUdp.h</text>
</a>
</g>
</g>
<!-- Node6&#45;&gt;Node11 -->
<g id="edge11_Node000006_Node000011" class="edge">
<title>Node6&#45;&gt;Node11</title>
<g id="a_edge11_Node000006_Node000011"><a xlink:title=" ">
<path fill="none" stroke="#63b8ff" d="M351.5,-54.84C329.08,-46.31 295.19,-33.42 269.78,-23.76"/>
<polygon fill="#63b8ff" stroke="#63b8ff" points="271.12,-20.52 260.53,-20.24 268.63,-27.07 271.12,-20.52"/>
</a>
</g>
</g>
<!-- Node12 -->
<g id="Node000012" class="node">
<title>Node12</title>
<g id="a_Node000012"><a xlink:title=" ">
<polygon fill="#e0e0e0" stroke="#999999" points="1082.38,-19.25 1004.12,-19.25 1004.12,0 1082.38,0 1082.38,-19.25"/>
<text xml:space="preserve" text-anchor="middle" x="1043.25" y="-5.75" font-family="Helvetica,sans-Serif" font-size="10.00">ArduinoJson.h</text>
</a>
</g>
</g>
<!-- Node6&#45;&gt;Node12 -->
<g id="edge12_Node000006_Node000012" class="edge">
<title>Node6&#45;&gt;Node12</title>
<g id="a_edge12_Node000006_Node000012"><a xlink:title=" ">
<path fill="none" stroke="#63b8ff" d="M417.04,-60.54C534.2,-51.2 865.57,-24.79 992.72,-14.65"/>
<polygon fill="#63b8ff" stroke="#63b8ff" points="992.82,-18.16 1002.51,-13.87 992.26,-11.18 992.82,-18.16"/>
</a>
</g>
</g>
<!-- Node14&#45;&gt;Node3 -->
<g id="edge15_Node000014_Node000003" class="edge">
<title>Node14&#45;&gt;Node3</title>
<g id="a_edge15_Node000014_Node000003"><a xlink:title=" ">
<path fill="none" stroke="#63b8ff" d="M569.11,-275.81C582.71,-268.07 600.97,-255.73 612.25,-240.25 662.77,-170.93 717.01,-125.12 667.25,-55.25 647.29,-27.22 608.46,-16.63 578.6,-12.71"/>
<polygon fill="#63b8ff" stroke="#63b8ff" points="579.07,-9.24 568.75,-11.65 578.31,-16.2 579.07,-9.24"/>
</a>
</g>
</g>
<!-- Node14&#45;&gt;Node12 -->
<g id="edge45_Node000014_Node000012" class="edge">
<title>Node14&#45;&gt;Node12</title>
<g id="a_edge45_Node000014_Node000012"><a xlink:title=" ">
<path fill="none" stroke="#63b8ff" d="M611.33,-280.5C765.52,-268.47 1163.25,-232.05 1163.25,-176.38 1163.25,-176.38 1163.25,-176.38 1163.25,-119.12 1163.25,-72.67 1113.16,-40.96 1077.71,-24.32"/>
<polygon fill="#63b8ff" stroke="#63b8ff" points="1079.18,-21.15 1068.63,-20.26 1076.33,-27.54 1079.18,-21.15"/>
</a>
</g>
</g>
<!-- Node14&#45;&gt;Node13 -->
<g id="edge16_Node000014_Node000013" class="edge">
<title>Node14&#45;&gt;Node13</title>
<g id="a_edge16_Node000014_Node000013"><a xlink:title=" ">
<path fill="none" stroke="#63b8ff" d="M611.41,-279.98C666.92,-274.3 751.1,-262.66 821.25,-240.25 927.75,-206.22 988.05,-224.6 1047.25,-129.75 1071.38,-91.09 996.2,-75.16 950.22,-69.15"/>
<polygon fill="#63b8ff" stroke="#63b8ff" points="950.81,-65.69 940.46,-67.97 949.98,-72.64 950.81,-65.69"/>
</a>
</g>
</g>
<!-- Node15 -->
<g id="Node000015" class="node">
<title>Node15</title>
<g id="a_Node000015"><a xlink:href="_sensor_8h.html" target="_top" xlink:title="Temperature sensor abstraction layer.">
<polygon fill="white" stroke="#666666" points="375.38,-129.75 321.12,-129.75 321.12,-110.5 375.38,-110.5 375.38,-129.75"/>
<text xml:space="preserve" text-anchor="middle" x="348.25" y="-116.25" font-family="Helvetica,sans-Serif" font-size="10.00">Sensor.h</text>
</a>
</g>
</g>
<!-- Node14&#45;&gt;Node15 -->
<g id="edge17_Node000014_Node000015" class="edge">
<title>Node14&#45;&gt;Node15</title>
<g id="a_edge17_Node000014_Node000015"><a xlink:title=" ">
<path fill="none" stroke="#63b8ff" d="M503.6,-275.78C474.65,-268.89 437.73,-257.59 408.25,-240.25 377.57,-222.2 364.78,-217.5 350.25,-185 344.07,-171.18 343.91,-153.96 345.11,-140.88"/>
<polygon fill="#63b8ff" stroke="#63b8ff" points="348.53,-141.72 346.33,-131.35 341.58,-140.83 348.53,-141.72"/>
</a>
</g>
</g>
<!-- Node16 -->
<g id="Node000016" class="node">
<title>Node16</title>
<g id="a_Node000016"><a xlink:title=" ">
<polygon fill="#e0e0e0" stroke="#999999" points="62.5,-74.5 0,-74.5 0,-55.25 62.5,-55.25 62.5,-74.5"/>
<text xml:space="preserve" text-anchor="middle" x="31.25" y="-61" font-family="Helvetica,sans-Serif" font-size="10.00">OneWire.h</text>
</a>
</g>
</g>
<!-- Node14&#45;&gt;Node16 -->
<g id="edge43_Node000014_Node000016" class="edge">
<title>Node14&#45;&gt;Node16</title>
<g id="a_edge43_Node000014_Node000016"><a xlink:title=" ">
<path fill="none" stroke="#63b8ff" d="M491.04,-277.86C446.43,-271.4 384.72,-259.79 333.25,-240.25 220.43,-197.43 100.21,-115.58 52.51,-81.43"/>
<polygon fill="#63b8ff" stroke="#63b8ff" points="54.85,-78.8 44.69,-75.79 50.75,-84.48 54.85,-78.8"/>
</a>
</g>
</g>
<!-- Node17 -->
<g id="Node000017" class="node">
<title>Node17</title>
<g id="a_Node000017"><a xlink:title=" ">
<polygon fill="#e0e0e0" stroke="#999999" points="186.25,-74.5 80.25,-74.5 80.25,-55.25 186.25,-55.25 186.25,-74.5"/>
<text xml:space="preserve" text-anchor="middle" x="133.25" y="-61" font-family="Helvetica,sans-Serif" font-size="10.00">DallasTemperature.h</text>
</a>
</g>
</g>
<!-- Node14&#45;&gt;Node17 -->
<g id="edge44_Node000014_Node000017" class="edge">
<title>Node14&#45;&gt;Node17</title>
<g id="a_edge44_Node000014_Node000017"><a xlink:title=" ">
<path fill="none" stroke="#63b8ff" d="M491.61,-275.82C456.09,-269.01 410.77,-257.78 373.25,-240.25 281.19,-197.25 188.49,-116.97 150.81,-82.4"/>
<polygon fill="#63b8ff" stroke="#63b8ff" points="153.27,-79.91 143.56,-75.68 148.51,-85.04 153.27,-79.91"/>
</a>
</g>
</g>
<!-- Node14&#45;&gt;Node19 -->
<g id="edge22_Node000014_Node000019" class="edge">
<title>Node14&#45;&gt;Node19</title>
<g id="a_edge22_Node000014_Node000019"><a xlink:title=" ">
<path fill="none" stroke="#63b8ff" d="M545.28,-276C533.35,-258.27 506.39,-218.19 490.53,-194.63"/>
<polygon fill="#63b8ff" stroke="#63b8ff" points="493.64,-192.98 485.15,-186.63 487.83,-196.88 493.64,-192.98"/>
</a>
</g>
</g>
<!-- Node20 -->
<g id="Node000020" class="node">
<title>Node20</title>
<g id="a_Node000020"><a xlink:href="_register_map_8h.html" target="_top" xlink:title="Modbus register mapping for temperature monitoring system.">
<polygon fill="white" stroke="#666666" points="497.12,-240.25 417.38,-240.25 417.38,-221 497.12,-221 497.12,-240.25"/>
<text xml:space="preserve" text-anchor="middle" x="457.25" y="-226.75" font-family="Helvetica,sans-Serif" font-size="10.00">RegisterMap.h</text>
</a>
</g>
</g>
<!-- Node14&#45;&gt;Node20 -->
<g id="edge26_Node000014_Node000020" class="edge">
<title>Node14&#45;&gt;Node20</title>
<g id="a_edge26_Node000014_Node000020"><a xlink:title=" ">
<path fill="none" stroke="#63b8ff" d="M535.3,-275.84C520.99,-267.73 499.72,-255.68 483,-246.21"/>
<polygon fill="#63b8ff" stroke="#63b8ff" points="485.02,-243.33 474.59,-241.45 481.57,-249.42 485.02,-243.33"/>
</a>
</g>
</g>
<!-- Node22 -->
<g id="Node000022" class="node">
<title>Node22</title>
<g id="a_Node000022"><a xlink:href="_indicator_interface_8h.html" target="_top" xlink:title="Hardware interface for PCF8575 I/O expander and SH1106 OLED display.">
<polygon fill="white" stroke="#666666" points="892.25,-185 792.25,-185 792.25,-165.75 892.25,-165.75 892.25,-185"/>
<text xml:space="preserve" text-anchor="middle" x="842.25" y="-171.5" font-family="Helvetica,sans-Serif" font-size="10.00">IndicatorInterface.h</text>
</a>
</g>
</g>
<!-- Node14&#45;&gt;Node22 -->
<g id="edge29_Node000014_Node000022" class="edge">
<title>Node14&#45;&gt;Node22</title>
<g id="a_edge29_Node000014_Node000022"><a xlink:title=" ">
<path fill="none" stroke="#63b8ff" d="M611.25,-279.24C673.88,-272.45 767.11,-259.49 797.25,-240.25 814.2,-229.43 826.6,-209.73 834.05,-195.05"/>
<polygon fill="#63b8ff" stroke="#63b8ff" points="837.02,-196.95 838.12,-186.41 830.69,-193.97 837.02,-196.95"/>
</a>
</g>
</g>
<!-- Node27 -->
<g id="Node000027" class="node">
<title>Node27</title>
<g id="a_Node000027"><a xlink:href="_alarm_8h.html" target="_top" xlink:title="Alarm management system for temperature monitoring.">
<polygon fill="white" stroke="#666666" points="603.12,-240.25 553.38,-240.25 553.38,-221 603.12,-221 603.12,-240.25"/>
<text xml:space="preserve" text-anchor="middle" x="578.25" y="-226.75" font-family="Helvetica,sans-Serif" font-size="10.00">Alarm.h</text>
</a>
</g>
</g>
<!-- Node14&#45;&gt;Node27 -->
<g id="edge38_Node000014_Node000027" class="edge">
<title>Node14&#45;&gt;Node27</title>
<g id="a_edge38_Node000014_Node000027"><a xlink:title=" ">
<path fill="none" stroke="#63b8ff" d="M555.71,-276.08C559.2,-269.19 564.2,-259.34 568.6,-250.66"/>
<polygon fill="#63b8ff" stroke="#63b8ff" points="571.61,-252.46 573.01,-241.96 565.37,-249.3 571.61,-252.46"/>
</a>
</g>
</g>
<!-- Node28 -->
<g id="Node000028" class="node">
<title>Node28</title>
<g id="a_Node000028"><a xlink:title=" ">
<polygon fill="#e0e0e0" stroke="#999999" points="788.12,-240.25 732.38,-240.25 732.38,-221 788.12,-221 788.12,-240.25"/>
<text xml:space="preserve" text-anchor="middle" x="760.25" y="-226.75" font-family="Helvetica,sans-Serif" font-size="10.00">algorithm</text>
</a>
</g>
</g>
<!-- Node14&#45;&gt;Node28 -->
<g id="edge46_Node000014_Node000028" class="edge">
<title>Node14&#45;&gt;Node28</title>
<g id="a_edge46_Node000014_Node000028"><a xlink:title=" ">
<path fill="none" stroke="#63b8ff" d="M586.7,-275.84C624.02,-266.34 682.58,-251.41 721.2,-241.58"/>
<polygon fill="#63b8ff" stroke="#63b8ff" points="721.72,-245.05 730.54,-239.19 719.99,-238.27 721.72,-245.05"/>
</a>
</g>
</g>
<!-- Node15&#45;&gt;Node3 -->
<g id="edge18_Node000015_Node000003" class="edge">
<title>Node15&#45;&gt;Node3</title>
<g id="a_edge18_Node000015_Node000003"><a xlink:title=" ">
<path fill="none" stroke="#63b8ff" d="M364.12,-110.06C396.95,-91.31 472.58,-48.12 512.5,-25.33"/>
<polygon fill="#63b8ff" stroke="#63b8ff" points="514.03,-28.49 520.97,-20.49 510.56,-22.41 514.03,-28.49"/>
</a>
</g>
</g>
<!-- Node15&#45;&gt;Node16 -->
<g id="edge19_Node000015_Node000016" class="edge">
<title>Node15&#45;&gt;Node16</title>
<g id="a_edge19_Node000015_Node000016"><a xlink:title=" ">
<path fill="none" stroke="#63b8ff" d="M320.65,-115.17C272.58,-108.18 170.18,-92.82 73.78,-74.89"/>
<polygon fill="#63b8ff" stroke="#63b8ff" points="74.62,-71.49 64.15,-73.09 73.33,-78.37 74.62,-71.49"/>
</a>
</g>
</g>
<!-- Node15&#45;&gt;Node17 -->
<g id="edge20_Node000015_Node000017" class="edge">
<title>Node15&#45;&gt;Node17</title>
<g id="a_edge20_Node000015_Node000017"><a xlink:title=" ">
<path fill="none" stroke="#63b8ff" d="M321.02,-112.38C285.86,-103.67 224.07,-88.37 181.02,-77.71"/>
<polygon fill="#63b8ff" stroke="#63b8ff" points="181.97,-74.34 171.43,-75.33 180.29,-81.13 181.97,-74.34"/>
</a>
</g>
</g>
<!-- Node18 -->
<g id="Node000018" class="node">
<title>Node18</title>
<g id="a_Node000018"><a xlink:title=" ">
<polygon fill="#e0e0e0" stroke="#999999" points="315.88,-74.5 204.62,-74.5 204.62,-55.25 315.88,-55.25 315.88,-74.5"/>
<text xml:space="preserve" text-anchor="middle" x="260.25" y="-61" font-family="Helvetica,sans-Serif" font-size="10.00">Adafruit_MAX31865.h</text>
</a>
</g>
</g>
<!-- Node15&#45;&gt;Node18 -->
<g id="edge21_Node000015_Node000018" class="edge">
<title>Node15&#45;&gt;Node18</title>
<g id="a_edge21_Node000015_Node000018"><a xlink:title=" ">
<path fill="none" stroke="#63b8ff" d="M333.32,-110.09C320.05,-102.06 300.38,-90.16 284.8,-80.73"/>
<polygon fill="#63b8ff" stroke="#63b8ff" points="286.91,-77.92 276.55,-75.74 283.29,-83.91 286.91,-77.92"/>
</a>
</g>
</g>
<!-- Node19&#45;&gt;Node2 -->
<g id="edge25_Node000019_Node000002" class="edge">
<title>Node19&#45;&gt;Node2</title>
<g id="a_edge25_Node000019_Node000002"><a xlink:title=" ">
<path fill="none" stroke="#63b8ff" d="M497.76,-165.34C515.77,-157 542.77,-144.5 563.48,-134.91"/>
<polygon fill="#63b8ff" stroke="#63b8ff" points="564.67,-138.22 572.27,-130.84 561.73,-131.86 564.67,-138.22"/>
</a>
</g>
</g>
<!-- Node19&#45;&gt;Node3 -->
<g id="edge23_Node000019_Node000003" class="edge">
<title>Node19&#45;&gt;Node3</title>
<g id="a_edge23_Node000019_Node000003"><a xlink:title=" ">
<path fill="none" stroke="#63b8ff" d="M479.16,-165.32C481.47,-144.88 488.67,-93.93 506.25,-55.25 510.58,-45.73 517.07,-36.18 523.08,-28.36"/>
<polygon fill="#63b8ff" stroke="#63b8ff" points="525.7,-30.68 529.28,-20.71 520.26,-26.28 525.7,-30.68"/>
</a>
</g>
</g>
<!-- Node19&#45;&gt;Node15 -->
<g id="edge24_Node000019_Node000015" class="edge">
<title>Node19&#45;&gt;Node15</title>
<g id="a_edge24_Node000019_Node000015"><a xlink:title=" ">
<path fill="none" stroke="#63b8ff" d="M456.2,-165.34C435.56,-156.89 404.47,-144.15 380.95,-134.52"/>
<polygon fill="#63b8ff" stroke="#63b8ff" points="382.39,-131.33 371.81,-130.78 379.74,-137.81 382.39,-131.33"/>
</a>
</g>
</g>
<!-- Node20&#45;&gt;Node19 -->
<g id="edge28_Node000020_Node000019" class="edge">
<title>Node20&#45;&gt;Node19</title>
<g id="a_edge28_Node000020_Node000019"><a xlink:title=" ">
<path fill="none" stroke="#63b8ff" d="M460.72,-220.83C463.38,-214.09 467.15,-204.52 470.51,-195.99"/>
<polygon fill="#63b8ff" stroke="#63b8ff" points="473.74,-197.35 474.15,-186.77 467.23,-194.79 473.74,-197.35"/>
</a>
</g>
</g>
<!-- Node21 -->
<g id="Node000021" class="node">
<title>Node21</title>
<g id="a_Node000021"><a xlink:title=" ">
<polygon fill="#e0e0e0" stroke="#999999" points="407.38,-185 359.12,-185 359.12,-165.75 407.38,-165.75 407.38,-185"/>
<text xml:space="preserve" text-anchor="middle" x="383.25" y="-171.5" font-family="Helvetica,sans-Serif" font-size="10.00">stdint.h</text>
</a>
</g>
</g>
<!-- Node20&#45;&gt;Node21 -->
<g id="edge27_Node000020_Node000021" class="edge">
<title>Node20&#45;&gt;Node21</title>
<g id="a_edge27_Node000020_Node000021"><a xlink:title=" ">
<path fill="none" stroke="#63b8ff" d="M444.7,-220.59C433.79,-212.74 417.75,-201.2 404.79,-191.87"/>
<polygon fill="#63b8ff" stroke="#63b8ff" points="407.01,-189.16 396.85,-186.16 402.92,-194.84 407.01,-189.16"/>
</a>
</g>
</g>
<!-- Node22&#45;&gt;Node2 -->
<g id="edge37_Node000022_Node000002" class="edge">
<title>Node22&#45;&gt;Node2</title>
<g id="a_edge37_Node000022_Node000002"><a xlink:title=" ">
<path fill="none" stroke="#63b8ff" d="M799.73,-165.28C757.47,-156.24 692.53,-142.36 646.79,-132.57"/>
<polygon fill="#63b8ff" stroke="#63b8ff" points="647.59,-129.17 637.08,-130.5 646.12,-136.01 647.59,-129.17"/>
</a>
</g>
</g>
<!-- Node22&#45;&gt;Node3 -->
<g id="edge30_Node000022_Node000003" class="edge">
<title>Node22&#45;&gt;Node3</title>
<g id="a_edge30_Node000022_Node000003"><a xlink:title=" ">
<path fill="none" stroke="#63b8ff" d="M817.86,-165.4C800.38,-157.99 777.2,-146.04 761.25,-129.75 735.11,-103.04 751.7,-78.26 722.25,-55.25 680.64,-22.74 618.8,-13.46 578.5,-11.06"/>
<polygon fill="#63b8ff" stroke="#63b8ff" points="578.9,-7.57 568.75,-10.6 578.57,-14.56 578.9,-7.57"/>
</a>
</g>
</g>
<!-- Node22&#45;&gt;Node8 -->
<g id="edge31_Node000022_Node000008" class="edge">
<title>Node22&#45;&gt;Node8</title>
<g id="a_edge31_Node000022_Node000008"><a xlink:title=" ">
<path fill="none" stroke="#63b8ff" d="M892.43,-170.53C946.74,-165.21 1028.17,-153.43 1047.25,-129.75 1097.96,-66.81 948.56,-29.85 878.9,-16.43"/>
<polygon fill="#63b8ff" stroke="#63b8ff" points="879.63,-13 869.16,-14.61 878.35,-19.88 879.63,-13"/>
</a>
</g>
</g>
<!-- Node22&#45;&gt;Node13 -->
<g id="edge36_Node000022_Node000013" class="edge">
<title>Node22&#45;&gt;Node13</title>
<g id="a_edge36_Node000022_Node000013"><a xlink:title=" ">
<path fill="none" stroke="#63b8ff" d="M892.4,-169.42C942.15,-163.35 1013.35,-151.13 1030.25,-129.75 1054.97,-98.48 991.59,-79.93 950.05,-71.45"/>
<polygon fill="#63b8ff" stroke="#63b8ff" points="950.97,-68.06 940.49,-69.61 949.65,-74.93 950.97,-68.06"/>
</a>
</g>
</g>
<!-- Node23 -->
<g id="Node000023" class="node">
<title>Node23</title>
<g id="a_Node000023"><a xlink:title=" ">
<polygon fill="#e0e0e0" stroke="#999999" points="804.62,-129.75 769.88,-129.75 769.88,-110.5 804.62,-110.5 804.62,-129.75"/>
<text xml:space="preserve" text-anchor="middle" x="787.25" y="-116.25" font-family="Helvetica,sans-Serif" font-size="10.00">map</text>
</a>
</g>
</g>
<!-- Node22&#45;&gt;Node23 -->
<g id="edge32_Node000022_Node000023" class="edge">
<title>Node22&#45;&gt;Node23</title>
<g id="a_edge32_Node000022_Node000023"><a xlink:title=" ">
<path fill="none" stroke="#63b8ff" d="M833.17,-165.58C825.41,-158.07 814.04,-147.06 804.55,-137.88"/>
<polygon fill="#63b8ff" stroke="#63b8ff" points="807.24,-135.6 797.62,-131.16 802.37,-140.63 807.24,-135.6"/>
</a>
</g>
</g>
<!-- Node24 -->
<g id="Node000024" class="node">
<title>Node24</title>
<g id="a_Node000024"><a xlink:title=" ">
<polygon fill="#e0e0e0" stroke="#999999" points="862.25,-129.75 822.25,-129.75 822.25,-110.5 862.25,-110.5 862.25,-129.75"/>
<text xml:space="preserve" text-anchor="middle" x="842.25" y="-116.25" font-family="Helvetica,sans-Serif" font-size="10.00">string</text>
</a>
</g>
</g>
<!-- Node22&#45;&gt;Node24 -->
<g id="edge33_Node000022_Node000024" class="edge">
<title>Node22&#45;&gt;Node24</title>
<g id="a_edge33_Node000022_Node000024"><a xlink:title=" ">
<path fill="none" stroke="#63b8ff" d="M842.25,-165.58C842.25,-159.07 842.25,-149.92 842.25,-141.62"/>
<polygon fill="#63b8ff" stroke="#63b8ff" points="845.75,-141.62 842.25,-131.62 838.75,-141.62 845.75,-141.62"/>
</a>
</g>
</g>
<!-- Node25 -->
<g id="Node000025" class="node">
<title>Node25</title>
<g id="a_Node000025"><a xlink:title=" ">
<polygon fill="#e0e0e0" stroke="#999999" points="946,-129.75 880.5,-129.75 880.5,-110.5 946,-110.5 946,-129.75"/>
<text xml:space="preserve" text-anchor="middle" x="913.25" y="-116.25" font-family="Helvetica,sans-Serif" font-size="10.00">PCF8575.h</text>
</a>
</g>
</g>
<!-- Node22&#45;&gt;Node25 -->
<g id="edge34_Node000022_Node000025" class="edge">
<title>Node22&#45;&gt;Node25</title>
<g id="a_edge34_Node000022_Node000025"><a xlink:title=" ">
<path fill="none" stroke="#63b8ff" d="M854.29,-165.34C864.66,-157.57 879.85,-146.17 892.22,-136.9"/>
<polygon fill="#63b8ff" stroke="#63b8ff" points="894.27,-139.73 900.17,-130.93 890.07,-134.13 894.27,-139.73"/>
</a>
</g>
</g>
<!-- Node26 -->
<g id="Node000026" class="node">
<title>Node26</title>
<g id="a_Node000026"><a xlink:title=" ">
<polygon fill="#e0e0e0" stroke="#999999" points="1020.88,-129.75 963.62,-129.75 963.62,-110.5 1020.88,-110.5 1020.88,-129.75"/>
<text xml:space="preserve" text-anchor="middle" x="992.25" y="-116.25" font-family="Helvetica,sans-Serif" font-size="10.00">U8g2lib.h</text>
</a>
</g>
</g>
<!-- Node22&#45;&gt;Node26 -->
<g id="edge35_Node000022_Node000026" class="edge">
<title>Node22&#45;&gt;Node26</title>
<g id="a_edge35_Node000022_Node000026"><a xlink:title=" ">
<path fill="none" stroke="#63b8ff" d="M867.7,-165.34C891.94,-156.74 928.68,-143.69 955.99,-134"/>
<polygon fill="#63b8ff" stroke="#63b8ff" points="957,-137.35 965.25,-130.71 954.66,-130.76 957,-137.35"/>
</a>
</g>
</g>
<!-- Node27&#45;&gt;Node2 -->
<g id="edge42_Node000027_Node000002" class="edge">
<title>Node27&#45;&gt;Node2</title>
<g id="a_edge42_Node000027_Node000002"><a xlink:title=" ">
<path fill="none" stroke="#63b8ff" d="M579.48,-220.75C581.86,-203.5 587.17,-165.08 590.46,-141.31"/>
<polygon fill="#63b8ff" stroke="#63b8ff" points="593.9,-142.01 591.8,-131.63 586.96,-141.05 593.9,-142.01"/>
</a>
</g>
</g>
<!-- Node27&#45;&gt;Node3 -->
<g id="edge39_Node000027_Node000003" class="edge">
<title>Node27&#45;&gt;Node3</title>
<g id="a_edge39_Node000027_Node000003"><a xlink:title=" ">
<path fill="none" stroke="#63b8ff" d="M573.42,-220.6C564.57,-203.48 546.01,-164.84 539.25,-129.75 532.68,-95.65 534.3,-55.04 536.19,-31.12"/>
<polygon fill="#63b8ff" stroke="#63b8ff" points="539.67,-31.48 537.08,-21.21 532.7,-30.85 539.67,-31.48"/>
</a>
</g>
</g>
<!-- Node27&#45;&gt;Node13 -->
<g id="edge40_Node000027_Node000013" class="edge">
<title>Node27&#45;&gt;Node13</title>
<g id="a_edge40_Node000027_Node000013"><a xlink:title=" ">
<path fill="none" stroke="#63b8ff" d="M589.53,-220.53C617.19,-198.63 691.23,-142.43 761.25,-110.5 801.88,-91.97 852.01,-79.28 884.3,-72.3"/>
<polygon fill="#63b8ff" stroke="#63b8ff" points="884.78,-75.77 893.85,-70.3 883.35,-68.92 884.78,-75.77"/>
</a>
</g>
</g>
<!-- Node27&#45;&gt;Node19 -->
<g id="edge41_Node000027_Node000019" class="edge">
<title>Node27&#45;&gt;Node19</title>
<g id="a_edge41_Node000027_Node000019"><a xlink:title=" ">
<path fill="none" stroke="#63b8ff" d="M561.29,-220.59C545.99,-212.44 523.22,-200.32 505.39,-190.83"/>
<polygon fill="#63b8ff" stroke="#63b8ff" points="507.1,-187.77 496.63,-186.16 503.81,-193.95 507.1,-187.77"/>
</a>
</g>
</g>
</g>
</svg>
