<?xml version="1.0" encoding="UTF-8" standalone="no"?>
<!DOCTYPE svg PUBLIC "-//W3C//DTD SVG 1.1//EN"
 "http://www.w3.org/Graphics/SVG/1.1/DTD/svg11.dtd">
<!-- Generated by graphviz version 13.1.0 (20250701.0955)
 -->
<!-- Title: include/LoggerManager.h Pages: 1 -->
<svg width="945pt" height="359pt"
 viewBox="0.00 0.00 945.00 359.00" xmlns="http://www.w3.org/2000/svg" xmlns:xlink="http://www.w3.org/1999/xlink">
<g id="graph0" class="graph" transform="scale(1 1) rotate(0) translate(4 354.75)">
<title>include/LoggerManager.h</title>
<!-- Node1 -->
<g id="Node000001" class="node">
<title>Node1</title>
<g id="a_Node000001"><a xlink:title="Comprehensive data and event logging system for temperature monitoring.">
<polygon fill="#999999" stroke="#666666" points="737.19,-350.75 613.19,-350.75 613.19,-331.5 737.19,-331.5 737.19,-350.75"/>
<text xml:space="preserve" text-anchor="middle" x="675.19" y="-337.25" font-family="Helvetica,sans-Serif" font-size="10.00">include/LoggerManager.h</text>
</a>
</g>
</g>
<!-- Node2 -->
<g id="Node000002" class="node">
<title>Node2</title>
<g id="a_Node000002"><a xlink:href="_alarm_8h.html" target="_top" xlink:title="Alarm management system for temperature monitoring.">
<polygon fill="white" stroke="#666666" points="782.94,-240.25 699.44,-240.25 699.44,-221 782.94,-221 782.94,-240.25"/>
<text xml:space="preserve" text-anchor="middle" x="741.19" y="-226.75" font-family="Helvetica,sans-Serif" font-size="10.00">include/Alarm.h</text>
</a>
</g>
</g>
<!-- Node1&#45;&gt;Node2 -->
<g id="edge1_Node000001_Node000002" class="edge">
<title>Node1&#45;&gt;Node2</title>
<g id="a_edge1_Node000001_Node000002"><a xlink:title=" ">
<path fill="none" stroke="#63b8ff" d="M686.39,-321.72C700.7,-298.19 724.92,-258.37 735.72,-240.63"/>
<polygon fill="#63b8ff" stroke="#63b8ff" points="683.59,-319.59 681.38,-329.95 689.57,-323.23 683.59,-319.59"/>
</a>
</g>
</g>
<!-- Node5 -->
<g id="Node000005" class="node">
<title>Node5</title>
<g id="a_Node000005"><a xlink:href="_config_manager_8h.html" target="_top" xlink:title="Configuration management system for temperature monitoring device.">
<polygon fill="white" stroke="#666666" points="765.82,-74.5 642.57,-74.5 642.57,-55.25 765.82,-55.25 765.82,-74.5"/>
<text xml:space="preserve" text-anchor="middle" x="704.19" y="-61" font-family="Helvetica,sans-Serif" font-size="10.00">include/ConfigManager.h</text>
</a>
</g>
</g>
<!-- Node1&#45;&gt;Node5 -->
<g id="edge13_Node000001_Node000005" class="edge">
<title>Node1&#45;&gt;Node5</title>
<g id="a_edge13_Node000001_Node000005"><a xlink:title=" ">
<path fill="none" stroke="#63b8ff" d="M748.51,-339.58C825.71,-334.67 936.19,-313.36 936.19,-231.62 936.19,-231.62 936.19,-231.62 936.19,-174.38 936.19,-144.76 938.98,-130.56 917.19,-110.5 895.48,-90.51 820.92,-78.3 766.12,-71.81"/>
<polygon fill="#63b8ff" stroke="#63b8ff" points="748.68,-336.06 738.89,-340.11 749.06,-343.05 748.68,-336.06"/>
</a>
</g>
</g>
<!-- Node7 -->
<g id="Node000007" class="node">
<title>Node7</title>
<g id="a_Node000007"><a xlink:href="main_8cpp.html" target="_top" xlink:title="Main application entry point for Industrial Temperature Monitoring System.">
<polygon fill="white" stroke="#666666" points="396.32,-19.25 324.07,-19.25 324.07,0 396.32,0 396.32,-19.25"/>
<text xml:space="preserve" text-anchor="middle" x="360.19" y="-5.75" font-family="Helvetica,sans-Serif" font-size="10.00">src/main.cpp</text>
</a>
</g>
</g>
<!-- Node1&#45;&gt;Node7 -->
<g id="edge32_Node000001_Node000007" class="edge">
<title>Node1&#45;&gt;Node7</title>
<g id="a_edge32_Node000001_Node000007"><a xlink:title=" ">
<path fill="none" stroke="#63b8ff" d="M601.63,-334.63C545.56,-328.9 467.04,-317.53 401.19,-295.5 301.18,-262.03 250.51,-272.21 191.19,-185 172.51,-157.53 168.51,-139.23 185.19,-110.5 214.88,-59.38 281.64,-32.23 323.58,-19.68"/>
<polygon fill="#63b8ff" stroke="#63b8ff" points="601.08,-338.09 611.38,-335.59 601.77,-331.13 601.08,-338.09"/>
</a>
</g>
</g>
<!-- Node9 -->
<g id="Node000009" class="node">
<title>Node9</title>
<g id="a_Node000009"><a xlink:href="_logger_manager_8cpp.html" target="_top" xlink:title="Implementation of data logging and event management system.">
<polygon fill="white" stroke="#666666" points="907.82,-129.75 790.57,-129.75 790.57,-110.5 907.82,-110.5 907.82,-129.75"/>
<text xml:space="preserve" text-anchor="middle" x="849.19" y="-116.25" font-family="Helvetica,sans-Serif" font-size="10.00">src/LoggerManager.cpp</text>
</a>
</g>
</g>
<!-- Node1&#45;&gt;Node9 -->
<g id="edge31_Node000001_Node000009" class="edge">
<title>Node1&#45;&gt;Node9</title>
<g id="a_edge31_Node000001_Node000009"><a xlink:title=" ">
<path fill="none" stroke="#63b8ff" d="M716.03,-326.99C734.29,-319.72 755.25,-309.32 771.19,-295.5 824.82,-249.01 843.29,-158.39 847.91,-129.91"/>
<polygon fill="#63b8ff" stroke="#63b8ff" points="714.9,-323.68 706.78,-330.48 717.37,-330.23 714.9,-323.68"/>
</a>
</g>
</g>
<!-- Node11 -->
<g id="Node000011" class="node">
<title>Node11</title>
<g id="a_Node000011"><a xlink:href="_alarm_8cpp.html" target="_top" xlink:title="Implementation of alarm management system for temperature monitoring.">
<polygon fill="white" stroke="#666666" points="800.57,-185 723.82,-185 723.82,-165.75 800.57,-165.75 800.57,-185"/>
<text xml:space="preserve" text-anchor="middle" x="762.19" y="-171.5" font-family="Helvetica,sans-Serif" font-size="10.00">src/Alarm.cpp</text>
</a>
</g>
</g>
<!-- Node1&#45;&gt;Node11 -->
<g id="edge30_Node000001_Node000011" class="edge">
<title>Node1&#45;&gt;Node11</title>
<g id="a_edge30_Node000001_Node000011"><a xlink:title=" ">
<path fill="none" stroke="#63b8ff" d="M703.09,-325.81C731.52,-309.46 773.96,-279.78 792.19,-240.25 801.22,-220.67 783.66,-197.82 771.8,-185.45"/>
<polygon fill="#63b8ff" stroke="#63b8ff" points="701.69,-322.58 694.64,-330.49 705.08,-328.7 701.69,-322.58"/>
</a>
</g>
</g>
<!-- Node12 -->
<g id="Node000012" class="node">
<title>Node12</title>
<g id="a_Node000012"><a xlink:href="_indicator_interface_8h.html" target="_top" xlink:title="Hardware interface for PCF8575 I/O expander and SH1106 OLED display.">
<polygon fill="white" stroke="#666666" points="140.07,-240.25 6.32,-240.25 6.32,-221 140.07,-221 140.07,-240.25"/>
<text xml:space="preserve" text-anchor="middle" x="73.19" y="-226.75" font-family="Helvetica,sans-Serif" font-size="10.00">include/IndicatorInterface.h</text>
</a>
</g>
</g>
<!-- Node1&#45;&gt;Node12 -->
<g id="edge14_Node000001_Node000012" class="edge">
<title>Node1&#45;&gt;Node12</title>
<g id="a_edge14_Node000001_Node000012"><a xlink:title=" ">
<path fill="none" stroke="#63b8ff" d="M601.49,-339C477.66,-336.25 233.6,-326.9 154.19,-295.5 123.22,-283.25 94.49,-255.08 81.1,-240.59"/>
<polygon fill="#63b8ff" stroke="#63b8ff" points="601.14,-342.49 611.21,-339.21 601.29,-335.5 601.14,-342.49"/>
</a>
</g>
</g>
<!-- Node14 -->
<g id="Node000014" class="node">
<title>Node14</title>
<g id="a_Node000014"><a xlink:href="_measurement_point_8h.html" target="_top" xlink:title="Measurement point abstraction for temperature monitoring system.">
<polygon fill="white" stroke="#666666" points="663.07,-295.5 523.32,-295.5 523.32,-276.25 663.07,-276.25 663.07,-295.5"/>
<text xml:space="preserve" text-anchor="middle" x="593.19" y="-282" font-family="Helvetica,sans-Serif" font-size="10.00">include/MeasurementPoint.h</text>
</a>
</g>
</g>
<!-- Node1&#45;&gt;Node14 -->
<g id="edge18_Node000001_Node000014" class="edge">
<title>Node1&#45;&gt;Node14</title>
<g id="a_edge18_Node000001_Node000014"><a xlink:title=" ">
<path fill="none" stroke="#63b8ff" d="M651.98,-325.05C637.54,-315.67 619.44,-303.92 607.17,-295.95"/>
<polygon fill="#63b8ff" stroke="#63b8ff" points="649.72,-327.76 660.01,-330.27 653.53,-321.89 649.72,-327.76"/>
</a>
</g>
</g>
<!-- Node16 -->
<g id="Node000016" class="node">
<title>Node16</title>
<g id="a_Node000016"><a xlink:href="_temp_modbus_server_8h.html" target="_top" xlink:title="Modbus RTU server for temperature monitoring system.">
<polygon fill="white" stroke="#666666" points="344.32,-185 200.07,-185 200.07,-165.75 344.32,-165.75 344.32,-185"/>
<text xml:space="preserve" text-anchor="middle" x="272.19" y="-171.5" font-family="Helvetica,sans-Serif" font-size="10.00">include/TempModbusServer.h</text>
</a>
</g>
</g>
<!-- Node1&#45;&gt;Node16 -->
<g id="edge29_Node000001_Node000016" class="edge">
<title>Node1&#45;&gt;Node16</title>
<g id="a_edge29_Node000001_Node000016"><a xlink:title=" ">
<path fill="none" stroke="#63b8ff" d="M602.01,-331.04C528.64,-319.26 414.73,-293.56 330.19,-240.25 306.88,-225.55 287.12,-198.98 277.84,-185.2"/>
<polygon fill="#63b8ff" stroke="#63b8ff" points="601.06,-334.43 611.48,-332.51 602.14,-327.51 601.06,-334.43"/>
</a>
</g>
</g>
<!-- Node3 -->
<g id="Node000003" class="node">
<title>Node3</title>
<g id="a_Node000003"><a xlink:href="_temperature_controller_8h.html" target="_top" xlink:title="Central temperature monitoring and control system.">
<polygon fill="white" stroke="#666666" points="640.82,-185 487.57,-185 487.57,-165.75 640.82,-165.75 640.82,-185"/>
<text xml:space="preserve" text-anchor="middle" x="564.19" y="-171.5" font-family="Helvetica,sans-Serif" font-size="10.00">include/TemperatureController.h</text>
</a>
</g>
</g>
<!-- Node2&#45;&gt;Node3 -->
<g id="edge2_Node000002_Node000003" class="edge">
<title>Node2&#45;&gt;Node3</title>
<g id="a_edge2_Node000002_Node000003"><a xlink:title=" ">
<path fill="none" stroke="#63b8ff" d="M700.28,-217.32C667.94,-207.59 623.53,-194.23 594.37,-185.45"/>
<polygon fill="#63b8ff" stroke="#63b8ff" points="699.13,-220.63 709.72,-220.16 701.15,-213.92 699.13,-220.63"/>
</a>
</g>
</g>
<!-- Node2&#45;&gt;Node11 -->
<g id="edge12_Node000002_Node000011" class="edge">
<title>Node2&#45;&gt;Node11</title>
<g id="a_edge12_Node000002_Node000011"><a xlink:title=" ">
<path fill="none" stroke="#63b8ff" d="M748.83,-210.25C752.19,-201.74 755.97,-192.15 758.65,-185.36"/>
<polygon fill="#63b8ff" stroke="#63b8ff" points="745.63,-208.84 745.22,-219.42 752.14,-211.41 745.63,-208.84"/>
</a>
</g>
</g>
<!-- Node4 -->
<g id="Node000004" class="node">
<title>Node4</title>
<g id="a_Node000004"><a xlink:href="_c_s_v_config_manager_8h.html" target="_top" xlink:title="CSV configuration import/export manager for measurement points and alarms.">
<polygon fill="white" stroke="#666666" points="570.32,-129.75 426.07,-129.75 426.07,-110.5 570.32,-110.5 570.32,-129.75"/>
<text xml:space="preserve" text-anchor="middle" x="498.19" y="-116.25" font-family="Helvetica,sans-Serif" font-size="10.00">include/CSVConfigManager.h</text>
</a>
</g>
</g>
<!-- Node3&#45;&gt;Node4 -->
<g id="edge3_Node000003_Node000004" class="edge">
<title>Node3&#45;&gt;Node4</title>
<g id="a_edge3_Node000003_Node000004"><a xlink:title=" ">
<path fill="none" stroke="#63b8ff" d="M544.1,-158.16C532.64,-148.92 518.71,-137.68 509.22,-130.02"/>
<polygon fill="#63b8ff" stroke="#63b8ff" points="541.84,-160.84 551.82,-164.39 546.23,-155.39 541.84,-160.84"/>
</a>
</g>
</g>
<!-- Node3&#45;&gt;Node5 -->
<g id="edge8_Node000003_Node000005" class="edge">
<title>Node3&#45;&gt;Node5</title>
<g id="a_edge8_Node000003_Node000005"><a xlink:title=" ">
<path fill="none" stroke="#63b8ff" d="M648.72,-163.39C689,-156.25 731.03,-145.32 743.19,-129.75 757.43,-111.53 733.01,-87.76 716.81,-74.98"/>
<polygon fill="#63b8ff" stroke="#63b8ff" points="648.2,-159.93 638.93,-165.06 649.37,-166.83 648.2,-159.93"/>
</a>
</g>
</g>
<!-- Node3&#45;&gt;Node7 -->
<g id="edge11_Node000003_Node000007" class="edge">
<title>Node3&#45;&gt;Node7</title>
<g id="a_edge11_Node000003_Node000007"><a xlink:title=" ">
<path fill="none" stroke="#63b8ff" d="M483.04,-162.47C459.77,-155.89 435.71,-145.65 417.19,-129.75 399.02,-114.14 372.53,-44.62 363.41,-19.62"/>
<polygon fill="#63b8ff" stroke="#63b8ff" points="482,-165.82 492.55,-164.96 483.76,-159.04 482,-165.82"/>
</a>
</g>
</g>
<!-- Node3&#45;&gt;Node9 -->
<g id="edge9_Node000003_Node000009" class="edge">
<title>Node3&#45;&gt;Node9</title>
<g id="a_edge9_Node000003_Node000009"><a xlink:title=" ">
<path fill="none" stroke="#63b8ff" d="M624.03,-163.19C676.53,-153.39 751.92,-139.3 800.72,-130.18"/>
<polygon fill="#63b8ff" stroke="#63b8ff" points="623.54,-159.73 614.35,-165 624.82,-166.61 623.54,-159.73"/>
</a>
</g>
</g>
<!-- Node10 -->
<g id="Node000010" class="node">
<title>Node10</title>
<g id="a_Node000010"><a xlink:href="_temperature_controller_8cpp.html" target="_top" xlink:title="Implementation of the central temperature monitoring and control system.">
<polygon fill="white" stroke="#666666" points="734.44,-129.75 587.94,-129.75 587.94,-110.5 734.44,-110.5 734.44,-129.75"/>
<text xml:space="preserve" text-anchor="middle" x="661.19" y="-116.25" font-family="Helvetica,sans-Serif" font-size="10.00">src/TemperatureController.cpp</text>
</a>
</g>
</g>
<!-- Node3&#45;&gt;Node10 -->
<g id="edge10_Node000003_Node000010" class="edge">
<title>Node3&#45;&gt;Node10</title>
<g id="a_edge10_Node000003_Node000010"><a xlink:title=" ">
<path fill="none" stroke="#63b8ff" d="M590.67,-159.84C607.91,-150.38 629.86,-138.33 644.66,-130.2"/>
<polygon fill="#63b8ff" stroke="#63b8ff" points="589.06,-156.73 581.97,-164.61 592.42,-162.87 589.06,-156.73"/>
</a>
</g>
</g>
<!-- Node4&#45;&gt;Node5 -->
<g id="edge4_Node000004_Node000005" class="edge">
<title>Node4&#45;&gt;Node5</title>
<g id="a_edge4_Node000004_Node000005"><a xlink:title=" ">
<path fill="none" stroke="#63b8ff" d="M543.85,-107.32C581.64,-97.55 634.54,-83.88 669.08,-74.95"/>
<polygon fill="#63b8ff" stroke="#63b8ff" points="543.41,-103.82 534.6,-109.71 545.16,-110.6 543.41,-103.82"/>
</a>
</g>
</g>
<!-- Node8 -->
<g id="Node000008" class="node">
<title>Node8</title>
<g id="a_Node000008"><a xlink:href="_c_s_v_config_manager_8cpp.html" target="_top" xlink:title="Implementation of CSV configuration management for measurement points.">
<polygon fill="white" stroke="#666666" points="566.94,-74.5 429.44,-74.5 429.44,-55.25 566.94,-55.25 566.94,-74.5"/>
<text xml:space="preserve" text-anchor="middle" x="498.19" y="-61" font-family="Helvetica,sans-Serif" font-size="10.00">src/CSVConfigManager.cpp</text>
</a>
</g>
</g>
<!-- Node4&#45;&gt;Node8 -->
<g id="edge7_Node000004_Node000008" class="edge">
<title>Node4&#45;&gt;Node8</title>
<g id="a_edge7_Node000004_Node000008"><a xlink:title=" ">
<path fill="none" stroke="#63b8ff" d="M498.19,-98.88C498.19,-90.59 498.19,-81.42 498.19,-74.86"/>
<polygon fill="#63b8ff" stroke="#63b8ff" points="494.69,-98.82 498.19,-108.82 501.69,-98.82 494.69,-98.82"/>
</a>
</g>
</g>
<!-- Node6 -->
<g id="Node000006" class="node">
<title>Node6</title>
<g id="a_Node000006"><a xlink:href="_config_manager_8cpp.html" target="_top" xlink:title="Implementation of web&#45;based configuration management system.">
<polygon fill="white" stroke="#666666" points="762.44,-19.25 645.94,-19.25 645.94,0 762.44,0 762.44,-19.25"/>
<text xml:space="preserve" text-anchor="middle" x="704.19" y="-5.75" font-family="Helvetica,sans-Serif" font-size="10.00">src/ConfigManager.cpp</text>
</a>
</g>
</g>
<!-- Node5&#45;&gt;Node6 -->
<g id="edge5_Node000005_Node000006" class="edge">
<title>Node5&#45;&gt;Node6</title>
<g id="a_edge5_Node000005_Node000006"><a xlink:title=" ">
<path fill="none" stroke="#63b8ff" d="M704.19,-43.63C704.19,-35.34 704.19,-26.17 704.19,-19.61"/>
<polygon fill="#63b8ff" stroke="#63b8ff" points="700.69,-43.57 704.19,-53.57 707.69,-43.57 700.69,-43.57"/>
</a>
</g>
</g>
<!-- Node5&#45;&gt;Node7 -->
<g id="edge6_Node000005_Node000007" class="edge">
<title>Node5&#45;&gt;Node7</title>
<g id="a_edge6_Node000005_Node000007"><a xlink:title=" ">
<path fill="none" stroke="#63b8ff" d="M634.22,-53.04C562.21,-41.9 452.81,-24.96 396.5,-16.25"/>
<polygon fill="#63b8ff" stroke="#63b8ff" points="633.53,-56.48 643.95,-54.55 634.6,-49.56 633.53,-56.48"/>
</a>
</g>
</g>
<!-- Node12&#45;&gt;Node3 -->
<g id="edge15_Node000012_Node000003" class="edge">
<title>Node12&#45;&gt;Node3</title>
<g id="a_edge15_Node000012_Node000003"><a xlink:title=" ">
<path fill="none" stroke="#63b8ff" d="M151.65,-221.12C243.83,-211.12 395.77,-194.64 487.27,-184.72"/>
<polygon fill="#63b8ff" stroke="#63b8ff" points="151.5,-217.61 141.94,-222.17 152.26,-224.57 151.5,-217.61"/>
</a>
</g>
</g>
<!-- Node12&#45;&gt;Node7 -->
<g id="edge17_Node000012_Node000007" class="edge">
<title>Node12&#45;&gt;Node7</title>
<g id="a_edge17_Node000012_Node000007"><a xlink:title=" ">
<path fill="none" stroke="#63b8ff" d="M38.58,-215.78C16.01,-204.46 -7.46,-186.9 3.19,-165.75 63.58,-45.78 245.38,-18.59 323.68,-12.43"/>
<polygon fill="#63b8ff" stroke="#63b8ff" points="36.85,-218.84 47.4,-219.9 39.81,-212.5 36.85,-218.84"/>
</a>
</g>
</g>
<!-- Node13 -->
<g id="Node000013" class="node">
<title>Node13</title>
<g id="a_Node000013"><a xlink:href="_indicator_interface_8cpp.html" target="_top" xlink:title="Implementation of user interface with OLED display and input handling.">
<polygon fill="white" stroke="#666666" points="139.69,-185 12.69,-185 12.69,-165.75 139.69,-165.75 139.69,-185"/>
<text xml:space="preserve" text-anchor="middle" x="76.19" y="-171.5" font-family="Helvetica,sans-Serif" font-size="10.00">src/IndicatorInterface.cpp</text>
</a>
</g>
</g>
<!-- Node12&#45;&gt;Node13 -->
<g id="edge16_Node000012_Node000013" class="edge">
<title>Node12&#45;&gt;Node13</title>
<g id="a_edge16_Node000012_Node000013"><a xlink:title=" ">
<path fill="none" stroke="#63b8ff" d="M74.33,-209.38C74.8,-201.09 75.32,-191.92 75.69,-185.36"/>
<polygon fill="#63b8ff" stroke="#63b8ff" points="70.84,-209.14 73.77,-219.32 77.83,-209.53 70.84,-209.14"/>
</a>
</g>
</g>
<!-- Node14&#45;&gt;Node2 -->
<g id="edge19_Node000014_Node000002" class="edge">
<title>Node14&#45;&gt;Node2</title>
<g id="a_edge19_Node000014_Node000002"><a xlink:title=" ">
<path fill="none" stroke="#63b8ff" d="M628.83,-272.05C655.74,-262.37 692,-249.32 715.96,-240.7"/>
<polygon fill="#63b8ff" stroke="#63b8ff" points="627.95,-268.65 619.72,-275.33 630.32,-275.24 627.95,-268.65"/>
</a>
</g>
</g>
<!-- Node14&#45;&gt;Node3 -->
<g id="edge26_Node000014_Node000003" class="edge">
<title>Node14&#45;&gt;Node3</title>
<g id="a_edge26_Node000014_Node000003"><a xlink:title=" ">
<path fill="none" stroke="#63b8ff" d="M542.08,-271.8C526.21,-265.08 510.47,-255.06 501.19,-240.25 487.05,-217.68 519.91,-196.76 543.29,-185.36"/>
<polygon fill="#63b8ff" stroke="#63b8ff" points="540.45,-274.93 551.05,-275.22 542.95,-268.39 540.45,-274.93"/>
</a>
</g>
</g>
<!-- Node14&#45;&gt;Node9 -->
<g id="edge27_Node000014_Node000009" class="edge">
<title>Node14&#45;&gt;Node9</title>
<g id="a_edge27_Node000014_Node000009"><a xlink:title=" ">
<path fill="none" stroke="#63b8ff" d="M615.79,-269.58C627.19,-261.43 640.94,-250.91 652.19,-240.25 683.68,-210.43 679.29,-190.06 715.19,-165.75 741.18,-148.15 774.68,-137 801.68,-130.24"/>
<polygon fill="#63b8ff" stroke="#63b8ff" points="613.94,-266.61 607.75,-275.21 617.95,-272.34 613.94,-266.61"/>
</a>
</g>
</g>
<!-- Node15 -->
<g id="Node000015" class="node">
<title>Node15</title>
<g id="a_Node000015"><a xlink:href="_register_map_8h.html" target="_top" xlink:title="Modbus register mapping for temperature monitoring system.">
<polygon fill="white" stroke="#666666" points="452.94,-240.25 339.44,-240.25 339.44,-221 452.94,-221 452.94,-240.25"/>
<text xml:space="preserve" text-anchor="middle" x="396.19" y="-226.75" font-family="Helvetica,sans-Serif" font-size="10.00">include/RegisterMap.h</text>
</a>
</g>
</g>
<!-- Node14&#45;&gt;Node15 -->
<g id="edge20_Node000014_Node000015" class="edge">
<title>Node14&#45;&gt;Node15</title>
<g id="a_edge20_Node000014_Node000015"><a xlink:title=" ">
<path fill="none" stroke="#63b8ff" d="M549.06,-272.95C512.96,-263.19 462.66,-249.59 429.77,-240.7"/>
<polygon fill="#63b8ff" stroke="#63b8ff" points="547.75,-276.22 558.31,-275.45 549.57,-269.46 547.75,-276.22"/>
</a>
</g>
</g>
<!-- Node19 -->
<g id="Node000019" class="node">
<title>Node19</title>
<g id="a_Node000019"><a xlink:href="_measurement_point_8cpp.html" target="_top" xlink:title="Implementation of temperature measurement point management.">
<polygon fill="white" stroke="#666666" points="642.69,-240.25 509.69,-240.25 509.69,-221 642.69,-221 642.69,-240.25"/>
<text xml:space="preserve" text-anchor="middle" x="576.19" y="-226.75" font-family="Helvetica,sans-Serif" font-size="10.00">src/MeasurementPoint.cpp</text>
</a>
</g>
</g>
<!-- Node14&#45;&gt;Node19 -->
<g id="edge28_Node000014_Node000019" class="edge">
<title>Node14&#45;&gt;Node19</title>
<g id="a_edge28_Node000014_Node000019"><a xlink:title=" ">
<path fill="none" stroke="#63b8ff" d="M586.91,-265.21C584.22,-256.77 581.21,-247.33 579.06,-240.61"/>
<polygon fill="#63b8ff" stroke="#63b8ff" points="583.55,-266.18 589.92,-274.64 590.22,-264.05 583.55,-266.18"/>
</a>
</g>
</g>
<!-- Node15&#45;&gt;Node3 -->
<g id="edge24_Node000015_Node000003" class="edge">
<title>Node15&#45;&gt;Node3</title>
<g id="a_edge24_Node000015_Node000003"><a xlink:title=" ">
<path fill="none" stroke="#63b8ff" d="M435.43,-217.19C466.09,-207.47 507.99,-194.19 535.55,-185.45"/>
<polygon fill="#63b8ff" stroke="#63b8ff" points="434.61,-213.78 426.13,-220.13 436.72,-220.45 434.61,-213.78"/>
</a>
</g>
</g>
<!-- Node15&#45;&gt;Node16 -->
<g id="edge21_Node000015_Node000016" class="edge">
<title>Node15&#45;&gt;Node16</title>
<g id="a_edge21_Node000015_Node000016"><a xlink:title=" ">
<path fill="none" stroke="#63b8ff" d="M364.82,-216.15C342.44,-206.54 312.96,-193.88 293.33,-185.45"/>
<polygon fill="#63b8ff" stroke="#63b8ff" points="363.2,-219.26 373.77,-219.99 365.96,-212.83 363.2,-219.26"/>
</a>
</g>
</g>
<!-- Node18 -->
<g id="Node000018" class="node">
<title>Node18</title>
<g id="a_Node000018"><a xlink:href="_register_map_8cpp.html" target="_top" xlink:title="Implementation of Modbus register mapping for temperature monitoring.">
<polygon fill="white" stroke="#666666" points="469.57,-185 362.82,-185 362.82,-165.75 469.57,-165.75 469.57,-185"/>
<text xml:space="preserve" text-anchor="middle" x="416.19" y="-171.5" font-family="Helvetica,sans-Serif" font-size="10.00">src/RegisterMap.cpp</text>
</a>
</g>
</g>
<!-- Node15&#45;&gt;Node18 -->
<g id="edge25_Node000015_Node000018" class="edge">
<title>Node15&#45;&gt;Node18</title>
<g id="a_edge25_Node000015_Node000018"><a xlink:title=" ">
<path fill="none" stroke="#63b8ff" d="M403.47,-210.25C406.67,-201.74 410.27,-192.15 412.82,-185.36"/>
<polygon fill="#63b8ff" stroke="#63b8ff" points="400.27,-208.82 400.03,-219.41 406.82,-211.28 400.27,-208.82"/>
</a>
</g>
</g>
<!-- Node16&#45;&gt;Node7 -->
<g id="edge23_Node000016_Node000007" class="edge">
<title>Node16&#45;&gt;Node7</title>
<g id="a_edge23_Node000016_Node000007"><a xlink:title=" ">
<path fill="none" stroke="#63b8ff" d="M305.68,-160.15C318.76,-152.93 332.65,-142.86 341.19,-129.75 364.29,-94.3 362.76,-40.63 361.1,-19.56"/>
<polygon fill="#63b8ff" stroke="#63b8ff" points="304.15,-157 296.82,-164.66 307.32,-163.24 304.15,-157"/>
</a>
</g>
</g>
<!-- Node17 -->
<g id="Node000017" class="node">
<title>Node17</title>
<g id="a_Node000017"><a xlink:href="_temp_modbus_server_8cpp.html" target="_top" xlink:title="Implementation of Modbus RTU server for temperature monitoring.">
<polygon fill="white" stroke="#666666" points="331.94,-129.75 194.44,-129.75 194.44,-110.5 331.94,-110.5 331.94,-129.75"/>
<text xml:space="preserve" text-anchor="middle" x="263.19" y="-116.25" font-family="Helvetica,sans-Serif" font-size="10.00">src/TempModbusServer.cpp</text>
</a>
</g>
</g>
<!-- Node16&#45;&gt;Node17 -->
<g id="edge22_Node000016_Node000017" class="edge">
<title>Node16&#45;&gt;Node17</title>
<g id="a_edge22_Node000016_Node000017"><a xlink:title=" ">
<path fill="none" stroke="#63b8ff" d="M268.82,-154.42C267.41,-146.05 265.83,-136.75 264.71,-130.11"/>
<polygon fill="#63b8ff" stroke="#63b8ff" points="265.34,-154.81 270.45,-164.09 272.24,-153.65 265.34,-154.81"/>
</a>
</g>
</g>
</g>
</svg>
