<?xml version="1.0" encoding="UTF-8" standalone="no"?>
<!DOCTYPE svg PUBLIC "-//W3C//DTD SVG 1.1//EN"
 "http://www.w3.org/Graphics/SVG/1.1/DTD/svg11.dtd">
<!-- Generated by graphviz version 13.1.0 (20250701.0955)
 -->
<!-- Title: include/LoggerManager.h Pages: 1 -->
<svg width="529pt" height="139pt"
 viewBox="0.00 0.00 529.00 139.00" xmlns="http://www.w3.org/2000/svg" xmlns:xlink="http://www.w3.org/1999/xlink">
<g id="graph0" class="graph" transform="scale(1 1) rotate(0) translate(4 134.86)">
<title>include/LoggerManager.h</title>
<!-- Node1 -->
<g id="Node000001" class="node">
<title>Node1</title>
<g id="a_Node000001"><a xlink:title=" ">
<polygon fill="#999999" stroke="#666666" points="206.62,-129.75 82.62,-129.75 82.62,-110.5 206.62,-110.5 206.62,-129.75"/>
<text xml:space="preserve" text-anchor="middle" x="144.62" y="-116.25" font-family="Helvetica,sans-Serif" font-size="10.00">include/LoggerManager.h</text>
</a>
</g>
</g>
<!-- Node1&#45;&gt;Node1 -->
<g id="edge13_Node000001_Node000001" class="edge">
<title>Node1&#45;&gt;Node1</title>
<g id="a_edge13_Node000001_Node000001"><a xlink:title=" ">
<path fill="none" stroke="#63b8ff" d="M186.61,-130.23C206.8,-131.48 224.62,-128.11 224.62,-120.12 224.62,-113.7 213.08,-110.26 198.05,-109.82"/>
<polygon fill="#63b8ff" stroke="#63b8ff" points="198.06,-106.32 188.12,-109.99 198.18,-113.31 198.06,-106.32"/>
</a>
</g>
</g>
<!-- Node2 -->
<g id="Node000002" class="node">
<title>Node2</title>
<g id="a_Node000002"><a xlink:title=" ">
<polygon fill="#e0e0e0" stroke="#999999" points="57.25,-19.25 0,-19.25 0,0 57.25,0 57.25,-19.25"/>
<text xml:space="preserve" text-anchor="middle" x="28.62" y="-5.75" font-family="Helvetica,sans-Serif" font-size="10.00">Arduino.h</text>
</a>
</g>
</g>
<!-- Node1&#45;&gt;Node2 -->
<g id="edge1_Node000001_Node000002" class="edge">
<title>Node1&#45;&gt;Node2</title>
<g id="a_edge1_Node000001_Node000002"><a xlink:title=" ">
<path fill="none" stroke="#63b8ff" d="M119.22,-110.16C101.34,-102.81 77.8,-90.95 61.62,-74.5 49.3,-61.97 40.55,-43.91 35.18,-30.19"/>
<polygon fill="#63b8ff" stroke="#63b8ff" points="38.51,-29.13 31.82,-20.91 31.93,-31.51 38.51,-29.13"/>
</a>
</g>
</g>
<!-- Node3 -->
<g id="Node000003" class="node">
<title>Node3</title>
<g id="a_Node000003"><a xlink:title=" ">
<polygon fill="#e0e0e0" stroke="#999999" points="107.12,-74.5 70.12,-74.5 70.12,-55.25 107.12,-55.25 107.12,-74.5"/>
<text xml:space="preserve" text-anchor="middle" x="88.62" y="-61" font-family="Helvetica,sans-Serif" font-size="10.00">FS.h</text>
</a>
</g>
</g>
<!-- Node1&#45;&gt;Node3 -->
<g id="edge2_Node000001_Node000003" class="edge">
<title>Node1&#45;&gt;Node3</title>
<g id="a_edge2_Node000001_Node000003"><a xlink:title=" ">
<path fill="none" stroke="#63b8ff" d="M135.13,-110.09C127.19,-102.55 115.68,-91.6 106.09,-82.48"/>
<polygon fill="#63b8ff" stroke="#63b8ff" points="108.74,-80.17 99.08,-75.82 103.92,-85.24 108.74,-80.17"/>
</a>
</g>
</g>
<!-- Node4 -->
<g id="Node000004" class="node">
<title>Node4</title>
<g id="a_Node000004"><a xlink:title=" ">
<polygon fill="#e0e0e0" stroke="#999999" points="163.88,-74.5 125.38,-74.5 125.38,-55.25 163.88,-55.25 163.88,-74.5"/>
<text xml:space="preserve" text-anchor="middle" x="144.62" y="-61" font-family="Helvetica,sans-Serif" font-size="10.00">SD.h</text>
</a>
</g>
</g>
<!-- Node1&#45;&gt;Node4 -->
<g id="edge3_Node000001_Node000004" class="edge">
<title>Node1&#45;&gt;Node4</title>
<g id="a_edge3_Node000001_Node000004"><a xlink:title=" ">
<path fill="none" stroke="#63b8ff" d="M144.62,-110.33C144.62,-103.82 144.62,-94.67 144.62,-86.37"/>
<polygon fill="#63b8ff" stroke="#63b8ff" points="148.13,-86.37 144.63,-76.37 141.13,-86.37 148.13,-86.37"/>
</a>
</g>
</g>
<!-- Node5 -->
<g id="Node000005" class="node">
<title>Node5</title>
<g id="a_Node000005"><a xlink:href="_time_manager_8h.html" target="_top" xlink:title=" ">
<polygon fill="white" stroke="#666666" points="265,-74.5 182.25,-74.5 182.25,-55.25 265,-55.25 265,-74.5"/>
<text xml:space="preserve" text-anchor="middle" x="223.62" y="-61" font-family="Helvetica,sans-Serif" font-size="10.00">TimeManager.h</text>
</a>
</g>
</g>
<!-- Node1&#45;&gt;Node5 -->
<g id="edge4_Node000001_Node000005" class="edge">
<title>Node1&#45;&gt;Node5</title>
<g id="a_edge4_Node000001_Node000005"><a xlink:title=" ">
<path fill="none" stroke="#63b8ff" d="M158.03,-110.09C169.72,-102.21 186.93,-90.61 200.79,-81.27"/>
<polygon fill="#63b8ff" stroke="#63b8ff" points="202.57,-84.29 208.9,-75.8 198.65,-78.49 202.57,-84.29"/>
</a>
</g>
</g>
<!-- Node12 -->
<g id="Node000012" class="node">
<title>Node12</title>
<g id="a_Node000012"><a xlink:title=" ">
<polygon fill="#e0e0e0" stroke="#999999" points="326.12,-74.5 283.12,-74.5 283.12,-55.25 326.12,-55.25 326.12,-74.5"/>
<text xml:space="preserve" text-anchor="middle" x="304.62" y="-61" font-family="Helvetica,sans-Serif" font-size="10.00">vector</text>
</a>
</g>
</g>
<!-- Node1&#45;&gt;Node12 -->
<g id="edge12_Node000001_Node000012" class="edge">
<title>Node1&#45;&gt;Node12</title>
<g id="a_edge12_Node000001_Node000012"><a xlink:title=" ">
<path fill="none" stroke="#63b8ff" d="M171.77,-110.09C199.6,-100.83 242.87,-86.43 272.41,-76.6"/>
<polygon fill="#63b8ff" stroke="#63b8ff" points="273.19,-80.03 281.57,-73.55 270.98,-73.39 273.19,-80.03"/>
</a>
</g>
</g>
<!-- Node5&#45;&gt;Node2 -->
<g id="edge5_Node000005_Node000002" class="edge">
<title>Node5&#45;&gt;Node2</title>
<g id="a_edge5_Node000005_Node000002"><a xlink:title=" ">
<path fill="none" stroke="#63b8ff" d="M190.55,-54.84C156.91,-45.66 104.77,-31.42 68.79,-21.59"/>
<polygon fill="#63b8ff" stroke="#63b8ff" points="69.75,-18.23 59.18,-18.97 67.91,-24.98 69.75,-18.23"/>
</a>
</g>
</g>
<!-- Node6 -->
<g id="Node000006" class="node">
<title>Node6</title>
<g id="a_Node000006"><a xlink:title=" ">
<polygon fill="#e0e0e0" stroke="#999999" points="119.88,-19.25 75.38,-19.25 75.38,0 119.88,0 119.88,-19.25"/>
<text xml:space="preserve" text-anchor="middle" x="97.62" y="-5.75" font-family="Helvetica,sans-Serif" font-size="10.00">WiFi.h</text>
</a>
</g>
</g>
<!-- Node5&#45;&gt;Node6 -->
<g id="edge6_Node000005_Node000006" class="edge">
<title>Node5&#45;&gt;Node6</title>
<g id="a_edge6_Node000005_Node000006"><a xlink:title=" ">
<path fill="none" stroke="#63b8ff" d="M202.25,-54.84C182.34,-46.43 152.39,-33.77 129.62,-24.15"/>
<polygon fill="#63b8ff" stroke="#63b8ff" points="131.07,-20.96 120.5,-20.29 128.35,-27.41 131.07,-20.96"/>
</a>
</g>
</g>
<!-- Node7 -->
<g id="Node000007" class="node">
<title>Node7</title>
<g id="a_Node000007"><a xlink:title=" ">
<polygon fill="#e0e0e0" stroke="#999999" points="182.88,-19.25 138.38,-19.25 138.38,0 182.88,0 182.88,-19.25"/>
<text xml:space="preserve" text-anchor="middle" x="160.62" y="-5.75" font-family="Helvetica,sans-Serif" font-size="10.00">Wire.h</text>
</a>
</g>
</g>
<!-- Node5&#45;&gt;Node7 -->
<g id="edge7_Node000005_Node000007" class="edge">
<title>Node5&#45;&gt;Node7</title>
<g id="a_edge7_Node000005_Node000007"><a xlink:title=" ">
<path fill="none" stroke="#63b8ff" d="M212.94,-54.84C203.92,-47.22 190.79,-36.12 179.94,-26.95"/>
<polygon fill="#63b8ff" stroke="#63b8ff" points="182.21,-24.28 172.31,-20.5 177.69,-29.63 182.21,-24.28"/>
</a>
</g>
</g>
<!-- Node8 -->
<g id="Node000008" class="node">
<title>Node8</title>
<g id="a_Node000008"><a xlink:title=" ">
<polygon fill="#e0e0e0" stroke="#999999" points="256.12,-19.25 201.12,-19.25 201.12,0 256.12,0 256.12,-19.25"/>
<text xml:space="preserve" text-anchor="middle" x="228.62" y="-5.75" font-family="Helvetica,sans-Serif" font-size="10.00">RTClib.h</text>
</a>
</g>
</g>
<!-- Node5&#45;&gt;Node8 -->
<g id="edge8_Node000005_Node000008" class="edge">
<title>Node5&#45;&gt;Node8</title>
<g id="a_edge8_Node000005_Node000008"><a xlink:title=" ">
<path fill="none" stroke="#63b8ff" d="M224.45,-55.08C225.07,-48.49 225.94,-39.21 226.73,-30.82"/>
<polygon fill="#63b8ff" stroke="#63b8ff" points="230.19,-31.4 227.64,-21.12 223.22,-30.75 230.19,-31.4"/>
</a>
</g>
</g>
<!-- Node9 -->
<g id="Node000009" class="node">
<title>Node9</title>
<g id="a_Node000009"><a xlink:title=" ">
<polygon fill="#e0e0e0" stroke="#999999" points="344.62,-19.25 274.62,-19.25 274.62,0 344.62,0 344.62,-19.25"/>
<text xml:space="preserve" text-anchor="middle" x="309.62" y="-5.75" font-family="Helvetica,sans-Serif" font-size="10.00">NTPClient.h</text>
</a>
</g>
</g>
<!-- Node5&#45;&gt;Node9 -->
<g id="edge9_Node000005_Node000009" class="edge">
<title>Node5&#45;&gt;Node9</title>
<g id="a_edge9_Node000005_Node000009"><a xlink:title=" ">
<path fill="none" stroke="#63b8ff" d="M238.21,-54.84C251.06,-46.89 270.04,-35.14 285.2,-25.75"/>
<polygon fill="#63b8ff" stroke="#63b8ff" points="287.02,-28.74 293.68,-20.5 283.33,-22.79 287.02,-28.74"/>
</a>
</g>
</g>
<!-- Node10 -->
<g id="Node000010" class="node">
<title>Node10</title>
<g id="a_Node000010"><a xlink:title=" ">
<polygon fill="#e0e0e0" stroke="#999999" points="424.88,-19.25 362.38,-19.25 362.38,0 424.88,0 424.88,-19.25"/>
<text xml:space="preserve" text-anchor="middle" x="393.62" y="-5.75" font-family="Helvetica,sans-Serif" font-size="10.00">WiFiUdp.h</text>
</a>
</g>
</g>
<!-- Node5&#45;&gt;Node10 -->
<g id="edge10_Node000005_Node000010" class="edge">
<title>Node5&#45;&gt;Node10</title>
<g id="a_edge10_Node000005_Node000010"><a xlink:title=" ">
<path fill="none" stroke="#63b8ff" d="M252.46,-54.84C280.3,-46.12 322.7,-32.84 353.76,-23.11"/>
<polygon fill="#63b8ff" stroke="#63b8ff" points="354.7,-26.48 363.2,-20.15 352.61,-19.8 354.7,-26.48"/>
</a>
</g>
</g>
<!-- Node11 -->
<g id="Node000011" class="node">
<title>Node11</title>
<g id="a_Node000011"><a xlink:title=" ">
<polygon fill="#e0e0e0" stroke="#999999" points="520.75,-19.25 442.5,-19.25 442.5,0 520.75,0 520.75,-19.25"/>
<text xml:space="preserve" text-anchor="middle" x="481.62" y="-5.75" font-family="Helvetica,sans-Serif" font-size="10.00">ArduinoJson.h</text>
</a>
</g>
</g>
<!-- Node5&#45;&gt;Node11 -->
<g id="edge11_Node000005_Node000011" class="edge">
<title>Node5&#45;&gt;Node11</title>
<g id="a_edge11_Node000005_Node000011"><a xlink:title=" ">
<path fill="none" stroke="#63b8ff" d="M265.36,-55.26C310.52,-45.94 382.53,-31.08 430.91,-21.09"/>
<polygon fill="#63b8ff" stroke="#63b8ff" points="431.5,-24.55 440.58,-19.1 430.08,-17.69 431.5,-24.55"/>
</a>
</g>
</g>
</g>
</svg>
