<?xml version="1.0" encoding="UTF-8" standalone="no"?>
<!DOCTYPE svg PUBLIC "-//W3C//DTD SVG 1.1//EN"
 "http://www.w3.org/Graphics/SVG/1.1/DTD/svg11.dtd">
<!-- Generated by graphviz version 13.1.0 (20250701.0955)
 -->
<!-- Title: include/LoggerManager.h Pages: 1 -->
<svg width="1013pt" height="359pt"
 viewBox="0.00 0.00 1013.00 359.00" xmlns="http://www.w3.org/2000/svg" xmlns:xlink="http://www.w3.org/1999/xlink">
<g id="graph0" class="graph" transform="scale(1 1) rotate(0) translate(4 354.75)">
<title>include/LoggerManager.h</title>
<!-- Node1 -->
<g id="Node000001" class="node">
<title>Node1</title>
<g id="a_Node000001"><a xlink:title="Comprehensive data and event logging system for temperature monitoring.">
<polygon fill="#999999" stroke="#666666" points="531,-350.75 407,-350.75 407,-331.5 531,-331.5 531,-350.75"/>
<text xml:space="preserve" text-anchor="middle" x="469" y="-337.25" font-family="Helvetica,sans-Serif" font-size="10.00">include/LoggerManager.h</text>
</a>
</g>
</g>
<!-- Node2 -->
<g id="Node000002" class="node">
<title>Node2</title>
<g id="a_Node000002"><a xlink:href="_alarm_8h.html" target="_top" xlink:title="Alarm management system for temperature monitoring.">
<polygon fill="white" stroke="#666666" points="855.75,-240.25 772.25,-240.25 772.25,-221 855.75,-221 855.75,-240.25"/>
<text xml:space="preserve" text-anchor="middle" x="814" y="-226.75" font-family="Helvetica,sans-Serif" font-size="10.00">include/Alarm.h</text>
</a>
</g>
</g>
<!-- Node1&#45;&gt;Node2 -->
<g id="edge1_Node000001_Node000002" class="edge">
<title>Node1&#45;&gt;Node2</title>
<g id="a_edge1_Node000001_Node000002"><a xlink:title=" ">
<path fill="none" stroke="#63b8ff" d="M536.97,-328.96C577.11,-321.45 628.59,-310.23 673,-295.5 719.42,-280.1 771.1,-254.31 797.1,-240.69"/>
<polygon fill="#63b8ff" stroke="#63b8ff" points="536.4,-325.51 527.19,-330.75 537.66,-332.39 536.4,-325.51"/>
</a>
</g>
</g>
<!-- Node5 -->
<g id="Node000005" class="node">
<title>Node5</title>
<g id="a_Node000005"><a xlink:href="_config_manager_8h.html" target="_top" xlink:title="Configuration management system for temperature monitoring device.">
<polygon fill="white" stroke="#666666" points="646.62,-74.5 523.38,-74.5 523.38,-55.25 646.62,-55.25 646.62,-74.5"/>
<text xml:space="preserve" text-anchor="middle" x="585" y="-61" font-family="Helvetica,sans-Serif" font-size="10.00">include/ConfigManager.h</text>
</a>
</g>
</g>
<!-- Node1&#45;&gt;Node5 -->
<g id="edge14_Node000001_Node000005" class="edge">
<title>Node1&#45;&gt;Node5</title>
<g id="a_edge14_Node000001_Node000005"><a xlink:title=" ">
<path fill="none" stroke="#63b8ff" d="M456.1,-321.96C442.32,-302.24 420.12,-269.62 403,-240.25 384.28,-208.14 388.48,-194.56 365,-165.75 344.99,-141.2 299.55,-134.68 320,-110.5 345.49,-80.35 453.11,-70.56 523.12,-67.39"/>
<polygon fill="#63b8ff" stroke="#63b8ff" points="453.16,-323.85 461.77,-330.01 458.88,-319.82 453.16,-323.85"/>
</a>
</g>
</g>
<!-- Node7 -->
<g id="Node000007" class="node">
<title>Node7</title>
<g id="a_Node000007"><a xlink:href="main_8cpp.html" target="_top" xlink:title="Main application entry point for Industrial Temperature Monitoring System.">
<polygon fill="white" stroke="#666666" points="299.12,-19.25 226.88,-19.25 226.88,0 299.12,0 299.12,-19.25"/>
<text xml:space="preserve" text-anchor="middle" x="263" y="-5.75" font-family="Helvetica,sans-Serif" font-size="10.00">src/main.cpp</text>
</a>
</g>
</g>
<!-- Node1&#45;&gt;Node7 -->
<g id="edge33_Node000001_Node000007" class="edge">
<title>Node1&#45;&gt;Node7</title>
<g id="a_edge33_Node000001_Node000007"><a xlink:title=" ">
<path fill="none" stroke="#63b8ff" d="M395.53,-338.21C263.56,-332.75 0,-311.82 0,-231.62 0,-231.62 0,-231.62 0,-119.12 0,-22.32 154.17,-10.14 226.43,-9.76"/>
<polygon fill="#63b8ff" stroke="#63b8ff" points="395.08,-341.69 405.21,-338.59 395.35,-334.7 395.08,-341.69"/>
</a>
</g>
</g>
<!-- Node9 -->
<g id="Node000009" class="node">
<title>Node9</title>
<g id="a_Node000009"><a xlink:href="_logger_manager_8cpp.html" target="_top" xlink:title="Implementation of data logging and event management system.">
<polygon fill="white" stroke="#666666" points="1004.62,-129.75 887.38,-129.75 887.38,-110.5 1004.62,-110.5 1004.62,-129.75"/>
<text xml:space="preserve" text-anchor="middle" x="946" y="-116.25" font-family="Helvetica,sans-Serif" font-size="10.00">src/LoggerManager.cpp</text>
</a>
</g>
</g>
<!-- Node1&#45;&gt;Node9 -->
<g id="edge32_Node000001_Node000009" class="edge">
<title>Node1&#45;&gt;Node9</title>
<g id="a_edge32_Node000001_Node000009"><a xlink:title=" ">
<path fill="none" stroke="#63b8ff" d="M542.89,-339.36C610.9,-336.53 713.57,-326.76 797,-295.5 838.84,-279.82 850.73,-273.12 881,-240.25 913.24,-205.24 935.07,-151.31 942.85,-130.12"/>
<polygon fill="#63b8ff" stroke="#63b8ff" points="542.82,-335.86 532.95,-339.73 543.08,-342.86 542.82,-335.86"/>
</a>
</g>
</g>
<!-- Node12 -->
<g id="Node000012" class="node">
<title>Node12</title>
<g id="a_Node000012"><a xlink:href="_alarm_8cpp.html" target="_top" xlink:title="Implementation of alarm management system for temperature monitoring.">
<polygon fill="white" stroke="#666666" points="884.38,-185 807.62,-185 807.62,-165.75 884.38,-165.75 884.38,-185"/>
<text xml:space="preserve" text-anchor="middle" x="846" y="-171.5" font-family="Helvetica,sans-Serif" font-size="10.00">src/Alarm.cpp</text>
</a>
</g>
</g>
<!-- Node1&#45;&gt;Node12 -->
<g id="edge31_Node000001_Node000012" class="edge">
<title>Node1&#45;&gt;Node12</title>
<g id="a_edge31_Node000001_Node000012"><a xlink:title=" ">
<path fill="none" stroke="#63b8ff" d="M542.85,-332.79C646.93,-320.69 828.23,-292.51 865,-240.25 876.98,-223.22 862.72,-198.56 853.2,-185.42"/>
<polygon fill="#63b8ff" stroke="#63b8ff" points="542.53,-329.31 532.99,-333.91 543.32,-336.26 542.53,-329.31"/>
</a>
</g>
</g>
<!-- Node13 -->
<g id="Node000013" class="node">
<title>Node13</title>
<g id="a_Node000013"><a xlink:href="_indicator_interface_8h.html" target="_top" xlink:title="Hardware interface for PCF8575 I/O expander and SH1106 OLED display.">
<polygon fill="white" stroke="#666666" points="252.88,-240.25 119.12,-240.25 119.12,-221 252.88,-221 252.88,-240.25"/>
<text xml:space="preserve" text-anchor="middle" x="186" y="-226.75" font-family="Helvetica,sans-Serif" font-size="10.00">include/IndicatorInterface.h</text>
</a>
</g>
</g>
<!-- Node1&#45;&gt;Node13 -->
<g id="edge15_Node000001_Node000013" class="edge">
<title>Node1&#45;&gt;Node13</title>
<g id="a_edge15_Node000001_Node000013"><a xlink:title=" ">
<path fill="none" stroke="#63b8ff" d="M411.89,-328.65C378.84,-321.11 336.83,-309.95 301,-295.5 262.45,-279.95 220.59,-254.23 199.61,-240.65"/>
<polygon fill="#63b8ff" stroke="#63b8ff" points="410.73,-331.98 421.25,-330.74 412.26,-325.15 410.73,-331.98"/>
</a>
</g>
</g>
<!-- Node15 -->
<g id="Node000015" class="node">
<title>Node15</title>
<g id="a_Node000015"><a xlink:href="_measurement_point_8h.html" target="_top" xlink:title="Measurement point abstraction for temperature monitoring system.">
<polygon fill="white" stroke="#666666" points="663.88,-295.5 524.12,-295.5 524.12,-276.25 663.88,-276.25 663.88,-295.5"/>
<text xml:space="preserve" text-anchor="middle" x="594" y="-282" font-family="Helvetica,sans-Serif" font-size="10.00">include/MeasurementPoint.h</text>
</a>
</g>
</g>
<!-- Node1&#45;&gt;Node15 -->
<g id="edge19_Node000001_Node000015" class="edge">
<title>Node1&#45;&gt;Node15</title>
<g id="a_edge19_Node000001_Node000015"><a xlink:title=" ">
<path fill="none" stroke="#63b8ff" d="M500.63,-326.65C523.18,-317.04 552.9,-304.38 572.69,-295.95"/>
<polygon fill="#63b8ff" stroke="#63b8ff" points="499.43,-323.36 491.6,-330.5 502.17,-329.8 499.43,-323.36"/>
</a>
</g>
</g>
<!-- Node17 -->
<g id="Node000017" class="node">
<title>Node17</title>
<g id="a_Node000017"><a xlink:href="_temp_modbus_server_8h.html" target="_top" xlink:title="Modbus RTU server for temperature monitoring system.">
<polygon fill="white" stroke="#666666" points="356.12,-185 211.88,-185 211.88,-165.75 356.12,-165.75 356.12,-185"/>
<text xml:space="preserve" text-anchor="middle" x="284" y="-171.5" font-family="Helvetica,sans-Serif" font-size="10.00">include/TempModbusServer.h</text>
</a>
</g>
</g>
<!-- Node1&#45;&gt;Node17 -->
<g id="edge30_Node000001_Node000017" class="edge">
<title>Node1&#45;&gt;Node17</title>
<g id="a_edge30_Node000001_Node000017"><a xlink:title=" ">
<path fill="none" stroke="#63b8ff" d="M427.86,-327.13C408.93,-319.82 386.97,-309.35 370,-295.5 329.88,-262.76 299.31,-207.04 288.37,-185.37"/>
<polygon fill="#63b8ff" stroke="#63b8ff" points="426.57,-330.38 437.17,-330.54 428.98,-323.81 426.57,-330.38"/>
</a>
</g>
</g>
<!-- Node3 -->
<g id="Node000003" class="node">
<title>Node3</title>
<g id="a_Node000003"><a xlink:href="_temperature_controller_8h.html" target="_top" xlink:title="Central temperature monitoring and control system.">
<polygon fill="white" stroke="#666666" points="689.62,-185 536.38,-185 536.38,-165.75 689.62,-165.75 689.62,-185"/>
<text xml:space="preserve" text-anchor="middle" x="613" y="-171.5" font-family="Helvetica,sans-Serif" font-size="10.00">include/TemperatureController.h</text>
</a>
</g>
</g>
<!-- Node2&#45;&gt;Node3 -->
<g id="edge2_Node000002_Node000003" class="edge">
<title>Node2&#45;&gt;Node3</title>
<g id="a_edge2_Node000002_Node000003"><a xlink:title=" ">
<path fill="none" stroke="#63b8ff" d="M768.97,-217.7C732.13,-207.94 680.82,-194.34 647.26,-185.45"/>
<polygon fill="#63b8ff" stroke="#63b8ff" points="767.88,-221.03 778.44,-220.2 769.67,-214.26 767.88,-221.03"/>
</a>
</g>
</g>
<!-- Node2&#45;&gt;Node12 -->
<g id="edge13_Node000002_Node000012" class="edge">
<title>Node2&#45;&gt;Node12</title>
<g id="a_edge13_Node000002_Node000012"><a xlink:title=" ">
<path fill="none" stroke="#63b8ff" d="M825.12,-211.12C830.36,-202.39 836.38,-192.39 840.6,-185.36"/>
<polygon fill="#63b8ff" stroke="#63b8ff" points="822.21,-209.16 820.06,-219.53 828.21,-212.77 822.21,-209.16"/>
</a>
</g>
</g>
<!-- Node4 -->
<g id="Node000004" class="node">
<title>Node4</title>
<g id="a_Node000004"><a xlink:href="_c_s_v_config_manager_8h.html" target="_top" xlink:title="CSV configuration import/export manager for measurement points and alarms.">
<polygon fill="white" stroke="#666666" points="869.12,-129.75 724.88,-129.75 724.88,-110.5 869.12,-110.5 869.12,-129.75"/>
<text xml:space="preserve" text-anchor="middle" x="797" y="-116.25" font-family="Helvetica,sans-Serif" font-size="10.00">include/CSVConfigManager.h</text>
</a>
</g>
</g>
<!-- Node3&#45;&gt;Node4 -->
<g id="edge3_Node000003_Node000004" class="edge">
<title>Node3&#45;&gt;Node4</title>
<g id="a_edge3_Node000003_Node000004"><a xlink:title=" ">
<path fill="none" stroke="#63b8ff" d="M655.1,-162.19C688.75,-152.45 735.18,-139.02 765.63,-130.2"/>
<polygon fill="#63b8ff" stroke="#63b8ff" points="654.3,-158.78 645.67,-164.92 656.25,-165.5 654.3,-158.78"/>
</a>
</g>
</g>
<!-- Node3&#45;&gt;Node5 -->
<g id="edge8_Node000003_Node000005" class="edge">
<title>Node3&#45;&gt;Node5</title>
<g id="a_edge8_Node000003_Node000005"><a xlink:title=" ">
<path fill="none" stroke="#63b8ff" d="M581.93,-159.6C570.33,-152.36 558.43,-142.42 552,-129.75 542.06,-110.16 561.38,-87.32 574.43,-74.95"/>
<polygon fill="#63b8ff" stroke="#63b8ff" points="580.16,-162.62 590.58,-164.53 583.63,-156.54 580.16,-162.62"/>
</a>
</g>
</g>
<!-- Node3&#45;&gt;Node7 -->
<g id="edge12_Node000003_Node000007" class="edge">
<title>Node3&#45;&gt;Node7</title>
<g id="a_edge12_Node000003_Node000007"><a xlink:title=" ">
<path fill="none" stroke="#63b8ff" d="M583.41,-160.53C513.61,-127.88 340.26,-46.77 282.26,-19.63"/>
<polygon fill="#63b8ff" stroke="#63b8ff" points="581.77,-163.63 592.31,-164.7 584.74,-157.29 581.77,-163.63"/>
</a>
</g>
</g>
<!-- Node3&#45;&gt;Node9 -->
<g id="edge9_Node000003_Node000009" class="edge">
<title>Node3&#45;&gt;Node9</title>
<g id="a_edge9_Node000003_Node000009"><a xlink:title=" ">
<path fill="none" stroke="#63b8ff" d="M680.98,-163.5C742.29,-153.7 831.45,-139.44 889.09,-130.23"/>
<polygon fill="#63b8ff" stroke="#63b8ff" points="680.68,-160.01 671.36,-165.04 681.79,-166.92 680.68,-160.01"/>
</a>
</g>
</g>
<!-- Node10 -->
<g id="Node000010" class="node">
<title>Node10</title>
<g id="a_Node000010"><a xlink:href="_temp_modbus_server_8cpp.html" target="_top" xlink:title="Implementation of Modbus RTU server for temperature monitoring.">
<polygon fill="white" stroke="#666666" points="466.75,-129.75 329.25,-129.75 329.25,-110.5 466.75,-110.5 466.75,-129.75"/>
<text xml:space="preserve" text-anchor="middle" x="398" y="-116.25" font-family="Helvetica,sans-Serif" font-size="10.00">src/TempModbusServer.cpp</text>
</a>
</g>
</g>
<!-- Node3&#45;&gt;Node10 -->
<g id="edge10_Node000003_Node000010" class="edge">
<title>Node3&#45;&gt;Node10</title>
<g id="a_edge10_Node000003_Node000010"><a xlink:title=" ">
<path fill="none" stroke="#63b8ff" d="M565.6,-162.63C526.14,-152.86 470.78,-139.15 434.65,-130.2"/>
<polygon fill="#63b8ff" stroke="#63b8ff" points="564.51,-165.97 575.06,-164.98 566.19,-159.18 564.51,-165.97"/>
</a>
</g>
</g>
<!-- Node11 -->
<g id="Node000011" class="node">
<title>Node11</title>
<g id="a_Node000011"><a xlink:href="_temperature_controller_8cpp.html" target="_top" xlink:title="Implementation of the central temperature monitoring and control system.">
<polygon fill="white" stroke="#666666" points="707.25,-129.75 560.75,-129.75 560.75,-110.5 707.25,-110.5 707.25,-129.75"/>
<text xml:space="preserve" text-anchor="middle" x="634" y="-116.25" font-family="Helvetica,sans-Serif" font-size="10.00">src/TemperatureController.cpp</text>
</a>
</g>
</g>
<!-- Node3&#45;&gt;Node11 -->
<g id="edge11_Node000003_Node000011" class="edge">
<title>Node3&#45;&gt;Node11</title>
<g id="a_edge11_Node000003_Node000011"><a xlink:title=" ">
<path fill="none" stroke="#63b8ff" d="M620.64,-155C624,-146.49 627.78,-136.9 630.46,-130.11"/>
<polygon fill="#63b8ff" stroke="#63b8ff" points="617.44,-153.59 617.02,-164.17 623.95,-156.16 617.44,-153.59"/>
</a>
</g>
</g>
<!-- Node4&#45;&gt;Node5 -->
<g id="edge4_Node000004_Node000005" class="edge">
<title>Node4&#45;&gt;Node5</title>
<g id="a_edge4_Node000004_Node000005"><a xlink:title=" ">
<path fill="none" stroke="#63b8ff" d="M750.01,-107.32C711.12,-97.55 656.68,-83.88 621.14,-74.95"/>
<polygon fill="#63b8ff" stroke="#63b8ff" points="749.02,-110.68 759.57,-109.72 750.72,-103.89 749.02,-110.68"/>
</a>
</g>
</g>
<!-- Node8 -->
<g id="Node000008" class="node">
<title>Node8</title>
<g id="a_Node000008"><a xlink:href="_c_s_v_config_manager_8cpp.html" target="_top" xlink:title="Implementation of CSV configuration management for measurement points.">
<polygon fill="white" stroke="#666666" points="865.75,-74.5 728.25,-74.5 728.25,-55.25 865.75,-55.25 865.75,-74.5"/>
<text xml:space="preserve" text-anchor="middle" x="797" y="-61" font-family="Helvetica,sans-Serif" font-size="10.00">src/CSVConfigManager.cpp</text>
</a>
</g>
</g>
<!-- Node4&#45;&gt;Node8 -->
<g id="edge7_Node000004_Node000008" class="edge">
<title>Node4&#45;&gt;Node8</title>
<g id="a_edge7_Node000004_Node000008"><a xlink:title=" ">
<path fill="none" stroke="#63b8ff" d="M797,-98.88C797,-90.59 797,-81.42 797,-74.86"/>
<polygon fill="#63b8ff" stroke="#63b8ff" points="793.5,-98.82 797,-108.82 800.5,-98.82 793.5,-98.82"/>
</a>
</g>
</g>
<!-- Node6 -->
<g id="Node000006" class="node">
<title>Node6</title>
<g id="a_Node000006"><a xlink:href="_config_manager_8cpp.html" target="_top" xlink:title="Implementation of web&#45;based configuration management system.">
<polygon fill="white" stroke="#666666" points="643.25,-19.25 526.75,-19.25 526.75,0 643.25,0 643.25,-19.25"/>
<text xml:space="preserve" text-anchor="middle" x="585" y="-5.75" font-family="Helvetica,sans-Serif" font-size="10.00">src/ConfigManager.cpp</text>
</a>
</g>
</g>
<!-- Node5&#45;&gt;Node6 -->
<g id="edge5_Node000005_Node000006" class="edge">
<title>Node5&#45;&gt;Node6</title>
<g id="a_edge5_Node000005_Node000006"><a xlink:title=" ">
<path fill="none" stroke="#63b8ff" d="M585,-43.63C585,-35.34 585,-26.17 585,-19.61"/>
<polygon fill="#63b8ff" stroke="#63b8ff" points="581.5,-43.57 585,-53.57 588.5,-43.57 581.5,-43.57"/>
</a>
</g>
</g>
<!-- Node5&#45;&gt;Node7 -->
<g id="edge6_Node000005_Node000007" class="edge">
<title>Node5&#45;&gt;Node7</title>
<g id="a_edge6_Node000005_Node000007"><a xlink:title=" ">
<path fill="none" stroke="#63b8ff" d="M518.83,-52.93C452.37,-41.94 352.41,-25.41 299.25,-16.62"/>
<polygon fill="#63b8ff" stroke="#63b8ff" points="518.08,-56.36 528.52,-54.53 519.22,-49.45 518.08,-56.36"/>
</a>
</g>
</g>
<!-- Node13&#45;&gt;Node3 -->
<g id="edge16_Node000013_Node000003" class="edge">
<title>Node13&#45;&gt;Node3</title>
<g id="a_edge16_Node000013_Node000003"><a xlink:title=" ">
<path fill="none" stroke="#63b8ff" d="M264.49,-219.84C343.21,-210.02 463.46,-195.02 540.13,-185.46"/>
<polygon fill="#63b8ff" stroke="#63b8ff" points="264.18,-216.35 254.69,-221.06 265.05,-223.29 264.18,-216.35"/>
</a>
</g>
</g>
<!-- Node13&#45;&gt;Node7 -->
<g id="edge18_Node000013_Node000007" class="edge">
<title>Node13&#45;&gt;Node7</title>
<g id="a_edge18_Node000013_Node000007"><a xlink:title=" ">
<path fill="none" stroke="#63b8ff" d="M190.7,-209.75C193.84,-197.06 198.26,-180.32 203,-165.75 221.41,-109.19 249.04,-43.21 259.13,-19.59"/>
<polygon fill="#63b8ff" stroke="#63b8ff" points="187.31,-208.85 188.37,-219.39 194.12,-210.49 187.31,-208.85"/>
</a>
</g>
</g>
<!-- Node14 -->
<g id="Node000014" class="node">
<title>Node14</title>
<g id="a_Node000014"><a xlink:href="_indicator_interface_8cpp.html" target="_top" xlink:title="Implementation of user interface with OLED display and input handling.">
<polygon fill="white" stroke="#666666" points="155.5,-185 28.5,-185 28.5,-165.75 155.5,-165.75 155.5,-185"/>
<text xml:space="preserve" text-anchor="middle" x="92" y="-171.5" font-family="Helvetica,sans-Serif" font-size="10.00">src/IndicatorInterface.cpp</text>
</a>
</g>
</g>
<!-- Node13&#45;&gt;Node14 -->
<g id="edge17_Node000013_Node000014" class="edge">
<title>Node13&#45;&gt;Node14</title>
<g id="a_edge17_Node000013_Node000014"><a xlink:title=" ">
<path fill="none" stroke="#63b8ff" d="M160.35,-215.09C143.64,-205.63 122.36,-193.58 108.02,-185.45"/>
<polygon fill="#63b8ff" stroke="#63b8ff" points="158.31,-217.96 168.74,-219.85 161.76,-211.87 158.31,-217.96"/>
</a>
</g>
</g>
<!-- Node15&#45;&gt;Node2 -->
<g id="edge20_Node000015_Node000002" class="edge">
<title>Node15&#45;&gt;Node2</title>
<g id="a_edge20_Node000015_Node000002"><a xlink:title=" ">
<path fill="none" stroke="#63b8ff" d="M642.5,-273.13C682.88,-263.36 739.53,-249.65 776.5,-240.7"/>
<polygon fill="#63b8ff" stroke="#63b8ff" points="641.69,-269.73 632.79,-275.49 643.33,-276.53 641.69,-269.73"/>
</a>
</g>
</g>
<!-- Node15&#45;&gt;Node3 -->
<g id="edge27_Node000015_Node000003" class="edge">
<title>Node15&#45;&gt;Node3</title>
<g id="a_edge27_Node000015_Node000003"><a xlink:title=" ">
<path fill="none" stroke="#63b8ff" d="M581.74,-266.54C574.71,-253.67 568.32,-236.13 574,-221 579.5,-206.36 592.21,-193.37 601.64,-185.24"/>
<polygon fill="#63b8ff" stroke="#63b8ff" points="578.57,-268.07 586.75,-274.8 584.56,-264.43 578.57,-268.07"/>
</a>
</g>
</g>
<!-- Node15&#45;&gt;Node9 -->
<g id="edge28_Node000015_Node000009" class="edge">
<title>Node15&#45;&gt;Node9</title>
<g id="a_edge28_Node000015_Node000009"><a xlink:title=" ">
<path fill="none" stroke="#63b8ff" d="M647.35,-272.72C672.15,-265.6 701.32,-255.05 725,-240.25 764.58,-215.52 759.01,-189.81 799,-165.75 828.25,-148.15 865,-136.99 894.44,-130.24"/>
<polygon fill="#63b8ff" stroke="#63b8ff" points="646.47,-269.33 637.76,-275.35 648.32,-276.08 646.47,-269.33"/>
</a>
</g>
</g>
<!-- Node16 -->
<g id="Node000016" class="node">
<title>Node16</title>
<g id="a_Node000016"><a xlink:href="_register_map_8h.html" target="_top" xlink:title="Modbus register mapping for temperature monitoring system.">
<polygon fill="white" stroke="#666666" points="525.75,-240.25 412.25,-240.25 412.25,-221 525.75,-221 525.75,-240.25"/>
<text xml:space="preserve" text-anchor="middle" x="469" y="-226.75" font-family="Helvetica,sans-Serif" font-size="10.00">include/RegisterMap.h</text>
</a>
</g>
</g>
<!-- Node15&#45;&gt;Node16 -->
<g id="edge21_Node000015_Node000016" class="edge">
<title>Node15&#45;&gt;Node16</title>
<g id="a_edge21_Node000015_Node000016"><a xlink:title=" ">
<path fill="none" stroke="#63b8ff" d="M562.37,-271.4C539.82,-261.79 510.1,-249.13 490.31,-240.7"/>
<polygon fill="#63b8ff" stroke="#63b8ff" points="560.83,-274.55 571.4,-275.25 563.57,-268.11 560.83,-274.55"/>
</a>
</g>
</g>
<!-- Node19 -->
<g id="Node000019" class="node">
<title>Node19</title>
<g id="a_Node000019"><a xlink:href="_measurement_point_8cpp.html" target="_top" xlink:title="Implementation of temperature measurement point management.">
<polygon fill="white" stroke="#666666" points="715.5,-240.25 582.5,-240.25 582.5,-221 715.5,-221 715.5,-240.25"/>
<text xml:space="preserve" text-anchor="middle" x="649" y="-226.75" font-family="Helvetica,sans-Serif" font-size="10.00">src/MeasurementPoint.cpp</text>
</a>
</g>
</g>
<!-- Node15&#45;&gt;Node19 -->
<g id="edge29_Node000015_Node000019" class="edge">
<title>Node15&#45;&gt;Node19</title>
<g id="a_edge29_Node000015_Node000019"><a xlink:title=" ">
<path fill="none" stroke="#63b8ff" d="M611.35,-268.07C620.75,-258.98 631.98,-248.1 639.72,-240.61"/>
<polygon fill="#63b8ff" stroke="#63b8ff" points="608.92,-265.56 604.17,-275.03 613.79,-270.59 608.92,-265.56"/>
</a>
</g>
</g>
<!-- Node16&#45;&gt;Node3 -->
<g id="edge25_Node000016_Node000003" class="edge">
<title>Node16&#45;&gt;Node3</title>
<g id="a_edge25_Node000016_Node000003"><a xlink:title=" ">
<path fill="none" stroke="#63b8ff" d="M504.03,-216.67C530.17,-207 565.24,-194.04 588.45,-185.45"/>
<polygon fill="#63b8ff" stroke="#63b8ff" points="503.01,-213.32 494.85,-220.07 505.44,-219.88 503.01,-213.32"/>
</a>
</g>
</g>
<!-- Node16&#45;&gt;Node17 -->
<g id="edge22_Node000016_Node000017" class="edge">
<title>Node16&#45;&gt;Node17</title>
<g id="a_edge22_Node000016_Node000017"><a xlink:title=" ">
<path fill="none" stroke="#63b8ff" d="M426.68,-217.44C392.84,-207.7 346.15,-194.27 315.54,-185.45"/>
<polygon fill="#63b8ff" stroke="#63b8ff" points="425.58,-220.77 436.16,-220.17 427.52,-214.04 425.58,-220.77"/>
</a>
</g>
</g>
<!-- Node18 -->
<g id="Node000018" class="node">
<title>Node18</title>
<g id="a_Node000018"><a xlink:href="_register_map_8cpp.html" target="_top" xlink:title="Implementation of Modbus register mapping for temperature monitoring.">
<polygon fill="white" stroke="#666666" points="518.38,-185 411.62,-185 411.62,-165.75 518.38,-165.75 518.38,-185"/>
<text xml:space="preserve" text-anchor="middle" x="465" y="-171.5" font-family="Helvetica,sans-Serif" font-size="10.00">src/RegisterMap.cpp</text>
</a>
</g>
</g>
<!-- Node16&#45;&gt;Node18 -->
<g id="edge26_Node000016_Node000018" class="edge">
<title>Node16&#45;&gt;Node18</title>
<g id="a_edge26_Node000016_Node000018"><a xlink:title=" ">
<path fill="none" stroke="#63b8ff" d="M467.48,-209.38C466.86,-201.09 466.17,-191.92 465.67,-185.36"/>
<polygon fill="#63b8ff" stroke="#63b8ff" points="463.99,-209.61 468.23,-219.32 470.97,-209.09 463.99,-209.61"/>
</a>
</g>
</g>
<!-- Node17&#45;&gt;Node7 -->
<g id="edge24_Node000017_Node000007" class="edge">
<title>Node17&#45;&gt;Node7</title>
<g id="a_edge24_Node000017_Node000007"><a xlink:title=" ">
<path fill="none" stroke="#63b8ff" d="M281.42,-154.22C276.82,-118.36 267.39,-44.85 264.13,-19.47"/>
<polygon fill="#63b8ff" stroke="#63b8ff" points="277.93,-154.6 282.68,-164.07 284.88,-153.71 277.93,-154.6"/>
</a>
</g>
</g>
<!-- Node17&#45;&gt;Node10 -->
<g id="edge23_Node000017_Node000010" class="edge">
<title>Node17&#45;&gt;Node10</title>
<g id="a_edge23_Node000017_Node000010"><a xlink:title=" ">
<path fill="none" stroke="#63b8ff" d="M313.69,-160.51C334.15,-150.95 360.77,-138.52 378.57,-130.2"/>
<polygon fill="#63b8ff" stroke="#63b8ff" points="312.29,-157.3 304.71,-164.7 315.25,-163.64 312.29,-157.3"/>
</a>
</g>
</g>
</g>
</svg>
