<?xml version="1.0" encoding="UTF-8" standalone="no"?>
<!DOCTYPE svg PUBLIC "-//W3C//DTD SVG 1.1//EN"
 "http://www.w3.org/Graphics/SVG/1.1/DTD/svg11.dtd">
<!-- Generated by graphviz version 13.1.0 (20250701.0955)
 -->
<!-- Title: src/LoggerManager.cpp Pages: 1 -->
<svg width="1182pt" height="359pt"
 viewBox="0.00 0.00 1182.00 359.00" xmlns="http://www.w3.org/2000/svg" xmlns:xlink="http://www.w3.org/1999/xlink">
<g id="graph0" class="graph" transform="scale(1 1) rotate(0) translate(4 354.75)">
<title>src/LoggerManager.cpp</title>
<!-- Node1 -->
<g id="Node000001" class="node">
<title>Node1</title>
<g id="a_Node000001"><a xlink:title=" ">
<polygon fill="#999999" stroke="#666666" points="306.88,-350.75 189.62,-350.75 189.62,-331.5 306.88,-331.5 306.88,-350.75"/>
<text xml:space="preserve" text-anchor="middle" x="248.25" y="-337.25" font-family="Helvetica,sans-Serif" font-size="10.00">src/LoggerManager.cpp</text>
</a>
</g>
</g>
<!-- Node2 -->
<g id="Node000002" class="node">
<title>Node2</title>
<g id="a_Node000002"><a xlink:href="_logger_manager_8h.html" target="_top" xlink:title=" ">
<polygon fill="white" stroke="#666666" points="631.38,-129.75 541.12,-129.75 541.12,-110.5 631.38,-110.5 631.38,-129.75"/>
<text xml:space="preserve" text-anchor="middle" x="586.25" y="-116.25" font-family="Helvetica,sans-Serif" font-size="10.00">LoggerManager.h</text>
</a>
</g>
</g>
<!-- Node1&#45;&gt;Node2 -->
<g id="edge1_Node000001_Node000002" class="edge">
<title>Node1&#45;&gt;Node2</title>
<g id="a_edge1_Node000001_Node000002"><a xlink:title=" ">
<path fill="none" stroke="#63b8ff" d="M250.26,-331.08C257.26,-301.8 283.5,-209.02 343.25,-165.75 372.32,-144.7 467.21,-132.1 529.45,-125.9"/>
<polygon fill="#63b8ff" stroke="#63b8ff" points="529.55,-129.41 539.17,-124.96 528.88,-122.44 529.55,-129.41"/>
</a>
</g>
</g>
<!-- Node14 -->
<g id="Node000014" class="node">
<title>Node14</title>
<g id="a_Node000014"><a xlink:href="_temperature_controller_8h.html" target="_top" xlink:title=" ">
<polygon fill="white" stroke="#666666" points="604,-295.5 484.5,-295.5 484.5,-276.25 604,-276.25 604,-295.5"/>
<text xml:space="preserve" text-anchor="middle" x="544.25" y="-282" font-family="Helvetica,sans-Serif" font-size="10.00">TemperatureController.h</text>
</a>
</g>
</g>
<!-- Node1&#45;&gt;Node14 -->
<g id="edge15_Node000001_Node000014" class="edge">
<title>Node1&#45;&gt;Node14</title>
<g id="a_edge15_Node000001_Node000014"><a xlink:title=" ">
<path fill="none" stroke="#63b8ff" d="M298.8,-331.03C349.67,-321.88 428.19,-307.75 482.67,-297.95"/>
<polygon fill="#63b8ff" stroke="#63b8ff" points="483.2,-301.41 492.42,-296.2 481.96,-294.52 483.2,-301.41"/>
</a>
</g>
</g>
<!-- Node19 -->
<g id="Node000019" class="node">
<title>Node19</title>
<g id="a_Node000019"><a xlink:href="_measurement_point_8h.html" target="_top" xlink:title=" ">
<polygon fill="white" stroke="#666666" points="524.25,-185 418.25,-185 418.25,-165.75 524.25,-165.75 524.25,-185"/>
<text xml:space="preserve" text-anchor="middle" x="471.25" y="-171.5" font-family="Helvetica,sans-Serif" font-size="10.00">MeasurementPoint.h</text>
</a>
</g>
</g>
<!-- Node1&#45;&gt;Node19 -->
<g id="edge48_Node000001_Node000019" class="edge">
<title>Node1&#45;&gt;Node19</title>
<g id="a_edge48_Node000001_Node000019"><a xlink:title=" ">
<path fill="none" stroke="#63b8ff" d="M259.11,-331.09C283.8,-310.69 346.24,-259.82 401.25,-221 415.98,-210.6 433.03,-199.71 446.62,-191.29"/>
<polygon fill="#63b8ff" stroke="#63b8ff" points="448.26,-194.39 454.95,-186.17 444.59,-188.43 448.26,-194.39"/>
</a>
</g>
</g>
<!-- Node2&#45;&gt;Node2 -->
<g id="edge14_Node000002_Node000002" class="edge">
<title>Node2&#45;&gt;Node2</title>
<g id="a_edge14_Node000002_Node000002"><a xlink:title=" ">
<path fill="none" stroke="#63b8ff" d="M619.38,-130.23C635.31,-131.48 649.38,-128.11 649.38,-120.12 649.38,-114.14 641.46,-110.74 630.79,-109.95"/>
<polygon fill="#63b8ff" stroke="#63b8ff" points="630.87,-106.45 620.89,-110.01 630.91,-113.45 630.87,-106.45"/>
</a>
</g>
</g>
<!-- Node3 -->
<g id="Node000003" class="node">
<title>Node3</title>
<g id="a_Node000003"><a xlink:title=" ">
<polygon fill="#e0e0e0" stroke="#999999" points="566.88,-19.25 509.62,-19.25 509.62,0 566.88,0 566.88,-19.25"/>
<text xml:space="preserve" text-anchor="middle" x="538.25" y="-5.75" font-family="Helvetica,sans-Serif" font-size="10.00">Arduino.h</text>
</a>
</g>
</g>
<!-- Node2&#45;&gt;Node3 -->
<g id="edge2_Node000002_Node000003" class="edge">
<title>Node2&#45;&gt;Node3</title>
<g id="a_edge2_Node000002_Node000003"><a xlink:title=" ">
<path fill="none" stroke="#63b8ff" d="M608.02,-110.07C632.35,-98.6 666.47,-77.62 651.25,-55.25 635.05,-31.43 603.97,-20.32 578.5,-15.15"/>
<polygon fill="#63b8ff" stroke="#63b8ff" points="579.21,-11.72 568.76,-13.42 577.99,-18.61 579.21,-11.72"/>
</a>
</g>
</g>
<!-- Node4 -->
<g id="Node000004" class="node">
<title>Node4</title>
<g id="a_Node000004"><a xlink:title=" ">
<polygon fill="#e0e0e0" stroke="#999999" points="641.75,-74.5 604.75,-74.5 604.75,-55.25 641.75,-55.25 641.75,-74.5"/>
<text xml:space="preserve" text-anchor="middle" x="623.25" y="-61" font-family="Helvetica,sans-Serif" font-size="10.00">FS.h</text>
</a>
</g>
</g>
<!-- Node2&#45;&gt;Node4 -->
<g id="edge3_Node000002_Node000004" class="edge">
<title>Node2&#45;&gt;Node4</title>
<g id="a_edge3_Node000002_Node000004"><a xlink:title=" ">
<path fill="none" stroke="#63b8ff" d="M592.36,-110.33C597.31,-103.21 604.45,-92.93 610.62,-84.05"/>
<polygon fill="#63b8ff" stroke="#63b8ff" points="613.31,-86.31 616.14,-76.1 607.56,-82.32 613.31,-86.31"/>
</a>
</g>
</g>
<!-- Node5 -->
<g id="Node000005" class="node">
<title>Node5</title>
<g id="a_Node000005"><a xlink:title=" ">
<polygon fill="#e0e0e0" stroke="#999999" points="586.5,-74.5 548,-74.5 548,-55.25 586.5,-55.25 586.5,-74.5"/>
<text xml:space="preserve" text-anchor="middle" x="567.25" y="-61" font-family="Helvetica,sans-Serif" font-size="10.00">SD.h</text>
</a>
</g>
</g>
<!-- Node2&#45;&gt;Node5 -->
<g id="edge4_Node000002_Node000005" class="edge">
<title>Node2&#45;&gt;Node5</title>
<g id="a_edge4_Node000002_Node000005"><a xlink:title=" ">
<path fill="none" stroke="#63b8ff" d="M583.11,-110.33C580.71,-103.59 577.29,-94.02 574.25,-85.49"/>
<polygon fill="#63b8ff" stroke="#63b8ff" points="577.62,-84.53 570.96,-76.28 571.03,-86.88 577.62,-84.53"/>
</a>
</g>
</g>
<!-- Node6 -->
<g id="Node000006" class="node">
<title>Node6</title>
<g id="a_Node000006"><a xlink:href="_time_manager_8h.html" target="_top" xlink:title=" ">
<polygon fill="white" stroke="#666666" points="416.62,-74.5 333.88,-74.5 333.88,-55.25 416.62,-55.25 416.62,-74.5"/>
<text xml:space="preserve" text-anchor="middle" x="375.25" y="-61" font-family="Helvetica,sans-Serif" font-size="10.00">TimeManager.h</text>
</a>
</g>
</g>
<!-- Node2&#45;&gt;Node6 -->
<g id="edge5_Node000002_Node000006" class="edge">
<title>Node2&#45;&gt;Node6</title>
<g id="a_edge5_Node000002_Node000006"><a xlink:title=" ">
<path fill="none" stroke="#63b8ff" d="M550.46,-110.09C515.14,-101.18 460.97,-87.51 422.21,-77.73"/>
<polygon fill="#63b8ff" stroke="#63b8ff" points="423.24,-74.38 412.69,-75.32 421.53,-81.16 423.24,-74.38"/>
</a>
</g>
</g>
<!-- Node13 -->
<g id="Node000013" class="node">
<title>Node13</title>
<g id="a_Node000013"><a xlink:title=" ">
<polygon fill="#e0e0e0" stroke="#999999" points="947.75,-74.5 904.75,-74.5 904.75,-55.25 947.75,-55.25 947.75,-74.5"/>
<text xml:space="preserve" text-anchor="middle" x="926.25" y="-61" font-family="Helvetica,sans-Serif" font-size="10.00">vector</text>
</a>
</g>
</g>
<!-- Node2&#45;&gt;Node13 -->
<g id="edge13_Node000002_Node000013" class="edge">
<title>Node2&#45;&gt;Node13</title>
<g id="a_edge13_Node000002_Node000013"><a xlink:title=" ">
<path fill="none" stroke="#63b8ff" d="M631.75,-112C701.13,-101.13 831.77,-80.67 892.99,-71.08"/>
<polygon fill="#63b8ff" stroke="#63b8ff" points="893.44,-74.56 902.78,-69.55 892.36,-67.64 893.44,-74.56"/>
</a>
</g>
</g>
<!-- Node6&#45;&gt;Node3 -->
<g id="edge6_Node000006_Node000003" class="edge">
<title>Node6&#45;&gt;Node3</title>
<g id="a_edge6_Node000006_Node000003"><a xlink:title=" ">
<path fill="none" stroke="#63b8ff" d="M402.9,-54.84C429.48,-46.16 469.89,-32.96 499.64,-23.24"/>
<polygon fill="#63b8ff" stroke="#63b8ff" points="500.61,-26.6 509.02,-20.17 498.43,-19.95 500.61,-26.6"/>
</a>
</g>
</g>
<!-- Node7 -->
<g id="Node000007" class="node">
<title>Node7</title>
<g id="a_Node000007"><a xlink:title=" ">
<polygon fill="#e0e0e0" stroke="#999999" points="329.5,-19.25 285,-19.25 285,0 329.5,0 329.5,-19.25"/>
<text xml:space="preserve" text-anchor="middle" x="307.25" y="-5.75" font-family="Helvetica,sans-Serif" font-size="10.00">WiFi.h</text>
</a>
</g>
</g>
<!-- Node6&#45;&gt;Node7 -->
<g id="edge7_Node000006_Node000007" class="edge">
<title>Node6&#45;&gt;Node7</title>
<g id="a_edge7_Node000006_Node000007"><a xlink:title=" ">
<path fill="none" stroke="#63b8ff" d="M363.71,-54.84C353.79,-47.07 339.24,-35.67 327.39,-26.4"/>
<polygon fill="#63b8ff" stroke="#63b8ff" points="329.84,-23.87 319.81,-20.46 325.52,-29.38 329.84,-23.87"/>
</a>
</g>
</g>
<!-- Node8 -->
<g id="Node000008" class="node">
<title>Node8</title>
<g id="a_Node000008"><a xlink:title=" ">
<polygon fill="#e0e0e0" stroke="#999999" points="873.5,-19.25 829,-19.25 829,0 873.5,0 873.5,-19.25"/>
<text xml:space="preserve" text-anchor="middle" x="851.25" y="-5.75" font-family="Helvetica,sans-Serif" font-size="10.00">Wire.h</text>
</a>
</g>
</g>
<!-- Node6&#45;&gt;Node8 -->
<g id="edge8_Node000006_Node000008" class="edge">
<title>Node6&#45;&gt;Node8</title>
<g id="a_edge8_Node000006_Node000008"><a xlink:title=" ">
<path fill="none" stroke="#63b8ff" d="M417.07,-59.2C510.04,-48.8 732.32,-23.93 817.36,-14.42"/>
<polygon fill="#63b8ff" stroke="#63b8ff" points="817.6,-17.91 827.15,-13.32 816.82,-10.95 817.6,-17.91"/>
</a>
</g>
</g>
<!-- Node9 -->
<g id="Node000009" class="node">
<title>Node9</title>
<g id="a_Node000009"><a xlink:title=" ">
<polygon fill="#e0e0e0" stroke="#999999" points="402.75,-19.25 347.75,-19.25 347.75,0 402.75,0 402.75,-19.25"/>
<text xml:space="preserve" text-anchor="middle" x="375.25" y="-5.75" font-family="Helvetica,sans-Serif" font-size="10.00">RTClib.h</text>
</a>
</g>
</g>
<!-- Node6&#45;&gt;Node9 -->
<g id="edge9_Node000006_Node000009" class="edge">
<title>Node6&#45;&gt;Node9</title>
<g id="a_edge9_Node000006_Node000009"><a xlink:title=" ">
<path fill="none" stroke="#63b8ff" d="M375.25,-55.08C375.25,-48.57 375.25,-39.42 375.25,-31.12"/>
<polygon fill="#63b8ff" stroke="#63b8ff" points="378.75,-31.12 375.25,-21.12 371.75,-31.12 378.75,-31.12"/>
</a>
</g>
</g>
<!-- Node10 -->
<g id="Node000010" class="node">
<title>Node10</title>
<g id="a_Node000010"><a xlink:title=" ">
<polygon fill="#e0e0e0" stroke="#999999" points="491.25,-19.25 421.25,-19.25 421.25,0 491.25,0 491.25,-19.25"/>
<text xml:space="preserve" text-anchor="middle" x="456.25" y="-5.75" font-family="Helvetica,sans-Serif" font-size="10.00">NTPClient.h</text>
</a>
</g>
</g>
<!-- Node6&#45;&gt;Node10 -->
<g id="edge10_Node000006_Node000010" class="edge">
<title>Node6&#45;&gt;Node10</title>
<g id="a_edge10_Node000006_Node000010"><a xlink:title=" ">
<path fill="none" stroke="#63b8ff" d="M388.99,-54.84C400.98,-46.96 418.62,-35.36 432.83,-26.02"/>
<polygon fill="#63b8ff" stroke="#63b8ff" points="434.74,-28.95 441.18,-20.53 430.9,-23.1 434.74,-28.95"/>
</a>
</g>
</g>
<!-- Node11 -->
<g id="Node000011" class="node">
<title>Node11</title>
<g id="a_Node000011"><a xlink:title=" ">
<polygon fill="#e0e0e0" stroke="#999999" points="266.5,-19.25 204,-19.25 204,0 266.5,0 266.5,-19.25"/>
<text xml:space="preserve" text-anchor="middle" x="235.25" y="-5.75" font-family="Helvetica,sans-Serif" font-size="10.00">WiFiUdp.h</text>
</a>
</g>
</g>
<!-- Node6&#45;&gt;Node11 -->
<g id="edge11_Node000006_Node000011" class="edge">
<title>Node6&#45;&gt;Node11</title>
<g id="a_edge11_Node000006_Node000011"><a xlink:title=" ">
<path fill="none" stroke="#63b8ff" d="M351.5,-54.84C329.08,-46.31 295.19,-33.42 269.78,-23.76"/>
<polygon fill="#63b8ff" stroke="#63b8ff" points="271.12,-20.52 260.53,-20.24 268.63,-27.07 271.12,-20.52"/>
</a>
</g>
</g>
<!-- Node12 -->
<g id="Node000012" class="node">
<title>Node12</title>
<g id="a_Node000012"><a xlink:title=" ">
<polygon fill="#e0e0e0" stroke="#999999" points="1091.38,-19.25 1013.12,-19.25 1013.12,0 1091.38,0 1091.38,-19.25"/>
<text xml:space="preserve" text-anchor="middle" x="1052.25" y="-5.75" font-family="Helvetica,sans-Serif" font-size="10.00">ArduinoJson.h</text>
</a>
</g>
</g>
<!-- Node6&#45;&gt;Node12 -->
<g id="edge12_Node000006_Node000012" class="edge">
<title>Node6&#45;&gt;Node12</title>
<g id="a_edge12_Node000006_Node000012"><a xlink:title=" ">
<path fill="none" stroke="#63b8ff" d="M417.09,-60.58C535.48,-51.27 872.59,-24.76 1001.38,-14.63"/>
<polygon fill="#63b8ff" stroke="#63b8ff" points="1001.62,-18.12 1011.31,-13.84 1001.07,-11.14 1001.62,-18.12"/>
</a>
</g>
</g>
<!-- Node14&#45;&gt;Node3 -->
<g id="edge16_Node000014_Node000003" class="edge">
<title>Node14&#45;&gt;Node3</title>
<g id="a_edge16_Node000014_Node000003"><a xlink:title=" ">
<path fill="none" stroke="#63b8ff" d="M592.34,-275.83C642.92,-263.2 715.25,-234.92 715.25,-176.38 715.25,-176.38 715.25,-176.38 715.25,-119.12 715.25,-55.29 630.54,-27.85 578.32,-17"/>
<polygon fill="#63b8ff" stroke="#63b8ff" points="579.05,-13.58 568.57,-15.1 577.72,-20.45 579.05,-13.58"/>
</a>
</g>
</g>
<!-- Node14&#45;&gt;Node12 -->
<g id="edge46_Node000014_Node000012" class="edge">
<title>Node14&#45;&gt;Node12</title>
<g id="a_edge46_Node000014_Node000012"><a xlink:title=" ">
<path fill="none" stroke="#63b8ff" d="M604.37,-280.8C761.84,-269.34 1174.25,-233.84 1174.25,-176.38 1174.25,-176.38 1174.25,-176.38 1174.25,-119.12 1174.25,-72.17 1123.17,-40.55 1087.11,-24.08"/>
<polygon fill="#63b8ff" stroke="#63b8ff" points="1088.89,-21.04 1078.33,-20.25 1086.09,-27.46 1088.89,-21.04"/>
</a>
</g>
</g>
<!-- Node14&#45;&gt;Node13 -->
<g id="edge17_Node000014_Node000013" class="edge">
<title>Node14&#45;&gt;Node13</title>
<g id="a_edge17_Node000014_Node000013"><a xlink:title=" ">
<path fill="none" stroke="#63b8ff" d="M604.46,-280.84C663.57,-275.66 755.74,-264.27 832.25,-240.25 938.92,-206.76 999.05,-224.6 1058.25,-129.75 1082.74,-90.51 1005.98,-74.8 959.35,-68.98"/>
<polygon fill="#63b8ff" stroke="#63b8ff" points="959.79,-65.5 949.45,-67.85 958.99,-72.46 959.79,-65.5"/>
</a>
</g>
</g>
<!-- Node15 -->
<g id="Node000015" class="node">
<title>Node15</title>
<g id="a_Node000015"><a xlink:href="_sensor_8h.html" target="_top" xlink:title=" ">
<polygon fill="white" stroke="#666666" points="368.38,-129.75 314.12,-129.75 314.12,-110.5 368.38,-110.5 368.38,-129.75"/>
<text xml:space="preserve" text-anchor="middle" x="341.25" y="-116.25" font-family="Helvetica,sans-Serif" font-size="10.00">Sensor.h</text>
</a>
</g>
</g>
<!-- Node14&#45;&gt;Node15 -->
<g id="edge18_Node000014_Node000015" class="edge">
<title>Node14&#45;&gt;Node15</title>
<g id="a_edge18_Node000014_Node000015"><a xlink:title=" ">
<path fill="none" stroke="#63b8ff" d="M496.6,-275.78C467.65,-268.89 430.73,-257.59 401.25,-240.25 370.57,-222.2 357.78,-217.5 343.25,-185 337.07,-171.18 336.91,-153.96 338.11,-140.88"/>
<polygon fill="#63b8ff" stroke="#63b8ff" points="341.53,-141.72 339.33,-131.35 334.58,-140.83 341.53,-141.72"/>
</a>
</g>
</g>
<!-- Node16 -->
<g id="Node000016" class="node">
<title>Node16</title>
<g id="a_Node000016"><a xlink:title=" ">
<polygon fill="#e0e0e0" stroke="#999999" points="62.5,-74.5 0,-74.5 0,-55.25 62.5,-55.25 62.5,-74.5"/>
<text xml:space="preserve" text-anchor="middle" x="31.25" y="-61" font-family="Helvetica,sans-Serif" font-size="10.00">OneWire.h</text>
</a>
</g>
</g>
<!-- Node14&#45;&gt;Node16 -->
<g id="edge44_Node000014_Node000016" class="edge">
<title>Node14&#45;&gt;Node16</title>
<g id="a_edge44_Node000014_Node000016"><a xlink:title=" ">
<path fill="none" stroke="#63b8ff" d="M484.27,-277.95C439.84,-271.54 378.4,-259.95 327.25,-240.25 216.54,-197.62 99.18,-115.97 52.33,-81.66"/>
<polygon fill="#63b8ff" stroke="#63b8ff" points="54.53,-78.94 44.41,-75.81 50.37,-84.57 54.53,-78.94"/>
</a>
</g>
</g>
<!-- Node17 -->
<g id="Node000017" class="node">
<title>Node17</title>
<g id="a_Node000017"><a xlink:title=" ">
<polygon fill="#e0e0e0" stroke="#999999" points="186.25,-74.5 80.25,-74.5 80.25,-55.25 186.25,-55.25 186.25,-74.5"/>
<text xml:space="preserve" text-anchor="middle" x="133.25" y="-61" font-family="Helvetica,sans-Serif" font-size="10.00">DallasTemperature.h</text>
</a>
</g>
</g>
<!-- Node14&#45;&gt;Node17 -->
<g id="edge45_Node000014_Node000017" class="edge">
<title>Node14&#45;&gt;Node17</title>
<g id="a_edge45_Node000014_Node000017"><a xlink:title=" ">
<path fill="none" stroke="#63b8ff" d="M484.11,-275.94C448.62,-269.19 403.51,-257.97 366.25,-240.25 276.24,-197.43 186.59,-117.05 150.2,-82.43"/>
<polygon fill="#63b8ff" stroke="#63b8ff" points="152.85,-80.12 143.21,-75.71 147.99,-85.17 152.85,-80.12"/>
</a>
</g>
</g>
<!-- Node14&#45;&gt;Node19 -->
<g id="edge23_Node000014_Node000019" class="edge">
<title>Node14&#45;&gt;Node19</title>
<g id="a_edge23_Node000014_Node000019"><a xlink:title=" ">
<path fill="none" stroke="#63b8ff" d="M538.28,-276C526.35,-258.27 499.39,-218.19 483.53,-194.63"/>
<polygon fill="#63b8ff" stroke="#63b8ff" points="486.64,-192.98 478.15,-186.63 480.83,-196.88 486.64,-192.98"/>
</a>
</g>
</g>
<!-- Node20 -->
<g id="Node000020" class="node">
<title>Node20</title>
<g id="a_Node000020"><a xlink:href="_register_map_8h.html" target="_top" xlink:title=" ">
<polygon fill="white" stroke="#666666" points="490.12,-240.25 410.38,-240.25 410.38,-221 490.12,-221 490.12,-240.25"/>
<text xml:space="preserve" text-anchor="middle" x="450.25" y="-226.75" font-family="Helvetica,sans-Serif" font-size="10.00">RegisterMap.h</text>
</a>
</g>
</g>
<!-- Node14&#45;&gt;Node20 -->
<g id="edge27_Node000014_Node000020" class="edge">
<title>Node14&#45;&gt;Node20</title>
<g id="a_edge27_Node000014_Node000020"><a xlink:title=" ">
<path fill="none" stroke="#63b8ff" d="M528.3,-275.84C513.99,-267.73 492.72,-255.68 476,-246.21"/>
<polygon fill="#63b8ff" stroke="#63b8ff" points="478.02,-243.33 467.59,-241.45 474.57,-249.42 478.02,-243.33"/>
</a>
</g>
</g>
<!-- Node22 -->
<g id="Node000022" class="node">
<title>Node22</title>
<g id="a_Node000022"><a xlink:href="_indicator_interface_8h.html" target="_top" xlink:title=" ">
<polygon fill="white" stroke="#666666" points="903.25,-185 803.25,-185 803.25,-165.75 903.25,-165.75 903.25,-185"/>
<text xml:space="preserve" text-anchor="middle" x="853.25" y="-171.5" font-family="Helvetica,sans-Serif" font-size="10.00">IndicatorInterface.h</text>
</a>
</g>
</g>
<!-- Node14&#45;&gt;Node22 -->
<g id="edge30_Node000014_Node000022" class="edge">
<title>Node14&#45;&gt;Node22</title>
<g id="a_edge30_Node000014_Node000022"><a xlink:title=" ">
<path fill="none" stroke="#63b8ff" d="M604.38,-280.09C671.54,-273.82 775.17,-261.1 808.25,-240.25 825.26,-229.53 837.66,-209.81 845.08,-195.11"/>
<polygon fill="#63b8ff" stroke="#63b8ff" points="848.07,-196.98 849.14,-186.44 841.73,-194.01 848.07,-196.98"/>
</a>
</g>
</g>
<!-- Node27 -->
<g id="Node000027" class="node">
<title>Node27</title>
<g id="a_Node000027"><a xlink:href="_alarm_8h.html" target="_top" xlink:title=" ">
<polygon fill="white" stroke="#666666" points="596.12,-240.25 546.38,-240.25 546.38,-221 596.12,-221 596.12,-240.25"/>
<text xml:space="preserve" text-anchor="middle" x="571.25" y="-226.75" font-family="Helvetica,sans-Serif" font-size="10.00">Alarm.h</text>
</a>
</g>
</g>
<!-- Node14&#45;&gt;Node27 -->
<g id="edge39_Node000014_Node000027" class="edge">
<title>Node14&#45;&gt;Node27</title>
<g id="a_edge39_Node000014_Node000027"><a xlink:title=" ">
<path fill="none" stroke="#63b8ff" d="M548.71,-276.08C552.2,-269.19 557.2,-259.34 561.6,-250.66"/>
<polygon fill="#63b8ff" stroke="#63b8ff" points="564.61,-252.46 566.01,-241.96 558.37,-249.3 564.61,-252.46"/>
</a>
</g>
</g>
<!-- Node28 -->
<g id="Node000028" class="node">
<title>Node28</title>
<g id="a_Node000028"><a xlink:title=" ">
<polygon fill="#e0e0e0" stroke="#999999" points="799.12,-240.25 743.38,-240.25 743.38,-221 799.12,-221 799.12,-240.25"/>
<text xml:space="preserve" text-anchor="middle" x="771.25" y="-226.75" font-family="Helvetica,sans-Serif" font-size="10.00">algorithm</text>
</a>
</g>
</g>
<!-- Node14&#45;&gt;Node28 -->
<g id="edge47_Node000014_Node000028" class="edge">
<title>Node14&#45;&gt;Node28</title>
<g id="a_edge47_Node000014_Node000028"><a xlink:title=" ">
<path fill="none" stroke="#63b8ff" d="M583.01,-275.78C624.57,-266.03 690.18,-250.64 731.94,-240.85"/>
<polygon fill="#63b8ff" stroke="#63b8ff" points="732.64,-244.28 741.57,-238.59 731.04,-237.46 732.64,-244.28"/>
</a>
</g>
</g>
<!-- Node15&#45;&gt;Node3 -->
<g id="edge19_Node000015_Node000003" class="edge">
<title>Node15&#45;&gt;Node3</title>
<g id="a_edge19_Node000015_Node000003"><a xlink:title=" ">
<path fill="none" stroke="#63b8ff" d="M358.7,-110.03C375.74,-101.1 402.37,-87.04 425.25,-74.5 455.45,-57.95 489.85,-38.4 512.69,-25.33"/>
<polygon fill="#63b8ff" stroke="#63b8ff" points="514.35,-28.41 521.29,-20.39 510.87,-22.33 514.35,-28.41"/>
</a>
</g>
</g>
<!-- Node15&#45;&gt;Node16 -->
<g id="edge20_Node000015_Node000016" class="edge">
<title>Node15&#45;&gt;Node16</title>
<g id="a_edge20_Node000015_Node000016"><a xlink:title=" ">
<path fill="none" stroke="#63b8ff" d="M313.96,-115.06C267.01,-107.98 167.65,-92.57 73.78,-74.91"/>
<polygon fill="#63b8ff" stroke="#63b8ff" points="74.63,-71.51 64.15,-73.08 73.32,-78.38 74.63,-71.51"/>
</a>
</g>
</g>
<!-- Node15&#45;&gt;Node17 -->
<g id="edge21_Node000015_Node000017" class="edge">
<title>Node15&#45;&gt;Node17</title>
<g id="a_edge21_Node000015_Node000017"><a xlink:title=" ">
<path fill="none" stroke="#63b8ff" d="M313.63,-112.05C279.49,-103.31 220.87,-88.31 179.75,-77.78"/>
<polygon fill="#63b8ff" stroke="#63b8ff" points="180.67,-74.4 170.11,-75.31 178.93,-81.18 180.67,-74.4"/>
</a>
</g>
</g>
<!-- Node18 -->
<g id="Node000018" class="node">
<title>Node18</title>
<g id="a_Node000018"><a xlink:title=" ">
<polygon fill="#e0e0e0" stroke="#999999" points="315.88,-74.5 204.62,-74.5 204.62,-55.25 315.88,-55.25 315.88,-74.5"/>
<text xml:space="preserve" text-anchor="middle" x="260.25" y="-61" font-family="Helvetica,sans-Serif" font-size="10.00">Adafruit_MAX31865.h</text>
</a>
</g>
</g>
<!-- Node15&#45;&gt;Node18 -->
<g id="edge22_Node000015_Node000018" class="edge">
<title>Node15&#45;&gt;Node18</title>
<g id="a_edge22_Node000015_Node000018"><a xlink:title=" ">
<path fill="none" stroke="#63b8ff" d="M327.51,-110.09C315.52,-102.21 297.88,-90.61 283.67,-81.27"/>
<polygon fill="#63b8ff" stroke="#63b8ff" points="285.6,-78.35 275.32,-75.78 281.76,-84.2 285.6,-78.35"/>
</a>
</g>
</g>
<!-- Node19&#45;&gt;Node2 -->
<g id="edge26_Node000019_Node000002" class="edge">
<title>Node19&#45;&gt;Node2</title>
<g id="a_edge26_Node000019_Node000002"><a xlink:title=" ">
<path fill="none" stroke="#63b8ff" d="M490.76,-165.34C508.77,-157 535.77,-144.5 556.48,-134.91"/>
<polygon fill="#63b8ff" stroke="#63b8ff" points="557.67,-138.22 565.27,-130.84 554.73,-131.86 557.67,-138.22"/>
</a>
</g>
</g>
<!-- Node19&#45;&gt;Node3 -->
<g id="edge24_Node000019_Node000003" class="edge">
<title>Node19&#45;&gt;Node3</title>
<g id="a_edge24_Node000019_Node000003"><a xlink:title=" ">
<path fill="none" stroke="#63b8ff" d="M472.83,-165.33C476.62,-144.91 487.35,-94 506.25,-55.25 510.84,-45.85 517.37,-36.32 523.33,-28.48"/>
<polygon fill="#63b8ff" stroke="#63b8ff" points="525.96,-30.8 529.46,-20.8 520.49,-26.44 525.96,-30.8"/>
</a>
</g>
</g>
<!-- Node19&#45;&gt;Node15 -->
<g id="edge25_Node000019_Node000015" class="edge">
<title>Node19&#45;&gt;Node15</title>
<g id="a_edge25_Node000019_Node000015"><a xlink:title=" ">
<path fill="none" stroke="#63b8ff" d="M449.2,-165.34C428.56,-156.89 397.47,-144.15 373.95,-134.52"/>
<polygon fill="#63b8ff" stroke="#63b8ff" points="375.39,-131.33 364.81,-130.78 372.74,-137.81 375.39,-131.33"/>
</a>
</g>
</g>
<!-- Node20&#45;&gt;Node19 -->
<g id="edge29_Node000020_Node000019" class="edge">
<title>Node20&#45;&gt;Node19</title>
<g id="a_edge29_Node000020_Node000019"><a xlink:title=" ">
<path fill="none" stroke="#63b8ff" d="M453.72,-220.83C456.38,-214.09 460.15,-204.52 463.51,-195.99"/>
<polygon fill="#63b8ff" stroke="#63b8ff" points="466.74,-197.35 467.15,-186.77 460.23,-194.79 466.74,-197.35"/>
</a>
</g>
</g>
<!-- Node21 -->
<g id="Node000021" class="node">
<title>Node21</title>
<g id="a_Node000021"><a xlink:title=" ">
<polygon fill="#e0e0e0" stroke="#999999" points="400.38,-185 352.12,-185 352.12,-165.75 400.38,-165.75 400.38,-185"/>
<text xml:space="preserve" text-anchor="middle" x="376.25" y="-171.5" font-family="Helvetica,sans-Serif" font-size="10.00">stdint.h</text>
</a>
</g>
</g>
<!-- Node20&#45;&gt;Node21 -->
<g id="edge28_Node000020_Node000021" class="edge">
<title>Node20&#45;&gt;Node21</title>
<g id="a_edge28_Node000020_Node000021"><a xlink:title=" ">
<path fill="none" stroke="#63b8ff" d="M437.7,-220.59C426.79,-212.74 410.75,-201.2 397.79,-191.87"/>
<polygon fill="#63b8ff" stroke="#63b8ff" points="400.01,-189.16 389.85,-186.16 395.92,-194.84 400.01,-189.16"/>
</a>
</g>
</g>
<!-- Node22&#45;&gt;Node2 -->
<g id="edge38_Node000022_Node000002" class="edge">
<title>Node22&#45;&gt;Node2</title>
<g id="a_edge38_Node000022_Node000002"><a xlink:title=" ">
<path fill="none" stroke="#63b8ff" d="M807.65,-165.28C762.06,-156.19 691.83,-142.18 642.73,-132.39"/>
<polygon fill="#63b8ff" stroke="#63b8ff" points="643.63,-129 633.14,-130.48 642.26,-135.87 643.63,-129"/>
</a>
</g>
</g>
<!-- Node22&#45;&gt;Node3 -->
<g id="edge31_Node000022_Node000003" class="edge">
<title>Node22&#45;&gt;Node3</title>
<g id="a_edge31_Node000022_Node000003"><a xlink:title=" ">
<path fill="none" stroke="#63b8ff" d="M829.42,-165.36C812,-157.86 788.65,-145.82 772.25,-129.75 744.95,-102.99 759.95,-78.03 729.25,-55.25 684.85,-22.3 619.95,-13.2 578.4,-10.94"/>
<polygon fill="#63b8ff" stroke="#63b8ff" points="578.73,-7.46 568.6,-10.53 578.44,-14.45 578.73,-7.46"/>
</a>
</g>
</g>
<!-- Node22&#45;&gt;Node8 -->
<g id="edge32_Node000022_Node000008" class="edge">
<title>Node22&#45;&gt;Node8</title>
<g id="a_edge32_Node000022_Node000008"><a xlink:title=" ">
<path fill="none" stroke="#63b8ff" d="M903.43,-170.53C957.74,-165.21 1039.17,-153.43 1058.25,-129.75 1110.12,-65.37 955.6,-29.01 884.74,-16.08"/>
<polygon fill="#63b8ff" stroke="#63b8ff" points="885.68,-12.69 875.22,-14.4 884.46,-19.58 885.68,-12.69"/>
</a>
</g>
</g>
<!-- Node22&#45;&gt;Node13 -->
<g id="edge37_Node000022_Node000013" class="edge">
<title>Node22&#45;&gt;Node13</title>
<g id="a_edge37_Node000022_Node000013"><a xlink:title=" ">
<path fill="none" stroke="#63b8ff" d="M903.4,-169.42C953.15,-163.35 1024.35,-151.13 1041.25,-129.75 1066.36,-97.98 1001.51,-79.57 959.27,-71.26"/>
<polygon fill="#63b8ff" stroke="#63b8ff" points="960.01,-67.84 949.54,-69.46 958.74,-74.72 960.01,-67.84"/>
</a>
</g>
</g>
<!-- Node23 -->
<g id="Node000023" class="node">
<title>Node23</title>
<g id="a_Node000023"><a xlink:title=" ">
<polygon fill="#e0e0e0" stroke="#999999" points="815.62,-129.75 780.88,-129.75 780.88,-110.5 815.62,-110.5 815.62,-129.75"/>
<text xml:space="preserve" text-anchor="middle" x="798.25" y="-116.25" font-family="Helvetica,sans-Serif" font-size="10.00">map</text>
</a>
</g>
</g>
<!-- Node22&#45;&gt;Node23 -->
<g id="edge33_Node000022_Node000023" class="edge">
<title>Node22&#45;&gt;Node23</title>
<g id="a_edge33_Node000022_Node000023"><a xlink:title=" ">
<path fill="none" stroke="#63b8ff" d="M844.17,-165.58C836.41,-158.07 825.04,-147.06 815.55,-137.88"/>
<polygon fill="#63b8ff" stroke="#63b8ff" points="818.24,-135.6 808.62,-131.16 813.37,-140.63 818.24,-135.6"/>
</a>
</g>
</g>
<!-- Node24 -->
<g id="Node000024" class="node">
<title>Node24</title>
<g id="a_Node000024"><a xlink:title=" ">
<polygon fill="#e0e0e0" stroke="#999999" points="873.25,-129.75 833.25,-129.75 833.25,-110.5 873.25,-110.5 873.25,-129.75"/>
<text xml:space="preserve" text-anchor="middle" x="853.25" y="-116.25" font-family="Helvetica,sans-Serif" font-size="10.00">string</text>
</a>
</g>
</g>
<!-- Node22&#45;&gt;Node24 -->
<g id="edge34_Node000022_Node000024" class="edge">
<title>Node22&#45;&gt;Node24</title>
<g id="a_edge34_Node000022_Node000024"><a xlink:title=" ">
<path fill="none" stroke="#63b8ff" d="M853.25,-165.58C853.25,-159.07 853.25,-149.92 853.25,-141.62"/>
<polygon fill="#63b8ff" stroke="#63b8ff" points="856.75,-141.62 853.25,-131.62 849.75,-141.62 856.75,-141.62"/>
</a>
</g>
</g>
<!-- Node25 -->
<g id="Node000025" class="node">
<title>Node25</title>
<g id="a_Node000025"><a xlink:title=" ">
<polygon fill="#e0e0e0" stroke="#999999" points="957,-129.75 891.5,-129.75 891.5,-110.5 957,-110.5 957,-129.75"/>
<text xml:space="preserve" text-anchor="middle" x="924.25" y="-116.25" font-family="Helvetica,sans-Serif" font-size="10.00">PCF8575.h</text>
</a>
</g>
</g>
<!-- Node22&#45;&gt;Node25 -->
<g id="edge35_Node000022_Node000025" class="edge">
<title>Node22&#45;&gt;Node25</title>
<g id="a_edge35_Node000022_Node000025"><a xlink:title=" ">
<path fill="none" stroke="#63b8ff" d="M865.29,-165.34C875.66,-157.57 890.85,-146.17 903.22,-136.9"/>
<polygon fill="#63b8ff" stroke="#63b8ff" points="905.27,-139.73 911.17,-130.93 901.07,-134.13 905.27,-139.73"/>
</a>
</g>
</g>
<!-- Node26 -->
<g id="Node000026" class="node">
<title>Node26</title>
<g id="a_Node000026"><a xlink:title=" ">
<polygon fill="#e0e0e0" stroke="#999999" points="1031.88,-129.75 974.62,-129.75 974.62,-110.5 1031.88,-110.5 1031.88,-129.75"/>
<text xml:space="preserve" text-anchor="middle" x="1003.25" y="-116.25" font-family="Helvetica,sans-Serif" font-size="10.00">U8g2lib.h</text>
</a>
</g>
</g>
<!-- Node22&#45;&gt;Node26 -->
<g id="edge36_Node000022_Node000026" class="edge">
<title>Node22&#45;&gt;Node26</title>
<g id="a_edge36_Node000022_Node000026"><a xlink:title=" ">
<path fill="none" stroke="#63b8ff" d="M878.7,-165.34C902.94,-156.74 939.68,-143.69 966.99,-134"/>
<polygon fill="#63b8ff" stroke="#63b8ff" points="968,-137.35 976.25,-130.71 965.66,-130.76 968,-137.35"/>
</a>
</g>
</g>
<!-- Node27&#45;&gt;Node2 -->
<g id="edge43_Node000027_Node000002" class="edge">
<title>Node27&#45;&gt;Node2</title>
<g id="a_edge43_Node000027_Node000002"><a xlink:title=" ">
<path fill="none" stroke="#63b8ff" d="M572.48,-220.75C574.86,-203.5 580.17,-165.08 583.46,-141.31"/>
<polygon fill="#63b8ff" stroke="#63b8ff" points="586.9,-142.01 584.8,-131.63 579.96,-141.05 586.9,-142.01"/>
</a>
</g>
</g>
<!-- Node27&#45;&gt;Node3 -->
<g id="edge40_Node000027_Node000003" class="edge">
<title>Node27&#45;&gt;Node3</title>
<g id="a_edge40_Node000027_Node000003"><a xlink:title=" ">
<path fill="none" stroke="#63b8ff" d="M566.4,-220.6C557.49,-203.49 538.86,-164.87 532.25,-129.75 525.79,-95.42 530.45,-54.61 534.38,-30.77"/>
<polygon fill="#63b8ff" stroke="#63b8ff" points="537.78,-31.64 536.09,-21.18 530.88,-30.41 537.78,-31.64"/>
</a>
</g>
</g>
<!-- Node27&#45;&gt;Node13 -->
<g id="edge41_Node000027_Node000013" class="edge">
<title>Node27&#45;&gt;Node13</title>
<g id="a_edge41_Node000027_Node000013"><a xlink:title=" ">
<path fill="none" stroke="#63b8ff" d="M583.81,-220.63C614.57,-198.95 696.68,-143.21 772.25,-110.5 812.63,-93.02 861.87,-80.11 893.62,-72.79"/>
<polygon fill="#63b8ff" stroke="#63b8ff" points="894.01,-76.29 903,-70.68 892.48,-69.46 894.01,-76.29"/>
</a>
</g>
</g>
<!-- Node27&#45;&gt;Node19 -->
<g id="edge42_Node000027_Node000019" class="edge">
<title>Node27&#45;&gt;Node19</title>
<g id="a_edge42_Node000027_Node000019"><a xlink:title=" ">
<path fill="none" stroke="#63b8ff" d="M554.29,-220.59C538.99,-212.44 516.22,-200.32 498.39,-190.83"/>
<polygon fill="#63b8ff" stroke="#63b8ff" points="500.1,-187.77 489.63,-186.16 496.81,-193.95 500.1,-187.77"/>
</a>
</g>
</g>
</g>
</svg>
