<?xml version="1.0" encoding="UTF-8" standalone="no"?>
<!DOCTYPE svg PUBLIC "-//W3C//DTD SVG 1.1//EN"
 "http://www.w3.org/Graphics/SVG/1.1/DTD/svg11.dtd">
<!-- Generated by graphviz version 13.1.0 (20250701.0955)
 -->
<!-- Title: include/MeasurementPoint.h Pages: 1 -->
<svg width="811pt" height="193pt"
 viewBox="0.00 0.00 811.00 193.00" xmlns="http://www.w3.org/2000/svg" xmlns:xlink="http://www.w3.org/1999/xlink">
<g id="graph0" class="graph" transform="scale(1 1) rotate(0) translate(4 189)">
<title>include/MeasurementPoint.h</title>
<!-- Node1 -->
<g id="Node000001" class="node">
<title>Node1</title>
<g id="a_Node000001"><a xlink:title="Measurement point abstraction for temperature monitoring system.">
<polygon fill="#999999" stroke="#666666" points="178.14,-185 38.39,-185 38.39,-165.75 178.14,-165.75 178.14,-185"/>
<text xml:space="preserve" text-anchor="middle" x="108.26" y="-171.5" font-family="Helvetica,sans-Serif" font-size="10.00">include/MeasurementPoint.h</text>
</a>
</g>
</g>
<!-- Node2 -->
<g id="Node000002" class="node">
<title>Node2</title>
<g id="a_Node000002"><a xlink:title=" ">
<polygon fill="#e0e0e0" stroke="#999999" points="203.89,-19.25 146.64,-19.25 146.64,0 203.89,0 203.89,-19.25"/>
<text xml:space="preserve" text-anchor="middle" x="175.26" y="-5.75" font-family="Helvetica,sans-Serif" font-size="10.00">Arduino.h</text>
</a>
</g>
</g>
<!-- Node1&#45;&gt;Node2 -->
<g id="edge1_Node000001_Node000002" class="edge">
<title>Node1&#45;&gt;Node2</title>
<g id="a_edge1_Node000001_Node000002"><a xlink:title=" ">
<path fill="none" stroke="#63b8ff" d="M90.17,-165.33C53.33,-145.73 -24.3,-97.66 8.26,-55.25 23.61,-35.26 90.73,-22.29 135.06,-15.73"/>
<polygon fill="#63b8ff" stroke="#63b8ff" points="135.44,-19.21 144.85,-14.34 134.46,-12.28 135.44,-19.21"/>
</a>
</g>
</g>
<!-- Node3 -->
<g id="Node000003" class="node">
<title>Node3</title>
<g id="a_Node000003"><a xlink:href="_sensor_8h.html" target="_top" xlink:title="Temperature sensor abstraction layer.">
<polygon fill="white" stroke="#666666" points="135.39,-129.75 81.14,-129.75 81.14,-110.5 135.39,-110.5 135.39,-129.75"/>
<text xml:space="preserve" text-anchor="middle" x="108.26" y="-116.25" font-family="Helvetica,sans-Serif" font-size="10.00">Sensor.h</text>
</a>
</g>
</g>
<!-- Node1&#45;&gt;Node3 -->
<g id="edge2_Node000001_Node000003" class="edge">
<title>Node1&#45;&gt;Node3</title>
<g id="a_edge2_Node000001_Node000003"><a xlink:title=" ">
<path fill="none" stroke="#63b8ff" d="M108.26,-165.58C108.26,-159.07 108.26,-149.92 108.26,-141.62"/>
<polygon fill="#63b8ff" stroke="#63b8ff" points="111.76,-141.62 108.26,-131.62 104.76,-141.62 111.76,-141.62"/>
</a>
</g>
</g>
<!-- Node7 -->
<g id="Node000007" class="node">
<title>Node7</title>
<g id="a_Node000007"><a xlink:href="_logger_manager_8h.html" target="_top" xlink:title="Comprehensive data and event logging system for temperature monitoring.">
<polygon fill="white" stroke="#666666" points="490.39,-129.75 400.14,-129.75 400.14,-110.5 490.39,-110.5 490.39,-129.75"/>
<text xml:space="preserve" text-anchor="middle" x="445.26" y="-116.25" font-family="Helvetica,sans-Serif" font-size="10.00">LoggerManager.h</text>
</a>
</g>
</g>
<!-- Node1&#45;&gt;Node7 -->
<g id="edge7_Node000001_Node000007" class="edge">
<title>Node1&#45;&gt;Node7</title>
<g id="a_edge7_Node000001_Node000007"><a xlink:title=" ">
<path fill="none" stroke="#63b8ff" d="M165.81,-165.28C228.11,-155.44 326.82,-139.84 388.72,-130.06"/>
<polygon fill="#63b8ff" stroke="#63b8ff" points="389.01,-133.56 398.34,-128.54 387.92,-126.64 389.01,-133.56"/>
</a>
</g>
</g>
<!-- Node3&#45;&gt;Node2 -->
<g id="edge3_Node000003_Node000002" class="edge">
<title>Node3&#45;&gt;Node2</title>
<g id="a_edge3_Node000003_Node000002"><a xlink:title=" ">
<path fill="none" stroke="#63b8ff" d="M80.86,-112.16C47.17,-102.26 -3.18,-82.26 17.26,-55.25 31.45,-36.5 92.98,-23.38 134.93,-16.43"/>
<polygon fill="#63b8ff" stroke="#63b8ff" points="135.37,-19.9 144.7,-14.87 134.27,-12.99 135.37,-19.9"/>
</a>
</g>
</g>
<!-- Node4 -->
<g id="Node000004" class="node">
<title>Node4</title>
<g id="a_Node000004"><a xlink:title=" ">
<polygon fill="#e0e0e0" stroke="#999999" points="88.51,-74.5 26.01,-74.5 26.01,-55.25 88.51,-55.25 88.51,-74.5"/>
<text xml:space="preserve" text-anchor="middle" x="57.26" y="-61" font-family="Helvetica,sans-Serif" font-size="10.00">OneWire.h</text>
</a>
</g>
</g>
<!-- Node3&#45;&gt;Node4 -->
<g id="edge4_Node000003_Node000004" class="edge">
<title>Node3&#45;&gt;Node4</title>
<g id="a_edge4_Node000003_Node000004"><a xlink:title=" ">
<path fill="none" stroke="#63b8ff" d="M99.84,-110.33C92.72,-102.9 82.32,-92.04 73.58,-82.91"/>
<polygon fill="#63b8ff" stroke="#63b8ff" points="76.36,-80.75 66.91,-75.95 71.3,-85.6 76.36,-80.75"/>
</a>
</g>
</g>
<!-- Node5 -->
<g id="Node000005" class="node">
<title>Node5</title>
<g id="a_Node000005"><a xlink:title=" ">
<polygon fill="#e0e0e0" stroke="#999999" points="212.26,-74.5 106.26,-74.5 106.26,-55.25 212.26,-55.25 212.26,-74.5"/>
<text xml:space="preserve" text-anchor="middle" x="159.26" y="-61" font-family="Helvetica,sans-Serif" font-size="10.00">DallasTemperature.h</text>
</a>
</g>
</g>
<!-- Node3&#45;&gt;Node5 -->
<g id="edge5_Node000003_Node000005" class="edge">
<title>Node3&#45;&gt;Node5</title>
<g id="a_edge5_Node000003_Node000005"><a xlink:title=" ">
<path fill="none" stroke="#63b8ff" d="M116.68,-110.33C123.8,-102.9 134.21,-92.04 142.95,-82.91"/>
<polygon fill="#63b8ff" stroke="#63b8ff" points="145.22,-85.6 149.61,-75.95 140.17,-80.75 145.22,-85.6"/>
</a>
</g>
</g>
<!-- Node6 -->
<g id="Node000006" class="node">
<title>Node6</title>
<g id="a_Node000006"><a xlink:title=" ">
<polygon fill="#e0e0e0" stroke="#999999" points="341.89,-74.5 230.64,-74.5 230.64,-55.25 341.89,-55.25 341.89,-74.5"/>
<text xml:space="preserve" text-anchor="middle" x="286.26" y="-61" font-family="Helvetica,sans-Serif" font-size="10.00">Adafruit_MAX31865.h</text>
</a>
</g>
</g>
<!-- Node3&#45;&gt;Node6 -->
<g id="edge6_Node000003_Node000006" class="edge">
<title>Node3&#45;&gt;Node6</title>
<g id="a_edge6_Node000003_Node000006"><a xlink:title=" ">
<path fill="none" stroke="#63b8ff" d="M135.68,-110.92C164.86,-102.19 211.35,-88.28 244.96,-78.23"/>
<polygon fill="#63b8ff" stroke="#63b8ff" points="245.8,-81.63 254.37,-75.41 243.79,-74.93 245.8,-81.63"/>
</a>
</g>
</g>
<!-- Node7&#45;&gt;Node2 -->
<g id="edge8_Node000007_Node000002" class="edge">
<title>Node7&#45;&gt;Node2</title>
<g id="a_edge8_Node000007_Node000002"><a xlink:title=" ">
<path fill="none" stroke="#63b8ff" d="M434.72,-110.12C418.08,-96.34 384.19,-70.06 351.26,-55.25 306.9,-35.3 252.08,-23.19 215.52,-16.71"/>
<polygon fill="#63b8ff" stroke="#63b8ff" points="216.26,-13.29 205.82,-15.06 215.09,-20.19 216.26,-13.29"/>
</a>
</g>
</g>
<!-- Node8 -->
<g id="Node000008" class="node">
<title>Node8</title>
<g id="a_Node000008"><a xlink:title=" ">
<polygon fill="#e0e0e0" stroke="#999999" points="435.76,-74.5 398.76,-74.5 398.76,-55.25 435.76,-55.25 435.76,-74.5"/>
<text xml:space="preserve" text-anchor="middle" x="417.26" y="-61" font-family="Helvetica,sans-Serif" font-size="10.00">FS.h</text>
</a>
</g>
</g>
<!-- Node7&#45;&gt;Node8 -->
<g id="edge9_Node000007_Node000008" class="edge">
<title>Node7&#45;&gt;Node8</title>
<g id="a_edge9_Node000007_Node000008"><a xlink:title=" ">
<path fill="none" stroke="#63b8ff" d="M440.64,-110.33C437.01,-103.44 431.83,-93.59 427.27,-84.91"/>
<polygon fill="#63b8ff" stroke="#63b8ff" points="430.44,-83.42 422.69,-76.2 424.25,-86.68 430.44,-83.42"/>
</a>
</g>
</g>
<!-- Node9 -->
<g id="Node000009" class="node">
<title>Node9</title>
<g id="a_Node000009"><a xlink:title=" ">
<polygon fill="#e0e0e0" stroke="#999999" points="492.51,-74.5 454.01,-74.5 454.01,-55.25 492.51,-55.25 492.51,-74.5"/>
<text xml:space="preserve" text-anchor="middle" x="473.26" y="-61" font-family="Helvetica,sans-Serif" font-size="10.00">SD.h</text>
</a>
</g>
</g>
<!-- Node7&#45;&gt;Node9 -->
<g id="edge10_Node000007_Node000009" class="edge">
<title>Node7&#45;&gt;Node9</title>
<g id="a_edge10_Node000007_Node000009"><a xlink:title=" ">
<path fill="none" stroke="#63b8ff" d="M449.89,-110.33C453.51,-103.44 458.69,-93.59 463.25,-84.91"/>
<polygon fill="#63b8ff" stroke="#63b8ff" points="466.28,-86.68 467.83,-76.2 460.08,-83.42 466.28,-86.68"/>
</a>
</g>
</g>
<!-- Node10 -->
<g id="Node000010" class="node">
<title>Node10</title>
<g id="a_Node000010"><a xlink:href="_time_manager_8h.html" target="_top" xlink:title="Real&#45;time clock and time synchronization management.">
<polygon fill="white" stroke="#666666" points="593.64,-74.5 510.89,-74.5 510.89,-55.25 593.64,-55.25 593.64,-74.5"/>
<text xml:space="preserve" text-anchor="middle" x="552.26" y="-61" font-family="Helvetica,sans-Serif" font-size="10.00">TimeManager.h</text>
</a>
</g>
</g>
<!-- Node7&#45;&gt;Node10 -->
<g id="edge11_Node000007_Node000010" class="edge">
<title>Node7&#45;&gt;Node10</title>
<g id="a_edge11_Node000007_Node000010"><a xlink:title=" ">
<path fill="none" stroke="#63b8ff" d="M463.41,-110.09C479.94,-101.87 504.61,-89.59 523.76,-80.06"/>
<polygon fill="#63b8ff" stroke="#63b8ff" points="525.27,-83.22 532.67,-75.63 522.15,-76.95 525.27,-83.22"/>
</a>
</g>
</g>
<!-- Node17 -->
<g id="Node000017" class="node">
<title>Node17</title>
<g id="a_Node000017"><a xlink:title=" ">
<polygon fill="#e0e0e0" stroke="#999999" points="654.76,-74.5 611.76,-74.5 611.76,-55.25 654.76,-55.25 654.76,-74.5"/>
<text xml:space="preserve" text-anchor="middle" x="633.26" y="-61" font-family="Helvetica,sans-Serif" font-size="10.00">vector</text>
</a>
</g>
</g>
<!-- Node7&#45;&gt;Node17 -->
<g id="edge19_Node000007_Node000017" class="edge">
<title>Node7&#45;&gt;Node17</title>
<g id="a_edge19_Node000007_Node000017"><a xlink:title=" ">
<path fill="none" stroke="#63b8ff" d="M477.15,-110.09C511.51,-100.36 565.89,-84.96 600.56,-75.14"/>
<polygon fill="#63b8ff" stroke="#63b8ff" points="601.38,-78.54 610.05,-72.45 599.47,-71.81 601.38,-78.54"/>
</a>
</g>
</g>
<!-- Node10&#45;&gt;Node2 -->
<g id="edge12_Node000010_Node000002" class="edge">
<title>Node10&#45;&gt;Node2</title>
<g id="a_edge12_Node000010_Node000002"><a xlink:title=" ">
<path fill="none" stroke="#63b8ff" d="M510.53,-56.71C507.4,-56.2 504.28,-55.71 501.26,-55.25 398.35,-39.51 276.74,-23.56 215.21,-15.68"/>
<polygon fill="#63b8ff" stroke="#63b8ff" points="215.95,-12.25 205.59,-14.45 215.07,-19.19 215.95,-12.25"/>
</a>
</g>
</g>
<!-- Node11 -->
<g id="Node000011" class="node">
<title>Node11</title>
<g id="a_Node000011"><a xlink:title=" ">
<polygon fill="#e0e0e0" stroke="#999999" points="402.51,-19.25 358.01,-19.25 358.01,0 402.51,0 402.51,-19.25"/>
<text xml:space="preserve" text-anchor="middle" x="380.26" y="-5.75" font-family="Helvetica,sans-Serif" font-size="10.00">WiFi.h</text>
</a>
</g>
</g>
<!-- Node10&#45;&gt;Node11 -->
<g id="edge13_Node000010_Node000011" class="edge">
<title>Node10&#45;&gt;Node11</title>
<g id="a_edge13_Node000010_Node000011"><a xlink:title=" ">
<path fill="none" stroke="#63b8ff" d="M523.08,-54.84C492.87,-45.49 445.71,-30.89 413.93,-21.05"/>
<polygon fill="#63b8ff" stroke="#63b8ff" points="415.01,-17.72 404.42,-18.11 412.94,-24.41 415.01,-17.72"/>
</a>
</g>
</g>
<!-- Node12 -->
<g id="Node000012" class="node">
<title>Node12</title>
<g id="a_Node000012"><a xlink:title=" ">
<polygon fill="#e0e0e0" stroke="#999999" points="465.51,-19.25 421.01,-19.25 421.01,0 465.51,0 465.51,-19.25"/>
<text xml:space="preserve" text-anchor="middle" x="443.26" y="-5.75" font-family="Helvetica,sans-Serif" font-size="10.00">Wire.h</text>
</a>
</g>
</g>
<!-- Node10&#45;&gt;Node12 -->
<g id="edge14_Node000010_Node000012" class="edge">
<title>Node10&#45;&gt;Node12</title>
<g id="a_edge14_Node000010_Node000012"><a xlink:title=" ">
<path fill="none" stroke="#63b8ff" d="M533.77,-54.84C516.86,-46.58 491.57,-34.23 472.02,-24.68"/>
<polygon fill="#63b8ff" stroke="#63b8ff" points="473.72,-21.61 463.2,-20.37 470.65,-27.9 473.72,-21.61"/>
</a>
</g>
</g>
<!-- Node13 -->
<g id="Node000013" class="node">
<title>Node13</title>
<g id="a_Node000013"><a xlink:title=" ">
<polygon fill="#e0e0e0" stroke="#999999" points="538.76,-19.25 483.76,-19.25 483.76,0 538.76,0 538.76,-19.25"/>
<text xml:space="preserve" text-anchor="middle" x="511.26" y="-5.75" font-family="Helvetica,sans-Serif" font-size="10.00">RTClib.h</text>
</a>
</g>
</g>
<!-- Node10&#45;&gt;Node13 -->
<g id="edge15_Node000010_Node000013" class="edge">
<title>Node10&#45;&gt;Node13</title>
<g id="a_edge15_Node000010_Node000013"><a xlink:title=" ">
<path fill="none" stroke="#63b8ff" d="M545.49,-55.08C539.95,-47.88 531.92,-37.46 525.03,-28.51"/>
<polygon fill="#63b8ff" stroke="#63b8ff" points="527.98,-26.6 519.1,-20.81 522.43,-30.87 527.98,-26.6"/>
</a>
</g>
</g>
<!-- Node14 -->
<g id="Node000014" class="node">
<title>Node14</title>
<g id="a_Node000014"><a xlink:title=" ">
<polygon fill="#e0e0e0" stroke="#999999" points="627.26,-19.25 557.26,-19.25 557.26,0 627.26,0 627.26,-19.25"/>
<text xml:space="preserve" text-anchor="middle" x="592.26" y="-5.75" font-family="Helvetica,sans-Serif" font-size="10.00">NTPClient.h</text>
</a>
</g>
</g>
<!-- Node10&#45;&gt;Node14 -->
<g id="edge16_Node000010_Node000014" class="edge">
<title>Node10&#45;&gt;Node14</title>
<g id="a_edge16_Node000010_Node000014"><a xlink:title=" ">
<path fill="none" stroke="#63b8ff" d="M558.87,-55.08C564.22,-47.96 571.94,-37.68 578.61,-28.8"/>
<polygon fill="#63b8ff" stroke="#63b8ff" points="581.4,-30.92 584.6,-20.82 575.8,-26.71 581.4,-30.92"/>
</a>
</g>
</g>
<!-- Node15 -->
<g id="Node000015" class="node">
<title>Node15</title>
<g id="a_Node000015"><a xlink:title=" ">
<polygon fill="#e0e0e0" stroke="#999999" points="707.51,-19.25 645.01,-19.25 645.01,0 707.51,0 707.51,-19.25"/>
<text xml:space="preserve" text-anchor="middle" x="676.26" y="-5.75" font-family="Helvetica,sans-Serif" font-size="10.00">WiFiUdp.h</text>
</a>
</g>
</g>
<!-- Node10&#45;&gt;Node15 -->
<g id="edge17_Node000010_Node000015" class="edge">
<title>Node10&#45;&gt;Node15</title>
<g id="a_edge17_Node000010_Node000015"><a xlink:title=" ">
<path fill="none" stroke="#63b8ff" d="M573.3,-54.84C592.89,-46.43 622.37,-33.77 644.77,-24.15"/>
<polygon fill="#63b8ff" stroke="#63b8ff" points="645.93,-27.46 653.73,-20.3 643.16,-21.03 645.93,-27.46"/>
</a>
</g>
</g>
<!-- Node16 -->
<g id="Node000016" class="node">
<title>Node16</title>
<g id="a_Node000016"><a xlink:title=" ">
<polygon fill="#e0e0e0" stroke="#999999" points="803.39,-19.25 725.14,-19.25 725.14,0 803.39,0 803.39,-19.25"/>
<text xml:space="preserve" text-anchor="middle" x="764.26" y="-5.75" font-family="Helvetica,sans-Serif" font-size="10.00">ArduinoJson.h</text>
</a>
</g>
</g>
<!-- Node10&#45;&gt;Node16 -->
<g id="edge18_Node000010_Node000016" class="edge">
<title>Node10&#45;&gt;Node16</title>
<g id="a_edge18_Node000010_Node000016"><a xlink:title=" ">
<path fill="none" stroke="#63b8ff" d="M588.22,-54.84C623.71,-45.93 678.14,-32.26 717.08,-22.48"/>
<polygon fill="#63b8ff" stroke="#63b8ff" points="717.81,-25.9 726.65,-20.07 716.1,-19.11 717.81,-25.9"/>
</a>
</g>
</g>
</g>
</svg>
