<?xml version="1.0" encoding="UTF-8" standalone="no"?>
<!DOCTYPE svg PUBLIC "-//W3C//DTD SVG 1.1//EN"
 "http://www.w3.org/Graphics/SVG/1.1/DTD/svg11.dtd">
<!-- Generated by graphviz version 13.1.0 (20250701.0955)
 -->
<!-- Title: include/MeasurementPoint.h Pages: 1 -->
<svg width="780pt" height="304pt"
 viewBox="0.00 0.00 780.00 304.00" xmlns="http://www.w3.org/2000/svg" xmlns:xlink="http://www.w3.org/1999/xlink">
<g id="graph0" class="graph" transform="scale(1 1) rotate(0) translate(4 299.5)">
<title>include/MeasurementPoint.h</title>
<!-- Node1 -->
<g id="Node000001" class="node">
<title>Node1</title>
<g id="a_Node000001"><a xlink:title="Measurement point abstraction for temperature monitoring system.">
<polygon fill="#999999" stroke="#666666" points="595.62,-295.5 455.88,-295.5 455.88,-276.25 595.62,-276.25 595.62,-295.5"/>
<text xml:space="preserve" text-anchor="middle" x="525.75" y="-282" font-family="Helvetica,sans-Serif" font-size="10.00">include/MeasurementPoint.h</text>
</a>
</g>
</g>
<!-- Node2 -->
<g id="Node000002" class="node">
<title>Node2</title>
<g id="a_Node000002"><a xlink:href="_alarm_8h.html" target="_top" xlink:title="Alarm management system for temperature monitoring.">
<polygon fill="white" stroke="#666666" points="567.5,-240.25 484,-240.25 484,-221 567.5,-221 567.5,-240.25"/>
<text xml:space="preserve" text-anchor="middle" x="525.75" y="-226.75" font-family="Helvetica,sans-Serif" font-size="10.00">include/Alarm.h</text>
</a>
</g>
</g>
<!-- Node1&#45;&gt;Node2 -->
<g id="edge1_Node000001_Node000002" class="edge">
<title>Node1&#45;&gt;Node2</title>
<g id="a_edge1_Node000001_Node000002"><a xlink:title=" ">
<path fill="none" stroke="#63b8ff" d="M525.75,-264.63C525.75,-256.34 525.75,-247.17 525.75,-240.61"/>
<polygon fill="#63b8ff" stroke="#63b8ff" points="522.25,-264.57 525.75,-274.57 529.25,-264.57 522.25,-264.57"/>
</a>
</g>
</g>
<!-- Node3 -->
<g id="Node000003" class="node">
<title>Node3</title>
<g id="a_Node000003"><a xlink:href="_temperature_controller_8h.html" target="_top" xlink:title=" ">
<polygon fill="white" stroke="#666666" points="488.38,-185 335.12,-185 335.12,-165.75 488.38,-165.75 488.38,-185"/>
<text xml:space="preserve" text-anchor="middle" x="411.75" y="-171.5" font-family="Helvetica,sans-Serif" font-size="10.00">include/TemperatureController.h</text>
</a>
</g>
</g>
<!-- Node1&#45;&gt;Node3 -->
<g id="edge19_Node000001_Node000003" class="edge">
<title>Node1&#45;&gt;Node3</title>
<g id="a_edge19_Node000001_Node000003"><a xlink:title=" ">
<path fill="none" stroke="#63b8ff" d="M506.5,-268.61C496.82,-260.3 485,-249.91 474.75,-240.25 454.57,-221.24 431.99,-197.78 420.11,-185.26"/>
<polygon fill="#63b8ff" stroke="#63b8ff" points="503.97,-271.06 513.85,-274.88 508.51,-265.73 503.97,-271.06"/>
</a>
</g>
</g>
<!-- Node9 -->
<g id="Node000009" class="node">
<title>Node9</title>
<g id="a_Node000009"><a xlink:href="_logger_manager_8cpp.html" target="_top" xlink:title=" ">
<polygon fill="white" stroke="#666666" points="713.38,-129.75 596.12,-129.75 596.12,-110.5 713.38,-110.5 713.38,-129.75"/>
<text xml:space="preserve" text-anchor="middle" x="654.75" y="-116.25" font-family="Helvetica,sans-Serif" font-size="10.00">src/LoggerManager.cpp</text>
</a>
</g>
</g>
<!-- Node1&#45;&gt;Node9 -->
<g id="edge20_Node000001_Node000009" class="edge">
<title>Node1&#45;&gt;Node9</title>
<g id="a_edge20_Node000001_Node000009"><a xlink:title=" ">
<path fill="none" stroke="#63b8ff" d="M546.61,-268.82C556.35,-260.8 567.74,-250.61 576.75,-240.25 609.36,-202.76 638.85,-150.7 650.01,-130.07"/>
<polygon fill="#63b8ff" stroke="#63b8ff" points="544.72,-265.85 539.11,-274.83 549.1,-271.31 544.72,-265.85"/>
</a>
</g>
</g>
<!-- Node12 -->
<g id="Node000012" class="node">
<title>Node12</title>
<g id="a_Node000012"><a xlink:href="_register_map_8h.html" target="_top" xlink:title=" ">
<polygon fill="white" stroke="#666666" points="357.5,-240.25 244,-240.25 244,-221 357.5,-221 357.5,-240.25"/>
<text xml:space="preserve" text-anchor="middle" x="300.75" y="-226.75" font-family="Helvetica,sans-Serif" font-size="10.00">include/RegisterMap.h</text>
</a>
</g>
</g>
<!-- Node1&#45;&gt;Node12 -->
<g id="edge13_Node000001_Node000012" class="edge">
<title>Node1&#45;&gt;Node12</title>
<g id="a_edge13_Node000001_Node000012"><a xlink:title=" ">
<path fill="none" stroke="#63b8ff" d="M476.14,-273.14C434.82,-263.36 376.82,-249.63 339.01,-240.68"/>
<polygon fill="#63b8ff" stroke="#63b8ff" points="475.32,-276.54 485.85,-275.43 476.93,-269.72 475.32,-276.54"/>
</a>
</g>
</g>
<!-- Node16 -->
<g id="Node000016" class="node">
<title>Node16</title>
<g id="a_Node000016"><a xlink:href="_measurement_point_8cpp.html" target="_top" xlink:title=" ">
<polygon fill="white" stroke="#666666" points="772.25,-240.25 639.25,-240.25 639.25,-221 772.25,-221 772.25,-240.25"/>
<text xml:space="preserve" text-anchor="middle" x="705.75" y="-226.75" font-family="Helvetica,sans-Serif" font-size="10.00">src/MeasurementPoint.cpp</text>
</a>
</g>
</g>
<!-- Node1&#45;&gt;Node16 -->
<g id="edge21_Node000001_Node000016" class="edge">
<title>Node1&#45;&gt;Node16</title>
<g id="a_edge21_Node000001_Node000016"><a xlink:title=" ">
<path fill="none" stroke="#63b8ff" d="M566.93,-272.69C599.85,-262.95 645.28,-249.52 675.07,-240.7"/>
<polygon fill="#63b8ff" stroke="#63b8ff" points="566.33,-269.22 557.74,-275.41 568.32,-275.93 566.33,-269.22"/>
</a>
</g>
</g>
<!-- Node2&#45;&gt;Node3 -->
<g id="edge2_Node000002_Node000003" class="edge">
<title>Node2&#45;&gt;Node3</title>
<g id="a_edge2_Node000002_Node000003"><a xlink:title=" ">
<path fill="none" stroke="#63b8ff" d="M496.06,-215.76C475.6,-206.2 448.98,-193.77 431.18,-185.45"/>
<polygon fill="#63b8ff" stroke="#63b8ff" points="494.5,-218.89 505.04,-219.95 497.46,-212.55 494.5,-218.89"/>
</a>
</g>
</g>
<!-- Node11 -->
<g id="Node000011" class="node">
<title>Node11</title>
<g id="a_Node000011"><a xlink:href="_alarm_8cpp.html" target="_top" xlink:title="Implementation of alarm management system for temperature monitoring.">
<polygon fill="white" stroke="#666666" points="583.12,-185 506.38,-185 506.38,-165.75 583.12,-165.75 583.12,-185"/>
<text xml:space="preserve" text-anchor="middle" x="544.75" y="-171.5" font-family="Helvetica,sans-Serif" font-size="10.00">src/Alarm.cpp</text>
</a>
</g>
</g>
<!-- Node2&#45;&gt;Node11 -->
<g id="edge12_Node000002_Node000011" class="edge">
<title>Node2&#45;&gt;Node11</title>
<g id="a_edge12_Node000002_Node000011"><a xlink:title=" ">
<path fill="none" stroke="#63b8ff" d="M532.66,-210.25C535.7,-201.74 539.12,-192.15 541.54,-185.36"/>
<polygon fill="#63b8ff" stroke="#63b8ff" points="529.46,-208.81 529.4,-219.41 536.05,-211.16 529.46,-208.81"/>
</a>
</g>
</g>
<!-- Node4 -->
<g id="Node000004" class="node">
<title>Node4</title>
<g id="a_Node000004"><a xlink:href="_c_s_v_config_manager_8h.html" target="_top" xlink:title="CSV configuration import/export manager for measurement points and alarms.">
<polygon fill="white" stroke="#666666" points="539.88,-129.75 395.62,-129.75 395.62,-110.5 539.88,-110.5 539.88,-129.75"/>
<text xml:space="preserve" text-anchor="middle" x="467.75" y="-116.25" font-family="Helvetica,sans-Serif" font-size="10.00">include/CSVConfigManager.h</text>
</a>
</g>
</g>
<!-- Node3&#45;&gt;Node4 -->
<g id="edge3_Node000003_Node000004" class="edge">
<title>Node3&#45;&gt;Node4</title>
<g id="a_edge3_Node000003_Node000004"><a xlink:title=" ">
<path fill="none" stroke="#63b8ff" d="M429.38,-157.61C438.99,-148.47 450.5,-137.53 458.39,-130.02"/>
<polygon fill="#63b8ff" stroke="#63b8ff" points="427.18,-154.87 422.35,-164.3 432.01,-159.94 427.18,-154.87"/>
</a>
</g>
</g>
<!-- Node5 -->
<g id="Node000005" class="node">
<title>Node5</title>
<g id="a_Node000005"><a xlink:href="_config_manager_8h.html" target="_top" xlink:title="Configuration management system for temperature monitoring device.">
<polygon fill="white" stroke="#666666" points="674.38,-74.5 551.12,-74.5 551.12,-55.25 674.38,-55.25 674.38,-74.5"/>
<text xml:space="preserve" text-anchor="middle" x="612.75" y="-61" font-family="Helvetica,sans-Serif" font-size="10.00">include/ConfigManager.h</text>
</a>
</g>
</g>
<!-- Node3&#45;&gt;Node5 -->
<g id="edge8_Node000003_Node000005" class="edge">
<title>Node3&#45;&gt;Node5</title>
<g id="a_edge8_Node000003_Node000005"><a xlink:title=" ">
<path fill="none" stroke="#63b8ff" d="M468.04,-162.43C493.86,-155.39 524.13,-144.83 548.75,-129.75 573.38,-114.66 595.67,-88.26 606.25,-74.61"/>
<polygon fill="#63b8ff" stroke="#63b8ff" points="467.17,-159.04 458.37,-164.95 468.93,-165.81 467.17,-159.04"/>
</a>
</g>
</g>
<!-- Node7 -->
<g id="Node000007" class="node">
<title>Node7</title>
<g id="a_Node000007"><a xlink:href="main_8cpp.html" target="_top" xlink:title="Main application entry point for Industrial Temperature Monitoring System.">
<polygon fill="white" stroke="#666666" points="403.88,-19.25 331.62,-19.25 331.62,0 403.88,0 403.88,-19.25"/>
<text xml:space="preserve" text-anchor="middle" x="367.75" y="-5.75" font-family="Helvetica,sans-Serif" font-size="10.00">src/main.cpp</text>
</a>
</g>
</g>
<!-- Node3&#45;&gt;Node7 -->
<g id="edge11_Node000003_Node000007" class="edge">
<title>Node3&#45;&gt;Node7</title>
<g id="a_edge11_Node000003_Node000007"><a xlink:title=" ">
<path fill="none" stroke="#63b8ff" d="M399.25,-155.53C394.66,-147.83 389.84,-138.64 386.75,-129.75 373,-90.18 369.14,-39.73 368.11,-19.55"/>
<polygon fill="#63b8ff" stroke="#63b8ff" points="396.27,-157.38 404.56,-163.98 402.2,-153.65 396.27,-157.38"/>
</a>
</g>
</g>
<!-- Node3&#45;&gt;Node9 -->
<g id="edge9_Node000003_Node000009" class="edge">
<title>Node3&#45;&gt;Node9</title>
<g id="a_edge9_Node000003_Node000009"><a xlink:title=" ">
<path fill="none" stroke="#63b8ff" d="M464.47,-162.82C509.15,-153.03 572.33,-139.19 613.42,-130.18"/>
<polygon fill="#63b8ff" stroke="#63b8ff" points="463.74,-159.4 454.73,-164.96 465.24,-166.24 463.74,-159.4"/>
</a>
</g>
</g>
<!-- Node10 -->
<g id="Node000010" class="node">
<title>Node10</title>
<g id="a_Node000010"><a xlink:href="_temperature_controller_8cpp.html" target="_top" xlink:title=" ">
<polygon fill="white" stroke="#666666" points="340,-129.75 193.5,-129.75 193.5,-110.5 340,-110.5 340,-129.75"/>
<text xml:space="preserve" text-anchor="middle" x="266.75" y="-116.25" font-family="Helvetica,sans-Serif" font-size="10.00">src/TemperatureController.cpp</text>
</a>
</g>
</g>
<!-- Node3&#45;&gt;Node10 -->
<g id="edge10_Node000003_Node000010" class="edge">
<title>Node3&#45;&gt;Node10</title>
<g id="a_edge10_Node000003_Node000010"><a xlink:title=" ">
<path fill="none" stroke="#63b8ff" d="M376.48,-161.42C350.16,-151.75 314.84,-138.79 291.47,-130.2"/>
<polygon fill="#63b8ff" stroke="#63b8ff" points="375.14,-164.66 385.73,-164.82 377.55,-158.09 375.14,-164.66"/>
</a>
</g>
</g>
<!-- Node4&#45;&gt;Node5 -->
<g id="edge4_Node000004_Node000005" class="edge">
<title>Node4&#45;&gt;Node5</title>
<g id="a_edge4_Node000004_Node000005"><a xlink:title=" ">
<path fill="none" stroke="#63b8ff" d="M503.02,-106.17C529.34,-96.5 564.66,-83.54 588.03,-74.95"/>
<polygon fill="#63b8ff" stroke="#63b8ff" points="501.95,-102.84 493.77,-109.57 504.36,-109.41 501.95,-102.84"/>
</a>
</g>
</g>
<!-- Node8 -->
<g id="Node000008" class="node">
<title>Node8</title>
<g id="a_Node000008"><a xlink:href="_c_s_v_config_manager_8cpp.html" target="_top" xlink:title=" ">
<polygon fill="white" stroke="#666666" points="533.5,-74.5 396,-74.5 396,-55.25 533.5,-55.25 533.5,-74.5"/>
<text xml:space="preserve" text-anchor="middle" x="464.75" y="-61" font-family="Helvetica,sans-Serif" font-size="10.00">src/CSVConfigManager.cpp</text>
</a>
</g>
</g>
<!-- Node4&#45;&gt;Node8 -->
<g id="edge7_Node000004_Node000008" class="edge">
<title>Node4&#45;&gt;Node8</title>
<g id="a_edge7_Node000004_Node000008"><a xlink:title=" ">
<path fill="none" stroke="#63b8ff" d="M466.61,-98.88C466.14,-90.59 465.63,-81.42 465.26,-74.86"/>
<polygon fill="#63b8ff" stroke="#63b8ff" points="463.11,-99.03 467.17,-108.82 470.1,-98.64 463.11,-99.03"/>
</a>
</g>
</g>
<!-- Node6 -->
<g id="Node000006" class="node">
<title>Node6</title>
<g id="a_Node000006"><a xlink:href="_config_manager_8cpp.html" target="_top" xlink:title=" ">
<polygon fill="white" stroke="#666666" points="671,-19.25 554.5,-19.25 554.5,0 671,0 671,-19.25"/>
<text xml:space="preserve" text-anchor="middle" x="612.75" y="-5.75" font-family="Helvetica,sans-Serif" font-size="10.00">src/ConfigManager.cpp</text>
</a>
</g>
</g>
<!-- Node5&#45;&gt;Node6 -->
<g id="edge5_Node000005_Node000006" class="edge">
<title>Node5&#45;&gt;Node6</title>
<g id="a_edge5_Node000005_Node000006"><a xlink:title=" ">
<path fill="none" stroke="#63b8ff" d="M612.75,-43.63C612.75,-35.34 612.75,-26.17 612.75,-19.61"/>
<polygon fill="#63b8ff" stroke="#63b8ff" points="609.25,-43.57 612.75,-53.57 616.25,-43.57 609.25,-43.57"/>
</a>
</g>
</g>
<!-- Node5&#45;&gt;Node7 -->
<g id="edge6_Node000005_Node000007" class="edge">
<title>Node5&#45;&gt;Node7</title>
<g id="a_edge6_Node000005_Node000007"><a xlink:title=" ">
<path fill="none" stroke="#63b8ff" d="M559.73,-52.35C512.75,-42.14 445.39,-27.5 404.22,-18.55"/>
<polygon fill="#63b8ff" stroke="#63b8ff" points="558.92,-55.76 569.43,-54.46 560.4,-48.92 558.92,-55.76"/>
</a>
</g>
</g>
<!-- Node12&#45;&gt;Node3 -->
<g id="edge17_Node000012_Node000003" class="edge">
<title>Node12&#45;&gt;Node3</title>
<g id="a_edge17_Node000012_Node000003"><a xlink:title=" ">
<path fill="none" stroke="#63b8ff" d="M329.93,-215.62C349.82,-206.08 375.58,-193.73 392.83,-185.45"/>
<polygon fill="#63b8ff" stroke="#63b8ff" points="328.45,-212.46 320.94,-219.94 331.47,-218.77 328.45,-212.46"/>
</a>
</g>
</g>
<!-- Node13 -->
<g id="Node000013" class="node">
<title>Node13</title>
<g id="a_Node000013"><a xlink:href="_temp_modbus_server_8h.html" target="_top" xlink:title=" ">
<polygon fill="white" stroke="#666666" points="299.88,-185 155.62,-185 155.62,-165.75 299.88,-165.75 299.88,-185"/>
<text xml:space="preserve" text-anchor="middle" x="227.75" y="-171.5" font-family="Helvetica,sans-Serif" font-size="10.00">include/TempModbusServer.h</text>
</a>
</g>
</g>
<!-- Node12&#45;&gt;Node13 -->
<g id="edge14_Node000012_Node000013" class="edge">
<title>Node12&#45;&gt;Node13</title>
<g id="a_edge14_Node000012_Node000013"><a xlink:title=" ">
<path fill="none" stroke="#63b8ff" d="M279.28,-213.97C266.47,-204.62 250.65,-193.08 239.95,-185.27"/>
<polygon fill="#63b8ff" stroke="#63b8ff" points="277,-216.63 287.14,-219.7 281.13,-210.98 277,-216.63"/>
</a>
</g>
</g>
<!-- Node15 -->
<g id="Node000015" class="node">
<title>Node15</title>
<g id="a_Node000015"><a xlink:href="_register_map_8cpp.html" target="_top" xlink:title=" ">
<polygon fill="white" stroke="#666666" points="137.12,-185 30.38,-185 30.38,-165.75 137.12,-165.75 137.12,-185"/>
<text xml:space="preserve" text-anchor="middle" x="83.75" y="-171.5" font-family="Helvetica,sans-Serif" font-size="10.00">src/RegisterMap.cpp</text>
</a>
</g>
</g>
<!-- Node12&#45;&gt;Node15 -->
<g id="edge18_Node000012_Node000015" class="edge">
<title>Node12&#45;&gt;Node15</title>
<g id="a_edge18_Node000012_Node000015"><a xlink:title=" ">
<path fill="none" stroke="#63b8ff" d="M252.91,-217.88C213.09,-208.11 157.2,-194.4 120.74,-185.45"/>
<polygon fill="#63b8ff" stroke="#63b8ff" points="251.92,-221.25 262.47,-220.23 253.59,-214.45 251.92,-221.25"/>
</a>
</g>
</g>
<!-- Node13&#45;&gt;Node7 -->
<g id="edge16_Node000013_Node000007" class="edge">
<title>Node13&#45;&gt;Node7</title>
<g id="a_edge16_Node000013_Node000007"><a xlink:title=" ">
<path fill="none" stroke="#63b8ff" d="M205.33,-158.5C190.24,-145.77 174.77,-127.32 184.75,-110.5 216.43,-57.12 287.79,-30.44 331.45,-18.64"/>
<polygon fill="#63b8ff" stroke="#63b8ff" points="202.75,-160.93 212.78,-164.35 207.07,-155.42 202.75,-160.93"/>
</a>
</g>
</g>
<!-- Node14 -->
<g id="Node000014" class="node">
<title>Node14</title>
<g id="a_Node000014"><a xlink:href="_temp_modbus_server_8cpp.html" target="_top" xlink:title=" ">
<polygon fill="white" stroke="#666666" points="137.5,-129.75 0,-129.75 0,-110.5 137.5,-110.5 137.5,-129.75"/>
<text xml:space="preserve" text-anchor="middle" x="68.75" y="-116.25" font-family="Helvetica,sans-Serif" font-size="10.00">src/TempModbusServer.cpp</text>
</a>
</g>
</g>
<!-- Node13&#45;&gt;Node14 -->
<g id="edge15_Node000013_Node000014" class="edge">
<title>Node13&#45;&gt;Node14</title>
<g id="a_edge15_Node000013_Node000014"><a xlink:title=" ">
<path fill="none" stroke="#63b8ff" d="M190.23,-161.81C161.25,-152.1 121.83,-138.9 95.85,-130.2"/>
<polygon fill="#63b8ff" stroke="#63b8ff" points="188.75,-165 199.34,-164.86 190.97,-158.37 188.75,-165"/>
</a>
</g>
</g>
</g>
</svg>
