<?xml version="1.0" encoding="UTF-8" standalone="no"?>
<!DOCTYPE svg PUBLIC "-//W3C//DTD SVG 1.1//EN"
 "http://www.w3.org/Graphics/SVG/1.1/DTD/svg11.dtd">
<!-- Generated by graphviz version 13.1.0 (20250701.0955)
 -->
<!-- Title: include/MeasurementPoint.h Pages: 1 -->
<svg width="780pt" height="304pt"
 viewBox="0.00 0.00 780.00 304.00" xmlns="http://www.w3.org/2000/svg" xmlns:xlink="http://www.w3.org/1999/xlink">
<g id="graph0" class="graph" transform="scale(1 1) rotate(0) translate(4 299.5)">
<title>include/MeasurementPoint.h</title>
<!-- Node1 -->
<g id="Node000001" class="node">
<title>Node1</title>
<g id="a_Node000001"><a xlink:title="Measurement point abstraction for temperature monitoring system.">
<polygon fill="#999999" stroke="#666666" points="595.25,-295.5 455.5,-295.5 455.5,-276.25 595.25,-276.25 595.25,-295.5"/>
<text xml:space="preserve" text-anchor="middle" x="525.38" y="-282" font-family="Helvetica,sans-Serif" font-size="10.00">include/MeasurementPoint.h</text>
</a>
</g>
</g>
<!-- Node2 -->
<g id="Node000002" class="node">
<title>Node2</title>
<g id="a_Node000002"><a xlink:href="$_alarm_8h.html" xlink:title="Alarm management system for temperature monitoring.">
<polygon fill="white" stroke="#666666" points="567.12,-240.25 483.62,-240.25 483.62,-221 567.12,-221 567.12,-240.25"/>
<text xml:space="preserve" text-anchor="middle" x="525.38" y="-226.75" font-family="Helvetica,sans-Serif" font-size="10.00">include/Alarm.h</text>
</a>
</g>
</g>
<!-- Node1&#45;&gt;Node2 -->
<g id="edge1_Node000001_Node000002" class="edge">
<title>Node1&#45;&gt;Node2</title>
<g id="a_edge1_Node000001_Node000002"><a xlink:title=" ">
<path fill="none" stroke="#63b8ff" d="M525.38,-264.63C525.38,-256.34 525.38,-247.17 525.38,-240.61"/>
<polygon fill="#63b8ff" stroke="#63b8ff" points="521.88,-264.57 525.38,-274.57 528.88,-264.57 521.88,-264.57"/>
</a>
</g>
</g>
<!-- Node3 -->
<g id="Node000003" class="node">
<title>Node3</title>
<g id="a_Node000003"><a xlink:href="$_temperature_controller_8h.html" xlink:title="Central temperature monitoring and control system.">
<polygon fill="white" stroke="#666666" points="488,-185 334.75,-185 334.75,-165.75 488,-165.75 488,-185"/>
<text xml:space="preserve" text-anchor="middle" x="411.38" y="-171.5" font-family="Helvetica,sans-Serif" font-size="10.00">include/TemperatureController.h</text>
</a>
</g>
</g>
<!-- Node1&#45;&gt;Node3 -->
<g id="edge20_Node000001_Node000003" class="edge">
<title>Node1&#45;&gt;Node3</title>
<g id="a_edge20_Node000001_Node000003"><a xlink:title=" ">
<path fill="none" stroke="#63b8ff" d="M506.12,-268.61C496.45,-260.3 484.63,-249.91 474.38,-240.25 454.19,-221.24 431.62,-197.78 419.74,-185.26"/>
<polygon fill="#63b8ff" stroke="#63b8ff" points="503.59,-271.06 513.47,-274.88 508.14,-265.73 503.59,-271.06"/>
</a>
</g>
</g>
<!-- Node9 -->
<g id="Node000009" class="node">
<title>Node9</title>
<g id="a_Node000009"><a xlink:href="$_logger_manager_8cpp.html" xlink:title="Implementation of data logging and event management system.">
<polygon fill="white" stroke="#666666" points="757,-129.75 639.75,-129.75 639.75,-110.5 757,-110.5 757,-129.75"/>
<text xml:space="preserve" text-anchor="middle" x="698.38" y="-116.25" font-family="Helvetica,sans-Serif" font-size="10.00">src/LoggerManager.cpp</text>
</a>
</g>
</g>
<!-- Node1&#45;&gt;Node9 -->
<g id="edge21_Node000001_Node000009" class="edge">
<title>Node1&#45;&gt;Node9</title>
<g id="a_edge21_Node000001_Node000009"><a xlink:title=" ">
<path fill="none" stroke="#63b8ff" d="M544.55,-268.53C554.21,-260.19 566.03,-249.81 576.38,-240.25 619.85,-200.06 669.86,-149.96 689.66,-129.96"/>
<polygon fill="#63b8ff" stroke="#63b8ff" points="542.53,-265.65 537.22,-274.82 547.09,-270.97 542.53,-265.65"/>
</a>
</g>
</g>
<!-- Node13 -->
<g id="Node000013" class="node">
<title>Node13</title>
<g id="a_Node000013"><a xlink:href="$_register_map_8h.html" xlink:title="Modbus register mapping for temperature monitoring system.">
<polygon fill="white" stroke="#666666" points="357.12,-240.25 243.62,-240.25 243.62,-221 357.12,-221 357.12,-240.25"/>
<text xml:space="preserve" text-anchor="middle" x="300.38" y="-226.75" font-family="Helvetica,sans-Serif" font-size="10.00">include/RegisterMap.h</text>
</a>
</g>
</g>
<!-- Node1&#45;&gt;Node13 -->
<g id="edge14_Node000001_Node000013" class="edge">
<title>Node1&#45;&gt;Node13</title>
<g id="a_edge14_Node000001_Node000013"><a xlink:title=" ">
<path fill="none" stroke="#63b8ff" d="M475.77,-273.14C434.45,-263.36 376.44,-249.63 338.64,-240.68"/>
<polygon fill="#63b8ff" stroke="#63b8ff" points="474.94,-276.54 485.48,-275.43 476.55,-269.72 474.94,-276.54"/>
</a>
</g>
</g>
<!-- Node16 -->
<g id="Node000016" class="node">
<title>Node16</title>
<g id="a_Node000016"><a xlink:href="$_measurement_point_8cpp.html" xlink:title="Implementation of temperature measurement point management.">
<polygon fill="white" stroke="#666666" points="771.88,-240.25 638.88,-240.25 638.88,-221 771.88,-221 771.88,-240.25"/>
<text xml:space="preserve" text-anchor="middle" x="705.38" y="-226.75" font-family="Helvetica,sans-Serif" font-size="10.00">src/MeasurementPoint.cpp</text>
</a>
</g>
</g>
<!-- Node1&#45;&gt;Node16 -->
<g id="edge22_Node000001_Node000016" class="edge">
<title>Node1&#45;&gt;Node16</title>
<g id="a_edge22_Node000001_Node000016"><a xlink:title=" ">
<path fill="none" stroke="#63b8ff" d="M566.56,-272.69C599.48,-262.95 644.9,-249.52 674.69,-240.7"/>
<polygon fill="#63b8ff" stroke="#63b8ff" points="565.96,-269.22 557.36,-275.41 567.94,-275.93 565.96,-269.22"/>
</a>
</g>
</g>
<!-- Node2&#45;&gt;Node3 -->
<g id="edge2_Node000002_Node000003" class="edge">
<title>Node2&#45;&gt;Node3</title>
<g id="a_edge2_Node000002_Node000003"><a xlink:title=" ">
<path fill="none" stroke="#63b8ff" d="M495.69,-215.76C475.22,-206.2 448.61,-193.77 430.81,-185.45"/>
<polygon fill="#63b8ff" stroke="#63b8ff" points="494.12,-218.89 504.67,-219.95 497.09,-212.55 494.12,-218.89"/>
</a>
</g>
</g>
<!-- Node12 -->
<g id="Node000012" class="node">
<title>Node12</title>
<g id="a_Node000012"><a xlink:href="$_alarm_8cpp.html" xlink:title="Implementation of alarm management system for temperature monitoring.">
<polygon fill="white" stroke="#666666" points="582.75,-185 506,-185 506,-165.75 582.75,-165.75 582.75,-185"/>
<text xml:space="preserve" text-anchor="middle" x="544.38" y="-171.5" font-family="Helvetica,sans-Serif" font-size="10.00">src/Alarm.cpp</text>
</a>
</g>
</g>
<!-- Node2&#45;&gt;Node12 -->
<g id="edge13_Node000002_Node000012" class="edge">
<title>Node2&#45;&gt;Node12</title>
<g id="a_edge13_Node000002_Node000012"><a xlink:title=" ">
<path fill="none" stroke="#63b8ff" d="M532.29,-210.25C535.33,-201.74 538.74,-192.15 541.17,-185.36"/>
<polygon fill="#63b8ff" stroke="#63b8ff" points="529.09,-208.81 529.02,-219.41 535.68,-211.16 529.09,-208.81"/>
</a>
</g>
</g>
<!-- Node4 -->
<g id="Node000004" class="node">
<title>Node4</title>
<g id="a_Node000004"><a xlink:href="$_c_s_v_config_manager_8h.html" xlink:title="CSV configuration import/export manager for measurement points and alarms.">
<polygon fill="white" stroke="#666666" points="583.5,-129.75 439.25,-129.75 439.25,-110.5 583.5,-110.5 583.5,-129.75"/>
<text xml:space="preserve" text-anchor="middle" x="511.38" y="-116.25" font-family="Helvetica,sans-Serif" font-size="10.00">include/CSVConfigManager.h</text>
</a>
</g>
</g>
<!-- Node3&#45;&gt;Node4 -->
<g id="edge3_Node000003_Node000004" class="edge">
<title>Node3&#45;&gt;Node4</title>
<g id="a_edge3_Node000003_Node000004"><a xlink:title=" ">
<path fill="none" stroke="#63b8ff" d="M438.42,-159.98C456.23,-150.49 479,-138.36 494.33,-130.2"/>
<polygon fill="#63b8ff" stroke="#63b8ff" points="436.86,-156.84 429.67,-164.63 440.15,-163.02 436.86,-156.84"/>
</a>
</g>
</g>
<!-- Node5 -->
<g id="Node000005" class="node">
<title>Node5</title>
<g id="a_Node000005"><a xlink:href="$_config_manager_8h.html" xlink:title="Configuration management system for temperature monitoring device.">
<polygon fill="white" stroke="#666666" points="718,-74.5 594.75,-74.5 594.75,-55.25 718,-55.25 718,-74.5"/>
<text xml:space="preserve" text-anchor="middle" x="656.38" y="-61" font-family="Helvetica,sans-Serif" font-size="10.00">include/ConfigManager.h</text>
</a>
</g>
</g>
<!-- Node3&#45;&gt;Node5 -->
<g id="edge8_Node000003_Node000005" class="edge">
<title>Node3&#45;&gt;Node5</title>
<g id="a_edge8_Node000003_Node000005"><a xlink:title=" ">
<path fill="none" stroke="#63b8ff" d="M497.05,-163.12C528.45,-156.51 563.37,-146.09 592.38,-129.75 617.54,-115.57 639.59,-88.78 650.01,-74.83"/>
<polygon fill="#63b8ff" stroke="#63b8ff" points="496.71,-159.62 487.59,-165.01 498.08,-166.48 496.71,-159.62"/>
</a>
</g>
</g>
<!-- Node7 -->
<g id="Node000007" class="node">
<title>Node7</title>
<g id="a_Node000007"><a xlink:href="$main_8cpp.html" xlink:title="Main application entry point for Industrial Temperature Monitoring System.">
<polygon fill="white" stroke="#666666" points="447.5,-19.25 375.25,-19.25 375.25,0 447.5,0 447.5,-19.25"/>
<text xml:space="preserve" text-anchor="middle" x="411.38" y="-5.75" font-family="Helvetica,sans-Serif" font-size="10.00">src/main.cpp</text>
</a>
</g>
</g>
<!-- Node3&#45;&gt;Node7 -->
<g id="edge12_Node000003_Node000007" class="edge">
<title>Node3&#45;&gt;Node7</title>
<g id="a_edge12_Node000003_Node000007"><a xlink:title=" ">
<path fill="none" stroke="#63b8ff" d="M411.38,-154.22C411.38,-118.36 411.38,-44.85 411.38,-19.47"/>
<polygon fill="#63b8ff" stroke="#63b8ff" points="407.88,-154.06 411.38,-164.06 414.88,-154.06 407.88,-154.06"/>
</a>
</g>
</g>
<!-- Node3&#45;&gt;Node9 -->
<g id="edge9_Node000003_Node000009" class="edge">
<title>Node3&#45;&gt;Node9</title>
<g id="a_edge9_Node000003_Node000009"><a xlink:title=" ">
<path fill="none" stroke="#63b8ff" d="M471.63,-163.19C524.5,-153.39 600.42,-139.3 649.57,-130.18"/>
<polygon fill="#63b8ff" stroke="#63b8ff" points="471.07,-159.74 461.87,-165.01 472.34,-166.62 471.07,-159.74"/>
</a>
</g>
</g>
<!-- Node10 -->
<g id="Node000010" class="node">
<title>Node10</title>
<g id="a_Node000010"><a xlink:href="$_temp_modbus_server_8cpp.html" xlink:title="Implementation of Modbus RTU server for temperature monitoring.">
<polygon fill="white" stroke="#666666" points="219.12,-129.75 81.62,-129.75 81.62,-110.5 219.12,-110.5 219.12,-129.75"/>
<text xml:space="preserve" text-anchor="middle" x="150.38" y="-116.25" font-family="Helvetica,sans-Serif" font-size="10.00">src/TempModbusServer.cpp</text>
</a>
</g>
</g>
<!-- Node3&#45;&gt;Node10 -->
<g id="edge10_Node000003_Node000010" class="edge">
<title>Node3&#45;&gt;Node10</title>
<g id="a_edge10_Node000003_Node000010"><a xlink:title=" ">
<path fill="none" stroke="#63b8ff" d="M355.67,-163.01C307.63,-153.21 239.18,-139.24 194.76,-130.18"/>
<polygon fill="#63b8ff" stroke="#63b8ff" points="354.82,-166.41 365.32,-164.98 356.22,-159.55 354.82,-166.41"/>
</a>
</g>
</g>
<!-- Node11 -->
<g id="Node000011" class="node">
<title>Node11</title>
<g id="a_Node000011"><a xlink:href="$_temperature_controller_8cpp.html" xlink:title="Implementation of the central temperature monitoring and control system.">
<polygon fill="white" stroke="#666666" points="383.62,-129.75 237.12,-129.75 237.12,-110.5 383.62,-110.5 383.62,-129.75"/>
<text xml:space="preserve" text-anchor="middle" x="310.38" y="-116.25" font-family="Helvetica,sans-Serif" font-size="10.00">src/TemperatureController.cpp</text>
</a>
</g>
</g>
<!-- Node3&#45;&gt;Node11 -->
<g id="edge11_Node000003_Node000011" class="edge">
<title>Node3&#45;&gt;Node11</title>
<g id="a_edge11_Node000003_Node000011"><a xlink:title=" ">
<path fill="none" stroke="#63b8ff" d="M384.06,-159.98C366.08,-150.49 343.07,-138.36 327.59,-130.2"/>
<polygon fill="#63b8ff" stroke="#63b8ff" points="382.42,-163.07 392.9,-164.64 385.69,-156.88 382.42,-163.07"/>
</a>
</g>
</g>
<!-- Node4&#45;&gt;Node5 -->
<g id="edge4_Node000004_Node000005" class="edge">
<title>Node4&#45;&gt;Node5</title>
<g id="a_edge4_Node000004_Node000005"><a xlink:title=" ">
<path fill="none" stroke="#63b8ff" d="M546.64,-106.17C572.97,-96.5 608.29,-83.54 631.66,-74.95"/>
<polygon fill="#63b8ff" stroke="#63b8ff" points="545.57,-102.84 537.39,-109.57 547.99,-109.41 545.57,-102.84"/>
</a>
</g>
</g>
<!-- Node8 -->
<g id="Node000008" class="node">
<title>Node8</title>
<g id="a_Node000008"><a xlink:href="$_c_s_v_config_manager_8cpp.html" xlink:title="Implementation of CSV configuration management for measurement points.">
<polygon fill="white" stroke="#666666" points="577.12,-74.5 439.62,-74.5 439.62,-55.25 577.12,-55.25 577.12,-74.5"/>
<text xml:space="preserve" text-anchor="middle" x="508.38" y="-61" font-family="Helvetica,sans-Serif" font-size="10.00">src/CSVConfigManager.cpp</text>
</a>
</g>
</g>
<!-- Node4&#45;&gt;Node8 -->
<g id="edge7_Node000004_Node000008" class="edge">
<title>Node4&#45;&gt;Node8</title>
<g id="a_edge7_Node000004_Node000008"><a xlink:title=" ">
<path fill="none" stroke="#63b8ff" d="M510.23,-98.88C509.77,-90.59 509.25,-81.42 508.88,-74.86"/>
<polygon fill="#63b8ff" stroke="#63b8ff" points="506.74,-99.03 510.79,-108.82 513.73,-98.64 506.74,-99.03"/>
</a>
</g>
</g>
<!-- Node6 -->
<g id="Node000006" class="node">
<title>Node6</title>
<g id="a_Node000006"><a xlink:href="$_config_manager_8cpp.html" xlink:title="Implementation of web&#45;based configuration management system.">
<polygon fill="white" stroke="#666666" points="714.62,-19.25 598.12,-19.25 598.12,0 714.62,0 714.62,-19.25"/>
<text xml:space="preserve" text-anchor="middle" x="656.38" y="-5.75" font-family="Helvetica,sans-Serif" font-size="10.00">src/ConfigManager.cpp</text>
</a>
</g>
</g>
<!-- Node5&#45;&gt;Node6 -->
<g id="edge5_Node000005_Node000006" class="edge">
<title>Node5&#45;&gt;Node6</title>
<g id="a_edge5_Node000005_Node000006"><a xlink:title=" ">
<path fill="none" stroke="#63b8ff" d="M656.38,-43.63C656.38,-35.34 656.38,-26.17 656.38,-19.61"/>
<polygon fill="#63b8ff" stroke="#63b8ff" points="652.88,-43.57 656.38,-53.57 659.88,-43.57 652.88,-43.57"/>
</a>
</g>
</g>
<!-- Node5&#45;&gt;Node7 -->
<g id="edge6_Node000005_Node000007" class="edge">
<title>Node5&#45;&gt;Node7</title>
<g id="a_edge6_Node000005_Node000007"><a xlink:title=" ">
<path fill="none" stroke="#63b8ff" d="M603.36,-52.35C556.37,-42.14 489.02,-27.5 447.84,-18.55"/>
<polygon fill="#63b8ff" stroke="#63b8ff" points="602.54,-55.76 613.06,-54.46 604.03,-48.92 602.54,-55.76"/>
</a>
</g>
</g>
<!-- Node13&#45;&gt;Node3 -->
<g id="edge18_Node000013_Node000003" class="edge">
<title>Node13&#45;&gt;Node3</title>
<g id="a_edge18_Node000013_Node000003"><a xlink:title=" ">
<path fill="none" stroke="#63b8ff" d="M329.56,-215.62C349.45,-206.08 375.2,-193.73 392.45,-185.45"/>
<polygon fill="#63b8ff" stroke="#63b8ff" points="328.07,-212.46 320.57,-219.94 331.1,-218.77 328.07,-212.46"/>
</a>
</g>
</g>
<!-- Node14 -->
<g id="Node000014" class="node">
<title>Node14</title>
<g id="a_Node000014"><a xlink:href="$_temp_modbus_server_8h.html" xlink:title="Modbus RTU server for temperature monitoring system.">
<polygon fill="white" stroke="#666666" points="269.5,-185 125.25,-185 125.25,-165.75 269.5,-165.75 269.5,-185"/>
<text xml:space="preserve" text-anchor="middle" x="197.38" y="-171.5" font-family="Helvetica,sans-Serif" font-size="10.00">include/TempModbusServer.h</text>
</a>
</g>
</g>
<!-- Node13&#45;&gt;Node14 -->
<g id="edge15_Node000013_Node000014" class="edge">
<title>Node13&#45;&gt;Node14</title>
<g id="a_edge15_Node000013_Node000014"><a xlink:title=" ">
<path fill="none" stroke="#63b8ff" d="M272.78,-215.36C254.4,-205.86 230.79,-193.65 214.93,-185.45"/>
<polygon fill="#63b8ff" stroke="#63b8ff" points="271.07,-218.41 281.56,-219.9 274.28,-212.2 271.07,-218.41"/>
</a>
</g>
</g>
<!-- Node15 -->
<g id="Node000015" class="node">
<title>Node15</title>
<g id="a_Node000015"><a xlink:href="$_register_map_8cpp.html" xlink:title="Implementation of Modbus register mapping for temperature monitoring.">
<polygon fill="white" stroke="#666666" points="106.75,-185 0,-185 0,-165.75 106.75,-165.75 106.75,-185"/>
<text xml:space="preserve" text-anchor="middle" x="53.38" y="-171.5" font-family="Helvetica,sans-Serif" font-size="10.00">src/RegisterMap.cpp</text>
</a>
</g>
</g>
<!-- Node13&#45;&gt;Node15 -->
<g id="edge19_Node000013_Node000015" class="edge">
<title>Node13&#45;&gt;Node15</title>
<g id="a_edge19_Node000013_Node000015"><a xlink:title=" ">
<path fill="none" stroke="#63b8ff" d="M247.08,-218.13C201.65,-208.34 137.24,-194.45 95.38,-185.43"/>
<polygon fill="#63b8ff" stroke="#63b8ff" points="246.2,-221.53 256.72,-220.21 247.68,-214.68 246.2,-221.53"/>
</a>
</g>
</g>
<!-- Node14&#45;&gt;Node7 -->
<g id="edge17_Node000014_Node000007" class="edge">
<title>Node14&#45;&gt;Node7</title>
<g id="a_edge17_Node000014_Node000007"><a xlink:title=" ">
<path fill="none" stroke="#63b8ff" d="M127.03,-162.77C88.66,-153.24 52.63,-136.9 72.38,-110.5 109.08,-61.43 294.9,-28.13 374.78,-15.86"/>
<polygon fill="#63b8ff" stroke="#63b8ff" points="125.86,-166.09 136.4,-164.94 127.44,-159.28 125.86,-166.09"/>
</a>
</g>
</g>
<!-- Node14&#45;&gt;Node10 -->
<g id="edge16_Node000014_Node000010" class="edge">
<title>Node14&#45;&gt;Node10</title>
<g id="a_edge16_Node000014_Node000010"><a xlink:title=" ">
<path fill="none" stroke="#63b8ff" d="M182.05,-157.01C174.12,-148.03 164.78,-137.45 158.3,-130.11"/>
<polygon fill="#63b8ff" stroke="#63b8ff" points="179.37,-159.27 188.61,-164.45 184.62,-154.63 179.37,-159.27"/>
</a>
</g>
</g>
</g>
</svg>
