<?xml version="1.0" encoding="UTF-8" standalone="no"?>
<!DOCTYPE svg PUBLIC "-//W3C//DTD SVG 1.1//EN"
 "http://www.w3.org/Graphics/SVG/1.1/DTD/svg11.dtd">
<!-- Generated by graphviz version 13.1.0 (20250701.0955)
 -->
<!-- Title: include/MeasurementPoint.h Pages: 1 -->
<svg width="748pt" height="304pt"
 viewBox="0.00 0.00 748.00 304.00" xmlns="http://www.w3.org/2000/svg" xmlns:xlink="http://www.w3.org/1999/xlink">
<g id="graph0" class="graph" transform="scale(1 1) rotate(0) translate(4 299.5)">
<title>include/MeasurementPoint.h</title>
<!-- Node1 -->
<g id="Node000001" class="node">
<title>Node1</title>
<g id="a_Node000001"><a xlink:title="Measurement point abstraction for temperature monitoring system.">
<polygon fill="#999999" stroke="#666666" points="563.25,-295.5 423.5,-295.5 423.5,-276.25 563.25,-276.25 563.25,-295.5"/>
<text xml:space="preserve" text-anchor="middle" x="493.38" y="-282" font-family="Helvetica,sans-Serif" font-size="10.00">include/MeasurementPoint.h</text>
</a>
</g>
</g>
<!-- Node2 -->
<g id="Node000002" class="node">
<title>Node2</title>
<g id="a_Node000002"><a xlink:href="_alarm_8h.html" target="_top" xlink:title="Alarm management system for temperature monitoring.">
<polygon fill="white" stroke="#666666" points="535.12,-240.25 451.62,-240.25 451.62,-221 535.12,-221 535.12,-240.25"/>
<text xml:space="preserve" text-anchor="middle" x="493.38" y="-226.75" font-family="Helvetica,sans-Serif" font-size="10.00">include/Alarm.h</text>
</a>
</g>
</g>
<!-- Node1&#45;&gt;Node2 -->
<g id="edge1_Node000001_Node000002" class="edge">
<title>Node1&#45;&gt;Node2</title>
<g id="a_edge1_Node000001_Node000002"><a xlink:title=" ">
<path fill="none" stroke="#63b8ff" d="M493.38,-264.63C493.38,-256.34 493.38,-247.17 493.38,-240.61"/>
<polygon fill="#63b8ff" stroke="#63b8ff" points="489.88,-264.57 493.38,-274.57 496.88,-264.57 489.88,-264.57"/>
</a>
</g>
</g>
<!-- Node3 -->
<g id="Node000003" class="node">
<title>Node3</title>
<g id="a_Node000003"><a xlink:href="_temperature_controller_8h.html" target="_top" xlink:title="Central temperature monitoring and control system.">
<polygon fill="white" stroke="#666666" points="456,-185 302.75,-185 302.75,-165.75 456,-165.75 456,-185"/>
<text xml:space="preserve" text-anchor="middle" x="379.38" y="-171.5" font-family="Helvetica,sans-Serif" font-size="10.00">include/TemperatureController.h</text>
</a>
</g>
</g>
<!-- Node1&#45;&gt;Node3 -->
<g id="edge21_Node000001_Node000003" class="edge">
<title>Node1&#45;&gt;Node3</title>
<g id="a_edge21_Node000001_Node000003"><a xlink:title=" ">
<path fill="none" stroke="#63b8ff" d="M474.12,-268.61C464.45,-260.3 452.63,-249.91 442.38,-240.25 422.19,-221.24 399.62,-197.78 387.74,-185.26"/>
<polygon fill="#63b8ff" stroke="#63b8ff" points="471.59,-271.06 481.47,-274.88 476.14,-265.73 471.59,-271.06"/>
</a>
</g>
</g>
<!-- Node10 -->
<g id="Node000010" class="node">
<title>Node10</title>
<g id="a_Node000010"><a xlink:href="_logger_manager_8cpp.html" target="_top" xlink:title="Implementation of data logging and event management system.">
<polygon fill="white" stroke="#666666" points="715,-129.75 597.75,-129.75 597.75,-110.5 715,-110.5 715,-129.75"/>
<text xml:space="preserve" text-anchor="middle" x="656.38" y="-116.25" font-family="Helvetica,sans-Serif" font-size="10.00">src/LoggerManager.cpp</text>
</a>
</g>
</g>
<!-- Node1&#45;&gt;Node10 -->
<g id="edge22_Node000001_Node000010" class="edge">
<title>Node1&#45;&gt;Node10</title>
<g id="a_edge22_Node000001_Node000010"><a xlink:title=" ">
<path fill="none" stroke="#63b8ff" d="M512.72,-268.72C522.43,-260.42 534.24,-250.03 544.38,-240.25 585.23,-200.83 630.61,-150.3 648.51,-130.07"/>
<polygon fill="#63b8ff" stroke="#63b8ff" points="510.72,-265.83 505.35,-274.96 515.24,-271.17 510.72,-265.83"/>
</a>
</g>
</g>
<!-- Node13 -->
<g id="Node000013" class="node">
<title>Node13</title>
<g id="a_Node000013"><a xlink:href="_register_map_8h.html" target="_top" xlink:title="Modbus register mapping for temperature monitoring system.">
<polygon fill="white" stroke="#666666" points="325.12,-240.25 211.62,-240.25 211.62,-221 325.12,-221 325.12,-240.25"/>
<text xml:space="preserve" text-anchor="middle" x="268.38" y="-226.75" font-family="Helvetica,sans-Serif" font-size="10.00">include/RegisterMap.h</text>
</a>
</g>
</g>
<!-- Node1&#45;&gt;Node13 -->
<g id="edge15_Node000001_Node000013" class="edge">
<title>Node1&#45;&gt;Node13</title>
<g id="a_edge15_Node000001_Node000013"><a xlink:title=" ">
<path fill="none" stroke="#63b8ff" d="M443.77,-273.14C402.45,-263.36 344.44,-249.63 306.64,-240.68"/>
<polygon fill="#63b8ff" stroke="#63b8ff" points="442.94,-276.54 453.48,-275.43 444.55,-269.72 442.94,-276.54"/>
</a>
</g>
</g>
<!-- Node16 -->
<g id="Node000016" class="node">
<title>Node16</title>
<g id="a_Node000016"><a xlink:href="_measurement_point_8cpp.html" target="_top" xlink:title="Implementation of temperature measurement point management.">
<polygon fill="white" stroke="#666666" points="739.88,-240.25 606.88,-240.25 606.88,-221 739.88,-221 739.88,-240.25"/>
<text xml:space="preserve" text-anchor="middle" x="673.38" y="-226.75" font-family="Helvetica,sans-Serif" font-size="10.00">src/MeasurementPoint.cpp</text>
</a>
</g>
</g>
<!-- Node1&#45;&gt;Node16 -->
<g id="edge23_Node000001_Node000016" class="edge">
<title>Node1&#45;&gt;Node16</title>
<g id="a_edge23_Node000001_Node000016"><a xlink:title=" ">
<path fill="none" stroke="#63b8ff" d="M534.56,-272.69C567.48,-262.95 612.9,-249.52 642.69,-240.7"/>
<polygon fill="#63b8ff" stroke="#63b8ff" points="533.96,-269.22 525.36,-275.41 535.94,-275.93 533.96,-269.22"/>
</a>
</g>
</g>
<!-- Node2&#45;&gt;Node3 -->
<g id="edge2_Node000002_Node000003" class="edge">
<title>Node2&#45;&gt;Node3</title>
<g id="a_edge2_Node000002_Node000003"><a xlink:title=" ">
<path fill="none" stroke="#63b8ff" d="M463.69,-215.76C443.22,-206.2 416.61,-193.77 398.81,-185.45"/>
<polygon fill="#63b8ff" stroke="#63b8ff" points="462.12,-218.89 472.67,-219.95 465.09,-212.55 462.12,-218.89"/>
</a>
</g>
</g>
<!-- Node12 -->
<g id="Node000012" class="node">
<title>Node12</title>
<g id="a_Node000012"><a xlink:href="_alarm_8cpp.html" target="_top" xlink:title="Implementation of alarm management system for temperature monitoring.">
<polygon fill="white" stroke="#666666" points="550.75,-185 474,-185 474,-165.75 550.75,-165.75 550.75,-185"/>
<text xml:space="preserve" text-anchor="middle" x="512.38" y="-171.5" font-family="Helvetica,sans-Serif" font-size="10.00">src/Alarm.cpp</text>
</a>
</g>
</g>
<!-- Node2&#45;&gt;Node12 -->
<g id="edge14_Node000002_Node000012" class="edge">
<title>Node2&#45;&gt;Node12</title>
<g id="a_edge14_Node000002_Node000012"><a xlink:title=" ">
<path fill="none" stroke="#63b8ff" d="M500.29,-210.25C503.33,-201.74 506.74,-192.15 509.17,-185.36"/>
<polygon fill="#63b8ff" stroke="#63b8ff" points="497.09,-208.81 497.02,-219.41 503.68,-211.16 497.09,-208.81"/>
</a>
</g>
</g>
<!-- Node4 -->
<g id="Node000004" class="node">
<title>Node4</title>
<g id="a_Node000004"><a xlink:href="_c_s_v_config_manager_8h.html" target="_top" xlink:title="CSV configuration import/export manager for measurement points and alarms.">
<polygon fill="white" stroke="#666666" points="451.5,-129.75 307.25,-129.75 307.25,-110.5 451.5,-110.5 451.5,-129.75"/>
<text xml:space="preserve" text-anchor="middle" x="379.38" y="-116.25" font-family="Helvetica,sans-Serif" font-size="10.00">include/CSVConfigManager.h</text>
</a>
</g>
</g>
<!-- Node3&#45;&gt;Node4 -->
<g id="edge3_Node000003_Node000004" class="edge">
<title>Node3&#45;&gt;Node4</title>
<g id="a_edge3_Node000003_Node000004"><a xlink:title=" ">
<path fill="none" stroke="#63b8ff" d="M379.38,-154.13C379.38,-145.84 379.38,-136.67 379.38,-130.11"/>
<polygon fill="#63b8ff" stroke="#63b8ff" points="375.88,-154.07 379.38,-164.07 382.88,-154.07 375.88,-154.07"/>
</a>
</g>
</g>
<!-- Node5 -->
<g id="Node000005" class="node">
<title>Node5</title>
<g id="a_Node000005"><a xlink:href="_config_manager_8h.html" target="_top" xlink:title="Configuration management system for temperature monitoring device.">
<polygon fill="white" stroke="#666666" points="541,-74.5 417.75,-74.5 417.75,-55.25 541,-55.25 541,-74.5"/>
<text xml:space="preserve" text-anchor="middle" x="479.38" y="-61" font-family="Helvetica,sans-Serif" font-size="10.00">include/ConfigManager.h</text>
</a>
</g>
</g>
<!-- Node3&#45;&gt;Node5 -->
<g id="edge9_Node000003_Node000005" class="edge">
<title>Node3&#45;&gt;Node5</title>
<g id="a_edge9_Node000003_Node000005"><a xlink:title=" ">
<path fill="none" stroke="#63b8ff" d="M417.34,-160.9C432.63,-153.77 449.24,-143.57 460.38,-129.75 473.59,-113.35 477.62,-87.99 478.84,-74.69"/>
<polygon fill="#63b8ff" stroke="#63b8ff" points="416.23,-157.57 408.44,-164.76 419.01,-164 416.23,-157.57"/>
</a>
</g>
</g>
<!-- Node7 -->
<g id="Node000007" class="node">
<title>Node7</title>
<g id="a_Node000007"><a xlink:href="_temperature_controller_8cpp.html" target="_top" xlink:title="Implementation of the central temperature monitoring and control system.">
<polygon fill="white" stroke="#666666" points="642.62,-19.25 496.12,-19.25 496.12,0 642.62,0 642.62,-19.25"/>
<text xml:space="preserve" text-anchor="middle" x="569.38" y="-5.75" font-family="Helvetica,sans-Serif" font-size="10.00">src/TemperatureController.cpp</text>
</a>
</g>
</g>
<!-- Node3&#45;&gt;Node7 -->
<g id="edge12_Node000003_Node000007" class="edge">
<title>Node3&#45;&gt;Node7</title>
<g id="a_edge12_Node000003_Node000007"><a xlink:title=" ">
<path fill="none" stroke="#63b8ff" d="M421.45,-161.55C461.34,-147.09 519.62,-119.52 550.38,-74.5 562.12,-57.3 566.74,-32.71 568.45,-19.62"/>
<polygon fill="#63b8ff" stroke="#63b8ff" points="420.45,-158.2 412.15,-164.79 422.75,-164.81 420.45,-158.2"/>
</a>
</g>
</g>
<!-- Node8 -->
<g id="Node000008" class="node">
<title>Node8</title>
<g id="a_Node000008"><a xlink:href="main_8cpp.html" target="_top" xlink:title="Main application entry point for Industrial Temperature Monitoring System.">
<polygon fill="white" stroke="#666666" points="270.5,-19.25 198.25,-19.25 198.25,0 270.5,0 270.5,-19.25"/>
<text xml:space="preserve" text-anchor="middle" x="234.38" y="-5.75" font-family="Helvetica,sans-Serif" font-size="10.00">src/main.cpp</text>
</a>
</g>
</g>
<!-- Node3&#45;&gt;Node8 -->
<g id="edge13_Node000003_Node000008" class="edge">
<title>Node3&#45;&gt;Node8</title>
<g id="a_edge13_Node000003_Node000008"><a xlink:title=" ">
<path fill="none" stroke="#63b8ff" d="M347.71,-160.47C331.97,-152.72 313.2,-142.12 298.38,-129.75 274.06,-109.46 268.18,-102.5 253.38,-74.5 243.75,-56.29 238.32,-32.52 235.91,-19.73"/>
<polygon fill="#63b8ff" stroke="#63b8ff" points="346.13,-163.6 356.66,-164.73 349.13,-157.28 346.13,-163.6"/>
</a>
</g>
</g>
<!-- Node3&#45;&gt;Node10 -->
<g id="edge10_Node000003_Node000010" class="edge">
<title>Node3&#45;&gt;Node10</title>
<g id="a_edge10_Node000003_Node000010"><a xlink:title=" ">
<path fill="none" stroke="#63b8ff" d="M437.85,-163.13C488.87,-153.33 561.93,-139.28 609.27,-130.18"/>
<polygon fill="#63b8ff" stroke="#63b8ff" points="437.32,-159.67 428.16,-165 438.65,-166.54 437.32,-159.67"/>
</a>
</g>
</g>
<!-- Node11 -->
<g id="Node000011" class="node">
<title>Node11</title>
<g id="a_Node000011"><a xlink:href="_temp_modbus_server_8cpp.html" target="_top" xlink:title="Implementation of Modbus RTU server for temperature monitoring.">
<polygon fill="white" stroke="#666666" points="251.12,-129.75 113.62,-129.75 113.62,-110.5 251.12,-110.5 251.12,-129.75"/>
<text xml:space="preserve" text-anchor="middle" x="182.38" y="-116.25" font-family="Helvetica,sans-Serif" font-size="10.00">src/TempModbusServer.cpp</text>
</a>
</g>
</g>
<!-- Node3&#45;&gt;Node11 -->
<g id="edge11_Node000003_Node000011" class="edge">
<title>Node3&#45;&gt;Node11</title>
<g id="a_edge11_Node000003_Node000011"><a xlink:title=" ">
<path fill="none" stroke="#63b8ff" d="M335.24,-162.45C299.14,-152.69 248.84,-139.09 215.96,-130.2"/>
<polygon fill="#63b8ff" stroke="#63b8ff" points="333.93,-165.72 344.5,-164.95 335.76,-158.96 333.93,-165.72"/>
</a>
</g>
</g>
<!-- Node4&#45;&gt;Node5 -->
<g id="edge4_Node000004_Node000005" class="edge">
<title>Node4&#45;&gt;Node5</title>
<g id="a_edge4_Node000004_Node000005"><a xlink:title=" ">
<path fill="none" stroke="#63b8ff" d="M406.42,-104.73C424.23,-95.24 447,-83.11 462.33,-74.95"/>
<polygon fill="#63b8ff" stroke="#63b8ff" points="404.86,-101.59 397.67,-109.38 408.15,-107.77 404.86,-101.59"/>
</a>
</g>
</g>
<!-- Node9 -->
<g id="Node000009" class="node">
<title>Node9</title>
<g id="a_Node000009"><a xlink:href="_c_s_v_config_manager_8cpp.html" target="_top" xlink:title="Implementation of CSV configuration management for measurement points.">
<polygon fill="white" stroke="#666666" points="400.12,-74.5 262.62,-74.5 262.62,-55.25 400.12,-55.25 400.12,-74.5"/>
<text xml:space="preserve" text-anchor="middle" x="331.38" y="-61" font-family="Helvetica,sans-Serif" font-size="10.00">src/CSVConfigManager.cpp</text>
</a>
</g>
</g>
<!-- Node4&#45;&gt;Node9 -->
<g id="edge8_Node000004_Node000009" class="edge">
<title>Node4&#45;&gt;Node9</title>
<g id="a_edge8_Node000004_Node000009"><a xlink:title=" ">
<path fill="none" stroke="#63b8ff" d="M363.98,-102.04C355.83,-93 346.16,-82.27 339.47,-74.86"/>
<polygon fill="#63b8ff" stroke="#63b8ff" points="361.14,-104.12 370.44,-109.21 366.34,-99.44 361.14,-104.12"/>
</a>
</g>
</g>
<!-- Node6 -->
<g id="Node000006" class="node">
<title>Node6</title>
<g id="a_Node000006"><a xlink:href="_config_manager_8cpp.html" target="_top" xlink:title="Implementation of web&#45;based configuration management system.">
<polygon fill="white" stroke="#666666" points="477.62,-19.25 361.12,-19.25 361.12,0 477.62,0 477.62,-19.25"/>
<text xml:space="preserve" text-anchor="middle" x="419.38" y="-5.75" font-family="Helvetica,sans-Serif" font-size="10.00">src/ConfigManager.cpp</text>
</a>
</g>
</g>
<!-- Node5&#45;&gt;Node6 -->
<g id="edge5_Node000005_Node000006" class="edge">
<title>Node5&#45;&gt;Node6</title>
<g id="a_edge5_Node000005_Node000006"><a xlink:title=" ">
<path fill="none" stroke="#63b8ff" d="M460.8,-47.39C450.44,-38.19 437.94,-27.1 429.4,-19.52"/>
<polygon fill="#63b8ff" stroke="#63b8ff" points="458.26,-49.82 468.06,-53.84 462.91,-44.58 458.26,-49.82"/>
</a>
</g>
</g>
<!-- Node5&#45;&gt;Node7 -->
<g id="edge6_Node000005_Node000007" class="edge">
<title>Node5&#45;&gt;Node7</title>
<g id="a_edge6_Node000005_Node000007"><a xlink:title=" ">
<path fill="none" stroke="#63b8ff" d="M504.39,-49.07C520.32,-39.65 540.43,-27.75 554.03,-19.7"/>
<polygon fill="#63b8ff" stroke="#63b8ff" points="502.77,-45.97 495.94,-54.07 506.33,-51.99 502.77,-45.97"/>
</a>
</g>
</g>
<!-- Node5&#45;&gt;Node8 -->
<g id="edge7_Node000005_Node000008" class="edge">
<title>Node5&#45;&gt;Node8</title>
<g id="a_edge7_Node000005_Node000008"><a xlink:title=" ">
<path fill="none" stroke="#63b8ff" d="M426.36,-52.35C379.37,-42.14 312.02,-27.5 270.84,-18.55"/>
<polygon fill="#63b8ff" stroke="#63b8ff" points="425.54,-55.76 436.06,-54.46 427.03,-48.92 425.54,-55.76"/>
</a>
</g>
</g>
<!-- Node13&#45;&gt;Node3 -->
<g id="edge19_Node000013_Node000003" class="edge">
<title>Node13&#45;&gt;Node3</title>
<g id="a_edge19_Node000013_Node000003"><a xlink:title=" ">
<path fill="none" stroke="#63b8ff" d="M297.56,-215.62C317.45,-206.08 343.2,-193.73 360.45,-185.45"/>
<polygon fill="#63b8ff" stroke="#63b8ff" points="296.07,-212.46 288.57,-219.94 299.1,-218.77 296.07,-212.46"/>
</a>
</g>
</g>
<!-- Node14 -->
<g id="Node000014" class="node">
<title>Node14</title>
<g id="a_Node000014"><a xlink:href="_temp_modbus_server_8h.html" target="_top" xlink:title="Modbus RTU server for temperature monitoring system.">
<polygon fill="white" stroke="#666666" points="269.5,-185 125.25,-185 125.25,-165.75 269.5,-165.75 269.5,-185"/>
<text xml:space="preserve" text-anchor="middle" x="197.38" y="-171.5" font-family="Helvetica,sans-Serif" font-size="10.00">include/TempModbusServer.h</text>
</a>
</g>
</g>
<!-- Node13&#45;&gt;Node14 -->
<g id="edge16_Node000013_Node000014" class="edge">
<title>Node13&#45;&gt;Node14</title>
<g id="a_edge16_Node000013_Node000014"><a xlink:title=" ">
<path fill="none" stroke="#63b8ff" d="M247.13,-213.69C234.73,-204.39 219.55,-193.01 209.24,-185.27"/>
<polygon fill="#63b8ff" stroke="#63b8ff" points="245.02,-216.48 255.12,-219.68 249.22,-210.88 245.02,-216.48"/>
</a>
</g>
</g>
<!-- Node15 -->
<g id="Node000015" class="node">
<title>Node15</title>
<g id="a_Node000015"><a xlink:href="_register_map_8cpp.html" target="_top" xlink:title="Implementation of Modbus register mapping for temperature monitoring.">
<polygon fill="white" stroke="#666666" points="106.75,-185 0,-185 0,-165.75 106.75,-165.75 106.75,-185"/>
<text xml:space="preserve" text-anchor="middle" x="53.38" y="-171.5" font-family="Helvetica,sans-Serif" font-size="10.00">src/RegisterMap.cpp</text>
</a>
</g>
</g>
<!-- Node13&#45;&gt;Node15 -->
<g id="edge20_Node000013_Node000015" class="edge">
<title>Node13&#45;&gt;Node15</title>
<g id="a_edge20_Node000013_Node000015"><a xlink:title=" ">
<path fill="none" stroke="#63b8ff" d="M220.97,-217.88C181.52,-208.11 126.15,-194.4 90.03,-185.45"/>
<polygon fill="#63b8ff" stroke="#63b8ff" points="219.89,-221.22 230.43,-220.23 221.57,-214.43 219.89,-221.22"/>
</a>
</g>
</g>
<!-- Node14&#45;&gt;Node8 -->
<g id="edge18_Node000014_Node000008" class="edge">
<title>Node14&#45;&gt;Node8</title>
<g id="a_edge18_Node000014_Node000008"><a xlink:title=" ">
<path fill="none" stroke="#63b8ff" d="M148.9,-161.7C120.52,-151.49 92.4,-134.8 104.38,-110.5 127.02,-64.55 182.09,-33.84 212.79,-19.66"/>
<polygon fill="#63b8ff" stroke="#63b8ff" points="147.68,-164.98 158.27,-164.82 149.89,-158.34 147.68,-164.98"/>
</a>
</g>
</g>
<!-- Node14&#45;&gt;Node11 -->
<g id="edge17_Node000014_Node000011" class="edge">
<title>Node14&#45;&gt;Node11</title>
<g id="a_edge17_Node000014_Node000011"><a xlink:title=" ">
<path fill="none" stroke="#63b8ff" d="M191.84,-154.71C189.46,-146.27 186.8,-136.83 184.91,-130.11"/>
<polygon fill="#63b8ff" stroke="#63b8ff" points="188.41,-155.45 194.49,-164.13 195.15,-153.55 188.41,-155.45"/>
</a>
</g>
</g>
</g>
</svg>
