<?xml version="1.0" encoding="UTF-8" standalone="no"?>
<!DOCTYPE svg PUBLIC "-//W3C//DTD SVG 1.1//EN"
 "http://www.w3.org/Graphics/SVG/1.1/DTD/svg11.dtd">
<!-- Generated by graphviz version 13.1.0 (20250701.0955)
 -->
<!-- Title: include/RegisterMap.h Pages: 1 -->
<svg width="703pt" height="248pt"
 viewBox="0.00 0.00 703.00 248.00" xmlns="http://www.w3.org/2000/svg" xmlns:xlink="http://www.w3.org/1999/xlink">
<g id="graph0" class="graph" transform="scale(1 1) rotate(0) translate(4 244.25)">
<title>include/RegisterMap.h</title>
<!-- Node1 -->
<g id="Node000001" class="node">
<title>Node1</title>
<g id="a_Node000001"><a xlink:title="Modbus register mapping for temperature monitoring system.">
<polygon fill="#999999" stroke="#666666" points="295.88,-240.25 182.38,-240.25 182.38,-221 295.88,-221 295.88,-240.25"/>
<text xml:space="preserve" text-anchor="middle" x="239.12" y="-226.75" font-family="Helvetica,sans-Serif" font-size="10.00">include/RegisterMap.h</text>
</a>
</g>
</g>
<!-- Node2 -->
<g id="Node000002" class="node">
<title>Node2</title>
<g id="a_Node000002"><a xlink:href="$_temp_modbus_server_8h.html" xlink:title="Modbus RTU server for temperature monitoring system.">
<polygon fill="white" stroke="#666666" points="144.25,-185 0,-185 0,-165.75 144.25,-165.75 144.25,-185"/>
<text xml:space="preserve" text-anchor="middle" x="72.12" y="-171.5" font-family="Helvetica,sans-Serif" font-size="10.00">include/TempModbusServer.h</text>
</a>
</g>
</g>
<!-- Node1&#45;&gt;Node2 -->
<g id="edge1_Node000001_Node000002" class="edge">
<title>Node1&#45;&gt;Node2</title>
<g id="a_edge1_Node000001_Node000002"><a xlink:title=" ">
<path fill="none" stroke="#63b8ff" d="M200.12,-217.19C169.64,-207.47 127.99,-194.19 100.59,-185.45"/>
<polygon fill="#63b8ff" stroke="#63b8ff" points="198.76,-220.43 209.35,-220.13 200.89,-213.76 198.76,-220.43"/>
</a>
</g>
</g>
<!-- Node5 -->
<g id="Node000005" class="node">
<title>Node5</title>
<g id="a_Node000005"><a xlink:href="$_temperature_controller_8h.html" xlink:title="Central temperature monitoring and control system.">
<polygon fill="white" stroke="#666666" points="315.75,-185 162.5,-185 162.5,-165.75 315.75,-165.75 315.75,-185"/>
<text xml:space="preserve" text-anchor="middle" x="239.12" y="-171.5" font-family="Helvetica,sans-Serif" font-size="10.00">include/TemperatureController.h</text>
</a>
</g>
</g>
<!-- Node1&#45;&gt;Node5 -->
<g id="edge4_Node000001_Node000005" class="edge">
<title>Node1&#45;&gt;Node5</title>
<g id="a_edge4_Node000001_Node000005"><a xlink:title=" ">
<path fill="none" stroke="#63b8ff" d="M239.12,-209.38C239.12,-201.09 239.12,-191.92 239.12,-185.36"/>
<polygon fill="#63b8ff" stroke="#63b8ff" points="235.63,-209.32 239.13,-219.32 242.63,-209.32 235.63,-209.32"/>
</a>
</g>
</g>
<!-- Node12 -->
<g id="Node000012" class="node">
<title>Node12</title>
<g id="a_Node000012"><a xlink:href="$_register_map_8cpp.html" xlink:title="Implementation of Modbus register mapping for temperature monitoring.">
<polygon fill="white" stroke="#666666" points="440.5,-185 333.75,-185 333.75,-165.75 440.5,-165.75 440.5,-185"/>
<text xml:space="preserve" text-anchor="middle" x="387.12" y="-171.5" font-family="Helvetica,sans-Serif" font-size="10.00">src/RegisterMap.cpp</text>
</a>
</g>
</g>
<!-- Node1&#45;&gt;Node12 -->
<g id="edge15_Node000001_Node000012" class="edge">
<title>Node1&#45;&gt;Node12</title>
<g id="a_edge15_Node000001_Node000012"><a xlink:title=" ">
<path fill="none" stroke="#63b8ff" d="M274.76,-216.8C301.67,-207.12 337.93,-194.07 361.9,-185.45"/>
<polygon fill="#63b8ff" stroke="#63b8ff" points="273.88,-213.4 265.66,-220.08 276.25,-219.99 273.88,-213.4"/>
</a>
</g>
</g>
<!-- Node3 -->
<g id="Node000003" class="node">
<title>Node3</title>
<g id="a_Node000003"><a xlink:href="$_temp_modbus_server_8cpp.html" xlink:title="Implementation of Modbus RTU server for temperature monitoring.">
<polygon fill="white" stroke="#666666" points="156.88,-129.75 19.38,-129.75 19.38,-110.5 156.88,-110.5 156.88,-129.75"/>
<text xml:space="preserve" text-anchor="middle" x="88.12" y="-116.25" font-family="Helvetica,sans-Serif" font-size="10.00">src/TempModbusServer.cpp</text>
</a>
</g>
</g>
<!-- Node2&#45;&gt;Node3 -->
<g id="edge2_Node000002_Node000003" class="edge">
<title>Node2&#45;&gt;Node3</title>
<g id="a_edge2_Node000002_Node000003"><a xlink:title=" ">
<path fill="none" stroke="#63b8ff" d="M78.03,-154.71C80.57,-146.27 83.41,-136.83 85.43,-130.11"/>
<polygon fill="#63b8ff" stroke="#63b8ff" points="74.73,-153.55 75.2,-164.13 81.43,-155.56 74.73,-153.55"/>
</a>
</g>
</g>
<!-- Node4 -->
<g id="Node000004" class="node">
<title>Node4</title>
<g id="a_Node000004"><a xlink:href="$main_8cpp.html" xlink:title="Main application entry point for Industrial Temperature Monitoring System.">
<polygon fill="white" stroke="#666666" points="210.25,-19.25 138,-19.25 138,0 210.25,0 210.25,-19.25"/>
<text xml:space="preserve" text-anchor="middle" x="174.12" y="-5.75" font-family="Helvetica,sans-Serif" font-size="10.00">src/main.cpp</text>
</a>
</g>
</g>
<!-- Node2&#45;&gt;Node4 -->
<g id="edge3_Node000002_Node000004" class="edge">
<title>Node2&#45;&gt;Node4</title>
<g id="a_edge3_Node000002_Node000004"><a xlink:title=" ">
<path fill="none" stroke="#63b8ff" d="M41.54,-160.05C20.82,-148.2 -0.93,-130.18 10.12,-110.5 38.21,-60.51 102.59,-32.61 141.81,-19.68"/>
<polygon fill="#63b8ff" stroke="#63b8ff" points="39.67,-163.02 50.14,-164.64 42.96,-156.84 39.67,-163.02"/>
</a>
</g>
</g>
<!-- Node5&#45;&gt;Node3 -->
<g id="edge12_Node000005_Node000003" class="edge">
<title>Node5&#45;&gt;Node3</title>
<g id="a_edge12_Node000005_Node000003"><a xlink:title=" ">
<path fill="none" stroke="#63b8ff" d="M202.76,-161.55C175.31,-151.87 138.31,-138.82 113.87,-130.2"/>
<polygon fill="#63b8ff" stroke="#63b8ff" points="201.49,-164.81 212.08,-164.84 203.82,-158.21 201.49,-164.81"/>
</a>
</g>
</g>
<!-- Node5&#45;&gt;Node4 -->
<g id="edge14_Node000005_Node000004" class="edge">
<title>Node5&#45;&gt;Node4</title>
<g id="a_edge14_Node000005_Node000004"><a xlink:title=" ">
<path fill="none" stroke="#63b8ff" d="M231.5,-155.16C217.4,-119.65 187.8,-45.07 177.64,-19.47"/>
<polygon fill="#63b8ff" stroke="#63b8ff" points="228.13,-156.16 235.07,-164.16 234.64,-153.58 228.13,-156.16"/>
</a>
</g>
</g>
<!-- Node6 -->
<g id="Node000006" class="node">
<title>Node6</title>
<g id="a_Node000006"><a xlink:href="$_c_s_v_config_manager_8h.html" xlink:title="CSV configuration import/export manager for measurement points and alarms.">
<polygon fill="white" stroke="#666666" points="395.25,-129.75 251,-129.75 251,-110.5 395.25,-110.5 395.25,-129.75"/>
<text xml:space="preserve" text-anchor="middle" x="323.12" y="-116.25" font-family="Helvetica,sans-Serif" font-size="10.00">include/CSVConfigManager.h</text>
</a>
</g>
</g>
<!-- Node5&#45;&gt;Node6 -->
<g id="edge5_Node000005_Node000006" class="edge">
<title>Node5&#45;&gt;Node6</title>
<g id="a_edge5_Node000005_Node000006"><a xlink:title=" ">
<path fill="none" stroke="#63b8ff" d="M262.9,-159.3C277.69,-149.92 296.23,-138.17 308.81,-130.2"/>
<polygon fill="#63b8ff" stroke="#63b8ff" points="261.22,-156.22 254.65,-164.53 264.97,-162.13 261.22,-156.22"/>
</a>
</g>
</g>
<!-- Node7 -->
<g id="Node000007" class="node">
<title>Node7</title>
<g id="a_Node000007"><a xlink:href="$_config_manager_8h.html" xlink:title="Configuration management system for temperature monitoring device.">
<polygon fill="white" stroke="#666666" points="336.75,-74.5 213.5,-74.5 213.5,-55.25 336.75,-55.25 336.75,-74.5"/>
<text xml:space="preserve" text-anchor="middle" x="275.12" y="-61" font-family="Helvetica,sans-Serif" font-size="10.00">include/ConfigManager.h</text>
</a>
</g>
</g>
<!-- Node5&#45;&gt;Node7 -->
<g id="edge10_Node000005_Node000007" class="edge">
<title>Node5&#45;&gt;Node7</title>
<g id="a_edge10_Node000005_Node000007"><a xlink:title=" ">
<path fill="none" stroke="#63b8ff" d="M237.12,-154.09C236.55,-141.23 237.16,-124.46 242.12,-110.5 247.1,-96.52 258.03,-83.21 265.95,-74.82"/>
<polygon fill="#63b8ff" stroke="#63b8ff" points="233.61,-154.16 237.83,-163.87 240.59,-153.64 233.61,-154.16"/>
</a>
</g>
</g>
<!-- Node10 -->
<g id="Node000010" class="node">
<title>Node10</title>
<g id="a_Node000010"><a xlink:href="$_logger_manager_8cpp.html" xlink:title="Implementation of data logging and event management system.">
<polygon fill="white" stroke="#666666" points="530.75,-129.75 413.5,-129.75 413.5,-110.5 530.75,-110.5 530.75,-129.75"/>
<text xml:space="preserve" text-anchor="middle" x="472.12" y="-116.25" font-family="Helvetica,sans-Serif" font-size="10.00">src/LoggerManager.cpp</text>
</a>
</g>
</g>
<!-- Node5&#45;&gt;Node10 -->
<g id="edge11_Node000005_Node000010" class="edge">
<title>Node5&#45;&gt;Node10</title>
<g id="a_edge11_Node000005_Node000010"><a xlink:title=" ">
<path fill="none" stroke="#63b8ff" d="M289.95,-162.76C332.77,-152.97 393.18,-139.17 432.5,-130.18"/>
<polygon fill="#63b8ff" stroke="#63b8ff" points="289.36,-159.3 280.39,-164.94 290.92,-166.13 289.36,-159.3"/>
</a>
</g>
</g>
<!-- Node11 -->
<g id="Node000011" class="node">
<title>Node11</title>
<g id="a_Node000011"><a xlink:href="$_temperature_controller_8cpp.html" xlink:title="Implementation of the central temperature monitoring and control system.">
<polygon fill="white" stroke="#666666" points="695.38,-129.75 548.88,-129.75 548.88,-110.5 695.38,-110.5 695.38,-129.75"/>
<text xml:space="preserve" text-anchor="middle" x="622.12" y="-116.25" font-family="Helvetica,sans-Serif" font-size="10.00">src/TemperatureController.cpp</text>
</a>
</g>
</g>
<!-- Node5&#45;&gt;Node11 -->
<g id="edge13_Node000005_Node000011" class="edge">
<title>Node5&#45;&gt;Node11</title>
<g id="a_edge13_Node000005_Node000011"><a xlink:title=" ">
<path fill="none" stroke="#63b8ff" d="M315.56,-163.75C386.13,-153.94 489.83,-139.52 556.67,-130.23"/>
<polygon fill="#63b8ff" stroke="#63b8ff" points="315.45,-160.23 306.03,-165.07 316.42,-167.16 315.45,-160.23"/>
</a>
</g>
</g>
<!-- Node6&#45;&gt;Node7 -->
<g id="edge6_Node000006_Node000007" class="edge">
<title>Node6&#45;&gt;Node7</title>
<g id="a_edge6_Node000006_Node000007"><a xlink:title=" ">
<path fill="none" stroke="#63b8ff" d="M307.73,-102.04C299.58,-93 289.91,-82.27 283.22,-74.86"/>
<polygon fill="#63b8ff" stroke="#63b8ff" points="304.89,-104.12 314.19,-109.21 310.09,-99.44 304.89,-104.12"/>
</a>
</g>
</g>
<!-- Node9 -->
<g id="Node000009" class="node">
<title>Node9</title>
<g id="a_Node000009"><a xlink:href="$_c_s_v_config_manager_8cpp.html" xlink:title="Implementation of CSV configuration management for measurement points.">
<polygon fill="white" stroke="#666666" points="491.88,-74.5 354.38,-74.5 354.38,-55.25 491.88,-55.25 491.88,-74.5"/>
<text xml:space="preserve" text-anchor="middle" x="423.12" y="-61" font-family="Helvetica,sans-Serif" font-size="10.00">src/CSVConfigManager.cpp</text>
</a>
</g>
</g>
<!-- Node6&#45;&gt;Node9 -->
<g id="edge9_Node000006_Node000009" class="edge">
<title>Node6&#45;&gt;Node9</title>
<g id="a_edge9_Node000006_Node000009"><a xlink:title=" ">
<path fill="none" stroke="#63b8ff" d="M350.17,-104.73C367.98,-95.24 390.75,-83.11 406.08,-74.95"/>
<polygon fill="#63b8ff" stroke="#63b8ff" points="348.61,-101.59 341.42,-109.38 351.9,-107.77 348.61,-101.59"/>
</a>
</g>
</g>
<!-- Node7&#45;&gt;Node4 -->
<g id="edge8_Node000007_Node000004" class="edge">
<title>Node7&#45;&gt;Node4</title>
<g id="a_edge8_Node000007_Node000004"><a xlink:title=" ">
<path fill="none" stroke="#63b8ff" d="M247.81,-49.48C229.83,-39.99 206.82,-27.86 191.34,-19.7"/>
<polygon fill="#63b8ff" stroke="#63b8ff" points="246.17,-52.57 256.65,-54.14 249.44,-46.38 246.17,-52.57"/>
</a>
</g>
</g>
<!-- Node8 -->
<g id="Node000008" class="node">
<title>Node8</title>
<g id="a_Node000008"><a xlink:href="$_config_manager_8cpp.html" xlink:title="Implementation of web&#45;based configuration management system.">
<polygon fill="white" stroke="#666666" points="344.38,-19.25 227.88,-19.25 227.88,0 344.38,0 344.38,-19.25"/>
<text xml:space="preserve" text-anchor="middle" x="286.12" y="-5.75" font-family="Helvetica,sans-Serif" font-size="10.00">src/ConfigManager.cpp</text>
</a>
</g>
</g>
<!-- Node7&#45;&gt;Node8 -->
<g id="edge7_Node000007_Node000008" class="edge">
<title>Node7&#45;&gt;Node8</title>
<g id="a_edge7_Node000007_Node000008"><a xlink:title=" ">
<path fill="none" stroke="#63b8ff" d="M279.25,-43.92C280.98,-35.55 282.9,-26.25 284.27,-19.61"/>
<polygon fill="#63b8ff" stroke="#63b8ff" points="275.84,-43.1 277.25,-53.6 282.7,-44.51 275.84,-43.1"/>
</a>
</g>
</g>
</g>
</svg>
