<?xml version="1.0" encoding="UTF-8" standalone="no"?>
<!DOCTYPE svg PUBLIC "-//W3C//DTD SVG 1.1//EN"
 "http://www.w3.org/Graphics/SVG/1.1/DTD/svg11.dtd">
<!-- Generated by graphviz version 13.1.0 (20250701.0955)
 -->
<!-- Title: include/RegisterMap.h Pages: 1 -->
<svg width="822pt" height="248pt"
 viewBox="0.00 0.00 822.00 248.00" xmlns="http://www.w3.org/2000/svg" xmlns:xlink="http://www.w3.org/1999/xlink">
<g id="graph0" class="graph" transform="scale(1 1) rotate(0) translate(4 244.25)">
<title>include/RegisterMap.h</title>
<!-- Node1 -->
<g id="Node000001" class="node">
<title>Node1</title>
<g id="a_Node000001"><a xlink:title=" ">
<polygon fill="#999999" stroke="#666666" points="127.88,-240.25 14.38,-240.25 14.38,-221 127.88,-221 127.88,-240.25"/>
<text xml:space="preserve" text-anchor="middle" x="71.12" y="-226.75" font-family="Helvetica,sans-Serif" font-size="10.00">include/RegisterMap.h</text>
</a>
</g>
</g>
<!-- Node2 -->
<g id="Node000002" class="node">
<title>Node2</title>
<g id="a_Node000002"><a xlink:title=" ">
<polygon fill="#e0e0e0" stroke="#999999" points="48.25,-185 0,-185 0,-165.75 48.25,-165.75 48.25,-185"/>
<text xml:space="preserve" text-anchor="middle" x="24.12" y="-171.5" font-family="Helvetica,sans-Serif" font-size="10.00">stdint.h</text>
</a>
</g>
</g>
<!-- Node1&#45;&gt;Node2 -->
<g id="edge1_Node000001_Node000002" class="edge">
<title>Node1&#45;&gt;Node2</title>
<g id="a_edge1_Node000001_Node000002"><a xlink:title=" ">
<path fill="none" stroke="#63b8ff" d="M63.36,-220.83C56.94,-213.55 47.61,-202.98 39.66,-193.98"/>
<polygon fill="#63b8ff" stroke="#63b8ff" points="42.3,-191.68 33.06,-186.49 37.05,-196.31 42.3,-191.68"/>
</a>
</g>
</g>
<!-- Node3 -->
<g id="Node000003" class="node">
<title>Node3</title>
<g id="a_Node000003"><a xlink:href="_measurement_point_8h.html" target="_top" xlink:title=" ">
<polygon fill="white" stroke="#666666" points="172.12,-185 66.12,-185 66.12,-165.75 172.12,-165.75 172.12,-185"/>
<text xml:space="preserve" text-anchor="middle" x="119.12" y="-171.5" font-family="Helvetica,sans-Serif" font-size="10.00">MeasurementPoint.h</text>
</a>
</g>
</g>
<!-- Node1&#45;&gt;Node3 -->
<g id="edge2_Node000001_Node000003" class="edge">
<title>Node1&#45;&gt;Node3</title>
<g id="a_edge2_Node000001_Node000003"><a xlink:title=" ">
<path fill="none" stroke="#63b8ff" d="M79.05,-220.83C85.68,-213.48 95.34,-202.76 103.51,-193.69"/>
<polygon fill="#63b8ff" stroke="#63b8ff" points="105.92,-196.25 110.01,-186.48 100.72,-191.57 105.92,-196.25"/>
</a>
</g>
</g>
<!-- Node4 -->
<g id="Node000004" class="node">
<title>Node4</title>
<g id="a_Node000004"><a xlink:title=" ">
<polygon fill="#e0e0e0" stroke="#999999" points="214.75,-19.25 157.5,-19.25 157.5,0 214.75,0 214.75,-19.25"/>
<text xml:space="preserve" text-anchor="middle" x="186.12" y="-5.75" font-family="Helvetica,sans-Serif" font-size="10.00">Arduino.h</text>
</a>
</g>
</g>
<!-- Node3&#45;&gt;Node4 -->
<g id="edge3_Node000003_Node000004" class="edge">
<title>Node3&#45;&gt;Node4</title>
<g id="a_edge3_Node000003_Node000004"><a xlink:title=" ">
<path fill="none" stroke="#63b8ff" d="M101.04,-165.33C64.19,-145.73 -13.44,-97.66 19.12,-55.25 34.48,-35.26 101.59,-22.29 145.92,-15.73"/>
<polygon fill="#63b8ff" stroke="#63b8ff" points="146.3,-19.21 155.71,-14.34 145.32,-12.28 146.3,-19.21"/>
</a>
</g>
</g>
<!-- Node5 -->
<g id="Node000005" class="node">
<title>Node5</title>
<g id="a_Node000005"><a xlink:href="_sensor_8h.html" target="_top" xlink:title=" ">
<polygon fill="white" stroke="#666666" points="146.25,-129.75 92,-129.75 92,-110.5 146.25,-110.5 146.25,-129.75"/>
<text xml:space="preserve" text-anchor="middle" x="119.12" y="-116.25" font-family="Helvetica,sans-Serif" font-size="10.00">Sensor.h</text>
</a>
</g>
</g>
<!-- Node3&#45;&gt;Node5 -->
<g id="edge4_Node000003_Node000005" class="edge">
<title>Node3&#45;&gt;Node5</title>
<g id="a_edge4_Node000003_Node000005"><a xlink:title=" ">
<path fill="none" stroke="#63b8ff" d="M119.12,-165.58C119.12,-159.07 119.12,-149.92 119.12,-141.62"/>
<polygon fill="#63b8ff" stroke="#63b8ff" points="122.63,-141.62 119.13,-131.62 115.63,-141.62 122.63,-141.62"/>
</a>
</g>
</g>
<!-- Node9 -->
<g id="Node000009" class="node">
<title>Node9</title>
<g id="a_Node000009"><a xlink:href="_logger_manager_8h.html" target="_top" xlink:title=" ">
<polygon fill="white" stroke="#666666" points="501.25,-129.75 411,-129.75 411,-110.5 501.25,-110.5 501.25,-129.75"/>
<text xml:space="preserve" text-anchor="middle" x="456.12" y="-116.25" font-family="Helvetica,sans-Serif" font-size="10.00">LoggerManager.h</text>
</a>
</g>
</g>
<!-- Node3&#45;&gt;Node9 -->
<g id="edge9_Node000003_Node000009" class="edge">
<title>Node3&#45;&gt;Node9</title>
<g id="a_edge9_Node000003_Node000009"><a xlink:title=" ">
<path fill="none" stroke="#63b8ff" d="M172.52,-165.94C234.37,-156.16 335.86,-140.13 399.18,-130.12"/>
<polygon fill="#63b8ff" stroke="#63b8ff" points="399.72,-133.58 409.05,-128.56 398.62,-126.67 399.72,-133.58"/>
</a>
</g>
</g>
<!-- Node5&#45;&gt;Node4 -->
<g id="edge5_Node000005_Node000004" class="edge">
<title>Node5&#45;&gt;Node4</title>
<g id="a_edge5_Node000005_Node000004"><a xlink:title=" ">
<path fill="none" stroke="#63b8ff" d="M91.73,-112.16C58.04,-102.26 7.68,-82.26 28.12,-55.25 42.31,-36.5 103.84,-23.38 145.79,-16.43"/>
<polygon fill="#63b8ff" stroke="#63b8ff" points="146.24,-19.9 155.56,-14.87 145.13,-12.99 146.24,-19.9"/>
</a>
</g>
</g>
<!-- Node6 -->
<g id="Node000006" class="node">
<title>Node6</title>
<g id="a_Node000006"><a xlink:title=" ">
<polygon fill="#e0e0e0" stroke="#999999" points="99.38,-74.5 36.88,-74.5 36.88,-55.25 99.38,-55.25 99.38,-74.5"/>
<text xml:space="preserve" text-anchor="middle" x="68.12" y="-61" font-family="Helvetica,sans-Serif" font-size="10.00">OneWire.h</text>
</a>
</g>
</g>
<!-- Node5&#45;&gt;Node6 -->
<g id="edge6_Node000005_Node000006" class="edge">
<title>Node5&#45;&gt;Node6</title>
<g id="a_edge6_Node000005_Node000006"><a xlink:title=" ">
<path fill="none" stroke="#63b8ff" d="M110.7,-110.33C103.59,-102.9 93.18,-92.04 84.44,-82.91"/>
<polygon fill="#63b8ff" stroke="#63b8ff" points="87.22,-80.75 77.78,-75.95 82.17,-85.6 87.22,-80.75"/>
</a>
</g>
</g>
<!-- Node7 -->
<g id="Node000007" class="node">
<title>Node7</title>
<g id="a_Node000007"><a xlink:title=" ">
<polygon fill="#e0e0e0" stroke="#999999" points="223.12,-74.5 117.12,-74.5 117.12,-55.25 223.12,-55.25 223.12,-74.5"/>
<text xml:space="preserve" text-anchor="middle" x="170.12" y="-61" font-family="Helvetica,sans-Serif" font-size="10.00">DallasTemperature.h</text>
</a>
</g>
</g>
<!-- Node5&#45;&gt;Node7 -->
<g id="edge7_Node000005_Node000007" class="edge">
<title>Node5&#45;&gt;Node7</title>
<g id="a_edge7_Node000005_Node000007"><a xlink:title=" ">
<path fill="none" stroke="#63b8ff" d="M127.55,-110.33C134.66,-102.9 145.07,-92.04 153.81,-82.91"/>
<polygon fill="#63b8ff" stroke="#63b8ff" points="156.08,-85.6 160.47,-75.95 151.03,-80.75 156.08,-85.6"/>
</a>
</g>
</g>
<!-- Node8 -->
<g id="Node000008" class="node">
<title>Node8</title>
<g id="a_Node000008"><a xlink:title=" ">
<polygon fill="#e0e0e0" stroke="#999999" points="352.75,-74.5 241.5,-74.5 241.5,-55.25 352.75,-55.25 352.75,-74.5"/>
<text xml:space="preserve" text-anchor="middle" x="297.12" y="-61" font-family="Helvetica,sans-Serif" font-size="10.00">Adafruit_MAX31865.h</text>
</a>
</g>
</g>
<!-- Node5&#45;&gt;Node8 -->
<g id="edge8_Node000005_Node000008" class="edge">
<title>Node5&#45;&gt;Node8</title>
<g id="a_edge8_Node000005_Node000008"><a xlink:title=" ">
<path fill="none" stroke="#63b8ff" d="M146.55,-110.92C175.72,-102.19 222.22,-88.28 255.83,-78.23"/>
<polygon fill="#63b8ff" stroke="#63b8ff" points="256.66,-81.63 265.24,-75.41 254.65,-74.93 256.66,-81.63"/>
</a>
</g>
</g>
<!-- Node9&#45;&gt;Node4 -->
<g id="edge10_Node000009_Node000004" class="edge">
<title>Node9&#45;&gt;Node4</title>
<g id="a_edge10_Node000009_Node000004"><a xlink:title=" ">
<path fill="none" stroke="#63b8ff" d="M445.59,-110.12C428.94,-96.34 395.06,-70.06 362.12,-55.25 317.76,-35.3 262.94,-23.19 226.38,-16.71"/>
<polygon fill="#63b8ff" stroke="#63b8ff" points="227.13,-13.29 216.68,-15.06 225.95,-20.19 227.13,-13.29"/>
</a>
</g>
</g>
<!-- Node9&#45;&gt;Node9 -->
<g id="edge22_Node000009_Node000009" class="edge">
<title>Node9&#45;&gt;Node9</title>
<g id="a_edge22_Node000009_Node000009"><a xlink:title=" ">
<path fill="none" stroke="#63b8ff" d="M489.25,-130.23C505.18,-131.48 519.25,-128.11 519.25,-120.12 519.25,-114.14 511.34,-110.74 500.66,-109.95"/>
<polygon fill="#63b8ff" stroke="#63b8ff" points="500.74,-106.45 490.76,-110.01 500.79,-113.45 500.74,-106.45"/>
</a>
</g>
</g>
<!-- Node10 -->
<g id="Node000010" class="node">
<title>Node10</title>
<g id="a_Node000010"><a xlink:title=" ">
<polygon fill="#e0e0e0" stroke="#999999" points="446.62,-74.5 409.62,-74.5 409.62,-55.25 446.62,-55.25 446.62,-74.5"/>
<text xml:space="preserve" text-anchor="middle" x="428.12" y="-61" font-family="Helvetica,sans-Serif" font-size="10.00">FS.h</text>
</a>
</g>
</g>
<!-- Node9&#45;&gt;Node10 -->
<g id="edge11_Node000009_Node000010" class="edge">
<title>Node9&#45;&gt;Node10</title>
<g id="a_edge11_Node000009_Node000010"><a xlink:title=" ">
<path fill="none" stroke="#63b8ff" d="M451.5,-110.33C447.88,-103.44 442.7,-93.59 438.13,-84.91"/>
<polygon fill="#63b8ff" stroke="#63b8ff" points="441.31,-83.42 433.55,-76.2 435.11,-86.68 441.31,-83.42"/>
</a>
</g>
</g>
<!-- Node11 -->
<g id="Node000011" class="node">
<title>Node11</title>
<g id="a_Node000011"><a xlink:title=" ">
<polygon fill="#e0e0e0" stroke="#999999" points="503.38,-74.5 464.88,-74.5 464.88,-55.25 503.38,-55.25 503.38,-74.5"/>
<text xml:space="preserve" text-anchor="middle" x="484.12" y="-61" font-family="Helvetica,sans-Serif" font-size="10.00">SD.h</text>
</a>
</g>
</g>
<!-- Node9&#45;&gt;Node11 -->
<g id="edge12_Node000009_Node000011" class="edge">
<title>Node9&#45;&gt;Node11</title>
<g id="a_edge12_Node000009_Node000011"><a xlink:title=" ">
<path fill="none" stroke="#63b8ff" d="M460.75,-110.33C464.37,-103.44 469.55,-93.59 474.12,-84.91"/>
<polygon fill="#63b8ff" stroke="#63b8ff" points="477.14,-86.68 478.7,-76.2 470.94,-83.42 477.14,-86.68"/>
</a>
</g>
</g>
<!-- Node12 -->
<g id="Node000012" class="node">
<title>Node12</title>
<g id="a_Node000012"><a xlink:href="_time_manager_8h.html" target="_top" xlink:title=" ">
<polygon fill="white" stroke="#666666" points="604.5,-74.5 521.75,-74.5 521.75,-55.25 604.5,-55.25 604.5,-74.5"/>
<text xml:space="preserve" text-anchor="middle" x="563.12" y="-61" font-family="Helvetica,sans-Serif" font-size="10.00">TimeManager.h</text>
</a>
</g>
</g>
<!-- Node9&#45;&gt;Node12 -->
<g id="edge13_Node000009_Node000012" class="edge">
<title>Node9&#45;&gt;Node12</title>
<g id="a_edge13_Node000009_Node000012"><a xlink:title=" ">
<path fill="none" stroke="#63b8ff" d="M474.28,-110.09C490.8,-101.87 515.47,-89.59 534.62,-80.06"/>
<polygon fill="#63b8ff" stroke="#63b8ff" points="536.14,-83.22 543.53,-75.63 533.02,-76.95 536.14,-83.22"/>
</a>
</g>
</g>
<!-- Node19 -->
<g id="Node000019" class="node">
<title>Node19</title>
<g id="a_Node000019"><a xlink:title=" ">
<polygon fill="#e0e0e0" stroke="#999999" points="665.62,-74.5 622.62,-74.5 622.62,-55.25 665.62,-55.25 665.62,-74.5"/>
<text xml:space="preserve" text-anchor="middle" x="644.12" y="-61" font-family="Helvetica,sans-Serif" font-size="10.00">vector</text>
</a>
</g>
</g>
<!-- Node9&#45;&gt;Node19 -->
<g id="edge21_Node000009_Node000019" class="edge">
<title>Node9&#45;&gt;Node19</title>
<g id="a_edge21_Node000009_Node000019"><a xlink:title=" ">
<path fill="none" stroke="#63b8ff" d="M488.02,-110.09C522.37,-100.36 576.76,-84.96 611.42,-75.14"/>
<polygon fill="#63b8ff" stroke="#63b8ff" points="612.24,-78.54 620.91,-72.45 610.33,-71.81 612.24,-78.54"/>
</a>
</g>
</g>
<!-- Node12&#45;&gt;Node4 -->
<g id="edge14_Node000012_Node000004" class="edge">
<title>Node12&#45;&gt;Node4</title>
<g id="a_edge14_Node000012_Node000004"><a xlink:title=" ">
<path fill="none" stroke="#63b8ff" d="M521.39,-56.71C518.26,-56.2 515.14,-55.71 512.12,-55.25 409.21,-39.51 287.6,-23.56 226.08,-15.68"/>
<polygon fill="#63b8ff" stroke="#63b8ff" points="226.82,-12.25 216.45,-14.45 225.93,-19.19 226.82,-12.25"/>
</a>
</g>
</g>
<!-- Node13 -->
<g id="Node000013" class="node">
<title>Node13</title>
<g id="a_Node000013"><a xlink:title=" ">
<polygon fill="#e0e0e0" stroke="#999999" points="413.38,-19.25 368.88,-19.25 368.88,0 413.38,0 413.38,-19.25"/>
<text xml:space="preserve" text-anchor="middle" x="391.12" y="-5.75" font-family="Helvetica,sans-Serif" font-size="10.00">WiFi.h</text>
</a>
</g>
</g>
<!-- Node12&#45;&gt;Node13 -->
<g id="edge15_Node000012_Node000013" class="edge">
<title>Node12&#45;&gt;Node13</title>
<g id="a_edge15_Node000012_Node000013"><a xlink:title=" ">
<path fill="none" stroke="#63b8ff" d="M533.95,-54.84C503.73,-45.49 456.57,-30.89 424.79,-21.05"/>
<polygon fill="#63b8ff" stroke="#63b8ff" points="425.87,-17.72 415.29,-18.11 423.8,-24.41 425.87,-17.72"/>
</a>
</g>
</g>
<!-- Node14 -->
<g id="Node000014" class="node">
<title>Node14</title>
<g id="a_Node000014"><a xlink:title=" ">
<polygon fill="#e0e0e0" stroke="#999999" points="476.38,-19.25 431.88,-19.25 431.88,0 476.38,0 476.38,-19.25"/>
<text xml:space="preserve" text-anchor="middle" x="454.12" y="-5.75" font-family="Helvetica,sans-Serif" font-size="10.00">Wire.h</text>
</a>
</g>
</g>
<!-- Node12&#45;&gt;Node14 -->
<g id="edge16_Node000012_Node000014" class="edge">
<title>Node12&#45;&gt;Node14</title>
<g id="a_edge16_Node000012_Node000014"><a xlink:title=" ">
<path fill="none" stroke="#63b8ff" d="M544.63,-54.84C527.72,-46.58 502.44,-34.23 482.89,-24.68"/>
<polygon fill="#63b8ff" stroke="#63b8ff" points="484.59,-21.61 474.07,-20.37 481.51,-27.9 484.59,-21.61"/>
</a>
</g>
</g>
<!-- Node15 -->
<g id="Node000015" class="node">
<title>Node15</title>
<g id="a_Node000015"><a xlink:title=" ">
<polygon fill="#e0e0e0" stroke="#999999" points="549.62,-19.25 494.62,-19.25 494.62,0 549.62,0 549.62,-19.25"/>
<text xml:space="preserve" text-anchor="middle" x="522.12" y="-5.75" font-family="Helvetica,sans-Serif" font-size="10.00">RTClib.h</text>
</a>
</g>
</g>
<!-- Node12&#45;&gt;Node15 -->
<g id="edge17_Node000012_Node000015" class="edge">
<title>Node12&#45;&gt;Node15</title>
<g id="a_edge17_Node000012_Node000015"><a xlink:title=" ">
<path fill="none" stroke="#63b8ff" d="M556.35,-55.08C550.81,-47.88 542.78,-37.46 535.9,-28.51"/>
<polygon fill="#63b8ff" stroke="#63b8ff" points="538.84,-26.6 529.97,-20.81 533.29,-30.87 538.84,-26.6"/>
</a>
</g>
</g>
<!-- Node16 -->
<g id="Node000016" class="node">
<title>Node16</title>
<g id="a_Node000016"><a xlink:title=" ">
<polygon fill="#e0e0e0" stroke="#999999" points="638.12,-19.25 568.12,-19.25 568.12,0 638.12,0 638.12,-19.25"/>
<text xml:space="preserve" text-anchor="middle" x="603.12" y="-5.75" font-family="Helvetica,sans-Serif" font-size="10.00">NTPClient.h</text>
</a>
</g>
</g>
<!-- Node12&#45;&gt;Node16 -->
<g id="edge18_Node000012_Node000016" class="edge">
<title>Node12&#45;&gt;Node16</title>
<g id="a_edge18_Node000012_Node000016"><a xlink:title=" ">
<path fill="none" stroke="#63b8ff" d="M569.73,-55.08C575.08,-47.96 582.8,-37.68 589.47,-28.8"/>
<polygon fill="#63b8ff" stroke="#63b8ff" points="592.26,-30.92 595.47,-20.82 586.66,-26.71 592.26,-30.92"/>
</a>
</g>
</g>
<!-- Node17 -->
<g id="Node000017" class="node">
<title>Node17</title>
<g id="a_Node000017"><a xlink:title=" ">
<polygon fill="#e0e0e0" stroke="#999999" points="718.38,-19.25 655.88,-19.25 655.88,0 718.38,0 718.38,-19.25"/>
<text xml:space="preserve" text-anchor="middle" x="687.12" y="-5.75" font-family="Helvetica,sans-Serif" font-size="10.00">WiFiUdp.h</text>
</a>
</g>
</g>
<!-- Node12&#45;&gt;Node17 -->
<g id="edge19_Node000012_Node000017" class="edge">
<title>Node12&#45;&gt;Node17</title>
<g id="a_edge19_Node000012_Node000017"><a xlink:title=" ">
<path fill="none" stroke="#63b8ff" d="M584.16,-54.84C603.76,-46.43 633.23,-33.77 655.63,-24.15"/>
<polygon fill="#63b8ff" stroke="#63b8ff" points="656.79,-27.46 664.6,-20.3 654.03,-21.03 656.79,-27.46"/>
</a>
</g>
</g>
<!-- Node18 -->
<g id="Node000018" class="node">
<title>Node18</title>
<g id="a_Node000018"><a xlink:title=" ">
<polygon fill="#e0e0e0" stroke="#999999" points="814.25,-19.25 736,-19.25 736,0 814.25,0 814.25,-19.25"/>
<text xml:space="preserve" text-anchor="middle" x="775.12" y="-5.75" font-family="Helvetica,sans-Serif" font-size="10.00">ArduinoJson.h</text>
</a>
</g>
</g>
<!-- Node12&#45;&gt;Node18 -->
<g id="edge20_Node000012_Node000018" class="edge">
<title>Node12&#45;&gt;Node18</title>
<g id="a_edge20_Node000012_Node000018"><a xlink:title=" ">
<path fill="none" stroke="#63b8ff" d="M599.09,-54.84C634.57,-45.93 689,-32.26 727.94,-22.48"/>
<polygon fill="#63b8ff" stroke="#63b8ff" points="728.67,-25.9 737.52,-20.07 726.97,-19.11 728.67,-25.9"/>
</a>
</g>
</g>
</g>
</svg>
