<?xml version="1.0" encoding="UTF-8" standalone="no"?>
<!DOCTYPE svg PUBLIC "-//W3C//DTD SVG 1.1//EN"
 "http://www.w3.org/Graphics/SVG/1.1/DTD/svg11.dtd">
<!-- Generated by graphviz version 13.1.0 (20250701.0955)
 -->
<!-- Title: include/RegisterMap.h Pages: 1 -->
<svg width="722pt" height="248pt"
 viewBox="0.00 0.00 722.00 248.00" xmlns="http://www.w3.org/2000/svg" xmlns:xlink="http://www.w3.org/1999/xlink">
<g id="graph0" class="graph" transform="scale(1 1) rotate(0) translate(4 244.25)">
<title>include/RegisterMap.h</title>
<!-- Node1 -->
<g id="Node000001" class="node">
<title>Node1</title>
<g id="a_Node000001"><a xlink:title=" ">
<polygon fill="#999999" stroke="#666666" points="393.5,-240.25 280,-240.25 280,-221 393.5,-221 393.5,-240.25"/>
<text xml:space="preserve" text-anchor="middle" x="336.75" y="-226.75" font-family="Helvetica,sans-Serif" font-size="10.00">include/RegisterMap.h</text>
</a>
</g>
</g>
<!-- Node2 -->
<g id="Node000002" class="node">
<title>Node2</title>
<g id="a_Node000002"><a xlink:href="_temp_modbus_server_8h.html" target="_top" xlink:title=" ">
<polygon fill="white" stroke="#666666" points="237.88,-185 93.62,-185 93.62,-165.75 237.88,-165.75 237.88,-185"/>
<text xml:space="preserve" text-anchor="middle" x="165.75" y="-171.5" font-family="Helvetica,sans-Serif" font-size="10.00">include/TempModbusServer.h</text>
</a>
</g>
</g>
<!-- Node1&#45;&gt;Node2 -->
<g id="edge1_Node000001_Node000002" class="edge">
<title>Node1&#45;&gt;Node2</title>
<g id="a_edge1_Node000001_Node000002"><a xlink:title=" ">
<path fill="none" stroke="#63b8ff" d="M296.81,-217.19C265.6,-207.47 222.96,-194.19 194.9,-185.45"/>
<polygon fill="#63b8ff" stroke="#63b8ff" points="295.71,-220.51 306.3,-220.14 297.79,-213.83 295.71,-220.51"/>
</a>
</g>
</g>
<!-- Node5 -->
<g id="Node000005" class="node">
<title>Node5</title>
<g id="a_Node000005"><a xlink:href="_temperature_controller_8h.html" target="_top" xlink:title=" ">
<polygon fill="white" stroke="#666666" points="413.38,-185 260.12,-185 260.12,-165.75 413.38,-165.75 413.38,-185"/>
<text xml:space="preserve" text-anchor="middle" x="336.75" y="-171.5" font-family="Helvetica,sans-Serif" font-size="10.00">include/TemperatureController.h</text>
</a>
</g>
</g>
<!-- Node1&#45;&gt;Node5 -->
<g id="edge4_Node000001_Node000005" class="edge">
<title>Node1&#45;&gt;Node5</title>
<g id="a_edge4_Node000001_Node000005"><a xlink:title=" ">
<path fill="none" stroke="#63b8ff" d="M336.75,-209.38C336.75,-201.09 336.75,-191.92 336.75,-185.36"/>
<polygon fill="#63b8ff" stroke="#63b8ff" points="333.25,-209.32 336.75,-219.32 340.25,-209.32 333.25,-209.32"/>
</a>
</g>
</g>
<!-- Node12 -->
<g id="Node000012" class="node">
<title>Node12</title>
<g id="a_Node000012"><a xlink:href="_register_map_8cpp.html" target="_top" xlink:title=" ">
<polygon fill="white" stroke="#666666" points="538.12,-185 431.38,-185 431.38,-165.75 538.12,-165.75 538.12,-185"/>
<text xml:space="preserve" text-anchor="middle" x="484.75" y="-171.5" font-family="Helvetica,sans-Serif" font-size="10.00">src/RegisterMap.cpp</text>
</a>
</g>
</g>
<!-- Node1&#45;&gt;Node12 -->
<g id="edge14_Node000001_Node000012" class="edge">
<title>Node1&#45;&gt;Node12</title>
<g id="a_edge14_Node000001_Node000012"><a xlink:title=" ">
<path fill="none" stroke="#63b8ff" d="M372.39,-216.8C399.3,-207.12 435.56,-194.07 459.52,-185.45"/>
<polygon fill="#63b8ff" stroke="#63b8ff" points="371.5,-213.4 363.28,-220.08 373.87,-219.99 371.5,-213.4"/>
</a>
</g>
</g>
<!-- Node3 -->
<g id="Node000003" class="node">
<title>Node3</title>
<g id="a_Node000003"><a xlink:href="_temp_modbus_server_8cpp.html" target="_top" xlink:title=" ">
<polygon fill="white" stroke="#666666" points="137.5,-129.75 0,-129.75 0,-110.5 137.5,-110.5 137.5,-129.75"/>
<text xml:space="preserve" text-anchor="middle" x="68.75" y="-116.25" font-family="Helvetica,sans-Serif" font-size="10.00">src/TempModbusServer.cpp</text>
</a>
</g>
</g>
<!-- Node2&#45;&gt;Node3 -->
<g id="edge2_Node000002_Node000003" class="edge">
<title>Node2&#45;&gt;Node3</title>
<g id="a_edge2_Node000002_Node000003"><a xlink:title=" ">
<path fill="none" stroke="#63b8ff" d="M139.28,-159.84C122.04,-150.38 100.08,-138.33 85.29,-130.2"/>
<polygon fill="#63b8ff" stroke="#63b8ff" points="137.52,-162.87 147.97,-164.61 140.89,-156.73 137.52,-162.87"/>
</a>
</g>
</g>
<!-- Node4 -->
<g id="Node000004" class="node">
<title>Node4</title>
<g id="a_Node000004"><a xlink:href="main_8cpp.html" target="_top" xlink:title=" ">
<polygon fill="white" stroke="#666666" points="228.88,-19.25 156.62,-19.25 156.62,0 228.88,0 228.88,-19.25"/>
<text xml:space="preserve" text-anchor="middle" x="192.75" y="-5.75" font-family="Helvetica,sans-Serif" font-size="10.00">src/main.cpp</text>
</a>
</g>
</g>
<!-- Node2&#45;&gt;Node4 -->
<g id="edge3_Node000002_Node000004" class="edge">
<title>Node2&#45;&gt;Node4</title>
<g id="a_edge3_Node000002_Node000004"><a xlink:title=" ">
<path fill="none" stroke="#63b8ff" d="M169.07,-154.22C174.99,-118.36 187.11,-44.85 191.29,-19.47"/>
<polygon fill="#63b8ff" stroke="#63b8ff" points="165.62,-153.64 167.45,-164.08 172.53,-154.78 165.62,-153.64"/>
</a>
</g>
</g>
<!-- Node5&#45;&gt;Node4 -->
<g id="edge13_Node000005_Node000004" class="edge">
<title>Node5&#45;&gt;Node4</title>
<g id="a_edge13_Node000005_Node000004"><a xlink:title=" ">
<path fill="none" stroke="#63b8ff" d="M301.78,-160.96C285.75,-153.54 267.35,-143.1 253.75,-129.75 220.1,-96.7 201.46,-41.16 195.18,-19.58"/>
<polygon fill="#63b8ff" stroke="#63b8ff" points="299.94,-163.97 310.51,-164.79 302.75,-157.56 299.94,-163.97"/>
</a>
</g>
</g>
<!-- Node6 -->
<g id="Node000006" class="node">
<title>Node6</title>
<g id="a_Node000006"><a xlink:href="_c_s_v_config_manager_8h.html" target="_top" xlink:title=" ">
<polygon fill="white" stroke="#666666" points="413.88,-129.75 269.62,-129.75 269.62,-110.5 413.88,-110.5 413.88,-129.75"/>
<text xml:space="preserve" text-anchor="middle" x="341.75" y="-116.25" font-family="Helvetica,sans-Serif" font-size="10.00">include/CSVConfigManager.h</text>
</a>
</g>
</g>
<!-- Node5&#45;&gt;Node6 -->
<g id="edge5_Node000005_Node000006" class="edge">
<title>Node5&#45;&gt;Node6</title>
<g id="a_edge5_Node000005_Node000006"><a xlink:title=" ">
<path fill="none" stroke="#63b8ff" d="M338.65,-154.13C339.43,-145.84 340.29,-136.67 340.91,-130.11"/>
<polygon fill="#63b8ff" stroke="#63b8ff" points="335.17,-153.79 337.72,-164.07 342.14,-154.45 335.17,-153.79"/>
</a>
</g>
</g>
<!-- Node7 -->
<g id="Node000007" class="node">
<title>Node7</title>
<g id="a_Node000007"><a xlink:href="_config_manager_8h.html" target="_top" xlink:title=" ">
<polygon fill="white" stroke="#666666" points="355.38,-74.5 232.12,-74.5 232.12,-55.25 355.38,-55.25 355.38,-74.5"/>
<text xml:space="preserve" text-anchor="middle" x="293.75" y="-61" font-family="Helvetica,sans-Serif" font-size="10.00">include/ConfigManager.h</text>
</a>
</g>
</g>
<!-- Node5&#45;&gt;Node7 -->
<g id="edge10_Node000005_Node000007" class="edge">
<title>Node5&#45;&gt;Node7</title>
<g id="a_edge10_Node000005_Node000007"><a xlink:title=" ">
<path fill="none" stroke="#63b8ff" d="M297.11,-160.75C283.06,-153.78 268.76,-143.75 260.75,-129.75 249.71,-110.47 269.98,-87.12 283.35,-74.68"/>
<polygon fill="#63b8ff" stroke="#63b8ff" points="295.27,-163.76 305.83,-164.67 298.14,-157.37 295.27,-163.76"/>
</a>
</g>
</g>
<!-- Node10 -->
<g id="Node000010" class="node">
<title>Node10</title>
<g id="a_Node000010"><a xlink:href="_logger_manager_8cpp.html" target="_top" xlink:title=" ">
<polygon fill="white" stroke="#666666" points="549.38,-129.75 432.12,-129.75 432.12,-110.5 549.38,-110.5 549.38,-129.75"/>
<text xml:space="preserve" text-anchor="middle" x="490.75" y="-116.25" font-family="Helvetica,sans-Serif" font-size="10.00">src/LoggerManager.cpp</text>
</a>
</g>
</g>
<!-- Node5&#45;&gt;Node10 -->
<g id="edge11_Node000005_Node000010" class="edge">
<title>Node5&#45;&gt;Node10</title>
<g id="a_edge11_Node000005_Node000010"><a xlink:title=" ">
<path fill="none" stroke="#63b8ff" d="M373.46,-161.68C401.5,-151.99 439.45,-138.86 464.5,-130.2"/>
<polygon fill="#63b8ff" stroke="#63b8ff" points="372.61,-158.27 364.3,-164.85 374.9,-164.89 372.61,-158.27"/>
</a>
</g>
</g>
<!-- Node11 -->
<g id="Node000011" class="node">
<title>Node11</title>
<g id="a_Node000011"><a xlink:href="_temperature_controller_8cpp.html" target="_top" xlink:title=" ">
<polygon fill="white" stroke="#666666" points="714,-129.75 567.5,-129.75 567.5,-110.5 714,-110.5 714,-129.75"/>
<text xml:space="preserve" text-anchor="middle" x="640.75" y="-116.25" font-family="Helvetica,sans-Serif" font-size="10.00">src/TemperatureController.cpp</text>
</a>
</g>
</g>
<!-- Node5&#45;&gt;Node11 -->
<g id="edge12_Node000005_Node000011" class="edge">
<title>Node5&#45;&gt;Node11</title>
<g id="a_edge12_Node000005_Node000011"><a xlink:title=" ">
<path fill="none" stroke="#63b8ff" d="M399.86,-163.32C455.8,-153.52 536.51,-139.38 588.8,-130.23"/>
<polygon fill="#63b8ff" stroke="#63b8ff" points="399.4,-159.85 390.15,-165.02 400.61,-166.74 399.4,-159.85"/>
</a>
</g>
</g>
<!-- Node6&#45;&gt;Node7 -->
<g id="edge6_Node000006_Node000007" class="edge">
<title>Node6&#45;&gt;Node7</title>
<g id="a_edge6_Node000006_Node000007"><a xlink:title=" ">
<path fill="none" stroke="#63b8ff" d="M326.35,-102.04C318.2,-93 308.53,-82.27 301.85,-74.86"/>
<polygon fill="#63b8ff" stroke="#63b8ff" points="323.52,-104.12 332.81,-109.21 328.71,-99.44 323.52,-104.12"/>
</a>
</g>
</g>
<!-- Node9 -->
<g id="Node000009" class="node">
<title>Node9</title>
<g id="a_Node000009"><a xlink:href="_c_s_v_config_manager_8cpp.html" target="_top" xlink:title=" ">
<polygon fill="white" stroke="#666666" points="510.5,-74.5 373,-74.5 373,-55.25 510.5,-55.25 510.5,-74.5"/>
<text xml:space="preserve" text-anchor="middle" x="441.75" y="-61" font-family="Helvetica,sans-Serif" font-size="10.00">src/CSVConfigManager.cpp</text>
</a>
</g>
</g>
<!-- Node6&#45;&gt;Node9 -->
<g id="edge9_Node000006_Node000009" class="edge">
<title>Node6&#45;&gt;Node9</title>
<g id="a_edge9_Node000006_Node000009"><a xlink:title=" ">
<path fill="none" stroke="#63b8ff" d="M368.79,-104.73C386.6,-95.24 409.38,-83.11 424.7,-74.95"/>
<polygon fill="#63b8ff" stroke="#63b8ff" points="367.23,-101.59 360.05,-109.38 370.52,-107.77 367.23,-101.59"/>
</a>
</g>
</g>
<!-- Node7&#45;&gt;Node4 -->
<g id="edge8_Node000007_Node000004" class="edge">
<title>Node7&#45;&gt;Node4</title>
<g id="a_edge8_Node000007_Node000004"><a xlink:title=" ">
<path fill="none" stroke="#63b8ff" d="M266.44,-49.48C248.45,-39.99 225.45,-27.86 209.97,-19.7"/>
<polygon fill="#63b8ff" stroke="#63b8ff" points="264.8,-52.57 275.28,-54.14 268.06,-46.38 264.8,-52.57"/>
</a>
</g>
</g>
<!-- Node8 -->
<g id="Node000008" class="node">
<title>Node8</title>
<g id="a_Node000008"><a xlink:href="_config_manager_8cpp.html" target="_top" xlink:title=" ">
<polygon fill="white" stroke="#666666" points="363,-19.25 246.5,-19.25 246.5,0 363,0 363,-19.25"/>
<text xml:space="preserve" text-anchor="middle" x="304.75" y="-5.75" font-family="Helvetica,sans-Serif" font-size="10.00">src/ConfigManager.cpp</text>
</a>
</g>
</g>
<!-- Node7&#45;&gt;Node8 -->
<g id="edge7_Node000007_Node000008" class="edge">
<title>Node7&#45;&gt;Node8</title>
<g id="a_edge7_Node000007_Node000008"><a xlink:title=" ">
<path fill="none" stroke="#63b8ff" d="M297.87,-43.92C299.6,-35.55 301.52,-26.25 302.89,-19.61"/>
<polygon fill="#63b8ff" stroke="#63b8ff" points="294.47,-43.1 295.87,-53.6 301.32,-44.51 294.47,-43.1"/>
</a>
</g>
</g>
</g>
</svg>
