<?xml version="1.0" encoding="UTF-8" standalone="no"?>
<!DOCTYPE svg PUBLIC "-//W3C//DTD SVG 1.1//EN"
 "http://www.w3.org/Graphics/SVG/1.1/DTD/svg11.dtd">
<!-- Generated by graphviz version 13.1.0 (20250701.0955)
 -->
<!-- Title: include/RegisterMap.h Pages: 1 -->
<svg width="662pt" height="248pt"
 viewBox="0.00 0.00 662.00 248.00" xmlns="http://www.w3.org/2000/svg" xmlns:xlink="http://www.w3.org/1999/xlink">
<g id="graph0" class="graph" transform="scale(1 1) rotate(0) translate(4 244.25)">
<title>include/RegisterMap.h</title>
<!-- Node1 -->
<g id="Node000001" class="node">
<title>Node1</title>
<g id="a_Node000001"><a xlink:title="Modbus register mapping for temperature monitoring system.">
<polygon fill="#999999" stroke="#666666" points="315,-240.25 201.5,-240.25 201.5,-221 315,-221 315,-240.25"/>
<text xml:space="preserve" text-anchor="middle" x="258.25" y="-226.75" font-family="Helvetica,sans-Serif" font-size="10.00">include/RegisterMap.h</text>
</a>
</g>
</g>
<!-- Node2 -->
<g id="Node000002" class="node">
<title>Node2</title>
<g id="a_Node000002"><a xlink:href="_temp_modbus_server_8h.html" target="_top" xlink:title="Modbus RTU server for temperature monitoring system.">
<polygon fill="white" stroke="#666666" points="153.37,-185 9.12,-185 9.12,-165.75 153.37,-165.75 153.37,-185"/>
<text xml:space="preserve" text-anchor="middle" x="81.25" y="-171.5" font-family="Helvetica,sans-Serif" font-size="10.00">include/TempModbusServer.h</text>
</a>
</g>
</g>
<!-- Node1&#45;&gt;Node2 -->
<g id="edge1_Node000001_Node000002" class="edge">
<title>Node1&#45;&gt;Node2</title>
<g id="a_edge1_Node000001_Node000002"><a xlink:title=" ">
<path fill="none" stroke="#63b8ff" d="M217.33,-217.32C184.99,-207.59 140.59,-194.23 111.42,-185.45"/>
<polygon fill="#63b8ff" stroke="#63b8ff" points="216.19,-220.63 226.77,-220.16 218.21,-213.92 216.19,-220.63"/>
</a>
</g>
</g>
<!-- Node5 -->
<g id="Node000005" class="node">
<title>Node5</title>
<g id="a_Node000005"><a xlink:href="_temperature_controller_8h.html" target="_top" xlink:title="Central temperature monitoring and control system.">
<polygon fill="white" stroke="#666666" points="334.87,-185 181.62,-185 181.62,-165.75 334.87,-165.75 334.87,-185"/>
<text xml:space="preserve" text-anchor="middle" x="258.25" y="-171.5" font-family="Helvetica,sans-Serif" font-size="10.00">include/TemperatureController.h</text>
</a>
</g>
</g>
<!-- Node1&#45;&gt;Node5 -->
<g id="edge4_Node000001_Node000005" class="edge">
<title>Node1&#45;&gt;Node5</title>
<g id="a_edge4_Node000001_Node000005"><a xlink:title=" ">
<path fill="none" stroke="#63b8ff" d="M258.25,-209.38C258.25,-201.09 258.25,-191.92 258.25,-185.36"/>
<polygon fill="#63b8ff" stroke="#63b8ff" points="254.75,-209.32 258.25,-219.32 261.75,-209.32 254.75,-209.32"/>
</a>
</g>
</g>
<!-- Node12 -->
<g id="Node000012" class="node">
<title>Node12</title>
<g id="a_Node000012"><a xlink:href="_register_map_8cpp.html" target="_top" xlink:title="Implementation of Modbus register mapping for temperature monitoring.">
<polygon fill="white" stroke="#666666" points="459.62,-185 352.87,-185 352.87,-165.75 459.62,-165.75 459.62,-185"/>
<text xml:space="preserve" text-anchor="middle" x="406.25" y="-171.5" font-family="Helvetica,sans-Serif" font-size="10.00">src/RegisterMap.cpp</text>
</a>
</g>
</g>
<!-- Node1&#45;&gt;Node12 -->
<g id="edge16_Node000001_Node000012" class="edge">
<title>Node1&#45;&gt;Node12</title>
<g id="a_edge16_Node000001_Node000012"><a xlink:title=" ">
<path fill="none" stroke="#63b8ff" d="M293.89,-216.8C320.8,-207.12 357.06,-194.07 381.02,-185.45"/>
<polygon fill="#63b8ff" stroke="#63b8ff" points="293,-213.4 284.78,-220.08 295.37,-219.99 293,-213.4"/>
</a>
</g>
</g>
<!-- Node3 -->
<g id="Node000003" class="node">
<title>Node3</title>
<g id="a_Node000003"><a xlink:href="_temp_modbus_server_8cpp.html" target="_top" xlink:title="Implementation of Modbus RTU server for temperature monitoring.">
<polygon fill="white" stroke="#666666" points="150,-129.75 12.5,-129.75 12.5,-110.5 150,-110.5 150,-129.75"/>
<text xml:space="preserve" text-anchor="middle" x="81.25" y="-116.25" font-family="Helvetica,sans-Serif" font-size="10.00">src/TempModbusServer.cpp</text>
</a>
</g>
</g>
<!-- Node2&#45;&gt;Node3 -->
<g id="edge2_Node000002_Node000003" class="edge">
<title>Node2&#45;&gt;Node3</title>
<g id="a_edge2_Node000002_Node000003"><a xlink:title=" ">
<path fill="none" stroke="#63b8ff" d="M81.25,-154.13C81.25,-145.84 81.25,-136.67 81.25,-130.11"/>
<polygon fill="#63b8ff" stroke="#63b8ff" points="77.75,-154.07 81.25,-164.07 84.75,-154.07 77.75,-154.07"/>
</a>
</g>
</g>
<!-- Node4 -->
<g id="Node000004" class="node">
<title>Node4</title>
<g id="a_Node000004"><a xlink:href="main_8cpp.html" target="_top" xlink:title="Main application entry point for Industrial Temperature Monitoring System.">
<polygon fill="white" stroke="#666666" points="198.37,-19.25 126.12,-19.25 126.12,0 198.37,0 198.37,-19.25"/>
<text xml:space="preserve" text-anchor="middle" x="162.25" y="-5.75" font-family="Helvetica,sans-Serif" font-size="10.00">src/main.cpp</text>
</a>
</g>
</g>
<!-- Node2&#45;&gt;Node4 -->
<g id="edge3_Node000002_Node000004" class="edge">
<title>Node2&#45;&gt;Node4</title>
<g id="a_edge3_Node000002_Node000004"><a xlink:title=" ">
<path fill="none" stroke="#63b8ff" d="M42.26,-160.95C17.08,-149.89 -8.9,-132.48 3.25,-110.5 30.53,-61.14 93.55,-32.88 131.55,-19.75"/>
<polygon fill="#63b8ff" stroke="#63b8ff" points="40.91,-164.17 51.49,-164.72 43.55,-157.69 40.91,-164.17"/>
</a>
</g>
</g>
<!-- Node5&#45;&gt;Node3 -->
<g id="edge13_Node000005_Node000003" class="edge">
<title>Node5&#45;&gt;Node3</title>
<g id="a_edge13_Node000005_Node000003"><a xlink:title=" ">
<path fill="none" stroke="#63b8ff" d="M217.33,-162.07C184.99,-152.34 140.59,-138.98 111.42,-130.2"/>
<polygon fill="#63b8ff" stroke="#63b8ff" points="216.19,-165.38 226.77,-164.91 218.21,-158.67 216.19,-165.38"/>
</a>
</g>
</g>
<!-- Node5&#45;&gt;Node4 -->
<g id="edge15_Node000005_Node000004" class="edge">
<title>Node5&#45;&gt;Node4</title>
<g id="a_edge15_Node000005_Node000004"><a xlink:title=" ">
<path fill="none" stroke="#63b8ff" d="M244.95,-156.01C230.99,-136.35 208.81,-104 192.25,-74.5 181.57,-55.48 171.24,-32.03 165.93,-19.5"/>
<polygon fill="#63b8ff" stroke="#63b8ff" points="242.05,-157.97 250.72,-164.06 247.74,-153.9 242.05,-157.97"/>
</a>
</g>
</g>
<!-- Node6 -->
<g id="Node000006" class="node">
<title>Node6</title>
<g id="a_Node000006"><a xlink:href="_c_s_v_config_manager_8h.html" target="_top" xlink:title="CSV configuration import/export manager for measurement points and alarms.">
<polygon fill="white" stroke="#666666" points="430.37,-129.75 286.12,-129.75 286.12,-110.5 430.37,-110.5 430.37,-129.75"/>
<text xml:space="preserve" text-anchor="middle" x="358.25" y="-116.25" font-family="Helvetica,sans-Serif" font-size="10.00">include/CSVConfigManager.h</text>
</a>
</g>
</g>
<!-- Node5&#45;&gt;Node6 -->
<g id="edge5_Node000005_Node000006" class="edge">
<title>Node5&#45;&gt;Node6</title>
<g id="a_edge5_Node000005_Node000006"><a xlink:title=" ">
<path fill="none" stroke="#63b8ff" d="M285.29,-159.98C303.1,-150.49 325.87,-138.36 341.2,-130.2"/>
<polygon fill="#63b8ff" stroke="#63b8ff" points="283.73,-156.84 276.55,-164.63 287.02,-163.02 283.73,-156.84"/>
</a>
</g>
</g>
<!-- Node7 -->
<g id="Node000007" class="node">
<title>Node7</title>
<g id="a_Node000007"><a xlink:href="_config_manager_8h.html" target="_top" xlink:title="Configuration management system for temperature monitoring device.">
<polygon fill="white" stroke="#666666" points="324.87,-74.5 201.62,-74.5 201.62,-55.25 324.87,-55.25 324.87,-74.5"/>
<text xml:space="preserve" text-anchor="middle" x="263.25" y="-61" font-family="Helvetica,sans-Serif" font-size="10.00">include/ConfigManager.h</text>
</a>
</g>
</g>
<!-- Node5&#45;&gt;Node7 -->
<g id="edge11_Node000005_Node000007" class="edge">
<title>Node5&#45;&gt;Node7</title>
<g id="a_edge11_Node000005_Node000007"><a xlink:title=" ">
<path fill="none" stroke="#63b8ff" d="M259.19,-154.03C260.28,-130.3 262.04,-92.14 262.83,-74.88"/>
<polygon fill="#63b8ff" stroke="#63b8ff" points="255.69,-153.83 258.73,-163.98 262.68,-154.16 255.69,-153.83"/>
</a>
</g>
</g>
<!-- Node9 -->
<g id="Node000009" class="node">
<title>Node9</title>
<g id="a_Node000009"><a xlink:href="_temperature_controller_8cpp.html" target="_top" xlink:title="Implementation of the central temperature monitoring and control system.">
<polygon fill="white" stroke="#666666" points="544.5,-19.25 398,-19.25 398,0 544.5,0 544.5,-19.25"/>
<text xml:space="preserve" text-anchor="middle" x="471.25" y="-5.75" font-family="Helvetica,sans-Serif" font-size="10.00">src/TemperatureController.cpp</text>
</a>
</g>
</g>
<!-- Node5&#45;&gt;Node9 -->
<g id="edge14_Node000005_Node000009" class="edge">
<title>Node5&#45;&gt;Node9</title>
<g id="a_edge14_Node000005_Node000009"><a xlink:title=" ">
<path fill="none" stroke="#63b8ff" d="M346.43,-163.47C377.34,-156.92 411.29,-146.45 439.25,-129.75 467.68,-112.77 477.34,-105.4 489.25,-74.5 496.62,-55.36 485.04,-31.96 477.3,-19.47"/>
<polygon fill="#63b8ff" stroke="#63b8ff" points="345.8,-160.03 336.68,-165.42 347.17,-166.89 345.8,-160.03"/>
</a>
</g>
</g>
<!-- Node11 -->
<g id="Node000011" class="node">
<title>Node11</title>
<g id="a_Node000011"><a xlink:href="_logger_manager_8cpp.html" target="_top" xlink:title="Implementation of data logging and event management system.">
<polygon fill="white" stroke="#666666" points="653.87,-129.75 536.62,-129.75 536.62,-110.5 653.87,-110.5 653.87,-129.75"/>
<text xml:space="preserve" text-anchor="middle" x="595.25" y="-116.25" font-family="Helvetica,sans-Serif" font-size="10.00">src/LoggerManager.cpp</text>
</a>
</g>
</g>
<!-- Node5&#45;&gt;Node11 -->
<g id="edge12_Node000005_Node000011" class="edge">
<title>Node5&#45;&gt;Node11</title>
<g id="a_edge12_Node000005_Node000011"><a xlink:title=" ">
<path fill="none" stroke="#63b8ff" d="M327.04,-163.5C389.1,-153.7 479.33,-139.44 537.65,-130.23"/>
<polygon fill="#63b8ff" stroke="#63b8ff" points="326.62,-160.03 317.29,-165.05 327.72,-166.94 326.62,-160.03"/>
</a>
</g>
</g>
<!-- Node6&#45;&gt;Node7 -->
<g id="edge6_Node000006_Node000007" class="edge">
<title>Node6&#45;&gt;Node7</title>
<g id="a_edge6_Node000006_Node000007"><a xlink:title=" ">
<path fill="none" stroke="#63b8ff" d="M332.32,-104.59C315.44,-95.13 293.94,-83.08 279.44,-74.95"/>
<polygon fill="#63b8ff" stroke="#63b8ff" points="330.38,-107.52 340.81,-109.35 333.8,-101.41 330.38,-107.52"/>
</a>
</g>
</g>
<!-- Node10 -->
<g id="Node000010" class="node">
<title>Node10</title>
<g id="a_Node000010"><a xlink:href="_c_s_v_config_manager_8cpp.html" target="_top" xlink:title="Implementation of CSV configuration management for measurement points.">
<polygon fill="white" stroke="#666666" points="480,-74.5 342.5,-74.5 342.5,-55.25 480,-55.25 480,-74.5"/>
<text xml:space="preserve" text-anchor="middle" x="411.25" y="-61" font-family="Helvetica,sans-Serif" font-size="10.00">src/CSVConfigManager.cpp</text>
</a>
</g>
</g>
<!-- Node6&#45;&gt;Node10 -->
<g id="edge10_Node000006_Node000010" class="edge">
<title>Node6&#45;&gt;Node10</title>
<g id="a_edge10_Node000006_Node000010"><a xlink:title=" ">
<path fill="none" stroke="#63b8ff" d="M374.97,-102.32C384.03,-93.23 394.85,-82.35 402.31,-74.86"/>
<polygon fill="#63b8ff" stroke="#63b8ff" points="372.64,-99.7 368.07,-109.26 377.6,-104.64 372.64,-99.7"/>
</a>
</g>
</g>
<!-- Node7&#45;&gt;Node4 -->
<g id="edge9_Node000007_Node000004" class="edge">
<title>Node7&#45;&gt;Node4</title>
<g id="a_edge9_Node000007_Node000004"><a xlink:title=" ">
<path fill="none" stroke="#63b8ff" d="M235.94,-49.48C217.95,-39.99 194.95,-27.86 179.47,-19.7"/>
<polygon fill="#63b8ff" stroke="#63b8ff" points="234.3,-52.57 244.78,-54.14 237.56,-46.38 234.3,-52.57"/>
</a>
</g>
</g>
<!-- Node8 -->
<g id="Node000008" class="node">
<title>Node8</title>
<g id="a_Node000008"><a xlink:href="_config_manager_8cpp.html" target="_top" xlink:title="Implementation of web&#45;based configuration management system.">
<polygon fill="white" stroke="#666666" points="332.5,-19.25 216,-19.25 216,0 332.5,0 332.5,-19.25"/>
<text xml:space="preserve" text-anchor="middle" x="274.25" y="-5.75" font-family="Helvetica,sans-Serif" font-size="10.00">src/ConfigManager.cpp</text>
</a>
</g>
</g>
<!-- Node7&#45;&gt;Node8 -->
<g id="edge7_Node000007_Node000008" class="edge">
<title>Node7&#45;&gt;Node8</title>
<g id="a_edge7_Node000007_Node000008"><a xlink:title=" ">
<path fill="none" stroke="#63b8ff" d="M267.37,-43.92C269.1,-35.55 271.02,-26.25 272.39,-19.61"/>
<polygon fill="#63b8ff" stroke="#63b8ff" points="263.97,-43.1 265.37,-53.6 270.82,-44.51 263.97,-43.1"/>
</a>
</g>
</g>
<!-- Node7&#45;&gt;Node9 -->
<g id="edge8_Node000007_Node000009" class="edge">
<title>Node7&#45;&gt;Node9</title>
<g id="a_edge8_Node000007_Node000009"><a xlink:title=" ">
<path fill="none" stroke="#63b8ff" d="M309.35,-52.07C347.51,-42.3 400.92,-28.63 435.79,-19.7"/>
<polygon fill="#63b8ff" stroke="#63b8ff" points="308.82,-48.6 300,-54.47 310.55,-55.38 308.82,-48.6"/>
</a>
</g>
</g>
</g>
</svg>
