<?xml version="1.0" encoding="UTF-8" standalone="no"?>
<!DOCTYPE svg PUBLIC "-//W3C//DTD SVG 1.1//EN"
 "http://www.w3.org/Graphics/SVG/1.1/DTD/svg11.dtd">
<!-- Generated by graphviz version 13.1.0 (20250701.0955)
 -->
<!-- Title: include/Sensor.h Pages: 1 -->
<svg width="812pt" height="359pt"
 viewBox="0.00 0.00 812.00 359.00" xmlns="http://www.w3.org/2000/svg" xmlns:xlink="http://www.w3.org/1999/xlink">
<g id="graph0" class="graph" transform="scale(1 1) rotate(0) translate(4 354.75)">
<title>include/Sensor.h</title>
<!-- Node1 -->
<g id="Node000001" class="node">
<title>Node1</title>
<g id="a_Node000001"><a xlink:title="Temperature sensor abstraction layer.">
<polygon fill="#999999" stroke="#666666" points="470.38,-350.75 382.38,-350.75 382.38,-331.5 470.38,-331.5 470.38,-350.75"/>
<text xml:space="preserve" text-anchor="middle" x="426.38" y="-337.25" font-family="Helvetica,sans-Serif" font-size="10.00">include/Sensor.h</text>
</a>
</g>
</g>
<!-- Node2 -->
<g id="Node000002" class="node">
<title>Node2</title>
<g id="a_Node000002"><a xlink:href="_measurement_point_8h.html" target="_top" xlink:title="Measurement point abstraction for temperature monitoring system.">
<polygon fill="white" stroke="#666666" points="496.25,-295.5 356.5,-295.5 356.5,-276.25 496.25,-276.25 496.25,-295.5"/>
<text xml:space="preserve" text-anchor="middle" x="426.38" y="-282" font-family="Helvetica,sans-Serif" font-size="10.00">include/MeasurementPoint.h</text>
</a>
</g>
</g>
<!-- Node1&#45;&gt;Node2 -->
<g id="edge1_Node000001_Node000002" class="edge">
<title>Node1&#45;&gt;Node2</title>
<g id="a_edge1_Node000001_Node000002"><a xlink:title=" ">
<path fill="none" stroke="#63b8ff" d="M426.38,-319.88C426.38,-311.59 426.38,-302.42 426.38,-295.86"/>
<polygon fill="#63b8ff" stroke="#63b8ff" points="422.88,-319.82 426.38,-329.82 429.88,-319.82 422.88,-319.82"/>
</a>
</g>
</g>
<!-- Node4 -->
<g id="Node000004" class="node">
<title>Node4</title>
<g id="a_Node000004"><a xlink:href="_temperature_controller_8h.html" target="_top" xlink:title="Central temperature monitoring and control system.">
<polygon fill="white" stroke="#666666" points="479,-185 325.75,-185 325.75,-165.75 479,-165.75 479,-185"/>
<text xml:space="preserve" text-anchor="middle" x="402.38" y="-171.5" font-family="Helvetica,sans-Serif" font-size="10.00">include/TemperatureController.h</text>
</a>
</g>
</g>
<!-- Node1&#45;&gt;Node4 -->
<g id="edge24_Node000001_Node000004" class="edge">
<title>Node1&#45;&gt;Node4</title>
<g id="a_edge24_Node000001_Node000004"><a xlink:title=" ">
<path fill="none" stroke="#63b8ff" d="M393.88,-326.34C362.39,-310.81 317.27,-282.13 302.38,-240.25 292.12,-211.43 327.41,-194.55 358.86,-185.46"/>
<polygon fill="#63b8ff" stroke="#63b8ff" points="392.06,-329.36 402.6,-330.46 395.05,-323.03 392.06,-329.36"/>
</a>
</g>
</g>
<!-- Node18 -->
<g id="Node000018" class="node">
<title>Node18</title>
<g id="a_Node000018"><a xlink:href="_sensor_8cpp.html" target="_top" xlink:title="Implementation of temperature sensor abstraction layer.">
<polygon fill="white" stroke="#666666" points="596,-295.5 514.75,-295.5 514.75,-276.25 596,-276.25 596,-295.5"/>
<text xml:space="preserve" text-anchor="middle" x="555.38" y="-282" font-family="Helvetica,sans-Serif" font-size="10.00">src/Sensor.cpp</text>
</a>
</g>
</g>
<!-- Node1&#45;&gt;Node18 -->
<g id="edge25_Node000001_Node000018" class="edge">
<title>Node1&#45;&gt;Node18</title>
<g id="a_edge25_Node000001_Node000018"><a xlink:title=" ">
<path fill="none" stroke="#63b8ff" d="M458.7,-326.78C482.01,-317.16 512.87,-304.42 533.38,-295.95"/>
<polygon fill="#63b8ff" stroke="#63b8ff" points="457.57,-323.46 449.66,-330.51 460.24,-329.93 457.57,-323.46"/>
</a>
</g>
</g>
<!-- Node3 -->
<g id="Node000003" class="node">
<title>Node3</title>
<g id="a_Node000003"><a xlink:href="_alarm_8h.html" target="_top" xlink:title="Alarm management system for temperature monitoring.">
<polygon fill="white" stroke="#666666" points="584.12,-240.25 500.62,-240.25 500.62,-221 584.12,-221 584.12,-240.25"/>
<text xml:space="preserve" text-anchor="middle" x="542.38" y="-226.75" font-family="Helvetica,sans-Serif" font-size="10.00">include/Alarm.h</text>
</a>
</g>
</g>
<!-- Node2&#45;&gt;Node3 -->
<g id="edge2_Node000002_Node000003" class="edge">
<title>Node2&#45;&gt;Node3</title>
<g id="a_edge2_Node000002_Node000003"><a xlink:title=" ">
<path fill="none" stroke="#63b8ff" d="M456.3,-271.14C477.16,-261.56 504.4,-249.06 522.6,-240.7"/>
<polygon fill="#63b8ff" stroke="#63b8ff" points="455.06,-267.86 447.43,-275.21 457.98,-274.22 455.06,-267.86"/>
</a>
</g>
</g>
<!-- Node2&#45;&gt;Node4 -->
<g id="edge21_Node000002_Node000004" class="edge">
<title>Node2&#45;&gt;Node4</title>
<g id="a_edge21_Node000002_Node000004"><a xlink:title=" ">
<path fill="none" stroke="#63b8ff" d="M441.9,-267.38C451.38,-254.48 460.43,-236.55 453.38,-221 446.28,-205.36 430.69,-193.04 418.6,-185.35"/>
<polygon fill="#63b8ff" stroke="#63b8ff" points="439.34,-264.98 435.78,-274.96 444.79,-269.37 439.34,-264.98"/>
</a>
</g>
</g>
<!-- Node10 -->
<g id="Node000010" class="node">
<title>Node10</title>
<g id="a_Node000010"><a xlink:href="_logger_manager_8cpp.html" target="_top" xlink:title="Implementation of data logging and event management system.">
<polygon fill="white" stroke="#666666" points="804,-129.75 686.75,-129.75 686.75,-110.5 804,-110.5 804,-129.75"/>
<text xml:space="preserve" text-anchor="middle" x="745.38" y="-116.25" font-family="Helvetica,sans-Serif" font-size="10.00">src/LoggerManager.cpp</text>
</a>
</g>
</g>
<!-- Node2&#45;&gt;Node10 -->
<g id="edge22_Node000002_Node000010" class="edge">
<title>Node2&#45;&gt;Node10</title>
<g id="a_edge22_Node000002_Node000010"><a xlink:title=" ">
<path fill="none" stroke="#63b8ff" d="M493.04,-273.51C524.55,-266.55 562.03,-255.89 593.38,-240.25 654.57,-209.71 714.76,-152.2 736.68,-130.09"/>
<polygon fill="#63b8ff" stroke="#63b8ff" points="492.7,-270.01 483.64,-275.51 494.15,-276.86 492.7,-270.01"/>
</a>
</g>
</g>
<!-- Node14 -->
<g id="Node000014" class="node">
<title>Node14</title>
<g id="a_Node000014"><a xlink:href="_register_map_8h.html" target="_top" xlink:title="Modbus register mapping for temperature monitoring system.">
<polygon fill="white" stroke="#666666" points="254.12,-240.25 140.62,-240.25 140.62,-221 254.12,-221 254.12,-240.25"/>
<text xml:space="preserve" text-anchor="middle" x="197.38" y="-226.75" font-family="Helvetica,sans-Serif" font-size="10.00">include/RegisterMap.h</text>
</a>
</g>
</g>
<!-- Node2&#45;&gt;Node14 -->
<g id="edge15_Node000002_Node000014" class="edge">
<title>Node2&#45;&gt;Node14</title>
<g id="a_edge15_Node000002_Node000014"><a xlink:title=" ">
<path fill="none" stroke="#63b8ff" d="M376.16,-273.2C334.08,-263.41 274.88,-249.65 236.32,-240.68"/>
<polygon fill="#63b8ff" stroke="#63b8ff" points="375.26,-276.58 385.79,-275.44 376.85,-269.76 375.26,-276.58"/>
</a>
</g>
</g>
<!-- Node17 -->
<g id="Node000017" class="node">
<title>Node17</title>
<g id="a_Node000017"><a xlink:href="_measurement_point_8cpp.html" target="_top" xlink:title="Implementation of temperature measurement point management.">
<polygon fill="white" stroke="#666666" points="443.88,-240.25 310.88,-240.25 310.88,-221 443.88,-221 443.88,-240.25"/>
<text xml:space="preserve" text-anchor="middle" x="377.38" y="-226.75" font-family="Helvetica,sans-Serif" font-size="10.00">src/MeasurementPoint.cpp</text>
</a>
</g>
</g>
<!-- Node2&#45;&gt;Node17 -->
<g id="edge23_Node000002_Node000017" class="edge">
<title>Node2&#45;&gt;Node17</title>
<g id="a_edge23_Node000002_Node000017"><a xlink:title=" ">
<path fill="none" stroke="#63b8ff" d="M410.66,-267.79C402.34,-258.75 392.46,-248.02 385.64,-240.61"/>
<polygon fill="#63b8ff" stroke="#63b8ff" points="407.91,-269.98 417.26,-274.97 413.06,-265.24 407.91,-269.98"/>
</a>
</g>
</g>
<!-- Node3&#45;&gt;Node4 -->
<g id="edge3_Node000003_Node000004" class="edge">
<title>Node3&#45;&gt;Node4</title>
<g id="a_edge3_Node000003_Node000004"><a xlink:title=" ">
<path fill="none" stroke="#63b8ff" d="M507.98,-216.54C482.6,-206.89 448.71,-194 426.24,-185.45"/>
<polygon fill="#63b8ff" stroke="#63b8ff" points="506.62,-219.77 517.21,-220.05 509.11,-213.23 506.62,-219.77"/>
</a>
</g>
</g>
<!-- Node13 -->
<g id="Node000013" class="node">
<title>Node13</title>
<g id="a_Node000013"><a xlink:href="_alarm_8cpp.html" target="_top" xlink:title="Implementation of alarm management system for temperature monitoring.">
<polygon fill="white" stroke="#666666" points="580.75,-185 504,-185 504,-165.75 580.75,-165.75 580.75,-185"/>
<text xml:space="preserve" text-anchor="middle" x="542.38" y="-171.5" font-family="Helvetica,sans-Serif" font-size="10.00">src/Alarm.cpp</text>
</a>
</g>
</g>
<!-- Node3&#45;&gt;Node13 -->
<g id="edge14_Node000003_Node000013" class="edge">
<title>Node3&#45;&gt;Node13</title>
<g id="a_edge14_Node000003_Node000013"><a xlink:title=" ">
<path fill="none" stroke="#63b8ff" d="M542.38,-209.38C542.38,-201.09 542.38,-191.92 542.38,-185.36"/>
<polygon fill="#63b8ff" stroke="#63b8ff" points="538.88,-209.32 542.38,-219.32 545.88,-209.32 538.88,-209.32"/>
</a>
</g>
</g>
<!-- Node5 -->
<g id="Node000005" class="node">
<title>Node5</title>
<g id="a_Node000005"><a xlink:href="_c_s_v_config_manager_8h.html" target="_top" xlink:title="CSV configuration import/export manager for measurement points and alarms.">
<polygon fill="white" stroke="#666666" points="630.5,-129.75 486.25,-129.75 486.25,-110.5 630.5,-110.5 630.5,-129.75"/>
<text xml:space="preserve" text-anchor="middle" x="558.38" y="-116.25" font-family="Helvetica,sans-Serif" font-size="10.00">include/CSVConfigManager.h</text>
</a>
</g>
</g>
<!-- Node4&#45;&gt;Node5 -->
<g id="edge4_Node000004_Node000005" class="edge">
<title>Node4&#45;&gt;Node5</title>
<g id="a_edge4_Node000004_Node000005"><a xlink:title=" ">
<path fill="none" stroke="#63b8ff" d="M439.56,-161.68C467.96,-151.99 506.41,-138.86 531.78,-130.2"/>
<polygon fill="#63b8ff" stroke="#63b8ff" points="438.6,-158.31 430.27,-164.85 440.87,-164.93 438.6,-158.31"/>
</a>
</g>
</g>
<!-- Node6 -->
<g id="Node000006" class="node">
<title>Node6</title>
<g id="a_Node000006"><a xlink:href="_config_manager_8h.html" target="_top" xlink:title="Configuration management system for temperature monitoring device.">
<polygon fill="white" stroke="#666666" points="670,-74.5 546.75,-74.5 546.75,-55.25 670,-55.25 670,-74.5"/>
<text xml:space="preserve" text-anchor="middle" x="608.38" y="-61" font-family="Helvetica,sans-Serif" font-size="10.00">include/ConfigManager.h</text>
</a>
</g>
</g>
<!-- Node4&#45;&gt;Node6 -->
<g id="edge9_Node000004_Node000006" class="edge">
<title>Node4&#45;&gt;Node6</title>
<g id="a_edge9_Node000004_Node000006"><a xlink:title=" ">
<path fill="none" stroke="#63b8ff" d="M487.3,-163.72C551.21,-154.83 629.45,-141.72 639.38,-129.75 653.54,-112.67 632.46,-88.03 618.69,-74.91"/>
<polygon fill="#63b8ff" stroke="#63b8ff" points="486.89,-160.24 477.46,-165.07 487.84,-167.18 486.89,-160.24"/>
</a>
</g>
</g>
<!-- Node8 -->
<g id="Node000008" class="node">
<title>Node8</title>
<g id="a_Node000008"><a xlink:href="main_8cpp.html" target="_top" xlink:title="Main application entry point for Industrial Temperature Monitoring System.">
<polygon fill="white" stroke="#666666" points="330.5,-19.25 258.25,-19.25 258.25,0 330.5,0 330.5,-19.25"/>
<text xml:space="preserve" text-anchor="middle" x="294.38" y="-5.75" font-family="Helvetica,sans-Serif" font-size="10.00">src/main.cpp</text>
</a>
</g>
</g>
<!-- Node4&#45;&gt;Node8 -->
<g id="edge13_Node000004_Node000008" class="edge">
<title>Node4&#45;&gt;Node8</title>
<g id="a_edge13_Node000004_Node000008"><a xlink:title=" ">
<path fill="none" stroke="#63b8ff" d="M356.82,-161.23C340.73,-154.37 324.01,-144.28 313.38,-129.75 288.38,-95.62 291,-41.18 293.22,-19.73"/>
<polygon fill="#63b8ff" stroke="#63b8ff" points="355.23,-164.37 365.82,-164.74 357.78,-157.85 355.23,-164.37"/>
</a>
</g>
</g>
<!-- Node4&#45;&gt;Node10 -->
<g id="edge10_Node000004_Node000010" class="edge">
<title>Node4&#45;&gt;Node10</title>
<g id="a_edge10_Node000004_Node000010"><a xlink:title=" ">
<path fill="none" stroke="#63b8ff" d="M472,-163.57C535.17,-153.76 627.26,-139.46 686.76,-130.23"/>
<polygon fill="#63b8ff" stroke="#63b8ff" points="471.79,-160.06 462.44,-165.05 472.86,-166.97 471.79,-160.06"/>
</a>
</g>
</g>
<!-- Node11 -->
<g id="Node000011" class="node">
<title>Node11</title>
<g id="a_Node000011"><a xlink:href="_temp_modbus_server_8cpp.html" target="_top" xlink:title="Implementation of Modbus RTU server for temperature monitoring.">
<polygon fill="white" stroke="#666666" points="266.12,-129.75 128.62,-129.75 128.62,-110.5 266.12,-110.5 266.12,-129.75"/>
<text xml:space="preserve" text-anchor="middle" x="197.38" y="-116.25" font-family="Helvetica,sans-Serif" font-size="10.00">src/TempModbusServer.cpp</text>
</a>
</g>
</g>
<!-- Node4&#45;&gt;Node11 -->
<g id="edge11_Node000004_Node000011" class="edge">
<title>Node4&#45;&gt;Node11</title>
<g id="a_edge11_Node000004_Node000011"><a xlink:title=" ">
<path fill="none" stroke="#63b8ff" d="M356.94,-162.57C319.33,-152.8 266.69,-139.13 232.32,-130.2"/>
<polygon fill="#63b8ff" stroke="#63b8ff" points="355.58,-165.83 366.13,-164.96 357.34,-159.06 355.58,-165.83"/>
</a>
</g>
</g>
<!-- Node12 -->
<g id="Node000012" class="node">
<title>Node12</title>
<g id="a_Node000012"><a xlink:href="_temperature_controller_8cpp.html" target="_top" xlink:title="Implementation of the central temperature monitoring and control system.">
<polygon fill="white" stroke="#666666" points="468.62,-129.75 322.12,-129.75 322.12,-110.5 468.62,-110.5 468.62,-129.75"/>
<text xml:space="preserve" text-anchor="middle" x="395.38" y="-116.25" font-family="Helvetica,sans-Serif" font-size="10.00">src/TemperatureController.cpp</text>
</a>
</g>
</g>
<!-- Node4&#45;&gt;Node12 -->
<g id="edge12_Node000004_Node000012" class="edge">
<title>Node4&#45;&gt;Node12</title>
<g id="a_edge12_Node000004_Node000012"><a xlink:title=" ">
<path fill="none" stroke="#63b8ff" d="M399.75,-154.42C398.65,-146.05 397.43,-136.75 396.56,-130.11"/>
<polygon fill="#63b8ff" stroke="#63b8ff" points="396.25,-154.62 401.02,-164.08 403.19,-153.71 396.25,-154.62"/>
</a>
</g>
</g>
<!-- Node5&#45;&gt;Node6 -->
<g id="edge5_Node000005_Node000006" class="edge">
<title>Node5&#45;&gt;Node6</title>
<g id="a_edge5_Node000005_Node000006"><a xlink:title=" ">
<path fill="none" stroke="#63b8ff" d="M574.42,-102.04C582.9,-93 592.98,-82.27 599.94,-74.86"/>
<polygon fill="#63b8ff" stroke="#63b8ff" points="571.96,-99.54 567.67,-109.23 577.06,-104.33 571.96,-99.54"/>
</a>
</g>
</g>
<!-- Node9 -->
<g id="Node000009" class="node">
<title>Node9</title>
<g id="a_Node000009"><a xlink:href="_c_s_v_config_manager_8cpp.html" target="_top" xlink:title="Implementation of CSV configuration management for measurement points.">
<polygon fill="white" stroke="#666666" points="529.12,-74.5 391.62,-74.5 391.62,-55.25 529.12,-55.25 529.12,-74.5"/>
<text xml:space="preserve" text-anchor="middle" x="460.38" y="-61" font-family="Helvetica,sans-Serif" font-size="10.00">src/CSVConfigManager.cpp</text>
</a>
</g>
</g>
<!-- Node5&#45;&gt;Node9 -->
<g id="edge8_Node000005_Node000009" class="edge">
<title>Node5&#45;&gt;Node9</title>
<g id="a_edge8_Node000005_Node000009"><a xlink:title=" ">
<path fill="none" stroke="#63b8ff" d="M532.12,-104.86C514.63,-95.36 492.17,-83.15 477.08,-74.95"/>
<polygon fill="#63b8ff" stroke="#63b8ff" points="529.96,-107.67 540.42,-109.37 533.31,-101.52 529.96,-107.67"/>
</a>
</g>
</g>
<!-- Node7 -->
<g id="Node000007" class="node">
<title>Node7</title>
<g id="a_Node000007"><a xlink:href="_config_manager_8cpp.html" target="_top" xlink:title="Implementation of web&#45;based configuration management system.">
<polygon fill="white" stroke="#666666" points="666.62,-19.25 550.12,-19.25 550.12,0 666.62,0 666.62,-19.25"/>
<text xml:space="preserve" text-anchor="middle" x="608.38" y="-5.75" font-family="Helvetica,sans-Serif" font-size="10.00">src/ConfigManager.cpp</text>
</a>
</g>
</g>
<!-- Node6&#45;&gt;Node7 -->
<g id="edge6_Node000006_Node000007" class="edge">
<title>Node6&#45;&gt;Node7</title>
<g id="a_edge6_Node000006_Node000007"><a xlink:title=" ">
<path fill="none" stroke="#63b8ff" d="M608.38,-43.63C608.38,-35.34 608.38,-26.17 608.38,-19.61"/>
<polygon fill="#63b8ff" stroke="#63b8ff" points="604.88,-43.57 608.38,-53.57 611.88,-43.57 604.88,-43.57"/>
</a>
</g>
</g>
<!-- Node6&#45;&gt;Node8 -->
<g id="edge7_Node000006_Node000008" class="edge">
<title>Node6&#45;&gt;Node8</title>
<g id="a_edge7_Node000006_Node000008"><a xlink:title=" ">
<path fill="none" stroke="#63b8ff" d="M543.51,-52.87C479.07,-41.95 382.59,-25.59 330.63,-16.77"/>
<polygon fill="#63b8ff" stroke="#63b8ff" points="542.82,-56.31 553.26,-54.53 543.99,-49.41 542.82,-56.31"/>
</a>
</g>
</g>
<!-- Node14&#45;&gt;Node4 -->
<g id="edge19_Node000014_Node000004" class="edge">
<title>Node14&#45;&gt;Node4</title>
<g id="a_edge19_Node000014_Node000004"><a xlink:title=" ">
<path fill="none" stroke="#63b8ff" d="M242.81,-217.82C280.42,-208.05 333.06,-194.38 367.43,-185.45"/>
<polygon fill="#63b8ff" stroke="#63b8ff" points="242.41,-214.31 233.62,-220.21 244.17,-221.08 242.41,-214.31"/>
</a>
</g>
</g>
<!-- Node15 -->
<g id="Node000015" class="node">
<title>Node15</title>
<g id="a_Node000015"><a xlink:href="_temp_modbus_server_8h.html" target="_top" xlink:title="Modbus RTU server for temperature monitoring system.">
<polygon fill="white" stroke="#666666" points="269.5,-185 125.25,-185 125.25,-165.75 269.5,-165.75 269.5,-185"/>
<text xml:space="preserve" text-anchor="middle" x="197.38" y="-171.5" font-family="Helvetica,sans-Serif" font-size="10.00">include/TempModbusServer.h</text>
</a>
</g>
</g>
<!-- Node14&#45;&gt;Node15 -->
<g id="edge16_Node000014_Node000015" class="edge">
<title>Node14&#45;&gt;Node15</title>
<g id="a_edge16_Node000014_Node000015"><a xlink:title=" ">
<path fill="none" stroke="#63b8ff" d="M197.38,-209.38C197.38,-201.09 197.38,-191.92 197.38,-185.36"/>
<polygon fill="#63b8ff" stroke="#63b8ff" points="193.88,-209.32 197.38,-219.32 200.88,-209.32 193.88,-209.32"/>
</a>
</g>
</g>
<!-- Node16 -->
<g id="Node000016" class="node">
<title>Node16</title>
<g id="a_Node000016"><a xlink:href="_register_map_8cpp.html" target="_top" xlink:title="Implementation of Modbus register mapping for temperature monitoring.">
<polygon fill="white" stroke="#666666" points="106.75,-185 0,-185 0,-165.75 106.75,-165.75 106.75,-185"/>
<text xml:space="preserve" text-anchor="middle" x="53.38" y="-171.5" font-family="Helvetica,sans-Serif" font-size="10.00">src/RegisterMap.cpp</text>
</a>
</g>
</g>
<!-- Node14&#45;&gt;Node16 -->
<g id="edge20_Node000014_Node000016" class="edge">
<title>Node14&#45;&gt;Node16</title>
<g id="a_edge20_Node000014_Node000016"><a xlink:title=" ">
<path fill="none" stroke="#63b8ff" d="M162.35,-216.67C136.2,-207 101.13,-194.04 77.92,-185.45"/>
<polygon fill="#63b8ff" stroke="#63b8ff" points="160.93,-219.88 171.53,-220.07 163.36,-213.32 160.93,-219.88"/>
</a>
</g>
</g>
<!-- Node15&#45;&gt;Node8 -->
<g id="edge18_Node000015_Node000008" class="edge">
<title>Node15&#45;&gt;Node8</title>
<g id="a_edge18_Node000015_Node000008"><a xlink:title=" ">
<path fill="none" stroke="#63b8ff" d="M158.69,-161.04C133.19,-149.92 106.67,-132.38 119.38,-110.5 149.06,-59.38 215.82,-32.23 257.76,-19.68"/>
<polygon fill="#63b8ff" stroke="#63b8ff" points="157.08,-164.17 167.66,-164.7 159.72,-157.69 157.08,-164.17"/>
</a>
</g>
</g>
<!-- Node15&#45;&gt;Node11 -->
<g id="edge17_Node000015_Node000011" class="edge">
<title>Node15&#45;&gt;Node11</title>
<g id="a_edge17_Node000015_Node000011"><a xlink:title=" ">
<path fill="none" stroke="#63b8ff" d="M197.38,-154.13C197.38,-145.84 197.38,-136.67 197.38,-130.11"/>
<polygon fill="#63b8ff" stroke="#63b8ff" points="193.88,-154.07 197.38,-164.07 200.88,-154.07 193.88,-154.07"/>
</a>
</g>
</g>
</g>
</svg>
