<?xml version="1.0" encoding="UTF-8" standalone="no"?>
<!DOCTYPE svg PUBLIC "-//W3C//DTD SVG 1.1//EN"
 "http://www.w3.org/Graphics/SVG/1.1/DTD/svg11.dtd">
<!-- Generated by graphviz version 13.1.0 (20250701.0955)
 -->
<!-- Title: include/Sensor.h Pages: 1 -->
<svg width="777pt" height="359pt"
 viewBox="0.00 0.00 777.00 359.00" xmlns="http://www.w3.org/2000/svg" xmlns:xlink="http://www.w3.org/1999/xlink">
<g id="graph0" class="graph" transform="scale(1 1) rotate(0) translate(4 354.75)">
<title>include/Sensor.h</title>
<!-- Node1 -->
<g id="Node000001" class="node">
<title>Node1</title>
<g id="a_Node000001"><a xlink:title=" ">
<polygon fill="#999999" stroke="#666666" points="407.84,-350.75 319.84,-350.75 319.84,-331.5 407.84,-331.5 407.84,-350.75"/>
<text xml:space="preserve" text-anchor="middle" x="363.84" y="-337.25" font-family="Helvetica,sans-Serif" font-size="10.00">include/Sensor.h</text>
</a>
</g>
</g>
<!-- Node2 -->
<g id="Node000002" class="node">
<title>Node2</title>
<g id="a_Node000002"><a xlink:href="_measurement_point_8h.html" target="_top" xlink:title=" ">
<polygon fill="white" stroke="#666666" points="433.72,-295.5 293.97,-295.5 293.97,-276.25 433.72,-276.25 433.72,-295.5"/>
<text xml:space="preserve" text-anchor="middle" x="363.84" y="-282" font-family="Helvetica,sans-Serif" font-size="10.00">include/MeasurementPoint.h</text>
</a>
</g>
</g>
<!-- Node1&#45;&gt;Node2 -->
<g id="edge1_Node000001_Node000002" class="edge">
<title>Node1&#45;&gt;Node2</title>
<g id="a_edge1_Node000001_Node000002"><a xlink:title=" ">
<path fill="none" stroke="#63b8ff" d="M363.84,-319.88C363.84,-311.59 363.84,-302.42 363.84,-295.86"/>
<polygon fill="#63b8ff" stroke="#63b8ff" points="360.34,-319.82 363.84,-329.82 367.34,-319.82 360.34,-319.82"/>
</a>
</g>
</g>
<!-- Node4 -->
<g id="Node000004" class="node">
<title>Node4</title>
<g id="a_Node000004"><a xlink:href="_temperature_controller_8h.html" target="_top" xlink:title=" ">
<polygon fill="white" stroke="#666666" points="363.47,-185 210.22,-185 210.22,-165.75 363.47,-165.75 363.47,-185"/>
<text xml:space="preserve" text-anchor="middle" x="286.84" y="-171.5" font-family="Helvetica,sans-Serif" font-size="10.00">include/TemperatureController.h</text>
</a>
</g>
</g>
<!-- Node1&#45;&gt;Node4 -->
<g id="edge23_Node000001_Node000004" class="edge">
<title>Node1&#45;&gt;Node4</title>
<g id="a_edge23_Node000001_Node000004"><a xlink:title=" ">
<path fill="none" stroke="#63b8ff" d="M308.72,-332.65C255.27,-322.16 176.96,-297.44 139.84,-240.25 118.71,-207.69 164.26,-191.65 210.09,-183.79"/>
<polygon fill="#63b8ff" stroke="#63b8ff" points="307.77,-336.04 318.24,-334.41 309.04,-329.15 307.77,-336.04"/>
</a>
</g>
</g>
<!-- Node18 -->
<g id="Node000018" class="node">
<title>Node18</title>
<g id="a_Node000018"><a xlink:href="_sensor_8cpp.html" target="_top" xlink:title=" ">
<polygon fill="white" stroke="#666666" points="533.47,-295.5 452.22,-295.5 452.22,-276.25 533.47,-276.25 533.47,-295.5"/>
<text xml:space="preserve" text-anchor="middle" x="492.84" y="-282" font-family="Helvetica,sans-Serif" font-size="10.00">src/Sensor.cpp</text>
</a>
</g>
</g>
<!-- Node1&#45;&gt;Node18 -->
<g id="edge24_Node000001_Node000018" class="edge">
<title>Node1&#45;&gt;Node18</title>
<g id="a_edge24_Node000001_Node000018"><a xlink:title=" ">
<path fill="none" stroke="#63b8ff" d="M396.16,-326.78C419.48,-317.16 450.34,-304.42 470.85,-295.95"/>
<polygon fill="#63b8ff" stroke="#63b8ff" points="395.03,-323.46 387.12,-330.51 397.7,-329.93 395.03,-323.46"/>
</a>
</g>
</g>
<!-- Node3 -->
<g id="Node000003" class="node">
<title>Node3</title>
<g id="a_Node000003"><a xlink:href="_alarm_8h.html" target="_top" xlink:title=" ">
<polygon fill="white" stroke="#666666" points="232.59,-240.25 149.09,-240.25 149.09,-221 232.59,-221 232.59,-240.25"/>
<text xml:space="preserve" text-anchor="middle" x="190.84" y="-226.75" font-family="Helvetica,sans-Serif" font-size="10.00">include/Alarm.h</text>
</a>
</g>
</g>
<!-- Node2&#45;&gt;Node3 -->
<g id="edge2_Node000002_Node000003" class="edge">
<title>Node2&#45;&gt;Node3</title>
<g id="a_edge2_Node000002_Node000003"><a xlink:title=" ">
<path fill="none" stroke="#63b8ff" d="M323.85,-272.57C292.24,-262.84 248.84,-249.48 220.33,-240.7"/>
<polygon fill="#63b8ff" stroke="#63b8ff" points="322.46,-275.8 333.05,-275.4 324.52,-269.11 322.46,-275.8"/>
</a>
</g>
</g>
<!-- Node2&#45;&gt;Node4 -->
<g id="edge20_Node000002_Node000004" class="edge">
<title>Node2&#45;&gt;Node4</title>
<g id="a_edge20_Node000002_Node000004"><a xlink:title=" ">
<path fill="none" stroke="#63b8ff" d="M380.69,-267.9C391.82,-254.57 402.69,-235.84 392.84,-221 380.64,-202.62 359.22,-191.79 338.81,-185.42"/>
<polygon fill="#63b8ff" stroke="#63b8ff" points="378.35,-265.28 374.21,-275.04 383.53,-269.99 378.35,-265.28"/>
</a>
</g>
</g>
<!-- Node10 -->
<g id="Node000010" class="node">
<title>Node10</title>
<g id="a_Node000010"><a xlink:href="_logger_manager_8cpp.html" target="_top" xlink:title=" ">
<polygon fill="white" stroke="#666666" points="496.47,-129.75 379.22,-129.75 379.22,-110.5 496.47,-110.5 496.47,-129.75"/>
<text xml:space="preserve" text-anchor="middle" x="437.84" y="-116.25" font-family="Helvetica,sans-Serif" font-size="10.00">src/LoggerManager.cpp</text>
</a>
</g>
</g>
<!-- Node2&#45;&gt;Node10 -->
<g id="edge21_Node000002_Node000010" class="edge">
<title>Node2&#45;&gt;Node10</title>
<g id="a_edge21_Node000002_Node000010"><a xlink:title=" ">
<path fill="none" stroke="#63b8ff" d="M384.6,-268.75C393.27,-261.01 402.74,-251.06 408.84,-240.25 429.88,-203 435.76,-150.81 437.31,-130.1"/>
<polygon fill="#63b8ff" stroke="#63b8ff" points="382.57,-265.88 377.17,-275 387.08,-271.24 382.57,-265.88"/>
</a>
</g>
</g>
<!-- Node13 -->
<g id="Node000013" class="node">
<title>Node13</title>
<g id="a_Node000013"><a xlink:href="_register_map_8h.html" target="_top" xlink:title=" ">
<polygon fill="white" stroke="#666666" points="610.59,-240.25 497.09,-240.25 497.09,-221 610.59,-221 610.59,-240.25"/>
<text xml:space="preserve" text-anchor="middle" x="553.84" y="-226.75" font-family="Helvetica,sans-Serif" font-size="10.00">include/RegisterMap.h</text>
</a>
</g>
</g>
<!-- Node2&#45;&gt;Node13 -->
<g id="edge14_Node000002_Node000013" class="edge">
<title>Node2&#45;&gt;Node13</title>
<g id="a_edge14_Node000002_Node000013"><a xlink:title=" ">
<path fill="none" stroke="#63b8ff" d="M406.86,-272.82C441.64,-263.07 489.87,-249.55 521.45,-240.7"/>
<polygon fill="#63b8ff" stroke="#63b8ff" points="406.21,-269.36 397.53,-275.43 408.1,-276.1 406.21,-269.36"/>
</a>
</g>
</g>
<!-- Node17 -->
<g id="Node000017" class="node">
<title>Node17</title>
<g id="a_Node000017"><a xlink:href="_measurement_point_8cpp.html" target="_top" xlink:title=" ">
<polygon fill="white" stroke="#666666" points="383.34,-240.25 250.34,-240.25 250.34,-221 383.34,-221 383.34,-240.25"/>
<text xml:space="preserve" text-anchor="middle" x="316.84" y="-226.75" font-family="Helvetica,sans-Serif" font-size="10.00">src/MeasurementPoint.cpp</text>
</a>
</g>
</g>
<!-- Node2&#45;&gt;Node17 -->
<g id="edge22_Node000002_Node000017" class="edge">
<title>Node2&#45;&gt;Node17</title>
<g id="a_edge22_Node000002_Node000017"><a xlink:title=" ">
<path fill="none" stroke="#63b8ff" d="M348.51,-267.51C340.59,-258.53 331.25,-247.95 324.77,-240.61"/>
<polygon fill="#63b8ff" stroke="#63b8ff" points="345.84,-269.77 355.08,-274.95 351.08,-265.13 345.84,-269.77"/>
</a>
</g>
</g>
<!-- Node3&#45;&gt;Node4 -->
<g id="edge3_Node000003_Node000004" class="edge">
<title>Node3&#45;&gt;Node4</title>
<g id="a_edge3_Node000003_Node000004"><a xlink:title=" ">
<path fill="none" stroke="#63b8ff" d="M217.04,-215.09C234.1,-205.63 255.83,-193.58 270.48,-185.45"/>
<polygon fill="#63b8ff" stroke="#63b8ff" points="215.5,-211.95 208.45,-219.86 218.89,-218.07 215.5,-211.95"/>
</a>
</g>
</g>
<!-- Node12 -->
<g id="Node000012" class="node">
<title>Node12</title>
<g id="a_Node000012"><a xlink:href="_alarm_8cpp.html" target="_top" xlink:title=" ">
<polygon fill="white" stroke="#666666" points="192.22,-185 115.47,-185 115.47,-165.75 192.22,-165.75 192.22,-185"/>
<text xml:space="preserve" text-anchor="middle" x="153.84" y="-171.5" font-family="Helvetica,sans-Serif" font-size="10.00">src/Alarm.cpp</text>
</a>
</g>
</g>
<!-- Node3&#45;&gt;Node12 -->
<g id="edge13_Node000003_Node000012" class="edge">
<title>Node3&#45;&gt;Node12</title>
<g id="a_edge13_Node000003_Node000012"><a xlink:title=" ">
<path fill="none" stroke="#63b8ff" d="M178.18,-211.4C172.07,-202.61 165.02,-192.46 160.08,-185.36"/>
<polygon fill="#63b8ff" stroke="#63b8ff" points="175.29,-213.37 183.87,-219.59 181.04,-209.38 175.29,-213.37"/>
</a>
</g>
</g>
<!-- Node5 -->
<g id="Node000005" class="node">
<title>Node5</title>
<g id="a_Node000005"><a xlink:href="_c_s_v_config_manager_8h.html" target="_top" xlink:title=" ">
<polygon fill="white" stroke="#666666" points="322.97,-129.75 178.72,-129.75 178.72,-110.5 322.97,-110.5 322.97,-129.75"/>
<text xml:space="preserve" text-anchor="middle" x="250.84" y="-116.25" font-family="Helvetica,sans-Serif" font-size="10.00">include/CSVConfigManager.h</text>
</a>
</g>
</g>
<!-- Node4&#45;&gt;Node5 -->
<g id="edge4_Node000004_Node000005" class="edge">
<title>Node4&#45;&gt;Node5</title>
<g id="a_edge4_Node000004_Node000005"><a xlink:title=" ">
<path fill="none" stroke="#63b8ff" d="M274.52,-156.15C268.58,-147.36 261.72,-137.21 256.91,-130.11"/>
<polygon fill="#63b8ff" stroke="#63b8ff" points="271.55,-158 280.05,-164.33 277.35,-154.08 271.55,-158"/>
</a>
</g>
</g>
<!-- Node6 -->
<g id="Node000006" class="node">
<title>Node6</title>
<g id="a_Node000006"><a xlink:href="_config_manager_8h.html" target="_top" xlink:title=" ">
<polygon fill="white" stroke="#666666" points="166.47,-74.5 43.22,-74.5 43.22,-55.25 166.47,-55.25 166.47,-74.5"/>
<text xml:space="preserve" text-anchor="middle" x="104.84" y="-61" font-family="Helvetica,sans-Serif" font-size="10.00">include/ConfigManager.h</text>
</a>
</g>
</g>
<!-- Node4&#45;&gt;Node6 -->
<g id="edge9_Node000004_Node000006" class="edge">
<title>Node4&#45;&gt;Node6</title>
<g id="a_edge9_Node000004_Node000006"><a xlink:title=" ">
<path fill="none" stroke="#63b8ff" d="M203.46,-163.8C122.98,-153.18 12.33,-137.35 5.84,-129.75 -15.87,-104.32 30.53,-85.31 66.9,-74.9"/>
<polygon fill="#63b8ff" stroke="#63b8ff" points="202.73,-167.23 213.1,-165.06 203.64,-160.29 202.73,-167.23"/>
</a>
</g>
</g>
<!-- Node8 -->
<g id="Node000008" class="node">
<title>Node8</title>
<g id="a_Node000008"><a xlink:href="main_8cpp.html" target="_top" xlink:title=" ">
<polygon fill="white" stroke="#666666" points="386.97,-19.25 314.72,-19.25 314.72,0 386.97,0 386.97,-19.25"/>
<text xml:space="preserve" text-anchor="middle" x="350.84" y="-5.75" font-family="Helvetica,sans-Serif" font-size="10.00">src/main.cpp</text>
</a>
</g>
</g>
<!-- Node4&#45;&gt;Node8 -->
<g id="edge12_Node000004_Node000008" class="edge">
<title>Node4&#45;&gt;Node8</title>
<g id="a_edge12_Node000004_Node000008"><a xlink:title=" ">
<path fill="none" stroke="#63b8ff" d="M308.36,-158.17C317.01,-150.51 326.25,-140.65 331.84,-129.75 351.05,-92.29 351.81,-40.22 351.25,-19.57"/>
<polygon fill="#63b8ff" stroke="#63b8ff" points="306.36,-155.28 300.89,-164.35 310.83,-160.67 306.36,-155.28"/>
</a>
</g>
</g>
<!-- Node4&#45;&gt;Node10 -->
<g id="edge10_Node000004_Node000010" class="edge">
<title>Node4&#45;&gt;Node10</title>
<g id="a_edge10_Node000004_Node000010"><a xlink:title=" ">
<path fill="none" stroke="#63b8ff" d="M323.2,-161.55C350.66,-151.87 387.65,-138.82 412.1,-130.2"/>
<polygon fill="#63b8ff" stroke="#63b8ff" points="322.15,-158.21 313.88,-164.84 324.48,-164.81 322.15,-158.21"/>
</a>
</g>
</g>
<!-- Node11 -->
<g id="Node000011" class="node">
<title>Node11</title>
<g id="a_Node000011"><a xlink:href="_temperature_controller_8cpp.html" target="_top" xlink:title=" ">
<polygon fill="white" stroke="#666666" points="161.09,-129.75 14.59,-129.75 14.59,-110.5 161.09,-110.5 161.09,-129.75"/>
<text xml:space="preserve" text-anchor="middle" x="87.84" y="-116.25" font-family="Helvetica,sans-Serif" font-size="10.00">src/TemperatureController.cpp</text>
</a>
</g>
</g>
<!-- Node4&#45;&gt;Node11 -->
<g id="edge11_Node000004_Node000011" class="edge">
<title>Node4&#45;&gt;Node11</title>
<g id="a_edge11_Node000004_Node000011"><a xlink:title=" ">
<path fill="none" stroke="#63b8ff" d="M242.26,-162.45C205.79,-152.69 154.99,-139.09 121.76,-130.2"/>
<polygon fill="#63b8ff" stroke="#63b8ff" points="241.06,-165.75 251.62,-164.95 242.87,-158.98 241.06,-165.75"/>
</a>
</g>
</g>
<!-- Node5&#45;&gt;Node6 -->
<g id="edge5_Node000005_Node000006" class="edge">
<title>Node5&#45;&gt;Node6</title>
<g id="a_edge5_Node000005_Node000006"><a xlink:title=" ">
<path fill="none" stroke="#63b8ff" d="M215.33,-106.17C188.82,-96.5 153.26,-83.54 129.73,-74.95"/>
<polygon fill="#63b8ff" stroke="#63b8ff" points="214.06,-109.43 224.65,-109.57 216.46,-102.86 214.06,-109.43"/>
</a>
</g>
</g>
<!-- Node9 -->
<g id="Node000009" class="node">
<title>Node9</title>
<g id="a_Node000009"><a xlink:href="_c_s_v_config_manager_8cpp.html" target="_top" xlink:title=" ">
<polygon fill="white" stroke="#666666" points="321.59,-74.5 184.09,-74.5 184.09,-55.25 321.59,-55.25 321.59,-74.5"/>
<text xml:space="preserve" text-anchor="middle" x="252.84" y="-61" font-family="Helvetica,sans-Serif" font-size="10.00">src/CSVConfigManager.cpp</text>
</a>
</g>
</g>
<!-- Node5&#45;&gt;Node9 -->
<g id="edge8_Node000005_Node000009" class="edge">
<title>Node5&#45;&gt;Node9</title>
<g id="a_edge8_Node000005_Node000009"><a xlink:title=" ">
<path fill="none" stroke="#63b8ff" d="M251.6,-98.88C251.91,-90.59 252.26,-81.42 252.5,-74.86"/>
<polygon fill="#63b8ff" stroke="#63b8ff" points="248.11,-98.7 251.23,-108.82 255.1,-98.96 248.11,-98.7"/>
</a>
</g>
</g>
<!-- Node7 -->
<g id="Node000007" class="node">
<title>Node7</title>
<g id="a_Node000007"><a xlink:href="_config_manager_8cpp.html" target="_top" xlink:title=" ">
<polygon fill="white" stroke="#666666" points="163.09,-19.25 46.59,-19.25 46.59,0 163.09,0 163.09,-19.25"/>
<text xml:space="preserve" text-anchor="middle" x="104.84" y="-5.75" font-family="Helvetica,sans-Serif" font-size="10.00">src/ConfigManager.cpp</text>
</a>
</g>
</g>
<!-- Node6&#45;&gt;Node7 -->
<g id="edge6_Node000006_Node000007" class="edge">
<title>Node6&#45;&gt;Node7</title>
<g id="a_edge6_Node000006_Node000007"><a xlink:title=" ">
<path fill="none" stroke="#63b8ff" d="M104.84,-43.63C104.84,-35.34 104.84,-26.17 104.84,-19.61"/>
<polygon fill="#63b8ff" stroke="#63b8ff" points="101.34,-43.57 104.84,-53.57 108.34,-43.57 101.34,-43.57"/>
</a>
</g>
</g>
<!-- Node6&#45;&gt;Node8 -->
<g id="edge7_Node000006_Node000008" class="edge">
<title>Node6&#45;&gt;Node8</title>
<g id="a_edge7_Node000006_Node000008"><a xlink:title=" ">
<path fill="none" stroke="#63b8ff" d="M158.08,-52.35C205.25,-42.14 272.88,-27.5 314.22,-18.55"/>
<polygon fill="#63b8ff" stroke="#63b8ff" points="157.36,-48.92 148.33,-54.46 158.84,-55.77 157.36,-48.92"/>
</a>
</g>
</g>
<!-- Node13&#45;&gt;Node4 -->
<g id="edge18_Node000013_Node000004" class="edge">
<title>Node13&#45;&gt;Node4</title>
<g id="a_edge18_Node000013_Node000004"><a xlink:title=" ">
<path fill="none" stroke="#63b8ff" d="M497.16,-218.32C448,-208.52 377.78,-194.51 332.25,-185.43"/>
<polygon fill="#63b8ff" stroke="#63b8ff" points="496.27,-221.71 506.76,-220.24 497.64,-214.85 496.27,-221.71"/>
</a>
</g>
</g>
<!-- Node14 -->
<g id="Node000014" class="node">
<title>Node14</title>
<g id="a_Node000014"><a xlink:href="_temp_modbus_server_8h.html" target="_top" xlink:title=" ">
<polygon fill="white" stroke="#666666" points="643.97,-185 499.72,-185 499.72,-165.75 643.97,-165.75 643.97,-185"/>
<text xml:space="preserve" text-anchor="middle" x="571.84" y="-171.5" font-family="Helvetica,sans-Serif" font-size="10.00">include/TempModbusServer.h</text>
</a>
</g>
</g>
<!-- Node13&#45;&gt;Node14 -->
<g id="edge15_Node000013_Node000014" class="edge">
<title>Node13&#45;&gt;Node14</title>
<g id="a_edge15_Node000013_Node000014"><a xlink:title=" ">
<path fill="none" stroke="#63b8ff" d="M560.49,-209.96C563.34,-201.52 566.53,-192.08 568.8,-185.36"/>
<polygon fill="#63b8ff" stroke="#63b8ff" points="557.18,-208.8 557.3,-219.4 563.82,-211.05 557.18,-208.8"/>
</a>
</g>
</g>
<!-- Node16 -->
<g id="Node000016" class="node">
<title>Node16</title>
<g id="a_Node000016"><a xlink:href="_register_map_8cpp.html" target="_top" xlink:title=" ">
<polygon fill="white" stroke="#666666" points="769.22,-185 662.47,-185 662.47,-165.75 769.22,-165.75 769.22,-185"/>
<text xml:space="preserve" text-anchor="middle" x="715.84" y="-171.5" font-family="Helvetica,sans-Serif" font-size="10.00">src/RegisterMap.cpp</text>
</a>
</g>
</g>
<!-- Node13&#45;&gt;Node16 -->
<g id="edge19_Node000013_Node000016" class="edge">
<title>Node13&#45;&gt;Node16</title>
<g id="a_edge19_Node000013_Node000016"><a xlink:title=" ">
<path fill="none" stroke="#63b8ff" d="M592.07,-217.06C621.6,-207.35 661.76,-194.15 688.22,-185.45"/>
<polygon fill="#63b8ff" stroke="#63b8ff" points="591.17,-213.67 582.76,-220.12 593.35,-220.32 591.17,-213.67"/>
</a>
</g>
</g>
<!-- Node14&#45;&gt;Node8 -->
<g id="edge17_Node000014_Node000008" class="edge">
<title>Node14&#45;&gt;Node8</title>
<g id="a_edge17_Node000014_Node000008"><a xlink:title=" ">
<path fill="none" stroke="#63b8ff" d="M616.03,-161.58C645.92,-150.58 677.2,-132.95 660.84,-110.5 596.92,-22.75 454.51,-10.44 387.29,-9.78"/>
<polygon fill="#63b8ff" stroke="#63b8ff" points="614.92,-158.26 606.61,-164.83 617.2,-164.87 614.92,-158.26"/>
</a>
</g>
</g>
<!-- Node15 -->
<g id="Node000015" class="node">
<title>Node15</title>
<g id="a_Node000015"><a xlink:href="_temp_modbus_server_8cpp.html" target="_top" xlink:title=" ">
<polygon fill="white" stroke="#666666" points="651.59,-129.75 514.09,-129.75 514.09,-110.5 651.59,-110.5 651.59,-129.75"/>
<text xml:space="preserve" text-anchor="middle" x="582.84" y="-116.25" font-family="Helvetica,sans-Serif" font-size="10.00">src/TempModbusServer.cpp</text>
</a>
</g>
</g>
<!-- Node14&#45;&gt;Node15 -->
<g id="edge16_Node000014_Node000015" class="edge">
<title>Node14&#45;&gt;Node15</title>
<g id="a_edge16_Node000014_Node000015"><a xlink:title=" ">
<path fill="none" stroke="#63b8ff" d="M575.96,-154.42C577.69,-146.05 579.61,-136.75 580.98,-130.11"/>
<polygon fill="#63b8ff" stroke="#63b8ff" points="572.56,-153.6 573.96,-164.1 579.41,-155.01 572.56,-153.6"/>
</a>
</g>
</g>
</g>
</svg>
