<?xml version="1.0" encoding="UTF-8" standalone="no"?>
<!DOCTYPE svg PUBLIC "-//W3C//DTD SVG 1.1//EN"
 "http://www.w3.org/Graphics/SVG/1.1/DTD/svg11.dtd">
<!-- Generated by graphviz version 13.1.0 (20250701.0955)
 -->
<!-- Title: include/Sensor.h Pages: 1 -->
<svg width="399pt" height="83pt"
 viewBox="0.00 0.00 399.00 83.00" xmlns="http://www.w3.org/2000/svg" xmlns:xlink="http://www.w3.org/1999/xlink">
<g id="graph0" class="graph" transform="scale(1 1) rotate(0) translate(4 78.5)">
<title>include/Sensor.h</title>
<!-- Node1 -->
<g id="Node000001" class="node">
<title>Node1</title>
<g id="a_Node000001"><a xlink:title=" ">
<polygon fill="#999999" stroke="#666666" points="201.62,-74.5 113.62,-74.5 113.62,-55.25 201.62,-55.25 201.62,-74.5"/>
<text xml:space="preserve" text-anchor="middle" x="157.62" y="-61" font-family="Helvetica,sans-Serif" font-size="10.00">include/Sensor.h</text>
</a>
</g>
</g>
<!-- Node2 -->
<g id="Node000002" class="node">
<title>Node2</title>
<g id="a_Node000002"><a xlink:title=" ">
<polygon fill="#e0e0e0" stroke="#999999" points="57.25,-19.25 0,-19.25 0,0 57.25,0 57.25,-19.25"/>
<text xml:space="preserve" text-anchor="middle" x="28.62" y="-5.75" font-family="Helvetica,sans-Serif" font-size="10.00">Arduino.h</text>
</a>
</g>
</g>
<!-- Node1&#45;&gt;Node2 -->
<g id="edge1_Node000001_Node000002" class="edge">
<title>Node1&#45;&gt;Node2</title>
<g id="a_edge1_Node000001_Node000002"><a xlink:title=" ">
<path fill="none" stroke="#63b8ff" d="M135.74,-54.84C115.26,-46.39 84.41,-33.65 61.07,-24.02"/>
<polygon fill="#63b8ff" stroke="#63b8ff" points="62.59,-20.86 52.01,-20.28 59.92,-27.33 62.59,-20.86"/>
</a>
</g>
</g>
<!-- Node3 -->
<g id="Node000003" class="node">
<title>Node3</title>
<g id="a_Node000003"><a xlink:title=" ">
<polygon fill="#e0e0e0" stroke="#999999" points="137.88,-19.25 75.38,-19.25 75.38,0 137.88,0 137.88,-19.25"/>
<text xml:space="preserve" text-anchor="middle" x="106.62" y="-5.75" font-family="Helvetica,sans-Serif" font-size="10.00">OneWire.h</text>
</a>
</g>
</g>
<!-- Node1&#45;&gt;Node3 -->
<g id="edge2_Node000001_Node000003" class="edge">
<title>Node1&#45;&gt;Node3</title>
<g id="a_edge2_Node000001_Node000003"><a xlink:title=" ">
<path fill="none" stroke="#63b8ff" d="M149.2,-55.08C142.09,-47.65 131.68,-36.79 122.94,-27.66"/>
<polygon fill="#63b8ff" stroke="#63b8ff" points="125.72,-25.5 116.28,-20.7 120.67,-30.35 125.72,-25.5"/>
</a>
</g>
</g>
<!-- Node4 -->
<g id="Node000004" class="node">
<title>Node4</title>
<g id="a_Node000004"><a xlink:title=" ">
<polygon fill="#e0e0e0" stroke="#999999" points="261.62,-19.25 155.62,-19.25 155.62,0 261.62,0 261.62,-19.25"/>
<text xml:space="preserve" text-anchor="middle" x="208.62" y="-5.75" font-family="Helvetica,sans-Serif" font-size="10.00">DallasTemperature.h</text>
</a>
</g>
</g>
<!-- Node1&#45;&gt;Node4 -->
<g id="edge3_Node000001_Node000004" class="edge">
<title>Node1&#45;&gt;Node4</title>
<g id="a_edge3_Node000001_Node000004"><a xlink:title=" ">
<path fill="none" stroke="#63b8ff" d="M166.05,-55.08C173.16,-47.65 183.57,-36.79 192.31,-27.66"/>
<polygon fill="#63b8ff" stroke="#63b8ff" points="194.58,-30.35 198.97,-20.7 189.53,-25.5 194.58,-30.35"/>
</a>
</g>
</g>
<!-- Node5 -->
<g id="Node000005" class="node">
<title>Node5</title>
<g id="a_Node000005"><a xlink:title=" ">
<polygon fill="#e0e0e0" stroke="#999999" points="391.25,-19.25 280,-19.25 280,0 391.25,0 391.25,-19.25"/>
<text xml:space="preserve" text-anchor="middle" x="335.62" y="-5.75" font-family="Helvetica,sans-Serif" font-size="10.00">Adafruit_MAX31865.h</text>
</a>
</g>
</g>
<!-- Node1&#45;&gt;Node5 -->
<g id="edge4_Node000001_Node000005" class="edge">
<title>Node1&#45;&gt;Node5</title>
<g id="a_edge4_Node000001_Node000005"><a xlink:title=" ">
<path fill="none" stroke="#63b8ff" d="M187.82,-54.84C217.1,-46.08 261.75,-32.73 294.31,-22.98"/>
<polygon fill="#63b8ff" stroke="#63b8ff" points="295.25,-26.36 303.83,-20.14 293.25,-19.65 295.25,-26.36"/>
</a>
</g>
</g>
</g>
</svg>
