<?xml version="1.0" encoding="UTF-8" standalone="no"?>
<!DOCTYPE svg PUBLIC "-//W3C//DTD SVG 1.1//EN"
 "http://www.w3.org/Graphics/SVG/1.1/DTD/svg11.dtd">
<!-- Generated by graphviz version 13.1.0 (20250701.0955)
 -->
<!-- Title: src/Sensor.cpp Pages: 1 -->
<svg width="399pt" height="138pt"
 viewBox="0.00 0.00 399.00 138.00" xmlns="http://www.w3.org/2000/svg" xmlns:xlink="http://www.w3.org/1999/xlink">
<g id="graph0" class="graph" transform="scale(1 1) rotate(0) translate(4 133.75)">
<title>src/Sensor.cpp</title>
<!-- Node1 -->
<g id="Node000001" class="node">
<title>Node1</title>
<g id="a_Node000001"><a xlink:title="Implementation of temperature sensor abstraction layer.">
<polygon fill="#999999" stroke="#666666" points="198.25,-129.75 117,-129.75 117,-110.5 198.25,-110.5 198.25,-129.75"/>
<text xml:space="preserve" text-anchor="middle" x="157.62" y="-116.25" font-family="Helvetica,sans-Serif" font-size="10.00">src/Sensor.cpp</text>
</a>
</g>
</g>
<!-- Node2 -->
<g id="Node000002" class="node">
<title>Node2</title>
<g id="a_Node000002"><a xlink:href="_sensor_8h.html" target="_top" xlink:title="Temperature sensor abstraction layer.">
<polygon fill="white" stroke="#666666" points="184.75,-74.5 130.5,-74.5 130.5,-55.25 184.75,-55.25 184.75,-74.5"/>
<text xml:space="preserve" text-anchor="middle" x="157.62" y="-61" font-family="Helvetica,sans-Serif" font-size="10.00">Sensor.h</text>
</a>
</g>
</g>
<!-- Node1&#45;&gt;Node2 -->
<g id="edge1_Node000001_Node000002" class="edge">
<title>Node1&#45;&gt;Node2</title>
<g id="a_edge1_Node000001_Node000002"><a xlink:title=" ">
<path fill="none" stroke="#63b8ff" d="M157.62,-110.33C157.62,-103.82 157.62,-94.67 157.62,-86.37"/>
<polygon fill="#63b8ff" stroke="#63b8ff" points="161.13,-86.37 157.63,-76.37 154.13,-86.37 161.13,-86.37"/>
</a>
</g>
</g>
<!-- Node3 -->
<g id="Node000003" class="node">
<title>Node3</title>
<g id="a_Node000003"><a xlink:title=" ">
<polygon fill="#e0e0e0" stroke="#999999" points="57.25,-19.25 0,-19.25 0,0 57.25,0 57.25,-19.25"/>
<text xml:space="preserve" text-anchor="middle" x="28.62" y="-5.75" font-family="Helvetica,sans-Serif" font-size="10.00">Arduino.h</text>
</a>
</g>
</g>
<!-- Node2&#45;&gt;Node3 -->
<g id="edge2_Node000002_Node000003" class="edge">
<title>Node2&#45;&gt;Node3</title>
<g id="a_edge2_Node000002_Node000003"><a xlink:title=" ">
<path fill="none" stroke="#63b8ff" d="M135.74,-54.84C115.26,-46.39 84.41,-33.65 61.07,-24.02"/>
<polygon fill="#63b8ff" stroke="#63b8ff" points="62.59,-20.86 52.01,-20.28 59.92,-27.33 62.59,-20.86"/>
</a>
</g>
</g>
<!-- Node4 -->
<g id="Node000004" class="node">
<title>Node4</title>
<g id="a_Node000004"><a xlink:title=" ">
<polygon fill="#e0e0e0" stroke="#999999" points="137.88,-19.25 75.38,-19.25 75.38,0 137.88,0 137.88,-19.25"/>
<text xml:space="preserve" text-anchor="middle" x="106.62" y="-5.75" font-family="Helvetica,sans-Serif" font-size="10.00">OneWire.h</text>
</a>
</g>
</g>
<!-- Node2&#45;&gt;Node4 -->
<g id="edge3_Node000002_Node000004" class="edge">
<title>Node2&#45;&gt;Node4</title>
<g id="a_edge3_Node000002_Node000004"><a xlink:title=" ">
<path fill="none" stroke="#63b8ff" d="M149.2,-55.08C142.09,-47.65 131.68,-36.79 122.94,-27.66"/>
<polygon fill="#63b8ff" stroke="#63b8ff" points="125.72,-25.5 116.28,-20.7 120.67,-30.35 125.72,-25.5"/>
</a>
</g>
</g>
<!-- Node5 -->
<g id="Node000005" class="node">
<title>Node5</title>
<g id="a_Node000005"><a xlink:title=" ">
<polygon fill="#e0e0e0" stroke="#999999" points="261.62,-19.25 155.62,-19.25 155.62,0 261.62,0 261.62,-19.25"/>
<text xml:space="preserve" text-anchor="middle" x="208.62" y="-5.75" font-family="Helvetica,sans-Serif" font-size="10.00">DallasTemperature.h</text>
</a>
</g>
</g>
<!-- Node2&#45;&gt;Node5 -->
<g id="edge4_Node000002_Node000005" class="edge">
<title>Node2&#45;&gt;Node5</title>
<g id="a_edge4_Node000002_Node000005"><a xlink:title=" ">
<path fill="none" stroke="#63b8ff" d="M166.05,-55.08C173.16,-47.65 183.57,-36.79 192.31,-27.66"/>
<polygon fill="#63b8ff" stroke="#63b8ff" points="194.58,-30.35 198.97,-20.7 189.53,-25.5 194.58,-30.35"/>
</a>
</g>
</g>
<!-- Node6 -->
<g id="Node000006" class="node">
<title>Node6</title>
<g id="a_Node000006"><a xlink:title=" ">
<polygon fill="#e0e0e0" stroke="#999999" points="391.25,-19.25 280,-19.25 280,0 391.25,0 391.25,-19.25"/>
<text xml:space="preserve" text-anchor="middle" x="335.62" y="-5.75" font-family="Helvetica,sans-Serif" font-size="10.00">Adafruit_MAX31865.h</text>
</a>
</g>
</g>
<!-- Node2&#45;&gt;Node6 -->
<g id="edge5_Node000002_Node000006" class="edge">
<title>Node2&#45;&gt;Node6</title>
<g id="a_edge5_Node000002_Node000006"><a xlink:title=" ">
<path fill="none" stroke="#63b8ff" d="M185.05,-55.67C214.22,-46.94 260.72,-33.03 294.33,-22.98"/>
<polygon fill="#63b8ff" stroke="#63b8ff" points="295.16,-26.38 303.74,-20.16 293.15,-19.68 295.16,-26.38"/>
</a>
</g>
</g>
</g>
</svg>
