<?xml version="1.0" encoding="UTF-8" standalone="no"?>
<!DOCTYPE svg PUBLIC "-//W3C//DTD SVG 1.1//EN"
 "http://www.w3.org/Graphics/SVG/1.1/DTD/svg11.dtd">
<!-- Generated by graphviz version 13.1.0 (20250701.0955)
 -->
<!-- Title: include/Sensor.h Pages: 1 -->
<svg width="722pt" height="359pt"
 viewBox="0.00 0.00 722.00 359.00" xmlns="http://www.w3.org/2000/svg" xmlns:xlink="http://www.w3.org/1999/xlink">
<g id="graph0" class="graph" transform="scale(1 1) rotate(0) translate(4 354.75)">
<title>include/Sensor.h</title>
<!-- Node1 -->
<g id="Node000001" class="node">
<title>Node1</title>
<g id="a_Node000001"><a xlink:title="Temperature sensor abstraction layer.">
<polygon fill="#999999" stroke="#666666" points="473.12,-350.75 385.12,-350.75 385.12,-331.5 473.12,-331.5 473.12,-350.75"/>
<text xml:space="preserve" text-anchor="middle" x="429.12" y="-337.25" font-family="Helvetica,sans-Serif" font-size="10.00">include/Sensor.h</text>
</a>
</g>
</g>
<!-- Node2 -->
<g id="Node000002" class="node">
<title>Node2</title>
<g id="a_Node000002"><a xlink:href="_measurement_point_8h.html" target="_top" xlink:title="Measurement point abstraction for temperature monitoring system.">
<polygon fill="white" stroke="#666666" points="499,-295.5 359.25,-295.5 359.25,-276.25 499,-276.25 499,-295.5"/>
<text xml:space="preserve" text-anchor="middle" x="429.12" y="-282" font-family="Helvetica,sans-Serif" font-size="10.00">include/MeasurementPoint.h</text>
</a>
</g>
</g>
<!-- Node1&#45;&gt;Node2 -->
<g id="edge1_Node000001_Node000002" class="edge">
<title>Node1&#45;&gt;Node2</title>
<g id="a_edge1_Node000001_Node000002"><a xlink:title=" ">
<path fill="none" stroke="#63b8ff" d="M429.12,-319.88C429.12,-311.59 429.12,-302.42 429.12,-295.86"/>
<polygon fill="#63b8ff" stroke="#63b8ff" points="425.63,-319.82 429.13,-329.82 432.63,-319.82 425.63,-319.82"/>
</a>
</g>
</g>
<!-- Node4 -->
<g id="Node000004" class="node">
<title>Node4</title>
<g id="a_Node000004"><a xlink:href="_temperature_controller_8h.html" target="_top" xlink:title="Central temperature monitoring and control system.">
<polygon fill="white" stroke="#666666" points="440.75,-185 287.5,-185 287.5,-165.75 440.75,-165.75 440.75,-185"/>
<text xml:space="preserve" text-anchor="middle" x="364.12" y="-171.5" font-family="Helvetica,sans-Serif" font-size="10.00">include/TemperatureController.h</text>
</a>
</g>
</g>
<!-- Node1&#45;&gt;Node4 -->
<g id="edge25_Node000001_Node000004" class="edge">
<title>Node1&#45;&gt;Node4</title>
<g id="a_edge25_Node000001_Node000004"><a xlink:title=" ">
<path fill="none" stroke="#63b8ff" d="M387.3,-326.54C372.91,-319.63 358.37,-309.62 350.12,-295.5 328.92,-259.17 349.9,-206 359.69,-185.19"/>
<polygon fill="#63b8ff" stroke="#63b8ff" points="385.7,-329.66 396.26,-330.43 388.48,-323.23 385.7,-329.66"/>
</a>
</g>
</g>
<!-- Node18 -->
<g id="Node000018" class="node">
<title>Node18</title>
<g id="a_Node000018"><a xlink:href="_sensor_8cpp.html" target="_top" xlink:title="Implementation of temperature sensor abstraction layer.">
<polygon fill="white" stroke="#666666" points="598.75,-295.5 517.5,-295.5 517.5,-276.25 598.75,-276.25 598.75,-295.5"/>
<text xml:space="preserve" text-anchor="middle" x="558.12" y="-282" font-family="Helvetica,sans-Serif" font-size="10.00">src/Sensor.cpp</text>
</a>
</g>
</g>
<!-- Node1&#45;&gt;Node18 -->
<g id="edge26_Node000001_Node000018" class="edge">
<title>Node1&#45;&gt;Node18</title>
<g id="a_edge26_Node000001_Node000018"><a xlink:title=" ">
<path fill="none" stroke="#63b8ff" d="M461.45,-326.78C484.76,-317.16 515.62,-304.42 536.13,-295.95"/>
<polygon fill="#63b8ff" stroke="#63b8ff" points="460.32,-323.46 452.41,-330.51 462.99,-329.93 460.32,-323.46"/>
</a>
</g>
</g>
<!-- Node3 -->
<g id="Node000003" class="node">
<title>Node3</title>
<g id="a_Node000003"><a xlink:href="_alarm_8h.html" target="_top" xlink:title="Alarm management system for temperature monitoring.">
<polygon fill="white" stroke="#666666" points="475.88,-240.25 392.38,-240.25 392.38,-221 475.88,-221 475.88,-240.25"/>
<text xml:space="preserve" text-anchor="middle" x="434.12" y="-226.75" font-family="Helvetica,sans-Serif" font-size="10.00">include/Alarm.h</text>
</a>
</g>
</g>
<!-- Node2&#45;&gt;Node3 -->
<g id="edge2_Node000002_Node000003" class="edge">
<title>Node2&#45;&gt;Node3</title>
<g id="a_edge2_Node000002_Node000003"><a xlink:title=" ">
<path fill="none" stroke="#63b8ff" d="M431.03,-264.63C431.8,-256.34 432.67,-247.17 433.28,-240.61"/>
<polygon fill="#63b8ff" stroke="#63b8ff" points="427.54,-264.29 430.09,-274.57 434.51,-264.95 427.54,-264.29"/>
</a>
</g>
</g>
<!-- Node2&#45;&gt;Node4 -->
<g id="edge22_Node000002_Node000004" class="edge">
<title>Node2&#45;&gt;Node4</title>
<g id="a_edge22_Node000002_Node000004"><a xlink:title=" ">
<path fill="none" stroke="#63b8ff" d="M408.16,-268.68C399.34,-260.92 389.63,-250.98 383.12,-240.25 372.33,-222.44 367.32,-198.1 365.3,-185.21"/>
<polygon fill="#63b8ff" stroke="#63b8ff" points="405.77,-271.25 415.69,-274.96 410.25,-265.87 405.77,-271.25"/>
</a>
</g>
</g>
<!-- Node11 -->
<g id="Node000011" class="node">
<title>Node11</title>
<g id="a_Node000011"><a xlink:href="_logger_manager_8cpp.html" target="_top" xlink:title="Implementation of data logging and event management system.">
<polygon fill="white" stroke="#666666" points="713.75,-129.75 596.5,-129.75 596.5,-110.5 713.75,-110.5 713.75,-129.75"/>
<text xml:space="preserve" text-anchor="middle" x="655.12" y="-116.25" font-family="Helvetica,sans-Serif" font-size="10.00">src/LoggerManager.cpp</text>
</a>
</g>
</g>
<!-- Node2&#45;&gt;Node11 -->
<g id="edge23_Node000002_Node000011" class="edge">
<title>Node2&#45;&gt;Node11</title>
<g id="a_edge23_Node000002_Node000011"><a xlink:title=" ">
<path fill="none" stroke="#63b8ff" d="M498.2,-273.94C554.58,-264.37 626.47,-250.45 636.12,-240.25 665.51,-209.23 660.13,-152 656.73,-130.03"/>
<polygon fill="#63b8ff" stroke="#63b8ff" points="497.93,-270.44 488.65,-275.54 499.09,-277.34 497.93,-270.44"/>
</a>
</g>
</g>
<!-- Node14 -->
<g id="Node000014" class="node">
<title>Node14</title>
<g id="a_Node000014"><a xlink:href="_register_map_8h.html" target="_top" xlink:title="Modbus register mapping for temperature monitoring system.">
<polygon fill="white" stroke="#666666" points="285.88,-240.25 172.38,-240.25 172.38,-221 285.88,-221 285.88,-240.25"/>
<text xml:space="preserve" text-anchor="middle" x="229.12" y="-226.75" font-family="Helvetica,sans-Serif" font-size="10.00">include/RegisterMap.h</text>
</a>
</g>
</g>
<!-- Node2&#45;&gt;Node14 -->
<g id="edge16_Node000002_Node000014" class="edge">
<title>Node2&#45;&gt;Node14</title>
<g id="a_edge16_Node000002_Node000014"><a xlink:title=" ">
<path fill="none" stroke="#63b8ff" d="M384.32,-272.95C347.67,-263.19 296.61,-249.59 263.22,-240.7"/>
<polygon fill="#63b8ff" stroke="#63b8ff" points="383.17,-276.26 393.74,-275.45 384.97,-269.5 383.17,-276.26"/>
</a>
</g>
</g>
<!-- Node17 -->
<g id="Node000017" class="node">
<title>Node17</title>
<g id="a_Node000017"><a xlink:href="_measurement_point_8cpp.html" target="_top" xlink:title="Implementation of temperature measurement point management.">
<polygon fill="white" stroke="#666666" points="626.62,-240.25 493.62,-240.25 493.62,-221 626.62,-221 626.62,-240.25"/>
<text xml:space="preserve" text-anchor="middle" x="560.12" y="-226.75" font-family="Helvetica,sans-Serif" font-size="10.00">src/MeasurementPoint.cpp</text>
</a>
</g>
</g>
<!-- Node2&#45;&gt;Node17 -->
<g id="edge24_Node000002_Node000017" class="edge">
<title>Node2&#45;&gt;Node17</title>
<g id="a_edge24_Node000002_Node000017"><a xlink:title=" ">
<path fill="none" stroke="#63b8ff" d="M461.95,-271.53C485.63,-261.91 516.96,-249.17 537.79,-240.7"/>
<polygon fill="#63b8ff" stroke="#63b8ff" points="460.7,-268.26 452.75,-275.27 463.33,-274.75 460.7,-268.26"/>
</a>
</g>
</g>
<!-- Node3&#45;&gt;Node4 -->
<g id="edge3_Node000003_Node000004" class="edge">
<title>Node3&#45;&gt;Node4</title>
<g id="a_edge3_Node000003_Node000004"><a xlink:title=" ">
<path fill="none" stroke="#63b8ff" d="M413.18,-213.69C400.95,-204.39 385.99,-193.01 375.82,-185.27"/>
<polygon fill="#63b8ff" stroke="#63b8ff" points="410.97,-216.41 421.05,-219.68 415.21,-210.84 410.97,-216.41"/>
</a>
</g>
</g>
<!-- Node13 -->
<g id="Node000013" class="node">
<title>Node13</title>
<g id="a_Node000013"><a xlink:href="_alarm_8cpp.html" target="_top" xlink:title="Implementation of alarm management system for temperature monitoring.">
<polygon fill="white" stroke="#666666" points="535.5,-185 458.75,-185 458.75,-165.75 535.5,-165.75 535.5,-185"/>
<text xml:space="preserve" text-anchor="middle" x="497.12" y="-171.5" font-family="Helvetica,sans-Serif" font-size="10.00">src/Alarm.cpp</text>
</a>
</g>
</g>
<!-- Node3&#45;&gt;Node13 -->
<g id="edge15_Node000003_Node000013" class="edge">
<title>Node3&#45;&gt;Node13</title>
<g id="a_edge15_Node000003_Node000013"><a xlink:title=" ">
<path fill="none" stroke="#63b8ff" d="M453.3,-213.41C464.24,-204.17 477.54,-192.93 486.6,-185.27"/>
<polygon fill="#63b8ff" stroke="#63b8ff" points="451.35,-210.49 445.97,-219.61 455.86,-215.83 451.35,-210.49"/>
</a>
</g>
</g>
<!-- Node5 -->
<g id="Node000005" class="node">
<title>Node5</title>
<g id="a_Node000005"><a xlink:href="_c_s_v_config_manager_8h.html" target="_top" xlink:title="CSV configuration import/export manager for measurement points and alarms.">
<polygon fill="white" stroke="#666666" points="495.25,-129.75 351,-129.75 351,-110.5 495.25,-110.5 495.25,-129.75"/>
<text xml:space="preserve" text-anchor="middle" x="423.12" y="-116.25" font-family="Helvetica,sans-Serif" font-size="10.00">include/CSVConfigManager.h</text>
</a>
</g>
</g>
<!-- Node4&#45;&gt;Node5 -->
<g id="edge4_Node000004_Node000005" class="edge">
<title>Node4&#45;&gt;Node5</title>
<g id="a_edge4_Node000004_Node000005"><a xlink:title=" ">
<path fill="none" stroke="#63b8ff" d="M382.39,-157.89C392.58,-148.69 404.87,-137.6 413.26,-130.02"/>
<polygon fill="#63b8ff" stroke="#63b8ff" points="380.34,-155.03 375.26,-164.33 385.03,-160.23 380.34,-155.03"/>
</a>
</g>
</g>
<!-- Node6 -->
<g id="Node000006" class="node">
<title>Node6</title>
<g id="a_Node000006"><a xlink:href="_config_manager_8h.html" target="_top" xlink:title="Configuration management system for temperature monitoring device.">
<polygon fill="white" stroke="#666666" points="384.75,-74.5 261.5,-74.5 261.5,-55.25 384.75,-55.25 384.75,-74.5"/>
<text xml:space="preserve" text-anchor="middle" x="323.12" y="-61" font-family="Helvetica,sans-Serif" font-size="10.00">include/ConfigManager.h</text>
</a>
</g>
</g>
<!-- Node4&#45;&gt;Node6 -->
<g id="edge10_Node000004_Node000006" class="edge">
<title>Node4&#45;&gt;Node6</title>
<g id="a_edge10_Node000004_Node000006"><a xlink:title=" ">
<path fill="none" stroke="#63b8ff" d="M353.78,-155.18C349.83,-147.42 345.47,-138.29 342.12,-129.75 334.61,-110.58 328.36,-87.19 325.25,-74.71"/>
<polygon fill="#63b8ff" stroke="#63b8ff" points="350.66,-156.78 358.41,-164.01 356.86,-153.53 350.66,-156.78"/>
</a>
</g>
</g>
<!-- Node8 -->
<g id="Node000008" class="node">
<title>Node8</title>
<g id="a_Node000008"><a xlink:href="_temperature_controller_8cpp.html" target="_top" xlink:title="Implementation of the central temperature monitoring and control system.">
<polygon fill="white" stroke="#666666" points="604.38,-19.25 457.88,-19.25 457.88,0 604.38,0 604.38,-19.25"/>
<text xml:space="preserve" text-anchor="middle" x="531.12" y="-5.75" font-family="Helvetica,sans-Serif" font-size="10.00">src/TemperatureController.cpp</text>
</a>
</g>
</g>
<!-- Node4&#45;&gt;Node8 -->
<g id="edge13_Node000004_Node000008" class="edge">
<title>Node4&#45;&gt;Node8</title>
<g id="a_edge13_Node000004_Node000008"><a xlink:title=" ">
<path fill="none" stroke="#63b8ff" d="M427.25,-162.51C452.64,-155.71 481.26,-145.32 504.12,-129.75 530.3,-111.92 538.51,-104.34 549.12,-74.5 556,-55.18 544.61,-31.84 537.03,-19.42"/>
<polygon fill="#63b8ff" stroke="#63b8ff" points="426.52,-159.09 417.68,-164.93 428.24,-165.87 426.52,-159.09"/>
</a>
</g>
</g>
<!-- Node9 -->
<g id="Node000009" class="node">
<title>Node9</title>
<g id="a_Node000009"><a xlink:href="main_8cpp.html" target="_top" xlink:title="Main application entry point for Industrial Temperature Monitoring System.">
<polygon fill="white" stroke="#666666" points="258.25,-19.25 186,-19.25 186,0 258.25,0 258.25,-19.25"/>
<text xml:space="preserve" text-anchor="middle" x="222.12" y="-5.75" font-family="Helvetica,sans-Serif" font-size="10.00">src/main.cpp</text>
</a>
</g>
</g>
<!-- Node4&#45;&gt;Node9 -->
<g id="edge14_Node000004_Node000009" class="edge">
<title>Node4&#45;&gt;Node9</title>
<g id="a_edge14_Node000004_Node000009"><a xlink:title=" ">
<path fill="none" stroke="#63b8ff" d="M341.58,-158.63C317.03,-140.58 277.86,-109.01 252.12,-74.5 238.94,-56.82 229.47,-32.43 225,-19.5"/>
<polygon fill="#63b8ff" stroke="#63b8ff" points="339.43,-161.39 349.59,-164.4 343.52,-155.71 339.43,-161.39"/>
</a>
</g>
</g>
<!-- Node4&#45;&gt;Node11 -->
<g id="edge11_Node000004_Node000011" class="edge">
<title>Node4&#45;&gt;Node11</title>
<g id="a_edge11_Node000004_Node000011"><a xlink:title=" ">
<path fill="none" stroke="#63b8ff" d="M424.89,-163.26C478.51,-153.44 555.7,-139.32 605.64,-130.18"/>
<polygon fill="#63b8ff" stroke="#63b8ff" points="424.51,-159.77 415.31,-165.01 425.77,-166.65 424.51,-159.77"/>
</a>
</g>
</g>
<!-- Node12 -->
<g id="Node000012" class="node">
<title>Node12</title>
<g id="a_Node000012"><a xlink:href="_temp_modbus_server_8cpp.html" target="_top" xlink:title="Implementation of Modbus RTU server for temperature monitoring.">
<polygon fill="white" stroke="#666666" points="204.88,-129.75 67.38,-129.75 67.38,-110.5 204.88,-110.5 204.88,-129.75"/>
<text xml:space="preserve" text-anchor="middle" x="136.12" y="-116.25" font-family="Helvetica,sans-Serif" font-size="10.00">src/TempModbusServer.cpp</text>
</a>
</g>
</g>
<!-- Node4&#45;&gt;Node12 -->
<g id="edge12_Node000004_Node000012" class="edge">
<title>Node4&#45;&gt;Node12</title>
<g id="a_edge12_Node000004_Node000012"><a xlink:title=" ">
<path fill="none" stroke="#63b8ff" d="M314.13,-162.7C272.24,-152.91 213.29,-139.15 174.9,-130.18"/>
<polygon fill="#63b8ff" stroke="#63b8ff" points="313.18,-166.07 323.72,-164.94 314.77,-159.25 313.18,-166.07"/>
</a>
</g>
</g>
<!-- Node5&#45;&gt;Node6 -->
<g id="edge5_Node000005_Node000006" class="edge">
<title>Node5&#45;&gt;Node6</title>
<g id="a_edge5_Node000005_Node000006"><a xlink:title=" ">
<path fill="none" stroke="#63b8ff" d="M396.08,-104.73C378.27,-95.24 355.5,-83.11 340.17,-74.95"/>
<polygon fill="#63b8ff" stroke="#63b8ff" points="394.35,-107.77 404.83,-109.38 397.64,-101.59 394.35,-107.77"/>
</a>
</g>
</g>
<!-- Node10 -->
<g id="Node000010" class="node">
<title>Node10</title>
<g id="a_Node000010"><a xlink:href="_c_s_v_config_manager_8cpp.html" target="_top" xlink:title="Implementation of CSV configuration management for measurement points.">
<polygon fill="white" stroke="#666666" points="539.88,-74.5 402.38,-74.5 402.38,-55.25 539.88,-55.25 539.88,-74.5"/>
<text xml:space="preserve" text-anchor="middle" x="471.12" y="-61" font-family="Helvetica,sans-Serif" font-size="10.00">src/CSVConfigManager.cpp</text>
</a>
</g>
</g>
<!-- Node5&#45;&gt;Node10 -->
<g id="edge9_Node000005_Node000010" class="edge">
<title>Node5&#45;&gt;Node10</title>
<g id="a_edge9_Node000005_Node000010"><a xlink:title=" ">
<path fill="none" stroke="#63b8ff" d="M438.52,-102.04C446.67,-93 456.34,-82.27 463.03,-74.86"/>
<polygon fill="#63b8ff" stroke="#63b8ff" points="436.16,-99.44 432.06,-109.21 441.36,-104.12 436.16,-99.44"/>
</a>
</g>
</g>
<!-- Node7 -->
<g id="Node000007" class="node">
<title>Node7</title>
<g id="a_Node000007"><a xlink:href="_config_manager_8cpp.html" target="_top" xlink:title="Implementation of web&#45;based configuration management system.">
<polygon fill="white" stroke="#666666" points="392.38,-19.25 275.88,-19.25 275.88,0 392.38,0 392.38,-19.25"/>
<text xml:space="preserve" text-anchor="middle" x="334.12" y="-5.75" font-family="Helvetica,sans-Serif" font-size="10.00">src/ConfigManager.cpp</text>
</a>
</g>
</g>
<!-- Node6&#45;&gt;Node7 -->
<g id="edge6_Node000006_Node000007" class="edge">
<title>Node6&#45;&gt;Node7</title>
<g id="a_edge6_Node000006_Node000007"><a xlink:title=" ">
<path fill="none" stroke="#63b8ff" d="M327.25,-43.92C328.98,-35.55 330.9,-26.25 332.27,-19.61"/>
<polygon fill="#63b8ff" stroke="#63b8ff" points="323.84,-43.1 325.25,-53.6 330.7,-44.51 323.84,-43.1"/>
</a>
</g>
</g>
<!-- Node6&#45;&gt;Node8 -->
<g id="edge7_Node000006_Node000008" class="edge">
<title>Node6&#45;&gt;Node8</title>
<g id="a_edge7_Node000006_Node000008"><a xlink:title=" ">
<path fill="none" stroke="#63b8ff" d="M369.23,-52.07C407.38,-42.3 460.79,-28.63 495.67,-19.7"/>
<polygon fill="#63b8ff" stroke="#63b8ff" points="368.7,-48.6 359.88,-54.47 370.43,-55.38 368.7,-48.6"/>
</a>
</g>
</g>
<!-- Node6&#45;&gt;Node9 -->
<g id="edge8_Node000006_Node000009" class="edge">
<title>Node6&#45;&gt;Node9</title>
<g id="a_edge8_Node000006_Node000009"><a xlink:title=" ">
<path fill="none" stroke="#63b8ff" d="M295.81,-49.48C277.83,-39.99 254.82,-27.86 239.34,-19.7"/>
<polygon fill="#63b8ff" stroke="#63b8ff" points="294.17,-52.57 304.65,-54.14 297.44,-46.38 294.17,-52.57"/>
</a>
</g>
</g>
<!-- Node14&#45;&gt;Node4 -->
<g id="edge20_Node000014_Node000004" class="edge">
<title>Node14&#45;&gt;Node4</title>
<g id="a_edge20_Node000014_Node000004"><a xlink:title=" ">
<path fill="none" stroke="#63b8ff" d="M262.62,-216.41C287.06,-206.77 319.55,-193.96 341.11,-185.45"/>
<polygon fill="#63b8ff" stroke="#63b8ff" points="261.45,-213.11 253.43,-220.04 264.02,-219.62 261.45,-213.11"/>
</a>
</g>
</g>
<!-- Node15 -->
<g id="Node000015" class="node">
<title>Node15</title>
<g id="a_Node000015"><a xlink:href="_temp_modbus_server_8h.html" target="_top" xlink:title="Modbus RTU server for temperature monitoring system.">
<polygon fill="white" stroke="#666666" points="144.25,-185 0,-185 0,-165.75 144.25,-165.75 144.25,-185"/>
<text xml:space="preserve" text-anchor="middle" x="72.12" y="-171.5" font-family="Helvetica,sans-Serif" font-size="10.00">include/TempModbusServer.h</text>
</a>
</g>
</g>
<!-- Node14&#45;&gt;Node15 -->
<g id="edge17_Node000014_Node000015" class="edge">
<title>Node14&#45;&gt;Node15</title>
<g id="a_edge17_Node000014_Node000015"><a xlink:title=" ">
<path fill="none" stroke="#63b8ff" d="M191.7,-216.93C163.12,-207.24 124.42,-194.11 98.89,-185.45"/>
<polygon fill="#63b8ff" stroke="#63b8ff" points="190.46,-220.21 201.06,-220.11 192.71,-213.58 190.46,-220.21"/>
</a>
</g>
</g>
<!-- Node16 -->
<g id="Node000016" class="node">
<title>Node16</title>
<g id="a_Node000016"><a xlink:href="_register_map_8cpp.html" target="_top" xlink:title="Implementation of Modbus register mapping for temperature monitoring.">
<polygon fill="white" stroke="#666666" points="269.5,-185 162.75,-185 162.75,-165.75 269.5,-165.75 269.5,-185"/>
<text xml:space="preserve" text-anchor="middle" x="216.12" y="-171.5" font-family="Helvetica,sans-Serif" font-size="10.00">src/RegisterMap.cpp</text>
</a>
</g>
</g>
<!-- Node14&#45;&gt;Node16 -->
<g id="edge21_Node000014_Node000016" class="edge">
<title>Node14&#45;&gt;Node16</title>
<g id="a_edge21_Node000014_Node000016"><a xlink:title=" ">
<path fill="none" stroke="#63b8ff" d="M224.25,-209.67C222.21,-201.3 219.94,-192 218.32,-185.36"/>
<polygon fill="#63b8ff" stroke="#63b8ff" points="220.85,-210.48 226.62,-219.36 227.65,-208.82 220.85,-210.48"/>
</a>
</g>
</g>
<!-- Node15&#45;&gt;Node9 -->
<g id="edge19_Node000015_Node000009" class="edge">
<title>Node15&#45;&gt;Node9</title>
<g id="a_edge19_Node000015_Node000009"><a xlink:title=" ">
<path fill="none" stroke="#63b8ff" d="M61.39,-155.63C55.3,-142.32 50.31,-124.42 58.12,-110.5 86.21,-60.51 150.59,-32.61 189.81,-19.68"/>
<polygon fill="#63b8ff" stroke="#63b8ff" points="58.12,-156.91 65.82,-164.19 64.34,-153.7 58.12,-156.91"/>
</a>
</g>
</g>
<!-- Node15&#45;&gt;Node12 -->
<g id="edge18_Node000015_Node000012" class="edge">
<title>Node15&#45;&gt;Node12</title>
<g id="a_edge18_Node000015_Node000012"><a xlink:title=" ">
<path fill="none" stroke="#63b8ff" d="M91.61,-158.16C102.72,-148.92 116.23,-137.68 125.43,-130.02"/>
<polygon fill="#63b8ff" stroke="#63b8ff" points="89.59,-155.29 84.15,-164.37 94.07,-160.67 89.59,-155.29"/>
</a>
</g>
</g>
</g>
</svg>
