<?xml version="1.0" encoding="UTF-8" standalone="no"?>
<!DOCTYPE svg PUBLIC "-//W3C//DTD SVG 1.1//EN"
 "http://www.w3.org/Graphics/SVG/1.1/DTD/svg11.dtd">
<!-- Generated by graphviz version 13.1.0 (20250701.0955)
 -->
<!-- Title: include/SettingsCSVManager.h Pages: 1 -->
<svg width="168pt" height="83pt"
 viewBox="0.00 0.00 168.00 83.00" xmlns="http://www.w3.org/2000/svg" xmlns:xlink="http://www.w3.org/1999/xlink">
<g id="graph0" class="graph" transform="scale(1 1) rotate(0) translate(4 78.5)">
<title>include/SettingsCSVManager.h</title>
<!-- Node1 -->
<g id="Node000001" class="node">
<title>Node1</title>
<g id="a_Node000001"><a xlink:title=" ">
<polygon fill="#999999" stroke="#666666" points="151.75,-74.5 0,-74.5 0,-55.25 151.75,-55.25 151.75,-74.5"/>
<text xml:space="preserve" text-anchor="middle" x="75.88" y="-61" font-family="Helvetica,sans-Serif" font-size="10.00">include/SettingsCSVManager.h</text>
</a>
</g>
</g>
<!-- Node2 -->
<g id="Node000002" class="node">
<title>Node2</title>
<g id="a_Node000002"><a xlink:title=" ">
<polygon fill="#e0e0e0" stroke="#999999" points="61.5,-19.25 4.25,-19.25 4.25,0 61.5,0 61.5,-19.25"/>
<text xml:space="preserve" text-anchor="middle" x="32.88" y="-5.75" font-family="Helvetica,sans-Serif" font-size="10.00">Arduino.h</text>
</a>
</g>
</g>
<!-- Node1&#45;&gt;Node2 -->
<g id="edge1_Node000001_Node000002" class="edge">
<title>Node1&#45;&gt;Node2</title>
<g id="a_edge1_Node000001_Node000002"><a xlink:title=" ">
<path fill="none" stroke="#63b8ff" d="M68.77,-55.08C62.96,-47.88 54.54,-37.46 47.32,-28.51"/>
<polygon fill="#63b8ff" stroke="#63b8ff" points="50.09,-26.37 41.08,-20.79 44.64,-30.77 50.09,-26.37"/>
</a>
</g>
</g>
<!-- Node3 -->
<g id="Node000003" class="node">
<title>Node3</title>
<g id="a_Node000003"><a xlink:title=" ">
<polygon fill="#e0e0e0" stroke="#999999" points="160.12,-19.25 79.62,-19.25 79.62,0 160.12,0 160.12,-19.25"/>
<text xml:space="preserve" text-anchor="middle" x="119.88" y="-5.75" font-family="Helvetica,sans-Serif" font-size="10.00">ConfigAssist.h</text>
</a>
</g>
</g>
<!-- Node1&#45;&gt;Node3 -->
<g id="edge2_Node000001_Node000003" class="edge">
<title>Node1&#45;&gt;Node3</title>
<g id="a_edge2_Node000001_Node000003"><a xlink:title=" ">
<path fill="none" stroke="#63b8ff" d="M83.14,-55.08C89.16,-47.8 97.89,-37.23 105.33,-28.23"/>
<polygon fill="#63b8ff" stroke="#63b8ff" points="107.82,-30.71 111.49,-20.78 102.42,-26.26 107.82,-30.71"/>
</a>
</g>
</g>
</g>
</svg>
