<?xml version="1.0" encoding="UTF-8" standalone="no"?>
<!DOCTYPE svg PUBLIC "-//W3C//DTD SVG 1.1//EN"
 "http://www.w3.org/Graphics/SVG/1.1/DTD/svg11.dtd">
<!-- Generated by graphviz version 13.1.0 (20250701.0955)
 -->
<!-- Title: include/SettingsCSVManager.h Pages: 1 -->
<svg width="347pt" height="138pt"
 viewBox="0.00 0.00 347.00 138.00" xmlns="http://www.w3.org/2000/svg" xmlns:xlink="http://www.w3.org/1999/xlink">
<g id="graph0" class="graph" transform="scale(1 1) rotate(0) translate(4 133.75)">
<title>include/SettingsCSVManager.h</title>
<!-- Node1 -->
<g id="Node000001" class="node">
<title>Node1</title>
<g id="a_Node000001"><a xlink:title="CSV import/export manager for system settings.">
<polygon fill="#999999" stroke="#666666" points="266.12,-129.75 114.38,-129.75 114.38,-110.5 266.12,-110.5 266.12,-129.75"/>
<text xml:space="preserve" text-anchor="middle" x="190.25" y="-116.25" font-family="Helvetica,sans-Serif" font-size="10.00">include/SettingsCSVManager.h</text>
</a>
</g>
</g>
<!-- Node2 -->
<g id="Node000002" class="node">
<title>Node2</title>
<g id="a_Node000002"><a xlink:href="_config_manager_8h.html" target="_top" xlink:title="Configuration management system for temperature monitoring device.">
<polygon fill="white" stroke="#666666" points="175.88,-74.5 52.62,-74.5 52.62,-55.25 175.88,-55.25 175.88,-74.5"/>
<text xml:space="preserve" text-anchor="middle" x="114.25" y="-61" font-family="Helvetica,sans-Serif" font-size="10.00">include/ConfigManager.h</text>
</a>
</g>
</g>
<!-- Node1&#45;&gt;Node2 -->
<g id="edge1_Node000001_Node000002" class="edge">
<title>Node1&#45;&gt;Node2</title>
<g id="a_edge1_Node000001_Node000002"><a xlink:title=" ">
<path fill="none" stroke="#63b8ff" d="M167.96,-103.51C154.71,-94.22 138.36,-82.77 127.21,-74.95"/>
<polygon fill="#63b8ff" stroke="#63b8ff" points="165.92,-106.35 176.12,-109.22 169.94,-100.62 165.92,-106.35"/>
</a>
</g>
</g>
<!-- Node5 -->
<g id="Node000005" class="node">
<title>Node5</title>
<g id="a_Node000005"><a xlink:href="_settings_c_s_v_manager_8cpp.html" target="_top" xlink:title="Implementation of CSV import/export for system settings.">
<polygon fill="white" stroke="#666666" points="338.75,-74.5 193.75,-74.5 193.75,-55.25 338.75,-55.25 338.75,-74.5"/>
<text xml:space="preserve" text-anchor="middle" x="266.25" y="-61" font-family="Helvetica,sans-Serif" font-size="10.00">src/SettingsCSVManager.cpp</text>
</a>
</g>
</g>
<!-- Node1&#45;&gt;Node5 -->
<g id="edge4_Node000001_Node000005" class="edge">
<title>Node1&#45;&gt;Node5</title>
<g id="a_edge4_Node000001_Node000005"><a xlink:title=" ">
<path fill="none" stroke="#63b8ff" d="M212.54,-103.51C225.79,-94.22 242.14,-82.77 253.29,-74.95"/>
<polygon fill="#63b8ff" stroke="#63b8ff" points="210.56,-100.62 204.38,-109.22 214.58,-106.35 210.56,-100.62"/>
</a>
</g>
</g>
<!-- Node3 -->
<g id="Node000003" class="node">
<title>Node3</title>
<g id="a_Node000003"><a xlink:href="_config_manager_8cpp.html" target="_top" xlink:title="Implementation of web&#45;based configuration management system.">
<polygon fill="white" stroke="#666666" points="116.5,-19.25 0,-19.25 0,0 116.5,0 116.5,-19.25"/>
<text xml:space="preserve" text-anchor="middle" x="58.25" y="-5.75" font-family="Helvetica,sans-Serif" font-size="10.00">src/ConfigManager.cpp</text>
</a>
</g>
</g>
<!-- Node2&#45;&gt;Node3 -->
<g id="edge2_Node000002_Node000003" class="edge">
<title>Node2&#45;&gt;Node3</title>
<g id="a_edge2_Node000002_Node000003"><a xlink:title=" ">
<path fill="none" stroke="#63b8ff" d="M96.62,-47.11C87.01,-37.97 75.5,-27.03 67.61,-19.52"/>
<polygon fill="#63b8ff" stroke="#63b8ff" points="93.99,-49.44 103.65,-53.8 98.82,-44.37 93.99,-49.44"/>
</a>
</g>
</g>
<!-- Node4 -->
<g id="Node000004" class="node">
<title>Node4</title>
<g id="a_Node000004"><a xlink:href="main_8cpp.html" target="_top" xlink:title="Main application entry point for Industrial Temperature Monitoring System.">
<polygon fill="white" stroke="#666666" points="206.38,-19.25 134.12,-19.25 134.12,0 206.38,0 206.38,-19.25"/>
<text xml:space="preserve" text-anchor="middle" x="170.25" y="-5.75" font-family="Helvetica,sans-Serif" font-size="10.00">src/main.cpp</text>
</a>
</g>
</g>
<!-- Node2&#45;&gt;Node4 -->
<g id="edge3_Node000002_Node000004" class="edge">
<title>Node2&#45;&gt;Node4</title>
<g id="a_edge3_Node000002_Node000004"><a xlink:title=" ">
<path fill="none" stroke="#63b8ff" d="M131.88,-47.11C141.49,-37.97 153,-27.03 160.89,-19.52"/>
<polygon fill="#63b8ff" stroke="#63b8ff" points="129.68,-44.37 124.85,-53.8 134.51,-49.44 129.68,-44.37"/>
</a>
</g>
</g>
</g>
</svg>
