<?xml version="1.0" encoding="UTF-8" standalone="no"?>
<!DOCTYPE svg PUBLIC "-//W3C//DTD SVG 1.1//EN"
 "http://www.w3.org/Graphics/SVG/1.1/DTD/svg11.dtd">
<!-- Generated by graphviz version 13.1.0 (20250701.0955)
 -->
<!-- Title: include/SettingsCSVManager.h Pages: 1 -->
<svg width="441pt" height="138pt"
 viewBox="0.00 0.00 441.00 138.00" xmlns="http://www.w3.org/2000/svg" xmlns:xlink="http://www.w3.org/1999/xlink">
<g id="graph0" class="graph" transform="scale(1 1) rotate(0) translate(4 133.75)">
<title>include/SettingsCSVManager.h</title>
<!-- Node1 -->
<g id="Node000001" class="node">
<title>Node1</title>
<g id="a_Node000001"><a xlink:title="CSV import/export manager for system settings.">
<polygon fill="#999999" stroke="#666666" points="360.12,-129.75 208.38,-129.75 208.38,-110.5 360.12,-110.5 360.12,-129.75"/>
<text xml:space="preserve" text-anchor="middle" x="284.25" y="-116.25" font-family="Helvetica,sans-Serif" font-size="10.00">include/SettingsCSVManager.h</text>
</a>
</g>
</g>
<!-- Node2 -->
<g id="Node000002" class="node">
<title>Node2</title>
<g id="a_Node000002"><a xlink:href="_config_manager_8h.html" target="_top" xlink:title="Configuration management system for temperature monitoring device.">
<polygon fill="white" stroke="#666666" points="269.88,-74.5 146.62,-74.5 146.62,-55.25 269.88,-55.25 269.88,-74.5"/>
<text xml:space="preserve" text-anchor="middle" x="208.25" y="-61" font-family="Helvetica,sans-Serif" font-size="10.00">include/ConfigManager.h</text>
</a>
</g>
</g>
<!-- Node1&#45;&gt;Node2 -->
<g id="edge1_Node000001_Node000002" class="edge">
<title>Node1&#45;&gt;Node2</title>
<g id="a_edge1_Node000001_Node000002"><a xlink:title=" ">
<path fill="none" stroke="#63b8ff" d="M261.96,-103.51C248.71,-94.22 232.36,-82.77 221.21,-74.95"/>
<polygon fill="#63b8ff" stroke="#63b8ff" points="259.92,-106.35 270.12,-109.22 263.94,-100.62 259.92,-106.35"/>
</a>
</g>
</g>
<!-- Node6 -->
<g id="Node000006" class="node">
<title>Node6</title>
<g id="a_Node000006"><a xlink:href="_settings_c_s_v_manager_8cpp.html" target="_top" xlink:title="Implementation of CSV import/export for system settings.">
<polygon fill="white" stroke="#666666" points="432.75,-74.5 287.75,-74.5 287.75,-55.25 432.75,-55.25 432.75,-74.5"/>
<text xml:space="preserve" text-anchor="middle" x="360.25" y="-61" font-family="Helvetica,sans-Serif" font-size="10.00">src/SettingsCSVManager.cpp</text>
</a>
</g>
</g>
<!-- Node1&#45;&gt;Node6 -->
<g id="edge5_Node000001_Node000006" class="edge">
<title>Node1&#45;&gt;Node6</title>
<g id="a_edge5_Node000001_Node000006"><a xlink:title=" ">
<path fill="none" stroke="#63b8ff" d="M306.54,-103.51C319.79,-94.22 336.14,-82.77 347.29,-74.95"/>
<polygon fill="#63b8ff" stroke="#63b8ff" points="304.56,-100.62 298.38,-109.22 308.58,-106.35 304.56,-100.62"/>
</a>
</g>
</g>
<!-- Node3 -->
<g id="Node000003" class="node">
<title>Node3</title>
<g id="a_Node000003"><a xlink:href="_config_manager_8cpp.html" target="_top" xlink:title="Implementation of web&#45;based configuration management system.">
<polygon fill="white" stroke="#666666" points="116.5,-19.25 0,-19.25 0,0 116.5,0 116.5,-19.25"/>
<text xml:space="preserve" text-anchor="middle" x="58.25" y="-5.75" font-family="Helvetica,sans-Serif" font-size="10.00">src/ConfigManager.cpp</text>
</a>
</g>
</g>
<!-- Node2&#45;&gt;Node3 -->
<g id="edge2_Node000002_Node000003" class="edge">
<title>Node2&#45;&gt;Node3</title>
<g id="a_edge2_Node000002_Node000003"><a xlink:title=" ">
<path fill="none" stroke="#63b8ff" d="M172.13,-51.05C144.86,-41.37 108.11,-28.32 83.82,-19.7"/>
<polygon fill="#63b8ff" stroke="#63b8ff" points="170.78,-54.29 181.38,-54.34 173.13,-47.69 170.78,-54.29"/>
</a>
</g>
</g>
<!-- Node4 -->
<g id="Node000004" class="node">
<title>Node4</title>
<g id="a_Node000004"><a xlink:href="_temperature_controller_8cpp.html" target="_top" xlink:title="Implementation of the central temperature monitoring and control system.">
<polygon fill="white" stroke="#666666" points="281.5,-19.25 135,-19.25 135,0 281.5,0 281.5,-19.25"/>
<text xml:space="preserve" text-anchor="middle" x="208.25" y="-5.75" font-family="Helvetica,sans-Serif" font-size="10.00">src/TemperatureController.cpp</text>
</a>
</g>
</g>
<!-- Node2&#45;&gt;Node4 -->
<g id="edge3_Node000002_Node000004" class="edge">
<title>Node2&#45;&gt;Node4</title>
<g id="a_edge3_Node000002_Node000004"><a xlink:title=" ">
<path fill="none" stroke="#63b8ff" d="M208.25,-43.63C208.25,-35.34 208.25,-26.17 208.25,-19.61"/>
<polygon fill="#63b8ff" stroke="#63b8ff" points="204.75,-43.57 208.25,-53.57 211.75,-43.57 204.75,-43.57"/>
</a>
</g>
</g>
<!-- Node5 -->
<g id="Node000005" class="node">
<title>Node5</title>
<g id="a_Node000005"><a xlink:href="main_8cpp.html" target="_top" xlink:title="Main application entry point for Industrial Temperature Monitoring System.">
<polygon fill="white" stroke="#666666" points="371.38,-19.25 299.12,-19.25 299.12,0 371.38,0 371.38,-19.25"/>
<text xml:space="preserve" text-anchor="middle" x="335.25" y="-5.75" font-family="Helvetica,sans-Serif" font-size="10.00">src/main.cpp</text>
</a>
</g>
</g>
<!-- Node2&#45;&gt;Node5 -->
<g id="edge4_Node000002_Node000005" class="edge">
<title>Node2&#45;&gt;Node5</title>
<g id="a_edge4_Node000002_Node000005"><a xlink:title=" ">
<path fill="none" stroke="#63b8ff" d="M240.38,-50.4C263.3,-40.79 293.5,-28.13 313.6,-19.7"/>
<polygon fill="#63b8ff" stroke="#63b8ff" points="239.06,-47.16 231.19,-54.26 241.77,-53.62 239.06,-47.16"/>
</a>
</g>
</g>
</g>
</svg>
