<?xml version="1.0" encoding="UTF-8" standalone="no"?>
<!DOCTYPE svg PUBLIC "-//W3C//DTD SVG 1.1//EN"
 "http://www.w3.org/Graphics/SVG/1.1/DTD/svg11.dtd">
<!-- Generated by graphviz version 13.1.0 (20250701.0955)
 -->
<!-- Title: src/SettingsCSVManager.cpp Pages: 1 -->
<svg width="165pt" height="138pt"
 viewBox="0.00 0.00 165.00 138.00" xmlns="http://www.w3.org/2000/svg" xmlns:xlink="http://www.w3.org/1999/xlink">
<g id="graph0" class="graph" transform="scale(1 1) rotate(0) translate(4 133.75)">
<title>src/SettingsCSVManager.cpp</title>
<!-- Node1 -->
<g id="Node000001" class="node">
<title>Node1</title>
<g id="a_Node000001"><a xlink:title="Implementation of CSV import/export for system settings.">
<polygon fill="#999999" stroke="#666666" points="145,-129.75 0,-129.75 0,-110.5 145,-110.5 145,-129.75"/>
<text xml:space="preserve" text-anchor="middle" x="72.5" y="-116.25" font-family="Helvetica,sans-Serif" font-size="10.00">src/SettingsCSVManager.cpp</text>
</a>
</g>
</g>
<!-- Node2 -->
<g id="Node000002" class="node">
<title>Node2</title>
<g id="a_Node000002"><a xlink:href="$_settings_c_s_v_manager_8h.html" xlink:title="CSV import/export manager for system settings.">
<polygon fill="white" stroke="#666666" points="131.5,-74.5 13.5,-74.5 13.5,-55.25 131.5,-55.25 131.5,-74.5"/>
<text xml:space="preserve" text-anchor="middle" x="72.5" y="-61" font-family="Helvetica,sans-Serif" font-size="10.00">SettingsCSVManager.h</text>
</a>
</g>
</g>
<!-- Node1&#45;&gt;Node2 -->
<g id="edge1_Node000001_Node000002" class="edge">
<title>Node1&#45;&gt;Node2</title>
<g id="a_edge1_Node000001_Node000002"><a xlink:title=" ">
<path fill="none" stroke="#63b8ff" d="M72.5,-110.33C72.5,-103.82 72.5,-94.67 72.5,-86.37"/>
<polygon fill="#63b8ff" stroke="#63b8ff" points="76,-86.37 72.5,-76.37 69,-86.37 76,-86.37"/>
</a>
</g>
</g>
<!-- Node3 -->
<g id="Node000003" class="node">
<title>Node3</title>
<g id="a_Node000003"><a xlink:title=" ">
<polygon fill="#e0e0e0" stroke="#999999" points="58.12,-19.25 0.88,-19.25 0.88,0 58.12,0 58.12,-19.25"/>
<text xml:space="preserve" text-anchor="middle" x="29.5" y="-5.75" font-family="Helvetica,sans-Serif" font-size="10.00">Arduino.h</text>
</a>
</g>
</g>
<!-- Node2&#45;&gt;Node3 -->
<g id="edge2_Node000002_Node000003" class="edge">
<title>Node2&#45;&gt;Node3</title>
<g id="a_edge2_Node000002_Node000003"><a xlink:title=" ">
<path fill="none" stroke="#63b8ff" d="M65.4,-55.08C59.58,-47.88 51.17,-37.46 43.94,-28.51"/>
<polygon fill="#63b8ff" stroke="#63b8ff" points="46.71,-26.37 37.71,-20.79 41.27,-30.77 46.71,-26.37"/>
</a>
</g>
</g>
<!-- Node4 -->
<g id="Node000004" class="node">
<title>Node4</title>
<g id="a_Node000004"><a xlink:title=" ">
<polygon fill="#e0e0e0" stroke="#999999" points="156.75,-19.25 76.25,-19.25 76.25,0 156.75,0 156.75,-19.25"/>
<text xml:space="preserve" text-anchor="middle" x="116.5" y="-5.75" font-family="Helvetica,sans-Serif" font-size="10.00">ConfigAssist.h</text>
</a>
</g>
</g>
<!-- Node2&#45;&gt;Node4 -->
<g id="edge3_Node000002_Node000004" class="edge">
<title>Node2&#45;&gt;Node4</title>
<g id="a_edge3_Node000002_Node000004"><a xlink:title=" ">
<path fill="none" stroke="#63b8ff" d="M79.77,-55.08C85.78,-47.8 94.51,-37.23 101.96,-28.23"/>
<polygon fill="#63b8ff" stroke="#63b8ff" points="104.44,-30.71 108.11,-20.78 99.04,-26.26 104.44,-30.71"/>
</a>
</g>
</g>
</g>
</svg>
