<?xml version="1.0" encoding="UTF-8" standalone="no"?>
<!DOCTYPE svg PUBLIC "-//W3C//DTD SVG 1.1//EN"
 "http://www.w3.org/Graphics/SVG/1.1/DTD/svg11.dtd">
<!-- Generated by graphviz version 13.1.0 (20250701.0955)
 -->
<!-- Title: src/TempModbusServer.cpp Pages: 1 -->
<svg width="1274pt" height="359pt"
 viewBox="0.00 0.00 1274.00 359.00" xmlns="http://www.w3.org/2000/svg" xmlns:xlink="http://www.w3.org/1999/xlink">
<g id="graph0" class="graph" transform="scale(1 1) rotate(0) translate(4 354.75)">
<title>src/TempModbusServer.cpp</title>
<!-- Node1 -->
<g id="Node000001" class="node">
<title>Node1</title>
<g id="a_Node000001"><a xlink:title="Implementation of Modbus RTU server for temperature monitoring.">
<polygon fill="#999999" stroke="#666666" points="475.88,-350.75 338.38,-350.75 338.38,-331.5 475.88,-331.5 475.88,-350.75"/>
<text xml:space="preserve" text-anchor="middle" x="407.12" y="-337.25" font-family="Helvetica,sans-Serif" font-size="10.00">src/TempModbusServer.cpp</text>
</a>
</g>
</g>
<!-- Node2 -->
<g id="Node000002" class="node">
<title>Node2</title>
<g id="a_Node000002"><a xlink:href="_temp_modbus_server_8h.html" target="_top" xlink:title="Modbus RTU server for temperature monitoring system.">
<polygon fill="white" stroke="#666666" points="371.38,-295.5 260.88,-295.5 260.88,-276.25 371.38,-276.25 371.38,-295.5"/>
<text xml:space="preserve" text-anchor="middle" x="316.12" y="-282" font-family="Helvetica,sans-Serif" font-size="10.00">TempModbusServer.h</text>
</a>
</g>
</g>
<!-- Node1&#45;&gt;Node2 -->
<g id="edge1_Node000001_Node000002" class="edge">
<title>Node1&#45;&gt;Node2</title>
<g id="a_edge1_Node000001_Node000002"><a xlink:title=" ">
<path fill="none" stroke="#63b8ff" d="M391.69,-331.09C377.96,-323.06 357.63,-311.16 341.51,-301.73"/>
<polygon fill="#63b8ff" stroke="#63b8ff" points="343.34,-298.75 332.94,-296.72 339.81,-304.79 343.34,-298.75"/>
</a>
</g>
</g>
<!-- Node23 -->
<g id="Node000023" class="node">
<title>Node23</title>
<g id="a_Node000023"><a xlink:href="_temperature_controller_8h.html" target="_top" xlink:title="Central temperature monitoring and control system.">
<polygon fill="white" stroke="#666666" points="585.88,-295.5 466.38,-295.5 466.38,-276.25 585.88,-276.25 585.88,-295.5"/>
<text xml:space="preserve" text-anchor="middle" x="526.12" y="-282" font-family="Helvetica,sans-Serif" font-size="10.00">TemperatureController.h</text>
</a>
</g>
</g>
<!-- Node1&#45;&gt;Node23 -->
<g id="edge27_Node000001_Node000023" class="edge">
<title>Node1&#45;&gt;Node23</title>
<g id="a_edge27_Node000001_Node000023"><a xlink:title=" ">
<path fill="none" stroke="#63b8ff" d="M427.31,-331.09C446.03,-322.72 474.15,-310.13 495.61,-300.53"/>
<polygon fill="#63b8ff" stroke="#63b8ff" points="496.76,-303.85 504.46,-296.57 493.9,-297.46 496.76,-303.85"/>
</a>
</g>
</g>
<!-- Node3 -->
<g id="Node000003" class="node">
<title>Node3</title>
<g id="a_Node000003"><a xlink:title=" ">
<polygon fill="#e0e0e0" stroke="#999999" points="631.75,-19.25 574.5,-19.25 574.5,0 631.75,0 631.75,-19.25"/>
<text xml:space="preserve" text-anchor="middle" x="603.12" y="-5.75" font-family="Helvetica,sans-Serif" font-size="10.00">Arduino.h</text>
</a>
</g>
</g>
<!-- Node2&#45;&gt;Node3 -->
<g id="edge2_Node000002_Node000003" class="edge">
<title>Node2&#45;&gt;Node3</title>
<g id="a_edge2_Node000002_Node000003"><a xlink:title=" ">
<path fill="none" stroke="#63b8ff" d="M261.63,-275.76C208.65,-263.4 136.12,-235.67 136.12,-176.38 136.12,-176.38 136.12,-176.38 136.12,-119.12 136.12,-89.51 132.29,-74.11 155.12,-55.25 186.24,-29.54 458.76,-16.27 562.9,-12.1"/>
<polygon fill="#63b8ff" stroke="#63b8ff" points="562.8,-15.61 572.66,-11.72 562.53,-8.61 562.8,-15.61"/>
</a>
</g>
</g>
<!-- Node4 -->
<g id="Node000004" class="node">
<title>Node4</title>
<g id="a_Node000004"><a xlink:title=" ">
<polygon fill="#e0e0e0" stroke="#999999" points="108.25,-240.25 0,-240.25 0,-221 108.25,-221 108.25,-240.25"/>
<text xml:space="preserve" text-anchor="middle" x="54.12" y="-226.75" font-family="Helvetica,sans-Serif" font-size="10.00">ModbusServerRTU.h</text>
</a>
</g>
</g>
<!-- Node2&#45;&gt;Node4 -->
<g id="edge3_Node000002_Node000004" class="edge">
<title>Node2&#45;&gt;Node4</title>
<g id="a_edge3_Node000002_Node000004"><a xlink:title=" ">
<path fill="none" stroke="#63b8ff" d="M271.38,-275.78C226.73,-266.71 158.01,-252.74 109.85,-242.95"/>
<polygon fill="#63b8ff" stroke="#63b8ff" points="110.66,-239.54 100.17,-240.98 109.27,-246.4 110.66,-239.54"/>
</a>
</g>
</g>
<!-- Node5 -->
<g id="Node000005" class="node">
<title>Node5</title>
<g id="a_Node000005"><a xlink:href="_register_map_8h.html" target="_top" xlink:title="Modbus register mapping for temperature monitoring system.">
<polygon fill="white" stroke="#666666" points="356,-240.25 276.25,-240.25 276.25,-221 356,-221 356,-240.25"/>
<text xml:space="preserve" text-anchor="middle" x="316.12" y="-226.75" font-family="Helvetica,sans-Serif" font-size="10.00">RegisterMap.h</text>
</a>
</g>
</g>
<!-- Node2&#45;&gt;Node5 -->
<g id="edge4_Node000002_Node000005" class="edge">
<title>Node2&#45;&gt;Node5</title>
<g id="a_edge4_Node000002_Node000005"><a xlink:title=" ">
<path fill="none" stroke="#63b8ff" d="M316.12,-276.08C316.12,-269.57 316.12,-260.42 316.12,-252.12"/>
<polygon fill="#63b8ff" stroke="#63b8ff" points="319.63,-252.12 316.13,-242.12 312.63,-252.12 319.63,-252.12"/>
</a>
</g>
</g>
<!-- Node12 -->
<g id="Node000012" class="node">
<title>Node12</title>
<g id="a_Node000012"><a xlink:href="_logger_manager_8h.html" target="_top" xlink:title="Comprehensive data and event logging system for temperature monitoring.">
<polygon fill="white" stroke="#666666" points="743.25,-129.75 653,-129.75 653,-110.5 743.25,-110.5 743.25,-129.75"/>
<text xml:space="preserve" text-anchor="middle" x="698.12" y="-116.25" font-family="Helvetica,sans-Serif" font-size="10.00">LoggerManager.h</text>
</a>
</g>
</g>
<!-- Node2&#45;&gt;Node12 -->
<g id="edge26_Node000002_Node000012" class="edge">
<title>Node2&#45;&gt;Node12</title>
<g id="a_edge26_Node000002_Node000012"><a xlink:title=" ">
<path fill="none" stroke="#63b8ff" d="M340.38,-275.76C385.17,-258.79 483.7,-220.84 565.12,-185 601.8,-168.86 643.32,-148.59 670.07,-135.27"/>
<polygon fill="#63b8ff" stroke="#63b8ff" points="671.5,-138.47 678.88,-130.86 668.37,-132.21 671.5,-138.47"/>
</a>
</g>
</g>
<!-- Node6 -->
<g id="Node000006" class="node">
<title>Node6</title>
<g id="a_Node000006"><a xlink:title=" ">
<polygon fill="#e0e0e0" stroke="#999999" points="340.25,-185 292,-185 292,-165.75 340.25,-165.75 340.25,-185"/>
<text xml:space="preserve" text-anchor="middle" x="316.12" y="-171.5" font-family="Helvetica,sans-Serif" font-size="10.00">stdint.h</text>
</a>
</g>
</g>
<!-- Node5&#45;&gt;Node6 -->
<g id="edge5_Node000005_Node000006" class="edge">
<title>Node5&#45;&gt;Node6</title>
<g id="a_edge5_Node000005_Node000006"><a xlink:title=" ">
<path fill="none" stroke="#63b8ff" d="M316.12,-220.83C316.12,-214.32 316.12,-205.17 316.12,-196.87"/>
<polygon fill="#63b8ff" stroke="#63b8ff" points="319.63,-196.87 316.13,-186.87 312.63,-196.87 319.63,-196.87"/>
</a>
</g>
</g>
<!-- Node7 -->
<g id="Node000007" class="node">
<title>Node7</title>
<g id="a_Node000007"><a xlink:href="_measurement_point_8h.html" target="_top" xlink:title="Measurement point abstraction for temperature monitoring system.">
<polygon fill="white" stroke="#666666" points="556.12,-185 450.12,-185 450.12,-165.75 556.12,-165.75 556.12,-185"/>
<text xml:space="preserve" text-anchor="middle" x="503.12" y="-171.5" font-family="Helvetica,sans-Serif" font-size="10.00">MeasurementPoint.h</text>
</a>
</g>
</g>
<!-- Node5&#45;&gt;Node7 -->
<g id="edge6_Node000005_Node000007" class="edge">
<title>Node5&#45;&gt;Node7</title>
<g id="a_edge6_Node000005_Node000007"><a xlink:title=" ">
<path fill="none" stroke="#63b8ff" d="M347.85,-220.59C378.88,-211.76 426.33,-198.24 460.62,-188.48"/>
<polygon fill="#63b8ff" stroke="#63b8ff" points="461.13,-191.97 469.79,-185.87 459.22,-185.24 461.13,-191.97"/>
</a>
</g>
</g>
<!-- Node7&#45;&gt;Node3 -->
<g id="edge7_Node000007_Node000003" class="edge">
<title>Node7&#45;&gt;Node3</title>
<g id="a_edge7_Node000007_Node000003"><a xlink:title=" ">
<path fill="none" stroke="#63b8ff" d="M507.64,-165.49C517.95,-145.39 544.33,-95.09 570.12,-55.25 575.94,-46.26 582.93,-36.67 588.97,-28.7"/>
<polygon fill="#63b8ff" stroke="#63b8ff" points="591.7,-30.88 595.03,-20.82 586.16,-26.6 591.7,-30.88"/>
</a>
</g>
</g>
<!-- Node8 -->
<g id="Node000008" class="node">
<title>Node8</title>
<g id="a_Node000008"><a xlink:href="_sensor_8h.html" target="_top" xlink:title="Temperature sensor abstraction layer.">
<polygon fill="white" stroke="#666666" points="394.25,-129.75 340,-129.75 340,-110.5 394.25,-110.5 394.25,-129.75"/>
<text xml:space="preserve" text-anchor="middle" x="367.12" y="-116.25" font-family="Helvetica,sans-Serif" font-size="10.00">Sensor.h</text>
</a>
</g>
</g>
<!-- Node7&#45;&gt;Node8 -->
<g id="edge8_Node000007_Node000008" class="edge">
<title>Node7&#45;&gt;Node8</title>
<g id="a_edge8_Node000007_Node000008"><a xlink:title=" ">
<path fill="none" stroke="#63b8ff" d="M480.05,-165.34C458.37,-156.85 425.64,-144.04 401,-134.39"/>
<polygon fill="#63b8ff" stroke="#63b8ff" points="402.31,-131.14 391.72,-130.75 399.75,-137.66 402.31,-131.14"/>
</a>
</g>
</g>
<!-- Node7&#45;&gt;Node12 -->
<g id="edge13_Node000007_Node000012" class="edge">
<title>Node7&#45;&gt;Node12</title>
<g id="a_edge13_Node000007_Node000012"><a xlink:title=" ">
<path fill="none" stroke="#63b8ff" d="M536.2,-165.34C568.56,-156.51 618.05,-142.99 653.8,-133.23"/>
<polygon fill="#63b8ff" stroke="#63b8ff" points="654.7,-136.61 663.42,-130.6 652.85,-129.86 654.7,-136.61"/>
</a>
</g>
</g>
<!-- Node8&#45;&gt;Node3 -->
<g id="edge9_Node000008_Node000003" class="edge">
<title>Node8&#45;&gt;Node3</title>
<g id="a_edge9_Node000008_Node000003"><a xlink:title=" ">
<path fill="none" stroke="#63b8ff" d="M351.15,-110.04C331.02,-97.47 300.91,-74.19 317.12,-55.25 348.31,-18.82 491.99,-11.9 563.07,-10.75"/>
<polygon fill="#63b8ff" stroke="#63b8ff" points="562.77,-14.25 572.72,-10.62 562.68,-7.25 562.77,-14.25"/>
</a>
</g>
</g>
<!-- Node9 -->
<g id="Node000009" class="node">
<title>Node9</title>
<g id="a_Node000009"><a xlink:title=" ">
<polygon fill="#e0e0e0" stroke="#999999" points="518.38,-74.5 455.88,-74.5 455.88,-55.25 518.38,-55.25 518.38,-74.5"/>
<text xml:space="preserve" text-anchor="middle" x="487.12" y="-61" font-family="Helvetica,sans-Serif" font-size="10.00">OneWire.h</text>
</a>
</g>
</g>
<!-- Node8&#45;&gt;Node9 -->
<g id="edge10_Node000008_Node000009" class="edge">
<title>Node8&#45;&gt;Node9</title>
<g id="a_edge10_Node000008_Node000009"><a xlink:title=" ">
<path fill="none" stroke="#63b8ff" d="M387.48,-110.09C406.36,-101.72 434.71,-89.13 456.35,-79.53"/>
<polygon fill="#63b8ff" stroke="#63b8ff" points="457.56,-82.82 465.29,-75.57 454.73,-76.42 457.56,-82.82"/>
</a>
</g>
</g>
<!-- Node10 -->
<g id="Node000010" class="node">
<title>Node10</title>
<g id="a_Node000010"><a xlink:title=" ">
<polygon fill="#e0e0e0" stroke="#999999" points="270.12,-74.5 164.12,-74.5 164.12,-55.25 270.12,-55.25 270.12,-74.5"/>
<text xml:space="preserve" text-anchor="middle" x="217.12" y="-61" font-family="Helvetica,sans-Serif" font-size="10.00">DallasTemperature.h</text>
</a>
</g>
</g>
<!-- Node8&#45;&gt;Node10 -->
<g id="edge11_Node000008_Node000010" class="edge">
<title>Node8&#45;&gt;Node10</title>
<g id="a_edge11_Node000008_Node000010"><a xlink:title=" ">
<path fill="none" stroke="#63b8ff" d="M341.68,-110.09C317.44,-101.49 280.69,-88.44 253.39,-78.75"/>
<polygon fill="#63b8ff" stroke="#63b8ff" points="254.72,-75.51 244.12,-75.46 252.37,-82.1 254.72,-75.51"/>
</a>
</g>
</g>
<!-- Node11 -->
<g id="Node000011" class="node">
<title>Node11</title>
<g id="a_Node000011"><a xlink:title=" ">
<polygon fill="#e0e0e0" stroke="#999999" points="437.75,-74.5 326.5,-74.5 326.5,-55.25 437.75,-55.25 437.75,-74.5"/>
<text xml:space="preserve" text-anchor="middle" x="382.12" y="-61" font-family="Helvetica,sans-Serif" font-size="10.00">Adafruit_MAX31865.h</text>
</a>
</g>
</g>
<!-- Node8&#45;&gt;Node11 -->
<g id="edge12_Node000008_Node000011" class="edge">
<title>Node8&#45;&gt;Node11</title>
<g id="a_edge12_Node000008_Node000011"><a xlink:title=" ">
<path fill="none" stroke="#63b8ff" d="M369.6,-110.33C371.48,-103.67 374.13,-94.24 376.52,-85.78"/>
<polygon fill="#63b8ff" stroke="#63b8ff" points="379.84,-86.89 379.18,-76.32 373.1,-84.99 379.84,-86.89"/>
</a>
</g>
</g>
<!-- Node12&#45;&gt;Node3 -->
<g id="edge14_Node000012_Node000003" class="edge">
<title>Node12&#45;&gt;Node3</title>
<g id="a_edge14_Node000012_Node000003"><a xlink:title=" ">
<path fill="none" stroke="#63b8ff" d="M690.35,-110.25C674.69,-92.36 639.11,-51.72 618.55,-28.25"/>
<polygon fill="#63b8ff" stroke="#63b8ff" points="621.22,-25.98 612,-20.77 615.96,-30.59 621.22,-25.98"/>
</a>
</g>
</g>
<!-- Node13 -->
<g id="Node000013" class="node">
<title>Node13</title>
<g id="a_Node000013"><a xlink:title=" ">
<polygon fill="#e0e0e0" stroke="#999999" points="725.62,-74.5 688.62,-74.5 688.62,-55.25 725.62,-55.25 725.62,-74.5"/>
<text xml:space="preserve" text-anchor="middle" x="707.12" y="-61" font-family="Helvetica,sans-Serif" font-size="10.00">FS.h</text>
</a>
</g>
</g>
<!-- Node12&#45;&gt;Node13 -->
<g id="edge15_Node000012_Node000013" class="edge">
<title>Node12&#45;&gt;Node13</title>
<g id="a_edge15_Node000012_Node000013"><a xlink:title=" ">
<path fill="none" stroke="#63b8ff" d="M699.61,-110.33C700.72,-103.74 702.29,-94.46 703.71,-86.07"/>
<polygon fill="#63b8ff" stroke="#63b8ff" points="707.14,-86.8 705.35,-76.35 700.24,-85.63 707.14,-86.8"/>
</a>
</g>
</g>
<!-- Node14 -->
<g id="Node000014" class="node">
<title>Node14</title>
<g id="a_Node000014"><a xlink:title=" ">
<polygon fill="#e0e0e0" stroke="#999999" points="782.38,-74.5 743.88,-74.5 743.88,-55.25 782.38,-55.25 782.38,-74.5"/>
<text xml:space="preserve" text-anchor="middle" x="763.12" y="-61" font-family="Helvetica,sans-Serif" font-size="10.00">SD.h</text>
</a>
</g>
</g>
<!-- Node12&#45;&gt;Node14 -->
<g id="edge16_Node000012_Node000014" class="edge">
<title>Node12&#45;&gt;Node14</title>
<g id="a_edge16_Node000012_Node000014"><a xlink:title=" ">
<path fill="none" stroke="#63b8ff" d="M709.15,-110.09C718.55,-102.4 732.27,-91.15 743.53,-81.93"/>
<polygon fill="#63b8ff" stroke="#63b8ff" points="745.57,-84.78 751.09,-75.73 741.14,-79.36 745.57,-84.78"/>
</a>
</g>
</g>
<!-- Node15 -->
<g id="Node000015" class="node">
<title>Node15</title>
<g id="a_Node000015"><a xlink:href="_time_manager_8h.html" target="_top" xlink:title="Real&#45;time clock and time synchronization management.">
<polygon fill="white" stroke="#666666" points="1009.5,-74.5 926.75,-74.5 926.75,-55.25 1009.5,-55.25 1009.5,-74.5"/>
<text xml:space="preserve" text-anchor="middle" x="968.12" y="-61" font-family="Helvetica,sans-Serif" font-size="10.00">TimeManager.h</text>
</a>
</g>
</g>
<!-- Node12&#45;&gt;Node15 -->
<g id="edge17_Node000012_Node000015" class="edge">
<title>Node12&#45;&gt;Node15</title>
<g id="a_edge17_Node000012_Node000015"><a xlink:title=" ">
<path fill="none" stroke="#63b8ff" d="M743.62,-110.15C791.03,-100.8 865.23,-86.17 915.22,-76.31"/>
<polygon fill="#63b8ff" stroke="#63b8ff" points="915.82,-79.76 924.95,-74.39 914.47,-72.89 915.82,-79.76"/>
</a>
</g>
</g>
<!-- Node22 -->
<g id="Node000022" class="node">
<title>Node22</title>
<g id="a_Node000022"><a xlink:title=" ">
<polygon fill="#e0e0e0" stroke="#999999" points="843.62,-74.5 800.62,-74.5 800.62,-55.25 843.62,-55.25 843.62,-74.5"/>
<text xml:space="preserve" text-anchor="middle" x="822.12" y="-61" font-family="Helvetica,sans-Serif" font-size="10.00">vector</text>
</a>
</g>
</g>
<!-- Node12&#45;&gt;Node22 -->
<g id="edge25_Node000012_Node000022" class="edge">
<title>Node12&#45;&gt;Node22</title>
<g id="a_edge25_Node000012_Node000022"><a xlink:title=" ">
<path fill="none" stroke="#63b8ff" d="M719.16,-110.09C738.76,-101.68 768.23,-89.02 790.63,-79.4"/>
<polygon fill="#63b8ff" stroke="#63b8ff" points="791.79,-82.71 799.6,-75.55 789.03,-76.28 791.79,-82.71"/>
</a>
</g>
</g>
<!-- Node15&#45;&gt;Node3 -->
<g id="edge18_Node000015_Node000003" class="edge">
<title>Node15&#45;&gt;Node3</title>
<g id="a_edge18_Node000015_Node000003"><a xlink:title=" ">
<path fill="none" stroke="#63b8ff" d="M926.25,-57.77C855.45,-47.44 712.99,-26.65 643.33,-16.49"/>
<polygon fill="#63b8ff" stroke="#63b8ff" points="643.89,-13.04 633.49,-15.06 642.88,-19.96 643.89,-13.04"/>
</a>
</g>
</g>
<!-- Node16 -->
<g id="Node000016" class="node">
<title>Node16</title>
<g id="a_Node000016"><a xlink:title=" ">
<polygon fill="#e0e0e0" stroke="#999999" points="925.38,-19.25 880.88,-19.25 880.88,0 925.38,0 925.38,-19.25"/>
<text xml:space="preserve" text-anchor="middle" x="903.12" y="-5.75" font-family="Helvetica,sans-Serif" font-size="10.00">WiFi.h</text>
</a>
</g>
</g>
<!-- Node15&#45;&gt;Node16 -->
<g id="edge19_Node000015_Node000016" class="edge">
<title>Node15&#45;&gt;Node16</title>
<g id="a_edge19_Node000015_Node000016"><a xlink:title=" ">
<path fill="none" stroke="#63b8ff" d="M957.1,-54.84C947.7,-47.15 933.98,-35.9 922.72,-26.68"/>
<polygon fill="#63b8ff" stroke="#63b8ff" points="925.11,-24.11 915.16,-20.48 920.68,-29.53 925.11,-24.11"/>
</a>
</g>
</g>
<!-- Node17 -->
<g id="Node000017" class="node">
<title>Node17</title>
<g id="a_Node000017"><a xlink:title=" ">
<polygon fill="#e0e0e0" stroke="#999999" points="1163.38,-19.25 1118.88,-19.25 1118.88,0 1163.38,0 1163.38,-19.25"/>
<text xml:space="preserve" text-anchor="middle" x="1141.12" y="-5.75" font-family="Helvetica,sans-Serif" font-size="10.00">Wire.h</text>
</a>
</g>
</g>
<!-- Node15&#45;&gt;Node17 -->
<g id="edge20_Node000015_Node000017" class="edge">
<title>Node15&#45;&gt;Node17</title>
<g id="a_edge20_Node000015_Node000017"><a xlink:title=" ">
<path fill="none" stroke="#63b8ff" d="M997.47,-54.84C1028.09,-45.42 1075.99,-30.68 1107.95,-20.84"/>
<polygon fill="#63b8ff" stroke="#63b8ff" points="1108.57,-24.31 1117.09,-18.02 1106.51,-17.62 1108.57,-24.31"/>
</a>
</g>
</g>
<!-- Node18 -->
<g id="Node000018" class="node">
<title>Node18</title>
<g id="a_Node000018"><a xlink:title=" ">
<polygon fill="#e0e0e0" stroke="#999999" points="998.62,-19.25 943.62,-19.25 943.62,0 998.62,0 998.62,-19.25"/>
<text xml:space="preserve" text-anchor="middle" x="971.12" y="-5.75" font-family="Helvetica,sans-Serif" font-size="10.00">RTClib.h</text>
</a>
</g>
</g>
<!-- Node15&#45;&gt;Node18 -->
<g id="edge21_Node000015_Node000018" class="edge">
<title>Node15&#45;&gt;Node18</title>
<g id="a_edge21_Node000015_Node000018"><a xlink:title=" ">
<path fill="none" stroke="#63b8ff" d="M968.62,-55.08C968.99,-48.49 969.51,-39.21 969.99,-30.82"/>
<polygon fill="#63b8ff" stroke="#63b8ff" points="973.47,-31.3 970.53,-21.12 966.48,-30.91 973.47,-31.3"/>
</a>
</g>
</g>
<!-- Node19 -->
<g id="Node000019" class="node">
<title>Node19</title>
<g id="a_Node000019"><a xlink:title=" ">
<polygon fill="#e0e0e0" stroke="#999999" points="1087.12,-19.25 1017.12,-19.25 1017.12,0 1087.12,0 1087.12,-19.25"/>
<text xml:space="preserve" text-anchor="middle" x="1052.12" y="-5.75" font-family="Helvetica,sans-Serif" font-size="10.00">NTPClient.h</text>
</a>
</g>
</g>
<!-- Node15&#45;&gt;Node19 -->
<g id="edge22_Node000015_Node000019" class="edge">
<title>Node15&#45;&gt;Node19</title>
<g id="a_edge22_Node000015_Node000019"><a xlink:title=" ">
<path fill="none" stroke="#63b8ff" d="M982.37,-54.84C994.92,-46.89 1013.46,-35.14 1028.27,-25.75"/>
<polygon fill="#63b8ff" stroke="#63b8ff" points="1029.96,-28.82 1036.53,-20.51 1026.21,-22.91 1029.96,-28.82"/>
</a>
</g>
</g>
<!-- Node20 -->
<g id="Node000020" class="node">
<title>Node20</title>
<g id="a_Node000020"><a xlink:title=" ">
<polygon fill="#e0e0e0" stroke="#999999" points="862.38,-19.25 799.88,-19.25 799.88,0 862.38,0 862.38,-19.25"/>
<text xml:space="preserve" text-anchor="middle" x="831.12" y="-5.75" font-family="Helvetica,sans-Serif" font-size="10.00">WiFiUdp.h</text>
</a>
</g>
</g>
<!-- Node15&#45;&gt;Node20 -->
<g id="edge23_Node000015_Node000020" class="edge">
<title>Node15&#45;&gt;Node20</title>
<g id="a_edge23_Node000015_Node000020"><a xlink:title=" ">
<path fill="none" stroke="#63b8ff" d="M944.88,-54.84C922.94,-46.31 889.78,-33.42 864.91,-23.76"/>
<polygon fill="#63b8ff" stroke="#63b8ff" points="866.48,-20.61 855.89,-20.25 863.94,-27.14 866.48,-20.61"/>
</a>
</g>
</g>
<!-- Node21 -->
<g id="Node000021" class="node">
<title>Node21</title>
<g id="a_Node000021"><a xlink:title=" ">
<polygon fill="#e0e0e0" stroke="#999999" points="1266.25,-19.25 1188,-19.25 1188,0 1266.25,0 1266.25,-19.25"/>
<text xml:space="preserve" text-anchor="middle" x="1227.12" y="-5.75" font-family="Helvetica,sans-Serif" font-size="10.00">ArduinoJson.h</text>
</a>
</g>
</g>
<!-- Node15&#45;&gt;Node21 -->
<g id="edge24_Node000015_Node000021" class="edge">
<title>Node15&#45;&gt;Node21</title>
<g id="a_edge24_Node000015_Node000021"><a xlink:title=" ">
<path fill="none" stroke="#63b8ff" d="M1009.74,-55.32C1055.14,-45.98 1127.85,-31.04 1176.52,-21.03"/>
<polygon fill="#63b8ff" stroke="#63b8ff" points="1177.17,-24.47 1186.26,-19.03 1175.76,-17.61 1177.17,-24.47"/>
</a>
</g>
</g>
<!-- Node23&#45;&gt;Node3 -->
<g id="edge28_Node000023_Node000003" class="edge">
<title>Node23&#45;&gt;Node3</title>
<g id="a_edge28_Node000023_Node000003"><a xlink:title=" ">
<path fill="none" stroke="#63b8ff" d="M548.62,-275.83C563.46,-268.58 581.83,-256.85 591.12,-240.25 611.01,-204.76 606.84,-80.26 604.31,-30.95"/>
<polygon fill="#63b8ff" stroke="#63b8ff" points="607.82,-30.96 603.78,-21.17 600.83,-31.34 607.82,-30.96"/>
</a>
</g>
</g>
<!-- Node23&#45;&gt;Node5 -->
<g id="edge32_Node000023_Node000005" class="edge">
<title>Node23&#45;&gt;Node5</title>
<g id="a_edge32_Node000023_Node000005"><a xlink:title=" ">
<path fill="none" stroke="#63b8ff" d="M490.5,-275.84C455.35,-266.93 401.44,-253.26 362.86,-243.48"/>
<polygon fill="#63b8ff" stroke="#63b8ff" points="363.94,-240.14 353.39,-241.07 362.22,-246.93 363.94,-240.14"/>
</a>
</g>
</g>
<!-- Node23&#45;&gt;Node7 -->
<g id="edge31_Node000023_Node000007" class="edge">
<title>Node23&#45;&gt;Node7</title>
<g id="a_edge31_Node000023_Node000007"><a xlink:title=" ">
<path fill="none" stroke="#63b8ff" d="M524.24,-276C520.59,-258.75 512.44,-220.33 507.4,-196.56"/>
<polygon fill="#63b8ff" stroke="#63b8ff" points="510.84,-195.91 505.35,-186.86 504,-197.37 510.84,-195.91"/>
</a>
</g>
</g>
<!-- Node23&#45;&gt;Node8 -->
<g id="edge30_Node000023_Node000008" class="edge">
<title>Node23&#45;&gt;Node8</title>
<g id="a_edge30_Node000023_Node000008"><a xlink:title=" ">
<path fill="none" stroke="#63b8ff" d="M474.73,-275.79C451.7,-269.36 425.82,-258.48 408.12,-240.25 381.55,-212.87 372.16,-167.48 368.87,-141.35"/>
<polygon fill="#63b8ff" stroke="#63b8ff" points="372.38,-141.31 367.85,-131.74 365.42,-142.05 372.38,-141.31"/>
</a>
</g>
</g>
<!-- Node23&#45;&gt;Node9 -->
<g id="edge47_Node000023_Node000009" class="edge">
<title>Node23&#45;&gt;Node9</title>
<g id="a_edge47_Node000023_Node000009"><a xlink:title=" ">
<path fill="none" stroke="#63b8ff" d="M514.45,-275.98C494.82,-260.2 455.91,-225.17 441.12,-185 427.8,-148.77 453.88,-106.71 471.93,-83.52"/>
<polygon fill="#63b8ff" stroke="#63b8ff" points="474.47,-85.94 478.08,-75.98 469.05,-81.52 474.47,-85.94"/>
</a>
</g>
</g>
<!-- Node23&#45;&gt;Node10 -->
<g id="edge48_Node000023_Node000010" class="edge">
<title>Node23&#45;&gt;Node10</title>
<g id="a_edge48_Node000023_Node000010"><a xlink:title=" ">
<path fill="none" stroke="#63b8ff" d="M466.07,-281.79C398.89,-277.13 295.74,-265.92 267.12,-240.25 222.24,-200 216.53,-122.44 216.5,-85.88"/>
<polygon fill="#63b8ff" stroke="#63b8ff" points="219.99,-86.35 216.65,-76.3 212.99,-86.24 219.99,-86.35"/>
</a>
</g>
</g>
<!-- Node23&#45;&gt;Node21 -->
<g id="edge49_Node000023_Node000021" class="edge">
<title>Node23&#45;&gt;Node21</title>
<g id="a_edge49_Node000023_Node000021"><a xlink:title=" ">
<path fill="none" stroke="#63b8ff" d="M586.23,-281.92C756.72,-272.75 1231.12,-241.39 1231.12,-176.38 1231.12,-176.38 1231.12,-176.38 1231.12,-119.12 1231.12,-88.39 1229.5,-52.78 1228.32,-30.98"/>
<polygon fill="#63b8ff" stroke="#63b8ff" points="1231.83,-30.92 1227.77,-21.13 1224.84,-31.32 1231.83,-30.92"/>
</a>
</g>
</g>
<!-- Node23&#45;&gt;Node22 -->
<g id="edge29_Node000023_Node000022" class="edge">
<title>Node23&#45;&gt;Node22</title>
<g id="a_edge29_Node000023_Node000022"><a xlink:title=" ">
<path fill="none" stroke="#63b8ff" d="M586.22,-278.9C620.91,-273.18 664.07,-262.02 697.12,-240.25 757.2,-200.69 797.77,-121.6 814.07,-85.12"/>
<polygon fill="#63b8ff" stroke="#63b8ff" points="817.15,-86.83 817.91,-76.26 810.72,-84.05 817.15,-86.83"/>
</a>
</g>
</g>
<!-- Node24 -->
<g id="Node000024" class="node">
<title>Node24</title>
<g id="a_Node000024"><a xlink:href="_indicator_interface_8h.html" target="_top" xlink:title="Hardware interface for PCF8575 I/O expander and SH1106 OLED display.">
<polygon fill="white" stroke="#666666" points="997.12,-185 897.12,-185 897.12,-165.75 997.12,-165.75 997.12,-185"/>
<text xml:space="preserve" text-anchor="middle" x="947.12" y="-171.5" font-family="Helvetica,sans-Serif" font-size="10.00">IndicatorInterface.h</text>
</a>
</g>
</g>
<!-- Node23&#45;&gt;Node24 -->
<g id="edge33_Node000023_Node000024" class="edge">
<title>Node23&#45;&gt;Node24</title>
<g id="a_edge33_Node000023_Node000024"><a xlink:title=" ">
<path fill="none" stroke="#63b8ff" d="M586.32,-281.59C647.27,-276.95 743.61,-265.93 823.12,-240.25 860.06,-228.32 899.35,-206.29 923.57,-191.48"/>
<polygon fill="#63b8ff" stroke="#63b8ff" points="925.35,-194.5 931.99,-186.24 921.65,-188.56 925.35,-194.5"/>
</a>
</g>
</g>
<!-- Node29 -->
<g id="Node000029" class="node">
<title>Node29</title>
<g id="a_Node000029"><a xlink:href="_alarm_8h.html" target="_top" xlink:title="Alarm management system for temperature monitoring.">
<polygon fill="white" stroke="#666666" points="688,-240.25 638.25,-240.25 638.25,-221 688,-221 688,-240.25"/>
<text xml:space="preserve" text-anchor="middle" x="663.12" y="-226.75" font-family="Helvetica,sans-Serif" font-size="10.00">Alarm.h</text>
</a>
</g>
</g>
<!-- Node23&#45;&gt;Node29 -->
<g id="edge42_Node000023_Node000029" class="edge">
<title>Node23&#45;&gt;Node29</title>
<g id="a_edge42_Node000023_Node000029"><a xlink:title=" ">
<path fill="none" stroke="#63b8ff" d="M549.37,-275.84C571.31,-267.31 604.47,-254.42 629.34,-244.76"/>
<polygon fill="#63b8ff" stroke="#63b8ff" points="630.31,-248.14 638.36,-241.25 627.77,-241.61 630.31,-248.14"/>
</a>
</g>
</g>
<!-- Node30 -->
<g id="Node000030" class="node">
<title>Node30</title>
<g id="a_Node000030"><a xlink:title=" ">
<polygon fill="#e0e0e0" stroke="#999999" points="582,-240.25 526.25,-240.25 526.25,-221 582,-221 582,-240.25"/>
<text xml:space="preserve" text-anchor="middle" x="554.12" y="-226.75" font-family="Helvetica,sans-Serif" font-size="10.00">algorithm</text>
</a>
</g>
</g>
<!-- Node23&#45;&gt;Node30 -->
<g id="edge50_Node000023_Node000030" class="edge">
<title>Node23&#45;&gt;Node30</title>
<g id="a_edge50_Node000023_Node000030"><a xlink:title=" ">
<path fill="none" stroke="#63b8ff" d="M530.75,-276.08C534.37,-269.19 539.55,-259.34 544.12,-250.66"/>
<polygon fill="#63b8ff" stroke="#63b8ff" points="547.14,-252.43 548.7,-241.95 540.94,-249.17 547.14,-252.43"/>
</a>
</g>
</g>
<!-- Node24&#45;&gt;Node3 -->
<g id="edge34_Node000024_Node000003" class="edge">
<title>Node24&#45;&gt;Node3</title>
<g id="a_edge34_Node000024_Node000003"><a xlink:title=" ">
<path fill="none" stroke="#63b8ff" d="M917.59,-165.41C899.91,-158.5 878.53,-147.13 866.12,-129.75 846.6,-102.39 876.85,-79.06 853.12,-55.25 824.33,-26.35 706.51,-15.91 643.43,-12.35"/>
<polygon fill="#63b8ff" stroke="#63b8ff" points="643.64,-8.85 633.47,-11.82 643.27,-15.84 643.64,-8.85"/>
</a>
</g>
</g>
<!-- Node24&#45;&gt;Node12 -->
<g id="edge41_Node000024_Node000012" class="edge">
<title>Node24&#45;&gt;Node12</title>
<g id="a_edge41_Node000024_Node000012"><a xlink:title=" ">
<path fill="none" stroke="#63b8ff" d="M904.6,-165.28C862.35,-156.24 797.41,-142.36 751.66,-132.57"/>
<polygon fill="#63b8ff" stroke="#63b8ff" points="752.46,-129.17 741.95,-130.5 751,-136.01 752.46,-129.17"/>
</a>
</g>
</g>
<!-- Node24&#45;&gt;Node17 -->
<g id="edge35_Node000024_Node000017" class="edge">
<title>Node24&#45;&gt;Node17</title>
<g id="a_edge35_Node000024_Node000017"><a xlink:title=" ">
<path fill="none" stroke="#63b8ff" d="M997.58,-171.71C1057.53,-167.37 1152.21,-156.39 1174.12,-129.75 1198.45,-100.18 1172.84,-53.96 1155.08,-28.67"/>
<polygon fill="#63b8ff" stroke="#63b8ff" points="1157.98,-26.7 1149.24,-20.72 1152.34,-30.85 1157.98,-26.7"/>
</a>
</g>
</g>
<!-- Node24&#45;&gt;Node22 -->
<g id="edge40_Node000024_Node000022" class="edge">
<title>Node24&#45;&gt;Node22</title>
<g id="a_edge40_Node000024_Node000022"><a xlink:title=" ">
<path fill="none" stroke="#63b8ff" d="M994.89,-165.32C1035.1,-155.58 1082.72,-137.73 1060.12,-110.5 1047.1,-94.81 917.14,-77.27 854.95,-69.7"/>
<polygon fill="#63b8ff" stroke="#63b8ff" points="855.67,-66.26 845.33,-68.54 854.84,-73.21 855.67,-66.26"/>
</a>
</g>
</g>
<!-- Node25 -->
<g id="Node000025" class="node">
<title>Node25</title>
<g id="a_Node000025"><a xlink:title=" ">
<polygon fill="#e0e0e0" stroke="#999999" points="909.5,-129.75 874.75,-129.75 874.75,-110.5 909.5,-110.5 909.5,-129.75"/>
<text xml:space="preserve" text-anchor="middle" x="892.12" y="-116.25" font-family="Helvetica,sans-Serif" font-size="10.00">map</text>
</a>
</g>
</g>
<!-- Node24&#45;&gt;Node25 -->
<g id="edge36_Node000024_Node000025" class="edge">
<title>Node24&#45;&gt;Node25</title>
<g id="a_edge36_Node000024_Node000025"><a xlink:title=" ">
<path fill="none" stroke="#63b8ff" d="M938.04,-165.58C930.29,-158.07 918.91,-147.06 909.43,-137.88"/>
<polygon fill="#63b8ff" stroke="#63b8ff" points="912.11,-135.6 902.49,-131.16 907.24,-140.63 912.11,-135.6"/>
</a>
</g>
</g>
<!-- Node26 -->
<g id="Node000026" class="node">
<title>Node26</title>
<g id="a_Node000026"><a xlink:title=" ">
<polygon fill="#e0e0e0" stroke="#999999" points="967.12,-129.75 927.12,-129.75 927.12,-110.5 967.12,-110.5 967.12,-129.75"/>
<text xml:space="preserve" text-anchor="middle" x="947.12" y="-116.25" font-family="Helvetica,sans-Serif" font-size="10.00">string</text>
</a>
</g>
</g>
<!-- Node24&#45;&gt;Node26 -->
<g id="edge37_Node000024_Node000026" class="edge">
<title>Node24&#45;&gt;Node26</title>
<g id="a_edge37_Node000024_Node000026"><a xlink:title=" ">
<path fill="none" stroke="#63b8ff" d="M947.12,-165.58C947.12,-159.07 947.12,-149.92 947.12,-141.62"/>
<polygon fill="#63b8ff" stroke="#63b8ff" points="950.63,-141.62 947.13,-131.62 943.63,-141.62 950.63,-141.62"/>
</a>
</g>
</g>
<!-- Node27 -->
<g id="Node000027" class="node">
<title>Node27</title>
<g id="a_Node000027"><a xlink:title=" ">
<polygon fill="#e0e0e0" stroke="#999999" points="1050.88,-129.75 985.38,-129.75 985.38,-110.5 1050.88,-110.5 1050.88,-129.75"/>
<text xml:space="preserve" text-anchor="middle" x="1018.12" y="-116.25" font-family="Helvetica,sans-Serif" font-size="10.00">PCF8575.h</text>
</a>
</g>
</g>
<!-- Node24&#45;&gt;Node27 -->
<g id="edge38_Node000024_Node000027" class="edge">
<title>Node24&#45;&gt;Node27</title>
<g id="a_edge38_Node000024_Node000027"><a xlink:title=" ">
<path fill="none" stroke="#63b8ff" d="M959.17,-165.34C969.53,-157.57 984.73,-146.17 997.09,-136.9"/>
<polygon fill="#63b8ff" stroke="#63b8ff" points="999.15,-139.73 1005.05,-130.93 994.95,-134.13 999.15,-139.73"/>
</a>
</g>
</g>
<!-- Node28 -->
<g id="Node000028" class="node">
<title>Node28</title>
<g id="a_Node000028"><a xlink:title=" ">
<polygon fill="#e0e0e0" stroke="#999999" points="1164.75,-129.75 1107.5,-129.75 1107.5,-110.5 1164.75,-110.5 1164.75,-129.75"/>
<text xml:space="preserve" text-anchor="middle" x="1136.12" y="-116.25" font-family="Helvetica,sans-Serif" font-size="10.00">U8g2lib.h</text>
</a>
</g>
</g>
<!-- Node24&#45;&gt;Node28 -->
<g id="edge39_Node000024_Node000028" class="edge">
<title>Node24&#45;&gt;Node28</title>
<g id="a_edge39_Node000024_Node000028"><a xlink:title=" ">
<path fill="none" stroke="#63b8ff" d="M979.19,-165.34C1011.5,-156.24 1061.44,-142.17 1096.28,-132.35"/>
<polygon fill="#63b8ff" stroke="#63b8ff" points="1096.88,-135.82 1105.56,-129.74 1094.98,-129.08 1096.88,-135.82"/>
</a>
</g>
</g>
<!-- Node29&#45;&gt;Node3 -->
<g id="edge43_Node000029_Node000003" class="edge">
<title>Node29&#45;&gt;Node3</title>
<g id="a_edge43_Node000029_Node000003"><a xlink:title=" ">
<path fill="none" stroke="#63b8ff" d="M660.7,-220.77C651.84,-188.44 621.11,-76.28 608.55,-30.41"/>
<polygon fill="#63b8ff" stroke="#63b8ff" points="611.93,-29.53 605.92,-20.81 605.18,-31.38 611.93,-29.53"/>
</a>
</g>
</g>
<!-- Node29&#45;&gt;Node7 -->
<g id="edge45_Node000029_Node000007" class="edge">
<title>Node29&#45;&gt;Node7</title>
<g id="a_edge45_Node000029_Node000007"><a xlink:title=" ">
<path fill="none" stroke="#63b8ff" d="M637.77,-221.19C611.83,-212.55 571.21,-199.03 541.36,-189.1"/>
<polygon fill="#63b8ff" stroke="#63b8ff" points="542.53,-185.8 531.94,-185.96 540.32,-192.44 542.53,-185.8"/>
</a>
</g>
</g>
<!-- Node29&#45;&gt;Node12 -->
<g id="edge46_Node000029_Node000012" class="edge">
<title>Node29&#45;&gt;Node12</title>
<g id="a_edge46_Node000029_Node000012"><a xlink:title=" ">
<path fill="none" stroke="#63b8ff" d="M665.99,-220.75C671.58,-203.42 684.06,-164.73 691.72,-140.99"/>
<polygon fill="#63b8ff" stroke="#63b8ff" points="695.02,-142.16 694.76,-131.57 688.36,-140.01 695.02,-142.16"/>
</a>
</g>
</g>
<!-- Node29&#45;&gt;Node22 -->
<g id="edge44_Node000029_Node000022" class="edge">
<title>Node29&#45;&gt;Node22</title>
<g id="a_edge44_Node000029_Node000022"><a xlink:title=" ">
<path fill="none" stroke="#63b8ff" d="M671.67,-220.82C697.02,-194.72 772.06,-117.44 805.6,-82.89"/>
<polygon fill="#63b8ff" stroke="#63b8ff" points="808.02,-85.42 812.48,-75.81 803,-80.54 808.02,-85.42"/>
</a>
</g>
</g>
</g>
</svg>
