<?xml version="1.0" encoding="UTF-8" standalone="no"?>
<!DOCTYPE svg PUBLIC "-//W3C//DTD SVG 1.1//EN"
 "http://www.w3.org/Graphics/SVG/1.1/DTD/svg11.dtd">
<!-- Generated by graphviz version 13.1.0 (20250701.0955)
 -->
<!-- Title: src/TemperatureController.cpp Pages: 1 -->
<svg width="1173pt" height="359pt"
 viewBox="0.00 0.00 1173.00 359.00" xmlns="http://www.w3.org/2000/svg" xmlns:xlink="http://www.w3.org/1999/xlink">
<g id="graph0" class="graph" transform="scale(1 1) rotate(0) translate(4 354.75)">
<title>src/TemperatureController.cpp</title>
<!-- Node1 -->
<g id="Node000001" class="node">
<title>Node1</title>
<g id="a_Node000001"><a xlink:title=" ">
<polygon fill="#999999" stroke="#666666" points="546.5,-350.75 400,-350.75 400,-331.5 546.5,-331.5 546.5,-350.75"/>
<text xml:space="preserve" text-anchor="middle" x="473.25" y="-337.25" font-family="Helvetica,sans-Serif" font-size="10.00">src/TemperatureController.cpp</text>
</a>
</g>
</g>
<!-- Node2 -->
<g id="Node000002" class="node">
<title>Node2</title>
<g id="a_Node000002"><a xlink:href="_temperature_controller_8h.html" target="_top" xlink:title=" ">
<polygon fill="white" stroke="#666666" points="533,-295.5 413.5,-295.5 413.5,-276.25 533,-276.25 533,-295.5"/>
<text xml:space="preserve" text-anchor="middle" x="473.25" y="-282" font-family="Helvetica,sans-Serif" font-size="10.00">TemperatureController.h</text>
</a>
</g>
</g>
<!-- Node1&#45;&gt;Node2 -->
<g id="edge1_Node000001_Node000002" class="edge">
<title>Node1&#45;&gt;Node2</title>
<g id="a_edge1_Node000001_Node000002"><a xlink:title=" ">
<path fill="none" stroke="#63b8ff" d="M473.25,-331.33C473.25,-324.82 473.25,-315.67 473.25,-307.37"/>
<polygon fill="#63b8ff" stroke="#63b8ff" points="476.75,-307.37 473.25,-297.37 469.75,-307.37 476.75,-307.37"/>
</a>
</g>
</g>
<!-- Node3 -->
<g id="Node000003" class="node">
<title>Node3</title>
<g id="a_Node000003"><a xlink:title=" ">
<polygon fill="#e0e0e0" stroke="#999999" points="486.88,-19.25 429.62,-19.25 429.62,0 486.88,0 486.88,-19.25"/>
<text xml:space="preserve" text-anchor="middle" x="458.25" y="-5.75" font-family="Helvetica,sans-Serif" font-size="10.00">Arduino.h</text>
</a>
</g>
</g>
<!-- Node2&#45;&gt;Node3 -->
<g id="edge2_Node000002_Node000003" class="edge">
<title>Node2&#45;&gt;Node3</title>
<g id="a_edge2_Node000002_Node000003"><a xlink:title=" ">
<path fill="none" stroke="#63b8ff" d="M425.94,-275.78C402.59,-269.23 375.41,-258.28 356.25,-240.25 336.62,-221.78 336.93,-211.35 331.25,-185 316.33,-115.81 392.65,-53.75 433.63,-25.99"/>
<polygon fill="#63b8ff" stroke="#63b8ff" points="435.51,-28.94 441.94,-20.53 431.67,-23.1 435.51,-28.94"/>
</a>
</g>
</g>
<!-- Node4 -->
<g id="Node000004" class="node">
<title>Node4</title>
<g id="a_Node000004"><a xlink:title=" ">
<polygon fill="#e0e0e0" stroke="#999999" points="905.75,-74.5 862.75,-74.5 862.75,-55.25 905.75,-55.25 905.75,-74.5"/>
<text xml:space="preserve" text-anchor="middle" x="884.25" y="-61" font-family="Helvetica,sans-Serif" font-size="10.00">vector</text>
</a>
</g>
</g>
<!-- Node2&#45;&gt;Node4 -->
<g id="edge3_Node000002_Node000004" class="edge">
<title>Node2&#45;&gt;Node4</title>
<g id="a_edge3_Node000002_Node000004"><a xlink:title=" ">
<path fill="none" stroke="#63b8ff" d="M533.48,-276.31C657.9,-257.2 935.88,-206.59 986.25,-129.75 1005.87,-99.82 953.57,-81.35 916.81,-72.4"/>
<polygon fill="#63b8ff" stroke="#63b8ff" points="918.01,-69.08 907.48,-70.26 916.44,-75.9 918.01,-69.08"/>
</a>
</g>
</g>
<!-- Node5 -->
<g id="Node000005" class="node">
<title>Node5</title>
<g id="a_Node000005"><a xlink:href="_sensor_8h.html" target="_top" xlink:title=" ">
<polygon fill="white" stroke="#666666" points="290.38,-129.75 236.12,-129.75 236.12,-110.5 290.38,-110.5 290.38,-129.75"/>
<text xml:space="preserve" text-anchor="middle" x="263.25" y="-116.25" font-family="Helvetica,sans-Serif" font-size="10.00">Sensor.h</text>
</a>
</g>
</g>
<!-- Node2&#45;&gt;Node5 -->
<g id="edge4_Node000002_Node000005" class="edge">
<title>Node2&#45;&gt;Node5</title>
<g id="a_edge4_Node000002_Node000005"><a xlink:title=" ">
<path fill="none" stroke="#63b8ff" d="M413.34,-284.09C375.72,-280.44 328.72,-269.64 298.25,-240.25 271.05,-214.02 264.69,-167.85 263.38,-141.35"/>
<polygon fill="#63b8ff" stroke="#63b8ff" points="266.89,-141.51 263.12,-131.61 259.89,-141.7 266.89,-141.51"/>
</a>
</g>
</g>
<!-- Node6 -->
<g id="Node000006" class="node">
<title>Node6</title>
<g id="a_Node000006"><a xlink:title=" ">
<polygon fill="#e0e0e0" stroke="#999999" points="62.5,-74.5 0,-74.5 0,-55.25 62.5,-55.25 62.5,-74.5"/>
<text xml:space="preserve" text-anchor="middle" x="31.25" y="-61" font-family="Helvetica,sans-Serif" font-size="10.00">OneWire.h</text>
</a>
</g>
</g>
<!-- Node2&#45;&gt;Node6 -->
<g id="edge43_Node000002_Node000006" class="edge">
<title>Node2&#45;&gt;Node6</title>
<g id="a_edge43_Node000002_Node000006"><a xlink:title=" ">
<path fill="none" stroke="#63b8ff" d="M413.4,-280.51C367.31,-275.37 302.96,-264.24 251.25,-240.25 164.03,-199.79 80.59,-118.13 46.9,-82.8"/>
<polygon fill="#63b8ff" stroke="#63b8ff" points="49.87,-80.86 40.47,-75.97 44.77,-85.65 49.87,-80.86"/>
</a>
</g>
</g>
<!-- Node7 -->
<g id="Node000007" class="node">
<title>Node7</title>
<g id="a_Node000007"><a xlink:title=" ">
<polygon fill="#e0e0e0" stroke="#999999" points="186.25,-74.5 80.25,-74.5 80.25,-55.25 186.25,-55.25 186.25,-74.5"/>
<text xml:space="preserve" text-anchor="middle" x="133.25" y="-61" font-family="Helvetica,sans-Serif" font-size="10.00">DallasTemperature.h</text>
</a>
</g>
</g>
<!-- Node2&#45;&gt;Node7 -->
<g id="edge44_Node000002_Node000007" class="edge">
<title>Node2&#45;&gt;Node7</title>
<g id="a_edge44_Node000002_Node000007"><a xlink:title=" ">
<path fill="none" stroke="#63b8ff" d="M413.41,-280.9C373.28,-275.96 320.59,-264.92 280.25,-240.25 214.74,-200.19 164.12,-120.75 143.43,-84.59"/>
<polygon fill="#63b8ff" stroke="#63b8ff" points="146.66,-83.19 138.72,-76.17 140.55,-86.6 146.66,-83.19"/>
</a>
</g>
</g>
<!-- Node9 -->
<g id="Node000009" class="node">
<title>Node9</title>
<g id="a_Node000009"><a xlink:href="_measurement_point_8h.html" target="_top" xlink:title=" ">
<polygon fill="white" stroke="#666666" points="512.25,-185 406.25,-185 406.25,-165.75 512.25,-165.75 512.25,-185"/>
<text xml:space="preserve" text-anchor="middle" x="459.25" y="-171.5" font-family="Helvetica,sans-Serif" font-size="10.00">MeasurementPoint.h</text>
</a>
</g>
</g>
<!-- Node2&#45;&gt;Node9 -->
<g id="edge9_Node000002_Node000009" class="edge">
<title>Node2&#45;&gt;Node9</title>
<g id="a_edge9_Node000002_Node000009"><a xlink:title=" ">
<path fill="none" stroke="#63b8ff" d="M472.1,-276C469.88,-258.75 464.92,-220.33 461.86,-196.56"/>
<polygon fill="#63b8ff" stroke="#63b8ff" points="465.36,-196.35 460.61,-186.88 458.41,-197.24 465.36,-196.35"/>
</a>
</g>
</g>
<!-- Node19 -->
<g id="Node000019" class="node">
<title>Node19</title>
<g id="a_Node000019"><a xlink:title=" ">
<polygon fill="#e0e0e0" stroke="#999999" points="1078.38,-19.25 1000.12,-19.25 1000.12,0 1078.38,0 1078.38,-19.25"/>
<text xml:space="preserve" text-anchor="middle" x="1039.25" y="-5.75" font-family="Helvetica,sans-Serif" font-size="10.00">ArduinoJson.h</text>
</a>
</g>
</g>
<!-- Node2&#45;&gt;Node19 -->
<g id="edge45_Node000002_Node000019" class="edge">
<title>Node2&#45;&gt;Node19</title>
<g id="a_edge45_Node000002_Node000019"><a xlink:title=" ">
<path fill="none" stroke="#63b8ff" d="M533.49,-280.42C687.08,-268.25 1081.25,-231.63 1081.25,-176.38 1081.25,-176.38 1081.25,-176.38 1081.25,-119.12 1081.25,-85.76 1063.76,-50.27 1051.35,-29.3"/>
<polygon fill="#63b8ff" stroke="#63b8ff" points="1054.48,-27.69 1046.24,-21.03 1048.52,-31.37 1054.48,-27.69"/>
</a>
</g>
</g>
<!-- Node20 -->
<g id="Node000020" class="node">
<title>Node20</title>
<g id="a_Node000020"><a xlink:href="_register_map_8h.html" target="_top" xlink:title=" ">
<polygon fill="white" stroke="#666666" points="445.12,-240.25 365.38,-240.25 365.38,-221 445.12,-221 445.12,-240.25"/>
<text xml:space="preserve" text-anchor="middle" x="405.25" y="-226.75" font-family="Helvetica,sans-Serif" font-size="10.00">RegisterMap.h</text>
</a>
</g>
</g>
<!-- Node2&#45;&gt;Node20 -->
<g id="edge26_Node000002_Node000020" class="edge">
<title>Node2&#45;&gt;Node20</title>
<g id="a_edge26_Node000002_Node000020"><a xlink:title=" ">
<path fill="none" stroke="#63b8ff" d="M461.71,-275.84C451.79,-268.07 437.24,-256.67 425.39,-247.4"/>
<polygon fill="#63b8ff" stroke="#63b8ff" points="427.84,-244.87 417.81,-241.46 423.52,-250.38 427.84,-244.87"/>
</a>
</g>
</g>
<!-- Node22 -->
<g id="Node000022" class="node">
<title>Node22</title>
<g id="a_Node000022"><a xlink:href="_indicator_interface_8h.html" target="_top" xlink:title=" ">
<polygon fill="white" stroke="#666666" points="850.25,-185 750.25,-185 750.25,-165.75 850.25,-165.75 850.25,-185"/>
<text xml:space="preserve" text-anchor="middle" x="800.25" y="-171.5" font-family="Helvetica,sans-Serif" font-size="10.00">IndicatorInterface.h</text>
</a>
</g>
</g>
<!-- Node2&#45;&gt;Node22 -->
<g id="edge29_Node000002_Node000022" class="edge">
<title>Node2&#45;&gt;Node22</title>
<g id="a_edge29_Node000002_Node000022"><a xlink:title=" ">
<path fill="none" stroke="#63b8ff" d="M500.57,-275.81C558.75,-256.5 695.05,-211.28 761.9,-189.1"/>
<polygon fill="#63b8ff" stroke="#63b8ff" points="762.95,-192.44 771.34,-185.97 760.75,-185.79 762.95,-192.44"/>
</a>
</g>
</g>
<!-- Node27 -->
<g id="Node000027" class="node">
<title>Node27</title>
<g id="a_Node000027"><a xlink:href="_alarm_8h.html" target="_top" xlink:title=" ">
<polygon fill="white" stroke="#666666" points="565.12,-240.25 515.38,-240.25 515.38,-221 565.12,-221 565.12,-240.25"/>
<text xml:space="preserve" text-anchor="middle" x="540.25" y="-226.75" font-family="Helvetica,sans-Serif" font-size="10.00">Alarm.h</text>
</a>
</g>
</g>
<!-- Node2&#45;&gt;Node27 -->
<g id="edge38_Node000002_Node000027" class="edge">
<title>Node2&#45;&gt;Node27</title>
<g id="a_edge38_Node000002_Node000027"><a xlink:title=" ">
<path fill="none" stroke="#63b8ff" d="M484.62,-275.84C494.3,-268.15 508.45,-256.9 520.06,-247.68"/>
<polygon fill="#63b8ff" stroke="#63b8ff" points="522.22,-250.43 527.87,-241.47 517.86,-244.95 522.22,-250.43"/>
</a>
</g>
</g>
<!-- Node28 -->
<g id="Node000028" class="node">
<title>Node28</title>
<g id="a_Node000028"><a xlink:title=" ">
<polygon fill="#e0e0e0" stroke="#999999" points="1165.12,-240.25 1109.38,-240.25 1109.38,-221 1165.12,-221 1165.12,-240.25"/>
<text xml:space="preserve" text-anchor="middle" x="1137.25" y="-226.75" font-family="Helvetica,sans-Serif" font-size="10.00">algorithm</text>
</a>
</g>
</g>
<!-- Node2&#45;&gt;Node28 -->
<g id="edge46_Node000002_Node000028" class="edge">
<title>Node2&#45;&gt;Node28</title>
<g id="a_edge46_Node000002_Node000028"><a xlink:title=" ">
<path fill="none" stroke="#63b8ff" d="M533.13,-283.18C644.35,-279.47 890.14,-268.54 1095.25,-240.25 1096.25,-240.11 1097.26,-239.96 1098.28,-239.81"/>
<polygon fill="#63b8ff" stroke="#63b8ff" points="1098.58,-243.31 1107.83,-238.15 1097.38,-236.41 1098.58,-243.31"/>
</a>
</g>
</g>
<!-- Node5&#45;&gt;Node3 -->
<g id="edge5_Node000005_Node000003" class="edge">
<title>Node5&#45;&gt;Node3</title>
<g id="a_edge5_Node000005_Node000003"><a xlink:title=" ">
<path fill="none" stroke="#63b8ff" d="M277.29,-110.05C297.21,-97.3 334.98,-73.57 368.25,-55.25 387.99,-44.38 410.72,-33.12 428.4,-24.63"/>
<polygon fill="#63b8ff" stroke="#63b8ff" points="429.8,-27.84 437.32,-20.38 426.79,-21.52 429.8,-27.84"/>
</a>
</g>
</g>
<!-- Node5&#45;&gt;Node6 -->
<g id="edge6_Node000005_Node000006" class="edge">
<title>Node5&#45;&gt;Node6</title>
<g id="a_edge6_Node000005_Node000006"><a xlink:title=" ">
<path fill="none" stroke="#63b8ff" d="M235.73,-112.81C195.7,-103.62 121.06,-86.49 73.88,-75.66"/>
<polygon fill="#63b8ff" stroke="#63b8ff" points="74.81,-72.28 64.28,-73.46 73.25,-79.11 74.81,-72.28"/>
</a>
</g>
</g>
<!-- Node5&#45;&gt;Node7 -->
<g id="edge7_Node000005_Node000007" class="edge">
<title>Node5&#45;&gt;Node7</title>
<g id="a_edge7_Node000005_Node000007"><a xlink:title=" ">
<path fill="none" stroke="#63b8ff" d="M241.2,-110.09C220.56,-101.64 189.47,-88.9 165.95,-79.27"/>
<polygon fill="#63b8ff" stroke="#63b8ff" points="167.39,-76.08 156.81,-75.53 164.74,-82.56 167.39,-76.08"/>
</a>
</g>
</g>
<!-- Node8 -->
<g id="Node000008" class="node">
<title>Node8</title>
<g id="a_Node000008"><a xlink:title=" ">
<polygon fill="#e0e0e0" stroke="#999999" points="315.88,-74.5 204.62,-74.5 204.62,-55.25 315.88,-55.25 315.88,-74.5"/>
<text xml:space="preserve" text-anchor="middle" x="260.25" y="-61" font-family="Helvetica,sans-Serif" font-size="10.00">Adafruit_MAX31865.h</text>
</a>
</g>
</g>
<!-- Node5&#45;&gt;Node8 -->
<g id="edge8_Node000005_Node000008" class="edge">
<title>Node5&#45;&gt;Node8</title>
<g id="a_edge8_Node000005_Node000008"><a xlink:title=" ">
<path fill="none" stroke="#63b8ff" d="M262.75,-110.33C262.38,-103.74 261.86,-94.46 261.39,-86.07"/>
<polygon fill="#63b8ff" stroke="#63b8ff" points="264.9,-86.16 260.84,-76.37 257.91,-86.55 264.9,-86.16"/>
</a>
</g>
</g>
<!-- Node9&#45;&gt;Node3 -->
<g id="edge10_Node000009_Node000003" class="edge">
<title>Node9&#45;&gt;Node3</title>
<g id="a_edge10_Node000009_Node000003"><a xlink:title=" ">
<path fill="none" stroke="#63b8ff" d="M455.25,-165.37C451.56,-156.51 446.33,-142.49 444.25,-129.75 438.91,-97.07 439.24,-87.98 444.25,-55.25 445.52,-46.93 448.06,-38.03 450.63,-30.38"/>
<polygon fill="#63b8ff" stroke="#63b8ff" points="453.89,-31.68 454,-21.08 447.3,-29.29 453.89,-31.68"/>
</a>
</g>
</g>
<!-- Node9&#45;&gt;Node5 -->
<g id="edge11_Node000009_Node000005" class="edge">
<title>Node9&#45;&gt;Node5</title>
<g id="a_edge11_Node000009_Node000005"><a xlink:title=" ">
<path fill="none" stroke="#63b8ff" d="M426,-165.34C391.61,-156 337.95,-141.42 301.74,-131.58"/>
<polygon fill="#63b8ff" stroke="#63b8ff" points="302.67,-128.21 292.1,-128.96 300.84,-134.96 302.67,-128.21"/>
</a>
</g>
</g>
<!-- Node10 -->
<g id="Node000010" class="node">
<title>Node10</title>
<g id="a_Node000010"><a xlink:href="_logger_manager_8h.html" target="_top" xlink:title=" ">
<polygon fill="white" stroke="#666666" points="576.38,-129.75 486.12,-129.75 486.12,-110.5 576.38,-110.5 576.38,-129.75"/>
<text xml:space="preserve" text-anchor="middle" x="531.25" y="-116.25" font-family="Helvetica,sans-Serif" font-size="10.00">LoggerManager.h</text>
</a>
</g>
</g>
<!-- Node9&#45;&gt;Node10 -->
<g id="edge12_Node000009_Node000010" class="edge">
<title>Node9&#45;&gt;Node10</title>
<g id="a_edge12_Node000009_Node000010"><a xlink:title=" ">
<path fill="none" stroke="#63b8ff" d="M471.46,-165.34C482.08,-157.49 497.69,-145.95 510.29,-136.62"/>
<polygon fill="#63b8ff" stroke="#63b8ff" points="512.04,-139.69 518,-130.92 507.88,-134.06 512.04,-139.69"/>
</a>
</g>
</g>
<!-- Node10&#45;&gt;Node3 -->
<g id="edge13_Node000010_Node000003" class="edge">
<title>Node10&#45;&gt;Node3</title>
<g id="a_edge13_Node000010_Node000003"><a xlink:title=" ">
<path fill="none" stroke="#63b8ff" d="M525.28,-110.25C513.35,-92.52 486.39,-52.44 470.53,-28.88"/>
<polygon fill="#63b8ff" stroke="#63b8ff" points="473.64,-27.23 465.15,-20.88 467.83,-31.13 473.64,-27.23"/>
</a>
</g>
</g>
<!-- Node10&#45;&gt;Node4 -->
<g id="edge24_Node000010_Node000004" class="edge">
<title>Node10&#45;&gt;Node4</title>
<g id="a_edge24_Node000010_Node000004"><a xlink:title=" ">
<path fill="none" stroke="#63b8ff" d="M576.68,-112.27C648.75,-101.4 787.63,-80.45 851.12,-70.87"/>
<polygon fill="#63b8ff" stroke="#63b8ff" points="851.55,-74.35 860.92,-69.39 850.51,-67.43 851.55,-74.35"/>
</a>
</g>
</g>
<!-- Node10&#45;&gt;Node10 -->
<g id="edge25_Node000010_Node000010" class="edge">
<title>Node10&#45;&gt;Node10</title>
<g id="a_edge25_Node000010_Node000010"><a xlink:title=" ">
<path fill="none" stroke="#63b8ff" d="M564.38,-130.23C580.31,-131.48 594.38,-128.11 594.38,-120.12 594.38,-114.14 586.46,-110.74 575.79,-109.95"/>
<polygon fill="#63b8ff" stroke="#63b8ff" points="575.87,-106.45 565.89,-110.01 575.91,-113.45 575.87,-106.45"/>
</a>
</g>
</g>
<!-- Node11 -->
<g id="Node000011" class="node">
<title>Node11</title>
<g id="a_Node000011"><a xlink:title=" ">
<polygon fill="#e0e0e0" stroke="#999999" points="561.75,-74.5 524.75,-74.5 524.75,-55.25 561.75,-55.25 561.75,-74.5"/>
<text xml:space="preserve" text-anchor="middle" x="543.25" y="-61" font-family="Helvetica,sans-Serif" font-size="10.00">FS.h</text>
</a>
</g>
</g>
<!-- Node10&#45;&gt;Node11 -->
<g id="edge14_Node000010_Node000011" class="edge">
<title>Node10&#45;&gt;Node11</title>
<g id="a_edge14_Node000010_Node000011"><a xlink:title=" ">
<path fill="none" stroke="#63b8ff" d="M533.23,-110.33C534.72,-103.74 536.81,-94.46 538.7,-86.07"/>
<polygon fill="#63b8ff" stroke="#63b8ff" points="542.11,-86.86 540.89,-76.34 535.28,-85.32 542.11,-86.86"/>
</a>
</g>
</g>
<!-- Node12 -->
<g id="Node000012" class="node">
<title>Node12</title>
<g id="a_Node000012"><a xlink:title=" ">
<polygon fill="#e0e0e0" stroke="#999999" points="618.5,-74.5 580,-74.5 580,-55.25 618.5,-55.25 618.5,-74.5"/>
<text xml:space="preserve" text-anchor="middle" x="599.25" y="-61" font-family="Helvetica,sans-Serif" font-size="10.00">SD.h</text>
</a>
</g>
</g>
<!-- Node10&#45;&gt;Node12 -->
<g id="edge15_Node000010_Node000012" class="edge">
<title>Node10&#45;&gt;Node12</title>
<g id="a_edge15_Node000010_Node000012"><a xlink:title=" ">
<path fill="none" stroke="#63b8ff" d="M542.79,-110.09C552.71,-102.32 567.26,-90.92 579.11,-81.65"/>
<polygon fill="#63b8ff" stroke="#63b8ff" points="580.98,-84.63 586.69,-75.71 576.66,-79.12 580.98,-84.63"/>
</a>
</g>
</g>
<!-- Node13 -->
<g id="Node000013" class="node">
<title>Node13</title>
<g id="a_Node000013"><a xlink:href="_time_manager_8h.html" target="_top" xlink:title=" ">
<polygon fill="white" stroke="#666666" points="795.62,-74.5 712.88,-74.5 712.88,-55.25 795.62,-55.25 795.62,-74.5"/>
<text xml:space="preserve" text-anchor="middle" x="754.25" y="-61" font-family="Helvetica,sans-Serif" font-size="10.00">TimeManager.h</text>
</a>
</g>
</g>
<!-- Node10&#45;&gt;Node13 -->
<g id="edge16_Node000010_Node000013" class="edge">
<title>Node10&#45;&gt;Node13</title>
<g id="a_edge16_Node000010_Node000013"><a xlink:title=" ">
<path fill="none" stroke="#63b8ff" d="M569.33,-110.03C606.85,-101.07 664.35,-87.34 705.26,-77.57"/>
<polygon fill="#63b8ff" stroke="#63b8ff" points="705.94,-81.01 714.85,-75.28 704.31,-74.2 705.94,-81.01"/>
</a>
</g>
</g>
<!-- Node13&#45;&gt;Node3 -->
<g id="edge17_Node000013_Node000003" class="edge">
<title>Node13&#45;&gt;Node3</title>
<g id="a_edge17_Node000013_Node000003"><a xlink:title=" ">
<path fill="none" stroke="#63b8ff" d="M712.47,-56.36C655.64,-46.13 554.63,-27.96 498.57,-17.88"/>
<polygon fill="#63b8ff" stroke="#63b8ff" points="499.27,-14.45 488.81,-16.12 498.03,-21.34 499.27,-14.45"/>
</a>
</g>
</g>
<!-- Node14 -->
<g id="Node000014" class="node">
<title>Node14</title>
<g id="a_Node000014"><a xlink:title=" ">
<polygon fill="#e0e0e0" stroke="#999999" points="890.5,-19.25 846,-19.25 846,0 890.5,0 890.5,-19.25"/>
<text xml:space="preserve" text-anchor="middle" x="868.25" y="-5.75" font-family="Helvetica,sans-Serif" font-size="10.00">WiFi.h</text>
</a>
</g>
</g>
<!-- Node13&#45;&gt;Node14 -->
<g id="edge18_Node000013_Node000014" class="edge">
<title>Node13&#45;&gt;Node14</title>
<g id="a_edge18_Node000013_Node000014"><a xlink:title=" ">
<path fill="none" stroke="#63b8ff" d="M773.59,-54.84C791.36,-46.54 817.97,-34.11 838.45,-24.54"/>
<polygon fill="#63b8ff" stroke="#63b8ff" points="839.87,-27.75 847.45,-20.34 836.9,-21.4 839.87,-27.75"/>
</a>
</g>
</g>
<!-- Node15 -->
<g id="Node000015" class="node">
<title>Node15</title>
<g id="a_Node000015"><a xlink:title=" ">
<polygon fill="#e0e0e0" stroke="#999999" points="972.5,-19.25 928,-19.25 928,0 972.5,0 972.5,-19.25"/>
<text xml:space="preserve" text-anchor="middle" x="950.25" y="-5.75" font-family="Helvetica,sans-Serif" font-size="10.00">Wire.h</text>
</a>
</g>
</g>
<!-- Node13&#45;&gt;Node15 -->
<g id="edge19_Node000013_Node000015" class="edge">
<title>Node13&#45;&gt;Node15</title>
<g id="a_edge19_Node000013_Node000015"><a xlink:title=" ">
<path fill="none" stroke="#63b8ff" d="M787.5,-54.84C823.47,-45.07 880.51,-29.57 916.63,-19.76"/>
<polygon fill="#63b8ff" stroke="#63b8ff" points="917.37,-23.18 926.1,-17.19 915.54,-16.43 917.37,-23.18"/>
</a>
</g>
</g>
<!-- Node16 -->
<g id="Node000016" class="node">
<title>Node16</title>
<g id="a_Node000016"><a xlink:title=" ">
<polygon fill="#e0e0e0" stroke="#999999" points="658.75,-19.25 603.75,-19.25 603.75,0 658.75,0 658.75,-19.25"/>
<text xml:space="preserve" text-anchor="middle" x="631.25" y="-5.75" font-family="Helvetica,sans-Serif" font-size="10.00">RTClib.h</text>
</a>
</g>
</g>
<!-- Node13&#45;&gt;Node16 -->
<g id="edge20_Node000013_Node000016" class="edge">
<title>Node13&#45;&gt;Node16</title>
<g id="a_edge20_Node000013_Node000016"><a xlink:title=" ">
<path fill="none" stroke="#63b8ff" d="M733.38,-54.84C713.95,-46.43 684.71,-33.77 662.49,-24.15"/>
<polygon fill="#63b8ff" stroke="#63b8ff" points="664.17,-21.06 653.61,-20.3 661.39,-27.49 664.17,-21.06"/>
</a>
</g>
</g>
<!-- Node17 -->
<g id="Node000017" class="node">
<title>Node17</title>
<g id="a_Node000017"><a xlink:title=" ">
<polygon fill="#e0e0e0" stroke="#999999" points="747.25,-19.25 677.25,-19.25 677.25,0 747.25,0 747.25,-19.25"/>
<text xml:space="preserve" text-anchor="middle" x="712.25" y="-5.75" font-family="Helvetica,sans-Serif" font-size="10.00">NTPClient.h</text>
</a>
</g>
</g>
<!-- Node13&#45;&gt;Node17 -->
<g id="edge21_Node000013_Node000017" class="edge">
<title>Node13&#45;&gt;Node17</title>
<g id="a_edge21_Node000013_Node000017"><a xlink:title=" ">
<path fill="none" stroke="#63b8ff" d="M747.31,-55.08C741.63,-47.88 733.41,-37.46 726.36,-28.51"/>
<polygon fill="#63b8ff" stroke="#63b8ff" points="729.21,-26.48 720.27,-20.8 723.72,-30.82 729.21,-26.48"/>
</a>
</g>
</g>
<!-- Node18 -->
<g id="Node000018" class="node">
<title>Node18</title>
<g id="a_Node000018"><a xlink:title=" ">
<polygon fill="#e0e0e0" stroke="#999999" points="827.5,-19.25 765,-19.25 765,0 827.5,0 827.5,-19.25"/>
<text xml:space="preserve" text-anchor="middle" x="796.25" y="-5.75" font-family="Helvetica,sans-Serif" font-size="10.00">WiFiUdp.h</text>
</a>
</g>
</g>
<!-- Node13&#45;&gt;Node18 -->
<g id="edge22_Node000013_Node000018" class="edge">
<title>Node13&#45;&gt;Node18</title>
<g id="a_edge22_Node000013_Node000018"><a xlink:title=" ">
<path fill="none" stroke="#63b8ff" d="M761.19,-55.08C766.87,-47.88 775.09,-37.46 782.14,-28.51"/>
<polygon fill="#63b8ff" stroke="#63b8ff" points="784.78,-30.82 788.23,-20.8 779.29,-26.48 784.78,-30.82"/>
</a>
</g>
</g>
<!-- Node13&#45;&gt;Node19 -->
<g id="edge23_Node000013_Node000019" class="edge">
<title>Node13&#45;&gt;Node19</title>
<g id="a_edge23_Node000013_Node000019"><a xlink:title=" ">
<path fill="none" stroke="#63b8ff" d="M796,-56.07C847.09,-46.53 933.58,-30.37 988.48,-20.11"/>
<polygon fill="#63b8ff" stroke="#63b8ff" points="989.01,-23.57 998.2,-18.29 987.73,-16.69 989.01,-23.57"/>
</a>
</g>
</g>
<!-- Node20&#45;&gt;Node9 -->
<g id="edge28_Node000020_Node000009" class="edge">
<title>Node20&#45;&gt;Node9</title>
<g id="a_edge28_Node000020_Node000009"><a xlink:title=" ">
<path fill="none" stroke="#63b8ff" d="M414.17,-220.83C421.7,-213.4 432.72,-202.54 441.98,-193.41"/>
<polygon fill="#63b8ff" stroke="#63b8ff" points="444.4,-195.94 449.06,-186.42 439.48,-190.95 444.4,-195.94"/>
</a>
</g>
</g>
<!-- Node21 -->
<g id="Node000021" class="node">
<title>Node21</title>
<g id="a_Node000021"><a xlink:title=" ">
<polygon fill="#e0e0e0" stroke="#999999" points="388.38,-185 340.12,-185 340.12,-165.75 388.38,-165.75 388.38,-185"/>
<text xml:space="preserve" text-anchor="middle" x="364.25" y="-171.5" font-family="Helvetica,sans-Serif" font-size="10.00">stdint.h</text>
</a>
</g>
</g>
<!-- Node20&#45;&gt;Node21 -->
<g id="edge27_Node000020_Node000021" class="edge">
<title>Node20&#45;&gt;Node21</title>
<g id="a_edge27_Node000020_Node000021"><a xlink:title=" ">
<path fill="none" stroke="#63b8ff" d="M398.48,-220.83C392.93,-213.63 384.91,-203.21 378.02,-194.26"/>
<polygon fill="#63b8ff" stroke="#63b8ff" points="380.96,-192.35 372.09,-186.56 375.42,-196.62 380.96,-192.35"/>
</a>
</g>
</g>
<!-- Node22&#45;&gt;Node3 -->
<g id="edge30_Node000022_Node000003" class="edge">
<title>Node22&#45;&gt;Node3</title>
<g id="a_edge30_Node000022_Node000003"><a xlink:title=" ">
<path fill="none" stroke="#63b8ff" d="M757.05,-165.28C732.42,-158.51 702.03,-147.33 679.25,-129.75 647.29,-105.08 660.35,-78.37 627.25,-55.25 588.64,-28.28 534.73,-17.61 498.26,-13.39"/>
<polygon fill="#63b8ff" stroke="#63b8ff" points="498.89,-9.93 488.58,-12.39 498.17,-16.9 498.89,-9.93"/>
</a>
</g>
</g>
<!-- Node22&#45;&gt;Node4 -->
<g id="edge36_Node000022_Node000004" class="edge">
<title>Node22&#45;&gt;Node4</title>
<g id="a_edge36_Node000022_Node000004"><a xlink:title=" ">
<path fill="none" stroke="#63b8ff" d="M839.19,-165.36C858.07,-158.81 879.03,-147.83 890.25,-129.75 898.42,-116.57 895.93,-98.84 891.96,-85.4"/>
<polygon fill="#63b8ff" stroke="#63b8ff" points="895.4,-84.64 888.81,-76.35 888.79,-86.94 895.4,-84.64"/>
</a>
</g>
</g>
<!-- Node22&#45;&gt;Node10 -->
<g id="edge37_Node000022_Node000010" class="edge">
<title>Node22&#45;&gt;Node10</title>
<g id="a_edge37_Node000022_Node000010"><a xlink:title=" ">
<path fill="none" stroke="#63b8ff" d="M754.31,-165.28C708.23,-156.16 637.19,-142.1 587.7,-132.3"/>
<polygon fill="#63b8ff" stroke="#63b8ff" points="588.52,-128.89 578.03,-130.39 587.16,-135.76 588.52,-128.89"/>
</a>
</g>
</g>
<!-- Node22&#45;&gt;Node15 -->
<g id="edge31_Node000022_Node000015" class="edge">
<title>Node22&#45;&gt;Node15</title>
<g id="a_edge31_Node000022_Node000015"><a xlink:title=" ">
<path fill="none" stroke="#63b8ff" d="M850.33,-169.29C899.54,-163.13 969.6,-150.87 986.25,-129.75 1010.1,-99.5 983.26,-53.59 964.77,-28.51"/>
<polygon fill="#63b8ff" stroke="#63b8ff" points="967.79,-26.7 958.91,-20.91 962.24,-30.97 967.79,-26.7"/>
</a>
</g>
</g>
<!-- Node23 -->
<g id="Node000023" class="node">
<title>Node23</title>
<g id="a_Node000023"><a xlink:title=" ">
<polygon fill="#e0e0e0" stroke="#999999" points="881.62,-129.75 846.88,-129.75 846.88,-110.5 881.62,-110.5 881.62,-129.75"/>
<text xml:space="preserve" text-anchor="middle" x="864.25" y="-116.25" font-family="Helvetica,sans-Serif" font-size="10.00">map</text>
</a>
</g>
</g>
<!-- Node22&#45;&gt;Node23 -->
<g id="edge32_Node000022_Node000023" class="edge">
<title>Node22&#45;&gt;Node23</title>
<g id="a_edge32_Node000022_Node000023"><a xlink:title=" ">
<path fill="none" stroke="#63b8ff" d="M811.11,-165.34C820.36,-157.65 833.87,-146.4 844.96,-137.18"/>
<polygon fill="#63b8ff" stroke="#63b8ff" points="846.94,-140.08 852.39,-130.99 842.46,-134.7 846.94,-140.08"/>
</a>
</g>
</g>
<!-- Node24 -->
<g id="Node000024" class="node">
<title>Node24</title>
<g id="a_Node000024"><a xlink:title=" ">
<polygon fill="#e0e0e0" stroke="#999999" points="977.25,-129.75 937.25,-129.75 937.25,-110.5 977.25,-110.5 977.25,-129.75"/>
<text xml:space="preserve" text-anchor="middle" x="957.25" y="-116.25" font-family="Helvetica,sans-Serif" font-size="10.00">string</text>
</a>
</g>
</g>
<!-- Node22&#45;&gt;Node24 -->
<g id="edge33_Node000022_Node000024" class="edge">
<title>Node22&#45;&gt;Node24</title>
<g id="a_edge33_Node000022_Node000024"><a xlink:title=" ">
<path fill="none" stroke="#63b8ff" d="M826.88,-165.34C854.38,-156.02 897.24,-141.48 926.24,-131.64"/>
<polygon fill="#63b8ff" stroke="#63b8ff" points="927.21,-135.01 935.56,-128.48 924.96,-128.38 927.21,-135.01"/>
</a>
</g>
</g>
<!-- Node25 -->
<g id="Node000025" class="node">
<title>Node25</title>
<g id="a_Node000025"><a xlink:title=" ">
<polygon fill="#e0e0e0" stroke="#999999" points="754,-129.75 688.5,-129.75 688.5,-110.5 754,-110.5 754,-129.75"/>
<text xml:space="preserve" text-anchor="middle" x="721.25" y="-116.25" font-family="Helvetica,sans-Serif" font-size="10.00">PCF8575.h</text>
</a>
</g>
</g>
<!-- Node22&#45;&gt;Node25 -->
<g id="edge34_Node000022_Node000025" class="edge">
<title>Node22&#45;&gt;Node25</title>
<g id="a_edge34_Node000022_Node000025"><a xlink:title=" ">
<path fill="none" stroke="#63b8ff" d="M786.85,-165.34C775.16,-157.46 757.95,-145.86 744.09,-136.52"/>
<polygon fill="#63b8ff" stroke="#63b8ff" points="746.22,-133.74 735.97,-131.05 742.31,-139.54 746.22,-133.74"/>
</a>
</g>
</g>
<!-- Node26 -->
<g id="Node000026" class="node">
<title>Node26</title>
<g id="a_Node000026"><a xlink:title=" ">
<polygon fill="#e0e0e0" stroke="#999999" points="828.88,-129.75 771.62,-129.75 771.62,-110.5 828.88,-110.5 828.88,-129.75"/>
<text xml:space="preserve" text-anchor="middle" x="800.25" y="-116.25" font-family="Helvetica,sans-Serif" font-size="10.00">U8g2lib.h</text>
</a>
</g>
</g>
<!-- Node22&#45;&gt;Node26 -->
<g id="edge35_Node000022_Node000026" class="edge">
<title>Node22&#45;&gt;Node26</title>
<g id="a_edge35_Node000022_Node000026"><a xlink:title=" ">
<path fill="none" stroke="#63b8ff" d="M800.25,-165.58C800.25,-159.07 800.25,-149.92 800.25,-141.62"/>
<polygon fill="#63b8ff" stroke="#63b8ff" points="803.75,-141.62 800.25,-131.62 796.75,-141.62 803.75,-141.62"/>
</a>
</g>
</g>
<!-- Node27&#45;&gt;Node3 -->
<g id="edge39_Node000027_Node000003" class="edge">
<title>Node27&#45;&gt;Node3</title>
<g id="a_edge39_Node000027_Node000003"><a xlink:title=" ">
<path fill="none" stroke="#63b8ff" d="M539.27,-220.66C537.49,-207.62 532.79,-183.09 521.25,-165.75 507.25,-144.71 489.84,-151.66 477.25,-129.75 459.39,-98.67 456.92,-55.9 457.24,-30.96"/>
<polygon fill="#63b8ff" stroke="#63b8ff" points="460.73,-31.32 457.55,-21.22 453.74,-31.1 460.73,-31.32"/>
</a>
</g>
</g>
<!-- Node27&#45;&gt;Node4 -->
<g id="edge40_Node000027_Node000004" class="edge">
<title>Node27&#45;&gt;Node4</title>
<g id="a_edge40_Node000027_Node000004"><a xlink:title=" ">
<path fill="none" stroke="#63b8ff" d="M547.66,-220.78C566.87,-198.45 620.91,-139.51 679.25,-110.5 709.14,-95.64 801.33,-79.18 851.28,-71.03"/>
<polygon fill="#63b8ff" stroke="#63b8ff" points="851.61,-74.52 860.93,-69.48 850.5,-67.61 851.61,-74.52"/>
</a>
</g>
</g>
<!-- Node27&#45;&gt;Node9 -->
<g id="edge41_Node000027_Node000009" class="edge">
<title>Node27&#45;&gt;Node9</title>
<g id="a_edge41_Node000027_Node000009"><a xlink:title=" ">
<path fill="none" stroke="#63b8ff" d="M526.51,-220.59C514.52,-212.71 496.88,-201.11 482.67,-191.77"/>
<polygon fill="#63b8ff" stroke="#63b8ff" points="484.6,-188.85 474.32,-186.28 480.76,-194.7 484.6,-188.85"/>
</a>
</g>
</g>
<!-- Node27&#45;&gt;Node10 -->
<g id="edge42_Node000027_Node000010" class="edge">
<title>Node27&#45;&gt;Node10</title>
<g id="a_edge42_Node000027_Node000010"><a xlink:title=" ">
<path fill="none" stroke="#63b8ff" d="M544.68,-220.92C550.38,-208.6 559.01,-185.39 554.25,-165.75 552.07,-156.77 547.75,-147.57 543.44,-139.88"/>
<polygon fill="#63b8ff" stroke="#63b8ff" points="546.53,-138.22 538.35,-131.48 540.54,-141.85 546.53,-138.22"/>
</a>
</g>
</g>
</g>
</svg>
