<?xml version="1.0" encoding="UTF-8" standalone="no"?>
<!DOCTYPE svg PUBLIC "-//W3C//DTD SVG 1.1//EN"
 "http://www.w3.org/Graphics/SVG/1.1/DTD/svg11.dtd">
<!-- Generated by graphviz version 13.1.0 (20250701.0955)
 -->
<!-- Title: include/TemperatureController.h Pages: 1 -->
<svg width="1155pt" height="304pt"
 viewBox="0.00 0.00 1155.00 304.00" xmlns="http://www.w3.org/2000/svg" xmlns:xlink="http://www.w3.org/1999/xlink">
<g id="graph0" class="graph" transform="scale(1 1) rotate(0) translate(4 299.5)">
<title>include/TemperatureController.h</title>
<!-- Node1 -->
<g id="Node000001" class="node">
<title>Node1</title>
<g id="a_Node000001"><a xlink:title="Central temperature monitoring and control system.">
<polygon fill="#999999" stroke="#666666" points="537.88,-295.5 384.62,-295.5 384.62,-276.25 537.88,-276.25 537.88,-295.5"/>
<text xml:space="preserve" text-anchor="middle" x="461.25" y="-282" font-family="Helvetica,sans-Serif" font-size="10.00">include/TemperatureController.h</text>
</a>
</g>
</g>
<!-- Node2 -->
<g id="Node000002" class="node">
<title>Node2</title>
<g id="a_Node000002"><a xlink:title=" ">
<polygon fill="#e0e0e0" stroke="#999999" points="486.88,-19.25 429.62,-19.25 429.62,0 486.88,0 486.88,-19.25"/>
<text xml:space="preserve" text-anchor="middle" x="458.25" y="-5.75" font-family="Helvetica,sans-Serif" font-size="10.00">Arduino.h</text>
</a>
</g>
</g>
<!-- Node1&#45;&gt;Node2 -->
<g id="edge1_Node000001_Node000002" class="edge">
<title>Node1&#45;&gt;Node2</title>
<g id="a_edge1_Node000001_Node000002"><a xlink:title=" ">
<path fill="none" stroke="#63b8ff" d="M413.94,-275.78C390.59,-269.23 363.41,-258.28 344.25,-240.25 324.62,-221.78 324.93,-211.35 319.25,-185 303.83,-113.53 386.81,-52.61 431.4,-25.57"/>
<polygon fill="#63b8ff" stroke="#63b8ff" points="433.17,-28.59 440.01,-20.5 429.62,-22.56 433.17,-28.59"/>
</a>
</g>
</g>
<!-- Node3 -->
<g id="Node000003" class="node">
<title>Node3</title>
<g id="a_Node000003"><a xlink:title=" ">
<polygon fill="#e0e0e0" stroke="#999999" points="888.75,-74.5 845.75,-74.5 845.75,-55.25 888.75,-55.25 888.75,-74.5"/>
<text xml:space="preserve" text-anchor="middle" x="867.25" y="-61" font-family="Helvetica,sans-Serif" font-size="10.00">vector</text>
</a>
</g>
</g>
<!-- Node1&#45;&gt;Node3 -->
<g id="edge2_Node000001_Node000003" class="edge">
<title>Node1&#45;&gt;Node3</title>
<g id="a_edge2_Node000001_Node000003"><a xlink:title=" ">
<path fill="none" stroke="#63b8ff" d="M523.12,-275.81C647.18,-256.18 918.73,-205.29 968.25,-129.75 987.6,-100.24 936.65,-81.74 900.27,-72.66"/>
<polygon fill="#63b8ff" stroke="#63b8ff" points="901.09,-69.25 890.56,-70.38 899.5,-76.07 901.09,-69.25"/>
</a>
</g>
</g>
<!-- Node4 -->
<g id="Node000004" class="node">
<title>Node4</title>
<g id="a_Node000004"><a xlink:href="$_sensor_8h.html" xlink:title="Temperature sensor abstraction layer.">
<polygon fill="white" stroke="#666666" points="288.38,-129.75 234.12,-129.75 234.12,-110.5 288.38,-110.5 288.38,-129.75"/>
<text xml:space="preserve" text-anchor="middle" x="261.25" y="-116.25" font-family="Helvetica,sans-Serif" font-size="10.00">Sensor.h</text>
</a>
</g>
</g>
<!-- Node1&#45;&gt;Node4 -->
<g id="edge3_Node000001_Node000004" class="edge">
<title>Node1&#45;&gt;Node4</title>
<g id="a_edge3_Node000001_Node000004"><a xlink:title=" ">
<path fill="none" stroke="#63b8ff" d="M397.21,-275.77C353.81,-268.3 301.65,-256.32 286.25,-240.25 260.62,-213.5 258.37,-167.52 259.5,-141.19"/>
<polygon fill="#63b8ff" stroke="#63b8ff" points="262.97,-141.74 260.13,-131.53 255.98,-141.28 262.97,-141.74"/>
</a>
</g>
</g>
<!-- Node5 -->
<g id="Node000005" class="node">
<title>Node5</title>
<g id="a_Node000005"><a xlink:title=" ">
<polygon fill="#e0e0e0" stroke="#999999" points="62.5,-74.5 0,-74.5 0,-55.25 62.5,-55.25 62.5,-74.5"/>
<text xml:space="preserve" text-anchor="middle" x="31.25" y="-61" font-family="Helvetica,sans-Serif" font-size="10.00">OneWire.h</text>
</a>
</g>
</g>
<!-- Node1&#45;&gt;Node5 -->
<g id="edge41_Node000001_Node000005" class="edge">
<title>Node1&#45;&gt;Node5</title>
<g id="a_edge41_Node000001_Node000005"><a xlink:title=" ">
<path fill="none" stroke="#63b8ff" d="M384.22,-278.62C340.6,-272.82 285.98,-261.67 241.25,-240.25 157.29,-200.05 78.53,-118.86 46.43,-83.27"/>
<polygon fill="#63b8ff" stroke="#63b8ff" points="49.23,-81.16 39.97,-76.01 44,-85.81 49.23,-81.16"/>
</a>
</g>
</g>
<!-- Node6 -->
<g id="Node000006" class="node">
<title>Node6</title>
<g id="a_Node000006"><a xlink:title=" ">
<polygon fill="#e0e0e0" stroke="#999999" points="186.25,-74.5 80.25,-74.5 80.25,-55.25 186.25,-55.25 186.25,-74.5"/>
<text xml:space="preserve" text-anchor="middle" x="133.25" y="-61" font-family="Helvetica,sans-Serif" font-size="10.00">DallasTemperature.h</text>
</a>
</g>
</g>
<!-- Node1&#45;&gt;Node6 -->
<g id="edge42_Node000001_Node000006" class="edge">
<title>Node1&#45;&gt;Node6</title>
<g id="a_edge42_Node000001_Node000006"><a xlink:title=" ">
<path fill="none" stroke="#63b8ff" d="M384.16,-278.97C347.1,-273.26 303.43,-262.08 269.25,-240.25 206.77,-200.34 161.17,-121.43 142.53,-85.05"/>
<polygon fill="#63b8ff" stroke="#63b8ff" points="145.71,-83.59 138.11,-76.2 139.44,-86.71 145.71,-83.59"/>
</a>
</g>
</g>
<!-- Node8 -->
<g id="Node000008" class="node">
<title>Node8</title>
<g id="a_Node000008"><a xlink:href="$_measurement_point_8h.html" xlink:title="Measurement point abstraction for temperature monitoring system.">
<polygon fill="white" stroke="#666666" points="500.25,-185 394.25,-185 394.25,-165.75 500.25,-165.75 500.25,-185"/>
<text xml:space="preserve" text-anchor="middle" x="447.25" y="-171.5" font-family="Helvetica,sans-Serif" font-size="10.00">MeasurementPoint.h</text>
</a>
</g>
</g>
<!-- Node1&#45;&gt;Node8 -->
<g id="edge8_Node000001_Node000008" class="edge">
<title>Node1&#45;&gt;Node8</title>
<g id="a_edge8_Node000001_Node000008"><a xlink:title=" ">
<path fill="none" stroke="#63b8ff" d="M460.1,-276C457.88,-258.75 452.92,-220.33 449.86,-196.56"/>
<polygon fill="#63b8ff" stroke="#63b8ff" points="453.36,-196.35 448.61,-186.88 446.41,-197.24 453.36,-196.35"/>
</a>
</g>
</g>
<!-- Node18 -->
<g id="Node000018" class="node">
<title>Node18</title>
<g id="a_Node000018"><a xlink:title=" ">
<polygon fill="#e0e0e0" stroke="#999999" points="1061.38,-19.25 983.12,-19.25 983.12,0 1061.38,0 1061.38,-19.25"/>
<text xml:space="preserve" text-anchor="middle" x="1022.25" y="-5.75" font-family="Helvetica,sans-Serif" font-size="10.00">ArduinoJson.h</text>
</a>
</g>
</g>
<!-- Node1&#45;&gt;Node18 -->
<g id="edge43_Node000001_Node000018" class="edge">
<title>Node1&#45;&gt;Node18</title>
<g id="a_edge43_Node000001_Node000018"><a xlink:title=" ">
<path fill="none" stroke="#63b8ff" d="M538.11,-278.94C700.4,-265.37 1063.25,-229.14 1063.25,-176.38 1063.25,-176.38 1063.25,-176.38 1063.25,-119.12 1063.25,-85.84 1046.16,-50.3 1034.04,-29.3"/>
<polygon fill="#63b8ff" stroke="#63b8ff" points="1037.07,-27.53 1028.91,-20.78 1031.07,-31.15 1037.07,-27.53"/>
</a>
</g>
</g>
<!-- Node19 -->
<g id="Node000019" class="node">
<title>Node19</title>
<g id="a_Node000019"><a xlink:href="$_register_map_8h.html" xlink:title="Modbus register mapping for temperature monitoring system.">
<polygon fill="white" stroke="#666666" points="433.12,-240.25 353.38,-240.25 353.38,-221 433.12,-221 433.12,-240.25"/>
<text xml:space="preserve" text-anchor="middle" x="393.25" y="-226.75" font-family="Helvetica,sans-Serif" font-size="10.00">RegisterMap.h</text>
</a>
</g>
</g>
<!-- Node1&#45;&gt;Node19 -->
<g id="edge24_Node000001_Node000019" class="edge">
<title>Node1&#45;&gt;Node19</title>
<g id="a_edge24_Node000001_Node000019"><a xlink:title=" ">
<path fill="none" stroke="#63b8ff" d="M449.71,-275.84C439.79,-268.07 425.24,-256.67 413.39,-247.4"/>
<polygon fill="#63b8ff" stroke="#63b8ff" points="415.84,-244.87 405.81,-241.46 411.52,-250.38 415.84,-244.87"/>
</a>
</g>
</g>
<!-- Node21 -->
<g id="Node000021" class="node">
<title>Node21</title>
<g id="a_Node000021"><a xlink:href="$_indicator_interface_8h.html" xlink:title="Hardware interface for PCF8575 I/O expander and SH1106 OLED display.">
<polygon fill="white" stroke="#666666" points="832.25,-185 732.25,-185 732.25,-165.75 832.25,-165.75 832.25,-185"/>
<text xml:space="preserve" text-anchor="middle" x="782.25" y="-171.5" font-family="Helvetica,sans-Serif" font-size="10.00">IndicatorInterface.h</text>
</a>
</g>
</g>
<!-- Node1&#45;&gt;Node21 -->
<g id="edge27_Node000001_Node000021" class="edge">
<title>Node1&#45;&gt;Node21</title>
<g id="a_edge27_Node000001_Node000021"><a xlink:title=" ">
<path fill="none" stroke="#63b8ff" d="M488.07,-275.81C545.19,-256.5 678.98,-211.28 744.61,-189.1"/>
<polygon fill="#63b8ff" stroke="#63b8ff" points="745.5,-192.49 753.85,-185.97 743.26,-185.86 745.5,-192.49"/>
</a>
</g>
</g>
<!-- Node26 -->
<g id="Node000026" class="node">
<title>Node26</title>
<g id="a_Node000026"><a xlink:href="$_alarm_8h.html" xlink:title="Alarm management system for temperature monitoring.">
<polygon fill="white" stroke="#666666" points="553.12,-240.25 503.38,-240.25 503.38,-221 553.12,-221 553.12,-240.25"/>
<text xml:space="preserve" text-anchor="middle" x="528.25" y="-226.75" font-family="Helvetica,sans-Serif" font-size="10.00">Alarm.h</text>
</a>
</g>
</g>
<!-- Node1&#45;&gt;Node26 -->
<g id="edge36_Node000001_Node000026" class="edge">
<title>Node1&#45;&gt;Node26</title>
<g id="a_edge36_Node000001_Node000026"><a xlink:title=" ">
<path fill="none" stroke="#63b8ff" d="M472.62,-275.84C482.3,-268.15 496.45,-256.9 508.06,-247.68"/>
<polygon fill="#63b8ff" stroke="#63b8ff" points="510.22,-250.43 515.87,-241.47 505.86,-244.95 510.22,-250.43"/>
</a>
</g>
</g>
<!-- Node27 -->
<g id="Node000027" class="node">
<title>Node27</title>
<g id="a_Node000027"><a xlink:title=" ">
<polygon fill="#e0e0e0" stroke="#999999" points="1147.12,-240.25 1091.38,-240.25 1091.38,-221 1147.12,-221 1147.12,-240.25"/>
<text xml:space="preserve" text-anchor="middle" x="1119.25" y="-226.75" font-family="Helvetica,sans-Serif" font-size="10.00">algorithm</text>
</a>
</g>
</g>
<!-- Node1&#45;&gt;Node27 -->
<g id="edge44_Node000001_Node000027" class="edge">
<title>Node1&#45;&gt;Node27</title>
<g id="a_edge44_Node000001_Node000027"><a xlink:title=" ">
<path fill="none" stroke="#63b8ff" d="M537.93,-282.53C654.78,-278.23 884.21,-266.95 1077.25,-240.25 1078.25,-240.11 1079.26,-239.96 1080.28,-239.81"/>
<polygon fill="#63b8ff" stroke="#63b8ff" points="1080.58,-243.31 1089.83,-238.15 1079.38,-236.41 1080.58,-243.31"/>
</a>
</g>
</g>
<!-- Node4&#45;&gt;Node2 -->
<g id="edge4_Node000004_Node000002" class="edge">
<title>Node4&#45;&gt;Node2</title>
<g id="a_edge4_Node000004_Node000002"><a xlink:title=" ">
<path fill="none" stroke="#63b8ff" d="M275.58,-110.08C295.92,-97.37 334.44,-73.69 368.25,-55.25 388.16,-44.39 411.06,-33.05 428.78,-24.52"/>
<polygon fill="#63b8ff" stroke="#63b8ff" points="430.19,-27.73 437.7,-20.26 427.17,-21.41 430.19,-27.73"/>
</a>
</g>
</g>
<!-- Node4&#45;&gt;Node5 -->
<g id="edge5_Node000004_Node000005" class="edge">
<title>Node4&#45;&gt;Node5</title>
<g id="a_edge5_Node000004_Node000005"><a xlink:title=" ">
<path fill="none" stroke="#63b8ff" d="M233.96,-112.81C194.39,-103.65 120.69,-86.58 73.9,-75.75"/>
<polygon fill="#63b8ff" stroke="#63b8ff" points="74.92,-72.39 64.39,-73.55 73.34,-79.21 74.92,-72.39"/>
</a>
</g>
</g>
<!-- Node4&#45;&gt;Node6 -->
<g id="edge6_Node000004_Node000006" class="edge">
<title>Node4&#45;&gt;Node6</title>
<g id="a_edge6_Node000004_Node000006"><a xlink:title=" ">
<path fill="none" stroke="#63b8ff" d="M239.54,-110.09C219.22,-101.64 188.6,-88.9 165.44,-79.27"/>
<polygon fill="#63b8ff" stroke="#63b8ff" points="167.04,-76.14 156.47,-75.53 164.36,-82.61 167.04,-76.14"/>
</a>
</g>
</g>
<!-- Node7 -->
<g id="Node000007" class="node">
<title>Node7</title>
<g id="a_Node000007"><a xlink:title=" ">
<polygon fill="#e0e0e0" stroke="#999999" points="315.88,-74.5 204.62,-74.5 204.62,-55.25 315.88,-55.25 315.88,-74.5"/>
<text xml:space="preserve" text-anchor="middle" x="260.25" y="-61" font-family="Helvetica,sans-Serif" font-size="10.00">Adafruit_MAX31865.h</text>
</a>
</g>
</g>
<!-- Node4&#45;&gt;Node7 -->
<g id="edge7_Node000004_Node000007" class="edge">
<title>Node4&#45;&gt;Node7</title>
<g id="a_edge7_Node000004_Node000007"><a xlink:title=" ">
<path fill="none" stroke="#63b8ff" d="M261.08,-110.33C260.96,-103.82 260.79,-94.67 260.63,-86.37"/>
<polygon fill="#63b8ff" stroke="#63b8ff" points="264.13,-86.3 260.45,-76.37 257.14,-86.44 264.13,-86.3"/>
</a>
</g>
</g>
<!-- Node8&#45;&gt;Node2 -->
<g id="edge9_Node000008_Node000002" class="edge">
<title>Node8&#45;&gt;Node2</title>
<g id="a_edge9_Node000008_Node000002"><a xlink:title=" ">
<path fill="none" stroke="#63b8ff" d="M445.94,-165.34C443.29,-145.35 438.02,-95.94 444.25,-55.25 445.52,-46.93 448.06,-38.03 450.63,-30.38"/>
<polygon fill="#63b8ff" stroke="#63b8ff" points="453.89,-31.68 454,-21.08 447.3,-29.29 453.89,-31.68"/>
</a>
</g>
</g>
<!-- Node8&#45;&gt;Node4 -->
<g id="edge10_Node000008_Node000004" class="edge">
<title>Node8&#45;&gt;Node4</title>
<g id="a_edge10_Node000008_Node000004"><a xlink:title=" ">
<path fill="none" stroke="#63b8ff" d="M415.7,-165.34C383.66,-156.17 334.03,-141.96 299.71,-132.14"/>
<polygon fill="#63b8ff" stroke="#63b8ff" points="300.74,-128.79 290.16,-129.4 298.81,-135.52 300.74,-128.79"/>
</a>
</g>
</g>
<!-- Node9 -->
<g id="Node000009" class="node">
<title>Node9</title>
<g id="a_Node000009"><a xlink:href="$_logger_manager_8h.html" xlink:title="Comprehensive data and event logging system for temperature monitoring.">
<polygon fill="white" stroke="#666666" points="576.38,-129.75 486.12,-129.75 486.12,-110.5 576.38,-110.5 576.38,-129.75"/>
<text xml:space="preserve" text-anchor="middle" x="531.25" y="-116.25" font-family="Helvetica,sans-Serif" font-size="10.00">LoggerManager.h</text>
</a>
</g>
</g>
<!-- Node8&#45;&gt;Node9 -->
<g id="edge11_Node000008_Node000009" class="edge">
<title>Node8&#45;&gt;Node9</title>
<g id="a_edge11_Node000008_Node000009"><a xlink:title=" ">
<path fill="none" stroke="#63b8ff" d="M461.5,-165.34C474.05,-157.39 492.58,-145.64 507.39,-136.25"/>
<polygon fill="#63b8ff" stroke="#63b8ff" points="509.08,-139.32 515.65,-131.01 505.33,-133.41 509.08,-139.32"/>
</a>
</g>
</g>
<!-- Node9&#45;&gt;Node2 -->
<g id="edge12_Node000009_Node000002" class="edge">
<title>Node9&#45;&gt;Node2</title>
<g id="a_edge12_Node000009_Node000002"><a xlink:title=" ">
<path fill="none" stroke="#63b8ff" d="M525.28,-110.25C513.35,-92.52 486.39,-52.44 470.53,-28.88"/>
<polygon fill="#63b8ff" stroke="#63b8ff" points="473.64,-27.23 465.15,-20.88 467.83,-31.13 473.64,-27.23"/>
</a>
</g>
</g>
<!-- Node9&#45;&gt;Node3 -->
<g id="edge23_Node000009_Node000003" class="edge">
<title>Node9&#45;&gt;Node3</title>
<g id="a_edge23_Node000009_Node000003"><a xlink:title=" ">
<path fill="none" stroke="#63b8ff" d="M576.56,-111.94C645.25,-101.06 774.09,-80.64 834.46,-71.07"/>
<polygon fill="#63b8ff" stroke="#63b8ff" points="834.76,-74.57 844.09,-69.55 833.67,-67.65 834.76,-74.57"/>
</a>
</g>
</g>
<!-- Node10 -->
<g id="Node000010" class="node">
<title>Node10</title>
<g id="a_Node000010"><a xlink:title=" ">
<polygon fill="#e0e0e0" stroke="#999999" points="561.75,-74.5 524.75,-74.5 524.75,-55.25 561.75,-55.25 561.75,-74.5"/>
<text xml:space="preserve" text-anchor="middle" x="543.25" y="-61" font-family="Helvetica,sans-Serif" font-size="10.00">FS.h</text>
</a>
</g>
</g>
<!-- Node9&#45;&gt;Node10 -->
<g id="edge13_Node000009_Node000010" class="edge">
<title>Node9&#45;&gt;Node10</title>
<g id="a_edge13_Node000009_Node000010"><a xlink:title=" ">
<path fill="none" stroke="#63b8ff" d="M533.23,-110.33C534.72,-103.74 536.81,-94.46 538.7,-86.07"/>
<polygon fill="#63b8ff" stroke="#63b8ff" points="542.11,-86.86 540.89,-76.34 535.28,-85.32 542.11,-86.86"/>
</a>
</g>
</g>
<!-- Node11 -->
<g id="Node000011" class="node">
<title>Node11</title>
<g id="a_Node000011"><a xlink:title=" ">
<polygon fill="#e0e0e0" stroke="#999999" points="618.5,-74.5 580,-74.5 580,-55.25 618.5,-55.25 618.5,-74.5"/>
<text xml:space="preserve" text-anchor="middle" x="599.25" y="-61" font-family="Helvetica,sans-Serif" font-size="10.00">SD.h</text>
</a>
</g>
</g>
<!-- Node9&#45;&gt;Node11 -->
<g id="edge14_Node000009_Node000011" class="edge">
<title>Node9&#45;&gt;Node11</title>
<g id="a_edge14_Node000009_Node000011"><a xlink:title=" ">
<path fill="none" stroke="#63b8ff" d="M542.79,-110.09C552.71,-102.32 567.26,-90.92 579.11,-81.65"/>
<polygon fill="#63b8ff" stroke="#63b8ff" points="580.98,-84.63 586.69,-75.71 576.66,-79.12 580.98,-84.63"/>
</a>
</g>
</g>
<!-- Node12 -->
<g id="Node000012" class="node">
<title>Node12</title>
<g id="a_Node000012"><a xlink:href="$_time_manager_8h.html" xlink:title="Real&#45;time clock and time synchronization management.">
<polygon fill="white" stroke="#666666" points="780.62,-74.5 697.88,-74.5 697.88,-55.25 780.62,-55.25 780.62,-74.5"/>
<text xml:space="preserve" text-anchor="middle" x="739.25" y="-61" font-family="Helvetica,sans-Serif" font-size="10.00">TimeManager.h</text>
</a>
</g>
</g>
<!-- Node9&#45;&gt;Node12 -->
<g id="edge15_Node000009_Node000012" class="edge">
<title>Node9&#45;&gt;Node12</title>
<g id="a_edge15_Node000009_Node000012"><a xlink:title=" ">
<path fill="none" stroke="#63b8ff" d="M566.53,-110.09C601.35,-101.18 654.75,-87.51 692.96,-77.73"/>
<polygon fill="#63b8ff" stroke="#63b8ff" points="693.51,-81.2 702.33,-75.33 691.77,-74.42 693.51,-81.2"/>
</a>
</g>
</g>
<!-- Node12&#45;&gt;Node2 -->
<g id="edge16_Node000012_Node000002" class="edge">
<title>Node12&#45;&gt;Node2</title>
<g id="a_edge16_Node000012_Node000002"><a xlink:title=" ">
<path fill="none" stroke="#63b8ff" d="M697.48,-55.96C643.9,-45.81 551.57,-28.31 498.65,-18.28"/>
<polygon fill="#63b8ff" stroke="#63b8ff" points="499.32,-14.85 488.84,-16.42 498.01,-21.72 499.32,-14.85"/>
</a>
</g>
</g>
<!-- Node13 -->
<g id="Node000013" class="node">
<title>Node13</title>
<g id="a_Node000013"><a xlink:title=" ">
<polygon fill="#e0e0e0" stroke="#999999" points="873.5,-19.25 829,-19.25 829,0 873.5,0 873.5,-19.25"/>
<text xml:space="preserve" text-anchor="middle" x="851.25" y="-5.75" font-family="Helvetica,sans-Serif" font-size="10.00">WiFi.h</text>
</a>
</g>
</g>
<!-- Node12&#45;&gt;Node13 -->
<g id="edge17_Node000012_Node000013" class="edge">
<title>Node12&#45;&gt;Node13</title>
<g id="a_edge17_Node000012_Node000013"><a xlink:title=" ">
<path fill="none" stroke="#63b8ff" d="M758.25,-54.84C775.71,-46.54 801.85,-34.11 821.97,-24.54"/>
<polygon fill="#63b8ff" stroke="#63b8ff" points="823.26,-27.81 830.79,-20.35 820.26,-21.49 823.26,-27.81"/>
</a>
</g>
</g>
<!-- Node14 -->
<g id="Node000014" class="node">
<title>Node14</title>
<g id="a_Node000014"><a xlink:title=" ">
<polygon fill="#e0e0e0" stroke="#999999" points="955.5,-19.25 911,-19.25 911,0 955.5,0 955.5,-19.25"/>
<text xml:space="preserve" text-anchor="middle" x="933.25" y="-5.75" font-family="Helvetica,sans-Serif" font-size="10.00">Wire.h</text>
</a>
</g>
</g>
<!-- Node12&#45;&gt;Node14 -->
<g id="edge18_Node000012_Node000014" class="edge">
<title>Node12&#45;&gt;Node14</title>
<g id="a_edge18_Node000012_Node000014"><a xlink:title=" ">
<path fill="none" stroke="#63b8ff" d="M772.16,-54.84C807.67,-45.1 863.91,-29.66 899.68,-19.84"/>
<polygon fill="#63b8ff" stroke="#63b8ff" points="900.34,-23.29 909.06,-17.27 898.49,-16.54 900.34,-23.29"/>
</a>
</g>
</g>
<!-- Node15 -->
<g id="Node000015" class="node">
<title>Node15</title>
<g id="a_Node000015"><a xlink:title=" ">
<polygon fill="#e0e0e0" stroke="#999999" points="641.75,-19.25 586.75,-19.25 586.75,0 641.75,0 641.75,-19.25"/>
<text xml:space="preserve" text-anchor="middle" x="614.25" y="-5.75" font-family="Helvetica,sans-Serif" font-size="10.00">RTClib.h</text>
</a>
</g>
</g>
<!-- Node12&#45;&gt;Node15 -->
<g id="edge19_Node000012_Node000015" class="edge">
<title>Node12&#45;&gt;Node15</title>
<g id="a_edge19_Node000012_Node000015"><a xlink:title=" ">
<path fill="none" stroke="#63b8ff" d="M718.05,-54.84C698.29,-46.43 668.58,-33.77 646,-24.15"/>
<polygon fill="#63b8ff" stroke="#63b8ff" points="647.52,-20.99 636.95,-20.3 644.78,-27.43 647.52,-20.99"/>
</a>
</g>
</g>
<!-- Node16 -->
<g id="Node000016" class="node">
<title>Node16</title>
<g id="a_Node000016"><a xlink:title=" ">
<polygon fill="#e0e0e0" stroke="#999999" points="730.25,-19.25 660.25,-19.25 660.25,0 730.25,0 730.25,-19.25"/>
<text xml:space="preserve" text-anchor="middle" x="695.25" y="-5.75" font-family="Helvetica,sans-Serif" font-size="10.00">NTPClient.h</text>
</a>
</g>
</g>
<!-- Node12&#45;&gt;Node16 -->
<g id="edge20_Node000012_Node000016" class="edge">
<title>Node12&#45;&gt;Node16</title>
<g id="a_edge20_Node000012_Node000016"><a xlink:title=" ">
<path fill="none" stroke="#63b8ff" d="M731.98,-55.08C725.97,-47.8 717.24,-37.23 709.79,-28.23"/>
<polygon fill="#63b8ff" stroke="#63b8ff" points="712.71,-26.26 703.64,-20.78 707.31,-30.71 712.71,-26.26"/>
</a>
</g>
</g>
<!-- Node17 -->
<g id="Node000017" class="node">
<title>Node17</title>
<g id="a_Node000017"><a xlink:title=" ">
<polygon fill="#e0e0e0" stroke="#999999" points="810.5,-19.25 748,-19.25 748,0 810.5,0 810.5,-19.25"/>
<text xml:space="preserve" text-anchor="middle" x="779.25" y="-5.75" font-family="Helvetica,sans-Serif" font-size="10.00">WiFiUdp.h</text>
</a>
</g>
</g>
<!-- Node12&#45;&gt;Node17 -->
<g id="edge21_Node000012_Node000017" class="edge">
<title>Node12&#45;&gt;Node17</title>
<g id="a_edge21_Node000012_Node000017"><a xlink:title=" ">
<path fill="none" stroke="#63b8ff" d="M745.86,-55.08C751.21,-47.96 758.93,-37.68 765.6,-28.8"/>
<polygon fill="#63b8ff" stroke="#63b8ff" points="768.38,-30.92 771.59,-20.82 762.79,-26.71 768.38,-30.92"/>
</a>
</g>
</g>
<!-- Node12&#45;&gt;Node18 -->
<g id="edge22_Node000012_Node000018" class="edge">
<title>Node12&#45;&gt;Node18</title>
<g id="a_edge22_Node000012_Node000018"><a xlink:title=" ">
<path fill="none" stroke="#63b8ff" d="M781.01,-56.02C831.82,-46.46 917.55,-30.33 971.95,-20.09"/>
<polygon fill="#63b8ff" stroke="#63b8ff" points="972.39,-23.57 981.57,-18.28 971.1,-16.69 972.39,-23.57"/>
</a>
</g>
</g>
<!-- Node19&#45;&gt;Node8 -->
<g id="edge26_Node000019_Node000008" class="edge">
<title>Node19&#45;&gt;Node8</title>
<g id="a_edge26_Node000019_Node000008"><a xlink:title=" ">
<path fill="none" stroke="#63b8ff" d="M402.17,-220.83C409.7,-213.4 420.72,-202.54 429.98,-193.41"/>
<polygon fill="#63b8ff" stroke="#63b8ff" points="432.4,-195.94 437.06,-186.42 427.48,-190.95 432.4,-195.94"/>
</a>
</g>
</g>
<!-- Node20 -->
<g id="Node000020" class="node">
<title>Node20</title>
<g id="a_Node000020"><a xlink:title=" ">
<polygon fill="#e0e0e0" stroke="#999999" points="376.38,-185 328.12,-185 328.12,-165.75 376.38,-165.75 376.38,-185"/>
<text xml:space="preserve" text-anchor="middle" x="352.25" y="-171.5" font-family="Helvetica,sans-Serif" font-size="10.00">stdint.h</text>
</a>
</g>
</g>
<!-- Node19&#45;&gt;Node20 -->
<g id="edge25_Node000019_Node000020" class="edge">
<title>Node19&#45;&gt;Node20</title>
<g id="a_edge25_Node000019_Node000020"><a xlink:title=" ">
<path fill="none" stroke="#63b8ff" d="M386.48,-220.83C380.93,-213.63 372.91,-203.21 366.02,-194.26"/>
<polygon fill="#63b8ff" stroke="#63b8ff" points="368.96,-192.35 360.09,-186.56 363.42,-196.62 368.96,-192.35"/>
</a>
</g>
</g>
<!-- Node21&#45;&gt;Node2 -->
<g id="edge28_Node000021_Node000002" class="edge">
<title>Node21&#45;&gt;Node2</title>
<g id="a_edge28_Node000021_Node000002"><a xlink:title=" ">
<path fill="none" stroke="#63b8ff" d="M732.16,-165.28C708.3,-158.79 680.78,-147.87 661.25,-129.75 634.57,-104.99 655.08,-78.71 627.25,-55.25 591.03,-24.72 536.14,-14.83 498.82,-11.76"/>
<polygon fill="#63b8ff" stroke="#63b8ff" points="499.09,-8.27 488.88,-11.09 498.62,-15.25 499.09,-8.27"/>
</a>
</g>
</g>
<!-- Node21&#45;&gt;Node3 -->
<g id="edge34_Node000021_Node000003" class="edge">
<title>Node21&#45;&gt;Node3</title>
<g id="a_edge34_Node000021_Node000003"><a xlink:title=" ">
<path fill="none" stroke="#63b8ff" d="M821.19,-165.36C840.07,-158.81 861.03,-147.83 872.25,-129.75 880.33,-116.72 878.26,-99.21 874.63,-85.82"/>
<polygon fill="#63b8ff" stroke="#63b8ff" points="877.98,-84.8 871.57,-76.36 871.32,-86.95 877.98,-84.8"/>
</a>
</g>
</g>
<!-- Node21&#45;&gt;Node9 -->
<g id="edge35_Node000021_Node000009" class="edge">
<title>Node21&#45;&gt;Node9</title>
<g id="a_edge35_Node000021_Node000009"><a xlink:title=" ">
<path fill="none" stroke="#63b8ff" d="M739.39,-165.28C696.7,-156.23 631.05,-142.3 584.93,-132.51"/>
<polygon fill="#63b8ff" stroke="#63b8ff" points="585.93,-129.15 575.42,-130.5 584.47,-135.99 585.93,-129.15"/>
</a>
</g>
</g>
<!-- Node21&#45;&gt;Node14 -->
<g id="edge29_Node000021_Node000014" class="edge">
<title>Node21&#45;&gt;Node14</title>
<g id="a_edge29_Node000021_Node000014"><a xlink:title=" ">
<path fill="none" stroke="#63b8ff" d="M832.33,-169.29C881.54,-163.13 951.6,-150.87 968.25,-129.75 991.94,-99.7 965.94,-54.03 947.78,-28.87"/>
<polygon fill="#63b8ff" stroke="#63b8ff" points="950.6,-26.8 941.78,-20.93 945.02,-31.02 950.6,-26.8"/>
</a>
</g>
</g>
<!-- Node22 -->
<g id="Node000022" class="node">
<title>Node22</title>
<g id="a_Node000022"><a xlink:title=" ">
<polygon fill="#e0e0e0" stroke="#999999" points="863.62,-129.75 828.88,-129.75 828.88,-110.5 863.62,-110.5 863.62,-129.75"/>
<text xml:space="preserve" text-anchor="middle" x="846.25" y="-116.25" font-family="Helvetica,sans-Serif" font-size="10.00">map</text>
</a>
</g>
</g>
<!-- Node21&#45;&gt;Node22 -->
<g id="edge30_Node000021_Node000022" class="edge">
<title>Node21&#45;&gt;Node22</title>
<g id="a_edge30_Node000021_Node000022"><a xlink:title=" ">
<path fill="none" stroke="#63b8ff" d="M793.11,-165.34C802.36,-157.65 815.87,-146.4 826.96,-137.18"/>
<polygon fill="#63b8ff" stroke="#63b8ff" points="828.94,-140.08 834.39,-130.99 824.46,-134.7 828.94,-140.08"/>
</a>
</g>
</g>
<!-- Node23 -->
<g id="Node000023" class="node">
<title>Node23</title>
<g id="a_Node000023"><a xlink:title=" ">
<polygon fill="#e0e0e0" stroke="#999999" points="959.25,-129.75 919.25,-129.75 919.25,-110.5 959.25,-110.5 959.25,-129.75"/>
<text xml:space="preserve" text-anchor="middle" x="939.25" y="-116.25" font-family="Helvetica,sans-Serif" font-size="10.00">string</text>
</a>
</g>
</g>
<!-- Node21&#45;&gt;Node23 -->
<g id="edge31_Node000021_Node000023" class="edge">
<title>Node21&#45;&gt;Node23</title>
<g id="a_edge31_Node000021_Node000023"><a xlink:title=" ">
<path fill="none" stroke="#63b8ff" d="M808.88,-165.34C836.38,-156.02 879.24,-141.48 908.24,-131.64"/>
<polygon fill="#63b8ff" stroke="#63b8ff" points="909.21,-135.01 917.56,-128.48 906.96,-128.38 909.21,-135.01"/>
</a>
</g>
</g>
<!-- Node24 -->
<g id="Node000024" class="node">
<title>Node24</title>
<g id="a_Node000024"><a xlink:title=" ">
<polygon fill="#e0e0e0" stroke="#999999" points="736,-129.75 670.5,-129.75 670.5,-110.5 736,-110.5 736,-129.75"/>
<text xml:space="preserve" text-anchor="middle" x="703.25" y="-116.25" font-family="Helvetica,sans-Serif" font-size="10.00">PCF8575.h</text>
</a>
</g>
</g>
<!-- Node21&#45;&gt;Node24 -->
<g id="edge32_Node000021_Node000024" class="edge">
<title>Node21&#45;&gt;Node24</title>
<g id="a_edge32_Node000021_Node000024"><a xlink:title=" ">
<path fill="none" stroke="#63b8ff" d="M768.85,-165.34C757.16,-157.46 739.95,-145.86 726.09,-136.52"/>
<polygon fill="#63b8ff" stroke="#63b8ff" points="728.22,-133.74 717.97,-131.05 724.31,-139.54 728.22,-133.74"/>
</a>
</g>
</g>
<!-- Node25 -->
<g id="Node000025" class="node">
<title>Node25</title>
<g id="a_Node000025"><a xlink:title=" ">
<polygon fill="#e0e0e0" stroke="#999999" points="810.88,-129.75 753.62,-129.75 753.62,-110.5 810.88,-110.5 810.88,-129.75"/>
<text xml:space="preserve" text-anchor="middle" x="782.25" y="-116.25" font-family="Helvetica,sans-Serif" font-size="10.00">U8g2lib.h</text>
</a>
</g>
</g>
<!-- Node21&#45;&gt;Node25 -->
<g id="edge33_Node000021_Node000025" class="edge">
<title>Node21&#45;&gt;Node25</title>
<g id="a_edge33_Node000021_Node000025"><a xlink:title=" ">
<path fill="none" stroke="#63b8ff" d="M782.25,-165.58C782.25,-159.07 782.25,-149.92 782.25,-141.62"/>
<polygon fill="#63b8ff" stroke="#63b8ff" points="785.75,-141.62 782.25,-131.62 778.75,-141.62 785.75,-141.62"/>
</a>
</g>
</g>
<!-- Node26&#45;&gt;Node2 -->
<g id="edge37_Node000026_Node000002" class="edge">
<title>Node26&#45;&gt;Node2</title>
<g id="a_edge37_Node000026_Node000002"><a xlink:title=" ">
<path fill="none" stroke="#63b8ff" d="M526.9,-220.89C524.66,-208.13 519.38,-183.95 509.25,-165.75 498.84,-147.04 486.41,-149.1 477.25,-129.75 461.97,-97.5 458.62,-55.41 458.08,-30.87"/>
<polygon fill="#63b8ff" stroke="#63b8ff" points="461.58,-30.98 458.02,-21 454.58,-31.02 461.58,-30.98"/>
</a>
</g>
</g>
<!-- Node26&#45;&gt;Node3 -->
<g id="edge38_Node000026_Node000003" class="edge">
<title>Node26&#45;&gt;Node3</title>
<g id="a_edge38_Node000026_Node000003"><a xlink:title=" ">
<path fill="none" stroke="#63b8ff" d="M535.24,-220.76C553.41,-198.4 604.65,-139.39 661.25,-110.5 691.12,-95.25 783.83,-78.96 834.08,-70.94"/>
<polygon fill="#63b8ff" stroke="#63b8ff" points="834.46,-74.42 843.79,-69.41 833.37,-67.51 834.46,-74.42"/>
</a>
</g>
</g>
<!-- Node26&#45;&gt;Node8 -->
<g id="edge39_Node000026_Node000008" class="edge">
<title>Node26&#45;&gt;Node8</title>
<g id="a_edge39_Node000026_Node000008"><a xlink:title=" ">
<path fill="none" stroke="#63b8ff" d="M514.51,-220.59C502.52,-212.71 484.88,-201.11 470.67,-191.77"/>
<polygon fill="#63b8ff" stroke="#63b8ff" points="472.6,-188.85 462.32,-186.28 468.76,-194.7 472.6,-188.85"/>
</a>
</g>
</g>
<!-- Node26&#45;&gt;Node9 -->
<g id="edge40_Node000026_Node000009" class="edge">
<title>Node26&#45;&gt;Node9</title>
<g id="a_edge40_Node000026_Node000009"><a xlink:title=" ">
<path fill="none" stroke="#63b8ff" d="M531.98,-220.59C535.43,-211.71 540.31,-197.68 542.25,-185 544.52,-170.16 541.44,-153.45 537.97,-140.84"/>
<polygon fill="#63b8ff" stroke="#63b8ff" points="541.42,-140.17 535.13,-131.65 534.74,-142.24 541.42,-140.17"/>
</a>
</g>
</g>
</g>
</svg>
