<?xml version="1.0" encoding="UTF-8" standalone="no"?>
<!DOCTYPE svg PUBLIC "-//W3C//DTD SVG 1.1//EN"
 "http://www.w3.org/Graphics/SVG/1.1/DTD/svg11.dtd">
<!-- Generated by graphviz version 13.1.0 (20250701.0955)
 -->
<!-- Title: src/TemperatureController.cpp Pages: 1 -->
<svg width="1275pt" height="469pt"
 viewBox="0.00 0.00 1275.00 469.00" xmlns="http://www.w3.org/2000/svg" xmlns:xlink="http://www.w3.org/1999/xlink">
<g id="graph0" class="graph" transform="scale(1 1) rotate(0) translate(4 465.25)">
<title>src/TemperatureController.cpp</title>
<!-- Node1 -->
<g id="Node000001" class="node">
<title>Node1</title>
<g id="a_Node000001"><a xlink:title="Implementation of the central temperature monitoring and control system.">
<polygon fill="#999999" stroke="#666666" points="486.25,-461.25 339.75,-461.25 339.75,-442 486.25,-442 486.25,-461.25"/>
<text xml:space="preserve" text-anchor="middle" x="413" y="-447.75" font-family="Helvetica,sans-Serif" font-size="10.00">src/TemperatureController.cpp</text>
</a>
</g>
</g>
<!-- Node2 -->
<g id="Node000002" class="node">
<title>Node2</title>
<g id="a_Node000002"><a xlink:href="_temperature_controller_8h.html" target="_top" xlink:title="Central temperature monitoring and control system.">
<polygon fill="white" stroke="#666666" points="550.75,-295.5 431.25,-295.5 431.25,-276.25 550.75,-276.25 550.75,-295.5"/>
<text xml:space="preserve" text-anchor="middle" x="491" y="-282" font-family="Helvetica,sans-Serif" font-size="10.00">TemperatureController.h</text>
</a>
</g>
</g>
<!-- Node1&#45;&gt;Node2 -->
<g id="edge1_Node000001_Node000002" class="edge">
<title>Node1&#45;&gt;Node2</title>
<g id="a_edge1_Node000001_Node000002"><a xlink:title=" ">
<path fill="none" stroke="#63b8ff" d="M426.78,-441.66C438.58,-433.46 455.45,-420.44 467,-406 484.19,-384.5 488.6,-377.53 495,-350.75 498.45,-336.32 497.21,-319.57 495.24,-306.84"/>
<polygon fill="#63b8ff" stroke="#63b8ff" points="498.71,-306.37 493.44,-297.18 491.83,-307.65 498.71,-306.37"/>
</a>
</g>
</g>
<!-- Node14 -->
<g id="Node000014" class="node">
<title>Node14</title>
<g id="a_Node000014"><a xlink:title=" ">
<polygon fill="#e0e0e0" stroke="#999999" points="248.25,-19.25 203.75,-19.25 203.75,0 248.25,0 248.25,-19.25"/>
<text xml:space="preserve" text-anchor="middle" x="226" y="-5.75" font-family="Helvetica,sans-Serif" font-size="10.00">WiFi.h</text>
</a>
</g>
</g>
<!-- Node1&#45;&gt;Node14 -->
<g id="edge46_Node000001_Node000014" class="edge">
<title>Node1&#45;&gt;Node14</title>
<g id="a_edge46_Node000001_Node000014"><a xlink:title=" ">
<path fill="none" stroke="#63b8ff" d="M339.64,-446.37C220.96,-437.45 0,-411.53 0,-342.12 0,-342.12 0,-342.12 0,-119.12 0,-34.9 129.16,-16.01 192.19,-11.81"/>
<polygon fill="#63b8ff" stroke="#63b8ff" points="192.21,-15.31 201.99,-11.25 191.81,-8.32 192.21,-15.31"/>
</a>
</g>
</g>
<!-- Node29 -->
<g id="Node000029" class="node">
<title>Node29</title>
<g id="a_Node000029"><a xlink:href="_config_manager_8h.html" target="_top" xlink:title="Configuration management system for temperature monitoring device.">
<polygon fill="white" stroke="#666666" points="457.75,-406 368.25,-406 368.25,-386.75 457.75,-386.75 457.75,-406"/>
<text xml:space="preserve" text-anchor="middle" x="413" y="-392.5" font-family="Helvetica,sans-Serif" font-size="10.00">ConfigManager.h</text>
</a>
</g>
</g>
<!-- Node1&#45;&gt;Node29 -->
<g id="edge47_Node000001_Node000029" class="edge">
<title>Node1&#45;&gt;Node29</title>
<g id="a_edge47_Node000001_Node000029"><a xlink:title=" ">
<path fill="none" stroke="#63b8ff" d="M413,-441.83C413,-435.32 413,-426.17 413,-417.87"/>
<polygon fill="#63b8ff" stroke="#63b8ff" points="416.5,-417.87 413,-407.87 409.5,-417.87 416.5,-417.87"/>
</a>
</g>
</g>
<!-- Node3 -->
<g id="Node000003" class="node">
<title>Node3</title>
<g id="a_Node000003"><a xlink:title=" ">
<polygon fill="#e0e0e0" stroke="#999999" points="574.62,-19.25 517.38,-19.25 517.38,0 574.62,0 574.62,-19.25"/>
<text xml:space="preserve" text-anchor="middle" x="546" y="-5.75" font-family="Helvetica,sans-Serif" font-size="10.00">Arduino.h</text>
</a>
</g>
</g>
<!-- Node2&#45;&gt;Node3 -->
<g id="edge2_Node000002_Node000003" class="edge">
<title>Node2&#45;&gt;Node3</title>
<g id="a_edge2_Node000002_Node000003"><a xlink:title=" ">
<path fill="none" stroke="#63b8ff" d="M496.16,-275.92C506.11,-257.77 527,-215.08 527,-176.38 527,-176.38 527,-176.38 527,-119.12 527,-87.79 534.78,-52.12 540.39,-30.5"/>
<polygon fill="#63b8ff" stroke="#63b8ff" points="543.72,-31.56 542.96,-21 536.97,-29.73 543.72,-31.56"/>
</a>
</g>
</g>
<!-- Node4 -->
<g id="Node000004" class="node">
<title>Node4</title>
<g id="a_Node000004"><a xlink:title=" ">
<polygon fill="#e0e0e0" stroke="#999999" points="646.5,-74.5 603.5,-74.5 603.5,-55.25 646.5,-55.25 646.5,-74.5"/>
<text xml:space="preserve" text-anchor="middle" x="625" y="-61" font-family="Helvetica,sans-Serif" font-size="10.00">vector</text>
</a>
</g>
</g>
<!-- Node2&#45;&gt;Node4 -->
<g id="edge3_Node000002_Node000004" class="edge">
<title>Node2&#45;&gt;Node4</title>
<g id="a_edge3_Node000002_Node000004"><a xlink:title=" ">
<path fill="none" stroke="#63b8ff" d="M551.14,-277.03C574.35,-270.87 598.89,-259.86 614,-240.25 649.12,-194.67 638.23,-120.89 630.24,-85.73"/>
<polygon fill="#63b8ff" stroke="#63b8ff" points="633.66,-84.99 627.87,-76.12 626.86,-86.67 633.66,-84.99"/>
</a>
</g>
</g>
<!-- Node5 -->
<g id="Node000005" class="node">
<title>Node5</title>
<g id="a_Node000005"><a xlink:href="_sensor_8h.html" target="_top" xlink:title="Temperature sensor abstraction layer.">
<polygon fill="white" stroke="#666666" points="335.12,-129.75 280.88,-129.75 280.88,-110.5 335.12,-110.5 335.12,-129.75"/>
<text xml:space="preserve" text-anchor="middle" x="308" y="-116.25" font-family="Helvetica,sans-Serif" font-size="10.00">Sensor.h</text>
</a>
</g>
</g>
<!-- Node2&#45;&gt;Node5 -->
<g id="edge4_Node000002_Node000005" class="edge">
<title>Node2&#45;&gt;Node5</title>
<g id="a_edge4_Node000002_Node000005"><a xlink:title=" ">
<path fill="none" stroke="#63b8ff" d="M430.86,-279.08C380.54,-272.84 314.43,-260.91 298,-240.25 275.26,-211.65 288.52,-166.06 299.03,-140.36"/>
<polygon fill="#63b8ff" stroke="#63b8ff" points="302.11,-142.04 302.91,-131.48 295.7,-139.23 302.11,-142.04"/>
</a>
</g>
</g>
<!-- Node6 -->
<g id="Node000006" class="node">
<title>Node6</title>
<g id="a_Node000006"><a xlink:title=" ">
<polygon fill="#e0e0e0" stroke="#999999" points="169.25,-74.5 106.75,-74.5 106.75,-55.25 169.25,-55.25 169.25,-74.5"/>
<text xml:space="preserve" text-anchor="middle" x="138" y="-61" font-family="Helvetica,sans-Serif" font-size="10.00">OneWire.h</text>
</a>
</g>
</g>
<!-- Node2&#45;&gt;Node6 -->
<g id="edge42_Node000002_Node000006" class="edge">
<title>Node2&#45;&gt;Node6</title>
<g id="a_edge42_Node000002_Node000006"><a xlink:title=" ">
<path fill="none" stroke="#63b8ff" d="M431.2,-284.64C383.16,-281.86 315.73,-271.89 266,-240.25 204.82,-201.32 163.11,-121.91 146.3,-85.23"/>
<polygon fill="#63b8ff" stroke="#63b8ff" points="149.6,-84.03 142.34,-76.32 143.2,-86.88 149.6,-84.03"/>
</a>
</g>
</g>
<!-- Node7 -->
<g id="Node000007" class="node">
<title>Node7</title>
<g id="a_Node000007"><a xlink:title=" ">
<polygon fill="#e0e0e0" stroke="#999999" points="293,-74.5 187,-74.5 187,-55.25 293,-55.25 293,-74.5"/>
<text xml:space="preserve" text-anchor="middle" x="240" y="-61" font-family="Helvetica,sans-Serif" font-size="10.00">DallasTemperature.h</text>
</a>
</g>
</g>
<!-- Node2&#45;&gt;Node7 -->
<g id="edge43_Node000002_Node000007" class="edge">
<title>Node2&#45;&gt;Node7</title>
<g id="a_edge43_Node000002_Node000007"><a xlink:title=" ">
<path fill="none" stroke="#63b8ff" d="M430.93,-278.85C377.8,-272.32 305.61,-260.06 285,-240.25 242.05,-198.95 238.11,-122.49 238.9,-86.12"/>
<polygon fill="#63b8ff" stroke="#63b8ff" points="242.39,-86.31 239.28,-76.18 235.4,-86.04 242.39,-86.31"/>
</a>
</g>
</g>
<!-- Node9 -->
<g id="Node000009" class="node">
<title>Node9</title>
<g id="a_Node000009"><a xlink:href="_measurement_point_8h.html" target="_top" xlink:title="Measurement point abstraction for temperature monitoring system.">
<polygon fill="white" stroke="#666666" points="499,-185 393,-185 393,-165.75 499,-165.75 499,-185"/>
<text xml:space="preserve" text-anchor="middle" x="446" y="-171.5" font-family="Helvetica,sans-Serif" font-size="10.00">MeasurementPoint.h</text>
</a>
</g>
</g>
<!-- Node2&#45;&gt;Node9 -->
<g id="edge9_Node000002_Node000009" class="edge">
<title>Node2&#45;&gt;Node9</title>
<g id="a_edge9_Node000002_Node000009"><a xlink:title=" ">
<path fill="none" stroke="#63b8ff" d="M488.62,-276.02C485.15,-263.52 478.2,-240.09 470,-221 466.27,-212.32 461.45,-203.07 457.11,-195.25"/>
<polygon fill="#63b8ff" stroke="#63b8ff" points="460.21,-193.62 452.2,-186.69 454.13,-197.1 460.21,-193.62"/>
</a>
</g>
</g>
<!-- Node19 -->
<g id="Node000019" class="node">
<title>Node19</title>
<g id="a_Node000019"><a xlink:title=" ">
<polygon fill="#e0e0e0" stroke="#999999" points="1267.12,-19.25 1188.88,-19.25 1188.88,0 1267.12,0 1267.12,-19.25"/>
<text xml:space="preserve" text-anchor="middle" x="1228" y="-5.75" font-family="Helvetica,sans-Serif" font-size="10.00">ArduinoJson.h</text>
</a>
</g>
</g>
<!-- Node2&#45;&gt;Node19 -->
<g id="edge44_Node000002_Node000019" class="edge">
<title>Node2&#45;&gt;Node19</title>
<g id="a_edge44_Node000002_Node000019"><a xlink:title=" ">
<path fill="none" stroke="#63b8ff" d="M550.87,-283.74C671.26,-278.76 947.09,-253.59 1134,-129.75 1173.2,-103.78 1203.44,-56.11 1218.15,-29.63"/>
<polygon fill="#63b8ff" stroke="#63b8ff" points="1221.12,-31.5 1222.77,-21.03 1214.95,-28.18 1221.12,-31.5"/>
</a>
</g>
</g>
<!-- Node20 -->
<g id="Node000020" class="node">
<title>Node20</title>
<g id="a_Node000020"><a xlink:href="_register_map_8h.html" target="_top" xlink:title="Modbus register mapping for temperature monitoring system.">
<polygon fill="white" stroke="#666666" points="460.88,-240.25 381.12,-240.25 381.12,-221 460.88,-221 460.88,-240.25"/>
<text xml:space="preserve" text-anchor="middle" x="421" y="-226.75" font-family="Helvetica,sans-Serif" font-size="10.00">RegisterMap.h</text>
</a>
</g>
</g>
<!-- Node2&#45;&gt;Node20 -->
<g id="edge25_Node000002_Node000020" class="edge">
<title>Node2&#45;&gt;Node20</title>
<g id="a_edge25_Node000002_Node000020"><a xlink:title=" ">
<path fill="none" stroke="#63b8ff" d="M479.13,-275.84C468.91,-268.07 453.93,-256.67 441.74,-247.4"/>
<polygon fill="#63b8ff" stroke="#63b8ff" points="443.98,-244.71 433.9,-241.44 439.74,-250.28 443.98,-244.71"/>
</a>
</g>
</g>
<!-- Node22 -->
<g id="Node000022" class="node">
<title>Node22</title>
<g id="a_Node000022"><a xlink:href="_indicator_interface_8h.html" target="_top" xlink:title="Hardware interface for PCF8575 I/O expander and SH1106 OLED display.">
<polygon fill="white" stroke="#666666" points="921,-185 821,-185 821,-165.75 921,-165.75 921,-185"/>
<text xml:space="preserve" text-anchor="middle" x="871" y="-171.5" font-family="Helvetica,sans-Serif" font-size="10.00">IndicatorInterface.h</text>
</a>
</g>
</g>
<!-- Node2&#45;&gt;Node22 -->
<g id="edge28_Node000002_Node000022" class="edge">
<title>Node2&#45;&gt;Node22</title>
<g id="a_edge28_Node000002_Node000022"><a xlink:title=" ">
<path fill="none" stroke="#63b8ff" d="M543.08,-275.8C584.24,-268.06 642.9,-255.72 693,-240.25 714.96,-233.47 719.46,-229.01 741,-221 771.49,-209.66 806.37,-197.74 832.32,-189.08"/>
<polygon fill="#63b8ff" stroke="#63b8ff" points="833.39,-192.41 841.78,-185.94 831.18,-185.77 833.39,-192.41"/>
</a>
</g>
</g>
<!-- Node27 -->
<g id="Node000027" class="node">
<title>Node27</title>
<g id="a_Node000027"><a xlink:href="_alarm_8h.html" target="_top" xlink:title="Alarm management system for temperature monitoring.">
<polygon fill="white" stroke="#666666" points="604.88,-240.25 555.12,-240.25 555.12,-221 604.88,-221 604.88,-240.25"/>
<text xml:space="preserve" text-anchor="middle" x="580" y="-226.75" font-family="Helvetica,sans-Serif" font-size="10.00">Alarm.h</text>
</a>
</g>
</g>
<!-- Node2&#45;&gt;Node27 -->
<g id="edge37_Node000002_Node000027" class="edge">
<title>Node2&#45;&gt;Node27</title>
<g id="a_edge37_Node000002_Node000027"><a xlink:title=" ">
<path fill="none" stroke="#63b8ff" d="M506.1,-275.84C519.52,-267.81 539.41,-255.91 555.17,-246.48"/>
<polygon fill="#63b8ff" stroke="#63b8ff" points="556.75,-249.62 563.53,-241.48 553.15,-243.61 556.75,-249.62"/>
</a>
</g>
</g>
<!-- Node28 -->
<g id="Node000028" class="node">
<title>Node28</title>
<g id="a_Node000028"><a xlink:title=" ">
<polygon fill="#e0e0e0" stroke="#999999" points="362.88,-240.25 307.12,-240.25 307.12,-221 362.88,-221 362.88,-240.25"/>
<text xml:space="preserve" text-anchor="middle" x="335" y="-226.75" font-family="Helvetica,sans-Serif" font-size="10.00">algorithm</text>
</a>
</g>
</g>
<!-- Node2&#45;&gt;Node28 -->
<g id="edge45_Node000002_Node000028" class="edge">
<title>Node2&#45;&gt;Node28</title>
<g id="a_edge45_Node000002_Node000028"><a xlink:title=" ">
<path fill="none" stroke="#63b8ff" d="M464.54,-275.84C439.21,-267.2 400.77,-254.07 372.33,-244.37"/>
<polygon fill="#63b8ff" stroke="#63b8ff" points="373.62,-241.11 363.03,-241.19 371.36,-247.73 373.62,-241.11"/>
</a>
</g>
</g>
<!-- Node5&#45;&gt;Node3 -->
<g id="edge5_Node000005_Node000003" class="edge">
<title>Node5&#45;&gt;Node3</title>
<g id="a_edge5_Node000005_Node000003"><a xlink:title=" ">
<path fill="none" stroke="#63b8ff" d="M309.89,-110.13C313.33,-96.12 321.97,-69.24 340,-55.25 365.47,-35.49 453.44,-21.79 505.83,-15.17"/>
<polygon fill="#63b8ff" stroke="#63b8ff" points="506.07,-18.67 515.56,-13.98 505.21,-11.72 506.07,-18.67"/>
</a>
</g>
</g>
<!-- Node5&#45;&gt;Node6 -->
<g id="edge6_Node000005_Node000006" class="edge">
<title>Node5&#45;&gt;Node6</title>
<g id="a_edge6_Node000005_Node000006"><a xlink:title=" ">
<path fill="none" stroke="#63b8ff" d="M280.69,-110.57C252.81,-101.84 209.27,-88.2 177.61,-78.28"/>
<polygon fill="#63b8ff" stroke="#63b8ff" points="178.99,-75.05 168.4,-75.4 176.89,-81.73 178.99,-75.05"/>
</a>
</g>
</g>
<!-- Node5&#45;&gt;Node7 -->
<g id="edge7_Node000005_Node000007" class="edge">
<title>Node5&#45;&gt;Node7</title>
<g id="a_edge7_Node000005_Node000007"><a xlink:title=" ">
<path fill="none" stroke="#63b8ff" d="M296.46,-110.09C286.54,-102.32 271.99,-90.92 260.14,-81.65"/>
<polygon fill="#63b8ff" stroke="#63b8ff" points="262.59,-79.12 252.56,-75.71 258.27,-84.63 262.59,-79.12"/>
</a>
</g>
</g>
<!-- Node8 -->
<g id="Node000008" class="node">
<title>Node8</title>
<g id="a_Node000008"><a xlink:title=" ">
<polygon fill="#e0e0e0" stroke="#999999" points="460.62,-74.5 349.38,-74.5 349.38,-55.25 460.62,-55.25 460.62,-74.5"/>
<text xml:space="preserve" text-anchor="middle" x="405" y="-61" font-family="Helvetica,sans-Serif" font-size="10.00">Adafruit_MAX31865.h</text>
</a>
</g>
</g>
<!-- Node5&#45;&gt;Node8 -->
<g id="edge8_Node000005_Node000008" class="edge">
<title>Node5&#45;&gt;Node8</title>
<g id="a_edge8_Node000005_Node000008"><a xlink:title=" ">
<path fill="none" stroke="#63b8ff" d="M324.45,-110.09C339.23,-101.98 361.18,-89.93 378.43,-80.46"/>
<polygon fill="#63b8ff" stroke="#63b8ff" points="380.06,-83.56 387.14,-75.68 376.69,-77.43 380.06,-83.56"/>
</a>
</g>
</g>
<!-- Node9&#45;&gt;Node3 -->
<g id="edge10_Node000009_Node000003" class="edge">
<title>Node9&#45;&gt;Node3</title>
<g id="a_edge10_Node000009_Node000003"><a xlink:title=" ">
<path fill="none" stroke="#63b8ff" d="M450.51,-165.49C460.82,-145.39 487.21,-95.09 513,-55.25 518.82,-46.26 525.8,-36.67 531.84,-28.7"/>
<polygon fill="#63b8ff" stroke="#63b8ff" points="534.58,-30.88 537.91,-20.82 529.03,-26.6 534.58,-30.88"/>
</a>
</g>
</g>
<!-- Node9&#45;&gt;Node5 -->
<g id="edge11_Node000009_Node000005" class="edge">
<title>Node9&#45;&gt;Node5</title>
<g id="a_edge11_Node000009_Node000005"><a xlink:title=" ">
<path fill="none" stroke="#63b8ff" d="M422.59,-165.34C400.48,-156.81 367.08,-143.92 342.03,-134.26"/>
<polygon fill="#63b8ff" stroke="#63b8ff" points="343.53,-131.08 332.94,-130.75 341.01,-137.61 343.53,-131.08"/>
</a>
</g>
</g>
<!-- Node10 -->
<g id="Node000010" class="node">
<title>Node10</title>
<g id="a_Node000010"><a xlink:href="_logger_manager_8h.html" target="_top" xlink:title="Comprehensive data and event logging system for temperature monitoring.">
<polygon fill="white" stroke="#666666" points="797.12,-129.75 706.88,-129.75 706.88,-110.5 797.12,-110.5 797.12,-129.75"/>
<text xml:space="preserve" text-anchor="middle" x="752" y="-116.25" font-family="Helvetica,sans-Serif" font-size="10.00">LoggerManager.h</text>
</a>
</g>
</g>
<!-- Node9&#45;&gt;Node10 -->
<g id="edge12_Node000009_Node000010" class="edge">
<title>Node9&#45;&gt;Node10</title>
<g id="a_edge12_Node000009_Node000010"><a xlink:title=" ">
<path fill="none" stroke="#63b8ff" d="M498.26,-165.28C553.03,-155.75 638.82,-140.82 695.23,-131"/>
<polygon fill="#63b8ff" stroke="#63b8ff" points="695.71,-134.47 704.96,-129.31 694.51,-127.58 695.71,-134.47"/>
</a>
</g>
</g>
<!-- Node10&#45;&gt;Node3 -->
<g id="edge13_Node000010_Node000003" class="edge">
<title>Node10&#45;&gt;Node3</title>
<g id="a_edge13_Node000010_Node000003"><a xlink:title=" ">
<path fill="none" stroke="#63b8ff" d="M740.06,-110.03C722.38,-96.83 687.86,-72.09 656,-55.25 632.57,-42.87 604.93,-31.66 583.21,-23.58"/>
<polygon fill="#63b8ff" stroke="#63b8ff" points="584.47,-20.31 573.87,-20.17 582.06,-26.89 584.47,-20.31"/>
</a>
</g>
</g>
<!-- Node10&#45;&gt;Node4 -->
<g id="edge24_Node000010_Node000004" class="edge">
<title>Node10&#45;&gt;Node4</title>
<g id="a_edge24_Node000010_Node000004"><a xlink:title=" ">
<path fill="none" stroke="#63b8ff" d="M730.46,-110.09C710.39,-101.68 680.2,-89.02 657.25,-79.4"/>
<polygon fill="#63b8ff" stroke="#63b8ff" points="658.62,-76.18 648.05,-75.54 655.91,-82.63 658.62,-76.18"/>
</a>
</g>
</g>
<!-- Node11 -->
<g id="Node000011" class="node">
<title>Node11</title>
<g id="a_Node000011"><a xlink:title=" ">
<polygon fill="#e0e0e0" stroke="#999999" points="796.5,-74.5 759.5,-74.5 759.5,-55.25 796.5,-55.25 796.5,-74.5"/>
<text xml:space="preserve" text-anchor="middle" x="778" y="-61" font-family="Helvetica,sans-Serif" font-size="10.00">FS.h</text>
</a>
</g>
</g>
<!-- Node10&#45;&gt;Node11 -->
<g id="edge14_Node000010_Node000011" class="edge">
<title>Node10&#45;&gt;Node11</title>
<g id="a_edge14_Node000010_Node000011"><a xlink:title=" ">
<path fill="none" stroke="#63b8ff" d="M756.29,-110.33C759.62,-103.51 764.36,-93.81 768.56,-85.2"/>
<polygon fill="#63b8ff" stroke="#63b8ff" points="771.71,-86.74 772.95,-76.22 765.42,-83.67 771.71,-86.74"/>
</a>
</g>
</g>
<!-- Node12 -->
<g id="Node000012" class="node">
<title>Node12</title>
<g id="a_Node000012"><a xlink:title=" ">
<polygon fill="#e0e0e0" stroke="#999999" points="741.25,-74.5 702.75,-74.5 702.75,-55.25 741.25,-55.25 741.25,-74.5"/>
<text xml:space="preserve" text-anchor="middle" x="722" y="-61" font-family="Helvetica,sans-Serif" font-size="10.00">SD.h</text>
</a>
</g>
</g>
<!-- Node10&#45;&gt;Node12 -->
<g id="edge15_Node000010_Node000012" class="edge">
<title>Node10&#45;&gt;Node12</title>
<g id="a_edge15_Node000010_Node000012"><a xlink:title=" ">
<path fill="none" stroke="#63b8ff" d="M747.05,-110.33C743.12,-103.36 737.49,-93.37 732.56,-84.62"/>
<polygon fill="#63b8ff" stroke="#63b8ff" points="735.76,-83.17 727.8,-76.18 729.66,-86.61 735.76,-83.17"/>
</a>
</g>
</g>
<!-- Node13 -->
<g id="Node000013" class="node">
<title>Node13</title>
<g id="a_Node000013"><a xlink:href="_time_manager_8h.html" target="_top" xlink:title="Real&#45;time clock and time synchronization management.">
<polygon fill="white" stroke="#666666" points="1115.38,-74.5 1032.62,-74.5 1032.62,-55.25 1115.38,-55.25 1115.38,-74.5"/>
<text xml:space="preserve" text-anchor="middle" x="1074" y="-61" font-family="Helvetica,sans-Serif" font-size="10.00">TimeManager.h</text>
</a>
</g>
</g>
<!-- Node10&#45;&gt;Node13 -->
<g id="edge16_Node000010_Node000013" class="edge">
<title>Node10&#45;&gt;Node13</title>
<g id="a_edge16_Node000010_Node000013"><a xlink:title=" ">
<path fill="none" stroke="#63b8ff" d="M797.45,-111.61C856.37,-101.87 958.91,-84.91 1021.21,-74.6"/>
<polygon fill="#63b8ff" stroke="#63b8ff" points="1021.57,-78.09 1030.86,-73.01 1020.43,-71.19 1021.57,-78.09"/>
</a>
</g>
</g>
<!-- Node13&#45;&gt;Node3 -->
<g id="edge17_Node000013_Node000003" class="edge">
<title>Node13&#45;&gt;Node3</title>
<g id="a_edge17_Node000013_Node000003"><a xlink:title=" ">
<path fill="none" stroke="#63b8ff" d="M1032.3,-57.06C1027.81,-56.41 1023.32,-55.79 1019,-55.25 859.09,-35.19 667.74,-19.75 586.09,-13.57"/>
<polygon fill="#63b8ff" stroke="#63b8ff" points="586.61,-10.1 576.37,-12.84 586.08,-17.08 586.61,-10.1"/>
</a>
</g>
</g>
<!-- Node13&#45;&gt;Node14 -->
<g id="edge18_Node000013_Node000014" class="edge">
<title>Node13&#45;&gt;Node14</title>
<g id="a_edge18_Node000013_Node000014"><a xlink:title=" ">
<path fill="none" stroke="#63b8ff" d="M1032.24,-61.25C885.31,-52.03 393.91,-21.17 259.97,-12.76"/>
<polygon fill="#63b8ff" stroke="#63b8ff" points="260.2,-9.27 250,-12.13 259.76,-16.25 260.2,-9.27"/>
</a>
</g>
</g>
<!-- Node15 -->
<g id="Node000015" class="node">
<title>Node15</title>
<g id="a_Node000015"><a xlink:title=" ">
<polygon fill="#e0e0e0" stroke="#999999" points="1171.25,-19.25 1126.75,-19.25 1126.75,0 1171.25,0 1171.25,-19.25"/>
<text xml:space="preserve" text-anchor="middle" x="1149" y="-5.75" font-family="Helvetica,sans-Serif" font-size="10.00">Wire.h</text>
</a>
</g>
</g>
<!-- Node13&#45;&gt;Node15 -->
<g id="edge19_Node000013_Node000015" class="edge">
<title>Node13&#45;&gt;Node15</title>
<g id="a_edge19_Node000013_Node000015"><a xlink:title=" ">
<path fill="none" stroke="#63b8ff" d="M1086.72,-54.84C1097.71,-47.04 1113.84,-35.59 1126.93,-26.29"/>
<polygon fill="#63b8ff" stroke="#63b8ff" points="1128.85,-29.22 1134.98,-20.58 1124.8,-23.51 1128.85,-29.22"/>
</a>
</g>
</g>
<!-- Node16 -->
<g id="Node000016" class="node">
<title>Node16</title>
<g id="a_Node000016"><a xlink:title=" ">
<polygon fill="#e0e0e0" stroke="#999999" points="1020.5,-19.25 965.5,-19.25 965.5,0 1020.5,0 1020.5,-19.25"/>
<text xml:space="preserve" text-anchor="middle" x="993" y="-5.75" font-family="Helvetica,sans-Serif" font-size="10.00">RTClib.h</text>
</a>
</g>
</g>
<!-- Node13&#45;&gt;Node16 -->
<g id="edge20_Node000013_Node000016" class="edge">
<title>Node13&#45;&gt;Node16</title>
<g id="a_edge20_Node000013_Node000016"><a xlink:title=" ">
<path fill="none" stroke="#63b8ff" d="M1060.26,-54.84C1048.27,-46.96 1030.63,-35.36 1016.42,-26.02"/>
<polygon fill="#63b8ff" stroke="#63b8ff" points="1018.35,-23.1 1008.07,-20.53 1014.51,-28.95 1018.35,-23.1"/>
</a>
</g>
</g>
<!-- Node17 -->
<g id="Node000017" class="node">
<title>Node17</title>
<g id="a_Node000017"><a xlink:title=" ">
<polygon fill="#e0e0e0" stroke="#999999" points="1109,-19.25 1039,-19.25 1039,0 1109,0 1109,-19.25"/>
<text xml:space="preserve" text-anchor="middle" x="1074" y="-5.75" font-family="Helvetica,sans-Serif" font-size="10.00">NTPClient.h</text>
</a>
</g>
</g>
<!-- Node13&#45;&gt;Node17 -->
<g id="edge21_Node000013_Node000017" class="edge">
<title>Node13&#45;&gt;Node17</title>
<g id="a_edge21_Node000013_Node000017"><a xlink:title=" ">
<path fill="none" stroke="#63b8ff" d="M1074,-55.08C1074,-48.57 1074,-39.42 1074,-31.12"/>
<polygon fill="#63b8ff" stroke="#63b8ff" points="1077.5,-31.12 1074,-21.12 1070.5,-31.12 1077.5,-31.12"/>
</a>
</g>
</g>
<!-- Node18 -->
<g id="Node000018" class="node">
<title>Node18</title>
<g id="a_Node000018"><a xlink:title=" ">
<polygon fill="#e0e0e0" stroke="#999999" points="947.25,-19.25 884.75,-19.25 884.75,0 947.25,0 947.25,-19.25"/>
<text xml:space="preserve" text-anchor="middle" x="916" y="-5.75" font-family="Helvetica,sans-Serif" font-size="10.00">WiFiUdp.h</text>
</a>
</g>
</g>
<!-- Node13&#45;&gt;Node18 -->
<g id="edge22_Node000013_Node000018" class="edge">
<title>Node13&#45;&gt;Node18</title>
<g id="a_edge22_Node000013_Node000018"><a xlink:title=" ">
<path fill="none" stroke="#63b8ff" d="M1047.2,-54.84C1021.55,-46.2 982.61,-33.07 953.81,-23.37"/>
<polygon fill="#63b8ff" stroke="#63b8ff" points="954.96,-20.06 944.37,-20.19 952.73,-26.7 954.96,-20.06"/>
</a>
</g>
</g>
<!-- Node13&#45;&gt;Node19 -->
<g id="edge23_Node000013_Node000019" class="edge">
<title>Node13&#45;&gt;Node19</title>
<g id="a_edge23_Node000013_Node000019"><a xlink:title=" ">
<path fill="none" stroke="#63b8ff" d="M1100.12,-54.84C1125.12,-46.2 1163.08,-33.07 1191.15,-23.37"/>
<polygon fill="#63b8ff" stroke="#63b8ff" points="1192.01,-26.77 1200.32,-20.2 1189.72,-20.16 1192.01,-26.77"/>
</a>
</g>
</g>
<!-- Node20&#45;&gt;Node9 -->
<g id="edge27_Node000020_Node000009" class="edge">
<title>Node20&#45;&gt;Node9</title>
<g id="a_edge27_Node000020_Node000009"><a xlink:title=" ">
<path fill="none" stroke="#63b8ff" d="M425.13,-220.83C428.33,-214.01 432.89,-204.31 436.93,-195.7"/>
<polygon fill="#63b8ff" stroke="#63b8ff" points="440.06,-197.27 441.14,-186.73 433.72,-194.29 440.06,-197.27"/>
</a>
</g>
</g>
<!-- Node21 -->
<g id="Node000021" class="node">
<title>Node21</title>
<g id="a_Node000021"><a xlink:title=" ">
<polygon fill="#e0e0e0" stroke="#999999" points="375.12,-185 326.88,-185 326.88,-165.75 375.12,-165.75 375.12,-185"/>
<text xml:space="preserve" text-anchor="middle" x="351" y="-171.5" font-family="Helvetica,sans-Serif" font-size="10.00">stdint.h</text>
</a>
</g>
</g>
<!-- Node20&#45;&gt;Node21 -->
<g id="edge26_Node000020_Node000021" class="edge">
<title>Node20&#45;&gt;Node21</title>
<g id="a_edge26_Node000020_Node000021"><a xlink:title=" ">
<path fill="none" stroke="#63b8ff" d="M409.13,-220.59C398.91,-212.82 383.93,-201.42 371.74,-192.15"/>
<polygon fill="#63b8ff" stroke="#63b8ff" points="373.98,-189.46 363.9,-186.19 369.74,-195.03 373.98,-189.46"/>
</a>
</g>
</g>
<!-- Node22&#45;&gt;Node3 -->
<g id="edge29_Node000022_Node000003" class="edge">
<title>Node22&#45;&gt;Node3</title>
<g id="a_edge29_Node000022_Node000003"><a xlink:title=" ">
<path fill="none" stroke="#63b8ff" d="M865.22,-165.26C859.61,-156.32 850.96,-142.25 844,-129.75 825.92,-97.27 835.93,-77.28 806,-55.25 771.71,-30.01 650.08,-17.89 586.07,-13.15"/>
<polygon fill="#63b8ff" stroke="#63b8ff" points="586.55,-9.68 576.33,-12.46 586.06,-16.66 586.55,-9.68"/>
</a>
</g>
</g>
<!-- Node22&#45;&gt;Node4 -->
<g id="edge35_Node000022_Node000004" class="edge">
<title>Node22&#45;&gt;Node4</title>
<g id="a_edge35_Node000022_Node000004"><a xlink:title=" ">
<path fill="none" stroke="#63b8ff" d="M820.67,-167.74C784.89,-161.55 736.54,-150.09 698,-129.75 675.31,-117.77 653.77,-97.42 640.04,-82.91"/>
<polygon fill="#63b8ff" stroke="#63b8ff" points="642.93,-80.88 633.59,-75.87 637.77,-85.61 642.93,-80.88"/>
</a>
</g>
</g>
<!-- Node22&#45;&gt;Node10 -->
<g id="edge36_Node000022_Node000010" class="edge">
<title>Node22&#45;&gt;Node10</title>
<g id="a_edge36_Node000022_Node000010"><a xlink:title=" ">
<path fill="none" stroke="#63b8ff" d="M850.81,-165.34C832.09,-156.97 803.98,-144.38 782.52,-134.78"/>
<polygon fill="#63b8ff" stroke="#63b8ff" points="784.22,-131.71 773.67,-130.82 781.37,-138.1 784.22,-131.71"/>
</a>
</g>
</g>
<!-- Node22&#45;&gt;Node15 -->
<g id="edge30_Node000022_Node000015" class="edge">
<title>Node22&#45;&gt;Node15</title>
<g id="a_edge30_Node000022_Node000015"><a xlink:title=" ">
<path fill="none" stroke="#63b8ff" d="M921.32,-171.18C983.75,-166.21 1085.34,-154.5 1113,-129.75 1141.23,-104.5 1147.68,-57.96 1148.94,-31.14"/>
<polygon fill="#63b8ff" stroke="#63b8ff" points="1152.43,-31.33 1149.18,-21.25 1145.44,-31.16 1152.43,-31.33"/>
</a>
</g>
</g>
<!-- Node23 -->
<g id="Node000023" class="node">
<title>Node23</title>
<g id="a_Node000023"><a xlink:title=" ">
<polygon fill="#e0e0e0" stroke="#999999" points="887.38,-129.75 852.62,-129.75 852.62,-110.5 887.38,-110.5 887.38,-129.75"/>
<text xml:space="preserve" text-anchor="middle" x="870" y="-116.25" font-family="Helvetica,sans-Serif" font-size="10.00">map</text>
</a>
</g>
</g>
<!-- Node22&#45;&gt;Node23 -->
<g id="edge31_Node000022_Node000023" class="edge">
<title>Node22&#45;&gt;Node23</title>
<g id="a_edge31_Node000022_Node000023"><a xlink:title=" ">
<path fill="none" stroke="#63b8ff" d="M870.83,-165.58C870.71,-159.07 870.54,-149.92 870.38,-141.62"/>
<polygon fill="#63b8ff" stroke="#63b8ff" points="873.88,-141.55 870.2,-131.62 866.89,-141.69 873.88,-141.55"/>
</a>
</g>
</g>
<!-- Node24 -->
<g id="Node000024" class="node">
<title>Node24</title>
<g id="a_Node000024"><a xlink:title=" ">
<polygon fill="#e0e0e0" stroke="#999999" points="945,-129.75 905,-129.75 905,-110.5 945,-110.5 945,-129.75"/>
<text xml:space="preserve" text-anchor="middle" x="925" y="-116.25" font-family="Helvetica,sans-Serif" font-size="10.00">string</text>
</a>
</g>
</g>
<!-- Node22&#45;&gt;Node24 -->
<g id="edge32_Node000022_Node000024" class="edge">
<title>Node22&#45;&gt;Node24</title>
<g id="a_edge32_Node000022_Node000024"><a xlink:title=" ">
<path fill="none" stroke="#63b8ff" d="M879.92,-165.58C887.45,-158.15 898.47,-147.29 907.73,-138.16"/>
<polygon fill="#63b8ff" stroke="#63b8ff" points="910.15,-140.69 914.81,-131.17 905.23,-135.7 910.15,-140.69"/>
</a>
</g>
</g>
<!-- Node25 -->
<g id="Node000025" class="node">
<title>Node25</title>
<g id="a_Node000025"><a xlink:title=" ">
<polygon fill="#e0e0e0" stroke="#999999" points="1028.75,-129.75 963.25,-129.75 963.25,-110.5 1028.75,-110.5 1028.75,-129.75"/>
<text xml:space="preserve" text-anchor="middle" x="996" y="-116.25" font-family="Helvetica,sans-Serif" font-size="10.00">PCF8575.h</text>
</a>
</g>
</g>
<!-- Node22&#45;&gt;Node25 -->
<g id="edge33_Node000022_Node000025" class="edge">
<title>Node22&#45;&gt;Node25</title>
<g id="a_edge33_Node000022_Node000025"><a xlink:title=" ">
<path fill="none" stroke="#63b8ff" d="M892.2,-165.34C911.96,-156.93 941.67,-144.27 964.25,-134.65"/>
<polygon fill="#63b8ff" stroke="#63b8ff" points="965.47,-137.93 973.3,-130.8 962.73,-131.49 965.47,-137.93"/>
</a>
</g>
</g>
<!-- Node26 -->
<g id="Node000026" class="node">
<title>Node26</title>
<g id="a_Node000026"><a xlink:title=" ">
<polygon fill="#e0e0e0" stroke="#999999" points="1103.62,-129.75 1046.38,-129.75 1046.38,-110.5 1103.62,-110.5 1103.62,-129.75"/>
<text xml:space="preserve" text-anchor="middle" x="1075" y="-116.25" font-family="Helvetica,sans-Serif" font-size="10.00">U8g2lib.h</text>
</a>
</g>
</g>
<!-- Node22&#45;&gt;Node26 -->
<g id="edge34_Node000022_Node000026" class="edge">
<title>Node22&#45;&gt;Node26</title>
<g id="a_edge34_Node000022_Node000026"><a xlink:title=" ">
<path fill="none" stroke="#63b8ff" d="M905.61,-165.34C941.46,-155.98 997.41,-141.38 1035.1,-131.54"/>
<polygon fill="#63b8ff" stroke="#63b8ff" points="1035.91,-134.94 1044.71,-129.03 1034.15,-128.17 1035.91,-134.94"/>
</a>
</g>
</g>
<!-- Node27&#45;&gt;Node3 -->
<g id="edge38_Node000027_Node000003" class="edge">
<title>Node27&#45;&gt;Node3</title>
<g id="a_edge38_Node000027_Node000003"><a xlink:title=" ">
<path fill="none" stroke="#63b8ff" d="M578.63,-220.77C573.62,-188.51 556.27,-76.76 549.12,-30.71"/>
<polygon fill="#63b8ff" stroke="#63b8ff" points="552.58,-30.19 547.59,-20.85 545.66,-31.27 552.58,-30.19"/>
</a>
</g>
</g>
<!-- Node27&#45;&gt;Node4 -->
<g id="edge39_Node000027_Node000004" class="edge">
<title>Node27&#45;&gt;Node4</title>
<g id="a_edge39_Node000027_Node000004"><a xlink:title=" ">
<path fill="none" stroke="#63b8ff" d="M582.42,-220.82C589.41,-195.39 609.75,-121.35 619.57,-85.62"/>
<polygon fill="#63b8ff" stroke="#63b8ff" points="622.89,-86.75 622.17,-76.18 616.14,-84.9 622.89,-86.75"/>
</a>
</g>
</g>
<!-- Node27&#45;&gt;Node9 -->
<g id="edge40_Node000027_Node000009" class="edge">
<title>Node27&#45;&gt;Node9</title>
<g id="a_edge40_Node000027_Node000009"><a xlink:title=" ">
<path fill="none" stroke="#63b8ff" d="M557.27,-220.59C535.9,-212.1 503.66,-199.29 479.37,-189.64"/>
<polygon fill="#63b8ff" stroke="#63b8ff" points="480.84,-186.45 470.25,-186.01 478.25,-192.96 480.84,-186.45"/>
</a>
</g>
</g>
<!-- Node27&#45;&gt;Node10 -->
<g id="edge41_Node000027_Node000010" class="edge">
<title>Node27&#45;&gt;Node10</title>
<g id="a_edge41_Node000027_Node000010"><a xlink:title=" ">
<path fill="none" stroke="#63b8ff" d="M594.37,-220.56C624.04,-201.85 692.31,-158.78 728.5,-135.95"/>
<polygon fill="#63b8ff" stroke="#63b8ff" points="729.92,-139.19 736.51,-130.89 726.19,-133.27 729.92,-139.19"/>
</a>
</g>
</g>
<!-- Node29&#45;&gt;Node2 -->
<g id="edge53_Node000029_Node000002" class="edge">
<title>Node29&#45;&gt;Node2</title>
<g id="a_edge53_Node000029_Node000002"><a xlink:title=" ">
<path fill="none" stroke="#63b8ff" d="M433.11,-386.38C447.53,-378.89 466.24,-366.86 477,-350.75 485.6,-337.87 489.01,-320.58 490.32,-307.24"/>
<polygon fill="#63b8ff" stroke="#63b8ff" points="493.8,-307.64 490.94,-297.44 486.82,-307.2 493.8,-307.64"/>
</a>
</g>
</g>
<!-- Node29&#45;&gt;Node3 -->
<g id="edge48_Node000029_Node000003" class="edge">
<title>Node29&#45;&gt;Node3</title>
<g id="a_edge48_Node000029_Node000003"><a xlink:title=" ">
<path fill="none" stroke="#63b8ff" d="M367.92,-395.66C282.84,-395.27 102.97,-389.72 57,-350.75 34.41,-331.6 38,-316.49 38,-286.88 38,-286.88 38,-286.88 38,-119.12 38,-84.65 52.29,-72.73 82,-55.25 118.1,-34.01 399.25,-17.94 505.51,-12.57"/>
<polygon fill="#63b8ff" stroke="#63b8ff" points="505.67,-16.06 515.48,-12.07 505.32,-9.07 505.67,-16.06"/>
</a>
</g>
</g>
<!-- Node29&#45;&gt;Node10 -->
<g id="edge61_Node000029_Node000010" class="edge">
<title>Node29&#45;&gt;Node10</title>
<g id="a_edge61_Node000029_Node000010"><a xlink:title=" ">
<path fill="none" stroke="#63b8ff" d="M458.08,-392.05C558.74,-383.39 793,-355.83 793,-286.88 793,-286.88 793,-286.88 793,-229.62 793,-196.34 775.91,-160.8 763.79,-139.8"/>
<polygon fill="#63b8ff" stroke="#63b8ff" points="766.82,-138.03 758.66,-131.28 760.82,-141.65 766.82,-138.03"/>
</a>
</g>
</g>
<!-- Node30 -->
<g id="Node000030" class="node">
<title>Node30</title>
<g id="a_Node000030"><a xlink:title=" ">
<polygon fill="#e0e0e0" stroke="#999999" points="930.25,-295.5 849.75,-295.5 849.75,-276.25 930.25,-276.25 930.25,-295.5"/>
<text xml:space="preserve" text-anchor="middle" x="890" y="-282" font-family="Helvetica,sans-Serif" font-size="10.00">ConfigAssist.h</text>
</a>
</g>
</g>
<!-- Node29&#45;&gt;Node30 -->
<g id="edge49_Node000029_Node000030" class="edge">
<title>Node29&#45;&gt;Node30</title>
<g id="a_edge49_Node000029_Node000030"><a xlink:title=" ">
<path fill="none" stroke="#63b8ff" d="M458.16,-393.3C547.74,-388.7 744.62,-375.98 807,-350.75 833.21,-340.15 858.2,-318.86 873.78,-303.78"/>
<polygon fill="#63b8ff" stroke="#63b8ff" points="876.15,-306.37 880.74,-296.82 871.2,-301.42 876.15,-306.37"/>
</a>
</g>
</g>
<!-- Node31 -->
<g id="Node000031" class="node">
<title>Node31</title>
<g id="a_Node000031"><a xlink:title=" ">
<polygon fill="#e0e0e0" stroke="#999999" points="174.12,-350.75 65.88,-350.75 65.88,-331.5 174.12,-331.5 174.12,-350.75"/>
<text xml:space="preserve" text-anchor="middle" x="120" y="-337.25" font-family="Helvetica,sans-Serif" font-size="10.00">ConfigAssistHelper.h</text>
</a>
</g>
</g>
<!-- Node29&#45;&gt;Node31 -->
<g id="edge50_Node000029_Node000031" class="edge">
<title>Node29&#45;&gt;Node31</title>
<g id="a_edge50_Node000029_Node000031"><a xlink:title=" ">
<path fill="none" stroke="#63b8ff" d="M367.86,-387.17C317.85,-378.08 236.93,-363.38 181.24,-353.25"/>
<polygon fill="#63b8ff" stroke="#63b8ff" points="182.06,-349.85 171.59,-351.5 180.8,-356.73 182.06,-349.85"/>
</a>
</g>
</g>
<!-- Node32 -->
<g id="Node000032" class="node">
<title>Node32</title>
<g id="a_Node000032"><a xlink:title=" ">
<polygon fill="#e0e0e0" stroke="#999999" points="263.75,-350.75 192.25,-350.75 192.25,-331.5 263.75,-331.5 263.75,-350.75"/>
<text xml:space="preserve" text-anchor="middle" x="228" y="-337.25" font-family="Helvetica,sans-Serif" font-size="10.00">WebServer.h</text>
</a>
</g>
</g>
<!-- Node29&#45;&gt;Node32 -->
<g id="edge51_Node000029_Node000032" class="edge">
<title>Node29&#45;&gt;Node32</title>
<g id="a_edge51_Node000029_Node000032"><a xlink:title=" ">
<path fill="none" stroke="#63b8ff" d="M381.62,-386.34C351.05,-377.54 304.38,-364.11 270.49,-354.36"/>
<polygon fill="#63b8ff" stroke="#63b8ff" points="271.57,-351.02 260.99,-351.62 269.63,-357.75 271.57,-351.02"/>
</a>
</g>
</g>
<!-- Node33 -->
<g id="Node000033" class="node">
<title>Node33</title>
<g id="a_Node000033"><a xlink:title=" ">
<polygon fill="#e0e0e0" stroke="#999999" points="340,-350.75 282,-350.75 282,-331.5 340,-331.5 340,-350.75"/>
<text xml:space="preserve" text-anchor="middle" x="311" y="-337.25" font-family="Helvetica,sans-Serif" font-size="10.00">LittleFS.h</text>
</a>
</g>
</g>
<!-- Node29&#45;&gt;Node33 -->
<g id="edge52_Node000029_Node000033" class="edge">
<title>Node29&#45;&gt;Node33</title>
<g id="a_edge52_Node000029_Node000033"><a xlink:title=" ">
<path fill="none" stroke="#63b8ff" d="M395.7,-386.34C380.02,-378.16 356.65,-365.96 338.42,-356.44"/>
<polygon fill="#63b8ff" stroke="#63b8ff" points="340.21,-353.43 329.73,-351.9 336.97,-359.63 340.21,-353.43"/>
</a>
</g>
</g>
<!-- Node34 -->
<g id="Node000034" class="node">
<title>Node34</title>
<g id="a_Node000034"><a xlink:href="_c_s_v_config_manager_8h.html" target="_top" xlink:title="CSV configuration import/export manager for measurement points and alarms.">
<polygon fill="white" stroke="#666666" points="468.25,-350.75 357.75,-350.75 357.75,-331.5 468.25,-331.5 468.25,-350.75"/>
<text xml:space="preserve" text-anchor="middle" x="413" y="-337.25" font-family="Helvetica,sans-Serif" font-size="10.00">CSVConfigManager.h</text>
</a>
</g>
</g>
<!-- Node29&#45;&gt;Node34 -->
<g id="edge54_Node000029_Node000034" class="edge">
<title>Node29&#45;&gt;Node34</title>
<g id="a_edge54_Node000029_Node000034"><a xlink:title=" ">
<path fill="none" stroke="#63b8ff" d="M413,-386.58C413,-380.07 413,-370.92 413,-362.62"/>
<polygon fill="#63b8ff" stroke="#63b8ff" points="416.5,-362.62 413,-352.62 409.5,-362.62 416.5,-362.62"/>
</a>
</g>
</g>
<!-- Node36 -->
<g id="Node000036" class="node">
<title>Node36</title>
<g id="a_Node000036"><a xlink:href="_settings_c_s_v_manager_8h.html" target="_top" xlink:title="CSV import/export manager for system settings.">
<polygon fill="white" stroke="#666666" points="977,-350.75 859,-350.75 859,-331.5 977,-331.5 977,-350.75"/>
<text xml:space="preserve" text-anchor="middle" x="918" y="-337.25" font-family="Helvetica,sans-Serif" font-size="10.00">SettingsCSVManager.h</text>
</a>
</g>
</g>
<!-- Node29&#45;&gt;Node36 -->
<g id="edge58_Node000029_Node000036" class="edge">
<title>Node29&#45;&gt;Node36</title>
<g id="a_edge58_Node000029_Node000036"><a xlink:title=" ">
<path fill="none" stroke="#63b8ff" d="M458.11,-390.93C536.73,-383.15 703.92,-366.37 845,-350.75 845.83,-350.66 846.67,-350.56 847.51,-350.47"/>
<polygon fill="#63b8ff" stroke="#63b8ff" points="847.6,-353.98 857.14,-349.38 846.81,-347.03 847.6,-353.98"/>
</a>
</g>
</g>
<!-- Node34&#45;&gt;Node2 -->
<g id="edge57_Node000034_Node000002" class="edge">
<title>Node34&#45;&gt;Node2</title>
<g id="a_edge57_Node000034_Node000002"><a xlink:title=" ">
<path fill="none" stroke="#63b8ff" d="M426.23,-331.09C437.77,-323.21 454.77,-311.61 468.45,-302.27"/>
<polygon fill="#63b8ff" stroke="#63b8ff" points="470.17,-305.33 476.45,-296.81 466.22,-299.55 470.17,-305.33"/>
</a>
</g>
</g>
<!-- Node34&#45;&gt;Node3 -->
<g id="edge55_Node000034_Node000003" class="edge">
<title>Node34&#45;&gt;Node3</title>
<g id="a_edge55_Node000034_Node000003"><a xlink:title=" ">
<path fill="none" stroke="#63b8ff" d="M387.11,-331.03C294.4,-297.21 -9.88,-174.41 98,-55.25 125.12,-25.3 400.72,-14.62 505.69,-11.62"/>
<polygon fill="#63b8ff" stroke="#63b8ff" points="505.63,-15.12 515.53,-11.35 505.44,-8.12 505.63,-15.12"/>
</a>
</g>
</g>
<!-- Node35 -->
<g id="Node000035" class="node">
<title>Node35</title>
<g id="a_Node000035"><a xlink:title=" ">
<polygon fill="#e0e0e0" stroke="#999999" points="144.12,-295.5 65.88,-295.5 65.88,-276.25 144.12,-276.25 144.12,-295.5"/>
<text xml:space="preserve" text-anchor="middle" x="105" y="-282" font-family="Helvetica,sans-Serif" font-size="10.00">CSV_Parser.h</text>
</a>
</g>
</g>
<!-- Node34&#45;&gt;Node35 -->
<g id="edge56_Node000034_Node000035" class="edge">
<title>Node34&#45;&gt;Node35</title>
<g id="a_edge56_Node000034_Node000035"><a xlink:title=" ">
<path fill="none" stroke="#63b8ff" d="M360.4,-331.03C303.02,-321.11 211.82,-305.34 155.34,-295.58"/>
<polygon fill="#63b8ff" stroke="#63b8ff" points="156.13,-292.16 145.68,-293.91 154.93,-299.06 156.13,-292.16"/>
</a>
</g>
</g>
<!-- Node36&#45;&gt;Node3 -->
<g id="edge59_Node000036_Node000003" class="edge">
<title>Node36&#45;&gt;Node3</title>
<g id="a_edge59_Node000036_Node000003"><a xlink:title=" ">
<path fill="none" stroke="#63b8ff" d="M977.33,-335.17C1040.66,-326.24 1132,-301.29 1132,-231.62 1132,-231.62 1132,-231.62 1132,-174.38 1132,-144.76 1134.93,-130.4 1113,-110.5 1073.65,-74.79 708.47,-29.5 585.9,-15.18"/>
<polygon fill="#63b8ff" stroke="#63b8ff" points="586.66,-11.74 576.32,-14.06 585.85,-18.69 586.66,-11.74"/>
</a>
</g>
</g>
<!-- Node36&#45;&gt;Node30 -->
<g id="edge60_Node000036_Node000030" class="edge">
<title>Node36&#45;&gt;Node30</title>
<g id="a_edge60_Node000036_Node000030"><a xlink:title=" ">
<path fill="none" stroke="#63b8ff" d="M913.38,-331.33C909.75,-324.44 904.57,-314.59 900.01,-305.91"/>
<polygon fill="#63b8ff" stroke="#63b8ff" points="903.18,-304.42 895.43,-297.2 896.98,-307.68 903.18,-304.42"/>
</a>
</g>
</g>
</g>
</svg>
