<?xml version="1.0" encoding="UTF-8" standalone="no"?>
<!DOCTYPE svg PUBLIC "-//W3C//DTD SVG 1.1//EN"
 "http://www.w3.org/Graphics/SVG/1.1/DTD/svg11.dtd">
<!-- Generated by graphviz version 13.1.0 (20250701.0955)
 -->
<!-- Title: src/TemperatureController.cpp Pages: 1 -->
<svg width="1402pt" height="469pt"
 viewBox="0.00 0.00 1402.00 469.00" xmlns="http://www.w3.org/2000/svg" xmlns:xlink="http://www.w3.org/1999/xlink">
<g id="graph0" class="graph" transform="scale(1 1) rotate(0) translate(4 465.25)">
<title>src/TemperatureController.cpp</title>
<!-- Node1 -->
<g id="Node000001" class="node">
<title>Node1</title>
<g id="a_Node000001"><a xlink:title="Implementation of the central temperature monitoring and control system.">
<polygon fill="#999999" stroke="#666666" points="898,-461.25 751.5,-461.25 751.5,-442 898,-442 898,-461.25"/>
<text xml:space="preserve" text-anchor="middle" x="824.75" y="-447.75" font-family="Helvetica,sans-Serif" font-size="10.00">src/TemperatureController.cpp</text>
</a>
</g>
</g>
<!-- Node2 -->
<g id="Node000002" class="node">
<title>Node2</title>
<g id="a_Node000002"><a xlink:href="_temperature_controller_8h.html" target="_top" xlink:title="Central temperature monitoring and control system.">
<polygon fill="white" stroke="#666666" points="618.5,-295.5 499,-295.5 499,-276.25 618.5,-276.25 618.5,-295.5"/>
<text xml:space="preserve" text-anchor="middle" x="558.75" y="-282" font-family="Helvetica,sans-Serif" font-size="10.00">TemperatureController.h</text>
</a>
</g>
</g>
<!-- Node1&#45;&gt;Node2 -->
<g id="edge1_Node000001_Node000002" class="edge">
<title>Node1&#45;&gt;Node2</title>
<g id="a_edge1_Node000001_Node000002"><a xlink:title=" ">
<path fill="none" stroke="#63b8ff" d="M816.14,-441.64C794.95,-419.98 737.88,-364.28 680.75,-331.5 656.69,-317.69 627.58,-306.85 603.83,-299.31"/>
<polygon fill="#63b8ff" stroke="#63b8ff" points="605.02,-296.02 594.44,-296.43 602.97,-302.71 605.02,-296.02"/>
</a>
</g>
</g>
<!-- Node14 -->
<g id="Node000014" class="node">
<title>Node14</title>
<g id="a_Node000014"><a xlink:title=" ">
<polygon fill="#e0e0e0" stroke="#999999" points="1394,-19.25 1349.5,-19.25 1349.5,0 1394,0 1394,-19.25"/>
<text xml:space="preserve" text-anchor="middle" x="1371.75" y="-5.75" font-family="Helvetica,sans-Serif" font-size="10.00">WiFi.h</text>
</a>
</g>
</g>
<!-- Node1&#45;&gt;Node14 -->
<g id="edge46_Node000001_Node000014" class="edge">
<title>Node1&#45;&gt;Node14</title>
<g id="a_edge46_Node000001_Node000014"><a xlink:title=" ">
<path fill="none" stroke="#63b8ff" d="M898.24,-451.19C1047.42,-450.35 1371.75,-437.55 1371.75,-342.12 1371.75,-342.12 1371.75,-342.12 1371.75,-119.12 1371.75,-88.41 1371.75,-52.8 1371.75,-30.99"/>
<polygon fill="#63b8ff" stroke="#63b8ff" points="1375.25,-31.14 1371.75,-21.14 1368.25,-31.14 1375.25,-31.14"/>
</a>
</g>
</g>
<!-- Node28 -->
<g id="Node000028" class="node">
<title>Node28</title>
<g id="a_Node000028"><a xlink:title=" ">
<polygon fill="#e0e0e0" stroke="#999999" points="883.62,-240.25 827.88,-240.25 827.88,-221 883.62,-221 883.62,-240.25"/>
<text xml:space="preserve" text-anchor="middle" x="855.75" y="-226.75" font-family="Helvetica,sans-Serif" font-size="10.00">algorithm</text>
</a>
</g>
</g>
<!-- Node1&#45;&gt;Node28 -->
<g id="edge47_Node000001_Node000028" class="edge">
<title>Node1&#45;&gt;Node28</title>
<g id="a_edge47_Node000001_Node000028"><a xlink:title=" ">
<path fill="none" stroke="#63b8ff" d="M833.64,-441.73C849.24,-425.41 881.01,-388.84 892.75,-350.75 903.75,-315.03 883.11,-273.34 868.48,-249.96"/>
<polygon fill="#63b8ff" stroke="#63b8ff" points="871.57,-248.28 863.15,-241.85 865.73,-252.13 871.57,-248.28"/>
</a>
</g>
</g>
<!-- Node29 -->
<g id="Node000029" class="node">
<title>Node29</title>
<g id="a_Node000029"><a xlink:href="_config_manager_8h.html" target="_top" xlink:title="Configuration management system for temperature monitoring device.">
<polygon fill="white" stroke="#666666" points="561.5,-406 472,-406 472,-386.75 561.5,-386.75 561.5,-406"/>
<text xml:space="preserve" text-anchor="middle" x="516.75" y="-392.5" font-family="Helvetica,sans-Serif" font-size="10.00">ConfigManager.h</text>
</a>
</g>
</g>
<!-- Node1&#45;&gt;Node29 -->
<g id="edge48_Node000001_Node000029" class="edge">
<title>Node1&#45;&gt;Node29</title>
<g id="a_edge48_Node000001_Node000029"><a xlink:title=" ">
<path fill="none" stroke="#63b8ff" d="M772.15,-441.53C716.7,-431.94 629.66,-416.9 572.9,-407.08"/>
<polygon fill="#63b8ff" stroke="#63b8ff" points="573.56,-403.65 563.11,-405.39 572.37,-410.54 573.56,-403.65"/>
</a>
</g>
</g>
<!-- Node3 -->
<g id="Node000003" class="node">
<title>Node3</title>
<g id="a_Node000003"><a xlink:title=" ">
<polygon fill="#e0e0e0" stroke="#999999" points="709.38,-19.25 652.12,-19.25 652.12,0 709.38,0 709.38,-19.25"/>
<text xml:space="preserve" text-anchor="middle" x="680.75" y="-5.75" font-family="Helvetica,sans-Serif" font-size="10.00">Arduino.h</text>
</a>
</g>
</g>
<!-- Node2&#45;&gt;Node3 -->
<g id="edge2_Node000002_Node000003" class="edge">
<title>Node2&#45;&gt;Node3</title>
<g id="a_edge2_Node000002_Node000003"><a xlink:title=" ">
<path fill="none" stroke="#63b8ff" d="M498.83,-276.18C409.49,-261.5 251.75,-228.24 251.75,-176.38 251.75,-176.38 251.75,-176.38 251.75,-119.12 251.75,-89.51 248,-74.22 270.75,-55.25 298.79,-31.87 542.48,-17.41 640.33,-12.51"/>
<polygon fill="#63b8ff" stroke="#63b8ff" points="640.46,-16 650.28,-12.02 640.12,-9.01 640.46,-16"/>
</a>
</g>
</g>
<!-- Node4 -->
<g id="Node000004" class="node">
<title>Node4</title>
<g id="a_Node000004"><a xlink:title=" ">
<polygon fill="#e0e0e0" stroke="#999999" points="771.25,-74.5 728.25,-74.5 728.25,-55.25 771.25,-55.25 771.25,-74.5"/>
<text xml:space="preserve" text-anchor="middle" x="749.75" y="-61" font-family="Helvetica,sans-Serif" font-size="10.00">vector</text>
</a>
</g>
</g>
<!-- Node2&#45;&gt;Node4 -->
<g id="edge3_Node000002_Node000004" class="edge">
<title>Node2&#45;&gt;Node4</title>
<g id="a_edge3_Node000002_Node000004"><a xlink:title=" ">
<path fill="none" stroke="#63b8ff" d="M618.92,-278.87C647.99,-273.14 681.52,-261.98 704.75,-240.25 748.46,-199.36 751.96,-122.12 750.95,-85.76"/>
<polygon fill="#63b8ff" stroke="#63b8ff" points="754.46,-86.07 750.53,-76.24 747.47,-86.38 754.46,-86.07"/>
</a>
</g>
</g>
<!-- Node5 -->
<g id="Node000005" class="node">
<title>Node5</title>
<g id="a_Node000005"><a xlink:href="_sensor_8h.html" target="_top" xlink:title="Temperature sensor abstraction layer.">
<polygon fill="white" stroke="#666666" points="507.88,-129.75 453.62,-129.75 453.62,-110.5 507.88,-110.5 507.88,-129.75"/>
<text xml:space="preserve" text-anchor="middle" x="480.75" y="-116.25" font-family="Helvetica,sans-Serif" font-size="10.00">Sensor.h</text>
</a>
</g>
</g>
<!-- Node2&#45;&gt;Node5 -->
<g id="edge4_Node000002_Node000005" class="edge">
<title>Node2&#45;&gt;Node5</title>
<g id="a_edge4_Node000002_Node000005"><a xlink:title=" ">
<path fill="none" stroke="#63b8ff" d="M536.97,-275.86C521.92,-268.5 502.71,-256.63 491.75,-240.25 471.79,-210.42 473.76,-166.59 477.15,-141.24"/>
<polygon fill="#63b8ff" stroke="#63b8ff" points="480.57,-142.05 478.66,-131.63 473.65,-140.97 480.57,-142.05"/>
</a>
</g>
</g>
<!-- Node6 -->
<g id="Node000006" class="node">
<title>Node6</title>
<g id="a_Node000006"><a xlink:title=" ">
<polygon fill="#e0e0e0" stroke="#999999" points="342,-74.5 279.5,-74.5 279.5,-55.25 342,-55.25 342,-74.5"/>
<text xml:space="preserve" text-anchor="middle" x="310.75" y="-61" font-family="Helvetica,sans-Serif" font-size="10.00">OneWire.h</text>
</a>
</g>
</g>
<!-- Node2&#45;&gt;Node6 -->
<g id="edge42_Node000002_Node000006" class="edge">
<title>Node2&#45;&gt;Node6</title>
<g id="a_edge42_Node000002_Node000006"><a xlink:title=" ">
<path fill="none" stroke="#63b8ff" d="M531.13,-275.77C510.73,-268.23 482.95,-256.17 461.75,-240.25 399.94,-193.83 345.49,-118.27 322.44,-83.91"/>
<polygon fill="#63b8ff" stroke="#63b8ff" points="325.59,-82.32 317.16,-75.91 319.75,-86.18 325.59,-82.32"/>
</a>
</g>
</g>
<!-- Node7 -->
<g id="Node000007" class="node">
<title>Node7</title>
<g id="a_Node000007"><a xlink:title=" ">
<polygon fill="#e0e0e0" stroke="#999999" points="465.75,-74.5 359.75,-74.5 359.75,-55.25 465.75,-55.25 465.75,-74.5"/>
<text xml:space="preserve" text-anchor="middle" x="412.75" y="-61" font-family="Helvetica,sans-Serif" font-size="10.00">DallasTemperature.h</text>
</a>
</g>
</g>
<!-- Node2&#45;&gt;Node7 -->
<g id="edge43_Node000002_Node000007" class="edge">
<title>Node2&#45;&gt;Node7</title>
<g id="a_edge43_Node000002_Node000007"><a xlink:title=" ">
<path fill="none" stroke="#63b8ff" d="M532.57,-275.76C515.21,-268.54 493.09,-256.87 478.75,-240.25 438.82,-193.98 421.89,-121.1 415.75,-86.04"/>
<polygon fill="#63b8ff" stroke="#63b8ff" points="419.25,-85.76 414.2,-76.45 412.34,-86.88 419.25,-85.76"/>
</a>
</g>
</g>
<!-- Node9 -->
<g id="Node000009" class="node">
<title>Node9</title>
<g id="a_Node000009"><a xlink:href="_measurement_point_8h.html" target="_top" xlink:title="Measurement point abstraction for temperature monitoring system.">
<polygon fill="white" stroke="#666666" points="661.75,-185 555.75,-185 555.75,-165.75 661.75,-165.75 661.75,-185"/>
<text xml:space="preserve" text-anchor="middle" x="608.75" y="-171.5" font-family="Helvetica,sans-Serif" font-size="10.00">MeasurementPoint.h</text>
</a>
</g>
</g>
<!-- Node2&#45;&gt;Node9 -->
<g id="edge9_Node000002_Node000009" class="edge">
<title>Node2&#45;&gt;Node9</title>
<g id="a_edge9_Node000002_Node000009"><a xlink:title=" ">
<path fill="none" stroke="#63b8ff" d="M566.33,-275.84C573.26,-267.18 583.37,-253.51 589.75,-240.25 596.51,-226.18 601.42,-209.21 604.56,-196.29"/>
<polygon fill="#63b8ff" stroke="#63b8ff" points="607.9,-197.38 606.69,-186.86 601.07,-195.84 607.9,-197.38"/>
</a>
</g>
</g>
<!-- Node19 -->
<g id="Node000019" class="node">
<title>Node19</title>
<g id="a_Node000019"><a xlink:title=" ">
<polygon fill="#e0e0e0" stroke="#999999" points="1331.88,-19.25 1253.62,-19.25 1253.62,0 1331.88,0 1331.88,-19.25"/>
<text xml:space="preserve" text-anchor="middle" x="1292.75" y="-5.75" font-family="Helvetica,sans-Serif" font-size="10.00">ArduinoJson.h</text>
</a>
</g>
</g>
<!-- Node2&#45;&gt;Node19 -->
<g id="edge44_Node000002_Node000019" class="edge">
<title>Node2&#45;&gt;Node19</title>
<g id="a_edge44_Node000002_Node000019"><a xlink:title=" ">
<path fill="none" stroke="#63b8ff" d="M618.6,-276.18C662.69,-268.91 723.77,-257.01 775.75,-240.25 795.68,-233.83 798.59,-226.65 818.75,-221 941.69,-186.54 978.71,-210.82 1103.75,-185 1190.29,-167.13 1241.65,-200.39 1294.75,-129.75 1316.43,-100.91 1307.63,-56.05 1299.83,-30.41"/>
<polygon fill="#63b8ff" stroke="#63b8ff" points="1303.16,-29.34 1296.69,-20.95 1296.52,-31.54 1303.16,-29.34"/>
</a>
</g>
</g>
<!-- Node20 -->
<g id="Node000020" class="node">
<title>Node20</title>
<g id="a_Node000020"><a xlink:href="_register_map_8h.html" target="_top" xlink:title="Modbus register mapping for temperature monitoring system.">
<polygon fill="white" stroke="#666666" points="580.62,-240.25 500.88,-240.25 500.88,-221 580.62,-221 580.62,-240.25"/>
<text xml:space="preserve" text-anchor="middle" x="540.75" y="-226.75" font-family="Helvetica,sans-Serif" font-size="10.00">RegisterMap.h</text>
</a>
</g>
</g>
<!-- Node2&#45;&gt;Node20 -->
<g id="edge25_Node000002_Node000020" class="edge">
<title>Node2&#45;&gt;Node20</title>
<g id="a_edge25_Node000002_Node000020"><a xlink:title=" ">
<path fill="none" stroke="#63b8ff" d="M555.78,-276.08C553.5,-269.34 550.26,-259.77 547.38,-251.24"/>
<polygon fill="#63b8ff" stroke="#63b8ff" points="550.79,-250.4 544.27,-242.04 544.16,-252.64 550.79,-250.4"/>
</a>
</g>
</g>
<!-- Node22 -->
<g id="Node000022" class="node">
<title>Node22</title>
<g id="a_Node000022"><a xlink:href="_indicator_interface_8h.html" target="_top" xlink:title="Hardware interface for PCF8575 I/O expander and SH1106 OLED display.">
<polygon fill="white" stroke="#666666" points="1094.75,-185 994.75,-185 994.75,-165.75 1094.75,-165.75 1094.75,-185"/>
<text xml:space="preserve" text-anchor="middle" x="1044.75" y="-171.5" font-family="Helvetica,sans-Serif" font-size="10.00">IndicatorInterface.h</text>
</a>
</g>
</g>
<!-- Node2&#45;&gt;Node22 -->
<g id="edge28_Node000002_Node000022" class="edge">
<title>Node2&#45;&gt;Node22</title>
<g id="a_edge28_Node000002_Node000022"><a xlink:title=" ">
<path fill="none" stroke="#63b8ff" d="M602.26,-275.78C638.8,-267.73 692.19,-254.99 737.75,-240.25 759.62,-233.18 763.64,-227.26 785.75,-221 852.01,-202.23 930.16,-190.08 983.16,-183.27"/>
<polygon fill="#63b8ff" stroke="#63b8ff" points="983.41,-186.77 992.9,-182.05 982.54,-179.82 983.41,-186.77"/>
</a>
</g>
</g>
<!-- Node27 -->
<g id="Node000027" class="node">
<title>Node27</title>
<g id="a_Node000027"><a xlink:href="_alarm_8h.html" target="_top" xlink:title="Alarm management system for temperature monitoring.">
<polygon fill="white" stroke="#666666" points="695.62,-240.25 645.88,-240.25 645.88,-221 695.62,-221 695.62,-240.25"/>
<text xml:space="preserve" text-anchor="middle" x="670.75" y="-226.75" font-family="Helvetica,sans-Serif" font-size="10.00">Alarm.h</text>
</a>
</g>
</g>
<!-- Node2&#45;&gt;Node27 -->
<g id="edge37_Node000002_Node000027" class="edge">
<title>Node2&#45;&gt;Node27</title>
<g id="a_edge37_Node000002_Node000027"><a xlink:title=" ">
<path fill="none" stroke="#63b8ff" d="M577.75,-275.84C595.21,-267.54 621.35,-255.11 641.47,-245.54"/>
<polygon fill="#63b8ff" stroke="#63b8ff" points="642.76,-248.81 650.29,-241.35 639.76,-242.49 642.76,-248.81"/>
</a>
</g>
</g>
<!-- Node2&#45;&gt;Node28 -->
<g id="edge45_Node000002_Node000028" class="edge">
<title>Node2&#45;&gt;Node28</title>
<g id="a_edge45_Node000002_Node000028"><a xlink:title=" ">
<path fill="none" stroke="#63b8ff" d="M613.55,-275.76C665.25,-267.05 744.87,-253.35 813.75,-240.25 814.74,-240.06 815.75,-239.87 816.76,-239.67"/>
<polygon fill="#63b8ff" stroke="#63b8ff" points="817.15,-243.16 826.27,-237.79 815.78,-236.3 817.15,-243.16"/>
</a>
</g>
</g>
<!-- Node5&#45;&gt;Node3 -->
<g id="edge5_Node000005_Node000003" class="edge">
<title>Node5&#45;&gt;Node3</title>
<g id="a_edge5_Node000005_Node000003"><a xlink:title=" ">
<path fill="none" stroke="#63b8ff" d="M482.72,-110.23C486.26,-96.35 495.05,-69.65 512.75,-55.25 549.19,-25.6 603.42,-15.51 640.34,-12.15"/>
<polygon fill="#63b8ff" stroke="#63b8ff" points="640.47,-15.66 650.17,-11.4 639.93,-8.68 640.47,-15.66"/>
</a>
</g>
</g>
<!-- Node5&#45;&gt;Node6 -->
<g id="edge6_Node000005_Node000006" class="edge">
<title>Node5&#45;&gt;Node6</title>
<g id="a_edge6_Node000005_Node000006"><a xlink:title=" ">
<path fill="none" stroke="#63b8ff" d="M453.44,-110.57C425.56,-101.84 382.02,-88.2 350.36,-78.28"/>
<polygon fill="#63b8ff" stroke="#63b8ff" points="351.74,-75.05 341.15,-75.4 349.64,-81.73 351.74,-75.05"/>
</a>
</g>
</g>
<!-- Node5&#45;&gt;Node7 -->
<g id="edge7_Node000005_Node000007" class="edge">
<title>Node5&#45;&gt;Node7</title>
<g id="a_edge7_Node000005_Node000007"><a xlink:title=" ">
<path fill="none" stroke="#63b8ff" d="M469.21,-110.09C459.29,-102.32 444.74,-90.92 432.89,-81.65"/>
<polygon fill="#63b8ff" stroke="#63b8ff" points="435.34,-79.12 425.31,-75.71 431.02,-84.63 435.34,-79.12"/>
</a>
</g>
</g>
<!-- Node8 -->
<g id="Node000008" class="node">
<title>Node8</title>
<g id="a_Node000008"><a xlink:title=" ">
<polygon fill="#e0e0e0" stroke="#999999" points="633.38,-74.5 522.12,-74.5 522.12,-55.25 633.38,-55.25 633.38,-74.5"/>
<text xml:space="preserve" text-anchor="middle" x="577.75" y="-61" font-family="Helvetica,sans-Serif" font-size="10.00">Adafruit_MAX31865.h</text>
</a>
</g>
</g>
<!-- Node5&#45;&gt;Node8 -->
<g id="edge8_Node000005_Node000008" class="edge">
<title>Node5&#45;&gt;Node8</title>
<g id="a_edge8_Node000005_Node000008"><a xlink:title=" ">
<path fill="none" stroke="#63b8ff" d="M497.2,-110.09C511.98,-101.98 533.93,-89.93 551.18,-80.46"/>
<polygon fill="#63b8ff" stroke="#63b8ff" points="552.81,-83.56 559.89,-75.68 549.44,-77.43 552.81,-83.56"/>
</a>
</g>
</g>
<!-- Node9&#45;&gt;Node3 -->
<g id="edge10_Node000009_Node000003" class="edge">
<title>Node9&#45;&gt;Node3</title>
<g id="a_edge10_Node000009_Node000003"><a xlink:title=" ">
<path fill="none" stroke="#63b8ff" d="M612.62,-165.57C623.85,-140.03 656.64,-65.45 672.27,-29.9"/>
<polygon fill="#63b8ff" stroke="#63b8ff" points="675.43,-31.42 676.25,-20.86 669.02,-28.6 675.43,-31.42"/>
</a>
</g>
</g>
<!-- Node9&#45;&gt;Node5 -->
<g id="edge11_Node000009_Node000005" class="edge">
<title>Node9&#45;&gt;Node5</title>
<g id="a_edge11_Node000009_Node000005"><a xlink:title=" ">
<path fill="none" stroke="#63b8ff" d="M587.04,-165.34C566.72,-156.89 536.1,-144.15 512.94,-134.52"/>
<polygon fill="#63b8ff" stroke="#63b8ff" points="514.54,-131.39 503.97,-130.78 511.86,-137.86 514.54,-131.39"/>
</a>
</g>
</g>
<!-- Node10 -->
<g id="Node000010" class="node">
<title>Node10</title>
<g id="a_Node000010"><a xlink:href="_logger_manager_8h.html" target="_top" xlink:title="Comprehensive data and event logging system for temperature monitoring.">
<polygon fill="white" stroke="#666666" points="921.88,-129.75 831.62,-129.75 831.62,-110.5 921.88,-110.5 921.88,-129.75"/>
<text xml:space="preserve" text-anchor="middle" x="876.75" y="-116.25" font-family="Helvetica,sans-Serif" font-size="10.00">LoggerManager.h</text>
</a>
</g>
</g>
<!-- Node9&#45;&gt;Node10 -->
<g id="edge12_Node000009_Node000010" class="edge">
<title>Node9&#45;&gt;Node10</title>
<g id="a_edge12_Node000009_Node000010"><a xlink:title=" ">
<path fill="none" stroke="#63b8ff" d="M654.52,-165.28C700.29,-156.19 770.78,-142.18 820.06,-132.39"/>
<polygon fill="#63b8ff" stroke="#63b8ff" points="820.56,-135.86 829.69,-130.48 819.2,-128.99 820.56,-135.86"/>
</a>
</g>
</g>
<!-- Node10&#45;&gt;Node3 -->
<g id="edge13_Node000010_Node000003" class="edge">
<title>Node10&#45;&gt;Node3</title>
<g id="a_edge13_Node000010_Node000003"><a xlink:title=" ">
<path fill="none" stroke="#63b8ff" d="M864.59,-110.2C846.59,-97.22 811.55,-72.74 779.75,-55.25 758.52,-43.57 733.66,-32.38 714.17,-24.12"/>
<polygon fill="#63b8ff" stroke="#63b8ff" points="715.63,-20.94 705.06,-20.32 712.94,-27.4 715.63,-20.94"/>
</a>
</g>
</g>
<!-- Node10&#45;&gt;Node4 -->
<g id="edge24_Node000010_Node000004" class="edge">
<title>Node10&#45;&gt;Node4</title>
<g id="a_edge24_Node000010_Node000004"><a xlink:title=" ">
<path fill="none" stroke="#63b8ff" d="M855.21,-110.09C835.14,-101.68 804.95,-89.02 782,-79.4"/>
<polygon fill="#63b8ff" stroke="#63b8ff" points="783.37,-76.18 772.8,-75.54 780.66,-82.63 783.37,-76.18"/>
</a>
</g>
</g>
<!-- Node11 -->
<g id="Node000011" class="node">
<title>Node11</title>
<g id="a_Node000011"><a xlink:title=" ">
<polygon fill="#e0e0e0" stroke="#999999" points="921.25,-74.5 884.25,-74.5 884.25,-55.25 921.25,-55.25 921.25,-74.5"/>
<text xml:space="preserve" text-anchor="middle" x="902.75" y="-61" font-family="Helvetica,sans-Serif" font-size="10.00">FS.h</text>
</a>
</g>
</g>
<!-- Node10&#45;&gt;Node11 -->
<g id="edge14_Node000010_Node000011" class="edge">
<title>Node10&#45;&gt;Node11</title>
<g id="a_edge14_Node000010_Node000011"><a xlink:title=" ">
<path fill="none" stroke="#63b8ff" d="M881.04,-110.33C884.37,-103.51 889.11,-93.81 893.31,-85.2"/>
<polygon fill="#63b8ff" stroke="#63b8ff" points="896.46,-86.74 897.7,-76.22 890.17,-83.67 896.46,-86.74"/>
</a>
</g>
</g>
<!-- Node12 -->
<g id="Node000012" class="node">
<title>Node12</title>
<g id="a_Node000012"><a xlink:title=" ">
<polygon fill="#e0e0e0" stroke="#999999" points="866,-74.5 827.5,-74.5 827.5,-55.25 866,-55.25 866,-74.5"/>
<text xml:space="preserve" text-anchor="middle" x="846.75" y="-61" font-family="Helvetica,sans-Serif" font-size="10.00">SD.h</text>
</a>
</g>
</g>
<!-- Node10&#45;&gt;Node12 -->
<g id="edge15_Node000010_Node000012" class="edge">
<title>Node10&#45;&gt;Node12</title>
<g id="a_edge15_Node000010_Node000012"><a xlink:title=" ">
<path fill="none" stroke="#63b8ff" d="M871.8,-110.33C867.87,-103.36 862.24,-93.37 857.31,-84.62"/>
<polygon fill="#63b8ff" stroke="#63b8ff" points="860.51,-83.17 852.55,-76.18 854.41,-86.61 860.51,-83.17"/>
</a>
</g>
</g>
<!-- Node13 -->
<g id="Node000013" class="node">
<title>Node13</title>
<g id="a_Node000013"><a xlink:href="_time_manager_8h.html" target="_top" xlink:title="Real&#45;time clock and time synchronization management.">
<polygon fill="white" stroke="#666666" points="1140.12,-74.5 1057.38,-74.5 1057.38,-55.25 1140.12,-55.25 1140.12,-74.5"/>
<text xml:space="preserve" text-anchor="middle" x="1098.75" y="-61" font-family="Helvetica,sans-Serif" font-size="10.00">TimeManager.h</text>
</a>
</g>
</g>
<!-- Node10&#45;&gt;Node13 -->
<g id="edge16_Node000010_Node000013" class="edge">
<title>Node10&#45;&gt;Node13</title>
<g id="a_edge16_Node000010_Node000013"><a xlink:title=" ">
<path fill="none" stroke="#63b8ff" d="M914.66,-110.03C952.02,-101.07 1009.25,-87.34 1049.98,-77.57"/>
<polygon fill="#63b8ff" stroke="#63b8ff" points="1050.62,-81.02 1059.52,-75.28 1048.98,-74.21 1050.62,-81.02"/>
</a>
</g>
</g>
<!-- Node13&#45;&gt;Node3 -->
<g id="edge17_Node000013_Node000003" class="edge">
<title>Node13&#45;&gt;Node3</title>
<g id="a_edge17_Node000013_Node000003"><a xlink:title=" ">
<path fill="none" stroke="#63b8ff" d="M1057.14,-58.57C976.54,-48.31 800.1,-25.83 720.77,-15.72"/>
<polygon fill="#63b8ff" stroke="#63b8ff" points="721.66,-12.31 711.3,-14.52 720.78,-19.25 721.66,-12.31"/>
</a>
</g>
</g>
<!-- Node13&#45;&gt;Node14 -->
<g id="edge18_Node000013_Node000014" class="edge">
<title>Node13&#45;&gt;Node14</title>
<g id="a_edge18_Node000013_Node000014"><a xlink:title=" ">
<path fill="none" stroke="#63b8ff" d="M1140.52,-57.33C1186.67,-49.85 1263.4,-36.66 1338.12,-19.7"/>
<polygon fill="#63b8ff" stroke="#63b8ff" points="1338.69,-23.16 1347.65,-17.51 1337.12,-16.34 1338.69,-23.16"/>
</a>
</g>
</g>
<!-- Node15 -->
<g id="Node000015" class="node">
<title>Node15</title>
<g id="a_Node000015"><a xlink:title=" ">
<polygon fill="#e0e0e0" stroke="#999999" points="1236,-19.25 1191.5,-19.25 1191.5,0 1236,0 1236,-19.25"/>
<text xml:space="preserve" text-anchor="middle" x="1213.75" y="-5.75" font-family="Helvetica,sans-Serif" font-size="10.00">Wire.h</text>
</a>
</g>
</g>
<!-- Node13&#45;&gt;Node15 -->
<g id="edge19_Node000013_Node000015" class="edge">
<title>Node13&#45;&gt;Node15</title>
<g id="a_edge19_Node000013_Node000015"><a xlink:title=" ">
<path fill="none" stroke="#63b8ff" d="M1118.26,-54.84C1136.27,-46.5 1163.27,-34 1183.98,-24.41"/>
<polygon fill="#63b8ff" stroke="#63b8ff" points="1185.17,-27.72 1192.77,-20.34 1182.23,-21.36 1185.17,-27.72"/>
</a>
</g>
</g>
<!-- Node16 -->
<g id="Node000016" class="node">
<title>Node16</title>
<g id="a_Node000016"><a xlink:title=" ">
<polygon fill="#e0e0e0" stroke="#999999" points="1085.25,-19.25 1030.25,-19.25 1030.25,0 1085.25,0 1085.25,-19.25"/>
<text xml:space="preserve" text-anchor="middle" x="1057.75" y="-5.75" font-family="Helvetica,sans-Serif" font-size="10.00">RTClib.h</text>
</a>
</g>
</g>
<!-- Node13&#45;&gt;Node16 -->
<g id="edge20_Node000013_Node000016" class="edge">
<title>Node13&#45;&gt;Node16</title>
<g id="a_edge20_Node000013_Node000016"><a xlink:title=" ">
<path fill="none" stroke="#63b8ff" d="M1091.98,-55.08C1086.43,-47.88 1078.41,-37.46 1071.52,-28.51"/>
<polygon fill="#63b8ff" stroke="#63b8ff" points="1074.46,-26.6 1065.59,-20.81 1068.92,-30.87 1074.46,-26.6"/>
</a>
</g>
</g>
<!-- Node17 -->
<g id="Node000017" class="node">
<title>Node17</title>
<g id="a_Node000017"><a xlink:title=" ">
<polygon fill="#e0e0e0" stroke="#999999" points="1173.75,-19.25 1103.75,-19.25 1103.75,0 1173.75,0 1173.75,-19.25"/>
<text xml:space="preserve" text-anchor="middle" x="1138.75" y="-5.75" font-family="Helvetica,sans-Serif" font-size="10.00">NTPClient.h</text>
</a>
</g>
</g>
<!-- Node13&#45;&gt;Node17 -->
<g id="edge21_Node000013_Node000017" class="edge">
<title>Node13&#45;&gt;Node17</title>
<g id="a_edge21_Node000013_Node000017"><a xlink:title=" ">
<path fill="none" stroke="#63b8ff" d="M1105.36,-55.08C1110.71,-47.96 1118.43,-37.68 1125.1,-28.8"/>
<polygon fill="#63b8ff" stroke="#63b8ff" points="1127.88,-30.92 1131.09,-20.82 1122.29,-26.71 1127.88,-30.92"/>
</a>
</g>
</g>
<!-- Node18 -->
<g id="Node000018" class="node">
<title>Node18</title>
<g id="a_Node000018"><a xlink:title=" ">
<polygon fill="#e0e0e0" stroke="#999999" points="1012,-19.25 949.5,-19.25 949.5,0 1012,0 1012,-19.25"/>
<text xml:space="preserve" text-anchor="middle" x="980.75" y="-5.75" font-family="Helvetica,sans-Serif" font-size="10.00">WiFiUdp.h</text>
</a>
</g>
</g>
<!-- Node13&#45;&gt;Node18 -->
<g id="edge22_Node000013_Node000018" class="edge">
<title>Node13&#45;&gt;Node18</title>
<g id="a_edge22_Node000013_Node000018"><a xlink:title=" ">
<path fill="none" stroke="#63b8ff" d="M1078.73,-54.84C1060.26,-46.5 1032.54,-34 1011.3,-24.41"/>
<polygon fill="#63b8ff" stroke="#63b8ff" points="1012.8,-21.25 1002.24,-20.33 1009.92,-27.63 1012.8,-21.25"/>
</a>
</g>
</g>
<!-- Node13&#45;&gt;Node19 -->
<g id="edge23_Node000013_Node000019" class="edge">
<title>Node13&#45;&gt;Node19</title>
<g id="a_edge23_Node000013_Node000019"><a xlink:title=" ">
<path fill="none" stroke="#63b8ff" d="M1131.66,-54.84C1163.85,-46.01 1213.09,-32.49 1248.65,-22.73"/>
<polygon fill="#63b8ff" stroke="#63b8ff" points="1249.5,-26.13 1258.22,-20.1 1247.65,-19.37 1249.5,-26.13"/>
</a>
</g>
</g>
<!-- Node20&#45;&gt;Node9 -->
<g id="edge27_Node000020_Node000009" class="edge">
<title>Node20&#45;&gt;Node9</title>
<g id="a_edge27_Node000020_Node000009"><a xlink:title=" ">
<path fill="none" stroke="#63b8ff" d="M552.29,-220.59C562.21,-212.82 576.76,-201.42 588.61,-192.15"/>
<polygon fill="#63b8ff" stroke="#63b8ff" points="590.48,-195.13 596.19,-186.21 586.16,-189.62 590.48,-195.13"/>
</a>
</g>
</g>
<!-- Node21 -->
<g id="Node000021" class="node">
<title>Node21</title>
<g id="a_Node000021"><a xlink:title=" ">
<polygon fill="#e0e0e0" stroke="#999999" points="537.88,-185 489.62,-185 489.62,-165.75 537.88,-165.75 537.88,-185"/>
<text xml:space="preserve" text-anchor="middle" x="513.75" y="-171.5" font-family="Helvetica,sans-Serif" font-size="10.00">stdint.h</text>
</a>
</g>
</g>
<!-- Node20&#45;&gt;Node21 -->
<g id="edge26_Node000020_Node000021" class="edge">
<title>Node20&#45;&gt;Node21</title>
<g id="a_edge26_Node000020_Node000021"><a xlink:title=" ">
<path fill="none" stroke="#63b8ff" d="M536.29,-220.83C532.8,-213.94 527.8,-204.09 523.4,-195.41"/>
<polygon fill="#63b8ff" stroke="#63b8ff" points="526.63,-194.05 518.99,-186.71 520.39,-197.21 526.63,-194.05"/>
</a>
</g>
</g>
<!-- Node22&#45;&gt;Node3 -->
<g id="edge29_Node000022_Node000003" class="edge">
<title>Node22&#45;&gt;Node3</title>
<g id="a_edge29_Node000022_Node000003"><a xlink:title=" ">
<path fill="none" stroke="#63b8ff" d="M1036.38,-165.54C1028.32,-156.81 1016.02,-142.89 1006.75,-129.75 984.71,-98.51 995.26,-76.9 963.75,-55.25 924.99,-28.63 789.13,-16.99 720.73,-12.72"/>
<polygon fill="#63b8ff" stroke="#63b8ff" points="721.27,-9.25 711.08,-12.14 720.85,-16.24 721.27,-9.25"/>
</a>
</g>
</g>
<!-- Node22&#45;&gt;Node4 -->
<g id="edge35_Node000022_Node000004" class="edge">
<title>Node22&#45;&gt;Node4</title>
<g id="a_edge35_Node000022_Node000004"><a xlink:title=" ">
<path fill="none" stroke="#63b8ff" d="M994.31,-171.65C947.7,-167.46 877.56,-156.81 822.75,-129.75 799.74,-118.39 778.26,-97.92 764.64,-83.22"/>
<polygon fill="#63b8ff" stroke="#63b8ff" points="767.52,-81.18 758.24,-76.06 762.3,-85.85 767.52,-81.18"/>
</a>
</g>
</g>
<!-- Node22&#45;&gt;Node10 -->
<g id="edge36_Node000022_Node000010" class="edge">
<title>Node22&#45;&gt;Node10</title>
<g id="a_edge36_Node000022_Node000010"><a xlink:title=" ">
<path fill="none" stroke="#63b8ff" d="M1016.25,-165.34C988.74,-156.62 946.84,-143.34 916.14,-133.61"/>
<polygon fill="#63b8ff" stroke="#63b8ff" points="917.42,-130.34 906.83,-130.66 915.31,-137.02 917.42,-130.34"/>
</a>
</g>
</g>
<!-- Node22&#45;&gt;Node15 -->
<g id="edge30_Node000022_Node000015" class="edge">
<title>Node22&#45;&gt;Node15</title>
<g id="a_edge30_Node000022_Node000015"><a xlink:title=" ">
<path fill="none" stroke="#63b8ff" d="M1095.24,-171.95C1156.43,-167.84 1254.19,-157.06 1276.75,-129.75 1303.66,-97.18 1261.25,-51.28 1233.94,-27.07"/>
<polygon fill="#63b8ff" stroke="#63b8ff" points="1236.39,-24.56 1226.52,-20.72 1231.84,-29.88 1236.39,-24.56"/>
</a>
</g>
</g>
<!-- Node23 -->
<g id="Node000023" class="node">
<title>Node23</title>
<g id="a_Node000023"><a xlink:title=" ">
<polygon fill="#e0e0e0" stroke="#999999" points="1126.12,-129.75 1091.38,-129.75 1091.38,-110.5 1126.12,-110.5 1126.12,-129.75"/>
<text xml:space="preserve" text-anchor="middle" x="1108.75" y="-116.25" font-family="Helvetica,sans-Serif" font-size="10.00">map</text>
</a>
</g>
</g>
<!-- Node22&#45;&gt;Node23 -->
<g id="edge31_Node000022_Node000023" class="edge">
<title>Node22&#45;&gt;Node23</title>
<g id="a_edge31_Node000022_Node000023"><a xlink:title=" ">
<path fill="none" stroke="#63b8ff" d="M1055.61,-165.34C1064.86,-157.65 1078.37,-146.4 1089.46,-137.18"/>
<polygon fill="#63b8ff" stroke="#63b8ff" points="1091.44,-140.08 1096.89,-130.99 1086.96,-134.7 1091.44,-140.08"/>
</a>
</g>
</g>
<!-- Node24 -->
<g id="Node000024" class="node">
<title>Node24</title>
<g id="a_Node000024"><a xlink:title=" ">
<polygon fill="#e0e0e0" stroke="#999999" points="1183.75,-129.75 1143.75,-129.75 1143.75,-110.5 1183.75,-110.5 1183.75,-129.75"/>
<text xml:space="preserve" text-anchor="middle" x="1163.75" y="-116.25" font-family="Helvetica,sans-Serif" font-size="10.00">string</text>
</a>
</g>
</g>
<!-- Node22&#45;&gt;Node24 -->
<g id="edge32_Node000022_Node000024" class="edge">
<title>Node22&#45;&gt;Node24</title>
<g id="a_edge32_Node000022_Node000024"><a xlink:title=" ">
<path fill="none" stroke="#63b8ff" d="M1064.94,-165.34C1083.66,-156.97 1111.77,-144.38 1133.23,-134.78"/>
<polygon fill="#63b8ff" stroke="#63b8ff" points="1134.38,-138.1 1142.08,-130.82 1131.53,-131.71 1134.38,-138.1"/>
</a>
</g>
</g>
<!-- Node25 -->
<g id="Node000025" class="node">
<title>Node25</title>
<g id="a_Node000025"><a xlink:title=" ">
<polygon fill="#e0e0e0" stroke="#999999" points="1267.5,-129.75 1202,-129.75 1202,-110.5 1267.5,-110.5 1267.5,-129.75"/>
<text xml:space="preserve" text-anchor="middle" x="1234.75" y="-116.25" font-family="Helvetica,sans-Serif" font-size="10.00">PCF8575.h</text>
</a>
</g>
</g>
<!-- Node22&#45;&gt;Node25 -->
<g id="edge33_Node000022_Node000025" class="edge">
<title>Node22&#45;&gt;Node25</title>
<g id="a_edge33_Node000022_Node000025"><a xlink:title=" ">
<path fill="none" stroke="#63b8ff" d="M1076.98,-165.34C1108.51,-156.51 1156.73,-142.99 1191.56,-133.23"/>
<polygon fill="#63b8ff" stroke="#63b8ff" points="1192.22,-136.68 1200.9,-130.61 1190.33,-129.94 1192.22,-136.68"/>
</a>
</g>
</g>
<!-- Node26 -->
<g id="Node000026" class="node">
<title>Node26</title>
<g id="a_Node000026"><a xlink:title=" ">
<polygon fill="#e0e0e0" stroke="#999999" points="1073.38,-129.75 1016.12,-129.75 1016.12,-110.5 1073.38,-110.5 1073.38,-129.75"/>
<text xml:space="preserve" text-anchor="middle" x="1044.75" y="-116.25" font-family="Helvetica,sans-Serif" font-size="10.00">U8g2lib.h</text>
</a>
</g>
</g>
<!-- Node22&#45;&gt;Node26 -->
<g id="edge34_Node000022_Node000026" class="edge">
<title>Node22&#45;&gt;Node26</title>
<g id="a_edge34_Node000022_Node000026"><a xlink:title=" ">
<path fill="none" stroke="#63b8ff" d="M1044.75,-165.58C1044.75,-159.07 1044.75,-149.92 1044.75,-141.62"/>
<polygon fill="#63b8ff" stroke="#63b8ff" points="1048.25,-141.62 1044.75,-131.62 1041.25,-141.62 1048.25,-141.62"/>
</a>
</g>
</g>
<!-- Node27&#45;&gt;Node3 -->
<g id="edge38_Node000027_Node000003" class="edge">
<title>Node27&#45;&gt;Node3</title>
<g id="a_edge38_Node000027_Node000003"><a xlink:title=" ">
<path fill="none" stroke="#63b8ff" d="M671.15,-220.77C672.63,-188.51 677.73,-76.76 679.83,-30.71"/>
<polygon fill="#63b8ff" stroke="#63b8ff" points="683.32,-31.01 680.28,-20.86 676.33,-30.69 683.32,-31.01"/>
</a>
</g>
</g>
<!-- Node27&#45;&gt;Node4 -->
<g id="edge39_Node000027_Node000004" class="edge">
<title>Node27&#45;&gt;Node4</title>
<g id="a_edge39_Node000027_Node000004"><a xlink:title=" ">
<path fill="none" stroke="#63b8ff" d="M678.61,-220.55C685.84,-211.86 696.51,-198.17 703.75,-185 721.94,-151.91 736.29,-110.12 743.85,-85.86"/>
<polygon fill="#63b8ff" stroke="#63b8ff" points="747.18,-86.94 746.74,-76.35 740.48,-84.91 747.18,-86.94"/>
</a>
</g>
</g>
<!-- Node27&#45;&gt;Node9 -->
<g id="edge40_Node000027_Node000009" class="edge">
<title>Node27&#45;&gt;Node9</title>
<g id="a_edge40_Node000027_Node000009"><a xlink:title=" ">
<path fill="none" stroke="#63b8ff" d="M660.23,-220.59C651.36,-212.97 638.44,-201.87 627.76,-192.7"/>
<polygon fill="#63b8ff" stroke="#63b8ff" points="630.13,-190.12 620.26,-186.26 625.57,-195.43 630.13,-190.12"/>
</a>
</g>
</g>
<!-- Node27&#45;&gt;Node10 -->
<g id="edge41_Node000027_Node000010" class="edge">
<title>Node27&#45;&gt;Node10</title>
<g id="a_edge41_Node000027_Node000010"><a xlink:title=" ">
<path fill="none" stroke="#63b8ff" d="M687.96,-220.56C723.71,-201.73 806.25,-158.26 849.38,-135.54"/>
<polygon fill="#63b8ff" stroke="#63b8ff" points="850.89,-138.7 858.11,-130.94 847.63,-132.51 850.89,-138.7"/>
</a>
</g>
</g>
<!-- Node29&#45;&gt;Node2 -->
<g id="edge54_Node000029_Node000002" class="edge">
<title>Node29&#45;&gt;Node2</title>
<g id="a_edge54_Node000029_Node000002"><a xlink:title=" ">
<path fill="none" stroke="#63b8ff" d="M515.79,-386.31C514.8,-373.56 514.31,-349.85 521.75,-331.5 525.88,-321.31 533.22,-311.69 540.29,-304.01"/>
<polygon fill="#63b8ff" stroke="#63b8ff" points="542.63,-306.62 547.17,-297.04 537.65,-301.69 542.63,-306.62"/>
</a>
</g>
</g>
<!-- Node29&#45;&gt;Node3 -->
<g id="edge49_Node000029_Node000003" class="edge">
<title>Node29&#45;&gt;Node3</title>
<g id="a_edge49_Node000029_Node000003"><a xlink:title=" ">
<path fill="none" stroke="#63b8ff" d="M471.82,-390.62C379.22,-379.57 175.75,-348.3 175.75,-286.88 175.75,-286.88 175.75,-286.88 175.75,-119.12 175.75,-83.61 192.79,-72.64 223.75,-55.25 294.55,-15.47 542.15,-10.74 640.26,-10.47"/>
<polygon fill="#63b8ff" stroke="#63b8ff" points="640.22,-13.97 650.22,-10.46 640.22,-6.97 640.22,-13.97"/>
</a>
</g>
</g>
<!-- Node29&#45;&gt;Node10 -->
<g id="edge62_Node000029_Node000010" class="edge">
<title>Node29&#45;&gt;Node10</title>
<g id="a_edge62_Node000029_Node000010"><a xlink:title=" ">
<path fill="none" stroke="#63b8ff" d="M560.04,-386.28C593.59,-378.59 640.91,-366.34 680.75,-350.75 779.69,-312.02 837.65,-331.1 892.75,-240.25 911.62,-209.14 897.36,-165.14 886.35,-140.24"/>
<polygon fill="#63b8ff" stroke="#63b8ff" points="889.58,-138.9 882.15,-131.35 883.25,-141.89 889.58,-138.9"/>
</a>
</g>
</g>
<!-- Node30 -->
<g id="Node000030" class="node">
<title>Node30</title>
<g id="a_Node000030"><a xlink:title=" ">
<polygon fill="#e0e0e0" stroke="#999999" points="736,-295.5 655.5,-295.5 655.5,-276.25 736,-276.25 736,-295.5"/>
<text xml:space="preserve" text-anchor="middle" x="695.75" y="-282" font-family="Helvetica,sans-Serif" font-size="10.00">ConfigAssist.h</text>
</a>
</g>
</g>
<!-- Node29&#45;&gt;Node30 -->
<g id="edge50_Node000029_Node000030" class="edge">
<title>Node29&#45;&gt;Node30</title>
<g id="a_edge50_Node000029_Node000030"><a xlink:title=" ">
<path fill="none" stroke="#63b8ff" d="M519.66,-386.56C524.65,-372.79 536.15,-346.25 554.75,-331.5 580.33,-311.22 615.27,-300.08 643.97,-294"/>
<polygon fill="#63b8ff" stroke="#63b8ff" points="644.41,-297.48 653.55,-292.13 643.07,-290.61 644.41,-297.48"/>
</a>
</g>
</g>
<!-- Node31 -->
<g id="Node000031" class="node">
<title>Node31</title>
<g id="a_Node000031"><a xlink:title=" ">
<polygon fill="#e0e0e0" stroke="#999999" points="671.88,-350.75 563.62,-350.75 563.62,-331.5 671.88,-331.5 671.88,-350.75"/>
<text xml:space="preserve" text-anchor="middle" x="617.75" y="-337.25" font-family="Helvetica,sans-Serif" font-size="10.00">ConfigAssistHelper.h</text>
</a>
</g>
</g>
<!-- Node29&#45;&gt;Node31 -->
<g id="edge51_Node000029_Node000031" class="edge">
<title>Node29&#45;&gt;Node31</title>
<g id="a_edge51_Node000029_Node000031"><a xlink:title=" ">
<path fill="none" stroke="#63b8ff" d="M533.88,-386.34C549.41,-378.16 572.55,-365.96 590.59,-356.44"/>
<polygon fill="#63b8ff" stroke="#63b8ff" points="591.98,-359.67 599.19,-351.91 588.72,-353.48 591.98,-359.67"/>
</a>
</g>
</g>
<!-- Node32 -->
<g id="Node000032" class="node">
<title>Node32</title>
<g id="a_Node000032"><a xlink:title=" ">
<polygon fill="#e0e0e0" stroke="#999999" points="71.5,-350.75 0,-350.75 0,-331.5 71.5,-331.5 71.5,-350.75"/>
<text xml:space="preserve" text-anchor="middle" x="35.75" y="-337.25" font-family="Helvetica,sans-Serif" font-size="10.00">WebServer.h</text>
</a>
</g>
</g>
<!-- Node29&#45;&gt;Node32 -->
<g id="edge52_Node000029_Node000032" class="edge">
<title>Node29&#45;&gt;Node32</title>
<g id="a_edge52_Node000029_Node000032"><a xlink:title=" ">
<path fill="none" stroke="#63b8ff" d="M471.71,-392.07C394.36,-386.11 231.07,-372.3 82.68,-350.9"/>
<polygon fill="#63b8ff" stroke="#63b8ff" points="83.46,-347.48 73.06,-349.5 82.45,-354.41 83.46,-347.48"/>
</a>
</g>
</g>
<!-- Node33 -->
<g id="Node000033" class="node">
<title>Node33</title>
<g id="a_Node000033"><a xlink:title=" ">
<polygon fill="#e0e0e0" stroke="#999999" points="147.75,-350.75 89.75,-350.75 89.75,-331.5 147.75,-331.5 147.75,-350.75"/>
<text xml:space="preserve" text-anchor="middle" x="118.75" y="-337.25" font-family="Helvetica,sans-Serif" font-size="10.00">LittleFS.h</text>
</a>
</g>
</g>
<!-- Node29&#45;&gt;Node33 -->
<g id="edge53_Node000029_Node000033" class="edge">
<title>Node29&#45;&gt;Node33</title>
<g id="a_edge53_Node000029_Node000033"><a xlink:title=" ">
<path fill="none" stroke="#63b8ff" d="M471.77,-390.78C404.23,-383.65 272.72,-368.83 161.75,-350.75 160.76,-350.59 159.77,-350.42 158.76,-350.25"/>
<polygon fill="#63b8ff" stroke="#63b8ff" points="159.8,-346.88 149.33,-348.53 158.54,-353.77 159.8,-346.88"/>
</a>
</g>
</g>
<!-- Node34 -->
<g id="Node000034" class="node">
<title>Node34</title>
<g id="a_Node000034"><a xlink:href="_c_s_v_config_manager_8h.html" target="_top" xlink:title="CSV configuration import/export manager for measurement points and alarms.">
<polygon fill="white" stroke="#666666" points="470,-350.75 359.5,-350.75 359.5,-331.5 470,-331.5 470,-350.75"/>
<text xml:space="preserve" text-anchor="middle" x="414.75" y="-337.25" font-family="Helvetica,sans-Serif" font-size="10.00">CSVConfigManager.h</text>
</a>
</g>
</g>
<!-- Node29&#45;&gt;Node34 -->
<g id="edge55_Node000029_Node000034" class="edge">
<title>Node29&#45;&gt;Node34</title>
<g id="a_edge55_Node000029_Node000034"><a xlink:title=" ">
<path fill="none" stroke="#63b8ff" d="M499.45,-386.34C483.77,-378.16 460.4,-365.96 442.17,-356.44"/>
<polygon fill="#63b8ff" stroke="#63b8ff" points="443.96,-353.43 433.48,-351.9 440.72,-359.63 443.96,-353.43"/>
</a>
</g>
</g>
<!-- Node36 -->
<g id="Node000036" class="node">
<title>Node36</title>
<g id="a_Node000036"><a xlink:href="_settings_c_s_v_manager_8h.html" target="_top" xlink:title="CSV import/export manager for system settings.">
<polygon fill="white" stroke="#666666" points="883.75,-350.75 765.75,-350.75 765.75,-331.5 883.75,-331.5 883.75,-350.75"/>
<text xml:space="preserve" text-anchor="middle" x="824.75" y="-337.25" font-family="Helvetica,sans-Serif" font-size="10.00">SettingsCSVManager.h</text>
</a>
</g>
</g>
<!-- Node29&#45;&gt;Node36 -->
<g id="edge59_Node000029_Node000036" class="edge">
<title>Node29&#45;&gt;Node36</title>
<g id="a_edge59_Node000029_Node000036"><a xlink:title=" ">
<path fill="none" stroke="#63b8ff" d="M561.87,-387.57C614.37,-378.5 701.46,-363.44 760.89,-353.17"/>
<polygon fill="#63b8ff" stroke="#63b8ff" points="761.27,-356.65 770.53,-351.5 760.08,-349.75 761.27,-356.65"/>
</a>
</g>
</g>
<!-- Node34&#45;&gt;Node2 -->
<g id="edge58_Node000034_Node000002" class="edge">
<title>Node34&#45;&gt;Node2</title>
<g id="a_edge58_Node000034_Node000002"><a xlink:title=" ">
<path fill="none" stroke="#63b8ff" d="M439.18,-331.09C462.35,-322.52 497.41,-309.56 523.59,-299.88"/>
<polygon fill="#63b8ff" stroke="#63b8ff" points="524.62,-303.23 532.78,-296.48 522.19,-296.66 524.62,-303.23"/>
</a>
</g>
</g>
<!-- Node34&#45;&gt;Node3 -->
<g id="edge56_Node000034_Node000003" class="edge">
<title>Node34&#45;&gt;Node3</title>
<g id="a_edge56_Node000034_Node000003"><a xlink:title=" ">
<path fill="none" stroke="#63b8ff" d="M359.03,-333.96C299.54,-323.92 213.75,-297.95 213.75,-231.62 213.75,-231.62 213.75,-231.62 213.75,-119.12 213.75,-86.09 223.92,-73.04 251.75,-55.25 315.58,-14.44 546.52,-10.26 640.53,-10.31"/>
<polygon fill="#63b8ff" stroke="#63b8ff" points="640.29,-13.81 650.3,-10.33 640.31,-6.81 640.29,-13.81"/>
</a>
</g>
</g>
<!-- Node35 -->
<g id="Node000035" class="node">
<title>Node35</title>
<g id="a_Node000035"><a xlink:title=" ">
<polygon fill="#e0e0e0" stroke="#999999" points="453.88,-295.5 375.62,-295.5 375.62,-276.25 453.88,-276.25 453.88,-295.5"/>
<text xml:space="preserve" text-anchor="middle" x="414.75" y="-282" font-family="Helvetica,sans-Serif" font-size="10.00">CSV_Parser.h</text>
</a>
</g>
</g>
<!-- Node34&#45;&gt;Node35 -->
<g id="edge57_Node000034_Node000035" class="edge">
<title>Node34&#45;&gt;Node35</title>
<g id="a_edge57_Node000034_Node000035"><a xlink:title=" ">
<path fill="none" stroke="#63b8ff" d="M414.75,-331.33C414.75,-324.82 414.75,-315.67 414.75,-307.37"/>
<polygon fill="#63b8ff" stroke="#63b8ff" points="418.25,-307.37 414.75,-297.37 411.25,-307.37 418.25,-307.37"/>
</a>
</g>
</g>
<!-- Node36&#45;&gt;Node3 -->
<g id="edge60_Node000036_Node000003" class="edge">
<title>Node36&#45;&gt;Node3</title>
<g id="a_edge60_Node000036_Node000003"><a xlink:title=" ">
<path fill="none" stroke="#63b8ff" d="M850.65,-331.04C887.26,-316.34 949.75,-283.64 949.75,-231.62 949.75,-231.62 949.75,-231.62 949.75,-119.12 949.75,-89.51 952.84,-74.98 930.75,-55.25 900.4,-28.14 783.82,-16.92 721.16,-12.78"/>
<polygon fill="#63b8ff" stroke="#63b8ff" points="721.46,-9.29 711.26,-12.15 721.02,-16.27 721.46,-9.29"/>
</a>
</g>
</g>
<!-- Node36&#45;&gt;Node30 -->
<g id="edge61_Node000036_Node000030" class="edge">
<title>Node36&#45;&gt;Node30</title>
<g id="a_edge61_Node000036_Node000030"><a xlink:title=" ">
<path fill="none" stroke="#63b8ff" d="M802.87,-331.09C782.39,-322.64 751.54,-309.9 728.19,-300.27"/>
<polygon fill="#63b8ff" stroke="#63b8ff" points="729.72,-297.11 719.14,-296.53 727.05,-303.58 729.72,-297.11"/>
</a>
</g>
</g>
</g>
</svg>
