<?xml version="1.0" encoding="UTF-8" standalone="no"?>
<!DOCTYPE svg PUBLIC "-//W3C//DTD SVG 1.1//EN"
 "http://www.w3.org/Graphics/SVG/1.1/DTD/svg11.dtd">
<!-- Generated by graphviz version 13.1.0 (20250701.0955)
 -->
<!-- Title: include/TemperatureController.h Pages: 1 -->
<svg width="653pt" height="193pt"
 viewBox="0.00 0.00 653.00 193.00" xmlns="http://www.w3.org/2000/svg" xmlns:xlink="http://www.w3.org/1999/xlink">
<g id="graph0" class="graph" transform="scale(1 1) rotate(0) translate(4 189)">
<title>include/TemperatureController.h</title>
<!-- Node1 -->
<g id="Node000001" class="node">
<title>Node1</title>
<g id="a_Node000001"><a xlink:title="Central temperature monitoring and control system.">
<polygon fill="#999999" stroke="#666666" points="402.25,-185 249,-185 249,-165.75 402.25,-165.75 402.25,-185"/>
<text xml:space="preserve" text-anchor="middle" x="325.62" y="-171.5" font-family="Helvetica,sans-Serif" font-size="10.00">include/TemperatureController.h</text>
</a>
</g>
</g>
<!-- Node2 -->
<g id="Node000002" class="node">
<title>Node2</title>
<g id="a_Node000002"><a xlink:href="_c_s_v_config_manager_8h.html" target="_top" xlink:title="CSV configuration import/export manager for measurement points and alarms.">
<polygon fill="white" stroke="#666666" points="278.75,-129.75 134.5,-129.75 134.5,-110.5 278.75,-110.5 278.75,-129.75"/>
<text xml:space="preserve" text-anchor="middle" x="206.62" y="-116.25" font-family="Helvetica,sans-Serif" font-size="10.00">include/CSVConfigManager.h</text>
</a>
</g>
</g>
<!-- Node1&#45;&gt;Node2 -->
<g id="edge1_Node000001_Node000002" class="edge">
<title>Node1&#45;&gt;Node2</title>
<g id="a_edge1_Node000001_Node000002"><a xlink:title=" ">
<path fill="none" stroke="#63b8ff" d="M295.22,-160.77C273.79,-151.18 245.66,-138.59 226.91,-130.2"/>
<polygon fill="#63b8ff" stroke="#63b8ff" points="293.5,-163.83 304.06,-164.72 296.36,-157.44 293.5,-163.83"/>
</a>
</g>
</g>
<!-- Node3 -->
<g id="Node000003" class="node">
<title>Node3</title>
<g id="a_Node000003"><a xlink:href="_config_manager_8h.html" target="_top" xlink:title="Configuration management system for temperature monitoring device.">
<polygon fill="white" stroke="#666666" points="123.25,-74.5 0,-74.5 0,-55.25 123.25,-55.25 123.25,-74.5"/>
<text xml:space="preserve" text-anchor="middle" x="61.62" y="-61" font-family="Helvetica,sans-Serif" font-size="10.00">include/ConfigManager.h</text>
</a>
</g>
</g>
<!-- Node1&#45;&gt;Node3 -->
<g id="edge7_Node000001_Node000003" class="edge">
<title>Node1&#45;&gt;Node3</title>
<g id="a_edge7_Node000001_Node000003"><a xlink:title=" ">
<path fill="none" stroke="#63b8ff" d="M237.8,-165.7C201.42,-159.4 159.82,-148.52 125.62,-129.75 100.3,-115.85 78.32,-88.93 67.96,-74.89"/>
<polygon fill="#63b8ff" stroke="#63b8ff" points="236.99,-169.11 247.42,-167.27 238.11,-162.21 236.99,-169.11"/>
</a>
</g>
</g>
<!-- Node5 -->
<g id="Node000005" class="node">
<title>Node5</title>
<g id="a_Node000005"><a xlink:href="_temperature_controller_8cpp.html" target="_top" xlink:title="Implementation of the central temperature monitoring and control system.">
<polygon fill="white" stroke="#666666" points="287.88,-19.25 141.38,-19.25 141.38,0 287.88,0 287.88,-19.25"/>
<text xml:space="preserve" text-anchor="middle" x="214.62" y="-5.75" font-family="Helvetica,sans-Serif" font-size="10.00">src/TemperatureController.cpp</text>
</a>
</g>
</g>
<!-- Node1&#45;&gt;Node5 -->
<g id="edge10_Node000001_Node000005" class="edge">
<title>Node1&#45;&gt;Node5</title>
<g id="a_edge10_Node000001_Node000005"><a xlink:title=" ">
<path fill="none" stroke="#63b8ff" d="M323.53,-154.16C319.99,-128.71 310.79,-84.76 287.62,-55.25 274.79,-38.89 254.16,-27.08 238.1,-19.73"/>
<polygon fill="#63b8ff" stroke="#63b8ff" points="320.02,-154.3 324.7,-163.81 326.97,-153.46 320.02,-154.3"/>
</a>
</g>
</g>
<!-- Node6 -->
<g id="Node000006" class="node">
<title>Node6</title>
<g id="a_Node000006"><a xlink:href="main_8cpp.html" target="_top" xlink:title="Main application entry point for Industrial Temperature Monitoring System.">
<polygon fill="white" stroke="#666666" points="378.75,-19.25 306.5,-19.25 306.5,0 378.75,0 378.75,-19.25"/>
<text xml:space="preserve" text-anchor="middle" x="342.62" y="-5.75" font-family="Helvetica,sans-Serif" font-size="10.00">src/main.cpp</text>
</a>
</g>
</g>
<!-- Node1&#45;&gt;Node6 -->
<g id="edge11_Node000001_Node000006" class="edge">
<title>Node1&#45;&gt;Node6</title>
<g id="a_edge11_Node000001_Node000006"><a xlink:title=" ">
<path fill="none" stroke="#63b8ff" d="M327.72,-154.22C331.44,-118.36 339.07,-44.85 341.71,-19.47"/>
<polygon fill="#63b8ff" stroke="#63b8ff" points="324.25,-153.76 326.7,-164.07 331.21,-154.48 324.25,-153.76"/>
</a>
</g>
</g>
<!-- Node8 -->
<g id="Node000008" class="node">
<title>Node8</title>
<g id="a_Node000008"><a xlink:href="_logger_manager_8cpp.html" target="_top" xlink:title="Implementation of data logging and event management system.">
<polygon fill="white" stroke="#666666" points="490.25,-129.75 373,-129.75 373,-110.5 490.25,-110.5 490.25,-129.75"/>
<text xml:space="preserve" text-anchor="middle" x="431.62" y="-116.25" font-family="Helvetica,sans-Serif" font-size="10.00">src/LoggerManager.cpp</text>
</a>
</g>
</g>
<!-- Node1&#45;&gt;Node8 -->
<g id="edge8_Node000001_Node000008" class="edge">
<title>Node1&#45;&gt;Node8</title>
<g id="a_edge8_Node000001_Node000008"><a xlink:title=" ">
<path fill="none" stroke="#63b8ff" d="M353.76,-160.24C372.71,-150.72 397.16,-138.44 413.56,-130.2"/>
<polygon fill="#63b8ff" stroke="#63b8ff" points="352.32,-157.05 344.96,-164.66 355.47,-163.3 352.32,-157.05"/>
</a>
</g>
</g>
<!-- Node9 -->
<g id="Node000009" class="node">
<title>Node9</title>
<g id="a_Node000009"><a xlink:href="_temp_modbus_server_8cpp.html" target="_top" xlink:title="Implementation of Modbus RTU server for temperature monitoring.">
<polygon fill="white" stroke="#666666" points="645.38,-129.75 507.88,-129.75 507.88,-110.5 645.38,-110.5 645.38,-129.75"/>
<text xml:space="preserve" text-anchor="middle" x="576.62" y="-116.25" font-family="Helvetica,sans-Serif" font-size="10.00">src/TempModbusServer.cpp</text>
</a>
</g>
</g>
<!-- Node1&#45;&gt;Node9 -->
<g id="edge9_Node000001_Node000009" class="edge">
<title>Node1&#45;&gt;Node9</title>
<g id="a_edge9_Node000001_Node000009"><a xlink:title=" ">
<path fill="none" stroke="#63b8ff" d="M379.49,-162.95C425.67,-153.15 491.32,-139.22 533.94,-130.18"/>
<polygon fill="#63b8ff" stroke="#63b8ff" points="379.02,-159.47 369.97,-164.97 380.48,-166.32 379.02,-159.47"/>
</a>
</g>
</g>
<!-- Node2&#45;&gt;Node3 -->
<g id="edge2_Node000002_Node000003" class="edge">
<title>Node2&#45;&gt;Node3</title>
<g id="a_edge2_Node000002_Node000003"><a xlink:title=" ">
<path fill="none" stroke="#63b8ff" d="M171.36,-106.17C145.03,-96.5 109.71,-83.54 86.34,-74.95"/>
<polygon fill="#63b8ff" stroke="#63b8ff" points="170.01,-109.41 180.61,-109.57 172.43,-102.84 170.01,-109.41"/>
</a>
</g>
</g>
<!-- Node7 -->
<g id="Node000007" class="node">
<title>Node7</title>
<g id="a_Node000007"><a xlink:href="_c_s_v_config_manager_8cpp.html" target="_top" xlink:title="Implementation of CSV configuration management for measurement points.">
<polygon fill="white" stroke="#666666" points="278.38,-74.5 140.88,-74.5 140.88,-55.25 278.38,-55.25 278.38,-74.5"/>
<text xml:space="preserve" text-anchor="middle" x="209.62" y="-61" font-family="Helvetica,sans-Serif" font-size="10.00">src/CSVConfigManager.cpp</text>
</a>
</g>
</g>
<!-- Node2&#45;&gt;Node7 -->
<g id="edge6_Node000002_Node000007" class="edge">
<title>Node2&#45;&gt;Node7</title>
<g id="a_edge6_Node000002_Node000007"><a xlink:title=" ">
<path fill="none" stroke="#63b8ff" d="M207.77,-98.88C208.23,-90.59 208.75,-81.42 209.12,-74.86"/>
<polygon fill="#63b8ff" stroke="#63b8ff" points="204.27,-98.64 207.21,-108.82 211.26,-99.03 204.27,-98.64"/>
</a>
</g>
</g>
<!-- Node4 -->
<g id="Node000004" class="node">
<title>Node4</title>
<g id="a_Node000004"><a xlink:href="_config_manager_8cpp.html" target="_top" xlink:title="Implementation of web&#45;based configuration management system.">
<polygon fill="white" stroke="#666666" points="119.88,-19.25 3.38,-19.25 3.38,0 119.88,0 119.88,-19.25"/>
<text xml:space="preserve" text-anchor="middle" x="61.62" y="-5.75" font-family="Helvetica,sans-Serif" font-size="10.00">src/ConfigManager.cpp</text>
</a>
</g>
</g>
<!-- Node3&#45;&gt;Node4 -->
<g id="edge3_Node000003_Node000004" class="edge">
<title>Node3&#45;&gt;Node4</title>
<g id="a_edge3_Node000003_Node000004"><a xlink:title=" ">
<path fill="none" stroke="#63b8ff" d="M61.62,-43.63C61.62,-35.34 61.62,-26.17 61.62,-19.61"/>
<polygon fill="#63b8ff" stroke="#63b8ff" points="58.13,-43.57 61.63,-53.57 65.13,-43.57 58.13,-43.57"/>
</a>
</g>
</g>
<!-- Node3&#45;&gt;Node5 -->
<g id="edge4_Node000003_Node000005" class="edge">
<title>Node3&#45;&gt;Node5</title>
<g id="a_edge4_Node000003_Node000005"><a xlink:title=" ">
<path fill="none" stroke="#63b8ff" d="M98.1,-51.18C125.95,-41.49 163.66,-28.36 188.54,-19.7"/>
<polygon fill="#63b8ff" stroke="#63b8ff" points="97.3,-47.75 89.01,-54.34 99.6,-54.36 97.3,-47.75"/>
</a>
</g>
</g>
<!-- Node3&#45;&gt;Node6 -->
<g id="edge5_Node000003_Node000006" class="edge">
<title>Node3&#45;&gt;Node6</title>
<g id="a_edge5_Node000003_Node000006"><a xlink:title=" ">
<path fill="none" stroke="#63b8ff" d="M120.79,-52.66C176.76,-42.06 259,-26.47 306.03,-17.56"/>
<polygon fill="#63b8ff" stroke="#63b8ff" points="120.27,-49.2 111.1,-54.5 121.58,-56.08 120.27,-49.2"/>
</a>
</g>
</g>
</g>
</svg>
