<?xml version="1.0" encoding="UTF-8" standalone="no"?>
<!DOCTYPE svg PUBLIC "-//W3C//DTD SVG 1.1//EN"
 "http://www.w3.org/Graphics/SVG/1.1/DTD/svg11.dtd">
<!-- Generated by graphviz version 13.1.0 (20250701.0955)
 -->
<!-- Title: src/TempModbusServer.cpp Pages: 1 -->
<svg width="889pt" height="359pt"
 viewBox="0.00 0.00 889.00 359.00" xmlns="http://www.w3.org/2000/svg" xmlns:xlink="http://www.w3.org/1999/xlink">
<g id="graph0" class="graph" transform="scale(1 1) rotate(0) translate(4 354.75)">
<title>src/TempModbusServer.cpp</title>
<!-- Node1 -->
<g id="Node000001" class="node">
<title>Node1</title>
<g id="a_Node000001"><a xlink:title=" ">
<polygon fill="#999999" stroke="#666666" points="227.75,-350.75 90.25,-350.75 90.25,-331.5 227.75,-331.5 227.75,-350.75"/>
<text xml:space="preserve" text-anchor="middle" x="159" y="-337.25" font-family="Helvetica,sans-Serif" font-size="10.00">src/TempModbusServer.cpp</text>
</a>
</g>
</g>
<!-- Node2 -->
<g id="Node000002" class="node">
<title>Node2</title>
<g id="a_Node000002"><a xlink:href="_temp_modbus_server_8h.html" target="_top" xlink:title=" ">
<polygon fill="white" stroke="#666666" points="214.25,-295.5 103.75,-295.5 103.75,-276.25 214.25,-276.25 214.25,-295.5"/>
<text xml:space="preserve" text-anchor="middle" x="159" y="-282" font-family="Helvetica,sans-Serif" font-size="10.00">TempModbusServer.h</text>
</a>
</g>
</g>
<!-- Node1&#45;&gt;Node2 -->
<g id="edge1_Node000001_Node000002" class="edge">
<title>Node1&#45;&gt;Node2</title>
<g id="a_edge1_Node000001_Node000002"><a xlink:title=" ">
<path fill="none" stroke="#63b8ff" d="M159,-331.33C159,-324.82 159,-315.67 159,-307.37"/>
<polygon fill="#63b8ff" stroke="#63b8ff" points="162.5,-307.37 159,-297.37 155.5,-307.37 162.5,-307.37"/>
</a>
</g>
</g>
<!-- Node3 -->
<g id="Node000003" class="node">
<title>Node3</title>
<g id="a_Node000003"><a xlink:title=" ">
<polygon fill="#e0e0e0" stroke="#999999" points="104.62,-19.25 47.38,-19.25 47.38,0 104.62,0 104.62,-19.25"/>
<text xml:space="preserve" text-anchor="middle" x="76" y="-5.75" font-family="Helvetica,sans-Serif" font-size="10.00">Arduino.h</text>
</a>
</g>
</g>
<!-- Node2&#45;&gt;Node3 -->
<g id="edge2_Node000002_Node000003" class="edge">
<title>Node2&#45;&gt;Node3</title>
<g id="a_edge2_Node000002_Node000003"><a xlink:title=" ">
<path fill="none" stroke="#63b8ff" d="M118.05,-275.83C70.94,-262.73 0,-233.52 0,-176.38 0,-176.38 0,-176.38 0,-119.12 0,-80.52 32.68,-45.89 55.18,-26.62"/>
<polygon fill="#63b8ff" stroke="#63b8ff" points="57.11,-29.57 62.62,-20.52 52.67,-24.16 57.11,-29.57"/>
</a>
</g>
</g>
<!-- Node4 -->
<g id="Node000004" class="node">
<title>Node4</title>
<g id="a_Node000004"><a xlink:title=" ">
<polygon fill="#e0e0e0" stroke="#999999" points="157.12,-240.25 48.88,-240.25 48.88,-221 157.12,-221 157.12,-240.25"/>
<text xml:space="preserve" text-anchor="middle" x="103" y="-226.75" font-family="Helvetica,sans-Serif" font-size="10.00">ModbusServerRTU.h</text>
</a>
</g>
</g>
<!-- Node2&#45;&gt;Node4 -->
<g id="edge3_Node000002_Node000004" class="edge">
<title>Node2&#45;&gt;Node4</title>
<g id="a_edge3_Node000002_Node000004"><a xlink:title=" ">
<path fill="none" stroke="#63b8ff" d="M149.5,-275.84C141.57,-268.3 130.05,-257.35 120.46,-248.23"/>
<polygon fill="#63b8ff" stroke="#63b8ff" points="123.11,-245.92 113.46,-241.57 118.29,-250.99 123.11,-245.92"/>
</a>
</g>
</g>
<!-- Node5 -->
<g id="Node000005" class="node">
<title>Node5</title>
<g id="a_Node000005"><a xlink:href="_register_map_8h.html" target="_top" xlink:title=" ">
<polygon fill="white" stroke="#666666" points="254.88,-240.25 175.12,-240.25 175.12,-221 254.88,-221 254.88,-240.25"/>
<text xml:space="preserve" text-anchor="middle" x="215" y="-226.75" font-family="Helvetica,sans-Serif" font-size="10.00">RegisterMap.h</text>
</a>
</g>
</g>
<!-- Node2&#45;&gt;Node5 -->
<g id="edge4_Node000002_Node000005" class="edge">
<title>Node2&#45;&gt;Node5</title>
<g id="a_edge4_Node000002_Node000005"><a xlink:title=" ">
<path fill="none" stroke="#63b8ff" d="M168.5,-275.84C176.43,-268.3 187.95,-257.35 197.54,-248.23"/>
<polygon fill="#63b8ff" stroke="#63b8ff" points="199.71,-250.99 204.54,-241.57 194.89,-245.92 199.71,-250.99"/>
</a>
</g>
</g>
<!-- Node12 -->
<g id="Node000012" class="node">
<title>Node12</title>
<g id="a_Node000012"><a xlink:href="_logger_manager_8h.html" target="_top" xlink:title=" ">
<polygon fill="white" stroke="#666666" points="540.12,-129.75 449.88,-129.75 449.88,-110.5 540.12,-110.5 540.12,-129.75"/>
<text xml:space="preserve" text-anchor="middle" x="495" y="-116.25" font-family="Helvetica,sans-Serif" font-size="10.00">LoggerManager.h</text>
</a>
</g>
</g>
<!-- Node2&#45;&gt;Node12 -->
<g id="edge27_Node000002_Node000012" class="edge">
<title>Node2&#45;&gt;Node12</title>
<g id="a_edge27_Node000002_Node000012"><a xlink:title=" ">
<path fill="none" stroke="#63b8ff" d="M181.74,-275.78C203.16,-267.08 236.03,-253.38 264,-240.25 339.31,-204.89 425.96,-158.67 468.56,-135.58"/>
<polygon fill="#63b8ff" stroke="#63b8ff" points="469.96,-138.8 477.07,-130.95 466.61,-132.65 469.96,-138.8"/>
</a>
</g>
</g>
<!-- Node6 -->
<g id="Node000006" class="node">
<title>Node6</title>
<g id="a_Node000006"><a xlink:title=" ">
<polygon fill="#e0e0e0" stroke="#999999" points="155.12,-185 106.88,-185 106.88,-165.75 155.12,-165.75 155.12,-185"/>
<text xml:space="preserve" text-anchor="middle" x="131" y="-171.5" font-family="Helvetica,sans-Serif" font-size="10.00">stdint.h</text>
</a>
</g>
</g>
<!-- Node5&#45;&gt;Node6 -->
<g id="edge5_Node000005_Node000006" class="edge">
<title>Node5&#45;&gt;Node6</title>
<g id="a_edge5_Node000005_Node000006"><a xlink:title=" ">
<path fill="none" stroke="#63b8ff" d="M200.75,-220.59C188.2,-212.64 169.67,-200.89 154.86,-191.5"/>
<polygon fill="#63b8ff" stroke="#63b8ff" points="156.92,-188.66 146.6,-186.26 153.17,-194.57 156.92,-188.66"/>
</a>
</g>
</g>
<!-- Node7 -->
<g id="Node000007" class="node">
<title>Node7</title>
<g id="a_Node000007"><a xlink:href="_measurement_point_8h.html" target="_top" xlink:title=" ">
<polygon fill="white" stroke="#666666" points="279,-185 173,-185 173,-165.75 279,-165.75 279,-185"/>
<text xml:space="preserve" text-anchor="middle" x="226" y="-171.5" font-family="Helvetica,sans-Serif" font-size="10.00">MeasurementPoint.h</text>
</a>
</g>
</g>
<!-- Node5&#45;&gt;Node7 -->
<g id="edge6_Node000005_Node000007" class="edge">
<title>Node5&#45;&gt;Node7</title>
<g id="a_edge6_Node000005_Node000007"><a xlink:title=" ">
<path fill="none" stroke="#63b8ff" d="M216.82,-220.83C218.18,-214.24 220.1,-204.96 221.83,-196.57"/>
<polygon fill="#63b8ff" stroke="#63b8ff" points="225.24,-197.34 223.84,-186.84 218.39,-195.93 225.24,-197.34"/>
</a>
</g>
</g>
<!-- Node7&#45;&gt;Node3 -->
<g id="edge7_Node000007_Node000003" class="edge">
<title>Node7&#45;&gt;Node3</title>
<g id="a_edge7_Node000007_Node000003"><a xlink:title=" ">
<path fill="none" stroke="#63b8ff" d="M200.83,-165.33C166.7,-151.58 106.93,-121.9 80,-74.5 72.51,-61.32 71.87,-44.05 72.9,-30.79"/>
<polygon fill="#63b8ff" stroke="#63b8ff" points="76.35,-31.42 74.06,-21.08 69.4,-30.59 76.35,-31.42"/>
</a>
</g>
</g>
<!-- Node8 -->
<g id="Node000008" class="node">
<title>Node8</title>
<g id="a_Node000008"><a xlink:href="_sensor_8h.html" target="_top" xlink:title=" ">
<polygon fill="white" stroke="#666666" points="253.12,-129.75 198.88,-129.75 198.88,-110.5 253.12,-110.5 253.12,-129.75"/>
<text xml:space="preserve" text-anchor="middle" x="226" y="-116.25" font-family="Helvetica,sans-Serif" font-size="10.00">Sensor.h</text>
</a>
</g>
</g>
<!-- Node7&#45;&gt;Node8 -->
<g id="edge8_Node000007_Node000008" class="edge">
<title>Node7&#45;&gt;Node8</title>
<g id="a_edge8_Node000007_Node000008"><a xlink:title=" ">
<path fill="none" stroke="#63b8ff" d="M226,-165.58C226,-159.07 226,-149.92 226,-141.62"/>
<polygon fill="#63b8ff" stroke="#63b8ff" points="229.5,-141.62 226,-131.62 222.5,-141.62 229.5,-141.62"/>
</a>
</g>
</g>
<!-- Node7&#45;&gt;Node12 -->
<g id="edge13_Node000007_Node000012" class="edge">
<title>Node7&#45;&gt;Node12</title>
<g id="a_edge13_Node000007_Node000012"><a xlink:title=" ">
<path fill="none" stroke="#63b8ff" d="M271.94,-165.28C318.02,-156.16 389.06,-142.1 438.55,-132.3"/>
<polygon fill="#63b8ff" stroke="#63b8ff" points="439.09,-135.76 448.22,-130.39 437.73,-128.89 439.09,-135.76"/>
</a>
</g>
</g>
<!-- Node8&#45;&gt;Node3 -->
<g id="edge9_Node000008_Node000003" class="edge">
<title>Node8&#45;&gt;Node3</title>
<g id="a_edge9_Node000008_Node000003"><a xlink:title=" ">
<path fill="none" stroke="#63b8ff" d="M198.53,-117.05C168.95,-113.35 122.48,-103.08 95,-74.5 83.83,-62.88 79.19,-44.98 77.28,-31.09"/>
<polygon fill="#63b8ff" stroke="#63b8ff" points="80.77,-30.87 76.33,-21.25 73.81,-31.54 80.77,-30.87"/>
</a>
</g>
</g>
<!-- Node9 -->
<g id="Node000009" class="node">
<title>Node9</title>
<g id="a_Node000009"><a xlink:title=" ">
<polygon fill="#e0e0e0" stroke="#999999" points="166.25,-74.5 103.75,-74.5 103.75,-55.25 166.25,-55.25 166.25,-74.5"/>
<text xml:space="preserve" text-anchor="middle" x="135" y="-61" font-family="Helvetica,sans-Serif" font-size="10.00">OneWire.h</text>
</a>
</g>
</g>
<!-- Node8&#45;&gt;Node9 -->
<g id="edge10_Node000008_Node000009" class="edge">
<title>Node8&#45;&gt;Node9</title>
<g id="a_edge10_Node000008_Node000009"><a xlink:title=" ">
<path fill="none" stroke="#63b8ff" d="M210.56,-110.09C196.84,-102.06 176.5,-90.16 160.38,-80.73"/>
<polygon fill="#63b8ff" stroke="#63b8ff" points="162.22,-77.75 151.82,-75.72 158.68,-83.79 162.22,-77.75"/>
</a>
</g>
</g>
<!-- Node10 -->
<g id="Node000010" class="node">
<title>Node10</title>
<g id="a_Node000010"><a xlink:title=" ">
<polygon fill="#e0e0e0" stroke="#999999" points="290,-74.5 184,-74.5 184,-55.25 290,-55.25 290,-74.5"/>
<text xml:space="preserve" text-anchor="middle" x="237" y="-61" font-family="Helvetica,sans-Serif" font-size="10.00">DallasTemperature.h</text>
</a>
</g>
</g>
<!-- Node8&#45;&gt;Node10 -->
<g id="edge11_Node000008_Node000010" class="edge">
<title>Node8&#45;&gt;Node10</title>
<g id="a_edge11_Node000008_Node000010"><a xlink:title=" ">
<path fill="none" stroke="#63b8ff" d="M227.82,-110.33C229.18,-103.74 231.1,-94.46 232.83,-86.07"/>
<polygon fill="#63b8ff" stroke="#63b8ff" points="236.24,-86.84 234.84,-76.34 229.39,-85.43 236.24,-86.84"/>
</a>
</g>
</g>
<!-- Node11 -->
<g id="Node000011" class="node">
<title>Node11</title>
<g id="a_Node000011"><a xlink:title=" ">
<polygon fill="#e0e0e0" stroke="#999999" points="419.62,-74.5 308.38,-74.5 308.38,-55.25 419.62,-55.25 419.62,-74.5"/>
<text xml:space="preserve" text-anchor="middle" x="364" y="-61" font-family="Helvetica,sans-Serif" font-size="10.00">Adafruit_MAX31865.h</text>
</a>
</g>
</g>
<!-- Node8&#45;&gt;Node11 -->
<g id="edge12_Node000008_Node000011" class="edge">
<title>Node8&#45;&gt;Node11</title>
<g id="a_edge12_Node000008_Node000011"><a xlink:title=" ">
<path fill="none" stroke="#63b8ff" d="M249.41,-110.09C271.52,-101.56 304.92,-88.67 329.97,-79.01"/>
<polygon fill="#63b8ff" stroke="#63b8ff" points="330.99,-82.36 339.06,-75.5 328.47,-75.83 330.99,-82.36"/>
</a>
</g>
</g>
<!-- Node12&#45;&gt;Node3 -->
<g id="edge14_Node000012_Node000003" class="edge">
<title>Node12&#45;&gt;Node3</title>
<g id="a_edge14_Node000012_Node000003"><a xlink:title=" ">
<path fill="none" stroke="#63b8ff" d="M488.89,-110.29C478.46,-95.99 455.74,-68.08 429,-55.25 374.46,-29.08 196.74,-16.83 116.25,-12.52"/>
<polygon fill="#63b8ff" stroke="#63b8ff" points="116.79,-9.05 106.62,-12.02 116.43,-16.04 116.79,-9.05"/>
</a>
</g>
</g>
<!-- Node12&#45;&gt;Node12 -->
<g id="edge26_Node000012_Node000012" class="edge">
<title>Node12&#45;&gt;Node12</title>
<g id="a_edge26_Node000012_Node000012"><a xlink:title=" ">
<path fill="none" stroke="#63b8ff" d="M528.13,-130.23C544.06,-131.48 558.12,-128.11 558.12,-120.12 558.12,-114.14 550.21,-110.74 539.54,-109.95"/>
<polygon fill="#63b8ff" stroke="#63b8ff" points="539.62,-106.45 529.64,-110.01 539.66,-113.45 539.62,-106.45"/>
</a>
</g>
</g>
<!-- Node13 -->
<g id="Node000013" class="node">
<title>Node13</title>
<g id="a_Node000013"><a xlink:title=" ">
<polygon fill="#e0e0e0" stroke="#999999" points="513.5,-74.5 476.5,-74.5 476.5,-55.25 513.5,-55.25 513.5,-74.5"/>
<text xml:space="preserve" text-anchor="middle" x="495" y="-61" font-family="Helvetica,sans-Serif" font-size="10.00">FS.h</text>
</a>
</g>
</g>
<!-- Node12&#45;&gt;Node13 -->
<g id="edge15_Node000012_Node000013" class="edge">
<title>Node12&#45;&gt;Node13</title>
<g id="a_edge15_Node000012_Node000013"><a xlink:title=" ">
<path fill="none" stroke="#63b8ff" d="M495,-110.33C495,-103.82 495,-94.67 495,-86.37"/>
<polygon fill="#63b8ff" stroke="#63b8ff" points="498.5,-86.37 495,-76.37 491.5,-86.37 498.5,-86.37"/>
</a>
</g>
</g>
<!-- Node14 -->
<g id="Node000014" class="node">
<title>Node14</title>
<g id="a_Node000014"><a xlink:title=" ">
<polygon fill="#e0e0e0" stroke="#999999" points="570.25,-74.5 531.75,-74.5 531.75,-55.25 570.25,-55.25 570.25,-74.5"/>
<text xml:space="preserve" text-anchor="middle" x="551" y="-61" font-family="Helvetica,sans-Serif" font-size="10.00">SD.h</text>
</a>
</g>
</g>
<!-- Node12&#45;&gt;Node14 -->
<g id="edge16_Node000012_Node000014" class="edge">
<title>Node12&#45;&gt;Node14</title>
<g id="a_edge16_Node000012_Node000014"><a xlink:title=" ">
<path fill="none" stroke="#63b8ff" d="M504.5,-110.09C512.43,-102.55 523.95,-91.6 533.54,-82.48"/>
<polygon fill="#63b8ff" stroke="#63b8ff" points="535.71,-85.24 540.54,-75.82 530.89,-80.17 535.71,-85.24"/>
</a>
</g>
</g>
<!-- Node15 -->
<g id="Node000015" class="node">
<title>Node15</title>
<g id="a_Node000015"><a xlink:href="_time_manager_8h.html" target="_top" xlink:title=" ">
<polygon fill="white" stroke="#666666" points="671.38,-74.5 588.62,-74.5 588.62,-55.25 671.38,-55.25 671.38,-74.5"/>
<text xml:space="preserve" text-anchor="middle" x="630" y="-61" font-family="Helvetica,sans-Serif" font-size="10.00">TimeManager.h</text>
</a>
</g>
</g>
<!-- Node12&#45;&gt;Node15 -->
<g id="edge17_Node000012_Node000015" class="edge">
<title>Node12&#45;&gt;Node15</title>
<g id="a_edge17_Node000012_Node000015"><a xlink:title=" ">
<path fill="none" stroke="#63b8ff" d="M517.9,-110.09C539.43,-101.6 571.91,-88.79 596.38,-79.14"/>
<polygon fill="#63b8ff" stroke="#63b8ff" points="597.56,-82.43 605.58,-75.51 594.99,-75.92 597.56,-82.43"/>
</a>
</g>
</g>
<!-- Node22 -->
<g id="Node000022" class="node">
<title>Node22</title>
<g id="a_Node000022"><a xlink:title=" ">
<polygon fill="#e0e0e0" stroke="#999999" points="732.5,-74.5 689.5,-74.5 689.5,-55.25 732.5,-55.25 732.5,-74.5"/>
<text xml:space="preserve" text-anchor="middle" x="711" y="-61" font-family="Helvetica,sans-Serif" font-size="10.00">vector</text>
</a>
</g>
</g>
<!-- Node12&#45;&gt;Node22 -->
<g id="edge25_Node000012_Node000022" class="edge">
<title>Node12&#45;&gt;Node22</title>
<g id="a_edge25_Node000012_Node000022"><a xlink:title=" ">
<path fill="none" stroke="#63b8ff" d="M534.44,-110.03C569.61,-101.83 622.78,-89.2 677.95,-74.96"/>
<polygon fill="#63b8ff" stroke="#63b8ff" points="678.74,-78.37 687.54,-72.47 676.99,-71.6 678.74,-78.37"/>
</a>
</g>
</g>
<!-- Node15&#45;&gt;Node3 -->
<g id="edge18_Node000015_Node000003" class="edge">
<title>Node15&#45;&gt;Node3</title>
<g id="a_edge18_Node000015_Node000003"><a xlink:title=" ">
<path fill="none" stroke="#63b8ff" d="M588.29,-56.55C585.15,-56.08 582.03,-55.64 579,-55.25 407.51,-33.18 201.71,-18.63 116.25,-13.11"/>
<polygon fill="#63b8ff" stroke="#63b8ff" points="116.72,-9.63 106.52,-12.49 116.27,-16.62 116.72,-9.63"/>
</a>
</g>
</g>
<!-- Node16 -->
<g id="Node000016" class="node">
<title>Node16</title>
<g id="a_Node000016"><a xlink:title=" ">
<polygon fill="#e0e0e0" stroke="#999999" points="480.25,-19.25 435.75,-19.25 435.75,0 480.25,0 480.25,-19.25"/>
<text xml:space="preserve" text-anchor="middle" x="458" y="-5.75" font-family="Helvetica,sans-Serif" font-size="10.00">WiFi.h</text>
</a>
</g>
</g>
<!-- Node15&#45;&gt;Node16 -->
<g id="edge19_Node000015_Node000016" class="edge">
<title>Node15&#45;&gt;Node16</title>
<g id="a_edge19_Node000015_Node000016"><a xlink:title=" ">
<path fill="none" stroke="#63b8ff" d="M600.82,-54.84C570.6,-45.49 523.45,-30.89 491.67,-21.05"/>
<polygon fill="#63b8ff" stroke="#63b8ff" points="492.75,-17.72 482.16,-18.11 490.68,-24.41 492.75,-17.72"/>
</a>
</g>
</g>
<!-- Node17 -->
<g id="Node000017" class="node">
<title>Node17</title>
<g id="a_Node000017"><a xlink:title=" ">
<polygon fill="#e0e0e0" stroke="#999999" points="543.25,-19.25 498.75,-19.25 498.75,0 543.25,0 543.25,-19.25"/>
<text xml:space="preserve" text-anchor="middle" x="521" y="-5.75" font-family="Helvetica,sans-Serif" font-size="10.00">Wire.h</text>
</a>
</g>
</g>
<!-- Node15&#45;&gt;Node17 -->
<g id="edge20_Node000015_Node000017" class="edge">
<title>Node15&#45;&gt;Node17</title>
<g id="a_edge20_Node000015_Node000017"><a xlink:title=" ">
<path fill="none" stroke="#63b8ff" d="M611.51,-54.84C594.6,-46.58 569.31,-34.23 549.76,-24.68"/>
<polygon fill="#63b8ff" stroke="#63b8ff" points="551.46,-21.61 540.94,-20.37 548.39,-27.9 551.46,-21.61"/>
</a>
</g>
</g>
<!-- Node18 -->
<g id="Node000018" class="node">
<title>Node18</title>
<g id="a_Node000018"><a xlink:title=" ">
<polygon fill="#e0e0e0" stroke="#999999" points="616.5,-19.25 561.5,-19.25 561.5,0 616.5,0 616.5,-19.25"/>
<text xml:space="preserve" text-anchor="middle" x="589" y="-5.75" font-family="Helvetica,sans-Serif" font-size="10.00">RTClib.h</text>
</a>
</g>
</g>
<!-- Node15&#45;&gt;Node18 -->
<g id="edge21_Node000015_Node000018" class="edge">
<title>Node15&#45;&gt;Node18</title>
<g id="a_edge21_Node000015_Node000018"><a xlink:title=" ">
<path fill="none" stroke="#63b8ff" d="M623.23,-55.08C617.68,-47.88 609.66,-37.46 602.77,-28.51"/>
<polygon fill="#63b8ff" stroke="#63b8ff" points="605.71,-26.6 596.84,-20.81 600.17,-30.87 605.71,-26.6"/>
</a>
</g>
</g>
<!-- Node19 -->
<g id="Node000019" class="node">
<title>Node19</title>
<g id="a_Node000019"><a xlink:title=" ">
<polygon fill="#e0e0e0" stroke="#999999" points="705,-19.25 635,-19.25 635,0 705,0 705,-19.25"/>
<text xml:space="preserve" text-anchor="middle" x="670" y="-5.75" font-family="Helvetica,sans-Serif" font-size="10.00">NTPClient.h</text>
</a>
</g>
</g>
<!-- Node15&#45;&gt;Node19 -->
<g id="edge22_Node000015_Node000019" class="edge">
<title>Node15&#45;&gt;Node19</title>
<g id="a_edge22_Node000015_Node000019"><a xlink:title=" ">
<path fill="none" stroke="#63b8ff" d="M636.61,-55.08C641.96,-47.96 649.68,-37.68 656.35,-28.8"/>
<polygon fill="#63b8ff" stroke="#63b8ff" points="659.13,-30.92 662.34,-20.82 653.54,-26.71 659.13,-30.92"/>
</a>
</g>
</g>
<!-- Node20 -->
<g id="Node000020" class="node">
<title>Node20</title>
<g id="a_Node000020"><a xlink:title=" ">
<polygon fill="#e0e0e0" stroke="#999999" points="785.25,-19.25 722.75,-19.25 722.75,0 785.25,0 785.25,-19.25"/>
<text xml:space="preserve" text-anchor="middle" x="754" y="-5.75" font-family="Helvetica,sans-Serif" font-size="10.00">WiFiUdp.h</text>
</a>
</g>
</g>
<!-- Node15&#45;&gt;Node20 -->
<g id="edge23_Node000015_Node000020" class="edge">
<title>Node15&#45;&gt;Node20</title>
<g id="a_edge23_Node000015_Node000020"><a xlink:title=" ">
<path fill="none" stroke="#63b8ff" d="M651.03,-54.84C670.63,-46.43 700.11,-33.77 722.51,-24.15"/>
<polygon fill="#63b8ff" stroke="#63b8ff" points="723.66,-27.46 731.47,-20.3 720.9,-21.03 723.66,-27.46"/>
</a>
</g>
</g>
<!-- Node21 -->
<g id="Node000021" class="node">
<title>Node21</title>
<g id="a_Node000021"><a xlink:title=" ">
<polygon fill="#e0e0e0" stroke="#999999" points="881.12,-19.25 802.88,-19.25 802.88,0 881.12,0 881.12,-19.25"/>
<text xml:space="preserve" text-anchor="middle" x="842" y="-5.75" font-family="Helvetica,sans-Serif" font-size="10.00">ArduinoJson.h</text>
</a>
</g>
</g>
<!-- Node15&#45;&gt;Node21 -->
<g id="edge24_Node000015_Node000021" class="edge">
<title>Node15&#45;&gt;Node21</title>
<g id="a_edge24_Node000015_Node000021"><a xlink:title=" ">
<path fill="none" stroke="#63b8ff" d="M665.96,-54.84C701.44,-45.93 755.88,-32.26 794.82,-22.48"/>
<polygon fill="#63b8ff" stroke="#63b8ff" points="795.55,-25.9 804.39,-20.07 793.84,-19.11 795.55,-25.9"/>
</a>
</g>
</g>
</g>
</svg>
