<?xml version="1.0" encoding="UTF-8" standalone="no"?>
<!DOCTYPE svg PUBLIC "-//W3C//DTD SVG 1.1//EN"
 "http://www.w3.org/Graphics/SVG/1.1/DTD/svg11.dtd">
<!-- Generated by graphviz version 13.1.0 (20250701.0955)
 -->
<!-- Title: include/TemperatureController.h Pages: 1 -->
<svg width="625pt" height="193pt"
 viewBox="0.00 0.00 625.00 193.00" xmlns="http://www.w3.org/2000/svg" xmlns:xlink="http://www.w3.org/1999/xlink">
<g id="graph0" class="graph" transform="scale(1 1) rotate(0) translate(4 189)">
<title>include/TemperatureController.h</title>
<!-- Node1 -->
<g id="Node000001" class="node">
<title>Node1</title>
<g id="a_Node000001"><a xlink:title="Central temperature monitoring and control system.">
<polygon fill="#999999" stroke="#666666" points="383.25,-185 230,-185 230,-165.75 383.25,-165.75 383.25,-185"/>
<text xml:space="preserve" text-anchor="middle" x="306.62" y="-171.5" font-family="Helvetica,sans-Serif" font-size="10.00">include/TemperatureController.h</text>
</a>
</g>
</g>
<!-- Node2 -->
<g id="Node000002" class="node">
<title>Node2</title>
<g id="a_Node000002"><a xlink:href="_c_s_v_config_manager_8h.html" target="_top" xlink:title="CSV configuration import/export manager for measurement points and alarms.">
<polygon fill="white" stroke="#666666" points="278.75,-129.75 134.5,-129.75 134.5,-110.5 278.75,-110.5 278.75,-129.75"/>
<text xml:space="preserve" text-anchor="middle" x="206.62" y="-116.25" font-family="Helvetica,sans-Serif" font-size="10.00">include/CSVConfigManager.h</text>
</a>
</g>
</g>
<!-- Node1&#45;&gt;Node2 -->
<g id="edge1_Node000001_Node000002" class="edge">
<title>Node1&#45;&gt;Node2</title>
<g id="a_edge1_Node000001_Node000002"><a xlink:title=" ">
<path fill="none" stroke="#63b8ff" d="M279.58,-159.98C261.77,-150.49 239,-138.36 223.67,-130.2"/>
<polygon fill="#63b8ff" stroke="#63b8ff" points="277.85,-163.02 288.33,-164.63 281.14,-156.84 277.85,-163.02"/>
</a>
</g>
</g>
<!-- Node3 -->
<g id="Node000003" class="node">
<title>Node3</title>
<g id="a_Node000003"><a xlink:href="_config_manager_8h.html" target="_top" xlink:title="Configuration management system for temperature monitoring device.">
<polygon fill="white" stroke="#666666" points="123.25,-74.5 0,-74.5 0,-55.25 123.25,-55.25 123.25,-74.5"/>
<text xml:space="preserve" text-anchor="middle" x="61.62" y="-61" font-family="Helvetica,sans-Serif" font-size="10.00">include/ConfigManager.h</text>
</a>
</g>
</g>
<!-- Node1&#45;&gt;Node3 -->
<g id="edge6_Node000001_Node000003" class="edge">
<title>Node1&#45;&gt;Node3</title>
<g id="a_edge6_Node000001_Node000003"><a xlink:title=" ">
<path fill="none" stroke="#63b8ff" d="M220.95,-163.12C189.55,-156.51 154.63,-146.09 125.62,-129.75 100.46,-115.57 78.41,-88.78 67.99,-74.83"/>
<polygon fill="#63b8ff" stroke="#63b8ff" points="219.92,-166.48 230.41,-165.01 221.29,-159.62 219.92,-166.48"/>
</a>
</g>
</g>
<!-- Node5 -->
<g id="Node000005" class="node">
<title>Node5</title>
<g id="a_Node000005"><a xlink:href="main_8cpp.html" target="_top" xlink:title="Main application entry point for Industrial Temperature Monitoring System.">
<polygon fill="white" stroke="#666666" points="275.75,-19.25 203.5,-19.25 203.5,0 275.75,0 275.75,-19.25"/>
<text xml:space="preserve" text-anchor="middle" x="239.62" y="-5.75" font-family="Helvetica,sans-Serif" font-size="10.00">src/main.cpp</text>
</a>
</g>
</g>
<!-- Node1&#45;&gt;Node5 -->
<g id="edge9_Node000001_Node000005" class="edge">
<title>Node1&#45;&gt;Node5</title>
<g id="a_edge9_Node000001_Node000005"><a xlink:title=" ">
<path fill="none" stroke="#63b8ff" d="M307.31,-153.88C307.27,-129.08 304.42,-86.73 287.62,-55.25 279.59,-40.19 264.49,-27.46 253.37,-19.5"/>
<polygon fill="#63b8ff" stroke="#63b8ff" points="303.81,-153.81 307.14,-163.87 310.81,-153.93 303.81,-153.81"/>
</a>
</g>
</g>
<!-- Node7 -->
<g id="Node000007" class="node">
<title>Node7</title>
<g id="a_Node000007"><a xlink:href="_logger_manager_8cpp.html" target="_top" xlink:title="Implementation of data logging and event management system.">
<polygon fill="white" stroke="#666666" points="452.25,-129.75 335,-129.75 335,-110.5 452.25,-110.5 452.25,-129.75"/>
<text xml:space="preserve" text-anchor="middle" x="393.62" y="-116.25" font-family="Helvetica,sans-Serif" font-size="10.00">src/LoggerManager.cpp</text>
</a>
</g>
</g>
<!-- Node1&#45;&gt;Node7 -->
<g id="edge7_Node000001_Node000007" class="edge">
<title>Node1&#45;&gt;Node7</title>
<g id="a_edge7_Node000001_Node000007"><a xlink:title=" ">
<path fill="none" stroke="#63b8ff" d="M330.81,-159.57C346.2,-150.15 365.65,-138.25 378.79,-130.2"/>
<polygon fill="#63b8ff" stroke="#63b8ff" points="329.38,-156.35 322.67,-164.55 333.03,-162.32 329.38,-156.35"/>
</a>
</g>
</g>
<!-- Node8 -->
<g id="Node000008" class="node">
<title>Node8</title>
<g id="a_Node000008"><a xlink:href="_temperature_controller_8cpp.html" target="_top" xlink:title="Implementation of the central temperature monitoring and control system.">
<polygon fill="white" stroke="#666666" points="616.88,-129.75 470.38,-129.75 470.38,-110.5 616.88,-110.5 616.88,-129.75"/>
<text xml:space="preserve" text-anchor="middle" x="543.62" y="-116.25" font-family="Helvetica,sans-Serif" font-size="10.00">src/TemperatureController.cpp</text>
</a>
</g>
</g>
<!-- Node1&#45;&gt;Node8 -->
<g id="edge8_Node000001_Node000008" class="edge">
<title>Node1&#45;&gt;Node8</title>
<g id="a_edge8_Node000001_Node000008"><a xlink:title=" ">
<path fill="none" stroke="#63b8ff" d="M358.32,-162.76C401.88,-152.97 463.33,-139.17 503.32,-130.18"/>
<polygon fill="#63b8ff" stroke="#63b8ff" points="357.56,-159.34 348.57,-164.95 359.1,-166.17 357.56,-159.34"/>
</a>
</g>
</g>
<!-- Node2&#45;&gt;Node3 -->
<g id="edge2_Node000002_Node000003" class="edge">
<title>Node2&#45;&gt;Node3</title>
<g id="a_edge2_Node000002_Node000003"><a xlink:title=" ">
<path fill="none" stroke="#63b8ff" d="M171.36,-106.17C145.03,-96.5 109.71,-83.54 86.34,-74.95"/>
<polygon fill="#63b8ff" stroke="#63b8ff" points="170.01,-109.41 180.61,-109.57 172.43,-102.84 170.01,-109.41"/>
</a>
</g>
</g>
<!-- Node6 -->
<g id="Node000006" class="node">
<title>Node6</title>
<g id="a_Node000006"><a xlink:href="_c_s_v_config_manager_8cpp.html" target="_top" xlink:title="Implementation of CSV configuration management for measurement points.">
<polygon fill="white" stroke="#666666" points="278.38,-74.5 140.88,-74.5 140.88,-55.25 278.38,-55.25 278.38,-74.5"/>
<text xml:space="preserve" text-anchor="middle" x="209.62" y="-61" font-family="Helvetica,sans-Serif" font-size="10.00">src/CSVConfigManager.cpp</text>
</a>
</g>
</g>
<!-- Node2&#45;&gt;Node6 -->
<g id="edge5_Node000002_Node000006" class="edge">
<title>Node2&#45;&gt;Node6</title>
<g id="a_edge5_Node000002_Node000006"><a xlink:title=" ">
<path fill="none" stroke="#63b8ff" d="M207.77,-98.88C208.23,-90.59 208.75,-81.42 209.12,-74.86"/>
<polygon fill="#63b8ff" stroke="#63b8ff" points="204.27,-98.64 207.21,-108.82 211.26,-99.03 204.27,-98.64"/>
</a>
</g>
</g>
<!-- Node4 -->
<g id="Node000004" class="node">
<title>Node4</title>
<g id="a_Node000004"><a xlink:href="_config_manager_8cpp.html" target="_top" xlink:title="Implementation of web&#45;based configuration management system.">
<polygon fill="white" stroke="#666666" points="119.88,-19.25 3.38,-19.25 3.38,0 119.88,0 119.88,-19.25"/>
<text xml:space="preserve" text-anchor="middle" x="61.62" y="-5.75" font-family="Helvetica,sans-Serif" font-size="10.00">src/ConfigManager.cpp</text>
</a>
</g>
</g>
<!-- Node3&#45;&gt;Node4 -->
<g id="edge3_Node000003_Node000004" class="edge">
<title>Node3&#45;&gt;Node4</title>
<g id="a_edge3_Node000003_Node000004"><a xlink:title=" ">
<path fill="none" stroke="#63b8ff" d="M61.62,-43.63C61.62,-35.34 61.62,-26.17 61.62,-19.61"/>
<polygon fill="#63b8ff" stroke="#63b8ff" points="58.13,-43.57 61.63,-53.57 65.13,-43.57 58.13,-43.57"/>
</a>
</g>
</g>
<!-- Node3&#45;&gt;Node5 -->
<g id="edge4_Node000003_Node000005" class="edge">
<title>Node3&#45;&gt;Node5</title>
<g id="a_edge4_Node000003_Node000005"><a xlink:title=" ">
<path fill="none" stroke="#63b8ff" d="M102.77,-51.57C135.3,-41.84 179.95,-28.48 209.28,-19.7"/>
<polygon fill="#63b8ff" stroke="#63b8ff" points="101.85,-48.19 93.27,-54.41 103.85,-54.9 101.85,-48.19"/>
</a>
</g>
</g>
</g>
</svg>
