<?xml version="1.0" encoding="UTF-8" standalone="no"?>
<!DOCTYPE svg PUBLIC "-//W3C//DTD SVG 1.1//EN"
 "http://www.w3.org/Graphics/SVG/1.1/DTD/svg11.dtd">
<!-- Generated by graphviz version 13.1.0 (20250701.0955)
 -->
<!-- Title: src/TemperatureController.cpp Pages: 1 -->
<svg width="1477pt" height="469pt"
 viewBox="0.00 0.00 1477.00 469.00" xmlns="http://www.w3.org/2000/svg" xmlns:xlink="http://www.w3.org/1999/xlink">
<g id="graph0" class="graph" transform="scale(1 1) rotate(0) translate(4 465.25)">
<title>src/TemperatureController.cpp</title>
<!-- Node1 -->
<g id="Node000001" class="node">
<title>Node1</title>
<g id="a_Node000001"><a xlink:title="Implementation of the central temperature monitoring and control system.">
<polygon fill="#999999" stroke="#666666" points="1469.38,-461.25 1322.88,-461.25 1322.88,-442 1469.38,-442 1469.38,-461.25"/>
<text xml:space="preserve" text-anchor="middle" x="1396.12" y="-447.75" font-family="Helvetica,sans-Serif" font-size="10.00">src/TemperatureController.cpp</text>
</a>
</g>
</g>
<!-- Node2 -->
<g id="Node000002" class="node">
<title>Node2</title>
<g id="a_Node000002"><a xlink:href="_temperature_controller_8h.html" target="_top" xlink:title="Central temperature monitoring and control system.">
<polygon fill="white" stroke="#666666" points="848.88,-295.5 729.38,-295.5 729.38,-276.25 848.88,-276.25 848.88,-295.5"/>
<text xml:space="preserve" text-anchor="middle" x="789.12" y="-282" font-family="Helvetica,sans-Serif" font-size="10.00">TemperatureController.h</text>
</a>
</g>
</g>
<!-- Node1&#45;&gt;Node2 -->
<g id="edge1_Node000001_Node000002" class="edge">
<title>Node1&#45;&gt;Node2</title>
<g id="a_edge1_Node000001_Node000002"><a xlink:title=" ">
<path fill="none" stroke="#63b8ff" d="M1373.84,-441.53C1319.42,-419.64 1175.07,-363.46 1050.12,-331.5 986.85,-315.31 913.42,-303.35 860.59,-295.9"/>
<polygon fill="#63b8ff" stroke="#63b8ff" points="861.2,-292.45 850.81,-294.55 860.23,-299.39 861.2,-292.45"/>
</a>
</g>
</g>
<!-- Node14 -->
<g id="Node000014" class="node">
<title>Node14</title>
<g id="a_Node000014"><a xlink:title=" ">
<polygon fill="#e0e0e0" stroke="#999999" points="1467.38,-19.25 1422.88,-19.25 1422.88,0 1467.38,0 1467.38,-19.25"/>
<text xml:space="preserve" text-anchor="middle" x="1445.12" y="-5.75" font-family="Helvetica,sans-Serif" font-size="10.00">WiFi.h</text>
</a>
</g>
</g>
<!-- Node1&#45;&gt;Node14 -->
<g id="edge46_Node000001_Node000014" class="edge">
<title>Node1&#45;&gt;Node14</title>
<g id="a_edge46_Node000001_Node000014"><a xlink:title=" ">
<path fill="none" stroke="#63b8ff" d="M1404.78,-441.61C1420.73,-424.01 1453.12,-383.19 1453.12,-342.12 1453.12,-342.12 1453.12,-342.12 1453.12,-119.12 1453.12,-88.32 1449.88,-52.73 1447.52,-30.96"/>
<polygon fill="#63b8ff" stroke="#63b8ff" points="1451.01,-30.66 1446.41,-21.11 1444.05,-31.44 1451.01,-30.66"/>
</a>
</g>
</g>
<!-- Node28 -->
<g id="Node000028" class="node">
<title>Node28</title>
<g id="a_Node000028"><a xlink:title=" ">
<polygon fill="#e0e0e0" stroke="#999999" points="1425,-240.25 1369.25,-240.25 1369.25,-221 1425,-221 1425,-240.25"/>
<text xml:space="preserve" text-anchor="middle" x="1397.12" y="-226.75" font-family="Helvetica,sans-Serif" font-size="10.00">algorithm</text>
</a>
</g>
</g>
<!-- Node1&#45;&gt;Node28 -->
<g id="edge47_Node000001_Node000028" class="edge">
<title>Node1&#45;&gt;Node28</title>
<g id="a_edge47_Node000001_Node000028"><a xlink:title=" ">
<path fill="none" stroke="#63b8ff" d="M1396.17,-441.77C1396.31,-409.51 1396.82,-297.76 1397.03,-251.71"/>
<polygon fill="#63b8ff" stroke="#63b8ff" points="1400.53,-251.88 1397.08,-241.87 1393.53,-251.85 1400.53,-251.88"/>
</a>
</g>
</g>
<!-- Node29 -->
<g id="Node000029" class="node">
<title>Node29</title>
<g id="a_Node000029"><a xlink:href="_config_manager_8h.html" target="_top" xlink:title="Configuration management system for temperature monitoring device.">
<polygon fill="white" stroke="#666666" points="783.88,-406 694.38,-406 694.38,-386.75 783.88,-386.75 783.88,-406"/>
<text xml:space="preserve" text-anchor="middle" x="739.12" y="-392.5" font-family="Helvetica,sans-Serif" font-size="10.00">ConfigManager.h</text>
</a>
</g>
</g>
<!-- Node1&#45;&gt;Node29 -->
<g id="edge48_Node000001_Node000029" class="edge">
<title>Node1&#45;&gt;Node29</title>
<g id="a_edge48_Node000001_Node000029"><a xlink:title=" ">
<path fill="none" stroke="#63b8ff" d="M1322.67,-444.67C1190.29,-433.94 914.43,-411.58 795.59,-401.95"/>
<polygon fill="#63b8ff" stroke="#63b8ff" points="796.01,-398.47 785.76,-401.15 795.45,-405.45 796.01,-398.47"/>
</a>
</g>
</g>
<!-- Node3 -->
<g id="Node000003" class="node">
<title>Node3</title>
<g id="a_Node000003"><a xlink:title=" ">
<polygon fill="#e0e0e0" stroke="#999999" points="695.75,-19.25 638.5,-19.25 638.5,0 695.75,0 695.75,-19.25"/>
<text xml:space="preserve" text-anchor="middle" x="667.12" y="-5.75" font-family="Helvetica,sans-Serif" font-size="10.00">Arduino.h</text>
</a>
</g>
</g>
<!-- Node2&#45;&gt;Node3 -->
<g id="edge2_Node000002_Node000003" class="edge">
<title>Node2&#45;&gt;Node3</title>
<g id="a_edge2_Node000002_Node000003"><a xlink:title=" ">
<path fill="none" stroke="#63b8ff" d="M849.12,-281.83C960.68,-273.09 1185.53,-239.43 1148.12,-110.5 1140.03,-82.58 1137.86,-70.52 1113.12,-55.25 1045.82,-13.71 804.2,-10 707.53,-10.24"/>
<polygon fill="#63b8ff" stroke="#63b8ff" points="707.71,-6.74 697.72,-10.28 707.74,-13.74 707.71,-6.74"/>
</a>
</g>
</g>
<!-- Node4 -->
<g id="Node000004" class="node">
<title>Node4</title>
<g id="a_Node000004"><a xlink:title=" ">
<polygon fill="#e0e0e0" stroke="#999999" points="1104.62,-74.5 1061.62,-74.5 1061.62,-55.25 1104.62,-55.25 1104.62,-74.5"/>
<text xml:space="preserve" text-anchor="middle" x="1083.12" y="-61" font-family="Helvetica,sans-Serif" font-size="10.00">vector</text>
</a>
</g>
</g>
<!-- Node2&#45;&gt;Node4 -->
<g id="edge3_Node000002_Node000004" class="edge">
<title>Node2&#45;&gt;Node4</title>
<g id="a_edge3_Node000002_Node000004"><a xlink:title=" ">
<path fill="none" stroke="#63b8ff" d="M849.36,-279.13C932.28,-267.49 1077.63,-232.68 1133.12,-129.75 1142.88,-111.66 1125.26,-93.43 1108.3,-81.1"/>
<polygon fill="#63b8ff" stroke="#63b8ff" points="1110.63,-78.45 1100.38,-75.75 1106.71,-84.25 1110.63,-78.45"/>
</a>
</g>
</g>
<!-- Node5 -->
<g id="Node000005" class="node">
<title>Node5</title>
<g id="a_Node000005"><a xlink:href="_sensor_8h.html" target="_top" xlink:title="Temperature sensor abstraction layer.">
<polygon fill="white" stroke="#666666" points="445.25,-129.75 391,-129.75 391,-110.5 445.25,-110.5 445.25,-129.75"/>
<text xml:space="preserve" text-anchor="middle" x="418.12" y="-116.25" font-family="Helvetica,sans-Serif" font-size="10.00">Sensor.h</text>
</a>
</g>
</g>
<!-- Node2&#45;&gt;Node5 -->
<g id="edge4_Node000002_Node000005" class="edge">
<title>Node2&#45;&gt;Node5</title>
<g id="a_edge4_Node000002_Node000005"><a xlink:title=" ">
<path fill="none" stroke="#63b8ff" d="M728.92,-280.15C639.42,-272.62 479.58,-257.02 459.12,-240.25 429.33,-215.82 421.13,-168.6 418.91,-141.52"/>
<polygon fill="#63b8ff" stroke="#63b8ff" points="422.4,-141.33 418.32,-131.55 415.41,-141.74 422.4,-141.33"/>
</a>
</g>
</g>
<!-- Node6 -->
<g id="Node000006" class="node">
<title>Node6</title>
<g id="a_Node000006"><a xlink:title=" ">
<polygon fill="#e0e0e0" stroke="#999999" points="272.38,-74.5 209.88,-74.5 209.88,-55.25 272.38,-55.25 272.38,-74.5"/>
<text xml:space="preserve" text-anchor="middle" x="241.12" y="-61" font-family="Helvetica,sans-Serif" font-size="10.00">OneWire.h</text>
</a>
</g>
</g>
<!-- Node2&#45;&gt;Node6 -->
<g id="edge42_Node000002_Node000006" class="edge">
<title>Node2&#45;&gt;Node6</title>
<g id="a_edge42_Node000002_Node000006"><a xlink:title=" ">
<path fill="none" stroke="#63b8ff" d="M728.9,-281.46C642.84,-275.86 489.5,-263.02 439.12,-240.25 357.09,-203.18 284.32,-120.26 254.94,-83.74"/>
<polygon fill="#63b8ff" stroke="#63b8ff" points="257.71,-81.6 248.77,-75.93 252.22,-85.94 257.71,-81.6"/>
</a>
</g>
</g>
<!-- Node7 -->
<g id="Node000007" class="node">
<title>Node7</title>
<g id="a_Node000007"><a xlink:title=" ">
<polygon fill="#e0e0e0" stroke="#999999" points="564.12,-74.5 458.12,-74.5 458.12,-55.25 564.12,-55.25 564.12,-74.5"/>
<text xml:space="preserve" text-anchor="middle" x="511.12" y="-61" font-family="Helvetica,sans-Serif" font-size="10.00">DallasTemperature.h</text>
</a>
</g>
</g>
<!-- Node2&#45;&gt;Node7 -->
<g id="edge43_Node000002_Node000007" class="edge">
<title>Node2&#45;&gt;Node7</title>
<g id="a_edge43_Node000002_Node000007"><a xlink:title=" ">
<path fill="none" stroke="#63b8ff" d="M729.13,-283.89C677.81,-280.78 603.39,-270.74 546.12,-240.25 515.82,-224.11 505.08,-216.8 492.12,-185 478.54,-151.67 491.76,-109.4 501.92,-85.21"/>
<polygon fill="#63b8ff" stroke="#63b8ff" points="505.02,-86.85 505.91,-76.3 498.63,-83.99 505.02,-86.85"/>
</a>
</g>
</g>
<!-- Node9 -->
<g id="Node000009" class="node">
<title>Node9</title>
<g id="a_Node000009"><a xlink:href="_measurement_point_8h.html" target="_top" xlink:title="Measurement point abstraction for temperature monitoring system.">
<polygon fill="white" stroke="#666666" points="673.12,-185 567.12,-185 567.12,-165.75 673.12,-165.75 673.12,-185"/>
<text xml:space="preserve" text-anchor="middle" x="620.12" y="-171.5" font-family="Helvetica,sans-Serif" font-size="10.00">MeasurementPoint.h</text>
</a>
</g>
</g>
<!-- Node2&#45;&gt;Node9 -->
<g id="edge9_Node000002_Node000009" class="edge">
<title>Node2&#45;&gt;Node9</title>
<g id="a_edge9_Node000002_Node000009"><a xlink:title=" ">
<path fill="none" stroke="#63b8ff" d="M775.01,-275.81C745.98,-257.18 679.35,-214.4 643.68,-191.5"/>
<polygon fill="#63b8ff" stroke="#63b8ff" points="645.66,-188.61 635.36,-186.15 641.88,-194.5 645.66,-188.61"/>
</a>
</g>
</g>
<!-- Node19 -->
<g id="Node000019" class="node">
<title>Node19</title>
<g id="a_Node000019"><a xlink:title=" ">
<polygon fill="#e0e0e0" stroke="#999999" points="1389.25,-19.25 1311,-19.25 1311,0 1389.25,0 1389.25,-19.25"/>
<text xml:space="preserve" text-anchor="middle" x="1350.12" y="-5.75" font-family="Helvetica,sans-Serif" font-size="10.00">ArduinoJson.h</text>
</a>
</g>
</g>
<!-- Node2&#45;&gt;Node19 -->
<g id="edge44_Node000002_Node000019" class="edge">
<title>Node2&#45;&gt;Node19</title>
<g id="a_edge44_Node000002_Node000019"><a xlink:title=" ">
<path fill="none" stroke="#63b8ff" d="M849.24,-285.27C911.75,-283.59 1011.19,-274.93 1089.12,-240.25 1202.18,-189.95 1301.56,-72.93 1336.65,-28.33"/>
<polygon fill="#63b8ff" stroke="#63b8ff" points="1339.37,-30.53 1342.73,-20.48 1333.84,-26.24 1339.37,-30.53"/>
</a>
</g>
</g>
<!-- Node20 -->
<g id="Node000020" class="node">
<title>Node20</title>
<g id="a_Node000020"><a xlink:href="_register_map_8h.html" target="_top" xlink:title="Modbus register mapping for temperature monitoring system.">
<polygon fill="white" stroke="#666666" points="635,-240.25 555.25,-240.25 555.25,-221 635,-221 635,-240.25"/>
<text xml:space="preserve" text-anchor="middle" x="595.12" y="-226.75" font-family="Helvetica,sans-Serif" font-size="10.00">RegisterMap.h</text>
</a>
</g>
</g>
<!-- Node2&#45;&gt;Node20 -->
<g id="edge25_Node000002_Node000020" class="edge">
<title>Node2&#45;&gt;Node20</title>
<g id="a_edge25_Node000002_Node000020"><a xlink:title=" ">
<path fill="none" stroke="#63b8ff" d="M756.22,-275.84C724.03,-267.01 674.79,-253.49 639.22,-243.73"/>
<polygon fill="#63b8ff" stroke="#63b8ff" points="640.23,-240.37 629.66,-241.1 638.37,-247.13 640.23,-240.37"/>
</a>
</g>
</g>
<!-- Node22 -->
<g id="Node000022" class="node">
<title>Node22</title>
<g id="a_Node000022"><a xlink:href="_indicator_interface_8h.html" target="_top" xlink:title="Hardware interface for PCF8575 I/O expander and SH1106 OLED display.">
<polygon fill="white" stroke="#666666" points="962.12,-185 862.12,-185 862.12,-165.75 962.12,-165.75 962.12,-185"/>
<text xml:space="preserve" text-anchor="middle" x="912.12" y="-171.5" font-family="Helvetica,sans-Serif" font-size="10.00">IndicatorInterface.h</text>
</a>
</g>
</g>
<!-- Node2&#45;&gt;Node22 -->
<g id="edge28_Node000002_Node000022" class="edge">
<title>Node2&#45;&gt;Node22</title>
<g id="a_edge28_Node000002_Node000022"><a xlink:title=" ">
<path fill="none" stroke="#63b8ff" d="M799.19,-276C819.82,-257.8 867.18,-216.02 893.55,-192.76"/>
<polygon fill="#63b8ff" stroke="#63b8ff" points="895.6,-195.62 900.79,-186.38 890.97,-190.37 895.6,-195.62"/>
</a>
</g>
</g>
<!-- Node27 -->
<g id="Node000027" class="node">
<title>Node27</title>
<g id="a_Node000027"><a xlink:href="_alarm_8h.html" target="_top" xlink:title="Alarm management system for temperature monitoring.">
<polygon fill="white" stroke="#666666" points="802,-240.25 752.25,-240.25 752.25,-221 802,-221 802,-240.25"/>
<text xml:space="preserve" text-anchor="middle" x="777.12" y="-226.75" font-family="Helvetica,sans-Serif" font-size="10.00">Alarm.h</text>
</a>
</g>
</g>
<!-- Node2&#45;&gt;Node27 -->
<g id="edge37_Node000002_Node000027" class="edge">
<title>Node2&#45;&gt;Node27</title>
<g id="a_edge37_Node000002_Node000027"><a xlink:title=" ">
<path fill="none" stroke="#63b8ff" d="M787.14,-276.08C785.66,-269.49 783.57,-260.21 781.68,-251.82"/>
<polygon fill="#63b8ff" stroke="#63b8ff" points="785.1,-251.07 779.48,-242.09 778.27,-252.61 785.1,-251.07"/>
</a>
</g>
</g>
<!-- Node2&#45;&gt;Node28 -->
<g id="edge45_Node000002_Node000028" class="edge">
<title>Node2&#45;&gt;Node28</title>
<g id="a_edge45_Node000002_Node000028"><a xlink:title=" ">
<path fill="none" stroke="#63b8ff" d="M849.35,-280.24C947.42,-272.59 1147.72,-256.54 1317.12,-240.25 1330.33,-238.98 1344.74,-237.47 1357.65,-236.06"/>
<polygon fill="#63b8ff" stroke="#63b8ff" points="1357.94,-239.55 1367.5,-234.98 1357.18,-232.59 1357.94,-239.55"/>
</a>
</g>
</g>
<!-- Node5&#45;&gt;Node3 -->
<g id="edge5_Node000005_Node000003" class="edge">
<title>Node5&#45;&gt;Node3</title>
<g id="a_edge5_Node000005_Node000003"><a xlink:title=" ">
<path fill="none" stroke="#63b8ff" d="M419.85,-110.11C423.04,-96.07 431.21,-69.16 449.12,-55.25 476.4,-34.06 571.9,-20.71 627.03,-14.57"/>
<polygon fill="#63b8ff" stroke="#63b8ff" points="627.07,-18.09 636.64,-13.54 626.32,-11.13 627.07,-18.09"/>
</a>
</g>
</g>
<!-- Node5&#45;&gt;Node6 -->
<g id="edge6_Node000005_Node000006" class="edge">
<title>Node5&#45;&gt;Node6</title>
<g id="a_edge6_Node000005_Node000006"><a xlink:title=" ">
<path fill="none" stroke="#63b8ff" d="M390.86,-110.92C361.84,-102.19 315.61,-88.28 282.19,-78.23"/>
<polygon fill="#63b8ff" stroke="#63b8ff" points="283.43,-74.95 272.84,-75.42 281.41,-81.65 283.43,-74.95"/>
</a>
</g>
</g>
<!-- Node5&#45;&gt;Node7 -->
<g id="edge7_Node000005_Node000007" class="edge">
<title>Node5&#45;&gt;Node7</title>
<g id="a_edge7_Node000005_Node000007"><a xlink:title=" ">
<path fill="none" stroke="#63b8ff" d="M433.9,-110.09C448.06,-101.98 469.11,-89.93 485.65,-80.46"/>
<polygon fill="#63b8ff" stroke="#63b8ff" points="487.02,-83.71 493.96,-75.7 483.54,-77.64 487.02,-83.71"/>
</a>
</g>
</g>
<!-- Node8 -->
<g id="Node000008" class="node">
<title>Node8</title>
<g id="a_Node000008"><a xlink:title=" ">
<polygon fill="#e0e0e0" stroke="#999999" points="401.75,-74.5 290.5,-74.5 290.5,-55.25 401.75,-55.25 401.75,-74.5"/>
<text xml:space="preserve" text-anchor="middle" x="346.12" y="-61" font-family="Helvetica,sans-Serif" font-size="10.00">Adafruit_MAX31865.h</text>
</a>
</g>
</g>
<!-- Node5&#45;&gt;Node8 -->
<g id="edge8_Node000005_Node000008" class="edge">
<title>Node5&#45;&gt;Node8</title>
<g id="a_edge8_Node000005_Node000008"><a xlink:title=" ">
<path fill="none" stroke="#63b8ff" d="M405.91,-110.09C395.3,-102.24 379.69,-90.7 367.08,-81.37"/>
<polygon fill="#63b8ff" stroke="#63b8ff" points="369.5,-78.81 359.38,-75.67 365.33,-84.44 369.5,-78.81"/>
</a>
</g>
</g>
<!-- Node9&#45;&gt;Node3 -->
<g id="edge10_Node000009_Node000003" class="edge">
<title>Node9&#45;&gt;Node3</title>
<g id="a_edge10_Node000009_Node000003"><a xlink:title=" ">
<path fill="none" stroke="#63b8ff" d="M616.55,-165.44C608.9,-144.82 593.03,-92.81 611.12,-55.25 617.03,-42.99 628.13,-33.05 638.9,-25.7"/>
<polygon fill="#63b8ff" stroke="#63b8ff" points="640.63,-28.74 647.25,-20.47 636.92,-22.81 640.63,-28.74"/>
</a>
</g>
</g>
<!-- Node9&#45;&gt;Node5 -->
<g id="edge11_Node000009_Node000005" class="edge">
<title>Node9&#45;&gt;Node5</title>
<g id="a_edge11_Node000009_Node000005"><a xlink:title=" ">
<path fill="none" stroke="#63b8ff" d="M585.86,-165.34C550.05,-155.9 494,-141.13 456.67,-131.29"/>
<polygon fill="#63b8ff" stroke="#63b8ff" points="457.76,-127.95 447.19,-128.79 455.97,-134.72 457.76,-127.95"/>
</a>
</g>
</g>
<!-- Node10 -->
<g id="Node000010" class="node">
<title>Node10</title>
<g id="a_Node000010"><a xlink:href="_logger_manager_8h.html" target="_top" xlink:title="Comprehensive data and event logging system for temperature monitoring.">
<polygon fill="white" stroke="#666666" points="746.25,-129.75 656,-129.75 656,-110.5 746.25,-110.5 746.25,-129.75"/>
<text xml:space="preserve" text-anchor="middle" x="701.12" y="-116.25" font-family="Helvetica,sans-Serif" font-size="10.00">LoggerManager.h</text>
</a>
</g>
</g>
<!-- Node9&#45;&gt;Node10 -->
<g id="edge12_Node000009_Node000010" class="edge">
<title>Node9&#45;&gt;Node10</title>
<g id="a_edge12_Node000009_Node000010"><a xlink:title=" ">
<path fill="none" stroke="#63b8ff" d="M633.87,-165.34C645.85,-157.46 663.5,-145.86 677.71,-136.52"/>
<polygon fill="#63b8ff" stroke="#63b8ff" points="679.62,-139.45 686.05,-131.03 675.77,-133.6 679.62,-139.45"/>
</a>
</g>
</g>
<!-- Node10&#45;&gt;Node3 -->
<g id="edge13_Node000010_Node000003" class="edge">
<title>Node10&#45;&gt;Node3</title>
<g id="a_edge13_Node000010_Node000003"><a xlink:title=" ">
<path fill="none" stroke="#63b8ff" d="M708.53,-110.19C718.01,-97.59 732.19,-74.06 723.12,-55.25 717.22,-42.99 706.12,-33.05 695.35,-25.7"/>
<polygon fill="#63b8ff" stroke="#63b8ff" points="697.33,-22.81 687,-20.47 693.62,-28.74 697.33,-22.81"/>
</a>
</g>
</g>
<!-- Node10&#45;&gt;Node4 -->
<g id="edge24_Node000010_Node000004" class="edge">
<title>Node10&#45;&gt;Node4</title>
<g id="a_edge24_Node000010_Node000004"><a xlink:title=" ">
<path fill="none" stroke="#63b8ff" d="M746.45,-112.81C824.19,-101.97 981.22,-80.08 1049.8,-70.52"/>
<polygon fill="#63b8ff" stroke="#63b8ff" points="1050.24,-73.99 1059.67,-69.15 1049.28,-67.06 1050.24,-73.99"/>
</a>
</g>
</g>
<!-- Node11 -->
<g id="Node000011" class="node">
<title>Node11</title>
<g id="a_Node000011"><a xlink:title=" ">
<polygon fill="#e0e0e0" stroke="#999999" points="657.62,-74.5 620.62,-74.5 620.62,-55.25 657.62,-55.25 657.62,-74.5"/>
<text xml:space="preserve" text-anchor="middle" x="639.12" y="-61" font-family="Helvetica,sans-Serif" font-size="10.00">FS.h</text>
</a>
</g>
</g>
<!-- Node10&#45;&gt;Node11 -->
<g id="edge14_Node000010_Node000011" class="edge">
<title>Node10&#45;&gt;Node11</title>
<g id="a_edge14_Node000010_Node000011"><a xlink:title=" ">
<path fill="none" stroke="#63b8ff" d="M690.61,-110.09C681.74,-102.47 668.81,-91.37 658.14,-82.2"/>
<polygon fill="#63b8ff" stroke="#63b8ff" points="660.5,-79.62 650.64,-75.76 655.94,-84.93 660.5,-79.62"/>
</a>
</g>
</g>
<!-- Node12 -->
<g id="Node000012" class="node">
<title>Node12</title>
<g id="a_Node000012"><a xlink:title=" ">
<polygon fill="#e0e0e0" stroke="#999999" points="714.38,-74.5 675.88,-74.5 675.88,-55.25 714.38,-55.25 714.38,-74.5"/>
<text xml:space="preserve" text-anchor="middle" x="695.12" y="-61" font-family="Helvetica,sans-Serif" font-size="10.00">SD.h</text>
</a>
</g>
</g>
<!-- Node10&#45;&gt;Node12 -->
<g id="edge15_Node000010_Node000012" class="edge">
<title>Node10&#45;&gt;Node12</title>
<g id="a_edge15_Node000010_Node000012"><a xlink:title=" ">
<path fill="none" stroke="#63b8ff" d="M700.13,-110.33C699.39,-103.74 698.35,-94.46 697.4,-86.07"/>
<polygon fill="#63b8ff" stroke="#63b8ff" points="700.9,-85.91 696.31,-76.36 693.95,-86.69 700.9,-85.91"/>
</a>
</g>
</g>
<!-- Node13 -->
<g id="Node000013" class="node">
<title>Node13</title>
<g id="a_Node000013"><a xlink:href="_time_manager_8h.html" target="_top" xlink:title="Real&#45;time clock and time synchronization management.">
<polygon fill="white" stroke="#666666" points="1243.5,-74.5 1160.75,-74.5 1160.75,-55.25 1243.5,-55.25 1243.5,-74.5"/>
<text xml:space="preserve" text-anchor="middle" x="1202.12" y="-61" font-family="Helvetica,sans-Serif" font-size="10.00">TimeManager.h</text>
</a>
</g>
</g>
<!-- Node10&#45;&gt;Node13 -->
<g id="edge16_Node000010_Node000013" class="edge">
<title>Node10&#45;&gt;Node13</title>
<g id="a_edge16_Node000010_Node000013"><a xlink:title=" ">
<path fill="none" stroke="#63b8ff" d="M746.47,-114.31C839.26,-104.44 1050.39,-82 1149.23,-71.5"/>
<polygon fill="#63b8ff" stroke="#63b8ff" points="1149.35,-75 1158.93,-70.47 1148.61,-68.04 1149.35,-75"/>
</a>
</g>
</g>
<!-- Node13&#45;&gt;Node3 -->
<g id="edge17_Node000013_Node000003" class="edge">
<title>Node13&#45;&gt;Node3</title>
<g id="a_edge17_Node000013_Node000003"><a xlink:title=" ">
<path fill="none" stroke="#63b8ff" d="M1160.42,-57.05C1155.94,-56.4 1151.44,-55.79 1147.12,-55.25 984.66,-34.98 790.19,-19.63 707.51,-13.52"/>
<polygon fill="#63b8ff" stroke="#63b8ff" points="707.88,-10.04 697.65,-12.79 707.37,-17.02 707.88,-10.04"/>
</a>
</g>
</g>
<!-- Node13&#45;&gt;Node14 -->
<g id="edge18_Node000013_Node000014" class="edge">
<title>Node13&#45;&gt;Node14</title>
<g id="a_edge18_Node000013_Node000014"><a xlink:title=" ">
<path fill="none" stroke="#63b8ff" d="M1243.62,-54.78C1290.93,-44.41 1367.37,-27.66 1411.25,-18.05"/>
<polygon fill="#63b8ff" stroke="#63b8ff" points="1411.95,-21.48 1420.97,-15.92 1410.45,-14.64 1411.95,-21.48"/>
</a>
</g>
</g>
<!-- Node15 -->
<g id="Node000015" class="node">
<title>Node15</title>
<g id="a_Node000015"><a xlink:title=" ">
<polygon fill="#e0e0e0" stroke="#999999" points="1293.38,-19.25 1248.88,-19.25 1248.88,0 1293.38,0 1293.38,-19.25"/>
<text xml:space="preserve" text-anchor="middle" x="1271.12" y="-5.75" font-family="Helvetica,sans-Serif" font-size="10.00">Wire.h</text>
</a>
</g>
</g>
<!-- Node13&#45;&gt;Node15 -->
<g id="edge19_Node000013_Node000015" class="edge">
<title>Node13&#45;&gt;Node15</title>
<g id="a_edge19_Node000013_Node000015"><a xlink:title=" ">
<path fill="none" stroke="#63b8ff" d="M1213.83,-54.84C1223.9,-47.07 1238.67,-35.67 1250.69,-26.4"/>
<polygon fill="#63b8ff" stroke="#63b8ff" points="1252.62,-29.33 1258.39,-20.45 1248.34,-23.79 1252.62,-29.33"/>
</a>
</g>
</g>
<!-- Node16 -->
<g id="Node000016" class="node">
<title>Node16</title>
<g id="a_Node000016"><a xlink:title=" ">
<polygon fill="#e0e0e0" stroke="#999999" points="1061.62,-19.25 1006.62,-19.25 1006.62,0 1061.62,0 1061.62,-19.25"/>
<text xml:space="preserve" text-anchor="middle" x="1034.12" y="-5.75" font-family="Helvetica,sans-Serif" font-size="10.00">RTClib.h</text>
</a>
</g>
</g>
<!-- Node13&#45;&gt;Node16 -->
<g id="edge20_Node000013_Node000016" class="edge">
<title>Node13&#45;&gt;Node16</title>
<g id="a_edge20_Node000013_Node000016"><a xlink:title=" ">
<path fill="none" stroke="#63b8ff" d="M1173.63,-54.84C1145.86,-46.04 1103.46,-32.6 1072.69,-22.85"/>
<polygon fill="#63b8ff" stroke="#63b8ff" points="1073.96,-19.58 1063.37,-19.89 1071.84,-26.25 1073.96,-19.58"/>
</a>
</g>
</g>
<!-- Node17 -->
<g id="Node000017" class="node">
<title>Node17</title>
<g id="a_Node000017"><a xlink:title=" ">
<polygon fill="#e0e0e0" stroke="#999999" points="1150.12,-19.25 1080.12,-19.25 1080.12,0 1150.12,0 1150.12,-19.25"/>
<text xml:space="preserve" text-anchor="middle" x="1115.12" y="-5.75" font-family="Helvetica,sans-Serif" font-size="10.00">NTPClient.h</text>
</a>
</g>
</g>
<!-- Node13&#45;&gt;Node17 -->
<g id="edge21_Node000013_Node000017" class="edge">
<title>Node13&#45;&gt;Node17</title>
<g id="a_edge21_Node000013_Node000017"><a xlink:title=" ">
<path fill="none" stroke="#63b8ff" d="M1187.37,-54.84C1174.24,-46.81 1154.8,-34.91 1139.39,-25.48"/>
<polygon fill="#63b8ff" stroke="#63b8ff" points="1141.6,-22.73 1131.25,-20.49 1137.95,-28.7 1141.6,-22.73"/>
</a>
</g>
</g>
<!-- Node18 -->
<g id="Node000018" class="node">
<title>Node18</title>
<g id="a_Node000018"><a xlink:title=" ">
<polygon fill="#e0e0e0" stroke="#999999" points="1230.38,-19.25 1167.88,-19.25 1167.88,0 1230.38,0 1230.38,-19.25"/>
<text xml:space="preserve" text-anchor="middle" x="1199.12" y="-5.75" font-family="Helvetica,sans-Serif" font-size="10.00">WiFiUdp.h</text>
</a>
</g>
</g>
<!-- Node13&#45;&gt;Node18 -->
<g id="edge22_Node000013_Node000018" class="edge">
<title>Node13&#45;&gt;Node18</title>
<g id="a_edge22_Node000013_Node000018"><a xlink:title=" ">
<path fill="none" stroke="#63b8ff" d="M1201.63,-55.08C1201.26,-48.49 1200.74,-39.21 1200.26,-30.82"/>
<polygon fill="#63b8ff" stroke="#63b8ff" points="1203.77,-30.91 1199.72,-21.12 1196.78,-31.3 1203.77,-30.91"/>
</a>
</g>
</g>
<!-- Node13&#45;&gt;Node19 -->
<g id="edge23_Node000013_Node000019" class="edge">
<title>Node13&#45;&gt;Node19</title>
<g id="a_edge23_Node000013_Node000019"><a xlink:title=" ">
<path fill="none" stroke="#63b8ff" d="M1227.23,-54.84C1251.15,-46.24 1287.41,-33.19 1314.35,-23.5"/>
<polygon fill="#63b8ff" stroke="#63b8ff" points="1315.25,-26.89 1323.47,-20.21 1312.88,-20.31 1315.25,-26.89"/>
</a>
</g>
</g>
<!-- Node20&#45;&gt;Node9 -->
<g id="edge27_Node000020_Node000009" class="edge">
<title>Node20&#45;&gt;Node9</title>
<g id="a_edge27_Node000020_Node000009"><a xlink:title=" ">
<path fill="none" stroke="#63b8ff" d="M599.25,-220.83C602.45,-214.01 607.01,-204.31 611.05,-195.7"/>
<polygon fill="#63b8ff" stroke="#63b8ff" points="614.18,-197.27 615.26,-186.73 607.85,-194.29 614.18,-197.27"/>
</a>
</g>
</g>
<!-- Node21 -->
<g id="Node000021" class="node">
<title>Node21</title>
<g id="a_Node000021"><a xlink:title=" ">
<polygon fill="#e0e0e0" stroke="#999999" points="549.25,-185 501,-185 501,-165.75 549.25,-165.75 549.25,-185"/>
<text xml:space="preserve" text-anchor="middle" x="525.12" y="-171.5" font-family="Helvetica,sans-Serif" font-size="10.00">stdint.h</text>
</a>
</g>
</g>
<!-- Node20&#45;&gt;Node21 -->
<g id="edge26_Node000020_Node000021" class="edge">
<title>Node20&#45;&gt;Node21</title>
<g id="a_edge26_Node000020_Node000021"><a xlink:title=" ">
<path fill="none" stroke="#63b8ff" d="M583.25,-220.59C573.03,-212.82 558.05,-201.42 545.86,-192.15"/>
<polygon fill="#63b8ff" stroke="#63b8ff" points="548.11,-189.46 538.03,-186.19 543.87,-195.03 548.11,-189.46"/>
</a>
</g>
</g>
<!-- Node22&#45;&gt;Node3 -->
<g id="edge29_Node000022_Node000003" class="edge">
<title>Node22&#45;&gt;Node3</title>
<g id="a_edge29_Node000022_Node000003"><a xlink:title=" ">
<path fill="none" stroke="#63b8ff" d="M887.26,-165.35C869.77,-157.97 846.79,-146.09 831.12,-129.75 805.55,-103.06 821.82,-79.73 794.12,-55.25 769.76,-33.72 734.37,-22.41 707.13,-16.57"/>
<polygon fill="#63b8ff" stroke="#63b8ff" points="707.99,-13.17 697.5,-14.68 706.64,-20.04 707.99,-13.17"/>
</a>
</g>
</g>
<!-- Node22&#45;&gt;Node4 -->
<g id="edge35_Node000022_Node000004" class="edge">
<title>Node22&#45;&gt;Node4</title>
<g id="a_edge35_Node000022_Node000004"><a xlink:title=" ">
<path fill="none" stroke="#63b8ff" d="M962.28,-169.42C1012.03,-163.35 1083.22,-151.13 1100.12,-129.75 1110.45,-116.69 1103.62,-97.93 1095.76,-84.12"/>
<polygon fill="#63b8ff" stroke="#63b8ff" points="1098.92,-82.56 1090.62,-75.97 1093,-86.3 1098.92,-82.56"/>
</a>
</g>
</g>
<!-- Node22&#45;&gt;Node10 -->
<g id="edge36_Node000022_Node000010" class="edge">
<title>Node22&#45;&gt;Node10</title>
<g id="a_edge36_Node000022_Node000010"><a xlink:title=" ">
<path fill="none" stroke="#63b8ff" d="M876.33,-165.34C841.02,-156.43 786.84,-142.76 748.09,-132.98"/>
<polygon fill="#63b8ff" stroke="#63b8ff" points="749.11,-129.63 738.56,-130.57 747.4,-136.41 749.11,-129.63"/>
</a>
</g>
</g>
<!-- Node22&#45;&gt;Node15 -->
<g id="edge30_Node000022_Node000015" class="edge">
<title>Node22&#45;&gt;Node15</title>
<g id="a_edge30_Node000022_Node000015"><a xlink:title=" ">
<path fill="none" stroke="#63b8ff" d="M962.4,-174.96C1037.22,-172.93 1177.08,-157.39 1252.12,-74.5 1262.94,-62.55 1267.61,-44.68 1269.62,-30.88"/>
<polygon fill="#63b8ff" stroke="#63b8ff" points="1273.08,-31.46 1270.66,-21.14 1266.12,-30.72 1273.08,-31.46"/>
</a>
</g>
</g>
<!-- Node23 -->
<g id="Node000023" class="node">
<title>Node23</title>
<g id="a_Node000023"><a xlink:title=" ">
<polygon fill="#e0e0e0" stroke="#999999" points="874.5,-129.75 839.75,-129.75 839.75,-110.5 874.5,-110.5 874.5,-129.75"/>
<text xml:space="preserve" text-anchor="middle" x="857.12" y="-116.25" font-family="Helvetica,sans-Serif" font-size="10.00">map</text>
</a>
</g>
</g>
<!-- Node22&#45;&gt;Node23 -->
<g id="edge31_Node000022_Node000023" class="edge">
<title>Node22&#45;&gt;Node23</title>
<g id="a_edge31_Node000022_Node000023"><a xlink:title=" ">
<path fill="none" stroke="#63b8ff" d="M903.04,-165.58C895.29,-158.07 883.91,-147.06 874.43,-137.88"/>
<polygon fill="#63b8ff" stroke="#63b8ff" points="877.11,-135.6 867.49,-131.16 872.24,-140.63 877.11,-135.6"/>
</a>
</g>
</g>
<!-- Node24 -->
<g id="Node000024" class="node">
<title>Node24</title>
<g id="a_Node000024"><a xlink:title=" ">
<polygon fill="#e0e0e0" stroke="#999999" points="932.12,-129.75 892.12,-129.75 892.12,-110.5 932.12,-110.5 932.12,-129.75"/>
<text xml:space="preserve" text-anchor="middle" x="912.12" y="-116.25" font-family="Helvetica,sans-Serif" font-size="10.00">string</text>
</a>
</g>
</g>
<!-- Node22&#45;&gt;Node24 -->
<g id="edge32_Node000022_Node000024" class="edge">
<title>Node22&#45;&gt;Node24</title>
<g id="a_edge32_Node000022_Node000024"><a xlink:title=" ">
<path fill="none" stroke="#63b8ff" d="M912.12,-165.58C912.12,-159.07 912.12,-149.92 912.12,-141.62"/>
<polygon fill="#63b8ff" stroke="#63b8ff" points="915.63,-141.62 912.13,-131.62 908.63,-141.62 915.63,-141.62"/>
</a>
</g>
</g>
<!-- Node25 -->
<g id="Node000025" class="node">
<title>Node25</title>
<g id="a_Node000025"><a xlink:title=" ">
<polygon fill="#e0e0e0" stroke="#999999" points="1015.88,-129.75 950.38,-129.75 950.38,-110.5 1015.88,-110.5 1015.88,-129.75"/>
<text xml:space="preserve" text-anchor="middle" x="983.12" y="-116.25" font-family="Helvetica,sans-Serif" font-size="10.00">PCF8575.h</text>
</a>
</g>
</g>
<!-- Node22&#45;&gt;Node25 -->
<g id="edge33_Node000022_Node000025" class="edge">
<title>Node22&#45;&gt;Node25</title>
<g id="a_edge33_Node000022_Node000025"><a xlink:title=" ">
<path fill="none" stroke="#63b8ff" d="M924.17,-165.34C934.53,-157.57 949.73,-146.17 962.09,-136.9"/>
<polygon fill="#63b8ff" stroke="#63b8ff" points="964.15,-139.73 970.05,-130.93 959.95,-134.13 964.15,-139.73"/>
</a>
</g>
</g>
<!-- Node26 -->
<g id="Node000026" class="node">
<title>Node26</title>
<g id="a_Node000026"><a xlink:title=" ">
<polygon fill="#e0e0e0" stroke="#999999" points="1090.75,-129.75 1033.5,-129.75 1033.5,-110.5 1090.75,-110.5 1090.75,-129.75"/>
<text xml:space="preserve" text-anchor="middle" x="1062.12" y="-116.25" font-family="Helvetica,sans-Serif" font-size="10.00">U8g2lib.h</text>
</a>
</g>
</g>
<!-- Node22&#45;&gt;Node26 -->
<g id="edge34_Node000022_Node000026" class="edge">
<title>Node22&#45;&gt;Node26</title>
<g id="a_edge34_Node000022_Node000026"><a xlink:title=" ">
<path fill="none" stroke="#63b8ff" d="M937.57,-165.34C961.81,-156.74 998.56,-143.69 1025.86,-134"/>
<polygon fill="#63b8ff" stroke="#63b8ff" points="1026.88,-137.35 1035.13,-130.71 1024.53,-130.76 1026.88,-137.35"/>
</a>
</g>
</g>
<!-- Node27&#45;&gt;Node3 -->
<g id="edge38_Node000027_Node000003" class="edge">
<title>Node27&#45;&gt;Node3</title>
<g id="a_edge38_Node000027_Node000003"><a xlink:title=" ">
<path fill="none" stroke="#63b8ff" d="M777.61,-220.57C778.63,-192.78 778.14,-107.44 738.12,-55.25 728.17,-42.27 713.28,-32.09 699.7,-24.75"/>
<polygon fill="#63b8ff" stroke="#63b8ff" points="701.53,-21.75 691.03,-20.37 698.38,-28 701.53,-21.75"/>
</a>
</g>
</g>
<!-- Node27&#45;&gt;Node4 -->
<g id="edge39_Node000027_Node000004" class="edge">
<title>Node27&#45;&gt;Node4</title>
<g id="a_edge39_Node000027_Node000004"><a xlink:title=" ">
<path fill="none" stroke="#63b8ff" d="M802.3,-226.29C874.65,-216.14 1080.37,-182.96 1117.12,-129.75 1127.55,-114.66 1115.02,-96 1102.33,-82.76"/>
<polygon fill="#63b8ff" stroke="#63b8ff" points="1104.93,-80.4 1095.3,-75.98 1100.07,-85.44 1104.93,-80.4"/>
</a>
</g>
</g>
<!-- Node27&#45;&gt;Node9 -->
<g id="edge40_Node000027_Node000009" class="edge">
<title>Node27&#45;&gt;Node9</title>
<g id="a_edge40_Node000027_Node000009"><a xlink:title=" ">
<path fill="none" stroke="#63b8ff" d="M751.9,-221.07C726.38,-212.41 686.64,-198.94 657.47,-189.04"/>
<polygon fill="#63b8ff" stroke="#63b8ff" points="658.89,-185.83 648.3,-185.93 656.64,-192.46 658.89,-185.83"/>
</a>
</g>
</g>
<!-- Node27&#45;&gt;Node10 -->
<g id="edge41_Node000027_Node000010" class="edge">
<title>Node27&#45;&gt;Node10</title>
<g id="a_edge41_Node000027_Node000010"><a xlink:title=" ">
<path fill="none" stroke="#63b8ff" d="M770.91,-220.75C758.49,-203.02 730.42,-162.94 713.91,-139.38"/>
<polygon fill="#63b8ff" stroke="#63b8ff" points="716.9,-137.55 708.3,-131.37 711.17,-141.56 716.9,-137.55"/>
</a>
</g>
</g>
<!-- Node29&#45;&gt;Node2 -->
<g id="edge54_Node000029_Node000002" class="edge">
<title>Node29&#45;&gt;Node2</title>
<g id="a_edge54_Node000029_Node000002"><a xlink:title=" ">
<path fill="none" stroke="#63b8ff" d="M740.86,-386.37C743.5,-373.69 749.2,-350.06 758.12,-331.5 762.61,-322.17 768.94,-312.65 774.71,-304.8"/>
<polygon fill="#63b8ff" stroke="#63b8ff" points="777.31,-307.17 780.63,-297.11 771.76,-302.91 777.31,-307.17"/>
</a>
</g>
</g>
<!-- Node29&#45;&gt;Node3 -->
<g id="edge49_Node000029_Node000003" class="edge">
<title>Node29&#45;&gt;Node3</title>
<g id="a_edge49_Node000029_Node000003"><a xlink:title=" ">
<path fill="none" stroke="#63b8ff" d="M693.91,-391.91C555.06,-380.68 144.12,-342.72 144.12,-286.88 144.12,-286.88 144.12,-286.88 144.12,-119.12 144.12,-86.09 154.19,-72.88 182.12,-55.25 219.38,-31.74 517.41,-16.93 626.93,-12.24"/>
<polygon fill="#63b8ff" stroke="#63b8ff" points="626.78,-15.75 636.62,-11.83 626.48,-8.76 626.78,-15.75"/>
</a>
</g>
</g>
<!-- Node29&#45;&gt;Node4 -->
<g id="edge63_Node000029_Node000004" class="edge">
<title>Node29&#45;&gt;Node4</title>
<g id="a_edge63_Node000029_Node000004"><a xlink:title=" ">
<path fill="none" stroke="#63b8ff" d="M784.34,-394.16C860.29,-391.28 1009.19,-381.74 1050.12,-350.75 1135.79,-285.9 1125.86,-234.86 1148.12,-129.75 1149.9,-121.38 1152.11,-118.07 1148.12,-110.5 1140.98,-96.93 1127.64,-86.69 1114.89,-79.46"/>
<polygon fill="#63b8ff" stroke="#63b8ff" points="1116.76,-76.49 1106.27,-75 1113.55,-82.71 1116.76,-76.49"/>
</a>
</g>
</g>
<!-- Node29&#45;&gt;Node10 -->
<g id="edge62_Node000029_Node000010" class="edge">
<title>Node29&#45;&gt;Node10</title>
<g id="a_edge62_Node000029_Node000010"><a xlink:title=" ">
<path fill="none" stroke="#63b8ff" d="M733.68,-386.46C723.17,-368.38 701.12,-325.79 701.12,-286.88 701.12,-286.88 701.12,-286.88 701.12,-229.62 701.12,-198.91 701.12,-163.3 701.12,-141.49"/>
<polygon fill="#63b8ff" stroke="#63b8ff" points="704.63,-141.64 701.13,-131.64 697.63,-141.64 704.63,-141.64"/>
</a>
</g>
</g>
<!-- Node30 -->
<g id="Node000030" class="node">
<title>Node30</title>
<g id="a_Node000030"><a xlink:title=" ">
<polygon fill="#e0e0e0" stroke="#999999" points="645.38,-295.5 564.88,-295.5 564.88,-276.25 645.38,-276.25 645.38,-295.5"/>
<text xml:space="preserve" text-anchor="middle" x="605.12" y="-282" font-family="Helvetica,sans-Serif" font-size="10.00">ConfigAssist.h</text>
</a>
</g>
</g>
<!-- Node29&#45;&gt;Node30 -->
<g id="edge50_Node000029_Node000030" class="edge">
<title>Node29&#45;&gt;Node30</title>
<g id="a_edge50_Node000029_Node000030"><a xlink:title=" ">
<path fill="none" stroke="#63b8ff" d="M728.16,-386.5C705.58,-368.22 653.64,-326.15 624.99,-302.96"/>
<polygon fill="#63b8ff" stroke="#63b8ff" points="627.39,-300.4 617.42,-296.83 622.99,-305.84 627.39,-300.4"/>
</a>
</g>
</g>
<!-- Node31 -->
<g id="Node000031" class="node">
<title>Node31</title>
<g id="a_Node000031"><a xlink:title=" ">
<polygon fill="#e0e0e0" stroke="#999999" points="875.25,-350.75 767,-350.75 767,-331.5 875.25,-331.5 875.25,-350.75"/>
<text xml:space="preserve" text-anchor="middle" x="821.12" y="-337.25" font-family="Helvetica,sans-Serif" font-size="10.00">ConfigAssistHelper.h</text>
</a>
</g>
</g>
<!-- Node29&#45;&gt;Node31 -->
<g id="edge51_Node000029_Node000031" class="edge">
<title>Node29&#45;&gt;Node31</title>
<g id="a_edge51_Node000029_Node000031"><a xlink:title=" ">
<path fill="none" stroke="#63b8ff" d="M753.04,-386.34C765.29,-378.39 783.38,-366.64 797.84,-357.25"/>
<polygon fill="#63b8ff" stroke="#63b8ff" points="799.4,-360.41 805.88,-352.03 795.58,-354.54 799.4,-360.41"/>
</a>
</g>
</g>
<!-- Node32 -->
<g id="Node000032" class="node">
<title>Node32</title>
<g id="a_Node000032"><a xlink:title=" ">
<polygon fill="#e0e0e0" stroke="#999999" points="964.88,-350.75 893.38,-350.75 893.38,-331.5 964.88,-331.5 964.88,-350.75"/>
<text xml:space="preserve" text-anchor="middle" x="929.12" y="-337.25" font-family="Helvetica,sans-Serif" font-size="10.00">WebServer.h</text>
</a>
</g>
</g>
<!-- Node29&#45;&gt;Node32 -->
<g id="edge52_Node000029_Node000032" class="edge">
<title>Node29&#45;&gt;Node32</title>
<g id="a_edge52_Node000029_Node000032"><a xlink:title=" ">
<path fill="none" stroke="#63b8ff" d="M771.36,-386.34C802.88,-377.51 851.1,-363.99 885.94,-354.23"/>
<polygon fill="#63b8ff" stroke="#63b8ff" points="886.59,-357.68 895.28,-351.61 884.71,-350.94 886.59,-357.68"/>
</a>
</g>
</g>
<!-- Node33 -->
<g id="Node000033" class="node">
<title>Node33</title>
<g id="a_Node000033"><a xlink:title=" ">
<polygon fill="#e0e0e0" stroke="#999999" points="1041.12,-350.75 983.12,-350.75 983.12,-331.5 1041.12,-331.5 1041.12,-350.75"/>
<text xml:space="preserve" text-anchor="middle" x="1012.12" y="-337.25" font-family="Helvetica,sans-Serif" font-size="10.00">LittleFS.h</text>
</a>
</g>
</g>
<!-- Node29&#45;&gt;Node33 -->
<g id="edge53_Node000029_Node000033" class="edge">
<title>Node29&#45;&gt;Node33</title>
<g id="a_edge53_Node000029_Node000033"><a xlink:title=" ">
<path fill="none" stroke="#63b8ff" d="M784.27,-387.29C829.34,-379.12 900.85,-365.85 971.78,-351.18"/>
<polygon fill="#63b8ff" stroke="#63b8ff" points="972.13,-354.69 981.21,-349.22 970.7,-347.83 972.13,-354.69"/>
</a>
</g>
</g>
<!-- Node34 -->
<g id="Node000034" class="node">
<title>Node34</title>
<g id="a_Node000034"><a xlink:href="_c_s_v_config_manager_8h.html" target="_top" xlink:title="CSV configuration import/export manager for measurement points and alarms.">
<polygon fill="white" stroke="#666666" points="116.38,-350.75 5.88,-350.75 5.88,-331.5 116.38,-331.5 116.38,-350.75"/>
<text xml:space="preserve" text-anchor="middle" x="61.12" y="-337.25" font-family="Helvetica,sans-Serif" font-size="10.00">CSVConfigManager.h</text>
</a>
</g>
</g>
<!-- Node29&#45;&gt;Node34 -->
<g id="edge55_Node000029_Node000034" class="edge">
<title>Node29&#45;&gt;Node34</title>
<g id="a_edge55_Node000029_Node000034"><a xlink:title=" ">
<path fill="none" stroke="#63b8ff" d="M693.98,-392.86C592.87,-387.05 340.59,-371.6 130.12,-350.75 129.45,-350.68 128.77,-350.61 128.09,-350.55"/>
<polygon fill="#63b8ff" stroke="#63b8ff" points="128.65,-347.09 118.34,-349.5 127.91,-354.05 128.65,-347.09"/>
</a>
</g>
</g>
<!-- Node36 -->
<g id="Node000036" class="node">
<title>Node36</title>
<g id="a_Node000036"><a xlink:href="_settings_c_s_v_manager_8h.html" target="_top" xlink:title="CSV import/export manager for system settings.">
<polygon fill="white" stroke="#666666" points="635.12,-350.75 517.12,-350.75 517.12,-331.5 635.12,-331.5 635.12,-350.75"/>
<text xml:space="preserve" text-anchor="middle" x="576.12" y="-337.25" font-family="Helvetica,sans-Serif" font-size="10.00">SettingsCSVManager.h</text>
</a>
</g>
</g>
<!-- Node29&#45;&gt;Node36 -->
<g id="edge59_Node000029_Node000036" class="edge">
<title>Node29&#45;&gt;Node36</title>
<g id="a_edge59_Node000029_Node000036"><a xlink:title=" ">
<path fill="none" stroke="#63b8ff" d="M711.47,-386.34C684.9,-377.66 644.49,-364.46 614.74,-354.74"/>
<polygon fill="#63b8ff" stroke="#63b8ff" points="615.94,-351.45 605.35,-351.67 613.77,-358.1 615.94,-351.45"/>
</a>
</g>
</g>
<!-- Node34&#45;&gt;Node2 -->
<g id="edge58_Node000034_Node000002" class="edge">
<title>Node34&#45;&gt;Node2</title>
<g id="a_edge58_Node000034_Node000002"><a xlink:title=" ">
<path fill="none" stroke="#63b8ff" d="M116.74,-336.06C247.16,-326.52 572.58,-302.71 717.52,-292.11"/>
<polygon fill="#63b8ff" stroke="#63b8ff" points="717.66,-295.61 727.38,-291.39 717.15,-288.63 717.66,-295.61"/>
</a>
</g>
</g>
<!-- Node34&#45;&gt;Node3 -->
<g id="edge56_Node000034_Node000003" class="edge">
<title>Node34&#45;&gt;Node3</title>
<g id="a_edge56_Node000034_Node000003"><a xlink:title=" ">
<path fill="none" stroke="#63b8ff" d="M67.76,-331.08C80.28,-313.1 106.12,-271.19 106.12,-231.62 106.12,-231.62 106.12,-231.62 106.12,-119.12 106.12,-88.8 105.93,-73.53 130.12,-55.25 169.5,-25.5 508.78,-14.47 626.84,-11.52"/>
<polygon fill="#63b8ff" stroke="#63b8ff" points="626.77,-15.02 636.68,-11.28 626.6,-8.02 626.77,-15.02"/>
</a>
</g>
</g>
<!-- Node35 -->
<g id="Node000035" class="node">
<title>Node35</title>
<g id="a_Node000035"><a xlink:title=" ">
<polygon fill="#e0e0e0" stroke="#999999" points="78.25,-295.5 0,-295.5 0,-276.25 78.25,-276.25 78.25,-295.5"/>
<text xml:space="preserve" text-anchor="middle" x="39.12" y="-282" font-family="Helvetica,sans-Serif" font-size="10.00">CSV_Parser.h</text>
</a>
</g>
</g>
<!-- Node34&#45;&gt;Node35 -->
<g id="edge57_Node000034_Node000035" class="edge">
<title>Node34&#45;&gt;Node35</title>
<g id="a_edge57_Node000034_Node000035"><a xlink:title=" ">
<path fill="none" stroke="#63b8ff" d="M57.49,-331.33C54.71,-324.59 50.75,-315.02 47.23,-306.49"/>
<polygon fill="#63b8ff" stroke="#63b8ff" points="50.47,-305.16 43.41,-297.26 44,-307.84 50.47,-305.16"/>
</a>
</g>
</g>
<!-- Node36&#45;&gt;Node3 -->
<g id="edge60_Node000036_Node000003" class="edge">
<title>Node36&#45;&gt;Node3</title>
<g id="a_edge60_Node000036_Node000003"><a xlink:title=" ">
<path fill="none" stroke="#63b8ff" d="M516.71,-336.12C406.65,-327.06 182.12,-300.18 182.12,-231.62 182.12,-231.62 182.12,-231.62 182.12,-119.12 182.12,-89.51 178.26,-74.07 201.12,-55.25 233.67,-28.46 519.54,-15.78 626.75,-11.94"/>
<polygon fill="#63b8ff" stroke="#63b8ff" points="626.64,-15.45 636.52,-11.6 626.4,-8.45 626.64,-15.45"/>
</a>
</g>
</g>
<!-- Node36&#45;&gt;Node30 -->
<g id="edge61_Node000036_Node000030" class="edge">
<title>Node36&#45;&gt;Node30</title>
<g id="a_edge61_Node000036_Node000030"><a xlink:title=" ">
<path fill="none" stroke="#63b8ff" d="M580.91,-331.33C584.67,-324.44 590.03,-314.59 594.76,-305.91"/>
<polygon fill="#63b8ff" stroke="#63b8ff" points="597.8,-307.64 599.51,-297.19 591.65,-304.3 597.8,-307.64"/>
</a>
</g>
</g>
</g>
</svg>
