<?xml version="1.0" encoding="UTF-8" standalone="no"?>
<!DOCTYPE svg PUBLIC "-//W3C//DTD SVG 1.1//EN"
 "http://www.w3.org/Graphics/SVG/1.1/DTD/svg11.dtd">
<!-- Generated by graphviz version 13.1.0 (20250701.0955)
 -->
<!-- Title: include/TimeManager.h Pages: 1 -->
<svg width="1083pt" height="414pt"
 viewBox="0.00 0.00 1083.00 414.00" xmlns="http://www.w3.org/2000/svg" xmlns:xlink="http://www.w3.org/1999/xlink">
<g id="graph0" class="graph" transform="scale(1 1) rotate(0) translate(4 410)">
<title>include/TimeManager.h</title>
<!-- Node1 -->
<g id="Node000001" class="node">
<title>Node1</title>
<g id="a_Node000001"><a xlink:title="Real&#45;time clock and time synchronization management.">
<polygon fill="#999999" stroke="#666666" points="995.48,-406 878.98,-406 878.98,-386.75 995.48,-386.75 995.48,-406"/>
<text xml:space="preserve" text-anchor="middle" x="937.23" y="-392.5" font-family="Helvetica,sans-Serif" font-size="10.00">include/TimeManager.h</text>
</a>
</g>
</g>
<!-- Node2 -->
<g id="Node000002" class="node">
<title>Node2</title>
<g id="a_Node000002"><a xlink:href="_logger_manager_8h.html" target="_top" xlink:title="Comprehensive data and event logging system for temperature monitoring.">
<polygon fill="white" stroke="#666666" points="751.23,-350.75 627.23,-350.75 627.23,-331.5 751.23,-331.5 751.23,-350.75"/>
<text xml:space="preserve" text-anchor="middle" x="689.23" y="-337.25" font-family="Helvetica,sans-Serif" font-size="10.00">include/LoggerManager.h</text>
</a>
</g>
</g>
<!-- Node1&#45;&gt;Node2 -->
<g id="edge1_Node000001_Node000002" class="edge">
<title>Node1&#45;&gt;Node2</title>
<g id="a_edge1_Node000001_Node000002"><a xlink:title=" ">
<path fill="none" stroke="#63b8ff" d="M883.72,-383.88C838.1,-374.09 773.43,-360.2 731.4,-351.18"/>
<polygon fill="#63b8ff" stroke="#63b8ff" points="882.89,-387.29 893.4,-385.96 884.35,-380.44 882.89,-387.29"/>
</a>
</g>
</g>
<!-- Node9 -->
<g id="Node000009" class="node">
<title>Node9</title>
<g id="a_Node000009"><a xlink:href="main_8cpp.html" target="_top" xlink:title="Main application entry point for Industrial Temperature Monitoring System.">
<polygon fill="white" stroke="#666666" points="795.35,-19.25 723.1,-19.25 723.1,0 795.35,0 795.35,-19.25"/>
<text xml:space="preserve" text-anchor="middle" x="759.23" y="-5.75" font-family="Helvetica,sans-Serif" font-size="10.00">src/main.cpp</text>
</a>
</g>
</g>
<!-- Node1&#45;&gt;Node9 -->
<g id="edge38_Node000001_Node000009" class="edge">
<title>Node1&#45;&gt;Node9</title>
<g id="a_edge38_Node000001_Node000009"><a xlink:title=" ">
<path fill="none" stroke="#63b8ff" d="M937.23,-375.01C937.23,-353.2 937.23,-317.59 937.23,-286.88 937.23,-286.88 937.23,-286.88 937.23,-119.12 937.23,-53.44 847.75,-26.35 795.68,-16.15"/>
<polygon fill="#63b8ff" stroke="#63b8ff" points="933.73,-374.86 937.23,-384.86 940.73,-374.86 933.73,-374.86"/>
</a>
</g>
</g>
<!-- Node22 -->
<g id="Node000022" class="node">
<title>Node22</title>
<g id="a_Node000022"><a xlink:href="_time_manager_8cpp.html" target="_top" xlink:title="Implementation of real&#45;time clock and time synchronization management.">
<polygon fill="white" stroke="#666666" points="1075.1,-350.75 965.35,-350.75 965.35,-331.5 1075.1,-331.5 1075.1,-350.75"/>
<text xml:space="preserve" text-anchor="middle" x="1020.23" y="-337.25" font-family="Helvetica,sans-Serif" font-size="10.00">src/TimeManager.cpp</text>
</a>
</g>
</g>
<!-- Node1&#45;&gt;Node22 -->
<g id="edge37_Node000001_Node000022" class="edge">
<title>Node1&#45;&gt;Node22</title>
<g id="a_edge37_Node000001_Node000022"><a xlink:title=" ">
<path fill="none" stroke="#63b8ff" d="M960.72,-380.3C975.34,-370.92 993.66,-359.17 1006.08,-351.2"/>
<polygon fill="#63b8ff" stroke="#63b8ff" points="959.11,-377.18 952.58,-385.52 962.89,-383.07 959.11,-377.18"/>
</a>
</g>
</g>
<!-- Node3 -->
<g id="Node000003" class="node">
<title>Node3</title>
<g id="a_Node000003"><a xlink:href="_alarm_8h.html" target="_top" xlink:title="Alarm management system for temperature monitoring.">
<polygon fill="white" stroke="#666666" points="730.98,-240.25 647.48,-240.25 647.48,-221 730.98,-221 730.98,-240.25"/>
<text xml:space="preserve" text-anchor="middle" x="689.23" y="-226.75" font-family="Helvetica,sans-Serif" font-size="10.00">include/Alarm.h</text>
</a>
</g>
</g>
<!-- Node2&#45;&gt;Node3 -->
<g id="edge2_Node000002_Node000003" class="edge">
<title>Node2&#45;&gt;Node3</title>
<g id="a_edge2_Node000002_Node000003"><a xlink:title=" ">
<path fill="none" stroke="#63b8ff" d="M689.23,-319.78C689.23,-296.05 689.23,-257.89 689.23,-240.63"/>
<polygon fill="#63b8ff" stroke="#63b8ff" points="685.73,-319.73 689.23,-329.73 692.73,-319.73 685.73,-319.73"/>
</a>
</g>
</g>
<!-- Node6 -->
<g id="Node000006" class="node">
<title>Node6</title>
<g id="a_Node000006"><a xlink:href="_config_manager_8h.html" target="_top" xlink:title="Configuration management system for temperature monitoring device.">
<polygon fill="white" stroke="#666666" points="190.85,-74.5 67.6,-74.5 67.6,-55.25 190.85,-55.25 190.85,-74.5"/>
<text xml:space="preserve" text-anchor="middle" x="129.23" y="-61" font-family="Helvetica,sans-Serif" font-size="10.00">include/ConfigManager.h</text>
</a>
</g>
</g>
<!-- Node2&#45;&gt;Node6 -->
<g id="edge17_Node000002_Node000006" class="edge">
<title>Node2&#45;&gt;Node6</title>
<g id="a_edge17_Node000002_Node000006"><a xlink:title=" ">
<path fill="none" stroke="#63b8ff" d="M615.55,-336.16C437.84,-325.62 0.23,-293.39 0.23,-231.62 0.23,-231.62 0.23,-231.62 0.23,-174.38 0.23,-144.76 -0.68,-132.43 19.23,-110.5 35.71,-92.34 60.64,-81.43 82.6,-74.94"/>
<polygon fill="#63b8ff" stroke="#63b8ff" points="615.17,-339.64 625.36,-336.74 615.58,-332.66 615.17,-339.64"/>
</a>
</g>
</g>
<!-- Node2&#45;&gt;Node9 -->
<g id="edge36_Node000002_Node000009" class="edge">
<title>Node2&#45;&gt;Node9</title>
<g id="a_edge36_Node000002_Node000009"><a xlink:title=" ">
<path fill="none" stroke="#63b8ff" d="M762.77,-332.26C823.31,-321.22 899.23,-294.79 899.23,-231.62 899.23,-231.62 899.23,-231.62 899.23,-119.12 899.23,-64.7 832.3,-33.67 791,-19.7"/>
<polygon fill="#63b8ff" stroke="#63b8ff" points="762.43,-328.77 753.16,-333.89 763.6,-335.67 762.43,-328.77"/>
</a>
</g>
</g>
<!-- Node11 -->
<g id="Node000011" class="node">
<title>Node11</title>
<g id="a_Node000011"><a xlink:href="_logger_manager_8cpp.html" target="_top" xlink:title="Implementation of data logging and event management system.">
<polygon fill="white" stroke="#666666" points="145.85,-129.75 28.6,-129.75 28.6,-110.5 145.85,-110.5 145.85,-129.75"/>
<text xml:space="preserve" text-anchor="middle" x="87.23" y="-116.25" font-family="Helvetica,sans-Serif" font-size="10.00">src/LoggerManager.cpp</text>
</a>
</g>
</g>
<!-- Node2&#45;&gt;Node11 -->
<g id="edge35_Node000002_Node000011" class="edge">
<title>Node2&#45;&gt;Node11</title>
<g id="a_edge35_Node000002_Node000011"><a xlink:title=" ">
<path fill="none" stroke="#63b8ff" d="M615.75,-334.45C483.99,-323.06 214.19,-293.78 138.23,-240.25 100.35,-213.55 90.41,-152.69 87.97,-129.93"/>
<polygon fill="#63b8ff" stroke="#63b8ff" points="615.14,-337.92 625.4,-335.28 615.73,-330.94 615.14,-337.92"/>
</a>
</g>
</g>
<!-- Node14 -->
<g id="Node000014" class="node">
<title>Node14</title>
<g id="a_Node000014"><a xlink:href="_alarm_8cpp.html" target="_top" xlink:title="Implementation of alarm management system for temperature monitoring.">
<polygon fill="white" stroke="#666666" points="871.6,-185 794.85,-185 794.85,-165.75 871.6,-165.75 871.6,-185"/>
<text xml:space="preserve" text-anchor="middle" x="833.23" y="-171.5" font-family="Helvetica,sans-Serif" font-size="10.00">src/Alarm.cpp</text>
</a>
</g>
</g>
<!-- Node2&#45;&gt;Node14 -->
<g id="edge34_Node000002_Node000014" class="edge">
<title>Node2&#45;&gt;Node14</title>
<g id="a_edge34_Node000002_Node000014"><a xlink:title=" ">
<path fill="none" stroke="#63b8ff" d="M707.78,-323.54C716.65,-315.35 727.26,-305.18 736.23,-295.5 772.48,-256.37 811.29,-205.67 826.54,-185.37"/>
<polygon fill="#63b8ff" stroke="#63b8ff" points="705.47,-320.91 700.42,-330.23 710.18,-326.09 705.47,-320.91"/>
</a>
</g>
</g>
<!-- Node15 -->
<g id="Node000015" class="node">
<title>Node15</title>
<g id="a_Node000015"><a xlink:href="_indicator_interface_8h.html" target="_top" xlink:title="Hardware interface for PCF8575 I/O expander and SH1106 OLED display.">
<polygon fill="white" stroke="#666666" points="308.1,-240.25 174.35,-240.25 174.35,-221 308.1,-221 308.1,-240.25"/>
<text xml:space="preserve" text-anchor="middle" x="241.23" y="-226.75" font-family="Helvetica,sans-Serif" font-size="10.00">include/IndicatorInterface.h</text>
</a>
</g>
</g>
<!-- Node2&#45;&gt;Node15 -->
<g id="edge18_Node000002_Node000015" class="edge">
<title>Node2&#45;&gt;Node15</title>
<g id="a_edge18_Node000002_Node000015"><a xlink:title=" ">
<path fill="none" stroke="#63b8ff" d="M615.61,-331.32C561.59,-324.02 486.7,-312.13 422.23,-295.5 363.34,-280.31 296.43,-254.32 262.86,-240.64"/>
<polygon fill="#63b8ff" stroke="#63b8ff" points="614.94,-334.77 625.31,-332.61 615.86,-327.83 614.94,-334.77"/>
</a>
</g>
</g>
<!-- Node17 -->
<g id="Node000017" class="node">
<title>Node17</title>
<g id="a_Node000017"><a xlink:href="_measurement_point_8h.html" target="_top" xlink:title="Measurement point abstraction for temperature monitoring system.">
<polygon fill="white" stroke="#666666" points="571.1,-295.5 431.35,-295.5 431.35,-276.25 571.1,-276.25 571.1,-295.5"/>
<text xml:space="preserve" text-anchor="middle" x="501.23" y="-282" font-family="Helvetica,sans-Serif" font-size="10.00">include/MeasurementPoint.h</text>
</a>
</g>
</g>
<!-- Node2&#45;&gt;Node17 -->
<g id="edge22_Node000002_Node000017" class="edge">
<title>Node2&#45;&gt;Node17</title>
<g id="a_edge22_Node000002_Node000017"><a xlink:title=" ">
<path fill="none" stroke="#63b8ff" d="M646.67,-328.07C612.24,-318.32 564.53,-304.8 533.28,-295.95"/>
<polygon fill="#63b8ff" stroke="#63b8ff" points="645.3,-331.32 655.88,-330.68 647.21,-324.59 645.3,-331.32"/>
</a>
</g>
</g>
<!-- Node19 -->
<g id="Node000019" class="node">
<title>Node19</title>
<g id="a_Node000019"><a xlink:href="_temp_modbus_server_8h.html" target="_top" xlink:title="Modbus RTU server for temperature monitoring system.">
<polygon fill="white" stroke="#666666" points="776.35,-185 632.1,-185 632.1,-165.75 776.35,-165.75 776.35,-185"/>
<text xml:space="preserve" text-anchor="middle" x="704.23" y="-171.5" font-family="Helvetica,sans-Serif" font-size="10.00">include/TempModbusServer.h</text>
</a>
</g>
</g>
<!-- Node2&#45;&gt;Node19 -->
<g id="edge33_Node000002_Node000019" class="edge">
<title>Node2&#45;&gt;Node19</title>
<g id="a_edge33_Node000002_Node000019"><a xlink:title=" ">
<path fill="none" stroke="#63b8ff" d="M702.02,-321.72C714.58,-302.43 732.89,-270.76 740.23,-240.25 742.23,-231.93 743.08,-229.07 740.23,-221 735.19,-206.73 723.44,-193.68 714.73,-185.42"/>
<polygon fill="#63b8ff" stroke="#63b8ff" points="699.25,-319.56 696.58,-329.81 705.06,-323.46 699.25,-319.56"/>
</a>
</g>
</g>
<!-- Node4 -->
<g id="Node000004" class="node">
<title>Node4</title>
<g id="a_Node000004"><a xlink:href="_temperature_controller_8h.html" target="_top" xlink:title="Central temperature monitoring and control system.">
<polygon fill="white" stroke="#666666" points="450.85,-185 297.6,-185 297.6,-165.75 450.85,-165.75 450.85,-185"/>
<text xml:space="preserve" text-anchor="middle" x="374.23" y="-171.5" font-family="Helvetica,sans-Serif" font-size="10.00">include/TemperatureController.h</text>
</a>
</g>
</g>
<!-- Node3&#45;&gt;Node4 -->
<g id="edge3_Node000003_Node000004" class="edge">
<title>Node3&#45;&gt;Node4</title>
<g id="a_edge3_Node000003_Node000004"><a xlink:title=" ">
<path fill="none" stroke="#63b8ff" d="M635.97,-220.62C578.07,-210.83 486.08,-195.28 427.99,-185.46"/>
<polygon fill="#63b8ff" stroke="#63b8ff" points="635.14,-224.03 645.58,-222.25 636.3,-217.13 635.14,-224.03"/>
</a>
</g>
</g>
<!-- Node3&#45;&gt;Node14 -->
<g id="edge16_Node000003_Node000014" class="edge">
<title>Node3&#45;&gt;Node14</title>
<g id="a_edge16_Node000003_Node000014"><a xlink:title=" ">
<path fill="none" stroke="#63b8ff" d="M724.25,-216.67C750.4,-207 785.47,-194.04 808.68,-185.45"/>
<polygon fill="#63b8ff" stroke="#63b8ff" points="723.24,-213.32 715.08,-220.07 725.67,-219.88 723.24,-213.32"/>
</a>
</g>
</g>
<!-- Node5 -->
<g id="Node000005" class="node">
<title>Node5</title>
<g id="a_Node000005"><a xlink:href="_c_s_v_config_manager_8h.html" target="_top" xlink:title="CSV configuration import/export manager for measurement points and alarms.">
<polygon fill="white" stroke="#666666" points="346.35,-129.75 202.1,-129.75 202.1,-110.5 346.35,-110.5 346.35,-129.75"/>
<text xml:space="preserve" text-anchor="middle" x="274.23" y="-116.25" font-family="Helvetica,sans-Serif" font-size="10.00">include/CSVConfigManager.h</text>
</a>
</g>
</g>
<!-- Node4&#45;&gt;Node5 -->
<g id="edge4_Node000004_Node000005" class="edge">
<title>Node4&#45;&gt;Node5</title>
<g id="a_edge4_Node000004_Node000005"><a xlink:title=" ">
<path fill="none" stroke="#63b8ff" d="M347.19,-159.98C329.38,-150.49 306.6,-138.36 291.27,-130.2"/>
<polygon fill="#63b8ff" stroke="#63b8ff" points="345.46,-163.02 355.93,-164.63 348.75,-156.84 345.46,-163.02"/>
</a>
</g>
</g>
<!-- Node4&#45;&gt;Node6 -->
<g id="edge10_Node000004_Node000006" class="edge">
<title>Node4&#45;&gt;Node6</title>
<g id="a_edge10_Node000004_Node000006"><a xlink:title=" ">
<path fill="none" stroke="#63b8ff" d="M288.56,-163.12C257.16,-156.51 222.23,-146.09 193.23,-129.75 168.06,-115.57 146.01,-88.78 135.6,-74.83"/>
<polygon fill="#63b8ff" stroke="#63b8ff" points="287.52,-166.48 298.01,-165.01 288.89,-159.62 287.52,-166.48"/>
</a>
</g>
</g>
<!-- Node8 -->
<g id="Node000008" class="node">
<title>Node8</title>
<g id="a_Node000008"><a xlink:href="_temperature_controller_8cpp.html" target="_top" xlink:title="Implementation of the central temperature monitoring and control system.">
<polygon fill="white" stroke="#666666" points="400.48,-19.25 253.98,-19.25 253.98,0 400.48,0 400.48,-19.25"/>
<text xml:space="preserve" text-anchor="middle" x="327.23" y="-5.75" font-family="Helvetica,sans-Serif" font-size="10.00">src/TemperatureController.cpp</text>
</a>
</g>
</g>
<!-- Node4&#45;&gt;Node8 -->
<g id="edge14_Node000004_Node000008" class="edge">
<title>Node4&#45;&gt;Node8</title>
<g id="a_edge14_Node000004_Node000008"><a xlink:title=" ">
<path fill="none" stroke="#63b8ff" d="M373.46,-154.16C371.99,-129.95 367.71,-88.49 355.23,-55.25 350.21,-41.89 340.91,-28.24 334.41,-19.62"/>
<polygon fill="#63b8ff" stroke="#63b8ff" points="369.95,-154.07 373.94,-163.89 376.94,-153.73 369.95,-154.07"/>
</a>
</g>
</g>
<!-- Node4&#45;&gt;Node9 -->
<g id="edge15_Node000004_Node000009" class="edge">
<title>Node4&#45;&gt;Node9</title>
<g id="a_edge15_Node000004_Node000009"><a xlink:title=" ">
<path fill="none" stroke="#63b8ff" d="M424.1,-162.4C454.4,-154.5 493.61,-143.14 527.23,-129.75 530.02,-128.64 688.03,-47.29 741.65,-19.68"/>
<polygon fill="#63b8ff" stroke="#63b8ff" points="423.23,-159.01 414.42,-164.88 424.97,-165.79 423.23,-159.01"/>
</a>
</g>
</g>
<!-- Node4&#45;&gt;Node11 -->
<g id="edge11_Node000004_Node000011" class="edge">
<title>Node4&#45;&gt;Node11</title>
<g id="a_edge11_Node000004_Node000011"><a xlink:title=" ">
<path fill="none" stroke="#63b8ff" d="M313.97,-163.19C261.1,-153.39 185.18,-139.3 136.04,-130.18"/>
<polygon fill="#63b8ff" stroke="#63b8ff" points="313.26,-166.62 323.73,-165.01 314.54,-159.74 313.26,-166.62"/>
</a>
</g>
</g>
<!-- Node12 -->
<g id="Node000012" class="node">
<title>Node12</title>
<g id="a_Node000012"><a xlink:href="_m_q_t_t_manager_8cpp.html" target="_top" xlink:title="Implementation of MQTT Manager using 256dpi/MQTT library.">
<polygon fill="white" stroke="#666666" points="518.1,-129.75 402.35,-129.75 402.35,-110.5 518.1,-110.5 518.1,-129.75"/>
<text xml:space="preserve" text-anchor="middle" x="460.23" y="-116.25" font-family="Helvetica,sans-Serif" font-size="10.00">src/MQTTManager.cpp</text>
</a>
</g>
</g>
<!-- Node4&#45;&gt;Node12 -->
<g id="edge12_Node000004_Node000012" class="edge">
<title>Node4&#45;&gt;Node12</title>
<g id="a_edge12_Node000004_Node000012"><a xlink:title=" ">
<path fill="none" stroke="#63b8ff" d="M398.57,-159.3C413.72,-149.92 432.7,-138.17 445.57,-130.2"/>
<polygon fill="#63b8ff" stroke="#63b8ff" points="396.76,-156.3 390.1,-164.55 400.45,-162.26 396.76,-156.3"/>
</a>
</g>
</g>
<!-- Node13 -->
<g id="Node000013" class="node">
<title>Node13</title>
<g id="a_Node000013"><a xlink:href="_temp_modbus_server_8cpp.html" target="_top" xlink:title="Implementation of Modbus RTU server for temperature monitoring.">
<polygon fill="white" stroke="#666666" points="711.98,-129.75 574.48,-129.75 574.48,-110.5 711.98,-110.5 711.98,-129.75"/>
<text xml:space="preserve" text-anchor="middle" x="643.23" y="-116.25" font-family="Helvetica,sans-Serif" font-size="10.00">src/TempModbusServer.cpp</text>
</a>
</g>
</g>
<!-- Node4&#45;&gt;Node13 -->
<g id="edge13_Node000004_Node000013" class="edge">
<title>Node4&#45;&gt;Node13</title>
<g id="a_edge13_Node000004_Node000013"><a xlink:title=" ">
<path fill="none" stroke="#63b8ff" d="M431.33,-163.07C480.86,-153.27 551.61,-139.26 597.48,-130.18"/>
<polygon fill="#63b8ff" stroke="#63b8ff" points="430.78,-159.61 421.65,-164.99 432.14,-166.48 430.78,-159.61"/>
</a>
</g>
</g>
<!-- Node5&#45;&gt;Node6 -->
<g id="edge5_Node000005_Node000006" class="edge">
<title>Node5&#45;&gt;Node6</title>
<g id="a_edge5_Node000005_Node000006"><a xlink:title=" ">
<path fill="none" stroke="#63b8ff" d="M238.96,-106.17C212.63,-96.5 177.32,-83.54 153.95,-74.95"/>
<polygon fill="#63b8ff" stroke="#63b8ff" points="237.62,-109.41 248.21,-109.57 240.03,-102.84 237.62,-109.41"/>
</a>
</g>
</g>
<!-- Node10 -->
<g id="Node000010" class="node">
<title>Node10</title>
<g id="a_Node000010"><a xlink:href="_c_s_v_config_manager_8cpp.html" target="_top" xlink:title="Implementation of CSV configuration management for measurement points.">
<polygon fill="white" stroke="#666666" points="345.98,-74.5 208.48,-74.5 208.48,-55.25 345.98,-55.25 345.98,-74.5"/>
<text xml:space="preserve" text-anchor="middle" x="277.23" y="-61" font-family="Helvetica,sans-Serif" font-size="10.00">src/CSVConfigManager.cpp</text>
</a>
</g>
</g>
<!-- Node5&#45;&gt;Node10 -->
<g id="edge9_Node000005_Node000010" class="edge">
<title>Node5&#45;&gt;Node10</title>
<g id="a_edge9_Node000005_Node000010"><a xlink:title=" ">
<path fill="none" stroke="#63b8ff" d="M275.37,-98.88C275.84,-90.59 276.35,-81.42 276.72,-74.86"/>
<polygon fill="#63b8ff" stroke="#63b8ff" points="271.88,-98.64 274.81,-108.82 278.87,-99.03 271.88,-98.64"/>
</a>
</g>
</g>
<!-- Node7 -->
<g id="Node000007" class="node">
<title>Node7</title>
<g id="a_Node000007"><a xlink:href="_config_manager_8cpp.html" target="_top" xlink:title="Implementation of web&#45;based configuration management system.">
<polygon fill="white" stroke="#666666" points="187.48,-19.25 70.98,-19.25 70.98,0 187.48,0 187.48,-19.25"/>
<text xml:space="preserve" text-anchor="middle" x="129.23" y="-5.75" font-family="Helvetica,sans-Serif" font-size="10.00">src/ConfigManager.cpp</text>
</a>
</g>
</g>
<!-- Node6&#45;&gt;Node7 -->
<g id="edge6_Node000006_Node000007" class="edge">
<title>Node6&#45;&gt;Node7</title>
<g id="a_edge6_Node000006_Node000007"><a xlink:title=" ">
<path fill="none" stroke="#63b8ff" d="M129.23,-43.63C129.23,-35.34 129.23,-26.17 129.23,-19.61"/>
<polygon fill="#63b8ff" stroke="#63b8ff" points="125.73,-43.57 129.23,-53.57 132.73,-43.57 125.73,-43.57"/>
</a>
</g>
</g>
<!-- Node6&#45;&gt;Node8 -->
<g id="edge7_Node000006_Node000008" class="edge">
<title>Node6&#45;&gt;Node8</title>
<g id="a_edge7_Node000006_Node000008"><a xlink:title=" ">
<path fill="none" stroke="#63b8ff" d="M173.58,-51.95C209.87,-42.19 260.42,-28.59 293.48,-19.7"/>
<polygon fill="#63b8ff" stroke="#63b8ff" points="173.03,-48.47 164.28,-54.45 174.84,-55.23 173.03,-48.47"/>
</a>
</g>
</g>
<!-- Node6&#45;&gt;Node9 -->
<g id="edge8_Node000006_Node000009" class="edge">
<title>Node6&#45;&gt;Node9</title>
<g id="a_edge8_Node000006_Node000009"><a xlink:title=" ">
<path fill="none" stroke="#63b8ff" d="M202.21,-54.99C404.96,-34.66 635.11,-18.77 722.82,-12.98"/>
<polygon fill="#63b8ff" stroke="#63b8ff" points="202.15,-51.47 192.55,-55.96 202.85,-58.44 202.15,-51.47"/>
</a>
</g>
</g>
<!-- Node15&#45;&gt;Node4 -->
<g id="edge19_Node000015_Node000004" class="edge">
<title>Node15&#45;&gt;Node4</title>
<g id="a_edge19_Node000015_Node000004"><a xlink:title=" ">
<path fill="none" stroke="#63b8ff" d="M274.23,-216.41C298.3,-206.77 330.31,-193.96 351.56,-185.45"/>
<polygon fill="#63b8ff" stroke="#63b8ff" points="273.18,-213.06 265.19,-220.03 275.78,-219.56 273.18,-213.06"/>
</a>
</g>
</g>
<!-- Node15&#45;&gt;Node9 -->
<g id="edge21_Node000015_Node000009" class="edge">
<title>Node15&#45;&gt;Node9</title>
<g id="a_edge21_Node000015_Node000009"><a xlink:title=" ">
<path fill="none" stroke="#63b8ff" d="M319.69,-218.87C362.05,-211.77 414.81,-200.81 460.23,-185 478.11,-178.78 480.22,-171.61 498.23,-165.75 593.7,-134.7 645.16,-195.27 721.23,-129.75 754.95,-100.71 759.03,-41.79 759.32,-19.47"/>
<polygon fill="#63b8ff" stroke="#63b8ff" points="319.4,-215.37 310.09,-220.44 320.53,-222.28 319.4,-215.37"/>
</a>
</g>
</g>
<!-- Node16 -->
<g id="Node000016" class="node">
<title>Node16</title>
<g id="a_Node000016"><a xlink:href="_indicator_interface_8cpp.html" target="_top" xlink:title="Implementation of user interface with OLED display and input handling.">
<polygon fill="white" stroke="#666666" points="279.73,-185 152.73,-185 152.73,-165.75 279.73,-165.75 279.73,-185"/>
<text xml:space="preserve" text-anchor="middle" x="216.23" y="-171.5" font-family="Helvetica,sans-Serif" font-size="10.00">src/IndicatorInterface.cpp</text>
</a>
</g>
</g>
<!-- Node15&#45;&gt;Node16 -->
<g id="edge20_Node000015_Node000016" class="edge">
<title>Node15&#45;&gt;Node16</title>
<g id="a_edge20_Node000015_Node000016"><a xlink:title=" ">
<path fill="none" stroke="#63b8ff" d="M232.27,-210.54C228.24,-201.96 223.67,-192.23 220.45,-185.36"/>
<polygon fill="#63b8ff" stroke="#63b8ff" points="229.04,-211.9 236.46,-219.46 235.37,-208.92 229.04,-211.9"/>
</a>
</g>
</g>
<!-- Node17&#45;&gt;Node3 -->
<g id="edge23_Node000017_Node000003" class="edge">
<title>Node17&#45;&gt;Node3</title>
<g id="a_edge23_Node000017_Node000003"><a xlink:title=" ">
<path fill="none" stroke="#63b8ff" d="M543.79,-272.82C578.21,-263.07 625.93,-249.55 657.18,-240.7"/>
<polygon fill="#63b8ff" stroke="#63b8ff" points="543.24,-269.34 534.58,-275.43 545.15,-276.07 543.24,-269.34"/>
</a>
</g>
</g>
<!-- Node17&#45;&gt;Node4 -->
<g id="edge30_Node000017_Node000004" class="edge">
<title>Node17&#45;&gt;Node4</title>
<g id="a_edge30_Node000017_Node000004"><a xlink:title=" ">
<path fill="none" stroke="#63b8ff" d="M420.02,-278.56C395.25,-272.36 370.54,-260.94 355.23,-240.25 342.84,-223.51 357.27,-198.73 366.92,-185.5"/>
<polygon fill="#63b8ff" stroke="#63b8ff" points="419,-281.91 429.52,-280.65 420.51,-275.08 419,-281.91"/>
</a>
</g>
</g>
<!-- Node17&#45;&gt;Node11 -->
<g id="edge31_Node000017_Node000011" class="edge">
<title>Node17&#45;&gt;Node11</title>
<g id="a_edge31_Node000017_Node000011"><a xlink:title=" ">
<path fill="none" stroke="#63b8ff" d="M419.76,-281.77C334.16,-277.18 206.34,-266.12 165.23,-240.25 122.33,-213.26 98.12,-153.11 90.17,-130.21"/>
<polygon fill="#63b8ff" stroke="#63b8ff" points="419.34,-285.26 429.51,-282.28 419.7,-278.27 419.34,-285.26"/>
</a>
</g>
</g>
<!-- Node18 -->
<g id="Node000018" class="node">
<title>Node18</title>
<g id="a_Node000018"><a xlink:href="_register_map_8h.html" target="_top" xlink:title="Modbus register mapping for temperature monitoring system.">
<polygon fill="white" stroke="#666666" points="628.98,-240.25 515.48,-240.25 515.48,-221 628.98,-221 628.98,-240.25"/>
<text xml:space="preserve" text-anchor="middle" x="572.23" y="-226.75" font-family="Helvetica,sans-Serif" font-size="10.00">include/RegisterMap.h</text>
</a>
</g>
</g>
<!-- Node17&#45;&gt;Node18 -->
<g id="edge24_Node000017_Node000018" class="edge">
<title>Node17&#45;&gt;Node18</title>
<g id="a_edge24_Node000017_Node000018"><a xlink:title=" ">
<path fill="none" stroke="#63b8ff" d="M522.47,-268.94C534.87,-259.64 550.05,-248.26 560.36,-240.52"/>
<polygon fill="#63b8ff" stroke="#63b8ff" points="520.38,-266.13 514.48,-274.93 524.58,-271.73 520.38,-266.13"/>
</a>
</g>
</g>
<!-- Node21 -->
<g id="Node000021" class="node">
<title>Node21</title>
<g id="a_Node000021"><a xlink:href="_measurement_point_8cpp.html" target="_top" xlink:title="Implementation of temperature measurement point management.">
<polygon fill="white" stroke="#666666" points="497.73,-240.25 364.73,-240.25 364.73,-221 497.73,-221 497.73,-240.25"/>
<text xml:space="preserve" text-anchor="middle" x="431.23" y="-226.75" font-family="Helvetica,sans-Serif" font-size="10.00">src/MeasurementPoint.cpp</text>
</a>
</g>
</g>
<!-- Node17&#45;&gt;Node21 -->
<g id="edge32_Node000017_Node000021" class="edge">
<title>Node17&#45;&gt;Node21</title>
<g id="a_edge32_Node000017_Node000021"><a xlink:title=" ">
<path fill="none" stroke="#63b8ff" d="M480.28,-268.94C468.06,-259.64 453.09,-248.26 442.93,-240.52"/>
<polygon fill="#63b8ff" stroke="#63b8ff" points="478.07,-271.66 488.15,-274.93 482.31,-266.09 478.07,-271.66"/>
</a>
</g>
</g>
<!-- Node18&#45;&gt;Node4 -->
<g id="edge28_Node000018_Node000004" class="edge">
<title>Node18&#45;&gt;Node4</title>
<g id="a_edge28_Node000018_Node000004"><a xlink:title=" ">
<path fill="none" stroke="#63b8ff" d="M527.87,-217.7C491.58,-207.94 441.04,-194.34 407.98,-185.45"/>
<polygon fill="#63b8ff" stroke="#63b8ff" points="526.61,-220.98 537.18,-220.2 528.43,-214.22 526.61,-220.98"/>
</a>
</g>
</g>
<!-- Node18&#45;&gt;Node19 -->
<g id="edge25_Node000018_Node000019" class="edge">
<title>Node18&#45;&gt;Node19</title>
<g id="a_edge25_Node000018_Node000019"><a xlink:title=" ">
<path fill="none" stroke="#63b8ff" d="M604.98,-216.41C628.87,-206.77 660.64,-193.96 681.73,-185.45"/>
<polygon fill="#63b8ff" stroke="#63b8ff" points="603.99,-213.04 596.02,-220.03 606.61,-219.53 603.99,-213.04"/>
</a>
</g>
</g>
<!-- Node20 -->
<g id="Node000020" class="node">
<title>Node20</title>
<g id="a_Node000020"><a xlink:href="_register_map_8cpp.html" target="_top" xlink:title="Implementation of Modbus register mapping for temperature monitoring.">
<polygon fill="white" stroke="#666666" points="613.6,-185 506.85,-185 506.85,-165.75 613.6,-165.75 613.6,-185"/>
<text xml:space="preserve" text-anchor="middle" x="560.23" y="-171.5" font-family="Helvetica,sans-Serif" font-size="10.00">src/RegisterMap.cpp</text>
</a>
</g>
</g>
<!-- Node18&#45;&gt;Node20 -->
<g id="edge29_Node000018_Node000020" class="edge">
<title>Node18&#45;&gt;Node20</title>
<g id="a_edge29_Node000018_Node000020"><a xlink:title=" ">
<path fill="none" stroke="#63b8ff" d="M567.73,-209.67C565.85,-201.3 563.75,-192 562.25,-185.36"/>
<polygon fill="#63b8ff" stroke="#63b8ff" points="564.3,-210.37 569.91,-219.36 571.13,-208.83 564.3,-210.37"/>
</a>
</g>
</g>
<!-- Node19&#45;&gt;Node9 -->
<g id="edge27_Node000019_Node000009" class="edge">
<title>Node19&#45;&gt;Node9</title>
<g id="a_edge27_Node000019_Node000009"><a xlink:title=" ">
<path fill="none" stroke="#63b8ff" d="M728.56,-159.11C738.36,-151.57 748.65,-141.55 754.23,-129.75 772.03,-92.14 764.96,-40.15 761.1,-19.55"/>
<polygon fill="#63b8ff" stroke="#63b8ff" points="726.84,-156.04 720.72,-164.68 730.9,-161.75 726.84,-156.04"/>
</a>
</g>
</g>
<!-- Node19&#45;&gt;Node13 -->
<g id="edge26_Node000019_Node000013" class="edge">
<title>Node19&#45;&gt;Node13</title>
<g id="a_edge26_Node000019_Node000013"><a xlink:title=" ">
<path fill="none" stroke="#63b8ff" d="M685.34,-157.89C674.81,-148.69 662.1,-137.6 653.42,-130.02"/>
<polygon fill="#63b8ff" stroke="#63b8ff" points="682.9,-160.41 692.74,-164.35 687.51,-155.13 682.9,-160.41"/>
</a>
</g>
</g>
</g>
</svg>
