<?xml version="1.0" encoding="UTF-8" standalone="no"?>
<!DOCTYPE svg PUBLIC "-//W3C//DTD SVG 1.1//EN"
 "http://www.w3.org/Graphics/SVG/1.1/DTD/svg11.dtd">
<!-- Generated by graphviz version 13.1.0 (20250701.0955)
 -->
<!-- Title: include/TimeManager.h Pages: 1 -->
<svg width="1066pt" height="414pt"
 viewBox="0.00 0.00 1066.00 414.00" xmlns="http://www.w3.org/2000/svg" xmlns:xlink="http://www.w3.org/1999/xlink">
<g id="graph0" class="graph" transform="scale(1 1) rotate(0) translate(4 410)">
<title>include/TimeManager.h</title>
<!-- Node1 -->
<g id="Node000001" class="node">
<title>Node1</title>
<g id="a_Node000001"><a xlink:title=" ">
<polygon fill="#999999" stroke="#666666" points="977.95,-406 861.45,-406 861.45,-386.75 977.95,-386.75 977.95,-406"/>
<text xml:space="preserve" text-anchor="middle" x="919.7" y="-392.5" font-family="Helvetica,sans-Serif" font-size="10.00">include/TimeManager.h</text>
</a>
</g>
</g>
<!-- Node2 -->
<g id="Node000002" class="node">
<title>Node2</title>
<g id="a_Node000002"><a xlink:href="_logger_manager_8h.html" target="_top" xlink:title="Comprehensive data and event logging system for temperature monitoring.">
<polygon fill="white" stroke="#666666" points="716.7,-350.75 592.7,-350.75 592.7,-331.5 716.7,-331.5 716.7,-350.75"/>
<text xml:space="preserve" text-anchor="middle" x="654.7" y="-337.25" font-family="Helvetica,sans-Serif" font-size="10.00">include/LoggerManager.h</text>
</a>
</g>
</g>
<!-- Node1&#45;&gt;Node2 -->
<g id="edge1_Node000001_Node000002" class="edge">
<title>Node1&#45;&gt;Node2</title>
<g id="a_edge1_Node000001_Node000002"><a xlink:title=" ">
<path fill="none" stroke="#63b8ff" d="M863.44,-384.07C814.65,-374.27 744.95,-360.26 699.76,-351.18"/>
<polygon fill="#63b8ff" stroke="#63b8ff" points="862.47,-387.44 872.96,-385.98 863.85,-380.58 862.47,-387.44"/>
</a>
</g>
</g>
<!-- Node8 -->
<g id="Node000008" class="node">
<title>Node8</title>
<g id="a_Node000008"><a xlink:href="main_8cpp.html" target="_top" xlink:title="Main application entry point for Industrial Temperature Monitoring System.">
<polygon fill="white" stroke="#666666" points="631.82,-19.25 559.57,-19.25 559.57,0 631.82,0 631.82,-19.25"/>
<text xml:space="preserve" text-anchor="middle" x="595.7" y="-5.75" font-family="Helvetica,sans-Serif" font-size="10.00">src/main.cpp</text>
</a>
</g>
</g>
<!-- Node1&#45;&gt;Node8 -->
<g id="edge35_Node000001_Node000008" class="edge">
<title>Node1&#45;&gt;Node8</title>
<g id="a_edge35_Node000001_Node000008"><a xlink:title=" ">
<path fill="none" stroke="#63b8ff" d="M919.7,-375.01C919.7,-353.2 919.7,-317.59 919.7,-286.88 919.7,-286.88 919.7,-286.88 919.7,-119.12 919.7,-70.07 874.82,-74.48 829.7,-55.25 763.5,-27.04 679.19,-16.56 631.97,-12.74"/>
<polygon fill="#63b8ff" stroke="#63b8ff" points="916.2,-374.86 919.7,-384.86 923.2,-374.86 916.2,-374.86"/>
</a>
</g>
</g>
<!-- Node21 -->
<g id="Node000021" class="node">
<title>Node21</title>
<g id="a_Node000021"><a xlink:href="_time_manager_8cpp.html" target="_top" xlink:title=" ">
<polygon fill="white" stroke="#666666" points="1057.57,-350.75 947.82,-350.75 947.82,-331.5 1057.57,-331.5 1057.57,-350.75"/>
<text xml:space="preserve" text-anchor="middle" x="1002.7" y="-337.25" font-family="Helvetica,sans-Serif" font-size="10.00">src/TimeManager.cpp</text>
</a>
</g>
</g>
<!-- Node1&#45;&gt;Node21 -->
<g id="edge34_Node000001_Node000021" class="edge">
<title>Node1&#45;&gt;Node21</title>
<g id="a_edge34_Node000001_Node000021"><a xlink:title=" ">
<path fill="none" stroke="#63b8ff" d="M943.19,-380.3C957.81,-370.92 976.13,-359.17 988.55,-351.2"/>
<polygon fill="#63b8ff" stroke="#63b8ff" points="941.58,-377.18 935.05,-385.52 945.36,-383.07 941.58,-377.18"/>
</a>
</g>
</g>
<!-- Node3 -->
<g id="Node000003" class="node">
<title>Node3</title>
<g id="a_Node000003"><a xlink:href="_alarm_8h.html" target="_top" xlink:title="Alarm management system for temperature monitoring.">
<polygon fill="white" stroke="#666666" points="696.45,-240.25 612.95,-240.25 612.95,-221 696.45,-221 696.45,-240.25"/>
<text xml:space="preserve" text-anchor="middle" x="654.7" y="-226.75" font-family="Helvetica,sans-Serif" font-size="10.00">include/Alarm.h</text>
</a>
</g>
</g>
<!-- Node2&#45;&gt;Node3 -->
<g id="edge2_Node000002_Node000003" class="edge">
<title>Node2&#45;&gt;Node3</title>
<g id="a_edge2_Node000002_Node000003"><a xlink:title=" ">
<path fill="none" stroke="#63b8ff" d="M654.7,-319.78C654.7,-296.05 654.7,-257.89 654.7,-240.63"/>
<polygon fill="#63b8ff" stroke="#63b8ff" points="651.2,-319.73 654.7,-329.73 658.2,-319.73 651.2,-319.73"/>
</a>
</g>
</g>
<!-- Node6 -->
<g id="Node000006" class="node">
<title>Node6</title>
<g id="a_Node000006"><a xlink:href="_config_manager_8h.html" target="_top" xlink:title="Configuration management system for temperature monitoring device.">
<polygon fill="white" stroke="#666666" points="294.32,-74.5 171.07,-74.5 171.07,-55.25 294.32,-55.25 294.32,-74.5"/>
<text xml:space="preserve" text-anchor="middle" x="232.7" y="-61" font-family="Helvetica,sans-Serif" font-size="10.00">include/ConfigManager.h</text>
</a>
</g>
</g>
<!-- Node2&#45;&gt;Node6 -->
<g id="edge14_Node000002_Node000006" class="edge">
<title>Node2&#45;&gt;Node6</title>
<g id="a_edge14_Node000002_Node000006"><a xlink:title=" ">
<path fill="none" stroke="#63b8ff" d="M581.26,-338.52C488.23,-335.26 323.43,-325.38 185.7,-295.5 100.69,-277.06 0.7,-318.61 0.7,-231.62 0.7,-231.62 0.7,-231.62 0.7,-174.38 0.7,-144.76 -2.09,-130.56 19.7,-110.5 41.41,-90.51 115.97,-78.3 170.77,-71.81"/>
<polygon fill="#63b8ff" stroke="#63b8ff" points="580.9,-342.01 591.01,-338.84 581.13,-335.01 580.9,-342.01"/>
</a>
</g>
</g>
<!-- Node2&#45;&gt;Node8 -->
<g id="edge33_Node000002_Node000008" class="edge">
<title>Node2&#45;&gt;Node8</title>
<g id="a_edge33_Node000002_Node000008"><a xlink:title=" ">
<path fill="none" stroke="#63b8ff" d="M728.3,-335.04C794.6,-325.98 881.7,-300.89 881.7,-231.62 881.7,-231.62 881.7,-231.62 881.7,-119.12 881.7,-66.35 709.31,-30.12 632.21,-16.56"/>
<polygon fill="#63b8ff" stroke="#63b8ff" points="728.01,-331.55 718.53,-336.27 728.89,-338.49 728.01,-331.55"/>
</a>
</g>
</g>
<!-- Node10 -->
<g id="Node000010" class="node">
<title>Node10</title>
<g id="a_Node000010"><a xlink:href="_logger_manager_8cpp.html" target="_top" xlink:title=" ">
<polygon fill="white" stroke="#666666" points="146.32,-129.75 29.07,-129.75 29.07,-110.5 146.32,-110.5 146.32,-129.75"/>
<text xml:space="preserve" text-anchor="middle" x="87.7" y="-116.25" font-family="Helvetica,sans-Serif" font-size="10.00">src/LoggerManager.cpp</text>
</a>
</g>
</g>
<!-- Node2&#45;&gt;Node10 -->
<g id="edge32_Node000002_Node000010" class="edge">
<title>Node2&#45;&gt;Node10</title>
<g id="a_edge32_Node000002_Node000010"><a xlink:title=" ">
<path fill="none" stroke="#63b8ff" d="M581.07,-335.71C449.23,-326.37 180.11,-300.31 110.7,-240.25 78.04,-212 82.94,-152.6 86.18,-130.06"/>
<polygon fill="#63b8ff" stroke="#63b8ff" points="580.52,-339.18 590.73,-336.38 581,-332.2 580.52,-339.18"/>
</a>
</g>
</g>
<!-- Node12 -->
<g id="Node000012" class="node">
<title>Node12</title>
<g id="a_Node000012"><a xlink:href="_alarm_8cpp.html" target="_top" xlink:title="Implementation of alarm management system for temperature monitoring.">
<polygon fill="white" stroke="#666666" points="854.07,-185 777.32,-185 777.32,-165.75 854.07,-165.75 854.07,-185"/>
<text xml:space="preserve" text-anchor="middle" x="815.7" y="-171.5" font-family="Helvetica,sans-Serif" font-size="10.00">src/Alarm.cpp</text>
</a>
</g>
</g>
<!-- Node2&#45;&gt;Node12 -->
<g id="edge31_Node000002_Node000012" class="edge">
<title>Node2&#45;&gt;Node12</title>
<g id="a_edge31_Node000002_Node000012"><a xlink:title=" ">
<path fill="none" stroke="#63b8ff" d="M672.91,-323.22C681.7,-314.96 692.35,-304.81 701.7,-295.5 742.06,-255.3 788.56,-205.62 807.26,-185.48"/>
<polygon fill="#63b8ff" stroke="#63b8ff" points="670.57,-320.61 665.66,-330 675.35,-325.73 670.57,-320.61"/>
</a>
</g>
</g>
<!-- Node13 -->
<g id="Node000013" class="node">
<title>Node13</title>
<g id="a_Node000013"><a xlink:href="_indicator_interface_8h.html" target="_top" xlink:title="Hardware interface for PCF8575 I/O expander and SH1106 OLED display.">
<polygon fill="white" stroke="#666666" points="273.57,-240.25 139.82,-240.25 139.82,-221 273.57,-221 273.57,-240.25"/>
<text xml:space="preserve" text-anchor="middle" x="206.7" y="-226.75" font-family="Helvetica,sans-Serif" font-size="10.00">include/IndicatorInterface.h</text>
</a>
</g>
</g>
<!-- Node2&#45;&gt;Node13 -->
<g id="edge15_Node000002_Node000013" class="edge">
<title>Node2&#45;&gt;Node13</title>
<g id="a_edge15_Node000002_Node000013"><a xlink:title=" ">
<path fill="none" stroke="#63b8ff" d="M584.69,-329.18C536.81,-321.17 472.06,-309.33 415.7,-295.5 349,-279.14 272.14,-253.98 232.83,-240.65"/>
<polygon fill="#63b8ff" stroke="#63b8ff" points="583.93,-332.6 594.37,-330.78 585.08,-325.69 583.93,-332.6"/>
</a>
</g>
</g>
<!-- Node15 -->
<g id="Node000015" class="node">
<title>Node15</title>
<g id="a_Node000015"><a xlink:href="_measurement_point_8h.html" target="_top" xlink:title="Measurement point abstraction for temperature monitoring system.">
<polygon fill="white" stroke="#666666" points="564.57,-295.5 424.82,-295.5 424.82,-276.25 564.57,-276.25 564.57,-295.5"/>
<text xml:space="preserve" text-anchor="middle" x="494.7" y="-282" font-family="Helvetica,sans-Serif" font-size="10.00">include/MeasurementPoint.h</text>
</a>
</g>
</g>
<!-- Node2&#45;&gt;Node15 -->
<g id="edge19_Node000002_Node000015" class="edge">
<title>Node2&#45;&gt;Node15</title>
<g id="a_edge19_Node000002_Node000015"><a xlink:title=" ">
<path fill="none" stroke="#63b8ff" d="M616.94,-327.56C587.78,-317.85 548.11,-304.65 521.97,-295.95"/>
<polygon fill="#63b8ff" stroke="#63b8ff" points="615.53,-330.78 626.12,-330.61 617.74,-324.14 615.53,-330.78"/>
</a>
</g>
</g>
<!-- Node17 -->
<g id="Node000017" class="node">
<title>Node17</title>
<g id="a_Node000017"><a xlink:href="_temp_modbus_server_8h.html" target="_top" xlink:title=" ">
<polygon fill="white" stroke="#666666" points="758.82,-185 614.57,-185 614.57,-165.75 758.82,-165.75 758.82,-185"/>
<text xml:space="preserve" text-anchor="middle" x="686.7" y="-171.5" font-family="Helvetica,sans-Serif" font-size="10.00">include/TempModbusServer.h</text>
</a>
</g>
</g>
<!-- Node2&#45;&gt;Node17 -->
<g id="edge30_Node000002_Node000017" class="edge">
<title>Node2&#45;&gt;Node17</title>
<g id="a_edge30_Node000002_Node000017"><a xlink:title=" ">
<path fill="none" stroke="#63b8ff" d="M667.49,-321.72C680.05,-302.43 698.36,-270.76 705.7,-240.25 710.46,-220.45 699.69,-197.69 692.5,-185.39"/>
<polygon fill="#63b8ff" stroke="#63b8ff" points="664.72,-319.56 662.05,-329.81 670.53,-323.46 664.72,-319.56"/>
</a>
</g>
</g>
<!-- Node4 -->
<g id="Node000004" class="node">
<title>Node4</title>
<g id="a_Node000004"><a xlink:href="_temperature_controller_8h.html" target="_top" xlink:title=" ">
<polygon fill="white" stroke="#666666" points="433.32,-185 280.07,-185 280.07,-165.75 433.32,-165.75 433.32,-185"/>
<text xml:space="preserve" text-anchor="middle" x="356.7" y="-171.5" font-family="Helvetica,sans-Serif" font-size="10.00">include/TemperatureController.h</text>
</a>
</g>
</g>
<!-- Node3&#45;&gt;Node4 -->
<g id="edge3_Node000003_Node000004" class="edge">
<title>Node3&#45;&gt;Node4</title>
<g id="a_edge3_Node000003_Node000004"><a xlink:title=" ">
<path fill="none" stroke="#63b8ff" d="M601.39,-220.1C546.48,-210.29 461.51,-195.1 407.52,-185.46"/>
<polygon fill="#63b8ff" stroke="#63b8ff" points="600.68,-223.53 611.14,-221.84 601.92,-216.64 600.68,-223.53"/>
</a>
</g>
</g>
<!-- Node3&#45;&gt;Node12 -->
<g id="edge13_Node000003_Node000012" class="edge">
<title>Node3&#45;&gt;Node12</title>
<g id="a_edge13_Node000003_Node000012"><a xlink:title=" ">
<path fill="none" stroke="#63b8ff" d="M692.69,-217.06C722.04,-207.35 761.95,-194.15 788.25,-185.45"/>
<polygon fill="#63b8ff" stroke="#63b8ff" points="691.84,-213.65 683.45,-220.12 694.04,-220.3 691.84,-213.65"/>
</a>
</g>
</g>
<!-- Node5 -->
<g id="Node000005" class="node">
<title>Node5</title>
<g id="a_Node000005"><a xlink:href="_c_s_v_config_manager_8h.html" target="_top" xlink:title="CSV configuration import/export manager for measurement points and alarms.">
<polygon fill="white" stroke="#666666" points="510.82,-129.75 366.57,-129.75 366.57,-110.5 510.82,-110.5 510.82,-129.75"/>
<text xml:space="preserve" text-anchor="middle" x="438.7" y="-116.25" font-family="Helvetica,sans-Serif" font-size="10.00">include/CSVConfigManager.h</text>
</a>
</g>
</g>
<!-- Node4&#45;&gt;Node5 -->
<g id="edge4_Node000004_Node000005" class="edge">
<title>Node4&#45;&gt;Node5</title>
<g id="a_edge4_Node000004_Node000005"><a xlink:title=" ">
<path fill="none" stroke="#63b8ff" d="M379.91,-159.3C394.35,-149.92 412.45,-138.17 424.72,-130.2"/>
<polygon fill="#63b8ff" stroke="#63b8ff" points="378.36,-156.14 371.88,-164.52 382.17,-162.01 378.36,-156.14"/>
</a>
</g>
</g>
<!-- Node4&#45;&gt;Node6 -->
<g id="edge9_Node000004_Node000006" class="edge">
<title>Node4&#45;&gt;Node6</title>
<g id="a_edge9_Node000004_Node000006"><a xlink:title=" ">
<path fill="none" stroke="#63b8ff" d="M283.63,-163.24C245.76,-155.81 205.08,-144.66 193.7,-129.75 179.67,-111.36 204,-87.66 220.13,-74.93"/>
<polygon fill="#63b8ff" stroke="#63b8ff" points="282.77,-166.64 293.25,-165.05 284.07,-159.76 282.77,-166.64"/>
</a>
</g>
</g>
<!-- Node4&#45;&gt;Node8 -->
<g id="edge12_Node000004_Node000008" class="edge">
<title>Node4&#45;&gt;Node8</title>
<g id="a_edge12_Node000004_Node000008"><a xlink:title=" ">
<path fill="none" stroke="#63b8ff" d="M444.73,-163.36C470.83,-156.81 498.15,-146.38 519.7,-129.75 549.96,-106.39 541.74,-87.23 562.7,-55.25 571.04,-42.52 581.66,-28.5 588.56,-19.64"/>
<polygon fill="#63b8ff" stroke="#63b8ff" points="444.07,-159.92 435.12,-165.59 445.65,-166.74 444.07,-159.92"/>
</a>
</g>
</g>
<!-- Node4&#45;&gt;Node10 -->
<g id="edge10_Node000004_Node000010" class="edge">
<title>Node4&#45;&gt;Node10</title>
<g id="a_edge10_Node000004_Node000010"><a xlink:title=" ">
<path fill="none" stroke="#63b8ff" d="M299.59,-163.07C250.07,-153.27 179.32,-139.26 133.45,-130.18"/>
<polygon fill="#63b8ff" stroke="#63b8ff" points="298.79,-166.48 309.28,-164.99 300.15,-159.61 298.79,-166.48"/>
</a>
</g>
</g>
<!-- Node11 -->
<g id="Node000011" class="node">
<title>Node11</title>
<g id="a_Node000011"><a xlink:href="_temperature_controller_8cpp.html" target="_top" xlink:title=" ">
<polygon fill="white" stroke="#666666" points="348.95,-129.75 202.45,-129.75 202.45,-110.5 348.95,-110.5 348.95,-129.75"/>
<text xml:space="preserve" text-anchor="middle" x="275.7" y="-116.25" font-family="Helvetica,sans-Serif" font-size="10.00">src/TemperatureController.cpp</text>
</a>
</g>
</g>
<!-- Node4&#45;&gt;Node11 -->
<g id="edge11_Node000004_Node000011" class="edge">
<title>Node4&#45;&gt;Node11</title>
<g id="a_edge11_Node000004_Node000011"><a xlink:title=" ">
<path fill="none" stroke="#63b8ff" d="M333.36,-159.03C319.16,-149.7 301.51,-138.1 289.51,-130.2"/>
<polygon fill="#63b8ff" stroke="#63b8ff" points="331.41,-161.94 341.69,-164.51 335.26,-156.09 331.41,-161.94"/>
</a>
</g>
</g>
<!-- Node5&#45;&gt;Node6 -->
<g id="edge5_Node000005_Node000006" class="edge">
<title>Node5&#45;&gt;Node6</title>
<g id="a_edge5_Node000005_Node000006"><a xlink:title=" ">
<path fill="none" stroke="#63b8ff" d="M393.04,-107.32C355.25,-97.55 302.35,-83.88 267.81,-74.95"/>
<polygon fill="#63b8ff" stroke="#63b8ff" points="391.73,-110.6 402.29,-109.71 393.48,-103.82 391.73,-110.6"/>
</a>
</g>
</g>
<!-- Node9 -->
<g id="Node000009" class="node">
<title>Node9</title>
<g id="a_Node000009"><a xlink:href="_c_s_v_config_manager_8cpp.html" target="_top" xlink:title=" ">
<polygon fill="white" stroke="#666666" points="507.45,-74.5 369.95,-74.5 369.95,-55.25 507.45,-55.25 507.45,-74.5"/>
<text xml:space="preserve" text-anchor="middle" x="438.7" y="-61" font-family="Helvetica,sans-Serif" font-size="10.00">src/CSVConfigManager.cpp</text>
</a>
</g>
</g>
<!-- Node5&#45;&gt;Node9 -->
<g id="edge8_Node000005_Node000009" class="edge">
<title>Node5&#45;&gt;Node9</title>
<g id="a_edge8_Node000005_Node000009"><a xlink:title=" ">
<path fill="none" stroke="#63b8ff" d="M438.7,-98.88C438.7,-90.59 438.7,-81.42 438.7,-74.86"/>
<polygon fill="#63b8ff" stroke="#63b8ff" points="435.2,-98.82 438.7,-108.82 442.2,-98.82 435.2,-98.82"/>
</a>
</g>
</g>
<!-- Node7 -->
<g id="Node000007" class="node">
<title>Node7</title>
<g id="a_Node000007"><a xlink:href="_config_manager_8cpp.html" target="_top" xlink:title=" ">
<polygon fill="white" stroke="#666666" points="290.95,-19.25 174.45,-19.25 174.45,0 290.95,0 290.95,-19.25"/>
<text xml:space="preserve" text-anchor="middle" x="232.7" y="-5.75" font-family="Helvetica,sans-Serif" font-size="10.00">src/ConfigManager.cpp</text>
</a>
</g>
</g>
<!-- Node6&#45;&gt;Node7 -->
<g id="edge6_Node000006_Node000007" class="edge">
<title>Node6&#45;&gt;Node7</title>
<g id="a_edge6_Node000006_Node000007"><a xlink:title=" ">
<path fill="none" stroke="#63b8ff" d="M232.7,-43.63C232.7,-35.34 232.7,-26.17 232.7,-19.61"/>
<polygon fill="#63b8ff" stroke="#63b8ff" points="229.2,-43.57 232.7,-53.57 236.2,-43.57 229.2,-43.57"/>
</a>
</g>
</g>
<!-- Node6&#45;&gt;Node8 -->
<g id="edge7_Node000006_Node000008" class="edge">
<title>Node6&#45;&gt;Node8</title>
<g id="a_edge7_Node000006_Node000008"><a xlink:title=" ">
<path fill="none" stroke="#63b8ff" d="M305.71,-53.16C382.56,-41.89 500.37,-24.61 559.38,-15.95"/>
<polygon fill="#63b8ff" stroke="#63b8ff" points="305.57,-49.65 296.18,-54.56 306.59,-56.57 305.57,-49.65"/>
</a>
</g>
</g>
<!-- Node13&#45;&gt;Node4 -->
<g id="edge16_Node000013_Node000004" class="edge">
<title>Node13&#45;&gt;Node4</title>
<g id="a_edge16_Node000013_Node000004"><a xlink:title=" ">
<path fill="none" stroke="#63b8ff" d="M242.82,-216.8C270.09,-207.12 306.84,-194.07 331.13,-185.45"/>
<polygon fill="#63b8ff" stroke="#63b8ff" points="241.82,-213.44 233.57,-220.09 244.16,-220.04 241.82,-213.44"/>
</a>
</g>
</g>
<!-- Node13&#45;&gt;Node8 -->
<g id="edge18_Node000013_Node000008" class="edge">
<title>Node13&#45;&gt;Node8</title>
<g id="a_edge18_Node000013_Node000008"><a xlink:title=" ">
<path fill="none" stroke="#63b8ff" d="M277.82,-218.72C335.88,-209.35 413,-195.7 442.7,-185 448.67,-182.85 538.41,-134.43 542.7,-129.75 573.76,-95.89 588.89,-40.82 593.82,-19.47"/>
<polygon fill="#63b8ff" stroke="#63b8ff" points="277.3,-215.26 267.98,-220.3 278.4,-222.17 277.3,-215.26"/>
</a>
</g>
</g>
<!-- Node14 -->
<g id="Node000014" class="node">
<title>Node14</title>
<g id="a_Node000014"><a xlink:href="_indicator_interface_8cpp.html" target="_top" xlink:title=" ">
<polygon fill="white" stroke="#666666" points="262.2,-185 135.2,-185 135.2,-165.75 262.2,-165.75 262.2,-185"/>
<text xml:space="preserve" text-anchor="middle" x="198.7" y="-171.5" font-family="Helvetica,sans-Serif" font-size="10.00">src/IndicatorInterface.cpp</text>
</a>
</g>
</g>
<!-- Node13&#45;&gt;Node14 -->
<g id="edge17_Node000013_Node000014" class="edge">
<title>Node13&#45;&gt;Node14</title>
<g id="a_edge17_Node000013_Node000014"><a xlink:title=" ">
<path fill="none" stroke="#63b8ff" d="M203.7,-209.67C202.44,-201.3 201.04,-192 200.05,-185.36"/>
<polygon fill="#63b8ff" stroke="#63b8ff" points="200.2,-209.97 205.15,-219.34 207.13,-208.93 200.2,-209.97"/>
</a>
</g>
</g>
<!-- Node15&#45;&gt;Node3 -->
<g id="edge20_Node000015_Node000003" class="edge">
<title>Node15&#45;&gt;Node3</title>
<g id="a_edge20_Node000015_Node000003"><a xlink:title=" ">
<path fill="none" stroke="#63b8ff" d="M532.45,-272.31C561.62,-262.6 601.29,-249.4 627.42,-240.7"/>
<polygon fill="#63b8ff" stroke="#63b8ff" points="531.66,-268.89 523.28,-275.36 533.87,-275.53 531.66,-268.89"/>
</a>
</g>
</g>
<!-- Node15&#45;&gt;Node4 -->
<g id="edge27_Node000015_Node000004" class="edge">
<title>Node15&#45;&gt;Node4</title>
<g id="a_edge27_Node000015_Node000004"><a xlink:title=" ">
<path fill="none" stroke="#63b8ff" d="M480.08,-267.42C468.18,-253.81 450.47,-234.96 432.7,-221 414.4,-206.64 391.04,-193.6 375.08,-185.37"/>
<polygon fill="#63b8ff" stroke="#63b8ff" points="477.18,-269.41 486.35,-274.72 482.5,-264.85 477.18,-269.41"/>
</a>
</g>
</g>
<!-- Node15&#45;&gt;Node10 -->
<g id="edge28_Node000015_Node000010" class="edge">
<title>Node15&#45;&gt;Node10</title>
<g id="a_edge28_Node000015_Node000010"><a xlink:title=" ">
<path fill="none" stroke="#63b8ff" d="M413.24,-284.57C319.49,-282.59 172.99,-273.97 130.7,-240.25 95.46,-212.15 89.08,-152.66 87.94,-130.08"/>
<polygon fill="#63b8ff" stroke="#63b8ff" points="413.11,-288.07 423.17,-284.76 413.24,-281.07 413.11,-288.07"/>
</a>
</g>
</g>
<!-- Node16 -->
<g id="Node000016" class="node">
<title>Node16</title>
<g id="a_Node000016"><a xlink:href="_register_map_8h.html" target="_top" xlink:title=" ">
<polygon fill="white" stroke="#666666" points="594.45,-240.25 480.95,-240.25 480.95,-221 594.45,-221 594.45,-240.25"/>
<text xml:space="preserve" text-anchor="middle" x="537.7" y="-226.75" font-family="Helvetica,sans-Serif" font-size="10.00">include/RegisterMap.h</text>
</a>
</g>
</g>
<!-- Node15&#45;&gt;Node16 -->
<g id="edge21_Node000015_Node000016" class="edge">
<title>Node15&#45;&gt;Node16</title>
<g id="a_edge21_Node000015_Node000016"><a xlink:title=" ">
<path fill="none" stroke="#63b8ff" d="M508.95,-267.22C516.15,-258.31 524.58,-247.87 530.44,-240.61"/>
<polygon fill="#63b8ff" stroke="#63b8ff" points="506.31,-264.93 502.75,-274.9 511.75,-269.32 506.31,-264.93"/>
</a>
</g>
</g>
<!-- Node20 -->
<g id="Node000020" class="node">
<title>Node20</title>
<g id="a_Node000020"><a xlink:href="_measurement_point_8cpp.html" target="_top" xlink:title=" ">
<polygon fill="white" stroke="#666666" points="424.2,-240.25 291.2,-240.25 291.2,-221 424.2,-221 424.2,-240.25"/>
<text xml:space="preserve" text-anchor="middle" x="357.7" y="-226.75" font-family="Helvetica,sans-Serif" font-size="10.00">src/MeasurementPoint.cpp</text>
</a>
</g>
</g>
<!-- Node15&#45;&gt;Node20 -->
<g id="edge29_Node000015_Node000020" class="edge">
<title>Node15&#45;&gt;Node20</title>
<g id="a_edge29_Node000015_Node000020"><a xlink:title=" ">
<path fill="none" stroke="#63b8ff" d="M461.04,-271.79C436.2,-262.14 403.04,-249.25 381.05,-240.7"/>
<polygon fill="#63b8ff" stroke="#63b8ff" points="459.46,-274.93 470.05,-275.29 461.99,-268.41 459.46,-274.93"/>
</a>
</g>
</g>
<!-- Node16&#45;&gt;Node4 -->
<g id="edge25_Node000016_Node000004" class="edge">
<title>Node16&#45;&gt;Node4</title>
<g id="a_edge25_Node000016_Node000004"><a xlink:title=" ">
<path fill="none" stroke="#63b8ff" d="M496.29,-217.44C463.18,-207.7 417.51,-194.27 387.55,-185.45"/>
<polygon fill="#63b8ff" stroke="#63b8ff" points="494.96,-220.7 505.54,-220.16 496.94,-213.98 494.96,-220.7"/>
</a>
</g>
</g>
<!-- Node16&#45;&gt;Node17 -->
<g id="edge22_Node000016_Node000017" class="edge">
<title>Node16&#45;&gt;Node17</title>
<g id="a_edge22_Node000016_Node000017"><a xlink:title=" ">
<path fill="none" stroke="#63b8ff" d="M573.58,-216.8C600.67,-207.12 637.17,-194.07 661.3,-185.45"/>
<polygon fill="#63b8ff" stroke="#63b8ff" points="572.64,-213.42 564.4,-220.08 574.99,-220.01 572.64,-213.42"/>
</a>
</g>
</g>
<!-- Node19 -->
<g id="Node000019" class="node">
<title>Node19</title>
<g id="a_Node000019"><a xlink:href="_register_map_8cpp.html" target="_top" xlink:title=" ">
<polygon fill="white" stroke="#666666" points="596.07,-185 489.32,-185 489.32,-165.75 596.07,-165.75 596.07,-185"/>
<text xml:space="preserve" text-anchor="middle" x="542.7" y="-171.5" font-family="Helvetica,sans-Serif" font-size="10.00">src/RegisterMap.cpp</text>
</a>
</g>
</g>
<!-- Node16&#45;&gt;Node19 -->
<g id="edge26_Node000016_Node000019" class="edge">
<title>Node16&#45;&gt;Node19</title>
<g id="a_edge26_Node000016_Node000019"><a xlink:title=" ">
<path fill="none" stroke="#63b8ff" d="M539.6,-209.38C540.38,-201.09 541.24,-191.92 541.85,-185.36"/>
<polygon fill="#63b8ff" stroke="#63b8ff" points="536.11,-209.04 538.66,-219.32 543.08,-209.7 536.11,-209.04"/>
</a>
</g>
</g>
<!-- Node17&#45;&gt;Node8 -->
<g id="edge24_Node000017_Node000008" class="edge">
<title>Node17&#45;&gt;Node8</title>
<g id="a_edge24_Node000017_Node000008"><a xlink:title=" ">
<path fill="none" stroke="#63b8ff" d="M662.82,-158.87C652.6,-151.18 641.3,-141.11 633.7,-129.75 609.43,-93.49 599.84,-40.73 596.84,-19.74"/>
<polygon fill="#63b8ff" stroke="#63b8ff" points="660.71,-161.66 670.89,-164.59 664.76,-155.95 660.71,-161.66"/>
</a>
</g>
</g>
<!-- Node18 -->
<g id="Node000018" class="node">
<title>Node18</title>
<g id="a_Node000018"><a xlink:href="_temp_modbus_server_8cpp.html" target="_top" xlink:title=" ">
<polygon fill="white" stroke="#666666" points="780.45,-129.75 642.95,-129.75 642.95,-110.5 780.45,-110.5 780.45,-129.75"/>
<text xml:space="preserve" text-anchor="middle" x="711.7" y="-116.25" font-family="Helvetica,sans-Serif" font-size="10.00">src/TempModbusServer.cpp</text>
</a>
</g>
</g>
<!-- Node17&#45;&gt;Node18 -->
<g id="edge23_Node000017_Node000018" class="edge">
<title>Node17&#45;&gt;Node18</title>
<g id="a_edge23_Node000017_Node000018"><a xlink:title=" ">
<path fill="none" stroke="#63b8ff" d="M695.66,-155.29C699.69,-146.71 704.25,-136.98 707.48,-130.11"/>
<polygon fill="#63b8ff" stroke="#63b8ff" points="692.55,-153.67 691.47,-164.21 698.89,-156.65 692.55,-153.67"/>
</a>
</g>
</g>
</g>
</svg>
