<?xml version="1.0" encoding="UTF-8" standalone="no"?>
<!DOCTYPE svg PUBLIC "-//W3C//DTD SVG 1.1//EN"
 "http://www.w3.org/Graphics/SVG/1.1/DTD/svg11.dtd">
<!-- Generated by graphviz version 13.1.0 (20250701.0955)
 -->
<!-- Title: include/TimeManager.h Pages: 1 -->
<svg width="906pt" height="414pt"
 viewBox="0.00 0.00 906.00 414.00" xmlns="http://www.w3.org/2000/svg" xmlns:xlink="http://www.w3.org/1999/xlink">
<g id="graph0" class="graph" transform="scale(1 1) rotate(0) translate(4 410)">
<title>include/TimeManager.h</title>
<!-- Node1 -->
<g id="Node000001" class="node">
<title>Node1</title>
<g id="a_Node000001"><a xlink:title="Real&#45;time clock and time synchronization management.">
<polygon fill="#999999" stroke="#666666" points="645.25,-406 528.75,-406 528.75,-386.75 645.25,-386.75 645.25,-406"/>
<text xml:space="preserve" text-anchor="middle" x="587" y="-392.5" font-family="Helvetica,sans-Serif" font-size="10.00">include/TimeManager.h</text>
</a>
</g>
</g>
<!-- Node2 -->
<g id="Node000002" class="node">
<title>Node2</title>
<g id="a_Node000002"><a xlink:href="_logger_manager_8h.html" target="_top" xlink:title="Comprehensive data and event logging system for temperature monitoring.">
<polygon fill="white" stroke="#666666" points="649,-350.75 525,-350.75 525,-331.5 649,-331.5 649,-350.75"/>
<text xml:space="preserve" text-anchor="middle" x="587" y="-337.25" font-family="Helvetica,sans-Serif" font-size="10.00">include/LoggerManager.h</text>
</a>
</g>
</g>
<!-- Node1&#45;&gt;Node2 -->
<g id="edge1_Node000001_Node000002" class="edge">
<title>Node1&#45;&gt;Node2</title>
<g id="a_edge1_Node000001_Node000002"><a xlink:title=" ">
<path fill="none" stroke="#63b8ff" d="M587,-375.13C587,-366.84 587,-357.67 587,-351.11"/>
<polygon fill="#63b8ff" stroke="#63b8ff" points="583.5,-375.07 587,-385.07 590.5,-375.07 583.5,-375.07"/>
</a>
</g>
</g>
<!-- Node9 -->
<g id="Node000009" class="node">
<title>Node9</title>
<g id="a_Node000009"><a xlink:href="main_8cpp.html" target="_top" xlink:title="Main application entry point for Industrial Temperature Monitoring System.">
<polygon fill="white" stroke="#666666" points="159.12,-19.25 86.88,-19.25 86.88,0 159.12,0 159.12,-19.25"/>
<text xml:space="preserve" text-anchor="middle" x="123" y="-5.75" font-family="Helvetica,sans-Serif" font-size="10.00">src/main.cpp</text>
</a>
</g>
</g>
<!-- Node1&#45;&gt;Node9 -->
<g id="edge37_Node000001_Node000009" class="edge">
<title>Node1&#45;&gt;Node9</title>
<g id="a_edge37_Node000001_Node000009"><a xlink:title=" ">
<path fill="none" stroke="#63b8ff" d="M517.01,-389.68C361.32,-376.08 0,-338.91 0,-286.88 0,-286.88 0,-286.88 0,-119.12 0,-67.44 61.83,-34.51 97.81,-19.71"/>
<polygon fill="#63b8ff" stroke="#63b8ff" points="516.53,-393.15 526.79,-390.53 517.13,-386.18 516.53,-393.15"/>
</a>
</g>
</g>
<!-- Node21 -->
<g id="Node000021" class="node">
<title>Node21</title>
<g id="a_Node000021"><a xlink:href="_time_manager_8cpp.html" target="_top" xlink:title="Implementation of real&#45;time clock and time synchronization management.">
<polygon fill="white" stroke="#666666" points="776.88,-350.75 667.12,-350.75 667.12,-331.5 776.88,-331.5 776.88,-350.75"/>
<text xml:space="preserve" text-anchor="middle" x="722" y="-337.25" font-family="Helvetica,sans-Serif" font-size="10.00">src/TimeManager.cpp</text>
</a>
</g>
</g>
<!-- Node1&#45;&gt;Node21 -->
<g id="edge36_Node000001_Node000021" class="edge">
<title>Node1&#45;&gt;Node21</title>
<g id="a_edge36_Node000001_Node000021"><a xlink:title=" ">
<path fill="none" stroke="#63b8ff" d="M620.49,-382.16C644.93,-372.52 677.42,-359.71 698.99,-351.2"/>
<polygon fill="#63b8ff" stroke="#63b8ff" points="619.33,-378.86 611.31,-385.79 621.9,-385.37 619.33,-378.86"/>
</a>
</g>
</g>
<!-- Node3 -->
<g id="Node000003" class="node">
<title>Node3</title>
<g id="a_Node000003"><a xlink:href="_alarm_8h.html" target="_top" xlink:title="Alarm management system for temperature monitoring.">
<polygon fill="white" stroke="#666666" points="793.75,-240.25 710.25,-240.25 710.25,-221 793.75,-221 793.75,-240.25"/>
<text xml:space="preserve" text-anchor="middle" x="752" y="-226.75" font-family="Helvetica,sans-Serif" font-size="10.00">include/Alarm.h</text>
</a>
</g>
</g>
<!-- Node2&#45;&gt;Node3 -->
<g id="edge2_Node000002_Node000003" class="edge">
<title>Node2&#45;&gt;Node3</title>
<g id="a_edge2_Node000002_Node000003"><a xlink:title=" ">
<path fill="none" stroke="#63b8ff" d="M614.28,-325.81C629.73,-317.43 649.26,-306.38 666,-295.5 693.91,-277.35 724.84,-253.35 740.91,-240.56"/>
<polygon fill="#63b8ff" stroke="#63b8ff" points="612.81,-322.62 605.65,-330.43 616.12,-328.79 612.81,-322.62"/>
</a>
</g>
</g>
<!-- Node6 -->
<g id="Node000006" class="node">
<title>Node6</title>
<g id="a_Node000006"><a xlink:href="_config_manager_8h.html" target="_top" xlink:title="Configuration management system for temperature monitoring device.">
<polygon fill="white" stroke="#666666" points="773.62,-74.5 650.38,-74.5 650.38,-55.25 773.62,-55.25 773.62,-74.5"/>
<text xml:space="preserve" text-anchor="middle" x="712" y="-61" font-family="Helvetica,sans-Serif" font-size="10.00">include/ConfigManager.h</text>
</a>
</g>
</g>
<!-- Node2&#45;&gt;Node6 -->
<g id="edge16_Node000002_Node000006" class="edge">
<title>Node2&#45;&gt;Node6</title>
<g id="a_edge16_Node000002_Node000006"><a xlink:title=" ">
<path fill="none" stroke="#63b8ff" d="M660.4,-329.49C752.35,-314.06 898,-281.72 898,-231.62 898,-231.62 898,-231.62 898,-174.38 898,-114.56 825.34,-87.13 770.85,-74.97"/>
<polygon fill="#63b8ff" stroke="#63b8ff" points="659.98,-326.01 650.68,-331.09 661.12,-332.92 659.98,-326.01"/>
</a>
</g>
</g>
<!-- Node2&#45;&gt;Node9 -->
<g id="edge35_Node000002_Node000009" class="edge">
<title>Node2&#45;&gt;Node9</title>
<g id="a_edge35_Node000002_Node000009"><a xlink:title=" ">
<path fill="none" stroke="#63b8ff" d="M513.22,-340.74C363.48,-340 38,-327.38 38,-231.62 38,-231.62 38,-231.62 38,-119.12 38,-73.9 84.33,-36.31 108.58,-19.74"/>
<polygon fill="#63b8ff" stroke="#63b8ff" points="513.03,-344.24 523.04,-340.77 513.05,-337.24 513.03,-344.24"/>
</a>
</g>
</g>
<!-- Node11 -->
<g id="Node000011" class="node">
<title>Node11</title>
<g id="a_Node000011"><a xlink:href="_logger_manager_8cpp.html" target="_top" xlink:title="Implementation of data logging and event management system.">
<polygon fill="white" stroke="#666666" points="835.62,-129.75 718.38,-129.75 718.38,-110.5 835.62,-110.5 835.62,-129.75"/>
<text xml:space="preserve" text-anchor="middle" x="777" y="-116.25" font-family="Helvetica,sans-Serif" font-size="10.00">src/LoggerManager.cpp</text>
</a>
</g>
</g>
<!-- Node2&#45;&gt;Node11 -->
<g id="edge34_Node000002_Node000011" class="edge">
<title>Node2&#45;&gt;Node11</title>
<g id="a_edge34_Node000002_Node000011"><a xlink:title=" ">
<path fill="none" stroke="#63b8ff" d="M650.84,-328.92C695.59,-320.27 750.87,-307.75 771,-295.5 826.27,-261.86 866.05,-223.56 837,-165.75 828.78,-149.39 811.41,-137.52 797.47,-130.15"/>
<polygon fill="#63b8ff" stroke="#63b8ff" points="650.37,-325.45 641.2,-330.75 651.68,-332.33 650.37,-325.45"/>
</a>
</g>
</g>
<!-- Node13 -->
<g id="Node000013" class="node">
<title>Node13</title>
<g id="a_Node000013"><a xlink:href="_alarm_8cpp.html" target="_top" xlink:title="Implementation of alarm management system for temperature monitoring.">
<polygon fill="white" stroke="#666666" points="828.38,-185 751.62,-185 751.62,-165.75 828.38,-165.75 828.38,-185"/>
<text xml:space="preserve" text-anchor="middle" x="790" y="-171.5" font-family="Helvetica,sans-Serif" font-size="10.00">src/Alarm.cpp</text>
</a>
</g>
</g>
<!-- Node2&#45;&gt;Node13 -->
<g id="edge33_Node000002_Node000013" class="edge">
<title>Node2&#45;&gt;Node13</title>
<g id="a_edge33_Node000002_Node000013"><a xlink:title=" ">
<path fill="none" stroke="#63b8ff" d="M657.55,-328.42C707.86,-315.95 771.9,-290.68 803,-240.25 813.69,-222.91 802.92,-198.38 795.58,-185.34"/>
<polygon fill="#63b8ff" stroke="#63b8ff" points="656.8,-325 647.86,-330.69 658.4,-331.82 656.8,-325"/>
</a>
</g>
</g>
<!-- Node14 -->
<g id="Node000014" class="node">
<title>Node14</title>
<g id="a_Node000014"><a xlink:href="_indicator_interface_8h.html" target="_top" xlink:title="Hardware interface for PCF8575 I/O expander and SH1106 OLED display.">
<polygon fill="white" stroke="#666666" points="263.88,-240.25 130.12,-240.25 130.12,-221 263.88,-221 263.88,-240.25"/>
<text xml:space="preserve" text-anchor="middle" x="197" y="-226.75" font-family="Helvetica,sans-Serif" font-size="10.00">include/IndicatorInterface.h</text>
</a>
</g>
</g>
<!-- Node2&#45;&gt;Node14 -->
<g id="edge17_Node000002_Node000014" class="edge">
<title>Node2&#45;&gt;Node14</title>
<g id="a_edge17_Node000002_Node000014"><a xlink:title=" ">
<path fill="none" stroke="#63b8ff" d="M513.59,-335.68C456.26,-330.49 375.3,-319.34 308,-295.5 269.44,-281.84 228.97,-254.82 209.25,-240.7"/>
<polygon fill="#63b8ff" stroke="#63b8ff" points="512.96,-339.14 523.22,-336.51 513.56,-332.17 512.96,-339.14"/>
</a>
</g>
</g>
<!-- Node16 -->
<g id="Node000016" class="node">
<title>Node16</title>
<g id="a_Node000016"><a xlink:href="_measurement_point_8h.html" target="_top" xlink:title="Measurement point abstraction for temperature monitoring system.">
<polygon fill="white" stroke="#666666" points="656.88,-295.5 517.12,-295.5 517.12,-276.25 656.88,-276.25 656.88,-295.5"/>
<text xml:space="preserve" text-anchor="middle" x="587" y="-282" font-family="Helvetica,sans-Serif" font-size="10.00">include/MeasurementPoint.h</text>
</a>
</g>
</g>
<!-- Node2&#45;&gt;Node16 -->
<g id="edge21_Node000002_Node000016" class="edge">
<title>Node2&#45;&gt;Node16</title>
<g id="a_edge21_Node000002_Node000016"><a xlink:title=" ">
<path fill="none" stroke="#63b8ff" d="M587,-319.88C587,-311.59 587,-302.42 587,-295.86"/>
<polygon fill="#63b8ff" stroke="#63b8ff" points="583.5,-319.82 587,-329.82 590.5,-319.82 583.5,-319.82"/>
</a>
</g>
</g>
<!-- Node18 -->
<g id="Node000018" class="node">
<title>Node18</title>
<g id="a_Node000018"><a xlink:href="_temp_modbus_server_8h.html" target="_top" xlink:title="Modbus RTU server for temperature monitoring system.">
<polygon fill="white" stroke="#666666" points="394.12,-185 249.88,-185 249.88,-165.75 394.12,-165.75 394.12,-185"/>
<text xml:space="preserve" text-anchor="middle" x="322" y="-171.5" font-family="Helvetica,sans-Serif" font-size="10.00">include/TempModbusServer.h</text>
</a>
</g>
</g>
<!-- Node2&#45;&gt;Node18 -->
<g id="edge32_Node000002_Node000018" class="edge">
<title>Node2&#45;&gt;Node18</title>
<g id="a_edge32_Node000002_Node000018"><a xlink:title=" ">
<path fill="none" stroke="#63b8ff" d="M516.35,-328.6C461.25,-316.02 386.65,-290.54 341,-240.25 326.85,-224.66 323.21,-198.95 322.3,-185.39"/>
<polygon fill="#63b8ff" stroke="#63b8ff" points="515.45,-331.98 525.96,-330.7 516.94,-325.15 515.45,-331.98"/>
</a>
</g>
</g>
<!-- Node4 -->
<g id="Node000004" class="node">
<title>Node4</title>
<g id="a_Node000004"><a xlink:href="_temperature_controller_8h.html" target="_top" xlink:title="Central temperature monitoring and control system.">
<polygon fill="white" stroke="#666666" points="690.62,-185 537.38,-185 537.38,-165.75 690.62,-165.75 690.62,-185"/>
<text xml:space="preserve" text-anchor="middle" x="614" y="-171.5" font-family="Helvetica,sans-Serif" font-size="10.00">include/TemperatureController.h</text>
</a>
</g>
</g>
<!-- Node3&#45;&gt;Node4 -->
<g id="edge3_Node000003_Node000004" class="edge">
<title>Node3&#45;&gt;Node4</title>
<g id="a_edge3_Node000003_Node000004"><a xlink:title=" ">
<path fill="none" stroke="#63b8ff" d="M718.1,-216.54C693.08,-206.89 659.67,-194 637.52,-185.45"/>
<polygon fill="#63b8ff" stroke="#63b8ff" points="716.59,-219.71 727.18,-220.05 719.11,-213.18 716.59,-219.71"/>
</a>
</g>
</g>
<!-- Node3&#45;&gt;Node13 -->
<g id="edge15_Node000003_Node000013" class="edge">
<title>Node3&#45;&gt;Node13</title>
<g id="a_edge15_Node000003_Node000013"><a xlink:title=" ">
<path fill="none" stroke="#63b8ff" d="M764.8,-211.69C771.12,-202.84 778.46,-192.54 783.59,-185.36"/>
<polygon fill="#63b8ff" stroke="#63b8ff" points="762.11,-209.43 759.15,-219.6 767.81,-213.49 762.11,-209.43"/>
</a>
</g>
</g>
<!-- Node5 -->
<g id="Node000005" class="node">
<title>Node5</title>
<g id="a_Node000005"><a xlink:href="_c_s_v_config_manager_8h.html" target="_top" xlink:title="CSV configuration import/export manager for measurement points and alarms.">
<polygon fill="white" stroke="#666666" points="662.12,-129.75 517.88,-129.75 517.88,-110.5 662.12,-110.5 662.12,-129.75"/>
<text xml:space="preserve" text-anchor="middle" x="590" y="-116.25" font-family="Helvetica,sans-Serif" font-size="10.00">include/CSVConfigManager.h</text>
</a>
</g>
</g>
<!-- Node4&#45;&gt;Node5 -->
<g id="edge4_Node000004_Node000005" class="edge">
<title>Node4&#45;&gt;Node5</title>
<g id="a_edge4_Node000004_Node000005"><a xlink:title=" ">
<path fill="none" stroke="#63b8ff" d="M605.4,-155.29C601.53,-146.71 597.15,-136.98 594.05,-130.11"/>
<polygon fill="#63b8ff" stroke="#63b8ff" points="602.12,-156.52 609.41,-164.2 608.5,-153.65 602.12,-156.52"/>
</a>
</g>
</g>
<!-- Node4&#45;&gt;Node6 -->
<g id="edge10_Node000004_Node000006" class="edge">
<title>Node4&#45;&gt;Node6</title>
<g id="a_edge10_Node000004_Node000006"><a xlink:title=" ">
<path fill="none" stroke="#63b8ff" d="M637.58,-158.68C648.48,-150.77 661.15,-140.56 671,-129.75 686.97,-112.21 700.75,-87.76 707.53,-74.78"/>
<polygon fill="#63b8ff" stroke="#63b8ff" points="635.63,-155.78 629.45,-164.39 639.65,-161.51 635.63,-155.78"/>
</a>
</g>
</g>
<!-- Node8 -->
<g id="Node000008" class="node">
<title>Node8</title>
<g id="a_Node000008"><a xlink:href="_temperature_controller_8cpp.html" target="_top" xlink:title="Implementation of the central temperature monitoring and control system.">
<polygon fill="white" stroke="#666666" points="587.25,-19.25 440.75,-19.25 440.75,0 587.25,0 587.25,-19.25"/>
<text xml:space="preserve" text-anchor="middle" x="514" y="-5.75" font-family="Helvetica,sans-Serif" font-size="10.00">src/TemperatureController.cpp</text>
</a>
</g>
</g>
<!-- Node4&#45;&gt;Node8 -->
<g id="edge13_Node000004_Node000008" class="edge">
<title>Node4&#45;&gt;Node8</title>
<g id="a_edge13_Node000004_Node000008"><a xlink:title=" ">
<path fill="none" stroke="#63b8ff" d="M563.46,-161.76C544.43,-154.91 523.82,-144.68 509,-129.75 484.59,-105.16 476.42,-88.55 486,-55.25 489.95,-41.54 499.48,-27.97 506.33,-19.46"/>
<polygon fill="#63b8ff" stroke="#63b8ff" points="562.1,-165 572.69,-164.84 564.32,-158.36 562.1,-165"/>
</a>
</g>
</g>
<!-- Node4&#45;&gt;Node9 -->
<g id="edge14_Node000004_Node000009" class="edge">
<title>Node4&#45;&gt;Node9</title>
<g id="a_edge14_Node000004_Node000009"><a xlink:title=" ">
<path fill="none" stroke="#63b8ff" d="M576.06,-161.72C480.74,-129.93 233,-47.31 150.32,-19.73"/>
<polygon fill="#63b8ff" stroke="#63b8ff" points="574.87,-165.02 585.47,-164.86 577.09,-158.37 574.87,-165.02"/>
</a>
</g>
</g>
<!-- Node4&#45;&gt;Node11 -->
<g id="edge11_Node000004_Node000011" class="edge">
<title>Node4&#45;&gt;Node11</title>
<g id="a_edge11_Node000004_Node000011"><a xlink:title=" ">
<path fill="none" stroke="#63b8ff" d="M652.46,-161.81C682.18,-152.1 722.59,-138.9 749.21,-130.2"/>
<polygon fill="#63b8ff" stroke="#63b8ff" points="651.51,-158.44 643.09,-164.87 653.68,-165.09 651.51,-158.44"/>
</a>
</g>
</g>
<!-- Node12 -->
<g id="Node000012" class="node">
<title>Node12</title>
<g id="a_Node000012"><a xlink:href="_temp_modbus_server_8cpp.html" target="_top" xlink:title="Implementation of Modbus RTU server for temperature monitoring.">
<polygon fill="white" stroke="#666666" points="391.75,-129.75 254.25,-129.75 254.25,-110.5 391.75,-110.5 391.75,-129.75"/>
<text xml:space="preserve" text-anchor="middle" x="323" y="-116.25" font-family="Helvetica,sans-Serif" font-size="10.00">src/TempModbusServer.cpp</text>
</a>
</g>
</g>
<!-- Node4&#45;&gt;Node12 -->
<g id="edge12_Node000004_Node000012" class="edge">
<title>Node4&#45;&gt;Node12</title>
<g id="a_edge12_Node000004_Node000012"><a xlink:title=" ">
<path fill="none" stroke="#63b8ff" d="M553.24,-163.26C499.62,-153.44 422.43,-139.32 372.49,-130.18"/>
<polygon fill="#63b8ff" stroke="#63b8ff" points="552.35,-166.65 562.82,-165.01 553.61,-159.77 552.35,-166.65"/>
</a>
</g>
</g>
<!-- Node5&#45;&gt;Node6 -->
<g id="edge5_Node000005_Node000006" class="edge">
<title>Node5&#45;&gt;Node6</title>
<g id="a_edge5_Node000005_Node000006"><a xlink:title=" ">
<path fill="none" stroke="#63b8ff" d="M621.17,-105.52C643.15,-95.93 671.98,-83.34 691.2,-74.95"/>
<polygon fill="#63b8ff" stroke="#63b8ff" points="619.85,-102.28 612.08,-109.49 622.65,-108.69 619.85,-102.28"/>
</a>
</g>
</g>
<!-- Node10 -->
<g id="Node000010" class="node">
<title>Node10</title>
<g id="a_Node000010"><a xlink:href="_c_s_v_config_manager_8cpp.html" target="_top" xlink:title="Implementation of CSV configuration management for measurement points.">
<polygon fill="white" stroke="#666666" points="632.75,-74.5 495.25,-74.5 495.25,-55.25 632.75,-55.25 632.75,-74.5"/>
<text xml:space="preserve" text-anchor="middle" x="564" y="-61" font-family="Helvetica,sans-Serif" font-size="10.00">src/CSVConfigManager.cpp</text>
</a>
</g>
</g>
<!-- Node5&#45;&gt;Node10 -->
<g id="edge9_Node000005_Node000010" class="edge">
<title>Node5&#45;&gt;Node10</title>
<g id="a_edge9_Node000005_Node000010"><a xlink:title=" ">
<path fill="none" stroke="#63b8ff" d="M580.68,-100.04C576.49,-91.46 571.74,-81.73 568.39,-74.86"/>
<polygon fill="#63b8ff" stroke="#63b8ff" points="577.51,-101.52 585.04,-108.97 583.8,-98.45 577.51,-101.52"/>
</a>
</g>
</g>
<!-- Node7 -->
<g id="Node000007" class="node">
<title>Node7</title>
<g id="a_Node000007"><a xlink:href="_config_manager_8cpp.html" target="_top" xlink:title="Implementation of web&#45;based configuration management system.">
<polygon fill="white" stroke="#666666" points="770.25,-19.25 653.75,-19.25 653.75,0 770.25,0 770.25,-19.25"/>
<text xml:space="preserve" text-anchor="middle" x="712" y="-5.75" font-family="Helvetica,sans-Serif" font-size="10.00">src/ConfigManager.cpp</text>
</a>
</g>
</g>
<!-- Node6&#45;&gt;Node7 -->
<g id="edge6_Node000006_Node000007" class="edge">
<title>Node6&#45;&gt;Node7</title>
<g id="a_edge6_Node000006_Node000007"><a xlink:title=" ">
<path fill="none" stroke="#63b8ff" d="M712,-43.63C712,-35.34 712,-26.17 712,-19.61"/>
<polygon fill="#63b8ff" stroke="#63b8ff" points="708.5,-43.57 712,-53.57 715.5,-43.57 708.5,-43.57"/>
</a>
</g>
</g>
<!-- Node6&#45;&gt;Node8 -->
<g id="edge7_Node000006_Node000008" class="edge">
<title>Node6&#45;&gt;Node8</title>
<g id="a_edge7_Node000006_Node000008"><a xlink:title=" ">
<path fill="none" stroke="#63b8ff" d="M667.64,-51.95C631.36,-42.19 580.81,-28.59 547.75,-19.7"/>
<polygon fill="#63b8ff" stroke="#63b8ff" points="666.38,-55.23 676.95,-54.45 668.2,-48.47 666.38,-55.23"/>
</a>
</g>
</g>
<!-- Node6&#45;&gt;Node9 -->
<g id="edge8_Node000006_Node000009" class="edge">
<title>Node6&#45;&gt;Node9</title>
<g id="a_edge8_Node000006_Node000009"><a xlink:title=" ">
<path fill="none" stroke="#63b8ff" d="M638.8,-54.95C452.58,-35.68 242.67,-19.49 159.54,-13.3"/>
<polygon fill="#63b8ff" stroke="#63b8ff" points="638.36,-58.42 648.67,-55.98 639.09,-51.46 638.36,-58.42"/>
</a>
</g>
</g>
<!-- Node14&#45;&gt;Node4 -->
<g id="edge18_Node000014_Node000004" class="edge">
<title>Node14&#45;&gt;Node4</title>
<g id="a_edge18_Node000014_Node000004"><a xlink:title=" ">
<path fill="none" stroke="#63b8ff" d="M275.04,-219.66C351.86,-209.85 468.19,-194.99 542.63,-185.49"/>
<polygon fill="#63b8ff" stroke="#63b8ff" points="274.98,-216.14 265.5,-220.88 275.86,-223.08 274.98,-216.14"/>
</a>
</g>
</g>
<!-- Node14&#45;&gt;Node9 -->
<g id="edge20_Node000014_Node000009" class="edge">
<title>Node14&#45;&gt;Node9</title>
<g id="a_edge20_Node000014_Node000009"><a xlink:title=" ">
<path fill="none" stroke="#63b8ff" d="M137.88,-216.81C121.19,-210.17 104.9,-200.14 95,-185 59.42,-130.6 101.97,-46.72 117.65,-19.49"/>
<polygon fill="#63b8ff" stroke="#63b8ff" points="136.25,-219.94 146.84,-220.01 138.6,-213.35 136.25,-219.94"/>
</a>
</g>
</g>
<!-- Node15 -->
<g id="Node000015" class="node">
<title>Node15</title>
<g id="a_Node000015"><a xlink:href="_indicator_interface_8cpp.html" target="_top" xlink:title="Implementation of user interface with OLED display and input handling.">
<polygon fill="white" stroke="#666666" points="231.5,-185 104.5,-185 104.5,-165.75 231.5,-165.75 231.5,-185"/>
<text xml:space="preserve" text-anchor="middle" x="168" y="-171.5" font-family="Helvetica,sans-Serif" font-size="10.00">src/IndicatorInterface.cpp</text>
</a>
</g>
</g>
<!-- Node14&#45;&gt;Node15 -->
<g id="edge19_Node000014_Node000015" class="edge">
<title>Node14&#45;&gt;Node15</title>
<g id="a_edge19_Node000014_Node000015"><a xlink:title=" ">
<path fill="none" stroke="#63b8ff" d="M186.76,-210.83C182.05,-202.17 176.68,-192.31 172.89,-185.36"/>
<polygon fill="#63b8ff" stroke="#63b8ff" points="183.63,-212.39 191.49,-219.5 189.78,-209.05 183.63,-212.39"/>
</a>
</g>
</g>
<!-- Node16&#45;&gt;Node3 -->
<g id="edge22_Node000016_Node000003" class="edge">
<title>Node16&#45;&gt;Node3</title>
<g id="a_edge22_Node000016_Node000003"><a xlink:title=" ">
<path fill="none" stroke="#63b8ff" d="M625.94,-272.31C656.01,-262.6 696.92,-249.4 723.87,-240.7"/>
<polygon fill="#63b8ff" stroke="#63b8ff" points="624.87,-268.97 616.43,-275.38 627.02,-275.64 624.87,-268.97"/>
</a>
</g>
</g>
<!-- Node16&#45;&gt;Node4 -->
<g id="edge29_Node000016_Node000004" class="edge">
<title>Node16&#45;&gt;Node4</title>
<g id="a_edge29_Node000016_Node000004"><a xlink:title=" ">
<path fill="none" stroke="#63b8ff" d="M550.64,-271.59C525.25,-260.14 498.18,-242.14 512,-221 523.96,-202.72 545.23,-191.88 565.27,-185.48"/>
<polygon fill="#63b8ff" stroke="#63b8ff" points="548.96,-274.68 559.54,-275.36 551.69,-268.24 548.96,-274.68"/>
</a>
</g>
</g>
<!-- Node16&#45;&gt;Node11 -->
<g id="edge30_Node000016_Node000011" class="edge">
<title>Node16&#45;&gt;Node11</title>
<g id="a_edge30_Node000016_Node000011"><a xlink:title=" ">
<path fill="none" stroke="#63b8ff" d="M615.52,-270.57C630.32,-262.56 648.32,-251.86 663,-240.25 708.35,-204.38 753.11,-150.95 769.98,-130"/>
<polygon fill="#63b8ff" stroke="#63b8ff" points="613.96,-267.44 606.74,-275.2 617.22,-273.63 613.96,-267.44"/>
</a>
</g>
</g>
<!-- Node17 -->
<g id="Node000017" class="node">
<title>Node17</title>
<g id="a_Node000017"><a xlink:href="_register_map_8h.html" target="_top" xlink:title="Modbus register mapping for temperature monitoring system.">
<polygon fill="white" stroke="#666666" points="463.75,-240.25 350.25,-240.25 350.25,-221 463.75,-221 463.75,-240.25"/>
<text xml:space="preserve" text-anchor="middle" x="407" y="-226.75" font-family="Helvetica,sans-Serif" font-size="10.00">include/RegisterMap.h</text>
</a>
</g>
</g>
<!-- Node16&#45;&gt;Node17 -->
<g id="edge23_Node000016_Node000017" class="edge">
<title>Node16&#45;&gt;Node17</title>
<g id="a_edge23_Node000016_Node000017"><a xlink:title=" ">
<path fill="none" stroke="#63b8ff" d="M545.82,-272.69C512.9,-262.95 467.47,-249.52 437.68,-240.7"/>
<polygon fill="#63b8ff" stroke="#63b8ff" points="544.43,-275.93 555.01,-275.41 546.42,-269.22 544.43,-275.93"/>
</a>
</g>
</g>
<!-- Node20 -->
<g id="Node000020" class="node">
<title>Node20</title>
<g id="a_Node000020"><a xlink:href="_measurement_point_8cpp.html" target="_top" xlink:title="Implementation of temperature measurement point management.">
<polygon fill="white" stroke="#666666" points="653.5,-240.25 520.5,-240.25 520.5,-221 653.5,-221 653.5,-240.25"/>
<text xml:space="preserve" text-anchor="middle" x="587" y="-226.75" font-family="Helvetica,sans-Serif" font-size="10.00">src/MeasurementPoint.cpp</text>
</a>
</g>
</g>
<!-- Node16&#45;&gt;Node20 -->
<g id="edge31_Node000016_Node000020" class="edge">
<title>Node16&#45;&gt;Node20</title>
<g id="a_edge31_Node000016_Node000020"><a xlink:title=" ">
<path fill="none" stroke="#63b8ff" d="M587,-264.63C587,-256.34 587,-247.17 587,-240.61"/>
<polygon fill="#63b8ff" stroke="#63b8ff" points="583.5,-264.57 587,-274.57 590.5,-264.57 583.5,-264.57"/>
</a>
</g>
</g>
<!-- Node17&#45;&gt;Node4 -->
<g id="edge27_Node000017_Node000004" class="edge">
<title>Node17&#45;&gt;Node4</title>
<g id="a_edge27_Node000017_Node000004"><a xlink:title=" ">
<path fill="none" stroke="#63b8ff" d="M452.88,-217.82C490.85,-208.05 544.01,-194.38 578.71,-185.45"/>
<polygon fill="#63b8ff" stroke="#63b8ff" points="452.39,-214.33 443.58,-220.21 454.14,-221.11 452.39,-214.33"/>
</a>
</g>
</g>
<!-- Node17&#45;&gt;Node18 -->
<g id="edge24_Node000017_Node000018" class="edge">
<title>Node17&#45;&gt;Node18</title>
<g id="a_edge24_Node000017_Node000018"><a xlink:title=" ">
<path fill="none" stroke="#63b8ff" d="M382.94,-214.55C367.97,-205.17 349.21,-193.42 336.49,-185.45"/>
<polygon fill="#63b8ff" stroke="#63b8ff" points="380.97,-217.45 391.3,-219.79 384.68,-211.51 380.97,-217.45"/>
</a>
</g>
</g>
<!-- Node19 -->
<g id="Node000019" class="node">
<title>Node19</title>
<g id="a_Node000019"><a xlink:href="_register_map_8cpp.html" target="_top" xlink:title="Implementation of Modbus register mapping for temperature monitoring.">
<polygon fill="white" stroke="#666666" points="519.38,-185 412.62,-185 412.62,-165.75 519.38,-165.75 519.38,-185"/>
<text xml:space="preserve" text-anchor="middle" x="466" y="-171.5" font-family="Helvetica,sans-Serif" font-size="10.00">src/RegisterMap.cpp</text>
</a>
</g>
</g>
<!-- Node17&#45;&gt;Node19 -->
<g id="edge28_Node000017_Node000019" class="edge">
<title>Node17&#45;&gt;Node19</title>
<g id="a_edge28_Node000017_Node000019"><a xlink:title=" ">
<path fill="none" stroke="#63b8ff" d="M425.27,-213.14C435.46,-203.94 447.74,-192.85 456.14,-185.27"/>
<polygon fill="#63b8ff" stroke="#63b8ff" points="423.21,-210.28 418.13,-219.58 427.9,-215.48 423.21,-210.28"/>
</a>
</g>
</g>
<!-- Node18&#45;&gt;Node9 -->
<g id="edge26_Node000018_Node000009" class="edge">
<title>Node18&#45;&gt;Node9</title>
<g id="a_edge26_Node000018_Node000009"><a xlink:title=" ">
<path fill="none" stroke="#63b8ff" d="M293.68,-160.16C278.65,-152.08 260.2,-141.29 245,-129.75 197.37,-93.59 148.95,-40.33 130.64,-19.46"/>
<polygon fill="#63b8ff" stroke="#63b8ff" points="291.64,-163.04 302.12,-164.59 294.9,-156.84 291.64,-163.04"/>
</a>
</g>
</g>
<!-- Node18&#45;&gt;Node12 -->
<g id="edge25_Node000018_Node000012" class="edge">
<title>Node18&#45;&gt;Node12</title>
<g id="a_edge25_Node000018_Node000012"><a xlink:title=" ">
<path fill="none" stroke="#63b8ff" d="M322.38,-154.13C322.54,-145.84 322.71,-136.67 322.83,-130.11"/>
<polygon fill="#63b8ff" stroke="#63b8ff" points="318.88,-154 322.19,-164.07 325.88,-154.14 318.88,-154"/>
</a>
</g>
</g>
</g>
</svg>
