<?xml version="1.0" encoding="UTF-8" standalone="no"?>
<!DOCTYPE svg PUBLIC "-//W3C//DTD SVG 1.1//EN"
 "http://www.w3.org/Graphics/SVG/1.1/DTD/svg11.dtd">
<!-- Generated by graphviz version 13.1.0 (20250701.0955)
 -->
<!-- Title: src/TimeManager.cpp Pages: 1 -->
<svg width="529pt" height="138pt"
 viewBox="0.00 0.00 529.00 138.00" xmlns="http://www.w3.org/2000/svg" xmlns:xlink="http://www.w3.org/1999/xlink">
<g id="graph0" class="graph" transform="scale(1 1) rotate(0) translate(4 133.75)">
<title>src/TimeManager.cpp</title>
<!-- Node1 -->
<g id="Node000001" class="node">
<title>Node1</title>
<g id="a_Node000001"><a xlink:title="Implementation of real&#45;time clock and time synchronization management.">
<polygon fill="#999999" stroke="#666666" points="371.5,-129.75 261.75,-129.75 261.75,-110.5 371.5,-110.5 371.5,-129.75"/>
<text xml:space="preserve" text-anchor="middle" x="316.62" y="-116.25" font-family="Helvetica,sans-Serif" font-size="10.00">src/TimeManager.cpp</text>
</a>
</g>
</g>
<!-- Node2 -->
<g id="Node000002" class="node">
<title>Node2</title>
<g id="a_Node000002"><a xlink:href="_time_manager_8h.html" target="_top" xlink:title="Real&#45;time clock and time synchronization management.">
<polygon fill="white" stroke="#666666" points="270,-74.5 187.25,-74.5 187.25,-55.25 270,-55.25 270,-74.5"/>
<text xml:space="preserve" text-anchor="middle" x="228.62" y="-61" font-family="Helvetica,sans-Serif" font-size="10.00">TimeManager.h</text>
</a>
</g>
</g>
<!-- Node1&#45;&gt;Node2 -->
<g id="edge1_Node000001_Node000002" class="edge">
<title>Node1&#45;&gt;Node2</title>
<g id="a_edge1_Node000001_Node000002"><a xlink:title=" ">
<path fill="none" stroke="#63b8ff" d="M301.7,-110.09C288.42,-102.06 268.76,-90.16 253.17,-80.73"/>
<polygon fill="#63b8ff" stroke="#63b8ff" points="255.29,-77.92 244.92,-75.74 251.66,-83.91 255.29,-77.92"/>
</a>
</g>
</g>
<!-- Node10 -->
<g id="Node000010" class="node">
<title>Node10</title>
<g id="a_Node000010"><a xlink:title=" ">
<polygon fill="#e0e0e0" stroke="#999999" points="345.62,-74.5 287.62,-74.5 287.62,-55.25 345.62,-55.25 345.62,-74.5"/>
<text xml:space="preserve" text-anchor="middle" x="316.62" y="-61" font-family="Helvetica,sans-Serif" font-size="10.00">LittleFS.h</text>
</a>
</g>
</g>
<!-- Node1&#45;&gt;Node10 -->
<g id="edge9_Node000001_Node000010" class="edge">
<title>Node1&#45;&gt;Node10</title>
<g id="a_edge9_Node000001_Node000010"><a xlink:title=" ">
<path fill="none" stroke="#63b8ff" d="M316.62,-110.33C316.62,-103.82 316.62,-94.67 316.62,-86.37"/>
<polygon fill="#63b8ff" stroke="#63b8ff" points="320.13,-86.37 316.63,-76.37 313.13,-86.37 320.13,-86.37"/>
</a>
</g>
</g>
<!-- Node11 -->
<g id="Node000011" class="node">
<title>Node11</title>
<g id="a_Node000011"><a xlink:title=" ">
<polygon fill="#e0e0e0" stroke="#999999" points="425.5,-74.5 363.75,-74.5 363.75,-55.25 425.5,-55.25 425.5,-74.5"/>
<text xml:space="preserve" text-anchor="middle" x="394.62" y="-61" font-family="Helvetica,sans-Serif" font-size="10.00">sys/time.h</text>
</a>
</g>
</g>
<!-- Node1&#45;&gt;Node11 -->
<g id="edge10_Node000001_Node000011" class="edge">
<title>Node1&#45;&gt;Node11</title>
<g id="a_edge10_Node000001_Node000011"><a xlink:title=" ">
<path fill="none" stroke="#63b8ff" d="M329.86,-110.09C341.4,-102.21 358.39,-90.61 372.07,-81.27"/>
<polygon fill="#63b8ff" stroke="#63b8ff" points="373.79,-84.33 380.08,-75.81 369.85,-78.55 373.79,-84.33"/>
</a>
</g>
</g>
<!-- Node3 -->
<g id="Node000003" class="node">
<title>Node3</title>
<g id="a_Node000003"><a xlink:title=" ">
<polygon fill="#e0e0e0" stroke="#999999" points="57.25,-19.25 0,-19.25 0,0 57.25,0 57.25,-19.25"/>
<text xml:space="preserve" text-anchor="middle" x="28.62" y="-5.75" font-family="Helvetica,sans-Serif" font-size="10.00">Arduino.h</text>
</a>
</g>
</g>
<!-- Node2&#45;&gt;Node3 -->
<g id="edge2_Node000002_Node000003" class="edge">
<title>Node2&#45;&gt;Node3</title>
<g id="a_edge2_Node000002_Node000003"><a xlink:title=" ">
<path fill="none" stroke="#63b8ff" d="M194.7,-54.84C159.75,-45.54 105.32,-31.05 68.38,-21.21"/>
<polygon fill="#63b8ff" stroke="#63b8ff" points="69.54,-17.9 58.98,-18.71 67.74,-24.66 69.54,-17.9"/>
</a>
</g>
</g>
<!-- Node4 -->
<g id="Node000004" class="node">
<title>Node4</title>
<g id="a_Node000004"><a xlink:title=" ">
<polygon fill="#e0e0e0" stroke="#999999" points="119.88,-19.25 75.38,-19.25 75.38,0 119.88,0 119.88,-19.25"/>
<text xml:space="preserve" text-anchor="middle" x="97.62" y="-5.75" font-family="Helvetica,sans-Serif" font-size="10.00">WiFi.h</text>
</a>
</g>
</g>
<!-- Node2&#45;&gt;Node4 -->
<g id="edge3_Node000002_Node000004" class="edge">
<title>Node2&#45;&gt;Node4</title>
<g id="a_edge3_Node000002_Node000004"><a xlink:title=" ">
<path fill="none" stroke="#63b8ff" d="M206.4,-54.84C185.61,-46.39 154.28,-33.65 130.57,-24.02"/>
<polygon fill="#63b8ff" stroke="#63b8ff" points="131.94,-20.8 121.36,-20.27 129.3,-27.28 131.94,-20.8"/>
</a>
</g>
</g>
<!-- Node5 -->
<g id="Node000005" class="node">
<title>Node5</title>
<g id="a_Node000005"><a xlink:title=" ">
<polygon fill="#e0e0e0" stroke="#999999" points="182.88,-19.25 138.38,-19.25 138.38,0 182.88,0 182.88,-19.25"/>
<text xml:space="preserve" text-anchor="middle" x="160.62" y="-5.75" font-family="Helvetica,sans-Serif" font-size="10.00">Wire.h</text>
</a>
</g>
</g>
<!-- Node2&#45;&gt;Node5 -->
<g id="edge4_Node000002_Node000005" class="edge">
<title>Node2&#45;&gt;Node5</title>
<g id="a_edge4_Node000002_Node000005"><a xlink:title=" ">
<path fill="none" stroke="#63b8ff" d="M217.09,-54.84C207.16,-47.07 192.61,-35.67 180.77,-26.4"/>
<polygon fill="#63b8ff" stroke="#63b8ff" points="183.21,-23.87 173.18,-20.46 178.9,-29.38 183.21,-23.87"/>
</a>
</g>
</g>
<!-- Node6 -->
<g id="Node000006" class="node">
<title>Node6</title>
<g id="a_Node000006"><a xlink:title=" ">
<polygon fill="#e0e0e0" stroke="#999999" points="256.12,-19.25 201.12,-19.25 201.12,0 256.12,0 256.12,-19.25"/>
<text xml:space="preserve" text-anchor="middle" x="228.62" y="-5.75" font-family="Helvetica,sans-Serif" font-size="10.00">RTClib.h</text>
</a>
</g>
</g>
<!-- Node2&#45;&gt;Node6 -->
<g id="edge5_Node000002_Node000006" class="edge">
<title>Node2&#45;&gt;Node6</title>
<g id="a_edge5_Node000002_Node000006"><a xlink:title=" ">
<path fill="none" stroke="#63b8ff" d="M228.62,-55.08C228.62,-48.57 228.62,-39.42 228.62,-31.12"/>
<polygon fill="#63b8ff" stroke="#63b8ff" points="232.13,-31.12 228.63,-21.12 225.13,-31.12 232.13,-31.12"/>
</a>
</g>
</g>
<!-- Node7 -->
<g id="Node000007" class="node">
<title>Node7</title>
<g id="a_Node000007"><a xlink:title=" ">
<polygon fill="#e0e0e0" stroke="#999999" points="344.62,-19.25 274.62,-19.25 274.62,0 344.62,0 344.62,-19.25"/>
<text xml:space="preserve" text-anchor="middle" x="309.62" y="-5.75" font-family="Helvetica,sans-Serif" font-size="10.00">NTPClient.h</text>
</a>
</g>
</g>
<!-- Node2&#45;&gt;Node7 -->
<g id="edge6_Node000002_Node000007" class="edge">
<title>Node2&#45;&gt;Node7</title>
<g id="a_edge6_Node000002_Node000007"><a xlink:title=" ">
<path fill="none" stroke="#63b8ff" d="M242.37,-54.84C254.35,-46.96 272,-35.36 286.21,-26.02"/>
<polygon fill="#63b8ff" stroke="#63b8ff" points="288.12,-28.95 294.55,-20.53 284.27,-23.1 288.12,-28.95"/>
</a>
</g>
</g>
<!-- Node8 -->
<g id="Node000008" class="node">
<title>Node8</title>
<g id="a_Node000008"><a xlink:title=" ">
<polygon fill="#e0e0e0" stroke="#999999" points="424.88,-19.25 362.38,-19.25 362.38,0 424.88,0 424.88,-19.25"/>
<text xml:space="preserve" text-anchor="middle" x="393.62" y="-5.75" font-family="Helvetica,sans-Serif" font-size="10.00">WiFiUdp.h</text>
</a>
</g>
</g>
<!-- Node2&#45;&gt;Node8 -->
<g id="edge7_Node000002_Node000008" class="edge">
<title>Node2&#45;&gt;Node8</title>
<g id="a_edge7_Node000002_Node000008"><a xlink:title=" ">
<path fill="none" stroke="#63b8ff" d="M256.62,-54.84C283.64,-46.12 324.78,-32.84 354.93,-23.11"/>
<polygon fill="#63b8ff" stroke="#63b8ff" points="355.62,-26.57 364.06,-20.17 353.47,-19.91 355.62,-26.57"/>
</a>
</g>
</g>
<!-- Node9 -->
<g id="Node000009" class="node">
<title>Node9</title>
<g id="a_Node000009"><a xlink:title=" ">
<polygon fill="#e0e0e0" stroke="#999999" points="520.75,-19.25 442.5,-19.25 442.5,0 520.75,0 520.75,-19.25"/>
<text xml:space="preserve" text-anchor="middle" x="481.62" y="-5.75" font-family="Helvetica,sans-Serif" font-size="10.00">ArduinoJson.h</text>
</a>
</g>
</g>
<!-- Node2&#45;&gt;Node9 -->
<g id="edge8_Node000002_Node000009" class="edge">
<title>Node2&#45;&gt;Node9</title>
<g id="a_edge8_Node000002_Node000009"><a xlink:title=" ">
<path fill="none" stroke="#63b8ff" d="M270.4,-55.08C314.49,-45.8 383.98,-31.18 431.11,-21.26"/>
<polygon fill="#63b8ff" stroke="#63b8ff" points="431.74,-24.7 440.8,-19.22 430.3,-17.85 431.74,-24.7"/>
</a>
</g>
</g>
</g>
</svg>
