<?xml version="1.0" encoding="UTF-8" standalone="no"?>
<!DOCTYPE svg PUBLIC "-//W3C//DTD SVG 1.1//EN"
 "http://www.w3.org/Graphics/SVG/1.1/DTD/svg11.dtd">
<!-- Generated by graphviz version 13.1.0 (20250701.0955)
 -->
<!-- Title: include/TimeManager.h Pages: 1 -->
<svg width="1035pt" height="414pt"
 viewBox="0.00 0.00 1035.00 414.00" xmlns="http://www.w3.org/2000/svg" xmlns:xlink="http://www.w3.org/1999/xlink">
<g id="graph0" class="graph" transform="scale(1 1) rotate(0) translate(4 410)">
<title>include/TimeManager.h</title>
<!-- Node1 -->
<g id="Node000001" class="node">
<title>Node1</title>
<g id="a_Node000001"><a xlink:title="Real&#45;time clock and time synchronization management.">
<polygon fill="#999999" stroke="#666666" points="947.25,-406 830.75,-406 830.75,-386.75 947.25,-386.75 947.25,-406"/>
<text xml:space="preserve" text-anchor="middle" x="889" y="-392.5" font-family="Helvetica,sans-Serif" font-size="10.00">include/TimeManager.h</text>
</a>
</g>
</g>
<!-- Node2 -->
<g id="Node000002" class="node">
<title>Node2</title>
<g id="a_Node000002"><a xlink:href="_logger_manager_8h.html" target="_top" xlink:title="Comprehensive data and event logging system for temperature monitoring.">
<polygon fill="white" stroke="#666666" points="685,-350.75 561,-350.75 561,-331.5 685,-331.5 685,-350.75"/>
<text xml:space="preserve" text-anchor="middle" x="623" y="-337.25" font-family="Helvetica,sans-Serif" font-size="10.00">include/LoggerManager.h</text>
</a>
</g>
</g>
<!-- Node1&#45;&gt;Node2 -->
<g id="edge1_Node000001_Node000002" class="edge">
<title>Node1&#45;&gt;Node2</title>
<g id="a_edge1_Node000001_Node000002"><a xlink:title=" ">
<path fill="none" stroke="#63b8ff" d="M832.53,-384.07C783.56,-374.27 713.6,-360.26 668.24,-351.18"/>
<polygon fill="#63b8ff" stroke="#63b8ff" points="831.6,-387.45 842.09,-385.98 832.97,-380.59 831.6,-387.45"/>
</a>
</g>
</g>
<!-- Node8 -->
<g id="Node000008" class="node">
<title>Node8</title>
<g id="a_Node000008"><a xlink:href="main_8cpp.html" target="_top" xlink:title="Main application entry point for Industrial Temperature Monitoring System.">
<polygon fill="white" stroke="#666666" points="724.12,-19.25 651.88,-19.25 651.88,0 724.12,0 724.12,-19.25"/>
<text xml:space="preserve" text-anchor="middle" x="688" y="-5.75" font-family="Helvetica,sans-Serif" font-size="10.00">src/main.cpp</text>
</a>
</g>
</g>
<!-- Node1&#45;&gt;Node8 -->
<g id="edge36_Node000001_Node000008" class="edge">
<title>Node1&#45;&gt;Node8</title>
<g id="a_edge36_Node000001_Node000008"><a xlink:title=" ">
<path fill="none" stroke="#63b8ff" d="M889,-375.01C889,-353.2 889,-317.59 889,-286.88 889,-286.88 889,-286.88 889,-119.12 889,-45.17 782.32,-21.38 724.4,-13.92"/>
<polygon fill="#63b8ff" stroke="#63b8ff" points="885.5,-374.86 889,-384.86 892.5,-374.86 885.5,-374.86"/>
</a>
</g>
</g>
<!-- Node21 -->
<g id="Node000021" class="node">
<title>Node21</title>
<g id="a_Node000021"><a xlink:href="_time_manager_8cpp.html" target="_top" xlink:title="Implementation of real&#45;time clock and time synchronization management.">
<polygon fill="white" stroke="#666666" points="1026.88,-350.75 917.12,-350.75 917.12,-331.5 1026.88,-331.5 1026.88,-350.75"/>
<text xml:space="preserve" text-anchor="middle" x="972" y="-337.25" font-family="Helvetica,sans-Serif" font-size="10.00">src/TimeManager.cpp</text>
</a>
</g>
</g>
<!-- Node1&#45;&gt;Node21 -->
<g id="edge35_Node000001_Node000021" class="edge">
<title>Node1&#45;&gt;Node21</title>
<g id="a_edge35_Node000001_Node000021"><a xlink:title=" ">
<path fill="none" stroke="#63b8ff" d="M912.49,-380.3C927.11,-370.92 945.43,-359.17 957.85,-351.2"/>
<polygon fill="#63b8ff" stroke="#63b8ff" points="910.88,-377.18 904.35,-385.52 914.66,-383.07 910.88,-377.18"/>
</a>
</g>
</g>
<!-- Node3 -->
<g id="Node000003" class="node">
<title>Node3</title>
<g id="a_Node000003"><a xlink:href="_alarm_8h.html" target="_top" xlink:title="Alarm management system for temperature monitoring.">
<polygon fill="white" stroke="#666666" points="594.75,-240.25 511.25,-240.25 511.25,-221 594.75,-221 594.75,-240.25"/>
<text xml:space="preserve" text-anchor="middle" x="553" y="-226.75" font-family="Helvetica,sans-Serif" font-size="10.00">include/Alarm.h</text>
</a>
</g>
</g>
<!-- Node2&#45;&gt;Node3 -->
<g id="edge2_Node000002_Node000003" class="edge">
<title>Node2&#45;&gt;Node3</title>
<g id="a_edge2_Node000002_Node000003"><a xlink:title=" ">
<path fill="none" stroke="#63b8ff" d="M611.12,-321.72C595.94,-298.19 570.26,-258.37 558.81,-240.63"/>
<polygon fill="#63b8ff" stroke="#63b8ff" points="608.09,-323.47 616.45,-329.97 613.97,-319.67 608.09,-323.47"/>
</a>
</g>
</g>
<!-- Node6 -->
<g id="Node000006" class="node">
<title>Node6</title>
<g id="a_Node000006"><a xlink:href="_config_manager_8h.html" target="_top" xlink:title="Configuration management system for temperature monitoring device.">
<polygon fill="white" stroke="#666666" points="298.62,-74.5 175.38,-74.5 175.38,-55.25 298.62,-55.25 298.62,-74.5"/>
<text xml:space="preserve" text-anchor="middle" x="237" y="-61" font-family="Helvetica,sans-Serif" font-size="10.00">include/ConfigManager.h</text>
</a>
</g>
</g>
<!-- Node2&#45;&gt;Node6 -->
<g id="edge15_Node000002_Node000006" class="edge">
<title>Node2&#45;&gt;Node6</title>
<g id="a_edge15_Node000002_Node000006"><a xlink:title=" ">
<path fill="none" stroke="#63b8ff" d="M549.7,-334.94C385.02,-322.31 0,-286.86 0,-231.62 0,-231.62 0,-231.62 0,-174.38 0,-97.33 104.82,-74.78 175.04,-68.31"/>
<polygon fill="#63b8ff" stroke="#63b8ff" points="548.95,-338.39 559.19,-335.66 549.48,-331.41 548.95,-338.39"/>
</a>
</g>
</g>
<!-- Node2&#45;&gt;Node8 -->
<g id="edge34_Node000002_Node000008" class="edge">
<title>Node2&#45;&gt;Node8</title>
<g id="a_edge34_Node000002_Node000008"><a xlink:title=" ">
<path fill="none" stroke="#63b8ff" d="M696.63,-335.19C763.25,-326.24 851,-301.24 851,-231.62 851,-231.62 851,-231.62 851,-119.12 851,-58.78 772.64,-29.96 724.58,-17.95"/>
<polygon fill="#63b8ff" stroke="#63b8ff" points="696.3,-331.7 686.8,-336.4 697.16,-338.65 696.3,-331.7"/>
</a>
</g>
</g>
<!-- Node10 -->
<g id="Node000010" class="node">
<title>Node10</title>
<g id="a_Node000010"><a xlink:href="_logger_manager_8cpp.html" target="_top" xlink:title="Implementation of data logging and event management system.">
<polygon fill="white" stroke="#666666" points="746.62,-129.75 629.38,-129.75 629.38,-110.5 746.62,-110.5 746.62,-129.75"/>
<text xml:space="preserve" text-anchor="middle" x="688" y="-116.25" font-family="Helvetica,sans-Serif" font-size="10.00">src/LoggerManager.cpp</text>
</a>
</g>
</g>
<!-- Node2&#45;&gt;Node10 -->
<g id="edge33_Node000002_Node000010" class="edge">
<title>Node2&#45;&gt;Node10</title>
<g id="a_edge33_Node000002_Node000010"><a xlink:title=" ">
<path fill="none" stroke="#63b8ff" d="M668.89,-327.53C709.85,-313.58 767.35,-286.68 794,-240.25 820.87,-193.43 745.3,-148.82 707.76,-130.22"/>
<polygon fill="#63b8ff" stroke="#63b8ff" points="667.94,-324.16 659.52,-330.58 670.11,-330.81 667.94,-324.16"/>
</a>
</g>
</g>
<!-- Node13 -->
<g id="Node000013" class="node">
<title>Node13</title>
<g id="a_Node000013"><a xlink:href="_alarm_8cpp.html" target="_top" xlink:title="Implementation of alarm management system for temperature monitoring.">
<polygon fill="white" stroke="#666666" points="601.38,-185 524.62,-185 524.62,-165.75 601.38,-165.75 601.38,-185"/>
<text xml:space="preserve" text-anchor="middle" x="563" y="-171.5" font-family="Helvetica,sans-Serif" font-size="10.00">src/Alarm.cpp</text>
</a>
</g>
</g>
<!-- Node2&#45;&gt;Node13 -->
<g id="edge32_Node000002_Node000013" class="edge">
<title>Node2&#45;&gt;Node13</title>
<g id="a_edge32_Node000002_Node000013"><a xlink:title=" ">
<path fill="none" stroke="#63b8ff" d="M623.26,-319.84C622.81,-295.25 619.54,-253.12 604,-221 597.04,-206.6 583.89,-193.57 574.35,-185.36"/>
<polygon fill="#63b8ff" stroke="#63b8ff" points="619.76,-319.73 623.28,-329.73 626.76,-319.72 619.76,-319.73"/>
</a>
</g>
</g>
<!-- Node14 -->
<g id="Node000014" class="node">
<title>Node14</title>
<g id="a_Node000014"><a xlink:href="_indicator_interface_8h.html" target="_top" xlink:title="Hardware interface for PCF8575 I/O expander and SH1106 OLED display.">
<polygon fill="white" stroke="#666666" points="784.88,-240.25 651.12,-240.25 651.12,-221 784.88,-221 784.88,-240.25"/>
<text xml:space="preserve" text-anchor="middle" x="718" y="-226.75" font-family="Helvetica,sans-Serif" font-size="10.00">include/IndicatorInterface.h</text>
</a>
</g>
</g>
<!-- Node2&#45;&gt;Node14 -->
<g id="edge16_Node000002_Node000014" class="edge">
<title>Node2&#45;&gt;Node14</title>
<g id="a_edge16_Node000002_Node000014"><a xlink:title=" ">
<path fill="none" stroke="#63b8ff" d="M638.29,-322.66C658.77,-299.27 694.37,-258.61 710.12,-240.63"/>
<polygon fill="#63b8ff" stroke="#63b8ff" points="635.73,-320.28 631.77,-330.11 640.99,-324.89 635.73,-320.28"/>
</a>
</g>
</g>
<!-- Node16 -->
<g id="Node000016" class="node">
<title>Node16</title>
<g id="a_Node000016"><a xlink:href="_measurement_point_8h.html" target="_top" xlink:title="Measurement point abstraction for temperature monitoring system.">
<polygon fill="white" stroke="#666666" points="527.88,-295.5 388.12,-295.5 388.12,-276.25 527.88,-276.25 527.88,-295.5"/>
<text xml:space="preserve" text-anchor="middle" x="458" y="-282" font-family="Helvetica,sans-Serif" font-size="10.00">include/MeasurementPoint.h</text>
</a>
</g>
</g>
<!-- Node2&#45;&gt;Node16 -->
<g id="edge20_Node000002_Node000016" class="edge">
<title>Node2&#45;&gt;Node16</title>
<g id="a_edge20_Node000002_Node000016"><a xlink:title=" ">
<path fill="none" stroke="#63b8ff" d="M584.06,-327.56C553.99,-317.85 513.08,-304.65 486.13,-295.95"/>
<polygon fill="#63b8ff" stroke="#63b8ff" points="582.98,-330.89 593.57,-330.63 585.13,-324.22 582.98,-330.89"/>
</a>
</g>
</g>
<!-- Node18 -->
<g id="Node000018" class="node">
<title>Node18</title>
<g id="a_Node000018"><a xlink:href="_temp_modbus_server_8h.html" target="_top" xlink:title="Modbus RTU server for temperature monitoring system.">
<polygon fill="white" stroke="#666666" points="172.12,-185 27.88,-185 27.88,-165.75 172.12,-165.75 172.12,-185"/>
<text xml:space="preserve" text-anchor="middle" x="100" y="-171.5" font-family="Helvetica,sans-Serif" font-size="10.00">include/TempModbusServer.h</text>
</a>
</g>
</g>
<!-- Node2&#45;&gt;Node18 -->
<g id="edge31_Node000002_Node000018" class="edge">
<title>Node2&#45;&gt;Node18</title>
<g id="a_edge31_Node000002_Node000018"><a xlink:title=" ">
<path fill="none" stroke="#63b8ff" d="M549.22,-331.85C431.57,-317.5 208.08,-285.17 143,-240.25 122.76,-226.28 109.4,-199.39 103.49,-185.38"/>
<polygon fill="#63b8ff" stroke="#63b8ff" points="548.76,-335.32 559.11,-333.04 549.6,-328.37 548.76,-335.32"/>
</a>
</g>
</g>
<!-- Node4 -->
<g id="Node000004" class="node">
<title>Node4</title>
<g id="a_Node000004"><a xlink:href="_temperature_controller_8h.html" target="_top" xlink:title="Central temperature monitoring and control system.">
<polygon fill="white" stroke="#666666" points="468.62,-185 315.38,-185 315.38,-165.75 468.62,-165.75 468.62,-185"/>
<text xml:space="preserve" text-anchor="middle" x="392" y="-171.5" font-family="Helvetica,sans-Serif" font-size="10.00">include/TemperatureController.h</text>
</a>
</g>
</g>
<!-- Node3&#45;&gt;Node4 -->
<g id="edge3_Node000003_Node000004" class="edge">
<title>Node3&#45;&gt;Node4</title>
<g id="a_edge3_Node000003_Node000004"><a xlink:title=" ">
<path fill="none" stroke="#63b8ff" d="M515.01,-217.06C485.66,-207.35 445.74,-194.15 419.45,-185.45"/>
<polygon fill="#63b8ff" stroke="#63b8ff" points="513.66,-220.3 524.25,-220.12 515.86,-213.65 513.66,-220.3"/>
</a>
</g>
</g>
<!-- Node3&#45;&gt;Node13 -->
<g id="edge14_Node000003_Node000013" class="edge">
<title>Node3&#45;&gt;Node13</title>
<g id="a_edge14_Node000003_Node000013"><a xlink:title=" ">
<path fill="none" stroke="#63b8ff" d="M556.75,-209.67C558.32,-201.3 560.07,-192 561.31,-185.36"/>
<polygon fill="#63b8ff" stroke="#63b8ff" points="553.34,-208.87 554.93,-219.34 560.22,-210.16 553.34,-208.87"/>
</a>
</g>
</g>
<!-- Node5 -->
<g id="Node000005" class="node">
<title>Node5</title>
<g id="a_Node000005"><a xlink:href="_c_s_v_config_manager_8h.html" target="_top" xlink:title="CSV configuration import/export manager for measurement points and alarms.">
<polygon fill="white" stroke="#666666" points="409.12,-129.75 264.88,-129.75 264.88,-110.5 409.12,-110.5 409.12,-129.75"/>
<text xml:space="preserve" text-anchor="middle" x="337" y="-116.25" font-family="Helvetica,sans-Serif" font-size="10.00">include/CSVConfigManager.h</text>
</a>
</g>
</g>
<!-- Node4&#45;&gt;Node5 -->
<g id="edge4_Node000004_Node000005" class="edge">
<title>Node4&#45;&gt;Node5</title>
<g id="a_edge4_Node000004_Node000005"><a xlink:title=" ">
<path fill="none" stroke="#63b8ff" d="M374.65,-157.57C365.25,-148.48 354.02,-137.6 346.28,-130.11"/>
<polygon fill="#63b8ff" stroke="#63b8ff" points="372.21,-160.09 381.83,-164.53 377.08,-155.06 372.21,-160.09"/>
</a>
</g>
</g>
<!-- Node4&#45;&gt;Node6 -->
<g id="edge9_Node000004_Node000006" class="edge">
<title>Node4&#45;&gt;Node6</title>
<g id="a_edge9_Node000004_Node000006"><a xlink:title=" ">
<path fill="none" stroke="#63b8ff" d="M312.65,-162.13C291.94,-155.53 271.2,-145.38 256,-129.75 241.16,-114.49 237.84,-88.17 237.14,-74.57"/>
<polygon fill="#63b8ff" stroke="#63b8ff" points="311.42,-165.42 322,-164.85 313.37,-158.7 311.42,-165.42"/>
</a>
</g>
</g>
<!-- Node4&#45;&gt;Node8 -->
<g id="edge13_Node000004_Node000008" class="edge">
<title>Node4&#45;&gt;Node8</title>
<g id="a_edge13_Node000004_Node000008"><a xlink:title=" ">
<path fill="none" stroke="#63b8ff" d="M480.31,-165.14C513.89,-158.76 551.4,-147.98 582,-129.75 630.76,-100.71 669.4,-41.79 682.86,-19.47"/>
<polygon fill="#63b8ff" stroke="#63b8ff" points="479.81,-161.67 470.58,-166.87 481.04,-168.56 479.81,-161.67"/>
</a>
</g>
</g>
<!-- Node4&#45;&gt;Node10 -->
<g id="edge10_Node000004_Node000010" class="edge">
<title>Node4&#45;&gt;Node10</title>
<g id="a_edge10_Node000004_Node000010"><a xlink:title=" ">
<path fill="none" stroke="#63b8ff" d="M453.8,-163.26C508.35,-153.44 586.87,-139.32 637.66,-130.18"/>
<polygon fill="#63b8ff" stroke="#63b8ff" points="453.26,-159.8 444.04,-165.01 454.5,-166.69 453.26,-159.8"/>
</a>
</g>
</g>
<!-- Node11 -->
<g id="Node000011" class="node">
<title>Node11</title>
<g id="a_Node000011"><a xlink:href="_temp_modbus_server_8cpp.html" target="_top" xlink:title="Implementation of Modbus RTU server for temperature monitoring.">
<polygon fill="white" stroke="#666666" points="208.75,-129.75 71.25,-129.75 71.25,-110.5 208.75,-110.5 208.75,-129.75"/>
<text xml:space="preserve" text-anchor="middle" x="140" y="-116.25" font-family="Helvetica,sans-Serif" font-size="10.00">src/TempModbusServer.cpp</text>
</a>
</g>
</g>
<!-- Node4&#45;&gt;Node11 -->
<g id="edge11_Node000004_Node000011" class="edge">
<title>Node4&#45;&gt;Node11</title>
<g id="a_edge11_Node000004_Node000011"><a xlink:title=" ">
<path fill="none" stroke="#63b8ff" d="M337.92,-162.95C291.55,-153.15 225.65,-139.22 182.86,-130.18"/>
<polygon fill="#63b8ff" stroke="#63b8ff" points="336.98,-166.33 347.49,-164.97 338.42,-159.48 336.98,-166.33"/>
</a>
</g>
</g>
<!-- Node12 -->
<g id="Node000012" class="node">
<title>Node12</title>
<g id="a_Node000012"><a xlink:href="_temperature_controller_8cpp.html" target="_top" xlink:title="Implementation of the central temperature monitoring and control system.">
<polygon fill="white" stroke="#666666" points="573.25,-129.75 426.75,-129.75 426.75,-110.5 573.25,-110.5 573.25,-129.75"/>
<text xml:space="preserve" text-anchor="middle" x="500" y="-116.25" font-family="Helvetica,sans-Serif" font-size="10.00">src/TemperatureController.cpp</text>
</a>
</g>
</g>
<!-- Node4&#45;&gt;Node12 -->
<g id="edge12_Node000004_Node000012" class="edge">
<title>Node4&#45;&gt;Node12</title>
<g id="a_edge12_Node000004_Node000012"><a xlink:title=" ">
<path fill="none" stroke="#63b8ff" d="M420.39,-160.37C439.75,-150.83 464.8,-138.48 481.59,-130.2"/>
<polygon fill="#63b8ff" stroke="#63b8ff" points="419.1,-157.11 411.68,-164.67 422.2,-163.39 419.1,-157.11"/>
</a>
</g>
</g>
<!-- Node5&#45;&gt;Node6 -->
<g id="edge5_Node000005_Node000006" class="edge">
<title>Node5&#45;&gt;Node6</title>
<g id="a_edge5_Node000005_Node000006"><a xlink:title=" ">
<path fill="none" stroke="#63b8ff" d="M309.96,-104.73C292.15,-95.24 269.37,-83.11 254.05,-74.95"/>
<polygon fill="#63b8ff" stroke="#63b8ff" points="308.23,-107.77 318.7,-109.38 311.52,-101.59 308.23,-107.77"/>
</a>
</g>
</g>
<!-- Node9 -->
<g id="Node000009" class="node">
<title>Node9</title>
<g id="a_Node000009"><a xlink:href="_c_s_v_config_manager_8cpp.html" target="_top" xlink:title="Implementation of CSV configuration management for measurement points.">
<polygon fill="white" stroke="#666666" points="453.75,-74.5 316.25,-74.5 316.25,-55.25 453.75,-55.25 453.75,-74.5"/>
<text xml:space="preserve" text-anchor="middle" x="385" y="-61" font-family="Helvetica,sans-Serif" font-size="10.00">src/CSVConfigManager.cpp</text>
</a>
</g>
</g>
<!-- Node5&#45;&gt;Node9 -->
<g id="edge8_Node000005_Node000009" class="edge">
<title>Node5&#45;&gt;Node9</title>
<g id="a_edge8_Node000005_Node000009"><a xlink:title=" ">
<path fill="none" stroke="#63b8ff" d="M352.4,-102.04C360.55,-93 370.22,-82.27 376.9,-74.86"/>
<polygon fill="#63b8ff" stroke="#63b8ff" points="350.04,-99.44 345.94,-109.21 355.23,-104.12 350.04,-99.44"/>
</a>
</g>
</g>
<!-- Node7 -->
<g id="Node000007" class="node">
<title>Node7</title>
<g id="a_Node000007"><a xlink:href="_config_manager_8cpp.html" target="_top" xlink:title="Implementation of web&#45;based configuration management system.">
<polygon fill="white" stroke="#666666" points="295.25,-19.25 178.75,-19.25 178.75,0 295.25,0 295.25,-19.25"/>
<text xml:space="preserve" text-anchor="middle" x="237" y="-5.75" font-family="Helvetica,sans-Serif" font-size="10.00">src/ConfigManager.cpp</text>
</a>
</g>
</g>
<!-- Node6&#45;&gt;Node7 -->
<g id="edge6_Node000006_Node000007" class="edge">
<title>Node6&#45;&gt;Node7</title>
<g id="a_edge6_Node000006_Node000007"><a xlink:title=" ">
<path fill="none" stroke="#63b8ff" d="M237,-43.63C237,-35.34 237,-26.17 237,-19.61"/>
<polygon fill="#63b8ff" stroke="#63b8ff" points="233.5,-43.57 237,-53.57 240.5,-43.57 233.5,-43.57"/>
</a>
</g>
</g>
<!-- Node6&#45;&gt;Node8 -->
<g id="edge7_Node000006_Node000008" class="edge">
<title>Node6&#45;&gt;Node8</title>
<g id="a_edge7_Node000006_Node000008"><a xlink:title=" ">
<path fill="none" stroke="#63b8ff" d="M309.91,-54.91C441.61,-39.11 585.47,-22.44 651.48,-14.83"/>
<polygon fill="#63b8ff" stroke="#63b8ff" points="309.85,-51.39 300.34,-56.06 310.68,-58.34 309.85,-51.39"/>
</a>
</g>
</g>
<!-- Node14&#45;&gt;Node4 -->
<g id="edge17_Node000014_Node000004" class="edge">
<title>Node14&#45;&gt;Node4</title>
<g id="a_edge17_Node000014_Node000004"><a xlink:title=" ">
<path fill="none" stroke="#63b8ff" d="M651.08,-218.69C591.06,-208.89 504.02,-194.67 447.71,-185.48"/>
<polygon fill="#63b8ff" stroke="#63b8ff" points="650.4,-222.13 660.84,-220.29 651.53,-215.22 650.4,-222.13"/>
</a>
</g>
</g>
<!-- Node14&#45;&gt;Node8 -->
<g id="edge19_Node000014_Node000008" class="edge">
<title>Node14&#45;&gt;Node8</title>
<g id="a_edge19_Node000014_Node000008"><a xlink:title=" ">
<path fill="none" stroke="#63b8ff" d="M737.36,-212.73C744.68,-205.09 752.16,-195.43 756,-185 767.44,-153.93 765.75,-142.14 756,-110.5 744.26,-72.41 712.49,-35.84 696.89,-19.52"/>
<polygon fill="#63b8ff" stroke="#63b8ff" points="734.94,-210.2 730.16,-219.65 739.8,-215.24 734.94,-210.2"/>
</a>
</g>
</g>
<!-- Node15 -->
<g id="Node000015" class="node">
<title>Node15</title>
<g id="a_Node000015"><a xlink:href="_indicator_interface_8cpp.html" target="_top" xlink:title="Implementation of user interface with OLED display and input handling.">
<polygon fill="white" stroke="#666666" points="746.5,-185 619.5,-185 619.5,-165.75 746.5,-165.75 746.5,-185"/>
<text xml:space="preserve" text-anchor="middle" x="683" y="-171.5" font-family="Helvetica,sans-Serif" font-size="10.00">src/IndicatorInterface.cpp</text>
</a>
</g>
</g>
<!-- Node14&#45;&gt;Node15 -->
<g id="edge18_Node000014_Node000015" class="edge">
<title>Node14&#45;&gt;Node15</title>
<g id="a_edge18_Node000014_Node000015"><a xlink:title=" ">
<path fill="none" stroke="#63b8ff" d="M706.02,-211.4C700.25,-202.61 693.57,-192.46 688.91,-185.36"/>
<polygon fill="#63b8ff" stroke="#63b8ff" points="702.97,-213.13 711.39,-219.57 708.82,-209.29 702.97,-213.13"/>
</a>
</g>
</g>
<!-- Node16&#45;&gt;Node3 -->
<g id="edge21_Node000016_Node000003" class="edge">
<title>Node16&#45;&gt;Node3</title>
<g id="a_edge21_Node000016_Node000003"><a xlink:title=" ">
<path fill="none" stroke="#63b8ff" d="M483.93,-270.34C500.81,-260.88 522.31,-248.83 536.81,-240.7"/>
<polygon fill="#63b8ff" stroke="#63b8ff" points="482.45,-267.16 475.44,-275.1 485.87,-273.27 482.45,-267.16"/>
</a>
</g>
</g>
<!-- Node16&#45;&gt;Node4 -->
<g id="edge28_Node000016_Node000004" class="edge">
<title>Node16&#45;&gt;Node4</title>
<g id="a_edge28_Node000016_Node000004"><a xlink:title=" ">
<path fill="none" stroke="#63b8ff" d="M449.42,-265.44C443.44,-252.52 434.95,-235.34 426,-221 417.85,-207.94 406.81,-194 399.55,-185.25"/>
<polygon fill="#63b8ff" stroke="#63b8ff" points="446.22,-266.86 453.53,-274.54 452.6,-263.98 446.22,-266.86"/>
</a>
</g>
</g>
<!-- Node16&#45;&gt;Node10 -->
<g id="edge29_Node000016_Node000010" class="edge">
<title>Node16&#45;&gt;Node10</title>
<g id="a_edge29_Node000016_Node000010"><a xlink:title=" ">
<path fill="none" stroke="#63b8ff" d="M462.26,-264.81C468.98,-238.14 484.65,-191.4 516,-165.75 533.91,-151.1 589.88,-138.3 633.16,-130.21"/>
<polygon fill="#63b8ff" stroke="#63b8ff" points="458.9,-263.8 460.05,-274.33 465.72,-265.38 458.9,-263.8"/>
</a>
</g>
</g>
<!-- Node17 -->
<g id="Node000017" class="node">
<title>Node17</title>
<g id="a_Node000017"><a xlink:href="_register_map_8h.html" target="_top" xlink:title="Modbus register mapping for temperature monitoring system.">
<polygon fill="white" stroke="#666666" points="265.75,-240.25 152.25,-240.25 152.25,-221 265.75,-221 265.75,-240.25"/>
<text xml:space="preserve" text-anchor="middle" x="209" y="-226.75" font-family="Helvetica,sans-Serif" font-size="10.00">include/RegisterMap.h</text>
</a>
</g>
</g>
<!-- Node16&#45;&gt;Node17 -->
<g id="edge22_Node000016_Node000017" class="edge">
<title>Node16&#45;&gt;Node17</title>
<g id="a_edge22_Node000016_Node000017"><a xlink:title=" ">
<path fill="none" stroke="#63b8ff" d="M404.27,-273.38C358.47,-263.59 293.54,-249.7 251.35,-240.68"/>
<polygon fill="#63b8ff" stroke="#63b8ff" points="403.49,-276.8 414,-275.46 404.95,-269.95 403.49,-276.8"/>
</a>
</g>
</g>
<!-- Node20 -->
<g id="Node000020" class="node">
<title>Node20</title>
<g id="a_Node000020"><a xlink:href="_measurement_point_8cpp.html" target="_top" xlink:title="Implementation of temperature measurement point management.">
<polygon fill="white" stroke="#666666" points="416.5,-240.25 283.5,-240.25 283.5,-221 416.5,-221 416.5,-240.25"/>
<text xml:space="preserve" text-anchor="middle" x="350" y="-226.75" font-family="Helvetica,sans-Serif" font-size="10.00">src/MeasurementPoint.cpp</text>
</a>
</g>
</g>
<!-- Node16&#45;&gt;Node20 -->
<g id="edge30_Node000016_Node000020" class="edge">
<title>Node16&#45;&gt;Node20</title>
<g id="a_edge30_Node000016_Node000020"><a xlink:title=" ">
<path fill="none" stroke="#63b8ff" d="M429.61,-270.87C410.25,-261.33 385.2,-248.98 368.41,-240.7"/>
<polygon fill="#63b8ff" stroke="#63b8ff" points="427.8,-273.89 438.32,-275.17 430.9,-267.61 427.8,-273.89"/>
</a>
</g>
</g>
<!-- Node17&#45;&gt;Node4 -->
<g id="edge26_Node000017_Node000004" class="edge">
<title>Node17&#45;&gt;Node4</title>
<g id="a_edge26_Node000017_Node000004"><a xlink:title=" ">
<path fill="none" stroke="#63b8ff" d="M250.87,-217.44C284.34,-207.7 330.52,-194.27 360.8,-185.45"/>
<polygon fill="#63b8ff" stroke="#63b8ff" points="250.12,-214.01 241.5,-220.17 252.08,-220.74 250.12,-214.01"/>
</a>
</g>
</g>
<!-- Node17&#45;&gt;Node18 -->
<g id="edge23_Node000017_Node000018" class="edge">
<title>Node17&#45;&gt;Node18</title>
<g id="a_edge23_Node000017_Node000018"><a xlink:title=" ">
<path fill="none" stroke="#63b8ff" d="M180.34,-215.62C160.81,-206.08 135.52,-193.73 118.58,-185.45"/>
<polygon fill="#63b8ff" stroke="#63b8ff" points="178.63,-218.68 189.15,-219.93 181.7,-212.39 178.63,-218.68"/>
</a>
</g>
</g>
<!-- Node19 -->
<g id="Node000019" class="node">
<title>Node19</title>
<g id="a_Node000019"><a xlink:href="_register_map_8cpp.html" target="_top" xlink:title="Implementation of Modbus register mapping for temperature monitoring.">
<polygon fill="white" stroke="#666666" points="297.38,-185 190.62,-185 190.62,-165.75 297.38,-165.75 297.38,-185"/>
<text xml:space="preserve" text-anchor="middle" x="244" y="-171.5" font-family="Helvetica,sans-Serif" font-size="10.00">src/RegisterMap.cpp</text>
</a>
</g>
</g>
<!-- Node17&#45;&gt;Node19 -->
<g id="edge27_Node000017_Node000019" class="edge">
<title>Node17&#45;&gt;Node19</title>
<g id="a_edge27_Node000017_Node000019"><a xlink:title=" ">
<path fill="none" stroke="#63b8ff" d="M220.98,-211.4C226.75,-202.61 233.43,-192.46 238.09,-185.36"/>
<polygon fill="#63b8ff" stroke="#63b8ff" points="218.18,-209.29 215.61,-219.57 224.03,-213.13 218.18,-209.29"/>
</a>
</g>
</g>
<!-- Node18&#45;&gt;Node8 -->
<g id="edge25_Node000018_Node000008" class="edge">
<title>Node18&#45;&gt;Node8</title>
<g id="a_edge25_Node000018_Node000008"><a xlink:title=" ">
<path fill="none" stroke="#63b8ff" d="M79.15,-157.64C65.72,-144.74 52.4,-126.47 62,-110.5 88.97,-65.64 115.8,-70.06 166,-55.25 257.38,-28.3 548.79,-15.57 651.63,-11.84"/>
<polygon fill="#63b8ff" stroke="#63b8ff" points="76.82,-160.25 86.63,-164.26 81.46,-155.01 76.82,-160.25"/>
</a>
</g>
</g>
<!-- Node18&#45;&gt;Node11 -->
<g id="edge24_Node000018_Node000011" class="edge">
<title>Node18&#45;&gt;Node11</title>
<g id="a_edge24_Node000018_Node000011"><a xlink:title=" ">
<path fill="none" stroke="#63b8ff" d="M113.47,-156.44C120.12,-147.59 127.86,-137.29 133.25,-130.11"/>
<polygon fill="#63b8ff" stroke="#63b8ff" points="110.72,-154.27 107.51,-164.37 116.32,-158.48 110.72,-154.27"/>
</a>
</g>
</g>
</g>
</svg>
