<?xml version="1.0" encoding="UTF-8" standalone="no"?>
<!DOCTYPE svg PUBLIC "-//W3C//DTD SVG 1.1//EN"
 "http://www.w3.org/Graphics/SVG/1.1/DTD/svg11.dtd">
<!-- Generated by graphviz version 13.1.0 (20250701.0955)
 -->
<!-- Title: include/TimeManager.h Pages: 1 -->
<svg width="529pt" height="83pt"
 viewBox="0.00 0.00 529.00 83.00" xmlns="http://www.w3.org/2000/svg" xmlns:xlink="http://www.w3.org/1999/xlink">
<g id="graph0" class="graph" transform="scale(1 1) rotate(0) translate(4 78.5)">
<title>include/TimeManager.h</title>
<!-- Node1 -->
<g id="Node000001" class="node">
<title>Node1</title>
<g id="a_Node000001"><a xlink:title="Real&#45;time clock and time synchronization management.">
<polygon fill="#999999" stroke="#666666" points="286.88,-74.5 170.38,-74.5 170.38,-55.25 286.88,-55.25 286.88,-74.5"/>
<text xml:space="preserve" text-anchor="middle" x="228.62" y="-61" font-family="Helvetica,sans-Serif" font-size="10.00">include/TimeManager.h</text>
</a>
</g>
</g>
<!-- Node2 -->
<g id="Node000002" class="node">
<title>Node2</title>
<g id="a_Node000002"><a xlink:title=" ">
<polygon fill="#e0e0e0" stroke="#999999" points="57.25,-19.25 0,-19.25 0,0 57.25,0 57.25,-19.25"/>
<text xml:space="preserve" text-anchor="middle" x="28.62" y="-5.75" font-family="Helvetica,sans-Serif" font-size="10.00">Arduino.h</text>
</a>
</g>
</g>
<!-- Node1&#45;&gt;Node2 -->
<g id="edge1_Node000001_Node000002" class="edge">
<title>Node1&#45;&gt;Node2</title>
<g id="a_edge1_Node000001_Node000002"><a xlink:title=" ">
<path fill="none" stroke="#63b8ff" d="M194.7,-54.84C159.75,-45.54 105.32,-31.05 68.38,-21.21"/>
<polygon fill="#63b8ff" stroke="#63b8ff" points="69.54,-17.9 58.98,-18.71 67.74,-24.66 69.54,-17.9"/>
</a>
</g>
</g>
<!-- Node3 -->
<g id="Node000003" class="node">
<title>Node3</title>
<g id="a_Node000003"><a xlink:title=" ">
<polygon fill="#e0e0e0" stroke="#999999" points="119.88,-19.25 75.38,-19.25 75.38,0 119.88,0 119.88,-19.25"/>
<text xml:space="preserve" text-anchor="middle" x="97.62" y="-5.75" font-family="Helvetica,sans-Serif" font-size="10.00">WiFi.h</text>
</a>
</g>
</g>
<!-- Node1&#45;&gt;Node3 -->
<g id="edge2_Node000001_Node000003" class="edge">
<title>Node1&#45;&gt;Node3</title>
<g id="a_edge2_Node000001_Node000003"><a xlink:title=" ">
<path fill="none" stroke="#63b8ff" d="M206.4,-54.84C185.61,-46.39 154.28,-33.65 130.57,-24.02"/>
<polygon fill="#63b8ff" stroke="#63b8ff" points="131.94,-20.8 121.36,-20.27 129.3,-27.28 131.94,-20.8"/>
</a>
</g>
</g>
<!-- Node4 -->
<g id="Node000004" class="node">
<title>Node4</title>
<g id="a_Node000004"><a xlink:title=" ">
<polygon fill="#e0e0e0" stroke="#999999" points="182.88,-19.25 138.38,-19.25 138.38,0 182.88,0 182.88,-19.25"/>
<text xml:space="preserve" text-anchor="middle" x="160.62" y="-5.75" font-family="Helvetica,sans-Serif" font-size="10.00">Wire.h</text>
</a>
</g>
</g>
<!-- Node1&#45;&gt;Node4 -->
<g id="edge3_Node000001_Node000004" class="edge">
<title>Node1&#45;&gt;Node4</title>
<g id="a_edge3_Node000001_Node000004"><a xlink:title=" ">
<path fill="none" stroke="#63b8ff" d="M217.09,-54.84C207.16,-47.07 192.61,-35.67 180.77,-26.4"/>
<polygon fill="#63b8ff" stroke="#63b8ff" points="183.21,-23.87 173.18,-20.46 178.9,-29.38 183.21,-23.87"/>
</a>
</g>
</g>
<!-- Node5 -->
<g id="Node000005" class="node">
<title>Node5</title>
<g id="a_Node000005"><a xlink:title=" ">
<polygon fill="#e0e0e0" stroke="#999999" points="256.12,-19.25 201.12,-19.25 201.12,0 256.12,0 256.12,-19.25"/>
<text xml:space="preserve" text-anchor="middle" x="228.62" y="-5.75" font-family="Helvetica,sans-Serif" font-size="10.00">RTClib.h</text>
</a>
</g>
</g>
<!-- Node1&#45;&gt;Node5 -->
<g id="edge4_Node000001_Node000005" class="edge">
<title>Node1&#45;&gt;Node5</title>
<g id="a_edge4_Node000001_Node000005"><a xlink:title=" ">
<path fill="none" stroke="#63b8ff" d="M228.62,-55.08C228.62,-48.57 228.62,-39.42 228.62,-31.12"/>
<polygon fill="#63b8ff" stroke="#63b8ff" points="232.13,-31.12 228.63,-21.12 225.13,-31.12 232.13,-31.12"/>
</a>
</g>
</g>
<!-- Node6 -->
<g id="Node000006" class="node">
<title>Node6</title>
<g id="a_Node000006"><a xlink:title=" ">
<polygon fill="#e0e0e0" stroke="#999999" points="344.62,-19.25 274.62,-19.25 274.62,0 344.62,0 344.62,-19.25"/>
<text xml:space="preserve" text-anchor="middle" x="309.62" y="-5.75" font-family="Helvetica,sans-Serif" font-size="10.00">NTPClient.h</text>
</a>
</g>
</g>
<!-- Node1&#45;&gt;Node6 -->
<g id="edge5_Node000001_Node000006" class="edge">
<title>Node1&#45;&gt;Node6</title>
<g id="a_edge5_Node000001_Node000006"><a xlink:title=" ">
<path fill="none" stroke="#63b8ff" d="M242.37,-54.84C254.35,-46.96 272,-35.36 286.21,-26.02"/>
<polygon fill="#63b8ff" stroke="#63b8ff" points="288.12,-28.95 294.55,-20.53 284.27,-23.1 288.12,-28.95"/>
</a>
</g>
</g>
<!-- Node7 -->
<g id="Node000007" class="node">
<title>Node7</title>
<g id="a_Node000007"><a xlink:title=" ">
<polygon fill="#e0e0e0" stroke="#999999" points="424.88,-19.25 362.38,-19.25 362.38,0 424.88,0 424.88,-19.25"/>
<text xml:space="preserve" text-anchor="middle" x="393.62" y="-5.75" font-family="Helvetica,sans-Serif" font-size="10.00">WiFiUdp.h</text>
</a>
</g>
</g>
<!-- Node1&#45;&gt;Node7 -->
<g id="edge6_Node000001_Node000007" class="edge">
<title>Node1&#45;&gt;Node7</title>
<g id="a_edge6_Node000001_Node000007"><a xlink:title=" ">
<path fill="none" stroke="#63b8ff" d="M256.62,-54.84C283.64,-46.12 324.78,-32.84 354.93,-23.11"/>
<polygon fill="#63b8ff" stroke="#63b8ff" points="355.62,-26.57 364.06,-20.17 353.47,-19.91 355.62,-26.57"/>
</a>
</g>
</g>
<!-- Node8 -->
<g id="Node000008" class="node">
<title>Node8</title>
<g id="a_Node000008"><a xlink:title=" ">
<polygon fill="#e0e0e0" stroke="#999999" points="520.75,-19.25 442.5,-19.25 442.5,0 520.75,0 520.75,-19.25"/>
<text xml:space="preserve" text-anchor="middle" x="481.62" y="-5.75" font-family="Helvetica,sans-Serif" font-size="10.00">ArduinoJson.h</text>
</a>
</g>
</g>
<!-- Node1&#45;&gt;Node8 -->
<g id="edge7_Node000001_Node000008" class="edge">
<title>Node1&#45;&gt;Node8</title>
<g id="a_edge7_Node000001_Node000008"><a xlink:title=" ">
<path fill="none" stroke="#63b8ff" d="M271.83,-54.78C316.03,-45.48 384.65,-31.04 431.28,-21.22"/>
<polygon fill="#63b8ff" stroke="#63b8ff" points="431.8,-24.69 440.86,-19.2 430.35,-17.84 431.8,-24.69"/>
</a>
</g>
</g>
</g>
</svg>
