<?xml version="1.0" encoding="UTF-8" standalone="no"?>
<!DOCTYPE svg PUBLIC "-//W3C//DTD SVG 1.1//EN"
 "http://www.w3.org/Graphics/SVG/1.1/DTD/svg11.dtd">
<!-- Generated by graphviz version 13.1.0 (20250701.0955)
 -->
<!-- Title: IndicatorInterface::_clearInterrupt Pages: 1 -->
<svg width="493pt" height="210pt"
 viewBox="0.00 0.00 493.00 210.00" xmlns="http://www.w3.org/2000/svg" xmlns:xlink="http://www.w3.org/1999/xlink">
<g id="graph0" class="graph" transform="scale(1 1) rotate(0) translate(4 205.5)">
<title>IndicatorInterface::_clearInterrupt</title>
<!-- Node1 -->
<g id="Node000001" class="node">
<title>Node1</title>
<g id="a_Node000001"><a xlink:title=" ">
<polygon fill="#999999" stroke="#666666" points="484.75,-78.5 393,-78.5 393,-48 484.75,-48 484.75,-78.5"/>
<text xml:space="preserve" text-anchor="start" x="401" y="-65" font-family="Helvetica,sans-Serif" font-size="10.00">IndicatorInterface</text>
<text xml:space="preserve" text-anchor="middle" x="438.88" y="-53.75" font-family="Helvetica,sans-Serif" font-size="10.00">::_clearInterrupt</text>
</a>
</g>
</g>
<!-- Node2 -->
<g id="Node000002" class="node">
<title>Node2</title>
<g id="a_Node000002"><a xlink:href="class_indicator_interface.html#a850e37bb28d58c3acad37496fa101e64" target="_top" xlink:title=" ">
<polygon fill="white" stroke="#666666" points="357,-103.5 265.25,-103.5 265.25,-73 357,-73 357,-103.5"/>
<text xml:space="preserve" text-anchor="start" x="273.25" y="-90" font-family="Helvetica,sans-Serif" font-size="10.00">IndicatorInterface</text>
<text xml:space="preserve" text-anchor="middle" x="311.12" y="-78.75" font-family="Helvetica,sans-Serif" font-size="10.00">::_writePCF</text>
</a>
</g>
</g>
<!-- Node1&#45;&gt;Node2 -->
<g id="edge1_Node000001_Node000002" class="edge">
<title>Node1&#45;&gt;Node2</title>
<g id="a_edge1_Node000001_Node000002"><a xlink:title=" ">
<path fill="none" stroke="#63b8ff" d="M381.79,-74.4C373.59,-76.03 365.23,-77.69 357.28,-79.27"/>
<polygon fill="#63b8ff" stroke="#63b8ff" points="382.22,-77.88 391.35,-72.5 380.86,-71.02 382.22,-77.88"/>
</a>
</g>
</g>
<!-- Node9 -->
<g id="Node000009" class="node">
<title>Node9</title>
<g id="a_Node000009"><a xlink:href="class_indicator_interface.html#a6083d92cd6b29de3ceb7a9619b9cb03b" target="_top" xlink:title=" ">
<polygon fill="white" stroke="#666666" points="357,-54.5 265.25,-54.5 265.25,-24 357,-24 357,-54.5"/>
<text xml:space="preserve" text-anchor="start" x="273.25" y="-41" font-family="Helvetica,sans-Serif" font-size="10.00">IndicatorInterface</text>
<text xml:space="preserve" text-anchor="middle" x="311.12" y="-29.75" font-family="Helvetica,sans-Serif" font-size="10.00">::begin</text>
</a>
</g>
</g>
<!-- Node1&#45;&gt;Node9 -->
<g id="edge8_Node000001_Node000009" class="edge">
<title>Node1&#45;&gt;Node9</title>
<g id="a_edge8_Node000001_Node000009"><a xlink:title=" ">
<path fill="none" stroke="#63b8ff" d="M381.79,-52.55C373.59,-50.98 365.23,-49.38 357.28,-47.87"/>
<polygon fill="#63b8ff" stroke="#63b8ff" points="380.87,-55.93 391.34,-54.37 382.18,-49.06 380.87,-55.93"/>
</a>
</g>
</g>
<!-- Node3 -->
<g id="Node000003" class="node">
<title>Node3</title>
<g id="a_Node000003"><a xlink:href="class_indicator_interface.html#a52dd1fa732e288e344fe017f100d6c0d" target="_top" xlink:title=" ">
<polygon fill="white" stroke="#666666" points="229.25,-177.5 137.5,-177.5 137.5,-147 229.25,-147 229.25,-177.5"/>
<text xml:space="preserve" text-anchor="start" x="145.5" y="-164" font-family="Helvetica,sans-Serif" font-size="10.00">IndicatorInterface</text>
<text xml:space="preserve" text-anchor="middle" x="183.38" y="-152.75" font-family="Helvetica,sans-Serif" font-size="10.00">::setAllOutputs</text>
</a>
</g>
</g>
<!-- Node2&#45;&gt;Node3 -->
<g id="edge2_Node000002_Node000003" class="edge">
<title>Node2&#45;&gt;Node3</title>
<g id="a_edge2_Node000002_Node000003"><a xlink:title=" ">
<path fill="none" stroke="#63b8ff" d="M274.95,-109.94C260.81,-118.56 244.33,-128.49 229.25,-137.25 224.01,-140.3 218.38,-143.49 212.95,-146.54"/>
<polygon fill="#63b8ff" stroke="#63b8ff" points="276.77,-112.93 283.48,-104.73 273.12,-106.96 276.77,-112.93"/>
</a>
</g>
</g>
<!-- Node6 -->
<g id="Node000006" class="node">
<title>Node6</title>
<g id="a_Node000006"><a xlink:href="class_indicator_interface.html#aac59d81d86b39af42b24afc4378736f9" target="_top" xlink:title=" ">
<polygon fill="white" stroke="#666666" points="229.25,-128.5 137.5,-128.5 137.5,-98 229.25,-98 229.25,-128.5"/>
<text xml:space="preserve" text-anchor="start" x="145.5" y="-115" font-family="Helvetica,sans-Serif" font-size="10.00">IndicatorInterface</text>
<text xml:space="preserve" text-anchor="middle" x="183.38" y="-103.75" font-family="Helvetica,sans-Serif" font-size="10.00">::setDirection</text>
</a>
</g>
</g>
<!-- Node2&#45;&gt;Node6 -->
<g id="edge5_Node000002_Node000006" class="edge">
<title>Node2&#45;&gt;Node6</title>
<g id="a_edge5_Node000002_Node000006"><a xlink:title=" ">
<path fill="none" stroke="#63b8ff" d="M254.04,-99.4C245.84,-101.03 237.48,-102.69 229.53,-104.27"/>
<polygon fill="#63b8ff" stroke="#63b8ff" points="254.47,-102.88 263.6,-97.5 253.11,-96.02 254.47,-102.88"/>
</a>
</g>
</g>
<!-- Node7 -->
<g id="Node000007" class="node">
<title>Node7</title>
<g id="a_Node000007"><a xlink:href="class_indicator_interface.html#a6b01cb93befc42d644388756ff986f6e" target="_top" xlink:title=" ">
<polygon fill="white" stroke="#666666" points="229.25,-79.5 137.5,-79.5 137.5,-49 229.25,-49 229.25,-79.5"/>
<text xml:space="preserve" text-anchor="start" x="145.5" y="-66" font-family="Helvetica,sans-Serif" font-size="10.00">IndicatorInterface</text>
<text xml:space="preserve" text-anchor="middle" x="183.38" y="-54.75" font-family="Helvetica,sans-Serif" font-size="10.00">::writePort</text>
</a>
</g>
</g>
<!-- Node2&#45;&gt;Node7 -->
<g id="edge6_Node000002_Node000007" class="edge">
<title>Node2&#45;&gt;Node7</title>
<g id="a_edge6_Node000002_Node000007"><a xlink:title=" ">
<path fill="none" stroke="#63b8ff" d="M254.04,-77.55C245.84,-75.98 237.48,-74.38 229.53,-72.87"/>
<polygon fill="#63b8ff" stroke="#63b8ff" points="253.12,-80.93 263.59,-79.37 254.43,-74.06 253.12,-80.93"/>
</a>
</g>
</g>
<!-- Node8 -->
<g id="Node000008" class="node">
<title>Node8</title>
<g id="a_Node000008"><a xlink:href="class_indicator_interface.html#afb68095f494956d24c4013a048b083bf" target="_top" xlink:title=" ">
<polygon fill="white" stroke="#666666" points="229.25,-30.5 137.5,-30.5 137.5,0 229.25,0 229.25,-30.5"/>
<text xml:space="preserve" text-anchor="start" x="145.5" y="-17" font-family="Helvetica,sans-Serif" font-size="10.00">IndicatorInterface</text>
<text xml:space="preserve" text-anchor="middle" x="183.38" y="-5.75" font-family="Helvetica,sans-Serif" font-size="10.00">::writePorts</text>
</a>
</g>
</g>
<!-- Node2&#45;&gt;Node8 -->
<g id="edge7_Node000002_Node000008" class="edge">
<title>Node2&#45;&gt;Node8</title>
<g id="a_edge7_Node000002_Node000008"><a xlink:title=" ">
<path fill="none" stroke="#63b8ff" d="M271.5,-66.93C269.38,-65.7 267.28,-64.46 265.25,-63.25 248.95,-53.51 245.55,-49.99 229.25,-40.25 224.04,-37.14 218.44,-33.92 213.01,-30.86"/>
<polygon fill="#63b8ff" stroke="#63b8ff" points="269.76,-69.96 280.18,-71.88 273.23,-63.89 269.76,-69.96"/>
</a>
</g>
</g>
<!-- Node4 -->
<g id="Node000004" class="node">
<title>Node4</title>
<g id="a_Node000004"><a xlink:href="class_indicator_interface.html#ada8f967d6d074b194ab4876b10869357" target="_top" xlink:title=" ">
<polygon fill="white" stroke="#666666" points="101.5,-201.5 0,-201.5 0,-171 101.5,-171 101.5,-201.5"/>
<text xml:space="preserve" text-anchor="start" x="8" y="-188" font-family="Helvetica,sans-Serif" font-size="10.00">IndicatorInterface</text>
<text xml:space="preserve" text-anchor="middle" x="50.75" y="-176.75" font-family="Helvetica,sans-Serif" font-size="10.00">::setAllOutputsHigh</text>
</a>
</g>
</g>
<!-- Node3&#45;&gt;Node4 -->
<g id="edge3_Node000003_Node000004" class="edge">
<title>Node3&#45;&gt;Node4</title>
<g id="a_edge3_Node000003_Node000004"><a xlink:title=" ">
<path fill="none" stroke="#63b8ff" d="M125.93,-172.62C117.94,-174.09 109.76,-175.59 101.9,-177.04"/>
<polygon fill="#63b8ff" stroke="#63b8ff" points="126.36,-176.1 135.57,-170.85 125.1,-169.21 126.36,-176.1"/>
</a>
</g>
</g>
<!-- Node5 -->
<g id="Node000005" class="node">
<title>Node5</title>
<g id="a_Node000005"><a xlink:href="class_indicator_interface.html#a7da1cedbcb4ab157e483afcd02f35066" target="_top" xlink:title=" ">
<polygon fill="white" stroke="#666666" points="100.38,-152.5 1.12,-152.5 1.12,-122 100.38,-122 100.38,-152.5"/>
<text xml:space="preserve" text-anchor="start" x="9.12" y="-139" font-family="Helvetica,sans-Serif" font-size="10.00">IndicatorInterface</text>
<text xml:space="preserve" text-anchor="middle" x="50.75" y="-127.75" font-family="Helvetica,sans-Serif" font-size="10.00">::setAllOutputsLow</text>
</a>
</g>
</g>
<!-- Node3&#45;&gt;Node5 -->
<g id="edge4_Node000003_Node000005" class="edge">
<title>Node3&#45;&gt;Node5</title>
<g id="a_edge4_Node000003_Node000005"><a xlink:title=" ">
<path fill="none" stroke="#63b8ff" d="M125.77,-151.42C117.37,-149.81 108.78,-148.16 100.55,-146.59"/>
<polygon fill="#63b8ff" stroke="#63b8ff" points="125.09,-154.85 135.57,-153.29 126.4,-147.97 125.09,-154.85"/>
</a>
</g>
</g>
</g>
</svg>
