<?xml version="1.0" encoding="UTF-8" standalone="no"?>
<!DOCTYPE svg PUBLIC "-//W3C//DTD SVG 1.1//EN"
 "http://www.w3.org/Graphics/SVG/1.1/DTD/svg11.dtd">
<!-- Generated by graphviz version 13.1.0 (20250701.0955)
 -->
<!-- Title: TemperatureController::findAlarm Pages: 1 -->
<svg width="275pt" height="88pt"
 viewBox="0.00 0.00 275.00 88.00" xmlns="http://www.w3.org/2000/svg" xmlns:xlink="http://www.w3.org/1999/xlink">
<g id="graph0" class="graph" transform="scale(1 1) rotate(0) translate(4 83.5)">
<title>TemperatureController::findAlarm</title>
<!-- Node1 -->
<g id="Node000001" class="node">
<title>Node1</title>
<g id="a_Node000001"><a xlink:title="Find alarm by configuration key.">
<polygon fill="#999999" stroke="#666666" points="266.75,-54.5 154.75,-54.5 154.75,-24 266.75,-24 266.75,-54.5"/>
<text xml:space="preserve" text-anchor="start" x="162.75" y="-41" font-family="Helvetica,sans-Serif" font-size="10.00">TemperatureController</text>
<text xml:space="preserve" text-anchor="middle" x="210.75" y="-29.75" font-family="Helvetica,sans-Serif" font-size="10.00">::findAlarm</text>
</a>
</g>
</g>
<!-- Node2 -->
<g id="Node000002" class="node">
<title>Node2</title>
<g id="a_Node000002"><a xlink:href="class_temperature_controller.html#ad174e0411bd48422d8e3812fd28a7a0b" target="_top" xlink:title="Ensure all 3 alarm types exist for a measurement point.">
<polygon fill="white" stroke="#666666" points="118.75,-79.5 0,-79.5 0,-49 118.75,-49 118.75,-79.5"/>
<text xml:space="preserve" text-anchor="start" x="8" y="-66" font-family="Helvetica,sans-Serif" font-size="10.00">TemperatureController</text>
<text xml:space="preserve" text-anchor="middle" x="59.38" y="-54.75" font-family="Helvetica,sans-Serif" font-size="10.00">::ensureAlarmsForPoint</text>
</a>
</g>
</g>
<!-- Node1&#45;&gt;Node2 -->
<g id="edge1_Node000001_Node000002" class="edge">
<title>Node1&#45;&gt;Node2</title>
<g id="a_edge1_Node000001_Node000002"><a xlink:title=" ">
<path fill="none" stroke="#63b8ff" d="M143.29,-50.37C135.23,-51.72 127.04,-53.09 119.1,-54.42"/>
<polygon fill="#63b8ff" stroke="#63b8ff" points="143.77,-53.84 153.06,-48.74 142.62,-46.94 143.77,-53.84"/>
</a>
</g>
</g>
<!-- Node3 -->
<g id="Node000003" class="node">
<title>Node3</title>
<g id="a_Node000003"><a xlink:href="class_temperature_controller.html#a93bd31914a054a4e1df9be7e3966b82e" target="_top" xlink:title="Update alarm configuration.">
<polygon fill="white" stroke="#666666" points="115.38,-30.5 3.38,-30.5 3.38,0 115.38,0 115.38,-30.5"/>
<text xml:space="preserve" text-anchor="start" x="11.38" y="-17" font-family="Helvetica,sans-Serif" font-size="10.00">TemperatureController</text>
<text xml:space="preserve" text-anchor="middle" x="59.38" y="-5.75" font-family="Helvetica,sans-Serif" font-size="10.00">::updateAlarm</text>
</a>
</g>
</g>
<!-- Node1&#45;&gt;Node3 -->
<g id="edge2_Node000001_Node000003" class="edge">
<title>Node1&#45;&gt;Node3</title>
<g id="a_edge2_Node000001_Node000003"><a xlink:title=" ">
<path fill="none" stroke="#63b8ff" d="M143.44,-28.6C134.22,-27.11 124.83,-25.61 115.84,-24.16"/>
<polygon fill="#63b8ff" stroke="#63b8ff" points="142.63,-32.01 153.06,-30.14 143.74,-25.1 142.63,-32.01"/>
</a>
</g>
</g>
</g>
</svg>
