<?xml version="1.0" encoding="UTF-8" standalone="no"?>
<!DOCTYPE svg PUBLIC "-//W3C//DTD SVG 1.1//EN"
 "http://www.w3.org/Graphics/SVG/1.1/DTD/svg11.dtd">
<!-- Generated by graphviz version 13.1.0 (20250701.0955)
 -->
<!-- Title: CSVConfigManager::_parseCSVLine Pages: 1 -->
<svg width="466pt" height="174pt"
 viewBox="0.00 0.00 466.00 174.00" xmlns="http://www.w3.org/2000/svg" xmlns:xlink="http://www.w3.org/1999/xlink">
<g id="graph0" class="graph" transform="scale(1 1) rotate(0) translate(4 169.5)">
<title>CSVConfigManager::_parseCSVLine</title>
<!-- Node1 -->
<g id="Node000001" class="node">
<title>Node1</title>
<g id="a_Node000001"><a xlink:title="Parse single CSV line.">
<polygon fill="#999999" stroke="#666666" points="109,-100.5 0,-100.5 0,-70 109,-70 109,-100.5"/>
<text xml:space="preserve" text-anchor="start" x="8" y="-87" font-family="Helvetica,sans-Serif" font-size="10.00">CSVConfigManager::</text>
<text xml:space="preserve" text-anchor="middle" x="54.5" y="-75.75" font-family="Helvetica,sans-Serif" font-size="10.00">_parseCSVLine</text>
</a>
</g>
</g>
<!-- Node2 -->
<g id="Node000002" class="node">
<title>Node2</title>
<g id="a_Node000002"><a xlink:href="$class_c_s_v_config_manager.html#a99faac6c424979e035a85cb77515e092" xlink:title="Parse priority string to enum.">
<polygon fill="white" stroke="#666666" points="271.25,-165.5 162.25,-165.5 162.25,-135 271.25,-135 271.25,-165.5"/>
<text xml:space="preserve" text-anchor="start" x="170.25" y="-152" font-family="Helvetica,sans-Serif" font-size="10.00">CSVConfigManager::</text>
<text xml:space="preserve" text-anchor="middle" x="216.75" y="-140.75" font-family="Helvetica,sans-Serif" font-size="10.00">_parsePriority</text>
</a>
</g>
</g>
<!-- Node1&#45;&gt;Node2 -->
<g id="edge1_Node000001_Node000002" class="edge">
<title>Node1&#45;&gt;Node2</title>
<g id="a_edge1_Node000001_Node000002"><a xlink:title=" ">
<path fill="none" stroke="#63b8ff" d="M87.47,-100.86C104.39,-108.88 125.62,-118.55 145,-126.25 148.78,-127.75 152.69,-129.25 156.65,-130.71"/>
<polygon fill="#63b8ff" stroke="#63b8ff" points="155.16,-133.89 165.75,-133.99 157.53,-127.31 155.16,-133.89"/>
</a>
</g>
</g>
<!-- Node3 -->
<g id="Node000003" class="node">
<title>Node3</title>
<g id="a_Node000003"><a xlink:href="$class_measurement_point.html#aefb47fef40f33161be5c6fddf0cf6329" xlink:title="Set high alarm threshold.">
<polygon fill="white" stroke="#666666" points="285.5,-79.5 148,-79.5 148,-49 285.5,-49 285.5,-79.5"/>
<text xml:space="preserve" text-anchor="start" x="156" y="-66" font-family="Helvetica,sans-Serif" font-size="10.00">MeasurementPoint::setHigh</text>
<text xml:space="preserve" text-anchor="middle" x="216.75" y="-54.75" font-family="Helvetica,sans-Serif" font-size="10.00">AlarmThreshold</text>
</a>
</g>
</g>
<!-- Node1&#45;&gt;Node3 -->
<g id="edge2_Node000001_Node000003" class="edge">
<title>Node1&#45;&gt;Node3</title>
<g id="a_edge2_Node000001_Node000003"><a xlink:title=" ">
<path fill="none" stroke="#63b8ff" d="M109.31,-78.2C118.03,-77.06 127.23,-75.85 136.41,-74.65"/>
<polygon fill="#63b8ff" stroke="#63b8ff" points="136.61,-78.15 146.07,-73.38 135.7,-71.21 136.61,-78.15"/>
</a>
</g>
</g>
<!-- Node6 -->
<g id="Node000006" class="node">
<title>Node6</title>
<g id="a_Node000006"><a xlink:href="$class_measurement_point.html#ac780917beebc11d705824cab8f43b94d" xlink:title="Set low alarm threshold.">
<polygon fill="white" stroke="#666666" points="284.38,-30.5 149.12,-30.5 149.12,0 284.38,0 284.38,-30.5"/>
<text xml:space="preserve" text-anchor="start" x="157.12" y="-17" font-family="Helvetica,sans-Serif" font-size="10.00">MeasurementPoint::setLow</text>
<text xml:space="preserve" text-anchor="middle" x="216.75" y="-5.75" font-family="Helvetica,sans-Serif" font-size="10.00">AlarmThreshold</text>
</a>
</g>
</g>
<!-- Node1&#45;&gt;Node6 -->
<g id="edge5_Node000001_Node000006" class="edge">
<title>Node1&#45;&gt;Node6</title>
<g id="a_edge5_Node000001_Node000006"><a xlink:title=" ">
<path fill="none" stroke="#63b8ff" d="M84.49,-69.51C101.8,-60.4 124.36,-49.04 145,-40.25 149.25,-38.44 153.67,-36.65 158.15,-34.92"/>
<polygon fill="#63b8ff" stroke="#63b8ff" points="159.08,-38.31 167.2,-31.5 156.61,-31.76 159.08,-38.31"/>
</a>
</g>
</g>
<!-- Node7 -->
<g id="Node000007" class="node">
<title>Node7</title>
<g id="a_Node000007"><a xlink:href="$class_measurement_point.html#ae3abe83ed3e7979a906c7d753ac9d22d" xlink:title="Set measurement point name.">
<polygon fill="white" stroke="#666666" points="288.5,-116.88 145,-116.88 145,-97.62 288.5,-97.62 288.5,-116.88"/>
<text xml:space="preserve" text-anchor="middle" x="216.75" y="-103.38" font-family="Helvetica,sans-Serif" font-size="10.00">MeasurementPoint::setName</text>
</a>
</g>
</g>
<!-- Node1&#45;&gt;Node7 -->
<g id="edge8_Node000001_Node000007" class="edge">
<title>Node1&#45;&gt;Node7</title>
<g id="a_edge8_Node000001_Node000007"><a xlink:title=" ">
<path fill="none" stroke="#63b8ff" d="M109.31,-92.64C117.12,-93.71 125.31,-94.83 133.53,-95.96"/>
<polygon fill="#63b8ff" stroke="#63b8ff" points="132.84,-99.4 143.22,-97.29 133.79,-92.47 132.84,-99.4"/>
</a>
</g>
</g>
<!-- Node4 -->
<g id="Node000004" class="node">
<title>Node4</title>
<g id="a_Node000004"><a xlink:href="$class_logger_manager.html#a5c1373ccc47f4112b596fe6f84fbbc21" xlink:title="Log informational message (static convenience method)">
<polygon fill="white" stroke="#666666" points="443.25,-73.88 338.75,-73.88 338.75,-54.62 443.25,-54.62 443.25,-73.88"/>
<text xml:space="preserve" text-anchor="middle" x="391" y="-60.38" font-family="Helvetica,sans-Serif" font-size="10.00">LoggerManager::info</text>
</a>
</g>
</g>
<!-- Node3&#45;&gt;Node4 -->
<g id="edge3_Node000003_Node000004" class="edge">
<title>Node3&#45;&gt;Node4</title>
<g id="a_edge3_Node000003_Node000004"><a xlink:title=" ">
<path fill="none" stroke="#63b8ff" d="M285.83,-64.25C299.36,-64.25 313.51,-64.25 326.86,-64.25"/>
<polygon fill="#63b8ff" stroke="#63b8ff" points="326.84,-67.75 336.84,-64.25 326.84,-60.75 326.84,-67.75"/>
</a>
</g>
</g>
<!-- Node5 -->
<g id="Node000005" class="node">
<title>Node5</title>
<g id="a_Node000005"><a xlink:href="$class_measurement_point.html#a71995209f2507e6cc15d01607f60767f" xlink:title="Update alarm status based on current temperature.">
<polygon fill="white" stroke="#666666" points="457.5,-33.5 324.5,-33.5 324.5,-3 457.5,-3 457.5,-33.5"/>
<text xml:space="preserve" text-anchor="start" x="332.5" y="-20" font-family="Helvetica,sans-Serif" font-size="10.00">MeasurementPoint::update</text>
<text xml:space="preserve" text-anchor="middle" x="391" y="-8.75" font-family="Helvetica,sans-Serif" font-size="10.00">AlarmStatus</text>
</a>
</g>
</g>
<!-- Node3&#45;&gt;Node5 -->
<g id="edge4_Node000003_Node000005" class="edge">
<title>Node3&#45;&gt;Node5</title>
<g id="a_edge4_Node000003_Node000005"><a xlink:title=" ">
<path fill="none" stroke="#63b8ff" d="M276.55,-48.55C290.6,-44.79 305.74,-40.75 320.24,-36.88"/>
<polygon fill="#63b8ff" stroke="#63b8ff" points="320.96,-40.31 329.71,-34.35 319.15,-33.55 320.96,-40.31"/>
</a>
</g>
</g>
<!-- Node6&#45;&gt;Node4 -->
<g id="edge6_Node000006_Node000004" class="edge">
<title>Node6&#45;&gt;Node4</title>
<g id="a_edge6_Node000006_Node000004"><a xlink:title=" ">
<path fill="none" stroke="#63b8ff" d="M272.72,-30.89C295.53,-37.38 321.7,-44.82 343.53,-51.03"/>
<polygon fill="#63b8ff" stroke="#63b8ff" points="342.47,-54.37 353.05,-53.74 344.39,-47.64 342.47,-54.37"/>
</a>
</g>
</g>
<!-- Node6&#45;&gt;Node5 -->
<g id="edge7_Node000006_Node000005" class="edge">
<title>Node6&#45;&gt;Node5</title>
<g id="a_edge7_Node000006_Node000005"><a xlink:title=" ">
<path fill="none" stroke="#63b8ff" d="M284.84,-16.42C294.04,-16.58 303.55,-16.74 312.91,-16.91"/>
<polygon fill="#63b8ff" stroke="#63b8ff" points="312.65,-20.4 322.71,-17.08 312.77,-13.4 312.65,-20.4"/>
</a>
</g>
</g>
<!-- Node7&#45;&gt;Node4 -->
<g id="edge9_Node000007_Node000004" class="edge">
<title>Node7&#45;&gt;Node4</title>
<g id="a_edge9_Node000007_Node000004"><a xlink:title=" ">
<path fill="none" stroke="#63b8ff" d="M258.13,-97.17C282.13,-91.18 312.79,-83.52 338.51,-77.1"/>
<polygon fill="#63b8ff" stroke="#63b8ff" points="339.25,-80.53 348.1,-74.71 337.55,-73.74 339.25,-80.53"/>
</a>
</g>
</g>
</g>
</svg>
