<?xml version="1.0" encoding="UTF-8" standalone="no"?>
<!DOCTYPE svg PUBLIC "-//W3C//DTD SVG 1.1//EN"
 "http://www.w3.org/Graphics/SVG/1.1/DTD/svg11.dtd">
<!-- Generated by graphviz version 13.1.0 (20250701.0955)
 -->
<!-- Title: TimeManager::setTimeFromUnix Pages: 1 -->
<svg width="320pt" height="45pt"
 viewBox="0.00 0.00 320.00 45.00" xmlns="http://www.w3.org/2000/svg" xmlns:xlink="http://www.w3.org/1999/xlink">
<g id="graph0" class="graph" transform="scale(1 1) rotate(0) translate(4 41.25)">
<title>TimeManager::setTimeFromUnix</title>
<!-- Node1 -->
<g id="Node000001" class="node">
<title>Node1</title>
<g id="a_Node000001"><a xlink:title="Set time from Unix timestamp.">
<polygon fill="#999999" stroke="#666666" points="159.25,-19.25 0,-19.25 0,0 159.25,0 159.25,-19.25"/>
<text xml:space="preserve" text-anchor="middle" x="79.62" y="-5.75" font-family="Helvetica,sans-Serif" font-size="10.00">TimeManager::setTimeFromUnix</text>
</a>
</g>
</g>
<!-- Node2 -->
<g id="Node000002" class="node">
<title>Node2</title>
<g id="a_Node000002"><a xlink:href="class_time_manager.html#af04febfb916666add72562e2d09e5a4f" target="_top" xlink:title="Set time manually.">
<polygon fill="white" stroke="#666666" points="311.75,-19.25 195.25,-19.25 195.25,0 311.75,0 311.75,-19.25"/>
<text xml:space="preserve" text-anchor="middle" x="253.5" y="-5.75" font-family="Helvetica,sans-Serif" font-size="10.00">TimeManager::setTime</text>
</a>
</g>
</g>
<!-- Node1&#45;&gt;Node2 -->
<g id="edge1_Node000001_Node000002" class="edge">
<title>Node1&#45;&gt;Node2</title>
<g id="a_edge1_Node000001_Node000002"><a xlink:title=" ">
<path fill="none" stroke="#63b8ff" d="M159.52,-9.62C167.52,-9.62 175.61,-9.62 183.5,-9.62"/>
<polygon fill="#63b8ff" stroke="#63b8ff" points="183.37,-13.13 193.37,-9.63 183.37,-6.13 183.37,-13.13"/>
</a>
</g>
</g>
<!-- Node2&#45;&gt;Node2 -->
<g id="edge2_Node000002_Node000002" class="edge">
<title>Node2&#45;&gt;Node2</title>
<g id="a_edge2_Node000002_Node000002"><a xlink:title=" ">
<path fill="none" stroke="#63b8ff" d="M226.28,-19.54C213.86,-28.15 222.94,-37.25 253.5,-37.25 270.69,-37.25 281.08,-34.37 284.68,-30.32"/>
<polygon fill="#63b8ff" stroke="#63b8ff" points="287.97,-29.14 281.24,-20.96 281.4,-31.55 287.97,-29.14"/>
</a>
</g>
</g>
</g>
</svg>
