<?xml version="1.0" encoding="UTF-8" standalone="no"?>
<!DOCTYPE svg PUBLIC "-//W3C//DTD SVG 1.1//EN"
 "http://www.w3.org/Graphics/SVG/1.1/DTD/svg11.dtd">
<!-- Generated by graphviz version 13.1.0 (20250701.0955)
 -->
<!-- Title: Sensor::getDS18B20RomString Pages: 1 -->
<svg width="659pt" height="321pt"
 viewBox="0.00 0.00 659.00 321.00" xmlns="http://www.w3.org/2000/svg" xmlns:xlink="http://www.w3.org/1999/xlink">
<g id="graph0" class="graph" transform="scale(1 1) rotate(0) translate(4 316.5)">
<title>Sensor::getDS18B20RomString</title>
<!-- Node1 -->
<g id="Node000001" class="node">
<title>Node1</title>
<g id="a_Node000001"><a xlink:title=" ">
<polygon fill="#999999" stroke="#666666" points="650.5,-159.88 495.75,-159.88 495.75,-140.62 650.5,-140.62 650.5,-159.88"/>
<text xml:space="preserve" text-anchor="middle" x="573.12" y="-146.38" font-family="Helvetica,sans-Serif" font-size="10.00">Sensor::getDS18B20RomString</text>
</a>
</g>
</g>
<!-- Node2 -->
<g id="Node000002" class="node">
<title>Node2</title>
<g id="a_Node000002"><a xlink:href="class_c_s_v_config_manager.html#a2c2673398051c26184c9197aa751a6b3" target="_top" xlink:title=" ">
<polygon fill="white" stroke="#666666" points="445.88,-312.5 336.88,-312.5 336.88,-282 445.88,-282 445.88,-312.5"/>
<text xml:space="preserve" text-anchor="start" x="344.88" y="-299" font-family="Helvetica,sans-Serif" font-size="10.00">CSVConfigManager::</text>
<text xml:space="preserve" text-anchor="middle" x="391.38" y="-287.75" font-family="Helvetica,sans-Serif" font-size="10.00">_exportPointToCSV</text>
</a>
</g>
</g>
<!-- Node1&#45;&gt;Node2 -->
<g id="edge1_Node000001_Node000002" class="edge">
<title>Node1&#45;&gt;Node2</title>
<g id="a_edge1_Node000001_Node000002"><a xlink:title=" ">
<path fill="none" stroke="#63b8ff" d="M558.86,-169.62C539.78,-196.17 502.18,-243.78 459.75,-272.25 454.47,-275.79 448.61,-278.92 442.63,-281.65"/>
<polygon fill="#63b8ff" stroke="#63b8ff" points="561.69,-171.69 564.58,-161.5 555.96,-167.66 561.69,-171.69"/>
</a>
</g>
</g>
<!-- Node4 -->
<g id="Node000004" class="node">
<title>Node4</title>
<g id="a_Node000004"><a xlink:href="class_temperature_controller.html#aafd155cdb06d2f411d3640df99815246" target="_top" xlink:title=" ">
<polygon fill="white" stroke="#666666" points="447.38,-263.5 335.38,-263.5 335.38,-233 447.38,-233 447.38,-263.5"/>
<text xml:space="preserve" text-anchor="start" x="343.38" y="-250" font-family="Helvetica,sans-Serif" font-size="10.00">TemperatureController</text>
<text xml:space="preserve" text-anchor="middle" x="391.38" y="-238.75" font-family="Helvetica,sans-Serif" font-size="10.00">::addSensor</text>
</a>
</g>
</g>
<!-- Node1&#45;&gt;Node4 -->
<g id="edge3_Node000001_Node000004" class="edge">
<title>Node1&#45;&gt;Node4</title>
<g id="a_edge3_Node000001_Node000004"><a xlink:title=" ">
<path fill="none" stroke="#63b8ff" d="M549.7,-166.95C527.63,-182.86 492.56,-206.76 459.75,-223.25 453.06,-226.61 445.81,-229.77 438.62,-232.64"/>
<polygon fill="#63b8ff" stroke="#63b8ff" points="551.63,-169.87 557.65,-161.15 547.5,-164.22 551.63,-169.87"/>
</a>
</g>
</g>
<!-- Node5 -->
<g id="Node000005" class="node">
<title>Node5</title>
<g id="a_Node000005"><a xlink:href="class_temperature_controller.html#add39ba7dad38449bbf1787a5c9c51ef9" target="_top" xlink:title=" ">
<polygon fill="white" stroke="#666666" points="447.38,-214.5 335.38,-214.5 335.38,-184 447.38,-184 447.38,-214.5"/>
<text xml:space="preserve" text-anchor="start" x="343.38" y="-201" font-family="Helvetica,sans-Serif" font-size="10.00">TemperatureController</text>
<text xml:space="preserve" text-anchor="middle" x="391.38" y="-189.75" font-family="Helvetica,sans-Serif" font-size="10.00">::getPointsJson</text>
</a>
</g>
</g>
<!-- Node1&#45;&gt;Node5 -->
<g id="edge4_Node000001_Node000005" class="edge">
<title>Node1&#45;&gt;Node5</title>
<g id="a_edge4_Node000001_Node000005"><a xlink:title=" ">
<path fill="none" stroke="#63b8ff" d="M524.5,-163.23C500.86,-169.68 472.17,-177.5 447.57,-184.2"/>
<polygon fill="#63b8ff" stroke="#63b8ff" points="525.13,-166.69 533.86,-160.68 523.29,-159.94 525.13,-166.69"/>
</a>
</g>
</g>
<!-- Node6 -->
<g id="Node000006" class="node">
<title>Node6</title>
<g id="a_Node000006"><a xlink:href="class_temperature_controller.html#a58f7a683f6e4c08dbfdfc43c1e740f15" target="_top" xlink:title=" ">
<polygon fill="white" stroke="#666666" points="447.38,-165.5 335.38,-165.5 335.38,-135 447.38,-135 447.38,-165.5"/>
<text xml:space="preserve" text-anchor="start" x="343.38" y="-152" font-family="Helvetica,sans-Serif" font-size="10.00">TemperatureController</text>
<text xml:space="preserve" text-anchor="middle" x="391.38" y="-140.75" font-family="Helvetica,sans-Serif" font-size="10.00">::getSensorsJson</text>
</a>
</g>
</g>
<!-- Node1&#45;&gt;Node6 -->
<g id="edge5_Node000001_Node000006" class="edge">
<title>Node1&#45;&gt;Node6</title>
<g id="a_edge5_Node000001_Node000006"><a xlink:title=" ">
<path fill="none" stroke="#63b8ff" d="M484.04,-150.25C471.65,-150.25 459.21,-150.25 447.67,-150.25"/>
<polygon fill="#63b8ff" stroke="#63b8ff" points="483.86,-153.75 493.86,-150.25 483.86,-146.75 483.86,-153.75"/>
</a>
</g>
</g>
<!-- Node7 -->
<g id="Node000007" class="node">
<title>Node7</title>
<g id="a_Node000007"><a xlink:href="class_config_manager.html#a55b79da91c57039c483ddf5fceabbd64" target="_top" xlink:title=" ">
<polygon fill="white" stroke="#666666" points="459.75,-116.5 323,-116.5 323,-86 459.75,-86 459.75,-116.5"/>
<text xml:space="preserve" text-anchor="start" x="331" y="-103" font-family="Helvetica,sans-Serif" font-size="10.00">ConfigManager::savePoints</text>
<text xml:space="preserve" text-anchor="middle" x="391.38" y="-91.75" font-family="Helvetica,sans-Serif" font-size="10.00">Config</text>
</a>
</g>
</g>
<!-- Node1&#45;&gt;Node7 -->
<g id="edge6_Node000001_Node000007" class="edge">
<title>Node1&#45;&gt;Node7</title>
<g id="a_edge6_Node000001_Node000007"><a xlink:title=" ">
<path fill="none" stroke="#63b8ff" d="M524.51,-137.27C501.64,-131.04 474.06,-123.52 450.02,-116.96"/>
<polygon fill="#63b8ff" stroke="#63b8ff" points="523.29,-140.56 533.86,-139.82 525.13,-133.81 523.29,-140.56"/>
</a>
</g>
</g>
<!-- Node12 -->
<g id="Node000012" class="node">
<title>Node12</title>
<g id="a_Node000012"><a xlink:href="class_config_manager.html#a45b1ce1f09401af0b6f700cf4388b233" target="_top" xlink:title=" ">
<polygon fill="white" stroke="#666666" points="284,-45.88 150.25,-45.88 150.25,-26.62 284,-26.62 284,-45.88"/>
<text xml:space="preserve" text-anchor="middle" x="217.12" y="-32.38" font-family="Helvetica,sans-Serif" font-size="10.00">ConfigManager::sensorAPI</text>
</a>
</g>
</g>
<!-- Node1&#45;&gt;Node12 -->
<g id="edge16_Node000001_Node000012" class="edge">
<title>Node1&#45;&gt;Node12</title>
<g id="a_edge16_Node000001_Node000012"><a xlink:title=" ">
<path fill="none" stroke="#63b8ff" d="M551.37,-133C529.84,-116.05 494.52,-90.82 459.75,-77.25 402.97,-55.09 334.08,-44.89 284.41,-40.21"/>
<polygon fill="#63b8ff" stroke="#63b8ff" points="549.07,-135.64 559.06,-139.18 553.46,-130.19 549.07,-135.64"/>
</a>
</g>
</g>
<!-- Node14 -->
<g id="Node000014" class="node">
<title>Node14</title>
<g id="a_Node000014"><a xlink:href="class_temperature_controller.html#a261c9b96540ec6680dfffd3a26e4ca00" target="_top" xlink:title=" ">
<polygon fill="white" stroke="#666666" points="454.5,-30.5 328.25,-30.5 328.25,0 454.5,0 454.5,-30.5"/>
<text xml:space="preserve" text-anchor="start" x="336.25" y="-17" font-family="Helvetica,sans-Serif" font-size="10.00">TemperatureController</text>
<text xml:space="preserve" text-anchor="middle" x="391.38" y="-5.75" font-family="Helvetica,sans-Serif" font-size="10.00">::unbindSensorFromPoint</text>
</a>
</g>
</g>
<!-- Node1&#45;&gt;Node14 -->
<g id="edge17_Node000001_Node000014" class="edge">
<title>Node1&#45;&gt;Node14</title>
<g id="a_edge17_Node000001_Node000014"><a xlink:title=" ">
<path fill="none" stroke="#63b8ff" d="M556.31,-131.79C535.89,-108.84 498.36,-69.62 459.75,-44.25 452.09,-39.21 443.41,-34.72 434.88,-30.86"/>
<polygon fill="#63b8ff" stroke="#63b8ff" points="553.52,-133.91 562.74,-139.13 558.79,-129.3 553.52,-133.91"/>
</a>
</g>
</g>
<!-- Node3 -->
<g id="Node000003" class="node">
<title>Node3</title>
<g id="a_Node000003"><a xlink:href="class_c_s_v_config_manager.html#a1c6cbc4c8a132762bf16a8ce9f7d0bfc" target="_top" xlink:title=" ">
<polygon fill="white" stroke="#666666" points="285.12,-312.5 149.12,-312.5 149.12,-282 285.12,-282 285.12,-312.5"/>
<text xml:space="preserve" text-anchor="start" x="157.12" y="-299" font-family="Helvetica,sans-Serif" font-size="10.00">CSVConfigManager::export</text>
<text xml:space="preserve" text-anchor="middle" x="217.12" y="-287.75" font-family="Helvetica,sans-Serif" font-size="10.00">PointsWithAlarmsToCSV</text>
</a>
</g>
</g>
<!-- Node2&#45;&gt;Node3 -->
<g id="edge2_Node000002_Node000003" class="edge">
<title>Node2&#45;&gt;Node3</title>
<g id="a_edge2_Node000002_Node000003"><a xlink:title=" ">
<path fill="none" stroke="#63b8ff" d="M325.5,-297.25C312.37,-297.25 298.54,-297.25 285.33,-297.25"/>
<polygon fill="#63b8ff" stroke="#63b8ff" points="325.3,-300.75 335.3,-297.25 325.3,-293.75 325.3,-300.75"/>
</a>
</g>
</g>
<!-- Node8 -->
<g id="Node000008" class="node">
<title>Node8</title>
<g id="a_Node000008"><a xlink:href="class_config_manager.html#ae605c999fabc6344511f455618655326" target="_top" xlink:title=" ">
<polygon fill="white" stroke="#666666" points="284,-217.88 150.25,-217.88 150.25,-198.62 284,-198.62 284,-217.88"/>
<text xml:space="preserve" text-anchor="middle" x="217.12" y="-204.38" font-family="Helvetica,sans-Serif" font-size="10.00">ConfigManager::alarmsAPI</text>
</a>
</g>
</g>
<!-- Node7&#45;&gt;Node8 -->
<g id="edge7_Node000007_Node000008" class="edge">
<title>Node7&#45;&gt;Node8</title>
<g id="a_edge7_Node000007_Node000008"><a xlink:title=" ">
<path fill="none" stroke="#63b8ff" d="M327.5,-122.76C325.94,-123.87 324.44,-125.03 323,-126.25 298.41,-147.11 312.47,-169.47 287,-189.25 282.3,-192.9 276.94,-195.85 271.33,-198.24"/>
<polygon fill="#63b8ff" stroke="#63b8ff" points="328.92,-125.99 335.61,-117.77 325.26,-120.03 328.92,-125.99"/>
</a>
</g>
</g>
<!-- Node10 -->
<g id="Node000010" class="node">
<title>Node10</title>
<g id="a_Node000010"><a xlink:href="class_config_manager.html#a9b7af07b85bf9cc3ac05603db6e89fd2" target="_top" xlink:title=" ">
<polygon fill="white" stroke="#666666" points="282.88,-180.5 151.38,-180.5 151.38,-150 282.88,-150 282.88,-180.5"/>
<text xml:space="preserve" text-anchor="start" x="159.38" y="-167" font-family="Helvetica,sans-Serif" font-size="10.00">ConfigManager::csvImport</text>
<text xml:space="preserve" text-anchor="middle" x="217.12" y="-155.75" font-family="Helvetica,sans-Serif" font-size="10.00">ExportAPI</text>
</a>
</g>
</g>
<!-- Node7&#45;&gt;Node10 -->
<g id="edge9_Node000007_Node000010" class="edge">
<title>Node7&#45;&gt;Node10</title>
<g id="a_edge9_Node000007_Node000010"><a xlink:title=" ">
<path fill="none" stroke="#63b8ff" d="M337.09,-120.8C332.31,-122.62 327.56,-124.45 323,-126.25 306.87,-132.6 303.19,-135.06 287,-141.25 279.67,-144.05 271.85,-146.91 264.2,-149.62"/>
<polygon fill="#63b8ff" stroke="#63b8ff" points="337.97,-124.21 346.09,-117.4 335.5,-117.66 337.97,-124.21"/>
</a>
</g>
</g>
<!-- Node11 -->
<g id="Node000011" class="node">
<title>Node11</title>
<g id="a_Node000011"><a xlink:href="class_config_manager.html#a471a844085c27f3a8a8f9394d9c14677" target="_top" xlink:title=" ">
<polygon fill="white" stroke="#666666" points="282.5,-131.88 151.75,-131.88 151.75,-112.62 282.5,-112.62 282.5,-131.88"/>
<text xml:space="preserve" text-anchor="middle" x="217.12" y="-118.38" font-family="Helvetica,sans-Serif" font-size="10.00">ConfigManager::pointsAPI</text>
</a>
</g>
</g>
<!-- Node7&#45;&gt;Node11 -->
<g id="edge11_Node000007_Node000011" class="edge">
<title>Node7&#45;&gt;Node11</title>
<g id="a_edge11_Node000007_Node000011"><a xlink:title=" ">
<path fill="none" stroke="#63b8ff" d="M311.62,-110.85C302.04,-112.02 292.33,-113.2 282.98,-114.34"/>
<polygon fill="#63b8ff" stroke="#63b8ff" points="311.79,-114.36 321.29,-109.67 310.94,-107.41 311.79,-114.36"/>
</a>
</g>
</g>
<!-- Node7&#45;&gt;Node12 -->
<g id="edge13_Node000007_Node000012" class="edge">
<title>Node7&#45;&gt;Node12</title>
<g id="a_edge13_Node000007_Node000012"><a xlink:title=" ">
<path fill="none" stroke="#63b8ff" d="M342.85,-81.04C336.17,-78.13 329.4,-75.14 323,-72.25 306.87,-64.97 303.59,-61.4 287,-55.25 278.16,-51.97 268.5,-48.97 259.28,-46.36"/>
<polygon fill="#63b8ff" stroke="#63b8ff" points="341.25,-84.16 351.82,-84.92 344.03,-77.74 341.25,-84.16"/>
</a>
</g>
</g>
<!-- Node13 -->
<g id="Node000013" class="node">
<title>Node13</title>
<g id="a_Node000013"><a xlink:href="class_config_manager.html#a0daf50bbd376beb24a5400a86e893338" target="_top" xlink:title=" ">
<polygon fill="white" stroke="#666666" points="287,-94.5 147.25,-94.5 147.25,-64 287,-64 287,-94.5"/>
<text xml:space="preserve" text-anchor="start" x="155.25" y="-81" font-family="Helvetica,sans-Serif" font-size="10.00">ConfigManager::updatePoint</text>
<text xml:space="preserve" text-anchor="middle" x="217.12" y="-69.75" font-family="Helvetica,sans-Serif" font-size="10.00">InConfig</text>
</a>
</g>
</g>
<!-- Node7&#45;&gt;Node13 -->
<g id="edge15_Node000007_Node000013" class="edge">
<title>Node7&#45;&gt;Node13</title>
<g id="a_edge15_Node000007_Node000013"><a xlink:title=" ">
<path fill="none" stroke="#63b8ff" d="M311.54,-91.18C303.51,-90.16 295.41,-89.12 287.5,-88.11"/>
<polygon fill="#63b8ff" stroke="#63b8ff" points="310.93,-94.63 321.29,-92.43 311.81,-87.69 310.93,-94.63"/>
</a>
</g>
</g>
<!-- Node9 -->
<g id="Node000009" class="node">
<title>Node9</title>
<g id="a_Node000009"><a xlink:href="class_config_manager.html#a0497343220fc493f5cf9574922508908" target="_top" xlink:title=" ">
<polygon fill="white" stroke="#666666" points="111.25,-152.88 0,-152.88 0,-133.62 111.25,-133.62 111.25,-152.88"/>
<text xml:space="preserve" text-anchor="middle" x="55.62" y="-139.38" font-family="Helvetica,sans-Serif" font-size="10.00">ConfigManager::begin</text>
</a>
</g>
</g>
<!-- Node8&#45;&gt;Node9 -->
<g id="edge8_Node000008_Node000009" class="edge">
<title>Node8&#45;&gt;Node9</title>
<g id="a_edge8_Node000008_Node000009"><a xlink:title=" ">
<path fill="none" stroke="#63b8ff" d="M163.75,-194.99C158.13,-193.22 152.54,-191.3 147.25,-189.25 120.76,-178.99 91.74,-163.44 73.86,-153.31"/>
<polygon fill="#63b8ff" stroke="#63b8ff" points="162.5,-198.27 173.08,-197.79 164.51,-191.57 162.5,-198.27"/>
</a>
</g>
</g>
<!-- Node10&#45;&gt;Node9 -->
<g id="edge10_Node000010_Node000009" class="edge">
<title>Node10&#45;&gt;Node9</title>
<g id="a_edge10_Node000010_Node000009"><a xlink:title=" ">
<path fill="none" stroke="#63b8ff" d="M140.09,-154.76C130.53,-153.44 120.89,-152.11 111.74,-150.85"/>
<polygon fill="#63b8ff" stroke="#63b8ff" points="139.37,-158.2 149.75,-156.09 140.32,-151.26 139.37,-158.2"/>
</a>
</g>
</g>
<!-- Node11&#45;&gt;Node9 -->
<g id="edge12_Node000011_Node000009" class="edge">
<title>Node11&#45;&gt;Node9</title>
<g id="a_edge12_Node000011_Node000009"><a xlink:title=" ">
<path fill="none" stroke="#63b8ff" d="M140.09,-132.26C130.53,-133.52 120.89,-134.79 111.74,-135.99"/>
<polygon fill="#63b8ff" stroke="#63b8ff" points="140.29,-135.76 149.75,-130.99 139.38,-128.82 140.29,-135.76"/>
</a>
</g>
</g>
<!-- Node12&#45;&gt;Node9 -->
<g id="edge14_Node000012_Node000009" class="edge">
<title>Node12&#45;&gt;Node9</title>
<g id="a_edge14_Node000012_Node000009"><a xlink:title=" ">
<path fill="none" stroke="#63b8ff" d="M156.75,-50.5C153.46,-51.94 150.27,-53.52 147.25,-55.25 110.9,-76.06 78.34,-114.8 64.15,-133.14"/>
<polygon fill="#63b8ff" stroke="#63b8ff" points="157.98,-53.77 166.05,-46.9 155.46,-47.24 157.98,-53.77"/>
</a>
</g>
</g>
</g>
</svg>
