<?xml version="1.0" encoding="UTF-8" standalone="no"?>
<!DOCTYPE svg PUBLIC "-//W3C//DTD SVG 1.1//EN"
 "http://www.w3.org/Graphics/SVG/1.1/DTD/svg11.dtd">
<!-- Generated by graphviz version 13.1.0 (20250701.0955)
 -->
<!-- Title: LoggerManager::_ensureDirectoryExists Pages: 1 -->
<svg width="319pt" height="64pt"
 viewBox="0.00 0.00 319.00 64.00" xmlns="http://www.w3.org/2000/svg" xmlns:xlink="http://www.w3.org/1999/xlink">
<g id="graph0" class="graph" transform="scale(1 1) rotate(0) translate(4 60.25)">
<title>LoggerManager::_ensureDirectoryExists</title>
<!-- Node1 -->
<g id="Node000001" class="node">
<title>Node1</title>
<g id="a_Node000001"><a xlink:title=" ">
<polygon fill="#999999" stroke="#666666" points="311,-42.88 148,-42.88 148,-12.37 311,-12.37 311,-42.88"/>
<text xml:space="preserve" text-anchor="start" x="156" y="-29.38" font-family="Helvetica,sans-Serif" font-size="10.00">LoggerManager::_ensureDirectory</text>
<text xml:space="preserve" text-anchor="middle" x="229.5" y="-18.12" font-family="Helvetica,sans-Serif" font-size="10.00">Exists</text>
</a>
</g>
</g>
<!-- Node2 -->
<g id="Node000002" class="node">
<title>Node2</title>
<g id="a_Node000002"><a xlink:href="class_logger_manager.html#a4acf0149820d73f4ed11340f63706841" target="_top" xlink:title="Begin logging operations.">
<polygon fill="white" stroke="#666666" points="112,-56.25 0,-56.25 0,-37 112,-37 112,-56.25"/>
<text xml:space="preserve" text-anchor="middle" x="56" y="-42.75" font-family="Helvetica,sans-Serif" font-size="10.00">LoggerManager::begin</text>
</a>
</g>
</g>
<!-- Node1&#45;&gt;Node2 -->
<g id="edge1_Node000001_Node000002" class="edge">
<title>Node1&#45;&gt;Node2</title>
<g id="a_edge1_Node000001_Node000002"><a xlink:title=" ">
<path fill="none" stroke="#63b8ff" d="M136.29,-37.84C128.07,-38.75 119.93,-39.65 112.18,-40.51"/>
<polygon fill="#63b8ff" stroke="#63b8ff" points="136.46,-41.34 146.02,-36.76 135.69,-34.39 136.46,-41.34"/>
</a>
</g>
</g>
<!-- Node3 -->
<g id="Node000003" class="node">
<title>Node3</title>
<g id="a_Node000003"><a xlink:href="class_logger_manager.html#a59e0690d922ec968bf64b1b5dda8fcbe" target="_top" xlink:title="Initialize the logging system.">
<polygon fill="white" stroke="#666666" points="106.75,-19.25 5.25,-19.25 5.25,0 106.75,0 106.75,-19.25"/>
<text xml:space="preserve" text-anchor="middle" x="56" y="-5.75" font-family="Helvetica,sans-Serif" font-size="10.00">LoggerManager::init</text>
</a>
</g>
</g>
<!-- Node1&#45;&gt;Node3 -->
<g id="edge2_Node000001_Node000003" class="edge">
<title>Node1&#45;&gt;Node3</title>
<g id="a_edge2_Node000001_Node000003"><a xlink:title=" ">
<path fill="none" stroke="#63b8ff" d="M136.13,-17.93C126.06,-16.87 116.11,-15.83 106.85,-14.86"/>
<polygon fill="#63b8ff" stroke="#63b8ff" points="135.7,-21.4 146.02,-18.97 136.44,-14.44 135.7,-21.4"/>
</a>
</g>
</g>
</g>
</svg>
