<?xml version="1.0" encoding="UTF-8" standalone="no"?>
<!DOCTYPE svg PUBLIC "-//W3C//DTD SVG 1.1//EN"
 "http://www.w3.org/Graphics/SVG/1.1/DTD/svg11.dtd">
<!-- Generated by graphviz version 13.1.0 (20250701.0955)
 -->
<!-- Title: ConfigManager::savePointsConfig Pages: 1 -->
<svg width="343pt" height="359pt"
 viewBox="0.00 0.00 343.00 359.00" xmlns="http://www.w3.org/2000/svg" xmlns:xlink="http://www.w3.org/1999/xlink">
<g id="graph0" class="graph" transform="scale(1 1) rotate(0) translate(4 355.25)">
<title>ConfigManager::savePointsConfig</title>
<!-- Node1 -->
<g id="Node000001" class="node">
<title>Node1</title>
<g id="a_Node000001"><a xlink:title="Save measurement points configuration to file.">
<polygon fill="#999999" stroke="#666666" points="136.75,-178.88 0,-178.88 0,-148.38 136.75,-148.38 136.75,-178.88"/>
<text xml:space="preserve" text-anchor="start" x="8" y="-165.38" font-family="Helvetica,sans-Serif" font-size="10.00">ConfigManager::savePoints</text>
<text xml:space="preserve" text-anchor="middle" x="68.38" y="-154.12" font-family="Helvetica,sans-Serif" font-size="10.00">Config</text>
</a>
</g>
</g>
<!-- Node2 -->
<g id="Node000002" class="node">
<title>Node2</title>
<g id="a_Node000002"><a xlink:href="class_measurement_point.html#a7b74a18d86e0e545264a774aa2c31cad" target="_top" xlink:title="Get measurement point address.">
<polygon fill="white" stroke="#666666" points="330.5,-351.25 177.25,-351.25 177.25,-332 330.5,-332 330.5,-351.25"/>
<text xml:space="preserve" text-anchor="middle" x="253.88" y="-337.75" font-family="Helvetica,sans-Serif" font-size="10.00">MeasurementPoint::getAddress</text>
</a>
</g>
</g>
<!-- Node1&#45;&gt;Node2 -->
<g id="edge1_Node000001_Node000002" class="edge">
<title>Node1&#45;&gt;Node2</title>
<g id="a_edge1_Node000001_Node000002"><a xlink:title=" ">
<path fill="none" stroke="#63b8ff" d="M74.87,-179.12C87.09,-211.25 119.72,-285.28 172.75,-322.62 174.84,-324.1 177.03,-325.45 179.29,-326.71"/>
<polygon fill="#63b8ff" stroke="#63b8ff" points="177.71,-329.83 188.25,-330.92 180.69,-323.5 177.71,-329.83"/>
</a>
</g>
</g>
<!-- Node3 -->
<g id="Node000003" class="node">
<title>Node3</title>
<g id="a_Node000003"><a xlink:href="class_measurement_point.html#a81c7ae93a9314344967d0f31c6fefe2f" target="_top" xlink:title="Get pointer to bound sensor.">
<polygon fill="white" stroke="#666666" points="326.38,-313.88 181.38,-313.88 181.38,-283.38 326.38,-283.38 326.38,-313.88"/>
<text xml:space="preserve" text-anchor="start" x="189.38" y="-300.38" font-family="Helvetica,sans-Serif" font-size="10.00">MeasurementPoint::getBound</text>
<text xml:space="preserve" text-anchor="middle" x="253.88" y="-289.12" font-family="Helvetica,sans-Serif" font-size="10.00">Sensor</text>
</a>
</g>
</g>
<!-- Node1&#45;&gt;Node3 -->
<g id="edge2_Node000001_Node000003" class="edge">
<title>Node1&#45;&gt;Node3</title>
<g id="a_edge2_Node000001_Node000003"><a xlink:title=" ">
<path fill="none" stroke="#63b8ff" d="M79.81,-179.35C96.58,-203.4 131.82,-249.19 172.75,-274.62 174.65,-275.8 176.6,-276.93 178.61,-278"/>
<polygon fill="#63b8ff" stroke="#63b8ff" points="177.06,-281.14 187.59,-282.27 180.07,-274.81 177.06,-281.14"/>
</a>
</g>
</g>
<!-- Node4 -->
<g id="Node000004" class="node">
<title>Node4</title>
<g id="a_Node000004"><a xlink:href="class_sensor.html#a9f793cde2918130fbc77dad1aebfe53a" target="_top" xlink:title=" ">
<polygon fill="white" stroke="#666666" points="331.25,-265.25 176.5,-265.25 176.5,-246 331.25,-246 331.25,-265.25"/>
<text xml:space="preserve" text-anchor="middle" x="253.88" y="-251.75" font-family="Helvetica,sans-Serif" font-size="10.00">Sensor::getDS18B20RomString</text>
</a>
</g>
</g>
<!-- Node1&#45;&gt;Node4 -->
<g id="edge3_Node000001_Node000004" class="edge">
<title>Node1&#45;&gt;Node4</title>
<g id="a_edge3_Node000001_Node000004"><a xlink:title=" ">
<path fill="none" stroke="#63b8ff" d="M86.75,-179.09C106.31,-195.7 139.71,-221.72 172.75,-236.62 177.35,-238.7 182.2,-240.56 187.14,-242.23"/>
<polygon fill="#63b8ff" stroke="#63b8ff" points="186.03,-245.55 196.62,-245.15 188.09,-238.86 186.03,-245.55"/>
</a>
</g>
</g>
<!-- Node5 -->
<g id="Node000005" class="node">
<title>Node5</title>
<g id="a_Node000005"><a xlink:href="class_measurement_point.html#a71d6d440240f110cbd80c58bbc47aff6" target="_top" xlink:title="Get high alarm threshold.">
<polygon fill="white" stroke="#666666" points="322.62,-227.88 185.12,-227.88 185.12,-197.38 322.62,-197.38 322.62,-227.88"/>
<text xml:space="preserve" text-anchor="start" x="193.12" y="-214.38" font-family="Helvetica,sans-Serif" font-size="10.00">MeasurementPoint::getHigh</text>
<text xml:space="preserve" text-anchor="middle" x="253.88" y="-203.12" font-family="Helvetica,sans-Serif" font-size="10.00">AlarmThreshold</text>
</a>
</g>
</g>
<!-- Node1&#45;&gt;Node5 -->
<g id="edge4_Node000001_Node000005" class="edge">
<title>Node1&#45;&gt;Node5</title>
<g id="a_edge4_Node000001_Node000005"><a xlink:title=" ">
<path fill="none" stroke="#63b8ff" d="M128.19,-179.33C145.64,-183.99 164.92,-189.14 183,-193.97"/>
<polygon fill="#63b8ff" stroke="#63b8ff" points="182.05,-197.33 192.61,-196.53 183.85,-190.57 182.05,-197.33"/>
</a>
</g>
</g>
<!-- Node6 -->
<g id="Node000006" class="node">
<title>Node6</title>
<g id="a_Node000006"><a xlink:href="class_measurement_point.html#a6e538e117d9e22c6998b56519a51d6ba" target="_top" xlink:title="Get low alarm threshold.">
<polygon fill="white" stroke="#666666" points="321.5,-178.88 186.25,-178.88 186.25,-148.38 321.5,-148.38 321.5,-178.88"/>
<text xml:space="preserve" text-anchor="start" x="194.25" y="-165.38" font-family="Helvetica,sans-Serif" font-size="10.00">MeasurementPoint::getLow</text>
<text xml:space="preserve" text-anchor="middle" x="253.88" y="-154.12" font-family="Helvetica,sans-Serif" font-size="10.00">AlarmThreshold</text>
</a>
</g>
</g>
<!-- Node1&#45;&gt;Node6 -->
<g id="edge5_Node000001_Node000006" class="edge">
<title>Node1&#45;&gt;Node6</title>
<g id="a_edge5_Node000001_Node000006"><a xlink:title=" ">
<path fill="none" stroke="#63b8ff" d="M137.18,-163.62C149.38,-163.62 162.18,-163.62 174.64,-163.62"/>
<polygon fill="#63b8ff" stroke="#63b8ff" points="174.44,-167.13 184.44,-163.63 174.44,-160.13 174.44,-167.13"/>
</a>
</g>
</g>
<!-- Node7 -->
<g id="Node000007" class="node">
<title>Node7</title>
<g id="a_Node000007"><a xlink:href="class_measurement_point.html#aa3a80d373c7609c7b178bf7353ffdd7a" target="_top" xlink:title="Get measurement point name.">
<polygon fill="white" stroke="#666666" points="325.62,-130.25 182.12,-130.25 182.12,-111 325.62,-111 325.62,-130.25"/>
<text xml:space="preserve" text-anchor="middle" x="253.88" y="-116.75" font-family="Helvetica,sans-Serif" font-size="10.00">MeasurementPoint::getName</text>
</a>
</g>
</g>
<!-- Node1&#45;&gt;Node7 -->
<g id="edge6_Node000001_Node000007" class="edge">
<title>Node1&#45;&gt;Node7</title>
<g id="a_edge6_Node000001_Node000007"><a xlink:title=" ">
<path fill="none" stroke="#63b8ff" d="M136.4,-147.92C156.86,-143.13 179.08,-137.92 198.58,-133.35"/>
<polygon fill="#63b8ff" stroke="#63b8ff" points="199.3,-136.77 208.24,-131.08 197.71,-129.96 199.3,-136.77"/>
</a>
</g>
</g>
<!-- Node8 -->
<g id="Node000008" class="node">
<title>Node8</title>
<g id="a_Node000008"><a xlink:href="class_sensor.html#a6f57825e90b759ccdb9fe07b3a36953d" target="_top" xlink:title=" ">
<polygon fill="white" stroke="#666666" points="335,-93.25 172.75,-93.25 172.75,-74 335,-74 335,-93.25"/>
<text xml:space="preserve" text-anchor="middle" x="253.88" y="-79.75" font-family="Helvetica,sans-Serif" font-size="10.00">Sensor::getPT1000ChipSelectPin</text>
</a>
</g>
</g>
<!-- Node1&#45;&gt;Node8 -->
<g id="edge7_Node000001_Node000008" class="edge">
<title>Node1&#45;&gt;Node8</title>
<g id="a_edge7_Node000001_Node000008"><a xlink:title=" ">
<path fill="none" stroke="#63b8ff" d="M90.89,-147.92C111.09,-133.86 142.63,-113.68 172.75,-101.62 177.14,-99.87 181.74,-98.26 186.42,-96.8"/>
<polygon fill="#63b8ff" stroke="#63b8ff" points="187.33,-100.18 195.98,-94.06 185.4,-93.45 187.33,-100.18"/>
</a>
</g>
</g>
<!-- Node9 -->
<g id="Node000009" class="node">
<title>Node9</title>
<g id="a_Node000009"><a xlink:href="class_sensor.html#a0f6f095e7cfdfffb2a395dfdae7cfa53" target="_top" xlink:title=" ">
<polygon fill="white" stroke="#666666" points="297.5,-56.25 210.25,-56.25 210.25,-37 297.5,-37 297.5,-56.25"/>
<text xml:space="preserve" text-anchor="middle" x="253.88" y="-42.75" font-family="Helvetica,sans-Serif" font-size="10.00">Sensor::getType</text>
</a>
</g>
</g>
<!-- Node1&#45;&gt;Node9 -->
<g id="edge8_Node000001_Node000009" class="edge">
<title>Node1&#45;&gt;Node9</title>
<g id="a_edge8_Node000001_Node000009"><a xlink:title=" ">
<path fill="none" stroke="#63b8ff" d="M80.88,-148.22C98.24,-126.12 133.33,-85.77 172.75,-64.62 180.79,-60.31 189.81,-57.03 198.83,-54.54"/>
<polygon fill="#63b8ff" stroke="#63b8ff" points="199.41,-58 208.29,-52.22 197.74,-51.2 199.41,-58"/>
</a>
</g>
</g>
<!-- Node10 -->
<g id="Node000010" class="node">
<title>Node10</title>
<g id="a_Node000010"><a xlink:href="class_logger_manager.html#a5c1373ccc47f4112b596fe6f84fbbc21" target="_top" xlink:title="Log informational message (static convenience method)">
<polygon fill="white" stroke="#666666" points="306.12,-19.25 201.62,-19.25 201.62,0 306.12,0 306.12,-19.25"/>
<text xml:space="preserve" text-anchor="middle" x="253.88" y="-5.75" font-family="Helvetica,sans-Serif" font-size="10.00">LoggerManager::info</text>
</a>
</g>
</g>
<!-- Node1&#45;&gt;Node10 -->
<g id="edge9_Node000001_Node000010" class="edge">
<title>Node1&#45;&gt;Node10</title>
<g id="a_edge9_Node000001_Node000010"><a xlink:title=" ">
<path fill="none" stroke="#63b8ff" d="M76.54,-148.14C90.65,-119.51 124.84,-58.4 172.75,-27.62 178.21,-24.12 184.25,-21.29 190.51,-19.01"/>
<polygon fill="#63b8ff" stroke="#63b8ff" points="191.23,-22.46 199.72,-16.12 189.13,-15.78 191.23,-22.46"/>
</a>
</g>
</g>
</g>
</svg>
