<?xml version="1.0" encoding="UTF-8" standalone="no"?>
<!DOCTYPE svg PUBLIC "-//W3C//DTD SVG 1.1//EN"
 "http://www.w3.org/Graphics/SVG/1.1/DTD/svg11.dtd">
<!-- Generated by graphviz version 13.1.0 (20250701.0955)
 -->
<!-- Title: TemperatureController::addAlarm Pages: 1 -->
<svg width="454pt" height="310pt"
 viewBox="0.00 0.00 454.00 310.00" xmlns="http://www.w3.org/2000/svg" xmlns:xlink="http://www.w3.org/1999/xlink">
<g id="graph0" class="graph" transform="scale(1 1) rotate(0) translate(4 305.88)">
<title>TemperatureController::addAlarm</title>
<!-- Node1 -->
<g id="Node000001" class="node">
<title>Node1</title>
<g id="a_Node000001"><a xlink:title=" ">
<polygon fill="#999999" stroke="#666666" points="112,-153.88 0,-153.88 0,-123.38 112,-123.38 112,-153.88"/>
<text xml:space="preserve" text-anchor="start" x="8" y="-140.38" font-family="Helvetica,sans-Serif" font-size="10.00">TemperatureController</text>
<text xml:space="preserve" text-anchor="middle" x="56" y="-129.12" font-family="Helvetica,sans-Serif" font-size="10.00">::addAlarm</text>
</a>
</g>
</g>
<!-- Node2 -->
<g id="Node000002" class="node">
<title>Node2</title>
<g id="a_Node000002"><a xlink:href="class_temperature_controller.html#aa97ba23c998b2cfc732786e2307e60fa" target="_top" xlink:title=" ">
<polygon fill="white" stroke="#666666" points="279.12,-301.88 167.12,-301.88 167.12,-271.38 279.12,-271.38 279.12,-301.88"/>
<text xml:space="preserve" text-anchor="start" x="175.12" y="-288.38" font-family="Helvetica,sans-Serif" font-size="10.00">TemperatureController</text>
<text xml:space="preserve" text-anchor="middle" x="223.12" y="-277.12" font-family="Helvetica,sans-Serif" font-size="10.00">::_getPriorityString</text>
</a>
</g>
</g>
<!-- Node1&#45;&gt;Node2 -->
<g id="edge1_Node000001_Node000002" class="edge">
<title>Node1&#45;&gt;Node2</title>
<g id="a_edge1_Node000001_Node000002"><a xlink:title=" ">
<path fill="none" stroke="#63b8ff" d="M64.52,-154.24C77.8,-180.23 107.85,-232.38 148,-261.62 150.76,-263.64 153.7,-265.5 156.75,-267.22"/>
<polygon fill="#63b8ff" stroke="#63b8ff" points="154.94,-270.22 165.45,-271.55 158.06,-263.96 154.94,-270.22"/>
</a>
</g>
</g>
<!-- Node3 -->
<g id="Node000003" class="node">
<title>Node3</title>
<g id="a_Node000003"><a xlink:href="class_temperature_controller.html#a494f057c234b4ff7526bde271aec9267" target="_top" xlink:title=" ">
<polygon fill="white" stroke="#666666" points="281.75,-252.88 164.5,-252.88 164.5,-222.38 281.75,-222.38 281.75,-252.88"/>
<text xml:space="preserve" text-anchor="start" x="172.5" y="-239.38" font-family="Helvetica,sans-Serif" font-size="10.00">TemperatureController</text>
<text xml:space="preserve" text-anchor="middle" x="223.12" y="-228.12" font-family="Helvetica,sans-Serif" font-size="10.00">::getMeasurementPoint</text>
</a>
</g>
</g>
<!-- Node1&#45;&gt;Node3 -->
<g id="edge2_Node000001_Node000003" class="edge">
<title>Node1&#45;&gt;Node3</title>
<g id="a_edge2_Node000001_Node000003"><a xlink:title=" ">
<path fill="none" stroke="#63b8ff" d="M72.09,-154.17C89.14,-170.93 118.37,-197.39 148,-213.62 150.49,-214.99 153.07,-216.29 155.71,-217.53"/>
<polygon fill="#63b8ff" stroke="#63b8ff" points="154.16,-220.68 164.73,-221.42 156.93,-214.25 154.16,-220.68"/>
</a>
</g>
</g>
<!-- Node6 -->
<g id="Node000006" class="node">
<title>Node6</title>
<g id="a_Node000006"><a xlink:href="class_measurement_point.html#aa3a80d373c7609c7b178bf7353ffdd7a" target="_top" xlink:title=" ">
<polygon fill="white" stroke="#666666" points="294.88,-204.25 151.38,-204.25 151.38,-185 294.88,-185 294.88,-204.25"/>
<text xml:space="preserve" text-anchor="middle" x="223.12" y="-190.75" font-family="Helvetica,sans-Serif" font-size="10.00">MeasurementPoint::getName</text>
</a>
</g>
</g>
<!-- Node1&#45;&gt;Node6 -->
<g id="edge5_Node000001_Node000006" class="edge">
<title>Node1&#45;&gt;Node6</title>
<g id="a_edge5_Node000001_Node000006"><a xlink:title=" ">
<path fill="none" stroke="#63b8ff" d="M91.09,-154.36C107.97,-161.76 128.8,-170.33 148,-176.62 153.37,-178.39 159,-180.06 164.67,-181.63"/>
<polygon fill="#63b8ff" stroke="#63b8ff" points="163.52,-184.94 174.08,-184.11 165.31,-178.17 163.52,-184.94"/>
</a>
</g>
</g>
<!-- Node7 -->
<g id="Node000007" class="node">
<title>Node7</title>
<g id="a_Node000007"><a xlink:href="class_alarm.html#abd578ec75a5ac9bce00b7ce7207c5d8c" target="_top" xlink:title=" ">
<polygon fill="white" stroke="#666666" points="276.88,-167.25 169.38,-167.25 169.38,-148 276.88,-148 276.88,-167.25"/>
<text xml:space="preserve" text-anchor="middle" x="223.12" y="-153.75" font-family="Helvetica,sans-Serif" font-size="10.00">Alarm::getTypeString</text>
</a>
</g>
</g>
<!-- Node1&#45;&gt;Node7 -->
<g id="edge6_Node000001_Node000007" class="edge">
<title>Node1&#45;&gt;Node7</title>
<g id="a_edge6_Node000001_Node000007"><a xlink:title=" ">
<path fill="none" stroke="#63b8ff" d="M112.44,-145C127,-146.68 142.83,-148.5 157.81,-150.22"/>
<polygon fill="#63b8ff" stroke="#63b8ff" points="157.23,-153.68 167.56,-151.35 158.03,-146.73 157.23,-153.68"/>
</a>
</g>
</g>
<!-- Node8 -->
<g id="Node000008" class="node">
<title>Node8</title>
<g id="a_Node000008"><a xlink:href="class_logger_manager.html#a5c1373ccc47f4112b596fe6f84fbbc21" target="_top" xlink:title=" ">
<polygon fill="white" stroke="#666666" points="275.38,-130.25 170.88,-130.25 170.88,-111 275.38,-111 275.38,-130.25"/>
<text xml:space="preserve" text-anchor="middle" x="223.12" y="-116.75" font-family="Helvetica,sans-Serif" font-size="10.00">LoggerManager::info</text>
</a>
</g>
</g>
<!-- Node1&#45;&gt;Node8 -->
<g id="edge7_Node000001_Node000008" class="edge">
<title>Node1&#45;&gt;Node8</title>
<g id="a_edge7_Node000001_Node000008"><a xlink:title=" ">
<path fill="none" stroke="#63b8ff" d="M112.44,-132.58C127.52,-130.94 143.96,-129.15 159.41,-127.46"/>
<polygon fill="#63b8ff" stroke="#63b8ff" points="159.39,-130.98 168.95,-126.42 158.63,-124.03 159.39,-130.98"/>
</a>
</g>
</g>
<!-- Node9 -->
<g id="Node000009" class="node">
<title>Node9</title>
<g id="a_Node000009"><a xlink:href="class_alarm.html#a3f5329f9c026bad4f5171423fcaf51b0" target="_top" xlink:title=" ">
<polygon fill="white" stroke="#666666" points="298.25,-93.25 148,-93.25 148,-74 298.25,-74 298.25,-93.25"/>
<text xml:space="preserve" text-anchor="middle" x="223.12" y="-79.75" font-family="Helvetica,sans-Serif" font-size="10.00">Alarm::setAcknowledgedDelay</text>
</a>
</g>
</g>
<!-- Node1&#45;&gt;Node9 -->
<g id="edge8_Node000001_Node000009" class="edge">
<title>Node1&#45;&gt;Node9</title>
<g id="a_edge8_Node000001_Node000009"><a xlink:title=" ">
<path fill="none" stroke="#63b8ff" d="M91.99,-122.98C108.72,-115.87 129.17,-107.7 148,-101.62 153.45,-99.87 159.18,-98.19 164.93,-96.61"/>
<polygon fill="#63b8ff" stroke="#63b8ff" points="165.71,-100.02 174.5,-94.1 163.94,-93.25 165.71,-100.02"/>
</a>
</g>
</g>
<!-- Node10 -->
<g id="Node000010" class="node">
<title>Node10</title>
<g id="a_Node000010"><a xlink:href="class_alarm.html#ad116a3e8b622810e1769568fbac16379" target="_top" xlink:title=" ">
<polygon fill="white" stroke="#666666" points="276.5,-56.25 169.75,-56.25 169.75,-37 276.5,-37 276.5,-56.25"/>
<text xml:space="preserve" text-anchor="middle" x="223.12" y="-42.75" font-family="Helvetica,sans-Serif" font-size="10.00">Alarm::setConfigKey</text>
</a>
</g>
</g>
<!-- Node1&#45;&gt;Node10 -->
<g id="edge9_Node000001_Node000010" class="edge">
<title>Node1&#45;&gt;Node10</title>
<g id="a_edge9_Node000001_Node000010"><a xlink:title=" ">
<path fill="none" stroke="#63b8ff" d="M71.91,-122.88C88.8,-105.98 117.9,-79.56 148,-64.62 151.32,-62.98 154.8,-61.47 158.37,-60.11"/>
<polygon fill="#63b8ff" stroke="#63b8ff" points="159.49,-63.42 167.82,-56.87 157.23,-56.8 159.49,-63.42"/>
</a>
</g>
</g>
<!-- Node11 -->
<g id="Node000011" class="node">
<title>Node11</title>
<g id="a_Node000011"><a xlink:href="class_logger_manager.html#a0d52b0ff7bff22817e987ad753102854" target="_top" xlink:title=" ">
<polygon fill="white" stroke="#666666" points="284.38,-19.25 161.88,-19.25 161.88,0 284.38,0 284.38,-19.25"/>
<text xml:space="preserve" text-anchor="middle" x="223.12" y="-5.75" font-family="Helvetica,sans-Serif" font-size="10.00">LoggerManager::warning</text>
</a>
</g>
</g>
<!-- Node1&#45;&gt;Node11 -->
<g id="edge10_Node000001_Node000011" class="edge">
<title>Node1&#45;&gt;Node11</title>
<g id="a_edge10_Node000001_Node000011"><a xlink:title=" ">
<path fill="none" stroke="#63b8ff" d="M65.33,-123.01C79.15,-98.69 109.18,-52.03 148,-27.62 149.89,-26.44 151.86,-25.33 153.88,-24.29"/>
<polygon fill="#63b8ff" stroke="#63b8ff" points="155.21,-27.52 162.96,-20.3 152.4,-21.11 155.21,-27.52"/>
</a>
</g>
</g>
<!-- Node4 -->
<g id="Node000004" class="node">
<title>Node4</title>
<g id="a_Node000004"><a xlink:href="class_temperature_controller.html#ad322a5bab8d5788a586206004248f673" target="_top" xlink:title=" ">
<polygon fill="white" stroke="#666666" points="446.25,-276.88 334.25,-276.88 334.25,-246.38 446.25,-246.38 446.25,-276.88"/>
<text xml:space="preserve" text-anchor="start" x="342.25" y="-263.38" font-family="Helvetica,sans-Serif" font-size="10.00">TemperatureController</text>
<text xml:space="preserve" text-anchor="middle" x="390.25" y="-252.12" font-family="Helvetica,sans-Serif" font-size="10.00">::isDS18B20Address</text>
</a>
</g>
</g>
<!-- Node3&#45;&gt;Node4 -->
<g id="edge3_Node000003_Node000004" class="edge">
<title>Node3&#45;&gt;Node4</title>
<g id="a_edge3_Node000003_Node000004"><a xlink:title=" ">
<path fill="none" stroke="#63b8ff" d="M281.88,-246.02C295.03,-247.93 309.11,-249.98 322.59,-251.94"/>
<polygon fill="#63b8ff" stroke="#63b8ff" points="321.86,-255.37 332.25,-253.34 322.86,-248.44 321.86,-255.37"/>
</a>
</g>
</g>
<!-- Node5 -->
<g id="Node000005" class="node">
<title>Node5</title>
<g id="a_Node000005"><a xlink:href="class_temperature_controller.html#a13125ddcf29cb56d27403818543618af" target="_top" xlink:title=" ">
<polygon fill="white" stroke="#666666" points="446.25,-227.88 334.25,-227.88 334.25,-197.38 446.25,-197.38 446.25,-227.88"/>
<text xml:space="preserve" text-anchor="start" x="342.25" y="-214.38" font-family="Helvetica,sans-Serif" font-size="10.00">TemperatureController</text>
<text xml:space="preserve" text-anchor="middle" x="390.25" y="-203.12" font-family="Helvetica,sans-Serif" font-size="10.00">::isPT1000Address</text>
</a>
</g>
</g>
<!-- Node3&#45;&gt;Node5 -->
<g id="edge4_Node000003_Node000005" class="edge">
<title>Node3&#45;&gt;Node5</title>
<g id="a_edge4_Node000003_Node000005"><a xlink:title=" ">
<path fill="none" stroke="#63b8ff" d="M281.88,-228.88C295.03,-226.89 309.11,-224.76 322.59,-222.72"/>
<polygon fill="#63b8ff" stroke="#63b8ff" points="322.89,-226.21 332.26,-221.25 321.84,-219.29 322.89,-226.21"/>
</a>
</g>
</g>
</g>
</svg>
