<?xml version="1.0" encoding="UTF-8" standalone="no"?>
<!DOCTYPE svg PUBLIC "-//W3C//DTD SVG 1.1//EN"
 "http://www.w3.org/Graphics/SVG/1.1/DTD/svg11.dtd">
<!-- Generated by graphviz version 13.1.0 (20250701.0955)
 -->
<!-- Title: Sensor::getPT1000ChipSelectPin Pages: 1 -->
<svg width="843pt" height="493pt"
 viewBox="0.00 0.00 843.00 493.00" xmlns="http://www.w3.org/2000/svg" xmlns:xlink="http://www.w3.org/1999/xlink">
<g id="graph0" class="graph" transform="scale(1 1) rotate(0) translate(4 488.88)">
<title>Sensor::getPT1000ChipSelectPin</title>
<!-- Node1 -->
<g id="Node000001" class="node">
<title>Node1</title>
<g id="a_Node000001"><a xlink:title=" ">
<polygon fill="#999999" stroke="#666666" points="834.5,-332.25 672.25,-332.25 672.25,-313 834.5,-313 834.5,-332.25"/>
<text xml:space="preserve" text-anchor="middle" x="753.38" y="-318.75" font-family="Helvetica,sans-Serif" font-size="10.00">Sensor::getPT1000ChipSelectPin</text>
</a>
</g>
</g>
<!-- Node2 -->
<g id="Node000002" class="node">
<title>Node2</title>
<g id="a_Node000002"><a xlink:href="class_temperature_controller.html#aafd155cdb06d2f411d3640df99815246" target="_top" xlink:title=" ">
<polygon fill="white" stroke="#666666" points="623.88,-461.88 511.88,-461.88 511.88,-431.38 623.88,-431.38 623.88,-461.88"/>
<text xml:space="preserve" text-anchor="start" x="519.88" y="-448.38" font-family="Helvetica,sans-Serif" font-size="10.00">TemperatureController</text>
<text xml:space="preserve" text-anchor="middle" x="567.88" y="-437.12" font-family="Helvetica,sans-Serif" font-size="10.00">::addSensor</text>
</a>
</g>
</g>
<!-- Node1&#45;&gt;Node2 -->
<g id="edge1_Node000001_Node000002" class="edge">
<title>Node1&#45;&gt;Node2</title>
<g id="a_edge1_Node000001_Node000002"><a xlink:title=" ">
<path fill="none" stroke="#63b8ff" d="M733.9,-340.53C711.97,-361.09 673.65,-394.9 636.25,-417.62 628.2,-422.52 619.17,-427.01 610.4,-430.91"/>
<polygon fill="#63b8ff" stroke="#63b8ff" points="736.31,-343.07 741.15,-333.64 731.49,-337.99 736.31,-343.07"/>
</a>
</g>
</g>
<!-- Node3 -->
<g id="Node000003" class="node">
<title>Node3</title>
<g id="a_Node000003"><a xlink:href="class_temperature_controller.html#a79e98c9a1d42de787a66e02b250b7a74" target="_top" xlink:title=" ">
<polygon fill="white" stroke="#666666" points="435.75,-484.88 323.75,-484.88 323.75,-454.38 435.75,-454.38 435.75,-484.88"/>
<text xml:space="preserve" text-anchor="start" x="331.75" y="-471.38" font-family="Helvetica,sans-Serif" font-size="10.00">TemperatureController</text>
<text xml:space="preserve" text-anchor="middle" x="379.75" y="-460.12" font-family="Helvetica,sans-Serif" font-size="10.00">::discoverPTSensors</text>
</a>
</g>
</g>
<!-- Node1&#45;&gt;Node3 -->
<g id="edge2_Node000001_Node000003" class="edge">
<title>Node1&#45;&gt;Node3</title>
<g id="a_edge2_Node000001_Node000003"><a xlink:title=" ">
<path fill="none" stroke="#63b8ff" d="M727.15,-338.55C704.17,-352.5 668.94,-372.54 636.25,-385.62 577.79,-409.02 557.33,-397.74 499.5,-422.62 482.28,-430.04 480.61,-436.96 463.5,-444.62 454.87,-448.49 445.48,-451.96 436.22,-455.01"/>
<polygon fill="#63b8ff" stroke="#63b8ff" points="728.82,-341.63 735.5,-333.41 725.15,-335.67 728.82,-341.63"/>
</a>
</g>
</g>
<!-- Node5 -->
<g id="Node000005" class="node">
<title>Node5</title>
<g id="a_Node000005"><a xlink:href="class_temperature_controller.html#add39ba7dad38449bbf1787a5c9c51ef9" target="_top" xlink:title=" ">
<polygon fill="white" stroke="#666666" points="435.75,-435.88 323.75,-435.88 323.75,-405.38 435.75,-405.38 435.75,-435.88"/>
<text xml:space="preserve" text-anchor="start" x="331.75" y="-422.38" font-family="Helvetica,sans-Serif" font-size="10.00">TemperatureController</text>
<text xml:space="preserve" text-anchor="middle" x="379.75" y="-411.12" font-family="Helvetica,sans-Serif" font-size="10.00">::getPointsJson</text>
</a>
</g>
</g>
<!-- Node1&#45;&gt;Node5 -->
<g id="edge4_Node000001_Node000005" class="edge">
<title>Node1&#45;&gt;Node5</title>
<g id="a_edge4_Node000001_Node000005"><a xlink:title=" ">
<path fill="none" stroke="#63b8ff" d="M702.98,-335.65C633.75,-353.91 508.26,-387 436,-406.05"/>
<polygon fill="#63b8ff" stroke="#63b8ff" points="703.76,-339.06 712.54,-333.13 701.98,-332.3 703.76,-339.06"/>
</a>
</g>
</g>
<!-- Node6 -->
<g id="Node000006" class="node">
<title>Node6</title>
<g id="a_Node000006"><a xlink:href="class_temperature_controller.html#a01e04714a1712aa10c34276850971a12" target="_top" xlink:title=" ">
<polygon fill="white" stroke="#666666" points="623.88,-337.88 511.88,-337.88 511.88,-307.38 623.88,-307.38 623.88,-337.88"/>
<text xml:space="preserve" text-anchor="start" x="519.88" y="-324.38" font-family="Helvetica,sans-Serif" font-size="10.00">TemperatureController</text>
<text xml:space="preserve" text-anchor="middle" x="567.88" y="-313.12" font-family="Helvetica,sans-Serif" font-size="10.00">::getSensorBus</text>
</a>
</g>
</g>
<!-- Node1&#45;&gt;Node6 -->
<g id="edge5_Node000001_Node000006" class="edge">
<title>Node1&#45;&gt;Node6</title>
<g id="a_edge5_Node000001_Node000006"><a xlink:title=" ">
<path fill="none" stroke="#63b8ff" d="M660.53,-322.62C648.13,-322.62 635.74,-322.62 624.25,-322.62"/>
<polygon fill="#63b8ff" stroke="#63b8ff" points="660.38,-326.13 670.38,-322.63 660.38,-319.13 660.38,-326.13"/>
</a>
</g>
</g>
<!-- Node13 -->
<g id="Node000013" class="node">
<title>Node13</title>
<g id="a_Node000013"><a xlink:href="class_config_manager.html#a55b79da91c57039c483ddf5fceabbd64" target="_top" xlink:title=" ">
<polygon fill="white" stroke="#666666" points="636.25,-147.88 499.5,-147.88 499.5,-117.38 636.25,-117.38 636.25,-147.88"/>
<text xml:space="preserve" text-anchor="start" x="507.5" y="-134.38" font-family="Helvetica,sans-Serif" font-size="10.00">ConfigManager::savePoints</text>
<text xml:space="preserve" text-anchor="middle" x="567.88" y="-123.12" font-family="Helvetica,sans-Serif" font-size="10.00">Config</text>
</a>
</g>
</g>
<!-- Node1&#45;&gt;Node13 -->
<g id="edge15_Node000001_Node000013" class="edge">
<title>Node1&#45;&gt;Node13</title>
<g id="a_edge15_Node000001_Node000013"><a xlink:title=" ">
<path fill="none" stroke="#63b8ff" d="M735.11,-304.74C699.38,-267.75 617.86,-183.35 584.03,-148.32"/>
<polygon fill="#63b8ff" stroke="#63b8ff" points="732.25,-306.83 741.72,-311.59 737.29,-301.96 732.25,-306.83"/>
</a>
</g>
</g>
<!-- Node18 -->
<g id="Node000018" class="node">
<title>Node18</title>
<g id="a_Node000018"><a xlink:href="class_config_manager.html#a45b1ce1f09401af0b6f700cf4388b233" target="_top" xlink:title=" ">
<polygon fill="white" stroke="#666666" points="446.62,-19.25 312.88,-19.25 312.88,0 446.62,0 446.62,-19.25"/>
<text xml:space="preserve" text-anchor="middle" x="379.75" y="-5.75" font-family="Helvetica,sans-Serif" font-size="10.00">ConfigManager::sensorAPI</text>
</a>
</g>
</g>
<!-- Node1&#45;&gt;Node18 -->
<g id="edge25_Node000001_Node000018" class="edge">
<title>Node1&#45;&gt;Node18</title>
<g id="a_edge25_Node000001_Node000018"><a xlink:title=" ">
<path fill="none" stroke="#63b8ff" d="M747.02,-301.76C734.91,-258.85 701.27,-160.38 636.25,-108.62 586.9,-69.34 552.53,-104.79 499.5,-70.62 478.55,-57.12 484.83,-40.52 463.5,-27.62 458.22,-24.43 452.44,-21.8 446.47,-19.63"/>
<polygon fill="#63b8ff" stroke="#63b8ff" points="743.61,-302.55 749.59,-311.29 750.36,-300.72 743.61,-302.55"/>
</a>
</g>
</g>
<!-- Node20 -->
<g id="Node000020" class="node">
<title>Node20</title>
<g id="a_Node000020"><a xlink:href="class_temperature_controller.html#a261c9b96540ec6680dfffd3a26e4ca00" target="_top" xlink:title=" ">
<polygon fill="white" stroke="#666666" points="631,-61.88 504.75,-61.88 504.75,-31.38 631,-31.38 631,-61.88"/>
<text xml:space="preserve" text-anchor="start" x="512.75" y="-48.38" font-family="Helvetica,sans-Serif" font-size="10.00">TemperatureController</text>
<text xml:space="preserve" text-anchor="middle" x="567.88" y="-37.12" font-family="Helvetica,sans-Serif" font-size="10.00">::unbindSensorFromPoint</text>
</a>
</g>
</g>
<!-- Node1&#45;&gt;Node20 -->
<g id="edge26_Node000001_Node000020" class="edge">
<title>Node1&#45;&gt;Node20</title>
<g id="a_edge26_Node000001_Node000020"><a xlink:title=" ">
<path fill="none" stroke="#63b8ff" d="M747.86,-301.58C736.82,-254.86 704.25,-141.42 636.25,-75.62 630.76,-70.31 624.14,-65.9 617.23,-62.25"/>
<polygon fill="#63b8ff" stroke="#63b8ff" points="744.41,-302.2 750.03,-311.19 751.24,-300.66 744.41,-302.2"/>
</a>
</g>
</g>
<!-- Node4 -->
<g id="Node000004" class="node">
<title>Node4</title>
<g id="a_Node000004"><a xlink:href="class_temperature_controller.html#af59d6d6d48ed8ddfb968a1fa2dce6768" target="_top" xlink:title=" ">
<polygon fill="white" stroke="#666666" points="260,-484.88 148,-484.88 148,-454.38 260,-454.38 260,-484.88"/>
<text xml:space="preserve" text-anchor="start" x="156" y="-471.38" font-family="Helvetica,sans-Serif" font-size="10.00">TemperatureController</text>
<text xml:space="preserve" text-anchor="middle" x="204" y="-460.12" font-family="Helvetica,sans-Serif" font-size="10.00">::begin</text>
</a>
</g>
</g>
<!-- Node3&#45;&gt;Node4 -->
<g id="edge3_Node000003_Node000004" class="edge">
<title>Node3&#45;&gt;Node4</title>
<g id="a_edge3_Node000003_Node000004"><a xlink:title=" ">
<path fill="none" stroke="#63b8ff" d="M312.21,-469.62C295.04,-469.62 276.75,-469.62 260.22,-469.62"/>
<polygon fill="#63b8ff" stroke="#63b8ff" points="311.78,-473.13 321.78,-469.63 311.78,-466.13 311.78,-473.13"/>
</a>
</g>
</g>
<!-- Node6&#45;&gt;Node3 -->
<g id="edge8_Node000006_Node000003" class="edge">
<title>Node6&#45;&gt;Node3</title>
<g id="a_edge8_Node000006_Node000003"><a xlink:title=" ">
<path fill="none" stroke="#63b8ff" d="M541.08,-345.84C527.96,-358.23 512.15,-374.1 499.5,-389.62 481.04,-412.27 486.89,-427.12 463.5,-444.62 455.33,-450.74 445.66,-455.37 435.87,-458.87"/>
<polygon fill="#63b8ff" stroke="#63b8ff" points="543.21,-348.64 548.15,-339.26 538.44,-343.51 543.21,-348.64"/>
</a>
</g>
</g>
<!-- Node6&#45;&gt;Node5 -->
<g id="edge9_Node000006_Node000005" class="edge">
<title>Node6&#45;&gt;Node5</title>
<g id="a_edge9_Node000006_Node000005"><a xlink:title=" ">
<path fill="none" stroke="#63b8ff" d="M512.17,-343.42C507.73,-345.92 503.44,-348.66 499.5,-351.62 479.32,-366.83 484.51,-381.58 463.5,-395.62 455.27,-401.13 445.78,-405.46 436.23,-408.85"/>
<polygon fill="#63b8ff" stroke="#63b8ff" points="513.45,-346.7 520.73,-339 510.24,-340.48 513.45,-346.7"/>
</a>
</g>
</g>
<!-- Node7 -->
<g id="Node000007" class="node">
<title>Node7</title>
<g id="a_Node000007"><a xlink:href="class_temperature_controller.html#af4ab2c7b7a3934ab7837603a420b1ae2" target="_top" xlink:title=" ">
<polygon fill="white" stroke="#666666" points="463.5,-337.88 296,-337.88 296,-307.38 463.5,-307.38 463.5,-337.88"/>
<text xml:space="preserve" text-anchor="start" x="304" y="-324.38" font-family="Helvetica,sans-Serif" font-size="10.00">TemperatureController</text>
<text xml:space="preserve" text-anchor="middle" x="379.75" y="-313.12" font-family="Helvetica,sans-Serif" font-size="10.00">::bindSensorToPointByBusNumber</text>
</a>
</g>
</g>
<!-- Node6&#45;&gt;Node7 -->
<g id="edge6_Node000006_Node000007" class="edge">
<title>Node6&#45;&gt;Node7</title>
<g id="a_edge6_Node000006_Node000007"><a xlink:title=" ">
<path fill="none" stroke="#63b8ff" d="M500.39,-322.62C488.53,-322.62 476.04,-322.62 463.79,-322.62"/>
<polygon fill="#63b8ff" stroke="#63b8ff" points="500.02,-326.13 510.02,-322.63 500.02,-319.13 500.02,-326.13"/>
</a>
</g>
</g>
<!-- Node8 -->
<g id="Node000008" class="node">
<title>Node8</title>
<g id="a_Node000008"><a xlink:href="class_temperature_controller.html#a57b74b40c88016965d07248981412f7d" target="_top" xlink:title=" ">
<polygon fill="white" stroke="#666666" points="448.12,-288.88 311.38,-288.88 311.38,-258.38 448.12,-258.38 448.12,-288.88"/>
<text xml:space="preserve" text-anchor="start" x="319.38" y="-275.38" font-family="Helvetica,sans-Serif" font-size="10.00">TemperatureController</text>
<text xml:space="preserve" text-anchor="middle" x="379.75" y="-264.12" font-family="Helvetica,sans-Serif" font-size="10.00">::discoverDS18B20Sensors</text>
</a>
</g>
</g>
<!-- Node6&#45;&gt;Node8 -->
<g id="edge7_Node000006_Node000008" class="edge">
<title>Node6&#45;&gt;Node8</title>
<g id="a_edge7_Node000006_Node000008"><a xlink:title=" ">
<path fill="none" stroke="#63b8ff" d="M500.53,-305.16C480.92,-300 459.58,-294.38 440.42,-289.33"/>
<polygon fill="#63b8ff" stroke="#63b8ff" points="499.51,-308.51 510.07,-307.67 501.29,-301.74 499.51,-308.51"/>
</a>
</g>
</g>
<!-- Node9 -->
<g id="Node000009" class="node">
<title>Node9</title>
<g id="a_Node000009"><a xlink:href="class_temperature_controller.html#a58f7a683f6e4c08dbfdfc43c1e740f15" target="_top" xlink:title=" ">
<polygon fill="white" stroke="#666666" points="435.75,-239.88 323.75,-239.88 323.75,-209.38 435.75,-209.38 435.75,-239.88"/>
<text xml:space="preserve" text-anchor="start" x="331.75" y="-226.38" font-family="Helvetica,sans-Serif" font-size="10.00">TemperatureController</text>
<text xml:space="preserve" text-anchor="middle" x="379.75" y="-215.12" font-family="Helvetica,sans-Serif" font-size="10.00">::getSensorsJson</text>
</a>
</g>
</g>
<!-- Node6&#45;&gt;Node9 -->
<g id="edge10_Node000006_Node000009" class="edge">
<title>Node6&#45;&gt;Node9</title>
<g id="a_edge10_Node000006_Node000009"><a xlink:title=" ">
<path fill="none" stroke="#63b8ff" d="M539.77,-299.8C519.76,-283.9 491.28,-263.19 463.5,-249.62 454.87,-245.41 445.38,-241.74 436,-238.61"/>
<polygon fill="#63b8ff" stroke="#63b8ff" points="537.45,-302.42 547.42,-305.99 541.85,-296.98 537.45,-302.42"/>
</a>
</g>
</g>
<!-- Node10 -->
<g id="Node000010" class="node">
<title>Node10</title>
<g id="a_Node000010"><a xlink:href="class_temperature_controller.html#a23dca296a268baa9b8234c8bf9cf0c3e" target="_top" xlink:title=" ">
<polygon fill="white" stroke="#666666" points="435.75,-386.88 323.75,-386.88 323.75,-356.38 435.75,-356.38 435.75,-386.88"/>
<text xml:space="preserve" text-anchor="start" x="331.75" y="-373.38" font-family="Helvetica,sans-Serif" font-size="10.00">TemperatureController</text>
<text xml:space="preserve" text-anchor="middle" x="379.75" y="-362.12" font-family="Helvetica,sans-Serif" font-size="10.00">::updateAllSensors</text>
</a>
</g>
</g>
<!-- Node6&#45;&gt;Node10 -->
<g id="edge11_Node000006_Node000010" class="edge">
<title>Node6&#45;&gt;Node10</title>
<g id="a_edge11_Node000006_Node000010"><a xlink:title=" ">
<path fill="none" stroke="#63b8ff" d="M500.42,-340.12C479.38,-345.66 456.37,-351.72 436.2,-357.03"/>
<polygon fill="#63b8ff" stroke="#63b8ff" points="501.29,-343.51 510.07,-337.58 499.51,-336.74 501.29,-343.51"/>
</a>
</g>
</g>
<!-- Node11 -->
<g id="Node000011" class="node">
<title>Node11</title>
<g id="a_Node000011"><a xlink:href="class_temperature_controller.html#aca5deddbf703001373424d876f87b5f2" target="_top" xlink:title=" ">
<polygon fill="white" stroke="#666666" points="260,-386.88 148,-386.88 148,-356.38 260,-356.38 260,-386.88"/>
<text xml:space="preserve" text-anchor="start" x="156" y="-373.38" font-family="Helvetica,sans-Serif" font-size="10.00">TemperatureController</text>
<text xml:space="preserve" text-anchor="middle" x="204" y="-362.12" font-family="Helvetica,sans-Serif" font-size="10.00">::update</text>
</a>
</g>
</g>
<!-- Node10&#45;&gt;Node11 -->
<g id="edge12_Node000010_Node000011" class="edge">
<title>Node10&#45;&gt;Node11</title>
<g id="a_edge12_Node000010_Node000011"><a xlink:title=" ">
<path fill="none" stroke="#63b8ff" d="M312.21,-371.62C295.04,-371.62 276.75,-371.62 260.22,-371.62"/>
<polygon fill="#63b8ff" stroke="#63b8ff" points="311.78,-375.13 321.78,-371.63 311.78,-368.13 311.78,-375.13"/>
</a>
</g>
</g>
<!-- Node12 -->
<g id="Node000012" class="node">
<title>Node12</title>
<g id="a_Node000012"><a xlink:href="class_temperature_controller.html#a11948a87fe7df37543b86ecdd488b341" target="_top" xlink:title=" ">
<polygon fill="white" stroke="#666666" points="112,-386.88 0,-386.88 0,-356.38 112,-356.38 112,-386.88"/>
<text xml:space="preserve" text-anchor="start" x="8" y="-373.38" font-family="Helvetica,sans-Serif" font-size="10.00">TemperatureController</text>
<text xml:space="preserve" text-anchor="middle" x="56" y="-362.12" font-family="Helvetica,sans-Serif" font-size="10.00">::readAllPoints</text>
</a>
</g>
</g>
<!-- Node11&#45;&gt;Node12 -->
<g id="edge13_Node000011_Node000012" class="edge">
<title>Node11&#45;&gt;Node12</title>
<g id="a_edge13_Node000011_Node000012"><a xlink:title=" ">
<path fill="none" stroke="#63b8ff" d="M136.47,-364.9C128.38,-364.84 120.18,-364.89 112.27,-365.06"/>
<polygon fill="#63b8ff" stroke="#63b8ff" points="136.24,-368.4 146.29,-365.04 136.34,-361.4 136.24,-368.4"/>
</a>
</g>
</g>
<!-- Node12&#45;&gt;Node11 -->
<g id="edge14_Node000012_Node000011" class="edge">
<title>Node12&#45;&gt;Node11</title>
<g id="a_edge14_Node000012_Node000011"><a xlink:title=" ">
<path fill="none" stroke="#63b8ff" d="M123.61,-378.35C131.7,-378.41 139.9,-378.36 147.8,-378.19"/>
<polygon fill="#63b8ff" stroke="#63b8ff" points="123.84,-374.85 113.79,-378.22 123.74,-381.85 123.84,-374.85"/>
</a>
</g>
</g>
<!-- Node14 -->
<g id="Node000014" class="node">
<title>Node14</title>
<g id="a_Node000014"><a xlink:href="class_config_manager.html#ae605c999fabc6344511f455618655326" target="_top" xlink:title=" ">
<polygon fill="white" stroke="#666666" points="446.62,-142.25 312.88,-142.25 312.88,-123 446.62,-123 446.62,-142.25"/>
<text xml:space="preserve" text-anchor="middle" x="379.75" y="-128.75" font-family="Helvetica,sans-Serif" font-size="10.00">ConfigManager::alarmsAPI</text>
</a>
</g>
</g>
<!-- Node13&#45;&gt;Node14 -->
<g id="edge16_Node000013_Node000014" class="edge">
<title>Node13&#45;&gt;Node14</title>
<g id="a_edge16_Node000013_Node000014"><a xlink:title=" ">
<path fill="none" stroke="#63b8ff" d="M487.82,-132.62C474.17,-132.62 460.12,-132.62 446.87,-132.62"/>
<polygon fill="#63b8ff" stroke="#63b8ff" points="487.64,-136.13 497.64,-132.63 487.64,-129.13 487.64,-136.13"/>
</a>
</g>
</g>
<!-- Node16 -->
<g id="Node000016" class="node">
<title>Node16</title>
<g id="a_Node000016"><a xlink:href="class_config_manager.html#a9b7af07b85bf9cc3ac05603db6e89fd2" target="_top" xlink:title=" ">
<polygon fill="white" stroke="#666666" points="445.5,-104.88 314,-104.88 314,-74.38 445.5,-74.38 445.5,-104.88"/>
<text xml:space="preserve" text-anchor="start" x="322" y="-91.38" font-family="Helvetica,sans-Serif" font-size="10.00">ConfigManager::csvImport</text>
<text xml:space="preserve" text-anchor="middle" x="379.75" y="-80.12" font-family="Helvetica,sans-Serif" font-size="10.00">ExportAPI</text>
</a>
</g>
</g>
<!-- Node13&#45;&gt;Node16 -->
<g id="edge18_Node000013_Node000016" class="edge">
<title>Node13&#45;&gt;Node16</title>
<g id="a_edge18_Node000013_Node000016"><a xlink:title=" ">
<path fill="none" stroke="#63b8ff" d="M488.02,-114.41C474,-111.17 459.53,-107.83 445.94,-104.68"/>
<polygon fill="#63b8ff" stroke="#63b8ff" points="487.15,-117.8 497.68,-116.64 488.72,-110.98 487.15,-117.8"/>
</a>
</g>
</g>
<!-- Node17 -->
<g id="Node000017" class="node">
<title>Node17</title>
<g id="a_Node000017"><a xlink:href="class_config_manager.html#a471a844085c27f3a8a8f9394d9c14677" target="_top" xlink:title=" ">
<polygon fill="white" stroke="#666666" points="445.12,-56.25 314.38,-56.25 314.38,-37 445.12,-37 445.12,-56.25"/>
<text xml:space="preserve" text-anchor="middle" x="379.75" y="-42.75" font-family="Helvetica,sans-Serif" font-size="10.00">ConfigManager::pointsAPI</text>
</a>
</g>
</g>
<!-- Node13&#45;&gt;Node17 -->
<g id="edge20_Node000013_Node000017" class="edge">
<title>Node13&#45;&gt;Node17</title>
<g id="a_edge20_Node000013_Node000017"><a xlink:title=" ">
<path fill="none" stroke="#63b8ff" d="M513.39,-112.05C508.55,-109.46 503.84,-106.65 499.5,-103.62 480.42,-90.31 483.7,-77.17 463.5,-65.62 457.1,-61.97 450.04,-59.02 442.83,-56.63"/>
<polygon fill="#63b8ff" stroke="#63b8ff" points="511.56,-115.05 522.08,-116.35 514.67,-108.78 511.56,-115.05"/>
</a>
</g>
</g>
<!-- Node13&#45;&gt;Node18 -->
<g id="edge22_Node000013_Node000018" class="edge">
<title>Node13&#45;&gt;Node18</title>
<g id="a_edge22_Node000013_Node000018"><a xlink:title=" ">
<path fill="none" stroke="#63b8ff" d="M508.79,-111.14C505.47,-108.86 502.34,-106.36 499.5,-103.62 472.6,-77.68 492.77,-50.87 463.5,-27.62 458.55,-23.69 452.93,-20.57 447,-18.11"/>
<polygon fill="#63b8ff" stroke="#63b8ff" points="506.86,-114.06 517.24,-116.21 510.47,-108.06 506.86,-114.06"/>
</a>
</g>
</g>
<!-- Node19 -->
<g id="Node000019" class="node">
<title>Node19</title>
<g id="a_Node000019"><a xlink:href="class_config_manager.html#a0daf50bbd376beb24a5400a86e893338" target="_top" xlink:title=" ">
<polygon fill="white" stroke="#666666" points="449.62,-190.88 309.88,-190.88 309.88,-160.38 449.62,-160.38 449.62,-190.88"/>
<text xml:space="preserve" text-anchor="start" x="317.88" y="-177.38" font-family="Helvetica,sans-Serif" font-size="10.00">ConfigManager::updatePoint</text>
<text xml:space="preserve" text-anchor="middle" x="379.75" y="-166.12" font-family="Helvetica,sans-Serif" font-size="10.00">InConfig</text>
</a>
</g>
</g>
<!-- Node13&#45;&gt;Node19 -->
<g id="edge24_Node000013_Node000019" class="edge">
<title>Node13&#45;&gt;Node19</title>
<g id="a_edge24_Node000013_Node000019"><a xlink:title=" ">
<path fill="none" stroke="#63b8ff" d="M488.24,-150.79C475.1,-153.83 461.57,-156.95 448.73,-159.92"/>
<polygon fill="#63b8ff" stroke="#63b8ff" points="488.72,-154.27 497.68,-148.61 487.15,-147.45 488.72,-154.27"/>
</a>
</g>
</g>
<!-- Node15 -->
<g id="Node000015" class="node">
<title>Node15</title>
<g id="a_Node000015"><a xlink:href="class_config_manager.html#a0497343220fc493f5cf9574922508908" target="_top" xlink:title=" ">
<polygon fill="white" stroke="#666666" points="259.62,-78.25 148.38,-78.25 148.38,-59 259.62,-59 259.62,-78.25"/>
<text xml:space="preserve" text-anchor="middle" x="204" y="-64.75" font-family="Helvetica,sans-Serif" font-size="10.00">ConfigManager::begin</text>
</a>
</g>
</g>
<!-- Node14&#45;&gt;Node15 -->
<g id="edge17_Node000014_Node000015" class="edge">
<title>Node14&#45;&gt;Node15</title>
<g id="a_edge17_Node000014_Node000015"><a xlink:title=" ">
<path fill="none" stroke="#63b8ff" d="M315.44,-119.7C308.81,-117.87 302.23,-115.84 296,-113.62 269.27,-104.1 240.17,-88.75 222.25,-78.68"/>
<polygon fill="#63b8ff" stroke="#63b8ff" points="314.55,-123.09 325.1,-122.22 316.31,-116.31 314.55,-123.09"/>
</a>
</g>
</g>
<!-- Node16&#45;&gt;Node15 -->
<g id="edge19_Node000016_Node000015" class="edge">
<title>Node16&#45;&gt;Node15</title>
<g id="a_edge19_Node000016_Node000015"><a xlink:title=" ">
<path fill="none" stroke="#63b8ff" d="M302.27,-80.38C288.05,-78.66 273.46,-76.9 260.04,-75.28"/>
<polygon fill="#63b8ff" stroke="#63b8ff" points="301.71,-83.84 312.05,-81.56 302.55,-76.89 301.71,-83.84"/>
</a>
</g>
</g>
<!-- Node17&#45;&gt;Node15 -->
<g id="edge21_Node000017_Node000015" class="edge">
<title>Node17&#45;&gt;Node15</title>
<g id="a_edge21_Node000017_Node000015"><a xlink:title=" ">
<path fill="none" stroke="#63b8ff" d="M302.67,-56.26C288.34,-58.07 273.6,-59.94 260.07,-61.65"/>
<polygon fill="#63b8ff" stroke="#63b8ff" points="303.07,-59.74 312.55,-55.01 302.19,-52.79 303.07,-59.74"/>
</a>
</g>
</g>
<!-- Node18&#45;&gt;Node15 -->
<g id="edge23_Node000018_Node000015" class="edge">
<title>Node18&#45;&gt;Node15</title>
<g id="a_edge23_Node000018_Node000015"><a xlink:title=" ">
<path fill="none" stroke="#63b8ff" d="M313.63,-22.43C307.63,-24.02 301.67,-25.75 296,-27.62 270.33,-36.1 242.15,-49.47 224.06,-58.62"/>
<polygon fill="#63b8ff" stroke="#63b8ff" points="314.13,-25.92 322.98,-20.1 312.43,-19.13 314.13,-25.92"/>
</a>
</g>
</g>
</g>
</svg>
