<?xml version="1.0" encoding="UTF-8" standalone="no"?>
<!DOCTYPE svg PUBLIC "-//W3C//DTD SVG 1.1//EN"
 "http://www.w3.org/Graphics/SVG/1.1/DTD/svg11.dtd">
<!-- Generated by graphviz version 13.1.0 (20250701.0955)
 -->
<!-- Title: TemperatureController::update Pages: 1 -->
<svg width="807pt" height="677pt"
 viewBox="0.00 0.00 807.00 677.00" xmlns="http://www.w3.org/2000/svg" xmlns:xlink="http://www.w3.org/1999/xlink">
<g id="graph0" class="graph" transform="scale(1 1) rotate(0) translate(4 672.5)">
<title>TemperatureController::update</title>
<!-- Node1 -->
<g id="Node000001" class="node">
<title>Node1</title>
<g id="a_Node000001"><a xlink:title="Main update function &#45; must be called in loop()">
<polygon fill="#999999" stroke="#666666" points="112,-310.5 0,-310.5 0,-280 112,-280 112,-310.5"/>
<text xml:space="preserve" text-anchor="start" x="8" y="-297" font-family="Helvetica,sans-Serif" font-size="10.00">TemperatureController</text>
<text xml:space="preserve" text-anchor="middle" x="56" y="-285.75" font-family="Helvetica,sans-Serif" font-size="10.00">::update</text>
</a>
</g>
</g>
<!-- Node2 -->
<g id="Node000002" class="node">
<title>Node2</title>
<g id="a_Node000002"><a xlink:href="class_temperature_controller.html#a1228b63e95f26c21a8d9c2a27928bc75" target="_top" xlink:title="Check for button press and handle acknowledgment.">
<polygon fill="white" stroke="#666666" points="427.5,-573.5 315.5,-573.5 315.5,-543 427.5,-543 427.5,-573.5"/>
<text xml:space="preserve" text-anchor="start" x="323.5" y="-560" font-family="Helvetica,sans-Serif" font-size="10.00">TemperatureController</text>
<text xml:space="preserve" text-anchor="middle" x="371.5" y="-548.75" font-family="Helvetica,sans-Serif" font-size="10.00">::_checkButtonPress</text>
</a>
</g>
</g>
<!-- Node1&#45;&gt;Node2 -->
<g id="edge1_Node000001_Node000002" class="edge">
<title>Node1&#45;&gt;Node2</title>
<g id="a_edge1_Node000001_Node000002"><a xlink:title=" ">
<path fill="none" stroke="#63b8ff" d="M59.37,-310.92C65.97,-349.05 88.21,-447.23 148,-498.25 191.39,-535.27 255.46,-549.67 303.72,-555.16"/>
<polygon fill="#63b8ff" stroke="#63b8ff" points="303.19,-558.62 313.5,-556.16 303.91,-551.66 303.19,-558.62"/>
</a>
</g>
</g>
<!-- Node3 -->
<g id="Node000003" class="node">
<title>Node3</title>
<g id="a_Node000003"><a xlink:href="class_temperature_controller.html#a5637103784725fb1a73f6463d7cbfde6" target="_top" xlink:title="Handle alarm display on OLED/LEDs.">
<polygon fill="white" stroke="#666666" points="260,-489.5 148,-489.5 148,-459 260,-459 260,-489.5"/>
<text xml:space="preserve" text-anchor="start" x="156" y="-476" font-family="Helvetica,sans-Serif" font-size="10.00">TemperatureController</text>
<text xml:space="preserve" text-anchor="middle" x="204" y="-464.75" font-family="Helvetica,sans-Serif" font-size="10.00">::handleAlarmDisplay</text>
</a>
</g>
</g>
<!-- Node1&#45;&gt;Node3 -->
<g id="edge2_Node000001_Node000003" class="edge">
<title>Node1&#45;&gt;Node3</title>
<g id="a_edge2_Node000001_Node000003"><a xlink:title=" ">
<path fill="none" stroke="#63b8ff" d="M69.7,-310.82C95.16,-342.03 152.58,-412.44 183.09,-449.83"/>
<polygon fill="#63b8ff" stroke="#63b8ff" points="180.23,-451.88 189.27,-457.41 185.66,-447.45 180.23,-451.88"/>
</a>
</g>
</g>
<!-- Node12 -->
<g id="Node000012" class="node">
<title>Node12</title>
<g id="a_Node000012"><a xlink:href="class_temperature_controller.html#a82e4c37ff4121eaf5e00e9c52381e840" target="_top" xlink:title="Handle alarm output signals.">
<polygon fill="white" stroke="#666666" points="260,-160.5 148,-160.5 148,-130 260,-130 260,-160.5"/>
<text xml:space="preserve" text-anchor="start" x="156" y="-147" font-family="Helvetica,sans-Serif" font-size="10.00">TemperatureController</text>
<text xml:space="preserve" text-anchor="middle" x="204" y="-135.75" font-family="Helvetica,sans-Serif" font-size="10.00">::handleAlarmOutputs</text>
</a>
</g>
</g>
<!-- Node1&#45;&gt;Node12 -->
<g id="edge12_Node000001_Node000012" class="edge">
<title>Node1&#45;&gt;Node12</title>
<g id="a_edge12_Node000001_Node000012"><a xlink:title=" ">
<path fill="none" stroke="#63b8ff" d="M72.07,-279.76C97.65,-253.49 149.69,-200.02 179.89,-168.99"/>
<polygon fill="#63b8ff" stroke="#63b8ff" points="182.27,-171.57 186.73,-161.96 177.25,-166.69 182.27,-171.57"/>
</a>
</g>
</g>
<!-- Node15 -->
<g id="Node000015" class="node">
<title>Node15</title>
<g id="a_Node000015"><a xlink:href="class_temperature_controller.html#a11948a87fe7df37543b86ecdd488b341" target="_top" xlink:title="Read temperature from all configured measurement points.">
<polygon fill="white" stroke="#666666" points="260,-310.5 148,-310.5 148,-280 260,-280 260,-310.5"/>
<text xml:space="preserve" text-anchor="start" x="156" y="-297" font-family="Helvetica,sans-Serif" font-size="10.00">TemperatureController</text>
<text xml:space="preserve" text-anchor="middle" x="204" y="-285.75" font-family="Helvetica,sans-Serif" font-size="10.00">::readAllPoints</text>
</a>
</g>
</g>
<!-- Node1&#45;&gt;Node15 -->
<g id="edge15_Node000001_Node000015" class="edge">
<title>Node1&#45;&gt;Node15</title>
<g id="a_edge15_Node000001_Node000015"><a xlink:title=" ">
<path fill="none" stroke="#63b8ff" d="M112.2,-288.68C120.1,-288.52 128.3,-288.46 136.39,-288.52"/>
<polygon fill="#63b8ff" stroke="#63b8ff" points="136.16,-292.02 146.21,-288.66 136.26,-285.02 136.16,-292.02"/>
</a>
</g>
</g>
<!-- Node16 -->
<g id="Node000016" class="node">
<title>Node16</title>
<g id="a_Node000016"><a xlink:href="class_temperature_controller.html#a5ac8af90de5dfd79a9a2e4c7270a98a3" target="_top" xlink:title="Update alarm states for all measurement points.">
<polygon fill="white" stroke="#666666" points="260,-366.5 148,-366.5 148,-336 260,-336 260,-366.5"/>
<text xml:space="preserve" text-anchor="start" x="156" y="-353" font-family="Helvetica,sans-Serif" font-size="10.00">TemperatureController</text>
<text xml:space="preserve" text-anchor="middle" x="204" y="-341.75" font-family="Helvetica,sans-Serif" font-size="10.00">::updateAlarms</text>
</a>
</g>
</g>
<!-- Node1&#45;&gt;Node16 -->
<g id="edge17_Node000001_Node000016" class="edge">
<title>Node1&#45;&gt;Node16</title>
<g id="a_edge17_Node000001_Node000016"><a xlink:title=" ">
<path fill="none" stroke="#63b8ff" d="M98.06,-311C114.61,-317.35 133.89,-324.74 151.38,-331.45"/>
<polygon fill="#63b8ff" stroke="#63b8ff" points="149.99,-334.67 160.58,-334.98 152.5,-328.13 149.99,-334.67"/>
</a>
</g>
</g>
<!-- Node22 -->
<g id="Node000022" class="node">
<title>Node22</title>
<g id="a_Node000022"><a xlink:href="class_temperature_controller.html#a23dca296a268baa9b8234c8bf9cf0c3e" target="_top" xlink:title="Update temperature readings for all sensors.">
<polygon fill="white" stroke="#666666" points="260,-257.5 148,-257.5 148,-227 260,-227 260,-257.5"/>
<text xml:space="preserve" text-anchor="start" x="156" y="-244" font-family="Helvetica,sans-Serif" font-size="10.00">TemperatureController</text>
<text xml:space="preserve" text-anchor="middle" x="204" y="-232.75" font-family="Helvetica,sans-Serif" font-size="10.00">::updateAllSensors</text>
</a>
</g>
</g>
<!-- Node1&#45;&gt;Node22 -->
<g id="edge24_Node000001_Node000022" class="edge">
<title>Node1&#45;&gt;Node22</title>
<g id="a_edge24_Node000001_Node000022"><a xlink:title=" ">
<path fill="none" stroke="#63b8ff" d="M100.02,-279.63C115.47,-274.02 133.1,-267.63 149.35,-261.73"/>
<polygon fill="#63b8ff" stroke="#63b8ff" points="150.16,-265.16 158.37,-258.45 147.77,-258.58 150.16,-265.16"/>
</a>
</g>
</g>
<!-- Node28 -->
<g id="Node000028" class="node">
<title>Node28</title>
<g id="a_Node000028"><a xlink:href="class_temperature_controller.html#a62b93899a3b8b55e2e0bd933520c2892" target="_top" xlink:title="Update register map with current values from measurement points.">
<polygon fill="white" stroke="#666666" points="260,-79.5 148,-79.5 148,-49 260,-49 260,-79.5"/>
<text xml:space="preserve" text-anchor="start" x="156" y="-66" font-family="Helvetica,sans-Serif" font-size="10.00">TemperatureController</text>
<text xml:space="preserve" text-anchor="middle" x="204" y="-54.75" font-family="Helvetica,sans-Serif" font-size="10.00">::updateRegisterMap</text>
</a>
</g>
</g>
<!-- Node1&#45;&gt;Node28 -->
<g id="edge30_Node000001_Node000028" class="edge">
<title>Node1&#45;&gt;Node28</title>
<g id="a_edge30_Node000001_Node000028"><a xlink:title=" ">
<path fill="none" stroke="#63b8ff" d="M63.42,-279.5C76.67,-247.9 109.12,-175.17 148,-121.25 156.61,-109.31 167.63,-97.39 177.55,-87.56"/>
<polygon fill="#63b8ff" stroke="#63b8ff" points="179.69,-90.36 184.45,-80.89 174.83,-85.33 179.69,-90.36"/>
</a>
</g>
</g>
<!-- Node3&#45;&gt;Node2 -->
<g id="edge3_Node000003_Node000002" class="edge">
<title>Node3&#45;&gt;Node2</title>
<g id="a_edge3_Node000003_Node000002"><a xlink:title=" ">
<path fill="none" stroke="#63b8ff" d="M225.8,-489.91C243.69,-502.83 270.56,-520.98 296,-533.25 299.72,-535.05 303.6,-536.77 307.56,-538.4"/>
<polygon fill="#63b8ff" stroke="#63b8ff" points="306.13,-541.6 316.72,-541.99 308.69,-535.09 306.13,-541.6"/>
</a>
</g>
</g>
<!-- Node4 -->
<g id="Node000004" class="node">
<title>Node4</title>
<g id="a_Node000004"><a xlink:href="class_temperature_controller.html#a1d2745c323f7094beac8f406825499b7" target="_top" xlink:title="Handle alarm display rotation timing.">
<polygon fill="white" stroke="#666666" points="447,-524.5 296,-524.5 296,-494 447,-494 447,-524.5"/>
<text xml:space="preserve" text-anchor="start" x="304" y="-511" font-family="Helvetica,sans-Serif" font-size="10.00">TemperatureController</text>
<text xml:space="preserve" text-anchor="middle" x="371.5" y="-499.75" font-family="Helvetica,sans-Serif" font-size="10.00">::_handleAlarmDisplayRotation</text>
</a>
</g>
</g>
<!-- Node3&#45;&gt;Node4 -->
<g id="edge4_Node000003_Node000004" class="edge">
<title>Node3&#45;&gt;Node4</title>
<g id="a_edge4_Node000003_Node000004"><a xlink:title=" ">
<path fill="none" stroke="#63b8ff" d="M260.11,-485.9C268.15,-487.61 276.59,-489.39 285.06,-491.18"/>
<polygon fill="#63b8ff" stroke="#63b8ff" points="284.2,-494.58 294.71,-493.22 285.65,-487.73 284.2,-494.58"/>
</a>
</g>
</g>
<!-- Node9 -->
<g id="Node000009" class="node">
<title>Node9</title>
<g id="a_Node000009"><a xlink:href="class_temperature_controller.html#a477597992aa9362076843f37b648741a" target="_top" xlink:title="Update alarm display queues.">
<polygon fill="white" stroke="#666666" points="429.38,-475.5 313.62,-475.5 313.62,-445 429.38,-445 429.38,-475.5"/>
<text xml:space="preserve" text-anchor="start" x="321.62" y="-462" font-family="Helvetica,sans-Serif" font-size="10.00">TemperatureController</text>
<text xml:space="preserve" text-anchor="middle" x="371.5" y="-450.75" font-family="Helvetica,sans-Serif" font-size="10.00">::_updateAlarmQueues</text>
</a>
</g>
</g>
<!-- Node3&#45;&gt;Node9 -->
<g id="edge9_Node000003_Node000009" class="edge">
<title>Node3&#45;&gt;Node9</title>
<g id="a_edge9_Node000003_Node000009"><a xlink:title=" ">
<path fill="none" stroke="#63b8ff" d="M260.11,-469.59C273.61,-468.45 288.23,-467.21 302.26,-466.02"/>
<polygon fill="#63b8ff" stroke="#63b8ff" points="302.19,-469.54 311.86,-465.21 301.6,-462.57 302.19,-469.54"/>
</a>
</g>
</g>
<!-- Node5 -->
<g id="Node000005" class="node">
<title>Node5</title>
<g id="a_Node000005"><a xlink:href="class_temperature_controller.html#ac44de0834e13cec755e247ce1df21f09" target="_top" xlink:title="Display next acknowledged alarm.">
<polygon fill="white" stroke="#666666" points="651.25,-570.5 483,-570.5 483,-540 651.25,-540 651.25,-570.5"/>
<text xml:space="preserve" text-anchor="start" x="491" y="-557" font-family="Helvetica,sans-Serif" font-size="10.00">TemperatureController</text>
<text xml:space="preserve" text-anchor="middle" x="567.12" y="-545.75" font-family="Helvetica,sans-Serif" font-size="10.00">::_displayNextAcknowledgedAlarm</text>
</a>
</g>
</g>
<!-- Node4&#45;&gt;Node5 -->
<g id="edge5_Node000004_Node000005" class="edge">
<title>Node4&#45;&gt;Node5</title>
<g id="a_edge5_Node000004_Node000005"><a xlink:title=" ">
<path fill="none" stroke="#63b8ff" d="M438.59,-524.95C454.86,-528.82 472.42,-532.99 489.15,-536.96"/>
<polygon fill="#63b8ff" stroke="#63b8ff" points="487.99,-540.28 498.53,-539.19 489.61,-533.47 487.99,-540.28"/>
</a>
</g>
</g>
<!-- Node6 -->
<g id="Node000006" class="node">
<title>Node6</title>
<g id="a_Node000006"><a xlink:href="class_temperature_controller.html#a7ca5124357f98bcd52316cf017341b09" target="_top" xlink:title="Display next active alarm in rotation.">
<polygon fill="white" stroke="#666666" points="633.25,-521.5 501,-521.5 501,-491 633.25,-491 633.25,-521.5"/>
<text xml:space="preserve" text-anchor="start" x="509" y="-508" font-family="Helvetica,sans-Serif" font-size="10.00">TemperatureController</text>
<text xml:space="preserve" text-anchor="middle" x="567.12" y="-496.75" font-family="Helvetica,sans-Serif" font-size="10.00">::_displayNextActiveAlarm</text>
</a>
</g>
</g>
<!-- Node4&#45;&gt;Node6 -->
<g id="edge6_Node000004_Node000006" class="edge">
<title>Node4&#45;&gt;Node6</title>
<g id="a_edge6_Node000004_Node000006"><a xlink:title=" ">
<path fill="none" stroke="#63b8ff" d="M447.36,-508.09C461.08,-507.88 475.42,-507.66 489.19,-507.44"/>
<polygon fill="#63b8ff" stroke="#63b8ff" points="489.15,-510.94 499.1,-507.29 489.04,-503.94 489.15,-510.94"/>
</a>
</g>
</g>
<!-- Node7 -->
<g id="Node000007" class="node">
<title>Node7</title>
<g id="a_Node000007"><a xlink:href="class_temperature_controller.html#a28e81945f5235e161e6c532b428d36d2" target="_top" xlink:title="Show OK status and turn off OLED after delay.">
<polygon fill="white" stroke="#666666" points="638.12,-668.5 496.12,-668.5 496.12,-638 638.12,-638 638.12,-668.5"/>
<text xml:space="preserve" text-anchor="start" x="504.12" y="-655" font-family="Helvetica,sans-Serif" font-size="10.00">TemperatureController</text>
<text xml:space="preserve" text-anchor="middle" x="567.12" y="-643.75" font-family="Helvetica,sans-Serif" font-size="10.00">::_showOKAndTurnOffOLED</text>
</a>
</g>
</g>
<!-- Node4&#45;&gt;Node7 -->
<g id="edge7_Node000004_Node000007" class="edge">
<title>Node4&#45;&gt;Node7</title>
<g id="a_edge7_Node000004_Node000007"><a xlink:title=" ">
<path fill="none" stroke="#63b8ff" d="M434.42,-524.96C438.99,-527.59 443.26,-530.66 447,-534.25 479.29,-565.21 450.22,-597.8 483,-628.25 484.09,-629.26 485.21,-630.23 486.37,-631.16"/>
<polygon fill="#63b8ff" stroke="#63b8ff" points="484.37,-634.03 494.62,-636.71 488.28,-628.22 484.37,-634.03"/>
</a>
</g>
</g>
<!-- Node8 -->
<g id="Node000008" class="node">
<title>Node8</title>
<g id="a_Node000008"><a xlink:href="class_temperature_controller.html#a4d36576f7d6ab8f5222a082878314912" target="_top" xlink:title="Update normal temperature display.">
<polygon fill="white" stroke="#666666" points="627.62,-619.5 506.62,-619.5 506.62,-589 627.62,-589 627.62,-619.5"/>
<text xml:space="preserve" text-anchor="start" x="514.62" y="-606" font-family="Helvetica,sans-Serif" font-size="10.00">TemperatureController</text>
<text xml:space="preserve" text-anchor="middle" x="567.12" y="-594.75" font-family="Helvetica,sans-Serif" font-size="10.00">::_updateNormalDisplay</text>
</a>
</g>
</g>
<!-- Node4&#45;&gt;Node8 -->
<g id="edge8_Node000004_Node000008" class="edge">
<title>Node4&#45;&gt;Node8</title>
<g id="a_edge8_Node000004_Node000008"><a xlink:title=" ">
<path fill="none" stroke="#63b8ff" d="M430.26,-524.86C436.15,-527.55 441.86,-530.66 447,-534.25 467.99,-548.92 461.78,-564.91 483,-579.25 487.12,-582.03 491.55,-584.51 496.15,-586.72"/>
<polygon fill="#63b8ff" stroke="#63b8ff" points="494.47,-589.81 505.04,-590.54 497.23,-583.37 494.47,-589.81"/>
</a>
</g>
</g>
<!-- Node10 -->
<g id="Node000010" class="node">
<title>Node10</title>
<g id="a_Node000010"><a xlink:href="class_temperature_controller.html#af58201023d15de003d4f1b9a9771a9e3" target="_top" xlink:title="Get list of active alarms.">
<polygon fill="white" stroke="#666666" points="623.12,-435.5 511.12,-435.5 511.12,-405 623.12,-405 623.12,-435.5"/>
<text xml:space="preserve" text-anchor="start" x="519.12" y="-422" font-family="Helvetica,sans-Serif" font-size="10.00">TemperatureController</text>
<text xml:space="preserve" text-anchor="middle" x="567.12" y="-410.75" font-family="Helvetica,sans-Serif" font-size="10.00">::getActiveAlarms</text>
</a>
</g>
</g>
<!-- Node9&#45;&gt;Node10 -->
<g id="edge10_Node000009_Node000010" class="edge">
<title>Node9&#45;&gt;Node10</title>
<g id="a_edge10_Node000009_Node000010"><a xlink:title=" ">
<path fill="none" stroke="#63b8ff" d="M429.81,-448.41C451.65,-443.9 476.74,-438.72 499.39,-434.04"/>
<polygon fill="#63b8ff" stroke="#63b8ff" points="500.06,-437.47 509.15,-432.02 498.65,-430.62 500.06,-437.47"/>
</a>
</g>
</g>
<!-- Node11 -->
<g id="Node000011" class="node">
<title>Node11</title>
<g id="a_Node000011"><a xlink:href="class_alarm.html#a7a4a3290a6a659542f82fe08a96736a8" target="_top" xlink:title="Get the alarm creation timestamp.">
<polygon fill="white" stroke="#666666" points="622,-472.88 512.25,-472.88 512.25,-453.62 622,-453.62 622,-472.88"/>
<text xml:space="preserve" text-anchor="middle" x="567.12" y="-459.38" font-family="Helvetica,sans-Serif" font-size="10.00">Alarm::getTimestamp</text>
</a>
</g>
</g>
<!-- Node9&#45;&gt;Node11 -->
<g id="edge11_Node000009_Node000011" class="edge">
<title>Node9&#45;&gt;Node11</title>
<g id="a_edge11_Node000009_Node000011"><a xlink:title=" ">
<path fill="none" stroke="#63b8ff" d="M429.81,-461.14C452.04,-461.48 477.62,-461.88 500.57,-462.23"/>
<polygon fill="#63b8ff" stroke="#63b8ff" points="500.39,-465.73 510.44,-462.39 500.49,-458.73 500.39,-465.73"/>
</a>
</g>
</g>
<!-- Node13 -->
<g id="Node000013" class="node">
<title>Node13</title>
<g id="a_Node000013"><a xlink:href="class_temperature_controller.html#a3022c7a72adb45a7800d5189eecdac4e" target="_top" xlink:title="Get total number of configured alarms.">
<polygon fill="white" stroke="#666666" points="623.12,-122.5 511.12,-122.5 511.12,-92 623.12,-92 623.12,-122.5"/>
<text xml:space="preserve" text-anchor="start" x="519.12" y="-109" font-family="Helvetica,sans-Serif" font-size="10.00">TemperatureController</text>
<text xml:space="preserve" text-anchor="middle" x="567.12" y="-97.75" font-family="Helvetica,sans-Serif" font-size="10.00">::getAlarmCount</text>
</a>
</g>
</g>
<!-- Node12&#45;&gt;Node13 -->
<g id="edge13_Node000012_Node000013" class="edge">
<title>Node12&#45;&gt;Node13</title>
<g id="a_edge13_Node000012_Node000013"><a xlink:title=" ">
<path fill="none" stroke="#63b8ff" d="M260.13,-132.49C271.92,-130.11 284.33,-127.87 296,-126.25 365.01,-116.66 444.66,-111.81 499.49,-109.42"/>
<polygon fill="#63b8ff" stroke="#63b8ff" points="499.44,-112.93 509.29,-109.01 499.15,-105.93 499.44,-112.93"/>
</a>
</g>
</g>
<!-- Node14 -->
<g id="Node000014" class="node">
<title>Node14</title>
<g id="a_Node000014"><a xlink:href="class_logger_manager.html#a5c1373ccc47f4112b596fe6f84fbbc21" target="_top" xlink:title="Log informational message (static convenience method)">
<polygon fill="white" stroke="#666666" points="423.75,-154.88 319.25,-154.88 319.25,-135.62 423.75,-135.62 423.75,-154.88"/>
<text xml:space="preserve" text-anchor="middle" x="371.5" y="-141.38" font-family="Helvetica,sans-Serif" font-size="10.00">LoggerManager::info</text>
</a>
</g>
</g>
<!-- Node12&#45;&gt;Node14 -->
<g id="edge14_Node000012_Node000014" class="edge">
<title>Node12&#45;&gt;Node14</title>
<g id="a_edge14_Node000012_Node000014"><a xlink:title=" ">
<path fill="none" stroke="#63b8ff" d="M260.11,-145.25C275.39,-145.25 292.1,-145.25 307.78,-145.25"/>
<polygon fill="#63b8ff" stroke="#63b8ff" points="307.48,-148.75 317.48,-145.25 307.48,-141.75 307.48,-148.75"/>
</a>
</g>
</g>
<!-- Node15&#45;&gt;Node1 -->
<g id="edge16_Node000015_Node000001" class="edge">
<title>Node15&#45;&gt;Node1</title>
<g id="a_edge16_Node000015_Node000001"><a xlink:title=" ">
<path fill="none" stroke="#63b8ff" d="M147.73,-301.82C139.82,-301.98 131.62,-302.04 123.53,-301.98"/>
<polygon fill="#63b8ff" stroke="#63b8ff" points="123.76,-298.48 113.71,-301.84 123.66,-305.48 123.76,-298.48"/>
</a>
</g>
</g>
<!-- Node16&#45;&gt;Node10 -->
<g id="edge18_Node000016_Node000010" class="edge">
<title>Node16&#45;&gt;Node10</title>
<g id="a_edge18_Node000016_Node000010"><a xlink:title=" ">
<path fill="none" stroke="#63b8ff" d="M260.14,-366.67C271.93,-369.72 284.34,-372.75 296,-375.25 364.89,-390.04 444.55,-402.79 499.42,-410.9"/>
<polygon fill="#63b8ff" stroke="#63b8ff" points="498.84,-414.35 509.25,-412.34 499.86,-407.43 498.84,-414.35"/>
</a>
</g>
</g>
<!-- Node17 -->
<g id="Node000017" class="node">
<title>Node17</title>
<g id="a_Node000017"><a xlink:href="class_temperature_controller.html#a9b4fe09d4c87dcf86e78b890012e1e72" target="_top" xlink:title="Get sensor bound to measurement point.">
<polygon fill="white" stroke="#666666" points="427.5,-366.5 315.5,-366.5 315.5,-336 427.5,-336 427.5,-366.5"/>
<text xml:space="preserve" text-anchor="start" x="323.5" y="-353" font-family="Helvetica,sans-Serif" font-size="10.00">TemperatureController</text>
<text xml:space="preserve" text-anchor="middle" x="371.5" y="-341.75" font-family="Helvetica,sans-Serif" font-size="10.00">::getBoundSensor</text>
</a>
</g>
</g>
<!-- Node16&#45;&gt;Node17 -->
<g id="edge19_Node000016_Node000017" class="edge">
<title>Node16&#45;&gt;Node17</title>
<g id="a_edge19_Node000016_Node000017"><a xlink:title=" ">
<path fill="none" stroke="#63b8ff" d="M260.11,-351.25C274.06,-351.25 289.19,-351.25 303.65,-351.25"/>
<polygon fill="#63b8ff" stroke="#63b8ff" points="303.55,-354.75 313.55,-351.25 303.55,-347.75 303.55,-354.75"/>
</a>
</g>
</g>
<!-- Node18 -->
<g id="Node000018" class="node">
<title>Node18</title>
<g id="a_Node000018"><a xlink:href="class_measurement_point.html#a81c7ae93a9314344967d0f31c6fefe2f" target="_top" xlink:title="Get pointer to bound sensor.">
<polygon fill="white" stroke="#666666" points="639.62,-337.5 494.62,-337.5 494.62,-307 639.62,-307 639.62,-337.5"/>
<text xml:space="preserve" text-anchor="start" x="502.62" y="-324" font-family="Helvetica,sans-Serif" font-size="10.00">MeasurementPoint::getBound</text>
<text xml:space="preserve" text-anchor="middle" x="567.12" y="-312.75" font-family="Helvetica,sans-Serif" font-size="10.00">Sensor</text>
</a>
</g>
</g>
<!-- Node17&#45;&gt;Node18 -->
<g id="edge20_Node000017_Node000018" class="edge">
<title>Node17&#45;&gt;Node18</title>
<g id="a_edge20_Node000017_Node000018"><a xlink:title=" ">
<path fill="none" stroke="#63b8ff" d="M427.99,-342.94C445.19,-340.36 464.53,-337.47 483.17,-334.67"/>
<polygon fill="#63b8ff" stroke="#63b8ff" points="483.49,-338.17 492.86,-333.22 482.45,-331.24 483.49,-338.17"/>
</a>
</g>
</g>
<!-- Node19 -->
<g id="Node000019" class="node">
<title>Node19</title>
<g id="a_Node000019"><a xlink:href="class_temperature_controller.html#a494f057c234b4ff7526bde271aec9267" target="_top" xlink:title="Get measurement point by address.">
<polygon fill="white" stroke="#666666" points="625.75,-386.5 508.5,-386.5 508.5,-356 625.75,-356 625.75,-386.5"/>
<text xml:space="preserve" text-anchor="start" x="516.5" y="-373" font-family="Helvetica,sans-Serif" font-size="10.00">TemperatureController</text>
<text xml:space="preserve" text-anchor="middle" x="567.12" y="-361.75" font-family="Helvetica,sans-Serif" font-size="10.00">::getMeasurementPoint</text>
</a>
</g>
</g>
<!-- Node17&#45;&gt;Node19 -->
<g id="edge21_Node000017_Node000019" class="edge">
<title>Node17&#45;&gt;Node19</title>
<g id="a_edge21_Node000017_Node000019"><a xlink:title=" ">
<path fill="none" stroke="#63b8ff" d="M427.99,-356.98C449.49,-359.2 474.36,-361.77 497.01,-364.11"/>
<polygon fill="#63b8ff" stroke="#63b8ff" points="496.46,-367.57 506.77,-365.12 497.18,-360.61 496.46,-367.57"/>
</a>
</g>
</g>
<!-- Node20 -->
<g id="Node000020" class="node">
<title>Node20</title>
<g id="a_Node000020"><a xlink:href="class_temperature_controller.html#ad322a5bab8d5788a586206004248f673" target="_top" xlink:title="Check if address is for DS18B20 sensor.">
<polygon fill="white" stroke="#666666" points="799.25,-361.5 687.25,-361.5 687.25,-331 799.25,-331 799.25,-361.5"/>
<text xml:space="preserve" text-anchor="start" x="695.25" y="-348" font-family="Helvetica,sans-Serif" font-size="10.00">TemperatureController</text>
<text xml:space="preserve" text-anchor="middle" x="743.25" y="-336.75" font-family="Helvetica,sans-Serif" font-size="10.00">::isDS18B20Address</text>
</a>
</g>
</g>
<!-- Node19&#45;&gt;Node20 -->
<g id="edge22_Node000019_Node000020" class="edge">
<title>Node19&#45;&gt;Node20</title>
<g id="a_edge22_Node000019_Node000020"><a xlink:title=" ">
<path fill="none" stroke="#63b8ff" d="M626.11,-362.93C642.02,-360.64 659.4,-358.14 675.76,-355.8"/>
<polygon fill="#63b8ff" stroke="#63b8ff" points="675.98,-359.3 685.38,-354.41 674.99,-352.37 675.98,-359.3"/>
</a>
</g>
</g>
<!-- Node21 -->
<g id="Node000021" class="node">
<title>Node21</title>
<g id="a_Node000021"><a xlink:href="class_temperature_controller.html#a13125ddcf29cb56d27403818543618af" target="_top" xlink:title="Check if address is for PT1000 sensor.">
<polygon fill="white" stroke="#666666" points="799.25,-410.5 687.25,-410.5 687.25,-380 799.25,-380 799.25,-410.5"/>
<text xml:space="preserve" text-anchor="start" x="695.25" y="-397" font-family="Helvetica,sans-Serif" font-size="10.00">TemperatureController</text>
<text xml:space="preserve" text-anchor="middle" x="743.25" y="-385.75" font-family="Helvetica,sans-Serif" font-size="10.00">::isPT1000Address</text>
</a>
</g>
</g>
<!-- Node19&#45;&gt;Node21 -->
<g id="edge23_Node000019_Node000021" class="edge">
<title>Node19&#45;&gt;Node21</title>
<g id="a_edge23_Node000019_Node000021"><a xlink:title=" ">
<path fill="none" stroke="#63b8ff" d="M626.11,-379.24C642.02,-381.44 659.4,-383.83 675.76,-386.08"/>
<polygon fill="#63b8ff" stroke="#63b8ff" points="675,-389.51 685.38,-387.41 675.96,-382.58 675,-389.51"/>
</a>
</g>
</g>
<!-- Node23 -->
<g id="Node000023" class="node">
<title>Node23</title>
<g id="a_Node000023"><a xlink:href="class_logger_manager.html#aef24f00186213fa78be3b104a50d58e6" target="_top" xlink:title="Log error message (static convenience method)">
<polygon fill="white" stroke="#666666" points="797.38,-67.88 689.12,-67.88 689.12,-48.62 797.38,-48.62 797.38,-67.88"/>
<text xml:space="preserve" text-anchor="middle" x="743.25" y="-54.38" font-family="Helvetica,sans-Serif" font-size="10.00">LoggerManager::error</text>
</a>
</g>
</g>
<!-- Node22&#45;&gt;Node23 -->
<g id="edge25_Node000022_Node000023" class="edge">
<title>Node22&#45;&gt;Node23</title>
<g id="a_edge25_Node000022_Node000023"><a xlink:title=" ">
<path fill="none" stroke="#63b8ff" d="M260.3,-227.5C272.07,-224.4 284.44,-221.19 296,-218.25 453.54,-178.19 505.46,-203.14 651.25,-131.25 679.87,-117.14 707.73,-92.75 724.92,-76.08"/>
<polygon fill="#63b8ff" stroke="#63b8ff" points="727.19,-78.76 731.81,-69.22 722.26,-73.79 727.19,-78.76"/>
</a>
</g>
</g>
<!-- Node24 -->
<g id="Node000024" class="node">
<title>Node24</title>
<g id="a_Node000024"><a xlink:href="class_temperature_controller.html#a01e04714a1712aa10c34276850971a12" target="_top" xlink:title="Get bus number for a sensor.">
<polygon fill="white" stroke="#666666" points="427.5,-257.5 315.5,-257.5 315.5,-227 427.5,-227 427.5,-257.5"/>
<text xml:space="preserve" text-anchor="start" x="323.5" y="-244" font-family="Helvetica,sans-Serif" font-size="10.00">TemperatureController</text>
<text xml:space="preserve" text-anchor="middle" x="371.5" y="-232.75" font-family="Helvetica,sans-Serif" font-size="10.00">::getSensorBus</text>
</a>
</g>
</g>
<!-- Node22&#45;&gt;Node24 -->
<g id="edge26_Node000022_Node000024" class="edge">
<title>Node22&#45;&gt;Node24</title>
<g id="a_edge26_Node000022_Node000024"><a xlink:title=" ">
<path fill="none" stroke="#63b8ff" d="M260.11,-242.25C274.06,-242.25 289.19,-242.25 303.65,-242.25"/>
<polygon fill="#63b8ff" stroke="#63b8ff" points="303.55,-245.75 313.55,-242.25 303.55,-238.75 303.55,-245.75"/>
</a>
</g>
</g>
<!-- Node25 -->
<g id="Node000025" class="node">
<title>Node25</title>
<g id="a_Node000025"><a xlink:href="class_sensor.html#ac42da3a37b0d6a9622344fe83f4c9047" target="_top" xlink:title="Get OneWire bus pin.">
<polygon fill="white" stroke="#666666" points="626.5,-288.88 507.75,-288.88 507.75,-269.62 626.5,-269.62 626.5,-288.88"/>
<text xml:space="preserve" text-anchor="middle" x="567.12" y="-275.38" font-family="Helvetica,sans-Serif" font-size="10.00">Sensor::getOneWirePin</text>
</a>
</g>
</g>
<!-- Node24&#45;&gt;Node25 -->
<g id="edge27_Node000024_Node000025" class="edge">
<title>Node24&#45;&gt;Node25</title>
<g id="a_edge27_Node000024_Node000025"><a xlink:title=" ">
<path fill="none" stroke="#63b8ff" d="M427.99,-252.85C451.14,-257.28 478.17,-262.44 502.16,-267.03"/>
<polygon fill="#63b8ff" stroke="#63b8ff" points="501.33,-270.43 511.81,-268.87 502.64,-263.56 501.33,-270.43"/>
</a>
</g>
</g>
<!-- Node26 -->
<g id="Node000026" class="node">
<title>Node26</title>
<g id="a_Node000026"><a xlink:href="class_sensor.html#a6f57825e90b759ccdb9fe07b3a36953d" target="_top" xlink:title="Get PT1000 chip select pin.">
<polygon fill="white" stroke="#666666" points="648.25,-251.88 486,-251.88 486,-232.62 648.25,-232.62 648.25,-251.88"/>
<text xml:space="preserve" text-anchor="middle" x="567.12" y="-238.38" font-family="Helvetica,sans-Serif" font-size="10.00">Sensor::getPT1000ChipSelectPin</text>
</a>
</g>
</g>
<!-- Node24&#45;&gt;Node26 -->
<g id="edge28_Node000024_Node000026" class="edge">
<title>Node24&#45;&gt;Node26</title>
<g id="a_edge28_Node000024_Node000026"><a xlink:title=" ">
<path fill="none" stroke="#63b8ff" d="M427.99,-242.25C442.46,-242.25 458.46,-242.25 474.28,-242.25"/>
<polygon fill="#63b8ff" stroke="#63b8ff" points="474.23,-245.75 484.23,-242.25 474.23,-238.75 474.23,-245.75"/>
</a>
</g>
</g>
<!-- Node27 -->
<g id="Node000027" class="node">
<title>Node27</title>
<g id="a_Node000027"><a xlink:href="class_sensor.html#a0f6f095e7cfdfffb2a395dfdae7cfa53" target="_top" xlink:title="Get sensor type.">
<polygon fill="white" stroke="#666666" points="610.75,-214.88 523.5,-214.88 523.5,-195.62 610.75,-195.62 610.75,-214.88"/>
<text xml:space="preserve" text-anchor="middle" x="567.12" y="-201.38" font-family="Helvetica,sans-Serif" font-size="10.00">Sensor::getType</text>
</a>
</g>
</g>
<!-- Node24&#45;&gt;Node27 -->
<g id="edge29_Node000024_Node000027" class="edge">
<title>Node24&#45;&gt;Node27</title>
<g id="a_edge29_Node000024_Node000027"><a xlink:title=" ">
<path fill="none" stroke="#63b8ff" d="M427.99,-231.65C454.37,-226.61 485.79,-220.6 511.99,-215.59"/>
<polygon fill="#63b8ff" stroke="#63b8ff" points="512.6,-219.04 521.76,-213.73 511.28,-212.17 512.6,-219.04"/>
</a>
</g>
</g>
<!-- Node29 -->
<g id="Node000029" class="node">
<title>Node29</title>
<g id="a_Node000029"><a xlink:href="class_temperature_controller.html#aac890ae08b5eddcf272771ecdba61453" target="_top" xlink:title="Get relay actual state.">
<polygon fill="white" stroke="#666666" points="427.5,-30.5 315.5,-30.5 315.5,0 427.5,0 427.5,-30.5"/>
<text xml:space="preserve" text-anchor="start" x="323.5" y="-17" font-family="Helvetica,sans-Serif" font-size="10.00">TemperatureController</text>
<text xml:space="preserve" text-anchor="middle" x="371.5" y="-5.75" font-family="Helvetica,sans-Serif" font-size="10.00">::getRelayActualState</text>
</a>
</g>
</g>
<!-- Node28&#45;&gt;Node29 -->
<g id="edge31_Node000028_Node000029" class="edge">
<title>Node28&#45;&gt;Node29</title>
<g id="a_edge31_Node000028_Node000029"><a xlink:title=" ">
<path fill="none" stroke="#63b8ff" d="M257.82,-48.61C273.27,-44.04 290.33,-38.99 306.4,-34.23"/>
<polygon fill="#63b8ff" stroke="#63b8ff" points="307.28,-37.62 315.88,-31.42 305.3,-30.9 307.28,-37.62"/>
</a>
</g>
</g>
<!-- Node30 -->
<g id="Node000030" class="node">
<title>Node30</title>
<g id="a_Node000030"><a xlink:href="class_temperature_controller.html#a20a14014a639f3390dba82a6cd39d067" target="_top" xlink:title="Get relay commanded state.">
<polygon fill="white" stroke="#666666" points="441.38,-79.5 301.62,-79.5 301.62,-49 441.38,-49 441.38,-79.5"/>
<text xml:space="preserve" text-anchor="start" x="309.62" y="-66" font-family="Helvetica,sans-Serif" font-size="10.00">TemperatureController</text>
<text xml:space="preserve" text-anchor="middle" x="371.5" y="-54.75" font-family="Helvetica,sans-Serif" font-size="10.00">::getRelayCommandedState</text>
</a>
</g>
</g>
<!-- Node28&#45;&gt;Node30 -->
<g id="edge33_Node000028_Node000030" class="edge">
<title>Node28&#45;&gt;Node30</title>
<g id="a_edge33_Node000028_Node000030"><a xlink:title=" ">
<path fill="none" stroke="#63b8ff" d="M260.11,-64.25C269.67,-64.25 279.8,-64.25 289.87,-64.25"/>
<polygon fill="#63b8ff" stroke="#63b8ff" points="289.69,-67.75 299.69,-64.25 289.69,-60.75 289.69,-67.75"/>
</a>
</g>
</g>
<!-- Node29&#45;&gt;Node23 -->
<g id="edge32_Node000029_Node000023" class="edge">
<title>Node29&#45;&gt;Node23</title>
<g id="a_edge32_Node000029_Node000023"><a xlink:title=" ">
<path fill="none" stroke="#63b8ff" d="M427.86,-15.94C484.37,-17.36 574.43,-21.62 651.25,-34.25 667.05,-36.85 684.09,-40.98 699.11,-45.08"/>
<polygon fill="#63b8ff" stroke="#63b8ff" points="698.11,-48.43 708.69,-47.78 700.01,-41.7 698.11,-48.43"/>
</a>
</g>
</g>
<!-- Node30&#45;&gt;Node13 -->
<g id="edge34_Node000030_Node000013" class="edge">
<title>Node30&#45;&gt;Node13</title>
<g id="a_edge34_Node000030_Node000013"><a xlink:title=" ">
<path fill="none" stroke="#63b8ff" d="M441.86,-79.65C460.73,-83.84 481.11,-88.37 499.81,-92.52"/>
<polygon fill="#63b8ff" stroke="#63b8ff" points="498.9,-95.91 509.42,-94.66 500.42,-89.07 498.9,-95.91"/>
</a>
</g>
</g>
<!-- Node31 -->
<g id="Node000031" class="node">
<title>Node31</title>
<g id="a_Node000031"><a xlink:href="class_temperature_controller.html#a61ff288cbeaa86dc21c610c778dba64e" target="_top" xlink:title="Get relay control mode.">
<polygon fill="white" stroke="#666666" points="625.38,-73.5 508.88,-73.5 508.88,-43 625.38,-43 625.38,-73.5"/>
<text xml:space="preserve" text-anchor="start" x="516.88" y="-60" font-family="Helvetica,sans-Serif" font-size="10.00">TemperatureController</text>
<text xml:space="preserve" text-anchor="middle" x="567.12" y="-48.75" font-family="Helvetica,sans-Serif" font-size="10.00">::getRelayControlMode</text>
</a>
</g>
</g>
<!-- Node30&#45;&gt;Node31 -->
<g id="edge35_Node000030_Node000031" class="edge">
<title>Node30&#45;&gt;Node31</title>
<g id="a_edge35_Node000030_Node000031"><a xlink:title=" ">
<path fill="none" stroke="#63b8ff" d="M441.86,-62.1C459.83,-61.54 479.19,-60.94 497.15,-60.39"/>
<polygon fill="#63b8ff" stroke="#63b8ff" points="497.02,-63.89 506.9,-60.09 496.8,-56.9 497.02,-63.89"/>
</a>
</g>
</g>
<!-- Node31&#45;&gt;Node23 -->
<g id="edge36_Node000031_Node000023" class="edge">
<title>Node31&#45;&gt;Node23</title>
<g id="a_edge36_Node000031_Node000023"><a xlink:title=" ">
<path fill="none" stroke="#63b8ff" d="M625.62,-58.25C642.12,-58.25 660.23,-58.25 677.15,-58.25"/>
<polygon fill="#63b8ff" stroke="#63b8ff" points="677.13,-61.75 687.13,-58.25 677.13,-54.75 677.13,-61.75"/>
</a>
</g>
</g>
</g>
</svg>
