<?xml version="1.0" encoding="UTF-8" standalone="no"?>
<!DOCTYPE svg PUBLIC "-//W3C//DTD SVG 1.1//EN"
 "http://www.w3.org/Graphics/SVG/1.1/DTD/svg11.dtd">
<!-- Generated by graphviz version 13.1.0 (20250701.0955)
 -->
<!-- Title: Alarm::updateCondition Pages: 1 -->
<svg width="619pt" height="461pt"
 viewBox="0.00 0.00 619.00 461.00" xmlns="http://www.w3.org/2000/svg" xmlns:xlink="http://www.w3.org/1999/xlink">
<g id="graph0" class="graph" transform="scale(1 1) rotate(0) translate(4 457.19)">
<title>Alarm::updateCondition</title>
<!-- Node1 -->
<g id="Node000001" class="node">
<title>Node1</title>
<g id="a_Node000001"><a xlink:title="Update alarm condition based on current measurement.">
<polygon fill="#999999" stroke="#666666" points="118,-249.25 0,-249.25 0,-230 118,-230 118,-249.25"/>
<text xml:space="preserve" text-anchor="middle" x="59" y="-235.75" font-family="Helvetica,sans-Serif" font-size="10.00">Alarm::updateCondition</text>
</a>
</g>
</g>
<!-- Node2 -->
<g id="Node000002" class="node">
<title>Node2</title>
<g id="a_Node000002"><a xlink:href="class_alarm.html#a28229f40ec51928641f04cd1e505bd6c" target="_top" xlink:title="Check if alarm condition is currently met.">
<polygon fill="white" stroke="#666666" points="289.25,-418.25 169,-418.25 169,-399 289.25,-399 289.25,-418.25"/>
<text xml:space="preserve" text-anchor="middle" x="229.12" y="-404.75" font-family="Helvetica,sans-Serif" font-size="10.00">Alarm::_checkCondition</text>
</a>
</g>
</g>
<!-- Node1&#45;&gt;Node2 -->
<g id="edge1_Node000001_Node000002" class="edge">
<title>Node1&#45;&gt;Node2</title>
<g id="a_edge1_Node000001_Node000002"><a xlink:title=" ">
<path fill="none" stroke="#63b8ff" d="M63.19,-249.59C72.43,-276.83 101.95,-352.99 154,-390.62 155.55,-391.75 157.16,-392.8 158.82,-393.78"/>
<polygon fill="#63b8ff" stroke="#63b8ff" points="156.91,-396.74 167.42,-398.08 160.04,-390.48 156.91,-396.74"/>
</a>
</g>
</g>
<!-- Node3 -->
<g id="Node000003" class="node">
<title>Node3</title>
<g id="a_Node000003"><a xlink:href="class_alarm.html#a5f0ead4dbd06aa64bd316d99dc587302" target="_top" xlink:title="Get alarm stage as string.">
<polygon fill="white" stroke="#666666" points="457.12,-437.25 345.12,-437.25 345.12,-418 457.12,-418 457.12,-437.25"/>
<text xml:space="preserve" text-anchor="middle" x="401.12" y="-423.75" font-family="Helvetica,sans-Serif" font-size="10.00">Alarm::getStageString</text>
</a>
</g>
</g>
<!-- Node1&#45;&gt;Node3 -->
<g id="edge11_Node000001_Node000003" class="edge">
<title>Node1&#45;&gt;Node3</title>
<g id="a_edge11_Node000001_Node000003"><a xlink:title=" ">
<path fill="none" stroke="#63b8ff" d="M61.33,-249.37C66.32,-281.81 87.26,-386.38 154,-427.62 215.97,-465.92 304.56,-453.21 356.83,-440.44"/>
<polygon fill="#63b8ff" stroke="#63b8ff" points="357.44,-443.9 366.26,-438.03 355.7,-437.12 357.44,-443.9"/>
</a>
</g>
</g>
<!-- Node4 -->
<g id="Node000004" class="node">
<title>Node4</title>
<g id="a_Node000004"><a xlink:href="class_alarm.html#a052a73879f5cd039f6f7cb7ce02e6a9d" target="_top" xlink:title="Get priority as string (internal version)">
<polygon fill="white" stroke="#666666" points="290.38,-381.25 167.88,-381.25 167.88,-362 290.38,-362 290.38,-381.25"/>
<text xml:space="preserve" text-anchor="middle" x="229.12" y="-367.75" font-family="Helvetica,sans-Serif" font-size="10.00">Alarm::_getPriorityString</text>
</a>
</g>
</g>
<!-- Node1&#45;&gt;Node4 -->
<g id="edge3_Node000001_Node000004" class="edge">
<title>Node1&#45;&gt;Node4</title>
<g id="a_edge3_Node000001_Node000004"><a xlink:title=" ">
<path fill="none" stroke="#63b8ff" d="M65.97,-249.57C79.16,-270.73 112.94,-320.49 154,-347.62 159.85,-351.49 166.37,-354.78 173.05,-357.55"/>
<polygon fill="#63b8ff" stroke="#63b8ff" points="171.6,-360.75 182.19,-360.99 174.06,-354.19 171.6,-360.75"/>
</a>
</g>
</g>
<!-- Node5 -->
<g id="Node000005" class="node">
<title>Node5</title>
<g id="a_Node000005"><a xlink:href="class_alarm.html#a11b2da560dbc8653fa9dec671a78b980" target="_top" xlink:title="Update the alarm display message.">
<polygon fill="white" stroke="#666666" points="462,-305.25 340.25,-305.25 340.25,-286 462,-286 462,-305.25"/>
<text xml:space="preserve" text-anchor="middle" x="401.12" y="-291.75" font-family="Helvetica,sans-Serif" font-size="10.00">Alarm::_updateMessage</text>
</a>
</g>
</g>
<!-- Node1&#45;&gt;Node5 -->
<g id="edge4_Node000001_Node000005" class="edge">
<title>Node1&#45;&gt;Node5</title>
<g id="a_edge4_Node000001_Node000005"><a xlink:title=" ">
<path fill="none" stroke="#63b8ff" d="M68.29,-249.67C83.27,-266.92 116.76,-301.59 154,-314.62 222.67,-338.66 308.51,-322.46 358.54,-308.82"/>
<polygon fill="#63b8ff" stroke="#63b8ff" points="359.43,-312.21 368.1,-306.11 357.52,-305.47 359.43,-312.21"/>
</a>
</g>
</g>
<!-- Node7 -->
<g id="Node000007" class="node">
<title>Node7</title>
<g id="a_Node000007"><a xlink:href="class_alarm.html#adc66e3d22e173b00c59b040369030a17" target="_top" xlink:title="Clear the alarm condition.">
<polygon fill="white" stroke="#666666" points="263.38,-305.25 194.88,-305.25 194.88,-286 263.38,-286 263.38,-305.25"/>
<text xml:space="preserve" text-anchor="middle" x="229.12" y="-291.75" font-family="Helvetica,sans-Serif" font-size="10.00">Alarm::clear</text>
</a>
</g>
</g>
<!-- Node1&#45;&gt;Node7 -->
<g id="edge6_Node000001_Node000007" class="edge">
<title>Node1&#45;&gt;Node7</title>
<g id="a_edge6_Node000001_Node000007"><a xlink:title=" ">
<path fill="none" stroke="#63b8ff" d="M82.07,-249.62C100.91,-257.88 128.86,-269.54 154,-277.62 163.42,-280.66 173.66,-283.45 183.44,-285.89"/>
<polygon fill="#63b8ff" stroke="#63b8ff" points="182.61,-289.29 193.16,-288.23 184.25,-282.49 182.61,-289.29"/>
</a>
</g>
</g>
<!-- Node8 -->
<g id="Node000008" class="node">
<title>Node8</title>
<g id="a_Node000008"><a xlink:href="class_alarm.html#abd578ec75a5ac9bce00b7ce7207c5d8c" target="_top" xlink:title="Get alarm type as string.">
<polygon fill="white" stroke="#666666" points="454.88,-268.25 347.38,-268.25 347.38,-249 454.88,-249 454.88,-268.25"/>
<text xml:space="preserve" text-anchor="middle" x="401.12" y="-254.75" font-family="Helvetica,sans-Serif" font-size="10.00">Alarm::getTypeString</text>
</a>
</g>
</g>
<!-- Node1&#45;&gt;Node8 -->
<g id="edge12_Node000001_Node000008" class="edge">
<title>Node1&#45;&gt;Node8</title>
<g id="a_edge12_Node000001_Node000008"><a xlink:title=" ">
<path fill="none" stroke="#63b8ff" d="M118.39,-236.43C167.97,-234.48 240.95,-233.41 304.25,-239.62 318.37,-241.01 333.5,-243.52 347.47,-246.27"/>
<polygon fill="#63b8ff" stroke="#63b8ff" points="346.41,-249.62 356.9,-248.2 347.81,-242.77 346.41,-249.62"/>
</a>
</g>
</g>
<!-- Node9 -->
<g id="Node000009" class="node">
<title>Node9</title>
<g id="a_Node000009"><a xlink:href="class_logger_manager.html#a5c1373ccc47f4112b596fe6f84fbbc21" target="_top" xlink:title="Log informational message (static convenience method)">
<polygon fill="white" stroke="#666666" points="453.38,-231.25 348.88,-231.25 348.88,-212 453.38,-212 453.38,-231.25"/>
<text xml:space="preserve" text-anchor="middle" x="401.12" y="-217.75" font-family="Helvetica,sans-Serif" font-size="10.00">LoggerManager::info</text>
</a>
</g>
</g>
<!-- Node1&#45;&gt;Node9 -->
<g id="edge13_Node000001_Node000009" class="edge">
<title>Node1&#45;&gt;Node9</title>
<g id="a_edge13_Node000001_Node000009"><a xlink:title=" ">
<path fill="none" stroke="#63b8ff" d="M81.85,-229.58C100.55,-221.56 128.42,-210.98 154,-206.62 215.86,-196.08 287.57,-202.53 337.57,-209.97"/>
<polygon fill="#63b8ff" stroke="#63b8ff" points="336.93,-213.41 347.35,-211.49 338.01,-206.49 336.93,-213.41"/>
</a>
</g>
</g>
<!-- Node10 -->
<g id="Node000010" class="node">
<title>Node10</title>
<g id="a_Node000010"><a xlink:href="class_logger_manager.html#aef24f00186213fa78be3b104a50d58e6" target="_top" xlink:title="Log error message (static convenience method)">
<polygon fill="white" stroke="#666666" points="283.25,-154.25 175,-154.25 175,-135 283.25,-135 283.25,-154.25"/>
<text xml:space="preserve" text-anchor="middle" x="229.12" y="-140.75" font-family="Helvetica,sans-Serif" font-size="10.00">LoggerManager::error</text>
</a>
</g>
</g>
<!-- Node1&#45;&gt;Node10 -->
<g id="edge10_Node000001_Node000010" class="edge">
<title>Node1&#45;&gt;Node10</title>
<g id="a_edge10_Node000001_Node000010"><a xlink:title=" ">
<path fill="none" stroke="#63b8ff" d="M70.75,-229.57C87.4,-214.45 120.98,-185.81 154,-168.62 161.51,-164.72 169.77,-161.28 177.98,-158.33"/>
<polygon fill="#63b8ff" stroke="#63b8ff" points="178.88,-161.72 187.23,-155.2 176.64,-155.09 178.88,-161.72"/>
</a>
</g>
</g>
<!-- Node11 -->
<g id="Node000011" class="node">
<title>Node11</title>
<g id="a_Node000011"><a xlink:href="class_alarm.html#a6404e8478e8c2d726e9399ea1f2268b2" target="_top" xlink:title="Check if acknowledged delay has elapsed.">
<polygon fill="white" stroke="#666666" points="301.25,-116.88 157,-116.88 157,-86.38 301.25,-86.38 301.25,-116.88"/>
<text xml:space="preserve" text-anchor="start" x="165" y="-103.38" font-family="Helvetica,sans-Serif" font-size="10.00">Alarm::isAcknowledgedDelay</text>
<text xml:space="preserve" text-anchor="middle" x="229.12" y="-92.12" font-family="Helvetica,sans-Serif" font-size="10.00">Elapsed</text>
</a>
</g>
</g>
<!-- Node1&#45;&gt;Node11 -->
<g id="edge14_Node000001_Node000011" class="edge">
<title>Node1&#45;&gt;Node11</title>
<g id="a_edge14_Node000001_Node000011"><a xlink:title=" ">
<path fill="none" stroke="#63b8ff" d="M65.44,-229.79C78.07,-207.83 111.58,-154.47 154,-125.62 155.61,-124.53 157.28,-123.48 158.99,-122.47"/>
<polygon fill="#63b8ff" stroke="#63b8ff" points="160.56,-125.6 167.84,-117.9 157.35,-119.38 160.56,-125.6"/>
</a>
</g>
</g>
<!-- Node12 -->
<g id="Node000012" class="node">
<title>Node12</title>
<g id="a_Node000012"><a xlink:href="class_logger_manager.html#aa74d58708cf5cdf8ddafad648edadcf7" target="_top" xlink:title=" ">
<polygon fill="white" stroke="#666666" points="304.25,-67.88 154,-67.88 154,-37.38 304.25,-37.38 304.25,-67.88"/>
<text xml:space="preserve" text-anchor="start" x="162" y="-54.38" font-family="Helvetica,sans-Serif" font-size="10.00">LoggerManager::logAlarmState</text>
<text xml:space="preserve" text-anchor="middle" x="229.12" y="-43.12" font-family="Helvetica,sans-Serif" font-size="10.00">Change</text>
</a>
</g>
</g>
<!-- Node1&#45;&gt;Node12 -->
<g id="edge15_Node000001_Node000012" class="edge">
<title>Node1&#45;&gt;Node12</title>
<g id="a_edge15_Node000001_Node000012"><a xlink:title=" ">
<path fill="none" stroke="#63b8ff" d="M63.02,-229.6C72.02,-201.39 101.38,-120.63 154,-77.62 155.52,-76.38 157.1,-75.2 158.74,-74.08"/>
<polygon fill="#63b8ff" stroke="#63b8ff" points="160.46,-77.13 167.29,-69.03 156.9,-71.1 160.46,-77.13"/>
</a>
</g>
</g>
<!-- Node13 -->
<g id="Node000013" class="node">
<title>Node13</title>
<g id="a_Node000013"><a xlink:href="class_alarm.html#a73e7673d61f82aa21441c75f2cee2c6f" target="_top" xlink:title="Resolve the alarm completely.">
<polygon fill="white" stroke="#666666" points="268.62,-268.25 189.62,-268.25 189.62,-249 268.62,-249 268.62,-268.25"/>
<text xml:space="preserve" text-anchor="middle" x="229.12" y="-254.75" font-family="Helvetica,sans-Serif" font-size="10.00">Alarm::resolve</text>
</a>
</g>
</g>
<!-- Node1&#45;&gt;Node13 -->
<g id="edge16_Node000001_Node000013" class="edge">
<title>Node1&#45;&gt;Node13</title>
<g id="a_edge16_Node000001_Node000013"><a xlink:title=" ">
<path fill="none" stroke="#63b8ff" d="M118.33,-246.22C137.73,-248.41 159.15,-250.83 177.89,-252.95"/>
<polygon fill="#63b8ff" stroke="#63b8ff" points="177.33,-256.41 187.66,-254.05 178.11,-249.45 177.33,-256.41"/>
</a>
</g>
</g>
<!-- Node14 -->
<g id="Node000014" class="node">
<title>Node14</title>
<g id="a_Node000014"><a xlink:href="class_logger_manager.html#a0d52b0ff7bff22817e987ad753102854" target="_top" xlink:title="Log warning message (static convenience method)">
<polygon fill="white" stroke="#666666" points="290.38,-19.25 167.88,-19.25 167.88,0 290.38,0 290.38,-19.25"/>
<text xml:space="preserve" text-anchor="middle" x="229.12" y="-5.75" font-family="Helvetica,sans-Serif" font-size="10.00">LoggerManager::warning</text>
</a>
</g>
</g>
<!-- Node1&#45;&gt;Node14 -->
<g id="edge20_Node000001_Node000014" class="edge">
<title>Node1&#45;&gt;Node14</title>
<g id="a_edge20_Node000001_Node000014"><a xlink:title=" ">
<path fill="none" stroke="#63b8ff" d="M61.32,-229.87C66.4,-196.3 87.82,-84.51 154,-28.62 155.47,-27.39 157,-26.23 158.59,-25.14"/>
<polygon fill="#63b8ff" stroke="#63b8ff" points="159.94,-28.4 166.95,-20.45 156.52,-22.3 159.94,-28.4"/>
</a>
</g>
</g>
<!-- Node2&#45;&gt;Node3 -->
<g id="edge2_Node000002_Node000003" class="edge">
<title>Node2&#45;&gt;Node3</title>
<g id="a_edge2_Node000002_Node000003"><a xlink:title=" ">
<path fill="none" stroke="#63b8ff" d="M289.58,-415.27C303.71,-416.85 318.88,-418.54 333.31,-420.16"/>
<polygon fill="#63b8ff" stroke="#63b8ff" points="332.86,-423.63 343.19,-421.26 333.64,-416.67 332.86,-423.63"/>
</a>
</g>
</g>
<!-- Node6 -->
<g id="Node000006" class="node">
<title>Node6</title>
<g id="a_Node000006"><a xlink:href="class_alarm.html#a480e1d6d474da0cd4e5dd557e41cb87e" target="_top" xlink:title="Get formatted display text for UI.">
<polygon fill="white" stroke="#666666" points="610.75,-305.25 498,-305.25 498,-286 610.75,-286 610.75,-305.25"/>
<text xml:space="preserve" text-anchor="middle" x="554.38" y="-291.75" font-family="Helvetica,sans-Serif" font-size="10.00">Alarm::getDisplayText</text>
</a>
</g>
</g>
<!-- Node5&#45;&gt;Node6 -->
<g id="edge5_Node000005_Node000006" class="edge">
<title>Node5&#45;&gt;Node6</title>
<g id="a_edge5_Node000005_Node000006"><a xlink:title=" ">
<path fill="none" stroke="#63b8ff" d="M462.34,-295.62C470.29,-295.62 478.48,-295.62 486.53,-295.62"/>
<polygon fill="#63b8ff" stroke="#63b8ff" points="486.27,-299.13 496.27,-295.63 486.27,-292.13 486.27,-299.13"/>
</a>
</g>
</g>
<!-- Node7&#45;&gt;Node5 -->
<g id="edge7_Node000007_Node000005" class="edge">
<title>Node7&#45;&gt;Node5</title>
<g id="a_edge7_Node000007_Node000005"><a xlink:title=" ">
<path fill="none" stroke="#63b8ff" d="M263.71,-295.62C282.25,-295.62 306.02,-295.62 328.51,-295.62"/>
<polygon fill="#63b8ff" stroke="#63b8ff" points="328.26,-299.13 338.26,-295.63 328.26,-292.13 328.26,-299.13"/>
</a>
</g>
</g>
<!-- Node7&#45;&gt;Node8 -->
<g id="edge8_Node000007_Node000008" class="edge">
<title>Node7&#45;&gt;Node8</title>
<g id="a_edge8_Node000007_Node000008"><a xlink:title=" ">
<path fill="none" stroke="#63b8ff" d="M263.71,-288.31C286.23,-283.41 316.47,-276.83 342.75,-271.11"/>
<polygon fill="#63b8ff" stroke="#63b8ff" points="343.23,-274.59 352.26,-269.04 341.74,-267.75 343.23,-274.59"/>
</a>
</g>
</g>
<!-- Node7&#45;&gt;Node9 -->
<g id="edge9_Node000007_Node000009" class="edge">
<title>Node7&#45;&gt;Node9</title>
<g id="a_edge9_Node000007_Node000009"><a xlink:title=" ">
<path fill="none" stroke="#63b8ff" d="M263.77,-291.65C277.03,-289.04 291.99,-284.73 304.25,-277.62 324.38,-265.96 320.44,-251.83 340.25,-239.62 342.24,-238.4 344.31,-237.26 346.44,-236.19"/>
<polygon fill="#63b8ff" stroke="#63b8ff" points="347.59,-239.5 355.37,-232.3 344.8,-233.08 347.59,-239.5"/>
</a>
</g>
</g>
<!-- Node13&#45;&gt;Node5 -->
<g id="edge17_Node000013_Node000005" class="edge">
<title>Node13&#45;&gt;Node5</title>
<g id="a_edge17_Node000013_Node000005"><a xlink:title=" ">
<path fill="none" stroke="#63b8ff" d="M268.7,-267.02C290.62,-271.79 318.48,-277.85 342.9,-283.17"/>
<polygon fill="#63b8ff" stroke="#63b8ff" points="341.85,-286.52 352.36,-285.23 343.34,-279.68 341.85,-286.52"/>
</a>
</g>
</g>
<!-- Node13&#45;&gt;Node8 -->
<g id="edge18_Node000013_Node000008" class="edge">
<title>Node13&#45;&gt;Node8</title>
<g id="a_edge18_Node000013_Node000008"><a xlink:title=" ">
<path fill="none" stroke="#63b8ff" d="M268.7,-258.62C288.48,-258.62 313.09,-258.62 335.66,-258.62"/>
<polygon fill="#63b8ff" stroke="#63b8ff" points="335.37,-262.13 345.37,-258.63 335.37,-255.13 335.37,-262.13"/>
</a>
</g>
</g>
<!-- Node13&#45;&gt;Node9 -->
<g id="edge19_Node000013_Node000009" class="edge">
<title>Node13&#45;&gt;Node9</title>
<g id="a_edge19_Node000013_Node000009"><a xlink:title=" ">
<path fill="none" stroke="#63b8ff" d="M268.7,-250.23C290.62,-245.46 318.48,-239.4 342.9,-234.08"/>
<polygon fill="#63b8ff" stroke="#63b8ff" points="343.34,-237.57 352.36,-232.02 341.85,-230.73 343.34,-237.57"/>
</a>
</g>
</g>
</g>
</svg>
