<?xml version="1.0" encoding="UTF-8" standalone="no"?>
<!DOCTYPE svg PUBLIC "-//W3C//DTD SVG 1.1//EN"
 "http://www.w3.org/Graphics/SVG/1.1/DTD/svg11.dtd">
<!-- Generated by graphviz version 13.1.0 (20250701.0955)
 -->
<!-- Title: TimeManager::getFormattedTime Pages: 1 -->
<svg width="543pt" height="82pt"
 viewBox="0.00 0.00 543.00 82.00" xmlns="http://www.w3.org/2000/svg" xmlns:xlink="http://www.w3.org/1999/xlink">
<g id="graph0" class="graph" transform="scale(1 1) rotate(0) translate(4 78.25)">
<title>TimeManager::getFormattedTime</title>
<!-- Node1 -->
<g id="Node000001" class="node">
<title>Node1</title>
<g id="a_Node000001"><a xlink:title=" ">
<polygon fill="#999999" stroke="#666666" points="534.75,-55.25 374,-55.25 374,-36 534.75,-36 534.75,-55.25"/>
<text xml:space="preserve" text-anchor="middle" x="454.38" y="-41.75" font-family="Helvetica,sans-Serif" font-size="10.00">TimeManager::getFormattedTime</text>
</a>
</g>
</g>
<!-- Node2 -->
<g id="Node000002" class="node">
<title>Node2</title>
<g id="a_Node000002"><a xlink:href="class_time_manager.html#ad8222e9629445d97b543eb491b3fd4f6" target="_top" xlink:title=" ">
<polygon fill="white" stroke="#666666" points="330.12,-74.25 186.62,-74.25 186.62,-55 330.12,-55 330.12,-74.25"/>
<text xml:space="preserve" text-anchor="middle" x="258.38" y="-60.75" font-family="Helvetica,sans-Serif" font-size="10.00">TimeManager::getTimeJSON</text>
</a>
</g>
</g>
<!-- Node1&#45;&gt;Node2 -->
<g id="edge1_Node000001_Node000002" class="edge">
<title>Node1&#45;&gt;Node2</title>
<g id="a_edge1_Node000001_Node000002"><a xlink:title=" ">
<path fill="none" stroke="#63b8ff" d="M362.47,-54.53C351.71,-55.58 340.85,-56.65 330.42,-57.67"/>
<polygon fill="#63b8ff" stroke="#63b8ff" points="362.51,-58.04 372.12,-53.58 361.83,-51.07 362.51,-58.04"/>
</a>
</g>
</g>
<!-- Node3 -->
<g id="Node000003" class="node">
<title>Node3</title>
<g id="a_Node000003"><a xlink:href="class_time_manager.html#accdbd3c07d63d6ed1f96fddbc4bf2e00" target="_top" xlink:title=" ">
<polygon fill="white" stroke="#666666" points="338,-37.25 178.75,-37.25 178.75,-18 338,-18 338,-37.25"/>
<text xml:space="preserve" text-anchor="middle" x="258.38" y="-23.75" font-family="Helvetica,sans-Serif" font-size="10.00">TimeManager::setTimeFromNTP</text>
</a>
</g>
</g>
<!-- Node1&#45;&gt;Node3 -->
<g id="edge2_Node000001_Node000003" class="edge">
<title>Node1&#45;&gt;Node3</title>
<g id="a_edge2_Node000001_Node000003"><a xlink:title=" ">
<path fill="none" stroke="#63b8ff" d="M362.4,-37.18C354.41,-36.44 346.38,-35.7 338.5,-34.97"/>
<polygon fill="#63b8ff" stroke="#63b8ff" points="361.84,-40.65 372.12,-38.09 362.49,-33.68 361.84,-40.65"/>
</a>
</g>
</g>
<!-- Node4 -->
<g id="Node000004" class="node">
<title>Node4</title>
<g id="a_Node000004"><a xlink:href="class_time_manager.html#aa8a8cc016ebb9ceabc4fee347a49cbdb" target="_top" xlink:title=" ">
<polygon fill="white" stroke="#666666" points="142.75,-56.25 0,-56.25 0,-37 142.75,-37 142.75,-56.25"/>
<text xml:space="preserve" text-anchor="middle" x="71.38" y="-42.75" font-family="Helvetica,sans-Serif" font-size="10.00">TimeManager::syncWithNTP</text>
</a>
</g>
</g>
<!-- Node3&#45;&gt;Node4 -->
<g id="edge3_Node000003_Node000004" class="edge">
<title>Node3&#45;&gt;Node4</title>
<g id="a_edge3_Node000003_Node000004"><a xlink:title=" ">
<path fill="none" stroke="#63b8ff" d="M167.09,-36.9C159.07,-37.72 151.03,-38.55 143.21,-39.35"/>
<polygon fill="#63b8ff" stroke="#63b8ff" points="167.29,-40.4 176.88,-35.89 166.57,-33.43 167.29,-40.4"/>
</a>
</g>
</g>
<!-- Node5 -->
<g id="Node000005" class="node">
<title>Node5</title>
<g id="a_Node000005"><a xlink:href="class_time_manager.html#a97d902b19861efc099141eeb846671a3" target="_top" xlink:title=" ">
<polygon fill="white" stroke="#666666" points="126.62,-19.25 16.12,-19.25 16.12,0 126.62,0 126.62,-19.25"/>
<text xml:space="preserve" text-anchor="middle" x="71.38" y="-5.75" font-family="Helvetica,sans-Serif" font-size="10.00">TimeManager::update</text>
</a>
</g>
</g>
<!-- Node3&#45;&gt;Node5 -->
<g id="edge4_Node000003_Node000005" class="edge">
<title>Node3&#45;&gt;Node5</title>
<g id="a_edge4_Node000003_Node000005"><a xlink:title=" ">
<path fill="none" stroke="#63b8ff" d="M166.97,-18.83C153.34,-17.5 139.65,-16.17 127.08,-14.95"/>
<polygon fill="#63b8ff" stroke="#63b8ff" points="166.58,-22.31 176.88,-19.79 167.26,-15.34 166.58,-22.31"/>
</a>
</g>
</g>
</g>
</svg>
