<?xml version="1.0" encoding="UTF-8" standalone="no"?>
<!DOCTYPE svg PUBLIC "-//W3C//DTD SVG 1.1//EN"
 "http://www.w3.org/Graphics/SVG/1.1/DTD/svg11.dtd">
<!-- Generated by graphviz version 13.1.0 (20250701.0955)
 -->
<!-- Title: LoggerManager::_generateLogFileNameWithSequence Pages: 1 -->
<svg width="500pt" height="137pt"
 viewBox="0.00 0.00 500.00 137.00" xmlns="http://www.w3.org/2000/svg" xmlns:xlink="http://www.w3.org/1999/xlink">
<g id="graph0" class="graph" transform="scale(1 1) rotate(0) translate(4 132.88)">
<title>LoggerManager::_generateLogFileNameWithSequence</title>
<!-- Node1 -->
<g id="Node000001" class="node">
<title>Node1</title>
<g id="a_Node000001"><a xlink:title=" ">
<polygon fill="#999999" stroke="#666666" points="492,-85.88 354.5,-85.88 354.5,-55.38 492,-55.38 492,-85.88"/>
<text xml:space="preserve" text-anchor="start" x="362.5" y="-72.38" font-family="Helvetica,sans-Serif" font-size="10.00">LoggerManager::_generate</text>
<text xml:space="preserve" text-anchor="middle" x="423.25" y="-61.12" font-family="Helvetica,sans-Serif" font-size="10.00">LogFileNameWithSequence</text>
</a>
</g>
</g>
<!-- Node2 -->
<g id="Node000002" class="node">
<title>Node2</title>
<g id="a_Node000002"><a xlink:href="$class_logger_manager.html#ae7ff7b324efe85cc2ba892af36cf7e86" xlink:title=" ">
<polygon fill="white" stroke="#666666" points="316.25,-128.88 184.75,-128.88 184.75,-98.38 316.25,-98.38 316.25,-128.88"/>
<text xml:space="preserve" text-anchor="start" x="192.75" y="-115.38" font-family="Helvetica,sans-Serif" font-size="10.00">LoggerManager::_generate</text>
<text xml:space="preserve" text-anchor="middle" x="250.5" y="-104.12" font-family="Helvetica,sans-Serif" font-size="10.00">LogFileName</text>
</a>
</g>
</g>
<!-- Node1&#45;&gt;Node2 -->
<g id="edge1_Node000001_Node000002" class="edge">
<title>Node1&#45;&gt;Node2</title>
<g id="a_edge1_Node000001_Node000002"><a xlink:title=" ">
<path fill="none" stroke="#63b8ff" d="M349.02,-89.07C337.31,-92.01 325.29,-95.04 313.87,-97.92"/>
<polygon fill="#63b8ff" stroke="#63b8ff" points="349.81,-92.48 358.65,-86.64 348.1,-85.69 349.81,-92.48"/>
</a>
</g>
</g>
<!-- Node3 -->
<g id="Node000003" class="node">
<title>Node3</title>
<g id="a_Node000003"><a xlink:href="$class_logger_manager.html#a4acf0149820d73f4ed11340f63706841" xlink:title="Begin logging operations.">
<polygon fill="white" stroke="#666666" points="306.5,-80.25 194.5,-80.25 194.5,-61 306.5,-61 306.5,-80.25"/>
<text xml:space="preserve" text-anchor="middle" x="250.5" y="-66.75" font-family="Helvetica,sans-Serif" font-size="10.00">LoggerManager::begin</text>
</a>
</g>
</g>
<!-- Node1&#45;&gt;Node3 -->
<g id="edge2_Node000001_Node000003" class="edge">
<title>Node1&#45;&gt;Node3</title>
<g id="a_edge2_Node000001_Node000003"><a xlink:title=" ">
<path fill="none" stroke="#63b8ff" d="M343.12,-70.62C330.88,-70.62 318.48,-70.62 306.91,-70.62"/>
<polygon fill="#63b8ff" stroke="#63b8ff" points="342.76,-74.13 352.76,-70.63 342.76,-67.13 342.76,-74.13"/>
</a>
</g>
</g>
<!-- Node4 -->
<g id="Node000004" class="node">
<title>Node4</title>
<g id="a_Node000004"><a xlink:href="$class_logger_manager.html#a445856fb9bb37bd5e61d5242d8996c1f" xlink:title=" ">
<polygon fill="white" stroke="#666666" points="318.5,-42.88 182.5,-42.88 182.5,-12.37 318.5,-12.37 318.5,-42.88"/>
<text xml:space="preserve" text-anchor="start" x="190.5" y="-29.38" font-family="Helvetica,sans-Serif" font-size="10.00">LoggerManager::createNew</text>
<text xml:space="preserve" text-anchor="middle" x="250.5" y="-18.12" font-family="Helvetica,sans-Serif" font-size="10.00">LogFile</text>
</a>
</g>
</g>
<!-- Node1&#45;&gt;Node4 -->
<g id="edge3_Node000001_Node000004" class="edge">
<title>Node1&#45;&gt;Node4</title>
<g id="a_edge3_Node000001_Node000004"><a xlink:title=" ">
<path fill="none" stroke="#63b8ff" d="M349.02,-52.18C337.31,-49.24 325.29,-46.21 313.87,-43.33"/>
<polygon fill="#63b8ff" stroke="#63b8ff" points="348.1,-55.56 358.65,-54.61 349.81,-48.77 348.1,-55.56"/>
</a>
</g>
</g>
<!-- Node5 -->
<g id="Node000005" class="node">
<title>Node5</title>
<g id="a_Node000005"><a xlink:href="$class_logger_manager.html#a32e39dd8df48f64677732ede4066f01d" xlink:title=" ">
<polygon fill="white" stroke="#666666" points="146.5,-56.25 0,-56.25 0,-37 146.5,-37 146.5,-56.25"/>
<text xml:space="preserve" text-anchor="middle" x="73.25" y="-42.75" font-family="Helvetica,sans-Serif" font-size="10.00">LoggerManager::forceNewFile</text>
</a>
</g>
</g>
<!-- Node4&#45;&gt;Node5 -->
<g id="edge4_Node000004_Node000005" class="edge">
<title>Node4&#45;&gt;Node5</title>
<g id="a_edge4_Node000004_Node000005"><a xlink:title=" ">
<path fill="none" stroke="#63b8ff" d="M170.99,-36.14C162.96,-37.01 154.82,-37.89 146.86,-38.75"/>
<polygon fill="#63b8ff" stroke="#63b8ff" points="171.18,-39.64 180.74,-35.08 170.42,-32.68 171.18,-39.64"/>
</a>
</g>
</g>
<!-- Node6 -->
<g id="Node000006" class="node">
<title>Node6</title>
<g id="a_Node000006"><a xlink:href="$class_logger_manager.html#a830c86f1f27d3799eab1de908fc6b647" xlink:title=" ">
<polygon fill="white" stroke="#666666" points="132.25,-19.25 14.25,-19.25 14.25,0 132.25,0 132.25,-19.25"/>
<text xml:space="preserve" text-anchor="middle" x="73.25" y="-5.75" font-family="Helvetica,sans-Serif" font-size="10.00">LoggerManager::update</text>
</a>
</g>
</g>
<!-- Node4&#45;&gt;Node6 -->
<g id="edge5_Node000004_Node000006" class="edge">
<title>Node4&#45;&gt;Node6</title>
<g id="a_edge5_Node000004_Node000006"><a xlink:title=" ">
<path fill="none" stroke="#63b8ff" d="M170.97,-19.56C158.02,-18.23 144.8,-16.87 132.47,-15.6"/>
<polygon fill="#63b8ff" stroke="#63b8ff" points="170.43,-23.02 180.74,-20.56 171.15,-16.06 170.43,-23.02"/>
</a>
</g>
</g>
</g>
</svg>
