<?xml version="1.0" encoding="UTF-8" standalone="no"?>
<!DOCTYPE svg PUBLIC "-//W3C//DTD SVG 1.1//EN"
 "http://www.w3.org/Graphics/SVG/1.1/DTD/svg11.dtd">
<!-- Generated by graphviz version 13.1.0 (20250701.0955)
 -->
<!-- Title: Alarm::operator== Pages: 1 -->
<svg width="518pt" height="101pt"
 viewBox="0.00 0.00 518.00 101.00" xmlns="http://www.w3.org/2000/svg" xmlns:xlink="http://www.w3.org/1999/xlink">
<g id="graph0" class="graph" transform="scale(1 1) rotate(0) translate(4 97.25)">
<title>Alarm::operator==</title>
<!-- Node1 -->
<g id="Node000001" class="node">
<title>Node1</title>
<g id="a_Node000001"><a xlink:title="Equality comparison operator.">
<polygon fill="#999999" stroke="#666666" points="94.75,-56.25 0,-56.25 0,-37 94.75,-37 94.75,-56.25"/>
<text xml:space="preserve" text-anchor="middle" x="47.38" y="-42.75" font-family="Helvetica,sans-Serif" font-size="10.00">Alarm::operator==</text>
</a>
</g>
</g>
<!-- Node2 -->
<g id="Node000002" class="node">
<title>Node2</title>
<g id="a_Node000002"><a xlink:href="class_alarm.html#abf159b68e429d66de4ab2d10c2ccd44b" target="_top" xlink:title="Constructor for creating a new alarm.">
<polygon fill="white" stroke="#666666" points="203.75,-56.25 130.75,-56.25 130.75,-37 203.75,-37 203.75,-56.25"/>
<text xml:space="preserve" text-anchor="middle" x="167.25" y="-42.75" font-family="Helvetica,sans-Serif" font-size="10.00">Alarm::Alarm</text>
</a>
</g>
</g>
<!-- Node1&#45;&gt;Node2 -->
<g id="edge1_Node000001_Node000002" class="edge">
<title>Node1&#45;&gt;Node2</title>
<g id="a_edge1_Node000001_Node000002"><a xlink:title=" ">
<path fill="none" stroke="#63b8ff" d="M94.96,-46.62C102.92,-46.62 111.19,-46.62 119.16,-46.62"/>
<polygon fill="#63b8ff" stroke="#63b8ff" points="119.03,-50.13 129.03,-46.63 119.03,-43.13 119.03,-50.13"/>
</a>
</g>
</g>
<!-- Node3 -->
<g id="Node000003" class="node">
<title>Node3</title>
<g id="a_Node000003"><a xlink:href="class_alarm.html#a11b2da560dbc8653fa9dec671a78b980" target="_top" xlink:title="Update the alarm display message.">
<polygon fill="white" stroke="#666666" points="361.5,-93.25 239.75,-93.25 239.75,-74 361.5,-74 361.5,-93.25"/>
<text xml:space="preserve" text-anchor="middle" x="300.62" y="-79.75" font-family="Helvetica,sans-Serif" font-size="10.00">Alarm::_updateMessage</text>
</a>
</g>
</g>
<!-- Node2&#45;&gt;Node3 -->
<g id="edge2_Node000002_Node000003" class="edge">
<title>Node2&#45;&gt;Node3</title>
<g id="a_edge2_Node000002_Node000003"><a xlink:title=" ">
<path fill="none" stroke="#63b8ff" d="M204.15,-56.74C219.21,-60.98 236.92,-65.97 252.97,-70.49"/>
<polygon fill="#63b8ff" stroke="#63b8ff" points="251.74,-73.77 262.31,-73.12 253.64,-67.04 251.74,-73.77"/>
</a>
</g>
</g>
<!-- Node5 -->
<g id="Node000005" class="node">
<title>Node5</title>
<g id="a_Node000005"><a xlink:href="class_alarm.html#abd578ec75a5ac9bce00b7ce7207c5d8c" target="_top" xlink:title="Get alarm type as string.">
<polygon fill="white" stroke="#666666" points="354.38,-56.25 246.88,-56.25 246.88,-37 354.38,-37 354.38,-56.25"/>
<text xml:space="preserve" text-anchor="middle" x="300.62" y="-42.75" font-family="Helvetica,sans-Serif" font-size="10.00">Alarm::getTypeString</text>
</a>
</g>
</g>
<!-- Node2&#45;&gt;Node5 -->
<g id="edge4_Node000002_Node000005" class="edge">
<title>Node2&#45;&gt;Node5</title>
<g id="a_edge4_Node000002_Node000005"><a xlink:title=" ">
<path fill="none" stroke="#63b8ff" d="M204.15,-46.62C213.75,-46.62 224.42,-46.62 235.05,-46.62"/>
<polygon fill="#63b8ff" stroke="#63b8ff" points="235.01,-50.13 245.01,-46.63 235.01,-43.13 235.01,-50.13"/>
</a>
</g>
</g>
<!-- Node6 -->
<g id="Node000006" class="node">
<title>Node6</title>
<g id="a_Node000006"><a xlink:href="class_logger_manager.html#a5c1373ccc47f4112b596fe6f84fbbc21" target="_top" xlink:title="Log informational message (static convenience method)">
<polygon fill="white" stroke="#666666" points="352.88,-19.25 248.38,-19.25 248.38,0 352.88,0 352.88,-19.25"/>
<text xml:space="preserve" text-anchor="middle" x="300.62" y="-5.75" font-family="Helvetica,sans-Serif" font-size="10.00">LoggerManager::info</text>
</a>
</g>
</g>
<!-- Node2&#45;&gt;Node6 -->
<g id="edge5_Node000002_Node000006" class="edge">
<title>Node2&#45;&gt;Node6</title>
<g id="a_edge5_Node000002_Node000006"><a xlink:title=" ">
<path fill="none" stroke="#63b8ff" d="M204.15,-36.51C219.21,-32.27 236.92,-27.28 252.97,-22.76"/>
<polygon fill="#63b8ff" stroke="#63b8ff" points="253.64,-26.21 262.31,-20.13 251.74,-19.48 253.64,-26.21"/>
</a>
</g>
</g>
<!-- Node4 -->
<g id="Node000004" class="node">
<title>Node4</title>
<g id="a_Node000004"><a xlink:href="class_alarm.html#a480e1d6d474da0cd4e5dd557e41cb87e" target="_top" xlink:title="Get formatted display text for UI.">
<polygon fill="white" stroke="#666666" points="510.25,-93.25 397.5,-93.25 397.5,-74 510.25,-74 510.25,-93.25"/>
<text xml:space="preserve" text-anchor="middle" x="453.88" y="-79.75" font-family="Helvetica,sans-Serif" font-size="10.00">Alarm::getDisplayText</text>
</a>
</g>
</g>
<!-- Node3&#45;&gt;Node4 -->
<g id="edge3_Node000003_Node000004" class="edge">
<title>Node3&#45;&gt;Node4</title>
<g id="a_edge3_Node000003_Node000004"><a xlink:title=" ">
<path fill="none" stroke="#63b8ff" d="M361.84,-83.62C369.79,-83.62 377.98,-83.62 386.03,-83.62"/>
<polygon fill="#63b8ff" stroke="#63b8ff" points="385.77,-87.13 395.77,-83.63 385.77,-80.13 385.77,-87.13"/>
</a>
</g>
</g>
</g>
</svg>
