<?xml version="1.0" encoding="UTF-8" standalone="no"?>
<!DOCTYPE svg PUBLIC "-//W3C//DTD SVG 1.1//EN"
 "http://www.w3.org/Graphics/SVG/1.1/DTD/svg11.dtd">
<!-- Generated by graphviz version 13.1.0 (20250701.0955)
 -->
<!-- Title: TimeManager::getDateString Pages: 1 -->
<svg width="342pt" height="64pt"
 viewBox="0.00 0.00 342.00 64.00" xmlns="http://www.w3.org/2000/svg" xmlns:xlink="http://www.w3.org/1999/xlink">
<g id="graph0" class="graph" transform="scale(1 1) rotate(0) translate(4 60.25)">
<title>TimeManager::getDateString</title>
<!-- Node1 -->
<g id="Node000001" class="node">
<title>Node1</title>
<g id="a_Node000001"><a xlink:title="Get date as string (YYYY&#45;MM&#45;DD)">
<polygon fill="#999999" stroke="#666666" points="141.25,-37.25 0,-37.25 0,-18 141.25,-18 141.25,-37.25"/>
<text xml:space="preserve" text-anchor="middle" x="70.62" y="-23.75" font-family="Helvetica,sans-Serif" font-size="10.00">TimeManager::getDateString</text>
</a>
</g>
</g>
<!-- Node2 -->
<g id="Node000002" class="node">
<title>Node2</title>
<g id="a_Node000002"><a xlink:href="class_time_manager.html#abcaf17b6da72a3a2f2566d940ce5ce8d" target="_top" xlink:title="Format DateTime according to format string.">
<polygon fill="white" stroke="#666666" points="334.25,-56.25 177.25,-56.25 177.25,-37 334.25,-37 334.25,-56.25"/>
<text xml:space="preserve" text-anchor="middle" x="255.75" y="-42.75" font-family="Helvetica,sans-Serif" font-size="10.00">TimeManager::_formatDateTime</text>
</a>
</g>
</g>
<!-- Node1&#45;&gt;Node2 -->
<g id="edge1_Node000001_Node000002" class="edge">
<title>Node1&#45;&gt;Node2</title>
<g id="a_edge1_Node000001_Node000002"><a xlink:title=" ">
<path fill="none" stroke="#63b8ff" d="M141.64,-34.89C149.46,-35.7 157.51,-36.54 165.53,-37.37"/>
<polygon fill="#63b8ff" stroke="#63b8ff" points="165.02,-40.83 175.33,-38.38 165.74,-33.87 165.02,-40.83"/>
</a>
</g>
</g>
<!-- Node3 -->
<g id="Node000003" class="node">
<title>Node3</title>
<g id="a_Node000003"><a xlink:href="class_time_manager.html#a2667b0243b7db24b3055c2b00e2837ba" target="_top" xlink:title="Get current time from RTC.">
<polygon fill="white" stroke="#666666" points="330.12,-19.25 181.38,-19.25 181.38,0 330.12,0 330.12,-19.25"/>
<text xml:space="preserve" text-anchor="middle" x="255.75" y="-5.75" font-family="Helvetica,sans-Serif" font-size="10.00">TimeManager::getCurrentTime</text>
</a>
</g>
</g>
<!-- Node1&#45;&gt;Node3 -->
<g id="edge2_Node000001_Node000003" class="edge">
<title>Node1&#45;&gt;Node3</title>
<g id="a_edge2_Node000001_Node000003"><a xlink:title=" ">
<path fill="none" stroke="#63b8ff" d="M141.64,-20.74C150.83,-19.84 160.32,-18.91 169.73,-17.98"/>
<polygon fill="#63b8ff" stroke="#63b8ff" points="170.01,-21.47 179.62,-17.01 169.32,-14.51 170.01,-21.47"/>
</a>
</g>
</g>
</g>
</svg>
