<?xml version="1.0" encoding="UTF-8" standalone="no"?>
<!DOCTYPE svg PUBLIC "-//W3C//DTD SVG 1.1//EN"
 "http://www.w3.org/Graphics/SVG/1.1/DTD/svg11.dtd">
<!-- Generated by graphviz version 13.1.0 (20250701.0955)
 -->
<!-- Title: TempModbusServer::begin Pages: 1 -->
<svg width="484pt" height="196pt"
 viewBox="0.00 0.00 484.00 196.00" xmlns="http://www.w3.org/2000/svg" xmlns:xlink="http://www.w3.org/1999/xlink">
<g id="graph0" class="graph" transform="scale(1 1) rotate(0) translate(4 192.09)">
<title>TempModbusServer::begin</title>
<!-- Node1 -->
<g id="Node000001" class="node">
<title>Node1</title>
<g id="a_Node000001"><a xlink:title="Initialize and start Modbus server.">
<polygon fill="#999999" stroke="#666666" points="132.25,-111.25 0,-111.25 0,-92 132.25,-92 132.25,-111.25"/>
<text xml:space="preserve" text-anchor="middle" x="66.12" y="-97.75" font-family="Helvetica,sans-Serif" font-size="10.00">TempModbusServer::begin</text>
</a>
</g>
</g>
<!-- Node2 -->
<g id="Node000002" class="node">
<title>Node2</title>
<g id="a_Node000002"><a xlink:href="$class_logger_manager.html#a5c1373ccc47f4112b596fe6f84fbbc21" xlink:title="Log informational message (static convenience method)">
<polygon fill="white" stroke="#666666" points="474.38,-154.25 369.88,-154.25 369.88,-135 474.38,-135 474.38,-154.25"/>
<text xml:space="preserve" text-anchor="middle" x="422.12" y="-140.75" font-family="Helvetica,sans-Serif" font-size="10.00">LoggerManager::info</text>
</a>
</g>
</g>
<!-- Node1&#45;&gt;Node2 -->
<g id="edge1_Node000001_Node000002" class="edge">
<title>Node1&#45;&gt;Node2</title>
<g id="a_edge1_Node000001_Node000002"><a xlink:title=" ">
<path fill="none" stroke="#63b8ff" d="M76.54,-111.69C93.14,-128.6 129.52,-162.1 168.25,-174.62 237.5,-197.01 260.18,-186.39 332,-174.62 350.85,-171.54 371.09,-165.01 387.5,-158.82"/>
<polygon fill="#63b8ff" stroke="#63b8ff" points="388.75,-162.1 396.79,-155.2 386.2,-155.58 388.75,-162.1"/>
</a>
</g>
</g>
<!-- Node3 -->
<g id="Node000003" class="node">
<title>Node3</title>
<g id="a_Node000003"><a xlink:href="$class_temp_modbus_server.html#a7d4a0ced2cfd174a4697a85492e12a58" xlink:title="Worker function for Read Holding Registers (FC03)">
<polygon fill="white" stroke="#666666" points="330.5,-165.88 169.75,-165.88 169.75,-135.38 330.5,-135.38 330.5,-165.88"/>
<text xml:space="preserve" text-anchor="start" x="177.75" y="-152.38" font-family="Helvetica,sans-Serif" font-size="10.00">TempModbusServer::readHolding</text>
<text xml:space="preserve" text-anchor="middle" x="250.12" y="-141.12" font-family="Helvetica,sans-Serif" font-size="10.00">RegistersWorker</text>
</a>
</g>
</g>
<!-- Node1&#45;&gt;Node3 -->
<g id="edge2_Node000001_Node000003" class="edge">
<title>Node1&#45;&gt;Node3</title>
<g id="a_edge2_Node000001_Node000003"><a xlink:title=" ">
<path fill="none" stroke="#63b8ff" d="M104.39,-111.66C126.14,-117.51 154.27,-125.09 179.94,-132"/>
<polygon fill="#63b8ff" stroke="#63b8ff" points="178.73,-135.3 189.3,-134.52 180.55,-128.54 178.73,-135.3"/>
</a>
</g>
</g>
<!-- Node5 -->
<g id="Node000005" class="node">
<title>Node5</title>
<g id="a_Node000005"><a xlink:href="$class_logger_manager.html#a0d52b0ff7bff22817e987ad753102854" xlink:title="Log warning message (static convenience method)">
<polygon fill="white" stroke="#666666" points="311.38,-19.25 188.88,-19.25 188.88,0 311.38,0 311.38,-19.25"/>
<text xml:space="preserve" text-anchor="middle" x="250.12" y="-5.75" font-family="Helvetica,sans-Serif" font-size="10.00">LoggerManager::warning</text>
</a>
</g>
</g>
<!-- Node1&#45;&gt;Node5 -->
<g id="edge5_Node000001_Node000005" class="edge">
<title>Node1&#45;&gt;Node5</title>
<g id="a_edge5_Node000001_Node000005"><a xlink:title=" ">
<path fill="none" stroke="#63b8ff" d="M77.74,-91.73C95.22,-75.97 131.81,-45.25 168.25,-28.62 172.8,-26.55 177.6,-24.69 182.51,-23.02"/>
<polygon fill="#63b8ff" stroke="#63b8ff" points="183.38,-26.41 191.89,-20.11 181.31,-19.73 183.38,-26.41"/>
</a>
</g>
</g>
<!-- Node6 -->
<g id="Node000006" class="node">
<title>Node6</title>
<g id="a_Node000006"><a xlink:href="$class_temp_modbus_server.html#a88b7288d622b52f9e28b7c6075b75fe0" xlink:title="Worker function for Write Single Register (FC06)">
<polygon fill="white" stroke="#666666" points="331.62,-116.88 168.62,-116.88 168.62,-86.38 331.62,-86.38 331.62,-116.88"/>
<text xml:space="preserve" text-anchor="start" x="176.62" y="-103.38" font-family="Helvetica,sans-Serif" font-size="10.00">TempModbusServer::writeHolding</text>
<text xml:space="preserve" text-anchor="middle" x="250.12" y="-92.12" font-family="Helvetica,sans-Serif" font-size="10.00">RegisterWorker</text>
</a>
</g>
</g>
<!-- Node1&#45;&gt;Node6 -->
<g id="edge6_Node000001_Node000006" class="edge">
<title>Node1&#45;&gt;Node6</title>
<g id="a_edge6_Node000001_Node000006"><a xlink:title=" ">
<path fill="none" stroke="#63b8ff" d="M132.57,-101.62C140.56,-101.62 148.83,-101.62 157.12,-101.62"/>
<polygon fill="#63b8ff" stroke="#63b8ff" points="156.88,-105.13 166.88,-101.63 156.88,-98.13 156.88,-105.13"/>
</a>
</g>
</g>
<!-- Node7 -->
<g id="Node000007" class="node">
<title>Node7</title>
<g id="a_Node000007"><a xlink:href="$class_temp_modbus_server.html#a52236f3c77c42d126dcaee7515fa37d3" xlink:title="Worker function for Write Multiple Registers (FC16)">
<polygon fill="white" stroke="#666666" points="332,-67.88 168.25,-67.88 168.25,-37.38 332,-37.38 332,-67.88"/>
<text xml:space="preserve" text-anchor="start" x="176.25" y="-54.38" font-family="Helvetica,sans-Serif" font-size="10.00">TempModbusServer::writeMultiple</text>
<text xml:space="preserve" text-anchor="middle" x="250.12" y="-43.12" font-family="Helvetica,sans-Serif" font-size="10.00">RegistersWorker</text>
</a>
</g>
</g>
<!-- Node1&#45;&gt;Node7 -->
<g id="edge9_Node000001_Node000007" class="edge">
<title>Node1&#45;&gt;Node7</title>
<g id="a_edge9_Node000001_Node000007"><a xlink:title=" ">
<path fill="none" stroke="#63b8ff" d="M104.39,-91.59C126.14,-85.74 154.27,-78.16 179.94,-71.25"/>
<polygon fill="#63b8ff" stroke="#63b8ff" points="180.55,-74.71 189.3,-68.73 178.73,-67.95 180.55,-74.71"/>
</a>
</g>
</g>
<!-- Node3&#45;&gt;Node2 -->
<g id="edge4_Node000003_Node000002" class="edge">
<title>Node3&#45;&gt;Node2</title>
<g id="a_edge4_Node000003_Node000002"><a xlink:title=" ">
<path fill="none" stroke="#63b8ff" d="M330.65,-147.82C340.01,-147.49 349.45,-147.15 358.53,-146.83"/>
<polygon fill="#63b8ff" stroke="#63b8ff" points="358.42,-150.34 368.29,-146.49 358.17,-143.34 358.42,-150.34"/>
</a>
</g>
</g>
<!-- Node4 -->
<g id="Node000004" class="node">
<title>Node4</title>
<g id="a_Node000004"><a xlink:href="$class_logger_manager.html#aef24f00186213fa78be3b104a50d58e6" xlink:title="Log error message (static convenience method)">
<polygon fill="white" stroke="#666666" points="476.25,-111.25 368,-111.25 368,-92 476.25,-92 476.25,-111.25"/>
<text xml:space="preserve" text-anchor="middle" x="422.12" y="-97.75" font-family="Helvetica,sans-Serif" font-size="10.00">LoggerManager::error</text>
</a>
</g>
</g>
<!-- Node3&#45;&gt;Node4 -->
<g id="edge3_Node000003_Node000004" class="edge">
<title>Node3&#45;&gt;Node4</title>
<g id="a_edge3_Node000003_Node000004"><a xlink:title=" ">
<path fill="none" stroke="#63b8ff" d="M305.38,-134.99C327.89,-128.5 353.72,-121.05 375.26,-114.84"/>
<polygon fill="#63b8ff" stroke="#63b8ff" points="376,-118.27 384.64,-112.14 374.06,-111.55 376,-118.27"/>
</a>
</g>
</g>
<!-- Node6&#45;&gt;Node2 -->
<g id="edge8_Node000006_Node000002" class="edge">
<title>Node6&#45;&gt;Node2</title>
<g id="a_edge8_Node000006_Node000002"><a xlink:title=" ">
<path fill="none" stroke="#63b8ff" d="M312.98,-117.27C331.76,-122.02 352.17,-127.18 370.15,-131.73"/>
<polygon fill="#63b8ff" stroke="#63b8ff" points="369.26,-135.12 379.81,-134.18 370.98,-128.33 369.26,-135.12"/>
</a>
</g>
</g>
<!-- Node6&#45;&gt;Node4 -->
<g id="edge7_Node000006_Node000004" class="edge">
<title>Node6&#45;&gt;Node4</title>
<g id="a_edge7_Node000006_Node000004"><a xlink:title=" ">
<path fill="none" stroke="#63b8ff" d="M331.64,-101.62C339.83,-101.62 348.08,-101.62 356.07,-101.62"/>
<polygon fill="#63b8ff" stroke="#63b8ff" points="356.05,-105.13 366.05,-101.63 356.05,-98.13 356.05,-105.13"/>
</a>
</g>
</g>
<!-- Node7&#45;&gt;Node2 -->
<g id="edge11_Node000007_Node000002" class="edge">
<title>Node7&#45;&gt;Node2</title>
<g id="a_edge11_Node000007_Node000002"><a xlink:title=" ">
<path fill="none" stroke="#63b8ff" d="M314.58,-68.3C320.69,-70.96 326.62,-74.04 332,-77.62 352.76,-91.43 348.14,-105.56 368,-120.62 372.36,-123.93 377.24,-126.91 382.24,-129.55"/>
<polygon fill="#63b8ff" stroke="#63b8ff" points="380.62,-132.66 391.15,-133.85 383.66,-126.35 380.62,-132.66"/>
</a>
</g>
</g>
<!-- Node7&#45;&gt;Node4 -->
<g id="edge10_Node000007_Node000004" class="edge">
<title>Node7&#45;&gt;Node4</title>
<g id="a_edge10_Node000007_Node000004"><a xlink:title=" ">
<path fill="none" stroke="#63b8ff" d="M305.38,-68.26C327.89,-74.75 353.72,-82.2 375.26,-88.41"/>
<polygon fill="#63b8ff" stroke="#63b8ff" points="374.06,-91.7 384.64,-91.11 376,-84.98 374.06,-91.7"/>
</a>
</g>
</g>
</g>
</svg>
