<?xml version="1.0" encoding="UTF-8" standalone="no"?>
<!DOCTYPE svg PUBLIC "-//W3C//DTD SVG 1.1//EN"
 "http://www.w3.org/Graphics/SVG/1.1/DTD/svg11.dtd">
<!-- Generated by graphviz version 13.1.0 (20250701.0955)
 -->
<!-- Title: IndicatorInterface::writePort Pages: 1 -->
<svg width="361pt" height="137pt"
 viewBox="0.00 0.00 361.00 137.00" xmlns="http://www.w3.org/2000/svg" xmlns:xlink="http://www.w3.org/1999/xlink">
<g id="graph0" class="graph" transform="scale(1 1) rotate(0) translate(4 132.5)">
<title>IndicatorInterface::writePort</title>
<!-- Node1 -->
<g id="Node000001" class="node">
<title>Node1</title>
<g id="a_Node000001"><a xlink:title=" ">
<polygon fill="#999999" stroke="#666666" points="91.75,-79.5 0,-79.5 0,-49 91.75,-49 91.75,-79.5"/>
<text xml:space="preserve" text-anchor="start" x="8" y="-66" font-family="Helvetica,sans-Serif" font-size="10.00">IndicatorInterface</text>
<text xml:space="preserve" text-anchor="middle" x="45.88" y="-54.75" font-family="Helvetica,sans-Serif" font-size="10.00">::writePort</text>
</a>
</g>
</g>
<!-- Node2 -->
<g id="Node000002" class="node">
<title>Node2</title>
<g id="a_Node000002"><a xlink:href="class_indicator_interface.html#a79a3f596138d02404e732cc354b6e78b" target="_top" xlink:title=" ">
<polygon fill="white" stroke="#666666" points="225.5,-128.5 127.75,-128.5 127.75,-98 225.5,-98 225.5,-128.5"/>
<text xml:space="preserve" text-anchor="start" x="135.75" y="-115" font-family="Helvetica,sans-Serif" font-size="10.00">IndicatorInterface</text>
<text xml:space="preserve" text-anchor="middle" x="176.62" y="-103.75" font-family="Helvetica,sans-Serif" font-size="10.00">::_applyModeLogic</text>
</a>
</g>
</g>
<!-- Node1&#45;&gt;Node2 -->
<g id="edge1_Node000001_Node000002" class="edge">
<title>Node1&#45;&gt;Node2</title>
<g id="a_edge1_Node000001_Node000002"><a xlink:title=" ">
<path fill="none" stroke="#63b8ff" d="M87.97,-79.89C99.35,-84.22 111.85,-88.98 123.76,-93.51"/>
<polygon fill="#63b8ff" stroke="#63b8ff" points="122.48,-96.77 133.07,-97.05 124.97,-90.23 122.48,-96.77"/>
</a>
</g>
</g>
<!-- Node4 -->
<g id="Node000004" class="node">
<title>Node4</title>
<g id="a_Node000004"><a xlink:href="class_indicator_interface.html#a850e37bb28d58c3acad37496fa101e64" target="_top" xlink:title=" ">
<polygon fill="white" stroke="#666666" points="222.5,-79.5 130.75,-79.5 130.75,-49 222.5,-49 222.5,-79.5"/>
<text xml:space="preserve" text-anchor="start" x="138.75" y="-66" font-family="Helvetica,sans-Serif" font-size="10.00">IndicatorInterface</text>
<text xml:space="preserve" text-anchor="middle" x="176.62" y="-54.75" font-family="Helvetica,sans-Serif" font-size="10.00">::_writePCF</text>
</a>
</g>
</g>
<!-- Node1&#45;&gt;Node4 -->
<g id="edge3_Node000001_Node000004" class="edge">
<title>Node1&#45;&gt;Node4</title>
<g id="a_edge3_Node000001_Node000004"><a xlink:title=" ">
<path fill="none" stroke="#63b8ff" d="M91.91,-64.25C100.68,-64.25 109.97,-64.25 119.06,-64.25"/>
<polygon fill="#63b8ff" stroke="#63b8ff" points="118.89,-67.75 128.89,-64.25 118.89,-60.75 118.89,-67.75"/>
</a>
</g>
</g>
<!-- Node6 -->
<g id="Node000006" class="node">
<title>Node6</title>
<g id="a_Node000006"><a xlink:href="class_indicator_interface.html#a0a785a20dd66dbe0077d60e779930140" target="_top" xlink:title=" ">
<polygon fill="white" stroke="#666666" points="222.5,-30.5 130.75,-30.5 130.75,0 222.5,0 222.5,-30.5"/>
<text xml:space="preserve" text-anchor="start" x="138.75" y="-17" font-family="Helvetica,sans-Serif" font-size="10.00">IndicatorInterface</text>
<text xml:space="preserve" text-anchor="middle" x="176.62" y="-5.75" font-family="Helvetica,sans-Serif" font-size="10.00">::isOutput</text>
</a>
</g>
</g>
<!-- Node1&#45;&gt;Node6 -->
<g id="edge5_Node000001_Node000006" class="edge">
<title>Node1&#45;&gt;Node6</title>
<g id="a_edge5_Node000001_Node000006"><a xlink:title=" ">
<path fill="none" stroke="#63b8ff" d="M87.97,-48.61C99.35,-44.28 111.85,-39.52 123.76,-34.99"/>
<polygon fill="#63b8ff" stroke="#63b8ff" points="124.97,-38.27 133.07,-31.45 122.48,-31.73 124.97,-38.27"/>
</a>
</g>
</g>
<!-- Node3 -->
<g id="Node000003" class="node">
<title>Node3</title>
<g id="a_Node000003"><a xlink:href="class_indicator_interface.html#a3b900f1de29de5489f19b94b27f4b5c1" target="_top" xlink:title=" ">
<polygon fill="white" stroke="#666666" points="353.25,-128.5 261.5,-128.5 261.5,-98 353.25,-98 353.25,-128.5"/>
<text xml:space="preserve" text-anchor="start" x="269.5" y="-115" font-family="Helvetica,sans-Serif" font-size="10.00">IndicatorInterface</text>
<text xml:space="preserve" text-anchor="middle" x="307.38" y="-103.75" font-family="Helvetica,sans-Serif" font-size="10.00">::isInverted</text>
</a>
</g>
</g>
<!-- Node2&#45;&gt;Node3 -->
<g id="edge2_Node000002_Node000003" class="edge">
<title>Node2&#45;&gt;Node3</title>
<g id="a_edge2_Node000002_Node000003"><a xlink:title=" ">
<path fill="none" stroke="#63b8ff" d="M225.93,-113.25C233.7,-113.25 241.8,-113.25 249.74,-113.25"/>
<polygon fill="#63b8ff" stroke="#63b8ff" points="249.69,-116.75 259.69,-113.25 249.69,-109.75 249.69,-116.75"/>
</a>
</g>
</g>
<!-- Node5 -->
<g id="Node000005" class="node">
<title>Node5</title>
<g id="a_Node000005"><a xlink:href="class_indicator_interface.html#a55da41c64cf3538a8bbb5252dd38b885" target="_top" xlink:title=" ">
<polygon fill="white" stroke="#666666" points="353.25,-79.5 261.5,-79.5 261.5,-49 353.25,-49 353.25,-79.5"/>
<text xml:space="preserve" text-anchor="start" x="269.5" y="-66" font-family="Helvetica,sans-Serif" font-size="10.00">IndicatorInterface</text>
<text xml:space="preserve" text-anchor="middle" x="307.38" y="-54.75" font-family="Helvetica,sans-Serif" font-size="10.00">::_clearInterrupt</text>
</a>
</g>
</g>
<!-- Node4&#45;&gt;Node5 -->
<g id="edge4_Node000004_Node000005" class="edge">
<title>Node4&#45;&gt;Node5</title>
<g id="a_edge4_Node000004_Node000005"><a xlink:title=" ">
<path fill="none" stroke="#63b8ff" d="M222.66,-64.25C231.43,-64.25 240.72,-64.25 249.81,-64.25"/>
<polygon fill="#63b8ff" stroke="#63b8ff" points="249.64,-67.75 259.64,-64.25 249.64,-60.75 249.64,-67.75"/>
</a>
</g>
</g>
</g>
</svg>
