<?xml version="1.0" encoding="UTF-8" standalone="no"?>
<!DOCTYPE svg PUBLIC "-//W3C//DTD SVG 1.1//EN"
 "http://www.w3.org/Graphics/SVG/1.1/DTD/svg11.dtd">
<!-- Generated by graphviz version 13.1.0 (20250701.0955)
 -->
<!-- Title: TimeManager::init Pages: 1 -->
<svg width="296pt" height="88pt"
 viewBox="0.00 0.00 296.00 88.00" xmlns="http://www.w3.org/2000/svg" xmlns:xlink="http://www.w3.org/1999/xlink">
<g id="graph0" class="graph" transform="scale(1 1) rotate(0) translate(4 83.5)">
<title>TimeManager::init</title>
<!-- Node1 -->
<g id="Node000001" class="node">
<title>Node1</title>
<g id="a_Node000001"><a xlink:title="Alternative initialization method.">
<polygon fill="#999999" stroke="#666666" points="94,-48.88 0,-48.88 0,-29.62 94,-29.62 94,-48.88"/>
<text xml:space="preserve" text-anchor="middle" x="47" y="-35.38" font-family="Helvetica,sans-Serif" font-size="10.00">TimeManager::init</text>
</a>
</g>
</g>
<!-- Node2 -->
<g id="Node000002" class="node">
<title>Node2</title>
<g id="a_Node000002"><a xlink:href="class_time_manager.html#ab71114506bbeb9b897af93cb0465294f" target="_top" xlink:title="Set time from compile time.">
<polygon fill="white" stroke="#666666" points="278.38,-79.5 139.38,-79.5 139.38,-49 278.38,-49 278.38,-79.5"/>
<text xml:space="preserve" text-anchor="start" x="147.38" y="-66" font-family="Helvetica,sans-Serif" font-size="10.00">TimeManager::setTimeFrom</text>
<text xml:space="preserve" text-anchor="middle" x="208.88" y="-54.75" font-family="Helvetica,sans-Serif" font-size="10.00">CompileTime</text>
</a>
</g>
</g>
<!-- Node1&#45;&gt;Node2 -->
<g id="edge1_Node000001_Node000002" class="edge">
<title>Node1&#45;&gt;Node2</title>
<g id="a_edge1_Node000001_Node000002"><a xlink:title=" ">
<path fill="none" stroke="#63b8ff" d="M94.24,-46.48C104.87,-48.14 116.46,-49.96 128.05,-51.77"/>
<polygon fill="#63b8ff" stroke="#63b8ff" points="127.22,-55.18 137.64,-53.27 128.3,-48.26 127.22,-55.18"/>
</a>
</g>
</g>
<!-- Node3 -->
<g id="Node000003" class="node">
<title>Node3</title>
<g id="a_Node000003"><a xlink:href="class_time_manager.html#aaa8f40eecb13a943afde608e28596ed4" target="_top" xlink:title="Sync ESP32 system time from RTC.">
<polygon fill="white" stroke="#666666" points="287.75,-30.5 130,-30.5 130,0 287.75,0 287.75,-30.5"/>
<text xml:space="preserve" text-anchor="start" x="138" y="-17" font-family="Helvetica,sans-Serif" font-size="10.00">TimeManager::syncSystemTime</text>
<text xml:space="preserve" text-anchor="middle" x="208.88" y="-5.75" font-family="Helvetica,sans-Serif" font-size="10.00">FromRTC</text>
</a>
</g>
</g>
<!-- Node1&#45;&gt;Node3 -->
<g id="edge2_Node000001_Node000003" class="edge">
<title>Node1&#45;&gt;Node3</title>
<g id="a_edge2_Node000001_Node000003"><a xlink:title=" ">
<path fill="none" stroke="#63b8ff" d="M94.24,-32.31C101.85,-31.17 109.96,-29.95 118.2,-28.71"/>
<polygon fill="#63b8ff" stroke="#63b8ff" points="118.64,-32.19 128.01,-27.24 117.6,-25.26 118.64,-32.19"/>
</a>
</g>
</g>
</g>
</svg>
