<?xml version="1.0" encoding="UTF-8" standalone="no"?>
<!DOCTYPE svg PUBLIC "-//W3C//DTD SVG 1.1//EN"
 "http://www.w3.org/Graphics/SVG/1.1/DTD/svg11.dtd">
<!-- Generated by graphviz version 13.1.0 (20250701.0955)
 -->
<!-- Title: TemperatureController::getPointsJson Pages: 1 -->
<svg width="528pt" height="630pt"
 viewBox="0.00 0.00 528.00 630.00" xmlns="http://www.w3.org/2000/svg" xmlns:xlink="http://www.w3.org/1999/xlink">
<g id="graph0" class="graph" transform="scale(1 1) rotate(0) translate(4 625.67)">
<title>TemperatureController::getPointsJson</title>
<!-- Node1 -->
<g id="Node000001" class="node">
<title>Node1</title>
<g id="a_Node000001"><a xlink:title=" ">
<polygon fill="#999999" stroke="#666666" points="112,-326.3 0,-326.3 0,-295.8 112,-295.8 112,-326.3"/>
<text xml:space="preserve" text-anchor="start" x="8" y="-312.8" font-family="Helvetica,sans-Serif" font-size="10.00">TemperatureController</text>
<text xml:space="preserve" text-anchor="middle" x="56" y="-301.55" font-family="Helvetica,sans-Serif" font-size="10.00">::getPointsJson</text>
</a>
</g>
</g>
<!-- Node2 -->
<g id="Node000002" class="node">
<title>Node2</title>
<g id="a_Node000002"><a xlink:href="class_measurement_point.html#a7b74a18d86e0e545264a774aa2c31cad" target="_top" xlink:title=" ">
<polygon fill="white" stroke="#666666" points="311.38,-621.67 158.12,-621.67 158.12,-602.42 311.38,-602.42 311.38,-621.67"/>
<text xml:space="preserve" text-anchor="middle" x="234.75" y="-608.17" font-family="Helvetica,sans-Serif" font-size="10.00">MeasurementPoint::getAddress</text>
</a>
</g>
</g>
<!-- Node1&#45;&gt;Node2 -->
<g id="edge1_Node000001_Node000002" class="edge">
<title>Node1&#45;&gt;Node2</title>
<g id="a_edge1_Node000001_Node000002"><a xlink:title=" ">
<path fill="none" stroke="#63b8ff" d="M56.99,-326.67C57.87,-374.42 67.34,-519.64 148,-593.05 149.11,-594.06 150.26,-595.02 151.45,-595.93"/>
<polygon fill="#63b8ff" stroke="#63b8ff" points="149.58,-598.89 159.91,-601.24 153.3,-592.96 149.58,-598.89"/>
</a>
</g>
</g>
<!-- Node3 -->
<g id="Node000003" class="node">
<title>Node3</title>
<g id="a_Node000003"><a xlink:href="class_measurement_point.html#a1421d744f7982e528a579da02adb1919" target="_top" xlink:title=" ">
<polygon fill="white" stroke="#666666" points="306.12,-584.3 163.38,-584.3 163.38,-553.8 306.12,-553.8 306.12,-584.3"/>
<text xml:space="preserve" text-anchor="start" x="171.38" y="-570.8" font-family="Helvetica,sans-Serif" font-size="10.00">MeasurementPoint::getAlarm</text>
<text xml:space="preserve" text-anchor="middle" x="234.75" y="-559.55" font-family="Helvetica,sans-Serif" font-size="10.00">Status</text>
</a>
</g>
</g>
<!-- Node1&#45;&gt;Node3 -->
<g id="edge2_Node000001_Node000003" class="edge">
<title>Node1&#45;&gt;Node3</title>
<g id="a_edge2_Node000001_Node000003"><a xlink:title=" ">
<path fill="none" stroke="#63b8ff" d="M58.44,-326.72C63.11,-368.48 81.68,-483.36 148,-544.05 149.67,-545.58 151.43,-547.02 153.27,-548.37"/>
<polygon fill="#63b8ff" stroke="#63b8ff" points="151.36,-551.3 161.7,-553.61 155.06,-545.36 151.36,-551.3"/>
</a>
</g>
</g>
<!-- Node4 -->
<g id="Node000004" class="node">
<title>Node4</title>
<g id="a_Node000004"><a xlink:href="class_measurement_point.html#a81c7ae93a9314344967d0f31c6fefe2f" target="_top" xlink:title=" ">
<polygon fill="white" stroke="#666666" points="307.25,-535.3 162.25,-535.3 162.25,-504.8 307.25,-504.8 307.25,-535.3"/>
<text xml:space="preserve" text-anchor="start" x="170.25" y="-521.8" font-family="Helvetica,sans-Serif" font-size="10.00">MeasurementPoint::getBound</text>
<text xml:space="preserve" text-anchor="middle" x="234.75" y="-510.55" font-family="Helvetica,sans-Serif" font-size="10.00">Sensor</text>
</a>
</g>
</g>
<!-- Node1&#45;&gt;Node4 -->
<g id="edge3_Node000001_Node000004" class="edge">
<title>Node1&#45;&gt;Node4</title>
<g id="a_edge3_Node000001_Node000004"><a xlink:title=" ">
<path fill="none" stroke="#63b8ff" d="M60.13,-326.63C68.12,-362.24 92.66,-450.07 148,-496.05 149.47,-497.27 151,-498.43 152.58,-499.53"/>
<polygon fill="#63b8ff" stroke="#63b8ff" points="150.42,-502.32 160.8,-504.44 154.01,-496.31 150.42,-502.32"/>
</a>
</g>
</g>
<!-- Node5 -->
<g id="Node000005" class="node">
<title>Node5</title>
<g id="a_Node000005"><a xlink:href="class_measurement_point.html#aceaf14fde40bcd5331e5ea6a07d7dde8" target="_top" xlink:title=" ">
<polygon fill="white" stroke="#666666" points="321.5,-486.67 148,-486.67 148,-467.42 321.5,-467.42 321.5,-486.67"/>
<text xml:space="preserve" text-anchor="middle" x="234.75" y="-473.17" font-family="Helvetica,sans-Serif" font-size="10.00">MeasurementPoint::getCurrentTemp</text>
</a>
</g>
</g>
<!-- Node1&#45;&gt;Node5 -->
<g id="edge4_Node000001_Node000005" class="edge">
<title>Node1&#45;&gt;Node5</title>
<g id="a_edge4_Node000001_Node000005"><a xlink:title=" ">
<path fill="none" stroke="#63b8ff" d="M61.84,-326.49C72.28,-357.04 99.9,-425.2 148,-459.05 149.4,-460.03 150.84,-460.97 152.32,-461.85"/>
<polygon fill="#63b8ff" stroke="#63b8ff" points="150.68,-464.94 161.18,-466.32 153.83,-458.69 150.68,-464.94"/>
</a>
</g>
</g>
<!-- Node6 -->
<g id="Node000006" class="node">
<title>Node6</title>
<g id="a_Node000006"><a xlink:href="class_sensor.html#a3003106c642cc8a9ec5638ea06052ff4" target="_top" xlink:title=" ">
<polygon fill="white" stroke="#666666" points="311,-449.67 158.5,-449.67 158.5,-430.42 311,-430.42 311,-449.67"/>
<text xml:space="preserve" text-anchor="middle" x="234.75" y="-436.17" font-family="Helvetica,sans-Serif" font-size="10.00">Sensor::getDS18B20RomArray</text>
</a>
</g>
</g>
<!-- Node1&#45;&gt;Node6 -->
<g id="edge5_Node000001_Node000006" class="edge">
<title>Node1&#45;&gt;Node6</title>
<g id="a_edge5_Node000001_Node000006"><a xlink:title=" ">
<path fill="none" stroke="#63b8ff" d="M65.02,-326.41C78.62,-350.81 108.59,-398.13 148,-422.05 150.03,-423.28 152.14,-424.43 154.29,-425.5"/>
<polygon fill="#63b8ff" stroke="#63b8ff" points="152.77,-428.66 163.34,-429.38 155.53,-422.22 152.77,-428.66"/>
</a>
</g>
</g>
<!-- Node7 -->
<g id="Node000007" class="node">
<title>Node7</title>
<g id="a_Node000007"><a xlink:href="class_sensor.html#a9f793cde2918130fbc77dad1aebfe53a" target="_top" xlink:title=" ">
<polygon fill="white" stroke="#666666" points="312.12,-412.67 157.38,-412.67 157.38,-393.42 312.12,-393.42 312.12,-412.67"/>
<text xml:space="preserve" text-anchor="middle" x="234.75" y="-399.17" font-family="Helvetica,sans-Serif" font-size="10.00">Sensor::getDS18B20RomString</text>
</a>
</g>
</g>
<!-- Node1&#45;&gt;Node7 -->
<g id="edge6_Node000001_Node000007" class="edge">
<title>Node1&#45;&gt;Node7</title>
<g id="a_edge6_Node000001_Node000007"><a xlink:title=" ">
<path fill="none" stroke="#63b8ff" d="M71.9,-326.69C88.77,-343.45 117.87,-369.6 148,-384.05 152.25,-386.09 156.73,-387.91 161.32,-389.54"/>
<polygon fill="#63b8ff" stroke="#63b8ff" points="160.13,-392.84 170.72,-392.55 162.26,-386.17 160.13,-392.84"/>
</a>
</g>
</g>
<!-- Node8 -->
<g id="Node000008" class="node">
<title>Node8</title>
<g id="a_Node000008"><a xlink:href="class_measurement_point.html#a3fb0693931f12190a7f96e5d6be51b51" target="_top" xlink:title=" ">
<polygon fill="white" stroke="#666666" points="303.88,-375.3 165.62,-375.3 165.62,-344.8 303.88,-344.8 303.88,-375.3"/>
<text xml:space="preserve" text-anchor="start" x="173.62" y="-361.8" font-family="Helvetica,sans-Serif" font-size="10.00">MeasurementPoint::getError</text>
<text xml:space="preserve" text-anchor="middle" x="234.75" y="-350.55" font-family="Helvetica,sans-Serif" font-size="10.00">Status</text>
</a>
</g>
</g>
<!-- Node1&#45;&gt;Node8 -->
<g id="edge7_Node000001_Node000008" class="edge">
<title>Node1&#45;&gt;Node8</title>
<g id="a_edge7_Node000001_Node000008"><a xlink:title=" ">
<path fill="none" stroke="#63b8ff" d="M112.44,-326.42C129.46,-331.13 148.38,-336.38 166.12,-341.3"/>
<polygon fill="#63b8ff" stroke="#63b8ff" points="164.95,-344.61 175.53,-343.91 166.82,-337.86 164.95,-344.61"/>
</a>
</g>
</g>
<!-- Node9 -->
<g id="Node000009" class="node">
<title>Node9</title>
<g id="a_Node000009"><a xlink:href="class_measurement_point.html#a71d6d440240f110cbd80c58bbc47aff6" target="_top" xlink:title=" ">
<polygon fill="white" stroke="#666666" points="303.5,-326.3 166,-326.3 166,-295.8 303.5,-295.8 303.5,-326.3"/>
<text xml:space="preserve" text-anchor="start" x="174" y="-312.8" font-family="Helvetica,sans-Serif" font-size="10.00">MeasurementPoint::getHigh</text>
<text xml:space="preserve" text-anchor="middle" x="234.75" y="-301.55" font-family="Helvetica,sans-Serif" font-size="10.00">AlarmThreshold</text>
</a>
</g>
</g>
<!-- Node1&#45;&gt;Node9 -->
<g id="edge8_Node000001_Node000009" class="edge">
<title>Node1&#45;&gt;Node9</title>
<g id="a_edge8_Node000001_Node000009"><a xlink:title=" ">
<path fill="none" stroke="#63b8ff" d="M112.44,-311.05C125.78,-311.05 140.29,-311.05 154.48,-311.05"/>
<polygon fill="#63b8ff" stroke="#63b8ff" points="154.25,-314.55 164.25,-311.05 154.25,-307.55 154.25,-314.55"/>
</a>
</g>
</g>
<!-- Node10 -->
<g id="Node000010" class="node">
<title>Node10</title>
<g id="a_Node000010"><a xlink:href="class_measurement_point.html#a6e538e117d9e22c6998b56519a51d6ba" target="_top" xlink:title=" ">
<polygon fill="white" stroke="#666666" points="302.38,-277.3 167.12,-277.3 167.12,-246.8 302.38,-246.8 302.38,-277.3"/>
<text xml:space="preserve" text-anchor="start" x="175.12" y="-263.8" font-family="Helvetica,sans-Serif" font-size="10.00">MeasurementPoint::getLow</text>
<text xml:space="preserve" text-anchor="middle" x="234.75" y="-252.55" font-family="Helvetica,sans-Serif" font-size="10.00">AlarmThreshold</text>
</a>
</g>
</g>
<!-- Node1&#45;&gt;Node10 -->
<g id="edge9_Node000001_Node000010" class="edge">
<title>Node1&#45;&gt;Node10</title>
<g id="a_edge9_Node000001_Node000010"><a xlink:title=" ">
<path fill="none" stroke="#63b8ff" d="M112.44,-295.68C129.46,-290.96 148.38,-285.71 166.12,-280.8"/>
<polygon fill="#63b8ff" stroke="#63b8ff" points="166.82,-284.23 175.53,-278.19 164.95,-277.49 166.82,-284.23"/>
</a>
</g>
</g>
<!-- Node11 -->
<g id="Node000011" class="node">
<title>Node11</title>
<g id="a_Node000011"><a xlink:href="class_measurement_point.html#a8677e00e0be369d7874f4982990dc56d" target="_top" xlink:title=" ">
<polygon fill="white" stroke="#666666" points="314.75,-228.67 154.75,-228.67 154.75,-209.42 314.75,-209.42 314.75,-228.67"/>
<text xml:space="preserve" text-anchor="middle" x="234.75" y="-215.17" font-family="Helvetica,sans-Serif" font-size="10.00">MeasurementPoint::getMaxTemp</text>
</a>
</g>
</g>
<!-- Node1&#45;&gt;Node11 -->
<g id="edge10_Node000001_Node000011" class="edge">
<title>Node1&#45;&gt;Node11</title>
<g id="a_edge10_Node000001_Node000011"><a xlink:title=" ">
<path fill="none" stroke="#63b8ff" d="M71.9,-295.41C88.77,-278.64 117.87,-252.49 148,-238.05 152.25,-236.01 156.73,-234.18 161.32,-232.55"/>
<polygon fill="#63b8ff" stroke="#63b8ff" points="162.26,-235.93 170.72,-229.55 160.13,-229.26 162.26,-235.93"/>
</a>
</g>
</g>
<!-- Node12 -->
<g id="Node000012" class="node">
<title>Node12</title>
<g id="a_Node000012"><a xlink:href="class_measurement_point.html#adc31f012462c1623617d5f362bcb2c59" target="_top" xlink:title=" ">
<polygon fill="white" stroke="#666666" points="313.25,-191.67 156.25,-191.67 156.25,-172.42 313.25,-172.42 313.25,-191.67"/>
<text xml:space="preserve" text-anchor="middle" x="234.75" y="-178.17" font-family="Helvetica,sans-Serif" font-size="10.00">MeasurementPoint::getMinTemp</text>
</a>
</g>
</g>
<!-- Node1&#45;&gt;Node12 -->
<g id="edge11_Node000001_Node000012" class="edge">
<title>Node1&#45;&gt;Node12</title>
<g id="a_edge11_Node000001_Node000012"><a xlink:title=" ">
<path fill="none" stroke="#63b8ff" d="M65.02,-295.69C78.62,-271.28 108.59,-223.97 148,-200.05 150.03,-198.81 152.14,-197.66 154.29,-196.59"/>
<polygon fill="#63b8ff" stroke="#63b8ff" points="155.53,-199.87 163.34,-192.72 152.77,-193.44 155.53,-199.87"/>
</a>
</g>
</g>
<!-- Node13 -->
<g id="Node000013" class="node">
<title>Node13</title>
<g id="a_Node000013"><a xlink:href="class_measurement_point.html#aa3a80d373c7609c7b178bf7353ffdd7a" target="_top" xlink:title=" ">
<polygon fill="white" stroke="#666666" points="306.5,-154.67 163,-154.67 163,-135.42 306.5,-135.42 306.5,-154.67"/>
<text xml:space="preserve" text-anchor="middle" x="234.75" y="-141.17" font-family="Helvetica,sans-Serif" font-size="10.00">MeasurementPoint::getName</text>
</a>
</g>
</g>
<!-- Node1&#45;&gt;Node13 -->
<g id="edge12_Node000001_Node000013" class="edge">
<title>Node1&#45;&gt;Node13</title>
<g id="a_edge12_Node000001_Node000013"><a xlink:title=" ">
<path fill="none" stroke="#63b8ff" d="M61.84,-295.61C72.28,-265.05 99.9,-196.9 148,-163.05 149.4,-162.06 150.84,-161.13 152.32,-160.25"/>
<polygon fill="#63b8ff" stroke="#63b8ff" points="153.83,-163.41 161.18,-155.78 150.68,-157.15 153.83,-163.41"/>
</a>
</g>
</g>
<!-- Node14 -->
<g id="Node000014" class="node">
<title>Node14</title>
<g id="a_Node000014"><a xlink:href="class_sensor.html#a6f57825e90b759ccdb9fe07b3a36953d" target="_top" xlink:title=" ">
<polygon fill="white" stroke="#666666" points="519.75,-113.67 357.5,-113.67 357.5,-94.42 519.75,-94.42 519.75,-113.67"/>
<text xml:space="preserve" text-anchor="middle" x="438.62" y="-100.17" font-family="Helvetica,sans-Serif" font-size="10.00">Sensor::getPT1000ChipSelectPin</text>
</a>
</g>
</g>
<!-- Node1&#45;&gt;Node14 -->
<g id="edge13_Node000001_Node000014" class="edge">
<title>Node1&#45;&gt;Node14</title>
<g id="a_edge13_Node000001_Node000014"><a xlink:title=" ">
<path fill="none" stroke="#63b8ff" d="M59.4,-295.51C65.97,-258.78 87.96,-166.66 148,-126.05 179.32,-104.86 273.35,-100.95 345.86,-101.34"/>
<polygon fill="#63b8ff" stroke="#63b8ff" points="345.75,-104.84 355.78,-101.42 345.81,-97.84 345.75,-104.84"/>
</a>
</g>
</g>
<!-- Node15 -->
<g id="Node000015" class="node">
<title>Node15</title>
<g id="a_Node000015"><a xlink:href="class_temperature_controller.html#a01e04714a1712aa10c34276850971a12" target="_top" xlink:title=" ">
<polygon fill="white" stroke="#666666" points="290.75,-79.3 178.75,-79.3 178.75,-48.8 290.75,-48.8 290.75,-79.3"/>
<text xml:space="preserve" text-anchor="start" x="186.75" y="-65.8" font-family="Helvetica,sans-Serif" font-size="10.00">TemperatureController</text>
<text xml:space="preserve" text-anchor="middle" x="234.75" y="-54.55" font-family="Helvetica,sans-Serif" font-size="10.00">::getSensorBus</text>
</a>
</g>
</g>
<!-- Node1&#45;&gt;Node15 -->
<g id="edge14_Node000001_Node000015" class="edge">
<title>Node1&#45;&gt;Node15</title>
<g id="a_edge14_Node000001_Node000015"><a xlink:title=" ">
<path fill="none" stroke="#63b8ff" d="M59.08,-295.37C65.15,-255.69 86.53,-150.4 148,-93.05 153.93,-87.52 160.94,-83.04 168.37,-79.42"/>
<polygon fill="#63b8ff" stroke="#63b8ff" points="169.5,-82.74 177.3,-75.58 166.73,-76.31 169.5,-82.74"/>
</a>
</g>
</g>
<!-- Node17 -->
<g id="Node000017" class="node">
<title>Node17</title>
<g id="a_Node000017"><a xlink:href="class_sensor.html#a0f6f095e7cfdfffb2a395dfdae7cfa53" target="_top" xlink:title=" ">
<polygon fill="white" stroke="#666666" points="482.25,-33.67 395,-33.67 395,-14.42 482.25,-14.42 482.25,-33.67"/>
<text xml:space="preserve" text-anchor="middle" x="438.62" y="-20.17" font-family="Helvetica,sans-Serif" font-size="10.00">Sensor::getType</text>
</a>
</g>
</g>
<!-- Node1&#45;&gt;Node17 -->
<g id="edge18_Node000001_Node000017" class="edge">
<title>Node1&#45;&gt;Node17</title>
<g id="a_edge18_Node000001_Node000017"><a xlink:title=" ">
<path fill="none" stroke="#63b8ff" d="M56.72,-295.43C56.82,-247.81 64.3,-103.81 148,-40.05 217.77,13.1 326.65,1.34 389.14,-11.61"/>
<polygon fill="#63b8ff" stroke="#63b8ff" points="388.26,-15 398.77,-13.71 389.74,-8.16 388.26,-15"/>
</a>
</g>
</g>
<!-- Node15&#45;&gt;Node14 -->
<g id="edge16_Node000015_Node000014" class="edge">
<title>Node15&#45;&gt;Node14</title>
<g id="a_edge16_Node000015_Node000014"><a xlink:title=" ">
<path fill="none" stroke="#63b8ff" d="M291.18,-75.03C317.33,-80.21 348.63,-86.41 375.56,-91.75"/>
<polygon fill="#63b8ff" stroke="#63b8ff" points="374.84,-95.17 385.33,-93.69 376.2,-88.31 374.84,-95.17"/>
</a>
</g>
</g>
<!-- Node16 -->
<g id="Node000016" class="node">
<title>Node16</title>
<g id="a_Node000016"><a xlink:href="class_sensor.html#ac42da3a37b0d6a9622344fe83f4c9047" target="_top" xlink:title=" ">
<polygon fill="white" stroke="#666666" points="498,-73.67 379.25,-73.67 379.25,-54.42 498,-54.42 498,-73.67"/>
<text xml:space="preserve" text-anchor="middle" x="438.62" y="-60.17" font-family="Helvetica,sans-Serif" font-size="10.00">Sensor::getOneWirePin</text>
</a>
</g>
</g>
<!-- Node15&#45;&gt;Node16 -->
<g id="edge15_Node000015_Node000016" class="edge">
<title>Node15&#45;&gt;Node16</title>
<g id="a_edge15_Node000015_Node000016"><a xlink:title=" ">
<path fill="none" stroke="#63b8ff" d="M291.18,-64.05C314.77,-64.05 342.54,-64.05 367.53,-64.05"/>
<polygon fill="#63b8ff" stroke="#63b8ff" points="367.28,-67.55 377.28,-64.05 367.28,-60.55 367.28,-67.55"/>
</a>
</g>
</g>
<!-- Node15&#45;&gt;Node17 -->
<g id="edge17_Node000015_Node000017" class="edge">
<title>Node15&#45;&gt;Node17</title>
<g id="a_edge17_Node000015_Node000017"><a xlink:title=" ">
<path fill="none" stroke="#63b8ff" d="M291.18,-53.06C320.03,-47.35 355.16,-40.39 383.78,-34.72"/>
<polygon fill="#63b8ff" stroke="#63b8ff" points="384.19,-38.2 393.32,-32.83 382.83,-31.34 384.19,-38.2"/>
</a>
</g>
</g>
</g>
</svg>
