<?xml version="1.0" encoding="UTF-8" standalone="no"?>
<!DOCTYPE svg PUBLIC "-//W3C//DTD SVG 1.1//EN"
 "http://www.w3.org/Graphics/SVG/1.1/DTD/svg11.dtd">
<!-- Generated by graphviz version 13.1.0 (20250701.0955)
 -->
<!-- Title: LoggerManager::getEventLogStatsJson Pages: 1 -->
<svg width="457pt" height="39pt"
 viewBox="0.00 0.00 457.00 39.00" xmlns="http://www.w3.org/2000/svg" xmlns:xlink="http://www.w3.org/1999/xlink">
<g id="graph0" class="graph" transform="scale(1 1) rotate(0) translate(4 34.5)">
<title>LoggerManager::getEventLogStatsJson</title>
<!-- Node1 -->
<g id="Node000001" class="node">
<title>Node1</title>
<g id="a_Node000001"><a xlink:title=" ">
<polygon fill="#999999" stroke="#666666" points="449.25,-30.5 305.75,-30.5 305.75,0 449.25,0 449.25,-30.5"/>
<text xml:space="preserve" text-anchor="start" x="313.75" y="-17" font-family="Helvetica,sans-Serif" font-size="10.00">LoggerManager::getEventLog</text>
<text xml:space="preserve" text-anchor="middle" x="377.5" y="-5.75" font-family="Helvetica,sans-Serif" font-size="10.00">StatsJson</text>
</a>
</g>
</g>
<!-- Node2 -->
<g id="Node000002" class="node">
<title>Node2</title>
<g id="a_Node000002"><a xlink:href="$class_config_manager.html#a9e977107b4795fcbce0482711ff1ce7a" xlink:title="Setup logging API endpoints.">
<polygon fill="white" stroke="#666666" points="269.75,-24.88 147.25,-24.88 147.25,-5.63 269.75,-5.63 269.75,-24.88"/>
<text xml:space="preserve" text-anchor="middle" x="208.5" y="-11.38" font-family="Helvetica,sans-Serif" font-size="10.00">ConfigManager::logsAPI</text>
</a>
</g>
</g>
<!-- Node1&#45;&gt;Node2 -->
<g id="edge1_Node000001_Node000002" class="edge">
<title>Node1&#45;&gt;Node2</title>
<g id="a_edge1_Node000001_Node000002"><a xlink:title=" ">
<path fill="none" stroke="#63b8ff" d="M294.24,-15.25C286.12,-15.25 277.99,-15.25 270.14,-15.25"/>
<polygon fill="#63b8ff" stroke="#63b8ff" points="294.16,-18.75 304.16,-15.25 294.16,-11.75 294.16,-18.75"/>
</a>
</g>
</g>
<!-- Node3 -->
<g id="Node000003" class="node">
<title>Node3</title>
<g id="a_Node000003"><a xlink:href="$class_config_manager.html#a0497343220fc493f5cf9574922508908" xlink:title="Initialize the configuration system.">
<polygon fill="white" stroke="#666666" points="111.25,-24.88 0,-24.88 0,-5.63 111.25,-5.63 111.25,-24.88"/>
<text xml:space="preserve" text-anchor="middle" x="55.62" y="-11.38" font-family="Helvetica,sans-Serif" font-size="10.00">ConfigManager::begin</text>
</a>
</g>
</g>
<!-- Node2&#45;&gt;Node3 -->
<g id="edge2_Node000002_Node000003" class="edge">
<title>Node2&#45;&gt;Node3</title>
<g id="a_edge2_Node000002_Node000003"><a xlink:title=" ">
<path fill="none" stroke="#63b8ff" d="M135.54,-15.25C127.38,-15.25 119.17,-15.25 111.28,-15.25"/>
<polygon fill="#63b8ff" stroke="#63b8ff" points="135.49,-18.75 145.49,-15.25 135.49,-11.75 135.49,-18.75"/>
</a>
</g>
</g>
</g>
</svg>
