<?xml version="1.0" encoding="UTF-8" standalone="no"?>
<!DOCTYPE svg PUBLIC "-//W3C//DTD SVG 1.1//EN"
 "http://www.w3.org/Graphics/SVG/1.1/DTD/svg11.dtd">
<!-- Generated by graphviz version 13.1.0 (20250701.0955)
 -->
<!-- Title: Alarm::getTypeString Pages: 1 -->
<svg width="590pt" height="453pt"
 viewBox="0.00 0.00 590.00 453.00" xmlns="http://www.w3.org/2000/svg" xmlns:xlink="http://www.w3.org/1999/xlink">
<g id="graph0" class="graph" transform="scale(1 1) rotate(0) translate(4 448.88)">
<title>Alarm::getTypeString</title>
<!-- Node1 -->
<g id="Node000001" class="node">
<title>Node1</title>
<g id="a_Node000001"><a xlink:title="Get alarm type as string.">
<polygon fill="#999999" stroke="#666666" points="582.25,-226.88 474.75,-226.88 474.75,-207.62 582.25,-207.62 582.25,-226.88"/>
<text xml:space="preserve" text-anchor="middle" x="528.5" y="-213.38" font-family="Helvetica,sans-Serif" font-size="10.00">Alarm::getTypeString</text>
</a>
</g>
</g>
<!-- Node2 -->
<g id="Node000002" class="node">
<title>Node2</title>
<g id="a_Node000002"><a xlink:href="class_alarm.html#aa14f5a764303b269f04573867e2e4fc8" target="_top" xlink:title="Acknowledge the alarm.">
<polygon fill="white" stroke="#666666" points="435,-444.88 330.5,-444.88 330.5,-425.62 435,-425.62 435,-444.88"/>
<text xml:space="preserve" text-anchor="middle" x="382.75" y="-431.38" font-family="Helvetica,sans-Serif" font-size="10.00">Alarm::acknowledge</text>
</a>
</g>
</g>
<!-- Node1&#45;&gt;Node2 -->
<g id="edge1_Node000001_Node000002" class="edge">
<title>Node1&#45;&gt;Node2</title>
<g id="a_edge1_Node000001_Node000002"><a xlink:title=" ">
<path fill="none" stroke="#63b8ff" d="M523.97,-238.37C516.09,-278.91 493.3,-367.97 438.75,-417.25 435.25,-420.42 431.17,-423.03 426.86,-425.18"/>
<polygon fill="#63b8ff" stroke="#63b8ff" points="527.38,-239.19 525.72,-228.72 520.49,-237.94 527.38,-239.19"/>
</a>
</g>
</g>
<!-- Node4 -->
<g id="Node000004" class="node">
<title>Node4</title>
<g id="a_Node000004"><a xlink:href="class_temperature_controller.html#ac5c3403746d7c850bf7929bf5ee3448a" target="_top" xlink:title="Add alarm configuration.">
<polygon fill="white" stroke="#666666" points="438.75,-370.5 326.75,-370.5 326.75,-340 438.75,-340 438.75,-370.5"/>
<text xml:space="preserve" text-anchor="start" x="334.75" y="-357" font-family="Helvetica,sans-Serif" font-size="10.00">TemperatureController</text>
<text xml:space="preserve" text-anchor="middle" x="382.75" y="-345.75" font-family="Helvetica,sans-Serif" font-size="10.00">::addAlarm</text>
</a>
</g>
</g>
<!-- Node1&#45;&gt;Node4 -->
<g id="edge3_Node000001_Node000004" class="edge">
<title>Node1&#45;&gt;Node4</title>
<g id="a_edge3_Node000001_Node000004"><a xlink:title=" ">
<path fill="none" stroke="#63b8ff" d="M516.46,-236.89C501.62,-261.76 473.09,-304.58 438.75,-331.25 434.8,-334.32 430.4,-337.08 425.85,-339.54"/>
<polygon fill="#63b8ff" stroke="#63b8ff" points="519.37,-238.85 521.36,-228.44 513.31,-235.33 519.37,-238.85"/>
</a>
</g>
</g>
<!-- Node5 -->
<g id="Node000005" class="node">
<title>Node5</title>
<g id="a_Node000005"><a xlink:href="class_alarm.html#abf159b68e429d66de4ab2d10c2ccd44b" target="_top" xlink:title="Constructor for creating a new alarm.">
<polygon fill="white" stroke="#666666" points="419.25,-321.88 346.25,-321.88 346.25,-302.62 419.25,-302.62 419.25,-321.88"/>
<text xml:space="preserve" text-anchor="middle" x="382.75" y="-308.38" font-family="Helvetica,sans-Serif" font-size="10.00">Alarm::Alarm</text>
</a>
</g>
</g>
<!-- Node1&#45;&gt;Node5 -->
<g id="edge4_Node000001_Node000005" class="edge">
<title>Node1&#45;&gt;Node5</title>
<g id="a_edge4_Node000001_Node000005"><a xlink:title=" ">
<path fill="none" stroke="#63b8ff" d="M508.89,-234.56C491.64,-250 464.79,-272.53 438.75,-288.25 430.01,-293.53 419.9,-298.28 410.75,-302.14"/>
<polygon fill="#63b8ff" stroke="#63b8ff" points="510.82,-237.54 515.86,-228.23 506.11,-232.36 510.82,-237.54"/>
</a>
</g>
</g>
<!-- Node8 -->
<g id="Node000008" class="node">
<title>Node8</title>
<g id="a_Node000008"><a xlink:href="class_alarm.html#adc66e3d22e173b00c59b040369030a17" target="_top" xlink:title="Clear the alarm condition.">
<polygon fill="white" stroke="#666666" points="417,-245.88 348.5,-245.88 348.5,-226.62 417,-226.62 417,-245.88"/>
<text xml:space="preserve" text-anchor="middle" x="382.75" y="-232.38" font-family="Helvetica,sans-Serif" font-size="10.00">Alarm::clear</text>
</a>
</g>
</g>
<!-- Node1&#45;&gt;Node8 -->
<g id="edge7_Node000001_Node000008" class="edge">
<title>Node1&#45;&gt;Node8</title>
<g id="a_edge7_Node000001_Node000008"><a xlink:title=" ">
<path fill="none" stroke="#63b8ff" d="M463.06,-225.77C447.33,-227.85 431.12,-229.99 417.48,-231.79"/>
<polygon fill="#63b8ff" stroke="#63b8ff" points="463.43,-229.25 472.88,-224.47 462.51,-222.31 463.43,-229.25"/>
</a>
</g>
</g>
<!-- Node9 -->
<g id="Node000009" class="node">
<title>Node9</title>
<g id="a_Node000009"><a xlink:href="class_alarm.html#abc87fe39e6a9b5beb9f09df780f67621" target="_top" xlink:title="Update alarm condition based on current measurement.">
<polygon fill="white" stroke="#666666" points="278,-245.88 160,-245.88 160,-226.62 278,-226.62 278,-245.88"/>
<text xml:space="preserve" text-anchor="middle" x="219" y="-232.38" font-family="Helvetica,sans-Serif" font-size="10.00">Alarm::updateCondition</text>
</a>
</g>
</g>
<!-- Node1&#45;&gt;Node9 -->
<g id="edge26_Node000001_Node000009" class="edge">
<title>Node1&#45;&gt;Node9</title>
<g id="a_edge26_Node000001_Node000009"><a xlink:title=" ">
<path fill="none" stroke="#63b8ff" d="M500.01,-232.46C482.94,-241.02 460.23,-250.84 438.75,-255.25 376.76,-267.96 303.19,-256.2 259.11,-246.36"/>
<polygon fill="#63b8ff" stroke="#63b8ff" points="501.24,-235.76 508.5,-228.05 498.01,-229.55 501.24,-235.76"/>
</a>
</g>
</g>
<!-- Node10 -->
<g id="Node000010" class="node">
<title>Node10</title>
<g id="a_Node000010"><a xlink:href="class_alarm.html#adaf4b74537e11d5643ba5a8ae07fe10e" target="_top" xlink:title="Get status text description.">
<polygon fill="white" stroke="#666666" points="436.88,-407.88 328.62,-407.88 328.62,-388.62 436.88,-388.62 436.88,-407.88"/>
<text xml:space="preserve" text-anchor="middle" x="382.75" y="-394.38" font-family="Helvetica,sans-Serif" font-size="10.00">Alarm::getStatusText</text>
</a>
</g>
</g>
<!-- Node1&#45;&gt;Node10 -->
<g id="edge9_Node000001_Node000010" class="edge">
<title>Node1&#45;&gt;Node10</title>
<g id="a_edge9_Node000001_Node000010"><a xlink:title=" ">
<path fill="none" stroke="#63b8ff" d="M521.47,-238.25C510.57,-272.59 484.36,-340.74 438.75,-379.25 434.5,-382.83 429.54,-385.76 424.37,-388.13"/>
<polygon fill="#63b8ff" stroke="#63b8ff" points="524.81,-239.29 524.36,-228.7 518.11,-237.26 524.81,-239.29"/>
</a>
</g>
</g>
<!-- Node11 -->
<g id="Node000011" class="node">
<title>Node11</title>
<g id="a_Node000011"><a xlink:href="class_alarm.html#af8d75ee8622a2a96f4bc9b408e9668e5" target="_top" xlink:title="Reactivate a previously cleared alarm.">
<polygon fill="white" stroke="#666666" points="427.88,-171.88 337.62,-171.88 337.62,-152.62 427.88,-152.62 427.88,-171.88"/>
<text xml:space="preserve" text-anchor="middle" x="382.75" y="-158.38" font-family="Helvetica,sans-Serif" font-size="10.00">Alarm::reactivate</text>
</a>
</g>
</g>
<!-- Node1&#45;&gt;Node11 -->
<g id="edge11_Node000001_Node000011" class="edge">
<title>Node1&#45;&gt;Node11</title>
<g id="a_edge11_Node000001_Node000011"><a xlink:title=" ">
<path fill="none" stroke="#63b8ff" d="M494.43,-202.74C477.84,-195.64 457.36,-187.16 438.75,-180.25 431.4,-177.52 423.43,-174.78 415.89,-172.3"/>
<polygon fill="#63b8ff" stroke="#63b8ff" points="492.75,-205.82 503.32,-206.57 495.52,-199.4 492.75,-205.82"/>
</a>
</g>
</g>
<!-- Node12 -->
<g id="Node000012" class="node">
<title>Node12</title>
<g id="a_Node000012"><a xlink:href="class_alarm.html#a73e7673d61f82aa21441c75f2cee2c6f" target="_top" xlink:title="Resolve the alarm completely.">
<polygon fill="white" stroke="#666666" points="422.25,-208.88 343.25,-208.88 343.25,-189.62 422.25,-189.62 422.25,-208.88"/>
<text xml:space="preserve" text-anchor="middle" x="382.75" y="-195.38" font-family="Helvetica,sans-Serif" font-size="10.00">Alarm::resolve</text>
</a>
</g>
</g>
<!-- Node1&#45;&gt;Node12 -->
<g id="edge12_Node000001_Node000012" class="edge">
<title>Node1&#45;&gt;Node12</title>
<g id="a_edge12_Node000001_Node000012"><a xlink:title=" ">
<path fill="none" stroke="#63b8ff" d="M462.97,-209.17C449.24,-207.45 435.15,-205.69 422.72,-204.13"/>
<polygon fill="#63b8ff" stroke="#63b8ff" points="462.52,-212.64 472.88,-210.41 463.39,-205.7 462.52,-212.64"/>
</a>
</g>
</g>
<!-- Node13 -->
<g id="Node000013" class="node">
<title>Node13</title>
<g id="a_Node000013"><a xlink:href="class_alarm.html#acb8f203b2e2317c1f835bb4b19123f3f" target="_top" xlink:title="Enable or disable the alarm.">
<polygon fill="white" stroke="#666666" points="430.88,-97.88 334.62,-97.88 334.62,-78.62 430.88,-78.62 430.88,-97.88"/>
<text xml:space="preserve" text-anchor="middle" x="382.75" y="-84.38" font-family="Helvetica,sans-Serif" font-size="10.00">Alarm::setEnabled</text>
</a>
</g>
</g>
<!-- Node1&#45;&gt;Node13 -->
<g id="edge14_Node000001_Node000013" class="edge">
<title>Node1&#45;&gt;Node13</title>
<g id="a_edge14_Node000001_Node000013"><a xlink:title=" ">
<path fill="none" stroke="#63b8ff" d="M516.71,-197.63C502.14,-172.88 473.9,-130.62 438.75,-106.25 434.21,-103.1 429.08,-100.47 423.83,-98.29"/>
<polygon fill="#63b8ff" stroke="#63b8ff" points="513.51,-199.09 521.51,-206.04 519.59,-195.62 513.51,-199.09"/>
</a>
</g>
</g>
<!-- Node19 -->
<g id="Node000019" class="node">
<title>Node19</title>
<g id="a_Node000019"><a xlink:href="class_alarm.html#a8d031874090c0c0e548a1f2e41ea4979" target="_top" xlink:title="Set the hysteresis value for alarm triggering.">
<polygon fill="white" stroke="#666666" points="436.88,-134.88 328.62,-134.88 328.62,-115.62 436.88,-115.62 436.88,-134.88"/>
<text xml:space="preserve" text-anchor="middle" x="382.75" y="-121.38" font-family="Helvetica,sans-Serif" font-size="10.00">Alarm::setHysteresis</text>
</a>
</g>
</g>
<!-- Node1&#45;&gt;Node19 -->
<g id="edge20_Node000001_Node000019" class="edge">
<title>Node1&#45;&gt;Node19</title>
<g id="a_edge20_Node000001_Node000019"><a xlink:title=" ">
<path fill="none" stroke="#63b8ff" d="M510.21,-199.35C493.33,-182.79 466.25,-158.48 438.75,-143.25 433.21,-140.18 427.07,-137.54 420.95,-135.29"/>
<polygon fill="#63b8ff" stroke="#63b8ff" points="507.45,-201.54 516.98,-206.15 512.4,-196.6 507.45,-201.54"/>
</a>
</g>
</g>
<!-- Node20 -->
<g id="Node000020" class="node">
<title>Node20</title>
<g id="a_Node000020"><a xlink:href="class_alarm.html#a5095c54c304a52ebbaca5a2ea74059cd" target="_top" xlink:title="Set the alarm priority.">
<polygon fill="white" stroke="#666666" points="428.62,-60.88 336.88,-60.88 336.88,-41.62 428.62,-41.62 428.62,-60.88"/>
<text xml:space="preserve" text-anchor="middle" x="382.75" y="-47.38" font-family="Helvetica,sans-Serif" font-size="10.00">Alarm::setPriority</text>
</a>
</g>
</g>
<!-- Node1&#45;&gt;Node20 -->
<g id="edge23_Node000001_Node000020" class="edge">
<title>Node1&#45;&gt;Node20</title>
<g id="a_edge23_Node000001_Node000020"><a xlink:title=" ">
<path fill="none" stroke="#63b8ff" d="M520.53,-196.64C508.71,-164.75 481.74,-103.55 438.75,-69.25 434.82,-66.12 430.33,-63.52 425.65,-61.37"/>
<polygon fill="#63b8ff" stroke="#63b8ff" points="517.17,-197.63 523.81,-205.88 523.76,-195.29 517.17,-197.63"/>
</a>
</g>
</g>
<!-- Node21 -->
<g id="Node000021" class="node">
<title>Node21</title>
<g id="a_Node000021"><a xlink:href="class_alarm.html#adb5fc73041badc6a082b78874559c002" target="_top" xlink:title="Destructor for alarm cleanup.">
<polygon fill="white" stroke="#666666" points="422.25,-23.88 343.25,-23.88 343.25,-4.62 422.25,-4.62 422.25,-23.88"/>
<text xml:space="preserve" text-anchor="middle" x="382.75" y="-10.38" font-family="Helvetica,sans-Serif" font-size="10.00">Alarm::~Alarm</text>
</a>
</g>
</g>
<!-- Node1&#45;&gt;Node21 -->
<g id="edge27_Node000001_Node000021" class="edge">
<title>Node1&#45;&gt;Node21</title>
<g id="a_edge27_Node000001_Node000021"><a xlink:title=" ">
<path fill="none" stroke="#63b8ff" d="M523.18,-196.38C514.21,-158.26 489.99,-77.18 438.75,-32.25 434.07,-28.14 428.43,-24.97 422.57,-22.52"/>
<polygon fill="#63b8ff" stroke="#63b8ff" points="519.65,-196.67 525.24,-205.67 526.49,-195.15 519.65,-196.67"/>
</a>
</g>
</g>
<!-- Node3 -->
<g id="Node000003" class="node">
<title>Node3</title>
<g id="a_Node000003"><a xlink:href="class_temperature_controller.html#a5f1c8fce1e5efb637bfe86bdb609a3b7" target="_top" xlink:title="Acknowledge highest priority alarm.">
<polygon fill="white" stroke="#666666" points="290.75,-437.12 147.25,-437.12 147.25,-395.38 290.75,-395.38 290.75,-437.12"/>
<text xml:space="preserve" text-anchor="start" x="155.25" y="-423.62" font-family="Helvetica,sans-Serif" font-size="10.00">TemperatureController</text>
<text xml:space="preserve" text-anchor="start" x="155.25" y="-412.38" font-family="Helvetica,sans-Serif" font-size="10.00">::acknowledgeHighestPriority</text>
<text xml:space="preserve" text-anchor="middle" x="219" y="-401.12" font-family="Helvetica,sans-Serif" font-size="10.00">Alarm</text>
</a>
</g>
</g>
<!-- Node2&#45;&gt;Node3 -->
<g id="edge2_Node000002_Node000003" class="edge">
<title>Node2&#45;&gt;Node3</title>
<g id="a_edge2_Node000002_Node000003"><a xlink:title=" ">
<path fill="none" stroke="#63b8ff" d="M318.85,-427.86C309.78,-426.8 300.4,-425.69 291.19,-424.61"/>
<polygon fill="#63b8ff" stroke="#63b8ff" points="318.28,-431.32 328.62,-429.01 319.1,-424.37 318.28,-431.32"/>
</a>
</g>
</g>
<!-- Node6 -->
<g id="Node000006" class="node">
<title>Node6</title>
<g id="a_Node000006"><a xlink:href="class_alarm.html#ab9867ec0c314549960584f4ae01328f8" target="_top" xlink:title="Less&#45;than comparison operator for alarm sorting.">
<polygon fill="white" stroke="#666666" points="263.38,-339.88 174.62,-339.88 174.62,-320.62 263.38,-320.62 263.38,-339.88"/>
<text xml:space="preserve" text-anchor="middle" x="219" y="-326.38" font-family="Helvetica,sans-Serif" font-size="10.00">Alarm::operator&lt;</text>
</a>
</g>
</g>
<!-- Node5&#45;&gt;Node6 -->
<g id="edge5_Node000005_Node000006" class="edge">
<title>Node5&#45;&gt;Node6</title>
<g id="a_edge5_Node000005_Node000006"><a xlink:title=" ">
<path fill="none" stroke="#63b8ff" d="M334.6,-317.5C312.27,-319.98 285.76,-322.93 263.87,-325.37"/>
<polygon fill="#63b8ff" stroke="#63b8ff" points="334.8,-321 344.35,-316.41 334.02,-314.04 334.8,-321"/>
</a>
</g>
</g>
<!-- Node7 -->
<g id="Node000007" class="node">
<title>Node7</title>
<g id="a_Node000007"><a xlink:href="class_alarm.html#a2a6049ea9b003e51f5ac17aba40bb1ad" target="_top" xlink:title="Equality comparison operator.">
<polygon fill="white" stroke="#666666" points="266.38,-302.88 171.62,-302.88 171.62,-283.62 266.38,-283.62 266.38,-302.88"/>
<text xml:space="preserve" text-anchor="middle" x="219" y="-289.38" font-family="Helvetica,sans-Serif" font-size="10.00">Alarm::operator==</text>
</a>
</g>
</g>
<!-- Node5&#45;&gt;Node7 -->
<g id="edge6_Node000005_Node000007" class="edge">
<title>Node5&#45;&gt;Node7</title>
<g id="a_edge6_Node000005_Node000007"><a xlink:title=" ">
<path fill="none" stroke="#63b8ff" d="M334.46,-306.7C313.17,-304.19 288.1,-301.25 266.86,-298.75"/>
<polygon fill="#63b8ff" stroke="#63b8ff" points="334.01,-310.17 344.35,-307.86 334.83,-303.21 334.01,-310.17"/>
</a>
</g>
</g>
<!-- Node8&#45;&gt;Node9 -->
<g id="edge8_Node000008_Node000009" class="edge">
<title>Node8&#45;&gt;Node9</title>
<g id="a_edge8_Node000008_Node000009"><a xlink:title=" ">
<path fill="none" stroke="#63b8ff" d="M336.82,-236.25C318.72,-236.25 297.6,-236.25 278.33,-236.25"/>
<polygon fill="#63b8ff" stroke="#63b8ff" points="336.72,-239.75 346.72,-236.25 336.72,-232.75 336.72,-239.75"/>
</a>
</g>
</g>
<!-- Node10&#45;&gt;Node3 -->
<g id="edge10_Node000010_Node000003" class="edge">
<title>Node10&#45;&gt;Node3</title>
<g id="a_edge10_Node000010_Node000003"><a xlink:title=" ">
<path fill="none" stroke="#63b8ff" d="M316.98,-405.46C308.52,-406.4 299.81,-407.37 291.24,-408.32"/>
<polygon fill="#63b8ff" stroke="#63b8ff" points="317.28,-408.95 326.83,-404.36 316.51,-401.99 317.28,-408.95"/>
</a>
</g>
</g>
<!-- Node12&#45;&gt;Node9 -->
<g id="edge13_Node000012_Node000009" class="edge">
<title>Node12&#45;&gt;Node9</title>
<g id="a_edge13_Node000012_Node000009"><a xlink:title=" ">
<path fill="none" stroke="#63b8ff" d="M332.03,-210.62C310.35,-215.58 285.15,-221.35 264.14,-226.15"/>
<polygon fill="#63b8ff" stroke="#63b8ff" points="332.56,-214.09 341.53,-208.45 331,-207.27 332.56,-214.09"/>
</a>
</g>
</g>
<!-- Node14 -->
<g id="Node000014" class="node">
<title>Node14</title>
<g id="a_Node000014"><a xlink:href="class_c_s_v_config_manager.html#a7ecf23e1c03fa194bcf3afe52408d378" target="_top" xlink:title="Parse alarm configuration from CSV fields.">
<polygon fill="white" stroke="#666666" points="276.12,-177.5 161.88,-177.5 161.88,-147 276.12,-147 276.12,-177.5"/>
<text xml:space="preserve" text-anchor="start" x="169.88" y="-164" font-family="Helvetica,sans-Serif" font-size="10.00">CSVConfigManager::</text>
<text xml:space="preserve" text-anchor="middle" x="219" y="-152.75" font-family="Helvetica,sans-Serif" font-size="10.00">_parseAlarmFromCSV</text>
</a>
</g>
</g>
<!-- Node13&#45;&gt;Node14 -->
<g id="edge15_Node000013_Node000014" class="edge">
<title>Node13&#45;&gt;Node14</title>
<g id="a_edge15_Node000013_Node000014"><a xlink:title=" ">
<path fill="none" stroke="#63b8ff" d="M333.62,-102.73C331.26,-103.83 328.95,-105.01 326.75,-106.25 308.36,-116.62 309.02,-126.66 290.75,-137.25 284.78,-140.71 278.24,-143.81 271.64,-146.55"/>
<polygon fill="#63b8ff" stroke="#63b8ff" points="334.93,-105.98 342.82,-98.9 332.24,-99.51 334.93,-105.98"/>
</a>
</g>
</g>
<!-- Node15 -->
<g id="Node000015" class="node">
<title>Node15</title>
<g id="a_Node000015"><a xlink:href="class_temperature_controller.html#ad174e0411bd48422d8e3812fd28a7a0b" target="_top" xlink:title="Ensure all 3 alarm types exist for a measurement point.">
<polygon fill="white" stroke="#666666" points="278.38,-79.5 159.62,-79.5 159.62,-49 278.38,-49 278.38,-79.5"/>
<text xml:space="preserve" text-anchor="start" x="167.62" y="-66" font-family="Helvetica,sans-Serif" font-size="10.00">TemperatureController</text>
<text xml:space="preserve" text-anchor="middle" x="219" y="-54.75" font-family="Helvetica,sans-Serif" font-size="10.00">::ensureAlarmsForPoint</text>
</a>
</g>
</g>
<!-- Node13&#45;&gt;Node15 -->
<g id="edge16_Node000013_Node000015" class="edge">
<title>Node13&#45;&gt;Node15</title>
<g id="a_edge16_Node000013_Node000015"><a xlink:title=" ">
<path fill="none" stroke="#63b8ff" d="M323.2,-79.56C308.74,-77.42 293.25,-75.12 278.78,-72.97"/>
<polygon fill="#63b8ff" stroke="#63b8ff" points="322.63,-83.02 333.03,-81.02 323.66,-76.09 322.63,-83.02"/>
</a>
</g>
</g>
<!-- Node16 -->
<g id="Node000016" class="node">
<title>Node16</title>
<g id="a_Node000016"><a xlink:href="class_config_manager.html#a468923ce5f2edecd218b29605d75426f" target="_top" xlink:title="Load alarms configuration from file.">
<polygon fill="white" stroke="#666666" points="287.38,-128.5 150.62,-128.5 150.62,-98 287.38,-98 287.38,-128.5"/>
<text xml:space="preserve" text-anchor="start" x="158.62" y="-115" font-family="Helvetica,sans-Serif" font-size="10.00">ConfigManager::loadAlarms</text>
<text xml:space="preserve" text-anchor="middle" x="219" y="-103.75" font-family="Helvetica,sans-Serif" font-size="10.00">Config</text>
</a>
</g>
</g>
<!-- Node13&#45;&gt;Node16 -->
<g id="edge17_Node000013_Node000016" class="edge">
<title>Node13&#45;&gt;Node16</title>
<g id="a_edge17_Node000013_Node000016"><a xlink:title=" ">
<path fill="none" stroke="#63b8ff" d="M323.25,-97.29C311.72,-99.07 299.52,-100.96 287.71,-102.78"/>
<polygon fill="#63b8ff" stroke="#63b8ff" points="323.69,-100.77 333.03,-95.78 322.62,-93.85 323.69,-100.77"/>
</a>
</g>
</g>
<!-- Node18 -->
<g id="Node000018" class="node">
<title>Node18</title>
<g id="a_Node000018"><a xlink:href="class_temperature_controller.html#a93bd31914a054a4e1df9be7e3966b82e" target="_top" xlink:title="Update alarm configuration.">
<polygon fill="white" stroke="#666666" points="275,-30.5 163,-30.5 163,0 275,0 275,-30.5"/>
<text xml:space="preserve" text-anchor="start" x="171" y="-17" font-family="Helvetica,sans-Serif" font-size="10.00">TemperatureController</text>
<text xml:space="preserve" text-anchor="middle" x="219" y="-5.75" font-family="Helvetica,sans-Serif" font-size="10.00">::updateAlarm</text>
</a>
</g>
</g>
<!-- Node13&#45;&gt;Node18 -->
<g id="edge19_Node000013_Node000018" class="edge">
<title>Node13&#45;&gt;Node18</title>
<g id="a_edge19_Node000013_Node000018"><a xlink:title=" ">
<path fill="none" stroke="#63b8ff" d="M334.03,-73.91C331.53,-72.76 329.09,-71.54 326.75,-70.25 308.53,-60.16 308.85,-50.55 290.75,-40.25 284.64,-36.77 277.95,-33.65 271.21,-30.89"/>
<polygon fill="#63b8ff" stroke="#63b8ff" points="332.56,-77.09 343.15,-77.64 335.22,-70.61 332.56,-77.09"/>
</a>
</g>
</g>
<!-- Node17 -->
<g id="Node000017" class="node">
<title>Node17</title>
<g id="a_Node000017"><a xlink:href="class_config_manager.html#a0497343220fc493f5cf9574922508908" target="_top" xlink:title="Initialize the configuration system.">
<polygon fill="white" stroke="#666666" points="111.25,-122.88 0,-122.88 0,-103.62 111.25,-103.62 111.25,-122.88"/>
<text xml:space="preserve" text-anchor="middle" x="55.62" y="-109.38" font-family="Helvetica,sans-Serif" font-size="10.00">ConfigManager::begin</text>
</a>
</g>
</g>
<!-- Node16&#45;&gt;Node17 -->
<g id="edge18_Node000016_Node000017" class="edge">
<title>Node16&#45;&gt;Node17</title>
<g id="a_edge18_Node000016_Node000017"><a xlink:title=" ">
<path fill="none" stroke="#63b8ff" d="M139.18,-113.25C129.86,-113.25 120.51,-113.25 111.62,-113.25"/>
<polygon fill="#63b8ff" stroke="#63b8ff" points="138.98,-116.75 148.98,-113.25 138.98,-109.75 138.98,-116.75"/>
</a>
</g>
</g>
<!-- Node19&#45;&gt;Node14 -->
<g id="edge21_Node000019_Node000014" class="edge">
<title>Node19&#45;&gt;Node14</title>
<g id="a_edge21_Node000019_Node000014"><a xlink:title=" ">
<path fill="none" stroke="#63b8ff" d="M326.66,-137.85C310.52,-141.54 292.85,-145.59 276.61,-149.3"/>
<polygon fill="#63b8ff" stroke="#63b8ff" points="327.11,-141.34 336.08,-135.7 325.55,-134.52 327.11,-141.34"/>
</a>
</g>
</g>
<!-- Node19&#45;&gt;Node16 -->
<g id="edge22_Node000019_Node000016" class="edge">
<title>Node19&#45;&gt;Node16</title>
<g id="a_edge22_Node000019_Node000016"><a xlink:title=" ">
<path fill="none" stroke="#63b8ff" d="M316.86,-120.44C307.29,-119.73 297.4,-118.99 287.78,-118.28"/>
<polygon fill="#63b8ff" stroke="#63b8ff" points="316.6,-123.93 326.83,-121.18 317.12,-116.95 316.6,-123.93"/>
</a>
</g>
</g>
<!-- Node20&#45;&gt;Node15 -->
<g id="edge24_Node000020_Node000015" class="edge">
<title>Node20&#45;&gt;Node15</title>
<g id="a_edge24_Node000020_Node000015"><a xlink:title=" ">
<path fill="none" stroke="#63b8ff" d="M325.43,-55.78C310.33,-56.99 293.97,-58.31 278.74,-59.53"/>
<polygon fill="#63b8ff" stroke="#63b8ff" points="325.5,-59.28 335.18,-54.99 324.94,-52.3 325.5,-59.28"/>
</a>
</g>
</g>
<!-- Node20&#45;&gt;Node18 -->
<g id="edge25_Node000020_Node000018" class="edge">
<title>Node20&#45;&gt;Node18</title>
<g id="a_edge25_Node000020_Node000018"><a xlink:title=" ">
<path fill="none" stroke="#63b8ff" d="M325.71,-38.78C309.45,-35.16 291.7,-31.21 275.47,-27.6"/>
<polygon fill="#63b8ff" stroke="#63b8ff" points="324.69,-42.14 335.22,-40.89 326.22,-35.3 324.69,-42.14"/>
</a>
</g>
</g>
</g>
</svg>
