<?xml version="1.0" encoding="UTF-8" standalone="no"?>
<!DOCTYPE svg PUBLIC "-//W3C//DTD SVG 1.1//EN"
 "http://www.w3.org/Graphics/SVG/1.1/DTD/svg11.dtd">
<!-- Generated by graphviz version 13.1.0 (20250701.0955)
 -->
<!-- Title: TempModbusServer::writeHoldingRegisterWorker Pages: 1 -->
<svg width="315pt" height="64pt"
 viewBox="0.00 0.00 315.00 64.00" xmlns="http://www.w3.org/2000/svg" xmlns:xlink="http://www.w3.org/1999/xlink">
<g id="graph0" class="graph" transform="scale(1 1) rotate(0) translate(4 60.25)">
<title>TempModbusServer::writeHoldingRegisterWorker</title>
<!-- Node1 -->
<g id="Node000001" class="node">
<title>Node1</title>
<g id="a_Node000001"><a xlink:title="Worker function for Write Single Register (FC06)">
<polygon fill="#999999" stroke="#666666" points="163,-42.88 0,-42.88 0,-12.37 163,-12.37 163,-42.88"/>
<text xml:space="preserve" text-anchor="start" x="8" y="-29.38" font-family="Helvetica,sans-Serif" font-size="10.00">TempModbusServer::writeHolding</text>
<text xml:space="preserve" text-anchor="middle" x="81.5" y="-18.12" font-family="Helvetica,sans-Serif" font-size="10.00">RegisterWorker</text>
</a>
</g>
</g>
<!-- Node2 -->
<g id="Node000002" class="node">
<title>Node2</title>
<g id="a_Node000002"><a xlink:href="class_logger_manager.html#aef24f00186213fa78be3b104a50d58e6" target="_top" xlink:title="Log error message (static convenience method)">
<polygon fill="white" stroke="#666666" points="307.25,-56.25 199,-56.25 199,-37 307.25,-37 307.25,-56.25"/>
<text xml:space="preserve" text-anchor="middle" x="253.12" y="-42.75" font-family="Helvetica,sans-Serif" font-size="10.00">LoggerManager::error</text>
</a>
</g>
</g>
<!-- Node1&#45;&gt;Node2 -->
<g id="edge1_Node000001_Node000002" class="edge">
<title>Node1&#45;&gt;Node2</title>
<g id="a_edge1_Node000001_Node000002"><a xlink:title=" ">
<path fill="none" stroke="#63b8ff" d="M163.34,-36.68C171.36,-37.58 179.44,-38.48 187.27,-39.36"/>
<polygon fill="#63b8ff" stroke="#63b8ff" points="186.71,-42.82 197.04,-40.45 187.49,-35.86 186.71,-42.82"/>
</a>
</g>
</g>
<!-- Node3 -->
<g id="Node000003" class="node">
<title>Node3</title>
<g id="a_Node000003"><a xlink:href="class_logger_manager.html#a5c1373ccc47f4112b596fe6f84fbbc21" target="_top" xlink:title="Log informational message (static convenience method)">
<polygon fill="white" stroke="#666666" points="305.38,-19.25 200.88,-19.25 200.88,0 305.38,0 305.38,-19.25"/>
<text xml:space="preserve" text-anchor="middle" x="253.12" y="-5.75" font-family="Helvetica,sans-Serif" font-size="10.00">LoggerManager::info</text>
</a>
</g>
</g>
<!-- Node1&#45;&gt;Node3 -->
<g id="edge2_Node000001_Node000003" class="edge">
<title>Node1&#45;&gt;Node3</title>
<g id="a_edge2_Node000001_Node000003"><a xlink:title=" ">
<path fill="none" stroke="#63b8ff" d="M163.34,-19.05C172.02,-18.13 180.76,-17.2 189.19,-16.3"/>
<polygon fill="#63b8ff" stroke="#63b8ff" points="189.37,-19.8 198.95,-15.27 188.64,-12.84 189.37,-19.8"/>
</a>
</g>
</g>
</g>
</svg>
