<?xml version="1.0" encoding="UTF-8" standalone="no"?>
<!DOCTYPE svg PUBLIC "-//W3C//DTD SVG 1.1//EN"
 "http://www.w3.org/Graphics/SVG/1.1/DTD/svg11.dtd">
<!-- Generated by graphviz version 13.1.0 (20250701.0955)
 -->
<!-- Title: TemperatureController::getMeasurementPoint Pages: 1 -->
<svg width="804pt" height="284pt"
 viewBox="0.00 0.00 804.00 284.00" xmlns="http://www.w3.org/2000/svg" xmlns:xlink="http://www.w3.org/1999/xlink">
<g id="graph0" class="graph" transform="scale(1 1) rotate(0) translate(4 279.5)">
<title>TemperatureController::getMeasurementPoint</title>
<!-- Node1 -->
<g id="Node000001" class="node">
<title>Node1</title>
<g id="a_Node000001"><a xlink:title=" ">
<polygon fill="#999999" stroke="#666666" points="795.5,-152.5 678.25,-152.5 678.25,-122 795.5,-122 795.5,-152.5"/>
<text xml:space="preserve" text-anchor="start" x="686.25" y="-139" font-family="Helvetica,sans-Serif" font-size="10.00">TemperatureController</text>
<text xml:space="preserve" text-anchor="middle" x="736.88" y="-127.75" font-family="Helvetica,sans-Serif" font-size="10.00">::getMeasurementPoint</text>
</a>
</g>
</g>
<!-- Node2 -->
<g id="Node000002" class="node">
<title>Node2</title>
<g id="a_Node000002"><a xlink:href="class_temperature_controller.html#ac5c3403746d7c850bf7929bf5ee3448a" target="_top" xlink:title=" ">
<polygon fill="white" stroke="#666666" points="614.5,-275.5 502.5,-275.5 502.5,-245 614.5,-245 614.5,-275.5"/>
<text xml:space="preserve" text-anchor="start" x="510.5" y="-262" font-family="Helvetica,sans-Serif" font-size="10.00">TemperatureController</text>
<text xml:space="preserve" text-anchor="middle" x="558.5" y="-250.75" font-family="Helvetica,sans-Serif" font-size="10.00">::addAlarm</text>
</a>
</g>
</g>
<!-- Node1&#45;&gt;Node2 -->
<g id="edge1_Node000001_Node000002" class="edge">
<title>Node1&#45;&gt;Node2</title>
<g id="a_edge1_Node000001_Node000002"><a xlink:title=" ">
<path fill="none" stroke="#63b8ff" d="M718.18,-162.04C701.11,-184.24 673.34,-216.15 642.25,-235.25 633.81,-240.43 624.22,-244.61 614.64,-247.95"/>
<polygon fill="#63b8ff" stroke="#63b8ff" points="720.93,-164.21 724.13,-154.11 715.33,-160.01 720.93,-164.21"/>
</a>
</g>
</g>
<!-- Node3 -->
<g id="Node000003" class="node">
<title>Node3</title>
<g id="a_Node000003"><a xlink:href="class_temperature_controller.html#af4ab2c7b7a3934ab7837603a420b1ae2" target="_top" xlink:title=" ">
<polygon fill="white" stroke="#666666" points="642.25,-226.5 474.75,-226.5 474.75,-196 642.25,-196 642.25,-226.5"/>
<text xml:space="preserve" text-anchor="start" x="482.75" y="-213" font-family="Helvetica,sans-Serif" font-size="10.00">TemperatureController</text>
<text xml:space="preserve" text-anchor="middle" x="558.5" y="-201.75" font-family="Helvetica,sans-Serif" font-size="10.00">::bindSensorToPointByBusNumber</text>
</a>
</g>
</g>
<!-- Node1&#45;&gt;Node3 -->
<g id="edge2_Node000001_Node000003" class="edge">
<title>Node1&#45;&gt;Node3</title>
<g id="a_edge2_Node000001_Node000003"><a xlink:title=" ">
<path fill="none" stroke="#63b8ff" d="M699.89,-158.12C682.79,-167.51 661.84,-178.25 642.25,-186.25 634.05,-189.6 625.24,-192.73 616.53,-195.57"/>
<polygon fill="#63b8ff" stroke="#63b8ff" points="701.12,-161.44 708.15,-153.52 697.71,-155.33 701.12,-161.44"/>
</a>
</g>
</g>
<!-- Node4 -->
<g id="Node000004" class="node">
<title>Node4</title>
<g id="a_Node000004"><a xlink:href="class_temperature_controller.html#a84937fc1aed30193b817f3b062ce0cfc" target="_top" xlink:title=" ">
<polygon fill="white" stroke="#666666" points="640.38,-177.5 476.62,-177.5 476.62,-147 640.38,-147 640.38,-177.5"/>
<text xml:space="preserve" text-anchor="start" x="484.62" y="-164" font-family="Helvetica,sans-Serif" font-size="10.00">TemperatureController</text>
<text xml:space="preserve" text-anchor="middle" x="558.5" y="-152.75" font-family="Helvetica,sans-Serif" font-size="10.00">::bindSensorToPointByChipSelect</text>
</a>
</g>
</g>
<!-- Node1&#45;&gt;Node4 -->
<g id="edge3_Node000001_Node000004" class="edge">
<title>Node1&#45;&gt;Node4</title>
<g id="a_edge3_Node000001_Node000004"><a xlink:title=" ">
<path fill="none" stroke="#63b8ff" d="M666.99,-147.01C658.38,-148.23 649.52,-149.49 640.75,-150.73"/>
<polygon fill="#63b8ff" stroke="#63b8ff" points="667.21,-150.52 676.62,-145.65 666.23,-143.59 667.21,-150.52"/>
</a>
</g>
</g>
<!-- Node5 -->
<g id="Node000005" class="node">
<title>Node5</title>
<g id="a_Node000005"><a xlink:href="class_temperature_controller.html#a5d8f7c51bb176435a5035293a2db78f7" target="_top" xlink:title=" ">
<polygon fill="white" stroke="#666666" points="626.88,-128.5 490.12,-128.5 490.12,-98 626.88,-98 626.88,-128.5"/>
<text xml:space="preserve" text-anchor="start" x="498.12" y="-115" font-family="Helvetica,sans-Serif" font-size="10.00">TemperatureController</text>
<text xml:space="preserve" text-anchor="middle" x="558.5" y="-103.75" font-family="Helvetica,sans-Serif" font-size="10.00">::bindSensorToPointByRom</text>
</a>
</g>
</g>
<!-- Node1&#45;&gt;Node5 -->
<g id="edge4_Node000001_Node000005" class="edge">
<title>Node1&#45;&gt;Node5</title>
<g id="a_edge4_Node000001_Node000005"><a xlink:title=" ">
<path fill="none" stroke="#63b8ff" d="M666.85,-127.86C653.81,-126.08 640.19,-124.23 627.19,-122.46"/>
<polygon fill="#63b8ff" stroke="#63b8ff" points="666.24,-131.31 676.62,-129.19 667.19,-124.37 666.24,-131.31"/>
</a>
</g>
</g>
<!-- Node6 -->
<g id="Node000006" class="node">
<title>Node6</title>
<g id="a_Node000006"><a xlink:href="class_temperature_controller.html#a9b4fe09d4c87dcf86e78b890012e1e72" target="_top" xlink:title=" ">
<polygon fill="white" stroke="#666666" points="614.5,-79.5 502.5,-79.5 502.5,-49 614.5,-49 614.5,-79.5"/>
<text xml:space="preserve" text-anchor="start" x="510.5" y="-66" font-family="Helvetica,sans-Serif" font-size="10.00">TemperatureController</text>
<text xml:space="preserve" text-anchor="middle" x="558.5" y="-54.75" font-family="Helvetica,sans-Serif" font-size="10.00">::getBoundSensor</text>
</a>
</g>
</g>
<!-- Node1&#45;&gt;Node6 -->
<g id="edge5_Node000001_Node000006" class="edge">
<title>Node1&#45;&gt;Node6</title>
<g id="a_edge5_Node000001_Node000006"><a xlink:title=" ">
<path fill="none" stroke="#63b8ff" d="M698.62,-116.19C681.74,-107.16 661.33,-96.95 642.25,-89.25 633.48,-85.71 624.02,-82.4 614.73,-79.42"/>
<polygon fill="#63b8ff" stroke="#63b8ff" points="696.84,-119.21 707.3,-120.9 700.18,-113.06 696.84,-119.21"/>
</a>
</g>
</g>
<!-- Node12 -->
<g id="Node000012" class="node">
<title>Node12</title>
<g id="a_Node000012"><a xlink:href="class_temperature_controller.html#a261c9b96540ec6680dfffd3a26e4ca00" target="_top" xlink:title=" ">
<polygon fill="white" stroke="#666666" points="621.62,-30.5 495.38,-30.5 495.38,0 621.62,0 621.62,-30.5"/>
<text xml:space="preserve" text-anchor="start" x="503.38" y="-17" font-family="Helvetica,sans-Serif" font-size="10.00">TemperatureController</text>
<text xml:space="preserve" text-anchor="middle" x="558.5" y="-5.75" font-family="Helvetica,sans-Serif" font-size="10.00">::unbindSensorFromPoint</text>
</a>
</g>
</g>
<!-- Node1&#45;&gt;Node12 -->
<g id="edge12_Node000001_Node000012" class="edge">
<title>Node1&#45;&gt;Node12</title>
<g id="a_edge12_Node000001_Node000012"><a xlink:title=" ">
<path fill="none" stroke="#63b8ff" d="M718.13,-112.72C701.02,-90.75 673.22,-59.16 642.25,-40.25 635.97,-36.42 629.07,-33.14 622.01,-30.34"/>
<polygon fill="#63b8ff" stroke="#63b8ff" points="715.25,-114.71 724.08,-120.56 720.83,-110.48 715.25,-114.71"/>
</a>
</g>
</g>
<!-- Node7 -->
<g id="Node000007" class="node">
<title>Node7</title>
<g id="a_Node000007"><a xlink:href="class_temperature_controller.html#a4e4770607486ebfc6eacafa704945c23" target="_top" xlink:title=" ">
<polygon fill="white" stroke="#666666" points="438.75,-103.5 320.75,-103.5 320.75,-73 438.75,-73 438.75,-103.5"/>
<text xml:space="preserve" text-anchor="start" x="328.75" y="-90" font-family="Helvetica,sans-Serif" font-size="10.00">TemperatureController</text>
<text xml:space="preserve" text-anchor="middle" x="379.75" y="-78.75" font-family="Helvetica,sans-Serif" font-size="10.00">::removeSensorByRom</text>
</a>
</g>
</g>
<!-- Node6&#45;&gt;Node7 -->
<g id="edge6_Node000006_Node000007" class="edge">
<title>Node6&#45;&gt;Node7</title>
<g id="a_edge6_Node000006_Node000007"><a xlink:title=" ">
<path fill="none" stroke="#63b8ff" d="M491.03,-73.28C473.94,-75.6 455.69,-78.07 439.05,-80.33"/>
<polygon fill="#63b8ff" stroke="#63b8ff" points="491.12,-76.8 500.56,-71.98 490.18,-69.86 491.12,-76.8"/>
</a>
</g>
</g>
<!-- Node9 -->
<g id="Node000009" class="node">
<title>Node9</title>
<g id="a_Node000009"><a xlink:href="class_temperature_controller.html#a5ac8af90de5dfd79a9a2e4c7270a98a3" target="_top" xlink:title=" ">
<polygon fill="white" stroke="#666666" points="435.75,-54.5 323.75,-54.5 323.75,-24 435.75,-24 435.75,-54.5"/>
<text xml:space="preserve" text-anchor="start" x="331.75" y="-41" font-family="Helvetica,sans-Serif" font-size="10.00">TemperatureController</text>
<text xml:space="preserve" text-anchor="middle" x="379.75" y="-29.75" font-family="Helvetica,sans-Serif" font-size="10.00">::updateAlarms</text>
</a>
</g>
</g>
<!-- Node6&#45;&gt;Node9 -->
<g id="edge8_Node000006_Node000009" class="edge">
<title>Node6&#45;&gt;Node9</title>
<g id="a_edge8_Node000006_Node000009"><a xlink:title=" ">
<path fill="none" stroke="#63b8ff" d="M490.72,-54.8C472.67,-52.25 453.33,-49.52 435.99,-47.06"/>
<polygon fill="#63b8ff" stroke="#63b8ff" points="490.17,-58.26 500.56,-56.2 491.15,-51.33 490.17,-58.26"/>
</a>
</g>
</g>
<!-- Node8 -->
<g id="Node000008" class="node">
<title>Node8</title>
<g id="a_Node000008"><a xlink:href="class_temperature_controller.html#a57b74b40c88016965d07248981412f7d" target="_top" xlink:title=" ">
<polygon fill="white" stroke="#666666" points="284.75,-103.5 148,-103.5 148,-73 284.75,-73 284.75,-103.5"/>
<text xml:space="preserve" text-anchor="start" x="156" y="-90" font-family="Helvetica,sans-Serif" font-size="10.00">TemperatureController</text>
<text xml:space="preserve" text-anchor="middle" x="216.38" y="-78.75" font-family="Helvetica,sans-Serif" font-size="10.00">::discoverDS18B20Sensors</text>
</a>
</g>
</g>
<!-- Node7&#45;&gt;Node8 -->
<g id="edge7_Node000007_Node000008" class="edge">
<title>Node7&#45;&gt;Node8</title>
<g id="a_edge7_Node000007_Node000008"><a xlink:title=" ">
<path fill="none" stroke="#63b8ff" d="M309.03,-88.25C301.11,-88.25 293.05,-88.25 285.15,-88.25"/>
<polygon fill="#63b8ff" stroke="#63b8ff" points="308.98,-91.75 318.98,-88.25 308.98,-84.75 308.98,-91.75"/>
</a>
</g>
</g>
<!-- Node10 -->
<g id="Node000010" class="node">
<title>Node10</title>
<g id="a_Node000010"><a xlink:href="class_temperature_controller.html#aca5deddbf703001373424d876f87b5f2" target="_top" xlink:title=" ">
<polygon fill="white" stroke="#666666" points="272.38,-54.5 160.38,-54.5 160.38,-24 272.38,-24 272.38,-54.5"/>
<text xml:space="preserve" text-anchor="start" x="168.38" y="-41" font-family="Helvetica,sans-Serif" font-size="10.00">TemperatureController</text>
<text xml:space="preserve" text-anchor="middle" x="216.38" y="-29.75" font-family="Helvetica,sans-Serif" font-size="10.00">::update</text>
</a>
</g>
</g>
<!-- Node9&#45;&gt;Node10 -->
<g id="edge9_Node000009_Node000010" class="edge">
<title>Node9&#45;&gt;Node10</title>
<g id="a_edge9_Node000009_Node000010"><a xlink:title=" ">
<path fill="none" stroke="#63b8ff" d="M312.29,-39.25C299.15,-39.25 285.49,-39.25 272.76,-39.25"/>
<polygon fill="#63b8ff" stroke="#63b8ff" points="312.15,-42.75 322.15,-39.25 312.15,-35.75 312.15,-42.75"/>
</a>
</g>
</g>
<!-- Node11 -->
<g id="Node000011" class="node">
<title>Node11</title>
<g id="a_Node000011"><a xlink:href="class_temperature_controller.html#a11948a87fe7df37543b86ecdd488b341" target="_top" xlink:title=" ">
<polygon fill="white" stroke="#666666" points="112,-54.5 0,-54.5 0,-24 112,-24 112,-54.5"/>
<text xml:space="preserve" text-anchor="start" x="8" y="-41" font-family="Helvetica,sans-Serif" font-size="10.00">TemperatureController</text>
<text xml:space="preserve" text-anchor="middle" x="56" y="-29.75" font-family="Helvetica,sans-Serif" font-size="10.00">::readAllPoints</text>
</a>
</g>
</g>
<!-- Node10&#45;&gt;Node11 -->
<g id="edge10_Node000010_Node000011" class="edge">
<title>Node10&#45;&gt;Node11</title>
<g id="a_edge10_Node000010_Node000011"><a xlink:title=" ">
<path fill="none" stroke="#63b8ff" d="M148.57,-32.57C136.51,-32.43 124.05,-32.5 112.36,-32.78"/>
<polygon fill="#63b8ff" stroke="#63b8ff" points="148.41,-36.07 158.47,-32.75 148.53,-29.07 148.41,-36.07"/>
</a>
</g>
</g>
<!-- Node11&#45;&gt;Node10 -->
<g id="edge11_Node000011_Node000010" class="edge">
<title>Node11&#45;&gt;Node10</title>
<g id="a_edge11_Node000011_Node000010"><a xlink:title=" ">
<path fill="none" stroke="#63b8ff" d="M123.77,-45.93C135.83,-46.07 148.29,-46 159.98,-45.72"/>
<polygon fill="#63b8ff" stroke="#63b8ff" points="123.94,-42.43 113.87,-45.75 123.81,-49.43 123.94,-42.43"/>
</a>
</g>
</g>
</g>
</svg>
