<?xml version="1.0" encoding="UTF-8" standalone="no"?>
<!DOCTYPE svg PUBLIC "-//W3C//DTD SVG 1.1//EN"
 "http://www.w3.org/Graphics/SVG/1.1/DTD/svg11.dtd">
<!-- Generated by graphviz version 13.1.0 (20250701.0955)
 -->
<!-- Title: CSVConfigManager::_getAlarmPriorityForPoint Pages: 1 -->
<svg width="291pt" height="150pt"
 viewBox="0.00 0.00 291.00 150.00" xmlns="http://www.w3.org/2000/svg" xmlns:xlink="http://www.w3.org/1999/xlink">
<g id="graph0" class="graph" transform="scale(1 1) rotate(0) translate(4 145.88)">
<title>CSVConfigManager::_getAlarmPriorityForPoint</title>
<!-- Node1 -->
<g id="Node000001" class="node">
<title>Node1</title>
<g id="a_Node000001"><a xlink:title="Get alarm priority for specific point and alarm type.">
<polygon fill="#999999" stroke="#666666" points="127.75,-79.88 0,-79.88 0,-49.38 127.75,-49.38 127.75,-79.88"/>
<text xml:space="preserve" text-anchor="start" x="8" y="-66.38" font-family="Helvetica,sans-Serif" font-size="10.00">CSVConfigManager::</text>
<text xml:space="preserve" text-anchor="middle" x="63.88" y="-55.12" font-family="Helvetica,sans-Serif" font-size="10.00">_getAlarmPriorityForPoint</text>
</a>
</g>
</g>
<!-- Node2 -->
<g id="Node000002" class="node">
<title>Node2</title>
<g id="a_Node000002"><a xlink:href="$class_c_s_v_config_manager.html#a42f3d6d3fe90a50339e53c550cbdcc4a" xlink:title="Convert alarm priority enum to string.">
<polygon fill="white" stroke="#666666" points="278,-141.88 169,-141.88 169,-111.38 278,-111.38 278,-141.88"/>
<text xml:space="preserve" text-anchor="start" x="177" y="-128.38" font-family="Helvetica,sans-Serif" font-size="10.00">CSVConfigManager::</text>
<text xml:space="preserve" text-anchor="middle" x="223.5" y="-117.12" font-family="Helvetica,sans-Serif" font-size="10.00">_getPriorityString</text>
</a>
</g>
</g>
<!-- Node1&#45;&gt;Node2 -->
<g id="edge1_Node000001_Node000002" class="edge">
<title>Node1&#45;&gt;Node2</title>
<g id="a_edge1_Node000001_Node000002"><a xlink:title=" ">
<path fill="none" stroke="#63b8ff" d="M104.65,-80.27C125.01,-88.28 150.03,-98.12 171.77,-106.67"/>
<polygon fill="#63b8ff" stroke="#63b8ff" points="170.47,-109.92 181.05,-110.32 173.03,-103.41 170.47,-109.92"/>
</a>
</g>
</g>
<!-- Node3 -->
<g id="Node000003" class="node">
<title>Node3</title>
<g id="a_Node000003"><a xlink:href="$class_alarm.html#ab12dd2af567dd87228d9404dcce5b0c0" xlink:title="Get the measurement point address.">
<polygon fill="white" stroke="#666666" points="283.25,-93.25 163.75,-93.25 163.75,-74 283.25,-74 283.25,-93.25"/>
<text xml:space="preserve" text-anchor="middle" x="223.5" y="-79.75" font-family="Helvetica,sans-Serif" font-size="10.00">Alarm::getPointAddress</text>
</a>
</g>
</g>
<!-- Node1&#45;&gt;Node3 -->
<g id="edge2_Node000001_Node000003" class="edge">
<title>Node1&#45;&gt;Node3</title>
<g id="a_edge2_Node000001_Node000003"><a xlink:title=" ">
<path fill="none" stroke="#63b8ff" d="M128.08,-72.24C136,-73.2 144.13,-74.18 152.15,-75.15"/>
<polygon fill="#63b8ff" stroke="#63b8ff" points="151.52,-78.59 161.87,-76.32 152.36,-71.64 151.52,-78.59"/>
</a>
</g>
</g>
<!-- Node4 -->
<g id="Node000004" class="node">
<title>Node4</title>
<g id="a_Node000004"><a xlink:href="$class_alarm.html#abe89e376d8cacb582717ad6a65526ee8" xlink:title="Get the alarm priority.">
<polygon fill="white" stroke="#666666" points="269.38,-56.25 177.62,-56.25 177.62,-37 269.38,-37 269.38,-56.25"/>
<text xml:space="preserve" text-anchor="middle" x="223.5" y="-42.75" font-family="Helvetica,sans-Serif" font-size="10.00">Alarm::getPriority</text>
</a>
</g>
</g>
<!-- Node1&#45;&gt;Node4 -->
<g id="edge3_Node000001_Node000004" class="edge">
<title>Node1&#45;&gt;Node4</title>
<g id="a_edge3_Node000001_Node000004"><a xlink:title=" ">
<path fill="none" stroke="#63b8ff" d="M128.08,-57.41C140.67,-55.97 153.81,-54.47 166.16,-53.06"/>
<polygon fill="#63b8ff" stroke="#63b8ff" points="166.18,-56.58 175.72,-51.97 165.39,-49.62 166.18,-56.58"/>
</a>
</g>
</g>
<!-- Node5 -->
<g id="Node000005" class="node">
<title>Node5</title>
<g id="a_Node000005"><a xlink:href="$class_alarm.html#acfac41af4628d83d3fdcc11c8fb55069" xlink:title="Get the alarm type.">
<polygon fill="white" stroke="#666666" points="264.5,-19.25 182.5,-19.25 182.5,0 264.5,0 264.5,-19.25"/>
<text xml:space="preserve" text-anchor="middle" x="223.5" y="-5.75" font-family="Helvetica,sans-Serif" font-size="10.00">Alarm::getType</text>
</a>
</g>
</g>
<!-- Node1&#45;&gt;Node5 -->
<g id="edge4_Node000001_Node000005" class="edge">
<title>Node1&#45;&gt;Node5</title>
<g id="a_edge4_Node000001_Node000005"><a xlink:title=" ">
<path fill="none" stroke="#63b8ff" d="M105.09,-48.95C122.96,-42.14 144.31,-34.23 163.75,-27.62 168.18,-26.12 172.82,-24.6 177.46,-23.12"/>
<polygon fill="#63b8ff" stroke="#63b8ff" points="178.28,-26.53 186.77,-20.2 176.18,-19.85 178.28,-26.53"/>
</a>
</g>
</g>
</g>
</svg>
