<?xml version="1.0" encoding="UTF-8" standalone="no"?>
<!DOCTYPE svg PUBLIC "-//W3C//DTD SVG 1.1//EN"
 "http://www.w3.org/Graphics/SVG/1.1/DTD/svg11.dtd">
<!-- Generated by graphviz version 13.1.0 (20250701.0955)
 -->
<!-- Title: Alarm::_getPriorityString Pages: 1 -->
<svg width="464pt" height="125pt"
 viewBox="0.00 0.00 464.00 125.00" xmlns="http://www.w3.org/2000/svg" xmlns:xlink="http://www.w3.org/1999/xlink">
<g id="graph0" class="graph" transform="scale(1 1) rotate(0) translate(4 120.5)">
<title>Alarm::_getPriorityString</title>
<!-- Node1 -->
<g id="Node000001" class="node">
<title>Node1</title>
<g id="a_Node000001"><a xlink:title="Get priority as string (internal version)">
<polygon fill="#999999" stroke="#666666" points="456,-56.25 333.5,-56.25 333.5,-37 456,-37 456,-56.25"/>
<text xml:space="preserve" text-anchor="middle" x="394.75" y="-42.75" font-family="Helvetica,sans-Serif" font-size="10.00">Alarm::_getPriorityString</text>
</a>
</g>
</g>
<!-- Node2 -->
<g id="Node000002" class="node">
<title>Node2</title>
<g id="a_Node000002"><a xlink:href="class_alarm.html#aa14f5a764303b269f04573867e2e4fc8" target="_top" xlink:title="Acknowledge the alarm.">
<polygon fill="white" stroke="#666666" points="290.75,-97.25 186.25,-97.25 186.25,-78 290.75,-78 290.75,-97.25"/>
<text xml:space="preserve" text-anchor="middle" x="238.5" y="-83.75" font-family="Helvetica,sans-Serif" font-size="10.00">Alarm::acknowledge</text>
</a>
</g>
</g>
<!-- Node1&#45;&gt;Node2 -->
<g id="edge1_Node000001_Node000002" class="edge">
<title>Node1&#45;&gt;Node2</title>
<g id="a_edge1_Node000001_Node000002"><a xlink:title=" ">
<path fill="none" stroke="#63b8ff" d="M344.96,-59.59C323.12,-65.4 297.76,-72.14 277.38,-77.56"/>
<polygon fill="#63b8ff" stroke="#63b8ff" points="345.79,-62.99 354.55,-57.04 343.99,-56.23 345.79,-62.99"/>
</a>
</g>
</g>
<!-- Node4 -->
<g id="Node000004" class="node">
<title>Node4</title>
<g id="a_Node000004"><a xlink:href="class_alarm.html#a5095c54c304a52ebbaca5a2ea74059cd" target="_top" xlink:title="Set the alarm priority.">
<polygon fill="white" stroke="#666666" points="284.38,-56.25 192.62,-56.25 192.62,-37 284.38,-37 284.38,-56.25"/>
<text xml:space="preserve" text-anchor="middle" x="238.5" y="-42.75" font-family="Helvetica,sans-Serif" font-size="10.00">Alarm::setPriority</text>
</a>
</g>
</g>
<!-- Node1&#45;&gt;Node4 -->
<g id="edge3_Node000001_Node000004" class="edge">
<title>Node1&#45;&gt;Node4</title>
<g id="a_edge3_Node000001_Node000004"><a xlink:title=" ">
<path fill="none" stroke="#63b8ff" d="M322.09,-46.62C309.32,-46.62 296.35,-46.62 284.58,-46.62"/>
<polygon fill="#63b8ff" stroke="#63b8ff" points="321.72,-50.13 331.72,-46.63 321.72,-43.13 321.72,-50.13"/>
</a>
</g>
</g>
<!-- Node6 -->
<g id="Node000006" class="node">
<title>Node6</title>
<g id="a_Node000006"><a xlink:href="class_alarm.html#abc87fe39e6a9b5beb9f09df780f67621" target="_top" xlink:title="Update alarm condition based on current measurement.">
<polygon fill="white" stroke="#666666" points="297.5,-19.25 179.5,-19.25 179.5,0 297.5,0 297.5,-19.25"/>
<text xml:space="preserve" text-anchor="middle" x="238.5" y="-5.75" font-family="Helvetica,sans-Serif" font-size="10.00">Alarm::updateCondition</text>
</a>
</g>
</g>
<!-- Node1&#45;&gt;Node6 -->
<g id="edge5_Node000001_Node000006" class="edge">
<title>Node1&#45;&gt;Node6</title>
<g id="a_edge5_Node000001_Node000006"><a xlink:title=" ">
<path fill="none" stroke="#63b8ff" d="M340.55,-33.86C321.27,-29.24 299.79,-24.09 281.6,-19.72"/>
<polygon fill="#63b8ff" stroke="#63b8ff" points="339.59,-37.23 350.13,-36.16 341.22,-30.43 339.59,-37.23"/>
</a>
</g>
</g>
<!-- Node3 -->
<g id="Node000003" class="node">
<title>Node3</title>
<g id="a_Node000003"><a xlink:href="class_temperature_controller.html#a5f1c8fce1e5efb637bfe86bdb609a3b7" target="_top" xlink:title=" ">
<polygon fill="white" stroke="#666666" points="143.5,-116.5 0,-116.5 0,-74.75 143.5,-74.75 143.5,-116.5"/>
<text xml:space="preserve" text-anchor="start" x="8" y="-103" font-family="Helvetica,sans-Serif" font-size="10.00">TemperatureController</text>
<text xml:space="preserve" text-anchor="start" x="8" y="-91.75" font-family="Helvetica,sans-Serif" font-size="10.00">::acknowledgeHighestPriority</text>
<text xml:space="preserve" text-anchor="middle" x="71.75" y="-80.5" font-family="Helvetica,sans-Serif" font-size="10.00">Alarm</text>
</a>
</g>
</g>
<!-- Node2&#45;&gt;Node3 -->
<g id="edge2_Node000002_Node000003" class="edge">
<title>Node2&#45;&gt;Node3</title>
<g id="a_edge2_Node000002_Node000003"><a xlink:title=" ">
<path fill="none" stroke="#63b8ff" d="M174.34,-90.69C164.37,-91.18 154,-91.68 143.86,-92.17"/>
<polygon fill="#63b8ff" stroke="#63b8ff" points="174.49,-94.19 184.31,-90.21 174.15,-87.2 174.49,-94.19"/>
</a>
</g>
</g>
<!-- Node5 -->
<g id="Node000005" class="node">
<title>Node5</title>
<g id="a_Node000005"><a xlink:href="class_temperature_controller.html#a93bd31914a054a4e1df9be7e3966b82e" target="_top" xlink:title=" ">
<polygon fill="white" stroke="#666666" points="127.75,-56.88 15.75,-56.88 15.75,-26.38 127.75,-26.38 127.75,-56.88"/>
<text xml:space="preserve" text-anchor="start" x="23.75" y="-43.38" font-family="Helvetica,sans-Serif" font-size="10.00">TemperatureController</text>
<text xml:space="preserve" text-anchor="middle" x="71.75" y="-32.12" font-family="Helvetica,sans-Serif" font-size="10.00">::updateAlarm</text>
</a>
</g>
</g>
<!-- Node4&#45;&gt;Node5 -->
<g id="edge4_Node000004_Node000005" class="edge">
<title>Node4&#45;&gt;Node5</title>
<g id="a_edge4_Node000004_Node000005"><a xlink:title=" ">
<path fill="none" stroke="#63b8ff" d="M181.43,-44.92C164.17,-44.4 145.2,-43.82 128,-43.3"/>
<polygon fill="#63b8ff" stroke="#63b8ff" points="180.87,-48.41 190.97,-45.21 181.08,-41.41 180.87,-48.41"/>
</a>
</g>
</g>
</g>
</svg>
