<?xml version="1.0" encoding="UTF-8" standalone="no"?>
<!DOCTYPE svg PUBLIC "-//W3C//DTD SVG 1.1//EN"
 "http://www.w3.org/Graphics/SVG/1.1/DTD/svg11.dtd">
<!-- Generated by graphviz version 13.1.0 (20250701.0955)
 -->
<!-- Title: TimeManager::syncWithNTP Pages: 1 -->
<svg width="737pt" height="119pt"
 viewBox="0.00 0.00 737.00 119.00" xmlns="http://www.w3.org/2000/svg" xmlns:xlink="http://www.w3.org/1999/xlink">
<g id="graph0" class="graph" transform="scale(1 1) rotate(0) translate(4 115.25)">
<title>TimeManager::syncWithNTP</title>
<!-- Node1 -->
<g id="Node000001" class="node">
<title>Node1</title>
<g id="a_Node000001"><a xlink:title=" ">
<polygon fill="#999999" stroke="#666666" points="142.75,-74.25 0,-74.25 0,-55 142.75,-55 142.75,-74.25"/>
<text xml:space="preserve" text-anchor="middle" x="71.38" y="-60.75" font-family="Helvetica,sans-Serif" font-size="10.00">TimeManager::syncWithNTP</text>
</a>
</g>
</g>
<!-- Node2 -->
<g id="Node000002" class="node">
<title>Node2</title>
<g id="a_Node000002"><a xlink:href="class_time_manager.html#accdbd3c07d63d6ed1f96fddbc4bf2e00" target="_top" xlink:title=" ">
<polygon fill="white" stroke="#666666" points="338,-74.25 178.75,-74.25 178.75,-55 338,-55 338,-74.25"/>
<text xml:space="preserve" text-anchor="middle" x="258.38" y="-60.75" font-family="Helvetica,sans-Serif" font-size="10.00">TimeManager::setTimeFromNTP</text>
</a>
</g>
</g>
<!-- Node1&#45;&gt;Node2 -->
<g id="edge1_Node000001_Node000002" class="edge">
<title>Node1&#45;&gt;Node2</title>
<g id="a_edge1_Node000001_Node000002"><a xlink:title=" ">
<path fill="none" stroke="#63b8ff" d="M143.11,-64.62C150.94,-64.62 159,-64.62 167.03,-64.62"/>
<polygon fill="#63b8ff" stroke="#63b8ff" points="166.84,-68.13 176.84,-64.63 166.84,-61.13 166.84,-68.13"/>
</a>
</g>
</g>
<!-- Node3 -->
<g id="Node000003" class="node">
<title>Node3</title>
<g id="a_Node000003"><a xlink:href="class_time_manager.html#a2160202e65568b360b4bdfbe7ff7ff96" target="_top" xlink:title=" ">
<polygon fill="white" stroke="#666666" points="525.75,-111.25 383.75,-111.25 383.75,-92 525.75,-92 525.75,-111.25"/>
<text xml:space="preserve" text-anchor="middle" x="454.75" y="-97.75" font-family="Helvetica,sans-Serif" font-size="10.00">TimeManager::_initializeNTP</text>
</a>
</g>
</g>
<!-- Node2&#45;&gt;Node3 -->
<g id="edge2_Node000002_Node000003" class="edge">
<title>Node2&#45;&gt;Node3</title>
<g id="a_edge2_Node000002_Node000003"><a xlink:title=" ">
<path fill="none" stroke="#63b8ff" d="M312.49,-74.74C336.27,-79.26 364.52,-84.64 389.49,-89.39"/>
<polygon fill="#63b8ff" stroke="#63b8ff" points="388.74,-92.81 399.21,-91.24 390.04,-85.94 388.74,-92.81"/>
</a>
</g>
</g>
<!-- Node4 -->
<g id="Node000004" class="node">
<title>Node4</title>
<g id="a_Node000004"><a xlink:href="class_time_manager.html#a57cb32331258b5e8692ef477657dd318" target="_top" xlink:title=" ">
<polygon fill="white" stroke="#666666" points="535.5,-74.25 374,-74.25 374,-55 535.5,-55 535.5,-74.25"/>
<text xml:space="preserve" text-anchor="middle" x="454.75" y="-60.75" font-family="Helvetica,sans-Serif" font-size="10.00">TimeManager::_isWiFiConnected</text>
</a>
</g>
</g>
<!-- Node2&#45;&gt;Node4 -->
<g id="edge3_Node000002_Node000004" class="edge">
<title>Node2&#45;&gt;Node4</title>
<g id="a_edge3_Node000002_Node000004"><a xlink:title=" ">
<path fill="none" stroke="#63b8ff" d="M338.43,-64.62C346.36,-64.62 354.46,-64.62 362.5,-64.62"/>
<polygon fill="#63b8ff" stroke="#63b8ff" points="362.3,-68.13 372.3,-64.63 362.3,-61.13 362.3,-68.13"/>
</a>
</g>
</g>
<!-- Node5 -->
<g id="Node000005" class="node">
<title>Node5</title>
<g id="a_Node000005"><a xlink:href="class_time_manager.html#a06dd5ab29990377c81538d99ba7ccf31" target="_top" xlink:title=" ">
<polygon fill="white" stroke="#666666" points="535.12,-37.25 374.38,-37.25 374.38,-18 535.12,-18 535.12,-37.25"/>
<text xml:space="preserve" text-anchor="middle" x="454.75" y="-23.75" font-family="Helvetica,sans-Serif" font-size="10.00">TimeManager::getFormattedTime</text>
</a>
</g>
</g>
<!-- Node2&#45;&gt;Node5 -->
<g id="edge4_Node000002_Node000005" class="edge">
<title>Node2&#45;&gt;Node5</title>
<g id="a_edge4_Node000002_Node000005"><a xlink:title=" ">
<path fill="none" stroke="#63b8ff" d="M312.49,-54.51C336.27,-49.99 364.52,-44.61 389.49,-39.86"/>
<polygon fill="#63b8ff" stroke="#63b8ff" points="390.04,-43.31 399.21,-38.01 388.74,-36.44 390.04,-43.31"/>
</a>
</g>
</g>
<!-- Node6 -->
<g id="Node000006" class="node">
<title>Node6</title>
<g id="a_Node000006"><a xlink:href="class_time_manager.html#abcaf17b6da72a3a2f2566d940ce5ce8d" target="_top" xlink:title=" ">
<polygon fill="white" stroke="#666666" points="728.5,-56.25 571.5,-56.25 571.5,-37 728.5,-37 728.5,-56.25"/>
<text xml:space="preserve" text-anchor="middle" x="650" y="-42.75" font-family="Helvetica,sans-Serif" font-size="10.00">TimeManager::_formatDateTime</text>
</a>
</g>
</g>
<!-- Node5&#45;&gt;Node6 -->
<g id="edge5_Node000005_Node000006" class="edge">
<title>Node5&#45;&gt;Node6</title>
<g id="a_edge5_Node000005_Node000006"><a xlink:title=" ">
<path fill="none" stroke="#63b8ff" d="M535.47,-35.46C543.45,-36.25 551.6,-37.05 559.67,-37.84"/>
<polygon fill="#63b8ff" stroke="#63b8ff" points="559.22,-41.31 569.52,-38.81 559.91,-34.35 559.22,-41.31"/>
</a>
</g>
</g>
<!-- Node7 -->
<g id="Node000007" class="node">
<title>Node7</title>
<g id="a_Node000007"><a xlink:href="class_time_manager.html#a2667b0243b7db24b3055c2b00e2837ba" target="_top" xlink:title=" ">
<polygon fill="white" stroke="#666666" points="724.38,-19.25 575.62,-19.25 575.62,0 724.38,0 724.38,-19.25"/>
<text xml:space="preserve" text-anchor="middle" x="650" y="-5.75" font-family="Helvetica,sans-Serif" font-size="10.00">TimeManager::getCurrentTime</text>
</a>
</g>
</g>
<!-- Node5&#45;&gt;Node7 -->
<g id="edge6_Node000005_Node000007" class="edge">
<title>Node5&#45;&gt;Node7</title>
<g id="a_edge6_Node000005_Node000007"><a xlink:title=" ">
<path fill="none" stroke="#63b8ff" d="M535.47,-20.2C544.86,-19.33 554.46,-18.43 563.92,-17.55"/>
<polygon fill="#63b8ff" stroke="#63b8ff" points="564.22,-21.04 573.85,-16.62 563.57,-14.07 564.22,-21.04"/>
</a>
</g>
</g>
</g>
</svg>
