<?xml version="1.0" encoding="UTF-8" standalone="no"?>
<!DOCTYPE svg PUBLIC "-//W3C//DTD SVG 1.1//EN"
 "http://www.w3.org/Graphics/SVG/1.1/DTD/svg11.dtd">
<!-- Generated by graphviz version 13.1.0 (20250701.0955)
 -->
<!-- Title: LoggerManager::error Pages: 1 -->
<svg width="632pt" height="321pt"
 viewBox="0.00 0.00 632.00 321.00" xmlns="http://www.w3.org/2000/svg" xmlns:xlink="http://www.w3.org/1999/xlink">
<g id="graph0" class="graph" transform="scale(1 1) rotate(0) translate(4 316.5)">
<title>LoggerManager::error</title>
<!-- Node1 -->
<g id="Node000001" class="node">
<title>Node1</title>
<g id="a_Node000001"><a xlink:title="Log error message (static convenience method)">
<polygon fill="#999999" stroke="#666666" points="624.25,-159.88 516,-159.88 516,-140.62 624.25,-140.62 624.25,-159.88"/>
<text xml:space="preserve" text-anchor="middle" x="570.12" y="-146.38" font-family="Helvetica,sans-Serif" font-size="10.00">LoggerManager::error</text>
</a>
</g>
</g>
<!-- Node2 -->
<g id="Node000002" class="node">
<title>Node2</title>
<g id="a_Node000002"><a xlink:href="class_config_manager.html#a9b7af07b85bf9cc3ac05603db6e89fd2" target="_top" xlink:title="Setup CSV import/export API endpoints.">
<polygon fill="white" stroke="#666666" points="463.88,-312.5 332.38,-312.5 332.38,-282 463.88,-282 463.88,-312.5"/>
<text xml:space="preserve" text-anchor="start" x="340.38" y="-299" font-family="Helvetica,sans-Serif" font-size="10.00">ConfigManager::csvImport</text>
<text xml:space="preserve" text-anchor="middle" x="398.12" y="-287.75" font-family="Helvetica,sans-Serif" font-size="10.00">ExportAPI</text>
</a>
</g>
</g>
<!-- Node1&#45;&gt;Node2 -->
<g id="edge1_Node000001_Node000002" class="edge">
<title>Node1&#45;&gt;Node2</title>
<g id="a_edge1_Node000001_Node000002"><a xlink:title=" ">
<path fill="none" stroke="#63b8ff" d="M559.64,-170.34C545.85,-197.42 517.74,-245.32 480,-272.25 474.98,-275.84 469.42,-278.92 463.65,-281.56"/>
<polygon fill="#63b8ff" stroke="#63b8ff" points="562.72,-172.01 563.99,-161.49 556.44,-168.92 562.72,-172.01"/>
</a>
</g>
</g>
<!-- Node4 -->
<g id="Node000004" class="node">
<title>Node4</title>
<g id="a_Node000004"><a xlink:href="class_temp_modbus_server.html#a7d4a0ced2cfd174a4697a85492e12a58" target="_top" xlink:title="Worker function for Read Holding Registers (FC03)">
<polygon fill="white" stroke="#666666" points="478.5,-165.5 317.75,-165.5 317.75,-135 478.5,-135 478.5,-165.5"/>
<text xml:space="preserve" text-anchor="start" x="325.75" y="-152" font-family="Helvetica,sans-Serif" font-size="10.00">TempModbusServer::readHolding</text>
<text xml:space="preserve" text-anchor="middle" x="398.12" y="-140.75" font-family="Helvetica,sans-Serif" font-size="10.00">RegistersWorker</text>
</a>
</g>
</g>
<!-- Node1&#45;&gt;Node4 -->
<g id="edge3_Node000001_Node000004" class="edge">
<title>Node1&#45;&gt;Node4</title>
<g id="a_edge3_Node000001_Node000004"><a xlink:title=" ">
<path fill="none" stroke="#63b8ff" d="M504.51,-150.25C496.08,-150.25 487.36,-150.25 478.72,-150.25"/>
<polygon fill="#63b8ff" stroke="#63b8ff" points="504.29,-153.75 514.29,-150.25 504.29,-146.75 504.29,-153.75"/>
</a>
</g>
</g>
<!-- Node6 -->
<g id="Node000006" class="node">
<title>Node6</title>
<g id="a_Node000006"><a xlink:href="class_temperature_controller.html#a261c9b96540ec6680dfffd3a26e4ca00" target="_top" xlink:title="Unbind sensor from measurement point.">
<polygon fill="white" stroke="#666666" points="461.25,-214.5 335,-214.5 335,-184 461.25,-184 461.25,-214.5"/>
<text xml:space="preserve" text-anchor="start" x="343" y="-201" font-family="Helvetica,sans-Serif" font-size="10.00">TemperatureController</text>
<text xml:space="preserve" text-anchor="middle" x="398.12" y="-189.75" font-family="Helvetica,sans-Serif" font-size="10.00">::unbindSensorFromPoint</text>
</a>
</g>
</g>
<!-- Node1&#45;&gt;Node6 -->
<g id="edge5_Node000001_Node000006" class="edge">
<title>Node1&#45;&gt;Node6</title>
<g id="a_edge5_Node000001_Node000006"><a xlink:title=" ">
<path fill="none" stroke="#63b8ff" d="M523.5,-163.4C501.99,-169.6 476.17,-177.04 453.64,-183.54"/>
<polygon fill="#63b8ff" stroke="#63b8ff" points="524.22,-166.84 532.86,-160.7 522.28,-160.11 524.22,-166.84"/>
</a>
</g>
</g>
<!-- Node7 -->
<g id="Node000007" class="node">
<title>Node7</title>
<g id="a_Node000007"><a xlink:href="class_temperature_controller.html#a23dca296a268baa9b8234c8bf9cf0c3e" target="_top" xlink:title="Update temperature readings for all sensors.">
<polygon fill="white" stroke="#666666" points="454.12,-263.5 342.12,-263.5 342.12,-233 454.12,-233 454.12,-263.5"/>
<text xml:space="preserve" text-anchor="start" x="350.12" y="-250" font-family="Helvetica,sans-Serif" font-size="10.00">TemperatureController</text>
<text xml:space="preserve" text-anchor="middle" x="398.12" y="-238.75" font-family="Helvetica,sans-Serif" font-size="10.00">::updateAllSensors</text>
</a>
</g>
</g>
<!-- Node1&#45;&gt;Node7 -->
<g id="edge6_Node000001_Node000007" class="edge">
<title>Node1&#45;&gt;Node7</title>
<g id="a_edge6_Node000001_Node000007"><a xlink:title=" ">
<path fill="none" stroke="#63b8ff" d="M551.76,-167.99C534.81,-184.39 507.61,-208.42 480,-223.25 471.97,-227.56 463.09,-231.25 454.24,-234.37"/>
<polygon fill="#63b8ff" stroke="#63b8ff" points="553.91,-170.78 558.56,-161.26 548.99,-165.8 553.91,-170.78"/>
</a>
</g>
</g>
<!-- Node10 -->
<g id="Node000010" class="node">
<title>Node10</title>
<g id="a_Node000010"><a xlink:href="class_alarm.html#abc87fe39e6a9b5beb9f09df780f67621" target="_top" xlink:title="Update alarm condition based on current measurement.">
<polygon fill="white" stroke="#666666" points="457.12,-116.88 339.12,-116.88 339.12,-97.62 457.12,-97.62 457.12,-116.88"/>
<text xml:space="preserve" text-anchor="middle" x="398.12" y="-103.38" font-family="Helvetica,sans-Serif" font-size="10.00">Alarm::updateCondition</text>
</a>
</g>
</g>
<!-- Node1&#45;&gt;Node10 -->
<g id="edge10_Node000001_Node000010" class="edge">
<title>Node1&#45;&gt;Node10</title>
<g id="a_edge10_Node000001_Node000010"><a xlink:title=" ">
<path fill="none" stroke="#63b8ff" d="M521.79,-137.2C508.31,-133.56 493.6,-129.68 480,-126.25 468.11,-123.25 455.2,-120.15 443.26,-117.35"/>
<polygon fill="#63b8ff" stroke="#63b8ff" points="520.74,-140.54 531.31,-139.78 522.57,-133.78 520.74,-140.54"/>
</a>
</g>
</g>
<!-- Node11 -->
<g id="Node000011" class="node">
<title>Node11</title>
<g id="a_Node000011"><a xlink:href="class_temp_modbus_server.html#a88b7288d622b52f9e28b7c6075b75fe0" target="_top" xlink:title="Worker function for Write Single Register (FC06)">
<polygon fill="white" stroke="#666666" points="479.62,-30.5 316.62,-30.5 316.62,0 479.62,0 479.62,-30.5"/>
<text xml:space="preserve" text-anchor="start" x="324.62" y="-17" font-family="Helvetica,sans-Serif" font-size="10.00">TempModbusServer::writeHolding</text>
<text xml:space="preserve" text-anchor="middle" x="398.12" y="-5.75" font-family="Helvetica,sans-Serif" font-size="10.00">RegisterWorker</text>
</a>
</g>
</g>
<!-- Node1&#45;&gt;Node11 -->
<g id="edge11_Node000001_Node000011" class="edge">
<title>Node1&#45;&gt;Node11</title>
<g id="a_edge11_Node000001_Node000011"><a xlink:title=" ">
<path fill="none" stroke="#63b8ff" d="M558.29,-130.72C543.65,-106.1 515.29,-64.13 480,-40.25 474.64,-36.63 468.74,-33.51 462.64,-30.83"/>
<polygon fill="#63b8ff" stroke="#63b8ff" points="555.08,-132.17 563.11,-139.08 561.15,-128.67 555.08,-132.17"/>
</a>
</g>
</g>
<!-- Node12 -->
<g id="Node000012" class="node">
<title>Node12</title>
<g id="a_Node000012"><a xlink:href="class_temp_modbus_server.html#a52236f3c77c42d126dcaee7515fa37d3" target="_top" xlink:title="Worker function for Write Multiple Registers (FC16)">
<polygon fill="white" stroke="#666666" points="480,-79.5 316.25,-79.5 316.25,-49 480,-49 480,-79.5"/>
<text xml:space="preserve" text-anchor="start" x="324.25" y="-66" font-family="Helvetica,sans-Serif" font-size="10.00">TempModbusServer::writeMultiple</text>
<text xml:space="preserve" text-anchor="middle" x="398.12" y="-54.75" font-family="Helvetica,sans-Serif" font-size="10.00">RegistersWorker</text>
</a>
</g>
</g>
<!-- Node1&#45;&gt;Node12 -->
<g id="edge13_Node000001_Node000012" class="edge">
<title>Node1&#45;&gt;Node12</title>
<g id="a_edge13_Node000001_Node000012"><a xlink:title=" ">
<path fill="none" stroke="#63b8ff" d="M548.82,-133.28C531.47,-119.51 505.37,-100.45 480,-88.25 473.53,-85.14 466.58,-82.34 459.56,-79.85"/>
<polygon fill="#63b8ff" stroke="#63b8ff" points="546.34,-135.78 556.32,-139.36 550.75,-130.34 546.34,-135.78"/>
</a>
</g>
</g>
<!-- Node3 -->
<g id="Node000003" class="node">
<title>Node3</title>
<g id="a_Node000003"><a xlink:href="class_config_manager.html#a0497343220fc493f5cf9574922508908" target="_top" xlink:title="Initialize the configuration system.">
<polygon fill="white" stroke="#666666" points="269.75,-306.88 158.5,-306.88 158.5,-287.62 269.75,-287.62 269.75,-306.88"/>
<text xml:space="preserve" text-anchor="middle" x="214.12" y="-293.38" font-family="Helvetica,sans-Serif" font-size="10.00">ConfigManager::begin</text>
</a>
</g>
</g>
<!-- Node2&#45;&gt;Node3 -->
<g id="edge2_Node000002_Node000003" class="edge">
<title>Node2&#45;&gt;Node3</title>
<g id="a_edge2_Node000002_Node000003"><a xlink:title=" ">
<path fill="none" stroke="#63b8ff" d="M320.84,-297.25C303.76,-297.25 285.96,-297.25 269.96,-297.25"/>
<polygon fill="#63b8ff" stroke="#63b8ff" points="320.42,-300.75 330.42,-297.25 320.42,-293.75 320.42,-300.75"/>
</a>
</g>
</g>
<!-- Node5 -->
<g id="Node000005" class="node">
<title>Node5</title>
<g id="a_Node000005"><a xlink:href="class_temp_modbus_server.html#aac671b84770f4139745d08d05b5c1d92" target="_top" xlink:title="Initialize and start Modbus server.">
<polygon fill="white" stroke="#666666" points="280.25,-73.88 148,-73.88 148,-54.62 280.25,-54.62 280.25,-73.88"/>
<text xml:space="preserve" text-anchor="middle" x="214.12" y="-60.38" font-family="Helvetica,sans-Serif" font-size="10.00">TempModbusServer::begin</text>
</a>
</g>
</g>
<!-- Node4&#45;&gt;Node5 -->
<g id="edge4_Node000004_Node000005" class="edge">
<title>Node4&#45;&gt;Node5</title>
<g id="a_edge4_Node000004_Node000005"><a xlink:title=" ">
<path fill="none" stroke="#63b8ff" d="M327.13,-130.74C323.42,-129.32 319.77,-127.82 316.25,-126.25 283.14,-111.5 247.76,-87.72 228.88,-74.31"/>
<polygon fill="#63b8ff" stroke="#63b8ff" points="325.71,-133.95 336.3,-134.06 328.09,-127.37 325.71,-133.95"/>
</a>
</g>
</g>
<!-- Node8 -->
<g id="Node000008" class="node">
<title>Node8</title>
<g id="a_Node000008"><a xlink:href="class_temperature_controller.html#aca5deddbf703001373424d876f87b5f2" target="_top" xlink:title="Main update function &#45; must be called in loop()">
<polygon fill="white" stroke="#666666" points="270.12,-263.5 158.12,-263.5 158.12,-233 270.12,-233 270.12,-263.5"/>
<text xml:space="preserve" text-anchor="start" x="166.12" y="-250" font-family="Helvetica,sans-Serif" font-size="10.00">TemperatureController</text>
<text xml:space="preserve" text-anchor="middle" x="214.12" y="-238.75" font-family="Helvetica,sans-Serif" font-size="10.00">::update</text>
</a>
</g>
</g>
<!-- Node7&#45;&gt;Node8 -->
<g id="edge7_Node000007_Node000008" class="edge">
<title>Node7&#45;&gt;Node8</title>
<g id="a_edge7_Node000007_Node000008"><a xlink:title=" ">
<path fill="none" stroke="#63b8ff" d="M330.6,-248.25C310.8,-248.25 289.34,-248.25 270.35,-248.25"/>
<polygon fill="#63b8ff" stroke="#63b8ff" points="330.51,-251.75 340.51,-248.25 330.51,-244.75 330.51,-251.75"/>
</a>
</g>
</g>
<!-- Node9 -->
<g id="Node000009" class="node">
<title>Node9</title>
<g id="a_Node000009"><a xlink:href="class_temperature_controller.html#a11948a87fe7df37543b86ecdd488b341" target="_top" xlink:title="Read temperature from all configured measurement points.">
<polygon fill="white" stroke="#666666" points="112,-263.5 0,-263.5 0,-233 112,-233 112,-263.5"/>
<text xml:space="preserve" text-anchor="start" x="8" y="-250" font-family="Helvetica,sans-Serif" font-size="10.00">TemperatureController</text>
<text xml:space="preserve" text-anchor="middle" x="56" y="-238.75" font-family="Helvetica,sans-Serif" font-size="10.00">::readAllPoints</text>
</a>
</g>
</g>
<!-- Node8&#45;&gt;Node9 -->
<g id="edge8_Node000008_Node000009" class="edge">
<title>Node8&#45;&gt;Node9</title>
<g id="a_edge8_Node000008_Node000009"><a xlink:title=" ">
<path fill="none" stroke="#63b8ff" d="M146.42,-241.56C135.04,-241.44 123.34,-241.5 112.3,-241.76"/>
<polygon fill="#63b8ff" stroke="#63b8ff" points="146.07,-245.06 156.13,-241.73 146.19,-238.06 146.07,-245.06"/>
</a>
</g>
</g>
<!-- Node9&#45;&gt;Node8 -->
<g id="edge9_Node000009_Node000008" class="edge">
<title>Node9&#45;&gt;Node8</title>
<g id="a_edge9_Node000009_Node000008"><a xlink:title=" ">
<path fill="none" stroke="#63b8ff" d="M123.53,-254.93C134.9,-255.06 146.6,-255 157.64,-254.74"/>
<polygon fill="#63b8ff" stroke="#63b8ff" points="123.88,-251.44 113.82,-254.76 123.76,-258.44 123.88,-251.44"/>
</a>
</g>
</g>
<!-- Node11&#45;&gt;Node5 -->
<g id="edge12_Node000011_Node000005" class="edge">
<title>Node11&#45;&gt;Node5</title>
<g id="a_edge12_Node000011_Node000005"><a xlink:title=" ">
<path fill="none" stroke="#63b8ff" d="M327.98,-33.87C302.35,-40.77 274.27,-48.33 252.53,-54.18"/>
<polygon fill="#63b8ff" stroke="#63b8ff" points="328.58,-37.33 337.33,-31.35 326.76,-30.57 328.58,-37.33"/>
</a>
</g>
</g>
<!-- Node12&#45;&gt;Node5 -->
<g id="edge14_Node000012_Node000005" class="edge">
<title>Node12&#45;&gt;Node5</title>
<g id="a_edge14_Node000012_Node000005"><a xlink:title=" ">
<path fill="none" stroke="#63b8ff" d="M304.54,-64.25C296.45,-64.25 288.37,-64.25 280.57,-64.25"/>
<polygon fill="#63b8ff" stroke="#63b8ff" points="304.46,-67.75 314.46,-64.25 304.46,-60.75 304.46,-67.75"/>
</a>
</g>
</g>
</g>
</svg>
