<?xml version="1.0" encoding="UTF-8" standalone="no"?>
<!DOCTYPE svg PUBLIC "-//W3C//DTD SVG 1.1//EN"
 "http://www.w3.org/Graphics/SVG/1.1/DTD/svg11.dtd">
<!-- Generated by graphviz version 13.1.0 (20250701.0955)
 -->
<!-- Title: Alarm::_updateMessage Pages: 1 -->
<svg width="450pt" height="238pt"
 viewBox="0.00 0.00 450.00 238.00" xmlns="http://www.w3.org/2000/svg" xmlns:xlink="http://www.w3.org/1999/xlink">
<g id="graph0" class="graph" transform="scale(1 1) rotate(0) translate(4 233.5)">
<title>Alarm::_updateMessage</title>
<!-- Node1 -->
<g id="Node000001" class="node">
<title>Node1</title>
<g id="a_Node000001"><a xlink:title="Update the alarm display message.">
<polygon fill="#999999" stroke="#666666" points="441.75,-113.25 320,-113.25 320,-94 441.75,-94 441.75,-113.25"/>
<text xml:space="preserve" text-anchor="middle" x="380.88" y="-99.75" font-family="Helvetica,sans-Serif" font-size="10.00">Alarm::_updateMessage</text>
</a>
</g>
</g>
<!-- Node2 -->
<g id="Node000002" class="node">
<title>Node2</title>
<g id="a_Node000002"><a xlink:href="$class_alarm.html#aa14f5a764303b269f04573867e2e4fc8" xlink:title="Acknowledge the alarm.">
<polygon fill="white" stroke="#666666" points="284,-212.25 179.5,-212.25 179.5,-193 284,-193 284,-212.25"/>
<text xml:space="preserve" text-anchor="middle" x="231.75" y="-198.75" font-family="Helvetica,sans-Serif" font-size="10.00">Alarm::acknowledge</text>
</a>
</g>
</g>
<!-- Node1&#45;&gt;Node2 -->
<g id="edge1_Node000001_Node000002" class="edge">
<title>Node1&#45;&gt;Node2</title>
<g id="a_edge1_Node000001_Node000002"><a xlink:title=" ">
<path fill="none" stroke="#63b8ff" d="M360.47,-120.95C341.76,-137.12 312.19,-161.31 284,-178.62 275.54,-183.82 265.78,-188.65 257.06,-192.6"/>
<polygon fill="#63b8ff" stroke="#63b8ff" points="362.61,-123.72 367.83,-114.5 358,-118.46 362.61,-123.72"/>
</a>
</g>
</g>
<!-- Node4 -->
<g id="Node000004" class="node">
<title>Node4</title>
<g id="a_Node000004"><a xlink:href="$class_alarm.html#abf159b68e429d66de4ab2d10c2ccd44b" xlink:title="Constructor for creating a new alarm.">
<polygon fill="white" stroke="#666666" points="268.25,-169.25 195.25,-169.25 195.25,-150 268.25,-150 268.25,-169.25"/>
<text xml:space="preserve" text-anchor="middle" x="231.75" y="-155.75" font-family="Helvetica,sans-Serif" font-size="10.00">Alarm::Alarm</text>
</a>
</g>
</g>
<!-- Node1&#45;&gt;Node4 -->
<g id="edge3_Node000001_Node000004" class="edge">
<title>Node1&#45;&gt;Node4</title>
<g id="a_edge3_Node000001_Node000004"><a xlink:title=" ">
<path fill="none" stroke="#63b8ff" d="M344.53,-118.02C326.48,-125.27 304.14,-134.1 284,-141.62 276.93,-144.27 269.28,-147.01 262.09,-149.54"/>
<polygon fill="#63b8ff" stroke="#63b8ff" points="345.78,-121.29 353.74,-114.3 343.16,-114.8 345.78,-121.29"/>
</a>
</g>
</g>
<!-- Node7 -->
<g id="Node000007" class="node">
<title>Node7</title>
<g id="a_Node000007"><a xlink:href="$class_alarm.html#adc66e3d22e173b00c59b040369030a17" xlink:title="Clear the alarm condition.">
<polygon fill="white" stroke="#666666" points="266,-132.25 197.5,-132.25 197.5,-113 266,-113 266,-132.25"/>
<text xml:space="preserve" text-anchor="middle" x="231.75" y="-118.75" font-family="Helvetica,sans-Serif" font-size="10.00">Alarm::clear</text>
</a>
</g>
</g>
<!-- Node1&#45;&gt;Node7 -->
<g id="edge6_Node000001_Node000007" class="edge">
<title>Node1&#45;&gt;Node7</title>
<g id="a_edge6_Node000001_Node000007"><a xlink:title=" ">
<path fill="none" stroke="#63b8ff" d="M308.39,-112.86C293.63,-114.76 278.76,-116.68 266.16,-118.31"/>
<polygon fill="#63b8ff" stroke="#63b8ff" points="308.64,-116.35 318.11,-111.6 307.74,-109.41 308.64,-116.35"/>
</a>
</g>
</g>
<!-- Node8 -->
<g id="Node000008" class="node">
<title>Node8</title>
<g id="a_Node000008"><a xlink:href="$class_alarm.html#abc87fe39e6a9b5beb9f09df780f67621" xlink:title="Update alarm condition based on current measurement.">
<polygon fill="white" stroke="#666666" points="130.75,-94.25 12.75,-94.25 12.75,-75 130.75,-75 130.75,-94.25"/>
<text xml:space="preserve" text-anchor="middle" x="71.75" y="-80.75" font-family="Helvetica,sans-Serif" font-size="10.00">Alarm::updateCondition</text>
</a>
</g>
</g>
<!-- Node1&#45;&gt;Node8 -->
<g id="edge11_Node000001_Node000008" class="edge">
<title>Node1&#45;&gt;Node8</title>
<g id="a_edge11_Node000001_Node000008"><a xlink:title=" ">
<path fill="none" stroke="#63b8ff" d="M308.37,-99.2C254.47,-95.87 181.49,-91.35 131.1,-88.23"/>
<polygon fill="#63b8ff" stroke="#63b8ff" points="307.86,-102.68 318.05,-99.8 308.29,-95.69 307.86,-102.68"/>
</a>
</g>
</g>
<!-- Node9 -->
<g id="Node000009" class="node">
<title>Node9</title>
<g id="a_Node000009"><a xlink:href="$class_alarm.html#af8d75ee8622a2a96f4bc9b408e9668e5" xlink:title="Reactivate a previously cleared alarm.">
<polygon fill="white" stroke="#666666" points="276.88,-56.25 186.62,-56.25 186.62,-37 276.88,-37 276.88,-56.25"/>
<text xml:space="preserve" text-anchor="middle" x="231.75" y="-42.75" font-family="Helvetica,sans-Serif" font-size="10.00">Alarm::reactivate</text>
</a>
</g>
</g>
<!-- Node1&#45;&gt;Node9 -->
<g id="edge8_Node000001_Node000009" class="edge">
<title>Node1&#45;&gt;Node9</title>
<g id="a_edge8_Node000001_Node000009"><a xlink:title=" ">
<path fill="none" stroke="#63b8ff" d="M343.19,-89.41C316.81,-79.19 281.9,-65.67 258.45,-56.58"/>
<polygon fill="#63b8ff" stroke="#63b8ff" points="341.91,-92.67 352.5,-93.02 344.44,-86.14 341.91,-92.67"/>
</a>
</g>
</g>
<!-- Node10 -->
<g id="Node000010" class="node">
<title>Node10</title>
<g id="a_Node000010"><a xlink:href="$class_alarm.html#a73e7673d61f82aa21441c75f2cee2c6f" xlink:title="Resolve the alarm completely.">
<polygon fill="white" stroke="#666666" points="271.25,-19.25 192.25,-19.25 192.25,0 271.25,0 271.25,-19.25"/>
<text xml:space="preserve" text-anchor="middle" x="231.75" y="-5.75" font-family="Helvetica,sans-Serif" font-size="10.00">Alarm::resolve</text>
</a>
</g>
</g>
<!-- Node1&#45;&gt;Node10 -->
<g id="edge9_Node000001_Node000010" class="edge">
<title>Node1&#45;&gt;Node10</title>
<g id="a_edge9_Node000001_Node000010"><a xlink:title=" ">
<path fill="none" stroke="#63b8ff" d="M361.49,-85.95C343.12,-69.07 313.44,-43.86 284,-27.62 278.55,-24.62 272.5,-21.97 266.53,-19.69"/>
<polygon fill="#63b8ff" stroke="#63b8ff" points="358.98,-88.4 368.68,-92.67 363.77,-83.29 358.98,-88.4"/>
</a>
</g>
</g>
<!-- Node3 -->
<g id="Node000003" class="node">
<title>Node3</title>
<g id="a_Node000003"><a xlink:href="$class_temperature_controller.html#a5f1c8fce1e5efb637bfe86bdb609a3b7" xlink:title="Acknowledge highest priority alarm.">
<polygon fill="white" stroke="#666666" points="143.5,-229.5 0,-229.5 0,-187.75 143.5,-187.75 143.5,-229.5"/>
<text xml:space="preserve" text-anchor="start" x="8" y="-216" font-family="Helvetica,sans-Serif" font-size="10.00">TemperatureController</text>
<text xml:space="preserve" text-anchor="start" x="8" y="-204.75" font-family="Helvetica,sans-Serif" font-size="10.00">::acknowledgeHighestPriority</text>
<text xml:space="preserve" text-anchor="middle" x="71.75" y="-193.5" font-family="Helvetica,sans-Serif" font-size="10.00">Alarm</text>
</a>
</g>
</g>
<!-- Node2&#45;&gt;Node3 -->
<g id="edge2_Node000002_Node000003" class="edge">
<title>Node2&#45;&gt;Node3</title>
<g id="a_edge2_Node000002_Node000003"><a xlink:title=" ">
<path fill="none" stroke="#63b8ff" d="M167.71,-205.02C159.86,-205.32 151.79,-205.62 143.82,-205.93"/>
<polygon fill="#63b8ff" stroke="#63b8ff" points="167.64,-208.52 177.5,-204.65 167.38,-201.53 167.64,-208.52"/>
</a>
</g>
</g>
<!-- Node5 -->
<g id="Node000005" class="node">
<title>Node5</title>
<g id="a_Node000005"><a xlink:href="$class_alarm.html#ab9867ec0c314549960584f4ae01328f8" xlink:title="Less&#45;than comparison operator for alarm sorting.">
<polygon fill="white" stroke="#666666" points="116.12,-169.25 27.38,-169.25 27.38,-150 116.12,-150 116.12,-169.25"/>
<text xml:space="preserve" text-anchor="middle" x="71.75" y="-155.75" font-family="Helvetica,sans-Serif" font-size="10.00">Alarm::operator&lt;</text>
</a>
</g>
</g>
<!-- Node4&#45;&gt;Node5 -->
<g id="edge4_Node000004_Node000005" class="edge">
<title>Node4&#45;&gt;Node5</title>
<g id="a_edge4_Node000004_Node000005"><a xlink:title=" ">
<path fill="none" stroke="#63b8ff" d="M183.49,-159.62C162.19,-159.62 137.19,-159.62 116.34,-159.62"/>
<polygon fill="#63b8ff" stroke="#63b8ff" points="183.38,-163.13 193.38,-159.63 183.38,-156.13 183.38,-163.13"/>
</a>
</g>
</g>
<!-- Node6 -->
<g id="Node000006" class="node">
<title>Node6</title>
<g id="a_Node000006"><a xlink:href="$class_alarm.html#a2a6049ea9b003e51f5ac17aba40bb1ad" xlink:title="Equality comparison operator.">
<polygon fill="white" stroke="#666666" points="119.12,-132.25 24.38,-132.25 24.38,-113 119.12,-113 119.12,-132.25"/>
<text xml:space="preserve" text-anchor="middle" x="71.75" y="-118.75" font-family="Helvetica,sans-Serif" font-size="10.00">Alarm::operator==</text>
</a>
</g>
</g>
<!-- Node4&#45;&gt;Node6 -->
<g id="edge5_Node000004_Node000006" class="edge">
<title>Node4&#45;&gt;Node6</title>
<g id="a_edge5_Node000004_Node000006"><a xlink:title=" ">
<path fill="none" stroke="#63b8ff" d="M183.7,-148.61C162.15,-143.56 136.79,-137.62 115.76,-132.7"/>
<polygon fill="#63b8ff" stroke="#63b8ff" points="182.89,-152.01 193.42,-150.88 184.49,-145.2 182.89,-152.01"/>
</a>
</g>
</g>
<!-- Node7&#45;&gt;Node8 -->
<g id="edge7_Node000007_Node000008" class="edge">
<title>Node7&#45;&gt;Node8</title>
<g id="a_edge7_Node000007_Node000008"><a xlink:title=" ">
<path fill="none" stroke="#63b8ff" d="M186.3,-111.94C163.85,-106.53 136.75,-100.02 114.66,-94.71"/>
<polygon fill="#63b8ff" stroke="#63b8ff" points="185.23,-115.28 195.77,-114.21 186.87,-108.47 185.23,-115.28"/>
</a>
</g>
</g>
<!-- Node10&#45;&gt;Node8 -->
<g id="edge10_Node000010_Node000008" class="edge">
<title>Node10&#45;&gt;Node8</title>
<g id="a_edge10_Node000010_Node000008"><a xlink:title=" ">
<path fill="none" stroke="#63b8ff" d="M188.78,-23.77C185.62,-25.02 182.49,-26.31 179.5,-27.62 146.8,-42 110.46,-62.42 89.73,-74.51"/>
<polygon fill="#63b8ff" stroke="#63b8ff" points="190.01,-27.05 198.14,-20.26 187.55,-20.5 190.01,-27.05"/>
</a>
</g>
</g>
</g>
</svg>
