<?xml version="1.0" encoding="UTF-8" standalone="no"?>
<!DOCTYPE svg PUBLIC "-//W3C//DTD SVG 1.1//EN"
 "http://www.w3.org/Graphics/SVG/1.1/DTD/svg11.dtd">
<!-- Generated by graphviz version 13.1.0 (20250701.0955)
 -->
<!-- Title: MeasurementPoint::getName Pages: 1 -->
<svg width="873pt" height="607pt"
 viewBox="0.00 0.00 873.00 607.00" xmlns="http://www.w3.org/2000/svg" xmlns:xlink="http://www.w3.org/1999/xlink">
<g id="graph0" class="graph" transform="scale(1 1) rotate(0) translate(4 602.5)">
<title>MeasurementPoint::getName</title>
<!-- Node1 -->
<g id="Node000001" class="node">
<title>Node1</title>
<g id="a_Node000001"><a xlink:title="Get measurement point name.">
<polygon fill="#999999" stroke="#666666" points="864.5,-257.88 721,-257.88 721,-238.62 864.5,-238.62 864.5,-257.88"/>
<text xml:space="preserve" text-anchor="middle" x="792.75" y="-244.38" font-family="Helvetica,sans-Serif" font-size="10.00">MeasurementPoint::getName</text>
</a>
</g>
</g>
<!-- Node2 -->
<g id="Node000002" class="node">
<title>Node2</title>
<g id="a_Node000002"><a xlink:href="class_c_s_v_config_manager.html#a2c2673398051c26184c9197aa751a6b3" target="_top" xlink:title="Export single measurement point to CSV format.">
<polygon fill="white" stroke="#666666" points="657.62,-553.5 548.62,-553.5 548.62,-523 657.62,-523 657.62,-553.5"/>
<text xml:space="preserve" text-anchor="start" x="556.62" y="-540" font-family="Helvetica,sans-Serif" font-size="10.00">CSVConfigManager::</text>
<text xml:space="preserve" text-anchor="middle" x="603.12" y="-528.75" font-family="Helvetica,sans-Serif" font-size="10.00">_exportPointToCSV</text>
</a>
</g>
</g>
<!-- Node1&#45;&gt;Node2 -->
<g id="edge1_Node000001_Node000002" class="edge">
<title>Node1&#45;&gt;Node2</title>
<g id="a_edge1_Node000001_Node000002"><a xlink:title=" ">
<path fill="none" stroke="#63b8ff" d="M784.84,-268.86C770.55,-309.55 734.88,-401.9 685,-467.25 668.22,-489.23 643.81,-509.53 626.2,-522.74"/>
<polygon fill="#63b8ff" stroke="#63b8ff" points="788.07,-270.22 788.02,-259.62 781.45,-267.94 788.07,-270.22"/>
</a>
</g>
</g>
<!-- Node4 -->
<g id="Node000004" class="node">
<title>Node4</title>
<g id="a_Node000004"><a xlink:href="class_logger_manager.html#aab43f573f73cfe426cfbea04a9fdd3ee" target="_top" xlink:title=" ">
<polygon fill="white" stroke="#666666" points="668.88,-458.5 537.38,-458.5 537.38,-428 668.88,-428 668.88,-458.5"/>
<text xml:space="preserve" text-anchor="start" x="545.38" y="-445" font-family="Helvetica,sans-Serif" font-size="10.00">LoggerManager::_generate</text>
<text xml:space="preserve" text-anchor="middle" x="603.12" y="-433.75" font-family="Helvetica,sans-Serif" font-size="10.00">CSVHeader</text>
</a>
</g>
</g>
<!-- Node1&#45;&gt;Node4 -->
<g id="edge3_Node000001_Node000004" class="edge">
<title>Node1&#45;&gt;Node4</title>
<g id="a_edge3_Node000001_Node000004"><a xlink:title=" ">
<path fill="none" stroke="#63b8ff" d="M781.02,-268.2C763.88,-298.69 727.86,-357.41 685,-396.25 671.16,-408.79 653.43,-419.55 638.11,-427.59"/>
<polygon fill="#63b8ff" stroke="#63b8ff" points="783.97,-270.11 785.73,-259.66 777.84,-266.73 783.97,-270.11"/>
</a>
</g>
</g>
<!-- Node13 -->
<g id="Node000013" class="node">
<title>Node13</title>
<g id="a_Node000013"><a xlink:href="class_temperature_controller.html#ac5c3403746d7c850bf7929bf5ee3448a" target="_top" xlink:title="Add alarm configuration.">
<polygon fill="white" stroke="#666666" points="659.12,-387.5 547.12,-387.5 547.12,-357 659.12,-357 659.12,-387.5"/>
<text xml:space="preserve" text-anchor="start" x="555.12" y="-374" font-family="Helvetica,sans-Serif" font-size="10.00">TemperatureController</text>
<text xml:space="preserve" text-anchor="middle" x="603.12" y="-362.75" font-family="Helvetica,sans-Serif" font-size="10.00">::addAlarm</text>
</a>
</g>
</g>
<!-- Node1&#45;&gt;Node13 -->
<g id="edge16_Node000001_Node000013" class="edge">
<title>Node1&#45;&gt;Node13</title>
<g id="a_edge16_Node000001_Node000013"><a xlink:title=" ">
<path fill="none" stroke="#63b8ff" d="M776.89,-266.66C757.85,-289.07 722.78,-326.59 685,-348.25 677.12,-352.77 668.32,-356.5 659.5,-359.57"/>
<polygon fill="#63b8ff" stroke="#63b8ff" points="779.36,-269.17 783.06,-259.24 773.97,-264.69 779.36,-269.17"/>
</a>
</g>
</g>
<!-- Node14 -->
<g id="Node000014" class="node">
<title>Node14</title>
<g id="a_Node000014"><a xlink:href="class_config_manager.html#ae605c999fabc6344511f455618655326" target="_top" xlink:title="Setup alarms API endpoints.">
<polygon fill="white" stroke="#666666" points="477.75,-128.88 344,-128.88 344,-109.62 477.75,-109.62 477.75,-128.88"/>
<text xml:space="preserve" text-anchor="middle" x="410.88" y="-115.38" font-family="Helvetica,sans-Serif" font-size="10.00">ConfigManager::alarmsAPI</text>
</a>
</g>
</g>
<!-- Node1&#45;&gt;Node14 -->
<g id="edge17_Node000001_Node000014" class="edge">
<title>Node1&#45;&gt;Node14</title>
<g id="a_edge17_Node000001_Node000014"><a xlink:title=" ">
<path fill="none" stroke="#63b8ff" d="M735.79,-235.68C657.24,-217.99 523.52,-187.74 521.25,-186.25 498.66,-171.41 507.72,-152.26 485.25,-137.25 480.45,-134.04 475.13,-131.41 469.62,-129.24"/>
<polygon fill="#63b8ff" stroke="#63b8ff" points="734.96,-239.08 745.48,-237.86 736.49,-232.25 734.96,-239.08"/>
</a>
</g>
</g>
<!-- Node16 -->
<g id="Node000016" class="node">
<title>Node16</title>
<g id="a_Node000016"><a xlink:href="class_temperature_controller.html#a84937fc1aed30193b817f3b062ce0cfc" target="_top" xlink:title="Bind PT1000 sensor to measurement point by chip select pin.">
<polygon fill="white" stroke="#666666" points="685,-177.5 521.25,-177.5 521.25,-147 685,-147 685,-177.5"/>
<text xml:space="preserve" text-anchor="start" x="529.25" y="-164" font-family="Helvetica,sans-Serif" font-size="10.00">TemperatureController</text>
<text xml:space="preserve" text-anchor="middle" x="603.12" y="-152.75" font-family="Helvetica,sans-Serif" font-size="10.00">::bindSensorToPointByChipSelect</text>
</a>
</g>
</g>
<!-- Node1&#45;&gt;Node16 -->
<g id="edge19_Node000001_Node000016" class="edge">
<title>Node1&#45;&gt;Node16</title>
<g id="a_edge19_Node000001_Node000016"><a xlink:title=" ">
<path fill="none" stroke="#63b8ff" d="M764.84,-232.47C743.58,-220.34 712.93,-203.64 685,-191.25 674.36,-186.53 662.7,-182 651.63,-177.97"/>
<polygon fill="#63b8ff" stroke="#63b8ff" points="763.03,-235.46 773.45,-237.42 766.53,-229.4 763.03,-235.46"/>
</a>
</g>
</g>
<!-- Node17 -->
<g id="Node000017" class="node">
<title>Node17</title>
<g id="a_Node000017"><a xlink:href="class_temperature_controller.html#a5d8f7c51bb176435a5035293a2db78f7" target="_top" xlink:title="Bind sensor to measurement point by ROM address.">
<polygon fill="white" stroke="#666666" points="671.5,-128.5 534.75,-128.5 534.75,-98 671.5,-98 671.5,-128.5"/>
<text xml:space="preserve" text-anchor="start" x="542.75" y="-115" font-family="Helvetica,sans-Serif" font-size="10.00">TemperatureController</text>
<text xml:space="preserve" text-anchor="middle" x="603.12" y="-103.75" font-family="Helvetica,sans-Serif" font-size="10.00">::bindSensorToPointByRom</text>
</a>
</g>
</g>
<!-- Node1&#45;&gt;Node17 -->
<g id="edge20_Node000001_Node000017" class="edge">
<title>Node1&#45;&gt;Node17</title>
<g id="a_edge20_Node000001_Node000017"><a xlink:title=" ">
<path fill="none" stroke="#63b8ff" d="M778.34,-229.45C759.97,-205.01 724.68,-162.58 685,-138.25 679.24,-134.72 672.93,-131.64 666.47,-128.98"/>
<polygon fill="#63b8ff" stroke="#63b8ff" points="775.31,-231.23 784.05,-237.22 780.95,-227.08 775.31,-231.23"/>
</a>
</g>
</g>
<!-- Node18 -->
<g id="Node000018" class="node">
<title>Node18</title>
<g id="a_Node000018"><a xlink:href="class_config_manager.html#a3b28982c79587a287c8ddf0acf47f71d" target="_top" xlink:title="Setup file download API endpoints.">
<polygon fill="white" stroke="#666666" points="676,-338.88 530.25,-338.88 530.25,-319.62 676,-319.62 676,-338.88"/>
<text xml:space="preserve" text-anchor="middle" x="603.12" y="-325.38" font-family="Helvetica,sans-Serif" font-size="10.00">ConfigManager::downloadAPI</text>
</a>
</g>
</g>
<!-- Node1&#45;&gt;Node18 -->
<g id="edge21_Node000001_Node000018" class="edge">
<title>Node1&#45;&gt;Node18</title>
<g id="a_edge21_Node000001_Node000018"><a xlink:title=" ">
<path fill="none" stroke="#63b8ff" d="M765.77,-264.04C744.59,-276.44 713.6,-293.51 685,-305.25 671.86,-310.64 657.06,-315.4 643.76,-319.22"/>
<polygon fill="#63b8ff" stroke="#63b8ff" points="767.49,-267.09 774.31,-258.97 763.92,-261.07 767.49,-267.09"/>
</a>
</g>
</g>
<!-- Node19 -->
<g id="Node000019" class="node">
<title>Node19</title>
<g id="a_Node000019"><a xlink:href="class_temperature_controller.html#add39ba7dad38449bbf1787a5c9c51ef9" target="_top" xlink:title="Get JSON representation of all measurement points.">
<polygon fill="white" stroke="#666666" points="659.12,-79.5 547.12,-79.5 547.12,-49 659.12,-49 659.12,-79.5"/>
<text xml:space="preserve" text-anchor="start" x="555.12" y="-66" font-family="Helvetica,sans-Serif" font-size="10.00">TemperatureController</text>
<text xml:space="preserve" text-anchor="middle" x="603.12" y="-54.75" font-family="Helvetica,sans-Serif" font-size="10.00">::getPointsJson</text>
</a>
</g>
</g>
<!-- Node1&#45;&gt;Node19 -->
<g id="edge23_Node000001_Node000019" class="edge">
<title>Node1&#45;&gt;Node19</title>
<g id="a_edge23_Node000001_Node000019"><a xlink:title=" ">
<path fill="none" stroke="#63b8ff" d="M783.53,-227.89C768.83,-194.07 734.87,-126.36 685,-89.25 677.34,-83.55 668.35,-79.13 659.21,-75.71"/>
<polygon fill="#63b8ff" stroke="#63b8ff" points="780.23,-229.07 787.33,-236.94 786.68,-226.36 780.23,-229.07"/>
</a>
</g>
</g>
<!-- Node20 -->
<g id="Node000020" class="node">
<title>Node20</title>
<g id="a_Node000020"><a xlink:href="class_config_manager.html#a471a844085c27f3a8a8f9394d9c14677" target="_top" xlink:title="Setup measurement points API endpoints.">
<polygon fill="white" stroke="#666666" points="476.25,-300.88 345.5,-300.88 345.5,-281.62 476.25,-281.62 476.25,-300.88"/>
<text xml:space="preserve" text-anchor="middle" x="410.88" y="-287.38" font-family="Helvetica,sans-Serif" font-size="10.00">ConfigManager::pointsAPI</text>
</a>
</g>
</g>
<!-- Node1&#45;&gt;Node20 -->
<g id="edge24_Node000001_Node000020" class="edge">
<title>Node1&#45;&gt;Node20</title>
<g id="a_edge24_Node000001_Node000020"><a xlink:title=" ">
<path fill="none" stroke="#63b8ff" d="M742.38,-260.99C724.42,-265.19 703.9,-269.48 685,-272.25 614.22,-282.61 532.26,-287.35 476.74,-289.51"/>
<polygon fill="#63b8ff" stroke="#63b8ff" points="743.09,-264.42 752,-258.69 741.46,-257.61 743.09,-264.42"/>
</a>
</g>
</g>
<!-- Node21 -->
<g id="Node000021" class="node">
<title>Node21</title>
<g id="a_Node000021"><a xlink:href="class_config_manager.html#a55b79da91c57039c483ddf5fceabbd64" target="_top" xlink:title="Save measurement points configuration to file.">
<polygon fill="white" stroke="#666666" points="671.5,-263.5 534.75,-263.5 534.75,-233 671.5,-233 671.5,-263.5"/>
<text xml:space="preserve" text-anchor="start" x="542.75" y="-250" font-family="Helvetica,sans-Serif" font-size="10.00">ConfigManager::savePoints</text>
<text xml:space="preserve" text-anchor="middle" x="603.12" y="-238.75" font-family="Helvetica,sans-Serif" font-size="10.00">Config</text>
</a>
</g>
</g>
<!-- Node1&#45;&gt;Node21 -->
<g id="edge26_Node000001_Node000021" class="edge">
<title>Node1&#45;&gt;Node21</title>
<g id="a_edge26_Node000001_Node000021"><a xlink:title=" ">
<path fill="none" stroke="#63b8ff" d="M709.2,-248.25C696.72,-248.25 683.98,-248.25 671.87,-248.25"/>
<polygon fill="#63b8ff" stroke="#63b8ff" points="709.04,-251.75 719.04,-248.25 709.04,-244.75 709.04,-251.75"/>
</a>
</g>
</g>
<!-- Node25 -->
<g id="Node000025" class="node">
<title>Node25</title>
<g id="a_Node000025"><a xlink:href="class_temperature_controller.html#a261c9b96540ec6680dfffd3a26e4ca00" target="_top" xlink:title="Unbind sensor from measurement point.">
<polygon fill="white" stroke="#666666" points="666.25,-30.5 540,-30.5 540,0 666.25,0 666.25,-30.5"/>
<text xml:space="preserve" text-anchor="start" x="548" y="-17" font-family="Helvetica,sans-Serif" font-size="10.00">TemperatureController</text>
<text xml:space="preserve" text-anchor="middle" x="603.12" y="-5.75" font-family="Helvetica,sans-Serif" font-size="10.00">::unbindSensorFromPoint</text>
</a>
</g>
</g>
<!-- Node1&#45;&gt;Node25 -->
<g id="edge34_Node000001_Node000025" class="edge">
<title>Node1&#45;&gt;Node25</title>
<g id="a_edge34_Node000001_Node000025"><a xlink:title=" ">
<path fill="none" stroke="#63b8ff" d="M786.83,-227.29C775.91,-185.44 745.71,-91.2 685,-40.25 679.48,-35.62 673.12,-31.85 666.43,-28.77"/>
<polygon fill="#63b8ff" stroke="#63b8ff" points="783.38,-227.94 789.19,-236.8 790.18,-226.25 783.38,-227.94"/>
</a>
</g>
</g>
<!-- Node3 -->
<g id="Node000003" class="node">
<title>Node3</title>
<g id="a_Node000003"><a xlink:href="class_c_s_v_config_manager.html#a1c6cbc4c8a132762bf16a8ce9f7d0bfc" target="_top" xlink:title="Export measurement points with alarm configuration to CSV.">
<polygon fill="white" stroke="#666666" points="478.88,-598.5 342.88,-598.5 342.88,-568 478.88,-568 478.88,-598.5"/>
<text xml:space="preserve" text-anchor="start" x="350.88" y="-585" font-family="Helvetica,sans-Serif" font-size="10.00">CSVConfigManager::export</text>
<text xml:space="preserve" text-anchor="middle" x="410.88" y="-573.75" font-family="Helvetica,sans-Serif" font-size="10.00">PointsWithAlarmsToCSV</text>
</a>
</g>
</g>
<!-- Node2&#45;&gt;Node3 -->
<g id="edge2_Node000002_Node000003" class="edge">
<title>Node2&#45;&gt;Node3</title>
<g id="a_edge2_Node000002_Node000003"><a xlink:title=" ">
<path fill="none" stroke="#63b8ff" d="M537.4,-553.56C518.36,-558.06 497.51,-562.99 478.37,-567.52"/>
<polygon fill="#63b8ff" stroke="#63b8ff" points="537.97,-557.02 546.9,-551.31 536.36,-550.21 537.97,-557.02"/>
</a>
</g>
</g>
<!-- Node5 -->
<g id="Node000005" class="node">
<title>Node5</title>
<g id="a_Node000005"><a xlink:href="class_logger_manager.html#a829c2f8dcde77d6506f1d664a291969a" target="_top" xlink:title=" ">
<polygon fill="white" stroke="#666666" points="297.88,-517.5 156.62,-517.5 156.62,-487 297.88,-487 297.88,-517.5"/>
<text xml:space="preserve" text-anchor="start" x="164.62" y="-504" font-family="Helvetica,sans-Serif" font-size="10.00">LoggerManager::_hasHeader</text>
<text xml:space="preserve" text-anchor="middle" x="227.25" y="-492.75" font-family="Helvetica,sans-Serif" font-size="10.00">Changed</text>
</a>
</g>
</g>
<!-- Node4&#45;&gt;Node5 -->
<g id="edge4_Node000004_Node000005" class="edge">
<title>Node4&#45;&gt;Node5</title>
<g id="a_edge4_Node000004_Node000005"><a xlink:title=" ">
<path fill="none" stroke="#63b8ff" d="M525.79,-458.11C512.3,-460.59 498.38,-463.07 485.25,-465.25 422.1,-475.73 349.94,-485.97 298.19,-493.01"/>
<polygon fill="#63b8ff" stroke="#63b8ff" points="526.32,-461.57 535.51,-456.3 525.04,-454.69 526.32,-461.57"/>
</a>
</g>
</g>
<!-- Node7 -->
<g id="Node000007" class="node">
<title>Node7</title>
<g id="a_Node000007"><a xlink:href="class_logger_manager.html#ac7866b2b0244358be6a1cfe8d245cc7d" target="_top" xlink:title=" ">
<polygon fill="white" stroke="#666666" points="485.25,-436.5 336.5,-436.5 336.5,-406 485.25,-406 485.25,-436.5"/>
<text xml:space="preserve" text-anchor="start" x="344.5" y="-423" font-family="Helvetica,sans-Serif" font-size="10.00">LoggerManager::_recoverFrom</text>
<text xml:space="preserve" text-anchor="middle" x="410.88" y="-411.75" font-family="Helvetica,sans-Serif" font-size="10.00">ExistingFiles</text>
</a>
</g>
</g>
<!-- Node4&#45;&gt;Node7 -->
<g id="edge6_Node000004_Node000007" class="edge">
<title>Node4&#45;&gt;Node7</title>
<g id="a_edge6_Node000004_Node000007"><a xlink:title=" ">
<path fill="none" stroke="#63b8ff" d="M525.88,-434.43C512.56,-432.89 498.73,-431.29 485.49,-429.76"/>
<polygon fill="#63b8ff" stroke="#63b8ff" points="525.08,-437.86 535.41,-435.54 525.88,-430.91 525.08,-437.86"/>
</a>
</g>
</g>
<!-- Node8 -->
<g id="Node000008" class="node">
<title>Node8</title>
<g id="a_Node000008"><a xlink:href="class_logger_manager.html#a4acf0149820d73f4ed11340f63706841" target="_top" xlink:title="Begin logging operations.">
<polygon fill="white" stroke="#666666" points="283.25,-468.88 171.25,-468.88 171.25,-449.62 283.25,-449.62 283.25,-468.88"/>
<text xml:space="preserve" text-anchor="middle" x="227.25" y="-455.38" font-family="Helvetica,sans-Serif" font-size="10.00">LoggerManager::begin</text>
</a>
</g>
</g>
<!-- Node4&#45;&gt;Node8 -->
<g id="edge12_Node000004_Node000008" class="edge">
<title>Node4&#45;&gt;Node8</title>
<g id="a_edge12_Node000004_Node000008"><a xlink:title=" ">
<path fill="none" stroke="#63b8ff" d="M525.75,-446.52C453.76,-449.6 347.63,-454.14 283.5,-456.89"/>
<polygon fill="#63b8ff" stroke="#63b8ff" points="525.65,-450.03 535.49,-446.1 525.35,-443.03 525.65,-450.03"/>
</a>
</g>
</g>
<!-- Node9 -->
<g id="Node000009" class="node">
<title>Node9</title>
<g id="a_Node000009"><a xlink:href="class_logger_manager.html#a4095daee15dce39ba5f802ea5b5661a2" target="_top" xlink:title=" ">
<polygon fill="white" stroke="#666666" points="484.12,-549.88 337.62,-549.88 337.62,-530.62 484.12,-530.62 484.12,-549.88"/>
<text xml:space="preserve" text-anchor="middle" x="410.88" y="-536.38" font-family="Helvetica,sans-Serif" font-size="10.00">LoggerManager::_writeHeader</text>
</a>
</g>
</g>
<!-- Node4&#45;&gt;Node9 -->
<g id="edge9_Node000004_Node000009" class="edge">
<title>Node4&#45;&gt;Node9</title>
<g id="a_edge9_Node000004_Node000009"><a xlink:title=" ">
<path fill="none" stroke="#63b8ff" d="M571.42,-465.31C548.5,-481.05 515.97,-501.89 485.25,-516.25 473.59,-521.7 460.36,-526.43 448.37,-530.23"/>
<polygon fill="#63b8ff" stroke="#63b8ff" points="573.17,-468.36 579.38,-459.78 569.17,-462.61 573.17,-468.36"/>
</a>
</g>
</g>
<!-- Node11 -->
<g id="Node000011" class="node">
<title>Node11</title>
<g id="a_Node000011"><a xlink:href="class_logger_manager.html#a445856fb9bb37bd5e61d5242d8996c1f" target="_top" xlink:title=" ">
<polygon fill="white" stroke="#666666" points="478.88,-387.5 342.88,-387.5 342.88,-357 478.88,-357 478.88,-387.5"/>
<text xml:space="preserve" text-anchor="start" x="350.88" y="-374" font-family="Helvetica,sans-Serif" font-size="10.00">LoggerManager::createNew</text>
<text xml:space="preserve" text-anchor="middle" x="410.88" y="-362.75" font-family="Helvetica,sans-Serif" font-size="10.00">LogFile</text>
</a>
</g>
</g>
<!-- Node4&#45;&gt;Node11 -->
<g id="edge13_Node000004_Node000011" class="edge">
<title>Node4&#45;&gt;Node11</title>
<g id="a_edge13_Node000004_Node000011"><a xlink:title=" ">
<path fill="none" stroke="#63b8ff" d="M553.09,-423.36C532.26,-415.07 507.65,-405.47 485.25,-397.25 476.79,-394.14 467.73,-390.95 458.96,-387.93"/>
<polygon fill="#63b8ff" stroke="#63b8ff" points="551.62,-426.54 562.2,-427.01 554.21,-420.04 551.62,-426.54"/>
</a>
</g>
</g>
<!-- Node6 -->
<g id="Node000006" class="node">
<title>Node6</title>
<g id="a_Node000006"><a xlink:href="class_logger_manager.html#a830c86f1f27d3799eab1de908fc6b647" target="_top" xlink:title=" ">
<polygon fill="white" stroke="#666666" points="118,-470.88 0,-470.88 0,-451.62 118,-451.62 118,-470.88"/>
<text xml:space="preserve" text-anchor="middle" x="59" y="-457.38" font-family="Helvetica,sans-Serif" font-size="10.00">LoggerManager::update</text>
</a>
</g>
</g>
<!-- Node5&#45;&gt;Node6 -->
<g id="edge5_Node000005_Node000006" class="edge">
<title>Node5&#45;&gt;Node6</title>
<g id="a_edge5_Node000005_Node000006"><a xlink:title=" ">
<path fill="none" stroke="#63b8ff" d="M151.66,-483.85C134.17,-479.54 116.18,-475.1 100.82,-471.32"/>
<polygon fill="#63b8ff" stroke="#63b8ff" points="150.43,-487.16 160.98,-486.15 152.11,-480.36 150.43,-487.16"/>
</a>
</g>
</g>
<!-- Node7&#45;&gt;Node6 -->
<g id="edge8_Node000007_Node000006" class="edge">
<title>Node7&#45;&gt;Node6</title>
<g id="a_edge8_Node000007_Node000006"><a xlink:title=" ">
<path fill="none" stroke="#63b8ff" d="M324.81,-424.46C274.86,-427.11 210.62,-431.87 154,-440.25 135.8,-442.94 115.89,-447.2 99.09,-451.18"/>
<polygon fill="#63b8ff" stroke="#63b8ff" points="324.9,-427.96 334.7,-423.95 324.54,-420.97 324.9,-427.96"/>
</a>
</g>
</g>
<!-- Node7&#45;&gt;Node8 -->
<g id="edge7_Node000007_Node000008" class="edge">
<title>Node7&#45;&gt;Node8</title>
<g id="a_edge7_Node000007_Node000008"><a xlink:title=" ">
<path fill="none" stroke="#63b8ff" d="M325.11,-438.98C308.45,-442.47 291.52,-446.01 276.56,-449.14"/>
<polygon fill="#63b8ff" stroke="#63b8ff" points="325.45,-442.49 334.52,-437.02 324.01,-435.64 325.45,-442.49"/>
</a>
</g>
</g>
<!-- Node10 -->
<g id="Node000010" class="node">
<title>Node10</title>
<g id="a_Node000010"><a xlink:href="class_logger_manager.html#a32ce9f462269787130bee46b2c34b632" target="_top" xlink:title=" ">
<polygon fill="white" stroke="#666666" points="298.62,-554.88 155.88,-554.88 155.88,-535.62 298.62,-535.62 298.62,-554.88"/>
<text xml:space="preserve" text-anchor="middle" x="227.25" y="-541.38" font-family="Helvetica,sans-Serif" font-size="10.00">LoggerManager::logDataNow</text>
</a>
</g>
</g>
<!-- Node9&#45;&gt;Node10 -->
<g id="edge10_Node000009_Node000010" class="edge">
<title>Node9&#45;&gt;Node10</title>
<g id="a_edge10_Node000009_Node000010"><a xlink:title=" ">
<path fill="none" stroke="#63b8ff" d="M325.94,-542.56C316.91,-542.81 307.78,-543.06 298.93,-543.3"/>
<polygon fill="#63b8ff" stroke="#63b8ff" points="325.9,-546.06 335.8,-542.29 325.7,-539.07 325.9,-546.06"/>
</a>
</g>
</g>
<!-- Node10&#45;&gt;Node6 -->
<g id="edge11_Node000010_Node000006" class="edge">
<title>Node10&#45;&gt;Node6</title>
<g id="a_edge11_Node000010_Node000006"><a xlink:title=" ">
<path fill="none" stroke="#63b8ff" d="M167.5,-531.67C162.86,-530.03 158.31,-528.23 154,-526.25 121.73,-511.41 88.63,-485.54 71.64,-471.33"/>
<polygon fill="#63b8ff" stroke="#63b8ff" points="166.37,-534.98 176.96,-534.72 168.52,-528.32 166.37,-534.98"/>
</a>
</g>
</g>
<!-- Node11&#45;&gt;Node6 -->
<g id="edge15_Node000011_Node000006" class="edge">
<title>Node11&#45;&gt;Node6</title>
<g id="a_edge15_Node000011_Node000006"><a xlink:title=" ">
<path fill="none" stroke="#63b8ff" d="M331.14,-383.45C280.03,-391.74 212.31,-404.65 154,-422.25 128.12,-430.06 99.6,-442.47 80.84,-451.18"/>
<polygon fill="#63b8ff" stroke="#63b8ff" points="331.62,-386.91 340.95,-381.88 330.52,-380 331.62,-386.91"/>
</a>
</g>
</g>
<!-- Node12 -->
<g id="Node000012" class="node">
<title>Node12</title>
<g id="a_Node000012"><a xlink:href="class_logger_manager.html#a32e39dd8df48f64677732ede4066f01d" target="_top" xlink:title=" ">
<polygon fill="white" stroke="#666666" points="300.5,-354.88 154,-354.88 154,-335.62 300.5,-335.62 300.5,-354.88"/>
<text xml:space="preserve" text-anchor="middle" x="227.25" y="-341.38" font-family="Helvetica,sans-Serif" font-size="10.00">LoggerManager::forceNewFile</text>
</a>
</g>
</g>
<!-- Node11&#45;&gt;Node12 -->
<g id="edge14_Node000011_Node000012" class="edge">
<title>Node11&#45;&gt;Node12</title>
<g id="a_edge14_Node000011_Node000012"><a xlink:title=" ">
<path fill="none" stroke="#63b8ff" d="M331.36,-360.58C319.63,-358.83 307.61,-357.05 296.12,-355.34"/>
<polygon fill="#63b8ff" stroke="#63b8ff" points="330.6,-364 341.01,-362.01 331.63,-357.08 330.6,-364"/>
</a>
</g>
</g>
<!-- Node15 -->
<g id="Node000015" class="node">
<title>Node15</title>
<g id="a_Node000015"><a xlink:href="class_config_manager.html#a0497343220fc493f5cf9574922508908" target="_top" xlink:title="Initialize the configuration system.">
<polygon fill="white" stroke="#666666" points="282.88,-257.88 171.62,-257.88 171.62,-238.62 282.88,-238.62 282.88,-257.88"/>
<text xml:space="preserve" text-anchor="middle" x="227.25" y="-244.38" font-family="Helvetica,sans-Serif" font-size="10.00">ConfigManager::begin</text>
</a>
</g>
</g>
<!-- Node14&#45;&gt;Node15 -->
<g id="edge18_Node000014_Node000015" class="edge">
<title>Node14&#45;&gt;Node15</title>
<g id="a_edge18_Node000014_Node000015"><a xlink:title=" ">
<path fill="none" stroke="#63b8ff" d="M343.83,-133.51C341.31,-134.66 338.85,-135.9 336.5,-137.25 289.99,-163.83 250.38,-216.16 235.04,-238.15"/>
<polygon fill="#63b8ff" stroke="#63b8ff" points="345.08,-136.78 353.07,-129.83 342.49,-130.27 345.08,-136.78"/>
</a>
</g>
</g>
<!-- Node18&#45;&gt;Node15 -->
<g id="edge22_Node000018_Node000015" class="edge">
<title>Node18&#45;&gt;Node15</title>
<g id="a_edge22_Node000018_Node000015"><a xlink:title=" ">
<path fill="none" stroke="#63b8ff" d="M518.37,-332.72C465.2,-332.63 395.52,-328.23 336.5,-310.25 299,-298.82 260.42,-272.56 241.02,-258.15"/>
<polygon fill="#63b8ff" stroke="#63b8ff" points="518.3,-336.22 528.29,-332.68 518.28,-329.22 518.3,-336.22"/>
</a>
</g>
</g>
<!-- Node20&#45;&gt;Node15 -->
<g id="edge25_Node000020_Node000015" class="edge">
<title>Node20&#45;&gt;Node15</title>
<g id="a_edge25_Node000020_Node000015"><a xlink:title=" ">
<path fill="none" stroke="#63b8ff" d="M356.37,-278.58C329.11,-272.13 296.42,-264.39 270.88,-258.34"/>
<polygon fill="#63b8ff" stroke="#63b8ff" points="355.28,-281.92 365.82,-280.82 356.89,-275.11 355.28,-281.92"/>
</a>
</g>
</g>
<!-- Node21&#45;&gt;Node14 -->
<g id="edge27_Node000021_Node000014" class="edge">
<title>Node21&#45;&gt;Node14</title>
<g id="a_edge27_Node000021_Node000014"><a xlink:title=" ">
<path fill="none" stroke="#63b8ff" d="M531.27,-227.03C527.69,-224.7 524.32,-222.11 521.25,-219.25 492.15,-192.1 515.72,-162.86 485.25,-137.25 481.43,-134.04 477.13,-131.39 472.58,-129.2"/>
<polygon fill="#63b8ff" stroke="#63b8ff" points="529.38,-229.99 539.8,-231.89 532.84,-223.9 529.38,-229.99"/>
</a>
</g>
</g>
<!-- Node21&#45;&gt;Node20 -->
<g id="edge30_Node000021_Node000020" class="edge">
<title>Node21&#45;&gt;Node20</title>
<g id="a_edge30_Node000021_Node000020"><a xlink:title=" ">
<path fill="none" stroke="#63b8ff" d="M523.46,-266.03C500.68,-271.18 476.59,-276.62 456.66,-281.13"/>
<polygon fill="#63b8ff" stroke="#63b8ff" points="524.06,-269.48 533.04,-263.86 522.51,-262.66 524.06,-269.48"/>
</a>
</g>
</g>
<!-- Node22 -->
<g id="Node000022" class="node">
<title>Node22</title>
<g id="a_Node000022"><a xlink:href="class_config_manager.html#a9b7af07b85bf9cc3ac05603db6e89fd2" target="_top" xlink:title="Setup CSV import/export API endpoints.">
<polygon fill="white" stroke="#666666" points="476.62,-263.5 345.12,-263.5 345.12,-233 476.62,-233 476.62,-263.5"/>
<text xml:space="preserve" text-anchor="start" x="353.12" y="-250" font-family="Helvetica,sans-Serif" font-size="10.00">ConfigManager::csvImport</text>
<text xml:space="preserve" text-anchor="middle" x="410.88" y="-238.75" font-family="Helvetica,sans-Serif" font-size="10.00">ExportAPI</text>
</a>
</g>
</g>
<!-- Node21&#45;&gt;Node22 -->
<g id="edge28_Node000021_Node000022" class="edge">
<title>Node21&#45;&gt;Node22</title>
<g id="a_edge28_Node000021_Node000022"><a xlink:title=" ">
<path fill="none" stroke="#63b8ff" d="M523.41,-248.25C507.98,-248.25 491.96,-248.25 477.03,-248.25"/>
<polygon fill="#63b8ff" stroke="#63b8ff" points="523,-251.75 533,-248.25 523,-244.75 523,-251.75"/>
</a>
</g>
</g>
<!-- Node23 -->
<g id="Node000023" class="node">
<title>Node23</title>
<g id="a_Node000023"><a xlink:href="class_config_manager.html#a45b1ce1f09401af0b6f700cf4388b233" target="_top" xlink:title="Setup sensor&#45;related API endpoints.">
<polygon fill="white" stroke="#666666" points="477.75,-165.88 344,-165.88 344,-146.62 477.75,-146.62 477.75,-165.88"/>
<text xml:space="preserve" text-anchor="middle" x="410.88" y="-152.38" font-family="Helvetica,sans-Serif" font-size="10.00">ConfigManager::sensorAPI</text>
</a>
</g>
</g>
<!-- Node21&#45;&gt;Node23 -->
<g id="edge31_Node000021_Node000023" class="edge">
<title>Node21&#45;&gt;Node23</title>
<g id="a_edge31_Node000021_Node000023"><a xlink:title=" ">
<path fill="none" stroke="#63b8ff" d="M535.41,-227.72C530.45,-225.18 525.66,-222.37 521.25,-219.25 500.61,-204.68 506.53,-188.87 485.25,-175.25 479.6,-171.63 473.28,-168.7 466.8,-166.33"/>
<polygon fill="#63b8ff" stroke="#63b8ff" points="533.86,-230.86 544.4,-231.9 536.81,-224.51 533.86,-230.86"/>
</a>
</g>
</g>
<!-- Node24 -->
<g id="Node000024" class="node">
<title>Node24</title>
<g id="a_Node000024"><a xlink:href="class_config_manager.html#a0daf50bbd376beb24a5400a86e893338" target="_top" xlink:title="Update a measurement point in configuration.">
<polygon fill="white" stroke="#666666" points="480.75,-214.5 341,-214.5 341,-184 480.75,-184 480.75,-214.5"/>
<text xml:space="preserve" text-anchor="start" x="349" y="-201" font-family="Helvetica,sans-Serif" font-size="10.00">ConfigManager::updatePoint</text>
<text xml:space="preserve" text-anchor="middle" x="410.88" y="-189.75" font-family="Helvetica,sans-Serif" font-size="10.00">InConfig</text>
</a>
</g>
</g>
<!-- Node21&#45;&gt;Node24 -->
<g id="edge33_Node000021_Node000024" class="edge">
<title>Node21&#45;&gt;Node24</title>
<g id="a_edge33_Node000021_Node000024"><a xlink:title=" ">
<path fill="none" stroke="#63b8ff" d="M530.19,-229.72C511.3,-224.86 491.1,-219.65 472.84,-214.95"/>
<polygon fill="#63b8ff" stroke="#63b8ff" points="529.12,-233.06 539.68,-232.17 530.87,-226.28 529.12,-233.06"/>
</a>
</g>
</g>
<!-- Node22&#45;&gt;Node15 -->
<g id="edge29_Node000022_Node000015" class="edge">
<title>Node22&#45;&gt;Node15</title>
<g id="a_edge29_Node000022_Node000015"><a xlink:title=" ">
<path fill="none" stroke="#63b8ff" d="M333.32,-248.25C316.5,-248.25 299.03,-248.25 283.26,-248.25"/>
<polygon fill="#63b8ff" stroke="#63b8ff" points="333.3,-251.75 343.3,-248.25 333.3,-244.75 333.3,-251.75"/>
</a>
</g>
</g>
<!-- Node23&#45;&gt;Node15 -->
<g id="edge32_Node000023_Node000015" class="edge">
<title>Node23&#45;&gt;Node15</title>
<g id="a_edge32_Node000023_Node000015"><a xlink:title=" ">
<path fill="none" stroke="#63b8ff" d="M350.62,-169.71C345.77,-171.37 341.01,-173.22 336.5,-175.25 298.47,-192.38 259.19,-222.6 240.1,-238.24"/>
<polygon fill="#63b8ff" stroke="#63b8ff" points="351.39,-173.14 359.87,-166.79 349.28,-166.46 351.39,-173.14"/>
</a>
</g>
</g>
</g>
</svg>
