<?xml version="1.0" encoding="UTF-8" standalone="no"?>
<!DOCTYPE svg PUBLIC "-//W3C//DTD SVG 1.1//EN"
 "http://www.w3.org/Graphics/SVG/1.1/DTD/svg11.dtd">
<!-- Generated by graphviz version 13.1.0 (20250701.0955)
 -->
<!-- Title: LoggerManager::init Pages: 1 -->
<svg width="872pt" height="287pt"
 viewBox="0.00 0.00 872.00 287.00" xmlns="http://www.w3.org/2000/svg" xmlns:xlink="http://www.w3.org/1999/xlink">
<g id="graph0" class="graph" transform="scale(1 1) rotate(0) translate(4 282.5)">
<title>LoggerManager::init</title>
<!-- Node1 -->
<g id="Node000001" class="node">
<title>Node1</title>
<g id="a_Node000001"><a xlink:title="Initialize the logging system.">
<polygon fill="#999999" stroke="#666666" points="101.5,-191.88 0,-191.88 0,-172.62 101.5,-172.62 101.5,-191.88"/>
<text xml:space="preserve" text-anchor="middle" x="50.75" y="-178.38" font-family="Helvetica,sans-Serif" font-size="10.00">LoggerManager::init</text>
</a>
</g>
</g>
<!-- Node2 -->
<g id="Node000002" class="node">
<title>Node2</title>
<g id="a_Node000002"><a xlink:href="class_logger_manager.html#a27150c2682f4f8fa6bef8b5bb1b25e52" target="_top" xlink:title=" ">
<polygon fill="white" stroke="#666666" points="300.5,-278.5 137.5,-278.5 137.5,-248 300.5,-248 300.5,-278.5"/>
<text xml:space="preserve" text-anchor="start" x="145.5" y="-265" font-family="Helvetica,sans-Serif" font-size="10.00">LoggerManager::_ensureDirectory</text>
<text xml:space="preserve" text-anchor="middle" x="219" y="-253.75" font-family="Helvetica,sans-Serif" font-size="10.00">Exists</text>
</a>
</g>
</g>
<!-- Node1&#45;&gt;Node2 -->
<g id="edge1_Node000001_Node000002" class="edge">
<title>Node1&#45;&gt;Node2</title>
<g id="a_edge1_Node000001_Node000002"><a xlink:title=" ">
<path fill="none" stroke="#63b8ff" d="M66.12,-192.19C82.77,-203.41 111.26,-221.72 137.5,-234.25 144.35,-237.52 151.66,-240.64 158.99,-243.53"/>
<polygon fill="#63b8ff" stroke="#63b8ff" points="157.68,-246.78 168.27,-247.08 160.17,-240.24 157.68,-246.78"/>
</a>
</g>
</g>
<!-- Node3 -->
<g id="Node000003" class="node">
<title>Node3</title>
<g id="a_Node000003"><a xlink:href="class_logger_manager.html#a4f7591a3b5cb024b7354005b4362e049" target="_top" xlink:title=" ">
<polygon fill="white" stroke="#666666" points="654.25,-240.5 505.5,-240.5 505.5,-210 654.25,-210 654.25,-240.5"/>
<text xml:space="preserve" text-anchor="start" x="513.5" y="-227" font-family="Helvetica,sans-Serif" font-size="10.00">LoggerManager::_ensureEvent</text>
<text xml:space="preserve" text-anchor="middle" x="579.88" y="-215.75" font-family="Helvetica,sans-Serif" font-size="10.00">LogExists</text>
</a>
</g>
</g>
<!-- Node1&#45;&gt;Node3 -->
<g id="edge2_Node000001_Node000003" class="edge">
<title>Node1&#45;&gt;Node3</title>
<g id="a_edge2_Node000001_Node000003"><a xlink:title=" ">
<path fill="none" stroke="#63b8ff" d="M101.97,-191.28C113.6,-193.14 125.96,-194.93 137.5,-196.25 261.03,-210.36 404.85,-218.22 493.88,-222.09"/>
<polygon fill="#63b8ff" stroke="#63b8ff" points="493.62,-225.59 503.76,-222.52 493.92,-218.59 493.62,-225.59"/>
</a>
</g>
</g>
<!-- Node5 -->
<g id="Node000005" class="node">
<title>Node5</title>
<g id="a_Node000005"><a xlink:href="class_logger_manager.html#a9cf35430e1e61515c6fb12524a58f1ab" target="_top" xlink:title=" ">
<polygon fill="white" stroke="#666666" points="645.62,-30.5 514.12,-30.5 514.12,0 645.62,0 645.62,-30.5"/>
<text xml:space="preserve" text-anchor="start" x="522.12" y="-17" font-family="Helvetica,sans-Serif" font-size="10.00">LoggerManager::_generate</text>
<text xml:space="preserve" text-anchor="middle" x="579.88" y="-5.75" font-family="Helvetica,sans-Serif" font-size="10.00">EventLogFileName</text>
</a>
</g>
</g>
<!-- Node1&#45;&gt;Node5 -->
<g id="edge4_Node000001_Node000005" class="edge">
<title>Node1&#45;&gt;Node5</title>
<g id="a_edge4_Node000001_Node000005"><a xlink:title=" ">
<path fill="none" stroke="#63b8ff" d="M59.54,-172.28C73.32,-155.39 103.74,-121.34 137.5,-104.25 255.89,-44.33 411.32,-24.74 502.63,-18.35"/>
<polygon fill="#63b8ff" stroke="#63b8ff" points="502.73,-21.85 512.48,-17.69 502.27,-14.86 502.73,-21.85"/>
</a>
</g>
</g>
<!-- Node6 -->
<g id="Node000006" class="node">
<title>Node6</title>
<g id="a_Node000006"><a xlink:href="class_logger_manager.html#a3ca0b934265a4d9ce6391bf97dec179a" target="_top" xlink:title=" ">
<polygon fill="white" stroke="#666666" points="849.88,-159.5 710.12,-159.5 710.12,-129 849.88,-129 849.88,-159.5"/>
<text xml:space="preserve" text-anchor="start" x="718.12" y="-146" font-family="Helvetica,sans-Serif" font-size="10.00">LoggerManager::_getCurrent</text>
<text xml:space="preserve" text-anchor="middle" x="780" y="-134.75" font-family="Helvetica,sans-Serif" font-size="10.00">DateString</text>
</a>
</g>
</g>
<!-- Node1&#45;&gt;Node6 -->
<g id="edge6_Node000001_Node000006" class="edge">
<title>Node1&#45;&gt;Node6</title>
<g id="a_edge6_Node000001_Node000006"><a xlink:title=" ">
<path fill="none" stroke="#63b8ff" d="M101.74,-179.64C225.51,-173.17 547.15,-156.36 698.29,-148.47"/>
<polygon fill="#63b8ff" stroke="#63b8ff" points="698.44,-151.96 708.24,-147.95 698.07,-144.97 698.44,-151.96"/>
</a>
</g>
</g>
<!-- Node7 -->
<g id="Node000007" class="node">
<title>Node7</title>
<g id="a_Node000007"><a xlink:href="class_logger_manager.html#a2503703714729cc95171579fe4ce0d4c" target="_top" xlink:title=" ">
<polygon fill="white" stroke="#666666" points="278,-132.88 160,-132.88 160,-113.62 278,-113.62 278,-132.88"/>
<text xml:space="preserve" text-anchor="middle" x="219" y="-119.38" font-family="Helvetica,sans-Serif" font-size="10.00">LoggerManager::logInfo</text>
</a>
</g>
</g>
<!-- Node1&#45;&gt;Node7 -->
<g id="edge7_Node000001_Node000007" class="edge">
<title>Node1&#45;&gt;Node7</title>
<g id="a_edge7_Node000001_Node000007"><a xlink:title=" ">
<path fill="none" stroke="#63b8ff" d="M79.95,-172.24C107.18,-162.58 148.64,-147.87 179.02,-137.09"/>
<polygon fill="#63b8ff" stroke="#63b8ff" points="179.98,-140.46 188.23,-133.81 177.64,-133.86 179.98,-140.46"/>
</a>
</g>
</g>
<!-- Node4 -->
<g id="Node000004" class="node">
<title>Node4</title>
<g id="a_Node000004"><a xlink:href="class_logger_manager.html#a515beeaa428acafce139d79b41fe9d0a" target="_top" xlink:title=" ">
<polygon fill="white" stroke="#666666" points="850.25,-240.5 709.75,-240.5 709.75,-210 850.25,-210 850.25,-240.5"/>
<text xml:space="preserve" text-anchor="start" x="717.75" y="-227" font-family="Helvetica,sans-Serif" font-size="10.00">LoggerManager::_writeEvent</text>
<text xml:space="preserve" text-anchor="middle" x="780" y="-215.75" font-family="Helvetica,sans-Serif" font-size="10.00">Header</text>
</a>
</g>
</g>
<!-- Node3&#45;&gt;Node4 -->
<g id="edge3_Node000003_Node000004" class="edge">
<title>Node3&#45;&gt;Node4</title>
<g id="a_edge3_Node000003_Node000004"><a xlink:title=" ">
<path fill="none" stroke="#63b8ff" d="M654.65,-225.25C668.8,-225.25 683.69,-225.25 698.05,-225.25"/>
<polygon fill="#63b8ff" stroke="#63b8ff" points="697.92,-228.75 707.92,-225.25 697.92,-221.75 697.92,-228.75"/>
</a>
</g>
</g>
<!-- Node5&#45;&gt;Node6 -->
<g id="edge5_Node000005_Node000006" class="edge">
<title>Node5&#45;&gt;Node6</title>
<g id="a_edge5_Node000005_Node000006"><a xlink:title=" ">
<path fill="none" stroke="#63b8ff" d="M643.76,-30.87C649.51,-33.29 655.1,-36.07 660.25,-39.25 680.05,-51.47 679.17,-61.45 696.25,-77.25 713.15,-92.89 733.19,-109.17 749.32,-121.76"/>
<polygon fill="#63b8ff" stroke="#63b8ff" points="747.06,-124.44 757.12,-127.8 751.35,-118.91 747.06,-124.44"/>
</a>
</g>
</g>
<!-- Node8 -->
<g id="Node000008" class="node">
<title>Node8</title>
<g id="a_Node000008"><a xlink:href="class_logger_manager.html#a0df2f2c96123da1989d0aaf6a4dc1615" target="_top" xlink:title=" ">
<polygon fill="white" stroke="#666666" points="463.5,-132.88 336.5,-132.88 336.5,-113.62 463.5,-113.62 463.5,-132.88"/>
<text xml:space="preserve" text-anchor="middle" x="400" y="-119.38" font-family="Helvetica,sans-Serif" font-size="10.00">LoggerManager::logEvent</text>
</a>
</g>
</g>
<!-- Node7&#45;&gt;Node8 -->
<g id="edge8_Node000007_Node000008" class="edge">
<title>Node7&#45;&gt;Node8</title>
<g id="a_edge8_Node000007_Node000008"><a xlink:title=" ">
<path fill="none" stroke="#63b8ff" d="M278.12,-123.25C293.07,-123.25 309.35,-123.25 324.99,-123.25"/>
<polygon fill="#63b8ff" stroke="#63b8ff" points="324.72,-126.75 334.72,-123.25 324.72,-119.75 324.72,-126.75"/>
</a>
</g>
</g>
<!-- Node8&#45;&gt;Node3 -->
<g id="edge9_Node000008_Node000003" class="edge">
<title>Node8&#45;&gt;Node3</title>
<g id="a_edge9_Node000008_Node000003"><a xlink:title=" ">
<path fill="none" stroke="#63b8ff" d="M418.38,-133.22C446.87,-149.55 504.11,-182.38 541.96,-204.08"/>
<polygon fill="#63b8ff" stroke="#63b8ff" points="539.88,-206.92 550.3,-208.86 543.36,-200.85 539.88,-206.92"/>
</a>
</g>
</g>
<!-- Node8&#45;&gt;Node5 -->
<g id="edge10_Node000008_Node000005" class="edge">
<title>Node8&#45;&gt;Node5</title>
<g id="a_edge10_Node000008_Node000005"><a xlink:title=" ">
<path fill="none" stroke="#63b8ff" d="M410.05,-113.18C426.3,-95.69 462.22,-59.61 499.5,-39.25 501.99,-37.89 504.56,-36.6 507.2,-35.37"/>
<polygon fill="#63b8ff" stroke="#63b8ff" points="508.36,-38.68 516.19,-31.55 505.62,-32.24 508.36,-38.68"/>
</a>
</g>
</g>
<!-- Node8&#45;&gt;Node6 -->
<g id="edge11_Node000008_Node000006" class="edge">
<title>Node8&#45;&gt;Node6</title>
<g id="a_edge11_Node000008_Node000006"><a xlink:title=" ">
<path fill="none" stroke="#63b8ff" d="M463.84,-126.74C528.18,-130.32 628.4,-135.88 698.5,-139.78"/>
<polygon fill="#63b8ff" stroke="#63b8ff" points="698.23,-143.27 708.41,-140.33 698.62,-136.28 698.23,-143.27"/>
</a>
</g>
</g>
<!-- Node9 -->
<g id="Node000009" class="node">
<title>Node9</title>
<g id="a_Node000009"><a xlink:href="class_logger_manager.html#a4f31651f8963f741bfbdb944164ffc15" target="_top" xlink:title=" ">
<polygon fill="white" stroke="#666666" points="649.75,-116.5 510,-116.5 510,-86 649.75,-86 649.75,-116.5"/>
<text xml:space="preserve" text-anchor="start" x="518" y="-103" font-family="Helvetica,sans-Serif" font-size="10.00">LoggerManager::_getCurrent</text>
<text xml:space="preserve" text-anchor="middle" x="579.88" y="-91.75" font-family="Helvetica,sans-Serif" font-size="10.00">TimeString</text>
</a>
</g>
</g>
<!-- Node8&#45;&gt;Node9 -->
<g id="edge12_Node000008_Node000009" class="edge">
<title>Node8&#45;&gt;Node9</title>
<g id="a_edge12_Node000008_Node000009"><a xlink:title=" ">
<path fill="none" stroke="#63b8ff" d="M463.96,-115.46C475.06,-114.09 486.74,-112.65 498.24,-111.22"/>
<polygon fill="#63b8ff" stroke="#63b8ff" points="498.65,-114.7 508.14,-110 497.79,-107.75 498.65,-114.7"/>
</a>
</g>
</g>
<!-- Node10 -->
<g id="Node000010" class="node">
<title>Node10</title>
<g id="a_Node000010"><a xlink:href="class_logger_manager.html#a472884ce9e2aed6a1570187dd37cc006" target="_top" xlink:title=" ">
<polygon fill="white" stroke="#666666" points="660.25,-67.88 499.5,-67.88 499.5,-48.62 660.25,-48.62 660.25,-67.88"/>
<text xml:space="preserve" text-anchor="middle" x="579.88" y="-54.38" font-family="Helvetica,sans-Serif" font-size="10.00">LoggerManager::_writeEventRow</text>
</a>
</g>
</g>
<!-- Node8&#45;&gt;Node10 -->
<g id="edge13_Node000008_Node000010" class="edge">
<title>Node8&#45;&gt;Node10</title>
<g id="a_edge13_Node000008_Node000010"><a xlink:title=" ">
<path fill="none" stroke="#63b8ff" d="M419.41,-113.28C438.86,-103.07 470.63,-87.33 499.5,-77.25 505.67,-75.1 512.19,-73.1 518.74,-71.28"/>
<polygon fill="#63b8ff" stroke="#63b8ff" points="519.49,-74.7 528.27,-68.76 517.71,-67.93 519.49,-74.7"/>
</a>
</g>
</g>
<!-- Node11 -->
<g id="Node000011" class="node">
<title>Node11</title>
<g id="a_Node000011"><a xlink:href="class_logger_manager.html#a57d230cd2896120a32ecf55a14895d55" target="_top" xlink:title=" ">
<polygon fill="white" stroke="#666666" points="863.75,-67.88 696.25,-67.88 696.25,-48.62 863.75,-48.62 863.75,-67.88"/>
<text xml:space="preserve" text-anchor="middle" x="780" y="-54.38" font-family="Helvetica,sans-Serif" font-size="10.00">LoggerManager::_escapeCSVField</text>
</a>
</g>
</g>
<!-- Node10&#45;&gt;Node11 -->
<g id="edge14_Node000010_Node000011" class="edge">
<title>Node10&#45;&gt;Node11</title>
<g id="a_edge14_Node000010_Node000011"><a xlink:title=" ">
<path fill="none" stroke="#63b8ff" d="M660.6,-58.25C668.5,-58.25 676.56,-58.25 684.58,-58.25"/>
<polygon fill="#63b8ff" stroke="#63b8ff" points="684.36,-61.75 694.36,-58.25 684.36,-54.75 684.36,-61.75"/>
</a>
</g>
</g>
</g>
</svg>
