<?xml version="1.0" encoding="UTF-8" standalone="no"?>
<!DOCTYPE svg PUBLIC "-//W3C//DTD SVG 1.1//EN"
 "http://www.w3.org/Graphics/SVG/1.1/DTD/svg11.dtd">
<!-- Generated by graphviz version 13.1.0 (20250701.0955)
 -->
<!-- Title: LoggerManager::_extractSequenceNumber Pages: 1 -->
<svg width="694pt" height="88pt"
 viewBox="0.00 0.00 694.00 88.00" xmlns="http://www.w3.org/2000/svg" xmlns:xlink="http://www.w3.org/1999/xlink">
<g id="graph0" class="graph" transform="scale(1 1) rotate(0) translate(4 83.5)">
<title>LoggerManager::_extractSequenceNumber</title>
<!-- Node1 -->
<g id="Node000001" class="node">
<title>Node1</title>
<g id="a_Node000001"><a xlink:title=" ">
<polygon fill="#999999" stroke="#666666" points="685.75,-54.5 518.25,-54.5 518.25,-24 685.75,-24 685.75,-54.5"/>
<text xml:space="preserve" text-anchor="start" x="526.25" y="-41" font-family="Helvetica,sans-Serif" font-size="10.00">LoggerManager::_extractSequence</text>
<text xml:space="preserve" text-anchor="middle" x="602" y="-29.75" font-family="Helvetica,sans-Serif" font-size="10.00">Number</text>
</a>
</g>
</g>
<!-- Node2 -->
<g id="Node000002" class="node">
<title>Node2</title>
<g id="a_Node000002"><a xlink:href="class_logger_manager.html#a0efdffdaa8b90ec4a896c5ac52cd2856" target="_top" xlink:title=" ">
<polygon fill="white" stroke="#666666" points="482.25,-79.5 338.75,-79.5 338.75,-49 482.25,-49 482.25,-79.5"/>
<text xml:space="preserve" text-anchor="start" x="346.75" y="-66" font-family="Helvetica,sans-Serif" font-size="10.00">LoggerManager::_findHighest</text>
<text xml:space="preserve" text-anchor="middle" x="410.5" y="-54.75" font-family="Helvetica,sans-Serif" font-size="10.00">SequenceForDate</text>
</a>
</g>
</g>
<!-- Node1&#45;&gt;Node2 -->
<g id="edge1_Node000001_Node000002" class="edge">
<title>Node1&#45;&gt;Node2</title>
<g id="a_edge1_Node000001_Node000002"><a xlink:title=" ">
<path fill="none" stroke="#63b8ff" d="M506.56,-51.71C498.53,-52.77 490.49,-53.83 482.69,-54.86"/>
<polygon fill="#63b8ff" stroke="#63b8ff" points="506.93,-55.19 516.38,-50.41 506.01,-48.25 506.93,-55.19"/>
</a>
</g>
</g>
<!-- Node6 -->
<g id="Node000006" class="node">
<title>Node6</title>
<g id="a_Node000006"><a xlink:href="class_logger_manager.html#a485fea5149ef2e0199671ad2dcadbcf4" target="_top" xlink:title=" ">
<polygon fill="white" stroke="#666666" points="478.88,-30.5 342.12,-30.5 342.12,0 478.88,0 478.88,-30.5"/>
<text xml:space="preserve" text-anchor="start" x="350.12" y="-17" font-family="Helvetica,sans-Serif" font-size="10.00">LoggerManager::_findLatest</text>
<text xml:space="preserve" text-anchor="middle" x="410.5" y="-5.75" font-family="Helvetica,sans-Serif" font-size="10.00">FileForDate</text>
</a>
</g>
</g>
<!-- Node1&#45;&gt;Node6 -->
<g id="edge5_Node000001_Node000006" class="edge">
<title>Node1&#45;&gt;Node6</title>
<g id="a_edge5_Node000001_Node000006"><a xlink:title=" ">
<path fill="none" stroke="#63b8ff" d="M506.62,-27.3C497.37,-26.13 488.11,-24.95 479.2,-23.82"/>
<polygon fill="#63b8ff" stroke="#63b8ff" points="506.02,-30.75 516.38,-28.53 506.9,-23.8 506.02,-30.75"/>
</a>
</g>
</g>
<!-- Node3 -->
<g id="Node000003" class="node">
<title>Node3</title>
<g id="a_Node000003"><a xlink:href="class_logger_manager.html#ac7866b2b0244358be6a1cfe8d245cc7d" target="_top" xlink:title=" ">
<polygon fill="white" stroke="#666666" points="302.75,-54.5 154,-54.5 154,-24 302.75,-24 302.75,-54.5"/>
<text xml:space="preserve" text-anchor="start" x="162" y="-41" font-family="Helvetica,sans-Serif" font-size="10.00">LoggerManager::_recoverFrom</text>
<text xml:space="preserve" text-anchor="middle" x="228.38" y="-29.75" font-family="Helvetica,sans-Serif" font-size="10.00">ExistingFiles</text>
</a>
</g>
</g>
<!-- Node2&#45;&gt;Node3 -->
<g id="edge2_Node000002_Node000003" class="edge">
<title>Node2&#45;&gt;Node3</title>
<g id="a_edge2_Node000002_Node000003"><a xlink:title=" ">
<path fill="none" stroke="#63b8ff" d="M327.05,-52.81C319.03,-51.69 310.93,-50.57 303,-49.47"/>
<polygon fill="#63b8ff" stroke="#63b8ff" points="326.42,-56.25 336.81,-54.16 327.39,-49.32 326.42,-56.25"/>
</a>
</g>
</g>
<!-- Node4 -->
<g id="Node000004" class="node">
<title>Node4</title>
<g id="a_Node000004"><a xlink:href="class_logger_manager.html#a4acf0149820d73f4ed11340f63706841" target="_top" xlink:title=" ">
<polygon fill="white" stroke="#666666" points="115,-67.88 3,-67.88 3,-48.62 115,-48.62 115,-67.88"/>
<text xml:space="preserve" text-anchor="middle" x="59" y="-54.38" font-family="Helvetica,sans-Serif" font-size="10.00">LoggerManager::begin</text>
</a>
</g>
</g>
<!-- Node3&#45;&gt;Node4 -->
<g id="edge3_Node000003_Node000004" class="edge">
<title>Node3&#45;&gt;Node4</title>
<g id="a_edge3_Node000003_Node000004"><a xlink:title=" ">
<path fill="none" stroke="#63b8ff" d="M142.71,-48.86C133.47,-49.91 124.25,-50.96 115.49,-51.95"/>
<polygon fill="#63b8ff" stroke="#63b8ff" points="142.92,-52.36 152.46,-47.75 142.13,-45.4 142.92,-52.36"/>
</a>
</g>
</g>
<!-- Node5 -->
<g id="Node000005" class="node">
<title>Node5</title>
<g id="a_Node000005"><a xlink:href="class_logger_manager.html#a830c86f1f27d3799eab1de908fc6b647" target="_top" xlink:title=" ">
<polygon fill="white" stroke="#666666" points="118,-30.88 0,-30.88 0,-11.62 118,-11.62 118,-30.88"/>
<text xml:space="preserve" text-anchor="middle" x="59" y="-17.38" font-family="Helvetica,sans-Serif" font-size="10.00">LoggerManager::update</text>
</a>
</g>
</g>
<!-- Node3&#45;&gt;Node5 -->
<g id="edge4_Node000003_Node000005" class="edge">
<title>Node3&#45;&gt;Node5</title>
<g id="a_edge4_Node000003_Node000005"><a xlink:title=" ">
<path fill="none" stroke="#63b8ff" d="M142.71,-30.14C134.44,-29.26 126.19,-28.37 118.27,-27.52"/>
<polygon fill="#63b8ff" stroke="#63b8ff" points="142.14,-33.6 152.46,-31.19 142.89,-26.64 142.14,-33.6"/>
</a>
</g>
</g>
<!-- Node6&#45;&gt;Node3 -->
<g id="edge6_Node000006_Node000003" class="edge">
<title>Node6&#45;&gt;Node3</title>
<g id="a_edge6_Node000006_Node000003"><a xlink:title=" ">
<path fill="none" stroke="#63b8ff" d="M330.33,-25.8C321.31,-27 312.13,-28.22 303.18,-29.42"/>
<polygon fill="#63b8ff" stroke="#63b8ff" points="330.71,-29.28 340.16,-24.49 329.78,-22.34 330.71,-29.28"/>
</a>
</g>
</g>
</g>
</svg>
