<?xml version="1.0" encoding="UTF-8" standalone="no"?>
<!DOCTYPE svg PUBLIC "-//W3C//DTD SVG 1.1//EN"
 "http://www.w3.org/Graphics/SVG/1.1/DTD/svg11.dtd">
<!-- Generated by graphviz version 13.1.0 (20250701.0955)
 -->
<!-- Title: LoggerManager::getLogDirectoryPath Pages: 1 -->
<svg width="886pt" height="114pt"
 viewBox="0.00 0.00 886.00 114.00" xmlns="http://www.w3.org/2000/svg" xmlns:xlink="http://www.w3.org/1999/xlink">
<g id="graph0" class="graph" transform="scale(1 1) rotate(0) translate(4 109.88)">
<title>LoggerManager::getLogDirectoryPath</title>
<!-- Node1 -->
<g id="Node000001" class="node">
<title>Node1</title>
<g id="a_Node000001"><a xlink:title=" ">
<polygon fill="#999999" stroke="#666666" points="878,-86.88 700,-86.88 700,-67.62 878,-67.62 878,-86.88"/>
<text xml:space="preserve" text-anchor="middle" x="789" y="-73.38" font-family="Helvetica,sans-Serif" font-size="10.00">LoggerManager::getLogDirectoryPath</text>
</a>
</g>
</g>
<!-- Node2 -->
<g id="Node000002" class="node">
<title>Node2</title>
<g id="a_Node000002"><a xlink:href="class_logger_manager.html#acb4313c65e6a661229f2c3d662f1c059" target="_top" xlink:title=" ">
<polygon fill="white" stroke="#666666" points="475.12,-105.88 340.62,-105.88 340.62,-86.62 475.12,-86.62 475.12,-105.88"/>
<text xml:space="preserve" text-anchor="middle" x="407.88" y="-92.38" font-family="Helvetica,sans-Serif" font-size="10.00">LoggerManager::getFileInfo</text>
</a>
</g>
</g>
<!-- Node1&#45;&gt;Node2 -->
<g id="edge1_Node000001_Node000002" class="edge">
<title>Node1&#45;&gt;Node2</title>
<g id="a_edge1_Node000001_Node000002"><a xlink:title=" ">
<path fill="none" stroke="#63b8ff" d="M688.14,-82.25C620.98,-85.62 534.3,-89.96 475.45,-92.91"/>
<polygon fill="#63b8ff" stroke="#63b8ff" points="688.27,-85.75 698.08,-81.76 687.92,-78.76 688.27,-85.75"/>
</a>
</g>
</g>
<!-- Node5 -->
<g id="Node000005" class="node">
<title>Node5</title>
<g id="a_Node000005"><a xlink:href="class_logger_manager.html#a92719154d919a9bd45a8ea192e70dfcc" target="_top" xlink:title=" ">
<polygon fill="white" stroke="#666666" points="664,-67.88 522.75,-67.88 522.75,-48.62 664,-48.62 664,-67.88"/>
<text xml:space="preserve" text-anchor="middle" x="593.38" y="-54.38" font-family="Helvetica,sans-Serif" font-size="10.00">LoggerManager::openLogFile</text>
</a>
</g>
</g>
<!-- Node1&#45;&gt;Node5 -->
<g id="edge4_Node000001_Node000005" class="edge">
<title>Node1&#45;&gt;Node5</title>
<g id="a_edge4_Node000001_Node000005"><a xlink:title=" ">
<path fill="none" stroke="#63b8ff" d="M688.25,-67.46C680.16,-66.67 672.1,-65.88 664.29,-65.11"/>
<polygon fill="#63b8ff" stroke="#63b8ff" points="687.89,-70.94 698.18,-68.44 688.57,-63.98 687.89,-70.94"/>
</a>
</g>
</g>
<!-- Node3 -->
<g id="Node000003" class="node">
<title>Node3</title>
<g id="a_Node000003"><a xlink:href="class_config_manager.html#a3b28982c79587a287c8ddf0acf47f71d" target="_top" xlink:title="Setup file download API endpoints.">
<polygon fill="white" stroke="#666666" points="293,-67.88 147.25,-67.88 147.25,-48.62 293,-48.62 293,-67.88"/>
<text xml:space="preserve" text-anchor="middle" x="220.12" y="-54.38" font-family="Helvetica,sans-Serif" font-size="10.00">ConfigManager::downloadAPI</text>
</a>
</g>
</g>
<!-- Node2&#45;&gt;Node3 -->
<g id="edge2_Node000002_Node000003" class="edge">
<title>Node2&#45;&gt;Node3</title>
<g id="a_edge2_Node000002_Node000003"><a xlink:title=" ">
<path fill="none" stroke="#63b8ff" d="M346.53,-83.9C321.87,-78.86 293.7,-73.1 270.32,-68.31"/>
<polygon fill="#63b8ff" stroke="#63b8ff" points="345.6,-87.29 356.1,-85.86 347.01,-80.43 345.6,-87.29"/>
</a>
</g>
</g>
<!-- Node4 -->
<g id="Node000004" class="node">
<title>Node4</title>
<g id="a_Node000004"><a xlink:href="class_config_manager.html#a0497343220fc493f5cf9574922508908" target="_top" xlink:title="Initialize the configuration system.">
<polygon fill="white" stroke="#666666" points="111.25,-67.88 0,-67.88 0,-48.62 111.25,-48.62 111.25,-67.88"/>
<text xml:space="preserve" text-anchor="middle" x="55.62" y="-54.38" font-family="Helvetica,sans-Serif" font-size="10.00">ConfigManager::begin</text>
</a>
</g>
</g>
<!-- Node3&#45;&gt;Node4 -->
<g id="edge3_Node000003_Node000004" class="edge">
<title>Node3&#45;&gt;Node4</title>
<g id="a_edge3_Node000003_Node000004"><a xlink:title=" ">
<path fill="none" stroke="#63b8ff" d="M135.45,-58.25C127.35,-58.25 119.27,-58.25 111.55,-58.25"/>
<polygon fill="#63b8ff" stroke="#63b8ff" points="135.39,-61.75 145.39,-58.25 135.39,-54.75 135.39,-61.75"/>
</a>
</g>
</g>
<!-- Node5&#45;&gt;Node3 -->
<g id="edge5_Node000005_Node000003" class="edge">
<title>Node5&#45;&gt;Node3</title>
<g id="a_edge5_Node000005_Node000003"><a xlink:title=" ">
<path fill="none" stroke="#63b8ff" d="M511.13,-58.25C446.19,-58.25 355.98,-58.25 293.49,-58.25"/>
<polygon fill="#63b8ff" stroke="#63b8ff" points="511.03,-61.75 521.03,-58.25 511.03,-54.75 511.03,-61.75"/>
</a>
</g>
</g>
<!-- Node6 -->
<g id="Node000006" class="node">
<title>Node6</title>
<g id="a_Node000006"><a xlink:href="class_config_manager.html#aa425fe77d9c00f404f1c02327263f516" target="_top" xlink:title="Get alarm events for a specific point within date range.">
<polygon fill="white" stroke="#666666" points="486.75,-30.5 329,-30.5 329,0 486.75,0 486.75,-30.5"/>
<text xml:space="preserve" text-anchor="start" x="337" y="-17" font-family="Helvetica,sans-Serif" font-size="10.00">ConfigManager::getAlarmEvents</text>
<text xml:space="preserve" text-anchor="middle" x="407.88" y="-5.75" font-family="Helvetica,sans-Serif" font-size="10.00">ForPoint</text>
</a>
</g>
</g>
<!-- Node5&#45;&gt;Node6 -->
<g id="edge6_Node000005_Node000006" class="edge">
<title>Node5&#45;&gt;Node6</title>
<g id="a_edge6_Node000005_Node000006"><a xlink:title=" ">
<path fill="none" stroke="#63b8ff" d="M538.23,-45.56C518.74,-40.99 496.51,-35.79 476.05,-30.99"/>
<polygon fill="#63b8ff" stroke="#63b8ff" points="537.34,-48.95 547.88,-47.82 538.94,-42.13 537.34,-48.95"/>
</a>
</g>
</g>
<!-- Node6&#45;&gt;Node3 -->
<g id="edge7_Node000006_Node000003" class="edge">
<title>Node6&#45;&gt;Node3</title>
<g id="a_edge7_Node000006_Node000003"><a xlink:title=" ">
<path fill="none" stroke="#63b8ff" d="M327.85,-33.54C306.26,-38.54 283.64,-43.78 264.81,-48.14"/>
<polygon fill="#63b8ff" stroke="#63b8ff" points="328.6,-36.96 337.55,-31.3 327.02,-30.14 328.6,-36.96"/>
</a>
</g>
</g>
</g>
</svg>
