<?xml version="1.0" encoding="UTF-8" standalone="no"?>
<!DOCTYPE svg PUBLIC "-//W3C//DTD SVG 1.1//EN"
 "http://www.w3.org/Graphics/SVG/1.1/DTD/svg11.dtd">
<!-- Generated by graphviz version 13.1.0 (20250701.0955)
 -->
<!-- Title: CSVConfigManager::_parsePriority Pages: 1 -->
<svg width="442pt" height="88pt"
 viewBox="0.00 0.00 442.00 88.00" xmlns="http://www.w3.org/2000/svg" xmlns:xlink="http://www.w3.org/1999/xlink">
<g id="graph0" class="graph" transform="scale(1 1) rotate(0) translate(4 83.5)">
<title>CSVConfigManager::_parsePriority</title>
<!-- Node1 -->
<g id="Node000001" class="node">
<title>Node1</title>
<g id="a_Node000001"><a xlink:title=" ">
<polygon fill="#999999" stroke="#666666" points="433.5,-54.5 324.5,-54.5 324.5,-24 433.5,-24 433.5,-54.5"/>
<text xml:space="preserve" text-anchor="start" x="332.5" y="-41" font-family="Helvetica,sans-Serif" font-size="10.00">CSVConfigManager::</text>
<text xml:space="preserve" text-anchor="middle" x="379" y="-29.75" font-family="Helvetica,sans-Serif" font-size="10.00">_parsePriority</text>
</a>
</g>
</g>
<!-- Node2 -->
<g id="Node000002" class="node">
<title>Node2</title>
<g id="a_Node000002"><a xlink:href="class_c_s_v_config_manager.html#a7ecf23e1c03fa194bcf3afe52408d378" target="_top" xlink:title=" ">
<polygon fill="white" stroke="#666666" points="288.5,-79.5 174.25,-79.5 174.25,-49 288.5,-49 288.5,-79.5"/>
<text xml:space="preserve" text-anchor="start" x="182.25" y="-66" font-family="Helvetica,sans-Serif" font-size="10.00">CSVConfigManager::</text>
<text xml:space="preserve" text-anchor="middle" x="231.38" y="-54.75" font-family="Helvetica,sans-Serif" font-size="10.00">_parseAlarmFromCSV</text>
</a>
</g>
</g>
<!-- Node1&#45;&gt;Node2 -->
<g id="edge1_Node000001_Node000002" class="edge">
<title>Node1&#45;&gt;Node2</title>
<g id="a_edge1_Node000001_Node000002"><a xlink:title=" ">
<path fill="none" stroke="#63b8ff" d="M312.96,-50.41C304.94,-51.79 296.78,-53.19 288.89,-54.55"/>
<polygon fill="#63b8ff" stroke="#63b8ff" points="313.43,-53.89 322.7,-48.74 312.25,-46.99 313.43,-53.89"/>
</a>
</g>
</g>
<!-- Node3 -->
<g id="Node000003" class="node">
<title>Node3</title>
<g id="a_Node000003"><a xlink:href="class_c_s_v_config_manager.html#ac91e29ab2468661df752e4e4b2f7186c" target="_top" xlink:title=" ">
<polygon fill="white" stroke="#666666" points="285.88,-30.5 176.88,-30.5 176.88,0 285.88,0 285.88,-30.5"/>
<text xml:space="preserve" text-anchor="start" x="184.88" y="-17" font-family="Helvetica,sans-Serif" font-size="10.00">CSVConfigManager::</text>
<text xml:space="preserve" text-anchor="middle" x="231.38" y="-5.75" font-family="Helvetica,sans-Serif" font-size="10.00">_parseCSVLine</text>
</a>
</g>
</g>
<!-- Node1&#45;&gt;Node3 -->
<g id="edge2_Node000001_Node000003" class="edge">
<title>Node1&#45;&gt;Node3</title>
<g id="a_edge2_Node000001_Node000003"><a xlink:title=" ">
<path fill="none" stroke="#63b8ff" d="M312.91,-28.52C303.9,-27.04 294.73,-25.53 285.97,-24.08"/>
<polygon fill="#63b8ff" stroke="#63b8ff" points="312.26,-31.96 322.69,-30.14 313.4,-25.06 312.26,-31.96"/>
</a>
</g>
</g>
<!-- Node4 -->
<g id="Node000004" class="node">
<title>Node4</title>
<g id="a_Node000004"><a xlink:href="class_c_s_v_config_manager.html#aef1d9d5b47814730cb9f80554b6fd623" target="_top" xlink:title=" ">
<polygon fill="white" stroke="#666666" points="138.25,-30.5 0,-30.5 0,0 138.25,0 138.25,-30.5"/>
<text xml:space="preserve" text-anchor="start" x="8" y="-17" font-family="Helvetica,sans-Serif" font-size="10.00">CSVConfigManager::import</text>
<text xml:space="preserve" text-anchor="middle" x="69.12" y="-5.75" font-family="Helvetica,sans-Serif" font-size="10.00">PointsWithAlarmsFromCSV</text>
</a>
</g>
</g>
<!-- Node3&#45;&gt;Node4 -->
<g id="edge3_Node000003_Node000004" class="edge">
<title>Node3&#45;&gt;Node4</title>
<g id="a_edge3_Node000003_Node000004"><a xlink:title=" ">
<path fill="none" stroke="#63b8ff" d="M165.21,-15.25C156.44,-15.25 147.42,-15.25 138.59,-15.25"/>
<polygon fill="#63b8ff" stroke="#63b8ff" points="165.05,-18.75 175.05,-15.25 165.05,-11.75 165.05,-18.75"/>
</a>
</g>
</g>
</g>
</svg>
