<?xml version="1.0" encoding="UTF-8" standalone="no"?>
<!DOCTYPE svg PUBLIC "-//W3C//DTD SVG 1.1//EN"
 "http://www.w3.org/Graphics/SVG/1.1/DTD/svg11.dtd">
<!-- Generated by graphviz version 13.1.0 (20250701.0955)
 -->
<!-- Title: IndicatorInterface::_restoreCurrentText Pages: 1 -->
<svg width="438pt" height="88pt"
 viewBox="0.00 0.00 438.00 88.00" xmlns="http://www.w3.org/2000/svg" xmlns:xlink="http://www.w3.org/1999/xlink">
<g id="graph0" class="graph" transform="scale(1 1) rotate(0) translate(4 83.5)">
<title>IndicatorInterface::_restoreCurrentText</title>
<!-- Node1 -->
<g id="Node000001" class="node">
<title>Node1</title>
<g id="a_Node000001"><a xlink:title="Restore previously saved text.">
<polygon fill="#999999" stroke="#666666" points="108.25,-54.5 0,-54.5 0,-24 108.25,-24 108.25,-54.5"/>
<text xml:space="preserve" text-anchor="start" x="8" y="-41" font-family="Helvetica,sans-Serif" font-size="10.00">IndicatorInterface</text>
<text xml:space="preserve" text-anchor="middle" x="54.12" y="-29.75" font-family="Helvetica,sans-Serif" font-size="10.00">::_restoreCurrentText</text>
</a>
</g>
</g>
<!-- Node2 -->
<g id="Node000002" class="node">
<title>Node2</title>
<g id="a_Node000002"><a xlink:href="class_indicator_interface.html#a38acc1a5120e275253fc4e458aea91f0" target="_top" xlink:title="Update OLED display content.">
<polygon fill="white" stroke="#666666" points="260.75,-54.5 144.25,-54.5 144.25,-24 260.75,-24 260.75,-54.5"/>
<text xml:space="preserve" text-anchor="start" x="152.25" y="-41" font-family="Helvetica,sans-Serif" font-size="10.00">IndicatorInterface</text>
<text xml:space="preserve" text-anchor="middle" x="202.5" y="-29.75" font-family="Helvetica,sans-Serif" font-size="10.00">::_updateOLEDDisplay</text>
</a>
</g>
</g>
<!-- Node1&#45;&gt;Node2 -->
<g id="edge1_Node000001_Node000002" class="edge">
<title>Node1&#45;&gt;Node2</title>
<g id="a_edge1_Node000001_Node000002"><a xlink:title=" ">
<path fill="none" stroke="#63b8ff" d="M108.38,-39.25C116.27,-39.25 124.5,-39.25 132.65,-39.25"/>
<polygon fill="#63b8ff" stroke="#63b8ff" points="132.57,-42.75 142.57,-39.25 132.57,-35.75 132.57,-42.75"/>
</a>
</g>
</g>
<!-- Node3 -->
<g id="Node000003" class="node">
<title>Node3</title>
<g id="a_Node000003"><a xlink:href="class_indicator_interface.html#a2f021f6fa16dec590a8b9cf41a82349d" target="_top" xlink:title="Calculate display parameters.">
<polygon fill="white" stroke="#666666" points="429.75,-79.5 296.75,-79.5 296.75,-49 429.75,-49 429.75,-79.5"/>
<text xml:space="preserve" text-anchor="start" x="304.75" y="-66" font-family="Helvetica,sans-Serif" font-size="10.00">IndicatorInterface</text>
<text xml:space="preserve" text-anchor="middle" x="363.25" y="-54.75" font-family="Helvetica,sans-Serif" font-size="10.00">::_calculateDisplayParams</text>
</a>
</g>
</g>
<!-- Node2&#45;&gt;Node3 -->
<g id="edge2_Node000002_Node000003" class="edge">
<title>Node2&#45;&gt;Node3</title>
<g id="a_edge2_Node000002_Node000003"><a xlink:title=" ">
<path fill="none" stroke="#63b8ff" d="M260.81,-48.28C268.75,-49.53 277.01,-50.83 285.23,-52.12"/>
<polygon fill="#63b8ff" stroke="#63b8ff" points="284.47,-55.54 294.9,-53.64 285.56,-48.63 284.47,-55.54"/>
</a>
</g>
</g>
<!-- Node4 -->
<g id="Node000004" class="node">
<title>Node4</title>
<g id="a_Node000004"><a xlink:href="class_indicator_interface.html#a56c23034a963e2099e36cf55ec70055e" target="_top" xlink:title="Draw single text line at specified position.">
<polygon fill="white" stroke="#666666" points="409.12,-30.5 317.38,-30.5 317.38,0 409.12,0 409.12,-30.5"/>
<text xml:space="preserve" text-anchor="start" x="325.38" y="-17" font-family="Helvetica,sans-Serif" font-size="10.00">IndicatorInterface</text>
<text xml:space="preserve" text-anchor="middle" x="363.25" y="-5.75" font-family="Helvetica,sans-Serif" font-size="10.00">::_drawTextLine</text>
</a>
</g>
</g>
<!-- Node2&#45;&gt;Node4 -->
<g id="edge3_Node000002_Node000004" class="edge">
<title>Node2&#45;&gt;Node4</title>
<g id="a_edge3_Node000002_Node000004"><a xlink:title=" ">
<path fill="none" stroke="#63b8ff" d="M260.81,-30.59C275.39,-28.38 291.04,-26.02 305.59,-23.82"/>
<polygon fill="#63b8ff" stroke="#63b8ff" points="306.11,-27.28 315.47,-22.32 305.06,-20.36 306.11,-27.28"/>
</a>
</g>
</g>
</g>
</svg>
