<?xml version="1.0" encoding="UTF-8" standalone="no"?>
<!DOCTYPE svg PUBLIC "-//W3C//DTD SVG 1.1//EN"
 "http://www.w3.org/Graphics/SVG/1.1/DTD/svg11.dtd">
<!-- Generated by graphviz version 13.1.0 (20250701.0955)
 -->
<!-- Title: ConfigManager::getAlarmEventsForPoint Pages: 1 -->
<svg width="495pt" height="39pt"
 viewBox="0.00 0.00 495.00 39.00" xmlns="http://www.w3.org/2000/svg" xmlns:xlink="http://www.w3.org/1999/xlink">
<g id="graph0" class="graph" transform="scale(1 1) rotate(0) translate(4 34.5)">
<title>ConfigManager::getAlarmEventsForPoint</title>
<!-- Node1 -->
<g id="Node000001" class="node">
<title>Node1</title>
<g id="a_Node000001"><a xlink:title="Get alarm events for a specific point within date range.">
<polygon fill="#999999" stroke="#666666" points="486.75,-30.5 329,-30.5 329,0 486.75,0 486.75,-30.5"/>
<text xml:space="preserve" text-anchor="start" x="337" y="-17" font-family="Helvetica,sans-Serif" font-size="10.00">ConfigManager::getAlarmEvents</text>
<text xml:space="preserve" text-anchor="middle" x="407.88" y="-5.75" font-family="Helvetica,sans-Serif" font-size="10.00">ForPoint</text>
</a>
</g>
</g>
<!-- Node2 -->
<g id="Node000002" class="node">
<title>Node2</title>
<g id="a_Node000002"><a xlink:href="class_config_manager.html#a3b28982c79587a287c8ddf0acf47f71d" target="_top" xlink:title="Setup file download API endpoints.">
<polygon fill="white" stroke="#666666" points="293,-24.88 147.25,-24.88 147.25,-5.63 293,-5.63 293,-24.88"/>
<text xml:space="preserve" text-anchor="middle" x="220.12" y="-11.38" font-family="Helvetica,sans-Serif" font-size="10.00">ConfigManager::downloadAPI</text>
</a>
</g>
</g>
<!-- Node1&#45;&gt;Node2 -->
<g id="edge1_Node000001_Node000002" class="edge">
<title>Node1&#45;&gt;Node2</title>
<g id="a_edge1_Node000001_Node000002"><a xlink:title=" ">
<path fill="none" stroke="#63b8ff" d="M317.32,-15.25C309.29,-15.25 301.22,-15.25 293.35,-15.25"/>
<polygon fill="#63b8ff" stroke="#63b8ff" points="317.13,-18.75 327.13,-15.25 317.13,-11.75 317.13,-18.75"/>
</a>
</g>
</g>
<!-- Node3 -->
<g id="Node000003" class="node">
<title>Node3</title>
<g id="a_Node000003"><a xlink:href="class_config_manager.html#a0497343220fc493f5cf9574922508908" target="_top" xlink:title="Initialize the configuration system.">
<polygon fill="white" stroke="#666666" points="111.25,-24.88 0,-24.88 0,-5.63 111.25,-5.63 111.25,-24.88"/>
<text xml:space="preserve" text-anchor="middle" x="55.62" y="-11.38" font-family="Helvetica,sans-Serif" font-size="10.00">ConfigManager::begin</text>
</a>
</g>
</g>
<!-- Node2&#45;&gt;Node3 -->
<g id="edge2_Node000002_Node000003" class="edge">
<title>Node2&#45;&gt;Node3</title>
<g id="a_edge2_Node000002_Node000003"><a xlink:title=" ">
<path fill="none" stroke="#63b8ff" d="M135.45,-15.25C127.35,-15.25 119.27,-15.25 111.55,-15.25"/>
<polygon fill="#63b8ff" stroke="#63b8ff" points="135.39,-18.75 145.39,-15.25 135.39,-11.75 135.39,-18.75"/>
</a>
</g>
</g>
</g>
</svg>
