<?xml version="1.0" encoding="UTF-8" standalone="no"?>
<!DOCTYPE svg PUBLIC "-//W3C//DTD SVG 1.1//EN"
 "http://www.w3.org/Graphics/SVG/1.1/DTD/svg11.dtd">
<!-- Generated by graphviz version 13.1.0 (20250701.0955)
 -->
<!-- Title: TemperatureController::getAlarmCount Pages: 1 -->
<svg width="744pt" height="125pt"
 viewBox="0.00 0.00 744.00 125.00" xmlns="http://www.w3.org/2000/svg" xmlns:xlink="http://www.w3.org/1999/xlink">
<g id="graph0" class="graph" transform="scale(1 1) rotate(0) translate(4 120.5)">
<title>TemperatureController::getAlarmCount</title>
<!-- Node1 -->
<g id="Node000001" class="node">
<title>Node1</title>
<g id="a_Node000001"><a xlink:title="Get total number of configured alarms.">
<polygon fill="#999999" stroke="#666666" points="736.25,-91.5 624.25,-91.5 624.25,-61 736.25,-61 736.25,-91.5"/>
<text xml:space="preserve" text-anchor="start" x="632.25" y="-78" font-family="Helvetica,sans-Serif" font-size="10.00">TemperatureController</text>
<text xml:space="preserve" text-anchor="middle" x="680.25" y="-66.75" font-family="Helvetica,sans-Serif" font-size="10.00">::getAlarmCount</text>
</a>
</g>
</g>
<!-- Node2 -->
<g id="Node000002" class="node">
<title>Node2</title>
<g id="a_Node000002"><a xlink:href="$class_temperature_controller.html#a20a14014a639f3390dba82a6cd39d067" xlink:title="Get relay commanded state.">
<polygon fill="white" stroke="#666666" points="588.25,-116.5 448.5,-116.5 448.5,-86 588.25,-86 588.25,-116.5"/>
<text xml:space="preserve" text-anchor="start" x="456.5" y="-103" font-family="Helvetica,sans-Serif" font-size="10.00">TemperatureController</text>
<text xml:space="preserve" text-anchor="middle" x="518.38" y="-91.75" font-family="Helvetica,sans-Serif" font-size="10.00">::getRelayCommandedState</text>
</a>
</g>
</g>
<!-- Node1&#45;&gt;Node2 -->
<g id="edge1_Node000001_Node000002" class="edge">
<title>Node1&#45;&gt;Node2</title>
<g id="a_edge1_Node000001_Node000002"><a xlink:title=" ">
<path fill="none" stroke="#63b8ff" d="M612.67,-86.66C604.7,-87.91 596.55,-89.18 588.55,-90.43"/>
<polygon fill="#63b8ff" stroke="#63b8ff" points="612.95,-90.16 622.29,-85.16 611.87,-83.24 612.95,-90.16"/>
</a>
</g>
</g>
<!-- Node6 -->
<g id="Node000006" class="node">
<title>Node6</title>
<g id="a_Node000006"><a xlink:href="$class_temperature_controller.html#a82e4c37ff4121eaf5e00e9c52381e840" xlink:title="Handle alarm output signals.">
<polygon fill="white" stroke="#666666" points="574.38,-67.5 462.38,-67.5 462.38,-37 574.38,-37 574.38,-67.5"/>
<text xml:space="preserve" text-anchor="start" x="470.38" y="-54" font-family="Helvetica,sans-Serif" font-size="10.00">TemperatureController</text>
<text xml:space="preserve" text-anchor="middle" x="518.38" y="-42.75" font-family="Helvetica,sans-Serif" font-size="10.00">::handleAlarmOutputs</text>
</a>
</g>
</g>
<!-- Node1&#45;&gt;Node6 -->
<g id="edge6_Node000001_Node000006" class="edge">
<title>Node1&#45;&gt;Node6</title>
<g id="a_edge6_Node000001_Node000006"><a xlink:title=" ">
<path fill="none" stroke="#63b8ff" d="M612.42,-66.22C599.88,-64.34 586.89,-62.39 574.74,-60.56"/>
<polygon fill="#63b8ff" stroke="#63b8ff" points="611.88,-69.68 622.29,-67.7 612.92,-62.75 611.88,-69.68"/>
</a>
</g>
</g>
<!-- Node3 -->
<g id="Node000003" class="node">
<title>Node3</title>
<g id="a_Node000003"><a xlink:href="$class_temperature_controller.html#a62b93899a3b8b55e2e0bd933520c2892" xlink:title="Update register map with current values from measurement points.">
<polygon fill="white" stroke="#666666" points="410.25,-116.5 298.25,-116.5 298.25,-86 410.25,-86 410.25,-116.5"/>
<text xml:space="preserve" text-anchor="start" x="306.25" y="-103" font-family="Helvetica,sans-Serif" font-size="10.00">TemperatureController</text>
<text xml:space="preserve" text-anchor="middle" x="354.25" y="-91.75" font-family="Helvetica,sans-Serif" font-size="10.00">::updateRegisterMap</text>
</a>
</g>
</g>
<!-- Node2&#45;&gt;Node3 -->
<g id="edge2_Node000002_Node000003" class="edge">
<title>Node2&#45;&gt;Node3</title>
<g id="a_edge2_Node000002_Node000003"><a xlink:title=" ">
<path fill="none" stroke="#63b8ff" d="M436.89,-101.25C427.97,-101.25 419.04,-101.25 410.53,-101.25"/>
<polygon fill="#63b8ff" stroke="#63b8ff" points="436.64,-104.75 446.64,-101.25 436.64,-97.75 436.64,-104.75"/>
</a>
</g>
</g>
<!-- Node4 -->
<g id="Node000004" class="node">
<title>Node4</title>
<g id="a_Node000004"><a xlink:href="$class_temperature_controller.html#aca5deddbf703001373424d876f87b5f2" xlink:title="Main update function &#45; must be called in loop()">
<polygon fill="white" stroke="#666666" points="260,-94.5 148,-94.5 148,-64 260,-64 260,-94.5"/>
<text xml:space="preserve" text-anchor="start" x="156" y="-81" font-family="Helvetica,sans-Serif" font-size="10.00">TemperatureController</text>
<text xml:space="preserve" text-anchor="middle" x="204" y="-69.75" font-family="Helvetica,sans-Serif" font-size="10.00">::update</text>
</a>
</g>
</g>
<!-- Node3&#45;&gt;Node4 -->
<g id="edge3_Node000003_Node000004" class="edge">
<title>Node3&#45;&gt;Node4</title>
<g id="a_edge3_Node000003_Node000004"><a xlink:title=" ">
<path fill="none" stroke="#63b8ff" d="M286.89,-91.4C277.99,-90.08 268.93,-88.74 260.25,-87.45"/>
<polygon fill="#63b8ff" stroke="#63b8ff" points="286.14,-94.83 296.55,-92.84 287.17,-87.91 286.14,-94.83"/>
</a>
</g>
</g>
<!-- Node5 -->
<g id="Node000005" class="node">
<title>Node5</title>
<g id="a_Node000005"><a xlink:href="$class_temperature_controller.html#a11948a87fe7df37543b86ecdd488b341" xlink:title="Read temperature from all configured measurement points.">
<polygon fill="white" stroke="#666666" points="112,-94.5 0,-94.5 0,-64 112,-64 112,-94.5"/>
<text xml:space="preserve" text-anchor="start" x="8" y="-81" font-family="Helvetica,sans-Serif" font-size="10.00">TemperatureController</text>
<text xml:space="preserve" text-anchor="middle" x="56" y="-69.75" font-family="Helvetica,sans-Serif" font-size="10.00">::readAllPoints</text>
</a>
</g>
</g>
<!-- Node4&#45;&gt;Node5 -->
<g id="edge4_Node000004_Node000005" class="edge">
<title>Node4&#45;&gt;Node5</title>
<g id="a_edge4_Node000004_Node000005"><a xlink:title=" ">
<path fill="none" stroke="#63b8ff" d="M136.47,-72.52C128.38,-72.46 120.18,-72.52 112.27,-72.68"/>
<polygon fill="#63b8ff" stroke="#63b8ff" points="136.24,-76.02 146.29,-72.66 136.34,-69.02 136.24,-76.02"/>
</a>
</g>
</g>
<!-- Node5&#45;&gt;Node4 -->
<g id="edge5_Node000005_Node000004" class="edge">
<title>Node5&#45;&gt;Node4</title>
<g id="a_edge5_Node000005_Node000004"><a xlink:title=" ">
<path fill="none" stroke="#63b8ff" d="M123.61,-85.98C131.7,-86.04 139.9,-85.98 147.8,-85.82"/>
<polygon fill="#63b8ff" stroke="#63b8ff" points="123.84,-82.48 113.79,-85.84 123.74,-89.48 123.84,-82.48"/>
</a>
</g>
</g>
<!-- Node6&#45;&gt;Node4 -->
<g id="edge8_Node000006_Node000004" class="edge">
<title>Node6&#45;&gt;Node4</title>
<g id="a_edge8_Node000006_Node000004"><a xlink:title=" ">
<path fill="none" stroke="#63b8ff" d="M450.54,-58.03C393.9,-62.92 313.64,-69.86 260.49,-74.45"/>
<polygon fill="#63b8ff" stroke="#63b8ff" points="450.72,-61.52 460.38,-57.18 450.12,-54.55 450.72,-61.52"/>
</a>
</g>
</g>
<!-- Node7 -->
<g id="Node000007" class="node">
<title>Node7</title>
<g id="a_Node000007"><a xlink:href="$class_temperature_controller.html#a8b0a764517c60705322f033be420c628" xlink:title="Set relay control mode.">
<polygon fill="white" stroke="#666666" points="412.5,-30.5 296,-30.5 296,0 412.5,0 412.5,-30.5"/>
<text xml:space="preserve" text-anchor="start" x="304" y="-17" font-family="Helvetica,sans-Serif" font-size="10.00">TemperatureController</text>
<text xml:space="preserve" text-anchor="middle" x="354.25" y="-5.75" font-family="Helvetica,sans-Serif" font-size="10.00">::setRelayControlMode</text>
</a>
</g>
</g>
<!-- Node6&#45;&gt;Node7 -->
<g id="edge7_Node000006_Node000007" class="edge">
<title>Node6&#45;&gt;Node7</title>
<g id="a_edge7_Node000006_Node000007"><a xlink:title=" ">
<path fill="none" stroke="#63b8ff" d="M451.05,-37.11C438.38,-34.22 425.2,-31.21 412.83,-28.39"/>
<polygon fill="#63b8ff" stroke="#63b8ff" points="450.03,-40.47 460.56,-39.28 451.59,-33.65 450.03,-40.47"/>
</a>
</g>
</g>
</g>
</svg>
