<?xml version="1.0" encoding="UTF-8" standalone="no"?>
<!DOCTYPE svg PUBLIC "-//W3C//DTD SVG 1.1//EN"
 "http://www.w3.org/Graphics/SVG/1.1/DTD/svg11.dtd">
<!-- Generated by graphviz version 13.1.0 (20250701.0955)
 -->
<!-- Title: MeasurementPoint::getAddress Pages: 1 -->
<svg width="709pt" height="370pt"
 viewBox="0.00 0.00 709.00 370.00" xmlns="http://www.w3.org/2000/svg" xmlns:xlink="http://www.w3.org/1999/xlink">
<g id="graph0" class="graph" transform="scale(1 1) rotate(0) translate(4 365.5)">
<title>MeasurementPoint::getAddress</title>
<!-- Node1 -->
<g id="Node000001" class="node">
<title>Node1</title>
<g id="a_Node000001"><a xlink:title="Get measurement point address.">
<polygon fill="#999999" stroke="#666666" points="700.75,-183.88 547.5,-183.88 547.5,-164.62 700.75,-164.62 700.75,-183.88"/>
<text xml:space="preserve" text-anchor="middle" x="624.12" y="-170.38" font-family="Helvetica,sans-Serif" font-size="10.00">MeasurementPoint::getAddress</text>
</a>
</g>
</g>
<!-- Node2 -->
<g id="Node000002" class="node">
<title>Node2</title>
<g id="a_Node000002"><a xlink:href="class_c_s_v_config_manager.html#a2c2673398051c26184c9197aa751a6b3" target="_top" xlink:title="Export single measurement point to CSV format.">
<polygon fill="white" stroke="#666666" points="471.75,-361.5 362.75,-361.5 362.75,-331 471.75,-331 471.75,-361.5"/>
<text xml:space="preserve" text-anchor="start" x="370.75" y="-348" font-family="Helvetica,sans-Serif" font-size="10.00">CSVConfigManager::</text>
<text xml:space="preserve" text-anchor="middle" x="417.25" y="-336.75" font-family="Helvetica,sans-Serif" font-size="10.00">_exportPointToCSV</text>
</a>
</g>
</g>
<!-- Node1&#45;&gt;Node2 -->
<g id="edge1_Node000001_Node000002" class="edge">
<title>Node1&#45;&gt;Node2</title>
<g id="a_edge1_Node000001_Node000002"><a xlink:title=" ">
<path fill="none" stroke="#63b8ff" d="M613.53,-194.18C597.15,-226.03 560.75,-288.16 511.5,-321.25 499.81,-329.1 485.76,-334.49 472.14,-338.19"/>
<polygon fill="#63b8ff" stroke="#63b8ff" points="616.46,-196.14 617.8,-185.63 610.2,-193.02 616.46,-196.14"/>
</a>
</g>
</g>
<!-- Node4 -->
<g id="Node000004" class="node">
<title>Node4</title>
<g id="a_Node000004"><a xlink:href="class_config_manager.html#ae605c999fabc6344511f455618655326" target="_top" xlink:title="Setup alarms API endpoints.">
<polygon fill="white" stroke="#666666" points="284,-67.88 150.25,-67.88 150.25,-48.62 284,-48.62 284,-67.88"/>
<text xml:space="preserve" text-anchor="middle" x="217.12" y="-54.38" font-family="Helvetica,sans-Serif" font-size="10.00">ConfigManager::alarmsAPI</text>
</a>
</g>
</g>
<!-- Node1&#45;&gt;Node4 -->
<g id="edge3_Node000001_Node000004" class="edge">
<title>Node1&#45;&gt;Node4</title>
<g id="a_edge3_Node000001_Node000004"><a xlink:title=" ">
<path fill="none" stroke="#63b8ff" d="M608.28,-155.35C588.85,-132.22 552.43,-94.08 511.5,-77.25 438.09,-47.07 345.62,-46.55 284.33,-50.78"/>
<polygon fill="#63b8ff" stroke="#63b8ff" points="605.53,-157.52 614.57,-163.06 610.96,-153.1 605.53,-157.52"/>
</a>
</g>
</g>
<!-- Node6 -->
<g id="Node000006" class="node">
<title>Node6</title>
<g id="a_Node000006"><a xlink:href="class_register_map.html#a1f102e7d0dd51d4750c916fb6e32c37a" target="_top" xlink:title=" ">
<polygon fill="white" stroke="#666666" points="481.88,-263.5 352.62,-263.5 352.62,-233 481.88,-233 481.88,-263.5"/>
<text xml:space="preserve" text-anchor="start" x="360.62" y="-250" font-family="Helvetica,sans-Serif" font-size="10.00">RegisterMap::applyConfig</text>
<text xml:space="preserve" text-anchor="middle" x="417.25" y="-238.75" font-family="Helvetica,sans-Serif" font-size="10.00">FromMeasurementPoint</text>
</a>
</g>
</g>
<!-- Node1&#45;&gt;Node6 -->
<g id="edge5_Node000001_Node000006" class="edge">
<title>Node1&#45;&gt;Node6</title>
<g id="a_edge5_Node000001_Node000006"><a xlink:title=" ">
<path fill="none" stroke="#63b8ff" d="M592.8,-189.06C570.63,-199.51 539.64,-213.36 511.5,-223.25 502.09,-226.56 492.02,-229.67 482.1,-232.52"/>
<polygon fill="#63b8ff" stroke="#63b8ff" points="594.04,-192.34 601.56,-184.88 591.03,-186.03 594.04,-192.34"/>
</a>
</g>
</g>
<!-- Node7 -->
<g id="Node000007" class="node">
<title>Node7</title>
<g id="a_Node000007"><a xlink:href="class_register_map.html#aa2f819b22096b8c14c421b415f7e83b7" target="_top" xlink:title=" ">
<polygon fill="white" stroke="#666666" points="481.88,-214.5 352.62,-214.5 352.62,-184 481.88,-184 481.88,-214.5"/>
<text xml:space="preserve" text-anchor="start" x="360.62" y="-201" font-family="Helvetica,sans-Serif" font-size="10.00">RegisterMap::applyConfig</text>
<text xml:space="preserve" text-anchor="middle" x="417.25" y="-189.75" font-family="Helvetica,sans-Serif" font-size="10.00">ToMeasurementPoint</text>
</a>
</g>
</g>
<!-- Node1&#45;&gt;Node7 -->
<g id="edge6_Node000001_Node000007" class="edge">
<title>Node1&#45;&gt;Node7</title>
<g id="a_edge6_Node000001_Node000007"><a xlink:title=" ">
<path fill="none" stroke="#63b8ff" d="M535.77,-184.91C517.85,-187.1 499.29,-189.36 482.37,-191.43"/>
<polygon fill="#63b8ff" stroke="#63b8ff" points="536.12,-188.39 545.63,-183.71 535.28,-181.44 536.12,-188.39"/>
</a>
</g>
</g>
<!-- Node8 -->
<g id="Node000008" class="node">
<title>Node8</title>
<g id="a_Node000008"><a xlink:href="class_temperature_controller.html#aa64384fb8503814b46a7d55f53ccb53a" target="_top" xlink:title=" ">
<polygon fill="white" stroke="#666666" points="473.25,-312.5 361.25,-312.5 361.25,-282 473.25,-282 473.25,-312.5"/>
<text xml:space="preserve" text-anchor="start" x="369.25" y="-299" font-family="Helvetica,sans-Serif" font-size="10.00">TemperatureController</text>
<text xml:space="preserve" text-anchor="middle" x="417.25" y="-287.75" font-family="Helvetica,sans-Serif" font-size="10.00">::createAlarm</text>
</a>
</g>
</g>
<!-- Node1&#45;&gt;Node8 -->
<g id="edge7_Node000001_Node000008" class="edge">
<title>Node1&#45;&gt;Node8</title>
<g id="a_edge7_Node000001_Node000008"><a xlink:title=" ">
<path fill="none" stroke="#63b8ff" d="M607.11,-192.75C586.97,-214.87 550.3,-251.49 511.5,-272.25 499.82,-278.5 486.47,-283.27 473.6,-286.88"/>
<polygon fill="#63b8ff" stroke="#63b8ff" points="609.64,-195.17 613.68,-185.38 604.41,-190.52 609.64,-195.17"/>
</a>
</g>
</g>
<!-- Node10 -->
<g id="Node000010" class="node">
<title>Node10</title>
<g id="a_Node000010"><a xlink:href="class_temperature_controller.html#add39ba7dad38449bbf1787a5c9c51ef9" target="_top" xlink:title=" ">
<polygon fill="white" stroke="#666666" points="473.25,-116.5 361.25,-116.5 361.25,-86 473.25,-86 473.25,-116.5"/>
<text xml:space="preserve" text-anchor="start" x="369.25" y="-103" font-family="Helvetica,sans-Serif" font-size="10.00">TemperatureController</text>
<text xml:space="preserve" text-anchor="middle" x="417.25" y="-91.75" font-family="Helvetica,sans-Serif" font-size="10.00">::getPointsJson</text>
</a>
</g>
</g>
<!-- Node1&#45;&gt;Node10 -->
<g id="edge9_Node000001_Node000010" class="edge">
<title>Node1&#45;&gt;Node10</title>
<g id="a_edge9_Node000001_Node000010"><a xlink:title=" ">
<path fill="none" stroke="#63b8ff" d="M592.06,-159.46C569.92,-149.27 539.29,-135.89 511.5,-126.25 499.31,-122.02 486.01,-118.07 473.38,-114.62"/>
<polygon fill="#63b8ff" stroke="#63b8ff" points="590.58,-162.63 601.12,-163.67 593.53,-156.28 590.58,-162.63"/>
</a>
</g>
</g>
<!-- Node11 -->
<g id="Node000011" class="node">
<title>Node11</title>
<g id="a_Node000011"><a xlink:href="class_config_manager.html#a55b79da91c57039c483ddf5fceabbd64" target="_top" xlink:title="Save measurement points configuration to file.">
<polygon fill="white" stroke="#666666" points="485.62,-165.5 348.88,-165.5 348.88,-135 485.62,-135 485.62,-165.5"/>
<text xml:space="preserve" text-anchor="start" x="356.88" y="-152" font-family="Helvetica,sans-Serif" font-size="10.00">ConfigManager::savePoints</text>
<text xml:space="preserve" text-anchor="middle" x="417.25" y="-140.75" font-family="Helvetica,sans-Serif" font-size="10.00">Config</text>
</a>
</g>
</g>
<!-- Node1&#45;&gt;Node11 -->
<g id="edge10_Node000001_Node000011" class="edge">
<title>Node1&#45;&gt;Node11</title>
<g id="a_edge10_Node000001_Node000011"><a xlink:title=" ">
<path fill="none" stroke="#63b8ff" d="M535.72,-164.01C519.09,-162.06 501.92,-160.05 486.02,-158.19"/>
<polygon fill="#63b8ff" stroke="#63b8ff" points="535.29,-167.48 545.62,-165.17 536.1,-160.53 535.29,-167.48"/>
</a>
</g>
</g>
<!-- Node16 -->
<g id="Node000016" class="node">
<title>Node16</title>
<g id="a_Node000016"><a xlink:href="class_register_map.html#a2940213459a183fc06a2226f1cd1a48b" target="_top" xlink:title=" ">
<polygon fill="white" stroke="#666666" points="511.5,-30.5 323,-30.5 323,0 511.5,0 511.5,-30.5"/>
<text xml:space="preserve" text-anchor="start" x="331" y="-17" font-family="Helvetica,sans-Serif" font-size="10.00">RegisterMap::updateFromMeasurement</text>
<text xml:space="preserve" text-anchor="middle" x="417.25" y="-5.75" font-family="Helvetica,sans-Serif" font-size="10.00">Point</text>
</a>
</g>
</g>
<!-- Node1&#45;&gt;Node16 -->
<g id="edge19_Node000001_Node000016" class="edge">
<title>Node1&#45;&gt;Node16</title>
<g id="a_edge19_Node000001_Node000016"><a xlink:title=" ">
<path fill="none" stroke="#63b8ff" d="M611.55,-154.88C593.62,-126.5 556.47,-73.8 511.5,-44.25 503.42,-38.94 494.32,-34.56 485.05,-30.96"/>
<polygon fill="#63b8ff" stroke="#63b8ff" points="608.44,-156.5 616.66,-163.17 614.4,-152.82 608.44,-156.5"/>
</a>
</g>
</g>
<!-- Node3 -->
<g id="Node000003" class="node">
<title>Node3</title>
<g id="a_Node000003"><a xlink:href="class_c_s_v_config_manager.html#a1c6cbc4c8a132762bf16a8ce9f7d0bfc" target="_top" xlink:title="Export measurement points with alarm configuration to CSV.">
<polygon fill="white" stroke="#666666" points="285.12,-361.5 149.12,-361.5 149.12,-331 285.12,-331 285.12,-361.5"/>
<text xml:space="preserve" text-anchor="start" x="157.12" y="-348" font-family="Helvetica,sans-Serif" font-size="10.00">CSVConfigManager::export</text>
<text xml:space="preserve" text-anchor="middle" x="217.12" y="-336.75" font-family="Helvetica,sans-Serif" font-size="10.00">PointsWithAlarmsToCSV</text>
</a>
</g>
</g>
<!-- Node2&#45;&gt;Node3 -->
<g id="edge2_Node000002_Node000003" class="edge">
<title>Node2&#45;&gt;Node3</title>
<g id="a_edge2_Node000002_Node000003"><a xlink:title=" ">
<path fill="none" stroke="#63b8ff" d="M350.96,-346.25C329.94,-346.25 306.62,-346.25 285.45,-346.25"/>
<polygon fill="#63b8ff" stroke="#63b8ff" points="350.86,-349.75 360.86,-346.25 350.86,-342.75 350.86,-349.75"/>
</a>
</g>
</g>
<!-- Node5 -->
<g id="Node000005" class="node">
<title>Node5</title>
<g id="a_Node000005"><a xlink:href="class_config_manager.html#a0497343220fc493f5cf9574922508908" target="_top" xlink:title="Initialize the configuration system.">
<polygon fill="white" stroke="#666666" points="111.25,-180.88 0,-180.88 0,-161.62 111.25,-161.62 111.25,-180.88"/>
<text xml:space="preserve" text-anchor="middle" x="55.62" y="-167.38" font-family="Helvetica,sans-Serif" font-size="10.00">ConfigManager::begin</text>
</a>
</g>
</g>
<!-- Node4&#45;&gt;Node5 -->
<g id="edge4_Node000004_Node000005" class="edge">
<title>Node4&#45;&gt;Node5</title>
<g id="a_edge4_Node000004_Node000005"><a xlink:title=" ">
<path fill="none" stroke="#63b8ff" d="M156.51,-72.46C153.3,-73.91 150.19,-75.5 147.25,-77.25 109.45,-99.73 76.9,-142.12 63.35,-161.33"/>
<polygon fill="#63b8ff" stroke="#63b8ff" points="157.58,-75.8 165.58,-68.85 155,-69.29 157.58,-75.8"/>
</a>
</g>
</g>
<!-- Node9 -->
<g id="Node000009" class="node">
<title>Node9</title>
<g id="a_Node000009"><a xlink:href="class_temperature_controller.html#a27da8ccc3effea555f440ce3e6f89b08" target="_top" xlink:title=" ">
<polygon fill="white" stroke="#666666" points="277.62,-312.5 156.62,-312.5 156.62,-282 277.62,-282 277.62,-312.5"/>
<text xml:space="preserve" text-anchor="start" x="164.62" y="-299" font-family="Helvetica,sans-Serif" font-size="10.00">TemperatureController</text>
<text xml:space="preserve" text-anchor="middle" x="217.12" y="-287.75" font-family="Helvetica,sans-Serif" font-size="10.00">::_checkPointForAlarms</text>
</a>
</g>
</g>
<!-- Node8&#45;&gt;Node9 -->
<g id="edge8_Node000008_Node000009" class="edge">
<title>Node8&#45;&gt;Node9</title>
<g id="a_edge8_Node000008_Node000009"><a xlink:title=" ">
<path fill="none" stroke="#63b8ff" d="M349.35,-297.25C326.27,-297.25 300.57,-297.25 278.08,-297.25"/>
<polygon fill="#63b8ff" stroke="#63b8ff" points="349.28,-300.75 359.28,-297.25 349.28,-293.75 349.28,-300.75"/>
</a>
</g>
</g>
<!-- Node11&#45;&gt;Node4 -->
<g id="edge11_Node000011_Node000004" class="edge">
<title>Node11&#45;&gt;Node4</title>
<g id="a_edge11_Node000011_Node000004"><a xlink:title=" ">
<path fill="none" stroke="#63b8ff" d="M338.21,-133.68C332.87,-131.25 327.74,-128.45 323,-125.25 300.91,-110.31 309.04,-92.27 287,-77.25 281.67,-73.62 275.66,-70.68 269.48,-68.3"/>
<polygon fill="#63b8ff" stroke="#63b8ff" points="336.69,-136.85 347.27,-137.37 339.33,-130.36 336.69,-136.85"/>
</a>
</g>
</g>
<!-- Node12 -->
<g id="Node000012" class="node">
<title>Node12</title>
<g id="a_Node000012"><a xlink:href="class_config_manager.html#a9b7af07b85bf9cc3ac05603db6e89fd2" target="_top" xlink:title="Setup CSV import/export API endpoints.">
<polygon fill="white" stroke="#666666" points="282.88,-165.5 151.38,-165.5 151.38,-135 282.88,-135 282.88,-165.5"/>
<text xml:space="preserve" text-anchor="start" x="159.38" y="-152" font-family="Helvetica,sans-Serif" font-size="10.00">ConfigManager::csvImport</text>
<text xml:space="preserve" text-anchor="middle" x="217.12" y="-140.75" font-family="Helvetica,sans-Serif" font-size="10.00">ExportAPI</text>
</a>
</g>
</g>
<!-- Node11&#45;&gt;Node12 -->
<g id="edge12_Node000011_Node000012" class="edge">
<title>Node11&#45;&gt;Node12</title>
<g id="a_edge12_Node000011_Node000012"><a xlink:title=" ">
<path fill="none" stroke="#63b8ff" d="M337.27,-150.25C319.3,-150.25 300.42,-150.25 283.11,-150.25"/>
<polygon fill="#63b8ff" stroke="#63b8ff" points="337.11,-153.75 347.11,-150.25 337.11,-146.75 337.11,-153.75"/>
</a>
</g>
</g>
<!-- Node13 -->
<g id="Node000013" class="node">
<title>Node13</title>
<g id="a_Node000013"><a xlink:href="class_config_manager.html#a471a844085c27f3a8a8f9394d9c14677" target="_top" xlink:title="Setup measurement points API endpoints.">
<polygon fill="white" stroke="#666666" points="282.5,-239.88 151.75,-239.88 151.75,-220.62 282.5,-220.62 282.5,-239.88"/>
<text xml:space="preserve" text-anchor="middle" x="217.12" y="-226.38" font-family="Helvetica,sans-Serif" font-size="10.00">ConfigManager::pointsAPI</text>
</a>
</g>
</g>
<!-- Node11&#45;&gt;Node13 -->
<g id="edge14_Node000011_Node000013" class="edge">
<title>Node11&#45;&gt;Node13</title>
<g id="a_edge14_Node000011_Node000013"><a xlink:title=" ">
<path fill="none" stroke="#63b8ff" d="M338.36,-167.64C333.02,-169.88 327.85,-172.41 323,-175.25 303.21,-186.86 306.83,-200.7 287,-212.25 281.55,-215.42 275.54,-218.04 269.41,-220.21"/>
<polygon fill="#63b8ff" stroke="#63b8ff" points="339.26,-171.04 347.35,-164.2 336.76,-164.5 339.26,-171.04"/>
</a>
</g>
</g>
<!-- Node14 -->
<g id="Node000014" class="node">
<title>Node14</title>
<g id="a_Node000014"><a xlink:href="class_config_manager.html#a45b1ce1f09401af0b6f700cf4388b233" target="_top" xlink:title="Setup sensor&#45;related API endpoints.">
<polygon fill="white" stroke="#666666" points="284,-202.88 150.25,-202.88 150.25,-183.62 284,-183.62 284,-202.88"/>
<text xml:space="preserve" text-anchor="middle" x="217.12" y="-189.38" font-family="Helvetica,sans-Serif" font-size="10.00">ConfigManager::sensorAPI</text>
</a>
</g>
</g>
<!-- Node11&#45;&gt;Node14 -->
<g id="edge16_Node000011_Node000014" class="edge">
<title>Node11&#45;&gt;Node14</title>
<g id="a_edge16_Node000011_Node000014"><a xlink:title=" ">
<path fill="none" stroke="#63b8ff" d="M337.42,-167.36C312.72,-172.72 286.26,-178.46 264.56,-183.17"/>
<polygon fill="#63b8ff" stroke="#63b8ff" points="338.11,-170.79 347.14,-165.25 336.63,-163.95 338.11,-170.79"/>
</a>
</g>
</g>
<!-- Node15 -->
<g id="Node000015" class="node">
<title>Node15</title>
<g id="a_Node000015"><a xlink:href="class_config_manager.html#a0daf50bbd376beb24a5400a86e893338" target="_top" xlink:title="Update a measurement point in configuration.">
<polygon fill="white" stroke="#666666" points="287,-116.5 147.25,-116.5 147.25,-86 287,-86 287,-116.5"/>
<text xml:space="preserve" text-anchor="start" x="155.25" y="-103" font-family="Helvetica,sans-Serif" font-size="10.00">ConfigManager::updatePoint</text>
<text xml:space="preserve" text-anchor="middle" x="217.12" y="-91.75" font-family="Helvetica,sans-Serif" font-size="10.00">InConfig</text>
</a>
</g>
</g>
<!-- Node11&#45;&gt;Node15 -->
<g id="edge18_Node000011_Node000015" class="edge">
<title>Node11&#45;&gt;Node15</title>
<g id="a_edge18_Node000011_Node000015"><a xlink:title=" ">
<path fill="none" stroke="#63b8ff" d="M341.62,-131.79C321.86,-126.9 300.72,-121.68 281.61,-116.95"/>
<polygon fill="#63b8ff" stroke="#63b8ff" points="340.73,-135.18 351.28,-134.18 342.41,-128.38 340.73,-135.18"/>
</a>
</g>
</g>
<!-- Node12&#45;&gt;Node5 -->
<g id="edge13_Node000012_Node000005" class="edge">
<title>Node12&#45;&gt;Node5</title>
<g id="a_edge13_Node000012_Node000005"><a xlink:title=" ">
<path fill="none" stroke="#63b8ff" d="M140.09,-160.26C130.53,-161.52 120.89,-162.79 111.74,-163.99"/>
<polygon fill="#63b8ff" stroke="#63b8ff" points="140.29,-163.76 149.75,-158.99 139.38,-156.82 140.29,-163.76"/>
</a>
</g>
</g>
<!-- Node13&#45;&gt;Node5 -->
<g id="edge15_Node000013_Node000005" class="edge">
<title>Node13&#45;&gt;Node5</title>
<g id="a_edge15_Node000013_Node000005"><a xlink:title=" ">
<path fill="none" stroke="#63b8ff" d="M162.11,-217.07C157.05,-215.56 152.03,-213.94 147.25,-212.25 122.18,-203.38 94.48,-190.34 76.38,-181.36"/>
<polygon fill="#63b8ff" stroke="#63b8ff" points="161.13,-220.43 171.71,-219.81 163.05,-213.7 161.13,-220.43"/>
</a>
</g>
</g>
<!-- Node14&#45;&gt;Node5 -->
<g id="edge17_Node000014_Node000005" class="edge">
<title>Node14&#45;&gt;Node5</title>
<g id="a_edge17_Node000014_Node000005"><a xlink:title=" ">
<path fill="none" stroke="#63b8ff" d="M138.65,-182.56C129.41,-181.29 120.12,-180.01 111.29,-178.79"/>
<polygon fill="#63b8ff" stroke="#63b8ff" points="137.98,-186.01 148.37,-183.9 138.94,-179.07 137.98,-186.01"/>
</a>
</g>
</g>
</g>
</svg>
