<?xml version="1.0" encoding="UTF-8" standalone="no"?>
<!DOCTYPE svg PUBLIC "-//W3C//DTD SVG 1.1//EN"
 "http://www.w3.org/Graphics/SVG/1.1/DTD/svg11.dtd">
<!-- Generated by graphviz version 13.1.0 (20250701.0955)
 -->
<!-- Title: Alarm::setHysteresis Pages: 1 -->
<svg width="260pt" height="64pt"
 viewBox="0.00 0.00 260.00 64.00" xmlns="http://www.w3.org/2000/svg" xmlns:xlink="http://www.w3.org/1999/xlink">
<g id="graph0" class="graph" transform="scale(1 1) rotate(0) translate(4 60.25)">
<title>Alarm::setHysteresis</title>
<!-- Node1 -->
<g id="Node000001" class="node">
<title>Node1</title>
<g id="a_Node000001"><a xlink:title=" ">
<polygon fill="#999999" stroke="#666666" points="108.25,-37.25 0,-37.25 0,-18 108.25,-18 108.25,-37.25"/>
<text xml:space="preserve" text-anchor="middle" x="54.12" y="-23.75" font-family="Helvetica,sans-Serif" font-size="10.00">Alarm::setHysteresis</text>
</a>
</g>
</g>
<!-- Node2 -->
<g id="Node000002" class="node">
<title>Node2</title>
<g id="a_Node000002"><a xlink:href="class_alarm.html#abd578ec75a5ac9bce00b7ce7207c5d8c" target="_top" xlink:title=" ">
<polygon fill="white" stroke="#666666" points="251.75,-56.25 144.25,-56.25 144.25,-37 251.75,-37 251.75,-56.25"/>
<text xml:space="preserve" text-anchor="middle" x="198" y="-42.75" font-family="Helvetica,sans-Serif" font-size="10.00">Alarm::getTypeString</text>
</a>
</g>
</g>
<!-- Node1&#45;&gt;Node2 -->
<g id="edge1_Node000001_Node000002" class="edge">
<title>Node1&#45;&gt;Node2</title>
<g id="a_edge1_Node000001_Node000002"><a xlink:title=" ">
<path fill="none" stroke="#63b8ff" d="M108.36,-34.75C116.27,-35.81 124.49,-36.91 132.6,-38"/>
<polygon fill="#63b8ff" stroke="#63b8ff" points="132.06,-41.46 142.44,-39.32 132.99,-34.52 132.06,-41.46"/>
</a>
</g>
</g>
<!-- Node3 -->
<g id="Node000003" class="node">
<title>Node3</title>
<g id="a_Node000003"><a xlink:href="class_logger_manager.html#a5c1373ccc47f4112b596fe6f84fbbc21" target="_top" xlink:title=" ">
<polygon fill="white" stroke="#666666" points="250.25,-19.25 145.75,-19.25 145.75,0 250.25,0 250.25,-19.25"/>
<text xml:space="preserve" text-anchor="middle" x="198" y="-5.75" font-family="Helvetica,sans-Serif" font-size="10.00">LoggerManager::info</text>
</a>
</g>
</g>
<!-- Node1&#45;&gt;Node3 -->
<g id="edge2_Node000001_Node000003" class="edge">
<title>Node1&#45;&gt;Node3</title>
<g id="a_edge2_Node000001_Node000003"><a xlink:title=" ">
<path fill="none" stroke="#63b8ff" d="M108.36,-20.87C116.78,-19.8 125.55,-18.69 134.17,-17.6"/>
<polygon fill="#63b8ff" stroke="#63b8ff" points="134.37,-21.1 143.85,-16.37 133.49,-14.15 134.37,-21.1"/>
</a>
</g>
</g>
</g>
</svg>
