<?xml version="1.0" encoding="UTF-8" standalone="no"?>
<!DOCTYPE svg PUBLIC "-//W3C//DTD SVG 1.1//EN"
 "http://www.w3.org/Graphics/SVG/1.1/DTD/svg11.dtd">
<!-- Generated by graphviz version 13.1.0 (20250701.0955)
 -->
<!-- Title: Sensor::setupDS18B20 Pages: 1 -->
<svg width="447pt" height="88pt"
 viewBox="0.00 0.00 447.00 88.00" xmlns="http://www.w3.org/2000/svg" xmlns:xlink="http://www.w3.org/1999/xlink">
<g id="graph0" class="graph" transform="scale(1 1) rotate(0) translate(4 83.5)">
<title>Sensor::setupDS18B20</title>
<!-- Node1 -->
<g id="Node000001" class="node">
<title>Node1</title>
<g id="a_Node000001"><a xlink:title=" ">
<polygon fill="#999999" stroke="#666666" points="438.75,-48.88 320,-48.88 320,-29.62 438.75,-29.62 438.75,-48.88"/>
<text xml:space="preserve" text-anchor="middle" x="379.38" y="-35.38" font-family="Helvetica,sans-Serif" font-size="10.00">Sensor::setupDS18B20</text>
</a>
</g>
</g>
<!-- Node2 -->
<g id="Node000002" class="node">
<title>Node2</title>
<g id="a_Node000002"><a xlink:href="class_temperature_controller.html#a57b74b40c88016965d07248981412f7d" target="_top" xlink:title=" ">
<polygon fill="white" stroke="#666666" points="284,-79.5 147.25,-79.5 147.25,-49 284,-49 284,-79.5"/>
<text xml:space="preserve" text-anchor="start" x="155.25" y="-66" font-family="Helvetica,sans-Serif" font-size="10.00">TemperatureController</text>
<text xml:space="preserve" text-anchor="middle" x="215.62" y="-54.75" font-family="Helvetica,sans-Serif" font-size="10.00">::discoverDS18B20Sensors</text>
</a>
</g>
</g>
<!-- Node1&#45;&gt;Node2 -->
<g id="edge1_Node000001_Node000002" class="edge">
<title>Node1&#45;&gt;Node2</title>
<g id="a_edge1_Node000001_Node000002"><a xlink:title=" ">
<path fill="none" stroke="#63b8ff" d="M308.15,-50.1C300.3,-51.32 292.31,-52.55 284.49,-53.76"/>
<polygon fill="#63b8ff" stroke="#63b8ff" points="308.68,-53.56 318.03,-48.58 307.61,-46.65 308.68,-53.56"/>
</a>
</g>
</g>
<!-- Node3 -->
<g id="Node000003" class="node">
<title>Node3</title>
<g id="a_Node000003"><a xlink:href="class_config_manager.html#a04edc14e642ecadb9ccb87be05d1d878" target="_top" xlink:title="Load measurement points configuration from file.">
<polygon fill="white" stroke="#666666" points="282.5,-30.5 148.75,-30.5 148.75,0 282.5,0 282.5,-30.5"/>
<text xml:space="preserve" text-anchor="start" x="156.75" y="-17" font-family="Helvetica,sans-Serif" font-size="10.00">ConfigManager::loadPoints</text>
<text xml:space="preserve" text-anchor="middle" x="215.62" y="-5.75" font-family="Helvetica,sans-Serif" font-size="10.00">Config</text>
</a>
</g>
</g>
<!-- Node1&#45;&gt;Node3 -->
<g id="edge2_Node000001_Node000003" class="edge">
<title>Node1&#45;&gt;Node3</title>
<g id="a_edge2_Node000001_Node000003"><a xlink:title=" ">
<path fill="none" stroke="#63b8ff" d="M308.18,-28.83C299.76,-27.59 291.18,-26.31 282.83,-25.07"/>
<polygon fill="#63b8ff" stroke="#63b8ff" points="307.62,-32.29 318.02,-30.3 308.65,-25.37 307.62,-32.29"/>
</a>
</g>
</g>
<!-- Node4 -->
<g id="Node000004" class="node">
<title>Node4</title>
<g id="a_Node000004"><a xlink:href="class_config_manager.html#a0497343220fc493f5cf9574922508908" target="_top" xlink:title="Initialize the configuration system.">
<polygon fill="white" stroke="#666666" points="111.25,-24.88 0,-24.88 0,-5.63 111.25,-5.63 111.25,-24.88"/>
<text xml:space="preserve" text-anchor="middle" x="55.62" y="-11.38" font-family="Helvetica,sans-Serif" font-size="10.00">ConfigManager::begin</text>
</a>
</g>
</g>
<!-- Node3&#45;&gt;Node4 -->
<g id="edge3_Node000003_Node000004" class="edge">
<title>Node3&#45;&gt;Node4</title>
<g id="a_edge3_Node000003_Node000004"><a xlink:title=" ">
<path fill="none" stroke="#63b8ff" d="M137.16,-15.25C128.48,-15.25 119.77,-15.25 111.45,-15.25"/>
<polygon fill="#63b8ff" stroke="#63b8ff" points="137.02,-18.75 147.02,-15.25 137.02,-11.75 137.02,-18.75"/>
</a>
</g>
</g>
</g>
</svg>
