<?xml version="1.0" encoding="UTF-8" standalone="no"?>
<!DOCTYPE svg PUBLIC "-//W3C//DTD SVG 1.1//EN"
 "http://www.w3.org/Graphics/SVG/1.1/DTD/svg11.dtd">
<!-- Generated by graphviz version 13.1.0 (20250701.0955)
 -->
<!-- Title: ConfigManager::getAcknowledgedDelayCritical Pages: 1 -->
<svg width="490pt" height="52pt"
 viewBox="0.00 0.00 490.00 52.00" xmlns="http://www.w3.org/2000/svg" xmlns:xlink="http://www.w3.org/1999/xlink">
<g id="graph0" class="graph" transform="scale(1 1) rotate(0) translate(4 47.88)">
<title>ConfigManager::getAcknowledgedDelayCritical</title>
<!-- Node1 -->
<g id="Node000001" class="node">
<title>Node1</title>
<g id="a_Node000001"><a xlink:title="Get acknowledged delay for critical priority alarms.">
<polygon fill="#999999" stroke="#666666" points="482.25,-30.5 317,-30.5 317,0 482.25,0 482.25,-30.5"/>
<text xml:space="preserve" text-anchor="start" x="325" y="-17" font-family="Helvetica,sans-Serif" font-size="10.00">ConfigManager::getAcknowledged</text>
<text xml:space="preserve" text-anchor="middle" x="399.62" y="-5.75" font-family="Helvetica,sans-Serif" font-size="10.00">DelayCritical</text>
</a>
</g>
</g>
<!-- Node2 -->
<g id="Node000002" class="node">
<title>Node2</title>
<g id="a_Node000002"><a xlink:href="$class_config_manager.html#ae605c999fabc6344511f455618655326" xlink:title="Setup alarms API endpoints.">
<polygon fill="white" stroke="#666666" points="281,-43.88 147.25,-43.88 147.25,-24.62 281,-24.62 281,-43.88"/>
<text xml:space="preserve" text-anchor="middle" x="214.12" y="-30.38" font-family="Helvetica,sans-Serif" font-size="10.00">ConfigManager::alarmsAPI</text>
</a>
</g>
</g>
<!-- Node1&#45;&gt;Node2 -->
<g id="edge1_Node000001_Node000002" class="edge">
<title>Node1&#45;&gt;Node2</title>
<g id="a_edge1_Node000001_Node000002"><a xlink:title=" ">
<path fill="none" stroke="#63b8ff" d="M305.22,-24.92C297.2,-25.75 289.2,-26.58 281.46,-27.38"/>
<polygon fill="#63b8ff" stroke="#63b8ff" points="305.44,-28.42 315.03,-23.91 304.72,-21.45 305.44,-28.42"/>
</a>
</g>
</g>
<!-- Node3 -->
<g id="Node000003" class="node">
<title>Node3</title>
<g id="a_Node000003"><a xlink:href="$class_config_manager.html#a0497343220fc493f5cf9574922508908" xlink:title="Initialize the configuration system.">
<polygon fill="white" stroke="#666666" points="111.25,-24.88 0,-24.88 0,-5.63 111.25,-5.63 111.25,-24.88"/>
<text xml:space="preserve" text-anchor="middle" x="55.62" y="-11.38" font-family="Helvetica,sans-Serif" font-size="10.00">ConfigManager::begin</text>
</a>
</g>
</g>
<!-- Node1&#45;&gt;Node3 -->
<g id="edge3_Node000001_Node000003" class="edge">
<title>Node1&#45;&gt;Node3</title>
<g id="a_edge3_Node000001_Node000003"><a xlink:title=" ">
<path fill="none" stroke="#63b8ff" d="M305.33,-15.25C243.29,-15.25 163.9,-15.25 111.72,-15.25"/>
<polygon fill="#63b8ff" stroke="#63b8ff" points="305.19,-18.75 315.19,-15.25 305.19,-11.75 305.19,-18.75"/>
</a>
</g>
</g>
<!-- Node2&#45;&gt;Node3 -->
<g id="edge2_Node000002_Node000003" class="edge">
<title>Node2&#45;&gt;Node3</title>
<g id="a_edge2_Node000002_Node000003"><a xlink:title=" ">
<path fill="none" stroke="#63b8ff" d="M135.59,-24.84C127.37,-23.84 119.14,-22.84 111.27,-21.88"/>
<polygon fill="#63b8ff" stroke="#63b8ff" points="134.9,-28.28 145.25,-26.01 135.75,-21.33 134.9,-28.28"/>
</a>
</g>
</g>
</g>
</svg>
