<?xml version="1.0" encoding="UTF-8" standalone="no"?>
<!DOCTYPE svg PUBLIC "-//W3C//DTD SVG 1.1//EN"
 "http://www.w3.org/Graphics/SVG/1.1/DTD/svg11.dtd">
<!-- Generated by graphviz version 13.1.0 (20250701.0955)
 -->
<!-- Title: LoggerManager::_recoverFromExistingFiles Pages: 1 -->
<svg width="541pt" height="272pt"
 viewBox="0.00 0.00 541.00 272.00" xmlns="http://www.w3.org/2000/svg" xmlns:xlink="http://www.w3.org/1999/xlink">
<g id="graph0" class="graph" transform="scale(1 1) rotate(0) translate(4 267.5)">
<title>LoggerManager::_recoverFromExistingFiles</title>
<!-- Node1 -->
<g id="Node000001" class="node">
<title>Node1</title>
<g id="a_Node000001"><a xlink:title=" ">
<polygon fill="#999999" stroke="#666666" points="148.75,-149.5 0,-149.5 0,-119 148.75,-119 148.75,-149.5"/>
<text xml:space="preserve" text-anchor="start" x="8" y="-136" font-family="Helvetica,sans-Serif" font-size="10.00">LoggerManager::_recoverFrom</text>
<text xml:space="preserve" text-anchor="middle" x="74.38" y="-124.75" font-family="Helvetica,sans-Serif" font-size="10.00">ExistingFiles</text>
</a>
</g>
</g>
<!-- Node2 -->
<g id="Node000002" class="node">
<title>Node2</title>
<g id="a_Node000002"><a xlink:href="class_logger_manager.html#a0efdffdaa8b90ec4a896c5ac52cd2856" target="_top" xlink:title=" ">
<polygon fill="white" stroke="#666666" points="328.62,-263.5 185.12,-263.5 185.12,-233 328.62,-233 328.62,-263.5"/>
<text xml:space="preserve" text-anchor="start" x="193.12" y="-250" font-family="Helvetica,sans-Serif" font-size="10.00">LoggerManager::_findHighest</text>
<text xml:space="preserve" text-anchor="middle" x="256.88" y="-238.75" font-family="Helvetica,sans-Serif" font-size="10.00">SequenceForDate</text>
</a>
</g>
</g>
<!-- Node1&#45;&gt;Node2 -->
<g id="edge1_Node000001_Node000002" class="edge">
<title>Node1&#45;&gt;Node2</title>
<g id="a_edge1_Node000001_Node000002"><a xlink:title=" ">
<path fill="none" stroke="#63b8ff" d="M90.76,-149.72C110.84,-169.19 147.8,-202.56 184.75,-223.25 187.74,-224.92 190.86,-226.51 194.05,-228.03"/>
<polygon fill="#63b8ff" stroke="#63b8ff" points="192.48,-231.16 203.04,-231.96 195.28,-224.74 192.48,-231.16"/>
</a>
</g>
</g>
<!-- Node4 -->
<g id="Node000004" class="node">
<title>Node4</title>
<g id="a_Node000004"><a xlink:href="class_logger_manager.html#a21b4985f38a484ab83b984ab285ea32e" target="_top" xlink:title=" ">
<polygon fill="white" stroke="#666666" points="513,-214.5 384.5,-214.5 384.5,-184 513,-184 513,-214.5"/>
<text xml:space="preserve" text-anchor="start" x="392.5" y="-201" font-family="Helvetica,sans-Serif" font-size="10.00">LoggerManager::_getFiles</text>
<text xml:space="preserve" text-anchor="middle" x="448.75" y="-189.75" font-family="Helvetica,sans-Serif" font-size="10.00">ForDate</text>
</a>
</g>
</g>
<!-- Node1&#45;&gt;Node4 -->
<g id="edge11_Node000001_Node000004" class="edge">
<title>Node1&#45;&gt;Node4</title>
<g id="a_edge11_Node000001_Node000004"><a xlink:title=" ">
<path fill="none" stroke="#63b8ff" d="M149.03,-145.38C199.72,-153.23 268.55,-164.26 329,-175.25 343.26,-177.84 358.46,-180.78 373.04,-183.69"/>
<polygon fill="#63b8ff" stroke="#63b8ff" points="372.08,-187.06 382.57,-185.6 373.45,-180.2 372.08,-187.06"/>
</a>
</g>
</g>
<!-- Node5 -->
<g id="Node000005" class="node">
<title>Node5</title>
<g id="a_Node000005"><a xlink:href="class_logger_manager.html#a485fea5149ef2e0199671ad2dcadbcf4" target="_top" xlink:title=" ">
<polygon fill="white" stroke="#666666" points="325.25,-214.5 188.5,-214.5 188.5,-184 325.25,-184 325.25,-214.5"/>
<text xml:space="preserve" text-anchor="start" x="196.5" y="-201" font-family="Helvetica,sans-Serif" font-size="10.00">LoggerManager::_findLatest</text>
<text xml:space="preserve" text-anchor="middle" x="256.88" y="-189.75" font-family="Helvetica,sans-Serif" font-size="10.00">FileForDate</text>
</a>
</g>
</g>
<!-- Node1&#45;&gt;Node5 -->
<g id="edge4_Node000001_Node000005" class="edge">
<title>Node1&#45;&gt;Node5</title>
<g id="a_edge4_Node000001_Node000005"><a xlink:title=" ">
<path fill="none" stroke="#63b8ff" d="M119.07,-149.98C143.92,-158.93 175.26,-170.22 201.67,-179.73"/>
<polygon fill="#63b8ff" stroke="#63b8ff" points="200.25,-182.94 210.85,-183.03 202.62,-176.35 200.25,-182.94"/>
</a>
</g>
</g>
<!-- Node6 -->
<g id="Node000006" class="node">
<title>Node6</title>
<g id="a_Node000006"><a xlink:href="class_logger_manager.html#aab43f573f73cfe426cfbea04a9fdd3ee" target="_top" xlink:title=" ">
<polygon fill="white" stroke="#666666" points="322.62,-128.5 191.12,-128.5 191.12,-98 322.62,-98 322.62,-128.5"/>
<text xml:space="preserve" text-anchor="start" x="199.12" y="-115" font-family="Helvetica,sans-Serif" font-size="10.00">LoggerManager::_generate</text>
<text xml:space="preserve" text-anchor="middle" x="256.88" y="-103.75" font-family="Helvetica,sans-Serif" font-size="10.00">CSVHeader</text>
</a>
</g>
</g>
<!-- Node1&#45;&gt;Node6 -->
<g id="edge7_Node000001_Node000006" class="edge">
<title>Node1&#45;&gt;Node6</title>
<g id="a_edge7_Node000001_Node000006"><a xlink:title=" ">
<path fill="none" stroke="#63b8ff" d="M149.05,-125.68C159.11,-124.51 169.45,-123.3 179.55,-122.13"/>
<polygon fill="#63b8ff" stroke="#63b8ff" points="179.8,-125.62 189.33,-120.99 178.99,-118.67 179.8,-125.62"/>
</a>
</g>
</g>
<!-- Node9 -->
<g id="Node000009" class="node">
<title>Node9</title>
<g id="a_Node000009"><a xlink:href="class_logger_manager.html#a3ca0b934265a4d9ce6391bf97dec179a" target="_top" xlink:title=" ">
<polygon fill="white" stroke="#666666" points="326.75,-79.5 187,-79.5 187,-49 326.75,-49 326.75,-79.5"/>
<text xml:space="preserve" text-anchor="start" x="195" y="-66" font-family="Helvetica,sans-Serif" font-size="10.00">LoggerManager::_getCurrent</text>
<text xml:space="preserve" text-anchor="middle" x="256.88" y="-54.75" font-family="Helvetica,sans-Serif" font-size="10.00">DateString</text>
</a>
</g>
</g>
<!-- Node1&#45;&gt;Node9 -->
<g id="edge10_Node000001_Node000009" class="edge">
<title>Node1&#45;&gt;Node9</title>
<g id="a_edge10_Node000001_Node000009"><a xlink:title=" ">
<path fill="none" stroke="#63b8ff" d="M112.14,-118.56C133.27,-109.69 160.38,-98.54 184.75,-89.25 189.62,-87.4 194.69,-85.51 199.78,-83.66"/>
<polygon fill="#63b8ff" stroke="#63b8ff" points="200.57,-87.09 208.79,-80.41 198.2,-80.51 200.57,-87.09"/>
</a>
</g>
</g>
<!-- Node10 -->
<g id="Node000010" class="node">
<title>Node10</title>
<g id="a_Node000010"><a xlink:href="class_logger_manager.html#ac50bc65494e34dca73f6ee0745a8b6e6" target="_top" xlink:title=" ">
<polygon fill="white" stroke="#666666" points="329,-30.5 184.75,-30.5 184.75,0 329,0 329,-30.5"/>
<text xml:space="preserve" text-anchor="start" x="192.75" y="-17" font-family="Helvetica,sans-Serif" font-size="10.00">LoggerManager::_readHeader</text>
<text xml:space="preserve" text-anchor="middle" x="256.88" y="-5.75" font-family="Helvetica,sans-Serif" font-size="10.00">FromFile</text>
</a>
</g>
</g>
<!-- Node1&#45;&gt;Node10 -->
<g id="edge12_Node000001_Node000010" class="edge">
<title>Node1&#45;&gt;Node10</title>
<g id="a_edge12_Node000001_Node000010"><a xlink:title=" ">
<path fill="none" stroke="#63b8ff" d="M89.9,-118.56C109.63,-98.05 146.81,-62.17 184.75,-40.25 187.57,-38.62 190.5,-37.08 193.52,-35.61"/>
<polygon fill="#63b8ff" stroke="#63b8ff" points="194.89,-38.83 202.58,-31.55 192.03,-32.44 194.89,-38.83"/>
</a>
</g>
</g>
<!-- Node3 -->
<g id="Node000003" class="node">
<title>Node3</title>
<g id="a_Node000003"><a xlink:href="class_logger_manager.html#aa19a1b81e99d510ce23068e320305675" target="_top" xlink:title=" ">
<polygon fill="white" stroke="#666666" points="532.5,-263.5 365,-263.5 365,-233 532.5,-233 532.5,-263.5"/>
<text xml:space="preserve" text-anchor="start" x="373" y="-250" font-family="Helvetica,sans-Serif" font-size="10.00">LoggerManager::_extractSequence</text>
<text xml:space="preserve" text-anchor="middle" x="448.75" y="-238.75" font-family="Helvetica,sans-Serif" font-size="10.00">Number</text>
</a>
</g>
</g>
<!-- Node2&#45;&gt;Node3 -->
<g id="edge2_Node000002_Node000003" class="edge">
<title>Node2&#45;&gt;Node3</title>
<g id="a_edge2_Node000002_Node000003"><a xlink:title=" ">
<path fill="none" stroke="#63b8ff" d="M329.12,-248.25C336.99,-248.25 345.08,-248.25 353.18,-248.25"/>
<polygon fill="#63b8ff" stroke="#63b8ff" points="353.09,-251.75 363.09,-248.25 353.09,-244.75 353.09,-251.75"/>
</a>
</g>
</g>
<!-- Node2&#45;&gt;Node4 -->
<g id="edge3_Node000002_Node000004" class="edge">
<title>Node2&#45;&gt;Node4</title>
<g id="a_edge3_Node000002_Node000004"><a xlink:title=" ">
<path fill="none" stroke="#63b8ff" d="M318.74,-232.54C336.96,-227.84 357.12,-222.64 375.98,-217.77"/>
<polygon fill="#63b8ff" stroke="#63b8ff" points="376.63,-221.22 385.44,-215.33 374.88,-214.44 376.63,-221.22"/>
</a>
</g>
</g>
<!-- Node5&#45;&gt;Node3 -->
<g id="edge5_Node000005_Node000003" class="edge">
<title>Node5&#45;&gt;Node3</title>
<g id="a_edge5_Node000005_Node000003"><a xlink:title=" ">
<path fill="none" stroke="#63b8ff" d="M318.74,-214.96C336.96,-219.66 357.12,-224.86 375.98,-229.73"/>
<polygon fill="#63b8ff" stroke="#63b8ff" points="374.88,-233.06 385.44,-232.17 376.63,-226.28 374.88,-233.06"/>
</a>
</g>
</g>
<!-- Node5&#45;&gt;Node4 -->
<g id="edge6_Node000005_Node000004" class="edge">
<title>Node5&#45;&gt;Node4</title>
<g id="a_edge6_Node000005_Node000004"><a xlink:title=" ">
<path fill="none" stroke="#63b8ff" d="M325.62,-199.25C340.96,-199.25 357.34,-199.25 372.95,-199.25"/>
<polygon fill="#63b8ff" stroke="#63b8ff" points="372.64,-202.75 382.64,-199.25 372.64,-195.75 372.64,-202.75"/>
</a>
</g>
</g>
<!-- Node7 -->
<g id="Node000007" class="node">
<title>Node7</title>
<g id="a_Node000007"><a xlink:href="class_logger_manager.html#a57d230cd2896120a32ecf55a14895d55" target="_top" xlink:title=" ">
<polygon fill="white" stroke="#666666" points="532.5,-140.88 365,-140.88 365,-121.62 532.5,-121.62 532.5,-140.88"/>
<text xml:space="preserve" text-anchor="middle" x="448.75" y="-127.38" font-family="Helvetica,sans-Serif" font-size="10.00">LoggerManager::_escapeCSVField</text>
</a>
</g>
</g>
<!-- Node6&#45;&gt;Node7 -->
<g id="edge8_Node000006_Node000007" class="edge">
<title>Node6&#45;&gt;Node7</title>
<g id="a_edge8_Node000006_Node000007"><a xlink:title=" ">
<path fill="none" stroke="#63b8ff" d="M322.95,-119.42C332.81,-120.35 343.14,-121.33 353.46,-122.31"/>
<polygon fill="#63b8ff" stroke="#63b8ff" points="352.84,-125.77 363.13,-123.23 353.51,-118.8 352.84,-125.77"/>
</a>
</g>
</g>
<!-- Node8 -->
<g id="Node000008" class="node">
<title>Node8</title>
<g id="a_Node000008"><a xlink:href="class_measurement_point.html#aa3a80d373c7609c7b178bf7353ffdd7a" target="_top" xlink:title=" ">
<polygon fill="white" stroke="#666666" points="520.5,-103.88 377,-103.88 377,-84.62 520.5,-84.62 520.5,-103.88"/>
<text xml:space="preserve" text-anchor="middle" x="448.75" y="-90.38" font-family="Helvetica,sans-Serif" font-size="10.00">MeasurementPoint::getName</text>
</a>
</g>
</g>
<!-- Node6&#45;&gt;Node8 -->
<g id="edge9_Node000006_Node000008" class="edge">
<title>Node6&#45;&gt;Node8</title>
<g id="a_edge9_Node000006_Node000008"><a xlink:title=" ">
<path fill="none" stroke="#63b8ff" d="M322.95,-106.74C336.59,-105.37 351.14,-103.92 365.32,-102.5"/>
<polygon fill="#63b8ff" stroke="#63b8ff" points="365.47,-106 375.08,-101.52 364.78,-99.04 365.47,-106"/>
</a>
</g>
</g>
</g>
</svg>
