<?xml version="1.0" encoding="UTF-8" standalone="no"?>
<!DOCTYPE svg PUBLIC "-//W3C//DTD SVG 1.1//EN"
 "http://www.w3.org/Graphics/SVG/1.1/DTD/svg11.dtd">
<!-- Generated by graphviz version 13.1.0 (20250701.0955)
 -->
<!-- Title: LoggerManager::getEventLogStatsJson Pages: 1 -->
<svg width="514pt" height="39pt"
 viewBox="0.00 0.00 514.00 39.00" xmlns="http://www.w3.org/2000/svg" xmlns:xlink="http://www.w3.org/1999/xlink">
<g id="graph0" class="graph" transform="scale(1 1) rotate(0) translate(4 34.5)">
<title>LoggerManager::getEventLogStatsJson</title>
<!-- Node1 -->
<g id="Node000001" class="node">
<title>Node1</title>
<g id="a_Node000001"><a xlink:title=" ">
<polygon fill="#999999" stroke="#666666" points="143.5,-30.5 0,-30.5 0,0 143.5,0 143.5,-30.5"/>
<text xml:space="preserve" text-anchor="start" x="8" y="-17" font-family="Helvetica,sans-Serif" font-size="10.00">LoggerManager::getEventLog</text>
<text xml:space="preserve" text-anchor="middle" x="71.75" y="-5.75" font-family="Helvetica,sans-Serif" font-size="10.00">StatsJson</text>
</a>
</g>
</g>
<!-- Node2 -->
<g id="Node000002" class="node">
<title>Node2</title>
<g id="a_Node000002"><a xlink:href="class_logger_manager.html#ad3222128e4c210c2006e314966c511f5" target="_top" xlink:title=" ">
<polygon fill="white" stroke="#666666" points="312.5,-30.5 179.5,-30.5 179.5,0 312.5,0 312.5,-30.5"/>
<text xml:space="preserve" text-anchor="start" x="187.5" y="-17" font-family="Helvetica,sans-Serif" font-size="10.00">LoggerManager::_getEvent</text>
<text xml:space="preserve" text-anchor="middle" x="246" y="-5.75" font-family="Helvetica,sans-Serif" font-size="10.00">LogFilesInRange</text>
</a>
</g>
</g>
<!-- Node1&#45;&gt;Node2 -->
<g id="edge1_Node000001_Node000002" class="edge">
<title>Node1&#45;&gt;Node2</title>
<g id="a_edge1_Node000001_Node000002"><a xlink:title=" ">
<path fill="none" stroke="#63b8ff" d="M143.81,-15.25C151.65,-15.25 159.67,-15.25 167.59,-15.25"/>
<polygon fill="#63b8ff" stroke="#63b8ff" points="167.57,-18.75 177.57,-15.25 167.57,-11.75 167.57,-18.75"/>
</a>
</g>
</g>
<!-- Node3 -->
<g id="Node000003" class="node">
<title>Node3</title>
<g id="a_Node000003"><a xlink:href="class_logger_manager.html#ab4c92b3ff3b5f56dc21d6ef8835c310b" target="_top" xlink:title=" ">
<polygon fill="white" stroke="#666666" points="505.5,-24.88 348.5,-24.88 348.5,-5.63 505.5,-5.63 505.5,-24.88"/>
<text xml:space="preserve" text-anchor="middle" x="427" y="-11.38" font-family="Helvetica,sans-Serif" font-size="10.00">LoggerManager::_normalizeDate</text>
</a>
</g>
</g>
<!-- Node2&#45;&gt;Node3 -->
<g id="edge2_Node000002_Node000003" class="edge">
<title>Node2&#45;&gt;Node3</title>
<g id="a_edge2_Node000002_Node000003"><a xlink:title=" ">
<path fill="none" stroke="#63b8ff" d="M312.89,-15.25C320.68,-15.25 328.73,-15.25 336.78,-15.25"/>
<polygon fill="#63b8ff" stroke="#63b8ff" points="336.61,-18.75 346.61,-15.25 336.61,-11.75 336.61,-18.75"/>
</a>
</g>
</g>
</g>
</svg>
