<?xml version="1.0" encoding="UTF-8" standalone="no"?>
<!DOCTYPE svg PUBLIC "-//W3C//DTD SVG 1.1//EN"
 "http://www.w3.org/Graphics/SVG/1.1/DTD/svg11.dtd">
<!-- Generated by graphviz version 13.1.0 (20250701.0955)
 -->
<!-- Title: LoggerManager::getEventLogsCsv Pages: 1 -->
<svg width="537pt" height="39pt"
 viewBox="0.00 0.00 537.00 39.00" xmlns="http://www.w3.org/2000/svg" xmlns:xlink="http://www.w3.org/1999/xlink">
<g id="graph0" class="graph" transform="scale(1 1) rotate(0) translate(4 34.5)">
<title>LoggerManager::getEventLogsCsv</title>
<!-- Node1 -->
<g id="Node000001" class="node">
<title>Node1</title>
<g id="a_Node000001"><a xlink:title=" ">
<polygon fill="#999999" stroke="#666666" points="166.75,-24.88 0,-24.88 0,-5.63 166.75,-5.63 166.75,-24.88"/>
<text xml:space="preserve" text-anchor="middle" x="83.38" y="-11.38" font-family="Helvetica,sans-Serif" font-size="10.00">LoggerManager::getEventLogsCsv</text>
</a>
</g>
</g>
<!-- Node2 -->
<g id="Node000002" class="node">
<title>Node2</title>
<g id="a_Node000002"><a xlink:href="class_logger_manager.html#ad3222128e4c210c2006e314966c511f5" target="_top" xlink:title=" ">
<polygon fill="white" stroke="#666666" points="335.75,-30.5 202.75,-30.5 202.75,0 335.75,0 335.75,-30.5"/>
<text xml:space="preserve" text-anchor="start" x="210.75" y="-17" font-family="Helvetica,sans-Serif" font-size="10.00">LoggerManager::_getEvent</text>
<text xml:space="preserve" text-anchor="middle" x="269.25" y="-5.75" font-family="Helvetica,sans-Serif" font-size="10.00">LogFilesInRange</text>
</a>
</g>
</g>
<!-- Node1&#45;&gt;Node2 -->
<g id="edge1_Node000001_Node000002" class="edge">
<title>Node1&#45;&gt;Node2</title>
<g id="a_edge1_Node000001_Node000002"><a xlink:title=" ">
<path fill="none" stroke="#63b8ff" d="M167.17,-15.25C175.11,-15.25 183.14,-15.25 191.03,-15.25"/>
<polygon fill="#63b8ff" stroke="#63b8ff" points="190.93,-18.75 200.93,-15.25 190.93,-11.75 190.93,-18.75"/>
</a>
</g>
</g>
<!-- Node3 -->
<g id="Node000003" class="node">
<title>Node3</title>
<g id="a_Node000003"><a xlink:href="class_logger_manager.html#ab4c92b3ff3b5f56dc21d6ef8835c310b" target="_top" xlink:title=" ">
<polygon fill="white" stroke="#666666" points="528.75,-24.88 371.75,-24.88 371.75,-5.63 528.75,-5.63 528.75,-24.88"/>
<text xml:space="preserve" text-anchor="middle" x="450.25" y="-11.38" font-family="Helvetica,sans-Serif" font-size="10.00">LoggerManager::_normalizeDate</text>
</a>
</g>
</g>
<!-- Node2&#45;&gt;Node3 -->
<g id="edge2_Node000002_Node000003" class="edge">
<title>Node2&#45;&gt;Node3</title>
<g id="a_edge2_Node000002_Node000003"><a xlink:title=" ">
<path fill="none" stroke="#63b8ff" d="M336.14,-15.25C343.93,-15.25 351.98,-15.25 360.03,-15.25"/>
<polygon fill="#63b8ff" stroke="#63b8ff" points="359.86,-18.75 369.86,-15.25 359.86,-11.75 359.86,-18.75"/>
</a>
</g>
</g>
</g>
</svg>
