<?xml version="1.0" encoding="UTF-8" standalone="no"?>
<!DOCTYPE svg PUBLIC "-//W3C//DTD SVG 1.1//EN"
 "http://www.w3.org/Graphics/SVG/1.1/DTD/svg11.dtd">
<!-- Generated by graphviz version 13.1.0 (20250701.0955)
 -->
<!-- Title: IndicatorInterface::setAllOutputsLow Pages: 1 -->
<svg width="497pt" height="137pt"
 viewBox="0.00 0.00 497.00 137.00" xmlns="http://www.w3.org/2000/svg" xmlns:xlink="http://www.w3.org/1999/xlink">
<g id="graph0" class="graph" transform="scale(1 1) rotate(0) translate(4 132.5)">
<title>IndicatorInterface::setAllOutputsLow</title>
<!-- Node1 -->
<g id="Node000001" class="node">
<title>Node1</title>
<g id="a_Node000001"><a xlink:title="Set all output ports to low state.">
<polygon fill="#999999" stroke="#666666" points="99.25,-79.5 0,-79.5 0,-49 99.25,-49 99.25,-79.5"/>
<text xml:space="preserve" text-anchor="start" x="8" y="-66" font-family="Helvetica,sans-Serif" font-size="10.00">IndicatorInterface</text>
<text xml:space="preserve" text-anchor="middle" x="49.62" y="-54.75" font-family="Helvetica,sans-Serif" font-size="10.00">::setAllOutputsLow</text>
</a>
</g>
</g>
<!-- Node2 -->
<g id="Node000002" class="node">
<title>Node2</title>
<g id="a_Node000002"><a xlink:href="$class_indicator_interface.html#a52dd1fa732e288e344fe017f100d6c0d" xlink:title="Set all output ports to specified state.">
<polygon fill="white" stroke="#666666" points="227,-79.5 135.25,-79.5 135.25,-49 227,-49 227,-79.5"/>
<text xml:space="preserve" text-anchor="start" x="143.25" y="-66" font-family="Helvetica,sans-Serif" font-size="10.00">IndicatorInterface</text>
<text xml:space="preserve" text-anchor="middle" x="181.12" y="-54.75" font-family="Helvetica,sans-Serif" font-size="10.00">::setAllOutputs</text>
</a>
</g>
</g>
<!-- Node1&#45;&gt;Node2 -->
<g id="edge1_Node000001_Node000002" class="edge">
<title>Node1&#45;&gt;Node2</title>
<g id="a_edge1_Node000001_Node000002"><a xlink:title=" ">
<path fill="none" stroke="#63b8ff" d="M99.58,-64.25C107.38,-64.25 115.5,-64.25 123.46,-64.25"/>
<polygon fill="#63b8ff" stroke="#63b8ff" points="123.42,-67.75 133.42,-64.25 123.42,-60.75 123.42,-67.75"/>
</a>
</g>
</g>
<!-- Node3 -->
<g id="Node000003" class="node">
<title>Node3</title>
<g id="a_Node000003"><a xlink:href="$class_indicator_interface.html#a79a3f596138d02404e732cc354b6e78b" xlink:title="Apply inversion logic to port state.">
<polygon fill="white" stroke="#666666" points="360.75,-128.5 263,-128.5 263,-98 360.75,-98 360.75,-128.5"/>
<text xml:space="preserve" text-anchor="start" x="271" y="-115" font-family="Helvetica,sans-Serif" font-size="10.00">IndicatorInterface</text>
<text xml:space="preserve" text-anchor="middle" x="311.88" y="-103.75" font-family="Helvetica,sans-Serif" font-size="10.00">::_applyModeLogic</text>
</a>
</g>
</g>
<!-- Node2&#45;&gt;Node3 -->
<g id="edge2_Node000002_Node000003" class="edge">
<title>Node2&#45;&gt;Node3</title>
<g id="a_edge2_Node000002_Node000003"><a xlink:title=" ">
<path fill="none" stroke="#63b8ff" d="M223.22,-79.89C234.6,-84.22 247.1,-88.98 259.01,-93.51"/>
<polygon fill="#63b8ff" stroke="#63b8ff" points="257.73,-96.77 268.32,-97.05 260.22,-90.23 257.73,-96.77"/>
</a>
</g>
</g>
<!-- Node5 -->
<g id="Node000005" class="node">
<title>Node5</title>
<g id="a_Node000005"><a xlink:href="$class_indicator_interface.html#a850e37bb28d58c3acad37496fa101e64" xlink:title="Write raw state to PCF8575.">
<polygon fill="white" stroke="#666666" points="357.75,-79.5 266,-79.5 266,-49 357.75,-49 357.75,-79.5"/>
<text xml:space="preserve" text-anchor="start" x="274" y="-66" font-family="Helvetica,sans-Serif" font-size="10.00">IndicatorInterface</text>
<text xml:space="preserve" text-anchor="middle" x="311.88" y="-54.75" font-family="Helvetica,sans-Serif" font-size="10.00">::_writePCF</text>
</a>
</g>
</g>
<!-- Node2&#45;&gt;Node5 -->
<g id="edge4_Node000002_Node000005" class="edge">
<title>Node2&#45;&gt;Node5</title>
<g id="a_edge4_Node000002_Node000005"><a xlink:title=" ">
<path fill="none" stroke="#63b8ff" d="M227.16,-64.25C235.93,-64.25 245.22,-64.25 254.31,-64.25"/>
<polygon fill="#63b8ff" stroke="#63b8ff" points="254.14,-67.75 264.14,-64.25 254.14,-60.75 254.14,-67.75"/>
</a>
</g>
</g>
<!-- Node7 -->
<g id="Node000007" class="node">
<title>Node7</title>
<g id="a_Node000007"><a xlink:href="$class_indicator_interface.html#a0a785a20dd66dbe0077d60e779930140" xlink:title="Check if port is configured as output.">
<polygon fill="white" stroke="#666666" points="357.75,-30.5 266,-30.5 266,0 357.75,0 357.75,-30.5"/>
<text xml:space="preserve" text-anchor="start" x="274" y="-17" font-family="Helvetica,sans-Serif" font-size="10.00">IndicatorInterface</text>
<text xml:space="preserve" text-anchor="middle" x="311.88" y="-5.75" font-family="Helvetica,sans-Serif" font-size="10.00">::isOutput</text>
</a>
</g>
</g>
<!-- Node2&#45;&gt;Node7 -->
<g id="edge6_Node000002_Node000007" class="edge">
<title>Node2&#45;&gt;Node7</title>
<g id="a_edge6_Node000002_Node000007"><a xlink:title=" ">
<path fill="none" stroke="#63b8ff" d="M223.22,-48.61C234.6,-44.28 247.1,-39.52 259.01,-34.99"/>
<polygon fill="#63b8ff" stroke="#63b8ff" points="260.22,-38.27 268.32,-31.45 257.73,-31.73 260.22,-38.27"/>
</a>
</g>
</g>
<!-- Node4 -->
<g id="Node000004" class="node">
<title>Node4</title>
<g id="a_Node000004"><a xlink:href="$class_indicator_interface.html#a3b900f1de29de5489f19b94b27f4b5c1" xlink:title="Check if port has inverted logic.">
<polygon fill="white" stroke="#666666" points="488.5,-128.5 396.75,-128.5 396.75,-98 488.5,-98 488.5,-128.5"/>
<text xml:space="preserve" text-anchor="start" x="404.75" y="-115" font-family="Helvetica,sans-Serif" font-size="10.00">IndicatorInterface</text>
<text xml:space="preserve" text-anchor="middle" x="442.62" y="-103.75" font-family="Helvetica,sans-Serif" font-size="10.00">::isInverted</text>
</a>
</g>
</g>
<!-- Node3&#45;&gt;Node4 -->
<g id="edge3_Node000003_Node000004" class="edge">
<title>Node3&#45;&gt;Node4</title>
<g id="a_edge3_Node000003_Node000004"><a xlink:title=" ">
<path fill="none" stroke="#63b8ff" d="M361.18,-113.25C368.95,-113.25 377.05,-113.25 384.99,-113.25"/>
<polygon fill="#63b8ff" stroke="#63b8ff" points="384.94,-116.75 394.94,-113.25 384.94,-109.75 384.94,-116.75"/>
</a>
</g>
</g>
<!-- Node6 -->
<g id="Node000006" class="node">
<title>Node6</title>
<g id="a_Node000006"><a xlink:href="$class_indicator_interface.html#a55da41c64cf3538a8bbb5252dd38b885" xlink:title="Clear interrupt flag on PCF8575.">
<polygon fill="white" stroke="#666666" points="488.5,-79.5 396.75,-79.5 396.75,-49 488.5,-49 488.5,-79.5"/>
<text xml:space="preserve" text-anchor="start" x="404.75" y="-66" font-family="Helvetica,sans-Serif" font-size="10.00">IndicatorInterface</text>
<text xml:space="preserve" text-anchor="middle" x="442.62" y="-54.75" font-family="Helvetica,sans-Serif" font-size="10.00">::_clearInterrupt</text>
</a>
</g>
</g>
<!-- Node5&#45;&gt;Node6 -->
<g id="edge5_Node000005_Node000006" class="edge">
<title>Node5&#45;&gt;Node6</title>
<g id="a_edge5_Node000005_Node000006"><a xlink:title=" ">
<path fill="none" stroke="#63b8ff" d="M357.91,-64.25C366.68,-64.25 375.97,-64.25 385.06,-64.25"/>
<polygon fill="#63b8ff" stroke="#63b8ff" points="384.89,-67.75 394.89,-64.25 384.89,-60.75 384.89,-67.75"/>
</a>
</g>
</g>
</g>
</svg>
