<?xml version="1.0" encoding="UTF-8" standalone="no"?>
<!DOCTYPE svg PUBLIC "-//W3C//DTD SVG 1.1//EN"
 "http://www.w3.org/Graphics/SVG/1.1/DTD/svg11.dtd">
<!-- Generated by graphviz version 13.1.0 (20250701.0955)
 -->
<!-- Title: TemperatureController::ensureAlarmsForPoint Pages: 1 -->
<svg width="475pt" height="224pt"
 viewBox="0.00 0.00 475.00 224.00" xmlns="http://www.w3.org/2000/svg" xmlns:xlink="http://www.w3.org/1999/xlink">
<g id="graph0" class="graph" transform="scale(1 1) rotate(0) translate(4 219.88)">
<title>TemperatureController::ensureAlarmsForPoint</title>
<!-- Node1 -->
<g id="Node000001" class="node">
<title>Node1</title>
<g id="a_Node000001"><a xlink:title="Ensure all 3 alarm types exist for a measurement point.">
<polygon fill="#999999" stroke="#666666" points="118.75,-135.88 0,-135.88 0,-105.38 118.75,-105.38 118.75,-135.88"/>
<text xml:space="preserve" text-anchor="start" x="8" y="-122.38" font-family="Helvetica,sans-Serif" font-size="10.00">TemperatureController</text>
<text xml:space="preserve" text-anchor="middle" x="59.38" y="-111.12" font-family="Helvetica,sans-Serif" font-size="10.00">::ensureAlarmsForPoint</text>
</a>
</g>
</g>
<!-- Node2 -->
<g id="Node000002" class="node">
<title>Node2</title>
<g id="a_Node000002"><a xlink:href="class_temperature_controller.html#ae7d9c642f7ae697c2679e61d4da45868" target="_top" xlink:title="Find alarm by configuration key.">
<polygon fill="white" stroke="#666666" points="287.38,-215.88 175.38,-215.88 175.38,-185.38 287.38,-185.38 287.38,-215.88"/>
<text xml:space="preserve" text-anchor="start" x="183.38" y="-202.38" font-family="Helvetica,sans-Serif" font-size="10.00">TemperatureController</text>
<text xml:space="preserve" text-anchor="middle" x="231.38" y="-191.12" font-family="Helvetica,sans-Serif" font-size="10.00">::findAlarm</text>
</a>
</g>
</g>
<!-- Node1&#45;&gt;Node2 -->
<g id="edge1_Node000001_Node000002" class="edge">
<title>Node1&#45;&gt;Node2</title>
<g id="a_edge1_Node000001_Node000002"><a xlink:title=" ">
<path fill="none" stroke="#63b8ff" d="M83.23,-136.21C101.87,-148.4 129.19,-165.17 154.75,-176.62 158.08,-178.12 161.53,-179.56 165.04,-180.94"/>
<polygon fill="#63b8ff" stroke="#63b8ff" points="163.69,-184.17 174.28,-184.39 166.14,-177.61 163.69,-184.17"/>
</a>
</g>
</g>
<!-- Node3 -->
<g id="Node000003" class="node">
<title>Node3</title>
<g id="a_Node000003"><a xlink:href="class_measurement_point.html#a7b74a18d86e0e545264a774aa2c31cad" target="_top" xlink:title="Get measurement point address.">
<polygon fill="white" stroke="#666666" points="308,-167.25 154.75,-167.25 154.75,-148 308,-148 308,-167.25"/>
<text xml:space="preserve" text-anchor="middle" x="231.38" y="-153.75" font-family="Helvetica,sans-Serif" font-size="10.00">MeasurementPoint::getAddress</text>
</a>
</g>
</g>
<!-- Node1&#45;&gt;Node3 -->
<g id="edge2_Node000001_Node000003" class="edge">
<title>Node1&#45;&gt;Node3</title>
<g id="a_edge2_Node000001_Node000003"><a xlink:title=" ">
<path fill="none" stroke="#63b8ff" d="M118.88,-133.36C136.37,-137.17 155.52,-141.33 172.94,-145.13"/>
<polygon fill="#63b8ff" stroke="#63b8ff" points="172.11,-148.53 182.63,-147.23 173.6,-141.69 172.11,-148.53"/>
</a>
</g>
</g>
<!-- Node4 -->
<g id="Node000004" class="node">
<title>Node4</title>
<g id="a_Node000004"><a xlink:href="class_alarm.html#ad116a3e8b622810e1769568fbac16379" target="_top" xlink:title="Set the configuration key.">
<polygon fill="white" stroke="#666666" points="284.75,-130.25 178,-130.25 178,-111 284.75,-111 284.75,-130.25"/>
<text xml:space="preserve" text-anchor="middle" x="231.38" y="-116.75" font-family="Helvetica,sans-Serif" font-size="10.00">Alarm::setConfigKey</text>
</a>
</g>
</g>
<!-- Node1&#45;&gt;Node4 -->
<g id="edge3_Node000001_Node000004" class="edge">
<title>Node1&#45;&gt;Node4</title>
<g id="a_edge3_Node000001_Node000004"><a xlink:title=" ">
<path fill="none" stroke="#63b8ff" d="M118.88,-120.62C134.26,-120.62 150.93,-120.62 166.57,-120.62"/>
<polygon fill="#63b8ff" stroke="#63b8ff" points="166.23,-124.13 176.23,-120.63 166.23,-117.13 166.23,-124.13"/>
</a>
</g>
</g>
<!-- Node5 -->
<g id="Node000005" class="node">
<title>Node5</title>
<g id="a_Node000005"><a xlink:href="class_alarm.html#acb8f203b2e2317c1f835bb4b19123f3f" target="_top" xlink:title="Enable or disable the alarm.">
<polygon fill="white" stroke="#666666" points="279.5,-93.25 183.25,-93.25 183.25,-74 279.5,-74 279.5,-93.25"/>
<text xml:space="preserve" text-anchor="middle" x="231.38" y="-79.75" font-family="Helvetica,sans-Serif" font-size="10.00">Alarm::setEnabled</text>
</a>
</g>
</g>
<!-- Node1&#45;&gt;Node5 -->
<g id="edge4_Node000001_Node000005" class="edge">
<title>Node1&#45;&gt;Node5</title>
<g id="a_edge4_Node000001_Node000005"><a xlink:title=" ">
<path fill="none" stroke="#63b8ff" d="M118.88,-107.89C136.37,-104.08 155.52,-99.92 172.94,-96.12"/>
<polygon fill="#63b8ff" stroke="#63b8ff" points="173.6,-99.56 182.63,-94.02 172.11,-92.72 173.6,-99.56"/>
</a>
</g>
</g>
<!-- Node8 -->
<g id="Node000008" class="node">
<title>Node8</title>
<g id="a_Node000008"><a xlink:href="class_alarm.html#a5095c54c304a52ebbaca5a2ea74059cd" target="_top" xlink:title="Set the alarm priority.">
<polygon fill="white" stroke="#666666" points="277.25,-56.25 185.5,-56.25 185.5,-37 277.25,-37 277.25,-56.25"/>
<text xml:space="preserve" text-anchor="middle" x="231.38" y="-42.75" font-family="Helvetica,sans-Serif" font-size="10.00">Alarm::setPriority</text>
</a>
</g>
</g>
<!-- Node1&#45;&gt;Node8 -->
<g id="edge7_Node000001_Node000008" class="edge">
<title>Node1&#45;&gt;Node8</title>
<g id="a_edge7_Node000001_Node000008"><a xlink:title=" ">
<path fill="none" stroke="#63b8ff" d="M82.26,-105.04C100.78,-92.5 128.44,-75.28 154.75,-64.62 161.07,-62.07 167.84,-59.82 174.64,-57.85"/>
<polygon fill="#63b8ff" stroke="#63b8ff" points="175.07,-61.36 183.83,-55.39 173.26,-54.6 175.07,-61.36"/>
</a>
</g>
</g>
<!-- Node6 -->
<g id="Node000006" class="node">
<title>Node6</title>
<g id="a_Node000006"><a xlink:href="class_alarm.html#abd578ec75a5ac9bce00b7ce7207c5d8c" target="_top" xlink:title="Get alarm type as string.">
<polygon fill="white" stroke="#666666" points="459,-56.25 351.5,-56.25 351.5,-37 459,-37 459,-56.25"/>
<text xml:space="preserve" text-anchor="middle" x="405.25" y="-42.75" font-family="Helvetica,sans-Serif" font-size="10.00">Alarm::getTypeString</text>
</a>
</g>
</g>
<!-- Node5&#45;&gt;Node6 -->
<g id="edge5_Node000005_Node000006" class="edge">
<title>Node5&#45;&gt;Node6</title>
<g id="a_edge5_Node000005_Node000006"><a xlink:title=" ">
<path fill="none" stroke="#63b8ff" d="M279.34,-73.51C299.99,-69.07 324.45,-63.8 346.23,-59.11"/>
<polygon fill="#63b8ff" stroke="#63b8ff" points="346.82,-62.57 355.86,-57.04 345.35,-55.72 346.82,-62.57"/>
</a>
</g>
</g>
<!-- Node7 -->
<g id="Node000007" class="node">
<title>Node7</title>
<g id="a_Node000007"><a xlink:href="class_logger_manager.html#a5c1373ccc47f4112b596fe6f84fbbc21" target="_top" xlink:title="Log informational message (static convenience method)">
<polygon fill="white" stroke="#666666" points="457.5,-93.25 353,-93.25 353,-74 457.5,-74 457.5,-93.25"/>
<text xml:space="preserve" text-anchor="middle" x="405.25" y="-79.75" font-family="Helvetica,sans-Serif" font-size="10.00">LoggerManager::info</text>
</a>
</g>
</g>
<!-- Node5&#45;&gt;Node7 -->
<g id="edge6_Node000005_Node000007" class="edge">
<title>Node5&#45;&gt;Node7</title>
<g id="a_edge6_Node000005_Node000007"><a xlink:title=" ">
<path fill="none" stroke="#63b8ff" d="M279.8,-83.62C298.82,-83.62 321.02,-83.62 341.37,-83.62"/>
<polygon fill="#63b8ff" stroke="#63b8ff" points="341.25,-87.13 351.25,-83.63 341.25,-80.13 341.25,-87.13"/>
</a>
</g>
</g>
<!-- Node8&#45;&gt;Node6 -->
<g id="edge9_Node000008_Node000006" class="edge">
<title>Node8&#45;&gt;Node6</title>
<g id="a_edge9_Node000008_Node000006"><a xlink:title=" ">
<path fill="none" stroke="#63b8ff" d="M277.53,-46.62C296.58,-46.62 319.11,-46.62 339.85,-46.62"/>
<polygon fill="#63b8ff" stroke="#63b8ff" points="339.64,-50.13 349.64,-46.63 339.64,-43.13 339.64,-50.13"/>
</a>
</g>
</g>
<!-- Node8&#45;&gt;Node7 -->
<g id="edge10_Node000008_Node000007" class="edge">
<title>Node8&#45;&gt;Node7</title>
<g id="a_edge10_Node000008_Node000007"><a xlink:title=" ">
<path fill="none" stroke="#63b8ff" d="M277.53,-56.35C298.55,-60.87 323.8,-66.31 346.21,-71.13"/>
<polygon fill="#63b8ff" stroke="#63b8ff" points="345.3,-74.52 355.82,-73.2 346.78,-67.67 345.3,-74.52"/>
</a>
</g>
</g>
<!-- Node9 -->
<g id="Node000009" class="node">
<title>Node9</title>
<g id="a_Node000009"><a xlink:href="class_alarm.html#a052a73879f5cd039f6f7cb7ce02e6a9d" target="_top" xlink:title="Get priority as string (internal version)">
<polygon fill="white" stroke="#666666" points="466.5,-19.25 344,-19.25 344,0 466.5,0 466.5,-19.25"/>
<text xml:space="preserve" text-anchor="middle" x="405.25" y="-5.75" font-family="Helvetica,sans-Serif" font-size="10.00">Alarm::_getPriorityString</text>
</a>
</g>
</g>
<!-- Node8&#45;&gt;Node9 -->
<g id="edge8_Node000008_Node000009" class="edge">
<title>Node8&#45;&gt;Node9</title>
<g id="a_edge8_Node000008_Node000009"><a xlink:title=" ">
<path fill="none" stroke="#63b8ff" d="M277.53,-36.9C298.55,-32.38 323.8,-26.94 346.21,-22.12"/>
<polygon fill="#63b8ff" stroke="#63b8ff" points="346.78,-25.58 355.82,-20.05 345.3,-18.73 346.78,-25.58"/>
</a>
</g>
</g>
</g>
</svg>
