<?xml version="1.0" encoding="UTF-8" standalone="no"?>
<!DOCTYPE svg PUBLIC "-//W3C//DTD SVG 1.1//EN"
 "http://www.w3.org/Graphics/SVG/1.1/DTD/svg11.dtd">
<!-- Generated by graphviz version 13.1.0 (20250701.0955)
 -->
<!-- Title: LoggerManager::getEventLogsJson Pages: 1 -->
<svg width="550pt" height="88pt"
 viewBox="0.00 0.00 550.00 88.00" xmlns="http://www.w3.org/2000/svg" xmlns:xlink="http://www.w3.org/1999/xlink">
<g id="graph0" class="graph" transform="scale(1 1) rotate(0) translate(4 83.5)">
<title>LoggerManager::getEventLogsJson</title>
<!-- Node1 -->
<g id="Node000001" class="node">
<title>Node1</title>
<g id="a_Node000001"><a xlink:title=" ">
<polygon fill="#999999" stroke="#666666" points="169.75,-48.88 0,-48.88 0,-29.62 169.75,-29.62 169.75,-48.88"/>
<text xml:space="preserve" text-anchor="middle" x="84.88" y="-35.38" font-family="Helvetica,sans-Serif" font-size="10.00">LoggerManager::getEventLogsJson</text>
</a>
</g>
</g>
<!-- Node2 -->
<g id="Node000002" class="node">
<title>Node2</title>
<g id="a_Node000002"><a xlink:href="class_logger_manager.html#ad3222128e4c210c2006e314966c511f5" target="_top" xlink:title=" ">
<polygon fill="white" stroke="#666666" points="344,-79.5 211,-79.5 211,-49 344,-49 344,-79.5"/>
<text xml:space="preserve" text-anchor="start" x="219" y="-66" font-family="Helvetica,sans-Serif" font-size="10.00">LoggerManager::_getEvent</text>
<text xml:space="preserve" text-anchor="middle" x="277.5" y="-54.75" font-family="Helvetica,sans-Serif" font-size="10.00">LogFilesInRange</text>
</a>
</g>
</g>
<!-- Node1&#45;&gt;Node2 -->
<g id="edge1_Node000001_Node000002" class="edge">
<title>Node1&#45;&gt;Node2</title>
<g id="a_edge1_Node000001_Node000002"><a xlink:title=" ">
<path fill="none" stroke="#63b8ff" d="M162.86,-49.35C174.84,-50.92 187.22,-52.54 199.21,-54.11"/>
<polygon fill="#63b8ff" stroke="#63b8ff" points="198.69,-57.57 209.06,-55.4 199.6,-50.63 198.69,-57.57"/>
</a>
</g>
</g>
<!-- Node4 -->
<g id="Node000004" class="node">
<title>Node4</title>
<g id="a_Node000004"><a xlink:href="class_logger_manager.html#a26f82b651be286678438022bbfbd21d7" target="_top" xlink:title=" ">
<polygon fill="white" stroke="#666666" points="349.25,-30.5 205.75,-30.5 205.75,0 349.25,0 349.25,-30.5"/>
<text xml:space="preserve" text-anchor="start" x="213.75" y="-17" font-family="Helvetica,sans-Serif" font-size="10.00">LoggerManager::_parseEvent</text>
<text xml:space="preserve" text-anchor="middle" x="277.5" y="-5.75" font-family="Helvetica,sans-Serif" font-size="10.00">LogEntry</text>
</a>
</g>
</g>
<!-- Node1&#45;&gt;Node4 -->
<g id="edge3_Node000001_Node000004" class="edge">
<title>Node1&#45;&gt;Node4</title>
<g id="a_edge3_Node000001_Node000004"><a xlink:title=" ">
<path fill="none" stroke="#63b8ff" d="M166.16,-29.14C175.42,-27.98 184.88,-26.79 194.16,-25.62"/>
<polygon fill="#63b8ff" stroke="#63b8ff" points="194.4,-29.11 203.88,-24.39 193.52,-22.17 194.4,-29.11"/>
</a>
</g>
</g>
<!-- Node3 -->
<g id="Node000003" class="node">
<title>Node3</title>
<g id="a_Node000003"><a xlink:href="class_logger_manager.html#ab4c92b3ff3b5f56dc21d6ef8835c310b" target="_top" xlink:title=" ">
<polygon fill="white" stroke="#666666" points="542.25,-73.88 385.25,-73.88 385.25,-54.62 542.25,-54.62 542.25,-73.88"/>
<text xml:space="preserve" text-anchor="middle" x="463.75" y="-60.38" font-family="Helvetica,sans-Serif" font-size="10.00">LoggerManager::_normalizeDate</text>
</a>
</g>
</g>
<!-- Node2&#45;&gt;Node3 -->
<g id="edge2_Node000002_Node000003" class="edge">
<title>Node2&#45;&gt;Node3</title>
<g id="a_edge2_Node000002_Node000003"><a xlink:title=" ">
<path fill="none" stroke="#63b8ff" d="M344.5,-64.25C353.92,-64.25 363.75,-64.25 373.53,-64.25"/>
<polygon fill="#63b8ff" stroke="#63b8ff" points="373.45,-67.75 383.45,-64.25 373.45,-60.75 373.45,-67.75"/>
</a>
</g>
</g>
</g>
</svg>
