<?xml version="1.0" encoding="UTF-8" standalone="no"?>
<!DOCTYPE svg PUBLIC "-//W3C//DTD SVG 1.1//EN"
 "http://www.w3.org/Graphics/SVG/1.1/DTD/svg11.dtd">
<!-- Generated by graphviz version 13.1.0 (20250701.0955)
 -->
<!-- Title: MeasurementPoint::setHighAlarmThreshold Pages: 1 -->
<svg width="496pt" height="260pt"
 viewBox="0.00 0.00 496.00 260.00" xmlns="http://www.w3.org/2000/svg" xmlns:xlink="http://www.w3.org/1999/xlink">
<g id="graph0" class="graph" transform="scale(1 1) rotate(0) translate(4 255.5)">
<title>MeasurementPoint::setHighAlarmThreshold</title>
<!-- Node1 -->
<g id="Node000001" class="node">
<title>Node1</title>
<g id="a_Node000001"><a xlink:title="Set high alarm threshold.">
<polygon fill="#999999" stroke="#666666" points="487.5,-140.5 350,-140.5 350,-110 487.5,-110 487.5,-140.5"/>
<text xml:space="preserve" text-anchor="start" x="358" y="-127" font-family="Helvetica,sans-Serif" font-size="10.00">MeasurementPoint::setHigh</text>
<text xml:space="preserve" text-anchor="middle" x="418.75" y="-115.75" font-family="Helvetica,sans-Serif" font-size="10.00">AlarmThreshold</text>
</a>
</g>
</g>
<!-- Node2 -->
<g id="Node000002" class="node">
<title>Node2</title>
<g id="a_Node000002"><a xlink:href="$class_c_s_v_config_manager.html#ac91e29ab2468661df752e4e4b2f7186c" xlink:title="Parse single CSV line.">
<polygon fill="white" stroke="#666666" points="298.62,-251.5 189.62,-251.5 189.62,-221 298.62,-221 298.62,-251.5"/>
<text xml:space="preserve" text-anchor="start" x="197.62" y="-238" font-family="Helvetica,sans-Serif" font-size="10.00">CSVConfigManager::</text>
<text xml:space="preserve" text-anchor="middle" x="244.12" y="-226.75" font-family="Helvetica,sans-Serif" font-size="10.00">_parseCSVLine</text>
</a>
</g>
</g>
<!-- Node1&#45;&gt;Node2 -->
<g id="edge1_Node000001_Node000002" class="edge">
<title>Node1&#45;&gt;Node2</title>
<g id="a_edge1_Node000001_Node000002"><a xlink:title=" ">
<path fill="none" stroke="#63b8ff" d="M394.82,-148.75C374.94,-168.02 344.62,-194.86 314,-212.25 308.6,-215.31 302.75,-218.09 296.81,-220.56"/>
<polygon fill="#63b8ff" stroke="#63b8ff" points="397.19,-151.33 401.85,-141.82 392.27,-146.35 397.19,-151.33"/>
</a>
</g>
</g>
<!-- Node4 -->
<g id="Node000004" class="node">
<title>Node4</title>
<g id="a_Node000004"><a xlink:href="$class_config_manager.html#ae605c999fabc6344511f455618655326" xlink:title="Setup alarms API endpoints.">
<polygon fill="white" stroke="#666666" points="311,-202.88 177.25,-202.88 177.25,-183.62 311,-183.62 311,-202.88"/>
<text xml:space="preserve" text-anchor="middle" x="244.12" y="-189.38" font-family="Helvetica,sans-Serif" font-size="10.00">ConfigManager::alarmsAPI</text>
</a>
</g>
</g>
<!-- Node1&#45;&gt;Node4 -->
<g id="edge3_Node000001_Node000004" class="edge">
<title>Node1&#45;&gt;Node4</title>
<g id="a_edge3_Node000001_Node000004"><a xlink:title=" ">
<path fill="none" stroke="#63b8ff" d="M378.25,-145.87C359.17,-155.32 335.75,-166.18 314,-174.25 305.16,-177.53 295.5,-180.54 286.28,-183.14"/>
<polygon fill="#63b8ff" stroke="#63b8ff" points="379.65,-149.08 387.02,-141.47 376.51,-142.83 379.65,-149.08"/>
</a>
</g>
</g>
<!-- Node6 -->
<g id="Node000006" class="node">
<title>Node6</title>
<g id="a_Node000006"><a xlink:href="$class_register_map.html#aa2f819b22096b8c14c421b415f7e83b7" xlink:title="Apply configuration from registers to measurement point.">
<polygon fill="white" stroke="#666666" points="308.75,-165.5 179.5,-165.5 179.5,-135 308.75,-135 308.75,-165.5"/>
<text xml:space="preserve" text-anchor="start" x="187.5" y="-152" font-family="Helvetica,sans-Serif" font-size="10.00">RegisterMap::applyConfig</text>
<text xml:space="preserve" text-anchor="middle" x="244.12" y="-140.75" font-family="Helvetica,sans-Serif" font-size="10.00">ToMeasurementPoint</text>
</a>
</g>
</g>
<!-- Node1&#45;&gt;Node6 -->
<g id="edge5_Node000001_Node000006" class="edge">
<title>Node1&#45;&gt;Node6</title>
<g id="a_edge5_Node000001_Node000006"><a xlink:title=" ">
<path fill="none" stroke="#63b8ff" d="M338.2,-136.77C328.48,-138.18 318.65,-139.6 309.2,-140.97"/>
<polygon fill="#63b8ff" stroke="#63b8ff" points="338.63,-140.24 348.03,-135.35 337.63,-133.32 338.63,-140.24"/>
</a>
</g>
</g>
<!-- Node7 -->
<g id="Node000007" class="node">
<title>Node7</title>
<g id="a_Node000007"><a xlink:href="$class_config_manager.html#a04edc14e642ecadb9ccb87be05d1d878" xlink:title="Load measurement points configuration from file.">
<polygon fill="white" stroke="#666666" points="311,-116.5 177.25,-116.5 177.25,-86 311,-86 311,-116.5"/>
<text xml:space="preserve" text-anchor="start" x="185.25" y="-103" font-family="Helvetica,sans-Serif" font-size="10.00">ConfigManager::loadPoints</text>
<text xml:space="preserve" text-anchor="middle" x="244.12" y="-91.75" font-family="Helvetica,sans-Serif" font-size="10.00">Config</text>
</a>
</g>
</g>
<!-- Node1&#45;&gt;Node7 -->
<g id="edge6_Node000001_Node000007" class="edge">
<title>Node1&#45;&gt;Node7</title>
<g id="a_edge6_Node000001_Node000007"><a xlink:title=" ">
<path fill="none" stroke="#63b8ff" d="M338.25,-114.2C329.28,-112.95 320.22,-111.69 311.45,-110.47"/>
<polygon fill="#63b8ff" stroke="#63b8ff" points="337.64,-117.65 348.02,-115.56 338.6,-110.71 337.64,-117.65"/>
</a>
</g>
</g>
<!-- Node8 -->
<g id="Node000008" class="node">
<title>Node8</title>
<g id="a_Node000008"><a xlink:href="$class_config_manager.html#a471a844085c27f3a8a8f9394d9c14677" xlink:title="Setup measurement points API endpoints.">
<polygon fill="white" stroke="#666666" points="309.5,-67.88 178.75,-67.88 178.75,-48.62 309.5,-48.62 309.5,-67.88"/>
<text xml:space="preserve" text-anchor="middle" x="244.12" y="-54.38" font-family="Helvetica,sans-Serif" font-size="10.00">ConfigManager::pointsAPI</text>
</a>
</g>
</g>
<!-- Node1&#45;&gt;Node8 -->
<g id="edge8_Node000001_Node000008" class="edge">
<title>Node1&#45;&gt;Node8</title>
<g id="a_edge8_Node000001_Node000008"><a xlink:title=" ">
<path fill="none" stroke="#63b8ff" d="M377.12,-104.57C358.23,-95.44 335.28,-85.05 314,-77.25 305.03,-73.96 295.23,-70.94 285.9,-68.31"/>
<polygon fill="#63b8ff" stroke="#63b8ff" points="375.56,-107.7 386.08,-108.95 378.64,-101.41 375.56,-107.7"/>
</a>
</g>
</g>
<!-- Node9 -->
<g id="Node000009" class="node">
<title>Node9</title>
<g id="a_Node000009"><a xlink:href="$class_config_manager.html#a0daf50bbd376beb24a5400a86e893338" xlink:title="Update a measurement point in configuration.">
<polygon fill="white" stroke="#666666" points="314,-30.5 174.25,-30.5 174.25,0 314,0 314,-30.5"/>
<text xml:space="preserve" text-anchor="start" x="182.25" y="-17" font-family="Helvetica,sans-Serif" font-size="10.00">ConfigManager::updatePoint</text>
<text xml:space="preserve" text-anchor="middle" x="244.12" y="-5.75" font-family="Helvetica,sans-Serif" font-size="10.00">InConfig</text>
</a>
</g>
</g>
<!-- Node1&#45;&gt;Node9 -->
<g id="edge10_Node000001_Node000009" class="edge">
<title>Node1&#45;&gt;Node9</title>
<g id="a_edge10_Node000001_Node000009"><a xlink:title=" ">
<path fill="none" stroke="#63b8ff" d="M394.42,-101.7C374.51,-82.69 344.35,-56.38 314,-39.25 308.6,-36.2 302.74,-33.44 296.8,-30.97"/>
<polygon fill="#63b8ff" stroke="#63b8ff" points="391.86,-104.09 401.47,-108.55 396.74,-99.07 391.86,-104.09"/>
</a>
</g>
</g>
<!-- Node3 -->
<g id="Node000003" class="node">
<title>Node3</title>
<g id="a_Node000003"><a xlink:href="$class_c_s_v_config_manager.html#aef1d9d5b47814730cb9f80554b6fd623" xlink:title="Import measurement points and alarms from CSV data.">
<polygon fill="white" stroke="#666666" points="138.25,-251.5 0,-251.5 0,-221 138.25,-221 138.25,-251.5"/>
<text xml:space="preserve" text-anchor="start" x="8" y="-238" font-family="Helvetica,sans-Serif" font-size="10.00">CSVConfigManager::import</text>
<text xml:space="preserve" text-anchor="middle" x="69.12" y="-226.75" font-family="Helvetica,sans-Serif" font-size="10.00">PointsWithAlarmsFromCSV</text>
</a>
</g>
</g>
<!-- Node2&#45;&gt;Node3 -->
<g id="edge2_Node000002_Node000003" class="edge">
<title>Node2&#45;&gt;Node3</title>
<g id="a_edge2_Node000002_Node000003"><a xlink:title=" ">
<path fill="none" stroke="#63b8ff" d="M178.17,-236.25C165.23,-236.25 151.61,-236.25 138.56,-236.25"/>
<polygon fill="#63b8ff" stroke="#63b8ff" points="177.82,-239.75 187.82,-236.25 177.82,-232.75 177.82,-239.75"/>
</a>
</g>
</g>
<!-- Node5 -->
<g id="Node000005" class="node">
<title>Node5</title>
<g id="a_Node000005"><a xlink:href="$class_config_manager.html#a0497343220fc493f5cf9574922508908" xlink:title="Initialize the configuration system.">
<polygon fill="white" stroke="#666666" points="124.75,-110.88 13.5,-110.88 13.5,-91.62 124.75,-91.62 124.75,-110.88"/>
<text xml:space="preserve" text-anchor="middle" x="69.12" y="-97.38" font-family="Helvetica,sans-Serif" font-size="10.00">ConfigManager::begin</text>
</a>
</g>
</g>
<!-- Node4&#45;&gt;Node5 -->
<g id="edge4_Node000004_Node000005" class="edge">
<title>Node4&#45;&gt;Node5</title>
<g id="a_edge4_Node000004_Node000005"><a xlink:title=" ">
<path fill="none" stroke="#63b8ff" d="M187.31,-179.64C182.82,-178.01 178.42,-176.21 174.25,-174.25 137.5,-156.94 99.79,-126.8 81.48,-111.22"/>
<polygon fill="#63b8ff" stroke="#63b8ff" points="185.83,-182.83 196.43,-182.68 188.05,-176.19 185.83,-182.83"/>
</a>
</g>
</g>
<!-- Node7&#45;&gt;Node5 -->
<g id="edge7_Node000007_Node000005" class="edge">
<title>Node7&#45;&gt;Node5</title>
<g id="a_edge7_Node000007_Node000005"><a xlink:title=" ">
<path fill="none" stroke="#63b8ff" d="M165.81,-101.25C152.1,-101.25 138.08,-101.25 125.14,-101.25"/>
<polygon fill="#63b8ff" stroke="#63b8ff" points="165.71,-104.75 175.71,-101.25 165.71,-97.75 165.71,-104.75"/>
</a>
</g>
</g>
<!-- Node8&#45;&gt;Node5 -->
<g id="edge9_Node000008_Node000005" class="edge">
<title>Node8&#45;&gt;Node5</title>
<g id="a_edge9_Node000008_Node000005"><a xlink:title=" ">
<path fill="none" stroke="#63b8ff" d="M191.46,-71.09C165.64,-77.51 134.84,-85.17 110.73,-91.16"/>
<polygon fill="#63b8ff" stroke="#63b8ff" points="192.23,-74.51 201.1,-68.7 190.55,-67.71 192.23,-74.51"/>
</a>
</g>
</g>
</g>
</svg>
