<?xml version="1.0" encoding="UTF-8" standalone="no"?>
<!DOCTYPE svg PUBLIC "-//W3C//DTD SVG 1.1//EN"
 "http://www.w3.org/Graphics/SVG/1.1/DTD/svg11.dtd">
<!-- Generated by graphviz version 13.1.0 (20250701.0955)
 -->
<!-- Title: TemperatureController::forceRelayState Pages: 1 -->
<svg width="423pt" height="131pt"
 viewBox="0.00 0.00 423.00 131.00" xmlns="http://www.w3.org/2000/svg" xmlns:xlink="http://www.w3.org/1999/xlink">
<g id="graph0" class="graph" transform="scale(1 1) rotate(0) translate(4 127.04)">
<title>TemperatureController::forceRelayState</title>
<!-- Node1 -->
<g id="Node000001" class="node">
<title>Node1</title>
<g id="a_Node000001"><a xlink:title="Force relay state (for Modbus control)">
<polygon fill="#999999" stroke="#666666" points="112,-82.88 0,-82.88 0,-52.38 112,-52.38 112,-82.88"/>
<text xml:space="preserve" text-anchor="start" x="8" y="-69.38" font-family="Helvetica,sans-Serif" font-size="10.00">TemperatureController</text>
<text xml:space="preserve" text-anchor="middle" x="56" y="-58.12" font-family="Helvetica,sans-Serif" font-size="10.00">::forceRelayState</text>
</a>
</g>
</g>
<!-- Node2 -->
<g id="Node000002" class="node">
<title>Node2</title>
<g id="a_Node000002"><a xlink:href="class_logger_manager.html#aef24f00186213fa78be3b104a50d58e6" target="_top" xlink:title="Log error message (static convenience method)">
<polygon fill="white" stroke="#666666" points="414.75,-120.25 306.5,-120.25 306.5,-101 414.75,-101 414.75,-120.25"/>
<text xml:space="preserve" text-anchor="middle" x="360.62" y="-106.75" font-family="Helvetica,sans-Serif" font-size="10.00">LoggerManager::error</text>
</a>
</g>
</g>
<!-- Node1&#45;&gt;Node2 -->
<g id="edge1_Node000001_Node000002" class="edge">
<title>Node1&#45;&gt;Node2</title>
<g id="a_edge1_Node000001_Node000002"><a xlink:title=" ">
<path fill="none" stroke="#63b8ff" d="M80.15,-83.17C97.87,-94.09 123.38,-107.75 148,-113.62 196.29,-125.14 252.56,-123.66 294.93,-119.7"/>
<polygon fill="#63b8ff" stroke="#63b8ff" points="295.11,-123.2 304.71,-118.71 294.41,-116.24 295.11,-123.2"/>
</a>
</g>
</g>
<!-- Node3 -->
<g id="Node000003" class="node">
<title>Node3</title>
<g id="a_Node000003"><a xlink:href="class_temperature_controller.html#a61ff288cbeaa86dc21c610c778dba64e" target="_top" xlink:title="Get relay control mode.">
<polygon fill="white" stroke="#666666" points="267.5,-104.88 151,-104.88 151,-74.38 267.5,-74.38 267.5,-104.88"/>
<text xml:space="preserve" text-anchor="start" x="159" y="-91.38" font-family="Helvetica,sans-Serif" font-size="10.00">TemperatureController</text>
<text xml:space="preserve" text-anchor="middle" x="209.25" y="-80.12" font-family="Helvetica,sans-Serif" font-size="10.00">::getRelayControlMode</text>
</a>
</g>
</g>
<!-- Node1&#45;&gt;Node3 -->
<g id="edge2_Node000001_Node000003" class="edge">
<title>Node1&#45;&gt;Node3</title>
<g id="a_edge2_Node000001_Node000003"><a xlink:title=" ">
<path fill="none" stroke="#63b8ff" d="M112.46,-75.69C121.18,-76.96 130.27,-78.28 139.25,-79.59"/>
<polygon fill="#63b8ff" stroke="#63b8ff" points="138.61,-83.03 149.01,-81.01 139.62,-76.11 138.61,-83.03"/>
</a>
</g>
</g>
<!-- Node4 -->
<g id="Node000004" class="node">
<title>Node4</title>
<g id="a_Node000004"><a xlink:href="class_logger_manager.html#a5c1373ccc47f4112b596fe6f84fbbc21" target="_top" xlink:title="Log informational message (static convenience method)">
<polygon fill="white" stroke="#666666" points="261.5,-56.25 157,-56.25 157,-37 261.5,-37 261.5,-56.25"/>
<text xml:space="preserve" text-anchor="middle" x="209.25" y="-42.75" font-family="Helvetica,sans-Serif" font-size="10.00">LoggerManager::info</text>
</a>
</g>
</g>
<!-- Node1&#45;&gt;Node4 -->
<g id="edge4_Node000001_Node000004" class="edge">
<title>Node1&#45;&gt;Node4</title>
<g id="a_edge4_Node000001_Node000004"><a xlink:title=" ">
<path fill="none" stroke="#63b8ff" d="M112.46,-59.92C123.22,-58.43 134.57,-56.85 145.55,-55.33"/>
<polygon fill="#63b8ff" stroke="#63b8ff" points="145.89,-58.82 155.31,-53.97 144.93,-51.88 145.89,-58.82"/>
</a>
</g>
</g>
<!-- Node5 -->
<g id="Node000005" class="node">
<title>Node5</title>
<g id="a_Node000005"><a xlink:href="class_logger_manager.html#a0d52b0ff7bff22817e987ad753102854" target="_top" xlink:title="Log warning message (static convenience method)">
<polygon fill="white" stroke="#666666" points="270.5,-19.25 148,-19.25 148,0 270.5,0 270.5,-19.25"/>
<text xml:space="preserve" text-anchor="middle" x="209.25" y="-5.75" font-family="Helvetica,sans-Serif" font-size="10.00">LoggerManager::warning</text>
</a>
</g>
</g>
<!-- Node1&#45;&gt;Node5 -->
<g id="edge5_Node000001_Node000005" class="edge">
<title>Node1&#45;&gt;Node5</title>
<g id="a_edge5_Node000001_Node000005"><a xlink:title=" ">
<path fill="none" stroke="#63b8ff" d="M89.88,-52C107,-44.16 128.4,-34.83 148,-27.62 152.2,-26.08 156.61,-24.57 161.04,-23.12"/>
<polygon fill="#63b8ff" stroke="#63b8ff" points="162.08,-26.46 170.57,-20.11 159.98,-19.78 162.08,-26.46"/>
</a>
</g>
</g>
<!-- Node3&#45;&gt;Node2 -->
<g id="edge3_Node000003_Node000002" class="edge">
<title>Node3&#45;&gt;Node2</title>
<g id="a_edge3_Node000003_Node000002"><a xlink:title=" ">
<path fill="none" stroke="#63b8ff" d="M267.58,-97.68C276.48,-98.94 285.74,-100.24 294.8,-101.51"/>
<polygon fill="#63b8ff" stroke="#63b8ff" points="294.24,-104.97 304.63,-102.89 295.22,-98.04 294.24,-104.97"/>
</a>
</g>
</g>
</g>
</svg>
