<?xml version="1.0" encoding="UTF-8" standalone="no"?>
<!DOCTYPE svg PUBLIC "-//W3C//DTD SVG 1.1//EN"
 "http://www.w3.org/Graphics/SVG/1.1/DTD/svg11.dtd">
<!-- Generated by graphviz version 13.1.0 (20250701.0955)
 -->
<!-- Title: MQTTManager::connectMQTT Pages: 1 -->
<svg width="837pt" height="101pt"
 viewBox="0.00 0.00 837.00 101.00" xmlns="http://www.w3.org/2000/svg" xmlns:xlink="http://www.w3.org/1999/xlink">
<g id="graph0" class="graph" transform="scale(1 1) rotate(0) translate(4 97.25)">
<title>MQTTManager::connectMQTT</title>
<!-- Node1 -->
<g id="Node000001" class="node">
<title>Node1</title>
<g id="a_Node000001"><a xlink:title="Connect to MQTT broker (blocking)">
<polygon fill="#999999" stroke="#666666" points="828.5,-37.25 679,-37.25 679,-18 828.5,-18 828.5,-37.25"/>
<text xml:space="preserve" text-anchor="middle" x="753.75" y="-23.75" font-family="Helvetica,sans-Serif" font-size="10.00">MQTTManager::connectMQTT</text>
</a>
</g>
</g>
<!-- Node2 -->
<g id="Node000002" class="node">
<title>Node2</title>
<g id="a_Node000002"><a xlink:href="class_m_q_t_t_manager.html#a129d111c8b1ae84640849bc206098853" target="_top" xlink:title="Attempt to connect to MQTT broker (non&#45;blocking)">
<polygon fill="white" stroke="#666666" points="643,-56.25 473.25,-56.25 473.25,-37 643,-37 643,-56.25"/>
<text xml:space="preserve" text-anchor="middle" x="558.12" y="-42.75" font-family="Helvetica,sans-Serif" font-size="10.00">MQTTManager::attemptConnection</text>
</a>
</g>
</g>
<!-- Node1&#45;&gt;Node2 -->
<g id="edge1_Node000001_Node000002" class="edge">
<title>Node1&#45;&gt;Node2</title>
<g id="a_edge1_Node000001_Node000002"><a xlink:title=" ">
<path fill="none" stroke="#63b8ff" d="M667.52,-35.99C659.54,-36.77 651.44,-37.57 643.46,-38.35"/>
<polygon fill="#63b8ff" stroke="#63b8ff" points="667.6,-39.5 677.21,-35.04 666.92,-32.53 667.6,-39.5"/>
</a>
</g>
</g>
<!-- Node7 -->
<g id="Node000007" class="node">
<title>Node7</title>
<g id="a_Node000007"><a xlink:href="class_m_q_t_t_manager.html#a9266e647933501851b411b6d2a9a1f95" target="_top" xlink:title="Main loop function to handle MQTT operations.">
<polygon fill="white" stroke="#666666" points="610.75,-19.25 505.5,-19.25 505.5,0 610.75,0 610.75,-19.25"/>
<text xml:space="preserve" text-anchor="middle" x="558.12" y="-5.75" font-family="Helvetica,sans-Serif" font-size="10.00">MQTTManager::loop</text>
</a>
</g>
</g>
<!-- Node1&#45;&gt;Node7 -->
<g id="edge6_Node000001_Node000007" class="edge">
<title>Node1&#45;&gt;Node7</title>
<g id="a_edge6_Node000001_Node000007"><a xlink:title=" ">
<path fill="none" stroke="#63b8ff" d="M667.52,-19.7C648.32,-17.92 628.52,-16.08 611.17,-14.46"/>
<polygon fill="#63b8ff" stroke="#63b8ff" points="666.93,-23.16 677.21,-20.6 667.58,-16.19 666.93,-23.16"/>
</a>
</g>
</g>
<!-- Node3 -->
<g id="Node000003" class="node">
<title>Node3</title>
<g id="a_Node000003"><a xlink:href="class_m_q_t_t_manager.html#ab8e796839e28f468cb21f9f28b421bed" target="_top" xlink:title="Force reconnection to MQTT broker.">
<polygon fill="white" stroke="#666666" points="437.25,-93.25 307.25,-93.25 307.25,-74 437.25,-74 437.25,-93.25"/>
<text xml:space="preserve" text-anchor="middle" x="372.25" y="-79.75" font-family="Helvetica,sans-Serif" font-size="10.00">MQTTManager::reconnect</text>
</a>
</g>
</g>
<!-- Node2&#45;&gt;Node3 -->
<g id="edge2_Node000002_Node000003" class="edge">
<title>Node2&#45;&gt;Node3</title>
<g id="a_edge2_Node000002_Node000003"><a xlink:title=" ">
<path fill="none" stroke="#63b8ff" d="M495.63,-59C472.17,-63.72 445.72,-69.04 423.43,-73.53"/>
<polygon fill="#63b8ff" stroke="#63b8ff" points="496.28,-62.44 505.4,-57.03 494.9,-55.58 496.28,-62.44"/>
</a>
</g>
</g>
<!-- Node6 -->
<g id="Node000006" class="node">
<title>Node6</title>
<g id="a_Node000006"><a xlink:href="class_m_q_t_t_manager.html#aacbf1b109ac1d6b168309abfd8b3aa72" target="_top" xlink:title="Set new configuration.">
<polygon fill="white" stroke="#666666" points="436.88,-56.25 307.62,-56.25 307.62,-37 436.88,-37 436.88,-56.25"/>
<text xml:space="preserve" text-anchor="middle" x="372.25" y="-42.75" font-family="Helvetica,sans-Serif" font-size="10.00">MQTTManager::setConfig</text>
</a>
</g>
</g>
<!-- Node2&#45;&gt;Node6 -->
<g id="edge5_Node000002_Node000006" class="edge">
<title>Node2&#45;&gt;Node6</title>
<g id="a_edge5_Node000002_Node000006"><a xlink:title=" ">
<path fill="none" stroke="#63b8ff" d="M461.7,-46.62C453.43,-46.62 445.19,-46.62 437.25,-46.62"/>
<polygon fill="#63b8ff" stroke="#63b8ff" points="461.48,-50.13 471.48,-46.63 461.48,-43.13 461.48,-50.13"/>
</a>
</g>
</g>
<!-- Node4 -->
<g id="Node000004" class="node">
<title>Node4</title>
<g id="a_Node000004"><a xlink:href="class_config_manager.html#aeaf809f5fcc5b5be963935c533a56e49" target="_top" xlink:title="Setup MQTT API endpoints.">
<polygon fill="white" stroke="#666666" points="271.25,-93.25 147.25,-93.25 147.25,-74 271.25,-74 271.25,-93.25"/>
<text xml:space="preserve" text-anchor="middle" x="209.25" y="-79.75" font-family="Helvetica,sans-Serif" font-size="10.00">ConfigManager::mqttAPI</text>
</a>
</g>
</g>
<!-- Node3&#45;&gt;Node4 -->
<g id="edge3_Node000003_Node000004" class="edge">
<title>Node3&#45;&gt;Node4</title>
<g id="a_edge3_Node000003_Node000004"><a xlink:title=" ">
<path fill="none" stroke="#63b8ff" d="M295.75,-83.62C287.62,-83.62 279.43,-83.62 271.5,-83.62"/>
<polygon fill="#63b8ff" stroke="#63b8ff" points="295.64,-87.13 305.64,-83.63 295.64,-80.13 295.64,-87.13"/>
</a>
</g>
</g>
<!-- Node5 -->
<g id="Node000005" class="node">
<title>Node5</title>
<g id="a_Node000005"><a xlink:href="class_config_manager.html#a0497343220fc493f5cf9574922508908" target="_top" xlink:title="Initialize the configuration system.">
<polygon fill="white" stroke="#666666" points="111.25,-93.25 0,-93.25 0,-74 111.25,-74 111.25,-93.25"/>
<text xml:space="preserve" text-anchor="middle" x="55.62" y="-79.75" font-family="Helvetica,sans-Serif" font-size="10.00">ConfigManager::begin</text>
</a>
</g>
</g>
<!-- Node4&#45;&gt;Node5 -->
<g id="edge4_Node000004_Node000005" class="edge">
<title>Node4&#45;&gt;Node5</title>
<g id="a_edge4_Node000004_Node000005"><a xlink:title=" ">
<path fill="none" stroke="#63b8ff" d="M135.69,-83.62C127.63,-83.62 119.52,-83.62 111.73,-83.62"/>
<polygon fill="#63b8ff" stroke="#63b8ff" points="135.5,-87.13 145.5,-83.63 135.5,-80.13 135.5,-87.13"/>
</a>
</g>
</g>
<!-- Node8 -->
<g id="Node000008" class="node">
<title>Node8</title>
<g id="a_Node000008"><a xlink:href="main_8cpp.html#afe461d27b9c48d5921c00d521181f12f" target="_top" xlink:title="Main system loop.">
<polygon fill="white" stroke="#666666" points="389.25,-19.25 355.25,-19.25 355.25,0 389.25,0 389.25,-19.25"/>
<text xml:space="preserve" text-anchor="middle" x="372.25" y="-5.75" font-family="Helvetica,sans-Serif" font-size="10.00">loop</text>
</a>
</g>
</g>
<!-- Node7&#45;&gt;Node8 -->
<g id="edge7_Node000007_Node000008" class="edge">
<title>Node7&#45;&gt;Node8</title>
<g id="a_edge7_Node000007_Node000008"><a xlink:title=" ">
<path fill="none" stroke="#63b8ff" d="M494.13,-9.62C456.96,-9.62 412.74,-9.62 389.46,-9.62"/>
<polygon fill="#63b8ff" stroke="#63b8ff" points="493.9,-13.13 503.9,-9.63 493.9,-6.13 493.9,-13.13"/>
</a>
</g>
</g>
</g>
</svg>
