<?xml version="1.0" encoding="UTF-8" standalone="no"?>
<!DOCTYPE svg PUBLIC "-//W3C//DTD SVG 1.1//EN"
 "http://www.w3.org/Graphics/SVG/1.1/DTD/svg11.dtd">
<!-- Generated by graphviz version 13.1.0 (20250701.0955)
 -->
<!-- Title: IndicatorInterface::writePort Pages: 1 -->
<svg width="355pt" height="137pt"
 viewBox="0.00 0.00 355.00 137.00" xmlns="http://www.w3.org/2000/svg" xmlns:xlink="http://www.w3.org/1999/xlink">
<g id="graph0" class="graph" transform="scale(1 1) rotate(0) translate(4 132.5)">
<title>IndicatorInterface::writePort</title>
<!-- Node1 -->
<g id="Node000001" class="node">
<title>Node1</title>
<g id="a_Node000001"><a xlink:title=" ">
<polygon fill="#999999" stroke="#666666" points="347.25,-79.5 255.5,-79.5 255.5,-49 347.25,-49 347.25,-79.5"/>
<text xml:space="preserve" text-anchor="start" x="263.5" y="-66" font-family="Helvetica,sans-Serif" font-size="10.00">IndicatorInterface</text>
<text xml:space="preserve" text-anchor="middle" x="301.38" y="-54.75" font-family="Helvetica,sans-Serif" font-size="10.00">::writePort</text>
</a>
</g>
</g>
<!-- Node1&#45;&gt;Node1 -->
<g id="edge5_Node000001_Node000001" class="edge">
<title>Node1&#45;&gt;Node1</title>
<g id="a_edge5_Node000001_Node000001"><a xlink:title=" ">
<path fill="none" stroke="#63b8ff" d="M322.8,-91.2C319.3,-94.97 312.15,-97.5 301.38,-97.5 281.66,-97.5 274.12,-89.06 278.74,-79.99"/>
<polygon fill="#63b8ff" stroke="#63b8ff" points="326.25,-91.81 323.85,-81.49 319.29,-91.06 326.25,-91.81"/>
</a>
</g>
</g>
<!-- Node2 -->
<g id="Node000002" class="node">
<title>Node2</title>
<g id="a_Node000002"><a xlink:href="class_indicator_interface.html#aafa418167df7eb74fc90fca14818a5eb" target="_top" xlink:title=" ">
<polygon fill="white" stroke="#666666" points="219.5,-128.5 127.75,-128.5 127.75,-98 219.5,-98 219.5,-128.5"/>
<text xml:space="preserve" text-anchor="start" x="135.75" y="-115" font-family="Helvetica,sans-Serif" font-size="10.00">IndicatorInterface</text>
<text xml:space="preserve" text-anchor="middle" x="173.62" y="-103.75" font-family="Helvetica,sans-Serif" font-size="10.00">::startBlinking</text>
</a>
</g>
</g>
<!-- Node1&#45;&gt;Node2 -->
<g id="edge1_Node000001_Node000002" class="edge">
<title>Node1&#45;&gt;Node2</title>
<g id="a_edge1_Node000001_Node000002"><a xlink:title=" ">
<path fill="none" stroke="#63b8ff" d="M249.77,-83.97C238.14,-88.5 225.93,-93.26 214.81,-97.59"/>
<polygon fill="#63b8ff" stroke="#63b8ff" points="250.78,-87.33 258.83,-80.44 248.24,-80.81 250.78,-87.33"/>
</a>
</g>
</g>
<!-- Node3 -->
<g id="Node000003" class="node">
<title>Node3</title>
<g id="a_Node000003"><a xlink:href="class_indicator_interface.html#a4458930151b73e21364fada5ba6fe129" target="_top" xlink:title=" ">
<polygon fill="white" stroke="#666666" points="219.5,-79.5 127.75,-79.5 127.75,-49 219.5,-49 219.5,-79.5"/>
<text xml:space="preserve" text-anchor="start" x="135.75" y="-66" font-family="Helvetica,sans-Serif" font-size="10.00">IndicatorInterface</text>
<text xml:space="preserve" text-anchor="middle" x="173.62" y="-54.75" font-family="Helvetica,sans-Serif" font-size="10.00">::stopBlinking</text>
</a>
</g>
</g>
<!-- Node1&#45;&gt;Node3 -->
<g id="edge2_Node000001_Node000003" class="edge">
<title>Node1&#45;&gt;Node3</title>
<g id="a_edge2_Node000001_Node000003"><a xlink:title=" ">
<path fill="none" stroke="#63b8ff" d="M244.01,-64.25C235.9,-64.25 227.64,-64.25 219.78,-64.25"/>
<polygon fill="#63b8ff" stroke="#63b8ff" points="243.82,-67.75 253.82,-64.25 243.82,-60.75 243.82,-67.75"/>
</a>
</g>
</g>
<!-- Node4 -->
<g id="Node000004" class="node">
<title>Node4</title>
<g id="a_Node000004"><a xlink:href="class_indicator_interface.html#a891f8dd7ca0b76e7d89c0ab5567303da" target="_top" xlink:title=" ">
<polygon fill="white" stroke="#666666" points="219.5,-30.5 127.75,-30.5 127.75,0 219.5,0 219.5,-30.5"/>
<text xml:space="preserve" text-anchor="start" x="135.75" y="-17" font-family="Helvetica,sans-Serif" font-size="10.00">IndicatorInterface</text>
<text xml:space="preserve" text-anchor="middle" x="173.62" y="-5.75" font-family="Helvetica,sans-Serif" font-size="10.00">::updateBlinking</text>
</a>
</g>
</g>
<!-- Node1&#45;&gt;Node4 -->
<g id="edge3_Node000001_Node000004" class="edge">
<title>Node1&#45;&gt;Node4</title>
<g id="a_edge3_Node000001_Node000004"><a xlink:title=" ">
<path fill="none" stroke="#63b8ff" d="M249.77,-44.53C238.14,-40 225.93,-35.24 214.81,-30.91"/>
<polygon fill="#63b8ff" stroke="#63b8ff" points="248.24,-47.69 258.83,-48.06 250.78,-41.17 248.24,-47.69"/>
</a>
</g>
</g>
<!-- Node5 -->
<g id="Node000005" class="node">
<title>Node5</title>
<g id="a_Node000005"><a xlink:href="class_indicator_interface.html#a01db31cebc14d62f6aa9b1266e6c278d" target="_top" xlink:title=" ">
<polygon fill="white" stroke="#666666" points="91.75,-30.5 0,-30.5 0,0 91.75,0 91.75,-30.5"/>
<text xml:space="preserve" text-anchor="start" x="8" y="-17" font-family="Helvetica,sans-Serif" font-size="10.00">IndicatorInterface</text>
<text xml:space="preserve" text-anchor="middle" x="45.88" y="-5.75" font-family="Helvetica,sans-Serif" font-size="10.00">::update</text>
</a>
</g>
</g>
<!-- Node4&#45;&gt;Node5 -->
<g id="edge4_Node000004_Node000005" class="edge">
<title>Node4&#45;&gt;Node5</title>
<g id="a_edge4_Node000004_Node000005"><a xlink:title=" ">
<path fill="none" stroke="#63b8ff" d="M116.26,-15.25C108.15,-15.25 99.89,-15.25 92.03,-15.25"/>
<polygon fill="#63b8ff" stroke="#63b8ff" points="116.07,-18.75 126.07,-15.25 116.07,-11.75 116.07,-18.75"/>
</a>
</g>
</g>
</g>
</svg>
