<?xml version="1.0" encoding="UTF-8" standalone="no"?>
<!DOCTYPE svg PUBLIC "-//W3C//DTD SVG 1.1//EN"
 "http://www.w3.org/Graphics/SVG/1.1/DTD/svg11.dtd">
<!-- Generated by graphviz version 13.1.0 (20250701.0955)
 -->
<!-- Title: IndicatorInterface::_wakeOLED Pages: 1 -->
<svg width="643pt" height="504pt"
 viewBox="0.00 0.00 643.00 504.00" xmlns="http://www.w3.org/2000/svg" xmlns:xlink="http://www.w3.org/1999/xlink">
<g id="graph0" class="graph" transform="scale(1 1) rotate(0) translate(4 499.5)">
<title>IndicatorInterface::_wakeOLED</title>
<!-- Node1 -->
<g id="Node000001" class="node">
<title>Node1</title>
<g id="a_Node000001"><a xlink:title="Wake OLED from sleep.">
<polygon fill="#999999" stroke="#666666" points="635,-250.5 543.25,-250.5 543.25,-220 635,-220 635,-250.5"/>
<text xml:space="preserve" text-anchor="start" x="551.25" y="-237" font-family="Helvetica,sans-Serif" font-size="10.00">IndicatorInterface</text>
<text xml:space="preserve" text-anchor="middle" x="589.12" y="-225.75" font-family="Helvetica,sans-Serif" font-size="10.00">::_wakeOLED</text>
</a>
</g>
</g>
<!-- Node2 -->
<g id="Node000002" class="node">
<title>Node2</title>
<g id="a_Node000002"><a xlink:href="class_indicator_interface.html#a54fa76657f9ef0c9e19b6e94d682fb65" target="_top" xlink:title="Display large cross/error symbol.">
<polygon fill="white" stroke="#666666" points="500.12,-471.5 408.38,-471.5 408.38,-441 500.12,-441 500.12,-471.5"/>
<text xml:space="preserve" text-anchor="start" x="416.38" y="-458" font-family="Helvetica,sans-Serif" font-size="10.00">IndicatorInterface</text>
<text xml:space="preserve" text-anchor="middle" x="454.25" y="-446.75" font-family="Helvetica,sans-Serif" font-size="10.00">::displayCross</text>
</a>
</g>
</g>
<!-- Node1&#45;&gt;Node2 -->
<g id="edge1_Node000001_Node000002" class="edge">
<title>Node1&#45;&gt;Node2</title>
<g id="a_edge1_Node000001_Node000002"><a xlink:title=" ">
<path fill="none" stroke="#63b8ff" d="M583.43,-262.03C574.96,-303.16 553.51,-382.28 507.25,-431.25 503.88,-434.82 499.89,-437.94 495.65,-440.65"/>
<polygon fill="#63b8ff" stroke="#63b8ff" points="586.86,-262.76 585.33,-252.27 579.98,-261.42 586.86,-262.76"/>
</a>
</g>
</g>
<!-- Node7 -->
<g id="Node000007" class="node">
<title>Node7</title>
<g id="a_Node000007"><a xlink:href="class_indicator_interface.html#aaa36eb97521df2decb957418acc277a9" target="_top" xlink:title="Display large &quot;OK&quot; symbol.">
<polygon fill="white" stroke="#666666" points="500.12,-422.5 408.38,-422.5 408.38,-392 500.12,-392 500.12,-422.5"/>
<text xml:space="preserve" text-anchor="start" x="416.38" y="-409" font-family="Helvetica,sans-Serif" font-size="10.00">IndicatorInterface</text>
<text xml:space="preserve" text-anchor="middle" x="454.25" y="-397.75" font-family="Helvetica,sans-Serif" font-size="10.00">::displayOK</text>
</a>
</g>
</g>
<!-- Node1&#45;&gt;Node7 -->
<g id="edge6_Node000001_Node000007" class="edge">
<title>Node1&#45;&gt;Node7</title>
<g id="a_edge6_Node000001_Node000007"><a xlink:title=" ">
<path fill="none" stroke="#63b8ff" d="M579.45,-261.28C567.6,-293.36 543.61,-347.83 507.25,-382.25 503.54,-385.76 499.24,-388.87 494.74,-391.59"/>
<polygon fill="#63b8ff" stroke="#63b8ff" points="582.7,-262.58 582.75,-251.98 576.1,-260.23 582.7,-262.58"/>
</a>
</g>
</g>
<!-- Node9 -->
<g id="Node000009" class="node">
<title>Node9</title>
<g id="a_Node000009"><a xlink:href="class_indicator_interface.html#a4586496158d0d102742463c908d9b2c3" target="_top" xlink:title="Handle interrupt from PCF8575.">
<polygon fill="white" stroke="#666666" points="500.12,-373.5 408.38,-373.5 408.38,-343 500.12,-343 500.12,-373.5"/>
<text xml:space="preserve" text-anchor="start" x="416.38" y="-360" font-family="Helvetica,sans-Serif" font-size="10.00">IndicatorInterface</text>
<text xml:space="preserve" text-anchor="middle" x="454.25" y="-348.75" font-family="Helvetica,sans-Serif" font-size="10.00">::handleInterrupt</text>
</a>
</g>
</g>
<!-- Node1&#45;&gt;Node9 -->
<g id="edge9_Node000001_Node000009" class="edge">
<title>Node1&#45;&gt;Node9</title>
<g id="a_edge9_Node000001_Node000009"><a xlink:title=" ">
<path fill="none" stroke="#63b8ff" d="M571.98,-260.42C557.19,-281.93 533.64,-312.58 507.25,-333.25 502.83,-336.71 497.86,-339.85 492.79,-342.65"/>
<polygon fill="#63b8ff" stroke="#63b8ff" points="574.81,-262.48 577.48,-252.22 569,-258.58 574.81,-262.48"/>
</a>
</g>
</g>
<!-- Node10 -->
<g id="Node000010" class="node">
<title>Node10</title>
<g id="a_Node000010"><a xlink:href="class_indicator_interface.html#ac3d970f4cfa8af402fa2538cf05e8cd6" target="_top" xlink:title="Display text buffer on OLED.">
<polygon fill="white" stroke="#666666" points="500.12,-324.5 408.38,-324.5 408.38,-294 500.12,-294 500.12,-324.5"/>
<text xml:space="preserve" text-anchor="start" x="416.38" y="-311" font-family="Helvetica,sans-Serif" font-size="10.00">IndicatorInterface</text>
<text xml:space="preserve" text-anchor="middle" x="454.25" y="-299.75" font-family="Helvetica,sans-Serif" font-size="10.00">::printText</text>
</a>
</g>
</g>
<!-- Node1&#45;&gt;Node10 -->
<g id="edge10_Node000001_Node000010" class="edge">
<title>Node1&#45;&gt;Node10</title>
<g id="a_edge10_Node000001_Node000010"><a xlink:title=" ">
<path fill="none" stroke="#63b8ff" d="M554.26,-256.76C539.94,-265.6 522.97,-275.74 507.25,-284.25 501.44,-287.4 495.16,-290.59 489.06,-293.58"/>
<polygon fill="#63b8ff" stroke="#63b8ff" points="555.78,-259.94 562.42,-251.69 552.08,-254 555.78,-259.94"/>
</a>
</g>
</g>
<!-- Node11 -->
<g id="Node000011" class="node">
<title>Node11</title>
<g id="a_Node000011"><a xlink:href="class_indicator_interface.html#a3d7f75c8c69808ecc98d1e1fb272984d" target="_top" xlink:title="Push new line to display, shifting others down.">
<polygon fill="white" stroke="#666666" points="500.12,-275.5 408.38,-275.5 408.38,-245 500.12,-245 500.12,-275.5"/>
<text xml:space="preserve" text-anchor="start" x="416.38" y="-262" font-family="Helvetica,sans-Serif" font-size="10.00">IndicatorInterface</text>
<text xml:space="preserve" text-anchor="middle" x="454.25" y="-250.75" font-family="Helvetica,sans-Serif" font-size="10.00">::pushLine</text>
</a>
</g>
</g>
<!-- Node1&#45;&gt;Node11 -->
<g id="edge11_Node000001_Node000011" class="edge">
<title>Node1&#45;&gt;Node11</title>
<g id="a_edge11_Node000001_Node000011"><a xlink:title=" ">
<path fill="none" stroke="#63b8ff" d="M531.63,-245.88C521.2,-247.84 510.44,-249.87 500.4,-251.75"/>
<polygon fill="#63b8ff" stroke="#63b8ff" points="532.1,-249.35 541.28,-244.06 530.81,-242.47 532.1,-249.35"/>
</a>
</g>
</g>
<!-- Node12 -->
<g id="Node000012" class="node">
<title>Node12</title>
<g id="a_Node000012"><a xlink:href="class_indicator_interface.html#ab8a4f7cc08c2fb112aa893f0aeca044a" target="_top" xlink:title="Set OLED blinking mode.">
<polygon fill="white" stroke="#666666" points="500.12,-226.5 408.38,-226.5 408.38,-196 500.12,-196 500.12,-226.5"/>
<text xml:space="preserve" text-anchor="start" x="416.38" y="-213" font-family="Helvetica,sans-Serif" font-size="10.00">IndicatorInterface</text>
<text xml:space="preserve" text-anchor="middle" x="454.25" y="-201.75" font-family="Helvetica,sans-Serif" font-size="10.00">::setOLEDblink</text>
</a>
</g>
</g>
<!-- Node1&#45;&gt;Node12 -->
<g id="edge12_Node000001_Node000012" class="edge">
<title>Node1&#45;&gt;Node12</title>
<g id="a_edge12_Node000001_Node000012"><a xlink:title=" ">
<path fill="none" stroke="#63b8ff" d="M531.63,-225.05C521.2,-223.16 510.44,-221.22 500.4,-219.41"/>
<polygon fill="#63b8ff" stroke="#63b8ff" points="530.82,-228.46 541.28,-226.79 532.06,-221.57 530.82,-228.46"/>
</a>
</g>
</g>
<!-- Node13 -->
<g id="Node000013" class="node">
<title>Node13</title>
<g id="a_Node000013"><a xlink:href="class_indicator_interface.html#acf545ec2921c786020f7826a846b364d" target="_top" xlink:title="Set OLED display mode.">
<polygon fill="white" stroke="#666666" points="500.12,-177.5 408.38,-177.5 408.38,-147 500.12,-147 500.12,-177.5"/>
<text xml:space="preserve" text-anchor="start" x="416.38" y="-164" font-family="Helvetica,sans-Serif" font-size="10.00">IndicatorInterface</text>
<text xml:space="preserve" text-anchor="middle" x="454.25" y="-152.75" font-family="Helvetica,sans-Serif" font-size="10.00">::setOledMode</text>
</a>
</g>
</g>
<!-- Node1&#45;&gt;Node13 -->
<g id="edge13_Node000001_Node000013" class="edge">
<title>Node1&#45;&gt;Node13</title>
<g id="a_edge13_Node000001_Node000013"><a xlink:title=" ">
<path fill="none" stroke="#63b8ff" d="M553.16,-213.59C539.06,-205.1 522.54,-195.44 507.25,-187.25 501.42,-184.13 495.14,-180.95 489.03,-177.96"/>
<polygon fill="#63b8ff" stroke="#63b8ff" points="551.3,-216.55 561.66,-218.75 554.93,-210.57 551.3,-216.55"/>
</a>
</g>
</g>
<!-- Node14 -->
<g id="Node000014" class="node">
<title>Node14</title>
<g id="a_Node000014"><a xlink:href="class_indicator_interface.html#a68ddd3010b792e5ae00fecad56e7a4f6" target="_top" xlink:title="Set OLED display mode with small font option.">
<polygon fill="white" stroke="#666666" points="506.5,-128.5 402,-128.5 402,-98 506.5,-98 506.5,-128.5"/>
<text xml:space="preserve" text-anchor="start" x="410" y="-115" font-family="Helvetica,sans-Serif" font-size="10.00">IndicatorInterface</text>
<text xml:space="preserve" text-anchor="middle" x="454.25" y="-103.75" font-family="Helvetica,sans-Serif" font-size="10.00">::setOledModeSmall</text>
</a>
</g>
</g>
<!-- Node1&#45;&gt;Node14 -->
<g id="edge14_Node000001_Node000014" class="edge">
<title>Node1&#45;&gt;Node14</title>
<g id="a_edge14_Node000001_Node000014"><a xlink:title=" ">
<path fill="none" stroke="#63b8ff" d="M571.92,-210.35C557.1,-189.07 533.53,-158.73 507.25,-138.25 502.83,-134.8 497.85,-131.67 492.77,-128.87"/>
<polygon fill="#63b8ff" stroke="#63b8ff" points="568.92,-212.15 577.43,-218.45 574.71,-208.21 568.92,-212.15"/>
</a>
</g>
</g>
<!-- Node15 -->
<g id="Node000015" class="node">
<title>Node15</title>
<g id="a_Node000015"><a xlink:href="class_indicator_interface.html#a7d807749bff6ef06c128617b35f4dcce" target="_top" xlink:title="Turn OLED display on.">
<polygon fill="white" stroke="#666666" points="500.12,-79.5 408.38,-79.5 408.38,-49 500.12,-49 500.12,-79.5"/>
<text xml:space="preserve" text-anchor="start" x="416.38" y="-66" font-family="Helvetica,sans-Serif" font-size="10.00">IndicatorInterface</text>
<text xml:space="preserve" text-anchor="middle" x="454.25" y="-54.75" font-family="Helvetica,sans-Serif" font-size="10.00">::setOLEDOn</text>
</a>
</g>
</g>
<!-- Node1&#45;&gt;Node15 -->
<g id="edge15_Node000001_Node000015" class="edge">
<title>Node1&#45;&gt;Node15</title>
<g id="a_edge15_Node000001_Node000015"><a xlink:title=" ">
<path fill="none" stroke="#63b8ff" d="M579.22,-208.9C567.26,-176.98 543.28,-123.26 507.25,-89.25 503.53,-85.74 499.24,-82.64 494.73,-79.92"/>
<polygon fill="#63b8ff" stroke="#63b8ff" points="575.87,-209.96 582.56,-218.17 582.46,-207.58 575.87,-209.96"/>
</a>
</g>
</g>
<!-- Node16 -->
<g id="Node000016" class="node">
<title>Node16</title>
<g id="a_Node000016"><a xlink:href="class_indicator_interface.html#a0f23c8a09f237eca7d71a9ff4e560e96" target="_top" xlink:title="Set OLED sleep delay.">
<polygon fill="white" stroke="#666666" points="507.25,-30.5 401.25,-30.5 401.25,0 507.25,0 507.25,-30.5"/>
<text xml:space="preserve" text-anchor="start" x="409.25" y="-17" font-family="Helvetica,sans-Serif" font-size="10.00">IndicatorInterface</text>
<text xml:space="preserve" text-anchor="middle" x="454.25" y="-5.75" font-family="Helvetica,sans-Serif" font-size="10.00">::setOledSleepDelay</text>
</a>
</g>
</g>
<!-- Node1&#45;&gt;Node16 -->
<g id="edge16_Node000001_Node000016" class="edge">
<title>Node1&#45;&gt;Node16</title>
<g id="a_edge16_Node000001_Node000016"><a xlink:title=" ">
<path fill="none" stroke="#63b8ff" d="M583.33,-208.3C574.76,-167.29 553.24,-88.84 507.25,-40.25 503.88,-36.69 499.89,-33.57 495.65,-30.86"/>
<polygon fill="#63b8ff" stroke="#63b8ff" points="579.88,-208.9 585.25,-218.04 586.75,-207.55 579.88,-208.9"/>
</a>
</g>
</g>
<!-- Node3 -->
<g id="Node000003" class="node">
<title>Node3</title>
<g id="a_Node000003"><a xlink:href="class_indicator_interface.html#ad70f8a9e7f527bc4faeb576b47483385" target="_top" xlink:title="Handle special symbol blinking.">
<polygon fill="white" stroke="#666666" points="365.25,-446.5 255.5,-446.5 255.5,-416 365.25,-416 365.25,-446.5"/>
<text xml:space="preserve" text-anchor="start" x="263.5" y="-433" font-family="Helvetica,sans-Serif" font-size="10.00">IndicatorInterface</text>
<text xml:space="preserve" text-anchor="middle" x="310.38" y="-421.75" font-family="Helvetica,sans-Serif" font-size="10.00">::_handleSpecialBlink</text>
</a>
</g>
</g>
<!-- Node2&#45;&gt;Node3 -->
<g id="edge2_Node000002_Node000003" class="edge">
<title>Node2&#45;&gt;Node3</title>
<g id="a_edge2_Node000002_Node000003"><a xlink:title=" ">
<path fill="none" stroke="#63b8ff" d="M396.66,-446.28C386.44,-444.48 375.8,-442.6 365.65,-440.81"/>
<polygon fill="#63b8ff" stroke="#63b8ff" points="396.02,-449.72 406.48,-448.01 397.24,-442.83 396.02,-449.72"/>
</a>
</g>
</g>
<!-- Node6 -->
<g id="Node000006" class="node">
<title>Node6</title>
<g id="a_Node000006"><a xlink:href="class_indicator_interface.html#ac5ef0d744798dc4643c4fa0074e9b503" target="_top" xlink:title="Blink between cross symbol and previous text.">
<polygon fill="white" stroke="#666666" points="356.25,-495.5 264.5,-495.5 264.5,-465 356.25,-465 356.25,-495.5"/>
<text xml:space="preserve" text-anchor="start" x="272.5" y="-482" font-family="Helvetica,sans-Serif" font-size="10.00">IndicatorInterface</text>
<text xml:space="preserve" text-anchor="middle" x="310.38" y="-470.75" font-family="Helvetica,sans-Serif" font-size="10.00">::blinkCross</text>
</a>
</g>
</g>
<!-- Node2&#45;&gt;Node6 -->
<g id="edge5_Node000002_Node000006" class="edge">
<title>Node2&#45;&gt;Node6</title>
<g id="a_edge5_Node000002_Node000006"><a xlink:title=" ">
<path fill="none" stroke="#63b8ff" d="M396.96,-465.77C383.6,-468.03 369.51,-470.42 356.71,-472.58"/>
<polygon fill="#63b8ff" stroke="#63b8ff" points="397.2,-469.28 406.48,-464.16 396.03,-462.38 397.2,-469.28"/>
</a>
</g>
</g>
<!-- Node4 -->
<g id="Node000004" class="node">
<title>Node4</title>
<g id="a_Node000004"><a xlink:href="class_indicator_interface.html#a5f9eaa4ad4d2da76bf9536a4dfad8723" target="_top" xlink:title="Update OLED display (call in main loop)">
<polygon fill="white" stroke="#666666" points="219.5,-446.5 127.75,-446.5 127.75,-416 219.5,-416 219.5,-446.5"/>
<text xml:space="preserve" text-anchor="start" x="135.75" y="-433" font-family="Helvetica,sans-Serif" font-size="10.00">IndicatorInterface</text>
<text xml:space="preserve" text-anchor="middle" x="173.62" y="-421.75" font-family="Helvetica,sans-Serif" font-size="10.00">::updateOLED</text>
</a>
</g>
</g>
<!-- Node3&#45;&gt;Node4 -->
<g id="edge3_Node000003_Node000004" class="edge">
<title>Node3&#45;&gt;Node4</title>
<g id="a_edge3_Node000003_Node000004"><a xlink:title=" ">
<path fill="none" stroke="#63b8ff" d="M244.1,-431.25C235.8,-431.25 227.46,-431.25 219.59,-431.25"/>
<polygon fill="#63b8ff" stroke="#63b8ff" points="243.83,-434.75 253.83,-431.25 243.83,-427.75 243.83,-434.75"/>
</a>
</g>
</g>
<!-- Node5 -->
<g id="Node000005" class="node">
<title>Node5</title>
<g id="a_Node000005"><a xlink:href="class_indicator_interface.html#a01db31cebc14d62f6aa9b1266e6c278d" target="_top" xlink:title="Update interface state (call in main loop)">
<polygon fill="white" stroke="#666666" points="91.75,-446.5 0,-446.5 0,-416 91.75,-416 91.75,-446.5"/>
<text xml:space="preserve" text-anchor="start" x="8" y="-433" font-family="Helvetica,sans-Serif" font-size="10.00">IndicatorInterface</text>
<text xml:space="preserve" text-anchor="middle" x="45.88" y="-421.75" font-family="Helvetica,sans-Serif" font-size="10.00">::update</text>
</a>
</g>
</g>
<!-- Node4&#45;&gt;Node5 -->
<g id="edge4_Node000004_Node000005" class="edge">
<title>Node4&#45;&gt;Node5</title>
<g id="a_edge4_Node000004_Node000005"><a xlink:title=" ">
<path fill="none" stroke="#63b8ff" d="M116.26,-431.25C108.15,-431.25 99.89,-431.25 92.03,-431.25"/>
<polygon fill="#63b8ff" stroke="#63b8ff" points="116.07,-434.75 126.07,-431.25 116.07,-427.75 116.07,-434.75"/>
</a>
</g>
</g>
<!-- Node7&#45;&gt;Node3 -->
<g id="edge7_Node000007_Node000003" class="edge">
<title>Node7&#45;&gt;Node3</title>
<g id="a_edge7_Node000007_Node000003"><a xlink:title=" ">
<path fill="none" stroke="#63b8ff" d="M396.66,-416.82C386.44,-418.55 375.8,-420.35 365.65,-422.07"/>
<polygon fill="#63b8ff" stroke="#63b8ff" points="397.2,-420.28 406.48,-415.16 396.03,-413.38 397.2,-420.28"/>
</a>
</g>
</g>
<!-- Node8 -->
<g id="Node000008" class="node">
<title>Node8</title>
<g id="a_Node000008"><a xlink:href="class_indicator_interface.html#aa7c6bd010177acde7097bd4b186fa96d" target="_top" xlink:title="Blink between OK symbol and previous text.">
<polygon fill="white" stroke="#666666" points="356.25,-397.5 264.5,-397.5 264.5,-367 356.25,-367 356.25,-397.5"/>
<text xml:space="preserve" text-anchor="start" x="272.5" y="-384" font-family="Helvetica,sans-Serif" font-size="10.00">IndicatorInterface</text>
<text xml:space="preserve" text-anchor="middle" x="310.38" y="-372.75" font-family="Helvetica,sans-Serif" font-size="10.00">::blinkOK</text>
</a>
</g>
</g>
<!-- Node7&#45;&gt;Node8 -->
<g id="edge8_Node000007_Node000008" class="edge">
<title>Node7&#45;&gt;Node8</title>
<g id="a_edge8_Node000007_Node000008"><a xlink:title=" ">
<path fill="none" stroke="#63b8ff" d="M396.96,-397.33C383.6,-394.98 369.51,-392.49 356.71,-390.24"/>
<polygon fill="#63b8ff" stroke="#63b8ff" points="396.02,-400.72 406.48,-399.01 397.24,-393.83 396.02,-400.72"/>
</a>
</g>
</g>
</g>
</svg>
