<?xml version="1.0" encoding="UTF-8" standalone="no"?>
<!DOCTYPE svg PUBLIC "-//W3C//DTD SVG 1.1//EN"
 "http://www.w3.org/Graphics/SVG/1.1/DTD/svg11.dtd">
<!-- Generated by graphviz version 13.1.0 (20250701.0955)
 -->
<!-- Title: IndicatorInterface::updateOLED Pages: 1 -->
<svg width="711pt" height="226pt"
 viewBox="0.00 0.00 711.00 226.00" xmlns="http://www.w3.org/2000/svg" xmlns:xlink="http://www.w3.org/1999/xlink">
<g id="graph0" class="graph" transform="scale(1 1) rotate(0) translate(4 221.5)">
<title>IndicatorInterface::updateOLED</title>
<!-- Node1 -->
<g id="Node000001" class="node">
<title>Node1</title>
<g id="a_Node000001"><a xlink:title=" ">
<polygon fill="#999999" stroke="#666666" points="91.75,-152.5 0,-152.5 0,-122 91.75,-122 91.75,-152.5"/>
<text xml:space="preserve" text-anchor="start" x="8" y="-139" font-family="Helvetica,sans-Serif" font-size="10.00">IndicatorInterface</text>
<text xml:space="preserve" text-anchor="middle" x="45.88" y="-127.75" font-family="Helvetica,sans-Serif" font-size="10.00">::updateOLED</text>
</a>
</g>
</g>
<!-- Node2 -->
<g id="Node000002" class="node">
<title>Node2</title>
<g id="a_Node000002"><a xlink:href="class_indicator_interface.html#afc1bacc73d487f912d7a71f559e193ef" target="_top" xlink:title=" ">
<polygon fill="white" stroke="#666666" points="379.88,-217.5 275.38,-217.5 275.38,-187 379.88,-187 379.88,-217.5"/>
<text xml:space="preserve" text-anchor="start" x="283.38" y="-204" font-family="Helvetica,sans-Serif" font-size="10.00">IndicatorInterface</text>
<text xml:space="preserve" text-anchor="middle" x="327.62" y="-192.75" font-family="Helvetica,sans-Serif" font-size="10.00">::_handleOLEDBlink</text>
</a>
</g>
</g>
<!-- Node1&#45;&gt;Node2 -->
<g id="edge1_Node000001_Node000002" class="edge">
<title>Node1&#45;&gt;Node2</title>
<g id="a_edge1_Node000001_Node000002"><a xlink:title=" ">
<path fill="none" stroke="#63b8ff" d="M66.53,-152.77C82.16,-164.18 105.1,-178.93 127.75,-186.25 171.7,-200.45 223.82,-204.2 263.67,-204.53"/>
<polygon fill="#63b8ff" stroke="#63b8ff" points="263.58,-208.03 273.59,-204.53 263.59,-201.03 263.58,-208.03"/>
</a>
</g>
</g>
<!-- Node6 -->
<g id="Node000006" class="node">
<title>Node6</title>
<g id="a_Node000006"><a xlink:href="class_indicator_interface.html#a01fa37471cccc2655c0a817b1cab0826" target="_top" xlink:title=" ">
<polygon fill="white" stroke="#666666" points="236.38,-177.5 128.88,-177.5 128.88,-147 236.38,-147 236.38,-177.5"/>
<text xml:space="preserve" text-anchor="start" x="136.88" y="-164" font-family="Helvetica,sans-Serif" font-size="10.00">IndicatorInterface</text>
<text xml:space="preserve" text-anchor="middle" x="182.62" y="-152.75" font-family="Helvetica,sans-Serif" font-size="10.00">::_handleOLEDSleep</text>
</a>
</g>
</g>
<!-- Node1&#45;&gt;Node6 -->
<g id="edge5_Node000001_Node000006" class="edge">
<title>Node1&#45;&gt;Node6</title>
<g id="a_edge5_Node000001_Node000006"><a xlink:title=" ">
<path fill="none" stroke="#63b8ff" d="M92.12,-145.64C100.31,-147.16 108.98,-148.77 117.59,-150.37"/>
<polygon fill="#63b8ff" stroke="#63b8ff" points="116.85,-153.79 127.32,-152.18 118.13,-146.91 116.85,-153.79"/>
</a>
</g>
</g>
<!-- Node7 -->
<g id="Node000007" class="node">
<title>Node7</title>
<g id="a_Node000007"><a xlink:href="class_indicator_interface.html#a520ad5df9ff7c3f3b716b2b179e50a7e" target="_top" xlink:title=" ">
<polygon fill="white" stroke="#666666" points="229.25,-128.5 136,-128.5 136,-98 229.25,-98 229.25,-128.5"/>
<text xml:space="preserve" text-anchor="start" x="144" y="-115" font-family="Helvetica,sans-Serif" font-size="10.00">IndicatorInterface</text>
<text xml:space="preserve" text-anchor="middle" x="182.62" y="-103.75" font-family="Helvetica,sans-Serif" font-size="10.00">::_handleScrolling</text>
</a>
</g>
</g>
<!-- Node1&#45;&gt;Node7 -->
<g id="edge6_Node000001_Node000007" class="edge">
<title>Node1&#45;&gt;Node7</title>
<g id="a_edge6_Node000001_Node000007"><a xlink:title=" ">
<path fill="none" stroke="#63b8ff" d="M92.12,-129.19C102.56,-127.33 113.8,-125.33 124.67,-123.39"/>
<polygon fill="#63b8ff" stroke="#63b8ff" points="125.09,-126.87 134.32,-121.68 123.86,-119.98 125.09,-126.87"/>
</a>
</g>
</g>
<!-- Node8 -->
<g id="Node000008" class="node">
<title>Node8</title>
<g id="a_Node000008"><a xlink:href="class_indicator_interface.html#ad70f8a9e7f527bc4faeb576b47483385" target="_top" xlink:title=" ">
<polygon fill="white" stroke="#666666" points="237.5,-79.5 127.75,-79.5 127.75,-49 237.5,-49 237.5,-79.5"/>
<text xml:space="preserve" text-anchor="start" x="135.75" y="-66" font-family="Helvetica,sans-Serif" font-size="10.00">IndicatorInterface</text>
<text xml:space="preserve" text-anchor="middle" x="182.62" y="-54.75" font-family="Helvetica,sans-Serif" font-size="10.00">::_handleSpecialBlink</text>
</a>
</g>
</g>
<!-- Node1&#45;&gt;Node8 -->
<g id="edge8_Node000001_Node000008" class="edge">
<title>Node1&#45;&gt;Node8</title>
<g id="a_edge8_Node000001_Node000008"><a xlink:title=" ">
<path fill="none" stroke="#63b8ff" d="M71.64,-121.67C87.46,-111.94 108.54,-99.37 127.75,-89.25 130.57,-87.76 133.5,-86.27 136.46,-84.79"/>
<polygon fill="#63b8ff" stroke="#63b8ff" points="137.76,-88.05 145.23,-80.54 134.71,-81.76 137.76,-88.05"/>
</a>
</g>
</g>
<!-- Node3 -->
<g id="Node000003" class="node">
<title>Node3</title>
<g id="a_Node000003"><a xlink:href="class_indicator_interface.html#a38acc1a5120e275253fc4e458aea91f0" target="_top" xlink:title=" ">
<polygon fill="white" stroke="#666666" points="534.25,-171.5 417.75,-171.5 417.75,-141 534.25,-141 534.25,-171.5"/>
<text xml:space="preserve" text-anchor="start" x="425.75" y="-158" font-family="Helvetica,sans-Serif" font-size="10.00">IndicatorInterface</text>
<text xml:space="preserve" text-anchor="middle" x="476" y="-146.75" font-family="Helvetica,sans-Serif" font-size="10.00">::_updateOLEDDisplay</text>
</a>
</g>
</g>
<!-- Node2&#45;&gt;Node3 -->
<g id="edge2_Node000002_Node000003" class="edge">
<title>Node2&#45;&gt;Node3</title>
<g id="a_edge2_Node000002_Node000003"><a xlink:title=" ">
<path fill="none" stroke="#63b8ff" d="M378.59,-186.55C390.13,-182.92 402.53,-179.02 414.47,-175.27"/>
<polygon fill="#63b8ff" stroke="#63b8ff" points="415.33,-178.67 423.82,-172.33 413.23,-171.99 415.33,-178.67"/>
</a>
</g>
</g>
<!-- Node4 -->
<g id="Node000004" class="node">
<title>Node4</title>
<g id="a_Node000004"><a xlink:href="class_indicator_interface.html#a2f021f6fa16dec590a8b9cf41a82349d" target="_top" xlink:title=" ">
<polygon fill="white" stroke="#666666" points="703.25,-195.5 570.25,-195.5 570.25,-165 703.25,-165 703.25,-195.5"/>
<text xml:space="preserve" text-anchor="start" x="578.25" y="-182" font-family="Helvetica,sans-Serif" font-size="10.00">IndicatorInterface</text>
<text xml:space="preserve" text-anchor="middle" x="636.75" y="-170.75" font-family="Helvetica,sans-Serif" font-size="10.00">::_calculateDisplayParams</text>
</a>
</g>
</g>
<!-- Node3&#45;&gt;Node4 -->
<g id="edge3_Node000003_Node000004" class="edge">
<title>Node3&#45;&gt;Node4</title>
<g id="a_edge3_Node000003_Node000004"><a xlink:title=" ">
<path fill="none" stroke="#63b8ff" d="M534.31,-164.91C542.25,-166.11 550.51,-167.36 558.73,-168.61"/>
<polygon fill="#63b8ff" stroke="#63b8ff" points="557.98,-172.03 568.39,-170.07 559.03,-165.11 557.98,-172.03"/>
</a>
</g>
</g>
<!-- Node5 -->
<g id="Node000005" class="node">
<title>Node5</title>
<g id="a_Node000005"><a xlink:href="class_indicator_interface.html#a56c23034a963e2099e36cf55ec70055e" target="_top" xlink:title=" ">
<polygon fill="white" stroke="#666666" points="682.62,-146.5 590.88,-146.5 590.88,-116 682.62,-116 682.62,-146.5"/>
<text xml:space="preserve" text-anchor="start" x="598.88" y="-133" font-family="Helvetica,sans-Serif" font-size="10.00">IndicatorInterface</text>
<text xml:space="preserve" text-anchor="middle" x="636.75" y="-121.75" font-family="Helvetica,sans-Serif" font-size="10.00">::_drawTextLine</text>
</a>
</g>
</g>
<!-- Node3&#45;&gt;Node5 -->
<g id="edge4_Node000003_Node000005" class="edge">
<title>Node3&#45;&gt;Node5</title>
<g id="a_edge4_Node000003_Node000005"><a xlink:title=" ">
<path fill="none" stroke="#63b8ff" d="M534.31,-147.22C549.03,-144.91 564.85,-142.41 579.52,-140.11"/>
<polygon fill="#63b8ff" stroke="#63b8ff" points="579.64,-143.63 588.98,-138.62 578.55,-136.71 579.64,-143.63"/>
</a>
</g>
</g>
<!-- Node7&#45;&gt;Node3 -->
<g id="edge7_Node000007_Node000003" class="edge">
<title>Node7&#45;&gt;Node3</title>
<g id="a_edge7_Node000007_Node000003"><a xlink:title=" ">
<path fill="none" stroke="#63b8ff" d="M229.48,-127.07C243.5,-130.87 259.03,-134.66 273.5,-137.25 317.26,-145.1 366.97,-149.83 406.08,-152.61"/>
<polygon fill="#63b8ff" stroke="#63b8ff" points="405.61,-156.08 415.82,-153.27 406.08,-149.1 405.61,-156.08"/>
</a>
</g>
</g>
<!-- Node9 -->
<g id="Node000009" class="node">
<title>Node9</title>
<g id="a_Node000009"><a xlink:href="class_indicator_interface.html#aa24a016a7358ca6f0c955794d5774512" target="_top" xlink:title=" ">
<polygon fill="white" stroke="#666666" points="381.75,-128.5 273.5,-128.5 273.5,-98 381.75,-98 381.75,-128.5"/>
<text xml:space="preserve" text-anchor="start" x="281.5" y="-115" font-family="Helvetica,sans-Serif" font-size="10.00">IndicatorInterface</text>
<text xml:space="preserve" text-anchor="middle" x="327.62" y="-103.75" font-family="Helvetica,sans-Serif" font-size="10.00">::_restoreCurrentText</text>
</a>
</g>
</g>
<!-- Node8&#45;&gt;Node9 -->
<g id="edge9_Node000008_Node000009" class="edge">
<title>Node8&#45;&gt;Node9</title>
<g id="a_edge9_Node000008_Node000009"><a xlink:title=" ">
<path fill="none" stroke="#63b8ff" d="M229.26,-79.89C242.29,-84.35 256.64,-89.27 270.23,-93.93"/>
<polygon fill="#63b8ff" stroke="#63b8ff" points="268.9,-97.17 279.5,-97.1 271.17,-90.55 268.9,-97.17"/>
</a>
</g>
</g>
<!-- Node10 -->
<g id="Node000010" class="node">
<title>Node10</title>
<g id="a_Node000010"><a xlink:href="class_indicator_interface.html#a54fa76657f9ef0c9e19b6e94d682fb65" target="_top" xlink:title=" ">
<polygon fill="white" stroke="#666666" points="373.5,-79.5 281.75,-79.5 281.75,-49 373.5,-49 373.5,-79.5"/>
<text xml:space="preserve" text-anchor="start" x="289.75" y="-66" font-family="Helvetica,sans-Serif" font-size="10.00">IndicatorInterface</text>
<text xml:space="preserve" text-anchor="middle" x="327.62" y="-54.75" font-family="Helvetica,sans-Serif" font-size="10.00">::displayCross</text>
</a>
</g>
</g>
<!-- Node8&#45;&gt;Node10 -->
<g id="edge11_Node000008_Node000010" class="edge">
<title>Node8&#45;&gt;Node10</title>
<g id="a_edge11_Node000008_Node000010"><a xlink:title=" ">
<path fill="none" stroke="#63b8ff" d="M237.69,-64.25C248.26,-64.25 259.37,-64.25 270.02,-64.25"/>
<polygon fill="#63b8ff" stroke="#63b8ff" points="269.84,-67.75 279.84,-64.25 269.84,-60.75 269.84,-67.75"/>
</a>
</g>
</g>
<!-- Node12 -->
<g id="Node000012" class="node">
<title>Node12</title>
<g id="a_Node000012"><a xlink:href="class_indicator_interface.html#aaa36eb97521df2decb957418acc277a9" target="_top" xlink:title=" ">
<polygon fill="white" stroke="#666666" points="373.5,-30.5 281.75,-30.5 281.75,0 373.5,0 373.5,-30.5"/>
<text xml:space="preserve" text-anchor="start" x="289.75" y="-17" font-family="Helvetica,sans-Serif" font-size="10.00">IndicatorInterface</text>
<text xml:space="preserve" text-anchor="middle" x="327.62" y="-5.75" font-family="Helvetica,sans-Serif" font-size="10.00">::displayOK</text>
</a>
</g>
</g>
<!-- Node8&#45;&gt;Node12 -->
<g id="edge13_Node000008_Node000012" class="edge">
<title>Node8&#45;&gt;Node12</title>
<g id="a_edge13_Node000008_Node000012"><a xlink:title=" ">
<path fill="none" stroke="#63b8ff" d="M229.26,-48.61C242.42,-44.1 256.93,-39.13 270.64,-34.43"/>
<polygon fill="#63b8ff" stroke="#63b8ff" points="271.66,-37.78 279.99,-31.23 269.39,-31.16 271.66,-37.78"/>
</a>
</g>
</g>
<!-- Node9&#45;&gt;Node3 -->
<g id="edge10_Node000009_Node000003" class="edge">
<title>Node9&#45;&gt;Node3</title>
<g id="a_edge10_Node000009_Node000003"><a xlink:title=" ">
<path fill="none" stroke="#63b8ff" d="M381.88,-128.9C391.27,-131.65 401.12,-134.55 410.77,-137.38"/>
<polygon fill="#63b8ff" stroke="#63b8ff" points="409.5,-140.66 420.08,-140.12 411.48,-133.94 409.5,-140.66"/>
</a>
</g>
</g>
<!-- Node11 -->
<g id="Node000011" class="node">
<title>Node11</title>
<g id="a_Node000011"><a xlink:href="class_indicator_interface.html#af64dc2a4b4256050b070991dfaf05f1a" target="_top" xlink:title=" ">
<polygon fill="white" stroke="#666666" points="521.88,-55.5 430.12,-55.5 430.12,-25 521.88,-25 521.88,-55.5"/>
<text xml:space="preserve" text-anchor="start" x="438.12" y="-42" font-family="Helvetica,sans-Serif" font-size="10.00">IndicatorInterface</text>
<text xml:space="preserve" text-anchor="middle" x="476" y="-30.75" font-family="Helvetica,sans-Serif" font-size="10.00">::_wakeOLED</text>
</a>
</g>
</g>
<!-- Node10&#45;&gt;Node11 -->
<g id="edge12_Node000010_Node000011" class="edge">
<title>Node10&#45;&gt;Node11</title>
<g id="a_edge12_Node000010_Node000011"><a xlink:title=" ">
<path fill="none" stroke="#63b8ff" d="M373.74,-56.85C387.93,-54.53 403.78,-51.93 418.65,-49.49"/>
<polygon fill="#63b8ff" stroke="#63b8ff" points="418.99,-52.98 428.29,-47.91 417.86,-46.07 418.99,-52.98"/>
</a>
</g>
</g>
<!-- Node12&#45;&gt;Node11 -->
<g id="edge14_Node000012_Node000011" class="edge">
<title>Node12&#45;&gt;Node11</title>
<g id="a_edge14_Node000012_Node000011"><a xlink:title=" ">
<path fill="none" stroke="#63b8ff" d="M373.74,-22.95C387.93,-25.38 403.78,-28.09 418.65,-30.63"/>
<polygon fill="#63b8ff" stroke="#63b8ff" points="417.85,-34.04 428.29,-32.27 419.03,-27.14 417.85,-34.04"/>
</a>
</g>
</g>
</g>
</svg>
