<?xml version="1.0" encoding="UTF-8" standalone="no"?>
<!DOCTYPE svg PUBLIC "-//W3C//DTD SVG 1.1//EN"
 "http://www.w3.org/Graphics/SVG/1.1/DTD/svg11.dtd">
<!-- Generated by graphviz version 13.1.0 (20250701.0955)
 -->
<!-- Title: MeasurementPoint::getAddress Pages: 1 -->
<svg width="737pt" height="468pt"
 viewBox="0.00 0.00 737.00 468.00" xmlns="http://www.w3.org/2000/svg" xmlns:xlink="http://www.w3.org/1999/xlink">
<g id="graph0" class="graph" transform="scale(1 1) rotate(0) translate(4 463.5)">
<title>MeasurementPoint::getAddress</title>
<!-- Node1 -->
<g id="Node000001" class="node">
<title>Node1</title>
<g id="a_Node000001"><a xlink:title="Get measurement point address.">
<polygon fill="#999999" stroke="#666666" points="728.5,-232.88 575.25,-232.88 575.25,-213.62 728.5,-213.62 728.5,-232.88"/>
<text xml:space="preserve" text-anchor="middle" x="651.88" y="-219.38" font-family="Helvetica,sans-Serif" font-size="10.00">MeasurementPoint::getAddress</text>
</a>
</g>
</g>
<!-- Node2 -->
<g id="Node000002" class="node">
<title>Node2</title>
<g id="a_Node000002"><a xlink:href="class_c_s_v_config_manager.html#a2c2673398051c26184c9197aa751a6b3" target="_top" xlink:title="Export single measurement point to CSV format.">
<polygon fill="white" stroke="#666666" points="499.5,-459.5 390.5,-459.5 390.5,-429 499.5,-429 499.5,-459.5"/>
<text xml:space="preserve" text-anchor="start" x="398.5" y="-446" font-family="Helvetica,sans-Serif" font-size="10.00">CSVConfigManager::</text>
<text xml:space="preserve" text-anchor="middle" x="445" y="-434.75" font-family="Helvetica,sans-Serif" font-size="10.00">_exportPointToCSV</text>
</a>
</g>
</g>
<!-- Node1&#45;&gt;Node2 -->
<g id="edge1_Node000001_Node000002" class="edge">
<title>Node1&#45;&gt;Node2</title>
<g id="a_edge1_Node000001_Node000002"><a xlink:title=" ">
<path fill="none" stroke="#63b8ff" d="M644.97,-244.04C632.46,-284.26 599.36,-372.84 539.25,-419.25 527.84,-428.06 513.57,-433.77 499.66,-437.47"/>
<polygon fill="#63b8ff" stroke="#63b8ff" points="648.27,-245.24 647.77,-234.66 641.56,-243.24 648.27,-245.24"/>
</a>
</g>
</g>
<!-- Node4 -->
<g id="Node000004" class="node">
<title>Node4</title>
<g id="a_Node000004"><a xlink:href="class_config_manager.html#ae605c999fabc6344511f455618655326" target="_top" xlink:title="Setup alarms API endpoints.">
<polygon fill="white" stroke="#666666" points="297.88,-42.88 164.12,-42.88 164.12,-23.62 297.88,-23.62 297.88,-42.88"/>
<text xml:space="preserve" text-anchor="middle" x="231" y="-29.38" font-family="Helvetica,sans-Serif" font-size="10.00">ConfigManager::alarmsAPI</text>
</a>
</g>
</g>
<!-- Node1&#45;&gt;Node4 -->
<g id="edge3_Node000001_Node000004" class="edge">
<title>Node1&#45;&gt;Node4</title>
<g id="a_edge3_Node000001_Node000004"><a xlink:title=" ">
<path fill="none" stroke="#63b8ff" d="M641.9,-203.24C626.2,-170.78 590.47,-107.27 539.25,-77.25 499.56,-53.99 376.13,-42.18 298.32,-36.9"/>
<polygon fill="#63b8ff" stroke="#63b8ff" points="638.57,-204.37 645.97,-211.94 644.91,-201.4 638.57,-204.37"/>
</a>
</g>
</g>
<!-- Node6 -->
<g id="Node000006" class="node">
<title>Node6</title>
<g id="a_Node000006"><a xlink:href="class_register_map.html#a1f102e7d0dd51d4750c916fb6e32c37a" target="_top" xlink:title="Apply configuration from measurement point to registers.">
<polygon fill="white" stroke="#666666" points="509.62,-361.5 380.38,-361.5 380.38,-331 509.62,-331 509.62,-361.5"/>
<text xml:space="preserve" text-anchor="start" x="388.38" y="-348" font-family="Helvetica,sans-Serif" font-size="10.00">RegisterMap::applyConfig</text>
<text xml:space="preserve" text-anchor="middle" x="445" y="-336.75" font-family="Helvetica,sans-Serif" font-size="10.00">FromMeasurementPoint</text>
</a>
</g>
</g>
<!-- Node1&#45;&gt;Node6 -->
<g id="edge5_Node000001_Node000006" class="edge">
<title>Node1&#45;&gt;Node6</title>
<g id="a_edge5_Node000001_Node000006"><a xlink:title=" ">
<path fill="none" stroke="#63b8ff" d="M634.86,-241.75C614.72,-263.87 578.05,-300.49 539.25,-321.25 530.09,-326.15 519.89,-330.15 509.7,-333.38"/>
<polygon fill="#63b8ff" stroke="#63b8ff" points="637.39,-244.17 641.43,-234.38 632.16,-239.52 637.39,-244.17"/>
</a>
</g>
</g>
<!-- Node7 -->
<g id="Node000007" class="node">
<title>Node7</title>
<g id="a_Node000007"><a xlink:href="class_register_map.html#aa2f819b22096b8c14c421b415f7e83b7" target="_top" xlink:title="Apply configuration from registers to measurement point.">
<polygon fill="white" stroke="#666666" points="509.62,-312.5 380.38,-312.5 380.38,-282 509.62,-282 509.62,-312.5"/>
<text xml:space="preserve" text-anchor="start" x="388.38" y="-299" font-family="Helvetica,sans-Serif" font-size="10.00">RegisterMap::applyConfig</text>
<text xml:space="preserve" text-anchor="middle" x="445" y="-287.75" font-family="Helvetica,sans-Serif" font-size="10.00">ToMeasurementPoint</text>
</a>
</g>
</g>
<!-- Node1&#45;&gt;Node7 -->
<g id="edge6_Node000001_Node000007" class="edge">
<title>Node1&#45;&gt;Node7</title>
<g id="a_edge6_Node000001_Node000007"><a xlink:title=" ">
<path fill="none" stroke="#63b8ff" d="M620.55,-238.06C598.38,-248.51 567.39,-262.36 539.25,-272.25 529.84,-275.56 519.77,-278.67 509.85,-281.52"/>
<polygon fill="#63b8ff" stroke="#63b8ff" points="621.79,-241.34 629.31,-233.88 618.78,-235.03 621.79,-241.34"/>
</a>
</g>
</g>
<!-- Node8 -->
<g id="Node000008" class="node">
<title>Node8</title>
<g id="a_Node000008"><a xlink:href="class_temperature_controller.html#aa64384fb8503814b46a7d55f53ccb53a" target="_top" xlink:title="Create new alarm for measurement point.">
<polygon fill="white" stroke="#666666" points="501,-410.5 389,-410.5 389,-380 501,-380 501,-410.5"/>
<text xml:space="preserve" text-anchor="start" x="397" y="-397" font-family="Helvetica,sans-Serif" font-size="10.00">TemperatureController</text>
<text xml:space="preserve" text-anchor="middle" x="445" y="-385.75" font-family="Helvetica,sans-Serif" font-size="10.00">::createAlarm</text>
</a>
</g>
</g>
<!-- Node1&#45;&gt;Node8 -->
<g id="edge7_Node000001_Node000008" class="edge">
<title>Node1&#45;&gt;Node8</title>
<g id="a_edge7_Node000001_Node000008"><a xlink:title=" ">
<path fill="none" stroke="#63b8ff" d="M641.28,-243.18C624.9,-275.03 588.5,-337.16 539.25,-370.25 527.98,-377.82 514.51,-383.1 501.35,-386.79"/>
<polygon fill="#63b8ff" stroke="#63b8ff" points="644.21,-245.14 645.55,-234.63 637.95,-242.02 644.21,-245.14"/>
</a>
</g>
</g>
<!-- Node10 -->
<g id="Node000010" class="node">
<title>Node10</title>
<g id="a_Node000010"><a xlink:href="class_temperature_controller.html#ad174e0411bd48422d8e3812fd28a7a0b" target="_top" xlink:title="Ensure all 3 alarm types exist for a measurement point.">
<polygon fill="white" stroke="#666666" points="504.38,-214.5 385.62,-214.5 385.62,-184 504.38,-184 504.38,-214.5"/>
<text xml:space="preserve" text-anchor="start" x="393.62" y="-201" font-family="Helvetica,sans-Serif" font-size="10.00">TemperatureController</text>
<text xml:space="preserve" text-anchor="middle" x="445" y="-189.75" font-family="Helvetica,sans-Serif" font-size="10.00">::ensureAlarmsForPoint</text>
</a>
</g>
</g>
<!-- Node1&#45;&gt;Node10 -->
<g id="edge9_Node000001_Node000010" class="edge">
<title>Node1&#45;&gt;Node10</title>
<g id="a_edge9_Node000001_Node000010"><a xlink:title=" ">
<path fill="none" stroke="#63b8ff" d="M563.59,-213.02C543.67,-210.69 522.96,-208.27 504.58,-206.11"/>
<polygon fill="#63b8ff" stroke="#63b8ff" points="563.04,-216.48 573.37,-214.17 563.85,-209.53 563.04,-216.48"/>
</a>
</g>
</g>
<!-- Node11 -->
<g id="Node000011" class="node">
<title>Node11</title>
<g id="a_Node000011"><a xlink:href="class_temperature_controller.html#a880028883101197527de57f626e14512" target="_top" xlink:title="Get all alarms associated with a measurement point.">
<polygon fill="white" stroke="#666666" points="501,-263.5 389,-263.5 389,-233 501,-233 501,-263.5"/>
<text xml:space="preserve" text-anchor="start" x="397" y="-250" font-family="Helvetica,sans-Serif" font-size="10.00">TemperatureController</text>
<text xml:space="preserve" text-anchor="middle" x="445" y="-238.75" font-family="Helvetica,sans-Serif" font-size="10.00">::getAlarmsForPoint</text>
</a>
</g>
</g>
<!-- Node1&#45;&gt;Node11 -->
<g id="edge10_Node000001_Node000011" class="edge">
<title>Node1&#45;&gt;Node11</title>
<g id="a_edge10_Node000001_Node000011"><a xlink:title=" ">
<path fill="none" stroke="#63b8ff" d="M563.61,-233.9C542.52,-236.47 520.55,-239.15 501.39,-241.49"/>
<polygon fill="#63b8ff" stroke="#63b8ff" points="563.87,-237.39 573.38,-232.71 563.03,-230.44 563.87,-237.39"/>
</a>
</g>
</g>
<!-- Node15 -->
<g id="Node000015" class="node">
<title>Node15</title>
<g id="a_Node000015"><a xlink:href="class_temperature_controller.html#add39ba7dad38449bbf1787a5c9c51ef9" target="_top" xlink:title="Get JSON representation of all measurement points.">
<polygon fill="white" stroke="#666666" points="501,-116.5 389,-116.5 389,-86 501,-86 501,-116.5"/>
<text xml:space="preserve" text-anchor="start" x="397" y="-103" font-family="Helvetica,sans-Serif" font-size="10.00">TemperatureController</text>
<text xml:space="preserve" text-anchor="middle" x="445" y="-91.75" font-family="Helvetica,sans-Serif" font-size="10.00">::getPointsJson</text>
</a>
</g>
</g>
<!-- Node1&#45;&gt;Node15 -->
<g id="edge14_Node000001_Node000015" class="edge">
<title>Node1&#45;&gt;Node15</title>
<g id="a_edge14_Node000001_Node000015"><a xlink:title=" ">
<path fill="none" stroke="#63b8ff" d="M634.82,-204.94C614.64,-183.06 577.93,-146.82 539.25,-126.25 527.56,-120.03 514.2,-115.27 501.32,-111.66"/>
<polygon fill="#63b8ff" stroke="#63b8ff" points="632.1,-207.15 641.4,-212.23 637.29,-202.46 632.1,-207.15"/>
</a>
</g>
</g>
<!-- Node16 -->
<g id="Node000016" class="node">
<title>Node16</title>
<g id="a_Node000016"><a xlink:href="class_config_manager.html#a55b79da91c57039c483ddf5fceabbd64" target="_top" xlink:title="Save measurement points configuration to file.">
<polygon fill="white" stroke="#666666" points="513.38,-165.5 376.62,-165.5 376.62,-135 513.38,-135 513.38,-165.5"/>
<text xml:space="preserve" text-anchor="start" x="384.62" y="-152" font-family="Helvetica,sans-Serif" font-size="10.00">ConfigManager::savePoints</text>
<text xml:space="preserve" text-anchor="middle" x="445" y="-140.75" font-family="Helvetica,sans-Serif" font-size="10.00">Config</text>
</a>
</g>
</g>
<!-- Node1&#45;&gt;Node16 -->
<g id="edge15_Node000001_Node000016" class="edge">
<title>Node1&#45;&gt;Node16</title>
<g id="a_edge15_Node000001_Node000016"><a xlink:title=" ">
<path fill="none" stroke="#63b8ff" d="M619.81,-208.46C597.67,-198.27 567.04,-184.89 539.25,-175.25 529.75,-171.95 519.58,-168.83 509.58,-165.98"/>
<polygon fill="#63b8ff" stroke="#63b8ff" points="618.33,-211.63 628.87,-212.67 621.28,-205.28 618.33,-211.63"/>
</a>
</g>
</g>
<!-- Node21 -->
<g id="Node000021" class="node">
<title>Node21</title>
<g id="a_Node000021"><a xlink:href="class_register_map.html#a2940213459a183fc06a2226f1cd1a48b" target="_top" xlink:title="Update registers from measurement point data.">
<polygon fill="white" stroke="#666666" points="539.25,-30.5 350.75,-30.5 350.75,0 539.25,0 539.25,-30.5"/>
<text xml:space="preserve" text-anchor="start" x="358.75" y="-17" font-family="Helvetica,sans-Serif" font-size="10.00">RegisterMap::updateFromMeasurement</text>
<text xml:space="preserve" text-anchor="middle" x="445" y="-5.75" font-family="Helvetica,sans-Serif" font-size="10.00">Point</text>
</a>
</g>
</g>
<!-- Node1&#45;&gt;Node21 -->
<g id="edge24_Node000001_Node000021" class="edge">
<title>Node1&#45;&gt;Node21</title>
<g id="a_edge24_Node000001_Node000021"><a xlink:title=" ">
<path fill="none" stroke="#63b8ff" d="M643.72,-202.93C629.61,-165.84 594.71,-87.06 539.25,-44.25 532.27,-38.86 524.28,-34.47 515.98,-30.88"/>
<polygon fill="#63b8ff" stroke="#63b8ff" points="640.31,-203.81 647.04,-211.99 646.88,-201.39 640.31,-203.81"/>
</a>
</g>
</g>
<!-- Node3 -->
<g id="Node000003" class="node">
<title>Node3</title>
<g id="a_Node000003"><a xlink:href="class_c_s_v_config_manager.html#a1c6cbc4c8a132762bf16a8ce9f7d0bfc" target="_top" xlink:title="Export measurement points with alarm configuration to CSV.">
<polygon fill="white" stroke="#666666" points="299,-459.5 163,-459.5 163,-429 299,-429 299,-459.5"/>
<text xml:space="preserve" text-anchor="start" x="171" y="-446" font-family="Helvetica,sans-Serif" font-size="10.00">CSVConfigManager::export</text>
<text xml:space="preserve" text-anchor="middle" x="231" y="-434.75" font-family="Helvetica,sans-Serif" font-size="10.00">PointsWithAlarmsToCSV</text>
</a>
</g>
</g>
<!-- Node2&#45;&gt;Node3 -->
<g id="edge2_Node000002_Node000003" class="edge">
<title>Node2&#45;&gt;Node3</title>
<g id="a_edge2_Node000002_Node000003"><a xlink:title=" ">
<path fill="none" stroke="#63b8ff" d="M378.92,-444.25C353.7,-444.25 324.83,-444.25 299.4,-444.25"/>
<polygon fill="#63b8ff" stroke="#63b8ff" points="378.72,-447.75 388.72,-444.25 378.72,-440.75 378.72,-447.75"/>
</a>
</g>
</g>
<!-- Node5 -->
<g id="Node000005" class="node">
<title>Node5</title>
<g id="a_Node000005"><a xlink:href="class_config_manager.html#a0497343220fc493f5cf9574922508908" target="_top" xlink:title="Initialize the configuration system.">
<polygon fill="white" stroke="#666666" points="111.25,-122.88 0,-122.88 0,-103.62 111.25,-103.62 111.25,-122.88"/>
<text xml:space="preserve" text-anchor="middle" x="55.62" y="-109.38" font-family="Helvetica,sans-Serif" font-size="10.00">ConfigManager::begin</text>
</a>
</g>
</g>
<!-- Node4&#45;&gt;Node5 -->
<g id="edge4_Node000004_Node000005" class="edge">
<title>Node4&#45;&gt;Node5</title>
<g id="a_edge4_Node000004_Node000005"><a xlink:title=" ">
<path fill="none" stroke="#63b8ff" d="M159.66,-46.55C155.41,-47.97 151.24,-49.53 147.25,-51.25 116.09,-64.69 84.45,-89.41 68.06,-103.23"/>
<polygon fill="#63b8ff" stroke="#63b8ff" points="160.35,-50 168.91,-43.75 158.33,-43.3 160.35,-50"/>
</a>
</g>
</g>
<!-- Node9 -->
<g id="Node000009" class="node">
<title>Node9</title>
<g id="a_Node000009"><a xlink:href="class_temperature_controller.html#a27da8ccc3effea555f440ce3e6f89b08" target="_top" xlink:title="Check measurement point for alarm conditions.">
<polygon fill="white" stroke="#666666" points="291.5,-410.5 170.5,-410.5 170.5,-380 291.5,-380 291.5,-410.5"/>
<text xml:space="preserve" text-anchor="start" x="178.5" y="-397" font-family="Helvetica,sans-Serif" font-size="10.00">TemperatureController</text>
<text xml:space="preserve" text-anchor="middle" x="231" y="-385.75" font-family="Helvetica,sans-Serif" font-size="10.00">::_checkPointForAlarms</text>
</a>
</g>
</g>
<!-- Node8&#45;&gt;Node9 -->
<g id="edge8_Node000008_Node000009" class="edge">
<title>Node8&#45;&gt;Node9</title>
<g id="a_edge8_Node000008_Node000009"><a xlink:title=" ">
<path fill="none" stroke="#63b8ff" d="M377.14,-395.25C349.83,-395.25 318.49,-395.25 291.93,-395.25"/>
<polygon fill="#63b8ff" stroke="#63b8ff" points="377.06,-398.75 387.06,-395.25 377.06,-391.75 377.06,-398.75"/>
</a>
</g>
</g>
<!-- Node12 -->
<g id="Node000012" class="node">
<title>Node12</title>
<g id="a_Node000012"><a xlink:href="class_temperature_controller.html#af4ab2c7b7a3934ab7837603a420b1ae2" target="_top" xlink:title="Bind sensor to measurement point by bus number.">
<polygon fill="white" stroke="#666666" points="314.75,-312.5 147.25,-312.5 147.25,-282 314.75,-282 314.75,-312.5"/>
<text xml:space="preserve" text-anchor="start" x="155.25" y="-299" font-family="Helvetica,sans-Serif" font-size="10.00">TemperatureController</text>
<text xml:space="preserve" text-anchor="middle" x="231" y="-287.75" font-family="Helvetica,sans-Serif" font-size="10.00">::bindSensorToPointByBusNumber</text>
</a>
</g>
</g>
<!-- Node11&#45;&gt;Node12 -->
<g id="edge11_Node000011_Node000012" class="edge">
<title>Node11&#45;&gt;Node12</title>
<g id="a_edge11_Node000011_Node000012"><a xlink:title=" ">
<path fill="none" stroke="#63b8ff" d="M377.49,-263.62C352.81,-269.33 324.78,-275.8 299.97,-281.54"/>
<polygon fill="#63b8ff" stroke="#63b8ff" points="378.15,-267.06 387.1,-261.4 376.57,-260.24 378.15,-267.06"/>
</a>
</g>
</g>
<!-- Node13 -->
<g id="Node000013" class="node">
<title>Node13</title>
<g id="a_Node000013"><a xlink:href="class_temperature_controller.html#a84937fc1aed30193b817f3b062ce0cfc" target="_top" xlink:title="Bind PT1000 sensor to measurement point by chip select pin.">
<polygon fill="white" stroke="#666666" points="312.88,-263.5 149.12,-263.5 149.12,-233 312.88,-233 312.88,-263.5"/>
<text xml:space="preserve" text-anchor="start" x="157.12" y="-250" font-family="Helvetica,sans-Serif" font-size="10.00">TemperatureController</text>
<text xml:space="preserve" text-anchor="middle" x="231" y="-238.75" font-family="Helvetica,sans-Serif" font-size="10.00">::bindSensorToPointByChipSelect</text>
</a>
</g>
</g>
<!-- Node11&#45;&gt;Node13 -->
<g id="edge12_Node000011_Node000013" class="edge">
<title>Node11&#45;&gt;Node13</title>
<g id="a_edge12_Node000011_Node000013"><a xlink:title=" ">
<path fill="none" stroke="#63b8ff" d="M377.2,-248.25C356.84,-248.25 334.23,-248.25 313.04,-248.25"/>
<polygon fill="#63b8ff" stroke="#63b8ff" points="377.06,-251.75 387.06,-248.25 377.06,-244.75 377.06,-251.75"/>
</a>
</g>
</g>
<!-- Node14 -->
<g id="Node000014" class="node">
<title>Node14</title>
<g id="a_Node000014"><a xlink:href="class_temperature_controller.html#a5d8f7c51bb176435a5035293a2db78f7" target="_top" xlink:title="Bind sensor to measurement point by ROM address.">
<polygon fill="white" stroke="#666666" points="299.38,-361.5 162.62,-361.5 162.62,-331 299.38,-331 299.38,-361.5"/>
<text xml:space="preserve" text-anchor="start" x="170.62" y="-348" font-family="Helvetica,sans-Serif" font-size="10.00">TemperatureController</text>
<text xml:space="preserve" text-anchor="middle" x="231" y="-336.75" font-family="Helvetica,sans-Serif" font-size="10.00">::bindSensorToPointByRom</text>
</a>
</g>
</g>
<!-- Node11&#45;&gt;Node14 -->
<g id="edge13_Node000011_Node000014" class="edge">
<title>Node11&#45;&gt;Node14</title>
<g id="a_edge13_Node000011_Node000014"><a xlink:title=" ">
<path fill="none" stroke="#63b8ff" d="M377.81,-260.06C368.26,-263.42 358.92,-267.72 350.75,-273.25 328.66,-288.19 336.6,-305.97 314.75,-321.25 309.58,-324.86 303.89,-327.96 297.97,-330.62"/>
<polygon fill="#63b8ff" stroke="#63b8ff" points="378.68,-263.46 387.17,-257.12 376.58,-256.78 378.68,-263.46"/>
</a>
</g>
</g>
<!-- Node16&#45;&gt;Node4 -->
<g id="edge16_Node000016_Node000004" class="edge">
<title>Node16&#45;&gt;Node4</title>
<g id="a_edge16_Node000016_Node000004"><a xlink:title=" ">
<path fill="none" stroke="#63b8ff" d="M366.19,-135.16C360.66,-132.39 355.44,-129.12 350.75,-125.25 322.54,-101.97 343.51,-73.85 314.75,-51.25 309.78,-47.34 304.14,-44.24 298.21,-41.78"/>
<polygon fill="#63b8ff" stroke="#63b8ff" points="364.44,-138.22 375.01,-139.02 367.25,-131.8 364.44,-138.22"/>
</a>
</g>
</g>
<!-- Node17 -->
<g id="Node000017" class="node">
<title>Node17</title>
<g id="a_Node000017"><a xlink:href="class_config_manager.html#a9b7af07b85bf9cc3ac05603db6e89fd2" target="_top" xlink:title="Setup CSV import/export API endpoints.">
<polygon fill="white" stroke="#666666" points="296.75,-214.5 165.25,-214.5 165.25,-184 296.75,-184 296.75,-214.5"/>
<text xml:space="preserve" text-anchor="start" x="173.25" y="-201" font-family="Helvetica,sans-Serif" font-size="10.00">ConfigManager::csvImport</text>
<text xml:space="preserve" text-anchor="middle" x="231" y="-189.75" font-family="Helvetica,sans-Serif" font-size="10.00">ExportAPI</text>
</a>
</g>
</g>
<!-- Node16&#45;&gt;Node17 -->
<g id="edge17_Node000016_Node000017" class="edge">
<title>Node16&#45;&gt;Node17</title>
<g id="a_edge17_Node000016_Node000017"><a xlink:title=" ">
<path fill="none" stroke="#63b8ff" d="M365.17,-168.47C342.79,-173.64 318.68,-179.21 297.21,-184.18"/>
<polygon fill="#63b8ff" stroke="#63b8ff" points="365.91,-171.89 374.86,-166.23 364.33,-165.07 365.91,-171.89"/>
</a>
</g>
</g>
<!-- Node18 -->
<g id="Node000018" class="node">
<title>Node18</title>
<g id="a_Node000018"><a xlink:href="class_config_manager.html#a471a844085c27f3a8a8f9394d9c14677" target="_top" xlink:title="Setup measurement points API endpoints.">
<polygon fill="white" stroke="#666666" points="296.38,-165.88 165.62,-165.88 165.62,-146.62 296.38,-146.62 296.38,-165.88"/>
<text xml:space="preserve" text-anchor="middle" x="231" y="-152.38" font-family="Helvetica,sans-Serif" font-size="10.00">ConfigManager::pointsAPI</text>
</a>
</g>
</g>
<!-- Node16&#45;&gt;Node18 -->
<g id="edge19_Node000016_Node000018" class="edge">
<title>Node16&#45;&gt;Node18</title>
<g id="a_edge19_Node000016_Node000018"><a xlink:title=" ">
<path fill="none" stroke="#63b8ff" d="M365.11,-152.48C342.63,-153.12 318.4,-153.8 296.85,-154.41"/>
<polygon fill="#63b8ff" stroke="#63b8ff" points="364.93,-155.99 374.83,-152.21 364.73,-148.99 364.93,-155.99"/>
</a>
</g>
</g>
<!-- Node19 -->
<g id="Node000019" class="node">
<title>Node19</title>
<g id="a_Node000019"><a xlink:href="class_config_manager.html#a45b1ce1f09401af0b6f700cf4388b233" target="_top" xlink:title="Setup sensor&#45;related API endpoints.">
<polygon fill="white" stroke="#666666" points="297.88,-79.88 164.12,-79.88 164.12,-60.62 297.88,-60.62 297.88,-79.88"/>
<text xml:space="preserve" text-anchor="middle" x="231" y="-66.38" font-family="Helvetica,sans-Serif" font-size="10.00">ConfigManager::sensorAPI</text>
</a>
</g>
</g>
<!-- Node16&#45;&gt;Node19 -->
<g id="edge21_Node000016_Node000019" class="edge">
<title>Node16&#45;&gt;Node19</title>
<g id="a_edge21_Node000016_Node000019"><a xlink:title=" ">
<path fill="none" stroke="#63b8ff" d="M366.15,-132.79C360.8,-130.56 355.61,-128.06 350.75,-125.25 331.15,-113.93 334.55,-100.21 314.75,-89.25 308.17,-85.61 300.93,-82.67 293.55,-80.28"/>
<polygon fill="#63b8ff" stroke="#63b8ff" points="364.57,-135.93 375.16,-136.2 367.05,-129.39 364.57,-135.93"/>
</a>
</g>
</g>
<!-- Node20 -->
<g id="Node000020" class="node">
<title>Node20</title>
<g id="a_Node000020"><a xlink:href="class_config_manager.html#a0daf50bbd376beb24a5400a86e893338" target="_top" xlink:title="Update a measurement point in configuration.">
<polygon fill="white" stroke="#666666" points="300.88,-128.5 161.12,-128.5 161.12,-98 300.88,-98 300.88,-128.5"/>
<text xml:space="preserve" text-anchor="start" x="169.12" y="-115" font-family="Helvetica,sans-Serif" font-size="10.00">ConfigManager::updatePoint</text>
<text xml:space="preserve" text-anchor="middle" x="231" y="-103.75" font-family="Helvetica,sans-Serif" font-size="10.00">InConfig</text>
</a>
</g>
</g>
<!-- Node16&#45;&gt;Node20 -->
<g id="edge23_Node000016_Node000020" class="edge">
<title>Node16&#45;&gt;Node20</title>
<g id="a_edge23_Node000016_Node000020"><a xlink:title=" ">
<path fill="none" stroke="#63b8ff" d="M365.18,-136.49C344.18,-132.83 321.65,-128.9 301.2,-125.33"/>
<polygon fill="#63b8ff" stroke="#63b8ff" points="364.4,-139.91 374.85,-138.18 365.6,-133.01 364.4,-139.91"/>
</a>
</g>
</g>
<!-- Node17&#45;&gt;Node5 -->
<g id="edge18_Node000017_Node000005" class="edge">
<title>Node17&#45;&gt;Node5</title>
<g id="a_edge18_Node000017_Node000005"><a xlink:title=" ">
<path fill="none" stroke="#63b8ff" d="M156.97,-179.49C153.65,-178.15 150.39,-176.73 147.25,-175.25 116.74,-160.84 85.1,-136.72 68.47,-123.2"/>
<polygon fill="#63b8ff" stroke="#63b8ff" points="155.74,-182.76 166.33,-183 158.2,-176.21 155.74,-182.76"/>
</a>
</g>
</g>
<!-- Node18&#45;&gt;Node5 -->
<g id="edge20_Node000018_Node000005" class="edge">
<title>Node18&#45;&gt;Node5</title>
<g id="a_edge20_Node000018_Node000005"><a xlink:title=" ">
<path fill="none" stroke="#63b8ff" d="M173.75,-143.6C164.87,-141.53 155.8,-139.36 147.25,-137.25 129.55,-132.88 110,-127.74 93.59,-123.34"/>
<polygon fill="#63b8ff" stroke="#63b8ff" points="172.83,-146.98 183.37,-145.83 174.41,-140.16 172.83,-146.98"/>
</a>
</g>
</g>
<!-- Node19&#45;&gt;Node5 -->
<g id="edge22_Node000019_Node000005" class="edge">
<title>Node19&#45;&gt;Node5</title>
<g id="a_edge22_Node000019_Node000005"><a xlink:title=" ">
<path fill="none" stroke="#63b8ff" d="M173.75,-82.9C164.87,-84.97 155.8,-87.14 147.25,-89.25 129.55,-93.62 110,-98.76 93.59,-103.16"/>
<polygon fill="#63b8ff" stroke="#63b8ff" points="174.41,-86.34 183.37,-80.67 172.83,-79.52 174.41,-86.34"/>
</a>
</g>
</g>
</g>
</svg>
