<?xml version="1.0" encoding="UTF-8" standalone="no"?>
<!DOCTYPE svg PUBLIC "-//W3C//DTD SVG 1.1//EN"
 "http://www.w3.org/Graphics/SVG/1.1/DTD/svg11.dtd">
<!-- Generated by graphviz version 13.1.0 (20250701.0955)
 -->
<!-- Title: TemperatureController::unbindSensorFromPoint Pages: 1 -->
<svg width="481pt" height="359pt"
 viewBox="0.00 0.00 481.00 359.00" xmlns="http://www.w3.org/2000/svg" xmlns:xlink="http://www.w3.org/1999/xlink">
<g id="graph0" class="graph" transform="scale(1 1) rotate(0) translate(4 354.88)">
<title>TemperatureController::unbindSensorFromPoint</title>
<!-- Node1 -->
<g id="Node000001" class="node">
<title>Node1</title>
<g id="a_Node000001"><a xlink:title=" ">
<polygon fill="#999999" stroke="#666666" points="126.25,-184.5 0,-184.5 0,-154 126.25,-154 126.25,-184.5"/>
<text xml:space="preserve" text-anchor="start" x="8" y="-171" font-family="Helvetica,sans-Serif" font-size="10.00">TemperatureController</text>
<text xml:space="preserve" text-anchor="middle" x="63.12" y="-159.75" font-family="Helvetica,sans-Serif" font-size="10.00">::unbindSensorFromPoint</text>
</a>
</g>
</g>
<!-- Node2 -->
<g id="Node000002" class="node">
<title>Node2</title>
<g id="a_Node000002"><a xlink:href="class_logger_manager.html#aef24f00186213fa78be3b104a50d58e6" target="_top" xlink:title=" ">
<polygon fill="white" stroke="#666666" points="297.5,-350.88 189.25,-350.88 189.25,-331.62 297.5,-331.62 297.5,-350.88"/>
<text xml:space="preserve" text-anchor="middle" x="243.38" y="-337.38" font-family="Helvetica,sans-Serif" font-size="10.00">LoggerManager::error</text>
</a>
</g>
</g>
<!-- Node1&#45;&gt;Node2 -->
<g id="edge1_Node000001_Node000002" class="edge">
<title>Node1&#45;&gt;Node2</title>
<g id="a_edge1_Node000001_Node000002"><a xlink:title=" ">
<path fill="none" stroke="#63b8ff" d="M69.45,-184.63C81.08,-215.8 111.79,-286.48 162.25,-322.25 167.21,-325.76 172.73,-328.63 178.48,-330.98"/>
<polygon fill="#63b8ff" stroke="#63b8ff" points="177.01,-334.17 187.61,-334.16 179.32,-327.56 177.01,-334.17"/>
</a>
</g>
</g>
<!-- Node3 -->
<g id="Node000003" class="node">
<title>Node3</title>
<g id="a_Node000003"><a xlink:href="class_measurement_point.html#a81c7ae93a9314344967d0f31c6fefe2f" target="_top" xlink:title=" ">
<polygon fill="white" stroke="#666666" points="315.88,-313.5 170.88,-313.5 170.88,-283 315.88,-283 315.88,-313.5"/>
<text xml:space="preserve" text-anchor="start" x="178.88" y="-300" font-family="Helvetica,sans-Serif" font-size="10.00">MeasurementPoint::getBound</text>
<text xml:space="preserve" text-anchor="middle" x="243.38" y="-288.75" font-family="Helvetica,sans-Serif" font-size="10.00">Sensor</text>
</a>
</g>
</g>
<!-- Node1&#45;&gt;Node3 -->
<g id="edge2_Node000001_Node000003" class="edge">
<title>Node1&#45;&gt;Node3</title>
<g id="a_edge2_Node000001_Node000003"><a xlink:title=" ">
<path fill="none" stroke="#63b8ff" d="M74.57,-184.88C90.71,-207.81 123.87,-250.45 162.25,-274.25 164.15,-275.43 166.11,-276.55 168.11,-277.62"/>
<polygon fill="#63b8ff" stroke="#63b8ff" points="166.56,-280.76 177.1,-281.89 169.57,-274.44 166.56,-280.76"/>
</a>
</g>
</g>
<!-- Node4 -->
<g id="Node000004" class="node">
<title>Node4</title>
<g id="a_Node000004"><a xlink:href="class_sensor.html#a9f793cde2918130fbc77dad1aebfe53a" target="_top" xlink:title=" ">
<polygon fill="white" stroke="#666666" points="320.75,-264.88 166,-264.88 166,-245.62 320.75,-245.62 320.75,-264.88"/>
<text xml:space="preserve" text-anchor="middle" x="243.38" y="-251.38" font-family="Helvetica,sans-Serif" font-size="10.00">Sensor::getDS18B20RomString</text>
</a>
</g>
</g>
<!-- Node1&#45;&gt;Node4 -->
<g id="edge3_Node000001_Node000004" class="edge">
<title>Node1&#45;&gt;Node4</title>
<g id="a_edge3_Node000001_Node000004"><a xlink:title=" ">
<path fill="none" stroke="#63b8ff" d="M82.44,-184.82C101.28,-200.08 132.06,-222.91 162.25,-236.25 167.06,-238.38 172.15,-240.28 177.33,-241.99"/>
<polygon fill="#63b8ff" stroke="#63b8ff" points="176.01,-245.25 186.59,-244.79 178.03,-238.55 176.01,-245.25"/>
</a>
</g>
</g>
<!-- Node5 -->
<g id="Node000005" class="node">
<title>Node5</title>
<g id="a_Node000005"><a xlink:href="class_temperature_controller.html#a494f057c234b4ff7526bde271aec9267" target="_top" xlink:title=" ">
<polygon fill="white" stroke="#666666" points="302,-227.5 184.75,-227.5 184.75,-197 302,-197 302,-227.5"/>
<text xml:space="preserve" text-anchor="start" x="192.75" y="-214" font-family="Helvetica,sans-Serif" font-size="10.00">TemperatureController</text>
<text xml:space="preserve" text-anchor="middle" x="243.38" y="-202.75" font-family="Helvetica,sans-Serif" font-size="10.00">::getMeasurementPoint</text>
</a>
</g>
</g>
<!-- Node1&#45;&gt;Node5 -->
<g id="edge4_Node000001_Node000005" class="edge">
<title>Node1&#45;&gt;Node5</title>
<g id="a_edge4_Node000001_Node000005"><a xlink:title=" ">
<path fill="none" stroke="#63b8ff" d="M126.72,-184.35C141.81,-187.99 158.03,-191.9 173.39,-195.61"/>
<polygon fill="#63b8ff" stroke="#63b8ff" points="172.4,-198.97 182.94,-197.91 174.04,-192.16 172.4,-198.97"/>
</a>
</g>
</g>
<!-- Node8 -->
<g id="Node000008" class="node">
<title>Node8</title>
<g id="a_Node000008"><a xlink:href="class_measurement_point.html#aa3a80d373c7609c7b178bf7353ffdd7a" target="_top" xlink:title=" ">
<polygon fill="white" stroke="#666666" points="315.12,-178.88 171.62,-178.88 171.62,-159.62 315.12,-159.62 315.12,-178.88"/>
<text xml:space="preserve" text-anchor="middle" x="243.38" y="-165.38" font-family="Helvetica,sans-Serif" font-size="10.00">MeasurementPoint::getName</text>
</a>
</g>
</g>
<!-- Node1&#45;&gt;Node8 -->
<g id="edge7_Node000001_Node000008" class="edge">
<title>Node1&#45;&gt;Node8</title>
<g id="a_edge7_Node000001_Node000008"><a xlink:title=" ">
<path fill="none" stroke="#63b8ff" d="M126.72,-169.25C137.55,-169.25 148.96,-169.25 160.22,-169.25"/>
<polygon fill="#63b8ff" stroke="#63b8ff" points="159.89,-172.75 169.89,-169.25 159.89,-165.75 159.89,-172.75"/>
</a>
</g>
</g>
<!-- Node9 -->
<g id="Node000009" class="node">
<title>Node9</title>
<g id="a_Node000009"><a xlink:href="class_sensor.html#a6f57825e90b759ccdb9fe07b3a36953d" target="_top" xlink:title=" ">
<polygon fill="white" stroke="#666666" points="324.5,-141.88 162.25,-141.88 162.25,-122.62 324.5,-122.62 324.5,-141.88"/>
<text xml:space="preserve" text-anchor="middle" x="243.38" y="-128.38" font-family="Helvetica,sans-Serif" font-size="10.00">Sensor::getPT1000ChipSelectPin</text>
</a>
</g>
</g>
<!-- Node1&#45;&gt;Node9 -->
<g id="edge8_Node000001_Node000009" class="edge">
<title>Node1&#45;&gt;Node9</title>
<g id="a_edge8_Node000001_Node000009"><a xlink:title=" ">
<path fill="none" stroke="#63b8ff" d="M126.72,-156.26C144.83,-152.5 164.54,-148.41 182.48,-144.68"/>
<polygon fill="#63b8ff" stroke="#63b8ff" points="183.12,-148.12 192.2,-142.67 181.7,-141.27 183.12,-148.12"/>
</a>
</g>
</g>
<!-- Node10 -->
<g id="Node000010" class="node">
<title>Node10</title>
<g id="a_Node000010"><a xlink:href="class_sensor.html#a0f6f095e7cfdfffb2a395dfdae7cfa53" target="_top" xlink:title=" ">
<polygon fill="white" stroke="#666666" points="287,-104.88 199.75,-104.88 199.75,-85.62 287,-85.62 287,-104.88"/>
<text xml:space="preserve" text-anchor="middle" x="243.38" y="-91.38" font-family="Helvetica,sans-Serif" font-size="10.00">Sensor::getType</text>
</a>
</g>
</g>
<!-- Node1&#45;&gt;Node10 -->
<g id="edge9_Node000001_Node000010" class="edge">
<title>Node1&#45;&gt;Node10</title>
<g id="a_edge9_Node000001_Node000010"><a xlink:title=" ">
<path fill="none" stroke="#63b8ff" d="M86.94,-153.61C106.23,-141.05 135,-123.81 162.25,-113.25 170.48,-110.06 179.41,-107.36 188.22,-105.1"/>
<polygon fill="#63b8ff" stroke="#63b8ff" points="188.87,-108.55 197.79,-102.82 187.25,-101.74 188.87,-108.55"/>
</a>
</g>
</g>
<!-- Node11 -->
<g id="Node000011" class="node">
<title>Node11</title>
<g id="a_Node000011"><a xlink:href="class_logger_manager.html#a5c1373ccc47f4112b596fe6f84fbbc21" target="_top" xlink:title=" ">
<polygon fill="white" stroke="#666666" points="295.62,-67.88 191.12,-67.88 191.12,-48.62 295.62,-48.62 295.62,-67.88"/>
<text xml:space="preserve" text-anchor="middle" x="243.38" y="-54.38" font-family="Helvetica,sans-Serif" font-size="10.00">LoggerManager::info</text>
</a>
</g>
</g>
<!-- Node1&#45;&gt;Node11 -->
<g id="edge10_Node000001_Node000011" class="edge">
<title>Node1&#45;&gt;Node11</title>
<g id="a_edge10_Node000001_Node000011"><a xlink:title=" ">
<path fill="none" stroke="#63b8ff" d="M75.92,-153.73C92.72,-132.77 125.59,-95.79 162.25,-76.25 167.89,-73.24 174.02,-70.74 180.28,-68.65"/>
<polygon fill="#63b8ff" stroke="#63b8ff" points="180.84,-72.13 189.44,-65.94 178.86,-65.42 180.84,-72.13"/>
</a>
</g>
</g>
<!-- Node12 -->
<g id="Node000012" class="node">
<title>Node12</title>
<g id="a_Node000012"><a xlink:href="class_measurement_point.html#ab93923a15b7e55af89d1269b681fb856" target="_top" xlink:title=" ">
<polygon fill="white" stroke="#666666" points="309.5,-30.5 177.25,-30.5 177.25,0 309.5,0 309.5,-30.5"/>
<text xml:space="preserve" text-anchor="start" x="185.25" y="-17" font-family="Helvetica,sans-Serif" font-size="10.00">MeasurementPoint::unbind</text>
<text xml:space="preserve" text-anchor="middle" x="243.38" y="-5.75" font-family="Helvetica,sans-Serif" font-size="10.00">Sensor</text>
</a>
</g>
</g>
<!-- Node1&#45;&gt;Node12 -->
<g id="edge11_Node000001_Node000012" class="edge">
<title>Node1&#45;&gt;Node12</title>
<g id="a_edge11_Node000001_Node000012"><a xlink:title=" ">
<path fill="none" stroke="#63b8ff" d="M71.53,-153.9C85.45,-126.68 118.14,-69.92 162.25,-39.25 163.81,-38.17 165.41,-37.13 167.06,-36.14"/>
<polygon fill="#63b8ff" stroke="#63b8ff" points="168.33,-39.43 175.54,-31.67 165.06,-33.24 168.33,-39.43"/>
</a>
</g>
</g>
<!-- Node6 -->
<g id="Node000006" class="node">
<title>Node6</title>
<g id="a_Node000006"><a xlink:href="class_temperature_controller.html#ad322a5bab8d5788a586206004248f673" target="_top" xlink:title=" ">
<polygon fill="white" stroke="#666666" points="472.5,-251.5 360.5,-251.5 360.5,-221 472.5,-221 472.5,-251.5"/>
<text xml:space="preserve" text-anchor="start" x="368.5" y="-238" font-family="Helvetica,sans-Serif" font-size="10.00">TemperatureController</text>
<text xml:space="preserve" text-anchor="middle" x="416.5" y="-226.75" font-family="Helvetica,sans-Serif" font-size="10.00">::isDS18B20Address</text>
</a>
</g>
</g>
<!-- Node5&#45;&gt;Node6 -->
<g id="edge5_Node000005_Node000006" class="edge">
<title>Node5&#45;&gt;Node6</title>
<g id="a_edge5_Node000005_Node000006"><a xlink:title=" ">
<path fill="none" stroke="#63b8ff" d="M302.31,-220.38C317.37,-222.49 333.71,-224.78 349.16,-226.95"/>
<polygon fill="#63b8ff" stroke="#63b8ff" points="348.34,-230.37 358.73,-228.29 349.31,-223.43 348.34,-230.37"/>
</a>
</g>
</g>
<!-- Node7 -->
<g id="Node000007" class="node">
<title>Node7</title>
<g id="a_Node000007"><a xlink:href="class_temperature_controller.html#a13125ddcf29cb56d27403818543618af" target="_top" xlink:title=" ">
<polygon fill="white" stroke="#666666" points="472.5,-202.5 360.5,-202.5 360.5,-172 472.5,-172 472.5,-202.5"/>
<text xml:space="preserve" text-anchor="start" x="368.5" y="-189" font-family="Helvetica,sans-Serif" font-size="10.00">TemperatureController</text>
<text xml:space="preserve" text-anchor="middle" x="416.5" y="-177.75" font-family="Helvetica,sans-Serif" font-size="10.00">::isPT1000Address</text>
</a>
</g>
</g>
<!-- Node5&#45;&gt;Node7 -->
<g id="edge6_Node000005_Node000007" class="edge">
<title>Node5&#45;&gt;Node7</title>
<g id="a_edge6_Node000005_Node000007"><a xlink:title=" ">
<path fill="none" stroke="#63b8ff" d="M302.31,-203.79C317.37,-201.59 333.71,-199.2 349.16,-196.94"/>
<polygon fill="#63b8ff" stroke="#63b8ff" points="349.34,-200.45 358.73,-195.54 348.33,-193.53 349.34,-200.45"/>
</a>
</g>
</g>
</g>
</svg>
