<?xml version="1.0" encoding="UTF-8" standalone="no"?>
<!DOCTYPE svg PUBLIC "-//W3C//DTD SVG 1.1//EN"
 "http://www.w3.org/Graphics/SVG/1.1/DTD/svg11.dtd">
<!-- Generated by graphviz version 13.1.0 (20250701.0955)
 -->
<!-- Title: LoggerManager::_generateCSVHeader Pages: 1 -->
<svg width="343pt" height="64pt"
 viewBox="0.00 0.00 343.00 64.00" xmlns="http://www.w3.org/2000/svg" xmlns:xlink="http://www.w3.org/1999/xlink">
<g id="graph0" class="graph" transform="scale(1 1) rotate(0) translate(4 60.25)">
<title>LoggerManager::_generateCSVHeader</title>
<!-- Node1 -->
<g id="Node000001" class="node">
<title>Node1</title>
<g id="a_Node000001"><a xlink:title=" ">
<polygon fill="#999999" stroke="#666666" points="131.5,-42.88 0,-42.88 0,-12.37 131.5,-12.37 131.5,-42.88"/>
<text xml:space="preserve" text-anchor="start" x="8" y="-29.38" font-family="Helvetica,sans-Serif" font-size="10.00">LoggerManager::_generate</text>
<text xml:space="preserve" text-anchor="middle" x="65.75" y="-18.12" font-family="Helvetica,sans-Serif" font-size="10.00">CSVHeader</text>
</a>
</g>
</g>
<!-- Node2 -->
<g id="Node000002" class="node">
<title>Node2</title>
<g id="a_Node000002"><a xlink:href="$class_logger_manager.html#a57d230cd2896120a32ecf55a14895d55" xlink:title=" ">
<polygon fill="white" stroke="#666666" points="335,-56.25 167.5,-56.25 167.5,-37 335,-37 335,-56.25"/>
<text xml:space="preserve" text-anchor="middle" x="251.25" y="-42.75" font-family="Helvetica,sans-Serif" font-size="10.00">LoggerManager::_escapeCSVField</text>
</a>
</g>
</g>
<!-- Node1&#45;&gt;Node2 -->
<g id="edge1_Node000001_Node000002" class="edge">
<title>Node1&#45;&gt;Node2</title>
<g id="a_edge1_Node000001_Node000002"><a xlink:title=" ">
<path fill="none" stroke="#63b8ff" d="M131.96,-34.38C139.73,-35.18 147.78,-36.02 155.86,-36.85"/>
<polygon fill="#63b8ff" stroke="#63b8ff" points="155.46,-40.33 165.77,-37.88 156.18,-33.37 155.46,-40.33"/>
</a>
</g>
</g>
<!-- Node3 -->
<g id="Node000003" class="node">
<title>Node3</title>
<g id="a_Node000003"><a xlink:href="$class_measurement_point.html#aa3a80d373c7609c7b178bf7353ffdd7a" xlink:title="Get measurement point name.">
<polygon fill="white" stroke="#666666" points="323,-19.25 179.5,-19.25 179.5,0 323,0 323,-19.25"/>
<text xml:space="preserve" text-anchor="middle" x="251.25" y="-5.75" font-family="Helvetica,sans-Serif" font-size="10.00">MeasurementPoint::getName</text>
</a>
</g>
</g>
<!-- Node1&#45;&gt;Node3 -->
<g id="edge2_Node000001_Node000003" class="edge">
<title>Node1&#45;&gt;Node3</title>
<g id="a_edge2_Node000001_Node000003"><a xlink:title=" ">
<path fill="none" stroke="#63b8ff" d="M131.96,-21.23C143.52,-20.09 155.68,-18.9 167.64,-17.73"/>
<polygon fill="#63b8ff" stroke="#63b8ff" points="167.9,-21.22 177.51,-16.76 167.22,-14.25 167.9,-21.22"/>
</a>
</g>
</g>
</g>
</svg>
