<?xml version="1.0" encoding="UTF-8" standalone="no"?>
<!DOCTYPE svg PUBLIC "-//W3C//DTD SVG 1.1//EN"
 "http://www.w3.org/Graphics/SVG/1.1/DTD/svg11.dtd">
<!-- Generated by graphviz version 13.1.0 (20250701.0955)
 -->
<!-- Title: MeasurementPoint::getBoundSensor Pages: 1 -->
<svg width="845pt" height="410pt"
 viewBox="0.00 0.00 845.00 410.00" xmlns="http://www.w3.org/2000/svg" xmlns:xlink="http://www.w3.org/1999/xlink">
<g id="graph0" class="graph" transform="scale(1 1) rotate(0) translate(4 405.5)">
<title>MeasurementPoint::getBoundSensor</title>
<!-- Node1 -->
<g id="Node000001" class="node">
<title>Node1</title>
<g id="a_Node000001"><a xlink:title=" ">
<polygon fill="#999999" stroke="#666666" points="836.75,-244.5 691.75,-244.5 691.75,-214 836.75,-214 836.75,-244.5"/>
<text xml:space="preserve" text-anchor="start" x="699.75" y="-231" font-family="Helvetica,sans-Serif" font-size="10.00">MeasurementPoint::getBound</text>
<text xml:space="preserve" text-anchor="middle" x="764.25" y="-219.75" font-family="Helvetica,sans-Serif" font-size="10.00">Sensor</text>
</a>
</g>
</g>
<!-- Node2 -->
<g id="Node000002" class="node">
<title>Node2</title>
<g id="a_Node000002"><a xlink:href="class_temperature_controller.html#a27da8ccc3effea555f440ce3e6f89b08" target="_top" xlink:title=" ">
<polygon fill="white" stroke="#666666" points="638.12,-401.5 517.12,-401.5 517.12,-371 638.12,-371 638.12,-401.5"/>
<text xml:space="preserve" text-anchor="start" x="525.12" y="-388" font-family="Helvetica,sans-Serif" font-size="10.00">TemperatureController</text>
<text xml:space="preserve" text-anchor="middle" x="577.62" y="-376.75" font-family="Helvetica,sans-Serif" font-size="10.00">::_checkPointForAlarms</text>
</a>
</g>
</g>
<!-- Node1&#45;&gt;Node2 -->
<g id="edge1_Node000001_Node000002" class="edge">
<title>Node1&#45;&gt;Node2</title>
<g id="a_edge1_Node000001_Node000002"><a xlink:title=" ">
<path fill="none" stroke="#63b8ff" d="M749.03,-254.34C730.99,-283.99 697.2,-332.87 655.75,-361.25 650.41,-364.91 644.49,-368.06 638.39,-370.77"/>
<polygon fill="#63b8ff" stroke="#63b8ff" points="751.87,-256.41 753.97,-246.02 745.85,-252.84 751.87,-256.41"/>
</a>
</g>
</g>
<!-- Node3 -->
<g id="Node000003" class="node">
<title>Node3</title>
<g id="a_Node000003"><a xlink:href="class_c_s_v_config_manager.html#a2c2673398051c26184c9197aa751a6b3" target="_top" xlink:title=" ">
<polygon fill="white" stroke="#666666" points="632.12,-352.5 523.12,-352.5 523.12,-322 632.12,-322 632.12,-352.5"/>
<text xml:space="preserve" text-anchor="start" x="531.12" y="-339" font-family="Helvetica,sans-Serif" font-size="10.00">CSVConfigManager::</text>
<text xml:space="preserve" text-anchor="middle" x="577.62" y="-327.75" font-family="Helvetica,sans-Serif" font-size="10.00">_exportPointToCSV</text>
</a>
</g>
</g>
<!-- Node1&#45;&gt;Node3 -->
<g id="edge2_Node000001_Node000003" class="edge">
<title>Node1&#45;&gt;Node3</title>
<g id="a_edge2_Node000001_Node000003"><a xlink:title=" ">
<path fill="none" stroke="#63b8ff" d="M738.61,-252.77C717.92,-271.42 686.82,-296.98 655.75,-313.25 648.42,-317.09 640.37,-320.43 632.33,-323.31"/>
<polygon fill="#63b8ff" stroke="#63b8ff" points="740.97,-255.36 745.97,-246.02 736.23,-250.2 740.97,-255.36"/>
</a>
</g>
</g>
<!-- Node5 -->
<g id="Node000005" class="node">
<title>Node5</title>
<g id="a_Node000005"><a xlink:href="class_logger_manager.html#aa6938b6a5c002d6ed72ef352f0cc7a19" target="_top" xlink:title=" ">
<polygon fill="white" stroke="#666666" points="655.75,-303.88 499.5,-303.88 499.5,-284.62 655.75,-284.62 655.75,-303.88"/>
<text xml:space="preserve" text-anchor="middle" x="577.62" y="-290.38" font-family="Helvetica,sans-Serif" font-size="10.00">LoggerManager::_writeDataRow</text>
</a>
</g>
</g>
<!-- Node1&#45;&gt;Node5 -->
<g id="edge4_Node000001_Node000005" class="edge">
<title>Node1&#45;&gt;Node5</title>
<g id="a_edge4_Node000001_Node000005"><a xlink:title=" ">
<path fill="none" stroke="#63b8ff" d="M720.05,-249.64C700.67,-258.29 677.35,-268.02 655.75,-275.25 645.81,-278.58 634.98,-281.6 624.65,-284.21"/>
<polygon fill="#63b8ff" stroke="#63b8ff" points="721.33,-252.9 729,-245.59 718.45,-246.53 721.33,-252.9"/>
</a>
</g>
</g>
<!-- Node8 -->
<g id="Node000008" class="node">
<title>Node8</title>
<g id="a_Node000008"><a xlink:href="class_config_manager.html#ae605c999fabc6344511f455618655326" target="_top" xlink:title=" ">
<polygon fill="white" stroke="#666666" points="459,-190.88 325.25,-190.88 325.25,-171.62 459,-171.62 459,-190.88"/>
<text xml:space="preserve" text-anchor="middle" x="392.12" y="-177.38" font-family="Helvetica,sans-Serif" font-size="10.00">ConfigManager::alarmsAPI</text>
</a>
</g>
</g>
<!-- Node1&#45;&gt;Node8 -->
<g id="edge7_Node000001_Node000008" class="edge">
<title>Node1&#45;&gt;Node8</title>
<g id="a_edge7_Node000001_Node000008"><a xlink:title=" ">
<path fill="none" stroke="#63b8ff" d="M680.15,-218.47C613.5,-209.83 521.2,-197.86 459.44,-189.85"/>
<polygon fill="#63b8ff" stroke="#63b8ff" points="679.58,-221.93 689.95,-219.74 680.48,-214.99 679.58,-221.93"/>
</a>
</g>
</g>
<!-- Node10 -->
<g id="Node000010" class="node">
<title>Node10</title>
<g id="a_Node000010"><a xlink:href="class_temperature_controller.html#a9b4fe09d4c87dcf86e78b890012e1e72" target="_top" xlink:title=" ">
<polygon fill="white" stroke="#666666" points="633.62,-266.5 521.62,-266.5 521.62,-236 633.62,-236 633.62,-266.5"/>
<text xml:space="preserve" text-anchor="start" x="529.62" y="-253" font-family="Helvetica,sans-Serif" font-size="10.00">TemperatureController</text>
<text xml:space="preserve" text-anchor="middle" x="577.62" y="-241.75" font-family="Helvetica,sans-Serif" font-size="10.00">::getBoundSensor</text>
</a>
</g>
</g>
<!-- Node1&#45;&gt;Node10 -->
<g id="edge9_Node000001_Node000010" class="edge">
<title>Node1&#45;&gt;Node10</title>
<g id="a_edge9_Node000001_Node000010"><a xlink:title=" ">
<path fill="none" stroke="#63b8ff" d="M680.07,-239.16C664.48,-241.02 648.53,-242.92 634.04,-244.65"/>
<polygon fill="#63b8ff" stroke="#63b8ff" points="680.32,-242.66 689.84,-238 679.49,-235.71 680.32,-242.66"/>
</a>
</g>
</g>
<!-- Node16 -->
<g id="Node000016" class="node">
<title>Node16</title>
<g id="a_Node000016"><a xlink:href="class_temperature_controller.html#add39ba7dad38449bbf1787a5c9c51ef9" target="_top" xlink:title=" ">
<polygon fill="white" stroke="#666666" points="633.62,-180.5 521.62,-180.5 521.62,-150 633.62,-150 633.62,-180.5"/>
<text xml:space="preserve" text-anchor="start" x="529.62" y="-167" font-family="Helvetica,sans-Serif" font-size="10.00">TemperatureController</text>
<text xml:space="preserve" text-anchor="middle" x="577.62" y="-155.75" font-family="Helvetica,sans-Serif" font-size="10.00">::getPointsJson</text>
</a>
</g>
</g>
<!-- Node1&#45;&gt;Node16 -->
<g id="edge16_Node000001_Node000016" class="edge">
<title>Node1&#45;&gt;Node16</title>
<g id="a_edge16_Node000001_Node000016"><a xlink:title=" ">
<path fill="none" stroke="#63b8ff" d="M707.36,-209.88C680.67,-200.62 649.14,-189.69 623.96,-180.97"/>
<polygon fill="#63b8ff" stroke="#63b8ff" points="706.06,-213.13 716.66,-213.1 708.35,-206.52 706.06,-213.13"/>
</a>
</g>
</g>
<!-- Node17 -->
<g id="Node000017" class="node">
<title>Node17</title>
<g id="a_Node000017"><a xlink:href="class_config_manager.html#a55b79da91c57039c483ddf5fceabbd64" target="_top" xlink:title=" ">
<polygon fill="white" stroke="#666666" points="646,-131.5 509.25,-131.5 509.25,-101 646,-101 646,-131.5"/>
<text xml:space="preserve" text-anchor="start" x="517.25" y="-118" font-family="Helvetica,sans-Serif" font-size="10.00">ConfigManager::savePoints</text>
<text xml:space="preserve" text-anchor="middle" x="577.62" y="-106.75" font-family="Helvetica,sans-Serif" font-size="10.00">Config</text>
</a>
</g>
</g>
<!-- Node1&#45;&gt;Node17 -->
<g id="edge17_Node000001_Node000017" class="edge">
<title>Node1&#45;&gt;Node17</title>
<g id="a_edge17_Node000001_Node000017"><a xlink:title=" ">
<path fill="none" stroke="#63b8ff" d="M740.12,-205.94C719.53,-186.32 687.8,-158.74 655.75,-141.25 649.33,-137.74 642.33,-134.63 635.26,-131.89"/>
<polygon fill="#63b8ff" stroke="#63b8ff" points="737.53,-208.3 747.14,-212.75 742.4,-203.27 737.53,-208.3"/>
</a>
</g>
</g>
<!-- Node22 -->
<g id="Node000022" class="node">
<title>Node22</title>
<g id="a_Node000022"><a xlink:href="class_temperature_controller.html#a261c9b96540ec6680dfffd3a26e4ca00" target="_top" xlink:title=" ">
<polygon fill="white" stroke="#666666" points="640.75,-82.5 514.5,-82.5 514.5,-52 640.75,-52 640.75,-82.5"/>
<text xml:space="preserve" text-anchor="start" x="522.5" y="-69" font-family="Helvetica,sans-Serif" font-size="10.00">TemperatureController</text>
<text xml:space="preserve" text-anchor="middle" x="577.62" y="-57.75" font-family="Helvetica,sans-Serif" font-size="10.00">::unbindSensorFromPoint</text>
</a>
</g>
</g>
<!-- Node1&#45;&gt;Node22 -->
<g id="edge26_Node000001_Node000022" class="edge">
<title>Node1&#45;&gt;Node22</title>
<g id="a_edge26_Node000001_Node000022"><a xlink:title=" ">
<path fill="none" stroke="#63b8ff" d="M749.54,-203.68C731.81,-172.94 698.1,-121.82 655.75,-92.25 650.67,-88.7 645.06,-85.64 639.25,-82.99"/>
<polygon fill="#63b8ff" stroke="#63b8ff" points="746.44,-205.31 754.39,-212.31 752.54,-201.88 746.44,-205.31"/>
</a>
</g>
</g>
<!-- Node4 -->
<g id="Node000004" class="node">
<title>Node4</title>
<g id="a_Node000004"><a xlink:href="class_c_s_v_config_manager.html#a1c6cbc4c8a132762bf16a8ce9f7d0bfc" target="_top" xlink:title=" ">
<polygon fill="white" stroke="#666666" points="460.12,-374.5 324.12,-374.5 324.12,-344 460.12,-344 460.12,-374.5"/>
<text xml:space="preserve" text-anchor="start" x="332.12" y="-361" font-family="Helvetica,sans-Serif" font-size="10.00">CSVConfigManager::export</text>
<text xml:space="preserve" text-anchor="middle" x="392.12" y="-349.75" font-family="Helvetica,sans-Serif" font-size="10.00">PointsWithAlarmsToCSV</text>
</a>
</g>
</g>
<!-- Node3&#45;&gt;Node4 -->
<g id="edge3_Node000003_Node000004" class="edge">
<title>Node3&#45;&gt;Node4</title>
<g id="a_edge3_Node000003_Node000004"><a xlink:title=" ">
<path fill="none" stroke="#63b8ff" d="M511.78,-345.02C495.15,-347.02 477.23,-349.17 460.48,-351.18"/>
<polygon fill="#63b8ff" stroke="#63b8ff" points="512.04,-348.52 521.55,-343.85 511.21,-341.57 512.04,-348.52"/>
</a>
</g>
</g>
<!-- Node6 -->
<g id="Node000006" class="node">
<title>Node6</title>
<g id="a_Node000006"><a xlink:href="class_logger_manager.html#a32ce9f462269787130bee46b2c34b632" target="_top" xlink:title=" ">
<polygon fill="white" stroke="#666666" points="463.5,-325.88 320.75,-325.88 320.75,-306.62 463.5,-306.62 463.5,-325.88"/>
<text xml:space="preserve" text-anchor="middle" x="392.12" y="-312.38" font-family="Helvetica,sans-Serif" font-size="10.00">LoggerManager::logDataNow</text>
</a>
</g>
</g>
<!-- Node5&#45;&gt;Node6 -->
<g id="edge5_Node000005_Node000006" class="edge">
<title>Node5&#45;&gt;Node6</title>
<g id="a_edge5_Node000005_Node000006"><a xlink:title=" ">
<path fill="none" stroke="#63b8ff" d="M487.81,-304.9C479.82,-305.86 471.8,-306.82 463.99,-307.75"/>
<polygon fill="#63b8ff" stroke="#63b8ff" points="488.06,-308.39 497.57,-303.73 487.22,-301.44 488.06,-308.39"/>
</a>
</g>
</g>
<!-- Node7 -->
<g id="Node000007" class="node">
<title>Node7</title>
<g id="a_Node000007"><a xlink:href="class_logger_manager.html#a830c86f1f27d3799eab1de908fc6b647" target="_top" xlink:title=" ">
<polygon fill="white" stroke="#666666" points="275.38,-325.88 157.38,-325.88 157.38,-306.62 275.38,-306.62 275.38,-325.88"/>
<text xml:space="preserve" text-anchor="middle" x="216.38" y="-312.38" font-family="Helvetica,sans-Serif" font-size="10.00">LoggerManager::update</text>
</a>
</g>
</g>
<!-- Node6&#45;&gt;Node7 -->
<g id="edge6_Node000006_Node000007" class="edge">
<title>Node6&#45;&gt;Node7</title>
<g id="a_edge6_Node000006_Node000007"><a xlink:title=" ">
<path fill="none" stroke="#63b8ff" d="M309.23,-316.25C297.93,-316.25 286.53,-316.25 275.78,-316.25"/>
<polygon fill="#63b8ff" stroke="#63b8ff" points="308.94,-319.75 318.94,-316.25 308.94,-312.75 308.94,-319.75"/>
</a>
</g>
</g>
<!-- Node9 -->
<g id="Node000009" class="node">
<title>Node9</title>
<g id="a_Node000009"><a xlink:href="class_config_manager.html#a0497343220fc493f5cf9574922508908" target="_top" xlink:title=" ">
<polygon fill="white" stroke="#666666" points="272,-126.88 160.75,-126.88 160.75,-107.62 272,-107.62 272,-126.88"/>
<text xml:space="preserve" text-anchor="middle" x="216.38" y="-113.38" font-family="Helvetica,sans-Serif" font-size="10.00">ConfigManager::begin</text>
</a>
</g>
</g>
<!-- Node8&#45;&gt;Node9 -->
<g id="edge8_Node000008_Node000009" class="edge">
<title>Node8&#45;&gt;Node9</title>
<g id="a_edge8_Node000008_Node000009"><a xlink:title=" ">
<path fill="none" stroke="#63b8ff" d="M338.88,-168.07C332.73,-166.24 326.57,-164.29 320.75,-162.25 291.38,-151.96 258.62,-137.09 238,-127.3"/>
<polygon fill="#63b8ff" stroke="#63b8ff" points="337.85,-171.41 348.42,-170.79 339.77,-164.68 337.85,-171.41"/>
</a>
</g>
</g>
<!-- Node11 -->
<g id="Node000011" class="node">
<title>Node11</title>
<g id="a_Node000011"><a xlink:href="class_temperature_controller.html#a4e4770607486ebfc6eacafa704945c23" target="_top" xlink:title=" ">
<polygon fill="white" stroke="#666666" points="451.12,-288.5 333.12,-288.5 333.12,-258 451.12,-258 451.12,-288.5"/>
<text xml:space="preserve" text-anchor="start" x="341.12" y="-275" font-family="Helvetica,sans-Serif" font-size="10.00">TemperatureController</text>
<text xml:space="preserve" text-anchor="middle" x="392.12" y="-263.75" font-family="Helvetica,sans-Serif" font-size="10.00">::removeSensorByRom</text>
</a>
</g>
</g>
<!-- Node10&#45;&gt;Node11 -->
<g id="edge10_Node000010_Node000011" class="edge">
<title>Node10&#45;&gt;Node11</title>
<g id="a_edge10_Node000010_Node000011"><a xlink:title=" ">
<path fill="none" stroke="#63b8ff" d="M510.14,-259.22C490.89,-261.53 470.03,-264.03 451.33,-266.27"/>
<polygon fill="#63b8ff" stroke="#63b8ff" points="510.55,-262.7 520.07,-258.03 509.72,-255.75 510.55,-262.7"/>
</a>
</g>
</g>
<!-- Node13 -->
<g id="Node000013" class="node">
<title>Node13</title>
<g id="a_Node000013"><a xlink:href="class_temperature_controller.html#a5ac8af90de5dfd79a9a2e4c7270a98a3" target="_top" xlink:title=" ">
<polygon fill="white" stroke="#666666" points="448.12,-239.5 336.12,-239.5 336.12,-209 448.12,-209 448.12,-239.5"/>
<text xml:space="preserve" text-anchor="start" x="344.12" y="-226" font-family="Helvetica,sans-Serif" font-size="10.00">TemperatureController</text>
<text xml:space="preserve" text-anchor="middle" x="392.12" y="-214.75" font-family="Helvetica,sans-Serif" font-size="10.00">::updateAlarms</text>
</a>
</g>
</g>
<!-- Node10&#45;&gt;Node13 -->
<g id="edge12_Node000010_Node000013" class="edge">
<title>Node10&#45;&gt;Node13</title>
<g id="a_edge12_Node000010_Node000013"><a xlink:title=" ">
<path fill="none" stroke="#63b8ff" d="M510.2,-241.48C489.95,-238.5 467.9,-235.25 448.46,-232.39"/>
<polygon fill="#63b8ff" stroke="#63b8ff" points="509.67,-244.94 520.07,-242.93 510.69,-238.01 509.67,-244.94"/>
</a>
</g>
</g>
<!-- Node12 -->
<g id="Node000012" class="node">
<title>Node12</title>
<g id="a_Node000012"><a xlink:href="class_temperature_controller.html#a57b74b40c88016965d07248981412f7d" target="_top" xlink:title=" ">
<polygon fill="white" stroke="#666666" points="284.75,-288.5 148,-288.5 148,-258 284.75,-258 284.75,-288.5"/>
<text xml:space="preserve" text-anchor="start" x="156" y="-275" font-family="Helvetica,sans-Serif" font-size="10.00">TemperatureController</text>
<text xml:space="preserve" text-anchor="middle" x="216.38" y="-263.75" font-family="Helvetica,sans-Serif" font-size="10.00">::discoverDS18B20Sensors</text>
</a>
</g>
</g>
<!-- Node11&#45;&gt;Node12 -->
<g id="edge11_Node000011_Node000012" class="edge">
<title>Node11&#45;&gt;Node12</title>
<g id="a_edge11_Node000011_Node000012"><a xlink:title=" ">
<path fill="none" stroke="#63b8ff" d="M321.48,-273.25C309.51,-273.25 297.09,-273.25 285.17,-273.25"/>
<polygon fill="#63b8ff" stroke="#63b8ff" points="321.27,-276.75 331.27,-273.25 321.27,-269.75 321.27,-276.75"/>
</a>
</g>
</g>
<!-- Node14 -->
<g id="Node000014" class="node">
<title>Node14</title>
<g id="a_Node000014"><a xlink:href="class_temperature_controller.html#aca5deddbf703001373424d876f87b5f2" target="_top" xlink:title=" ">
<polygon fill="white" stroke="#666666" points="272.38,-239.5 160.38,-239.5 160.38,-209 272.38,-209 272.38,-239.5"/>
<text xml:space="preserve" text-anchor="start" x="168.38" y="-226" font-family="Helvetica,sans-Serif" font-size="10.00">TemperatureController</text>
<text xml:space="preserve" text-anchor="middle" x="216.38" y="-214.75" font-family="Helvetica,sans-Serif" font-size="10.00">::update</text>
</a>
</g>
</g>
<!-- Node13&#45;&gt;Node14 -->
<g id="edge13_Node000013_Node000014" class="edge">
<title>Node13&#45;&gt;Node14</title>
<g id="a_edge13_Node000013_Node000014"><a xlink:title=" ">
<path fill="none" stroke="#63b8ff" d="M324.58,-224.25C307.41,-224.25 289.12,-224.25 272.6,-224.25"/>
<polygon fill="#63b8ff" stroke="#63b8ff" points="324.16,-227.75 334.16,-224.25 324.16,-220.75 324.16,-227.75"/>
</a>
</g>
</g>
<!-- Node15 -->
<g id="Node000015" class="node">
<title>Node15</title>
<g id="a_Node000015"><a xlink:href="class_temperature_controller.html#a11948a87fe7df37543b86ecdd488b341" target="_top" xlink:title=" ">
<polygon fill="white" stroke="#666666" points="112,-239.5 0,-239.5 0,-209 112,-209 112,-239.5"/>
<text xml:space="preserve" text-anchor="start" x="8" y="-226" font-family="Helvetica,sans-Serif" font-size="10.00">TemperatureController</text>
<text xml:space="preserve" text-anchor="middle" x="56" y="-214.75" font-family="Helvetica,sans-Serif" font-size="10.00">::readAllPoints</text>
</a>
</g>
</g>
<!-- Node14&#45;&gt;Node15 -->
<g id="edge14_Node000014_Node000015" class="edge">
<title>Node14&#45;&gt;Node15</title>
<g id="a_edge14_Node000014_Node000015"><a xlink:title=" ">
<path fill="none" stroke="#63b8ff" d="M148.57,-217.57C136.51,-217.43 124.05,-217.5 112.36,-217.78"/>
<polygon fill="#63b8ff" stroke="#63b8ff" points="148.41,-221.07 158.47,-217.75 148.53,-214.07 148.41,-221.07"/>
</a>
</g>
</g>
<!-- Node15&#45;&gt;Node14 -->
<g id="edge15_Node000015_Node000014" class="edge">
<title>Node15&#45;&gt;Node14</title>
<g id="a_edge15_Node000015_Node000014"><a xlink:title=" ">
<path fill="none" stroke="#63b8ff" d="M123.77,-230.93C135.83,-231.07 148.29,-231 159.98,-230.72"/>
<polygon fill="#63b8ff" stroke="#63b8ff" points="123.94,-227.43 113.87,-230.75 123.81,-234.43 123.94,-227.43"/>
</a>
</g>
</g>
<!-- Node17&#45;&gt;Node8 -->
<g id="edge18_Node000017_Node000008" class="edge">
<title>Node17&#45;&gt;Node8</title>
<g id="a_edge18_Node000017_Node000008"><a xlink:title=" ">
<path fill="none" stroke="#63b8ff" d="M512.51,-135.85C508.07,-137.57 503.69,-139.37 499.5,-141.25 482.59,-148.82 480.59,-155.11 463.5,-162.25 455.33,-165.67 446.36,-168.63 437.65,-171.14"/>
<polygon fill="#63b8ff" stroke="#63b8ff" points="513.37,-139.27 521.54,-132.52 510.94,-132.7 513.37,-139.27"/>
</a>
</g>
</g>
<!-- Node18 -->
<g id="Node000018" class="node">
<title>Node18</title>
<g id="a_Node000018"><a xlink:href="class_config_manager.html#a9b7af07b85bf9cc3ac05603db6e89fd2" target="_top" xlink:title=" ">
<polygon fill="white" stroke="#666666" points="457.88,-153.5 326.38,-153.5 326.38,-123 457.88,-123 457.88,-153.5"/>
<text xml:space="preserve" text-anchor="start" x="334.38" y="-140" font-family="Helvetica,sans-Serif" font-size="10.00">ConfigManager::csvImport</text>
<text xml:space="preserve" text-anchor="middle" x="392.12" y="-128.75" font-family="Helvetica,sans-Serif" font-size="10.00">ExportAPI</text>
</a>
</g>
</g>
<!-- Node17&#45;&gt;Node18 -->
<g id="edge19_Node000017_Node000018" class="edge">
<title>Node17&#45;&gt;Node18</title>
<g id="a_edge19_Node000017_Node000018"><a xlink:title=" ">
<path fill="none" stroke="#63b8ff" d="M497.43,-125.74C484.34,-127.31 470.91,-128.92 458.21,-130.45"/>
<polygon fill="#63b8ff" stroke="#63b8ff" points="497.8,-129.23 507.31,-124.56 496.97,-122.28 497.8,-129.23"/>
</a>
</g>
</g>
<!-- Node19 -->
<g id="Node000019" class="node">
<title>Node19</title>
<g id="a_Node000019"><a xlink:href="class_config_manager.html#a471a844085c27f3a8a8f9394d9c14677" target="_top" xlink:title=" ">
<polygon fill="white" stroke="#666666" points="457.5,-104.88 326.75,-104.88 326.75,-85.62 457.5,-85.62 457.5,-104.88"/>
<text xml:space="preserve" text-anchor="middle" x="392.12" y="-91.38" font-family="Helvetica,sans-Serif" font-size="10.00">ConfigManager::pointsAPI</text>
</a>
</g>
</g>
<!-- Node17&#45;&gt;Node19 -->
<g id="edge21_Node000017_Node000019" class="edge">
<title>Node17&#45;&gt;Node19</title>
<g id="a_edge21_Node000017_Node000019"><a xlink:title=" ">
<path fill="none" stroke="#63b8ff" d="M497.76,-107.22C484.46,-105.7 470.8,-104.14 457.91,-102.66"/>
<polygon fill="#63b8ff" stroke="#63b8ff" points="496.98,-110.66 507.31,-108.32 497.78,-103.7 496.98,-110.66"/>
</a>
</g>
</g>
<!-- Node20 -->
<g id="Node000020" class="node">
<title>Node20</title>
<g id="a_Node000020"><a xlink:href="class_config_manager.html#a45b1ce1f09401af0b6f700cf4388b233" target="_top" xlink:title=" ">
<polygon fill="white" stroke="#666666" points="459,-67.88 325.25,-67.88 325.25,-48.62 459,-48.62 459,-67.88"/>
<text xml:space="preserve" text-anchor="middle" x="392.12" y="-54.38" font-family="Helvetica,sans-Serif" font-size="10.00">ConfigManager::sensorAPI</text>
</a>
</g>
</g>
<!-- Node17&#45;&gt;Node20 -->
<g id="edge23_Node000017_Node000020" class="edge">
<title>Node17&#45;&gt;Node20</title>
<g id="a_edge23_Node000017_Node000020"><a xlink:title=" ">
<path fill="none" stroke="#63b8ff" d="M515.68,-97C510.19,-95.12 504.73,-93.18 499.5,-91.25 483.24,-85.24 479.94,-81.75 463.5,-76.25 454.89,-73.37 445.55,-70.69 436.58,-68.32"/>
<polygon fill="#63b8ff" stroke="#63b8ff" points="514.19,-100.2 524.79,-100.08 516.43,-93.57 514.19,-100.2"/>
</a>
</g>
</g>
<!-- Node21 -->
<g id="Node000021" class="node">
<title>Node21</title>
<g id="a_Node000021"><a xlink:href="class_config_manager.html#a0daf50bbd376beb24a5400a86e893338" target="_top" xlink:title=" ">
<polygon fill="white" stroke="#666666" points="462,-30.5 322.25,-30.5 322.25,0 462,0 462,-30.5"/>
<text xml:space="preserve" text-anchor="start" x="330.25" y="-17" font-family="Helvetica,sans-Serif" font-size="10.00">ConfigManager::updatePoint</text>
<text xml:space="preserve" text-anchor="middle" x="392.12" y="-5.75" font-family="Helvetica,sans-Serif" font-size="10.00">InConfig</text>
</a>
</g>
</g>
<!-- Node17&#45;&gt;Node21 -->
<g id="edge25_Node000017_Node000021" class="edge">
<title>Node17&#45;&gt;Node21</title>
<g id="a_edge25_Node000017_Node000021"><a xlink:title=" ">
<path fill="none" stroke="#63b8ff" d="M505.67,-95.4C503.54,-94.1 501.47,-92.72 499.5,-91.25 476.94,-74.48 485.93,-56.19 463.5,-39.25 459.28,-36.06 454.6,-33.28 449.73,-30.85"/>
<polygon fill="#63b8ff" stroke="#63b8ff" points="503.59,-98.26 514.05,-99.91 506.9,-92.09 503.59,-98.26"/>
</a>
</g>
</g>
<!-- Node18&#45;&gt;Node9 -->
<g id="edge20_Node000018_Node000009" class="edge">
<title>Node18&#45;&gt;Node9</title>
<g id="a_edge20_Node000018_Node000009"><a xlink:title=" ">
<path fill="none" stroke="#63b8ff" d="M314.64,-129.01C300.42,-127.29 285.83,-125.52 272.41,-123.9"/>
<polygon fill="#63b8ff" stroke="#63b8ff" points="314.08,-132.46 324.43,-130.19 314.92,-125.51 314.08,-132.46"/>
</a>
</g>
</g>
<!-- Node19&#45;&gt;Node9 -->
<g id="edge22_Node000019_Node000009" class="edge">
<title>Node19&#45;&gt;Node9</title>
<g id="a_edge22_Node000019_Node000009"><a xlink:title=" ">
<path fill="none" stroke="#63b8ff" d="M315.05,-104.88C300.71,-106.7 285.98,-108.56 272.44,-110.28"/>
<polygon fill="#63b8ff" stroke="#63b8ff" points="315.44,-108.36 324.93,-103.63 314.56,-101.42 315.44,-108.36"/>
</a>
</g>
</g>
<!-- Node20&#45;&gt;Node9 -->
<g id="edge24_Node000020_Node000009" class="edge">
<title>Node20&#45;&gt;Node9</title>
<g id="a_edge24_Node000020_Node000009"><a xlink:title=" ">
<path fill="none" stroke="#63b8ff" d="M337.31,-71.26C331.69,-72.84 326.09,-74.52 320.75,-76.25 292.47,-85.43 260.81,-98.4 240.06,-107.28"/>
<polygon fill="#63b8ff" stroke="#63b8ff" points="337.88,-74.73 346.62,-68.73 336.05,-67.98 337.88,-74.73"/>
</a>
</g>
</g>
</g>
</svg>
