<?xml version="1.0" encoding="UTF-8" standalone="no"?>
<!DOCTYPE svg PUBLIC "-//W3C//DTD SVG 1.1//EN"
 "http://www.w3.org/Graphics/SVG/1.1/DTD/svg11.dtd">
<!-- Generated by graphviz version 13.1.0 (20250701.0955)
 -->
<!-- Title: TemperatureController::updateRegisterMap Pages: 1 -->
<svg width="593pt" height="131pt"
 viewBox="0.00 0.00 593.00 131.00" xmlns="http://www.w3.org/2000/svg" xmlns:xlink="http://www.w3.org/1999/xlink">
<g id="graph0" class="graph" transform="scale(1 1) rotate(0) translate(4 126.5)">
<title>TemperatureController::updateRegisterMap</title>
<!-- Node1 -->
<g id="Node000001" class="node">
<title>Node1</title>
<g id="a_Node000001"><a xlink:title="Update register map with current values from measurement points.">
<polygon fill="#999999" stroke="#666666" points="112,-97.5 0,-97.5 0,-67 112,-67 112,-97.5"/>
<text xml:space="preserve" text-anchor="start" x="8" y="-84" font-family="Helvetica,sans-Serif" font-size="10.00">TemperatureController</text>
<text xml:space="preserve" text-anchor="middle" x="56" y="-72.75" font-family="Helvetica,sans-Serif" font-size="10.00">::updateRegisterMap</text>
</a>
</g>
</g>
<!-- Node2 -->
<g id="Node000002" class="node">
<title>Node2</title>
<g id="a_Node000002"><a xlink:href="class_temperature_controller.html#aac890ae08b5eddcf272771ecdba61453" target="_top" xlink:title="Get relay actual state.">
<polygon fill="white" stroke="#666666" points="273.88,-122.5 161.88,-122.5 161.88,-92 273.88,-92 273.88,-122.5"/>
<text xml:space="preserve" text-anchor="start" x="169.88" y="-109" font-family="Helvetica,sans-Serif" font-size="10.00">TemperatureController</text>
<text xml:space="preserve" text-anchor="middle" x="217.88" y="-97.75" font-family="Helvetica,sans-Serif" font-size="10.00">::getRelayActualState</text>
</a>
</g>
</g>
<!-- Node1&#45;&gt;Node2 -->
<g id="edge1_Node000001_Node000002" class="edge">
<title>Node1&#45;&gt;Node2</title>
<g id="a_edge1_Node000001_Node000002"><a xlink:title=" ">
<path fill="none" stroke="#63b8ff" d="M112.47,-90.92C124.62,-92.82 137.61,-94.85 150.15,-96.82"/>
<polygon fill="#63b8ff" stroke="#63b8ff" points="149.59,-100.27 160.01,-98.36 150.67,-93.35 149.59,-100.27"/>
</a>
</g>
</g>
<!-- Node4 -->
<g id="Node000004" class="node">
<title>Node4</title>
<g id="a_Node000004"><a xlink:href="class_temperature_controller.html#a20a14014a639f3390dba82a6cd39d067" target="_top" xlink:title="Get relay commanded state.">
<polygon fill="white" stroke="#666666" points="287.75,-73.5 148,-73.5 148,-43 287.75,-43 287.75,-73.5"/>
<text xml:space="preserve" text-anchor="start" x="156" y="-60" font-family="Helvetica,sans-Serif" font-size="10.00">TemperatureController</text>
<text xml:space="preserve" text-anchor="middle" x="217.88" y="-48.75" font-family="Helvetica,sans-Serif" font-size="10.00">::getRelayCommandedState</text>
</a>
</g>
</g>
<!-- Node1&#45;&gt;Node4 -->
<g id="edge3_Node000001_Node000004" class="edge">
<title>Node1&#45;&gt;Node4</title>
<g id="a_edge3_Node000001_Node000004"><a xlink:title=" ">
<path fill="none" stroke="#63b8ff" d="M112.47,-73.92C120.19,-72.76 128.25,-71.55 136.32,-70.34"/>
<polygon fill="#63b8ff" stroke="#63b8ff" points="136.83,-73.8 146.2,-68.86 135.8,-66.88 136.83,-73.8"/>
</a>
</g>
</g>
<!-- Node3 -->
<g id="Node000003" class="node">
<title>Node3</title>
<g id="a_Node000003"><a xlink:href="class_logger_manager.html#aef24f00186213fa78be3b104a50d58e6" target="_top" xlink:title="Log error message (static convenience method)">
<polygon fill="white" stroke="#666666" points="584.5,-70.88 476.25,-70.88 476.25,-51.62 584.5,-51.62 584.5,-70.88"/>
<text xml:space="preserve" text-anchor="middle" x="530.38" y="-57.38" font-family="Helvetica,sans-Serif" font-size="10.00">LoggerManager::error</text>
</a>
</g>
</g>
<!-- Node2&#45;&gt;Node3 -->
<g id="edge2_Node000002_Node000003" class="edge">
<title>Node2&#45;&gt;Node3</title>
<g id="a_edge2_Node000002_Node000003"><a xlink:title=" ">
<path fill="none" stroke="#63b8ff" d="M274.35,-105.69C319.4,-103.66 384.38,-98.99 440.25,-88.25 457.11,-85.01 475.33,-79.81 490.87,-74.83"/>
<polygon fill="#63b8ff" stroke="#63b8ff" points="491.81,-78.21 500.21,-71.76 489.62,-71.56 491.81,-78.21"/>
</a>
</g>
</g>
<!-- Node5 -->
<g id="Node000005" class="node">
<title>Node5</title>
<g id="a_Node000005"><a xlink:href="class_temperature_controller.html#a3022c7a72adb45a7800d5189eecdac4e" target="_top" xlink:title="Get total number of configured alarms.">
<polygon fill="white" stroke="#666666" points="438,-79.5 326,-79.5 326,-49 438,-49 438,-79.5"/>
<text xml:space="preserve" text-anchor="start" x="334" y="-66" font-family="Helvetica,sans-Serif" font-size="10.00">TemperatureController</text>
<text xml:space="preserve" text-anchor="middle" x="382" y="-54.75" font-family="Helvetica,sans-Serif" font-size="10.00">::getAlarmCount</text>
</a>
</g>
</g>
<!-- Node4&#45;&gt;Node5 -->
<g id="edge4_Node000004_Node000005" class="edge">
<title>Node4&#45;&gt;Node5</title>
<g id="a_edge4_Node000004_Node000005"><a xlink:title=" ">
<path fill="none" stroke="#63b8ff" d="M288.1,-60.81C296.84,-61.14 305.76,-61.47 314.46,-61.79"/>
<polygon fill="#63b8ff" stroke="#63b8ff" points="314.08,-65.28 324.21,-62.15 314.34,-58.28 314.08,-65.28"/>
</a>
</g>
</g>
<!-- Node6 -->
<g id="Node000006" class="node">
<title>Node6</title>
<g id="a_Node000006"><a xlink:href="class_temperature_controller.html#a61ff288cbeaa86dc21c610c778dba64e" target="_top" xlink:title="Get relay control mode.">
<polygon fill="white" stroke="#666666" points="440.25,-30.5 323.75,-30.5 323.75,0 440.25,0 440.25,-30.5"/>
<text xml:space="preserve" text-anchor="start" x="331.75" y="-17" font-family="Helvetica,sans-Serif" font-size="10.00">TemperatureController</text>
<text xml:space="preserve" text-anchor="middle" x="382" y="-5.75" font-family="Helvetica,sans-Serif" font-size="10.00">::getRelayControlMode</text>
</a>
</g>
</g>
<!-- Node4&#45;&gt;Node6 -->
<g id="edge5_Node000004_Node000006" class="edge">
<title>Node4&#45;&gt;Node6</title>
<g id="a_edge5_Node000004_Node000006"><a xlink:title=" ">
<path fill="none" stroke="#63b8ff" d="M277.86,-42.6C289.12,-39.62 300.98,-36.47 312.5,-33.42"/>
<polygon fill="#63b8ff" stroke="#63b8ff" points="313.18,-36.86 321.95,-30.91 311.38,-30.09 313.18,-36.86"/>
</a>
</g>
</g>
<!-- Node6&#45;&gt;Node3 -->
<g id="edge6_Node000006_Node000003" class="edge">
<title>Node6&#45;&gt;Node3</title>
<g id="a_edge6_Node000006_Node000003"><a xlink:title=" ">
<path fill="none" stroke="#63b8ff" d="M432.96,-30.95C450.49,-36.46 470,-42.59 486.86,-47.89"/>
<polygon fill="#63b8ff" stroke="#63b8ff" points="485.48,-51.12 496.07,-50.78 487.58,-44.45 485.48,-51.12"/>
</a>
</g>
</g>
</g>
</svg>
