<?xml version="1.0" encoding="UTF-8" standalone="no"?>
<!DOCTYPE svg PUBLIC "-//W3C//DTD SVG 1.1//EN"
 "http://www.w3.org/Graphics/SVG/1.1/DTD/svg11.dtd">
<!-- Generated by graphviz version 13.1.0 (20250701.0955)
 -->
<!-- Title: Alarm::setConfigKey Pages: 1 -->
<svg width="427pt" height="137pt"
 viewBox="0.00 0.00 427.00 137.00" xmlns="http://www.w3.org/2000/svg" xmlns:xlink="http://www.w3.org/1999/xlink">
<g id="graph0" class="graph" transform="scale(1 1) rotate(0) translate(4 132.5)">
<title>Alarm::setConfigKey</title>
<!-- Node1 -->
<g id="Node000001" class="node">
<title>Node1</title>
<g id="a_Node000001"><a xlink:title="Set the configuration key.">
<polygon fill="#999999" stroke="#666666" points="418.5,-73.88 311.75,-73.88 311.75,-54.62 418.5,-54.62 418.5,-73.88"/>
<text xml:space="preserve" text-anchor="middle" x="365.12" y="-60.38" font-family="Helvetica,sans-Serif" font-size="10.00">Alarm::setConfigKey</text>
</a>
</g>
</g>
<!-- Node2 -->
<g id="Node000002" class="node">
<title>Node2</title>
<g id="a_Node000002"><a xlink:href="class_temperature_controller.html#ac5c3403746d7c850bf7929bf5ee3448a" target="_top" xlink:title="Add alarm configuration.">
<polygon fill="white" stroke="#666666" points="272.38,-128.5 160.38,-128.5 160.38,-98 272.38,-98 272.38,-128.5"/>
<text xml:space="preserve" text-anchor="start" x="168.38" y="-115" font-family="Helvetica,sans-Serif" font-size="10.00">TemperatureController</text>
<text xml:space="preserve" text-anchor="middle" x="216.38" y="-103.75" font-family="Helvetica,sans-Serif" font-size="10.00">::addAlarm</text>
</a>
</g>
</g>
<!-- Node1&#45;&gt;Node2 -->
<g id="edge1_Node000001_Node000002" class="edge">
<title>Node1&#45;&gt;Node2</title>
<g id="a_edge1_Node000001_Node000002"><a xlink:title=" ">
<path fill="none" stroke="#63b8ff" d="M323.2,-77.92C304.95,-84.01 283.35,-91.22 264.43,-97.54"/>
<polygon fill="#63b8ff" stroke="#63b8ff" points="324.26,-81.25 332.64,-74.76 322.04,-74.61 324.26,-81.25"/>
</a>
</g>
</g>
<!-- Node3 -->
<g id="Node000003" class="node">
<title>Node3</title>
<g id="a_Node000003"><a xlink:href="class_temperature_controller.html#aa64384fb8503814b46a7d55f53ccb53a" target="_top" xlink:title="Create new alarm for measurement point.">
<polygon fill="white" stroke="#666666" points="272.38,-79.5 160.38,-79.5 160.38,-49 272.38,-49 272.38,-79.5"/>
<text xml:space="preserve" text-anchor="start" x="168.38" y="-66" font-family="Helvetica,sans-Serif" font-size="10.00">TemperatureController</text>
<text xml:space="preserve" text-anchor="middle" x="216.38" y="-54.75" font-family="Helvetica,sans-Serif" font-size="10.00">::createAlarm</text>
</a>
</g>
</g>
<!-- Node1&#45;&gt;Node3 -->
<g id="edge2_Node000001_Node000003" class="edge">
<title>Node1&#45;&gt;Node3</title>
<g id="a_edge2_Node000001_Node000003"><a xlink:title=" ">
<path fill="none" stroke="#63b8ff" d="M300.09,-64.25C290.91,-64.25 281.53,-64.25 272.55,-64.25"/>
<polygon fill="#63b8ff" stroke="#63b8ff" points="300.05,-67.75 310.05,-64.25 300.05,-60.75 300.05,-67.75"/>
</a>
</g>
</g>
<!-- Node5 -->
<g id="Node000005" class="node">
<title>Node5</title>
<g id="a_Node000005"><a xlink:href="class_temperature_controller.html#ad174e0411bd48422d8e3812fd28a7a0b" target="_top" xlink:title="Ensure all 3 alarm types exist for a measurement point.">
<polygon fill="white" stroke="#666666" points="275.75,-30.5 157,-30.5 157,0 275.75,0 275.75,-30.5"/>
<text xml:space="preserve" text-anchor="start" x="165" y="-17" font-family="Helvetica,sans-Serif" font-size="10.00">TemperatureController</text>
<text xml:space="preserve" text-anchor="middle" x="216.38" y="-5.75" font-family="Helvetica,sans-Serif" font-size="10.00">::ensureAlarmsForPoint</text>
</a>
</g>
</g>
<!-- Node1&#45;&gt;Node5 -->
<g id="edge4_Node000001_Node000005" class="edge">
<title>Node1&#45;&gt;Node5</title>
<g id="a_edge4_Node000001_Node000005"><a xlink:title=" ">
<path fill="none" stroke="#63b8ff" d="M323.2,-50.58C304.95,-44.49 283.35,-37.28 264.43,-30.96"/>
<polygon fill="#63b8ff" stroke="#63b8ff" points="322.04,-53.89 332.64,-53.74 324.26,-47.25 322.04,-53.89"/>
</a>
</g>
</g>
<!-- Node4 -->
<g id="Node000004" class="node">
<title>Node4</title>
<g id="a_Node000004"><a xlink:href="class_temperature_controller.html#a27da8ccc3effea555f440ce3e6f89b08" target="_top" xlink:title="Check measurement point for alarm conditions.">
<polygon fill="white" stroke="#666666" points="121,-79.5 0,-79.5 0,-49 121,-49 121,-79.5"/>
<text xml:space="preserve" text-anchor="start" x="8" y="-66" font-family="Helvetica,sans-Serif" font-size="10.00">TemperatureController</text>
<text xml:space="preserve" text-anchor="middle" x="60.5" y="-54.75" font-family="Helvetica,sans-Serif" font-size="10.00">::_checkPointForAlarms</text>
</a>
</g>
</g>
<!-- Node3&#45;&gt;Node4 -->
<g id="edge3_Node000003_Node000004" class="edge">
<title>Node3&#45;&gt;Node4</title>
<g id="a_edge3_Node000003_Node000004"><a xlink:title=" ">
<path fill="none" stroke="#63b8ff" d="M148.86,-64.25C139.74,-64.25 130.43,-64.25 121.44,-64.25"/>
<polygon fill="#63b8ff" stroke="#63b8ff" points="148.74,-67.75 158.74,-64.25 148.74,-60.75 148.74,-67.75"/>
</a>
</g>
</g>
</g>
</svg>
