<?xml version="1.0" encoding="UTF-8" standalone="no"?>
<!DOCTYPE svg PUBLIC "-//W3C//DTD SVG 1.1//EN"
 "http://www.w3.org/Graphics/SVG/1.1/DTD/svg11.dtd">
<!-- Generated by graphviz version 13.1.0 (20250701.0955)
 -->
<!-- Title: TemperatureController::bindSensorToPointByRom Pages: 1 -->
<svg width="498pt" height="285pt"
 viewBox="0.00 0.00 498.00 285.00" xmlns="http://www.w3.org/2000/svg" xmlns:xlink="http://www.w3.org/1999/xlink">
<g id="graph0" class="graph" transform="scale(1 1) rotate(0) translate(4 281.25)">
<title>TemperatureController::bindSensorToPointByRom</title>
<!-- Node1 -->
<g id="Node000001" class="node">
<title>Node1</title>
<g id="a_Node000001"><a xlink:title=" ">
<polygon fill="#999999" stroke="#666666" points="136.75,-147.88 0,-147.88 0,-117.38 136.75,-117.38 136.75,-147.88"/>
<text xml:space="preserve" text-anchor="start" x="8" y="-134.38" font-family="Helvetica,sans-Serif" font-size="10.00">TemperatureController</text>
<text xml:space="preserve" text-anchor="middle" x="68.38" y="-123.12" font-family="Helvetica,sans-Serif" font-size="10.00">::bindSensorToPointByRom</text>
</a>
</g>
</g>
<!-- Node2 -->
<g id="Node000002" class="node">
<title>Node2</title>
<g id="a_Node000002"><a xlink:href="class_measurement_point.html#a3c3af28d9aabc9e5b9e2e370eaa29ce0" target="_top" xlink:title=" ">
<polygon fill="white" stroke="#666666" points="333.5,-277.25 181,-277.25 181,-258 333.5,-258 333.5,-277.25"/>
<text xml:space="preserve" text-anchor="middle" x="257.25" y="-263.75" font-family="Helvetica,sans-Serif" font-size="10.00">MeasurementPoint::bindSensor</text>
</a>
</g>
</g>
<!-- Node1&#45;&gt;Node2 -->
<g id="edge1_Node000001_Node000002" class="edge">
<title>Node1&#45;&gt;Node2</title>
<g id="a_edge1_Node000001_Node000002"><a xlink:title=" ">
<path fill="none" stroke="#63b8ff" d="M78.64,-148.18C94.55,-173.44 129.54,-223.12 172.75,-248.62 175.73,-250.38 178.85,-251.98 182.07,-253.42"/>
<polygon fill="#63b8ff" stroke="#63b8ff" points="180.63,-256.62 191.22,-257.01 183.19,-250.1 180.63,-256.62"/>
</a>
</g>
</g>
<!-- Node3 -->
<g id="Node000003" class="node">
<title>Node3</title>
<g id="a_Node000003"><a xlink:href="class_temperature_controller.html#ae03306ef9585c7427ef53cd9a5fad12b" target="_top" xlink:title=" ">
<polygon fill="white" stroke="#666666" points="313.25,-239.88 201.25,-239.88 201.25,-209.38 313.25,-209.38 313.25,-239.88"/>
<text xml:space="preserve" text-anchor="start" x="209.25" y="-226.38" font-family="Helvetica,sans-Serif" font-size="10.00">TemperatureController</text>
<text xml:space="preserve" text-anchor="middle" x="257.25" y="-215.12" font-family="Helvetica,sans-Serif" font-size="10.00">::findSensorByRom</text>
</a>
</g>
</g>
<!-- Node1&#45;&gt;Node3 -->
<g id="edge2_Node000001_Node000003" class="edge">
<title>Node1&#45;&gt;Node3</title>
<g id="a_edge2_Node000001_Node000003"><a xlink:title=" ">
<path fill="none" stroke="#63b8ff" d="M89.74,-148.33C109.89,-163.25 142.08,-185.45 172.75,-199.62 178.33,-202.2 184.24,-204.59 190.24,-206.79"/>
<polygon fill="#63b8ff" stroke="#63b8ff" points="189.05,-210.08 199.65,-210.04 191.34,-203.47 189.05,-210.08"/>
</a>
</g>
</g>
<!-- Node4 -->
<g id="Node000004" class="node">
<title>Node4</title>
<g id="a_Node000004"><a xlink:href="class_temperature_controller.html#a494f057c234b4ff7526bde271aec9267" target="_top" xlink:title=" ">
<polygon fill="white" stroke="#666666" points="315.88,-190.88 198.62,-190.88 198.62,-160.38 315.88,-160.38 315.88,-190.88"/>
<text xml:space="preserve" text-anchor="start" x="206.62" y="-177.38" font-family="Helvetica,sans-Serif" font-size="10.00">TemperatureController</text>
<text xml:space="preserve" text-anchor="middle" x="257.25" y="-166.12" font-family="Helvetica,sans-Serif" font-size="10.00">::getMeasurementPoint</text>
</a>
</g>
</g>
<!-- Node1&#45;&gt;Node4 -->
<g id="edge3_Node000001_Node000004" class="edge">
<title>Node1&#45;&gt;Node4</title>
<g id="a_edge3_Node000001_Node000004"><a xlink:title=" ">
<path fill="none" stroke="#63b8ff" d="M137.11,-148.21C153.4,-151.96 170.83,-155.97 187.18,-159.73"/>
<polygon fill="#63b8ff" stroke="#63b8ff" points="186.3,-163.12 196.83,-161.95 187.87,-156.3 186.3,-163.12"/>
</a>
</g>
</g>
<!-- Node7 -->
<g id="Node000007" class="node">
<title>Node7</title>
<g id="a_Node000007"><a xlink:href="class_measurement_point.html#aa3a80d373c7609c7b178bf7353ffdd7a" target="_top" xlink:title=" ">
<polygon fill="white" stroke="#666666" points="329,-142.25 185.5,-142.25 185.5,-123 329,-123 329,-142.25"/>
<text xml:space="preserve" text-anchor="middle" x="257.25" y="-128.75" font-family="Helvetica,sans-Serif" font-size="10.00">MeasurementPoint::getName</text>
</a>
</g>
</g>
<!-- Node1&#45;&gt;Node7 -->
<g id="edge6_Node000001_Node000007" class="edge">
<title>Node1&#45;&gt;Node7</title>
<g id="a_edge6_Node000001_Node000007"><a xlink:title=" ">
<path fill="none" stroke="#63b8ff" d="M137.11,-132.62C149.1,-132.62 161.71,-132.62 174.05,-132.62"/>
<polygon fill="#63b8ff" stroke="#63b8ff" points="173.78,-136.13 183.78,-132.63 173.78,-129.13 173.78,-136.13"/>
</a>
</g>
</g>
<!-- Node8 -->
<g id="Node000008" class="node">
<title>Node8</title>
<g id="a_Node000008"><a xlink:href="class_logger_manager.html#a5c1373ccc47f4112b596fe6f84fbbc21" target="_top" xlink:title=" ">
<polygon fill="white" stroke="#666666" points="309.5,-105.25 205,-105.25 205,-86 309.5,-86 309.5,-105.25"/>
<text xml:space="preserve" text-anchor="middle" x="257.25" y="-91.75" font-family="Helvetica,sans-Serif" font-size="10.00">LoggerManager::info</text>
</a>
</g>
</g>
<!-- Node1&#45;&gt;Node8 -->
<g id="edge7_Node000001_Node000008" class="edge">
<title>Node1&#45;&gt;Node8</title>
<g id="a_edge7_Node000001_Node000008"><a xlink:title=" ">
<path fill="none" stroke="#63b8ff" d="M137.11,-119.21C155.7,-115.53 175.77,-111.56 194.04,-107.94"/>
<polygon fill="#63b8ff" stroke="#63b8ff" points="194.54,-111.41 203.67,-106.03 193.18,-104.54 194.54,-111.41"/>
</a>
</g>
</g>
<!-- Node9 -->
<g id="Node000009" class="node">
<title>Node9</title>
<g id="a_Node000009"><a xlink:href="class_temperature_controller.html#ad3819418f9f301f3f7047ba686a11be0" target="_top" xlink:title=" ">
<polygon fill="white" stroke="#666666" points="341.75,-67.88 172.75,-67.88 172.75,-37.38 341.75,-37.38 341.75,-67.88"/>
<text xml:space="preserve" text-anchor="start" x="180.75" y="-54.38" font-family="Helvetica,sans-Serif" font-size="10.00">TemperatureController</text>
<text xml:space="preserve" text-anchor="middle" x="257.25" y="-43.12" font-family="Helvetica,sans-Serif" font-size="10.00">::unbindSensorFromPointBySensor</text>
</a>
</g>
</g>
<!-- Node1&#45;&gt;Node9 -->
<g id="edge8_Node000001_Node000009" class="edge">
<title>Node1&#45;&gt;Node9</title>
<g id="a_edge8_Node000001_Node000009"><a xlink:title=" ">
<path fill="none" stroke="#63b8ff" d="M94.53,-116.99C115.01,-104.76 144.98,-87.98 172.75,-76.62 176.8,-74.97 181,-73.38 185.27,-71.87"/>
<polygon fill="#63b8ff" stroke="#63b8ff" points="186.17,-75.26 194.53,-68.74 183.94,-68.62 186.17,-75.26"/>
</a>
</g>
</g>
<!-- Node11 -->
<g id="Node000011" class="node">
<title>Node11</title>
<g id="a_Node000011"><a xlink:href="class_logger_manager.html#a0d52b0ff7bff22817e987ad753102854" target="_top" xlink:title=" ">
<polygon fill="white" stroke="#666666" points="318.5,-19.25 196,-19.25 196,0 318.5,0 318.5,-19.25"/>
<text xml:space="preserve" text-anchor="middle" x="257.25" y="-5.75" font-family="Helvetica,sans-Serif" font-size="10.00">LoggerManager::warning</text>
</a>
</g>
</g>
<!-- Node1&#45;&gt;Node11 -->
<g id="edge10_Node000001_Node000011" class="edge">
<title>Node1&#45;&gt;Node11</title>
<g id="a_edge10_Node000001_Node000011"><a xlink:title=" ">
<path fill="none" stroke="#63b8ff" d="M80.14,-117.21C97.07,-94.17 132.22,-51.08 172.75,-28.62 176.66,-26.46 180.81,-24.54 185.08,-22.84"/>
<polygon fill="#63b8ff" stroke="#63b8ff" points="186.18,-26.16 194.46,-19.54 183.86,-19.55 186.18,-26.16"/>
</a>
</g>
</g>
<!-- Node5 -->
<g id="Node000005" class="node">
<title>Node5</title>
<g id="a_Node000005"><a xlink:href="class_temperature_controller.html#ad322a5bab8d5788a586206004248f673" target="_top" xlink:title=" ">
<polygon fill="white" stroke="#666666" points="489.75,-214.88 377.75,-214.88 377.75,-184.38 489.75,-184.38 489.75,-214.88"/>
<text xml:space="preserve" text-anchor="start" x="385.75" y="-201.38" font-family="Helvetica,sans-Serif" font-size="10.00">TemperatureController</text>
<text xml:space="preserve" text-anchor="middle" x="433.75" y="-190.12" font-family="Helvetica,sans-Serif" font-size="10.00">::isDS18B20Address</text>
</a>
</g>
</g>
<!-- Node4&#45;&gt;Node5 -->
<g id="edge4_Node000004_Node000005" class="edge">
<title>Node4&#45;&gt;Node5</title>
<g id="a_edge4_Node000004_Node000005"><a xlink:title=" ">
<path fill="none" stroke="#63b8ff" d="M316.36,-183.62C332.31,-185.81 349.72,-188.21 366.11,-190.46"/>
<polygon fill="#63b8ff" stroke="#63b8ff" points="365.38,-193.89 375.76,-191.79 366.33,-186.96 365.38,-193.89"/>
</a>
</g>
</g>
<!-- Node6 -->
<g id="Node000006" class="node">
<title>Node6</title>
<g id="a_Node000006"><a xlink:href="class_temperature_controller.html#a13125ddcf29cb56d27403818543618af" target="_top" xlink:title=" ">
<polygon fill="white" stroke="#666666" points="489.75,-165.88 377.75,-165.88 377.75,-135.38 489.75,-135.38 489.75,-165.88"/>
<text xml:space="preserve" text-anchor="start" x="385.75" y="-152.38" font-family="Helvetica,sans-Serif" font-size="10.00">TemperatureController</text>
<text xml:space="preserve" text-anchor="middle" x="433.75" y="-141.12" font-family="Helvetica,sans-Serif" font-size="10.00">::isPT1000Address</text>
</a>
</g>
</g>
<!-- Node4&#45;&gt;Node6 -->
<g id="edge5_Node000004_Node000006" class="edge">
<title>Node4&#45;&gt;Node6</title>
<g id="a_edge5_Node000004_Node000006"><a xlink:title=" ">
<path fill="none" stroke="#63b8ff" d="M316.36,-167.3C332.31,-165.02 349.72,-162.52 366.11,-160.17"/>
<polygon fill="#63b8ff" stroke="#63b8ff" points="366.36,-163.67 375.77,-158.79 365.37,-156.74 366.36,-163.67"/>
</a>
</g>
</g>
<!-- Node10 -->
<g id="Node000010" class="node">
<title>Node10</title>
<g id="a_Node000010"><a xlink:href="class_sensor.html#a60ec96ed03660b42681c1bcc99007033" target="_top" xlink:title=" ">
<polygon fill="white" stroke="#666666" points="480,-62.25 387.5,-62.25 387.5,-43 480,-43 480,-62.25"/>
<text xml:space="preserve" text-anchor="middle" x="433.75" y="-48.75" font-family="Helvetica,sans-Serif" font-size="10.00">Sensor::getName</text>
</a>
</g>
</g>
<!-- Node9&#45;&gt;Node10 -->
<g id="edge9_Node000009_Node000010" class="edge">
<title>Node9&#45;&gt;Node10</title>
<g id="a_edge9_Node000009_Node000010"><a xlink:title=" ">
<path fill="none" stroke="#63b8ff" d="M342.18,-52.62C353.59,-52.62 365.08,-52.62 375.86,-52.62"/>
<polygon fill="#63b8ff" stroke="#63b8ff" points="375.73,-56.13 385.73,-52.63 375.73,-49.13 375.73,-56.13"/>
</a>
</g>
</g>
</g>
</svg>
