<?xml version="1.0" encoding="UTF-8" standalone="no"?>
<!DOCTYPE svg PUBLIC "-//W3C//DTD SVG 1.1//EN"
 "http://www.w3.org/Graphics/SVG/1.1/DTD/svg11.dtd">
<!-- Generated by graphviz version 13.1.0 (20250701.0955)
 -->
<!-- Title: IndicatorInterface::setDirection Pages: 1 -->
<svg width="355pt" height="88pt"
 viewBox="0.00 0.00 355.00 88.00" xmlns="http://www.w3.org/2000/svg" xmlns:xlink="http://www.w3.org/1999/xlink">
<g id="graph0" class="graph" transform="scale(1 1) rotate(0) translate(4 83.5)">
<title>IndicatorInterface::setDirection</title>
<!-- Node1 -->
<g id="Node000001" class="node">
<title>Node1</title>
<g id="a_Node000001"><a xlink:title=" ">
<polygon fill="#999999" stroke="#666666" points="91.75,-54.5 0,-54.5 0,-24 91.75,-24 91.75,-54.5"/>
<text xml:space="preserve" text-anchor="start" x="8" y="-41" font-family="Helvetica,sans-Serif" font-size="10.00">IndicatorInterface</text>
<text xml:space="preserve" text-anchor="middle" x="45.88" y="-29.75" font-family="Helvetica,sans-Serif" font-size="10.00">::setDirection</text>
</a>
</g>
</g>
<!-- Node2 -->
<g id="Node000002" class="node">
<title>Node2</title>
<g id="a_Node000002"><a xlink:href="class_indicator_interface.html#a850e37bb28d58c3acad37496fa101e64" target="_top" xlink:title=" ">
<polygon fill="white" stroke="#666666" points="219.5,-79.5 127.75,-79.5 127.75,-49 219.5,-49 219.5,-79.5"/>
<text xml:space="preserve" text-anchor="start" x="135.75" y="-66" font-family="Helvetica,sans-Serif" font-size="10.00">IndicatorInterface</text>
<text xml:space="preserve" text-anchor="middle" x="173.62" y="-54.75" font-family="Helvetica,sans-Serif" font-size="10.00">::_writePCF</text>
</a>
</g>
</g>
<!-- Node1&#45;&gt;Node2 -->
<g id="edge1_Node000001_Node000002" class="edge">
<title>Node1&#45;&gt;Node2</title>
<g id="a_edge1_Node000001_Node000002"><a xlink:title=" ">
<path fill="none" stroke="#63b8ff" d="M91.92,-48.2C99.86,-49.78 108.22,-51.45 116.43,-53.08"/>
<polygon fill="#63b8ff" stroke="#63b8ff" points="115.5,-56.46 125.99,-54.98 116.86,-49.6 115.5,-56.46"/>
</a>
</g>
</g>
<!-- Node4 -->
<g id="Node000004" class="node">
<title>Node4</title>
<g id="a_Node000004"><a xlink:href="class_indicator_interface.html#a0a785a20dd66dbe0077d60e779930140" target="_top" xlink:title=" ">
<polygon fill="white" stroke="#666666" points="219.5,-30.5 127.75,-30.5 127.75,0 219.5,0 219.5,-30.5"/>
<text xml:space="preserve" text-anchor="start" x="135.75" y="-17" font-family="Helvetica,sans-Serif" font-size="10.00">IndicatorInterface</text>
<text xml:space="preserve" text-anchor="middle" x="173.62" y="-5.75" font-family="Helvetica,sans-Serif" font-size="10.00">::isOutput</text>
</a>
</g>
</g>
<!-- Node1&#45;&gt;Node4 -->
<g id="edge3_Node000001_Node000004" class="edge">
<title>Node1&#45;&gt;Node4</title>
<g id="a_edge3_Node000001_Node000004"><a xlink:title=" ">
<path fill="none" stroke="#63b8ff" d="M91.92,-30.65C99.86,-29.14 108.22,-27.54 116.43,-25.97"/>
<polygon fill="#63b8ff" stroke="#63b8ff" points="116.82,-29.46 125.99,-24.15 115.51,-22.59 116.82,-29.46"/>
</a>
</g>
</g>
<!-- Node3 -->
<g id="Node000003" class="node">
<title>Node3</title>
<g id="a_Node000003"><a xlink:href="class_indicator_interface.html#a55da41c64cf3538a8bbb5252dd38b885" target="_top" xlink:title=" ">
<polygon fill="white" stroke="#666666" points="347.25,-79.5 255.5,-79.5 255.5,-49 347.25,-49 347.25,-79.5"/>
<text xml:space="preserve" text-anchor="start" x="263.5" y="-66" font-family="Helvetica,sans-Serif" font-size="10.00">IndicatorInterface</text>
<text xml:space="preserve" text-anchor="middle" x="301.38" y="-54.75" font-family="Helvetica,sans-Serif" font-size="10.00">::_clearInterrupt</text>
</a>
</g>
</g>
<!-- Node2&#45;&gt;Node3 -->
<g id="edge2_Node000002_Node000003" class="edge">
<title>Node2&#45;&gt;Node3</title>
<g id="a_edge2_Node000002_Node000003"><a xlink:title=" ">
<path fill="none" stroke="#63b8ff" d="M219.67,-64.25C227.52,-64.25 235.78,-64.25 243.9,-64.25"/>
<polygon fill="#63b8ff" stroke="#63b8ff" points="243.71,-67.75 253.71,-64.25 243.71,-60.75 243.71,-67.75"/>
</a>
</g>
</g>
</g>
</svg>
