<?xml version="1.0" encoding="UTF-8" standalone="no"?>
<!DOCTYPE svg PUBLIC "-//W3C//DTD SVG 1.1//EN"
 "http://www.w3.org/Graphics/SVG/1.1/DTD/svg11.dtd">
<!-- Generated by graphviz version 13.1.0 (20250701.0955)
 -->
<!-- Title: LoggerManager::createNewLogFile Pages: 1 -->
<svg width="544pt" height="153pt"
 viewBox="0.00 0.00 544.00 153.00" xmlns="http://www.w3.org/2000/svg" xmlns:xlink="http://www.w3.org/1999/xlink">
<g id="graph0" class="graph" transform="scale(1 1) rotate(0) translate(4 149.25)">
<title>LoggerManager::createNewLogFile</title>
<!-- Node1 -->
<g id="Node000001" class="node">
<title>Node1</title>
<g id="a_Node000001"><a xlink:title=" ">
<polygon fill="#999999" stroke="#666666" points="136,-67.88 0,-67.88 0,-37.38 136,-37.38 136,-67.88"/>
<text xml:space="preserve" text-anchor="start" x="8" y="-54.38" font-family="Helvetica,sans-Serif" font-size="10.00">LoggerManager::createNew</text>
<text xml:space="preserve" text-anchor="middle" x="68" y="-43.12" font-family="Helvetica,sans-Serif" font-size="10.00">LogFile</text>
</a>
</g>
</g>
<!-- Node2 -->
<g id="Node000002" class="node">
<title>Node2</title>
<g id="a_Node000002"><a xlink:href="$class_logger_manager.html#aab43f573f73cfe426cfbea04a9fdd3ee" xlink:title=" ">
<polygon fill="white" stroke="#666666" points="317.75,-116.88 186.25,-116.88 186.25,-86.38 317.75,-86.38 317.75,-116.88"/>
<text xml:space="preserve" text-anchor="start" x="194.25" y="-103.38" font-family="Helvetica,sans-Serif" font-size="10.00">LoggerManager::_generate</text>
<text xml:space="preserve" text-anchor="middle" x="252" y="-92.12" font-family="Helvetica,sans-Serif" font-size="10.00">CSVHeader</text>
</a>
</g>
</g>
<!-- Node1&#45;&gt;Node2 -->
<g id="edge1_Node000001_Node000002" class="edge">
<title>Node1&#45;&gt;Node2</title>
<g id="a_edge1_Node000001_Node000002"><a xlink:title=" ">
<path fill="none" stroke="#63b8ff" d="M127.34,-68.33C144.64,-72.99 163.77,-78.14 181.7,-82.97"/>
<polygon fill="#63b8ff" stroke="#63b8ff" points="180.65,-86.31 191.22,-85.53 182.47,-79.55 180.65,-86.31"/>
</a>
</g>
</g>
<!-- Node5 -->
<g id="Node000005" class="node">
<title>Node5</title>
<g id="a_Node000005"><a xlink:href="$class_logger_manager.html#ad3276c1ba03fe7e5b98e33cd207baf1f" xlink:title=" ">
<polygon fill="white" stroke="#666666" points="320.75,-67.88 183.25,-67.88 183.25,-37.38 320.75,-37.38 320.75,-67.88"/>
<text xml:space="preserve" text-anchor="start" x="191.25" y="-54.38" font-family="Helvetica,sans-Serif" font-size="10.00">LoggerManager::_generate</text>
<text xml:space="preserve" text-anchor="middle" x="252" y="-43.12" font-family="Helvetica,sans-Serif" font-size="10.00">LogFileNameWithSequence</text>
</a>
</g>
</g>
<!-- Node1&#45;&gt;Node5 -->
<g id="edge4_Node000001_Node000005" class="edge">
<title>Node1&#45;&gt;Node5</title>
<g id="a_edge4_Node000001_Node000005"><a xlink:title=" ">
<path fill="none" stroke="#63b8ff" d="M136.25,-52.62C147.76,-52.62 159.82,-52.62 171.61,-52.62"/>
<polygon fill="#63b8ff" stroke="#63b8ff" points="171.29,-56.13 181.29,-52.63 171.29,-49.13 171.29,-56.13"/>
</a>
</g>
</g>
<!-- Node7 -->
<g id="Node000007" class="node">
<title>Node7</title>
<g id="a_Node000007"><a xlink:href="$class_logger_manager.html#ae88c89f897e9041a19ec8c68b5375034" xlink:title=" ">
<polygon fill="white" stroke="#666666" points="332,-19.25 172,-19.25 172,0 332,0 332,-19.25"/>
<text xml:space="preserve" text-anchor="middle" x="252" y="-5.75" font-family="Helvetica,sans-Serif" font-size="10.00">LoggerManager::closeCurrentFile</text>
</a>
</g>
</g>
<!-- Node1&#45;&gt;Node7 -->
<g id="edge6_Node000001_Node000007" class="edge">
<title>Node1&#45;&gt;Node7</title>
<g id="a_edge6_Node000001_Node000007"><a xlink:title=" ">
<path fill="none" stroke="#63b8ff" d="M135.48,-36.92C155.77,-32.13 177.81,-26.92 197.15,-22.35"/>
<polygon fill="#63b8ff" stroke="#63b8ff" points="197.79,-25.79 206.72,-20.09 196.18,-18.98 197.79,-25.79"/>
</a>
</g>
</g>
<!-- Node3 -->
<g id="Node000003" class="node">
<title>Node3</title>
<g id="a_Node000003"><a xlink:href="$class_logger_manager.html#a57d230cd2896120a32ecf55a14895d55" xlink:title=" ">
<polygon fill="white" stroke="#666666" points="535.5,-145.25 368,-145.25 368,-126 535.5,-126 535.5,-145.25"/>
<text xml:space="preserve" text-anchor="middle" x="451.75" y="-131.75" font-family="Helvetica,sans-Serif" font-size="10.00">LoggerManager::_escapeCSVField</text>
</a>
</g>
</g>
<!-- Node2&#45;&gt;Node3 -->
<g id="edge2_Node000002_Node000003" class="edge">
<title>Node2&#45;&gt;Node3</title>
<g id="a_edge2_Node000002_Node000003"><a xlink:title=" ">
<path fill="none" stroke="#63b8ff" d="M318.02,-112.8C338.16,-116.27 360.43,-120.1 380.88,-123.61"/>
<polygon fill="#63b8ff" stroke="#63b8ff" points="380.09,-127.03 390.54,-125.27 381.27,-120.13 380.09,-127.03"/>
</a>
</g>
</g>
<!-- Node4 -->
<g id="Node000004" class="node">
<title>Node4</title>
<g id="a_Node000004"><a xlink:href="$class_measurement_point.html#aa3a80d373c7609c7b178bf7353ffdd7a" xlink:title="Get measurement point name.">
<polygon fill="white" stroke="#666666" points="523.5,-108.25 380,-108.25 380,-89 523.5,-89 523.5,-108.25"/>
<text xml:space="preserve" text-anchor="middle" x="451.75" y="-94.75" font-family="Helvetica,sans-Serif" font-size="10.00">MeasurementPoint::getName</text>
</a>
</g>
</g>
<!-- Node2&#45;&gt;Node4 -->
<g id="edge3_Node000002_Node000004" class="edge">
<title>Node2&#45;&gt;Node4</title>
<g id="a_edge3_Node000002_Node000004"><a xlink:title=" ">
<path fill="none" stroke="#63b8ff" d="M318.02,-100.64C334.03,-100.4 351.38,-100.13 368.1,-99.88"/>
<polygon fill="#63b8ff" stroke="#63b8ff" points="368.09,-103.38 378.03,-99.73 367.98,-96.38 368.09,-103.38"/>
</a>
</g>
</g>
<!-- Node6 -->
<g id="Node000006" class="node">
<title>Node6</title>
<g id="a_Node000006"><a xlink:href="$class_logger_manager.html#a3ca0b934265a4d9ce6391bf97dec179a" xlink:title=" ">
<polygon fill="white" stroke="#666666" points="521.62,-67.88 381.88,-67.88 381.88,-37.38 521.62,-37.38 521.62,-67.88"/>
<text xml:space="preserve" text-anchor="start" x="389.88" y="-54.38" font-family="Helvetica,sans-Serif" font-size="10.00">LoggerManager::_getCurrent</text>
<text xml:space="preserve" text-anchor="middle" x="451.75" y="-43.12" font-family="Helvetica,sans-Serif" font-size="10.00">DateString</text>
</a>
</g>
</g>
<!-- Node5&#45;&gt;Node6 -->
<g id="edge5_Node000005_Node000006" class="edge">
<title>Node5&#45;&gt;Node6</title>
<g id="a_edge5_Node000005_Node000006"><a xlink:title=" ">
<path fill="none" stroke="#63b8ff" d="M321.05,-52.62C336.94,-52.62 354,-52.62 370.37,-52.62"/>
<polygon fill="#63b8ff" stroke="#63b8ff" points="370.05,-56.13 380.05,-52.63 370.05,-49.13 370.05,-56.13"/>
</a>
</g>
</g>
</g>
</svg>
