<?xml version="1.0" encoding="UTF-8" standalone="no"?>
<!DOCTYPE svg PUBLIC "-//W3C//DTD SVG 1.1//EN"
 "http://www.w3.org/Graphics/SVG/1.1/DTD/svg11.dtd">
<!-- Generated by graphviz version 13.1.0 (20250701.0955)
 -->
<!-- Title: ConfigManager::getAlarmEventsForPoint Pages: 1 -->
<svg width="567pt" height="114pt"
 viewBox="0.00 0.00 567.00 114.00" xmlns="http://www.w3.org/2000/svg" xmlns:xlink="http://www.w3.org/1999/xlink">
<g id="graph0" class="graph" transform="scale(1 1) rotate(0) translate(4 109.88)">
<title>ConfigManager::getAlarmEventsForPoint</title>
<!-- Node1 -->
<g id="Node000001" class="node">
<title>Node1</title>
<g id="a_Node000001"><a xlink:title="Get alarm events for a specific point within date range.">
<polygon fill="#999999" stroke="#666666" points="157.75,-62.88 0,-62.88 0,-32.38 157.75,-32.38 157.75,-62.88"/>
<text xml:space="preserve" text-anchor="start" x="8" y="-49.38" font-family="Helvetica,sans-Serif" font-size="10.00">ConfigManager::getAlarmEvents</text>
<text xml:space="preserve" text-anchor="middle" x="78.88" y="-38.12" font-family="Helvetica,sans-Serif" font-size="10.00">ForPoint</text>
</a>
</g>
</g>
<!-- Node2 -->
<g id="Node000002" class="node">
<title>Node2</title>
<g id="a_Node000002"><a xlink:href="class_logger_manager.html#a19e6a7d2c3ad2b1d3fa5acb578fb1619" target="_top" xlink:title=" ">
<polygon fill="white" stroke="#666666" points="344.75,-105.88 193.75,-105.88 193.75,-75.38 344.75,-75.38 344.75,-105.88"/>
<text xml:space="preserve" text-anchor="start" x="201.75" y="-92.38" font-family="Helvetica,sans-Serif" font-size="10.00">LoggerManager::getAlarmState</text>
<text xml:space="preserve" text-anchor="middle" x="269.25" y="-81.12" font-family="Helvetica,sans-Serif" font-size="10.00">LogFiles</text>
</a>
</g>
</g>
<!-- Node1&#45;&gt;Node2 -->
<g id="edge1_Node000001_Node000002" class="edge">
<title>Node1&#45;&gt;Node2</title>
<g id="a_edge1_Node000001_Node000002"><a xlink:title=" ">
<path fill="none" stroke="#63b8ff" d="M148.68,-63.33C161.57,-66.27 175.15,-69.37 188.34,-72.39"/>
<polygon fill="#63b8ff" stroke="#63b8ff" points="187.31,-75.74 197.84,-74.55 188.87,-68.91 187.31,-75.74"/>
</a>
</g>
</g>
<!-- Node3 -->
<g id="Node000003" class="node">
<title>Node3</title>
<g id="a_Node000003"><a xlink:href="class_logger_manager.html#a72c969cc82b969c4899dc4d2c8280f0b" target="_top" xlink:title=" ">
<polygon fill="white" stroke="#666666" points="558.75,-38.25 380.75,-38.25 380.75,-19 558.75,-19 558.75,-38.25"/>
<text xml:space="preserve" text-anchor="middle" x="469.75" y="-24.75" font-family="Helvetica,sans-Serif" font-size="10.00">LoggerManager::getLogDirectoryPath</text>
</a>
</g>
</g>
<!-- Node1&#45;&gt;Node3 -->
<g id="edge2_Node000001_Node000003" class="edge">
<title>Node1&#45;&gt;Node3</title>
<g id="a_edge2_Node000001_Node000003"><a xlink:title=" ">
<path fill="none" stroke="#63b8ff" d="M158.1,-43.8C218.9,-40.83 303.65,-36.69 369.28,-33.49"/>
<polygon fill="#63b8ff" stroke="#63b8ff" points="369.14,-37 378.95,-33.01 368.79,-30 369.14,-37"/>
</a>
</g>
</g>
<!-- Node4 -->
<g id="Node000004" class="node">
<title>Node4</title>
<g id="a_Node000004"><a xlink:href="class_logger_manager.html#a92719154d919a9bd45a8ea192e70dfcc" target="_top" xlink:title=" ">
<polygon fill="white" stroke="#666666" points="339.88,-19.25 198.62,-19.25 198.62,0 339.88,0 339.88,-19.25"/>
<text xml:space="preserve" text-anchor="middle" x="269.25" y="-5.75" font-family="Helvetica,sans-Serif" font-size="10.00">LoggerManager::openLogFile</text>
</a>
</g>
</g>
<!-- Node1&#45;&gt;Node4 -->
<g id="edge3_Node000001_Node000004" class="edge">
<title>Node1&#45;&gt;Node4</title>
<g id="a_edge3_Node000001_Node000004"><a xlink:title=" ">
<path fill="none" stroke="#63b8ff" d="M157.85,-31.89C174.31,-28.58 191.44,-25.12 207.16,-21.95"/>
<polygon fill="#63b8ff" stroke="#63b8ff" points="207.74,-25.4 216.85,-19.99 206.35,-18.54 207.74,-25.4"/>
</a>
</g>
</g>
<!-- Node4&#45;&gt;Node3 -->
<g id="edge4_Node000004_Node000003" class="edge">
<title>Node4&#45;&gt;Node3</title>
<g id="a_edge4_Node000004_Node000003"><a xlink:title=" ">
<path fill="none" stroke="#63b8ff" d="M340.23,-16.32C349.54,-17.21 359.22,-18.14 368.91,-19.07"/>
<polygon fill="#63b8ff" stroke="#63b8ff" points="368.48,-22.54 378.76,-20.01 369.14,-15.57 368.48,-22.54"/>
</a>
</g>
</g>
</g>
</svg>
