<?xml version="1.0" encoding="UTF-8" standalone="no"?>
<!DOCTYPE svg PUBLIC "-//W3C//DTD SVG 1.1//EN"
 "http://www.w3.org/Graphics/SVG/1.1/DTD/svg11.dtd">
<!-- Generated by graphviz version 13.1.0 (20250701.0955)
 -->
<!-- Title: LoggerManager::_incrementSequenceNumber Pages: 1 -->
<svg width="327pt" height="64pt"
 viewBox="0.00 0.00 327.00 64.00" xmlns="http://www.w3.org/2000/svg" xmlns:xlink="http://www.w3.org/1999/xlink">
<g id="graph0" class="graph" transform="scale(1 1) rotate(0) translate(4 60.25)">
<title>LoggerManager::_incrementSequenceNumber</title>
<!-- Node1 -->
<g id="Node000001" class="node">
<title>Node1</title>
<g id="a_Node000001"><a xlink:title=" ">
<polygon fill="#999999" stroke="#666666" points="319.25,-42.88 182.5,-42.88 182.5,-12.37 319.25,-12.37 319.25,-42.88"/>
<text xml:space="preserve" text-anchor="start" x="190.5" y="-29.38" font-family="Helvetica,sans-Serif" font-size="10.00">LoggerManager::_increment</text>
<text xml:space="preserve" text-anchor="middle" x="250.88" y="-18.12" font-family="Helvetica,sans-Serif" font-size="10.00">SequenceNumber</text>
</a>
</g>
</g>
<!-- Node2 -->
<g id="Node000002" class="node">
<title>Node2</title>
<g id="a_Node000002"><a xlink:href="$class_logger_manager.html#a32e39dd8df48f64677732ede4066f01d" xlink:title=" ">
<polygon fill="white" stroke="#666666" points="146.5,-56.25 0,-56.25 0,-37 146.5,-37 146.5,-56.25"/>
<text xml:space="preserve" text-anchor="middle" x="73.25" y="-42.75" font-family="Helvetica,sans-Serif" font-size="10.00">LoggerManager::forceNewFile</text>
</a>
</g>
</g>
<!-- Node1&#45;&gt;Node2 -->
<g id="edge1_Node000001_Node000002" class="edge">
<title>Node1&#45;&gt;Node2</title>
<g id="a_edge1_Node000001_Node000002"><a xlink:title=" ">
<path fill="none" stroke="#63b8ff" d="M170.96,-36.16C162.92,-37.03 154.78,-37.91 146.82,-38.77"/>
<polygon fill="#63b8ff" stroke="#63b8ff" points="171.15,-39.66 180.72,-35.11 170.4,-32.7 171.15,-39.66"/>
</a>
</g>
</g>
<!-- Node3 -->
<g id="Node000003" class="node">
<title>Node3</title>
<g id="a_Node000003"><a xlink:href="$class_logger_manager.html#a830c86f1f27d3799eab1de908fc6b647" xlink:title=" ">
<polygon fill="white" stroke="#666666" points="132.25,-19.25 14.25,-19.25 14.25,0 132.25,0 132.25,-19.25"/>
<text xml:space="preserve" text-anchor="middle" x="73.25" y="-5.75" font-family="Helvetica,sans-Serif" font-size="10.00">LoggerManager::update</text>
</a>
</g>
</g>
<!-- Node1&#45;&gt;Node3 -->
<g id="edge2_Node000001_Node000003" class="edge">
<title>Node1&#45;&gt;Node3</title>
<g id="a_edge2_Node000001_Node000003"><a xlink:title=" ">
<path fill="none" stroke="#63b8ff" d="M171,-19.54C158.12,-18.22 144.99,-16.87 132.71,-15.62"/>
<polygon fill="#63b8ff" stroke="#63b8ff" points="170.41,-23 180.72,-20.54 171.13,-16.04 170.41,-23"/>
</a>
</g>
</g>
</g>
</svg>
