<?xml version="1.0" encoding="UTF-8" standalone="no"?>
<!DOCTYPE svg PUBLIC "-//W3C//DTD SVG 1.1//EN"
 "http://www.w3.org/Graphics/SVG/1.1/DTD/svg11.dtd">
<!-- Generated by graphviz version 13.1.0 (20250701.0955)
 -->
<!-- Title: ConfigManager::sensorAPI Pages: 1 -->
<svg width="513pt" height="359pt"
 viewBox="0.00 0.00 513.00 359.00" xmlns="http://www.w3.org/2000/svg" xmlns:xlink="http://www.w3.org/1999/xlink">
<g id="graph0" class="graph" transform="scale(1 1) rotate(0) translate(4 355.25)">
<title>ConfigManager::sensorAPI</title>
<!-- Node1 -->
<g id="Node000001" class="node">
<title>Node1</title>
<g id="a_Node000001"><a xlink:title="Setup sensor&#45;related API endpoints.">
<polygon fill="#999999" stroke="#666666" points="133.75,-313.25 0,-313.25 0,-294 133.75,-294 133.75,-313.25"/>
<text xml:space="preserve" text-anchor="middle" x="66.88" y="-299.75" font-family="Helvetica,sans-Serif" font-size="10.00">ConfigManager::sensorAPI</text>
</a>
</g>
</g>
<!-- Node2 -->
<g id="Node000002" class="node">
<title>Node2</title>
<g id="a_Node000002"><a xlink:href="class_sensor.html#a9f793cde2918130fbc77dad1aebfe53a" target="_top" xlink:title=" ">
<polygon fill="white" stroke="#666666" points="501,-351.25 346.25,-351.25 346.25,-332 501,-332 501,-351.25"/>
<text xml:space="preserve" text-anchor="middle" x="423.62" y="-337.75" font-family="Helvetica,sans-Serif" font-size="10.00">Sensor::getDS18B20RomString</text>
</a>
</g>
</g>
<!-- Node1&#45;&gt;Node2 -->
<g id="edge1_Node000001_Node000002" class="edge">
<title>Node1&#45;&gt;Node2</title>
<g id="a_edge1_Node000001_Node000002"><a xlink:title=" ">
<path fill="none" stroke="#63b8ff" d="M134.13,-313.14C145.98,-314.73 158.22,-316.29 169.75,-317.62 224.4,-323.97 285.83,-329.83 334.46,-334.17"/>
<polygon fill="#63b8ff" stroke="#63b8ff" points="334.13,-337.66 344.4,-335.05 334.74,-330.68 334.13,-337.66"/>
</a>
</g>
</g>
<!-- Node3 -->
<g id="Node000003" class="node">
<title>Node3</title>
<g id="a_Node000003"><a xlink:href="class_sensor.html#a6f57825e90b759ccdb9fe07b3a36953d" target="_top" xlink:title=" ">
<polygon fill="white" stroke="#666666" points="504.75,-314.25 342.5,-314.25 342.5,-295 504.75,-295 504.75,-314.25"/>
<text xml:space="preserve" text-anchor="middle" x="423.62" y="-300.75" font-family="Helvetica,sans-Serif" font-size="10.00">Sensor::getPT1000ChipSelectPin</text>
</a>
</g>
</g>
<!-- Node1&#45;&gt;Node3 -->
<g id="edge2_Node000001_Node000003" class="edge">
<title>Node1&#45;&gt;Node3</title>
<g id="a_edge2_Node000001_Node000003"><a xlink:title=" ">
<path fill="none" stroke="#63b8ff" d="M134.18,-303.81C189.59,-303.97 269.2,-304.19 330.75,-304.37"/>
<polygon fill="#63b8ff" stroke="#63b8ff" points="330.5,-307.87 340.51,-304.39 330.52,-300.87 330.5,-307.87"/>
</a>
</g>
</g>
<!-- Node4 -->
<g id="Node000004" class="node">
<title>Node4</title>
<g id="a_Node000004"><a xlink:href="class_config_manager.html#a55b79da91c57039c483ddf5fceabbd64" target="_top" xlink:title="Save measurement points configuration to file.">
<polygon fill="white" stroke="#666666" points="306.5,-203.88 169.75,-203.88 169.75,-173.38 306.5,-173.38 306.5,-203.88"/>
<text xml:space="preserve" text-anchor="start" x="177.75" y="-190.38" font-family="Helvetica,sans-Serif" font-size="10.00">ConfigManager::savePoints</text>
<text xml:space="preserve" text-anchor="middle" x="238.12" y="-179.12" font-family="Helvetica,sans-Serif" font-size="10.00">Config</text>
</a>
</g>
</g>
<!-- Node1&#45;&gt;Node4 -->
<g id="edge3_Node000001_Node000004" class="edge">
<title>Node1&#45;&gt;Node4</title>
<g id="a_edge3_Node000001_Node000004"><a xlink:title=" ">
<path fill="none" stroke="#63b8ff" d="M82.6,-293.62C109.69,-275.21 168.04,-235.57 204.77,-210.61"/>
<polygon fill="#63b8ff" stroke="#63b8ff" points="206.51,-213.66 212.81,-205.14 202.58,-207.87 206.51,-213.66"/>
</a>
</g>
</g>
<!-- Node4&#45;&gt;Node2 -->
<g id="edge6_Node000004_Node000002" class="edge">
<title>Node4&#45;&gt;Node2</title>
<g id="a_edge6_Node000004_Node000002"><a xlink:title=" ">
<path fill="none" stroke="#63b8ff" d="M246.33,-203.99C260.48,-232.42 294.76,-293.08 342.5,-323.62 344.35,-324.81 346.26,-325.91 348.23,-326.94"/>
<polygon fill="#63b8ff" stroke="#63b8ff" points="346.49,-330 357.05,-330.91 349.36,-323.62 346.49,-330"/>
</a>
</g>
</g>
<!-- Node4&#45;&gt;Node3 -->
<g id="edge10_Node000004_Node000003" class="edge">
<title>Node4&#45;&gt;Node3</title>
<g id="a_edge10_Node000004_Node000003"><a xlink:title=" ">
<path fill="none" stroke="#63b8ff" d="M251.02,-204.01C268.62,-225.65 303.7,-264.77 342.5,-285.62 346.11,-287.57 349.92,-289.31 353.84,-290.88"/>
<polygon fill="#63b8ff" stroke="#63b8ff" points="352.37,-294.07 362.97,-294.12 354.72,-287.48 352.37,-294.07"/>
</a>
</g>
</g>
<!-- Node5 -->
<g id="Node000005" class="node">
<title>Node5</title>
<g id="a_Node000005"><a xlink:href="class_measurement_point.html#a7b74a18d86e0e545264a774aa2c31cad" target="_top" xlink:title="Get measurement point address.">
<polygon fill="white" stroke="#666666" points="500.25,-19.25 347,-19.25 347,0 500.25,0 500.25,-19.25"/>
<text xml:space="preserve" text-anchor="middle" x="423.62" y="-5.75" font-family="Helvetica,sans-Serif" font-size="10.00">MeasurementPoint::getAddress</text>
</a>
</g>
</g>
<!-- Node4&#45;&gt;Node5 -->
<g id="edge4_Node000004_Node000005" class="edge">
<title>Node4&#45;&gt;Node5</title>
<g id="a_edge4_Node000004_Node000005"><a xlink:title=" ">
<path fill="none" stroke="#63b8ff" d="M244.52,-172.89C256.57,-140.26 288.88,-65.14 342.5,-27.62 344.07,-26.53 345.69,-25.5 347.36,-24.53"/>
<polygon fill="#63b8ff" stroke="#63b8ff" points="348.54,-27.85 355.97,-20.3 345.46,-21.56 348.54,-27.85"/>
</a>
</g>
</g>
<!-- Node6 -->
<g id="Node000006" class="node">
<title>Node6</title>
<g id="a_Node000006"><a xlink:href="class_measurement_point.html#a81c7ae93a9314344967d0f31c6fefe2f" target="_top" xlink:title="Get pointer to bound sensor.">
<polygon fill="white" stroke="#666666" points="496.12,-276.88 351.12,-276.88 351.12,-246.38 496.12,-246.38 496.12,-276.88"/>
<text xml:space="preserve" text-anchor="start" x="359.12" y="-263.38" font-family="Helvetica,sans-Serif" font-size="10.00">MeasurementPoint::getBound</text>
<text xml:space="preserve" text-anchor="middle" x="423.62" y="-252.12" font-family="Helvetica,sans-Serif" font-size="10.00">Sensor</text>
</a>
</g>
</g>
<!-- Node4&#45;&gt;Node6 -->
<g id="edge5_Node000004_Node000006" class="edge">
<title>Node4&#45;&gt;Node6</title>
<g id="a_edge5_Node000004_Node000006"><a xlink:title=" ">
<path fill="none" stroke="#63b8ff" d="M269.88,-204.21C290.2,-214.18 317.58,-227 342.5,-236.62 347.5,-238.56 352.73,-240.45 358,-242.28"/>
<polygon fill="#63b8ff" stroke="#63b8ff" points="356.81,-245.57 367.41,-245.44 359.04,-238.94 356.81,-245.57"/>
</a>
</g>
</g>
<!-- Node7 -->
<g id="Node000007" class="node">
<title>Node7</title>
<g id="a_Node000007"><a xlink:href="class_measurement_point.html#a71d6d440240f110cbd80c58bbc47aff6" target="_top" xlink:title="Get high alarm threshold.">
<polygon fill="white" stroke="#666666" points="492.38,-227.88 354.88,-227.88 354.88,-197.38 492.38,-197.38 492.38,-227.88"/>
<text xml:space="preserve" text-anchor="start" x="362.88" y="-214.38" font-family="Helvetica,sans-Serif" font-size="10.00">MeasurementPoint::getHigh</text>
<text xml:space="preserve" text-anchor="middle" x="423.62" y="-203.12" font-family="Helvetica,sans-Serif" font-size="10.00">AlarmThreshold</text>
</a>
</g>
</g>
<!-- Node4&#45;&gt;Node7 -->
<g id="edge7_Node000004_Node000007" class="edge">
<title>Node4&#45;&gt;Node7</title>
<g id="a_edge7_Node000004_Node000007"><a xlink:title=" ">
<path fill="none" stroke="#63b8ff" d="M306.93,-197.49C318.81,-199.05 331.27,-200.68 343.43,-202.27"/>
<polygon fill="#63b8ff" stroke="#63b8ff" points="342.61,-205.69 352.98,-203.52 343.52,-198.75 342.61,-205.69"/>
</a>
</g>
</g>
<!-- Node8 -->
<g id="Node000008" class="node">
<title>Node8</title>
<g id="a_Node000008"><a xlink:href="class_measurement_point.html#a6e538e117d9e22c6998b56519a51d6ba" target="_top" xlink:title="Get low alarm threshold.">
<polygon fill="white" stroke="#666666" points="491.25,-178.88 356,-178.88 356,-148.38 491.25,-148.38 491.25,-178.88"/>
<text xml:space="preserve" text-anchor="start" x="364" y="-165.38" font-family="Helvetica,sans-Serif" font-size="10.00">MeasurementPoint::getLow</text>
<text xml:space="preserve" text-anchor="middle" x="423.62" y="-154.12" font-family="Helvetica,sans-Serif" font-size="10.00">AlarmThreshold</text>
</a>
</g>
</g>
<!-- Node4&#45;&gt;Node8 -->
<g id="edge8_Node000004_Node000008" class="edge">
<title>Node4&#45;&gt;Node8</title>
<g id="a_edge8_Node000004_Node000008"><a xlink:title=" ">
<path fill="none" stroke="#63b8ff" d="M306.93,-179.39C319.13,-177.73 331.93,-175.98 344.39,-174.28"/>
<polygon fill="#63b8ff" stroke="#63b8ff" points="344.77,-177.76 354.21,-172.95 343.83,-170.83 344.77,-177.76"/>
</a>
</g>
</g>
<!-- Node9 -->
<g id="Node000009" class="node">
<title>Node9</title>
<g id="a_Node000009"><a xlink:href="class_measurement_point.html#aa3a80d373c7609c7b178bf7353ffdd7a" target="_top" xlink:title="Get measurement point name.">
<polygon fill="white" stroke="#666666" points="495.38,-130.25 351.88,-130.25 351.88,-111 495.38,-111 495.38,-130.25"/>
<text xml:space="preserve" text-anchor="middle" x="423.62" y="-116.75" font-family="Helvetica,sans-Serif" font-size="10.00">MeasurementPoint::getName</text>
</a>
</g>
</g>
<!-- Node4&#45;&gt;Node9 -->
<g id="edge9_Node000004_Node000009" class="edge">
<title>Node4&#45;&gt;Node9</title>
<g id="a_edge9_Node000004_Node000009"><a xlink:title=" ">
<path fill="none" stroke="#63b8ff" d="M267.84,-173.01C288.21,-162.43 316.45,-148.77 342.5,-139.62 348.72,-137.44 355.3,-135.43 361.91,-133.59"/>
<polygon fill="#63b8ff" stroke="#63b8ff" points="362.76,-136.99 371.54,-131.06 360.98,-130.22 362.76,-136.99"/>
</a>
</g>
</g>
<!-- Node10 -->
<g id="Node000010" class="node">
<title>Node10</title>
<g id="a_Node000010"><a xlink:href="class_sensor.html#a0f6f095e7cfdfffb2a395dfdae7cfa53" target="_top" xlink:title=" ">
<polygon fill="white" stroke="#666666" points="467.25,-93.25 380,-93.25 380,-74 467.25,-74 467.25,-93.25"/>
<text xml:space="preserve" text-anchor="middle" x="423.62" y="-79.75" font-family="Helvetica,sans-Serif" font-size="10.00">Sensor::getType</text>
</a>
</g>
</g>
<!-- Node4&#45;&gt;Node10 -->
<g id="edge11_Node000004_Node000010" class="edge">
<title>Node4&#45;&gt;Node10</title>
<g id="a_edge11_Node000004_Node000010"><a xlink:title=" ">
<path fill="none" stroke="#63b8ff" d="M252.89,-173.15C271.32,-153.43 305.93,-119.76 342.5,-101.62 350.67,-97.57 359.77,-94.42 368.81,-91.97"/>
<polygon fill="#63b8ff" stroke="#63b8ff" points="369.38,-95.44 378.28,-89.68 367.73,-88.63 369.38,-95.44"/>
</a>
</g>
</g>
<!-- Node11 -->
<g id="Node000011" class="node">
<title>Node11</title>
<g id="a_Node000011"><a xlink:href="class_logger_manager.html#a5c1373ccc47f4112b596fe6f84fbbc21" target="_top" xlink:title="Log informational message (static convenience method)">
<polygon fill="white" stroke="#666666" points="475.88,-56.25 371.38,-56.25 371.38,-37 475.88,-37 475.88,-56.25"/>
<text xml:space="preserve" text-anchor="middle" x="423.62" y="-42.75" font-family="Helvetica,sans-Serif" font-size="10.00">LoggerManager::info</text>
</a>
</g>
</g>
<!-- Node4&#45;&gt;Node11 -->
<g id="edge12_Node000004_Node000011" class="edge">
<title>Node4&#45;&gt;Node11</title>
<g id="a_edge12_Node000004_Node000011"><a xlink:title=" ">
<path fill="none" stroke="#63b8ff" d="M247.37,-173.26C262.49,-146.67 297.3,-92.24 342.5,-64.62 348.03,-61.24 354.13,-58.5 360.42,-56.26"/>
<polygon fill="#63b8ff" stroke="#63b8ff" points="361.13,-59.71 369.66,-53.42 359.07,-53.02 361.13,-59.71"/>
</a>
</g>
</g>
</g>
</svg>
