<?xml version="1.0" encoding="UTF-8" standalone="no"?>
<!DOCTYPE svg PUBLIC "-//W3C//DTD SVG 1.1//EN"
 "http://www.w3.org/Graphics/SVG/1.1/DTD/svg11.dtd">
<!-- Generated by graphviz version 13.1.0 (20250701.0955)
 -->
<!-- Title: TemperatureController::applyAcknowledgedDelaysToAlarms Pages: 1 -->
<svg width="354pt" height="186pt"
 viewBox="0.00 0.00 354.00 186.00" xmlns="http://www.w3.org/2000/svg" xmlns:xlink="http://www.w3.org/1999/xlink">
<g id="graph0" class="graph" transform="scale(1 1) rotate(0) translate(4 181.5)">
<title>TemperatureController::applyAcknowledgedDelaysToAlarms</title>
<!-- Node1 -->
<g id="Node000001" class="node">
<title>Node1</title>
<g id="a_Node000001"><a xlink:title="Apply acknowledged delays to existing alarms.">
<polygon fill="#999999" stroke="#666666" points="345.5,-109.12 195.25,-109.12 195.25,-67.38 345.5,-67.38 345.5,-109.12"/>
<text xml:space="preserve" text-anchor="start" x="203.25" y="-95.62" font-family="Helvetica,sans-Serif" font-size="10.00">TemperatureController</text>
<text xml:space="preserve" text-anchor="start" x="203.25" y="-84.38" font-family="Helvetica,sans-Serif" font-size="10.00">::applyAcknowledgedDelaysTo</text>
<text xml:space="preserve" text-anchor="middle" x="270.38" y="-73.12" font-family="Helvetica,sans-Serif" font-size="10.00">Alarms</text>
</a>
</g>
</g>
<!-- Node2 -->
<g id="Node000002" class="node">
<title>Node2</title>
<g id="a_Node000002"><a xlink:href="$class_temperature_controller.html#a1cf2a33257d4f089a304859b975663c3" xlink:title="Set acknowledge delay for critical alarms.">
<polygon fill="white" stroke="#666666" points="157.38,-177.5 1.88,-177.5 1.88,-147 157.38,-147 157.38,-177.5"/>
<text xml:space="preserve" text-anchor="start" x="9.88" y="-164" font-family="Helvetica,sans-Serif" font-size="10.00">TemperatureController</text>
<text xml:space="preserve" text-anchor="middle" x="79.62" y="-152.75" font-family="Helvetica,sans-Serif" font-size="10.00">::setAcknowledgedDelayCritical</text>
</a>
</g>
</g>
<!-- Node1&#45;&gt;Node2 -->
<g id="edge1_Node000001_Node000002" class="edge">
<title>Node1&#45;&gt;Node2</title>
<g id="a_edge1_Node000001_Node000002"><a xlink:title=" ">
<path fill="none" stroke="#63b8ff" d="M214.53,-114.09C197.04,-121.94 177.48,-130.32 159.25,-137.25 150.81,-140.46 141.77,-143.6 132.93,-146.51"/>
<polygon fill="#63b8ff" stroke="#63b8ff" points="215.53,-117.48 223.19,-110.16 212.64,-111.1 215.53,-117.48"/>
</a>
</g>
</g>
<!-- Node3 -->
<g id="Node000003" class="node">
<title>Node3</title>
<g id="a_Node000003"><a xlink:href="$class_temperature_controller.html#a365ac98348ce12de8938a687744c9f6c" xlink:title="Set acknowledge delay for high priority alarms.">
<polygon fill="white" stroke="#666666" points="152.12,-128.5 7.12,-128.5 7.12,-98 152.12,-98 152.12,-128.5"/>
<text xml:space="preserve" text-anchor="start" x="15.12" y="-115" font-family="Helvetica,sans-Serif" font-size="10.00">TemperatureController</text>
<text xml:space="preserve" text-anchor="middle" x="79.62" y="-103.75" font-family="Helvetica,sans-Serif" font-size="10.00">::setAcknowledgedDelayHigh</text>
</a>
</g>
</g>
<!-- Node1&#45;&gt;Node3 -->
<g id="edge2_Node000001_Node000003" class="edge">
<title>Node1&#45;&gt;Node3</title>
<g id="a_edge2_Node000001_Node000003"><a xlink:title=" ">
<path fill="none" stroke="#63b8ff" d="M183.59,-99.61C173.2,-100.99 162.68,-102.38 152.53,-103.73"/>
<polygon fill="#63b8ff" stroke="#63b8ff" points="183.82,-103.11 193.28,-98.33 182.9,-96.17 183.82,-103.11"/>
</a>
</g>
</g>
<!-- Node4 -->
<g id="Node000004" class="node">
<title>Node4</title>
<g id="a_Node000004"><a xlink:href="$class_temperature_controller.html#a87eeba5b5182d712bd9c361f37b933a8" xlink:title="Set acknowledge delay for low priority alarms.">
<polygon fill="white" stroke="#666666" points="151,-79.5 8.25,-79.5 8.25,-49 151,-49 151,-79.5"/>
<text xml:space="preserve" text-anchor="start" x="16.25" y="-66" font-family="Helvetica,sans-Serif" font-size="10.00">TemperatureController</text>
<text xml:space="preserve" text-anchor="middle" x="79.62" y="-54.75" font-family="Helvetica,sans-Serif" font-size="10.00">::setAcknowledgedDelayLow</text>
</a>
</g>
</g>
<!-- Node1&#45;&gt;Node4 -->
<g id="edge3_Node000001_Node000004" class="edge">
<title>Node1&#45;&gt;Node4</title>
<g id="a_edge3_Node000001_Node000004"><a xlink:title=" ">
<path fill="none" stroke="#63b8ff" d="M183.6,-77.34C172.79,-75.97 161.83,-74.58 151.3,-73.24"/>
<polygon fill="#63b8ff" stroke="#63b8ff" points="182.91,-80.78 193.27,-78.57 183.8,-73.84 182.91,-80.78"/>
</a>
</g>
</g>
<!-- Node5 -->
<g id="Node000005" class="node">
<title>Node5</title>
<g id="a_Node000005"><a xlink:href="$class_temperature_controller.html#a148e97ba76cb6bf3d3f45ddefe715320" xlink:title="Set acknowledge delay for medium priority alarms.">
<polygon fill="white" stroke="#666666" points="159.25,-30.5 0,-30.5 0,0 159.25,0 159.25,-30.5"/>
<text xml:space="preserve" text-anchor="start" x="8" y="-17" font-family="Helvetica,sans-Serif" font-size="10.00">TemperatureController</text>
<text xml:space="preserve" text-anchor="middle" x="79.62" y="-5.75" font-family="Helvetica,sans-Serif" font-size="10.00">::setAcknowledgedDelayMedium</text>
</a>
</g>
</g>
<!-- Node1&#45;&gt;Node5 -->
<g id="edge4_Node000001_Node000005" class="edge">
<title>Node1&#45;&gt;Node5</title>
<g id="a_edge4_Node000001_Node000005"><a xlink:title=" ">
<path fill="none" stroke="#63b8ff" d="M213.06,-62.37C195.93,-54.86 176.95,-46.9 159.25,-40.25 150.67,-37.03 141.46,-33.85 132.48,-30.9"/>
<polygon fill="#63b8ff" stroke="#63b8ff" points="211.52,-65.52 222.08,-66.36 214.35,-59.12 211.52,-65.52"/>
</a>
</g>
</g>
</g>
</svg>
