<?xml version="1.0" encoding="UTF-8" standalone="no"?>
<!DOCTYPE svg PUBLIC "-//W3C//DTD SVG 1.1//EN"
 "http://www.w3.org/Graphics/SVG/1.1/DTD/svg11.dtd">
<!-- Generated by graphviz version 13.1.0 (20250701.0955)
 -->
<!-- Title: Alarm::acknowledge Pages: 1 -->
<svg width="448pt" height="224pt"
 viewBox="0.00 0.00 448.00 224.00" xmlns="http://www.w3.org/2000/svg" xmlns:xlink="http://www.w3.org/1999/xlink">
<g id="graph0" class="graph" transform="scale(1 1) rotate(0) translate(4 219.88)">
<title>Alarm::acknowledge</title>
<!-- Node1 -->
<g id="Node000001" class="node">
<title>Node1</title>
<g id="a_Node000001"><a xlink:title=" ">
<polygon fill="#999999" stroke="#666666" points="104.5,-122.88 0,-122.88 0,-103.62 104.5,-103.62 104.5,-122.88"/>
<text xml:space="preserve" text-anchor="middle" x="52.25" y="-109.38" font-family="Helvetica,sans-Serif" font-size="10.00">Alarm::acknowledge</text>
</a>
</g>
</g>
<!-- Node2 -->
<g id="Node000002" class="node">
<title>Node2</title>
<g id="a_Node000002"><a xlink:href="class_alarm.html#a052a73879f5cd039f6f7cb7ce02e6a9d" target="_top" xlink:title=" ">
<polygon fill="white" stroke="#666666" points="276.88,-215.88 154.38,-215.88 154.38,-196.62 276.88,-196.62 276.88,-215.88"/>
<text xml:space="preserve" text-anchor="middle" x="215.62" y="-202.38" font-family="Helvetica,sans-Serif" font-size="10.00">Alarm::_getPriorityString</text>
</a>
</g>
</g>
<!-- Node1&#45;&gt;Node2 -->
<g id="edge1_Node000001_Node000002" class="edge">
<title>Node1&#45;&gt;Node2</title>
<g id="a_edge1_Node000001_Node000002"><a xlink:title=" ">
<path fill="none" stroke="#63b8ff" d="M61.84,-123.2C76.36,-139.38 107.45,-171.29 140.5,-188.25 143.37,-189.72 146.37,-191.08 149.44,-192.33"/>
<polygon fill="#63b8ff" stroke="#63b8ff" points="148.09,-195.56 158.68,-195.65 150.46,-188.97 148.09,-195.56"/>
</a>
</g>
</g>
<!-- Node3 -->
<g id="Node000003" class="node">
<title>Node3</title>
<g id="a_Node000003"><a xlink:href="class_alarm.html#a11b2da560dbc8653fa9dec671a78b980" target="_top" xlink:title=" ">
<polygon fill="white" stroke="#666666" points="276.5,-178.88 154.75,-178.88 154.75,-159.62 276.5,-159.62 276.5,-178.88"/>
<text xml:space="preserve" text-anchor="middle" x="215.62" y="-165.38" font-family="Helvetica,sans-Serif" font-size="10.00">Alarm::_updateMessage</text>
</a>
</g>
</g>
<!-- Node1&#45;&gt;Node3 -->
<g id="edge2_Node000001_Node000003" class="edge">
<title>Node1&#45;&gt;Node3</title>
<g id="a_edge2_Node000001_Node000003"><a xlink:title=" ">
<path fill="none" stroke="#63b8ff" d="M73.66,-123.34C91.09,-131.66 117.01,-143.35 140.5,-151.25 145.78,-153.03 151.32,-154.7 156.9,-156.27"/>
<polygon fill="#63b8ff" stroke="#63b8ff" points="155.59,-159.54 166.15,-158.74 157.4,-152.78 155.59,-159.54"/>
</a>
</g>
</g>
<!-- Node5 -->
<g id="Node000005" class="node">
<title>Node5</title>
<g id="a_Node000005"><a xlink:href="class_alarm.html#a5f0ead4dbd06aa64bd316d99dc587302" target="_top" xlink:title=" ">
<polygon fill="white" stroke="#666666" points="271.62,-141.88 159.62,-141.88 159.62,-122.62 271.62,-122.62 271.62,-141.88"/>
<text xml:space="preserve" text-anchor="middle" x="215.62" y="-128.38" font-family="Helvetica,sans-Serif" font-size="10.00">Alarm::getStageString</text>
</a>
</g>
</g>
<!-- Node1&#45;&gt;Node5 -->
<g id="edge4_Node000001_Node000005" class="edge">
<title>Node1&#45;&gt;Node5</title>
<g id="a_edge4_Node000001_Node000005"><a xlink:title=" ">
<path fill="none" stroke="#63b8ff" d="M104.75,-119.31C118.44,-120.93 133.41,-122.69 147.79,-124.38"/>
<polygon fill="#63b8ff" stroke="#63b8ff" points="147.31,-127.85 157.65,-125.54 148.12,-120.9 147.31,-127.85"/>
</a>
</g>
</g>
<!-- Node6 -->
<g id="Node000006" class="node">
<title>Node6</title>
<g id="a_Node000006"><a xlink:href="class_alarm.html#abd578ec75a5ac9bce00b7ce7207c5d8c" target="_top" xlink:title=" ">
<polygon fill="white" stroke="#666666" points="269.38,-104.88 161.88,-104.88 161.88,-85.62 269.38,-85.62 269.38,-104.88"/>
<text xml:space="preserve" text-anchor="middle" x="215.62" y="-91.38" font-family="Helvetica,sans-Serif" font-size="10.00">Alarm::getTypeString</text>
</a>
</g>
</g>
<!-- Node1&#45;&gt;Node6 -->
<g id="edge5_Node000001_Node000006" class="edge">
<title>Node1&#45;&gt;Node6</title>
<g id="a_edge5_Node000001_Node000006"><a xlink:title=" ">
<path fill="none" stroke="#63b8ff" d="M104.75,-107.51C119.16,-105.9 135,-104.13 150.06,-102.45"/>
<polygon fill="#63b8ff" stroke="#63b8ff" points="150.34,-105.94 159.89,-101.36 149.56,-98.99 150.34,-105.94"/>
</a>
</g>
</g>
<!-- Node7 -->
<g id="Node000007" class="node">
<title>Node7</title>
<g id="a_Node000007"><a xlink:href="class_logger_manager.html#a5c1373ccc47f4112b596fe6f84fbbc21" target="_top" xlink:title=" ">
<polygon fill="white" stroke="#666666" points="267.88,-67.88 163.38,-67.88 163.38,-48.62 267.88,-48.62 267.88,-67.88"/>
<text xml:space="preserve" text-anchor="middle" x="215.62" y="-54.38" font-family="Helvetica,sans-Serif" font-size="10.00">LoggerManager::info</text>
</a>
</g>
</g>
<!-- Node1&#45;&gt;Node7 -->
<g id="edge6_Node000001_Node000007" class="edge">
<title>Node1&#45;&gt;Node7</title>
<g id="a_edge6_Node000001_Node000007"><a xlink:title=" ">
<path fill="none" stroke="#63b8ff" d="M74.39,-103.14C91.83,-95.07 117.38,-83.9 140.5,-76.25 145.86,-74.47 151.5,-72.79 157.16,-71.22"/>
<polygon fill="#63b8ff" stroke="#63b8ff" points="157.8,-74.67 166.57,-68.72 156.01,-67.9 157.8,-74.67"/>
</a>
</g>
</g>
<!-- Node8 -->
<g id="Node000008" class="node">
<title>Node8</title>
<g id="a_Node000008"><a xlink:href="class_logger_manager.html#aa74d58708cf5cdf8ddafad648edadcf7" target="_top" xlink:title=" ">
<polygon fill="white" stroke="#666666" points="290.75,-30.5 140.5,-30.5 140.5,0 290.75,0 290.75,-30.5"/>
<text xml:space="preserve" text-anchor="start" x="148.5" y="-17" font-family="Helvetica,sans-Serif" font-size="10.00">LoggerManager::logAlarmState</text>
<text xml:space="preserve" text-anchor="middle" x="215.62" y="-5.75" font-family="Helvetica,sans-Serif" font-size="10.00">Change</text>
</a>
</g>
</g>
<!-- Node1&#45;&gt;Node8 -->
<g id="edge7_Node000001_Node000008" class="edge">
<title>Node1&#45;&gt;Node8</title>
<g id="a_edge7_Node000001_Node000008"><a xlink:title=" ">
<path fill="none" stroke="#63b8ff" d="M62.5,-103.2C77.47,-87.48 108.57,-57.04 140.5,-39.25 142.84,-37.94 145.27,-36.7 147.75,-35.51"/>
<polygon fill="#63b8ff" stroke="#63b8ff" points="149.04,-38.76 156.8,-31.54 146.23,-32.35 149.04,-38.76"/>
</a>
</g>
</g>
<!-- Node4 -->
<g id="Node000004" class="node">
<title>Node4</title>
<g id="a_Node000004"><a xlink:href="class_alarm.html#a480e1d6d474da0cd4e5dd557e41cb87e" target="_top" xlink:title=" ">
<polygon fill="white" stroke="#666666" points="439.5,-178.88 326.75,-178.88 326.75,-159.62 439.5,-159.62 439.5,-178.88"/>
<text xml:space="preserve" text-anchor="middle" x="383.12" y="-165.38" font-family="Helvetica,sans-Serif" font-size="10.00">Alarm::getDisplayText</text>
</a>
</g>
</g>
<!-- Node3&#45;&gt;Node4 -->
<g id="edge3_Node000003_Node000004" class="edge">
<title>Node3&#45;&gt;Node4</title>
<g id="a_edge3_Node000003_Node000004"><a xlink:title=" ">
<path fill="none" stroke="#63b8ff" d="M276.84,-169.25C289.23,-169.25 302.34,-169.25 314.95,-169.25"/>
<polygon fill="#63b8ff" stroke="#63b8ff" points="314.84,-172.75 324.84,-169.25 314.84,-165.75 314.84,-172.75"/>
</a>
</g>
</g>
</g>
</svg>
