<?xml version="1.0" encoding="UTF-8" standalone="no"?>
<!DOCTYPE svg PUBLIC "-//W3C//DTD SVG 1.1//EN"
 "http://www.w3.org/Graphics/SVG/1.1/DTD/svg11.dtd">
<!-- Generated by graphviz version 13.1.0 (20250701.0955)
 -->
<!-- Title: TemperatureController::_updateNormalDisplay Pages: 1 -->
<svg width="760pt" height="39pt"
 viewBox="0.00 0.00 760.00 39.00" xmlns="http://www.w3.org/2000/svg" xmlns:xlink="http://www.w3.org/1999/xlink">
<g id="graph0" class="graph" transform="scale(1 1) rotate(0) translate(4 34.5)">
<title>TemperatureController::_updateNormalDisplay</title>
<!-- Node1 -->
<g id="Node000001" class="node">
<title>Node1</title>
<g id="a_Node000001"><a xlink:title=" ">
<polygon fill="#999999" stroke="#666666" points="752,-30.5 631,-30.5 631,0 752,0 752,-30.5"/>
<text xml:space="preserve" text-anchor="start" x="639" y="-17" font-family="Helvetica,sans-Serif" font-size="10.00">TemperatureController</text>
<text xml:space="preserve" text-anchor="middle" x="691.5" y="-5.75" font-family="Helvetica,sans-Serif" font-size="10.00">::_updateNormalDisplay</text>
</a>
</g>
</g>
<!-- Node2 -->
<g id="Node000002" class="node">
<title>Node2</title>
<g id="a_Node000002"><a xlink:href="class_temperature_controller.html#a1d2745c323f7094beac8f406825499b7" target="_top" xlink:title=" ">
<polygon fill="white" stroke="#666666" points="595,-30.5 444,-30.5 444,0 595,0 595,-30.5"/>
<text xml:space="preserve" text-anchor="start" x="452" y="-17" font-family="Helvetica,sans-Serif" font-size="10.00">TemperatureController</text>
<text xml:space="preserve" text-anchor="middle" x="519.5" y="-5.75" font-family="Helvetica,sans-Serif" font-size="10.00">::_handleAlarmDisplayRotation</text>
</a>
</g>
</g>
<!-- Node1&#45;&gt;Node2 -->
<g id="edge1_Node000001_Node000002" class="edge">
<title>Node1&#45;&gt;Node2</title>
<g id="a_edge1_Node000001_Node000002"><a xlink:title=" ">
<path fill="none" stroke="#63b8ff" d="M619.19,-15.25C611.32,-15.25 603.29,-15.25 595.38,-15.25"/>
<polygon fill="#63b8ff" stroke="#63b8ff" points="619.05,-18.75 629.05,-15.25 619.05,-11.75 619.05,-18.75"/>
</a>
</g>
</g>
<!-- Node3 -->
<g id="Node000003" class="node">
<title>Node3</title>
<g id="a_Node000003"><a xlink:href="class_temperature_controller.html#a5637103784725fb1a73f6463d7cbfde6" target="_top" xlink:title=" ">
<polygon fill="white" stroke="#666666" points="408,-30.5 296,-30.5 296,0 408,0 408,-30.5"/>
<text xml:space="preserve" text-anchor="start" x="304" y="-17" font-family="Helvetica,sans-Serif" font-size="10.00">TemperatureController</text>
<text xml:space="preserve" text-anchor="middle" x="352" y="-5.75" font-family="Helvetica,sans-Serif" font-size="10.00">::handleAlarmDisplay</text>
</a>
</g>
</g>
<!-- Node2&#45;&gt;Node3 -->
<g id="edge2_Node000002_Node000003" class="edge">
<title>Node2&#45;&gt;Node3</title>
<g id="a_edge2_Node000002_Node000003"><a xlink:title=" ">
<path fill="none" stroke="#63b8ff" d="M432.68,-15.25C424.39,-15.25 416.14,-15.25 408.27,-15.25"/>
<polygon fill="#63b8ff" stroke="#63b8ff" points="432.47,-18.75 442.47,-15.25 432.47,-11.75 432.47,-18.75"/>
</a>
</g>
</g>
<!-- Node4 -->
<g id="Node000004" class="node">
<title>Node4</title>
<g id="a_Node000004"><a xlink:href="class_temperature_controller.html#aca5deddbf703001373424d876f87b5f2" target="_top" xlink:title=" ">
<polygon fill="white" stroke="#666666" points="260,-30.5 148,-30.5 148,0 260,0 260,-30.5"/>
<text xml:space="preserve" text-anchor="start" x="156" y="-17" font-family="Helvetica,sans-Serif" font-size="10.00">TemperatureController</text>
<text xml:space="preserve" text-anchor="middle" x="204" y="-5.75" font-family="Helvetica,sans-Serif" font-size="10.00">::update</text>
</a>
</g>
</g>
<!-- Node3&#45;&gt;Node4 -->
<g id="edge3_Node000003_Node000004" class="edge">
<title>Node3&#45;&gt;Node4</title>
<g id="a_edge3_Node000003_Node000004"><a xlink:title=" ">
<path fill="none" stroke="#63b8ff" d="M284.47,-15.25C276.38,-15.25 268.18,-15.25 260.27,-15.25"/>
<polygon fill="#63b8ff" stroke="#63b8ff" points="284.29,-18.75 294.29,-15.25 284.29,-11.75 284.29,-18.75"/>
</a>
</g>
</g>
<!-- Node5 -->
<g id="Node000005" class="node">
<title>Node5</title>
<g id="a_Node000005"><a xlink:href="class_temperature_controller.html#a11948a87fe7df37543b86ecdd488b341" target="_top" xlink:title=" ">
<polygon fill="white" stroke="#666666" points="112,-30.5 0,-30.5 0,0 112,0 112,-30.5"/>
<text xml:space="preserve" text-anchor="start" x="8" y="-17" font-family="Helvetica,sans-Serif" font-size="10.00">TemperatureController</text>
<text xml:space="preserve" text-anchor="middle" x="56" y="-5.75" font-family="Helvetica,sans-Serif" font-size="10.00">::readAllPoints</text>
</a>
</g>
</g>
<!-- Node4&#45;&gt;Node5 -->
<g id="edge4_Node000004_Node000005" class="edge">
<title>Node4&#45;&gt;Node5</title>
<g id="a_edge4_Node000004_Node000005"><a xlink:title=" ">
<path fill="none" stroke="#63b8ff" d="M136.47,-8.52C128.38,-8.46 120.18,-8.52 112.27,-8.68"/>
<polygon fill="#63b8ff" stroke="#63b8ff" points="136.24,-12.02 146.29,-8.66 136.34,-5.02 136.24,-12.02"/>
</a>
</g>
</g>
<!-- Node5&#45;&gt;Node4 -->
<g id="edge5_Node000005_Node000004" class="edge">
<title>Node5&#45;&gt;Node4</title>
<g id="a_edge5_Node000005_Node000004"><a xlink:title=" ">
<path fill="none" stroke="#63b8ff" d="M123.61,-21.98C131.7,-22.04 139.9,-21.98 147.8,-21.82"/>
<polygon fill="#63b8ff" stroke="#63b8ff" points="123.84,-18.48 113.79,-21.84 123.74,-25.48 123.84,-18.48"/>
</a>
</g>
</g>
</g>
</svg>
