<?xml version="1.0" encoding="UTF-8" standalone="no"?>
<!DOCTYPE svg PUBLIC "-//W3C//DTD SVG 1.1//EN"
 "http://www.w3.org/Graphics/SVG/1.1/DTD/svg11.dtd">
<!-- Generated by graphviz version 13.1.0 (20250701.0955)
 -->
<!-- Title: CSVConfigManager::exportPointsWithAlarmsToCSV Pages: 1 -->
<svg width="654pt" height="506pt"
 viewBox="0.00 0.00 654.00 506.00" xmlns="http://www.w3.org/2000/svg" xmlns:xlink="http://www.w3.org/1999/xlink">
<g id="graph0" class="graph" transform="scale(1 1) rotate(0) translate(4 501.88)">
<title>CSVConfigManager::exportPointsWithAlarmsToCSV</title>
<!-- Node1 -->
<g id="Node000001" class="node">
<title>Node1</title>
<g id="a_Node000001"><a xlink:title="Export measurement points with alarm configuration to CSV.">
<polygon fill="#999999" stroke="#666666" points="136,-248.88 0,-248.88 0,-218.38 136,-218.38 136,-248.88"/>
<text xml:space="preserve" text-anchor="start" x="8" y="-235.38" font-family="Helvetica,sans-Serif" font-size="10.00">CSVConfigManager::export</text>
<text xml:space="preserve" text-anchor="middle" x="68" y="-224.12" font-family="Helvetica,sans-Serif" font-size="10.00">PointsWithAlarmsToCSV</text>
</a>
</g>
</g>
<!-- Node2 -->
<g id="Node000002" class="node">
<title>Node2</title>
<g id="a_Node000002"><a xlink:href="class_c_s_v_config_manager.html#a2c2673398051c26184c9197aa751a6b3" target="_top" xlink:title="Export single measurement point to CSV format.">
<polygon fill="white" stroke="#666666" points="281,-248.88 172,-248.88 172,-218.38 281,-218.38 281,-248.88"/>
<text xml:space="preserve" text-anchor="start" x="180" y="-235.38" font-family="Helvetica,sans-Serif" font-size="10.00">CSVConfigManager::</text>
<text xml:space="preserve" text-anchor="middle" x="226.5" y="-224.12" font-family="Helvetica,sans-Serif" font-size="10.00">_exportPointToCSV</text>
</a>
</g>
</g>
<!-- Node1&#45;&gt;Node2 -->
<g id="edge1_Node000001_Node000002" class="edge">
<title>Node1&#45;&gt;Node2</title>
<g id="a_edge1_Node000001_Node000002"><a xlink:title=" ">
<path fill="none" stroke="#63b8ff" d="M136.28,-233.62C144.39,-233.62 152.66,-233.62 160.73,-233.62"/>
<polygon fill="#63b8ff" stroke="#63b8ff" points="160.46,-237.13 170.46,-233.63 160.46,-230.13 160.46,-237.13"/>
</a>
</g>
</g>
<!-- Node3 -->
<g id="Node000003" class="node">
<title>Node3</title>
<g id="a_Node000003"><a xlink:href="class_c_s_v_config_manager.html#a7cbb73926f858ab8982287b94797ec7a" target="_top" xlink:title="Escape special characters in CSV field.">
<polygon fill="white" stroke="#666666" points="458.25,-485.88 349.25,-485.88 349.25,-455.38 458.25,-455.38 458.25,-485.88"/>
<text xml:space="preserve" text-anchor="start" x="357.25" y="-472.38" font-family="Helvetica,sans-Serif" font-size="10.00">CSVConfigManager::</text>
<text xml:space="preserve" text-anchor="middle" x="403.75" y="-461.12" font-family="Helvetica,sans-Serif" font-size="10.00">_escapeCSVField</text>
</a>
</g>
</g>
<!-- Node2&#45;&gt;Node3 -->
<g id="edge2_Node000002_Node000003" class="edge">
<title>Node2&#45;&gt;Node3</title>
<g id="a_edge2_Node000002_Node000003"><a xlink:title=" ">
<path fill="none" stroke="#63b8ff" d="M229.5,-249.32C235.34,-288.48 255.98,-391.29 317,-445.62 323.21,-451.15 330.58,-455.47 338.35,-458.82"/>
<polygon fill="#63b8ff" stroke="#63b8ff" points="337.12,-462.1 347.71,-462.31 339.57,-455.54 337.12,-462.1"/>
</a>
</g>
</g>
<!-- Node4 -->
<g id="Node000004" class="node">
<title>Node4</title>
<g id="a_Node000004"><a xlink:href="class_c_s_v_config_manager.html#aa43c8405582f387b0330cc1e965f5117" target="_top" xlink:title="Get alarm priority for specific point and alarm type.">
<polygon fill="white" stroke="#666666" points="467.62,-436.88 339.88,-436.88 339.88,-406.38 467.62,-406.38 467.62,-436.88"/>
<text xml:space="preserve" text-anchor="start" x="347.88" y="-423.38" font-family="Helvetica,sans-Serif" font-size="10.00">CSVConfigManager::</text>
<text xml:space="preserve" text-anchor="middle" x="403.75" y="-412.12" font-family="Helvetica,sans-Serif" font-size="10.00">_getAlarmPriorityForPoint</text>
</a>
</g>
</g>
<!-- Node2&#45;&gt;Node4 -->
<g id="edge3_Node000002_Node000004" class="edge">
<title>Node2&#45;&gt;Node4</title>
<g id="a_edge3_Node000002_Node000004"><a xlink:title=" ">
<path fill="none" stroke="#63b8ff" d="M231.46,-248.91C240.69,-281.4 266.74,-357.64 317,-397.62 320.74,-400.6 324.83,-403.21 329.13,-405.5"/>
<polygon fill="#63b8ff" stroke="#63b8ff" points="327.56,-408.62 338.1,-409.63 330.49,-402.27 327.56,-408.62"/>
</a>
</g>
</g>
<!-- Node9 -->
<g id="Node000009" class="node">
<title>Node9</title>
<g id="a_Node000009"><a xlink:href="class_measurement_point.html#a7b74a18d86e0e545264a774aa2c31cad" target="_top" xlink:title="Get measurement point address.">
<polygon fill="white" stroke="#666666" points="480.38,-388.25 327.12,-388.25 327.12,-369 480.38,-369 480.38,-388.25"/>
<text xml:space="preserve" text-anchor="middle" x="403.75" y="-374.75" font-family="Helvetica,sans-Serif" font-size="10.00">MeasurementPoint::getAddress</text>
</a>
</g>
</g>
<!-- Node2&#45;&gt;Node9 -->
<g id="edge8_Node000002_Node000009" class="edge">
<title>Node2&#45;&gt;Node9</title>
<g id="a_edge8_Node000002_Node000009"><a xlink:title=" ">
<path fill="none" stroke="#63b8ff" d="M234,-249.24C246.1,-276.28 274.74,-331.6 317,-359.62 319.39,-361.21 321.89,-362.67 324.48,-364"/>
<polygon fill="#63b8ff" stroke="#63b8ff" points="322.85,-367.11 333.41,-367.97 325.69,-360.71 322.85,-367.11"/>
</a>
</g>
</g>
<!-- Node10 -->
<g id="Node000010" class="node">
<title>Node10</title>
<g id="a_Node000010"><a xlink:href="class_measurement_point.html#a81c7ae93a9314344967d0f31c6fefe2f" target="_top" xlink:title="Get pointer to bound sensor.">
<polygon fill="white" stroke="#666666" points="476.25,-350.88 331.25,-350.88 331.25,-320.38 476.25,-320.38 476.25,-350.88"/>
<text xml:space="preserve" text-anchor="start" x="339.25" y="-337.38" font-family="Helvetica,sans-Serif" font-size="10.00">MeasurementPoint::getBound</text>
<text xml:space="preserve" text-anchor="middle" x="403.75" y="-326.12" font-family="Helvetica,sans-Serif" font-size="10.00">Sensor</text>
</a>
</g>
</g>
<!-- Node2&#45;&gt;Node10 -->
<g id="edge9_Node000002_Node000010" class="edge">
<title>Node2&#45;&gt;Node10</title>
<g id="a_edge9_Node000002_Node000010"><a xlink:title=" ">
<path fill="none" stroke="#63b8ff" d="M241.15,-249.11C257.51,-266.73 286.53,-295.18 317,-311.62 319.65,-313.06 322.39,-314.41 325.2,-315.68"/>
<polygon fill="#63b8ff" stroke="#63b8ff" points="323.62,-318.82 334.2,-319.41 326.29,-312.35 323.62,-318.82"/>
</a>
</g>
</g>
<!-- Node11 -->
<g id="Node000011" class="node">
<title>Node11</title>
<g id="a_Node000011"><a xlink:href="class_measurement_point.html#aceaf14fde40bcd5331e5ea6a07d7dde8" target="_top" xlink:title="Get current temperature.">
<polygon fill="white" stroke="#666666" points="490.5,-302.25 317,-302.25 317,-283 490.5,-283 490.5,-302.25"/>
<text xml:space="preserve" text-anchor="middle" x="403.75" y="-288.75" font-family="Helvetica,sans-Serif" font-size="10.00">MeasurementPoint::getCurrentTemp</text>
</a>
</g>
</g>
<!-- Node2&#45;&gt;Node11 -->
<g id="edge10_Node000002_Node000011" class="edge">
<title>Node2&#45;&gt;Node11</title>
<g id="a_edge10_Node000002_Node000011"><a xlink:title=" ">
<path fill="none" stroke="#63b8ff" d="M257.07,-249.19C274.2,-257.69 296.38,-267.83 317,-274.62 322.78,-276.53 328.85,-278.28 334.97,-279.87"/>
<polygon fill="#63b8ff" stroke="#63b8ff" points="333.99,-283.23 344.53,-282.22 335.65,-276.44 333.99,-283.23"/>
</a>
</g>
</g>
<!-- Node12 -->
<g id="Node000012" class="node">
<title>Node12</title>
<g id="a_Node000012"><a xlink:href="class_sensor.html#a9f793cde2918130fbc77dad1aebfe53a" target="_top" xlink:title=" ">
<polygon fill="white" stroke="#666666" points="481.12,-265.25 326.38,-265.25 326.38,-246 481.12,-246 481.12,-265.25"/>
<text xml:space="preserve" text-anchor="middle" x="403.75" y="-251.75" font-family="Helvetica,sans-Serif" font-size="10.00">Sensor::getDS18B20RomString</text>
</a>
</g>
</g>
<!-- Node2&#45;&gt;Node12 -->
<g id="edge11_Node000002_Node000012" class="edge">
<title>Node2&#45;&gt;Node12</title>
<g id="a_edge11_Node000002_Node000012"><a xlink:title=" ">
<path fill="none" stroke="#63b8ff" d="M281.03,-240.35C291.79,-241.7 303.36,-243.15 314.93,-244.6"/>
<polygon fill="#63b8ff" stroke="#63b8ff" points="314.14,-248.03 324.5,-245.8 315.01,-241.08 314.14,-248.03"/>
</a>
</g>
</g>
<!-- Node13 -->
<g id="Node000013" class="node">
<title>Node13</title>
<g id="a_Node000013"><a xlink:href="class_measurement_point.html#a71d6d440240f110cbd80c58bbc47aff6" target="_top" xlink:title="Get high alarm threshold.">
<polygon fill="white" stroke="#666666" points="472.5,-227.88 335,-227.88 335,-197.38 472.5,-197.38 472.5,-227.88"/>
<text xml:space="preserve" text-anchor="start" x="343" y="-214.38" font-family="Helvetica,sans-Serif" font-size="10.00">MeasurementPoint::getHigh</text>
<text xml:space="preserve" text-anchor="middle" x="403.75" y="-203.12" font-family="Helvetica,sans-Serif" font-size="10.00">AlarmThreshold</text>
</a>
</g>
</g>
<!-- Node2&#45;&gt;Node13 -->
<g id="edge12_Node000002_Node000013" class="edge">
<title>Node2&#45;&gt;Node13</title>
<g id="a_edge12_Node000002_Node000013"><a xlink:title=" ">
<path fill="none" stroke="#63b8ff" d="M281.03,-227.21C294.38,-225.61 308.97,-223.86 323.27,-222.15"/>
<polygon fill="#63b8ff" stroke="#63b8ff" points="323.63,-225.63 333.15,-220.97 322.8,-218.68 323.63,-225.63"/>
</a>
</g>
</g>
<!-- Node14 -->
<g id="Node000014" class="node">
<title>Node14</title>
<g id="a_Node000014"><a xlink:href="class_measurement_point.html#a6e538e117d9e22c6998b56519a51d6ba" target="_top" xlink:title="Get low alarm threshold.">
<polygon fill="white" stroke="#666666" points="471.38,-178.88 336.12,-178.88 336.12,-148.38 471.38,-148.38 471.38,-178.88"/>
<text xml:space="preserve" text-anchor="start" x="344.12" y="-165.38" font-family="Helvetica,sans-Serif" font-size="10.00">MeasurementPoint::getLow</text>
<text xml:space="preserve" text-anchor="middle" x="403.75" y="-154.12" font-family="Helvetica,sans-Serif" font-size="10.00">AlarmThreshold</text>
</a>
</g>
</g>
<!-- Node2&#45;&gt;Node14 -->
<g id="edge13_Node000002_Node000014" class="edge">
<title>Node2&#45;&gt;Node14</title>
<g id="a_edge13_Node000002_Node000014"><a xlink:title=" ">
<path fill="none" stroke="#63b8ff" d="M255.51,-217.88C272.86,-208.55 295.8,-196.97 317,-188.62 322.19,-186.58 327.61,-184.62 333.1,-182.76"/>
<polygon fill="#63b8ff" stroke="#63b8ff" points="333.83,-186.2 342.25,-179.77 331.66,-179.55 333.83,-186.2"/>
</a>
</g>
</g>
<!-- Node15 -->
<g id="Node000015" class="node">
<title>Node15</title>
<g id="a_Node000015"><a xlink:href="class_measurement_point.html#a8677e00e0be369d7874f4982990dc56d" target="_top" xlink:title="Get maximum recorded temperature.">
<polygon fill="white" stroke="#666666" points="483.75,-130.25 323.75,-130.25 323.75,-111 483.75,-111 483.75,-130.25"/>
<text xml:space="preserve" text-anchor="middle" x="403.75" y="-116.75" font-family="Helvetica,sans-Serif" font-size="10.00">MeasurementPoint::getMaxTemp</text>
</a>
</g>
</g>
<!-- Node2&#45;&gt;Node15 -->
<g id="edge14_Node000002_Node000015" class="edge">
<title>Node2&#45;&gt;Node15</title>
<g id="a_edge14_Node000002_Node000015"><a xlink:title=" ">
<path fill="none" stroke="#63b8ff" d="M237.89,-217.9C252.78,-196.66 282.27,-159.23 317,-139.62 320.19,-137.83 323.53,-136.2 326.97,-134.72"/>
<polygon fill="#63b8ff" stroke="#63b8ff" points="327.99,-138.08 336.12,-131.28 325.53,-131.53 327.99,-138.08"/>
</a>
</g>
</g>
<!-- Node16 -->
<g id="Node000016" class="node">
<title>Node16</title>
<g id="a_Node000016"><a xlink:href="class_measurement_point.html#adc31f012462c1623617d5f362bcb2c59" target="_top" xlink:title="Get minimum recorded temperature.">
<polygon fill="white" stroke="#666666" points="482.25,-93.25 325.25,-93.25 325.25,-74 482.25,-74 482.25,-93.25"/>
<text xml:space="preserve" text-anchor="middle" x="403.75" y="-79.75" font-family="Helvetica,sans-Serif" font-size="10.00">MeasurementPoint::getMinTemp</text>
</a>
</g>
</g>
<!-- Node2&#45;&gt;Node16 -->
<g id="edge15_Node000002_Node000016" class="edge">
<title>Node2&#45;&gt;Node16</title>
<g id="a_edge15_Node000002_Node000016"><a xlink:title=" ">
<path fill="none" stroke="#63b8ff" d="M233.39,-218.12C244.88,-190.07 273.08,-131.09 317,-101.62 318.61,-100.55 320.27,-99.53 321.97,-98.58"/>
<polygon fill="#63b8ff" stroke="#63b8ff" points="323.24,-101.85 330.75,-94.37 320.22,-95.53 323.24,-101.85"/>
</a>
</g>
</g>
<!-- Node17 -->
<g id="Node000017" class="node">
<title>Node17</title>
<g id="a_Node000017"><a xlink:href="class_measurement_point.html#aa3a80d373c7609c7b178bf7353ffdd7a" target="_top" xlink:title="Get measurement point name.">
<polygon fill="white" stroke="#666666" points="475.5,-56.25 332,-56.25 332,-37 475.5,-37 475.5,-56.25"/>
<text xml:space="preserve" text-anchor="middle" x="403.75" y="-42.75" font-family="Helvetica,sans-Serif" font-size="10.00">MeasurementPoint::getName</text>
</a>
</g>
</g>
<!-- Node2&#45;&gt;Node17 -->
<g id="edge16_Node000002_Node000017" class="edge">
<title>Node2&#45;&gt;Node17</title>
<g id="a_edge16_Node000002_Node000017"><a xlink:title=" ">
<path fill="none" stroke="#63b8ff" d="M231.05,-217.88C239.54,-184.04 264.35,-104.26 317,-64.62 318.55,-63.46 320.15,-62.37 321.8,-61.34"/>
<polygon fill="#63b8ff" stroke="#63b8ff" points="323.13,-64.6 330.39,-56.87 319.9,-58.39 323.13,-64.6"/>
</a>
</g>
</g>
<!-- Node18 -->
<g id="Node000018" class="node">
<title>Node18</title>
<g id="a_Node000018"><a xlink:href="class_sensor.html#a0f6f095e7cfdfffb2a395dfdae7cfa53" target="_top" xlink:title=" ">
<polygon fill="white" stroke="#666666" points="447.38,-19.25 360.12,-19.25 360.12,0 447.38,0 447.38,-19.25"/>
<text xml:space="preserve" text-anchor="middle" x="403.75" y="-5.75" font-family="Helvetica,sans-Serif" font-size="10.00">Sensor::getType</text>
</a>
</g>
</g>
<!-- Node2&#45;&gt;Node18 -->
<g id="edge17_Node000002_Node000018" class="edge">
<title>Node2&#45;&gt;Node18</title>
<g id="a_edge17_Node000002_Node000018"><a xlink:title=" ">
<path fill="none" stroke="#63b8ff" d="M229.4,-218.09C235.02,-179.35 255.19,-78.01 317,-27.62 326.11,-20.2 337.54,-15.61 349.06,-12.83"/>
<polygon fill="#63b8ff" stroke="#63b8ff" points="349.42,-16.33 358.56,-10.98 348.08,-9.46 349.42,-16.33"/>
</a>
</g>
</g>
<!-- Node5 -->
<g id="Node000005" class="node">
<title>Node5</title>
<g id="a_Node000005"><a xlink:href="class_c_s_v_config_manager.html#a42f3d6d3fe90a50339e53c550cbdcc4a" target="_top" xlink:title="Convert alarm priority enum to string.">
<polygon fill="white" stroke="#666666" points="640.75,-497.88 531.75,-497.88 531.75,-467.38 640.75,-467.38 640.75,-497.88"/>
<text xml:space="preserve" text-anchor="start" x="539.75" y="-484.38" font-family="Helvetica,sans-Serif" font-size="10.00">CSVConfigManager::</text>
<text xml:space="preserve" text-anchor="middle" x="586.25" y="-473.12" font-family="Helvetica,sans-Serif" font-size="10.00">_getPriorityString</text>
</a>
</g>
</g>
<!-- Node4&#45;&gt;Node5 -->
<g id="edge4_Node000004_Node000005" class="edge">
<title>Node4&#45;&gt;Node5</title>
<g id="a_edge4_Node000004_Node000005"><a xlink:title=" ">
<path fill="none" stroke="#63b8ff" d="M460.76,-437.26C470.71,-440.23 480.94,-443.42 490.5,-446.62 505.26,-451.57 521.13,-457.4 535.58,-462.9"/>
<polygon fill="#63b8ff" stroke="#63b8ff" points="534.31,-466.17 544.9,-466.49 536.83,-459.63 534.31,-466.17"/>
</a>
</g>
</g>
<!-- Node6 -->
<g id="Node000006" class="node">
<title>Node6</title>
<g id="a_Node000006"><a xlink:href="class_alarm.html#ab12dd2af567dd87228d9404dcce5b0c0" target="_top" xlink:title="Get the measurement point address.">
<polygon fill="white" stroke="#666666" points="646,-449.25 526.5,-449.25 526.5,-430 646,-430 646,-449.25"/>
<text xml:space="preserve" text-anchor="middle" x="586.25" y="-435.75" font-family="Helvetica,sans-Serif" font-size="10.00">Alarm::getPointAddress</text>
</a>
</g>
</g>
<!-- Node4&#45;&gt;Node6 -->
<g id="edge5_Node000004_Node000006" class="edge">
<title>Node4&#45;&gt;Node6</title>
<g id="a_edge5_Node000004_Node000006"><a xlink:title=" ">
<path fill="none" stroke="#63b8ff" d="M467.88,-427.92C483.1,-429.44 499.45,-431.07 514.97,-432.62"/>
<polygon fill="#63b8ff" stroke="#63b8ff" points="514.29,-436.07 524.59,-433.58 514.98,-429.1 514.29,-436.07"/>
</a>
</g>
</g>
<!-- Node7 -->
<g id="Node000007" class="node">
<title>Node7</title>
<g id="a_Node000007"><a xlink:href="class_alarm.html#abe89e376d8cacb582717ad6a65526ee8" target="_top" xlink:title="Get the alarm priority.">
<polygon fill="white" stroke="#666666" points="632.12,-412.25 540.38,-412.25 540.38,-393 632.12,-393 632.12,-412.25"/>
<text xml:space="preserve" text-anchor="middle" x="586.25" y="-398.75" font-family="Helvetica,sans-Serif" font-size="10.00">Alarm::getPriority</text>
</a>
</g>
</g>
<!-- Node4&#45;&gt;Node7 -->
<g id="edge6_Node000004_Node000007" class="edge">
<title>Node4&#45;&gt;Node7</title>
<g id="a_edge6_Node000004_Node000007"><a xlink:title=" ">
<path fill="none" stroke="#63b8ff" d="M467.88,-414.98C487.67,-412.9 509.38,-410.61 528.69,-408.58"/>
<polygon fill="#63b8ff" stroke="#63b8ff" points="528.97,-412.07 538.55,-407.54 528.24,-405.11 528.97,-412.07"/>
</a>
</g>
</g>
<!-- Node8 -->
<g id="Node000008" class="node">
<title>Node8</title>
<g id="a_Node000008"><a xlink:href="class_alarm.html#acfac41af4628d83d3fdcc11c8fb55069" target="_top" xlink:title="Get the alarm type.">
<polygon fill="white" stroke="#666666" points="627.25,-375.25 545.25,-375.25 545.25,-356 627.25,-356 627.25,-375.25"/>
<text xml:space="preserve" text-anchor="middle" x="586.25" y="-361.75" font-family="Helvetica,sans-Serif" font-size="10.00">Alarm::getType</text>
</a>
</g>
</g>
<!-- Node4&#45;&gt;Node8 -->
<g id="edge7_Node000004_Node000008" class="edge">
<title>Node4&#45;&gt;Node8</title>
<g id="a_edge7_Node000004_Node000008"><a xlink:title=" ">
<path fill="none" stroke="#63b8ff" d="M463.56,-405.99C472.63,-403.34 481.85,-400.51 490.5,-397.62 506.79,-392.19 510.28,-389.25 526.5,-383.62 530.92,-382.09 535.55,-380.55 540.19,-379.06"/>
<polygon fill="#63b8ff" stroke="#63b8ff" points="541.01,-382.47 549.5,-376.13 538.91,-375.79 541.01,-382.47"/>
</a>
</g>
</g>
</g>
</svg>
