<?xml version="1.0" encoding="UTF-8" standalone="no"?>
<!DOCTYPE svg PUBLIC "-//W3C//DTD SVG 1.1//EN"
 "http://www.w3.org/Graphics/SVG/1.1/DTD/svg11.dtd">
<!-- Generated by graphviz version 13.1.0 (20250701.0955)
 -->
<!-- Title: TemperatureController::getBoundSensor Pages: 1 -->
<svg width="449pt" height="112pt"
 viewBox="0.00 0.00 449.00 112.00" xmlns="http://www.w3.org/2000/svg" xmlns:xlink="http://www.w3.org/1999/xlink">
<g id="graph0" class="graph" transform="scale(1 1) rotate(0) translate(4 107.5)">
<title>TemperatureController::getBoundSensor</title>
<!-- Node1 -->
<g id="Node000001" class="node">
<title>Node1</title>
<g id="a_Node000001"><a xlink:title=" ">
<polygon fill="#999999" stroke="#666666" points="112,-78.5 0,-78.5 0,-48 112,-48 112,-78.5"/>
<text xml:space="preserve" text-anchor="start" x="8" y="-65" font-family="Helvetica,sans-Serif" font-size="10.00">TemperatureController</text>
<text xml:space="preserve" text-anchor="middle" x="56" y="-53.75" font-family="Helvetica,sans-Serif" font-size="10.00">::getBoundSensor</text>
</a>
</g>
</g>
<!-- Node2 -->
<g id="Node000002" class="node">
<title>Node2</title>
<g id="a_Node000002"><a xlink:href="class_measurement_point.html#a81c7ae93a9314344967d0f31c6fefe2f" target="_top" xlink:title="Get pointer to bound sensor.">
<polygon fill="white" stroke="#666666" points="293,-103.5 148,-103.5 148,-73 293,-73 293,-103.5"/>
<text xml:space="preserve" text-anchor="start" x="156" y="-90" font-family="Helvetica,sans-Serif" font-size="10.00">MeasurementPoint::getBound</text>
<text xml:space="preserve" text-anchor="middle" x="220.5" y="-78.75" font-family="Helvetica,sans-Serif" font-size="10.00">Sensor</text>
</a>
</g>
</g>
<!-- Node1&#45;&gt;Node2 -->
<g id="edge1_Node000001_Node000002" class="edge">
<title>Node1&#45;&gt;Node2</title>
<g id="a_edge1_Node000001_Node000002"><a xlink:title=" ">
<path fill="none" stroke="#63b8ff" d="M112.47,-71.78C120.16,-72.97 128.19,-74.2 136.24,-75.44"/>
<polygon fill="#63b8ff" stroke="#63b8ff" points="135.7,-78.9 146.12,-76.96 136.77,-71.98 135.7,-78.9"/>
</a>
</g>
</g>
<!-- Node3 -->
<g id="Node000003" class="node">
<title>Node3</title>
<g id="a_Node000003"><a xlink:href="class_temperature_controller.html#a494f057c234b4ff7526bde271aec9267" target="_top" xlink:title=" ">
<polygon fill="white" stroke="#666666" points="279.12,-54.5 161.88,-54.5 161.88,-24 279.12,-24 279.12,-54.5"/>
<text xml:space="preserve" text-anchor="start" x="169.88" y="-41" font-family="Helvetica,sans-Serif" font-size="10.00">TemperatureController</text>
<text xml:space="preserve" text-anchor="middle" x="220.5" y="-29.75" font-family="Helvetica,sans-Serif" font-size="10.00">::getMeasurementPoint</text>
</a>
</g>
</g>
<!-- Node1&#45;&gt;Node3 -->
<g id="edge2_Node000001_Node000003" class="edge">
<title>Node1&#45;&gt;Node3</title>
<g id="a_edge2_Node000001_Node000003"><a xlink:title=" ">
<path fill="none" stroke="#63b8ff" d="M112.47,-55.06C124.7,-53.25 137.8,-51.32 150.49,-49.44"/>
<polygon fill="#63b8ff" stroke="#63b8ff" points="150.63,-52.96 160.01,-48.04 149.61,-46.03 150.63,-52.96"/>
</a>
</g>
</g>
<!-- Node4 -->
<g id="Node000004" class="node">
<title>Node4</title>
<g id="a_Node000004"><a xlink:href="class_temperature_controller.html#ad322a5bab8d5788a586206004248f673" target="_top" xlink:title=" ">
<polygon fill="white" stroke="#666666" points="441,-79.5 329,-79.5 329,-49 441,-49 441,-79.5"/>
<text xml:space="preserve" text-anchor="start" x="337" y="-66" font-family="Helvetica,sans-Serif" font-size="10.00">TemperatureController</text>
<text xml:space="preserve" text-anchor="middle" x="385" y="-54.75" font-family="Helvetica,sans-Serif" font-size="10.00">::isDS18B20Address</text>
</a>
</g>
</g>
<!-- Node3&#45;&gt;Node4 -->
<g id="edge3_Node000003_Node000004" class="edge">
<title>Node3&#45;&gt;Node4</title>
<g id="a_edge3_Node000003_Node000004"><a xlink:title=" ">
<path fill="none" stroke="#63b8ff" d="M279.25,-48.13C291.67,-50.04 304.89,-52.08 317.6,-54.04"/>
<polygon fill="#63b8ff" stroke="#63b8ff" points="316.7,-57.44 327.12,-55.5 317.77,-50.52 316.7,-57.44"/>
</a>
</g>
</g>
<!-- Node5 -->
<g id="Node000005" class="node">
<title>Node5</title>
<g id="a_Node000005"><a xlink:href="class_temperature_controller.html#a13125ddcf29cb56d27403818543618af" target="_top" xlink:title=" ">
<polygon fill="white" stroke="#666666" points="441,-30.5 329,-30.5 329,0 441,0 441,-30.5"/>
<text xml:space="preserve" text-anchor="start" x="337" y="-17" font-family="Helvetica,sans-Serif" font-size="10.00">TemperatureController</text>
<text xml:space="preserve" text-anchor="middle" x="385" y="-5.75" font-family="Helvetica,sans-Serif" font-size="10.00">::isPT1000Address</text>
</a>
</g>
</g>
<!-- Node3&#45;&gt;Node5 -->
<g id="edge4_Node000003_Node000005" class="edge">
<title>Node3&#45;&gt;Node5</title>
<g id="a_edge4_Node000003_Node000005"><a xlink:title=" ">
<path fill="none" stroke="#63b8ff" d="M279.25,-30.72C291.67,-28.89 304.89,-26.93 317.6,-25.06"/>
<polygon fill="#63b8ff" stroke="#63b8ff" points="317.74,-28.57 327.12,-23.65 316.71,-21.65 317.74,-28.57"/>
</a>
</g>
</g>
</g>
</svg>
