<?xml version="1.0" encoding="UTF-8" standalone="no"?>
<!DOCTYPE svg PUBLIC "-//W3C//DTD SVG 1.1//EN"
 "http://www.w3.org/Graphics/SVG/1.1/DTD/svg11.dtd">
<!-- Generated by graphviz version 13.1.0 (20250701.0955)
 -->
<!-- Title: LoggerManager::_normalizeDate Pages: 1 -->
<svg width="856pt" height="187pt"
 viewBox="0.00 0.00 856.00 187.00" xmlns="http://www.w3.org/2000/svg" xmlns:xlink="http://www.w3.org/1999/xlink">
<g id="graph0" class="graph" transform="scale(1 1) rotate(0) translate(4 182.88)">
<title>LoggerManager::_normalizeDate</title>
<!-- Node1 -->
<g id="Node000001" class="node">
<title>Node1</title>
<g id="a_Node000001"><a xlink:title=" ">
<polygon fill="#999999" stroke="#666666" points="848,-104.88 691,-104.88 691,-85.62 848,-85.62 848,-104.88"/>
<text xml:space="preserve" text-anchor="middle" x="769.5" y="-91.38" font-family="Helvetica,sans-Serif" font-size="10.00">LoggerManager::_normalizeDate</text>
</a>
</g>
</g>
<!-- Node2 -->
<g id="Node000002" class="node">
<title>Node2</title>
<g id="a_Node000002"><a xlink:href="class_logger_manager.html#a0bd4f43205e247f114f1a49a8de438d5" target="_top" xlink:title=" ">
<polygon fill="white" stroke="#666666" points="655,-147.5 522,-147.5 522,-117 655,-117 655,-147.5"/>
<text xml:space="preserve" text-anchor="start" x="530" y="-134" font-family="Helvetica,sans-Serif" font-size="10.00">LoggerManager::_getAlarm</text>
<text xml:space="preserve" text-anchor="middle" x="588.5" y="-122.75" font-family="Helvetica,sans-Serif" font-size="10.00">LogFilesInRange</text>
</a>
</g>
</g>
<!-- Node1&#45;&gt;Node2 -->
<g id="edge1_Node000001_Node000002" class="edge">
<title>Node1&#45;&gt;Node2</title>
<g id="a_edge1_Node000001_Node000002"><a xlink:title=" ">
<path fill="none" stroke="#63b8ff" d="M708.64,-107.62C691.57,-111.15 672.88,-115.02 655.47,-118.61"/>
<polygon fill="#63b8ff" stroke="#63b8ff" points="709.02,-111.12 718.11,-105.67 707.6,-104.26 709.02,-111.12"/>
</a>
</g>
</g>
<!-- Node7 -->
<g id="Node000007" class="node">
<title>Node7</title>
<g id="a_Node000007"><a xlink:href="class_logger_manager.html#ad3222128e4c210c2006e314966c511f5" target="_top" xlink:title=" ">
<polygon fill="white" stroke="#666666" points="655,-86.5 522,-86.5 522,-56 655,-56 655,-86.5"/>
<text xml:space="preserve" text-anchor="start" x="530" y="-73" font-family="Helvetica,sans-Serif" font-size="10.00">LoggerManager::_getEvent</text>
<text xml:space="preserve" text-anchor="middle" x="588.5" y="-61.75" font-family="Helvetica,sans-Serif" font-size="10.00">LogFilesInRange</text>
</a>
</g>
</g>
<!-- Node1&#45;&gt;Node7 -->
<g id="edge7_Node000001_Node000007" class="edge">
<title>Node1&#45;&gt;Node7</title>
<g id="a_edge7_Node000001_Node000007"><a xlink:title=" ">
<path fill="none" stroke="#63b8ff" d="M681.89,-83.64C672.99,-82.44 664.06,-81.25 655.44,-80.09"/>
<polygon fill="#63b8ff" stroke="#63b8ff" points="681.23,-87.08 691.61,-84.94 682.16,-80.14 681.23,-87.08"/>
</a>
</g>
</g>
<!-- Node3 -->
<g id="Node000003" class="node">
<title>Node3</title>
<g id="a_Node000003"><a xlink:href="class_logger_manager.html#a612d1bdfbfd0d93f9452fd7bac8775ca" target="_top" xlink:title=" ">
<polygon fill="white" stroke="#666666" points="484.5,-178.88 307.25,-178.88 307.25,-159.62 484.5,-159.62 484.5,-178.88"/>
<text xml:space="preserve" text-anchor="middle" x="395.88" y="-165.38" font-family="Helvetica,sans-Serif" font-size="10.00">LoggerManager::getAlarmHistoryCsv</text>
</a>
</g>
</g>
<!-- Node2&#45;&gt;Node3 -->
<g id="edge2_Node000002_Node000003" class="edge">
<title>Node2&#45;&gt;Node3</title>
<g id="a_edge2_Node000002_Node000003"><a xlink:title=" ">
<path fill="none" stroke="#63b8ff" d="M510.6,-147.18C489.87,-151.2 467.93,-155.46 448.92,-159.15"/>
<polygon fill="#63b8ff" stroke="#63b8ff" points="511,-150.66 520.14,-145.32 509.66,-143.79 511,-150.66"/>
</a>
</g>
</g>
<!-- Node6 -->
<g id="Node000006" class="node">
<title>Node6</title>
<g id="a_Node000006"><a xlink:href="class_logger_manager.html#af04d8d79f7bcb9ff4dace5b490502b50" target="_top" xlink:title=" ">
<polygon fill="white" stroke="#666666" points="486,-141.88 305.75,-141.88 305.75,-122.62 486,-122.62 486,-141.88"/>
<text xml:space="preserve" text-anchor="middle" x="395.88" y="-128.38" font-family="Helvetica,sans-Serif" font-size="10.00">LoggerManager::getAlarmHistoryJson</text>
</a>
</g>
</g>
<!-- Node2&#45;&gt;Node6 -->
<g id="edge5_Node000002_Node000006" class="edge">
<title>Node2&#45;&gt;Node6</title>
<g id="a_edge5_Node000002_Node000006"><a xlink:title=" ">
<path fill="none" stroke="#63b8ff" d="M510.23,-132.25C502.34,-132.25 494.28,-132.25 486.28,-132.25"/>
<polygon fill="#63b8ff" stroke="#63b8ff" points="510.12,-135.75 520.12,-132.25 510.12,-128.75 510.12,-135.75"/>
</a>
</g>
</g>
<!-- Node4 -->
<g id="Node000004" class="node">
<title>Node4</title>
<g id="a_Node000004"><a xlink:href="class_config_manager.html#a9e977107b4795fcbce0482711ff1ce7a" target="_top" xlink:title="Setup logging API endpoints.">
<polygon fill="white" stroke="#666666" points="269.75,-104.88 147.25,-104.88 147.25,-85.62 269.75,-85.62 269.75,-104.88"/>
<text xml:space="preserve" text-anchor="middle" x="208.5" y="-91.38" font-family="Helvetica,sans-Serif" font-size="10.00">ConfigManager::logsAPI</text>
</a>
</g>
</g>
<!-- Node3&#45;&gt;Node4 -->
<g id="edge3_Node000003_Node000004" class="edge">
<title>Node3&#45;&gt;Node4</title>
<g id="a_edge3_Node000003_Node000004"><a xlink:title=" ">
<path fill="none" stroke="#63b8ff" d="M321.01,-156.32C315.79,-154.8 310.66,-153.11 305.75,-151.25 274.49,-139.37 241.52,-117.97 223.43,-105.35"/>
<polygon fill="#63b8ff" stroke="#63b8ff" points="319.78,-159.61 330.35,-158.81 321.59,-152.85 319.78,-159.61"/>
</a>
</g>
</g>
<!-- Node5 -->
<g id="Node000005" class="node">
<title>Node5</title>
<g id="a_Node000005"><a xlink:href="class_config_manager.html#a0497343220fc493f5cf9574922508908" target="_top" xlink:title="Initialize the configuration system.">
<polygon fill="white" stroke="#666666" points="111.25,-104.88 0,-104.88 0,-85.62 111.25,-85.62 111.25,-104.88"/>
<text xml:space="preserve" text-anchor="middle" x="55.62" y="-91.38" font-family="Helvetica,sans-Serif" font-size="10.00">ConfigManager::begin</text>
</a>
</g>
</g>
<!-- Node4&#45;&gt;Node5 -->
<g id="edge4_Node000004_Node000005" class="edge">
<title>Node4&#45;&gt;Node5</title>
<g id="a_edge4_Node000004_Node000005"><a xlink:title=" ">
<path fill="none" stroke="#63b8ff" d="M135.54,-95.25C127.38,-95.25 119.17,-95.25 111.28,-95.25"/>
<polygon fill="#63b8ff" stroke="#63b8ff" points="135.49,-98.75 145.49,-95.25 135.49,-91.75 135.49,-98.75"/>
</a>
</g>
</g>
<!-- Node6&#45;&gt;Node4 -->
<g id="edge6_Node000006_Node000004" class="edge">
<title>Node6&#45;&gt;Node4</title>
<g id="a_edge6_Node000006_Node000004"><a xlink:title=" ">
<path fill="none" stroke="#63b8ff" d="M333.2,-119.94C309.47,-115.2 282.67,-109.85 260.09,-105.35"/>
<polygon fill="#63b8ff" stroke="#63b8ff" points="332.24,-123.32 342.74,-121.84 333.61,-116.45 332.24,-123.32"/>
</a>
</g>
</g>
<!-- Node8 -->
<g id="Node000008" class="node">
<title>Node8</title>
<g id="a_Node000008"><a xlink:href="class_logger_manager.html#a752cebdb1c0344890d265af9daee8313" target="_top" xlink:title=" ">
<polygon fill="white" stroke="#666666" points="479.25,-104.88 312.5,-104.88 312.5,-85.62 479.25,-85.62 479.25,-104.88"/>
<text xml:space="preserve" text-anchor="middle" x="395.88" y="-91.38" font-family="Helvetica,sans-Serif" font-size="10.00">LoggerManager::getEventLogsCsv</text>
</a>
</g>
</g>
<!-- Node7&#45;&gt;Node8 -->
<g id="edge8_Node000007_Node000008" class="edge">
<title>Node7&#45;&gt;Node8</title>
<g id="a_edge8_Node000007_Node000008"><a xlink:title=" ">
<path fill="none" stroke="#63b8ff" d="M510.39,-80.96C499.46,-82.33 488.21,-83.75 477.22,-85.13"/>
<polygon fill="#63b8ff" stroke="#63b8ff" points="510.64,-84.45 520.13,-79.73 509.77,-77.51 510.64,-84.45"/>
</a>
</g>
</g>
<!-- Node9 -->
<g id="Node000009" class="node">
<title>Node9</title>
<g id="a_Node000009"><a xlink:href="class_logger_manager.html#a8e154caf5cdb9dd50722e2f52314e383" target="_top" xlink:title=" ">
<polygon fill="white" stroke="#666666" points="480.75,-67.88 311,-67.88 311,-48.62 480.75,-48.62 480.75,-67.88"/>
<text xml:space="preserve" text-anchor="middle" x="395.88" y="-54.38" font-family="Helvetica,sans-Serif" font-size="10.00">LoggerManager::getEventLogsJson</text>
</a>
</g>
</g>
<!-- Node7&#45;&gt;Node9 -->
<g id="edge10_Node000007_Node000009" class="edge">
<title>Node7&#45;&gt;Node9</title>
<g id="a_edge10_Node000007_Node000009"><a xlink:title=" ">
<path fill="none" stroke="#63b8ff" d="M510.16,-65.98C500.64,-65.33 490.86,-64.66 481.24,-64"/>
<polygon fill="#63b8ff" stroke="#63b8ff" points="509.91,-69.47 520.12,-66.65 510.38,-62.48 509.91,-69.47"/>
</a>
</g>
</g>
<!-- Node10 -->
<g id="Node000010" class="node">
<title>Node10</title>
<g id="a_Node000010"><a xlink:href="class_logger_manager.html#ab16e7ab4b0cc70674b9b87118f72d805" target="_top" xlink:title=" ">
<polygon fill="white" stroke="#666666" points="467.62,-30.5 324.12,-30.5 324.12,0 467.62,0 467.62,-30.5"/>
<text xml:space="preserve" text-anchor="start" x="332.12" y="-17" font-family="Helvetica,sans-Serif" font-size="10.00">LoggerManager::getEventLog</text>
<text xml:space="preserve" text-anchor="middle" x="395.88" y="-5.75" font-family="Helvetica,sans-Serif" font-size="10.00">StatsJson</text>
</a>
</g>
</g>
<!-- Node7&#45;&gt;Node10 -->
<g id="edge12_Node000007_Node000010" class="edge">
<title>Node7&#45;&gt;Node10</title>
<g id="a_edge12_Node000007_Node000010"><a xlink:title=" ">
<path fill="none" stroke="#63b8ff" d="M528.23,-52.1C514.4,-47.76 499.71,-43.26 486,-39.25 476.46,-36.46 466.32,-33.62 456.42,-30.91"/>
<polygon fill="#63b8ff" stroke="#63b8ff" points="527.06,-55.4 537.65,-55.07 529.17,-48.73 527.06,-55.4"/>
</a>
</g>
</g>
<!-- Node8&#45;&gt;Node4 -->
<g id="edge9_Node000008_Node000004" class="edge">
<title>Node8&#45;&gt;Node4</title>
<g id="a_edge9_Node000008_Node000004"><a xlink:title=" ">
<path fill="none" stroke="#63b8ff" d="M300.87,-95.25C290.39,-95.25 279.93,-95.25 270.04,-95.25"/>
<polygon fill="#63b8ff" stroke="#63b8ff" points="300.7,-98.75 310.7,-95.25 300.7,-91.75 300.7,-98.75"/>
</a>
</g>
</g>
<!-- Node9&#45;&gt;Node4 -->
<g id="edge11_Node000009_Node000004" class="edge">
<title>Node9&#45;&gt;Node4</title>
<g id="a_edge11_Node000009_Node000004"><a xlink:title=" ">
<path fill="none" stroke="#63b8ff" d="M333.2,-70.56C309.47,-75.3 282.67,-80.65 260.09,-85.15"/>
<polygon fill="#63b8ff" stroke="#63b8ff" points="333.61,-74.05 342.74,-68.66 332.24,-67.18 333.61,-74.05"/>
</a>
</g>
</g>
<!-- Node10&#45;&gt;Node4 -->
<g id="edge13_Node000010_Node000004" class="edge">
<title>Node10&#45;&gt;Node4</title>
<g id="a_edge13_Node000010_Node000004"><a xlink:title=" ">
<path fill="none" stroke="#63b8ff" d="M318.26,-34.45C313.99,-35.96 309.79,-37.56 305.75,-39.25 275.06,-52.05 242.16,-72.93 223.87,-85.25"/>
<polygon fill="#63b8ff" stroke="#63b8ff" points="319.17,-37.84 327.55,-31.35 316.96,-31.2 319.17,-37.84"/>
</a>
</g>
</g>
</g>
</svg>
