<?xml version="1.0" encoding="UTF-8" standalone="no"?>
<!DOCTYPE svg PUBLIC "-//W3C//DTD SVG 1.1//EN"
 "http://www.w3.org/Graphics/SVG/1.1/DTD/svg11.dtd">
<!-- Generated by graphviz version 13.1.0 (20250701.0955)
 -->
<!-- Title: TemperatureController::bindSensorToPointByChipSelect Pages: 1 -->
<svg width="566pt" height="334pt"
 viewBox="0.00 0.00 566.00 334.00" xmlns="http://www.w3.org/2000/svg" xmlns:xlink="http://www.w3.org/1999/xlink">
<g id="graph0" class="graph" transform="scale(1 1) rotate(0) translate(4 330.25)">
<title>TemperatureController::bindSensorToPointByChipSelect</title>
<!-- Node1 -->
<g id="Node000001" class="node">
<title>Node1</title>
<g id="a_Node000001"><a xlink:title="Bind PT1000 sensor to measurement point by chip select pin.">
<polygon fill="#999999" stroke="#666666" points="163.75,-168.88 0,-168.88 0,-138.38 163.75,-138.38 163.75,-168.88"/>
<text xml:space="preserve" text-anchor="start" x="8" y="-155.38" font-family="Helvetica,sans-Serif" font-size="10.00">TemperatureController</text>
<text xml:space="preserve" text-anchor="middle" x="81.88" y="-144.12" font-family="Helvetica,sans-Serif" font-size="10.00">::bindSensorToPointByChipSelect</text>
</a>
</g>
</g>
<!-- Node2 -->
<g id="Node000002" class="node">
<title>Node2</title>
<g id="a_Node000002"><a xlink:href="class_measurement_point.html#a3c3af28d9aabc9e5b9e2e370eaa29ce0" target="_top" xlink:title="Bind a physical sensor to this measurement point.">
<polygon fill="white" stroke="#666666" points="360.5,-326.25 208,-326.25 208,-307 360.5,-307 360.5,-326.25"/>
<text xml:space="preserve" text-anchor="middle" x="284.25" y="-312.75" font-family="Helvetica,sans-Serif" font-size="10.00">MeasurementPoint::bindSensor</text>
</a>
</g>
</g>
<!-- Node1&#45;&gt;Node2 -->
<g id="edge1_Node000001_Node000002" class="edge">
<title>Node1&#45;&gt;Node2</title>
<g id="a_edge1_Node000001_Node000002"><a xlink:title=" ">
<path fill="none" stroke="#63b8ff" d="M90.79,-169.07C106.94,-198.95 146.71,-264.64 199.75,-297.62 202.38,-299.26 205.14,-300.76 207.98,-302.13"/>
<polygon fill="#63b8ff" stroke="#63b8ff" points="206.62,-305.35 217.2,-305.95 209.3,-298.88 206.62,-305.35"/>
</a>
</g>
</g>
<!-- Node3 -->
<g id="Node000003" class="node">
<title>Node3</title>
<g id="a_Node000003"><a xlink:href="class_temperature_controller.html#a31a8a32868beaae06649a5006ca96599" target="_top" xlink:title="Find PT1000 sensor by chip select pin.">
<polygon fill="white" stroke="#666666" points="348.5,-288.88 220,-288.88 220,-258.38 348.5,-258.38 348.5,-288.88"/>
<text xml:space="preserve" text-anchor="start" x="228" y="-275.38" font-family="Helvetica,sans-Serif" font-size="10.00">TemperatureController</text>
<text xml:space="preserve" text-anchor="middle" x="284.25" y="-264.12" font-family="Helvetica,sans-Serif" font-size="10.00">::findSensorByChipSelect</text>
</a>
</g>
</g>
<!-- Node1&#45;&gt;Node3 -->
<g id="edge2_Node000001_Node000003" class="edge">
<title>Node1&#45;&gt;Node3</title>
<g id="a_edge2_Node000001_Node000003"><a xlink:title=" ">
<path fill="none" stroke="#63b8ff" d="M98.07,-169.35C119.09,-190.27 159.07,-227.1 199.75,-248.62 203.2,-250.45 206.8,-252.16 210.49,-253.76"/>
<polygon fill="#63b8ff" stroke="#63b8ff" points="209.06,-256.96 219.65,-257.43 211.66,-250.46 209.06,-256.96"/>
</a>
</g>
</g>
<!-- Node4 -->
<g id="Node000004" class="node">
<title>Node4</title>
<g id="a_Node000004"><a xlink:href="class_temperature_controller.html#a880028883101197527de57f626e14512" target="_top" xlink:title="Get all alarms associated with a measurement point.">
<polygon fill="white" stroke="#666666" points="340.25,-239.88 228.25,-239.88 228.25,-209.38 340.25,-209.38 340.25,-239.88"/>
<text xml:space="preserve" text-anchor="start" x="236.25" y="-226.38" font-family="Helvetica,sans-Serif" font-size="10.00">TemperatureController</text>
<text xml:space="preserve" text-anchor="middle" x="284.25" y="-215.12" font-family="Helvetica,sans-Serif" font-size="10.00">::getAlarmsForPoint</text>
</a>
</g>
</g>
<!-- Node1&#45;&gt;Node4 -->
<g id="edge3_Node000001_Node000004" class="edge">
<title>Node1&#45;&gt;Node4</title>
<g id="a_edge3_Node000001_Node000004"><a xlink:title=" ">
<path fill="none" stroke="#63b8ff" d="M120.47,-169.35C143.24,-178.64 172.96,-190.36 199.75,-199.62 205.56,-201.63 211.63,-203.64 217.73,-205.58"/>
<polygon fill="#63b8ff" stroke="#63b8ff" points="216.66,-208.91 227.25,-208.56 218.75,-202.23 216.66,-208.91"/>
</a>
</g>
</g>
<!-- Node6 -->
<g id="Node000006" class="node">
<title>Node6</title>
<g id="a_Node000006"><a xlink:href="class_temperature_controller.html#a494f057c234b4ff7526bde271aec9267" target="_top" xlink:title="Get measurement point by address.">
<polygon fill="white" stroke="#666666" points="342.88,-190.88 225.62,-190.88 225.62,-160.38 342.88,-160.38 342.88,-190.88"/>
<text xml:space="preserve" text-anchor="start" x="233.62" y="-177.38" font-family="Helvetica,sans-Serif" font-size="10.00">TemperatureController</text>
<text xml:space="preserve" text-anchor="middle" x="284.25" y="-166.12" font-family="Helvetica,sans-Serif" font-size="10.00">::getMeasurementPoint</text>
</a>
</g>
</g>
<!-- Node1&#45;&gt;Node6 -->
<g id="edge5_Node000001_Node000006" class="edge">
<title>Node1&#45;&gt;Node6</title>
<g id="a_edge5_Node000001_Node000006"><a xlink:title=" ">
<path fill="none" stroke="#63b8ff" d="M164.09,-162.54C180.75,-164.37 198.13,-166.28 214.31,-168.06"/>
<polygon fill="#63b8ff" stroke="#63b8ff" points="213.46,-171.48 223.79,-169.1 214.23,-164.53 213.46,-171.48"/>
</a>
</g>
</g>
<!-- Node9 -->
<g id="Node000009" class="node">
<title>Node9</title>
<g id="a_Node000009"><a xlink:href="class_measurement_point.html#aa3a80d373c7609c7b178bf7353ffdd7a" target="_top" xlink:title="Get measurement point name.">
<polygon fill="white" stroke="#666666" points="356,-142.25 212.5,-142.25 212.5,-123 356,-123 356,-142.25"/>
<text xml:space="preserve" text-anchor="middle" x="284.25" y="-128.75" font-family="Helvetica,sans-Serif" font-size="10.00">MeasurementPoint::getName</text>
</a>
</g>
</g>
<!-- Node1&#45;&gt;Node9 -->
<g id="edge8_Node000001_Node000009" class="edge">
<title>Node1&#45;&gt;Node9</title>
<g id="a_edge8_Node000001_Node000009"><a xlink:title=" ">
<path fill="none" stroke="#63b8ff" d="M164.09,-145.11C176.3,-143.83 188.9,-142.51 201.12,-141.23"/>
<polygon fill="#63b8ff" stroke="#63b8ff" points="201.14,-144.75 210.72,-140.23 200.41,-137.79 201.14,-144.75"/>
</a>
</g>
</g>
<!-- Node10 -->
<g id="Node000010" class="node">
<title>Node10</title>
<g id="a_Node000010"><a xlink:href="class_logger_manager.html#a5c1373ccc47f4112b596fe6f84fbbc21" target="_top" xlink:title="Log informational message (static convenience method)">
<polygon fill="white" stroke="#666666" points="336.5,-105.25 232,-105.25 232,-86 336.5,-86 336.5,-105.25"/>
<text xml:space="preserve" text-anchor="middle" x="284.25" y="-91.75" font-family="Helvetica,sans-Serif" font-size="10.00">LoggerManager::info</text>
</a>
</g>
</g>
<!-- Node1&#45;&gt;Node10 -->
<g id="edge9_Node000001_Node000010" class="edge">
<title>Node1&#45;&gt;Node10</title>
<g id="a_edge9_Node000001_Node000010"><a xlink:title=" ">
<path fill="none" stroke="#63b8ff" d="M124.97,-137.88C147.04,-129.97 174.64,-120.6 199.75,-113.62 206.5,-111.75 213.6,-109.95 220.7,-108.27"/>
<polygon fill="#63b8ff" stroke="#63b8ff" points="221.35,-111.71 230.32,-106.06 219.79,-104.89 221.35,-111.71"/>
</a>
</g>
</g>
<!-- Node11 -->
<g id="Node000011" class="node">
<title>Node11</title>
<g id="a_Node000011"><a xlink:href="class_temperature_controller.html#ad3819418f9f301f3f7047ba686a11be0" target="_top" xlink:title="Unbind sensor from any measurement point it&#39;s bound to.">
<polygon fill="white" stroke="#666666" points="368.75,-67.88 199.75,-67.88 199.75,-37.38 368.75,-37.38 368.75,-67.88"/>
<text xml:space="preserve" text-anchor="start" x="207.75" y="-54.38" font-family="Helvetica,sans-Serif" font-size="10.00">TemperatureController</text>
<text xml:space="preserve" text-anchor="middle" x="284.25" y="-43.12" font-family="Helvetica,sans-Serif" font-size="10.00">::unbindSensorFromPointBySensor</text>
</a>
</g>
</g>
<!-- Node1&#45;&gt;Node11 -->
<g id="edge10_Node000001_Node000011" class="edge">
<title>Node1&#45;&gt;Node11</title>
<g id="a_edge10_Node000001_Node000011"><a xlink:title=" ">
<path fill="none" stroke="#63b8ff" d="M102.47,-138.02C124.84,-120.86 163.11,-93.48 199.75,-76.62 203.11,-75.08 206.59,-73.61 210.13,-72.22"/>
<polygon fill="#63b8ff" stroke="#63b8ff" points="211.32,-75.51 219.51,-68.79 208.91,-68.94 211.32,-75.51"/>
</a>
</g>
</g>
<!-- Node13 -->
<g id="Node000013" class="node">
<title>Node13</title>
<g id="a_Node000013"><a xlink:href="class_logger_manager.html#a0d52b0ff7bff22817e987ad753102854" target="_top" xlink:title="Log warning message (static convenience method)">
<polygon fill="white" stroke="#666666" points="345.5,-19.25 223,-19.25 223,0 345.5,0 345.5,-19.25"/>
<text xml:space="preserve" text-anchor="middle" x="284.25" y="-5.75" font-family="Helvetica,sans-Serif" font-size="10.00">LoggerManager::warning</text>
</a>
</g>
</g>
<!-- Node1&#45;&gt;Node13 -->
<g id="edge12_Node000001_Node000013" class="edge">
<title>Node1&#45;&gt;Node13</title>
<g id="a_edge12_Node000001_Node000013"><a xlink:title=" ">
<path fill="none" stroke="#63b8ff" d="M92.7,-138.17C110.56,-111.4 151.06,-56.59 199.75,-28.62 203.63,-26.4 207.75,-24.43 212,-22.7"/>
<polygon fill="#63b8ff" stroke="#63b8ff" points="213.11,-26.02 221.34,-19.35 210.75,-19.42 213.11,-26.02"/>
</a>
</g>
</g>
<!-- Node5 -->
<g id="Node000005" class="node">
<title>Node5</title>
<g id="a_Node000005"><a xlink:href="class_measurement_point.html#a7b74a18d86e0e545264a774aa2c31cad" target="_top" xlink:title="Get measurement point address.">
<polygon fill="white" stroke="#666666" points="558,-234.25 404.75,-234.25 404.75,-215 558,-215 558,-234.25"/>
<text xml:space="preserve" text-anchor="middle" x="481.38" y="-220.75" font-family="Helvetica,sans-Serif" font-size="10.00">MeasurementPoint::getAddress</text>
</a>
</g>
</g>
<!-- Node4&#45;&gt;Node5 -->
<g id="edge4_Node000004_Node000005" class="edge">
<title>Node4&#45;&gt;Node5</title>
<g id="a_edge4_Node000004_Node000005"><a xlink:title=" ">
<path fill="none" stroke="#63b8ff" d="M340.64,-224.62C356.99,-224.62 375.29,-224.62 393.12,-224.62"/>
<polygon fill="#63b8ff" stroke="#63b8ff" points="392.93,-228.13 402.93,-224.63 392.93,-221.13 392.93,-228.13"/>
</a>
</g>
</g>
<!-- Node7 -->
<g id="Node000007" class="node">
<title>Node7</title>
<g id="a_Node000007"><a xlink:href="class_temperature_controller.html#ad322a5bab8d5788a586206004248f673" target="_top" xlink:title="Check if address is for DS18B20 sensor.">
<polygon fill="white" stroke="#666666" points="537.38,-193.88 425.38,-193.88 425.38,-163.38 537.38,-163.38 537.38,-193.88"/>
<text xml:space="preserve" text-anchor="start" x="433.38" y="-180.38" font-family="Helvetica,sans-Serif" font-size="10.00">TemperatureController</text>
<text xml:space="preserve" text-anchor="middle" x="481.38" y="-169.12" font-family="Helvetica,sans-Serif" font-size="10.00">::isDS18B20Address</text>
</a>
</g>
</g>
<!-- Node6&#45;&gt;Node7 -->
<g id="edge6_Node000006_Node000007" class="edge">
<title>Node6&#45;&gt;Node7</title>
<g id="a_edge6_Node000006_Node000007"><a xlink:title=" ">
<path fill="none" stroke="#63b8ff" d="M343.27,-176.52C365.37,-176.86 390.73,-177.25 413.59,-177.6"/>
<polygon fill="#63b8ff" stroke="#63b8ff" points="413.36,-181.09 423.41,-177.75 413.47,-174.1 413.36,-181.09"/>
</a>
</g>
</g>
<!-- Node8 -->
<g id="Node000008" class="node">
<title>Node8</title>
<g id="a_Node000008"><a xlink:href="class_temperature_controller.html#a13125ddcf29cb56d27403818543618af" target="_top" xlink:title="Check if address is for PT1000 sensor.">
<polygon fill="white" stroke="#666666" points="537.38,-144.88 425.38,-144.88 425.38,-114.38 537.38,-114.38 537.38,-144.88"/>
<text xml:space="preserve" text-anchor="start" x="433.38" y="-131.38" font-family="Helvetica,sans-Serif" font-size="10.00">TemperatureController</text>
<text xml:space="preserve" text-anchor="middle" x="481.38" y="-120.12" font-family="Helvetica,sans-Serif" font-size="10.00">::isPT1000Address</text>
</a>
</g>
</g>
<!-- Node6&#45;&gt;Node8 -->
<g id="edge7_Node000006_Node000008" class="edge">
<title>Node6&#45;&gt;Node8</title>
<g id="a_edge7_Node000006_Node000008"><a xlink:title=" ">
<path fill="none" stroke="#63b8ff" d="M343.27,-161.95C365.47,-156.71 390.96,-150.7 413.9,-145.3"/>
<polygon fill="#63b8ff" stroke="#63b8ff" points="414.52,-148.75 423.45,-143.04 412.92,-141.93 414.52,-148.75"/>
</a>
</g>
</g>
<!-- Node12 -->
<g id="Node000012" class="node">
<title>Node12</title>
<g id="a_Node000012"><a xlink:href="class_sensor.html#a60ec96ed03660b42681c1bcc99007033" target="_top" xlink:title="Get sensor name.">
<polygon fill="white" stroke="#666666" points="527.62,-62.25 435.12,-62.25 435.12,-43 527.62,-43 527.62,-62.25"/>
<text xml:space="preserve" text-anchor="middle" x="481.38" y="-48.75" font-family="Helvetica,sans-Serif" font-size="10.00">Sensor::getName</text>
</a>
</g>
</g>
<!-- Node11&#45;&gt;Node12 -->
<g id="edge11_Node000011_Node000012" class="edge">
<title>Node11&#45;&gt;Node12</title>
<g id="a_edge11_Node000011_Node000012"><a xlink:title=" ">
<path fill="none" stroke="#63b8ff" d="M369.13,-52.62C387.43,-52.62 406.38,-52.62 423.34,-52.62"/>
<polygon fill="#63b8ff" stroke="#63b8ff" points="423.22,-56.13 433.22,-52.63 423.22,-49.13 423.22,-56.13"/>
</a>
</g>
</g>
</g>
</svg>
