<?xml version="1.0" encoding="UTF-8" standalone="no"?>
<!DOCTYPE svg PUBLIC "-//W3C//DTD SVG 1.1//EN"
 "http://www.w3.org/Graphics/SVG/1.1/DTD/svg11.dtd">
<!-- Generated by graphviz version 13.1.0 (20250701.0955)
 -->
<!-- Title: LoggerManager::_writeDataRow Pages: 1 -->
<svg width="374pt" height="174pt"
 viewBox="0.00 0.00 374.00 174.00" xmlns="http://www.w3.org/2000/svg" xmlns:xlink="http://www.w3.org/1999/xlink">
<g id="graph0" class="graph" transform="scale(1 1) rotate(0) translate(4 169.88)">
<title>LoggerManager::_writeDataRow</title>
<!-- Node1 -->
<g id="Node000001" class="node">
<title>Node1</title>
<g id="a_Node000001"><a xlink:title=" ">
<polygon fill="#999999" stroke="#666666" points="156.25,-86.25 0,-86.25 0,-67 156.25,-67 156.25,-86.25"/>
<text xml:space="preserve" text-anchor="middle" x="78.12" y="-72.75" font-family="Helvetica,sans-Serif" font-size="10.00">LoggerManager::_writeDataRow</text>
</a>
</g>
</g>
<!-- Node2 -->
<g id="Node000002" class="node">
<title>Node2</title>
<g id="a_Node000002"><a xlink:href="class_logger_manager.html#a3ca0b934265a4d9ce6391bf97dec179a" target="_top" xlink:title=" ">
<polygon fill="white" stroke="#666666" points="348.88,-165.88 209.12,-165.88 209.12,-135.38 348.88,-135.38 348.88,-165.88"/>
<text xml:space="preserve" text-anchor="start" x="217.12" y="-152.38" font-family="Helvetica,sans-Serif" font-size="10.00">LoggerManager::_getCurrent</text>
<text xml:space="preserve" text-anchor="middle" x="279" y="-141.12" font-family="Helvetica,sans-Serif" font-size="10.00">DateString</text>
</a>
</g>
</g>
<!-- Node1&#45;&gt;Node2 -->
<g id="edge1_Node000001_Node000002" class="edge">
<title>Node1&#45;&gt;Node2</title>
<g id="a_edge1_Node000001_Node000002"><a xlink:title=" ">
<path fill="none" stroke="#63b8ff" d="M100.07,-86.64C122.54,-97.16 159.43,-113.79 192.25,-125.62 197.9,-127.66 203.81,-129.66 209.76,-131.58"/>
<polygon fill="#63b8ff" stroke="#63b8ff" points="208.45,-134.83 219.04,-134.48 210.54,-128.15 208.45,-134.83"/>
</a>
</g>
</g>
<!-- Node3 -->
<g id="Node000003" class="node">
<title>Node3</title>
<g id="a_Node000003"><a xlink:href="class_logger_manager.html#a4f31651f8963f741bfbdb944164ffc15" target="_top" xlink:title=" ">
<polygon fill="white" stroke="#666666" points="348.88,-116.88 209.12,-116.88 209.12,-86.38 348.88,-86.38 348.88,-116.88"/>
<text xml:space="preserve" text-anchor="start" x="217.12" y="-103.38" font-family="Helvetica,sans-Serif" font-size="10.00">LoggerManager::_getCurrent</text>
<text xml:space="preserve" text-anchor="middle" x="279" y="-92.12" font-family="Helvetica,sans-Serif" font-size="10.00">TimeString</text>
</a>
</g>
</g>
<!-- Node1&#45;&gt;Node3 -->
<g id="edge2_Node000001_Node000003" class="edge">
<title>Node1&#45;&gt;Node3</title>
<g id="a_edge2_Node000001_Node000003"><a xlink:title=" ">
<path fill="none" stroke="#63b8ff" d="M156.58,-86.36C170.05,-88.05 184.08,-89.82 197.61,-91.52"/>
<polygon fill="#63b8ff" stroke="#63b8ff" points="196.99,-94.97 207.35,-92.74 197.86,-88.02 196.99,-94.97"/>
</a>
</g>
</g>
<!-- Node4 -->
<g id="Node000004" class="node">
<title>Node4</title>
<g id="a_Node000004"><a xlink:href="class_measurement_point.html#a81c7ae93a9314344967d0f31c6fefe2f" target="_top" xlink:title="Get pointer to bound sensor.">
<polygon fill="white" stroke="#666666" points="351.5,-67.88 206.5,-67.88 206.5,-37.38 351.5,-37.38 351.5,-67.88"/>
<text xml:space="preserve" text-anchor="start" x="214.5" y="-54.38" font-family="Helvetica,sans-Serif" font-size="10.00">MeasurementPoint::getBound</text>
<text xml:space="preserve" text-anchor="middle" x="279" y="-43.12" font-family="Helvetica,sans-Serif" font-size="10.00">Sensor</text>
</a>
</g>
</g>
<!-- Node1&#45;&gt;Node4 -->
<g id="edge3_Node000001_Node000004" class="edge">
<title>Node1&#45;&gt;Node4</title>
<g id="a_edge3_Node000001_Node000004"><a xlink:title=" ">
<path fill="none" stroke="#63b8ff" d="M156.58,-67.28C169.24,-65.75 182.39,-64.16 195.17,-62.62"/>
<polygon fill="#63b8ff" stroke="#63b8ff" points="195.26,-66.13 204.77,-61.46 194.43,-59.19 195.26,-66.13"/>
</a>
</g>
</g>
<!-- Node5 -->
<g id="Node000005" class="node">
<title>Node5</title>
<g id="a_Node000005"><a xlink:href="class_measurement_point.html#aceaf14fde40bcd5331e5ea6a07d7dde8" target="_top" xlink:title="Get current temperature.">
<polygon fill="white" stroke="#666666" points="365.75,-19.25 192.25,-19.25 192.25,0 365.75,0 365.75,-19.25"/>
<text xml:space="preserve" text-anchor="middle" x="279" y="-5.75" font-family="Helvetica,sans-Serif" font-size="10.00">MeasurementPoint::getCurrentTemp</text>
</a>
</g>
</g>
<!-- Node1&#45;&gt;Node5 -->
<g id="edge4_Node000001_Node000005" class="edge">
<title>Node1&#45;&gt;Node5</title>
<g id="a_edge4_Node000001_Node000005"><a xlink:title=" ">
<path fill="none" stroke="#63b8ff" d="M99.54,-66.61C121.87,-55.99 158.93,-39.29 192.25,-28.62 199.37,-26.35 206.91,-24.24 214.45,-22.33"/>
<polygon fill="#63b8ff" stroke="#63b8ff" points="215.08,-25.78 223.97,-20.03 213.43,-18.98 215.08,-25.78"/>
</a>
</g>
</g>
</g>
</svg>
