<?xml version="1.0" encoding="UTF-8" standalone="no"?>
<!DOCTYPE svg PUBLIC "-//W3C//DTD SVG 1.1//EN"
 "http://www.w3.org/Graphics/SVG/1.1/DTD/svg11.dtd">
<!-- Generated by graphviz version 13.1.0 (20250701.0955)
 -->
<!-- Title: LoggerManager::_getCurrentDateString Pages: 1 -->
<svg width="865pt" height="619pt"
 viewBox="0.00 0.00 865.00 619.00" xmlns="http://www.w3.org/2000/svg" xmlns:xlink="http://www.w3.org/1999/xlink">
<g id="graph0" class="graph" transform="scale(1 1) rotate(0) translate(4 614.85)">
<title>LoggerManager::_getCurrentDateString</title>
<!-- Node1 -->
<g id="Node000001" class="node">
<title>Node1</title>
<g id="a_Node000001"><a xlink:title=" ">
<polygon fill="#999999" stroke="#666666" points="857,-296.28 717.25,-296.28 717.25,-265.78 857,-265.78 857,-296.28"/>
<text xml:space="preserve" text-anchor="start" x="725.25" y="-282.78" font-family="Helvetica,sans-Serif" font-size="10.00">LoggerManager::_getCurrent</text>
<text xml:space="preserve" text-anchor="middle" x="787.12" y="-271.53" font-family="Helvetica,sans-Serif" font-size="10.00">DateString</text>
</a>
</g>
</g>
<!-- Node2 -->
<g id="Node000002" class="node">
<title>Node2</title>
<g id="a_Node000002"><a xlink:href="$class_logger_manager.html#ae1e64f32a756b1a0f481eb1d57e8026e" xlink:title=" ">
<polygon fill="white" stroke="#666666" points="668.88,-494.28 537.38,-494.28 537.38,-463.78 668.88,-463.78 668.88,-494.28"/>
<text xml:space="preserve" text-anchor="start" x="545.38" y="-480.78" font-family="Helvetica,sans-Serif" font-size="10.00">LoggerManager::_generate</text>
<text xml:space="preserve" text-anchor="middle" x="603.12" y="-469.53" font-family="Helvetica,sans-Serif" font-size="10.00">AlarmStateLogFileName</text>
</a>
</g>
</g>
<!-- Node1&#45;&gt;Node2 -->
<g id="edge1_Node000001_Node000002" class="edge">
<title>Node1&#45;&gt;Node2</title>
<g id="a_edge1_Node000001_Node000002"><a xlink:title=" ">
<path fill="none" stroke="#63b8ff" d="M776.33,-307.07C761.25,-343.82 729.01,-410.81 681.25,-450.03 674.73,-455.39 667.11,-459.82 659.26,-463.46"/>
<polygon fill="#63b8ff" stroke="#63b8ff" points="779.45,-308.69 779.9,-298.1 772.95,-306.1 779.45,-308.69"/>
</a>
</g>
</g>
<!-- Node3 -->
<g id="Node000003" class="node">
<title>Node3</title>
<g id="a_Node000003"><a xlink:href="$class_logger_manager.html#a4acf0149820d73f4ed11340f63706841" xlink:title="Begin logging operations.">
<polygon fill="white" stroke="#666666" points="115,-407.66 3,-407.66 3,-388.41 115,-388.41 115,-407.66"/>
<text xml:space="preserve" text-anchor="middle" x="59" y="-394.16" font-family="Helvetica,sans-Serif" font-size="10.00">LoggerManager::begin</text>
</a>
</g>
</g>
<!-- Node1&#45;&gt;Node3 -->
<g id="edge29_Node000001_Node000003" class="edge">
<title>Node1&#45;&gt;Node3</title>
<g id="a_edge29_Node000001_Node000003"><a xlink:title=" ">
<path fill="none" stroke="#63b8ff" d="M757.94,-303.35C737.71,-318.24 709.2,-337.05 681.25,-348.03 522.1,-410.57 473.05,-401.64 302.75,-417.03 236.91,-422.98 219.78,-423.61 154,-417.03 136.44,-415.27 117.3,-411.72 100.91,-408.15"/>
<polygon fill="#63b8ff" stroke="#63b8ff" points="759.8,-306.33 765.68,-297.52 755.59,-300.74 759.8,-306.33"/>
</a>
</g>
</g>
<!-- Node4 -->
<g id="Node000004" class="node">
<title>Node4</title>
<g id="a_Node000004"><a xlink:href="$class_logger_manager.html#af736040bd57412bef8981960e6df3bda" xlink:title=" ">
<polygon fill="white" stroke="#666666" points="489,-559.66 338.75,-559.66 338.75,-540.41 489,-540.41 489,-559.66"/>
<text xml:space="preserve" text-anchor="middle" x="413.88" y="-546.16" font-family="Helvetica,sans-Serif" font-size="10.00">LoggerManager::logAlarmState</text>
</a>
</g>
</g>
<!-- Node1&#45;&gt;Node4 -->
<g id="edge31_Node000001_Node000004" class="edge">
<title>Node1&#45;&gt;Node4</title>
<g id="a_edge31_Node000001_Node000004"><a xlink:title=" ">
<path fill="none" stroke="#63b8ff" d="M781.64,-307.92C772.2,-355.44 745.61,-453.9 681.25,-503.03 626.57,-544.78 547.24,-554.14 489.38,-554.5"/>
<polygon fill="#63b8ff" stroke="#63b8ff" points="785.05,-308.69 783.45,-298.22 778.17,-307.41 785.05,-308.69"/>
</a>
</g>
</g>
<!-- Node5 -->
<g id="Node000005" class="node">
<title>Node5</title>
<g id="a_Node000005"><a xlink:href="$class_logger_manager.html#a9cf35430e1e61515c6fb12524a58f1ab" xlink:title=" ">
<polygon fill="white" stroke="#666666" points="668.88,-339.28 537.38,-339.28 537.38,-308.78 668.88,-308.78 668.88,-339.28"/>
<text xml:space="preserve" text-anchor="start" x="545.38" y="-325.78" font-family="Helvetica,sans-Serif" font-size="10.00">LoggerManager::_generate</text>
<text xml:space="preserve" text-anchor="middle" x="603.12" y="-314.53" font-family="Helvetica,sans-Serif" font-size="10.00">EventLogFileName</text>
</a>
</g>
</g>
<!-- Node1&#45;&gt;Node5 -->
<g id="edge4_Node000001_Node000005" class="edge">
<title>Node1&#45;&gt;Node5</title>
<g id="a_edge4_Node000001_Node000005"><a xlink:title=" ">
<path fill="none" stroke="#63b8ff" d="M708.71,-299.32C695.55,-302.43 682.01,-305.63 669.21,-308.66"/>
<polygon fill="#63b8ff" stroke="#63b8ff" points="709.25,-302.79 718.17,-297.09 707.64,-295.98 709.25,-302.79"/>
</a>
</g>
</g>
<!-- Node6 -->
<g id="Node000006" class="node">
<title>Node6</title>
<g id="a_Node000006"><a xlink:href="$class_logger_manager.html#a59e0690d922ec968bf64b1b5dda8fcbe" xlink:title="Initialize the logging system.">
<polygon fill="white" stroke="#666666" points="109.75,-521.66 8.25,-521.66 8.25,-502.41 109.75,-502.41 109.75,-521.66"/>
<text xml:space="preserve" text-anchor="middle" x="59" y="-508.16" font-family="Helvetica,sans-Serif" font-size="10.00">LoggerManager::init</text>
</a>
</g>
</g>
<!-- Node1&#45;&gt;Node6 -->
<g id="edge30_Node000001_Node000006" class="edge">
<title>Node1&#45;&gt;Node6</title>
<g id="a_edge30_Node000001_Node000006"><a xlink:title=" ">
<path fill="none" stroke="#63b8ff" d="M783.94,-307.81C778,-361.69 756.53,-483.11 681.25,-542.03 493.76,-688.79 168.35,-560.48 81.71,-522.07"/>
<polygon fill="#63b8ff" stroke="#63b8ff" points="787.41,-308.31 784.91,-298.01 780.44,-307.61 787.41,-308.31"/>
</a>
</g>
</g>
<!-- Node7 -->
<g id="Node000007" class="node">
<title>Node7</title>
<g id="a_Node000007"><a xlink:href="$class_logger_manager.html#a0df2f2c96123da1989d0aaf6a4dc1615" xlink:title=" ">
<polygon fill="white" stroke="#666666" points="477.38,-333.66 350.38,-333.66 350.38,-314.41 477.38,-314.41 477.38,-333.66"/>
<text xml:space="preserve" text-anchor="middle" x="413.88" y="-320.16" font-family="Helvetica,sans-Serif" font-size="10.00">LoggerManager::logEvent</text>
</a>
</g>
</g>
<!-- Node1&#45;&gt;Node7 -->
<g id="edge32_Node000001_Node000007" class="edge">
<title>Node1&#45;&gt;Node7</title>
<g id="a_edge32_Node000001_Node000007"><a xlink:title=" ">
<path fill="none" stroke="#63b8ff" d="M705.39,-283.95C653.63,-286.54 585.12,-291.34 525,-300.03 501.47,-303.43 475.47,-309.01 454.64,-313.94"/>
<polygon fill="#63b8ff" stroke="#63b8ff" points="705.51,-287.44 715.33,-283.47 705.17,-280.45 705.51,-287.44"/>
</a>
</g>
</g>
<!-- Node11 -->
<g id="Node000011" class="node">
<title>Node11</title>
<g id="a_Node000011"><a xlink:href="$class_logger_manager.html#a830c86f1f27d3799eab1de908fc6b647" xlink:title=" ">
<polygon fill="white" stroke="#666666" points="118,-176.66 0,-176.66 0,-157.41 118,-157.41 118,-176.66"/>
<text xml:space="preserve" text-anchor="middle" x="59" y="-163.16" font-family="Helvetica,sans-Serif" font-size="10.00">LoggerManager::update</text>
</a>
</g>
</g>
<!-- Node1&#45;&gt;Node11 -->
<g id="edge33_Node000001_Node000011" class="edge">
<title>Node1&#45;&gt;Node11</title>
<g id="a_edge33_Node000001_Node000011"><a xlink:title=" ">
<path fill="none" stroke="#63b8ff" d="M781.33,-254.41C771.56,-208.84 744.65,-116.88 681.25,-76.03 582.72,-12.55 261.72,-43.84 154,-90.03 117.55,-105.66 83.94,-139.86 68.66,-156.93"/>
<polygon fill="#63b8ff" stroke="#63b8ff" points="777.85,-254.85 783.26,-263.96 784.71,-253.46 777.85,-254.85"/>
</a>
</g>
</g>
<!-- Node13 -->
<g id="Node000013" class="node">
<title>Node13</title>
<g id="a_Node000013"><a xlink:href="$class_logger_manager.html#ae7ff7b324efe85cc2ba892af36cf7e86" xlink:title=" ">
<polygon fill="white" stroke="#666666" points="479.62,-106.28 348.12,-106.28 348.12,-75.78 479.62,-75.78 479.62,-106.28"/>
<text xml:space="preserve" text-anchor="start" x="356.12" y="-92.78" font-family="Helvetica,sans-Serif" font-size="10.00">LoggerManager::_generate</text>
<text xml:space="preserve" text-anchor="middle" x="413.88" y="-81.53" font-family="Helvetica,sans-Serif" font-size="10.00">LogFileName</text>
</a>
</g>
</g>
<!-- Node1&#45;&gt;Node13 -->
<g id="edge16_Node000001_Node000013" class="edge">
<title>Node1&#45;&gt;Node13</title>
<g id="a_edge16_Node000001_Node000013"><a xlink:title=" ">
<path fill="none" stroke="#63b8ff" d="M777.74,-254.69C764.16,-216.8 733.46,-147.98 681.25,-116.03 620.63,-78.94 537.32,-77.26 480.1,-81.9"/>
<polygon fill="#63b8ff" stroke="#63b8ff" points="774.36,-255.62 780.92,-263.95 780.98,-253.35 774.36,-255.62"/>
</a>
</g>
</g>
<!-- Node14 -->
<g id="Node000014" class="node">
<title>Node14</title>
<g id="a_Node000014"><a xlink:href="$class_logger_manager.html#ad3276c1ba03fe7e5b98e33cd207baf1f" xlink:title=" ">
<polygon fill="white" stroke="#666666" points="671.88,-155.28 534.38,-155.28 534.38,-124.78 671.88,-124.78 671.88,-155.28"/>
<text xml:space="preserve" text-anchor="start" x="542.38" y="-141.78" font-family="Helvetica,sans-Serif" font-size="10.00">LoggerManager::_generate</text>
<text xml:space="preserve" text-anchor="middle" x="603.12" y="-130.53" font-family="Helvetica,sans-Serif" font-size="10.00">LogFileNameWithSequence</text>
</a>
</g>
</g>
<!-- Node1&#45;&gt;Node14 -->
<g id="edge17_Node000001_Node000014" class="edge">
<title>Node1&#45;&gt;Node14</title>
<g id="a_edge17_Node000001_Node000014"><a xlink:title=" ">
<path fill="none" stroke="#63b8ff" d="M768.45,-256.31C749.42,-231.27 717.04,-192.94 681.25,-169.03 673.52,-163.87 664.74,-159.45 655.95,-155.75"/>
<polygon fill="#63b8ff" stroke="#63b8ff" points="765.61,-258.36 774.39,-264.3 771.23,-254.18 765.61,-258.36"/>
</a>
</g>
</g>
<!-- Node17 -->
<g id="Node000017" class="node">
<title>Node17</title>
<g id="a_Node000017"><a xlink:href="$class_logger_manager.html#ac7866b2b0244358be6a1cfe8d245cc7d" xlink:title=" ">
<polygon fill="white" stroke="#666666" points="302.75,-182.28 154,-182.28 154,-151.78 302.75,-151.78 302.75,-182.28"/>
<text xml:space="preserve" text-anchor="start" x="162" y="-168.78" font-family="Helvetica,sans-Serif" font-size="10.00">LoggerManager::_recoverFrom</text>
<text xml:space="preserve" text-anchor="middle" x="228.38" y="-157.53" font-family="Helvetica,sans-Serif" font-size="10.00">ExistingFiles</text>
</a>
</g>
</g>
<!-- Node1&#45;&gt;Node17 -->
<g id="edge23_Node000001_Node000017" class="edge">
<title>Node1&#45;&gt;Node17</title>
<g id="a_edge23_Node000001_Node000017"><a xlink:title=" ">
<path fill="none" stroke="#63b8ff" d="M718.68,-262.37C658.71,-246.22 568.48,-223.02 489,-207.03 426.63,-194.49 355.14,-183.74 302.99,-176.55"/>
<polygon fill="#63b8ff" stroke="#63b8ff" points="717.48,-265.67 728.05,-264.9 719.31,-258.91 717.48,-265.67"/>
</a>
</g>
</g>
<!-- Node18 -->
<g id="Node000018" class="node">
<title>Node18</title>
<g id="a_Node000018"><a xlink:href="$class_logger_manager.html#aa6938b6a5c002d6ed72ef352f0cc7a19" xlink:title=" ">
<polygon fill="white" stroke="#666666" points="681.25,-19.66 525,-19.66 525,-0.41 681.25,-0.41 681.25,-19.66"/>
<text xml:space="preserve" text-anchor="middle" x="603.12" y="-6.16" font-family="Helvetica,sans-Serif" font-size="10.00">LoggerManager::_writeDataRow</text>
</a>
</g>
</g>
<!-- Node1&#45;&gt;Node18 -->
<g id="edge26_Node000001_Node000018" class="edge">
<title>Node1&#45;&gt;Node18</title>
<g id="a_edge26_Node000001_Node000018"><a xlink:title=" ">
<path fill="none" stroke="#63b8ff" d="M782.26,-254.18C773.57,-203.68 747.79,-94.24 681.25,-34.03 674.6,-28.01 666.45,-23.5 657.97,-20.12"/>
<polygon fill="#63b8ff" stroke="#63b8ff" points="778.78,-254.6 783.83,-263.91 785.69,-253.48 778.78,-254.6"/>
</a>
</g>
</g>
<!-- Node2&#45;&gt;Node3 -->
<g id="edge2_Node000002_Node000003" class="edge">
<title>Node2&#45;&gt;Node3</title>
<g id="a_edge2_Node000002_Node000003"><a xlink:title=" ">
<path fill="none" stroke="#63b8ff" d="M525.88,-484.09C435.28,-487.85 280.46,-487.08 154,-450.03 123.04,-440.96 90.99,-420.4 73.47,-408.03"/>
<polygon fill="#63b8ff" stroke="#63b8ff" points="525.8,-487.6 535.63,-483.66 525.49,-480.61 525.8,-487.6"/>
</a>
</g>
</g>
<!-- Node2&#45;&gt;Node4 -->
<g id="edge3_Node000002_Node000004" class="edge">
<title>Node2&#45;&gt;Node4</title>
<g id="a_edge3_Node000002_Node000004"><a xlink:title=" ">
<path fill="none" stroke="#63b8ff" d="M555.93,-499.21C535.56,-507.86 511.24,-517.83 489,-526.03 475.67,-530.95 460.81,-535.87 447.91,-539.96"/>
<polygon fill="#63b8ff" stroke="#63b8ff" points="557.29,-502.44 565.11,-495.29 554.54,-496 557.29,-502.44"/>
</a>
</g>
</g>
<!-- Node5&#45;&gt;Node6 -->
<g id="edge5_Node000005_Node000006" class="edge">
<title>Node5&#45;&gt;Node6</title>
<g id="a_edge5_Node000005_Node000006"><a xlink:title=" ">
<path fill="none" stroke="#63b8ff" d="M546.24,-343.41C432.08,-383 175.59,-471.95 89.11,-501.94"/>
<polygon fill="#63b8ff" stroke="#63b8ff" points="547.1,-346.82 555.41,-340.23 544.81,-340.2 547.1,-346.82"/>
</a>
</g>
</g>
<!-- Node5&#45;&gt;Node7 -->
<g id="edge6_Node000005_Node000007" class="edge">
<title>Node5&#45;&gt;Node7</title>
<g id="a_edge6_Node000005_Node000007"><a xlink:title=" ">
<path fill="none" stroke="#63b8ff" d="M525.47,-324.03C509.57,-324.03 492.99,-324.03 477.66,-324.03"/>
<polygon fill="#63b8ff" stroke="#63b8ff" points="525.38,-327.53 535.38,-324.03 525.38,-320.53 525.38,-327.53"/>
</a>
</g>
</g>
<!-- Node5&#45;&gt;Node11 -->
<g id="edge15_Node000005_Node000011" class="edge">
<title>Node5&#45;&gt;Node11</title>
<g id="a_edge15_Node000005_Node000011"><a xlink:title=" ">
<path fill="none" stroke="#63b8ff" d="M544.68,-304.73C484.63,-284.8 387.51,-253.28 302.75,-229.03 301.51,-228.68 168.04,-194.61 99.57,-177.13"/>
<polygon fill="#63b8ff" stroke="#63b8ff" points="543.42,-307.99 554.01,-307.83 545.63,-301.35 543.42,-307.99"/>
</a>
</g>
</g>
<!-- Node8 -->
<g id="Node000008" class="node">
<title>Node8</title>
<g id="a_Node000008"><a xlink:href="$class_logger_manager.html#a5bda848c9bd87201bf6addd035c493b1" xlink:title=" ">
<polygon fill="white" stroke="#666666" points="294.5,-370.66 162.25,-370.66 162.25,-351.41 294.5,-351.41 294.5,-370.66"/>
<text xml:space="preserve" text-anchor="middle" x="228.38" y="-357.16" font-family="Helvetica,sans-Serif" font-size="10.00">LoggerManager::logCritical</text>
</a>
</g>
</g>
<!-- Node7&#45;&gt;Node8 -->
<g id="edge7_Node000007_Node000008" class="edge">
<title>Node7&#45;&gt;Node8</title>
<g id="a_edge7_Node000007_Node000008"><a xlink:title=" ">
<path fill="none" stroke="#63b8ff" d="M351.51,-336.41C328.09,-341.13 301.7,-346.45 279.46,-350.93"/>
<polygon fill="#63b8ff" stroke="#63b8ff" points="352.14,-339.85 361.25,-334.44 350.75,-332.99 352.14,-339.85"/>
</a>
</g>
</g>
<!-- Node9 -->
<g id="Node000009" class="node">
<title>Node9</title>
<g id="a_Node000009"><a xlink:href="$class_logger_manager.html#a181e69ea6fe3c7e07e708eada2cc8024" xlink:title=" ">
<polygon fill="white" stroke="#666666" points="289.62,-333.66 167.12,-333.66 167.12,-314.41 289.62,-314.41 289.62,-333.66"/>
<text xml:space="preserve" text-anchor="middle" x="228.38" y="-320.16" font-family="Helvetica,sans-Serif" font-size="10.00">LoggerManager::logError</text>
</a>
</g>
</g>
<!-- Node7&#45;&gt;Node9 -->
<g id="edge8_Node000007_Node000009" class="edge">
<title>Node7&#45;&gt;Node9</title>
<g id="a_edge8_Node000007_Node000009"><a xlink:title=" ">
<path fill="none" stroke="#63b8ff" d="M338.89,-324.03C322.66,-324.03 305.65,-324.03 290.02,-324.03"/>
<polygon fill="#63b8ff" stroke="#63b8ff" points="338.47,-327.53 348.47,-324.03 338.47,-320.53 338.47,-327.53"/>
</a>
</g>
</g>
<!-- Node10 -->
<g id="Node000010" class="node">
<title>Node10</title>
<g id="a_Node000010"><a xlink:href="$class_logger_manager.html#a2503703714729cc95171579fe4ce0d4c" xlink:title=" ">
<polygon fill="white" stroke="#666666" points="287.38,-407.66 169.38,-407.66 169.38,-388.41 287.38,-388.41 287.38,-407.66"/>
<text xml:space="preserve" text-anchor="middle" x="228.38" y="-394.16" font-family="Helvetica,sans-Serif" font-size="10.00">LoggerManager::logInfo</text>
</a>
</g>
</g>
<!-- Node7&#45;&gt;Node10 -->
<g id="edge9_Node000007_Node000010" class="edge">
<title>Node7&#45;&gt;Node10</title>
<g id="a_edge9_Node000007_Node000010"><a xlink:title=" ">
<path fill="none" stroke="#63b8ff" d="M386.42,-339.67C364.58,-352.04 332.47,-369 302.75,-380.03 294.63,-383.04 285.83,-385.7 277.22,-387.98"/>
<polygon fill="#63b8ff" stroke="#63b8ff" points="388.02,-342.79 394.94,-334.77 384.53,-336.72 388.02,-342.79"/>
</a>
</g>
</g>
<!-- Node12 -->
<g id="Node000012" class="node">
<title>Node12</title>
<g id="a_Node000012"><a xlink:href="$class_logger_manager.html#a5768a8a1983298c5b94e23dabe18f3bb" xlink:title=" ">
<polygon fill="white" stroke="#666666" points="296.75,-257.66 160,-257.66 160,-238.41 296.75,-238.41 296.75,-257.66"/>
<text xml:space="preserve" text-anchor="middle" x="228.38" y="-244.16" font-family="Helvetica,sans-Serif" font-size="10.00">LoggerManager::logWarning</text>
</a>
</g>
</g>
<!-- Node7&#45;&gt;Node12 -->
<g id="edge13_Node000007_Node000012" class="edge">
<title>Node7&#45;&gt;Node12</title>
<g id="a_edge13_Node000007_Node000012"><a xlink:title=" ">
<path fill="none" stroke="#63b8ff" d="M377.88,-309.54C341.45,-294.45 285.35,-271.21 253.55,-258.04"/>
<polygon fill="#63b8ff" stroke="#63b8ff" points="376.53,-312.77 387.11,-313.36 379.21,-306.3 376.53,-312.77"/>
</a>
</g>
</g>
<!-- Node10&#45;&gt;Node3 -->
<g id="edge10_Node000010_Node000003" class="edge">
<title>Node10&#45;&gt;Node3</title>
<g id="a_edge10_Node000010_Node000003"><a xlink:title=" ">
<path fill="none" stroke="#63b8ff" d="M158.06,-398.03C143.85,-398.03 129.08,-398.03 115.43,-398.03"/>
<polygon fill="#63b8ff" stroke="#63b8ff" points="157.79,-401.53 167.79,-398.03 157.79,-394.53 157.79,-401.53"/>
</a>
</g>
</g>
<!-- Node10&#45;&gt;Node6 -->
<g id="edge11_Node000010_Node000006" class="edge">
<title>Node10&#45;&gt;Node6</title>
<g id="a_edge11_Node000010_Node000006"><a xlink:title=" ">
<path fill="none" stroke="#63b8ff" d="M203.42,-414.35C168.19,-438.34 103.46,-482.43 74.58,-502.1"/>
<polygon fill="#63b8ff" stroke="#63b8ff" points="204.98,-417.52 211.27,-409 201.04,-411.74 204.98,-417.52"/>
</a>
</g>
</g>
<!-- Node10&#45;&gt;Node11 -->
<g id="edge12_Node000010_Node000011" class="edge">
<title>Node10&#45;&gt;Node11</title>
<g id="a_edge12_Node000010_Node000011"><a xlink:title=" ">
<path fill="none" stroke="#63b8ff" d="M159.35,-383.98C157.49,-382.77 155.7,-381.45 154,-380.03 87.1,-323.93 66.18,-210.86 61.27,-176.9"/>
<polygon fill="#63b8ff" stroke="#63b8ff" points="157.41,-386.91 167.89,-388.52 160.7,-380.73 157.41,-386.91"/>
</a>
</g>
</g>
<!-- Node12&#45;&gt;Node11 -->
<g id="edge14_Node000012_Node000011" class="edge">
<title>Node12&#45;&gt;Node11</title>
<g id="a_edge14_Node000012_Node000011"><a xlink:title=" ">
<path fill="none" stroke="#63b8ff" d="M180.28,-234.4C171.41,-231.34 162.31,-227.85 154,-224.03 124.17,-210.33 91.99,-189.31 74.09,-176.99"/>
<polygon fill="#63b8ff" stroke="#63b8ff" points="178.89,-237.63 189.48,-237.44 181.09,-230.98 178.89,-237.63"/>
</a>
</g>
</g>
<!-- Node14&#45;&gt;Node3 -->
<g id="edge19_Node000014_Node000003" class="edge">
<title>Node14&#45;&gt;Node3</title>
<g id="a_edge19_Node000014_Node000003"><a xlink:title=" ">
<path fill="none" stroke="#63b8ff" d="M559.85,-160.37C502.58,-187.37 396.66,-235.32 302.75,-267.03 238.1,-288.86 213.38,-271.42 154,-305.03 115.24,-326.97 81.24,-369.07 67.05,-388.17"/>
<polygon fill="#63b8ff" stroke="#63b8ff" points="561.06,-163.67 568.6,-156.23 558.06,-157.34 561.06,-163.67"/>
</a>
</g>
</g>
<!-- Node14&#45;&gt;Node13 -->
<g id="edge18_Node000014_Node000013" class="edge">
<title>Node14&#45;&gt;Node13</title>
<g id="a_edge18_Node000014_Node000013"><a xlink:title=" ">
<path fill="none" stroke="#63b8ff" d="M531.07,-121.44C512.54,-116.59 492.76,-111.41 474.88,-106.73"/>
<polygon fill="#63b8ff" stroke="#63b8ff" points="530.08,-124.8 540.64,-123.94 531.85,-118.02 530.08,-124.8"/>
</a>
</g>
</g>
<!-- Node15 -->
<g id="Node000015" class="node">
<title>Node15</title>
<g id="a_Node000015"><a xlink:href="$class_logger_manager.html#a445856fb9bb37bd5e61d5242d8996c1f" xlink:title=" ">
<polygon fill="white" stroke="#666666" points="481.88,-155.28 345.88,-155.28 345.88,-124.78 481.88,-124.78 481.88,-155.28"/>
<text xml:space="preserve" text-anchor="start" x="353.88" y="-141.78" font-family="Helvetica,sans-Serif" font-size="10.00">LoggerManager::createNew</text>
<text xml:space="preserve" text-anchor="middle" x="413.88" y="-130.53" font-family="Helvetica,sans-Serif" font-size="10.00">LogFile</text>
</a>
</g>
</g>
<!-- Node14&#45;&gt;Node15 -->
<g id="edge20_Node000014_Node000015" class="edge">
<title>Node14&#45;&gt;Node15</title>
<g id="a_edge20_Node000014_Node000015"><a xlink:title=" ">
<path fill="none" stroke="#63b8ff" d="M522.8,-140.03C509.33,-140.03 495.46,-140.03 482.33,-140.03"/>
<polygon fill="#63b8ff" stroke="#63b8ff" points="522.48,-143.53 532.48,-140.03 522.48,-136.53 522.48,-143.53"/>
</a>
</g>
</g>
<!-- Node15&#45;&gt;Node11 -->
<g id="edge22_Node000015_Node000011" class="edge">
<title>Node15&#45;&gt;Node11</title>
<g id="a_edge22_Node000015_Node000011"><a xlink:title=" ">
<path fill="none" stroke="#63b8ff" d="M355.11,-120.83C331.56,-113.16 308.49,-105.92 302.75,-105.03 237.42,-94.9 217.32,-86.03 154,-105.03 119.92,-115.26 86.79,-142.28 70.48,-157.05"/>
<polygon fill="#63b8ff" stroke="#63b8ff" points="353.87,-124.11 364.47,-123.89 356.05,-117.46 353.87,-124.11"/>
</a>
</g>
</g>
<!-- Node16 -->
<g id="Node000016" class="node">
<title>Node16</title>
<g id="a_Node000016"><a xlink:href="$class_logger_manager.html#a32e39dd8df48f64677732ede4066f01d" xlink:title=" ">
<polygon fill="white" stroke="#666666" points="301.62,-133.66 155.12,-133.66 155.12,-114.41 301.62,-114.41 301.62,-133.66"/>
<text xml:space="preserve" text-anchor="middle" x="228.38" y="-120.16" font-family="Helvetica,sans-Serif" font-size="10.00">LoggerManager::forceNewFile</text>
</a>
</g>
</g>
<!-- Node15&#45;&gt;Node16 -->
<g id="edge21_Node000015_Node000016" class="edge">
<title>Node15&#45;&gt;Node16</title>
<g id="a_edge21_Node000015_Node000016"><a xlink:title=" ">
<path fill="none" stroke="#63b8ff" d="M334.45,-133.19C323.65,-132.25 312.59,-131.29 301.91,-130.36"/>
<polygon fill="#63b8ff" stroke="#63b8ff" points="333.81,-136.65 344.08,-134.03 334.42,-129.68 333.81,-136.65"/>
</a>
</g>
</g>
<!-- Node17&#45;&gt;Node3 -->
<g id="edge24_Node000017_Node000003" class="edge">
<title>Node17&#45;&gt;Node3</title>
<g id="a_edge24_Node000017_Node000003"><a xlink:title=" ">
<path fill="none" stroke="#63b8ff" d="M196.15,-189.3C182.19,-200.24 166.17,-214.24 154,-229.03 109.63,-282.96 75.31,-360.82 64,-388.12"/>
<polygon fill="#63b8ff" stroke="#63b8ff" points="197.94,-192.34 203.76,-183.5 193.69,-186.78 197.94,-192.34"/>
</a>
</g>
</g>
<!-- Node17&#45;&gt;Node11 -->
<g id="edge25_Node000017_Node000011" class="edge">
<title>Node17&#45;&gt;Node11</title>
<g id="a_edge25_Node000017_Node000011"><a xlink:title=" ">
<path fill="none" stroke="#63b8ff" d="M142.71,-167.03C134.44,-167.03 126.19,-167.03 118.27,-167.03"/>
<polygon fill="#63b8ff" stroke="#63b8ff" points="142.45,-170.53 152.45,-167.03 142.45,-163.53 142.45,-170.53"/>
</a>
</g>
</g>
<!-- Node19 -->
<g id="Node000019" class="node">
<title>Node19</title>
<g id="a_Node000019"><a xlink:href="$class_logger_manager.html#a32ce9f462269787130bee46b2c34b632" xlink:title=" ">
<polygon fill="white" stroke="#666666" points="485.25,-19.66 342.5,-19.66 342.5,-0.41 485.25,-0.41 485.25,-19.66"/>
<text xml:space="preserve" text-anchor="middle" x="413.88" y="-6.16" font-family="Helvetica,sans-Serif" font-size="10.00">LoggerManager::logDataNow</text>
</a>
</g>
</g>
<!-- Node18&#45;&gt;Node19 -->
<g id="edge27_Node000018_Node000019" class="edge">
<title>Node18&#45;&gt;Node19</title>
<g id="a_edge27_Node000018_Node000019"><a xlink:title=" ">
<path fill="none" stroke="#63b8ff" d="M513.36,-10.03C504.1,-10.03 494.76,-10.03 485.73,-10.03"/>
<polygon fill="#63b8ff" stroke="#63b8ff" points="513.1,-13.53 523.1,-10.03 513.1,-6.53 513.1,-13.53"/>
</a>
</g>
</g>
<!-- Node19&#45;&gt;Node11 -->
<g id="edge28_Node000019_Node000011" class="edge">
<title>Node19&#45;&gt;Node11</title>
<g id="a_edge28_Node000019_Node000011"><a xlink:title=" ">
<path fill="none" stroke="#63b8ff" d="M330.95,-0.68C277.2,1.56 207.27,-3.25 154,-34.03 103.57,-63.18 73.43,-131.54 63.59,-157.13"/>
<polygon fill="#63b8ff" stroke="#63b8ff" points="330.49,-4.16 340.65,-1.18 330.85,2.83 330.49,-4.16"/>
</a>
</g>
</g>
</g>
</svg>
