<?xml version="1.0" encoding="UTF-8" standalone="no"?>
<!DOCTYPE svg PUBLIC "-//W3C//DTD SVG 1.1//EN"
 "http://www.w3.org/Graphics/SVG/1.1/DTD/svg11.dtd">
<!-- Generated by graphviz version 13.1.0 (20250701.0955)
 -->
<!-- Title: Alarm::Alarm Pages: 1 -->
<svg width="212pt" height="64pt"
 viewBox="0.00 0.00 212.00 64.00" xmlns="http://www.w3.org/2000/svg" xmlns:xlink="http://www.w3.org/1999/xlink">
<g id="graph0" class="graph" transform="scale(1 1) rotate(0) translate(4 60.25)">
<title>Alarm::Alarm</title>
<!-- Node1 -->
<g id="Node000001" class="node">
<title>Node1</title>
<g id="a_Node000001"><a xlink:title="Constructor for creating a new alarm.">
<polygon fill="#999999" stroke="#666666" points="203.75,-37.25 130.75,-37.25 130.75,-18 203.75,-18 203.75,-37.25"/>
<text xml:space="preserve" text-anchor="middle" x="167.25" y="-23.75" font-family="Helvetica,sans-Serif" font-size="10.00">Alarm::Alarm</text>
</a>
</g>
</g>
<!-- Node2 -->
<g id="Node000002" class="node">
<title>Node2</title>
<g id="a_Node000002"><a xlink:href="class_alarm.html#ab9867ec0c314549960584f4ae01328f8" target="_top" xlink:title="Less&#45;than comparison operator for alarm sorting.">
<polygon fill="white" stroke="#666666" points="91.75,-56.25 3,-56.25 3,-37 91.75,-37 91.75,-56.25"/>
<text xml:space="preserve" text-anchor="middle" x="47.38" y="-42.75" font-family="Helvetica,sans-Serif" font-size="10.00">Alarm::operator&lt;</text>
</a>
</g>
</g>
<!-- Node1&#45;&gt;Node2 -->
<g id="edge1_Node000001_Node000002" class="edge">
<title>Node1&#45;&gt;Node2</title>
<g id="a_edge1_Node000001_Node000002"><a xlink:title=" ">
<path fill="none" stroke="#63b8ff" d="M119.35,-35.18C110.28,-36.65 100.8,-38.17 91.85,-39.62"/>
<polygon fill="#63b8ff" stroke="#63b8ff" points="119.75,-38.66 129.07,-33.62 118.64,-31.75 119.75,-38.66"/>
</a>
</g>
</g>
<!-- Node3 -->
<g id="Node000003" class="node">
<title>Node3</title>
<g id="a_Node000003"><a xlink:href="class_alarm.html#a2a6049ea9b003e51f5ac17aba40bb1ad" target="_top" xlink:title="Equality comparison operator.">
<polygon fill="white" stroke="#666666" points="94.75,-19.25 0,-19.25 0,0 94.75,0 94.75,-19.25"/>
<text xml:space="preserve" text-anchor="middle" x="47.38" y="-5.75" font-family="Helvetica,sans-Serif" font-size="10.00">Alarm::operator==</text>
</a>
</g>
</g>
<!-- Node1&#45;&gt;Node3 -->
<g id="edge2_Node000001_Node000003" class="edge">
<title>Node1&#45;&gt;Node3</title>
<g id="a_edge2_Node000001_Node000003"><a xlink:title=" ">
<path fill="none" stroke="#63b8ff" d="M119.41,-20.47C111.32,-19.24 102.91,-17.95 94.84,-16.72"/>
<polygon fill="#63b8ff" stroke="#63b8ff" points="118.65,-23.9 129.07,-21.95 119.71,-16.98 118.65,-23.9"/>
</a>
</g>
</g>
</g>
</svg>
