<?xml version="1.0" encoding="UTF-8" standalone="no"?>
<!DOCTYPE svg PUBLIC "-//W3C//DTD SVG 1.1//EN"
 "http://www.w3.org/Graphics/SVG/1.1/DTD/svg11.dtd">
<!-- Generated by graphviz version 13.1.0 (20250701.0955)
 -->
<!-- Title: Alarm::getTypeString Pages: 1 -->
<svg width="590pt" height="448pt"
 viewBox="0.00 0.00 590.00 448.00" xmlns="http://www.w3.org/2000/svg" xmlns:xlink="http://www.w3.org/1999/xlink">
<g id="graph0" class="graph" transform="scale(1 1) rotate(0) translate(4 444.25)">
<title>Alarm::getTypeString</title>
<!-- Node1 -->
<g id="Node000001" class="node">
<title>Node1</title>
<g id="a_Node000001"><a xlink:title=" ">
<polygon fill="#999999" stroke="#666666" points="582.25,-222.25 474.75,-222.25 474.75,-203 582.25,-203 582.25,-222.25"/>
<text xml:space="preserve" text-anchor="middle" x="528.5" y="-208.75" font-family="Helvetica,sans-Serif" font-size="10.00">Alarm::getTypeString</text>
</a>
</g>
</g>
<!-- Node2 -->
<g id="Node000002" class="node">
<title>Node2</title>
<g id="a_Node000002"><a xlink:href="class_alarm.html#aa14f5a764303b269f04573867e2e4fc8" target="_top" xlink:title=" ">
<polygon fill="white" stroke="#666666" points="435,-440.25 330.5,-440.25 330.5,-421 435,-421 435,-440.25"/>
<text xml:space="preserve" text-anchor="middle" x="382.75" y="-426.75" font-family="Helvetica,sans-Serif" font-size="10.00">Alarm::acknowledge</text>
</a>
</g>
</g>
<!-- Node1&#45;&gt;Node2 -->
<g id="edge1_Node000001_Node000002" class="edge">
<title>Node1&#45;&gt;Node2</title>
<g id="a_edge1_Node000001_Node000002"><a xlink:title=" ">
<path fill="none" stroke="#63b8ff" d="M523.97,-233.74C516.09,-274.28 493.3,-363.34 438.75,-412.62 435.25,-415.79 431.17,-418.4 426.86,-420.55"/>
<polygon fill="#63b8ff" stroke="#63b8ff" points="527.38,-234.56 525.72,-224.1 520.49,-233.31 527.38,-234.56"/>
</a>
</g>
</g>
<!-- Node4 -->
<g id="Node000004" class="node">
<title>Node4</title>
<g id="a_Node000004"><a xlink:href="class_temperature_controller.html#ac5c3403746d7c850bf7929bf5ee3448a" target="_top" xlink:title=" ">
<polygon fill="white" stroke="#666666" points="438.75,-365.88 326.75,-365.88 326.75,-335.38 438.75,-335.38 438.75,-365.88"/>
<text xml:space="preserve" text-anchor="start" x="334.75" y="-352.38" font-family="Helvetica,sans-Serif" font-size="10.00">TemperatureController</text>
<text xml:space="preserve" text-anchor="middle" x="382.75" y="-341.12" font-family="Helvetica,sans-Serif" font-size="10.00">::addAlarm</text>
</a>
</g>
</g>
<!-- Node1&#45;&gt;Node4 -->
<g id="edge3_Node000001_Node000004" class="edge">
<title>Node1&#45;&gt;Node4</title>
<g id="a_edge3_Node000001_Node000004"><a xlink:title=" ">
<path fill="none" stroke="#63b8ff" d="M516.46,-232.26C501.62,-257.13 473.09,-299.95 438.75,-326.62 434.8,-329.69 430.4,-332.45 425.85,-334.91"/>
<polygon fill="#63b8ff" stroke="#63b8ff" points="519.37,-234.22 521.36,-223.82 513.31,-230.71 519.37,-234.22"/>
</a>
</g>
</g>
<!-- Node5 -->
<g id="Node000005" class="node">
<title>Node5</title>
<g id="a_Node000005"><a xlink:href="class_alarm.html#abf159b68e429d66de4ab2d10c2ccd44b" target="_top" xlink:title=" ">
<polygon fill="white" stroke="#666666" points="419.25,-317.25 346.25,-317.25 346.25,-298 419.25,-298 419.25,-317.25"/>
<text xml:space="preserve" text-anchor="middle" x="382.75" y="-303.75" font-family="Helvetica,sans-Serif" font-size="10.00">Alarm::Alarm</text>
</a>
</g>
</g>
<!-- Node1&#45;&gt;Node5 -->
<g id="edge4_Node000001_Node000005" class="edge">
<title>Node1&#45;&gt;Node5</title>
<g id="a_edge4_Node000001_Node000005"><a xlink:title=" ">
<path fill="none" stroke="#63b8ff" d="M508.89,-229.94C491.64,-245.38 464.79,-267.91 438.75,-283.62 430.01,-288.9 419.9,-293.66 410.75,-297.51"/>
<polygon fill="#63b8ff" stroke="#63b8ff" points="510.82,-232.92 515.86,-223.6 506.11,-227.74 510.82,-232.92"/>
</a>
</g>
</g>
<!-- Node8 -->
<g id="Node000008" class="node">
<title>Node8</title>
<g id="a_Node000008"><a xlink:href="class_alarm.html#adc66e3d22e173b00c59b040369030a17" target="_top" xlink:title=" ">
<polygon fill="white" stroke="#666666" points="417,-241.25 348.5,-241.25 348.5,-222 417,-222 417,-241.25"/>
<text xml:space="preserve" text-anchor="middle" x="382.75" y="-227.75" font-family="Helvetica,sans-Serif" font-size="10.00">Alarm::clear</text>
</a>
</g>
</g>
<!-- Node1&#45;&gt;Node8 -->
<g id="edge7_Node000001_Node000008" class="edge">
<title>Node1&#45;&gt;Node8</title>
<g id="a_edge7_Node000001_Node000008"><a xlink:title=" ">
<path fill="none" stroke="#63b8ff" d="M463.06,-221.14C447.33,-223.22 431.12,-225.36 417.48,-227.17"/>
<polygon fill="#63b8ff" stroke="#63b8ff" points="463.43,-224.62 472.88,-219.84 462.51,-217.68 463.43,-224.62"/>
</a>
</g>
</g>
<!-- Node9 -->
<g id="Node000009" class="node">
<title>Node9</title>
<g id="a_Node000009"><a xlink:href="class_alarm.html#abc87fe39e6a9b5beb9f09df780f67621" target="_top" xlink:title=" ">
<polygon fill="white" stroke="#666666" points="278,-241.25 160,-241.25 160,-222 278,-222 278,-241.25"/>
<text xml:space="preserve" text-anchor="middle" x="219" y="-227.75" font-family="Helvetica,sans-Serif" font-size="10.00">Alarm::updateCondition</text>
</a>
</g>
</g>
<!-- Node1&#45;&gt;Node9 -->
<g id="edge24_Node000001_Node000009" class="edge">
<title>Node1&#45;&gt;Node9</title>
<g id="a_edge24_Node000001_Node000009"><a xlink:title=" ">
<path fill="none" stroke="#63b8ff" d="M500.01,-227.83C482.94,-236.39 460.23,-246.22 438.75,-250.62 376.76,-263.34 303.19,-251.57 259.11,-241.73"/>
<polygon fill="#63b8ff" stroke="#63b8ff" points="501.24,-231.14 508.5,-223.43 498.01,-224.92 501.24,-231.14"/>
</a>
</g>
</g>
<!-- Node10 -->
<g id="Node000010" class="node">
<title>Node10</title>
<g id="a_Node000010"><a xlink:href="class_alarm.html#adaf4b74537e11d5643ba5a8ae07fe10e" target="_top" xlink:title=" ">
<polygon fill="white" stroke="#666666" points="436.88,-403.25 328.62,-403.25 328.62,-384 436.88,-384 436.88,-403.25"/>
<text xml:space="preserve" text-anchor="middle" x="382.75" y="-389.75" font-family="Helvetica,sans-Serif" font-size="10.00">Alarm::getStatusText</text>
</a>
</g>
</g>
<!-- Node1&#45;&gt;Node10 -->
<g id="edge9_Node000001_Node000010" class="edge">
<title>Node1&#45;&gt;Node10</title>
<g id="a_edge9_Node000001_Node000010"><a xlink:title=" ">
<path fill="none" stroke="#63b8ff" d="M521.47,-233.63C510.57,-267.96 484.36,-336.12 438.75,-374.62 434.5,-378.21 429.54,-381.13 424.37,-383.51"/>
<polygon fill="#63b8ff" stroke="#63b8ff" points="524.81,-234.66 524.36,-224.08 518.11,-232.63 524.81,-234.66"/>
</a>
</g>
</g>
<!-- Node11 -->
<g id="Node000011" class="node">
<title>Node11</title>
<g id="a_Node000011"><a xlink:href="class_alarm.html#af8d75ee8622a2a96f4bc9b408e9668e5" target="_top" xlink:title=" ">
<polygon fill="white" stroke="#666666" points="427.88,-167.25 337.62,-167.25 337.62,-148 427.88,-148 427.88,-167.25"/>
<text xml:space="preserve" text-anchor="middle" x="382.75" y="-153.75" font-family="Helvetica,sans-Serif" font-size="10.00">Alarm::reactivate</text>
</a>
</g>
</g>
<!-- Node1&#45;&gt;Node11 -->
<g id="edge11_Node000001_Node000011" class="edge">
<title>Node1&#45;&gt;Node11</title>
<g id="a_edge11_Node000001_Node000011"><a xlink:title=" ">
<path fill="none" stroke="#63b8ff" d="M494.43,-198.11C477.84,-191.02 457.36,-182.54 438.75,-175.62 431.4,-172.9 423.43,-170.16 415.89,-167.67"/>
<polygon fill="#63b8ff" stroke="#63b8ff" points="492.75,-201.2 503.32,-201.94 495.52,-194.77 492.75,-201.2"/>
</a>
</g>
</g>
<!-- Node12 -->
<g id="Node000012" class="node">
<title>Node12</title>
<g id="a_Node000012"><a xlink:href="class_alarm.html#a73e7673d61f82aa21441c75f2cee2c6f" target="_top" xlink:title=" ">
<polygon fill="white" stroke="#666666" points="422.25,-204.25 343.25,-204.25 343.25,-185 422.25,-185 422.25,-204.25"/>
<text xml:space="preserve" text-anchor="middle" x="382.75" y="-190.75" font-family="Helvetica,sans-Serif" font-size="10.00">Alarm::resolve</text>
</a>
</g>
</g>
<!-- Node1&#45;&gt;Node12 -->
<g id="edge12_Node000001_Node000012" class="edge">
<title>Node1&#45;&gt;Node12</title>
<g id="a_edge12_Node000001_Node000012"><a xlink:title=" ">
<path fill="none" stroke="#63b8ff" d="M462.97,-204.55C449.24,-202.83 435.15,-201.06 422.72,-199.51"/>
<polygon fill="#63b8ff" stroke="#63b8ff" points="462.52,-208.02 472.88,-205.79 463.39,-201.07 462.52,-208.02"/>
</a>
</g>
</g>
<!-- Node13 -->
<g id="Node000013" class="node">
<title>Node13</title>
<g id="a_Node000013"><a xlink:href="class_alarm.html#acb8f203b2e2317c1f835bb4b19123f3f" target="_top" xlink:title=" ">
<polygon fill="white" stroke="#666666" points="430.88,-93.25 334.62,-93.25 334.62,-74 430.88,-74 430.88,-93.25"/>
<text xml:space="preserve" text-anchor="middle" x="382.75" y="-79.75" font-family="Helvetica,sans-Serif" font-size="10.00">Alarm::setEnabled</text>
</a>
</g>
</g>
<!-- Node1&#45;&gt;Node13 -->
<g id="edge14_Node000001_Node000013" class="edge">
<title>Node1&#45;&gt;Node13</title>
<g id="a_edge14_Node000001_Node000013"><a xlink:title=" ">
<path fill="none" stroke="#63b8ff" d="M516.71,-193.01C502.14,-168.26 473.9,-126 438.75,-101.62 434.21,-98.48 429.08,-95.85 423.83,-93.67"/>
<polygon fill="#63b8ff" stroke="#63b8ff" points="513.51,-194.46 521.51,-201.41 519.59,-190.99 513.51,-194.46"/>
</a>
</g>
</g>
<!-- Node18 -->
<g id="Node000018" class="node">
<title>Node18</title>
<g id="a_Node000018"><a xlink:href="class_alarm.html#a8d031874090c0c0e548a1f2e41ea4979" target="_top" xlink:title=" ">
<polygon fill="white" stroke="#666666" points="436.88,-130.25 328.62,-130.25 328.62,-111 436.88,-111 436.88,-130.25"/>
<text xml:space="preserve" text-anchor="middle" x="382.75" y="-116.75" font-family="Helvetica,sans-Serif" font-size="10.00">Alarm::setHysteresis</text>
</a>
</g>
</g>
<!-- Node1&#45;&gt;Node18 -->
<g id="edge19_Node000001_Node000018" class="edge">
<title>Node1&#45;&gt;Node18</title>
<g id="a_edge19_Node000001_Node000018"><a xlink:title=" ">
<path fill="none" stroke="#63b8ff" d="M510.21,-194.73C493.33,-178.16 466.25,-153.85 438.75,-138.62 433.21,-135.56 427.07,-132.91 420.95,-130.66"/>
<polygon fill="#63b8ff" stroke="#63b8ff" points="507.45,-196.91 516.98,-201.53 512.4,-191.97 507.45,-196.91"/>
</a>
</g>
</g>
<!-- Node19 -->
<g id="Node000019" class="node">
<title>Node19</title>
<g id="a_Node000019"><a xlink:href="class_alarm.html#a5095c54c304a52ebbaca5a2ea74059cd" target="_top" xlink:title=" ">
<polygon fill="white" stroke="#666666" points="428.62,-56.25 336.88,-56.25 336.88,-37 428.62,-37 428.62,-56.25"/>
<text xml:space="preserve" text-anchor="middle" x="382.75" y="-42.75" font-family="Helvetica,sans-Serif" font-size="10.00">Alarm::setPriority</text>
</a>
</g>
</g>
<!-- Node1&#45;&gt;Node19 -->
<g id="edge22_Node000001_Node000019" class="edge">
<title>Node1&#45;&gt;Node19</title>
<g id="a_edge22_Node000001_Node000019"><a xlink:title=" ">
<path fill="none" stroke="#63b8ff" d="M520.53,-192.01C508.71,-160.12 481.74,-98.92 438.75,-64.62 434.82,-61.49 430.33,-58.9 425.65,-56.75"/>
<polygon fill="#63b8ff" stroke="#63b8ff" points="517.17,-193.01 523.81,-201.26 523.76,-190.66 517.17,-193.01"/>
</a>
</g>
</g>
<!-- Node20 -->
<g id="Node000020" class="node">
<title>Node20</title>
<g id="a_Node000020"><a xlink:href="class_alarm.html#adb5fc73041badc6a082b78874559c002" target="_top" xlink:title=" ">
<polygon fill="white" stroke="#666666" points="422.25,-19.25 343.25,-19.25 343.25,0 422.25,0 422.25,-19.25"/>
<text xml:space="preserve" text-anchor="middle" x="382.75" y="-5.75" font-family="Helvetica,sans-Serif" font-size="10.00">Alarm::~Alarm</text>
</a>
</g>
</g>
<!-- Node1&#45;&gt;Node20 -->
<g id="edge25_Node000001_Node000020" class="edge">
<title>Node1&#45;&gt;Node20</title>
<g id="a_edge25_Node000001_Node000020"><a xlink:title=" ">
<path fill="none" stroke="#63b8ff" d="M523.18,-191.76C514.21,-153.64 489.99,-72.55 438.75,-27.62 434.07,-23.52 428.43,-20.34 422.57,-17.89"/>
<polygon fill="#63b8ff" stroke="#63b8ff" points="519.65,-192.04 525.24,-201.04 526.49,-190.52 519.65,-192.04"/>
</a>
</g>
</g>
<!-- Node3 -->
<g id="Node000003" class="node">
<title>Node3</title>
<g id="a_Node000003"><a xlink:href="class_temperature_controller.html#a5f1c8fce1e5efb637bfe86bdb609a3b7" target="_top" xlink:title=" ">
<polygon fill="white" stroke="#666666" points="290.75,-432.5 147.25,-432.5 147.25,-390.75 290.75,-390.75 290.75,-432.5"/>
<text xml:space="preserve" text-anchor="start" x="155.25" y="-419" font-family="Helvetica,sans-Serif" font-size="10.00">TemperatureController</text>
<text xml:space="preserve" text-anchor="start" x="155.25" y="-407.75" font-family="Helvetica,sans-Serif" font-size="10.00">::acknowledgeHighestPriority</text>
<text xml:space="preserve" text-anchor="middle" x="219" y="-396.5" font-family="Helvetica,sans-Serif" font-size="10.00">Alarm</text>
</a>
</g>
</g>
<!-- Node2&#45;&gt;Node3 -->
<g id="edge2_Node000002_Node000003" class="edge">
<title>Node2&#45;&gt;Node3</title>
<g id="a_edge2_Node000002_Node000003"><a xlink:title=" ">
<path fill="none" stroke="#63b8ff" d="M318.85,-423.24C309.78,-422.17 300.4,-421.07 291.19,-419.99"/>
<polygon fill="#63b8ff" stroke="#63b8ff" points="318.28,-426.69 328.62,-424.38 319.1,-419.74 318.28,-426.69"/>
</a>
</g>
</g>
<!-- Node6 -->
<g id="Node000006" class="node">
<title>Node6</title>
<g id="a_Node000006"><a xlink:href="class_alarm.html#ab9867ec0c314549960584f4ae01328f8" target="_top" xlink:title=" ">
<polygon fill="white" stroke="#666666" points="263.38,-298.25 174.62,-298.25 174.62,-279 263.38,-279 263.38,-298.25"/>
<text xml:space="preserve" text-anchor="middle" x="219" y="-284.75" font-family="Helvetica,sans-Serif" font-size="10.00">Alarm::operator&lt;</text>
</a>
</g>
</g>
<!-- Node5&#45;&gt;Node6 -->
<g id="edge5_Node000005_Node000006" class="edge">
<title>Node5&#45;&gt;Node6</title>
<g id="a_edge5_Node000005_Node000006"><a xlink:title=" ">
<path fill="none" stroke="#63b8ff" d="M334.6,-302.09C312.27,-299.46 285.76,-296.35 263.87,-293.78"/>
<polygon fill="#63b8ff" stroke="#63b8ff" points="334.01,-305.54 344.35,-303.23 334.83,-298.59 334.01,-305.54"/>
</a>
</g>
</g>
<!-- Node7 -->
<g id="Node000007" class="node">
<title>Node7</title>
<g id="a_Node000007"><a xlink:href="class_alarm.html#a2a6049ea9b003e51f5ac17aba40bb1ad" target="_top" xlink:title=" ">
<polygon fill="white" stroke="#666666" points="266.38,-335.25 171.62,-335.25 171.62,-316 266.38,-316 266.38,-335.25"/>
<text xml:space="preserve" text-anchor="middle" x="219" y="-321.75" font-family="Helvetica,sans-Serif" font-size="10.00">Alarm::operator==</text>
</a>
</g>
</g>
<!-- Node5&#45;&gt;Node7 -->
<g id="edge6_Node000005_Node000007" class="edge">
<title>Node5&#45;&gt;Node7</title>
<g id="a_edge6_Node000005_Node000007"><a xlink:title=" ">
<path fill="none" stroke="#63b8ff" d="M334.46,-312.89C313.17,-315.26 288.1,-318.05 266.86,-320.41"/>
<polygon fill="#63b8ff" stroke="#63b8ff" points="334.8,-316.37 344.35,-311.79 334.02,-309.41 334.8,-316.37"/>
</a>
</g>
</g>
<!-- Node8&#45;&gt;Node9 -->
<g id="edge8_Node000008_Node000009" class="edge">
<title>Node8&#45;&gt;Node9</title>
<g id="a_edge8_Node000008_Node000009"><a xlink:title=" ">
<path fill="none" stroke="#63b8ff" d="M336.82,-231.62C318.72,-231.62 297.6,-231.62 278.33,-231.62"/>
<polygon fill="#63b8ff" stroke="#63b8ff" points="336.72,-235.13 346.72,-231.63 336.72,-228.13 336.72,-235.13"/>
</a>
</g>
</g>
<!-- Node10&#45;&gt;Node3 -->
<g id="edge10_Node000010_Node000003" class="edge">
<title>Node10&#45;&gt;Node3</title>
<g id="a_edge10_Node000010_Node000003"><a xlink:title=" ">
<path fill="none" stroke="#63b8ff" d="M316.98,-400.83C308.52,-401.77 299.81,-402.74 291.24,-403.7"/>
<polygon fill="#63b8ff" stroke="#63b8ff" points="317.28,-404.32 326.83,-399.74 316.51,-397.36 317.28,-404.32"/>
</a>
</g>
</g>
<!-- Node12&#45;&gt;Node9 -->
<g id="edge13_Node000012_Node000009" class="edge">
<title>Node12&#45;&gt;Node9</title>
<g id="a_edge13_Node000012_Node000009"><a xlink:title=" ">
<path fill="none" stroke="#63b8ff" d="M332.03,-206C310.35,-210.96 285.15,-216.72 264.14,-221.53"/>
<polygon fill="#63b8ff" stroke="#63b8ff" points="332.56,-209.47 341.53,-203.82 331,-202.64 332.56,-209.47"/>
</a>
</g>
</g>
<!-- Node14 -->
<g id="Node000014" class="node">
<title>Node14</title>
<g id="a_Node000014"><a xlink:href="class_c_s_v_config_manager.html#a7ecf23e1c03fa194bcf3afe52408d378" target="_top" xlink:title=" ">
<polygon fill="white" stroke="#666666" points="276.12,-104.88 161.88,-104.88 161.88,-74.38 276.12,-74.38 276.12,-104.88"/>
<text xml:space="preserve" text-anchor="start" x="169.88" y="-91.38" font-family="Helvetica,sans-Serif" font-size="10.00">CSVConfigManager::</text>
<text xml:space="preserve" text-anchor="middle" x="219" y="-80.12" font-family="Helvetica,sans-Serif" font-size="10.00">_parseAlarmFromCSV</text>
</a>
</g>
</g>
<!-- Node13&#45;&gt;Node14 -->
<g id="edge15_Node000013_Node000014" class="edge">
<title>Node13&#45;&gt;Node14</title>
<g id="a_edge15_Node000013_Node000014"><a xlink:title=" ">
<path fill="none" stroke="#63b8ff" d="M323.15,-85.8C307.92,-86.36 291.55,-86.97 276.43,-87.53"/>
<polygon fill="#63b8ff" stroke="#63b8ff" points="323.15,-89.3 333.02,-85.43 322.89,-82.31 323.15,-89.3"/>
</a>
</g>
</g>
<!-- Node15 -->
<g id="Node000015" class="node">
<title>Node15</title>
<g id="a_Node000015"><a xlink:href="class_config_manager.html#a468923ce5f2edecd218b29605d75426f" target="_top" xlink:title=" ">
<polygon fill="white" stroke="#666666" points="287.38,-153.88 150.62,-153.88 150.62,-123.38 287.38,-123.38 287.38,-153.88"/>
<text xml:space="preserve" text-anchor="start" x="158.62" y="-140.38" font-family="Helvetica,sans-Serif" font-size="10.00">ConfigManager::loadAlarms</text>
<text xml:space="preserve" text-anchor="middle" x="219" y="-129.12" font-family="Helvetica,sans-Serif" font-size="10.00">Config</text>
</a>
</g>
</g>
<!-- Node13&#45;&gt;Node15 -->
<g id="edge16_Node000013_Node000015" class="edge">
<title>Node13&#45;&gt;Node15</title>
<g id="a_edge16_Node000013_Node000015"><a xlink:title=" ">
<path fill="none" stroke="#63b8ff" d="M339.77,-97.28C335.37,-98.74 330.97,-100.2 326.75,-101.62 306.4,-108.48 283.92,-116.24 264.87,-122.88"/>
<polygon fill="#63b8ff" stroke="#63b8ff" points="340.75,-100.64 349.16,-94.19 338.57,-93.99 340.75,-100.64"/>
</a>
</g>
</g>
<!-- Node17 -->
<g id="Node000017" class="node">
<title>Node17</title>
<g id="a_Node000017"><a xlink:href="class_temperature_controller.html#a93bd31914a054a4e1df9be7e3966b82e" target="_top" xlink:title=" ">
<polygon fill="white" stroke="#666666" points="275,-55.88 163,-55.88 163,-25.38 275,-25.38 275,-55.88"/>
<text xml:space="preserve" text-anchor="start" x="171" y="-42.38" font-family="Helvetica,sans-Serif" font-size="10.00">TemperatureController</text>
<text xml:space="preserve" text-anchor="middle" x="219" y="-31.12" font-family="Helvetica,sans-Serif" font-size="10.00">::updateAlarm</text>
</a>
</g>
</g>
<!-- Node13&#45;&gt;Node17 -->
<g id="edge18_Node000013_Node000017" class="edge">
<title>Node13&#45;&gt;Node17</title>
<g id="a_edge18_Node000013_Node000017"><a xlink:title=" ">
<path fill="none" stroke="#63b8ff" d="M332.92,-70.64C314.8,-65.83 294.13,-60.33 275.46,-55.37"/>
<polygon fill="#63b8ff" stroke="#63b8ff" points="331.8,-73.97 342.36,-73.15 333.6,-67.2 331.8,-73.97"/>
</a>
</g>
</g>
<!-- Node16 -->
<g id="Node000016" class="node">
<title>Node16</title>
<g id="a_Node000016"><a xlink:href="class_config_manager.html#a0497343220fc493f5cf9574922508908" target="_top" xlink:title=" ">
<polygon fill="white" stroke="#666666" points="111.25,-148.25 0,-148.25 0,-129 111.25,-129 111.25,-148.25"/>
<text xml:space="preserve" text-anchor="middle" x="55.62" y="-134.75" font-family="Helvetica,sans-Serif" font-size="10.00">ConfigManager::begin</text>
</a>
</g>
</g>
<!-- Node15&#45;&gt;Node16 -->
<g id="edge17_Node000015_Node000016" class="edge">
<title>Node15&#45;&gt;Node16</title>
<g id="a_edge17_Node000015_Node000016"><a xlink:title=" ">
<path fill="none" stroke="#63b8ff" d="M139.18,-138.62C129.86,-138.62 120.51,-138.62 111.62,-138.62"/>
<polygon fill="#63b8ff" stroke="#63b8ff" points="138.98,-142.13 148.98,-138.63 138.98,-135.13 138.98,-142.13"/>
</a>
</g>
</g>
<!-- Node18&#45;&gt;Node14 -->
<g id="edge20_Node000018_Node000014" class="edge">
<title>Node18&#45;&gt;Node14</title>
<g id="a_edge20_Node000018_Node000014"><a xlink:title=" ">
<path fill="none" stroke="#63b8ff" d="M318.33,-108.47C304.51,-105.82 289.97,-103.03 276.43,-100.44"/>
<polygon fill="#63b8ff" stroke="#63b8ff" points="317.27,-111.83 327.75,-110.28 318.59,-104.96 317.27,-111.83"/>
</a>
</g>
</g>
<!-- Node18&#45;&gt;Node15 -->
<g id="edge21_Node000018_Node000015" class="edge">
<title>Node18&#45;&gt;Node15</title>
<g id="a_edge21_Node000018_Node000015"><a xlink:title=" ">
<path fill="none" stroke="#63b8ff" d="M317.17,-127.81C307.5,-128.89 297.51,-130 287.78,-131.08"/>
<polygon fill="#63b8ff" stroke="#63b8ff" points="317.28,-131.32 326.83,-126.74 316.51,-124.36 317.28,-131.32"/>
</a>
</g>
</g>
<!-- Node19&#45;&gt;Node17 -->
<g id="edge23_Node000019_Node000017" class="edge">
<title>Node19&#45;&gt;Node17</title>
<g id="a_edge23_Node000019_Node000017"><a xlink:title=" ">
<path fill="none" stroke="#63b8ff" d="M325.24,-44.53C309.11,-43.93 291.54,-43.28 275.47,-42.68"/>
<polygon fill="#63b8ff" stroke="#63b8ff" points="325.06,-48.02 335.18,-44.9 325.32,-41.03 325.06,-48.02"/>
</a>
</g>
</g>
</g>
</svg>
