<?xml version="1.0" encoding="UTF-8" standalone="no"?>
<!DOCTYPE svg PUBLIC "-//W3C//DTD SVG 1.1//EN"
 "http://www.w3.org/Graphics/SVG/1.1/DTD/svg11.dtd">
<!-- Generated by graphviz version 13.1.0 (20250701.0955)
 -->
<!-- Title: ConfigManager::loadAlarmsConfig Pages: 1 -->
<svg width="433pt" height="64pt"
 viewBox="0.00 0.00 433.00 64.00" xmlns="http://www.w3.org/2000/svg" xmlns:xlink="http://www.w3.org/1999/xlink">
<g id="graph0" class="graph" transform="scale(1 1) rotate(0) translate(4 60.25)">
<title>ConfigManager::loadAlarmsConfig</title>
<!-- Node1 -->
<g id="Node000001" class="node">
<title>Node1</title>
<g id="a_Node000001"><a xlink:title="Load alarms configuration from file.">
<polygon fill="#999999" stroke="#666666" points="136.75,-42.88 0,-42.88 0,-12.37 136.75,-12.37 136.75,-42.88"/>
<text xml:space="preserve" text-anchor="start" x="8" y="-29.38" font-family="Helvetica,sans-Serif" font-size="10.00">ConfigManager::loadAlarms</text>
<text xml:space="preserve" text-anchor="middle" x="68.38" y="-18.12" font-family="Helvetica,sans-Serif" font-size="10.00">Config</text>
</a>
</g>
</g>
<!-- Node2 -->
<g id="Node000002" class="node">
<title>Node2</title>
<g id="a_Node000002"><a xlink:href="class_alarm.html#acb8f203b2e2317c1f835bb4b19123f3f" target="_top" xlink:title="Enable or disable the alarm.">
<polygon fill="white" stroke="#666666" points="275,-56.25 178.75,-56.25 178.75,-37 275,-37 275,-56.25"/>
<text xml:space="preserve" text-anchor="middle" x="226.88" y="-42.75" font-family="Helvetica,sans-Serif" font-size="10.00">Alarm::setEnabled</text>
</a>
</g>
</g>
<!-- Node1&#45;&gt;Node2 -->
<g id="edge1_Node000001_Node000002" class="edge">
<title>Node1&#45;&gt;Node2</title>
<g id="a_edge1_Node000001_Node000002"><a xlink:title=" ">
<path fill="none" stroke="#63b8ff" d="M137.11,-35.85C147.08,-37.06 157.29,-38.3 167.07,-39.49"/>
<polygon fill="#63b8ff" stroke="#63b8ff" points="166.45,-42.94 176.8,-40.67 167.29,-35.99 166.45,-42.94"/>
</a>
</g>
</g>
<!-- Node5 -->
<g id="Node000005" class="node">
<title>Node5</title>
<g id="a_Node000005"><a xlink:href="class_alarm.html#a8d031874090c0c0e548a1f2e41ea4979" target="_top" xlink:title="Set the hysteresis value for alarm triggering.">
<polygon fill="white" stroke="#666666" points="281,-19.25 172.75,-19.25 172.75,0 281,0 281,-19.25"/>
<text xml:space="preserve" text-anchor="middle" x="226.88" y="-5.75" font-family="Helvetica,sans-Serif" font-size="10.00">Alarm::setHysteresis</text>
</a>
</g>
</g>
<!-- Node1&#45;&gt;Node5 -->
<g id="edge4_Node000001_Node000005" class="edge">
<title>Node1&#45;&gt;Node5</title>
<g id="a_edge4_Node000001_Node000005"><a xlink:title=" ">
<path fill="none" stroke="#63b8ff" d="M137.11,-19.83C145.19,-18.9 153.43,-17.96 161.47,-17.03"/>
<polygon fill="#63b8ff" stroke="#63b8ff" points="161.62,-20.54 171.16,-15.92 160.82,-13.58 161.62,-20.54"/>
</a>
</g>
</g>
<!-- Node3 -->
<g id="Node000003" class="node">
<title>Node3</title>
<g id="a_Node000003"><a xlink:href="class_alarm.html#abd578ec75a5ac9bce00b7ce7207c5d8c" target="_top" xlink:title="Get alarm type as string.">
<polygon fill="white" stroke="#666666" points="424.5,-56.25 317,-56.25 317,-37 424.5,-37 424.5,-56.25"/>
<text xml:space="preserve" text-anchor="middle" x="370.75" y="-42.75" font-family="Helvetica,sans-Serif" font-size="10.00">Alarm::getTypeString</text>
</a>
</g>
</g>
<!-- Node2&#45;&gt;Node3 -->
<g id="edge2_Node000002_Node000003" class="edge">
<title>Node2&#45;&gt;Node3</title>
<g id="a_edge2_Node000002_Node000003"><a xlink:title=" ">
<path fill="none" stroke="#63b8ff" d="M275.12,-46.62C284.84,-46.62 295.23,-46.62 305.44,-46.62"/>
<polygon fill="#63b8ff" stroke="#63b8ff" points="305.33,-50.13 315.33,-46.63 305.33,-43.13 305.33,-50.13"/>
</a>
</g>
</g>
<!-- Node4 -->
<g id="Node000004" class="node">
<title>Node4</title>
<g id="a_Node000004"><a xlink:href="class_logger_manager.html#a5c1373ccc47f4112b596fe6f84fbbc21" target="_top" xlink:title="Log informational message (static convenience method)">
<polygon fill="white" stroke="#666666" points="423,-19.25 318.5,-19.25 318.5,0 423,0 423,-19.25"/>
<text xml:space="preserve" text-anchor="middle" x="370.75" y="-5.75" font-family="Helvetica,sans-Serif" font-size="10.00">LoggerManager::info</text>
</a>
</g>
</g>
<!-- Node2&#45;&gt;Node4 -->
<g id="edge3_Node000002_Node000004" class="edge">
<title>Node2&#45;&gt;Node4</title>
<g id="a_edge3_Node000002_Node000004"><a xlink:title=" ">
<path fill="none" stroke="#63b8ff" d="M266.64,-36.51C283.22,-32.19 302.77,-27.09 320.37,-22.5"/>
<polygon fill="#63b8ff" stroke="#63b8ff" points="320.77,-26.02 329.56,-20.11 319,-19.24 320.77,-26.02"/>
</a>
</g>
</g>
<!-- Node5&#45;&gt;Node3 -->
<g id="edge5_Node000005_Node000003" class="edge">
<title>Node5&#45;&gt;Node3</title>
<g id="a_edge5_Node000005_Node000003"><a xlink:title=" ">
<path fill="none" stroke="#63b8ff" d="M266.64,-19.74C283.22,-24.06 302.77,-29.16 320.37,-33.75"/>
<polygon fill="#63b8ff" stroke="#63b8ff" points="319,-37.01 329.56,-36.14 320.77,-30.23 319,-37.01"/>
</a>
</g>
</g>
<!-- Node5&#45;&gt;Node4 -->
<g id="edge6_Node000005_Node000004" class="edge">
<title>Node5&#45;&gt;Node4</title>
<g id="a_edge6_Node000005_Node000004"><a xlink:title=" ">
<path fill="none" stroke="#63b8ff" d="M281.11,-9.62C289.43,-9.62 298.1,-9.62 306.62,-9.62"/>
<polygon fill="#63b8ff" stroke="#63b8ff" points="306.59,-13.13 316.59,-9.63 306.59,-6.13 306.59,-13.13"/>
</a>
</g>
</g>
</g>
</svg>
