<?xml version="1.0" encoding="UTF-8" standalone="no"?>
<!DOCTYPE svg PUBLIC "-//W3C//DTD SVG 1.1//EN"
 "http://www.w3.org/Graphics/SVG/1.1/DTD/svg11.dtd">
<!-- Generated by graphviz version 13.1.0 (20250701.0955)
 -->
<!-- Title: IndicatorInterface::_wakeOLED Pages: 1 -->
<svg width="643pt" height="455pt"
 viewBox="0.00 0.00 643.00 455.00" xmlns="http://www.w3.org/2000/svg" xmlns:xlink="http://www.w3.org/1999/xlink">
<g id="graph0" class="graph" transform="scale(1 1) rotate(0) translate(4 450.5)">
<title>IndicatorInterface::_wakeOLED</title>
<!-- Node1 -->
<g id="Node000001" class="node">
<title>Node1</title>
<g id="a_Node000001"><a xlink:title=" ">
<polygon fill="#999999" stroke="#666666" points="635,-226.5 543.25,-226.5 543.25,-196 635,-196 635,-226.5"/>
<text xml:space="preserve" text-anchor="start" x="551.25" y="-213" font-family="Helvetica,sans-Serif" font-size="10.00">IndicatorInterface</text>
<text xml:space="preserve" text-anchor="middle" x="589.12" y="-201.75" font-family="Helvetica,sans-Serif" font-size="10.00">::_wakeOLED</text>
</a>
</g>
</g>
<!-- Node2 -->
<g id="Node000002" class="node">
<title>Node2</title>
<g id="a_Node000002"><a xlink:href="class_indicator_interface.html#a54fa76657f9ef0c9e19b6e94d682fb65" target="_top" xlink:title=" ">
<polygon fill="white" stroke="#666666" points="500.12,-422.5 408.38,-422.5 408.38,-392 500.12,-392 500.12,-422.5"/>
<text xml:space="preserve" text-anchor="start" x="416.38" y="-409" font-family="Helvetica,sans-Serif" font-size="10.00">IndicatorInterface</text>
<text xml:space="preserve" text-anchor="middle" x="454.25" y="-397.75" font-family="Helvetica,sans-Serif" font-size="10.00">::displayCross</text>
</a>
</g>
</g>
<!-- Node1&#45;&gt;Node2 -->
<g id="edge1_Node000001_Node000002" class="edge">
<title>Node1&#45;&gt;Node2</title>
<g id="a_edge1_Node000001_Node000002"><a xlink:title=" ">
<path fill="none" stroke="#63b8ff" d="M581.61,-237.8C571.4,-274.49 548.4,-340.84 507.25,-382.25 503.72,-385.8 499.58,-388.92 495.22,-391.64"/>
<polygon fill="#63b8ff" stroke="#63b8ff" points="584.91,-239.03 584.1,-228.46 578.14,-237.23 584.91,-239.03"/>
</a>
</g>
</g>
<!-- Node7 -->
<g id="Node000007" class="node">
<title>Node7</title>
<g id="a_Node000007"><a xlink:href="class_indicator_interface.html#aaa36eb97521df2decb957418acc277a9" target="_top" xlink:title=" ">
<polygon fill="white" stroke="#666666" points="500.12,-373.5 408.38,-373.5 408.38,-343 500.12,-343 500.12,-373.5"/>
<text xml:space="preserve" text-anchor="start" x="416.38" y="-360" font-family="Helvetica,sans-Serif" font-size="10.00">IndicatorInterface</text>
<text xml:space="preserve" text-anchor="middle" x="454.25" y="-348.75" font-family="Helvetica,sans-Serif" font-size="10.00">::displayOK</text>
</a>
</g>
</g>
<!-- Node1&#45;&gt;Node7 -->
<g id="edge6_Node000001_Node000007" class="edge">
<title>Node1&#45;&gt;Node7</title>
<g id="a_edge6_Node000001_Node000007"><a xlink:title=" ">
<path fill="none" stroke="#63b8ff" d="M576.34,-236.84C562.87,-263.77 538.57,-305.96 507.25,-333.25 503.25,-336.74 498.67,-339.85 493.94,-342.6"/>
<polygon fill="#63b8ff" stroke="#63b8ff" points="579.41,-238.55 580.62,-228.02 573.11,-235.49 579.41,-238.55"/>
</a>
</g>
</g>
<!-- Node9 -->
<g id="Node000009" class="node">
<title>Node9</title>
<g id="a_Node000009"><a xlink:href="class_indicator_interface.html#a4586496158d0d102742463c908d9b2c3" target="_top" xlink:title=" ">
<polygon fill="white" stroke="#666666" points="500.12,-324.5 408.38,-324.5 408.38,-294 500.12,-294 500.12,-324.5"/>
<text xml:space="preserve" text-anchor="start" x="416.38" y="-311" font-family="Helvetica,sans-Serif" font-size="10.00">IndicatorInterface</text>
<text xml:space="preserve" text-anchor="middle" x="454.25" y="-299.75" font-family="Helvetica,sans-Serif" font-size="10.00">::handleInterrupt</text>
</a>
</g>
</g>
<!-- Node1&#45;&gt;Node9 -->
<g id="edge9_Node000001_Node000009" class="edge">
<title>Node1&#45;&gt;Node9</title>
<g id="a_edge9_Node000001_Node000009"><a xlink:title=" ">
<path fill="none" stroke="#63b8ff" d="M565.5,-234.93C550.05,-250.25 528.58,-269.93 507.25,-284.25 502.26,-287.6 496.75,-290.75 491.24,-293.62"/>
<polygon fill="#63b8ff" stroke="#63b8ff" points="567.81,-237.58 572.36,-228.01 562.83,-232.65 567.81,-237.58"/>
</a>
</g>
</g>
<!-- Node10 -->
<g id="Node000010" class="node">
<title>Node10</title>
<g id="a_Node000010"><a xlink:href="class_indicator_interface.html#ac3d970f4cfa8af402fa2538cf05e8cd6" target="_top" xlink:title=" ">
<polygon fill="white" stroke="#666666" points="500.12,-275.5 408.38,-275.5 408.38,-245 500.12,-245 500.12,-275.5"/>
<text xml:space="preserve" text-anchor="start" x="416.38" y="-262" font-family="Helvetica,sans-Serif" font-size="10.00">IndicatorInterface</text>
<text xml:space="preserve" text-anchor="middle" x="454.25" y="-250.75" font-family="Helvetica,sans-Serif" font-size="10.00">::printText</text>
</a>
</g>
</g>
<!-- Node1&#45;&gt;Node10 -->
<g id="edge10_Node000001_Node000010" class="edge">
<title>Node1&#45;&gt;Node10</title>
<g id="a_edge10_Node000001_Node000010"><a xlink:title=" ">
<path fill="none" stroke="#63b8ff" d="M535.03,-230.83C522.63,-235.4 509.58,-240.21 497.71,-244.59"/>
<polygon fill="#63b8ff" stroke="#63b8ff" points="536.13,-234.16 544.3,-227.41 533.7,-227.59 536.13,-234.16"/>
</a>
</g>
</g>
<!-- Node11 -->
<g id="Node000011" class="node">
<title>Node11</title>
<g id="a_Node000011"><a xlink:href="class_indicator_interface.html#a3d7f75c8c69808ecc98d1e1fb272984d" target="_top" xlink:title=" ">
<polygon fill="white" stroke="#666666" points="500.12,-226.5 408.38,-226.5 408.38,-196 500.12,-196 500.12,-226.5"/>
<text xml:space="preserve" text-anchor="start" x="416.38" y="-213" font-family="Helvetica,sans-Serif" font-size="10.00">IndicatorInterface</text>
<text xml:space="preserve" text-anchor="middle" x="454.25" y="-201.75" font-family="Helvetica,sans-Serif" font-size="10.00">::pushLine</text>
</a>
</g>
</g>
<!-- Node1&#45;&gt;Node11 -->
<g id="edge11_Node000001_Node000011" class="edge">
<title>Node1&#45;&gt;Node11</title>
<g id="a_edge11_Node000001_Node000011"><a xlink:title=" ">
<path fill="none" stroke="#63b8ff" d="M531.3,-211.25C520.98,-211.25 510.33,-211.25 500.4,-211.25"/>
<polygon fill="#63b8ff" stroke="#63b8ff" points="531.26,-214.75 541.26,-211.25 531.26,-207.75 531.26,-214.75"/>
</a>
</g>
</g>
<!-- Node12 -->
<g id="Node000012" class="node">
<title>Node12</title>
<g id="a_Node000012"><a xlink:href="class_indicator_interface.html#ab8a4f7cc08c2fb112aa893f0aeca044a" target="_top" xlink:title=" ">
<polygon fill="white" stroke="#666666" points="500.12,-177.5 408.38,-177.5 408.38,-147 500.12,-147 500.12,-177.5"/>
<text xml:space="preserve" text-anchor="start" x="416.38" y="-164" font-family="Helvetica,sans-Serif" font-size="10.00">IndicatorInterface</text>
<text xml:space="preserve" text-anchor="middle" x="454.25" y="-152.75" font-family="Helvetica,sans-Serif" font-size="10.00">::setOLEDblink</text>
</a>
</g>
</g>
<!-- Node1&#45;&gt;Node12 -->
<g id="edge12_Node000001_Node000012" class="edge">
<title>Node1&#45;&gt;Node12</title>
<g id="a_edge12_Node000001_Node000012"><a xlink:title=" ">
<path fill="none" stroke="#63b8ff" d="M535.03,-191.67C522.63,-187.1 509.58,-182.29 497.71,-177.91"/>
<polygon fill="#63b8ff" stroke="#63b8ff" points="533.7,-194.91 544.3,-195.09 536.13,-188.34 533.7,-194.91"/>
</a>
</g>
</g>
<!-- Node13 -->
<g id="Node000013" class="node">
<title>Node13</title>
<g id="a_Node000013"><a xlink:href="class_indicator_interface.html#acf545ec2921c786020f7826a846b364d" target="_top" xlink:title=" ">
<polygon fill="white" stroke="#666666" points="500.12,-128.5 408.38,-128.5 408.38,-98 500.12,-98 500.12,-128.5"/>
<text xml:space="preserve" text-anchor="start" x="416.38" y="-115" font-family="Helvetica,sans-Serif" font-size="10.00">IndicatorInterface</text>
<text xml:space="preserve" text-anchor="middle" x="454.25" y="-103.75" font-family="Helvetica,sans-Serif" font-size="10.00">::setOledMode</text>
</a>
</g>
</g>
<!-- Node1&#45;&gt;Node13 -->
<g id="edge13_Node000001_Node000013" class="edge">
<title>Node1&#45;&gt;Node13</title>
<g id="a_edge13_Node000001_Node000013"><a xlink:title=" ">
<path fill="none" stroke="#63b8ff" d="M565.5,-187.57C550.05,-172.25 528.58,-152.57 507.25,-138.25 502.26,-134.9 496.75,-131.75 491.24,-128.88"/>
<polygon fill="#63b8ff" stroke="#63b8ff" points="562.83,-189.85 572.36,-194.49 567.81,-184.92 562.83,-189.85"/>
</a>
</g>
</g>
<!-- Node14 -->
<g id="Node000014" class="node">
<title>Node14</title>
<g id="a_Node000014"><a xlink:href="class_indicator_interface.html#a7d807749bff6ef06c128617b35f4dcce" target="_top" xlink:title=" ">
<polygon fill="white" stroke="#666666" points="500.12,-79.5 408.38,-79.5 408.38,-49 500.12,-49 500.12,-79.5"/>
<text xml:space="preserve" text-anchor="start" x="416.38" y="-66" font-family="Helvetica,sans-Serif" font-size="10.00">IndicatorInterface</text>
<text xml:space="preserve" text-anchor="middle" x="454.25" y="-54.75" font-family="Helvetica,sans-Serif" font-size="10.00">::setOLEDOn</text>
</a>
</g>
</g>
<!-- Node1&#45;&gt;Node14 -->
<g id="edge14_Node000001_Node000014" class="edge">
<title>Node1&#45;&gt;Node14</title>
<g id="a_edge14_Node000001_Node000014"><a xlink:title=" ">
<path fill="none" stroke="#63b8ff" d="M576.34,-185.66C562.87,-158.73 538.57,-116.54 507.25,-89.25 503.25,-85.76 498.67,-82.65 493.94,-79.9"/>
<polygon fill="#63b8ff" stroke="#63b8ff" points="573.11,-187.01 580.62,-194.48 579.41,-183.95 573.11,-187.01"/>
</a>
</g>
</g>
<!-- Node15 -->
<g id="Node000015" class="node">
<title>Node15</title>
<g id="a_Node000015"><a xlink:href="class_indicator_interface.html#a0f23c8a09f237eca7d71a9ff4e560e96" target="_top" xlink:title=" ">
<polygon fill="white" stroke="#666666" points="507.25,-30.5 401.25,-30.5 401.25,0 507.25,0 507.25,-30.5"/>
<text xml:space="preserve" text-anchor="start" x="409.25" y="-17" font-family="Helvetica,sans-Serif" font-size="10.00">IndicatorInterface</text>
<text xml:space="preserve" text-anchor="middle" x="454.25" y="-5.75" font-family="Helvetica,sans-Serif" font-size="10.00">::setOledSleepDelay</text>
</a>
</g>
</g>
<!-- Node1&#45;&gt;Node15 -->
<g id="edge15_Node000001_Node000015" class="edge">
<title>Node1&#45;&gt;Node15</title>
<g id="a_edge15_Node000001_Node000015"><a xlink:title=" ">
<path fill="none" stroke="#63b8ff" d="M581.61,-184.7C571.4,-148.01 548.4,-81.66 507.25,-40.25 503.72,-36.7 499.58,-33.58 495.22,-30.86"/>
<polygon fill="#63b8ff" stroke="#63b8ff" points="578.14,-185.27 584.1,-194.04 584.91,-183.47 578.14,-185.27"/>
</a>
</g>
</g>
<!-- Node3 -->
<g id="Node000003" class="node">
<title>Node3</title>
<g id="a_Node000003"><a xlink:href="class_indicator_interface.html#ad70f8a9e7f527bc4faeb576b47483385" target="_top" xlink:title=" ">
<polygon fill="white" stroke="#666666" points="365.25,-397.5 255.5,-397.5 255.5,-367 365.25,-367 365.25,-397.5"/>
<text xml:space="preserve" text-anchor="start" x="263.5" y="-384" font-family="Helvetica,sans-Serif" font-size="10.00">IndicatorInterface</text>
<text xml:space="preserve" text-anchor="middle" x="310.38" y="-372.75" font-family="Helvetica,sans-Serif" font-size="10.00">::_handleSpecialBlink</text>
</a>
</g>
</g>
<!-- Node2&#45;&gt;Node3 -->
<g id="edge2_Node000002_Node000003" class="edge">
<title>Node2&#45;&gt;Node3</title>
<g id="a_edge2_Node000002_Node000003"><a xlink:title=" ">
<path fill="none" stroke="#63b8ff" d="M396.66,-397.28C386.44,-395.48 375.8,-393.6 365.65,-391.81"/>
<polygon fill="#63b8ff" stroke="#63b8ff" points="396.02,-400.72 406.48,-399.01 397.24,-393.83 396.02,-400.72"/>
</a>
</g>
</g>
<!-- Node6 -->
<g id="Node000006" class="node">
<title>Node6</title>
<g id="a_Node000006"><a xlink:href="class_indicator_interface.html#ac5ef0d744798dc4643c4fa0074e9b503" target="_top" xlink:title=" ">
<polygon fill="white" stroke="#666666" points="356.25,-446.5 264.5,-446.5 264.5,-416 356.25,-416 356.25,-446.5"/>
<text xml:space="preserve" text-anchor="start" x="272.5" y="-433" font-family="Helvetica,sans-Serif" font-size="10.00">IndicatorInterface</text>
<text xml:space="preserve" text-anchor="middle" x="310.38" y="-421.75" font-family="Helvetica,sans-Serif" font-size="10.00">::blinkCross</text>
</a>
</g>
</g>
<!-- Node2&#45;&gt;Node6 -->
<g id="edge5_Node000002_Node000006" class="edge">
<title>Node2&#45;&gt;Node6</title>
<g id="a_edge5_Node000002_Node000006"><a xlink:title=" ">
<path fill="none" stroke="#63b8ff" d="M396.96,-416.77C383.6,-419.03 369.51,-421.42 356.71,-423.58"/>
<polygon fill="#63b8ff" stroke="#63b8ff" points="397.2,-420.28 406.48,-415.16 396.03,-413.38 397.2,-420.28"/>
</a>
</g>
</g>
<!-- Node4 -->
<g id="Node000004" class="node">
<title>Node4</title>
<g id="a_Node000004"><a xlink:href="class_indicator_interface.html#a5f9eaa4ad4d2da76bf9536a4dfad8723" target="_top" xlink:title=" ">
<polygon fill="white" stroke="#666666" points="219.5,-397.5 127.75,-397.5 127.75,-367 219.5,-367 219.5,-397.5"/>
<text xml:space="preserve" text-anchor="start" x="135.75" y="-384" font-family="Helvetica,sans-Serif" font-size="10.00">IndicatorInterface</text>
<text xml:space="preserve" text-anchor="middle" x="173.62" y="-372.75" font-family="Helvetica,sans-Serif" font-size="10.00">::updateOLED</text>
</a>
</g>
</g>
<!-- Node3&#45;&gt;Node4 -->
<g id="edge3_Node000003_Node000004" class="edge">
<title>Node3&#45;&gt;Node4</title>
<g id="a_edge3_Node000003_Node000004"><a xlink:title=" ">
<path fill="none" stroke="#63b8ff" d="M244.1,-382.25C235.8,-382.25 227.46,-382.25 219.59,-382.25"/>
<polygon fill="#63b8ff" stroke="#63b8ff" points="243.83,-385.75 253.83,-382.25 243.83,-378.75 243.83,-385.75"/>
</a>
</g>
</g>
<!-- Node5 -->
<g id="Node000005" class="node">
<title>Node5</title>
<g id="a_Node000005"><a xlink:href="class_indicator_interface.html#a01db31cebc14d62f6aa9b1266e6c278d" target="_top" xlink:title=" ">
<polygon fill="white" stroke="#666666" points="91.75,-397.5 0,-397.5 0,-367 91.75,-367 91.75,-397.5"/>
<text xml:space="preserve" text-anchor="start" x="8" y="-384" font-family="Helvetica,sans-Serif" font-size="10.00">IndicatorInterface</text>
<text xml:space="preserve" text-anchor="middle" x="45.88" y="-372.75" font-family="Helvetica,sans-Serif" font-size="10.00">::update</text>
</a>
</g>
</g>
<!-- Node4&#45;&gt;Node5 -->
<g id="edge4_Node000004_Node000005" class="edge">
<title>Node4&#45;&gt;Node5</title>
<g id="a_edge4_Node000004_Node000005"><a xlink:title=" ">
<path fill="none" stroke="#63b8ff" d="M116.26,-382.25C108.15,-382.25 99.89,-382.25 92.03,-382.25"/>
<polygon fill="#63b8ff" stroke="#63b8ff" points="116.07,-385.75 126.07,-382.25 116.07,-378.75 116.07,-385.75"/>
</a>
</g>
</g>
<!-- Node7&#45;&gt;Node3 -->
<g id="edge7_Node000007_Node000003" class="edge">
<title>Node7&#45;&gt;Node3</title>
<g id="a_edge7_Node000007_Node000003"><a xlink:title=" ">
<path fill="none" stroke="#63b8ff" d="M396.66,-367.82C386.44,-369.55 375.8,-371.35 365.65,-373.07"/>
<polygon fill="#63b8ff" stroke="#63b8ff" points="397.2,-371.28 406.48,-366.16 396.03,-364.38 397.2,-371.28"/>
</a>
</g>
</g>
<!-- Node8 -->
<g id="Node000008" class="node">
<title>Node8</title>
<g id="a_Node000008"><a xlink:href="class_indicator_interface.html#aa7c6bd010177acde7097bd4b186fa96d" target="_top" xlink:title=" ">
<polygon fill="white" stroke="#666666" points="356.25,-348.5 264.5,-348.5 264.5,-318 356.25,-318 356.25,-348.5"/>
<text xml:space="preserve" text-anchor="start" x="272.5" y="-335" font-family="Helvetica,sans-Serif" font-size="10.00">IndicatorInterface</text>
<text xml:space="preserve" text-anchor="middle" x="310.38" y="-323.75" font-family="Helvetica,sans-Serif" font-size="10.00">::blinkOK</text>
</a>
</g>
</g>
<!-- Node7&#45;&gt;Node8 -->
<g id="edge8_Node000007_Node000008" class="edge">
<title>Node7&#45;&gt;Node8</title>
<g id="a_edge8_Node000007_Node000008"><a xlink:title=" ">
<path fill="none" stroke="#63b8ff" d="M396.96,-348.33C383.6,-345.98 369.51,-343.49 356.71,-341.24"/>
<polygon fill="#63b8ff" stroke="#63b8ff" points="396.02,-351.72 406.48,-350.01 397.24,-344.83 396.02,-351.72"/>
</a>
</g>
</g>
</g>
</svg>
