<?xml version="1.0" encoding="UTF-8" standalone="no"?>
<!DOCTYPE svg PUBLIC "-//W3C//DTD SVG 1.1//EN"
 "http://www.w3.org/Graphics/SVG/1.1/DTD/svg11.dtd">
<!-- Generated by graphviz version 13.1.0 (20250701.0955)
 -->
<!-- Title: ConfigManager::loadPointsConfig Pages: 1 -->
<svg width="492pt" height="323pt"
 viewBox="0.00 0.00 492.00 323.00" xmlns="http://www.w3.org/2000/svg" xmlns:xlink="http://www.w3.org/1999/xlink">
<g id="graph0" class="graph" transform="scale(1 1) rotate(0) translate(4 318.88)">
<title>ConfigManager::loadPointsConfig</title>
<!-- Node1 -->
<g id="Node000001" class="node">
<title>Node1</title>
<g id="a_Node000001"><a xlink:title="Load measurement points configuration from file.">
<polygon fill="#999999" stroke="#666666" points="133.75,-165.88 0,-165.88 0,-135.38 133.75,-135.38 133.75,-165.88"/>
<text xml:space="preserve" text-anchor="start" x="8" y="-152.38" font-family="Helvetica,sans-Serif" font-size="10.00">ConfigManager::loadPoints</text>
<text xml:space="preserve" text-anchor="middle" x="66.88" y="-141.12" font-family="Helvetica,sans-Serif" font-size="10.00">Config</text>
</a>
</g>
</g>
<!-- Node2 -->
<g id="Node000002" class="node">
<title>Node2</title>
<g id="a_Node000002"><a xlink:href="class_measurement_point.html#a81c7ae93a9314344967d0f31c6fefe2f" target="_top" xlink:title="Get pointer to bound sensor.">
<polygon fill="white" stroke="#666666" points="314.75,-314.88 169.75,-314.88 169.75,-284.38 314.75,-284.38 314.75,-314.88"/>
<text xml:space="preserve" text-anchor="start" x="177.75" y="-301.38" font-family="Helvetica,sans-Serif" font-size="10.00">MeasurementPoint::getBound</text>
<text xml:space="preserve" text-anchor="middle" x="242.25" y="-290.12" font-family="Helvetica,sans-Serif" font-size="10.00">Sensor</text>
</a>
</g>
</g>
<!-- Node1&#45;&gt;Node2 -->
<g id="edge1_Node000001_Node000002" class="edge">
<title>Node1&#45;&gt;Node2</title>
<g id="a_edge1_Node000001_Node000002"><a xlink:title=" ">
<path fill="none" stroke="#63b8ff" d="M77.58,-166.36C93.82,-191.52 128.78,-241 169.75,-270.62 174,-273.7 178.63,-276.51 183.42,-279.07"/>
<polygon fill="#63b8ff" stroke="#63b8ff" points="181.52,-282.04 192.04,-283.31 184.6,-275.76 181.52,-282.04"/>
</a>
</g>
</g>
<!-- Node3 -->
<g id="Node000003" class="node">
<title>Node3</title>
<g id="a_Node000003"><a xlink:href="class_logger_manager.html#a5c1373ccc47f4112b596fe6f84fbbc21" target="_top" xlink:title="Log informational message (static convenience method)">
<polygon fill="white" stroke="#666666" points="469.5,-206.25 365,-206.25 365,-187 469.5,-187 469.5,-206.25"/>
<text xml:space="preserve" text-anchor="middle" x="417.25" y="-192.75" font-family="Helvetica,sans-Serif" font-size="10.00">LoggerManager::info</text>
</a>
</g>
</g>
<!-- Node1&#45;&gt;Node3 -->
<g id="edge2_Node000001_Node000003" class="edge">
<title>Node1&#45;&gt;Node3</title>
<g id="a_edge2_Node000001_Node000003"><a xlink:title=" ">
<path fill="none" stroke="#63b8ff" d="M79.96,-166.3C97.21,-187.24 131.13,-223.38 169.75,-237.62 230.21,-259.93 251.49,-249.92 314.75,-237.62 340.41,-232.64 367.79,-221.18 387.64,-211.64"/>
<polygon fill="#63b8ff" stroke="#63b8ff" points="389.07,-214.83 396.48,-207.26 385.97,-208.56 389.07,-214.83"/>
</a>
</g>
</g>
<!-- Node4 -->
<g id="Node000004" class="node">
<title>Node4</title>
<g id="a_Node000004"><a xlink:href="class_sensor.html#a59dd5483b75d9366a0c50ccdd0345dec" target="_top" xlink:title="Initialize sensor hardware.">
<polygon fill="white" stroke="#666666" points="286.25,-93.25 198.25,-93.25 198.25,-74 286.25,-74 286.25,-93.25"/>
<text xml:space="preserve" text-anchor="middle" x="242.25" y="-79.75" font-family="Helvetica,sans-Serif" font-size="10.00">Sensor::initialize</text>
</a>
</g>
</g>
<!-- Node1&#45;&gt;Node4 -->
<g id="edge3_Node000001_Node000004" class="edge">
<title>Node1&#45;&gt;Node4</title>
<g id="a_edge3_Node000001_Node000004"><a xlink:title=" ">
<path fill="none" stroke="#63b8ff" d="M97.58,-134.88C117.58,-124.72 144.77,-111.74 169.75,-102.62 175.41,-100.56 181.39,-98.61 187.39,-96.81"/>
<polygon fill="#63b8ff" stroke="#63b8ff" points="188.03,-100.27 196.68,-94.15 186.1,-93.54 188.03,-100.27"/>
</a>
</g>
</g>
<!-- Node5 -->
<g id="Node000005" class="node">
<title>Node5</title>
<g id="a_Node000005"><a xlink:href="class_measurement_point.html#aefb47fef40f33161be5c6fddf0cf6329" target="_top" xlink:title="Set high alarm threshold.">
<polygon fill="white" stroke="#666666" points="311,-190.88 173.5,-190.88 173.5,-160.38 311,-160.38 311,-190.88"/>
<text xml:space="preserve" text-anchor="start" x="181.5" y="-177.38" font-family="Helvetica,sans-Serif" font-size="10.00">MeasurementPoint::setHigh</text>
<text xml:space="preserve" text-anchor="middle" x="242.25" y="-166.12" font-family="Helvetica,sans-Serif" font-size="10.00">AlarmThreshold</text>
</a>
</g>
</g>
<!-- Node1&#45;&gt;Node5 -->
<g id="edge4_Node000001_Node000005" class="edge">
<title>Node1&#45;&gt;Node5</title>
<g id="a_edge4_Node000001_Node000005"><a xlink:title=" ">
<path fill="none" stroke="#63b8ff" d="M133.92,-160.15C143.03,-161.46 152.47,-162.82 161.8,-164.17"/>
<polygon fill="#63b8ff" stroke="#63b8ff" points="161.2,-167.62 171.59,-165.58 162.2,-160.69 161.2,-167.62"/>
</a>
</g>
</g>
<!-- Node7 -->
<g id="Node000007" class="node">
<title>Node7</title>
<g id="a_Node000007"><a xlink:href="class_measurement_point.html#ac780917beebc11d705824cab8f43b94d" target="_top" xlink:title="Set low alarm threshold.">
<polygon fill="white" stroke="#666666" points="309.88,-141.88 174.62,-141.88 174.62,-111.38 309.88,-111.38 309.88,-141.88"/>
<text xml:space="preserve" text-anchor="start" x="182.62" y="-128.38" font-family="Helvetica,sans-Serif" font-size="10.00">MeasurementPoint::setLow</text>
<text xml:space="preserve" text-anchor="middle" x="242.25" y="-117.12" font-family="Helvetica,sans-Serif" font-size="10.00">AlarmThreshold</text>
</a>
</g>
</g>
<!-- Node1&#45;&gt;Node7 -->
<g id="edge7_Node000001_Node000007" class="edge">
<title>Node1&#45;&gt;Node7</title>
<g id="a_edge7_Node000001_Node000007"><a xlink:title=" ">
<path fill="none" stroke="#63b8ff" d="M133.92,-141.48C143.41,-140.17 153.25,-138.81 162.95,-137.46"/>
<polygon fill="#63b8ff" stroke="#63b8ff" points="163.32,-140.95 172.74,-136.11 162.36,-134.01 163.32,-140.95"/>
</a>
</g>
</g>
<!-- Node8 -->
<g id="Node000008" class="node">
<title>Node8</title>
<g id="a_Node000008"><a xlink:href="class_measurement_point.html#ae3abe83ed3e7979a906c7d753ac9d22d" target="_top" xlink:title="Set measurement point name.">
<polygon fill="white" stroke="#666666" points="314,-228.25 170.5,-228.25 170.5,-209 314,-209 314,-228.25"/>
<text xml:space="preserve" text-anchor="middle" x="242.25" y="-214.75" font-family="Helvetica,sans-Serif" font-size="10.00">MeasurementPoint::setName</text>
</a>
</g>
</g>
<!-- Node1&#45;&gt;Node8 -->
<g id="edge10_Node000001_Node000008" class="edge">
<title>Node1&#45;&gt;Node8</title>
<g id="a_edge10_Node000001_Node000008"><a xlink:title=" ">
<path fill="none" stroke="#63b8ff" d="M96.66,-166.28C116.73,-176.73 144.35,-190.24 169.75,-199.62 175.4,-201.71 181.37,-203.67 187.37,-205.48"/>
<polygon fill="#63b8ff" stroke="#63b8ff" points="186.08,-208.75 196.66,-208.15 188.02,-202.03 186.08,-208.75"/>
</a>
</g>
</g>
<!-- Node9 -->
<g id="Node000009" class="node">
<title>Node9</title>
<g id="a_Node000009"><a xlink:href="class_sensor.html#afefa1f627a7d2ab5a1157c271e7f2556" target="_top" xlink:title="Configure sensor as DS18B20.">
<polygon fill="white" stroke="#666666" points="301.62,-56.25 182.88,-56.25 182.88,-37 301.62,-37 301.62,-56.25"/>
<text xml:space="preserve" text-anchor="middle" x="242.25" y="-42.75" font-family="Helvetica,sans-Serif" font-size="10.00">Sensor::setupDS18B20</text>
</a>
</g>
</g>
<!-- Node1&#45;&gt;Node9 -->
<g id="edge12_Node000001_Node000009" class="edge">
<title>Node1&#45;&gt;Node9</title>
<g id="a_edge12_Node000001_Node000009"><a xlink:title=" ">
<path fill="none" stroke="#63b8ff" d="M81.82,-135.13C100.12,-115.75 134.12,-82.9 169.75,-64.62 172.63,-63.15 175.65,-61.78 178.73,-60.53"/>
<polygon fill="#63b8ff" stroke="#63b8ff" points="179.8,-63.87 188.02,-57.18 177.42,-57.28 179.8,-63.87"/>
</a>
</g>
</g>
<!-- Node10 -->
<g id="Node000010" class="node">
<title>Node10</title>
<g id="a_Node000010"><a xlink:href="class_sensor.html#aef73c8dc894e3695f50b4bece9601750" target="_top" xlink:title="Configure sensor as PT1000.">
<polygon fill="white" stroke="#666666" points="297.5,-19.25 187,-19.25 187,0 297.5,0 297.5,-19.25"/>
<text xml:space="preserve" text-anchor="middle" x="242.25" y="-5.75" font-family="Helvetica,sans-Serif" font-size="10.00">Sensor::setupPT1000</text>
</a>
</g>
</g>
<!-- Node1&#45;&gt;Node10 -->
<g id="edge13_Node000001_Node000010" class="edge">
<title>Node1&#45;&gt;Node10</title>
<g id="a_edge13_Node000001_Node000010"><a xlink:title=" ">
<path fill="none" stroke="#63b8ff" d="M76.29,-135.09C91.39,-108.74 125.66,-55.44 169.75,-27.62 171.86,-26.29 174.07,-25.06 176.34,-23.92"/>
<polygon fill="#63b8ff" stroke="#63b8ff" points="177.46,-27.25 185.25,-20.07 174.68,-20.82 177.46,-27.25"/>
</a>
</g>
</g>
<!-- Node5&#45;&gt;Node3 -->
<g id="edge5_Node000005_Node000003" class="edge">
<title>Node5&#45;&gt;Node3</title>
<g id="a_edge5_Node000005_Node000003"><a xlink:title=" ">
<path fill="none" stroke="#63b8ff" d="M311.13,-183.86C325.03,-185.55 339.61,-187.32 353.33,-188.99"/>
<polygon fill="#63b8ff" stroke="#63b8ff" points="352.77,-192.44 363.12,-190.18 353.61,-185.5 352.77,-192.44"/>
</a>
</g>
</g>
<!-- Node6 -->
<g id="Node000006" class="node">
<title>Node6</title>
<g id="a_Node000006"><a xlink:href="class_measurement_point.html#a71995209f2507e6cc15d01607f60767f" target="_top" xlink:title="Update alarm status based on current temperature.">
<polygon fill="white" stroke="#666666" points="483.75,-165.88 350.75,-165.88 350.75,-135.38 483.75,-135.38 483.75,-165.88"/>
<text xml:space="preserve" text-anchor="start" x="358.75" y="-152.38" font-family="Helvetica,sans-Serif" font-size="10.00">MeasurementPoint::update</text>
<text xml:space="preserve" text-anchor="middle" x="417.25" y="-141.12" font-family="Helvetica,sans-Serif" font-size="10.00">AlarmStatus</text>
</a>
</g>
</g>
<!-- Node5&#45;&gt;Node6 -->
<g id="edge6_Node000005_Node000006" class="edge">
<title>Node5&#45;&gt;Node6</title>
<g id="a_edge6_Node000005_Node000006"><a xlink:title=" ">
<path fill="none" stroke="#63b8ff" d="M311.13,-165.82C320.28,-164.49 329.72,-163.13 339.02,-161.78"/>
<polygon fill="#63b8ff" stroke="#63b8ff" points="339.37,-165.27 348.77,-160.38 338.37,-158.34 339.37,-165.27"/>
</a>
</g>
</g>
<!-- Node7&#45;&gt;Node3 -->
<g id="edge8_Node000007_Node000003" class="edge">
<title>Node7&#45;&gt;Node3</title>
<g id="a_edge8_Node000007_Node000003"><a xlink:title=" ">
<path fill="none" stroke="#63b8ff" d="M293.09,-142.37C300.47,-145.18 307.89,-148.29 314.75,-151.62 331.83,-159.93 333.62,-166.43 350.75,-174.62 357,-177.62 363.76,-180.38 370.49,-182.86"/>
<polygon fill="#63b8ff" stroke="#63b8ff" points="368.93,-186.02 379.52,-186.02 371.24,-179.41 368.93,-186.02"/>
</a>
</g>
</g>
<!-- Node7&#45;&gt;Node6 -->
<g id="edge9_Node000007_Node000006" class="edge">
<title>Node7&#45;&gt;Node6</title>
<g id="a_edge9_Node000007_Node000006"><a xlink:title=" ">
<path fill="none" stroke="#63b8ff" d="M310.14,-135.9C319.64,-137.22 329.47,-138.59 339.14,-139.93"/>
<polygon fill="#63b8ff" stroke="#63b8ff" points="338.51,-143.37 348.9,-141.28 339.47,-136.44 338.51,-143.37"/>
</a>
</g>
</g>
<!-- Node8&#45;&gt;Node3 -->
<g id="edge11_Node000008_Node000003" class="edge">
<title>Node8&#45;&gt;Node3</title>
<g id="a_edge11_Node000008_Node000003"><a xlink:title=" ">
<path fill="none" stroke="#63b8ff" d="M314.11,-209.61C327.05,-207.97 340.46,-206.26 353.15,-204.65"/>
<polygon fill="#63b8ff" stroke="#63b8ff" points="353.58,-208.12 363.06,-203.39 352.7,-201.18 353.58,-208.12"/>
</a>
</g>
</g>
</g>
</svg>
