<?xml version="1.0" encoding="UTF-8" standalone="no"?>
<!DOCTYPE svg PUBLIC "-//W3C//DTD SVG 1.1//EN"
 "http://www.w3.org/Graphics/SVG/1.1/DTD/svg11.dtd">
<!-- Generated by graphviz version 13.1.0 (20250701.0955)
 -->
<!-- Title: RegisterMap::applyConfigToMeasurementPoint Pages: 1 -->
<svg width="496pt" height="125pt"
 viewBox="0.00 0.00 496.00 125.00" xmlns="http://www.w3.org/2000/svg" xmlns:xlink="http://www.w3.org/1999/xlink">
<g id="graph0" class="graph" transform="scale(1 1) rotate(0) translate(4 120.88)">
<title>RegisterMap::applyConfigToMeasurementPoint</title>
<!-- Node1 -->
<g id="Node000001" class="node">
<title>Node1</title>
<g id="a_Node000001"><a xlink:title="Apply configuration from registers to measurement point.">
<polygon fill="#999999" stroke="#666666" points="129.25,-79.5 0,-79.5 0,-49 129.25,-49 129.25,-79.5"/>
<text xml:space="preserve" text-anchor="start" x="8" y="-66" font-family="Helvetica,sans-Serif" font-size="10.00">RegisterMap::applyConfig</text>
<text xml:space="preserve" text-anchor="middle" x="64.62" y="-54.75" font-family="Helvetica,sans-Serif" font-size="10.00">ToMeasurementPoint</text>
</a>
</g>
</g>
<!-- Node2 -->
<g id="Node000002" class="node">
<title>Node2</title>
<g id="a_Node000002"><a xlink:href="$class_measurement_point.html#a7b74a18d86e0e545264a774aa2c31cad" xlink:title="Get measurement point address.">
<polygon fill="white" stroke="#666666" points="318.5,-116.88 165.25,-116.88 165.25,-97.62 318.5,-97.62 318.5,-116.88"/>
<text xml:space="preserve" text-anchor="middle" x="241.88" y="-103.38" font-family="Helvetica,sans-Serif" font-size="10.00">MeasurementPoint::getAddress</text>
</a>
</g>
</g>
<!-- Node1&#45;&gt;Node2 -->
<g id="edge1_Node000001_Node000002" class="edge">
<title>Node1&#45;&gt;Node2</title>
<g id="a_edge1_Node000001_Node000002"><a xlink:title=" ">
<path fill="none" stroke="#63b8ff" d="M129.39,-79.9C148.93,-84.69 170.19,-89.91 188.85,-94.49"/>
<polygon fill="#63b8ff" stroke="#63b8ff" points="187.78,-97.83 198.33,-96.81 189.45,-91.03 187.78,-97.83"/>
</a>
</g>
</g>
<!-- Node3 -->
<g id="Node000003" class="node">
<title>Node3</title>
<g id="a_Node000003"><a xlink:href="$class_measurement_point.html#aefb47fef40f33161be5c6fddf0cf6329" xlink:title="Set high alarm threshold.">
<polygon fill="white" stroke="#666666" points="310.62,-30.5 173.12,-30.5 173.12,0 310.62,0 310.62,-30.5"/>
<text xml:space="preserve" text-anchor="start" x="181.12" y="-17" font-family="Helvetica,sans-Serif" font-size="10.00">MeasurementPoint::setHigh</text>
<text xml:space="preserve" text-anchor="middle" x="241.88" y="-5.75" font-family="Helvetica,sans-Serif" font-size="10.00">AlarmThreshold</text>
</a>
</g>
</g>
<!-- Node1&#45;&gt;Node3 -->
<g id="edge2_Node000001_Node000003" class="edge">
<title>Node1&#45;&gt;Node3</title>
<g id="a_edge2_Node000001_Node000003"><a xlink:title=" ">
<path fill="none" stroke="#63b8ff" d="M121.56,-48.61C138.07,-43.99 156.33,-38.89 173.48,-34.09"/>
<polygon fill="#63b8ff" stroke="#63b8ff" points="174.43,-37.46 183.11,-31.4 172.54,-30.72 174.43,-37.46"/>
</a>
</g>
</g>
<!-- Node6 -->
<g id="Node000006" class="node">
<title>Node6</title>
<g id="a_Node000006"><a xlink:href="$class_measurement_point.html#ac780917beebc11d705824cab8f43b94d" xlink:title="Set low alarm threshold.">
<polygon fill="white" stroke="#666666" points="309.5,-79.5 174.25,-79.5 174.25,-49 309.5,-49 309.5,-79.5"/>
<text xml:space="preserve" text-anchor="start" x="182.25" y="-66" font-family="Helvetica,sans-Serif" font-size="10.00">MeasurementPoint::setLow</text>
<text xml:space="preserve" text-anchor="middle" x="241.88" y="-54.75" font-family="Helvetica,sans-Serif" font-size="10.00">AlarmThreshold</text>
</a>
</g>
</g>
<!-- Node1&#45;&gt;Node6 -->
<g id="edge5_Node000001_Node000006" class="edge">
<title>Node1&#45;&gt;Node6</title>
<g id="a_edge5_Node000001_Node000006"><a xlink:title=" ">
<path fill="none" stroke="#63b8ff" d="M129.39,-64.25C140.14,-64.25 151.41,-64.25 162.48,-64.25"/>
<polygon fill="#63b8ff" stroke="#63b8ff" points="162.4,-67.75 172.4,-64.25 162.4,-60.75 162.4,-67.75"/>
</a>
</g>
</g>
<!-- Node4 -->
<g id="Node000004" class="node">
<title>Node4</title>
<g id="a_Node000004"><a xlink:href="$class_logger_manager.html#a5c1373ccc47f4112b596fe6f84fbbc21" xlink:title="Log informational message (static convenience method)">
<polygon fill="white" stroke="#666666" points="473.25,-71.88 368.75,-71.88 368.75,-52.62 473.25,-52.62 473.25,-71.88"/>
<text xml:space="preserve" text-anchor="middle" x="421" y="-58.38" font-family="Helvetica,sans-Serif" font-size="10.00">LoggerManager::info</text>
</a>
</g>
</g>
<!-- Node3&#45;&gt;Node4 -->
<g id="edge3_Node000003_Node000004" class="edge">
<title>Node3&#45;&gt;Node4</title>
<g id="a_edge3_Node000003_Node000004"><a xlink:title=" ">
<path fill="none" stroke="#63b8ff" d="M301.86,-30.9C324.2,-36.83 349.39,-43.51 370.76,-49.18"/>
<polygon fill="#63b8ff" stroke="#63b8ff" points="369.84,-52.56 380.4,-51.74 371.63,-45.79 369.84,-52.56"/>
</a>
</g>
</g>
<!-- Node5 -->
<g id="Node000005" class="node">
<title>Node5</title>
<g id="a_Node000005"><a xlink:href="$class_measurement_point.html#a71995209f2507e6cc15d01607f60767f" xlink:title="Update alarm status based on current temperature.">
<polygon fill="white" stroke="#666666" points="487.5,-33.5 354.5,-33.5 354.5,-3 487.5,-3 487.5,-33.5"/>
<text xml:space="preserve" text-anchor="start" x="362.5" y="-20" font-family="Helvetica,sans-Serif" font-size="10.00">MeasurementPoint::update</text>
<text xml:space="preserve" text-anchor="middle" x="421" y="-8.75" font-family="Helvetica,sans-Serif" font-size="10.00">AlarmStatus</text>
</a>
</g>
</g>
<!-- Node3&#45;&gt;Node5 -->
<g id="edge4_Node000003_Node000005" class="edge">
<title>Node3&#45;&gt;Node5</title>
<g id="a_edge4_Node000003_Node000005"><a xlink:title=" ">
<path fill="none" stroke="#63b8ff" d="M311.1,-16.41C321.48,-16.58 332.25,-16.76 342.8,-16.94"/>
<polygon fill="#63b8ff" stroke="#63b8ff" points="342.57,-20.44 352.63,-17.11 342.69,-13.44 342.57,-20.44"/>
</a>
</g>
</g>
<!-- Node6&#45;&gt;Node4 -->
<g id="edge6_Node000006_Node000004" class="edge">
<title>Node6&#45;&gt;Node4</title>
<g id="a_edge6_Node000006_Node000004"><a xlink:title=" ">
<path fill="none" stroke="#63b8ff" d="M309.84,-63.49C325.3,-63.32 341.69,-63.13 356.97,-62.96"/>
<polygon fill="#63b8ff" stroke="#63b8ff" points="356.93,-66.46 366.89,-62.85 356.86,-59.46 356.93,-66.46"/>
</a>
</g>
</g>
<!-- Node6&#45;&gt;Node5 -->
<g id="edge7_Node000006_Node000005" class="edge">
<title>Node6&#45;&gt;Node5</title>
<g id="a_edge7_Node000006_Node000005"><a xlink:title=" ">
<path fill="none" stroke="#63b8ff" d="M303.34,-48.55C317.93,-44.76 333.67,-40.67 348.71,-36.77"/>
<polygon fill="#63b8ff" stroke="#63b8ff" points="349.25,-40.24 358.05,-34.34 347.49,-33.47 349.25,-40.24"/>
</a>
</g>
</g>
</g>
</svg>
