<?xml version="1.0" encoding="UTF-8" standalone="no"?>
<!DOCTYPE svg PUBLIC "-//W3C//DTD SVG 1.1//EN"
 "http://www.w3.org/Graphics/SVG/1.1/DTD/svg11.dtd">
<!-- Generated by graphviz version 13.1.0 (20250701.0955)
 -->
<!-- Title: TemperatureController::getSensorsJson Pages: 1 -->
<svg width="509pt" height="110pt"
 viewBox="0.00 0.00 509.00 110.00" xmlns="http://www.w3.org/2000/svg" xmlns:xlink="http://www.w3.org/1999/xlink">
<g id="graph0" class="graph" transform="scale(1 1) rotate(0) translate(4 106.25)">
<title>TemperatureController::getSensorsJson</title>
<!-- Node1 -->
<g id="Node000001" class="node">
<title>Node1</title>
<g id="a_Node000001"><a xlink:title=" ">
<polygon fill="#999999" stroke="#666666" points="112,-64.88 0,-64.88 0,-34.38 112,-34.38 112,-64.88"/>
<text xml:space="preserve" text-anchor="start" x="8" y="-51.38" font-family="Helvetica,sans-Serif" font-size="10.00">TemperatureController</text>
<text xml:space="preserve" text-anchor="middle" x="56" y="-40.12" font-family="Helvetica,sans-Serif" font-size="10.00">::getSensorsJson</text>
</a>
</g>
</g>
<!-- Node2 -->
<g id="Node000002" class="node">
<title>Node2</title>
<g id="a_Node000002"><a xlink:href="class_sensor.html#a9f793cde2918130fbc77dad1aebfe53a" target="_top" xlink:title=" ">
<polygon fill="white" stroke="#666666" points="302.75,-102.25 148,-102.25 148,-83 302.75,-83 302.75,-102.25"/>
<text xml:space="preserve" text-anchor="middle" x="225.38" y="-88.75" font-family="Helvetica,sans-Serif" font-size="10.00">Sensor::getDS18B20RomString</text>
</a>
</g>
</g>
<!-- Node1&#45;&gt;Node2 -->
<g id="edge1_Node000001_Node000002" class="edge">
<title>Node1&#45;&gt;Node2</title>
<g id="a_edge1_Node000001_Node000002"><a xlink:title=" ">
<path fill="none" stroke="#63b8ff" d="M112.31,-64.34C124.08,-67.44 136.45,-70.66 148,-73.62 155.92,-75.65 164.3,-77.77 172.51,-79.83"/>
<polygon fill="#63b8ff" stroke="#63b8ff" points="171.5,-83.18 182.05,-82.21 173.2,-76.39 171.5,-83.18"/>
</a>
</g>
</g>
<!-- Node3 -->
<g id="Node000003" class="node">
<title>Node3</title>
<g id="a_Node000003"><a xlink:href="class_temperature_controller.html#a01e04714a1712aa10c34276850971a12" target="_top" xlink:title=" ">
<polygon fill="white" stroke="#666666" points="281.38,-64.88 169.38,-64.88 169.38,-34.38 281.38,-34.38 281.38,-64.88"/>
<text xml:space="preserve" text-anchor="start" x="177.38" y="-51.38" font-family="Helvetica,sans-Serif" font-size="10.00">TemperatureController</text>
<text xml:space="preserve" text-anchor="middle" x="225.38" y="-40.12" font-family="Helvetica,sans-Serif" font-size="10.00">::getSensorBus</text>
</a>
</g>
</g>
<!-- Node1&#45;&gt;Node3 -->
<g id="edge2_Node000001_Node000003" class="edge">
<title>Node1&#45;&gt;Node3</title>
<g id="a_edge2_Node000001_Node000003"><a xlink:title=" ">
<path fill="none" stroke="#63b8ff" d="M112.27,-49.62C126.76,-49.62 142.54,-49.62 157.57,-49.62"/>
<polygon fill="#63b8ff" stroke="#63b8ff" points="157.37,-53.13 167.37,-49.63 157.36,-46.13 157.37,-53.13"/>
</a>
</g>
</g>
<!-- Node6 -->
<g id="Node000006" class="node">
<title>Node6</title>
<g id="a_Node000006"><a xlink:href="class_sensor.html#a0f6f095e7cfdfffb2a395dfdae7cfa53" target="_top" xlink:title=" ">
<polygon fill="white" stroke="#666666" points="463.5,-19.25 376.25,-19.25 376.25,0 463.5,0 463.5,-19.25"/>
<text xml:space="preserve" text-anchor="middle" x="419.88" y="-5.75" font-family="Helvetica,sans-Serif" font-size="10.00">Sensor::getType</text>
</a>
</g>
</g>
<!-- Node1&#45;&gt;Node6 -->
<g id="edge6_Node000001_Node000006" class="edge">
<title>Node1&#45;&gt;Node6</title>
<g id="a_edge6_Node000001_Node000006"><a xlink:title=" ">
<path fill="none" stroke="#63b8ff" d="M109.07,-33.99C121.71,-30.73 135.25,-27.66 148,-25.62 222.48,-13.72 309.75,-10.45 364.68,-9.67"/>
<polygon fill="#63b8ff" stroke="#63b8ff" points="364.43,-13.17 374.38,-9.56 364.34,-6.17 364.43,-13.17"/>
</a>
</g>
</g>
<!-- Node4 -->
<g id="Node000004" class="node">
<title>Node4</title>
<g id="a_Node000004"><a xlink:href="class_sensor.html#ac42da3a37b0d6a9622344fe83f4c9047" target="_top" xlink:title=" ">
<polygon fill="white" stroke="#666666" points="479.25,-94.25 360.5,-94.25 360.5,-75 479.25,-75 479.25,-94.25"/>
<text xml:space="preserve" text-anchor="middle" x="419.88" y="-80.75" font-family="Helvetica,sans-Serif" font-size="10.00">Sensor::getOneWirePin</text>
</a>
</g>
</g>
<!-- Node3&#45;&gt;Node4 -->
<g id="edge3_Node000003_Node000004" class="edge">
<title>Node3&#45;&gt;Node4</title>
<g id="a_edge3_Node000003_Node000004"><a xlink:title=" ">
<path fill="none" stroke="#63b8ff" d="M281.8,-59.7C303.85,-63.71 329.4,-68.36 352.44,-72.55"/>
<polygon fill="#63b8ff" stroke="#63b8ff" points="351.56,-75.94 362.02,-74.29 352.81,-69.06 351.56,-75.94"/>
</a>
</g>
</g>
<!-- Node5 -->
<g id="Node000005" class="node">
<title>Node5</title>
<g id="a_Node000005"><a xlink:href="class_sensor.html#a6f57825e90b759ccdb9fe07b3a36953d" target="_top" xlink:title=" ">
<polygon fill="white" stroke="#666666" points="501,-57.25 338.75,-57.25 338.75,-38 501,-38 501,-57.25"/>
<text xml:space="preserve" text-anchor="middle" x="419.88" y="-43.75" font-family="Helvetica,sans-Serif" font-size="10.00">Sensor::getPT1000ChipSelectPin</text>
</a>
</g>
</g>
<!-- Node3&#45;&gt;Node5 -->
<g id="edge4_Node000003_Node000005" class="edge">
<title>Node3&#45;&gt;Node5</title>
<g id="a_edge4_Node000003_Node000005"><a xlink:title=" ">
<path fill="none" stroke="#63b8ff" d="M281.8,-49.05C296.01,-48.9 311.68,-48.74 327.19,-48.58"/>
<polygon fill="#63b8ff" stroke="#63b8ff" points="326.95,-52.08 336.92,-48.48 326.88,-45.08 326.95,-52.08"/>
</a>
</g>
</g>
<!-- Node3&#45;&gt;Node6 -->
<g id="edge5_Node000003_Node000006" class="edge">
<title>Node3&#45;&gt;Node6</title>
<g id="a_edge5_Node000003_Node000006"><a xlink:title=" ">
<path fill="none" stroke="#63b8ff" d="M281.8,-38.11C307.92,-32.68 338.97,-26.23 364.91,-20.84"/>
<polygon fill="#63b8ff" stroke="#63b8ff" points="365.49,-24.29 374.57,-18.83 364.07,-17.44 365.49,-24.29"/>
</a>
</g>
</g>
</g>
</svg>
