<?xml version="1.0" encoding="UTF-8" standalone="no"?>
<!DOCTYPE svg PUBLIC "-//W3C//DTD SVG 1.1//EN"
 "http://www.w3.org/Graphics/SVG/1.1/DTD/svg11.dtd">
<!-- Generated by graphviz version 13.1.0 (20250701.0955)
 -->
<!-- Title: LoggerManager::logDataNow Pages: 1 -->
<svg width="756pt" height="235pt"
 viewBox="0.00 0.00 756.00 235.00" xmlns="http://www.w3.org/2000/svg" xmlns:xlink="http://www.w3.org/1999/xlink">
<g id="graph0" class="graph" transform="scale(1 1) rotate(0) translate(4 230.88)">
<title>LoggerManager::logDataNow</title>
<!-- Node1 -->
<g id="Node000001" class="node">
<title>Node1</title>
<g id="a_Node000001"><a xlink:title=" ">
<polygon fill="#999999" stroke="#666666" points="142.75,-80.25 0,-80.25 0,-61 142.75,-61 142.75,-80.25"/>
<text xml:space="preserve" text-anchor="middle" x="71.38" y="-66.75" font-family="Helvetica,sans-Serif" font-size="10.00">LoggerManager::logDataNow</text>
</a>
</g>
</g>
<!-- Node2 -->
<g id="Node000002" class="node">
<title>Node2</title>
<g id="a_Node000002"><a xlink:href="class_logger_manager.html#aa6938b6a5c002d6ed72ef352f0cc7a19" target="_top" xlink:title=" ">
<polygon fill="white" stroke="#666666" points="335,-123.25 178.75,-123.25 178.75,-104 335,-104 335,-123.25"/>
<text xml:space="preserve" text-anchor="middle" x="256.88" y="-109.75" font-family="Helvetica,sans-Serif" font-size="10.00">LoggerManager::_writeDataRow</text>
</a>
</g>
</g>
<!-- Node1&#45;&gt;Node2 -->
<g id="edge1_Node000001_Node000002" class="edge">
<title>Node1&#45;&gt;Node2</title>
<g id="a_edge1_Node000001_Node000002"><a xlink:title=" ">
<path fill="none" stroke="#63b8ff" d="M115.4,-80.71C141.19,-86.75 174.21,-94.49 201.76,-100.94"/>
<polygon fill="#63b8ff" stroke="#63b8ff" points="200.8,-104.31 211.33,-103.19 202.39,-97.5 200.8,-104.31"/>
</a>
</g>
</g>
<!-- Node7 -->
<g id="Node000007" class="node">
<title>Node7</title>
<g id="a_Node000007"><a xlink:href="class_logger_manager.html#a4095daee15dce39ba5f802ea5b5661a2" target="_top" xlink:title=" ">
<polygon fill="white" stroke="#666666" points="330.12,-62.25 183.62,-62.25 183.62,-43 330.12,-43 330.12,-62.25"/>
<text xml:space="preserve" text-anchor="middle" x="256.88" y="-48.75" font-family="Helvetica,sans-Serif" font-size="10.00">LoggerManager::_writeHeader</text>
</a>
</g>
</g>
<!-- Node1&#45;&gt;Node7 -->
<g id="edge6_Node000001_Node000007" class="edge">
<title>Node1&#45;&gt;Node7</title>
<g id="a_edge6_Node000001_Node000007"><a xlink:title=" ">
<path fill="none" stroke="#63b8ff" d="M143.06,-63.69C152.56,-62.76 162.39,-61.8 172.1,-60.84"/>
<polygon fill="#63b8ff" stroke="#63b8ff" points="172.29,-64.34 181.9,-59.88 171.61,-57.37 172.29,-64.34"/>
</a>
</g>
</g>
<!-- Node3 -->
<g id="Node000003" class="node">
<title>Node3</title>
<g id="a_Node000003"><a xlink:href="class_logger_manager.html#a3ca0b934265a4d9ce6391bf97dec179a" target="_top" xlink:title=" ">
<polygon fill="white" stroke="#666666" points="527.62,-226.88 387.88,-226.88 387.88,-196.38 527.62,-196.38 527.62,-226.88"/>
<text xml:space="preserve" text-anchor="start" x="395.88" y="-213.38" font-family="Helvetica,sans-Serif" font-size="10.00">LoggerManager::_getCurrent</text>
<text xml:space="preserve" text-anchor="middle" x="457.75" y="-202.12" font-family="Helvetica,sans-Serif" font-size="10.00">DateString</text>
</a>
</g>
</g>
<!-- Node2&#45;&gt;Node3 -->
<g id="edge2_Node000002_Node000003" class="edge">
<title>Node2&#45;&gt;Node3</title>
<g id="a_edge2_Node000002_Node000003"><a xlink:title=" ">
<path fill="none" stroke="#63b8ff" d="M270.73,-123.71C291,-139.19 332.09,-168.86 371,-186.62 375.28,-188.58 379.76,-190.43 384.32,-192.16"/>
<polygon fill="#63b8ff" stroke="#63b8ff" points="383.04,-195.42 393.64,-195.48 385.4,-188.82 383.04,-195.42"/>
</a>
</g>
</g>
<!-- Node4 -->
<g id="Node000004" class="node">
<title>Node4</title>
<g id="a_Node000004"><a xlink:href="class_logger_manager.html#a4f31651f8963f741bfbdb944164ffc15" target="_top" xlink:title=" ">
<polygon fill="white" stroke="#666666" points="527.62,-177.88 387.88,-177.88 387.88,-147.38 527.62,-147.38 527.62,-177.88"/>
<text xml:space="preserve" text-anchor="start" x="395.88" y="-164.38" font-family="Helvetica,sans-Serif" font-size="10.00">LoggerManager::_getCurrent</text>
<text xml:space="preserve" text-anchor="middle" x="457.75" y="-153.12" font-family="Helvetica,sans-Serif" font-size="10.00">TimeString</text>
</a>
</g>
</g>
<!-- Node2&#45;&gt;Node4 -->
<g id="edge3_Node000002_Node000004" class="edge">
<title>Node2&#45;&gt;Node4</title>
<g id="a_edge3_Node000002_Node000004"><a xlink:title=" ">
<path fill="none" stroke="#63b8ff" d="M298.6,-123.66C322.58,-129.57 353.65,-137.22 381.9,-144.18"/>
<polygon fill="#63b8ff" stroke="#63b8ff" points="380.96,-147.56 391.51,-146.55 382.63,-140.76 380.96,-147.56"/>
</a>
</g>
</g>
<!-- Node5 -->
<g id="Node000005" class="node">
<title>Node5</title>
<g id="a_Node000005"><a xlink:href="class_measurement_point.html#a81c7ae93a9314344967d0f31c6fefe2f" target="_top" xlink:title="Get pointer to bound sensor.">
<polygon fill="white" stroke="#666666" points="530.25,-128.88 385.25,-128.88 385.25,-98.38 530.25,-98.38 530.25,-128.88"/>
<text xml:space="preserve" text-anchor="start" x="393.25" y="-115.38" font-family="Helvetica,sans-Serif" font-size="10.00">MeasurementPoint::getBound</text>
<text xml:space="preserve" text-anchor="middle" x="457.75" y="-104.12" font-family="Helvetica,sans-Serif" font-size="10.00">Sensor</text>
</a>
</g>
</g>
<!-- Node2&#45;&gt;Node5 -->
<g id="edge4_Node000002_Node000005" class="edge">
<title>Node2&#45;&gt;Node5</title>
<g id="a_edge4_Node000002_Node000005"><a xlink:title=" ">
<path fill="none" stroke="#63b8ff" d="M335.33,-113.62C347.86,-113.62 360.88,-113.62 373.53,-113.62"/>
<polygon fill="#63b8ff" stroke="#63b8ff" points="373.51,-117.13 383.51,-113.63 373.51,-110.13 373.51,-117.13"/>
</a>
</g>
</g>
<!-- Node6 -->
<g id="Node000006" class="node">
<title>Node6</title>
<g id="a_Node000006"><a xlink:href="class_measurement_point.html#aceaf14fde40bcd5331e5ea6a07d7dde8" target="_top" xlink:title="Get current temperature.">
<polygon fill="white" stroke="#666666" points="544.5,-80.25 371,-80.25 371,-61 544.5,-61 544.5,-80.25"/>
<text xml:space="preserve" text-anchor="middle" x="457.75" y="-66.75" font-family="Helvetica,sans-Serif" font-size="10.00">MeasurementPoint::getCurrentTemp</text>
</a>
</g>
</g>
<!-- Node2&#45;&gt;Node6 -->
<g id="edge5_Node000002_Node000006" class="edge">
<title>Node2&#45;&gt;Node6</title>
<g id="a_edge5_Node000002_Node000006"><a xlink:title=" ">
<path fill="none" stroke="#63b8ff" d="M304.5,-103.54C332.7,-97.45 368.88,-89.62 398.9,-83.13"/>
<polygon fill="#63b8ff" stroke="#63b8ff" points="399.56,-86.57 408.59,-81.04 398.08,-79.73 399.56,-86.57"/>
</a>
</g>
</g>
<!-- Node8 -->
<g id="Node000008" class="node">
<title>Node8</title>
<g id="a_Node000008"><a xlink:href="class_logger_manager.html#aab43f573f73cfe426cfbea04a9fdd3ee" target="_top" xlink:title=" ">
<polygon fill="white" stroke="#666666" points="523.5,-42.88 392,-42.88 392,-12.37 523.5,-12.37 523.5,-42.88"/>
<text xml:space="preserve" text-anchor="start" x="400" y="-29.38" font-family="Helvetica,sans-Serif" font-size="10.00">LoggerManager::_generate</text>
<text xml:space="preserve" text-anchor="middle" x="457.75" y="-18.12" font-family="Helvetica,sans-Serif" font-size="10.00">CSVHeader</text>
</a>
</g>
</g>
<!-- Node7&#45;&gt;Node8 -->
<g id="edge7_Node000007_Node000008" class="edge">
<title>Node7&#45;&gt;Node8</title>
<g id="a_edge7_Node000007_Node000008"><a xlink:title=" ">
<path fill="none" stroke="#63b8ff" d="M330.52,-43.49C346.75,-41.45 364,-39.28 380.38,-37.23"/>
<polygon fill="#63b8ff" stroke="#63b8ff" points="380.56,-40.73 390.05,-36.01 379.69,-33.78 380.56,-40.73"/>
</a>
</g>
</g>
<!-- Node9 -->
<g id="Node000009" class="node">
<title>Node9</title>
<g id="a_Node000009"><a xlink:href="class_logger_manager.html#a57d230cd2896120a32ecf55a14895d55" target="_top" xlink:title=" ">
<polygon fill="white" stroke="#666666" points="748,-56.25 580.5,-56.25 580.5,-37 748,-37 748,-56.25"/>
<text xml:space="preserve" text-anchor="middle" x="664.25" y="-42.75" font-family="Helvetica,sans-Serif" font-size="10.00">LoggerManager::_escapeCSVField</text>
</a>
</g>
</g>
<!-- Node8&#45;&gt;Node9 -->
<g id="edge8_Node000008_Node000009" class="edge">
<title>Node8&#45;&gt;Node9</title>
<g id="a_edge8_Node000008_Node000009"><a xlink:title=" ">
<path fill="none" stroke="#63b8ff" d="M523.74,-33.66C538.14,-35 553.68,-36.44 568.98,-37.87"/>
<polygon fill="#63b8ff" stroke="#63b8ff" points="568.27,-41.32 578.55,-38.76 568.92,-34.35 568.27,-41.32"/>
</a>
</g>
</g>
<!-- Node10 -->
<g id="Node000010" class="node">
<title>Node10</title>
<g id="a_Node000010"><a xlink:href="class_measurement_point.html#aa3a80d373c7609c7b178bf7353ffdd7a" target="_top" xlink:title="Get measurement point name.">
<polygon fill="white" stroke="#666666" points="736,-19.25 592.5,-19.25 592.5,0 736,0 736,-19.25"/>
<text xml:space="preserve" text-anchor="middle" x="664.25" y="-5.75" font-family="Helvetica,sans-Serif" font-size="10.00">MeasurementPoint::getName</text>
</a>
</g>
</g>
<!-- Node8&#45;&gt;Node10 -->
<g id="edge9_Node000008_Node000010" class="edge">
<title>Node8&#45;&gt;Node10</title>
<g id="a_edge9_Node000008_Node000010"><a xlink:title=" ">
<path fill="none" stroke="#63b8ff" d="M523.74,-21.9C541.84,-20.31 561.74,-18.56 580.7,-16.89"/>
<polygon fill="#63b8ff" stroke="#63b8ff" points="580.89,-20.39 590.54,-16.02 580.28,-13.41 580.89,-20.39"/>
</a>
</g>
</g>
</g>
</svg>
