<?xml version="1.0" encoding="UTF-8" standalone="no"?>
<!DOCTYPE svg PUBLIC "-//W3C//DTD SVG 1.1//EN"
 "http://www.w3.org/Graphics/SVG/1.1/DTD/svg11.dtd">
<!-- Generated by graphviz version 13.1.0 (20250701.0955)
 -->
<!-- Title: MQTTManager::begin Pages: 1 -->
<svg width="678pt" height="64pt"
 viewBox="0.00 0.00 678.00 64.00" xmlns="http://www.w3.org/2000/svg" xmlns:xlink="http://www.w3.org/1999/xlink">
<g id="graph0" class="graph" transform="scale(1 1) rotate(0) translate(4 60.25)">
<title>MQTTManager::begin</title>
<!-- Node1 -->
<g id="Node000001" class="node">
<title>Node1</title>
<g id="a_Node000001"><a xlink:title="Initialize MQTT manager and establish connection.">
<polygon fill="#999999" stroke="#666666" points="110.5,-37.25 0,-37.25 0,-18 110.5,-18 110.5,-37.25"/>
<text xml:space="preserve" text-anchor="middle" x="55.25" y="-23.75" font-family="Helvetica,sans-Serif" font-size="10.00">MQTTManager::begin</text>
</a>
</g>
</g>
<!-- Node2 -->
<g id="Node000002" class="node">
<title>Node2</title>
<g id="a_Node000002"><a xlink:href="class_m_q_t_t_manager.html#a43dca57da65facd4d341963403dd737b" target="_top" xlink:title="Load configuration from JSON file on SD card.">
<polygon fill="white" stroke="#666666" points="296,-56.25 162.25,-56.25 162.25,-37 296,-37 296,-56.25"/>
<text xml:space="preserve" text-anchor="middle" x="229.12" y="-42.75" font-family="Helvetica,sans-Serif" font-size="10.00">MQTTManager::loadConfig</text>
</a>
</g>
</g>
<!-- Node1&#45;&gt;Node2 -->
<g id="edge1_Node000001_Node000002" class="edge">
<title>Node1&#45;&gt;Node2</title>
<g id="a_edge1_Node000001_Node000002"><a xlink:title=" ">
<path fill="none" stroke="#63b8ff" d="M110.63,-33.64C123.39,-35.05 137.22,-36.58 150.76,-38.07"/>
<polygon fill="#63b8ff" stroke="#63b8ff" points="150.21,-41.53 160.54,-39.15 150.98,-34.58 150.21,-41.53"/>
</a>
</g>
</g>
<!-- Node5 -->
<g id="Node000005" class="node">
<title>Node5</title>
<g id="a_Node000005"><a xlink:href="class_m_q_t_t_manager.html#aaac19647fab19e7a0f819691ba06e772" target="_top" xlink:title="Static callback function for MQTT message reception.">
<polygon fill="white" stroke="#666666" points="311.75,-19.25 146.5,-19.25 146.5,0 311.75,0 311.75,-19.25"/>
<text xml:space="preserve" text-anchor="middle" x="229.12" y="-5.75" font-family="Helvetica,sans-Serif" font-size="10.00">MQTTManager::messageCallback</text>
</a>
</g>
</g>
<!-- Node1&#45;&gt;Node5 -->
<g id="edge4_Node000001_Node000005" class="edge">
<title>Node1&#45;&gt;Node5</title>
<g id="a_edge4_Node000001_Node000005"><a xlink:title=" ">
<path fill="none" stroke="#63b8ff" d="M110.63,-21.93C118.41,-21.12 126.58,-20.26 134.85,-19.39"/>
<polygon fill="#63b8ff" stroke="#63b8ff" points="135.07,-22.89 144.65,-18.37 134.34,-15.93 135.07,-22.89"/>
</a>
</g>
</g>
<!-- Node3 -->
<g id="Node000003" class="node">
<title>Node3</title>
<g id="a_Node000003"><a xlink:href="class_m_q_t_t_manager.html#ac17b9ceb70d483611944d626c8c933a1" target="_top" xlink:title="Set configuration from JSON string.">
<polygon fill="white" stroke="#666666" points="500.62,-56.25 350.38,-56.25 350.38,-37 500.62,-37 500.62,-56.25"/>
<text xml:space="preserve" text-anchor="middle" x="425.5" y="-42.75" font-family="Helvetica,sans-Serif" font-size="10.00">MQTTManager::setConfigJson</text>
</a>
</g>
</g>
<!-- Node2&#45;&gt;Node3 -->
<g id="edge2_Node000002_Node000003" class="edge">
<title>Node2&#45;&gt;Node3</title>
<g id="a_edge2_Node000002_Node000003"><a xlink:title=" ">
<path fill="none" stroke="#63b8ff" d="M296.47,-46.62C310.1,-46.62 324.63,-46.62 338.82,-46.62"/>
<polygon fill="#63b8ff" stroke="#63b8ff" points="338.59,-50.13 348.59,-46.63 338.59,-43.13 338.59,-50.13"/>
</a>
</g>
</g>
<!-- Node4 -->
<g id="Node000004" class="node">
<title>Node4</title>
<g id="a_Node000004"><a xlink:href="class_m_q_t_t_manager.html#a542f100738a605efbd30b788835efd1d" target="_top" xlink:title="Build topic string based on configuration.">
<polygon fill="white" stroke="#666666" points="670,-56.25 539.25,-56.25 539.25,-37 670,-37 670,-56.25"/>
<text xml:space="preserve" text-anchor="middle" x="604.62" y="-42.75" font-family="Helvetica,sans-Serif" font-size="10.00">MQTTManager::buildTopic</text>
</a>
</g>
</g>
<!-- Node3&#45;&gt;Node4 -->
<g id="edge3_Node000003_Node000004" class="edge">
<title>Node3&#45;&gt;Node4</title>
<g id="a_edge3_Node000003_Node000004"><a xlink:title=" ">
<path fill="none" stroke="#63b8ff" d="M501.1,-46.62C509.85,-46.62 518.78,-46.62 527.54,-46.62"/>
<polygon fill="#63b8ff" stroke="#63b8ff" points="527.42,-50.13 537.42,-46.63 527.42,-43.13 527.42,-50.13"/>
</a>
</g>
</g>
<!-- Node6 -->
<g id="Node000006" class="node">
<title>Node6</title>
<g id="a_Node000006"><a xlink:href="class_m_q_t_t_manager.html#aa915f47a548fa481517a2450ad1a6970" target="_top" xlink:title="Static method to handle received messages.">
<polygon fill="white" stroke="#666666" points="503.25,-19.25 347.75,-19.25 347.75,0 503.25,0 503.25,-19.25"/>
<text xml:space="preserve" text-anchor="middle" x="425.5" y="-5.75" font-family="Helvetica,sans-Serif" font-size="10.00">MQTTManager::handleMessage</text>
</a>
</g>
</g>
<!-- Node5&#45;&gt;Node6 -->
<g id="edge5_Node000005_Node000006" class="edge">
<title>Node5&#45;&gt;Node6</title>
<g id="a_edge5_Node000005_Node000006"><a xlink:title=" ">
<path fill="none" stroke="#63b8ff" d="M311.99,-9.62C319.96,-9.62 328.07,-9.62 336.1,-9.62"/>
<polygon fill="#63b8ff" stroke="#63b8ff" points="335.86,-13.13 345.86,-9.63 335.86,-6.13 335.86,-13.13"/>
</a>
</g>
</g>
</g>
</svg>
