<?xml version="1.0" encoding="UTF-8" standalone="no"?>
<!DOCTYPE svg PUBLIC "-//W3C//DTD SVG 1.1//EN"
 "http://www.w3.org/Graphics/SVG/1.1/DTD/svg11.dtd">
<!-- Generated by graphviz version 13.1.0 (20250701.0955)
 -->
<!-- Title: TemperatureController::updateAlarm Pages: 1 -->
<svg width="427pt" height="150pt"
 viewBox="0.00 0.00 427.00 150.00" xmlns="http://www.w3.org/2000/svg" xmlns:xlink="http://www.w3.org/1999/xlink">
<g id="graph0" class="graph" transform="scale(1 1) rotate(0) translate(4 145.88)">
<title>TemperatureController::updateAlarm</title>
<!-- Node1 -->
<g id="Node000001" class="node">
<title>Node1</title>
<g id="a_Node000001"><a xlink:title=" ">
<polygon fill="#999999" stroke="#666666" points="112,-98.88 0,-98.88 0,-68.38 112,-68.38 112,-98.88"/>
<text xml:space="preserve" text-anchor="start" x="8" y="-85.38" font-family="Helvetica,sans-Serif" font-size="10.00">TemperatureController</text>
<text xml:space="preserve" text-anchor="middle" x="56" y="-74.12" font-family="Helvetica,sans-Serif" font-size="10.00">::updateAlarm</text>
</a>
</g>
</g>
<!-- Node2 -->
<g id="Node000002" class="node">
<title>Node2</title>
<g id="a_Node000002"><a xlink:href="class_temperature_controller.html#ae7d9c642f7ae697c2679e61d4da45868" target="_top" xlink:title=" ">
<polygon fill="white" stroke="#666666" points="260,-141.88 148,-141.88 148,-111.38 260,-111.38 260,-141.88"/>
<text xml:space="preserve" text-anchor="start" x="156" y="-128.38" font-family="Helvetica,sans-Serif" font-size="10.00">TemperatureController</text>
<text xml:space="preserve" text-anchor="middle" x="204" y="-117.12" font-family="Helvetica,sans-Serif" font-size="10.00">::findAlarm</text>
</a>
</g>
</g>
<!-- Node1&#45;&gt;Node2 -->
<g id="edge1_Node000001_Node000002" class="edge">
<title>Node1&#45;&gt;Node2</title>
<g id="a_edge1_Node000001_Node000002"><a xlink:title=" ">
<path fill="none" stroke="#63b8ff" d="M110.12,-99.27C119.48,-102.03 129.31,-104.92 138.94,-107.76"/>
<polygon fill="#63b8ff" stroke="#63b8ff" points="137.64,-111.02 148.22,-110.49 139.62,-104.31 137.64,-111.02"/>
</a>
</g>
</g>
<!-- Node3 -->
<g id="Node000003" class="node">
<title>Node3</title>
<g id="a_Node000003"><a xlink:href="class_alarm.html#acb8f203b2e2317c1f835bb4b19123f3f" target="_top" xlink:title="Enable or disable the alarm.">
<polygon fill="white" stroke="#666666" points="252.12,-93.25 155.88,-93.25 155.88,-74 252.12,-74 252.12,-93.25"/>
<text xml:space="preserve" text-anchor="middle" x="204" y="-79.75" font-family="Helvetica,sans-Serif" font-size="10.00">Alarm::setEnabled</text>
</a>
</g>
</g>
<!-- Node1&#45;&gt;Node3 -->
<g id="edge2_Node000001_Node000003" class="edge">
<title>Node1&#45;&gt;Node3</title>
<g id="a_edge2_Node000001_Node000003"><a xlink:title=" ">
<path fill="none" stroke="#63b8ff" d="M112.2,-83.62C122.75,-83.62 133.84,-83.62 144.49,-83.62"/>
<polygon fill="#63b8ff" stroke="#63b8ff" points="144.33,-87.13 154.33,-83.63 144.33,-80.13 144.33,-87.13"/>
</a>
</g>
</g>
<!-- Node6 -->
<g id="Node000006" class="node">
<title>Node6</title>
<g id="a_Node000006"><a xlink:href="class_alarm.html#a5095c54c304a52ebbaca5a2ea74059cd" target="_top" xlink:title="Set the alarm priority.">
<polygon fill="white" stroke="#666666" points="249.88,-56.25 158.12,-56.25 158.12,-37 249.88,-37 249.88,-56.25"/>
<text xml:space="preserve" text-anchor="middle" x="204" y="-42.75" font-family="Helvetica,sans-Serif" font-size="10.00">Alarm::setPriority</text>
</a>
</g>
</g>
<!-- Node1&#45;&gt;Node6 -->
<g id="edge5_Node000001_Node000006" class="edge">
<title>Node1&#45;&gt;Node6</title>
<g id="a_edge5_Node000001_Node000006"><a xlink:title=" ">
<path fill="none" stroke="#63b8ff" d="M112.2,-69.64C125.31,-66.31 139.24,-62.78 152.16,-59.51"/>
<polygon fill="#63b8ff" stroke="#63b8ff" points="152.89,-62.93 161.73,-57.09 151.17,-56.15 152.89,-62.93"/>
</a>
</g>
</g>
<!-- Node4 -->
<g id="Node000004" class="node">
<title>Node4</title>
<g id="a_Node000004"><a xlink:href="class_alarm.html#abd578ec75a5ac9bce00b7ce7207c5d8c" target="_top" xlink:title="Get alarm type as string.">
<polygon fill="white" stroke="#666666" points="411,-56.25 303.5,-56.25 303.5,-37 411,-37 411,-56.25"/>
<text xml:space="preserve" text-anchor="middle" x="357.25" y="-42.75" font-family="Helvetica,sans-Serif" font-size="10.00">Alarm::getTypeString</text>
</a>
</g>
</g>
<!-- Node3&#45;&gt;Node4 -->
<g id="edge3_Node000003_Node000004" class="edge">
<title>Node3&#45;&gt;Node4</title>
<g id="a_edge3_Node000003_Node000004"><a xlink:title=" ">
<path fill="none" stroke="#63b8ff" d="M246.33,-73.51C264.09,-69.17 285.04,-64.04 303.87,-59.44"/>
<polygon fill="#63b8ff" stroke="#63b8ff" points="304.62,-62.86 313.5,-57.08 302.95,-56.06 304.62,-62.86"/>
</a>
</g>
</g>
<!-- Node5 -->
<g id="Node000005" class="node">
<title>Node5</title>
<g id="a_Node000005"><a xlink:href="class_logger_manager.html#a5c1373ccc47f4112b596fe6f84fbbc21" target="_top" xlink:title="Log informational message (static convenience method)">
<polygon fill="white" stroke="#666666" points="409.5,-93.25 305,-93.25 305,-74 409.5,-74 409.5,-93.25"/>
<text xml:space="preserve" text-anchor="middle" x="357.25" y="-79.75" font-family="Helvetica,sans-Serif" font-size="10.00">LoggerManager::info</text>
</a>
</g>
</g>
<!-- Node3&#45;&gt;Node5 -->
<g id="edge4_Node000003_Node000005" class="edge">
<title>Node3&#45;&gt;Node5</title>
<g id="a_edge4_Node000003_Node000005"><a xlink:title=" ">
<path fill="none" stroke="#63b8ff" d="M252.44,-83.62C265.37,-83.62 279.58,-83.62 293.22,-83.62"/>
<polygon fill="#63b8ff" stroke="#63b8ff" points="293,-87.13 303,-83.63 293,-80.13 293,-87.13"/>
</a>
</g>
</g>
<!-- Node6&#45;&gt;Node4 -->
<g id="edge7_Node000006_Node000004" class="edge">
<title>Node6&#45;&gt;Node4</title>
<g id="a_edge7_Node000006_Node000004"><a xlink:title=" ">
<path fill="none" stroke="#63b8ff" d="M249.97,-46.62C263.16,-46.62 277.85,-46.62 292,-46.62"/>
<polygon fill="#63b8ff" stroke="#63b8ff" points="291.68,-50.13 301.68,-46.63 291.68,-43.13 291.68,-50.13"/>
</a>
</g>
</g>
<!-- Node6&#45;&gt;Node5 -->
<g id="edge8_Node000006_Node000005" class="edge">
<title>Node6&#45;&gt;Node5</title>
<g id="a_edge8_Node000006_Node000005"><a xlink:title=" ">
<path fill="none" stroke="#63b8ff" d="M246.33,-56.74C264.09,-61.08 285.04,-66.21 303.87,-70.81"/>
<polygon fill="#63b8ff" stroke="#63b8ff" points="302.95,-74.19 313.5,-73.17 304.62,-67.39 302.95,-74.19"/>
</a>
</g>
</g>
<!-- Node7 -->
<g id="Node000007" class="node">
<title>Node7</title>
<g id="a_Node000007"><a xlink:href="class_alarm.html#a052a73879f5cd039f6f7cb7ce02e6a9d" target="_top" xlink:title="Get priority as string (internal version)">
<polygon fill="white" stroke="#666666" points="418.5,-19.25 296,-19.25 296,0 418.5,0 418.5,-19.25"/>
<text xml:space="preserve" text-anchor="middle" x="357.25" y="-5.75" font-family="Helvetica,sans-Serif" font-size="10.00">Alarm::_getPriorityString</text>
</a>
</g>
</g>
<!-- Node6&#45;&gt;Node7 -->
<g id="edge6_Node000006_Node000007" class="edge">
<title>Node6&#45;&gt;Node7</title>
<g id="a_edge6_Node000006_Node000007"><a xlink:title=" ">
<path fill="none" stroke="#63b8ff" d="M246.33,-36.51C264.09,-32.17 285.04,-27.04 303.87,-22.44"/>
<polygon fill="#63b8ff" stroke="#63b8ff" points="304.62,-25.86 313.5,-20.08 302.95,-19.06 304.62,-25.86"/>
</a>
</g>
</g>
</g>
</svg>
