<?xml version="1.0" encoding="UTF-8" standalone="no"?>
<!DOCTYPE svg PUBLIC "-//W3C//DTD SVG 1.1//EN"
 "http://www.w3.org/Graphics/SVG/1.1/DTD/svg11.dtd">
<!-- Generated by graphviz version 13.1.0 (20250701.0955)
 -->
<!-- Title: Alarm::_getPriorityString Pages: 1 -->
<svg width="464pt" height="147pt"
 viewBox="0.00 0.00 464.00 147.00" xmlns="http://www.w3.org/2000/svg" xmlns:xlink="http://www.w3.org/1999/xlink">
<g id="graph0" class="graph" transform="scale(1 1) rotate(0) translate(4 143.12)">
<title>Alarm::_getPriorityString</title>
<!-- Node1 -->
<g id="Node000001" class="node">
<title>Node1</title>
<g id="a_Node000001"><a xlink:title="Get priority as string (internal version)">
<polygon fill="#999999" stroke="#666666" points="456,-73.88 333.5,-73.88 333.5,-54.62 456,-54.62 456,-73.88"/>
<text xml:space="preserve" text-anchor="middle" x="394.75" y="-60.38" font-family="Helvetica,sans-Serif" font-size="10.00">Alarm::_getPriorityString</text>
</a>
</g>
</g>
<!-- Node2 -->
<g id="Node000002" class="node">
<title>Node2</title>
<g id="a_Node000002"><a xlink:href="class_alarm.html#aa14f5a764303b269f04573867e2e4fc8" target="_top" xlink:title="Acknowledge the alarm.">
<polygon fill="white" stroke="#666666" points="290.75,-118.88 186.25,-118.88 186.25,-99.62 290.75,-99.62 290.75,-118.88"/>
<text xml:space="preserve" text-anchor="middle" x="238.5" y="-105.38" font-family="Helvetica,sans-Serif" font-size="10.00">Alarm::acknowledge</text>
</a>
</g>
</g>
<!-- Node1&#45;&gt;Node2 -->
<g id="edge1_Node000001_Node000002" class="edge">
<title>Node1&#45;&gt;Node2</title>
<g id="a_edge1_Node000001_Node000002"><a xlink:title=" ">
<path fill="none" stroke="#63b8ff" d="M348.26,-77.52C324.5,-84.45 295.91,-92.79 274,-99.18"/>
<polygon fill="#63b8ff" stroke="#63b8ff" points="349.06,-80.93 357.68,-74.77 347.1,-74.21 349.06,-80.93"/>
</a>
</g>
</g>
<!-- Node4 -->
<g id="Node000004" class="node">
<title>Node4</title>
<g id="a_Node000004"><a xlink:href="class_alarm.html#a5095c54c304a52ebbaca5a2ea74059cd" target="_top" xlink:title="Set the alarm priority.">
<polygon fill="white" stroke="#666666" points="284.38,-73.88 192.62,-73.88 192.62,-54.62 284.38,-54.62 284.38,-73.88"/>
<text xml:space="preserve" text-anchor="middle" x="238.5" y="-60.38" font-family="Helvetica,sans-Serif" font-size="10.00">Alarm::setPriority</text>
</a>
</g>
</g>
<!-- Node1&#45;&gt;Node4 -->
<g id="edge3_Node000001_Node000004" class="edge">
<title>Node1&#45;&gt;Node4</title>
<g id="a_edge3_Node000001_Node000004"><a xlink:title=" ">
<path fill="none" stroke="#63b8ff" d="M322.09,-64.25C309.32,-64.25 296.35,-64.25 284.58,-64.25"/>
<polygon fill="#63b8ff" stroke="#63b8ff" points="321.72,-67.75 331.72,-64.25 321.72,-60.75 321.72,-67.75"/>
</a>
</g>
</g>
<!-- Node7 -->
<g id="Node000007" class="node">
<title>Node7</title>
<g id="a_Node000007"><a xlink:href="class_alarm.html#abc87fe39e6a9b5beb9f09df780f67621" target="_top" xlink:title="Update alarm condition based on current measurement.">
<polygon fill="white" stroke="#666666" points="297.5,-36.88 179.5,-36.88 179.5,-17.62 297.5,-17.62 297.5,-36.88"/>
<text xml:space="preserve" text-anchor="middle" x="238.5" y="-23.38" font-family="Helvetica,sans-Serif" font-size="10.00">Alarm::updateCondition</text>
</a>
</g>
</g>
<!-- Node1&#45;&gt;Node7 -->
<g id="edge6_Node000001_Node000007" class="edge">
<title>Node1&#45;&gt;Node7</title>
<g id="a_edge6_Node000001_Node000007"><a xlink:title=" ">
<path fill="none" stroke="#63b8ff" d="M340.55,-51.49C321.27,-46.87 299.79,-41.71 281.6,-37.35"/>
<polygon fill="#63b8ff" stroke="#63b8ff" points="339.59,-54.86 350.13,-53.79 341.22,-48.05 339.59,-54.86"/>
</a>
</g>
</g>
<!-- Node3 -->
<g id="Node000003" class="node">
<title>Node3</title>
<g id="a_Node000003"><a xlink:href="class_temperature_controller.html#a5f1c8fce1e5efb637bfe86bdb609a3b7" target="_top" xlink:title="Acknowledge highest priority alarm.">
<polygon fill="white" stroke="#666666" points="143.5,-139.12 0,-139.12 0,-97.38 143.5,-97.38 143.5,-139.12"/>
<text xml:space="preserve" text-anchor="start" x="8" y="-125.62" font-family="Helvetica,sans-Serif" font-size="10.00">TemperatureController</text>
<text xml:space="preserve" text-anchor="start" x="8" y="-114.38" font-family="Helvetica,sans-Serif" font-size="10.00">::acknowledgeHighestPriority</text>
<text xml:space="preserve" text-anchor="middle" x="71.75" y="-103.12" font-family="Helvetica,sans-Serif" font-size="10.00">Alarm</text>
</a>
</g>
</g>
<!-- Node2&#45;&gt;Node3 -->
<g id="edge2_Node000002_Node000003" class="edge">
<title>Node2&#45;&gt;Node3</title>
<g id="a_edge2_Node000002_Node000003"><a xlink:title=" ">
<path fill="none" stroke="#63b8ff" d="M174.34,-112.7C164.37,-113.25 154,-113.81 143.86,-114.37"/>
<polygon fill="#63b8ff" stroke="#63b8ff" points="174.52,-116.2 184.31,-112.16 174.14,-109.21 174.52,-116.2"/>
</a>
</g>
</g>
<!-- Node5 -->
<g id="Node000005" class="node">
<title>Node5</title>
<g id="a_Node000005"><a xlink:href="class_temperature_controller.html#ad174e0411bd48422d8e3812fd28a7a0b" target="_top" xlink:title="Ensure all 3 alarm types exist for a measurement point.">
<polygon fill="white" stroke="#666666" points="131.12,-79.5 12.38,-79.5 12.38,-49 131.12,-49 131.12,-79.5"/>
<text xml:space="preserve" text-anchor="start" x="20.38" y="-66" font-family="Helvetica,sans-Serif" font-size="10.00">TemperatureController</text>
<text xml:space="preserve" text-anchor="middle" x="71.75" y="-54.75" font-family="Helvetica,sans-Serif" font-size="10.00">::ensureAlarmsForPoint</text>
</a>
</g>
</g>
<!-- Node4&#45;&gt;Node5 -->
<g id="edge4_Node000004_Node000005" class="edge">
<title>Node4&#45;&gt;Node5</title>
<g id="a_edge4_Node000004_Node000005"><a xlink:title=" ">
<path fill="none" stroke="#63b8ff" d="M181.09,-64.25C165.03,-64.25 147.51,-64.25 131.33,-64.25"/>
<polygon fill="#63b8ff" stroke="#63b8ff" points="180.97,-67.75 190.97,-64.25 180.97,-60.75 180.97,-67.75"/>
</a>
</g>
</g>
<!-- Node6 -->
<g id="Node000006" class="node">
<title>Node6</title>
<g id="a_Node000006"><a xlink:href="class_temperature_controller.html#a93bd31914a054a4e1df9be7e3966b82e" target="_top" xlink:title="Update alarm configuration.">
<polygon fill="white" stroke="#666666" points="127.75,-30.5 15.75,-30.5 15.75,0 127.75,0 127.75,-30.5"/>
<text xml:space="preserve" text-anchor="start" x="23.75" y="-17" font-family="Helvetica,sans-Serif" font-size="10.00">TemperatureController</text>
<text xml:space="preserve" text-anchor="middle" x="71.75" y="-5.75" font-family="Helvetica,sans-Serif" font-size="10.00">::updateAlarm</text>
</a>
</g>
</g>
<!-- Node4&#45;&gt;Node6 -->
<g id="edge5_Node000004_Node000006" class="edge">
<title>Node4&#45;&gt;Node6</title>
<g id="a_edge5_Node000004_Node000006"><a xlink:title=" ">
<path fill="none" stroke="#63b8ff" d="M193,-51.01C172.21,-44.83 147.32,-37.43 125.58,-30.96"/>
<polygon fill="#63b8ff" stroke="#63b8ff" points="191.73,-54.29 202.31,-53.78 193.72,-47.58 191.73,-54.29"/>
</a>
</g>
</g>
</g>
</svg>
