<?xml version="1.0" encoding="UTF-8" standalone="no"?>
<!DOCTYPE svg PUBLIC "-//W3C//DTD SVG 1.1//EN"
 "http://www.w3.org/Graphics/SVG/1.1/DTD/svg11.dtd">
<!-- Generated by graphviz version 13.1.0 (20250701.0955)
 -->
<!-- Title: TemperatureController::getActiveAlarms Pages: 1 -->
<svg width="716pt" height="88pt"
 viewBox="0.00 0.00 716.00 88.00" xmlns="http://www.w3.org/2000/svg" xmlns:xlink="http://www.w3.org/1999/xlink">
<g id="graph0" class="graph" transform="scale(1 1) rotate(0) translate(4 83.5)">
<title>TemperatureController::getActiveAlarms</title>
<!-- Node1 -->
<g id="Node000001" class="node">
<title>Node1</title>
<g id="a_Node000001"><a xlink:title=" ">
<polygon fill="#999999" stroke="#666666" points="707.75,-54.5 595.75,-54.5 595.75,-24 707.75,-24 707.75,-54.5"/>
<text xml:space="preserve" text-anchor="start" x="603.75" y="-41" font-family="Helvetica,sans-Serif" font-size="10.00">TemperatureController</text>
<text xml:space="preserve" text-anchor="middle" x="651.75" y="-29.75" font-family="Helvetica,sans-Serif" font-size="10.00">::getActiveAlarms</text>
</a>
</g>
</g>
<!-- Node2 -->
<g id="Node000002" class="node">
<title>Node2</title>
<g id="a_Node000002"><a xlink:href="class_temperature_controller.html#a477597992aa9362076843f37b648741a" target="_top" xlink:title=" ">
<polygon fill="white" stroke="#666666" points="559.75,-77.5 444,-77.5 444,-47 559.75,-47 559.75,-77.5"/>
<text xml:space="preserve" text-anchor="start" x="452" y="-64" font-family="Helvetica,sans-Serif" font-size="10.00">TemperatureController</text>
<text xml:space="preserve" text-anchor="middle" x="501.88" y="-52.75" font-family="Helvetica,sans-Serif" font-size="10.00">::_updateAlarmQueues</text>
</a>
</g>
</g>
<!-- Node1&#45;&gt;Node2 -->
<g id="edge1_Node000001_Node000002" class="edge">
<title>Node1&#45;&gt;Node2</title>
<g id="a_edge1_Node000001_Node000002"><a xlink:title=" ">
<path fill="none" stroke="#63b8ff" d="M584.09,-49.62C576.1,-50.86 567.99,-52.12 560.15,-53.34"/>
<polygon fill="#63b8ff" stroke="#63b8ff" points="584.43,-53.11 593.77,-48.11 583.35,-46.19 584.43,-53.11"/>
</a>
</g>
</g>
<!-- Node6 -->
<g id="Node000006" class="node">
<title>Node6</title>
<g id="a_Node000006"><a xlink:href="class_temperature_controller.html#a5ac8af90de5dfd79a9a2e4c7270a98a3" target="_top" xlink:title=" ">
<polygon fill="white" stroke="#666666" points="408,-30.5 296,-30.5 296,0 408,0 408,-30.5"/>
<text xml:space="preserve" text-anchor="start" x="304" y="-17" font-family="Helvetica,sans-Serif" font-size="10.00">TemperatureController</text>
<text xml:space="preserve" text-anchor="middle" x="352" y="-5.75" font-family="Helvetica,sans-Serif" font-size="10.00">::updateAlarms</text>
</a>
</g>
</g>
<!-- Node1&#45;&gt;Node6 -->
<g id="edge6_Node000001_Node000006" class="edge">
<title>Node1&#45;&gt;Node6</title>
<g id="a_edge6_Node000001_Node000006"><a xlink:title=" ">
<path fill="none" stroke="#63b8ff" d="M584.13,-33.88C531.18,-29.61 457.99,-23.71 408.26,-19.7"/>
<polygon fill="#63b8ff" stroke="#63b8ff" points="583.69,-37.36 593.93,-34.67 584.25,-30.38 583.69,-37.36"/>
</a>
</g>
</g>
<!-- Node3 -->
<g id="Node000003" class="node">
<title>Node3</title>
<g id="a_Node000003"><a xlink:href="class_temperature_controller.html#a5637103784725fb1a73f6463d7cbfde6" target="_top" xlink:title=" ">
<polygon fill="white" stroke="#666666" points="408,-79.5 296,-79.5 296,-49 408,-49 408,-79.5"/>
<text xml:space="preserve" text-anchor="start" x="304" y="-66" font-family="Helvetica,sans-Serif" font-size="10.00">TemperatureController</text>
<text xml:space="preserve" text-anchor="middle" x="352" y="-54.75" font-family="Helvetica,sans-Serif" font-size="10.00">::handleAlarmDisplay</text>
</a>
</g>
</g>
<!-- Node2&#45;&gt;Node3 -->
<g id="edge2_Node000002_Node000003" class="edge">
<title>Node2&#45;&gt;Node3</title>
<g id="a_edge2_Node000002_Node000003"><a xlink:title=" ">
<path fill="none" stroke="#63b8ff" d="M432.32,-63.18C424.19,-63.29 415.98,-63.4 408.08,-63.51"/>
<polygon fill="#63b8ff" stroke="#63b8ff" points="432.24,-66.68 442.19,-63.04 432.14,-59.68 432.24,-66.68"/>
</a>
</g>
</g>
<!-- Node4 -->
<g id="Node000004" class="node">
<title>Node4</title>
<g id="a_Node000004"><a xlink:href="class_temperature_controller.html#aca5deddbf703001373424d876f87b5f2" target="_top" xlink:title=" ">
<polygon fill="white" stroke="#666666" points="260,-54.5 148,-54.5 148,-24 260,-24 260,-54.5"/>
<text xml:space="preserve" text-anchor="start" x="156" y="-41" font-family="Helvetica,sans-Serif" font-size="10.00">TemperatureController</text>
<text xml:space="preserve" text-anchor="middle" x="204" y="-29.75" font-family="Helvetica,sans-Serif" font-size="10.00">::update</text>
</a>
</g>
</g>
<!-- Node3&#45;&gt;Node4 -->
<g id="edge3_Node000003_Node000004" class="edge">
<title>Node3&#45;&gt;Node4</title>
<g id="a_edge3_Node000003_Node000004"><a xlink:title=" ">
<path fill="none" stroke="#63b8ff" d="M284.47,-52.86C276.38,-51.47 268.18,-50.07 260.27,-48.71"/>
<polygon fill="#63b8ff" stroke="#63b8ff" points="283.86,-56.31 294.31,-54.54 285.05,-49.41 283.86,-56.31"/>
</a>
</g>
</g>
<!-- Node5 -->
<g id="Node000005" class="node">
<title>Node5</title>
<g id="a_Node000005"><a xlink:href="class_temperature_controller.html#a11948a87fe7df37543b86ecdd488b341" target="_top" xlink:title=" ">
<polygon fill="white" stroke="#666666" points="112,-54.5 0,-54.5 0,-24 112,-24 112,-54.5"/>
<text xml:space="preserve" text-anchor="start" x="8" y="-41" font-family="Helvetica,sans-Serif" font-size="10.00">TemperatureController</text>
<text xml:space="preserve" text-anchor="middle" x="56" y="-29.75" font-family="Helvetica,sans-Serif" font-size="10.00">::readAllPoints</text>
</a>
</g>
</g>
<!-- Node4&#45;&gt;Node5 -->
<g id="edge4_Node000004_Node000005" class="edge">
<title>Node4&#45;&gt;Node5</title>
<g id="a_edge4_Node000004_Node000005"><a xlink:title=" ">
<path fill="none" stroke="#63b8ff" d="M136.47,-32.52C128.38,-32.46 120.18,-32.52 112.27,-32.68"/>
<polygon fill="#63b8ff" stroke="#63b8ff" points="136.24,-36.02 146.29,-32.66 136.34,-29.02 136.24,-36.02"/>
</a>
</g>
</g>
<!-- Node5&#45;&gt;Node4 -->
<g id="edge5_Node000005_Node000004" class="edge">
<title>Node5&#45;&gt;Node4</title>
<g id="a_edge5_Node000005_Node000004"><a xlink:title=" ">
<path fill="none" stroke="#63b8ff" d="M123.61,-45.98C131.7,-46.04 139.9,-45.98 147.8,-45.82"/>
<polygon fill="#63b8ff" stroke="#63b8ff" points="123.84,-42.48 113.79,-45.84 123.74,-49.48 123.84,-42.48"/>
</a>
</g>
</g>
<!-- Node6&#45;&gt;Node4 -->
<g id="edge7_Node000006_Node000004" class="edge">
<title>Node6&#45;&gt;Node4</title>
<g id="a_edge7_Node000006_Node000004"><a xlink:title=" ">
<path fill="none" stroke="#63b8ff" d="M284.47,-26.19C276.38,-27.52 268.18,-28.86 260.27,-30.16"/>
<polygon fill="#63b8ff" stroke="#63b8ff" points="285.01,-29.64 294.31,-24.57 283.87,-22.74 285.01,-29.64"/>
</a>
</g>
</g>
</g>
</svg>
