<?xml version="1.0" encoding="UTF-8" standalone="no"?>
<!DOCTYPE svg PUBLIC "-//W3C//DTD SVG 1.1//EN"
 "http://www.w3.org/Graphics/SVG/1.1/DTD/svg11.dtd">
<!-- Generated by graphviz version 13.1.0 (20250701.0955)
 -->
<!-- Title: IndicatorInterface::startBlinking Pages: 1 -->
<svg width="240pt" height="94pt"
 viewBox="0.00 0.00 240.00 94.00" xmlns="http://www.w3.org/2000/svg" xmlns:xlink="http://www.w3.org/1999/xlink">
<g id="graph0" class="graph" transform="scale(1 1) rotate(0) translate(4 89.88)">
<title>IndicatorInterface::startBlinking</title>
<!-- Node1 -->
<g id="Node000001" class="node">
<title>Node1</title>
<g id="a_Node000001"><a xlink:title="Start blinking a named port.">
<polygon fill="#999999" stroke="#666666" points="91.75,-60.5 0,-60.5 0,-30 91.75,-30 91.75,-60.5"/>
<text xml:space="preserve" text-anchor="start" x="8" y="-47" font-family="Helvetica,sans-Serif" font-size="10.00">IndicatorInterface</text>
<text xml:space="preserve" text-anchor="middle" x="45.88" y="-35.75" font-family="Helvetica,sans-Serif" font-size="10.00">::startBlinking</text>
</a>
</g>
</g>
<!-- Node2 -->
<g id="Node000002" class="node">
<title>Node2</title>
<g id="a_Node000002"><a xlink:href="class_logger_manager.html#a5c1373ccc47f4112b596fe6f84fbbc21" target="_top" xlink:title="Log informational message (static convenience method)">
<polygon fill="white" stroke="#666666" points="232.25,-85.88 127.75,-85.88 127.75,-66.62 232.25,-66.62 232.25,-85.88"/>
<text xml:space="preserve" text-anchor="middle" x="180" y="-72.38" font-family="Helvetica,sans-Serif" font-size="10.00">LoggerManager::info</text>
</a>
</g>
</g>
<!-- Node1&#45;&gt;Node2 -->
<g id="edge1_Node000001_Node000002" class="edge">
<title>Node1&#45;&gt;Node2</title>
<g id="a_edge1_Node000001_Node000002"><a xlink:title=" ">
<path fill="none" stroke="#63b8ff" d="M91.98,-55.83C102.52,-58.31 113.85,-60.96 124.75,-63.52"/>
<polygon fill="#63b8ff" stroke="#63b8ff" points="123.88,-66.91 134.41,-65.79 125.48,-60.1 123.88,-66.91"/>
</a>
</g>
</g>
<!-- Node3 -->
<g id="Node000003" class="node">
<title>Node3</title>
<g id="a_Node000003"><a xlink:href="class_indicator_interface.html#a89a41cb1580141ed65c07ced6692322e" target="_top" xlink:title="Write state to a named port.">
<polygon fill="white" stroke="#666666" points="225.88,-30.5 134.12,-30.5 134.12,0 225.88,0 225.88,-30.5"/>
<text xml:space="preserve" text-anchor="start" x="142.12" y="-17" font-family="Helvetica,sans-Serif" font-size="10.00">IndicatorInterface</text>
<text xml:space="preserve" text-anchor="middle" x="180" y="-5.75" font-family="Helvetica,sans-Serif" font-size="10.00">::writePort</text>
</a>
</g>
</g>
<!-- Node1&#45;&gt;Node3 -->
<g id="edge2_Node000001_Node000003" class="edge">
<title>Node1&#45;&gt;Node3</title>
<g id="a_edge2_Node000001_Node000003"><a xlink:title=" ">
<path fill="none" stroke="#63b8ff" d="M91.98,-35.01C101.86,-32.77 112.44,-30.36 122.7,-28.03"/>
<polygon fill="#63b8ff" stroke="#63b8ff" points="123.2,-31.51 132.18,-25.88 121.65,-24.68 123.2,-31.51"/>
</a>
</g>
</g>
<!-- Node3&#45;&gt;Node3 -->
<g id="edge3_Node000003_Node000003" class="edge">
<title>Node3&#45;&gt;Node3</title>
<g id="a_edge3_Node000003_Node000003"><a xlink:title=" ">
<path fill="none" stroke="#63b8ff" d="M156.23,-30.99C151.38,-40.06 159.3,-48.5 180,-48.5 191.32,-48.5 198.82,-45.97 202.49,-42.2"/>
<polygon fill="#63b8ff" stroke="#63b8ff" points="205.95,-42.82 203.6,-32.49 198.99,-42.03 205.95,-42.82"/>
</a>
</g>
</g>
</g>
</svg>
