<?xml version="1.0" encoding="UTF-8" standalone="no"?>
<!DOCTYPE svg PUBLIC "-//W3C//DTD SVG 1.1//EN"
 "http://www.w3.org/Graphics/SVG/1.1/DTD/svg11.dtd">
<!-- Generated by graphviz version 13.1.0 (20250701.0955)
 -->
<!-- Title: MeasurementPoint::updateAlarmStatus Pages: 1 -->
<svg width="665pt" height="260pt"
 viewBox="0.00 0.00 665.00 260.00" xmlns="http://www.w3.org/2000/svg" xmlns:xlink="http://www.w3.org/1999/xlink">
<g id="graph0" class="graph" transform="scale(1 1) rotate(0) translate(4 255.5)">
<title>MeasurementPoint::updateAlarmStatus</title>
<!-- Node1 -->
<g id="Node000001" class="node">
<title>Node1</title>
<g id="a_Node000001"><a xlink:title=" ">
<polygon fill="#999999" stroke="#666666" points="656.5,-125.5 523.5,-125.5 523.5,-95 656.5,-95 656.5,-125.5"/>
<text xml:space="preserve" text-anchor="start" x="531.5" y="-112" font-family="Helvetica,sans-Serif" font-size="10.00">MeasurementPoint::update</text>
<text xml:space="preserve" text-anchor="middle" x="590" y="-100.75" font-family="Helvetica,sans-Serif" font-size="10.00">AlarmStatus</text>
</a>
</g>
</g>
<!-- Node2 -->
<g id="Node000002" class="node">
<title>Node2</title>
<g id="a_Node000002"><a xlink:href="class_measurement_point.html#aefb47fef40f33161be5c6fddf0cf6329" target="_top" xlink:title=" ">
<polygon fill="white" stroke="#666666" points="487.5,-125.5 350,-125.5 350,-95 487.5,-95 487.5,-125.5"/>
<text xml:space="preserve" text-anchor="start" x="358" y="-112" font-family="Helvetica,sans-Serif" font-size="10.00">MeasurementPoint::setHigh</text>
<text xml:space="preserve" text-anchor="middle" x="418.75" y="-100.75" font-family="Helvetica,sans-Serif" font-size="10.00">AlarmThreshold</text>
</a>
</g>
</g>
<!-- Node1&#45;&gt;Node2 -->
<g id="edge1_Node000001_Node000002" class="edge">
<title>Node1&#45;&gt;Node2</title>
<g id="a_edge1_Node000001_Node000002"><a xlink:title=" ">
<path fill="none" stroke="#63b8ff" d="M511.81,-110.25C503.77,-110.25 495.65,-110.25 487.72,-110.25"/>
<polygon fill="#63b8ff" stroke="#63b8ff" points="511.57,-113.75 521.57,-110.25 511.57,-106.75 511.57,-113.75"/>
</a>
</g>
</g>
<!-- Node11 -->
<g id="Node000011" class="node">
<title>Node11</title>
<g id="a_Node000011"><a xlink:href="class_measurement_point.html#ac780917beebc11d705824cab8f43b94d" target="_top" xlink:title=" ">
<polygon fill="white" stroke="#666666" points="486.38,-174.5 351.12,-174.5 351.12,-144 486.38,-144 486.38,-174.5"/>
<text xml:space="preserve" text-anchor="start" x="359.12" y="-161" font-family="Helvetica,sans-Serif" font-size="10.00">MeasurementPoint::setLow</text>
<text xml:space="preserve" text-anchor="middle" x="418.75" y="-149.75" font-family="Helvetica,sans-Serif" font-size="10.00">AlarmThreshold</text>
</a>
</g>
</g>
<!-- Node1&#45;&gt;Node11 -->
<g id="edge12_Node000001_Node000011" class="edge">
<title>Node1&#45;&gt;Node11</title>
<g id="a_edge12_Node000001_Node000011"><a xlink:title=" ">
<path fill="none" stroke="#63b8ff" d="M524.29,-128.98C507.73,-133.78 490.1,-138.88 474.12,-143.51"/>
<polygon fill="#63b8ff" stroke="#63b8ff" points="524.9,-132.45 533.53,-126.31 522.95,-125.73 524.9,-132.45"/>
</a>
</g>
</g>
<!-- Node12 -->
<g id="Node000012" class="node">
<title>Node12</title>
<g id="a_Node000012"><a xlink:href="class_measurement_point.html#a3c6d3325a506e8797bc759f15b70391f" target="_top" xlink:title=" ">
<polygon fill="white" stroke="#666666" points="485.25,-76.88 352.25,-76.88 352.25,-57.62 485.25,-57.62 485.25,-76.88"/>
<text xml:space="preserve" text-anchor="middle" x="418.75" y="-63.38" font-family="Helvetica,sans-Serif" font-size="10.00">MeasurementPoint::update</text>
</a>
</g>
</g>
<!-- Node1&#45;&gt;Node12 -->
<g id="edge19_Node000001_Node000012" class="edge">
<title>Node1&#45;&gt;Node12</title>
<g id="a_edge19_Node000001_Node000012"><a xlink:title=" ">
<path fill="none" stroke="#63b8ff" d="M516.36,-91.8C496.83,-86.83 476.42,-81.65 459.42,-77.33"/>
<polygon fill="#63b8ff" stroke="#63b8ff" points="515.4,-95.16 525.95,-94.23 517.12,-88.38 515.4,-95.16"/>
</a>
</g>
</g>
<!-- Node3 -->
<g id="Node000003" class="node">
<title>Node3</title>
<g id="a_Node000003"><a xlink:href="class_c_s_v_config_manager.html#ac91e29ab2468661df752e4e4b2f7186c" target="_top" xlink:title=" ">
<polygon fill="white" stroke="#666666" points="298.62,-251.5 189.62,-251.5 189.62,-221 298.62,-221 298.62,-251.5"/>
<text xml:space="preserve" text-anchor="start" x="197.62" y="-238" font-family="Helvetica,sans-Serif" font-size="10.00">CSVConfigManager::</text>
<text xml:space="preserve" text-anchor="middle" x="244.12" y="-226.75" font-family="Helvetica,sans-Serif" font-size="10.00">_parseCSVLine</text>
</a>
</g>
</g>
<!-- Node2&#45;&gt;Node3 -->
<g id="edge2_Node000002_Node000003" class="edge">
<title>Node2&#45;&gt;Node3</title>
<g id="a_edge2_Node000002_Node000003"><a xlink:title=" ">
<path fill="none" stroke="#63b8ff" d="M353.79,-132.05C352.48,-133.07 351.21,-134.14 350,-135.25 322.19,-160.82 342.04,-186.93 314,-212.25 309.58,-216.24 304.47,-219.57 299.05,-222.35"/>
<polygon fill="#63b8ff" stroke="#63b8ff" points="355.31,-135.24 361.73,-126.81 351.46,-129.39 355.31,-135.24"/>
</a>
</g>
</g>
<!-- Node5 -->
<g id="Node000005" class="node">
<title>Node5</title>
<g id="a_Node000005"><a xlink:href="class_config_manager.html#ae605c999fabc6344511f455618655326" target="_top" xlink:title=" ">
<polygon fill="white" stroke="#666666" points="311,-165.88 177.25,-165.88 177.25,-146.62 311,-146.62 311,-165.88"/>
<text xml:space="preserve" text-anchor="middle" x="244.12" y="-152.38" font-family="Helvetica,sans-Serif" font-size="10.00">ConfigManager::alarmsAPI</text>
</a>
</g>
</g>
<!-- Node2&#45;&gt;Node5 -->
<g id="edge4_Node000002_Node000005" class="edge">
<title>Node2&#45;&gt;Node5</title>
<g id="a_edge4_Node000002_Node000005"><a xlink:title=" ">
<path fill="none" stroke="#63b8ff" d="M347.75,-128.9C325.6,-134.8 301.96,-141.1 282.96,-146.17"/>
<polygon fill="#63b8ff" stroke="#63b8ff" points="348.6,-132.3 357.36,-126.34 346.8,-125.53 348.6,-132.3"/>
</a>
</g>
</g>
<!-- Node7 -->
<g id="Node000007" class="node">
<title>Node7</title>
<g id="a_Node000007"><a xlink:href="class_register_map.html#aa2f819b22096b8c14c421b415f7e83b7" target="_top" xlink:title=" ">
<polygon fill="white" stroke="#666666" points="308.75,-79.5 179.5,-79.5 179.5,-49 308.75,-49 308.75,-79.5"/>
<text xml:space="preserve" text-anchor="start" x="187.5" y="-66" font-family="Helvetica,sans-Serif" font-size="10.00">RegisterMap::applyConfig</text>
<text xml:space="preserve" text-anchor="middle" x="244.12" y="-54.75" font-family="Helvetica,sans-Serif" font-size="10.00">ToMeasurementPoint</text>
</a>
</g>
</g>
<!-- Node2&#45;&gt;Node7 -->
<g id="edge6_Node000002_Node000007" class="edge">
<title>Node2&#45;&gt;Node7</title>
<g id="a_edge6_Node000002_Node000007"><a xlink:title=" ">
<path fill="none" stroke="#63b8ff" d="M347.87,-91.63C333.34,-87.76 318.17,-83.71 304.08,-79.96"/>
<polygon fill="#63b8ff" stroke="#63b8ff" points="346.8,-94.97 357.36,-94.16 348.6,-88.2 346.8,-94.97"/>
</a>
</g>
</g>
<!-- Node8 -->
<g id="Node000008" class="node">
<title>Node8</title>
<g id="a_Node000008"><a xlink:href="class_config_manager.html#a04edc14e642ecadb9ccb87be05d1d878" target="_top" xlink:title=" ">
<polygon fill="white" stroke="#666666" points="311,-128.5 177.25,-128.5 177.25,-98 311,-98 311,-128.5"/>
<text xml:space="preserve" text-anchor="start" x="185.25" y="-115" font-family="Helvetica,sans-Serif" font-size="10.00">ConfigManager::loadPoints</text>
<text xml:space="preserve" text-anchor="middle" x="244.12" y="-103.75" font-family="Helvetica,sans-Serif" font-size="10.00">Config</text>
</a>
</g>
</g>
<!-- Node2&#45;&gt;Node8 -->
<g id="edge7_Node000002_Node000008" class="edge">
<title>Node2&#45;&gt;Node8</title>
<g id="a_edge7_Node000002_Node000008"><a xlink:title=" ">
<path fill="none" stroke="#63b8ff" d="M338.25,-111.63C329.28,-111.79 320.22,-111.94 311.45,-112.1"/>
<polygon fill="#63b8ff" stroke="#63b8ff" points="338.07,-115.14 348.01,-111.46 337.95,-108.14 338.07,-115.14"/>
</a>
</g>
</g>
<!-- Node9 -->
<g id="Node000009" class="node">
<title>Node9</title>
<g id="a_Node000009"><a xlink:href="class_config_manager.html#a471a844085c27f3a8a8f9394d9c14677" target="_top" xlink:title=" ">
<polygon fill="white" stroke="#666666" points="309.5,-202.88 178.75,-202.88 178.75,-183.62 309.5,-183.62 309.5,-202.88"/>
<text xml:space="preserve" text-anchor="middle" x="244.12" y="-189.38" font-family="Helvetica,sans-Serif" font-size="10.00">ConfigManager::pointsAPI</text>
</a>
</g>
</g>
<!-- Node2&#45;&gt;Node9 -->
<g id="edge9_Node000002_Node000009" class="edge">
<title>Node2&#45;&gt;Node9</title>
<g id="a_edge9_Node000002_Node000009"><a xlink:title=" ">
<path fill="none" stroke="#63b8ff" d="M356.57,-131.17C354.31,-132.46 352.11,-133.82 350,-135.25 330.2,-148.67 334.43,-162.81 314,-175.25 308.83,-178.4 303.11,-181 297.25,-183.15"/>
<polygon fill="#63b8ff" stroke="#63b8ff" points="358.16,-134.29 365.48,-126.62 354.98,-128.05 358.16,-134.29"/>
</a>
</g>
</g>
<!-- Node10 -->
<g id="Node000010" class="node">
<title>Node10</title>
<g id="a_Node000010"><a xlink:href="class_config_manager.html#a0daf50bbd376beb24a5400a86e893338" target="_top" xlink:title=" ">
<polygon fill="white" stroke="#666666" points="314,-30.5 174.25,-30.5 174.25,0 314,0 314,-30.5"/>
<text xml:space="preserve" text-anchor="start" x="182.25" y="-17" font-family="Helvetica,sans-Serif" font-size="10.00">ConfigManager::updatePoint</text>
<text xml:space="preserve" text-anchor="middle" x="244.12" y="-5.75" font-family="Helvetica,sans-Serif" font-size="10.00">InConfig</text>
</a>
</g>
</g>
<!-- Node2&#45;&gt;Node10 -->
<g id="edge11_Node000002_Node000010" class="edge">
<title>Node2&#45;&gt;Node10</title>
<g id="a_edge11_Node000002_Node000010"><a xlink:title=" ">
<path fill="none" stroke="#63b8ff" d="M354.21,-89.08C352.77,-88.17 351.36,-87.23 350,-86.25 328.93,-71.09 335.02,-55.49 314,-40.25 309.06,-36.67 303.55,-33.55 297.85,-30.84"/>
<polygon fill="#63b8ff" stroke="#63b8ff" points="352.37,-92.06 362.81,-93.83 355.75,-85.93 352.37,-92.06"/>
</a>
</g>
</g>
<!-- Node4 -->
<g id="Node000004" class="node">
<title>Node4</title>
<g id="a_Node000004"><a xlink:href="class_c_s_v_config_manager.html#aef1d9d5b47814730cb9f80554b6fd623" target="_top" xlink:title=" ">
<polygon fill="white" stroke="#666666" points="138.25,-251.5 0,-251.5 0,-221 138.25,-221 138.25,-251.5"/>
<text xml:space="preserve" text-anchor="start" x="8" y="-238" font-family="Helvetica,sans-Serif" font-size="10.00">CSVConfigManager::import</text>
<text xml:space="preserve" text-anchor="middle" x="69.12" y="-226.75" font-family="Helvetica,sans-Serif" font-size="10.00">PointsWithAlarmsFromCSV</text>
</a>
</g>
</g>
<!-- Node3&#45;&gt;Node4 -->
<g id="edge3_Node000003_Node000004" class="edge">
<title>Node3&#45;&gt;Node4</title>
<g id="a_edge3_Node000003_Node000004"><a xlink:title=" ">
<path fill="none" stroke="#63b8ff" d="M178.17,-236.25C165.23,-236.25 151.61,-236.25 138.56,-236.25"/>
<polygon fill="#63b8ff" stroke="#63b8ff" points="177.82,-239.75 187.82,-236.25 177.82,-232.75 177.82,-239.75"/>
</a>
</g>
</g>
<!-- Node6 -->
<g id="Node000006" class="node">
<title>Node6</title>
<g id="a_Node000006"><a xlink:href="class_config_manager.html#a0497343220fc493f5cf9574922508908" target="_top" xlink:title=" ">
<polygon fill="white" stroke="#666666" points="124.75,-165.88 13.5,-165.88 13.5,-146.62 124.75,-146.62 124.75,-165.88"/>
<text xml:space="preserve" text-anchor="middle" x="69.12" y="-152.38" font-family="Helvetica,sans-Serif" font-size="10.00">ConfigManager::begin</text>
</a>
</g>
</g>
<!-- Node5&#45;&gt;Node6 -->
<g id="edge5_Node000005_Node000006" class="edge">
<title>Node5&#45;&gt;Node6</title>
<g id="a_edge5_Node000005_Node000006"><a xlink:title=" ">
<path fill="none" stroke="#63b8ff" d="M165.81,-156.25C152.1,-156.25 138.08,-156.25 125.14,-156.25"/>
<polygon fill="#63b8ff" stroke="#63b8ff" points="165.71,-159.75 175.71,-156.25 165.71,-152.75 165.71,-159.75"/>
</a>
</g>
</g>
<!-- Node8&#45;&gt;Node6 -->
<g id="edge8_Node000008_Node000006" class="edge">
<title>Node8&#45;&gt;Node6</title>
<g id="a_edge8_Node000008_Node000006"><a xlink:title=" ">
<path fill="none" stroke="#63b8ff" d="M169.16,-131.63C149.1,-136.62 128.13,-141.83 110.67,-146.17"/>
<polygon fill="#63b8ff" stroke="#63b8ff" points="169.85,-135.07 178.71,-129.26 168.16,-128.28 169.85,-135.07"/>
</a>
</g>
</g>
<!-- Node9&#45;&gt;Node6 -->
<g id="edge10_Node000009_Node000006" class="edge">
<title>Node9&#45;&gt;Node6</title>
<g id="a_edge10_Node000009_Node000006"><a xlink:title=" ">
<path fill="none" stroke="#63b8ff" d="M184.67,-180.75C162.74,-176.06 138.12,-170.79 117.34,-166.35"/>
<polygon fill="#63b8ff" stroke="#63b8ff" points="183.86,-184.15 194.37,-182.82 185.33,-177.31 183.86,-184.15"/>
</a>
</g>
</g>
<!-- Node11&#45;&gt;Node3 -->
<g id="edge13_Node000011_Node000003" class="edge">
<title>Node11&#45;&gt;Node3</title>
<g id="a_edge13_Node000011_Node000003"><a xlink:title=" ">
<path fill="none" stroke="#63b8ff" d="M379.68,-180.28C360.32,-190.57 336.23,-202.75 314,-212.25 307.25,-215.14 300.02,-217.95 292.88,-220.57"/>
<polygon fill="#63b8ff" stroke="#63b8ff" points="381.14,-183.47 388.29,-175.66 377.83,-177.3 381.14,-183.47"/>
</a>
</g>
</g>
<!-- Node11&#45;&gt;Node5 -->
<g id="edge14_Node000011_Node000005" class="edge">
<title>Node11&#45;&gt;Node5</title>
<g id="a_edge14_Node000011_Node000005"><a xlink:title=" ">
<path fill="none" stroke="#63b8ff" d="M339.61,-157.89C330.19,-157.73 320.63,-157.56 311.4,-157.4"/>
<polygon fill="#63b8ff" stroke="#63b8ff" points="339.44,-161.39 349.5,-158.06 339.56,-154.39 339.44,-161.39"/>
</a>
</g>
</g>
<!-- Node11&#45;&gt;Node7 -->
<g id="edge15_Node000011_Node000007" class="edge">
<title>Node11&#45;&gt;Node7</title>
<g id="a_edge15_Node000011_Node000007"><a xlink:title=" ">
<path fill="none" stroke="#63b8ff" d="M356.2,-138.32C354.06,-137.04 351.98,-135.68 350,-134.25 329.23,-119.27 334.81,-104.18 314,-89.25 309.04,-85.69 303.52,-82.59 297.82,-79.9"/>
<polygon fill="#63b8ff" stroke="#63b8ff" points="354.12,-141.18 364.58,-142.81 357.42,-135.01 354.12,-141.18"/>
</a>
</g>
</g>
<!-- Node11&#45;&gt;Node8 -->
<g id="edge16_Node000011_Node000008" class="edge">
<title>Node11&#45;&gt;Node8</title>
<g id="a_edge16_Node000011_Node000008"><a xlink:title=" ">
<path fill="none" stroke="#63b8ff" d="M347.87,-140.63C333.34,-136.76 318.17,-132.71 304.08,-128.96"/>
<polygon fill="#63b8ff" stroke="#63b8ff" points="346.8,-143.97 357.36,-143.16 348.6,-137.2 346.8,-143.97"/>
</a>
</g>
</g>
<!-- Node11&#45;&gt;Node9 -->
<g id="edge17_Node000011_Node000009" class="edge">
<title>Node11&#45;&gt;Node9</title>
<g id="a_edge17_Node000011_Node000009"><a xlink:title=" ">
<path fill="none" stroke="#63b8ff" d="M339.84,-174.59C325.12,-177.49 310.07,-180.46 296.43,-183.15"/>
<polygon fill="#63b8ff" stroke="#63b8ff" points="340.39,-178.05 349.52,-172.69 339.04,-171.19 340.39,-178.05"/>
</a>
</g>
</g>
<!-- Node11&#45;&gt;Node10 -->
<g id="edge18_Node000011_Node000010" class="edge">
<title>Node11&#45;&gt;Node10</title>
<g id="a_edge18_Node000011_Node000010"><a xlink:title=" ">
<path fill="none" stroke="#63b8ff" d="M353.21,-137.18C352.1,-136.24 351.03,-135.27 350,-134.25 318.17,-102.81 345.91,-71.6 314,-40.25 310.37,-36.68 306.19,-33.62 301.73,-30.99"/>
<polygon fill="#63b8ff" stroke="#63b8ff" points="350.96,-139.87 361.16,-142.74 354.98,-134.14 350.96,-139.87"/>
</a>
</g>
</g>
</g>
</svg>
