<?xml version="1.0" encoding="UTF-8" standalone="no"?>
<!DOCTYPE svg PUBLIC "-//W3C//DTD SVG 1.1//EN"
 "http://www.w3.org/Graphics/SVG/1.1/DTD/svg11.dtd">
<!-- Generated by graphviz version 13.1.0 (20250701.0955)
 -->
<!-- Title: Sensor::getOneWirePin Pages: 1 -->
<svg width="774pt" height="284pt"
 viewBox="0.00 0.00 774.00 284.00" xmlns="http://www.w3.org/2000/svg" xmlns:xlink="http://www.w3.org/1999/xlink">
<g id="graph0" class="graph" transform="scale(1 1) rotate(0) translate(4 279.5)">
<title>Sensor::getOneWirePin</title>
<!-- Node1 -->
<g id="Node000001" class="node">
<title>Node1</title>
<g id="a_Node000001"><a xlink:title="Get OneWire bus pin.">
<polygon fill="#999999" stroke="#666666" points="766.25,-192.88 647.5,-192.88 647.5,-173.62 766.25,-173.62 766.25,-192.88"/>
<text xml:space="preserve" text-anchor="middle" x="706.88" y="-179.38" font-family="Helvetica,sans-Serif" font-size="10.00">Sensor::getOneWirePin</text>
</a>
</g>
</g>
<!-- Node2 -->
<g id="Node000002" class="node">
<title>Node2</title>
<g id="a_Node000002"><a xlink:href="class_temperature_controller.html#a57b74b40c88016965d07248981412f7d" target="_top" xlink:title="Discover DS18B20 sensors on all OneWire buses.">
<polygon fill="white" stroke="#666666" points="448.12,-275.5 311.38,-275.5 311.38,-245 448.12,-245 448.12,-275.5"/>
<text xml:space="preserve" text-anchor="start" x="319.38" y="-262" font-family="Helvetica,sans-Serif" font-size="10.00">TemperatureController</text>
<text xml:space="preserve" text-anchor="middle" x="379.75" y="-250.75" font-family="Helvetica,sans-Serif" font-size="10.00">::discoverDS18B20Sensors</text>
</a>
</g>
</g>
<!-- Node1&#45;&gt;Node2 -->
<g id="edge1_Node000001_Node000002" class="edge">
<title>Node1&#45;&gt;Node2</title>
<g id="a_edge1_Node000001_Node000002"><a xlink:title=" ">
<path fill="none" stroke="#63b8ff" d="M652.24,-195.95C596.08,-209.25 507.79,-230.16 447.24,-244.5"/>
<polygon fill="#63b8ff" stroke="#63b8ff" points="652.97,-199.38 661.9,-193.67 651.36,-192.56 652.97,-199.38"/>
</a>
</g>
</g>
<!-- Node3 -->
<g id="Node000003" class="node">
<title>Node3</title>
<g id="a_Node000003"><a xlink:href="class_temperature_controller.html#a01e04714a1712aa10c34276850971a12" target="_top" xlink:title="Get bus number for a sensor.">
<polygon fill="white" stroke="#666666" points="611.5,-177.5 499.5,-177.5 499.5,-147 611.5,-147 611.5,-177.5"/>
<text xml:space="preserve" text-anchor="start" x="507.5" y="-164" font-family="Helvetica,sans-Serif" font-size="10.00">TemperatureController</text>
<text xml:space="preserve" text-anchor="middle" x="555.5" y="-152.75" font-family="Helvetica,sans-Serif" font-size="10.00">::getSensorBus</text>
</a>
</g>
</g>
<!-- Node1&#45;&gt;Node3 -->
<g id="edge2_Node000001_Node000003" class="edge">
<title>Node1&#45;&gt;Node3</title>
<g id="a_edge2_Node000001_Node000003"><a xlink:title=" ">
<path fill="none" stroke="#63b8ff" d="M636.11,-173.44C627.86,-172.28 619.53,-171.11 611.53,-169.99"/>
<polygon fill="#63b8ff" stroke="#63b8ff" points="635.38,-176.87 645.77,-174.8 636.35,-169.94 635.38,-176.87"/>
</a>
</g>
</g>
<!-- Node3&#45;&gt;Node2 -->
<g id="edge4_Node000003_Node000002" class="edge">
<title>Node3&#45;&gt;Node2</title>
<g id="a_edge4_Node000003_Node000002"><a xlink:title=" ">
<path fill="none" stroke="#63b8ff" d="M530.71,-185.61C513.33,-201.54 488.53,-222.07 463.5,-235.25 456.86,-238.75 449.66,-241.83 442.37,-244.53"/>
<polygon fill="#63b8ff" stroke="#63b8ff" points="533.07,-188.19 537.97,-178.8 528.28,-183.08 533.07,-188.19"/>
</a>
</g>
</g>
<!-- Node4 -->
<g id="Node000004" class="node">
<title>Node4</title>
<g id="a_Node000004"><a xlink:href="class_temperature_controller.html#af4ab2c7b7a3934ab7837603a420b1ae2" target="_top" xlink:title="Bind sensor to measurement point by bus number.">
<polygon fill="white" stroke="#666666" points="463.5,-226.5 296,-226.5 296,-196 463.5,-196 463.5,-226.5"/>
<text xml:space="preserve" text-anchor="start" x="304" y="-213" font-family="Helvetica,sans-Serif" font-size="10.00">TemperatureController</text>
<text xml:space="preserve" text-anchor="middle" x="379.75" y="-201.75" font-family="Helvetica,sans-Serif" font-size="10.00">::bindSensorToPointByBusNumber</text>
</a>
</g>
</g>
<!-- Node3&#45;&gt;Node4 -->
<g id="edge3_Node000003_Node000004" class="edge">
<title>Node3&#45;&gt;Node4</title>
<g id="a_edge3_Node000003_Node000004"><a xlink:title=" ">
<path fill="none" stroke="#63b8ff" d="M488.07,-180.98C471.07,-185.78 452.97,-190.88 436.57,-195.51"/>
<polygon fill="#63b8ff" stroke="#63b8ff" points="488.92,-184.38 497.59,-178.3 487.02,-177.65 488.92,-184.38"/>
</a>
</g>
</g>
<!-- Node5 -->
<g id="Node000005" class="node">
<title>Node5</title>
<g id="a_Node000005"><a xlink:href="class_temperature_controller.html#a79e98c9a1d42de787a66e02b250b7a74" target="_top" xlink:title="Discover PT1000 sensors on SPI bus.">
<polygon fill="white" stroke="#666666" points="435.75,-177.5 323.75,-177.5 323.75,-147 435.75,-147 435.75,-177.5"/>
<text xml:space="preserve" text-anchor="start" x="331.75" y="-164" font-family="Helvetica,sans-Serif" font-size="10.00">TemperatureController</text>
<text xml:space="preserve" text-anchor="middle" x="379.75" y="-152.75" font-family="Helvetica,sans-Serif" font-size="10.00">::discoverPTSensors</text>
</a>
</g>
</g>
<!-- Node3&#45;&gt;Node5 -->
<g id="edge5_Node000003_Node000005" class="edge">
<title>Node3&#45;&gt;Node5</title>
<g id="a_edge5_Node000003_Node000005"><a xlink:title=" ">
<path fill="none" stroke="#63b8ff" d="M487.96,-162.25C470.79,-162.25 452.5,-162.25 435.97,-162.25"/>
<polygon fill="#63b8ff" stroke="#63b8ff" points="487.53,-165.75 497.53,-162.25 487.53,-158.75 487.53,-165.75"/>
</a>
</g>
</g>
<!-- Node7 -->
<g id="Node000007" class="node">
<title>Node7</title>
<g id="a_Node000007"><a xlink:href="class_temperature_controller.html#add39ba7dad38449bbf1787a5c9c51ef9" target="_top" xlink:title="Get JSON representation of all measurement points.">
<polygon fill="white" stroke="#666666" points="435.75,-128.5 323.75,-128.5 323.75,-98 435.75,-98 435.75,-128.5"/>
<text xml:space="preserve" text-anchor="start" x="331.75" y="-115" font-family="Helvetica,sans-Serif" font-size="10.00">TemperatureController</text>
<text xml:space="preserve" text-anchor="middle" x="379.75" y="-103.75" font-family="Helvetica,sans-Serif" font-size="10.00">::getPointsJson</text>
</a>
</g>
</g>
<!-- Node3&#45;&gt;Node7 -->
<g id="edge7_Node000003_Node000007" class="edge">
<title>Node3&#45;&gt;Node7</title>
<g id="a_edge7_Node000003_Node000007"><a xlink:title=" ">
<path fill="none" stroke="#63b8ff" d="M488.45,-143.62C471.14,-138.74 452.65,-133.53 435.97,-128.82"/>
<polygon fill="#63b8ff" stroke="#63b8ff" points="487.02,-146.85 497.59,-146.2 488.92,-140.12 487.02,-146.85"/>
</a>
</g>
</g>
<!-- Node8 -->
<g id="Node000008" class="node">
<title>Node8</title>
<g id="a_Node000008"><a xlink:href="class_temperature_controller.html#a58f7a683f6e4c08dbfdfc43c1e740f15" target="_top" xlink:title="Get JSON representation of all sensors.">
<polygon fill="white" stroke="#666666" points="435.75,-79.5 323.75,-79.5 323.75,-49 435.75,-49 435.75,-79.5"/>
<text xml:space="preserve" text-anchor="start" x="331.75" y="-66" font-family="Helvetica,sans-Serif" font-size="10.00">TemperatureController</text>
<text xml:space="preserve" text-anchor="middle" x="379.75" y="-54.75" font-family="Helvetica,sans-Serif" font-size="10.00">::getSensorsJson</text>
</a>
</g>
</g>
<!-- Node3&#45;&gt;Node8 -->
<g id="edge8_Node000003_Node000008" class="edge">
<title>Node3&#45;&gt;Node8</title>
<g id="a_edge8_Node000003_Node000008"><a xlink:title=" ">
<path fill="none" stroke="#63b8ff" d="M530.71,-138.89C513.33,-122.96 488.53,-102.43 463.5,-89.25 455,-84.77 445.58,-80.97 436.23,-77.79"/>
<polygon fill="#63b8ff" stroke="#63b8ff" points="528.28,-141.42 537.97,-145.7 533.07,-136.31 528.28,-141.42"/>
</a>
</g>
</g>
<!-- Node9 -->
<g id="Node000009" class="node">
<title>Node9</title>
<g id="a_Node000009"><a xlink:href="class_temperature_controller.html#a23dca296a268baa9b8234c8bf9cf0c3e" target="_top" xlink:title="Update temperature readings for all sensors.">
<polygon fill="white" stroke="#666666" points="435.75,-30.5 323.75,-30.5 323.75,0 435.75,0 435.75,-30.5"/>
<text xml:space="preserve" text-anchor="start" x="331.75" y="-17" font-family="Helvetica,sans-Serif" font-size="10.00">TemperatureController</text>
<text xml:space="preserve" text-anchor="middle" x="379.75" y="-5.75" font-family="Helvetica,sans-Serif" font-size="10.00">::updateAllSensors</text>
</a>
</g>
</g>
<!-- Node3&#45;&gt;Node9 -->
<g id="edge9_Node000003_Node000009" class="edge">
<title>Node3&#45;&gt;Node9</title>
<g id="a_edge9_Node000003_Node000009"><a xlink:title=" ">
<path fill="none" stroke="#63b8ff" d="M541.73,-136.5C526.71,-108.78 499.21,-65.3 463.5,-40.25 455.27,-34.48 445.68,-30.01 436,-26.57"/>
<polygon fill="#63b8ff" stroke="#63b8ff" points="538.6,-138.05 546.34,-145.28 544.8,-134.8 538.6,-138.05"/>
</a>
</g>
</g>
<!-- Node6 -->
<g id="Node000006" class="node">
<title>Node6</title>
<g id="a_Node000006"><a xlink:href="class_temperature_controller.html#af59d6d6d48ed8ddfb968a1fa2dce6768" target="_top" xlink:title="Initialize the temperature controller system.">
<polygon fill="white" stroke="#666666" points="260,-177.5 148,-177.5 148,-147 260,-147 260,-177.5"/>
<text xml:space="preserve" text-anchor="start" x="156" y="-164" font-family="Helvetica,sans-Serif" font-size="10.00">TemperatureController</text>
<text xml:space="preserve" text-anchor="middle" x="204" y="-152.75" font-family="Helvetica,sans-Serif" font-size="10.00">::begin</text>
</a>
</g>
</g>
<!-- Node5&#45;&gt;Node6 -->
<g id="edge6_Node000005_Node000006" class="edge">
<title>Node5&#45;&gt;Node6</title>
<g id="a_edge6_Node000005_Node000006"><a xlink:title=" ">
<path fill="none" stroke="#63b8ff" d="M312.21,-162.25C295.04,-162.25 276.75,-162.25 260.22,-162.25"/>
<polygon fill="#63b8ff" stroke="#63b8ff" points="311.78,-165.75 321.78,-162.25 311.78,-158.75 311.78,-165.75"/>
</a>
</g>
</g>
<!-- Node10 -->
<g id="Node000010" class="node">
<title>Node10</title>
<g id="a_Node000010"><a xlink:href="class_temperature_controller.html#aca5deddbf703001373424d876f87b5f2" target="_top" xlink:title="Main update function &#45; must be called in loop()">
<polygon fill="white" stroke="#666666" points="260,-30.5 148,-30.5 148,0 260,0 260,-30.5"/>
<text xml:space="preserve" text-anchor="start" x="156" y="-17" font-family="Helvetica,sans-Serif" font-size="10.00">TemperatureController</text>
<text xml:space="preserve" text-anchor="middle" x="204" y="-5.75" font-family="Helvetica,sans-Serif" font-size="10.00">::update</text>
</a>
</g>
</g>
<!-- Node9&#45;&gt;Node10 -->
<g id="edge10_Node000009_Node000010" class="edge">
<title>Node9&#45;&gt;Node10</title>
<g id="a_edge10_Node000009_Node000010"><a xlink:title=" ">
<path fill="none" stroke="#63b8ff" d="M312.21,-15.25C295.04,-15.25 276.75,-15.25 260.22,-15.25"/>
<polygon fill="#63b8ff" stroke="#63b8ff" points="311.78,-18.75 321.78,-15.25 311.78,-11.75 311.78,-18.75"/>
</a>
</g>
</g>
<!-- Node11 -->
<g id="Node000011" class="node">
<title>Node11</title>
<g id="a_Node000011"><a xlink:href="class_temperature_controller.html#a11948a87fe7df37543b86ecdd488b341" target="_top" xlink:title="Read temperature from all configured measurement points.">
<polygon fill="white" stroke="#666666" points="112,-30.5 0,-30.5 0,0 112,0 112,-30.5"/>
<text xml:space="preserve" text-anchor="start" x="8" y="-17" font-family="Helvetica,sans-Serif" font-size="10.00">TemperatureController</text>
<text xml:space="preserve" text-anchor="middle" x="56" y="-5.75" font-family="Helvetica,sans-Serif" font-size="10.00">::readAllPoints</text>
</a>
</g>
</g>
<!-- Node10&#45;&gt;Node11 -->
<g id="edge11_Node000010_Node000011" class="edge">
<title>Node10&#45;&gt;Node11</title>
<g id="a_edge11_Node000010_Node000011"><a xlink:title=" ">
<path fill="none" stroke="#63b8ff" d="M136.47,-8.52C128.38,-8.46 120.18,-8.52 112.27,-8.68"/>
<polygon fill="#63b8ff" stroke="#63b8ff" points="136.24,-12.02 146.29,-8.66 136.34,-5.02 136.24,-12.02"/>
</a>
</g>
</g>
<!-- Node11&#45;&gt;Node10 -->
<g id="edge12_Node000011_Node000010" class="edge">
<title>Node11&#45;&gt;Node10</title>
<g id="a_edge12_Node000011_Node000010"><a xlink:title=" ">
<path fill="none" stroke="#63b8ff" d="M123.61,-21.98C131.7,-22.04 139.9,-21.98 147.8,-21.82"/>
<polygon fill="#63b8ff" stroke="#63b8ff" points="123.84,-18.48 113.79,-21.84 123.74,-25.48 123.84,-18.48"/>
</a>
</g>
</g>
</g>
</svg>
