<?xml version="1.0" encoding="UTF-8" standalone="no"?>
<!DOCTYPE svg PUBLIC "-//W3C//DTD SVG 1.1//EN"
 "http://www.w3.org/Graphics/SVG/1.1/DTD/svg11.dtd">
<!-- Generated by graphviz version 13.1.0 (20250701.0955)
 -->
<!-- Title: TemperatureController::getPT1000Count Pages: 1 -->
<svg width="1060pt" height="88pt"
 viewBox="0.00 0.00 1060.00 88.00" xmlns="http://www.w3.org/2000/svg" xmlns:xlink="http://www.w3.org/1999/xlink">
<g id="graph0" class="graph" transform="scale(1 1) rotate(0) translate(4 83.5)">
<title>TemperatureController::getPT1000Count</title>
<!-- Node1 -->
<g id="Node000001" class="node">
<title>Node1</title>
<g id="a_Node000001"><a xlink:title="Get count of discovered PT1000 sensors.">
<polygon fill="#999999" stroke="#666666" points="1051.75,-54.5 939.75,-54.5 939.75,-24 1051.75,-24 1051.75,-54.5"/>
<text xml:space="preserve" text-anchor="start" x="947.75" y="-41" font-family="Helvetica,sans-Serif" font-size="10.00">TemperatureController</text>
<text xml:space="preserve" text-anchor="middle" x="995.75" y="-29.75" font-family="Helvetica,sans-Serif" font-size="10.00">::getPT1000Count</text>
</a>
</g>
</g>
<!-- Node2 -->
<g id="Node000002" class="node">
<title>Node2</title>
<g id="a_Node000002"><a xlink:href="class_temperature_controller.html#a45d13ed72fd36b46820af631e4db958b" target="_top" xlink:title="Display system stats page.">
<polygon fill="white" stroke="#666666" points="901.88,-79.5 786.88,-79.5 786.88,-49 901.88,-49 901.88,-79.5"/>
<text xml:space="preserve" text-anchor="start" x="794.88" y="-66" font-family="Helvetica,sans-Serif" font-size="10.00">TemperatureController</text>
<text xml:space="preserve" text-anchor="middle" x="844.38" y="-54.75" font-family="Helvetica,sans-Serif" font-size="10.00">::_displaySystemStats</text>
</a>
</g>
</g>
<!-- Node1&#45;&gt;Node2 -->
<g id="edge1_Node000001_Node000002" class="edge">
<title>Node1&#45;&gt;Node2</title>
<g id="a_edge1_Node000001_Node000002"><a xlink:title=" ">
<path fill="none" stroke="#63b8ff" d="M928.3,-50.37C919.64,-51.82 910.83,-53.3 902.35,-54.72"/>
<polygon fill="#63b8ff" stroke="#63b8ff" points="928.77,-53.84 938.06,-48.74 927.62,-46.94 928.77,-53.84"/>
</a>
</g>
</g>
<!-- Node8 -->
<g id="Node000008" class="node">
<title>Node8</title>
<g id="a_Node000008"><a xlink:href="class_temperature_controller.html#a8a00b1def4b570d162ec718938f4ea26" target="_top" xlink:title="Get JSON representation of system status.">
<polygon fill="white" stroke="#666666" points="903.75,-30.5 785,-30.5 785,0 903.75,0 903.75,-30.5"/>
<text xml:space="preserve" text-anchor="start" x="793" y="-17" font-family="Helvetica,sans-Serif" font-size="10.00">TemperatureController</text>
<text xml:space="preserve" text-anchor="middle" x="844.38" y="-5.75" font-family="Helvetica,sans-Serif" font-size="10.00">::getSystemStatusJson</text>
</a>
</g>
</g>
<!-- Node1&#45;&gt;Node8 -->
<g id="edge8_Node000001_Node000008" class="edge">
<title>Node1&#45;&gt;Node8</title>
<g id="a_edge8_Node000001_Node000008"><a xlink:title=" ">
<path fill="none" stroke="#63b8ff" d="M928.29,-28.57C920.23,-27.28 912.04,-25.96 904.1,-24.69"/>
<polygon fill="#63b8ff" stroke="#63b8ff" points="927.63,-32.01 938.06,-30.14 928.74,-25.1 927.63,-32.01"/>
</a>
</g>
</g>
<!-- Node3 -->
<g id="Node000003" class="node">
<title>Node3</title>
<g id="a_Node000003"><a xlink:href="class_temperature_controller.html#a45f7994a3a052a527981dbfdad27606b" target="_top" xlink:title="Handle system status mode display.">
<polygon fill="white" stroke="#666666" points="749,-79.5 607,-79.5 607,-49 749,-49 749,-79.5"/>
<text xml:space="preserve" text-anchor="start" x="615" y="-66" font-family="Helvetica,sans-Serif" font-size="10.00">TemperatureController</text>
<text xml:space="preserve" text-anchor="middle" x="678" y="-54.75" font-family="Helvetica,sans-Serif" font-size="10.00">::_handleSystemStatusMode</text>
</a>
</g>
</g>
<!-- Node2&#45;&gt;Node3 -->
<g id="edge2_Node000002_Node000003" class="edge">
<title>Node2&#45;&gt;Node3</title>
<g id="a_edge2_Node000002_Node000003"><a xlink:title=" ">
<path fill="none" stroke="#63b8ff" d="M775.58,-64.25C766.91,-64.25 758.03,-64.25 749.32,-64.25"/>
<polygon fill="#63b8ff" stroke="#63b8ff" points="775.29,-67.75 785.29,-64.25 775.29,-60.75 775.29,-67.75"/>
</a>
</g>
</g>
<!-- Node4 -->
<g id="Node000004" class="node">
<title>Node4</title>
<g id="a_Node000004"><a xlink:href="class_temperature_controller.html#a6b2f92b5c2af867240200cff2e61e806" target="_top" xlink:title="Handle display section switching.">
<polygon fill="white" stroke="#666666" points="571,-79.5 444,-79.5 444,-49 571,-49 571,-79.5"/>
<text xml:space="preserve" text-anchor="start" x="452" y="-66" font-family="Helvetica,sans-Serif" font-size="10.00">TemperatureController</text>
<text xml:space="preserve" text-anchor="middle" x="507.5" y="-54.75" font-family="Helvetica,sans-Serif" font-size="10.00">::_handleDisplaySections</text>
</a>
</g>
</g>
<!-- Node3&#45;&gt;Node4 -->
<g id="edge3_Node000003_Node000004" class="edge">
<title>Node3&#45;&gt;Node4</title>
<g id="a_edge3_Node000003_Node000004"><a xlink:title=" ">
<path fill="none" stroke="#63b8ff" d="M595.26,-64.25C587.26,-64.25 579.23,-64.25 571.46,-64.25"/>
<polygon fill="#63b8ff" stroke="#63b8ff" points="595,-67.75 605,-64.25 595,-60.75 595,-67.75"/>
</a>
</g>
</g>
<!-- Node5 -->
<g id="Node000005" class="node">
<title>Node5</title>
<g id="a_Node000005"><a xlink:href="class_temperature_controller.html#a5637103784725fb1a73f6463d7cbfde6" target="_top" xlink:title="Handle alarm display on OLED/LEDs.">
<polygon fill="white" stroke="#666666" points="408,-79.5 296,-79.5 296,-49 408,-49 408,-79.5"/>
<text xml:space="preserve" text-anchor="start" x="304" y="-66" font-family="Helvetica,sans-Serif" font-size="10.00">TemperatureController</text>
<text xml:space="preserve" text-anchor="middle" x="352" y="-54.75" font-family="Helvetica,sans-Serif" font-size="10.00">::handleAlarmDisplay</text>
</a>
</g>
</g>
<!-- Node4&#45;&gt;Node5 -->
<g id="edge4_Node000004_Node000005" class="edge">
<title>Node4&#45;&gt;Node5</title>
<g id="a_edge4_Node000004_Node000005"><a xlink:title=" ">
<path fill="none" stroke="#63b8ff" d="M432.22,-64.25C424.12,-64.25 415.98,-64.25 408.16,-64.25"/>
<polygon fill="#63b8ff" stroke="#63b8ff" points="432.11,-67.75 442.11,-64.25 432.11,-60.75 432.11,-67.75"/>
</a>
</g>
</g>
<!-- Node6 -->
<g id="Node000006" class="node">
<title>Node6</title>
<g id="a_Node000006"><a xlink:href="class_temperature_controller.html#aca5deddbf703001373424d876f87b5f2" target="_top" xlink:title="Main update function &#45; must be called in loop()">
<polygon fill="white" stroke="#666666" points="260,-79.5 148,-79.5 148,-49 260,-49 260,-79.5"/>
<text xml:space="preserve" text-anchor="start" x="156" y="-66" font-family="Helvetica,sans-Serif" font-size="10.00">TemperatureController</text>
<text xml:space="preserve" text-anchor="middle" x="204" y="-54.75" font-family="Helvetica,sans-Serif" font-size="10.00">::update</text>
</a>
</g>
</g>
<!-- Node5&#45;&gt;Node6 -->
<g id="edge5_Node000005_Node000006" class="edge">
<title>Node5&#45;&gt;Node6</title>
<g id="a_edge5_Node000005_Node000006"><a xlink:title=" ">
<path fill="none" stroke="#63b8ff" d="M284.47,-64.25C276.38,-64.25 268.18,-64.25 260.27,-64.25"/>
<polygon fill="#63b8ff" stroke="#63b8ff" points="284.29,-67.75 294.29,-64.25 284.29,-60.75 284.29,-67.75"/>
</a>
</g>
</g>
<!-- Node7 -->
<g id="Node000007" class="node">
<title>Node7</title>
<g id="a_Node000007"><a xlink:href="class_temperature_controller.html#a11948a87fe7df37543b86ecdd488b341" target="_top" xlink:title="Read temperature from all configured measurement points.">
<polygon fill="white" stroke="#666666" points="112,-79.5 0,-79.5 0,-49 112,-49 112,-79.5"/>
<text xml:space="preserve" text-anchor="start" x="8" y="-66" font-family="Helvetica,sans-Serif" font-size="10.00">TemperatureController</text>
<text xml:space="preserve" text-anchor="middle" x="56" y="-54.75" font-family="Helvetica,sans-Serif" font-size="10.00">::readAllPoints</text>
</a>
</g>
</g>
<!-- Node6&#45;&gt;Node7 -->
<g id="edge6_Node000006_Node000007" class="edge">
<title>Node6&#45;&gt;Node7</title>
<g id="a_edge6_Node000006_Node000007"><a xlink:title=" ">
<path fill="none" stroke="#63b8ff" d="M136.47,-57.52C128.38,-57.46 120.18,-57.52 112.27,-57.68"/>
<polygon fill="#63b8ff" stroke="#63b8ff" points="136.24,-61.02 146.29,-57.66 136.34,-54.02 136.24,-61.02"/>
</a>
</g>
</g>
<!-- Node7&#45;&gt;Node6 -->
<g id="edge7_Node000007_Node000006" class="edge">
<title>Node7&#45;&gt;Node6</title>
<g id="a_edge7_Node000007_Node000006"><a xlink:title=" ">
<path fill="none" stroke="#63b8ff" d="M123.61,-70.98C131.7,-71.04 139.9,-70.98 147.8,-70.82"/>
<polygon fill="#63b8ff" stroke="#63b8ff" points="123.84,-67.48 113.79,-70.84 123.74,-74.48 123.84,-67.48"/>
</a>
</g>
</g>
</g>
</svg>
