<?xml version="1.0" encoding="UTF-8" standalone="no"?>
<!DOCTYPE svg PUBLIC "-//W3C//DTD SVG 1.1//EN"
 "http://www.w3.org/Graphics/SVG/1.1/DTD/svg11.dtd">
<!-- Generated by graphviz version 13.1.0 (20250701.0955)
 -->
<!-- Title: TimeManager::update Pages: 1 -->
<svg width="704pt" height="119pt"
 viewBox="0.00 0.00 704.00 119.00" xmlns="http://www.w3.org/2000/svg" xmlns:xlink="http://www.w3.org/1999/xlink">
<g id="graph0" class="graph" transform="scale(1 1) rotate(0) translate(4 115.25)">
<title>TimeManager::update</title>
<!-- Node1 -->
<g id="Node000001" class="node">
<title>Node1</title>
<g id="a_Node000001"><a xlink:title=" ">
<polygon fill="#999999" stroke="#666666" points="110.5,-92.25 0,-92.25 0,-73 110.5,-73 110.5,-92.25"/>
<text xml:space="preserve" text-anchor="middle" x="55.25" y="-78.75" font-family="Helvetica,sans-Serif" font-size="10.00">TimeManager::update</text>
</a>
</g>
</g>
<!-- Node2 -->
<g id="Node000002" class="node">
<title>Node2</title>
<g id="a_Node000002"><a xlink:href="class_time_manager.html#a57cb32331258b5e8692ef477657dd318" target="_top" xlink:title=" ">
<polygon fill="white" stroke="#666666" points="503.25,-111.25 341.75,-111.25 341.75,-92 503.25,-92 503.25,-111.25"/>
<text xml:space="preserve" text-anchor="middle" x="422.5" y="-97.75" font-family="Helvetica,sans-Serif" font-size="10.00">TimeManager::_isWiFiConnected</text>
</a>
</g>
</g>
<!-- Node1&#45;&gt;Node2 -->
<g id="edge1_Node000001_Node000002" class="edge">
<title>Node1&#45;&gt;Node2</title>
<g id="a_edge1_Node000001_Node000002"><a xlink:title=" ">
<path fill="none" stroke="#63b8ff" d="M110.93,-85.47C168.81,-88.48 261.13,-93.28 330.1,-96.87"/>
<polygon fill="#63b8ff" stroke="#63b8ff" points="329.71,-100.35 339.88,-97.38 330.07,-93.36 329.71,-100.35"/>
</a>
</g>
</g>
<!-- Node3 -->
<g id="Node000003" class="node">
<title>Node3</title>
<g id="a_Node000003"><a xlink:href="class_time_manager.html#accdbd3c07d63d6ed1f96fddbc4bf2e00" target="_top" xlink:title=" ">
<polygon fill="white" stroke="#666666" points="305.75,-73.25 146.5,-73.25 146.5,-54 305.75,-54 305.75,-73.25"/>
<text xml:space="preserve" text-anchor="middle" x="226.12" y="-59.75" font-family="Helvetica,sans-Serif" font-size="10.00">TimeManager::setTimeFromNTP</text>
</a>
</g>
</g>
<!-- Node1&#45;&gt;Node3 -->
<g id="edge2_Node000001_Node000003" class="edge">
<title>Node1&#45;&gt;Node3</title>
<g id="a_edge2_Node000001_Node000003"><a xlink:title=" ">
<path fill="none" stroke="#63b8ff" d="M110.61,-76.51C118.43,-75.63 126.65,-74.7 134.95,-73.77"/>
<polygon fill="#63b8ff" stroke="#63b8ff" points="135.22,-77.26 144.77,-72.67 134.44,-70.31 135.22,-77.26"/>
</a>
</g>
</g>
<!-- Node3&#45;&gt;Node2 -->
<g id="edge4_Node000003_Node000002" class="edge">
<title>Node3&#45;&gt;Node2</title>
<g id="a_edge4_Node000003_Node000002"><a xlink:title=" ">
<path fill="none" stroke="#63b8ff" d="M278.7,-73.71C303.29,-78.52 332.92,-84.31 358.8,-89.37"/>
<polygon fill="#63b8ff" stroke="#63b8ff" points="358.05,-92.79 368.53,-91.27 359.39,-85.92 358.05,-92.79"/>
</a>
</g>
</g>
<!-- Node4 -->
<g id="Node000004" class="node">
<title>Node4</title>
<g id="a_Node000004"><a xlink:href="class_time_manager.html#a2160202e65568b360b4bdfbe7ff7ff96" target="_top" xlink:title=" ">
<polygon fill="white" stroke="#666666" points="493.5,-74.25 351.5,-74.25 351.5,-55 493.5,-55 493.5,-74.25"/>
<text xml:space="preserve" text-anchor="middle" x="422.5" y="-60.75" font-family="Helvetica,sans-Serif" font-size="10.00">TimeManager::_initializeNTP</text>
</a>
</g>
</g>
<!-- Node3&#45;&gt;Node4 -->
<g id="edge3_Node000003_Node000004" class="edge">
<title>Node3&#45;&gt;Node4</title>
<g id="a_edge3_Node000003_Node000004"><a xlink:title=" ">
<path fill="none" stroke="#63b8ff" d="M306.18,-64.03C317.26,-64.09 328.66,-64.15 339.79,-64.2"/>
<polygon fill="#63b8ff" stroke="#63b8ff" points="339.73,-67.7 349.74,-64.26 339.76,-60.7 339.73,-67.7"/>
</a>
</g>
</g>
<!-- Node5 -->
<g id="Node000005" class="node">
<title>Node5</title>
<g id="a_Node000005"><a xlink:href="class_time_manager.html#a06dd5ab29990377c81538d99ba7ccf31" target="_top" xlink:title=" ">
<polygon fill="white" stroke="#666666" points="502.88,-37.25 342.12,-37.25 342.12,-18 502.88,-18 502.88,-37.25"/>
<text xml:space="preserve" text-anchor="middle" x="422.5" y="-23.75" font-family="Helvetica,sans-Serif" font-size="10.00">TimeManager::getFormattedTime</text>
</a>
</g>
</g>
<!-- Node3&#45;&gt;Node5 -->
<g id="edge5_Node000003_Node000005" class="edge">
<title>Node3&#45;&gt;Node5</title>
<g id="a_edge5_Node000003_Node000005"><a xlink:title=" ">
<path fill="none" stroke="#63b8ff" d="M281.79,-53.5C304.76,-49.25 331.68,-44.26 355.73,-39.81"/>
<polygon fill="#63b8ff" stroke="#63b8ff" points="356.23,-43.27 365.42,-38.01 354.95,-36.39 356.23,-43.27"/>
</a>
</g>
</g>
<!-- Node6 -->
<g id="Node000006" class="node">
<title>Node6</title>
<g id="a_Node000006"><a xlink:href="class_time_manager.html#abcaf17b6da72a3a2f2566d940ce5ce8d" target="_top" xlink:title=" ">
<polygon fill="white" stroke="#666666" points="696.25,-56.25 539.25,-56.25 539.25,-37 696.25,-37 696.25,-56.25"/>
<text xml:space="preserve" text-anchor="middle" x="617.75" y="-42.75" font-family="Helvetica,sans-Serif" font-size="10.00">TimeManager::_formatDateTime</text>
</a>
</g>
</g>
<!-- Node5&#45;&gt;Node6 -->
<g id="edge6_Node000005_Node000006" class="edge">
<title>Node5&#45;&gt;Node6</title>
<g id="a_edge6_Node000005_Node000006"><a xlink:title=" ">
<path fill="none" stroke="#63b8ff" d="M503.22,-35.46C511.2,-36.25 519.35,-37.05 527.42,-37.84"/>
<polygon fill="#63b8ff" stroke="#63b8ff" points="526.97,-41.31 537.27,-38.81 527.66,-34.35 526.97,-41.31"/>
</a>
</g>
</g>
<!-- Node7 -->
<g id="Node000007" class="node">
<title>Node7</title>
<g id="a_Node000007"><a xlink:href="class_time_manager.html#a2667b0243b7db24b3055c2b00e2837ba" target="_top" xlink:title=" ">
<polygon fill="white" stroke="#666666" points="692.12,-19.25 543.38,-19.25 543.38,0 692.12,0 692.12,-19.25"/>
<text xml:space="preserve" text-anchor="middle" x="617.75" y="-5.75" font-family="Helvetica,sans-Serif" font-size="10.00">TimeManager::getCurrentTime</text>
</a>
</g>
</g>
<!-- Node5&#45;&gt;Node7 -->
<g id="edge7_Node000005_Node000007" class="edge">
<title>Node5&#45;&gt;Node7</title>
<g id="a_edge7_Node000005_Node000007"><a xlink:title=" ">
<path fill="none" stroke="#63b8ff" d="M503.22,-20.2C512.61,-19.33 522.21,-18.43 531.67,-17.55"/>
<polygon fill="#63b8ff" stroke="#63b8ff" points="531.97,-21.04 541.6,-16.62 531.32,-14.07 531.97,-21.04"/>
</a>
</g>
</g>
</g>
</svg>
