<?xml version="1.0" encoding="UTF-8" standalone="no"?>
<!DOCTYPE svg PUBLIC "-//W3C//DTD SVG 1.1//EN"
 "http://www.w3.org/Graphics/SVG/1.1/DTD/svg11.dtd">
<!-- Generated by graphviz version 13.1.0 (20250701.0955)
 -->
<!-- Title: LoggerManager::_writeAlarmStateHeader Pages: 1 -->
<svg width="520pt" height="64pt"
 viewBox="0.00 0.00 520.00 64.00" xmlns="http://www.w3.org/2000/svg" xmlns:xlink="http://www.w3.org/1999/xlink">
<g id="graph0" class="graph" transform="scale(1 1) rotate(0) translate(4 60.25)">
<title>LoggerManager::_writeAlarmStateHeader</title>
<!-- Node1 -->
<g id="Node000001" class="node">
<title>Node1</title>
<g id="a_Node000001"><a xlink:title=" ">
<polygon fill="#999999" stroke="#666666" points="511.5,-42.88 371,-42.88 371,-12.37 511.5,-12.37 511.5,-42.88"/>
<text xml:space="preserve" text-anchor="start" x="379" y="-29.38" font-family="Helvetica,sans-Serif" font-size="10.00">LoggerManager::_writeAlarm</text>
<text xml:space="preserve" text-anchor="middle" x="441.25" y="-18.12" font-family="Helvetica,sans-Serif" font-size="10.00">StateHeader</text>
</a>
</g>
</g>
<!-- Node2 -->
<g id="Node000002" class="node">
<title>Node2</title>
<g id="a_Node000002"><a xlink:href="class_logger_manager.html#a0bb3b084e2a16c2d089e8761a093bef5" target="_top" xlink:title=" ">
<polygon fill="white" stroke="#666666" points="335,-42.88 186.25,-42.88 186.25,-12.37 335,-12.37 335,-42.88"/>
<text xml:space="preserve" text-anchor="start" x="194.25" y="-29.38" font-family="Helvetica,sans-Serif" font-size="10.00">LoggerManager::_ensureAlarm</text>
<text xml:space="preserve" text-anchor="middle" x="260.62" y="-18.12" font-family="Helvetica,sans-Serif" font-size="10.00">StateLogExists</text>
</a>
</g>
</g>
<!-- Node1&#45;&gt;Node2 -->
<g id="edge1_Node000001_Node000002" class="edge">
<title>Node1&#45;&gt;Node2</title>
<g id="a_edge1_Node000001_Node000002"><a xlink:title=" ">
<path fill="none" stroke="#63b8ff" d="M359.18,-27.62C351.27,-27.62 343.27,-27.62 335.43,-27.62"/>
<polygon fill="#63b8ff" stroke="#63b8ff" points="359.16,-31.13 369.16,-27.63 359.16,-24.13 359.16,-31.13"/>
</a>
</g>
</g>
<!-- Node3 -->
<g id="Node000003" class="node">
<title>Node3</title>
<g id="a_Node000003"><a xlink:href="class_logger_manager.html#a4acf0149820d73f4ed11340f63706841" target="_top" xlink:title=" ">
<polygon fill="white" stroke="#666666" points="131.12,-56.25 19.13,-56.25 19.13,-37 131.12,-37 131.12,-56.25"/>
<text xml:space="preserve" text-anchor="middle" x="75.12" y="-42.75" font-family="Helvetica,sans-Serif" font-size="10.00">LoggerManager::begin</text>
</a>
</g>
</g>
<!-- Node2&#45;&gt;Node3 -->
<g id="edge2_Node000002_Node000003" class="edge">
<title>Node2&#45;&gt;Node3</title>
<g id="a_edge2_Node000002_Node000003"><a xlink:title=" ">
<path fill="none" stroke="#63b8ff" d="M174.64,-36.42C159.98,-37.94 145.09,-39.48 131.48,-40.89"/>
<polygon fill="#63b8ff" stroke="#63b8ff" points="174.69,-39.94 184.28,-35.43 173.97,-32.98 174.69,-39.94"/>
</a>
</g>
</g>
<!-- Node4 -->
<g id="Node000004" class="node">
<title>Node4</title>
<g id="a_Node000004"><a xlink:href="class_logger_manager.html#af736040bd57412bef8981960e6df3bda" target="_top" xlink:title=" ">
<polygon fill="white" stroke="#666666" points="150.25,-19.25 0,-19.25 0,0 150.25,0 150.25,-19.25"/>
<text xml:space="preserve" text-anchor="middle" x="75.12" y="-5.75" font-family="Helvetica,sans-Serif" font-size="10.00">LoggerManager::logAlarmState</text>
</a>
</g>
</g>
<!-- Node2&#45;&gt;Node4 -->
<g id="edge3_Node000002_Node000004" class="edge">
<title>Node2&#45;&gt;Node4</title>
<g id="a_edge3_Node000002_Node000004"><a xlink:title=" ">
<path fill="none" stroke="#63b8ff" d="M174.58,-19.28C166.61,-18.5 158.58,-17.71 150.71,-16.94"/>
<polygon fill="#63b8ff" stroke="#63b8ff" points="173.98,-22.74 184.28,-20.23 174.66,-15.77 173.98,-22.74"/>
</a>
</g>
</g>
</g>
</svg>
