<?xml version="1.0" encoding="UTF-8" standalone="no"?>
<!DOCTYPE svg PUBLIC "-//W3C//DTD SVG 1.1//EN"
 "http://www.w3.org/Graphics/SVG/1.1/DTD/svg11.dtd">
<!-- Generated by graphviz version 13.1.0 (20250701.0955)
 -->
<!-- Title: MeasurementPoint::getBoundSensor Pages: 1 -->
<svg width="1309pt" height="493pt"
 viewBox="0.00 0.00 1309.00 493.00" xmlns="http://www.w3.org/2000/svg" xmlns:xlink="http://www.w3.org/1999/xlink">
<g id="graph0" class="graph" transform="scale(1 1) rotate(0) translate(4 488.88)">
<title>MeasurementPoint::getBoundSensor</title>
<!-- Node1 -->
<g id="Node000001" class="node">
<title>Node1</title>
<g id="a_Node000001"><a xlink:title="Get pointer to bound sensor.">
<polygon fill="#999999" stroke="#666666" points="1301,-275.88 1156,-275.88 1156,-245.38 1301,-245.38 1301,-275.88"/>
<text xml:space="preserve" text-anchor="start" x="1164" y="-262.38" font-family="Helvetica,sans-Serif" font-size="10.00">MeasurementPoint::getBound</text>
<text xml:space="preserve" text-anchor="middle" x="1228.5" y="-251.12" font-family="Helvetica,sans-Serif" font-size="10.00">Sensor</text>
</a>
</g>
</g>
<!-- Node2 -->
<g id="Node000002" class="node">
<title>Node2</title>
<g id="a_Node000002"><a xlink:href="class_temperature_controller.html#a27da8ccc3effea555f440ce3e6f89b08" target="_top" xlink:title="Check measurement point for alarm conditions.">
<polygon fill="white" stroke="#666666" points="1102.38,-484.88 981.38,-484.88 981.38,-454.38 1102.38,-454.38 1102.38,-484.88"/>
<text xml:space="preserve" text-anchor="start" x="989.38" y="-471.38" font-family="Helvetica,sans-Serif" font-size="10.00">TemperatureController</text>
<text xml:space="preserve" text-anchor="middle" x="1041.88" y="-460.12" font-family="Helvetica,sans-Serif" font-size="10.00">::_checkPointForAlarms</text>
</a>
</g>
</g>
<!-- Node1&#45;&gt;Node2 -->
<g id="edge1_Node000001_Node000002" class="edge">
<title>Node1&#45;&gt;Node2</title>
<g id="a_edge1_Node000001_Node000002"><a xlink:title=" ">
<path fill="none" stroke="#63b8ff" d="M1219.01,-286.96C1204.83,-326.81 1172.59,-402.29 1120,-444.62 1114.85,-448.77 1108.99,-452.24 1102.85,-455.14"/>
<polygon fill="#63b8ff" stroke="#63b8ff" points="1222.25,-288.29 1222.19,-277.69 1215.63,-286.01 1222.25,-288.29"/>
</a>
</g>
</g>
<!-- Node3 -->
<g id="Node000003" class="node">
<title>Node3</title>
<g id="a_Node000003"><a xlink:href="class_c_s_v_config_manager.html#a2c2673398051c26184c9197aa751a6b3" target="_top" xlink:title="Export single measurement point to CSV format.">
<polygon fill="white" stroke="#666666" points="1096.38,-435.88 987.38,-435.88 987.38,-405.38 1096.38,-405.38 1096.38,-435.88"/>
<text xml:space="preserve" text-anchor="start" x="995.38" y="-422.38" font-family="Helvetica,sans-Serif" font-size="10.00">CSVConfigManager::</text>
<text xml:space="preserve" text-anchor="middle" x="1041.88" y="-411.12" font-family="Helvetica,sans-Serif" font-size="10.00">_exportPointToCSV</text>
</a>
</g>
</g>
<!-- Node1&#45;&gt;Node3 -->
<g id="edge2_Node000001_Node000003" class="edge">
<title>Node1&#45;&gt;Node3</title>
<g id="a_edge2_Node000001_Node000003"><a xlink:title=" ">
<path fill="none" stroke="#63b8ff" d="M1213.8,-286.09C1196.08,-316.68 1162.39,-367.51 1120,-396.62 1112.95,-401.47 1104.88,-405.37 1096.68,-408.49"/>
<polygon fill="#63b8ff" stroke="#63b8ff" points="1216.78,-287.93 1218.65,-277.5 1210.69,-284.49 1216.78,-287.93"/>
</a>
</g>
</g>
<!-- Node5 -->
<g id="Node000005" class="node">
<title>Node5</title>
<g id="a_Node000005"><a xlink:href="class_logger_manager.html#aa6938b6a5c002d6ed72ef352f0cc7a19" target="_top" xlink:title=" ">
<polygon fill="white" stroke="#666666" points="1120,-387.25 963.75,-387.25 963.75,-368 1120,-368 1120,-387.25"/>
<text xml:space="preserve" text-anchor="middle" x="1041.88" y="-373.75" font-family="Helvetica,sans-Serif" font-size="10.00">LoggerManager::_writeDataRow</text>
</a>
</g>
</g>
<!-- Node1&#45;&gt;Node5 -->
<g id="edge4_Node000001_Node000005" class="edge">
<title>Node1&#45;&gt;Node5</title>
<g id="a_edge4_Node000001_Node000005"><a xlink:title=" ">
<path fill="none" stroke="#63b8ff" d="M1207.52,-284.74C1187.62,-307.19 1155.05,-339.91 1120,-358.62 1113.19,-362.26 1105.67,-365.22 1098.07,-367.61"/>
<polygon fill="#63b8ff" stroke="#63b8ff" points="1210.1,-287.1 1214.01,-277.26 1204.81,-282.52 1210.1,-287.1"/>
</a>
</g>
</g>
<!-- Node8 -->
<g id="Node000008" class="node">
<title>Node8</title>
<g id="a_Node000008"><a xlink:href="class_config_manager.html#ae605c999fabc6344511f455618655326" target="_top" xlink:title="Setup alarms API endpoints.">
<polygon fill="white" stroke="#666666" points="923.25,-191.25 789.5,-191.25 789.5,-172 923.25,-172 923.25,-191.25"/>
<text xml:space="preserve" text-anchor="middle" x="856.38" y="-177.75" font-family="Helvetica,sans-Serif" font-size="10.00">ConfigManager::alarmsAPI</text>
</a>
</g>
</g>
<!-- Node1&#45;&gt;Node8 -->
<g id="edge7_Node000001_Node000008" class="edge">
<title>Node1&#45;&gt;Node8</title>
<g id="a_edge7_Node000001_Node000008"><a xlink:title=" ">
<path fill="none" stroke="#63b8ff" d="M1209.56,-236.32C1190.42,-212.63 1157.7,-178.12 1120,-163.62 1055.18,-138.7 1032.95,-157.81 963.75,-163.62 944.99,-165.2 924.57,-168.31 906.68,-171.51"/>
<polygon fill="#63b8ff" stroke="#63b8ff" points="1206.6,-238.21 1215.52,-243.92 1212.11,-233.89 1206.6,-238.21"/>
</a>
</g>
</g>
<!-- Node10 -->
<g id="Node000010" class="node">
<title>Node10</title>
<g id="a_Node000010"><a xlink:href="class_temperature_controller.html#ad174e0411bd48422d8e3812fd28a7a0b" target="_top" xlink:title="Ensure all 3 alarm types exist for a measurement point.">
<polygon fill="white" stroke="#666666" points="1101.25,-300.88 982.5,-300.88 982.5,-270.38 1101.25,-270.38 1101.25,-300.88"/>
<text xml:space="preserve" text-anchor="start" x="990.5" y="-287.38" font-family="Helvetica,sans-Serif" font-size="10.00">TemperatureController</text>
<text xml:space="preserve" text-anchor="middle" x="1041.88" y="-276.12" font-family="Helvetica,sans-Serif" font-size="10.00">::ensureAlarmsForPoint</text>
</a>
</g>
</g>
<!-- Node1&#45;&gt;Node10 -->
<g id="edge9_Node000001_Node000010" class="edge">
<title>Node1&#45;&gt;Node10</title>
<g id="a_edge9_Node000001_Node000010"><a xlink:title=" ">
<path fill="none" stroke="#63b8ff" d="M1144.56,-271.86C1130.02,-273.82 1115.18,-275.83 1101.48,-277.69"/>
<polygon fill="#63b8ff" stroke="#63b8ff" points="1144.65,-275.38 1154.09,-270.57 1143.71,-268.44 1144.65,-275.38"/>
</a>
</g>
</g>
<!-- Node11 -->
<g id="Node000011" class="node">
<title>Node11</title>
<g id="a_Node000011"><a xlink:href="class_temperature_controller.html#a9b4fe09d4c87dcf86e78b890012e1e72" target="_top" xlink:title="Get sensor bound to measurement point.">
<polygon fill="white" stroke="#666666" points="1097.88,-349.88 985.88,-349.88 985.88,-319.38 1097.88,-319.38 1097.88,-349.88"/>
<text xml:space="preserve" text-anchor="start" x="993.88" y="-336.38" font-family="Helvetica,sans-Serif" font-size="10.00">TemperatureController</text>
<text xml:space="preserve" text-anchor="middle" x="1041.88" y="-325.12" font-family="Helvetica,sans-Serif" font-size="10.00">::getBoundSensor</text>
</a>
</g>
</g>
<!-- Node1&#45;&gt;Node11 -->
<g id="edge10_Node000001_Node000011" class="edge">
<title>Node1&#45;&gt;Node11</title>
<g id="a_edge10_Node000001_Node000011"><a xlink:title=" ">
<path fill="none" stroke="#63b8ff" d="M1185.74,-281C1166.03,-290.27 1142.04,-301.06 1120,-309.62 1111.73,-312.84 1102.87,-315.98 1094.19,-318.9"/>
<polygon fill="#63b8ff" stroke="#63b8ff" points="1187.02,-284.27 1194.55,-276.82 1184.02,-277.95 1187.02,-284.27"/>
</a>
</g>
</g>
<!-- Node20 -->
<g id="Node000020" class="node">
<title>Node20</title>
<g id="a_Node000020"><a xlink:href="class_temperature_controller.html#add39ba7dad38449bbf1787a5c9c51ef9" target="_top" xlink:title="Get JSON representation of all measurement points.">
<polygon fill="white" stroke="#666666" points="1097.88,-202.88 985.88,-202.88 985.88,-172.38 1097.88,-172.38 1097.88,-202.88"/>
<text xml:space="preserve" text-anchor="start" x="993.88" y="-189.38" font-family="Helvetica,sans-Serif" font-size="10.00">TemperatureController</text>
<text xml:space="preserve" text-anchor="middle" x="1041.88" y="-178.12" font-family="Helvetica,sans-Serif" font-size="10.00">::getPointsJson</text>
</a>
</g>
</g>
<!-- Node1&#45;&gt;Node20 -->
<g id="edge20_Node000001_Node000020" class="edge">
<title>Node1&#45;&gt;Node20</title>
<g id="a_edge20_Node000001_Node000020"><a xlink:title=" ">
<path fill="none" stroke="#63b8ff" d="M1184.56,-240.19C1165.06,-231.24 1141.57,-220.91 1120,-212.62 1111.59,-209.4 1102.57,-206.22 1093.76,-203.27"/>
<polygon fill="#63b8ff" stroke="#63b8ff" points="1183.03,-243.34 1193.57,-244.37 1185.97,-236.99 1183.03,-243.34"/>
</a>
</g>
</g>
<!-- Node21 -->
<g id="Node000021" class="node">
<title>Node21</title>
<g id="a_Node000021"><a xlink:href="class_config_manager.html#a04edc14e642ecadb9ccb87be05d1d878" target="_top" xlink:title="Load measurement points configuration from file.">
<polygon fill="white" stroke="#666666" points="1108.75,-251.88 975,-251.88 975,-221.38 1108.75,-221.38 1108.75,-251.88"/>
<text xml:space="preserve" text-anchor="start" x="983" y="-238.38" font-family="Helvetica,sans-Serif" font-size="10.00">ConfigManager::loadPoints</text>
<text xml:space="preserve" text-anchor="middle" x="1041.88" y="-227.12" font-family="Helvetica,sans-Serif" font-size="10.00">Config</text>
</a>
</g>
</g>
<!-- Node1&#45;&gt;Node21 -->
<g id="edge21_Node000001_Node000021" class="edge">
<title>Node1&#45;&gt;Node21</title>
<g id="a_edge21_Node000001_Node000021"><a xlink:title=" ">
<path fill="none" stroke="#63b8ff" d="M1144.37,-249.82C1132.57,-248.29 1120.58,-246.73 1109.16,-245.24"/>
<polygon fill="#63b8ff" stroke="#63b8ff" points="1143.72,-253.26 1154.09,-251.08 1144.62,-246.32 1143.72,-253.26"/>
</a>
</g>
</g>
<!-- Node22 -->
<g id="Node000022" class="node">
<title>Node22</title>
<g id="a_Node000022"><a xlink:href="class_config_manager.html#a55b79da91c57039c483ddf5fceabbd64" target="_top" xlink:title="Save measurement points configuration to file.">
<polygon fill="white" stroke="#666666" points="1110.25,-116.88 973.5,-116.88 973.5,-86.38 1110.25,-86.38 1110.25,-116.88"/>
<text xml:space="preserve" text-anchor="start" x="981.5" y="-103.38" font-family="Helvetica,sans-Serif" font-size="10.00">ConfigManager::savePoints</text>
<text xml:space="preserve" text-anchor="middle" x="1041.88" y="-92.12" font-family="Helvetica,sans-Serif" font-size="10.00">Config</text>
</a>
</g>
</g>
<!-- Node1&#45;&gt;Node22 -->
<g id="edge23_Node000001_Node000022" class="edge">
<title>Node1&#45;&gt;Node22</title>
<g id="a_edge23_Node000001_Node000022"><a xlink:title=" ">
<path fill="none" stroke="#63b8ff" d="M1212.67,-235.78C1194.26,-206.86 1160.31,-159.38 1120,-130.62 1112.66,-125.39 1104.27,-120.98 1095.78,-117.29"/>
<polygon fill="#63b8ff" stroke="#63b8ff" points="1209.47,-237.25 1217.72,-243.89 1215.41,-233.55 1209.47,-237.25"/>
</a>
</g>
</g>
<!-- Node27 -->
<g id="Node000027" class="node">
<title>Node27</title>
<g id="a_Node000027"><a xlink:href="class_temperature_controller.html#a261c9b96540ec6680dfffd3a26e4ca00" target="_top" xlink:title="Unbind sensor from measurement point.">
<polygon fill="white" stroke="#666666" points="1105,-67.88 978.75,-67.88 978.75,-37.38 1105,-37.38 1105,-67.88"/>
<text xml:space="preserve" text-anchor="start" x="986.75" y="-54.38" font-family="Helvetica,sans-Serif" font-size="10.00">TemperatureController</text>
<text xml:space="preserve" text-anchor="middle" x="1041.88" y="-43.12" font-family="Helvetica,sans-Serif" font-size="10.00">::unbindSensorFromPoint</text>
</a>
</g>
</g>
<!-- Node1&#45;&gt;Node27 -->
<g id="edge32_Node000001_Node000027" class="edge">
<title>Node1&#45;&gt;Node27</title>
<g id="a_edge32_Node000001_Node000027"><a xlink:title=" ">
<path fill="none" stroke="#63b8ff" d="M1218.97,-234.44C1204.74,-194.79 1172.43,-119.73 1120,-77.62 1115.5,-74.01 1110.46,-70.91 1105.18,-68.26"/>
<polygon fill="#63b8ff" stroke="#63b8ff" points="1215.58,-235.34 1222.16,-243.64 1222.19,-233.05 1215.58,-235.34"/>
</a>
</g>
</g>
<!-- Node4 -->
<g id="Node000004" class="node">
<title>Node4</title>
<g id="a_Node000004"><a xlink:href="class_c_s_v_config_manager.html#a1c6cbc4c8a132762bf16a8ce9f7d0bfc" target="_top" xlink:title="Export measurement points with alarm configuration to CSV.">
<polygon fill="white" stroke="#666666" points="924.38,-435.88 788.38,-435.88 788.38,-405.38 924.38,-405.38 924.38,-435.88"/>
<text xml:space="preserve" text-anchor="start" x="796.38" y="-422.38" font-family="Helvetica,sans-Serif" font-size="10.00">CSVConfigManager::export</text>
<text xml:space="preserve" text-anchor="middle" x="856.38" y="-411.12" font-family="Helvetica,sans-Serif" font-size="10.00">PointsWithAlarmsToCSV</text>
</a>
</g>
</g>
<!-- Node3&#45;&gt;Node4 -->
<g id="edge3_Node000003_Node000004" class="edge">
<title>Node3&#45;&gt;Node4</title>
<g id="a_edge3_Node000003_Node000004"><a xlink:title=" ">
<path fill="none" stroke="#63b8ff" d="M976.03,-420.62C959.4,-420.62 941.48,-420.62 924.73,-420.62"/>
<polygon fill="#63b8ff" stroke="#63b8ff" points="975.79,-424.13 985.79,-420.63 975.79,-417.13 975.79,-424.13"/>
</a>
</g>
</g>
<!-- Node6 -->
<g id="Node000006" class="node">
<title>Node6</title>
<g id="a_Node000006"><a xlink:href="class_logger_manager.html#a32ce9f462269787130bee46b2c34b632" target="_top" xlink:title=" ">
<polygon fill="white" stroke="#666666" points="927.75,-387.25 785,-387.25 785,-368 927.75,-368 927.75,-387.25"/>
<text xml:space="preserve" text-anchor="middle" x="856.38" y="-373.75" font-family="Helvetica,sans-Serif" font-size="10.00">LoggerManager::logDataNow</text>
</a>
</g>
</g>
<!-- Node5&#45;&gt;Node6 -->
<g id="edge5_Node000005_Node000006" class="edge">
<title>Node5&#45;&gt;Node6</title>
<g id="a_edge5_Node000005_Node000006"><a xlink:title=" ">
<path fill="none" stroke="#63b8ff" d="M952.06,-377.62C944.07,-377.62 936.05,-377.62 928.24,-377.62"/>
<polygon fill="#63b8ff" stroke="#63b8ff" points="951.81,-381.13 961.81,-377.63 951.81,-374.13 951.81,-381.13"/>
</a>
</g>
</g>
<!-- Node7 -->
<g id="Node000007" class="node">
<title>Node7</title>
<g id="a_Node000007"><a xlink:href="class_logger_manager.html#a830c86f1f27d3799eab1de908fc6b647" target="_top" xlink:title=" ">
<polygon fill="white" stroke="#666666" points="737,-387.25 619,-387.25 619,-368 737,-368 737,-387.25"/>
<text xml:space="preserve" text-anchor="middle" x="678" y="-373.75" font-family="Helvetica,sans-Serif" font-size="10.00">LoggerManager::update</text>
</a>
</g>
</g>
<!-- Node6&#45;&gt;Node7 -->
<g id="edge6_Node000006_Node000007" class="edge">
<title>Node6&#45;&gt;Node7</title>
<g id="a_edge6_Node000006_Node000007"><a xlink:title=" ">
<path fill="none" stroke="#63b8ff" d="M773.5,-377.62C761.28,-377.62 748.9,-377.62 737.29,-377.62"/>
<polygon fill="#63b8ff" stroke="#63b8ff" points="773.14,-381.13 783.14,-377.63 773.14,-374.13 773.14,-381.13"/>
</a>
</g>
</g>
<!-- Node9 -->
<g id="Node000009" class="node">
<title>Node9</title>
<g id="a_Node000009"><a xlink:href="class_config_manager.html#a0497343220fc493f5cf9574922508908" target="_top" xlink:title="Initialize the configuration system.">
<polygon fill="white" stroke="#666666" points="733.62,-154.25 622.38,-154.25 622.38,-135 733.62,-135 733.62,-154.25"/>
<text xml:space="preserve" text-anchor="middle" x="678" y="-140.75" font-family="Helvetica,sans-Serif" font-size="10.00">ConfigManager::begin</text>
</a>
</g>
</g>
<!-- Node8&#45;&gt;Node9 -->
<g id="edge8_Node000008_Node000009" class="edge">
<title>Node8&#45;&gt;Node9</title>
<g id="a_edge8_Node000008_Node000009"><a xlink:title=" ">
<path fill="none" stroke="#63b8ff" d="M796.08,-169.19C773.65,-164.48 748.42,-159.19 727.14,-154.72"/>
<polygon fill="#63b8ff" stroke="#63b8ff" points="795.19,-172.58 805.7,-171.2 796.63,-165.73 795.19,-172.58"/>
</a>
</g>
</g>
<!-- Node12 -->
<g id="Node000012" class="node">
<title>Node12</title>
<g id="a_Node000012"><a xlink:href="class_temperature_controller.html#a45d13ed72fd36b46820af631e4db958b" target="_top" xlink:title="Display system stats page.">
<polygon fill="white" stroke="#666666" points="913.88,-349.88 798.88,-349.88 798.88,-319.38 913.88,-319.38 913.88,-349.88"/>
<text xml:space="preserve" text-anchor="start" x="806.88" y="-336.38" font-family="Helvetica,sans-Serif" font-size="10.00">TemperatureController</text>
<text xml:space="preserve" text-anchor="middle" x="856.38" y="-325.12" font-family="Helvetica,sans-Serif" font-size="10.00">::_displaySystemStats</text>
</a>
</g>
</g>
<!-- Node11&#45;&gt;Node12 -->
<g id="edge11_Node000011_Node000012" class="edge">
<title>Node11&#45;&gt;Node12</title>
<g id="a_edge11_Node000011_Node000012"><a xlink:title=" ">
<path fill="none" stroke="#63b8ff" d="M974.44,-334.62C954.74,-334.62 933.34,-334.62 914.3,-334.62"/>
<polygon fill="#63b8ff" stroke="#63b8ff" points="974.31,-338.13 984.31,-334.63 974.31,-331.13 974.31,-338.13"/>
</a>
</g>
</g>
<!-- Node18 -->
<g id="Node000018" class="node">
<title>Node18</title>
<g id="a_Node000018"><a xlink:href="class_temperature_controller.html#a4e4770607486ebfc6eacafa704945c23" target="_top" xlink:title="Remove sensor by ROM address string.">
<polygon fill="white" stroke="#666666" points="915.38,-300.88 797.38,-300.88 797.38,-270.38 915.38,-270.38 915.38,-300.88"/>
<text xml:space="preserve" text-anchor="start" x="805.38" y="-287.38" font-family="Helvetica,sans-Serif" font-size="10.00">TemperatureController</text>
<text xml:space="preserve" text-anchor="middle" x="856.38" y="-276.12" font-family="Helvetica,sans-Serif" font-size="10.00">::removeSensorByRom</text>
</a>
</g>
</g>
<!-- Node11&#45;&gt;Node18 -->
<g id="edge18_Node000011_Node000018" class="edge">
<title>Node11&#45;&gt;Node18</title>
<g id="a_edge18_Node000011_Node000018"><a xlink:title=" ">
<path fill="none" stroke="#63b8ff" d="M974.93,-317.02C955.53,-311.84 934.46,-306.21 915.58,-301.17"/>
<polygon fill="#63b8ff" stroke="#63b8ff" points="973.79,-320.33 984.36,-319.53 975.6,-313.57 973.79,-320.33"/>
</a>
</g>
</g>
<!-- Node13 -->
<g id="Node000013" class="node">
<title>Node13</title>
<g id="a_Node000013"><a xlink:href="class_temperature_controller.html#a45f7994a3a052a527981dbfdad27606b" target="_top" xlink:title="Handle system status mode display.">
<polygon fill="white" stroke="#666666" points="749,-349.88 607,-349.88 607,-319.38 749,-319.38 749,-349.88"/>
<text xml:space="preserve" text-anchor="start" x="615" y="-336.38" font-family="Helvetica,sans-Serif" font-size="10.00">TemperatureController</text>
<text xml:space="preserve" text-anchor="middle" x="678" y="-325.12" font-family="Helvetica,sans-Serif" font-size="10.00">::_handleSystemStatusMode</text>
</a>
</g>
</g>
<!-- Node12&#45;&gt;Node13 -->
<g id="edge12_Node000012_Node000013" class="edge">
<title>Node12&#45;&gt;Node13</title>
<g id="a_edge12_Node000012_Node000013"><a xlink:title=" ">
<path fill="none" stroke="#63b8ff" d="M787.33,-334.62C774.85,-334.62 761.81,-334.62 749.27,-334.62"/>
<polygon fill="#63b8ff" stroke="#63b8ff" points="787.08,-338.13 797.08,-334.63 787.08,-331.13 787.08,-338.13"/>
</a>
</g>
</g>
<!-- Node14 -->
<g id="Node000014" class="node">
<title>Node14</title>
<g id="a_Node000014"><a xlink:href="class_temperature_controller.html#a6b2f92b5c2af867240200cff2e61e806" target="_top" xlink:title="Handle display section switching.">
<polygon fill="white" stroke="#666666" points="571,-349.88 444,-349.88 444,-319.38 571,-319.38 571,-349.88"/>
<text xml:space="preserve" text-anchor="start" x="452" y="-336.38" font-family="Helvetica,sans-Serif" font-size="10.00">TemperatureController</text>
<text xml:space="preserve" text-anchor="middle" x="507.5" y="-325.12" font-family="Helvetica,sans-Serif" font-size="10.00">::_handleDisplaySections</text>
</a>
</g>
</g>
<!-- Node13&#45;&gt;Node14 -->
<g id="edge13_Node000013_Node000014" class="edge">
<title>Node13&#45;&gt;Node14</title>
<g id="a_edge13_Node000013_Node000014"><a xlink:title=" ">
<path fill="none" stroke="#63b8ff" d="M595.26,-334.62C587.26,-334.62 579.23,-334.62 571.46,-334.62"/>
<polygon fill="#63b8ff" stroke="#63b8ff" points="595,-338.13 605,-334.63 595,-331.13 595,-338.13"/>
</a>
</g>
</g>
<!-- Node15 -->
<g id="Node000015" class="node">
<title>Node15</title>
<g id="a_Node000015"><a xlink:href="class_temperature_controller.html#a5637103784725fb1a73f6463d7cbfde6" target="_top" xlink:title="Handle alarm display on OLED/LEDs.">
<polygon fill="white" stroke="#666666" points="408,-349.88 296,-349.88 296,-319.38 408,-319.38 408,-349.88"/>
<text xml:space="preserve" text-anchor="start" x="304" y="-336.38" font-family="Helvetica,sans-Serif" font-size="10.00">TemperatureController</text>
<text xml:space="preserve" text-anchor="middle" x="352" y="-325.12" font-family="Helvetica,sans-Serif" font-size="10.00">::handleAlarmDisplay</text>
</a>
</g>
</g>
<!-- Node14&#45;&gt;Node15 -->
<g id="edge14_Node000014_Node000015" class="edge">
<title>Node14&#45;&gt;Node15</title>
<g id="a_edge14_Node000014_Node000015"><a xlink:title=" ">
<path fill="none" stroke="#63b8ff" d="M432.22,-334.62C424.12,-334.62 415.98,-334.62 408.16,-334.62"/>
<polygon fill="#63b8ff" stroke="#63b8ff" points="432.11,-338.13 442.11,-334.63 432.11,-331.13 432.11,-338.13"/>
</a>
</g>
</g>
<!-- Node16 -->
<g id="Node000016" class="node">
<title>Node16</title>
<g id="a_Node000016"><a xlink:href="class_temperature_controller.html#aca5deddbf703001373424d876f87b5f2" target="_top" xlink:title="Main update function &#45; must be called in loop()">
<polygon fill="white" stroke="#666666" points="260,-349.88 148,-349.88 148,-319.38 260,-319.38 260,-349.88"/>
<text xml:space="preserve" text-anchor="start" x="156" y="-336.38" font-family="Helvetica,sans-Serif" font-size="10.00">TemperatureController</text>
<text xml:space="preserve" text-anchor="middle" x="204" y="-325.12" font-family="Helvetica,sans-Serif" font-size="10.00">::update</text>
</a>
</g>
</g>
<!-- Node15&#45;&gt;Node16 -->
<g id="edge15_Node000015_Node000016" class="edge">
<title>Node15&#45;&gt;Node16</title>
<g id="a_edge15_Node000015_Node000016"><a xlink:title=" ">
<path fill="none" stroke="#63b8ff" d="M284.47,-334.62C276.38,-334.62 268.18,-334.62 260.27,-334.62"/>
<polygon fill="#63b8ff" stroke="#63b8ff" points="284.29,-338.13 294.29,-334.63 284.29,-331.13 284.29,-338.13"/>
</a>
</g>
</g>
<!-- Node17 -->
<g id="Node000017" class="node">
<title>Node17</title>
<g id="a_Node000017"><a xlink:href="class_temperature_controller.html#a11948a87fe7df37543b86ecdd488b341" target="_top" xlink:title="Read temperature from all configured measurement points.">
<polygon fill="white" stroke="#666666" points="112,-349.88 0,-349.88 0,-319.38 112,-319.38 112,-349.88"/>
<text xml:space="preserve" text-anchor="start" x="8" y="-336.38" font-family="Helvetica,sans-Serif" font-size="10.00">TemperatureController</text>
<text xml:space="preserve" text-anchor="middle" x="56" y="-325.12" font-family="Helvetica,sans-Serif" font-size="10.00">::readAllPoints</text>
</a>
</g>
</g>
<!-- Node16&#45;&gt;Node17 -->
<g id="edge16_Node000016_Node000017" class="edge">
<title>Node16&#45;&gt;Node17</title>
<g id="a_edge16_Node000016_Node000017"><a xlink:title=" ">
<path fill="none" stroke="#63b8ff" d="M136.47,-327.9C128.38,-327.84 120.18,-327.89 112.27,-328.06"/>
<polygon fill="#63b8ff" stroke="#63b8ff" points="136.24,-331.4 146.29,-328.04 136.34,-324.4 136.24,-331.4"/>
</a>
</g>
</g>
<!-- Node17&#45;&gt;Node16 -->
<g id="edge17_Node000017_Node000016" class="edge">
<title>Node17&#45;&gt;Node16</title>
<g id="a_edge17_Node000017_Node000016"><a xlink:title=" ">
<path fill="none" stroke="#63b8ff" d="M123.61,-341.35C131.7,-341.41 139.9,-341.36 147.8,-341.19"/>
<polygon fill="#63b8ff" stroke="#63b8ff" points="123.84,-337.85 113.79,-341.22 123.74,-344.85 123.84,-337.85"/>
</a>
</g>
</g>
<!-- Node19 -->
<g id="Node000019" class="node">
<title>Node19</title>
<g id="a_Node000019"><a xlink:href="class_temperature_controller.html#a57b74b40c88016965d07248981412f7d" target="_top" xlink:title="Discover DS18B20 sensors on all OneWire buses.">
<polygon fill="white" stroke="#666666" points="746.38,-300.88 609.62,-300.88 609.62,-270.38 746.38,-270.38 746.38,-300.88"/>
<text xml:space="preserve" text-anchor="start" x="617.62" y="-287.38" font-family="Helvetica,sans-Serif" font-size="10.00">TemperatureController</text>
<text xml:space="preserve" text-anchor="middle" x="678" y="-276.12" font-family="Helvetica,sans-Serif" font-size="10.00">::discoverDS18B20Sensors</text>
</a>
</g>
</g>
<!-- Node18&#45;&gt;Node19 -->
<g id="edge19_Node000018_Node000019" class="edge">
<title>Node18&#45;&gt;Node19</title>
<g id="a_edge19_Node000018_Node000019"><a xlink:title=" ">
<path fill="none" stroke="#63b8ff" d="M785.95,-285.62C773.02,-285.62 759.53,-285.62 746.66,-285.62"/>
<polygon fill="#63b8ff" stroke="#63b8ff" points="785.62,-289.13 795.62,-285.63 785.62,-282.13 785.62,-289.13"/>
</a>
</g>
</g>
<!-- Node21&#45;&gt;Node9 -->
<g id="edge22_Node000021_Node000009" class="edge">
<title>Node21&#45;&gt;Node9</title>
<g id="a_edge22_Node000021_Node000009"><a xlink:title=" ">
<path fill="none" stroke="#63b8ff" d="M963.14,-232.69C911.6,-228.39 843.03,-219.4 785,-200.62 750.54,-189.48 713.96,-167.61 694.05,-154.75"/>
<polygon fill="#63b8ff" stroke="#63b8ff" points="962.78,-236.17 973.02,-233.47 963.33,-229.19 962.78,-236.17"/>
</a>
</g>
</g>
<!-- Node22&#45;&gt;Node8 -->
<g id="edge24_Node000022_Node000008" class="edge">
<title>Node22&#45;&gt;Node8</title>
<g id="a_edge24_Node000022_Node000008"><a xlink:title=" ">
<path fill="none" stroke="#63b8ff" d="M980.23,-121.85C974.52,-124.52 968.93,-127.44 963.75,-130.62 945.25,-141.98 946.84,-153.29 927.75,-163.62 921.87,-166.81 915.41,-169.44 908.86,-171.62"/>
<polygon fill="#63b8ff" stroke="#63b8ff" points="981.44,-125.15 989.21,-117.94 978.64,-118.73 981.44,-125.15"/>
</a>
</g>
</g>
<!-- Node23 -->
<g id="Node000023" class="node">
<title>Node23</title>
<g id="a_Node000023"><a xlink:href="class_config_manager.html#a9b7af07b85bf9cc3ac05603db6e89fd2" target="_top" xlink:title="Setup CSV import/export API endpoints.">
<polygon fill="white" stroke="#666666" points="922.12,-67.88 790.62,-67.88 790.62,-37.38 922.12,-37.38 922.12,-67.88"/>
<text xml:space="preserve" text-anchor="start" x="798.62" y="-54.38" font-family="Helvetica,sans-Serif" font-size="10.00">ConfigManager::csvImport</text>
<text xml:space="preserve" text-anchor="middle" x="856.38" y="-43.12" font-family="Helvetica,sans-Serif" font-size="10.00">ExportAPI</text>
</a>
</g>
</g>
<!-- Node22&#45;&gt;Node23 -->
<g id="edge25_Node000022_Node000023" class="edge">
<title>Node22&#45;&gt;Node23</title>
<g id="a_edge25_Node000022_Node000023"><a xlink:title=" ">
<path fill="none" stroke="#63b8ff" d="M970.98,-82.96C952.9,-78.13 933.62,-72.99 916.17,-68.33"/>
<polygon fill="#63b8ff" stroke="#63b8ff" points="970.03,-86.33 980.59,-85.53 971.84,-79.57 970.03,-86.33"/>
</a>
</g>
</g>
<!-- Node24 -->
<g id="Node000024" class="node">
<title>Node24</title>
<g id="a_Node000024"><a xlink:href="class_config_manager.html#a471a844085c27f3a8a8f9394d9c14677" target="_top" xlink:title="Setup measurement points API endpoints.">
<polygon fill="white" stroke="#666666" points="921.75,-19.25 791,-19.25 791,0 921.75,0 921.75,-19.25"/>
<text xml:space="preserve" text-anchor="middle" x="856.38" y="-5.75" font-family="Helvetica,sans-Serif" font-size="10.00">ConfigManager::pointsAPI</text>
</a>
</g>
</g>
<!-- Node22&#45;&gt;Node24 -->
<g id="edge27_Node000022_Node000024" class="edge">
<title>Node22&#45;&gt;Node24</title>
<g id="a_edge27_Node000022_Node000024"><a xlink:title=" ">
<path fill="none" stroke="#63b8ff" d="M970.14,-80.77C967.93,-79.47 965.8,-78.09 963.75,-76.62 942.05,-61.12 949.83,-43.58 927.75,-28.62 922.41,-25 916.4,-22.07 910.2,-19.7"/>
<polygon fill="#63b8ff" stroke="#63b8ff" points="968.34,-83.78 978.83,-85.29 971.57,-77.57 968.34,-83.78"/>
</a>
</g>
</g>
<!-- Node25 -->
<g id="Node000025" class="node">
<title>Node25</title>
<g id="a_Node000025"><a xlink:href="class_config_manager.html#a45b1ce1f09401af0b6f700cf4388b233" target="_top" xlink:title="Setup sensor&#45;related API endpoints.">
<polygon fill="white" stroke="#666666" points="923.25,-154.25 789.5,-154.25 789.5,-135 923.25,-135 923.25,-154.25"/>
<text xml:space="preserve" text-anchor="middle" x="856.38" y="-140.75" font-family="Helvetica,sans-Serif" font-size="10.00">ConfigManager::sensorAPI</text>
</a>
</g>
</g>
<!-- Node22&#45;&gt;Node25 -->
<g id="edge29_Node000022_Node000025" class="edge">
<title>Node22&#45;&gt;Node25</title>
<g id="a_edge29_Node000022_Node000025"><a xlink:title=" ">
<path fill="none" stroke="#63b8ff" d="M962.81,-119.92C941.48,-124.92 919.13,-130.15 900.53,-134.51"/>
<polygon fill="#63b8ff" stroke="#63b8ff" points="963.44,-123.37 972.37,-117.68 961.84,-116.55 963.44,-123.37"/>
</a>
</g>
</g>
<!-- Node26 -->
<g id="Node000026" class="node">
<title>Node26</title>
<g id="a_Node000026"><a xlink:href="class_config_manager.html#a0daf50bbd376beb24a5400a86e893338" target="_top" xlink:title="Update a measurement point in configuration.">
<polygon fill="white" stroke="#666666" points="926.25,-116.88 786.5,-116.88 786.5,-86.38 926.25,-86.38 926.25,-116.88"/>
<text xml:space="preserve" text-anchor="start" x="794.5" y="-103.38" font-family="Helvetica,sans-Serif" font-size="10.00">ConfigManager::updatePoint</text>
<text xml:space="preserve" text-anchor="middle" x="856.38" y="-92.12" font-family="Helvetica,sans-Serif" font-size="10.00">InConfig</text>
</a>
</g>
</g>
<!-- Node22&#45;&gt;Node26 -->
<g id="edge31_Node000022_Node000026" class="edge">
<title>Node22&#45;&gt;Node26</title>
<g id="a_edge31_Node000022_Node000026"><a xlink:title=" ">
<path fill="none" stroke="#63b8ff" d="M961.59,-101.62C949.99,-101.62 938.12,-101.62 926.74,-101.62"/>
<polygon fill="#63b8ff" stroke="#63b8ff" points="961.55,-105.13 971.55,-101.63 961.55,-98.13 961.55,-105.13"/>
</a>
</g>
</g>
<!-- Node23&#45;&gt;Node9 -->
<g id="edge26_Node000023_Node000009" class="edge">
<title>Node23&#45;&gt;Node9</title>
<g id="a_edge26_Node000023_Node000009"><a xlink:title=" ">
<path fill="none" stroke="#63b8ff" d="M796.35,-72.49C792.47,-74.13 788.65,-75.85 785,-77.62 749.95,-94.66 712.09,-120.63 692.49,-134.71"/>
<polygon fill="#63b8ff" stroke="#63b8ff" points="797.34,-75.86 805.31,-68.88 794.73,-69.37 797.34,-75.86"/>
</a>
</g>
</g>
<!-- Node24&#45;&gt;Node9 -->
<g id="edge28_Node000024_Node000009" class="edge">
<title>Node24&#45;&gt;Node9</title>
<g id="a_edge28_Node000024_Node000009"><a xlink:title=" ">
<path fill="none" stroke="#63b8ff" d="M793.76,-23.97C790.73,-25.38 787.79,-26.93 785,-28.62 738.17,-57.15 699.53,-112.39 685.09,-134.81"/>
<polygon fill="#63b8ff" stroke="#63b8ff" points="794.99,-27.25 802.94,-20.24 792.36,-20.76 794.99,-27.25"/>
</a>
</g>
</g>
<!-- Node25&#45;&gt;Node9 -->
<g id="edge30_Node000025_Node000009" class="edge">
<title>Node25&#45;&gt;Node9</title>
<g id="a_edge30_Node000025_Node000009"><a xlink:title=" ">
<path fill="none" stroke="#63b8ff" d="M777.98,-144.62C763.17,-144.62 747.95,-144.62 734.02,-144.62"/>
<polygon fill="#63b8ff" stroke="#63b8ff" points="777.68,-148.13 787.68,-144.63 777.68,-141.13 777.68,-148.13"/>
</a>
</g>
</g>
</g>
</svg>
