<?xml version="1.0" encoding="UTF-8" standalone="no"?>
<!DOCTYPE svg PUBLIC "-//W3C//DTD SVG 1.1//EN"
 "http://www.w3.org/Graphics/SVG/1.1/DTD/svg11.dtd">
<!-- Generated by graphviz version 13.1.0 (20250701.0955)
 -->
<!-- Title: ConfigManager::alarmsAPI Pages: 1 -->
<svg width="550pt" height="737pt"
 viewBox="0.00 0.00 550.00 737.00" xmlns="http://www.w3.org/2000/svg" xmlns:xlink="http://www.w3.org/1999/xlink">
<g id="graph0" class="graph" transform="scale(1 1) rotate(0) translate(4 732.88)">
<title>ConfigManager::alarmsAPI</title>
<!-- Node1 -->
<g id="Node000001" class="node">
<title>Node1</title>
<g id="a_Node000001"><a xlink:title="Setup alarms API endpoints.">
<polygon fill="#999999" stroke="#666666" points="133.75,-414.25 0,-414.25 0,-395 133.75,-395 133.75,-414.25"/>
<text xml:space="preserve" text-anchor="middle" x="66.88" y="-400.75" font-family="Helvetica,sans-Serif" font-size="10.00">ConfigManager::alarmsAPI</text>
</a>
</g>
</g>
<!-- Node2 -->
<g id="Node000002" class="node">
<title>Node2</title>
<g id="a_Node000002"><a xlink:href="class_config_manager.html#a1d2c3a4f6b321f3e55394f0427781f71" target="_top" xlink:title="Get acknowledged delay for critical priority alarms.">
<polygon fill="white" stroke="#666666" points="339.12,-728.88 173.88,-728.88 173.88,-698.38 339.12,-698.38 339.12,-728.88"/>
<text xml:space="preserve" text-anchor="start" x="181.88" y="-715.38" font-family="Helvetica,sans-Serif" font-size="10.00">ConfigManager::getAcknowledged</text>
<text xml:space="preserve" text-anchor="middle" x="256.5" y="-704.12" font-family="Helvetica,sans-Serif" font-size="10.00">DelayCritical</text>
</a>
</g>
</g>
<!-- Node1&#45;&gt;Node2 -->
<g id="edge1_Node000001_Node000002" class="edge">
<title>Node1&#45;&gt;Node2</title>
<g id="a_edge1_Node000001_Node000002"><a xlink:title=" ">
<path fill="none" stroke="#63b8ff" d="M68.34,-414.65C70.78,-455.28 85.44,-609.29 169.75,-688.62 170.83,-689.64 171.95,-690.62 173.1,-691.55"/>
<polygon fill="#63b8ff" stroke="#63b8ff" points="171.06,-694.4 181.3,-697.13 175,-688.61 171.06,-694.4"/>
</a>
</g>
</g>
<!-- Node3 -->
<g id="Node000003" class="node">
<title>Node3</title>
<g id="a_Node000003"><a xlink:href="class_config_manager.html#a92531033b9698550c95e70408d3ca928" target="_top" xlink:title="Get acknowledged delay for high priority alarms.">
<polygon fill="white" stroke="#666666" points="339.12,-679.88 173.88,-679.88 173.88,-649.38 339.12,-649.38 339.12,-679.88"/>
<text xml:space="preserve" text-anchor="start" x="181.88" y="-666.38" font-family="Helvetica,sans-Serif" font-size="10.00">ConfigManager::getAcknowledged</text>
<text xml:space="preserve" text-anchor="middle" x="256.5" y="-655.12" font-family="Helvetica,sans-Serif" font-size="10.00">DelayHigh</text>
</a>
</g>
</g>
<!-- Node1&#45;&gt;Node3 -->
<g id="edge2_Node000001_Node000003" class="edge">
<title>Node1&#45;&gt;Node3</title>
<g id="a_edge2_Node000001_Node000003"><a xlink:title=" ">
<path fill="none" stroke="#63b8ff" d="M69.14,-414.38C74.29,-450.18 97.04,-575.51 169.75,-639.62 171.02,-640.75 172.34,-641.82 173.7,-642.84"/>
<polygon fill="#63b8ff" stroke="#63b8ff" points="171.63,-645.67 181.95,-648.11 175.4,-639.78 171.63,-645.67"/>
</a>
</g>
</g>
<!-- Node4 -->
<g id="Node000004" class="node">
<title>Node4</title>
<g id="a_Node000004"><a xlink:href="class_config_manager.html#a8211fcec922c77f0245ea1eb95be5e4d" target="_top" xlink:title="Get acknowledged delay for low priority alarms.">
<polygon fill="white" stroke="#666666" points="339.12,-630.88 173.88,-630.88 173.88,-600.38 339.12,-600.38 339.12,-630.88"/>
<text xml:space="preserve" text-anchor="start" x="181.88" y="-617.38" font-family="Helvetica,sans-Serif" font-size="10.00">ConfigManager::getAcknowledged</text>
<text xml:space="preserve" text-anchor="middle" x="256.5" y="-606.12" font-family="Helvetica,sans-Serif" font-size="10.00">DelayLow</text>
</a>
</g>
</g>
<!-- Node1&#45;&gt;Node4 -->
<g id="edge3_Node000001_Node000004" class="edge">
<title>Node1&#45;&gt;Node4</title>
<g id="a_edge3_Node000001_Node000004"><a xlink:title=" ">
<path fill="none" stroke="#63b8ff" d="M70.36,-414.45C78.68,-445.36 108.61,-541.52 169.75,-590.62 171.29,-591.86 172.88,-593.03 174.53,-594.15"/>
<polygon fill="#63b8ff" stroke="#63b8ff" points="172.72,-597.15 183.12,-599.17 176.25,-591.1 172.72,-597.15"/>
</a>
</g>
</g>
<!-- Node5 -->
<g id="Node000005" class="node">
<title>Node5</title>
<g id="a_Node000005"><a xlink:href="class_config_manager.html#ae5e8f849e85d0a2779a650136b7011f9" target="_top" xlink:title="Get acknowledged delay for medium priority alarms.">
<polygon fill="white" stroke="#666666" points="339.12,-581.88 173.88,-581.88 173.88,-551.38 339.12,-551.38 339.12,-581.88"/>
<text xml:space="preserve" text-anchor="start" x="181.88" y="-568.38" font-family="Helvetica,sans-Serif" font-size="10.00">ConfigManager::getAcknowledged</text>
<text xml:space="preserve" text-anchor="middle" x="256.5" y="-557.12" font-family="Helvetica,sans-Serif" font-size="10.00">DelayMedium</text>
</a>
</g>
</g>
<!-- Node1&#45;&gt;Node5 -->
<g id="edge4_Node000001_Node000005" class="edge">
<title>Node1&#45;&gt;Node5</title>
<g id="a_edge4_Node000001_Node000005"><a xlink:title=" ">
<path fill="none" stroke="#63b8ff" d="M72.81,-414.58C85.46,-439.13 121.52,-503.07 169.75,-537.62 174.15,-540.78 178.92,-543.61 183.87,-546.14"/>
<polygon fill="#63b8ff" stroke="#63b8ff" points="182.34,-549.29 192.88,-550.31 185.28,-542.93 182.34,-549.29"/>
</a>
</g>
</g>
<!-- Node6 -->
<g id="Node000006" class="node">
<title>Node6</title>
<g id="a_Node000006"><a xlink:href="class_measurement_point.html#a7b74a18d86e0e545264a774aa2c31cad" target="_top" xlink:title="Get measurement point address.">
<polygon fill="white" stroke="#666666" points="537,-585.25 383.75,-585.25 383.75,-566 537,-566 537,-585.25"/>
<text xml:space="preserve" text-anchor="middle" x="460.38" y="-571.75" font-family="Helvetica,sans-Serif" font-size="10.00">MeasurementPoint::getAddress</text>
</a>
</g>
</g>
<!-- Node1&#45;&gt;Node6 -->
<g id="edge5_Node000001_Node000006" class="edge">
<title>Node1&#45;&gt;Node6</title>
<g id="a_edge5_Node000001_Node000006"><a xlink:title=" ">
<path fill="none" stroke="#63b8ff" d="M76,-414.61C91.95,-433.54 129.32,-474.7 169.75,-496.62 239.88,-534.65 267.4,-517.91 343.25,-542.62 359.57,-547.94 362.86,-551.52 379.25,-556.62 386.23,-558.8 393.62,-560.86 400.97,-562.77"/>
<polygon fill="#63b8ff" stroke="#63b8ff" points="400.03,-566.14 410.58,-565.18 401.73,-559.35 400.03,-566.14"/>
</a>
</g>
</g>
<!-- Node7 -->
<g id="Node000007" class="node">
<title>Node7</title>
<g id="a_Node000007"><a xlink:href="class_measurement_point.html#a81c7ae93a9314344967d0f31c6fefe2f" target="_top" xlink:title="Get pointer to bound sensor.">
<polygon fill="white" stroke="#666666" points="532.88,-547.88 387.88,-547.88 387.88,-517.38 532.88,-517.38 532.88,-547.88"/>
<text xml:space="preserve" text-anchor="start" x="395.88" y="-534.38" font-family="Helvetica,sans-Serif" font-size="10.00">MeasurementPoint::getBound</text>
<text xml:space="preserve" text-anchor="middle" x="460.38" y="-523.12" font-family="Helvetica,sans-Serif" font-size="10.00">Sensor</text>
</a>
</g>
</g>
<!-- Node1&#45;&gt;Node7 -->
<g id="edge6_Node000001_Node000007" class="edge">
<title>Node1&#45;&gt;Node7</title>
<g id="a_edge6_Node000001_Node000007"><a xlink:title=" ">
<path fill="none" stroke="#63b8ff" d="M83.52,-414.67C103.02,-426.81 137.72,-447.17 169.75,-459.62 207.33,-474.24 306.13,-498.04 377.91,-514.47"/>
<polygon fill="#63b8ff" stroke="#63b8ff" points="376.73,-517.79 387.26,-516.6 378.29,-510.97 376.73,-517.79"/>
</a>
</g>
</g>
<!-- Node8 -->
<g id="Node000008" class="node">
<title>Node8</title>
<g id="a_Node000008"><a xlink:href="class_measurement_point.html#aceaf14fde40bcd5331e5ea6a07d7dde8" target="_top" xlink:title="Get current temperature.">
<polygon fill="white" stroke="#666666" points="343.25,-160.25 169.75,-160.25 169.75,-141 343.25,-141 343.25,-160.25"/>
<text xml:space="preserve" text-anchor="middle" x="256.5" y="-146.75" font-family="Helvetica,sans-Serif" font-size="10.00">MeasurementPoint::getCurrentTemp</text>
</a>
</g>
</g>
<!-- Node1&#45;&gt;Node8 -->
<g id="edge7_Node000001_Node000008" class="edge">
<title>Node1&#45;&gt;Node8</title>
<g id="a_edge7_Node000001_Node000008"><a xlink:title=" ">
<path fill="none" stroke="#63b8ff" d="M69,-394.71C73.68,-358.35 94.98,-231.32 169.75,-169.62 171.25,-168.39 172.8,-167.23 174.42,-166.14"/>
<polygon fill="#63b8ff" stroke="#63b8ff" points="175.84,-169.36 182.84,-161.41 172.41,-163.26 175.84,-169.36"/>
</a>
</g>
</g>
<!-- Node9 -->
<g id="Node000009" class="node">
<title>Node9</title>
<g id="a_Node000009"><a xlink:href="class_measurement_point.html#a71d6d440240f110cbd80c58bbc47aff6" target="_top" xlink:title="Get high alarm threshold.">
<polygon fill="white" stroke="#666666" points="529.12,-498.88 391.62,-498.88 391.62,-468.38 529.12,-468.38 529.12,-498.88"/>
<text xml:space="preserve" text-anchor="start" x="399.62" y="-485.38" font-family="Helvetica,sans-Serif" font-size="10.00">MeasurementPoint::getHigh</text>
<text xml:space="preserve" text-anchor="middle" x="460.38" y="-474.12" font-family="Helvetica,sans-Serif" font-size="10.00">AlarmThreshold</text>
</a>
</g>
</g>
<!-- Node1&#45;&gt;Node9 -->
<g id="edge8_Node000001_Node000009" class="edge">
<title>Node1&#45;&gt;Node9</title>
<g id="a_edge8_Node000001_Node000009"><a xlink:title=" ">
<path fill="none" stroke="#63b8ff" d="M108.93,-414.73C127.46,-419.18 149.67,-424.35 169.75,-428.62 240.77,-443.73 322.01,-458.98 380.34,-469.58"/>
<polygon fill="#63b8ff" stroke="#63b8ff" points="379.37,-472.96 389.84,-471.3 380.62,-466.07 379.37,-472.96"/>
</a>
</g>
</g>
<!-- Node10 -->
<g id="Node000010" class="node">
<title>Node10</title>
<g id="a_Node000010"><a xlink:href="class_measurement_point.html#a6e538e117d9e22c6998b56519a51d6ba" target="_top" xlink:title="Get low alarm threshold.">
<polygon fill="white" stroke="#666666" points="528,-338.88 392.75,-338.88 392.75,-308.38 528,-308.38 528,-338.88"/>
<text xml:space="preserve" text-anchor="start" x="400.75" y="-325.38" font-family="Helvetica,sans-Serif" font-size="10.00">MeasurementPoint::getLow</text>
<text xml:space="preserve" text-anchor="middle" x="460.38" y="-314.12" font-family="Helvetica,sans-Serif" font-size="10.00">AlarmThreshold</text>
</a>
</g>
</g>
<!-- Node1&#45;&gt;Node10 -->
<g id="edge9_Node000001_Node000010" class="edge">
<title>Node1&#45;&gt;Node10</title>
<g id="a_edge9_Node000001_Node000010"><a xlink:title=" ">
<path fill="none" stroke="#63b8ff" d="M108.94,-394.59C127.48,-390.15 149.68,-384.96 169.75,-380.62 241.28,-365.17 323.12,-349.22 381.52,-338.14"/>
<polygon fill="#63b8ff" stroke="#63b8ff" points="381.85,-341.64 391.02,-336.34 380.55,-334.76 381.85,-341.64"/>
</a>
</g>
</g>
<!-- Node11 -->
<g id="Node000011" class="node">
<title>Node11</title>
<g id="a_Node000011"><a xlink:href="class_measurement_point.html#aa3a80d373c7609c7b178bf7353ffdd7a" target="_top" xlink:title="Get measurement point name.">
<polygon fill="white" stroke="#666666" points="532.12,-290.25 388.62,-290.25 388.62,-271 532.12,-271 532.12,-290.25"/>
<text xml:space="preserve" text-anchor="middle" x="460.38" y="-276.75" font-family="Helvetica,sans-Serif" font-size="10.00">MeasurementPoint::getName</text>
</a>
</g>
</g>
<!-- Node1&#45;&gt;Node11 -->
<g id="edge10_Node000001_Node000011" class="edge">
<title>Node1&#45;&gt;Node11</title>
<g id="a_edge10_Node000001_Node000011"><a xlink:title=" ">
<path fill="none" stroke="#63b8ff" d="M80.6,-394.71C99.15,-380.75 135.19,-355.46 169.75,-341.62 172.44,-340.55 315.63,-310.6 399.63,-293.07"/>
<polygon fill="#63b8ff" stroke="#63b8ff" points="400.27,-296.52 409.34,-291.05 398.84,-289.67 400.27,-296.52"/>
</a>
</g>
</g>
<!-- Node12 -->
<g id="Node000012" class="node">
<title>Node12</title>
<g id="a_Node000012"><a xlink:href="class_config_manager.html#aa15fcaf6330fd73a87e8c6f63e8ab9d5" target="_top" xlink:title="Save alarms configuration to file.">
<polygon fill="white" stroke="#666666" points="326.38,-111.88 186.62,-111.88 186.62,-81.38 326.38,-81.38 326.38,-111.88"/>
<text xml:space="preserve" text-anchor="start" x="194.62" y="-98.38" font-family="Helvetica,sans-Serif" font-size="10.00">ConfigManager::saveAlarms</text>
<text xml:space="preserve" text-anchor="middle" x="256.5" y="-87.12" font-family="Helvetica,sans-Serif" font-size="10.00">Config</text>
</a>
</g>
</g>
<!-- Node1&#45;&gt;Node12 -->
<g id="edge11_Node000001_Node000012" class="edge">
<title>Node1&#45;&gt;Node12</title>
<g id="a_edge11_Node000001_Node000012"><a xlink:title=" ">
<path fill="none" stroke="#63b8ff" d="M68.75,-394.69C72.72,-355.71 92.26,-211.51 169.75,-131.62 175.09,-126.12 181.42,-121.45 188.18,-117.5"/>
<polygon fill="#63b8ff" stroke="#63b8ff" points="189.74,-120.63 196.99,-112.9 186.51,-114.42 189.74,-120.63"/>
</a>
</g>
</g>
<!-- Node18 -->
<g id="Node000018" class="node">
<title>Node18</title>
<g id="a_Node000018"><a xlink:href="class_config_manager.html#a55b79da91c57039c483ddf5fceabbd64" target="_top" xlink:title="Save measurement points configuration to file.">
<polygon fill="white" stroke="#666666" points="324.88,-419.88 188.12,-419.88 188.12,-389.38 324.88,-389.38 324.88,-419.88"/>
<text xml:space="preserve" text-anchor="start" x="196.12" y="-406.38" font-family="Helvetica,sans-Serif" font-size="10.00">ConfigManager::savePoints</text>
<text xml:space="preserve" text-anchor="middle" x="256.5" y="-395.12" font-family="Helvetica,sans-Serif" font-size="10.00">Config</text>
</a>
</g>
</g>
<!-- Node1&#45;&gt;Node18 -->
<g id="edge17_Node000001_Node000018" class="edge">
<title>Node1&#45;&gt;Node18</title>
<g id="a_edge17_Node000001_Node000018"><a xlink:title=" ">
<path fill="none" stroke="#63b8ff" d="M134.02,-404.62C147.76,-404.62 162.37,-404.62 176.51,-404.62"/>
<polygon fill="#63b8ff" stroke="#63b8ff" points="176.22,-408.13 186.22,-404.63 176.22,-401.13 176.22,-408.13"/>
</a>
</g>
</g>
<!-- Node23 -->
<g id="Node000023" class="node">
<title>Node23</title>
<g id="a_Node000023"><a xlink:href="class_measurement_point.html#aefb47fef40f33161be5c6fddf0cf6329" target="_top" xlink:title="Set high alarm threshold.">
<polygon fill="white" stroke="#666666" points="325.25,-208.88 187.75,-208.88 187.75,-178.38 325.25,-178.38 325.25,-208.88"/>
<text xml:space="preserve" text-anchor="start" x="195.75" y="-195.38" font-family="Helvetica,sans-Serif" font-size="10.00">MeasurementPoint::setHigh</text>
<text xml:space="preserve" text-anchor="middle" x="256.5" y="-184.12" font-family="Helvetica,sans-Serif" font-size="10.00">AlarmThreshold</text>
</a>
</g>
</g>
<!-- Node1&#45;&gt;Node23 -->
<g id="edge27_Node000001_Node000023" class="edge">
<title>Node1&#45;&gt;Node23</title>
<g id="a_edge27_Node000001_Node000023"><a xlink:title=" ">
<path fill="none" stroke="#63b8ff" d="M70.36,-394.8C78.68,-363.89 108.61,-267.73 169.75,-218.62 172.16,-216.69 174.72,-214.9 177.38,-213.25"/>
<polygon fill="#63b8ff" stroke="#63b8ff" points="178.93,-216.4 186.09,-208.59 175.62,-210.23 178.93,-216.4"/>
</a>
</g>
</g>
<!-- Node25 -->
<g id="Node000025" class="node">
<title>Node25</title>
<g id="a_Node000025"><a xlink:href="class_measurement_point.html#ac780917beebc11d705824cab8f43b94d" target="_top" xlink:title="Set low alarm threshold.">
<polygon fill="white" stroke="#666666" points="324.12,-257.88 188.88,-257.88 188.88,-227.38 324.12,-227.38 324.12,-257.88"/>
<text xml:space="preserve" text-anchor="start" x="196.88" y="-244.38" font-family="Helvetica,sans-Serif" font-size="10.00">MeasurementPoint::setLow</text>
<text xml:space="preserve" text-anchor="middle" x="256.5" y="-233.12" font-family="Helvetica,sans-Serif" font-size="10.00">AlarmThreshold</text>
</a>
</g>
</g>
<!-- Node1&#45;&gt;Node25 -->
<g id="edge30_Node000001_Node000025" class="edge">
<title>Node1&#45;&gt;Node25</title>
<g id="a_edge30_Node000001_Node000025"><a xlink:title=" ">
<path fill="none" stroke="#63b8ff" d="M72.41,-394.5C84.4,-368.93 119.5,-301.29 169.75,-266.62 172.43,-264.77 175.26,-263.06 178.18,-261.49"/>
<polygon fill="#63b8ff" stroke="#63b8ff" points="179.54,-264.71 187.07,-257.26 176.54,-258.39 179.54,-264.71"/>
</a>
</g>
</g>
<!-- Node26 -->
<g id="Node000026" class="node">
<title>Node26</title>
<g id="a_Node000026"><a xlink:href="class_measurement_point.html#ae3abe83ed3e7979a906c7d753ac9d22d" target="_top" xlink:title="Set measurement point name.">
<polygon fill="white" stroke="#666666" points="328.25,-295.25 184.75,-295.25 184.75,-276 328.25,-276 328.25,-295.25"/>
<text xml:space="preserve" text-anchor="middle" x="256.5" y="-281.75" font-family="Helvetica,sans-Serif" font-size="10.00">MeasurementPoint::setName</text>
</a>
</g>
</g>
<!-- Node1&#45;&gt;Node26 -->
<g id="edge33_Node000001_Node000026" class="edge">
<title>Node1&#45;&gt;Node26</title>
<g id="a_edge33_Node000001_Node000026"><a xlink:title=" ">
<path fill="none" stroke="#63b8ff" d="M75.71,-394.65C91.43,-375.31 128.84,-332.6 169.75,-309.62 177.06,-305.52 185.12,-302.08 193.29,-299.2"/>
<polygon fill="#63b8ff" stroke="#63b8ff" points="194.15,-302.6 202.59,-296.2 192,-295.94 194.15,-302.6"/>
</a>
</g>
</g>
<!-- Node13 -->
<g id="Node000013" class="node">
<title>Node13</title>
<g id="a_Node000013"><a xlink:href="class_alarm.html#a952efd43b6a887659d56815bd5119d60" target="_top" xlink:title="Get the hysteresis value.">
<polygon fill="white" stroke="#666666" points="514.5,-167.25 406.25,-167.25 406.25,-148 514.5,-148 514.5,-167.25"/>
<text xml:space="preserve" text-anchor="middle" x="460.38" y="-153.75" font-family="Helvetica,sans-Serif" font-size="10.00">Alarm::getHysteresis</text>
</a>
</g>
</g>
<!-- Node12&#45;&gt;Node13 -->
<g id="edge12_Node000012_Node000013" class="edge">
<title>Node12&#45;&gt;Node13</title>
<g id="a_edge12_Node000012_Node000013"><a xlink:title=" ">
<path fill="none" stroke="#63b8ff" d="M297.97,-112.28C321.48,-121.02 351.78,-131.72 379.25,-139.62 385.81,-141.51 392.73,-143.33 399.63,-145.02"/>
<polygon fill="#63b8ff" stroke="#63b8ff" points="398.4,-148.33 408.94,-147.24 400.02,-141.52 398.4,-148.33"/>
</a>
</g>
</g>
<!-- Node14 -->
<g id="Node000014" class="node">
<title>Node14</title>
<g id="a_Node000014"><a xlink:href="class_alarm.html#ab12dd2af567dd87228d9404dcce5b0c0" target="_top" xlink:title="Get the measurement point address.">
<polygon fill="white" stroke="#666666" points="520.12,-130.25 400.62,-130.25 400.62,-111 520.12,-111 520.12,-130.25"/>
<text xml:space="preserve" text-anchor="middle" x="460.38" y="-116.75" font-family="Helvetica,sans-Serif" font-size="10.00">Alarm::getPointAddress</text>
</a>
</g>
</g>
<!-- Node12&#45;&gt;Node14 -->
<g id="edge13_Node000012_Node000014" class="edge">
<title>Node12&#45;&gt;Node14</title>
<g id="a_edge13_Node000012_Node000014"><a xlink:title=" ">
<path fill="none" stroke="#63b8ff" d="M326.69,-104.85C346.82,-107.24 368.83,-109.86 389.03,-112.26"/>
<polygon fill="#63b8ff" stroke="#63b8ff" points="388.52,-115.73 398.86,-113.43 389.34,-108.77 388.52,-115.73"/>
</a>
</g>
</g>
<!-- Node15 -->
<g id="Node000015" class="node">
<title>Node15</title>
<g id="a_Node000015"><a xlink:href="class_alarm.html#abe89e376d8cacb582717ad6a65526ee8" target="_top" xlink:title="Get the alarm priority.">
<polygon fill="white" stroke="#666666" points="506.25,-93.25 414.5,-93.25 414.5,-74 506.25,-74 506.25,-93.25"/>
<text xml:space="preserve" text-anchor="middle" x="460.38" y="-79.75" font-family="Helvetica,sans-Serif" font-size="10.00">Alarm::getPriority</text>
</a>
</g>
</g>
<!-- Node12&#45;&gt;Node15 -->
<g id="edge14_Node000012_Node000015" class="edge">
<title>Node12&#45;&gt;Node15</title>
<g id="a_edge14_Node000012_Node000015"><a xlink:title=" ">
<path fill="none" stroke="#63b8ff" d="M326.69,-92.17C351.51,-90.57 379.17,-88.79 402.79,-87.27"/>
<polygon fill="#63b8ff" stroke="#63b8ff" points="402.77,-90.78 412.53,-86.64 402.32,-83.79 402.77,-90.78"/>
</a>
</g>
</g>
<!-- Node16 -->
<g id="Node000016" class="node">
<title>Node16</title>
<g id="a_Node000016"><a xlink:href="class_alarm.html#acfac41af4628d83d3fdcc11c8fb55069" target="_top" xlink:title="Get the alarm type.">
<polygon fill="white" stroke="#666666" points="501.38,-56.25 419.38,-56.25 419.38,-37 501.38,-37 501.38,-56.25"/>
<text xml:space="preserve" text-anchor="middle" x="460.38" y="-42.75" font-family="Helvetica,sans-Serif" font-size="10.00">Alarm::getType</text>
</a>
</g>
</g>
<!-- Node12&#45;&gt;Node16 -->
<g id="edge15_Node000012_Node000016" class="edge">
<title>Node12&#45;&gt;Node16</title>
<g id="a_edge15_Node000012_Node000016"><a xlink:title=" ">
<path fill="none" stroke="#63b8ff" d="M315.6,-80.9C335.72,-75.57 358.44,-69.7 379.25,-64.62 388.51,-62.37 398.4,-60.06 407.95,-57.89"/>
<polygon fill="#63b8ff" stroke="#63b8ff" points="408.5,-61.35 417.48,-55.74 406.96,-54.53 408.5,-61.35"/>
</a>
</g>
</g>
<!-- Node17 -->
<g id="Node000017" class="node">
<title>Node17</title>
<g id="a_Node000017"><a xlink:href="class_alarm.html#ab1d04e5776db50454c72fd0937acdc37" target="_top" xlink:title="Check if alarm is enabled in configuration.">
<polygon fill="white" stroke="#666666" points="505.5,-19.25 415.25,-19.25 415.25,0 505.5,0 505.5,-19.25"/>
<text xml:space="preserve" text-anchor="middle" x="460.38" y="-5.75" font-family="Helvetica,sans-Serif" font-size="10.00">Alarm::isEnabled</text>
</a>
</g>
</g>
<!-- Node12&#45;&gt;Node17 -->
<g id="edge16_Node000012_Node000017" class="edge">
<title>Node12&#45;&gt;Node17</title>
<g id="a_edge16_Node000012_Node000017"><a xlink:title=" ">
<path fill="none" stroke="#63b8ff" d="M280.28,-80.99C304.01,-65.37 342.76,-41.71 379.25,-27.62 387.11,-24.59 395.61,-22 404.04,-19.81"/>
<polygon fill="#63b8ff" stroke="#63b8ff" points="404.65,-23.26 413.55,-17.51 403,-16.46 404.65,-23.26"/>
</a>
</g>
</g>
<!-- Node18&#45;&gt;Node6 -->
<g id="edge18_Node000018_Node000006" class="edge">
<title>Node18&#45;&gt;Node6</title>
<g id="a_edge18_Node000018_Node000006"><a xlink:title=" ">
<path fill="none" stroke="#63b8ff" d="M270.44,-420.16C287.36,-440.54 317.84,-477.51 343.25,-509.62 359.57,-530.26 357.17,-542.32 379.25,-556.62 381.81,-558.28 384.49,-559.79 387.26,-561.17"/>
<polygon fill="#63b8ff" stroke="#63b8ff" points="385.67,-564.3 396.24,-565.02 388.43,-557.87 385.67,-564.3"/>
</a>
</g>
</g>
<!-- Node18&#45;&gt;Node7 -->
<g id="edge19_Node000018_Node000007" class="edge">
<title>Node18&#45;&gt;Node7</title>
<g id="a_edge19_Node000018_Node000007"><a xlink:title=" ">
<path fill="none" stroke="#63b8ff" d="M278.87,-420.18C296.58,-433.34 322.17,-452.97 343.25,-471.62 360.2,-486.62 359.89,-495.92 379.25,-507.62 382,-509.29 384.86,-510.85 387.81,-512.31"/>
<polygon fill="#63b8ff" stroke="#63b8ff" points="386.14,-515.4 396.7,-516.31 389.01,-509.01 386.14,-515.4"/>
</a>
</g>
</g>
<!-- Node18&#45;&gt;Node9 -->
<g id="edge21_Node000018_Node000009" class="edge">
<title>Node18&#45;&gt;Node9</title>
<g id="a_edge21_Node000018_Node000009"><a xlink:title=" ">
<path fill="none" stroke="#63b8ff" d="M312.04,-420.33C322.63,-424.13 333.47,-428.59 343.25,-433.62 360.79,-442.67 361.55,-450.89 379.25,-459.62 382.18,-461.07 385.21,-462.45 388.31,-463.76"/>
<polygon fill="#63b8ff" stroke="#63b8ff" points="387.03,-467.01 397.61,-467.4 389.58,-460.49 387.03,-467.01"/>
</a>
</g>
</g>
<!-- Node18&#45;&gt;Node10 -->
<g id="edge22_Node000018_Node000010" class="edge">
<title>Node18&#45;&gt;Node10</title>
<g id="a_edge22_Node000018_Node000010"><a xlink:title=" ">
<path fill="none" stroke="#63b8ff" d="M312.63,-389.03C323.07,-385.24 333.7,-380.76 343.25,-375.62 361.1,-366.02 361.23,-356.91 379.25,-347.62 382.09,-346.16 385.04,-344.77 388.05,-343.45"/>
<polygon fill="#63b8ff" stroke="#63b8ff" points="389.12,-346.79 397.09,-339.81 386.5,-340.3 389.12,-346.79"/>
</a>
</g>
</g>
<!-- Node18&#45;&gt;Node11 -->
<g id="edge23_Node000018_Node000011" class="edge">
<title>Node18&#45;&gt;Node11</title>
<g id="a_edge23_Node000018_Node000011"><a xlink:title=" ">
<path fill="none" stroke="#63b8ff" d="M279.36,-388.96C297.13,-375.89 322.56,-356.43 343.25,-337.62 360.46,-321.98 359.09,-311.24 379.25,-299.62 382.41,-297.81 385.73,-296.16 389.16,-294.67"/>
<polygon fill="#63b8ff" stroke="#63b8ff" points="390.17,-298.03 398.26,-291.2 387.67,-291.49 390.17,-298.03"/>
</a>
</g>
</g>
<!-- Node19 -->
<g id="Node000019" class="node">
<title>Node19</title>
<g id="a_Node000019"><a xlink:href="class_sensor.html#a9f793cde2918130fbc77dad1aebfe53a" target="_top" xlink:title="Get DS18B20 ROM address as hex string.">
<polygon fill="white" stroke="#666666" points="537.75,-450.25 383,-450.25 383,-431 537.75,-431 537.75,-450.25"/>
<text xml:space="preserve" text-anchor="middle" x="460.38" y="-436.75" font-family="Helvetica,sans-Serif" font-size="10.00">Sensor::getDS18B20RomString</text>
</a>
</g>
</g>
<!-- Node18&#45;&gt;Node19 -->
<g id="edge20_Node000018_Node000019" class="edge">
<title>Node18&#45;&gt;Node19</title>
<g id="a_edge20_Node000018_Node000019"><a xlink:title=" ">
<path fill="none" stroke="#63b8ff" d="M325.28,-416.71C346.64,-420.52 370.23,-424.73 391.59,-428.54"/>
<polygon fill="#63b8ff" stroke="#63b8ff" points="390.92,-431.97 401.38,-430.28 392.15,-425.08 390.92,-431.97"/>
</a>
</g>
</g>
<!-- Node20 -->
<g id="Node000020" class="node">
<title>Node20</title>
<g id="a_Node000020"><a xlink:href="class_sensor.html#a6f57825e90b759ccdb9fe07b3a36953d" target="_top" xlink:title="Get PT1000 chip select pin.">
<polygon fill="white" stroke="#666666" points="541.5,-413.25 379.25,-413.25 379.25,-394 541.5,-394 541.5,-413.25"/>
<text xml:space="preserve" text-anchor="middle" x="460.38" y="-399.75" font-family="Helvetica,sans-Serif" font-size="10.00">Sensor::getPT1000ChipSelectPin</text>
</a>
</g>
</g>
<!-- Node18&#45;&gt;Node20 -->
<g id="edge24_Node000018_Node000020" class="edge">
<title>Node18&#45;&gt;Node20</title>
<g id="a_edge24_Node000018_Node000020"><a xlink:title=" ">
<path fill="none" stroke="#63b8ff" d="M325.28,-404.29C338.84,-404.22 353.3,-404.15 367.51,-404.08"/>
<polygon fill="#63b8ff" stroke="#63b8ff" points="367.34,-407.58 377.32,-404.03 367.3,-400.58 367.34,-407.58"/>
</a>
</g>
</g>
<!-- Node21 -->
<g id="Node000021" class="node">
<title>Node21</title>
<g id="a_Node000021"><a xlink:href="class_sensor.html#a0f6f095e7cfdfffb2a395dfdae7cfa53" target="_top" xlink:title="Get sensor type.">
<polygon fill="white" stroke="#666666" points="504,-376.25 416.75,-376.25 416.75,-357 504,-357 504,-376.25"/>
<text xml:space="preserve" text-anchor="middle" x="460.38" y="-362.75" font-family="Helvetica,sans-Serif" font-size="10.00">Sensor::getType</text>
</a>
</g>
</g>
<!-- Node18&#45;&gt;Node21 -->
<g id="edge25_Node000018_Node000021" class="edge">
<title>Node18&#45;&gt;Node21</title>
<g id="a_edge25_Node000018_Node000021"><a xlink:title=" ">
<path fill="none" stroke="#63b8ff" d="M325.28,-391.87C351.29,-386.97 380.6,-381.45 405.17,-376.83"/>
<polygon fill="#63b8ff" stroke="#63b8ff" points="405.79,-380.27 414.97,-374.98 404.49,-373.39 405.79,-380.27"/>
</a>
</g>
</g>
<!-- Node22 -->
<g id="Node000022" class="node">
<title>Node22</title>
<g id="a_Node000022"><a xlink:href="class_logger_manager.html#a5c1373ccc47f4112b596fe6f84fbbc21" target="_top" xlink:title="Log informational message (static convenience method)">
<polygon fill="white" stroke="#666666" points="512.62,-253.25 408.12,-253.25 408.12,-234 512.62,-234 512.62,-253.25"/>
<text xml:space="preserve" text-anchor="middle" x="460.38" y="-239.75" font-family="Helvetica,sans-Serif" font-size="10.00">LoggerManager::info</text>
</a>
</g>
</g>
<!-- Node18&#45;&gt;Node22 -->
<g id="edge26_Node000018_Node000022" class="edge">
<title>Node18&#45;&gt;Node22</title>
<g id="a_edge26_Node000018_Node000022"><a xlink:title=" ">
<path fill="none" stroke="#63b8ff" d="M270.92,-389.08C287.85,-369.46 317.82,-334.64 343.25,-304.62 359.36,-285.61 357.97,-274.6 379.25,-261.62 384.79,-258.25 390.89,-255.51 397.17,-253.28"/>
<polygon fill="#63b8ff" stroke="#63b8ff" points="397.89,-256.72 406.42,-250.43 395.83,-250.03 397.89,-256.72"/>
</a>
</g>
</g>
<!-- Node23&#45;&gt;Node22 -->
<g id="edge28_Node000023_Node000022" class="edge">
<title>Node23&#45;&gt;Node22</title>
<g id="a_edge28_Node000023_Node000022"><a xlink:title=" ">
<path fill="none" stroke="#63b8ff" d="M318.45,-209.35C337.87,-214.31 359.45,-219.76 379.25,-224.62 387.55,-226.67 396.35,-228.79 404.95,-230.85"/>
<polygon fill="#63b8ff" stroke="#63b8ff" points="404.09,-234.24 414.62,-233.15 405.71,-227.43 404.09,-234.24"/>
</a>
</g>
</g>
<!-- Node24 -->
<g id="Node000024" class="node">
<title>Node24</title>
<g id="a_Node000024"><a xlink:href="class_measurement_point.html#a71995209f2507e6cc15d01607f60767f" target="_top" xlink:title="Update alarm status based on current temperature.">
<polygon fill="white" stroke="#666666" points="526.88,-215.88 393.88,-215.88 393.88,-185.38 526.88,-185.38 526.88,-215.88"/>
<text xml:space="preserve" text-anchor="start" x="401.88" y="-202.38" font-family="Helvetica,sans-Serif" font-size="10.00">MeasurementPoint::update</text>
<text xml:space="preserve" text-anchor="middle" x="460.38" y="-191.12" font-family="Helvetica,sans-Serif" font-size="10.00">AlarmStatus</text>
</a>
</g>
</g>
<!-- Node23&#45;&gt;Node24 -->
<g id="edge29_Node000023_Node000024" class="edge">
<title>Node23&#45;&gt;Node24</title>
<g id="a_edge29_Node000023_Node000024"><a xlink:title=" ">
<path fill="none" stroke="#63b8ff" d="M325.56,-195.99C343.76,-196.62 363.57,-197.3 382.22,-197.95"/>
<polygon fill="#63b8ff" stroke="#63b8ff" points="382.03,-201.45 392.14,-198.29 382.27,-194.45 382.03,-201.45"/>
</a>
</g>
</g>
<!-- Node25&#45;&gt;Node22 -->
<g id="edge31_Node000025_Node000022" class="edge">
<title>Node25&#45;&gt;Node22</title>
<g id="a_edge31_Node000025_Node000022"><a xlink:title=" ">
<path fill="none" stroke="#63b8ff" d="M324.44,-242.96C347.61,-243.07 373.49,-243.2 396.34,-243.31"/>
<polygon fill="#63b8ff" stroke="#63b8ff" points="396.1,-246.81 406.12,-243.36 396.13,-239.81 396.1,-246.81"/>
</a>
</g>
</g>
<!-- Node25&#45;&gt;Node24 -->
<g id="edge32_Node000025_Node000024" class="edge">
<title>Node25&#45;&gt;Node24</title>
<g id="a_edge32_Node000025_Node000024"><a xlink:title=" ">
<path fill="none" stroke="#63b8ff" d="M324.44,-228.7C343.05,-224.83 363.41,-220.59 382.55,-216.61"/>
<polygon fill="#63b8ff" stroke="#63b8ff" points="383.09,-220.07 392.16,-214.61 381.66,-213.22 383.09,-220.07"/>
</a>
</g>
</g>
<!-- Node26&#45;&gt;Node22 -->
<g id="edge34_Node000026_Node000022" class="edge">
<title>Node26&#45;&gt;Node22</title>
<g id="a_edge34_Node000026_Node000022"><a xlink:title=" ">
<path fill="none" stroke="#63b8ff" d="M306.11,-275.51C334.25,-269.66 369.89,-262.24 399.72,-256.04"/>
<polygon fill="#63b8ff" stroke="#63b8ff" points="400.28,-259.5 409.35,-254.03 398.85,-252.64 400.28,-259.5"/>
</a>
</g>
</g>
</g>
</svg>
