<?xml version="1.0" encoding="UTF-8" standalone="no"?>
<!DOCTYPE svg PUBLIC "-//W3C//DTD SVG 1.1//EN"
 "http://www.w3.org/Graphics/SVG/1.1/DTD/svg11.dtd">
<!-- Generated by graphviz version 13.1.0 (20250701.0955)
 -->
<!-- Title: MeasurementPoint::setLowAlarmThreshold Pages: 1 -->
<svg width="312pt" height="76pt"
 viewBox="0.00 0.00 312.00 76.00" xmlns="http://www.w3.org/2000/svg" xmlns:xlink="http://www.w3.org/1999/xlink">
<g id="graph0" class="graph" transform="scale(1 1) rotate(0) translate(4 71.88)">
<title>MeasurementPoint::setLowAlarmThreshold</title>
<!-- Node1 -->
<g id="Node000001" class="node">
<title>Node1</title>
<g id="a_Node000001"><a xlink:title=" ">
<polygon fill="#999999" stroke="#666666" points="135.25,-51.5 0,-51.5 0,-21 135.25,-21 135.25,-51.5"/>
<text xml:space="preserve" text-anchor="start" x="8" y="-38" font-family="Helvetica,sans-Serif" font-size="10.00">MeasurementPoint::setLow</text>
<text xml:space="preserve" text-anchor="middle" x="67.62" y="-26.75" font-family="Helvetica,sans-Serif" font-size="10.00">AlarmThreshold</text>
</a>
</g>
</g>
<!-- Node2 -->
<g id="Node000002" class="node">
<title>Node2</title>
<g id="a_Node000002"><a xlink:href="class_logger_manager.html#a5c1373ccc47f4112b596fe6f84fbbc21" target="_top" xlink:title=" ">
<polygon fill="white" stroke="#666666" points="290,-67.88 185.5,-67.88 185.5,-48.62 290,-48.62 290,-67.88"/>
<text xml:space="preserve" text-anchor="middle" x="237.75" y="-54.38" font-family="Helvetica,sans-Serif" font-size="10.00">LoggerManager::info</text>
</a>
</g>
</g>
<!-- Node1&#45;&gt;Node2 -->
<g id="edge1_Node000001_Node000002" class="edge">
<title>Node1&#45;&gt;Node2</title>
<g id="a_edge1_Node000001_Node000002"><a xlink:title=" ">
<path fill="none" stroke="#63b8ff" d="M135.56,-45.01C148.18,-46.66 161.33,-48.38 173.82,-50.02"/>
<polygon fill="#63b8ff" stroke="#63b8ff" points="173.2,-53.46 183.57,-51.29 174.11,-46.52 173.2,-53.46"/>
</a>
</g>
</g>
<!-- Node3 -->
<g id="Node000003" class="node">
<title>Node3</title>
<g id="a_Node000003"><a xlink:href="class_measurement_point.html#a71995209f2507e6cc15d01607f60767f" target="_top" xlink:title=" ">
<polygon fill="white" stroke="#666666" points="304.25,-30.5 171.25,-30.5 171.25,0 304.25,0 304.25,-30.5"/>
<text xml:space="preserve" text-anchor="start" x="179.25" y="-17" font-family="Helvetica,sans-Serif" font-size="10.00">MeasurementPoint::update</text>
<text xml:space="preserve" text-anchor="middle" x="237.75" y="-5.75" font-family="Helvetica,sans-Serif" font-size="10.00">AlarmStatus</text>
</a>
</g>
</g>
<!-- Node1&#45;&gt;Node3 -->
<g id="edge2_Node000001_Node000003" class="edge">
<title>Node1&#45;&gt;Node3</title>
<g id="a_edge2_Node000001_Node000003"><a xlink:title=" ">
<path fill="none" stroke="#63b8ff" d="M135.56,-27.89C143.46,-26.9 151.58,-25.89 159.61,-24.89"/>
<polygon fill="#63b8ff" stroke="#63b8ff" points="159.88,-28.38 169.37,-23.67 159.01,-21.43 159.88,-28.38"/>
</a>
</g>
</g>
</g>
</svg>
