<?xml version="1.0" encoding="UTF-8" standalone="no"?>
<!DOCTYPE svg PUBLIC "-//W3C//DTD SVG 1.1//EN"
 "http://www.w3.org/Graphics/SVG/1.1/DTD/svg11.dtd">
<!-- Generated by graphviz version 13.1.0 (20250701.0955)
 -->
<!-- Title: RegisterMap::isValidAddress Pages: 1 -->
<svg width="318pt" height="88pt"
 viewBox="0.00 0.00 318.00 88.00" xmlns="http://www.w3.org/2000/svg" xmlns:xlink="http://www.w3.org/1999/xlink">
<g id="graph0" class="graph" transform="scale(1 1) rotate(0) translate(4 83.5)">
<title>RegisterMap::isValidAddress</title>
<!-- Node1 -->
<g id="Node000001" class="node">
<title>Node1</title>
<g id="a_Node000001"><a xlink:title="Check if register address is valid.">
<polygon fill="#999999" stroke="#666666" points="309.5,-48.88 167.5,-48.88 167.5,-29.62 309.5,-29.62 309.5,-48.88"/>
<text xml:space="preserve" text-anchor="middle" x="238.5" y="-35.38" font-family="Helvetica,sans-Serif" font-size="10.00">RegisterMap::isValidAddress</text>
</a>
</g>
</g>
<!-- Node2 -->
<g id="Node000002" class="node">
<title>Node2</title>
<g id="a_Node000002"><a xlink:href="class_register_map.html#a20a6e3648ab58a7d01b387d15b198374" target="_top" xlink:title="Read value from Modbus holding register.">
<polygon fill="white" stroke="#666666" points="130.38,-79.5 1.12,-79.5 1.12,-49 130.38,-49 130.38,-79.5"/>
<text xml:space="preserve" text-anchor="start" x="9.12" y="-66" font-family="Helvetica,sans-Serif" font-size="10.00">RegisterMap::readHolding</text>
<text xml:space="preserve" text-anchor="middle" x="65.75" y="-54.75" font-family="Helvetica,sans-Serif" font-size="10.00">Register</text>
</a>
</g>
</g>
<!-- Node1&#45;&gt;Node2 -->
<g id="edge1_Node000001_Node000002" class="edge">
<title>Node1&#45;&gt;Node2</title>
<g id="a_edge1_Node000001_Node000002"><a xlink:title=" ">
<path fill="none" stroke="#63b8ff" d="M157.31,-50.99C148.39,-52.3 139.4,-53.61 130.72,-54.88"/>
<polygon fill="#63b8ff" stroke="#63b8ff" points="157.66,-54.48 167.04,-49.57 156.64,-47.55 157.66,-54.48"/>
</a>
</g>
</g>
<!-- Node3 -->
<g id="Node000003" class="node">
<title>Node3</title>
<g id="a_Node000003"><a xlink:href="class_register_map.html#a187e2d597d507f0c42da6a6a8d016da2" target="_top" xlink:title="Write value to Modbus holding register.">
<polygon fill="white" stroke="#666666" points="131.5,-30.5 0,-30.5 0,0 131.5,0 131.5,-30.5"/>
<text xml:space="preserve" text-anchor="start" x="8" y="-17" font-family="Helvetica,sans-Serif" font-size="10.00">RegisterMap::writeHolding</text>
<text xml:space="preserve" text-anchor="middle" x="65.75" y="-5.75" font-family="Helvetica,sans-Serif" font-size="10.00">Register</text>
</a>
</g>
</g>
<!-- Node1&#45;&gt;Node3 -->
<g id="edge2_Node000001_Node000003" class="edge">
<title>Node1&#45;&gt;Node3</title>
<g id="a_edge2_Node000001_Node000003"><a xlink:title=" ">
<path fill="none" stroke="#63b8ff" d="M155.76,-27.76C147.73,-26.63 139.65,-25.5 131.82,-24.4"/>
<polygon fill="#63b8ff" stroke="#63b8ff" points="155.17,-31.21 165.56,-29.14 156.15,-24.28 155.17,-31.21"/>
</a>
</g>
</g>
</g>
</svg>
