<?xml version="1.0" encoding="UTF-8" standalone="no"?>
<!DOCTYPE svg PUBLIC "-//W3C//DTD SVG 1.1//EN"
 "http://www.w3.org/Graphics/SVG/1.1/DTD/svg11.dtd">
<!-- Generated by graphviz version 13.1.0 (20250701.0955)
 -->
<!-- Title: IndicatorInterface::setAllOutputsHigh Pages: 1 -->
<svg width="499pt" height="137pt"
 viewBox="0.00 0.00 499.00 137.00" xmlns="http://www.w3.org/2000/svg" xmlns:xlink="http://www.w3.org/1999/xlink">
<g id="graph0" class="graph" transform="scale(1 1) rotate(0) translate(4 132.5)">
<title>IndicatorInterface::setAllOutputsHigh</title>
<!-- Node1 -->
<g id="Node000001" class="node">
<title>Node1</title>
<g id="a_Node000001"><a xlink:title=" ">
<polygon fill="#999999" stroke="#666666" points="101.5,-79.5 0,-79.5 0,-49 101.5,-49 101.5,-79.5"/>
<text xml:space="preserve" text-anchor="start" x="8" y="-66" font-family="Helvetica,sans-Serif" font-size="10.00">IndicatorInterface</text>
<text xml:space="preserve" text-anchor="middle" x="50.75" y="-54.75" font-family="Helvetica,sans-Serif" font-size="10.00">::setAllOutputsHigh</text>
</a>
</g>
</g>
<!-- Node2 -->
<g id="Node000002" class="node">
<title>Node2</title>
<g id="a_Node000002"><a xlink:href="class_indicator_interface.html#a52dd1fa732e288e344fe017f100d6c0d" target="_top" xlink:title=" ">
<polygon fill="white" stroke="#666666" points="229.25,-79.5 137.5,-79.5 137.5,-49 229.25,-49 229.25,-79.5"/>
<text xml:space="preserve" text-anchor="start" x="145.5" y="-66" font-family="Helvetica,sans-Serif" font-size="10.00">IndicatorInterface</text>
<text xml:space="preserve" text-anchor="middle" x="183.38" y="-54.75" font-family="Helvetica,sans-Serif" font-size="10.00">::setAllOutputs</text>
</a>
</g>
</g>
<!-- Node1&#45;&gt;Node2 -->
<g id="edge1_Node000001_Node000002" class="edge">
<title>Node1&#45;&gt;Node2</title>
<g id="a_edge1_Node000001_Node000002"><a xlink:title=" ">
<path fill="none" stroke="#63b8ff" d="M101.88,-64.25C109.71,-64.25 117.85,-64.25 125.81,-64.25"/>
<polygon fill="#63b8ff" stroke="#63b8ff" points="125.78,-67.75 135.78,-64.25 125.78,-60.75 125.78,-67.75"/>
</a>
</g>
</g>
<!-- Node3 -->
<g id="Node000003" class="node">
<title>Node3</title>
<g id="a_Node000003"><a xlink:href="class_indicator_interface.html#a79a3f596138d02404e732cc354b6e78b" target="_top" xlink:title=" ">
<polygon fill="white" stroke="#666666" points="363,-128.5 265.25,-128.5 265.25,-98 363,-98 363,-128.5"/>
<text xml:space="preserve" text-anchor="start" x="273.25" y="-115" font-family="Helvetica,sans-Serif" font-size="10.00">IndicatorInterface</text>
<text xml:space="preserve" text-anchor="middle" x="314.12" y="-103.75" font-family="Helvetica,sans-Serif" font-size="10.00">::_applyModeLogic</text>
</a>
</g>
</g>
<!-- Node2&#45;&gt;Node3 -->
<g id="edge2_Node000002_Node000003" class="edge">
<title>Node2&#45;&gt;Node3</title>
<g id="a_edge2_Node000002_Node000003"><a xlink:title=" ">
<path fill="none" stroke="#63b8ff" d="M225.47,-79.89C236.85,-84.22 249.35,-88.98 261.26,-93.51"/>
<polygon fill="#63b8ff" stroke="#63b8ff" points="259.98,-96.77 270.57,-97.05 262.47,-90.23 259.98,-96.77"/>
</a>
</g>
</g>
<!-- Node5 -->
<g id="Node000005" class="node">
<title>Node5</title>
<g id="a_Node000005"><a xlink:href="class_indicator_interface.html#a850e37bb28d58c3acad37496fa101e64" target="_top" xlink:title=" ">
<polygon fill="white" stroke="#666666" points="360,-79.5 268.25,-79.5 268.25,-49 360,-49 360,-79.5"/>
<text xml:space="preserve" text-anchor="start" x="276.25" y="-66" font-family="Helvetica,sans-Serif" font-size="10.00">IndicatorInterface</text>
<text xml:space="preserve" text-anchor="middle" x="314.12" y="-54.75" font-family="Helvetica,sans-Serif" font-size="10.00">::_writePCF</text>
</a>
</g>
</g>
<!-- Node2&#45;&gt;Node5 -->
<g id="edge4_Node000002_Node000005" class="edge">
<title>Node2&#45;&gt;Node5</title>
<g id="a_edge4_Node000002_Node000005"><a xlink:title=" ">
<path fill="none" stroke="#63b8ff" d="M229.41,-64.25C238.18,-64.25 247.47,-64.25 256.56,-64.25"/>
<polygon fill="#63b8ff" stroke="#63b8ff" points="256.39,-67.75 266.39,-64.25 256.39,-60.75 256.39,-67.75"/>
</a>
</g>
</g>
<!-- Node7 -->
<g id="Node000007" class="node">
<title>Node7</title>
<g id="a_Node000007"><a xlink:href="class_indicator_interface.html#a0a785a20dd66dbe0077d60e779930140" target="_top" xlink:title=" ">
<polygon fill="white" stroke="#666666" points="360,-30.5 268.25,-30.5 268.25,0 360,0 360,-30.5"/>
<text xml:space="preserve" text-anchor="start" x="276.25" y="-17" font-family="Helvetica,sans-Serif" font-size="10.00">IndicatorInterface</text>
<text xml:space="preserve" text-anchor="middle" x="314.12" y="-5.75" font-family="Helvetica,sans-Serif" font-size="10.00">::isOutput</text>
</a>
</g>
</g>
<!-- Node2&#45;&gt;Node7 -->
<g id="edge6_Node000002_Node000007" class="edge">
<title>Node2&#45;&gt;Node7</title>
<g id="a_edge6_Node000002_Node000007"><a xlink:title=" ">
<path fill="none" stroke="#63b8ff" d="M225.47,-48.61C236.85,-44.28 249.35,-39.52 261.26,-34.99"/>
<polygon fill="#63b8ff" stroke="#63b8ff" points="262.47,-38.27 270.57,-31.45 259.98,-31.73 262.47,-38.27"/>
</a>
</g>
</g>
<!-- Node4 -->
<g id="Node000004" class="node">
<title>Node4</title>
<g id="a_Node000004"><a xlink:href="class_indicator_interface.html#a3b900f1de29de5489f19b94b27f4b5c1" target="_top" xlink:title=" ">
<polygon fill="white" stroke="#666666" points="490.75,-128.5 399,-128.5 399,-98 490.75,-98 490.75,-128.5"/>
<text xml:space="preserve" text-anchor="start" x="407" y="-115" font-family="Helvetica,sans-Serif" font-size="10.00">IndicatorInterface</text>
<text xml:space="preserve" text-anchor="middle" x="444.88" y="-103.75" font-family="Helvetica,sans-Serif" font-size="10.00">::isInverted</text>
</a>
</g>
</g>
<!-- Node3&#45;&gt;Node4 -->
<g id="edge3_Node000003_Node000004" class="edge">
<title>Node3&#45;&gt;Node4</title>
<g id="a_edge3_Node000003_Node000004"><a xlink:title=" ">
<path fill="none" stroke="#63b8ff" d="M363.43,-113.25C371.2,-113.25 379.3,-113.25 387.24,-113.25"/>
<polygon fill="#63b8ff" stroke="#63b8ff" points="387.19,-116.75 397.19,-113.25 387.19,-109.75 387.19,-116.75"/>
</a>
</g>
</g>
<!-- Node6 -->
<g id="Node000006" class="node">
<title>Node6</title>
<g id="a_Node000006"><a xlink:href="class_indicator_interface.html#a55da41c64cf3538a8bbb5252dd38b885" target="_top" xlink:title=" ">
<polygon fill="white" stroke="#666666" points="490.75,-79.5 399,-79.5 399,-49 490.75,-49 490.75,-79.5"/>
<text xml:space="preserve" text-anchor="start" x="407" y="-66" font-family="Helvetica,sans-Serif" font-size="10.00">IndicatorInterface</text>
<text xml:space="preserve" text-anchor="middle" x="444.88" y="-54.75" font-family="Helvetica,sans-Serif" font-size="10.00">::_clearInterrupt</text>
</a>
</g>
</g>
<!-- Node5&#45;&gt;Node6 -->
<g id="edge5_Node000005_Node000006" class="edge">
<title>Node5&#45;&gt;Node6</title>
<g id="a_edge5_Node000005_Node000006"><a xlink:title=" ">
<path fill="none" stroke="#63b8ff" d="M360.16,-64.25C368.93,-64.25 378.22,-64.25 387.31,-64.25"/>
<polygon fill="#63b8ff" stroke="#63b8ff" points="387.14,-67.75 397.14,-64.25 387.14,-60.75 387.14,-67.75"/>
</a>
</g>
</g>
</g>
</svg>
