<?xml version="1.0" encoding="UTF-8" standalone="no"?>
<!DOCTYPE svg PUBLIC "-//W3C//DTD SVG 1.1//EN"
 "http://www.w3.org/Graphics/SVG/1.1/DTD/svg11.dtd">
<!-- Generated by graphviz version 13.1.0 (20250701.0955)
 -->
<!-- Title: Alarm::setEnabled Pages: 1 -->
<svg width="248pt" height="64pt"
 viewBox="0.00 0.00 248.00 64.00" xmlns="http://www.w3.org/2000/svg" xmlns:xlink="http://www.w3.org/1999/xlink">
<g id="graph0" class="graph" transform="scale(1 1) rotate(0) translate(4 60.25)">
<title>Alarm::setEnabled</title>
<!-- Node1 -->
<g id="Node000001" class="node">
<title>Node1</title>
<g id="a_Node000001"><a xlink:title="Enable or disable the alarm.">
<polygon fill="#999999" stroke="#666666" points="96.25,-37.25 0,-37.25 0,-18 96.25,-18 96.25,-37.25"/>
<text xml:space="preserve" text-anchor="middle" x="48.12" y="-23.75" font-family="Helvetica,sans-Serif" font-size="10.00">Alarm::setEnabled</text>
</a>
</g>
</g>
<!-- Node2 -->
<g id="Node000002" class="node">
<title>Node2</title>
<g id="a_Node000002"><a xlink:href="class_alarm.html#abd578ec75a5ac9bce00b7ce7207c5d8c" target="_top" xlink:title="Get alarm type as string.">
<polygon fill="white" stroke="#666666" points="239.75,-56.25 132.25,-56.25 132.25,-37 239.75,-37 239.75,-56.25"/>
<text xml:space="preserve" text-anchor="middle" x="186" y="-42.75" font-family="Helvetica,sans-Serif" font-size="10.00">Alarm::getTypeString</text>
</a>
</g>
</g>
<!-- Node1&#45;&gt;Node2 -->
<g id="edge1_Node000001_Node000002" class="edge">
<title>Node1&#45;&gt;Node2</title>
<g id="a_edge1_Node000001_Node000002"><a xlink:title=" ">
<path fill="none" stroke="#63b8ff" d="M96.65,-34.27C104.45,-35.36 112.65,-36.51 120.78,-37.64"/>
<polygon fill="#63b8ff" stroke="#63b8ff" points="120.28,-41.11 130.67,-39.03 121.25,-34.18 120.28,-41.11"/>
</a>
</g>
</g>
<!-- Node3 -->
<g id="Node000003" class="node">
<title>Node3</title>
<g id="a_Node000003"><a xlink:href="class_logger_manager.html#a5c1373ccc47f4112b596fe6f84fbbc21" target="_top" xlink:title="Log informational message (static convenience method)">
<polygon fill="white" stroke="#666666" points="238.25,-19.25 133.75,-19.25 133.75,0 238.25,0 238.25,-19.25"/>
<text xml:space="preserve" text-anchor="middle" x="186" y="-5.75" font-family="Helvetica,sans-Serif" font-size="10.00">LoggerManager::info</text>
</a>
</g>
</g>
<!-- Node1&#45;&gt;Node3 -->
<g id="edge2_Node000001_Node000003" class="edge">
<title>Node1&#45;&gt;Node3</title>
<g id="a_edge2_Node000001_Node000003"><a xlink:title=" ">
<path fill="none" stroke="#63b8ff" d="M96.65,-21.33C104.95,-20.23 113.7,-19.07 122.33,-17.93"/>
<polygon fill="#63b8ff" stroke="#63b8ff" points="122.62,-21.42 132.07,-16.64 121.7,-14.48 122.62,-21.42"/>
</a>
</g>
</g>
</g>
</svg>
