<?xml version="1.0" encoding="UTF-8" standalone="no"?>
<!DOCTYPE svg PUBLIC "-//W3C//DTD SVG 1.1//EN"
 "http://www.w3.org/Graphics/SVG/1.1/DTD/svg11.dtd">
<!-- Generated by graphviz version 13.1.0 (20250701.0955)
 -->
<!-- Title: TimeManager::setTimeFromNTP Pages: 1 -->
<svg width="558pt" height="119pt"
 viewBox="0.00 0.00 558.00 119.00" xmlns="http://www.w3.org/2000/svg" xmlns:xlink="http://www.w3.org/1999/xlink">
<g id="graph0" class="graph" transform="scale(1 1) rotate(0) translate(4 115.25)">
<title>TimeManager::setTimeFromNTP</title>
<!-- Node1 -->
<g id="Node000001" class="node">
<title>Node1</title>
<g id="a_Node000001"><a xlink:title="Set time from NTP server.">
<polygon fill="#999999" stroke="#666666" points="159.25,-74.25 0,-74.25 0,-55 159.25,-55 159.25,-74.25"/>
<text xml:space="preserve" text-anchor="middle" x="79.62" y="-60.75" font-family="Helvetica,sans-Serif" font-size="10.00">TimeManager::setTimeFromNTP</text>
</a>
</g>
</g>
<!-- Node2 -->
<g id="Node000002" class="node">
<title>Node2</title>
<g id="a_Node000002"><a xlink:href="class_time_manager.html#a2160202e65568b360b4bdfbe7ff7ff96" target="_top" xlink:title="Initialize NTP client with current settings.">
<polygon fill="white" stroke="#666666" points="347,-111.25 205,-111.25 205,-92 347,-92 347,-111.25"/>
<text xml:space="preserve" text-anchor="middle" x="276" y="-97.75" font-family="Helvetica,sans-Serif" font-size="10.00">TimeManager::_initializeNTP</text>
</a>
</g>
</g>
<!-- Node1&#45;&gt;Node2 -->
<g id="edge1_Node000001_Node000002" class="edge">
<title>Node1&#45;&gt;Node2</title>
<g id="a_edge1_Node000001_Node000002"><a xlink:title=" ">
<path fill="none" stroke="#63b8ff" d="M133.74,-74.74C157.52,-79.26 185.77,-84.64 210.74,-89.39"/>
<polygon fill="#63b8ff" stroke="#63b8ff" points="209.99,-92.81 220.46,-91.24 211.29,-85.94 209.99,-92.81"/>
</a>
</g>
</g>
<!-- Node3 -->
<g id="Node000003" class="node">
<title>Node3</title>
<g id="a_Node000003"><a xlink:href="class_time_manager.html#a57cb32331258b5e8692ef477657dd318" target="_top" xlink:title="Check if WiFi is connected.">
<polygon fill="white" stroke="#666666" points="356.75,-74.25 195.25,-74.25 195.25,-55 356.75,-55 356.75,-74.25"/>
<text xml:space="preserve" text-anchor="middle" x="276" y="-60.75" font-family="Helvetica,sans-Serif" font-size="10.00">TimeManager::_isWiFiConnected</text>
</a>
</g>
</g>
<!-- Node1&#45;&gt;Node3 -->
<g id="edge2_Node000001_Node000003" class="edge">
<title>Node1&#45;&gt;Node3</title>
<g id="a_edge2_Node000001_Node000003"><a xlink:title=" ">
<path fill="none" stroke="#63b8ff" d="M159.68,-64.62C167.61,-64.62 175.71,-64.62 183.75,-64.62"/>
<polygon fill="#63b8ff" stroke="#63b8ff" points="183.55,-68.13 193.55,-64.63 183.55,-61.13 183.55,-68.13"/>
</a>
</g>
</g>
<!-- Node4 -->
<g id="Node000004" class="node">
<title>Node4</title>
<g id="a_Node000004"><a xlink:href="class_time_manager.html#a06dd5ab29990377c81538d99ba7ccf31" target="_top" xlink:title="Get formatted time string.">
<polygon fill="white" stroke="#666666" points="356.38,-37.25 195.62,-37.25 195.62,-18 356.38,-18 356.38,-37.25"/>
<text xml:space="preserve" text-anchor="middle" x="276" y="-23.75" font-family="Helvetica,sans-Serif" font-size="10.00">TimeManager::getFormattedTime</text>
</a>
</g>
</g>
<!-- Node1&#45;&gt;Node4 -->
<g id="edge3_Node000001_Node000004" class="edge">
<title>Node1&#45;&gt;Node4</title>
<g id="a_edge3_Node000001_Node000004"><a xlink:title=" ">
<path fill="none" stroke="#63b8ff" d="M133.74,-54.51C157.52,-49.99 185.77,-44.61 210.74,-39.86"/>
<polygon fill="#63b8ff" stroke="#63b8ff" points="211.29,-43.31 220.46,-38.01 209.99,-36.44 211.29,-43.31"/>
</a>
</g>
</g>
<!-- Node5 -->
<g id="Node000005" class="node">
<title>Node5</title>
<g id="a_Node000005"><a xlink:href="class_time_manager.html#abcaf17b6da72a3a2f2566d940ce5ce8d" target="_top" xlink:title="Format DateTime according to format string.">
<polygon fill="white" stroke="#666666" points="549.75,-56.25 392.75,-56.25 392.75,-37 549.75,-37 549.75,-56.25"/>
<text xml:space="preserve" text-anchor="middle" x="471.25" y="-42.75" font-family="Helvetica,sans-Serif" font-size="10.00">TimeManager::_formatDateTime</text>
</a>
</g>
</g>
<!-- Node4&#45;&gt;Node5 -->
<g id="edge4_Node000004_Node000005" class="edge">
<title>Node4&#45;&gt;Node5</title>
<g id="a_edge4_Node000004_Node000005"><a xlink:title=" ">
<path fill="none" stroke="#63b8ff" d="M356.72,-35.46C364.7,-36.25 372.85,-37.05 380.92,-37.84"/>
<polygon fill="#63b8ff" stroke="#63b8ff" points="380.47,-41.31 390.77,-38.81 381.16,-34.35 380.47,-41.31"/>
</a>
</g>
</g>
<!-- Node6 -->
<g id="Node000006" class="node">
<title>Node6</title>
<g id="a_Node000006"><a xlink:href="class_time_manager.html#a2667b0243b7db24b3055c2b00e2837ba" target="_top" xlink:title="Get current time from RTC.">
<polygon fill="white" stroke="#666666" points="545.62,-19.25 396.88,-19.25 396.88,0 545.62,0 545.62,-19.25"/>
<text xml:space="preserve" text-anchor="middle" x="471.25" y="-5.75" font-family="Helvetica,sans-Serif" font-size="10.00">TimeManager::getCurrentTime</text>
</a>
</g>
</g>
<!-- Node4&#45;&gt;Node6 -->
<g id="edge5_Node000004_Node000006" class="edge">
<title>Node4&#45;&gt;Node6</title>
<g id="a_edge5_Node000004_Node000006"><a xlink:title=" ">
<path fill="none" stroke="#63b8ff" d="M356.72,-20.2C366.11,-19.33 375.71,-18.43 385.17,-17.55"/>
<polygon fill="#63b8ff" stroke="#63b8ff" points="385.47,-21.04 395.1,-16.62 384.82,-14.07 385.47,-21.04"/>
</a>
</g>
</g>
</g>
</svg>
