<?xml version="1.0" encoding="UTF-8" standalone="no"?>
<!DOCTYPE svg PUBLIC "-//W3C//DTD SVG 1.1//EN"
 "http://www.w3.org/Graphics/SVG/1.1/DTD/svg11.dtd">
<!-- Generated by graphviz version 13.1.0 (20250701.0955)
 -->
<!-- Title: TemperatureController::update Pages: 1 -->
<svg width="1323pt" height="874pt"
 viewBox="0.00 0.00 1323.00 874.00" xmlns="http://www.w3.org/2000/svg" xmlns:xlink="http://www.w3.org/1999/xlink">
<g id="graph0" class="graph" transform="scale(1 1) rotate(0) translate(4 870)">
<title>TemperatureController::update</title>
<!-- Node1 -->
<g id="Node000001" class="node">
<title>Node1</title>
<g id="a_Node000001"><a xlink:title="Main update function &#45; must be called in loop()">
<polygon fill="#999999" stroke="#666666" points="112,-263 0,-263 0,-232.5 112,-232.5 112,-263"/>
<text xml:space="preserve" text-anchor="start" x="8" y="-249.5" font-family="Helvetica,sans-Serif" font-size="10.00">TemperatureController</text>
<text xml:space="preserve" text-anchor="middle" x="56" y="-238.25" font-family="Helvetica,sans-Serif" font-size="10.00">::update</text>
</a>
</g>
</g>
<!-- Node2 -->
<g id="Node000002" class="node">
<title>Node2</title>
<g id="a_Node000002"><a xlink:href="class_temperature_controller.html#a1228b63e95f26c21a8d9c2a27928bc75" target="_top" xlink:title="Check for button press and handle acknowledgment.">
<polygon fill="white" stroke="#666666" points="421.88,-759 309.88,-759 309.88,-728.5 421.88,-728.5 421.88,-759"/>
<text xml:space="preserve" text-anchor="start" x="317.88" y="-745.5" font-family="Helvetica,sans-Serif" font-size="10.00">TemperatureController</text>
<text xml:space="preserve" text-anchor="middle" x="365.88" y="-734.25" font-family="Helvetica,sans-Serif" font-size="10.00">::_checkButtonPress</text>
</a>
</g>
</g>
<!-- Node1&#45;&gt;Node2 -->
<g id="edge1_Node000001_Node000002" class="edge">
<title>Node1&#45;&gt;Node2</title>
<g id="a_edge1_Node000001_Node000002"><a xlink:title=" ">
<path fill="none" stroke="#63b8ff" d="M58.19,-263.31C63.83,-333 90,-615.72 148,-678.75 186.19,-720.25 249.71,-735.65 298.16,-741.17"/>
<polygon fill="#63b8ff" stroke="#63b8ff" points="297.7,-744.64 308,-742.16 298.4,-737.67 297.7,-744.64"/>
</a>
</g>
</g>
<!-- Node5 -->
<g id="Node000005" class="node">
<title>Node5</title>
<g id="a_Node000005"><a xlink:href="class_temperature_controller.html#a5637103784725fb1a73f6463d7cbfde6" target="_top" xlink:title="Handle alarm display on OLED/LEDs.">
<polygon fill="white" stroke="#666666" points="260,-670 148,-670 148,-639.5 260,-639.5 260,-670"/>
<text xml:space="preserve" text-anchor="start" x="156" y="-656.5" font-family="Helvetica,sans-Serif" font-size="10.00">TemperatureController</text>
<text xml:space="preserve" text-anchor="middle" x="204" y="-645.25" font-family="Helvetica,sans-Serif" font-size="10.00">::handleAlarmDisplay</text>
</a>
</g>
</g>
<!-- Node1&#45;&gt;Node5 -->
<g id="edge4_Node000001_Node000005" class="edge">
<title>Node1&#45;&gt;Node5</title>
<g id="a_edge4_Node000001_Node000005"><a xlink:title=" ">
<path fill="none" stroke="#63b8ff" d="M62.63,-263.45C84.77,-325.15 165.89,-551.29 193.63,-628.62"/>
<polygon fill="#63b8ff" stroke="#63b8ff" points="190.28,-629.65 196.95,-637.88 196.87,-627.29 190.28,-629.65"/>
</a>
</g>
</g>
<!-- Node28 -->
<g id="Node000028" class="node">
<title>Node28</title>
<g id="a_Node000028"><a xlink:href="class_temperature_controller.html#a82e4c37ff4121eaf5e00e9c52381e840" target="_top" xlink:title="Handle alarm output signals.">
<polygon fill="white" stroke="#666666" points="260,-312 148,-312 148,-281.5 260,-281.5 260,-312"/>
<text xml:space="preserve" text-anchor="start" x="156" y="-298.5" font-family="Helvetica,sans-Serif" font-size="10.00">TemperatureController</text>
<text xml:space="preserve" text-anchor="middle" x="204" y="-287.25" font-family="Helvetica,sans-Serif" font-size="10.00">::handleAlarmOutputs</text>
</a>
</g>
</g>
<!-- Node1&#45;&gt;Node28 -->
<g id="edge32_Node000001_Node000028" class="edge">
<title>Node1&#45;&gt;Node28</title>
<g id="a_edge32_Node000001_Node000028"><a xlink:title=" ">
<path fill="none" stroke="#63b8ff" d="M103.6,-263.38C116.83,-267.83 131.41,-272.72 145.22,-277.35"/>
<polygon fill="#63b8ff" stroke="#63b8ff" points="144.07,-280.66 154.66,-280.52 146.29,-274.02 144.07,-280.66"/>
</a>
</g>
</g>
<!-- Node30 -->
<g id="Node000030" class="node">
<title>Node30</title>
<g id="a_Node000030"><a xlink:href="class_temperature_controller.html#a11948a87fe7df37543b86ecdd488b341" target="_top" xlink:title="Read temperature from all configured measurement points.">
<polygon fill="white" stroke="#666666" points="260,-263 148,-263 148,-232.5 260,-232.5 260,-263"/>
<text xml:space="preserve" text-anchor="start" x="156" y="-249.5" font-family="Helvetica,sans-Serif" font-size="10.00">TemperatureController</text>
<text xml:space="preserve" text-anchor="middle" x="204" y="-238.25" font-family="Helvetica,sans-Serif" font-size="10.00">::readAllPoints</text>
</a>
</g>
</g>
<!-- Node1&#45;&gt;Node30 -->
<g id="edge35_Node000001_Node000030" class="edge">
<title>Node1&#45;&gt;Node30</title>
<g id="a_edge35_Node000001_Node000030"><a xlink:title=" ">
<path fill="none" stroke="#63b8ff" d="M112.2,-241.18C120.1,-241.01 128.3,-240.96 136.39,-241.02"/>
<polygon fill="#63b8ff" stroke="#63b8ff" points="136.16,-244.52 146.21,-241.16 136.26,-237.52 136.16,-244.52"/>
</a>
</g>
</g>
<!-- Node31 -->
<g id="Node000031" class="node">
<title>Node31</title>
<g id="a_Node000031"><a xlink:href="class_temperature_controller.html#a5ac8af90de5dfd79a9a2e4c7270a98a3" target="_top" xlink:title="Update alarm states for all measurement points.">
<polygon fill="white" stroke="#666666" points="260,-214 148,-214 148,-183.5 260,-183.5 260,-214"/>
<text xml:space="preserve" text-anchor="start" x="156" y="-200.5" font-family="Helvetica,sans-Serif" font-size="10.00">TemperatureController</text>
<text xml:space="preserve" text-anchor="middle" x="204" y="-189.25" font-family="Helvetica,sans-Serif" font-size="10.00">::updateAlarms</text>
</a>
</g>
</g>
<!-- Node1&#45;&gt;Node31 -->
<g id="edge37_Node000001_Node000031" class="edge">
<title>Node1&#45;&gt;Node31</title>
<g id="a_edge37_Node000001_Node000031"><a xlink:title=" ">
<path fill="none" stroke="#63b8ff" d="M103.6,-232.11C116.83,-227.67 131.41,-222.77 145.22,-218.14"/>
<polygon fill="#63b8ff" stroke="#63b8ff" points="146.29,-221.47 154.66,-214.97 144.07,-214.83 146.29,-221.47"/>
</a>
</g>
</g>
<!-- Node32 -->
<g id="Node000032" class="node">
<title>Node32</title>
<g id="a_Node000032"><a xlink:href="class_temperature_controller.html#a23dca296a268baa9b8234c8bf9cf0c3e" target="_top" xlink:title="Update temperature readings for all sensors.">
<polygon fill="white" stroke="#666666" points="260,-96 148,-96 148,-65.5 260,-65.5 260,-96"/>
<text xml:space="preserve" text-anchor="start" x="156" y="-82.5" font-family="Helvetica,sans-Serif" font-size="10.00">TemperatureController</text>
<text xml:space="preserve" text-anchor="middle" x="204" y="-71.25" font-family="Helvetica,sans-Serif" font-size="10.00">::updateAllSensors</text>
</a>
</g>
</g>
<!-- Node1&#45;&gt;Node32 -->
<g id="edge38_Node000001_Node000032" class="edge">
<title>Node1&#45;&gt;Node32</title>
<g id="a_edge38_Node000001_Node000032"><a xlink:title=" ">
<path fill="none" stroke="#63b8ff" d="M66.83,-232.17C82.44,-208.02 114.58,-160.7 148,-125.75 155.51,-117.89 164.37,-110.11 172.76,-103.28"/>
<polygon fill="#63b8ff" stroke="#63b8ff" points="174.73,-106.18 180.4,-97.23 170.39,-100.69 174.73,-106.18"/>
</a>
</g>
</g>
<!-- Node38 -->
<g id="Node000038" class="node">
<title>Node38</title>
<g id="a_Node000038"><a xlink:href="class_temperature_controller.html#a62b93899a3b8b55e2e0bd933520c2892" target="_top" xlink:title="Update register map with current values from measurement points.">
<polygon fill="white" stroke="#666666" points="260,-165 148,-165 148,-134.5 260,-134.5 260,-165"/>
<text xml:space="preserve" text-anchor="start" x="156" y="-151.5" font-family="Helvetica,sans-Serif" font-size="10.00">TemperatureController</text>
<text xml:space="preserve" text-anchor="middle" x="204" y="-140.25" font-family="Helvetica,sans-Serif" font-size="10.00">::updateRegisterMap</text>
</a>
</g>
</g>
<!-- Node1&#45;&gt;Node38 -->
<g id="edge44_Node000001_Node000038" class="edge">
<title>Node1&#45;&gt;Node38</title>
<g id="a_edge44_Node000001_Node000038"><a xlink:title=" ">
<path fill="none" stroke="#63b8ff" d="M73.82,-232.11C91.39,-216.3 120.22,-191.83 148,-174.75 150.26,-173.36 152.61,-172 155.02,-170.67"/>
<polygon fill="#63b8ff" stroke="#63b8ff" points="156.45,-173.87 163.73,-166.17 153.24,-167.65 156.45,-173.87"/>
</a>
</g>
</g>
<!-- Node3 -->
<g id="Node000003" class="node">
<title>Node3</title>
<g id="a_Node000003"><a xlink:href="class_temperature_controller.html#ac44de0834e13cec755e247ce1df21f09" target="_top" xlink:title="Display next acknowledged alarm.">
<polygon fill="white" stroke="#666666" points="838.25,-866 670,-866 670,-835.5 838.25,-835.5 838.25,-866"/>
<text xml:space="preserve" text-anchor="start" x="678" y="-852.5" font-family="Helvetica,sans-Serif" font-size="10.00">TemperatureController</text>
<text xml:space="preserve" text-anchor="middle" x="754.12" y="-841.25" font-family="Helvetica,sans-Serif" font-size="10.00">::_displayNextAcknowledgedAlarm</text>
</a>
</g>
</g>
<!-- Node2&#45;&gt;Node3 -->
<g id="edge2_Node000002_Node000003" class="edge">
<title>Node2&#45;&gt;Node3</title>
<g id="a_edge2_Node000002_Node000003"><a xlink:title=" ">
<path fill="none" stroke="#63b8ff" d="M395.02,-759.5C415.7,-770.48 444.77,-784.74 471.75,-793.75 532.45,-814.02 603.05,-828.3 658.34,-837.49"/>
<polygon fill="#63b8ff" stroke="#63b8ff" points="657.62,-840.92 668.05,-839.08 658.75,-834.01 657.62,-840.92"/>
</a>
</g>
</g>
<!-- Node4 -->
<g id="Node000004" class="node">
<title>Node4</title>
<g id="a_Node000004"><a xlink:href="class_temperature_controller.html#a3955f205bc33dda762cbe5c572cd4f21" target="_top" xlink:title="Switch to a new display section.">
<polygon fill="white" stroke="#666666" points="810.12,-817 698.12,-817 698.12,-786.5 810.12,-786.5 810.12,-817"/>
<text xml:space="preserve" text-anchor="start" x="706.12" y="-803.5" font-family="Helvetica,sans-Serif" font-size="10.00">TemperatureController</text>
<text xml:space="preserve" text-anchor="middle" x="754.12" y="-792.25" font-family="Helvetica,sans-Serif" font-size="10.00">::_switchToSection</text>
</a>
</g>
</g>
<!-- Node2&#45;&gt;Node4 -->
<g id="edge3_Node000002_Node000004" class="edge">
<title>Node2&#45;&gt;Node4</title>
<g id="a_edge3_Node000002_Node000004"><a xlink:title=" ">
<path fill="none" stroke="#63b8ff" d="M422.14,-758.2C438.07,-762.02 455.53,-765.87 471.75,-768.75 544.7,-781.67 629.21,-790.81 686.43,-796.15"/>
<polygon fill="#63b8ff" stroke="#63b8ff" points="686.07,-799.63 696.34,-797.06 686.71,-792.66 686.07,-799.63"/>
</a>
</g>
</g>
<!-- Node5&#45;&gt;Node2 -->
<g id="edge5_Node000005_Node000002" class="edge">
<title>Node5&#45;&gt;Node2</title>
<g id="a_edge5_Node000005_Node000002"><a xlink:title=" ">
<path fill="none" stroke="#63b8ff" d="M233.21,-670.45C259.28,-684.96 298.19,-706.62 326.96,-722.64"/>
<polygon fill="#63b8ff" stroke="#63b8ff" points="324.91,-725.51 335.35,-727.31 328.32,-719.39 324.91,-725.51"/>
</a>
</g>
</g>
<!-- Node6 -->
<g id="Node000006" class="node">
<title>Node6</title>
<g id="a_Node000006"><a xlink:href="class_temperature_controller.html#a6b2f92b5c2af867240200cff2e61e806" target="_top" xlink:title="Handle display section switching.">
<polygon fill="white" stroke="#666666" points="429.38,-670 302.38,-670 302.38,-639.5 429.38,-639.5 429.38,-670"/>
<text xml:space="preserve" text-anchor="start" x="310.38" y="-656.5" font-family="Helvetica,sans-Serif" font-size="10.00">TemperatureController</text>
<text xml:space="preserve" text-anchor="middle" x="365.88" y="-645.25" font-family="Helvetica,sans-Serif" font-size="10.00">::_handleDisplaySections</text>
</a>
</g>
</g>
<!-- Node5&#45;&gt;Node6 -->
<g id="edge6_Node000005_Node000006" class="edge">
<title>Node5&#45;&gt;Node6</title>
<g id="a_edge6_Node000005_Node000006"><a xlink:title=" ">
<path fill="none" stroke="#63b8ff" d="M260.47,-654.75C270.23,-654.75 280.53,-654.75 290.71,-654.75"/>
<polygon fill="#63b8ff" stroke="#63b8ff" points="290.6,-658.25 300.6,-654.75 290.6,-651.25 290.6,-658.25"/>
</a>
</g>
</g>
<!-- Node6&#45;&gt;Node4 -->
<g id="edge27_Node000006_Node000004" class="edge">
<title>Node6&#45;&gt;Node4</title>
<g id="a_edge27_Node000006_Node000004"><a xlink:title=" ">
<path fill="none" stroke="#63b8ff" d="M384.95,-670.41C404.92,-686.94 438.65,-712.65 471.75,-727.75 539.43,-758.6 562.1,-749.71 634,-768.75 651.1,-773.28 669.54,-778.31 686.69,-783.05"/>
<polygon fill="#63b8ff" stroke="#63b8ff" points="685.71,-786.42 696.28,-785.72 687.58,-779.67 685.71,-786.42"/>
</a>
</g>
</g>
<!-- Node7 -->
<g id="Node000007" class="node">
<title>Node7</title>
<g id="a_Node000007"><a xlink:href="class_temperature_controller.html#a1d2745c323f7094beac8f406825499b7" target="_top" xlink:title="Handle alarm display rotation timing.">
<polygon fill="white" stroke="#666666" points="628.38,-719 477.38,-719 477.38,-688.5 628.38,-688.5 628.38,-719"/>
<text xml:space="preserve" text-anchor="start" x="485.38" y="-705.5" font-family="Helvetica,sans-Serif" font-size="10.00">TemperatureController</text>
<text xml:space="preserve" text-anchor="middle" x="552.88" y="-694.25" font-family="Helvetica,sans-Serif" font-size="10.00">::_handleAlarmDisplayRotation</text>
</a>
</g>
</g>
<!-- Node6&#45;&gt;Node7 -->
<g id="edge7_Node000006_Node000007" class="edge">
<title>Node6&#45;&gt;Node7</title>
<g id="a_edge7_Node000006_Node000007"><a xlink:title=" ">
<path fill="none" stroke="#63b8ff" d="M426.17,-670.45C443.85,-675.13 463.39,-680.31 481.69,-685.16"/>
<polygon fill="#63b8ff" stroke="#63b8ff" points="480.57,-688.48 491.13,-687.66 482.36,-681.71 480.57,-688.48"/>
</a>
</g>
</g>
<!-- Node10 -->
<g id="Node000010" class="node">
<title>Node10</title>
<g id="a_Node000010"><a xlink:href="class_temperature_controller.html#a4d36576f7d6ab8f5222a082878314912" target="_top" xlink:title="Update normal temperature display.">
<polygon fill="white" stroke="#666666" points="814.62,-670 693.62,-670 693.62,-639.5 814.62,-639.5 814.62,-670"/>
<text xml:space="preserve" text-anchor="start" x="701.62" y="-656.5" font-family="Helvetica,sans-Serif" font-size="10.00">TemperatureController</text>
<text xml:space="preserve" text-anchor="middle" x="754.12" y="-645.25" font-family="Helvetica,sans-Serif" font-size="10.00">::_updateNormalDisplay</text>
</a>
</g>
</g>
<!-- Node6&#45;&gt;Node10 -->
<g id="edge31_Node000006_Node000010" class="edge">
<title>Node6&#45;&gt;Node10</title>
<g id="a_edge31_Node000006_Node000010"><a xlink:title=" ">
<path fill="none" stroke="#63b8ff" d="M429.79,-654.75C498.99,-654.75 609.92,-654.75 682.16,-654.75"/>
<polygon fill="#63b8ff" stroke="#63b8ff" points="681.9,-658.25 691.9,-654.75 681.9,-651.25 681.9,-658.25"/>
</a>
</g>
</g>
<!-- Node11 -->
<g id="Node000011" class="node">
<title>Node11</title>
<g id="a_Node000011"><a xlink:href="class_temperature_controller.html#a45f7994a3a052a527981dbfdad27606b" target="_top" xlink:title="Handle system status mode display.">
<polygon fill="white" stroke="#666666" points="623.88,-572 481.88,-572 481.88,-541.5 623.88,-541.5 623.88,-572"/>
<text xml:space="preserve" text-anchor="start" x="489.88" y="-558.5" font-family="Helvetica,sans-Serif" font-size="10.00">TemperatureController</text>
<text xml:space="preserve" text-anchor="middle" x="552.88" y="-547.25" font-family="Helvetica,sans-Serif" font-size="10.00">::_handleSystemStatusMode</text>
</a>
</g>
</g>
<!-- Node6&#45;&gt;Node11 -->
<g id="edge12_Node000006_Node000011" class="edge">
<title>Node6&#45;&gt;Node11</title>
<g id="a_edge12_Node000006_Node000011"><a xlink:title=" ">
<path fill="none" stroke="#63b8ff" d="M396.6,-639C428.02,-622.36 477.74,-596.02 512.43,-577.64"/>
<polygon fill="#63b8ff" stroke="#63b8ff" points="513.69,-580.94 520.89,-573.16 510.41,-574.75 513.69,-580.94"/>
</a>
</g>
</g>
<!-- Node25 -->
<g id="Node000025" class="node">
<title>Node25</title>
<g id="a_Node000025"><a xlink:href="class_temperature_controller.html#a477597992aa9362076843f37b648741a" target="_top" xlink:title="Update alarm display queues.">
<polygon fill="white" stroke="#666666" points="610.75,-376 495,-376 495,-345.5 610.75,-345.5 610.75,-376"/>
<text xml:space="preserve" text-anchor="start" x="503" y="-362.5" font-family="Helvetica,sans-Serif" font-size="10.00">TemperatureController</text>
<text xml:space="preserve" text-anchor="middle" x="552.88" y="-351.25" font-family="Helvetica,sans-Serif" font-size="10.00">::_updateAlarmQueues</text>
</a>
</g>
</g>
<!-- Node6&#45;&gt;Node25 -->
<g id="edge28_Node000006_Node000025" class="edge">
<title>Node6&#45;&gt;Node25</title>
<g id="a_edge28_Node000006_Node000025"><a xlink:title=" ">
<path fill="none" stroke="#63b8ff" d="M376.56,-639.35C406.65,-591.54 498.71,-445.24 535.97,-386.03"/>
<polygon fill="#63b8ff" stroke="#63b8ff" points="538.89,-387.95 541.26,-377.62 532.97,-384.22 538.89,-387.95"/>
</a>
</g>
</g>
<!-- Node7&#45;&gt;Node3 -->
<g id="edge8_Node000007_Node000003" class="edge">
<title>Node7&#45;&gt;Node3</title>
<g id="a_edge8_Node000007_Node000003"><a xlink:title=" ">
<path fill="none" stroke="#63b8ff" d="M564.48,-719.32C582.92,-745.21 623.41,-797.11 670,-825.75 672.62,-827.36 675.35,-828.87 678.15,-830.29"/>
<polygon fill="#63b8ff" stroke="#63b8ff" points="676.65,-833.45 687.2,-834.4 679.55,-827.08 676.65,-833.45"/>
</a>
</g>
</g>
<!-- Node8 -->
<g id="Node000008" class="node">
<title>Node8</title>
<g id="a_Node000008"><a xlink:href="class_temperature_controller.html#a7ca5124357f98bcd52316cf017341b09" target="_top" xlink:title="Display next active alarm in rotation.">
<polygon fill="white" stroke="#666666" points="820.25,-768 688,-768 688,-737.5 820.25,-737.5 820.25,-768"/>
<text xml:space="preserve" text-anchor="start" x="696" y="-754.5" font-family="Helvetica,sans-Serif" font-size="10.00">TemperatureController</text>
<text xml:space="preserve" text-anchor="middle" x="754.12" y="-743.25" font-family="Helvetica,sans-Serif" font-size="10.00">::_displayNextActiveAlarm</text>
</a>
</g>
</g>
<!-- Node7&#45;&gt;Node8 -->
<g id="edge9_Node000007_Node000008" class="edge">
<title>Node7&#45;&gt;Node8</title>
<g id="a_edge9_Node000007_Node000008"><a xlink:title=" ">
<path fill="none" stroke="#63b8ff" d="M617.74,-719.45C637.05,-724.2 658.42,-729.46 678.36,-734.36"/>
<polygon fill="#63b8ff" stroke="#63b8ff" points="677.26,-737.69 687.81,-736.68 678.93,-730.9 677.26,-737.69"/>
</a>
</g>
</g>
<!-- Node9 -->
<g id="Node000009" class="node">
<title>Node9</title>
<g id="a_Node000009"><a xlink:href="class_temperature_controller.html#a28e81945f5235e161e6c532b428d36d2" target="_top" xlink:title="Show OK status and turn off OLED after delay.">
<polygon fill="white" stroke="#666666" points="825.12,-719 683.12,-719 683.12,-688.5 825.12,-688.5 825.12,-719"/>
<text xml:space="preserve" text-anchor="start" x="691.12" y="-705.5" font-family="Helvetica,sans-Serif" font-size="10.00">TemperatureController</text>
<text xml:space="preserve" text-anchor="middle" x="754.12" y="-694.25" font-family="Helvetica,sans-Serif" font-size="10.00">::_showOKAndTurnOffOLED</text>
</a>
</g>
</g>
<!-- Node7&#45;&gt;Node9 -->
<g id="edge10_Node000007_Node000009" class="edge">
<title>Node7&#45;&gt;Node9</title>
<g id="a_edge10_Node000007_Node000009"><a xlink:title=" ">
<path fill="none" stroke="#63b8ff" d="M628.64,-703.75C642.66,-703.75 657.39,-703.75 671.62,-703.75"/>
<polygon fill="#63b8ff" stroke="#63b8ff" points="671.38,-707.25 681.38,-703.75 671.38,-700.25 671.38,-707.25"/>
</a>
</g>
</g>
<!-- Node7&#45;&gt;Node10 -->
<g id="edge11_Node000007_Node000010" class="edge">
<title>Node7&#45;&gt;Node10</title>
<g id="a_edge11_Node000007_Node000010"><a xlink:title=" ">
<path fill="none" stroke="#63b8ff" d="M617.74,-688.04C638.29,-682.99 661.19,-677.36 682.21,-672.19"/>
<polygon fill="#63b8ff" stroke="#63b8ff" points="683,-675.6 691.87,-669.81 681.33,-668.8 683,-675.6"/>
</a>
</g>
</g>
<!-- Node11&#45;&gt;Node4 -->
<g id="edge26_Node000011_Node000004" class="edge">
<title>Node11&#45;&gt;Node4</title>
<g id="a_edge26_Node000011_Node000004"><a xlink:title=" ">
<path fill="none" stroke="#63b8ff" d="M565.69,-572.38C582.49,-595.1 613.49,-639 634,-679.75 654.68,-720.82 636.47,-745.27 670,-776.75 675.12,-781.55 681.13,-785.44 687.54,-788.58"/>
<polygon fill="#63b8ff" stroke="#63b8ff" points="685.89,-791.68 696.46,-792.33 688.6,-785.23 685.89,-791.68"/>
</a>
</g>
</g>
<!-- Node12 -->
<g id="Node000012" class="node">
<title>Node12</title>
<g id="a_Node000012"><a xlink:href="class_temperature_controller.html#a3948ceaf046b5f06afcc9083433f532c" target="_top" xlink:title="Display alarm summary by priority.">
<polygon fill="white" stroke="#666666" points="838.25,-425 670,-425 670,-394.5 838.25,-394.5 838.25,-425"/>
<text xml:space="preserve" text-anchor="start" x="678" y="-411.5" font-family="Helvetica,sans-Serif" font-size="10.00">TemperatureController</text>
<text xml:space="preserve" text-anchor="middle" x="754.12" y="-400.25" font-family="Helvetica,sans-Serif" font-size="10.00">::_displayAlarmSummaryByPriority</text>
</a>
</g>
</g>
<!-- Node11&#45;&gt;Node12 -->
<g id="edge13_Node000011_Node000012" class="edge">
<title>Node11&#45;&gt;Node12</title>
<g id="a_edge13_Node000011_Node000012"><a xlink:title=" ">
<path fill="none" stroke="#63b8ff" d="M564.48,-541.18C582.92,-515.28 623.41,-463.38 670,-434.75 672.62,-433.14 675.35,-431.63 678.15,-430.21"/>
<polygon fill="#63b8ff" stroke="#63b8ff" points="679.55,-433.42 687.2,-426.09 676.65,-427.05 679.55,-433.42"/>
</a>
</g>
</g>
<!-- Node14 -->
<g id="Node000014" class="node">
<title>Node14</title>
<g id="a_Node000014"><a xlink:href="class_temperature_controller.html#ab5e076b045677678390603e9a805e4db" target="_top" xlink:title="Display alarm summary by type.">
<polygon fill="white" stroke="#666666" points="833.38,-572 674.88,-572 674.88,-541.5 833.38,-541.5 833.38,-572"/>
<text xml:space="preserve" text-anchor="start" x="682.88" y="-558.5" font-family="Helvetica,sans-Serif" font-size="10.00">TemperatureController</text>
<text xml:space="preserve" text-anchor="middle" x="754.12" y="-547.25" font-family="Helvetica,sans-Serif" font-size="10.00">::_displayAlarmSummaryByType</text>
</a>
</g>
</g>
<!-- Node11&#45;&gt;Node14 -->
<g id="edge15_Node000011_Node000014" class="edge">
<title>Node11&#45;&gt;Node14</title>
<g id="a_edge15_Node000011_Node000014"><a xlink:title=" ">
<path fill="none" stroke="#63b8ff" d="M624.12,-556.75C636.78,-556.75 650.12,-556.75 663.24,-556.75"/>
<polygon fill="#63b8ff" stroke="#63b8ff" points="663.17,-560.25 673.17,-556.75 663.17,-553.25 663.17,-560.25"/>
</a>
</g>
</g>
<!-- Node15 -->
<g id="Node000015" class="node">
<title>Node15</title>
<g id="a_Node000015"><a xlink:href="class_temperature_controller.html#a5fc773a967cea261f21bbe86d90d2586" target="_top" xlink:title="Display Modbus status page.">
<polygon fill="white" stroke="#666666" points="814.62,-523 693.62,-523 693.62,-492.5 814.62,-492.5 814.62,-523"/>
<text xml:space="preserve" text-anchor="start" x="701.62" y="-509.5" font-family="Helvetica,sans-Serif" font-size="10.00">TemperatureController</text>
<text xml:space="preserve" text-anchor="middle" x="754.12" y="-498.25" font-family="Helvetica,sans-Serif" font-size="10.00">::_displayModbusStatus</text>
</a>
</g>
</g>
<!-- Node11&#45;&gt;Node15 -->
<g id="edge16_Node000011_Node000015" class="edge">
<title>Node11&#45;&gt;Node15</title>
<g id="a_edge16_Node000011_Node000015"><a xlink:title=" ">
<path fill="none" stroke="#63b8ff" d="M617.74,-541.04C638.29,-535.99 661.19,-530.36 682.21,-525.19"/>
<polygon fill="#63b8ff" stroke="#63b8ff" points="683,-528.6 691.87,-522.81 681.33,-521.8 683,-528.6"/>
</a>
</g>
</g>
<!-- Node16 -->
<g id="Node000016" class="node">
<title>Node16</title>
<g id="a_Node000016"><a xlink:href="class_temperature_controller.html#a2436c7043d97ca75c717db2b87326d90" target="_top" xlink:title="Display network info page.">
<polygon fill="white" stroke="#666666" points="810.12,-474 698.12,-474 698.12,-443.5 810.12,-443.5 810.12,-474"/>
<text xml:space="preserve" text-anchor="start" x="706.12" y="-460.5" font-family="Helvetica,sans-Serif" font-size="10.00">TemperatureController</text>
<text xml:space="preserve" text-anchor="middle" x="754.12" y="-449.25" font-family="Helvetica,sans-Serif" font-size="10.00">::_displayNetworkInfo</text>
</a>
</g>
</g>
<!-- Node11&#45;&gt;Node16 -->
<g id="edge17_Node000011_Node000016" class="edge">
<title>Node11&#45;&gt;Node16</title>
<g id="a_edge17_Node000011_Node000016"><a xlink:title=" ">
<path fill="none" stroke="#63b8ff" d="M574.73,-541.2C597.25,-525.01 634.66,-499.81 670,-483.75 675.49,-481.25 681.29,-478.93 687.17,-476.78"/>
<polygon fill="#63b8ff" stroke="#63b8ff" points="688.07,-480.17 696.37,-473.6 685.78,-473.56 688.07,-480.17"/>
</a>
</g>
</g>
<!-- Node17 -->
<g id="Node000017" class="node">
<title>Node17</title>
<g id="a_Node000017"><a xlink:href="class_temperature_controller.html#a45d13ed72fd36b46820af631e4db958b" target="_top" xlink:title="Display system stats page.">
<polygon fill="white" stroke="#666666" points="811.62,-621 696.62,-621 696.62,-590.5 811.62,-590.5 811.62,-621"/>
<text xml:space="preserve" text-anchor="start" x="704.62" y="-607.5" font-family="Helvetica,sans-Serif" font-size="10.00">TemperatureController</text>
<text xml:space="preserve" text-anchor="middle" x="754.12" y="-596.25" font-family="Helvetica,sans-Serif" font-size="10.00">::_displaySystemStats</text>
</a>
</g>
</g>
<!-- Node11&#45;&gt;Node17 -->
<g id="edge18_Node000011_Node000017" class="edge">
<title>Node11&#45;&gt;Node17</title>
<g id="a_edge18_Node000011_Node000017"><a xlink:title=" ">
<path fill="none" stroke="#63b8ff" d="M617.74,-572.45C639.26,-577.74 663.35,-583.67 685.17,-589.03"/>
<polygon fill="#63b8ff" stroke="#63b8ff" points="684.33,-592.43 694.88,-591.42 686,-585.64 684.33,-592.43"/>
</a>
</g>
</g>
<!-- Node13 -->
<g id="Node000013" class="node">
<title>Node13</title>
<g id="a_Node000013"><a xlink:href="class_temperature_controller.html#a3022c7a72adb45a7800d5189eecdac4e" target="_top" xlink:title="Get total number of configured alarms.">
<polygon fill="white" stroke="#666666" points="986.25,-295 874.25,-295 874.25,-264.5 986.25,-264.5 986.25,-295"/>
<text xml:space="preserve" text-anchor="start" x="882.25" y="-281.5" font-family="Helvetica,sans-Serif" font-size="10.00">TemperatureController</text>
<text xml:space="preserve" text-anchor="middle" x="930.25" y="-270.25" font-family="Helvetica,sans-Serif" font-size="10.00">::getAlarmCount</text>
</a>
</g>
</g>
<!-- Node12&#45;&gt;Node13 -->
<g id="edge14_Node000012_Node000013" class="edge">
<title>Node12&#45;&gt;Node13</title>
<g id="a_edge14_Node000012_Node000013"><a xlink:title=" ">
<path fill="none" stroke="#63b8ff" d="M820.27,-394.12C826.57,-391.45 832.68,-388.35 838.25,-384.75 870.32,-363.99 897.54,-328.73 913.63,-304.85"/>
<polygon fill="#63b8ff" stroke="#63b8ff" points="916.45,-306.94 919,-296.66 910.6,-303.11 916.45,-306.94"/>
</a>
</g>
</g>
<!-- Node18 -->
<g id="Node000018" class="node">
<title>Node18</title>
<g id="a_Node000018"><a xlink:href="class_temperature_controller.html#a9b4fe09d4c87dcf86e78b890012e1e72" target="_top" xlink:title="Get sensor bound to measurement point.">
<polygon fill="white" stroke="#666666" points="986.25,-621 874.25,-621 874.25,-590.5 986.25,-590.5 986.25,-621"/>
<text xml:space="preserve" text-anchor="start" x="882.25" y="-607.5" font-family="Helvetica,sans-Serif" font-size="10.00">TemperatureController</text>
<text xml:space="preserve" text-anchor="middle" x="930.25" y="-596.25" font-family="Helvetica,sans-Serif" font-size="10.00">::getBoundSensor</text>
</a>
</g>
</g>
<!-- Node17&#45;&gt;Node18 -->
<g id="edge19_Node000017_Node000018" class="edge">
<title>Node17&#45;&gt;Node18</title>
<g id="a_edge19_Node000017_Node000018"><a xlink:title=" ">
<path fill="none" stroke="#63b8ff" d="M811.66,-605.75C827.88,-605.75 845.71,-605.75 862.48,-605.75"/>
<polygon fill="#63b8ff" stroke="#63b8ff" points="862.38,-609.25 872.38,-605.75 862.38,-602.25 862.38,-609.25"/>
</a>
</g>
</g>
<!-- Node23 -->
<g id="Node000023" class="node">
<title>Node23</title>
<g id="a_Node000023"><a xlink:href="class_temperature_controller.html#a9ac5f76def1895a8c8f8f92ce8cd2e5c" target="_top" xlink:title="Get count of discovered DS18B20 sensors.">
<polygon fill="white" stroke="#666666" points="986.25,-572 874.25,-572 874.25,-541.5 986.25,-541.5 986.25,-572"/>
<text xml:space="preserve" text-anchor="start" x="882.25" y="-558.5" font-family="Helvetica,sans-Serif" font-size="10.00">TemperatureController</text>
<text xml:space="preserve" text-anchor="middle" x="930.25" y="-547.25" font-family="Helvetica,sans-Serif" font-size="10.00">::getDS18B20Count</text>
</a>
</g>
</g>
<!-- Node17&#45;&gt;Node23 -->
<g id="edge24_Node000017_Node000023" class="edge">
<title>Node17&#45;&gt;Node23</title>
<g id="a_edge24_Node000017_Node000023"><a xlink:title=" ">
<path fill="none" stroke="#63b8ff" d="M810.7,-590.11C827.43,-585.4 845.95,-580.19 863.29,-575.31"/>
<polygon fill="#63b8ff" stroke="#63b8ff" points="863.77,-578.81 872.45,-572.73 861.88,-572.07 863.77,-578.81"/>
</a>
</g>
</g>
<!-- Node24 -->
<g id="Node000024" class="node">
<title>Node24</title>
<g id="a_Node000024"><a xlink:href="class_temperature_controller.html#a6ab2ecc10c283d75d948ce6f1ad723a6" target="_top" xlink:title="Get count of discovered PT1000 sensors.">
<polygon fill="white" stroke="#666666" points="986.25,-670 874.25,-670 874.25,-639.5 986.25,-639.5 986.25,-670"/>
<text xml:space="preserve" text-anchor="start" x="882.25" y="-656.5" font-family="Helvetica,sans-Serif" font-size="10.00">TemperatureController</text>
<text xml:space="preserve" text-anchor="middle" x="930.25" y="-645.25" font-family="Helvetica,sans-Serif" font-size="10.00">::getPT1000Count</text>
</a>
</g>
</g>
<!-- Node17&#45;&gt;Node24 -->
<g id="edge25_Node000017_Node000024" class="edge">
<title>Node17&#45;&gt;Node24</title>
<g id="a_edge25_Node000017_Node000024"><a xlink:title=" ">
<path fill="none" stroke="#63b8ff" d="M810.7,-621.38C827.43,-626.09 845.95,-631.31 863.29,-636.19"/>
<polygon fill="#63b8ff" stroke="#63b8ff" points="861.88,-639.42 872.45,-638.76 863.77,-632.68 861.88,-639.42"/>
</a>
</g>
</g>
<!-- Node19 -->
<g id="Node000019" class="node">
<title>Node19</title>
<g id="a_Node000019"><a xlink:href="class_measurement_point.html#a81c7ae93a9314344967d0f31c6fefe2f" target="_top" xlink:title="Get pointer to bound sensor.">
<polygon fill="white" stroke="#666666" points="1167.25,-645 1022.25,-645 1022.25,-614.5 1167.25,-614.5 1167.25,-645"/>
<text xml:space="preserve" text-anchor="start" x="1030.25" y="-631.5" font-family="Helvetica,sans-Serif" font-size="10.00">MeasurementPoint::getBound</text>
<text xml:space="preserve" text-anchor="middle" x="1094.75" y="-620.25" font-family="Helvetica,sans-Serif" font-size="10.00">Sensor</text>
</a>
</g>
</g>
<!-- Node18&#45;&gt;Node19 -->
<g id="edge20_Node000018_Node000019" class="edge">
<title>Node18&#45;&gt;Node19</title>
<g id="a_edge20_Node000018_Node000019"><a xlink:title=" ">
<path fill="none" stroke="#63b8ff" d="M986.72,-613.94C994.41,-615.07 1002.44,-616.26 1010.49,-617.45"/>
<polygon fill="#63b8ff" stroke="#63b8ff" points="1009.96,-620.91 1020.37,-618.91 1010.99,-613.98 1009.96,-620.91"/>
</a>
</g>
</g>
<!-- Node20 -->
<g id="Node000020" class="node">
<title>Node20</title>
<g id="a_Node000020"><a xlink:href="class_temperature_controller.html#a494f057c234b4ff7526bde271aec9267" target="_top" xlink:title="Get measurement point by address.">
<polygon fill="white" stroke="#666666" points="1153.38,-596 1036.12,-596 1036.12,-565.5 1153.38,-565.5 1153.38,-596"/>
<text xml:space="preserve" text-anchor="start" x="1044.12" y="-582.5" font-family="Helvetica,sans-Serif" font-size="10.00">TemperatureController</text>
<text xml:space="preserve" text-anchor="middle" x="1094.75" y="-571.25" font-family="Helvetica,sans-Serif" font-size="10.00">::getMeasurementPoint</text>
</a>
</g>
</g>
<!-- Node18&#45;&gt;Node20 -->
<g id="edge21_Node000018_Node000020" class="edge">
<title>Node18&#45;&gt;Node20</title>
<g id="a_edge21_Node000018_Node000020"><a xlink:title=" ">
<path fill="none" stroke="#63b8ff" d="M986.72,-597.21C998.95,-595.33 1012.05,-593.32 1024.74,-591.36"/>
<polygon fill="#63b8ff" stroke="#63b8ff" points="1024.91,-594.88 1034.27,-589.9 1023.85,-587.96 1024.91,-594.88"/>
</a>
</g>
</g>
<!-- Node21 -->
<g id="Node000021" class="node">
<title>Node21</title>
<g id="a_Node000021"><a xlink:href="class_temperature_controller.html#ad322a5bab8d5788a586206004248f673" target="_top" xlink:title="Check if address is for DS18B20 sensor.">
<polygon fill="white" stroke="#666666" points="1315.25,-621 1203.25,-621 1203.25,-590.5 1315.25,-590.5 1315.25,-621"/>
<text xml:space="preserve" text-anchor="start" x="1211.25" y="-607.5" font-family="Helvetica,sans-Serif" font-size="10.00">TemperatureController</text>
<text xml:space="preserve" text-anchor="middle" x="1259.25" y="-596.25" font-family="Helvetica,sans-Serif" font-size="10.00">::isDS18B20Address</text>
</a>
</g>
</g>
<!-- Node20&#45;&gt;Node21 -->
<g id="edge22_Node000020_Node000021" class="edge">
<title>Node20&#45;&gt;Node21</title>
<g id="a_edge22_Node000020_Node000021"><a xlink:title=" ">
<path fill="none" stroke="#63b8ff" d="M1153.5,-589.63C1165.92,-591.54 1179.14,-593.57 1191.85,-595.53"/>
<polygon fill="#63b8ff" stroke="#63b8ff" points="1190.95,-598.93 1201.37,-597 1192.02,-592.02 1190.95,-598.93"/>
</a>
</g>
</g>
<!-- Node22 -->
<g id="Node000022" class="node">
<title>Node22</title>
<g id="a_Node000022"><a xlink:href="class_temperature_controller.html#a13125ddcf29cb56d27403818543618af" target="_top" xlink:title="Check if address is for PT1000 sensor.">
<polygon fill="white" stroke="#666666" points="1315.25,-572 1203.25,-572 1203.25,-541.5 1315.25,-541.5 1315.25,-572"/>
<text xml:space="preserve" text-anchor="start" x="1211.25" y="-558.5" font-family="Helvetica,sans-Serif" font-size="10.00">TemperatureController</text>
<text xml:space="preserve" text-anchor="middle" x="1259.25" y="-547.25" font-family="Helvetica,sans-Serif" font-size="10.00">::isPT1000Address</text>
</a>
</g>
</g>
<!-- Node20&#45;&gt;Node22 -->
<g id="edge23_Node000020_Node000022" class="edge">
<title>Node20&#45;&gt;Node22</title>
<g id="a_edge23_Node000020_Node000022"><a xlink:title=" ">
<path fill="none" stroke="#63b8ff" d="M1153.5,-572.22C1165.92,-570.38 1179.14,-568.43 1191.85,-566.55"/>
<polygon fill="#63b8ff" stroke="#63b8ff" points="1191.99,-570.07 1201.37,-565.15 1190.96,-563.15 1191.99,-570.07"/>
</a>
</g>
</g>
<!-- Node26 -->
<g id="Node000026" class="node">
<title>Node26</title>
<g id="a_Node000026"><a xlink:href="class_temperature_controller.html#af58201023d15de003d4f1b9a9771a9e3" target="_top" xlink:title="Get list of active alarms.">
<polygon fill="white" stroke="#666666" points="810.12,-376 698.12,-376 698.12,-345.5 810.12,-345.5 810.12,-376"/>
<text xml:space="preserve" text-anchor="start" x="706.12" y="-362.5" font-family="Helvetica,sans-Serif" font-size="10.00">TemperatureController</text>
<text xml:space="preserve" text-anchor="middle" x="754.12" y="-351.25" font-family="Helvetica,sans-Serif" font-size="10.00">::getActiveAlarms</text>
</a>
</g>
</g>
<!-- Node25&#45;&gt;Node26 -->
<g id="edge29_Node000025_Node000026" class="edge">
<title>Node25&#45;&gt;Node26</title>
<g id="a_edge29_Node000025_Node000026"><a xlink:title=" ">
<path fill="none" stroke="#63b8ff" d="M611.24,-360.75C634.76,-360.75 662.14,-360.75 686.54,-360.75"/>
<polygon fill="#63b8ff" stroke="#63b8ff" points="686.37,-364.25 696.37,-360.75 686.37,-357.25 686.37,-364.25"/>
</a>
</g>
</g>
<!-- Node27 -->
<g id="Node000027" class="node">
<title>Node27</title>
<g id="a_Node000027"><a xlink:href="class_alarm.html#a7a4a3290a6a659542f82fe08a96736a8" target="_top" xlink:title="Get the alarm creation timestamp.">
<polygon fill="white" stroke="#666666" points="809,-327.37 699.25,-327.37 699.25,-308.12 809,-308.12 809,-327.37"/>
<text xml:space="preserve" text-anchor="middle" x="754.12" y="-313.87" font-family="Helvetica,sans-Serif" font-size="10.00">Alarm::getTimestamp</text>
</a>
</g>
</g>
<!-- Node25&#45;&gt;Node27 -->
<g id="edge30_Node000025_Node000027" class="edge">
<title>Node25&#45;&gt;Node27</title>
<g id="a_edge30_Node000025_Node000027"><a xlink:title=" ">
<path fill="none" stroke="#63b8ff" d="M611.24,-348.37C637.59,-342.68 668.79,-335.95 695.22,-330.24"/>
<polygon fill="#63b8ff" stroke="#63b8ff" points="695.7,-333.72 704.74,-328.19 694.23,-326.88 695.7,-333.72"/>
</a>
</g>
</g>
<!-- Node28&#45;&gt;Node13 -->
<g id="edge33_Node000028_Node000013" class="edge">
<title>Node28&#45;&gt;Node13</title>
<g id="a_edge33_Node000028_Node000013"><a xlink:title=" ">
<path fill="none" stroke="#63b8ff" d="M260.33,-295.45C391.52,-292.37 721.07,-284.63 862.78,-281.31"/>
<polygon fill="#63b8ff" stroke="#63b8ff" points="862.44,-284.82 872.35,-281.08 862.28,-277.82 862.44,-284.82"/>
</a>
</g>
</g>
<!-- Node29 -->
<g id="Node000029" class="node">
<title>Node29</title>
<g id="a_Node000029"><a xlink:href="class_logger_manager.html#a5c1373ccc47f4112b596fe6f84fbbc21" target="_top" xlink:title="Log informational message (static convenience method)">
<polygon fill="white" stroke="#666666" points="418.12,-251.37 313.62,-251.37 313.62,-232.12 418.12,-232.12 418.12,-251.37"/>
<text xml:space="preserve" text-anchor="middle" x="365.88" y="-237.87" font-family="Helvetica,sans-Serif" font-size="10.00">LoggerManager::info</text>
</a>
</g>
</g>
<!-- Node28&#45;&gt;Node29 -->
<g id="edge34_Node000028_Node000029" class="edge">
<title>Node28&#45;&gt;Node29</title>
<g id="a_edge34_Node000028_Node000029"><a xlink:title=" ">
<path fill="none" stroke="#63b8ff" d="M250.39,-281.13C273.87,-273.05 302.28,-263.28 324.92,-255.49"/>
<polygon fill="#63b8ff" stroke="#63b8ff" points="325.78,-258.9 334.1,-252.33 323.5,-252.28 325.78,-258.9"/>
</a>
</g>
</g>
<!-- Node30&#45;&gt;Node1 -->
<g id="edge36_Node000030_Node000001" class="edge">
<title>Node30&#45;&gt;Node1</title>
<g id="a_edge36_Node000030_Node000001"><a xlink:title=" ">
<path fill="none" stroke="#63b8ff" d="M147.73,-254.32C139.82,-254.48 131.62,-254.53 123.53,-254.47"/>
<polygon fill="#63b8ff" stroke="#63b8ff" points="123.76,-250.98 113.71,-254.34 123.66,-257.97 123.76,-250.98"/>
</a>
</g>
</g>
<!-- Node33 -->
<g id="Node000033" class="node">
<title>Node33</title>
<g id="a_Node000033"><a xlink:href="class_logger_manager.html#aef24f00186213fa78be3b104a50d58e6" target="_top" xlink:title="Log error message (static convenience method)">
<polygon fill="white" stroke="#666666" points="808.25,-165.37 700,-165.37 700,-146.12 808.25,-146.12 808.25,-165.37"/>
<text xml:space="preserve" text-anchor="middle" x="754.12" y="-151.87" font-family="Helvetica,sans-Serif" font-size="10.00">LoggerManager::error</text>
</a>
</g>
</g>
<!-- Node32&#45;&gt;Node33 -->
<g id="edge39_Node000032_Node000033" class="edge">
<title>Node32&#45;&gt;Node33</title>
<g id="a_edge39_Node000032_Node000033"><a xlink:title=" ">
<path fill="none" stroke="#63b8ff" d="M238.16,-65.03C312.51,-32.17 496.79,35.94 634,-24.75 685.58,-47.56 724.41,-104.96 742.28,-135.65"/>
<polygon fill="#63b8ff" stroke="#63b8ff" points="739.2,-137.32 747.15,-144.32 745.3,-133.89 739.2,-137.32"/>
</a>
</g>
</g>
<!-- Node34 -->
<g id="Node000034" class="node">
<title>Node34</title>
<g id="a_Node000034"><a xlink:href="class_temperature_controller.html#a01e04714a1712aa10c34276850971a12" target="_top" xlink:title="Get bus number for a sensor.">
<polygon fill="white" stroke="#666666" points="421.88,-96 309.88,-96 309.88,-65.5 421.88,-65.5 421.88,-96"/>
<text xml:space="preserve" text-anchor="start" x="317.88" y="-82.5" font-family="Helvetica,sans-Serif" font-size="10.00">TemperatureController</text>
<text xml:space="preserve" text-anchor="middle" x="365.88" y="-71.25" font-family="Helvetica,sans-Serif" font-size="10.00">::getSensorBus</text>
</a>
</g>
</g>
<!-- Node32&#45;&gt;Node34 -->
<g id="edge40_Node000032_Node000034" class="edge">
<title>Node32&#45;&gt;Node34</title>
<g id="a_edge40_Node000032_Node000034"><a xlink:title=" ">
<path fill="none" stroke="#63b8ff" d="M260.47,-80.75C272.62,-80.75 285.61,-80.75 298.15,-80.75"/>
<polygon fill="#63b8ff" stroke="#63b8ff" points="297.99,-84.25 307.99,-80.75 297.99,-77.25 297.99,-84.25"/>
</a>
</g>
</g>
<!-- Node35 -->
<g id="Node000035" class="node">
<title>Node35</title>
<g id="a_Node000035"><a xlink:href="class_sensor.html#ac42da3a37b0d6a9622344fe83f4c9047" target="_top" xlink:title="Get OneWire bus pin.">
<polygon fill="white" stroke="#666666" points="612.25,-127.37 493.5,-127.37 493.5,-108.12 612.25,-108.12 612.25,-127.37"/>
<text xml:space="preserve" text-anchor="middle" x="552.88" y="-113.87" font-family="Helvetica,sans-Serif" font-size="10.00">Sensor::getOneWirePin</text>
</a>
</g>
</g>
<!-- Node34&#45;&gt;Node35 -->
<g id="edge41_Node000034_Node000035" class="edge">
<title>Node34&#45;&gt;Node35</title>
<g id="a_edge41_Node000034_Node000035"><a xlink:title=" ">
<path fill="none" stroke="#63b8ff" d="M422.13,-91.8C443.53,-96.08 468.12,-100.99 490.1,-105.39"/>
<polygon fill="#63b8ff" stroke="#63b8ff" points="489.34,-108.81 499.84,-107.34 490.72,-101.95 489.34,-108.81"/>
</a>
</g>
</g>
<!-- Node36 -->
<g id="Node000036" class="node">
<title>Node36</title>
<g id="a_Node000036"><a xlink:href="class_sensor.html#a6f57825e90b759ccdb9fe07b3a36953d" target="_top" xlink:title="Get PT1000 chip select pin.">
<polygon fill="white" stroke="#666666" points="634,-90.37 471.75,-90.37 471.75,-71.12 634,-71.12 634,-90.37"/>
<text xml:space="preserve" text-anchor="middle" x="552.88" y="-76.87" font-family="Helvetica,sans-Serif" font-size="10.00">Sensor::getPT1000ChipSelectPin</text>
</a>
</g>
</g>
<!-- Node34&#45;&gt;Node36 -->
<g id="edge42_Node000034_Node000036" class="edge">
<title>Node34&#45;&gt;Node36</title>
<g id="a_edge42_Node000034_Node000036"><a xlink:title=" ">
<path fill="none" stroke="#63b8ff" d="M422.13,-80.75C434.07,-80.75 447.01,-80.75 459.93,-80.75"/>
<polygon fill="#63b8ff" stroke="#63b8ff" points="459.74,-84.25 469.74,-80.75 459.74,-77.25 459.74,-84.25"/>
</a>
</g>
</g>
<!-- Node37 -->
<g id="Node000037" class="node">
<title>Node37</title>
<g id="a_Node000037"><a xlink:href="class_sensor.html#a0f6f095e7cfdfffb2a395dfdae7cfa53" target="_top" xlink:title="Get sensor type.">
<polygon fill="white" stroke="#666666" points="596.5,-53.37 509.25,-53.37 509.25,-34.12 596.5,-34.12 596.5,-53.37"/>
<text xml:space="preserve" text-anchor="middle" x="552.88" y="-39.87" font-family="Helvetica,sans-Serif" font-size="10.00">Sensor::getType</text>
</a>
</g>
</g>
<!-- Node34&#45;&gt;Node37 -->
<g id="edge43_Node000034_Node000037" class="edge">
<title>Node34&#45;&gt;Node37</title>
<g id="a_edge43_Node000034_Node000037"><a xlink:title=" ">
<path fill="none" stroke="#63b8ff" d="M422.13,-69.7C446.12,-64.9 474.12,-59.3 497.96,-54.53"/>
<polygon fill="#63b8ff" stroke="#63b8ff" points="498.34,-58.02 507.45,-52.63 496.96,-51.16 498.34,-58.02"/>
</a>
</g>
</g>
<!-- Node39 -->
<g id="Node000039" class="node">
<title>Node39</title>
<g id="a_Node000039"><a xlink:href="class_temperature_controller.html#aac890ae08b5eddcf272771ecdba61453" target="_top" xlink:title="Get relay actual state.">
<polygon fill="white" stroke="#666666" points="421.88,-165 309.88,-165 309.88,-134.5 421.88,-134.5 421.88,-165"/>
<text xml:space="preserve" text-anchor="start" x="317.88" y="-151.5" font-family="Helvetica,sans-Serif" font-size="10.00">TemperatureController</text>
<text xml:space="preserve" text-anchor="middle" x="365.88" y="-140.25" font-family="Helvetica,sans-Serif" font-size="10.00">::getRelayActualState</text>
</a>
</g>
</g>
<!-- Node38&#45;&gt;Node39 -->
<g id="edge45_Node000038_Node000039" class="edge">
<title>Node38&#45;&gt;Node39</title>
<g id="a_edge45_Node000038_Node000039"><a xlink:title=" ">
<path fill="none" stroke="#63b8ff" d="M260.47,-149.75C272.62,-149.75 285.61,-149.75 298.15,-149.75"/>
<polygon fill="#63b8ff" stroke="#63b8ff" points="297.99,-153.25 307.99,-149.75 297.99,-146.25 297.99,-153.25"/>
</a>
</g>
</g>
<!-- Node40 -->
<g id="Node000040" class="node">
<title>Node40</title>
<g id="a_Node000040"><a xlink:href="class_temperature_controller.html#a20a14014a639f3390dba82a6cd39d067" target="_top" xlink:title="Get relay commanded state.">
<polygon fill="white" stroke="#666666" points="435.75,-214 296,-214 296,-183.5 435.75,-183.5 435.75,-214"/>
<text xml:space="preserve" text-anchor="start" x="304" y="-200.5" font-family="Helvetica,sans-Serif" font-size="10.00">TemperatureController</text>
<text xml:space="preserve" text-anchor="middle" x="365.88" y="-189.25" font-family="Helvetica,sans-Serif" font-size="10.00">::getRelayCommandedState</text>
</a>
</g>
</g>
<!-- Node38&#45;&gt;Node40 -->
<g id="edge47_Node000038_Node000040" class="edge">
<title>Node38&#45;&gt;Node40</title>
<g id="a_edge47_Node000038_Node000040"><a xlink:title=" ">
<path fill="none" stroke="#63b8ff" d="M256.03,-165.38C270.95,-169.96 287.43,-175.01 302.95,-179.77"/>
<polygon fill="#63b8ff" stroke="#63b8ff" points="301.48,-182.98 312.06,-182.56 303.53,-176.28 301.48,-182.98"/>
</a>
</g>
</g>
<!-- Node39&#45;&gt;Node33 -->
<g id="edge46_Node000039_Node000033" class="edge">
<title>Node39&#45;&gt;Node33</title>
<g id="a_edge46_Node000039_Node000033"><a xlink:title=" ">
<path fill="none" stroke="#63b8ff" d="M422.22,-150.61C492.65,-151.7 614.11,-153.59 688.66,-154.74"/>
<polygon fill="#63b8ff" stroke="#63b8ff" points="688.18,-158.24 698.24,-154.89 688.29,-151.24 688.18,-158.24"/>
</a>
</g>
</g>
<!-- Node40&#45;&gt;Node13 -->
<g id="edge48_Node000040_Node000013" class="edge">
<title>Node40&#45;&gt;Node13</title>
<g id="a_edge48_Node000040_Node000013"><a xlink:title=" ">
<path fill="none" stroke="#63b8ff" d="M430.43,-214.45C444.01,-217.48 458.31,-220.43 471.75,-222.75 633.37,-250.64 675.73,-243.72 838.25,-265.75 846.2,-266.82 854.53,-268.02 862.79,-269.24"/>
<polygon fill="#63b8ff" stroke="#63b8ff" points="862.05,-272.67 872.46,-270.69 863.09,-265.74 862.05,-272.67"/>
</a>
</g>
</g>
<!-- Node41 -->
<g id="Node000041" class="node">
<title>Node41</title>
<g id="a_Node000041"><a xlink:href="class_temperature_controller.html#a61ff288cbeaa86dc21c610c778dba64e" target="_top" xlink:title="Get relay control mode.">
<polygon fill="white" stroke="#666666" points="611.12,-214 494.62,-214 494.62,-183.5 611.12,-183.5 611.12,-214"/>
<text xml:space="preserve" text-anchor="start" x="502.62" y="-200.5" font-family="Helvetica,sans-Serif" font-size="10.00">TemperatureController</text>
<text xml:space="preserve" text-anchor="middle" x="552.88" y="-189.25" font-family="Helvetica,sans-Serif" font-size="10.00">::getRelayControlMode</text>
</a>
</g>
</g>
<!-- Node40&#45;&gt;Node41 -->
<g id="edge49_Node000040_Node000041" class="edge">
<title>Node40&#45;&gt;Node41</title>
<g id="a_edge49_Node000040_Node000041"><a xlink:title=" ">
<path fill="none" stroke="#63b8ff" d="M436.03,-198.75C451.32,-198.75 467.52,-198.75 482.81,-198.75"/>
<polygon fill="#63b8ff" stroke="#63b8ff" points="482.78,-202.25 492.78,-198.75 482.78,-195.25 482.78,-202.25"/>
</a>
</g>
</g>
<!-- Node41&#45;&gt;Node33 -->
<g id="edge50_Node000041_Node000033" class="edge">
<title>Node41&#45;&gt;Node33</title>
<g id="a_edge50_Node000041_Node000033"><a xlink:title=" ">
<path fill="none" stroke="#63b8ff" d="M611.51,-186.31C637.85,-180.62 669,-173.9 695.36,-168.21"/>
<polygon fill="#63b8ff" stroke="#63b8ff" points="695.83,-171.69 704.86,-166.16 694.35,-164.85 695.83,-171.69"/>
</a>
</g>
</g>
</g>
</svg>
