<?xml version="1.0" encoding="UTF-8" standalone="no"?>
<!DOCTYPE svg PUBLIC "-//W3C//DTD SVG 1.1//EN"
 "http://www.w3.org/Graphics/SVG/1.1/DTD/svg11.dtd">
<!-- Generated by graphviz version 13.1.0 (20250701.0955)
 -->
<!-- Title: TemperatureController::readAllPoints Pages: 1 -->
<svg width="1471pt" height="874pt"
 viewBox="0.00 0.00 1471.00 874.00" xmlns="http://www.w3.org/2000/svg" xmlns:xlink="http://www.w3.org/1999/xlink">
<g id="graph0" class="graph" transform="scale(1 1) rotate(0) translate(4 870)">
<title>TemperatureController::readAllPoints</title>
<!-- Node1 -->
<g id="Node000001" class="node">
<title>Node1</title>
<g id="a_Node000001"><a xlink:title="Read temperature from all configured measurement points.">
<polygon fill="#999999" stroke="#666666" points="112,-270 0,-270 0,-239.5 112,-239.5 112,-270"/>
<text xml:space="preserve" text-anchor="start" x="8" y="-256.5" font-family="Helvetica,sans-Serif" font-size="10.00">TemperatureController</text>
<text xml:space="preserve" text-anchor="middle" x="56" y="-245.25" font-family="Helvetica,sans-Serif" font-size="10.00">::readAllPoints</text>
</a>
</g>
</g>
<!-- Node2 -->
<g id="Node000002" class="node">
<title>Node2</title>
<g id="a_Node000002"><a xlink:href="class_temperature_controller.html#aca5deddbf703001373424d876f87b5f2" target="_top" xlink:title="Main update function &#45; must be called in loop()">
<polygon fill="white" stroke="#666666" points="260,-270 148,-270 148,-239.5 260,-239.5 260,-270"/>
<text xml:space="preserve" text-anchor="start" x="156" y="-256.5" font-family="Helvetica,sans-Serif" font-size="10.00">TemperatureController</text>
<text xml:space="preserve" text-anchor="middle" x="204" y="-245.25" font-family="Helvetica,sans-Serif" font-size="10.00">::update</text>
</a>
</g>
</g>
<!-- Node1&#45;&gt;Node2 -->
<g id="edge1_Node000001_Node000002" class="edge">
<title>Node1&#45;&gt;Node2</title>
<g id="a_edge1_Node000001_Node000002"><a xlink:title=" ">
<path fill="none" stroke="#63b8ff" d="M112.2,-248.18C120.1,-248.01 128.3,-247.96 136.39,-248.02"/>
<polygon fill="#63b8ff" stroke="#63b8ff" points="136.16,-251.52 146.21,-248.16 136.26,-244.52 136.16,-251.52"/>
</a>
</g>
</g>
<!-- Node2&#45;&gt;Node1 -->
<g id="edge36_Node000002_Node000001" class="edge">
<title>Node2&#45;&gt;Node1</title>
<g id="a_edge36_Node000002_Node000001"><a xlink:title=" ">
<path fill="none" stroke="#63b8ff" d="M147.73,-261.32C139.82,-261.48 131.62,-261.53 123.53,-261.47"/>
<polygon fill="#63b8ff" stroke="#63b8ff" points="123.76,-257.98 113.71,-261.34 123.66,-264.97 123.76,-257.98"/>
</a>
</g>
</g>
<!-- Node3 -->
<g id="Node000003" class="node">
<title>Node3</title>
<g id="a_Node000003"><a xlink:href="class_temperature_controller.html#a1228b63e95f26c21a8d9c2a27928bc75" target="_top" xlink:title="Check for button press and handle acknowledgment.">
<polygon fill="white" stroke="#666666" points="569.88,-759 457.88,-759 457.88,-728.5 569.88,-728.5 569.88,-759"/>
<text xml:space="preserve" text-anchor="start" x="465.88" y="-745.5" font-family="Helvetica,sans-Serif" font-size="10.00">TemperatureController</text>
<text xml:space="preserve" text-anchor="middle" x="513.88" y="-734.25" font-family="Helvetica,sans-Serif" font-size="10.00">::_checkButtonPress</text>
</a>
</g>
</g>
<!-- Node2&#45;&gt;Node3 -->
<g id="edge2_Node000002_Node000003" class="edge">
<title>Node2&#45;&gt;Node3</title>
<g id="a_edge2_Node000002_Node000003"><a xlink:title=" ">
<path fill="none" stroke="#63b8ff" d="M206.23,-270.06C212.03,-338.63 238.8,-616.79 296,-678.75 334.26,-720.19 397.77,-735.59 446.2,-741.13"/>
<polygon fill="#63b8ff" stroke="#63b8ff" points="445.73,-744.6 456.03,-742.13 446.44,-737.64 445.73,-744.6"/>
</a>
</g>
</g>
<!-- Node6 -->
<g id="Node000006" class="node">
<title>Node6</title>
<g id="a_Node000006"><a xlink:href="class_temperature_controller.html#a5637103784725fb1a73f6463d7cbfde6" target="_top" xlink:title="Handle alarm display on OLED/LEDs.">
<polygon fill="white" stroke="#666666" points="408,-670 296,-670 296,-639.5 408,-639.5 408,-670"/>
<text xml:space="preserve" text-anchor="start" x="304" y="-656.5" font-family="Helvetica,sans-Serif" font-size="10.00">TemperatureController</text>
<text xml:space="preserve" text-anchor="middle" x="352" y="-645.25" font-family="Helvetica,sans-Serif" font-size="10.00">::handleAlarmDisplay</text>
</a>
</g>
</g>
<!-- Node2&#45;&gt;Node6 -->
<g id="edge5_Node000002_Node000006" class="edge">
<title>Node2&#45;&gt;Node6</title>
<g id="a_edge5_Node000002_Node000006"><a xlink:title=" ">
<path fill="none" stroke="#63b8ff" d="M210.72,-270.43C232.94,-331.29 313.6,-552.28 341.46,-628.6"/>
<polygon fill="#63b8ff" stroke="#63b8ff" points="338.08,-629.56 344.8,-637.75 344.66,-627.16 338.08,-629.56"/>
</a>
</g>
</g>
<!-- Node29 -->
<g id="Node000029" class="node">
<title>Node29</title>
<g id="a_Node000029"><a xlink:href="class_temperature_controller.html#a82e4c37ff4121eaf5e00e9c52381e840" target="_top" xlink:title="Handle alarm output signals.">
<polygon fill="white" stroke="#666666" points="408,-295 296,-295 296,-264.5 408,-264.5 408,-295"/>
<text xml:space="preserve" text-anchor="start" x="304" y="-281.5" font-family="Helvetica,sans-Serif" font-size="10.00">TemperatureController</text>
<text xml:space="preserve" text-anchor="middle" x="352" y="-270.25" font-family="Helvetica,sans-Serif" font-size="10.00">::handleAlarmOutputs</text>
</a>
</g>
</g>
<!-- Node2&#45;&gt;Node29 -->
<g id="edge33_Node000002_Node000029" class="edge">
<title>Node2&#45;&gt;Node29</title>
<g id="a_edge33_Node000002_Node000029"><a xlink:title=" ">
<path fill="none" stroke="#63b8ff" d="M260.2,-264.2C268.1,-265.55 276.3,-266.96 284.39,-268.34"/>
<polygon fill="#63b8ff" stroke="#63b8ff" points="283.79,-271.79 294.23,-270.03 284.97,-264.89 283.79,-271.79"/>
</a>
</g>
</g>
<!-- Node31 -->
<g id="Node000031" class="node">
<title>Node31</title>
<g id="a_Node000031"><a xlink:href="class_temperature_controller.html#a5ac8af90de5dfd79a9a2e4c7270a98a3" target="_top" xlink:title="Update alarm states for all measurement points.">
<polygon fill="white" stroke="#666666" points="408,-246 296,-246 296,-215.5 408,-215.5 408,-246"/>
<text xml:space="preserve" text-anchor="start" x="304" y="-232.5" font-family="Helvetica,sans-Serif" font-size="10.00">TemperatureController</text>
<text xml:space="preserve" text-anchor="middle" x="352" y="-221.25" font-family="Helvetica,sans-Serif" font-size="10.00">::updateAlarms</text>
</a>
</g>
</g>
<!-- Node2&#45;&gt;Node31 -->
<g id="edge37_Node000002_Node000031" class="edge">
<title>Node2&#45;&gt;Node31</title>
<g id="a_edge37_Node000002_Node000031"><a xlink:title=" ">
<path fill="none" stroke="#63b8ff" d="M260.2,-245.67C268.1,-244.37 276.3,-243.03 284.39,-241.7"/>
<polygon fill="#63b8ff" stroke="#63b8ff" points="284.93,-245.15 294.23,-240.08 283.8,-238.25 284.93,-245.15"/>
</a>
</g>
</g>
<!-- Node32 -->
<g id="Node000032" class="node">
<title>Node32</title>
<g id="a_Node000032"><a xlink:href="class_temperature_controller.html#a23dca296a268baa9b8234c8bf9cf0c3e" target="_top" xlink:title="Update temperature readings for all sensors.">
<polygon fill="white" stroke="#666666" points="408,-96 296,-96 296,-65.5 408,-65.5 408,-96"/>
<text xml:space="preserve" text-anchor="start" x="304" y="-82.5" font-family="Helvetica,sans-Serif" font-size="10.00">TemperatureController</text>
<text xml:space="preserve" text-anchor="middle" x="352" y="-71.25" font-family="Helvetica,sans-Serif" font-size="10.00">::updateAllSensors</text>
</a>
</g>
</g>
<!-- Node2&#45;&gt;Node32 -->
<g id="edge38_Node000002_Node000032" class="edge">
<title>Node2&#45;&gt;Node32</title>
<g id="a_edge38_Node000002_Node000032"><a xlink:title=" ">
<path fill="none" stroke="#63b8ff" d="M218.21,-239C243.84,-208.46 300.43,-141.02 330.8,-104.82"/>
<polygon fill="#63b8ff" stroke="#63b8ff" points="333.2,-107.4 336.95,-97.49 327.84,-102.9 333.2,-107.4"/>
</a>
</g>
</g>
<!-- Node38 -->
<g id="Node000038" class="node">
<title>Node38</title>
<g id="a_Node000038"><a xlink:href="class_temperature_controller.html#a62b93899a3b8b55e2e0bd933520c2892" target="_top" xlink:title="Update register map with current values from measurement points.">
<polygon fill="white" stroke="#666666" points="408,-197 296,-197 296,-166.5 408,-166.5 408,-197"/>
<text xml:space="preserve" text-anchor="start" x="304" y="-183.5" font-family="Helvetica,sans-Serif" font-size="10.00">TemperatureController</text>
<text xml:space="preserve" text-anchor="middle" x="352" y="-172.25" font-family="Helvetica,sans-Serif" font-size="10.00">::updateRegisterMap</text>
</a>
</g>
</g>
<!-- Node2&#45;&gt;Node38 -->
<g id="edge44_Node000002_Node000038" class="edge">
<title>Node2&#45;&gt;Node38</title>
<g id="a_edge44_Node000002_Node000038"><a xlink:title=" ">
<path fill="none" stroke="#63b8ff" d="M233.47,-239.18C251.3,-229.57 274.83,-217.13 296,-206.75 299.06,-205.25 302.22,-203.73 305.42,-202.21"/>
<polygon fill="#63b8ff" stroke="#63b8ff" points="306.69,-205.48 314.28,-198.08 303.73,-199.14 306.69,-205.48"/>
</a>
</g>
</g>
<!-- Node4 -->
<g id="Node000004" class="node">
<title>Node4</title>
<g id="a_Node000004"><a xlink:href="class_temperature_controller.html#ac44de0834e13cec755e247ce1df21f09" target="_top" xlink:title="Display next acknowledged alarm.">
<polygon fill="white" stroke="#666666" points="986.25,-866 818,-866 818,-835.5 986.25,-835.5 986.25,-866"/>
<text xml:space="preserve" text-anchor="start" x="826" y="-852.5" font-family="Helvetica,sans-Serif" font-size="10.00">TemperatureController</text>
<text xml:space="preserve" text-anchor="middle" x="902.12" y="-841.25" font-family="Helvetica,sans-Serif" font-size="10.00">::_displayNextAcknowledgedAlarm</text>
</a>
</g>
</g>
<!-- Node3&#45;&gt;Node4 -->
<g id="edge3_Node000003_Node000004" class="edge">
<title>Node3&#45;&gt;Node4</title>
<g id="a_edge3_Node000003_Node000004"><a xlink:title=" ">
<path fill="none" stroke="#63b8ff" d="M543.02,-759.5C563.7,-770.48 592.77,-784.74 619.75,-793.75 680.45,-814.02 751.05,-828.3 806.34,-837.49"/>
<polygon fill="#63b8ff" stroke="#63b8ff" points="805.62,-840.92 816.05,-839.08 806.75,-834.01 805.62,-840.92"/>
</a>
</g>
</g>
<!-- Node5 -->
<g id="Node000005" class="node">
<title>Node5</title>
<g id="a_Node000005"><a xlink:href="class_temperature_controller.html#a3955f205bc33dda762cbe5c572cd4f21" target="_top" xlink:title="Switch to a new display section.">
<polygon fill="white" stroke="#666666" points="958.12,-817 846.12,-817 846.12,-786.5 958.12,-786.5 958.12,-817"/>
<text xml:space="preserve" text-anchor="start" x="854.12" y="-803.5" font-family="Helvetica,sans-Serif" font-size="10.00">TemperatureController</text>
<text xml:space="preserve" text-anchor="middle" x="902.12" y="-792.25" font-family="Helvetica,sans-Serif" font-size="10.00">::_switchToSection</text>
</a>
</g>
</g>
<!-- Node3&#45;&gt;Node5 -->
<g id="edge4_Node000003_Node000005" class="edge">
<title>Node3&#45;&gt;Node5</title>
<g id="a_edge4_Node000003_Node000005"><a xlink:title=" ">
<path fill="none" stroke="#63b8ff" d="M570.14,-758.2C586.07,-762.02 603.53,-765.87 619.75,-768.75 692.7,-781.67 777.21,-790.81 834.43,-796.15"/>
<polygon fill="#63b8ff" stroke="#63b8ff" points="834.07,-799.63 844.34,-797.06 834.71,-792.66 834.07,-799.63"/>
</a>
</g>
</g>
<!-- Node6&#45;&gt;Node3 -->
<g id="edge6_Node000006_Node000003" class="edge">
<title>Node6&#45;&gt;Node3</title>
<g id="a_edge6_Node000006_Node000003"><a xlink:title=" ">
<path fill="none" stroke="#63b8ff" d="M381.21,-670.45C407.28,-684.96 446.19,-706.62 474.96,-722.64"/>
<polygon fill="#63b8ff" stroke="#63b8ff" points="472.91,-725.51 483.35,-727.31 476.32,-719.39 472.91,-725.51"/>
</a>
</g>
</g>
<!-- Node7 -->
<g id="Node000007" class="node">
<title>Node7</title>
<g id="a_Node000007"><a xlink:href="class_temperature_controller.html#a6b2f92b5c2af867240200cff2e61e806" target="_top" xlink:title="Handle display section switching.">
<polygon fill="white" stroke="#666666" points="577.38,-670 450.38,-670 450.38,-639.5 577.38,-639.5 577.38,-670"/>
<text xml:space="preserve" text-anchor="start" x="458.38" y="-656.5" font-family="Helvetica,sans-Serif" font-size="10.00">TemperatureController</text>
<text xml:space="preserve" text-anchor="middle" x="513.88" y="-645.25" font-family="Helvetica,sans-Serif" font-size="10.00">::_handleDisplaySections</text>
</a>
</g>
</g>
<!-- Node6&#45;&gt;Node7 -->
<g id="edge7_Node000006_Node000007" class="edge">
<title>Node6&#45;&gt;Node7</title>
<g id="a_edge7_Node000006_Node000007"><a xlink:title=" ">
<path fill="none" stroke="#63b8ff" d="M408.47,-654.75C418.23,-654.75 428.53,-654.75 438.71,-654.75"/>
<polygon fill="#63b8ff" stroke="#63b8ff" points="438.6,-658.25 448.6,-654.75 438.6,-651.25 438.6,-658.25"/>
</a>
</g>
</g>
<!-- Node7&#45;&gt;Node5 -->
<g id="edge28_Node000007_Node000005" class="edge">
<title>Node7&#45;&gt;Node5</title>
<g id="a_edge28_Node000007_Node000005"><a xlink:title=" ">
<path fill="none" stroke="#63b8ff" d="M532.95,-670.41C552.92,-686.94 586.65,-712.65 619.75,-727.75 687.43,-758.6 710.1,-749.71 782,-768.75 799.1,-773.28 817.54,-778.31 834.69,-783.05"/>
<polygon fill="#63b8ff" stroke="#63b8ff" points="833.71,-786.42 844.28,-785.72 835.58,-779.67 833.71,-786.42"/>
</a>
</g>
</g>
<!-- Node8 -->
<g id="Node000008" class="node">
<title>Node8</title>
<g id="a_Node000008"><a xlink:href="class_temperature_controller.html#a1d2745c323f7094beac8f406825499b7" target="_top" xlink:title="Handle alarm display rotation timing.">
<polygon fill="white" stroke="#666666" points="776.38,-719 625.38,-719 625.38,-688.5 776.38,-688.5 776.38,-719"/>
<text xml:space="preserve" text-anchor="start" x="633.38" y="-705.5" font-family="Helvetica,sans-Serif" font-size="10.00">TemperatureController</text>
<text xml:space="preserve" text-anchor="middle" x="700.88" y="-694.25" font-family="Helvetica,sans-Serif" font-size="10.00">::_handleAlarmDisplayRotation</text>
</a>
</g>
</g>
<!-- Node7&#45;&gt;Node8 -->
<g id="edge8_Node000007_Node000008" class="edge">
<title>Node7&#45;&gt;Node8</title>
<g id="a_edge8_Node000007_Node000008"><a xlink:title=" ">
<path fill="none" stroke="#63b8ff" d="M574.17,-670.45C591.85,-675.13 611.39,-680.31 629.69,-685.16"/>
<polygon fill="#63b8ff" stroke="#63b8ff" points="628.57,-688.48 639.13,-687.66 630.36,-681.71 628.57,-688.48"/>
</a>
</g>
</g>
<!-- Node11 -->
<g id="Node000011" class="node">
<title>Node11</title>
<g id="a_Node000011"><a xlink:href="class_temperature_controller.html#a4d36576f7d6ab8f5222a082878314912" target="_top" xlink:title="Update normal temperature display.">
<polygon fill="white" stroke="#666666" points="962.62,-670 841.62,-670 841.62,-639.5 962.62,-639.5 962.62,-670"/>
<text xml:space="preserve" text-anchor="start" x="849.62" y="-656.5" font-family="Helvetica,sans-Serif" font-size="10.00">TemperatureController</text>
<text xml:space="preserve" text-anchor="middle" x="902.12" y="-645.25" font-family="Helvetica,sans-Serif" font-size="10.00">::_updateNormalDisplay</text>
</a>
</g>
</g>
<!-- Node7&#45;&gt;Node11 -->
<g id="edge32_Node000007_Node000011" class="edge">
<title>Node7&#45;&gt;Node11</title>
<g id="a_edge32_Node000007_Node000011"><a xlink:title=" ">
<path fill="none" stroke="#63b8ff" d="M577.79,-654.75C646.99,-654.75 757.92,-654.75 830.16,-654.75"/>
<polygon fill="#63b8ff" stroke="#63b8ff" points="829.9,-658.25 839.9,-654.75 829.9,-651.25 829.9,-658.25"/>
</a>
</g>
</g>
<!-- Node12 -->
<g id="Node000012" class="node">
<title>Node12</title>
<g id="a_Node000012"><a xlink:href="class_temperature_controller.html#a45f7994a3a052a527981dbfdad27606b" target="_top" xlink:title="Handle system status mode display.">
<polygon fill="white" stroke="#666666" points="771.88,-572 629.88,-572 629.88,-541.5 771.88,-541.5 771.88,-572"/>
<text xml:space="preserve" text-anchor="start" x="637.88" y="-558.5" font-family="Helvetica,sans-Serif" font-size="10.00">TemperatureController</text>
<text xml:space="preserve" text-anchor="middle" x="700.88" y="-547.25" font-family="Helvetica,sans-Serif" font-size="10.00">::_handleSystemStatusMode</text>
</a>
</g>
</g>
<!-- Node7&#45;&gt;Node12 -->
<g id="edge13_Node000007_Node000012" class="edge">
<title>Node7&#45;&gt;Node12</title>
<g id="a_edge13_Node000007_Node000012"><a xlink:title=" ">
<path fill="none" stroke="#63b8ff" d="M544.6,-639C576.02,-622.36 625.74,-596.02 660.43,-577.64"/>
<polygon fill="#63b8ff" stroke="#63b8ff" points="661.69,-580.94 668.89,-573.16 658.41,-574.75 661.69,-580.94"/>
</a>
</g>
</g>
<!-- Node26 -->
<g id="Node000026" class="node">
<title>Node26</title>
<g id="a_Node000026"><a xlink:href="class_temperature_controller.html#a477597992aa9362076843f37b648741a" target="_top" xlink:title="Update alarm display queues.">
<polygon fill="white" stroke="#666666" points="758.75,-376 643,-376 643,-345.5 758.75,-345.5 758.75,-376"/>
<text xml:space="preserve" text-anchor="start" x="651" y="-362.5" font-family="Helvetica,sans-Serif" font-size="10.00">TemperatureController</text>
<text xml:space="preserve" text-anchor="middle" x="700.88" y="-351.25" font-family="Helvetica,sans-Serif" font-size="10.00">::_updateAlarmQueues</text>
</a>
</g>
</g>
<!-- Node7&#45;&gt;Node26 -->
<g id="edge29_Node000007_Node000026" class="edge">
<title>Node7&#45;&gt;Node26</title>
<g id="a_edge29_Node000007_Node000026"><a xlink:title=" ">
<path fill="none" stroke="#63b8ff" d="M524.56,-639.35C554.65,-591.54 646.71,-445.24 683.97,-386.03"/>
<polygon fill="#63b8ff" stroke="#63b8ff" points="686.89,-387.95 689.26,-377.62 680.97,-384.22 686.89,-387.95"/>
</a>
</g>
</g>
<!-- Node8&#45;&gt;Node4 -->
<g id="edge9_Node000008_Node000004" class="edge">
<title>Node8&#45;&gt;Node4</title>
<g id="a_edge9_Node000008_Node000004"><a xlink:title=" ">
<path fill="none" stroke="#63b8ff" d="M712.48,-719.32C730.92,-745.21 771.41,-797.11 818,-825.75 820.62,-827.36 823.35,-828.87 826.15,-830.29"/>
<polygon fill="#63b8ff" stroke="#63b8ff" points="824.65,-833.45 835.2,-834.4 827.55,-827.08 824.65,-833.45"/>
</a>
</g>
</g>
<!-- Node9 -->
<g id="Node000009" class="node">
<title>Node9</title>
<g id="a_Node000009"><a xlink:href="class_temperature_controller.html#a7ca5124357f98bcd52316cf017341b09" target="_top" xlink:title="Display next active alarm in rotation.">
<polygon fill="white" stroke="#666666" points="968.25,-768 836,-768 836,-737.5 968.25,-737.5 968.25,-768"/>
<text xml:space="preserve" text-anchor="start" x="844" y="-754.5" font-family="Helvetica,sans-Serif" font-size="10.00">TemperatureController</text>
<text xml:space="preserve" text-anchor="middle" x="902.12" y="-743.25" font-family="Helvetica,sans-Serif" font-size="10.00">::_displayNextActiveAlarm</text>
</a>
</g>
</g>
<!-- Node8&#45;&gt;Node9 -->
<g id="edge10_Node000008_Node000009" class="edge">
<title>Node8&#45;&gt;Node9</title>
<g id="a_edge10_Node000008_Node000009"><a xlink:title=" ">
<path fill="none" stroke="#63b8ff" d="M765.74,-719.45C785.05,-724.2 806.42,-729.46 826.36,-734.36"/>
<polygon fill="#63b8ff" stroke="#63b8ff" points="825.26,-737.69 835.81,-736.68 826.93,-730.9 825.26,-737.69"/>
</a>
</g>
</g>
<!-- Node10 -->
<g id="Node000010" class="node">
<title>Node10</title>
<g id="a_Node000010"><a xlink:href="class_temperature_controller.html#a28e81945f5235e161e6c532b428d36d2" target="_top" xlink:title="Show OK status and turn off OLED after delay.">
<polygon fill="white" stroke="#666666" points="973.12,-719 831.12,-719 831.12,-688.5 973.12,-688.5 973.12,-719"/>
<text xml:space="preserve" text-anchor="start" x="839.12" y="-705.5" font-family="Helvetica,sans-Serif" font-size="10.00">TemperatureController</text>
<text xml:space="preserve" text-anchor="middle" x="902.12" y="-694.25" font-family="Helvetica,sans-Serif" font-size="10.00">::_showOKAndTurnOffOLED</text>
</a>
</g>
</g>
<!-- Node8&#45;&gt;Node10 -->
<g id="edge11_Node000008_Node000010" class="edge">
<title>Node8&#45;&gt;Node10</title>
<g id="a_edge11_Node000008_Node000010"><a xlink:title=" ">
<path fill="none" stroke="#63b8ff" d="M776.64,-703.75C790.66,-703.75 805.39,-703.75 819.62,-703.75"/>
<polygon fill="#63b8ff" stroke="#63b8ff" points="819.38,-707.25 829.38,-703.75 819.38,-700.25 819.38,-707.25"/>
</a>
</g>
</g>
<!-- Node8&#45;&gt;Node11 -->
<g id="edge12_Node000008_Node000011" class="edge">
<title>Node8&#45;&gt;Node11</title>
<g id="a_edge12_Node000008_Node000011"><a xlink:title=" ">
<path fill="none" stroke="#63b8ff" d="M765.74,-688.04C786.29,-682.99 809.19,-677.36 830.21,-672.19"/>
<polygon fill="#63b8ff" stroke="#63b8ff" points="831,-675.6 839.87,-669.81 829.33,-668.8 831,-675.6"/>
</a>
</g>
</g>
<!-- Node12&#45;&gt;Node5 -->
<g id="edge27_Node000012_Node000005" class="edge">
<title>Node12&#45;&gt;Node5</title>
<g id="a_edge27_Node000012_Node000005"><a xlink:title=" ">
<path fill="none" stroke="#63b8ff" d="M713.69,-572.38C730.49,-595.1 761.49,-639 782,-679.75 802.68,-720.82 784.47,-745.27 818,-776.75 823.12,-781.55 829.13,-785.44 835.54,-788.58"/>
<polygon fill="#63b8ff" stroke="#63b8ff" points="833.89,-791.68 844.46,-792.33 836.6,-785.23 833.89,-791.68"/>
</a>
</g>
</g>
<!-- Node13 -->
<g id="Node000013" class="node">
<title>Node13</title>
<g id="a_Node000013"><a xlink:href="class_temperature_controller.html#a3948ceaf046b5f06afcc9083433f532c" target="_top" xlink:title="Display alarm summary by priority.">
<polygon fill="white" stroke="#666666" points="986.25,-425 818,-425 818,-394.5 986.25,-394.5 986.25,-425"/>
<text xml:space="preserve" text-anchor="start" x="826" y="-411.5" font-family="Helvetica,sans-Serif" font-size="10.00">TemperatureController</text>
<text xml:space="preserve" text-anchor="middle" x="902.12" y="-400.25" font-family="Helvetica,sans-Serif" font-size="10.00">::_displayAlarmSummaryByPriority</text>
</a>
</g>
</g>
<!-- Node12&#45;&gt;Node13 -->
<g id="edge14_Node000012_Node000013" class="edge">
<title>Node12&#45;&gt;Node13</title>
<g id="a_edge14_Node000012_Node000013"><a xlink:title=" ">
<path fill="none" stroke="#63b8ff" d="M712.48,-541.18C730.92,-515.28 771.41,-463.38 818,-434.75 820.62,-433.14 823.35,-431.63 826.15,-430.21"/>
<polygon fill="#63b8ff" stroke="#63b8ff" points="827.55,-433.42 835.2,-426.09 824.65,-427.05 827.55,-433.42"/>
</a>
</g>
</g>
<!-- Node15 -->
<g id="Node000015" class="node">
<title>Node15</title>
<g id="a_Node000015"><a xlink:href="class_temperature_controller.html#ab5e076b045677678390603e9a805e4db" target="_top" xlink:title="Display alarm summary by type.">
<polygon fill="white" stroke="#666666" points="981.38,-572 822.88,-572 822.88,-541.5 981.38,-541.5 981.38,-572"/>
<text xml:space="preserve" text-anchor="start" x="830.88" y="-558.5" font-family="Helvetica,sans-Serif" font-size="10.00">TemperatureController</text>
<text xml:space="preserve" text-anchor="middle" x="902.12" y="-547.25" font-family="Helvetica,sans-Serif" font-size="10.00">::_displayAlarmSummaryByType</text>
</a>
</g>
</g>
<!-- Node12&#45;&gt;Node15 -->
<g id="edge16_Node000012_Node000015" class="edge">
<title>Node12&#45;&gt;Node15</title>
<g id="a_edge16_Node000012_Node000015"><a xlink:title=" ">
<path fill="none" stroke="#63b8ff" d="M772.12,-556.75C784.78,-556.75 798.12,-556.75 811.24,-556.75"/>
<polygon fill="#63b8ff" stroke="#63b8ff" points="811.17,-560.25 821.17,-556.75 811.17,-553.25 811.17,-560.25"/>
</a>
</g>
</g>
<!-- Node16 -->
<g id="Node000016" class="node">
<title>Node16</title>
<g id="a_Node000016"><a xlink:href="class_temperature_controller.html#a5fc773a967cea261f21bbe86d90d2586" target="_top" xlink:title="Display Modbus status page.">
<polygon fill="white" stroke="#666666" points="962.62,-523 841.62,-523 841.62,-492.5 962.62,-492.5 962.62,-523"/>
<text xml:space="preserve" text-anchor="start" x="849.62" y="-509.5" font-family="Helvetica,sans-Serif" font-size="10.00">TemperatureController</text>
<text xml:space="preserve" text-anchor="middle" x="902.12" y="-498.25" font-family="Helvetica,sans-Serif" font-size="10.00">::_displayModbusStatus</text>
</a>
</g>
</g>
<!-- Node12&#45;&gt;Node16 -->
<g id="edge17_Node000012_Node000016" class="edge">
<title>Node12&#45;&gt;Node16</title>
<g id="a_edge17_Node000012_Node000016"><a xlink:title=" ">
<path fill="none" stroke="#63b8ff" d="M765.74,-541.04C786.29,-535.99 809.19,-530.36 830.21,-525.19"/>
<polygon fill="#63b8ff" stroke="#63b8ff" points="831,-528.6 839.87,-522.81 829.33,-521.8 831,-528.6"/>
</a>
</g>
</g>
<!-- Node17 -->
<g id="Node000017" class="node">
<title>Node17</title>
<g id="a_Node000017"><a xlink:href="class_temperature_controller.html#a2436c7043d97ca75c717db2b87326d90" target="_top" xlink:title="Display network info page.">
<polygon fill="white" stroke="#666666" points="958.12,-474 846.12,-474 846.12,-443.5 958.12,-443.5 958.12,-474"/>
<text xml:space="preserve" text-anchor="start" x="854.12" y="-460.5" font-family="Helvetica,sans-Serif" font-size="10.00">TemperatureController</text>
<text xml:space="preserve" text-anchor="middle" x="902.12" y="-449.25" font-family="Helvetica,sans-Serif" font-size="10.00">::_displayNetworkInfo</text>
</a>
</g>
</g>
<!-- Node12&#45;&gt;Node17 -->
<g id="edge18_Node000012_Node000017" class="edge">
<title>Node12&#45;&gt;Node17</title>
<g id="a_edge18_Node000012_Node000017"><a xlink:title=" ">
<path fill="none" stroke="#63b8ff" d="M722.73,-541.2C745.25,-525.01 782.66,-499.81 818,-483.75 823.49,-481.25 829.29,-478.93 835.17,-476.78"/>
<polygon fill="#63b8ff" stroke="#63b8ff" points="836.07,-480.17 844.37,-473.6 833.78,-473.56 836.07,-480.17"/>
</a>
</g>
</g>
<!-- Node18 -->
<g id="Node000018" class="node">
<title>Node18</title>
<g id="a_Node000018"><a xlink:href="class_temperature_controller.html#a45d13ed72fd36b46820af631e4db958b" target="_top" xlink:title="Display system stats page.">
<polygon fill="white" stroke="#666666" points="959.62,-621 844.62,-621 844.62,-590.5 959.62,-590.5 959.62,-621"/>
<text xml:space="preserve" text-anchor="start" x="852.62" y="-607.5" font-family="Helvetica,sans-Serif" font-size="10.00">TemperatureController</text>
<text xml:space="preserve" text-anchor="middle" x="902.12" y="-596.25" font-family="Helvetica,sans-Serif" font-size="10.00">::_displaySystemStats</text>
</a>
</g>
</g>
<!-- Node12&#45;&gt;Node18 -->
<g id="edge19_Node000012_Node000018" class="edge">
<title>Node12&#45;&gt;Node18</title>
<g id="a_edge19_Node000012_Node000018"><a xlink:title=" ">
<path fill="none" stroke="#63b8ff" d="M765.74,-572.45C787.26,-577.74 811.35,-583.67 833.17,-589.03"/>
<polygon fill="#63b8ff" stroke="#63b8ff" points="832.33,-592.43 842.88,-591.42 834,-585.64 832.33,-592.43"/>
</a>
</g>
</g>
<!-- Node14 -->
<g id="Node000014" class="node">
<title>Node14</title>
<g id="a_Node000014"><a xlink:href="class_temperature_controller.html#a3022c7a72adb45a7800d5189eecdac4e" target="_top" xlink:title="Get total number of configured alarms.">
<polygon fill="white" stroke="#666666" points="1134.25,-295 1022.25,-295 1022.25,-264.5 1134.25,-264.5 1134.25,-295"/>
<text xml:space="preserve" text-anchor="start" x="1030.25" y="-281.5" font-family="Helvetica,sans-Serif" font-size="10.00">TemperatureController</text>
<text xml:space="preserve" text-anchor="middle" x="1078.25" y="-270.25" font-family="Helvetica,sans-Serif" font-size="10.00">::getAlarmCount</text>
</a>
</g>
</g>
<!-- Node13&#45;&gt;Node14 -->
<g id="edge15_Node000013_Node000014" class="edge">
<title>Node13&#45;&gt;Node14</title>
<g id="a_edge15_Node000013_Node000014"><a xlink:title=" ">
<path fill="none" stroke="#63b8ff" d="M968.27,-394.12C974.57,-391.45 980.68,-388.35 986.25,-384.75 1018.32,-363.99 1045.54,-328.73 1061.63,-304.85"/>
<polygon fill="#63b8ff" stroke="#63b8ff" points="1064.45,-306.94 1067,-296.66 1058.6,-303.11 1064.45,-306.94"/>
</a>
</g>
</g>
<!-- Node19 -->
<g id="Node000019" class="node">
<title>Node19</title>
<g id="a_Node000019"><a xlink:href="class_temperature_controller.html#a9b4fe09d4c87dcf86e78b890012e1e72" target="_top" xlink:title="Get sensor bound to measurement point.">
<polygon fill="white" stroke="#666666" points="1134.25,-621 1022.25,-621 1022.25,-590.5 1134.25,-590.5 1134.25,-621"/>
<text xml:space="preserve" text-anchor="start" x="1030.25" y="-607.5" font-family="Helvetica,sans-Serif" font-size="10.00">TemperatureController</text>
<text xml:space="preserve" text-anchor="middle" x="1078.25" y="-596.25" font-family="Helvetica,sans-Serif" font-size="10.00">::getBoundSensor</text>
</a>
</g>
</g>
<!-- Node18&#45;&gt;Node19 -->
<g id="edge20_Node000018_Node000019" class="edge">
<title>Node18&#45;&gt;Node19</title>
<g id="a_edge20_Node000018_Node000019"><a xlink:title=" ">
<path fill="none" stroke="#63b8ff" d="M959.66,-605.75C975.88,-605.75 993.71,-605.75 1010.48,-605.75"/>
<polygon fill="#63b8ff" stroke="#63b8ff" points="1010.38,-609.25 1020.38,-605.75 1010.38,-602.25 1010.38,-609.25"/>
</a>
</g>
</g>
<!-- Node24 -->
<g id="Node000024" class="node">
<title>Node24</title>
<g id="a_Node000024"><a xlink:href="class_temperature_controller.html#a9ac5f76def1895a8c8f8f92ce8cd2e5c" target="_top" xlink:title="Get count of discovered DS18B20 sensors.">
<polygon fill="white" stroke="#666666" points="1134.25,-572 1022.25,-572 1022.25,-541.5 1134.25,-541.5 1134.25,-572"/>
<text xml:space="preserve" text-anchor="start" x="1030.25" y="-558.5" font-family="Helvetica,sans-Serif" font-size="10.00">TemperatureController</text>
<text xml:space="preserve" text-anchor="middle" x="1078.25" y="-547.25" font-family="Helvetica,sans-Serif" font-size="10.00">::getDS18B20Count</text>
</a>
</g>
</g>
<!-- Node18&#45;&gt;Node24 -->
<g id="edge25_Node000018_Node000024" class="edge">
<title>Node18&#45;&gt;Node24</title>
<g id="a_edge25_Node000018_Node000024"><a xlink:title=" ">
<path fill="none" stroke="#63b8ff" d="M958.7,-590.11C975.43,-585.4 993.95,-580.19 1011.29,-575.31"/>
<polygon fill="#63b8ff" stroke="#63b8ff" points="1011.77,-578.81 1020.45,-572.73 1009.88,-572.07 1011.77,-578.81"/>
</a>
</g>
</g>
<!-- Node25 -->
<g id="Node000025" class="node">
<title>Node25</title>
<g id="a_Node000025"><a xlink:href="class_temperature_controller.html#a6ab2ecc10c283d75d948ce6f1ad723a6" target="_top" xlink:title="Get count of discovered PT1000 sensors.">
<polygon fill="white" stroke="#666666" points="1134.25,-670 1022.25,-670 1022.25,-639.5 1134.25,-639.5 1134.25,-670"/>
<text xml:space="preserve" text-anchor="start" x="1030.25" y="-656.5" font-family="Helvetica,sans-Serif" font-size="10.00">TemperatureController</text>
<text xml:space="preserve" text-anchor="middle" x="1078.25" y="-645.25" font-family="Helvetica,sans-Serif" font-size="10.00">::getPT1000Count</text>
</a>
</g>
</g>
<!-- Node18&#45;&gt;Node25 -->
<g id="edge26_Node000018_Node000025" class="edge">
<title>Node18&#45;&gt;Node25</title>
<g id="a_edge26_Node000018_Node000025"><a xlink:title=" ">
<path fill="none" stroke="#63b8ff" d="M958.7,-621.38C975.43,-626.09 993.95,-631.31 1011.29,-636.19"/>
<polygon fill="#63b8ff" stroke="#63b8ff" points="1009.88,-639.42 1020.45,-638.76 1011.77,-632.68 1009.88,-639.42"/>
</a>
</g>
</g>
<!-- Node20 -->
<g id="Node000020" class="node">
<title>Node20</title>
<g id="a_Node000020"><a xlink:href="class_measurement_point.html#a81c7ae93a9314344967d0f31c6fefe2f" target="_top" xlink:title="Get pointer to bound sensor.">
<polygon fill="white" stroke="#666666" points="1315.25,-645 1170.25,-645 1170.25,-614.5 1315.25,-614.5 1315.25,-645"/>
<text xml:space="preserve" text-anchor="start" x="1178.25" y="-631.5" font-family="Helvetica,sans-Serif" font-size="10.00">MeasurementPoint::getBound</text>
<text xml:space="preserve" text-anchor="middle" x="1242.75" y="-620.25" font-family="Helvetica,sans-Serif" font-size="10.00">Sensor</text>
</a>
</g>
</g>
<!-- Node19&#45;&gt;Node20 -->
<g id="edge21_Node000019_Node000020" class="edge">
<title>Node19&#45;&gt;Node20</title>
<g id="a_edge21_Node000019_Node000020"><a xlink:title=" ">
<path fill="none" stroke="#63b8ff" d="M1134.72,-613.94C1142.41,-615.07 1150.44,-616.26 1158.49,-617.45"/>
<polygon fill="#63b8ff" stroke="#63b8ff" points="1157.96,-620.91 1168.37,-618.91 1158.99,-613.98 1157.96,-620.91"/>
</a>
</g>
</g>
<!-- Node21 -->
<g id="Node000021" class="node">
<title>Node21</title>
<g id="a_Node000021"><a xlink:href="class_temperature_controller.html#a494f057c234b4ff7526bde271aec9267" target="_top" xlink:title="Get measurement point by address.">
<polygon fill="white" stroke="#666666" points="1301.38,-596 1184.12,-596 1184.12,-565.5 1301.38,-565.5 1301.38,-596"/>
<text xml:space="preserve" text-anchor="start" x="1192.12" y="-582.5" font-family="Helvetica,sans-Serif" font-size="10.00">TemperatureController</text>
<text xml:space="preserve" text-anchor="middle" x="1242.75" y="-571.25" font-family="Helvetica,sans-Serif" font-size="10.00">::getMeasurementPoint</text>
</a>
</g>
</g>
<!-- Node19&#45;&gt;Node21 -->
<g id="edge22_Node000019_Node000021" class="edge">
<title>Node19&#45;&gt;Node21</title>
<g id="a_edge22_Node000019_Node000021"><a xlink:title=" ">
<path fill="none" stroke="#63b8ff" d="M1134.72,-597.21C1146.95,-595.33 1160.05,-593.32 1172.74,-591.36"/>
<polygon fill="#63b8ff" stroke="#63b8ff" points="1172.91,-594.88 1182.27,-589.9 1171.85,-587.96 1172.91,-594.88"/>
</a>
</g>
</g>
<!-- Node22 -->
<g id="Node000022" class="node">
<title>Node22</title>
<g id="a_Node000022"><a xlink:href="class_temperature_controller.html#ad322a5bab8d5788a586206004248f673" target="_top" xlink:title="Check if address is for DS18B20 sensor.">
<polygon fill="white" stroke="#666666" points="1463.25,-621 1351.25,-621 1351.25,-590.5 1463.25,-590.5 1463.25,-621"/>
<text xml:space="preserve" text-anchor="start" x="1359.25" y="-607.5" font-family="Helvetica,sans-Serif" font-size="10.00">TemperatureController</text>
<text xml:space="preserve" text-anchor="middle" x="1407.25" y="-596.25" font-family="Helvetica,sans-Serif" font-size="10.00">::isDS18B20Address</text>
</a>
</g>
</g>
<!-- Node21&#45;&gt;Node22 -->
<g id="edge23_Node000021_Node000022" class="edge">
<title>Node21&#45;&gt;Node22</title>
<g id="a_edge23_Node000021_Node000022"><a xlink:title=" ">
<path fill="none" stroke="#63b8ff" d="M1301.5,-589.63C1313.92,-591.54 1327.14,-593.57 1339.85,-595.53"/>
<polygon fill="#63b8ff" stroke="#63b8ff" points="1338.95,-598.93 1349.37,-597 1340.02,-592.02 1338.95,-598.93"/>
</a>
</g>
</g>
<!-- Node23 -->
<g id="Node000023" class="node">
<title>Node23</title>
<g id="a_Node000023"><a xlink:href="class_temperature_controller.html#a13125ddcf29cb56d27403818543618af" target="_top" xlink:title="Check if address is for PT1000 sensor.">
<polygon fill="white" stroke="#666666" points="1463.25,-572 1351.25,-572 1351.25,-541.5 1463.25,-541.5 1463.25,-572"/>
<text xml:space="preserve" text-anchor="start" x="1359.25" y="-558.5" font-family="Helvetica,sans-Serif" font-size="10.00">TemperatureController</text>
<text xml:space="preserve" text-anchor="middle" x="1407.25" y="-547.25" font-family="Helvetica,sans-Serif" font-size="10.00">::isPT1000Address</text>
</a>
</g>
</g>
<!-- Node21&#45;&gt;Node23 -->
<g id="edge24_Node000021_Node000023" class="edge">
<title>Node21&#45;&gt;Node23</title>
<g id="a_edge24_Node000021_Node000023"><a xlink:title=" ">
<path fill="none" stroke="#63b8ff" d="M1301.5,-572.22C1313.92,-570.38 1327.14,-568.43 1339.85,-566.55"/>
<polygon fill="#63b8ff" stroke="#63b8ff" points="1339.99,-570.07 1349.37,-565.15 1338.96,-563.15 1339.99,-570.07"/>
</a>
</g>
</g>
<!-- Node27 -->
<g id="Node000027" class="node">
<title>Node27</title>
<g id="a_Node000027"><a xlink:href="class_temperature_controller.html#af58201023d15de003d4f1b9a9771a9e3" target="_top" xlink:title="Get list of active alarms.">
<polygon fill="white" stroke="#666666" points="958.12,-376 846.12,-376 846.12,-345.5 958.12,-345.5 958.12,-376"/>
<text xml:space="preserve" text-anchor="start" x="854.12" y="-362.5" font-family="Helvetica,sans-Serif" font-size="10.00">TemperatureController</text>
<text xml:space="preserve" text-anchor="middle" x="902.12" y="-351.25" font-family="Helvetica,sans-Serif" font-size="10.00">::getActiveAlarms</text>
</a>
</g>
</g>
<!-- Node26&#45;&gt;Node27 -->
<g id="edge30_Node000026_Node000027" class="edge">
<title>Node26&#45;&gt;Node27</title>
<g id="a_edge30_Node000026_Node000027"><a xlink:title=" ">
<path fill="none" stroke="#63b8ff" d="M759.24,-360.75C782.76,-360.75 810.14,-360.75 834.54,-360.75"/>
<polygon fill="#63b8ff" stroke="#63b8ff" points="834.37,-364.25 844.37,-360.75 834.37,-357.25 834.37,-364.25"/>
</a>
</g>
</g>
<!-- Node28 -->
<g id="Node000028" class="node">
<title>Node28</title>
<g id="a_Node000028"><a xlink:href="class_alarm.html#a7a4a3290a6a659542f82fe08a96736a8" target="_top" xlink:title="Get the alarm creation timestamp.">
<polygon fill="white" stroke="#666666" points="957,-327.37 847.25,-327.37 847.25,-308.12 957,-308.12 957,-327.37"/>
<text xml:space="preserve" text-anchor="middle" x="902.12" y="-313.87" font-family="Helvetica,sans-Serif" font-size="10.00">Alarm::getTimestamp</text>
</a>
</g>
</g>
<!-- Node26&#45;&gt;Node28 -->
<g id="edge31_Node000026_Node000028" class="edge">
<title>Node26&#45;&gt;Node28</title>
<g id="a_edge31_Node000026_Node000028"><a xlink:title=" ">
<path fill="none" stroke="#63b8ff" d="M759.24,-348.37C785.59,-342.68 816.79,-335.95 843.22,-330.24"/>
<polygon fill="#63b8ff" stroke="#63b8ff" points="843.7,-333.72 852.74,-328.19 842.23,-326.88 843.7,-333.72"/>
</a>
</g>
</g>
<!-- Node29&#45;&gt;Node14 -->
<g id="edge34_Node000029_Node000014" class="edge">
<title>Node29&#45;&gt;Node14</title>
<g id="a_edge34_Node000029_Node000014"><a xlink:title=" ">
<path fill="none" stroke="#63b8ff" d="M408.33,-279.75C539.52,-279.75 869.07,-279.75 1010.78,-279.75"/>
<polygon fill="#63b8ff" stroke="#63b8ff" points="1010.35,-283.25 1020.35,-279.75 1010.35,-276.25 1010.35,-283.25"/>
</a>
</g>
</g>
<!-- Node30 -->
<g id="Node000030" class="node">
<title>Node30</title>
<g id="a_Node000030"><a xlink:href="class_logger_manager.html#a5c1373ccc47f4112b596fe6f84fbbc21" target="_top" xlink:title="Log informational message (static convenience method)">
<polygon fill="white" stroke="#666666" points="566.12,-251.37 461.62,-251.37 461.62,-232.12 566.12,-232.12 566.12,-251.37"/>
<text xml:space="preserve" text-anchor="middle" x="513.88" y="-237.87" font-family="Helvetica,sans-Serif" font-size="10.00">LoggerManager::info</text>
</a>
</g>
</g>
<!-- Node29&#45;&gt;Node30 -->
<g id="edge35_Node000029_Node000030" class="edge">
<title>Node29&#45;&gt;Node30</title>
<g id="a_edge35_Node000029_Node000030"><a xlink:title=" ">
<path fill="none" stroke="#63b8ff" d="M408.47,-266.56C424.96,-262.64 442.98,-258.36 459.34,-254.47"/>
<polygon fill="#63b8ff" stroke="#63b8ff" points="459.97,-257.92 468.89,-252.2 458.35,-251.11 459.97,-257.92"/>
</a>
</g>
</g>
<!-- Node33 -->
<g id="Node000033" class="node">
<title>Node33</title>
<g id="a_Node000033"><a xlink:href="class_logger_manager.html#aef24f00186213fa78be3b104a50d58e6" target="_top" xlink:title="Log error message (static convenience method)">
<polygon fill="white" stroke="#666666" points="956.25,-165.37 848,-165.37 848,-146.12 956.25,-146.12 956.25,-165.37"/>
<text xml:space="preserve" text-anchor="middle" x="902.12" y="-151.87" font-family="Helvetica,sans-Serif" font-size="10.00">LoggerManager::error</text>
</a>
</g>
</g>
<!-- Node32&#45;&gt;Node33 -->
<g id="edge39_Node000032_Node000033" class="edge">
<title>Node32&#45;&gt;Node33</title>
<g id="a_edge39_Node000032_Node000033"><a xlink:title=" ">
<path fill="none" stroke="#63b8ff" d="M386.16,-65.03C460.51,-32.17 644.79,35.94 782,-24.75 833.58,-47.56 872.41,-104.96 890.28,-135.65"/>
<polygon fill="#63b8ff" stroke="#63b8ff" points="887.2,-137.32 895.15,-144.32 893.3,-133.89 887.2,-137.32"/>
</a>
</g>
</g>
<!-- Node34 -->
<g id="Node000034" class="node">
<title>Node34</title>
<g id="a_Node000034"><a xlink:href="class_temperature_controller.html#a01e04714a1712aa10c34276850971a12" target="_top" xlink:title="Get bus number for a sensor.">
<polygon fill="white" stroke="#666666" points="569.88,-96 457.88,-96 457.88,-65.5 569.88,-65.5 569.88,-96"/>
<text xml:space="preserve" text-anchor="start" x="465.88" y="-82.5" font-family="Helvetica,sans-Serif" font-size="10.00">TemperatureController</text>
<text xml:space="preserve" text-anchor="middle" x="513.88" y="-71.25" font-family="Helvetica,sans-Serif" font-size="10.00">::getSensorBus</text>
</a>
</g>
</g>
<!-- Node32&#45;&gt;Node34 -->
<g id="edge40_Node000032_Node000034" class="edge">
<title>Node32&#45;&gt;Node34</title>
<g id="a_edge40_Node000032_Node000034"><a xlink:title=" ">
<path fill="none" stroke="#63b8ff" d="M408.47,-80.75C420.62,-80.75 433.61,-80.75 446.15,-80.75"/>
<polygon fill="#63b8ff" stroke="#63b8ff" points="445.99,-84.25 455.99,-80.75 445.99,-77.25 445.99,-84.25"/>
</a>
</g>
</g>
<!-- Node35 -->
<g id="Node000035" class="node">
<title>Node35</title>
<g id="a_Node000035"><a xlink:href="class_sensor.html#ac42da3a37b0d6a9622344fe83f4c9047" target="_top" xlink:title="Get OneWire bus pin.">
<polygon fill="white" stroke="#666666" points="760.25,-127.37 641.5,-127.37 641.5,-108.12 760.25,-108.12 760.25,-127.37"/>
<text xml:space="preserve" text-anchor="middle" x="700.88" y="-113.87" font-family="Helvetica,sans-Serif" font-size="10.00">Sensor::getOneWirePin</text>
</a>
</g>
</g>
<!-- Node34&#45;&gt;Node35 -->
<g id="edge41_Node000034_Node000035" class="edge">
<title>Node34&#45;&gt;Node35</title>
<g id="a_edge41_Node000034_Node000035"><a xlink:title=" ">
<path fill="none" stroke="#63b8ff" d="M570.13,-91.8C591.53,-96.08 616.12,-100.99 638.1,-105.39"/>
<polygon fill="#63b8ff" stroke="#63b8ff" points="637.34,-108.81 647.84,-107.34 638.72,-101.95 637.34,-108.81"/>
</a>
</g>
</g>
<!-- Node36 -->
<g id="Node000036" class="node">
<title>Node36</title>
<g id="a_Node000036"><a xlink:href="class_sensor.html#a6f57825e90b759ccdb9fe07b3a36953d" target="_top" xlink:title="Get PT1000 chip select pin.">
<polygon fill="white" stroke="#666666" points="782,-90.37 619.75,-90.37 619.75,-71.12 782,-71.12 782,-90.37"/>
<text xml:space="preserve" text-anchor="middle" x="700.88" y="-76.87" font-family="Helvetica,sans-Serif" font-size="10.00">Sensor::getPT1000ChipSelectPin</text>
</a>
</g>
</g>
<!-- Node34&#45;&gt;Node36 -->
<g id="edge42_Node000034_Node000036" class="edge">
<title>Node34&#45;&gt;Node36</title>
<g id="a_edge42_Node000034_Node000036"><a xlink:title=" ">
<path fill="none" stroke="#63b8ff" d="M570.13,-80.75C582.07,-80.75 595.01,-80.75 607.93,-80.75"/>
<polygon fill="#63b8ff" stroke="#63b8ff" points="607.74,-84.25 617.74,-80.75 607.74,-77.25 607.74,-84.25"/>
</a>
</g>
</g>
<!-- Node37 -->
<g id="Node000037" class="node">
<title>Node37</title>
<g id="a_Node000037"><a xlink:href="class_sensor.html#a0f6f095e7cfdfffb2a395dfdae7cfa53" target="_top" xlink:title="Get sensor type.">
<polygon fill="white" stroke="#666666" points="744.5,-53.37 657.25,-53.37 657.25,-34.12 744.5,-34.12 744.5,-53.37"/>
<text xml:space="preserve" text-anchor="middle" x="700.88" y="-39.87" font-family="Helvetica,sans-Serif" font-size="10.00">Sensor::getType</text>
</a>
</g>
</g>
<!-- Node34&#45;&gt;Node37 -->
<g id="edge43_Node000034_Node000037" class="edge">
<title>Node34&#45;&gt;Node37</title>
<g id="a_edge43_Node000034_Node000037"><a xlink:title=" ">
<path fill="none" stroke="#63b8ff" d="M570.13,-69.7C594.12,-64.9 622.12,-59.3 645.96,-54.53"/>
<polygon fill="#63b8ff" stroke="#63b8ff" points="646.34,-58.02 655.45,-52.63 644.96,-51.16 646.34,-58.02"/>
</a>
</g>
</g>
<!-- Node39 -->
<g id="Node000039" class="node">
<title>Node39</title>
<g id="a_Node000039"><a xlink:href="class_temperature_controller.html#aac890ae08b5eddcf272771ecdba61453" target="_top" xlink:title="Get relay actual state.">
<polygon fill="white" stroke="#666666" points="569.88,-165 457.88,-165 457.88,-134.5 569.88,-134.5 569.88,-165"/>
<text xml:space="preserve" text-anchor="start" x="465.88" y="-151.5" font-family="Helvetica,sans-Serif" font-size="10.00">TemperatureController</text>
<text xml:space="preserve" text-anchor="middle" x="513.88" y="-140.25" font-family="Helvetica,sans-Serif" font-size="10.00">::getRelayActualState</text>
</a>
</g>
</g>
<!-- Node38&#45;&gt;Node39 -->
<g id="edge45_Node000038_Node000039" class="edge">
<title>Node38&#45;&gt;Node39</title>
<g id="a_edge45_Node000038_Node000039"><a xlink:title=" ">
<path fill="none" stroke="#63b8ff" d="M408.47,-170.64C420.74,-168.19 433.87,-165.56 446.53,-163.02"/>
<polygon fill="#63b8ff" stroke="#63b8ff" points="446.9,-166.52 456.02,-161.13 445.53,-159.66 446.9,-166.52"/>
</a>
</g>
</g>
<!-- Node40 -->
<g id="Node000040" class="node">
<title>Node40</title>
<g id="a_Node000040"><a xlink:href="class_temperature_controller.html#a20a14014a639f3390dba82a6cd39d067" target="_top" xlink:title="Get relay commanded state.">
<polygon fill="white" stroke="#666666" points="583.75,-214 444,-214 444,-183.5 583.75,-183.5 583.75,-214"/>
<text xml:space="preserve" text-anchor="start" x="452" y="-200.5" font-family="Helvetica,sans-Serif" font-size="10.00">TemperatureController</text>
<text xml:space="preserve" text-anchor="middle" x="513.88" y="-189.25" font-family="Helvetica,sans-Serif" font-size="10.00">::getRelayCommandedState</text>
</a>
</g>
</g>
<!-- Node38&#45;&gt;Node40 -->
<g id="edge47_Node000038_Node000040" class="edge">
<title>Node38&#45;&gt;Node40</title>
<g id="a_edge47_Node000038_Node000040"><a xlink:title=" ">
<path fill="none" stroke="#63b8ff" d="M408.47,-187.64C416.19,-188.47 424.25,-189.32 432.32,-190.18"/>
<polygon fill="#63b8ff" stroke="#63b8ff" points="431.88,-193.65 442.2,-191.23 432.62,-186.69 431.88,-193.65"/>
</a>
</g>
</g>
<!-- Node39&#45;&gt;Node33 -->
<g id="edge46_Node000039_Node000033" class="edge">
<title>Node39&#45;&gt;Node33</title>
<g id="a_edge46_Node000039_Node000033"><a xlink:title=" ">
<path fill="none" stroke="#63b8ff" d="M570.22,-150.61C640.65,-151.7 762.11,-153.59 836.66,-154.74"/>
<polygon fill="#63b8ff" stroke="#63b8ff" points="836.18,-158.24 846.24,-154.89 836.29,-151.24 836.18,-158.24"/>
</a>
</g>
</g>
<!-- Node40&#45;&gt;Node14 -->
<g id="edge48_Node000040_Node000014" class="edge">
<title>Node40&#45;&gt;Node14</title>
<g id="a_edge48_Node000040_Node000014"><a xlink:title=" ">
<path fill="none" stroke="#63b8ff" d="M578.43,-214.45C592.01,-217.48 606.31,-220.43 619.75,-222.75 781.37,-250.64 823.73,-243.72 986.25,-265.75 994.2,-266.82 1002.53,-268.02 1010.79,-269.24"/>
<polygon fill="#63b8ff" stroke="#63b8ff" points="1010.05,-272.67 1020.46,-270.69 1011.09,-265.74 1010.05,-272.67"/>
</a>
</g>
</g>
<!-- Node41 -->
<g id="Node000041" class="node">
<title>Node41</title>
<g id="a_Node000041"><a xlink:href="class_temperature_controller.html#a61ff288cbeaa86dc21c610c778dba64e" target="_top" xlink:title="Get relay control mode.">
<polygon fill="white" stroke="#666666" points="759.12,-214 642.62,-214 642.62,-183.5 759.12,-183.5 759.12,-214"/>
<text xml:space="preserve" text-anchor="start" x="650.62" y="-200.5" font-family="Helvetica,sans-Serif" font-size="10.00">TemperatureController</text>
<text xml:space="preserve" text-anchor="middle" x="700.88" y="-189.25" font-family="Helvetica,sans-Serif" font-size="10.00">::getRelayControlMode</text>
</a>
</g>
</g>
<!-- Node40&#45;&gt;Node41 -->
<g id="edge49_Node000040_Node000041" class="edge">
<title>Node40&#45;&gt;Node41</title>
<g id="a_edge49_Node000040_Node000041"><a xlink:title=" ">
<path fill="none" stroke="#63b8ff" d="M584.03,-198.75C599.32,-198.75 615.52,-198.75 630.81,-198.75"/>
<polygon fill="#63b8ff" stroke="#63b8ff" points="630.78,-202.25 640.78,-198.75 630.78,-195.25 630.78,-202.25"/>
</a>
</g>
</g>
<!-- Node41&#45;&gt;Node33 -->
<g id="edge50_Node000041_Node000033" class="edge">
<title>Node41&#45;&gt;Node33</title>
<g id="a_edge50_Node000041_Node000033"><a xlink:title=" ">
<path fill="none" stroke="#63b8ff" d="M759.51,-186.31C785.85,-180.62 817,-173.9 843.36,-168.21"/>
<polygon fill="#63b8ff" stroke="#63b8ff" points="843.83,-171.69 852.86,-166.16 842.35,-164.85 843.83,-171.69"/>
</a>
</g>
</g>
</g>
</svg>
