<?xml version="1.0" encoding="UTF-8" standalone="no"?>
<!DOCTYPE svg PUBLIC "-//W3C//DTD SVG 1.1//EN"
 "http://www.w3.org/Graphics/SVG/1.1/DTD/svg11.dtd">
<!-- Generated by graphviz version 13.1.0 (20250701.0955)
 -->
<!-- Title: LoggerManager::logInfo Pages: 1 -->
<svg width="689pt" height="211pt"
 viewBox="0.00 0.00 689.00 211.00" xmlns="http://www.w3.org/2000/svg" xmlns:xlink="http://www.w3.org/1999/xlink">
<g id="graph0" class="graph" transform="scale(1 1) rotate(0) translate(4 206.88)">
<title>LoggerManager::logInfo</title>
<!-- Node1 -->
<g id="Node000001" class="node">
<title>Node1</title>
<g id="a_Node000001"><a xlink:title=" ">
<polygon fill="#999999" stroke="#666666" points="118,-105.25 0,-105.25 0,-86 118,-86 118,-105.25"/>
<text xml:space="preserve" text-anchor="middle" x="59" y="-91.75" font-family="Helvetica,sans-Serif" font-size="10.00">LoggerManager::logInfo</text>
</a>
</g>
</g>
<!-- Node2 -->
<g id="Node000002" class="node">
<title>Node2</title>
<g id="a_Node000002"><a xlink:href="$class_logger_manager.html#a0df2f2c96123da1989d0aaf6a4dc1615" xlink:title=" ">
<polygon fill="white" stroke="#666666" points="281,-105.25 154,-105.25 154,-86 281,-86 281,-105.25"/>
<text xml:space="preserve" text-anchor="middle" x="217.5" y="-91.75" font-family="Helvetica,sans-Serif" font-size="10.00">LoggerManager::logEvent</text>
</a>
</g>
</g>
<!-- Node1&#45;&gt;Node2 -->
<g id="edge1_Node000001_Node000002" class="edge">
<title>Node1&#45;&gt;Node2</title>
<g id="a_edge1_Node000001_Node000002"><a xlink:title=" ">
<path fill="none" stroke="#63b8ff" d="M118.27,-95.62C126.13,-95.62 134.27,-95.62 142.36,-95.62"/>
<polygon fill="#63b8ff" stroke="#63b8ff" points="142.2,-99.13 152.2,-95.63 142.2,-92.13 142.2,-99.13"/>
</a>
</g>
</g>
<!-- Node3 -->
<g id="Node000003" class="node">
<title>Node3</title>
<g id="a_Node000003"><a xlink:href="$class_logger_manager.html#a4f7591a3b5cb024b7354005b4362e049" xlink:title=" ">
<polygon fill="white" stroke="#666666" points="471.75,-202.88 323,-202.88 323,-172.38 471.75,-172.38 471.75,-202.88"/>
<text xml:space="preserve" text-anchor="start" x="331" y="-189.38" font-family="Helvetica,sans-Serif" font-size="10.00">LoggerManager::_ensureEvent</text>
<text xml:space="preserve" text-anchor="middle" x="397.38" y="-178.12" font-family="Helvetica,sans-Serif" font-size="10.00">LogExists</text>
</a>
</g>
</g>
<!-- Node2&#45;&gt;Node3 -->
<g id="edge2_Node000002_Node000003" class="edge">
<title>Node2&#45;&gt;Node3</title>
<g id="a_edge2_Node000002_Node000003"><a xlink:title=" ">
<path fill="none" stroke="#63b8ff" d="M230.53,-105.54C248.41,-119.86 283.5,-146.39 317,-162.62 320.91,-164.52 325,-166.31 329.17,-168.01"/>
<polygon fill="#63b8ff" stroke="#63b8ff" points="327.64,-171.17 338.23,-171.46 330.13,-164.63 327.64,-171.17"/>
</a>
</g>
</g>
<!-- Node5 -->
<g id="Node000005" class="node">
<title>Node5</title>
<g id="a_Node000005"><a xlink:href="$class_logger_manager.html#a9cf35430e1e61515c6fb12524a58f1ab" xlink:title=" ">
<polygon fill="white" stroke="#666666" points="463.12,-153.88 331.62,-153.88 331.62,-123.38 463.12,-123.38 463.12,-153.88"/>
<text xml:space="preserve" text-anchor="start" x="339.62" y="-140.38" font-family="Helvetica,sans-Serif" font-size="10.00">LoggerManager::_generate</text>
<text xml:space="preserve" text-anchor="middle" x="397.38" y="-129.12" font-family="Helvetica,sans-Serif" font-size="10.00">EventLogFileName</text>
</a>
</g>
</g>
<!-- Node2&#45;&gt;Node5 -->
<g id="edge4_Node000002_Node000005" class="edge">
<title>Node2&#45;&gt;Node5</title>
<g id="a_edge4_Node000002_Node000005"><a xlink:title=" ">
<path fill="none" stroke="#63b8ff" d="M260.2,-105.71C278.13,-110.04 299.67,-115.25 320.27,-120.23"/>
<polygon fill="#63b8ff" stroke="#63b8ff" points="319.25,-123.58 329.79,-122.53 320.89,-116.78 319.25,-123.58"/>
</a>
</g>
</g>
<!-- Node6 -->
<g id="Node000006" class="node">
<title>Node6</title>
<g id="a_Node000006"><a xlink:href="$class_logger_manager.html#a3ca0b934265a4d9ce6391bf97dec179a" xlink:title=" ">
<polygon fill="white" stroke="#666666" points="667.38,-131.88 527.62,-131.88 527.62,-101.38 667.38,-101.38 667.38,-131.88"/>
<text xml:space="preserve" text-anchor="start" x="535.62" y="-118.38" font-family="Helvetica,sans-Serif" font-size="10.00">LoggerManager::_getCurrent</text>
<text xml:space="preserve" text-anchor="middle" x="597.5" y="-107.12" font-family="Helvetica,sans-Serif" font-size="10.00">DateString</text>
</a>
</g>
</g>
<!-- Node2&#45;&gt;Node6 -->
<g id="edge6_Node000002_Node000006" class="edge">
<title>Node2&#45;&gt;Node6</title>
<g id="a_edge6_Node000002_Node000006"><a xlink:title=" ">
<path fill="none" stroke="#63b8ff" d="M281.34,-99.12C345.68,-102.69 445.9,-108.26 516,-112.15"/>
<polygon fill="#63b8ff" stroke="#63b8ff" points="515.73,-115.64 525.91,-112.7 516.12,-108.65 515.73,-115.64"/>
</a>
</g>
</g>
<!-- Node7 -->
<g id="Node000007" class="node">
<title>Node7</title>
<g id="a_Node000007"><a xlink:href="$class_logger_manager.html#a4f31651f8963f741bfbdb944164ffc15" xlink:title=" ">
<polygon fill="white" stroke="#666666" points="467.25,-67.88 327.5,-67.88 327.5,-37.38 467.25,-37.38 467.25,-67.88"/>
<text xml:space="preserve" text-anchor="start" x="335.5" y="-54.38" font-family="Helvetica,sans-Serif" font-size="10.00">LoggerManager::_getCurrent</text>
<text xml:space="preserve" text-anchor="middle" x="397.38" y="-43.12" font-family="Helvetica,sans-Serif" font-size="10.00">TimeString</text>
</a>
</g>
</g>
<!-- Node2&#45;&gt;Node7 -->
<g id="edge7_Node000002_Node000007" class="edge">
<title>Node2&#45;&gt;Node7</title>
<g id="a_edge7_Node000002_Node000007"><a xlink:title=" ">
<path fill="none" stroke="#63b8ff" d="M260.2,-85.54C278.13,-81.21 299.67,-76 320.27,-71.02"/>
<polygon fill="#63b8ff" stroke="#63b8ff" points="320.89,-74.47 329.79,-68.72 319.25,-67.67 320.89,-74.47"/>
</a>
</g>
</g>
<!-- Node8 -->
<g id="Node000008" class="node">
<title>Node8</title>
<g id="a_Node000008"><a xlink:href="$class_logger_manager.html#a472884ce9e2aed6a1570187dd37cc006" xlink:title=" ">
<polygon fill="white" stroke="#666666" points="477.75,-19.25 317,-19.25 317,0 477.75,0 477.75,-19.25"/>
<text xml:space="preserve" text-anchor="middle" x="397.38" y="-5.75" font-family="Helvetica,sans-Serif" font-size="10.00">LoggerManager::_writeEventRow</text>
</a>
</g>
</g>
<!-- Node2&#45;&gt;Node8 -->
<g id="edge8_Node000002_Node000008" class="edge">
<title>Node2&#45;&gt;Node8</title>
<g id="a_edge8_Node000002_Node000008"><a xlink:title=" ">
<path fill="none" stroke="#63b8ff" d="M230.09,-85.64C247.7,-70.98 282.76,-43.76 317,-28.62 321.77,-26.52 326.81,-24.62 331.94,-22.92"/>
<polygon fill="#63b8ff" stroke="#63b8ff" points="332.55,-26.39 341.11,-20.14 330.52,-19.7 332.55,-26.39"/>
</a>
</g>
</g>
<!-- Node4 -->
<g id="Node000004" class="node">
<title>Node4</title>
<g id="a_Node000004"><a xlink:href="$class_logger_manager.html#a515beeaa428acafce139d79b41fe9d0a" xlink:title=" ">
<polygon fill="white" stroke="#666666" points="667.75,-202.88 527.25,-202.88 527.25,-172.38 667.75,-172.38 667.75,-202.88"/>
<text xml:space="preserve" text-anchor="start" x="535.25" y="-189.38" font-family="Helvetica,sans-Serif" font-size="10.00">LoggerManager::_writeEvent</text>
<text xml:space="preserve" text-anchor="middle" x="597.5" y="-178.12" font-family="Helvetica,sans-Serif" font-size="10.00">Header</text>
</a>
</g>
</g>
<!-- Node3&#45;&gt;Node4 -->
<g id="edge3_Node000003_Node000004" class="edge">
<title>Node3&#45;&gt;Node4</title>
<g id="a_edge3_Node000003_Node000004"><a xlink:title=" ">
<path fill="none" stroke="#63b8ff" d="M472.15,-187.62C486.3,-187.62 501.19,-187.62 515.55,-187.62"/>
<polygon fill="#63b8ff" stroke="#63b8ff" points="515.42,-191.13 525.42,-187.63 515.42,-184.13 515.42,-191.13"/>
</a>
</g>
</g>
<!-- Node5&#45;&gt;Node6 -->
<g id="edge5_Node000005_Node000006" class="edge">
<title>Node5&#45;&gt;Node6</title>
<g id="a_edge5_Node000005_Node000006"><a xlink:title=" ">
<path fill="none" stroke="#63b8ff" d="M463.52,-131.39C480.27,-129.53 498.49,-127.51 515.91,-125.57"/>
<polygon fill="#63b8ff" stroke="#63b8ff" points="516.17,-129.07 525.72,-124.48 515.4,-122.11 516.17,-129.07"/>
</a>
</g>
</g>
<!-- Node9 -->
<g id="Node000009" class="node">
<title>Node9</title>
<g id="a_Node000009"><a xlink:href="$class_logger_manager.html#a57d230cd2896120a32ecf55a14895d55" xlink:title=" ">
<polygon fill="white" stroke="#666666" points="681.25,-19.25 513.75,-19.25 513.75,0 681.25,0 681.25,-19.25"/>
<text xml:space="preserve" text-anchor="middle" x="597.5" y="-5.75" font-family="Helvetica,sans-Serif" font-size="10.00">LoggerManager::_escapeCSVField</text>
</a>
</g>
</g>
<!-- Node8&#45;&gt;Node9 -->
<g id="edge9_Node000008_Node000009" class="edge">
<title>Node8&#45;&gt;Node9</title>
<g id="a_edge9_Node000008_Node000009"><a xlink:title=" ">
<path fill="none" stroke="#63b8ff" d="M478.1,-9.62C486,-9.62 494.06,-9.62 502.08,-9.62"/>
<polygon fill="#63b8ff" stroke="#63b8ff" points="501.86,-13.13 511.86,-9.63 501.86,-6.13 501.86,-13.13"/>
</a>
</g>
</g>
</g>
</svg>
