<?xml version="1.0" encoding="UTF-8" standalone="no"?>
<!DOCTYPE svg PUBLIC "-//W3C//DTD SVG 1.1//EN"
 "http://www.w3.org/Graphics/SVG/1.1/DTD/svg11.dtd">
<!-- Generated by graphviz version 13.1.0 (20250701.0955)
 -->
<!-- Title: LoggerManager::_parseEventLogEntry Pages: 1 -->
<svg width="663pt" height="39pt"
 viewBox="0.00 0.00 663.00 39.00" xmlns="http://www.w3.org/2000/svg" xmlns:xlink="http://www.w3.org/1999/xlink">
<g id="graph0" class="graph" transform="scale(1 1) rotate(0) translate(4 34.5)">
<title>LoggerManager::_parseEventLogEntry</title>
<!-- Node1 -->
<g id="Node000001" class="node">
<title>Node1</title>
<g id="a_Node000001"><a xlink:title=" ">
<polygon fill="#999999" stroke="#666666" points="655,-30.5 511.5,-30.5 511.5,0 655,0 655,-30.5"/>
<text xml:space="preserve" text-anchor="start" x="519.5" y="-17" font-family="Helvetica,sans-Serif" font-size="10.00">LoggerManager::_parseEvent</text>
<text xml:space="preserve" text-anchor="middle" x="583.25" y="-5.75" font-family="Helvetica,sans-Serif" font-size="10.00">LogEntry</text>
</a>
</g>
</g>
<!-- Node2 -->
<g id="Node000002" class="node">
<title>Node2</title>
<g id="a_Node000002"><a xlink:href="$class_logger_manager.html#a8e154caf5cdb9dd50722e2f52314e383" xlink:title=" ">
<polygon fill="white" stroke="#666666" points="475.5,-24.88 305.75,-24.88 305.75,-5.63 475.5,-5.63 475.5,-24.88"/>
<text xml:space="preserve" text-anchor="middle" x="390.62" y="-11.38" font-family="Helvetica,sans-Serif" font-size="10.00">LoggerManager::getEventLogsJson</text>
</a>
</g>
</g>
<!-- Node1&#45;&gt;Node2 -->
<g id="edge1_Node000001_Node000002" class="edge">
<title>Node1&#45;&gt;Node2</title>
<g id="a_edge1_Node000001_Node000002"><a xlink:title=" ">
<path fill="none" stroke="#63b8ff" d="M499.77,-15.25C491.85,-15.25 483.8,-15.25 475.86,-15.25"/>
<polygon fill="#63b8ff" stroke="#63b8ff" points="499.75,-18.75 509.75,-15.25 499.75,-11.75 499.75,-18.75"/>
</a>
</g>
</g>
<!-- Node3 -->
<g id="Node000003" class="node">
<title>Node3</title>
<g id="a_Node000003"><a xlink:href="$class_config_manager.html#a9e977107b4795fcbce0482711ff1ce7a" xlink:title="Setup logging API endpoints.">
<polygon fill="white" stroke="#666666" points="269.75,-24.88 147.25,-24.88 147.25,-5.63 269.75,-5.63 269.75,-24.88"/>
<text xml:space="preserve" text-anchor="middle" x="208.5" y="-11.38" font-family="Helvetica,sans-Serif" font-size="10.00">ConfigManager::logsAPI</text>
</a>
</g>
</g>
<!-- Node2&#45;&gt;Node3 -->
<g id="edge2_Node000002_Node000003" class="edge">
<title>Node2&#45;&gt;Node3</title>
<g id="a_edge2_Node000002_Node000003"><a xlink:title=" ">
<path fill="none" stroke="#63b8ff" d="M293.91,-15.25C285.82,-15.25 277.79,-15.25 270.08,-15.25"/>
<polygon fill="#63b8ff" stroke="#63b8ff" points="293.85,-18.75 303.85,-15.25 293.85,-11.75 293.85,-18.75"/>
</a>
</g>
</g>
<!-- Node4 -->
<g id="Node000004" class="node">
<title>Node4</title>
<g id="a_Node000004"><a xlink:href="$class_config_manager.html#a0497343220fc493f5cf9574922508908" xlink:title="Initialize the configuration system.">
<polygon fill="white" stroke="#666666" points="111.25,-24.88 0,-24.88 0,-5.63 111.25,-5.63 111.25,-24.88"/>
<text xml:space="preserve" text-anchor="middle" x="55.62" y="-11.38" font-family="Helvetica,sans-Serif" font-size="10.00">ConfigManager::begin</text>
</a>
</g>
</g>
<!-- Node3&#45;&gt;Node4 -->
<g id="edge3_Node000003_Node000004" class="edge">
<title>Node3&#45;&gt;Node4</title>
<g id="a_edge3_Node000003_Node000004"><a xlink:title=" ">
<path fill="none" stroke="#63b8ff" d="M135.54,-15.25C127.38,-15.25 119.17,-15.25 111.28,-15.25"/>
<polygon fill="#63b8ff" stroke="#63b8ff" points="135.49,-18.75 145.49,-15.25 135.49,-11.75 135.49,-18.75"/>
</a>
</g>
</g>
</g>
</svg>
