<?xml version="1.0" encoding="UTF-8" standalone="no"?>
<!DOCTYPE svg PUBLIC "-//W3C//DTD SVG 1.1//EN"
 "http://www.w3.org/Graphics/SVG/1.1/DTD/svg11.dtd">
<!-- Generated by graphviz version 13.1.0 (20250701.0955)
 -->
<!-- Title: IndicatorInterface::printText Pages: 1 -->
<svg width="421pt" height="112pt"
 viewBox="0.00 0.00 421.00 112.00" xmlns="http://www.w3.org/2000/svg" xmlns:xlink="http://www.w3.org/1999/xlink">
<g id="graph0" class="graph" transform="scale(1 1) rotate(0) translate(4 107.5)">
<title>IndicatorInterface::printText</title>
<!-- Node1 -->
<g id="Node000001" class="node">
<title>Node1</title>
<g id="a_Node000001"><a xlink:title="Display text buffer on OLED.">
<polygon fill="#999999" stroke="#666666" points="91.75,-54.5 0,-54.5 0,-24 91.75,-24 91.75,-54.5"/>
<text xml:space="preserve" text-anchor="start" x="8" y="-41" font-family="Helvetica,sans-Serif" font-size="10.00">IndicatorInterface</text>
<text xml:space="preserve" text-anchor="middle" x="45.88" y="-29.75" font-family="Helvetica,sans-Serif" font-size="10.00">::printText</text>
</a>
</g>
</g>
<!-- Node2 -->
<g id="Node000002" class="node">
<title>Node2</title>
<g id="a_Node000002"><a xlink:href="class_indicator_interface.html#a38acc1a5120e275253fc4e458aea91f0" target="_top" xlink:title="Update OLED display content.">
<polygon fill="white" stroke="#666666" points="244.25,-79.5 127.75,-79.5 127.75,-49 244.25,-49 244.25,-79.5"/>
<text xml:space="preserve" text-anchor="start" x="135.75" y="-66" font-family="Helvetica,sans-Serif" font-size="10.00">IndicatorInterface</text>
<text xml:space="preserve" text-anchor="middle" x="186" y="-54.75" font-family="Helvetica,sans-Serif" font-size="10.00">::_updateOLEDDisplay</text>
</a>
</g>
</g>
<!-- Node1&#45;&gt;Node2 -->
<g id="edge1_Node000001_Node000002" class="edge">
<title>Node1&#45;&gt;Node2</title>
<g id="a_edge1_Node000001_Node000002"><a xlink:title=" ">
<path fill="none" stroke="#63b8ff" d="M92.1,-47.44C99.89,-48.85 108.14,-50.34 116.38,-51.83"/>
<polygon fill="#63b8ff" stroke="#63b8ff" points="115.62,-55.25 126.08,-53.59 116.87,-48.36 115.62,-55.25"/>
</a>
</g>
</g>
<!-- Node5 -->
<g id="Node000005" class="node">
<title>Node5</title>
<g id="a_Node000005"><a xlink:href="class_indicator_interface.html#af64dc2a4b4256050b070991dfaf05f1a" target="_top" xlink:title="Wake OLED from sleep.">
<polygon fill="white" stroke="#666666" points="231.88,-30.5 140.12,-30.5 140.12,0 231.88,0 231.88,-30.5"/>
<text xml:space="preserve" text-anchor="start" x="148.12" y="-17" font-family="Helvetica,sans-Serif" font-size="10.00">IndicatorInterface</text>
<text xml:space="preserve" text-anchor="middle" x="186" y="-5.75" font-family="Helvetica,sans-Serif" font-size="10.00">::_wakeOLED</text>
</a>
</g>
</g>
<!-- Node1&#45;&gt;Node5 -->
<g id="edge4_Node000001_Node000005" class="edge">
<title>Node1&#45;&gt;Node5</title>
<g id="a_edge4_Node000001_Node000005"><a xlink:title=" ">
<path fill="none" stroke="#63b8ff" d="M92.1,-31.39C103.79,-29.36 116.51,-27.15 128.69,-25.03"/>
<polygon fill="#63b8ff" stroke="#63b8ff" points="128.93,-28.55 138.18,-23.39 127.73,-21.65 128.93,-28.55"/>
</a>
</g>
</g>
<!-- Node3 -->
<g id="Node000003" class="node">
<title>Node3</title>
<g id="a_Node000003"><a xlink:href="class_indicator_interface.html#a2f021f6fa16dec590a8b9cf41a82349d" target="_top" xlink:title="Calculate display parameters.">
<polygon fill="white" stroke="#666666" points="413.25,-103.5 280.25,-103.5 280.25,-73 413.25,-73 413.25,-103.5"/>
<text xml:space="preserve" text-anchor="start" x="288.25" y="-90" font-family="Helvetica,sans-Serif" font-size="10.00">IndicatorInterface</text>
<text xml:space="preserve" text-anchor="middle" x="346.75" y="-78.75" font-family="Helvetica,sans-Serif" font-size="10.00">::_calculateDisplayParams</text>
</a>
</g>
</g>
<!-- Node2&#45;&gt;Node3 -->
<g id="edge2_Node000002_Node000003" class="edge">
<title>Node2&#45;&gt;Node3</title>
<g id="a_edge2_Node000002_Node000003"><a xlink:title=" ">
<path fill="none" stroke="#63b8ff" d="M244.31,-72.91C252.25,-74.11 260.51,-75.36 268.73,-76.61"/>
<polygon fill="#63b8ff" stroke="#63b8ff" points="267.98,-80.03 278.39,-78.07 269.03,-73.11 267.98,-80.03"/>
</a>
</g>
</g>
<!-- Node4 -->
<g id="Node000004" class="node">
<title>Node4</title>
<g id="a_Node000004"><a xlink:href="class_indicator_interface.html#a56c23034a963e2099e36cf55ec70055e" target="_top" xlink:title="Draw single text line at specified position.">
<polygon fill="white" stroke="#666666" points="392.62,-54.5 300.88,-54.5 300.88,-24 392.62,-24 392.62,-54.5"/>
<text xml:space="preserve" text-anchor="start" x="308.88" y="-41" font-family="Helvetica,sans-Serif" font-size="10.00">IndicatorInterface</text>
<text xml:space="preserve" text-anchor="middle" x="346.75" y="-29.75" font-family="Helvetica,sans-Serif" font-size="10.00">::_drawTextLine</text>
</a>
</g>
</g>
<!-- Node2&#45;&gt;Node4 -->
<g id="edge3_Node000002_Node000004" class="edge">
<title>Node2&#45;&gt;Node4</title>
<g id="a_edge3_Node000002_Node000004"><a xlink:title=" ">
<path fill="none" stroke="#63b8ff" d="M244.31,-55.22C259.03,-52.91 274.85,-50.41 289.52,-48.11"/>
<polygon fill="#63b8ff" stroke="#63b8ff" points="289.64,-51.63 298.98,-46.62 288.55,-44.71 289.64,-51.63"/>
</a>
</g>
</g>
</g>
</svg>
