<?xml version="1.0" encoding="UTF-8" standalone="no"?>
<!DOCTYPE svg PUBLIC "-//W3C//DTD SVG 1.1//EN"
 "http://www.w3.org/Graphics/SVG/1.1/DTD/svg11.dtd">
<!-- Generated by graphviz version 13.1.0 (20250701.0955)
 -->
<!-- Title: MeasurementPoint::getLowAlarmThreshold Pages: 1 -->
<svg width="648pt" height="347pt"
 viewBox="0.00 0.00 648.00 347.00" xmlns="http://www.w3.org/2000/svg" xmlns:xlink="http://www.w3.org/1999/xlink">
<g id="graph0" class="graph" transform="scale(1 1) rotate(0) translate(4 342.5)">
<title>MeasurementPoint::getLowAlarmThreshold</title>
<!-- Node1 -->
<g id="Node000001" class="node">
<title>Node1</title>
<g id="a_Node000001"><a xlink:title="Get low alarm threshold.">
<polygon fill="#999999" stroke="#666666" points="640,-186.5 504.75,-186.5 504.75,-156 640,-156 640,-186.5"/>
<text xml:space="preserve" text-anchor="start" x="512.75" y="-173" font-family="Helvetica,sans-Serif" font-size="10.00">MeasurementPoint::getLow</text>
<text xml:space="preserve" text-anchor="middle" x="572.38" y="-161.75" font-family="Helvetica,sans-Serif" font-size="10.00">AlarmThreshold</text>
</a>
</g>
</g>
<!-- Node2 -->
<g id="Node000002" class="node">
<title>Node2</title>
<g id="a_Node000002"><a xlink:href="class_temperature_controller.html#a27da8ccc3effea555f440ce3e6f89b08" target="_top" xlink:title="Check measurement point for alarm conditions.">
<polygon fill="white" stroke="#666666" points="456.38,-338.5 335.38,-338.5 335.38,-308 456.38,-308 456.38,-338.5"/>
<text xml:space="preserve" text-anchor="start" x="343.38" y="-325" font-family="Helvetica,sans-Serif" font-size="10.00">TemperatureController</text>
<text xml:space="preserve" text-anchor="middle" x="395.88" y="-313.75" font-family="Helvetica,sans-Serif" font-size="10.00">::_checkPointForAlarms</text>
</a>
</g>
</g>
<!-- Node1&#45;&gt;Node2 -->
<g id="edge1_Node000001_Node000002" class="edge">
<title>Node1&#45;&gt;Node2</title>
<g id="a_edge1_Node000001_Node000002"><a xlink:title=" ">
<path fill="none" stroke="#63b8ff" d="M556.97,-196.53C539.51,-225.03 507.57,-270.94 468.75,-298.25 463.67,-301.82 458.03,-304.93 452.22,-307.61"/>
<polygon fill="#63b8ff" stroke="#63b8ff" points="559.83,-198.56 561.95,-188.18 553.82,-194.97 559.83,-198.56"/>
</a>
</g>
</g>
<!-- Node3 -->
<g id="Node000003" class="node">
<title>Node3</title>
<g id="a_Node000003"><a xlink:href="class_c_s_v_config_manager.html#a2c2673398051c26184c9197aa751a6b3" target="_top" xlink:title="Export single measurement point to CSV format.">
<polygon fill="white" stroke="#666666" points="450.38,-289.5 341.38,-289.5 341.38,-259 450.38,-259 450.38,-289.5"/>
<text xml:space="preserve" text-anchor="start" x="349.38" y="-276" font-family="Helvetica,sans-Serif" font-size="10.00">CSVConfigManager::</text>
<text xml:space="preserve" text-anchor="middle" x="395.88" y="-264.75" font-family="Helvetica,sans-Serif" font-size="10.00">_exportPointToCSV</text>
</a>
</g>
</g>
<!-- Node1&#45;&gt;Node3 -->
<g id="edge2_Node000001_Node000003" class="edge">
<title>Node1&#45;&gt;Node3</title>
<g id="a_edge2_Node000001_Node000003"><a xlink:title=" ">
<path fill="none" stroke="#63b8ff" d="M546.38,-194.35C526.56,-211.68 497.49,-234.95 468.75,-250.25 462.94,-253.34 456.66,-256.14 450.32,-258.64"/>
<polygon fill="#63b8ff" stroke="#63b8ff" points="548.53,-197.13 553.68,-187.86 543.88,-191.9 548.53,-197.13"/>
</a>
</g>
</g>
<!-- Node5 -->
<g id="Node000005" class="node">
<title>Node5</title>
<g id="a_Node000005"><a xlink:href="class_config_manager.html#ae605c999fabc6344511f455618655326" target="_top" xlink:title="Setup alarms API endpoints.">
<polygon fill="white" stroke="#666666" points="284,-202.88 150.25,-202.88 150.25,-183.62 284,-183.62 284,-202.88"/>
<text xml:space="preserve" text-anchor="middle" x="217.12" y="-189.38" font-family="Helvetica,sans-Serif" font-size="10.00">ConfigManager::alarmsAPI</text>
</a>
</g>
</g>
<!-- Node1&#45;&gt;Node5 -->
<g id="edge4_Node000001_Node000005" class="edge">
<title>Node1&#45;&gt;Node5</title>
<g id="a_edge4_Node000001_Node000005"><a xlink:title=" ">
<path fill="none" stroke="#63b8ff" d="M493.12,-176.12C430.49,-180.02 343.64,-185.43 284.41,-189.12"/>
<polygon fill="#63b8ff" stroke="#63b8ff" points="493.24,-179.62 503.01,-175.51 492.81,-172.64 493.24,-179.62"/>
</a>
</g>
</g>
<!-- Node7 -->
<g id="Node000007" class="node">
<title>Node7</title>
<g id="a_Node000007"><a xlink:href="class_register_map.html#a1f102e7d0dd51d4750c916fb6e32c37a" target="_top" xlink:title="Apply configuration from measurement point to registers.">
<polygon fill="white" stroke="#666666" points="460.5,-79.5 331.25,-79.5 331.25,-49 460.5,-49 460.5,-79.5"/>
<text xml:space="preserve" text-anchor="start" x="339.25" y="-66" font-family="Helvetica,sans-Serif" font-size="10.00">RegisterMap::applyConfig</text>
<text xml:space="preserve" text-anchor="middle" x="395.88" y="-54.75" font-family="Helvetica,sans-Serif" font-size="10.00">FromMeasurementPoint</text>
</a>
</g>
</g>
<!-- Node1&#45;&gt;Node7 -->
<g id="edge6_Node000001_Node000007" class="edge">
<title>Node1&#45;&gt;Node7</title>
<g id="a_edge6_Node000001_Node000007"><a xlink:title=" ">
<path fill="none" stroke="#63b8ff" d="M545.34,-148.35C525.37,-131.57 496.59,-109.07 468.75,-93.25 460.09,-88.33 450.43,-83.83 441.08,-79.92"/>
<polygon fill="#63b8ff" stroke="#63b8ff" points="542.83,-150.8 552.71,-154.62 547.37,-145.47 542.83,-150.8"/>
</a>
</g>
</g>
<!-- Node8 -->
<g id="Node000008" class="node">
<title>Node8</title>
<g id="a_Node000008"><a xlink:href="class_config_manager.html#a3b28982c79587a287c8ddf0acf47f71d" target="_top" xlink:title="Setup file download API endpoints.">
<polygon fill="white" stroke="#666666" points="468.75,-240.88 323,-240.88 323,-221.62 468.75,-221.62 468.75,-240.88"/>
<text xml:space="preserve" text-anchor="middle" x="395.88" y="-227.38" font-family="Helvetica,sans-Serif" font-size="10.00">ConfigManager::downloadAPI</text>
</a>
</g>
</g>
<!-- Node1&#45;&gt;Node8 -->
<g id="edge7_Node000001_Node000008" class="edge">
<title>Node1&#45;&gt;Node8</title>
<g id="a_edge7_Node000001_Node000008"><a xlink:title=" ">
<path fill="none" stroke="#63b8ff" d="M516.54,-190.66C501.1,-196.08 484.28,-201.93 468.75,-207.25 455.18,-211.89 440.14,-216.93 427.34,-221.19"/>
<polygon fill="#63b8ff" stroke="#63b8ff" points="517.27,-194.11 525.55,-187.49 514.95,-187.51 517.27,-194.11"/>
</a>
</g>
</g>
<!-- Node9 -->
<g id="Node000009" class="node">
<title>Node9</title>
<g id="a_Node000009"><a xlink:href="class_temperature_controller.html#add39ba7dad38449bbf1787a5c9c51ef9" target="_top" xlink:title="Get JSON representation of all measurement points.">
<polygon fill="white" stroke="#666666" points="451.88,-30.5 339.88,-30.5 339.88,0 451.88,0 451.88,-30.5"/>
<text xml:space="preserve" text-anchor="start" x="347.88" y="-17" font-family="Helvetica,sans-Serif" font-size="10.00">TemperatureController</text>
<text xml:space="preserve" text-anchor="middle" x="395.88" y="-5.75" font-family="Helvetica,sans-Serif" font-size="10.00">::getPointsJson</text>
</a>
</g>
</g>
<!-- Node1&#45;&gt;Node9 -->
<g id="edge9_Node000001_Node000009" class="edge">
<title>Node1&#45;&gt;Node9</title>
<g id="a_edge9_Node000001_Node000009"><a xlink:title=" ">
<path fill="none" stroke="#63b8ff" d="M557.43,-145.63C540.22,-116.26 508.32,-68.53 468.75,-40.25 463.7,-36.64 458.08,-33.51 452.27,-30.81"/>
<polygon fill="#63b8ff" stroke="#63b8ff" points="554.35,-147.29 562.34,-154.24 560.43,-143.82 554.35,-147.29"/>
</a>
</g>
</g>
<!-- Node10 -->
<g id="Node000010" class="node">
<title>Node10</title>
<g id="a_Node000010"><a xlink:href="class_config_manager.html#a471a844085c27f3a8a8f9394d9c14677" target="_top" xlink:title="Setup measurement points API endpoints.">
<polygon fill="white" stroke="#666666" points="282.5,-30.88 151.75,-30.88 151.75,-11.62 282.5,-11.62 282.5,-30.88"/>
<text xml:space="preserve" text-anchor="middle" x="217.12" y="-17.38" font-family="Helvetica,sans-Serif" font-size="10.00">ConfigManager::pointsAPI</text>
</a>
</g>
</g>
<!-- Node1&#45;&gt;Node10 -->
<g id="edge10_Node000001_Node000010" class="edge">
<title>Node1&#45;&gt;Node10</title>
<g id="a_edge10_Node000001_Node000010"><a xlink:title=" ">
<path fill="none" stroke="#63b8ff" d="M528.79,-150.77C510.56,-142.48 488.88,-133.24 468.75,-126.25 405.51,-104.3 378.4,-125.83 323,-88.25 300.64,-73.08 309.36,-54.43 287,-39.25 282.3,-36.06 277.06,-33.43 271.63,-31.27"/>
<polygon fill="#63b8ff" stroke="#63b8ff" points="527.17,-153.88 537.71,-154.89 530.1,-147.52 527.17,-153.88"/>
</a>
</g>
</g>
<!-- Node11 -->
<g id="Node000011" class="node">
<title>Node11</title>
<g id="a_Node000011"><a xlink:href="class_config_manager.html#a55b79da91c57039c483ddf5fceabbd64" target="_top" xlink:title="Save measurement points configuration to file.">
<polygon fill="white" stroke="#666666" points="464.25,-165.5 327.5,-165.5 327.5,-135 464.25,-135 464.25,-165.5"/>
<text xml:space="preserve" text-anchor="start" x="335.5" y="-152" font-family="Helvetica,sans-Serif" font-size="10.00">ConfigManager::savePoints</text>
<text xml:space="preserve" text-anchor="middle" x="395.88" y="-140.75" font-family="Helvetica,sans-Serif" font-size="10.00">Config</text>
</a>
</g>
</g>
<!-- Node1&#45;&gt;Node11 -->
<g id="edge12_Node000001_Node000011" class="edge">
<title>Node1&#45;&gt;Node11</title>
<g id="a_edge12_Node000001_Node000011"><a xlink:title=" ">
<path fill="none" stroke="#63b8ff" d="M493.25,-161.85C483.67,-160.7 473.94,-159.52 464.53,-158.39"/>
<polygon fill="#63b8ff" stroke="#63b8ff" points="492.56,-165.29 502.91,-163.01 493.39,-158.34 492.56,-165.29"/>
</a>
</g>
</g>
<!-- Node4 -->
<g id="Node000004" class="node">
<title>Node4</title>
<g id="a_Node000004"><a xlink:href="class_c_s_v_config_manager.html#a1c6cbc4c8a132762bf16a8ce9f7d0bfc" target="_top" xlink:title="Export measurement points with alarm configuration to CSV.">
<polygon fill="white" stroke="#666666" points="285.12,-289.5 149.12,-289.5 149.12,-259 285.12,-259 285.12,-289.5"/>
<text xml:space="preserve" text-anchor="start" x="157.12" y="-276" font-family="Helvetica,sans-Serif" font-size="10.00">CSVConfigManager::export</text>
<text xml:space="preserve" text-anchor="middle" x="217.12" y="-264.75" font-family="Helvetica,sans-Serif" font-size="10.00">PointsWithAlarmsToCSV</text>
</a>
</g>
</g>
<!-- Node3&#45;&gt;Node4 -->
<g id="edge3_Node000003_Node000004" class="edge">
<title>Node3&#45;&gt;Node4</title>
<g id="a_edge3_Node000003_Node000004"><a xlink:title=" ">
<path fill="none" stroke="#63b8ff" d="M329.58,-274.25C315.22,-274.25 299.98,-274.25 285.53,-274.25"/>
<polygon fill="#63b8ff" stroke="#63b8ff" points="329.37,-277.75 339.37,-274.25 329.37,-270.75 329.37,-277.75"/>
</a>
</g>
</g>
<!-- Node6 -->
<g id="Node000006" class="node">
<title>Node6</title>
<g id="a_Node000006"><a xlink:href="class_config_manager.html#a0497343220fc493f5cf9574922508908" target="_top" xlink:title="Initialize the configuration system.">
<polygon fill="white" stroke="#666666" points="111.25,-110.88 0,-110.88 0,-91.62 111.25,-91.62 111.25,-110.88"/>
<text xml:space="preserve" text-anchor="middle" x="55.62" y="-97.38" font-family="Helvetica,sans-Serif" font-size="10.00">ConfigManager::begin</text>
</a>
</g>
</g>
<!-- Node5&#45;&gt;Node6 -->
<g id="edge5_Node000005_Node000006" class="edge">
<title>Node5&#45;&gt;Node6</title>
<g id="a_edge5_Node000005_Node000006"><a xlink:title=" ">
<path fill="none" stroke="#63b8ff" d="M158.85,-179.43C154.85,-177.87 150.94,-176.14 147.25,-174.25 114.17,-157.29 81.82,-127 66.25,-111.3"/>
<polygon fill="#63b8ff" stroke="#63b8ff" points="157.55,-182.68 168.14,-182.71 159.88,-176.08 157.55,-182.68"/>
</a>
</g>
</g>
<!-- Node8&#45;&gt;Node6 -->
<g id="edge8_Node000008_Node000006" class="edge">
<title>Node8&#45;&gt;Node6</title>
<g id="a_edge8_Node000008_Node000006"><a xlink:title=" ">
<path fill="none" stroke="#63b8ff" d="M311.27,-240.79C261.03,-242.77 197.33,-238.41 147.25,-212.25 102.93,-189.1 72.34,-133.87 61.24,-111.21"/>
<polygon fill="#63b8ff" stroke="#63b8ff" points="311.43,-244.28 321.25,-240.29 311.08,-237.29 311.43,-244.28"/>
</a>
</g>
</g>
<!-- Node10&#45;&gt;Node6 -->
<g id="edge11_Node000010_Node000006" class="edge">
<title>Node10&#45;&gt;Node6</title>
<g id="a_edge11_Node000010_Node000006"><a xlink:title=" ">
<path fill="none" stroke="#63b8ff" d="M158.09,-34.85C154.37,-36.2 150.73,-37.66 147.25,-39.25 116.55,-53.25 84.98,-77.53 68.42,-91.18"/>
<polygon fill="#63b8ff" stroke="#63b8ff" points="158.86,-38.28 167.26,-31.81 156.66,-31.63 158.86,-38.28"/>
</a>
</g>
</g>
<!-- Node11&#45;&gt;Node5 -->
<g id="edge13_Node000011_Node000005" class="edge">
<title>Node11&#45;&gt;Node5</title>
<g id="a_edge13_Node000011_Node000005"><a xlink:title=" ">
<path fill="none" stroke="#63b8ff" d="M319.4,-168.61C298.94,-173.59 277.53,-178.8 259.7,-183.14"/>
<polygon fill="#63b8ff" stroke="#63b8ff" points="319.95,-172.08 328.84,-166.31 318.3,-165.28 319.95,-172.08"/>
</a>
</g>
</g>
<!-- Node11&#45;&gt;Node10 -->
<g id="edge16_Node000011_Node000010" class="edge">
<title>Node11&#45;&gt;Node10</title>
<g id="a_edge16_Node000011_Node000010"><a xlink:title=" ">
<path fill="none" stroke="#63b8ff" d="M332.3,-128.78C328.97,-126.51 325.84,-124 323,-121.25 294.43,-93.53 317.28,-65.08 287,-39.25 283.24,-36.04 278.97,-33.4 274.45,-31.22"/>
<polygon fill="#63b8ff" stroke="#63b8ff" points="330.4,-131.73 340.78,-133.83 333.98,-125.71 330.4,-131.73"/>
</a>
</g>
</g>
<!-- Node12 -->
<g id="Node000012" class="node">
<title>Node12</title>
<g id="a_Node000012"><a xlink:href="class_config_manager.html#a9b7af07b85bf9cc3ac05603db6e89fd2" target="_top" xlink:title="Setup CSV import/export API endpoints.">
<polygon fill="white" stroke="#666666" points="282.88,-116.5 151.38,-116.5 151.38,-86 282.88,-86 282.88,-116.5"/>
<text xml:space="preserve" text-anchor="start" x="159.38" y="-103" font-family="Helvetica,sans-Serif" font-size="10.00">ConfigManager::csvImport</text>
<text xml:space="preserve" text-anchor="middle" x="217.12" y="-91.75" font-family="Helvetica,sans-Serif" font-size="10.00">ExportAPI</text>
</a>
</g>
</g>
<!-- Node11&#45;&gt;Node12 -->
<g id="edge14_Node000011_Node000012" class="edge">
<title>Node11&#45;&gt;Node12</title>
<g id="a_edge14_Node000011_Node000012"><a xlink:title=" ">
<path fill="none" stroke="#63b8ff" d="M327.79,-131.65C310.36,-126.82 291.75,-121.66 274.91,-116.99"/>
<polygon fill="#63b8ff" stroke="#63b8ff" points="326.43,-134.91 337.01,-134.21 328.3,-128.16 326.43,-134.91"/>
</a>
</g>
</g>
<!-- Node13 -->
<g id="Node000013" class="node">
<title>Node13</title>
<g id="a_Node000013"><a xlink:href="class_config_manager.html#a45b1ce1f09401af0b6f700cf4388b233" target="_top" xlink:title="Setup sensor&#45;related API endpoints.">
<polygon fill="white" stroke="#666666" points="284,-67.88 150.25,-67.88 150.25,-48.62 284,-48.62 284,-67.88"/>
<text xml:space="preserve" text-anchor="middle" x="217.12" y="-54.38" font-family="Helvetica,sans-Serif" font-size="10.00">ConfigManager::sensorAPI</text>
</a>
</g>
</g>
<!-- Node11&#45;&gt;Node13 -->
<g id="edge17_Node000011_Node000013" class="edge">
<title>Node11&#45;&gt;Node13</title>
<g id="a_edge17_Node000011_Node000013"><a xlink:title=" ">
<path fill="none" stroke="#63b8ff" d="M336.09,-129.49C331.5,-126.99 327.07,-124.25 323,-121.25 302.65,-106.28 308.17,-91.04 287,-77.25 281.39,-73.6 275.08,-70.64 268.61,-68.24"/>
<polygon fill="#63b8ff" stroke="#63b8ff" points="334.44,-132.58 344.96,-133.89 337.56,-126.31 334.44,-132.58"/>
</a>
</g>
</g>
<!-- Node14 -->
<g id="Node000014" class="node">
<title>Node14</title>
<g id="a_Node000014"><a xlink:href="class_config_manager.html#a0daf50bbd376beb24a5400a86e893338" target="_top" xlink:title="Update a measurement point in configuration.">
<polygon fill="white" stroke="#666666" points="287,-165.5 147.25,-165.5 147.25,-135 287,-135 287,-165.5"/>
<text xml:space="preserve" text-anchor="start" x="155.25" y="-152" font-family="Helvetica,sans-Serif" font-size="10.00">ConfigManager::updatePoint</text>
<text xml:space="preserve" text-anchor="middle" x="217.12" y="-140.75" font-family="Helvetica,sans-Serif" font-size="10.00">InConfig</text>
</a>
</g>
</g>
<!-- Node11&#45;&gt;Node14 -->
<g id="edge19_Node000011_Node000014" class="edge">
<title>Node11&#45;&gt;Node14</title>
<g id="a_edge19_Node000011_Node000014"><a xlink:title=" ">
<path fill="none" stroke="#63b8ff" d="M315.6,-150.25C306.14,-150.25 296.54,-150.25 287.24,-150.25"/>
<polygon fill="#63b8ff" stroke="#63b8ff" points="315.53,-153.75 325.53,-150.25 315.53,-146.75 315.53,-153.75"/>
</a>
</g>
</g>
<!-- Node12&#45;&gt;Node6 -->
<g id="edge15_Node000012_Node000006" class="edge">
<title>Node12&#45;&gt;Node6</title>
<g id="a_edge15_Node000012_Node000006"><a xlink:title=" ">
<path fill="none" stroke="#63b8ff" d="M139.78,-101.25C130.32,-101.25 120.79,-101.25 111.74,-101.25"/>
<polygon fill="#63b8ff" stroke="#63b8ff" points="139.74,-104.75 149.74,-101.25 139.74,-97.75 139.74,-104.75"/>
</a>
</g>
</g>
<!-- Node13&#45;&gt;Node6 -->
<g id="edge18_Node000013_Node000006" class="edge">
<title>Node13&#45;&gt;Node6</title>
<g id="a_edge18_Node000013_Node000006"><a xlink:title=" ">
<path fill="none" stroke="#63b8ff" d="M167.85,-71.26C144.18,-77.65 116.09,-85.22 94.06,-91.16"/>
<polygon fill="#63b8ff" stroke="#63b8ff" points="168.52,-74.71 177.27,-68.73 166.7,-67.95 168.52,-74.71"/>
</a>
</g>
</g>
</g>
</svg>
