<?xml version="1.0" encoding="UTF-8" standalone="no"?>
<!DOCTYPE svg PUBLIC "-//W3C//DTD SVG 1.1//EN"
 "http://www.w3.org/Graphics/SVG/1.1/DTD/svg11.dtd">
<!-- Generated by graphviz version 13.1.0 (20250701.0955)
 -->
<!-- Title: IndicatorInterface::_updateOLEDDisplay Pages: 1 -->
<svg width="294pt" height="88pt"
 viewBox="0.00 0.00 294.00 88.00" xmlns="http://www.w3.org/2000/svg" xmlns:xlink="http://www.w3.org/1999/xlink">
<g id="graph0" class="graph" transform="scale(1 1) rotate(0) translate(4 83.5)">
<title>IndicatorInterface::_updateOLEDDisplay</title>
<!-- Node1 -->
<g id="Node000001" class="node">
<title>Node1</title>
<g id="a_Node000001"><a xlink:title="Update OLED display content.">
<polygon fill="#999999" stroke="#666666" points="116.5,-54.5 0,-54.5 0,-24 116.5,-24 116.5,-54.5"/>
<text xml:space="preserve" text-anchor="start" x="8" y="-41" font-family="Helvetica,sans-Serif" font-size="10.00">IndicatorInterface</text>
<text xml:space="preserve" text-anchor="middle" x="58.25" y="-29.75" font-family="Helvetica,sans-Serif" font-size="10.00">::_updateOLEDDisplay</text>
</a>
</g>
</g>
<!-- Node2 -->
<g id="Node000002" class="node">
<title>Node2</title>
<g id="a_Node000002"><a xlink:href="class_indicator_interface.html#a2f021f6fa16dec590a8b9cf41a82349d" target="_top" xlink:title="Calculate display parameters.">
<polygon fill="white" stroke="#666666" points="285.5,-79.5 152.5,-79.5 152.5,-49 285.5,-49 285.5,-79.5"/>
<text xml:space="preserve" text-anchor="start" x="160.5" y="-66" font-family="Helvetica,sans-Serif" font-size="10.00">IndicatorInterface</text>
<text xml:space="preserve" text-anchor="middle" x="219" y="-54.75" font-family="Helvetica,sans-Serif" font-size="10.00">::_calculateDisplayParams</text>
</a>
</g>
</g>
<!-- Node1&#45;&gt;Node2 -->
<g id="edge1_Node000001_Node000002" class="edge">
<title>Node1&#45;&gt;Node2</title>
<g id="a_edge1_Node000001_Node000002"><a xlink:title=" ">
<path fill="none" stroke="#63b8ff" d="M116.56,-48.28C124.5,-49.53 132.76,-50.83 140.98,-52.12"/>
<polygon fill="#63b8ff" stroke="#63b8ff" points="140.22,-55.54 150.65,-53.64 141.31,-48.63 140.22,-55.54"/>
</a>
</g>
</g>
<!-- Node3 -->
<g id="Node000003" class="node">
<title>Node3</title>
<g id="a_Node000003"><a xlink:href="class_indicator_interface.html#a56c23034a963e2099e36cf55ec70055e" target="_top" xlink:title="Draw single text line at specified position.">
<polygon fill="white" stroke="#666666" points="264.88,-30.5 173.12,-30.5 173.12,0 264.88,0 264.88,-30.5"/>
<text xml:space="preserve" text-anchor="start" x="181.12" y="-17" font-family="Helvetica,sans-Serif" font-size="10.00">IndicatorInterface</text>
<text xml:space="preserve" text-anchor="middle" x="219" y="-5.75" font-family="Helvetica,sans-Serif" font-size="10.00">::_drawTextLine</text>
</a>
</g>
</g>
<!-- Node1&#45;&gt;Node3 -->
<g id="edge2_Node000001_Node000003" class="edge">
<title>Node1&#45;&gt;Node3</title>
<g id="a_edge2_Node000001_Node000003"><a xlink:title=" ">
<path fill="none" stroke="#63b8ff" d="M116.56,-30.59C131.14,-28.38 146.79,-26.02 161.34,-23.82"/>
<polygon fill="#63b8ff" stroke="#63b8ff" points="161.86,-27.28 171.22,-22.32 160.81,-20.36 161.86,-27.28"/>
</a>
</g>
</g>
</g>
</svg>
