<?xml version="1.0" encoding="UTF-8" standalone="no"?>
<!DOCTYPE svg PUBLIC "-//W3C//DTD SVG 1.1//EN"
 "http://www.w3.org/Graphics/SVG/1.1/DTD/svg11.dtd">
<!-- Generated by graphviz version 13.1.0 (20250701.0955)
 -->
<!-- Title: TemperatureController::handleAlarmDisplay Pages: 1 -->
<svg width="1151pt" height="566pt"
 viewBox="0.00 0.00 1151.00 566.00" xmlns="http://www.w3.org/2000/svg" xmlns:xlink="http://www.w3.org/1999/xlink">
<g id="graph0" class="graph" transform="scale(1 1) rotate(0) translate(4 561.88)">
<title>TemperatureController::handleAlarmDisplay</title>
<!-- Node1 -->
<g id="Node000001" class="node">
<title>Node1</title>
<g id="a_Node000001"><a xlink:title="Handle alarm display on OLED/LEDs.">
<polygon fill="#999999" stroke="#666666" points="112,-404.88 0,-404.88 0,-374.38 112,-374.38 112,-404.88"/>
<text xml:space="preserve" text-anchor="start" x="8" y="-391.38" font-family="Helvetica,sans-Serif" font-size="10.00">TemperatureController</text>
<text xml:space="preserve" text-anchor="middle" x="56" y="-380.12" font-family="Helvetica,sans-Serif" font-size="10.00">::handleAlarmDisplay</text>
</a>
</g>
</g>
<!-- Node2 -->
<g id="Node000002" class="node">
<title>Node2</title>
<g id="a_Node000002"><a xlink:href="class_temperature_controller.html#a1228b63e95f26c21a8d9c2a27928bc75" target="_top" xlink:title="Check for button press and handle acknowledgment.">
<polygon fill="white" stroke="#666666" points="442.5,-505.88 330.5,-505.88 330.5,-475.38 442.5,-475.38 442.5,-505.88"/>
<text xml:space="preserve" text-anchor="start" x="338.5" y="-492.38" font-family="Helvetica,sans-Serif" font-size="10.00">TemperatureController</text>
<text xml:space="preserve" text-anchor="middle" x="386.5" y="-481.12" font-family="Helvetica,sans-Serif" font-size="10.00">::_checkButtonPress</text>
</a>
</g>
</g>
<!-- Node1&#45;&gt;Node2 -->
<g id="edge1_Node000001_Node000002" class="edge">
<title>Node1&#45;&gt;Node2</title>
<g id="a_edge1_Node000001_Node000002"><a xlink:title=" ">
<path fill="none" stroke="#63b8ff" d="M107.97,-405.3C166.11,-423.17 261.18,-452.4 323.55,-471.58"/>
<polygon fill="#63b8ff" stroke="#63b8ff" points="322.38,-474.88 332.97,-474.47 324.44,-468.19 322.38,-474.88"/>
</a>
</g>
</g>
<!-- Node5 -->
<g id="Node000005" class="node">
<title>Node5</title>
<g id="a_Node000005"><a xlink:href="class_temperature_controller.html#a6b2f92b5c2af867240200cff2e61e806" target="_top" xlink:title="Handle display section switching.">
<polygon fill="white" stroke="#666666" points="275,-383.88 148,-383.88 148,-353.38 275,-353.38 275,-383.88"/>
<text xml:space="preserve" text-anchor="start" x="156" y="-370.38" font-family="Helvetica,sans-Serif" font-size="10.00">TemperatureController</text>
<text xml:space="preserve" text-anchor="middle" x="211.5" y="-359.12" font-family="Helvetica,sans-Serif" font-size="10.00">::_handleDisplaySections</text>
</a>
</g>
</g>
<!-- Node1&#45;&gt;Node5 -->
<g id="edge4_Node000001_Node000005" class="edge">
<title>Node1&#45;&gt;Node5</title>
<g id="a_edge4_Node000001_Node000005"><a xlink:title=" ">
<path fill="none" stroke="#63b8ff" d="M112.42,-382.04C120.18,-380.98 128.26,-379.88 136.3,-378.78"/>
<polygon fill="#63b8ff" stroke="#63b8ff" points="136.68,-382.26 146.11,-377.43 135.73,-375.32 136.68,-382.26"/>
</a>
</g>
</g>
<!-- Node3 -->
<g id="Node000003" class="node">
<title>Node3</title>
<g id="a_Node000003"><a xlink:href="class_temperature_controller.html#ac44de0834e13cec755e247ce1df21f09" target="_top" xlink:title="Display next acknowledged alarm.">
<polygon fill="white" stroke="#666666" points="666.25,-557.88 498,-557.88 498,-527.38 666.25,-527.38 666.25,-557.88"/>
<text xml:space="preserve" text-anchor="start" x="506" y="-544.38" font-family="Helvetica,sans-Serif" font-size="10.00">TemperatureController</text>
<text xml:space="preserve" text-anchor="middle" x="582.12" y="-533.12" font-family="Helvetica,sans-Serif" font-size="10.00">::_displayNextAcknowledgedAlarm</text>
</a>
</g>
</g>
<!-- Node2&#45;&gt;Node3 -->
<g id="edge2_Node000002_Node000003" class="edge">
<title>Node2&#45;&gt;Node3</title>
<g id="a_edge2_Node000002_Node000003"><a xlink:title=" ">
<path fill="none" stroke="#63b8ff" d="M442.99,-505.53C464.4,-511.28 489.14,-517.92 511.71,-523.98"/>
<polygon fill="#63b8ff" stroke="#63b8ff" points="510.57,-527.3 521.13,-526.51 512.38,-520.54 510.57,-527.3"/>
</a>
</g>
</g>
<!-- Node4 -->
<g id="Node000004" class="node">
<title>Node4</title>
<g id="a_Node000004"><a xlink:href="class_temperature_controller.html#a3955f205bc33dda762cbe5c572cd4f21" target="_top" xlink:title="Switch to a new display section.">
<polygon fill="white" stroke="#666666" points="638.12,-361.88 526.12,-361.88 526.12,-331.38 638.12,-331.38 638.12,-361.88"/>
<text xml:space="preserve" text-anchor="start" x="534.12" y="-348.38" font-family="Helvetica,sans-Serif" font-size="10.00">TemperatureController</text>
<text xml:space="preserve" text-anchor="middle" x="582.12" y="-337.12" font-family="Helvetica,sans-Serif" font-size="10.00">::_switchToSection</text>
</a>
</g>
</g>
<!-- Node2&#45;&gt;Node4 -->
<g id="edge3_Node000002_Node000004" class="edge">
<title>Node2&#45;&gt;Node4</title>
<g id="a_edge3_Node000002_Node000004"><a xlink:title=" ">
<path fill="none" stroke="#63b8ff" d="M442.77,-478.37C449.82,-475.08 456.49,-470.91 462,-465.62 494.29,-434.66 465.22,-402.07 498,-371.62 503.14,-366.85 509.17,-362.98 515.59,-359.85"/>
<polygon fill="#63b8ff" stroke="#63b8ff" points="516.65,-363.2 524.52,-356.1 513.95,-356.74 516.65,-363.2"/>
</a>
</g>
</g>
<!-- Node5&#45;&gt;Node4 -->
<g id="edge25_Node000005_Node000004" class="edge">
<title>Node5&#45;&gt;Node4</title>
<g id="a_edge25_Node000005_Node000004"><a xlink:title=" ">
<path fill="none" stroke="#63b8ff" d="M275.45,-364.87C341.93,-360.9 446.33,-354.67 514.26,-350.62"/>
<polygon fill="#63b8ff" stroke="#63b8ff" points="514.38,-354.11 524.15,-350.03 513.96,-347.13 514.38,-354.11"/>
</a>
</g>
</g>
<!-- Node6 -->
<g id="Node000006" class="node">
<title>Node6</title>
<g id="a_Node000006"><a xlink:href="class_temperature_controller.html#a1d2745c323f7094beac8f406825499b7" target="_top" xlink:title="Handle alarm display rotation timing.">
<polygon fill="white" stroke="#666666" points="462,-456.88 311,-456.88 311,-426.38 462,-426.38 462,-456.88"/>
<text xml:space="preserve" text-anchor="start" x="319" y="-443.38" font-family="Helvetica,sans-Serif" font-size="10.00">TemperatureController</text>
<text xml:space="preserve" text-anchor="middle" x="386.5" y="-432.12" font-family="Helvetica,sans-Serif" font-size="10.00">::_handleAlarmDisplayRotation</text>
</a>
</g>
</g>
<!-- Node5&#45;&gt;Node6 -->
<g id="edge5_Node000005_Node000006" class="edge">
<title>Node5&#45;&gt;Node6</title>
<g id="a_edge5_Node000005_Node000006"><a xlink:title=" ">
<path fill="none" stroke="#63b8ff" d="M249.61,-384.29C275.5,-395.21 310.25,-409.87 338.13,-421.64"/>
<polygon fill="#63b8ff" stroke="#63b8ff" points="336.48,-424.74 347.05,-425.4 339.2,-418.29 336.48,-424.74"/>
</a>
</g>
</g>
<!-- Node9 -->
<g id="Node000009" class="node">
<title>Node9</title>
<g id="a_Node000009"><a xlink:href="class_temperature_controller.html#a4d36576f7d6ab8f5222a082878314912" target="_top" xlink:title="Update normal temperature display.">
<polygon fill="white" stroke="#666666" points="642.62,-410.88 521.62,-410.88 521.62,-380.38 642.62,-380.38 642.62,-410.88"/>
<text xml:space="preserve" text-anchor="start" x="529.62" y="-397.38" font-family="Helvetica,sans-Serif" font-size="10.00">TemperatureController</text>
<text xml:space="preserve" text-anchor="middle" x="582.12" y="-386.12" font-family="Helvetica,sans-Serif" font-size="10.00">::_updateNormalDisplay</text>
</a>
</g>
</g>
<!-- Node5&#45;&gt;Node9 -->
<g id="edge29_Node000005_Node000009" class="edge">
<title>Node5&#45;&gt;Node9</title>
<g id="a_edge29_Node000005_Node000009"><a xlink:title=" ">
<path fill="none" stroke="#63b8ff" d="M275.45,-373.24C340.47,-378 441.77,-385.42 509.74,-390.4"/>
<polygon fill="#63b8ff" stroke="#63b8ff" points="509.45,-393.88 519.67,-391.12 509.96,-386.9 509.45,-393.88"/>
</a>
</g>
</g>
<!-- Node10 -->
<g id="Node000010" class="node">
<title>Node10</title>
<g id="a_Node000010"><a xlink:href="class_temperature_controller.html#a45f7994a3a052a527981dbfdad27606b" target="_top" xlink:title="Handle system status mode display.">
<polygon fill="white" stroke="#666666" points="457.5,-263.88 315.5,-263.88 315.5,-233.38 457.5,-233.38 457.5,-263.88"/>
<text xml:space="preserve" text-anchor="start" x="323.5" y="-250.38" font-family="Helvetica,sans-Serif" font-size="10.00">TemperatureController</text>
<text xml:space="preserve" text-anchor="middle" x="386.5" y="-239.12" font-family="Helvetica,sans-Serif" font-size="10.00">::_handleSystemStatusMode</text>
</a>
</g>
</g>
<!-- Node5&#45;&gt;Node10 -->
<g id="edge10_Node000005_Node000010" class="edge">
<title>Node5&#45;&gt;Node10</title>
<g id="a_edge10_Node000005_Node000010"><a xlink:title=" ">
<path fill="none" stroke="#63b8ff" d="M235.12,-352.94C265.42,-331.92 319.37,-294.5 353.74,-270.66"/>
<polygon fill="#63b8ff" stroke="#63b8ff" points="355.41,-273.75 361.63,-265.18 351.42,-268 355.41,-273.75"/>
</a>
</g>
</g>
<!-- Node24 -->
<g id="Node000024" class="node">
<title>Node24</title>
<g id="a_Node000024"><a xlink:href="class_temperature_controller.html#a477597992aa9362076843f37b648741a" target="_top" xlink:title="Update alarm display queues.">
<polygon fill="white" stroke="#666666" points="444.38,-67.88 328.62,-67.88 328.62,-37.38 444.38,-37.38 444.38,-67.88"/>
<text xml:space="preserve" text-anchor="start" x="336.62" y="-54.38" font-family="Helvetica,sans-Serif" font-size="10.00">TemperatureController</text>
<text xml:space="preserve" text-anchor="middle" x="386.5" y="-43.12" font-family="Helvetica,sans-Serif" font-size="10.00">::_updateAlarmQueues</text>
</a>
</g>
</g>
<!-- Node5&#45;&gt;Node24 -->
<g id="edge26_Node000005_Node000024" class="edge">
<title>Node5&#45;&gt;Node24</title>
<g id="a_edge26_Node000005_Node000024"><a xlink:title=" ">
<path fill="none" stroke="#63b8ff" d="M221.08,-352.95C248.99,-301.98 337.36,-140.56 371.68,-77.87"/>
<polygon fill="#63b8ff" stroke="#63b8ff" points="374.61,-79.8 376.35,-69.35 368.47,-76.44 374.61,-79.8"/>
</a>
</g>
</g>
<!-- Node6&#45;&gt;Node3 -->
<g id="edge6_Node000006_Node000003" class="edge">
<title>Node6&#45;&gt;Node3</title>
<g id="a_edge6_Node000006_Node000003"><a xlink:title=" ">
<path fill="none" stroke="#63b8ff" d="M446.25,-457.29C451.82,-459.95 457.18,-463.04 462,-466.62 484.25,-483.19 475.49,-501.41 498,-517.62 500.04,-519.09 502.16,-520.47 504.35,-521.78"/>
<polygon fill="#63b8ff" stroke="#63b8ff" points="502.5,-524.76 512.98,-526.28 505.74,-518.55 502.5,-524.76"/>
</a>
</g>
</g>
<!-- Node7 -->
<g id="Node000007" class="node">
<title>Node7</title>
<g id="a_Node000007"><a xlink:href="class_temperature_controller.html#a7ca5124357f98bcd52316cf017341b09" target="_top" xlink:title="Display next active alarm in rotation.">
<polygon fill="white" stroke="#666666" points="648.25,-508.88 516,-508.88 516,-478.38 648.25,-478.38 648.25,-508.88"/>
<text xml:space="preserve" text-anchor="start" x="524" y="-495.38" font-family="Helvetica,sans-Serif" font-size="10.00">TemperatureController</text>
<text xml:space="preserve" text-anchor="middle" x="582.12" y="-484.12" font-family="Helvetica,sans-Serif" font-size="10.00">::_displayNextActiveAlarm</text>
</a>
</g>
</g>
<!-- Node6&#45;&gt;Node7 -->
<g id="edge7_Node000006_Node000007" class="edge">
<title>Node6&#45;&gt;Node7</title>
<g id="a_edge7_Node000006_Node000007"><a xlink:title=" ">
<path fill="none" stroke="#63b8ff" d="M446.12,-457.37C466.78,-462.92 490.21,-469.21 511.68,-474.97"/>
<polygon fill="#63b8ff" stroke="#63b8ff" points="510.68,-478.33 521.24,-477.54 512.49,-471.57 510.68,-478.33"/>
</a>
</g>
</g>
<!-- Node8 -->
<g id="Node000008" class="node">
<title>Node8</title>
<g id="a_Node000008"><a xlink:href="class_temperature_controller.html#a28e81945f5235e161e6c532b428d36d2" target="_top" xlink:title="Show OK status and turn off OLED after delay.">
<polygon fill="white" stroke="#666666" points="653.12,-459.88 511.12,-459.88 511.12,-429.38 653.12,-429.38 653.12,-459.88"/>
<text xml:space="preserve" text-anchor="start" x="519.12" y="-446.38" font-family="Helvetica,sans-Serif" font-size="10.00">TemperatureController</text>
<text xml:space="preserve" text-anchor="middle" x="582.12" y="-435.12" font-family="Helvetica,sans-Serif" font-size="10.00">::_showOKAndTurnOffOLED</text>
</a>
</g>
</g>
<!-- Node6&#45;&gt;Node8 -->
<g id="edge8_Node000006_Node000008" class="edge">
<title>Node6&#45;&gt;Node8</title>
<g id="a_edge8_Node000006_Node000008"><a xlink:title=" ">
<path fill="none" stroke="#63b8ff" d="M462.36,-442.78C474.58,-442.97 487.3,-443.17 499.67,-443.36"/>
<polygon fill="#63b8ff" stroke="#63b8ff" points="499.34,-446.86 509.39,-443.51 499.45,-439.86 499.34,-446.86"/>
</a>
</g>
</g>
<!-- Node6&#45;&gt;Node9 -->
<g id="edge9_Node000006_Node000009" class="edge">
<title>Node6&#45;&gt;Node9</title>
<g id="a_edge9_Node000006_Node000009"><a xlink:title=" ">
<path fill="none" stroke="#63b8ff" d="M453.59,-425.92C471.82,-421.59 491.68,-416.88 510.17,-412.48"/>
<polygon fill="#63b8ff" stroke="#63b8ff" points="510.79,-415.93 519.71,-410.22 509.17,-409.12 510.79,-415.93"/>
</a>
</g>
</g>
<!-- Node10&#45;&gt;Node4 -->
<g id="edge24_Node000010_Node000004" class="edge">
<title>Node10&#45;&gt;Node4</title>
<g id="a_edge24_Node000010_Node000004"><a xlink:title=" ">
<path fill="none" stroke="#63b8ff" d="M407.22,-264.23C428.54,-280.48 464.06,-305.73 498,-321.62 503.46,-324.18 509.24,-326.55 515.11,-328.73"/>
<polygon fill="#63b8ff" stroke="#63b8ff" points="513.7,-331.94 524.3,-331.93 516.01,-325.33 513.7,-331.94"/>
</a>
</g>
</g>
<!-- Node11 -->
<g id="Node000011" class="node">
<title>Node11</title>
<g id="a_Node000011"><a xlink:href="class_temperature_controller.html#a3948ceaf046b5f06afcc9083433f532c" target="_top" xlink:title="Display alarm summary by priority.">
<polygon fill="white" stroke="#666666" points="666.25,-312.88 498,-312.88 498,-282.38 666.25,-282.38 666.25,-312.88"/>
<text xml:space="preserve" text-anchor="start" x="506" y="-299.38" font-family="Helvetica,sans-Serif" font-size="10.00">TemperatureController</text>
<text xml:space="preserve" text-anchor="middle" x="582.12" y="-288.12" font-family="Helvetica,sans-Serif" font-size="10.00">::_displayAlarmSummaryByPriority</text>
</a>
</g>
</g>
<!-- Node10&#45;&gt;Node11 -->
<g id="edge11_Node000010_Node000011" class="edge">
<title>Node10&#45;&gt;Node11</title>
<g id="a_edge11_Node000010_Node000011"><a xlink:title=" ">
<path fill="none" stroke="#63b8ff" d="M449.56,-264.33C468.15,-269.03 488.7,-274.24 507.94,-279.1"/>
<polygon fill="#63b8ff" stroke="#63b8ff" points="507.06,-282.49 517.61,-281.55 508.78,-275.71 507.06,-282.49"/>
</a>
</g>
</g>
<!-- Node13 -->
<g id="Node000013" class="node">
<title>Node13</title>
<g id="a_Node000013"><a xlink:href="class_temperature_controller.html#ab5e076b045677678390603e9a805e4db" target="_top" xlink:title="Display alarm summary by type.">
<polygon fill="white" stroke="#666666" points="661.38,-263.88 502.88,-263.88 502.88,-233.38 661.38,-233.38 661.38,-263.88"/>
<text xml:space="preserve" text-anchor="start" x="510.88" y="-250.38" font-family="Helvetica,sans-Serif" font-size="10.00">TemperatureController</text>
<text xml:space="preserve" text-anchor="middle" x="582.12" y="-239.12" font-family="Helvetica,sans-Serif" font-size="10.00">::_displayAlarmSummaryByType</text>
</a>
</g>
</g>
<!-- Node10&#45;&gt;Node13 -->
<g id="edge13_Node000010_Node000013" class="edge">
<title>Node10&#45;&gt;Node13</title>
<g id="a_edge13_Node000010_Node000013"><a xlink:title=" ">
<path fill="none" stroke="#63b8ff" d="M457.95,-248.62C468.7,-248.62 479.93,-248.62 491.03,-248.62"/>
<polygon fill="#63b8ff" stroke="#63b8ff" points="491.02,-252.13 501.02,-248.63 491.02,-245.13 491.02,-252.13"/>
</a>
</g>
</g>
<!-- Node14 -->
<g id="Node000014" class="node">
<title>Node14</title>
<g id="a_Node000014"><a xlink:href="class_temperature_controller.html#a5fc773a967cea261f21bbe86d90d2586" target="_top" xlink:title="Display Modbus status page.">
<polygon fill="white" stroke="#666666" points="642.62,-214.88 521.62,-214.88 521.62,-184.38 642.62,-184.38 642.62,-214.88"/>
<text xml:space="preserve" text-anchor="start" x="529.62" y="-201.38" font-family="Helvetica,sans-Serif" font-size="10.00">TemperatureController</text>
<text xml:space="preserve" text-anchor="middle" x="582.12" y="-190.12" font-family="Helvetica,sans-Serif" font-size="10.00">::_displayModbusStatus</text>
</a>
</g>
</g>
<!-- Node10&#45;&gt;Node14 -->
<g id="edge14_Node000010_Node000014" class="edge">
<title>Node10&#45;&gt;Node14</title>
<g id="a_edge14_Node000010_Node000014"><a xlink:title=" ">
<path fill="none" stroke="#63b8ff" d="M449.56,-232.92C468.98,-228.01 490.54,-222.55 510.5,-217.5"/>
<polygon fill="#63b8ff" stroke="#63b8ff" points="511.09,-220.96 519.93,-215.11 509.37,-214.17 511.09,-220.96"/>
</a>
</g>
</g>
<!-- Node15 -->
<g id="Node000015" class="node">
<title>Node15</title>
<g id="a_Node000015"><a xlink:href="class_temperature_controller.html#a2436c7043d97ca75c717db2b87326d90" target="_top" xlink:title="Display network info page.">
<polygon fill="white" stroke="#666666" points="638.12,-165.88 526.12,-165.88 526.12,-135.38 638.12,-135.38 638.12,-165.88"/>
<text xml:space="preserve" text-anchor="start" x="534.12" y="-152.38" font-family="Helvetica,sans-Serif" font-size="10.00">TemperatureController</text>
<text xml:space="preserve" text-anchor="middle" x="582.12" y="-141.12" font-family="Helvetica,sans-Serif" font-size="10.00">::_displayNetworkInfo</text>
</a>
</g>
</g>
<!-- Node10&#45;&gt;Node15 -->
<g id="edge15_Node000010_Node000015" class="edge">
<title>Node10&#45;&gt;Node15</title>
<g id="a_edge15_Node000010_Node000015"><a xlink:title=" ">
<path fill="none" stroke="#63b8ff" d="M407.22,-233.02C428.54,-216.77 464.06,-191.52 498,-175.62 503.46,-173.07 509.24,-170.7 515.11,-168.52"/>
<polygon fill="#63b8ff" stroke="#63b8ff" points="516.01,-171.92 524.3,-165.32 513.7,-165.31 516.01,-171.92"/>
</a>
</g>
</g>
<!-- Node16 -->
<g id="Node000016" class="node">
<title>Node16</title>
<g id="a_Node000016"><a xlink:href="class_temperature_controller.html#a45d13ed72fd36b46820af631e4db958b" target="_top" xlink:title="Display system stats page.">
<polygon fill="white" stroke="#666666" points="639.62,-116.88 524.62,-116.88 524.62,-86.38 639.62,-86.38 639.62,-116.88"/>
<text xml:space="preserve" text-anchor="start" x="532.62" y="-103.38" font-family="Helvetica,sans-Serif" font-size="10.00">TemperatureController</text>
<text xml:space="preserve" text-anchor="middle" x="582.12" y="-92.12" font-family="Helvetica,sans-Serif" font-size="10.00">::_displaySystemStats</text>
</a>
</g>
</g>
<!-- Node10&#45;&gt;Node16 -->
<g id="edge16_Node000010_Node000016" class="edge">
<title>Node10&#45;&gt;Node16</title>
<g id="a_edge16_Node000010_Node000016"><a xlink:title=" ">
<path fill="none" stroke="#63b8ff" d="M397.41,-233.03C414.69,-207.11 452.82,-155.17 498,-126.62 502.89,-123.53 508.18,-120.81 513.65,-118.41"/>
<polygon fill="#63b8ff" stroke="#63b8ff" points="514.9,-121.68 522.9,-114.74 512.32,-115.17 514.9,-121.68"/>
</a>
</g>
</g>
<!-- Node12 -->
<g id="Node000012" class="node">
<title>Node12</title>
<g id="a_Node000012"><a xlink:href="class_temperature_controller.html#a3022c7a72adb45a7800d5189eecdac4e" target="_top" xlink:title="Get total number of configured alarms.">
<polygon fill="white" stroke="#666666" points="814.25,-312.88 702.25,-312.88 702.25,-282.38 814.25,-282.38 814.25,-312.88"/>
<text xml:space="preserve" text-anchor="start" x="710.25" y="-299.38" font-family="Helvetica,sans-Serif" font-size="10.00">TemperatureController</text>
<text xml:space="preserve" text-anchor="middle" x="758.25" y="-288.12" font-family="Helvetica,sans-Serif" font-size="10.00">::getAlarmCount</text>
</a>
</g>
</g>
<!-- Node11&#45;&gt;Node12 -->
<g id="edge12_Node000011_Node000012" class="edge">
<title>Node11&#45;&gt;Node12</title>
<g id="a_edge12_Node000011_Node000012"><a xlink:title=" ">
<path fill="none" stroke="#63b8ff" d="M666.62,-297.62C674.71,-297.62 682.84,-297.62 690.74,-297.62"/>
<polygon fill="#63b8ff" stroke="#63b8ff" points="690.59,-301.13 700.59,-297.63 690.59,-294.13 690.59,-301.13"/>
</a>
</g>
</g>
<!-- Node17 -->
<g id="Node000017" class="node">
<title>Node17</title>
<g id="a_Node000017"><a xlink:href="class_temperature_controller.html#a9b4fe09d4c87dcf86e78b890012e1e72" target="_top" xlink:title="Get sensor bound to measurement point.">
<polygon fill="white" stroke="#666666" points="814.25,-165.88 702.25,-165.88 702.25,-135.38 814.25,-135.38 814.25,-165.88"/>
<text xml:space="preserve" text-anchor="start" x="710.25" y="-152.38" font-family="Helvetica,sans-Serif" font-size="10.00">TemperatureController</text>
<text xml:space="preserve" text-anchor="middle" x="758.25" y="-141.12" font-family="Helvetica,sans-Serif" font-size="10.00">::getBoundSensor</text>
</a>
</g>
</g>
<!-- Node16&#45;&gt;Node17 -->
<g id="edge17_Node000016_Node000017" class="edge">
<title>Node16&#45;&gt;Node17</title>
<g id="a_edge17_Node000016_Node000017"><a xlink:title=" ">
<path fill="none" stroke="#63b8ff" d="M638.7,-117.26C655.43,-121.97 673.95,-127.19 691.29,-132.06"/>
<polygon fill="#63b8ff" stroke="#63b8ff" points="689.88,-135.3 700.45,-134.64 691.77,-128.56 689.88,-135.3"/>
</a>
</g>
</g>
<!-- Node22 -->
<g id="Node000022" class="node">
<title>Node22</title>
<g id="a_Node000022"><a xlink:href="class_temperature_controller.html#a9ac5f76def1895a8c8f8f92ce8cd2e5c" target="_top" xlink:title="Get count of discovered DS18B20 sensors.">
<polygon fill="white" stroke="#666666" points="814.25,-116.88 702.25,-116.88 702.25,-86.38 814.25,-86.38 814.25,-116.88"/>
<text xml:space="preserve" text-anchor="start" x="710.25" y="-103.38" font-family="Helvetica,sans-Serif" font-size="10.00">TemperatureController</text>
<text xml:space="preserve" text-anchor="middle" x="758.25" y="-92.12" font-family="Helvetica,sans-Serif" font-size="10.00">::getDS18B20Count</text>
</a>
</g>
</g>
<!-- Node16&#45;&gt;Node22 -->
<g id="edge22_Node000016_Node000022" class="edge">
<title>Node16&#45;&gt;Node22</title>
<g id="a_edge22_Node000016_Node000022"><a xlink:title=" ">
<path fill="none" stroke="#63b8ff" d="M639.66,-101.62C655.88,-101.62 673.71,-101.62 690.48,-101.62"/>
<polygon fill="#63b8ff" stroke="#63b8ff" points="690.38,-105.13 700.38,-101.63 690.38,-98.13 690.38,-105.13"/>
</a>
</g>
</g>
<!-- Node23 -->
<g id="Node000023" class="node">
<title>Node23</title>
<g id="a_Node000023"><a xlink:href="class_temperature_controller.html#a6ab2ecc10c283d75d948ce6f1ad723a6" target="_top" xlink:title="Get count of discovered PT1000 sensors.">
<polygon fill="white" stroke="#666666" points="814.25,-67.88 702.25,-67.88 702.25,-37.38 814.25,-37.38 814.25,-67.88"/>
<text xml:space="preserve" text-anchor="start" x="710.25" y="-54.38" font-family="Helvetica,sans-Serif" font-size="10.00">TemperatureController</text>
<text xml:space="preserve" text-anchor="middle" x="758.25" y="-43.12" font-family="Helvetica,sans-Serif" font-size="10.00">::getPT1000Count</text>
</a>
</g>
</g>
<!-- Node16&#45;&gt;Node23 -->
<g id="edge23_Node000016_Node000023" class="edge">
<title>Node16&#45;&gt;Node23</title>
<g id="a_edge23_Node000016_Node000023"><a xlink:title=" ">
<path fill="none" stroke="#63b8ff" d="M638.7,-85.99C655.43,-81.28 673.95,-76.06 691.29,-71.19"/>
<polygon fill="#63b8ff" stroke="#63b8ff" points="691.77,-74.69 700.45,-68.61 689.88,-67.95 691.77,-74.69"/>
</a>
</g>
</g>
<!-- Node18 -->
<g id="Node000018" class="node">
<title>Node18</title>
<g id="a_Node000018"><a xlink:href="class_measurement_point.html#a81c7ae93a9314344967d0f31c6fefe2f" target="_top" xlink:title="Get pointer to bound sensor.">
<polygon fill="white" stroke="#666666" points="995.25,-189.88 850.25,-189.88 850.25,-159.38 995.25,-159.38 995.25,-189.88"/>
<text xml:space="preserve" text-anchor="start" x="858.25" y="-176.38" font-family="Helvetica,sans-Serif" font-size="10.00">MeasurementPoint::getBound</text>
<text xml:space="preserve" text-anchor="middle" x="922.75" y="-165.12" font-family="Helvetica,sans-Serif" font-size="10.00">Sensor</text>
</a>
</g>
</g>
<!-- Node17&#45;&gt;Node18 -->
<g id="edge18_Node000017_Node000018" class="edge">
<title>Node17&#45;&gt;Node18</title>
<g id="a_edge18_Node000017_Node000018"><a xlink:title=" ">
<path fill="none" stroke="#63b8ff" d="M814.72,-158.82C822.41,-159.95 830.44,-161.14 838.49,-162.33"/>
<polygon fill="#63b8ff" stroke="#63b8ff" points="837.96,-165.79 848.37,-163.79 838.99,-158.86 837.96,-165.79"/>
</a>
</g>
</g>
<!-- Node19 -->
<g id="Node000019" class="node">
<title>Node19</title>
<g id="a_Node000019"><a xlink:href="class_temperature_controller.html#a494f057c234b4ff7526bde271aec9267" target="_top" xlink:title="Get measurement point by address.">
<polygon fill="white" stroke="#666666" points="981.38,-140.88 864.12,-140.88 864.12,-110.38 981.38,-110.38 981.38,-140.88"/>
<text xml:space="preserve" text-anchor="start" x="872.12" y="-127.38" font-family="Helvetica,sans-Serif" font-size="10.00">TemperatureController</text>
<text xml:space="preserve" text-anchor="middle" x="922.75" y="-116.12" font-family="Helvetica,sans-Serif" font-size="10.00">::getMeasurementPoint</text>
</a>
</g>
</g>
<!-- Node17&#45;&gt;Node19 -->
<g id="edge19_Node000017_Node000019" class="edge">
<title>Node17&#45;&gt;Node19</title>
<g id="a_edge19_Node000017_Node000019"><a xlink:title=" ">
<path fill="none" stroke="#63b8ff" d="M814.72,-142.09C826.95,-140.21 840.05,-138.19 852.74,-136.24"/>
<polygon fill="#63b8ff" stroke="#63b8ff" points="852.91,-139.76 862.27,-134.78 851.85,-132.84 852.91,-139.76"/>
</a>
</g>
</g>
<!-- Node20 -->
<g id="Node000020" class="node">
<title>Node20</title>
<g id="a_Node000020"><a xlink:href="class_temperature_controller.html#ad322a5bab8d5788a586206004248f673" target="_top" xlink:title="Check if address is for DS18B20 sensor.">
<polygon fill="white" stroke="#666666" points="1143.25,-165.88 1031.25,-165.88 1031.25,-135.38 1143.25,-135.38 1143.25,-165.88"/>
<text xml:space="preserve" text-anchor="start" x="1039.25" y="-152.38" font-family="Helvetica,sans-Serif" font-size="10.00">TemperatureController</text>
<text xml:space="preserve" text-anchor="middle" x="1087.25" y="-141.12" font-family="Helvetica,sans-Serif" font-size="10.00">::isDS18B20Address</text>
</a>
</g>
</g>
<!-- Node19&#45;&gt;Node20 -->
<g id="edge20_Node000019_Node000020" class="edge">
<title>Node19&#45;&gt;Node20</title>
<g id="a_edge20_Node000019_Node000020"><a xlink:title=" ">
<path fill="none" stroke="#63b8ff" d="M981.5,-134.51C993.92,-136.42 1007.14,-138.45 1019.85,-140.41"/>
<polygon fill="#63b8ff" stroke="#63b8ff" points="1018.95,-143.81 1029.37,-141.87 1020.02,-136.89 1018.95,-143.81"/>
</a>
</g>
</g>
<!-- Node21 -->
<g id="Node000021" class="node">
<title>Node21</title>
<g id="a_Node000021"><a xlink:href="class_temperature_controller.html#a13125ddcf29cb56d27403818543618af" target="_top" xlink:title="Check if address is for PT1000 sensor.">
<polygon fill="white" stroke="#666666" points="1143.25,-116.88 1031.25,-116.88 1031.25,-86.38 1143.25,-86.38 1143.25,-116.88"/>
<text xml:space="preserve" text-anchor="start" x="1039.25" y="-103.38" font-family="Helvetica,sans-Serif" font-size="10.00">TemperatureController</text>
<text xml:space="preserve" text-anchor="middle" x="1087.25" y="-92.12" font-family="Helvetica,sans-Serif" font-size="10.00">::isPT1000Address</text>
</a>
</g>
</g>
<!-- Node19&#45;&gt;Node21 -->
<g id="edge21_Node000019_Node000021" class="edge">
<title>Node19&#45;&gt;Node21</title>
<g id="a_edge21_Node000019_Node000021"><a xlink:title=" ">
<path fill="none" stroke="#63b8ff" d="M981.5,-117.1C993.92,-115.26 1007.14,-113.31 1019.85,-111.43"/>
<polygon fill="#63b8ff" stroke="#63b8ff" points="1019.99,-114.95 1029.37,-110.03 1018.96,-108.02 1019.99,-114.95"/>
</a>
</g>
</g>
<!-- Node25 -->
<g id="Node000025" class="node">
<title>Node25</title>
<g id="a_Node000025"><a xlink:href="class_temperature_controller.html#af58201023d15de003d4f1b9a9771a9e3" target="_top" xlink:title="Get list of active alarms.">
<polygon fill="white" stroke="#666666" points="638.12,-67.88 526.12,-67.88 526.12,-37.38 638.12,-37.38 638.12,-67.88"/>
<text xml:space="preserve" text-anchor="start" x="534.12" y="-54.38" font-family="Helvetica,sans-Serif" font-size="10.00">TemperatureController</text>
<text xml:space="preserve" text-anchor="middle" x="582.12" y="-43.12" font-family="Helvetica,sans-Serif" font-size="10.00">::getActiveAlarms</text>
</a>
</g>
</g>
<!-- Node24&#45;&gt;Node25 -->
<g id="edge27_Node000024_Node000025" class="edge">
<title>Node24&#45;&gt;Node25</title>
<g id="a_edge27_Node000024_Node000025"><a xlink:title=" ">
<path fill="none" stroke="#63b8ff" d="M444.81,-52.62C466.65,-52.62 491.74,-52.62 514.39,-52.62"/>
<polygon fill="#63b8ff" stroke="#63b8ff" points="514.12,-56.13 524.12,-52.63 514.12,-49.13 514.12,-56.13"/>
</a>
</g>
</g>
<!-- Node26 -->
<g id="Node000026" class="node">
<title>Node26</title>
<g id="a_Node000026"><a xlink:href="class_alarm.html#a7a4a3290a6a659542f82fe08a96736a8" target="_top" xlink:title="Get the alarm creation timestamp.">
<polygon fill="white" stroke="#666666" points="637,-19.25 527.25,-19.25 527.25,0 637,0 637,-19.25"/>
<text xml:space="preserve" text-anchor="middle" x="582.12" y="-5.75" font-family="Helvetica,sans-Serif" font-size="10.00">Alarm::getTimestamp</text>
</a>
</g>
</g>
<!-- Node24&#45;&gt;Node26 -->
<g id="edge28_Node000024_Node000026" class="edge">
<title>Node24&#45;&gt;Node26</title>
<g id="a_edge28_Node000024_Node000026"><a xlink:title=" ">
<path fill="none" stroke="#63b8ff" d="M444.81,-39.9C469.95,-34.31 499.38,-27.78 524.45,-22.21"/>
<polygon fill="#63b8ff" stroke="#63b8ff" points="525.15,-25.64 534.16,-20.06 523.64,-18.81 525.15,-25.64"/>
</a>
</g>
</g>
</g>
</svg>
