<?xml version="1.0" encoding="UTF-8" standalone="no"?>
<!DOCTYPE svg PUBLIC "-//W3C//DTD SVG 1.1//EN"
 "http://www.w3.org/Graphics/SVG/1.1/DTD/svg11.dtd">
<!-- Generated by graphviz version 13.1.0 (20250701.0955)
 -->
<!-- Title: TemperatureController::readAllPoints Pages: 1 -->
<svg width="1471pt" height="915pt"
 viewBox="0.00 0.00 1471.00 915.00" xmlns="http://www.w3.org/2000/svg" xmlns:xlink="http://www.w3.org/1999/xlink">
<g id="graph0" class="graph" transform="scale(1 1) rotate(0) translate(4 910.88)">
<title>TemperatureController::readAllPoints</title>
<!-- Node1 -->
<g id="Node000001" class="node">
<title>Node1</title>
<g id="a_Node000001"><a xlink:title="Read temperature from all configured measurement points.">
<polygon fill="#999999" stroke="#666666" points="112,-400.88 0,-400.88 0,-370.38 112,-370.38 112,-400.88"/>
<text xml:space="preserve" text-anchor="start" x="8" y="-387.38" font-family="Helvetica,sans-Serif" font-size="10.00">TemperatureController</text>
<text xml:space="preserve" text-anchor="middle" x="56" y="-376.12" font-family="Helvetica,sans-Serif" font-size="10.00">::readAllPoints</text>
</a>
</g>
</g>
<!-- Node2 -->
<g id="Node000002" class="node">
<title>Node2</title>
<g id="a_Node000002"><a xlink:href="class_temperature_controller.html#aca5deddbf703001373424d876f87b5f2" target="_top" xlink:title="Main update function &#45; must be called in loop()">
<polygon fill="white" stroke="#666666" points="260,-400.88 148,-400.88 148,-370.38 260,-370.38 260,-400.88"/>
<text xml:space="preserve" text-anchor="start" x="156" y="-387.38" font-family="Helvetica,sans-Serif" font-size="10.00">TemperatureController</text>
<text xml:space="preserve" text-anchor="middle" x="204" y="-376.12" font-family="Helvetica,sans-Serif" font-size="10.00">::update</text>
</a>
</g>
</g>
<!-- Node1&#45;&gt;Node2 -->
<g id="edge1_Node000001_Node000002" class="edge">
<title>Node1&#45;&gt;Node2</title>
<g id="a_edge1_Node000001_Node000002"><a xlink:title=" ">
<path fill="none" stroke="#63b8ff" d="M112.2,-379.06C120.1,-378.89 128.3,-378.84 136.39,-378.9"/>
<polygon fill="#63b8ff" stroke="#63b8ff" points="136.16,-382.4 146.21,-379.03 136.26,-375.4 136.16,-382.4"/>
</a>
</g>
</g>
<!-- Node2&#45;&gt;Node1 -->
<g id="edge36_Node000002_Node000001" class="edge">
<title>Node2&#45;&gt;Node1</title>
<g id="a_edge36_Node000002_Node000001"><a xlink:title=" ">
<path fill="none" stroke="#63b8ff" d="M147.73,-392.19C139.82,-392.36 131.62,-392.41 123.53,-392.35"/>
<polygon fill="#63b8ff" stroke="#63b8ff" points="123.76,-388.85 113.71,-392.21 123.66,-395.85 123.76,-388.85"/>
</a>
</g>
</g>
<!-- Node3 -->
<g id="Node000003" class="node">
<title>Node3</title>
<g id="a_Node000003"><a xlink:href="class_temperature_controller.html#a1228b63e95f26c21a8d9c2a27928bc75" target="_top" xlink:title="Check for button press and handle acknowledgment.">
<polygon fill="white" stroke="#666666" points="569.88,-706.88 457.88,-706.88 457.88,-676.38 569.88,-676.38 569.88,-706.88"/>
<text xml:space="preserve" text-anchor="start" x="465.88" y="-693.38" font-family="Helvetica,sans-Serif" font-size="10.00">TemperatureController</text>
<text xml:space="preserve" text-anchor="middle" x="513.88" y="-682.12" font-family="Helvetica,sans-Serif" font-size="10.00">::_checkButtonPress</text>
</a>
</g>
</g>
<!-- Node2&#45;&gt;Node3 -->
<g id="edge2_Node000002_Node000003" class="edge">
<title>Node2&#45;&gt;Node3</title>
<g id="a_edge2_Node000002_Node000003"><a xlink:title=" ">
<path fill="none" stroke="#63b8ff" d="M205.15,-401.3C206.5,-447.85 217.27,-586.17 296,-653.62 337.16,-688.9 399.27,-696.75 446.49,-696.74"/>
<polygon fill="#63b8ff" stroke="#63b8ff" points="446.38,-700.24 456.33,-696.61 446.28,-693.24 446.38,-700.24"/>
</a>
</g>
</g>
<!-- Node6 -->
<g id="Node000006" class="node">
<title>Node6</title>
<g id="a_Node000006"><a xlink:href="class_temperature_controller.html#a5637103784725fb1a73f6463d7cbfde6" target="_top" xlink:title="Handle alarm display on OLED/LEDs.">
<polygon fill="white" stroke="#666666" points="408,-644.88 296,-644.88 296,-614.38 408,-614.38 408,-644.88"/>
<text xml:space="preserve" text-anchor="start" x="304" y="-631.38" font-family="Helvetica,sans-Serif" font-size="10.00">TemperatureController</text>
<text xml:space="preserve" text-anchor="middle" x="352" y="-620.12" font-family="Helvetica,sans-Serif" font-size="10.00">::handleAlarmDisplay</text>
</a>
</g>
</g>
<!-- Node2&#45;&gt;Node6 -->
<g id="edge5_Node000002_Node000006" class="edge">
<title>Node2&#45;&gt;Node6</title>
<g id="a_edge5_Node000002_Node000006"><a xlink:title=" ">
<path fill="none" stroke="#63b8ff" d="M214.36,-401.26C238.97,-442.4 305.74,-553.98 335.88,-604.35"/>
<polygon fill="#63b8ff" stroke="#63b8ff" points="332.81,-606.04 340.95,-612.82 338.81,-602.44 332.81,-606.04"/>
</a>
</g>
</g>
<!-- Node29 -->
<g id="Node000029" class="node">
<title>Node29</title>
<g id="a_Node000029"><a xlink:href="class_temperature_controller.html#a82e4c37ff4121eaf5e00e9c52381e840" target="_top" xlink:title="Handle alarm output signals.">
<polygon fill="white" stroke="#666666" points="408,-357.88 296,-357.88 296,-327.38 408,-327.38 408,-357.88"/>
<text xml:space="preserve" text-anchor="start" x="304" y="-344.38" font-family="Helvetica,sans-Serif" font-size="10.00">TemperatureController</text>
<text xml:space="preserve" text-anchor="middle" x="352" y="-333.12" font-family="Helvetica,sans-Serif" font-size="10.00">::handleAlarmOutputs</text>
</a>
</g>
</g>
<!-- Node2&#45;&gt;Node29 -->
<g id="edge33_Node000002_Node000029" class="edge">
<title>Node2&#45;&gt;Node29</title>
<g id="a_edge33_Node000002_Node000029"><a xlink:title=" ">
<path fill="none" stroke="#63b8ff" d="M258.12,-369.98C267.48,-367.22 277.31,-364.33 286.94,-361.49"/>
<polygon fill="#63b8ff" stroke="#63b8ff" points="287.62,-364.94 296.22,-358.76 285.64,-358.23 287.62,-364.94"/>
</a>
</g>
</g>
<!-- Node31 -->
<g id="Node000031" class="node">
<title>Node31</title>
<g id="a_Node000031"><a xlink:href="class_temperature_controller.html#a5ac8af90de5dfd79a9a2e4c7270a98a3" target="_top" xlink:title="Update alarm states for all measurement points.">
<polygon fill="white" stroke="#666666" points="756.88,-417.88 644.88,-417.88 644.88,-387.38 756.88,-387.38 756.88,-417.88"/>
<text xml:space="preserve" text-anchor="start" x="652.88" y="-404.38" font-family="Helvetica,sans-Serif" font-size="10.00">TemperatureController</text>
<text xml:space="preserve" text-anchor="middle" x="700.88" y="-393.12" font-family="Helvetica,sans-Serif" font-size="10.00">::updateAlarms</text>
</a>
</g>
</g>
<!-- Node2&#45;&gt;Node31 -->
<g id="edge37_Node000002_Node000031" class="edge">
<title>Node2&#45;&gt;Node31</title>
<g id="a_edge37_Node000002_Node000031"><a xlink:title=" ">
<path fill="none" stroke="#63b8ff" d="M260.33,-387.53C351.91,-390.67 534.68,-396.95 633.23,-400.34"/>
<polygon fill="#63b8ff" stroke="#63b8ff" points="632.9,-403.83 643.01,-400.67 633.14,-396.83 632.9,-403.83"/>
</a>
</g>
</g>
<!-- Node32 -->
<g id="Node000032" class="node">
<title>Node32</title>
<g id="a_Node000032"><a xlink:href="class_temperature_controller.html#a23dca296a268baa9b8234c8bf9cf0c3e" target="_top" xlink:title="Update temperature readings for all sensors.">
<polygon fill="white" stroke="#666666" points="408,-136.88 296,-136.88 296,-106.38 408,-106.38 408,-136.88"/>
<text xml:space="preserve" text-anchor="start" x="304" y="-123.38" font-family="Helvetica,sans-Serif" font-size="10.00">TemperatureController</text>
<text xml:space="preserve" text-anchor="middle" x="352" y="-112.12" font-family="Helvetica,sans-Serif" font-size="10.00">::updateAllSensors</text>
</a>
</g>
</g>
<!-- Node2&#45;&gt;Node32 -->
<g id="edge40_Node000002_Node000032" class="edge">
<title>Node2&#45;&gt;Node32</title>
<g id="a_edge40_Node000002_Node000032"><a xlink:title=" ">
<path fill="none" stroke="#63b8ff" d="M212.38,-370.34C227.38,-339.52 262.79,-267.91 296,-209.62 308.3,-188.03 323.31,-164.16 334.54,-146.74"/>
<polygon fill="#63b8ff" stroke="#63b8ff" points="337.34,-148.85 339.85,-138.56 331.47,-145.04 337.34,-148.85"/>
</a>
</g>
</g>
<!-- Node38 -->
<g id="Node000038" class="node">
<title>Node38</title>
<g id="a_Node000038"><a xlink:href="class_temperature_controller.html#a62b93899a3b8b55e2e0bd933520c2892" target="_top" xlink:title="Update register map with current values from measurement points.">
<polygon fill="white" stroke="#666666" points="408,-248.88 296,-248.88 296,-218.38 408,-218.38 408,-248.88"/>
<text xml:space="preserve" text-anchor="start" x="304" y="-235.38" font-family="Helvetica,sans-Serif" font-size="10.00">TemperatureController</text>
<text xml:space="preserve" text-anchor="middle" x="352" y="-224.12" font-family="Helvetica,sans-Serif" font-size="10.00">::updateRegisterMap</text>
</a>
</g>
</g>
<!-- Node2&#45;&gt;Node38 -->
<g id="edge46_Node000002_Node000038" class="edge">
<title>Node2&#45;&gt;Node38</title>
<g id="a_edge46_Node000002_Node000038"><a xlink:title=" ">
<path fill="none" stroke="#63b8ff" d="M220.07,-369.93C245.78,-343.17 298.23,-288.56 328.36,-257.2"/>
<polygon fill="#63b8ff" stroke="#63b8ff" points="330.77,-259.74 335.18,-250.1 325.72,-254.89 330.77,-259.74"/>
</a>
</g>
</g>
<!-- Node4 -->
<g id="Node000004" class="node">
<title>Node4</title>
<g id="a_Node000004"><a xlink:href="class_temperature_controller.html#ac44de0834e13cec755e247ce1df21f09" target="_top" xlink:title="Display next acknowledged alarm.">
<polygon fill="white" stroke="#666666" points="986.25,-906.88 818,-906.88 818,-876.38 986.25,-876.38 986.25,-906.88"/>
<text xml:space="preserve" text-anchor="start" x="826" y="-893.38" font-family="Helvetica,sans-Serif" font-size="10.00">TemperatureController</text>
<text xml:space="preserve" text-anchor="middle" x="902.12" y="-882.12" font-family="Helvetica,sans-Serif" font-size="10.00">::_displayNextAcknowledgedAlarm</text>
</a>
</g>
</g>
<!-- Node3&#45;&gt;Node4 -->
<g id="edge3_Node000003_Node000004" class="edge">
<title>Node3&#45;&gt;Node4</title>
<g id="a_edge3_Node000003_Node000004"><a xlink:title=" ">
<path fill="none" stroke="#63b8ff" d="M523.34,-707.06C538.84,-733.83 574.37,-788.74 619.75,-817.62 675.87,-853.35 748.73,-871.91 806.25,-881.5"/>
<polygon fill="#63b8ff" stroke="#63b8ff" points="805.62,-884.94 816.04,-883.06 806.72,-878.03 805.62,-884.94"/>
</a>
</g>
</g>
<!-- Node5 -->
<g id="Node000005" class="node">
<title>Node5</title>
<g id="a_Node000005"><a xlink:href="class_temperature_controller.html#a3955f205bc33dda762cbe5c572cd4f21" target="_top" xlink:title="Switch to a new display section.">
<polygon fill="white" stroke="#666666" points="958.12,-710.88 846.12,-710.88 846.12,-680.38 958.12,-680.38 958.12,-710.88"/>
<text xml:space="preserve" text-anchor="start" x="854.12" y="-697.38" font-family="Helvetica,sans-Serif" font-size="10.00">TemperatureController</text>
<text xml:space="preserve" text-anchor="middle" x="902.12" y="-686.12" font-family="Helvetica,sans-Serif" font-size="10.00">::_switchToSection</text>
</a>
</g>
</g>
<!-- Node3&#45;&gt;Node5 -->
<g id="edge4_Node000003_Node000005" class="edge">
<title>Node3&#45;&gt;Node5</title>
<g id="a_edge4_Node000003_Node000005"><a xlink:title=" ">
<path fill="none" stroke="#63b8ff" d="M570.22,-692.2C640.06,-692.92 760.06,-694.16 834.76,-694.94"/>
<polygon fill="#63b8ff" stroke="#63b8ff" points="834.34,-698.43 844.37,-695.04 834.41,-691.43 834.34,-698.43"/>
</a>
</g>
</g>
<!-- Node6&#45;&gt;Node3 -->
<g id="edge6_Node000006_Node000003" class="edge">
<title>Node6&#45;&gt;Node3</title>
<g id="a_edge6_Node000006_Node000003"><a xlink:title=" ">
<path fill="none" stroke="#63b8ff" d="M393.34,-645.27C414.09,-653.32 439.6,-663.21 461.72,-671.79"/>
<polygon fill="#63b8ff" stroke="#63b8ff" points="460.27,-674.98 470.86,-675.33 462.8,-668.45 460.27,-674.98"/>
</a>
</g>
</g>
<!-- Node7 -->
<g id="Node000007" class="node">
<title>Node7</title>
<g id="a_Node000007"><a xlink:href="class_temperature_controller.html#a6b2f92b5c2af867240200cff2e61e806" target="_top" xlink:title="Handle display section switching.">
<polygon fill="white" stroke="#666666" points="577.38,-644.88 450.38,-644.88 450.38,-614.38 577.38,-614.38 577.38,-644.88"/>
<text xml:space="preserve" text-anchor="start" x="458.38" y="-631.38" font-family="Helvetica,sans-Serif" font-size="10.00">TemperatureController</text>
<text xml:space="preserve" text-anchor="middle" x="513.88" y="-620.12" font-family="Helvetica,sans-Serif" font-size="10.00">::_handleDisplaySections</text>
</a>
</g>
</g>
<!-- Node6&#45;&gt;Node7 -->
<g id="edge7_Node000006_Node000007" class="edge">
<title>Node6&#45;&gt;Node7</title>
<g id="a_edge7_Node000006_Node000007"><a xlink:title=" ">
<path fill="none" stroke="#63b8ff" d="M408.47,-629.62C418.23,-629.62 428.53,-629.62 438.71,-629.62"/>
<polygon fill="#63b8ff" stroke="#63b8ff" points="438.6,-633.13 448.6,-629.63 438.6,-626.13 438.6,-633.13"/>
</a>
</g>
</g>
<!-- Node7&#45;&gt;Node5 -->
<g id="edge28_Node000007_Node000005" class="edge">
<title>Node7&#45;&gt;Node5</title>
<g id="a_edge28_Node000007_Node000005"><a xlink:title=" ">
<path fill="none" stroke="#63b8ff" d="M577.77,-629.1C632.6,-630.1 713.81,-635.09 782,-653.62 799.07,-658.27 801.48,-664.28 818,-670.62 823.54,-672.75 829.34,-674.82 835.19,-676.79"/>
<polygon fill="#63b8ff" stroke="#63b8ff" points="833.71,-679.98 844.3,-679.76 835.88,-673.33 833.71,-679.98"/>
</a>
</g>
</g>
<!-- Node8 -->
<g id="Node000008" class="node">
<title>Node8</title>
<g id="a_Node000008"><a xlink:href="class_temperature_controller.html#a1d2745c323f7094beac8f406825499b7" target="_top" xlink:title="Handle alarm display rotation timing.">
<polygon fill="white" stroke="#666666" points="776.38,-808.88 625.38,-808.88 625.38,-778.38 776.38,-778.38 776.38,-808.88"/>
<text xml:space="preserve" text-anchor="start" x="633.38" y="-795.38" font-family="Helvetica,sans-Serif" font-size="10.00">TemperatureController</text>
<text xml:space="preserve" text-anchor="middle" x="700.88" y="-784.12" font-family="Helvetica,sans-Serif" font-size="10.00">::_handleAlarmDisplayRotation</text>
</a>
</g>
</g>
<!-- Node7&#45;&gt;Node8 -->
<g id="edge8_Node000007_Node000008" class="edge">
<title>Node7&#45;&gt;Node8</title>
<g id="a_edge8_Node000007_Node000008"><a xlink:title=" ">
<path fill="none" stroke="#63b8ff" d="M548.46,-645.37C560.14,-651.55 573,-659.2 583.75,-667.62 622.69,-698.17 660.07,-742.24 681.46,-769.34"/>
<polygon fill="#63b8ff" stroke="#63b8ff" points="678.51,-771.24 687.41,-776.98 684.03,-766.94 678.51,-771.24"/>
</a>
</g>
</g>
<!-- Node11 -->
<g id="Node000011" class="node">
<title>Node11</title>
<g id="a_Node000011"><a xlink:href="class_temperature_controller.html#a4d36576f7d6ab8f5222a082878314912" target="_top" xlink:title="Update normal temperature display.">
<polygon fill="white" stroke="#666666" points="962.62,-759.88 841.62,-759.88 841.62,-729.38 962.62,-729.38 962.62,-759.88"/>
<text xml:space="preserve" text-anchor="start" x="849.62" y="-746.38" font-family="Helvetica,sans-Serif" font-size="10.00">TemperatureController</text>
<text xml:space="preserve" text-anchor="middle" x="902.12" y="-735.12" font-family="Helvetica,sans-Serif" font-size="10.00">::_updateNormalDisplay</text>
</a>
</g>
</g>
<!-- Node7&#45;&gt;Node11 -->
<g id="edge32_Node000007_Node000011" class="edge">
<title>Node7&#45;&gt;Node11</title>
<g id="a_edge32_Node000007_Node000011"><a xlink:title=" ">
<path fill="none" stroke="#63b8ff" d="M567.77,-645.37C638.07,-666.31 762.16,-703.25 837.5,-725.68"/>
<polygon fill="#63b8ff" stroke="#63b8ff" points="836.22,-728.95 846.8,-728.45 838.21,-722.24 836.22,-728.95"/>
</a>
</g>
</g>
<!-- Node12 -->
<g id="Node000012" class="node">
<title>Node12</title>
<g id="a_Node000012"><a xlink:href="class_temperature_controller.html#a45f7994a3a052a527981dbfdad27606b" target="_top" xlink:title="Handle system status mode display.">
<polygon fill="white" stroke="#666666" points="771.88,-601.88 629.88,-601.88 629.88,-571.38 771.88,-571.38 771.88,-601.88"/>
<text xml:space="preserve" text-anchor="start" x="637.88" y="-588.38" font-family="Helvetica,sans-Serif" font-size="10.00">TemperatureController</text>
<text xml:space="preserve" text-anchor="middle" x="700.88" y="-577.12" font-family="Helvetica,sans-Serif" font-size="10.00">::_handleSystemStatusMode</text>
</a>
</g>
</g>
<!-- Node7&#45;&gt;Node12 -->
<g id="edge13_Node000007_Node000012" class="edge">
<title>Node7&#45;&gt;Node12</title>
<g id="a_edge13_Node000007_Node000012"><a xlink:title=" ">
<path fill="none" stroke="#63b8ff" d="M577.77,-615.01C591.79,-611.75 606.83,-608.25 621.39,-604.87"/>
<polygon fill="#63b8ff" stroke="#63b8ff" points="621.99,-608.32 630.94,-602.65 620.4,-601.5 621.99,-608.32"/>
</a>
</g>
</g>
<!-- Node26 -->
<g id="Node000026" class="node">
<title>Node26</title>
<g id="a_Node000026"><a xlink:href="class_temperature_controller.html#a477597992aa9362076843f37b648741a" target="_top" xlink:title="Update alarm display queues.">
<polygon fill="white" stroke="#666666" points="758.75,-368.88 643,-368.88 643,-338.38 758.75,-338.38 758.75,-368.88"/>
<text xml:space="preserve" text-anchor="start" x="651" y="-355.38" font-family="Helvetica,sans-Serif" font-size="10.00">TemperatureController</text>
<text xml:space="preserve" text-anchor="middle" x="700.88" y="-344.12" font-family="Helvetica,sans-Serif" font-size="10.00">::_updateAlarmQueues</text>
</a>
</g>
</g>
<!-- Node7&#45;&gt;Node26 -->
<g id="edge29_Node000007_Node000026" class="edge">
<title>Node7&#45;&gt;Node26</title>
<g id="a_edge29_Node000007_Node000026"><a xlink:title=" ">
<path fill="none" stroke="#63b8ff" d="M516.8,-614.07C523.05,-570.33 546.77,-445.09 619.75,-378.62 623.55,-375.16 627.82,-372.18 632.37,-369.61"/>
<polygon fill="#63b8ff" stroke="#63b8ff" points="633.83,-372.79 641.31,-365.28 630.78,-366.49 633.83,-372.79"/>
</a>
</g>
</g>
<!-- Node8&#45;&gt;Node4 -->
<g id="edge9_Node000008_Node000004" class="edge">
<title>Node8&#45;&gt;Node4</title>
<g id="a_edge9_Node000008_Node000004"><a xlink:title=" ">
<path fill="none" stroke="#63b8ff" d="M722.73,-809.17C745.25,-825.36 782.66,-850.56 818,-866.62 822.24,-868.55 826.68,-870.38 831.19,-872.11"/>
<polygon fill="#63b8ff" stroke="#63b8ff" points="829.8,-875.32 840.39,-875.42 832.17,-868.74 829.8,-875.32"/>
</a>
</g>
</g>
<!-- Node9 -->
<g id="Node000009" class="node">
<title>Node9</title>
<g id="a_Node000009"><a xlink:href="class_temperature_controller.html#a7ca5124357f98bcd52316cf017341b09" target="_top" xlink:title="Display next active alarm in rotation.">
<polygon fill="white" stroke="#666666" points="968.25,-857.88 836,-857.88 836,-827.38 968.25,-827.38 968.25,-857.88"/>
<text xml:space="preserve" text-anchor="start" x="844" y="-844.38" font-family="Helvetica,sans-Serif" font-size="10.00">TemperatureController</text>
<text xml:space="preserve" text-anchor="middle" x="902.12" y="-833.12" font-family="Helvetica,sans-Serif" font-size="10.00">::_displayNextActiveAlarm</text>
</a>
</g>
</g>
<!-- Node8&#45;&gt;Node9 -->
<g id="edge10_Node000008_Node000009" class="edge">
<title>Node8&#45;&gt;Node9</title>
<g id="a_edge10_Node000008_Node000009"><a xlink:title=" ">
<path fill="none" stroke="#63b8ff" d="M765.74,-809.33C785.05,-814.08 806.42,-819.33 826.36,-824.24"/>
<polygon fill="#63b8ff" stroke="#63b8ff" points="825.26,-827.57 835.81,-826.56 826.93,-820.78 825.26,-827.57"/>
</a>
</g>
</g>
<!-- Node10 -->
<g id="Node000010" class="node">
<title>Node10</title>
<g id="a_Node000010"><a xlink:href="class_temperature_controller.html#a28e81945f5235e161e6c532b428d36d2" target="_top" xlink:title="Show OK status and turn off OLED after delay.">
<polygon fill="white" stroke="#666666" points="973.12,-808.88 831.12,-808.88 831.12,-778.38 973.12,-778.38 973.12,-808.88"/>
<text xml:space="preserve" text-anchor="start" x="839.12" y="-795.38" font-family="Helvetica,sans-Serif" font-size="10.00">TemperatureController</text>
<text xml:space="preserve" text-anchor="middle" x="902.12" y="-784.12" font-family="Helvetica,sans-Serif" font-size="10.00">::_showOKAndTurnOffOLED</text>
</a>
</g>
</g>
<!-- Node8&#45;&gt;Node10 -->
<g id="edge11_Node000008_Node000010" class="edge">
<title>Node8&#45;&gt;Node10</title>
<g id="a_edge11_Node000008_Node000010"><a xlink:title=" ">
<path fill="none" stroke="#63b8ff" d="M776.64,-793.62C790.66,-793.62 805.39,-793.62 819.62,-793.62"/>
<polygon fill="#63b8ff" stroke="#63b8ff" points="819.38,-797.13 829.38,-793.63 819.38,-790.13 819.38,-797.13"/>
</a>
</g>
</g>
<!-- Node8&#45;&gt;Node11 -->
<g id="edge12_Node000008_Node000011" class="edge">
<title>Node8&#45;&gt;Node11</title>
<g id="a_edge12_Node000008_Node000011"><a xlink:title=" ">
<path fill="none" stroke="#63b8ff" d="M765.74,-777.92C786.29,-772.86 809.19,-767.23 830.21,-762.06"/>
<polygon fill="#63b8ff" stroke="#63b8ff" points="831,-765.47 839.87,-759.69 829.33,-758.68 831,-765.47"/>
</a>
</g>
</g>
<!-- Node12&#45;&gt;Node5 -->
<g id="edge27_Node000012_Node000005" class="edge">
<title>Node12&#45;&gt;Node5</title>
<g id="a_edge27_Node000012_Node000005"><a xlink:title=" ">
<path fill="none" stroke="#63b8ff" d="M759.45,-602.28C767.48,-605.9 775.27,-610.3 782,-615.62 804.91,-633.75 794.6,-653.14 818,-670.62 823.26,-674.55 829.14,-677.87 835.27,-680.67"/>
<polygon fill="#63b8ff" stroke="#63b8ff" points="833.77,-683.84 844.36,-684.34 836.39,-677.35 833.77,-683.84"/>
</a>
</g>
</g>
<!-- Node13 -->
<g id="Node000013" class="node">
<title>Node13</title>
<g id="a_Node000013"><a xlink:href="class_temperature_controller.html#a3948ceaf046b5f06afcc9083433f532c" target="_top" xlink:title="Display alarm summary by priority.">
<polygon fill="white" stroke="#666666" points="986.25,-465.88 818,-465.88 818,-435.38 986.25,-435.38 986.25,-465.88"/>
<text xml:space="preserve" text-anchor="start" x="826" y="-452.38" font-family="Helvetica,sans-Serif" font-size="10.00">TemperatureController</text>
<text xml:space="preserve" text-anchor="middle" x="902.12" y="-441.12" font-family="Helvetica,sans-Serif" font-size="10.00">::_displayAlarmSummaryByPriority</text>
</a>
</g>
</g>
<!-- Node12&#45;&gt;Node13 -->
<g id="edge14_Node000012_Node000013" class="edge">
<title>Node12&#45;&gt;Node13</title>
<g id="a_edge14_Node000012_Node000013"><a xlink:title=" ">
<path fill="none" stroke="#63b8ff" d="M714.06,-570.96C733.51,-547 773.9,-501.32 818,-475.62 820.96,-473.9 824.06,-472.28 827.24,-470.77"/>
<polygon fill="#63b8ff" stroke="#63b8ff" points="828.44,-474.06 836.23,-466.88 825.66,-467.64 828.44,-474.06"/>
</a>
</g>
</g>
<!-- Node15 -->
<g id="Node000015" class="node">
<title>Node15</title>
<g id="a_Node000015"><a xlink:href="class_temperature_controller.html#ab5e076b045677678390603e9a805e4db" target="_top" xlink:title="Display alarm summary by type.">
<polygon fill="white" stroke="#666666" points="981.38,-612.88 822.88,-612.88 822.88,-582.38 981.38,-582.38 981.38,-612.88"/>
<text xml:space="preserve" text-anchor="start" x="830.88" y="-599.38" font-family="Helvetica,sans-Serif" font-size="10.00">TemperatureController</text>
<text xml:space="preserve" text-anchor="middle" x="902.12" y="-588.12" font-family="Helvetica,sans-Serif" font-size="10.00">::_displayAlarmSummaryByType</text>
</a>
</g>
</g>
<!-- Node12&#45;&gt;Node15 -->
<g id="edge16_Node000012_Node000015" class="edge">
<title>Node12&#45;&gt;Node15</title>
<g id="a_edge16_Node000012_Node000015"><a xlink:title=" ">
<path fill="none" stroke="#63b8ff" d="M772.12,-590.5C784.78,-591.2 798.12,-591.94 811.24,-592.66"/>
<polygon fill="#63b8ff" stroke="#63b8ff" points="811,-596.15 821.18,-593.21 811.38,-589.17 811,-596.15"/>
</a>
</g>
</g>
<!-- Node16 -->
<g id="Node000016" class="node">
<title>Node16</title>
<g id="a_Node000016"><a xlink:href="class_temperature_controller.html#a5fc773a967cea261f21bbe86d90d2586" target="_top" xlink:title="Display Modbus status page.">
<polygon fill="white" stroke="#666666" points="962.62,-563.88 841.62,-563.88 841.62,-533.38 962.62,-533.38 962.62,-563.88"/>
<text xml:space="preserve" text-anchor="start" x="849.62" y="-550.38" font-family="Helvetica,sans-Serif" font-size="10.00">TemperatureController</text>
<text xml:space="preserve" text-anchor="middle" x="902.12" y="-539.12" font-family="Helvetica,sans-Serif" font-size="10.00">::_displayModbusStatus</text>
</a>
</g>
</g>
<!-- Node12&#45;&gt;Node16 -->
<g id="edge17_Node000012_Node000016" class="edge">
<title>Node12&#45;&gt;Node16</title>
<g id="a_edge17_Node000012_Node000016"><a xlink:title=" ">
<path fill="none" stroke="#63b8ff" d="M772.12,-573.23C790.95,-569.64 811.32,-565.75 830.19,-562.15"/>
<polygon fill="#63b8ff" stroke="#63b8ff" points="830.75,-565.61 839.92,-560.3 829.44,-558.73 830.75,-565.61"/>
</a>
</g>
</g>
<!-- Node17 -->
<g id="Node000017" class="node">
<title>Node17</title>
<g id="a_Node000017"><a xlink:href="class_temperature_controller.html#a2436c7043d97ca75c717db2b87326d90" target="_top" xlink:title="Display network info page.">
<polygon fill="white" stroke="#666666" points="958.12,-514.88 846.12,-514.88 846.12,-484.38 958.12,-484.38 958.12,-514.88"/>
<text xml:space="preserve" text-anchor="start" x="854.12" y="-501.38" font-family="Helvetica,sans-Serif" font-size="10.00">TemperatureController</text>
<text xml:space="preserve" text-anchor="middle" x="902.12" y="-490.12" font-family="Helvetica,sans-Serif" font-size="10.00">::_displayNetworkInfo</text>
</a>
</g>
</g>
<!-- Node12&#45;&gt;Node17 -->
<g id="edge18_Node000012_Node000017" class="edge">
<title>Node12&#45;&gt;Node17</title>
<g id="a_edge18_Node000012_Node000017"><a xlink:title=" ">
<path fill="none" stroke="#63b8ff" d="M727.45,-571.07C750.51,-557.5 785.68,-537.96 818,-524.62 823.57,-522.33 829.43,-520.14 835.36,-518.07"/>
<polygon fill="#63b8ff" stroke="#63b8ff" points="836.22,-521.48 844.6,-514.99 834,-514.84 836.22,-521.48"/>
</a>
</g>
</g>
<!-- Node18 -->
<g id="Node000018" class="node">
<title>Node18</title>
<g id="a_Node000018"><a xlink:href="class_temperature_controller.html#a45d13ed72fd36b46820af631e4db958b" target="_top" xlink:title="Display system stats page.">
<polygon fill="white" stroke="#666666" points="959.62,-661.88 844.62,-661.88 844.62,-631.38 959.62,-631.38 959.62,-661.88"/>
<text xml:space="preserve" text-anchor="start" x="852.62" y="-648.38" font-family="Helvetica,sans-Serif" font-size="10.00">TemperatureController</text>
<text xml:space="preserve" text-anchor="middle" x="902.12" y="-637.12" font-family="Helvetica,sans-Serif" font-size="10.00">::_displaySystemStats</text>
</a>
</g>
</g>
<!-- Node12&#45;&gt;Node18 -->
<g id="edge19_Node000012_Node000018" class="edge">
<title>Node12&#45;&gt;Node18</title>
<g id="a_edge19_Node000012_Node000018"><a xlink:title=" ">
<path fill="none" stroke="#63b8ff" d="M753.9,-602.31C773.93,-608.35 797.03,-615.31 818,-621.62 824.53,-623.59 831.36,-625.65 838.16,-627.69"/>
<polygon fill="#63b8ff" stroke="#63b8ff" points="836.77,-630.93 847.35,-630.46 838.78,-624.22 836.77,-630.93"/>
</a>
</g>
</g>
<!-- Node14 -->
<g id="Node000014" class="node">
<title>Node14</title>
<g id="a_Node000014"><a xlink:href="class_temperature_controller.html#a3022c7a72adb45a7800d5189eecdac4e" target="_top" xlink:title="Get total number of configured alarms.">
<polygon fill="white" stroke="#666666" points="1134.25,-298.88 1022.25,-298.88 1022.25,-268.38 1134.25,-268.38 1134.25,-298.88"/>
<text xml:space="preserve" text-anchor="start" x="1030.25" y="-285.38" font-family="Helvetica,sans-Serif" font-size="10.00">TemperatureController</text>
<text xml:space="preserve" text-anchor="middle" x="1078.25" y="-274.12" font-family="Helvetica,sans-Serif" font-size="10.00">::getAlarmCount</text>
</a>
</g>
</g>
<!-- Node13&#45;&gt;Node14 -->
<g id="edge15_Node000013_Node000014" class="edge">
<title>Node13&#45;&gt;Node14</title>
<g id="a_edge15_Node000013_Node000014"><a xlink:title=" ">
<path fill="none" stroke="#63b8ff" d="M926.76,-435.04C944,-423.2 967.52,-406.03 986.25,-388.62 1013.62,-363.19 1041.18,-330.1 1058.68,-307.93"/>
<polygon fill="#63b8ff" stroke="#63b8ff" points="1061.21,-310.38 1064.6,-300.34 1055.69,-306.07 1061.21,-310.38"/>
</a>
</g>
</g>
<!-- Node19 -->
<g id="Node000019" class="node">
<title>Node19</title>
<g id="a_Node000019"><a xlink:href="class_temperature_controller.html#a9b4fe09d4c87dcf86e78b890012e1e72" target="_top" xlink:title="Get sensor bound to measurement point.">
<polygon fill="white" stroke="#666666" points="1134.25,-492.88 1022.25,-492.88 1022.25,-462.38 1134.25,-462.38 1134.25,-492.88"/>
<text xml:space="preserve" text-anchor="start" x="1030.25" y="-479.38" font-family="Helvetica,sans-Serif" font-size="10.00">TemperatureController</text>
<text xml:space="preserve" text-anchor="middle" x="1078.25" y="-468.12" font-family="Helvetica,sans-Serif" font-size="10.00">::getBoundSensor</text>
</a>
</g>
</g>
<!-- Node18&#45;&gt;Node19 -->
<g id="edge20_Node000018_Node000019" class="edge">
<title>Node18&#45;&gt;Node19</title>
<g id="a_edge20_Node000018_Node000019"><a xlink:title=" ">
<path fill="none" stroke="#63b8ff" d="M959.87,-635.54C969.25,-632.08 978.45,-627.55 986.25,-621.62 1026.91,-590.74 1054.11,-536.02 1067.52,-503.66"/>
<polygon fill="#63b8ff" stroke="#63b8ff" points="1070.67,-505.21 1071.13,-494.63 1064.17,-502.62 1070.67,-505.21"/>
</a>
</g>
</g>
<!-- Node24 -->
<g id="Node000024" class="node">
<title>Node24</title>
<g id="a_Node000024"><a xlink:href="class_temperature_controller.html#a9ac5f76def1895a8c8f8f92ce8cd2e5c" target="_top" xlink:title="Get count of discovered DS18B20 sensors.">
<polygon fill="white" stroke="#666666" points="1134.25,-685.88 1022.25,-685.88 1022.25,-655.38 1134.25,-655.38 1134.25,-685.88"/>
<text xml:space="preserve" text-anchor="start" x="1030.25" y="-672.38" font-family="Helvetica,sans-Serif" font-size="10.00">TemperatureController</text>
<text xml:space="preserve" text-anchor="middle" x="1078.25" y="-661.12" font-family="Helvetica,sans-Serif" font-size="10.00">::getDS18B20Count</text>
</a>
</g>
</g>
<!-- Node18&#45;&gt;Node24 -->
<g id="edge25_Node000018_Node000024" class="edge">
<title>Node18&#45;&gt;Node24</title>
<g id="a_edge25_Node000018_Node000024"><a xlink:title=" ">
<path fill="none" stroke="#63b8ff" d="M959.66,-654.42C976.03,-656.67 994.05,-659.16 1010.97,-661.49"/>
<polygon fill="#63b8ff" stroke="#63b8ff" points="1010.01,-664.89 1020.39,-662.79 1010.96,-657.96 1010.01,-664.89"/>
</a>
</g>
</g>
<!-- Node25 -->
<g id="Node000025" class="node">
<title>Node25</title>
<g id="a_Node000025"><a xlink:href="class_temperature_controller.html#a6ab2ecc10c283d75d948ce6f1ad723a6" target="_top" xlink:title="Get count of discovered PT1000 sensors.">
<polygon fill="white" stroke="#666666" points="1134.25,-636.88 1022.25,-636.88 1022.25,-606.38 1134.25,-606.38 1134.25,-636.88"/>
<text xml:space="preserve" text-anchor="start" x="1030.25" y="-623.38" font-family="Helvetica,sans-Serif" font-size="10.00">TemperatureController</text>
<text xml:space="preserve" text-anchor="middle" x="1078.25" y="-612.12" font-family="Helvetica,sans-Serif" font-size="10.00">::getPT1000Count</text>
</a>
</g>
</g>
<!-- Node18&#45;&gt;Node25 -->
<g id="edge26_Node000018_Node000025" class="edge">
<title>Node18&#45;&gt;Node25</title>
<g id="a_edge26_Node000018_Node000025"><a xlink:title=" ">
<path fill="none" stroke="#63b8ff" d="M959.66,-638.51C976.03,-636.16 994.05,-633.57 1010.97,-631.14"/>
<polygon fill="#63b8ff" stroke="#63b8ff" points="1010.99,-634.67 1020.39,-629.79 1010,-627.75 1010.99,-634.67"/>
</a>
</g>
</g>
<!-- Node20 -->
<g id="Node000020" class="node">
<title>Node20</title>
<g id="a_Node000020"><a xlink:href="class_measurement_point.html#a81c7ae93a9314344967d0f31c6fefe2f" target="_top" xlink:title="Get pointer to bound sensor.">
<polygon fill="white" stroke="#666666" points="1315.25,-516.88 1170.25,-516.88 1170.25,-486.38 1315.25,-486.38 1315.25,-516.88"/>
<text xml:space="preserve" text-anchor="start" x="1178.25" y="-503.38" font-family="Helvetica,sans-Serif" font-size="10.00">MeasurementPoint::getBound</text>
<text xml:space="preserve" text-anchor="middle" x="1242.75" y="-492.12" font-family="Helvetica,sans-Serif" font-size="10.00">Sensor</text>
</a>
</g>
</g>
<!-- Node19&#45;&gt;Node20 -->
<g id="edge21_Node000019_Node000020" class="edge">
<title>Node19&#45;&gt;Node20</title>
<g id="a_edge21_Node000019_Node000020"><a xlink:title=" ">
<path fill="none" stroke="#63b8ff" d="M1134.72,-485.82C1142.41,-486.95 1150.44,-488.14 1158.49,-489.33"/>
<polygon fill="#63b8ff" stroke="#63b8ff" points="1157.96,-492.79 1168.37,-490.79 1158.99,-485.86 1157.96,-492.79"/>
</a>
</g>
</g>
<!-- Node21 -->
<g id="Node000021" class="node">
<title>Node21</title>
<g id="a_Node000021"><a xlink:href="class_temperature_controller.html#a494f057c234b4ff7526bde271aec9267" target="_top" xlink:title="Get measurement point by address.">
<polygon fill="white" stroke="#666666" points="1301.38,-467.88 1184.12,-467.88 1184.12,-437.38 1301.38,-437.38 1301.38,-467.88"/>
<text xml:space="preserve" text-anchor="start" x="1192.12" y="-454.38" font-family="Helvetica,sans-Serif" font-size="10.00">TemperatureController</text>
<text xml:space="preserve" text-anchor="middle" x="1242.75" y="-443.12" font-family="Helvetica,sans-Serif" font-size="10.00">::getMeasurementPoint</text>
</a>
</g>
</g>
<!-- Node19&#45;&gt;Node21 -->
<g id="edge22_Node000019_Node000021" class="edge">
<title>Node19&#45;&gt;Node21</title>
<g id="a_edge22_Node000019_Node000021"><a xlink:title=" ">
<path fill="none" stroke="#63b8ff" d="M1134.72,-469.09C1146.95,-467.21 1160.05,-465.19 1172.74,-463.24"/>
<polygon fill="#63b8ff" stroke="#63b8ff" points="1172.91,-466.76 1182.27,-461.78 1171.85,-459.84 1172.91,-466.76"/>
</a>
</g>
</g>
<!-- Node22 -->
<g id="Node000022" class="node">
<title>Node22</title>
<g id="a_Node000022"><a xlink:href="class_temperature_controller.html#ad322a5bab8d5788a586206004248f673" target="_top" xlink:title="Check if address is for DS18B20 sensor.">
<polygon fill="white" stroke="#666666" points="1463.25,-492.88 1351.25,-492.88 1351.25,-462.38 1463.25,-462.38 1463.25,-492.88"/>
<text xml:space="preserve" text-anchor="start" x="1359.25" y="-479.38" font-family="Helvetica,sans-Serif" font-size="10.00">TemperatureController</text>
<text xml:space="preserve" text-anchor="middle" x="1407.25" y="-468.12" font-family="Helvetica,sans-Serif" font-size="10.00">::isDS18B20Address</text>
</a>
</g>
</g>
<!-- Node21&#45;&gt;Node22 -->
<g id="edge23_Node000021_Node000022" class="edge">
<title>Node21&#45;&gt;Node22</title>
<g id="a_edge23_Node000021_Node000022"><a xlink:title=" ">
<path fill="none" stroke="#63b8ff" d="M1301.5,-461.51C1313.92,-463.42 1327.14,-465.45 1339.85,-467.41"/>
<polygon fill="#63b8ff" stroke="#63b8ff" points="1338.95,-470.81 1349.37,-468.87 1340.02,-463.89 1338.95,-470.81"/>
</a>
</g>
</g>
<!-- Node23 -->
<g id="Node000023" class="node">
<title>Node23</title>
<g id="a_Node000023"><a xlink:href="class_temperature_controller.html#a13125ddcf29cb56d27403818543618af" target="_top" xlink:title="Check if address is for PT1000 sensor.">
<polygon fill="white" stroke="#666666" points="1463.25,-443.88 1351.25,-443.88 1351.25,-413.38 1463.25,-413.38 1463.25,-443.88"/>
<text xml:space="preserve" text-anchor="start" x="1359.25" y="-430.38" font-family="Helvetica,sans-Serif" font-size="10.00">TemperatureController</text>
<text xml:space="preserve" text-anchor="middle" x="1407.25" y="-419.12" font-family="Helvetica,sans-Serif" font-size="10.00">::isPT1000Address</text>
</a>
</g>
</g>
<!-- Node21&#45;&gt;Node23 -->
<g id="edge24_Node000021_Node000023" class="edge">
<title>Node21&#45;&gt;Node23</title>
<g id="a_edge24_Node000021_Node000023"><a xlink:title=" ">
<path fill="none" stroke="#63b8ff" d="M1301.5,-444.1C1313.92,-442.26 1327.14,-440.31 1339.85,-438.43"/>
<polygon fill="#63b8ff" stroke="#63b8ff" points="1339.99,-441.95 1349.37,-437.03 1338.96,-435.02 1339.99,-441.95"/>
</a>
</g>
</g>
<!-- Node27 -->
<g id="Node000027" class="node">
<title>Node27</title>
<g id="a_Node000027"><a xlink:href="class_temperature_controller.html#af58201023d15de003d4f1b9a9771a9e3" target="_top" xlink:title="Get list of active alarms.">
<polygon fill="white" stroke="#666666" points="958.12,-379.88 846.12,-379.88 846.12,-349.38 958.12,-349.38 958.12,-379.88"/>
<text xml:space="preserve" text-anchor="start" x="854.12" y="-366.38" font-family="Helvetica,sans-Serif" font-size="10.00">TemperatureController</text>
<text xml:space="preserve" text-anchor="middle" x="902.12" y="-355.12" font-family="Helvetica,sans-Serif" font-size="10.00">::getActiveAlarms</text>
</a>
</g>
</g>
<!-- Node26&#45;&gt;Node27 -->
<g id="edge30_Node000026_Node000027" class="edge">
<title>Node26&#45;&gt;Node27</title>
<g id="a_edge30_Node000026_Node000027"><a xlink:title=" ">
<path fill="none" stroke="#63b8ff" d="M759.24,-356.79C782.76,-358.09 810.14,-359.6 834.54,-360.95"/>
<polygon fill="#63b8ff" stroke="#63b8ff" points="834.19,-364.43 844.37,-361.49 834.58,-357.45 834.19,-364.43"/>
</a>
</g>
</g>
<!-- Node28 -->
<g id="Node000028" class="node">
<title>Node28</title>
<g id="a_Node000028"><a xlink:href="class_alarm.html#a7a4a3290a6a659542f82fe08a96736a8" target="_top" xlink:title="Get the alarm creation timestamp.">
<polygon fill="white" stroke="#666666" points="957,-331.25 847.25,-331.25 847.25,-312 957,-312 957,-331.25"/>
<text xml:space="preserve" text-anchor="middle" x="902.12" y="-317.75" font-family="Helvetica,sans-Serif" font-size="10.00">Alarm::getTimestamp</text>
</a>
</g>
</g>
<!-- Node26&#45;&gt;Node28 -->
<g id="edge31_Node000026_Node000028" class="edge">
<title>Node26&#45;&gt;Node28</title>
<g id="a_edge31_Node000026_Node000028"><a xlink:title=" ">
<path fill="none" stroke="#63b8ff" d="M759.24,-344.41C783.17,-340.57 811.09,-336.09 835.8,-332.12"/>
<polygon fill="#63b8ff" stroke="#63b8ff" points="836.09,-335.61 845.41,-330.57 834.98,-328.7 836.09,-335.61"/>
</a>
</g>
</g>
<!-- Node29&#45;&gt;Node14 -->
<g id="edge34_Node000029_Node000014" class="edge">
<title>Node29&#45;&gt;Node14</title>
<g id="a_edge34_Node000029_Node000014"><a xlink:title=" ">
<path fill="none" stroke="#63b8ff" d="M408.12,-329.8C419.91,-327.43 432.32,-325.2 444,-323.62 649.27,-295.86 894.65,-287.3 1010.46,-284.71"/>
<polygon fill="#63b8ff" stroke="#63b8ff" points="1010.5,-288.21 1020.42,-284.5 1010.35,-281.22 1010.5,-288.21"/>
</a>
</g>
</g>
<!-- Node30 -->
<g id="Node000030" class="node">
<title>Node30</title>
<g id="a_Node000030"><a xlink:href="class_logger_manager.html#a5c1373ccc47f4112b596fe6f84fbbc21" target="_top" xlink:title="Log informational message (static convenience method)">
<polygon fill="white" stroke="#666666" points="566.12,-352.25 461.62,-352.25 461.62,-333 566.12,-333 566.12,-352.25"/>
<text xml:space="preserve" text-anchor="middle" x="513.88" y="-338.75" font-family="Helvetica,sans-Serif" font-size="10.00">LoggerManager::info</text>
</a>
</g>
</g>
<!-- Node29&#45;&gt;Node30 -->
<g id="edge35_Node000029_Node000030" class="edge">
<title>Node29&#45;&gt;Node30</title>
<g id="a_edge35_Node000029_Node000030"><a xlink:title=" ">
<path fill="none" stroke="#63b8ff" d="M408.47,-342.62C421.85,-342.62 436.26,-342.62 449.96,-342.62"/>
<polygon fill="#63b8ff" stroke="#63b8ff" points="449.75,-346.13 459.75,-342.63 449.75,-339.13 449.75,-346.13"/>
</a>
</g>
</g>
<!-- Node31&#45;&gt;Node19 -->
<g id="edge39_Node000031_Node000019" class="edge">
<title>Node31&#45;&gt;Node19</title>
<g id="a_edge39_Node000031_Node000019"><a xlink:title=" ">
<path fill="none" stroke="#63b8ff" d="M757.16,-400.45C815.44,-399.71 909.27,-403.02 986.25,-426.62 1007.53,-433.15 1029.35,-445.16 1046.28,-455.89"/>
<polygon fill="#63b8ff" stroke="#63b8ff" points="1044.1,-458.64 1054.38,-461.18 1047.92,-452.78 1044.1,-458.64"/>
</a>
</g>
</g>
<!-- Node31&#45;&gt;Node27 -->
<g id="edge38_Node000031_Node000027" class="edge">
<title>Node31&#45;&gt;Node27</title>
<g id="a_edge38_Node000031_Node000027"><a xlink:title=" ">
<path fill="none" stroke="#63b8ff" d="M757.11,-392.09C781.08,-387.52 809.36,-382.13 834.49,-377.33"/>
<polygon fill="#63b8ff" stroke="#63b8ff" points="835.13,-380.78 844.29,-375.46 833.81,-373.9 835.13,-380.78"/>
</a>
</g>
</g>
<!-- Node33 -->
<g id="Node000033" class="node">
<title>Node33</title>
<g id="a_Node000033"><a xlink:href="class_logger_manager.html#aef24f00186213fa78be3b104a50d58e6" target="_top" xlink:title="Log error message (static convenience method)">
<polygon fill="white" stroke="#666666" points="956.25,-169.25 848,-169.25 848,-150 956.25,-150 956.25,-169.25"/>
<text xml:space="preserve" text-anchor="middle" x="902.12" y="-155.75" font-family="Helvetica,sans-Serif" font-size="10.00">LoggerManager::error</text>
</a>
</g>
</g>
<!-- Node32&#45;&gt;Node33 -->
<g id="edge41_Node000032_Node000033" class="edge">
<title>Node32&#45;&gt;Node33</title>
<g id="a_edge41_Node000032_Node000033"><a xlink:title=" ">
<path fill="none" stroke="#63b8ff" d="M408.32,-125.46C510.34,-132.53 727.61,-147.6 836.33,-155.13"/>
<polygon fill="#63b8ff" stroke="#63b8ff" points="836.05,-158.62 846.26,-155.82 836.53,-151.64 836.05,-158.62"/>
</a>
</g>
</g>
<!-- Node34 -->
<g id="Node000034" class="node">
<title>Node34</title>
<g id="a_Node000034"><a xlink:href="class_temperature_controller.html#a01e04714a1712aa10c34276850971a12" target="_top" xlink:title="Get bus number for a sensor.">
<polygon fill="white" stroke="#666666" points="569.88,-77.88 457.88,-77.88 457.88,-47.38 569.88,-47.38 569.88,-77.88"/>
<text xml:space="preserve" text-anchor="start" x="465.88" y="-64.38" font-family="Helvetica,sans-Serif" font-size="10.00">TemperatureController</text>
<text xml:space="preserve" text-anchor="middle" x="513.88" y="-53.12" font-family="Helvetica,sans-Serif" font-size="10.00">::getSensorBus</text>
</a>
</g>
</g>
<!-- Node32&#45;&gt;Node34 -->
<g id="edge42_Node000032_Node000034" class="edge">
<title>Node32&#45;&gt;Node34</title>
<g id="a_edge42_Node000032_Node000034"><a xlink:title=" ">
<path fill="none" stroke="#63b8ff" d="M395.42,-105.97C415.12,-98.7 438.74,-89.98 459.62,-82.28"/>
<polygon fill="#63b8ff" stroke="#63b8ff" points="460.66,-85.62 468.83,-78.88 458.24,-79.06 460.66,-85.62"/>
</a>
</g>
</g>
<!-- Node35 -->
<g id="Node000035" class="node">
<title>Node35</title>
<g id="a_Node000035"><a xlink:href="class_sensor.html#ac42da3a37b0d6a9622344fe83f4c9047" target="_top" xlink:title="Get OneWire bus pin.">
<polygon fill="white" stroke="#666666" points="760.25,-93.25 641.5,-93.25 641.5,-74 760.25,-74 760.25,-93.25"/>
<text xml:space="preserve" text-anchor="middle" x="700.88" y="-79.75" font-family="Helvetica,sans-Serif" font-size="10.00">Sensor::getOneWirePin</text>
</a>
</g>
</g>
<!-- Node34&#45;&gt;Node35 -->
<g id="edge43_Node000034_Node000035" class="edge">
<title>Node34&#45;&gt;Node35</title>
<g id="a_edge43_Node000034_Node000035"><a xlink:title=" ">
<path fill="none" stroke="#63b8ff" d="M570.13,-68.9C588.82,-71.02 609.95,-73.42 629.64,-75.65"/>
<polygon fill="#63b8ff" stroke="#63b8ff" points="629.21,-79.13 639.54,-76.78 630,-72.17 629.21,-79.13"/>
</a>
</g>
</g>
<!-- Node36 -->
<g id="Node000036" class="node">
<title>Node36</title>
<g id="a_Node000036"><a xlink:href="class_sensor.html#a6f57825e90b759ccdb9fe07b3a36953d" target="_top" xlink:title="Get PT1000 chip select pin.">
<polygon fill="white" stroke="#666666" points="782,-56.25 619.75,-56.25 619.75,-37 782,-37 782,-56.25"/>
<text xml:space="preserve" text-anchor="middle" x="700.88" y="-42.75" font-family="Helvetica,sans-Serif" font-size="10.00">Sensor::getPT1000ChipSelectPin</text>
</a>
</g>
</g>
<!-- Node34&#45;&gt;Node36 -->
<g id="edge44_Node000034_Node000036" class="edge">
<title>Node34&#45;&gt;Node36</title>
<g id="a_edge44_Node000034_Node000036"><a xlink:title=" ">
<path fill="none" stroke="#63b8ff" d="M570.13,-57.85C582.07,-56.81 595.01,-55.69 607.93,-54.58"/>
<polygon fill="#63b8ff" stroke="#63b8ff" points="608.08,-58.08 617.74,-53.73 607.48,-51.1 608.08,-58.08"/>
</a>
</g>
</g>
<!-- Node37 -->
<g id="Node000037" class="node">
<title>Node37</title>
<g id="a_Node000037"><a xlink:href="class_sensor.html#a0f6f095e7cfdfffb2a395dfdae7cfa53" target="_top" xlink:title="Get sensor type.">
<polygon fill="white" stroke="#666666" points="744.5,-19.25 657.25,-19.25 657.25,0 744.5,0 744.5,-19.25"/>
<text xml:space="preserve" text-anchor="middle" x="700.88" y="-5.75" font-family="Helvetica,sans-Serif" font-size="10.00">Sensor::getType</text>
</a>
</g>
</g>
<!-- Node34&#45;&gt;Node37 -->
<g id="edge45_Node000034_Node000037" class="edge">
<title>Node34&#45;&gt;Node37</title>
<g id="a_edge45_Node000034_Node000037"><a xlink:title=" ">
<path fill="none" stroke="#63b8ff" d="M558.71,-46.9C577.39,-40.48 599.5,-33.26 619.75,-27.62 628.15,-25.29 637.11,-23.04 645.89,-20.97"/>
<polygon fill="#63b8ff" stroke="#63b8ff" points="646.41,-24.44 655.37,-18.79 644.84,-17.62 646.41,-24.44"/>
</a>
</g>
</g>
<!-- Node39 -->
<g id="Node000039" class="node">
<title>Node39</title>
<g id="a_Node000039"><a xlink:href="class_temperature_controller.html#aac890ae08b5eddcf272771ecdba61453" target="_top" xlink:title="Get relay actual state.">
<polygon fill="white" stroke="#666666" points="569.88,-186.88 457.88,-186.88 457.88,-156.38 569.88,-156.38 569.88,-186.88"/>
<text xml:space="preserve" text-anchor="start" x="465.88" y="-173.38" font-family="Helvetica,sans-Serif" font-size="10.00">TemperatureController</text>
<text xml:space="preserve" text-anchor="middle" x="513.88" y="-162.12" font-family="Helvetica,sans-Serif" font-size="10.00">::getRelayActualState</text>
</a>
</g>
</g>
<!-- Node38&#45;&gt;Node39 -->
<g id="edge47_Node000038_Node000039" class="edge">
<title>Node38&#45;&gt;Node39</title>
<g id="a_edge47_Node000038_Node000039"><a xlink:title=" ">
<path fill="none" stroke="#63b8ff" d="M393.34,-217.98C414.09,-209.93 439.6,-200.04 461.72,-191.46"/>
<polygon fill="#63b8ff" stroke="#63b8ff" points="462.8,-194.8 470.86,-187.92 460.27,-188.27 462.8,-194.8"/>
</a>
</g>
</g>
<!-- Node40 -->
<g id="Node000040" class="node">
<title>Node40</title>
<g id="a_Node000040"><a xlink:href="class_temperature_controller.html#a20a14014a639f3390dba82a6cd39d067" target="_top" xlink:title="Get relay commanded state.">
<polygon fill="white" stroke="#666666" points="583.75,-248.88 444,-248.88 444,-218.38 583.75,-218.38 583.75,-248.88"/>
<text xml:space="preserve" text-anchor="start" x="452" y="-235.38" font-family="Helvetica,sans-Serif" font-size="10.00">TemperatureController</text>
<text xml:space="preserve" text-anchor="middle" x="513.88" y="-224.12" font-family="Helvetica,sans-Serif" font-size="10.00">::getRelayCommandedState</text>
</a>
</g>
</g>
<!-- Node38&#45;&gt;Node40 -->
<g id="edge49_Node000038_Node000040" class="edge">
<title>Node38&#45;&gt;Node40</title>
<g id="a_edge49_Node000038_Node000040"><a xlink:title=" ">
<path fill="none" stroke="#63b8ff" d="M408.47,-233.62C416.19,-233.62 424.25,-233.62 432.32,-233.62"/>
<polygon fill="#63b8ff" stroke="#63b8ff" points="432.19,-237.13 442.19,-233.63 432.19,-230.13 432.19,-237.13"/>
</a>
</g>
</g>
<!-- Node39&#45;&gt;Node33 -->
<g id="edge48_Node000039_Node000033" class="edge">
<title>Node39&#45;&gt;Node33</title>
<g id="a_edge48_Node000039_Node000033"><a xlink:title=" ">
<path fill="none" stroke="#63b8ff" d="M570.22,-169.91C640.65,-167.72 762.11,-163.94 836.66,-161.63"/>
<polygon fill="#63b8ff" stroke="#63b8ff" points="836.35,-165.14 846.24,-161.33 836.13,-158.14 836.35,-165.14"/>
</a>
</g>
</g>
<!-- Node40&#45;&gt;Node14 -->
<g id="edge50_Node000040_Node000014" class="edge">
<title>Node40&#45;&gt;Node14</title>
<g id="a_edge50_Node000040_Node000014"><a xlink:title=" ">
<path fill="none" stroke="#63b8ff" d="M584.12,-237.25C676.16,-242.45 843.76,-253.25 986.25,-269.62 994.22,-270.54 1002.56,-271.64 1010.82,-272.8"/>
<polygon fill="#63b8ff" stroke="#63b8ff" points="1010.1,-276.24 1020.5,-274.22 1011.11,-269.31 1010.1,-276.24"/>
</a>
</g>
</g>
<!-- Node41 -->
<g id="Node000041" class="node">
<title>Node41</title>
<g id="a_Node000041"><a xlink:href="class_temperature_controller.html#a61ff288cbeaa86dc21c610c778dba64e" target="_top" xlink:title="Get relay control mode.">
<polygon fill="white" stroke="#666666" points="759.12,-217.88 642.62,-217.88 642.62,-187.38 759.12,-187.38 759.12,-217.88"/>
<text xml:space="preserve" text-anchor="start" x="650.62" y="-204.38" font-family="Helvetica,sans-Serif" font-size="10.00">TemperatureController</text>
<text xml:space="preserve" text-anchor="middle" x="700.88" y="-193.12" font-family="Helvetica,sans-Serif" font-size="10.00">::getRelayControlMode</text>
</a>
</g>
</g>
<!-- Node40&#45;&gt;Node41 -->
<g id="edge51_Node000040_Node000041" class="edge">
<title>Node40&#45;&gt;Node41</title>
<g id="a_edge51_Node000040_Node000041"><a xlink:title=" ">
<path fill="none" stroke="#63b8ff" d="M584.03,-222.04C599.47,-219.45 615.84,-216.71 631.26,-214.12"/>
<polygon fill="#63b8ff" stroke="#63b8ff" points="631.52,-217.63 640.8,-212.52 630.36,-210.72 631.52,-217.63"/>
</a>
</g>
</g>
<!-- Node41&#45;&gt;Node33 -->
<g id="edge52_Node000041_Node000033" class="edge">
<title>Node41&#45;&gt;Node33</title>
<g id="a_edge52_Node000041_Node000033"><a xlink:title=" ">
<path fill="none" stroke="#63b8ff" d="M759.51,-190.19C785.85,-184.5 817,-177.78 843.36,-172.09"/>
<polygon fill="#63b8ff" stroke="#63b8ff" points="843.83,-175.57 852.86,-170.04 842.35,-168.73 843.83,-175.57"/>
</a>
</g>
</g>
</g>
</svg>
