<?xml version="1.0" encoding="UTF-8" standalone="no"?>
<!DOCTYPE svg PUBLIC "-//W3C//DTD SVG 1.1//EN"
 "http://www.w3.org/Graphics/SVG/1.1/DTD/svg11.dtd">
<!-- Generated by graphviz version 13.1.0 (20250701.0955)
 -->
<!-- Title: MeasurementPoint::getName Pages: 1 -->
<svg width="873pt" height="521pt"
 viewBox="0.00 0.00 873.00 521.00" xmlns="http://www.w3.org/2000/svg" xmlns:xlink="http://www.w3.org/1999/xlink">
<g id="graph0" class="graph" transform="scale(1 1) rotate(0) translate(4 516.5)">
<title>MeasurementPoint::getName</title>
<!-- Node1 -->
<g id="Node000001" class="node">
<title>Node1</title>
<g id="a_Node000001"><a xlink:title=" ">
<polygon fill="#999999" stroke="#666666" points="864.5,-232.88 721,-232.88 721,-213.62 864.5,-213.62 864.5,-232.88"/>
<text xml:space="preserve" text-anchor="middle" x="792.75" y="-219.38" font-family="Helvetica,sans-Serif" font-size="10.00">MeasurementPoint::getName</text>
</a>
</g>
</g>
<!-- Node2 -->
<g id="Node000002" class="node">
<title>Node2</title>
<g id="a_Node000002"><a xlink:href="class_c_s_v_config_manager.html#a2c2673398051c26184c9197aa751a6b3" target="_top" xlink:title=" ">
<polygon fill="white" stroke="#666666" points="657.62,-479.5 548.62,-479.5 548.62,-449 657.62,-449 657.62,-479.5"/>
<text xml:space="preserve" text-anchor="start" x="556.62" y="-466" font-family="Helvetica,sans-Serif" font-size="10.00">CSVConfigManager::</text>
<text xml:space="preserve" text-anchor="middle" x="603.12" y="-454.75" font-family="Helvetica,sans-Serif" font-size="10.00">_exportPointToCSV</text>
</a>
</g>
</g>
<!-- Node1&#45;&gt;Node2 -->
<g id="edge1_Node000001_Node000002" class="edge">
<title>Node1&#45;&gt;Node2</title>
<g id="a_edge1_Node000001_Node000002"><a xlink:title=" ">
<path fill="none" stroke="#63b8ff" d="M783.47,-243.56C768.07,-279.55 732.27,-355.61 685,-407.25 669.81,-423.85 648.98,-438.38 632.27,-448.62"/>
<polygon fill="#63b8ff" stroke="#63b8ff" points="786.68,-244.95 787.31,-234.38 780.22,-242.25 786.68,-244.95"/>
</a>
</g>
</g>
<!-- Node4 -->
<g id="Node000004" class="node">
<title>Node4</title>
<g id="a_Node000004"><a xlink:href="class_logger_manager.html#aab43f573f73cfe426cfbea04a9fdd3ee" target="_top" xlink:title=" ">
<polygon fill="white" stroke="#666666" points="668.88,-398.5 537.38,-398.5 537.38,-368 668.88,-368 668.88,-398.5"/>
<text xml:space="preserve" text-anchor="start" x="545.38" y="-385" font-family="Helvetica,sans-Serif" font-size="10.00">LoggerManager::_generate</text>
<text xml:space="preserve" text-anchor="middle" x="603.12" y="-373.75" font-family="Helvetica,sans-Serif" font-size="10.00">CSVHeader</text>
</a>
</g>
</g>
<!-- Node1&#45;&gt;Node4 -->
<g id="edge3_Node000001_Node000004" class="edge">
<title>Node1&#45;&gt;Node4</title>
<g id="a_edge3_Node000001_Node000004"><a xlink:title=" ">
<path fill="none" stroke="#63b8ff" d="M781.33,-242.97C764.8,-272.38 729.8,-327.55 685,-358.25 679.79,-361.82 674.04,-364.9 668.09,-367.55"/>
<polygon fill="#63b8ff" stroke="#63b8ff" points="784.29,-244.85 786.02,-234.39 778.15,-241.49 784.29,-244.85"/>
</a>
</g>
</g>
<!-- Node13 -->
<g id="Node000013" class="node">
<title>Node13</title>
<g id="a_Node000013"><a xlink:href="class_temperature_controller.html#ac5c3403746d7c850bf7929bf5ee3448a" target="_top" xlink:title=" ">
<polygon fill="white" stroke="#666666" points="659.12,-349.5 547.12,-349.5 547.12,-319 659.12,-319 659.12,-349.5"/>
<text xml:space="preserve" text-anchor="start" x="555.12" y="-336" font-family="Helvetica,sans-Serif" font-size="10.00">TemperatureController</text>
<text xml:space="preserve" text-anchor="middle" x="603.12" y="-324.75" font-family="Helvetica,sans-Serif" font-size="10.00">::addAlarm</text>
</a>
</g>
</g>
<!-- Node1&#45;&gt;Node13 -->
<g id="edge16_Node000001_Node000013" class="edge">
<title>Node1&#45;&gt;Node13</title>
<g id="a_edge16_Node000001_Node000013"><a xlink:title=" ">
<path fill="none" stroke="#63b8ff" d="M772.64,-240.91C752.22,-259.04 718.26,-287.09 685,-305.25 675.7,-310.32 665.34,-314.81 655.22,-318.65"/>
<polygon fill="#63b8ff" stroke="#63b8ff" points="774.82,-243.66 779.9,-234.36 770.13,-238.46 774.82,-243.66"/>
</a>
</g>
</g>
<!-- Node14 -->
<g id="Node000014" class="node">
<title>Node14</title>
<g id="a_Node000014"><a xlink:href="class_config_manager.html#ae605c999fabc6344511f455618655326" target="_top" xlink:title=" ">
<polygon fill="white" stroke="#666666" points="477.75,-67.88 344,-67.88 344,-48.62 477.75,-48.62 477.75,-67.88"/>
<text xml:space="preserve" text-anchor="middle" x="410.88" y="-54.38" font-family="Helvetica,sans-Serif" font-size="10.00">ConfigManager::alarmsAPI</text>
</a>
</g>
</g>
<!-- Node1&#45;&gt;Node14 -->
<g id="edge17_Node000001_Node000014" class="edge">
<title>Node1&#45;&gt;Node14</title>
<g id="a_edge17_Node000001_Node000014"><a xlink:title=" ">
<path fill="none" stroke="#63b8ff" d="M783.67,-202.88C769.36,-169.86 736.17,-105.5 685,-77.25 620.61,-41.7 534.26,-42.19 476.03,-48.13"/>
<polygon fill="#63b8ff" stroke="#63b8ff" points="780.44,-204.21 787.51,-212.1 786.9,-201.53 780.44,-204.21"/>
</a>
</g>
</g>
<!-- Node16 -->
<g id="Node000016" class="node">
<title>Node16</title>
<g id="a_Node000016"><a xlink:href="class_temperature_controller.html#a84937fc1aed30193b817f3b062ce0cfc" target="_top" xlink:title=" ">
<polygon fill="white" stroke="#666666" points="685,-263.5 521.25,-263.5 521.25,-233 685,-233 685,-263.5"/>
<text xml:space="preserve" text-anchor="start" x="529.25" y="-250" font-family="Helvetica,sans-Serif" font-size="10.00">TemperatureController</text>
<text xml:space="preserve" text-anchor="middle" x="603.12" y="-238.75" font-family="Helvetica,sans-Serif" font-size="10.00">::bindSensorToPointByChipSelect</text>
</a>
</g>
</g>
<!-- Node1&#45;&gt;Node16 -->
<g id="edge19_Node000001_Node000016" class="edge">
<title>Node1&#45;&gt;Node16</title>
<g id="a_edge19_Node000001_Node000016"><a xlink:title=" ">
<path fill="none" stroke="#63b8ff" d="M709.37,-234.23C701.39,-235.29 693.3,-236.37 685.33,-237.43"/>
<polygon fill="#63b8ff" stroke="#63b8ff" points="709.6,-237.73 719.05,-232.94 708.67,-230.79 709.6,-237.73"/>
</a>
</g>
</g>
<!-- Node17 -->
<g id="Node000017" class="node">
<title>Node17</title>
<g id="a_Node000017"><a xlink:href="class_temperature_controller.html#a5d8f7c51bb176435a5035293a2db78f7" target="_top" xlink:title=" ">
<polygon fill="white" stroke="#666666" points="671.5,-214.5 534.75,-214.5 534.75,-184 671.5,-184 671.5,-214.5"/>
<text xml:space="preserve" text-anchor="start" x="542.75" y="-201" font-family="Helvetica,sans-Serif" font-size="10.00">TemperatureController</text>
<text xml:space="preserve" text-anchor="middle" x="603.12" y="-189.75" font-family="Helvetica,sans-Serif" font-size="10.00">::bindSensorToPointByRom</text>
</a>
</g>
</g>
<!-- Node1&#45;&gt;Node17 -->
<g id="edge20_Node000001_Node000017" class="edge">
<title>Node1&#45;&gt;Node17</title>
<g id="a_edge20_Node000001_Node000017"><a xlink:title=" ">
<path fill="none" stroke="#63b8ff" d="M709.2,-212.69C696.72,-211.09 683.98,-209.47 671.87,-207.92"/>
<polygon fill="#63b8ff" stroke="#63b8ff" points="708.68,-216.15 719.05,-213.95 709.57,-209.21 708.68,-216.15"/>
</a>
</g>
</g>
<!-- Node18 -->
<g id="Node000018" class="node">
<title>Node18</title>
<g id="a_Node000018"><a xlink:href="class_temperature_controller.html#add39ba7dad38449bbf1787a5c9c51ef9" target="_top" xlink:title=" ">
<polygon fill="white" stroke="#666666" points="659.12,-165.5 547.12,-165.5 547.12,-135 659.12,-135 659.12,-165.5"/>
<text xml:space="preserve" text-anchor="start" x="555.12" y="-152" font-family="Helvetica,sans-Serif" font-size="10.00">TemperatureController</text>
<text xml:space="preserve" text-anchor="middle" x="603.12" y="-140.75" font-family="Helvetica,sans-Serif" font-size="10.00">::getPointsJson</text>
</a>
</g>
</g>
<!-- Node1&#45;&gt;Node18 -->
<g id="edge21_Node000001_Node000018" class="edge">
<title>Node1&#45;&gt;Node18</title>
<g id="a_edge21_Node000001_Node000018"><a xlink:title=" ">
<path fill="none" stroke="#63b8ff" d="M761.32,-208.36C740.18,-198.32 711.22,-185.16 685,-175.25 676.34,-171.98 667.04,-168.8 657.95,-165.87"/>
<polygon fill="#63b8ff" stroke="#63b8ff" points="759.7,-211.47 770.23,-212.64 762.73,-205.16 759.7,-211.47"/>
</a>
</g>
</g>
<!-- Node19 -->
<g id="Node000019" class="node">
<title>Node19</title>
<g id="a_Node000019"><a xlink:href="class_config_manager.html#a471a844085c27f3a8a8f9394d9c14677" target="_top" xlink:title=" ">
<polygon fill="white" stroke="#666666" points="476.25,-239.88 345.5,-239.88 345.5,-220.62 476.25,-220.62 476.25,-239.88"/>
<text xml:space="preserve" text-anchor="middle" x="410.88" y="-226.38" font-family="Helvetica,sans-Serif" font-size="10.00">ConfigManager::pointsAPI</text>
</a>
</g>
</g>
<!-- Node1&#45;&gt;Node19 -->
<g id="edge22_Node000001_Node000019" class="edge">
<title>Node1&#45;&gt;Node19</title>
<g id="a_edge22_Node000001_Node000019"><a xlink:title=" ">
<path fill="none" stroke="#63b8ff" d="M766.16,-238.82C745.2,-250.61 714.31,-265.84 685,-272.25 613.9,-287.79 592.81,-285.52 521.25,-272.25 488.45,-266.17 452.79,-250.64 431.39,-240.27"/>
<polygon fill="#63b8ff" stroke="#63b8ff" points="767.67,-241.99 774.57,-233.95 764.16,-235.93 767.67,-241.99"/>
</a>
</g>
</g>
<!-- Node20 -->
<g id="Node000020" class="node">
<title>Node20</title>
<g id="a_Node000020"><a xlink:href="class_config_manager.html#a55b79da91c57039c483ddf5fceabbd64" target="_top" xlink:title=" ">
<polygon fill="white" stroke="#666666" points="671.5,-116.5 534.75,-116.5 534.75,-86 671.5,-86 671.5,-116.5"/>
<text xml:space="preserve" text-anchor="start" x="542.75" y="-103" font-family="Helvetica,sans-Serif" font-size="10.00">ConfigManager::savePoints</text>
<text xml:space="preserve" text-anchor="middle" x="603.12" y="-91.75" font-family="Helvetica,sans-Serif" font-size="10.00">Config</text>
</a>
</g>
</g>
<!-- Node1&#45;&gt;Node20 -->
<g id="edge24_Node000001_Node000020" class="edge">
<title>Node1&#45;&gt;Node20</title>
<g id="a_edge24_Node000001_Node000020"><a xlink:title=" ">
<path fill="none" stroke="#63b8ff" d="M775.87,-204.52C756.5,-182.78 721.75,-147.23 685,-126.25 678.75,-122.68 671.92,-119.56 664.98,-116.85"/>
<polygon fill="#63b8ff" stroke="#63b8ff" points="773.22,-206.8 782.43,-212.03 778.49,-202.2 773.22,-206.8"/>
</a>
</g>
</g>
<!-- Node24 -->
<g id="Node000024" class="node">
<title>Node24</title>
<g id="a_Node000024"><a xlink:href="class_temperature_controller.html#a261c9b96540ec6680dfffd3a26e4ca00" target="_top" xlink:title=" ">
<polygon fill="white" stroke="#666666" points="666.25,-30.5 540,-30.5 540,0 666.25,0 666.25,-30.5"/>
<text xml:space="preserve" text-anchor="start" x="548" y="-17" font-family="Helvetica,sans-Serif" font-size="10.00">TemperatureController</text>
<text xml:space="preserve" text-anchor="middle" x="603.12" y="-5.75" font-family="Helvetica,sans-Serif" font-size="10.00">::unbindSensorFromPoint</text>
</a>
</g>
</g>
<!-- Node1&#45;&gt;Node24 -->
<g id="edge32_Node000001_Node000024" class="edge">
<title>Node1&#45;&gt;Node24</title>
<g id="a_edge32_Node000001_Node000024"><a xlink:title=" ">
<path fill="none" stroke="#63b8ff" d="M784.81,-202.68C771.33,-165.76 738.21,-88.05 685,-44.25 678.55,-38.94 671.05,-34.57 663.27,-30.97"/>
<polygon fill="#63b8ff" stroke="#63b8ff" points="781.5,-203.82 788.12,-212.1 788.1,-201.5 781.5,-203.82"/>
</a>
</g>
</g>
<!-- Node3 -->
<g id="Node000003" class="node">
<title>Node3</title>
<g id="a_Node000003"><a xlink:href="class_c_s_v_config_manager.html#a1c6cbc4c8a132762bf16a8ce9f7d0bfc" target="_top" xlink:title=" ">
<polygon fill="white" stroke="#666666" points="478.88,-512.5 342.88,-512.5 342.88,-482 478.88,-482 478.88,-512.5"/>
<text xml:space="preserve" text-anchor="start" x="350.88" y="-499" font-family="Helvetica,sans-Serif" font-size="10.00">CSVConfigManager::export</text>
<text xml:space="preserve" text-anchor="middle" x="410.88" y="-487.75" font-family="Helvetica,sans-Serif" font-size="10.00">PointsWithAlarmsToCSV</text>
</a>
</g>
</g>
<!-- Node2&#45;&gt;Node3 -->
<g id="edge2_Node000002_Node000003" class="edge">
<title>Node2&#45;&gt;Node3</title>
<g id="a_edge2_Node000002_Node000003"><a xlink:title=" ">
<path fill="none" stroke="#63b8ff" d="M537.25,-475.5C518.48,-478.76 497.97,-482.32 479.07,-485.6"/>
<polygon fill="#63b8ff" stroke="#63b8ff" points="537.62,-478.99 546.88,-473.83 536.43,-472.09 537.62,-478.99"/>
</a>
</g>
</g>
<!-- Node5 -->
<g id="Node000005" class="node">
<title>Node5</title>
<g id="a_Node000005"><a xlink:href="class_logger_manager.html#a829c2f8dcde77d6506f1d664a291969a" target="_top" xlink:title=" ">
<polygon fill="white" stroke="#666666" points="297.88,-497.5 156.62,-497.5 156.62,-467 297.88,-467 297.88,-497.5"/>
<text xml:space="preserve" text-anchor="start" x="164.62" y="-484" font-family="Helvetica,sans-Serif" font-size="10.00">LoggerManager::_hasHeader</text>
<text xml:space="preserve" text-anchor="middle" x="227.25" y="-472.75" font-family="Helvetica,sans-Serif" font-size="10.00">Changed</text>
</a>
</g>
</g>
<!-- Node4&#45;&gt;Node5 -->
<g id="edge4_Node000004_Node000005" class="edge">
<title>Node4&#45;&gt;Node5</title>
<g id="a_edge4_Node000004_Node000005"><a xlink:title=" ">
<path fill="none" stroke="#63b8ff" d="M561.8,-404.05C539.69,-414.71 511.51,-427.13 485.25,-435.25 423.39,-454.37 350.61,-466.78 298.32,-474.02"/>
<polygon fill="#63b8ff" stroke="#63b8ff" points="563.34,-407.19 570.77,-399.64 560.25,-400.91 563.34,-407.19"/>
</a>
</g>
</g>
<!-- Node7 -->
<g id="Node000007" class="node">
<title>Node7</title>
<g id="a_Node000007"><a xlink:href="class_logger_manager.html#ac7866b2b0244358be6a1cfe8d245cc7d" target="_top" xlink:title=" ">
<polygon fill="white" stroke="#666666" points="485.25,-340.5 336.5,-340.5 336.5,-310 485.25,-310 485.25,-340.5"/>
<text xml:space="preserve" text-anchor="start" x="344.5" y="-327" font-family="Helvetica,sans-Serif" font-size="10.00">LoggerManager::_recoverFrom</text>
<text xml:space="preserve" text-anchor="middle" x="410.88" y="-315.75" font-family="Helvetica,sans-Serif" font-size="10.00">ExistingFiles</text>
</a>
</g>
</g>
<!-- Node4&#45;&gt;Node7 -->
<g id="edge6_Node000004_Node000007" class="edge">
<title>Node4&#45;&gt;Node7</title>
<g id="a_edge6_Node000004_Node000007"><a xlink:title=" ">
<path fill="none" stroke="#63b8ff" d="M539.9,-364.28C515.14,-356.73 486.99,-348.15 463.4,-340.96"/>
<polygon fill="#63b8ff" stroke="#63b8ff" points="538.61,-367.54 549.19,-367.11 540.65,-360.85 538.61,-367.54"/>
</a>
</g>
</g>
<!-- Node8 -->
<g id="Node000008" class="node">
<title>Node8</title>
<g id="a_Node000008"><a xlink:href="class_logger_manager.html#a4acf0149820d73f4ed11340f63706841" target="_top" xlink:title=" ">
<polygon fill="white" stroke="#666666" points="283.25,-293.88 171.25,-293.88 171.25,-274.62 283.25,-274.62 283.25,-293.88"/>
<text xml:space="preserve" text-anchor="middle" x="227.25" y="-280.38" font-family="Helvetica,sans-Serif" font-size="10.00">LoggerManager::begin</text>
</a>
</g>
</g>
<!-- Node4&#45;&gt;Node8 -->
<g id="edge12_Node000004_Node000008" class="edge">
<title>Node4&#45;&gt;Node8</title>
<g id="a_edge12_Node000004_Node000008"><a xlink:title=" ">
<path fill="none" stroke="#63b8ff" d="M527.33,-362.46C525.23,-361.14 523.19,-359.74 521.25,-358.25 497.46,-340.03 511,-316.57 485.25,-301.25 423.77,-264.66 338.75,-267.17 283.63,-274.19"/>
<polygon fill="#63b8ff" stroke="#63b8ff" points="525.15,-365.26 535.6,-366.99 528.52,-359.12 525.15,-365.26"/>
</a>
</g>
</g>
<!-- Node9 -->
<g id="Node000009" class="node">
<title>Node9</title>
<g id="a_Node000009"><a xlink:href="class_logger_manager.html#a4095daee15dce39ba5f802ea5b5661a2" target="_top" xlink:title=" ">
<polygon fill="white" stroke="#666666" points="484.12,-377.88 337.62,-377.88 337.62,-358.62 484.12,-358.62 484.12,-377.88"/>
<text xml:space="preserve" text-anchor="middle" x="410.88" y="-364.38" font-family="Helvetica,sans-Serif" font-size="10.00">LoggerManager::_writeHeader</text>
</a>
</g>
</g>
<!-- Node4&#45;&gt;Node9 -->
<g id="edge9_Node000004_Node000009" class="edge">
<title>Node4&#45;&gt;Node9</title>
<g id="a_edge9_Node000004_Node000009"><a xlink:title=" ">
<path fill="none" stroke="#63b8ff" d="M525.66,-377.22C512.08,-376.15 497.97,-375.04 484.5,-373.98"/>
<polygon fill="#63b8ff" stroke="#63b8ff" points="525.16,-380.69 535.41,-377.99 525.72,-373.71 525.16,-380.69"/>
</a>
</g>
</g>
<!-- Node11 -->
<g id="Node000011" class="node">
<title>Node11</title>
<g id="a_Node000011"><a xlink:href="class_logger_manager.html#a445856fb9bb37bd5e61d5242d8996c1f" target="_top" xlink:title=" ">
<polygon fill="white" stroke="#666666" points="478.88,-426.5 342.88,-426.5 342.88,-396 478.88,-396 478.88,-426.5"/>
<text xml:space="preserve" text-anchor="start" x="350.88" y="-413" font-family="Helvetica,sans-Serif" font-size="10.00">LoggerManager::createNew</text>
<text xml:space="preserve" text-anchor="middle" x="410.88" y="-401.75" font-family="Helvetica,sans-Serif" font-size="10.00">LogFile</text>
</a>
</g>
</g>
<!-- Node4&#45;&gt;Node11 -->
<g id="edge13_Node000004_Node000011" class="edge">
<title>Node4&#45;&gt;Node11</title>
<g id="a_edge13_Node000004_Node000011"><a xlink:title=" ">
<path fill="none" stroke="#63b8ff" d="M525.84,-394.48C510.44,-396.74 494.34,-399.11 479.26,-401.33"/>
<polygon fill="#63b8ff" stroke="#63b8ff" points="526.04,-397.99 535.42,-393.07 525.02,-391.06 526.04,-397.99"/>
</a>
</g>
</g>
<!-- Node6 -->
<g id="Node000006" class="node">
<title>Node6</title>
<g id="a_Node000006"><a xlink:href="class_logger_manager.html#a830c86f1f27d3799eab1de908fc6b647" target="_top" xlink:title=" ">
<polygon fill="white" stroke="#666666" points="118,-391.88 0,-391.88 0,-372.62 118,-372.62 118,-391.88"/>
<text xml:space="preserve" text-anchor="middle" x="59" y="-378.38" font-family="Helvetica,sans-Serif" font-size="10.00">LoggerManager::update</text>
</a>
</g>
</g>
<!-- Node5&#45;&gt;Node6 -->
<g id="edge5_Node000005_Node000006" class="edge">
<title>Node5&#45;&gt;Node6</title>
<g id="a_edge5_Node000005_Node000006"><a xlink:title=" ">
<path fill="none" stroke="#63b8ff" d="M161.7,-462.15C159.06,-460.91 156.49,-459.61 154,-458.25 119.93,-439.63 86.01,-408.23 69.82,-392.25"/>
<polygon fill="#63b8ff" stroke="#63b8ff" points="160.12,-465.28 170.69,-466.04 162.9,-458.86 160.12,-465.28"/>
</a>
</g>
</g>
<!-- Node7&#45;&gt;Node6 -->
<g id="edge8_Node000007_Node000006" class="edge">
<title>Node7&#45;&gt;Node6</title>
<g id="a_edge8_Node000007_Node000006"><a xlink:title=" ">
<path fill="none" stroke="#63b8ff" d="M324.7,-325C274.45,-326.48 209.94,-331.2 154,-344.25 127.26,-350.49 98.2,-363.23 79.58,-372.24"/>
<polygon fill="#63b8ff" stroke="#63b8ff" points="324.75,-328.5 334.66,-324.75 324.58,-321.51 324.75,-328.5"/>
</a>
</g>
</g>
<!-- Node7&#45;&gt;Node8 -->
<g id="edge7_Node000007_Node000008" class="edge">
<title>Node7&#45;&gt;Node8</title>
<g id="a_edge7_Node000007_Node000008"><a xlink:title=" ">
<path fill="none" stroke="#63b8ff" d="M329.19,-307.04C309.84,-302.67 289.86,-298.16 272.84,-294.32"/>
<polygon fill="#63b8ff" stroke="#63b8ff" points="328.17,-310.39 338.7,-309.18 329.71,-303.57 328.17,-310.39"/>
</a>
</g>
</g>
<!-- Node10 -->
<g id="Node000010" class="node">
<title>Node10</title>
<g id="a_Node000010"><a xlink:href="class_logger_manager.html#a32ce9f462269787130bee46b2c34b632" target="_top" xlink:title=" ">
<polygon fill="white" stroke="#666666" points="298.62,-372.88 155.88,-372.88 155.88,-353.62 298.62,-353.62 298.62,-372.88"/>
<text xml:space="preserve" text-anchor="middle" x="227.25" y="-359.38" font-family="Helvetica,sans-Serif" font-size="10.00">LoggerManager::logDataNow</text>
</a>
</g>
</g>
<!-- Node9&#45;&gt;Node10 -->
<g id="edge10_Node000009_Node000010" class="edge">
<title>Node9&#45;&gt;Node10</title>
<g id="a_edge10_Node000009_Node000010"><a xlink:title=" ">
<path fill="none" stroke="#63b8ff" d="M325.94,-365.94C316.91,-365.69 307.78,-365.44 298.93,-365.2"/>
<polygon fill="#63b8ff" stroke="#63b8ff" points="325.7,-369.43 335.8,-366.21 325.9,-362.44 325.7,-369.43"/>
</a>
</g>
</g>
<!-- Node10&#45;&gt;Node6 -->
<g id="edge11_Node000010_Node000006" class="edge">
<title>Node10&#45;&gt;Node6</title>
<g id="a_edge11_Node000010_Node000006"><a xlink:title=" ">
<path fill="none" stroke="#63b8ff" d="M144.56,-372.59C135.7,-373.6 126.81,-374.61 118.3,-375.59"/>
<polygon fill="#63b8ff" stroke="#63b8ff" points="144.7,-376.09 154.24,-371.48 143.91,-369.14 144.7,-376.09"/>
</a>
</g>
</g>
<!-- Node11&#45;&gt;Node6 -->
<g id="edge15_Node000011_Node000006" class="edge">
<title>Node11&#45;&gt;Node6</title>
<g id="a_edge15_Node000011_Node000006"><a xlink:title=" ">
<path fill="none" stroke="#63b8ff" d="M331.07,-404.72C266.47,-399.36 176.5,-391.91 118.25,-387.08"/>
<polygon fill="#63b8ff" stroke="#63b8ff" points="330.65,-408.2 340.91,-405.53 331.23,-401.22 330.65,-408.2"/>
</a>
</g>
</g>
<!-- Node12 -->
<g id="Node000012" class="node">
<title>Node12</title>
<g id="a_Node000012"><a xlink:href="class_logger_manager.html#a32e39dd8df48f64677732ede4066f01d" target="_top" xlink:title=" ">
<polygon fill="white" stroke="#666666" points="300.5,-448.88 154,-448.88 154,-429.62 300.5,-429.62 300.5,-448.88"/>
<text xml:space="preserve" text-anchor="middle" x="227.25" y="-435.38" font-family="Helvetica,sans-Serif" font-size="10.00">LoggerManager::forceNewFile</text>
</a>
</g>
</g>
<!-- Node11&#45;&gt;Node12 -->
<g id="edge14_Node000011_Node000012" class="edge">
<title>Node11&#45;&gt;Node12</title>
<g id="a_edge14_Node000011_Node000012"><a xlink:title=" ">
<path fill="none" stroke="#63b8ff" d="M331.14,-423.39C318.65,-425.31 305.85,-427.29 293.7,-429.16"/>
<polygon fill="#63b8ff" stroke="#63b8ff" points="331.66,-426.85 341.01,-421.87 330.59,-419.93 331.66,-426.85"/>
</a>
</g>
</g>
<!-- Node15 -->
<g id="Node000015" class="node">
<title>Node15</title>
<g id="a_Node000015"><a xlink:href="class_config_manager.html#a0497343220fc493f5cf9574922508908" target="_top" xlink:title=" ">
<polygon fill="white" stroke="#666666" points="282.88,-181.88 171.62,-181.88 171.62,-162.62 282.88,-162.62 282.88,-181.88"/>
<text xml:space="preserve" text-anchor="middle" x="227.25" y="-168.38" font-family="Helvetica,sans-Serif" font-size="10.00">ConfigManager::begin</text>
</a>
</g>
</g>
<!-- Node14&#45;&gt;Node15 -->
<g id="edge18_Node000014_Node000015" class="edge">
<title>Node14&#45;&gt;Node15</title>
<g id="a_edge18_Node000014_Node000015"><a xlink:title=" ">
<path fill="none" stroke="#63b8ff" d="M347.41,-72.22C343.64,-73.74 339.98,-75.41 336.5,-77.25 293.63,-99.94 253.57,-142.8 236.68,-162.23"/>
<polygon fill="#63b8ff" stroke="#63b8ff" points="348.54,-75.54 356.77,-68.87 346.18,-68.95 348.54,-75.54"/>
</a>
</g>
</g>
<!-- Node19&#45;&gt;Node15 -->
<g id="edge23_Node000019_Node000015" class="edge">
<title>Node19&#45;&gt;Node15</title>
<g id="a_edge23_Node000019_Node000015"><a xlink:title=" ">
<path fill="none" stroke="#63b8ff" d="M354.5,-217.38C348.4,-215.75 342.3,-214.03 336.5,-212.25 307.38,-203.33 274.68,-190.9 252.91,-182.27"/>
<polygon fill="#63b8ff" stroke="#63b8ff" points="353.4,-220.71 363.96,-219.82 355.15,-213.93 353.4,-220.71"/>
</a>
</g>
</g>
<!-- Node20&#45;&gt;Node14 -->
<g id="edge25_Node000020_Node000014" class="edge">
<title>Node20&#45;&gt;Node14</title>
<g id="a_edge25_Node000020_Node000014"><a xlink:title=" ">
<path fill="none" stroke="#63b8ff" d="M523.46,-83.47C500.68,-78.32 476.59,-72.88 456.66,-68.37"/>
<polygon fill="#63b8ff" stroke="#63b8ff" points="522.51,-86.84 533.04,-85.64 524.06,-80.02 522.51,-86.84"/>
</a>
</g>
</g>
<!-- Node20&#45;&gt;Node19 -->
<g id="edge28_Node000020_Node000019" class="edge">
<title>Node20&#45;&gt;Node19</title>
<g id="a_edge28_Node000020_Node000019"><a xlink:title=" ">
<path fill="none" stroke="#63b8ff" d="M525.17,-122.98C523.82,-124.02 522.51,-125.11 521.25,-126.25 490.57,-154.1 516.74,-185.32 485.25,-212.25 481.56,-215.4 477.41,-218.02 473,-220.19"/>
<polygon fill="#63b8ff" stroke="#63b8ff" points="526.92,-126.02 533.4,-117.63 523.11,-120.15 526.92,-126.02"/>
</a>
</g>
</g>
<!-- Node21 -->
<g id="Node000021" class="node">
<title>Node21</title>
<g id="a_Node000021"><a xlink:href="class_config_manager.html#a9b7af07b85bf9cc3ac05603db6e89fd2" target="_top" xlink:title=" ">
<polygon fill="white" stroke="#666666" points="476.62,-165.5 345.12,-165.5 345.12,-135 476.62,-135 476.62,-165.5"/>
<text xml:space="preserve" text-anchor="start" x="353.12" y="-152" font-family="Helvetica,sans-Serif" font-size="10.00">ConfigManager::csvImport</text>
<text xml:space="preserve" text-anchor="middle" x="410.88" y="-140.75" font-family="Helvetica,sans-Serif" font-size="10.00">ExportAPI</text>
</a>
</g>
</g>
<!-- Node20&#45;&gt;Node21 -->
<g id="edge26_Node000020_Node000021" class="edge">
<title>Node20&#45;&gt;Node21</title>
<g id="a_edge26_Node000020_Node000021"><a xlink:title=" ">
<path fill="none" stroke="#63b8ff" d="M530.19,-119.78C511.3,-124.64 491.1,-129.85 472.84,-134.55"/>
<polygon fill="#63b8ff" stroke="#63b8ff" points="530.87,-123.22 539.68,-117.33 529.12,-116.44 530.87,-123.22"/>
</a>
</g>
</g>
<!-- Node22 -->
<g id="Node000022" class="node">
<title>Node22</title>
<g id="a_Node000022"><a xlink:href="class_config_manager.html#a45b1ce1f09401af0b6f700cf4388b233" target="_top" xlink:title=" ">
<polygon fill="white" stroke="#666666" points="477.75,-202.88 344,-202.88 344,-183.62 477.75,-183.62 477.75,-202.88"/>
<text xml:space="preserve" text-anchor="middle" x="410.88" y="-189.38" font-family="Helvetica,sans-Serif" font-size="10.00">ConfigManager::sensorAPI</text>
</a>
</g>
</g>
<!-- Node20&#45;&gt;Node22 -->
<g id="edge29_Node000020_Node000022" class="edge">
<title>Node20&#45;&gt;Node22</title>
<g id="a_edge29_Node000020_Node000022"><a xlink:title=" ">
<path fill="none" stroke="#63b8ff" d="M528.06,-121.92C525.71,-123.27 523.43,-124.71 521.25,-126.25 499.45,-141.6 507.4,-159.41 485.25,-174.25 479.78,-177.91 473.65,-180.87 467.33,-183.26"/>
<polygon fill="#63b8ff" stroke="#63b8ff" points="529.39,-125.16 536.71,-117.5 526.21,-118.93 529.39,-125.16"/>
</a>
</g>
</g>
<!-- Node23 -->
<g id="Node000023" class="node">
<title>Node23</title>
<g id="a_Node000023"><a xlink:href="class_config_manager.html#a0daf50bbd376beb24a5400a86e893338" target="_top" xlink:title=" ">
<polygon fill="white" stroke="#666666" points="480.75,-116.5 341,-116.5 341,-86 480.75,-86 480.75,-116.5"/>
<text xml:space="preserve" text-anchor="start" x="349" y="-103" font-family="Helvetica,sans-Serif" font-size="10.00">ConfigManager::updatePoint</text>
<text xml:space="preserve" text-anchor="middle" x="410.88" y="-91.75" font-family="Helvetica,sans-Serif" font-size="10.00">InConfig</text>
</a>
</g>
</g>
<!-- Node20&#45;&gt;Node23 -->
<g id="edge31_Node000020_Node000023" class="edge">
<title>Node20&#45;&gt;Node23</title>
<g id="a_edge31_Node000020_Node000023"><a xlink:title=" ">
<path fill="none" stroke="#63b8ff" d="M523.41,-101.25C509.41,-101.25 494.91,-101.25 481.19,-101.25"/>
<polygon fill="#63b8ff" stroke="#63b8ff" points="523,-104.75 533,-101.25 523,-97.75 523,-104.75"/>
</a>
</g>
</g>
<!-- Node21&#45;&gt;Node15 -->
<g id="edge27_Node000021_Node000015" class="edge">
<title>Node21&#45;&gt;Node15</title>
<g id="a_edge27_Node000021_Node000015"><a xlink:title=" ">
<path fill="none" stroke="#63b8ff" d="M333.8,-159.46C316.84,-161.52 299.18,-163.66 283.26,-165.59"/>
<polygon fill="#63b8ff" stroke="#63b8ff" points="333.81,-162.99 343.31,-158.31 332.97,-156.04 333.81,-162.99"/>
</a>
</g>
</g>
<!-- Node22&#45;&gt;Node15 -->
<g id="edge30_Node000022_Node000015" class="edge">
<title>Node22&#45;&gt;Node15</title>
<g id="a_edge30_Node000022_Node000015"><a xlink:title=" ">
<path fill="none" stroke="#63b8ff" d="M332.21,-184.27C315.68,-182.36 298.55,-180.38 283.09,-178.59"/>
<polygon fill="#63b8ff" stroke="#63b8ff" points="331.69,-187.73 342.03,-185.41 332.5,-180.78 331.69,-187.73"/>
</a>
</g>
</g>
</g>
</svg>
