<?xml version="1.0" encoding="UTF-8" standalone="no"?>
<!DOCTYPE svg PUBLIC "-//W3C//DTD SVG 1.1//EN"
 "http://www.w3.org/Graphics/SVG/1.1/DTD/svg11.dtd">
<!-- Generated by graphviz version 13.1.0 (20250701.0955)
 -->
<!-- Title: LoggerManager::getAlarmHistoryJson Pages: 1 -->
<svg width="561pt" height="88pt"
 viewBox="0.00 0.00 561.00 88.00" xmlns="http://www.w3.org/2000/svg" xmlns:xlink="http://www.w3.org/1999/xlink">
<g id="graph0" class="graph" transform="scale(1 1) rotate(0) translate(4 83.5)">
<title>LoggerManager::getAlarmHistoryJson</title>
<!-- Node1 -->
<g id="Node000001" class="node">
<title>Node1</title>
<g id="a_Node000001"><a xlink:title=" ">
<polygon fill="#999999" stroke="#666666" points="180.25,-48.88 0,-48.88 0,-29.62 180.25,-29.62 180.25,-48.88"/>
<text xml:space="preserve" text-anchor="middle" x="90.12" y="-35.38" font-family="Helvetica,sans-Serif" font-size="10.00">LoggerManager::getAlarmHistoryJson</text>
</a>
</g>
</g>
<!-- Node2 -->
<g id="Node000002" class="node">
<title>Node2</title>
<g id="a_Node000002"><a xlink:href="$class_logger_manager.html#a0bd4f43205e247f114f1a49a8de438d5" xlink:title=" ">
<polygon fill="white" stroke="#666666" points="354.5,-79.5 221.5,-79.5 221.5,-49 354.5,-49 354.5,-79.5"/>
<text xml:space="preserve" text-anchor="start" x="229.5" y="-66" font-family="Helvetica,sans-Serif" font-size="10.00">LoggerManager::_getAlarm</text>
<text xml:space="preserve" text-anchor="middle" x="288" y="-54.75" font-family="Helvetica,sans-Serif" font-size="10.00">LogFilesInRange</text>
</a>
</g>
</g>
<!-- Node1&#45;&gt;Node2 -->
<g id="edge1_Node000001_Node000002" class="edge">
<title>Node1&#45;&gt;Node2</title>
<g id="a_edge1_Node000001_Node000002"><a xlink:title=" ">
<path fill="none" stroke="#63b8ff" d="M170.23,-49.35C183.29,-51.01 196.81,-52.74 209.82,-54.4"/>
<polygon fill="#63b8ff" stroke="#63b8ff" points="209.23,-57.85 219.59,-55.65 210.12,-50.91 209.23,-57.85"/>
</a>
</g>
</g>
<!-- Node4 -->
<g id="Node000004" class="node">
<title>Node4</title>
<g id="a_Node000004"><a xlink:href="$class_logger_manager.html#a5ec50d53433ca34a292d19dfb30042fc" xlink:title=" ">
<polygon fill="white" stroke="#666666" points="359.75,-30.5 216.25,-30.5 216.25,0 359.75,0 359.75,-30.5"/>
<text xml:space="preserve" text-anchor="start" x="224.25" y="-17" font-family="Helvetica,sans-Serif" font-size="10.00">LoggerManager::_parseAlarm</text>
<text xml:space="preserve" text-anchor="middle" x="288" y="-5.75" font-family="Helvetica,sans-Serif" font-size="10.00">StateLogEntry</text>
</a>
</g>
</g>
<!-- Node1&#45;&gt;Node4 -->
<g id="edge3_Node000001_Node000004" class="edge">
<title>Node1&#45;&gt;Node4</title>
<g id="a_edge3_Node000001_Node000004"><a xlink:title=" ">
<path fill="none" stroke="#63b8ff" d="M173.63,-29.14C183.81,-27.89 194.21,-26.62 204.39,-25.37"/>
<polygon fill="#63b8ff" stroke="#63b8ff" points="204.76,-28.85 214.27,-24.16 203.91,-21.9 204.76,-28.85"/>
</a>
</g>
</g>
<!-- Node3 -->
<g id="Node000003" class="node">
<title>Node3</title>
<g id="a_Node000003"><a xlink:href="$class_logger_manager.html#ab4c92b3ff3b5f56dc21d6ef8835c310b" xlink:title=" ">
<polygon fill="white" stroke="#666666" points="552.75,-73.88 395.75,-73.88 395.75,-54.62 552.75,-54.62 552.75,-73.88"/>
<text xml:space="preserve" text-anchor="middle" x="474.25" y="-60.38" font-family="Helvetica,sans-Serif" font-size="10.00">LoggerManager::_normalizeDate</text>
</a>
</g>
</g>
<!-- Node2&#45;&gt;Node3 -->
<g id="edge2_Node000002_Node000003" class="edge">
<title>Node2&#45;&gt;Node3</title>
<g id="a_edge2_Node000002_Node000003"><a xlink:title=" ">
<path fill="none" stroke="#63b8ff" d="M355,-64.25C364.42,-64.25 374.25,-64.25 384.03,-64.25"/>
<polygon fill="#63b8ff" stroke="#63b8ff" points="383.95,-67.75 393.95,-64.25 383.95,-60.75 383.95,-67.75"/>
</a>
</g>
</g>
</g>
</svg>
