<?xml version="1.0" encoding="UTF-8" standalone="no"?>
<!DOCTYPE svg PUBLIC "-//W3C//DTD SVG 1.1//EN"
 "http://www.w3.org/Graphics/SVG/1.1/DTD/svg11.dtd">
<!-- Generated by graphviz version 13.1.0 (20250701.0955)
 -->
<!-- Title: Alarm::setHysteresis Pages: 1 -->
<svg width="436pt" height="88pt"
 viewBox="0.00 0.00 436.00 88.00" xmlns="http://www.w3.org/2000/svg" xmlns:xlink="http://www.w3.org/1999/xlink">
<g id="graph0" class="graph" transform="scale(1 1) rotate(0) translate(4 83.5)">
<title>Alarm::setHysteresis</title>
<!-- Node1 -->
<g id="Node000001" class="node">
<title>Node1</title>
<g id="a_Node000001"><a xlink:title="Set the hysteresis value for alarm triggering.">
<polygon fill="#999999" stroke="#666666" points="428.25,-48.88 320,-48.88 320,-29.62 428.25,-29.62 428.25,-48.88"/>
<text xml:space="preserve" text-anchor="middle" x="374.12" y="-35.38" font-family="Helvetica,sans-Serif" font-size="10.00">Alarm::setHysteresis</text>
</a>
</g>
</g>
<!-- Node2 -->
<g id="Node000002" class="node">
<title>Node2</title>
<g id="a_Node000002"><a xlink:href="class_c_s_v_config_manager.html#a7ecf23e1c03fa194bcf3afe52408d378" target="_top" xlink:title="Parse alarm configuration from CSV fields.">
<polygon fill="white" stroke="#666666" points="272.75,-79.5 158.5,-79.5 158.5,-49 272.75,-49 272.75,-79.5"/>
<text xml:space="preserve" text-anchor="start" x="166.5" y="-66" font-family="Helvetica,sans-Serif" font-size="10.00">CSVConfigManager::</text>
<text xml:space="preserve" text-anchor="middle" x="215.62" y="-54.75" font-family="Helvetica,sans-Serif" font-size="10.00">_parseAlarmFromCSV</text>
</a>
</g>
</g>
<!-- Node1&#45;&gt;Node2 -->
<g id="edge1_Node000001_Node000002" class="edge">
<title>Node1&#45;&gt;Node2</title>
<g id="a_edge1_Node000001_Node000002"><a xlink:title=" ">
<path fill="none" stroke="#63b8ff" d="M308.56,-49.56C296.77,-51.45 284.54,-53.4 273.01,-55.24"/>
<polygon fill="#63b8ff" stroke="#63b8ff" points="308.89,-53.06 318.21,-48.02 307.78,-46.14 308.89,-53.06"/>
</a>
</g>
</g>
<!-- Node3 -->
<g id="Node000003" class="node">
<title>Node3</title>
<g id="a_Node000003"><a xlink:href="class_config_manager.html#a468923ce5f2edecd218b29605d75426f" target="_top" xlink:title="Load alarms configuration from file.">
<polygon fill="white" stroke="#666666" points="284,-30.5 147.25,-30.5 147.25,0 284,0 284,-30.5"/>
<text xml:space="preserve" text-anchor="start" x="155.25" y="-17" font-family="Helvetica,sans-Serif" font-size="10.00">ConfigManager::loadAlarms</text>
<text xml:space="preserve" text-anchor="middle" x="215.62" y="-5.75" font-family="Helvetica,sans-Serif" font-size="10.00">Config</text>
</a>
</g>
</g>
<!-- Node1&#45;&gt;Node3 -->
<g id="edge2_Node000001_Node000003" class="edge">
<title>Node1&#45;&gt;Node3</title>
<g id="a_edge2_Node000001_Node000003"><a xlink:title=" ">
<path fill="none" stroke="#63b8ff" d="M308.34,-29.31C300.46,-28.11 292.39,-26.87 284.47,-25.65"/>
<polygon fill="#63b8ff" stroke="#63b8ff" points="307.79,-32.77 318.21,-30.83 308.85,-25.85 307.79,-32.77"/>
</a>
</g>
</g>
<!-- Node4 -->
<g id="Node000004" class="node">
<title>Node4</title>
<g id="a_Node000004"><a xlink:href="class_config_manager.html#a0497343220fc493f5cf9574922508908" target="_top" xlink:title="Initialize the configuration system.">
<polygon fill="white" stroke="#666666" points="111.25,-24.88 0,-24.88 0,-5.63 111.25,-5.63 111.25,-24.88"/>
<text xml:space="preserve" text-anchor="middle" x="55.62" y="-11.38" font-family="Helvetica,sans-Serif" font-size="10.00">ConfigManager::begin</text>
</a>
</g>
</g>
<!-- Node3&#45;&gt;Node4 -->
<g id="edge3_Node000003_Node000004" class="edge">
<title>Node3&#45;&gt;Node4</title>
<g id="a_edge3_Node000003_Node000004"><a xlink:title=" ">
<path fill="none" stroke="#63b8ff" d="M135.92,-15.25C127.66,-15.25 119.39,-15.25 111.47,-15.25"/>
<polygon fill="#63b8ff" stroke="#63b8ff" points="135.65,-18.75 145.65,-15.25 135.65,-11.75 135.65,-18.75"/>
</a>
</g>
</g>
</g>
</svg>
