<?xml version="1.0" encoding="UTF-8" standalone="no"?>
<!DOCTYPE svg PUBLIC "-//W3C//DTD SVG 1.1//EN"
 "http://www.w3.org/Graphics/SVG/1.1/DTD/svg11.dtd">
<!-- Generated by graphviz version 13.1.0 (20250701.0955)
 -->
<!-- Title: MeasurementPoint::getErrorStatus Pages: 1 -->
<svg width="371pt" height="137pt"
 viewBox="0.00 0.00 371.00 137.00" xmlns="http://www.w3.org/2000/svg" xmlns:xlink="http://www.w3.org/1999/xlink">
<g id="graph0" class="graph" transform="scale(1 1) rotate(0) translate(4 132.5)">
<title>MeasurementPoint::getErrorStatus</title>
<!-- Node1 -->
<g id="Node000001" class="node">
<title>Node1</title>
<g id="a_Node000001"><a xlink:title="Get error status bits.">
<polygon fill="#999999" stroke="#666666" points="362.75,-79.5 224.5,-79.5 224.5,-49 362.75,-49 362.75,-79.5"/>
<text xml:space="preserve" text-anchor="start" x="232.5" y="-66" font-family="Helvetica,sans-Serif" font-size="10.00">MeasurementPoint::getError</text>
<text xml:space="preserve" text-anchor="middle" x="293.62" y="-54.75" font-family="Helvetica,sans-Serif" font-size="10.00">Status</text>
</a>
</g>
</g>
<!-- Node2 -->
<g id="Node000002" class="node">
<title>Node2</title>
<g id="a_Node000002"><a xlink:href="$class_temperature_controller.html#a27da8ccc3effea555f440ce3e6f89b08" xlink:title="Check measurement point for alarm conditions.">
<polygon fill="white" stroke="#666666" points="154.75,-128.5 33.75,-128.5 33.75,-98 154.75,-98 154.75,-128.5"/>
<text xml:space="preserve" text-anchor="start" x="41.75" y="-115" font-family="Helvetica,sans-Serif" font-size="10.00">TemperatureController</text>
<text xml:space="preserve" text-anchor="middle" x="94.25" y="-103.75" font-family="Helvetica,sans-Serif" font-size="10.00">::_checkPointForAlarms</text>
</a>
</g>
</g>
<!-- Node1&#45;&gt;Node2 -->
<g id="edge1_Node000001_Node000002" class="edge">
<title>Node1&#45;&gt;Node2</title>
<g id="a_edge1_Node000001_Node000002"><a xlink:title=" ">
<path fill="none" stroke="#63b8ff" d="M218.29,-82.7C197.44,-87.88 175.03,-93.44 155.14,-98.38"/>
<polygon fill="#63b8ff" stroke="#63b8ff" points="219.03,-86.13 227.89,-80.32 217.34,-79.33 219.03,-86.13"/>
</a>
</g>
</g>
<!-- Node3 -->
<g id="Node000003" class="node">
<title>Node3</title>
<g id="a_Node000003"><a xlink:href="$class_temperature_controller.html#add39ba7dad38449bbf1787a5c9c51ef9" xlink:title="Get JSON representation of all measurement points.">
<polygon fill="white" stroke="#666666" points="150.25,-79.5 38.25,-79.5 38.25,-49 150.25,-49 150.25,-79.5"/>
<text xml:space="preserve" text-anchor="start" x="46.25" y="-66" font-family="Helvetica,sans-Serif" font-size="10.00">TemperatureController</text>
<text xml:space="preserve" text-anchor="middle" x="94.25" y="-54.75" font-family="Helvetica,sans-Serif" font-size="10.00">::getPointsJson</text>
</a>
</g>
</g>
<!-- Node1&#45;&gt;Node3 -->
<g id="edge2_Node000001_Node000003" class="edge">
<title>Node1&#45;&gt;Node3</title>
<g id="a_edge2_Node000001_Node000003"><a xlink:title=" ">
<path fill="none" stroke="#63b8ff" d="M212.7,-64.25C191.85,-64.25 169.83,-64.25 150.57,-64.25"/>
<polygon fill="#63b8ff" stroke="#63b8ff" points="212.63,-67.75 222.63,-64.25 212.63,-60.75 212.63,-67.75"/>
</a>
</g>
</g>
<!-- Node4 -->
<g id="Node000004" class="node">
<title>Node4</title>
<g id="a_Node000004"><a xlink:href="$class_register_map.html#a2940213459a183fc06a2226f1cd1a48b" xlink:title="Update registers from measurement point data.">
<polygon fill="white" stroke="#666666" points="188.5,-30.5 0,-30.5 0,0 188.5,0 188.5,-30.5"/>
<text xml:space="preserve" text-anchor="start" x="8" y="-17" font-family="Helvetica,sans-Serif" font-size="10.00">RegisterMap::updateFromMeasurement</text>
<text xml:space="preserve" text-anchor="middle" x="94.25" y="-5.75" font-family="Helvetica,sans-Serif" font-size="10.00">Point</text>
</a>
</g>
</g>
<!-- Node1&#45;&gt;Node4 -->
<g id="edge3_Node000001_Node000004" class="edge">
<title>Node1&#45;&gt;Node4</title>
<g id="a_edge3_Node000001_Node000004"><a xlink:title=" ">
<path fill="none" stroke="#63b8ff" d="M218.27,-45.79C198.59,-40.9 177.53,-35.68 158.5,-30.95"/>
<polygon fill="#63b8ff" stroke="#63b8ff" points="217.34,-49.17 227.89,-48.18 219.03,-42.37 217.34,-49.17"/>
</a>
</g>
</g>
</g>
</svg>
