<?xml version="1.0" encoding="UTF-8" standalone="no"?>
<!DOCTYPE svg PUBLIC "-//W3C//DTD SVG 1.1//EN"
 "http://www.w3.org/Graphics/SVG/1.1/DTD/svg11.dtd">
<!-- Generated by graphviz version 13.1.0 (20250701.0955)
 -->
<!-- Title: TempModbusServer::readHoldingRegistersWorker Pages: 1 -->
<svg width="313pt" height="64pt"
 viewBox="0.00 0.00 313.00 64.00" xmlns="http://www.w3.org/2000/svg" xmlns:xlink="http://www.w3.org/1999/xlink">
<g id="graph0" class="graph" transform="scale(1 1) rotate(0) translate(4 60.25)">
<title>TempModbusServer::readHoldingRegistersWorker</title>
<!-- Node1 -->
<g id="Node000001" class="node">
<title>Node1</title>
<g id="a_Node000001"><a xlink:title=" ">
<polygon fill="#999999" stroke="#666666" points="160.75,-42.88 0,-42.88 0,-12.37 160.75,-12.37 160.75,-42.88"/>
<text xml:space="preserve" text-anchor="start" x="8" y="-29.38" font-family="Helvetica,sans-Serif" font-size="10.00">TempModbusServer::readHolding</text>
<text xml:space="preserve" text-anchor="middle" x="80.38" y="-18.12" font-family="Helvetica,sans-Serif" font-size="10.00">RegistersWorker</text>
</a>
</g>
</g>
<!-- Node2 -->
<g id="Node000002" class="node">
<title>Node2</title>
<g id="a_Node000002"><a xlink:href="class_logger_manager.html#aef24f00186213fa78be3b104a50d58e6" target="_top" xlink:title="Log error message (static convenience method)">
<polygon fill="white" stroke="#666666" points="305,-56.25 196.75,-56.25 196.75,-37 305,-37 305,-56.25"/>
<text xml:space="preserve" text-anchor="middle" x="250.88" y="-42.75" font-family="Helvetica,sans-Serif" font-size="10.00">LoggerManager::error</text>
</a>
</g>
</g>
<!-- Node1&#45;&gt;Node2 -->
<g id="edge1_Node000001_Node000002" class="edge">
<title>Node1&#45;&gt;Node2</title>
<g id="a_edge1_Node000001_Node000002"><a xlink:title=" ">
<path fill="none" stroke="#63b8ff" d="M161.18,-36.62C169.19,-37.53 177.24,-38.43 185.06,-39.32"/>
<polygon fill="#63b8ff" stroke="#63b8ff" points="184.48,-42.77 194.81,-40.42 185.26,-35.82 184.48,-42.77"/>
</a>
</g>
</g>
<!-- Node3 -->
<g id="Node000003" class="node">
<title>Node3</title>
<g id="a_Node000003"><a xlink:href="class_logger_manager.html#a5c1373ccc47f4112b596fe6f84fbbc21" target="_top" xlink:title="Log informational message (static convenience method)">
<polygon fill="white" stroke="#666666" points="303.12,-19.25 198.62,-19.25 198.62,0 303.12,0 303.12,-19.25"/>
<text xml:space="preserve" text-anchor="middle" x="250.88" y="-5.75" font-family="Helvetica,sans-Serif" font-size="10.00">LoggerManager::info</text>
</a>
</g>
</g>
<!-- Node1&#45;&gt;Node3 -->
<g id="edge2_Node000001_Node000003" class="edge">
<title>Node1&#45;&gt;Node3</title>
<g id="a_edge2_Node000001_Node000003"><a xlink:title=" ">
<path fill="none" stroke="#63b8ff" d="M161.18,-19.1C169.84,-18.17 178.56,-17.24 186.97,-16.34"/>
<polygon fill="#63b8ff" stroke="#63b8ff" points="187.14,-19.85 196.72,-15.3 186.4,-12.89 187.14,-19.85"/>
</a>
</g>
</g>
</g>
</svg>
