<?xml version="1.0" encoding="UTF-8" standalone="no"?>
<!DOCTYPE svg PUBLIC "-//W3C//DTD SVG 1.1//EN"
 "http://www.w3.org/Graphics/SVG/1.1/DTD/svg11.dtd">
<!-- Generated by graphviz version 13.1.0 (20250701.0955)
 -->
<!-- Title: LoggerManager::logAlarmStateChange Pages: 1 -->
<svg width="492pt" height="76pt"
 viewBox="0.00 0.00 492.00 76.00" xmlns="http://www.w3.org/2000/svg" xmlns:xlink="http://www.w3.org/1999/xlink">
<g id="graph0" class="graph" transform="scale(1 1) rotate(0) translate(4 71.5)">
<title>LoggerManager::logAlarmStateChange</title>
<!-- Node1 -->
<g id="Node000001" class="node">
<title>Node1</title>
<g id="a_Node000001"><a xlink:title=" ">
<polygon fill="#999999" stroke="#666666" points="483.75,-42.88 333.5,-42.88 333.5,-12.37 483.75,-12.37 483.75,-42.88"/>
<text xml:space="preserve" text-anchor="start" x="341.5" y="-29.38" font-family="Helvetica,sans-Serif" font-size="10.00">LoggerManager::logAlarmState</text>
<text xml:space="preserve" text-anchor="middle" x="408.62" y="-18.12" font-family="Helvetica,sans-Serif" font-size="10.00">Change</text>
</a>
</g>
</g>
<!-- Node2 -->
<g id="Node000002" class="node">
<title>Node2</title>
<g id="a_Node000002"><a xlink:href="class_alarm.html#aa14f5a764303b269f04573867e2e4fc8" target="_top" xlink:title=" ">
<polygon fill="white" stroke="#666666" points="290.75,-56.25 186.25,-56.25 186.25,-37 290.75,-37 290.75,-56.25"/>
<text xml:space="preserve" text-anchor="middle" x="238.5" y="-42.75" font-family="Helvetica,sans-Serif" font-size="10.00">Alarm::acknowledge</text>
</a>
</g>
</g>
<!-- Node1&#45;&gt;Node2 -->
<g id="edge1_Node000001_Node000002" class="edge">
<title>Node1&#45;&gt;Node2</title>
<g id="a_edge1_Node000001_Node000002"><a xlink:title=" ">
<path fill="none" stroke="#63b8ff" d="M321.99,-37.3C311.46,-38.49 300.97,-39.68 291.16,-40.79"/>
<polygon fill="#63b8ff" stroke="#63b8ff" points="322.35,-40.78 331.89,-36.18 321.56,-33.83 322.35,-40.78"/>
</a>
</g>
</g>
<!-- Node4 -->
<g id="Node000004" class="node">
<title>Node4</title>
<g id="a_Node000004"><a xlink:href="class_alarm.html#abc87fe39e6a9b5beb9f09df780f67621" target="_top" xlink:title=" ">
<polygon fill="white" stroke="#666666" points="297.5,-19.25 179.5,-19.25 179.5,0 297.5,0 297.5,-19.25"/>
<text xml:space="preserve" text-anchor="middle" x="238.5" y="-5.75" font-family="Helvetica,sans-Serif" font-size="10.00">Alarm::updateCondition</text>
</a>
</g>
</g>
<!-- Node1&#45;&gt;Node4 -->
<g id="edge3_Node000001_Node000004" class="edge">
<title>Node1&#45;&gt;Node4</title>
<g id="a_edge3_Node000001_Node000004"><a xlink:title=" ">
<path fill="none" stroke="#63b8ff" d="M322.21,-18.48C314,-17.6 305.8,-16.72 297.94,-15.88"/>
<polygon fill="#63b8ff" stroke="#63b8ff" points="321.57,-21.93 331.89,-19.52 322.32,-14.97 321.57,-21.93"/>
</a>
</g>
</g>
<!-- Node3 -->
<g id="Node000003" class="node">
<title>Node3</title>
<g id="a_Node000003"><a xlink:href="class_temperature_controller.html#a5f1c8fce1e5efb637bfe86bdb609a3b7" target="_top" xlink:title=" ">
<polygon fill="white" stroke="#666666" points="143.5,-67.5 0,-67.5 0,-25.75 143.5,-25.75 143.5,-67.5"/>
<text xml:space="preserve" text-anchor="start" x="8" y="-54" font-family="Helvetica,sans-Serif" font-size="10.00">TemperatureController</text>
<text xml:space="preserve" text-anchor="start" x="8" y="-42.75" font-family="Helvetica,sans-Serif" font-size="10.00">::acknowledgeHighestPriority</text>
<text xml:space="preserve" text-anchor="middle" x="71.75" y="-31.5" font-family="Helvetica,sans-Serif" font-size="10.00">Alarm</text>
</a>
</g>
</g>
<!-- Node2&#45;&gt;Node3 -->
<g id="edge2_Node000002_Node000003" class="edge">
<title>Node2&#45;&gt;Node3</title>
<g id="a_edge2_Node000002_Node000003"><a xlink:title=" ">
<path fill="none" stroke="#63b8ff" d="M174.34,-46.62C164.37,-46.62 154,-46.62 143.86,-46.62"/>
<polygon fill="#63b8ff" stroke="#63b8ff" points="174.31,-50.13 184.31,-46.63 174.31,-43.13 174.31,-50.13"/>
</a>
</g>
</g>
</g>
</svg>
