<?xml version="1.0" encoding="UTF-8" standalone="no"?>
<!DOCTYPE svg PUBLIC "-//W3C//DTD SVG 1.1//EN"
 "http://www.w3.org/Graphics/SVG/1.1/DTD/svg11.dtd">
<!-- Generated by graphviz version 13.1.0 (20250701.0955)
 -->
<!-- Title: LoggerManager::getEventLogFilesStatic Pages: 1 -->
<svg width="481pt" height="64pt"
 viewBox="0.00 0.00 481.00 64.00" xmlns="http://www.w3.org/2000/svg" xmlns:xlink="http://www.w3.org/1999/xlink">
<g id="graph0" class="graph" transform="scale(1 1) rotate(0) translate(4 60.25)">
<title>LoggerManager::getEventLogFilesStatic</title>
<!-- Node1 -->
<g id="Node000001" class="node">
<title>Node1</title>
<g id="a_Node000001"><a xlink:title=" ">
<polygon fill="#999999" stroke="#666666" points="472.5,-42.88 329,-42.88 329,-12.37 472.5,-12.37 472.5,-42.88"/>
<text xml:space="preserve" text-anchor="start" x="337" y="-29.38" font-family="Helvetica,sans-Serif" font-size="10.00">LoggerManager::getEventLog</text>
<text xml:space="preserve" text-anchor="middle" x="400.75" y="-18.12" font-family="Helvetica,sans-Serif" font-size="10.00">FilesStatic</text>
</a>
</g>
</g>
<!-- Node2 -->
<g id="Node000002" class="node">
<title>Node2</title>
<g id="a_Node000002"><a xlink:href="class_config_manager.html#a3b28982c79587a287c8ddf0acf47f71d" target="_top" xlink:title=" ">
<polygon fill="white" stroke="#666666" points="293,-56.25 147.25,-56.25 147.25,-37 293,-37 293,-56.25"/>
<text xml:space="preserve" text-anchor="middle" x="220.12" y="-42.75" font-family="Helvetica,sans-Serif" font-size="10.00">ConfigManager::downloadAPI</text>
</a>
</g>
</g>
<!-- Node1&#45;&gt;Node2 -->
<g id="edge1_Node000001_Node000002" class="edge">
<title>Node1&#45;&gt;Node2</title>
<g id="a_edge1_Node000001_Node000002"><a xlink:title=" ">
<path fill="none" stroke="#63b8ff" d="M317.41,-36.38C309.41,-37.23 301.34,-38.09 293.45,-38.93"/>
<polygon fill="#63b8ff" stroke="#63b8ff" points="317.56,-39.89 327.13,-35.35 316.82,-32.93 317.56,-39.89"/>
</a>
</g>
</g>
<!-- Node4 -->
<g id="Node000004" class="node">
<title>Node4</title>
<g id="a_Node000004"><a xlink:href="class_config_manager.html#a9e977107b4795fcbce0482711ff1ce7a" target="_top" xlink:title=" ">
<polygon fill="white" stroke="#666666" points="281.38,-19.25 158.88,-19.25 158.88,0 281.38,0 281.38,-19.25"/>
<text xml:space="preserve" text-anchor="middle" x="220.12" y="-5.75" font-family="Helvetica,sans-Serif" font-size="10.00">ConfigManager::logsAPI</text>
</a>
</g>
</g>
<!-- Node1&#45;&gt;Node4 -->
<g id="edge3_Node000001_Node000004" class="edge">
<title>Node1&#45;&gt;Node4</title>
<g id="a_edge3_Node000001_Node000004"><a xlink:title=" ">
<path fill="none" stroke="#63b8ff" d="M317.22,-19.31C305.23,-18.1 293.08,-16.88 281.63,-15.72"/>
<polygon fill="#63b8ff" stroke="#63b8ff" points="316.83,-22.79 327.13,-20.31 317.53,-15.82 316.83,-22.79"/>
</a>
</g>
</g>
<!-- Node3 -->
<g id="Node000003" class="node">
<title>Node3</title>
<g id="a_Node000003"><a xlink:href="class_config_manager.html#a0497343220fc493f5cf9574922508908" target="_top" xlink:title=" ">
<polygon fill="white" stroke="#666666" points="111.25,-37.25 0,-37.25 0,-18 111.25,-18 111.25,-37.25"/>
<text xml:space="preserve" text-anchor="middle" x="55.62" y="-23.75" font-family="Helvetica,sans-Serif" font-size="10.00">ConfigManager::begin</text>
</a>
</g>
</g>
<!-- Node2&#45;&gt;Node3 -->
<g id="edge2_Node000002_Node000003" class="edge">
<title>Node2&#45;&gt;Node3</title>
<g id="a_edge2_Node000002_Node000003"><a xlink:title=" ">
<path fill="none" stroke="#63b8ff" d="M135.73,-36.87C127.53,-35.92 119.36,-34.96 111.55,-34.05"/>
<polygon fill="#63b8ff" stroke="#63b8ff" points="135.06,-40.32 145.4,-38 135.87,-33.37 135.06,-40.32"/>
</a>
</g>
</g>
<!-- Node4&#45;&gt;Node3 -->
<g id="edge4_Node000004_Node000003" class="edge">
<title>Node4&#45;&gt;Node3</title>
<g id="a_edge4_Node000004_Node000003"><a xlink:title=" ">
<path fill="none" stroke="#63b8ff" d="M147.25,-17.59C135.27,-18.91 123.02,-20.27 111.55,-21.54"/>
<polygon fill="#63b8ff" stroke="#63b8ff" points="147.56,-21.07 157.11,-16.49 146.79,-14.12 147.56,-21.07"/>
</a>
</g>
</g>
</g>
</svg>
