<?xml version="1.0" encoding="UTF-8" standalone="no"?>
<!DOCTYPE svg PUBLIC "-//W3C//DTD SVG 1.1//EN"
 "http://www.w3.org/Graphics/SVG/1.1/DTD/svg11.dtd">
<!-- Generated by graphviz version 13.1.0 (20250701.0955)
 -->
<!-- Title: TemperatureController::getRelayCommandedState Pages: 1 -->
<svg width="445pt" height="88pt"
 viewBox="0.00 0.00 445.00 88.00" xmlns="http://www.w3.org/2000/svg" xmlns:xlink="http://www.w3.org/1999/xlink">
<g id="graph0" class="graph" transform="scale(1 1) rotate(0) translate(4 83.5)">
<title>TemperatureController::getRelayCommandedState</title>
<!-- Node1 -->
<g id="Node000001" class="node">
<title>Node1</title>
<g id="a_Node000001"><a xlink:title="Get relay commanded state.">
<polygon fill="#999999" stroke="#666666" points="139.75,-54.5 0,-54.5 0,-24 139.75,-24 139.75,-54.5"/>
<text xml:space="preserve" text-anchor="start" x="8" y="-41" font-family="Helvetica,sans-Serif" font-size="10.00">TemperatureController</text>
<text xml:space="preserve" text-anchor="middle" x="69.88" y="-29.75" font-family="Helvetica,sans-Serif" font-size="10.00">::getRelayCommandedState</text>
</a>
</g>
</g>
<!-- Node2 -->
<g id="Node000002" class="node">
<title>Node2</title>
<g id="a_Node000002"><a xlink:href="$class_temperature_controller.html#a3022c7a72adb45a7800d5189eecdac4e" xlink:title="Get total number of configured alarms.">
<polygon fill="white" stroke="#666666" points="290,-79.5 178,-79.5 178,-49 290,-49 290,-79.5"/>
<text xml:space="preserve" text-anchor="start" x="186" y="-66" font-family="Helvetica,sans-Serif" font-size="10.00">TemperatureController</text>
<text xml:space="preserve" text-anchor="middle" x="234" y="-54.75" font-family="Helvetica,sans-Serif" font-size="10.00">::getAlarmCount</text>
</a>
</g>
</g>
<!-- Node1&#45;&gt;Node2 -->
<g id="edge1_Node000001_Node000002" class="edge">
<title>Node1&#45;&gt;Node2</title>
<g id="a_edge1_Node000001_Node000002"><a xlink:title=" ">
<path fill="none" stroke="#63b8ff" d="M140.1,-49.92C148.84,-51.27 157.76,-52.65 166.46,-53.99"/>
<polygon fill="#63b8ff" stroke="#63b8ff" points="165.81,-57.43 176.22,-55.49 166.87,-50.51 165.81,-57.43"/>
</a>
</g>
</g>
<!-- Node3 -->
<g id="Node000003" class="node">
<title>Node3</title>
<g id="a_Node000003"><a xlink:href="$class_temperature_controller.html#a61ff288cbeaa86dc21c610c778dba64e" xlink:title="Get relay control mode.">
<polygon fill="white" stroke="#666666" points="292.25,-30.5 175.75,-30.5 175.75,0 292.25,0 292.25,-30.5"/>
<text xml:space="preserve" text-anchor="start" x="183.75" y="-17" font-family="Helvetica,sans-Serif" font-size="10.00">TemperatureController</text>
<text xml:space="preserve" text-anchor="middle" x="234" y="-5.75" font-family="Helvetica,sans-Serif" font-size="10.00">::getRelayControlMode</text>
</a>
</g>
</g>
<!-- Node1&#45;&gt;Node3 -->
<g id="edge2_Node000001_Node000003" class="edge">
<title>Node1&#45;&gt;Node3</title>
<g id="a_edge2_Node000001_Node000003"><a xlink:title=" ">
<path fill="none" stroke="#63b8ff" d="M140.1,-29C148.11,-27.82 156.29,-26.61 164.29,-25.42"/>
<polygon fill="#63b8ff" stroke="#63b8ff" points="164.59,-28.91 173.97,-23.99 163.57,-21.99 164.59,-28.91"/>
</a>
</g>
</g>
<!-- Node4 -->
<g id="Node000004" class="node">
<title>Node4</title>
<g id="a_Node000004"><a xlink:href="$class_logger_manager.html#aef24f00186213fa78be3b104a50d58e6" xlink:title="Log error message (static convenience method)">
<polygon fill="white" stroke="#666666" points="436.5,-24.88 328.25,-24.88 328.25,-5.63 436.5,-5.63 436.5,-24.88"/>
<text xml:space="preserve" text-anchor="middle" x="382.38" y="-11.38" font-family="Helvetica,sans-Serif" font-size="10.00">LoggerManager::error</text>
</a>
</g>
</g>
<!-- Node3&#45;&gt;Node4 -->
<g id="edge3_Node000003_Node000004" class="edge">
<title>Node3&#45;&gt;Node4</title>
<g id="a_edge3_Node000003_Node000004"><a xlink:title=" ">
<path fill="none" stroke="#63b8ff" d="M292.43,-15.25C300.38,-15.25 308.59,-15.25 316.66,-15.25"/>
<polygon fill="#63b8ff" stroke="#63b8ff" points="316.42,-18.75 326.42,-15.25 316.42,-11.75 316.42,-18.75"/>
</a>
</g>
</g>
</g>
</svg>
