<?xml version="1.0" encoding="UTF-8" standalone="no"?>
<!DOCTYPE svg PUBLIC "-//W3C//DTD SVG 1.1//EN"
 "http://www.w3.org/Graphics/SVG/1.1/DTD/svg11.dtd">
<!-- Generated by graphviz version 13.1.0 (20250701.0955)
 -->
<!-- Title: TimeManager::getStatusJSON Pages: 1 -->
<svg width="356pt" height="138pt"
 viewBox="0.00 0.00 356.00 138.00" xmlns="http://www.w3.org/2000/svg" xmlns:xlink="http://www.w3.org/1999/xlink">
<g id="graph0" class="graph" transform="scale(1 1) rotate(0) translate(4 134.25)">
<title>TimeManager::getStatusJSON</title>
<!-- Node1 -->
<g id="Node000001" class="node">
<title>Node1</title>
<g id="a_Node000001"><a xlink:title=" ">
<polygon fill="#999999" stroke="#666666" points="150.25,-74.25 0,-74.25 0,-55 150.25,-55 150.25,-74.25"/>
<text xml:space="preserve" text-anchor="middle" x="75.12" y="-60.75" font-family="Helvetica,sans-Serif" font-size="10.00">TimeManager::getStatusJSON</text>
</a>
</g>
</g>
<!-- Node2 -->
<g id="Node000002" class="node">
<title>Node2</title>
<g id="a_Node000002"><a xlink:href="class_time_manager.html#a57cb32331258b5e8692ef477657dd318" target="_top" xlink:title=" ">
<polygon fill="white" stroke="#666666" points="347.75,-130.25 186.25,-130.25 186.25,-111 347.75,-111 347.75,-130.25"/>
<text xml:space="preserve" text-anchor="middle" x="267" y="-116.75" font-family="Helvetica,sans-Serif" font-size="10.00">TimeManager::_isWiFiConnected</text>
</a>
</g>
</g>
<!-- Node1&#45;&gt;Node2 -->
<g id="edge1_Node000001_Node000002" class="edge">
<title>Node1&#45;&gt;Node2</title>
<g id="a_edge1_Node000001_Node000002"><a xlink:title=" ">
<path fill="none" stroke="#63b8ff" d="M102.57,-74.67C124.71,-82.86 157.26,-94.38 186.25,-102.62 192.79,-104.49 199.68,-106.28 206.55,-107.97"/>
<polygon fill="#63b8ff" stroke="#63b8ff" points="205.27,-111.26 215.81,-110.18 206.9,-104.45 205.27,-111.26"/>
</a>
</g>
</g>
<!-- Node3 -->
<g id="Node000003" class="node">
<title>Node3</title>
<g id="a_Node000003"><a xlink:href="class_time_manager.html#a8103064c75b5a937ccbf410aff2847d5" target="_top" xlink:title=" ">
<polygon fill="white" stroke="#666666" points="338.75,-93.25 195.25,-93.25 195.25,-74 338.75,-74 338.75,-93.25"/>
<text xml:space="preserve" text-anchor="middle" x="267" y="-79.75" font-family="Helvetica,sans-Serif" font-size="10.00">TimeManager::hasLostPower</text>
</a>
</g>
</g>
<!-- Node1&#45;&gt;Node3 -->
<g id="edge2_Node000001_Node000003" class="edge">
<title>Node1&#45;&gt;Node3</title>
<g id="a_edge2_Node000001_Node000003"><a xlink:title=" ">
<path fill="none" stroke="#63b8ff" d="M150.62,-72.08C161.42,-73.16 172.58,-74.28 183.53,-75.37"/>
<polygon fill="#63b8ff" stroke="#63b8ff" points="183.02,-78.84 193.31,-76.35 183.71,-71.87 183.02,-78.84"/>
</a>
</g>
</g>
<!-- Node4 -->
<g id="Node000004" class="node">
<title>Node4</title>
<g id="a_Node000004"><a xlink:href="class_time_manager.html#ae74ce0171feb70ca84ee79c8edda311b" target="_top" xlink:title=" ">
<polygon fill="white" stroke="#666666" points="347,-56.25 187,-56.25 187,-37 347,-37 347,-56.25"/>
<text xml:space="preserve" text-anchor="middle" x="267" y="-42.75" font-family="Helvetica,sans-Serif" font-size="10.00">TimeManager::isAlarm1Triggered</text>
</a>
</g>
</g>
<!-- Node1&#45;&gt;Node4 -->
<g id="edge3_Node000001_Node000004" class="edge">
<title>Node1&#45;&gt;Node4</title>
<g id="a_edge3_Node000001_Node000004"><a xlink:title=" ">
<path fill="none" stroke="#63b8ff" d="M150.62,-57.56C158.77,-56.79 167.12,-56 175.43,-55.21"/>
<polygon fill="#63b8ff" stroke="#63b8ff" points="175.58,-58.71 185.2,-54.28 174.91,-51.74 175.58,-58.71"/>
</a>
</g>
</g>
<!-- Node5 -->
<g id="Node000005" class="node">
<title>Node5</title>
<g id="a_Node000005"><a xlink:href="class_time_manager.html#a2f3285d092bf9e23abe1cdf0b592354e" target="_top" xlink:title=" ">
<polygon fill="white" stroke="#666666" points="347,-19.25 187,-19.25 187,0 347,0 347,-19.25"/>
<text xml:space="preserve" text-anchor="middle" x="267" y="-5.75" font-family="Helvetica,sans-Serif" font-size="10.00">TimeManager::isAlarm2Triggered</text>
</a>
</g>
</g>
<!-- Node1&#45;&gt;Node5 -->
<g id="edge4_Node000001_Node000005" class="edge">
<title>Node1&#45;&gt;Node5</title>
<g id="a_edge4_Node000001_Node000005"><a xlink:title=" ">
<path fill="none" stroke="#63b8ff" d="M103.49,-54.56C125.63,-46.63 157.7,-35.62 186.25,-27.62 192.89,-25.77 199.88,-23.96 206.84,-22.27"/>
<polygon fill="#63b8ff" stroke="#63b8ff" points="207.33,-25.75 216.25,-20.04 205.71,-18.94 207.33,-25.75"/>
</a>
</g>
</g>
</g>
</svg>
