<?xml version="1.0" encoding="UTF-8" standalone="no"?>
<!DOCTYPE svg PUBLIC "-//W3C//DTD SVG 1.1//EN"
 "http://www.w3.org/Graphics/SVG/1.1/DTD/svg11.dtd">
<!-- Generated by graphviz version 13.1.0 (20250701.0955)
 -->
<!-- Title: LoggerManager::getLogDirectoryPath Pages: 1 -->
<svg width="704pt" height="100pt"
 viewBox="0.00 0.00 704.00 100.00" xmlns="http://www.w3.org/2000/svg" xmlns:xlink="http://www.w3.org/1999/xlink">
<g id="graph0" class="graph" transform="scale(1 1) rotate(0) translate(4 95.88)">
<title>LoggerManager::getLogDirectoryPath</title>
<!-- Node1 -->
<g id="Node000001" class="node">
<title>Node1</title>
<g id="a_Node000001"><a xlink:title=" ">
<polygon fill="#999999" stroke="#666666" points="696.25,-56.25 518.25,-56.25 518.25,-37 696.25,-37 696.25,-56.25"/>
<text xml:space="preserve" text-anchor="middle" x="607.25" y="-42.75" font-family="Helvetica,sans-Serif" font-size="10.00">LoggerManager::getLogDirectoryPath</text>
</a>
</g>
</g>
<!-- Node2 -->
<g id="Node000002" class="node">
<title>Node2</title>
<g id="a_Node000002"><a xlink:href="class_config_manager.html#aa425fe77d9c00f404f1c02327263f516" target="_top" xlink:title="Get alarm events for a specific point within date range.">
<polygon fill="white" stroke="#666666" points="305,-91.88 147.25,-91.88 147.25,-61.38 305,-61.38 305,-91.88"/>
<text xml:space="preserve" text-anchor="start" x="155.25" y="-78.38" font-family="Helvetica,sans-Serif" font-size="10.00">ConfigManager::getAlarmEvents</text>
<text xml:space="preserve" text-anchor="middle" x="226.12" y="-67.12" font-family="Helvetica,sans-Serif" font-size="10.00">ForPoint</text>
</a>
</g>
</g>
<!-- Node1&#45;&gt;Node2 -->
<g id="edge1_Node000001_Node000002" class="edge">
<title>Node1&#45;&gt;Node2</title>
<g id="a_edge1_Node000001_Node000002"><a xlink:title=" ">
<path fill="none" stroke="#63b8ff" d="M537.71,-58.49C519.71,-61.23 500.29,-63.86 482.25,-65.62 423.13,-71.41 356,-74.15 305.44,-75.45"/>
<polygon fill="#63b8ff" stroke="#63b8ff" points="538.16,-61.96 547.5,-56.96 537.08,-55.05 538.16,-61.96"/>
</a>
</g>
</g>
<!-- Node3 -->
<g id="Node000003" class="node">
<title>Node3</title>
<g id="a_Node000003"><a xlink:href="class_logger_manager.html#acb4313c65e6a661229f2c3d662f1c059" target="_top" xlink:title=" ">
<polygon fill="white" stroke="#666666" points="478.88,-19.25 344.38,-19.25 344.38,0 478.88,0 478.88,-19.25"/>
<text xml:space="preserve" text-anchor="middle" x="411.62" y="-5.75" font-family="Helvetica,sans-Serif" font-size="10.00">LoggerManager::getFileInfo</text>
</a>
</g>
</g>
<!-- Node1&#45;&gt;Node3 -->
<g id="edge2_Node000001_Node000003" class="edge">
<title>Node1&#45;&gt;Node3</title>
<g id="a_edge2_Node000001_Node000003"><a xlink:title=" ">
<path fill="none" stroke="#63b8ff" d="M542.17,-34.38C517.3,-29.63 489.15,-24.25 465.47,-19.72"/>
<polygon fill="#63b8ff" stroke="#63b8ff" points="541.38,-37.79 551.85,-36.23 542.69,-30.92 541.38,-37.79"/>
</a>
</g>
</g>
<!-- Node6 -->
<g id="Node000006" class="node">
<title>Node6</title>
<g id="a_Node000006"><a xlink:href="class_logger_manager.html#a92719154d919a9bd45a8ea192e70dfcc" target="_top" xlink:title=" ">
<polygon fill="white" stroke="#666666" points="482.25,-56.25 341,-56.25 341,-37 482.25,-37 482.25,-56.25"/>
<text xml:space="preserve" text-anchor="middle" x="411.62" y="-42.75" font-family="Helvetica,sans-Serif" font-size="10.00">LoggerManager::openLogFile</text>
</a>
</g>
</g>
<!-- Node1&#45;&gt;Node6 -->
<g id="edge5_Node000001_Node000006" class="edge">
<title>Node1&#45;&gt;Node6</title>
<g id="a_edge5_Node000001_Node000006"><a xlink:title=" ">
<path fill="none" stroke="#63b8ff" d="M506.5,-46.62C498.41,-46.62 490.35,-46.62 482.54,-46.62"/>
<polygon fill="#63b8ff" stroke="#63b8ff" points="506.42,-50.13 516.42,-46.63 506.42,-43.13 506.42,-50.13"/>
</a>
</g>
</g>
<!-- Node4 -->
<g id="Node000004" class="node">
<title>Node4</title>
<g id="a_Node000004"><a xlink:href="class_config_manager.html#a3b28982c79587a287c8ddf0acf47f71d" target="_top" xlink:title="Setup file download API endpoints.">
<polygon fill="white" stroke="#666666" points="299,-35.25 153.25,-35.25 153.25,-16 299,-16 299,-35.25"/>
<text xml:space="preserve" text-anchor="middle" x="226.12" y="-21.75" font-family="Helvetica,sans-Serif" font-size="10.00">ConfigManager::downloadAPI</text>
</a>
</g>
</g>
<!-- Node3&#45;&gt;Node4 -->
<g id="edge3_Node000003_Node000004" class="edge">
<title>Node3&#45;&gt;Node4</title>
<g id="a_edge3_Node000003_Node000004"><a xlink:title=" ">
<path fill="none" stroke="#63b8ff" d="M332.7,-16.42C321.62,-17.39 310.26,-18.38 299.29,-19.33"/>
<polygon fill="#63b8ff" stroke="#63b8ff" points="332.95,-19.91 342.61,-15.56 332.34,-12.94 332.95,-19.91"/>
</a>
</g>
</g>
<!-- Node5 -->
<g id="Node000005" class="node">
<title>Node5</title>
<g id="a_Node000005"><a xlink:href="class_config_manager.html#a0497343220fc493f5cf9574922508908" target="_top" xlink:title="Initialize the configuration system.">
<polygon fill="white" stroke="#666666" points="111.25,-35.25 0,-35.25 0,-16 111.25,-16 111.25,-35.25"/>
<text xml:space="preserve" text-anchor="middle" x="55.62" y="-21.75" font-family="Helvetica,sans-Serif" font-size="10.00">ConfigManager::begin</text>
</a>
</g>
</g>
<!-- Node4&#45;&gt;Node5 -->
<g id="edge4_Node000004_Node000005" class="edge">
<title>Node4&#45;&gt;Node5</title>
<g id="a_edge4_Node000004_Node000005"><a xlink:title=" ">
<path fill="none" stroke="#63b8ff" d="M141.99,-25.62C131.64,-25.62 121.28,-25.62 111.51,-25.62"/>
<polygon fill="#63b8ff" stroke="#63b8ff" points="141.66,-29.13 151.66,-25.63 141.66,-22.13 141.66,-29.13"/>
</a>
</g>
</g>
<!-- Node6&#45;&gt;Node2 -->
<g id="edge7_Node000006_Node000002" class="edge">
<title>Node6&#45;&gt;Node2</title>
<g id="a_edge7_Node000006_Node000002"><a xlink:title=" ">
<path fill="none" stroke="#63b8ff" d="M337.46,-58.59C326.89,-60.31 315.98,-62.1 305.32,-63.84"/>
<polygon fill="#63b8ff" stroke="#63b8ff" points="337.96,-62.05 347.26,-56.98 336.83,-55.14 337.96,-62.05"/>
</a>
</g>
</g>
<!-- Node6&#45;&gt;Node4 -->
<g id="edge6_Node000006_Node000004" class="edge">
<title>Node6&#45;&gt;Node4</title>
<g id="a_edge6_Node000006_Node000004"><a xlink:title=" ">
<path fill="none" stroke="#63b8ff" d="M329.47,-37.34C319.41,-36.19 309.18,-35.02 299.26,-33.88"/>
<polygon fill="#63b8ff" stroke="#63b8ff" points="328.89,-40.79 339.22,-38.45 329.69,-33.84 328.89,-40.79"/>
</a>
</g>
</g>
</g>
</svg>
