<?xml version="1.0" encoding="UTF-8" standalone="no"?>
<!DOCTYPE svg PUBLIC "-//W3C//DTD SVG 1.1//EN"
 "http://www.w3.org/Graphics/SVG/1.1/DTD/svg11.dtd">
<!-- Generated by graphviz version 13.1.0 (20250701.0955)
 -->
<!-- Title: LoggerManager::logEvent Pages: 1 -->
<svg width="462pt" height="138pt"
 viewBox="0.00 0.00 462.00 138.00" xmlns="http://www.w3.org/2000/svg" xmlns:xlink="http://www.w3.org/1999/xlink">
<g id="graph0" class="graph" transform="scale(1 1) rotate(0) translate(4 134.25)">
<title>LoggerManager::logEvent</title>
<!-- Node1 -->
<g id="Node000001" class="node">
<title>Node1</title>
<g id="a_Node000001"><a xlink:title=" ">
<polygon fill="#999999" stroke="#666666" points="453.75,-74.25 326.75,-74.25 326.75,-55 453.75,-55 453.75,-74.25"/>
<text xml:space="preserve" text-anchor="middle" x="390.25" y="-60.75" font-family="Helvetica,sans-Serif" font-size="10.00">LoggerManager::logEvent</text>
</a>
</g>
</g>
<!-- Node2 -->
<g id="Node000002" class="node">
<title>Node2</title>
<g id="a_Node000002"><a xlink:href="class_logger_manager.html#a5bda848c9bd87201bf6addd035c493b1" target="_top" xlink:title=" ">
<polygon fill="white" stroke="#666666" points="288.5,-130.25 156.25,-130.25 156.25,-111 288.5,-111 288.5,-130.25"/>
<text xml:space="preserve" text-anchor="middle" x="222.38" y="-116.75" font-family="Helvetica,sans-Serif" font-size="10.00">LoggerManager::logCritical</text>
</a>
</g>
</g>
<!-- Node1&#45;&gt;Node2 -->
<g id="edge1_Node000001_Node000002" class="edge">
<title>Node1&#45;&gt;Node2</title>
<g id="a_edge1_Node000001_Node000002"><a xlink:title=" ">
<path fill="none" stroke="#63b8ff" d="M354.8,-78.96C336.04,-86.5 312.31,-95.61 290.75,-102.62 282.12,-105.44 272.76,-108.14 263.84,-110.57"/>
<polygon fill="#63b8ff" stroke="#63b8ff" points="355.87,-82.3 363.82,-75.3 353.24,-75.81 355.87,-82.3"/>
</a>
</g>
</g>
<!-- Node3 -->
<g id="Node000003" class="node">
<title>Node3</title>
<g id="a_Node000003"><a xlink:href="class_logger_manager.html#a181e69ea6fe3c7e07e708eada2cc8024" target="_top" xlink:title=" ">
<polygon fill="white" stroke="#666666" points="283.62,-93.25 161.12,-93.25 161.12,-74 283.62,-74 283.62,-93.25"/>
<text xml:space="preserve" text-anchor="middle" x="222.38" y="-79.75" font-family="Helvetica,sans-Serif" font-size="10.00">LoggerManager::logError</text>
</a>
</g>
</g>
<!-- Node1&#45;&gt;Node3 -->
<g id="edge2_Node000001_Node000003" class="edge">
<title>Node1&#45;&gt;Node3</title>
<g id="a_edge2_Node000001_Node000003"><a xlink:title=" ">
<path fill="none" stroke="#63b8ff" d="M315.29,-73.1C304.82,-74.3 294.16,-75.52 283.98,-76.68"/>
<polygon fill="#63b8ff" stroke="#63b8ff" points="315.5,-76.6 325.04,-71.98 314.7,-69.64 315.5,-76.6"/>
</a>
</g>
</g>
<!-- Node4 -->
<g id="Node000004" class="node">
<title>Node4</title>
<g id="a_Node000004"><a xlink:href="class_logger_manager.html#a2503703714729cc95171579fe4ce0d4c" target="_top" xlink:title=" ">
<polygon fill="white" stroke="#666666" points="281.38,-56.25 163.38,-56.25 163.38,-37 281.38,-37 281.38,-56.25"/>
<text xml:space="preserve" text-anchor="middle" x="222.38" y="-42.75" font-family="Helvetica,sans-Serif" font-size="10.00">LoggerManager::logInfo</text>
</a>
</g>
</g>
<!-- Node1&#45;&gt;Node4 -->
<g id="edge3_Node000001_Node000004" class="edge">
<title>Node1&#45;&gt;Node4</title>
<g id="a_edge3_Node000001_Node000004"><a xlink:title=" ">
<path fill="none" stroke="#63b8ff" d="M315.39,-56.61C304.14,-55.39 292.66,-54.14 281.8,-52.96"/>
<polygon fill="#63b8ff" stroke="#63b8ff" points="314.72,-60.06 325.04,-57.66 315.47,-53.1 314.72,-60.06"/>
</a>
</g>
</g>
<!-- Node8 -->
<g id="Node000008" class="node">
<title>Node8</title>
<g id="a_Node000008"><a xlink:href="class_logger_manager.html#a5768a8a1983298c5b94e23dabe18f3bb" target="_top" xlink:title=" ">
<polygon fill="white" stroke="#666666" points="290.75,-19.25 154,-19.25 154,0 290.75,0 290.75,-19.25"/>
<text xml:space="preserve" text-anchor="middle" x="222.38" y="-5.75" font-family="Helvetica,sans-Serif" font-size="10.00">LoggerManager::logWarning</text>
</a>
</g>
</g>
<!-- Node1&#45;&gt;Node8 -->
<g id="edge7_Node000001_Node000008" class="edge">
<title>Node1&#45;&gt;Node8</title>
<g id="a_edge7_Node000001_Node000008"><a xlink:title=" ">
<path fill="none" stroke="#63b8ff" d="M353.74,-50.32C335.14,-43.07 311.88,-34.4 290.75,-27.62 282.1,-24.85 272.74,-22.16 263.82,-19.74"/>
<polygon fill="#63b8ff" stroke="#63b8ff" points="352.39,-53.55 362.98,-53.96 354.95,-47.04 352.39,-53.55"/>
</a>
</g>
</g>
<!-- Node5 -->
<g id="Node000005" class="node">
<title>Node5</title>
<g id="a_Node000005"><a xlink:href="class_logger_manager.html#a4acf0149820d73f4ed11340f63706841" target="_top" xlink:title="Begin logging operations.">
<polygon fill="white" stroke="#666666" points="115,-93.25 3,-93.25 3,-74 115,-74 115,-93.25"/>
<text xml:space="preserve" text-anchor="middle" x="59" y="-79.75" font-family="Helvetica,sans-Serif" font-size="10.00">LoggerManager::begin</text>
</a>
</g>
</g>
<!-- Node4&#45;&gt;Node5 -->
<g id="edge4_Node000004_Node000005" class="edge">
<title>Node4&#45;&gt;Node5</title>
<g id="a_edge4_Node000004_Node000005"><a xlink:title=" ">
<path fill="none" stroke="#63b8ff" d="M166.28,-59.26C145.97,-63.91 123.25,-69.12 104.04,-73.53"/>
<polygon fill="#63b8ff" stroke="#63b8ff" points="166.84,-62.72 175.8,-57.07 165.27,-55.9 166.84,-62.72"/>
</a>
</g>
</g>
<!-- Node6 -->
<g id="Node000006" class="node">
<title>Node6</title>
<g id="a_Node000006"><a xlink:href="class_logger_manager.html#a59e0690d922ec968bf64b1b5dda8fcbe" target="_top" xlink:title="Initialize the logging system.">
<polygon fill="white" stroke="#666666" points="109.75,-56.25 8.25,-56.25 8.25,-37 109.75,-37 109.75,-56.25"/>
<text xml:space="preserve" text-anchor="middle" x="59" y="-42.75" font-family="Helvetica,sans-Serif" font-size="10.00">LoggerManager::init</text>
</a>
</g>
</g>
<!-- Node4&#45;&gt;Node6 -->
<g id="edge5_Node000004_Node000006" class="edge">
<title>Node4&#45;&gt;Node6</title>
<g id="a_edge5_Node000004_Node000006"><a xlink:title=" ">
<path fill="none" stroke="#63b8ff" d="M151.98,-46.62C137.93,-46.62 123.41,-46.62 110.18,-46.62"/>
<polygon fill="#63b8ff" stroke="#63b8ff" points="151.6,-50.13 161.6,-46.63 151.6,-43.13 151.6,-50.13"/>
</a>
</g>
</g>
<!-- Node7 -->
<g id="Node000007" class="node">
<title>Node7</title>
<g id="a_Node000007"><a xlink:href="class_logger_manager.html#a830c86f1f27d3799eab1de908fc6b647" target="_top" xlink:title=" ">
<polygon fill="white" stroke="#666666" points="118,-19.25 0,-19.25 0,0 118,0 118,-19.25"/>
<text xml:space="preserve" text-anchor="middle" x="59" y="-5.75" font-family="Helvetica,sans-Serif" font-size="10.00">LoggerManager::update</text>
</a>
</g>
</g>
<!-- Node4&#45;&gt;Node7 -->
<g id="edge6_Node000004_Node000007" class="edge">
<title>Node4&#45;&gt;Node7</title>
<g id="a_edge6_Node000004_Node000007"><a xlink:title=" ">
<path fill="none" stroke="#63b8ff" d="M166.28,-33.99C145.97,-29.34 123.25,-24.13 104.04,-19.72"/>
<polygon fill="#63b8ff" stroke="#63b8ff" points="165.27,-37.35 175.8,-36.18 166.84,-30.53 165.27,-37.35"/>
</a>
</g>
</g>
<!-- Node8&#45;&gt;Node7 -->
<g id="edge8_Node000008_Node000007" class="edge">
<title>Node8&#45;&gt;Node7</title>
<g id="a_edge8_Node000008_Node000007"><a xlink:title=" ">
<path fill="none" stroke="#63b8ff" d="M142.42,-9.62C134.28,-9.62 126.12,-9.62 118.26,-9.62"/>
<polygon fill="#63b8ff" stroke="#63b8ff" points="142.36,-13.13 152.36,-9.63 142.36,-6.13 142.36,-13.13"/>
</a>
</g>
</g>
</g>
</svg>
