<?xml version="1.0" encoding="UTF-8" standalone="no"?>
<!DOCTYPE svg PUBLIC "-//W3C//DTD SVG 1.1//EN"
 "http://www.w3.org/Graphics/SVG/1.1/DTD/svg11.dtd">
<!-- Generated by graphviz version 13.1.0 (20250701.0955)
 -->
<!-- Title: LoggerManager::getLogDirectoryPath Pages: 1 -->
<svg width="692pt" height="64pt"
 viewBox="0.00 0.00 692.00 64.00" xmlns="http://www.w3.org/2000/svg" xmlns:xlink="http://www.w3.org/1999/xlink">
<g id="graph0" class="graph" transform="scale(1 1) rotate(0) translate(4 60.25)">
<title>LoggerManager::getLogDirectoryPath</title>
<!-- Node1 -->
<g id="Node000001" class="node">
<title>Node1</title>
<g id="a_Node000001"><a xlink:title=" ">
<polygon fill="#999999" stroke="#666666" points="684.25,-37.25 506.25,-37.25 506.25,-18 684.25,-18 684.25,-37.25"/>
<text xml:space="preserve" text-anchor="middle" x="595.25" y="-23.75" font-family="Helvetica,sans-Serif" font-size="10.00">LoggerManager::getLogDirectoryPath</text>
</a>
</g>
</g>
<!-- Node2 -->
<g id="Node000002" class="node">
<title>Node2</title>
<g id="a_Node000002"><a xlink:href="$class_logger_manager.html#acb4313c65e6a661229f2c3d662f1c059" xlink:title=" ">
<polygon fill="white" stroke="#666666" points="466.88,-56.25 332.38,-56.25 332.38,-37 466.88,-37 466.88,-56.25"/>
<text xml:space="preserve" text-anchor="middle" x="399.62" y="-42.75" font-family="Helvetica,sans-Serif" font-size="10.00">LoggerManager::getFileInfo</text>
</a>
</g>
</g>
<!-- Node1&#45;&gt;Node2 -->
<g id="edge1_Node000001_Node000002" class="edge">
<title>Node1&#45;&gt;Node2</title>
<g id="a_edge1_Node000001_Node000002"><a xlink:title=" ">
<path fill="none" stroke="#63b8ff" d="M494.66,-37.4C485.42,-38.3 476.2,-39.21 467.36,-40.08"/>
<polygon fill="#63b8ff" stroke="#63b8ff" points="494.82,-40.9 504.43,-36.44 494.14,-33.93 494.82,-40.9"/>
</a>
</g>
</g>
<!-- Node5 -->
<g id="Node000005" class="node">
<title>Node5</title>
<g id="a_Node000005"><a xlink:href="$class_logger_manager.html#a92719154d919a9bd45a8ea192e70dfcc" xlink:title=" ">
<polygon fill="white" stroke="#666666" points="470.25,-19.25 329,-19.25 329,0 470.25,0 470.25,-19.25"/>
<text xml:space="preserve" text-anchor="middle" x="399.62" y="-5.75" font-family="Helvetica,sans-Serif" font-size="10.00">LoggerManager::openLogFile</text>
</a>
</g>
</g>
<!-- Node1&#45;&gt;Node5 -->
<g id="edge4_Node000001_Node000005" class="edge">
<title>Node1&#45;&gt;Node5</title>
<g id="a_edge4_Node000001_Node000005"><a xlink:title=" ">
<path fill="none" stroke="#63b8ff" d="M494.5,-18.35C486.41,-17.6 478.35,-16.85 470.54,-16.12"/>
<polygon fill="#63b8ff" stroke="#63b8ff" points="494.15,-21.83 504.43,-19.27 494.8,-14.86 494.15,-21.83"/>
</a>
</g>
</g>
<!-- Node3 -->
<g id="Node000003" class="node">
<title>Node3</title>
<g id="a_Node000003"><a xlink:href="$class_config_manager.html#a3b28982c79587a287c8ddf0acf47f71d" xlink:title="Setup file download API endpoints.">
<polygon fill="white" stroke="#666666" points="293,-37.25 147.25,-37.25 147.25,-18 293,-18 293,-37.25"/>
<text xml:space="preserve" text-anchor="middle" x="220.12" y="-23.75" font-family="Helvetica,sans-Serif" font-size="10.00">ConfigManager::downloadAPI</text>
</a>
</g>
</g>
<!-- Node2&#45;&gt;Node3 -->
<g id="edge2_Node000002_Node000003" class="edge">
<title>Node2&#45;&gt;Node3</title>
<g id="a_edge2_Node000002_Node000003"><a xlink:title=" ">
<path fill="none" stroke="#63b8ff" d="M320.67,-38.28C311.62,-37.31 302.42,-36.33 293.45,-35.37"/>
<polygon fill="#63b8ff" stroke="#63b8ff" points="320.2,-41.75 330.52,-39.33 320.95,-34.79 320.2,-41.75"/>
</a>
</g>
</g>
<!-- Node4 -->
<g id="Node000004" class="node">
<title>Node4</title>
<g id="a_Node000004"><a xlink:href="$class_config_manager.html#a0497343220fc493f5cf9574922508908" xlink:title="Initialize the configuration system.">
<polygon fill="white" stroke="#666666" points="111.25,-37.25 0,-37.25 0,-18 111.25,-18 111.25,-37.25"/>
<text xml:space="preserve" text-anchor="middle" x="55.62" y="-23.75" font-family="Helvetica,sans-Serif" font-size="10.00">ConfigManager::begin</text>
</a>
</g>
</g>
<!-- Node3&#45;&gt;Node4 -->
<g id="edge3_Node000003_Node000004" class="edge">
<title>Node3&#45;&gt;Node4</title>
<g id="a_edge3_Node000003_Node000004"><a xlink:title=" ">
<path fill="none" stroke="#63b8ff" d="M135.45,-27.62C127.35,-27.62 119.27,-27.62 111.55,-27.62"/>
<polygon fill="#63b8ff" stroke="#63b8ff" points="135.39,-31.13 145.39,-27.63 135.39,-24.13 135.39,-31.13"/>
</a>
</g>
</g>
<!-- Node5&#45;&gt;Node3 -->
<g id="edge5_Node000005_Node000003" class="edge">
<title>Node5&#45;&gt;Node3</title>
<g id="a_edge5_Node000005_Node000003"><a xlink:title=" ">
<path fill="none" stroke="#63b8ff" d="M317.43,-17.86C309.38,-18.68 301.24,-19.5 293.29,-20.31"/>
<polygon fill="#63b8ff" stroke="#63b8ff" points="317.63,-21.36 327.22,-16.87 316.92,-14.39 317.63,-21.36"/>
</a>
</g>
</g>
</g>
</svg>
