<?xml version="1.0" encoding="UTF-8" standalone="no"?>
<!DOCTYPE svg PUBLIC "-//W3C//DTD SVG 1.1//EN"
 "http://www.w3.org/Graphics/SVG/1.1/DTD/svg11.dtd">
<!-- Generated by graphviz version 13.1.0 (20250701.0955)
 -->
<!-- Title: MeasurementPoint::bindSensor Pages: 1 -->
<svg width="364pt" height="137pt"
 viewBox="0.00 0.00 364.00 137.00" xmlns="http://www.w3.org/2000/svg" xmlns:xlink="http://www.w3.org/1999/xlink">
<g id="graph0" class="graph" transform="scale(1 1) rotate(0) translate(4 132.5)">
<title>MeasurementPoint::bindSensor</title>
<!-- Node1 -->
<g id="Node000001" class="node">
<title>Node1</title>
<g id="a_Node000001"><a xlink:title=" ">
<polygon fill="#999999" stroke="#666666" points="356,-73.88 203.5,-73.88 203.5,-54.62 356,-54.62 356,-73.88"/>
<text xml:space="preserve" text-anchor="middle" x="279.75" y="-60.38" font-family="Helvetica,sans-Serif" font-size="10.00">MeasurementPoint::bindSensor</text>
</a>
</g>
</g>
<!-- Node2 -->
<g id="Node000002" class="node">
<title>Node2</title>
<g id="a_Node000002"><a xlink:href="class_temperature_controller.html#af4ab2c7b7a3934ab7837603a420b1ae2" target="_top" xlink:title=" ">
<polygon fill="white" stroke="#666666" points="167.5,-128.5 0,-128.5 0,-98 167.5,-98 167.5,-128.5"/>
<text xml:space="preserve" text-anchor="start" x="8" y="-115" font-family="Helvetica,sans-Serif" font-size="10.00">TemperatureController</text>
<text xml:space="preserve" text-anchor="middle" x="83.75" y="-103.75" font-family="Helvetica,sans-Serif" font-size="10.00">::bindSensorToPointByBusNumber</text>
</a>
</g>
</g>
<!-- Node1&#45;&gt;Node2 -->
<g id="edge1_Node000001_Node000002" class="edge">
<title>Node1&#45;&gt;Node2</title>
<g id="a_edge1_Node000001_Node000002"><a xlink:title=" ">
<path fill="none" stroke="#63b8ff" d="M228.03,-77.06C203.22,-83.33 173.14,-90.92 146.96,-97.54"/>
<polygon fill="#63b8ff" stroke="#63b8ff" points="228.72,-80.5 237.56,-74.65 227,-73.71 228.72,-80.5"/>
</a>
</g>
</g>
<!-- Node3 -->
<g id="Node000003" class="node">
<title>Node3</title>
<g id="a_Node000003"><a xlink:href="class_temperature_controller.html#a84937fc1aed30193b817f3b062ce0cfc" target="_top" xlink:title=" ">
<polygon fill="white" stroke="#666666" points="165.62,-79.5 1.88,-79.5 1.88,-49 165.62,-49 165.62,-79.5"/>
<text xml:space="preserve" text-anchor="start" x="9.88" y="-66" font-family="Helvetica,sans-Serif" font-size="10.00">TemperatureController</text>
<text xml:space="preserve" text-anchor="middle" x="83.75" y="-54.75" font-family="Helvetica,sans-Serif" font-size="10.00">::bindSensorToPointByChipSelect</text>
</a>
</g>
</g>
<!-- Node1&#45;&gt;Node3 -->
<g id="edge2_Node000001_Node000003" class="edge">
<title>Node1&#45;&gt;Node3</title>
<g id="a_edge2_Node000001_Node000003"><a xlink:title=" ">
<path fill="none" stroke="#63b8ff" d="M191.9,-64.25C183.24,-64.25 174.47,-64.25 165.88,-64.25"/>
<polygon fill="#63b8ff" stroke="#63b8ff" points="191.68,-67.75 201.68,-64.25 191.68,-60.75 191.68,-67.75"/>
</a>
</g>
</g>
<!-- Node4 -->
<g id="Node000004" class="node">
<title>Node4</title>
<g id="a_Node000004"><a xlink:href="class_temperature_controller.html#a5d8f7c51bb176435a5035293a2db78f7" target="_top" xlink:title=" ">
<polygon fill="white" stroke="#666666" points="152.12,-30.5 15.38,-30.5 15.38,0 152.12,0 152.12,-30.5"/>
<text xml:space="preserve" text-anchor="start" x="23.38" y="-17" font-family="Helvetica,sans-Serif" font-size="10.00">TemperatureController</text>
<text xml:space="preserve" text-anchor="middle" x="83.75" y="-5.75" font-family="Helvetica,sans-Serif" font-size="10.00">::bindSensorToPointByRom</text>
</a>
</g>
</g>
<!-- Node1&#45;&gt;Node4 -->
<g id="edge3_Node000001_Node000004" class="edge">
<title>Node1&#45;&gt;Node4</title>
<g id="a_edge3_Node000001_Node000004"><a xlink:title=" ">
<path fill="none" stroke="#63b8ff" d="M228.03,-51.44C203.22,-45.17 173.14,-37.58 146.96,-30.96"/>
<polygon fill="#63b8ff" stroke="#63b8ff" points="227,-54.79 237.56,-53.85 228.72,-48 227,-54.79"/>
</a>
</g>
</g>
</g>
</svg>
