<?xml version="1.0" encoding="UTF-8" standalone="no"?>
<!DOCTYPE svg PUBLIC "-//W3C//DTD SVG 1.1//EN"
 "http://www.w3.org/Graphics/SVG/1.1/DTD/svg11.dtd">
<!-- Generated by graphviz version 13.1.0 (20250701.0955)
 -->
<!-- Title: Alarm::getPriority Pages: 1 -->
<svg width="617pt" height="125pt"
 viewBox="0.00 0.00 617.00 125.00" xmlns="http://www.w3.org/2000/svg" xmlns:xlink="http://www.w3.org/1999/xlink">
<g id="graph0" class="graph" transform="scale(1 1) rotate(0) translate(4 120.5)">
<title>Alarm::getPriority</title>
<!-- Node1 -->
<g id="Node000001" class="node">
<title>Node1</title>
<g id="a_Node000001"><a xlink:title="Get the alarm priority.">
<polygon fill="#999999" stroke="#666666" points="609.25,-67.88 517.5,-67.88 517.5,-48.62 609.25,-48.62 609.25,-67.88"/>
<text xml:space="preserve" text-anchor="middle" x="563.38" y="-54.38" font-family="Helvetica,sans-Serif" font-size="10.00">Alarm::getPriority</text>
</a>
</g>
</g>
<!-- Node2 -->
<g id="Node000002" class="node">
<title>Node2</title>
<g id="a_Node000002"><a xlink:href="class_c_s_v_config_manager.html#aa43c8405582f387b0330cc1e965f5117" target="_top" xlink:title="Get alarm priority for specific point and alarm type.">
<polygon fill="white" stroke="#666666" points="475.5,-116.5 347.75,-116.5 347.75,-86 475.5,-86 475.5,-116.5"/>
<text xml:space="preserve" text-anchor="start" x="355.75" y="-103" font-family="Helvetica,sans-Serif" font-size="10.00">CSVConfigManager::</text>
<text xml:space="preserve" text-anchor="middle" x="411.62" y="-91.75" font-family="Helvetica,sans-Serif" font-size="10.00">_getAlarmPriorityForPoint</text>
</a>
</g>
</g>
<!-- Node1&#45;&gt;Node2 -->
<g id="edge1_Node000001_Node000002" class="edge">
<title>Node1&#45;&gt;Node2</title>
<g id="a_edge1_Node000001_Node000002"><a xlink:title=" ">
<path fill="none" stroke="#63b8ff" d="M516.39,-71.45C500.93,-75.89 483.52,-80.89 467.44,-85.51"/>
<polygon fill="#63b8ff" stroke="#63b8ff" points="517.16,-74.87 525.81,-68.75 515.23,-68.15 517.16,-74.87"/>
</a>
</g>
</g>
<!-- Node5 -->
<g id="Node000005" class="node">
<title>Node5</title>
<g id="a_Node000005"><a xlink:href="struct_alarm_comparator.html#a9e59c2531a3bd641d0b3d0cc10bffe54" target="_top" xlink:title="Comparison operator for alarm sorting.">
<polygon fill="white" stroke="#666666" points="481.5,-67.88 341.75,-67.88 341.75,-48.62 481.5,-48.62 481.5,-67.88"/>
<text xml:space="preserve" text-anchor="middle" x="411.62" y="-54.38" font-family="Helvetica,sans-Serif" font-size="10.00">AlarmComparator::operator()</text>
</a>
</g>
</g>
<!-- Node1&#45;&gt;Node5 -->
<g id="edge4_Node000001_Node000005" class="edge">
<title>Node1&#45;&gt;Node5</title>
<g id="a_edge4_Node000001_Node000005"><a xlink:title=" ">
<path fill="none" stroke="#63b8ff" d="M505.54,-58.25C497.8,-58.25 489.78,-58.25 481.85,-58.25"/>
<polygon fill="#63b8ff" stroke="#63b8ff" points="505.53,-61.75 515.53,-58.25 505.53,-54.75 505.53,-61.75"/>
</a>
</g>
</g>
<!-- Node6 -->
<g id="Node000006" class="node">
<title>Node6</title>
<g id="a_Node000006"><a xlink:href="class_config_manager.html#aa15fcaf6330fd73a87e8c6f63e8ab9d5" target="_top" xlink:title="Save alarms configuration to file.">
<polygon fill="white" stroke="#666666" points="481.5,-30.5 341.75,-30.5 341.75,0 481.5,0 481.5,-30.5"/>
<text xml:space="preserve" text-anchor="start" x="349.75" y="-17" font-family="Helvetica,sans-Serif" font-size="10.00">ConfigManager::saveAlarms</text>
<text xml:space="preserve" text-anchor="middle" x="411.62" y="-5.75" font-family="Helvetica,sans-Serif" font-size="10.00">Config</text>
</a>
</g>
</g>
<!-- Node1&#45;&gt;Node6 -->
<g id="edge5_Node000001_Node000006" class="edge">
<title>Node1&#45;&gt;Node6</title>
<g id="a_edge5_Node000001_Node000006"><a xlink:title=" ">
<path fill="none" stroke="#63b8ff" d="M516.39,-45.05C500.93,-40.61 483.52,-35.61 467.44,-30.99"/>
<polygon fill="#63b8ff" stroke="#63b8ff" points="515.23,-48.35 525.81,-47.75 517.16,-41.63 515.23,-48.35"/>
</a>
</g>
</g>
<!-- Node3 -->
<g id="Node000003" class="node">
<title>Node3</title>
<g id="a_Node000003"><a xlink:href="class_c_s_v_config_manager.html#a2c2673398051c26184c9197aa751a6b3" target="_top" xlink:title="Export single measurement point to CSV format.">
<polygon fill="white" stroke="#666666" points="293.38,-116.5 184.38,-116.5 184.38,-86 293.38,-86 293.38,-116.5"/>
<text xml:space="preserve" text-anchor="start" x="192.38" y="-103" font-family="Helvetica,sans-Serif" font-size="10.00">CSVConfigManager::</text>
<text xml:space="preserve" text-anchor="middle" x="238.88" y="-91.75" font-family="Helvetica,sans-Serif" font-size="10.00">_exportPointToCSV</text>
</a>
</g>
</g>
<!-- Node2&#45;&gt;Node3 -->
<g id="edge2_Node000002_Node000003" class="edge">
<title>Node2&#45;&gt;Node3</title>
<g id="a_edge2_Node000002_Node000003"><a xlink:title=" ">
<path fill="none" stroke="#63b8ff" d="M336.2,-101.25C321.91,-101.25 307.22,-101.25 293.74,-101.25"/>
<polygon fill="#63b8ff" stroke="#63b8ff" points="336.02,-104.75 346.02,-101.25 336.02,-97.75 336.02,-104.75"/>
</a>
</g>
</g>
<!-- Node4 -->
<g id="Node000004" class="node">
<title>Node4</title>
<g id="a_Node000004"><a xlink:href="class_c_s_v_config_manager.html#a1c6cbc4c8a132762bf16a8ce9f7d0bfc" target="_top" xlink:title="Export measurement points with alarm configuration to CSV.">
<polygon fill="white" stroke="#666666" points="136,-116.5 0,-116.5 0,-86 136,-86 136,-116.5"/>
<text xml:space="preserve" text-anchor="start" x="8" y="-103" font-family="Helvetica,sans-Serif" font-size="10.00">CSVConfigManager::export</text>
<text xml:space="preserve" text-anchor="middle" x="68" y="-91.75" font-family="Helvetica,sans-Serif" font-size="10.00">PointsWithAlarmsToCSV</text>
</a>
</g>
</g>
<!-- Node3&#45;&gt;Node4 -->
<g id="edge3_Node000003_Node000004" class="edge">
<title>Node3&#45;&gt;Node4</title>
<g id="a_edge3_Node000003_Node000004"><a xlink:title=" ">
<path fill="none" stroke="#63b8ff" d="M172.73,-101.25C160.8,-101.25 148.32,-101.25 136.32,-101.25"/>
<polygon fill="#63b8ff" stroke="#63b8ff" points="172.46,-104.75 182.46,-101.25 172.46,-97.75 172.46,-104.75"/>
</a>
</g>
</g>
<!-- Node7 -->
<g id="Node000007" class="node">
<title>Node7</title>
<g id="a_Node000007"><a xlink:href="class_config_manager.html#ae605c999fabc6344511f455618655326" target="_top" xlink:title="Setup alarms API endpoints.">
<polygon fill="white" stroke="#666666" points="305.75,-67.88 172,-67.88 172,-48.62 305.75,-48.62 305.75,-67.88"/>
<text xml:space="preserve" text-anchor="middle" x="238.88" y="-54.38" font-family="Helvetica,sans-Serif" font-size="10.00">ConfigManager::alarmsAPI</text>
</a>
</g>
</g>
<!-- Node6&#45;&gt;Node7 -->
<g id="edge6_Node000006_Node000007" class="edge">
<title>Node6&#45;&gt;Node7</title>
<g id="a_edge6_Node000006_Node000007"><a xlink:title=" ">
<path fill="none" stroke="#63b8ff" d="M337.35,-33.7C317.63,-38.67 297.04,-43.85 279.89,-48.17"/>
<polygon fill="#63b8ff" stroke="#63b8ff" points="338.19,-37.1 347.03,-31.27 336.48,-30.31 338.19,-37.1"/>
</a>
</g>
</g>
<!-- Node9 -->
<g id="Node000009" class="node">
<title>Node9</title>
<g id="a_Node000009"><a xlink:href="class_config_manager.html#a9b7af07b85bf9cc3ac05603db6e89fd2" target="_top" xlink:title="Setup CSV import/export API endpoints.">
<polygon fill="white" stroke="#666666" points="304.62,-30.5 173.12,-30.5 173.12,0 304.62,0 304.62,-30.5"/>
<text xml:space="preserve" text-anchor="start" x="181.12" y="-17" font-family="Helvetica,sans-Serif" font-size="10.00">ConfigManager::csvImport</text>
<text xml:space="preserve" text-anchor="middle" x="238.88" y="-5.75" font-family="Helvetica,sans-Serif" font-size="10.00">ExportAPI</text>
</a>
</g>
</g>
<!-- Node6&#45;&gt;Node9 -->
<g id="edge8_Node000006_Node000009" class="edge">
<title>Node6&#45;&gt;Node9</title>
<g id="a_edge8_Node000006_Node000009"><a xlink:title=" ">
<path fill="none" stroke="#63b8ff" d="M330.2,-15.25C321.73,-15.25 313.2,-15.25 304.94,-15.25"/>
<polygon fill="#63b8ff" stroke="#63b8ff" points="330.15,-18.75 340.15,-15.25 330.15,-11.75 330.15,-18.75"/>
</a>
</g>
</g>
<!-- Node8 -->
<g id="Node000008" class="node">
<title>Node8</title>
<g id="a_Node000008"><a xlink:href="class_config_manager.html#a0497343220fc493f5cf9574922508908" target="_top" xlink:title="Initialize the configuration system.">
<polygon fill="white" stroke="#666666" points="123.62,-46.88 12.38,-46.88 12.38,-27.62 123.62,-27.62 123.62,-46.88"/>
<text xml:space="preserve" text-anchor="middle" x="68" y="-33.38" font-family="Helvetica,sans-Serif" font-size="10.00">ConfigManager::begin</text>
</a>
</g>
</g>
<!-- Node7&#45;&gt;Node8 -->
<g id="edge7_Node000007_Node000008" class="edge">
<title>Node7&#45;&gt;Node8</title>
<g id="a_edge7_Node000007_Node000008"><a xlink:title=" ">
<path fill="none" stroke="#63b8ff" d="M160.39,-48.61C148.07,-47.08 135.55,-45.53 123.9,-44.08"/>
<polygon fill="#63b8ff" stroke="#63b8ff" points="159.76,-52.06 170.11,-49.82 160.62,-45.12 159.76,-52.06"/>
</a>
</g>
</g>
<!-- Node9&#45;&gt;Node8 -->
<g id="edge9_Node000009_Node000008" class="edge">
<title>Node9&#45;&gt;Node8</title>
<g id="a_edge9_Node000009_Node000008"><a xlink:title=" ">
<path fill="none" stroke="#63b8ff" d="M161.94,-25.14C149.17,-26.81 136.13,-28.5 124.02,-30.08"/>
<polygon fill="#63b8ff" stroke="#63b8ff" points="162.1,-28.65 171.57,-23.89 161.2,-21.71 162.1,-28.65"/>
</a>
</g>
</g>
</g>
</svg>
