<?xml version="1.0" encoding="UTF-8" standalone="no"?>
<!DOCTYPE svg PUBLIC "-//W3C//DTD SVG 1.1//EN"
 "http://www.w3.org/Graphics/SVG/1.1/DTD/svg11.dtd">
<!-- Generated by graphviz version 13.1.0 (20250701.0955)
 -->
<!-- Title: Alarm::reactivate Pages: 1 -->
<svg width="406pt" height="101pt"
 viewBox="0.00 0.00 406.00 101.00" xmlns="http://www.w3.org/2000/svg" xmlns:xlink="http://www.w3.org/1999/xlink">
<g id="graph0" class="graph" transform="scale(1 1) rotate(0) translate(4 97.25)">
<title>Alarm::reactivate</title>
<!-- Node1 -->
<g id="Node000001" class="node">
<title>Node1</title>
<g id="a_Node000001"><a xlink:title="Reactivate a previously cleared alarm.">
<polygon fill="#999999" stroke="#666666" points="90.25,-56.25 0,-56.25 0,-37 90.25,-37 90.25,-56.25"/>
<text xml:space="preserve" text-anchor="middle" x="45.12" y="-42.75" font-family="Helvetica,sans-Serif" font-size="10.00">Alarm::reactivate</text>
</a>
</g>
</g>
<!-- Node2 -->
<g id="Node000002" class="node">
<title>Node2</title>
<g id="a_Node000002"><a xlink:href="$class_alarm.html#a11b2da560dbc8653fa9dec671a78b980" xlink:title="Update the alarm display message.">
<polygon fill="white" stroke="#666666" points="248.38,-93.25 126.62,-93.25 126.62,-74 248.38,-74 248.38,-93.25"/>
<text xml:space="preserve" text-anchor="middle" x="187.5" y="-79.75" font-family="Helvetica,sans-Serif" font-size="10.00">Alarm::_updateMessage</text>
</a>
</g>
</g>
<!-- Node1&#45;&gt;Node2 -->
<g id="edge1_Node000001_Node000002" class="edge">
<title>Node1&#45;&gt;Node2</title>
<g id="a_edge1_Node000001_Node000002"><a xlink:title=" ">
<path fill="none" stroke="#63b8ff" d="M84.48,-56.74C100.73,-61.02 119.87,-66.06 137.15,-70.62"/>
<polygon fill="#63b8ff" stroke="#63b8ff" points="136.16,-73.98 146.72,-73.14 137.95,-67.21 136.16,-73.98"/>
</a>
</g>
</g>
<!-- Node4 -->
<g id="Node000004" class="node">
<title>Node4</title>
<g id="a_Node000004"><a xlink:href="$class_alarm.html#abd578ec75a5ac9bce00b7ce7207c5d8c" xlink:title="Get alarm type as string.">
<polygon fill="white" stroke="#666666" points="241.25,-56.25 133.75,-56.25 133.75,-37 241.25,-37 241.25,-56.25"/>
<text xml:space="preserve" text-anchor="middle" x="187.5" y="-42.75" font-family="Helvetica,sans-Serif" font-size="10.00">Alarm::getTypeString</text>
</a>
</g>
</g>
<!-- Node1&#45;&gt;Node4 -->
<g id="edge3_Node000001_Node000004" class="edge">
<title>Node1&#45;&gt;Node4</title>
<g id="a_edge3_Node000001_Node000004"><a xlink:title=" ">
<path fill="none" stroke="#63b8ff" d="M90.54,-46.62C100.57,-46.62 111.41,-46.62 122.08,-46.62"/>
<polygon fill="#63b8ff" stroke="#63b8ff" points="122.02,-50.13 132.02,-46.63 122.02,-43.13 122.02,-50.13"/>
</a>
</g>
</g>
<!-- Node5 -->
<g id="Node000005" class="node">
<title>Node5</title>
<g id="a_Node000005"><a xlink:href="$class_logger_manager.html#a0d52b0ff7bff22817e987ad753102854" xlink:title="Log warning message (static convenience method)">
<polygon fill="white" stroke="#666666" points="248.75,-19.25 126.25,-19.25 126.25,0 248.75,0 248.75,-19.25"/>
<text xml:space="preserve" text-anchor="middle" x="187.5" y="-5.75" font-family="Helvetica,sans-Serif" font-size="10.00">LoggerManager::warning</text>
</a>
</g>
</g>
<!-- Node1&#45;&gt;Node5 -->
<g id="edge4_Node000001_Node000005" class="edge">
<title>Node1&#45;&gt;Node5</title>
<g id="a_edge4_Node000001_Node000005"><a xlink:title=" ">
<path fill="none" stroke="#63b8ff" d="M84.48,-36.51C100.73,-32.23 119.87,-27.19 137.15,-22.63"/>
<polygon fill="#63b8ff" stroke="#63b8ff" points="137.95,-26.04 146.72,-20.11 136.16,-19.27 137.95,-26.04"/>
</a>
</g>
</g>
<!-- Node3 -->
<g id="Node000003" class="node">
<title>Node3</title>
<g id="a_Node000003"><a xlink:href="$class_alarm.html#a480e1d6d474da0cd4e5dd557e41cb87e" xlink:title="Get formatted display text for UI.">
<polygon fill="white" stroke="#666666" points="397.5,-93.25 284.75,-93.25 284.75,-74 397.5,-74 397.5,-93.25"/>
<text xml:space="preserve" text-anchor="middle" x="341.12" y="-79.75" font-family="Helvetica,sans-Serif" font-size="10.00">Alarm::getDisplayText</text>
</a>
</g>
</g>
<!-- Node2&#45;&gt;Node3 -->
<g id="edge2_Node000002_Node000003" class="edge">
<title>Node2&#45;&gt;Node3</title>
<g id="a_edge2_Node000002_Node000003"><a xlink:title=" ">
<path fill="none" stroke="#63b8ff" d="M248.86,-83.62C256.83,-83.62 265.04,-83.62 273.11,-83.62"/>
<polygon fill="#63b8ff" stroke="#63b8ff" points="272.89,-87.13 282.89,-83.63 272.89,-80.13 272.89,-87.13"/>
</a>
</g>
</g>
</g>
</svg>
