<?xml version="1.0" encoding="UTF-8" standalone="no"?>
<!DOCTYPE svg PUBLIC "-//W3C//DTD SVG 1.1//EN"
 "http://www.w3.org/Graphics/SVG/1.1/DTD/svg11.dtd">
<!-- Generated by graphviz version 13.1.0 (20250701.0955)
 -->
<!-- Title: TemperatureController::_displayNextAcknowledgedAlarm Pages: 1 -->
<svg width="970pt" height="88pt"
 viewBox="0.00 0.00 970.00 88.00" xmlns="http://www.w3.org/2000/svg" xmlns:xlink="http://www.w3.org/1999/xlink">
<g id="graph0" class="graph" transform="scale(1 1) rotate(0) translate(4 83.5)">
<title>TemperatureController::_displayNextAcknowledgedAlarm</title>
<!-- Node1 -->
<g id="Node000001" class="node">
<title>Node1</title>
<g id="a_Node000001"><a xlink:title="Display next acknowledged alarm.">
<polygon fill="#999999" stroke="#666666" points="962.25,-54.5 794,-54.5 794,-24 962.25,-24 962.25,-54.5"/>
<text xml:space="preserve" text-anchor="start" x="802" y="-41" font-family="Helvetica,sans-Serif" font-size="10.00">TemperatureController</text>
<text xml:space="preserve" text-anchor="middle" x="878.12" y="-29.75" font-family="Helvetica,sans-Serif" font-size="10.00">::_displayNextAcknowledgedAlarm</text>
</a>
</g>
</g>
<!-- Node2 -->
<g id="Node000002" class="node">
<title>Node2</title>
<g id="a_Node000002"><a xlink:href="class_temperature_controller.html#a1228b63e95f26c21a8d9c2a27928bc75" target="_top" xlink:title="Check for button press and handle acknowledgment.">
<polygon fill="white" stroke="#666666" points="563.5,-79.5 451.5,-79.5 451.5,-49 563.5,-49 563.5,-79.5"/>
<text xml:space="preserve" text-anchor="start" x="459.5" y="-66" font-family="Helvetica,sans-Serif" font-size="10.00">TemperatureController</text>
<text xml:space="preserve" text-anchor="middle" x="507.5" y="-54.75" font-family="Helvetica,sans-Serif" font-size="10.00">::_checkButtonPress</text>
</a>
</g>
</g>
<!-- Node1&#45;&gt;Node2 -->
<g id="edge1_Node000001_Node000002" class="edge">
<title>Node1&#45;&gt;Node2</title>
<g id="a_edge1_Node000001_Node000002"><a xlink:title=" ">
<path fill="none" stroke="#63b8ff" d="M782.59,-45.66C713.35,-50.36 621.73,-56.57 563.94,-60.49"/>
<polygon fill="#63b8ff" stroke="#63b8ff" points="782.69,-49.16 792.43,-44.99 782.21,-42.18 782.69,-49.16"/>
</a>
</g>
</g>
<!-- Node6 -->
<g id="Node000006" class="node">
<title>Node6</title>
<g id="a_Node000006"><a xlink:href="class_temperature_controller.html#a1d2745c323f7094beac8f406825499b7" target="_top" xlink:title="Handle alarm display rotation timing.">
<polygon fill="white" stroke="#666666" points="758,-33.5 607,-33.5 607,-3 758,-3 758,-33.5"/>
<text xml:space="preserve" text-anchor="start" x="615" y="-20" font-family="Helvetica,sans-Serif" font-size="10.00">TemperatureController</text>
<text xml:space="preserve" text-anchor="middle" x="682.5" y="-8.75" font-family="Helvetica,sans-Serif" font-size="10.00">::_handleAlarmDisplayRotation</text>
</a>
</g>
</g>
<!-- Node1&#45;&gt;Node6 -->
<g id="edge7_Node000001_Node000006" class="edge">
<title>Node1&#45;&gt;Node6</title>
<g id="a_edge7_Node000001_Node000006"><a xlink:title=" ">
<path fill="none" stroke="#63b8ff" d="M782.24,-28.96C774.17,-28.08 766.08,-27.21 758.21,-26.35"/>
<polygon fill="#63b8ff" stroke="#63b8ff" points="781.78,-32.43 792.1,-30.03 782.54,-25.47 781.78,-32.43"/>
</a>
</g>
</g>
<!-- Node3 -->
<g id="Node000003" class="node">
<title>Node3</title>
<g id="a_Node000003"><a xlink:href="class_temperature_controller.html#a5637103784725fb1a73f6463d7cbfde6" target="_top" xlink:title="Handle alarm display on OLED/LEDs.">
<polygon fill="white" stroke="#666666" points="408,-36.5 296,-36.5 296,-6 408,-6 408,-36.5"/>
<text xml:space="preserve" text-anchor="start" x="304" y="-23" font-family="Helvetica,sans-Serif" font-size="10.00">TemperatureController</text>
<text xml:space="preserve" text-anchor="middle" x="352" y="-11.75" font-family="Helvetica,sans-Serif" font-size="10.00">::handleAlarmDisplay</text>
</a>
</g>
</g>
<!-- Node2&#45;&gt;Node3 -->
<g id="edge2_Node000002_Node000003" class="edge">
<title>Node2&#45;&gt;Node3</title>
<g id="a_edge2_Node000002_Node000003"><a xlink:title=" ">
<path fill="none" stroke="#63b8ff" d="M440.16,-45.66C429.54,-42.69 418.66,-39.64 408.34,-36.75"/>
<polygon fill="#63b8ff" stroke="#63b8ff" points="439.05,-48.99 449.63,-48.32 440.94,-42.25 439.05,-48.99"/>
</a>
</g>
</g>
<!-- Node4 -->
<g id="Node000004" class="node">
<title>Node4</title>
<g id="a_Node000004"><a xlink:href="class_temperature_controller.html#aca5deddbf703001373424d876f87b5f2" target="_top" xlink:title="Main update function &#45; must be called in loop()">
<polygon fill="white" stroke="#666666" points="260,-57.5 148,-57.5 148,-27 260,-27 260,-57.5"/>
<text xml:space="preserve" text-anchor="start" x="156" y="-44" font-family="Helvetica,sans-Serif" font-size="10.00">TemperatureController</text>
<text xml:space="preserve" text-anchor="middle" x="204" y="-32.75" font-family="Helvetica,sans-Serif" font-size="10.00">::update</text>
</a>
</g>
</g>
<!-- Node2&#45;&gt;Node4 -->
<g id="edge6_Node000002_Node000004" class="edge">
<title>Node2&#45;&gt;Node4</title>
<g id="a_edge6_Node000002_Node000004"><a xlink:title=" ">
<path fill="none" stroke="#63b8ff" d="M440.04,-59.4C386.17,-55.47 311.14,-49.99 260.46,-46.3"/>
<polygon fill="#63b8ff" stroke="#63b8ff" points="439.46,-62.87 449.69,-60.1 439.97,-55.89 439.46,-62.87"/>
</a>
</g>
</g>
<!-- Node3&#45;&gt;Node4 -->
<g id="edge3_Node000003_Node000004" class="edge">
<title>Node3&#45;&gt;Node4</title>
<g id="a_edge3_Node000003_Node000004"><a xlink:title=" ">
<path fill="none" stroke="#63b8ff" d="M284.47,-30.82C276.38,-31.98 268.18,-33.16 260.27,-34.3"/>
<polygon fill="#63b8ff" stroke="#63b8ff" points="284.91,-34.29 294.31,-29.4 283.91,-27.36 284.91,-34.29"/>
</a>
</g>
</g>
<!-- Node5 -->
<g id="Node000005" class="node">
<title>Node5</title>
<g id="a_Node000005"><a xlink:href="class_temperature_controller.html#a11948a87fe7df37543b86ecdd488b341" target="_top" xlink:title="Read temperature from all configured measurement points.">
<polygon fill="white" stroke="#666666" points="112,-57.5 0,-57.5 0,-27 112,-27 112,-57.5"/>
<text xml:space="preserve" text-anchor="start" x="8" y="-44" font-family="Helvetica,sans-Serif" font-size="10.00">TemperatureController</text>
<text xml:space="preserve" text-anchor="middle" x="56" y="-32.75" font-family="Helvetica,sans-Serif" font-size="10.00">::readAllPoints</text>
</a>
</g>
</g>
<!-- Node4&#45;&gt;Node5 -->
<g id="edge4_Node000004_Node000005" class="edge">
<title>Node4&#45;&gt;Node5</title>
<g id="a_edge4_Node000004_Node000005"><a xlink:title=" ">
<path fill="none" stroke="#63b8ff" d="M136.47,-35.52C128.38,-35.46 120.18,-35.52 112.27,-35.68"/>
<polygon fill="#63b8ff" stroke="#63b8ff" points="136.24,-39.02 146.29,-35.66 136.34,-32.02 136.24,-39.02"/>
</a>
</g>
</g>
<!-- Node5&#45;&gt;Node4 -->
<g id="edge5_Node000005_Node000004" class="edge">
<title>Node5&#45;&gt;Node4</title>
<g id="a_edge5_Node000005_Node000004"><a xlink:title=" ">
<path fill="none" stroke="#63b8ff" d="M123.61,-48.98C131.7,-49.04 139.9,-48.98 147.8,-48.82"/>
<polygon fill="#63b8ff" stroke="#63b8ff" points="123.84,-45.48 113.79,-48.84 123.74,-52.48 123.84,-45.48"/>
</a>
</g>
</g>
<!-- Node7 -->
<g id="Node000007" class="node">
<title>Node7</title>
<g id="a_Node000007"><a xlink:href="class_temperature_controller.html#a6b2f92b5c2af867240200cff2e61e806" target="_top" xlink:title="Handle display section switching.">
<polygon fill="white" stroke="#666666" points="571,-30.5 444,-30.5 444,0 571,0 571,-30.5"/>
<text xml:space="preserve" text-anchor="start" x="452" y="-17" font-family="Helvetica,sans-Serif" font-size="10.00">TemperatureController</text>
<text xml:space="preserve" text-anchor="middle" x="507.5" y="-5.75" font-family="Helvetica,sans-Serif" font-size="10.00">::_handleDisplaySections</text>
</a>
</g>
</g>
<!-- Node6&#45;&gt;Node7 -->
<g id="edge8_Node000006_Node000007" class="edge">
<title>Node6&#45;&gt;Node7</title>
<g id="a_edge8_Node000006_Node000007"><a xlink:title=" ">
<path fill="none" stroke="#63b8ff" d="M595.25,-16.75C587.17,-16.61 579.1,-16.47 571.3,-16.34"/>
<polygon fill="#63b8ff" stroke="#63b8ff" points="595.05,-20.25 605.11,-16.93 595.17,-13.25 595.05,-20.25"/>
</a>
</g>
</g>
<!-- Node7&#45;&gt;Node3 -->
<g id="edge9_Node000007_Node000003" class="edge">
<title>Node7&#45;&gt;Node3</title>
<g id="a_edge9_Node000007_Node000003"><a xlink:title=" ">
<path fill="none" stroke="#63b8ff" d="M432.22,-18.15C424.12,-18.47 415.98,-18.79 408.16,-19.09"/>
<polygon fill="#63b8ff" stroke="#63b8ff" points="432.25,-21.65 442.11,-17.77 431.98,-14.66 432.25,-21.65"/>
</a>
</g>
</g>
</g>
</svg>
