<?xml version="1.0" encoding="UTF-8" standalone="no"?>
<!DOCTYPE svg PUBLIC "-//W3C//DTD SVG 1.1//EN"
 "http://www.w3.org/Graphics/SVG/1.1/DTD/svg11.dtd">
<!-- Generated by graphviz version 13.1.0 (20250701.0955)
 -->
<!-- Title: IndicatorInterface::printPortStates Pages: 1 -->
<svg width="498pt" height="223pt"
 viewBox="0.00 0.00 498.00 223.00" xmlns="http://www.w3.org/2000/svg" xmlns:xlink="http://www.w3.org/1999/xlink">
<g id="graph0" class="graph" transform="scale(1 1) rotate(0) translate(4 218.5)">
<title>IndicatorInterface::printPortStates</title>
<!-- Node1 -->
<g id="Node000001" class="node">
<title>Node1</title>
<g id="a_Node000001"><a xlink:title="Print current state of all ports to Serial.">
<polygon fill="#999999" stroke="#666666" points="91.75,-128.5 0,-128.5 0,-98 91.75,-98 91.75,-128.5"/>
<text xml:space="preserve" text-anchor="start" x="8" y="-115" font-family="Helvetica,sans-Serif" font-size="10.00">IndicatorInterface</text>
<text xml:space="preserve" text-anchor="middle" x="45.88" y="-103.75" font-family="Helvetica,sans-Serif" font-size="10.00">::printPortStates</text>
</a>
</g>
</g>
<!-- Node2 -->
<g id="Node000002" class="node">
<title>Node2</title>
<g id="a_Node000002"><a xlink:href="$class_indicator_interface.html#a8571bc4adfb0efb4f230b8c9d1b6bda7" xlink:title="Reverse inversion logic from physical to logical.">
<polygon fill="white" stroke="#666666" points="234.5,-214.5 127.75,-214.5 127.75,-184 234.5,-184 234.5,-214.5"/>
<text xml:space="preserve" text-anchor="start" x="135.75" y="-201" font-family="Helvetica,sans-Serif" font-size="10.00">IndicatorInterface</text>
<text xml:space="preserve" text-anchor="middle" x="181.12" y="-189.75" font-family="Helvetica,sans-Serif" font-size="10.00">::_reverseModeLogic</text>
</a>
</g>
</g>
<!-- Node1&#45;&gt;Node2 -->
<g id="edge1_Node000001_Node000002" class="edge">
<title>Node1&#45;&gt;Node2</title>
<g id="a_edge1_Node000001_Node000002"><a xlink:title=" ">
<path fill="none" stroke="#63b8ff" d="M67.73,-128.89C83.82,-140.72 106.79,-157.11 127.75,-170.25 131.81,-172.8 136.11,-175.37 140.43,-177.87"/>
<polygon fill="#63b8ff" stroke="#63b8ff" points="138.7,-180.91 149.12,-182.8 142.15,-174.82 138.7,-180.91"/>
</a>
</g>
</g>
<!-- Node3 -->
<g id="Node000003" class="node">
<title>Node3</title>
<g id="a_Node000003"><a xlink:href="$class_indicator_interface.html#a3b900f1de29de5489f19b94b27f4b5c1" xlink:title="Check if port has inverted logic.">
<polygon fill="white" stroke="#666666" points="362.25,-195.5 270.5,-195.5 270.5,-165 362.25,-165 362.25,-195.5"/>
<text xml:space="preserve" text-anchor="start" x="278.5" y="-182" font-family="Helvetica,sans-Serif" font-size="10.00">IndicatorInterface</text>
<text xml:space="preserve" text-anchor="middle" x="316.38" y="-170.75" font-family="Helvetica,sans-Serif" font-size="10.00">::isInverted</text>
</a>
</g>
</g>
<!-- Node1&#45;&gt;Node3 -->
<g id="edge7_Node000001_Node000003" class="edge">
<title>Node1&#45;&gt;Node3</title>
<g id="a_edge7_Node000001_Node000003"><a xlink:title=" ">
<path fill="none" stroke="#63b8ff" d="M92.07,-127.21C103.66,-130.64 116.13,-134.2 127.75,-137.25 171.54,-148.75 221.53,-160.12 258.9,-168.28"/>
<polygon fill="#63b8ff" stroke="#63b8ff" points="258.07,-171.68 268.59,-170.39 259.56,-164.84 258.07,-171.68"/>
</a>
</g>
</g>
<!-- Node4 -->
<g id="Node000004" class="node">
<title>Node4</title>
<g id="a_Node000004"><a xlink:href="$class_indicator_interface.html#a6e69fba966a59153449facfac1e04057" xlink:title="Get current state of all 16 ports.">
<polygon fill="white" stroke="#666666" points="227,-128.5 135.25,-128.5 135.25,-98 227,-98 227,-128.5"/>
<text xml:space="preserve" text-anchor="start" x="143.25" y="-115" font-family="Helvetica,sans-Serif" font-size="10.00">IndicatorInterface</text>
<text xml:space="preserve" text-anchor="middle" x="181.12" y="-103.75" font-family="Helvetica,sans-Serif" font-size="10.00">::getCurrentState</text>
</a>
</g>
</g>
<!-- Node1&#45;&gt;Node4 -->
<g id="edge3_Node000001_Node000004" class="edge">
<title>Node1&#45;&gt;Node4</title>
<g id="a_edge3_Node000001_Node000004"><a xlink:title=" ">
<path fill="none" stroke="#63b8ff" d="M91.99,-113.25C102.19,-113.25 113.15,-113.25 123.75,-113.25"/>
<polygon fill="#63b8ff" stroke="#63b8ff" points="123.55,-116.75 133.55,-113.25 123.55,-109.75 123.55,-116.75"/>
</a>
</g>
</g>
<!-- Node7 -->
<g id="Node000007" class="node">
<title>Node7</title>
<g id="a_Node000007"><a xlink:href="$class_indicator_interface.html#a657f720c3bab755d0864436241c847ad" xlink:title="Get port name from port number.">
<polygon fill="white" stroke="#666666" points="227,-79.5 135.25,-79.5 135.25,-49 227,-49 227,-79.5"/>
<text xml:space="preserve" text-anchor="start" x="143.25" y="-66" font-family="Helvetica,sans-Serif" font-size="10.00">IndicatorInterface</text>
<text xml:space="preserve" text-anchor="middle" x="181.12" y="-54.75" font-family="Helvetica,sans-Serif" font-size="10.00">::getPortName</text>
</a>
</g>
</g>
<!-- Node1&#45;&gt;Node7 -->
<g id="edge6_Node000001_Node000007" class="edge">
<title>Node1&#45;&gt;Node7</title>
<g id="a_edge6_Node000001_Node000007"><a xlink:title=" ">
<path fill="none" stroke="#63b8ff" d="M89.4,-97.61C101.3,-93.24 114.39,-88.42 126.83,-83.85"/>
<polygon fill="#63b8ff" stroke="#63b8ff" points="127.95,-87.17 136.12,-80.43 125.53,-80.6 127.95,-87.17"/>
</a>
</g>
</g>
<!-- Node8 -->
<g id="Node000008" class="node">
<title>Node8</title>
<g id="a_Node000008"><a xlink:href="$class_indicator_interface.html#a0a785a20dd66dbe0077d60e779930140" xlink:title="Check if port is configured as output.">
<polygon fill="white" stroke="#666666" points="227,-30.5 135.25,-30.5 135.25,0 227,0 227,-30.5"/>
<text xml:space="preserve" text-anchor="start" x="143.25" y="-17" font-family="Helvetica,sans-Serif" font-size="10.00">IndicatorInterface</text>
<text xml:space="preserve" text-anchor="middle" x="181.12" y="-5.75" font-family="Helvetica,sans-Serif" font-size="10.00">::isOutput</text>
</a>
</g>
</g>
<!-- Node1&#45;&gt;Node8 -->
<g id="edge8_Node000001_Node000008" class="edge">
<title>Node1&#45;&gt;Node8</title>
<g id="a_edge8_Node000001_Node000008"><a xlink:title=" ">
<path fill="none" stroke="#63b8ff" d="M61.57,-97.55C76.98,-81.69 102.44,-57.19 127.75,-40.25 129.71,-38.94 131.75,-37.65 133.85,-36.41"/>
<polygon fill="#63b8ff" stroke="#63b8ff" points="135.49,-39.5 142.54,-31.59 132.1,-33.37 135.49,-39.5"/>
</a>
</g>
</g>
<!-- Node2&#45;&gt;Node3 -->
<g id="edge2_Node000002_Node000003" class="edge">
<title>Node2&#45;&gt;Node3</title>
<g id="a_edge2_Node000002_Node000003"><a xlink:title=" ">
<path fill="none" stroke="#63b8ff" d="M234.79,-191.74C242.8,-190.6 251.09,-189.42 259.17,-188.26"/>
<polygon fill="#63b8ff" stroke="#63b8ff" points="259.5,-191.75 268.91,-186.88 258.52,-184.82 259.5,-191.75"/>
</a>
</g>
</g>
<!-- Node5 -->
<g id="Node000005" class="node">
<title>Node5</title>
<g id="a_Node000005"><a xlink:href="$class_indicator_interface.html#aea37934542bbe7b6c50941dff4646fef" xlink:title="Update internal state from PCF8575.">
<polygon fill="white" stroke="#666666" points="362.25,-128.5 270.5,-128.5 270.5,-98 362.25,-98 362.25,-128.5"/>
<text xml:space="preserve" text-anchor="start" x="278.5" y="-115" font-family="Helvetica,sans-Serif" font-size="10.00">IndicatorInterface</text>
<text xml:space="preserve" text-anchor="middle" x="316.38" y="-103.75" font-family="Helvetica,sans-Serif" font-size="10.00">::_updateState</text>
</a>
</g>
</g>
<!-- Node4&#45;&gt;Node5 -->
<g id="edge4_Node000004_Node000005" class="edge">
<title>Node4&#45;&gt;Node5</title>
<g id="a_edge4_Node000004_Node000005"><a xlink:title=" ">
<path fill="none" stroke="#63b8ff" d="M227.24,-113.25C237.44,-113.25 248.4,-113.25 259,-113.25"/>
<polygon fill="#63b8ff" stroke="#63b8ff" points="258.8,-116.75 268.8,-113.25 258.8,-109.75 258.8,-116.75"/>
</a>
</g>
</g>
<!-- Node6 -->
<g id="Node000006" class="node">
<title>Node6</title>
<g id="a_Node000006"><a xlink:href="$class_indicator_interface.html#aad7f389062d31610e8b0d01e6c75413e" xlink:title="Read raw state from PCF8575.">
<polygon fill="white" stroke="#666666" points="490,-128.5 398.25,-128.5 398.25,-98 490,-98 490,-128.5"/>
<text xml:space="preserve" text-anchor="start" x="406.25" y="-115" font-family="Helvetica,sans-Serif" font-size="10.00">IndicatorInterface</text>
<text xml:space="preserve" text-anchor="middle" x="444.12" y="-103.75" font-family="Helvetica,sans-Serif" font-size="10.00">::_readPCF</text>
</a>
</g>
</g>
<!-- Node5&#45;&gt;Node6 -->
<g id="edge5_Node000005_Node000006" class="edge">
<title>Node5&#45;&gt;Node6</title>
<g id="a_edge5_Node000005_Node000006"><a xlink:title=" ">
<path fill="none" stroke="#63b8ff" d="M362.42,-113.25C370.27,-113.25 378.53,-113.25 386.65,-113.25"/>
<polygon fill="#63b8ff" stroke="#63b8ff" points="386.46,-116.75 396.46,-113.25 386.46,-109.75 386.46,-116.75"/>
</a>
</g>
</g>
</g>
</svg>
