<?xml version="1.0" encoding="UTF-8" standalone="no"?>
<!DOCTYPE svg PUBLIC "-//W3C//DTD SVG 1.1//EN"
 "http://www.w3.org/Graphics/SVG/1.1/DTD/svg11.dtd">
<!-- Generated by graphviz version 13.1.0 (20250701.0955)
 -->
<!-- Title: TemperatureController::createAlarm Pages: 1 -->
<svg width="309pt" height="64pt"
 viewBox="0.00 0.00 309.00 64.00" xmlns="http://www.w3.org/2000/svg" xmlns:xlink="http://www.w3.org/1999/xlink">
<g id="graph0" class="graph" transform="scale(1 1) rotate(0) translate(4 60.25)">
<title>TemperatureController::createAlarm</title>
<!-- Node1 -->
<g id="Node000001" class="node">
<title>Node1</title>
<g id="a_Node000001"><a xlink:title="Create new alarm for measurement point.">
<polygon fill="#999999" stroke="#666666" points="112,-42.88 0,-42.88 0,-12.37 112,-12.37 112,-42.88"/>
<text xml:space="preserve" text-anchor="start" x="8" y="-29.38" font-family="Helvetica,sans-Serif" font-size="10.00">TemperatureController</text>
<text xml:space="preserve" text-anchor="middle" x="56" y="-18.12" font-family="Helvetica,sans-Serif" font-size="10.00">::createAlarm</text>
</a>
</g>
</g>
<!-- Node2 -->
<g id="Node000002" class="node">
<title>Node2</title>
<g id="a_Node000002"><a xlink:href="class_measurement_point.html#a7b74a18d86e0e545264a774aa2c31cad" target="_top" xlink:title="Get measurement point address.">
<polygon fill="white" stroke="#666666" points="301.25,-56.25 148,-56.25 148,-37 301.25,-37 301.25,-56.25"/>
<text xml:space="preserve" text-anchor="middle" x="224.62" y="-42.75" font-family="Helvetica,sans-Serif" font-size="10.00">MeasurementPoint::getAddress</text>
</a>
</g>
</g>
<!-- Node1&#45;&gt;Node2 -->
<g id="edge1_Node000001_Node000002" class="edge">
<title>Node1&#45;&gt;Node2</title>
<g id="a_edge1_Node000001_Node000002"><a xlink:title=" ">
<path fill="none" stroke="#63b8ff" d="M112.48,-33.95C120.14,-34.82 128.15,-35.74 136.22,-36.66"/>
<polygon fill="#63b8ff" stroke="#63b8ff" points="135.78,-40.13 146.11,-37.79 136.57,-33.18 135.78,-40.13"/>
</a>
</g>
</g>
<!-- Node3 -->
<g id="Node000003" class="node">
<title>Node3</title>
<g id="a_Node000003"><a xlink:href="class_alarm.html#ad116a3e8b622810e1769568fbac16379" target="_top" xlink:title="Set the configuration key.">
<polygon fill="white" stroke="#666666" points="278,-19.25 171.25,-19.25 171.25,0 278,0 278,-19.25"/>
<text xml:space="preserve" text-anchor="middle" x="224.62" y="-5.75" font-family="Helvetica,sans-Serif" font-size="10.00">Alarm::setConfigKey</text>
</a>
</g>
</g>
<!-- Node1&#45;&gt;Node3 -->
<g id="edge2_Node000001_Node000003" class="edge">
<title>Node1&#45;&gt;Node3</title>
<g id="a_edge2_Node000001_Node000003"><a xlink:title=" ">
<path fill="none" stroke="#63b8ff" d="M112.48,-21.63C127.64,-19.99 144.19,-18.21 159.78,-16.52"/>
<polygon fill="#63b8ff" stroke="#63b8ff" points="159.85,-20.03 169.42,-15.48 159.1,-13.08 159.85,-20.03"/>
</a>
</g>
</g>
</g>
</svg>
