<?xml version="1.0" encoding="UTF-8" standalone="no"?>
<!DOCTYPE svg PUBLIC "-//W3C//DTD SVG 1.1//EN"
 "http://www.w3.org/Graphics/SVG/1.1/DTD/svg11.dtd">
<!-- Generated by graphviz version 13.1.0 (20250701.0955)
 -->
<!-- Title: IndicatorInterface::_reverseModeLogic Pages: 1 -->
<svg width="243pt" height="88pt"
 viewBox="0.00 0.00 243.00 88.00" xmlns="http://www.w3.org/2000/svg" xmlns:xlink="http://www.w3.org/1999/xlink">
<g id="graph0" class="graph" transform="scale(1 1) rotate(0) translate(4 83.5)">
<title>IndicatorInterface::_reverseModeLogic</title>
<!-- Node1 -->
<g id="Node000001" class="node">
<title>Node1</title>
<g id="a_Node000001"><a xlink:title="Reverse inversion logic from physical to logical.">
<polygon fill="#999999" stroke="#666666" points="234.5,-54.5 127.75,-54.5 127.75,-24 234.5,-24 234.5,-54.5"/>
<text xml:space="preserve" text-anchor="start" x="135.75" y="-41" font-family="Helvetica,sans-Serif" font-size="10.00">IndicatorInterface</text>
<text xml:space="preserve" text-anchor="middle" x="181.12" y="-29.75" font-family="Helvetica,sans-Serif" font-size="10.00">::_reverseModeLogic</text>
</a>
</g>
</g>
<!-- Node2 -->
<g id="Node000002" class="node">
<title>Node2</title>
<g id="a_Node000002"><a xlink:href="$class_indicator_interface.html#a21ce0e3bc0531d92f815059890c66c4c" xlink:title="Print current state of all ports to Serial.">
<polygon fill="white" stroke="#666666" points="91.75,-79.5 0,-79.5 0,-49 91.75,-49 91.75,-79.5"/>
<text xml:space="preserve" text-anchor="start" x="8" y="-66" font-family="Helvetica,sans-Serif" font-size="10.00">IndicatorInterface</text>
<text xml:space="preserve" text-anchor="middle" x="45.88" y="-54.75" font-family="Helvetica,sans-Serif" font-size="10.00">::printPortStates</text>
</a>
</g>
</g>
<!-- Node1&#45;&gt;Node2 -->
<g id="edge1_Node000001_Node000002" class="edge">
<title>Node1&#45;&gt;Node2</title>
<g id="a_edge1_Node000001_Node000002"><a xlink:title=" ">
<path fill="none" stroke="#63b8ff" d="M116.28,-51.23C108.02,-52.78 99.71,-54.34 91.84,-55.81"/>
<polygon fill="#63b8ff" stroke="#63b8ff" points="116.79,-54.69 125.97,-49.41 115.5,-47.81 116.79,-54.69"/>
</a>
</g>
</g>
<!-- Node3 -->
<g id="Node000003" class="node">
<title>Node3</title>
<g id="a_Node000003"><a xlink:href="$class_indicator_interface.html#a9e7d2c4cadd548e3fe2a16e41f8ae8d4" xlink:title="Read state of a numbered port.">
<polygon fill="white" stroke="#666666" points="91.75,-30.5 0,-30.5 0,0 91.75,0 91.75,-30.5"/>
<text xml:space="preserve" text-anchor="start" x="8" y="-17" font-family="Helvetica,sans-Serif" font-size="10.00">IndicatorInterface</text>
<text xml:space="preserve" text-anchor="middle" x="45.88" y="-5.75" font-family="Helvetica,sans-Serif" font-size="10.00">::readPort</text>
</a>
</g>
</g>
<!-- Node1&#45;&gt;Node3 -->
<g id="edge2_Node000001_Node000003" class="edge">
<title>Node1&#45;&gt;Node3</title>
<g id="a_edge2_Node000001_Node000003"><a xlink:title=" ">
<path fill="none" stroke="#63b8ff" d="M116.28,-27.75C108.02,-26.26 99.71,-24.77 91.84,-23.35"/>
<polygon fill="#63b8ff" stroke="#63b8ff" points="115.51,-31.17 125.97,-29.5 116.75,-24.28 115.51,-31.17"/>
</a>
</g>
</g>
</g>
</svg>
