<?xml version="1.0" encoding="UTF-8" standalone="no"?>
<!DOCTYPE svg PUBLIC "-//W3C//DTD SVG 1.1//EN"
 "http://www.w3.org/Graphics/SVG/1.1/DTD/svg11.dtd">
<!-- Generated by graphviz version 13.1.0 (20250701.0955)
 -->
<!-- Title: IndicatorInterface::setOledMode Pages: 1 -->
<svg width="269pt" height="88pt"
 viewBox="0.00 0.00 269.00 88.00" xmlns="http://www.w3.org/2000/svg" xmlns:xlink="http://www.w3.org/1999/xlink">
<g id="graph0" class="graph" transform="scale(1 1) rotate(0) translate(4 83.5)">
<title>IndicatorInterface::setOledMode</title>
<!-- Node1 -->
<g id="Node000001" class="node">
<title>Node1</title>
<g id="a_Node000001"><a xlink:title=" ">
<polygon fill="#999999" stroke="#666666" points="91.75,-54.5 0,-54.5 0,-24 91.75,-24 91.75,-54.5"/>
<text xml:space="preserve" text-anchor="start" x="8" y="-41" font-family="Helvetica,sans-Serif" font-size="10.00">IndicatorInterface</text>
<text xml:space="preserve" text-anchor="middle" x="45.88" y="-29.75" font-family="Helvetica,sans-Serif" font-size="10.00">::setOledMode</text>
</a>
</g>
</g>
<!-- Node2 -->
<g id="Node000002" class="node">
<title>Node2</title>
<g id="a_Node000002"><a xlink:href="class_indicator_interface.html#a2f021f6fa16dec590a8b9cf41a82349d" target="_top" xlink:title=" ">
<polygon fill="white" stroke="#666666" points="260.75,-79.5 127.75,-79.5 127.75,-49 260.75,-49 260.75,-79.5"/>
<text xml:space="preserve" text-anchor="start" x="135.75" y="-66" font-family="Helvetica,sans-Serif" font-size="10.00">IndicatorInterface</text>
<text xml:space="preserve" text-anchor="middle" x="194.25" y="-54.75" font-family="Helvetica,sans-Serif" font-size="10.00">::_calculateDisplayParams</text>
</a>
</g>
</g>
<!-- Node1&#45;&gt;Node2 -->
<g id="edge1_Node000001_Node000002" class="edge">
<title>Node1&#45;&gt;Node2</title>
<g id="a_edge1_Node000001_Node000002"><a xlink:title=" ">
<path fill="none" stroke="#63b8ff" d="M91.99,-46.95C99.67,-48.27 107.83,-49.66 116.07,-51.07"/>
<polygon fill="#63b8ff" stroke="#63b8ff" points="115.36,-54.5 125.81,-52.73 116.54,-47.6 115.36,-54.5"/>
</a>
</g>
</g>
<!-- Node3 -->
<g id="Node000003" class="node">
<title>Node3</title>
<g id="a_Node000003"><a xlink:href="class_indicator_interface.html#af64dc2a4b4256050b070991dfaf05f1a" target="_top" xlink:title=" ">
<polygon fill="white" stroke="#666666" points="240.12,-30.5 148.38,-30.5 148.38,0 240.12,0 240.12,-30.5"/>
<text xml:space="preserve" text-anchor="start" x="156.38" y="-17" font-family="Helvetica,sans-Serif" font-size="10.00">IndicatorInterface</text>
<text xml:space="preserve" text-anchor="middle" x="194.25" y="-5.75" font-family="Helvetica,sans-Serif" font-size="10.00">::_wakeOLED</text>
</a>
</g>
</g>
<!-- Node1&#45;&gt;Node3 -->
<g id="edge2_Node000001_Node000003" class="edge">
<title>Node1&#45;&gt;Node3</title>
<g id="a_edge2_Node000001_Node000003"><a xlink:title=" ">
<path fill="none" stroke="#63b8ff" d="M91.99,-31.85C106.18,-29.53 122.03,-26.93 136.9,-24.49"/>
<polygon fill="#63b8ff" stroke="#63b8ff" points="137.24,-27.98 146.54,-22.91 136.11,-21.07 137.24,-27.98"/>
</a>
</g>
</g>
</g>
</svg>
