<?xml version="1.0" encoding="UTF-8" standalone="no"?>
<!DOCTYPE svg PUBLIC "-//W3C//DTD SVG 1.1//EN"
 "http://www.w3.org/Graphics/SVG/1.1/DTD/svg11.dtd">
<!-- Generated by graphviz version 13.1.0 (20250701.0955)
 -->
<!-- Title: TemperatureController::acknowledgeHighestPriorityAlarm Pages: 1 -->
<svg width="648pt" height="236pt"
 viewBox="0.00 0.00 648.00 236.00" xmlns="http://www.w3.org/2000/svg" xmlns:xlink="http://www.w3.org/1999/xlink">
<g id="graph0" class="graph" transform="scale(1 1) rotate(0) translate(4 231.88)">
<title>TemperatureController::acknowledgeHighestPriorityAlarm</title>
<!-- Node1 -->
<g id="Node000001" class="node">
<title>Node1</title>
<g id="a_Node000001"><a xlink:title="Acknowledge highest priority alarm.">
<polygon fill="#999999" stroke="#666666" points="143.5,-79.12 0,-79.12 0,-37.38 143.5,-37.38 143.5,-79.12"/>
<text xml:space="preserve" text-anchor="start" x="8" y="-65.62" font-family="Helvetica,sans-Serif" font-size="10.00">TemperatureController</text>
<text xml:space="preserve" text-anchor="start" x="8" y="-54.38" font-family="Helvetica,sans-Serif" font-size="10.00">::acknowledgeHighestPriority</text>
<text xml:space="preserve" text-anchor="middle" x="71.75" y="-43.12" font-family="Helvetica,sans-Serif" font-size="10.00">Alarm</text>
</a>
</g>
</g>
<!-- Node2 -->
<g id="Node000002" class="node">
<title>Node2</title>
<g id="a_Node000002"><a xlink:href="class_alarm.html#aa14f5a764303b269f04573867e2e4fc8" target="_top" xlink:title="Acknowledge the alarm.">
<polygon fill="white" stroke="#666666" points="294.5,-104.88 190,-104.88 190,-85.62 294.5,-85.62 294.5,-104.88"/>
<text xml:space="preserve" text-anchor="middle" x="242.25" y="-91.38" font-family="Helvetica,sans-Serif" font-size="10.00">Alarm::acknowledge</text>
</a>
</g>
</g>
<!-- Node1&#45;&gt;Node2 -->
<g id="edge1_Node000001_Node000002" class="edge">
<title>Node1&#45;&gt;Node2</title>
<g id="a_edge1_Node000001_Node000002"><a xlink:title=" ">
<path fill="none" stroke="#63b8ff" d="M143.72,-73.83C157.22,-76.8 171.18,-79.86 184.17,-82.72"/>
<polygon fill="#63b8ff" stroke="#63b8ff" points="183.31,-86.11 193.83,-84.84 184.81,-79.27 183.31,-86.11"/>
</a>
</g>
</g>
<!-- Node10 -->
<g id="Node000010" class="node">
<title>Node10</title>
<g id="a_Node000010"><a xlink:href="class_temperature_controller.html#abb3d16c1efa5754a2e64b5dc5dd4f4cc" target="_top" xlink:title="Get highest priority active alarm.">
<polygon fill="white" stroke="#666666" points="305,-30.5 179.5,-30.5 179.5,0 305,0 305,-30.5"/>
<text xml:space="preserve" text-anchor="start" x="187.5" y="-17" font-family="Helvetica,sans-Serif" font-size="10.00">TemperatureController</text>
<text xml:space="preserve" text-anchor="middle" x="242.25" y="-5.75" font-family="Helvetica,sans-Serif" font-size="10.00">::getHighestPriorityAlarm</text>
</a>
</g>
</g>
<!-- Node1&#45;&gt;Node10 -->
<g id="edge9_Node000001_Node000010" class="edge">
<title>Node1&#45;&gt;Node10</title>
<g id="a_edge9_Node000001_Node000010"><a xlink:title=" ">
<path fill="none" stroke="#63b8ff" d="M143.72,-40.14C151.94,-38.04 160.34,-35.9 168.59,-33.79"/>
<polygon fill="#63b8ff" stroke="#63b8ff" points="169.42,-37.19 178.24,-31.33 167.69,-30.41 169.42,-37.19"/>
</a>
</g>
</g>
<!-- Node11 -->
<g id="Node000011" class="node">
<title>Node11</title>
<g id="a_Node000011"><a xlink:href="class_alarm.html#adaf4b74537e11d5643ba5a8ae07fe10e" target="_top" xlink:title="Get status text description.">
<polygon fill="white" stroke="#666666" points="296.38,-67.88 188.12,-67.88 188.12,-48.62 296.38,-48.62 296.38,-67.88"/>
<text xml:space="preserve" text-anchor="middle" x="242.25" y="-54.38" font-family="Helvetica,sans-Serif" font-size="10.00">Alarm::getStatusText</text>
</a>
</g>
</g>
<!-- Node1&#45;&gt;Node11 -->
<g id="edge10_Node000001_Node000011" class="edge">
<title>Node1&#45;&gt;Node11</title>
<g id="a_edge10_Node000001_Node000011"><a xlink:title=" ">
<path fill="none" stroke="#63b8ff" d="M143.72,-58.25C154.55,-58.25 165.69,-58.25 176.38,-58.25"/>
<polygon fill="#63b8ff" stroke="#63b8ff" points="176.26,-61.75 186.26,-58.25 176.26,-54.75 176.26,-61.75"/>
</a>
</g>
</g>
<!-- Node3 -->
<g id="Node000003" class="node">
<title>Node3</title>
<g id="a_Node000003"><a xlink:href="class_alarm.html#a052a73879f5cd039f6f7cb7ce02e6a9d" target="_top" xlink:title="Get priority as string (internal version)">
<polygon fill="white" stroke="#666666" points="477.38,-141.88 354.88,-141.88 354.88,-122.62 477.38,-122.62 477.38,-141.88"/>
<text xml:space="preserve" text-anchor="middle" x="416.12" y="-128.38" font-family="Helvetica,sans-Serif" font-size="10.00">Alarm::_getPriorityString</text>
</a>
</g>
</g>
<!-- Node2&#45;&gt;Node3 -->
<g id="edge2_Node000002_Node000003" class="edge">
<title>Node2&#45;&gt;Node3</title>
<g id="a_edge2_Node000002_Node000003"><a xlink:title=" ">
<path fill="none" stroke="#63b8ff" d="M290.22,-105.36C310.87,-109.81 335.33,-115.07 357.11,-119.76"/>
<polygon fill="#63b8ff" stroke="#63b8ff" points="356.22,-123.15 366.74,-121.83 357.7,-116.31 356.22,-123.15"/>
</a>
</g>
</g>
<!-- Node4 -->
<g id="Node000004" class="node">
<title>Node4</title>
<g id="a_Node000004"><a xlink:href="class_alarm.html#a11b2da560dbc8653fa9dec671a78b980" target="_top" xlink:title="Update the alarm display message.">
<polygon fill="white" stroke="#666666" points="477,-104.88 355.25,-104.88 355.25,-85.62 477,-85.62 477,-104.88"/>
<text xml:space="preserve" text-anchor="middle" x="416.12" y="-91.38" font-family="Helvetica,sans-Serif" font-size="10.00">Alarm::_updateMessage</text>
</a>
</g>
</g>
<!-- Node2&#45;&gt;Node4 -->
<g id="edge3_Node000002_Node000004" class="edge">
<title>Node2&#45;&gt;Node4</title>
<g id="a_edge3_Node000002_Node000004"><a xlink:title=" ">
<path fill="none" stroke="#63b8ff" d="M294.82,-95.25C310.16,-95.25 327.26,-95.25 343.63,-95.25"/>
<polygon fill="#63b8ff" stroke="#63b8ff" points="343.31,-98.75 353.31,-95.25 343.31,-91.75 343.31,-98.75"/>
</a>
</g>
</g>
<!-- Node6 -->
<g id="Node000006" class="node">
<title>Node6</title>
<g id="a_Node000006"><a xlink:href="class_alarm.html#a5f0ead4dbd06aa64bd316d99dc587302" target="_top" xlink:title="Get alarm stage as string.">
<polygon fill="white" stroke="#666666" points="472.12,-67.88 360.12,-67.88 360.12,-48.62 472.12,-48.62 472.12,-67.88"/>
<text xml:space="preserve" text-anchor="middle" x="416.12" y="-54.38" font-family="Helvetica,sans-Serif" font-size="10.00">Alarm::getStageString</text>
</a>
</g>
</g>
<!-- Node2&#45;&gt;Node6 -->
<g id="edge5_Node000002_Node000006" class="edge">
<title>Node2&#45;&gt;Node6</title>
<g id="a_edge5_Node000002_Node000006"><a xlink:title=" ">
<path fill="none" stroke="#63b8ff" d="M290.22,-85.14C310.87,-80.69 335.33,-75.43 357.11,-70.74"/>
<polygon fill="#63b8ff" stroke="#63b8ff" points="357.7,-74.19 366.74,-68.67 356.22,-67.35 357.7,-74.19"/>
</a>
</g>
</g>
<!-- Node7 -->
<g id="Node000007" class="node">
<title>Node7</title>
<g id="a_Node000007"><a xlink:href="class_alarm.html#abd578ec75a5ac9bce00b7ce7207c5d8c" target="_top" xlink:title="Get alarm type as string.">
<polygon fill="white" stroke="#666666" points="469.88,-30.88 362.38,-30.88 362.38,-11.62 469.88,-11.62 469.88,-30.88"/>
<text xml:space="preserve" text-anchor="middle" x="416.12" y="-17.38" font-family="Helvetica,sans-Serif" font-size="10.00">Alarm::getTypeString</text>
</a>
</g>
</g>
<!-- Node2&#45;&gt;Node7 -->
<g id="edge6_Node000002_Node000007" class="edge">
<title>Node2&#45;&gt;Node7</title>
<g id="a_edge6_Node000002_Node000007"><a xlink:title=" ">
<path fill="none" stroke="#63b8ff" d="M288.3,-85.18C294.13,-83.01 299.85,-80.39 305,-77.25 324.86,-65.13 320.87,-50.92 341,-39.25 344.37,-37.3 347.94,-35.56 351.62,-34"/>
<polygon fill="#63b8ff" stroke="#63b8ff" points="352.63,-37.36 360.81,-30.63 350.21,-30.79 352.63,-37.36"/>
</a>
</g>
</g>
<!-- Node8 -->
<g id="Node000008" class="node">
<title>Node8</title>
<g id="a_Node000008"><a xlink:href="class_logger_manager.html#a5c1373ccc47f4112b596fe6f84fbbc21" target="_top" xlink:title="Log informational message (static convenience method)">
<polygon fill="white" stroke="#666666" points="468.38,-227.88 363.88,-227.88 363.88,-208.62 468.38,-208.62 468.38,-227.88"/>
<text xml:space="preserve" text-anchor="middle" x="416.12" y="-214.38" font-family="Helvetica,sans-Serif" font-size="10.00">LoggerManager::info</text>
</a>
</g>
</g>
<!-- Node2&#45;&gt;Node8 -->
<g id="edge7_Node000002_Node000008" class="edge">
<title>Node2&#45;&gt;Node8</title>
<g id="a_edge7_Node000002_Node000008"><a xlink:title=" ">
<path fill="none" stroke="#63b8ff" d="M249.74,-105.32C263.74,-126.22 298.97,-174.42 341,-199.25 344.75,-201.47 348.76,-203.43 352.9,-205.16"/>
<polygon fill="#63b8ff" stroke="#63b8ff" points="351.36,-208.33 361.95,-208.5 353.78,-201.76 351.36,-208.33"/>
</a>
</g>
</g>
<!-- Node9 -->
<g id="Node000009" class="node">
<title>Node9</title>
<g id="a_Node000009"><a xlink:href="class_logger_manager.html#aa74d58708cf5cdf8ddafad648edadcf7" target="_top" xlink:title=" ">
<polygon fill="white" stroke="#666666" points="491.25,-190.5 341,-190.5 341,-160 491.25,-160 491.25,-190.5"/>
<text xml:space="preserve" text-anchor="start" x="349" y="-177" font-family="Helvetica,sans-Serif" font-size="10.00">LoggerManager::logAlarmState</text>
<text xml:space="preserve" text-anchor="middle" x="416.12" y="-165.75" font-family="Helvetica,sans-Serif" font-size="10.00">Change</text>
</a>
</g>
</g>
<!-- Node2&#45;&gt;Node9 -->
<g id="edge8_Node000002_Node000009" class="edge">
<title>Node2&#45;&gt;Node9</title>
<g id="a_edge8_Node000002_Node000009"><a xlink:title=" ">
<path fill="none" stroke="#63b8ff" d="M258.31,-105.19C277.08,-117.28 310.42,-137.71 341,-151.25 344.34,-152.73 347.8,-154.16 351.32,-155.54"/>
<polygon fill="#63b8ff" stroke="#63b8ff" points="349.97,-158.78 360.56,-159 352.42,-152.22 349.97,-158.78"/>
</a>
</g>
</g>
<!-- Node5 -->
<g id="Node000005" class="node">
<title>Node5</title>
<g id="a_Node000005"><a xlink:href="class_alarm.html#a480e1d6d474da0cd4e5dd557e41cb87e" target="_top" xlink:title="Get formatted display text for UI.">
<polygon fill="white" stroke="#666666" points="640,-104.88 527.25,-104.88 527.25,-85.62 640,-85.62 640,-104.88"/>
<text xml:space="preserve" text-anchor="middle" x="583.62" y="-91.38" font-family="Helvetica,sans-Serif" font-size="10.00">Alarm::getDisplayText</text>
</a>
</g>
</g>
<!-- Node4&#45;&gt;Node5 -->
<g id="edge4_Node000004_Node000005" class="edge">
<title>Node4&#45;&gt;Node5</title>
<g id="a_edge4_Node000004_Node000005"><a xlink:title=" ">
<path fill="none" stroke="#63b8ff" d="M477.34,-95.25C489.73,-95.25 502.84,-95.25 515.45,-95.25"/>
<polygon fill="#63b8ff" stroke="#63b8ff" points="515.34,-98.75 525.34,-95.25 515.34,-91.75 515.34,-98.75"/>
</a>
</g>
</g>
<!-- Node11&#45;&gt;Node6 -->
<g id="edge11_Node000011_Node000006" class="edge">
<title>Node11&#45;&gt;Node6</title>
<g id="a_edge11_Node000011_Node000006"><a xlink:title=" ">
<path fill="none" stroke="#63b8ff" d="M296.69,-58.25C313.1,-58.25 331.36,-58.25 348.54,-58.25"/>
<polygon fill="#63b8ff" stroke="#63b8ff" points="348.13,-61.75 358.13,-58.25 348.13,-54.75 348.13,-61.75"/>
</a>
</g>
</g>
<!-- Node11&#45;&gt;Node7 -->
<g id="edge12_Node000011_Node000007" class="edge">
<title>Node11&#45;&gt;Node7</title>
<g id="a_edge12_Node000011_Node000007"><a xlink:title=" ">
<path fill="none" stroke="#63b8ff" d="M290.22,-48.14C310.87,-43.69 335.33,-38.43 357.11,-33.74"/>
<polygon fill="#63b8ff" stroke="#63b8ff" points="357.7,-37.19 366.74,-31.67 356.22,-30.35 357.7,-37.19"/>
</a>
</g>
</g>
</g>
</svg>
