<?xml version="1.0" encoding="UTF-8" standalone="no"?>
<!DOCTYPE svg PUBLIC "-//W3C//DTD SVG 1.1//EN"
 "http://www.w3.org/Graphics/SVG/1.1/DTD/svg11.dtd">
<!-- Generated by graphviz version 13.1.0 (20250701.0955)
 -->
<!-- Title: Alarm::getStageString Pages: 1 -->
<svg width="444pt" height="64pt"
 viewBox="0.00 0.00 444.00 64.00" xmlns="http://www.w3.org/2000/svg" xmlns:xlink="http://www.w3.org/1999/xlink">
<g id="graph0" class="graph" transform="scale(1 1) rotate(0) translate(4 60.25)">
<title>Alarm::getStageString</title>
<!-- Node1 -->
<g id="Node000001" class="node">
<title>Node1</title>
<g id="a_Node000001"><a xlink:title="Get alarm stage as string.">
<polygon fill="#999999" stroke="#666666" points="435.75,-37.25 323.75,-37.25 323.75,-18 435.75,-18 435.75,-37.25"/>
<text xml:space="preserve" text-anchor="middle" x="379.75" y="-23.75" font-family="Helvetica,sans-Serif" font-size="10.00">Alarm::getStageString</text>
</a>
</g>
</g>
<!-- Node2 -->
<g id="Node000002" class="node">
<title>Node2</title>
<g id="a_Node000002"><a xlink:href="class_alarm.html#aa14f5a764303b269f04573867e2e4fc8" target="_top" xlink:title="Acknowledge the alarm.">
<polygon fill="white" stroke="#666666" points="285.88,-56.25 181.38,-56.25 181.38,-37 285.88,-37 285.88,-56.25"/>
<text xml:space="preserve" text-anchor="middle" x="233.62" y="-42.75" font-family="Helvetica,sans-Serif" font-size="10.00">Alarm::acknowledge</text>
</a>
</g>
</g>
<!-- Node1&#45;&gt;Node2 -->
<g id="edge1_Node000001_Node000002" class="edge">
<title>Node1&#45;&gt;Node2</title>
<g id="a_edge1_Node000001_Node000002"><a xlink:title=" ">
<path fill="none" stroke="#63b8ff" d="M312.12,-36.41C303.43,-37.55 294.63,-38.71 286.24,-39.82"/>
<polygon fill="#63b8ff" stroke="#63b8ff" points="312.48,-39.89 321.94,-35.11 311.57,-32.95 312.48,-39.89"/>
</a>
</g>
</g>
<!-- Node4 -->
<g id="Node000004" class="node">
<title>Node4</title>
<g id="a_Node000004"><a xlink:href="class_alarm.html#adaf4b74537e11d5643ba5a8ae07fe10e" target="_top" xlink:title="Get status text description.">
<polygon fill="white" stroke="#666666" points="287.75,-19.25 179.5,-19.25 179.5,0 287.75,0 287.75,-19.25"/>
<text xml:space="preserve" text-anchor="middle" x="233.62" y="-5.75" font-family="Helvetica,sans-Serif" font-size="10.00">Alarm::getStatusText</text>
</a>
</g>
</g>
<!-- Node1&#45;&gt;Node4 -->
<g id="edge3_Node000001_Node000004" class="edge">
<title>Node1&#45;&gt;Node4</title>
<g id="a_edge3_Node000001_Node000004"><a xlink:title=" ">
<path fill="none" stroke="#63b8ff" d="M312.16,-19.31C304.1,-18.3 295.96,-17.28 288.13,-16.31"/>
<polygon fill="#63b8ff" stroke="#63b8ff" points="311.58,-22.76 321.94,-20.53 312.45,-15.82 311.58,-22.76"/>
</a>
</g>
</g>
<!-- Node3 -->
<g id="Node000003" class="node">
<title>Node3</title>
<g id="a_Node000003"><a xlink:href="class_temperature_controller.html#a5f1c8fce1e5efb637bfe86bdb609a3b7" target="_top" xlink:title="Acknowledge highest priority alarm.">
<polygon fill="white" stroke="#666666" points="143.5,-48.5 0,-48.5 0,-6.75 143.5,-6.75 143.5,-48.5"/>
<text xml:space="preserve" text-anchor="start" x="8" y="-35" font-family="Helvetica,sans-Serif" font-size="10.00">TemperatureController</text>
<text xml:space="preserve" text-anchor="start" x="8" y="-23.75" font-family="Helvetica,sans-Serif" font-size="10.00">::acknowledgeHighestPriority</text>
<text xml:space="preserve" text-anchor="middle" x="71.75" y="-12.5" font-family="Helvetica,sans-Serif" font-size="10.00">Alarm</text>
</a>
</g>
</g>
<!-- Node2&#45;&gt;Node3 -->
<g id="edge2_Node000002_Node000003" class="edge">
<title>Node2&#45;&gt;Node3</title>
<g id="a_edge2_Node000002_Node000003"><a xlink:title=" ">
<path fill="none" stroke="#63b8ff" d="M169.79,-39.16C161.3,-38.15 152.54,-37.11 143.92,-36.08"/>
<polygon fill="#63b8ff" stroke="#63b8ff" points="169.31,-42.63 179.66,-40.33 170.14,-35.67 169.31,-42.63"/>
</a>
</g>
</g>
<!-- Node4&#45;&gt;Node3 -->
<g id="edge4_Node000004_Node000003" class="edge">
<title>Node4&#45;&gt;Node3</title>
<g id="a_edge4_Node000004_Node000003"><a xlink:title=" ">
<path fill="none" stroke="#63b8ff" d="M167.99,-16.9C160.08,-17.79 151.96,-18.71 143.96,-19.61"/>
<polygon fill="#63b8ff" stroke="#63b8ff" points="168.34,-20.39 177.88,-15.79 167.56,-13.43 168.34,-20.39"/>
</a>
</g>
</g>
</g>
</svg>
