<?xml version="1.0" encoding="UTF-8" standalone="no"?>
<!DOCTYPE svg PUBLIC "-//W3C//DTD SVG 1.1//EN"
 "http://www.w3.org/Graphics/SVG/1.1/DTD/svg11.dtd">
<!-- Generated by graphviz version 13.1.0 (20250701.0955)
 -->
<!-- Title: TemperatureController::handleAlarmDisplay Pages: 1 -->
<svg width="511pt" height="272pt"
 viewBox="0.00 0.00 511.00 272.00" xmlns="http://www.w3.org/2000/svg" xmlns:xlink="http://www.w3.org/1999/xlink">
<g id="graph0" class="graph" transform="scale(1 1) rotate(0) translate(4 267.88)">
<title>TemperatureController::handleAlarmDisplay</title>
<!-- Node1 -->
<g id="Node000001" class="node">
<title>Node1</title>
<g id="a_Node000001"><a xlink:title=" ">
<polygon fill="#999999" stroke="#666666" points="112,-165.88 0,-165.88 0,-135.38 112,-135.38 112,-165.88"/>
<text xml:space="preserve" text-anchor="start" x="8" y="-152.38" font-family="Helvetica,sans-Serif" font-size="10.00">TemperatureController</text>
<text xml:space="preserve" text-anchor="middle" x="56" y="-141.12" font-family="Helvetica,sans-Serif" font-size="10.00">::handleAlarmDisplay</text>
</a>
</g>
</g>
<!-- Node2 -->
<g id="Node000002" class="node">
<title>Node2</title>
<g id="a_Node000002"><a xlink:href="class_temperature_controller.html#a1228b63e95f26c21a8d9c2a27928bc75" target="_top" xlink:title=" ">
<polygon fill="white" stroke="#666666" points="279.5,-214.88 167.5,-214.88 167.5,-184.38 279.5,-184.38 279.5,-214.88"/>
<text xml:space="preserve" text-anchor="start" x="175.5" y="-201.38" font-family="Helvetica,sans-Serif" font-size="10.00">TemperatureController</text>
<text xml:space="preserve" text-anchor="middle" x="223.5" y="-190.12" font-family="Helvetica,sans-Serif" font-size="10.00">::_checkButtonPress</text>
</a>
</g>
</g>
<!-- Node1&#45;&gt;Node2 -->
<g id="edge1_Node000001_Node000002" class="edge">
<title>Node1&#45;&gt;Node2</title>
<g id="a_edge1_Node000001_Node000002"><a xlink:title=" ">
<path fill="none" stroke="#63b8ff" d="M109.82,-166.26C125.27,-170.84 142.33,-175.89 158.4,-180.65"/>
<polygon fill="#63b8ff" stroke="#63b8ff" points="157.3,-183.97 167.88,-183.45 159.28,-177.26 157.3,-183.97"/>
</a>
</g>
</g>
<!-- Node3 -->
<g id="Node000003" class="node">
<title>Node3</title>
<g id="a_Node000003"><a xlink:href="class_temperature_controller.html#a1d2745c323f7094beac8f406825499b7" target="_top" xlink:title=" ">
<polygon fill="white" stroke="#666666" points="299,-165.88 148,-165.88 148,-135.38 299,-135.38 299,-165.88"/>
<text xml:space="preserve" text-anchor="start" x="156" y="-152.38" font-family="Helvetica,sans-Serif" font-size="10.00">TemperatureController</text>
<text xml:space="preserve" text-anchor="middle" x="223.5" y="-141.12" font-family="Helvetica,sans-Serif" font-size="10.00">::_handleAlarmDisplayRotation</text>
</a>
</g>
</g>
<!-- Node1&#45;&gt;Node3 -->
<g id="edge2_Node000001_Node000003" class="edge">
<title>Node1&#45;&gt;Node3</title>
<g id="a_edge2_Node000001_Node000003"><a xlink:title=" ">
<path fill="none" stroke="#63b8ff" d="M112.11,-150.62C119.84,-150.62 127.94,-150.62 136.08,-150.62"/>
<polygon fill="#63b8ff" stroke="#63b8ff" points="136.08,-154.13 146.08,-150.63 136.08,-147.13 136.08,-154.13"/>
</a>
</g>
</g>
<!-- Node8 -->
<g id="Node000008" class="node">
<title>Node8</title>
<g id="a_Node000008"><a xlink:href="class_temperature_controller.html#a477597992aa9362076843f37b648741a" target="_top" xlink:title=" ">
<polygon fill="white" stroke="#666666" points="281.38,-67.88 165.62,-67.88 165.62,-37.38 281.38,-37.38 281.38,-67.88"/>
<text xml:space="preserve" text-anchor="start" x="173.62" y="-54.38" font-family="Helvetica,sans-Serif" font-size="10.00">TemperatureController</text>
<text xml:space="preserve" text-anchor="middle" x="223.5" y="-43.12" font-family="Helvetica,sans-Serif" font-size="10.00">::_updateAlarmQueues</text>
</a>
</g>
</g>
<!-- Node1&#45;&gt;Node8 -->
<g id="edge7_Node000001_Node000008" class="edge">
<title>Node1&#45;&gt;Node8</title>
<g id="a_edge7_Node000001_Node000008"><a xlink:title=" ">
<path fill="none" stroke="#63b8ff" d="M83.59,-134.88C111.46,-118.38 155.42,-92.35 186.41,-74"/>
<polygon fill="#63b8ff" stroke="#63b8ff" points="187.85,-77.21 194.67,-69.1 184.29,-71.19 187.85,-77.21"/>
</a>
</g>
</g>
<!-- Node4 -->
<g id="Node000004" class="node">
<title>Node4</title>
<g id="a_Node000004"><a xlink:href="class_temperature_controller.html#ac44de0834e13cec755e247ce1df21f09" target="_top" xlink:title=" ">
<polygon fill="white" stroke="#666666" points="503.25,-263.88 335,-263.88 335,-233.38 503.25,-233.38 503.25,-263.88"/>
<text xml:space="preserve" text-anchor="start" x="343" y="-250.38" font-family="Helvetica,sans-Serif" font-size="10.00">TemperatureController</text>
<text xml:space="preserve" text-anchor="middle" x="419.12" y="-239.12" font-family="Helvetica,sans-Serif" font-size="10.00">::_displayNextAcknowledgedAlarm</text>
</a>
</g>
</g>
<!-- Node3&#45;&gt;Node4 -->
<g id="edge3_Node000003_Node000004" class="edge">
<title>Node3&#45;&gt;Node4</title>
<g id="a_edge3_Node000003_Node000004"><a xlink:title=" ">
<path fill="none" stroke="#63b8ff" d="M282.76,-166.25C288.49,-168.93 294.02,-172.03 299,-175.62 320.62,-191.24 313.14,-208.35 335,-223.62 337.19,-225.15 339.47,-226.59 341.83,-227.94"/>
<polygon fill="#63b8ff" stroke="#63b8ff" points="340,-230.94 350.51,-232.34 343.17,-224.7 340,-230.94"/>
</a>
</g>
</g>
<!-- Node5 -->
<g id="Node000005" class="node">
<title>Node5</title>
<g id="a_Node000005"><a xlink:href="class_temperature_controller.html#a7ca5124357f98bcd52316cf017341b09" target="_top" xlink:title=" ">
<polygon fill="white" stroke="#666666" points="485.25,-214.88 353,-214.88 353,-184.38 485.25,-184.38 485.25,-214.88"/>
<text xml:space="preserve" text-anchor="start" x="361" y="-201.38" font-family="Helvetica,sans-Serif" font-size="10.00">TemperatureController</text>
<text xml:space="preserve" text-anchor="middle" x="419.12" y="-190.12" font-family="Helvetica,sans-Serif" font-size="10.00">::_displayNextActiveAlarm</text>
</a>
</g>
</g>
<!-- Node3&#45;&gt;Node5 -->
<g id="edge4_Node000003_Node000005" class="edge">
<title>Node3&#45;&gt;Node5</title>
<g id="a_edge4_Node000003_Node000005"><a xlink:title=" ">
<path fill="none" stroke="#63b8ff" d="M286.56,-166.33C305.15,-171.03 325.7,-176.24 344.94,-181.1"/>
<polygon fill="#63b8ff" stroke="#63b8ff" points="344.06,-184.49 354.61,-183.55 345.78,-177.71 344.06,-184.49"/>
</a>
</g>
</g>
<!-- Node6 -->
<g id="Node000006" class="node">
<title>Node6</title>
<g id="a_Node000006"><a xlink:href="class_temperature_controller.html#a28e81945f5235e161e6c532b428d36d2" target="_top" xlink:title=" ">
<polygon fill="white" stroke="#666666" points="490.12,-165.88 348.12,-165.88 348.12,-135.38 490.12,-135.38 490.12,-165.88"/>
<text xml:space="preserve" text-anchor="start" x="356.12" y="-152.38" font-family="Helvetica,sans-Serif" font-size="10.00">TemperatureController</text>
<text xml:space="preserve" text-anchor="middle" x="419.12" y="-141.12" font-family="Helvetica,sans-Serif" font-size="10.00">::_showOKAndTurnOffOLED</text>
</a>
</g>
</g>
<!-- Node3&#45;&gt;Node6 -->
<g id="edge5_Node000003_Node000006" class="edge">
<title>Node3&#45;&gt;Node6</title>
<g id="a_edge5_Node000003_Node000006"><a xlink:title=" ">
<path fill="none" stroke="#63b8ff" d="M299.36,-150.62C311.58,-150.62 324.3,-150.62 336.67,-150.62"/>
<polygon fill="#63b8ff" stroke="#63b8ff" points="336.39,-154.13 346.39,-150.63 336.39,-147.13 336.39,-154.13"/>
</a>
</g>
</g>
<!-- Node7 -->
<g id="Node000007" class="node">
<title>Node7</title>
<g id="a_Node000007"><a xlink:href="class_temperature_controller.html#a4d36576f7d6ab8f5222a082878314912" target="_top" xlink:title=" ">
<polygon fill="white" stroke="#666666" points="479.62,-116.88 358.62,-116.88 358.62,-86.38 479.62,-86.38 479.62,-116.88"/>
<text xml:space="preserve" text-anchor="start" x="366.62" y="-103.38" font-family="Helvetica,sans-Serif" font-size="10.00">TemperatureController</text>
<text xml:space="preserve" text-anchor="middle" x="419.12" y="-92.12" font-family="Helvetica,sans-Serif" font-size="10.00">::_updateNormalDisplay</text>
</a>
</g>
</g>
<!-- Node3&#45;&gt;Node7 -->
<g id="edge6_Node000003_Node000007" class="edge">
<title>Node3&#45;&gt;Node7</title>
<g id="a_edge6_Node000003_Node000007"><a xlink:title=" ">
<path fill="none" stroke="#63b8ff" d="M286.56,-134.92C305.98,-130.01 327.54,-124.55 347.5,-119.5"/>
<polygon fill="#63b8ff" stroke="#63b8ff" points="348.09,-122.96 356.93,-117.11 346.37,-116.17 348.09,-122.96"/>
</a>
</g>
</g>
<!-- Node9 -->
<g id="Node000009" class="node">
<title>Node9</title>
<g id="a_Node000009"><a xlink:href="class_temperature_controller.html#af58201023d15de003d4f1b9a9771a9e3" target="_top" xlink:title=" ">
<polygon fill="white" stroke="#666666" points="475.12,-67.88 363.12,-67.88 363.12,-37.38 475.12,-37.38 475.12,-67.88"/>
<text xml:space="preserve" text-anchor="start" x="371.12" y="-54.38" font-family="Helvetica,sans-Serif" font-size="10.00">TemperatureController</text>
<text xml:space="preserve" text-anchor="middle" x="419.12" y="-43.12" font-family="Helvetica,sans-Serif" font-size="10.00">::getActiveAlarms</text>
</a>
</g>
</g>
<!-- Node8&#45;&gt;Node9 -->
<g id="edge8_Node000008_Node000009" class="edge">
<title>Node8&#45;&gt;Node9</title>
<g id="a_edge8_Node000008_Node000009"><a xlink:title=" ">
<path fill="none" stroke="#63b8ff" d="M281.81,-52.62C303.65,-52.62 328.74,-52.62 351.39,-52.62"/>
<polygon fill="#63b8ff" stroke="#63b8ff" points="351.12,-56.13 361.12,-52.63 351.12,-49.13 351.12,-56.13"/>
</a>
</g>
</g>
<!-- Node10 -->
<g id="Node000010" class="node">
<title>Node10</title>
<g id="a_Node000010"><a xlink:href="class_alarm.html#a7a4a3290a6a659542f82fe08a96736a8" target="_top" xlink:title="Get the alarm creation timestamp.">
<polygon fill="white" stroke="#666666" points="474,-19.25 364.25,-19.25 364.25,0 474,0 474,-19.25"/>
<text xml:space="preserve" text-anchor="middle" x="419.12" y="-5.75" font-family="Helvetica,sans-Serif" font-size="10.00">Alarm::getTimestamp</text>
</a>
</g>
</g>
<!-- Node8&#45;&gt;Node10 -->
<g id="edge9_Node000008_Node000010" class="edge">
<title>Node8&#45;&gt;Node10</title>
<g id="a_edge9_Node000008_Node000010"><a xlink:title=" ">
<path fill="none" stroke="#63b8ff" d="M281.81,-39.9C306.95,-34.31 336.38,-27.78 361.45,-22.21"/>
<polygon fill="#63b8ff" stroke="#63b8ff" points="362.15,-25.64 371.16,-20.06 360.64,-18.81 362.15,-25.64"/>
</a>
</g>
</g>
</g>
</svg>
