<?xml version="1.0" encoding="UTF-8" standalone="no"?>
<!DOCTYPE svg PUBLIC "-//W3C//DTD SVG 1.1//EN"
 "http://www.w3.org/Graphics/SVG/1.1/DTD/svg11.dtd">
<!-- Generated by graphviz version 13.1.0 (20250701.0955)
 -->
<!-- Title: TemperatureController::bindSensorToPointByChipSelect Pages: 1 -->
<svg width="525pt" height="285pt"
 viewBox="0.00 0.00 525.00 285.00" xmlns="http://www.w3.org/2000/svg" xmlns:xlink="http://www.w3.org/1999/xlink">
<g id="graph0" class="graph" transform="scale(1 1) rotate(0) translate(4 281.25)">
<title>TemperatureController::bindSensorToPointByChipSelect</title>
<!-- Node1 -->
<g id="Node000001" class="node">
<title>Node1</title>
<g id="a_Node000001"><a xlink:title="Bind PT1000 sensor to measurement point by chip select pin.">
<polygon fill="#999999" stroke="#666666" points="163.75,-147.88 0,-147.88 0,-117.38 163.75,-117.38 163.75,-147.88"/>
<text xml:space="preserve" text-anchor="start" x="8" y="-134.38" font-family="Helvetica,sans-Serif" font-size="10.00">TemperatureController</text>
<text xml:space="preserve" text-anchor="middle" x="81.88" y="-123.12" font-family="Helvetica,sans-Serif" font-size="10.00">::bindSensorToPointByChipSelect</text>
</a>
</g>
</g>
<!-- Node2 -->
<g id="Node000002" class="node">
<title>Node2</title>
<g id="a_Node000002"><a xlink:href="class_measurement_point.html#a3c3af28d9aabc9e5b9e2e370eaa29ce0" target="_top" xlink:title="Bind a physical sensor to this measurement point.">
<polygon fill="white" stroke="#666666" points="360.5,-277.25 208,-277.25 208,-258 360.5,-258 360.5,-277.25"/>
<text xml:space="preserve" text-anchor="middle" x="284.25" y="-263.75" font-family="Helvetica,sans-Serif" font-size="10.00">MeasurementPoint::bindSensor</text>
</a>
</g>
</g>
<!-- Node1&#45;&gt;Node2 -->
<g id="edge1_Node000001_Node000002" class="edge">
<title>Node1&#45;&gt;Node2</title>
<g id="a_edge1_Node000001_Node000002"><a xlink:title=" ">
<path fill="none" stroke="#63b8ff" d="M93.86,-148.15C112.57,-173.38 153.15,-223.01 199.75,-248.62 203.18,-250.51 206.78,-252.21 210.49,-253.73"/>
<polygon fill="#63b8ff" stroke="#63b8ff" points="209.14,-256.97 219.73,-257.1 211.53,-250.39 209.14,-256.97"/>
</a>
</g>
</g>
<!-- Node3 -->
<g id="Node000003" class="node">
<title>Node3</title>
<g id="a_Node000003"><a xlink:href="class_temperature_controller.html#a31a8a32868beaae06649a5006ca96599" target="_top" xlink:title="Find PT1000 sensor by chip select pin.">
<polygon fill="white" stroke="#666666" points="348.5,-239.88 220,-239.88 220,-209.38 348.5,-209.38 348.5,-239.88"/>
<text xml:space="preserve" text-anchor="start" x="228" y="-226.38" font-family="Helvetica,sans-Serif" font-size="10.00">TemperatureController</text>
<text xml:space="preserve" text-anchor="middle" x="284.25" y="-215.12" font-family="Helvetica,sans-Serif" font-size="10.00">::findSensorByChipSelect</text>
</a>
</g>
</g>
<!-- Node1&#45;&gt;Node3 -->
<g id="edge2_Node000001_Node000003" class="edge">
<title>Node1&#45;&gt;Node3</title>
<g id="a_edge2_Node000001_Node000003"><a xlink:title=" ">
<path fill="none" stroke="#63b8ff" d="M106.22,-148.15C129.23,-162.94 165.8,-185.04 199.75,-199.62 204.33,-201.59 209.12,-203.47 213.98,-205.24"/>
<polygon fill="#63b8ff" stroke="#63b8ff" points="212.67,-208.49 223.26,-208.47 214.96,-201.88 212.67,-208.49"/>
</a>
</g>
</g>
<!-- Node4 -->
<g id="Node000004" class="node">
<title>Node4</title>
<g id="a_Node000004"><a xlink:href="class_temperature_controller.html#a494f057c234b4ff7526bde271aec9267" target="_top" xlink:title="Get measurement point by address.">
<polygon fill="white" stroke="#666666" points="342.88,-190.88 225.62,-190.88 225.62,-160.38 342.88,-160.38 342.88,-190.88"/>
<text xml:space="preserve" text-anchor="start" x="233.62" y="-177.38" font-family="Helvetica,sans-Serif" font-size="10.00">TemperatureController</text>
<text xml:space="preserve" text-anchor="middle" x="284.25" y="-166.12" font-family="Helvetica,sans-Serif" font-size="10.00">::getMeasurementPoint</text>
</a>
</g>
</g>
<!-- Node1&#45;&gt;Node4 -->
<g id="edge3_Node000001_Node000004" class="edge">
<title>Node1&#45;&gt;Node4</title>
<g id="a_edge3_Node000001_Node000004"><a xlink:title=" ">
<path fill="none" stroke="#63b8ff" d="M156.07,-148.33C175.04,-152.4 195.41,-156.78 214.17,-160.8"/>
<polygon fill="#63b8ff" stroke="#63b8ff" points="213.32,-164.2 223.83,-162.87 214.79,-157.35 213.32,-164.2"/>
</a>
</g>
</g>
<!-- Node7 -->
<g id="Node000007" class="node">
<title>Node7</title>
<g id="a_Node000007"><a xlink:href="class_measurement_point.html#aa3a80d373c7609c7b178bf7353ffdd7a" target="_top" xlink:title="Get measurement point name.">
<polygon fill="white" stroke="#666666" points="356,-142.25 212.5,-142.25 212.5,-123 356,-123 356,-142.25"/>
<text xml:space="preserve" text-anchor="middle" x="284.25" y="-128.75" font-family="Helvetica,sans-Serif" font-size="10.00">MeasurementPoint::getName</text>
</a>
</g>
</g>
<!-- Node1&#45;&gt;Node7 -->
<g id="edge6_Node000001_Node000007" class="edge">
<title>Node1&#45;&gt;Node7</title>
<g id="a_edge6_Node000001_Node000007"><a xlink:title=" ">
<path fill="none" stroke="#63b8ff" d="M164.09,-132.62C176.17,-132.62 188.64,-132.62 200.75,-132.62"/>
<polygon fill="#63b8ff" stroke="#63b8ff" points="200.71,-136.13 210.71,-132.63 200.71,-129.13 200.71,-136.13"/>
</a>
</g>
</g>
<!-- Node8 -->
<g id="Node000008" class="node">
<title>Node8</title>
<g id="a_Node000008"><a xlink:href="class_logger_manager.html#a5c1373ccc47f4112b596fe6f84fbbc21" target="_top" xlink:title="Log informational message (static convenience method)">
<polygon fill="white" stroke="#666666" points="336.5,-105.25 232,-105.25 232,-86 336.5,-86 336.5,-105.25"/>
<text xml:space="preserve" text-anchor="middle" x="284.25" y="-91.75" font-family="Helvetica,sans-Serif" font-size="10.00">LoggerManager::info</text>
</a>
</g>
</g>
<!-- Node1&#45;&gt;Node8 -->
<g id="edge7_Node000001_Node000008" class="edge">
<title>Node1&#45;&gt;Node8</title>
<g id="a_edge7_Node000001_Node000008"><a xlink:title=" ">
<path fill="none" stroke="#63b8ff" d="M164.09,-117.63C182.86,-114.16 202.56,-110.52 220.42,-107.23"/>
<polygon fill="#63b8ff" stroke="#63b8ff" points="220.87,-110.7 230.07,-105.44 219.6,-103.82 220.87,-110.7"/>
</a>
</g>
</g>
<!-- Node9 -->
<g id="Node000009" class="node">
<title>Node9</title>
<g id="a_Node000009"><a xlink:href="class_temperature_controller.html#ad3819418f9f301f3f7047ba686a11be0" target="_top" xlink:title="Unbind sensor from any measurement point it&#39;s bound to.">
<polygon fill="white" stroke="#666666" points="368.75,-67.88 199.75,-67.88 199.75,-37.38 368.75,-37.38 368.75,-67.88"/>
<text xml:space="preserve" text-anchor="start" x="207.75" y="-54.38" font-family="Helvetica,sans-Serif" font-size="10.00">TemperatureController</text>
<text xml:space="preserve" text-anchor="middle" x="284.25" y="-43.12" font-family="Helvetica,sans-Serif" font-size="10.00">::unbindSensorFromPointBySensor</text>
</a>
</g>
</g>
<!-- Node1&#45;&gt;Node9 -->
<g id="edge8_Node000001_Node000009" class="edge">
<title>Node1&#45;&gt;Node9</title>
<g id="a_edge8_Node000001_Node000009"><a xlink:title=" ">
<path fill="none" stroke="#63b8ff" d="M112.06,-116.96C135.35,-104.87 169.05,-88.3 199.75,-76.62 204.11,-74.97 208.64,-73.36 213.23,-71.81"/>
<polygon fill="#63b8ff" stroke="#63b8ff" points="214.12,-75.2 222.56,-68.79 211.97,-68.54 214.12,-75.2"/>
</a>
</g>
</g>
<!-- Node11 -->
<g id="Node000011" class="node">
<title>Node11</title>
<g id="a_Node000011"><a xlink:href="class_logger_manager.html#a0d52b0ff7bff22817e987ad753102854" target="_top" xlink:title="Log warning message (static convenience method)">
<polygon fill="white" stroke="#666666" points="345.5,-19.25 223,-19.25 223,0 345.5,0 345.5,-19.25"/>
<text xml:space="preserve" text-anchor="middle" x="284.25" y="-5.75" font-family="Helvetica,sans-Serif" font-size="10.00">LoggerManager::warning</text>
</a>
</g>
</g>
<!-- Node1&#45;&gt;Node11 -->
<g id="edge10_Node000001_Node000011" class="edge">
<title>Node1&#45;&gt;Node11</title>
<g id="a_edge10_Node000001_Node000011"><a xlink:title=" ">
<path fill="none" stroke="#63b8ff" d="M95.51,-117.25C115.27,-94.27 155.8,-51.25 199.75,-28.62 203.65,-26.62 207.77,-24.82 211.99,-23.21"/>
<polygon fill="#63b8ff" stroke="#63b8ff" points="212.89,-26.6 221.23,-20.07 210.63,-19.97 212.89,-26.6"/>
</a>
</g>
</g>
<!-- Node5 -->
<g id="Node000005" class="node">
<title>Node5</title>
<g id="a_Node000005"><a xlink:href="class_temperature_controller.html#ad322a5bab8d5788a586206004248f673" target="_top" xlink:title="Check if address is for DS18B20 sensor.">
<polygon fill="white" stroke="#666666" points="516.75,-214.88 404.75,-214.88 404.75,-184.38 516.75,-184.38 516.75,-214.88"/>
<text xml:space="preserve" text-anchor="start" x="412.75" y="-201.38" font-family="Helvetica,sans-Serif" font-size="10.00">TemperatureController</text>
<text xml:space="preserve" text-anchor="middle" x="460.75" y="-190.12" font-family="Helvetica,sans-Serif" font-size="10.00">::isDS18B20Address</text>
</a>
</g>
</g>
<!-- Node4&#45;&gt;Node5 -->
<g id="edge4_Node000004_Node000005" class="edge">
<title>Node4&#45;&gt;Node5</title>
<g id="a_edge4_Node000004_Node000005"><a xlink:title=" ">
<path fill="none" stroke="#63b8ff" d="M343.36,-183.62C359.31,-185.81 376.72,-188.21 393.11,-190.46"/>
<polygon fill="#63b8ff" stroke="#63b8ff" points="392.38,-193.89 402.76,-191.79 393.33,-186.96 392.38,-193.89"/>
</a>
</g>
</g>
<!-- Node6 -->
<g id="Node000006" class="node">
<title>Node6</title>
<g id="a_Node000006"><a xlink:href="class_temperature_controller.html#a13125ddcf29cb56d27403818543618af" target="_top" xlink:title="Check if address is for PT1000 sensor.">
<polygon fill="white" stroke="#666666" points="516.75,-165.88 404.75,-165.88 404.75,-135.38 516.75,-135.38 516.75,-165.88"/>
<text xml:space="preserve" text-anchor="start" x="412.75" y="-152.38" font-family="Helvetica,sans-Serif" font-size="10.00">TemperatureController</text>
<text xml:space="preserve" text-anchor="middle" x="460.75" y="-141.12" font-family="Helvetica,sans-Serif" font-size="10.00">::isPT1000Address</text>
</a>
</g>
</g>
<!-- Node4&#45;&gt;Node6 -->
<g id="edge5_Node000004_Node000006" class="edge">
<title>Node4&#45;&gt;Node6</title>
<g id="a_edge5_Node000004_Node000006"><a xlink:title=" ">
<path fill="none" stroke="#63b8ff" d="M343.36,-167.3C359.31,-165.02 376.72,-162.52 393.11,-160.17"/>
<polygon fill="#63b8ff" stroke="#63b8ff" points="393.36,-163.67 402.77,-158.79 392.37,-156.74 393.36,-163.67"/>
</a>
</g>
</g>
<!-- Node10 -->
<g id="Node000010" class="node">
<title>Node10</title>
<g id="a_Node000010"><a xlink:href="class_sensor.html#a60ec96ed03660b42681c1bcc99007033" target="_top" xlink:title="Get sensor name.">
<polygon fill="white" stroke="#666666" points="507,-62.25 414.5,-62.25 414.5,-43 507,-43 507,-62.25"/>
<text xml:space="preserve" text-anchor="middle" x="460.75" y="-48.75" font-family="Helvetica,sans-Serif" font-size="10.00">Sensor::getName</text>
</a>
</g>
</g>
<!-- Node9&#45;&gt;Node10 -->
<g id="edge9_Node000009_Node000010" class="edge">
<title>Node9&#45;&gt;Node10</title>
<g id="a_edge9_Node000009_Node000010"><a xlink:title=" ">
<path fill="none" stroke="#63b8ff" d="M369.18,-52.62C380.59,-52.62 392.08,-52.62 402.86,-52.62"/>
<polygon fill="#63b8ff" stroke="#63b8ff" points="402.73,-56.13 412.73,-52.63 402.73,-49.13 402.73,-56.13"/>
</a>
</g>
</g>
</g>
</svg>
