<?xml version="1.0" encoding="UTF-8" standalone="no"?>
<!DOCTYPE svg PUBLIC "-//W3C//DTD SVG 1.1//EN"
 "http://www.w3.org/Graphics/SVG/1.1/DTD/svg11.dtd">
<!-- Generated by graphviz version 13.1.0 (20250701.0955)
 -->
<!-- Title: Alarm::getStageString Pages: 1 -->
<svg width="456pt" height="140pt"
 viewBox="0.00 0.00 456.00 140.00" xmlns="http://www.w3.org/2000/svg" xmlns:xlink="http://www.w3.org/1999/xlink">
<g id="graph0" class="graph" transform="scale(1 1) rotate(0) translate(4 136.25)">
<title>Alarm::getStageString</title>
<!-- Node1 -->
<g id="Node000001" class="node">
<title>Node1</title>
<g id="a_Node000001"><a xlink:title=" ">
<polygon fill="#999999" stroke="#666666" points="447.75,-75.25 335.75,-75.25 335.75,-56 447.75,-56 447.75,-75.25"/>
<text xml:space="preserve" text-anchor="middle" x="391.75" y="-61.75" font-family="Helvetica,sans-Serif" font-size="10.00">Alarm::getStageString</text>
</a>
</g>
</g>
<!-- Node2 -->
<g id="Node000002" class="node">
<title>Node2</title>
<g id="a_Node000002"><a xlink:href="class_alarm.html#a28229f40ec51928641f04cd1e505bd6c" target="_top" xlink:title=" ">
<polygon fill="white" stroke="#666666" points="299.75,-132.25 179.5,-132.25 179.5,-113 299.75,-113 299.75,-132.25"/>
<text xml:space="preserve" text-anchor="middle" x="239.62" y="-118.75" font-family="Helvetica,sans-Serif" font-size="10.00">Alarm::_checkCondition</text>
</a>
</g>
</g>
<!-- Node1&#45;&gt;Node2 -->
<g id="edge1_Node000001_Node000002" class="edge">
<title>Node1&#45;&gt;Node2</title>
<g id="a_edge1_Node000001_Node000002"><a xlink:title=" ">
<path fill="none" stroke="#63b8ff" d="M353.71,-79.69C326.84,-89.89 291.15,-103.44 267.11,-112.57"/>
<polygon fill="#63b8ff" stroke="#63b8ff" points="354.73,-83.04 362.84,-76.22 352.25,-76.5 354.73,-83.04"/>
</a>
</g>
</g>
<!-- Node3 -->
<g id="Node000003" class="node">
<title>Node3</title>
<g id="a_Node000003"><a xlink:href="class_alarm.html#abc87fe39e6a9b5beb9f09df780f67621" target="_top" xlink:title=" ">
<polygon fill="white" stroke="#666666" points="130.75,-106.25 12.75,-106.25 12.75,-87 130.75,-87 130.75,-106.25"/>
<text xml:space="preserve" text-anchor="middle" x="71.75" y="-92.75" font-family="Helvetica,sans-Serif" font-size="10.00">Alarm::updateCondition</text>
</a>
</g>
</g>
<!-- Node1&#45;&gt;Node3 -->
<g id="edge7_Node000001_Node000003" class="edge">
<title>Node1&#45;&gt;Node3</title>
<g id="a_edge7_Node000001_Node000003"><a xlink:title=" ">
<path fill="none" stroke="#63b8ff" d="M323.92,-72.14C266.82,-77.71 185.49,-85.63 131,-90.95"/>
<polygon fill="#63b8ff" stroke="#63b8ff" points="324.24,-75.63 333.85,-71.17 323.56,-68.66 324.24,-75.63"/>
</a>
</g>
</g>
<!-- Node4 -->
<g id="Node000004" class="node">
<title>Node4</title>
<g id="a_Node000004"><a xlink:href="class_alarm.html#aa14f5a764303b269f04573867e2e4fc8" target="_top" xlink:title=" ">
<polygon fill="white" stroke="#666666" points="291.88,-56.25 187.38,-56.25 187.38,-37 291.88,-37 291.88,-56.25"/>
<text xml:space="preserve" text-anchor="middle" x="239.62" y="-42.75" font-family="Helvetica,sans-Serif" font-size="10.00">Alarm::acknowledge</text>
</a>
</g>
</g>
<!-- Node1&#45;&gt;Node4 -->
<g id="edge3_Node000001_Node000004" class="edge">
<title>Node1&#45;&gt;Node4</title>
<g id="a_edge3_Node000001_Node000004"><a xlink:title=" ">
<path fill="none" stroke="#63b8ff" d="M324.13,-57.19C313.32,-55.83 302.27,-54.43 291.89,-53.11"/>
<polygon fill="#63b8ff" stroke="#63b8ff" points="323.41,-60.63 333.77,-58.41 324.29,-53.69 323.41,-60.63"/>
</a>
</g>
</g>
<!-- Node6 -->
<g id="Node000006" class="node">
<title>Node6</title>
<g id="a_Node000006"><a xlink:href="class_alarm.html#adaf4b74537e11d5643ba5a8ae07fe10e" target="_top" xlink:title=" ">
<polygon fill="white" stroke="#666666" points="293.75,-19.25 185.5,-19.25 185.5,0 293.75,0 293.75,-19.25"/>
<text xml:space="preserve" text-anchor="middle" x="239.62" y="-5.75" font-family="Helvetica,sans-Serif" font-size="10.00">Alarm::getStatusText</text>
</a>
</g>
</g>
<!-- Node1&#45;&gt;Node6 -->
<g id="edge5_Node000001_Node000006" class="edge">
<title>Node1&#45;&gt;Node6</title>
<g id="a_edge5_Node000001_Node000006"><a xlink:title=" ">
<path fill="none" stroke="#63b8ff" d="M358.44,-51.21C341.19,-43.74 319.49,-34.73 299.75,-27.62 292.08,-24.86 283.75,-22.15 275.83,-19.71"/>
<polygon fill="#63b8ff" stroke="#63b8ff" points="356.6,-54.22 367.17,-55.02 359.41,-47.81 356.6,-54.22"/>
</a>
</g>
</g>
<!-- Node2&#45;&gt;Node3 -->
<g id="edge2_Node000002_Node000003" class="edge">
<title>Node2&#45;&gt;Node3</title>
<g id="a_edge2_Node000002_Node000003"><a xlink:title=" ">
<path fill="none" stroke="#63b8ff" d="M168.06,-111.56C155.77,-109.64 143.11,-107.65 131.19,-105.79"/>
<polygon fill="#63b8ff" stroke="#63b8ff" points="167.29,-114.99 177.71,-113.08 168.38,-108.07 167.29,-114.99"/>
</a>
</g>
</g>
<!-- Node5 -->
<g id="Node000005" class="node">
<title>Node5</title>
<g id="a_Node000005"><a xlink:href="class_temperature_controller.html#a5f1c8fce1e5efb637bfe86bdb609a3b7" target="_top" xlink:title=" ">
<polygon fill="white" stroke="#666666" points="143.5,-55.5 0,-55.5 0,-13.75 143.5,-13.75 143.5,-55.5"/>
<text xml:space="preserve" text-anchor="start" x="8" y="-42" font-family="Helvetica,sans-Serif" font-size="10.00">TemperatureController</text>
<text xml:space="preserve" text-anchor="start" x="8" y="-30.75" font-family="Helvetica,sans-Serif" font-size="10.00">::acknowledgeHighestPriority</text>
<text xml:space="preserve" text-anchor="middle" x="71.75" y="-19.5" font-family="Helvetica,sans-Serif" font-size="10.00">Alarm</text>
</a>
</g>
</g>
<!-- Node4&#45;&gt;Node5 -->
<g id="edge4_Node000004_Node000005" class="edge">
<title>Node4&#45;&gt;Node5</title>
<g id="a_edge4_Node000004_Node000005"><a xlink:title=" ">
<path fill="none" stroke="#63b8ff" d="M175.89,-42.09C165.4,-41.33 154.46,-40.54 143.79,-39.76"/>
<polygon fill="#63b8ff" stroke="#63b8ff" points="175.31,-45.55 185.54,-42.78 175.82,-38.57 175.31,-45.55"/>
</a>
</g>
</g>
<!-- Node6&#45;&gt;Node5 -->
<g id="edge6_Node000006_Node000005" class="edge">
<title>Node6&#45;&gt;Node5</title>
<g id="a_edge6_Node000006_Node000005"><a xlink:title=" ">
<path fill="none" stroke="#63b8ff" d="M173.88,-19.38C164.05,-20.86 153.86,-22.4 143.9,-23.9"/>
<polygon fill="#63b8ff" stroke="#63b8ff" points="174.36,-22.85 183.73,-17.9 173.32,-15.93 174.36,-22.85"/>
</a>
</g>
</g>
</g>
</svg>
