<?xml version="1.0" encoding="UTF-8" standalone="no"?>
<!DOCTYPE svg PUBLIC "-//W3C//DTD SVG 1.1//EN"
 "http://www.w3.org/Graphics/SVG/1.1/DTD/svg11.dtd">
<!-- Generated by graphviz version 13.1.0 (20250701.0955)
 -->
<!-- Title: LoggerManager::_generateEventLogFileName Pages: 1 -->
<svg width="629pt" height="168pt"
 viewBox="0.00 0.00 629.00 168.00" xmlns="http://www.w3.org/2000/svg" xmlns:xlink="http://www.w3.org/1999/xlink">
<g id="graph0" class="graph" transform="scale(1 1) rotate(0) translate(4 164.36)">
<title>LoggerManager::_generateEventLogFileName</title>
<!-- Node1 -->
<g id="Node000001" class="node">
<title>Node1</title>
<g id="a_Node000001"><a xlink:title=" ">
<polygon fill="#999999" stroke="#666666" points="621.25,-94.91 489.75,-94.91 489.75,-64.41 621.25,-64.41 621.25,-94.91"/>
<text xml:space="preserve" text-anchor="start" x="497.75" y="-81.41" font-family="Helvetica,sans-Serif" font-size="10.00">LoggerManager::_generate</text>
<text xml:space="preserve" text-anchor="middle" x="555.5" y="-70.16" font-family="Helvetica,sans-Serif" font-size="10.00">EventLogFileName</text>
</a>
</g>
</g>
<!-- Node2 -->
<g id="Node000002" class="node">
<title>Node2</title>
<g id="a_Node000002"><a xlink:href="$class_logger_manager.html#a59e0690d922ec968bf64b1b5dda8fcbe" xlink:title="Initialize the logging system.">
<polygon fill="white" stroke="#666666" points="109.75,-145.28 8.25,-145.28 8.25,-126.03 109.75,-126.03 109.75,-145.28"/>
<text xml:space="preserve" text-anchor="middle" x="59" y="-131.78" font-family="Helvetica,sans-Serif" font-size="10.00">LoggerManager::init</text>
</a>
</g>
</g>
<!-- Node1&#45;&gt;Node2 -->
<g id="edge1_Node000001_Node000002" class="edge">
<title>Node1&#45;&gt;Node2</title>
<g id="a_edge1_Node000001_Node000002"><a xlink:title=" ">
<path fill="none" stroke="#63b8ff" d="M502.52,-99.07C449.98,-117.59 366.02,-144.16 290.75,-154.66 230.55,-163.05 214.48,-160.71 154,-154.66 136.44,-152.9 117.3,-149.34 100.91,-145.77"/>
<polygon fill="#63b8ff" stroke="#63b8ff" points="503.57,-102.41 511.82,-95.76 501.22,-95.82 503.57,-102.41"/>
</a>
</g>
</g>
<!-- Node3 -->
<g id="Node000003" class="node">
<title>Node3</title>
<g id="a_Node000003"><a xlink:href="$class_logger_manager.html#a0df2f2c96123da1989d0aaf6a4dc1615" xlink:title=" ">
<polygon fill="white" stroke="#666666" points="453.75,-89.28 326.75,-89.28 326.75,-70.03 453.75,-70.03 453.75,-89.28"/>
<text xml:space="preserve" text-anchor="middle" x="390.25" y="-75.78" font-family="Helvetica,sans-Serif" font-size="10.00">LoggerManager::logEvent</text>
</a>
</g>
</g>
<!-- Node1&#45;&gt;Node3 -->
<g id="edge2_Node000001_Node000003" class="edge">
<title>Node1&#45;&gt;Node3</title>
<g id="a_edge2_Node000001_Node000003"><a xlink:title=" ">
<path fill="none" stroke="#63b8ff" d="M478.2,-79.66C470.15,-79.66 462.03,-79.66 454.15,-79.66"/>
<polygon fill="#63b8ff" stroke="#63b8ff" points="478,-83.16 488,-79.66 478,-76.16 478,-83.16"/>
</a>
</g>
</g>
<!-- Node8 -->
<g id="Node000008" class="node">
<title>Node8</title>
<g id="a_Node000008"><a xlink:href="$class_logger_manager.html#a830c86f1f27d3799eab1de908fc6b647" xlink:title=" ">
<polygon fill="white" stroke="#666666" points="118,-34.28 0,-34.28 0,-15.03 118,-15.03 118,-34.28"/>
<text xml:space="preserve" text-anchor="middle" x="59" y="-20.78" font-family="Helvetica,sans-Serif" font-size="10.00">LoggerManager::update</text>
</a>
</g>
</g>
<!-- Node1&#45;&gt;Node8 -->
<g id="edge11_Node000001_Node000008" class="edge">
<title>Node1&#45;&gt;Node8</title>
<g id="a_edge11_Node000001_Node000008"><a xlink:title=" ">
<path fill="none" stroke="#63b8ff" d="M501.57,-60.18C448.96,-41.92 365.52,-15.95 290.75,-5.66 230.54,2.63 214.48,0.39 154,-5.66 136.44,-7.41 117.3,-10.97 100.91,-14.54"/>
<polygon fill="#63b8ff" stroke="#63b8ff" points="500.3,-63.44 510.89,-63.44 502.61,-56.83 500.3,-63.44"/>
</a>
</g>
</g>
<!-- Node4 -->
<g id="Node000004" class="node">
<title>Node4</title>
<g id="a_Node000004"><a xlink:href="$class_logger_manager.html#a5bda848c9bd87201bf6addd035c493b1" xlink:title=" ">
<polygon fill="white" stroke="#666666" points="288.5,-145.28 156.25,-145.28 156.25,-126.03 288.5,-126.03 288.5,-145.28"/>
<text xml:space="preserve" text-anchor="middle" x="222.38" y="-131.78" font-family="Helvetica,sans-Serif" font-size="10.00">LoggerManager::logCritical</text>
</a>
</g>
</g>
<!-- Node3&#45;&gt;Node4 -->
<g id="edge3_Node000003_Node000004" class="edge">
<title>Node3&#45;&gt;Node4</title>
<g id="a_edge3_Node000003_Node000004"><a xlink:title=" ">
<path fill="none" stroke="#63b8ff" d="M354.8,-93.99C336.04,-101.53 312.31,-110.64 290.75,-117.66 282.12,-120.47 272.76,-123.17 263.84,-125.6"/>
<polygon fill="#63b8ff" stroke="#63b8ff" points="355.87,-97.33 363.82,-90.33 353.24,-90.85 355.87,-97.33"/>
</a>
</g>
</g>
<!-- Node5 -->
<g id="Node000005" class="node">
<title>Node5</title>
<g id="a_Node000005"><a xlink:href="$class_logger_manager.html#a181e69ea6fe3c7e07e708eada2cc8024" xlink:title=" ">
<polygon fill="white" stroke="#666666" points="283.62,-108.28 161.12,-108.28 161.12,-89.03 283.62,-89.03 283.62,-108.28"/>
<text xml:space="preserve" text-anchor="middle" x="222.38" y="-94.78" font-family="Helvetica,sans-Serif" font-size="10.00">LoggerManager::logError</text>
</a>
</g>
</g>
<!-- Node3&#45;&gt;Node5 -->
<g id="edge4_Node000003_Node000005" class="edge">
<title>Node3&#45;&gt;Node5</title>
<g id="a_edge4_Node000003_Node000005"><a xlink:title=" ">
<path fill="none" stroke="#63b8ff" d="M315.29,-88.13C304.82,-89.33 294.16,-90.55 283.98,-91.71"/>
<polygon fill="#63b8ff" stroke="#63b8ff" points="315.5,-91.63 325.04,-87.01 314.7,-84.67 315.5,-91.63"/>
</a>
</g>
</g>
<!-- Node6 -->
<g id="Node000006" class="node">
<title>Node6</title>
<g id="a_Node000006"><a xlink:href="$class_logger_manager.html#a2503703714729cc95171579fe4ce0d4c" xlink:title=" ">
<polygon fill="white" stroke="#666666" points="281.38,-71.28 163.38,-71.28 163.38,-52.03 281.38,-52.03 281.38,-71.28"/>
<text xml:space="preserve" text-anchor="middle" x="222.38" y="-57.78" font-family="Helvetica,sans-Serif" font-size="10.00">LoggerManager::logInfo</text>
</a>
</g>
</g>
<!-- Node3&#45;&gt;Node6 -->
<g id="edge5_Node000003_Node000006" class="edge">
<title>Node3&#45;&gt;Node6</title>
<g id="a_edge5_Node000003_Node000006"><a xlink:title=" ">
<path fill="none" stroke="#63b8ff" d="M315.39,-71.64C304.14,-70.42 292.66,-69.17 281.8,-68"/>
<polygon fill="#63b8ff" stroke="#63b8ff" points="314.72,-75.09 325.04,-72.69 315.47,-68.13 314.72,-75.09"/>
</a>
</g>
</g>
<!-- Node9 -->
<g id="Node000009" class="node">
<title>Node9</title>
<g id="a_Node000009"><a xlink:href="$class_logger_manager.html#a5768a8a1983298c5b94e23dabe18f3bb" xlink:title=" ">
<polygon fill="white" stroke="#666666" points="290.75,-34.28 154,-34.28 154,-15.03 290.75,-15.03 290.75,-34.28"/>
<text xml:space="preserve" text-anchor="middle" x="222.38" y="-20.78" font-family="Helvetica,sans-Serif" font-size="10.00">LoggerManager::logWarning</text>
</a>
</g>
</g>
<!-- Node3&#45;&gt;Node9 -->
<g id="edge9_Node000003_Node000009" class="edge">
<title>Node3&#45;&gt;Node9</title>
<g id="a_edge9_Node000003_Node000009"><a xlink:title=" ">
<path fill="none" stroke="#63b8ff" d="M353.74,-65.35C335.14,-58.11 311.88,-49.43 290.75,-42.66 282.1,-39.88 272.74,-37.19 263.82,-34.77"/>
<polygon fill="#63b8ff" stroke="#63b8ff" points="352.39,-68.58 362.98,-68.99 354.95,-62.07 352.39,-68.58"/>
</a>
</g>
</g>
<!-- Node6&#45;&gt;Node2 -->
<g id="edge7_Node000006_Node000002" class="edge">
<title>Node6&#45;&gt;Node2</title>
<g id="a_edge7_Node000006_Node000002"><a xlink:title=" ">
<path fill="none" stroke="#63b8ff" d="M165.81,-75.18C161.77,-76.56 157.79,-78.06 154,-79.66 123.9,-92.35 91.81,-113.27 74,-125.63"/>
<polygon fill="#63b8ff" stroke="#63b8ff" points="166.66,-78.58 175.13,-72.22 164.54,-71.91 166.66,-78.58"/>
</a>
</g>
</g>
<!-- Node7 -->
<g id="Node000007" class="node">
<title>Node7</title>
<g id="a_Node000007"><a xlink:href="$class_logger_manager.html#a4acf0149820d73f4ed11340f63706841" xlink:title="Begin logging operations.">
<polygon fill="white" stroke="#666666" points="115,-71.28 3,-71.28 3,-52.03 115,-52.03 115,-71.28"/>
<text xml:space="preserve" text-anchor="middle" x="59" y="-57.78" font-family="Helvetica,sans-Serif" font-size="10.00">LoggerManager::begin</text>
</a>
</g>
</g>
<!-- Node6&#45;&gt;Node7 -->
<g id="edge6_Node000006_Node000007" class="edge">
<title>Node6&#45;&gt;Node7</title>
<g id="a_edge6_Node000006_Node000007"><a xlink:title=" ">
<path fill="none" stroke="#63b8ff" d="M151.66,-61.66C139.56,-61.66 127.13,-61.66 115.48,-61.66"/>
<polygon fill="#63b8ff" stroke="#63b8ff" points="151.6,-65.16 161.6,-61.66 151.6,-58.16 151.6,-65.16"/>
</a>
</g>
</g>
<!-- Node6&#45;&gt;Node8 -->
<g id="edge8_Node000006_Node000008" class="edge">
<title>Node6&#45;&gt;Node8</title>
<g id="a_edge8_Node000006_Node000008"><a xlink:title=" ">
<path fill="none" stroke="#63b8ff" d="M166.28,-49.02C145.97,-44.37 123.25,-39.16 104.04,-34.75"/>
<polygon fill="#63b8ff" stroke="#63b8ff" points="165.27,-52.38 175.8,-51.21 166.84,-45.56 165.27,-52.38"/>
</a>
</g>
</g>
<!-- Node9&#45;&gt;Node8 -->
<g id="edge10_Node000009_Node000008" class="edge">
<title>Node9&#45;&gt;Node8</title>
<g id="a_edge10_Node000009_Node000008"><a xlink:title=" ">
<path fill="none" stroke="#63b8ff" d="M142.42,-24.66C134.28,-24.66 126.12,-24.66 118.26,-24.66"/>
<polygon fill="#63b8ff" stroke="#63b8ff" points="142.36,-28.16 152.36,-24.66 142.36,-21.16 142.36,-28.16"/>
</a>
</g>
</g>
</g>
</svg>
