<?xml version="1.0" encoding="UTF-8" standalone="no"?>
<!DOCTYPE svg PUBLIC "-//W3C//DTD SVG 1.1//EN"
 "http://www.w3.org/Graphics/SVG/1.1/DTD/svg11.dtd">
<!-- Generated by graphviz version 13.1.0 (20250701.0955)
 -->
<!-- Title: MQTTManager::setConfig Pages: 1 -->
<svg width="529pt" height="64pt"
 viewBox="0.00 0.00 529.00 64.00" xmlns="http://www.w3.org/2000/svg" xmlns:xlink="http://www.w3.org/1999/xlink">
<g id="graph0" class="graph" transform="scale(1 1) rotate(0) translate(4 60.25)">
<title>MQTTManager::setConfig</title>
<!-- Node1 -->
<g id="Node000001" class="node">
<title>Node1</title>
<g id="a_Node000001"><a xlink:title="Set new configuration.">
<polygon fill="#999999" stroke="#666666" points="129.25,-37.25 0,-37.25 0,-18 129.25,-18 129.25,-37.25"/>
<text xml:space="preserve" text-anchor="middle" x="64.62" y="-23.75" font-family="Helvetica,sans-Serif" font-size="10.00">MQTTManager::setConfig</text>
</a>
</g>
</g>
<!-- Node2 -->
<g id="Node000002" class="node">
<title>Node2</title>
<g id="a_Node000002"><a xlink:href="class_m_q_t_t_manager.html#a129d111c8b1ae84640849bc206098853" target="_top" xlink:title="Attempt to connect to MQTT broker (non&#45;blocking)">
<polygon fill="white" stroke="#666666" points="335,-56.25 165.25,-56.25 165.25,-37 335,-37 335,-56.25"/>
<text xml:space="preserve" text-anchor="middle" x="250.12" y="-42.75" font-family="Helvetica,sans-Serif" font-size="10.00">MQTTManager::attemptConnection</text>
</a>
</g>
</g>
<!-- Node1&#45;&gt;Node2 -->
<g id="edge1_Node000001_Node000002" class="edge">
<title>Node1&#45;&gt;Node2</title>
<g id="a_edge1_Node000001_Node000002"><a xlink:title=" ">
<path fill="none" stroke="#63b8ff" d="M129.55,-34.24C137.28,-35.04 145.3,-35.88 153.37,-36.71"/>
<polygon fill="#63b8ff" stroke="#63b8ff" points="152.96,-40.19 163.27,-37.74 153.68,-33.22 152.96,-40.19"/>
</a>
</g>
</g>
<!-- Node3 -->
<g id="Node000003" class="node">
<title>Node3</title>
<g id="a_Node000003"><a xlink:href="class_m_q_t_t_manager.html#a6d569cd808a59dba0dcdf2239d54d6ab" target="_top" xlink:title="Save configuration to JSON file on SD card.">
<polygon fill="white" stroke="#666666" points="318.5,-19.25 181.75,-19.25 181.75,0 318.5,0 318.5,-19.25"/>
<text xml:space="preserve" text-anchor="middle" x="250.12" y="-5.75" font-family="Helvetica,sans-Serif" font-size="10.00">MQTTManager::saveConfig</text>
</a>
</g>
</g>
<!-- Node1&#45;&gt;Node3 -->
<g id="edge2_Node000001_Node000003" class="edge">
<title>Node1&#45;&gt;Node3</title>
<g id="a_edge2_Node000001_Node000003"><a xlink:title=" ">
<path fill="none" stroke="#63b8ff" d="M129.55,-21.35C142.64,-20.07 156.56,-18.7 170.11,-17.38"/>
<polygon fill="#63b8ff" stroke="#63b8ff" points="170.26,-20.88 179.87,-16.42 169.58,-13.91 170.26,-20.88"/>
</a>
</g>
</g>
<!-- Node4 -->
<g id="Node000004" class="node">
<title>Node4</title>
<g id="a_Node000004"><a xlink:href="class_m_q_t_t_manager.html#a2c8c1f0367aa9d93bfad4301a95b9e41" target="_top" xlink:title="Get configuration as JSON string.">
<polygon fill="white" stroke="#666666" points="521.25,-19.25 371,-19.25 371,0 521.25,0 521.25,-19.25"/>
<text xml:space="preserve" text-anchor="middle" x="446.12" y="-5.75" font-family="Helvetica,sans-Serif" font-size="10.00">MQTTManager::getConfigJson</text>
</a>
</g>
</g>
<!-- Node3&#45;&gt;Node4 -->
<g id="edge3_Node000003_Node000004" class="edge">
<title>Node3&#45;&gt;Node4</title>
<g id="a_edge3_Node000003_Node000004"><a xlink:title=" ">
<path fill="none" stroke="#63b8ff" d="M318.98,-9.62C332.04,-9.62 345.88,-9.62 359.42,-9.62"/>
<polygon fill="#63b8ff" stroke="#63b8ff" points="359.18,-13.13 369.18,-9.63 359.18,-6.13 359.18,-13.13"/>
</a>
</g>
</g>
</g>
</svg>
