<?xml version="1.0" encoding="UTF-8" standalone="no"?>
<!DOCTYPE svg PUBLIC "-//W3C//DTD SVG 1.1//EN"
 "http://www.w3.org/Graphics/SVG/1.1/DTD/svg11.dtd">
<!-- Generated by graphviz version 13.1.0 (20250701.0955)
 -->
<!-- Title: TemperatureController::getActiveAlarms Pages: 1 -->
<svg width="879pt" height="88pt"
 viewBox="0.00 0.00 879.00 88.00" xmlns="http://www.w3.org/2000/svg" xmlns:xlink="http://www.w3.org/1999/xlink">
<g id="graph0" class="graph" transform="scale(1 1) rotate(0) translate(4 83.5)">
<title>TemperatureController::getActiveAlarms</title>
<!-- Node1 -->
<g id="Node000001" class="node">
<title>Node1</title>
<g id="a_Node000001"><a xlink:title="Get list of active alarms.">
<polygon fill="#999999" stroke="#666666" points="870.75,-54.5 758.75,-54.5 758.75,-24 870.75,-24 870.75,-54.5"/>
<text xml:space="preserve" text-anchor="start" x="766.75" y="-41" font-family="Helvetica,sans-Serif" font-size="10.00">TemperatureController</text>
<text xml:space="preserve" text-anchor="middle" x="814.75" y="-29.75" font-family="Helvetica,sans-Serif" font-size="10.00">::getActiveAlarms</text>
</a>
</g>
</g>
<!-- Node2 -->
<g id="Node000002" class="node">
<title>Node2</title>
<g id="a_Node000002"><a xlink:href="class_temperature_controller.html#a477597992aa9362076843f37b648741a" target="_top" xlink:title="Update alarm display queues.">
<polygon fill="white" stroke="#666666" points="722.75,-77.5 607,-77.5 607,-47 722.75,-47 722.75,-77.5"/>
<text xml:space="preserve" text-anchor="start" x="615" y="-64" font-family="Helvetica,sans-Serif" font-size="10.00">TemperatureController</text>
<text xml:space="preserve" text-anchor="middle" x="664.88" y="-52.75" font-family="Helvetica,sans-Serif" font-size="10.00">::_updateAlarmQueues</text>
</a>
</g>
</g>
<!-- Node1&#45;&gt;Node2 -->
<g id="edge1_Node000001_Node000002" class="edge">
<title>Node1&#45;&gt;Node2</title>
<g id="a_edge1_Node000001_Node000002"><a xlink:title=" ">
<path fill="none" stroke="#63b8ff" d="M747.09,-49.62C739.1,-50.86 730.99,-52.12 723.15,-53.34"/>
<polygon fill="#63b8ff" stroke="#63b8ff" points="747.43,-53.11 756.77,-48.11 746.35,-46.19 747.43,-53.11"/>
</a>
</g>
</g>
<!-- Node7 -->
<g id="Node000007" class="node">
<title>Node7</title>
<g id="a_Node000007"><a xlink:href="class_temperature_controller.html#a5ac8af90de5dfd79a9a2e4c7270a98a3" target="_top" xlink:title="Update alarm states for all measurement points.">
<polygon fill="white" stroke="#666666" points="563.5,-30.5 451.5,-30.5 451.5,0 563.5,0 563.5,-30.5"/>
<text xml:space="preserve" text-anchor="start" x="459.5" y="-17" font-family="Helvetica,sans-Serif" font-size="10.00">TemperatureController</text>
<text xml:space="preserve" text-anchor="middle" x="507.5" y="-5.75" font-family="Helvetica,sans-Serif" font-size="10.00">::updateAlarms</text>
</a>
</g>
</g>
<!-- Node1&#45;&gt;Node7 -->
<g id="edge7_Node000001_Node000007" class="edge">
<title>Node1&#45;&gt;Node7</title>
<g id="a_edge7_Node000001_Node000007"><a xlink:title=" ">
<path fill="none" stroke="#63b8ff" d="M747.12,-34.01C692.26,-29.7 615.4,-23.66 563.88,-19.6"/>
<polygon fill="#63b8ff" stroke="#63b8ff" points="746.72,-37.49 756.96,-34.79 747.27,-30.51 746.72,-37.49"/>
</a>
</g>
</g>
<!-- Node3 -->
<g id="Node000003" class="node">
<title>Node3</title>
<g id="a_Node000003"><a xlink:href="class_temperature_controller.html#a6b2f92b5c2af867240200cff2e61e806" target="_top" xlink:title="Handle display section switching.">
<polygon fill="white" stroke="#666666" points="571,-79.5 444,-79.5 444,-49 571,-49 571,-79.5"/>
<text xml:space="preserve" text-anchor="start" x="452" y="-66" font-family="Helvetica,sans-Serif" font-size="10.00">TemperatureController</text>
<text xml:space="preserve" text-anchor="middle" x="507.5" y="-54.75" font-family="Helvetica,sans-Serif" font-size="10.00">::_handleDisplaySections</text>
</a>
</g>
</g>
<!-- Node2&#45;&gt;Node3 -->
<g id="edge2_Node000002_Node000003" class="edge">
<title>Node2&#45;&gt;Node3</title>
<g id="a_edge2_Node000002_Node000003"><a xlink:title=" ">
<path fill="none" stroke="#63b8ff" d="M595.39,-63.13C587.44,-63.23 579.36,-63.34 571.5,-63.44"/>
<polygon fill="#63b8ff" stroke="#63b8ff" points="595.43,-66.63 605.39,-63 595.34,-59.63 595.43,-66.63"/>
</a>
</g>
</g>
<!-- Node4 -->
<g id="Node000004" class="node">
<title>Node4</title>
<g id="a_Node000004"><a xlink:href="class_temperature_controller.html#a5637103784725fb1a73f6463d7cbfde6" target="_top" xlink:title="Handle alarm display on OLED/LEDs.">
<polygon fill="white" stroke="#666666" points="408,-77.5 296,-77.5 296,-47 408,-47 408,-77.5"/>
<text xml:space="preserve" text-anchor="start" x="304" y="-64" font-family="Helvetica,sans-Serif" font-size="10.00">TemperatureController</text>
<text xml:space="preserve" text-anchor="middle" x="352" y="-52.75" font-family="Helvetica,sans-Serif" font-size="10.00">::handleAlarmDisplay</text>
</a>
</g>
</g>
<!-- Node3&#45;&gt;Node4 -->
<g id="edge3_Node000003_Node000004" class="edge">
<title>Node3&#45;&gt;Node4</title>
<g id="a_edge3_Node000003_Node000004"><a xlink:title=" ">
<path fill="none" stroke="#63b8ff" d="M432.22,-63.28C424.12,-63.18 415.98,-63.07 408.16,-62.97"/>
<polygon fill="#63b8ff" stroke="#63b8ff" points="432.06,-66.78 442.11,-63.41 432.16,-59.78 432.06,-66.78"/>
</a>
</g>
</g>
<!-- Node5 -->
<g id="Node000005" class="node">
<title>Node5</title>
<g id="a_Node000005"><a xlink:href="class_temperature_controller.html#aca5deddbf703001373424d876f87b5f2" target="_top" xlink:title="Main update function &#45; must be called in loop()">
<polygon fill="white" stroke="#666666" points="260,-54.5 148,-54.5 148,-24 260,-24 260,-54.5"/>
<text xml:space="preserve" text-anchor="start" x="156" y="-41" font-family="Helvetica,sans-Serif" font-size="10.00">TemperatureController</text>
<text xml:space="preserve" text-anchor="middle" x="204" y="-29.75" font-family="Helvetica,sans-Serif" font-size="10.00">::update</text>
</a>
</g>
</g>
<!-- Node4&#45;&gt;Node5 -->
<g id="edge4_Node000004_Node000005" class="edge">
<title>Node4&#45;&gt;Node5</title>
<g id="a_edge4_Node000004_Node000005"><a xlink:title=" ">
<path fill="none" stroke="#63b8ff" d="M284.47,-51.77C276.38,-50.49 268.18,-49.2 260.27,-47.96"/>
<polygon fill="#63b8ff" stroke="#63b8ff" points="283.89,-55.22 294.31,-53.32 284.98,-48.31 283.89,-55.22"/>
</a>
</g>
</g>
<!-- Node6 -->
<g id="Node000006" class="node">
<title>Node6</title>
<g id="a_Node000006"><a xlink:href="class_temperature_controller.html#a11948a87fe7df37543b86ecdd488b341" target="_top" xlink:title="Read temperature from all configured measurement points.">
<polygon fill="white" stroke="#666666" points="112,-54.5 0,-54.5 0,-24 112,-24 112,-54.5"/>
<text xml:space="preserve" text-anchor="start" x="8" y="-41" font-family="Helvetica,sans-Serif" font-size="10.00">TemperatureController</text>
<text xml:space="preserve" text-anchor="middle" x="56" y="-29.75" font-family="Helvetica,sans-Serif" font-size="10.00">::readAllPoints</text>
</a>
</g>
</g>
<!-- Node5&#45;&gt;Node6 -->
<g id="edge5_Node000005_Node000006" class="edge">
<title>Node5&#45;&gt;Node6</title>
<g id="a_edge5_Node000005_Node000006"><a xlink:title=" ">
<path fill="none" stroke="#63b8ff" d="M136.47,-32.52C128.38,-32.46 120.18,-32.52 112.27,-32.68"/>
<polygon fill="#63b8ff" stroke="#63b8ff" points="136.24,-36.02 146.29,-32.66 136.34,-29.02 136.24,-36.02"/>
</a>
</g>
</g>
<!-- Node6&#45;&gt;Node5 -->
<g id="edge6_Node000006_Node000005" class="edge">
<title>Node6&#45;&gt;Node5</title>
<g id="a_edge6_Node000006_Node000005"><a xlink:title=" ">
<path fill="none" stroke="#63b8ff" d="M123.61,-45.98C131.7,-46.04 139.9,-45.98 147.8,-45.82"/>
<polygon fill="#63b8ff" stroke="#63b8ff" points="123.84,-42.48 113.79,-45.84 123.74,-49.48 123.84,-42.48"/>
</a>
</g>
</g>
<!-- Node7&#45;&gt;Node5 -->
<g id="edge8_Node000007_Node000005" class="edge">
<title>Node7&#45;&gt;Node5</title>
<g id="a_edge8_Node000007_Node000005"><a xlink:title=" ">
<path fill="none" stroke="#63b8ff" d="M440.04,-20.54C386.17,-24.83 311.14,-30.8 260.46,-34.84"/>
<polygon fill="#63b8ff" stroke="#63b8ff" points="440,-24.05 449.69,-19.77 439.45,-17.08 440,-24.05"/>
</a>
</g>
</g>
</g>
</svg>
