<?xml version="1.0" encoding="UTF-8" standalone="no"?>
<!DOCTYPE svg PUBLIC "-//W3C//DTD SVG 1.1//EN"
 "http://www.w3.org/Graphics/SVG/1.1/DTD/svg11.dtd">
<!-- Generated by graphviz version 13.1.0 (20250701.0955)
 -->
<!-- Title: TimeManager::getFormattedTime Pages: 1 -->
<svg width="362pt" height="64pt"
 viewBox="0.00 0.00 362.00 64.00" xmlns="http://www.w3.org/2000/svg" xmlns:xlink="http://www.w3.org/1999/xlink">
<g id="graph0" class="graph" transform="scale(1 1) rotate(0) translate(4 60.25)">
<title>TimeManager::getFormattedTime</title>
<!-- Node1 -->
<g id="Node000001" class="node">
<title>Node1</title>
<g id="a_Node000001"><a xlink:title=" ">
<polygon fill="#999999" stroke="#666666" points="160.75,-37.25 0,-37.25 0,-18 160.75,-18 160.75,-37.25"/>
<text xml:space="preserve" text-anchor="middle" x="80.38" y="-23.75" font-family="Helvetica,sans-Serif" font-size="10.00">TimeManager::getFormattedTime</text>
</a>
</g>
</g>
<!-- Node2 -->
<g id="Node000002" class="node">
<title>Node2</title>
<g id="a_Node000002"><a xlink:href="class_time_manager.html#abcaf17b6da72a3a2f2566d940ce5ce8d" target="_top" xlink:title=" ">
<polygon fill="white" stroke="#666666" points="353.75,-56.25 196.75,-56.25 196.75,-37 353.75,-37 353.75,-56.25"/>
<text xml:space="preserve" text-anchor="middle" x="275.25" y="-42.75" font-family="Helvetica,sans-Serif" font-size="10.00">TimeManager::_formatDateTime</text>
</a>
</g>
</g>
<!-- Node1&#45;&gt;Node2 -->
<g id="edge1_Node000001_Node000002" class="edge">
<title>Node1&#45;&gt;Node2</title>
<g id="a_edge1_Node000001_Node000002"><a xlink:title=" ">
<path fill="none" stroke="#63b8ff" d="M161.22,-35.49C169.11,-36.27 177.15,-37.06 185.12,-37.85"/>
<polygon fill="#63b8ff" stroke="#63b8ff" points="184.53,-41.3 194.82,-38.8 185.22,-34.34 184.53,-41.3"/>
</a>
</g>
</g>
<!-- Node3 -->
<g id="Node000003" class="node">
<title>Node3</title>
<g id="a_Node000003"><a xlink:href="class_time_manager.html#a2667b0243b7db24b3055c2b00e2837ba" target="_top" xlink:title=" ">
<polygon fill="white" stroke="#666666" points="349.62,-19.25 200.88,-19.25 200.88,0 349.62,0 349.62,-19.25"/>
<text xml:space="preserve" text-anchor="middle" x="275.25" y="-5.75" font-family="Helvetica,sans-Serif" font-size="10.00">TimeManager::getCurrentTime</text>
</a>
</g>
</g>
<!-- Node1&#45;&gt;Node3 -->
<g id="edge2_Node000001_Node000003" class="edge">
<title>Node1&#45;&gt;Node3</title>
<g id="a_edge2_Node000001_Node000003"><a xlink:title=" ">
<path fill="none" stroke="#63b8ff" d="M161.22,-20.17C170.5,-19.31 180,-18.42 189.34,-17.55"/>
<polygon fill="#63b8ff" stroke="#63b8ff" points="189.51,-21.05 199.14,-16.63 188.86,-14.08 189.51,-21.05"/>
</a>
</g>
</g>
</g>
</svg>
