<?xml version="1.0" encoding="UTF-8" standalone="no"?>
<!DOCTYPE svg PUBLIC "-//W3C//DTD SVG 1.1//EN"
 "http://www.w3.org/Graphics/SVG/1.1/DTD/svg11.dtd">
<!-- Generated by graphviz version 13.1.0 (20250701.0955)
 -->
<!-- Title: MeasurementPoint::getMaxTemp Pages: 1 -->
<svg width="639pt" height="174pt"
 viewBox="0.00 0.00 639.00 174.00" xmlns="http://www.w3.org/2000/svg" xmlns:xlink="http://www.w3.org/1999/xlink">
<g id="graph0" class="graph" transform="scale(1 1) rotate(0) translate(4 169.5)">
<title>MeasurementPoint::getMaxTemp</title>
<!-- Node1 -->
<g id="Node000001" class="node">
<title>Node1</title>
<g id="a_Node000001"><a xlink:title="Get maximum recorded temperature.">
<polygon fill="#999999" stroke="#666666" points="631,-88.88 471,-88.88 471,-69.62 631,-69.62 631,-88.88"/>
<text xml:space="preserve" text-anchor="middle" x="551" y="-75.38" font-family="Helvetica,sans-Serif" font-size="10.00">MeasurementPoint::getMaxTemp</text>
</a>
</g>
</g>
<!-- Node2 -->
<g id="Node000002" class="node">
<title>Node2</title>
<g id="a_Node000002"><a xlink:href="class_c_s_v_config_manager.html#a2c2673398051c26184c9197aa751a6b3" target="_top" xlink:title="Export single measurement point to CSV format.">
<polygon fill="white" stroke="#666666" points="393,-165.5 284,-165.5 284,-135 393,-135 393,-165.5"/>
<text xml:space="preserve" text-anchor="start" x="292" y="-152" font-family="Helvetica,sans-Serif" font-size="10.00">CSVConfigManager::</text>
<text xml:space="preserve" text-anchor="middle" x="338.5" y="-140.75" font-family="Helvetica,sans-Serif" font-size="10.00">_exportPointToCSV</text>
</a>
</g>
</g>
<!-- Node1&#45;&gt;Node2 -->
<g id="edge1_Node000001_Node000002" class="edge">
<title>Node1&#45;&gt;Node2</title>
<g id="a_edge1_Node000001_Node000002"><a xlink:title=" ">
<path fill="none" stroke="#63b8ff" d="M516.94,-93.75C494.17,-103.41 463.08,-116 435,-125.25 421.65,-129.65 407.06,-133.79 393.38,-137.4"/>
<polygon fill="#63b8ff" stroke="#63b8ff" points="518.2,-97.02 526.01,-89.86 515.44,-90.58 518.2,-97.02"/>
</a>
</g>
</g>
<!-- Node4 -->
<g id="Node000004" class="node">
<title>Node4</title>
<g id="a_Node000004"><a xlink:href="class_temperature_controller.html#add39ba7dad38449bbf1787a5c9c51ef9" target="_top" xlink:title="Get JSON representation of all measurement points.">
<polygon fill="white" stroke="#666666" points="394.5,-116.5 282.5,-116.5 282.5,-86 394.5,-86 394.5,-116.5"/>
<text xml:space="preserve" text-anchor="start" x="290.5" y="-103" font-family="Helvetica,sans-Serif" font-size="10.00">TemperatureController</text>
<text xml:space="preserve" text-anchor="middle" x="338.5" y="-91.75" font-family="Helvetica,sans-Serif" font-size="10.00">::getPointsJson</text>
</a>
</g>
</g>
<!-- Node1&#45;&gt;Node4 -->
<g id="edge3_Node000001_Node000004" class="edge">
<title>Node1&#45;&gt;Node4</title>
<g id="a_edge3_Node000001_Node000004"><a xlink:title=" ">
<path fill="none" stroke="#63b8ff" d="M459.34,-88.73C437.38,-91.02 414.56,-93.41 394.8,-95.47"/>
<polygon fill="#63b8ff" stroke="#63b8ff" points="459.63,-92.21 469.21,-87.69 458.9,-85.25 459.63,-92.21"/>
</a>
</g>
</g>
<!-- Node5 -->
<g id="Node000005" class="node">
<title>Node5</title>
<g id="a_Node000005"><a xlink:href="class_m_q_t_t_manager.html#abed500066c9485cb62ce17eb7c8ad197" target="_top" xlink:title="Publish temperature data.">
<polygon fill="white" stroke="#666666" points="435,-67.88 242,-67.88 242,-48.62 435,-48.62 435,-67.88"/>
<text xml:space="preserve" text-anchor="middle" x="338.5" y="-54.38" font-family="Helvetica,sans-Serif" font-size="10.00">MQTTManager::publishTemperatureData</text>
</a>
</g>
</g>
<!-- Node1&#45;&gt;Node5 -->
<g id="edge4_Node000001_Node000005" class="edge">
<title>Node1&#45;&gt;Node5</title>
<g id="a_edge4_Node000001_Node000005"><a xlink:title=" ">
<path fill="none" stroke="#63b8ff" d="M459.51,-70.22C451.52,-69.43 443.41,-68.62 435.38,-67.81"/>
<polygon fill="#63b8ff" stroke="#63b8ff" points="458.91,-73.68 469.21,-71.19 459.61,-66.71 458.91,-73.68"/>
</a>
</g>
</g>
<!-- Node8 -->
<g id="Node000008" class="node">
<title>Node8</title>
<g id="a_Node000008"><a xlink:href="class_register_map.html#a2940213459a183fc06a2226f1cd1a48b" target="_top" xlink:title="Update registers from measurement point data.">
<polygon fill="white" stroke="#666666" points="432.75,-30.5 244.25,-30.5 244.25,0 432.75,0 432.75,-30.5"/>
<text xml:space="preserve" text-anchor="start" x="252.25" y="-17" font-family="Helvetica,sans-Serif" font-size="10.00">RegisterMap::updateFromMeasurement</text>
<text xml:space="preserve" text-anchor="middle" x="338.5" y="-5.75" font-family="Helvetica,sans-Serif" font-size="10.00">Point</text>
</a>
</g>
</g>
<!-- Node1&#45;&gt;Node8 -->
<g id="edge7_Node000001_Node000008" class="edge">
<title>Node1&#45;&gt;Node8</title>
<g id="a_edge7_Node000001_Node000008"><a xlink:title=" ">
<path fill="none" stroke="#63b8ff" d="M512.55,-65.28C490.2,-57.18 461.16,-47.07 435,-39.25 425.42,-36.39 415.23,-33.58 405.21,-30.95"/>
<polygon fill="#63b8ff" stroke="#63b8ff" points="511.25,-68.53 521.84,-68.68 513.65,-61.96 511.25,-68.53"/>
</a>
</g>
</g>
<!-- Node3 -->
<g id="Node000003" class="node">
<title>Node3</title>
<g id="a_Node000003"><a xlink:href="class_c_s_v_config_manager.html#a1c6cbc4c8a132762bf16a8ce9f7d0bfc" target="_top" xlink:title="Export measurement points with alarm configuration to CSV.">
<polygon fill="white" stroke="#666666" points="206,-165.5 70,-165.5 70,-135 206,-135 206,-165.5"/>
<text xml:space="preserve" text-anchor="start" x="78" y="-152" font-family="Helvetica,sans-Serif" font-size="10.00">CSVConfigManager::export</text>
<text xml:space="preserve" text-anchor="middle" x="138" y="-140.75" font-family="Helvetica,sans-Serif" font-size="10.00">PointsWithAlarmsToCSV</text>
</a>
</g>
</g>
<!-- Node2&#45;&gt;Node3 -->
<g id="edge2_Node000002_Node000003" class="edge">
<title>Node2&#45;&gt;Node3</title>
<g id="a_edge2_Node000002_Node000003"><a xlink:title=" ">
<path fill="none" stroke="#63b8ff" d="M272.09,-150.25C251.03,-150.25 227.66,-150.25 206.45,-150.25"/>
<polygon fill="#63b8ff" stroke="#63b8ff" points="272.01,-153.75 282.01,-150.25 272.01,-146.75 272.01,-153.75"/>
</a>
</g>
</g>
<!-- Node6 -->
<g id="Node000006" class="node">
<title>Node6</title>
<g id="a_Node000006"><a xlink:href="class_m_q_t_t_manager.html#aa2391d50cff2826a29a22879c2b33380" target="_top" xlink:title="Main update function that handles connection and publishing.">
<polygon fill="white" stroke="#666666" points="196.25,-67.88 79.75,-67.88 79.75,-48.62 196.25,-48.62 196.25,-67.88"/>
<text xml:space="preserve" text-anchor="middle" x="138" y="-54.38" font-family="Helvetica,sans-Serif" font-size="10.00">MQTTManager::update</text>
</a>
</g>
</g>
<!-- Node5&#45;&gt;Node6 -->
<g id="edge5_Node000005_Node000006" class="edge">
<title>Node5&#45;&gt;Node6</title>
<g id="a_edge5_Node000005_Node000006"><a xlink:title=" ">
<path fill="none" stroke="#63b8ff" d="M230.5,-58.25C218.81,-58.25 207.26,-58.25 196.51,-58.25"/>
<polygon fill="#63b8ff" stroke="#63b8ff" points="230.23,-61.75 240.23,-58.25 230.23,-54.75 230.23,-61.75"/>
</a>
</g>
</g>
<!-- Node7 -->
<g id="Node000007" class="node">
<title>Node7</title>
<g id="a_Node000007"><a xlink:href="main_8cpp.html#afe461d27b9c48d5921c00d521181f12f" target="_top" xlink:title="Main system loop.">
<polygon fill="white" stroke="#666666" points="34,-67.88 0,-67.88 0,-48.62 34,-48.62 34,-67.88"/>
<text xml:space="preserve" text-anchor="middle" x="17" y="-54.38" font-family="Helvetica,sans-Serif" font-size="10.00">loop</text>
</a>
</g>
</g>
<!-- Node6&#45;&gt;Node7 -->
<g id="edge6_Node000006_Node000007" class="edge">
<title>Node6&#45;&gt;Node7</title>
<g id="a_edge6_Node000006_Node000007"><a xlink:title=" ">
<path fill="none" stroke="#63b8ff" d="M68.39,-58.25C55.74,-58.25 43.65,-58.25 34.48,-58.25"/>
<polygon fill="#63b8ff" stroke="#63b8ff" points="68.08,-61.75 78.08,-58.25 68.08,-54.75 68.08,-61.75"/>
</a>
</g>
</g>
</g>
</svg>
