<?xml version="1.0" encoding="UTF-8" standalone="no"?>
<!DOCTYPE svg PUBLIC "-//W3C//DTD SVG 1.1//EN"
 "http://www.w3.org/Graphics/SVG/1.1/DTD/svg11.dtd">
<!-- Generated by graphviz version 13.1.0 (20250701.0955)
 -->
<!-- Title: Sensor::initialize Pages: 1 -->
<svg width="417pt" height="137pt"
 viewBox="0.00 0.00 417.00 137.00" xmlns="http://www.w3.org/2000/svg" xmlns:xlink="http://www.w3.org/1999/xlink">
<g id="graph0" class="graph" transform="scale(1 1) rotate(0) translate(4 132.5)">
<title>Sensor::initialize</title>
<!-- Node1 -->
<g id="Node000001" class="node">
<title>Node1</title>
<g id="a_Node000001"><a xlink:title=" ">
<polygon fill="#999999" stroke="#666666" points="408.75,-73.88 320.75,-73.88 320.75,-54.62 408.75,-54.62 408.75,-73.88"/>
<text xml:space="preserve" text-anchor="middle" x="364.75" y="-60.38" font-family="Helvetica,sans-Serif" font-size="10.00">Sensor::initialize</text>
</a>
</g>
</g>
<!-- Node2 -->
<g id="Node000002" class="node">
<title>Node2</title>
<g id="a_Node000002"><a xlink:href="class_temperature_controller.html#a57b74b40c88016965d07248981412f7d" target="_top" xlink:title=" ">
<polygon fill="white" stroke="#666666" points="284.75,-128.5 148,-128.5 148,-98 284.75,-98 284.75,-128.5"/>
<text xml:space="preserve" text-anchor="start" x="156" y="-115" font-family="Helvetica,sans-Serif" font-size="10.00">TemperatureController</text>
<text xml:space="preserve" text-anchor="middle" x="216.38" y="-103.75" font-family="Helvetica,sans-Serif" font-size="10.00">::discoverDS18B20Sensors</text>
</a>
</g>
</g>
<!-- Node1&#45;&gt;Node2 -->
<g id="edge1_Node000001_Node000002" class="edge">
<title>Node1&#45;&gt;Node2</title>
<g id="a_edge1_Node000001_Node000002"><a xlink:title=" ">
<path fill="none" stroke="#63b8ff" d="M322.93,-77.92C304.73,-84.01 283.18,-91.22 264.31,-97.54"/>
<polygon fill="#63b8ff" stroke="#63b8ff" points="323.97,-81.26 332.34,-74.76 321.75,-74.62 323.97,-81.26"/>
</a>
</g>
</g>
<!-- Node3 -->
<g id="Node000003" class="node">
<title>Node3</title>
<g id="a_Node000003"><a xlink:href="class_temperature_controller.html#a79e98c9a1d42de787a66e02b250b7a74" target="_top" xlink:title=" ">
<polygon fill="white" stroke="#666666" points="272.38,-79.5 160.38,-79.5 160.38,-49 272.38,-49 272.38,-79.5"/>
<text xml:space="preserve" text-anchor="start" x="168.38" y="-66" font-family="Helvetica,sans-Serif" font-size="10.00">TemperatureController</text>
<text xml:space="preserve" text-anchor="middle" x="216.38" y="-54.75" font-family="Helvetica,sans-Serif" font-size="10.00">::discoverPTSensors</text>
</a>
</g>
</g>
<!-- Node1&#45;&gt;Node3 -->
<g id="edge2_Node000001_Node000003" class="edge">
<title>Node1&#45;&gt;Node3</title>
<g id="a_edge2_Node000001_Node000003"><a xlink:title=" ">
<path fill="none" stroke="#63b8ff" d="M309.4,-64.25C297.42,-64.25 284.72,-64.25 272.7,-64.25"/>
<polygon fill="#63b8ff" stroke="#63b8ff" points="309.11,-67.75 319.11,-64.25 309.11,-60.75 309.11,-67.75"/>
</a>
</g>
</g>
<!-- Node5 -->
<g id="Node000005" class="node">
<title>Node5</title>
<g id="a_Node000005"><a xlink:href="class_config_manager.html#a04edc14e642ecadb9ccb87be05d1d878" target="_top" xlink:title=" ">
<polygon fill="white" stroke="#666666" points="283.25,-30.5 149.5,-30.5 149.5,0 283.25,0 283.25,-30.5"/>
<text xml:space="preserve" text-anchor="start" x="157.5" y="-17" font-family="Helvetica,sans-Serif" font-size="10.00">ConfigManager::loadPoints</text>
<text xml:space="preserve" text-anchor="middle" x="216.38" y="-5.75" font-family="Helvetica,sans-Serif" font-size="10.00">Config</text>
</a>
</g>
</g>
<!-- Node1&#45;&gt;Node5 -->
<g id="edge4_Node000001_Node000005" class="edge">
<title>Node1&#45;&gt;Node5</title>
<g id="a_edge4_Node000001_Node000005"><a xlink:title=" ">
<path fill="none" stroke="#63b8ff" d="M322.93,-50.58C304.73,-44.49 283.18,-37.28 264.31,-30.96"/>
<polygon fill="#63b8ff" stroke="#63b8ff" points="321.75,-53.88 332.34,-53.74 323.97,-47.24 321.75,-53.88"/>
</a>
</g>
</g>
<!-- Node4 -->
<g id="Node000004" class="node">
<title>Node4</title>
<g id="a_Node000004"><a xlink:href="class_temperature_controller.html#af59d6d6d48ed8ddfb968a1fa2dce6768" target="_top" xlink:title=" ">
<polygon fill="white" stroke="#666666" points="112,-79.5 0,-79.5 0,-49 112,-49 112,-79.5"/>
<text xml:space="preserve" text-anchor="start" x="8" y="-66" font-family="Helvetica,sans-Serif" font-size="10.00">TemperatureController</text>
<text xml:space="preserve" text-anchor="middle" x="56" y="-54.75" font-family="Helvetica,sans-Serif" font-size="10.00">::begin</text>
</a>
</g>
</g>
<!-- Node3&#45;&gt;Node4 -->
<g id="edge3_Node000003_Node000004" class="edge">
<title>Node3&#45;&gt;Node4</title>
<g id="a_edge3_Node000003_Node000004"><a xlink:title=" ">
<path fill="none" stroke="#63b8ff" d="M148.57,-64.25C136.51,-64.25 124.05,-64.25 112.36,-64.25"/>
<polygon fill="#63b8ff" stroke="#63b8ff" points="148.47,-67.75 158.47,-64.25 148.47,-60.75 148.47,-67.75"/>
</a>
</g>
</g>
<!-- Node6 -->
<g id="Node000006" class="node">
<title>Node6</title>
<g id="a_Node000006"><a xlink:href="class_config_manager.html#a0497343220fc493f5cf9574922508908" target="_top" xlink:title=" ">
<polygon fill="white" stroke="#666666" points="111.62,-24.88 0.38,-24.88 0.38,-5.63 111.62,-5.63 111.62,-24.88"/>
<text xml:space="preserve" text-anchor="middle" x="56" y="-11.38" font-family="Helvetica,sans-Serif" font-size="10.00">ConfigManager::begin</text>
</a>
</g>
</g>
<!-- Node5&#45;&gt;Node6 -->
<g id="edge5_Node000005_Node000006" class="edge">
<title>Node5&#45;&gt;Node6</title>
<g id="a_edge5_Node000005_Node000006"><a xlink:title=" ">
<path fill="none" stroke="#63b8ff" d="M137.73,-15.25C129.02,-15.25 120.29,-15.25 111.95,-15.25"/>
<polygon fill="#63b8ff" stroke="#63b8ff" points="137.61,-18.75 147.61,-15.25 137.61,-11.75 137.61,-18.75"/>
</a>
</g>
</g>
</g>
</svg>
