<?xml version="1.0" encoding="UTF-8" standalone="no"?>
<!DOCTYPE svg PUBLIC "-//W3C//DTD SVG 1.1//EN"
 "http://www.w3.org/Graphics/SVG/1.1/DTD/svg11.dtd">
<!-- Generated by graphviz version 13.1.0 (20250701.0955)
 -->
<!-- Title: IndicatorInterface::updateBlinking Pages: 1 -->
<svg width="228pt" height="57pt"
 viewBox="0.00 0.00 228.00 57.00" xmlns="http://www.w3.org/2000/svg" xmlns:xlink="http://www.w3.org/1999/xlink">
<g id="graph0" class="graph" transform="scale(1 1) rotate(0) translate(4 52.5)">
<title>IndicatorInterface::updateBlinking</title>
<!-- Node1 -->
<g id="Node000001" class="node">
<title>Node1</title>
<g id="a_Node000001"><a xlink:title="Update all blinking ports (call in main loop)">
<polygon fill="#999999" stroke="#666666" points="91.75,-30.5 0,-30.5 0,0 91.75,0 91.75,-30.5"/>
<text xml:space="preserve" text-anchor="start" x="8" y="-17" font-family="Helvetica,sans-Serif" font-size="10.00">IndicatorInterface</text>
<text xml:space="preserve" text-anchor="middle" x="45.88" y="-5.75" font-family="Helvetica,sans-Serif" font-size="10.00">::updateBlinking</text>
</a>
</g>
</g>
<!-- Node2 -->
<g id="Node000002" class="node">
<title>Node2</title>
<g id="a_Node000002"><a xlink:href="class_indicator_interface.html#a89a41cb1580141ed65c07ced6692322e" target="_top" xlink:title="Write state to a named port.">
<polygon fill="white" stroke="#666666" points="219.5,-30.5 127.75,-30.5 127.75,0 219.5,0 219.5,-30.5"/>
<text xml:space="preserve" text-anchor="start" x="135.75" y="-17" font-family="Helvetica,sans-Serif" font-size="10.00">IndicatorInterface</text>
<text xml:space="preserve" text-anchor="middle" x="173.62" y="-5.75" font-family="Helvetica,sans-Serif" font-size="10.00">::writePort</text>
</a>
</g>
</g>
<!-- Node1&#45;&gt;Node2 -->
<g id="edge1_Node000001_Node000002" class="edge">
<title>Node1&#45;&gt;Node2</title>
<g id="a_edge1_Node000001_Node000002"><a xlink:title=" ">
<path fill="none" stroke="#63b8ff" d="M91.92,-15.25C99.77,-15.25 108.03,-15.25 116.15,-15.25"/>
<polygon fill="#63b8ff" stroke="#63b8ff" points="115.96,-18.75 125.96,-15.25 115.96,-11.75 115.96,-18.75"/>
</a>
</g>
</g>
<!-- Node2&#45;&gt;Node2 -->
<g id="edge2_Node000002_Node000002" class="edge">
<title>Node2&#45;&gt;Node2</title>
<g id="a_edge2_Node000002_Node000002"><a xlink:title=" ">
<path fill="none" stroke="#63b8ff" d="M150.99,-30.99C146.37,-40.06 153.91,-48.5 173.62,-48.5 184.4,-48.5 191.55,-45.97 195.05,-42.2"/>
<polygon fill="#63b8ff" stroke="#63b8ff" points="198.5,-42.81 196.1,-32.49 191.54,-42.06 198.5,-42.81"/>
</a>
</g>
</g>
</g>
</svg>
