<?xml version="1.0" encoding="UTF-8" standalone="no"?>
<!DOCTYPE svg PUBLIC "-//W3C//DTD SVG 1.1//EN"
 "http://www.w3.org/Graphics/SVG/1.1/DTD/svg11.dtd">
<!-- Generated by graphviz version 13.1.0 (20250701.0955)
 -->
<!-- Title: Alarm::setEnabled Pages: 1 -->
<svg width="259pt" height="137pt"
 viewBox="0.00 0.00 259.00 137.00" xmlns="http://www.w3.org/2000/svg" xmlns:xlink="http://www.w3.org/1999/xlink">
<g id="graph0" class="graph" transform="scale(1 1) rotate(0) translate(4 132.5)">
<title>Alarm::setEnabled</title>
<!-- Node1 -->
<g id="Node000001" class="node">
<title>Node1</title>
<g id="a_Node000001"><a xlink:title="Enable or disable the alarm.">
<polygon fill="#999999" stroke="#666666" points="251,-73.88 154.75,-73.88 154.75,-54.62 251,-54.62 251,-73.88"/>
<text xml:space="preserve" text-anchor="middle" x="202.88" y="-60.38" font-family="Helvetica,sans-Serif" font-size="10.00">Alarm::setEnabled</text>
</a>
</g>
</g>
<!-- Node2 -->
<g id="Node000002" class="node">
<title>Node2</title>
<g id="a_Node000002"><a xlink:href="$class_c_s_v_config_manager.html#a7ecf23e1c03fa194bcf3afe52408d378" xlink:title="Parse alarm configuration from CSV fields.">
<polygon fill="white" stroke="#666666" points="116.5,-128.5 2.25,-128.5 2.25,-98 116.5,-98 116.5,-128.5"/>
<text xml:space="preserve" text-anchor="start" x="10.25" y="-115" font-family="Helvetica,sans-Serif" font-size="10.00">CSVConfigManager::</text>
<text xml:space="preserve" text-anchor="middle" x="59.38" y="-103.75" font-family="Helvetica,sans-Serif" font-size="10.00">_parseAlarmFromCSV</text>
</a>
</g>
</g>
<!-- Node1&#45;&gt;Node2 -->
<g id="edge1_Node000001_Node000002" class="edge">
<title>Node1&#45;&gt;Node2</title>
<g id="a_edge1_Node000001_Node000002"><a xlink:title=" ">
<path fill="none" stroke="#63b8ff" d="M162.41,-77.92C144.82,-84.01 123.99,-91.22 105.75,-97.54"/>
<polygon fill="#63b8ff" stroke="#63b8ff" points="163.16,-81.36 171.47,-74.78 160.87,-74.74 163.16,-81.36"/>
</a>
</g>
</g>
<!-- Node3 -->
<g id="Node000003" class="node">
<title>Node3</title>
<g id="a_Node000003"><a xlink:href="$class_temperature_controller.html#ad174e0411bd48422d8e3812fd28a7a0b" xlink:title="Ensure all 3 alarm types exist for a measurement point.">
<polygon fill="white" stroke="#666666" points="118.75,-79.5 0,-79.5 0,-49 118.75,-49 118.75,-79.5"/>
<text xml:space="preserve" text-anchor="start" x="8" y="-66" font-family="Helvetica,sans-Serif" font-size="10.00">TemperatureController</text>
<text xml:space="preserve" text-anchor="middle" x="59.38" y="-54.75" font-family="Helvetica,sans-Serif" font-size="10.00">::ensureAlarmsForPoint</text>
</a>
</g>
</g>
<!-- Node1&#45;&gt;Node3 -->
<g id="edge2_Node000001_Node000003" class="edge">
<title>Node1&#45;&gt;Node3</title>
<g id="a_edge2_Node000001_Node000003"><a xlink:title=" ">
<path fill="none" stroke="#63b8ff" d="M142.98,-64.25C135.08,-64.25 126.97,-64.25 119.07,-64.25"/>
<polygon fill="#63b8ff" stroke="#63b8ff" points="142.85,-67.75 152.85,-64.25 142.85,-60.75 142.85,-67.75"/>
</a>
</g>
</g>
<!-- Node4 -->
<g id="Node000004" class="node">
<title>Node4</title>
<g id="a_Node000004"><a xlink:href="$class_temperature_controller.html#a93bd31914a054a4e1df9be7e3966b82e" xlink:title="Update alarm configuration.">
<polygon fill="white" stroke="#666666" points="115.38,-30.5 3.38,-30.5 3.38,0 115.38,0 115.38,-30.5"/>
<text xml:space="preserve" text-anchor="start" x="11.38" y="-17" font-family="Helvetica,sans-Serif" font-size="10.00">TemperatureController</text>
<text xml:space="preserve" text-anchor="middle" x="59.38" y="-5.75" font-family="Helvetica,sans-Serif" font-size="10.00">::updateAlarm</text>
</a>
</g>
</g>
<!-- Node1&#45;&gt;Node4 -->
<g id="edge3_Node000001_Node000004" class="edge">
<title>Node1&#45;&gt;Node4</title>
<g id="a_edge3_Node000001_Node000004"><a xlink:title=" ">
<path fill="none" stroke="#63b8ff" d="M162.41,-50.58C144.82,-44.49 123.99,-37.28 105.75,-30.96"/>
<polygon fill="#63b8ff" stroke="#63b8ff" points="160.87,-53.76 171.47,-53.72 163.16,-47.14 160.87,-53.76"/>
</a>
</g>
</g>
</g>
</svg>
