<?xml version="1.0" encoding="UTF-8" standalone="no"?>
<!DOCTYPE svg PUBLIC "-//W3C//DTD SVG 1.1//EN"
 "http://www.w3.org/Graphics/SVG/1.1/DTD/svg11.dtd">
<!-- Generated by graphviz version 13.1.0 (20250701.0955)
 -->
<!-- Title: MeasurementPoint::getAlarmStatus Pages: 1 -->
<svg width="375pt" height="88pt"
 viewBox="0.00 0.00 375.00 88.00" xmlns="http://www.w3.org/2000/svg" xmlns:xlink="http://www.w3.org/1999/xlink">
<g id="graph0" class="graph" transform="scale(1 1) rotate(0) translate(4 83.5)">
<title>MeasurementPoint::getAlarmStatus</title>
<!-- Node1 -->
<g id="Node000001" class="node">
<title>Node1</title>
<g id="a_Node000001"><a xlink:title="Get alarm status bits.">
<polygon fill="#999999" stroke="#666666" points="367.25,-54.5 224.5,-54.5 224.5,-24 367.25,-24 367.25,-54.5"/>
<text xml:space="preserve" text-anchor="start" x="232.5" y="-41" font-family="Helvetica,sans-Serif" font-size="10.00">MeasurementPoint::getAlarm</text>
<text xml:space="preserve" text-anchor="middle" x="295.88" y="-29.75" font-family="Helvetica,sans-Serif" font-size="10.00">Status</text>
</a>
</g>
</g>
<!-- Node2 -->
<g id="Node000002" class="node">
<title>Node2</title>
<g id="a_Node000002"><a xlink:href="$class_temperature_controller.html#add39ba7dad38449bbf1787a5c9c51ef9" xlink:title="Get JSON representation of all measurement points.">
<polygon fill="white" stroke="#666666" points="150.25,-79.5 38.25,-79.5 38.25,-49 150.25,-49 150.25,-79.5"/>
<text xml:space="preserve" text-anchor="start" x="46.25" y="-66" font-family="Helvetica,sans-Serif" font-size="10.00">TemperatureController</text>
<text xml:space="preserve" text-anchor="middle" x="94.25" y="-54.75" font-family="Helvetica,sans-Serif" font-size="10.00">::getPointsJson</text>
</a>
</g>
</g>
<!-- Node1&#45;&gt;Node2 -->
<g id="edge1_Node000001_Node000002" class="edge">
<title>Node1&#45;&gt;Node2</title>
<g id="a_edge1_Node000001_Node000002"><a xlink:title=" ">
<path fill="none" stroke="#63b8ff" d="M213.04,-49.5C192.08,-52.12 170.03,-54.88 150.75,-57.3"/>
<polygon fill="#63b8ff" stroke="#63b8ff" points="213.22,-53 222.71,-48.29 212.35,-46.06 213.22,-53"/>
</a>
</g>
</g>
<!-- Node3 -->
<g id="Node000003" class="node">
<title>Node3</title>
<g id="a_Node000003"><a xlink:href="$class_register_map.html#a2940213459a183fc06a2226f1cd1a48b" xlink:title="Update registers from measurement point data.">
<polygon fill="white" stroke="#666666" points="188.5,-30.5 0,-30.5 0,0 188.5,0 188.5,-30.5"/>
<text xml:space="preserve" text-anchor="start" x="8" y="-17" font-family="Helvetica,sans-Serif" font-size="10.00">RegisterMap::updateFromMeasurement</text>
<text xml:space="preserve" text-anchor="middle" x="94.25" y="-5.75" font-family="Helvetica,sans-Serif" font-size="10.00">Point</text>
</a>
</g>
</g>
<!-- Node1&#45;&gt;Node3 -->
<g id="edge2_Node000001_Node000003" class="edge">
<title>Node1&#45;&gt;Node3</title>
<g id="a_edge2_Node000001_Node000003"><a xlink:title=" ">
<path fill="none" stroke="#63b8ff" d="M212.8,-29.38C204.91,-28.43 196.87,-27.47 188.89,-26.51"/>
<polygon fill="#63b8ff" stroke="#63b8ff" points="212.36,-32.86 222.71,-30.57 213.2,-25.91 212.36,-32.86"/>
</a>
</g>
</g>
</g>
</svg>
