<?xml version="1.0" encoding="UTF-8" standalone="no"?>
<!DOCTYPE svg PUBLIC "-//W3C//DTD SVG 1.1//EN"
 "http://www.w3.org/Graphics/SVG/1.1/DTD/svg11.dtd">
<!-- Generated by graphviz version 13.1.0 (20250701.0955)
 -->
<!-- Title: IndicatorInterface::_handleScrolling Pages: 1 -->
<svg width="423pt" height="88pt"
 viewBox="0.00 0.00 423.00 88.00" xmlns="http://www.w3.org/2000/svg" xmlns:xlink="http://www.w3.org/1999/xlink">
<g id="graph0" class="graph" transform="scale(1 1) rotate(0) translate(4 83.5)">
<title>IndicatorInterface::_handleScrolling</title>
<!-- Node1 -->
<g id="Node000001" class="node">
<title>Node1</title>
<g id="a_Node000001"><a xlink:title="Handle text scrolling.">
<polygon fill="#999999" stroke="#666666" points="93.25,-54.5 0,-54.5 0,-24 93.25,-24 93.25,-54.5"/>
<text xml:space="preserve" text-anchor="start" x="8" y="-41" font-family="Helvetica,sans-Serif" font-size="10.00">IndicatorInterface</text>
<text xml:space="preserve" text-anchor="middle" x="46.62" y="-29.75" font-family="Helvetica,sans-Serif" font-size="10.00">::_handleScrolling</text>
</a>
</g>
</g>
<!-- Node2 -->
<g id="Node000002" class="node">
<title>Node2</title>
<g id="a_Node000002"><a xlink:href="$class_indicator_interface.html#a38acc1a5120e275253fc4e458aea91f0" xlink:title="Update OLED display content.">
<polygon fill="white" stroke="#666666" points="245.75,-54.5 129.25,-54.5 129.25,-24 245.75,-24 245.75,-54.5"/>
<text xml:space="preserve" text-anchor="start" x="137.25" y="-41" font-family="Helvetica,sans-Serif" font-size="10.00">IndicatorInterface</text>
<text xml:space="preserve" text-anchor="middle" x="187.5" y="-29.75" font-family="Helvetica,sans-Serif" font-size="10.00">::_updateOLEDDisplay</text>
</a>
</g>
</g>
<!-- Node1&#45;&gt;Node2 -->
<g id="edge1_Node000001_Node000002" class="edge">
<title>Node1&#45;&gt;Node2</title>
<g id="a_edge1_Node000001_Node000002"><a xlink:title=" ">
<path fill="none" stroke="#63b8ff" d="M93.48,-39.25C101.22,-39.25 109.39,-39.25 117.56,-39.25"/>
<polygon fill="#63b8ff" stroke="#63b8ff" points="117.54,-42.75 127.54,-39.25 117.54,-35.75 117.54,-42.75"/>
</a>
</g>
</g>
<!-- Node3 -->
<g id="Node000003" class="node">
<title>Node3</title>
<g id="a_Node000003"><a xlink:href="$class_indicator_interface.html#a2f021f6fa16dec590a8b9cf41a82349d" xlink:title="Calculate display parameters.">
<polygon fill="white" stroke="#666666" points="414.75,-79.5 281.75,-79.5 281.75,-49 414.75,-49 414.75,-79.5"/>
<text xml:space="preserve" text-anchor="start" x="289.75" y="-66" font-family="Helvetica,sans-Serif" font-size="10.00">IndicatorInterface</text>
<text xml:space="preserve" text-anchor="middle" x="348.25" y="-54.75" font-family="Helvetica,sans-Serif" font-size="10.00">::_calculateDisplayParams</text>
</a>
</g>
</g>
<!-- Node2&#45;&gt;Node3 -->
<g id="edge2_Node000002_Node000003" class="edge">
<title>Node2&#45;&gt;Node3</title>
<g id="a_edge2_Node000002_Node000003"><a xlink:title=" ">
<path fill="none" stroke="#63b8ff" d="M245.81,-48.28C253.75,-49.53 262.01,-50.83 270.23,-52.12"/>
<polygon fill="#63b8ff" stroke="#63b8ff" points="269.47,-55.54 279.9,-53.64 270.56,-48.63 269.47,-55.54"/>
</a>
</g>
</g>
<!-- Node4 -->
<g id="Node000004" class="node">
<title>Node4</title>
<g id="a_Node000004"><a xlink:href="$class_indicator_interface.html#a56c23034a963e2099e36cf55ec70055e" xlink:title="Draw single text line at specified position.">
<polygon fill="white" stroke="#666666" points="394.12,-30.5 302.38,-30.5 302.38,0 394.12,0 394.12,-30.5"/>
<text xml:space="preserve" text-anchor="start" x="310.38" y="-17" font-family="Helvetica,sans-Serif" font-size="10.00">IndicatorInterface</text>
<text xml:space="preserve" text-anchor="middle" x="348.25" y="-5.75" font-family="Helvetica,sans-Serif" font-size="10.00">::_drawTextLine</text>
</a>
</g>
</g>
<!-- Node2&#45;&gt;Node4 -->
<g id="edge3_Node000002_Node000004" class="edge">
<title>Node2&#45;&gt;Node4</title>
<g id="a_edge3_Node000002_Node000004"><a xlink:title=" ">
<path fill="none" stroke="#63b8ff" d="M245.81,-30.59C260.39,-28.38 276.04,-26.02 290.59,-23.82"/>
<polygon fill="#63b8ff" stroke="#63b8ff" points="291.11,-27.28 300.47,-22.32 290.06,-20.36 291.11,-27.28"/>
</a>
</g>
</g>
</g>
</svg>
