<?xml version="1.0" encoding="UTF-8" standalone="no"?>
<!DOCTYPE svg PUBLIC "-//W3C//DTD SVG 1.1//EN"
 "http://www.w3.org/Graphics/SVG/1.1/DTD/svg11.dtd">
<!-- Generated by graphviz version 13.1.0 (20250701.0955)
 -->
<!-- Title: Alarm::getStatusText Pages: 1 -->
<svg width="264pt" height="64pt"
 viewBox="0.00 0.00 264.00 64.00" xmlns="http://www.w3.org/2000/svg" xmlns:xlink="http://www.w3.org/1999/xlink">
<g id="graph0" class="graph" transform="scale(1 1) rotate(0) translate(4 60.25)">
<title>Alarm::getStatusText</title>
<!-- Node1 -->
<g id="Node000001" class="node">
<title>Node1</title>
<g id="a_Node000001"><a xlink:title=" ">
<polygon fill="#999999" stroke="#666666" points="108.25,-37.25 0,-37.25 0,-18 108.25,-18 108.25,-37.25"/>
<text xml:space="preserve" text-anchor="middle" x="54.12" y="-23.75" font-family="Helvetica,sans-Serif" font-size="10.00">Alarm::getStatusText</text>
</a>
</g>
</g>
<!-- Node2 -->
<g id="Node000002" class="node">
<title>Node2</title>
<g id="a_Node000002"><a xlink:href="class_alarm.html#a5f0ead4dbd06aa64bd316d99dc587302" target="_top" xlink:title=" ">
<polygon fill="white" stroke="#666666" points="256.25,-56.25 144.25,-56.25 144.25,-37 256.25,-37 256.25,-56.25"/>
<text xml:space="preserve" text-anchor="middle" x="200.25" y="-42.75" font-family="Helvetica,sans-Serif" font-size="10.00">Alarm::getStageString</text>
</a>
</g>
</g>
<!-- Node1&#45;&gt;Node2 -->
<g id="edge1_Node000001_Node000002" class="edge">
<title>Node1&#45;&gt;Node2</title>
<g id="a_edge1_Node000001_Node000002"><a xlink:title=" ">
<path fill="none" stroke="#63b8ff" d="M108.38,-34.65C116.23,-35.68 124.4,-36.76 132.48,-37.82"/>
<polygon fill="#63b8ff" stroke="#63b8ff" points="131.93,-41.28 142.3,-39.12 132.84,-34.34 131.93,-41.28"/>
</a>
</g>
</g>
<!-- Node3 -->
<g id="Node000003" class="node">
<title>Node3</title>
<g id="a_Node000003"><a xlink:href="class_alarm.html#abd578ec75a5ac9bce00b7ce7207c5d8c" target="_top" xlink:title=" ">
<polygon fill="white" stroke="#666666" points="254,-19.25 146.5,-19.25 146.5,0 254,0 254,-19.25"/>
<text xml:space="preserve" text-anchor="middle" x="200.25" y="-5.75" font-family="Helvetica,sans-Serif" font-size="10.00">Alarm::getTypeString</text>
</a>
</g>
</g>
<!-- Node1&#45;&gt;Node3 -->
<g id="edge2_Node000001_Node000003" class="edge">
<title>Node1&#45;&gt;Node3</title>
<g id="a_edge2_Node000001_Node000003"><a xlink:title=" ">
<path fill="none" stroke="#63b8ff" d="M108.38,-20.97C117.07,-19.89 126.14,-18.76 135.05,-17.64"/>
<polygon fill="#63b8ff" stroke="#63b8ff" points="135.22,-21.15 144.71,-16.44 134.35,-14.2 135.22,-21.15"/>
</a>
</g>
</g>
</g>
</svg>
