<?xml version="1.0" encoding="UTF-8" standalone="no"?>
<!DOCTYPE svg PUBLIC "-//W3C//DTD SVG 1.1//EN"
 "http://www.w3.org/Graphics/SVG/1.1/DTD/svg11.dtd">
<!-- Generated by graphviz version 13.1.0 (20250701.0955)
 -->
<!-- Title: TemperatureController::readAllPoints Pages: 1 -->
<svg width="955pt" height="481pt"
 viewBox="0.00 0.00 955.00 481.00" xmlns="http://www.w3.org/2000/svg" xmlns:xlink="http://www.w3.org/1999/xlink">
<g id="graph0" class="graph" transform="scale(1 1) rotate(0) translate(4 476.88)">
<title>TemperatureController::readAllPoints</title>
<!-- Node1 -->
<g id="Node000001" class="node">
<title>Node1</title>
<g id="a_Node000001"><a xlink:title="Read temperature from all configured measurement points.">
<polygon fill="#999999" stroke="#666666" points="112,-211.88 0,-211.88 0,-181.38 112,-181.38 112,-211.88"/>
<text xml:space="preserve" text-anchor="start" x="8" y="-198.38" font-family="Helvetica,sans-Serif" font-size="10.00">TemperatureController</text>
<text xml:space="preserve" text-anchor="middle" x="56" y="-187.12" font-family="Helvetica,sans-Serif" font-size="10.00">::readAllPoints</text>
</a>
</g>
</g>
<!-- Node2 -->
<g id="Node000002" class="node">
<title>Node2</title>
<g id="a_Node000002"><a xlink:href="class_temperature_controller.html#aca5deddbf703001373424d876f87b5f2" target="_top" xlink:title="Main update function &#45; must be called in loop()">
<polygon fill="white" stroke="#666666" points="260,-211.88 148,-211.88 148,-181.38 260,-181.38 260,-211.88"/>
<text xml:space="preserve" text-anchor="start" x="156" y="-198.38" font-family="Helvetica,sans-Serif" font-size="10.00">TemperatureController</text>
<text xml:space="preserve" text-anchor="middle" x="204" y="-187.12" font-family="Helvetica,sans-Serif" font-size="10.00">::update</text>
</a>
</g>
</g>
<!-- Node1&#45;&gt;Node2 -->
<g id="edge1_Node000001_Node000002" class="edge">
<title>Node1&#45;&gt;Node2</title>
<g id="a_edge1_Node000001_Node000002"><a xlink:title=" ">
<path fill="none" stroke="#63b8ff" d="M112.2,-190.06C120.1,-189.89 128.3,-189.84 136.39,-189.9"/>
<polygon fill="#63b8ff" stroke="#63b8ff" points="136.16,-193.4 146.21,-190.03 136.26,-186.4 136.16,-193.4"/>
</a>
</g>
</g>
<!-- Node2&#45;&gt;Node1 -->
<g id="edge16_Node000002_Node000001" class="edge">
<title>Node2&#45;&gt;Node1</title>
<g id="a_edge16_Node000002_Node000001"><a xlink:title=" ">
<path fill="none" stroke="#63b8ff" d="M147.73,-203.19C139.82,-203.36 131.62,-203.41 123.53,-203.35"/>
<polygon fill="#63b8ff" stroke="#63b8ff" points="123.76,-199.85 113.71,-203.21 123.66,-206.85 123.76,-199.85"/>
</a>
</g>
</g>
<!-- Node3 -->
<g id="Node000003" class="node">
<title>Node3</title>
<g id="a_Node000003"><a xlink:href="class_temperature_controller.html#a1228b63e95f26c21a8d9c2a27928bc75" target="_top" xlink:title="Check for button press and handle acknowledgment.">
<polygon fill="white" stroke="#666666" points="575.5,-421.88 463.5,-421.88 463.5,-391.38 575.5,-391.38 575.5,-421.88"/>
<text xml:space="preserve" text-anchor="start" x="471.5" y="-408.38" font-family="Helvetica,sans-Serif" font-size="10.00">TemperatureController</text>
<text xml:space="preserve" text-anchor="middle" x="519.5" y="-397.12" font-family="Helvetica,sans-Serif" font-size="10.00">::_checkButtonPress</text>
</a>
</g>
</g>
<!-- Node2&#45;&gt;Node3 -->
<g id="edge2_Node000002_Node000003" class="edge">
<title>Node2&#45;&gt;Node3</title>
<g id="a_edge2_Node000002_Node000003"><a xlink:title=" ">
<path fill="none" stroke="#63b8ff" d="M209.95,-212.04C220.57,-242.59 248.52,-310.94 296,-346.62 341.21,-380.6 404.32,-395.35 451.79,-401.74"/>
<polygon fill="#63b8ff" stroke="#63b8ff" points="451.34,-405.21 461.69,-402.97 452.2,-398.27 451.34,-405.21"/>
</a>
</g>
</g>
<!-- Node4 -->
<g id="Node000004" class="node">
<title>Node4</title>
<g id="a_Node000004"><a xlink:href="class_temperature_controller.html#a5637103784725fb1a73f6463d7cbfde6" target="_top" xlink:title="Handle alarm display on OLED/LEDs.">
<polygon fill="white" stroke="#666666" points="408,-337.88 296,-337.88 296,-307.38 408,-307.38 408,-337.88"/>
<text xml:space="preserve" text-anchor="start" x="304" y="-324.38" font-family="Helvetica,sans-Serif" font-size="10.00">TemperatureController</text>
<text xml:space="preserve" text-anchor="middle" x="352" y="-313.12" font-family="Helvetica,sans-Serif" font-size="10.00">::handleAlarmDisplay</text>
</a>
</g>
</g>
<!-- Node2&#45;&gt;Node4 -->
<g id="edge3_Node000002_Node000004" class="edge">
<title>Node2&#45;&gt;Node4</title>
<g id="a_edge3_Node000002_Node000004"><a xlink:title=" ">
<path fill="none" stroke="#63b8ff" d="M223.2,-212.33C248.69,-234.33 295.2,-274.47 324.53,-299.78"/>
<polygon fill="#63b8ff" stroke="#63b8ff" points="322.03,-302.25 331.89,-306.13 326.6,-296.95 322.03,-302.25"/>
</a>
</g>
</g>
<!-- Node13 -->
<g id="Node000013" class="node">
<title>Node13</title>
<g id="a_Node000013"><a xlink:href="class_temperature_controller.html#a82e4c37ff4121eaf5e00e9c52381e840" target="_top" xlink:title="Handle alarm output signals.">
<polygon fill="white" stroke="#666666" points="408,-236.88 296,-236.88 296,-206.38 408,-206.38 408,-236.88"/>
<text xml:space="preserve" text-anchor="start" x="304" y="-223.38" font-family="Helvetica,sans-Serif" font-size="10.00">TemperatureController</text>
<text xml:space="preserve" text-anchor="middle" x="352" y="-212.12" font-family="Helvetica,sans-Serif" font-size="10.00">::handleAlarmOutputs</text>
</a>
</g>
</g>
<!-- Node2&#45;&gt;Node13 -->
<g id="edge13_Node000002_Node000013" class="edge">
<title>Node2&#45;&gt;Node13</title>
<g id="a_edge13_Node000002_Node000013"><a xlink:title=" ">
<path fill="none" stroke="#63b8ff" d="M260.2,-206.08C268.1,-207.43 276.3,-208.83 284.39,-210.22"/>
<polygon fill="#63b8ff" stroke="#63b8ff" points="283.79,-213.67 294.23,-211.9 284.97,-206.77 283.79,-213.67"/>
</a>
</g>
</g>
<!-- Node16 -->
<g id="Node000016" class="node">
<title>Node16</title>
<g id="a_Node000016"><a xlink:href="class_temperature_controller.html#a5ac8af90de5dfd79a9a2e4c7270a98a3" target="_top" xlink:title="Update alarm states for all measurement points.">
<polygon fill="white" stroke="#666666" points="408,-187.88 296,-187.88 296,-157.38 408,-157.38 408,-187.88"/>
<text xml:space="preserve" text-anchor="start" x="304" y="-174.38" font-family="Helvetica,sans-Serif" font-size="10.00">TemperatureController</text>
<text xml:space="preserve" text-anchor="middle" x="352" y="-163.12" font-family="Helvetica,sans-Serif" font-size="10.00">::updateAlarms</text>
</a>
</g>
</g>
<!-- Node2&#45;&gt;Node16 -->
<g id="edge17_Node000002_Node000016" class="edge">
<title>Node2&#45;&gt;Node16</title>
<g id="a_edge17_Node000002_Node000016"><a xlink:title=" ">
<path fill="none" stroke="#63b8ff" d="M260.2,-187.55C268.1,-186.25 276.3,-184.9 284.39,-183.57"/>
<polygon fill="#63b8ff" stroke="#63b8ff" points="284.93,-187.03 294.23,-181.96 283.8,-180.13 284.93,-187.03"/>
</a>
</g>
</g>
<!-- Node22 -->
<g id="Node000022" class="node">
<title>Node22</title>
<g id="a_Node000022"><a xlink:href="class_temperature_controller.html#a23dca296a268baa9b8234c8bf9cf0c3e" target="_top" xlink:title="Update temperature readings for all sensors.">
<polygon fill="white" stroke="#666666" points="408,-125.88 296,-125.88 296,-95.38 408,-95.38 408,-125.88"/>
<text xml:space="preserve" text-anchor="start" x="304" y="-112.38" font-family="Helvetica,sans-Serif" font-size="10.00">TemperatureController</text>
<text xml:space="preserve" text-anchor="middle" x="352" y="-101.12" font-family="Helvetica,sans-Serif" font-size="10.00">::updateAllSensors</text>
</a>
</g>
</g>
<!-- Node2&#45;&gt;Node22 -->
<g id="edge24_Node000002_Node000022" class="edge">
<title>Node2&#45;&gt;Node22</title>
<g id="a_edge24_Node000002_Node000022"><a xlink:title=" ">
<path fill="none" stroke="#63b8ff" d="M231.44,-181.05C254.65,-167.38 288.65,-147.35 314.46,-132.15"/>
<polygon fill="#63b8ff" stroke="#63b8ff" points="316.12,-135.23 322.96,-127.14 312.57,-129.2 316.12,-135.23"/>
</a>
</g>
</g>
<!-- Node28 -->
<g id="Node000028" class="node">
<title>Node28</title>
<g id="a_Node000028"><a xlink:href="class_temperature_controller.html#a62b93899a3b8b55e2e0bd933520c2892" target="_top" xlink:title="Update register map with current values from measurement points.">
<polygon fill="white" stroke="#666666" points="408,-76.88 296,-76.88 296,-46.38 408,-46.38 408,-76.88"/>
<text xml:space="preserve" text-anchor="start" x="304" y="-63.38" font-family="Helvetica,sans-Serif" font-size="10.00">TemperatureController</text>
<text xml:space="preserve" text-anchor="middle" x="352" y="-52.12" font-family="Helvetica,sans-Serif" font-size="10.00">::updateRegisterMap</text>
</a>
</g>
</g>
<!-- Node2&#45;&gt;Node28 -->
<g id="edge30_Node000002_Node000028" class="edge">
<title>Node2&#45;&gt;Node28</title>
<g id="a_edge30_Node000002_Node000028"><a xlink:title=" ">
<path fill="none" stroke="#63b8ff" d="M214.44,-181.24C229.29,-158.07 260.18,-114.04 296,-86.62 297.55,-85.44 299.16,-84.3 300.82,-83.2"/>
<polygon fill="#63b8ff" stroke="#63b8ff" points="302.59,-86.21 309.41,-78.1 299.02,-80.19 302.59,-86.21"/>
</a>
</g>
</g>
<!-- Node4&#45;&gt;Node3 -->
<g id="edge4_Node000004_Node000003" class="edge">
<title>Node4&#45;&gt;Node3</title>
<g id="a_edge4_Node000004_Node000003"><a xlink:title=" ">
<path fill="none" stroke="#63b8ff" d="M373.8,-338.28C391.69,-351.21 418.56,-369.35 444,-381.62 447.72,-383.42 451.6,-385.14 455.56,-386.78"/>
<polygon fill="#63b8ff" stroke="#63b8ff" points="454.13,-389.98 464.72,-390.36 456.69,-383.46 454.13,-389.98"/>
</a>
</g>
</g>
<!-- Node5 -->
<g id="Node000005" class="node">
<title>Node5</title>
<g id="a_Node000005"><a xlink:href="class_temperature_controller.html#a1d2745c323f7094beac8f406825499b7" target="_top" xlink:title="Handle alarm display rotation timing.">
<polygon fill="white" stroke="#666666" points="595,-372.88 444,-372.88 444,-342.38 595,-342.38 595,-372.88"/>
<text xml:space="preserve" text-anchor="start" x="452" y="-359.38" font-family="Helvetica,sans-Serif" font-size="10.00">TemperatureController</text>
<text xml:space="preserve" text-anchor="middle" x="519.5" y="-348.12" font-family="Helvetica,sans-Serif" font-size="10.00">::_handleAlarmDisplayRotation</text>
</a>
</g>
</g>
<!-- Node4&#45;&gt;Node5 -->
<g id="edge5_Node000004_Node000005" class="edge">
<title>Node4&#45;&gt;Node5</title>
<g id="a_edge5_Node000004_Node000005"><a xlink:title=" ">
<path fill="none" stroke="#63b8ff" d="M408.11,-334.28C416.15,-335.98 424.59,-337.76 433.06,-339.56"/>
<polygon fill="#63b8ff" stroke="#63b8ff" points="432.2,-342.95 442.71,-341.6 433.65,-336.1 432.2,-342.95"/>
</a>
</g>
</g>
<!-- Node10 -->
<g id="Node000010" class="node">
<title>Node10</title>
<g id="a_Node000010"><a xlink:href="class_temperature_controller.html#a477597992aa9362076843f37b648741a" target="_top" xlink:title="Update alarm display queues.">
<polygon fill="white" stroke="#666666" points="577.38,-323.88 461.62,-323.88 461.62,-293.38 577.38,-293.38 577.38,-323.88"/>
<text xml:space="preserve" text-anchor="start" x="469.62" y="-310.38" font-family="Helvetica,sans-Serif" font-size="10.00">TemperatureController</text>
<text xml:space="preserve" text-anchor="middle" x="519.5" y="-299.12" font-family="Helvetica,sans-Serif" font-size="10.00">::_updateAlarmQueues</text>
</a>
</g>
</g>
<!-- Node4&#45;&gt;Node10 -->
<g id="edge10_Node000004_Node000010" class="edge">
<title>Node4&#45;&gt;Node10</title>
<g id="a_edge10_Node000004_Node000010"><a xlink:title=" ">
<path fill="none" stroke="#63b8ff" d="M408.11,-317.96C421.61,-316.82 436.23,-315.58 450.26,-314.4"/>
<polygon fill="#63b8ff" stroke="#63b8ff" points="450.19,-317.92 459.86,-313.59 449.6,-310.94 450.19,-317.92"/>
</a>
</g>
</g>
<!-- Node6 -->
<g id="Node000006" class="node">
<title>Node6</title>
<g id="a_Node000006"><a xlink:href="class_temperature_controller.html#ac44de0834e13cec755e247ce1df21f09" target="_top" xlink:title="Display next acknowledged alarm.">
<polygon fill="white" stroke="#666666" points="799.25,-472.88 631,-472.88 631,-442.38 799.25,-442.38 799.25,-472.88"/>
<text xml:space="preserve" text-anchor="start" x="639" y="-459.38" font-family="Helvetica,sans-Serif" font-size="10.00">TemperatureController</text>
<text xml:space="preserve" text-anchor="middle" x="715.12" y="-448.12" font-family="Helvetica,sans-Serif" font-size="10.00">::_displayNextAcknowledgedAlarm</text>
</a>
</g>
</g>
<!-- Node5&#45;&gt;Node6 -->
<g id="edge6_Node000005_Node000006" class="edge">
<title>Node5&#45;&gt;Node6</title>
<g id="a_edge6_Node000005_Node000006"><a xlink:title=" ">
<path fill="none" stroke="#63b8ff" d="M579.21,-373.33C584.8,-375.99 590.17,-379.06 595,-382.62 617.04,-398.87 608.7,-416.73 631,-432.62 633.04,-434.08 635.17,-435.46 637.37,-436.75"/>
<polygon fill="#63b8ff" stroke="#63b8ff" points="635.53,-439.74 646.01,-441.24 638.75,-433.52 635.53,-439.74"/>
</a>
</g>
</g>
<!-- Node7 -->
<g id="Node000007" class="node">
<title>Node7</title>
<g id="a_Node000007"><a xlink:href="class_temperature_controller.html#a7ca5124357f98bcd52316cf017341b09" target="_top" xlink:title="Display next active alarm in rotation.">
<polygon fill="white" stroke="#666666" points="781.25,-423.88 649,-423.88 649,-393.38 781.25,-393.38 781.25,-423.88"/>
<text xml:space="preserve" text-anchor="start" x="657" y="-410.38" font-family="Helvetica,sans-Serif" font-size="10.00">TemperatureController</text>
<text xml:space="preserve" text-anchor="middle" x="715.12" y="-399.12" font-family="Helvetica,sans-Serif" font-size="10.00">::_displayNextActiveAlarm</text>
</a>
</g>
</g>
<!-- Node5&#45;&gt;Node7 -->
<g id="edge7_Node000005_Node000007" class="edge">
<title>Node5&#45;&gt;Node7</title>
<g id="a_edge7_Node000005_Node000007"><a xlink:title=" ">
<path fill="none" stroke="#63b8ff" d="M580.17,-373.34C600.24,-378.63 622.81,-384.57 643.62,-390.05"/>
<polygon fill="#63b8ff" stroke="#63b8ff" points="642.62,-393.41 653.18,-392.57 644.41,-386.64 642.62,-393.41"/>
</a>
</g>
</g>
<!-- Node8 -->
<g id="Node000008" class="node">
<title>Node8</title>
<g id="a_Node000008"><a xlink:href="class_temperature_controller.html#a28e81945f5235e161e6c532b428d36d2" target="_top" xlink:title="Show OK status and turn off OLED after delay.">
<polygon fill="white" stroke="#666666" points="786.12,-374.88 644.12,-374.88 644.12,-344.38 786.12,-344.38 786.12,-374.88"/>
<text xml:space="preserve" text-anchor="start" x="652.12" y="-361.38" font-family="Helvetica,sans-Serif" font-size="10.00">TemperatureController</text>
<text xml:space="preserve" text-anchor="middle" x="715.12" y="-350.12" font-family="Helvetica,sans-Serif" font-size="10.00">::_showOKAndTurnOffOLED</text>
</a>
</g>
</g>
<!-- Node5&#45;&gt;Node8 -->
<g id="edge8_Node000005_Node000008" class="edge">
<title>Node5&#45;&gt;Node8</title>
<g id="a_edge8_Node000005_Node000008"><a xlink:title=" ">
<path fill="none" stroke="#63b8ff" d="M595.36,-358.4C607.58,-358.52 620.3,-358.66 632.67,-358.78"/>
<polygon fill="#63b8ff" stroke="#63b8ff" points="632.36,-362.28 642.39,-358.88 632.43,-355.28 632.36,-362.28"/>
</a>
</g>
</g>
<!-- Node9 -->
<g id="Node000009" class="node">
<title>Node9</title>
<g id="a_Node000009"><a xlink:href="class_temperature_controller.html#a4d36576f7d6ab8f5222a082878314912" target="_top" xlink:title="Update normal temperature display.">
<polygon fill="white" stroke="#666666" points="775.62,-325.88 654.62,-325.88 654.62,-295.38 775.62,-295.38 775.62,-325.88"/>
<text xml:space="preserve" text-anchor="start" x="662.62" y="-312.38" font-family="Helvetica,sans-Serif" font-size="10.00">TemperatureController</text>
<text xml:space="preserve" text-anchor="middle" x="715.12" y="-301.12" font-family="Helvetica,sans-Serif" font-size="10.00">::_updateNormalDisplay</text>
</a>
</g>
</g>
<!-- Node5&#45;&gt;Node9 -->
<g id="edge9_Node000005_Node000009" class="edge">
<title>Node5&#45;&gt;Node9</title>
<g id="a_edge9_Node000005_Node000009"><a xlink:title=" ">
<path fill="none" stroke="#63b8ff" d="M585.24,-341.91C603.9,-337.38 624.35,-332.42 643.35,-327.81"/>
<polygon fill="#63b8ff" stroke="#63b8ff" points="643.98,-331.25 652.87,-325.49 642.33,-324.45 643.98,-331.25"/>
</a>
</g>
</g>
<!-- Node11 -->
<g id="Node000011" class="node">
<title>Node11</title>
<g id="a_Node000011"><a xlink:href="class_temperature_controller.html#af58201023d15de003d4f1b9a9771a9e3" target="_top" xlink:title="Get list of active alarms.">
<polygon fill="white" stroke="#666666" points="771.12,-239.88 659.12,-239.88 659.12,-209.38 771.12,-209.38 771.12,-239.88"/>
<text xml:space="preserve" text-anchor="start" x="667.12" y="-226.38" font-family="Helvetica,sans-Serif" font-size="10.00">TemperatureController</text>
<text xml:space="preserve" text-anchor="middle" x="715.12" y="-215.12" font-family="Helvetica,sans-Serif" font-size="10.00">::getActiveAlarms</text>
</a>
</g>
</g>
<!-- Node10&#45;&gt;Node11 -->
<g id="edge11_Node000010_Node000011" class="edge">
<title>Node10&#45;&gt;Node11</title>
<g id="a_edge11_Node000010_Node000011"><a xlink:title=" ">
<path fill="none" stroke="#63b8ff" d="M576.27,-293.01C582.78,-290.29 589.18,-287.18 595,-283.62 614.05,-272.01 611.7,-259.83 631,-248.62 636.36,-245.51 642.15,-242.78 648.09,-240.39"/>
<polygon fill="#63b8ff" stroke="#63b8ff" points="649.28,-243.68 657.47,-236.95 646.88,-237.1 649.28,-243.68"/>
</a>
</g>
</g>
<!-- Node12 -->
<g id="Node000012" class="node">
<title>Node12</title>
<g id="a_Node000012"><a xlink:href="class_alarm.html#a7a4a3290a6a659542f82fe08a96736a8" target="_top" xlink:title="Get the alarm creation timestamp.">
<polygon fill="white" stroke="#666666" points="770,-277.25 660.25,-277.25 660.25,-258 770,-258 770,-277.25"/>
<text xml:space="preserve" text-anchor="middle" x="715.12" y="-263.75" font-family="Helvetica,sans-Serif" font-size="10.00">Alarm::getTimestamp</text>
</a>
</g>
</g>
<!-- Node10&#45;&gt;Node12 -->
<g id="edge12_Node000010_Node000012" class="edge">
<title>Node10&#45;&gt;Node12</title>
<g id="a_edge12_Node000010_Node000012"><a xlink:title=" ">
<path fill="none" stroke="#63b8ff" d="M577.81,-296.49C602.27,-291.31 630.8,-285.27 655.42,-280.06"/>
<polygon fill="#63b8ff" stroke="#63b8ff" points="655.89,-283.53 664.95,-278.04 654.44,-276.69 655.89,-283.53"/>
</a>
</g>
</g>
<!-- Node14 -->
<g id="Node000014" class="node">
<title>Node14</title>
<g id="a_Node000014"><a xlink:href="class_temperature_controller.html#a3022c7a72adb45a7800d5189eecdac4e" target="_top" xlink:title="Get total number of configured alarms.">
<polygon fill="white" stroke="#666666" points="575.5,-274.88 463.5,-274.88 463.5,-244.38 575.5,-244.38 575.5,-274.88"/>
<text xml:space="preserve" text-anchor="start" x="471.5" y="-261.38" font-family="Helvetica,sans-Serif" font-size="10.00">TemperatureController</text>
<text xml:space="preserve" text-anchor="middle" x="519.5" y="-250.12" font-family="Helvetica,sans-Serif" font-size="10.00">::getAlarmCount</text>
</a>
</g>
</g>
<!-- Node13&#45;&gt;Node14 -->
<g id="edge14_Node000013_Node000014" class="edge">
<title>Node13&#45;&gt;Node14</title>
<g id="a_edge14_Node000013_Node000014"><a xlink:title=" ">
<path fill="none" stroke="#63b8ff" d="M408.11,-234.28C422.2,-237.51 437.49,-241.02 452.08,-244.37"/>
<polygon fill="#63b8ff" stroke="#63b8ff" points="451.06,-247.73 461.59,-246.56 452.63,-240.91 451.06,-247.73"/>
</a>
</g>
</g>
<!-- Node15 -->
<g id="Node000015" class="node">
<title>Node15</title>
<g id="a_Node000015"><a xlink:href="class_logger_manager.html#a5c1373ccc47f4112b596fe6f84fbbc21" target="_top" xlink:title="Log informational message (static convenience method)">
<polygon fill="white" stroke="#666666" points="571.75,-226.25 467.25,-226.25 467.25,-207 571.75,-207 571.75,-226.25"/>
<text xml:space="preserve" text-anchor="middle" x="519.5" y="-212.75" font-family="Helvetica,sans-Serif" font-size="10.00">LoggerManager::info</text>
</a>
</g>
</g>
<!-- Node13&#45;&gt;Node15 -->
<g id="edge15_Node000013_Node000015" class="edge">
<title>Node13&#45;&gt;Node15</title>
<g id="a_edge15_Node000013_Node000015"><a xlink:title=" ">
<path fill="none" stroke="#63b8ff" d="M408.11,-219.96C423.39,-219.5 440.1,-218.99 455.78,-218.52"/>
<polygon fill="#63b8ff" stroke="#63b8ff" points="455.59,-222.03 465.48,-218.23 455.37,-215.03 455.59,-222.03"/>
</a>
</g>
</g>
<!-- Node16&#45;&gt;Node11 -->
<g id="edge18_Node000016_Node000011" class="edge">
<title>Node16&#45;&gt;Node11</title>
<g id="a_edge18_Node000016_Node000011"><a xlink:title=" ">
<path fill="none" stroke="#63b8ff" d="M408.03,-176.42C457.25,-180.26 531.23,-187.14 595,-197.62 612.17,-200.45 630.56,-204.23 647.64,-208.07"/>
<polygon fill="#63b8ff" stroke="#63b8ff" points="646.64,-211.44 657.17,-210.26 648.2,-204.61 646.64,-211.44"/>
</a>
</g>
</g>
<!-- Node17 -->
<g id="Node000017" class="node">
<title>Node17</title>
<g id="a_Node000017"><a xlink:href="class_temperature_controller.html#a9b4fe09d4c87dcf86e78b890012e1e72" target="_top" xlink:title="Get sensor bound to measurement point.">
<polygon fill="white" stroke="#666666" points="575.5,-150.88 463.5,-150.88 463.5,-120.38 575.5,-120.38 575.5,-150.88"/>
<text xml:space="preserve" text-anchor="start" x="471.5" y="-137.38" font-family="Helvetica,sans-Serif" font-size="10.00">TemperatureController</text>
<text xml:space="preserve" text-anchor="middle" x="519.5" y="-126.12" font-family="Helvetica,sans-Serif" font-size="10.00">::getBoundSensor</text>
</a>
</g>
</g>
<!-- Node16&#45;&gt;Node17 -->
<g id="edge19_Node000016_Node000017" class="edge">
<title>Node16&#45;&gt;Node17</title>
<g id="a_edge19_Node000016_Node000017"><a xlink:title=" ">
<path fill="none" stroke="#63b8ff" d="M408.11,-160.3C422.2,-157.16 437.49,-153.74 452.08,-150.47"/>
<polygon fill="#63b8ff" stroke="#63b8ff" points="452.59,-153.95 461.59,-148.35 451.07,-147.11 452.59,-153.95"/>
</a>
</g>
</g>
<!-- Node18 -->
<g id="Node000018" class="node">
<title>Node18</title>
<g id="a_Node000018"><a xlink:href="class_measurement_point.html#a81c7ae93a9314344967d0f31c6fefe2f" target="_top" xlink:title="Get pointer to bound sensor.">
<polygon fill="white" stroke="#666666" points="787.62,-190.88 642.62,-190.88 642.62,-160.38 787.62,-160.38 787.62,-190.88"/>
<text xml:space="preserve" text-anchor="start" x="650.62" y="-177.38" font-family="Helvetica,sans-Serif" font-size="10.00">MeasurementPoint::getBound</text>
<text xml:space="preserve" text-anchor="middle" x="715.12" y="-166.12" font-family="Helvetica,sans-Serif" font-size="10.00">Sensor</text>
</a>
</g>
</g>
<!-- Node17&#45;&gt;Node18 -->
<g id="edge20_Node000017_Node000018" class="edge">
<title>Node17&#45;&gt;Node18</title>
<g id="a_edge20_Node000017_Node000018"><a xlink:title=" ">
<path fill="none" stroke="#63b8ff" d="M575.99,-147.09C593.19,-150.64 612.53,-154.64 631.17,-158.49"/>
<polygon fill="#63b8ff" stroke="#63b8ff" points="630.37,-161.9 640.87,-160.49 631.79,-155.04 630.37,-161.9"/>
</a>
</g>
</g>
<!-- Node19 -->
<g id="Node000019" class="node">
<title>Node19</title>
<g id="a_Node000019"><a xlink:href="class_temperature_controller.html#a494f057c234b4ff7526bde271aec9267" target="_top" xlink:title="Get measurement point by address.">
<polygon fill="white" stroke="#666666" points="773.75,-141.88 656.5,-141.88 656.5,-111.38 773.75,-111.38 773.75,-141.88"/>
<text xml:space="preserve" text-anchor="start" x="664.5" y="-128.38" font-family="Helvetica,sans-Serif" font-size="10.00">TemperatureController</text>
<text xml:space="preserve" text-anchor="middle" x="715.12" y="-117.12" font-family="Helvetica,sans-Serif" font-size="10.00">::getMeasurementPoint</text>
</a>
</g>
</g>
<!-- Node17&#45;&gt;Node19 -->
<g id="edge21_Node000017_Node000019" class="edge">
<title>Node17&#45;&gt;Node19</title>
<g id="a_edge21_Node000017_Node000019"><a xlink:title=" ">
<path fill="none" stroke="#63b8ff" d="M575.99,-133.05C597.49,-132.05 622.36,-130.89 645.01,-129.84"/>
<polygon fill="#63b8ff" stroke="#63b8ff" points="644.93,-133.35 654.76,-129.38 644.61,-126.35 644.93,-133.35"/>
</a>
</g>
</g>
<!-- Node20 -->
<g id="Node000020" class="node">
<title>Node20</title>
<g id="a_Node000020"><a xlink:href="class_temperature_controller.html#ad322a5bab8d5788a586206004248f673" target="_top" xlink:title="Check if address is for DS18B20 sensor.">
<polygon fill="white" stroke="#666666" points="947.25,-165.88 835.25,-165.88 835.25,-135.38 947.25,-135.38 947.25,-165.88"/>
<text xml:space="preserve" text-anchor="start" x="843.25" y="-152.38" font-family="Helvetica,sans-Serif" font-size="10.00">TemperatureController</text>
<text xml:space="preserve" text-anchor="middle" x="891.25" y="-141.12" font-family="Helvetica,sans-Serif" font-size="10.00">::isDS18B20Address</text>
</a>
</g>
</g>
<!-- Node19&#45;&gt;Node20 -->
<g id="edge22_Node000019_Node000020" class="edge">
<title>Node19&#45;&gt;Node20</title>
<g id="a_edge22_Node000019_Node000020"><a xlink:title=" ">
<path fill="none" stroke="#63b8ff" d="M774.11,-134.62C790.02,-136.81 807.4,-139.21 823.76,-141.46"/>
<polygon fill="#63b8ff" stroke="#63b8ff" points="823,-144.89 833.38,-142.79 823.96,-137.95 823,-144.89"/>
</a>
</g>
</g>
<!-- Node21 -->
<g id="Node000021" class="node">
<title>Node21</title>
<g id="a_Node000021"><a xlink:href="class_temperature_controller.html#a13125ddcf29cb56d27403818543618af" target="_top" xlink:title="Check if address is for PT1000 sensor.">
<polygon fill="white" stroke="#666666" points="947.25,-116.88 835.25,-116.88 835.25,-86.38 947.25,-86.38 947.25,-116.88"/>
<text xml:space="preserve" text-anchor="start" x="843.25" y="-103.38" font-family="Helvetica,sans-Serif" font-size="10.00">TemperatureController</text>
<text xml:space="preserve" text-anchor="middle" x="891.25" y="-92.12" font-family="Helvetica,sans-Serif" font-size="10.00">::isPT1000Address</text>
</a>
</g>
</g>
<!-- Node19&#45;&gt;Node21 -->
<g id="edge23_Node000019_Node000021" class="edge">
<title>Node19&#45;&gt;Node21</title>
<g id="a_edge23_Node000019_Node000021"><a xlink:title=" ">
<path fill="none" stroke="#63b8ff" d="M774.11,-118.3C790.02,-116.02 807.4,-113.52 823.76,-111.17"/>
<polygon fill="#63b8ff" stroke="#63b8ff" points="823.98,-114.68 833.38,-109.79 822.99,-107.75 823.98,-114.68"/>
</a>
</g>
</g>
<!-- Node23 -->
<g id="Node000023" class="node">
<title>Node23</title>
<g id="a_Node000023"><a xlink:href="class_logger_manager.html#aef24f00186213fa78be3b104a50d58e6" target="_top" xlink:title="Log error message (static convenience method)">
<polygon fill="white" stroke="#666666" points="573.62,-102.25 465.38,-102.25 465.38,-83 573.62,-83 573.62,-102.25"/>
<text xml:space="preserve" text-anchor="middle" x="519.5" y="-88.75" font-family="Helvetica,sans-Serif" font-size="10.00">LoggerManager::error</text>
</a>
</g>
</g>
<!-- Node22&#45;&gt;Node23 -->
<g id="edge25_Node000022_Node000023" class="edge">
<title>Node22&#45;&gt;Node23</title>
<g id="a_edge25_Node000022_Node000023"><a xlink:title=" ">
<path fill="none" stroke="#63b8ff" d="M408.11,-104.63C422.72,-103.04 438.63,-101.31 453.71,-99.67"/>
<polygon fill="#63b8ff" stroke="#63b8ff" points="453.97,-103.16 463.53,-98.6 453.21,-96.21 453.97,-103.16"/>
</a>
</g>
</g>
<!-- Node24 -->
<g id="Node000024" class="node">
<title>Node24</title>
<g id="a_Node000024"><a xlink:href="class_temperature_controller.html#a01e04714a1712aa10c34276850971a12" target="_top" xlink:title="Get bus number for a sensor.">
<polygon fill="white" stroke="#666666" points="575.5,-63.88 463.5,-63.88 463.5,-33.38 575.5,-33.38 575.5,-63.88"/>
<text xml:space="preserve" text-anchor="start" x="471.5" y="-50.38" font-family="Helvetica,sans-Serif" font-size="10.00">TemperatureController</text>
<text xml:space="preserve" text-anchor="middle" x="519.5" y="-39.12" font-family="Helvetica,sans-Serif" font-size="10.00">::getSensorBus</text>
</a>
</g>
</g>
<!-- Node22&#45;&gt;Node24 -->
<g id="edge26_Node000022_Node000024" class="edge">
<title>Node22&#45;&gt;Node24</title>
<g id="a_edge26_Node000022_Node000024"><a xlink:title=" ">
<path fill="none" stroke="#63b8ff" d="M389.99,-94.98C406.43,-88.18 426.09,-80.26 444,-73.62 449.01,-71.77 454.24,-69.89 459.49,-68.05"/>
<polygon fill="#63b8ff" stroke="#63b8ff" points="460.52,-71.4 468.82,-64.82 458.23,-64.78 460.52,-71.4"/>
</a>
</g>
</g>
<!-- Node25 -->
<g id="Node000025" class="node">
<title>Node25</title>
<g id="a_Node000025"><a xlink:href="class_sensor.html#ac42da3a37b0d6a9622344fe83f4c9047" target="_top" xlink:title="Get OneWire bus pin.">
<polygon fill="white" stroke="#666666" points="774.5,-93.25 655.75,-93.25 655.75,-74 774.5,-74 774.5,-93.25"/>
<text xml:space="preserve" text-anchor="middle" x="715.12" y="-79.75" font-family="Helvetica,sans-Serif" font-size="10.00">Sensor::getOneWirePin</text>
</a>
</g>
</g>
<!-- Node24&#45;&gt;Node25 -->
<g id="edge27_Node000024_Node000025" class="edge">
<title>Node24&#45;&gt;Node25</title>
<g id="a_edge27_Node000024_Node000025"><a xlink:title=" ">
<path fill="none" stroke="#63b8ff" d="M575.99,-58.65C598.17,-62.66 623.92,-67.32 647.13,-71.52"/>
<polygon fill="#63b8ff" stroke="#63b8ff" points="646.34,-74.93 656.81,-73.26 647.59,-68.04 646.34,-74.93"/>
</a>
</g>
</g>
<!-- Node26 -->
<g id="Node000026" class="node">
<title>Node26</title>
<g id="a_Node000026"><a xlink:href="class_sensor.html#a6f57825e90b759ccdb9fe07b3a36953d" target="_top" xlink:title="Get PT1000 chip select pin.">
<polygon fill="white" stroke="#666666" points="796.25,-56.25 634,-56.25 634,-37 796.25,-37 796.25,-56.25"/>
<text xml:space="preserve" text-anchor="middle" x="715.12" y="-42.75" font-family="Helvetica,sans-Serif" font-size="10.00">Sensor::getPT1000ChipSelectPin</text>
</a>
</g>
</g>
<!-- Node24&#45;&gt;Node26 -->
<g id="edge28_Node000024_Node000026" class="edge">
<title>Node24&#45;&gt;Node26</title>
<g id="a_edge28_Node000024_Node000026"><a xlink:title=" ">
<path fill="none" stroke="#63b8ff" d="M575.99,-48.05C590.46,-47.9 606.46,-47.74 622.28,-47.57"/>
<polygon fill="#63b8ff" stroke="#63b8ff" points="622.26,-51.07 632.23,-47.47 622.19,-44.07 622.26,-51.07"/>
</a>
</g>
</g>
<!-- Node27 -->
<g id="Node000027" class="node">
<title>Node27</title>
<g id="a_Node000027"><a xlink:href="class_sensor.html#a0f6f095e7cfdfffb2a395dfdae7cfa53" target="_top" xlink:title="Get sensor type.">
<polygon fill="white" stroke="#666666" points="758.75,-19.25 671.5,-19.25 671.5,0 758.75,0 758.75,-19.25"/>
<text xml:space="preserve" text-anchor="middle" x="715.12" y="-5.75" font-family="Helvetica,sans-Serif" font-size="10.00">Sensor::getType</text>
</a>
</g>
</g>
<!-- Node24&#45;&gt;Node27 -->
<g id="edge29_Node000024_Node000027" class="edge">
<title>Node24&#45;&gt;Node27</title>
<g id="a_edge29_Node000024_Node000027"><a xlink:title=" ">
<path fill="none" stroke="#63b8ff" d="M575.99,-37.45C602.37,-32.14 633.79,-25.81 659.99,-20.53"/>
<polygon fill="#63b8ff" stroke="#63b8ff" points="660.65,-23.97 669.76,-18.56 659.27,-17.1 660.65,-23.97"/>
</a>
</g>
</g>
</g>
</svg>
