<?xml version="1.0" encoding="UTF-8" standalone="no"?>
<!DOCTYPE svg PUBLIC "-//W3C//DTD SVG 1.1//EN"
 "http://www.w3.org/Graphics/SVG/1.1/DTD/svg11.dtd">
<!-- Generated by graphviz version 13.1.0 (20250701.0955)
 -->
<!-- Title: MQTTManager::begin Pages: 1 -->
<svg width="683pt" height="101pt"
 viewBox="0.00 0.00 683.00 101.00" xmlns="http://www.w3.org/2000/svg" xmlns:xlink="http://www.w3.org/1999/xlink">
<g id="graph0" class="graph" transform="scale(1 1) rotate(0) translate(4 97.25)">
<title>MQTTManager::begin</title>
<!-- Node1 -->
<g id="Node000001" class="node">
<title>Node1</title>
<g id="a_Node000001"><a xlink:title="Initialize MQTT manager and establish connection.">
<polygon fill="#999999" stroke="#666666" points="110.5,-56.25 0,-56.25 0,-37 110.5,-37 110.5,-56.25"/>
<text xml:space="preserve" text-anchor="middle" x="55.25" y="-42.75" font-family="Helvetica,sans-Serif" font-size="10.00">MQTTManager::begin</text>
</a>
</g>
</g>
<!-- Node2 -->
<g id="Node000002" class="node">
<title>Node2</title>
<g id="a_Node000002"><a xlink:href="class_m_q_t_t_manager.html#a129d111c8b1ae84640849bc206098853" target="_top" xlink:title="Attempt to connect to MQTT broker (non&#45;blocking)">
<polygon fill="white" stroke="#666666" points="316.25,-93.25 146.5,-93.25 146.5,-74 316.25,-74 316.25,-93.25"/>
<text xml:space="preserve" text-anchor="middle" x="231.38" y="-79.75" font-family="Helvetica,sans-Serif" font-size="10.00">MQTTManager::attemptConnection</text>
</a>
</g>
</g>
<!-- Node1&#45;&gt;Node2 -->
<g id="edge1_Node000001_Node000002" class="edge">
<title>Node1&#45;&gt;Node2</title>
<g id="a_edge1_Node000001_Node000002"><a xlink:title=" ">
<path fill="none" stroke="#63b8ff" d="M103.83,-56.74C124.75,-61.18 149.53,-66.45 171.6,-71.14"/>
<polygon fill="#63b8ff" stroke="#63b8ff" points="170.86,-74.56 181.37,-73.21 172.32,-67.71 170.86,-74.56"/>
</a>
</g>
</g>
<!-- Node3 -->
<g id="Node000003" class="node">
<title>Node3</title>
<g id="a_Node000003"><a xlink:href="class_m_q_t_t_manager.html#a43dca57da65facd4d341963403dd737b" target="_top" xlink:title="Load configuration from JSON file on SD card.">
<polygon fill="white" stroke="#666666" points="298.25,-56.25 164.5,-56.25 164.5,-37 298.25,-37 298.25,-56.25"/>
<text xml:space="preserve" text-anchor="middle" x="231.38" y="-42.75" font-family="Helvetica,sans-Serif" font-size="10.00">MQTTManager::loadConfig</text>
</a>
</g>
</g>
<!-- Node1&#45;&gt;Node3 -->
<g id="edge2_Node000001_Node000003" class="edge">
<title>Node1&#45;&gt;Node3</title>
<g id="a_edge2_Node000001_Node000003"><a xlink:title=" ">
<path fill="none" stroke="#63b8ff" d="M110.87,-46.62C124.17,-46.62 138.65,-46.62 152.79,-46.62"/>
<polygon fill="#63b8ff" stroke="#63b8ff" points="152.51,-50.13 162.51,-46.63 152.51,-43.13 152.51,-50.13"/>
</a>
</g>
</g>
<!-- Node6 -->
<g id="Node000006" class="node">
<title>Node6</title>
<g id="a_Node000006"><a xlink:href="class_m_q_t_t_manager.html#aaac19647fab19e7a0f819691ba06e772" target="_top" xlink:title="Static callback function for MQTT message reception.">
<polygon fill="white" stroke="#666666" points="314,-19.25 148.75,-19.25 148.75,0 314,0 314,-19.25"/>
<text xml:space="preserve" text-anchor="middle" x="231.38" y="-5.75" font-family="Helvetica,sans-Serif" font-size="10.00">MQTTManager::messageCallback</text>
</a>
</g>
</g>
<!-- Node1&#45;&gt;Node6 -->
<g id="edge5_Node000001_Node000006" class="edge">
<title>Node1&#45;&gt;Node6</title>
<g id="a_edge5_Node000001_Node000006"><a xlink:title=" ">
<path fill="none" stroke="#63b8ff" d="M103.83,-36.51C124.75,-32.07 149.53,-26.8 171.6,-22.11"/>
<polygon fill="#63b8ff" stroke="#63b8ff" points="172.32,-25.54 181.37,-20.04 170.86,-18.69 172.32,-25.54"/>
</a>
</g>
</g>
<!-- Node4 -->
<g id="Node000004" class="node">
<title>Node4</title>
<g id="a_Node000004"><a xlink:href="class_m_q_t_t_manager.html#ac17b9ceb70d483611944d626c8c933a1" target="_top" xlink:title="Set configuration from JSON string.">
<polygon fill="white" stroke="#666666" points="505.12,-56.25 354.88,-56.25 354.88,-37 505.12,-37 505.12,-56.25"/>
<text xml:space="preserve" text-anchor="middle" x="430" y="-42.75" font-family="Helvetica,sans-Serif" font-size="10.00">MQTTManager::setConfigJson</text>
</a>
</g>
</g>
<!-- Node3&#45;&gt;Node4 -->
<g id="edge3_Node000003_Node000004" class="edge">
<title>Node3&#45;&gt;Node4</title>
<g id="a_edge3_Node000003_Node000004"><a xlink:title=" ">
<path fill="none" stroke="#63b8ff" d="M298.67,-46.62C312.97,-46.62 328.29,-46.62 343.22,-46.62"/>
<polygon fill="#63b8ff" stroke="#63b8ff" points="343.02,-50.13 353.02,-46.63 343.02,-43.13 343.02,-50.13"/>
</a>
</g>
</g>
<!-- Node5 -->
<g id="Node000005" class="node">
<title>Node5</title>
<g id="a_Node000005"><a xlink:href="class_m_q_t_t_manager.html#a542f100738a605efbd30b788835efd1d" target="_top" xlink:title="Build topic string based on configuration.">
<polygon fill="white" stroke="#666666" points="674.5,-56.25 543.75,-56.25 543.75,-37 674.5,-37 674.5,-56.25"/>
<text xml:space="preserve" text-anchor="middle" x="609.12" y="-42.75" font-family="Helvetica,sans-Serif" font-size="10.00">MQTTManager::buildTopic</text>
</a>
</g>
</g>
<!-- Node4&#45;&gt;Node5 -->
<g id="edge4_Node000004_Node000005" class="edge">
<title>Node4&#45;&gt;Node5</title>
<g id="a_edge4_Node000004_Node000005"><a xlink:title=" ">
<path fill="none" stroke="#63b8ff" d="M505.6,-46.62C514.35,-46.62 523.28,-46.62 532.04,-46.62"/>
<polygon fill="#63b8ff" stroke="#63b8ff" points="531.92,-50.13 541.92,-46.63 531.92,-43.13 531.92,-50.13"/>
</a>
</g>
</g>
<!-- Node7 -->
<g id="Node000007" class="node">
<title>Node7</title>
<g id="a_Node000007"><a xlink:href="class_m_q_t_t_manager.html#aa915f47a548fa481517a2450ad1a6970" target="_top" xlink:title="Static method to handle received messages.">
<polygon fill="white" stroke="#666666" points="507.75,-19.25 352.25,-19.25 352.25,0 507.75,0 507.75,-19.25"/>
<text xml:space="preserve" text-anchor="middle" x="430" y="-5.75" font-family="Helvetica,sans-Serif" font-size="10.00">MQTTManager::handleMessage</text>
</a>
</g>
</g>
<!-- Node6&#45;&gt;Node7 -->
<g id="edge6_Node000006_Node000007" class="edge">
<title>Node6&#45;&gt;Node7</title>
<g id="a_edge6_Node000006_Node000007"><a xlink:title=" ">
<path fill="none" stroke="#63b8ff" d="M314.34,-9.62C322.98,-9.62 331.8,-9.62 340.52,-9.62"/>
<polygon fill="#63b8ff" stroke="#63b8ff" points="340.38,-13.13 350.38,-9.63 340.38,-6.13 340.38,-13.13"/>
</a>
</g>
</g>
</g>
</svg>
