<?xml version="1.0" encoding="UTF-8" standalone="no"?>
<!DOCTYPE svg PUBLIC "-//W3C//DTD SVG 1.1//EN"
 "http://www.w3.org/Graphics/SVG/1.1/DTD/svg11.dtd">
<!-- Generated by graphviz version 13.1.0 (20250701.0955)
 -->
<!-- Title: IndicatorInterface::update Pages: 1 -->
<svg width="839pt" height="290pt"
 viewBox="0.00 0.00 839.00 290.00" xmlns="http://www.w3.org/2000/svg" xmlns:xlink="http://www.w3.org/1999/xlink">
<g id="graph0" class="graph" transform="scale(1 1) rotate(0) translate(4 285.5)">
<title>IndicatorInterface::update</title>
<!-- Node1 -->
<g id="Node000001" class="node">
<title>Node1</title>
<g id="a_Node000001"><a xlink:title=" ">
<polygon fill="#999999" stroke="#666666" points="91.75,-201.5 0,-201.5 0,-171 91.75,-171 91.75,-201.5"/>
<text xml:space="preserve" text-anchor="start" x="8" y="-188" font-family="Helvetica,sans-Serif" font-size="10.00">IndicatorInterface</text>
<text xml:space="preserve" text-anchor="middle" x="45.88" y="-176.75" font-family="Helvetica,sans-Serif" font-size="10.00">::update</text>
</a>
</g>
</g>
<!-- Node2 -->
<g id="Node000002" class="node">
<title>Node2</title>
<g id="a_Node000002"><a xlink:href="class_indicator_interface.html#a891f8dd7ca0b76e7d89c0ab5567303da" target="_top" xlink:title=" ">
<polygon fill="white" stroke="#666666" points="219.5,-244.5 127.75,-244.5 127.75,-214 219.5,-214 219.5,-244.5"/>
<text xml:space="preserve" text-anchor="start" x="135.75" y="-231" font-family="Helvetica,sans-Serif" font-size="10.00">IndicatorInterface</text>
<text xml:space="preserve" text-anchor="middle" x="173.62" y="-219.75" font-family="Helvetica,sans-Serif" font-size="10.00">::updateBlinking</text>
</a>
</g>
</g>
<!-- Node1&#45;&gt;Node2 -->
<g id="edge1_Node000001_Node000002" class="edge">
<title>Node1&#45;&gt;Node2</title>
<g id="a_edge1_Node000001_Node000002"><a xlink:title=" ">
<path fill="none" stroke="#63b8ff" d="M91.92,-201.65C99.95,-204.4 108.41,-207.29 116.71,-210.13"/>
<polygon fill="#63b8ff" stroke="#63b8ff" points="115.45,-213.4 126.04,-213.32 117.71,-206.77 115.45,-213.4"/>
</a>
</g>
</g>
<!-- Node4 -->
<g id="Node000004" class="node">
<title>Node4</title>
<g id="a_Node000004"><a xlink:href="class_indicator_interface.html#a5f9eaa4ad4d2da76bf9536a4dfad8723" target="_top" xlink:title=" ">
<polygon fill="white" stroke="#666666" points="219.5,-177.5 127.75,-177.5 127.75,-147 219.5,-147 219.5,-177.5"/>
<text xml:space="preserve" text-anchor="start" x="135.75" y="-164" font-family="Helvetica,sans-Serif" font-size="10.00">IndicatorInterface</text>
<text xml:space="preserve" text-anchor="middle" x="173.62" y="-152.75" font-family="Helvetica,sans-Serif" font-size="10.00">::updateOLED</text>
</a>
</g>
</g>
<!-- Node1&#45;&gt;Node4 -->
<g id="edge4_Node000001_Node000004" class="edge">
<title>Node1&#45;&gt;Node4</title>
<g id="a_edge4_Node000001_Node000004"><a xlink:title=" ">
<path fill="none" stroke="#63b8ff" d="M91.92,-177.65C99.86,-176.14 108.22,-174.54 116.43,-172.97"/>
<polygon fill="#63b8ff" stroke="#63b8ff" points="116.82,-176.46 125.99,-171.15 115.51,-169.59 116.82,-176.46"/>
</a>
</g>
</g>
<!-- Node3 -->
<g id="Node000003" class="node">
<title>Node3</title>
<g id="a_Node000003"><a xlink:href="class_indicator_interface.html#a89a41cb1580141ed65c07ced6692322e" target="_top" xlink:title=" ">
<polygon fill="white" stroke="#666666" points="356.25,-263.5 264.5,-263.5 264.5,-233 356.25,-233 356.25,-263.5"/>
<text xml:space="preserve" text-anchor="start" x="272.5" y="-250" font-family="Helvetica,sans-Serif" font-size="10.00">IndicatorInterface</text>
<text xml:space="preserve" text-anchor="middle" x="310.38" y="-238.75" font-family="Helvetica,sans-Serif" font-size="10.00">::writePort</text>
</a>
</g>
</g>
<!-- Node2&#45;&gt;Node3 -->
<g id="edge2_Node000002_Node000003" class="edge">
<title>Node2&#45;&gt;Node3</title>
<g id="a_edge2_Node000002_Node000003"><a xlink:title=" ">
<path fill="none" stroke="#63b8ff" d="M219.87,-235.63C230.42,-237.12 241.79,-238.72 252.77,-240.27"/>
<polygon fill="#63b8ff" stroke="#63b8ff" points="252.13,-243.71 262.52,-241.64 253.11,-236.78 252.13,-243.71"/>
</a>
</g>
</g>
<!-- Node3&#45;&gt;Node3 -->
<g id="edge3_Node000003_Node000003" class="edge">
<title>Node3&#45;&gt;Node3</title>
<g id="a_edge3_Node000003_Node000003"><a xlink:title=" ">
<path fill="none" stroke="#63b8ff" d="M286.14,-263.99C281.2,-273.06 289.27,-281.5 310.38,-281.5 321.91,-281.5 329.56,-278.97 333.31,-275.2"/>
<polygon fill="#63b8ff" stroke="#63b8ff" points="336.76,-275.83 334.43,-265.49 329.81,-275.02 336.76,-275.83"/>
</a>
</g>
</g>
<!-- Node5 -->
<g id="Node000005" class="node">
<title>Node5</title>
<g id="a_Node000005"><a xlink:href="class_indicator_interface.html#afc1bacc73d487f912d7a71f559e193ef" target="_top" xlink:title=" ">
<polygon fill="white" stroke="#666666" points="507.62,-217.5 403.12,-217.5 403.12,-187 507.62,-187 507.62,-217.5"/>
<text xml:space="preserve" text-anchor="start" x="411.12" y="-204" font-family="Helvetica,sans-Serif" font-size="10.00">IndicatorInterface</text>
<text xml:space="preserve" text-anchor="middle" x="455.38" y="-192.75" font-family="Helvetica,sans-Serif" font-size="10.00">::_handleOLEDBlink</text>
</a>
</g>
</g>
<!-- Node4&#45;&gt;Node5 -->
<g id="edge5_Node000004_Node000005" class="edge">
<title>Node4&#45;&gt;Node5</title>
<g id="a_edge5_Node000004_Node000005"><a xlink:title=" ">
<path fill="none" stroke="#63b8ff" d="M219.98,-177.51C231.46,-180.87 243.84,-184.08 255.5,-186.25 300.59,-194.66 352.25,-198.65 391.62,-200.54"/>
<polygon fill="#63b8ff" stroke="#63b8ff" points="391.24,-204.03 401.38,-200.98 391.55,-197.04 391.24,-204.03"/>
</a>
</g>
</g>
<!-- Node9 -->
<g id="Node000009" class="node">
<title>Node9</title>
<g id="a_Node000009"><a xlink:href="class_indicator_interface.html#a01fa37471cccc2655c0a817b1cab0826" target="_top" xlink:title=" ">
<polygon fill="white" stroke="#666666" points="364.12,-177.5 256.62,-177.5 256.62,-147 364.12,-147 364.12,-177.5"/>
<text xml:space="preserve" text-anchor="start" x="264.62" y="-164" font-family="Helvetica,sans-Serif" font-size="10.00">IndicatorInterface</text>
<text xml:space="preserve" text-anchor="middle" x="310.38" y="-152.75" font-family="Helvetica,sans-Serif" font-size="10.00">::_handleOLEDSleep</text>
</a>
</g>
</g>
<!-- Node4&#45;&gt;Node9 -->
<g id="edge9_Node000004_Node000009" class="edge">
<title>Node4&#45;&gt;Node9</title>
<g id="a_edge9_Node000004_Node000009"><a xlink:title=" ">
<path fill="none" stroke="#63b8ff" d="M219.87,-162.25C227.96,-162.25 236.54,-162.25 245.05,-162.25"/>
<polygon fill="#63b8ff" stroke="#63b8ff" points="245.05,-165.75 255.05,-162.25 245.05,-158.75 245.05,-165.75"/>
</a>
</g>
</g>
<!-- Node10 -->
<g id="Node000010" class="node">
<title>Node10</title>
<g id="a_Node000010"><a xlink:href="class_indicator_interface.html#a520ad5df9ff7c3f3b716b2b179e50a7e" target="_top" xlink:title=" ">
<polygon fill="white" stroke="#666666" points="357,-128.5 263.75,-128.5 263.75,-98 357,-98 357,-128.5"/>
<text xml:space="preserve" text-anchor="start" x="271.75" y="-115" font-family="Helvetica,sans-Serif" font-size="10.00">IndicatorInterface</text>
<text xml:space="preserve" text-anchor="middle" x="310.38" y="-103.75" font-family="Helvetica,sans-Serif" font-size="10.00">::_handleScrolling</text>
</a>
</g>
</g>
<!-- Node4&#45;&gt;Node10 -->
<g id="edge10_Node000004_Node000010" class="edge">
<title>Node4&#45;&gt;Node10</title>
<g id="a_edge10_Node000004_Node000010"><a xlink:title=" ">
<path fill="none" stroke="#63b8ff" d="M217.63,-146.61C229.79,-142.19 243.16,-137.33 255.86,-132.71"/>
<polygon fill="#63b8ff" stroke="#63b8ff" points="256.69,-136.13 264.89,-129.43 254.3,-129.55 256.69,-136.13"/>
</a>
</g>
</g>
<!-- Node11 -->
<g id="Node000011" class="node">
<title>Node11</title>
<g id="a_Node000011"><a xlink:href="class_indicator_interface.html#ad70f8a9e7f527bc4faeb576b47483385" target="_top" xlink:title=" ">
<polygon fill="white" stroke="#666666" points="365.25,-79.5 255.5,-79.5 255.5,-49 365.25,-49 365.25,-79.5"/>
<text xml:space="preserve" text-anchor="start" x="263.5" y="-66" font-family="Helvetica,sans-Serif" font-size="10.00">IndicatorInterface</text>
<text xml:space="preserve" text-anchor="middle" x="310.38" y="-54.75" font-family="Helvetica,sans-Serif" font-size="10.00">::_handleSpecialBlink</text>
</a>
</g>
</g>
<!-- Node4&#45;&gt;Node11 -->
<g id="edge12_Node000004_Node000011" class="edge">
<title>Node4&#45;&gt;Node11</title>
<g id="a_edge12_Node000004_Node000011"><a xlink:title=" ">
<path fill="none" stroke="#63b8ff" d="M188.99,-146.79C204.34,-130.9 229.94,-106.15 255.5,-89.25 257.56,-87.89 259.71,-86.56 261.91,-85.27"/>
<polygon fill="#63b8ff" stroke="#63b8ff" points="263.33,-88.48 270.45,-80.64 259.99,-82.33 263.33,-88.48"/>
</a>
</g>
</g>
<!-- Node6 -->
<g id="Node000006" class="node">
<title>Node6</title>
<g id="a_Node000006"><a xlink:href="class_indicator_interface.html#a38acc1a5120e275253fc4e458aea91f0" target="_top" xlink:title=" ">
<polygon fill="white" stroke="#666666" points="662,-171.5 545.5,-171.5 545.5,-141 662,-141 662,-171.5"/>
<text xml:space="preserve" text-anchor="start" x="553.5" y="-158" font-family="Helvetica,sans-Serif" font-size="10.00">IndicatorInterface</text>
<text xml:space="preserve" text-anchor="middle" x="603.75" y="-146.75" font-family="Helvetica,sans-Serif" font-size="10.00">::_updateOLEDDisplay</text>
</a>
</g>
</g>
<!-- Node5&#45;&gt;Node6 -->
<g id="edge6_Node000005_Node000006" class="edge">
<title>Node5&#45;&gt;Node6</title>
<g id="a_edge6_Node000005_Node000006"><a xlink:title=" ">
<path fill="none" stroke="#63b8ff" d="M506.34,-186.55C517.88,-182.92 530.28,-179.02 542.22,-175.27"/>
<polygon fill="#63b8ff" stroke="#63b8ff" points="543.08,-178.67 551.57,-172.33 540.98,-171.99 543.08,-178.67"/>
</a>
</g>
</g>
<!-- Node7 -->
<g id="Node000007" class="node">
<title>Node7</title>
<g id="a_Node000007"><a xlink:href="class_indicator_interface.html#a2f021f6fa16dec590a8b9cf41a82349d" target="_top" xlink:title=" ">
<polygon fill="white" stroke="#666666" points="831,-195.5 698,-195.5 698,-165 831,-165 831,-195.5"/>
<text xml:space="preserve" text-anchor="start" x="706" y="-182" font-family="Helvetica,sans-Serif" font-size="10.00">IndicatorInterface</text>
<text xml:space="preserve" text-anchor="middle" x="764.5" y="-170.75" font-family="Helvetica,sans-Serif" font-size="10.00">::_calculateDisplayParams</text>
</a>
</g>
</g>
<!-- Node6&#45;&gt;Node7 -->
<g id="edge7_Node000006_Node000007" class="edge">
<title>Node6&#45;&gt;Node7</title>
<g id="a_edge7_Node000006_Node000007"><a xlink:title=" ">
<path fill="none" stroke="#63b8ff" d="M662.06,-164.91C670,-166.11 678.26,-167.36 686.48,-168.61"/>
<polygon fill="#63b8ff" stroke="#63b8ff" points="685.73,-172.03 696.14,-170.07 686.78,-165.11 685.73,-172.03"/>
</a>
</g>
</g>
<!-- Node8 -->
<g id="Node000008" class="node">
<title>Node8</title>
<g id="a_Node000008"><a xlink:href="class_indicator_interface.html#a56c23034a963e2099e36cf55ec70055e" target="_top" xlink:title=" ">
<polygon fill="white" stroke="#666666" points="810.38,-146.5 718.62,-146.5 718.62,-116 810.38,-116 810.38,-146.5"/>
<text xml:space="preserve" text-anchor="start" x="726.62" y="-133" font-family="Helvetica,sans-Serif" font-size="10.00">IndicatorInterface</text>
<text xml:space="preserve" text-anchor="middle" x="764.5" y="-121.75" font-family="Helvetica,sans-Serif" font-size="10.00">::_drawTextLine</text>
</a>
</g>
</g>
<!-- Node6&#45;&gt;Node8 -->
<g id="edge8_Node000006_Node000008" class="edge">
<title>Node6&#45;&gt;Node8</title>
<g id="a_edge8_Node000006_Node000008"><a xlink:title=" ">
<path fill="none" stroke="#63b8ff" d="M662.06,-147.22C676.78,-144.91 692.6,-142.41 707.27,-140.11"/>
<polygon fill="#63b8ff" stroke="#63b8ff" points="707.39,-143.63 716.73,-138.62 706.3,-136.71 707.39,-143.63"/>
</a>
</g>
</g>
<!-- Node10&#45;&gt;Node6 -->
<g id="edge11_Node000010_Node000006" class="edge">
<title>Node10&#45;&gt;Node6</title>
<g id="a_edge11_Node000010_Node000006"><a xlink:title=" ">
<path fill="none" stroke="#63b8ff" d="M357.23,-127.07C371.25,-130.87 386.78,-134.66 401.25,-137.25 445.01,-145.1 494.72,-149.83 533.83,-152.61"/>
<polygon fill="#63b8ff" stroke="#63b8ff" points="533.36,-156.08 543.57,-153.27 533.83,-149.1 533.36,-156.08"/>
</a>
</g>
</g>
<!-- Node12 -->
<g id="Node000012" class="node">
<title>Node12</title>
<g id="a_Node000012"><a xlink:href="class_indicator_interface.html#aa24a016a7358ca6f0c955794d5774512" target="_top" xlink:title=" ">
<polygon fill="white" stroke="#666666" points="509.5,-128.5 401.25,-128.5 401.25,-98 509.5,-98 509.5,-128.5"/>
<text xml:space="preserve" text-anchor="start" x="409.25" y="-115" font-family="Helvetica,sans-Serif" font-size="10.00">IndicatorInterface</text>
<text xml:space="preserve" text-anchor="middle" x="455.38" y="-103.75" font-family="Helvetica,sans-Serif" font-size="10.00">::_restoreCurrentText</text>
</a>
</g>
</g>
<!-- Node11&#45;&gt;Node12 -->
<g id="edge13_Node000011_Node000012" class="edge">
<title>Node11&#45;&gt;Node12</title>
<g id="a_edge13_Node000011_Node000012"><a xlink:title=" ">
<path fill="none" stroke="#63b8ff" d="M357.01,-79.89C370.04,-84.35 384.39,-89.27 397.98,-93.93"/>
<polygon fill="#63b8ff" stroke="#63b8ff" points="396.65,-97.17 407.25,-97.1 398.92,-90.55 396.65,-97.17"/>
</a>
</g>
</g>
<!-- Node13 -->
<g id="Node000013" class="node">
<title>Node13</title>
<g id="a_Node000013"><a xlink:href="class_indicator_interface.html#a54fa76657f9ef0c9e19b6e94d682fb65" target="_top" xlink:title=" ">
<polygon fill="white" stroke="#666666" points="501.25,-79.5 409.5,-79.5 409.5,-49 501.25,-49 501.25,-79.5"/>
<text xml:space="preserve" text-anchor="start" x="417.5" y="-66" font-family="Helvetica,sans-Serif" font-size="10.00">IndicatorInterface</text>
<text xml:space="preserve" text-anchor="middle" x="455.38" y="-54.75" font-family="Helvetica,sans-Serif" font-size="10.00">::displayCross</text>
</a>
</g>
</g>
<!-- Node11&#45;&gt;Node13 -->
<g id="edge15_Node000011_Node000013" class="edge">
<title>Node11&#45;&gt;Node13</title>
<g id="a_edge15_Node000011_Node000013"><a xlink:title=" ">
<path fill="none" stroke="#63b8ff" d="M365.44,-64.25C376.01,-64.25 387.12,-64.25 397.77,-64.25"/>
<polygon fill="#63b8ff" stroke="#63b8ff" points="397.59,-67.75 407.59,-64.25 397.59,-60.75 397.59,-67.75"/>
</a>
</g>
</g>
<!-- Node15 -->
<g id="Node000015" class="node">
<title>Node15</title>
<g id="a_Node000015"><a xlink:href="class_indicator_interface.html#aaa36eb97521df2decb957418acc277a9" target="_top" xlink:title=" ">
<polygon fill="white" stroke="#666666" points="501.25,-30.5 409.5,-30.5 409.5,0 501.25,0 501.25,-30.5"/>
<text xml:space="preserve" text-anchor="start" x="417.5" y="-17" font-family="Helvetica,sans-Serif" font-size="10.00">IndicatorInterface</text>
<text xml:space="preserve" text-anchor="middle" x="455.38" y="-5.75" font-family="Helvetica,sans-Serif" font-size="10.00">::displayOK</text>
</a>
</g>
</g>
<!-- Node11&#45;&gt;Node15 -->
<g id="edge17_Node000011_Node000015" class="edge">
<title>Node11&#45;&gt;Node15</title>
<g id="a_edge17_Node000011_Node000015"><a xlink:title=" ">
<path fill="none" stroke="#63b8ff" d="M357.01,-48.61C370.17,-44.1 384.68,-39.13 398.39,-34.43"/>
<polygon fill="#63b8ff" stroke="#63b8ff" points="399.41,-37.78 407.74,-31.23 397.14,-31.16 399.41,-37.78"/>
</a>
</g>
</g>
<!-- Node12&#45;&gt;Node6 -->
<g id="edge14_Node000012_Node000006" class="edge">
<title>Node12&#45;&gt;Node6</title>
<g id="a_edge14_Node000012_Node000006"><a xlink:title=" ">
<path fill="none" stroke="#63b8ff" d="M509.63,-128.9C519.02,-131.65 528.87,-134.55 538.52,-137.38"/>
<polygon fill="#63b8ff" stroke="#63b8ff" points="537.25,-140.66 547.83,-140.12 539.23,-133.94 537.25,-140.66"/>
</a>
</g>
</g>
<!-- Node14 -->
<g id="Node000014" class="node">
<title>Node14</title>
<g id="a_Node000014"><a xlink:href="class_indicator_interface.html#af64dc2a4b4256050b070991dfaf05f1a" target="_top" xlink:title=" ">
<polygon fill="white" stroke="#666666" points="649.62,-55.5 557.88,-55.5 557.88,-25 649.62,-25 649.62,-55.5"/>
<text xml:space="preserve" text-anchor="start" x="565.88" y="-42" font-family="Helvetica,sans-Serif" font-size="10.00">IndicatorInterface</text>
<text xml:space="preserve" text-anchor="middle" x="603.75" y="-30.75" font-family="Helvetica,sans-Serif" font-size="10.00">::_wakeOLED</text>
</a>
</g>
</g>
<!-- Node13&#45;&gt;Node14 -->
<g id="edge16_Node000013_Node000014" class="edge">
<title>Node13&#45;&gt;Node14</title>
<g id="a_edge16_Node000013_Node000014"><a xlink:title=" ">
<path fill="none" stroke="#63b8ff" d="M501.49,-56.85C515.68,-54.53 531.53,-51.93 546.4,-49.49"/>
<polygon fill="#63b8ff" stroke="#63b8ff" points="546.74,-52.98 556.04,-47.91 545.61,-46.07 546.74,-52.98"/>
</a>
</g>
</g>
<!-- Node15&#45;&gt;Node14 -->
<g id="edge18_Node000015_Node000014" class="edge">
<title>Node15&#45;&gt;Node14</title>
<g id="a_edge18_Node000015_Node000014"><a xlink:title=" ">
<path fill="none" stroke="#63b8ff" d="M501.49,-22.95C515.68,-25.38 531.53,-28.09 546.4,-30.63"/>
<polygon fill="#63b8ff" stroke="#63b8ff" points="545.6,-34.04 556.04,-32.27 546.78,-27.14 545.6,-34.04"/>
</a>
</g>
</g>
</g>
</svg>
