<?xml version="1.0" encoding="UTF-8" standalone="no"?>
<!DOCTYPE svg PUBLIC "-//W3C//DTD SVG 1.1//EN"
 "http://www.w3.org/Graphics/SVG/1.1/DTD/svg11.dtd">
<!-- Generated by graphviz version 13.1.0 (20250701.0955)
 -->
<!-- Title: LoggerManager::warning Pages: 1 -->
<svg width="330pt" height="383pt"
 viewBox="0.00 0.00 330.00 383.00" xmlns="http://www.w3.org/2000/svg" xmlns:xlink="http://www.w3.org/1999/xlink">
<g id="graph0" class="graph" transform="scale(1 1) rotate(0) translate(4 378.88)">
<title>LoggerManager::warning</title>
<!-- Node1 -->
<g id="Node000001" class="node">
<title>Node1</title>
<g id="a_Node000001"><a xlink:title="Log warning message (static convenience method)">
<polygon fill="#999999" stroke="#666666" points="322.25,-197.25 199.75,-197.25 199.75,-178 322.25,-178 322.25,-197.25"/>
<text xml:space="preserve" text-anchor="middle" x="261" y="-183.75" font-family="Helvetica,sans-Serif" font-size="10.00">LoggerManager::warning</text>
</a>
</g>
</g>
<!-- Node2 -->
<g id="Node000002" class="node">
<title>Node2</title>
<g id="a_Node000002"><a xlink:href="$class_temperature_controller.html#ac5c3403746d7c850bf7929bf5ee3448a" xlink:title="Add alarm configuration.">
<polygon fill="white" stroke="#666666" points="137.88,-374.88 25.88,-374.88 25.88,-344.38 137.88,-344.38 137.88,-374.88"/>
<text xml:space="preserve" text-anchor="start" x="33.88" y="-361.38" font-family="Helvetica,sans-Serif" font-size="10.00">TemperatureController</text>
<text xml:space="preserve" text-anchor="middle" x="81.88" y="-350.12" font-family="Helvetica,sans-Serif" font-size="10.00">::addAlarm</text>
</a>
</g>
</g>
<!-- Node1&#45;&gt;Node2 -->
<g id="edge1_Node000001_Node000002" class="edge">
<title>Node1&#45;&gt;Node2</title>
<g id="a_edge1_Node000001_Node000002"><a xlink:title=" ">
<path fill="none" stroke="#63b8ff" d="M252.24,-207.97C239.01,-239.95 209.03,-301.82 163.75,-335.62 156.12,-341.32 147.15,-345.67 138.02,-348.99"/>
<polygon fill="#63b8ff" stroke="#63b8ff" points="255.35,-209.64 255.8,-199.05 248.84,-207.04 255.35,-209.64"/>
</a>
</g>
</g>
<!-- Node3 -->
<g id="Node000003" class="node">
<title>Node3</title>
<g id="a_Node000003"><a xlink:href="$class_config_manager.html#a0497343220fc493f5cf9574922508908" xlink:title="Initialize the configuration system.">
<polygon fill="white" stroke="#666666" points="137.5,-326.25 26.25,-326.25 26.25,-307 137.5,-307 137.5,-326.25"/>
<text xml:space="preserve" text-anchor="middle" x="81.88" y="-312.75" font-family="Helvetica,sans-Serif" font-size="10.00">ConfigManager::begin</text>
</a>
</g>
</g>
<!-- Node1&#45;&gt;Node3 -->
<g id="edge2_Node000001_Node000003" class="edge">
<title>Node1&#45;&gt;Node3</title>
<g id="a_edge2_Node000001_Node000003"><a xlink:title=" ">
<path fill="none" stroke="#63b8ff" d="M248.7,-207.06C232.99,-232.29 202.09,-275.76 163.75,-298.62 155.84,-303.34 146.84,-306.82 137.77,-309.39"/>
<polygon fill="#63b8ff" stroke="#63b8ff" points="251.53,-209.15 253.71,-198.78 245.54,-205.53 251.53,-209.15"/>
</a>
</g>
</g>
<!-- Node4 -->
<g id="Node000004" class="node">
<title>Node4</title>
<g id="a_Node000004"><a xlink:href="$class_temp_modbus_server.html#aac671b84770f4139745d08d05b5c1d92" xlink:title="Initialize and start Modbus server.">
<polygon fill="white" stroke="#666666" points="148,-289.25 15.75,-289.25 15.75,-270 148,-270 148,-289.25"/>
<text xml:space="preserve" text-anchor="middle" x="81.88" y="-275.75" font-family="Helvetica,sans-Serif" font-size="10.00">TempModbusServer::begin</text>
</a>
</g>
</g>
<!-- Node1&#45;&gt;Node4 -->
<g id="edge3_Node000001_Node000004" class="edge">
<title>Node1&#45;&gt;Node4</title>
<g id="a_edge3_Node000001_Node000004"><a xlink:title=" ">
<path fill="none" stroke="#63b8ff" d="M241.76,-205.24C223.47,-221.93 193.78,-246.49 163.75,-260.62 156.18,-264.19 147.89,-267.11 139.59,-269.5"/>
<polygon fill="#63b8ff" stroke="#63b8ff" points="243.97,-207.96 248.89,-198.58 239.19,-202.85 243.97,-207.96"/>
</a>
</g>
</g>
<!-- Node5 -->
<g id="Node000005" class="node">
<title>Node5</title>
<g id="a_Node000005"><a xlink:href="$class_temperature_controller.html#a84937fc1aed30193b817f3b062ce0cfc" xlink:title="Bind PT1000 sensor to measurement point by chip select pin.">
<polygon fill="white" stroke="#666666" points="163.75,-251.88 0,-251.88 0,-221.38 163.75,-221.38 163.75,-251.88"/>
<text xml:space="preserve" text-anchor="start" x="8" y="-238.38" font-family="Helvetica,sans-Serif" font-size="10.00">TemperatureController</text>
<text xml:space="preserve" text-anchor="middle" x="81.88" y="-227.12" font-family="Helvetica,sans-Serif" font-size="10.00">::bindSensorToPointByChipSelect</text>
</a>
</g>
</g>
<!-- Node1&#45;&gt;Node5 -->
<g id="edge4_Node000001_Node000005" class="edge">
<title>Node1&#45;&gt;Node5</title>
<g id="a_edge4_Node000001_Node000005"><a xlink:title=" ">
<path fill="none" stroke="#63b8ff" d="M212.77,-200.69C190.3,-206.91 163.26,-214.39 139.68,-220.91"/>
<polygon fill="#63b8ff" stroke="#63b8ff" points="213.57,-204.1 222.27,-198.06 211.7,-197.36 213.57,-204.1"/>
</a>
</g>
</g>
<!-- Node6 -->
<g id="Node000006" class="node">
<title>Node6</title>
<g id="a_Node000006"><a xlink:href="$class_temperature_controller.html#a5d8f7c51bb176435a5035293a2db78f7" xlink:title="Bind sensor to measurement point by ROM address.">
<polygon fill="white" stroke="#666666" points="150.25,-202.88 13.5,-202.88 13.5,-172.38 150.25,-172.38 150.25,-202.88"/>
<text xml:space="preserve" text-anchor="start" x="21.5" y="-189.38" font-family="Helvetica,sans-Serif" font-size="10.00">TemperatureController</text>
<text xml:space="preserve" text-anchor="middle" x="81.88" y="-178.12" font-family="Helvetica,sans-Serif" font-size="10.00">::bindSensorToPointByRom</text>
</a>
</g>
</g>
<!-- Node1&#45;&gt;Node6 -->
<g id="edge5_Node000001_Node000006" class="edge">
<title>Node1&#45;&gt;Node6</title>
<g id="a_edge5_Node000001_Node000006"><a xlink:title=" ">
<path fill="none" stroke="#63b8ff" d="M188.29,-187.62C175.86,-187.62 162.98,-187.62 150.66,-187.62"/>
<polygon fill="#63b8ff" stroke="#63b8ff" points="188.03,-191.13 198.03,-187.63 188.03,-184.13 188.03,-191.13"/>
</a>
</g>
</g>
<!-- Node7 -->
<g id="Node000007" class="node">
<title>Node7</title>
<g id="a_Node000007"><a xlink:href="$class_temperature_controller.html#a760bb05985e2ea9950c7f5cdc7f6669b" xlink:title="Force relay state (for Modbus control)">
<polygon fill="white" stroke="#666666" points="137.88,-153.88 25.88,-153.88 25.88,-123.38 137.88,-123.38 137.88,-153.88"/>
<text xml:space="preserve" text-anchor="start" x="33.88" y="-140.38" font-family="Helvetica,sans-Serif" font-size="10.00">TemperatureController</text>
<text xml:space="preserve" text-anchor="middle" x="81.88" y="-129.12" font-family="Helvetica,sans-Serif" font-size="10.00">::forceRelayState</text>
</a>
</g>
</g>
<!-- Node1&#45;&gt;Node7 -->
<g id="edge6_Node000001_Node000007" class="edge">
<title>Node1&#45;&gt;Node7</title>
<g id="a_edge6_Node000001_Node000007"><a xlink:title=" ">
<path fill="none" stroke="#63b8ff" d="M212.89,-174.59C189.96,-168.25 162.24,-160.58 138.3,-153.96"/>
<polygon fill="#63b8ff" stroke="#63b8ff" points="211.7,-177.89 222.27,-177.19 213.57,-171.15 211.7,-177.89"/>
</a>
</g>
</g>
<!-- Node8 -->
<g id="Node000008" class="node">
<title>Node8</title>
<g id="a_Node000008"><a xlink:href="$class_temp_modbus_server.html#a0debe38364d9025833706a6f74d5655a" xlink:title="Process pending commands from Modbus writes.">
<polygon fill="white" stroke="#666666" points="153.62,-104.88 10.12,-104.88 10.12,-74.38 153.62,-74.38 153.62,-104.88"/>
<text xml:space="preserve" text-anchor="start" x="18.12" y="-91.38" font-family="Helvetica,sans-Serif" font-size="10.00">TempModbusServer::process</text>
<text xml:space="preserve" text-anchor="middle" x="81.88" y="-80.12" font-family="Helvetica,sans-Serif" font-size="10.00">Commands</text>
</a>
</g>
</g>
<!-- Node1&#45;&gt;Node8 -->
<g id="edge7_Node000001_Node000008" class="edge">
<title>Node1&#45;&gt;Node8</title>
<g id="a_edge7_Node000001_Node000008"><a xlink:title=" ">
<path fill="none" stroke="#63b8ff" d="M241.24,-170.19C222.76,-153.84 193.12,-129.7 163.75,-114.62 156.95,-111.13 149.58,-108.03 142.14,-105.3"/>
<polygon fill="#63b8ff" stroke="#63b8ff" points="238.7,-172.62 248.46,-176.72 243.39,-167.42 238.7,-172.62"/>
</a>
</g>
</g>
<!-- Node9 -->
<g id="Node000009" class="node">
<title>Node9</title>
<g id="a_Node000009"><a xlink:href="$class_alarm.html#af8d75ee8622a2a96f4bc9b408e9668e5" xlink:title="Reactivate a previously cleared alarm.">
<polygon fill="white" stroke="#666666" points="127,-56.25 36.75,-56.25 36.75,-37 127,-37 127,-56.25"/>
<text xml:space="preserve" text-anchor="middle" x="81.88" y="-42.75" font-family="Helvetica,sans-Serif" font-size="10.00">Alarm::reactivate</text>
</a>
</g>
</g>
<!-- Node1&#45;&gt;Node9 -->
<g id="edge8_Node000001_Node000009" class="edge">
<title>Node1&#45;&gt;Node9</title>
<g id="a_edge8_Node000001_Node000009"><a xlink:title=" ">
<path fill="none" stroke="#63b8ff" d="M249.81,-167.52C234.81,-140.07 204.16,-91.34 163.75,-65.62 152.92,-58.73 139.85,-54.34 127.4,-51.53"/>
<polygon fill="#63b8ff" stroke="#63b8ff" points="246.62,-168.99 254.39,-176.2 252.81,-165.72 246.62,-168.99"/>
</a>
</g>
</g>
<!-- Node10 -->
<g id="Node000010" class="node">
<title>Node10</title>
<g id="a_Node000010"><a xlink:href="$class_alarm.html#abc87fe39e6a9b5beb9f09df780f67621" xlink:title="Update alarm condition based on current measurement.">
<polygon fill="white" stroke="#666666" points="140.88,-19.25 22.88,-19.25 22.88,0 140.88,0 140.88,-19.25"/>
<text xml:space="preserve" text-anchor="middle" x="81.88" y="-5.75" font-family="Helvetica,sans-Serif" font-size="10.00">Alarm::updateCondition</text>
</a>
</g>
</g>
<!-- Node1&#45;&gt;Node10 -->
<g id="edge9_Node000001_Node000010" class="edge">
<title>Node1&#45;&gt;Node10</title>
<g id="a_edge9_Node000001_Node000010"><a xlink:title=" ">
<path fill="none" stroke="#63b8ff" d="M253.67,-167.21C241.89,-132.72 213.17,-63.21 163.75,-27.62 156.98,-22.75 149.13,-19.16 141.03,-16.52"/>
<polygon fill="#63b8ff" stroke="#63b8ff" points="250.24,-167.98 256.67,-176.4 256.9,-165.81 250.24,-167.98"/>
</a>
</g>
</g>
</g>
</svg>
