<?xml version="1.0" encoding="UTF-8" standalone="no"?>
<!DOCTYPE svg PUBLIC "-//W3C//DTD SVG 1.1//EN"
 "http://www.w3.org/Graphics/SVG/1.1/DTD/svg11.dtd">
<!-- Generated by graphviz version 13.1.0 (20250701.0955)
 -->
<!-- Title: MeasurementPoint::getCurrentTemp Pages: 1 -->
<svg width="739pt" height="260pt"
 viewBox="0.00 0.00 739.00 260.00" xmlns="http://www.w3.org/2000/svg" xmlns:xlink="http://www.w3.org/1999/xlink">
<g id="graph0" class="graph" transform="scale(1 1) rotate(0) translate(4 255.5)">
<title>MeasurementPoint::getCurrentTemp</title>
<!-- Node1 -->
<g id="Node000001" class="node">
<title>Node1</title>
<g id="a_Node000001"><a xlink:title="Get current temperature.">
<polygon fill="#999999" stroke="#666666" points="730.75,-134.88 557.25,-134.88 557.25,-115.62 730.75,-115.62 730.75,-134.88"/>
<text xml:space="preserve" text-anchor="middle" x="644" y="-121.38" font-family="Helvetica,sans-Serif" font-size="10.00">MeasurementPoint::getCurrentTemp</text>
</a>
</g>
</g>
<!-- Node2 -->
<g id="Node000002" class="node">
<title>Node2</title>
<g id="a_Node000002"><a xlink:href="class_temperature_controller.html#a27da8ccc3effea555f440ce3e6f89b08" target="_top" xlink:title="Check measurement point for alarm conditions.">
<polygon fill="white" stroke="#666666" points="487.5,-251.5 366.5,-251.5 366.5,-221 487.5,-221 487.5,-251.5"/>
<text xml:space="preserve" text-anchor="start" x="374.5" y="-238" font-family="Helvetica,sans-Serif" font-size="10.00">TemperatureController</text>
<text xml:space="preserve" text-anchor="middle" x="427" y="-226.75" font-family="Helvetica,sans-Serif" font-size="10.00">::_checkPointForAlarms</text>
</a>
</g>
</g>
<!-- Node1&#45;&gt;Node2 -->
<g id="edge1_Node000001_Node000002" class="edge">
<title>Node1&#45;&gt;Node2</title>
<g id="a_edge1_Node000001_Node000002"><a xlink:title=" ">
<path fill="none" stroke="#63b8ff" d="M623.27,-142.56C600.26,-161.9 560.38,-192.9 521.25,-211.25 510.78,-216.16 499.18,-220.24 487.82,-223.58"/>
<polygon fill="#63b8ff" stroke="#63b8ff" points="625.29,-145.43 630.62,-136.27 620.75,-140.11 625.29,-145.43"/>
</a>
</g>
</g>
<!-- Node3 -->
<g id="Node000003" class="node">
<title>Node3</title>
<g id="a_Node000003"><a xlink:href="class_c_s_v_config_manager.html#a2c2673398051c26184c9197aa751a6b3" target="_top" xlink:title="Export single measurement point to CSV format.">
<polygon fill="white" stroke="#666666" points="481.5,-202.5 372.5,-202.5 372.5,-172 481.5,-172 481.5,-202.5"/>
<text xml:space="preserve" text-anchor="start" x="380.5" y="-189" font-family="Helvetica,sans-Serif" font-size="10.00">CSVConfigManager::</text>
<text xml:space="preserve" text-anchor="middle" x="427" y="-177.75" font-family="Helvetica,sans-Serif" font-size="10.00">_exportPointToCSV</text>
</a>
</g>
</g>
<!-- Node1&#45;&gt;Node3 -->
<g id="edge2_Node000001_Node000003" class="edge">
<title>Node1&#45;&gt;Node3</title>
<g id="a_edge2_Node000001_Node000003"><a xlink:title=" ">
<path fill="none" stroke="#63b8ff" d="M601.16,-138.88C577.75,-146.37 547.97,-155.65 521.25,-163.25 508.55,-166.86 494.81,-170.53 481.87,-173.88"/>
<polygon fill="#63b8ff" stroke="#63b8ff" points="602.21,-142.22 610.66,-135.83 600.07,-135.56 602.21,-142.22"/>
</a>
</g>
</g>
<!-- Node5 -->
<g id="Node000005" class="node">
<title>Node5</title>
<g id="a_Node000005"><a xlink:href="class_logger_manager.html#aa6938b6a5c002d6ed72ef352f0cc7a19" target="_top" xlink:title=" ">
<polygon fill="white" stroke="#666666" points="505.12,-153.88 348.88,-153.88 348.88,-134.62 505.12,-134.62 505.12,-153.88"/>
<text xml:space="preserve" text-anchor="middle" x="427" y="-140.38" font-family="Helvetica,sans-Serif" font-size="10.00">LoggerManager::_writeDataRow</text>
</a>
</g>
</g>
<!-- Node1&#45;&gt;Node5 -->
<g id="edge4_Node000001_Node000005" class="edge">
<title>Node1&#45;&gt;Node5</title>
<g id="a_edge4_Node000001_Node000005"><a xlink:title=" ">
<path fill="none" stroke="#63b8ff" d="M545.59,-133.86C532.17,-135.04 518.54,-136.25 505.54,-137.4"/>
<polygon fill="#63b8ff" stroke="#63b8ff" points="545.63,-137.37 555.28,-133 545.01,-130.4 545.63,-137.37"/>
</a>
</g>
</g>
<!-- Node8 -->
<g id="Node000008" class="node">
<title>Node8</title>
<g id="a_Node000008"><a xlink:href="class_config_manager.html#ae605c999fabc6344511f455618655326" target="_top" xlink:title="Setup alarms API endpoints.">
<polygon fill="white" stroke="#666666" points="493.88,-116.88 360.12,-116.88 360.12,-97.62 493.88,-97.62 493.88,-116.88"/>
<text xml:space="preserve" text-anchor="middle" x="427" y="-103.38" font-family="Helvetica,sans-Serif" font-size="10.00">ConfigManager::alarmsAPI</text>
</a>
</g>
</g>
<!-- Node1&#45;&gt;Node8 -->
<g id="edge7_Node000001_Node000008" class="edge">
<title>Node1&#45;&gt;Node8</title>
<g id="a_edge7_Node000001_Node000008"><a xlink:title=" ">
<path fill="none" stroke="#63b8ff" d="M545.49,-117.09C528.19,-115.64 510.55,-114.16 494.37,-112.81"/>
<polygon fill="#63b8ff" stroke="#63b8ff" points="545.02,-120.56 555.28,-117.91 545.61,-113.58 545.02,-120.56"/>
</a>
</g>
</g>
<!-- Node10 -->
<g id="Node000010" class="node">
<title>Node10</title>
<g id="a_Node000010"><a xlink:href="class_temperature_controller.html#add39ba7dad38449bbf1787a5c9c51ef9" target="_top" xlink:title="Get JSON representation of all measurement points.">
<polygon fill="white" stroke="#666666" points="483,-79.5 371,-79.5 371,-49 483,-49 483,-79.5"/>
<text xml:space="preserve" text-anchor="start" x="379" y="-66" font-family="Helvetica,sans-Serif" font-size="10.00">TemperatureController</text>
<text xml:space="preserve" text-anchor="middle" x="427" y="-54.75" font-family="Helvetica,sans-Serif" font-size="10.00">::getPointsJson</text>
</a>
</g>
</g>
<!-- Node1&#45;&gt;Node10 -->
<g id="edge9_Node000001_Node000010" class="edge">
<title>Node1&#45;&gt;Node10</title>
<g id="a_edge9_Node000001_Node000010"><a xlink:title=" ">
<path fill="none" stroke="#63b8ff" d="M600.17,-111.74C576.9,-104.52 547.57,-95.63 521.25,-88.25 509.02,-84.82 495.83,-81.31 483.33,-78.07"/>
<polygon fill="#63b8ff" stroke="#63b8ff" points="599.03,-115.05 609.62,-114.68 601.12,-108.37 599.03,-115.05"/>
</a>
</g>
</g>
<!-- Node11 -->
<g id="Node000011" class="node">
<title>Node11</title>
<g id="a_Node000011"><a xlink:href="class_register_map.html#a2940213459a183fc06a2226f1cd1a48b" target="_top" xlink:title="Update registers from measurement point data.">
<polygon fill="white" stroke="#666666" points="521.25,-30.5 332.75,-30.5 332.75,0 521.25,0 521.25,-30.5"/>
<text xml:space="preserve" text-anchor="start" x="340.75" y="-17" font-family="Helvetica,sans-Serif" font-size="10.00">RegisterMap::updateFromMeasurement</text>
<text xml:space="preserve" text-anchor="middle" x="427" y="-5.75" font-family="Helvetica,sans-Serif" font-size="10.00">Point</text>
</a>
</g>
</g>
<!-- Node1&#45;&gt;Node11 -->
<g id="edge10_Node000001_Node000011" class="edge">
<title>Node1&#45;&gt;Node11</title>
<g id="a_edge10_Node000001_Node000011"><a xlink:title=" ">
<path fill="none" stroke="#63b8ff" d="M623.23,-108.16C600.19,-89.05 560.28,-58.42 521.25,-40.25 513.65,-36.71 505.47,-33.6 497.21,-30.89"/>
<polygon fill="#63b8ff" stroke="#63b8ff" points="620.69,-110.59 630.59,-114.36 625.2,-105.24 620.69,-110.59"/>
</a>
</g>
</g>
<!-- Node4 -->
<g id="Node000004" class="node">
<title>Node4</title>
<g id="a_Node000004"><a xlink:href="class_c_s_v_config_manager.html#a1c6cbc4c8a132762bf16a8ce9f7d0bfc" target="_top" xlink:title="Export measurement points with alarm configuration to CSV.">
<polygon fill="white" stroke="#666666" points="293.38,-202.5 157.38,-202.5 157.38,-172 293.38,-172 293.38,-202.5"/>
<text xml:space="preserve" text-anchor="start" x="165.38" y="-189" font-family="Helvetica,sans-Serif" font-size="10.00">CSVConfigManager::export</text>
<text xml:space="preserve" text-anchor="middle" x="225.38" y="-177.75" font-family="Helvetica,sans-Serif" font-size="10.00">PointsWithAlarmsToCSV</text>
</a>
</g>
</g>
<!-- Node3&#45;&gt;Node4 -->
<g id="edge3_Node000003_Node000004" class="edge">
<title>Node3&#45;&gt;Node4</title>
<g id="a_edge3_Node000003_Node000004"><a xlink:title=" ">
<path fill="none" stroke="#63b8ff" d="M360.92,-187.25C339.42,-187.25 315.48,-187.25 293.81,-187.25"/>
<polygon fill="#63b8ff" stroke="#63b8ff" points="360.73,-190.75 370.73,-187.25 360.73,-183.75 360.73,-190.75"/>
</a>
</g>
</g>
<!-- Node6 -->
<g id="Node000006" class="node">
<title>Node6</title>
<g id="a_Node000006"><a xlink:href="class_logger_manager.html#a32ce9f462269787130bee46b2c34b632" target="_top" xlink:title=" ">
<polygon fill="white" stroke="#666666" points="296.75,-153.88 154,-153.88 154,-134.62 296.75,-134.62 296.75,-153.88"/>
<text xml:space="preserve" text-anchor="middle" x="225.38" y="-140.38" font-family="Helvetica,sans-Serif" font-size="10.00">LoggerManager::logDataNow</text>
</a>
</g>
</g>
<!-- Node5&#45;&gt;Node6 -->
<g id="edge5_Node000005_Node000006" class="edge">
<title>Node5&#45;&gt;Node6</title>
<g id="a_edge5_Node000005_Node000006"><a xlink:title=" ">
<path fill="none" stroke="#63b8ff" d="M337.28,-144.25C323.77,-144.25 310,-144.25 296.95,-144.25"/>
<polygon fill="#63b8ff" stroke="#63b8ff" points="337.02,-147.75 347.02,-144.25 337.02,-140.75 337.02,-147.75"/>
</a>
</g>
</g>
<!-- Node7 -->
<g id="Node000007" class="node">
<title>Node7</title>
<g id="a_Node000007"><a xlink:href="class_logger_manager.html#a830c86f1f27d3799eab1de908fc6b647" target="_top" xlink:title=" ">
<polygon fill="white" stroke="#666666" points="118,-153.88 0,-153.88 0,-134.62 118,-134.62 118,-153.88"/>
<text xml:space="preserve" text-anchor="middle" x="59" y="-140.38" font-family="Helvetica,sans-Serif" font-size="10.00">LoggerManager::update</text>
</a>
</g>
</g>
<!-- Node6&#45;&gt;Node7 -->
<g id="edge6_Node000006_Node000007" class="edge">
<title>Node6&#45;&gt;Node7</title>
<g id="a_edge6_Node000006_Node000007"><a xlink:title=" ">
<path fill="none" stroke="#63b8ff" d="M142.36,-144.25C134.3,-144.25 126.24,-144.25 118.49,-144.25"/>
<polygon fill="#63b8ff" stroke="#63b8ff" points="142.2,-147.75 152.2,-144.25 142.2,-140.75 142.2,-147.75"/>
</a>
</g>
</g>
<!-- Node9 -->
<g id="Node000009" class="node">
<title>Node9</title>
<g id="a_Node000009"><a xlink:href="class_config_manager.html#a0497343220fc493f5cf9574922508908" target="_top" xlink:title="Initialize the configuration system.">
<polygon fill="white" stroke="#666666" points="281,-116.88 169.75,-116.88 169.75,-97.62 281,-97.62 281,-116.88"/>
<text xml:space="preserve" text-anchor="middle" x="225.38" y="-103.38" font-family="Helvetica,sans-Serif" font-size="10.00">ConfigManager::begin</text>
</a>
</g>
</g>
<!-- Node8&#45;&gt;Node9 -->
<g id="edge8_Node000008_Node000009" class="edge">
<title>Node8&#45;&gt;Node9</title>
<g id="a_edge8_Node000008_Node000009"><a xlink:title=" ">
<path fill="none" stroke="#63b8ff" d="M348.29,-107.25C325.96,-107.25 302.06,-107.25 281.4,-107.25"/>
<polygon fill="#63b8ff" stroke="#63b8ff" points="348.29,-110.75 358.29,-107.25 348.29,-103.75 348.29,-110.75"/>
</a>
</g>
</g>
</g>
</svg>
