<?xml version="1.0" encoding="UTF-8" standalone="no"?>
<!DOCTYPE svg PUBLIC "-//W3C//DTD SVG 1.1//EN"
 "http://www.w3.org/Graphics/SVG/1.1/DTD/svg11.dtd">
<!-- Generated by graphviz version 13.1.0 (20250701.0955)
 -->
<!-- Title: ConfigManager::loadPointsConfig Pages: 1 -->
<svg width="490pt" height="274pt"
 viewBox="0.00 0.00 490.00 274.00" xmlns="http://www.w3.org/2000/svg" xmlns:xlink="http://www.w3.org/1999/xlink">
<g id="graph0" class="graph" transform="scale(1 1) rotate(0) translate(4 270.25)">
<title>ConfigManager::loadPointsConfig</title>
<!-- Node1 -->
<g id="Node000001" class="node">
<title>Node1</title>
<g id="a_Node000001"><a xlink:title="Load measurement points configuration from file.">
<polygon fill="#999999" stroke="#666666" points="133.75,-141.88 0,-141.88 0,-111.38 133.75,-111.38 133.75,-141.88"/>
<text xml:space="preserve" text-anchor="start" x="8" y="-128.38" font-family="Helvetica,sans-Serif" font-size="10.00">ConfigManager::loadPoints</text>
<text xml:space="preserve" text-anchor="middle" x="66.88" y="-117.12" font-family="Helvetica,sans-Serif" font-size="10.00">Config</text>
</a>
</g>
</g>
<!-- Node2 -->
<g id="Node000002" class="node">
<title>Node2</title>
<g id="a_Node000002"><a xlink:href="class_logger_manager.html#a5c1373ccc47f4112b596fe6f84fbbc21" target="_top" xlink:title="Log informational message (static convenience method)">
<polygon fill="white" stroke="#666666" points="468,-206.25 363.5,-206.25 363.5,-187 468,-187 468,-206.25"/>
<text xml:space="preserve" text-anchor="middle" x="415.75" y="-192.75" font-family="Helvetica,sans-Serif" font-size="10.00">LoggerManager::info</text>
</a>
</g>
</g>
<!-- Node1&#45;&gt;Node2 -->
<g id="edge1_Node000001_Node000002" class="edge">
<title>Node1&#45;&gt;Node2</title>
<g id="a_edge1_Node000001_Node000002"><a xlink:title=" ">
<path fill="none" stroke="#63b8ff" d="M83.05,-142.29C101.56,-160.17 134.74,-188.38 169.75,-199.62 229.3,-218.76 301.27,-214.92 351.75,-208.19"/>
<polygon fill="#63b8ff" stroke="#63b8ff" points="352.23,-211.66 361.64,-206.79 351.25,-204.73 352.23,-211.66"/>
</a>
</g>
</g>
<!-- Node3 -->
<g id="Node000003" class="node">
<title>Node3</title>
<g id="a_Node000003"><a xlink:href="class_sensor.html#a59dd5483b75d9366a0c50ccdd0345dec" target="_top" xlink:title="Initialize sensor hardware.">
<polygon fill="white" stroke="#666666" points="285.5,-93.25 197.5,-93.25 197.5,-74 285.5,-74 285.5,-93.25"/>
<text xml:space="preserve" text-anchor="middle" x="241.5" y="-79.75" font-family="Helvetica,sans-Serif" font-size="10.00">Sensor::initialize</text>
</a>
</g>
</g>
<!-- Node1&#45;&gt;Node3 -->
<g id="edge2_Node000001_Node000003" class="edge">
<title>Node1&#45;&gt;Node3</title>
<g id="a_edge2_Node000001_Node000003"><a xlink:title=" ">
<path fill="none" stroke="#63b8ff" d="M130.68,-110.98C149.84,-106.21 170.68,-101.02 189,-96.45"/>
<polygon fill="#63b8ff" stroke="#63b8ff" points="189.71,-99.88 198.57,-94.07 188.02,-93.09 189.71,-99.88"/>
</a>
</g>
</g>
<!-- Node4 -->
<g id="Node000004" class="node">
<title>Node4</title>
<g id="a_Node000004"><a xlink:href="class_measurement_point.html#aefb47fef40f33161be5c6fddf0cf6329" target="_top" xlink:title="Set high alarm threshold.">
<polygon fill="white" stroke="#666666" points="310.25,-141.88 172.75,-141.88 172.75,-111.38 310.25,-111.38 310.25,-141.88"/>
<text xml:space="preserve" text-anchor="start" x="180.75" y="-128.38" font-family="Helvetica,sans-Serif" font-size="10.00">MeasurementPoint::setHigh</text>
<text xml:space="preserve" text-anchor="middle" x="241.5" y="-117.12" font-family="Helvetica,sans-Serif" font-size="10.00">AlarmThreshold</text>
</a>
</g>
</g>
<!-- Node1&#45;&gt;Node4 -->
<g id="edge3_Node000001_Node000004" class="edge">
<title>Node1&#45;&gt;Node4</title>
<g id="a_edge3_Node000001_Node000004"><a xlink:title=" ">
<path fill="none" stroke="#63b8ff" d="M134.12,-126.62C142.95,-126.62 152.07,-126.62 161.09,-126.62"/>
<polygon fill="#63b8ff" stroke="#63b8ff" points="160.92,-130.13 170.92,-126.63 160.92,-123.13 160.92,-130.13"/>
</a>
</g>
</g>
<!-- Node6 -->
<g id="Node000006" class="node">
<title>Node6</title>
<g id="a_Node000006"><a xlink:href="class_measurement_point.html#ac780917beebc11d705824cab8f43b94d" target="_top" xlink:title="Set low alarm threshold.">
<polygon fill="white" stroke="#666666" points="309.12,-190.88 173.88,-190.88 173.88,-160.38 309.12,-160.38 309.12,-190.88"/>
<text xml:space="preserve" text-anchor="start" x="181.88" y="-177.38" font-family="Helvetica,sans-Serif" font-size="10.00">MeasurementPoint::setLow</text>
<text xml:space="preserve" text-anchor="middle" x="241.5" y="-166.12" font-family="Helvetica,sans-Serif" font-size="10.00">AlarmThreshold</text>
</a>
</g>
</g>
<!-- Node1&#45;&gt;Node6 -->
<g id="edge6_Node000001_Node000006" class="edge">
<title>Node1&#45;&gt;Node6</title>
<g id="a_edge6_Node000001_Node000006"><a xlink:title=" ">
<path fill="none" stroke="#63b8ff" d="M122.97,-142.26C139.24,-146.88 157.22,-151.99 174.12,-156.78"/>
<polygon fill="#63b8ff" stroke="#63b8ff" points="173.01,-160.11 183.58,-159.47 174.92,-153.37 173.01,-160.11"/>
</a>
</g>
</g>
<!-- Node7 -->
<g id="Node000007" class="node">
<title>Node7</title>
<g id="a_Node000007"><a xlink:href="class_measurement_point.html#ae3abe83ed3e7979a906c7d753ac9d22d" target="_top" xlink:title="Set measurement point name.">
<polygon fill="white" stroke="#666666" points="313.25,-266.25 169.75,-266.25 169.75,-247 313.25,-247 313.25,-266.25"/>
<text xml:space="preserve" text-anchor="middle" x="241.5" y="-252.75" font-family="Helvetica,sans-Serif" font-size="10.00">MeasurementPoint::setName</text>
</a>
</g>
</g>
<!-- Node1&#45;&gt;Node7 -->
<g id="edge9_Node000001_Node000007" class="edge">
<title>Node1&#45;&gt;Node7</title>
<g id="a_edge9_Node000001_Node000007"><a xlink:title=" ">
<path fill="none" stroke="#63b8ff" d="M78.94,-142.21C95.98,-165.12 130.76,-207.85 169.75,-232.62 175.78,-236.46 182.5,-239.76 189.33,-242.57"/>
<polygon fill="#63b8ff" stroke="#63b8ff" points="188.05,-245.83 198.64,-246.06 190.51,-239.27 188.05,-245.83"/>
</a>
</g>
</g>
<!-- Node8 -->
<g id="Node000008" class="node">
<title>Node8</title>
<g id="a_Node000008"><a xlink:href="class_sensor.html#afefa1f627a7d2ab5a1157c271e7f2556" target="_top" xlink:title="Configure sensor as DS18B20.">
<polygon fill="white" stroke="#666666" points="300.88,-56.25 182.12,-56.25 182.12,-37 300.88,-37 300.88,-56.25"/>
<text xml:space="preserve" text-anchor="middle" x="241.5" y="-42.75" font-family="Helvetica,sans-Serif" font-size="10.00">Sensor::setupDS18B20</text>
</a>
</g>
</g>
<!-- Node1&#45;&gt;Node8 -->
<g id="edge11_Node000001_Node000008" class="edge">
<title>Node1&#45;&gt;Node8</title>
<g id="a_edge11_Node000001_Node000008"><a xlink:title=" ">
<path fill="none" stroke="#63b8ff" d="M89.12,-111.1C109.06,-97.17 140.17,-77.06 169.75,-64.62 173.6,-63.01 177.63,-61.51 181.73,-60.12"/>
<polygon fill="#63b8ff" stroke="#63b8ff" points="182.71,-63.48 191.22,-57.17 180.64,-56.8 182.71,-63.48"/>
</a>
</g>
</g>
<!-- Node9 -->
<g id="Node000009" class="node">
<title>Node9</title>
<g id="a_Node000009"><a xlink:href="class_sensor.html#aef73c8dc894e3695f50b4bece9601750" target="_top" xlink:title="Configure sensor as PT1000.">
<polygon fill="white" stroke="#666666" points="296.75,-19.25 186.25,-19.25 186.25,0 296.75,0 296.75,-19.25"/>
<text xml:space="preserve" text-anchor="middle" x="241.5" y="-5.75" font-family="Helvetica,sans-Serif" font-size="10.00">Sensor::setupPT1000</text>
</a>
</g>
</g>
<!-- Node1&#45;&gt;Node9 -->
<g id="edge12_Node000001_Node000009" class="edge">
<title>Node1&#45;&gt;Node9</title>
<g id="a_edge12_Node000001_Node000009"><a xlink:title=" ">
<path fill="none" stroke="#63b8ff" d="M79.52,-110.99C96.77,-88.99 131.22,-49.18 169.75,-27.62 172.22,-26.24 174.79,-24.97 177.44,-23.79"/>
<polygon fill="#63b8ff" stroke="#63b8ff" points="178.46,-27.15 186.5,-20.25 175.91,-20.63 178.46,-27.15"/>
</a>
</g>
</g>
<!-- Node4&#45;&gt;Node2 -->
<g id="edge4_Node000004_Node000002" class="edge">
<title>Node4&#45;&gt;Node2</title>
<g id="a_edge4_Node000004_Node000002"><a xlink:title=" ">
<path fill="none" stroke="#63b8ff" d="M291.44,-142.26C298.86,-145.11 306.34,-148.25 313.25,-151.62 330.31,-159.95 332.12,-166.43 349.25,-174.62 355.5,-177.62 362.26,-180.38 368.99,-182.86"/>
<polygon fill="#63b8ff" stroke="#63b8ff" points="367.43,-186.02 378.02,-186.02 369.74,-179.41 367.43,-186.02"/>
</a>
</g>
</g>
<!-- Node5 -->
<g id="Node000005" class="node">
<title>Node5</title>
<g id="a_Node000005"><a xlink:href="class_measurement_point.html#a71995209f2507e6cc15d01607f60767f" target="_top" xlink:title="Update alarm status based on current temperature.">
<polygon fill="white" stroke="#666666" points="482.25,-165.88 349.25,-165.88 349.25,-135.38 482.25,-135.38 482.25,-165.88"/>
<text xml:space="preserve" text-anchor="start" x="357.25" y="-152.38" font-family="Helvetica,sans-Serif" font-size="10.00">MeasurementPoint::update</text>
<text xml:space="preserve" text-anchor="middle" x="415.75" y="-141.12" font-family="Helvetica,sans-Serif" font-size="10.00">AlarmStatus</text>
</a>
</g>
</g>
<!-- Node4&#45;&gt;Node5 -->
<g id="edge5_Node000004_Node000005" class="edge">
<title>Node4&#45;&gt;Node5</title>
<g id="a_edge5_Node000004_Node000005"><a xlink:title=" ">
<path fill="none" stroke="#63b8ff" d="M310.58,-136.11C319.44,-137.34 328.56,-138.62 337.56,-139.87"/>
<polygon fill="#63b8ff" stroke="#63b8ff" points="336.97,-143.32 347.35,-141.23 337.93,-136.39 336.97,-143.32"/>
</a>
</g>
</g>
<!-- Node6&#45;&gt;Node2 -->
<g id="edge7_Node000006_Node000002" class="edge">
<title>Node6&#45;&gt;Node2</title>
<g id="a_edge7_Node000006_Node000002"><a xlink:title=" ">
<path fill="none" stroke="#63b8ff" d="M309.59,-183.8C323.46,-185.5 338.03,-187.27 351.75,-188.94"/>
<polygon fill="#63b8ff" stroke="#63b8ff" points="351.19,-192.4 361.55,-190.14 352.04,-185.45 351.19,-192.4"/>
</a>
</g>
</g>
<!-- Node6&#45;&gt;Node5 -->
<g id="edge8_Node000006_Node000005" class="edge">
<title>Node6&#45;&gt;Node5</title>
<g id="a_edge8_Node000006_Node000005"><a xlink:title=" ">
<path fill="none" stroke="#63b8ff" d="M309.59,-165.89C318.79,-164.55 328.3,-163.17 337.66,-161.81"/>
<polygon fill="#63b8ff" stroke="#63b8ff" points="338.08,-165.29 347.48,-160.39 337.08,-158.36 338.08,-165.29"/>
</a>
</g>
</g>
<!-- Node7&#45;&gt;Node2 -->
<g id="edge10_Node000007_Node000002" class="edge">
<title>Node7&#45;&gt;Node2</title>
<g id="a_edge10_Node000007_Node000002"><a xlink:title=" ">
<path fill="none" stroke="#63b8ff" d="M272.48,-246.56C285.08,-242.3 299.89,-237.26 313.25,-232.62 334.07,-225.4 357.24,-217.2 376.17,-210.45"/>
<polygon fill="#63b8ff" stroke="#63b8ff" points="377.12,-213.83 385.36,-207.17 374.76,-207.24 377.12,-213.83"/>
</a>
</g>
</g>
</g>
</svg>
