<?xml version="1.0" encoding="UTF-8" standalone="no"?>
<!DOCTYPE svg PUBLIC "-//W3C//DTD SVG 1.1//EN"
 "http://www.w3.org/Graphics/SVG/1.1/DTD/svg11.dtd">
<!-- Generated by graphviz version 13.1.0 (20250701.0955)
 -->
<!-- Title: IndicatorInterface::_handleOLEDBlink Pages: 1 -->
<svg width="434pt" height="88pt"
 viewBox="0.00 0.00 434.00 88.00" xmlns="http://www.w3.org/2000/svg" xmlns:xlink="http://www.w3.org/1999/xlink">
<g id="graph0" class="graph" transform="scale(1 1) rotate(0) translate(4 83.5)">
<title>IndicatorInterface::_handleOLEDBlink</title>
<!-- Node1 -->
<g id="Node000001" class="node">
<title>Node1</title>
<g id="a_Node000001"><a xlink:title="Handle OLED blinking.">
<polygon fill="#999999" stroke="#666666" points="104.5,-54.5 0,-54.5 0,-24 104.5,-24 104.5,-54.5"/>
<text xml:space="preserve" text-anchor="start" x="8" y="-41" font-family="Helvetica,sans-Serif" font-size="10.00">IndicatorInterface</text>
<text xml:space="preserve" text-anchor="middle" x="52.25" y="-29.75" font-family="Helvetica,sans-Serif" font-size="10.00">::_handleOLEDBlink</text>
</a>
</g>
</g>
<!-- Node2 -->
<g id="Node000002" class="node">
<title>Node2</title>
<g id="a_Node000002"><a xlink:href="$class_indicator_interface.html#a38acc1a5120e275253fc4e458aea91f0" xlink:title="Update OLED display content.">
<polygon fill="white" stroke="#666666" points="257,-54.5 140.5,-54.5 140.5,-24 257,-24 257,-54.5"/>
<text xml:space="preserve" text-anchor="start" x="148.5" y="-41" font-family="Helvetica,sans-Serif" font-size="10.00">IndicatorInterface</text>
<text xml:space="preserve" text-anchor="middle" x="198.75" y="-29.75" font-family="Helvetica,sans-Serif" font-size="10.00">::_updateOLEDDisplay</text>
</a>
</g>
</g>
<!-- Node1&#45;&gt;Node2 -->
<g id="edge1_Node000001_Node000002" class="edge">
<title>Node1&#45;&gt;Node2</title>
<g id="a_edge1_Node000001_Node000002"><a xlink:title=" ">
<path fill="none" stroke="#63b8ff" d="M104.6,-39.25C112.43,-39.25 120.62,-39.25 128.75,-39.25"/>
<polygon fill="#63b8ff" stroke="#63b8ff" points="128.66,-42.75 138.66,-39.25 128.66,-35.75 128.66,-42.75"/>
</a>
</g>
</g>
<!-- Node3 -->
<g id="Node000003" class="node">
<title>Node3</title>
<g id="a_Node000003"><a xlink:href="$class_indicator_interface.html#a2f021f6fa16dec590a8b9cf41a82349d" xlink:title="Calculate display parameters.">
<polygon fill="white" stroke="#666666" points="426,-79.5 293,-79.5 293,-49 426,-49 426,-79.5"/>
<text xml:space="preserve" text-anchor="start" x="301" y="-66" font-family="Helvetica,sans-Serif" font-size="10.00">IndicatorInterface</text>
<text xml:space="preserve" text-anchor="middle" x="359.5" y="-54.75" font-family="Helvetica,sans-Serif" font-size="10.00">::_calculateDisplayParams</text>
</a>
</g>
</g>
<!-- Node2&#45;&gt;Node3 -->
<g id="edge2_Node000002_Node000003" class="edge">
<title>Node2&#45;&gt;Node3</title>
<g id="a_edge2_Node000002_Node000003"><a xlink:title=" ">
<path fill="none" stroke="#63b8ff" d="M257.06,-48.28C265,-49.53 273.26,-50.83 281.48,-52.12"/>
<polygon fill="#63b8ff" stroke="#63b8ff" points="280.72,-55.54 291.15,-53.64 281.81,-48.63 280.72,-55.54"/>
</a>
</g>
</g>
<!-- Node4 -->
<g id="Node000004" class="node">
<title>Node4</title>
<g id="a_Node000004"><a xlink:href="$class_indicator_interface.html#a56c23034a963e2099e36cf55ec70055e" xlink:title="Draw single text line at specified position.">
<polygon fill="white" stroke="#666666" points="405.38,-30.5 313.62,-30.5 313.62,0 405.38,0 405.38,-30.5"/>
<text xml:space="preserve" text-anchor="start" x="321.62" y="-17" font-family="Helvetica,sans-Serif" font-size="10.00">IndicatorInterface</text>
<text xml:space="preserve" text-anchor="middle" x="359.5" y="-5.75" font-family="Helvetica,sans-Serif" font-size="10.00">::_drawTextLine</text>
</a>
</g>
</g>
<!-- Node2&#45;&gt;Node4 -->
<g id="edge3_Node000002_Node000004" class="edge">
<title>Node2&#45;&gt;Node4</title>
<g id="a_edge3_Node000002_Node000004"><a xlink:title=" ">
<path fill="none" stroke="#63b8ff" d="M257.06,-30.59C271.64,-28.38 287.29,-26.02 301.84,-23.82"/>
<polygon fill="#63b8ff" stroke="#63b8ff" points="302.36,-27.28 311.72,-22.32 301.31,-20.36 302.36,-27.28"/>
</a>
</g>
</g>
</g>
</svg>
