<?xml version="1.0" encoding="UTF-8" standalone="no"?>
<!DOCTYPE svg PUBLIC "-//W3C//DTD SVG 1.1//EN"
 "http://www.w3.org/Graphics/SVG/1.1/DTD/svg11.dtd">
<!-- Generated by graphviz version 13.1.0 (20250701.0955)
 -->
<!-- Title: LoggerManager::_generateLogFileName Pages: 1 -->
<svg width="489pt" height="61pt"
 viewBox="0.00 0.00 489.00 61.00" xmlns="http://www.w3.org/2000/svg" xmlns:xlink="http://www.w3.org/1999/xlink">
<g id="graph0" class="graph" transform="scale(1 1) rotate(0) translate(4 56.5)">
<title>LoggerManager::_generateLogFileName</title>
<!-- Node1 -->
<g id="Node000001" class="node">
<title>Node1</title>
<g id="a_Node000001"><a xlink:title=" ">
<polygon fill="#999999" stroke="#666666" points="131.5,-30.5 0,-30.5 0,0 131.5,0 131.5,-30.5"/>
<text xml:space="preserve" text-anchor="start" x="8" y="-17" font-family="Helvetica,sans-Serif" font-size="10.00">LoggerManager::_generate</text>
<text xml:space="preserve" text-anchor="middle" x="65.75" y="-5.75" font-family="Helvetica,sans-Serif" font-size="10.00">LogFileName</text>
</a>
</g>
</g>
<!-- Node2 -->
<g id="Node000002" class="node">
<title>Node2</title>
<g id="a_Node000002"><a xlink:href="class_logger_manager.html#ad3276c1ba03fe7e5b98e33cd207baf1f" target="_top" xlink:title=" ">
<polygon fill="white" stroke="#666666" points="305,-52.5 167.5,-52.5 167.5,-22 305,-22 305,-52.5"/>
<text xml:space="preserve" text-anchor="start" x="175.5" y="-39" font-family="Helvetica,sans-Serif" font-size="10.00">LoggerManager::_generate</text>
<text xml:space="preserve" text-anchor="middle" x="236.25" y="-27.75" font-family="Helvetica,sans-Serif" font-size="10.00">LogFileNameWithSequence</text>
</a>
</g>
</g>
<!-- Node1&#45;&gt;Node2 -->
<g id="edge1_Node000001_Node000002" class="edge">
<title>Node1&#45;&gt;Node2</title>
<g id="a_edge1_Node000001_Node000002"><a xlink:title=" ">
<path fill="none" stroke="#63b8ff" d="M131.9,-23.76C139.76,-24.78 147.87,-25.84 155.91,-26.89"/>
<polygon fill="#63b8ff" stroke="#63b8ff" points="155.34,-30.35 165.71,-28.17 156.25,-23.41 155.34,-30.35"/>
</a>
</g>
</g>
<!-- Node3 -->
<g id="Node000003" class="node">
<title>Node3</title>
<g id="a_Node000003"><a xlink:href="class_logger_manager.html#a3ca0b934265a4d9ce6391bf97dec179a" target="_top" xlink:title=" ">
<polygon fill="white" stroke="#666666" points="480.75,-30.5 341,-30.5 341,0 480.75,0 480.75,-30.5"/>
<text xml:space="preserve" text-anchor="start" x="349" y="-17" font-family="Helvetica,sans-Serif" font-size="10.00">LoggerManager::_getCurrent</text>
<text xml:space="preserve" text-anchor="middle" x="410.88" y="-5.75" font-family="Helvetica,sans-Serif" font-size="10.00">DateString</text>
</a>
</g>
</g>
<!-- Node1&#45;&gt;Node3 -->
<g id="edge3_Node000001_Node000003" class="edge">
<title>Node1&#45;&gt;Node3</title>
<g id="a_edge3_Node000001_Node000003"><a xlink:title=" ">
<path fill="none" stroke="#63b8ff" d="M131.78,-13.77C143.66,-13.55 155.95,-13.36 167.5,-13.25 228.61,-12.64 243.89,-12.67 305,-13.25 312.95,-13.33 321.24,-13.43 329.52,-13.56"/>
<polygon fill="#63b8ff" stroke="#63b8ff" points="329.2,-17.06 339.26,-13.72 329.32,-10.06 329.2,-17.06"/>
</a>
</g>
</g>
<!-- Node2&#45;&gt;Node3 -->
<g id="edge2_Node000002_Node000003" class="edge">
<title>Node2&#45;&gt;Node3</title>
<g id="a_edge2_Node000002_Node000003"><a xlink:title=" ">
<path fill="none" stroke="#63b8ff" d="M305.48,-28.56C313.35,-27.55 321.44,-26.52 329.46,-25.5"/>
<polygon fill="#63b8ff" stroke="#63b8ff" points="329.75,-28.99 339.23,-24.25 328.87,-22.05 329.75,-28.99"/>
</a>
</g>
</g>
</g>
</svg>
