<?xml version="1.0" encoding="UTF-8" standalone="no"?>
<!DOCTYPE svg PUBLIC "-//W3C//DTD SVG 1.1//EN"
 "http://www.w3.org/Graphics/SVG/1.1/DTD/svg11.dtd">
<!-- Generated by graphviz version 13.1.0 (20250701.0955)
 -->
<!-- Title: CSVConfigManager::importPointsWithAlarmsFromCSV Pages: 1 -->
<svg width="674pt" height="174pt"
 viewBox="0.00 0.00 674.00 174.00" xmlns="http://www.w3.org/2000/svg" xmlns:xlink="http://www.w3.org/1999/xlink">
<g id="graph0" class="graph" transform="scale(1 1) rotate(0) translate(4 169.5)">
<title>CSVConfigManager::importPointsWithAlarmsFromCSV</title>
<!-- Node1 -->
<g id="Node000001" class="node">
<title>Node1</title>
<g id="a_Node000001"><a xlink:title="Import measurement points and alarms from CSV data.">
<polygon fill="#999999" stroke="#666666" points="138.25,-75.5 0,-75.5 0,-45 138.25,-45 138.25,-75.5"/>
<text xml:space="preserve" text-anchor="start" x="8" y="-62" font-family="Helvetica,sans-Serif" font-size="10.00">CSVConfigManager::import</text>
<text xml:space="preserve" text-anchor="middle" x="69.12" y="-50.75" font-family="Helvetica,sans-Serif" font-size="10.00">PointsWithAlarmsFromCSV</text>
</a>
</g>
</g>
<!-- Node2 -->
<g id="Node000002" class="node">
<title>Node2</title>
<g id="a_Node000002"><a xlink:href="$class_c_s_v_config_manager.html#ac91e29ab2468661df752e4e4b2f7186c" xlink:title="Parse single CSV line.">
<polygon fill="white" stroke="#666666" points="300.12,-100.5 191.12,-100.5 191.12,-70 300.12,-70 300.12,-100.5"/>
<text xml:space="preserve" text-anchor="start" x="199.12" y="-87" font-family="Helvetica,sans-Serif" font-size="10.00">CSVConfigManager::</text>
<text xml:space="preserve" text-anchor="middle" x="245.62" y="-75.75" font-family="Helvetica,sans-Serif" font-size="10.00">_parseCSVLine</text>
</a>
</g>
</g>
<!-- Node1&#45;&gt;Node2 -->
<g id="edge1_Node000001_Node000002" class="edge">
<title>Node1&#45;&gt;Node2</title>
<g id="a_edge1_Node000001_Node000002"><a xlink:title=" ">
<path fill="none" stroke="#63b8ff" d="M138.59,-70.06C152.09,-71.99 166.22,-74.02 179.61,-75.94"/>
<polygon fill="#63b8ff" stroke="#63b8ff" points="178.75,-79.35 189.15,-77.3 179.74,-72.42 178.75,-79.35"/>
</a>
</g>
</g>
<!-- Node9 -->
<g id="Node000009" class="node">
<title>Node9</title>
<g id="a_Node000009"><a xlink:href="$class_c_s_v_config_manager.html#a4dca23384ad64615e2893ded0c66567c" xlink:title="Validate CSV data format and content.">
<polygon fill="white" stroke="#666666" points="317,-51.5 174.25,-51.5 174.25,-21 317,-21 317,-51.5"/>
<text xml:space="preserve" text-anchor="start" x="182.25" y="-38" font-family="Helvetica,sans-Serif" font-size="10.00">CSVConfigManager::validate</text>
<text xml:space="preserve" text-anchor="middle" x="245.62" y="-26.75" font-family="Helvetica,sans-Serif" font-size="10.00">PointsCSV</text>
</a>
</g>
</g>
<!-- Node1&#45;&gt;Node9 -->
<g id="edge11_Node000001_Node000009" class="edge">
<title>Node1&#45;&gt;Node9</title>
<g id="a_edge11_Node000001_Node000009"><a xlink:title=" ">
<path fill="none" stroke="#63b8ff" d="M138.59,-50.83C146.44,-49.75 154.51,-48.64 162.52,-47.54"/>
<polygon fill="#63b8ff" stroke="#63b8ff" points="162.84,-51.03 172.27,-46.2 161.89,-44.1 162.84,-51.03"/>
</a>
</g>
</g>
<!-- Node3 -->
<g id="Node000003" class="node">
<title>Node3</title>
<g id="a_Node000003"><a xlink:href="$class_c_s_v_config_manager.html#a99faac6c424979e035a85cb77515e092" xlink:title="Parse priority string to enum.">
<polygon fill="white" stroke="#666666" points="479.25,-165.5 370.25,-165.5 370.25,-135 479.25,-135 479.25,-165.5"/>
<text xml:space="preserve" text-anchor="start" x="378.25" y="-152" font-family="Helvetica,sans-Serif" font-size="10.00">CSVConfigManager::</text>
<text xml:space="preserve" text-anchor="middle" x="424.75" y="-140.75" font-family="Helvetica,sans-Serif" font-size="10.00">_parsePriority</text>
</a>
</g>
</g>
<!-- Node2&#45;&gt;Node3 -->
<g id="edge2_Node000002_Node000003" class="edge">
<title>Node2&#45;&gt;Node3</title>
<g id="a_edge2_Node000002_Node000003"><a xlink:title=" ">
<path fill="none" stroke="#63b8ff" d="M286.14,-100.92C306.11,-108.73 330.76,-118.2 353,-126.25 357.13,-127.75 361.42,-129.27 365.73,-130.78"/>
<polygon fill="#63b8ff" stroke="#63b8ff" points="364.44,-134.04 375.04,-134.01 366.74,-127.43 364.44,-134.04"/>
</a>
</g>
</g>
<!-- Node4 -->
<g id="Node000004" class="node">
<title>Node4</title>
<g id="a_Node000004"><a xlink:href="$class_measurement_point.html#aefb47fef40f33161be5c6fddf0cf6329" xlink:title="Set high alarm threshold.">
<polygon fill="white" stroke="#666666" points="493.5,-79.5 356,-79.5 356,-49 493.5,-49 493.5,-79.5"/>
<text xml:space="preserve" text-anchor="start" x="364" y="-66" font-family="Helvetica,sans-Serif" font-size="10.00">MeasurementPoint::setHigh</text>
<text xml:space="preserve" text-anchor="middle" x="424.75" y="-54.75" font-family="Helvetica,sans-Serif" font-size="10.00">AlarmThreshold</text>
</a>
</g>
</g>
<!-- Node2&#45;&gt;Node4 -->
<g id="edge3_Node000002_Node000004" class="edge">
<title>Node2&#45;&gt;Node4</title>
<g id="a_edge3_Node000002_Node000004"><a xlink:title=" ">
<path fill="none" stroke="#63b8ff" d="M300.25,-78.89C314.12,-77.25 329.36,-75.44 344.25,-73.68"/>
<polygon fill="#63b8ff" stroke="#63b8ff" points="344.52,-77.17 354.04,-72.51 343.7,-70.22 344.52,-77.17"/>
</a>
</g>
</g>
<!-- Node7 -->
<g id="Node000007" class="node">
<title>Node7</title>
<g id="a_Node000007"><a xlink:href="$class_measurement_point.html#ac780917beebc11d705824cab8f43b94d" xlink:title="Set low alarm threshold.">
<polygon fill="white" stroke="#666666" points="492.38,-30.5 357.12,-30.5 357.12,0 492.38,0 492.38,-30.5"/>
<text xml:space="preserve" text-anchor="start" x="365.12" y="-17" font-family="Helvetica,sans-Serif" font-size="10.00">MeasurementPoint::setLow</text>
<text xml:space="preserve" text-anchor="middle" x="424.75" y="-5.75" font-family="Helvetica,sans-Serif" font-size="10.00">AlarmThreshold</text>
</a>
</g>
</g>
<!-- Node2&#45;&gt;Node7 -->
<g id="edge6_Node000002_Node000007" class="edge">
<title>Node2&#45;&gt;Node7</title>
<g id="a_edge6_Node000002_Node000007"><a xlink:title=" ">
<path fill="none" stroke="#63b8ff" d="M293.99,-69.64C301.77,-66.73 309.67,-63.56 317,-60.25 333.68,-52.72 336.31,-47.77 353,-40.25 356.96,-38.46 361.09,-36.72 365.28,-35.04"/>
<polygon fill="#63b8ff" stroke="#63b8ff" points="366.27,-38.4 374.34,-31.53 363.75,-31.88 366.27,-38.4"/>
</a>
</g>
</g>
<!-- Node8 -->
<g id="Node000008" class="node">
<title>Node8</title>
<g id="a_Node000008"><a xlink:href="$class_measurement_point.html#ae3abe83ed3e7979a906c7d753ac9d22d" xlink:title="Set measurement point name.">
<polygon fill="white" stroke="#666666" points="496.5,-116.88 353,-116.88 353,-97.62 496.5,-97.62 496.5,-116.88"/>
<text xml:space="preserve" text-anchor="middle" x="424.75" y="-103.38" font-family="Helvetica,sans-Serif" font-size="10.00">MeasurementPoint::setName</text>
</a>
</g>
</g>
<!-- Node2&#45;&gt;Node8 -->
<g id="edge9_Node000002_Node000008" class="edge">
<title>Node2&#45;&gt;Node8</title>
<g id="a_edge9_Node000002_Node000008"><a xlink:title=" ">
<path fill="none" stroke="#63b8ff" d="M300.25,-91.91C313.26,-93.53 327.48,-95.29 341.48,-97.03"/>
<polygon fill="#63b8ff" stroke="#63b8ff" points="340.78,-100.47 351.14,-98.23 341.65,-93.53 340.78,-100.47"/>
</a>
</g>
</g>
<!-- Node5 -->
<g id="Node000005" class="node">
<title>Node5</title>
<g id="a_Node000005"><a xlink:href="$class_logger_manager.html#a5c1373ccc47f4112b596fe6f84fbbc21" xlink:title="Log informational message (static convenience method)">
<polygon fill="white" stroke="#666666" points="651.25,-73.88 546.75,-73.88 546.75,-54.62 651.25,-54.62 651.25,-73.88"/>
<text xml:space="preserve" text-anchor="middle" x="599" y="-60.38" font-family="Helvetica,sans-Serif" font-size="10.00">LoggerManager::info</text>
</a>
</g>
</g>
<!-- Node4&#45;&gt;Node5 -->
<g id="edge4_Node000004_Node000005" class="edge">
<title>Node4&#45;&gt;Node5</title>
<g id="a_edge4_Node000004_Node000005"><a xlink:title=" ">
<path fill="none" stroke="#63b8ff" d="M493.83,-64.25C507.36,-64.25 521.51,-64.25 534.86,-64.25"/>
<polygon fill="#63b8ff" stroke="#63b8ff" points="534.84,-67.75 544.84,-64.25 534.84,-60.75 534.84,-67.75"/>
</a>
</g>
</g>
<!-- Node6 -->
<g id="Node000006" class="node">
<title>Node6</title>
<g id="a_Node000006"><a xlink:href="$class_measurement_point.html#a71995209f2507e6cc15d01607f60767f" xlink:title="Update alarm status based on current temperature.">
<polygon fill="white" stroke="#666666" points="665.5,-33.5 532.5,-33.5 532.5,-3 665.5,-3 665.5,-33.5"/>
<text xml:space="preserve" text-anchor="start" x="540.5" y="-20" font-family="Helvetica,sans-Serif" font-size="10.00">MeasurementPoint::update</text>
<text xml:space="preserve" text-anchor="middle" x="599" y="-8.75" font-family="Helvetica,sans-Serif" font-size="10.00">AlarmStatus</text>
</a>
</g>
</g>
<!-- Node4&#45;&gt;Node6 -->
<g id="edge5_Node000004_Node000006" class="edge">
<title>Node4&#45;&gt;Node6</title>
<g id="a_edge5_Node000004_Node000006"><a xlink:title=" ">
<path fill="none" stroke="#63b8ff" d="M484.55,-48.55C498.6,-44.79 513.74,-40.75 528.24,-36.88"/>
<polygon fill="#63b8ff" stroke="#63b8ff" points="528.96,-40.31 537.71,-34.35 527.15,-33.55 528.96,-40.31"/>
</a>
</g>
</g>
<!-- Node7&#45;&gt;Node5 -->
<g id="edge7_Node000007_Node000005" class="edge">
<title>Node7&#45;&gt;Node5</title>
<g id="a_edge7_Node000007_Node000005"><a xlink:title=" ">
<path fill="none" stroke="#63b8ff" d="M480.72,-30.89C503.53,-37.38 529.7,-44.82 551.53,-51.03"/>
<polygon fill="#63b8ff" stroke="#63b8ff" points="550.47,-54.37 561.05,-53.74 552.39,-47.64 550.47,-54.37"/>
</a>
</g>
</g>
<!-- Node7&#45;&gt;Node6 -->
<g id="edge8_Node000007_Node000006" class="edge">
<title>Node7&#45;&gt;Node6</title>
<g id="a_edge8_Node000007_Node000006"><a xlink:title=" ">
<path fill="none" stroke="#63b8ff" d="M492.84,-16.42C502.04,-16.58 511.55,-16.74 520.91,-16.91"/>
<polygon fill="#63b8ff" stroke="#63b8ff" points="520.65,-20.4 530.71,-17.08 520.77,-13.4 520.65,-20.4"/>
</a>
</g>
</g>
<!-- Node8&#45;&gt;Node5 -->
<g id="edge10_Node000008_Node000005" class="edge">
<title>Node8&#45;&gt;Node5</title>
<g id="a_edge10_Node000008_Node000005"><a xlink:title=" ">
<path fill="none" stroke="#63b8ff" d="M466.13,-97.17C490.13,-91.18 520.79,-83.52 546.51,-77.1"/>
<polygon fill="#63b8ff" stroke="#63b8ff" points="547.25,-80.53 556.1,-74.71 545.55,-73.74 547.25,-80.53"/>
</a>
</g>
</g>
</g>
</svg>
