<?xml version="1.0" encoding="UTF-8" standalone="no"?>
<!DOCTYPE svg PUBLIC "-//W3C//DTD SVG 1.1//EN"
 "http://www.w3.org/Graphics/SVG/1.1/DTD/svg11.dtd">
<!-- Generated by graphviz version 13.1.0 (20250701.0955)
 -->
<!-- Title: LoggerManager::getLogDirectoryPath Pages: 1 -->
<svg width="886pt" height="107pt"
 viewBox="0.00 0.00 886.00 107.00" xmlns="http://www.w3.org/2000/svg" xmlns:xlink="http://www.w3.org/1999/xlink">
<g id="graph0" class="graph" transform="scale(1 1) rotate(0) translate(4 103.25)">
<title>LoggerManager::getLogDirectoryPath</title>
<!-- Node1 -->
<g id="Node000001" class="node">
<title>Node1</title>
<g id="a_Node000001"><a xlink:title=" ">
<polygon fill="#999999" stroke="#666666" points="878,-57.25 700,-57.25 700,-38 878,-38 878,-57.25"/>
<text xml:space="preserve" text-anchor="middle" x="789" y="-43.75" font-family="Helvetica,sans-Serif" font-size="10.00">LoggerManager::getLogDirectoryPath</text>
</a>
</g>
</g>
<!-- Node2 -->
<g id="Node000002" class="node">
<title>Node2</title>
<g id="a_Node000002"><a xlink:href="class_config_manager.html#aa425fe77d9c00f404f1c02327263f516" target="_top" xlink:title="Get alarm events for a specific point within date range.">
<polygon fill="white" stroke="#666666" points="486.75,-61.88 329,-61.88 329,-31.38 486.75,-31.38 486.75,-61.88"/>
<text xml:space="preserve" text-anchor="start" x="337" y="-48.38" font-family="Helvetica,sans-Serif" font-size="10.00">ConfigManager::getAlarmEvents</text>
<text xml:space="preserve" text-anchor="middle" x="407.88" y="-37.12" font-family="Helvetica,sans-Serif" font-size="10.00">ForPoint</text>
</a>
</g>
</g>
<!-- Node1&#45;&gt;Node2 -->
<g id="edge1_Node000001_Node000002" class="edge">
<title>Node1&#45;&gt;Node2</title>
<g id="a_edge1_Node000001_Node000002"><a xlink:title=" ">
<path fill="none" stroke="#63b8ff" d="M688.46,-47.36C625.56,-47.2 545.45,-46.99 487.12,-46.83"/>
<polygon fill="#63b8ff" stroke="#63b8ff" points="688.07,-50.86 698.08,-47.39 688.09,-43.86 688.07,-50.86"/>
</a>
</g>
</g>
<!-- Node5 -->
<g id="Node000005" class="node">
<title>Node5</title>
<g id="a_Node000005"><a xlink:href="class_logger_manager.html#acb4313c65e6a661229f2c3d662f1c059" target="_top" xlink:title=" ">
<polygon fill="white" stroke="#666666" points="475.12,-99.25 340.62,-99.25 340.62,-80 475.12,-80 475.12,-99.25"/>
<text xml:space="preserve" text-anchor="middle" x="407.88" y="-85.75" font-family="Helvetica,sans-Serif" font-size="10.00">LoggerManager::getFileInfo</text>
</a>
</g>
</g>
<!-- Node1&#45;&gt;Node5 -->
<g id="edge4_Node000001_Node000005" class="edge">
<title>Node1&#45;&gt;Node5</title>
<g id="a_edge4_Node000001_Node000005"><a xlink:title=" ">
<path fill="none" stroke="#63b8ff" d="M688.56,-58.64C621.34,-66.09 534.42,-75.72 475.45,-82.25"/>
<polygon fill="#63b8ff" stroke="#63b8ff" points="688.53,-62.17 698.09,-57.59 687.76,-55.21 688.53,-62.17"/>
</a>
</g>
</g>
<!-- Node6 -->
<g id="Node000006" class="node">
<title>Node6</title>
<g id="a_Node000006"><a xlink:href="class_logger_manager.html#a92719154d919a9bd45a8ea192e70dfcc" target="_top" xlink:title=" ">
<polygon fill="white" stroke="#666666" points="664,-19.25 522.75,-19.25 522.75,0 664,0 664,-19.25"/>
<text xml:space="preserve" text-anchor="middle" x="593.38" y="-5.75" font-family="Helvetica,sans-Serif" font-size="10.00">LoggerManager::openLogFile</text>
</a>
</g>
</g>
<!-- Node1&#45;&gt;Node6 -->
<g id="edge6_Node000001_Node000006" class="edge">
<title>Node1&#45;&gt;Node6</title>
<g id="a_edge6_Node000001_Node000006"><a xlink:title=" ">
<path fill="none" stroke="#63b8ff" d="M725.44,-35.35C699.65,-30.29 670.14,-24.49 645.66,-19.69"/>
<polygon fill="#63b8ff" stroke="#63b8ff" points="724.65,-38.76 735.14,-37.25 726,-31.89 724.65,-38.76"/>
</a>
</g>
</g>
<!-- Node3 -->
<g id="Node000003" class="node">
<title>Node3</title>
<g id="a_Node000003"><a xlink:href="class_config_manager.html#a3b28982c79587a287c8ddf0acf47f71d" target="_top" xlink:title="Setup file download API endpoints.">
<polygon fill="white" stroke="#666666" points="293,-56.25 147.25,-56.25 147.25,-37 293,-37 293,-56.25"/>
<text xml:space="preserve" text-anchor="middle" x="220.12" y="-42.75" font-family="Helvetica,sans-Serif" font-size="10.00">ConfigManager::downloadAPI</text>
</a>
</g>
</g>
<!-- Node2&#45;&gt;Node3 -->
<g id="edge2_Node000002_Node000003" class="edge">
<title>Node2&#45;&gt;Node3</title>
<g id="a_edge2_Node000002_Node000003"><a xlink:title=" ">
<path fill="none" stroke="#63b8ff" d="M317.32,-46.62C309.29,-46.62 301.22,-46.62 293.35,-46.62"/>
<polygon fill="#63b8ff" stroke="#63b8ff" points="317.13,-50.13 327.13,-46.63 317.13,-43.13 317.13,-50.13"/>
</a>
</g>
</g>
<!-- Node4 -->
<g id="Node000004" class="node">
<title>Node4</title>
<g id="a_Node000004"><a xlink:href="class_config_manager.html#a0497343220fc493f5cf9574922508908" target="_top" xlink:title="Initialize the configuration system.">
<polygon fill="white" stroke="#666666" points="111.25,-56.25 0,-56.25 0,-37 111.25,-37 111.25,-56.25"/>
<text xml:space="preserve" text-anchor="middle" x="55.62" y="-42.75" font-family="Helvetica,sans-Serif" font-size="10.00">ConfigManager::begin</text>
</a>
</g>
</g>
<!-- Node3&#45;&gt;Node4 -->
<g id="edge3_Node000003_Node000004" class="edge">
<title>Node3&#45;&gt;Node4</title>
<g id="a_edge3_Node000003_Node000004"><a xlink:title=" ">
<path fill="none" stroke="#63b8ff" d="M135.45,-46.62C127.35,-46.62 119.27,-46.62 111.55,-46.62"/>
<polygon fill="#63b8ff" stroke="#63b8ff" points="135.39,-50.13 145.39,-46.63 135.39,-43.13 135.39,-50.13"/>
</a>
</g>
</g>
<!-- Node5&#45;&gt;Node3 -->
<g id="edge5_Node000005_Node000003" class="edge">
<title>Node5&#45;&gt;Node3</title>
<g id="a_edge5_Node000005_Node000003"><a xlink:title=" ">
<path fill="none" stroke="#63b8ff" d="M352.15,-76.96C324.27,-70.5 290.84,-62.76 264.72,-56.72"/>
<polygon fill="#63b8ff" stroke="#63b8ff" points="351.32,-80.36 361.85,-79.2 352.9,-73.54 351.32,-80.36"/>
</a>
</g>
</g>
<!-- Node6&#45;&gt;Node2 -->
<g id="edge8_Node000006_Node000002" class="edge">
<title>Node6&#45;&gt;Node2</title>
<g id="a_edge8_Node000006_Node000002"><a xlink:title=" ">
<path fill="none" stroke="#63b8ff" d="M531.13,-21.97C516.95,-24.83 501.67,-27.91 486.88,-30.9"/>
<polygon fill="#63b8ff" stroke="#63b8ff" points="531.64,-25.44 540.75,-20.03 530.25,-18.58 531.64,-25.44"/>
</a>
</g>
</g>
<!-- Node6&#45;&gt;Node3 -->
<g id="edge7_Node000006_Node000003" class="edge">
<title>Node6&#45;&gt;Node3</title>
<g id="a_edge7_Node000006_Node000003"><a xlink:title=" ">
<path fill="none" stroke="#63b8ff" d="M511.27,-10.08C459.03,-11.25 389.76,-14.43 329,-22.62 305.52,-25.79 279.59,-31.49 259.03,-36.54"/>
<polygon fill="#63b8ff" stroke="#63b8ff" points="511.05,-13.59 520.97,-9.89 510.91,-6.59 511.05,-13.59"/>
</a>
</g>
</g>
</g>
</svg>
