<?xml version="1.0" encoding="UTF-8" standalone="no"?>
<!DOCTYPE svg PUBLIC "-//W3C//DTD SVG 1.1//EN"
 "http://www.w3.org/Graphics/SVG/1.1/DTD/svg11.dtd">
<!-- Generated by graphviz version 13.1.0 (20250701.0955)
 -->
<!-- Title: TemperatureController::bindSensorToPointByRom Pages: 1 -->
<svg width="539pt" height="334pt"
 viewBox="0.00 0.00 539.00 334.00" xmlns="http://www.w3.org/2000/svg" xmlns:xlink="http://www.w3.org/1999/xlink">
<g id="graph0" class="graph" transform="scale(1 1) rotate(0) translate(4 330.25)">
<title>TemperatureController::bindSensorToPointByRom</title>
<!-- Node1 -->
<g id="Node000001" class="node">
<title>Node1</title>
<g id="a_Node000001"><a xlink:title="Bind sensor to measurement point by ROM address.">
<polygon fill="#999999" stroke="#666666" points="136.75,-168.88 0,-168.88 0,-138.38 136.75,-138.38 136.75,-168.88"/>
<text xml:space="preserve" text-anchor="start" x="8" y="-155.38" font-family="Helvetica,sans-Serif" font-size="10.00">TemperatureController</text>
<text xml:space="preserve" text-anchor="middle" x="68.38" y="-144.12" font-family="Helvetica,sans-Serif" font-size="10.00">::bindSensorToPointByRom</text>
</a>
</g>
</g>
<!-- Node2 -->
<g id="Node000002" class="node">
<title>Node2</title>
<g id="a_Node000002"><a xlink:href="class_measurement_point.html#a3c3af28d9aabc9e5b9e2e370eaa29ce0" target="_top" xlink:title="Bind a physical sensor to this measurement point.">
<polygon fill="white" stroke="#666666" points="333.5,-326.25 181,-326.25 181,-307 333.5,-307 333.5,-326.25"/>
<text xml:space="preserve" text-anchor="middle" x="257.25" y="-312.75" font-family="Helvetica,sans-Serif" font-size="10.00">MeasurementPoint::bindSensor</text>
</a>
</g>
</g>
<!-- Node1&#45;&gt;Node2 -->
<g id="edge1_Node000001_Node000002" class="edge">
<title>Node1&#45;&gt;Node2</title>
<g id="a_edge1_Node000001_Node000002"><a xlink:title=" ">
<path fill="none" stroke="#63b8ff" d="M75.88,-169.06C89.29,-198.94 123.01,-264.61 172.75,-297.62 175.13,-299.21 177.63,-300.66 180.21,-301.99"/>
<polygon fill="#63b8ff" stroke="#63b8ff" points="178.57,-305.09 189.13,-305.94 181.41,-298.69 178.57,-305.09"/>
</a>
</g>
</g>
<!-- Node3 -->
<g id="Node000003" class="node">
<title>Node3</title>
<g id="a_Node000003"><a xlink:href="class_temperature_controller.html#ae03306ef9585c7427ef53cd9a5fad12b" target="_top" xlink:title="Find sensor by ROM address string.">
<polygon fill="white" stroke="#666666" points="313.25,-288.88 201.25,-288.88 201.25,-258.38 313.25,-258.38 313.25,-288.88"/>
<text xml:space="preserve" text-anchor="start" x="209.25" y="-275.38" font-family="Helvetica,sans-Serif" font-size="10.00">TemperatureController</text>
<text xml:space="preserve" text-anchor="middle" x="257.25" y="-264.12" font-family="Helvetica,sans-Serif" font-size="10.00">::findSensorByRom</text>
</a>
</g>
</g>
<!-- Node1&#45;&gt;Node3 -->
<g id="edge2_Node000001_Node000003" class="edge">
<title>Node1&#45;&gt;Node3</title>
<g id="a_edge2_Node000001_Node000003"><a xlink:title=" ">
<path fill="none" stroke="#63b8ff" d="M82.12,-169.09C100.19,-190.05 135.25,-227.3 172.75,-248.62 178.31,-251.79 184.31,-254.59 190.46,-257.06"/>
<polygon fill="#63b8ff" stroke="#63b8ff" points="188.87,-260.2 199.47,-260.39 191.3,-253.64 188.87,-260.2"/>
</a>
</g>
</g>
<!-- Node4 -->
<g id="Node000004" class="node">
<title>Node4</title>
<g id="a_Node000004"><a xlink:href="class_temperature_controller.html#a880028883101197527de57f626e14512" target="_top" xlink:title="Get all alarms associated with a measurement point.">
<polygon fill="white" stroke="#666666" points="313.25,-239.88 201.25,-239.88 201.25,-209.38 313.25,-209.38 313.25,-239.88"/>
<text xml:space="preserve" text-anchor="start" x="209.25" y="-226.38" font-family="Helvetica,sans-Serif" font-size="10.00">TemperatureController</text>
<text xml:space="preserve" text-anchor="middle" x="257.25" y="-215.12" font-family="Helvetica,sans-Serif" font-size="10.00">::getAlarmsForPoint</text>
</a>
</g>
</g>
<!-- Node1&#45;&gt;Node4 -->
<g id="edge3_Node000001_Node000004" class="edge">
<title>Node1&#45;&gt;Node4</title>
<g id="a_edge3_Node000001_Node000004"><a xlink:title=" ">
<path fill="none" stroke="#63b8ff" d="M101.53,-169.21C121.71,-178.67 148.44,-190.62 172.75,-199.62 178.43,-201.73 184.37,-203.78 190.35,-205.76"/>
<polygon fill="#63b8ff" stroke="#63b8ff" points="189.09,-209.03 199.68,-208.75 191.23,-202.36 189.09,-209.03"/>
</a>
</g>
</g>
<!-- Node6 -->
<g id="Node000006" class="node">
<title>Node6</title>
<g id="a_Node000006"><a xlink:href="class_temperature_controller.html#a494f057c234b4ff7526bde271aec9267" target="_top" xlink:title="Get measurement point by address.">
<polygon fill="white" stroke="#666666" points="315.88,-190.88 198.62,-190.88 198.62,-160.38 315.88,-160.38 315.88,-190.88"/>
<text xml:space="preserve" text-anchor="start" x="206.62" y="-177.38" font-family="Helvetica,sans-Serif" font-size="10.00">TemperatureController</text>
<text xml:space="preserve" text-anchor="middle" x="257.25" y="-166.12" font-family="Helvetica,sans-Serif" font-size="10.00">::getMeasurementPoint</text>
</a>
</g>
</g>
<!-- Node1&#45;&gt;Node6 -->
<g id="edge5_Node000001_Node000006" class="edge">
<title>Node1&#45;&gt;Node6</title>
<g id="a_edge5_Node000001_Node000006"><a xlink:title=" ">
<path fill="none" stroke="#63b8ff" d="M137.11,-161.6C153.4,-163.52 170.83,-165.57 187.18,-167.49"/>
<polygon fill="#63b8ff" stroke="#63b8ff" points="186.46,-170.93 196.8,-168.63 187.28,-163.98 186.46,-170.93"/>
</a>
</g>
</g>
<!-- Node9 -->
<g id="Node000009" class="node">
<title>Node9</title>
<g id="a_Node000009"><a xlink:href="class_measurement_point.html#aa3a80d373c7609c7b178bf7353ffdd7a" target="_top" xlink:title="Get measurement point name.">
<polygon fill="white" stroke="#666666" points="329,-142.25 185.5,-142.25 185.5,-123 329,-123 329,-142.25"/>
<text xml:space="preserve" text-anchor="middle" x="257.25" y="-128.75" font-family="Helvetica,sans-Serif" font-size="10.00">MeasurementPoint::getName</text>
</a>
</g>
</g>
<!-- Node1&#45;&gt;Node9 -->
<g id="edge8_Node000001_Node000009" class="edge">
<title>Node1&#45;&gt;Node9</title>
<g id="a_edge8_Node000001_Node000009"><a xlink:title=" ">
<path fill="none" stroke="#63b8ff" d="M137.11,-146.01C149.1,-144.67 161.71,-143.25 174.05,-141.86"/>
<polygon fill="#63b8ff" stroke="#63b8ff" points="174.24,-145.36 183.79,-140.77 173.46,-138.41 174.24,-145.36"/>
</a>
</g>
</g>
<!-- Node10 -->
<g id="Node000010" class="node">
<title>Node10</title>
<g id="a_Node000010"><a xlink:href="class_logger_manager.html#a5c1373ccc47f4112b596fe6f84fbbc21" target="_top" xlink:title="Log informational message (static convenience method)">
<polygon fill="white" stroke="#666666" points="309.5,-105.25 205,-105.25 205,-86 309.5,-86 309.5,-105.25"/>
<text xml:space="preserve" text-anchor="middle" x="257.25" y="-91.75" font-family="Helvetica,sans-Serif" font-size="10.00">LoggerManager::info</text>
</a>
</g>
</g>
<!-- Node1&#45;&gt;Node10 -->
<g id="edge9_Node000001_Node000010" class="edge">
<title>Node1&#45;&gt;Node10</title>
<g id="a_edge9_Node000001_Node000010"><a xlink:title=" ">
<path fill="none" stroke="#63b8ff" d="M105.73,-137.95C125.32,-129.91 150.07,-120.41 172.75,-113.62 179.46,-111.62 186.54,-109.74 193.62,-108"/>
<polygon fill="#63b8ff" stroke="#63b8ff" points="194.29,-111.44 203.23,-105.76 192.69,-104.63 194.29,-111.44"/>
</a>
</g>
</g>
<!-- Node11 -->
<g id="Node000011" class="node">
<title>Node11</title>
<g id="a_Node000011"><a xlink:href="class_temperature_controller.html#ad3819418f9f301f3f7047ba686a11be0" target="_top" xlink:title="Unbind sensor from any measurement point it&#39;s bound to.">
<polygon fill="white" stroke="#666666" points="341.75,-67.88 172.75,-67.88 172.75,-37.38 341.75,-37.38 341.75,-67.88"/>
<text xml:space="preserve" text-anchor="start" x="180.75" y="-54.38" font-family="Helvetica,sans-Serif" font-size="10.00">TemperatureController</text>
<text xml:space="preserve" text-anchor="middle" x="257.25" y="-43.12" font-family="Helvetica,sans-Serif" font-size="10.00">::unbindSensorFromPointBySensor</text>
</a>
</g>
</g>
<!-- Node1&#45;&gt;Node11 -->
<g id="edge10_Node000001_Node000011" class="edge">
<title>Node1&#45;&gt;Node11</title>
<g id="a_edge10_Node000001_Node000011"><a xlink:title=" ">
<path fill="none" stroke="#63b8ff" d="M86.38,-137.88C105.88,-120.6 139.46,-93.12 172.75,-76.62 175.66,-75.18 178.68,-73.81 181.76,-72.51"/>
<polygon fill="#63b8ff" stroke="#63b8ff" points="182.96,-75.8 191.01,-68.91 180.42,-69.28 182.96,-75.8"/>
</a>
</g>
</g>
<!-- Node13 -->
<g id="Node000013" class="node">
<title>Node13</title>
<g id="a_Node000013"><a xlink:href="class_logger_manager.html#a0d52b0ff7bff22817e987ad753102854" target="_top" xlink:title="Log warning message (static convenience method)">
<polygon fill="white" stroke="#666666" points="318.5,-19.25 196,-19.25 196,0 318.5,0 318.5,-19.25"/>
<text xml:space="preserve" text-anchor="middle" x="257.25" y="-5.75" font-family="Helvetica,sans-Serif" font-size="10.00">LoggerManager::warning</text>
</a>
</g>
</g>
<!-- Node1&#45;&gt;Node13 -->
<g id="edge12_Node000001_Node000013" class="edge">
<title>Node1&#45;&gt;Node13</title>
<g id="a_edge12_Node000001_Node000013"><a xlink:title=" ">
<path fill="none" stroke="#63b8ff" d="M77.6,-138.15C92.68,-111.36 127.42,-56.53 172.75,-28.62 176.56,-26.28 180.62,-24.23 184.83,-22.42"/>
<polygon fill="#63b8ff" stroke="#63b8ff" points="185.96,-25.74 194.12,-18.97 183.52,-19.18 185.96,-25.74"/>
</a>
</g>
</g>
<!-- Node5 -->
<g id="Node000005" class="node">
<title>Node5</title>
<g id="a_Node000005"><a xlink:href="class_measurement_point.html#a7b74a18d86e0e545264a774aa2c31cad" target="_top" xlink:title="Get measurement point address.">
<polygon fill="white" stroke="#666666" points="531,-234.25 377.75,-234.25 377.75,-215 531,-215 531,-234.25"/>
<text xml:space="preserve" text-anchor="middle" x="454.38" y="-220.75" font-family="Helvetica,sans-Serif" font-size="10.00">MeasurementPoint::getAddress</text>
</a>
</g>
</g>
<!-- Node4&#45;&gt;Node5 -->
<g id="edge4_Node000004_Node000005" class="edge">
<title>Node4&#45;&gt;Node5</title>
<g id="a_edge4_Node000004_Node000005"><a xlink:title=" ">
<path fill="none" stroke="#63b8ff" d="M313.64,-224.62C329.99,-224.62 348.29,-224.62 366.12,-224.62"/>
<polygon fill="#63b8ff" stroke="#63b8ff" points="365.93,-228.13 375.93,-224.63 365.93,-221.13 365.93,-228.13"/>
</a>
</g>
</g>
<!-- Node7 -->
<g id="Node000007" class="node">
<title>Node7</title>
<g id="a_Node000007"><a xlink:href="class_temperature_controller.html#ad322a5bab8d5788a586206004248f673" target="_top" xlink:title="Check if address is for DS18B20 sensor.">
<polygon fill="white" stroke="#666666" points="510.38,-193.88 398.38,-193.88 398.38,-163.38 510.38,-163.38 510.38,-193.88"/>
<text xml:space="preserve" text-anchor="start" x="406.38" y="-180.38" font-family="Helvetica,sans-Serif" font-size="10.00">TemperatureController</text>
<text xml:space="preserve" text-anchor="middle" x="454.38" y="-169.12" font-family="Helvetica,sans-Serif" font-size="10.00">::isDS18B20Address</text>
</a>
</g>
</g>
<!-- Node6&#45;&gt;Node7 -->
<g id="edge6_Node000006_Node000007" class="edge">
<title>Node6&#45;&gt;Node7</title>
<g id="a_edge6_Node000006_Node000007"><a xlink:title=" ">
<path fill="none" stroke="#63b8ff" d="M316.27,-176.52C338.37,-176.86 363.73,-177.25 386.59,-177.6"/>
<polygon fill="#63b8ff" stroke="#63b8ff" points="386.36,-181.09 396.41,-177.75 386.47,-174.1 386.36,-181.09"/>
</a>
</g>
</g>
<!-- Node8 -->
<g id="Node000008" class="node">
<title>Node8</title>
<g id="a_Node000008"><a xlink:href="class_temperature_controller.html#a13125ddcf29cb56d27403818543618af" target="_top" xlink:title="Check if address is for PT1000 sensor.">
<polygon fill="white" stroke="#666666" points="510.38,-144.88 398.38,-144.88 398.38,-114.38 510.38,-114.38 510.38,-144.88"/>
<text xml:space="preserve" text-anchor="start" x="406.38" y="-131.38" font-family="Helvetica,sans-Serif" font-size="10.00">TemperatureController</text>
<text xml:space="preserve" text-anchor="middle" x="454.38" y="-120.12" font-family="Helvetica,sans-Serif" font-size="10.00">::isPT1000Address</text>
</a>
</g>
</g>
<!-- Node6&#45;&gt;Node8 -->
<g id="edge7_Node000006_Node000008" class="edge">
<title>Node6&#45;&gt;Node8</title>
<g id="a_edge7_Node000006_Node000008"><a xlink:title=" ">
<path fill="none" stroke="#63b8ff" d="M316.27,-161.95C338.47,-156.71 363.96,-150.7 386.9,-145.3"/>
<polygon fill="#63b8ff" stroke="#63b8ff" points="387.52,-148.75 396.45,-143.04 385.92,-141.93 387.52,-148.75"/>
</a>
</g>
</g>
<!-- Node12 -->
<g id="Node000012" class="node">
<title>Node12</title>
<g id="a_Node000012"><a xlink:href="class_sensor.html#a60ec96ed03660b42681c1bcc99007033" target="_top" xlink:title="Get sensor name.">
<polygon fill="white" stroke="#666666" points="500.62,-62.25 408.12,-62.25 408.12,-43 500.62,-43 500.62,-62.25"/>
<text xml:space="preserve" text-anchor="middle" x="454.38" y="-48.75" font-family="Helvetica,sans-Serif" font-size="10.00">Sensor::getName</text>
</a>
</g>
</g>
<!-- Node11&#45;&gt;Node12 -->
<g id="edge11_Node000011_Node000012" class="edge">
<title>Node11&#45;&gt;Node12</title>
<g id="a_edge11_Node000011_Node000012"><a xlink:title=" ">
<path fill="none" stroke="#63b8ff" d="M342.13,-52.62C360.43,-52.62 379.38,-52.62 396.34,-52.62"/>
<polygon fill="#63b8ff" stroke="#63b8ff" points="396.22,-56.13 406.22,-52.63 396.22,-49.13 396.22,-56.13"/>
</a>
</g>
</g>
</g>
</svg>
