<?xml version="1.0" encoding="UTF-8" standalone="no"?>
<!DOCTYPE svg PUBLIC "-//W3C//DTD SVG 1.1//EN"
 "http://www.w3.org/Graphics/SVG/1.1/DTD/svg11.dtd">
<!-- Generated by graphviz version 13.1.0 (20250701.0955)
 -->
<!-- Title: IndicatorInterface::setAllOutputs Pages: 1 -->
<svg width="237pt" height="88pt"
 viewBox="0.00 0.00 237.00 88.00" xmlns="http://www.w3.org/2000/svg" xmlns:xlink="http://www.w3.org/1999/xlink">
<g id="graph0" class="graph" transform="scale(1 1) rotate(0) translate(4 83.5)">
<title>IndicatorInterface::setAllOutputs</title>
<!-- Node1 -->
<g id="Node000001" class="node">
<title>Node1</title>
<g id="a_Node000001"><a xlink:title="Set all output ports to specified state.">
<polygon fill="#999999" stroke="#666666" points="229.25,-54.5 137.5,-54.5 137.5,-24 229.25,-24 229.25,-54.5"/>
<text xml:space="preserve" text-anchor="start" x="145.5" y="-41" font-family="Helvetica,sans-Serif" font-size="10.00">IndicatorInterface</text>
<text xml:space="preserve" text-anchor="middle" x="183.38" y="-29.75" font-family="Helvetica,sans-Serif" font-size="10.00">::setAllOutputs</text>
</a>
</g>
</g>
<!-- Node2 -->
<g id="Node000002" class="node">
<title>Node2</title>
<g id="a_Node000002"><a xlink:href="$class_indicator_interface.html#ada8f967d6d074b194ab4876b10869357" xlink:title="Set all output ports to high state.">
<polygon fill="white" stroke="#666666" points="101.5,-79.5 0,-79.5 0,-49 101.5,-49 101.5,-79.5"/>
<text xml:space="preserve" text-anchor="start" x="8" y="-66" font-family="Helvetica,sans-Serif" font-size="10.00">IndicatorInterface</text>
<text xml:space="preserve" text-anchor="middle" x="50.75" y="-54.75" font-family="Helvetica,sans-Serif" font-size="10.00">::setAllOutputsHigh</text>
</a>
</g>
</g>
<!-- Node1&#45;&gt;Node2 -->
<g id="edge1_Node000001_Node000002" class="edge">
<title>Node1&#45;&gt;Node2</title>
<g id="a_edge1_Node000001_Node000002"><a xlink:title=" ">
<path fill="none" stroke="#63b8ff" d="M125.93,-50.05C117.94,-51.58 109.76,-53.15 101.9,-54.65"/>
<polygon fill="#63b8ff" stroke="#63b8ff" points="126.4,-53.53 135.57,-48.21 125.09,-46.65 126.4,-53.53"/>
</a>
</g>
</g>
<!-- Node3 -->
<g id="Node000003" class="node">
<title>Node3</title>
<g id="a_Node000003"><a xlink:href="$class_indicator_interface.html#a7da1cedbcb4ab157e483afcd02f35066" xlink:title="Set all output ports to low state.">
<polygon fill="white" stroke="#666666" points="100.38,-30.5 1.12,-30.5 1.12,0 100.38,0 100.38,-30.5"/>
<text xml:space="preserve" text-anchor="start" x="9.12" y="-17" font-family="Helvetica,sans-Serif" font-size="10.00">IndicatorInterface</text>
<text xml:space="preserve" text-anchor="middle" x="50.75" y="-5.75" font-family="Helvetica,sans-Serif" font-size="10.00">::setAllOutputsLow</text>
</a>
</g>
</g>
<!-- Node1&#45;&gt;Node3 -->
<g id="edge2_Node000001_Node000003" class="edge">
<title>Node1&#45;&gt;Node3</title>
<g id="a_edge2_Node000001_Node000003"><a xlink:title=" ">
<path fill="none" stroke="#63b8ff" d="M125.77,-28.85C117.37,-27.31 108.78,-25.73 100.55,-24.22"/>
<polygon fill="#63b8ff" stroke="#63b8ff" points="125.1,-32.29 135.57,-30.65 126.36,-25.4 125.1,-32.29"/>
</a>
</g>
</g>
</g>
</svg>
