<?xml version="1.0" encoding="UTF-8" standalone="no"?>
<!DOCTYPE svg PUBLIC "-//W3C//DTD SVG 1.1//EN"
 "http://www.w3.org/Graphics/SVG/1.1/DTD/svg11.dtd">
<!-- Generated by graphviz version 13.1.0 (20250701.0955)
 -->
<!-- Title: MeasurementPoint::getLowAlarmThreshold Pages: 1 -->
<svg width="639pt" height="346pt"
 viewBox="0.00 0.00 639.00 346.00" xmlns="http://www.w3.org/2000/svg" xmlns:xlink="http://www.w3.org/1999/xlink">
<g id="graph0" class="graph" transform="scale(1 1) rotate(0) translate(4 341.5)">
<title>MeasurementPoint::getLowAlarmThreshold</title>
<!-- Node1 -->
<g id="Node000001" class="node">
<title>Node1</title>
<g id="a_Node000001"><a xlink:title="Get low alarm threshold.">
<polygon fill="#999999" stroke="#666666" points="631,-160.5 495.75,-160.5 495.75,-130 631,-130 631,-160.5"/>
<text xml:space="preserve" text-anchor="start" x="503.75" y="-147" font-family="Helvetica,sans-Serif" font-size="10.00">MeasurementPoint::getLow</text>
<text xml:space="preserve" text-anchor="middle" x="563.38" y="-135.75" font-family="Helvetica,sans-Serif" font-size="10.00">AlarmThreshold</text>
</a>
</g>
</g>
<!-- Node2 -->
<g id="Node000002" class="node">
<title>Node2</title>
<g id="a_Node000002"><a xlink:href="class_temperature_controller.html#a27da8ccc3effea555f440ce3e6f89b08" target="_top" xlink:title=" ">
<polygon fill="white" stroke="#666666" points="451.88,-301.5 330.88,-301.5 330.88,-271 451.88,-271 451.88,-301.5"/>
<text xml:space="preserve" text-anchor="start" x="338.88" y="-288" font-family="Helvetica,sans-Serif" font-size="10.00">TemperatureController</text>
<text xml:space="preserve" text-anchor="middle" x="391.38" y="-276.75" font-family="Helvetica,sans-Serif" font-size="10.00">::_checkPointForAlarms</text>
</a>
</g>
</g>
<!-- Node1&#45;&gt;Node2 -->
<g id="edge1_Node000001_Node000002" class="edge">
<title>Node1&#45;&gt;Node2</title>
<g id="a_edge1_Node000001_Node000002"><a xlink:title=" ">
<path fill="none" stroke="#63b8ff" d="M545.95,-170.17C527.68,-196.14 495.94,-236.45 459.75,-261.25 454.6,-264.78 448.9,-267.88 443.05,-270.59"/>
<polygon fill="#63b8ff" stroke="#63b8ff" points="548.63,-172.45 551.41,-162.22 542.86,-168.48 548.63,-172.45"/>
</a>
</g>
</g>
<!-- Node3 -->
<g id="Node000003" class="node">
<title>Node3</title>
<g id="a_Node000003"><a xlink:href="class_c_s_v_config_manager.html#a2c2673398051c26184c9197aa751a6b3" target="_top" xlink:title="Export single measurement point to CSV format.">
<polygon fill="white" stroke="#666666" points="445.88,-252.5 336.88,-252.5 336.88,-222 445.88,-222 445.88,-252.5"/>
<text xml:space="preserve" text-anchor="start" x="344.88" y="-239" font-family="Helvetica,sans-Serif" font-size="10.00">CSVConfigManager::</text>
<text xml:space="preserve" text-anchor="middle" x="391.38" y="-227.75" font-family="Helvetica,sans-Serif" font-size="10.00">_exportPointToCSV</text>
</a>
</g>
</g>
<!-- Node1&#45;&gt;Node3 -->
<g id="edge2_Node000001_Node000003" class="edge">
<title>Node1&#45;&gt;Node3</title>
<g id="a_edge2_Node000001_Node000003"><a xlink:title=" ">
<path fill="none" stroke="#63b8ff" d="M532.42,-167.36C512.51,-181.42 485.39,-199.33 459.75,-212.25 453.18,-215.56 446.05,-218.68 438.99,-221.51"/>
<polygon fill="#63b8ff" stroke="#63b8ff" points="534.26,-170.36 540.36,-161.69 530.18,-164.66 534.26,-170.36"/>
</a>
</g>
</g>
<!-- Node5 -->
<g id="Node000005" class="node">
<title>Node5</title>
<g id="a_Node000005"><a xlink:href="class_config_manager.html#ae605c999fabc6344511f455618655326" target="_top" xlink:title="Setup alarms API endpoints.">
<polygon fill="white" stroke="#666666" points="284,-153.88 150.25,-153.88 150.25,-134.62 284,-134.62 284,-153.88"/>
<text xml:space="preserve" text-anchor="middle" x="217.12" y="-140.38" font-family="Helvetica,sans-Serif" font-size="10.00">ConfigManager::alarmsAPI</text>
</a>
</g>
</g>
<!-- Node1&#45;&gt;Node5 -->
<g id="edge4_Node000001_Node000005" class="edge">
<title>Node1&#45;&gt;Node5</title>
<g id="a_edge4_Node000001_Node000005"><a xlink:title=" ">
<path fill="none" stroke="#63b8ff" d="M484.23,-145.02C423.95,-144.85 341.51,-144.61 284.43,-144.44"/>
<polygon fill="#63b8ff" stroke="#63b8ff" points="484.07,-148.52 494.08,-145.05 484.09,-141.52 484.07,-148.52"/>
</a>
</g>
</g>
<!-- Node7 -->
<g id="Node000007" class="node">
<title>Node7</title>
<g id="a_Node000007"><a xlink:href="class_register_map.html#a1f102e7d0dd51d4750c916fb6e32c37a" target="_top" xlink:title=" ">
<polygon fill="white" stroke="#666666" points="456,-79.5 326.75,-79.5 326.75,-49 456,-49 456,-79.5"/>
<text xml:space="preserve" text-anchor="start" x="334.75" y="-66" font-family="Helvetica,sans-Serif" font-size="10.00">RegisterMap::applyConfig</text>
<text xml:space="preserve" text-anchor="middle" x="391.38" y="-54.75" font-family="Helvetica,sans-Serif" font-size="10.00">FromMeasurementPoint</text>
</a>
</g>
</g>
<!-- Node1&#45;&gt;Node7 -->
<g id="edge6_Node000001_Node000007" class="edge">
<title>Node1&#45;&gt;Node7</title>
<g id="a_edge6_Node000001_Node000007"><a xlink:title=" ">
<path fill="none" stroke="#63b8ff" d="M522.5,-124.31C503.61,-114.59 480.66,-103.04 459.75,-93.25 450.18,-88.77 439.73,-84.15 429.98,-79.94"/>
<polygon fill="#63b8ff" stroke="#63b8ff" points="520.7,-127.32 531.19,-128.81 523.91,-121.11 520.7,-127.32"/>
</a>
</g>
</g>
<!-- Node8 -->
<g id="Node000008" class="node">
<title>Node8</title>
<g id="a_Node000008"><a xlink:href="class_temperature_controller.html#add39ba7dad38449bbf1787a5c9c51ef9" target="_top" xlink:title=" ">
<polygon fill="white" stroke="#666666" points="447.38,-30.5 335.38,-30.5 335.38,0 447.38,0 447.38,-30.5"/>
<text xml:space="preserve" text-anchor="start" x="343.38" y="-17" font-family="Helvetica,sans-Serif" font-size="10.00">TemperatureController</text>
<text xml:space="preserve" text-anchor="middle" x="391.38" y="-5.75" font-family="Helvetica,sans-Serif" font-size="10.00">::getPointsJson</text>
</a>
</g>
</g>
<!-- Node1&#45;&gt;Node8 -->
<g id="edge7_Node000001_Node000008" class="edge">
<title>Node1&#45;&gt;Node8</title>
<g id="a_edge7_Node000001_Node000008"><a xlink:title=" ">
<path fill="none" stroke="#63b8ff" d="M543.69,-120.6C524.78,-97.13 493.57,-62.22 459.75,-40.25 454.31,-36.72 448.3,-33.59 442.18,-30.84"/>
<polygon fill="#63b8ff" stroke="#63b8ff" points="540.9,-122.72 549.85,-128.4 546.4,-118.38 540.9,-122.72"/>
</a>
</g>
</g>
<!-- Node9 -->
<g id="Node000009" class="node">
<title>Node9</title>
<g id="a_Node000009"><a xlink:href="class_config_manager.html#a471a844085c27f3a8a8f9394d9c14677" target="_top" xlink:title="Setup measurement points API endpoints.">
<polygon fill="white" stroke="#666666" points="282.5,-116.88 151.75,-116.88 151.75,-97.62 282.5,-97.62 282.5,-116.88"/>
<text xml:space="preserve" text-anchor="middle" x="217.12" y="-103.38" font-family="Helvetica,sans-Serif" font-size="10.00">ConfigManager::pointsAPI</text>
</a>
</g>
</g>
<!-- Node1&#45;&gt;Node9 -->
<g id="edge8_Node000001_Node000009" class="edge">
<title>Node1&#45;&gt;Node9</title>
<g id="a_edge8_Node000001_Node000009"><a xlink:title=" ">
<path fill="none" stroke="#63b8ff" d="M484.51,-136.66C423.7,-129.94 340.19,-120.72 282.97,-114.41"/>
<polygon fill="#63b8ff" stroke="#63b8ff" points="483.76,-140.09 494.09,-137.71 484.53,-133.14 483.76,-140.09"/>
</a>
</g>
</g>
<!-- Node10 -->
<g id="Node000010" class="node">
<title>Node10</title>
<g id="a_Node000010"><a xlink:href="class_config_manager.html#a55b79da91c57039c483ddf5fceabbd64" target="_top" xlink:title="Save measurement points configuration to file.">
<polygon fill="white" stroke="#666666" points="459.75,-203.5 323,-203.5 323,-173 459.75,-173 459.75,-203.5"/>
<text xml:space="preserve" text-anchor="start" x="331" y="-190" font-family="Helvetica,sans-Serif" font-size="10.00">ConfigManager::savePoints</text>
<text xml:space="preserve" text-anchor="middle" x="391.38" y="-178.75" font-family="Helvetica,sans-Serif" font-size="10.00">Config</text>
</a>
</g>
</g>
<!-- Node1&#45;&gt;Node10 -->
<g id="edge10_Node000001_Node000010" class="edge">
<title>Node1&#45;&gt;Node10</title>
<g id="a_edge10_Node000001_Node000010"><a xlink:title=" ">
<path fill="none" stroke="#63b8ff" d="M489.47,-163.69C477.81,-166.64 465.84,-169.67 454.47,-172.54"/>
<polygon fill="#63b8ff" stroke="#63b8ff" points="490.22,-167.11 499.05,-161.27 488.5,-160.33 490.22,-167.11"/>
</a>
</g>
</g>
<!-- Node4 -->
<g id="Node000004" class="node">
<title>Node4</title>
<g id="a_Node000004"><a xlink:href="class_c_s_v_config_manager.html#a1c6cbc4c8a132762bf16a8ce9f7d0bfc" target="_top" xlink:title="Export measurement points with alarm configuration to CSV.">
<polygon fill="white" stroke="#666666" points="285.12,-337.5 149.12,-337.5 149.12,-307 285.12,-307 285.12,-337.5"/>
<text xml:space="preserve" text-anchor="start" x="157.12" y="-324" font-family="Helvetica,sans-Serif" font-size="10.00">CSVConfigManager::export</text>
<text xml:space="preserve" text-anchor="middle" x="217.12" y="-312.75" font-family="Helvetica,sans-Serif" font-size="10.00">PointsWithAlarmsToCSV</text>
</a>
</g>
</g>
<!-- Node3&#45;&gt;Node4 -->
<g id="edge3_Node000003_Node000004" class="edge">
<title>Node3&#45;&gt;Node4</title>
<g id="a_edge3_Node000003_Node000004"><a xlink:title=" ">
<path fill="none" stroke="#63b8ff" d="M330.48,-257.92C327.91,-259.29 325.4,-260.73 323,-262.25 304.13,-274.17 305.91,-285.4 287,-297.25 281.39,-300.76 275.22,-303.88 268.95,-306.62"/>
<polygon fill="#63b8ff" stroke="#63b8ff" points="331.83,-261.15 339.3,-253.64 328.77,-254.85 331.83,-261.15"/>
</a>
</g>
</g>
<!-- Node6 -->
<g id="Node000006" class="node">
<title>Node6</title>
<g id="a_Node000006"><a xlink:href="class_config_manager.html#a0497343220fc493f5cf9574922508908" target="_top" xlink:title="Initialize the configuration system.">
<polygon fill="white" stroke="#666666" points="111.25,-196.88 0,-196.88 0,-177.62 111.25,-177.62 111.25,-196.88"/>
<text xml:space="preserve" text-anchor="middle" x="55.62" y="-183.38" font-family="Helvetica,sans-Serif" font-size="10.00">ConfigManager::begin</text>
</a>
</g>
</g>
<!-- Node5&#45;&gt;Node6 -->
<g id="edge5_Node000005_Node000006" class="edge">
<title>Node5&#45;&gt;Node6</title>
<g id="a_edge5_Node000005_Node000006"><a xlink:title=" ">
<path fill="none" stroke="#63b8ff" d="M167.85,-157.26C144.18,-163.65 116.09,-171.22 94.06,-177.16"/>
<polygon fill="#63b8ff" stroke="#63b8ff" points="168.52,-160.71 177.27,-154.73 166.7,-153.95 168.52,-160.71"/>
</a>
</g>
</g>
<!-- Node9&#45;&gt;Node6 -->
<g id="edge9_Node000009_Node000006" class="edge">
<title>Node9&#45;&gt;Node6</title>
<g id="a_edge9_Node000009_Node000006"><a xlink:title=" ">
<path fill="none" stroke="#63b8ff" d="M158.09,-120.85C154.37,-122.2 150.73,-123.66 147.25,-125.25 116.55,-139.25 84.98,-163.53 68.42,-177.18"/>
<polygon fill="#63b8ff" stroke="#63b8ff" points="158.86,-124.28 167.26,-117.81 156.66,-117.63 158.86,-124.28"/>
</a>
</g>
</g>
<!-- Node10&#45;&gt;Node5 -->
<g id="edge11_Node000010_Node000005" class="edge">
<title>Node10&#45;&gt;Node5</title>
<g id="a_edge11_Node000010_Node000005"><a xlink:title=" ">
<path fill="none" stroke="#63b8ff" d="M318.13,-169.79C297.41,-164.5 275.58,-158.93 257.63,-154.34"/>
<polygon fill="#63b8ff" stroke="#63b8ff" points="317.14,-173.15 327.69,-172.24 318.87,-166.37 317.14,-173.15"/>
</a>
</g>
</g>
<!-- Node10&#45;&gt;Node9 -->
<g id="edge14_Node000010_Node000009" class="edge">
<title>Node10&#45;&gt;Node9</title>
<g id="a_edge14_Node000010_Node000009"><a xlink:title=" ">
<path fill="none" stroke="#63b8ff" d="M359.35,-166.04C339.46,-152.65 312.65,-136.14 287,-125.25 279.83,-122.21 272.02,-119.57 264.32,-117.33"/>
<polygon fill="#63b8ff" stroke="#63b8ff" points="357.33,-168.89 367.55,-171.66 361.28,-163.12 357.33,-168.89"/>
</a>
</g>
</g>
<!-- Node11 -->
<g id="Node000011" class="node">
<title>Node11</title>
<g id="a_Node000011"><a xlink:href="class_config_manager.html#a9b7af07b85bf9cc3ac05603db6e89fd2" target="_top" xlink:title="Setup CSV import/export API endpoints.">
<polygon fill="white" stroke="#666666" points="282.88,-288.5 151.38,-288.5 151.38,-258 282.88,-258 282.88,-288.5"/>
<text xml:space="preserve" text-anchor="start" x="159.38" y="-275" font-family="Helvetica,sans-Serif" font-size="10.00">ConfigManager::csvImport</text>
<text xml:space="preserve" text-anchor="middle" x="217.12" y="-263.75" font-family="Helvetica,sans-Serif" font-size="10.00">ExportAPI</text>
</a>
</g>
</g>
<!-- Node10&#45;&gt;Node11 -->
<g id="edge12_Node000010_Node000011" class="edge">
<title>Node10&#45;&gt;Node11</title>
<g id="a_edge12_Node000010_Node000011"><a xlink:title=" ">
<path fill="none" stroke="#63b8ff" d="M330.45,-208.88C327.89,-210.26 325.39,-211.72 323,-213.25 303.95,-225.47 306.17,-237.22 287,-249.25 282.07,-252.35 276.68,-255.1 271.17,-257.55"/>
<polygon fill="#63b8ff" stroke="#63b8ff" points="331.81,-212.11 339.25,-204.57 328.73,-205.82 331.81,-212.11"/>
</a>
</g>
</g>
<!-- Node12 -->
<g id="Node000012" class="node">
<title>Node12</title>
<g id="a_Node000012"><a xlink:href="class_config_manager.html#a45b1ce1f09401af0b6f700cf4388b233" target="_top" xlink:title="Setup sensor&#45;related API endpoints.">
<polygon fill="white" stroke="#666666" points="284,-239.88 150.25,-239.88 150.25,-220.62 284,-220.62 284,-239.88"/>
<text xml:space="preserve" text-anchor="middle" x="217.12" y="-226.38" font-family="Helvetica,sans-Serif" font-size="10.00">ConfigManager::sensorAPI</text>
</a>
</g>
</g>
<!-- Node10&#45;&gt;Node12 -->
<g id="edge15_Node000010_Node000012" class="edge">
<title>Node10&#45;&gt;Node12</title>
<g id="a_edge15_Node000010_Node000012"><a xlink:title=" ">
<path fill="none" stroke="#63b8ff" d="M315.13,-206.6C296.06,-211.25 276.28,-216.07 259.59,-220.14"/>
<polygon fill="#63b8ff" stroke="#63b8ff" points="315.88,-210.02 324.76,-204.25 314.22,-203.22 315.88,-210.02"/>
</a>
</g>
</g>
<!-- Node13 -->
<g id="Node000013" class="node">
<title>Node13</title>
<g id="a_Node000013"><a xlink:href="class_config_manager.html#a0daf50bbd376beb24a5400a86e893338" target="_top" xlink:title="Update a measurement point in configuration.">
<polygon fill="white" stroke="#666666" points="287,-202.5 147.25,-202.5 147.25,-172 287,-172 287,-202.5"/>
<text xml:space="preserve" text-anchor="start" x="155.25" y="-189" font-family="Helvetica,sans-Serif" font-size="10.00">ConfigManager::updatePoint</text>
<text xml:space="preserve" text-anchor="middle" x="217.12" y="-177.75" font-family="Helvetica,sans-Serif" font-size="10.00">InConfig</text>
</a>
</g>
</g>
<!-- Node10&#45;&gt;Node13 -->
<g id="edge17_Node000010_Node000013" class="edge">
<title>Node10&#45;&gt;Node13</title>
<g id="a_edge17_Node000010_Node000013"><a xlink:title=" ">
<path fill="none" stroke="#63b8ff" d="M311.54,-187.79C303.51,-187.75 295.41,-187.7 287.5,-187.65"/>
<polygon fill="#63b8ff" stroke="#63b8ff" points="311.26,-191.29 321.28,-187.85 311.3,-184.29 311.26,-191.29"/>
</a>
</g>
</g>
<!-- Node11&#45;&gt;Node6 -->
<g id="edge13_Node000011_Node000006" class="edge">
<title>Node11&#45;&gt;Node6</title>
<g id="a_edge13_Node000011_Node000006"><a xlink:title=" ">
<path fill="none" stroke="#63b8ff" d="M155.64,-253.22C152.78,-251.95 149.96,-250.62 147.25,-249.25 117.3,-234.13 85.7,-210.49 68.87,-197.2"/>
<polygon fill="#63b8ff" stroke="#63b8ff" points="154.21,-256.42 164.79,-257.03 156.9,-249.96 154.21,-256.42"/>
</a>
</g>
</g>
<!-- Node12&#45;&gt;Node6 -->
<g id="edge16_Node000012_Node000006" class="edge">
<title>Node12&#45;&gt;Node6</title>
<g id="a_edge16_Node000012_Node000006"><a xlink:title=" ">
<path fill="none" stroke="#63b8ff" d="M167.85,-217.24C144.18,-210.85 116.09,-203.28 94.06,-197.34"/>
<polygon fill="#63b8ff" stroke="#63b8ff" points="166.7,-220.55 177.27,-219.77 168.52,-213.79 166.7,-220.55"/>
</a>
</g>
</g>
</g>
</svg>
