<?xml version="1.0" encoding="UTF-8" standalone="no"?>
<!DOCTYPE svg PUBLIC "-//W3C//DTD SVG 1.1//EN"
 "http://www.w3.org/Graphics/SVG/1.1/DTD/svg11.dtd">
<!-- Generated by graphviz version 13.1.0 (20250701.0955)
 -->
<!-- Title: MQTTManager::testPublish Pages: 1 -->
<svg width="567pt" height="114pt"
 viewBox="0.00 0.00 567.00 114.00" xmlns="http://www.w3.org/2000/svg" xmlns:xlink="http://www.w3.org/1999/xlink">
<g id="graph0" class="graph" transform="scale(1 1) rotate(0) translate(4 109.88)">
<title>MQTTManager::testPublish</title>
<!-- Node1 -->
<g id="Node000001" class="node">
<title>Node1</title>
<g id="a_Node000001"><a xlink:title="Test publish to configured test topic.">
<polygon fill="#999999" stroke="#666666" points="559,-57.25 423,-57.25 423,-38 559,-38 559,-57.25"/>
<text xml:space="preserve" text-anchor="middle" x="491" y="-43.75" font-family="Helvetica,sans-Serif" font-size="10.00">MQTTManager::testPublish</text>
</a>
</g>
</g>
<!-- Node2 -->
<g id="Node000002" class="node">
<title>Node2</title>
<g id="a_Node000002"><a xlink:href="class_m_q_t_t_manager.html#ab005f48ef3d1e54464b8f2205346179f" target="_top" xlink:title="Check non&#45;blocking connection progress.">
<polygon fill="white" stroke="#666666" points="387,-105.88 224,-105.88 224,-75.38 387,-75.38 387,-105.88"/>
<text xml:space="preserve" text-anchor="start" x="232" y="-92.38" font-family="Helvetica,sans-Serif" font-size="10.00">MQTTManager::checkConnection</text>
<text xml:space="preserve" text-anchor="middle" x="305.5" y="-81.12" font-family="Helvetica,sans-Serif" font-size="10.00">Progress</text>
</a>
</g>
</g>
<!-- Node1&#45;&gt;Node2 -->
<g id="edge1_Node000001_Node000002" class="edge">
<title>Node1&#45;&gt;Node2</title>
<g id="a_edge1_Node000001_Node000002"><a xlink:title=" ">
<path fill="none" stroke="#63b8ff" d="M435.85,-60.31C416.36,-64.88 394.14,-70.09 373.67,-74.88"/>
<polygon fill="#63b8ff" stroke="#63b8ff" points="436.57,-63.74 445.5,-58.05 434.97,-56.93 436.57,-63.74"/>
</a>
</g>
</g>
<!-- Node3 -->
<g id="Node000003" class="node">
<title>Node3</title>
<g id="a_Node000003"><a xlink:href="class_m_q_t_t_manager.html#a9266e647933501851b411b6d2a9a1f95" target="_top" xlink:title="Main loop function to handle MQTT operations.">
<polygon fill="white" stroke="#666666" points="181.62,-78.25 76.38,-78.25 76.38,-59 181.62,-59 181.62,-78.25"/>
<text xml:space="preserve" text-anchor="middle" x="129" y="-64.75" font-family="Helvetica,sans-Serif" font-size="10.00">MQTTManager::loop</text>
</a>
</g>
</g>
<!-- Node1&#45;&gt;Node3 -->
<g id="edge4_Node000001_Node000003" class="edge">
<title>Node1&#45;&gt;Node3</title>
<g id="a_edge4_Node000001_Node000003"><a xlink:title=" ">
<path fill="none" stroke="#63b8ff" d="M411.38,-52.21C341.8,-56.27 242.23,-62.08 182.08,-65.59"/>
<polygon fill="#63b8ff" stroke="#63b8ff" points="411.42,-55.71 421.2,-51.64 411.01,-48.73 411.42,-55.71"/>
</a>
</g>
</g>
<!-- Node5 -->
<g id="Node000005" class="node">
<title>Node5</title>
<g id="a_Node000005"><a xlink:href="class_m_q_t_t_manager.html#aba0fa39910d767f0623291608e83ae81" target="_top" xlink:title="Publish a message to the hardcoded publish topic.">
<polygon fill="white" stroke="#666666" points="364.5,-19.25 246.5,-19.25 246.5,0 364.5,0 364.5,-19.25"/>
<text xml:space="preserve" text-anchor="middle" x="305.5" y="-5.75" font-family="Helvetica,sans-Serif" font-size="10.00">MQTTManager::publish</text>
</a>
</g>
</g>
<!-- Node1&#45;&gt;Node5 -->
<g id="edge5_Node000001_Node000005" class="edge">
<title>Node1&#45;&gt;Node5</title>
<g id="a_edge5_Node000001_Node000005"><a xlink:title=" ">
<path fill="none" stroke="#63b8ff" d="M430.06,-35.21C405.77,-30.18 378.1,-24.45 355.1,-19.69"/>
<polygon fill="#63b8ff" stroke="#63b8ff" points="429.32,-38.63 439.83,-37.23 430.74,-31.78 429.32,-38.63"/>
</a>
</g>
</g>
<!-- Node2&#45;&gt;Node3 -->
<g id="edge2_Node000002_Node000003" class="edge">
<title>Node2&#45;&gt;Node3</title>
<g id="a_edge2_Node000002_Node000003"><a xlink:title=" ">
<path fill="none" stroke="#63b8ff" d="M212.25,-78.99C201.76,-77.67 191.38,-76.36 181.69,-75.14"/>
<polygon fill="#63b8ff" stroke="#63b8ff" points="211.77,-82.46 222.13,-80.24 212.65,-75.52 211.77,-82.46"/>
</a>
</g>
</g>
<!-- Node4 -->
<g id="Node000004" class="node">
<title>Node4</title>
<g id="a_Node000004"><a xlink:href="main_8cpp.html#afe461d27b9c48d5921c00d521181f12f" target="_top" xlink:title="Main system loop.">
<polygon fill="white" stroke="#666666" points="34,-78.25 0,-78.25 0,-59 34,-59 34,-78.25"/>
<text xml:space="preserve" text-anchor="middle" x="17" y="-64.75" font-family="Helvetica,sans-Serif" font-size="10.00">loop</text>
</a>
</g>
</g>
<!-- Node3&#45;&gt;Node4 -->
<g id="edge3_Node000003_Node000004" class="edge">
<title>Node3&#45;&gt;Node4</title>
<g id="a_edge3_Node000003_Node000004"><a xlink:title=" ">
<path fill="none" stroke="#63b8ff" d="M64.59,-68.62C53.36,-68.62 42.62,-68.62 34.28,-68.62"/>
<polygon fill="#63b8ff" stroke="#63b8ff" points="64.39,-72.13 74.39,-68.63 64.39,-65.13 64.39,-72.13"/>
</a>
</g>
</g>
<!-- Node6 -->
<g id="Node000006" class="node">
<title>Node6</title>
<g id="a_Node000006"><a xlink:href="class_m_q_t_t_manager.html#ae68e09972e3ed17d457e1c05117d613b" target="_top" xlink:title="Publish a message to the hardcoded publish topic.">
<polygon fill="white" stroke="#666666" points="188,-19.25 70,-19.25 70,0 188,0 188,-19.25"/>
<text xml:space="preserve" text-anchor="middle" x="129" y="-5.75" font-family="Helvetica,sans-Serif" font-size="10.00">MQTTManager::publish</text>
</a>
</g>
</g>
<!-- Node5&#45;&gt;Node6 -->
<g id="edge6_Node000005_Node000006" class="edge">
<title>Node5&#45;&gt;Node6</title>
<g id="a_edge6_Node000005_Node000006"><a xlink:title=" ">
<path fill="none" stroke="#63b8ff" d="M235.27,-9.62C219.77,-9.62 203.47,-9.62 188.45,-9.62"/>
<polygon fill="#63b8ff" stroke="#63b8ff" points="234.88,-13.13 244.88,-9.63 234.88,-6.13 234.88,-13.13"/>
</a>
</g>
</g>
</g>
</svg>
