<?xml version="1.0" encoding="UTF-8" standalone="no"?>
<!DOCTYPE svg PUBLIC "-//W3C//DTD SVG 1.1//EN"
 "http://www.w3.org/Graphics/SVG/1.1/DTD/svg11.dtd">
<!-- Generated by graphviz version 13.1.0 (20250701.0955)
 -->
<!-- Title: Alarm::setEnabled Pages: 1 -->
<svg width="424pt" height="137pt"
 viewBox="0.00 0.00 424.00 137.00" xmlns="http://www.w3.org/2000/svg" xmlns:xlink="http://www.w3.org/1999/xlink">
<g id="graph0" class="graph" transform="scale(1 1) rotate(0) translate(4 132.5)">
<title>Alarm::setEnabled</title>
<!-- Node1 -->
<g id="Node000001" class="node">
<title>Node1</title>
<g id="a_Node000001"><a xlink:title="Enable or disable the alarm.">
<polygon fill="#999999" stroke="#666666" points="416.25,-73.88 320,-73.88 320,-54.62 416.25,-54.62 416.25,-73.88"/>
<text xml:space="preserve" text-anchor="middle" x="368.12" y="-60.38" font-family="Helvetica,sans-Serif" font-size="10.00">Alarm::setEnabled</text>
</a>
</g>
</g>
<!-- Node2 -->
<g id="Node000002" class="node">
<title>Node2</title>
<g id="a_Node000002"><a xlink:href="class_c_s_v_config_manager.html#a7ecf23e1c03fa194bcf3afe52408d378" target="_top" xlink:title="Parse alarm configuration from CSV fields.">
<polygon fill="white" stroke="#666666" points="272.75,-128.5 158.5,-128.5 158.5,-98 272.75,-98 272.75,-128.5"/>
<text xml:space="preserve" text-anchor="start" x="166.5" y="-115" font-family="Helvetica,sans-Serif" font-size="10.00">CSVConfigManager::</text>
<text xml:space="preserve" text-anchor="middle" x="215.62" y="-103.75" font-family="Helvetica,sans-Serif" font-size="10.00">_parseAlarmFromCSV</text>
</a>
</g>
</g>
<!-- Node1&#45;&gt;Node2 -->
<g id="edge1_Node000001_Node000002" class="edge">
<title>Node1&#45;&gt;Node2</title>
<g id="a_edge1_Node000001_Node000002"><a xlink:title=" ">
<path fill="none" stroke="#63b8ff" d="M325.42,-77.83C306.65,-83.94 284.38,-91.19 264.89,-97.54"/>
<polygon fill="#63b8ff" stroke="#63b8ff" points="326.44,-81.18 334.87,-74.75 324.27,-74.52 326.44,-81.18"/>
</a>
</g>
</g>
<!-- Node3 -->
<g id="Node000003" class="node">
<title>Node3</title>
<g id="a_Node000003"><a xlink:href="class_config_manager.html#a468923ce5f2edecd218b29605d75426f" target="_top" xlink:title="Load alarms configuration from file.">
<polygon fill="white" stroke="#666666" points="284,-79.5 147.25,-79.5 147.25,-49 284,-49 284,-79.5"/>
<text xml:space="preserve" text-anchor="start" x="155.25" y="-66" font-family="Helvetica,sans-Serif" font-size="10.00">ConfigManager::loadAlarms</text>
<text xml:space="preserve" text-anchor="middle" x="215.62" y="-54.75" font-family="Helvetica,sans-Serif" font-size="10.00">Config</text>
</a>
</g>
</g>
<!-- Node1&#45;&gt;Node3 -->
<g id="edge2_Node000001_Node000003" class="edge">
<title>Node1&#45;&gt;Node3</title>
<g id="a_edge2_Node000001_Node000003"><a xlink:title=" ">
<path fill="none" stroke="#63b8ff" d="M308.22,-64.25C300.37,-64.25 292.27,-64.25 284.28,-64.25"/>
<polygon fill="#63b8ff" stroke="#63b8ff" points="307.99,-67.75 317.99,-64.25 307.99,-60.75 307.99,-67.75"/>
</a>
</g>
</g>
<!-- Node5 -->
<g id="Node000005" class="node">
<title>Node5</title>
<g id="a_Node000005"><a xlink:href="class_temperature_controller.html#a93bd31914a054a4e1df9be7e3966b82e" target="_top" xlink:title=" ">
<polygon fill="white" stroke="#666666" points="271.62,-30.5 159.62,-30.5 159.62,0 271.62,0 271.62,-30.5"/>
<text xml:space="preserve" text-anchor="start" x="167.62" y="-17" font-family="Helvetica,sans-Serif" font-size="10.00">TemperatureController</text>
<text xml:space="preserve" text-anchor="middle" x="215.62" y="-5.75" font-family="Helvetica,sans-Serif" font-size="10.00">::updateAlarm</text>
</a>
</g>
</g>
<!-- Node1&#45;&gt;Node5 -->
<g id="edge4_Node000001_Node000005" class="edge">
<title>Node1&#45;&gt;Node5</title>
<g id="a_edge4_Node000001_Node000005"><a xlink:title=" ">
<path fill="none" stroke="#63b8ff" d="M325.42,-50.67C306.65,-44.56 284.38,-37.31 264.89,-30.96"/>
<polygon fill="#63b8ff" stroke="#63b8ff" points="324.27,-53.98 334.87,-53.75 326.44,-47.32 324.27,-53.98"/>
</a>
</g>
</g>
<!-- Node4 -->
<g id="Node000004" class="node">
<title>Node4</title>
<g id="a_Node000004"><a xlink:href="class_config_manager.html#a0497343220fc493f5cf9574922508908" target="_top" xlink:title="Initialize the configuration system.">
<polygon fill="white" stroke="#666666" points="111.25,-73.88 0,-73.88 0,-54.62 111.25,-54.62 111.25,-73.88"/>
<text xml:space="preserve" text-anchor="middle" x="55.62" y="-60.38" font-family="Helvetica,sans-Serif" font-size="10.00">ConfigManager::begin</text>
</a>
</g>
</g>
<!-- Node3&#45;&gt;Node4 -->
<g id="edge3_Node000003_Node000004" class="edge">
<title>Node3&#45;&gt;Node4</title>
<g id="a_edge3_Node000003_Node000004"><a xlink:title=" ">
<path fill="none" stroke="#63b8ff" d="M135.92,-64.25C127.66,-64.25 119.39,-64.25 111.47,-64.25"/>
<polygon fill="#63b8ff" stroke="#63b8ff" points="135.65,-67.75 145.65,-64.25 135.65,-60.75 135.65,-67.75"/>
</a>
</g>
</g>
</g>
</svg>
