<?xml version="1.0" encoding="UTF-8" standalone="no"?>
<!DOCTYPE svg PUBLIC "-//W3C//DTD SVG 1.1//EN"
 "http://www.w3.org/Graphics/SVG/1.1/DTD/svg11.dtd">
<!-- Generated by graphviz version 13.1.0 (20250701.0955)
 -->
<!-- Title: IndicatorInterface::_saveCurrentText Pages: 1 -->
<svg width="235pt" height="88pt"
 viewBox="0.00 0.00 235.00 88.00" xmlns="http://www.w3.org/2000/svg" xmlns:xlink="http://www.w3.org/1999/xlink">
<g id="graph0" class="graph" transform="scale(1 1) rotate(0) translate(4 83.5)">
<title>IndicatorInterface::_saveCurrentText</title>
<!-- Node1 -->
<g id="Node000001" class="node">
<title>Node1</title>
<g id="a_Node000001"><a xlink:title=" ">
<polygon fill="#999999" stroke="#666666" points="227,-54.5 127.75,-54.5 127.75,-24 227,-24 227,-54.5"/>
<text xml:space="preserve" text-anchor="start" x="135.75" y="-41" font-family="Helvetica,sans-Serif" font-size="10.00">IndicatorInterface</text>
<text xml:space="preserve" text-anchor="middle" x="177.38" y="-29.75" font-family="Helvetica,sans-Serif" font-size="10.00">::_saveCurrentText</text>
</a>
</g>
</g>
<!-- Node2 -->
<g id="Node000002" class="node">
<title>Node2</title>
<g id="a_Node000002"><a xlink:href="class_indicator_interface.html#ac5ef0d744798dc4643c4fa0074e9b503" target="_top" xlink:title=" ">
<polygon fill="white" stroke="#666666" points="91.75,-79.5 0,-79.5 0,-49 91.75,-49 91.75,-79.5"/>
<text xml:space="preserve" text-anchor="start" x="8" y="-66" font-family="Helvetica,sans-Serif" font-size="10.00">IndicatorInterface</text>
<text xml:space="preserve" text-anchor="middle" x="45.88" y="-54.75" font-family="Helvetica,sans-Serif" font-size="10.00">::blinkCross</text>
</a>
</g>
</g>
<!-- Node1&#45;&gt;Node2 -->
<g id="edge1_Node000001_Node000002" class="edge">
<title>Node1&#45;&gt;Node2</title>
<g id="a_edge1_Node000001_Node000002"><a xlink:title=" ">
<path fill="none" stroke="#63b8ff" d="M116.38,-50.83C108.2,-52.41 99.92,-54.01 92.06,-55.53"/>
<polygon fill="#63b8ff" stroke="#63b8ff" points="116.78,-54.32 125.93,-48.99 115.45,-47.45 116.78,-54.32"/>
</a>
</g>
</g>
<!-- Node3 -->
<g id="Node000003" class="node">
<title>Node3</title>
<g id="a_Node000003"><a xlink:href="class_indicator_interface.html#aa7c6bd010177acde7097bd4b186fa96d" target="_top" xlink:title=" ">
<polygon fill="white" stroke="#666666" points="91.75,-30.5 0,-30.5 0,0 91.75,0 91.75,-30.5"/>
<text xml:space="preserve" text-anchor="start" x="8" y="-17" font-family="Helvetica,sans-Serif" font-size="10.00">IndicatorInterface</text>
<text xml:space="preserve" text-anchor="middle" x="45.88" y="-5.75" font-family="Helvetica,sans-Serif" font-size="10.00">::blinkOK</text>
</a>
</g>
</g>
<!-- Node1&#45;&gt;Node3 -->
<g id="edge2_Node000001_Node000003" class="edge">
<title>Node1&#45;&gt;Node3</title>
<g id="a_edge2_Node000001_Node000003"><a xlink:title=" ">
<path fill="none" stroke="#63b8ff" d="M116.1,-28.08C108.01,-26.58 99.83,-25.06 92.06,-23.62"/>
<polygon fill="#63b8ff" stroke="#63b8ff" points="115.46,-31.52 125.93,-29.9 116.73,-24.64 115.46,-31.52"/>
</a>
</g>
</g>
</g>
</svg>
