<?xml version="1.0" encoding="UTF-8" standalone="no"?>
<!DOCTYPE svg PUBLIC "-//W3C//DTD SVG 1.1//EN"
 "http://www.w3.org/Graphics/SVG/1.1/DTD/svg11.dtd">
<!-- Generated by graphviz version 13.1.0 (20250701.0955)
 -->
<!-- Title: TemperatureController::begin Pages: 1 -->
<svg width="631pt" height="274pt"
 viewBox="0.00 0.00 631.00 274.00" xmlns="http://www.w3.org/2000/svg" xmlns:xlink="http://www.w3.org/1999/xlink">
<g id="graph0" class="graph" transform="scale(1 1) rotate(0) translate(4 269.88)">
<title>TemperatureController::begin</title>
<!-- Node1 -->
<g id="Node000001" class="node">
<title>Node1</title>
<g id="a_Node000001"><a xlink:title="Initialize the temperature controller system.">
<polygon fill="#999999" stroke="#666666" points="112,-82.88 0,-82.88 0,-52.38 112,-52.38 112,-82.88"/>
<text xml:space="preserve" text-anchor="start" x="8" y="-69.38" font-family="Helvetica,sans-Serif" font-size="10.00">TemperatureController</text>
<text xml:space="preserve" text-anchor="middle" x="56" y="-58.12" font-family="Helvetica,sans-Serif" font-size="10.00">::begin</text>
</a>
</g>
</g>
<!-- Node2 -->
<g id="Node000002" class="node">
<title>Node2</title>
<g id="a_Node000002"><a xlink:href="class_temperature_controller.html#a79e98c9a1d42de787a66e02b250b7a74" target="_top" xlink:title="Discover PT1000 sensors on SPI bus.">
<polygon fill="white" stroke="#666666" points="260,-119.88 148,-119.88 148,-89.38 260,-89.38 260,-119.88"/>
<text xml:space="preserve" text-anchor="start" x="156" y="-106.38" font-family="Helvetica,sans-Serif" font-size="10.00">TemperatureController</text>
<text xml:space="preserve" text-anchor="middle" x="204" y="-95.12" font-family="Helvetica,sans-Serif" font-size="10.00">::discoverPTSensors</text>
</a>
</g>
</g>
<!-- Node1&#45;&gt;Node2 -->
<g id="edge1_Node000001_Node000002" class="edge">
<title>Node1&#45;&gt;Node2</title>
<g id="a_edge1_Node000001_Node000002"><a xlink:title=" ">
<path fill="none" stroke="#63b8ff" d="M112.2,-81.61C120.19,-83.64 128.49,-85.74 136.67,-87.82"/>
<polygon fill="#63b8ff" stroke="#63b8ff" points="135.71,-91.18 146.26,-90.25 137.42,-84.4 135.71,-91.18"/>
</a>
</g>
</g>
<!-- Node9 -->
<g id="Node000009" class="node">
<title>Node9</title>
<g id="a_Node000009"><a xlink:href="class_logger_manager.html#a5c1373ccc47f4112b596fe6f84fbbc21" target="_top" xlink:title="Log informational message (static convenience method)">
<polygon fill="white" stroke="#666666" points="412.5,-19.25 308,-19.25 308,0 412.5,0 412.5,-19.25"/>
<text xml:space="preserve" text-anchor="middle" x="360.25" y="-5.75" font-family="Helvetica,sans-Serif" font-size="10.00">LoggerManager::info</text>
</a>
</g>
</g>
<!-- Node1&#45;&gt;Node9 -->
<g id="edge12_Node000001_Node000009" class="edge">
<title>Node1&#45;&gt;Node9</title>
<g id="a_edge12_Node000001_Node000009"><a xlink:title=" ">
<path fill="none" stroke="#63b8ff" d="M112.44,-56.99C164.47,-47 242.2,-32.09 296.48,-21.67"/>
<polygon fill="#63b8ff" stroke="#63b8ff" points="297.05,-25.13 306.21,-19.8 295.73,-18.25 297.05,-25.13"/>
</a>
</g>
</g>
<!-- Node3 -->
<g id="Node000003" class="node">
<title>Node3</title>
<g id="a_Node000003"><a xlink:href="class_temperature_controller.html#a31a8a32868beaae06649a5006ca96599" target="_top" xlink:title="Find PT1000 sensor by chip select pin.">
<polygon fill="white" stroke="#666666" points="424.5,-265.88 296,-265.88 296,-235.38 424.5,-235.38 424.5,-265.88"/>
<text xml:space="preserve" text-anchor="start" x="304" y="-252.38" font-family="Helvetica,sans-Serif" font-size="10.00">TemperatureController</text>
<text xml:space="preserve" text-anchor="middle" x="360.25" y="-241.12" font-family="Helvetica,sans-Serif" font-size="10.00">::findSensorByChipSelect</text>
</a>
</g>
</g>
<!-- Node2&#45;&gt;Node3 -->
<g id="edge2_Node000002_Node000003" class="edge">
<title>Node2&#45;&gt;Node3</title>
<g id="a_edge2_Node000002_Node000003"><a xlink:title=" ">
<path fill="none" stroke="#63b8ff" d="M212.89,-120.36C226.5,-146.04 256.76,-197.03 296,-226.62 297.16,-227.5 298.36,-228.35 299.58,-229.17"/>
<polygon fill="#63b8ff" stroke="#63b8ff" points="297.74,-232.14 308.14,-234.15 301.26,-226.09 297.74,-232.14"/>
</a>
</g>
</g>
<!-- Node4 -->
<g id="Node000004" class="node">
<title>Node4</title>
<g id="a_Node000004"><a xlink:href="class_sensor.html#a60ec96ed03660b42681c1bcc99007033" target="_top" xlink:title="Get sensor name.">
<polygon fill="white" stroke="#666666" points="406.5,-217.25 314,-217.25 314,-198 406.5,-198 406.5,-217.25"/>
<text xml:space="preserve" text-anchor="middle" x="360.25" y="-203.75" font-family="Helvetica,sans-Serif" font-size="10.00">Sensor::getName</text>
</a>
</g>
</g>
<!-- Node2&#45;&gt;Node4 -->
<g id="edge3_Node000002_Node000004" class="edge">
<title>Node2&#45;&gt;Node4</title>
<g id="a_edge3_Node000002_Node000004"><a xlink:title=" ">
<path fill="none" stroke="#63b8ff" d="M219.47,-120.13C236.42,-137.54 266.01,-165.7 296,-183.62 302.09,-187.26 308.82,-190.52 315.56,-193.37"/>
<polygon fill="#63b8ff" stroke="#63b8ff" points="314.06,-196.55 324.65,-196.97 316.63,-190.04 314.06,-196.55"/>
</a>
</g>
</g>
<!-- Node5 -->
<g id="Node000005" class="node">
<title>Node5</title>
<g id="a_Node000005"><a xlink:href="class_sensor.html#a6f57825e90b759ccdb9fe07b3a36953d" target="_top" xlink:title="Get PT1000 chip select pin.">
<polygon fill="white" stroke="#666666" points="622.75,-177.25 460.5,-177.25 460.5,-158 622.75,-158 622.75,-177.25"/>
<text xml:space="preserve" text-anchor="middle" x="541.62" y="-163.75" font-family="Helvetica,sans-Serif" font-size="10.00">Sensor::getPT1000ChipSelectPin</text>
</a>
</g>
</g>
<!-- Node2&#45;&gt;Node5 -->
<g id="edge4_Node000002_Node000005" class="edge">
<title>Node2&#45;&gt;Node5</title>
<g id="a_edge4_Node000002_Node000005"><a xlink:title=" ">
<path fill="none" stroke="#63b8ff" d="M229.4,-120.35C247.13,-130.9 272.11,-144.05 296,-150.62 345.39,-164.22 402.39,-168.8 448.94,-169.82"/>
<polygon fill="#63b8ff" stroke="#63b8ff" points="448.67,-173.32 458.72,-169.98 448.78,-166.32 448.67,-173.32"/>
</a>
</g>
</g>
<!-- Node6 -->
<g id="Node000006" class="node">
<title>Node6</title>
<g id="a_Node000006"><a xlink:href="class_temperature_controller.html#a01e04714a1712aa10c34276850971a12" target="_top" xlink:title="Get bus number for a sensor.">
<polygon fill="white" stroke="#666666" points="416.25,-141.88 304.25,-141.88 304.25,-111.38 416.25,-111.38 416.25,-141.88"/>
<text xml:space="preserve" text-anchor="start" x="312.25" y="-128.38" font-family="Helvetica,sans-Serif" font-size="10.00">TemperatureController</text>
<text xml:space="preserve" text-anchor="middle" x="360.25" y="-117.12" font-family="Helvetica,sans-Serif" font-size="10.00">::getSensorBus</text>
</a>
</g>
</g>
<!-- Node2&#45;&gt;Node6 -->
<g id="edge5_Node000002_Node000006" class="edge">
<title>Node2&#45;&gt;Node6</title>
<g id="a_edge5_Node000002_Node000006"><a xlink:title=" ">
<path fill="none" stroke="#63b8ff" d="M260.25,-112.51C270.77,-114.01 281.89,-115.59 292.72,-117.14"/>
<polygon fill="#63b8ff" stroke="#63b8ff" points="291.97,-120.56 302.37,-118.51 292.96,-113.64 291.97,-120.56"/>
</a>
</g>
</g>
<!-- Node2&#45;&gt;Node9 -->
<g id="edge9_Node000002_Node000009" class="edge">
<title>Node2&#45;&gt;Node9</title>
<g id="a_edge9_Node000002_Node000009"><a xlink:title=" ">
<path fill="none" stroke="#63b8ff" d="M225.12,-89.06C235.65,-80.78 248.67,-70.33 260,-60.62 276.48,-46.5 277.05,-38.21 296,-27.62 298.35,-26.31 300.81,-25.08 303.34,-23.94"/>
<polygon fill="#63b8ff" stroke="#63b8ff" points="304.57,-27.22 312.57,-20.27 301.98,-20.71 304.57,-27.22"/>
</a>
</g>
</g>
<!-- Node10 -->
<g id="Node000010" class="node">
<title>Node10</title>
<g id="a_Node000010"><a xlink:href="class_sensor.html#a59dd5483b75d9366a0c50ccdd0345dec" target="_top" xlink:title="Initialize sensor hardware.">
<polygon fill="white" stroke="#666666" points="404.25,-93.25 316.25,-93.25 316.25,-74 404.25,-74 404.25,-93.25"/>
<text xml:space="preserve" text-anchor="middle" x="360.25" y="-79.75" font-family="Helvetica,sans-Serif" font-size="10.00">Sensor::initialize</text>
</a>
</g>
</g>
<!-- Node2&#45;&gt;Node10 -->
<g id="edge10_Node000002_Node000010" class="edge">
<title>Node2&#45;&gt;Node10</title>
<g id="a_edge10_Node000002_Node000010"><a xlink:title=" ">
<path fill="none" stroke="#63b8ff" d="M260.25,-97.1C274.71,-95.13 290.29,-93.01 304.72,-91.05"/>
<polygon fill="#63b8ff" stroke="#63b8ff" points="305.05,-94.54 314.49,-89.72 304.11,-87.6 305.05,-94.54"/>
</a>
</g>
</g>
<!-- Node11 -->
<g id="Node000011" class="node">
<title>Node11</title>
<g id="a_Node000011"><a xlink:href="class_sensor.html#aef73c8dc894e3695f50b4bece9601750" target="_top" xlink:title="Configure sensor as PT1000.">
<polygon fill="white" stroke="#666666" points="415.5,-56.25 305,-56.25 305,-37 415.5,-37 415.5,-56.25"/>
<text xml:space="preserve" text-anchor="middle" x="360.25" y="-42.75" font-family="Helvetica,sans-Serif" font-size="10.00">Sensor::setupPT1000</text>
</a>
</g>
</g>
<!-- Node2&#45;&gt;Node11 -->
<g id="edge11_Node000002_Node000011" class="edge">
<title>Node2&#45;&gt;Node11</title>
<g id="a_edge11_Node000002_Node000011"><a xlink:title=" ">
<path fill="none" stroke="#63b8ff" d="M237.84,-88.89C254.95,-81.02 276.35,-71.7 296,-64.62 300.41,-63.04 305.03,-61.49 309.69,-60.02"/>
<polygon fill="#63b8ff" stroke="#63b8ff" points="310.52,-63.43 319.07,-57.18 308.48,-56.73 310.52,-63.43"/>
</a>
</g>
</g>
<!-- Node6&#45;&gt;Node5 -->
<g id="edge7_Node000006_Node000005" class="edge">
<title>Node6&#45;&gt;Node5</title>
<g id="a_edge7_Node000006_Node000005"><a xlink:title=" ">
<path fill="none" stroke="#63b8ff" d="M416.53,-139.26C438.45,-144.27 463.59,-150.02 485.49,-155.02"/>
<polygon fill="#63b8ff" stroke="#63b8ff" points="484.61,-158.41 495.14,-157.23 486.17,-151.59 484.61,-158.41"/>
</a>
</g>
</g>
<!-- Node7 -->
<g id="Node000007" class="node">
<title>Node7</title>
<g id="a_Node000007"><a xlink:href="class_sensor.html#ac42da3a37b0d6a9622344fe83f4c9047" target="_top" xlink:title="Get OneWire bus pin.">
<polygon fill="white" stroke="#666666" points="601,-137.25 482.25,-137.25 482.25,-118 601,-118 601,-137.25"/>
<text xml:space="preserve" text-anchor="middle" x="541.62" y="-123.75" font-family="Helvetica,sans-Serif" font-size="10.00">Sensor::getOneWirePin</text>
</a>
</g>
</g>
<!-- Node6&#45;&gt;Node7 -->
<g id="edge6_Node000006_Node000007" class="edge">
<title>Node6&#45;&gt;Node7</title>
<g id="a_edge6_Node000006_Node000007"><a xlink:title=" ">
<path fill="none" stroke="#63b8ff" d="M416.53,-126.93C433.59,-127.03 452.6,-127.13 470.51,-127.23"/>
<polygon fill="#63b8ff" stroke="#63b8ff" points="470.26,-130.73 480.28,-127.29 470.3,-123.73 470.26,-130.73"/>
</a>
</g>
</g>
<!-- Node8 -->
<g id="Node000008" class="node">
<title>Node8</title>
<g id="a_Node000008"><a xlink:href="class_sensor.html#a0f6f095e7cfdfffb2a395dfdae7cfa53" target="_top" xlink:title="Get sensor type.">
<polygon fill="white" stroke="#666666" points="585.25,-100.25 498,-100.25 498,-81 585.25,-81 585.25,-100.25"/>
<text xml:space="preserve" text-anchor="middle" x="541.62" y="-86.75" font-family="Helvetica,sans-Serif" font-size="10.00">Sensor::getType</text>
</a>
</g>
</g>
<!-- Node6&#45;&gt;Node8 -->
<g id="edge8_Node000006_Node000008" class="edge">
<title>Node6&#45;&gt;Node8</title>
<g id="a_edge8_Node000006_Node000008"><a xlink:title=" ">
<path fill="none" stroke="#63b8ff" d="M416.53,-115.53C438.8,-111.06 464.4,-105.92 486.54,-101.48"/>
<polygon fill="#63b8ff" stroke="#63b8ff" points="487.17,-104.92 496.28,-99.52 485.79,-98.06 487.17,-104.92"/>
</a>
</g>
</g>
</g>
</svg>
