<?xml version="1.0" encoding="UTF-8" standalone="no"?>
<!DOCTYPE svg PUBLIC "-//W3C//DTD SVG 1.1//EN"
 "http://www.w3.org/Graphics/SVG/1.1/DTD/svg11.dtd">
<!-- Generated by graphviz version 13.1.0 (20250701.0955)
 -->
<!-- Title: TemperatureController::getBoundSensor Pages: 1 -->
<svg width="1059pt" height="110pt"
 viewBox="0.00 0.00 1059.00 110.00" xmlns="http://www.w3.org/2000/svg" xmlns:xlink="http://www.w3.org/1999/xlink">
<g id="graph0" class="graph" transform="scale(1 1) rotate(0) translate(4 105.5)">
<title>TemperatureController::getBoundSensor</title>
<!-- Node1 -->
<g id="Node000001" class="node">
<title>Node1</title>
<g id="a_Node000001"><a xlink:title="Get sensor bound to measurement point.">
<polygon fill="#999999" stroke="#666666" points="1051,-52.5 939,-52.5 939,-22 1051,-22 1051,-52.5"/>
<text xml:space="preserve" text-anchor="start" x="947" y="-39" font-family="Helvetica,sans-Serif" font-size="10.00">TemperatureController</text>
<text xml:space="preserve" text-anchor="middle" x="995" y="-27.75" font-family="Helvetica,sans-Serif" font-size="10.00">::getBoundSensor</text>
</a>
</g>
</g>
<!-- Node2 -->
<g id="Node000002" class="node">
<title>Node2</title>
<g id="a_Node000002"><a xlink:href="class_temperature_controller.html#a45d13ed72fd36b46820af631e4db958b" target="_top" xlink:title="Display system stats page.">
<polygon fill="white" stroke="#666666" points="901.5,-101.5 786.5,-101.5 786.5,-71 901.5,-71 901.5,-101.5"/>
<text xml:space="preserve" text-anchor="start" x="794.5" y="-88" font-family="Helvetica,sans-Serif" font-size="10.00">TemperatureController</text>
<text xml:space="preserve" text-anchor="middle" x="844" y="-76.75" font-family="Helvetica,sans-Serif" font-size="10.00">::_displaySystemStats</text>
</a>
</g>
</g>
<!-- Node1&#45;&gt;Node2 -->
<g id="edge1_Node000001_Node000002" class="edge">
<title>Node1&#45;&gt;Node2</title>
<g id="a_edge1_Node000001_Node000002"><a xlink:title=" ">
<path fill="none" stroke="#63b8ff" d="M935.78,-56.4C921.57,-61.07 906.53,-66.01 892.87,-70.51"/>
<polygon fill="#63b8ff" stroke="#63b8ff" points="936.6,-59.81 945.01,-53.36 934.42,-53.16 936.6,-59.81"/>
</a>
</g>
</g>
<!-- Node8 -->
<g id="Node000008" class="node">
<title>Node8</title>
<g id="a_Node000008"><a xlink:href="class_temperature_controller.html#a4e4770607486ebfc6eacafa704945c23" target="_top" xlink:title="Remove sensor by ROM address string.">
<polygon fill="white" stroke="#666666" points="903,-52.5 785,-52.5 785,-22 903,-22 903,-52.5"/>
<text xml:space="preserve" text-anchor="start" x="793" y="-39" font-family="Helvetica,sans-Serif" font-size="10.00">TemperatureController</text>
<text xml:space="preserve" text-anchor="middle" x="844" y="-27.75" font-family="Helvetica,sans-Serif" font-size="10.00">::removeSensorByRom</text>
</a>
</g>
</g>
<!-- Node1&#45;&gt;Node8 -->
<g id="edge8_Node000001_Node000008" class="edge">
<title>Node1&#45;&gt;Node8</title>
<g id="a_edge8_Node000001_Node000008"><a xlink:title=" ">
<path fill="none" stroke="#63b8ff" d="M927.03,-37.25C919.1,-37.25 911.06,-37.25 903.27,-37.25"/>
<polygon fill="#63b8ff" stroke="#63b8ff" points="927,-40.75 937,-37.25 927,-33.75 927,-40.75"/>
</a>
</g>
</g>
<!-- Node10 -->
<g id="Node000010" class="node">
<title>Node10</title>
<g id="a_Node000010"><a xlink:href="class_temperature_controller.html#a5ac8af90de5dfd79a9a2e4c7270a98a3" target="_top" xlink:title="Update alarm states for all measurement points.">
<polygon fill="white" stroke="#666666" points="563.5,-30.5 451.5,-30.5 451.5,0 563.5,0 563.5,-30.5"/>
<text xml:space="preserve" text-anchor="start" x="459.5" y="-17" font-family="Helvetica,sans-Serif" font-size="10.00">TemperatureController</text>
<text xml:space="preserve" text-anchor="middle" x="507.5" y="-5.75" font-family="Helvetica,sans-Serif" font-size="10.00">::updateAlarms</text>
</a>
</g>
</g>
<!-- Node1&#45;&gt;Node10 -->
<g id="edge10_Node000001_Node000010" class="edge">
<title>Node1&#45;&gt;Node10</title>
<g id="a_edge10_Node000001_Node000010"><a xlink:title=" ">
<path fill="none" stroke="#63b8ff" d="M932.9,-18.84C922.99,-16.52 912.77,-14.52 903,-13.25 782.95,2.31 640.62,-4.57 564,-10.32"/>
<polygon fill="#63b8ff" stroke="#63b8ff" points="931.9,-22.2 942.45,-21.21 933.59,-15.4 931.9,-22.2"/>
</a>
</g>
</g>
<!-- Node3 -->
<g id="Node000003" class="node">
<title>Node3</title>
<g id="a_Node000003"><a xlink:href="class_temperature_controller.html#a45f7994a3a052a527981dbfdad27606b" target="_top" xlink:title="Handle system status mode display.">
<polygon fill="white" stroke="#666666" points="749,-101.5 607,-101.5 607,-71 749,-71 749,-101.5"/>
<text xml:space="preserve" text-anchor="start" x="615" y="-88" font-family="Helvetica,sans-Serif" font-size="10.00">TemperatureController</text>
<text xml:space="preserve" text-anchor="middle" x="678" y="-76.75" font-family="Helvetica,sans-Serif" font-size="10.00">::_handleSystemStatusMode</text>
</a>
</g>
</g>
<!-- Node2&#45;&gt;Node3 -->
<g id="edge2_Node000002_Node000003" class="edge">
<title>Node2&#45;&gt;Node3</title>
<g id="a_edge2_Node000002_Node000003"><a xlink:title=" ">
<path fill="none" stroke="#63b8ff" d="M774.81,-86.25C766.41,-86.25 757.81,-86.25 749.38,-86.25"/>
<polygon fill="#63b8ff" stroke="#63b8ff" points="774.59,-89.75 784.59,-86.25 774.59,-82.75 774.59,-89.75"/>
</a>
</g>
</g>
<!-- Node4 -->
<g id="Node000004" class="node">
<title>Node4</title>
<g id="a_Node000004"><a xlink:href="class_temperature_controller.html#a6b2f92b5c2af867240200cff2e61e806" target="_top" xlink:title="Handle display section switching.">
<polygon fill="white" stroke="#666666" points="571,-90.5 444,-90.5 444,-60 571,-60 571,-90.5"/>
<text xml:space="preserve" text-anchor="start" x="452" y="-77" font-family="Helvetica,sans-Serif" font-size="10.00">TemperatureController</text>
<text xml:space="preserve" text-anchor="middle" x="507.5" y="-65.75" font-family="Helvetica,sans-Serif" font-size="10.00">::_handleDisplaySections</text>
</a>
</g>
</g>
<!-- Node3&#45;&gt;Node4 -->
<g id="edge3_Node000003_Node000004" class="edge">
<title>Node3&#45;&gt;Node4</title>
<g id="a_edge3_Node000003_Node000004"><a xlink:title=" ">
<path fill="none" stroke="#63b8ff" d="M595.26,-80.91C587.26,-80.39 579.23,-79.87 571.46,-79.36"/>
<polygon fill="#63b8ff" stroke="#63b8ff" points="594.8,-84.39 605.01,-81.55 595.26,-77.41 594.8,-84.39"/>
</a>
</g>
</g>
<!-- Node5 -->
<g id="Node000005" class="node">
<title>Node5</title>
<g id="a_Node000005"><a xlink:href="class_temperature_controller.html#a5637103784725fb1a73f6463d7cbfde6" target="_top" xlink:title="Handle alarm display on OLED/LEDs.">
<polygon fill="white" stroke="#666666" points="408,-77.5 296,-77.5 296,-47 408,-47 408,-77.5"/>
<text xml:space="preserve" text-anchor="start" x="304" y="-64" font-family="Helvetica,sans-Serif" font-size="10.00">TemperatureController</text>
<text xml:space="preserve" text-anchor="middle" x="352" y="-52.75" font-family="Helvetica,sans-Serif" font-size="10.00">::handleAlarmDisplay</text>
</a>
</g>
</g>
<!-- Node4&#45;&gt;Node5 -->
<g id="edge4_Node000004_Node000005" class="edge">
<title>Node4&#45;&gt;Node5</title>
<g id="a_edge4_Node000004_Node000005"><a xlink:title=" ">
<path fill="none" stroke="#63b8ff" d="M432.22,-68.96C424.12,-68.27 415.98,-67.58 408.16,-66.92"/>
<polygon fill="#63b8ff" stroke="#63b8ff" points="431.85,-72.44 442.11,-69.8 432.45,-65.47 431.85,-72.44"/>
</a>
</g>
</g>
<!-- Node6 -->
<g id="Node000006" class="node">
<title>Node6</title>
<g id="a_Node000006"><a xlink:href="class_temperature_controller.html#aca5deddbf703001373424d876f87b5f2" target="_top" xlink:title="Main update function &#45; must be called in loop()">
<polygon fill="white" stroke="#666666" points="260,-54.5 148,-54.5 148,-24 260,-24 260,-54.5"/>
<text xml:space="preserve" text-anchor="start" x="156" y="-41" font-family="Helvetica,sans-Serif" font-size="10.00">TemperatureController</text>
<text xml:space="preserve" text-anchor="middle" x="204" y="-29.75" font-family="Helvetica,sans-Serif" font-size="10.00">::update</text>
</a>
</g>
</g>
<!-- Node5&#45;&gt;Node6 -->
<g id="edge5_Node000005_Node000006" class="edge">
<title>Node5&#45;&gt;Node6</title>
<g id="a_edge5_Node000005_Node000006"><a xlink:title=" ">
<path fill="none" stroke="#63b8ff" d="M284.47,-51.77C276.38,-50.49 268.18,-49.2 260.27,-47.96"/>
<polygon fill="#63b8ff" stroke="#63b8ff" points="283.89,-55.22 294.31,-53.32 284.98,-48.31 283.89,-55.22"/>
</a>
</g>
</g>
<!-- Node7 -->
<g id="Node000007" class="node">
<title>Node7</title>
<g id="a_Node000007"><a xlink:href="class_temperature_controller.html#a11948a87fe7df37543b86ecdd488b341" target="_top" xlink:title="Read temperature from all configured measurement points.">
<polygon fill="white" stroke="#666666" points="112,-54.5 0,-54.5 0,-24 112,-24 112,-54.5"/>
<text xml:space="preserve" text-anchor="start" x="8" y="-41" font-family="Helvetica,sans-Serif" font-size="10.00">TemperatureController</text>
<text xml:space="preserve" text-anchor="middle" x="56" y="-29.75" font-family="Helvetica,sans-Serif" font-size="10.00">::readAllPoints</text>
</a>
</g>
</g>
<!-- Node6&#45;&gt;Node7 -->
<g id="edge6_Node000006_Node000007" class="edge">
<title>Node6&#45;&gt;Node7</title>
<g id="a_edge6_Node000006_Node000007"><a xlink:title=" ">
<path fill="none" stroke="#63b8ff" d="M136.47,-32.52C128.38,-32.46 120.18,-32.52 112.27,-32.68"/>
<polygon fill="#63b8ff" stroke="#63b8ff" points="136.24,-36.02 146.29,-32.66 136.34,-29.02 136.24,-36.02"/>
</a>
</g>
</g>
<!-- Node7&#45;&gt;Node6 -->
<g id="edge7_Node000007_Node000006" class="edge">
<title>Node7&#45;&gt;Node6</title>
<g id="a_edge7_Node000007_Node000006"><a xlink:title=" ">
<path fill="none" stroke="#63b8ff" d="M123.61,-45.98C131.7,-46.04 139.9,-45.98 147.8,-45.82"/>
<polygon fill="#63b8ff" stroke="#63b8ff" points="123.84,-42.48 113.79,-45.84 123.74,-49.48 123.84,-42.48"/>
</a>
</g>
</g>
<!-- Node9 -->
<g id="Node000009" class="node">
<title>Node9</title>
<g id="a_Node000009"><a xlink:href="class_temperature_controller.html#a57b74b40c88016965d07248981412f7d" target="_top" xlink:title="Discover DS18B20 sensors on all OneWire buses.">
<polygon fill="white" stroke="#666666" points="746.38,-52.5 609.62,-52.5 609.62,-22 746.38,-22 746.38,-52.5"/>
<text xml:space="preserve" text-anchor="start" x="617.62" y="-39" font-family="Helvetica,sans-Serif" font-size="10.00">TemperatureController</text>
<text xml:space="preserve" text-anchor="middle" x="678" y="-27.75" font-family="Helvetica,sans-Serif" font-size="10.00">::discoverDS18B20Sensors</text>
</a>
</g>
</g>
<!-- Node8&#45;&gt;Node9 -->
<g id="edge9_Node000008_Node000009" class="edge">
<title>Node8&#45;&gt;Node9</title>
<g id="a_edge9_Node000008_Node000009"><a xlink:title=" ">
<path fill="none" stroke="#63b8ff" d="M773.26,-37.25C764.43,-37.25 755.41,-37.25 746.61,-37.25"/>
<polygon fill="#63b8ff" stroke="#63b8ff" points="773.2,-40.75 783.2,-37.25 773.2,-33.75 773.2,-40.75"/>
</a>
</g>
</g>
<!-- Node10&#45;&gt;Node6 -->
<g id="edge11_Node000010_Node000006" class="edge">
<title>Node10&#45;&gt;Node6</title>
<g id="a_edge11_Node000010_Node000006"><a xlink:title=" ">
<path fill="none" stroke="#63b8ff" d="M440.04,-20.54C386.17,-24.83 311.14,-30.8 260.46,-34.84"/>
<polygon fill="#63b8ff" stroke="#63b8ff" points="440,-24.05 449.69,-19.77 439.45,-17.08 440,-24.05"/>
</a>
</g>
</g>
</g>
</svg>
