<?xml version="1.0" encoding="UTF-8" standalone="no"?>
<!DOCTYPE svg PUBLIC "-//W3C//DTD SVG 1.1//EN"
 "http://www.w3.org/Graphics/SVG/1.1/DTD/svg11.dtd">
<!-- Generated by graphviz version 13.1.0 (20250701.0955)
 -->
<!-- Title: ConfigManager::csvImportExportAPI Pages: 1 -->
<svg width="514pt" height="544pt"
 viewBox="0.00 0.00 514.00 544.00" xmlns="http://www.w3.org/2000/svg" xmlns:xlink="http://www.w3.org/1999/xlink">
<g id="graph0" class="graph" transform="scale(1 1) rotate(0) translate(4 539.88)">
<title>ConfigManager::csvImportExportAPI</title>
<!-- Node1 -->
<g id="Node000001" class="node">
<title>Node1</title>
<g id="a_Node000001"><a xlink:title="Setup CSV import/export API endpoints.">
<polygon fill="#999999" stroke="#666666" points="131.5,-408.5 0,-408.5 0,-378 131.5,-378 131.5,-408.5"/>
<text xml:space="preserve" text-anchor="start" x="8" y="-395" font-family="Helvetica,sans-Serif" font-size="10.00">ConfigManager::csvImport</text>
<text xml:space="preserve" text-anchor="middle" x="65.75" y="-383.75" font-family="Helvetica,sans-Serif" font-size="10.00">ExportAPI</text>
</a>
</g>
</g>
<!-- Node2 -->
<g id="Node000002" class="node">
<title>Node2</title>
<g id="a_Node000002"><a xlink:href="class_logger_manager.html#aef24f00186213fa78be3b104a50d58e6" target="_top" xlink:title="Log error message (static convenience method)">
<polygon fill="white" stroke="#666666" points="291.5,-467.88 183.25,-467.88 183.25,-448.62 291.5,-448.62 291.5,-467.88"/>
<text xml:space="preserve" text-anchor="middle" x="237.38" y="-454.38" font-family="Helvetica,sans-Serif" font-size="10.00">LoggerManager::error</text>
</a>
</g>
</g>
<!-- Node1&#45;&gt;Node2 -->
<g id="edge1_Node000001_Node000002" class="edge">
<title>Node1&#45;&gt;Node2</title>
<g id="a_edge1_Node000001_Node000002"><a xlink:title=" ">
<path fill="none" stroke="#63b8ff" d="M97.53,-408.85C117.21,-418.44 143.47,-430.51 167.5,-439.25 173.11,-441.29 179.05,-443.23 184.98,-445.05"/>
<polygon fill="#63b8ff" stroke="#63b8ff" points="183.58,-448.28 194.16,-447.73 185.55,-441.56 183.58,-448.28"/>
</a>
</g>
</g>
<!-- Node3 -->
<g id="Node000003" class="node">
<title>Node3</title>
<g id="a_Node000003"><a xlink:href="class_logger_manager.html#a5c1373ccc47f4112b596fe6f84fbbc21" target="_top" xlink:title="Log informational message (static convenience method)">
<polygon fill="white" stroke="#666666" points="476.62,-350.88 372.12,-350.88 372.12,-331.62 476.62,-331.62 476.62,-350.88"/>
<text xml:space="preserve" text-anchor="middle" x="424.38" y="-337.38" font-family="Helvetica,sans-Serif" font-size="10.00">LoggerManager::info</text>
</a>
</g>
</g>
<!-- Node1&#45;&gt;Node3 -->
<g id="edge2_Node000001_Node000003" class="edge">
<title>Node1&#45;&gt;Node3</title>
<g id="a_edge2_Node000001_Node000003"><a xlink:title=" ">
<path fill="none" stroke="#63b8ff" d="M131.75,-383.77C196.85,-374.28 296.36,-359.77 360.65,-350.4"/>
<polygon fill="#63b8ff" stroke="#63b8ff" points="360.94,-353.89 370.33,-348.98 359.93,-346.96 360.94,-353.89"/>
</a>
</g>
</g>
<!-- Node4 -->
<g id="Node000004" class="node">
<title>Node4</title>
<g id="a_Node000004"><a xlink:href="class_config_manager.html#aa15fcaf6330fd73a87e8c6f63e8ab9d5" target="_top" xlink:title="Save alarms configuration to file.">
<polygon fill="white" stroke="#666666" points="307.25,-430.5 167.5,-430.5 167.5,-400 307.25,-400 307.25,-430.5"/>
<text xml:space="preserve" text-anchor="start" x="175.5" y="-417" font-family="Helvetica,sans-Serif" font-size="10.00">ConfigManager::saveAlarms</text>
<text xml:space="preserve" text-anchor="middle" x="237.38" y="-405.75" font-family="Helvetica,sans-Serif" font-size="10.00">Config</text>
</a>
</g>
</g>
<!-- Node1&#45;&gt;Node4 -->
<g id="edge3_Node000001_Node000004" class="edge">
<title>Node1&#45;&gt;Node4</title>
<g id="a_edge3_Node000001_Node000004"><a xlink:title=" ">
<path fill="none" stroke="#63b8ff" d="M131.85,-401.69C139.72,-402.71 147.83,-403.77 155.9,-404.81"/>
<polygon fill="#63b8ff" stroke="#63b8ff" points="155.36,-408.27 165.73,-406.09 156.26,-401.33 155.36,-408.27"/>
</a>
</g>
</g>
<!-- Node10 -->
<g id="Node000010" class="node">
<title>Node10</title>
<g id="a_Node000010"><a xlink:href="class_config_manager.html#a55b79da91c57039c483ddf5fceabbd64" target="_top" xlink:title="Save measurement points configuration to file.">
<polygon fill="white" stroke="#666666" points="305.75,-206.5 169,-206.5 169,-176 305.75,-176 305.75,-206.5"/>
<text xml:space="preserve" text-anchor="start" x="177" y="-193" font-family="Helvetica,sans-Serif" font-size="10.00">ConfigManager::savePoints</text>
<text xml:space="preserve" text-anchor="middle" x="237.38" y="-181.75" font-family="Helvetica,sans-Serif" font-size="10.00">Config</text>
</a>
</g>
</g>
<!-- Node1&#45;&gt;Node10 -->
<g id="edge9_Node000001_Node000010" class="edge">
<title>Node1&#45;&gt;Node10</title>
<g id="a_edge9_Node000001_Node000010"><a xlink:title=" ">
<path fill="none" stroke="#63b8ff" d="M79.78,-377.73C109.13,-342.78 180.63,-257.64 215.94,-215.58"/>
<polygon fill="#63b8ff" stroke="#63b8ff" points="218.58,-217.89 222.33,-207.98 213.22,-213.38 218.58,-217.89"/>
</a>
</g>
</g>
<!-- Node5 -->
<g id="Node000005" class="node">
<title>Node5</title>
<g id="a_Node000005"><a xlink:href="class_alarm.html#a952efd43b6a887659d56815bd5119d60" target="_top" xlink:title="Get the hysteresis value.">
<polygon fill="white" stroke="#666666" points="478.5,-461.88 370.25,-461.88 370.25,-442.62 478.5,-442.62 478.5,-461.88"/>
<text xml:space="preserve" text-anchor="middle" x="424.38" y="-448.38" font-family="Helvetica,sans-Serif" font-size="10.00">Alarm::getHysteresis</text>
</a>
</g>
</g>
<!-- Node4&#45;&gt;Node5 -->
<g id="edge4_Node000004_Node000005" class="edge">
<title>Node4&#45;&gt;Node5</title>
<g id="a_edge4_Node000004_Node000005"><a xlink:title=" ">
<path fill="none" stroke="#63b8ff" d="M307.53,-429.08C325.29,-432.63 344.28,-436.43 361.64,-439.9"/>
<polygon fill="#63b8ff" stroke="#63b8ff" points="360.81,-443.31 371.3,-441.84 362.18,-436.44 360.81,-443.31"/>
</a>
</g>
</g>
<!-- Node6 -->
<g id="Node000006" class="node">
<title>Node6</title>
<g id="a_Node000006"><a xlink:href="class_alarm.html#ab12dd2af567dd87228d9404dcce5b0c0" target="_top" xlink:title="Get the measurement point address.">
<polygon fill="white" stroke="#666666" points="484.12,-424.88 364.62,-424.88 364.62,-405.62 484.12,-405.62 484.12,-424.88"/>
<text xml:space="preserve" text-anchor="middle" x="424.38" y="-411.38" font-family="Helvetica,sans-Serif" font-size="10.00">Alarm::getPointAddress</text>
</a>
</g>
</g>
<!-- Node4&#45;&gt;Node6 -->
<g id="edge5_Node000004_Node000006" class="edge">
<title>Node4&#45;&gt;Node6</title>
<g id="a_edge5_Node000004_Node000006"><a xlink:title=" ">
<path fill="none" stroke="#63b8ff" d="M307.53,-415.25C322.41,-415.25 338.16,-415.25 353.08,-415.25"/>
<polygon fill="#63b8ff" stroke="#63b8ff" points="352.8,-418.75 362.8,-415.25 352.8,-411.75 352.8,-418.75"/>
</a>
</g>
</g>
<!-- Node7 -->
<g id="Node000007" class="node">
<title>Node7</title>
<g id="a_Node000007"><a xlink:href="class_alarm.html#abe89e376d8cacb582717ad6a65526ee8" target="_top" xlink:title="Get the alarm priority.">
<polygon fill="white" stroke="#666666" points="470.25,-387.88 378.5,-387.88 378.5,-368.62 470.25,-368.62 470.25,-387.88"/>
<text xml:space="preserve" text-anchor="middle" x="424.38" y="-374.38" font-family="Helvetica,sans-Serif" font-size="10.00">Alarm::getPriority</text>
</a>
</g>
</g>
<!-- Node4&#45;&gt;Node7 -->
<g id="edge6_Node000004_Node000007" class="edge">
<title>Node4&#45;&gt;Node7</title>
<g id="a_edge6_Node000004_Node000007"><a xlink:title=" ">
<path fill="none" stroke="#63b8ff" d="M307.53,-401.42C327.17,-397.49 348.31,-393.26 367.09,-389.51"/>
<polygon fill="#63b8ff" stroke="#63b8ff" points="367.53,-392.99 376.65,-387.59 366.16,-386.12 367.53,-392.99"/>
</a>
</g>
</g>
<!-- Node8 -->
<g id="Node000008" class="node">
<title>Node8</title>
<g id="a_Node000008"><a xlink:href="class_alarm.html#acfac41af4628d83d3fdcc11c8fb55069" target="_top" xlink:title="Get the alarm type.">
<polygon fill="white" stroke="#666666" points="465.38,-535.88 383.38,-535.88 383.38,-516.62 465.38,-516.62 465.38,-535.88"/>
<text xml:space="preserve" text-anchor="middle" x="424.38" y="-522.38" font-family="Helvetica,sans-Serif" font-size="10.00">Alarm::getType</text>
</a>
</g>
</g>
<!-- Node4&#45;&gt;Node8 -->
<g id="edge7_Node000004_Node000008" class="edge">
<title>Node4&#45;&gt;Node8</title>
<g id="a_edge7_Node000004_Node000008"><a xlink:title=" ">
<path fill="none" stroke="#63b8ff" d="M295.23,-430.98C299.53,-433.36 303.61,-436.1 307.25,-439.25 333.42,-461.86 315.83,-487.17 343.25,-508.25 351.55,-514.63 361.68,-518.83 371.91,-521.58"/>
<polygon fill="#63b8ff" stroke="#63b8ff" points="370.97,-524.96 381.49,-523.7 372.48,-518.12 370.97,-524.96"/>
</a>
</g>
</g>
<!-- Node9 -->
<g id="Node000009" class="node">
<title>Node9</title>
<g id="a_Node000009"><a xlink:href="class_alarm.html#ab1d04e5776db50454c72fd0937acdc37" target="_top" xlink:title="Check if alarm is enabled in configuration.">
<polygon fill="white" stroke="#666666" points="469.5,-498.88 379.25,-498.88 379.25,-479.62 469.5,-479.62 469.5,-498.88"/>
<text xml:space="preserve" text-anchor="middle" x="424.38" y="-485.38" font-family="Helvetica,sans-Serif" font-size="10.00">Alarm::isEnabled</text>
</a>
</g>
</g>
<!-- Node4&#45;&gt;Node9 -->
<g id="edge8_Node000004_Node000009" class="edge">
<title>Node4&#45;&gt;Node9</title>
<g id="a_edge8_Node000004_Node000009"><a xlink:title=" ">
<path fill="none" stroke="#63b8ff" d="M290.51,-430.94C296.31,-433.4 302.01,-436.17 307.25,-439.25 325.71,-450.09 324.2,-461.48 343.25,-471.25 350.92,-475.19 359.45,-478.27 367.99,-480.68"/>
<polygon fill="#63b8ff" stroke="#63b8ff" points="367.13,-484.07 377.68,-483.11 368.83,-477.28 367.13,-484.07"/>
</a>
</g>
</g>
<!-- Node10&#45;&gt;Node3 -->
<g id="edge18_Node000010_Node000003" class="edge">
<title>Node10&#45;&gt;Node3</title>
<g id="a_edge18_Node000010_Node000003"><a xlink:title=" ">
<path fill="none" stroke="#63b8ff" d="M246.07,-206.71C260.82,-234.69 295.89,-293.55 343.25,-323.25 348.74,-326.7 354.81,-329.49 361.08,-331.74"/>
<polygon fill="#63b8ff" stroke="#63b8ff" points="359.72,-334.98 370.31,-334.61 361.8,-328.3 359.72,-334.98"/>
</a>
</g>
</g>
<!-- Node11 -->
<g id="Node000011" class="node">
<title>Node11</title>
<g id="a_Node000011"><a xlink:href="class_measurement_point.html#a7b74a18d86e0e545264a774aa2c31cad" target="_top" xlink:title="Get measurement point address.">
<polygon fill="white" stroke="#666666" points="501,-67.88 347.75,-67.88 347.75,-48.62 501,-48.62 501,-67.88"/>
<text xml:space="preserve" text-anchor="middle" x="424.38" y="-54.38" font-family="Helvetica,sans-Serif" font-size="10.00">MeasurementPoint::getAddress</text>
</a>
</g>
</g>
<!-- Node10&#45;&gt;Node11 -->
<g id="edge10_Node000010_Node000011" class="edge">
<title>Node10&#45;&gt;Node11</title>
<g id="a_edge10_Node000010_Node000011"><a xlink:title=" ">
<path fill="none" stroke="#63b8ff" d="M247.86,-175.82C264.12,-150.76 299.79,-101.49 343.25,-76.25 345.45,-74.97 347.74,-73.78 350.09,-72.68"/>
<polygon fill="#63b8ff" stroke="#63b8ff" points="351.35,-75.94 359.3,-68.93 348.71,-69.46 351.35,-75.94"/>
</a>
</g>
</g>
<!-- Node12 -->
<g id="Node000012" class="node">
<title>Node12</title>
<g id="a_Node000012"><a xlink:href="class_measurement_point.html#a81c7ae93a9314344967d0f31c6fefe2f" target="_top" xlink:title="Get pointer to bound sensor.">
<polygon fill="white" stroke="#666666" points="496.88,-30.5 351.88,-30.5 351.88,0 496.88,0 496.88,-30.5"/>
<text xml:space="preserve" text-anchor="start" x="359.88" y="-17" font-family="Helvetica,sans-Serif" font-size="10.00">MeasurementPoint::getBound</text>
<text xml:space="preserve" text-anchor="middle" x="424.38" y="-5.75" font-family="Helvetica,sans-Serif" font-size="10.00">Sensor</text>
</a>
</g>
</g>
<!-- Node10&#45;&gt;Node12 -->
<g id="edge11_Node000010_Node000012" class="edge">
<title>Node10&#45;&gt;Node12</title>
<g id="a_edge11_Node000010_Node000012"><a xlink:title=" ">
<path fill="none" stroke="#63b8ff" d="M244.79,-175.74C258.31,-144.97 292.69,-76.03 343.25,-39.25 344.61,-38.26 346.01,-37.31 347.44,-36.41"/>
<polygon fill="#63b8ff" stroke="#63b8ff" points="348.94,-39.58 356,-31.68 345.55,-33.45 348.94,-39.58"/>
</a>
</g>
</g>
<!-- Node13 -->
<g id="Node000013" class="node">
<title>Node13</title>
<g id="a_Node000013"><a xlink:href="class_sensor.html#a9f793cde2918130fbc77dad1aebfe53a" target="_top" xlink:title="Get DS18B20 ROM address as hex string.">
<polygon fill="white" stroke="#666666" points="501.75,-313.88 347,-313.88 347,-294.62 501.75,-294.62 501.75,-313.88"/>
<text xml:space="preserve" text-anchor="middle" x="424.38" y="-300.38" font-family="Helvetica,sans-Serif" font-size="10.00">Sensor::getDS18B20RomString</text>
</a>
</g>
</g>
<!-- Node10&#45;&gt;Node13 -->
<g id="edge12_Node000010_Node000013" class="edge">
<title>Node10&#45;&gt;Node13</title>
<g id="a_edge12_Node000010_Node000013"><a xlink:title=" ">
<path fill="none" stroke="#63b8ff" d="M251.22,-206.85C269.45,-227.94 304.9,-265.2 343.25,-285.25 346.95,-287.19 350.85,-288.93 354.86,-290.49"/>
<polygon fill="#63b8ff" stroke="#63b8ff" points="353.62,-293.77 364.21,-293.75 355.92,-287.16 353.62,-293.77"/>
</a>
</g>
</g>
<!-- Node14 -->
<g id="Node000014" class="node">
<title>Node14</title>
<g id="a_Node000014"><a xlink:href="class_measurement_point.html#a71d6d440240f110cbd80c58bbc47aff6" target="_top" xlink:title="Get high alarm threshold.">
<polygon fill="white" stroke="#666666" points="493.12,-276.5 355.62,-276.5 355.62,-246 493.12,-246 493.12,-276.5"/>
<text xml:space="preserve" text-anchor="start" x="363.62" y="-263" font-family="Helvetica,sans-Serif" font-size="10.00">MeasurementPoint::getHigh</text>
<text xml:space="preserve" text-anchor="middle" x="424.38" y="-251.75" font-family="Helvetica,sans-Serif" font-size="10.00">AlarmThreshold</text>
</a>
</g>
</g>
<!-- Node10&#45;&gt;Node14 -->
<g id="edge13_Node000010_Node000014" class="edge">
<title>Node10&#45;&gt;Node14</title>
<g id="a_edge13_Node000010_Node000014"><a xlink:title=" ">
<path fill="none" stroke="#63b8ff" d="M272.5,-206.95C292.83,-216.04 319.28,-227.39 343.25,-236.25 348.58,-238.22 354.15,-240.17 359.75,-242.06"/>
<polygon fill="#63b8ff" stroke="#63b8ff" points="358.5,-245.33 369.09,-245.14 360.69,-238.68 358.5,-245.33"/>
</a>
</g>
</g>
<!-- Node15 -->
<g id="Node000015" class="node">
<title>Node15</title>
<g id="a_Node000015"><a xlink:href="class_measurement_point.html#a6e538e117d9e22c6998b56519a51d6ba" target="_top" xlink:title="Get low alarm threshold.">
<polygon fill="white" stroke="#666666" points="492,-227.5 356.75,-227.5 356.75,-197 492,-197 492,-227.5"/>
<text xml:space="preserve" text-anchor="start" x="364.75" y="-214" font-family="Helvetica,sans-Serif" font-size="10.00">MeasurementPoint::getLow</text>
<text xml:space="preserve" text-anchor="middle" x="424.38" y="-202.75" font-family="Helvetica,sans-Serif" font-size="10.00">AlarmThreshold</text>
</a>
</g>
</g>
<!-- Node10&#45;&gt;Node15 -->
<g id="edge14_Node000010_Node000015" class="edge">
<title>Node10&#45;&gt;Node15</title>
<g id="a_edge14_Node000010_Node000015"><a xlink:title=" ">
<path fill="none" stroke="#63b8ff" d="M306.21,-198.95C318.89,-200.39 332.24,-201.91 345.21,-203.38"/>
<polygon fill="#63b8ff" stroke="#63b8ff" points="344.64,-206.83 354.97,-204.49 345.43,-199.88 344.64,-206.83"/>
</a>
</g>
</g>
<!-- Node16 -->
<g id="Node000016" class="node">
<title>Node16</title>
<g id="a_Node000016"><a xlink:href="class_measurement_point.html#aa3a80d373c7609c7b178bf7353ffdd7a" target="_top" xlink:title="Get measurement point name.">
<polygon fill="white" stroke="#666666" points="496.12,-178.88 352.62,-178.88 352.62,-159.62 496.12,-159.62 496.12,-178.88"/>
<text xml:space="preserve" text-anchor="middle" x="424.38" y="-165.38" font-family="Helvetica,sans-Serif" font-size="10.00">MeasurementPoint::getName</text>
</a>
</g>
</g>
<!-- Node10&#45;&gt;Node16 -->
<g id="edge15_Node000010_Node000016" class="edge">
<title>Node10&#45;&gt;Node16</title>
<g id="a_edge15_Node000010_Node000016"><a xlink:title=" ">
<path fill="none" stroke="#63b8ff" d="M306.21,-183.18C317.54,-181.84 329.41,-180.42 341.05,-179.04"/>
<polygon fill="#63b8ff" stroke="#63b8ff" points="341.11,-182.56 350.63,-177.9 340.28,-175.61 341.11,-182.56"/>
</a>
</g>
</g>
<!-- Node17 -->
<g id="Node000017" class="node">
<title>Node17</title>
<g id="a_Node000017"><a xlink:href="class_sensor.html#a6f57825e90b759ccdb9fe07b3a36953d" target="_top" xlink:title="Get PT1000 chip select pin.">
<polygon fill="white" stroke="#666666" points="505.5,-141.88 343.25,-141.88 343.25,-122.62 505.5,-122.62 505.5,-141.88"/>
<text xml:space="preserve" text-anchor="middle" x="424.38" y="-128.38" font-family="Helvetica,sans-Serif" font-size="10.00">Sensor::getPT1000ChipSelectPin</text>
</a>
</g>
</g>
<!-- Node10&#45;&gt;Node17 -->
<g id="edge16_Node000010_Node000017" class="edge">
<title>Node10&#45;&gt;Node17</title>
<g id="a_edge16_Node000010_Node000017"><a xlink:title=" ">
<path fill="none" stroke="#63b8ff" d="M274.3,-175.64C294.33,-167.34 319.88,-157.4 343.25,-150.25 349.36,-148.38 355.79,-146.61 362.24,-144.97"/>
<polygon fill="#63b8ff" stroke="#63b8ff" points="362.71,-148.46 371.59,-142.69 361.04,-141.66 362.71,-148.46"/>
</a>
</g>
</g>
<!-- Node18 -->
<g id="Node000018" class="node">
<title>Node18</title>
<g id="a_Node000018"><a xlink:href="class_sensor.html#a0f6f095e7cfdfffb2a395dfdae7cfa53" target="_top" xlink:title="Get sensor type.">
<polygon fill="white" stroke="#666666" points="468,-104.88 380.75,-104.88 380.75,-85.62 468,-85.62 468,-104.88"/>
<text xml:space="preserve" text-anchor="middle" x="424.38" y="-91.38" font-family="Helvetica,sans-Serif" font-size="10.00">Sensor::getType</text>
</a>
</g>
</g>
<!-- Node10&#45;&gt;Node18 -->
<g id="edge17_Node000010_Node000018" class="edge">
<title>Node10&#45;&gt;Node18</title>
<g id="a_edge17_Node000010_Node000018"><a xlink:title=" ">
<path fill="none" stroke="#63b8ff" d="M254.75,-175.57C274.26,-157.77 308.6,-129.15 343.25,-113.25 351.36,-109.53 360.29,-106.55 369.16,-104.18"/>
<polygon fill="#63b8ff" stroke="#63b8ff" points="369.93,-107.59 378.82,-101.84 368.28,-100.79 369.93,-107.59"/>
</a>
</g>
</g>
</g>
</svg>
