<?xml version="1.0" encoding="UTF-8" standalone="no"?>
<!DOCTYPE svg PUBLIC "-//W3C//DTD SVG 1.1//EN"
 "http://www.w3.org/Graphics/SVG/1.1/DTD/svg11.dtd">
<!-- Generated by graphviz version 13.1.0 (20250701.0955)
 -->
<!-- Title: LoggerManager::logWarning Pages: 1 -->
<svg width="708pt" height="211pt"
 viewBox="0.00 0.00 708.00 211.00" xmlns="http://www.w3.org/2000/svg" xmlns:xlink="http://www.w3.org/1999/xlink">
<g id="graph0" class="graph" transform="scale(1 1) rotate(0) translate(4 206.88)">
<title>LoggerManager::logWarning</title>
<!-- Node1 -->
<g id="Node000001" class="node">
<title>Node1</title>
<g id="a_Node000001"><a xlink:title=" ">
<polygon fill="#999999" stroke="#666666" points="136.75,-105.25 0,-105.25 0,-86 136.75,-86 136.75,-105.25"/>
<text xml:space="preserve" text-anchor="middle" x="68.38" y="-91.75" font-family="Helvetica,sans-Serif" font-size="10.00">LoggerManager::logWarning</text>
</a>
</g>
</g>
<!-- Node2 -->
<g id="Node000002" class="node">
<title>Node2</title>
<g id="a_Node000002"><a xlink:href="$class_logger_manager.html#a0df2f2c96123da1989d0aaf6a4dc1615" xlink:title=" ">
<polygon fill="white" stroke="#666666" points="299.75,-105.25 172.75,-105.25 172.75,-86 299.75,-86 299.75,-105.25"/>
<text xml:space="preserve" text-anchor="middle" x="236.25" y="-91.75" font-family="Helvetica,sans-Serif" font-size="10.00">LoggerManager::logEvent</text>
</a>
</g>
</g>
<!-- Node1&#45;&gt;Node2 -->
<g id="edge1_Node000001_Node000002" class="edge">
<title>Node1&#45;&gt;Node2</title>
<g id="a_edge1_Node000001_Node000002"><a xlink:title=" ">
<path fill="none" stroke="#63b8ff" d="M136.84,-95.62C144.83,-95.62 153.01,-95.62 161.09,-95.62"/>
<polygon fill="#63b8ff" stroke="#63b8ff" points="160.88,-99.13 170.88,-95.63 160.88,-92.13 160.88,-99.13"/>
</a>
</g>
</g>
<!-- Node3 -->
<g id="Node000003" class="node">
<title>Node3</title>
<g id="a_Node000003"><a xlink:href="$class_logger_manager.html#a4f7591a3b5cb024b7354005b4362e049" xlink:title=" ">
<polygon fill="white" stroke="#666666" points="490.5,-202.88 341.75,-202.88 341.75,-172.38 490.5,-172.38 490.5,-202.88"/>
<text xml:space="preserve" text-anchor="start" x="349.75" y="-189.38" font-family="Helvetica,sans-Serif" font-size="10.00">LoggerManager::_ensureEvent</text>
<text xml:space="preserve" text-anchor="middle" x="416.12" y="-178.12" font-family="Helvetica,sans-Serif" font-size="10.00">LogExists</text>
</a>
</g>
</g>
<!-- Node2&#45;&gt;Node3 -->
<g id="edge2_Node000002_Node000003" class="edge">
<title>Node2&#45;&gt;Node3</title>
<g id="a_edge2_Node000002_Node000003"><a xlink:title=" ">
<path fill="none" stroke="#63b8ff" d="M249.28,-105.54C267.16,-119.86 302.25,-146.39 335.75,-162.62 339.66,-164.52 343.75,-166.31 347.92,-168.01"/>
<polygon fill="#63b8ff" stroke="#63b8ff" points="346.39,-171.17 356.98,-171.46 348.88,-164.63 346.39,-171.17"/>
</a>
</g>
</g>
<!-- Node5 -->
<g id="Node000005" class="node">
<title>Node5</title>
<g id="a_Node000005"><a xlink:href="$class_logger_manager.html#a9cf35430e1e61515c6fb12524a58f1ab" xlink:title=" ">
<polygon fill="white" stroke="#666666" points="481.88,-153.88 350.38,-153.88 350.38,-123.38 481.88,-123.38 481.88,-153.88"/>
<text xml:space="preserve" text-anchor="start" x="358.38" y="-140.38" font-family="Helvetica,sans-Serif" font-size="10.00">LoggerManager::_generate</text>
<text xml:space="preserve" text-anchor="middle" x="416.12" y="-129.12" font-family="Helvetica,sans-Serif" font-size="10.00">EventLogFileName</text>
</a>
</g>
</g>
<!-- Node2&#45;&gt;Node5 -->
<g id="edge4_Node000002_Node000005" class="edge">
<title>Node2&#45;&gt;Node5</title>
<g id="a_edge4_Node000002_Node000005"><a xlink:title=" ">
<path fill="none" stroke="#63b8ff" d="M278.95,-105.71C296.88,-110.04 318.42,-115.25 339.02,-120.23"/>
<polygon fill="#63b8ff" stroke="#63b8ff" points="338,-123.58 348.54,-122.53 339.64,-116.78 338,-123.58"/>
</a>
</g>
</g>
<!-- Node6 -->
<g id="Node000006" class="node">
<title>Node6</title>
<g id="a_Node000006"><a xlink:href="$class_logger_manager.html#a3ca0b934265a4d9ce6391bf97dec179a" xlink:title=" ">
<polygon fill="white" stroke="#666666" points="686.12,-131.88 546.38,-131.88 546.38,-101.38 686.12,-101.38 686.12,-131.88"/>
<text xml:space="preserve" text-anchor="start" x="554.38" y="-118.38" font-family="Helvetica,sans-Serif" font-size="10.00">LoggerManager::_getCurrent</text>
<text xml:space="preserve" text-anchor="middle" x="616.25" y="-107.12" font-family="Helvetica,sans-Serif" font-size="10.00">DateString</text>
</a>
</g>
</g>
<!-- Node2&#45;&gt;Node6 -->
<g id="edge6_Node000002_Node000006" class="edge">
<title>Node2&#45;&gt;Node6</title>
<g id="a_edge6_Node000002_Node000006"><a xlink:title=" ">
<path fill="none" stroke="#63b8ff" d="M300.09,-99.12C364.43,-102.69 464.65,-108.26 534.75,-112.15"/>
<polygon fill="#63b8ff" stroke="#63b8ff" points="534.48,-115.64 544.66,-112.7 534.87,-108.65 534.48,-115.64"/>
</a>
</g>
</g>
<!-- Node7 -->
<g id="Node000007" class="node">
<title>Node7</title>
<g id="a_Node000007"><a xlink:href="$class_logger_manager.html#a4f31651f8963f741bfbdb944164ffc15" xlink:title=" ">
<polygon fill="white" stroke="#666666" points="486,-67.88 346.25,-67.88 346.25,-37.38 486,-37.38 486,-67.88"/>
<text xml:space="preserve" text-anchor="start" x="354.25" y="-54.38" font-family="Helvetica,sans-Serif" font-size="10.00">LoggerManager::_getCurrent</text>
<text xml:space="preserve" text-anchor="middle" x="416.12" y="-43.12" font-family="Helvetica,sans-Serif" font-size="10.00">TimeString</text>
</a>
</g>
</g>
<!-- Node2&#45;&gt;Node7 -->
<g id="edge7_Node000002_Node000007" class="edge">
<title>Node2&#45;&gt;Node7</title>
<g id="a_edge7_Node000002_Node000007"><a xlink:title=" ">
<path fill="none" stroke="#63b8ff" d="M278.95,-85.54C296.88,-81.21 318.42,-76 339.02,-71.02"/>
<polygon fill="#63b8ff" stroke="#63b8ff" points="339.64,-74.47 348.54,-68.72 338,-67.67 339.64,-74.47"/>
</a>
</g>
</g>
<!-- Node8 -->
<g id="Node000008" class="node">
<title>Node8</title>
<g id="a_Node000008"><a xlink:href="$class_logger_manager.html#a472884ce9e2aed6a1570187dd37cc006" xlink:title=" ">
<polygon fill="white" stroke="#666666" points="496.5,-19.25 335.75,-19.25 335.75,0 496.5,0 496.5,-19.25"/>
<text xml:space="preserve" text-anchor="middle" x="416.12" y="-5.75" font-family="Helvetica,sans-Serif" font-size="10.00">LoggerManager::_writeEventRow</text>
</a>
</g>
</g>
<!-- Node2&#45;&gt;Node8 -->
<g id="edge8_Node000002_Node000008" class="edge">
<title>Node2&#45;&gt;Node8</title>
<g id="a_edge8_Node000002_Node000008"><a xlink:title=" ">
<path fill="none" stroke="#63b8ff" d="M248.84,-85.64C266.45,-70.98 301.51,-43.76 335.75,-28.62 340.52,-26.52 345.56,-24.62 350.69,-22.92"/>
<polygon fill="#63b8ff" stroke="#63b8ff" points="351.3,-26.39 359.86,-20.14 349.27,-19.7 351.3,-26.39"/>
</a>
</g>
</g>
<!-- Node4 -->
<g id="Node000004" class="node">
<title>Node4</title>
<g id="a_Node000004"><a xlink:href="$class_logger_manager.html#a515beeaa428acafce139d79b41fe9d0a" xlink:title=" ">
<polygon fill="white" stroke="#666666" points="686.5,-202.88 546,-202.88 546,-172.38 686.5,-172.38 686.5,-202.88"/>
<text xml:space="preserve" text-anchor="start" x="554" y="-189.38" font-family="Helvetica,sans-Serif" font-size="10.00">LoggerManager::_writeEvent</text>
<text xml:space="preserve" text-anchor="middle" x="616.25" y="-178.12" font-family="Helvetica,sans-Serif" font-size="10.00">Header</text>
</a>
</g>
</g>
<!-- Node3&#45;&gt;Node4 -->
<g id="edge3_Node000003_Node000004" class="edge">
<title>Node3&#45;&gt;Node4</title>
<g id="a_edge3_Node000003_Node000004"><a xlink:title=" ">
<path fill="none" stroke="#63b8ff" d="M490.9,-187.62C505.05,-187.62 519.94,-187.62 534.3,-187.62"/>
<polygon fill="#63b8ff" stroke="#63b8ff" points="534.17,-191.13 544.17,-187.63 534.17,-184.13 534.17,-191.13"/>
</a>
</g>
</g>
<!-- Node5&#45;&gt;Node6 -->
<g id="edge5_Node000005_Node000006" class="edge">
<title>Node5&#45;&gt;Node6</title>
<g id="a_edge5_Node000005_Node000006"><a xlink:title=" ">
<path fill="none" stroke="#63b8ff" d="M482.27,-131.39C499.02,-129.53 517.24,-127.51 534.66,-125.57"/>
<polygon fill="#63b8ff" stroke="#63b8ff" points="534.92,-129.07 544.47,-124.48 534.15,-122.11 534.92,-129.07"/>
</a>
</g>
</g>
<!-- Node9 -->
<g id="Node000009" class="node">
<title>Node9</title>
<g id="a_Node000009"><a xlink:href="$class_logger_manager.html#a57d230cd2896120a32ecf55a14895d55" xlink:title=" ">
<polygon fill="white" stroke="#666666" points="700,-19.25 532.5,-19.25 532.5,0 700,0 700,-19.25"/>
<text xml:space="preserve" text-anchor="middle" x="616.25" y="-5.75" font-family="Helvetica,sans-Serif" font-size="10.00">LoggerManager::_escapeCSVField</text>
</a>
</g>
</g>
<!-- Node8&#45;&gt;Node9 -->
<g id="edge9_Node000008_Node000009" class="edge">
<title>Node8&#45;&gt;Node9</title>
<g id="a_edge9_Node000008_Node000009"><a xlink:title=" ">
<path fill="none" stroke="#63b8ff" d="M496.85,-9.62C504.75,-9.62 512.81,-9.62 520.83,-9.62"/>
<polygon fill="#63b8ff" stroke="#63b8ff" points="520.61,-13.13 530.61,-9.63 520.61,-6.13 520.61,-13.13"/>
</a>
</g>
</g>
</g>
</svg>
