<?xml version="1.0" encoding="UTF-8" standalone="no"?>
<!DOCTYPE svg PUBLIC "-//W3C//DTD SVG 1.1//EN"
 "http://www.w3.org/Graphics/SVG/1.1/DTD/svg11.dtd">
<!-- Generated by graphviz version 13.1.0 (20250701.0955)
 -->
<!-- Title: IndicatorInterface::setOledModeSmall Pages: 1 -->
<svg width="282pt" height="88pt"
 viewBox="0.00 0.00 282.00 88.00" xmlns="http://www.w3.org/2000/svg" xmlns:xlink="http://www.w3.org/1999/xlink">
<g id="graph0" class="graph" transform="scale(1 1) rotate(0) translate(4 83.5)">
<title>IndicatorInterface::setOledModeSmall</title>
<!-- Node1 -->
<g id="Node000001" class="node">
<title>Node1</title>
<g id="a_Node000001"><a xlink:title="Set OLED display mode with small font option.">
<polygon fill="#999999" stroke="#666666" points="104.5,-54.5 0,-54.5 0,-24 104.5,-24 104.5,-54.5"/>
<text xml:space="preserve" text-anchor="start" x="8" y="-41" font-family="Helvetica,sans-Serif" font-size="10.00">IndicatorInterface</text>
<text xml:space="preserve" text-anchor="middle" x="52.25" y="-29.75" font-family="Helvetica,sans-Serif" font-size="10.00">::setOledModeSmall</text>
</a>
</g>
</g>
<!-- Node2 -->
<g id="Node000002" class="node">
<title>Node2</title>
<g id="a_Node000002"><a xlink:href="class_indicator_interface.html#a2f021f6fa16dec590a8b9cf41a82349d" target="_top" xlink:title="Calculate display parameters.">
<polygon fill="white" stroke="#666666" points="273.5,-79.5 140.5,-79.5 140.5,-49 273.5,-49 273.5,-79.5"/>
<text xml:space="preserve" text-anchor="start" x="148.5" y="-66" font-family="Helvetica,sans-Serif" font-size="10.00">IndicatorInterface</text>
<text xml:space="preserve" text-anchor="middle" x="207" y="-54.75" font-family="Helvetica,sans-Serif" font-size="10.00">::_calculateDisplayParams</text>
</a>
</g>
</g>
<!-- Node1&#45;&gt;Node2 -->
<g id="edge1_Node000001_Node000002" class="edge">
<title>Node1&#45;&gt;Node2</title>
<g id="a_edge1_Node000001_Node000002"><a xlink:title=" ">
<path fill="none" stroke="#63b8ff" d="M104.96,-47.71C112.76,-48.99 120.94,-50.33 129.12,-51.67"/>
<polygon fill="#63b8ff" stroke="#63b8ff" points="128.33,-55.08 138.76,-53.25 129.46,-48.18 128.33,-55.08"/>
</a>
</g>
</g>
<!-- Node3 -->
<g id="Node000003" class="node">
<title>Node3</title>
<g id="a_Node000003"><a xlink:href="class_indicator_interface.html#af64dc2a4b4256050b070991dfaf05f1a" target="_top" xlink:title="Wake OLED from sleep.">
<polygon fill="white" stroke="#666666" points="252.88,-30.5 161.12,-30.5 161.12,0 252.88,0 252.88,-30.5"/>
<text xml:space="preserve" text-anchor="start" x="169.12" y="-17" font-family="Helvetica,sans-Serif" font-size="10.00">IndicatorInterface</text>
<text xml:space="preserve" text-anchor="middle" x="207" y="-5.75" font-family="Helvetica,sans-Serif" font-size="10.00">::_wakeOLED</text>
</a>
</g>
</g>
<!-- Node1&#45;&gt;Node3 -->
<g id="edge2_Node000001_Node000003" class="edge">
<title>Node1&#45;&gt;Node3</title>
<g id="a_edge2_Node000001_Node000003"><a xlink:title=" ">
<path fill="none" stroke="#63b8ff" d="M104.96,-31.12C119.38,-28.86 135.11,-26.39 149.77,-24.09"/>
<polygon fill="#63b8ff" stroke="#63b8ff" points="149.9,-27.61 159.24,-22.6 148.81,-20.69 149.9,-27.61"/>
</a>
</g>
</g>
</g>
</svg>
