<?xml version="1.0" encoding="UTF-8" standalone="no"?>
<!DOCTYPE svg PUBLIC "-//W3C//DTD SVG 1.1//EN"
 "http://www.w3.org/Graphics/SVG/1.1/DTD/svg11.dtd">
<!-- Generated by graphviz version 13.1.0 (20250701.0955)
 -->
<!-- Title: ConfigManager::pointsAPI Pages: 1 -->
<svg width="517pt" height="408pt"
 viewBox="0.00 0.00 517.00 408.00" xmlns="http://www.w3.org/2000/svg" xmlns:xlink="http://www.w3.org/1999/xlink">
<g id="graph0" class="graph" transform="scale(1 1) rotate(0) translate(4 403.5)">
<title>ConfigManager::pointsAPI</title>
<!-- Node1 -->
<g id="Node000001" class="node">
<title>Node1</title>
<g id="a_Node000001"><a xlink:title="Setup measurement points API endpoints.">
<polygon fill="#999999" stroke="#666666" points="130.75,-221.88 0,-221.88 0,-202.62 130.75,-202.62 130.75,-221.88"/>
<text xml:space="preserve" text-anchor="middle" x="65.38" y="-208.38" font-family="Helvetica,sans-Serif" font-size="10.00">ConfigManager::pointsAPI</text>
</a>
</g>
</g>
<!-- Node2 -->
<g id="Node000002" class="node">
<title>Node2</title>
<g id="a_Node000002"><a xlink:href="$class_measurement_point.html#a71d6d440240f110cbd80c58bbc47aff6" xlink:title="Get high alarm threshold.">
<polygon fill="white" stroke="#666666" points="496.12,-399.5 358.62,-399.5 358.62,-369 496.12,-369 496.12,-399.5"/>
<text xml:space="preserve" text-anchor="start" x="366.62" y="-386" font-family="Helvetica,sans-Serif" font-size="10.00">MeasurementPoint::getHigh</text>
<text xml:space="preserve" text-anchor="middle" x="427.38" y="-374.75" font-family="Helvetica,sans-Serif" font-size="10.00">AlarmThreshold</text>
</a>
</g>
</g>
<!-- Node1&#45;&gt;Node2 -->
<g id="edge1_Node000001_Node000002" class="edge">
<title>Node1&#45;&gt;Node2</title>
<g id="a_edge1_Node000001_Node000002"><a xlink:title=" ">
<path fill="none" stroke="#63b8ff" d="M74.74,-222.13C90.78,-240.48 127.73,-279.95 166.75,-302.25 223.17,-334.49 293.86,-355.75 347.23,-368.53"/>
<polygon fill="#63b8ff" stroke="#63b8ff" points="346.33,-371.91 356.87,-370.78 347.93,-365.1 346.33,-371.91"/>
</a>
</g>
</g>
<!-- Node3 -->
<g id="Node000003" class="node">
<title>Node3</title>
<g id="a_Node000003"><a xlink:href="$class_measurement_point.html#a6e538e117d9e22c6998b56519a51d6ba" xlink:title="Get low alarm threshold.">
<polygon fill="white" stroke="#666666" points="495,-350.5 359.75,-350.5 359.75,-320 495,-320 495,-350.5"/>
<text xml:space="preserve" text-anchor="start" x="367.75" y="-337" font-family="Helvetica,sans-Serif" font-size="10.00">MeasurementPoint::getLow</text>
<text xml:space="preserve" text-anchor="middle" x="427.38" y="-325.75" font-family="Helvetica,sans-Serif" font-size="10.00">AlarmThreshold</text>
</a>
</g>
</g>
<!-- Node1&#45;&gt;Node3 -->
<g id="edge2_Node000001_Node000003" class="edge">
<title>Node1&#45;&gt;Node3</title>
<g id="a_edge2_Node000001_Node000003"><a xlink:title=" ">
<path fill="none" stroke="#63b8ff" d="M82.16,-222.25C101.47,-234.12 135.47,-253.88 166.75,-266.25 225.94,-289.66 295.82,-307.72 348.16,-319.48"/>
<polygon fill="#63b8ff" stroke="#63b8ff" points="347.38,-322.9 357.9,-321.64 348.9,-316.06 347.38,-322.9"/>
</a>
</g>
</g>
<!-- Node4 -->
<g id="Node000004" class="node">
<title>Node4</title>
<g id="a_Node000004"><a xlink:href="$class_measurement_point.html#aa3a80d373c7609c7b178bf7353ffdd7a" xlink:title="Get measurement point name.">
<polygon fill="white" stroke="#666666" points="499.12,-301.88 355.62,-301.88 355.62,-282.62 499.12,-282.62 499.12,-301.88"/>
<text xml:space="preserve" text-anchor="middle" x="427.38" y="-288.38" font-family="Helvetica,sans-Serif" font-size="10.00">MeasurementPoint::getName</text>
</a>
</g>
</g>
<!-- Node1&#45;&gt;Node4 -->
<g id="edge3_Node000001_Node000004" class="edge">
<title>Node1&#45;&gt;Node4</title>
<g id="a_edge3_Node000001_Node000004"><a xlink:title=" ">
<path fill="none" stroke="#63b8ff" d="M107.35,-222.27C125.52,-226.65 147.18,-231.8 166.75,-236.25 235.24,-251.82 314.14,-268.69 366.82,-279.8"/>
<polygon fill="#63b8ff" stroke="#63b8ff" points="365.99,-283.2 376.49,-281.83 367.43,-276.35 365.99,-283.2"/>
</a>
</g>
</g>
<!-- Node5 -->
<g id="Node000005" class="node">
<title>Node5</title>
<g id="a_Node000005"><a xlink:href="$class_config_manager.html#a55b79da91c57039c483ddf5fceabbd64" xlink:title="Save measurement points configuration to file.">
<polygon fill="white" stroke="#666666" points="306.88,-227.5 170.12,-227.5 170.12,-197 306.88,-197 306.88,-227.5"/>
<text xml:space="preserve" text-anchor="start" x="178.12" y="-214" font-family="Helvetica,sans-Serif" font-size="10.00">ConfigManager::savePoints</text>
<text xml:space="preserve" text-anchor="middle" x="238.5" y="-202.75" font-family="Helvetica,sans-Serif" font-size="10.00">Config</text>
</a>
</g>
</g>
<!-- Node1&#45;&gt;Node5 -->
<g id="edge4_Node000001_Node000005" class="edge">
<title>Node1&#45;&gt;Node5</title>
<g id="a_edge4_Node000001_Node000005"><a xlink:title=" ">
<path fill="none" stroke="#63b8ff" d="M131.07,-212.25C139.99,-212.25 149.23,-212.25 158.37,-212.25"/>
<polygon fill="#63b8ff" stroke="#63b8ff" points="158.35,-215.75 168.35,-212.25 158.35,-208.75 158.35,-215.75"/>
</a>
</g>
</g>
<!-- Node12 -->
<g id="Node000012" class="node">
<title>Node12</title>
<g id="a_Node000012"><a xlink:href="$class_measurement_point.html#aefb47fef40f33161be5c6fddf0cf6329" xlink:title="Set high alarm threshold.">
<polygon fill="white" stroke="#666666" points="307.25,-52.5 169.75,-52.5 169.75,-22 307.25,-22 307.25,-52.5"/>
<text xml:space="preserve" text-anchor="start" x="177.75" y="-39" font-family="Helvetica,sans-Serif" font-size="10.00">MeasurementPoint::setHigh</text>
<text xml:space="preserve" text-anchor="middle" x="238.5" y="-27.75" font-family="Helvetica,sans-Serif" font-size="10.00">AlarmThreshold</text>
</a>
</g>
</g>
<!-- Node1&#45;&gt;Node12 -->
<g id="edge14_Node000001_Node000012" class="edge">
<title>Node1&#45;&gt;Node12</title>
<g id="a_edge14_Node000001_Node000012"><a xlink:title=" ">
<path fill="none" stroke="#63b8ff" d="M70.37,-202.24C81.51,-175.55 115.52,-102.04 166.75,-62.25 168.49,-60.9 170.3,-59.62 172.18,-58.41"/>
<polygon fill="#63b8ff" stroke="#63b8ff" points="173.67,-61.58 180.66,-53.62 170.23,-55.49 173.67,-61.58"/>
</a>
</g>
</g>
<!-- Node14 -->
<g id="Node000014" class="node">
<title>Node14</title>
<g id="a_Node000014"><a xlink:href="$class_measurement_point.html#ac780917beebc11d705824cab8f43b94d" xlink:title="Set low alarm threshold.">
<polygon fill="white" stroke="#666666" points="306.12,-101.5 170.88,-101.5 170.88,-71 306.12,-71 306.12,-101.5"/>
<text xml:space="preserve" text-anchor="start" x="178.88" y="-88" font-family="Helvetica,sans-Serif" font-size="10.00">MeasurementPoint::setLow</text>
<text xml:space="preserve" text-anchor="middle" x="238.5" y="-76.75" font-family="Helvetica,sans-Serif" font-size="10.00">AlarmThreshold</text>
</a>
</g>
</g>
<!-- Node1&#45;&gt;Node14 -->
<g id="edge17_Node000001_Node000014" class="edge">
<title>Node1&#45;&gt;Node14</title>
<g id="a_edge17_Node000001_Node000014"><a xlink:title=" ">
<path fill="none" stroke="#63b8ff" d="M80.09,-202.15C107.58,-181.91 170,-135.95 207.45,-108.38"/>
<polygon fill="#63b8ff" stroke="#63b8ff" points="209.2,-111.44 215.17,-102.69 205.05,-105.8 209.2,-111.44"/>
</a>
</g>
</g>
<!-- Node15 -->
<g id="Node000015" class="node">
<title>Node15</title>
<g id="a_Node000015"><a xlink:href="$class_measurement_point.html#ae3abe83ed3e7979a906c7d753ac9d22d" xlink:title="Set measurement point name.">
<polygon fill="white" stroke="#666666" points="310.25,-169.88 166.75,-169.88 166.75,-150.62 310.25,-150.62 310.25,-169.88"/>
<text xml:space="preserve" text-anchor="middle" x="238.5" y="-156.38" font-family="Helvetica,sans-Serif" font-size="10.00">MeasurementPoint::setName</text>
</a>
</g>
</g>
<!-- Node1&#45;&gt;Node15 -->
<g id="edge20_Node000001_Node000015" class="edge">
<title>Node1&#45;&gt;Node15</title>
<g id="a_edge20_Node000001_Node000015"><a xlink:title=" ">
<path fill="none" stroke="#63b8ff" d="M99.37,-202.22C126.15,-194.09 164.16,-182.54 193.52,-173.61"/>
<polygon fill="#63b8ff" stroke="#63b8ff" points="194.32,-177.03 202.87,-170.77 192.28,-170.33 194.32,-177.03"/>
</a>
</g>
</g>
<!-- Node5&#45;&gt;Node2 -->
<g id="edge8_Node000005_Node000002" class="edge">
<title>Node5&#45;&gt;Node2</title>
<g id="a_edge8_Node000005_Node000002"><a xlink:title=" ">
<path fill="none" stroke="#63b8ff" d="M246.5,-227.66C260.87,-257.55 296.54,-323.57 346.25,-359.25 348.19,-360.64 350.21,-361.96 352.3,-363.21"/>
<polygon fill="#63b8ff" stroke="#63b8ff" points="350.61,-366.28 361.1,-367.83 353.87,-360.08 350.61,-366.28"/>
</a>
</g>
</g>
<!-- Node5&#45;&gt;Node3 -->
<g id="edge9_Node000005_Node000003" class="edge">
<title>Node5&#45;&gt;Node3</title>
<g id="a_edge9_Node000005_Node000003"><a xlink:title=" ">
<path fill="none" stroke="#63b8ff" d="M252,-227.64C270.43,-249.34 306.97,-288.79 346.25,-311.25 348.59,-312.59 351.01,-313.86 353.49,-315.06"/>
<polygon fill="#63b8ff" stroke="#63b8ff" points="352,-318.23 362.56,-319.05 354.82,-311.82 352,-318.23"/>
</a>
</g>
</g>
<!-- Node5&#45;&gt;Node4 -->
<g id="edge10_Node000005_Node000004" class="edge">
<title>Node5&#45;&gt;Node4</title>
<g id="a_edge10_Node000005_Node000004"><a xlink:title=" ">
<path fill="none" stroke="#63b8ff" d="M261.79,-227.93C282.71,-241.96 315.32,-262.13 346.25,-274.25 350.66,-275.98 355.26,-277.56 359.95,-279"/>
<polygon fill="#63b8ff" stroke="#63b8ff" points="358.94,-282.35 369.51,-281.72 360.85,-275.62 358.94,-282.35"/>
</a>
</g>
</g>
<!-- Node6 -->
<g id="Node000006" class="node">
<title>Node6</title>
<g id="a_Node000006"><a xlink:href="$class_measurement_point.html#a7b74a18d86e0e545264a774aa2c31cad" xlink:title="Get measurement point address.">
<polygon fill="white" stroke="#666666" points="504,-264.88 350.75,-264.88 350.75,-245.62 504,-245.62 504,-264.88"/>
<text xml:space="preserve" text-anchor="middle" x="427.38" y="-251.38" font-family="Helvetica,sans-Serif" font-size="10.00">MeasurementPoint::getAddress</text>
</a>
</g>
</g>
<!-- Node5&#45;&gt;Node6 -->
<g id="edge5_Node000005_Node000006" class="edge">
<title>Node5&#45;&gt;Node6</title>
<g id="a_edge5_Node000005_Node000006"><a xlink:title=" ">
<path fill="none" stroke="#63b8ff" d="M307.23,-227.83C328.28,-232.68 351.23,-237.96 371.31,-242.58"/>
<polygon fill="#63b8ff" stroke="#63b8ff" points="370.45,-245.97 380.98,-244.8 372.01,-239.15 370.45,-245.97"/>
</a>
</g>
</g>
<!-- Node7 -->
<g id="Node000007" class="node">
<title>Node7</title>
<g id="a_Node000007"><a xlink:href="$class_measurement_point.html#a81c7ae93a9314344967d0f31c6fefe2f" xlink:title="Get pointer to bound sensor.">
<polygon fill="white" stroke="#666666" points="499.88,-227.5 354.88,-227.5 354.88,-197 499.88,-197 499.88,-227.5"/>
<text xml:space="preserve" text-anchor="start" x="362.88" y="-214" font-family="Helvetica,sans-Serif" font-size="10.00">MeasurementPoint::getBound</text>
<text xml:space="preserve" text-anchor="middle" x="427.38" y="-202.75" font-family="Helvetica,sans-Serif" font-size="10.00">Sensor</text>
</a>
</g>
</g>
<!-- Node5&#45;&gt;Node7 -->
<g id="edge6_Node000005_Node000007" class="edge">
<title>Node5&#45;&gt;Node7</title>
<g id="a_edge6_Node000005_Node000007"><a xlink:title=" ">
<path fill="none" stroke="#63b8ff" d="M307.23,-212.25C318.87,-212.25 331.08,-212.25 343.07,-212.25"/>
<polygon fill="#63b8ff" stroke="#63b8ff" points="342.95,-215.75 352.95,-212.25 342.95,-208.75 342.95,-215.75"/>
</a>
</g>
</g>
<!-- Node8 -->
<g id="Node000008" class="node">
<title>Node8</title>
<g id="a_Node000008"><a xlink:href="$class_sensor.html#a9f793cde2918130fbc77dad1aebfe53a" xlink:title="Get DS18B20 ROM address as hex string.">
<polygon fill="white" stroke="#666666" points="504.75,-178.88 350,-178.88 350,-159.62 504.75,-159.62 504.75,-178.88"/>
<text xml:space="preserve" text-anchor="middle" x="427.38" y="-165.38" font-family="Helvetica,sans-Serif" font-size="10.00">Sensor::getDS18B20RomString</text>
</a>
</g>
</g>
<!-- Node5&#45;&gt;Node8 -->
<g id="edge7_Node000005_Node000008" class="edge">
<title>Node5&#45;&gt;Node8</title>
<g id="a_edge7_Node000005_Node000008"><a xlink:title=" ">
<path fill="none" stroke="#63b8ff" d="M307.23,-196.67C328.28,-191.82 351.23,-186.54 371.31,-181.92"/>
<polygon fill="#63b8ff" stroke="#63b8ff" points="372.01,-185.35 380.98,-179.7 370.45,-178.53 372.01,-185.35"/>
</a>
</g>
</g>
<!-- Node9 -->
<g id="Node000009" class="node">
<title>Node9</title>
<g id="a_Node000009"><a xlink:href="$class_sensor.html#a6f57825e90b759ccdb9fe07b3a36953d" xlink:title="Get PT1000 chip select pin.">
<polygon fill="white" stroke="#666666" points="508.5,-141.88 346.25,-141.88 346.25,-122.62 508.5,-122.62 508.5,-141.88"/>
<text xml:space="preserve" text-anchor="middle" x="427.38" y="-128.38" font-family="Helvetica,sans-Serif" font-size="10.00">Sensor::getPT1000ChipSelectPin</text>
</a>
</g>
</g>
<!-- Node5&#45;&gt;Node9 -->
<g id="edge11_Node000005_Node000009" class="edge">
<title>Node5&#45;&gt;Node9</title>
<g id="a_edge11_Node000005_Node000009"><a xlink:title=" ">
<path fill="none" stroke="#63b8ff" d="M277.47,-196.59C288.34,-191.56 300.01,-185.63 310.25,-179.25 327.69,-168.38 327.75,-159.18 346.25,-150.25 349.52,-148.67 352.94,-147.23 356.44,-145.91"/>
<polygon fill="#63b8ff" stroke="#63b8ff" points="357.33,-149.3 365.69,-142.8 355.09,-142.67 357.33,-149.3"/>
</a>
</g>
</g>
<!-- Node10 -->
<g id="Node000010" class="node">
<title>Node10</title>
<g id="a_Node000010"><a xlink:href="$class_sensor.html#a0f6f095e7cfdfffb2a395dfdae7cfa53" xlink:title="Get sensor type.">
<polygon fill="white" stroke="#666666" points="471,-104.88 383.75,-104.88 383.75,-85.62 471,-85.62 471,-104.88"/>
<text xml:space="preserve" text-anchor="middle" x="427.38" y="-91.38" font-family="Helvetica,sans-Serif" font-size="10.00">Sensor::getType</text>
</a>
</g>
</g>
<!-- Node5&#45;&gt;Node10 -->
<g id="edge12_Node000005_Node000010" class="edge">
<title>Node5&#45;&gt;Node10</title>
<g id="a_edge12_Node000005_Node000010"><a xlink:title=" ">
<path fill="none" stroke="#63b8ff" d="M284.48,-196.52C293.7,-191.92 302.84,-186.21 310.25,-179.25 334.61,-156.38 319.57,-133.37 346.25,-113.25 353.94,-107.45 363.15,-103.46 372.55,-100.72"/>
<polygon fill="#63b8ff" stroke="#63b8ff" points="373.21,-104.16 382.11,-98.41 371.57,-97.36 373.21,-104.16"/>
</a>
</g>
</g>
<!-- Node11 -->
<g id="Node000011" class="node">
<title>Node11</title>
<g id="a_Node000011"><a xlink:href="$class_logger_manager.html#a5c1373ccc47f4112b596fe6f84fbbc21" xlink:title="Log informational message (static convenience method)">
<polygon fill="white" stroke="#666666" points="479.62,-67.88 375.12,-67.88 375.12,-48.62 479.62,-48.62 479.62,-67.88"/>
<text xml:space="preserve" text-anchor="middle" x="427.38" y="-54.38" font-family="Helvetica,sans-Serif" font-size="10.00">LoggerManager::info</text>
</a>
</g>
</g>
<!-- Node5&#45;&gt;Node11 -->
<g id="edge13_Node000005_Node000011" class="edge">
<title>Node5&#45;&gt;Node11</title>
<g id="a_edge13_Node000005_Node000011"><a xlink:title=" ">
<path fill="none" stroke="#63b8ff" d="M286.83,-196.64C295.48,-192.1 303.79,-186.39 310.25,-179.25 342.78,-143.29 310.04,-108.51 346.25,-76.25 351.49,-71.58 357.68,-68.04 364.25,-65.37"/>
<polygon fill="#63b8ff" stroke="#63b8ff" points="365.01,-68.81 373.39,-62.33 362.8,-62.17 365.01,-68.81"/>
</a>
</g>
</g>
<!-- Node12&#45;&gt;Node11 -->
<g id="edge15_Node000012_Node000011" class="edge">
<title>Node12&#45;&gt;Node11</title>
<g id="a_edge15_Node000012_Node000011"><a xlink:title=" ">
<path fill="none" stroke="#63b8ff" d="M307.49,-44.89C325.82,-46.95 345.55,-49.17 363.57,-51.19"/>
<polygon fill="#63b8ff" stroke="#63b8ff" points="363.01,-54.65 373.34,-52.29 363.79,-47.7 363.01,-54.65"/>
</a>
</g>
</g>
<!-- Node13 -->
<g id="Node000013" class="node">
<title>Node13</title>
<g id="a_Node000013"><a xlink:href="$class_measurement_point.html#a71995209f2507e6cc15d01607f60767f" xlink:title="Update alarm status based on current temperature.">
<polygon fill="white" stroke="#666666" points="493.88,-30.5 360.88,-30.5 360.88,0 493.88,0 493.88,-30.5"/>
<text xml:space="preserve" text-anchor="start" x="368.88" y="-17" font-family="Helvetica,sans-Serif" font-size="10.00">MeasurementPoint::update</text>
<text xml:space="preserve" text-anchor="middle" x="427.38" y="-5.75" font-family="Helvetica,sans-Serif" font-size="10.00">AlarmStatus</text>
</a>
</g>
</g>
<!-- Node12&#45;&gt;Node13 -->
<g id="edge16_Node000012_Node000013" class="edge">
<title>Node12&#45;&gt;Node13</title>
<g id="a_edge16_Node000012_Node000013"><a xlink:title=" ">
<path fill="none" stroke="#63b8ff" d="M307.49,-29.25C321.16,-27.64 335.62,-25.93 349.57,-24.29"/>
<polygon fill="#63b8ff" stroke="#63b8ff" points="349.59,-27.81 359.11,-23.17 348.77,-20.86 349.59,-27.81"/>
</a>
</g>
</g>
<!-- Node14&#45;&gt;Node11 -->
<g id="edge18_Node000014_Node000011" class="edge">
<title>Node14&#45;&gt;Node11</title>
<g id="a_edge18_Node000014_Node000011"><a xlink:title=" ">
<path fill="none" stroke="#63b8ff" d="M306.44,-76.22C325.09,-73.43 345.27,-70.4 363.66,-67.65"/>
<polygon fill="#63b8ff" stroke="#63b8ff" points="363.99,-71.14 373.36,-66.19 362.95,-64.21 363.99,-71.14"/>
</a>
</g>
</g>
<!-- Node14&#45;&gt;Node13 -->
<g id="edge19_Node000014_Node000013" class="edge">
<title>Node14&#45;&gt;Node13</title>
<g id="a_edge19_Node000014_Node000013"><a xlink:title=" ">
<path fill="none" stroke="#63b8ff" d="M288,-70.63C295.56,-67.77 303.19,-64.61 310.25,-61.25 327.18,-53.19 329.13,-46.89 346.25,-39.25 349.74,-37.69 353.35,-36.2 357.04,-34.78"/>
<polygon fill="#63b8ff" stroke="#63b8ff" points="357.91,-38.19 366.11,-31.48 355.52,-31.61 357.91,-38.19"/>
</a>
</g>
</g>
<!-- Node15&#45;&gt;Node11 -->
<g id="edge21_Node000015_Node000011" class="edge">
<title>Node15&#45;&gt;Node11</title>
<g id="a_edge21_Node000015_Node000011"><a xlink:title=" ">
<path fill="none" stroke="#63b8ff" d="M255.14,-150.13C269.79,-140.43 292.09,-125.11 310.25,-110.25 327.28,-96.31 326.82,-86.59 346.25,-76.25 351.89,-73.25 358.02,-70.74 364.29,-68.66"/>
<polygon fill="#63b8ff" stroke="#63b8ff" points="364.85,-72.14 373.45,-65.95 362.87,-65.43 364.85,-72.14"/>
</a>
</g>
</g>
</g>
</svg>
