<?xml version="1.0" encoding="UTF-8" standalone="no"?>
<!DOCTYPE svg PUBLIC "-//W3C//DTD SVG 1.1//EN"
 "http://www.w3.org/Graphics/SVG/1.1/DTD/svg11.dtd">
<!-- Generated by graphviz version 13.1.0 (20250701.0955)
 -->
<!-- Title: LoggerManager::logEvent Pages: 1 -->
<svg width="535pt" height="211pt"
 viewBox="0.00 0.00 535.00 211.00" xmlns="http://www.w3.org/2000/svg" xmlns:xlink="http://www.w3.org/1999/xlink">
<g id="graph0" class="graph" transform="scale(1 1) rotate(0) translate(4 206.88)">
<title>LoggerManager::logEvent</title>
<!-- Node1 -->
<g id="Node000001" class="node">
<title>Node1</title>
<g id="a_Node000001"><a xlink:title=" ">
<polygon fill="#999999" stroke="#666666" points="127,-105.25 0,-105.25 0,-86 127,-86 127,-105.25"/>
<text xml:space="preserve" text-anchor="middle" x="63.5" y="-91.75" font-family="Helvetica,sans-Serif" font-size="10.00">LoggerManager::logEvent</text>
</a>
</g>
</g>
<!-- Node2 -->
<g id="Node000002" class="node">
<title>Node2</title>
<g id="a_Node000002"><a xlink:href="$class_logger_manager.html#a4f7591a3b5cb024b7354005b4362e049" xlink:title=" ">
<polygon fill="white" stroke="#666666" points="317.75,-202.88 169,-202.88 169,-172.38 317.75,-172.38 317.75,-202.88"/>
<text xml:space="preserve" text-anchor="start" x="177" y="-189.38" font-family="Helvetica,sans-Serif" font-size="10.00">LoggerManager::_ensureEvent</text>
<text xml:space="preserve" text-anchor="middle" x="243.38" y="-178.12" font-family="Helvetica,sans-Serif" font-size="10.00">LogExists</text>
</a>
</g>
</g>
<!-- Node1&#45;&gt;Node2 -->
<g id="edge1_Node000001_Node000002" class="edge">
<title>Node1&#45;&gt;Node2</title>
<g id="a_edge1_Node000001_Node000002"><a xlink:title=" ">
<path fill="none" stroke="#63b8ff" d="M76.53,-105.54C94.41,-119.86 129.5,-146.39 163,-162.62 166.91,-164.52 171,-166.31 175.17,-168.01"/>
<polygon fill="#63b8ff" stroke="#63b8ff" points="173.64,-171.17 184.23,-171.46 176.13,-164.63 173.64,-171.17"/>
</a>
</g>
</g>
<!-- Node4 -->
<g id="Node000004" class="node">
<title>Node4</title>
<g id="a_Node000004"><a xlink:href="$class_logger_manager.html#a9cf35430e1e61515c6fb12524a58f1ab" xlink:title=" ">
<polygon fill="white" stroke="#666666" points="309.12,-153.88 177.62,-153.88 177.62,-123.38 309.12,-123.38 309.12,-153.88"/>
<text xml:space="preserve" text-anchor="start" x="185.62" y="-140.38" font-family="Helvetica,sans-Serif" font-size="10.00">LoggerManager::_generate</text>
<text xml:space="preserve" text-anchor="middle" x="243.38" y="-129.12" font-family="Helvetica,sans-Serif" font-size="10.00">EventLogFileName</text>
</a>
</g>
</g>
<!-- Node1&#45;&gt;Node4 -->
<g id="edge3_Node000001_Node000004" class="edge">
<title>Node1&#45;&gt;Node4</title>
<g id="a_edge3_Node000001_Node000004"><a xlink:title=" ">
<path fill="none" stroke="#63b8ff" d="M106.2,-105.71C124.13,-110.04 145.67,-115.25 166.27,-120.23"/>
<polygon fill="#63b8ff" stroke="#63b8ff" points="165.25,-123.58 175.79,-122.53 166.89,-116.78 165.25,-123.58"/>
</a>
</g>
</g>
<!-- Node5 -->
<g id="Node000005" class="node">
<title>Node5</title>
<g id="a_Node000005"><a xlink:href="$class_logger_manager.html#a3ca0b934265a4d9ce6391bf97dec179a" xlink:title=" ">
<polygon fill="white" stroke="#666666" points="513.38,-131.88 373.62,-131.88 373.62,-101.38 513.38,-101.38 513.38,-131.88"/>
<text xml:space="preserve" text-anchor="start" x="381.62" y="-118.38" font-family="Helvetica,sans-Serif" font-size="10.00">LoggerManager::_getCurrent</text>
<text xml:space="preserve" text-anchor="middle" x="443.5" y="-107.12" font-family="Helvetica,sans-Serif" font-size="10.00">DateString</text>
</a>
</g>
</g>
<!-- Node1&#45;&gt;Node5 -->
<g id="edge5_Node000001_Node000005" class="edge">
<title>Node1&#45;&gt;Node5</title>
<g id="a_edge5_Node000001_Node000005"><a xlink:title=" ">
<path fill="none" stroke="#63b8ff" d="M127.34,-99.12C191.68,-102.69 291.9,-108.26 362,-112.15"/>
<polygon fill="#63b8ff" stroke="#63b8ff" points="361.73,-115.64 371.91,-112.7 362.12,-108.65 361.73,-115.64"/>
</a>
</g>
</g>
<!-- Node6 -->
<g id="Node000006" class="node">
<title>Node6</title>
<g id="a_Node000006"><a xlink:href="$class_logger_manager.html#a4f31651f8963f741bfbdb944164ffc15" xlink:title=" ">
<polygon fill="white" stroke="#666666" points="313.25,-67.88 173.5,-67.88 173.5,-37.38 313.25,-37.38 313.25,-67.88"/>
<text xml:space="preserve" text-anchor="start" x="181.5" y="-54.38" font-family="Helvetica,sans-Serif" font-size="10.00">LoggerManager::_getCurrent</text>
<text xml:space="preserve" text-anchor="middle" x="243.38" y="-43.12" font-family="Helvetica,sans-Serif" font-size="10.00">TimeString</text>
</a>
</g>
</g>
<!-- Node1&#45;&gt;Node6 -->
<g id="edge6_Node000001_Node000006" class="edge">
<title>Node1&#45;&gt;Node6</title>
<g id="a_edge6_Node000001_Node000006"><a xlink:title=" ">
<path fill="none" stroke="#63b8ff" d="M106.2,-85.54C124.13,-81.21 145.67,-76 166.27,-71.02"/>
<polygon fill="#63b8ff" stroke="#63b8ff" points="166.89,-74.47 175.79,-68.72 165.25,-67.67 166.89,-74.47"/>
</a>
</g>
</g>
<!-- Node7 -->
<g id="Node000007" class="node">
<title>Node7</title>
<g id="a_Node000007"><a xlink:href="$class_logger_manager.html#a472884ce9e2aed6a1570187dd37cc006" xlink:title=" ">
<polygon fill="white" stroke="#666666" points="323.75,-19.25 163,-19.25 163,0 323.75,0 323.75,-19.25"/>
<text xml:space="preserve" text-anchor="middle" x="243.38" y="-5.75" font-family="Helvetica,sans-Serif" font-size="10.00">LoggerManager::_writeEventRow</text>
</a>
</g>
</g>
<!-- Node1&#45;&gt;Node7 -->
<g id="edge7_Node000001_Node000007" class="edge">
<title>Node1&#45;&gt;Node7</title>
<g id="a_edge7_Node000001_Node000007"><a xlink:title=" ">
<path fill="none" stroke="#63b8ff" d="M76.09,-85.64C93.7,-70.98 128.76,-43.76 163,-28.62 167.77,-26.52 172.81,-24.62 177.94,-22.92"/>
<polygon fill="#63b8ff" stroke="#63b8ff" points="178.55,-26.39 187.11,-20.14 176.52,-19.7 178.55,-26.39"/>
</a>
</g>
</g>
<!-- Node3 -->
<g id="Node000003" class="node">
<title>Node3</title>
<g id="a_Node000003"><a xlink:href="$class_logger_manager.html#a515beeaa428acafce139d79b41fe9d0a" xlink:title=" ">
<polygon fill="white" stroke="#666666" points="513.75,-202.88 373.25,-202.88 373.25,-172.38 513.75,-172.38 513.75,-202.88"/>
<text xml:space="preserve" text-anchor="start" x="381.25" y="-189.38" font-family="Helvetica,sans-Serif" font-size="10.00">LoggerManager::_writeEvent</text>
<text xml:space="preserve" text-anchor="middle" x="443.5" y="-178.12" font-family="Helvetica,sans-Serif" font-size="10.00">Header</text>
</a>
</g>
</g>
<!-- Node2&#45;&gt;Node3 -->
<g id="edge2_Node000002_Node000003" class="edge">
<title>Node2&#45;&gt;Node3</title>
<g id="a_edge2_Node000002_Node000003"><a xlink:title=" ">
<path fill="none" stroke="#63b8ff" d="M318.15,-187.62C332.3,-187.62 347.19,-187.62 361.55,-187.62"/>
<polygon fill="#63b8ff" stroke="#63b8ff" points="361.42,-191.13 371.42,-187.63 361.42,-184.13 361.42,-191.13"/>
</a>
</g>
</g>
<!-- Node4&#45;&gt;Node5 -->
<g id="edge4_Node000004_Node000005" class="edge">
<title>Node4&#45;&gt;Node5</title>
<g id="a_edge4_Node000004_Node000005"><a xlink:title=" ">
<path fill="none" stroke="#63b8ff" d="M309.52,-131.39C326.27,-129.53 344.49,-127.51 361.91,-125.57"/>
<polygon fill="#63b8ff" stroke="#63b8ff" points="362.17,-129.07 371.72,-124.48 361.4,-122.11 362.17,-129.07"/>
</a>
</g>
</g>
<!-- Node8 -->
<g id="Node000008" class="node">
<title>Node8</title>
<g id="a_Node000008"><a xlink:href="$class_logger_manager.html#a57d230cd2896120a32ecf55a14895d55" xlink:title=" ">
<polygon fill="white" stroke="#666666" points="527.25,-19.25 359.75,-19.25 359.75,0 527.25,0 527.25,-19.25"/>
<text xml:space="preserve" text-anchor="middle" x="443.5" y="-5.75" font-family="Helvetica,sans-Serif" font-size="10.00">LoggerManager::_escapeCSVField</text>
</a>
</g>
</g>
<!-- Node7&#45;&gt;Node8 -->
<g id="edge8_Node000007_Node000008" class="edge">
<title>Node7&#45;&gt;Node8</title>
<g id="a_edge8_Node000007_Node000008"><a xlink:title=" ">
<path fill="none" stroke="#63b8ff" d="M324.1,-9.62C332,-9.62 340.06,-9.62 348.08,-9.62"/>
<polygon fill="#63b8ff" stroke="#63b8ff" points="347.86,-13.13 357.86,-9.63 347.86,-6.13 347.86,-13.13"/>
</a>
</g>
</g>
</g>
</svg>
