<?xml version="1.0" encoding="UTF-8" standalone="no"?>
<!DOCTYPE svg PUBLIC "-//W3C//DTD SVG 1.1//EN"
 "http://www.w3.org/Graphics/SVG/1.1/DTD/svg11.dtd">
<!-- Generated by graphviz version 13.1.0 (20250701.0955)
 -->
<!-- Title: TemperatureController::updateAllSensors Pages: 1 -->
<svg width="466pt" height="107pt"
 viewBox="0.00 0.00 466.00 107.00" xmlns="http://www.w3.org/2000/svg" xmlns:xlink="http://www.w3.org/1999/xlink">
<g id="graph0" class="graph" transform="scale(1 1) rotate(0) translate(4 103.25)">
<title>TemperatureController::updateAllSensors</title>
<!-- Node1 -->
<g id="Node000001" class="node">
<title>Node1</title>
<g id="a_Node000001"><a xlink:title="Update temperature readings for all sensors.">
<polygon fill="#999999" stroke="#666666" points="112,-82.88 0,-82.88 0,-52.38 112,-52.38 112,-82.88"/>
<text xml:space="preserve" text-anchor="start" x="8" y="-69.38" font-family="Helvetica,sans-Serif" font-size="10.00">TemperatureController</text>
<text xml:space="preserve" text-anchor="middle" x="56" y="-58.12" font-family="Helvetica,sans-Serif" font-size="10.00">::updateAllSensors</text>
</a>
</g>
</g>
<!-- Node2 -->
<g id="Node000002" class="node">
<title>Node2</title>
<g id="a_Node000002"><a xlink:href="class_logger_manager.html#aef24f00186213fa78be3b104a50d58e6" target="_top" xlink:title="Log error message (static convenience method)">
<polygon fill="white" stroke="#666666" points="258.12,-99.25 149.88,-99.25 149.88,-80 258.12,-80 258.12,-99.25"/>
<text xml:space="preserve" text-anchor="middle" x="204" y="-85.75" font-family="Helvetica,sans-Serif" font-size="10.00">LoggerManager::error</text>
</a>
</g>
</g>
<!-- Node1&#45;&gt;Node2 -->
<g id="edge1_Node000001_Node000002" class="edge">
<title>Node1&#45;&gt;Node2</title>
<g id="a_edge1_Node000001_Node000002"><a xlink:title=" ">
<path fill="none" stroke="#63b8ff" d="M112.2,-75.94C120.73,-77.23 129.61,-78.57 138.33,-79.88"/>
<polygon fill="#63b8ff" stroke="#63b8ff" points="137.75,-83.33 148.16,-81.36 138.79,-76.41 137.75,-83.33"/>
</a>
</g>
</g>
<!-- Node3 -->
<g id="Node000003" class="node">
<title>Node3</title>
<g id="a_Node000003"><a xlink:href="class_temperature_controller.html#a01e04714a1712aa10c34276850971a12" target="_top" xlink:title="Get bus number for a sensor.">
<polygon fill="white" stroke="#666666" points="260,-61.88 148,-61.88 148,-31.38 260,-31.38 260,-61.88"/>
<text xml:space="preserve" text-anchor="start" x="156" y="-48.38" font-family="Helvetica,sans-Serif" font-size="10.00">TemperatureController</text>
<text xml:space="preserve" text-anchor="middle" x="204" y="-37.12" font-family="Helvetica,sans-Serif" font-size="10.00">::getSensorBus</text>
</a>
</g>
</g>
<!-- Node1&#45;&gt;Node3 -->
<g id="edge2_Node000001_Node000003" class="edge">
<title>Node1&#45;&gt;Node3</title>
<g id="a_edge2_Node000001_Node000003"><a xlink:title=" ">
<path fill="none" stroke="#63b8ff" d="M112.2,-59.69C120.1,-58.55 128.3,-57.37 136.39,-56.21"/>
<polygon fill="#63b8ff" stroke="#63b8ff" points="136.83,-59.68 146.23,-54.79 135.83,-52.75 136.83,-59.68"/>
</a>
</g>
</g>
<!-- Node4 -->
<g id="Node000004" class="node">
<title>Node4</title>
<g id="a_Node000004"><a xlink:href="class_sensor.html#ac42da3a37b0d6a9622344fe83f4c9047" target="_top" xlink:title="Get OneWire bus pin.">
<polygon fill="white" stroke="#666666" points="436.5,-93.25 317.75,-93.25 317.75,-74 436.5,-74 436.5,-93.25"/>
<text xml:space="preserve" text-anchor="middle" x="377.12" y="-79.75" font-family="Helvetica,sans-Serif" font-size="10.00">Sensor::getOneWirePin</text>
</a>
</g>
</g>
<!-- Node3&#45;&gt;Node4 -->
<g id="edge3_Node000003_Node000004" class="edge">
<title>Node3&#45;&gt;Node4</title>
<g id="a_edge3_Node000003_Node000004"><a xlink:title=" ">
<path fill="none" stroke="#63b8ff" d="M260.09,-58.54C278.7,-62.56 299.53,-67.06 318.35,-71.13"/>
<polygon fill="#63b8ff" stroke="#63b8ff" points="317.48,-74.52 327.99,-73.22 318.95,-67.68 317.48,-74.52"/>
</a>
</g>
</g>
<!-- Node5 -->
<g id="Node000005" class="node">
<title>Node5</title>
<g id="a_Node000005"><a xlink:href="class_sensor.html#a6f57825e90b759ccdb9fe07b3a36953d" target="_top" xlink:title="Get PT1000 chip select pin.">
<polygon fill="white" stroke="#666666" points="458.25,-56.25 296,-56.25 296,-37 458.25,-37 458.25,-56.25"/>
<text xml:space="preserve" text-anchor="middle" x="377.12" y="-42.75" font-family="Helvetica,sans-Serif" font-size="10.00">Sensor::getPT1000ChipSelectPin</text>
</a>
</g>
</g>
<!-- Node3&#45;&gt;Node5 -->
<g id="edge4_Node000003_Node000005" class="edge">
<title>Node3&#45;&gt;Node5</title>
<g id="a_edge4_Node000003_Node000005"><a xlink:title=" ">
<path fill="none" stroke="#63b8ff" d="M260.09,-46.62C267.88,-46.62 276.06,-46.62 284.32,-46.62"/>
<polygon fill="#63b8ff" stroke="#63b8ff" points="284.08,-50.13 294.08,-46.63 284.08,-43.13 284.08,-50.13"/>
</a>
</g>
</g>
<!-- Node6 -->
<g id="Node000006" class="node">
<title>Node6</title>
<g id="a_Node000006"><a xlink:href="class_sensor.html#a0f6f095e7cfdfffb2a395dfdae7cfa53" target="_top" xlink:title="Get sensor type.">
<polygon fill="white" stroke="#666666" points="420.75,-19.25 333.5,-19.25 333.5,0 420.75,0 420.75,-19.25"/>
<text xml:space="preserve" text-anchor="middle" x="377.12" y="-5.75" font-family="Helvetica,sans-Serif" font-size="10.00">Sensor::getType</text>
</a>
</g>
</g>
<!-- Node3&#45;&gt;Node6 -->
<g id="edge5_Node000003_Node000006" class="edge">
<title>Node3&#45;&gt;Node6</title>
<g id="a_edge5_Node000003_Node000006"><a xlink:title=" ">
<path fill="none" stroke="#63b8ff" d="M260.09,-34.71C279.94,-30.42 302.32,-25.58 322.09,-21.31"/>
<polygon fill="#63b8ff" stroke="#63b8ff" points="322.56,-24.79 331.6,-19.25 321.08,-17.94 322.56,-24.79"/>
</a>
</g>
</g>
</g>
</svg>
