<?xml version="1.0" encoding="UTF-8" standalone="no"?>
<!DOCTYPE svg PUBLIC "-//W3C//DTD SVG 1.1//EN"
 "http://www.w3.org/Graphics/SVG/1.1/DTD/svg11.dtd">
<!-- Generated by graphviz version 13.1.0 (20250701.0955)
 -->
<!-- Title: TemperatureController::ensureAlarmsForPoint Pages: 1 -->
<svg width="475pt" height="273pt"
 viewBox="0.00 0.00 475.00 273.00" xmlns="http://www.w3.org/2000/svg" xmlns:xlink="http://www.w3.org/1999/xlink">
<g id="graph0" class="graph" transform="scale(1 1) rotate(0) translate(4 268.88)">
<title>TemperatureController::ensureAlarmsForPoint</title>
<!-- Node1 -->
<g id="Node000001" class="node">
<title>Node1</title>
<g id="a_Node000001"><a xlink:title="Ensure all 3 alarm types exist for a measurement point.">
<polygon fill="#999999" stroke="#666666" points="118.75,-156.88 0,-156.88 0,-126.38 118.75,-126.38 118.75,-156.88"/>
<text xml:space="preserve" text-anchor="start" x="8" y="-143.38" font-family="Helvetica,sans-Serif" font-size="10.00">TemperatureController</text>
<text xml:space="preserve" text-anchor="middle" x="59.38" y="-132.12" font-family="Helvetica,sans-Serif" font-size="10.00">::ensureAlarmsForPoint</text>
</a>
</g>
</g>
<!-- Node2 -->
<g id="Node000002" class="node">
<title>Node2</title>
<g id="a_Node000002"><a xlink:href="class_temperature_controller.html#ae7d9c642f7ae697c2679e61d4da45868" target="_top" xlink:title="Find alarm by configuration key.">
<polygon fill="white" stroke="#666666" points="287.38,-264.88 175.38,-264.88 175.38,-234.38 287.38,-234.38 287.38,-264.88"/>
<text xml:space="preserve" text-anchor="start" x="183.38" y="-251.38" font-family="Helvetica,sans-Serif" font-size="10.00">TemperatureController</text>
<text xml:space="preserve" text-anchor="middle" x="231.38" y="-240.12" font-family="Helvetica,sans-Serif" font-size="10.00">::findAlarm</text>
</a>
</g>
</g>
<!-- Node1&#45;&gt;Node2 -->
<g id="edge1_Node000001_Node000002" class="edge">
<title>Node1&#45;&gt;Node2</title>
<g id="a_edge1_Node000001_Node000002"><a xlink:title=" ">
<path fill="none" stroke="#63b8ff" d="M73.9,-157.12C90.99,-175.83 122.15,-207.08 154.75,-225.62 157.92,-227.43 161.25,-229.12 164.66,-230.7"/>
<polygon fill="#63b8ff" stroke="#63b8ff" points="163.13,-233.85 173.71,-234.51 165.85,-227.4 163.13,-233.85"/>
</a>
</g>
</g>
<!-- Node3 -->
<g id="Node000003" class="node">
<title>Node3</title>
<g id="a_Node000003"><a xlink:href="class_measurement_point.html#a7b74a18d86e0e545264a774aa2c31cad" target="_top" xlink:title="Get measurement point address.">
<polygon fill="white" stroke="#666666" points="308,-216.25 154.75,-216.25 154.75,-197 308,-197 308,-216.25"/>
<text xml:space="preserve" text-anchor="middle" x="231.38" y="-202.75" font-family="Helvetica,sans-Serif" font-size="10.00">MeasurementPoint::getAddress</text>
</a>
</g>
</g>
<!-- Node1&#45;&gt;Node3 -->
<g id="edge2_Node000001_Node000003" class="edge">
<title>Node1&#45;&gt;Node3</title>
<g id="a_edge2_Node000001_Node000003"><a xlink:title=" ">
<path fill="none" stroke="#63b8ff" d="M88.61,-157.31C107.02,-167.04 131.8,-179.25 154.75,-187.62 160.55,-189.74 166.69,-191.71 172.86,-193.51"/>
<polygon fill="#63b8ff" stroke="#63b8ff" points="171.89,-196.87 182.46,-196.17 173.76,-190.13 171.89,-196.87"/>
</a>
</g>
</g>
<!-- Node4 -->
<g id="Node000004" class="node">
<title>Node4</title>
<g id="a_Node000004"><a xlink:href="class_measurement_point.html#a81c7ae93a9314344967d0f31c6fefe2f" target="_top" xlink:title="Get pointer to bound sensor.">
<polygon fill="white" stroke="#666666" points="303.88,-178.88 158.88,-178.88 158.88,-148.38 303.88,-148.38 303.88,-178.88"/>
<text xml:space="preserve" text-anchor="start" x="166.88" y="-165.38" font-family="Helvetica,sans-Serif" font-size="10.00">MeasurementPoint::getBound</text>
<text xml:space="preserve" text-anchor="middle" x="231.38" y="-154.12" font-family="Helvetica,sans-Serif" font-size="10.00">Sensor</text>
</a>
</g>
</g>
<!-- Node1&#45;&gt;Node4 -->
<g id="edge3_Node000001_Node000004" class="edge">
<title>Node1&#45;&gt;Node4</title>
<g id="a_edge3_Node000001_Node000004"><a xlink:title=" ">
<path fill="none" stroke="#63b8ff" d="M118.88,-149.2C128.06,-150.38 137.7,-151.63 147.31,-152.87"/>
<polygon fill="#63b8ff" stroke="#63b8ff" points="146.67,-156.32 157.04,-154.13 147.57,-149.38 146.67,-156.32"/>
</a>
</g>
</g>
<!-- Node5 -->
<g id="Node000005" class="node">
<title>Node5</title>
<g id="a_Node000005"><a xlink:href="class_alarm.html#ad116a3e8b622810e1769568fbac16379" target="_top" xlink:title="Set the configuration key.">
<polygon fill="white" stroke="#666666" points="284.75,-130.25 178,-130.25 178,-111 284.75,-111 284.75,-130.25"/>
<text xml:space="preserve" text-anchor="middle" x="231.38" y="-116.75" font-family="Helvetica,sans-Serif" font-size="10.00">Alarm::setConfigKey</text>
</a>
</g>
</g>
<!-- Node1&#45;&gt;Node5 -->
<g id="edge4_Node000001_Node000005" class="edge">
<title>Node1&#45;&gt;Node5</title>
<g id="a_edge4_Node000001_Node000005"><a xlink:title=" ">
<path fill="none" stroke="#63b8ff" d="M118.88,-134.4C134.26,-132.5 150.93,-130.44 166.57,-128.51"/>
<polygon fill="#63b8ff" stroke="#63b8ff" points="166.75,-132.01 176.24,-127.31 165.89,-125.06 166.75,-132.01"/>
</a>
</g>
</g>
<!-- Node6 -->
<g id="Node000006" class="node">
<title>Node6</title>
<g id="a_Node000006"><a xlink:href="class_alarm.html#acb8f203b2e2317c1f835bb4b19123f3f" target="_top" xlink:title="Enable or disable the alarm.">
<polygon fill="white" stroke="#666666" points="279.5,-93.25 183.25,-93.25 183.25,-74 279.5,-74 279.5,-93.25"/>
<text xml:space="preserve" text-anchor="middle" x="231.38" y="-79.75" font-family="Helvetica,sans-Serif" font-size="10.00">Alarm::setEnabled</text>
</a>
</g>
</g>
<!-- Node1&#45;&gt;Node6 -->
<g id="edge5_Node000001_Node000006" class="edge">
<title>Node1&#45;&gt;Node6</title>
<g id="a_edge5_Node000001_Node000006"><a xlink:title=" ">
<path fill="none" stroke="#63b8ff" d="M93.49,-125.98C111.36,-117.95 133.95,-108.45 154.75,-101.62 160.22,-99.83 165.97,-98.13 171.75,-96.55"/>
<polygon fill="#63b8ff" stroke="#63b8ff" points="172.58,-99.95 181.37,-94.04 170.81,-93.18 172.58,-99.95"/>
</a>
</g>
</g>
<!-- Node9 -->
<g id="Node000009" class="node">
<title>Node9</title>
<g id="a_Node000009"><a xlink:href="class_alarm.html#a5095c54c304a52ebbaca5a2ea74059cd" target="_top" xlink:title="Set the alarm priority.">
<polygon fill="white" stroke="#666666" points="277.25,-56.25 185.5,-56.25 185.5,-37 277.25,-37 277.25,-56.25"/>
<text xml:space="preserve" text-anchor="middle" x="231.38" y="-42.75" font-family="Helvetica,sans-Serif" font-size="10.00">Alarm::setPriority</text>
</a>
</g>
</g>
<!-- Node1&#45;&gt;Node9 -->
<g id="edge8_Node000001_Node000009" class="edge">
<title>Node1&#45;&gt;Node9</title>
<g id="a_edge8_Node000001_Node000009"><a xlink:title=" ">
<path fill="none" stroke="#63b8ff" d="M74.87,-126.16C92.21,-108.61 122.9,-80.37 154.75,-64.62 160.94,-61.56 167.68,-59.01 174.5,-56.88"/>
<polygon fill="#63b8ff" stroke="#63b8ff" points="175.08,-60.35 183.76,-54.27 173.19,-53.61 175.08,-60.35"/>
</a>
</g>
</g>
<!-- Node7 -->
<g id="Node000007" class="node">
<title>Node7</title>
<g id="a_Node000007"><a xlink:href="class_alarm.html#abd578ec75a5ac9bce00b7ce7207c5d8c" target="_top" xlink:title="Get alarm type as string.">
<polygon fill="white" stroke="#666666" points="459,-56.25 351.5,-56.25 351.5,-37 459,-37 459,-56.25"/>
<text xml:space="preserve" text-anchor="middle" x="405.25" y="-42.75" font-family="Helvetica,sans-Serif" font-size="10.00">Alarm::getTypeString</text>
</a>
</g>
</g>
<!-- Node6&#45;&gt;Node7 -->
<g id="edge6_Node000006_Node000007" class="edge">
<title>Node6&#45;&gt;Node7</title>
<g id="a_edge6_Node000006_Node000007"><a xlink:title=" ">
<path fill="none" stroke="#63b8ff" d="M279.34,-73.51C299.99,-69.07 324.45,-63.8 346.23,-59.11"/>
<polygon fill="#63b8ff" stroke="#63b8ff" points="346.82,-62.57 355.86,-57.04 345.35,-55.72 346.82,-62.57"/>
</a>
</g>
</g>
<!-- Node8 -->
<g id="Node000008" class="node">
<title>Node8</title>
<g id="a_Node000008"><a xlink:href="class_logger_manager.html#a5c1373ccc47f4112b596fe6f84fbbc21" target="_top" xlink:title="Log informational message (static convenience method)">
<polygon fill="white" stroke="#666666" points="457.5,-93.25 353,-93.25 353,-74 457.5,-74 457.5,-93.25"/>
<text xml:space="preserve" text-anchor="middle" x="405.25" y="-79.75" font-family="Helvetica,sans-Serif" font-size="10.00">LoggerManager::info</text>
</a>
</g>
</g>
<!-- Node6&#45;&gt;Node8 -->
<g id="edge7_Node000006_Node000008" class="edge">
<title>Node6&#45;&gt;Node8</title>
<g id="a_edge7_Node000006_Node000008"><a xlink:title=" ">
<path fill="none" stroke="#63b8ff" d="M279.8,-83.62C298.82,-83.62 321.02,-83.62 341.37,-83.62"/>
<polygon fill="#63b8ff" stroke="#63b8ff" points="341.25,-87.13 351.25,-83.63 341.25,-80.13 341.25,-87.13"/>
</a>
</g>
</g>
<!-- Node9&#45;&gt;Node7 -->
<g id="edge10_Node000009_Node000007" class="edge">
<title>Node9&#45;&gt;Node7</title>
<g id="a_edge10_Node000009_Node000007"><a xlink:title=" ">
<path fill="none" stroke="#63b8ff" d="M277.53,-46.62C296.58,-46.62 319.11,-46.62 339.85,-46.62"/>
<polygon fill="#63b8ff" stroke="#63b8ff" points="339.64,-50.13 349.64,-46.63 339.64,-43.13 339.64,-50.13"/>
</a>
</g>
</g>
<!-- Node9&#45;&gt;Node8 -->
<g id="edge11_Node000009_Node000008" class="edge">
<title>Node9&#45;&gt;Node8</title>
<g id="a_edge11_Node000009_Node000008"><a xlink:title=" ">
<path fill="none" stroke="#63b8ff" d="M277.53,-56.35C298.55,-60.87 323.8,-66.31 346.21,-71.13"/>
<polygon fill="#63b8ff" stroke="#63b8ff" points="345.3,-74.52 355.82,-73.2 346.78,-67.67 345.3,-74.52"/>
</a>
</g>
</g>
<!-- Node10 -->
<g id="Node000010" class="node">
<title>Node10</title>
<g id="a_Node000010"><a xlink:href="class_alarm.html#a052a73879f5cd039f6f7cb7ce02e6a9d" target="_top" xlink:title="Get priority as string (internal version)">
<polygon fill="white" stroke="#666666" points="466.5,-19.25 344,-19.25 344,0 466.5,0 466.5,-19.25"/>
<text xml:space="preserve" text-anchor="middle" x="405.25" y="-5.75" font-family="Helvetica,sans-Serif" font-size="10.00">Alarm::_getPriorityString</text>
</a>
</g>
</g>
<!-- Node9&#45;&gt;Node10 -->
<g id="edge9_Node000009_Node000010" class="edge">
<title>Node9&#45;&gt;Node10</title>
<g id="a_edge9_Node000009_Node000010"><a xlink:title=" ">
<path fill="none" stroke="#63b8ff" d="M277.53,-36.9C298.55,-32.38 323.8,-26.94 346.21,-22.12"/>
<polygon fill="#63b8ff" stroke="#63b8ff" points="346.78,-25.58 355.82,-20.05 345.3,-18.73 346.78,-25.58"/>
</a>
</g>
</g>
</g>
</svg>
