<?xml version="1.0" encoding="UTF-8" standalone="no"?>
<!DOCTYPE svg PUBLIC "-//W3C//DTD SVG 1.1//EN"
 "http://www.w3.org/Graphics/SVG/1.1/DTD/svg11.dtd">
<!-- Generated by graphviz version 13.1.0 (20250701.0955)
 -->
<!-- Title: TemperatureController::discoverDS18B20Sensors Pages: 1 -->
<svg width="827pt" height="334pt"
 viewBox="0.00 0.00 827.00 334.00" xmlns="http://www.w3.org/2000/svg" xmlns:xlink="http://www.w3.org/1999/xlink">
<g id="graph0" class="graph" transform="scale(1 1) rotate(0) translate(4 329.5)">
<title>TemperatureController::discoverDS18B20Sensors</title>
<!-- Node1 -->
<g id="Node000001" class="node">
<title>Node1</title>
<g id="a_Node000001"><a xlink:title=" ">
<polygon fill="#999999" stroke="#666666" points="136.75,-179.5 0,-179.5 0,-149 136.75,-149 136.75,-179.5"/>
<text xml:space="preserve" text-anchor="start" x="8" y="-166" font-family="Helvetica,sans-Serif" font-size="10.00">TemperatureController</text>
<text xml:space="preserve" text-anchor="middle" x="68.38" y="-154.75" font-family="Helvetica,sans-Serif" font-size="10.00">::discoverDS18B20Sensors</text>
</a>
</g>
</g>
<!-- Node2 -->
<g id="Node000002" class="node">
<title>Node2</title>
<g id="a_Node000002"><a xlink:href="class_temperature_controller.html#ae03306ef9585c7427ef53cd9a5fad12b" target="_top" xlink:title=" ">
<polygon fill="white" stroke="#666666" points="288.12,-325.5 176.12,-325.5 176.12,-295 288.12,-295 288.12,-325.5"/>
<text xml:space="preserve" text-anchor="start" x="184.12" y="-312" font-family="Helvetica,sans-Serif" font-size="10.00">TemperatureController</text>
<text xml:space="preserve" text-anchor="middle" x="232.12" y="-300.75" font-family="Helvetica,sans-Serif" font-size="10.00">::findSensorByRom</text>
</a>
</g>
</g>
<!-- Node1&#45;&gt;Node2 -->
<g id="edge1_Node000001_Node000002" class="edge">
<title>Node1&#45;&gt;Node2</title>
<g id="a_edge1_Node000001_Node000002"><a xlink:title=" ">
<path fill="none" stroke="#63b8ff" d="M78.97,-179.81C95.34,-205.23 130.99,-255.87 172.75,-286.25 174.08,-287.22 175.45,-288.15 176.86,-289.06"/>
<polygon fill="#63b8ff" stroke="#63b8ff" points="174.83,-291.93 185.25,-293.84 178.3,-285.85 174.83,-291.93"/>
</a>
</g>
</g>
<!-- Node3 -->
<g id="Node000003" class="node">
<title>Node3</title>
<g id="a_Node000003"><a xlink:href="class_sensor.html#a60ec96ed03660b42681c1bcc99007033" target="_top" xlink:title=" ">
<polygon fill="white" stroke="#666666" points="278.38,-276.88 185.88,-276.88 185.88,-257.62 278.38,-257.62 278.38,-276.88"/>
<text xml:space="preserve" text-anchor="middle" x="232.12" y="-263.38" font-family="Helvetica,sans-Serif" font-size="10.00">Sensor::getName</text>
</a>
</g>
</g>
<!-- Node1&#45;&gt;Node3 -->
<g id="edge2_Node000001_Node000003" class="edge">
<title>Node1&#45;&gt;Node3</title>
<g id="a_edge2_Node000001_Node000003"><a xlink:title=" ">
<path fill="none" stroke="#63b8ff" d="M86.67,-179.75C106.42,-196.9 140.23,-224.58 172.75,-243.25 178.86,-246.76 185.59,-250.02 192.23,-252.94"/>
<polygon fill="#63b8ff" stroke="#63b8ff" points="190.53,-256.02 201.11,-256.64 193.23,-249.56 190.53,-256.02"/>
</a>
</g>
</g>
<!-- Node4 -->
<g id="Node000004" class="node">
<title>Node4</title>
<g id="a_Node000004"><a xlink:href="class_sensor.html#ac42da3a37b0d6a9622344fe83f4c9047" target="_top" xlink:title=" ">
<polygon fill="white" stroke="#666666" points="468,-236.88 349.25,-236.88 349.25,-217.62 468,-217.62 468,-236.88"/>
<text xml:space="preserve" text-anchor="middle" x="408.62" y="-223.38" font-family="Helvetica,sans-Serif" font-size="10.00">Sensor::getOneWirePin</text>
</a>
</g>
</g>
<!-- Node1&#45;&gt;Node4 -->
<g id="edge3_Node000001_Node000004" class="edge">
<title>Node1&#45;&gt;Node4</title>
<g id="a_edge3_Node000001_Node000004"><a xlink:title=" ">
<path fill="none" stroke="#63b8ff" d="M97.38,-179.91C117.66,-190.44 146.07,-203.57 172.75,-210.25 226.97,-223.83 290.27,-227.76 337.49,-228.46"/>
<polygon fill="#63b8ff" stroke="#63b8ff" points="337.28,-231.96 347.31,-228.56 337.35,-224.96 337.28,-231.96"/>
</a>
</g>
</g>
<!-- Node5 -->
<g id="Node000005" class="node">
<title>Node5</title>
<g id="a_Node000005"><a xlink:href="class_temperature_controller.html#a01e04714a1712aa10c34276850971a12" target="_top" xlink:title=" ">
<polygon fill="white" stroke="#666666" points="288.12,-201.5 176.12,-201.5 176.12,-171 288.12,-171 288.12,-201.5"/>
<text xml:space="preserve" text-anchor="start" x="184.12" y="-188" font-family="Helvetica,sans-Serif" font-size="10.00">TemperatureController</text>
<text xml:space="preserve" text-anchor="middle" x="232.12" y="-176.75" font-family="Helvetica,sans-Serif" font-size="10.00">::getSensorBus</text>
</a>
</g>
</g>
<!-- Node1&#45;&gt;Node5 -->
<g id="edge4_Node000001_Node000005" class="edge">
<title>Node1&#45;&gt;Node5</title>
<g id="a_edge4_Node000001_Node000005"><a xlink:title=" ">
<path fill="none" stroke="#63b8ff" d="M137.03,-173.45C146.1,-174.69 155.4,-175.95 164.45,-177.18"/>
<polygon fill="#63b8ff" stroke="#63b8ff" points="163.87,-180.64 174.25,-178.51 164.82,-173.7 163.87,-180.64"/>
</a>
</g>
</g>
<!-- Node8 -->
<g id="Node000008" class="node">
<title>Node8</title>
<g id="a_Node000008"><a xlink:href="class_logger_manager.html#a5c1373ccc47f4112b596fe6f84fbbc21" target="_top" xlink:title=" ">
<polygon fill="white" stroke="#666666" points="284.38,-152.88 179.88,-152.88 179.88,-133.62 284.38,-133.62 284.38,-152.88"/>
<text xml:space="preserve" text-anchor="middle" x="232.12" y="-139.38" font-family="Helvetica,sans-Serif" font-size="10.00">LoggerManager::info</text>
</a>
</g>
</g>
<!-- Node1&#45;&gt;Node8 -->
<g id="edge8_Node000001_Node000008" class="edge">
<title>Node1&#45;&gt;Node8</title>
<g id="a_edge8_Node000001_Node000008"><a xlink:title=" ">
<path fill="none" stroke="#63b8ff" d="M137.03,-155.47C147.35,-154.13 157.96,-152.75 168.17,-151.42"/>
<polygon fill="#63b8ff" stroke="#63b8ff" points="168.52,-154.91 177.99,-150.15 167.62,-147.97 168.52,-154.91"/>
</a>
</g>
</g>
<!-- Node9 -->
<g id="Node000009" class="node">
<title>Node9</title>
<g id="a_Node000009"><a xlink:href="class_sensor.html#a59dd5483b75d9366a0c50ccdd0345dec" target="_top" xlink:title=" ">
<polygon fill="white" stroke="#666666" points="276.12,-115.88 188.12,-115.88 188.12,-96.62 276.12,-96.62 276.12,-115.88"/>
<text xml:space="preserve" text-anchor="middle" x="232.12" y="-102.38" font-family="Helvetica,sans-Serif" font-size="10.00">Sensor::initialize</text>
</a>
</g>
</g>
<!-- Node1&#45;&gt;Node9 -->
<g id="edge9_Node000001_Node000009" class="edge">
<title>Node1&#45;&gt;Node9</title>
<g id="a_edge9_Node000001_Node000009"><a xlink:title=" ">
<path fill="none" stroke="#63b8ff" d="M107.92,-148.6C127.26,-140.93 151.12,-131.76 172.75,-124.25 177.15,-122.72 181.75,-121.19 186.36,-119.7"/>
<polygon fill="#63b8ff" stroke="#63b8ff" points="187.12,-123.13 195.6,-116.78 185.01,-116.46 187.12,-123.13"/>
</a>
</g>
</g>
<!-- Node10 -->
<g id="Node000010" class="node">
<title>Node10</title>
<g id="a_Node000010"><a xlink:href="class_temperature_controller.html#a4e4770607486ebfc6eacafa704945c23" target="_top" xlink:title=" ">
<polygon fill="white" stroke="#666666" points="291.12,-78.5 173.12,-78.5 173.12,-48 291.12,-48 291.12,-78.5"/>
<text xml:space="preserve" text-anchor="start" x="181.12" y="-65" font-family="Helvetica,sans-Serif" font-size="10.00">TemperatureController</text>
<text xml:space="preserve" text-anchor="middle" x="232.12" y="-53.75" font-family="Helvetica,sans-Serif" font-size="10.00">::removeSensorByRom</text>
</a>
</g>
</g>
<!-- Node1&#45;&gt;Node10 -->
<g id="edge10_Node000001_Node000010" class="edge">
<title>Node1&#45;&gt;Node10</title>
<g id="a_edge10_Node000001_Node000010"><a xlink:title=" ">
<path fill="none" stroke="#63b8ff" d="M87.46,-148.57C107.37,-131.85 140.81,-105.33 172.75,-87.25 174.8,-86.09 176.91,-84.96 179.07,-83.85"/>
<polygon fill="#63b8ff" stroke="#63b8ff" points="180.51,-87.05 188.01,-79.57 177.48,-80.73 180.51,-87.05"/>
</a>
</g>
</g>
<!-- Node16 -->
<g id="Node000016" class="node">
<title>Node16</title>
<g id="a_Node000016"><a xlink:href="class_sensor.html#afefa1f627a7d2ab5a1157c271e7f2556" target="_top" xlink:title=" ">
<polygon fill="white" stroke="#666666" points="291.5,-29.88 172.75,-29.88 172.75,-10.62 291.5,-10.62 291.5,-29.88"/>
<text xml:space="preserve" text-anchor="middle" x="232.12" y="-16.38" font-family="Helvetica,sans-Serif" font-size="10.00">Sensor::setupDS18B20</text>
</a>
</g>
</g>
<!-- Node1&#45;&gt;Node16 -->
<g id="edge16_Node000001_Node000016" class="edge">
<title>Node1&#45;&gt;Node16</title>
<g id="a_edge16_Node000001_Node000016"><a xlink:title=" ">
<path fill="none" stroke="#63b8ff" d="M78.12,-148.78C93.74,-122.48 128.97,-69.02 172.75,-39.25 174.98,-37.73 177.34,-36.33 179.78,-35.03"/>
<polygon fill="#63b8ff" stroke="#63b8ff" points="181.15,-38.26 188.79,-30.91 178.24,-31.89 181.15,-38.26"/>
</a>
</g>
</g>
<!-- Node5&#45;&gt;Node4 -->
<g id="edge5_Node000005_Node000004" class="edge">
<title>Node5&#45;&gt;Node4</title>
<g id="a_edge5_Node000005_Node000004"><a xlink:title=" ">
<path fill="none" stroke="#63b8ff" d="M288.34,-199.22C309.15,-204.11 332.78,-209.66 353.49,-214.53"/>
<polygon fill="#63b8ff" stroke="#63b8ff" points="352.65,-217.93 363.18,-216.81 354.25,-211.11 352.65,-217.93"/>
</a>
</g>
</g>
<!-- Node6 -->
<g id="Node000006" class="node">
<title>Node6</title>
<g id="a_Node000006"><a xlink:href="class_sensor.html#a6f57825e90b759ccdb9fe07b3a36953d" target="_top" xlink:title=" ">
<polygon fill="white" stroke="#666666" points="489.75,-196.88 327.5,-196.88 327.5,-177.62 489.75,-177.62 489.75,-196.88"/>
<text xml:space="preserve" text-anchor="middle" x="408.62" y="-183.38" font-family="Helvetica,sans-Serif" font-size="10.00">Sensor::getPT1000ChipSelectPin</text>
</a>
</g>
</g>
<!-- Node5&#45;&gt;Node6 -->
<g id="edge6_Node000005_Node000006" class="edge">
<title>Node5&#45;&gt;Node6</title>
<g id="a_edge6_Node000005_Node000006"><a xlink:title=" ">
<path fill="none" stroke="#63b8ff" d="M288.34,-186.57C297.14,-186.62 306.45,-186.67 315.83,-186.72"/>
<polygon fill="#63b8ff" stroke="#63b8ff" points="315.74,-190.22 325.76,-186.78 315.78,-183.22 315.74,-190.22"/>
</a>
</g>
</g>
<!-- Node7 -->
<g id="Node000007" class="node">
<title>Node7</title>
<g id="a_Node000007"><a xlink:href="class_sensor.html#a0f6f095e7cfdfffb2a395dfdae7cfa53" target="_top" xlink:title=" ">
<polygon fill="white" stroke="#666666" points="452.25,-159.88 365,-159.88 365,-140.62 452.25,-140.62 452.25,-159.88"/>
<text xml:space="preserve" text-anchor="middle" x="408.62" y="-146.38" font-family="Helvetica,sans-Serif" font-size="10.00">Sensor::getType</text>
</a>
</g>
</g>
<!-- Node5&#45;&gt;Node7 -->
<g id="edge7_Node000005_Node000007" class="edge">
<title>Node5&#45;&gt;Node7</title>
<g id="a_edge7_Node000005_Node000007"><a xlink:title=" ">
<path fill="none" stroke="#63b8ff" d="M288.34,-174.86C309.15,-170.57 332.78,-165.69 353.49,-161.42"/>
<polygon fill="#63b8ff" stroke="#63b8ff" points="354.09,-164.87 363.18,-159.42 352.67,-158.01 354.09,-164.87"/>
</a>
</g>
</g>
<!-- Node11 -->
<g id="Node000011" class="node">
<title>Node11</title>
<g id="a_Node000011"><a xlink:href="class_temperature_controller.html#a9b4fe09d4c87dcf86e78b890012e1e72" target="_top" xlink:title=" ">
<polygon fill="white" stroke="#666666" points="464.62,-78.5 352.62,-78.5 352.62,-48 464.62,-48 464.62,-78.5"/>
<text xml:space="preserve" text-anchor="start" x="360.62" y="-65" font-family="Helvetica,sans-Serif" font-size="10.00">TemperatureController</text>
<text xml:space="preserve" text-anchor="middle" x="408.62" y="-53.75" font-family="Helvetica,sans-Serif" font-size="10.00">::getBoundSensor</text>
</a>
</g>
</g>
<!-- Node10&#45;&gt;Node11 -->
<g id="edge11_Node000010_Node000011" class="edge">
<title>Node10&#45;&gt;Node11</title>
<g id="a_edge11_Node000010_Node000011"><a xlink:title=" ">
<path fill="none" stroke="#63b8ff" d="M291.23,-63.25C307.18,-63.25 324.6,-63.25 340.99,-63.25"/>
<polygon fill="#63b8ff" stroke="#63b8ff" points="340.63,-66.75 350.63,-63.25 340.63,-59.75 340.63,-66.75"/>
</a>
</g>
</g>
<!-- Node12 -->
<g id="Node000012" class="node">
<title>Node12</title>
<g id="a_Node000012"><a xlink:href="class_measurement_point.html#a81c7ae93a9314344967d0f31c6fefe2f" target="_top" xlink:title=" ">
<polygon fill="white" stroke="#666666" points="670.75,-103.5 525.75,-103.5 525.75,-73 670.75,-73 670.75,-103.5"/>
<text xml:space="preserve" text-anchor="start" x="533.75" y="-90" font-family="Helvetica,sans-Serif" font-size="10.00">MeasurementPoint::getBound</text>
<text xml:space="preserve" text-anchor="middle" x="598.25" y="-78.75" font-family="Helvetica,sans-Serif" font-size="10.00">Sensor</text>
</a>
</g>
</g>
<!-- Node11&#45;&gt;Node12 -->
<g id="edge12_Node000011_Node000012" class="edge">
<title>Node11&#45;&gt;Node12</title>
<g id="a_edge12_Node000011_Node000012"><a xlink:title=" ">
<path fill="none" stroke="#63b8ff" d="M464.9,-70.62C480.27,-72.66 497.31,-74.93 513.91,-77.15"/>
<polygon fill="#63b8ff" stroke="#63b8ff" points="513.43,-80.61 523.8,-78.46 514.35,-73.67 513.43,-80.61"/>
</a>
</g>
</g>
<!-- Node13 -->
<g id="Node000013" class="node">
<title>Node13</title>
<g id="a_Node000013"><a xlink:href="class_temperature_controller.html#a494f057c234b4ff7526bde271aec9267" target="_top" xlink:title=" ">
<polygon fill="white" stroke="#666666" points="656.88,-54.5 539.62,-54.5 539.62,-24 656.88,-24 656.88,-54.5"/>
<text xml:space="preserve" text-anchor="start" x="547.62" y="-41" font-family="Helvetica,sans-Serif" font-size="10.00">TemperatureController</text>
<text xml:space="preserve" text-anchor="middle" x="598.25" y="-29.75" font-family="Helvetica,sans-Serif" font-size="10.00">::getMeasurementPoint</text>
</a>
</g>
</g>
<!-- Node11&#45;&gt;Node13 -->
<g id="edge13_Node000011_Node000013" class="edge">
<title>Node11&#45;&gt;Node13</title>
<g id="a_edge13_Node000011_Node000013"><a xlink:title=" ">
<path fill="none" stroke="#63b8ff" d="M464.9,-56.18C484.7,-53.65 507.26,-50.76 528.08,-48.1"/>
<polygon fill="#63b8ff" stroke="#63b8ff" points="528.46,-51.58 537.93,-46.84 527.57,-44.63 528.46,-51.58"/>
</a>
</g>
</g>
<!-- Node14 -->
<g id="Node000014" class="node">
<title>Node14</title>
<g id="a_Node000014"><a xlink:href="class_temperature_controller.html#ad322a5bab8d5788a586206004248f673" target="_top" xlink:title=" ">
<polygon fill="white" stroke="#666666" points="818.75,-79.5 706.75,-79.5 706.75,-49 818.75,-49 818.75,-79.5"/>
<text xml:space="preserve" text-anchor="start" x="714.75" y="-66" font-family="Helvetica,sans-Serif" font-size="10.00">TemperatureController</text>
<text xml:space="preserve" text-anchor="middle" x="762.75" y="-54.75" font-family="Helvetica,sans-Serif" font-size="10.00">::isDS18B20Address</text>
</a>
</g>
</g>
<!-- Node13&#45;&gt;Node14 -->
<g id="edge14_Node000013_Node000014" class="edge">
<title>Node13&#45;&gt;Node14</title>
<g id="a_edge14_Node000013_Node000014"><a xlink:title=" ">
<path fill="none" stroke="#63b8ff" d="M657,-48.13C669.42,-50.04 682.64,-52.08 695.35,-54.04"/>
<polygon fill="#63b8ff" stroke="#63b8ff" points="694.45,-57.44 704.87,-55.5 695.52,-50.52 694.45,-57.44"/>
</a>
</g>
</g>
<!-- Node15 -->
<g id="Node000015" class="node">
<title>Node15</title>
<g id="a_Node000015"><a xlink:href="class_temperature_controller.html#a13125ddcf29cb56d27403818543618af" target="_top" xlink:title=" ">
<polygon fill="white" stroke="#666666" points="818.75,-30.5 706.75,-30.5 706.75,0 818.75,0 818.75,-30.5"/>
<text xml:space="preserve" text-anchor="start" x="714.75" y="-17" font-family="Helvetica,sans-Serif" font-size="10.00">TemperatureController</text>
<text xml:space="preserve" text-anchor="middle" x="762.75" y="-5.75" font-family="Helvetica,sans-Serif" font-size="10.00">::isPT1000Address</text>
</a>
</g>
</g>
<!-- Node13&#45;&gt;Node15 -->
<g id="edge15_Node000013_Node000015" class="edge">
<title>Node13&#45;&gt;Node15</title>
<g id="a_edge15_Node000013_Node000015"><a xlink:title=" ">
<path fill="none" stroke="#63b8ff" d="M657,-30.72C669.42,-28.89 682.64,-26.93 695.35,-25.06"/>
<polygon fill="#63b8ff" stroke="#63b8ff" points="695.49,-28.57 704.87,-23.65 694.46,-21.65 695.49,-28.57"/>
</a>
</g>
</g>
</g>
</svg>
