<?xml version="1.0" encoding="UTF-8" standalone="no"?>
<!DOCTYPE svg PUBLIC "-//W3C//DTD SVG 1.1//EN"
 "http://www.w3.org/Graphics/SVG/1.1/DTD/svg11.dtd">
<!-- Generated by graphviz version 13.1.0 (20250701.0955)
 -->
<!-- Title: Sensor::getType Pages: 1 -->
<svg width="768pt" height="542pt"
 viewBox="0.00 0.00 768.00 542.00" xmlns="http://www.w3.org/2000/svg" xmlns:xlink="http://www.w3.org/1999/xlink">
<g id="graph0" class="graph" transform="scale(1 1) rotate(0) translate(4 537.5)">
<title>Sensor::getType</title>
<!-- Node1 -->
<g id="Node000001" class="node">
<title>Node1</title>
<g id="a_Node000001"><a xlink:title="Get sensor type.">
<polygon fill="#999999" stroke="#666666" points="759.5,-331.88 672.25,-331.88 672.25,-312.62 759.5,-312.62 759.5,-331.88"/>
<text xml:space="preserve" text-anchor="middle" x="715.88" y="-318.38" font-family="Helvetica,sans-Serif" font-size="10.00">Sensor::getType</text>
</a>
</g>
</g>
<!-- Node2 -->
<g id="Node000002" class="node">
<title>Node2</title>
<g id="a_Node000002"><a xlink:href="$class_c_s_v_config_manager.html#a2c2673398051c26184c9197aa751a6b3" xlink:title="Export single measurement point to CSV format.">
<polygon fill="white" stroke="#666666" points="622.38,-502.5 513.38,-502.5 513.38,-472 622.38,-472 622.38,-502.5"/>
<text xml:space="preserve" text-anchor="start" x="521.38" y="-489" font-family="Helvetica,sans-Serif" font-size="10.00">CSVConfigManager::</text>
<text xml:space="preserve" text-anchor="middle" x="567.88" y="-477.75" font-family="Helvetica,sans-Serif" font-size="10.00">_exportPointToCSV</text>
</a>
</g>
</g>
<!-- Node1&#45;&gt;Node2 -->
<g id="edge1_Node000001_Node000002" class="edge">
<title>Node1&#45;&gt;Node2</title>
<g id="a_edge1_Node000001_Node000002"><a xlink:title=" ">
<path fill="none" stroke="#63b8ff" d="M703.04,-341.97C688.76,-364.95 663.28,-403.43 636.25,-432.25 622.51,-446.9 604.86,-461.17 591.08,-471.5"/>
<polygon fill="#63b8ff" stroke="#63b8ff" points="705.92,-343.97 708.15,-333.61 699.95,-340.32 705.92,-343.97"/>
</a>
</g>
</g>
<!-- Node4 -->
<g id="Node000004" class="node">
<title>Node4</title>
<g id="a_Node000004"><a xlink:href="$class_temperature_controller.html#aafd155cdb06d2f411d3640df99815246" xlink:title="Add a sensor to the controller.">
<polygon fill="white" stroke="#666666" points="623.88,-423.5 511.88,-423.5 511.88,-393 623.88,-393 623.88,-423.5"/>
<text xml:space="preserve" text-anchor="start" x="519.88" y="-410" font-family="Helvetica,sans-Serif" font-size="10.00">TemperatureController</text>
<text xml:space="preserve" text-anchor="middle" x="567.88" y="-398.75" font-family="Helvetica,sans-Serif" font-size="10.00">::addSensor</text>
</a>
</g>
</g>
<!-- Node1&#45;&gt;Node4 -->
<g id="edge3_Node000001_Node000004" class="edge">
<title>Node1&#45;&gt;Node4</title>
<g id="a_edge3_Node000001_Node000004"><a xlink:title=" ">
<path fill="none" stroke="#63b8ff" d="M694.24,-339.15C678.86,-351.26 657.01,-367.45 636.25,-379.25 627.73,-384.1 618.23,-388.65 609.13,-392.65"/>
<polygon fill="#63b8ff" stroke="#63b8ff" points="696.11,-342.14 701.73,-333.16 691.74,-336.67 696.11,-342.14"/>
</a>
</g>
</g>
<!-- Node5 -->
<g id="Node000005" class="node">
<title>Node5</title>
<g id="a_Node000005"><a xlink:href="$class_temperature_controller.html#add39ba7dad38449bbf1787a5c9c51ef9" xlink:title="Get JSON representation of all measurement points.">
<polygon fill="white" stroke="#666666" points="435.75,-484.5 323.75,-484.5 323.75,-454 435.75,-454 435.75,-484.5"/>
<text xml:space="preserve" text-anchor="start" x="331.75" y="-471" font-family="Helvetica,sans-Serif" font-size="10.00">TemperatureController</text>
<text xml:space="preserve" text-anchor="middle" x="379.75" y="-459.75" font-family="Helvetica,sans-Serif" font-size="10.00">::getPointsJson</text>
</a>
</g>
</g>
<!-- Node1&#45;&gt;Node5 -->
<g id="edge4_Node000001_Node000005" class="edge">
<title>Node1&#45;&gt;Node5</title>
<g id="a_edge4_Node000001_Node000005"><a xlink:title=" ">
<path fill="none" stroke="#63b8ff" d="M671.73,-335.64C660.22,-339.15 647.78,-342.89 636.25,-346.25 575.69,-363.9 549.69,-346.04 499.5,-384.25 474.76,-403.09 488.03,-425.14 463.5,-444.25 455.45,-450.52 445.84,-455.23 436.06,-458.75"/>
<polygon fill="#63b8ff" stroke="#63b8ff" points="672.43,-339.08 680.97,-332.8 670.38,-332.39 672.43,-339.08"/>
</a>
</g>
</g>
<!-- Node6 -->
<g id="Node000006" class="node">
<title>Node6</title>
<g id="a_Node000006"><a xlink:href="$class_temperature_controller.html#a01e04714a1712aa10c34276850971a12" xlink:title="Get bus number for a sensor.">
<polygon fill="white" stroke="#666666" points="623.88,-337.5 511.88,-337.5 511.88,-307 623.88,-307 623.88,-337.5"/>
<text xml:space="preserve" text-anchor="start" x="519.88" y="-324" font-family="Helvetica,sans-Serif" font-size="10.00">TemperatureController</text>
<text xml:space="preserve" text-anchor="middle" x="567.88" y="-312.75" font-family="Helvetica,sans-Serif" font-size="10.00">::getSensorBus</text>
</a>
</g>
</g>
<!-- Node1&#45;&gt;Node6 -->
<g id="edge5_Node000001_Node000006" class="edge">
<title>Node1&#45;&gt;Node6</title>
<g id="a_edge5_Node000001_Node000006"><a xlink:title=" ">
<path fill="none" stroke="#63b8ff" d="M660.37,-322.25C648.59,-322.25 636.13,-322.25 624.33,-322.25"/>
<polygon fill="#63b8ff" stroke="#63b8ff" points="660.35,-325.75 670.35,-322.25 660.35,-318.75 660.35,-325.75"/>
</a>
</g>
</g>
<!-- Node11 -->
<g id="Node000011" class="node">
<title>Node11</title>
<g id="a_Node000011"><a xlink:href="$class_temperature_controller.html#a58f7a683f6e4c08dbfdfc43c1e740f15" xlink:title="Get JSON representation of all sensors.">
<polygon fill="white" stroke="#666666" points="435.75,-239.5 323.75,-239.5 323.75,-209 435.75,-209 435.75,-239.5"/>
<text xml:space="preserve" text-anchor="start" x="331.75" y="-226" font-family="Helvetica,sans-Serif" font-size="10.00">TemperatureController</text>
<text xml:space="preserve" text-anchor="middle" x="379.75" y="-214.75" font-family="Helvetica,sans-Serif" font-size="10.00">::getSensorsJson</text>
</a>
</g>
</g>
<!-- Node1&#45;&gt;Node11 -->
<g id="edge16_Node000001_Node000011" class="edge">
<title>Node1&#45;&gt;Node11</title>
<g id="a_edge16_Node000001_Node000011"><a xlink:title=" ">
<path fill="none" stroke="#63b8ff" d="M671.7,-308.95C660.19,-305.44 647.76,-301.67 636.25,-298.25 567.31,-277.75 487.68,-254.8 435.89,-239.97"/>
<polygon fill="#63b8ff" stroke="#63b8ff" points="670.36,-312.2 680.94,-311.78 672.41,-305.5 670.36,-312.2"/>
</a>
</g>
</g>
<!-- Node15 -->
<g id="Node000015" class="node">
<title>Node15</title>
<g id="a_Node000015"><a xlink:href="$class_config_manager.html#a55b79da91c57039c483ddf5fceabbd64" xlink:title="Save measurement points configuration to file.">
<polygon fill="white" stroke="#666666" points="636.25,-153.5 499.5,-153.5 499.5,-123 636.25,-123 636.25,-153.5"/>
<text xml:space="preserve" text-anchor="start" x="507.5" y="-140" font-family="Helvetica,sans-Serif" font-size="10.00">ConfigManager::savePoints</text>
<text xml:space="preserve" text-anchor="middle" x="567.88" y="-128.75" font-family="Helvetica,sans-Serif" font-size="10.00">Config</text>
</a>
</g>
</g>
<!-- Node1&#45;&gt;Node15 -->
<g id="edge17_Node000001_Node000015" class="edge">
<title>Node1&#45;&gt;Node15</title>
<g id="a_edge17_Node000001_Node000015"><a xlink:title=" ">
<path fill="none" stroke="#63b8ff" d="M700.19,-303.75C671.44,-267.51 608.16,-187.76 581.31,-153.92"/>
<polygon fill="#63b8ff" stroke="#63b8ff" points="697.13,-305.51 706.08,-311.17 702.61,-301.16 697.13,-305.51"/>
</a>
</g>
</g>
<!-- Node22 -->
<g id="Node000022" class="node">
<title>Node22</title>
<g id="a_Node000022"><a xlink:href="$class_temperature_controller.html#a261c9b96540ec6680dfffd3a26e4ca00" xlink:title="Unbind sensor from measurement point.">
<polygon fill="white" stroke="#666666" points="631,-104.5 504.75,-104.5 504.75,-74 631,-74 631,-104.5"/>
<text xml:space="preserve" text-anchor="start" x="512.75" y="-91" font-family="Helvetica,sans-Serif" font-size="10.00">TemperatureController</text>
<text xml:space="preserve" text-anchor="middle" x="567.88" y="-79.75" font-family="Helvetica,sans-Serif" font-size="10.00">::unbindSensorFromPoint</text>
</a>
</g>
</g>
<!-- Node1&#45;&gt;Node22 -->
<g id="edge27_Node000001_Node000022" class="edge">
<title>Node1&#45;&gt;Node22</title>
<g id="a_edge27_Node000001_Node000022"><a xlink:title=" ">
<path fill="none" stroke="#63b8ff" d="M712.66,-301.12C707.21,-259.68 689.48,-167.16 636.25,-114.25 632.62,-110.64 628.43,-107.55 623.94,-104.9"/>
<polygon fill="#63b8ff" stroke="#63b8ff" points="709.17,-301.43 713.82,-310.95 716.12,-300.61 709.17,-301.43"/>
</a>
</g>
</g>
<!-- Node3 -->
<g id="Node000003" class="node">
<title>Node3</title>
<g id="a_Node000003"><a xlink:href="$class_c_s_v_config_manager.html#a1c6cbc4c8a132762bf16a8ce9f7d0bfc" xlink:title="Export measurement points with alarm configuration to CSV.">
<polygon fill="white" stroke="#666666" points="447.75,-533.5 311.75,-533.5 311.75,-503 447.75,-503 447.75,-533.5"/>
<text xml:space="preserve" text-anchor="start" x="319.75" y="-520" font-family="Helvetica,sans-Serif" font-size="10.00">CSVConfigManager::export</text>
<text xml:space="preserve" text-anchor="middle" x="379.75" y="-508.75" font-family="Helvetica,sans-Serif" font-size="10.00">PointsWithAlarmsToCSV</text>
</a>
</g>
</g>
<!-- Node2&#45;&gt;Node3 -->
<g id="edge2_Node000002_Node000003" class="edge">
<title>Node2&#45;&gt;Node3</title>
<g id="a_edge2_Node000002_Node000003"><a xlink:title=" ">
<path fill="none" stroke="#63b8ff" d="M501.84,-498.08C484.43,-500.98 465.57,-504.12 448.04,-507.04"/>
<polygon fill="#63b8ff" stroke="#63b8ff" points="502.26,-501.56 511.55,-496.47 501.11,-494.66 502.26,-501.56"/>
</a>
</g>
</g>
<!-- Node6&#45;&gt;Node5 -->
<g id="edge10_Node000006_Node000005" class="edge">
<title>Node6&#45;&gt;Node5</title>
<g id="a_edge10_Node000006_Node000005"><a xlink:title=" ">
<path fill="none" stroke="#63b8ff" d="M507.94,-343.94C504.91,-346.16 502.06,-348.59 499.5,-351.25 468.75,-383.17 496.01,-414.12 463.5,-444.25 455.79,-451.39 446.12,-456.5 436.12,-460.14"/>
<polygon fill="#63b8ff" stroke="#63b8ff" points="509.63,-347.02 516.23,-338.72 505.9,-341.1 509.63,-347.02"/>
</a>
</g>
</g>
<!-- Node7 -->
<g id="Node000007" class="node">
<title>Node7</title>
<g id="a_Node000007"><a xlink:href="$class_temperature_controller.html#af4ab2c7b7a3934ab7837603a420b1ae2" xlink:title="Bind sensor to measurement point by bus number.">
<polygon fill="white" stroke="#666666" points="463.5,-435.5 296,-435.5 296,-405 463.5,-405 463.5,-435.5"/>
<text xml:space="preserve" text-anchor="start" x="304" y="-422" font-family="Helvetica,sans-Serif" font-size="10.00">TemperatureController</text>
<text xml:space="preserve" text-anchor="middle" x="379.75" y="-410.75" font-family="Helvetica,sans-Serif" font-size="10.00">::bindSensorToPointByBusNumber</text>
</a>
</g>
</g>
<!-- Node6&#45;&gt;Node7 -->
<g id="edge6_Node000006_Node000007" class="edge">
<title>Node6&#45;&gt;Node7</title>
<g id="a_edge6_Node000006_Node000007"><a xlink:title=" ">
<path fill="none" stroke="#63b8ff" d="M512.17,-343.04C507.73,-345.55 503.44,-348.28 499.5,-351.25 479.32,-366.46 484.51,-381.21 463.5,-395.25 458.13,-398.84 452.24,-401.92 446.14,-404.58"/>
<polygon fill="#63b8ff" stroke="#63b8ff" points="513.45,-346.33 520.73,-338.63 510.24,-340.11 513.45,-346.33"/>
</a>
</g>
</g>
<!-- Node8 -->
<g id="Node000008" class="node">
<title>Node8</title>
<g id="a_Node000008"><a xlink:href="$class_temperature_controller.html#a57b74b40c88016965d07248981412f7d" xlink:title="Discover DS18B20 sensors on all OneWire buses.">
<polygon fill="white" stroke="#666666" points="448.12,-386.5 311.38,-386.5 311.38,-356 448.12,-356 448.12,-386.5"/>
<text xml:space="preserve" text-anchor="start" x="319.38" y="-373" font-family="Helvetica,sans-Serif" font-size="10.00">TemperatureController</text>
<text xml:space="preserve" text-anchor="middle" x="379.75" y="-361.75" font-family="Helvetica,sans-Serif" font-size="10.00">::discoverDS18B20Sensors</text>
</a>
</g>
</g>
<!-- Node6&#45;&gt;Node8 -->
<g id="edge7_Node000006_Node000008" class="edge">
<title>Node6&#45;&gt;Node8</title>
<g id="a_edge7_Node000006_Node000008"><a xlink:title=" ">
<path fill="none" stroke="#63b8ff" d="M500.53,-339.72C480.92,-344.88 459.58,-350.5 440.42,-355.54"/>
<polygon fill="#63b8ff" stroke="#63b8ff" points="501.29,-343.13 510.07,-337.2 499.51,-336.37 501.29,-343.13"/>
</a>
</g>
</g>
<!-- Node9 -->
<g id="Node000009" class="node">
<title>Node9</title>
<g id="a_Node000009"><a xlink:href="$class_temperature_controller.html#a79e98c9a1d42de787a66e02b250b7a74" xlink:title="Discover PT1000 sensors on SPI bus.">
<polygon fill="white" stroke="#666666" points="435.75,-337.5 323.75,-337.5 323.75,-307 435.75,-307 435.75,-337.5"/>
<text xml:space="preserve" text-anchor="start" x="331.75" y="-324" font-family="Helvetica,sans-Serif" font-size="10.00">TemperatureController</text>
<text xml:space="preserve" text-anchor="middle" x="379.75" y="-312.75" font-family="Helvetica,sans-Serif" font-size="10.00">::discoverPTSensors</text>
</a>
</g>
</g>
<!-- Node6&#45;&gt;Node9 -->
<g id="edge8_Node000006_Node000009" class="edge">
<title>Node6&#45;&gt;Node9</title>
<g id="a_edge8_Node000006_Node000009"><a xlink:title=" ">
<path fill="none" stroke="#63b8ff" d="M500.12,-322.25C479.17,-322.25 456.28,-322.25 436.2,-322.25"/>
<polygon fill="#63b8ff" stroke="#63b8ff" points="500.02,-325.75 510.02,-322.25 500.02,-318.75 500.02,-325.75"/>
</a>
</g>
</g>
<!-- Node6&#45;&gt;Node11 -->
<g id="edge11_Node000006_Node000011" class="edge">
<title>Node6&#45;&gt;Node11</title>
<g id="a_edge11_Node000006_Node000011"><a xlink:title=" ">
<path fill="none" stroke="#63b8ff" d="M539.77,-299.42C519.76,-283.52 491.28,-262.81 463.5,-249.25 454.87,-245.04 445.38,-241.37 436,-238.23"/>
<polygon fill="#63b8ff" stroke="#63b8ff" points="537.45,-302.05 547.42,-305.62 541.85,-296.61 537.45,-302.05"/>
</a>
</g>
</g>
<!-- Node12 -->
<g id="Node000012" class="node">
<title>Node12</title>
<g id="a_Node000012"><a xlink:href="$class_temperature_controller.html#a23dca296a268baa9b8234c8bf9cf0c3e" xlink:title="Update temperature readings for all sensors.">
<polygon fill="white" stroke="#666666" points="435.75,-288.5 323.75,-288.5 323.75,-258 435.75,-258 435.75,-288.5"/>
<text xml:space="preserve" text-anchor="start" x="331.75" y="-275" font-family="Helvetica,sans-Serif" font-size="10.00">TemperatureController</text>
<text xml:space="preserve" text-anchor="middle" x="379.75" y="-263.75" font-family="Helvetica,sans-Serif" font-size="10.00">::updateAllSensors</text>
</a>
</g>
</g>
<!-- Node6&#45;&gt;Node12 -->
<g id="edge12_Node000006_Node000012" class="edge">
<title>Node6&#45;&gt;Node12</title>
<g id="a_edge12_Node000006_Node000012"><a xlink:title=" ">
<path fill="none" stroke="#63b8ff" d="M500.42,-304.75C479.38,-299.22 456.37,-293.16 436.2,-287.85"/>
<polygon fill="#63b8ff" stroke="#63b8ff" points="499.51,-308.13 510.07,-307.3 501.29,-301.37 499.51,-308.13"/>
</a>
</g>
</g>
<!-- Node10 -->
<g id="Node000010" class="node">
<title>Node10</title>
<g id="a_Node000010"><a xlink:href="$class_temperature_controller.html#af59d6d6d48ed8ddfb968a1fa2dce6768" xlink:title="Initialize the temperature controller system.">
<polygon fill="white" stroke="#666666" points="260,-337.5 148,-337.5 148,-307 260,-307 260,-337.5"/>
<text xml:space="preserve" text-anchor="start" x="156" y="-324" font-family="Helvetica,sans-Serif" font-size="10.00">TemperatureController</text>
<text xml:space="preserve" text-anchor="middle" x="204" y="-312.75" font-family="Helvetica,sans-Serif" font-size="10.00">::begin</text>
</a>
</g>
</g>
<!-- Node9&#45;&gt;Node10 -->
<g id="edge9_Node000009_Node000010" class="edge">
<title>Node9&#45;&gt;Node10</title>
<g id="a_edge9_Node000009_Node000010"><a xlink:title=" ">
<path fill="none" stroke="#63b8ff" d="M312.21,-322.25C295.04,-322.25 276.75,-322.25 260.22,-322.25"/>
<polygon fill="#63b8ff" stroke="#63b8ff" points="311.78,-325.75 321.78,-322.25 311.78,-318.75 311.78,-325.75"/>
</a>
</g>
</g>
<!-- Node13 -->
<g id="Node000013" class="node">
<title>Node13</title>
<g id="a_Node000013"><a xlink:href="$class_temperature_controller.html#aca5deddbf703001373424d876f87b5f2" xlink:title="Main update function &#45; must be called in loop()">
<polygon fill="white" stroke="#666666" points="260,-288.5 148,-288.5 148,-258 260,-258 260,-288.5"/>
<text xml:space="preserve" text-anchor="start" x="156" y="-275" font-family="Helvetica,sans-Serif" font-size="10.00">TemperatureController</text>
<text xml:space="preserve" text-anchor="middle" x="204" y="-263.75" font-family="Helvetica,sans-Serif" font-size="10.00">::update</text>
</a>
</g>
</g>
<!-- Node12&#45;&gt;Node13 -->
<g id="edge13_Node000012_Node000013" class="edge">
<title>Node12&#45;&gt;Node13</title>
<g id="a_edge13_Node000012_Node000013"><a xlink:title=" ">
<path fill="none" stroke="#63b8ff" d="M312.21,-273.25C295.04,-273.25 276.75,-273.25 260.22,-273.25"/>
<polygon fill="#63b8ff" stroke="#63b8ff" points="311.78,-276.75 321.78,-273.25 311.78,-269.75 311.78,-276.75"/>
</a>
</g>
</g>
<!-- Node14 -->
<g id="Node000014" class="node">
<title>Node14</title>
<g id="a_Node000014"><a xlink:href="$class_temperature_controller.html#a11948a87fe7df37543b86ecdd488b341" xlink:title="Read temperature from all configured measurement points.">
<polygon fill="white" stroke="#666666" points="112,-288.5 0,-288.5 0,-258 112,-258 112,-288.5"/>
<text xml:space="preserve" text-anchor="start" x="8" y="-275" font-family="Helvetica,sans-Serif" font-size="10.00">TemperatureController</text>
<text xml:space="preserve" text-anchor="middle" x="56" y="-263.75" font-family="Helvetica,sans-Serif" font-size="10.00">::readAllPoints</text>
</a>
</g>
</g>
<!-- Node13&#45;&gt;Node14 -->
<g id="edge14_Node000013_Node000014" class="edge">
<title>Node13&#45;&gt;Node14</title>
<g id="a_edge14_Node000013_Node000014"><a xlink:title=" ">
<path fill="none" stroke="#63b8ff" d="M136.47,-266.52C128.38,-266.46 120.18,-266.52 112.27,-266.68"/>
<polygon fill="#63b8ff" stroke="#63b8ff" points="136.24,-270.02 146.29,-266.66 136.34,-263.02 136.24,-270.02"/>
</a>
</g>
</g>
<!-- Node14&#45;&gt;Node13 -->
<g id="edge15_Node000014_Node000013" class="edge">
<title>Node14&#45;&gt;Node13</title>
<g id="a_edge15_Node000014_Node000013"><a xlink:title=" ">
<path fill="none" stroke="#63b8ff" d="M123.61,-279.98C131.7,-280.04 139.9,-279.98 147.8,-279.82"/>
<polygon fill="#63b8ff" stroke="#63b8ff" points="123.84,-276.48 113.79,-279.84 123.74,-283.48 123.84,-276.48"/>
</a>
</g>
</g>
<!-- Node16 -->
<g id="Node000016" class="node">
<title>Node16</title>
<g id="a_Node000016"><a xlink:href="$class_config_manager.html#ae605c999fabc6344511f455618655326" xlink:title="Setup alarms API endpoints.">
<polygon fill="white" stroke="#666666" points="446.62,-190.88 312.88,-190.88 312.88,-171.62 446.62,-171.62 446.62,-190.88"/>
<text xml:space="preserve" text-anchor="middle" x="379.75" y="-177.38" font-family="Helvetica,sans-Serif" font-size="10.00">ConfigManager::alarmsAPI</text>
</a>
</g>
</g>
<!-- Node15&#45;&gt;Node16 -->
<g id="edge18_Node000015_Node000016" class="edge">
<title>Node15&#45;&gt;Node16</title>
<g id="a_edge18_Node000015_Node000016"><a xlink:title=" ">
<path fill="none" stroke="#63b8ff" d="M488.34,-156.5C479.95,-158.45 471.55,-160.39 463.5,-162.25 450.86,-165.17 437.13,-168.33 424.56,-171.21"/>
<polygon fill="#63b8ff" stroke="#63b8ff" points="488.89,-159.97 497.84,-154.3 487.31,-153.15 488.89,-159.97"/>
</a>
</g>
</g>
<!-- Node18 -->
<g id="Node000018" class="node">
<title>Node18</title>
<g id="a_Node000018"><a xlink:href="$class_config_manager.html#a9b7af07b85bf9cc3ac05603db6e89fd2" xlink:title="Setup CSV import/export API endpoints.">
<polygon fill="white" stroke="#666666" points="445.5,-153.5 314,-153.5 314,-123 445.5,-123 445.5,-153.5"/>
<text xml:space="preserve" text-anchor="start" x="322" y="-140" font-family="Helvetica,sans-Serif" font-size="10.00">ConfigManager::csvImport</text>
<text xml:space="preserve" text-anchor="middle" x="379.75" y="-128.75" font-family="Helvetica,sans-Serif" font-size="10.00">ExportAPI</text>
</a>
</g>
</g>
<!-- Node15&#45;&gt;Node18 -->
<g id="edge20_Node000015_Node000018" class="edge">
<title>Node15&#45;&gt;Node18</title>
<g id="a_edge20_Node000015_Node000018"><a xlink:title=" ">
<path fill="none" stroke="#63b8ff" d="M488.02,-138.25C474,-138.25 459.53,-138.25 445.94,-138.25"/>
<polygon fill="#63b8ff" stroke="#63b8ff" points="487.64,-141.75 497.64,-138.25 487.64,-134.75 487.64,-141.75"/>
</a>
</g>
</g>
<!-- Node19 -->
<g id="Node000019" class="node">
<title>Node19</title>
<g id="a_Node000019"><a xlink:href="$class_config_manager.html#a471a844085c27f3a8a8f9394d9c14677" xlink:title="Setup measurement points API endpoints.">
<polygon fill="white" stroke="#666666" points="445.12,-104.88 314.38,-104.88 314.38,-85.62 445.12,-85.62 445.12,-104.88"/>
<text xml:space="preserve" text-anchor="middle" x="379.75" y="-91.38" font-family="Helvetica,sans-Serif" font-size="10.00">ConfigManager::pointsAPI</text>
</a>
</g>
</g>
<!-- Node15&#45;&gt;Node19 -->
<g id="edge22_Node000015_Node000019" class="edge">
<title>Node15&#45;&gt;Node19</title>
<g id="a_edge22_Node000015_Node000019"><a xlink:title=" ">
<path fill="none" stroke="#63b8ff" d="M488.34,-120C479.95,-118.05 471.55,-116.11 463.5,-114.25 450.86,-111.33 437.13,-108.17 424.56,-105.29"/>
<polygon fill="#63b8ff" stroke="#63b8ff" points="487.31,-123.35 497.84,-122.2 488.89,-116.53 487.31,-123.35"/>
</a>
</g>
</g>
<!-- Node20 -->
<g id="Node000020" class="node">
<title>Node20</title>
<g id="a_Node000020"><a xlink:href="$class_config_manager.html#a45b1ce1f09401af0b6f700cf4388b233" xlink:title="Setup sensor&#45;related API endpoints.">
<polygon fill="white" stroke="#666666" points="446.62,-67.88 312.88,-67.88 312.88,-48.62 446.62,-48.62 446.62,-67.88"/>
<text xml:space="preserve" text-anchor="middle" x="379.75" y="-54.38" font-family="Helvetica,sans-Serif" font-size="10.00">ConfigManager::sensorAPI</text>
</a>
</g>
</g>
<!-- Node15&#45;&gt;Node20 -->
<g id="edge24_Node000015_Node000020" class="edge">
<title>Node15&#45;&gt;Node20</title>
<g id="a_edge24_Node000015_Node000020"><a xlink:title=" ">
<path fill="none" stroke="#63b8ff" d="M506.51,-117.44C504.1,-116.11 501.75,-114.71 499.5,-113.25 480.27,-100.73 483.56,-87.38 463.5,-76.25 457.72,-73.04 451.41,-70.4 444.94,-68.23"/>
<polygon fill="#63b8ff" stroke="#63b8ff" points="504.85,-120.52 515.36,-121.84 507.96,-114.25 504.85,-120.52"/>
</a>
</g>
</g>
<!-- Node21 -->
<g id="Node000021" class="node">
<title>Node21</title>
<g id="a_Node000021"><a xlink:href="$class_config_manager.html#a0daf50bbd376beb24a5400a86e893338" xlink:title="Update a measurement point in configuration.">
<polygon fill="white" stroke="#666666" points="449.62,-30.5 309.88,-30.5 309.88,0 449.62,0 449.62,-30.5"/>
<text xml:space="preserve" text-anchor="start" x="317.88" y="-17" font-family="Helvetica,sans-Serif" font-size="10.00">ConfigManager::updatePoint</text>
<text xml:space="preserve" text-anchor="middle" x="379.75" y="-5.75" font-family="Helvetica,sans-Serif" font-size="10.00">InConfig</text>
</a>
</g>
</g>
<!-- Node15&#45;&gt;Node21 -->
<g id="edge26_Node000015_Node000021" class="edge">
<title>Node15&#45;&gt;Node21</title>
<g id="a_edge26_Node000015_Node000021"><a xlink:title=" ">
<path fill="none" stroke="#63b8ff" d="M503.38,-116.48C502.04,-115.45 500.74,-114.38 499.5,-113.25 472.41,-88.68 491.47,-62.82 463.5,-39.25 459.38,-35.78 454.79,-32.81 449.93,-30.27"/>
<polygon fill="#63b8ff" stroke="#63b8ff" points="501.26,-119.28 511.55,-121.79 505.07,-113.41 501.26,-119.28"/>
</a>
</g>
</g>
<!-- Node17 -->
<g id="Node000017" class="node">
<title>Node17</title>
<g id="a_Node000017"><a xlink:href="$class_config_manager.html#a0497343220fc493f5cf9574922508908" xlink:title="Initialize the configuration system.">
<polygon fill="white" stroke="#666666" points="259.62,-126.88 148.38,-126.88 148.38,-107.62 259.62,-107.62 259.62,-126.88"/>
<text xml:space="preserve" text-anchor="middle" x="204" y="-113.38" font-family="Helvetica,sans-Serif" font-size="10.00">ConfigManager::begin</text>
</a>
</g>
</g>
<!-- Node16&#45;&gt;Node17 -->
<g id="edge19_Node000016_Node000017" class="edge">
<title>Node16&#45;&gt;Node17</title>
<g id="a_edge19_Node000016_Node000017"><a xlink:title=" ">
<path fill="none" stroke="#63b8ff" d="M315.44,-168.33C308.81,-166.49 302.23,-164.47 296,-162.25 269.27,-152.72 240.17,-137.38 222.25,-127.3"/>
<polygon fill="#63b8ff" stroke="#63b8ff" points="314.55,-171.71 325.1,-170.84 316.31,-164.94 314.55,-171.71"/>
</a>
</g>
</g>
<!-- Node18&#45;&gt;Node17 -->
<g id="edge21_Node000018_Node000017" class="edge">
<title>Node18&#45;&gt;Node17</title>
<g id="a_edge21_Node000018_Node000017"><a xlink:title=" ">
<path fill="none" stroke="#63b8ff" d="M302.27,-129.01C288.05,-127.29 273.46,-125.52 260.04,-123.9"/>
<polygon fill="#63b8ff" stroke="#63b8ff" points="301.71,-132.46 312.05,-130.19 302.55,-125.51 301.71,-132.46"/>
</a>
</g>
</g>
<!-- Node19&#45;&gt;Node17 -->
<g id="edge23_Node000019_Node000017" class="edge">
<title>Node19&#45;&gt;Node17</title>
<g id="a_edge23_Node000019_Node000017"><a xlink:title=" ">
<path fill="none" stroke="#63b8ff" d="M302.67,-104.88C288.34,-106.7 273.6,-108.56 260.07,-110.28"/>
<polygon fill="#63b8ff" stroke="#63b8ff" points="303.07,-108.36 312.55,-103.63 302.19,-101.42 303.07,-108.36"/>
</a>
</g>
</g>
<!-- Node20&#45;&gt;Node17 -->
<g id="edge25_Node000020_Node000017" class="edge">
<title>Node20&#45;&gt;Node17</title>
<g id="a_edge25_Node000020_Node000017"><a xlink:title=" ">
<path fill="none" stroke="#63b8ff" d="M313.63,-71.06C307.63,-72.65 301.67,-74.38 296,-76.25 270.33,-84.72 242.15,-98.09 224.06,-107.25"/>
<polygon fill="#63b8ff" stroke="#63b8ff" points="314.13,-74.54 322.98,-68.72 312.43,-67.75 314.13,-74.54"/>
</a>
</g>
</g>
</g>
</svg>
