<?xml version="1.0" encoding="UTF-8" standalone="no"?>
<!DOCTYPE svg PUBLIC "-//W3C//DTD SVG 1.1//EN"
 "http://www.w3.org/Graphics/SVG/1.1/DTD/svg11.dtd">
<!-- Generated by graphviz version 13.1.0 (20250701.0955)
 -->
<!-- Title: TemperatureController::updateAlarms Pages: 1 -->
<svg width="597pt" height="136pt"
 viewBox="0.00 0.00 597.00 136.00" xmlns="http://www.w3.org/2000/svg" xmlns:xlink="http://www.w3.org/1999/xlink">
<g id="graph0" class="graph" transform="scale(1 1) rotate(0) translate(4 131.5)">
<title>TemperatureController::updateAlarms</title>
<!-- Node1 -->
<g id="Node000001" class="node">
<title>Node1</title>
<g id="a_Node000001"><a xlink:title=" ">
<polygon fill="#999999" stroke="#666666" points="112,-102.5 0,-102.5 0,-72 112,-72 112,-102.5"/>
<text xml:space="preserve" text-anchor="start" x="8" y="-89" font-family="Helvetica,sans-Serif" font-size="10.00">TemperatureController</text>
<text xml:space="preserve" text-anchor="middle" x="56" y="-77.75" font-family="Helvetica,sans-Serif" font-size="10.00">::updateAlarms</text>
</a>
</g>
</g>
<!-- Node2 -->
<g id="Node000002" class="node">
<title>Node2</title>
<g id="a_Node000002"><a xlink:href="class_temperature_controller.html#af58201023d15de003d4f1b9a9771a9e3" target="_top" xlink:title=" ">
<polygon fill="white" stroke="#666666" points="260,-127.5 148,-127.5 148,-97 260,-97 260,-127.5"/>
<text xml:space="preserve" text-anchor="start" x="156" y="-114" font-family="Helvetica,sans-Serif" font-size="10.00">TemperatureController</text>
<text xml:space="preserve" text-anchor="middle" x="204" y="-102.75" font-family="Helvetica,sans-Serif" font-size="10.00">::getActiveAlarms</text>
</a>
</g>
</g>
<!-- Node1&#45;&gt;Node2 -->
<g id="edge1_Node000001_Node000002" class="edge">
<title>Node1&#45;&gt;Node2</title>
<g id="a_edge1_Node000001_Node000002"><a xlink:title=" ">
<path fill="none" stroke="#63b8ff" d="M112.2,-96.7C120.1,-98.05 128.3,-99.46 136.39,-100.84"/>
<polygon fill="#63b8ff" stroke="#63b8ff" points="135.79,-104.29 146.23,-102.53 136.97,-97.39 135.79,-104.29"/>
</a>
</g>
</g>
<!-- Node3 -->
<g id="Node000003" class="node">
<title>Node3</title>
<g id="a_Node000003"><a xlink:href="class_temperature_controller.html#a9b4fe09d4c87dcf86e78b890012e1e72" target="_top" xlink:title=" ">
<polygon fill="white" stroke="#666666" points="260,-78.5 148,-78.5 148,-48 260,-48 260,-78.5"/>
<text xml:space="preserve" text-anchor="start" x="156" y="-65" font-family="Helvetica,sans-Serif" font-size="10.00">TemperatureController</text>
<text xml:space="preserve" text-anchor="middle" x="204" y="-53.75" font-family="Helvetica,sans-Serif" font-size="10.00">::getBoundSensor</text>
</a>
</g>
</g>
<!-- Node1&#45;&gt;Node3 -->
<g id="edge2_Node000001_Node000003" class="edge">
<title>Node1&#45;&gt;Node3</title>
<g id="a_edge2_Node000001_Node000003"><a xlink:title=" ">
<path fill="none" stroke="#63b8ff" d="M112.2,-78.18C120.1,-76.88 128.3,-75.53 136.39,-74.2"/>
<polygon fill="#63b8ff" stroke="#63b8ff" points="136.93,-77.66 146.23,-72.58 135.8,-70.75 136.93,-77.66"/>
</a>
</g>
</g>
<!-- Node4 -->
<g id="Node000004" class="node">
<title>Node4</title>
<g id="a_Node000004"><a xlink:href="class_measurement_point.html#a81c7ae93a9314344967d0f31c6fefe2f" target="_top" xlink:title=" ">
<polygon fill="white" stroke="#666666" points="441,-103.5 296,-103.5 296,-73 441,-73 441,-103.5"/>
<text xml:space="preserve" text-anchor="start" x="304" y="-90" font-family="Helvetica,sans-Serif" font-size="10.00">MeasurementPoint::getBound</text>
<text xml:space="preserve" text-anchor="middle" x="368.5" y="-78.75" font-family="Helvetica,sans-Serif" font-size="10.00">Sensor</text>
</a>
</g>
</g>
<!-- Node3&#45;&gt;Node4 -->
<g id="edge3_Node000003_Node000004" class="edge">
<title>Node3&#45;&gt;Node4</title>
<g id="a_edge3_Node000003_Node000004"><a xlink:title=" ">
<path fill="none" stroke="#63b8ff" d="M260.47,-71.78C268.16,-72.97 276.19,-74.2 284.24,-75.44"/>
<polygon fill="#63b8ff" stroke="#63b8ff" points="283.7,-78.9 294.12,-76.96 284.77,-71.98 283.7,-78.9"/>
</a>
</g>
</g>
<!-- Node5 -->
<g id="Node000005" class="node">
<title>Node5</title>
<g id="a_Node000005"><a xlink:href="class_temperature_controller.html#a494f057c234b4ff7526bde271aec9267" target="_top" xlink:title=" ">
<polygon fill="white" stroke="#666666" points="427.12,-54.5 309.88,-54.5 309.88,-24 427.12,-24 427.12,-54.5"/>
<text xml:space="preserve" text-anchor="start" x="317.88" y="-41" font-family="Helvetica,sans-Serif" font-size="10.00">TemperatureController</text>
<text xml:space="preserve" text-anchor="middle" x="368.5" y="-29.75" font-family="Helvetica,sans-Serif" font-size="10.00">::getMeasurementPoint</text>
</a>
</g>
</g>
<!-- Node3&#45;&gt;Node5 -->
<g id="edge4_Node000003_Node000005" class="edge">
<title>Node3&#45;&gt;Node5</title>
<g id="a_edge4_Node000003_Node000005"><a xlink:title=" ">
<path fill="none" stroke="#63b8ff" d="M260.47,-55.06C272.7,-53.25 285.8,-51.32 298.49,-49.44"/>
<polygon fill="#63b8ff" stroke="#63b8ff" points="298.63,-52.96 308.01,-48.04 297.61,-46.03 298.63,-52.96"/>
</a>
</g>
</g>
<!-- Node6 -->
<g id="Node000006" class="node">
<title>Node6</title>
<g id="a_Node000006"><a xlink:href="class_temperature_controller.html#ad322a5bab8d5788a586206004248f673" target="_top" xlink:title=" ">
<polygon fill="white" stroke="#666666" points="589,-79.5 477,-79.5 477,-49 589,-49 589,-79.5"/>
<text xml:space="preserve" text-anchor="start" x="485" y="-66" font-family="Helvetica,sans-Serif" font-size="10.00">TemperatureController</text>
<text xml:space="preserve" text-anchor="middle" x="533" y="-54.75" font-family="Helvetica,sans-Serif" font-size="10.00">::isDS18B20Address</text>
</a>
</g>
</g>
<!-- Node5&#45;&gt;Node6 -->
<g id="edge5_Node000005_Node000006" class="edge">
<title>Node5&#45;&gt;Node6</title>
<g id="a_edge5_Node000005_Node000006"><a xlink:title=" ">
<path fill="none" stroke="#63b8ff" d="M427.25,-48.13C439.67,-50.04 452.89,-52.08 465.6,-54.04"/>
<polygon fill="#63b8ff" stroke="#63b8ff" points="464.7,-57.44 475.12,-55.5 465.77,-50.52 464.7,-57.44"/>
</a>
</g>
</g>
<!-- Node7 -->
<g id="Node000007" class="node">
<title>Node7</title>
<g id="a_Node000007"><a xlink:href="class_temperature_controller.html#a13125ddcf29cb56d27403818543618af" target="_top" xlink:title=" ">
<polygon fill="white" stroke="#666666" points="589,-30.5 477,-30.5 477,0 589,0 589,-30.5"/>
<text xml:space="preserve" text-anchor="start" x="485" y="-17" font-family="Helvetica,sans-Serif" font-size="10.00">TemperatureController</text>
<text xml:space="preserve" text-anchor="middle" x="533" y="-5.75" font-family="Helvetica,sans-Serif" font-size="10.00">::isPT1000Address</text>
</a>
</g>
</g>
<!-- Node5&#45;&gt;Node7 -->
<g id="edge6_Node000005_Node000007" class="edge">
<title>Node5&#45;&gt;Node7</title>
<g id="a_edge6_Node000005_Node000007"><a xlink:title=" ">
<path fill="none" stroke="#63b8ff" d="M427.25,-30.72C439.67,-28.89 452.89,-26.93 465.6,-25.06"/>
<polygon fill="#63b8ff" stroke="#63b8ff" points="465.74,-28.57 475.12,-23.65 464.71,-21.65 465.74,-28.57"/>
</a>
</g>
</g>
</g>
</svg>
