<?xml version="1.0" encoding="UTF-8" standalone="no"?>
<!DOCTYPE svg PUBLIC "-//W3C//DTD SVG 1.1//EN"
 "http://www.w3.org/Graphics/SVG/1.1/DTD/svg11.dtd">
<!-- Generated by graphviz version 13.1.0 (20250701.0955)
 -->
<!-- Title: TimeManager::_isWiFiConnected Pages: 1 -->
<svg width="544pt" height="101pt"
 viewBox="0.00 0.00 544.00 101.00" xmlns="http://www.w3.org/2000/svg" xmlns:xlink="http://www.w3.org/1999/xlink">
<g id="graph0" class="graph" transform="scale(1 1) rotate(0) translate(4 97.25)">
<title>TimeManager::_isWiFiConnected</title>
<!-- Node1 -->
<g id="Node000001" class="node">
<title>Node1</title>
<g id="a_Node000001"><a xlink:title=" ">
<polygon fill="#999999" stroke="#666666" points="535.5,-56.25 374,-56.25 374,-37 535.5,-37 535.5,-56.25"/>
<text xml:space="preserve" text-anchor="middle" x="454.75" y="-42.75" font-family="Helvetica,sans-Serif" font-size="10.00">TimeManager::_isWiFiConnected</text>
</a>
</g>
</g>
<!-- Node2 -->
<g id="Node000002" class="node">
<title>Node2</title>
<g id="a_Node000002"><a xlink:href="class_time_manager.html#afdc18d9b5c9e07146b3abd9e4af0f4b6" target="_top" xlink:title=" ">
<polygon fill="white" stroke="#666666" points="333.5,-93.25 183.25,-93.25 183.25,-74 333.5,-74 333.5,-93.25"/>
<text xml:space="preserve" text-anchor="middle" x="258.38" y="-79.75" font-family="Helvetica,sans-Serif" font-size="10.00">TimeManager::getStatusJSON</text>
</a>
</g>
</g>
<!-- Node1&#45;&gt;Node2 -->
<g id="edge1_Node000001_Node000002" class="edge">
<title>Node1&#45;&gt;Node2</title>
<g id="a_edge1_Node000001_Node000002"><a xlink:title=" ">
<path fill="none" stroke="#63b8ff" d="M389.42,-58.87C364.45,-63.62 336.2,-69 312.42,-73.53"/>
<polygon fill="#63b8ff" stroke="#63b8ff" points="389.98,-62.33 399.15,-57.02 388.67,-55.45 389.98,-62.33"/>
</a>
</g>
</g>
<!-- Node3 -->
<g id="Node000003" class="node">
<title>Node3</title>
<g id="a_Node000003"><a xlink:href="class_time_manager.html#accdbd3c07d63d6ed1f96fddbc4bf2e00" target="_top" xlink:title=" ">
<polygon fill="white" stroke="#666666" points="338,-56.25 178.75,-56.25 178.75,-37 338,-37 338,-56.25"/>
<text xml:space="preserve" text-anchor="middle" x="258.38" y="-42.75" font-family="Helvetica,sans-Serif" font-size="10.00">TimeManager::setTimeFromNTP</text>
</a>
</g>
</g>
<!-- Node1&#45;&gt;Node3 -->
<g id="edge2_Node000001_Node000003" class="edge">
<title>Node1&#45;&gt;Node3</title>
<g id="a_edge2_Node000001_Node000003"><a xlink:title=" ">
<path fill="none" stroke="#63b8ff" d="M362.06,-46.62C354.16,-46.62 346.22,-46.62 338.43,-46.62"/>
<polygon fill="#63b8ff" stroke="#63b8ff" points="362.05,-50.13 372.05,-46.63 362.05,-43.13 362.05,-50.13"/>
</a>
</g>
</g>
<!-- Node5 -->
<g id="Node000005" class="node">
<title>Node5</title>
<g id="a_Node000005"><a xlink:href="class_time_manager.html#a97d902b19861efc099141eeb846671a3" target="_top" xlink:title=" ">
<polygon fill="white" stroke="#666666" points="126.62,-19.25 16.12,-19.25 16.12,0 126.62,0 126.62,-19.25"/>
<text xml:space="preserve" text-anchor="middle" x="71.38" y="-5.75" font-family="Helvetica,sans-Serif" font-size="10.00">TimeManager::update</text>
</a>
</g>
</g>
<!-- Node1&#45;&gt;Node5 -->
<g id="edge5_Node000001_Node000005" class="edge">
<title>Node1&#45;&gt;Node5</title>
<g id="a_edge5_Node000001_Node000005"><a xlink:title=" ">
<path fill="none" stroke="#63b8ff" d="M387.81,-34.69C371.57,-32.06 354.19,-29.5 338,-27.62 265.22,-19.21 180.74,-14.31 126.95,-11.81"/>
<polygon fill="#63b8ff" stroke="#63b8ff" points="386.92,-38.09 397.36,-36.27 388.06,-31.18 386.92,-38.09"/>
</a>
</g>
</g>
<!-- Node4 -->
<g id="Node000004" class="node">
<title>Node4</title>
<g id="a_Node000004"><a xlink:href="class_time_manager.html#aa8a8cc016ebb9ceabc4fee347a49cbdb" target="_top" xlink:title=" ">
<polygon fill="white" stroke="#666666" points="142.75,-56.25 0,-56.25 0,-37 142.75,-37 142.75,-56.25"/>
<text xml:space="preserve" text-anchor="middle" x="71.38" y="-42.75" font-family="Helvetica,sans-Serif" font-size="10.00">TimeManager::syncWithNTP</text>
</a>
</g>
</g>
<!-- Node3&#45;&gt;Node4 -->
<g id="edge3_Node000003_Node000004" class="edge">
<title>Node3&#45;&gt;Node4</title>
<g id="a_edge3_Node000003_Node000004"><a xlink:title=" ">
<path fill="none" stroke="#63b8ff" d="M167.09,-46.62C159.07,-46.62 151.03,-46.62 143.21,-46.62"/>
<polygon fill="#63b8ff" stroke="#63b8ff" points="166.87,-50.13 176.87,-46.63 166.87,-43.13 166.87,-50.13"/>
</a>
</g>
</g>
<!-- Node3&#45;&gt;Node5 -->
<g id="edge4_Node000003_Node000005" class="edge">
<title>Node3&#45;&gt;Node5</title>
<g id="a_edge4_Node000003_Node000005"><a xlink:title=" ">
<path fill="none" stroke="#63b8ff" d="M195.83,-34.32C172.14,-29.58 145.39,-24.23 122.87,-19.72"/>
<polygon fill="#63b8ff" stroke="#63b8ff" points="194.85,-37.69 205.34,-36.22 196.22,-30.82 194.85,-37.69"/>
</a>
</g>
</g>
</g>
</svg>
