<?xml version="1.0" encoding="UTF-8" standalone="no"?>
<!DOCTYPE svg PUBLIC "-//W3C//DTD SVG 1.1//EN"
 "http://www.w3.org/Graphics/SVG/1.1/DTD/svg11.dtd">
<!-- Generated by graphviz version 13.1.0 (20250701.0955)
 -->
<!-- Title: ConfigManager::updatePointInConfig Pages: 1 -->
<svg width="526pt" height="412pt"
 viewBox="0.00 0.00 526.00 412.00" xmlns="http://www.w3.org/2000/svg" xmlns:xlink="http://www.w3.org/1999/xlink">
<g id="graph0" class="graph" transform="scale(1 1) rotate(0) translate(4 407.88)">
<title>ConfigManager::updatePointInConfig</title>
<!-- Node1 -->
<g id="Node000001" class="node">
<title>Node1</title>
<g id="a_Node000001"><a xlink:title="Update a measurement point in configuration.">
<polygon fill="#999999" stroke="#666666" points="139.75,-100.5 0,-100.5 0,-70 139.75,-70 139.75,-100.5"/>
<text xml:space="preserve" text-anchor="start" x="8" y="-87" font-family="Helvetica,sans-Serif" font-size="10.00">ConfigManager::updatePoint</text>
<text xml:space="preserve" text-anchor="middle" x="69.88" y="-75.75" font-family="Helvetica,sans-Serif" font-size="10.00">InConfig</text>
</a>
</g>
</g>
<!-- Node2 -->
<g id="Node000002" class="node">
<title>Node2</title>
<g id="a_Node000002"><a xlink:href="class_config_manager.html#a55b79da91c57039c483ddf5fceabbd64" target="_top" xlink:title="Save measurement points configuration to file.">
<polygon fill="white" stroke="#666666" points="315.88,-218.5 179.12,-218.5 179.12,-188 315.88,-188 315.88,-218.5"/>
<text xml:space="preserve" text-anchor="start" x="187.12" y="-205" font-family="Helvetica,sans-Serif" font-size="10.00">ConfigManager::savePoints</text>
<text xml:space="preserve" text-anchor="middle" x="247.5" y="-193.75" font-family="Helvetica,sans-Serif" font-size="10.00">Config</text>
</a>
</g>
</g>
<!-- Node1&#45;&gt;Node2 -->
<g id="edge1_Node000001_Node000002" class="edge">
<title>Node1&#45;&gt;Node2</title>
<g id="a_edge1_Node000001_Node000002"><a xlink:title=" ">
<path fill="none" stroke="#63b8ff" d="M94.2,-100.92C124.9,-121.55 179.05,-157.93 213.82,-181.29"/>
<polygon fill="#63b8ff" stroke="#63b8ff" points="211.57,-184 221.83,-186.67 215.48,-178.19 211.57,-184"/>
</a>
</g>
</g>
<!-- Node12 -->
<g id="Node000012" class="node">
<title>Node12</title>
<g id="a_Node000012"><a xlink:href="class_measurement_point.html#aefb47fef40f33161be5c6fddf0cf6329" target="_top" xlink:title="Set high alarm threshold.">
<polygon fill="white" stroke="#666666" points="316.25,-79.5 178.75,-79.5 178.75,-49 316.25,-49 316.25,-79.5"/>
<text xml:space="preserve" text-anchor="start" x="186.75" y="-66" font-family="Helvetica,sans-Serif" font-size="10.00">MeasurementPoint::setHigh</text>
<text xml:space="preserve" text-anchor="middle" x="247.5" y="-54.75" font-family="Helvetica,sans-Serif" font-size="10.00">AlarmThreshold</text>
</a>
</g>
</g>
<!-- Node1&#45;&gt;Node12 -->
<g id="edge11_Node000001_Node000012" class="edge">
<title>Node1&#45;&gt;Node12</title>
<g id="a_edge11_Node000001_Node000012"><a xlink:title=" ">
<path fill="none" stroke="#63b8ff" d="M140.03,-76.98C148.88,-75.92 157.98,-74.83 166.97,-73.76"/>
<polygon fill="#63b8ff" stroke="#63b8ff" points="167.25,-77.25 176.76,-72.59 166.42,-70.3 167.25,-77.25"/>
</a>
</g>
</g>
<!-- Node14 -->
<g id="Node000014" class="node">
<title>Node14</title>
<g id="a_Node000014"><a xlink:href="class_measurement_point.html#ac780917beebc11d705824cab8f43b94d" target="_top" xlink:title="Set low alarm threshold.">
<polygon fill="white" stroke="#666666" points="315.12,-30.5 179.88,-30.5 179.88,0 315.12,0 315.12,-30.5"/>
<text xml:space="preserve" text-anchor="start" x="187.88" y="-17" font-family="Helvetica,sans-Serif" font-size="10.00">MeasurementPoint::setLow</text>
<text xml:space="preserve" text-anchor="middle" x="247.5" y="-5.75" font-family="Helvetica,sans-Serif" font-size="10.00">AlarmThreshold</text>
</a>
</g>
</g>
<!-- Node1&#45;&gt;Node14 -->
<g id="edge14_Node000001_Node000014" class="edge">
<title>Node1&#45;&gt;Node14</title>
<g id="a_edge14_Node000001_Node000014"><a xlink:title=" ">
<path fill="none" stroke="#63b8ff" d="M105.6,-69.67C125.91,-60.73 152.13,-49.48 175.75,-40.25 180.38,-38.44 185.2,-36.62 190.05,-34.82"/>
<polygon fill="#63b8ff" stroke="#63b8ff" points="191.05,-38.18 199.24,-31.47 188.65,-31.61 191.05,-38.18"/>
</a>
</g>
</g>
<!-- Node15 -->
<g id="Node000015" class="node">
<title>Node15</title>
<g id="a_Node000015"><a xlink:href="class_measurement_point.html#ae3abe83ed3e7979a906c7d753ac9d22d" target="_top" xlink:title="Set measurement point name.">
<polygon fill="white" stroke="#666666" points="319.25,-116.88 175.75,-116.88 175.75,-97.62 319.25,-97.62 319.25,-116.88"/>
<text xml:space="preserve" text-anchor="middle" x="247.5" y="-103.38" font-family="Helvetica,sans-Serif" font-size="10.00">MeasurementPoint::setName</text>
</a>
</g>
</g>
<!-- Node1&#45;&gt;Node15 -->
<g id="edge17_Node000001_Node000015" class="edge">
<title>Node1&#45;&gt;Node15</title>
<g id="a_edge17_Node000001_Node000015"><a xlink:title=" ">
<path fill="none" stroke="#63b8ff" d="M140.03,-93.91C147.93,-94.9 156.03,-95.92 164.08,-96.93"/>
<polygon fill="#63b8ff" stroke="#63b8ff" points="163.52,-100.38 173.88,-98.15 164.39,-93.44 163.52,-100.38"/>
</a>
</g>
</g>
<!-- Node3 -->
<g id="Node000003" class="node">
<title>Node3</title>
<g id="a_Node000003"><a xlink:href="class_measurement_point.html#a7b74a18d86e0e545264a774aa2c31cad" target="_top" xlink:title="Get measurement point address.">
<polygon fill="white" stroke="#666666" points="513,-157.88 359.75,-157.88 359.75,-138.62 513,-138.62 513,-157.88"/>
<text xml:space="preserve" text-anchor="middle" x="436.38" y="-144.38" font-family="Helvetica,sans-Serif" font-size="10.00">MeasurementPoint::getAddress</text>
</a>
</g>
</g>
<!-- Node2&#45;&gt;Node3 -->
<g id="edge2_Node000002_Node000003" class="edge">
<title>Node2&#45;&gt;Node3</title>
<g id="a_edge2_Node000002_Node000003"><a xlink:title=" ">
<path fill="none" stroke="#63b8ff" d="M290.23,-187.56C309.81,-180.52 333.55,-172.43 355.25,-166.25 361.82,-164.38 368.74,-162.58 375.64,-160.89"/>
<polygon fill="#63b8ff" stroke="#63b8ff" points="376.03,-164.39 384.95,-158.68 374.41,-157.58 376.03,-164.39"/>
</a>
</g>
</g>
<!-- Node4 -->
<g id="Node000004" class="node">
<title>Node4</title>
<g id="a_Node000004"><a xlink:href="class_measurement_point.html#a81c7ae93a9314344967d0f31c6fefe2f" target="_top" xlink:title="Get pointer to bound sensor.">
<polygon fill="white" stroke="#666666" points="508.88,-120.5 363.88,-120.5 363.88,-90 508.88,-90 508.88,-120.5"/>
<text xml:space="preserve" text-anchor="start" x="371.88" y="-107" font-family="Helvetica,sans-Serif" font-size="10.00">MeasurementPoint::getBound</text>
<text xml:space="preserve" text-anchor="middle" x="436.38" y="-95.75" font-family="Helvetica,sans-Serif" font-size="10.00">Sensor</text>
</a>
</g>
</g>
<!-- Node2&#45;&gt;Node4 -->
<g id="edge3_Node000002_Node000004" class="edge">
<title>Node2&#45;&gt;Node4</title>
<g id="a_edge3_Node000002_Node000004"><a xlink:title=" ">
<path fill="none" stroke="#63b8ff" d="M267.04,-187.66C287.49,-171.15 321.93,-145.29 355.25,-129.25 358.36,-127.76 361.57,-126.33 364.86,-124.98"/>
<polygon fill="#63b8ff" stroke="#63b8ff" points="366.01,-128.28 374.1,-121.44 363.5,-121.75 366.01,-128.28"/>
</a>
</g>
</g>
<!-- Node5 -->
<g id="Node000005" class="node">
<title>Node5</title>
<g id="a_Node000005"><a xlink:href="class_sensor.html#a9f793cde2918130fbc77dad1aebfe53a" target="_top" xlink:title=" ">
<polygon fill="white" stroke="#666666" points="513.75,-403.88 359,-403.88 359,-384.62 513.75,-384.62 513.75,-403.88"/>
<text xml:space="preserve" text-anchor="middle" x="436.38" y="-390.38" font-family="Helvetica,sans-Serif" font-size="10.00">Sensor::getDS18B20RomString</text>
</a>
</g>
</g>
<!-- Node2&#45;&gt;Node5 -->
<g id="edge4_Node000002_Node000005" class="edge">
<title>Node2&#45;&gt;Node5</title>
<g id="a_edge4_Node000002_Node000005"><a xlink:title=" ">
<path fill="none" stroke="#63b8ff" d="M253.58,-218.96C265.47,-253.12 298.5,-334.38 355.25,-375.25 357.2,-376.65 359.24,-377.95 361.34,-379.16"/>
<polygon fill="#63b8ff" stroke="#63b8ff" points="359.74,-382.27 370.27,-383.48 362.79,-375.97 359.74,-382.27"/>
</a>
</g>
</g>
<!-- Node6 -->
<g id="Node000006" class="node">
<title>Node6</title>
<g id="a_Node000006"><a xlink:href="class_measurement_point.html#a71d6d440240f110cbd80c58bbc47aff6" target="_top" xlink:title="Get high alarm threshold.">
<polygon fill="white" stroke="#666666" points="505.12,-366.5 367.62,-366.5 367.62,-336 505.12,-336 505.12,-366.5"/>
<text xml:space="preserve" text-anchor="start" x="375.62" y="-353" font-family="Helvetica,sans-Serif" font-size="10.00">MeasurementPoint::getHigh</text>
<text xml:space="preserve" text-anchor="middle" x="436.38" y="-341.75" font-family="Helvetica,sans-Serif" font-size="10.00">AlarmThreshold</text>
</a>
</g>
</g>
<!-- Node2&#45;&gt;Node6 -->
<g id="edge5_Node000002_Node000006" class="edge">
<title>Node2&#45;&gt;Node6</title>
<g id="a_edge5_Node000002_Node000006"><a xlink:title=" ">
<path fill="none" stroke="#63b8ff" d="M257.94,-218.93C274.44,-245.02 311,-297.31 355.25,-326.25 357.65,-327.82 360.16,-329.3 362.74,-330.69"/>
<polygon fill="#63b8ff" stroke="#63b8ff" points="361.1,-333.78 371.63,-334.96 364.13,-327.47 361.1,-333.78"/>
</a>
</g>
</g>
<!-- Node7 -->
<g id="Node000007" class="node">
<title>Node7</title>
<g id="a_Node000007"><a xlink:href="class_measurement_point.html#a6e538e117d9e22c6998b56519a51d6ba" target="_top" xlink:title="Get low alarm threshold.">
<polygon fill="white" stroke="#666666" points="504,-317.5 368.75,-317.5 368.75,-287 504,-287 504,-317.5"/>
<text xml:space="preserve" text-anchor="start" x="376.75" y="-304" font-family="Helvetica,sans-Serif" font-size="10.00">MeasurementPoint::getLow</text>
<text xml:space="preserve" text-anchor="middle" x="436.38" y="-292.75" font-family="Helvetica,sans-Serif" font-size="10.00">AlarmThreshold</text>
</a>
</g>
</g>
<!-- Node2&#45;&gt;Node7 -->
<g id="edge6_Node000002_Node000007" class="edge">
<title>Node2&#45;&gt;Node7</title>
<g id="a_edge6_Node000002_Node000007"><a xlink:title=" ">
<path fill="none" stroke="#63b8ff" d="M266.63,-218.76C287,-235.5 321.63,-261.94 355.25,-278.25 358.35,-279.75 361.57,-281.19 364.85,-282.55"/>
<polygon fill="#63b8ff" stroke="#63b8ff" points="363.49,-285.77 374.08,-286.1 366,-279.24 363.49,-285.77"/>
</a>
</g>
</g>
<!-- Node8 -->
<g id="Node000008" class="node">
<title>Node8</title>
<g id="a_Node000008"><a xlink:href="class_measurement_point.html#aa3a80d373c7609c7b178bf7353ffdd7a" target="_top" xlink:title="Get measurement point name.">
<polygon fill="white" stroke="#666666" points="508.12,-268.88 364.62,-268.88 364.62,-249.62 508.12,-249.62 508.12,-268.88"/>
<text xml:space="preserve" text-anchor="middle" x="436.38" y="-255.38" font-family="Helvetica,sans-Serif" font-size="10.00">MeasurementPoint::getName</text>
</a>
</g>
</g>
<!-- Node2&#45;&gt;Node8 -->
<g id="edge7_Node000002_Node000008" class="edge">
<title>Node2&#45;&gt;Node8</title>
<g id="a_edge7_Node000002_Node000008"><a xlink:title=" ">
<path fill="none" stroke="#63b8ff" d="M288.93,-218.94C308.73,-226.3 333.04,-234.83 355.25,-241.25 361.57,-243.08 368.21,-244.83 374.85,-246.48"/>
<polygon fill="#63b8ff" stroke="#63b8ff" points="373.97,-249.86 384.51,-248.79 375.6,-243.06 373.97,-249.86"/>
</a>
</g>
</g>
<!-- Node9 -->
<g id="Node000009" class="node">
<title>Node9</title>
<g id="a_Node000009"><a xlink:href="class_sensor.html#a6f57825e90b759ccdb9fe07b3a36953d" target="_top" xlink:title=" ">
<polygon fill="white" stroke="#666666" points="517.5,-231.88 355.25,-231.88 355.25,-212.62 517.5,-212.62 517.5,-231.88"/>
<text xml:space="preserve" text-anchor="middle" x="436.38" y="-218.38" font-family="Helvetica,sans-Serif" font-size="10.00">Sensor::getPT1000ChipSelectPin</text>
</a>
</g>
</g>
<!-- Node2&#45;&gt;Node9 -->
<g id="edge8_Node000002_Node000009" class="edge">
<title>Node2&#45;&gt;Node9</title>
<g id="a_edge8_Node000002_Node000009"><a xlink:title=" ">
<path fill="none" stroke="#63b8ff" d="M316.23,-210.14C325.14,-211.04 334.39,-211.98 343.62,-212.92"/>
<polygon fill="#63b8ff" stroke="#63b8ff" points="343.03,-216.38 353.33,-213.91 343.74,-209.42 343.03,-216.38"/>
</a>
</g>
</g>
<!-- Node10 -->
<g id="Node000010" class="node">
<title>Node10</title>
<g id="a_Node000010"><a xlink:href="class_sensor.html#a0f6f095e7cfdfffb2a395dfdae7cfa53" target="_top" xlink:title=" ">
<polygon fill="white" stroke="#666666" points="480,-194.88 392.75,-194.88 392.75,-175.62 480,-175.62 480,-194.88"/>
<text xml:space="preserve" text-anchor="middle" x="436.38" y="-181.38" font-family="Helvetica,sans-Serif" font-size="10.00">Sensor::getType</text>
</a>
</g>
</g>
<!-- Node2&#45;&gt;Node10 -->
<g id="edge9_Node000002_Node000010" class="edge">
<title>Node2&#45;&gt;Node10</title>
<g id="a_edge9_Node000002_Node000010"><a xlink:title=" ">
<path fill="none" stroke="#63b8ff" d="M316.23,-196.73C337.55,-194.67 360.8,-192.43 381.06,-190.48"/>
<polygon fill="#63b8ff" stroke="#63b8ff" points="381.16,-193.99 390.78,-189.55 380.49,-187.02 381.16,-193.99"/>
</a>
</g>
</g>
<!-- Node11 -->
<g id="Node000011" class="node">
<title>Node11</title>
<g id="a_Node000011"><a xlink:href="class_logger_manager.html#a5c1373ccc47f4112b596fe6f84fbbc21" target="_top" xlink:title="Log informational message (static convenience method)">
<polygon fill="white" stroke="#666666" points="488.62,-71.88 384.12,-71.88 384.12,-52.62 488.62,-52.62 488.62,-71.88"/>
<text xml:space="preserve" text-anchor="middle" x="436.38" y="-58.38" font-family="Helvetica,sans-Serif" font-size="10.00">LoggerManager::info</text>
</a>
</g>
</g>
<!-- Node2&#45;&gt;Node11 -->
<g id="edge10_Node000002_Node000011" class="edge">
<title>Node2&#45;&gt;Node11</title>
<g id="a_edge10_Node000002_Node000011"><a xlink:title=" ">
<path fill="none" stroke="#63b8ff" d="M263.46,-187.61C278,-172.25 300.58,-148.02 319.25,-126.25 335.92,-106.81 333.61,-94.95 355.25,-81.25 360.74,-77.77 366.82,-74.93 373.08,-72.61"/>
<polygon fill="#63b8ff" stroke="#63b8ff" points="373.87,-76.03 382.32,-69.63 371.72,-69.37 373.87,-76.03"/>
</a>
</g>
</g>
<!-- Node12&#45;&gt;Node11 -->
<g id="edge12_Node000012_Node000011" class="edge">
<title>Node12&#45;&gt;Node11</title>
<g id="a_edge12_Node000012_Node000011"><a xlink:title=" ">
<path fill="none" stroke="#63b8ff" d="M316.49,-63.52C334.82,-63.33 354.55,-63.12 372.57,-62.92"/>
<polygon fill="#63b8ff" stroke="#63b8ff" points="372.37,-66.42 382.33,-62.82 372.29,-59.43 372.37,-66.42"/>
</a>
</g>
</g>
<!-- Node13 -->
<g id="Node000013" class="node">
<title>Node13</title>
<g id="a_Node000013"><a xlink:href="class_measurement_point.html#a71995209f2507e6cc15d01607f60767f" target="_top" xlink:title="Update alarm status based on current temperature.">
<polygon fill="white" stroke="#666666" points="502.88,-33.5 369.88,-33.5 369.88,-3 502.88,-3 502.88,-33.5"/>
<text xml:space="preserve" text-anchor="start" x="377.88" y="-20" font-family="Helvetica,sans-Serif" font-size="10.00">MeasurementPoint::update</text>
<text xml:space="preserve" text-anchor="middle" x="436.38" y="-8.75" font-family="Helvetica,sans-Serif" font-size="10.00">AlarmStatus</text>
</a>
</g>
</g>
<!-- Node12&#45;&gt;Node13 -->
<g id="edge13_Node000012_Node000013" class="edge">
<title>Node12&#45;&gt;Node13</title>
<g id="a_edge13_Node000012_Node000013"><a xlink:title=" ">
<path fill="none" stroke="#63b8ff" d="M312.29,-48.55C327.84,-44.72 344.61,-40.59 360.62,-36.65"/>
<polygon fill="#63b8ff" stroke="#63b8ff" points="361.21,-40.11 370.09,-34.32 359.54,-33.31 361.21,-40.11"/>
</a>
</g>
</g>
<!-- Node14&#45;&gt;Node11 -->
<g id="edge15_Node000014_Node000011" class="edge">
<title>Node14&#45;&gt;Node11</title>
<g id="a_edge15_Node000014_Node000011"><a xlink:title=" ">
<path fill="none" stroke="#63b8ff" d="M310.58,-30.99C325.23,-34.69 340.79,-38.62 355.25,-42.25 364.54,-44.59 374.45,-47.06 384.01,-49.45"/>
<polygon fill="#63b8ff" stroke="#63b8ff" points="383,-52.81 393.55,-51.84 384.7,-46.02 383,-52.81"/>
</a>
</g>
</g>
<!-- Node14&#45;&gt;Node13 -->
<g id="edge16_Node000014_Node000013" class="edge">
<title>Node14&#45;&gt;Node13</title>
<g id="a_edge16_Node000014_Node000013"><a xlink:title=" ">
<path fill="none" stroke="#63b8ff" d="M315.44,-16.32C329.32,-16.55 344.06,-16.78 358.27,-17.01"/>
<polygon fill="#63b8ff" stroke="#63b8ff" points="357.96,-20.51 368.02,-17.17 358.08,-13.51 357.96,-20.51"/>
</a>
</g>
</g>
<!-- Node15&#45;&gt;Node11 -->
<g id="edge18_Node000015_Node000011" class="edge">
<title>Node15&#45;&gt;Node11</title>
<g id="a_edge18_Node000015_Node000011"><a xlink:title=" ">
<path fill="none" stroke="#63b8ff" d="M289.8,-97.13C309.59,-92.29 333.64,-86.44 355.25,-81.25 363.75,-79.21 372.77,-77.05 381.56,-74.96"/>
<polygon fill="#63b8ff" stroke="#63b8ff" points="382.14,-78.42 391.06,-72.71 380.52,-71.61 382.14,-78.42"/>
</a>
</g>
</g>
</g>
</svg>
