<?xml version="1.0" encoding="UTF-8" standalone="no"?>
<!DOCTYPE svg PUBLIC "-//W3C//DTD SVG 1.1//EN"
 "http://www.w3.org/Graphics/SVG/1.1/DTD/svg11.dtd">
<!-- Generated by graphviz version 13.1.0 (20250701.0955)
 -->
<!-- Title: ConfigManager::saveAlarmsConfig Pages: 1 -->
<svg width="303pt" height="175pt"
 viewBox="0.00 0.00 303.00 175.00" xmlns="http://www.w3.org/2000/svg" xmlns:xlink="http://www.w3.org/1999/xlink">
<g id="graph0" class="graph" transform="scale(1 1) rotate(0) translate(4 171.25)">
<title>ConfigManager::saveAlarmsConfig</title>
<!-- Node1 -->
<g id="Node000001" class="node">
<title>Node1</title>
<g id="a_Node000001"><a xlink:title="Save alarms configuration to file.">
<polygon fill="#999999" stroke="#666666" points="139.75,-98.88 0,-98.88 0,-68.38 139.75,-68.38 139.75,-98.88"/>
<text xml:space="preserve" text-anchor="start" x="8" y="-85.38" font-family="Helvetica,sans-Serif" font-size="10.00">ConfigManager::saveAlarms</text>
<text xml:space="preserve" text-anchor="middle" x="69.88" y="-74.12" font-family="Helvetica,sans-Serif" font-size="10.00">Config</text>
</a>
</g>
</g>
<!-- Node2 -->
<g id="Node000002" class="node">
<title>Node2</title>
<g id="a_Node000002"><a xlink:href="$class_alarm.html#a952efd43b6a887659d56815bd5119d60" xlink:title="Get the hysteresis value.">
<polygon fill="white" stroke="#666666" points="289.62,-167.25 181.38,-167.25 181.38,-148 289.62,-148 289.62,-167.25"/>
<text xml:space="preserve" text-anchor="middle" x="235.5" y="-153.75" font-family="Helvetica,sans-Serif" font-size="10.00">Alarm::getHysteresis</text>
</a>
</g>
</g>
<!-- Node1&#45;&gt;Node2 -->
<g id="edge1_Node000001_Node000002" class="edge">
<title>Node1&#45;&gt;Node2</title>
<g id="a_edge1_Node000001_Node000002"><a xlink:title=" ">
<path fill="none" stroke="#63b8ff" d="M96.91,-99.35C117.72,-111.47 147.92,-128.06 175.75,-139.62 179.36,-141.12 183.13,-142.56 186.96,-143.93"/>
<polygon fill="#63b8ff" stroke="#63b8ff" points="185.73,-147.21 196.32,-147.08 187.96,-140.57 185.73,-147.21"/>
</a>
</g>
</g>
<!-- Node3 -->
<g id="Node000003" class="node">
<title>Node3</title>
<g id="a_Node000003"><a xlink:href="$class_alarm.html#ab12dd2af567dd87228d9404dcce5b0c0" xlink:title="Get the measurement point address.">
<polygon fill="white" stroke="#666666" points="295.25,-130.25 175.75,-130.25 175.75,-111 295.25,-111 295.25,-130.25"/>
<text xml:space="preserve" text-anchor="middle" x="235.5" y="-116.75" font-family="Helvetica,sans-Serif" font-size="10.00">Alarm::getPointAddress</text>
</a>
</g>
</g>
<!-- Node1&#45;&gt;Node3 -->
<g id="edge2_Node000001_Node000003" class="edge">
<title>Node1&#45;&gt;Node3</title>
<g id="a_edge2_Node000001_Node000003"><a xlink:title=" ">
<path fill="none" stroke="#63b8ff" d="M139.79,-99.21C152.77,-102.14 166.18,-105.18 178.69,-108.01"/>
<polygon fill="#63b8ff" stroke="#63b8ff" points="177.89,-111.41 188.41,-110.2 179.43,-104.58 177.89,-111.41"/>
</a>
</g>
</g>
<!-- Node4 -->
<g id="Node000004" class="node">
<title>Node4</title>
<g id="a_Node000004"><a xlink:href="$class_alarm.html#abe89e376d8cacb582717ad6a65526ee8" xlink:title="Get the alarm priority.">
<polygon fill="white" stroke="#666666" points="281.38,-93.25 189.62,-93.25 189.62,-74 281.38,-74 281.38,-93.25"/>
<text xml:space="preserve" text-anchor="middle" x="235.5" y="-79.75" font-family="Helvetica,sans-Serif" font-size="10.00">Alarm::getPriority</text>
</a>
</g>
</g>
<!-- Node1&#45;&gt;Node4 -->
<g id="edge3_Node000001_Node000004" class="edge">
<title>Node1&#45;&gt;Node4</title>
<g id="a_edge3_Node000001_Node000004"><a xlink:title=" ">
<path fill="none" stroke="#63b8ff" d="M139.79,-83.62C152.5,-83.62 165.63,-83.62 177.93,-83.62"/>
<polygon fill="#63b8ff" stroke="#63b8ff" points="177.9,-87.13 187.9,-83.63 177.9,-80.13 177.9,-87.13"/>
</a>
</g>
</g>
<!-- Node5 -->
<g id="Node000005" class="node">
<title>Node5</title>
<g id="a_Node000005"><a xlink:href="$class_alarm.html#acfac41af4628d83d3fdcc11c8fb55069" xlink:title="Get the alarm type.">
<polygon fill="white" stroke="#666666" points="276.5,-56.25 194.5,-56.25 194.5,-37 276.5,-37 276.5,-56.25"/>
<text xml:space="preserve" text-anchor="middle" x="235.5" y="-42.75" font-family="Helvetica,sans-Serif" font-size="10.00">Alarm::getType</text>
</a>
</g>
</g>
<!-- Node1&#45;&gt;Node5 -->
<g id="edge4_Node000001_Node000005" class="edge">
<title>Node1&#45;&gt;Node5</title>
<g id="a_edge4_Node000001_Node000005"><a xlink:title=" ">
<path fill="none" stroke="#63b8ff" d="M139.79,-68.04C154.26,-64.77 169.28,-61.37 182.97,-58.28"/>
<polygon fill="#63b8ff" stroke="#63b8ff" points="183.67,-61.71 192.65,-56.09 182.13,-54.88 183.67,-61.71"/>
</a>
</g>
</g>
<!-- Node6 -->
<g id="Node000006" class="node">
<title>Node6</title>
<g id="a_Node000006"><a xlink:href="$class_alarm.html#ab1d04e5776db50454c72fd0937acdc37" xlink:title="Check if alarm is enabled in configuration.">
<polygon fill="white" stroke="#666666" points="280.62,-19.25 190.38,-19.25 190.38,0 280.62,0 280.62,-19.25"/>
<text xml:space="preserve" text-anchor="middle" x="235.5" y="-5.75" font-family="Helvetica,sans-Serif" font-size="10.00">Alarm::isEnabled</text>
</a>
</g>
</g>
<!-- Node1&#45;&gt;Node6 -->
<g id="edge5_Node000001_Node000006" class="edge">
<title>Node1&#45;&gt;Node6</title>
<g id="a_edge5_Node000001_Node000006"><a xlink:title=" ">
<path fill="none" stroke="#63b8ff" d="M96.91,-67.9C117.72,-55.78 147.92,-39.19 175.75,-27.62 179.36,-26.13 183.13,-24.69 186.96,-23.32"/>
<polygon fill="#63b8ff" stroke="#63b8ff" points="187.96,-26.68 196.32,-20.17 185.73,-20.04 187.96,-26.68"/>
</a>
</g>
</g>
</g>
</svg>
