<?xml version="1.0" encoding="UTF-8" standalone="no"?>
<!DOCTYPE svg PUBLIC "-//W3C//DTD SVG 1.1//EN"
 "http://www.w3.org/Graphics/SVG/1.1/DTD/svg11.dtd">
<!-- Generated by graphviz version 13.1.0 (20250701.0955)
 -->
<!-- Title: Alarm::Alarm Pages: 1 -->
<svg width="388pt" height="101pt"
 viewBox="0.00 0.00 388.00 101.00" xmlns="http://www.w3.org/2000/svg" xmlns:xlink="http://www.w3.org/1999/xlink">
<g id="graph0" class="graph" transform="scale(1 1) rotate(0) translate(4 97.25)">
<title>Alarm::Alarm</title>
<!-- Node1 -->
<g id="Node000001" class="node">
<title>Node1</title>
<g id="a_Node000001"><a xlink:title=" ">
<polygon fill="#999999" stroke="#666666" points="73,-56.25 0,-56.25 0,-37 73,-37 73,-56.25"/>
<text xml:space="preserve" text-anchor="middle" x="36.5" y="-42.75" font-family="Helvetica,sans-Serif" font-size="10.00">Alarm::Alarm</text>
</a>
</g>
</g>
<!-- Node2 -->
<g id="Node000002" class="node">
<title>Node2</title>
<g id="a_Node000002"><a xlink:href="class_alarm.html#a11b2da560dbc8653fa9dec671a78b980" target="_top" xlink:title=" ">
<polygon fill="white" stroke="#666666" points="230.75,-93.25 109,-93.25 109,-74 230.75,-74 230.75,-93.25"/>
<text xml:space="preserve" text-anchor="middle" x="169.88" y="-79.75" font-family="Helvetica,sans-Serif" font-size="10.00">Alarm::_updateMessage</text>
</a>
</g>
</g>
<!-- Node1&#45;&gt;Node2 -->
<g id="edge1_Node000001_Node000002" class="edge">
<title>Node1&#45;&gt;Node2</title>
<g id="a_edge1_Node000001_Node000002"><a xlink:title=" ">
<path fill="none" stroke="#63b8ff" d="M73.4,-56.74C88.46,-60.98 106.17,-65.97 122.22,-70.49"/>
<polygon fill="#63b8ff" stroke="#63b8ff" points="120.99,-73.77 131.56,-73.12 122.89,-67.04 120.99,-73.77"/>
</a>
</g>
</g>
<!-- Node4 -->
<g id="Node000004" class="node">
<title>Node4</title>
<g id="a_Node000004"><a xlink:href="class_alarm.html#abd578ec75a5ac9bce00b7ce7207c5d8c" target="_top" xlink:title=" ">
<polygon fill="white" stroke="#666666" points="223.62,-56.25 116.12,-56.25 116.12,-37 223.62,-37 223.62,-56.25"/>
<text xml:space="preserve" text-anchor="middle" x="169.88" y="-42.75" font-family="Helvetica,sans-Serif" font-size="10.00">Alarm::getTypeString</text>
</a>
</g>
</g>
<!-- Node1&#45;&gt;Node4 -->
<g id="edge3_Node000001_Node000004" class="edge">
<title>Node1&#45;&gt;Node4</title>
<g id="a_edge3_Node000001_Node000004"><a xlink:title=" ">
<path fill="none" stroke="#63b8ff" d="M73.4,-46.62C83,-46.62 93.67,-46.62 104.3,-46.62"/>
<polygon fill="#63b8ff" stroke="#63b8ff" points="104.26,-50.13 114.26,-46.63 104.26,-43.13 104.26,-50.13"/>
</a>
</g>
</g>
<!-- Node5 -->
<g id="Node000005" class="node">
<title>Node5</title>
<g id="a_Node000005"><a xlink:href="class_logger_manager.html#a5c1373ccc47f4112b596fe6f84fbbc21" target="_top" xlink:title=" ">
<polygon fill="white" stroke="#666666" points="222.12,-19.25 117.62,-19.25 117.62,0 222.12,0 222.12,-19.25"/>
<text xml:space="preserve" text-anchor="middle" x="169.88" y="-5.75" font-family="Helvetica,sans-Serif" font-size="10.00">LoggerManager::info</text>
</a>
</g>
</g>
<!-- Node1&#45;&gt;Node5 -->
<g id="edge4_Node000001_Node000005" class="edge">
<title>Node1&#45;&gt;Node5</title>
<g id="a_edge4_Node000001_Node000005"><a xlink:title=" ">
<path fill="none" stroke="#63b8ff" d="M73.4,-36.51C88.46,-32.27 106.17,-27.28 122.22,-22.76"/>
<polygon fill="#63b8ff" stroke="#63b8ff" points="122.89,-26.21 131.56,-20.13 120.99,-19.48 122.89,-26.21"/>
</a>
</g>
</g>
<!-- Node3 -->
<g id="Node000003" class="node">
<title>Node3</title>
<g id="a_Node000003"><a xlink:href="class_alarm.html#a480e1d6d474da0cd4e5dd557e41cb87e" target="_top" xlink:title=" ">
<polygon fill="white" stroke="#666666" points="379.5,-93.25 266.75,-93.25 266.75,-74 379.5,-74 379.5,-93.25"/>
<text xml:space="preserve" text-anchor="middle" x="323.12" y="-79.75" font-family="Helvetica,sans-Serif" font-size="10.00">Alarm::getDisplayText</text>
</a>
</g>
</g>
<!-- Node2&#45;&gt;Node3 -->
<g id="edge2_Node000002_Node000003" class="edge">
<title>Node2&#45;&gt;Node3</title>
<g id="a_edge2_Node000002_Node000003"><a xlink:title=" ">
<path fill="none" stroke="#63b8ff" d="M231.09,-83.62C239.04,-83.62 247.23,-83.62 255.28,-83.62"/>
<polygon fill="#63b8ff" stroke="#63b8ff" points="255.02,-87.13 265.02,-83.63 255.02,-80.13 255.02,-87.13"/>
</a>
</g>
</g>
</g>
</svg>
