<?xml version="1.0" encoding="UTF-8" standalone="no"?>
<!DOCTYPE svg PUBLIC "-//W3C//DTD SVG 1.1//EN"
 "http://www.w3.org/Graphics/SVG/1.1/DTD/svg11.dtd">
<!-- Generated by graphviz version 13.1.0 (20250701.0955)
 -->
<!-- Title: LoggerManager::openLogFile Pages: 1 -->
<svg width="672pt" height="54pt"
 viewBox="0.00 0.00 672.00 54.00" xmlns="http://www.w3.org/2000/svg" xmlns:xlink="http://www.w3.org/1999/xlink">
<g id="graph0" class="graph" transform="scale(1 1) rotate(0) translate(4 49.88)">
<title>LoggerManager::openLogFile</title>
<!-- Node1 -->
<g id="Node000001" class="node">
<title>Node1</title>
<g id="a_Node000001"><a xlink:title=" ">
<polygon fill="#999999" stroke="#666666" points="664,-45.88 522.75,-45.88 522.75,-26.62 664,-26.62 664,-45.88"/>
<text xml:space="preserve" text-anchor="middle" x="593.38" y="-32.38" font-family="Helvetica,sans-Serif" font-size="10.00">LoggerManager::openLogFile</text>
</a>
</g>
</g>
<!-- Node2 -->
<g id="Node000002" class="node">
<title>Node2</title>
<g id="a_Node000002"><a xlink:href="class_config_manager.html#a3b28982c79587a287c8ddf0acf47f71d" target="_top" xlink:title="Setup file download API endpoints.">
<polygon fill="white" stroke="#666666" points="293,-45.88 147.25,-45.88 147.25,-26.62 293,-26.62 293,-45.88"/>
<text xml:space="preserve" text-anchor="middle" x="220.12" y="-32.38" font-family="Helvetica,sans-Serif" font-size="10.00">ConfigManager::downloadAPI</text>
</a>
</g>
</g>
<!-- Node1&#45;&gt;Node2 -->
<g id="edge1_Node000001_Node000002" class="edge">
<title>Node1&#45;&gt;Node2</title>
<g id="a_edge1_Node000001_Node000002"><a xlink:title=" ">
<path fill="none" stroke="#63b8ff" d="M511.25,-38.79C502.97,-38.98 494.69,-39.14 486.75,-39.25 416.65,-40.25 399.1,-40.22 329,-39.25 317.48,-39.09 305.27,-38.83 293.36,-38.54"/>
<polygon fill="#63b8ff" stroke="#63b8ff" points="511.07,-42.29 520.98,-38.55 510.9,-35.3 511.07,-42.29"/>
</a>
</g>
</g>
<!-- Node4 -->
<g id="Node000004" class="node">
<title>Node4</title>
<g id="a_Node000004"><a xlink:href="class_config_manager.html#aa425fe77d9c00f404f1c02327263f516" target="_top" xlink:title="Get alarm events for a specific point within date range.">
<polygon fill="white" stroke="#666666" points="486.75,-30.5 329,-30.5 329,0 486.75,0 486.75,-30.5"/>
<text xml:space="preserve" text-anchor="start" x="337" y="-17" font-family="Helvetica,sans-Serif" font-size="10.00">ConfigManager::getAlarmEvents</text>
<text xml:space="preserve" text-anchor="middle" x="407.88" y="-5.75" font-family="Helvetica,sans-Serif" font-size="10.00">ForPoint</text>
</a>
</g>
</g>
<!-- Node1&#45;&gt;Node4 -->
<g id="edge3_Node000001_Node000004" class="edge">
<title>Node1&#45;&gt;Node4</title>
<g id="a_edge3_Node000001_Node000004"><a xlink:title=" ">
<path fill="none" stroke="#63b8ff" d="M511.26,-26.97C503.25,-26.05 495.14,-25.12 487.16,-24.21"/>
<polygon fill="#63b8ff" stroke="#63b8ff" points="510.64,-30.42 520.97,-28.08 511.44,-23.46 510.64,-30.42"/>
</a>
</g>
</g>
<!-- Node3 -->
<g id="Node000003" class="node">
<title>Node3</title>
<g id="a_Node000003"><a xlink:href="class_config_manager.html#a0497343220fc493f5cf9574922508908" target="_top" xlink:title="Initialize the configuration system.">
<polygon fill="white" stroke="#666666" points="111.25,-45.88 0,-45.88 0,-26.62 111.25,-26.62 111.25,-45.88"/>
<text xml:space="preserve" text-anchor="middle" x="55.62" y="-32.38" font-family="Helvetica,sans-Serif" font-size="10.00">ConfigManager::begin</text>
</a>
</g>
</g>
<!-- Node2&#45;&gt;Node3 -->
<g id="edge2_Node000002_Node000003" class="edge">
<title>Node2&#45;&gt;Node3</title>
<g id="a_edge2_Node000002_Node000003"><a xlink:title=" ">
<path fill="none" stroke="#63b8ff" d="M135.45,-36.25C127.35,-36.25 119.27,-36.25 111.55,-36.25"/>
<polygon fill="#63b8ff" stroke="#63b8ff" points="135.39,-39.75 145.39,-36.25 135.39,-32.75 135.39,-39.75"/>
</a>
</g>
</g>
<!-- Node4&#45;&gt;Node2 -->
<g id="edge4_Node000004_Node000002" class="edge">
<title>Node4&#45;&gt;Node2</title>
<g id="a_edge4_Node000004_Node000002"><a xlink:title=" ">
<path fill="none" stroke="#63b8ff" d="M317.32,-25.37C309.29,-26.28 301.22,-27.2 293.35,-28.08"/>
<polygon fill="#63b8ff" stroke="#63b8ff" points="317.59,-28.87 327.13,-24.27 316.8,-21.91 317.59,-28.87"/>
</a>
</g>
</g>
</g>
</svg>
