<?xml version="1.0" encoding="UTF-8" standalone="no"?>
<!DOCTYPE svg PUBLIC "-//W3C//DTD SVG 1.1//EN"
 "http://www.w3.org/Graphics/SVG/1.1/DTD/svg11.dtd">
<!-- Generated by graphviz version 13.1.0 (20250701.0955)
 -->
<!-- Title: IndicatorInterface::_restoreCurrentText Pages: 1 -->
<svg width="518pt" height="88pt"
 viewBox="0.00 0.00 518.00 88.00" xmlns="http://www.w3.org/2000/svg" xmlns:xlink="http://www.w3.org/1999/xlink">
<g id="graph0" class="graph" transform="scale(1 1) rotate(0) translate(4 83.5)">
<title>IndicatorInterface::_restoreCurrentText</title>
<!-- Node1 -->
<g id="Node000001" class="node">
<title>Node1</title>
<g id="a_Node000001"><a xlink:title=" ">
<polygon fill="#999999" stroke="#666666" points="509.5,-54.5 401.25,-54.5 401.25,-24 509.5,-24 509.5,-54.5"/>
<text xml:space="preserve" text-anchor="start" x="409.25" y="-41" font-family="Helvetica,sans-Serif" font-size="10.00">IndicatorInterface</text>
<text xml:space="preserve" text-anchor="middle" x="455.38" y="-29.75" font-family="Helvetica,sans-Serif" font-size="10.00">::_restoreCurrentText</text>
</a>
</g>
</g>
<!-- Node2 -->
<g id="Node000002" class="node">
<title>Node2</title>
<g id="a_Node000002"><a xlink:href="class_indicator_interface.html#ad70f8a9e7f527bc4faeb576b47483385" target="_top" xlink:title=" ">
<polygon fill="white" stroke="#666666" points="365.25,-79.5 255.5,-79.5 255.5,-49 365.25,-49 365.25,-79.5"/>
<text xml:space="preserve" text-anchor="start" x="263.5" y="-66" font-family="Helvetica,sans-Serif" font-size="10.00">IndicatorInterface</text>
<text xml:space="preserve" text-anchor="middle" x="310.38" y="-54.75" font-family="Helvetica,sans-Serif" font-size="10.00">::_handleSpecialBlink</text>
</a>
</g>
</g>
<!-- Node1&#45;&gt;Node2 -->
<g id="edge1_Node000001_Node000002" class="edge">
<title>Node1&#45;&gt;Node2</title>
<g id="a_edge1_Node000001_Node000002"><a xlink:title=" ">
<path fill="none" stroke="#63b8ff" d="M389.82,-50.54C381.73,-51.95 373.53,-53.38 365.62,-54.77"/>
<polygon fill="#63b8ff" stroke="#63b8ff" points="390.39,-53.99 399.64,-48.82 389.18,-47.09 390.39,-53.99"/>
</a>
</g>
</g>
<!-- Node5 -->
<g id="Node000005" class="node">
<title>Node5</title>
<g id="a_Node000005"><a xlink:href="class_indicator_interface.html#a1573397b085b78ea7f714665d55cece0" target="_top" xlink:title=" ">
<polygon fill="white" stroke="#666666" points="356.25,-30.5 264.5,-30.5 264.5,0 356.25,0 356.25,-30.5"/>
<text xml:space="preserve" text-anchor="start" x="272.5" y="-17" font-family="Helvetica,sans-Serif" font-size="10.00">IndicatorInterface</text>
<text xml:space="preserve" text-anchor="middle" x="310.38" y="-5.75" font-family="Helvetica,sans-Serif" font-size="10.00">::stopBlinking</text>
</a>
</g>
</g>
<!-- Node1&#45;&gt;Node5 -->
<g id="edge4_Node000001_Node000005" class="edge">
<title>Node1&#45;&gt;Node5</title>
<g id="a_edge4_Node000001_Node000005"><a xlink:title=" ">
<path fill="none" stroke="#63b8ff" d="M390.01,-28.45C378.76,-26.56 367.29,-24.63 356.69,-22.86"/>
<polygon fill="#63b8ff" stroke="#63b8ff" points="389.19,-31.86 399.63,-30.06 390.35,-24.96 389.19,-31.86"/>
</a>
</g>
</g>
<!-- Node3 -->
<g id="Node000003" class="node">
<title>Node3</title>
<g id="a_Node000003"><a xlink:href="class_indicator_interface.html#a5f9eaa4ad4d2da76bf9536a4dfad8723" target="_top" xlink:title=" ">
<polygon fill="white" stroke="#666666" points="219.5,-79.5 127.75,-79.5 127.75,-49 219.5,-49 219.5,-79.5"/>
<text xml:space="preserve" text-anchor="start" x="135.75" y="-66" font-family="Helvetica,sans-Serif" font-size="10.00">IndicatorInterface</text>
<text xml:space="preserve" text-anchor="middle" x="173.62" y="-54.75" font-family="Helvetica,sans-Serif" font-size="10.00">::updateOLED</text>
</a>
</g>
</g>
<!-- Node2&#45;&gt;Node3 -->
<g id="edge2_Node000002_Node000003" class="edge">
<title>Node2&#45;&gt;Node3</title>
<g id="a_edge2_Node000002_Node000003"><a xlink:title=" ">
<path fill="none" stroke="#63b8ff" d="M244.1,-64.25C235.8,-64.25 227.46,-64.25 219.59,-64.25"/>
<polygon fill="#63b8ff" stroke="#63b8ff" points="243.83,-67.75 253.83,-64.25 243.83,-60.75 243.83,-67.75"/>
</a>
</g>
</g>
<!-- Node4 -->
<g id="Node000004" class="node">
<title>Node4</title>
<g id="a_Node000004"><a xlink:href="class_indicator_interface.html#a01db31cebc14d62f6aa9b1266e6c278d" target="_top" xlink:title=" ">
<polygon fill="white" stroke="#666666" points="91.75,-79.5 0,-79.5 0,-49 91.75,-49 91.75,-79.5"/>
<text xml:space="preserve" text-anchor="start" x="8" y="-66" font-family="Helvetica,sans-Serif" font-size="10.00">IndicatorInterface</text>
<text xml:space="preserve" text-anchor="middle" x="45.88" y="-54.75" font-family="Helvetica,sans-Serif" font-size="10.00">::update</text>
</a>
</g>
</g>
<!-- Node3&#45;&gt;Node4 -->
<g id="edge3_Node000003_Node000004" class="edge">
<title>Node3&#45;&gt;Node4</title>
<g id="a_edge3_Node000003_Node000004"><a xlink:title=" ">
<path fill="none" stroke="#63b8ff" d="M116.26,-64.25C108.15,-64.25 99.89,-64.25 92.03,-64.25"/>
<polygon fill="#63b8ff" stroke="#63b8ff" points="116.07,-67.75 126.07,-64.25 116.07,-60.75 116.07,-67.75"/>
</a>
</g>
</g>
</g>
</svg>
