<?xml version="1.0" encoding="UTF-8" standalone="no"?>
<!DOCTYPE svg PUBLIC "-//W3C//DTD SVG 1.1//EN"
 "http://www.w3.org/Graphics/SVG/1.1/DTD/svg11.dtd">
<!-- Generated by graphviz version 13.1.0 (20250701.0955)
 -->
<!-- Title: LoggerManager::_findHighestSequenceForDate Pages: 1 -->
<svg width="355pt" height="88pt"
 viewBox="0.00 0.00 355.00 88.00" xmlns="http://www.w3.org/2000/svg" xmlns:xlink="http://www.w3.org/1999/xlink">
<g id="graph0" class="graph" transform="scale(1 1) rotate(0) translate(4 83.5)">
<title>LoggerManager::_findHighestSequenceForDate</title>
<!-- Node1 -->
<g id="Node000001" class="node">
<title>Node1</title>
<g id="a_Node000001"><a xlink:title=" ">
<polygon fill="#999999" stroke="#666666" points="143.5,-54.5 0,-54.5 0,-24 143.5,-24 143.5,-54.5"/>
<text xml:space="preserve" text-anchor="start" x="8" y="-41" font-family="Helvetica,sans-Serif" font-size="10.00">LoggerManager::_findHighest</text>
<text xml:space="preserve" text-anchor="middle" x="71.75" y="-29.75" font-family="Helvetica,sans-Serif" font-size="10.00">SequenceForDate</text>
</a>
</g>
</g>
<!-- Node2 -->
<g id="Node000002" class="node">
<title>Node2</title>
<g id="a_Node000002"><a xlink:href="$class_logger_manager.html#aa19a1b81e99d510ce23068e320305675" xlink:title=" ">
<polygon fill="white" stroke="#666666" points="347,-79.5 179.5,-79.5 179.5,-49 347,-49 347,-79.5"/>
<text xml:space="preserve" text-anchor="start" x="187.5" y="-66" font-family="Helvetica,sans-Serif" font-size="10.00">LoggerManager::_extractSequence</text>
<text xml:space="preserve" text-anchor="middle" x="263.25" y="-54.75" font-family="Helvetica,sans-Serif" font-size="10.00">Number</text>
</a>
</g>
</g>
<!-- Node1&#45;&gt;Node2 -->
<g id="edge1_Node000001_Node000002" class="edge">
<title>Node1&#45;&gt;Node2</title>
<g id="a_edge1_Node000001_Node000002"><a xlink:title=" ">
<path fill="none" stroke="#63b8ff" d="M143.85,-48.63C151.7,-49.67 159.79,-50.73 167.87,-51.8"/>
<polygon fill="#63b8ff" stroke="#63b8ff" points="167.39,-55.27 177.76,-53.1 168.31,-48.33 167.39,-55.27"/>
</a>
</g>
</g>
<!-- Node3 -->
<g id="Node000003" class="node">
<title>Node3</title>
<g id="a_Node000003"><a xlink:href="$class_logger_manager.html#a21b4985f38a484ab83b984ab285ea32e" xlink:title=" ">
<polygon fill="white" stroke="#666666" points="327.5,-30.5 199,-30.5 199,0 327.5,0 327.5,-30.5"/>
<text xml:space="preserve" text-anchor="start" x="207" y="-17" font-family="Helvetica,sans-Serif" font-size="10.00">LoggerManager::_getFiles</text>
<text xml:space="preserve" text-anchor="middle" x="263.25" y="-5.75" font-family="Helvetica,sans-Serif" font-size="10.00">ForDate</text>
</a>
</g>
</g>
<!-- Node1&#45;&gt;Node3 -->
<g id="edge2_Node000001_Node000003" class="edge">
<title>Node1&#45;&gt;Node3</title>
<g id="a_edge2_Node000001_Node000003"><a xlink:title=" ">
<path fill="none" stroke="#63b8ff" d="M143.85,-30.25C158.02,-28.45 172.95,-26.56 187.24,-24.75"/>
<polygon fill="#63b8ff" stroke="#63b8ff" points="187.57,-28.24 197.05,-23.51 186.69,-21.29 187.57,-28.24"/>
</a>
</g>
</g>
</g>
</svg>
