<?xml version="1.0" encoding="UTF-8" standalone="no"?>
<!DOCTYPE svg PUBLIC "-//W3C//DTD SVG 1.1//EN"
 "http://www.w3.org/Graphics/SVG/1.1/DTD/svg11.dtd">
<!-- Generated by graphviz version 13.1.0 (20250701.0955)
 -->
<!-- Title: IndicatorInterface::begin Pages: 1 -->
<svg width="422pt" height="186pt"
 viewBox="0.00 0.00 422.00 186.00" xmlns="http://www.w3.org/2000/svg" xmlns:xlink="http://www.w3.org/1999/xlink">
<g id="graph0" class="graph" transform="scale(1 1) rotate(0) translate(4 181.5)">
<title>IndicatorInterface::begin</title>
<!-- Node1 -->
<g id="Node000001" class="node">
<title>Node1</title>
<g id="a_Node000001"><a xlink:title="Initialize the indicator interface.">
<polygon fill="#999999" stroke="#666666" points="91.75,-103.5 0,-103.5 0,-73 91.75,-73 91.75,-103.5"/>
<text xml:space="preserve" text-anchor="start" x="8" y="-90" font-family="Helvetica,sans-Serif" font-size="10.00">IndicatorInterface</text>
<text xml:space="preserve" text-anchor="middle" x="45.88" y="-78.75" font-family="Helvetica,sans-Serif" font-size="10.00">::begin</text>
</a>
</g>
</g>
<!-- Node2 -->
<g id="Node000002" class="node">
<title>Node2</title>
<g id="a_Node000002"><a xlink:href="class_indicator_interface.html#a55da41c64cf3538a8bbb5252dd38b885" target="_top" xlink:title="Clear interrupt flag on PCF8575.">
<polygon fill="white" stroke="#666666" points="232.25,-177.5 140.5,-177.5 140.5,-147 232.25,-147 232.25,-177.5"/>
<text xml:space="preserve" text-anchor="start" x="148.5" y="-164" font-family="Helvetica,sans-Serif" font-size="10.00">IndicatorInterface</text>
<text xml:space="preserve" text-anchor="middle" x="186.38" y="-152.75" font-family="Helvetica,sans-Serif" font-size="10.00">::_clearInterrupt</text>
</a>
</g>
</g>
<!-- Node1&#45;&gt;Node2 -->
<g id="edge1_Node000001_Node000002" class="edge">
<title>Node1&#45;&gt;Node2</title>
<g id="a_edge1_Node000001_Node000002"><a xlink:title=" ">
<path fill="none" stroke="#63b8ff" d="M70.8,-103.92C86.65,-114 108.06,-127.07 127.75,-137.25 130.75,-138.8 133.87,-140.35 137.04,-141.86"/>
<polygon fill="#63b8ff" stroke="#63b8ff" points="135.3,-144.91 145.84,-145.93 138.24,-138.55 135.3,-144.91"/>
</a>
</g>
</g>
<!-- Node3 -->
<g id="Node000003" class="node">
<title>Node3</title>
<g id="a_Node000003"><a xlink:href="class_indicator_interface.html#a2c93b45764662f0db2348fd0fa9635db" target="_top" xlink:title="Configure interrupt pin for PCF8575.">
<polygon fill="white" stroke="#666666" points="245,-128.5 127.75,-128.5 127.75,-98 245,-98 245,-128.5"/>
<text xml:space="preserve" text-anchor="start" x="135.75" y="-115" font-family="Helvetica,sans-Serif" font-size="10.00">IndicatorInterface</text>
<text xml:space="preserve" text-anchor="middle" x="186.38" y="-103.75" font-family="Helvetica,sans-Serif" font-size="10.00">::_configureInterruptPin</text>
</a>
</g>
</g>
<!-- Node1&#45;&gt;Node3 -->
<g id="edge2_Node000001_Node000003" class="edge">
<title>Node1&#45;&gt;Node3</title>
<g id="a_edge2_Node000001_Node000003"><a xlink:title=" ">
<path fill="none" stroke="#63b8ff" d="M92.23,-96.44C99.93,-97.83 108.08,-99.3 116.23,-100.77"/>
<polygon fill="#63b8ff" stroke="#63b8ff" points="115.34,-104.17 125.81,-102.5 116.59,-97.28 115.34,-104.17"/>
</a>
</g>
</g>
<!-- Node5 -->
<g id="Node000005" class="node">
<title>Node5</title>
<g id="a_Node000005"><a xlink:href="class_indicator_interface.html#a57958896691800d0526ad7941e305136" target="_top" xlink:title="Initialize OLED display.">
<polygon fill="white" stroke="#666666" points="232.25,-79.5 140.5,-79.5 140.5,-49 232.25,-49 232.25,-79.5"/>
<text xml:space="preserve" text-anchor="start" x="148.5" y="-66" font-family="Helvetica,sans-Serif" font-size="10.00">IndicatorInterface</text>
<text xml:space="preserve" text-anchor="middle" x="186.38" y="-54.75" font-family="Helvetica,sans-Serif" font-size="10.00">::_initOLED</text>
</a>
</g>
</g>
<!-- Node1&#45;&gt;Node5 -->
<g id="edge4_Node000001_Node000005" class="edge">
<title>Node1&#45;&gt;Node5</title>
<g id="a_edge4_Node000001_Node000005"><a xlink:title=" ">
<path fill="none" stroke="#63b8ff" d="M92.23,-80.39C104.06,-78.34 116.96,-76.1 129.29,-73.97"/>
<polygon fill="#63b8ff" stroke="#63b8ff" points="129.65,-77.46 138.9,-72.3 128.45,-70.56 129.65,-77.46"/>
</a>
</g>
</g>
<!-- Node7 -->
<g id="Node000007" class="node">
<title>Node7</title>
<g id="a_Node000007"><a xlink:href="class_indicator_interface.html#aad7f389062d31610e8b0d01e6c75413e" target="_top" xlink:title="Read raw state from PCF8575.">
<polygon fill="white" stroke="#666666" points="232.25,-30.5 140.5,-30.5 140.5,0 232.25,0 232.25,-30.5"/>
<text xml:space="preserve" text-anchor="start" x="148.5" y="-17" font-family="Helvetica,sans-Serif" font-size="10.00">IndicatorInterface</text>
<text xml:space="preserve" text-anchor="middle" x="186.38" y="-5.75" font-family="Helvetica,sans-Serif" font-size="10.00">::_readPCF</text>
</a>
</g>
</g>
<!-- Node1&#45;&gt;Node7 -->
<g id="edge6_Node000001_Node000007" class="edge">
<title>Node1&#45;&gt;Node7</title>
<g id="a_edge6_Node000001_Node000007"><a xlink:title=" ">
<path fill="none" stroke="#63b8ff" d="M71.2,-72.72C87.02,-62.89 108.27,-50.21 127.75,-40.25 130.76,-38.71 133.89,-37.18 137.06,-35.67"/>
<polygon fill="#63b8ff" stroke="#63b8ff" points="138.25,-38.98 145.87,-31.62 135.32,-32.62 138.25,-38.98"/>
</a>
</g>
</g>
<!-- Node4 -->
<g id="Node000004" class="node">
<title>Node4</title>
<g id="a_Node000004"><a xlink:href="class_indicator_interface.html#ad4fddb918d5f80046ab61a70fbc9eed2" target="_top" xlink:title="Static interrupt service routine.">
<polygon fill="white" stroke="#666666" points="408,-128.5 287,-128.5 287,-98 408,-98 408,-128.5"/>
<text xml:space="preserve" text-anchor="start" x="295" y="-115" font-family="Helvetica,sans-Serif" font-size="10.00">IndicatorInterface</text>
<text xml:space="preserve" text-anchor="middle" x="347.5" y="-103.75" font-family="Helvetica,sans-Serif" font-size="10.00">::_staticInterruptHandler</text>
</a>
</g>
</g>
<!-- Node3&#45;&gt;Node4 -->
<g id="edge3_Node000003_Node000004" class="edge">
<title>Node3&#45;&gt;Node4</title>
<g id="a_edge3_Node000003_Node000004"><a xlink:title=" ">
<path fill="none" stroke="#63b8ff" d="M245.27,-113.25C255.02,-113.25 265.24,-113.25 275.28,-113.25"/>
<polygon fill="#63b8ff" stroke="#63b8ff" points="274.99,-116.75 284.99,-113.25 274.99,-109.75 274.99,-116.75"/>
</a>
</g>
</g>
<!-- Node6 -->
<g id="Node000006" class="node">
<title>Node6</title>
<g id="a_Node000006"><a xlink:href="class_indicator_interface.html#a2f021f6fa16dec590a8b9cf41a82349d" target="_top" xlink:title="Calculate display parameters.">
<polygon fill="white" stroke="#666666" points="414,-79.5 281,-79.5 281,-49 414,-49 414,-79.5"/>
<text xml:space="preserve" text-anchor="start" x="289" y="-66" font-family="Helvetica,sans-Serif" font-size="10.00">IndicatorInterface</text>
<text xml:space="preserve" text-anchor="middle" x="347.5" y="-54.75" font-family="Helvetica,sans-Serif" font-size="10.00">::_calculateDisplayParams</text>
</a>
</g>
</g>
<!-- Node5&#45;&gt;Node6 -->
<g id="edge5_Node000005_Node000006" class="edge">
<title>Node5&#45;&gt;Node6</title>
<g id="a_edge5_Node000005_Node000006"><a xlink:title=" ">
<path fill="none" stroke="#63b8ff" d="M232.55,-64.25C244.01,-64.25 256.66,-64.25 269.23,-64.25"/>
<polygon fill="#63b8ff" stroke="#63b8ff" points="269.21,-67.75 279.21,-64.25 269.21,-60.75 269.21,-67.75"/>
</a>
</g>
</g>
</g>
</svg>
