<?xml version="1.0" encoding="UTF-8" standalone="no"?>
<!DOCTYPE svg PUBLIC "-//W3C//DTD SVG 1.1//EN"
 "http://www.w3.org/Graphics/SVG/1.1/DTD/svg11.dtd">
<!-- Generated by graphviz version 13.1.0 (20250701.0955)
 -->
<!-- Title: TemperatureController::update Pages: 1 -->
<svg width="1323pt" height="924pt"
 viewBox="0.00 0.00 1323.00 924.00" xmlns="http://www.w3.org/2000/svg" xmlns:xlink="http://www.w3.org/1999/xlink">
<g id="graph0" class="graph" transform="scale(1 1) rotate(0) translate(4 919.79)">
<title>TemperatureController::update</title>
<!-- Node1 -->
<g id="Node000001" class="node">
<title>Node1</title>
<g id="a_Node000001"><a xlink:title="Main update function &#45; must be called in loop()">
<polygon fill="#999999" stroke="#666666" points="112,-250.79 0,-250.79 0,-220.29 112,-220.29 112,-250.79"/>
<text xml:space="preserve" text-anchor="start" x="8" y="-237.29" font-family="Helvetica,sans-Serif" font-size="10.00">TemperatureController</text>
<text xml:space="preserve" text-anchor="middle" x="56" y="-226.04" font-family="Helvetica,sans-Serif" font-size="10.00">::update</text>
</a>
</g>
</g>
<!-- Node2 -->
<g id="Node000002" class="node">
<title>Node2</title>
<g id="a_Node000002"><a xlink:href="class_temperature_controller.html#a1228b63e95f26c21a8d9c2a27928bc75" target="_top" xlink:title="Check for button press and handle acknowledgment.">
<polygon fill="white" stroke="#666666" points="421.88,-705.79 309.88,-705.79 309.88,-675.29 421.88,-675.29 421.88,-705.79"/>
<text xml:space="preserve" text-anchor="start" x="317.88" y="-692.29" font-family="Helvetica,sans-Serif" font-size="10.00">TemperatureController</text>
<text xml:space="preserve" text-anchor="middle" x="365.88" y="-681.04" font-family="Helvetica,sans-Serif" font-size="10.00">::_checkButtonPress</text>
</a>
</g>
</g>
<!-- Node1&#45;&gt;Node2 -->
<g id="edge1_Node000001_Node000002" class="edge">
<title>Node1&#45;&gt;Node2</title>
<g id="a_edge1_Node000001_Node000002"><a xlink:title=" ">
<path fill="none" stroke="#63b8ff" d="M57.92,-250.85C62.43,-320.66 84.66,-607.88 148,-665.54 187.96,-701.92 250.67,-705.53 298.41,-701.59"/>
<polygon fill="#63b8ff" stroke="#63b8ff" points="298.46,-705.11 308.07,-700.66 297.78,-698.14 298.46,-705.11"/>
</a>
</g>
</g>
<!-- Node4 -->
<g id="Node000004" class="node">
<title>Node4</title>
<g id="a_Node000004"><a xlink:href="class_temperature_controller.html#a5637103784725fb1a73f6463d7cbfde6" target="_top" xlink:title="Handle alarm display on OLED/LEDs.">
<polygon fill="white" stroke="#666666" points="260,-656.79 148,-656.79 148,-626.29 260,-626.29 260,-656.79"/>
<text xml:space="preserve" text-anchor="start" x="156" y="-643.29" font-family="Helvetica,sans-Serif" font-size="10.00">TemperatureController</text>
<text xml:space="preserve" text-anchor="middle" x="204" y="-632.04" font-family="Helvetica,sans-Serif" font-size="10.00">::handleAlarmDisplay</text>
</a>
</g>
</g>
<!-- Node1&#45;&gt;Node4 -->
<g id="edge3_Node000001_Node000004" class="edge">
<title>Node1&#45;&gt;Node4</title>
<g id="a_edge3_Node000001_Node000004"><a xlink:title=" ">
<path fill="none" stroke="#63b8ff" d="M62.63,-251.21C84.77,-312.76 165.89,-538.34 193.63,-615.48"/>
<polygon fill="#63b8ff" stroke="#63b8ff" points="190.27,-616.49 196.95,-624.72 196.86,-614.12 190.27,-616.49"/>
</a>
</g>
</g>
<!-- Node28 -->
<g id="Node000028" class="node">
<title>Node28</title>
<g id="a_Node000028"><a xlink:href="class_temperature_controller.html#a82e4c37ff4121eaf5e00e9c52381e840" target="_top" xlink:title="Handle alarm output signals.">
<polygon fill="white" stroke="#666666" points="260,-275.79 148,-275.79 148,-245.29 260,-245.29 260,-275.79"/>
<text xml:space="preserve" text-anchor="start" x="156" y="-262.29" font-family="Helvetica,sans-Serif" font-size="10.00">TemperatureController</text>
<text xml:space="preserve" text-anchor="middle" x="204" y="-251.04" font-family="Helvetica,sans-Serif" font-size="10.00">::handleAlarmOutputs</text>
</a>
</g>
</g>
<!-- Node1&#45;&gt;Node28 -->
<g id="edge31_Node000001_Node000028" class="edge">
<title>Node1&#45;&gt;Node28</title>
<g id="a_edge31_Node000001_Node000028"><a xlink:title=" ">
<path fill="none" stroke="#63b8ff" d="M112.2,-245C120.1,-246.35 128.3,-247.75 136.39,-249.14"/>
<polygon fill="#63b8ff" stroke="#63b8ff" points="135.79,-252.59 146.23,-250.82 136.97,-245.69 135.79,-252.59"/>
</a>
</g>
</g>
<!-- Node30 -->
<g id="Node000030" class="node">
<title>Node30</title>
<g id="a_Node000030"><a xlink:href="class_temperature_controller.html#a11948a87fe7df37543b86ecdd488b341" target="_top" xlink:title="Read temperature from all configured measurement points.">
<polygon fill="white" stroke="#666666" points="260,-128.79 148,-128.79 148,-98.29 260,-98.29 260,-128.79"/>
<text xml:space="preserve" text-anchor="start" x="156" y="-115.29" font-family="Helvetica,sans-Serif" font-size="10.00">TemperatureController</text>
<text xml:space="preserve" text-anchor="middle" x="204" y="-104.04" font-family="Helvetica,sans-Serif" font-size="10.00">::readAllPoints</text>
</a>
</g>
</g>
<!-- Node1&#45;&gt;Node30 -->
<g id="edge34_Node000001_Node000030" class="edge">
<title>Node1&#45;&gt;Node30</title>
<g id="a_edge34_Node000001_Node000030"><a xlink:title=" ">
<path fill="none" stroke="#63b8ff" d="M64.46,-220.03C77.62,-198.91 106.65,-162.08 139.6,-135.92"/>
<polygon fill="#63b8ff" stroke="#63b8ff" points="141.44,-138.91 147.31,-130.09 137.22,-133.33 141.44,-138.91"/>
</a>
</g>
</g>
<!-- Node31 -->
<g id="Node000031" class="node">
<title>Node31</title>
<g id="a_Node000031"><a xlink:href="class_temperature_controller.html#a5ac8af90de5dfd79a9a2e4c7270a98a3" target="_top" xlink:title="Update alarm states for all measurement points.">
<polygon fill="white" stroke="#666666" points="608.88,-350.79 496.88,-350.79 496.88,-320.29 608.88,-320.29 608.88,-350.79"/>
<text xml:space="preserve" text-anchor="start" x="504.88" y="-337.29" font-family="Helvetica,sans-Serif" font-size="10.00">TemperatureController</text>
<text xml:space="preserve" text-anchor="middle" x="552.88" y="-326.04" font-family="Helvetica,sans-Serif" font-size="10.00">::updateAlarms</text>
</a>
</g>
</g>
<!-- Node1&#45;&gt;Node31 -->
<g id="edge36_Node000001_Node000031" class="edge">
<title>Node1&#45;&gt;Node31</title>
<g id="a_edge36_Node000001_Node000031"><a xlink:title=" ">
<path fill="none" stroke="#63b8ff" d="M80.68,-251.26C98.47,-262.31 123.82,-276.51 148,-284.54 262.5,-322.58 403.9,-332.57 485.4,-335"/>
<polygon fill="#63b8ff" stroke="#63b8ff" points="484.89,-338.49 494.98,-335.26 485.08,-331.49 484.89,-338.49"/>
</a>
</g>
</g>
<!-- Node32 -->
<g id="Node000032" class="node">
<title>Node32</title>
<g id="a_Node000032"><a xlink:href="class_temperature_controller.html#a23dca296a268baa9b8234c8bf9cf0c3e" target="_top" xlink:title="Update temperature readings for all sensors.">
<polygon fill="white" stroke="#666666" points="260,-177.79 148,-177.79 148,-147.29 260,-147.29 260,-177.79"/>
<text xml:space="preserve" text-anchor="start" x="156" y="-164.29" font-family="Helvetica,sans-Serif" font-size="10.00">TemperatureController</text>
<text xml:space="preserve" text-anchor="middle" x="204" y="-153.04" font-family="Helvetica,sans-Serif" font-size="10.00">::updateAllSensors</text>
</a>
</g>
</g>
<!-- Node1&#45;&gt;Node32 -->
<g id="edge39_Node000001_Node000032" class="edge">
<title>Node1&#45;&gt;Node32</title>
<g id="a_edge39_Node000001_Node000032"><a xlink:title=" ">
<path fill="none" stroke="#63b8ff" d="M85.47,-219.98C103.3,-210.36 126.83,-197.93 148,-187.54 151.06,-186.05 154.22,-184.52 157.42,-183.01"/>
<polygon fill="#63b8ff" stroke="#63b8ff" points="158.69,-186.28 166.28,-178.88 155.73,-179.94 158.69,-186.28"/>
</a>
</g>
</g>
<!-- Node38 -->
<g id="Node000038" class="node">
<title>Node38</title>
<g id="a_Node000038"><a xlink:href="class_temperature_controller.html#a62b93899a3b8b55e2e0bd933520c2892" target="_top" xlink:title="Update register map with current values from measurement points.">
<polygon fill="white" stroke="#666666" points="260,-226.79 148,-226.79 148,-196.29 260,-196.29 260,-226.79"/>
<text xml:space="preserve" text-anchor="start" x="156" y="-213.29" font-family="Helvetica,sans-Serif" font-size="10.00">TemperatureController</text>
<text xml:space="preserve" text-anchor="middle" x="204" y="-202.04" font-family="Helvetica,sans-Serif" font-size="10.00">::updateRegisterMap</text>
</a>
</g>
</g>
<!-- Node1&#45;&gt;Node38 -->
<g id="edge45_Node000001_Node000038" class="edge">
<title>Node1&#45;&gt;Node38</title>
<g id="a_edge45_Node000001_Node000038"><a xlink:title=" ">
<path fill="none" stroke="#63b8ff" d="M112.2,-226.47C120.1,-225.17 128.3,-223.82 136.39,-222.49"/>
<polygon fill="#63b8ff" stroke="#63b8ff" points="136.93,-225.95 146.23,-220.88 135.8,-219.04 136.93,-225.95"/>
</a>
</g>
</g>
<!-- Node3 -->
<g id="Node000003" class="node">
<title>Node3</title>
<g id="a_Node000003"><a xlink:href="class_temperature_controller.html#a3955f205bc33dda762cbe5c572cd4f21" target="_top" xlink:title="Switch to a new display section.">
<polygon fill="white" stroke="#666666" points="810.12,-915.79 698.12,-915.79 698.12,-885.29 810.12,-885.29 810.12,-915.79"/>
<text xml:space="preserve" text-anchor="start" x="706.12" y="-902.29" font-family="Helvetica,sans-Serif" font-size="10.00">TemperatureController</text>
<text xml:space="preserve" text-anchor="middle" x="754.12" y="-891.04" font-family="Helvetica,sans-Serif" font-size="10.00">::_switchToSection</text>
</a>
</g>
</g>
<!-- Node2&#45;&gt;Node3 -->
<g id="edge2_Node000002_Node000003" class="edge">
<title>Node2&#45;&gt;Node3</title>
<g id="a_edge2_Node000002_Node000003"><a xlink:title=" ">
<path fill="none" stroke="#63b8ff" d="M372.78,-706.08C385.61,-737.52 419.12,-808.7 471.75,-843.54 536.17,-886.2 625.74,-898.1 686.38,-900.85"/>
<polygon fill="#63b8ff" stroke="#63b8ff" points="686.1,-904.34 696.22,-901.21 686.36,-897.34 686.1,-904.34"/>
</a>
</g>
</g>
<!-- Node4&#45;&gt;Node2 -->
<g id="edge4_Node000004_Node000002" class="edge">
<title>Node4&#45;&gt;Node2</title>
<g id="a_edge4_Node000004_Node000002"><a xlink:title=" ">
<path fill="none" stroke="#63b8ff" d="M256.03,-657.18C270.95,-661.76 287.43,-666.81 302.95,-671.56"/>
<polygon fill="#63b8ff" stroke="#63b8ff" points="301.48,-674.77 312.06,-674.36 303.53,-668.08 301.48,-674.77"/>
</a>
</g>
</g>
<!-- Node5 -->
<g id="Node000005" class="node">
<title>Node5</title>
<g id="a_Node000005"><a xlink:href="class_temperature_controller.html#a6b2f92b5c2af867240200cff2e61e806" target="_top" xlink:title="Handle display section switching.">
<polygon fill="white" stroke="#666666" points="429.38,-656.79 302.38,-656.79 302.38,-626.29 429.38,-626.29 429.38,-656.79"/>
<text xml:space="preserve" text-anchor="start" x="310.38" y="-643.29" font-family="Helvetica,sans-Serif" font-size="10.00">TemperatureController</text>
<text xml:space="preserve" text-anchor="middle" x="365.88" y="-632.04" font-family="Helvetica,sans-Serif" font-size="10.00">::_handleDisplaySections</text>
</a>
</g>
</g>
<!-- Node4&#45;&gt;Node5 -->
<g id="edge5_Node000004_Node000005" class="edge">
<title>Node4&#45;&gt;Node5</title>
<g id="a_edge5_Node000004_Node000005"><a xlink:title=" ">
<path fill="none" stroke="#63b8ff" d="M260.47,-641.54C270.23,-641.54 280.53,-641.54 290.71,-641.54"/>
<polygon fill="#63b8ff" stroke="#63b8ff" points="290.6,-645.04 300.6,-641.54 290.6,-638.04 290.6,-645.04"/>
</a>
</g>
</g>
<!-- Node5&#45;&gt;Node3 -->
<g id="edge26_Node000005_Node000003" class="edge">
<title>Node5&#45;&gt;Node3</title>
<g id="a_edge26_Node000005_Node000003"><a xlink:title=" ">
<path fill="none" stroke="#63b8ff" d="M424.01,-657.29C428.31,-659.91 432.3,-662.98 435.75,-666.54 471.78,-703.85 436.43,-739.56 471.75,-777.54 524.76,-834.56 567.9,-802.42 634,-843.54 652.18,-854.85 651.31,-865.1 670,-875.54 675.34,-878.53 681.09,-881.2 686.96,-883.57"/>
<polygon fill="#63b8ff" stroke="#63b8ff" points="685.63,-886.81 696.22,-887.01 688.06,-880.25 685.63,-886.81"/>
</a>
</g>
</g>
<!-- Node6 -->
<g id="Node000006" class="node">
<title>Node6</title>
<g id="a_Node000006"><a xlink:href="class_temperature_controller.html#a1d2745c323f7094beac8f406825499b7" target="_top" xlink:title="Handle alarm display rotation timing.">
<polygon fill="white" stroke="#666666" points="628.38,-768.79 477.38,-768.79 477.38,-738.29 628.38,-738.29 628.38,-768.79"/>
<text xml:space="preserve" text-anchor="start" x="485.38" y="-755.29" font-family="Helvetica,sans-Serif" font-size="10.00">TemperatureController</text>
<text xml:space="preserve" text-anchor="middle" x="552.88" y="-744.04" font-family="Helvetica,sans-Serif" font-size="10.00">::_handleAlarmDisplayRotation</text>
</a>
</g>
</g>
<!-- Node5&#45;&gt;Node6 -->
<g id="edge6_Node000005_Node000006" class="edge">
<title>Node5&#45;&gt;Node6</title>
<g id="a_edge6_Node000005_Node000006"><a xlink:title=" ">
<path fill="none" stroke="#63b8ff" d="M415.83,-657.28C422.66,-660.05 429.48,-663.16 435.75,-666.54 445,-671.55 491.61,-707.05 522.89,-731.13"/>
<polygon fill="#63b8ff" stroke="#63b8ff" points="520.4,-733.63 530.46,-736.96 524.67,-728.08 520.4,-733.63"/>
</a>
</g>
</g>
<!-- Node10 -->
<g id="Node000010" class="node">
<title>Node10</title>
<g id="a_Node000010"><a xlink:href="class_temperature_controller.html#a4d36576f7d6ab8f5222a082878314912" target="_top" xlink:title="Update normal temperature display.">
<polygon fill="white" stroke="#666666" points="814.62,-719.79 693.62,-719.79 693.62,-689.29 814.62,-689.29 814.62,-719.79"/>
<text xml:space="preserve" text-anchor="start" x="701.62" y="-706.29" font-family="Helvetica,sans-Serif" font-size="10.00">TemperatureController</text>
<text xml:space="preserve" text-anchor="middle" x="754.12" y="-695.04" font-family="Helvetica,sans-Serif" font-size="10.00">::_updateNormalDisplay</text>
</a>
</g>
</g>
<!-- Node5&#45;&gt;Node10 -->
<g id="edge30_Node000005_Node000010" class="edge">
<title>Node5&#45;&gt;Node10</title>
<g id="a_edge30_Node000005_Node000010"><a xlink:title=" ">
<path fill="none" stroke="#63b8ff" d="M429.79,-651.81C498.99,-663.09 609.92,-681.19 682.16,-692.97"/>
<polygon fill="#63b8ff" stroke="#63b8ff" points="681.48,-696.41 691.92,-694.56 682.61,-689.5 681.48,-696.41"/>
</a>
</g>
</g>
<!-- Node11 -->
<g id="Node000011" class="node">
<title>Node11</title>
<g id="a_Node000011"><a xlink:href="class_temperature_controller.html#a45f7994a3a052a527981dbfdad27606b" target="_top" xlink:title="Handle system status mode display.">
<polygon fill="white" stroke="#666666" points="623.88,-621.79 481.88,-621.79 481.88,-591.29 623.88,-591.29 623.88,-621.79"/>
<text xml:space="preserve" text-anchor="start" x="489.88" y="-608.29" font-family="Helvetica,sans-Serif" font-size="10.00">TemperatureController</text>
<text xml:space="preserve" text-anchor="middle" x="552.88" y="-597.04" font-family="Helvetica,sans-Serif" font-size="10.00">::_handleSystemStatusMode</text>
</a>
</g>
</g>
<!-- Node5&#45;&gt;Node11 -->
<g id="edge11_Node000005_Node000011" class="edge">
<title>Node5&#45;&gt;Node11</title>
<g id="a_edge11_Node000005_Node000011"><a xlink:title=" ">
<path fill="none" stroke="#63b8ff" d="M429.77,-629.65C442.78,-627.18 456.66,-624.56 470.23,-621.99"/>
<polygon fill="#63b8ff" stroke="#63b8ff" points="470.87,-625.43 480.04,-620.13 469.57,-618.55 470.87,-625.43"/>
</a>
</g>
</g>
<!-- Node25 -->
<g id="Node000025" class="node">
<title>Node25</title>
<g id="a_Node000025"><a xlink:href="class_temperature_controller.html#a477597992aa9362076843f37b648741a" target="_top" xlink:title="Update alarm display queues.">
<polygon fill="white" stroke="#666666" points="610.75,-431.79 495,-431.79 495,-401.29 610.75,-401.29 610.75,-431.79"/>
<text xml:space="preserve" text-anchor="start" x="503" y="-418.29" font-family="Helvetica,sans-Serif" font-size="10.00">TemperatureController</text>
<text xml:space="preserve" text-anchor="middle" x="552.88" y="-407.04" font-family="Helvetica,sans-Serif" font-size="10.00">::_updateAlarmQueues</text>
</a>
</g>
</g>
<!-- Node5&#45;&gt;Node25 -->
<g id="edge27_Node000005_Node000025" class="edge">
<title>Node5&#45;&gt;Node25</title>
<g id="a_edge27_Node000005_Node000025"><a xlink:title=" ">
<path fill="none" stroke="#63b8ff" d="M379.59,-626.08C411.21,-587.62 493.58,-487.44 531.83,-440.93"/>
<polygon fill="#63b8ff" stroke="#63b8ff" points="534.46,-443.23 538.11,-433.29 529.05,-438.79 534.46,-443.23"/>
</a>
</g>
</g>
<!-- Node7 -->
<g id="Node000007" class="node">
<title>Node7</title>
<g id="a_Node000007"><a xlink:href="class_temperature_controller.html#ac44de0834e13cec755e247ce1df21f09" target="_top" xlink:title="Display next acknowledged alarm.">
<polygon fill="white" stroke="#666666" points="838.25,-768.79 670,-768.79 670,-738.29 838.25,-738.29 838.25,-768.79"/>
<text xml:space="preserve" text-anchor="start" x="678" y="-755.29" font-family="Helvetica,sans-Serif" font-size="10.00">TemperatureController</text>
<text xml:space="preserve" text-anchor="middle" x="754.12" y="-744.04" font-family="Helvetica,sans-Serif" font-size="10.00">::_displayNextAcknowledgedAlarm</text>
</a>
</g>
</g>
<!-- Node6&#45;&gt;Node7 -->
<g id="edge7_Node000006_Node000007" class="edge">
<title>Node6&#45;&gt;Node7</title>
<g id="a_edge7_Node000006_Node000007"><a xlink:title=" ">
<path fill="none" stroke="#63b8ff" d="M628.64,-753.54C638.34,-753.54 648.39,-753.54 658.37,-753.54"/>
<polygon fill="#63b8ff" stroke="#63b8ff" points="658.07,-757.04 668.07,-753.54 658.07,-750.04 658.07,-757.04"/>
</a>
</g>
</g>
<!-- Node8 -->
<g id="Node000008" class="node">
<title>Node8</title>
<g id="a_Node000008"><a xlink:href="class_temperature_controller.html#a7ca5124357f98bcd52316cf017341b09" target="_top" xlink:title="Display next active alarm in rotation.">
<polygon fill="white" stroke="#666666" points="820.25,-866.79 688,-866.79 688,-836.29 820.25,-836.29 820.25,-866.79"/>
<text xml:space="preserve" text-anchor="start" x="696" y="-853.29" font-family="Helvetica,sans-Serif" font-size="10.00">TemperatureController</text>
<text xml:space="preserve" text-anchor="middle" x="754.12" y="-842.04" font-family="Helvetica,sans-Serif" font-size="10.00">::_displayNextActiveAlarm</text>
</a>
</g>
</g>
<!-- Node6&#45;&gt;Node8 -->
<g id="edge8_Node000006_Node000008" class="edge">
<title>Node6&#45;&gt;Node8</title>
<g id="a_edge8_Node000006_Node000008"><a xlink:title=" ">
<path fill="none" stroke="#63b8ff" d="M574.73,-769.09C597.25,-785.28 634.66,-810.48 670,-826.54 674.24,-828.47 678.68,-830.3 683.19,-832.03"/>
<polygon fill="#63b8ff" stroke="#63b8ff" points="681.8,-835.24 692.39,-835.34 684.17,-828.66 681.8,-835.24"/>
</a>
</g>
</g>
<!-- Node9 -->
<g id="Node000009" class="node">
<title>Node9</title>
<g id="a_Node000009"><a xlink:href="class_temperature_controller.html#a28e81945f5235e161e6c532b428d36d2" target="_top" xlink:title="Show OK status and turn off OLED after delay.">
<polygon fill="white" stroke="#666666" points="825.12,-817.79 683.12,-817.79 683.12,-787.29 825.12,-787.29 825.12,-817.79"/>
<text xml:space="preserve" text-anchor="start" x="691.12" y="-804.29" font-family="Helvetica,sans-Serif" font-size="10.00">TemperatureController</text>
<text xml:space="preserve" text-anchor="middle" x="754.12" y="-793.04" font-family="Helvetica,sans-Serif" font-size="10.00">::_showOKAndTurnOffOLED</text>
</a>
</g>
</g>
<!-- Node6&#45;&gt;Node9 -->
<g id="edge9_Node000006_Node000009" class="edge">
<title>Node6&#45;&gt;Node9</title>
<g id="a_edge9_Node000006_Node000009"><a xlink:title=" ">
<path fill="none" stroke="#63b8ff" d="M617.74,-769.25C637.05,-774 658.42,-779.25 678.36,-784.16"/>
<polygon fill="#63b8ff" stroke="#63b8ff" points="677.26,-787.49 687.81,-786.48 678.93,-780.69 677.26,-787.49"/>
</a>
</g>
</g>
<!-- Node6&#45;&gt;Node10 -->
<g id="edge10_Node000006_Node000010" class="edge">
<title>Node6&#45;&gt;Node10</title>
<g id="a_edge10_Node000006_Node000010"><a xlink:title=" ">
<path fill="none" stroke="#63b8ff" d="M617.74,-737.84C638.29,-732.78 661.19,-727.15 682.21,-721.98"/>
<polygon fill="#63b8ff" stroke="#63b8ff" points="683,-725.39 691.87,-719.61 681.33,-718.6 683,-725.39"/>
</a>
</g>
</g>
<!-- Node11&#45;&gt;Node3 -->
<g id="edge25_Node000011_Node000003" class="edge">
<title>Node11&#45;&gt;Node3</title>
<g id="a_edge25_Node000011_Node000003"><a xlink:title=" ">
<path fill="none" stroke="#63b8ff" d="M566.63,-622.25C584.25,-644.72 615.94,-687.93 634,-729.54 660.61,-790.85 623.95,-827.11 670,-875.54 674.97,-880.78 681,-884.93 687.5,-888.21"/>
<polygon fill="#63b8ff" stroke="#63b8ff" points="686.08,-891.41 696.65,-892.11 688.82,-884.97 686.08,-891.41"/>
</a>
</g>
</g>
<!-- Node12 -->
<g id="Node000012" class="node">
<title>Node12</title>
<g id="a_Node000012"><a xlink:href="class_temperature_controller.html#a3948ceaf046b5f06afcc9083433f532c" target="_top" xlink:title="Display alarm summary by priority.">
<polygon fill="white" stroke="#666666" points="838.25,-621.79 670,-621.79 670,-591.29 838.25,-591.29 838.25,-621.79"/>
<text xml:space="preserve" text-anchor="start" x="678" y="-608.29" font-family="Helvetica,sans-Serif" font-size="10.00">TemperatureController</text>
<text xml:space="preserve" text-anchor="middle" x="754.12" y="-597.04" font-family="Helvetica,sans-Serif" font-size="10.00">::_displayAlarmSummaryByPriority</text>
</a>
</g>
</g>
<!-- Node11&#45;&gt;Node12 -->
<g id="edge12_Node000011_Node000012" class="edge">
<title>Node11&#45;&gt;Node12</title>
<g id="a_edge12_Node000011_Node000012"><a xlink:title=" ">
<path fill="none" stroke="#63b8ff" d="M624.12,-606.54C635.13,-606.54 646.66,-606.54 658.12,-606.54"/>
<polygon fill="#63b8ff" stroke="#63b8ff" points="658.01,-610.04 668.01,-606.54 658.01,-603.04 658.01,-610.04"/>
</a>
</g>
</g>
<!-- Node14 -->
<g id="Node000014" class="node">
<title>Node14</title>
<g id="a_Node000014"><a xlink:href="class_temperature_controller.html#ab5e076b045677678390603e9a805e4db" target="_top" xlink:title="Display alarm summary by type.">
<polygon fill="white" stroke="#666666" points="833.38,-572.79 674.88,-572.79 674.88,-542.29 833.38,-542.29 833.38,-572.79"/>
<text xml:space="preserve" text-anchor="start" x="682.88" y="-559.29" font-family="Helvetica,sans-Serif" font-size="10.00">TemperatureController</text>
<text xml:space="preserve" text-anchor="middle" x="754.12" y="-548.04" font-family="Helvetica,sans-Serif" font-size="10.00">::_displayAlarmSummaryByType</text>
</a>
</g>
</g>
<!-- Node11&#45;&gt;Node14 -->
<g id="edge14_Node000011_Node000014" class="edge">
<title>Node11&#45;&gt;Node14</title>
<g id="a_edge14_Node000011_Node000014"><a xlink:title=" ">
<path fill="none" stroke="#63b8ff" d="M617.74,-590.84C637.05,-586.09 658.42,-580.84 678.36,-575.93"/>
<polygon fill="#63b8ff" stroke="#63b8ff" points="678.93,-579.39 687.81,-573.61 677.26,-572.6 678.93,-579.39"/>
</a>
</g>
</g>
<!-- Node15 -->
<g id="Node000015" class="node">
<title>Node15</title>
<g id="a_Node000015"><a xlink:href="class_temperature_controller.html#a5fc773a967cea261f21bbe86d90d2586" target="_top" xlink:title="Display Modbus status page.">
<polygon fill="white" stroke="#666666" points="814.62,-523.79 693.62,-523.79 693.62,-493.29 814.62,-493.29 814.62,-523.79"/>
<text xml:space="preserve" text-anchor="start" x="701.62" y="-510.29" font-family="Helvetica,sans-Serif" font-size="10.00">TemperatureController</text>
<text xml:space="preserve" text-anchor="middle" x="754.12" y="-499.04" font-family="Helvetica,sans-Serif" font-size="10.00">::_displayModbusStatus</text>
</a>
</g>
</g>
<!-- Node11&#45;&gt;Node15 -->
<g id="edge15_Node000011_Node000015" class="edge">
<title>Node11&#45;&gt;Node15</title>
<g id="a_edge15_Node000011_Node000015"><a xlink:title=" ">
<path fill="none" stroke="#63b8ff" d="M574.73,-591C597.25,-574.81 634.66,-549.61 670,-533.54 674.24,-531.61 678.68,-529.79 683.19,-528.06"/>
<polygon fill="#63b8ff" stroke="#63b8ff" points="684.17,-531.43 692.39,-524.75 681.8,-524.84 684.17,-531.43"/>
</a>
</g>
</g>
<!-- Node16 -->
<g id="Node000016" class="node">
<title>Node16</title>
<g id="a_Node000016"><a xlink:href="class_temperature_controller.html#a2436c7043d97ca75c717db2b87326d90" target="_top" xlink:title="Display network info page.">
<polygon fill="white" stroke="#666666" points="810.12,-474.79 698.12,-474.79 698.12,-444.29 810.12,-444.29 810.12,-474.79"/>
<text xml:space="preserve" text-anchor="start" x="706.12" y="-461.29" font-family="Helvetica,sans-Serif" font-size="10.00">TemperatureController</text>
<text xml:space="preserve" text-anchor="middle" x="754.12" y="-450.04" font-family="Helvetica,sans-Serif" font-size="10.00">::_displayNetworkInfo</text>
</a>
</g>
</g>
<!-- Node11&#45;&gt;Node16 -->
<g id="edge16_Node000011_Node000016" class="edge">
<title>Node11&#45;&gt;Node16</title>
<g id="a_edge16_Node000011_Node000016"><a xlink:title=" ">
<path fill="none" stroke="#63b8ff" d="M564.48,-590.97C582.92,-565.08 623.41,-513.18 670,-484.54 675.43,-481.21 681.33,-478.29 687.4,-475.75"/>
<polygon fill="#63b8ff" stroke="#63b8ff" points="688.22,-479.18 696.32,-472.35 685.72,-472.64 688.22,-479.18"/>
</a>
</g>
</g>
<!-- Node17 -->
<g id="Node000017" class="node">
<title>Node17</title>
<g id="a_Node000017"><a xlink:href="class_temperature_controller.html#a45d13ed72fd36b46820af631e4db958b" target="_top" xlink:title="Display system stats page.">
<polygon fill="white" stroke="#666666" points="811.62,-670.79 696.62,-670.79 696.62,-640.29 811.62,-640.29 811.62,-670.79"/>
<text xml:space="preserve" text-anchor="start" x="704.62" y="-657.29" font-family="Helvetica,sans-Serif" font-size="10.00">TemperatureController</text>
<text xml:space="preserve" text-anchor="middle" x="754.12" y="-646.04" font-family="Helvetica,sans-Serif" font-size="10.00">::_displaySystemStats</text>
</a>
</g>
</g>
<!-- Node11&#45;&gt;Node17 -->
<g id="edge17_Node000011_Node000017" class="edge">
<title>Node11&#45;&gt;Node17</title>
<g id="a_edge17_Node000011_Node000017"><a xlink:title=" ">
<path fill="none" stroke="#63b8ff" d="M617.74,-622.25C639.26,-627.54 663.35,-633.47 685.17,-638.83"/>
<polygon fill="#63b8ff" stroke="#63b8ff" points="684.33,-642.23 694.88,-641.22 686,-635.43 684.33,-642.23"/>
</a>
</g>
</g>
<!-- Node13 -->
<g id="Node000013" class="node">
<title>Node13</title>
<g id="a_Node000013"><a xlink:href="class_temperature_controller.html#a3022c7a72adb45a7800d5189eecdac4e" target="_top" xlink:title="Get total number of configured alarms.">
<polygon fill="white" stroke="#666666" points="986.25,-307.79 874.25,-307.79 874.25,-277.29 986.25,-277.29 986.25,-307.79"/>
<text xml:space="preserve" text-anchor="start" x="882.25" y="-294.29" font-family="Helvetica,sans-Serif" font-size="10.00">TemperatureController</text>
<text xml:space="preserve" text-anchor="middle" x="930.25" y="-283.04" font-family="Helvetica,sans-Serif" font-size="10.00">::getAlarmCount</text>
</a>
</g>
</g>
<!-- Node12&#45;&gt;Node13 -->
<g id="edge13_Node000012_Node000013" class="edge">
<title>Node12&#45;&gt;Node13</title>
<g id="a_edge13_Node000012_Node000013"><a xlink:title=" ">
<path fill="none" stroke="#63b8ff" d="M826.17,-591.03C830.58,-588.35 834.67,-585.21 838.25,-581.54 880.69,-537.99 856.19,-507.61 874.25,-449.54 888.7,-403.08 907.95,-349.78 919.43,-318.76"/>
<polygon fill="#63b8ff" stroke="#63b8ff" points="922.69,-320.03 922.89,-309.44 916.13,-317.59 922.69,-320.03"/>
</a>
</g>
</g>
<!-- Node18 -->
<g id="Node000018" class="node">
<title>Node18</title>
<g id="a_Node000018"><a xlink:href="class_temperature_controller.html#a9b4fe09d4c87dcf86e78b890012e1e72" target="_top" xlink:title="Get sensor bound to measurement point.">
<polygon fill="white" stroke="#666666" points="986.25,-488.79 874.25,-488.79 874.25,-458.29 986.25,-458.29 986.25,-488.79"/>
<text xml:space="preserve" text-anchor="start" x="882.25" y="-475.29" font-family="Helvetica,sans-Serif" font-size="10.00">TemperatureController</text>
<text xml:space="preserve" text-anchor="middle" x="930.25" y="-464.04" font-family="Helvetica,sans-Serif" font-size="10.00">::getBoundSensor</text>
</a>
</g>
</g>
<!-- Node17&#45;&gt;Node18 -->
<g id="edge18_Node000017_Node000018" class="edge">
<title>Node17&#45;&gt;Node18</title>
<g id="a_edge18_Node000017_Node000018"><a xlink:title=" ">
<path fill="none" stroke="#63b8ff" d="M812.06,-644.7C821.42,-641.22 830.56,-636.62 838.25,-630.54 881.78,-596.14 908.48,-534.78 920.91,-499.83"/>
<polygon fill="#63b8ff" stroke="#63b8ff" points="924.18,-501.09 924.09,-490.5 917.55,-498.83 924.18,-501.09"/>
</a>
</g>
</g>
<!-- Node23 -->
<g id="Node000023" class="node">
<title>Node23</title>
<g id="a_Node000023"><a xlink:href="class_temperature_controller.html#a9ac5f76def1895a8c8f8f92ce8cd2e5c" target="_top" xlink:title="Get count of discovered DS18B20 sensors.">
<polygon fill="white" stroke="#666666" points="986.25,-694.79 874.25,-694.79 874.25,-664.29 986.25,-664.29 986.25,-694.79"/>
<text xml:space="preserve" text-anchor="start" x="882.25" y="-681.29" font-family="Helvetica,sans-Serif" font-size="10.00">TemperatureController</text>
<text xml:space="preserve" text-anchor="middle" x="930.25" y="-670.04" font-family="Helvetica,sans-Serif" font-size="10.00">::getDS18B20Count</text>
</a>
</g>
</g>
<!-- Node17&#45;&gt;Node23 -->
<g id="edge23_Node000017_Node000023" class="edge">
<title>Node17&#45;&gt;Node23</title>
<g id="a_edge23_Node000017_Node000023"><a xlink:title=" ">
<path fill="none" stroke="#63b8ff" d="M811.66,-663.34C828.03,-665.59 846.05,-668.08 862.97,-670.41"/>
<polygon fill="#63b8ff" stroke="#63b8ff" points="862.01,-673.81 872.39,-671.71 862.96,-666.87 862.01,-673.81"/>
</a>
</g>
</g>
<!-- Node24 -->
<g id="Node000024" class="node">
<title>Node24</title>
<g id="a_Node000024"><a xlink:href="class_temperature_controller.html#a6ab2ecc10c283d75d948ce6f1ad723a6" target="_top" xlink:title="Get count of discovered PT1000 sensors.">
<polygon fill="white" stroke="#666666" points="986.25,-645.79 874.25,-645.79 874.25,-615.29 986.25,-615.29 986.25,-645.79"/>
<text xml:space="preserve" text-anchor="start" x="882.25" y="-632.29" font-family="Helvetica,sans-Serif" font-size="10.00">TemperatureController</text>
<text xml:space="preserve" text-anchor="middle" x="930.25" y="-621.04" font-family="Helvetica,sans-Serif" font-size="10.00">::getPT1000Count</text>
</a>
</g>
</g>
<!-- Node17&#45;&gt;Node24 -->
<g id="edge24_Node000017_Node000024" class="edge">
<title>Node17&#45;&gt;Node24</title>
<g id="a_edge24_Node000017_Node000024"><a xlink:title=" ">
<path fill="none" stroke="#63b8ff" d="M811.66,-647.43C828.03,-645.08 846.05,-642.49 862.97,-640.06"/>
<polygon fill="#63b8ff" stroke="#63b8ff" points="862.99,-643.59 872.39,-638.71 862,-636.66 862.99,-643.59"/>
</a>
</g>
</g>
<!-- Node19 -->
<g id="Node000019" class="node">
<title>Node19</title>
<g id="a_Node000019"><a xlink:href="class_measurement_point.html#a81c7ae93a9314344967d0f31c6fefe2f" target="_top" xlink:title="Get pointer to bound sensor.">
<polygon fill="white" stroke="#666666" points="1167.25,-512.79 1022.25,-512.79 1022.25,-482.29 1167.25,-482.29 1167.25,-512.79"/>
<text xml:space="preserve" text-anchor="start" x="1030.25" y="-499.29" font-family="Helvetica,sans-Serif" font-size="10.00">MeasurementPoint::getBound</text>
<text xml:space="preserve" text-anchor="middle" x="1094.75" y="-488.04" font-family="Helvetica,sans-Serif" font-size="10.00">Sensor</text>
</a>
</g>
</g>
<!-- Node18&#45;&gt;Node19 -->
<g id="edge19_Node000018_Node000019" class="edge">
<title>Node18&#45;&gt;Node19</title>
<g id="a_edge19_Node000018_Node000019"><a xlink:title=" ">
<path fill="none" stroke="#63b8ff" d="M986.72,-481.74C994.41,-482.87 1002.44,-484.06 1010.49,-485.25"/>
<polygon fill="#63b8ff" stroke="#63b8ff" points="1009.96,-488.71 1020.37,-486.71 1010.99,-481.78 1009.96,-488.71"/>
</a>
</g>
</g>
<!-- Node20 -->
<g id="Node000020" class="node">
<title>Node20</title>
<g id="a_Node000020"><a xlink:href="class_temperature_controller.html#a494f057c234b4ff7526bde271aec9267" target="_top" xlink:title="Get measurement point by address.">
<polygon fill="white" stroke="#666666" points="1153.38,-463.79 1036.12,-463.79 1036.12,-433.29 1153.38,-433.29 1153.38,-463.79"/>
<text xml:space="preserve" text-anchor="start" x="1044.12" y="-450.29" font-family="Helvetica,sans-Serif" font-size="10.00">TemperatureController</text>
<text xml:space="preserve" text-anchor="middle" x="1094.75" y="-439.04" font-family="Helvetica,sans-Serif" font-size="10.00">::getMeasurementPoint</text>
</a>
</g>
</g>
<!-- Node18&#45;&gt;Node20 -->
<g id="edge20_Node000018_Node000020" class="edge">
<title>Node18&#45;&gt;Node20</title>
<g id="a_edge20_Node000018_Node000020"><a xlink:title=" ">
<path fill="none" stroke="#63b8ff" d="M986.72,-465.01C998.95,-463.13 1012.05,-461.11 1024.74,-459.16"/>
<polygon fill="#63b8ff" stroke="#63b8ff" points="1024.91,-462.68 1034.27,-457.7 1023.85,-455.76 1024.91,-462.68"/>
</a>
</g>
</g>
<!-- Node21 -->
<g id="Node000021" class="node">
<title>Node21</title>
<g id="a_Node000021"><a xlink:href="class_temperature_controller.html#ad322a5bab8d5788a586206004248f673" target="_top" xlink:title="Check if address is for DS18B20 sensor.">
<polygon fill="white" stroke="#666666" points="1315.25,-488.79 1203.25,-488.79 1203.25,-458.29 1315.25,-458.29 1315.25,-488.79"/>
<text xml:space="preserve" text-anchor="start" x="1211.25" y="-475.29" font-family="Helvetica,sans-Serif" font-size="10.00">TemperatureController</text>
<text xml:space="preserve" text-anchor="middle" x="1259.25" y="-464.04" font-family="Helvetica,sans-Serif" font-size="10.00">::isDS18B20Address</text>
</a>
</g>
</g>
<!-- Node20&#45;&gt;Node21 -->
<g id="edge21_Node000020_Node000021" class="edge">
<title>Node20&#45;&gt;Node21</title>
<g id="a_edge21_Node000020_Node000021"><a xlink:title=" ">
<path fill="none" stroke="#63b8ff" d="M1153.5,-457.43C1165.92,-459.34 1179.14,-461.37 1191.85,-463.33"/>
<polygon fill="#63b8ff" stroke="#63b8ff" points="1190.95,-466.73 1201.37,-464.79 1192.02,-459.81 1190.95,-466.73"/>
</a>
</g>
</g>
<!-- Node22 -->
<g id="Node000022" class="node">
<title>Node22</title>
<g id="a_Node000022"><a xlink:href="class_temperature_controller.html#a13125ddcf29cb56d27403818543618af" target="_top" xlink:title="Check if address is for PT1000 sensor.">
<polygon fill="white" stroke="#666666" points="1315.25,-439.79 1203.25,-439.79 1203.25,-409.29 1315.25,-409.29 1315.25,-439.79"/>
<text xml:space="preserve" text-anchor="start" x="1211.25" y="-426.29" font-family="Helvetica,sans-Serif" font-size="10.00">TemperatureController</text>
<text xml:space="preserve" text-anchor="middle" x="1259.25" y="-415.04" font-family="Helvetica,sans-Serif" font-size="10.00">::isPT1000Address</text>
</a>
</g>
</g>
<!-- Node20&#45;&gt;Node22 -->
<g id="edge22_Node000020_Node000022" class="edge">
<title>Node20&#45;&gt;Node22</title>
<g id="a_edge22_Node000020_Node000022"><a xlink:title=" ">
<path fill="none" stroke="#63b8ff" d="M1153.5,-440.01C1165.92,-438.18 1179.14,-436.23 1191.85,-434.35"/>
<polygon fill="#63b8ff" stroke="#63b8ff" points="1191.99,-437.87 1201.37,-432.94 1190.96,-430.94 1191.99,-437.87"/>
</a>
</g>
</g>
<!-- Node26 -->
<g id="Node000026" class="node">
<title>Node26</title>
<g id="a_Node000026"><a xlink:href="class_temperature_controller.html#af58201023d15de003d4f1b9a9771a9e3" target="_top" xlink:title="Get list of active alarms.">
<polygon fill="white" stroke="#666666" points="810.12,-388.79 698.12,-388.79 698.12,-358.29 810.12,-358.29 810.12,-388.79"/>
<text xml:space="preserve" text-anchor="start" x="706.12" y="-375.29" font-family="Helvetica,sans-Serif" font-size="10.00">TemperatureController</text>
<text xml:space="preserve" text-anchor="middle" x="754.12" y="-364.04" font-family="Helvetica,sans-Serif" font-size="10.00">::getActiveAlarms</text>
</a>
</g>
</g>
<!-- Node25&#45;&gt;Node26 -->
<g id="edge28_Node000025_Node000026" class="edge">
<title>Node25&#45;&gt;Node26</title>
<g id="a_edge28_Node000025_Node000026"><a xlink:title=" ">
<path fill="none" stroke="#63b8ff" d="M611.24,-404.16C634.87,-399.07 662.39,-393.13 686.87,-387.84"/>
<polygon fill="#63b8ff" stroke="#63b8ff" points="687.36,-391.32 696.4,-385.79 685.89,-384.47 687.36,-391.32"/>
</a>
</g>
</g>
<!-- Node27 -->
<g id="Node000027" class="node">
<title>Node27</title>
<g id="a_Node000027"><a xlink:href="class_alarm.html#a7a4a3290a6a659542f82fe08a96736a8" target="_top" xlink:title="Get the alarm creation timestamp.">
<polygon fill="white" stroke="#666666" points="809,-426.17 699.25,-426.17 699.25,-406.92 809,-406.92 809,-426.17"/>
<text xml:space="preserve" text-anchor="middle" x="754.12" y="-412.67" font-family="Helvetica,sans-Serif" font-size="10.00">Alarm::getTimestamp</text>
</a>
</g>
</g>
<!-- Node25&#45;&gt;Node27 -->
<g id="edge29_Node000025_Node000027" class="edge">
<title>Node25&#45;&gt;Node27</title>
<g id="a_edge29_Node000025_Node000027"><a xlink:title=" ">
<path fill="none" stroke="#63b8ff" d="M611.24,-416.54C635.06,-416.54 662.83,-416.54 687.46,-416.54"/>
<polygon fill="#63b8ff" stroke="#63b8ff" points="687.39,-420.04 697.39,-416.54 687.39,-413.04 687.39,-420.04"/>
</a>
</g>
</g>
<!-- Node28&#45;&gt;Node13 -->
<g id="edge32_Node000028_Node000013" class="edge">
<title>Node28&#45;&gt;Node13</title>
<g id="a_edge32_Node000028_Node000013"><a xlink:title=" ">
<path fill="none" stroke="#63b8ff" d="M260.23,-269.44C272.01,-271.06 284.39,-272.54 296,-273.54 502.06,-291.3 747.07,-293.22 862.63,-292.99"/>
<polygon fill="#63b8ff" stroke="#63b8ff" points="862.57,-296.49 872.56,-292.96 862.55,-289.49 862.57,-296.49"/>
</a>
</g>
</g>
<!-- Node29 -->
<g id="Node000029" class="node">
<title>Node29</title>
<g id="a_Node000029"><a xlink:href="class_logger_manager.html#a5c1373ccc47f4112b596fe6f84fbbc21" target="_top" xlink:title="Log informational message (static convenience method)">
<polygon fill="white" stroke="#666666" points="418.12,-264.17 313.62,-264.17 313.62,-244.92 418.12,-244.92 418.12,-264.17"/>
<text xml:space="preserve" text-anchor="middle" x="365.88" y="-250.67" font-family="Helvetica,sans-Serif" font-size="10.00">LoggerManager::info</text>
</a>
</g>
</g>
<!-- Node28&#45;&gt;Node29 -->
<g id="edge33_Node000028_Node000029" class="edge">
<title>Node28&#45;&gt;Node29</title>
<g id="a_edge33_Node000028_Node000029"><a xlink:title=" ">
<path fill="none" stroke="#63b8ff" d="M260.47,-258.46C273.85,-257.96 288.26,-257.42 301.96,-256.91"/>
<polygon fill="#63b8ff" stroke="#63b8ff" points="301.89,-260.41 311.75,-256.54 301.63,-253.42 301.89,-260.41"/>
</a>
</g>
</g>
<!-- Node30&#45;&gt;Node1 -->
<g id="edge35_Node000030_Node000001" class="edge">
<title>Node30&#45;&gt;Node1</title>
<g id="a_edge35_Node000030_Node000001"><a xlink:title=" ">
<path fill="none" stroke="#63b8ff" d="M181.32,-129.21C170.74,-134.36 158.14,-140.27 148,-147.54 122.4,-165.89 98.25,-192.23 81.27,-211.47"/>
<polygon fill="#63b8ff" stroke="#63b8ff" points="78.73,-209.05 74.76,-218.87 83.99,-213.67 78.73,-209.05"/>
</a>
</g>
</g>
<!-- Node31&#45;&gt;Node18 -->
<g id="edge38_Node000031_Node000018" class="edge">
<title>Node31&#45;&gt;Node18</title>
<g id="a_edge38_Node000031_Node000018"><a xlink:title=" ">
<path fill="none" stroke="#63b8ff" d="M609.17,-324.91C669.34,-316.25 766.53,-310.97 838.25,-349.54 877.87,-370.85 904.76,-417.82 918.51,-447.44"/>
<polygon fill="#63b8ff" stroke="#63b8ff" points="915.26,-448.76 922.52,-456.48 921.66,-445.92 915.26,-448.76"/>
</a>
</g>
</g>
<!-- Node31&#45;&gt;Node26 -->
<g id="edge37_Node000031_Node000026" class="edge">
<title>Node31&#45;&gt;Node26</title>
<g id="a_edge37_Node000031_Node000026"><a xlink:title=" ">
<path fill="none" stroke="#63b8ff" d="M609.11,-346.08C633.08,-350.65 661.36,-356.04 686.49,-360.83"/>
<polygon fill="#63b8ff" stroke="#63b8ff" points="685.81,-364.27 696.29,-362.71 687.13,-357.39 685.81,-364.27"/>
</a>
</g>
</g>
<!-- Node33 -->
<g id="Node000033" class="node">
<title>Node33</title>
<g id="a_Node000033"><a xlink:href="class_logger_manager.html#aef24f00186213fa78be3b104a50d58e6" target="_top" xlink:title="Log error message (static convenience method)">
<polygon fill="white" stroke="#666666" points="808.25,-178.17 700,-178.17 700,-158.92 808.25,-158.92 808.25,-178.17"/>
<text xml:space="preserve" text-anchor="middle" x="754.12" y="-164.67" font-family="Helvetica,sans-Serif" font-size="10.00">LoggerManager::error</text>
</a>
</g>
</g>
<!-- Node32&#45;&gt;Node33 -->
<g id="edge40_Node000032_Node000033" class="edge">
<title>Node32&#45;&gt;Node33</title>
<g id="a_edge40_Node000032_Node000033"><a xlink:title=" ">
<path fill="none" stroke="#63b8ff" d="M246.59,-146.92C251.38,-144.19 255.98,-141.08 260,-137.54 282.79,-117.52 271.39,-97.29 296,-79.54 418.77,9.02 495.56,23.69 634,-37.54 685.58,-60.36 724.41,-117.76 742.28,-148.45"/>
<polygon fill="#63b8ff" stroke="#63b8ff" points="739.2,-150.12 747.15,-157.12 745.3,-146.68 739.2,-150.12"/>
</a>
</g>
</g>
<!-- Node34 -->
<g id="Node000034" class="node">
<title>Node34</title>
<g id="a_Node000034"><a xlink:href="class_temperature_controller.html#a01e04714a1712aa10c34276850971a12" target="_top" xlink:title="Get bus number for a sensor.">
<polygon fill="white" stroke="#666666" points="421.88,-118.79 309.88,-118.79 309.88,-88.29 421.88,-88.29 421.88,-118.79"/>
<text xml:space="preserve" text-anchor="start" x="317.88" y="-105.29" font-family="Helvetica,sans-Serif" font-size="10.00">TemperatureController</text>
<text xml:space="preserve" text-anchor="middle" x="365.88" y="-94.04" font-family="Helvetica,sans-Serif" font-size="10.00">::getSensorBus</text>
</a>
</g>
</g>
<!-- Node32&#45;&gt;Node34 -->
<g id="edge41_Node000032_Node000034" class="edge">
<title>Node32&#45;&gt;Node34</title>
<g id="a_edge41_Node000032_Node000034"><a xlink:title=" ">
<path fill="none" stroke="#63b8ff" d="M247.42,-146.89C267.12,-139.62 290.74,-130.9 311.62,-123.2"/>
<polygon fill="#63b8ff" stroke="#63b8ff" points="312.66,-126.54 320.83,-119.8 310.24,-119.98 312.66,-126.54"/>
</a>
</g>
</g>
<!-- Node35 -->
<g id="Node000035" class="node">
<title>Node35</title>
<g id="a_Node000035"><a xlink:href="class_sensor.html#ac42da3a37b0d6a9622344fe83f4c9047" target="_top" xlink:title="Get OneWire bus pin.">
<polygon fill="white" stroke="#666666" points="612.25,-66.17 493.5,-66.17 493.5,-46.92 612.25,-46.92 612.25,-66.17"/>
<text xml:space="preserve" text-anchor="middle" x="552.88" y="-52.67" font-family="Helvetica,sans-Serif" font-size="10.00">Sensor::getOneWirePin</text>
</a>
</g>
</g>
<!-- Node34&#45;&gt;Node35 -->
<g id="edge42_Node000034_Node000035" class="edge">
<title>Node34&#45;&gt;Node35</title>
<g id="a_edge42_Node000034_Node000035"><a xlink:title=" ">
<path fill="none" stroke="#63b8ff" d="M421.72,-87.84C437.8,-83.38 455.44,-78.63 471.75,-74.54 479,-72.73 486.64,-70.9 494.2,-69.15"/>
<polygon fill="#63b8ff" stroke="#63b8ff" points="494.74,-72.61 503.7,-66.97 493.17,-65.79 494.74,-72.61"/>
</a>
</g>
</g>
<!-- Node36 -->
<g id="Node000036" class="node">
<title>Node36</title>
<g id="a_Node000036"><a xlink:href="class_sensor.html#a6f57825e90b759ccdb9fe07b3a36953d" target="_top" xlink:title="Get PT1000 chip select pin.">
<polygon fill="white" stroke="#666666" points="634,-140.17 471.75,-140.17 471.75,-120.92 634,-120.92 634,-140.17"/>
<text xml:space="preserve" text-anchor="middle" x="552.88" y="-126.67" font-family="Helvetica,sans-Serif" font-size="10.00">Sensor::getPT1000ChipSelectPin</text>
</a>
</g>
</g>
<!-- Node34&#45;&gt;Node36 -->
<g id="edge43_Node000034_Node000036" class="edge">
<title>Node34&#45;&gt;Node36</title>
<g id="a_edge43_Node000034_Node000036"><a xlink:title=" ">
<path fill="none" stroke="#63b8ff" d="M422.13,-111.61C437.76,-113.89 455.1,-116.42 471.88,-118.87"/>
<polygon fill="#63b8ff" stroke="#63b8ff" points="470.9,-122.26 481.3,-120.24 471.91,-115.34 470.9,-122.26"/>
</a>
</g>
</g>
<!-- Node37 -->
<g id="Node000037" class="node">
<title>Node37</title>
<g id="a_Node000037"><a xlink:href="class_sensor.html#a0f6f095e7cfdfffb2a395dfdae7cfa53" target="_top" xlink:title="Get sensor type.">
<polygon fill="white" stroke="#666666" points="596.5,-103.17 509.25,-103.17 509.25,-83.92 596.5,-83.92 596.5,-103.17"/>
<text xml:space="preserve" text-anchor="middle" x="552.88" y="-89.67" font-family="Helvetica,sans-Serif" font-size="10.00">Sensor::getType</text>
</a>
</g>
</g>
<!-- Node34&#45;&gt;Node37 -->
<g id="edge44_Node000034_Node000037" class="edge">
<title>Node34&#45;&gt;Node37</title>
<g id="a_edge44_Node000034_Node000037"><a xlink:title=" ">
<path fill="none" stroke="#63b8ff" d="M422.13,-100.56C446.01,-99.27 473.87,-97.76 497.64,-96.48"/>
<polygon fill="#63b8ff" stroke="#63b8ff" points="497.63,-99.98 507.43,-95.95 497.25,-92.99 497.63,-99.98"/>
</a>
</g>
</g>
<!-- Node39 -->
<g id="Node000039" class="node">
<title>Node39</title>
<g id="a_Node000039"><a xlink:href="class_temperature_controller.html#aac890ae08b5eddcf272771ecdba61453" target="_top" xlink:title="Get relay actual state.">
<polygon fill="white" stroke="#666666" points="421.88,-177.79 309.88,-177.79 309.88,-147.29 421.88,-147.29 421.88,-177.79"/>
<text xml:space="preserve" text-anchor="start" x="317.88" y="-164.29" font-family="Helvetica,sans-Serif" font-size="10.00">TemperatureController</text>
<text xml:space="preserve" text-anchor="middle" x="365.88" y="-153.04" font-family="Helvetica,sans-Serif" font-size="10.00">::getRelayActualState</text>
</a>
</g>
</g>
<!-- Node38&#45;&gt;Node39 -->
<g id="edge46_Node000038_Node000039" class="edge">
<title>Node38&#45;&gt;Node39</title>
<g id="a_edge46_Node000038_Node000039"><a xlink:title=" ">
<path fill="none" stroke="#63b8ff" d="M256.03,-195.91C270.95,-191.33 287.43,-186.28 302.95,-181.52"/>
<polygon fill="#63b8ff" stroke="#63b8ff" points="303.53,-185.01 312.06,-178.73 301.48,-178.31 303.53,-185.01"/>
</a>
</g>
</g>
<!-- Node40 -->
<g id="Node000040" class="node">
<title>Node40</title>
<g id="a_Node000040"><a xlink:href="class_temperature_controller.html#a20a14014a639f3390dba82a6cd39d067" target="_top" xlink:title="Get relay commanded state.">
<polygon fill="white" stroke="#666666" points="435.75,-226.79 296,-226.79 296,-196.29 435.75,-196.29 435.75,-226.79"/>
<text xml:space="preserve" text-anchor="start" x="304" y="-213.29" font-family="Helvetica,sans-Serif" font-size="10.00">TemperatureController</text>
<text xml:space="preserve" text-anchor="middle" x="365.88" y="-202.04" font-family="Helvetica,sans-Serif" font-size="10.00">::getRelayCommandedState</text>
</a>
</g>
</g>
<!-- Node38&#45;&gt;Node40 -->
<g id="edge48_Node000038_Node000040" class="edge">
<title>Node38&#45;&gt;Node40</title>
<g id="a_edge48_Node000038_Node000040"><a xlink:title=" ">
<path fill="none" stroke="#63b8ff" d="M260.47,-211.54C268.19,-211.54 276.25,-211.54 284.32,-211.54"/>
<polygon fill="#63b8ff" stroke="#63b8ff" points="284.19,-215.04 294.19,-211.54 284.19,-208.04 284.19,-215.04"/>
</a>
</g>
</g>
<!-- Node39&#45;&gt;Node33 -->
<g id="edge47_Node000039_Node000033" class="edge">
<title>Node39&#45;&gt;Node33</title>
<g id="a_edge47_Node000039_Node000033"><a xlink:title=" ">
<path fill="none" stroke="#63b8ff" d="M422.22,-163.4C492.65,-164.5 614.11,-166.38 688.66,-167.54"/>
<polygon fill="#63b8ff" stroke="#63b8ff" points="688.18,-171.04 698.24,-167.69 688.29,-164.04 688.18,-171.04"/>
</a>
</g>
</g>
<!-- Node40&#45;&gt;Node13 -->
<g id="edge49_Node000040_Node000013" class="edge">
<title>Node40&#45;&gt;Node13</title>
<g id="a_edge49_Node000040_Node000013"><a xlink:title=" ">
<path fill="none" stroke="#63b8ff" d="M430.43,-227.25C444.01,-230.28 458.31,-233.23 471.75,-235.54 633.37,-263.43 675.73,-256.52 838.25,-278.54 846.2,-279.62 854.53,-280.81 862.79,-282.04"/>
<polygon fill="#63b8ff" stroke="#63b8ff" points="862.05,-285.47 872.46,-283.49 863.09,-278.54 862.05,-285.47"/>
</a>
</g>
</g>
<!-- Node41 -->
<g id="Node000041" class="node">
<title>Node41</title>
<g id="a_Node000041"><a xlink:href="class_temperature_controller.html#a61ff288cbeaa86dc21c610c778dba64e" target="_top" xlink:title="Get relay control mode.">
<polygon fill="white" stroke="#666666" points="611.12,-226.79 494.62,-226.79 494.62,-196.29 611.12,-196.29 611.12,-226.79"/>
<text xml:space="preserve" text-anchor="start" x="502.62" y="-213.29" font-family="Helvetica,sans-Serif" font-size="10.00">TemperatureController</text>
<text xml:space="preserve" text-anchor="middle" x="552.88" y="-202.04" font-family="Helvetica,sans-Serif" font-size="10.00">::getRelayControlMode</text>
</a>
</g>
</g>
<!-- Node40&#45;&gt;Node41 -->
<g id="edge50_Node000040_Node000041" class="edge">
<title>Node40&#45;&gt;Node41</title>
<g id="a_edge50_Node000040_Node000041"><a xlink:title=" ">
<path fill="none" stroke="#63b8ff" d="M436.03,-211.54C451.32,-211.54 467.52,-211.54 482.81,-211.54"/>
<polygon fill="#63b8ff" stroke="#63b8ff" points="482.78,-215.04 492.78,-211.54 482.78,-208.04 482.78,-215.04"/>
</a>
</g>
</g>
<!-- Node41&#45;&gt;Node33 -->
<g id="edge51_Node000041_Node000033" class="edge">
<title>Node41&#45;&gt;Node33</title>
<g id="a_edge51_Node000041_Node000033"><a xlink:title=" ">
<path fill="none" stroke="#63b8ff" d="M611.51,-199.11C637.85,-193.42 669,-186.7 695.36,-181.01"/>
<polygon fill="#63b8ff" stroke="#63b8ff" points="695.83,-184.49 704.86,-178.96 694.35,-177.65 695.83,-184.49"/>
</a>
</g>
</g>
</g>
</svg>
