<?xml version="1.0" encoding="UTF-8" standalone="no"?>
<!DOCTYPE svg PUBLIC "-//W3C//DTD SVG 1.1//EN"
 "http://www.w3.org/Graphics/SVG/1.1/DTD/svg11.dtd">
<!-- Generated by graphviz version 13.1.0 (20250701.0955)
 -->
<!-- Title: TemperatureController::bindSensorToPointByBusNumber Pages: 1 -->
<svg width="562pt" height="239pt"
 viewBox="0.00 0.00 562.00 239.00" xmlns="http://www.w3.org/2000/svg" xmlns:xlink="http://www.w3.org/1999/xlink">
<g id="graph0" class="graph" transform="scale(1 1) rotate(0) translate(4 235.25)">
<title>TemperatureController::bindSensorToPointByBusNumber</title>
<!-- Node1 -->
<g id="Node000001" class="node">
<title>Node1</title>
<g id="a_Node000001"><a xlink:title="Bind sensor to measurement point by bus number.">
<polygon fill="#999999" stroke="#666666" points="167.5,-144.88 0,-144.88 0,-114.38 167.5,-114.38 167.5,-144.88"/>
<text xml:space="preserve" text-anchor="start" x="8" y="-131.38" font-family="Helvetica,sans-Serif" font-size="10.00">TemperatureController</text>
<text xml:space="preserve" text-anchor="middle" x="83.75" y="-120.12" font-family="Helvetica,sans-Serif" font-size="10.00">::bindSensorToPointByBusNumber</text>
</a>
</g>
</g>
<!-- Node2 -->
<g id="Node000002" class="node">
<title>Node2</title>
<g id="a_Node000002"><a xlink:href="class_measurement_point.html#a3c3af28d9aabc9e5b9e2e370eaa29ce0" target="_top" xlink:title="Bind a physical sensor to this measurement point.">
<polygon fill="white" stroke="#666666" points="356,-231.25 203.5,-231.25 203.5,-212 356,-212 356,-231.25"/>
<text xml:space="preserve" text-anchor="middle" x="279.75" y="-217.75" font-family="Helvetica,sans-Serif" font-size="10.00">MeasurementPoint::bindSensor</text>
</a>
</g>
</g>
<!-- Node1&#45;&gt;Node2 -->
<g id="edge1_Node000001_Node000002" class="edge">
<title>Node1&#45;&gt;Node2</title>
<g id="a_edge1_Node000001_Node000002"><a xlink:title=" ">
<path fill="none" stroke="#63b8ff" d="M105.57,-145.15C128.48,-161.58 166.93,-187.2 203.5,-202.62 208.44,-204.71 213.66,-206.6 218.96,-208.32"/>
<polygon fill="#63b8ff" stroke="#63b8ff" points="217.83,-211.64 228.42,-211.15 219.84,-204.93 217.83,-211.64"/>
</a>
</g>
</g>
<!-- Node3 -->
<g id="Node000003" class="node">
<title>Node3</title>
<g id="a_Node000003"><a xlink:href="class_temperature_controller.html#a880028883101197527de57f626e14512" target="_top" xlink:title="Get all alarms associated with a measurement point.">
<polygon fill="white" stroke="#666666" points="335.75,-193.88 223.75,-193.88 223.75,-163.38 335.75,-163.38 335.75,-193.88"/>
<text xml:space="preserve" text-anchor="start" x="231.75" y="-180.38" font-family="Helvetica,sans-Serif" font-size="10.00">TemperatureController</text>
<text xml:space="preserve" text-anchor="middle" x="279.75" y="-169.12" font-family="Helvetica,sans-Serif" font-size="10.00">::getAlarmsForPoint</text>
</a>
</g>
</g>
<!-- Node1&#45;&gt;Node3 -->
<g id="edge2_Node000001_Node000003" class="edge">
<title>Node1&#45;&gt;Node3</title>
<g id="a_edge2_Node000001_Node000003"><a xlink:title=" ">
<path fill="none" stroke="#63b8ff" d="M146.93,-145.33C167.89,-150.62 191.34,-156.55 212.58,-161.91"/>
<polygon fill="#63b8ff" stroke="#63b8ff" points="211.45,-165.24 222,-164.29 213.16,-158.45 211.45,-165.24"/>
</a>
</g>
</g>
<!-- Node5 -->
<g id="Node000005" class="node">
<title>Node5</title>
<g id="a_Node000005"><a xlink:href="class_temperature_controller.html#a494f057c234b4ff7526bde271aec9267" target="_top" xlink:title="Get measurement point by address.">
<polygon fill="white" stroke="#666666" points="338.38,-144.88 221.12,-144.88 221.12,-114.38 338.38,-114.38 338.38,-144.88"/>
<text xml:space="preserve" text-anchor="start" x="229.12" y="-131.38" font-family="Helvetica,sans-Serif" font-size="10.00">TemperatureController</text>
<text xml:space="preserve" text-anchor="middle" x="279.75" y="-120.12" font-family="Helvetica,sans-Serif" font-size="10.00">::getMeasurementPoint</text>
</a>
</g>
</g>
<!-- Node1&#45;&gt;Node5 -->
<g id="edge4_Node000001_Node000005" class="edge">
<title>Node1&#45;&gt;Node5</title>
<g id="a_edge4_Node000001_Node000005"><a xlink:title=" ">
<path fill="none" stroke="#63b8ff" d="M167.87,-129.62C181.77,-129.62 196.06,-129.62 209.56,-129.62"/>
<polygon fill="#63b8ff" stroke="#63b8ff" points="209.18,-133.13 219.18,-129.63 209.18,-126.13 209.18,-133.13"/>
</a>
</g>
</g>
<!-- Node8 -->
<g id="Node000008" class="node">
<title>Node8</title>
<g id="a_Node000008"><a xlink:href="class_temperature_controller.html#a01e04714a1712aa10c34276850971a12" target="_top" xlink:title="Get bus number for a sensor.">
<polygon fill="white" stroke="#666666" points="335.75,-95.88 223.75,-95.88 223.75,-65.38 335.75,-65.38 335.75,-95.88"/>
<text xml:space="preserve" text-anchor="start" x="231.75" y="-82.38" font-family="Helvetica,sans-Serif" font-size="10.00">TemperatureController</text>
<text xml:space="preserve" text-anchor="middle" x="279.75" y="-71.12" font-family="Helvetica,sans-Serif" font-size="10.00">::getSensorBus</text>
</a>
</g>
</g>
<!-- Node1&#45;&gt;Node8 -->
<g id="edge7_Node000001_Node000008" class="edge">
<title>Node1&#45;&gt;Node8</title>
<g id="a_edge7_Node000001_Node000008"><a xlink:title=" ">
<path fill="none" stroke="#63b8ff" d="M146.93,-113.92C167.89,-108.63 191.34,-102.7 212.58,-97.34"/>
<polygon fill="#63b8ff" stroke="#63b8ff" points="213.16,-100.8 222,-94.96 211.45,-94.01 213.16,-100.8"/>
</a>
</g>
</g>
<!-- Node12 -->
<g id="Node000012" class="node">
<title>Node12</title>
<g id="a_Node000012"><a xlink:href="class_logger_manager.html#a5c1373ccc47f4112b596fe6f84fbbc21" target="_top" xlink:title="Log informational message (static convenience method)">
<polygon fill="white" stroke="#666666" points="332,-47.25 227.5,-47.25 227.5,-28 332,-28 332,-47.25"/>
<text xml:space="preserve" text-anchor="middle" x="279.75" y="-33.75" font-family="Helvetica,sans-Serif" font-size="10.00">LoggerManager::info</text>
</a>
</g>
</g>
<!-- Node1&#45;&gt;Node12 -->
<g id="edge11_Node000001_Node000012" class="edge">
<title>Node1&#45;&gt;Node12</title>
<g id="a_edge11_Node000001_Node000012"><a xlink:title=" ">
<path fill="none" stroke="#63b8ff" d="M105.57,-114.1C128.48,-97.67 166.93,-72.05 203.5,-56.62 208.44,-54.54 213.66,-52.65 218.96,-50.93"/>
<polygon fill="#63b8ff" stroke="#63b8ff" points="219.84,-54.32 228.42,-48.1 217.83,-47.61 219.84,-54.32"/>
</a>
</g>
</g>
<!-- Node4 -->
<g id="Node000004" class="node">
<title>Node4</title>
<g id="a_Node000004"><a xlink:href="class_measurement_point.html#a7b74a18d86e0e545264a774aa2c31cad" target="_top" xlink:title="Get measurement point address.">
<polygon fill="white" stroke="#666666" points="549.75,-228.25 396.5,-228.25 396.5,-209 549.75,-209 549.75,-228.25"/>
<text xml:space="preserve" text-anchor="middle" x="473.12" y="-214.75" font-family="Helvetica,sans-Serif" font-size="10.00">MeasurementPoint::getAddress</text>
</a>
</g>
</g>
<!-- Node3&#45;&gt;Node4 -->
<g id="edge3_Node000003_Node000004" class="edge">
<title>Node3&#45;&gt;Node4</title>
<g id="a_edge3_Node000003_Node000004"><a xlink:title=" ">
<path fill="none" stroke="#63b8ff" d="M336.1,-190.19C360.13,-195.22 388.31,-201.11 412.77,-206.22"/>
<polygon fill="#63b8ff" stroke="#63b8ff" points="411.74,-209.58 422.24,-208.2 413.17,-202.73 411.74,-209.58"/>
</a>
</g>
</g>
<!-- Node6 -->
<g id="Node000006" class="node">
<title>Node6</title>
<g id="a_Node000006"><a xlink:href="class_temperature_controller.html#ad322a5bab8d5788a586206004248f673" target="_top" xlink:title="Check if address is for DS18B20 sensor.">
<polygon fill="white" stroke="#666666" points="529.12,-190.88 417.12,-190.88 417.12,-160.38 529.12,-160.38 529.12,-190.88"/>
<text xml:space="preserve" text-anchor="start" x="425.12" y="-177.38" font-family="Helvetica,sans-Serif" font-size="10.00">TemperatureController</text>
<text xml:space="preserve" text-anchor="middle" x="473.12" y="-166.12" font-family="Helvetica,sans-Serif" font-size="10.00">::isDS18B20Address</text>
</a>
</g>
</g>
<!-- Node5&#45;&gt;Node6 -->
<g id="edge5_Node000005_Node000006" class="edge">
<title>Node5&#45;&gt;Node6</title>
<g id="a_edge5_Node000005_Node000006"><a xlink:title=" ">
<path fill="none" stroke="#63b8ff" d="M338.69,-143.55C359.77,-148.62 383.76,-154.38 405.53,-159.62"/>
<polygon fill="#63b8ff" stroke="#63b8ff" points="404.67,-163.01 415.21,-161.94 406.3,-156.2 404.67,-163.01"/>
</a>
</g>
</g>
<!-- Node7 -->
<g id="Node000007" class="node">
<title>Node7</title>
<g id="a_Node000007"><a xlink:href="class_temperature_controller.html#a13125ddcf29cb56d27403818543618af" target="_top" xlink:title="Check if address is for PT1000 sensor.">
<polygon fill="white" stroke="#666666" points="529.12,-141.88 417.12,-141.88 417.12,-111.38 529.12,-111.38 529.12,-141.88"/>
<text xml:space="preserve" text-anchor="start" x="425.12" y="-128.38" font-family="Helvetica,sans-Serif" font-size="10.00">TemperatureController</text>
<text xml:space="preserve" text-anchor="middle" x="473.12" y="-117.12" font-family="Helvetica,sans-Serif" font-size="10.00">::isPT1000Address</text>
</a>
</g>
</g>
<!-- Node5&#45;&gt;Node7 -->
<g id="edge6_Node000005_Node000007" class="edge">
<title>Node5&#45;&gt;Node7</title>
<g id="a_edge6_Node000005_Node000007"><a xlink:title=" ">
<path fill="none" stroke="#63b8ff" d="M338.69,-128.72C359.67,-128.39 383.54,-128.01 405.23,-127.67"/>
<polygon fill="#63b8ff" stroke="#63b8ff" points="405.22,-131.17 415.17,-127.52 405.11,-124.18 405.22,-131.17"/>
</a>
</g>
</g>
<!-- Node9 -->
<g id="Node000009" class="node">
<title>Node9</title>
<g id="a_Node000009"><a xlink:href="class_sensor.html#ac42da3a37b0d6a9622344fe83f4c9047" target="_top" xlink:title="Get OneWire bus pin.">
<polygon fill="white" stroke="#666666" points="532.5,-93.25 413.75,-93.25 413.75,-74 532.5,-74 532.5,-93.25"/>
<text xml:space="preserve" text-anchor="middle" x="473.12" y="-79.75" font-family="Helvetica,sans-Serif" font-size="10.00">Sensor::getOneWirePin</text>
</a>
</g>
</g>
<!-- Node8&#45;&gt;Node9 -->
<g id="edge8_Node000008_Node000009" class="edge">
<title>Node8&#45;&gt;Node9</title>
<g id="a_edge8_Node000008_Node000009"><a xlink:title=" ">
<path fill="none" stroke="#63b8ff" d="M336.1,-81.49C356.69,-81.82 380.32,-82.19 402.06,-82.53"/>
<polygon fill="#63b8ff" stroke="#63b8ff" points="401.99,-86.03 412.05,-82.68 402.1,-79.03 401.99,-86.03"/>
</a>
</g>
</g>
<!-- Node10 -->
<g id="Node000010" class="node">
<title>Node10</title>
<g id="a_Node000010"><a xlink:href="class_sensor.html#a6f57825e90b759ccdb9fe07b3a36953d" target="_top" xlink:title="Get PT1000 chip select pin.">
<polygon fill="white" stroke="#666666" points="554.25,-56.25 392,-56.25 392,-37 554.25,-37 554.25,-56.25"/>
<text xml:space="preserve" text-anchor="middle" x="473.12" y="-42.75" font-family="Helvetica,sans-Serif" font-size="10.00">Sensor::getPT1000ChipSelectPin</text>
</a>
</g>
</g>
<!-- Node8&#45;&gt;Node10 -->
<g id="edge9_Node000008_Node000010" class="edge">
<title>Node8&#45;&gt;Node10</title>
<g id="a_edge9_Node000008_Node000010"><a xlink:title=" ">
<path fill="none" stroke="#63b8ff" d="M336.1,-70.79C357.35,-67.02 381.85,-62.66 404.15,-58.7"/>
<polygon fill="#63b8ff" stroke="#63b8ff" points="404.51,-62.19 413.74,-57 403.29,-55.3 404.51,-62.19"/>
</a>
</g>
</g>
<!-- Node11 -->
<g id="Node000011" class="node">
<title>Node11</title>
<g id="a_Node000011"><a xlink:href="class_sensor.html#a0f6f095e7cfdfffb2a395dfdae7cfa53" target="_top" xlink:title="Get sensor type.">
<polygon fill="white" stroke="#666666" points="516.75,-19.25 429.5,-19.25 429.5,0 516.75,0 516.75,-19.25"/>
<text xml:space="preserve" text-anchor="middle" x="473.12" y="-5.75" font-family="Helvetica,sans-Serif" font-size="10.00">Sensor::getType</text>
</a>
</g>
</g>
<!-- Node8&#45;&gt;Node11 -->
<g id="edge10_Node000008_Node000011" class="edge">
<title>Node8&#45;&gt;Node11</title>
<g id="a_edge10_Node000008_Node000011"><a xlink:title=" ">
<path fill="none" stroke="#63b8ff" d="M335.98,-65.63C342.89,-63 349.72,-60 356,-56.62 374.09,-46.89 373.5,-36.55 392,-27.62 400.22,-23.66 409.33,-20.55 418.38,-18.12"/>
<polygon fill="#63b8ff" stroke="#63b8ff" points="418.95,-21.59 427.85,-15.84 417.31,-14.78 418.95,-21.59"/>
</a>
</g>
</g>
</g>
</svg>
