<?xml version="1.0" encoding="UTF-8" standalone="no"?>
<!DOCTYPE svg PUBLIC "-//W3C//DTD SVG 1.1//EN"
 "http://www.w3.org/Graphics/SVG/1.1/DTD/svg11.dtd">
<!-- Generated by graphviz version 13.1.0 (20250701.0955)
 -->
<!-- Title: TemperatureController::discoverPTSensors Pages: 1 -->
<svg width="483pt" height="274pt"
 viewBox="0.00 0.00 483.00 274.00" xmlns="http://www.w3.org/2000/svg" xmlns:xlink="http://www.w3.org/1999/xlink">
<g id="graph0" class="graph" transform="scale(1 1) rotate(0) translate(4 269.88)">
<title>TemperatureController::discoverPTSensors</title>
<!-- Node1 -->
<g id="Node000001" class="node">
<title>Node1</title>
<g id="a_Node000001"><a xlink:title="Discover PT1000 sensors on SPI bus.">
<polygon fill="#999999" stroke="#666666" points="112,-141.88 0,-141.88 0,-111.38 112,-111.38 112,-141.88"/>
<text xml:space="preserve" text-anchor="start" x="8" y="-128.38" font-family="Helvetica,sans-Serif" font-size="10.00">TemperatureController</text>
<text xml:space="preserve" text-anchor="middle" x="56" y="-117.12" font-family="Helvetica,sans-Serif" font-size="10.00">::discoverPTSensors</text>
</a>
</g>
</g>
<!-- Node2 -->
<g id="Node000002" class="node">
<title>Node2</title>
<g id="a_Node000002"><a xlink:href="class_temperature_controller.html#a31a8a32868beaae06649a5006ca96599" target="_top" xlink:title="Find PT1000 sensor by chip select pin.">
<polygon fill="white" stroke="#666666" points="276.5,-265.88 148,-265.88 148,-235.38 276.5,-235.38 276.5,-265.88"/>
<text xml:space="preserve" text-anchor="start" x="156" y="-252.38" font-family="Helvetica,sans-Serif" font-size="10.00">TemperatureController</text>
<text xml:space="preserve" text-anchor="middle" x="212.25" y="-241.12" font-family="Helvetica,sans-Serif" font-size="10.00">::findSensorByChipSelect</text>
</a>
</g>
</g>
<!-- Node1&#45;&gt;Node2 -->
<g id="edge1_Node000001_Node000002" class="edge">
<title>Node1&#45;&gt;Node2</title>
<g id="a_edge1_Node000001_Node000002"><a xlink:title=" ">
<path fill="none" stroke="#63b8ff" d="M67.58,-142.27C82.96,-163.95 113.46,-203.12 148,-226.62 149.57,-227.69 151.19,-228.72 152.85,-229.71"/>
<polygon fill="#63b8ff" stroke="#63b8ff" points="150.93,-232.65 161.4,-234.25 154.21,-226.47 150.93,-232.65"/>
</a>
</g>
</g>
<!-- Node3 -->
<g id="Node000003" class="node">
<title>Node3</title>
<g id="a_Node000003"><a xlink:href="class_sensor.html#a60ec96ed03660b42681c1bcc99007033" target="_top" xlink:title="Get sensor name.">
<polygon fill="white" stroke="#666666" points="258.5,-217.25 166,-217.25 166,-198 258.5,-198 258.5,-217.25"/>
<text xml:space="preserve" text-anchor="middle" x="212.25" y="-203.75" font-family="Helvetica,sans-Serif" font-size="10.00">Sensor::getName</text>
</a>
</g>
</g>
<!-- Node1&#45;&gt;Node3 -->
<g id="edge2_Node000001_Node000003" class="edge">
<title>Node1&#45;&gt;Node3</title>
<g id="a_edge2_Node000001_Node000003"><a xlink:title=" ">
<path fill="none" stroke="#63b8ff" d="M79.1,-142.19C97.1,-154.45 123.46,-171.43 148,-183.62 155.15,-187.18 162.96,-190.53 170.58,-193.55"/>
<polygon fill="#63b8ff" stroke="#63b8ff" points="169.13,-196.74 179.72,-197.03 171.62,-190.2 169.13,-196.74"/>
</a>
</g>
</g>
<!-- Node4 -->
<g id="Node000004" class="node">
<title>Node4</title>
<g id="a_Node000004"><a xlink:href="class_sensor.html#a6f57825e90b759ccdb9fe07b3a36953d" target="_top" xlink:title="Get PT1000 chip select pin.">
<polygon fill="white" stroke="#666666" points="474.75,-177.25 312.5,-177.25 312.5,-158 474.75,-158 474.75,-177.25"/>
<text xml:space="preserve" text-anchor="middle" x="393.62" y="-163.75" font-family="Helvetica,sans-Serif" font-size="10.00">Sensor::getPT1000ChipSelectPin</text>
</a>
</g>
</g>
<!-- Node1&#45;&gt;Node4 -->
<g id="edge3_Node000001_Node000004" class="edge">
<title>Node1&#45;&gt;Node4</title>
<g id="a_edge3_Node000001_Node000004"><a xlink:title=" ">
<path fill="none" stroke="#63b8ff" d="M109.57,-142.29C122.07,-145.51 135.43,-148.55 148,-150.62 198.05,-158.89 254.5,-163.14 300.56,-165.33"/>
<polygon fill="#63b8ff" stroke="#63b8ff" points="300.37,-168.82 310.52,-165.77 300.68,-161.83 300.37,-168.82"/>
</a>
</g>
</g>
<!-- Node5 -->
<g id="Node000005" class="node">
<title>Node5</title>
<g id="a_Node000005"><a xlink:href="class_temperature_controller.html#a01e04714a1712aa10c34276850971a12" target="_top" xlink:title="Get bus number for a sensor.">
<polygon fill="white" stroke="#666666" points="268.25,-141.88 156.25,-141.88 156.25,-111.38 268.25,-111.38 268.25,-141.88"/>
<text xml:space="preserve" text-anchor="start" x="164.25" y="-128.38" font-family="Helvetica,sans-Serif" font-size="10.00">TemperatureController</text>
<text xml:space="preserve" text-anchor="middle" x="212.25" y="-117.12" font-family="Helvetica,sans-Serif" font-size="10.00">::getSensorBus</text>
</a>
</g>
</g>
<!-- Node1&#45;&gt;Node5 -->
<g id="edge4_Node000001_Node000005" class="edge">
<title>Node1&#45;&gt;Node5</title>
<g id="a_edge4_Node000001_Node000005"><a xlink:title=" ">
<path fill="none" stroke="#63b8ff" d="M112.25,-126.62C122.66,-126.62 133.65,-126.62 144.38,-126.62"/>
<polygon fill="#63b8ff" stroke="#63b8ff" points="144.35,-130.13 154.35,-126.63 144.35,-123.13 144.35,-130.13"/>
</a>
</g>
</g>
<!-- Node8 -->
<g id="Node000008" class="node">
<title>Node8</title>
<g id="a_Node000008"><a xlink:href="class_logger_manager.html#a5c1373ccc47f4112b596fe6f84fbbc21" target="_top" xlink:title="Log informational message (static convenience method)">
<polygon fill="white" stroke="#666666" points="264.5,-93.25 160,-93.25 160,-74 264.5,-74 264.5,-93.25"/>
<text xml:space="preserve" text-anchor="middle" x="212.25" y="-79.75" font-family="Helvetica,sans-Serif" font-size="10.00">LoggerManager::info</text>
</a>
</g>
</g>
<!-- Node1&#45;&gt;Node8 -->
<g id="edge8_Node000001_Node000008" class="edge">
<title>Node1&#45;&gt;Node8</title>
<g id="a_edge8_Node000001_Node000008"><a xlink:title=" ">
<path fill="none" stroke="#63b8ff" d="M112.25,-111.22C129.25,-106.48 147.79,-101.32 164.19,-96.74"/>
<polygon fill="#63b8ff" stroke="#63b8ff" points="165,-100.15 173.69,-94.1 163.12,-93.41 165,-100.15"/>
</a>
</g>
</g>
<!-- Node9 -->
<g id="Node000009" class="node">
<title>Node9</title>
<g id="a_Node000009"><a xlink:href="class_sensor.html#a59dd5483b75d9366a0c50ccdd0345dec" target="_top" xlink:title="Initialize sensor hardware.">
<polygon fill="white" stroke="#666666" points="256.25,-56.25 168.25,-56.25 168.25,-37 256.25,-37 256.25,-56.25"/>
<text xml:space="preserve" text-anchor="middle" x="212.25" y="-42.75" font-family="Helvetica,sans-Serif" font-size="10.00">Sensor::initialize</text>
</a>
</g>
</g>
<!-- Node1&#45;&gt;Node9 -->
<g id="edge9_Node000001_Node000009" class="edge">
<title>Node1&#45;&gt;Node9</title>
<g id="a_edge9_Node000001_Node000009"><a xlink:title=" ">
<path fill="none" stroke="#63b8ff" d="M76.13,-110.88C93.82,-97 121.33,-77.1 148,-64.62 151.26,-63.1 154.67,-61.68 158.15,-60.36"/>
<polygon fill="#63b8ff" stroke="#63b8ff" points="158.98,-63.77 167.28,-57.19 156.69,-57.16 158.98,-63.77"/>
</a>
</g>
</g>
<!-- Node10 -->
<g id="Node000010" class="node">
<title>Node10</title>
<g id="a_Node000010"><a xlink:href="class_sensor.html#aef73c8dc894e3695f50b4bece9601750" target="_top" xlink:title="Configure sensor as PT1000.">
<polygon fill="white" stroke="#666666" points="267.5,-19.25 157,-19.25 157,0 267.5,0 267.5,-19.25"/>
<text xml:space="preserve" text-anchor="middle" x="212.25" y="-5.75" font-family="Helvetica,sans-Serif" font-size="10.00">Sensor::setupPT1000</text>
</a>
</g>
</g>
<!-- Node1&#45;&gt;Node10 -->
<g id="edge10_Node000001_Node000010" class="edge">
<title>Node1&#45;&gt;Node10</title>
<g id="a_edge10_Node000001_Node000010"><a xlink:title=" ">
<path fill="none" stroke="#63b8ff" d="M67.09,-111.09C82.11,-89.22 112.43,-49.55 148,-27.62 150.01,-26.38 152.11,-25.23 154.27,-24.15"/>
<polygon fill="#63b8ff" stroke="#63b8ff" points="155.54,-27.41 163.34,-20.24 152.77,-20.98 155.54,-27.41"/>
</a>
</g>
</g>
<!-- Node5&#45;&gt;Node4 -->
<g id="edge6_Node000005_Node000004" class="edge">
<title>Node5&#45;&gt;Node4</title>
<g id="a_edge6_Node000005_Node000004"><a xlink:title=" ">
<path fill="none" stroke="#63b8ff" d="M268.53,-139.26C290.45,-144.27 315.59,-150.02 337.49,-155.02"/>
<polygon fill="#63b8ff" stroke="#63b8ff" points="336.61,-158.41 347.14,-157.23 338.17,-151.59 336.61,-158.41"/>
</a>
</g>
</g>
<!-- Node6 -->
<g id="Node000006" class="node">
<title>Node6</title>
<g id="a_Node000006"><a xlink:href="class_sensor.html#ac42da3a37b0d6a9622344fe83f4c9047" target="_top" xlink:title="Get OneWire bus pin.">
<polygon fill="white" stroke="#666666" points="453,-137.25 334.25,-137.25 334.25,-118 453,-118 453,-137.25"/>
<text xml:space="preserve" text-anchor="middle" x="393.62" y="-123.75" font-family="Helvetica,sans-Serif" font-size="10.00">Sensor::getOneWirePin</text>
</a>
</g>
</g>
<!-- Node5&#45;&gt;Node6 -->
<g id="edge5_Node000005_Node000006" class="edge">
<title>Node5&#45;&gt;Node6</title>
<g id="a_edge5_Node000005_Node000006"><a xlink:title=" ">
<path fill="none" stroke="#63b8ff" d="M268.53,-126.93C285.59,-127.03 304.6,-127.13 322.51,-127.23"/>
<polygon fill="#63b8ff" stroke="#63b8ff" points="322.26,-130.73 332.28,-127.29 322.3,-123.73 322.26,-130.73"/>
</a>
</g>
</g>
<!-- Node7 -->
<g id="Node000007" class="node">
<title>Node7</title>
<g id="a_Node000007"><a xlink:href="class_sensor.html#a0f6f095e7cfdfffb2a395dfdae7cfa53" target="_top" xlink:title="Get sensor type.">
<polygon fill="white" stroke="#666666" points="437.25,-100.25 350,-100.25 350,-81 437.25,-81 437.25,-100.25"/>
<text xml:space="preserve" text-anchor="middle" x="393.62" y="-86.75" font-family="Helvetica,sans-Serif" font-size="10.00">Sensor::getType</text>
</a>
</g>
</g>
<!-- Node5&#45;&gt;Node7 -->
<g id="edge7_Node000005_Node000007" class="edge">
<title>Node5&#45;&gt;Node7</title>
<g id="a_edge7_Node000005_Node000007"><a xlink:title=" ">
<path fill="none" stroke="#63b8ff" d="M268.53,-115.53C290.8,-111.06 316.4,-105.92 338.54,-101.48"/>
<polygon fill="#63b8ff" stroke="#63b8ff" points="339.17,-104.92 348.28,-99.52 337.79,-98.06 339.17,-104.92"/>
</a>
</g>
</g>
</g>
</svg>
