<?xml version="1.0" encoding="UTF-8" standalone="no"?>
<!DOCTYPE svg PUBLIC "-//W3C//DTD SVG 1.1//EN"
 "http://www.w3.org/Graphics/SVG/1.1/DTD/svg11.dtd">
<!-- Generated by graphviz version 13.1.0 (20250701.0955)
 -->
<!-- Title: LoggerManager::getAlarmStateLogFiles Pages: 1 -->
<svg width="682pt" height="87pt"
 viewBox="0.00 0.00 682.00 87.00" xmlns="http://www.w3.org/2000/svg" xmlns:xlink="http://www.w3.org/1999/xlink">
<g id="graph0" class="graph" transform="scale(1 1) rotate(0) translate(4 83.33)">
<title>LoggerManager::getAlarmStateLogFiles</title>
<!-- Node1 -->
<g id="Node000001" class="node">
<title>Node1</title>
<g id="a_Node000001"><a xlink:title=" ">
<polygon fill="#999999" stroke="#666666" points="673.75,-64.88 522.75,-64.88 522.75,-34.38 673.75,-34.38 673.75,-64.88"/>
<text xml:space="preserve" text-anchor="start" x="530.75" y="-51.38" font-family="Helvetica,sans-Serif" font-size="10.00">LoggerManager::getAlarmState</text>
<text xml:space="preserve" text-anchor="middle" x="598.25" y="-40.12" font-family="Helvetica,sans-Serif" font-size="10.00">LogFiles</text>
</a>
</g>
</g>
<!-- Node2 -->
<g id="Node000002" class="node">
<title>Node2</title>
<g id="a_Node000002"><a xlink:href="class_config_manager.html#a3b28982c79587a287c8ddf0acf47f71d" target="_top" xlink:title="Setup file download API endpoints.">
<polygon fill="white" stroke="#666666" points="293,-59.25 147.25,-59.25 147.25,-40 293,-40 293,-59.25"/>
<text xml:space="preserve" text-anchor="middle" x="220.12" y="-45.75" font-family="Helvetica,sans-Serif" font-size="10.00">ConfigManager::downloadAPI</text>
</a>
</g>
</g>
<!-- Node1&#45;&gt;Node2 -->
<g id="edge1_Node000001_Node000002" class="edge">
<title>Node1&#45;&gt;Node2</title>
<g id="a_edge1_Node000001_Node000002"><a xlink:title=" ">
<path fill="none" stroke="#63b8ff" d="M524.98,-67.63C512.32,-70.13 499.2,-72.29 486.75,-73.62 417.04,-81.11 398.69,-81.28 329,-73.62 304.78,-70.96 278.04,-65.04 257.24,-59.74"/>
<polygon fill="#63b8ff" stroke="#63b8ff" points="525.4,-71.12 534.49,-65.68 523.99,-64.27 525.4,-71.12"/>
</a>
</g>
</g>
<!-- Node4 -->
<g id="Node000004" class="node">
<title>Node4</title>
<g id="a_Node000004"><a xlink:href="class_config_manager.html#aa425fe77d9c00f404f1c02327263f516" target="_top" xlink:title="Get alarm events for a specific point within date range.">
<polygon fill="white" stroke="#666666" points="486.75,-64.88 329,-64.88 329,-34.38 486.75,-34.38 486.75,-64.88"/>
<text xml:space="preserve" text-anchor="start" x="337" y="-51.38" font-family="Helvetica,sans-Serif" font-size="10.00">ConfigManager::getAlarmEvents</text>
<text xml:space="preserve" text-anchor="middle" x="407.88" y="-40.12" font-family="Helvetica,sans-Serif" font-size="10.00">ForPoint</text>
</a>
</g>
</g>
<!-- Node1&#45;&gt;Node4 -->
<g id="edge3_Node000001_Node000004" class="edge">
<title>Node1&#45;&gt;Node4</title>
<g id="a_edge3_Node000001_Node000004"><a xlink:title=" ">
<path fill="none" stroke="#63b8ff" d="M511.02,-49.62C503.01,-49.62 494.93,-49.62 487,-49.62"/>
<polygon fill="#63b8ff" stroke="#63b8ff" points="510.74,-53.13 520.74,-49.63 510.74,-46.13 510.74,-53.13"/>
</a>
</g>
</g>
<!-- Node5 -->
<g id="Node000005" class="node">
<title>Node5</title>
<g id="a_Node000005"><a xlink:href="class_config_manager.html#a9e977107b4795fcbce0482711ff1ce7a" target="_top" xlink:title="Setup logging API endpoints.">
<polygon fill="white" stroke="#666666" points="281.38,-19.25 158.88,-19.25 158.88,0 281.38,0 281.38,-19.25"/>
<text xml:space="preserve" text-anchor="middle" x="220.12" y="-5.75" font-family="Helvetica,sans-Serif" font-size="10.00">ConfigManager::logsAPI</text>
</a>
</g>
</g>
<!-- Node1&#45;&gt;Node5 -->
<g id="edge5_Node000001_Node000005" class="edge">
<title>Node1&#45;&gt;Node5</title>
<g id="a_edge5_Node000001_Node000005"><a xlink:title=" ">
<path fill="none" stroke="#63b8ff" d="M521.88,-31.64C510.17,-29.32 498.17,-27.2 486.75,-25.62 416.84,-15.99 335.79,-12.15 281.78,-10.63"/>
<polygon fill="#63b8ff" stroke="#63b8ff" points="521,-35.03 531.5,-33.62 522.41,-28.18 521,-35.03"/>
</a>
</g>
</g>
<!-- Node3 -->
<g id="Node000003" class="node">
<title>Node3</title>
<g id="a_Node000003"><a xlink:href="class_config_manager.html#a0497343220fc493f5cf9574922508908" target="_top" xlink:title="Initialize the configuration system.">
<polygon fill="white" stroke="#666666" points="111.25,-40.25 0,-40.25 0,-21 111.25,-21 111.25,-40.25"/>
<text xml:space="preserve" text-anchor="middle" x="55.62" y="-26.75" font-family="Helvetica,sans-Serif" font-size="10.00">ConfigManager::begin</text>
</a>
</g>
</g>
<!-- Node2&#45;&gt;Node3 -->
<g id="edge2_Node000002_Node000003" class="edge">
<title>Node2&#45;&gt;Node3</title>
<g id="a_edge2_Node000002_Node000003"><a xlink:title=" ">
<path fill="none" stroke="#63b8ff" d="M135.73,-39.87C127.53,-38.92 119.36,-37.96 111.55,-37.05"/>
<polygon fill="#63b8ff" stroke="#63b8ff" points="135.06,-43.32 145.4,-41 135.87,-36.37 135.06,-43.32"/>
</a>
</g>
</g>
<!-- Node4&#45;&gt;Node2 -->
<g id="edge4_Node000004_Node000002" class="edge">
<title>Node4&#45;&gt;Node2</title>
<g id="a_edge4_Node000004_Node000002"><a xlink:title=" ">
<path fill="none" stroke="#63b8ff" d="M317.32,-49.62C309.29,-49.62 301.22,-49.62 293.35,-49.62"/>
<polygon fill="#63b8ff" stroke="#63b8ff" points="317.13,-53.13 327.13,-49.63 317.13,-46.13 317.13,-53.13"/>
</a>
</g>
</g>
<!-- Node5&#45;&gt;Node3 -->
<g id="edge6_Node000005_Node000003" class="edge">
<title>Node5&#45;&gt;Node3</title>
<g id="a_edge6_Node000005_Node000003"><a xlink:title=" ">
<path fill="none" stroke="#63b8ff" d="M147.25,-18.91C135.27,-20.46 123.02,-22.04 111.55,-23.53"/>
<polygon fill="#63b8ff" stroke="#63b8ff" points="147.65,-22.39 157.11,-17.64 146.75,-15.45 147.65,-22.39"/>
</a>
</g>
</g>
</g>
</svg>
