<?xml version="1.0" encoding="UTF-8" standalone="no"?>
<!DOCTYPE svg PUBLIC "-//W3C//DTD SVG 1.1//EN"
 "http://www.w3.org/Graphics/SVG/1.1/DTD/svg11.dtd">
<!-- Generated by graphviz version 13.1.0 (20250701.0955)
 -->
<!-- Title: TimeManager::getTimeString Pages: 1 -->
<svg width="343pt" height="64pt"
 viewBox="0.00 0.00 343.00 64.00" xmlns="http://www.w3.org/2000/svg" xmlns:xlink="http://www.w3.org/1999/xlink">
<g id="graph0" class="graph" transform="scale(1 1) rotate(0) translate(4 60.25)">
<title>TimeManager::getTimeString</title>
<!-- Node1 -->
<g id="Node000001" class="node">
<title>Node1</title>
<g id="a_Node000001"><a xlink:title="Get time as string (HH:MM:SS)">
<polygon fill="#999999" stroke="#666666" points="142,-37.25 0,-37.25 0,-18 142,-18 142,-37.25"/>
<text xml:space="preserve" text-anchor="middle" x="71" y="-23.75" font-family="Helvetica,sans-Serif" font-size="10.00">TimeManager::getTimeString</text>
</a>
</g>
</g>
<!-- Node2 -->
<g id="Node000002" class="node">
<title>Node2</title>
<g id="a_Node000002"><a xlink:href="class_time_manager.html#abcaf17b6da72a3a2f2566d940ce5ce8d" target="_top" xlink:title="Format DateTime according to format string.">
<polygon fill="white" stroke="#666666" points="335,-56.25 178,-56.25 178,-37 335,-37 335,-56.25"/>
<text xml:space="preserve" text-anchor="middle" x="256.5" y="-42.75" font-family="Helvetica,sans-Serif" font-size="10.00">TimeManager::_formatDateTime</text>
</a>
</g>
</g>
<!-- Node1&#45;&gt;Node2 -->
<g id="edge1_Node000001_Node000002" class="edge">
<title>Node1&#45;&gt;Node2</title>
<g id="a_edge1_Node000001_Node000002"><a xlink:title=" ">
<path fill="none" stroke="#63b8ff" d="M142.42,-34.92C150.25,-35.73 158.3,-36.56 166.33,-37.39"/>
<polygon fill="#63b8ff" stroke="#63b8ff" points="165.82,-40.86 176.12,-38.41 166.54,-33.89 165.82,-40.86"/>
</a>
</g>
</g>
<!-- Node3 -->
<g id="Node000003" class="node">
<title>Node3</title>
<g id="a_Node000003"><a xlink:href="class_time_manager.html#a2667b0243b7db24b3055c2b00e2837ba" target="_top" xlink:title="Get current time from RTC.">
<polygon fill="white" stroke="#666666" points="330.88,-19.25 182.12,-19.25 182.12,0 330.88,0 330.88,-19.25"/>
<text xml:space="preserve" text-anchor="middle" x="256.5" y="-5.75" font-family="Helvetica,sans-Serif" font-size="10.00">TimeManager::getCurrentTime</text>
</a>
</g>
</g>
<!-- Node1&#45;&gt;Node3 -->
<g id="edge2_Node000001_Node000003" class="edge">
<title>Node1&#45;&gt;Node3</title>
<g id="a_edge2_Node000001_Node000003"><a xlink:title=" ">
<path fill="none" stroke="#63b8ff" d="M142.42,-20.72C151.62,-19.82 161.12,-18.88 170.52,-17.96"/>
<polygon fill="#63b8ff" stroke="#63b8ff" points="170.8,-21.45 180.41,-16.99 170.12,-14.48 170.8,-21.45"/>
</a>
</g>
</g>
</g>
</svg>
