<?xml version="1.0" encoding="UTF-8" standalone="no"?>
<!DOCTYPE svg PUBLIC "-//W3C//DTD SVG 1.1//EN"
 "http://www.w3.org/Graphics/SVG/1.1/DTD/svg11.dtd">
<!-- Generated by graphviz version 13.1.0 (20250701.0955)
 -->
<!-- Title: LoggerManager::_getFilesForDate Pages: 1 -->
<svg width="655pt" height="125pt"
 viewBox="0.00 0.00 655.00 125.00" xmlns="http://www.w3.org/2000/svg" xmlns:xlink="http://www.w3.org/1999/xlink">
<g id="graph0" class="graph" transform="scale(1 1) rotate(0) translate(4 120.5)">
<title>LoggerManager::_getFilesForDate</title>
<!-- Node1 -->
<g id="Node000001" class="node">
<title>Node1</title>
<g id="a_Node000001"><a xlink:title=" ">
<polygon fill="#999999" stroke="#666666" points="646.75,-73.5 518.25,-73.5 518.25,-43 646.75,-43 646.75,-73.5"/>
<text xml:space="preserve" text-anchor="start" x="526.25" y="-60" font-family="Helvetica,sans-Serif" font-size="10.00">LoggerManager::_getFiles</text>
<text xml:space="preserve" text-anchor="middle" x="582.5" y="-48.75" font-family="Helvetica,sans-Serif" font-size="10.00">ForDate</text>
</a>
</g>
</g>
<!-- Node2 -->
<g id="Node000002" class="node">
<title>Node2</title>
<g id="a_Node000002"><a xlink:href="class_logger_manager.html#a0efdffdaa8b90ec4a896c5ac52cd2856" target="_top" xlink:title=" ">
<polygon fill="white" stroke="#666666" points="482.25,-116.5 338.75,-116.5 338.75,-86 482.25,-86 482.25,-116.5"/>
<text xml:space="preserve" text-anchor="start" x="346.75" y="-103" font-family="Helvetica,sans-Serif" font-size="10.00">LoggerManager::_findHighest</text>
<text xml:space="preserve" text-anchor="middle" x="410.5" y="-91.75" font-family="Helvetica,sans-Serif" font-size="10.00">SequenceForDate</text>
</a>
</g>
</g>
<!-- Node1&#45;&gt;Node2 -->
<g id="edge1_Node000001_Node000002" class="edge">
<title>Node1&#45;&gt;Node2</title>
<g id="a_edge1_Node000001_Node000002"><a xlink:title=" ">
<path fill="none" stroke="#63b8ff" d="M508.59,-76.69C496.94,-79.64 484.97,-82.67 473.59,-85.54"/>
<polygon fill="#63b8ff" stroke="#63b8ff" points="509.34,-80.11 518.18,-74.27 507.62,-73.33 509.34,-80.11"/>
</a>
</g>
</g>
<!-- Node3 -->
<g id="Node000003" class="node">
<title>Node3</title>
<g id="a_Node000003"><a xlink:href="class_logger_manager.html#ac7866b2b0244358be6a1cfe8d245cc7d" target="_top" xlink:title=" ">
<polygon fill="white" stroke="#666666" points="302.75,-73.5 154,-73.5 154,-43 302.75,-43 302.75,-73.5"/>
<text xml:space="preserve" text-anchor="start" x="162" y="-60" font-family="Helvetica,sans-Serif" font-size="10.00">LoggerManager::_recoverFrom</text>
<text xml:space="preserve" text-anchor="middle" x="228.38" y="-48.75" font-family="Helvetica,sans-Serif" font-size="10.00">ExistingFiles</text>
</a>
</g>
</g>
<!-- Node1&#45;&gt;Node3 -->
<g id="edge7_Node000001_Node000003" class="edge">
<title>Node1&#45;&gt;Node3</title>
<g id="a_edge7_Node000001_Node000003"><a xlink:title=" ">
<path fill="none" stroke="#63b8ff" d="M506.85,-58.25C446.84,-58.25 362.98,-58.25 303.2,-58.25"/>
<polygon fill="#63b8ff" stroke="#63b8ff" points="506.63,-61.75 516.63,-58.25 506.63,-54.75 506.63,-61.75"/>
</a>
</g>
</g>
<!-- Node6 -->
<g id="Node000006" class="node">
<title>Node6</title>
<g id="a_Node000006"><a xlink:href="class_logger_manager.html#a485fea5149ef2e0199671ad2dcadbcf4" target="_top" xlink:title=" ">
<polygon fill="white" stroke="#666666" points="478.88,-30.5 342.12,-30.5 342.12,0 478.88,0 478.88,-30.5"/>
<text xml:space="preserve" text-anchor="start" x="350.12" y="-17" font-family="Helvetica,sans-Serif" font-size="10.00">LoggerManager::_findLatest</text>
<text xml:space="preserve" text-anchor="middle" x="410.5" y="-5.75" font-family="Helvetica,sans-Serif" font-size="10.00">FileForDate</text>
</a>
</g>
</g>
<!-- Node1&#45;&gt;Node6 -->
<g id="edge5_Node000001_Node000006" class="edge">
<title>Node1&#45;&gt;Node6</title>
<g id="a_edge5_Node000001_Node000006"><a xlink:title=" ">
<path fill="none" stroke="#63b8ff" d="M508.59,-39.81C496.94,-36.86 484.97,-33.83 473.59,-30.96"/>
<polygon fill="#63b8ff" stroke="#63b8ff" points="507.62,-43.17 518.18,-42.23 509.34,-36.39 507.62,-43.17"/>
</a>
</g>
</g>
<!-- Node2&#45;&gt;Node3 -->
<g id="edge2_Node000002_Node000003" class="edge">
<title>Node2&#45;&gt;Node3</title>
<g id="a_edge2_Node000002_Node000003"><a xlink:title=" ">
<path fill="none" stroke="#63b8ff" d="M332.84,-82.95C320.35,-79.97 307.5,-76.9 295.29,-73.99"/>
<polygon fill="#63b8ff" stroke="#63b8ff" points="331.69,-86.27 342.23,-85.19 333.32,-79.47 331.69,-86.27"/>
</a>
</g>
</g>
<!-- Node4 -->
<g id="Node000004" class="node">
<title>Node4</title>
<g id="a_Node000004"><a xlink:href="class_logger_manager.html#a4acf0149820d73f4ed11340f63706841" target="_top" xlink:title="Begin logging operations.">
<polygon fill="white" stroke="#666666" points="115,-86.88 3,-86.88 3,-67.62 115,-67.62 115,-86.88"/>
<text xml:space="preserve" text-anchor="middle" x="59" y="-73.38" font-family="Helvetica,sans-Serif" font-size="10.00">LoggerManager::begin</text>
</a>
</g>
</g>
<!-- Node3&#45;&gt;Node4 -->
<g id="edge3_Node000003_Node000004" class="edge">
<title>Node3&#45;&gt;Node4</title>
<g id="a_edge3_Node000003_Node000004"><a xlink:title=" ">
<path fill="none" stroke="#63b8ff" d="M142.71,-67.86C133.47,-68.91 124.25,-69.96 115.49,-70.95"/>
<polygon fill="#63b8ff" stroke="#63b8ff" points="142.92,-71.36 152.46,-66.75 142.13,-64.4 142.92,-71.36"/>
</a>
</g>
</g>
<!-- Node5 -->
<g id="Node000005" class="node">
<title>Node5</title>
<g id="a_Node000005"><a xlink:href="class_logger_manager.html#a830c86f1f27d3799eab1de908fc6b647" target="_top" xlink:title=" ">
<polygon fill="white" stroke="#666666" points="118,-49.88 0,-49.88 0,-30.62 118,-30.62 118,-49.88"/>
<text xml:space="preserve" text-anchor="middle" x="59" y="-36.38" font-family="Helvetica,sans-Serif" font-size="10.00">LoggerManager::update</text>
</a>
</g>
</g>
<!-- Node3&#45;&gt;Node5 -->
<g id="edge4_Node000003_Node000005" class="edge">
<title>Node3&#45;&gt;Node5</title>
<g id="a_edge4_Node000003_Node000005"><a xlink:title=" ">
<path fill="none" stroke="#63b8ff" d="M142.71,-49.14C134.44,-48.26 126.19,-47.37 118.27,-46.52"/>
<polygon fill="#63b8ff" stroke="#63b8ff" points="142.14,-52.6 152.46,-50.19 142.89,-45.64 142.14,-52.6"/>
</a>
</g>
</g>
<!-- Node6&#45;&gt;Node3 -->
<g id="edge6_Node000006_Node000003" class="edge">
<title>Node6&#45;&gt;Node3</title>
<g id="a_edge6_Node000006_Node000003"><a xlink:title=" ">
<path fill="none" stroke="#63b8ff" d="M332.84,-33.55C320.35,-36.53 307.5,-39.6 295.29,-42.51"/>
<polygon fill="#63b8ff" stroke="#63b8ff" points="333.32,-37.03 342.23,-31.31 331.69,-30.23 333.32,-37.03"/>
</a>
</g>
</g>
</g>
</svg>
