<?xml version="1.0" encoding="UTF-8" standalone="no"?>
<!DOCTYPE svg PUBLIC "-//W3C//DTD SVG 1.1//EN"
 "http://www.w3.org/Graphics/SVG/1.1/DTD/svg11.dtd">
<!-- Generated by graphviz version 13.1.0 (20250701.0955)
 -->
<!-- Title: LoggerManager::error Pages: 1 -->
<svg width="936pt" height="496pt"
 viewBox="0.00 0.00 936.00 496.00" xmlns="http://www.w3.org/2000/svg" xmlns:xlink="http://www.w3.org/1999/xlink">
<g id="graph0" class="graph" transform="scale(1 1) rotate(0) translate(4 491.5)">
<title>LoggerManager::error</title>
<!-- Node1 -->
<g id="Node000001" class="node">
<title>Node1</title>
<g id="a_Node000001"><a xlink:title="Log error message (static convenience method)">
<polygon fill="#999999" stroke="#666666" points="927.75,-257.88 819.5,-257.88 819.5,-238.62 927.75,-238.62 927.75,-257.88"/>
<text xml:space="preserve" text-anchor="middle" x="873.62" y="-244.38" font-family="Helvetica,sans-Serif" font-size="10.00">LoggerManager::error</text>
</a>
</g>
</g>
<!-- Node2 -->
<g id="Node000002" class="node">
<title>Node2</title>
<g id="a_Node000002"><a xlink:href="class_config_manager.html#a9b7af07b85bf9cc3ac05603db6e89fd2" target="_top" xlink:title="Setup CSV import/export API endpoints.">
<polygon fill="white" stroke="#666666" points="767.38,-487.5 635.88,-487.5 635.88,-457 767.38,-457 767.38,-487.5"/>
<text xml:space="preserve" text-anchor="start" x="643.88" y="-474" font-family="Helvetica,sans-Serif" font-size="10.00">ConfigManager::csvImport</text>
<text xml:space="preserve" text-anchor="middle" x="701.62" y="-462.75" font-family="Helvetica,sans-Serif" font-size="10.00">ExportAPI</text>
</a>
</g>
</g>
<!-- Node1&#45;&gt;Node2 -->
<g id="edge1_Node000001_Node000002" class="edge">
<title>Node1&#45;&gt;Node2</title>
<g id="a_edge1_Node000001_Node000002"><a xlink:title=" ">
<path fill="none" stroke="#63b8ff" d="M868.37,-269.46C859.45,-308.67 835.19,-392.89 783.5,-441.25 776.8,-447.52 768.7,-452.56 760.25,-456.6"/>
<polygon fill="#63b8ff" stroke="#63b8ff" points="871.79,-270.2 870.47,-259.69 864.95,-268.73 871.79,-270.2"/>
</a>
</g>
</g>
<!-- Node4 -->
<g id="Node000004" class="node">
<title>Node4</title>
<g id="a_Node000004"><a xlink:href="class_temperature_controller.html#a760bb05985e2ea9950c7f5cdc7f6669b" target="_top" xlink:title="Force relay state (for Modbus control)">
<polygon fill="white" stroke="#666666" points="569.88,-445.5 457.88,-445.5 457.88,-415 569.88,-415 569.88,-445.5"/>
<text xml:space="preserve" text-anchor="start" x="465.88" y="-432" font-family="Helvetica,sans-Serif" font-size="10.00">TemperatureController</text>
<text xml:space="preserve" text-anchor="middle" x="513.88" y="-420.75" font-family="Helvetica,sans-Serif" font-size="10.00">::forceRelayState</text>
</a>
</g>
</g>
<!-- Node1&#45;&gt;Node4 -->
<g id="edge3_Node000001_Node000004" class="edge">
<title>Node1&#45;&gt;Node4</title>
<g id="a_edge3_Node000001_Node000004"><a xlink:title=" ">
<path fill="none" stroke="#63b8ff" d="M867.55,-268.91C857.82,-303.7 832.95,-373.3 783.5,-405.25 719.47,-446.62 628.29,-445.49 570.35,-439.18"/>
<polygon fill="#63b8ff" stroke="#63b8ff" points="870.83,-270.2 870,-259.64 864.06,-268.42 870.83,-270.2"/>
</a>
</g>
</g>
<!-- Node5 -->
<g id="Node000005" class="node">
<title>Node5</title>
<g id="a_Node000005"><a xlink:href="class_temperature_controller.html#aac890ae08b5eddcf272771ecdba61453" target="_top" xlink:title="Get relay actual state.">
<polygon fill="white" stroke="#666666" points="569.88,-347.5 457.88,-347.5 457.88,-317 569.88,-317 569.88,-347.5"/>
<text xml:space="preserve" text-anchor="start" x="465.88" y="-334" font-family="Helvetica,sans-Serif" font-size="10.00">TemperatureController</text>
<text xml:space="preserve" text-anchor="middle" x="513.88" y="-322.75" font-family="Helvetica,sans-Serif" font-size="10.00">::getRelayActualState</text>
</a>
</g>
</g>
<!-- Node1&#45;&gt;Node5 -->
<g id="edge4_Node000001_Node000005" class="edge">
<title>Node1&#45;&gt;Node5</title>
<g id="a_edge4_Node000001_Node000005"><a xlink:title=" ">
<path fill="none" stroke="#63b8ff" d="M852.3,-265.22C835.13,-278.55 809.26,-296.29 783.5,-305.25 712.78,-329.84 625.71,-334.25 570.25,-334.1"/>
<polygon fill="#63b8ff" stroke="#63b8ff" points="854.09,-268.28 859.72,-259.3 849.72,-262.81 854.09,-268.28"/>
</a>
</g>
</g>
<!-- Node9 -->
<g id="Node000009" class="node">
<title>Node9</title>
<g id="a_Node000009"><a xlink:href="class_temperature_controller.html#a61ff288cbeaa86dc21c610c778dba64e" target="_top" xlink:title="Get relay control mode.">
<polygon fill="white" stroke="#666666" points="759.88,-396.5 643.38,-396.5 643.38,-366 759.88,-366 759.88,-396.5"/>
<text xml:space="preserve" text-anchor="start" x="651.38" y="-383" font-family="Helvetica,sans-Serif" font-size="10.00">TemperatureController</text>
<text xml:space="preserve" text-anchor="middle" x="701.62" y="-371.75" font-family="Helvetica,sans-Serif" font-size="10.00">::getRelayControlMode</text>
</a>
</g>
</g>
<!-- Node1&#45;&gt;Node9 -->
<g id="edge9_Node000001_Node000009" class="edge">
<title>Node1&#45;&gt;Node9</title>
<g id="a_edge9_Node000001_Node000009"><a xlink:title=" ">
<path fill="none" stroke="#63b8ff" d="M858.93,-267.34C842.86,-288.63 814.44,-323.01 783.5,-345.25 772.27,-353.32 758.94,-360.17 746.37,-365.65"/>
<polygon fill="#63b8ff" stroke="#63b8ff" points="861.58,-269.64 864.7,-259.52 855.95,-265.49 861.58,-269.64"/>
</a>
</g>
</g>
<!-- Node11 -->
<g id="Node000011" class="node">
<title>Node11</title>
<g id="a_Node000011"><a xlink:href="class_temp_modbus_server.html#a7d4a0ced2cfd174a4697a85492e12a58" target="_top" xlink:title="Worker function for Read Holding Registers (FC03)">
<polygon fill="white" stroke="#666666" points="782,-79.5 621.25,-79.5 621.25,-49 782,-49 782,-79.5"/>
<text xml:space="preserve" text-anchor="start" x="629.25" y="-66" font-family="Helvetica,sans-Serif" font-size="10.00">TempModbusServer::readHolding</text>
<text xml:space="preserve" text-anchor="middle" x="701.62" y="-54.75" font-family="Helvetica,sans-Serif" font-size="10.00">RegistersWorker</text>
</a>
</g>
</g>
<!-- Node1&#45;&gt;Node11 -->
<g id="edge13_Node000001_Node000011" class="edge">
<title>Node1&#45;&gt;Node11</title>
<g id="a_edge13_Node000001_Node000011"><a xlink:title=" ">
<path fill="none" stroke="#63b8ff" d="M866.65,-227.28C855.83,-193.04 829.69,-125.26 783.5,-88.25 779.5,-85.04 775.08,-82.27 770.43,-79.86"/>
<polygon fill="#63b8ff" stroke="#63b8ff" points="863.29,-228.24 869.52,-236.8 869.99,-226.22 863.29,-228.24"/>
</a>
</g>
</g>
<!-- Node13 -->
<g id="Node000013" class="node">
<title>Node13</title>
<g id="a_Node000013"><a xlink:href="class_temperature_controller.html#a8b0a764517c60705322f033be420c628" target="_top" xlink:title="Set relay control mode.">
<polygon fill="white" stroke="#666666" points="759.88,-263.5 643.38,-263.5 643.38,-233 759.88,-233 759.88,-263.5"/>
<text xml:space="preserve" text-anchor="start" x="651.38" y="-250" font-family="Helvetica,sans-Serif" font-size="10.00">TemperatureController</text>
<text xml:space="preserve" text-anchor="middle" x="701.62" y="-238.75" font-family="Helvetica,sans-Serif" font-size="10.00">::setRelayControlMode</text>
</a>
</g>
</g>
<!-- Node1&#45;&gt;Node13 -->
<g id="edge15_Node000001_Node000013" class="edge">
<title>Node1&#45;&gt;Node13</title>
<g id="a_edge15_Node000001_Node000013"><a xlink:title=" ">
<path fill="none" stroke="#63b8ff" d="M808.05,-248.25C792.31,-248.25 775.57,-248.25 760.18,-248.25"/>
<polygon fill="#63b8ff" stroke="#63b8ff" points="807.79,-251.75 817.79,-248.25 807.79,-244.75 807.79,-251.75"/>
</a>
</g>
</g>
<!-- Node14 -->
<g id="Node000014" class="node">
<title>Node14</title>
<g id="a_Node000014"><a xlink:href="class_temperature_controller.html#a261c9b96540ec6680dfffd3a26e4ca00" target="_top" xlink:title="Unbind sensor from measurement point.">
<polygon fill="white" stroke="#666666" points="764.75,-214.5 638.5,-214.5 638.5,-184 764.75,-184 764.75,-214.5"/>
<text xml:space="preserve" text-anchor="start" x="646.5" y="-201" font-family="Helvetica,sans-Serif" font-size="10.00">TemperatureController</text>
<text xml:space="preserve" text-anchor="middle" x="701.62" y="-189.75" font-family="Helvetica,sans-Serif" font-size="10.00">::unbindSensorFromPoint</text>
</a>
</g>
</g>
<!-- Node1&#45;&gt;Node14 -->
<g id="edge16_Node000001_Node000014" class="edge">
<title>Node1&#45;&gt;Node14</title>
<g id="a_edge16_Node000001_Node000014"><a xlink:title=" ">
<path fill="none" stroke="#63b8ff" d="M827,-235.1C805.49,-228.9 779.67,-221.46 757.14,-214.96"/>
<polygon fill="#63b8ff" stroke="#63b8ff" points="825.78,-238.39 836.36,-237.8 827.72,-231.66 825.78,-238.39"/>
</a>
</g>
</g>
<!-- Node15 -->
<g id="Node000015" class="node">
<title>Node15</title>
<g id="a_Node000015"><a xlink:href="class_temperature_controller.html#a23dca296a268baa9b8234c8bf9cf0c3e" target="_top" xlink:title="Update temperature readings for all sensors.">
<polygon fill="white" stroke="#666666" points="408,-304.5 296,-304.5 296,-274 408,-274 408,-304.5"/>
<text xml:space="preserve" text-anchor="start" x="304" y="-291" font-family="Helvetica,sans-Serif" font-size="10.00">TemperatureController</text>
<text xml:space="preserve" text-anchor="middle" x="352" y="-279.75" font-family="Helvetica,sans-Serif" font-size="10.00">::updateAllSensors</text>
</a>
</g>
</g>
<!-- Node1&#45;&gt;Node15 -->
<g id="edge17_Node000001_Node000015" class="edge">
<title>Node1&#45;&gt;Node15</title>
<g id="a_edge17_Node000001_Node000015"><a xlink:title=" ">
<path fill="none" stroke="#63b8ff" d="M831.15,-261.48C816.27,-265.68 799.28,-269.84 783.5,-272.25 650.03,-292.59 490.76,-292.7 408.42,-290.99"/>
<polygon fill="#63b8ff" stroke="#63b8ff" points="831.98,-264.89 840.6,-258.72 830.02,-258.17 831.98,-264.89"/>
</a>
</g>
</g>
<!-- Node16 -->
<g id="Node000016" class="node">
<title>Node16</title>
<g id="a_Node000016"><a xlink:href="class_alarm.html#abc87fe39e6a9b5beb9f09df780f67621" target="_top" xlink:title="Update alarm condition based on current measurement.">
<polygon fill="white" stroke="#666666" points="760.62,-116.88 642.62,-116.88 642.62,-97.62 760.62,-97.62 760.62,-116.88"/>
<text xml:space="preserve" text-anchor="middle" x="701.62" y="-103.38" font-family="Helvetica,sans-Serif" font-size="10.00">Alarm::updateCondition</text>
</a>
</g>
</g>
<!-- Node1&#45;&gt;Node16 -->
<g id="edge19_Node000001_Node000016" class="edge">
<title>Node1&#45;&gt;Node16</title>
<g id="a_edge19_Node000001_Node000016"><a xlink:title=" ">
<path fill="none" stroke="#63b8ff" d="M863.4,-227.78C849.91,-200.26 822.14,-151.86 783.5,-126.25 776.65,-121.71 768.84,-118.25 760.83,-115.61"/>
<polygon fill="#63b8ff" stroke="#63b8ff" points="860.22,-229.24 867.65,-236.79 866.55,-226.26 860.22,-229.24"/>
</a>
</g>
</g>
<!-- Node17 -->
<g id="Node000017" class="node">
<title>Node17</title>
<g id="a_Node000017"><a xlink:href="class_temp_modbus_server.html#a88b7288d622b52f9e28b7c6075b75fe0" target="_top" xlink:title="Worker function for Write Single Register (FC06)">
<polygon fill="white" stroke="#666666" points="783.12,-165.5 620.12,-165.5 620.12,-135 783.12,-135 783.12,-165.5"/>
<text xml:space="preserve" text-anchor="start" x="628.12" y="-152" font-family="Helvetica,sans-Serif" font-size="10.00">TempModbusServer::writeHolding</text>
<text xml:space="preserve" text-anchor="middle" x="701.62" y="-140.75" font-family="Helvetica,sans-Serif" font-size="10.00">RegisterWorker</text>
</a>
</g>
</g>
<!-- Node1&#45;&gt;Node17 -->
<g id="edge20_Node000001_Node000017" class="edge">
<title>Node1&#45;&gt;Node17</title>
<g id="a_edge20_Node000001_Node000017"><a xlink:title=" ">
<path fill="none" stroke="#63b8ff" d="M855.26,-230.51C838.31,-214.11 811.11,-190.08 783.5,-175.25 776.9,-171.7 769.72,-168.58 762.45,-165.84"/>
<polygon fill="#63b8ff" stroke="#63b8ff" points="852.49,-232.7 862.06,-237.24 857.41,-227.72 852.49,-232.7"/>
</a>
</g>
</g>
<!-- Node18 -->
<g id="Node000018" class="node">
<title>Node18</title>
<g id="a_Node000018"><a xlink:href="class_temp_modbus_server.html#a52236f3c77c42d126dcaee7515fa37d3" target="_top" xlink:title="Worker function for Write Multiple Registers (FC16)">
<polygon fill="white" stroke="#666666" points="783.5,-30.5 619.75,-30.5 619.75,0 783.5,0 783.5,-30.5"/>
<text xml:space="preserve" text-anchor="start" x="627.75" y="-17" font-family="Helvetica,sans-Serif" font-size="10.00">TempModbusServer::writeMultiple</text>
<text xml:space="preserve" text-anchor="middle" x="701.62" y="-5.75" font-family="Helvetica,sans-Serif" font-size="10.00">RegistersWorker</text>
</a>
</g>
</g>
<!-- Node1&#45;&gt;Node18 -->
<g id="edge22_Node000001_Node000018" class="edge">
<title>Node1&#45;&gt;Node18</title>
<g id="a_edge22_Node000001_Node000018"><a xlink:title=" ">
<path fill="none" stroke="#63b8ff" d="M869.54,-227.08C862.31,-185.21 840.39,-91.46 783.5,-40.25 779.46,-36.61 774.9,-33.5 770.05,-30.85"/>
<polygon fill="#63b8ff" stroke="#63b8ff" points="866.06,-227.48 871.09,-236.81 872.97,-226.38 866.06,-227.48"/>
</a>
</g>
</g>
<!-- Node3 -->
<g id="Node000003" class="node">
<title>Node3</title>
<g id="a_Node000003"><a xlink:href="class_config_manager.html#a0497343220fc493f5cf9574922508908" target="_top" xlink:title="Initialize the configuration system.">
<polygon fill="white" stroke="#666666" points="569.5,-482.88 458.25,-482.88 458.25,-463.62 569.5,-463.62 569.5,-482.88"/>
<text xml:space="preserve" text-anchor="middle" x="513.88" y="-469.38" font-family="Helvetica,sans-Serif" font-size="10.00">ConfigManager::begin</text>
</a>
</g>
</g>
<!-- Node2&#45;&gt;Node3 -->
<g id="edge2_Node000002_Node000003" class="edge">
<title>Node2&#45;&gt;Node3</title>
<g id="a_edge2_Node000002_Node000003"><a xlink:title=" ">
<path fill="none" stroke="#63b8ff" d="M623.92,-472.66C605.77,-472.76 586.76,-472.86 569.79,-472.95"/>
<polygon fill="#63b8ff" stroke="#63b8ff" points="623.9,-476.16 633.88,-472.61 623.87,-469.16 623.9,-476.16"/>
</a>
</g>
</g>
<!-- Node6 -->
<g id="Node000006" class="node">
<title>Node6</title>
<g id="a_Node000006"><a xlink:href="class_temperature_controller.html#a62b93899a3b8b55e2e0bd933520c2892" target="_top" xlink:title="Update register map with current values from measurement points.">
<polygon fill="white" stroke="#666666" points="408,-353.5 296,-353.5 296,-323 408,-323 408,-353.5"/>
<text xml:space="preserve" text-anchor="start" x="304" y="-340" font-family="Helvetica,sans-Serif" font-size="10.00">TemperatureController</text>
<text xml:space="preserve" text-anchor="middle" x="352" y="-328.75" font-family="Helvetica,sans-Serif" font-size="10.00">::updateRegisterMap</text>
</a>
</g>
</g>
<!-- Node5&#45;&gt;Node6 -->
<g id="edge5_Node000005_Node000006" class="edge">
<title>Node5&#45;&gt;Node6</title>
<g id="a_edge5_Node000005_Node000006"><a xlink:title=" ">
<path fill="none" stroke="#63b8ff" d="M446.05,-334.76C433.5,-335.23 420.52,-335.72 408.37,-336.17"/>
<polygon fill="#63b8ff" stroke="#63b8ff" points="446.03,-338.26 455.89,-334.39 445.77,-331.27 446.03,-338.26"/>
</a>
</g>
</g>
<!-- Node7 -->
<g id="Node000007" class="node">
<title>Node7</title>
<g id="a_Node000007"><a xlink:href="class_temperature_controller.html#aca5deddbf703001373424d876f87b5f2" target="_top" xlink:title="Main update function &#45; must be called in loop()">
<polygon fill="white" stroke="#666666" points="260,-328.5 148,-328.5 148,-298 260,-298 260,-328.5"/>
<text xml:space="preserve" text-anchor="start" x="156" y="-315" font-family="Helvetica,sans-Serif" font-size="10.00">TemperatureController</text>
<text xml:space="preserve" text-anchor="middle" x="204" y="-303.75" font-family="Helvetica,sans-Serif" font-size="10.00">::update</text>
</a>
</g>
</g>
<!-- Node6&#45;&gt;Node7 -->
<g id="edge6_Node000006_Node000007" class="edge">
<title>Node6&#45;&gt;Node7</title>
<g id="a_edge6_Node000006_Node000007"><a xlink:title=" ">
<path fill="none" stroke="#63b8ff" d="M284.47,-326.86C276.38,-325.47 268.18,-324.07 260.27,-322.71"/>
<polygon fill="#63b8ff" stroke="#63b8ff" points="283.86,-330.31 294.31,-328.54 285.05,-323.41 283.86,-330.31"/>
</a>
</g>
</g>
<!-- Node8 -->
<g id="Node000008" class="node">
<title>Node8</title>
<g id="a_Node000008"><a xlink:href="class_temperature_controller.html#a11948a87fe7df37543b86ecdd488b341" target="_top" xlink:title="Read temperature from all configured measurement points.">
<polygon fill="white" stroke="#666666" points="112,-328.5 0,-328.5 0,-298 112,-298 112,-328.5"/>
<text xml:space="preserve" text-anchor="start" x="8" y="-315" font-family="Helvetica,sans-Serif" font-size="10.00">TemperatureController</text>
<text xml:space="preserve" text-anchor="middle" x="56" y="-303.75" font-family="Helvetica,sans-Serif" font-size="10.00">::readAllPoints</text>
</a>
</g>
</g>
<!-- Node7&#45;&gt;Node8 -->
<g id="edge7_Node000007_Node000008" class="edge">
<title>Node7&#45;&gt;Node8</title>
<g id="a_edge7_Node000007_Node000008"><a xlink:title=" ">
<path fill="none" stroke="#63b8ff" d="M136.47,-306.52C128.38,-306.46 120.18,-306.52 112.27,-306.68"/>
<polygon fill="#63b8ff" stroke="#63b8ff" points="136.24,-310.02 146.29,-306.66 136.34,-303.02 136.24,-310.02"/>
</a>
</g>
</g>
<!-- Node8&#45;&gt;Node7 -->
<g id="edge8_Node000008_Node000007" class="edge">
<title>Node8&#45;&gt;Node7</title>
<g id="a_edge8_Node000008_Node000007"><a xlink:title=" ">
<path fill="none" stroke="#63b8ff" d="M123.61,-319.98C131.7,-320.04 139.9,-319.98 147.8,-319.82"/>
<polygon fill="#63b8ff" stroke="#63b8ff" points="123.84,-316.48 113.79,-319.84 123.74,-323.48 123.84,-316.48"/>
</a>
</g>
</g>
<!-- Node9&#45;&gt;Node4 -->
<g id="edge10_Node000009_Node000004" class="edge">
<title>Node9&#45;&gt;Node4</title>
<g id="a_edge10_Node000009_Node000004"><a xlink:title=" ">
<path fill="none" stroke="#63b8ff" d="M632.01,-399.35C611.64,-404.72 589.6,-410.54 570.2,-415.66"/>
<polygon fill="#63b8ff" stroke="#63b8ff" points="632.88,-402.74 641.66,-396.8 631.1,-395.97 632.88,-402.74"/>
</a>
</g>
</g>
<!-- Node10 -->
<g id="Node000010" class="node">
<title>Node10</title>
<g id="a_Node000010"><a xlink:href="class_temperature_controller.html#a20a14014a639f3390dba82a6cd39d067" target="_top" xlink:title="Get relay commanded state.">
<polygon fill="white" stroke="#666666" points="583.75,-396.5 444,-396.5 444,-366 583.75,-366 583.75,-396.5"/>
<text xml:space="preserve" text-anchor="start" x="452" y="-383" font-family="Helvetica,sans-Serif" font-size="10.00">TemperatureController</text>
<text xml:space="preserve" text-anchor="middle" x="513.88" y="-371.75" font-family="Helvetica,sans-Serif" font-size="10.00">::getRelayCommandedState</text>
</a>
</g>
</g>
<!-- Node9&#45;&gt;Node10 -->
<g id="edge11_Node000009_Node000010" class="edge">
<title>Node9&#45;&gt;Node10</title>
<g id="a_edge11_Node000009_Node000010"><a xlink:title=" ">
<path fill="none" stroke="#63b8ff" d="M631.97,-381.25C616.38,-381.25 599.8,-381.25 584.18,-381.25"/>
<polygon fill="#63b8ff" stroke="#63b8ff" points="631.61,-384.75 641.61,-381.25 631.61,-377.75 631.61,-384.75"/>
</a>
</g>
</g>
<!-- Node10&#45;&gt;Node6 -->
<g id="edge12_Node000010_Node000006" class="edge">
<title>Node10&#45;&gt;Node6</title>
<g id="a_edge12_Node000010_Node000006"><a xlink:title=" ">
<path fill="none" stroke="#63b8ff" d="M443.94,-362.71C432.09,-359.52 419.9,-356.24 408.46,-353.17"/>
<polygon fill="#63b8ff" stroke="#63b8ff" points="442.68,-365.99 453.24,-365.21 444.49,-359.23 442.68,-365.99"/>
</a>
</g>
</g>
<!-- Node12 -->
<g id="Node000012" class="node">
<title>Node12</title>
<g id="a_Node000012"><a xlink:href="class_temp_modbus_server.html#aac671b84770f4139745d08d05b5c1d92" target="_top" xlink:title="Initialize and start Modbus server.">
<polygon fill="white" stroke="#666666" points="580,-73.88 447.75,-73.88 447.75,-54.62 580,-54.62 580,-73.88"/>
<text xml:space="preserve" text-anchor="middle" x="513.88" y="-60.38" font-family="Helvetica,sans-Serif" font-size="10.00">TempModbusServer::begin</text>
</a>
</g>
</g>
<!-- Node11&#45;&gt;Node12 -->
<g id="edge14_Node000011_Node000012" class="edge">
<title>Node11&#45;&gt;Node12</title>
<g id="a_edge14_Node000011_Node000012"><a xlink:title=" ">
<path fill="none" stroke="#63b8ff" d="M609.34,-64.25C599.58,-64.25 589.79,-64.25 580.4,-64.25"/>
<polygon fill="#63b8ff" stroke="#63b8ff" points="609.26,-67.75 619.26,-64.25 609.26,-60.75 609.26,-67.75"/>
</a>
</g>
</g>
<!-- Node15&#45;&gt;Node7 -->
<g id="edge18_Node000015_Node000007" class="edge">
<title>Node15&#45;&gt;Node7</title>
<g id="a_edge18_Node000015_Node000007"><a xlink:title=" ">
<path fill="none" stroke="#63b8ff" d="M284.47,-300.19C276.38,-301.52 268.18,-302.86 260.27,-304.16"/>
<polygon fill="#63b8ff" stroke="#63b8ff" points="285.01,-303.64 294.31,-298.57 283.87,-296.74 285.01,-303.64"/>
</a>
</g>
</g>
<!-- Node17&#45;&gt;Node12 -->
<g id="edge21_Node000017_Node000012" class="edge">
<title>Node17&#45;&gt;Node12</title>
<g id="a_edge21_Node000017_Node000012"><a xlink:title=" ">
<path fill="none" stroke="#63b8ff" d="M630.88,-130.76C627.08,-129.32 623.35,-127.82 619.75,-126.25 585.63,-111.37 548.85,-87.65 529.2,-74.27"/>
<polygon fill="#63b8ff" stroke="#63b8ff" points="629.68,-134.05 640.28,-134.11 632.03,-127.45 629.68,-134.05"/>
</a>
</g>
</g>
<!-- Node18&#45;&gt;Node12 -->
<g id="edge23_Node000018_Node000012" class="edge">
<title>Node18&#45;&gt;Node12</title>
<g id="a_edge23_Node000018_Node000012"><a xlink:title=" ">
<path fill="none" stroke="#63b8ff" d="M630.06,-33.87C603.9,-40.77 575.24,-48.33 553.05,-54.18"/>
<polygon fill="#63b8ff" stroke="#63b8ff" points="630.85,-37.28 639.62,-31.34 629.06,-30.51 630.85,-37.28"/>
</a>
</g>
</g>
</g>
</svg>
