<?xml version="1.0" encoding="UTF-8" standalone="no"?>
<!DOCTYPE svg PUBLIC "-//W3C//DTD SVG 1.1//EN"
 "http://www.w3.org/Graphics/SVG/1.1/DTD/svg11.dtd">
<!-- Generated by graphviz version 13.1.0 (20250701.0955)
 -->
<!-- Title: TemperatureController::handleAlarmDisplay Pages: 1 -->
<svg width="1151pt" height="566pt"
 viewBox="0.00 0.00 1151.00 566.00" xmlns="http://www.w3.org/2000/svg" xmlns:xlink="http://www.w3.org/1999/xlink">
<g id="graph0" class="graph" transform="scale(1 1) rotate(0) translate(4 561.5)">
<title>TemperatureController::handleAlarmDisplay</title>
<!-- Node1 -->
<g id="Node000001" class="node">
<title>Node1</title>
<g id="a_Node000001"><a xlink:title="Handle alarm display on OLED/LEDs.">
<polygon fill="#999999" stroke="#666666" points="112,-421.5 0,-421.5 0,-391 112,-391 112,-421.5"/>
<text xml:space="preserve" text-anchor="start" x="8" y="-408" font-family="Helvetica,sans-Serif" font-size="10.00">TemperatureController</text>
<text xml:space="preserve" text-anchor="middle" x="56" y="-396.75" font-family="Helvetica,sans-Serif" font-size="10.00">::handleAlarmDisplay</text>
</a>
</g>
</g>
<!-- Node2 -->
<g id="Node000002" class="node">
<title>Node2</title>
<g id="a_Node000002"><a xlink:href="class_temperature_controller.html#a1228b63e95f26c21a8d9c2a27928bc75" target="_top" xlink:title="Check for button press and handle acknowledgment.">
<polygon fill="white" stroke="#666666" points="267.5,-458.5 155.5,-458.5 155.5,-428 267.5,-428 267.5,-458.5"/>
<text xml:space="preserve" text-anchor="start" x="163.5" y="-445" font-family="Helvetica,sans-Serif" font-size="10.00">TemperatureController</text>
<text xml:space="preserve" text-anchor="middle" x="211.5" y="-433.75" font-family="Helvetica,sans-Serif" font-size="10.00">::_checkButtonPress</text>
</a>
</g>
</g>
<!-- Node1&#45;&gt;Node2 -->
<g id="edge1_Node000001_Node000002" class="edge">
<title>Node1&#45;&gt;Node2</title>
<g id="a_edge1_Node000001_Node000002"><a xlink:title=" ">
<path fill="none" stroke="#63b8ff" d="M112.42,-419.61C122.74,-422.1 133.63,-424.72 144.24,-427.28"/>
<polygon fill="#63b8ff" stroke="#63b8ff" points="143.15,-430.62 153.69,-429.56 144.79,-423.81 143.15,-430.62"/>
</a>
</g>
</g>
<!-- Node4 -->
<g id="Node000004" class="node">
<title>Node4</title>
<g id="a_Node000004"><a xlink:href="class_temperature_controller.html#a6b2f92b5c2af867240200cff2e61e806" target="_top" xlink:title="Handle display section switching.">
<polygon fill="white" stroke="#666666" points="275,-397.5 148,-397.5 148,-367 275,-367 275,-397.5"/>
<text xml:space="preserve" text-anchor="start" x="156" y="-384" font-family="Helvetica,sans-Serif" font-size="10.00">TemperatureController</text>
<text xml:space="preserve" text-anchor="middle" x="211.5" y="-372.75" font-family="Helvetica,sans-Serif" font-size="10.00">::_handleDisplaySections</text>
</a>
</g>
</g>
<!-- Node1&#45;&gt;Node4 -->
<g id="edge3_Node000001_Node000004" class="edge">
<title>Node1&#45;&gt;Node4</title>
<g id="a_edge3_Node000001_Node000004"><a xlink:title=" ">
<path fill="none" stroke="#63b8ff" d="M112.42,-397.59C120.18,-396.37 128.26,-395.11 136.3,-393.85"/>
<polygon fill="#63b8ff" stroke="#63b8ff" points="136.77,-397.32 146.11,-392.32 135.69,-390.4 136.77,-397.32"/>
</a>
</g>
</g>
<!-- Node3 -->
<g id="Node000003" class="node">
<title>Node3</title>
<g id="a_Node000003"><a xlink:href="class_temperature_controller.html#a3955f205bc33dda762cbe5c572cd4f21" target="_top" xlink:title="Switch to a new display section.">
<polygon fill="white" stroke="#666666" points="638.12,-471.5 526.12,-471.5 526.12,-441 638.12,-441 638.12,-471.5"/>
<text xml:space="preserve" text-anchor="start" x="534.12" y="-458" font-family="Helvetica,sans-Serif" font-size="10.00">TemperatureController</text>
<text xml:space="preserve" text-anchor="middle" x="582.12" y="-446.75" font-family="Helvetica,sans-Serif" font-size="10.00">::_switchToSection</text>
</a>
</g>
</g>
<!-- Node2&#45;&gt;Node3 -->
<g id="edge2_Node000002_Node000003" class="edge">
<title>Node2&#45;&gt;Node3</title>
<g id="a_edge2_Node000002_Node000003"><a xlink:title=" ">
<path fill="none" stroke="#63b8ff" d="M267.69,-445.2C333.61,-447.52 443.82,-451.41 514.45,-453.9"/>
<polygon fill="#63b8ff" stroke="#63b8ff" points="514.23,-457.39 524.35,-454.25 514.48,-450.4 514.23,-457.39"/>
</a>
</g>
</g>
<!-- Node4&#45;&gt;Node3 -->
<g id="edge24_Node000004_Node000003" class="edge">
<title>Node4&#45;&gt;Node3</title>
<g id="a_edge24_Node000004_Node000003"><a xlink:title=" ">
<path fill="none" stroke="#63b8ff" d="M275.45,-394.89C342.07,-408.26 446.76,-429.28 514.68,-442.91"/>
<polygon fill="#63b8ff" stroke="#63b8ff" points="513.69,-446.28 524.18,-444.82 515.07,-439.42 513.69,-446.28"/>
</a>
</g>
</g>
<!-- Node5 -->
<g id="Node000005" class="node">
<title>Node5</title>
<g id="a_Node000005"><a xlink:href="class_temperature_controller.html#a1d2745c323f7094beac8f406825499b7" target="_top" xlink:title="Handle alarm display rotation timing.">
<polygon fill="white" stroke="#666666" points="462,-128.5 311,-128.5 311,-98 462,-98 462,-128.5"/>
<text xml:space="preserve" text-anchor="start" x="319" y="-115" font-family="Helvetica,sans-Serif" font-size="10.00">TemperatureController</text>
<text xml:space="preserve" text-anchor="middle" x="386.5" y="-103.75" font-family="Helvetica,sans-Serif" font-size="10.00">::_handleAlarmDisplayRotation</text>
</a>
</g>
</g>
<!-- Node4&#45;&gt;Node5 -->
<g id="edge4_Node000004_Node000005" class="edge">
<title>Node4&#45;&gt;Node5</title>
<g id="a_edge4_Node000004_Node000005"><a xlink:title=" ">
<path fill="none" stroke="#63b8ff" d="M222.15,-366.56C239.63,-338.21 277.82,-276.6 311,-225.25 330.45,-195.14 353.36,-160.88 368.59,-138.26"/>
<polygon fill="#63b8ff" stroke="#63b8ff" points="371.47,-140.25 374.16,-130 365.66,-136.33 371.47,-140.25"/>
</a>
</g>
</g>
<!-- Node9 -->
<g id="Node000009" class="node">
<title>Node9</title>
<g id="a_Node000009"><a xlink:href="class_temperature_controller.html#a4d36576f7d6ab8f5222a082878314912" target="_top" xlink:title="Update normal temperature display.">
<polygon fill="white" stroke="#666666" points="642.62,-177.5 521.62,-177.5 521.62,-147 642.62,-147 642.62,-177.5"/>
<text xml:space="preserve" text-anchor="start" x="529.62" y="-164" font-family="Helvetica,sans-Serif" font-size="10.00">TemperatureController</text>
<text xml:space="preserve" text-anchor="middle" x="582.12" y="-152.75" font-family="Helvetica,sans-Serif" font-size="10.00">::_updateNormalDisplay</text>
</a>
</g>
</g>
<!-- Node4&#45;&gt;Node9 -->
<g id="edge28_Node000004_Node000009" class="edge">
<title>Node4&#45;&gt;Node9</title>
<g id="a_edge28_Node000004_Node000009"><a xlink:title=" ">
<path fill="none" stroke="#63b8ff" d="M230.97,-366.59C274.65,-330.26 388.87,-239.39 498,-187.25 502.02,-185.33 506.21,-183.52 510.49,-181.82"/>
<polygon fill="#63b8ff" stroke="#63b8ff" points="511.68,-185.12 519.83,-178.36 509.24,-178.56 511.68,-185.12"/>
</a>
</g>
</g>
<!-- Node10 -->
<g id="Node000010" class="node">
<title>Node10</title>
<g id="a_Node000010"><a xlink:href="class_temperature_controller.html#a45f7994a3a052a527981dbfdad27606b" target="_top" xlink:title="Handle system status mode display.">
<polygon fill="white" stroke="#666666" points="457.5,-373.5 315.5,-373.5 315.5,-343 457.5,-343 457.5,-373.5"/>
<text xml:space="preserve" text-anchor="start" x="323.5" y="-360" font-family="Helvetica,sans-Serif" font-size="10.00">TemperatureController</text>
<text xml:space="preserve" text-anchor="middle" x="386.5" y="-348.75" font-family="Helvetica,sans-Serif" font-size="10.00">::_handleSystemStatusMode</text>
</a>
</g>
</g>
<!-- Node4&#45;&gt;Node10 -->
<g id="edge9_Node000004_Node000010" class="edge">
<title>Node4&#45;&gt;Node10</title>
<g id="a_edge9_Node000004_Node000010"><a xlink:title=" ">
<path fill="none" stroke="#63b8ff" d="M275.45,-373.52C284.75,-372.23 294.45,-370.88 304.06,-369.55"/>
<polygon fill="#63b8ff" stroke="#63b8ff" points="304.36,-373.04 313.79,-368.2 303.4,-366.11 304.36,-373.04"/>
</a>
</g>
</g>
<!-- Node24 -->
<g id="Node000024" class="node">
<title>Node24</title>
<g id="a_Node000024"><a xlink:href="class_temperature_controller.html#a477597992aa9362076843f37b648741a" target="_top" xlink:title="Update alarm display queues.">
<polygon fill="white" stroke="#666666" points="444.38,-514.5 328.62,-514.5 328.62,-484 444.38,-484 444.38,-514.5"/>
<text xml:space="preserve" text-anchor="start" x="336.62" y="-501" font-family="Helvetica,sans-Serif" font-size="10.00">TemperatureController</text>
<text xml:space="preserve" text-anchor="middle" x="386.5" y="-489.75" font-family="Helvetica,sans-Serif" font-size="10.00">::_updateAlarmQueues</text>
</a>
</g>
</g>
<!-- Node4&#45;&gt;Node24 -->
<g id="edge25_Node000004_Node000024" class="edge">
<title>Node4&#45;&gt;Node24</title>
<g id="a_edge25_Node000004_Node000024"><a xlink:title=" ">
<path fill="none" stroke="#63b8ff" d="M240.22,-397.92C251.19,-404.31 263.82,-411.92 275,-419.25 303.12,-437.7 334.04,-460.29 356,-476.76"/>
<polygon fill="#63b8ff" stroke="#63b8ff" points="353.82,-479.5 363.92,-482.72 358.04,-473.91 353.82,-479.5"/>
</a>
</g>
</g>
<!-- Node6 -->
<g id="Node000006" class="node">
<title>Node6</title>
<g id="a_Node000006"><a xlink:href="class_temperature_controller.html#ac44de0834e13cec755e247ce1df21f09" target="_top" xlink:title="Display next acknowledged alarm.">
<polygon fill="white" stroke="#666666" points="666.25,-79.5 498,-79.5 498,-49 666.25,-49 666.25,-79.5"/>
<text xml:space="preserve" text-anchor="start" x="506" y="-66" font-family="Helvetica,sans-Serif" font-size="10.00">TemperatureController</text>
<text xml:space="preserve" text-anchor="middle" x="582.12" y="-54.75" font-family="Helvetica,sans-Serif" font-size="10.00">::_displayNextAcknowledgedAlarm</text>
</a>
</g>
</g>
<!-- Node5&#45;&gt;Node6 -->
<g id="edge5_Node000005_Node000006" class="edge">
<title>Node5&#45;&gt;Node6</title>
<g id="a_edge5_Node000005_Node000006"><a xlink:title=" ">
<path fill="none" stroke="#63b8ff" d="M449.56,-97.54C468.15,-92.84 488.7,-87.64 507.94,-82.77"/>
<polygon fill="#63b8ff" stroke="#63b8ff" points="508.78,-86.17 517.61,-80.32 507.06,-79.38 508.78,-86.17"/>
</a>
</g>
</g>
<!-- Node7 -->
<g id="Node000007" class="node">
<title>Node7</title>
<g id="a_Node000007"><a xlink:href="class_temperature_controller.html#a7ca5124357f98bcd52316cf017341b09" target="_top" xlink:title="Display next active alarm in rotation.">
<polygon fill="white" stroke="#666666" points="648.25,-30.5 516,-30.5 516,0 648.25,0 648.25,-30.5"/>
<text xml:space="preserve" text-anchor="start" x="524" y="-17" font-family="Helvetica,sans-Serif" font-size="10.00">TemperatureController</text>
<text xml:space="preserve" text-anchor="middle" x="582.12" y="-5.75" font-family="Helvetica,sans-Serif" font-size="10.00">::_displayNextActiveAlarm</text>
</a>
</g>
</g>
<!-- Node5&#45;&gt;Node7 -->
<g id="edge6_Node000005_Node000007" class="edge">
<title>Node5&#45;&gt;Node7</title>
<g id="a_edge6_Node000005_Node000007"><a xlink:title=" ">
<path fill="none" stroke="#63b8ff" d="M407.22,-97.64C428.54,-81.39 464.06,-56.14 498,-40.25 502.03,-38.36 506.24,-36.58 510.53,-34.9"/>
<polygon fill="#63b8ff" stroke="#63b8ff" points="511.7,-38.19 519.88,-31.46 509.29,-31.62 511.7,-38.19"/>
</a>
</g>
</g>
<!-- Node8 -->
<g id="Node000008" class="node">
<title>Node8</title>
<g id="a_Node000008"><a xlink:href="class_temperature_controller.html#a28e81945f5235e161e6c532b428d36d2" target="_top" xlink:title="Show OK status and turn off OLED after delay.">
<polygon fill="white" stroke="#666666" points="653.12,-128.5 511.12,-128.5 511.12,-98 653.12,-98 653.12,-128.5"/>
<text xml:space="preserve" text-anchor="start" x="519.12" y="-115" font-family="Helvetica,sans-Serif" font-size="10.00">TemperatureController</text>
<text xml:space="preserve" text-anchor="middle" x="582.12" y="-103.75" font-family="Helvetica,sans-Serif" font-size="10.00">::_showOKAndTurnOffOLED</text>
</a>
</g>
</g>
<!-- Node5&#45;&gt;Node8 -->
<g id="edge7_Node000005_Node000008" class="edge">
<title>Node5&#45;&gt;Node8</title>
<g id="a_edge7_Node000005_Node000008"><a xlink:title=" ">
<path fill="none" stroke="#63b8ff" d="M462.36,-113.25C474.58,-113.25 487.3,-113.25 499.67,-113.25"/>
<polygon fill="#63b8ff" stroke="#63b8ff" points="499.39,-116.75 509.39,-113.25 499.39,-109.75 499.39,-116.75"/>
</a>
</g>
</g>
<!-- Node5&#45;&gt;Node9 -->
<g id="edge8_Node000005_Node000009" class="edge">
<title>Node5&#45;&gt;Node9</title>
<g id="a_edge8_Node000005_Node000009"><a xlink:title=" ">
<path fill="none" stroke="#63b8ff" d="M449.56,-128.96C468.98,-133.87 490.54,-139.33 510.5,-144.38"/>
<polygon fill="#63b8ff" stroke="#63b8ff" points="509.37,-147.7 519.93,-146.76 511.09,-140.92 509.37,-147.7"/>
</a>
</g>
</g>
<!-- Node10&#45;&gt;Node3 -->
<g id="edge23_Node000010_Node000003" class="edge">
<title>Node10&#45;&gt;Node3</title>
<g id="a_edge23_Node000010_Node000003"><a xlink:title=" ">
<path fill="none" stroke="#63b8ff" d="M428.09,-373.99C439.55,-379.3 451.69,-385.8 462,-393.25 480.86,-406.88 478.19,-419.04 498,-431.25 503.42,-434.59 509.32,-437.51 515.4,-440.06"/>
<polygon fill="#63b8ff" stroke="#63b8ff" points="513.71,-443.16 524.31,-443.46 516.21,-436.62 513.71,-443.16"/>
</a>
</g>
</g>
<!-- Node11 -->
<g id="Node000011" class="node">
<title>Node11</title>
<g id="a_Node000011"><a xlink:href="class_temperature_controller.html#a3948ceaf046b5f06afcc9083433f532c" target="_top" xlink:title="Display alarm summary by priority.">
<polygon fill="white" stroke="#666666" points="666.25,-373.5 498,-373.5 498,-343 666.25,-343 666.25,-373.5"/>
<text xml:space="preserve" text-anchor="start" x="506" y="-360" font-family="Helvetica,sans-Serif" font-size="10.00">TemperatureController</text>
<text xml:space="preserve" text-anchor="middle" x="582.12" y="-348.75" font-family="Helvetica,sans-Serif" font-size="10.00">::_displayAlarmSummaryByPriority</text>
</a>
</g>
</g>
<!-- Node10&#45;&gt;Node11 -->
<g id="edge10_Node000010_Node000011" class="edge">
<title>Node10&#45;&gt;Node11</title>
<g id="a_edge10_Node000010_Node000011"><a xlink:title=" ">
<path fill="none" stroke="#63b8ff" d="M457.95,-358.25C467.1,-358.25 476.59,-358.25 486.05,-358.25"/>
<polygon fill="#63b8ff" stroke="#63b8ff" points="486.05,-361.75 496.05,-358.25 486.05,-354.75 486.05,-361.75"/>
</a>
</g>
</g>
<!-- Node13 -->
<g id="Node000013" class="node">
<title>Node13</title>
<g id="a_Node000013"><a xlink:href="class_temperature_controller.html#ab5e076b045677678390603e9a805e4db" target="_top" xlink:title="Display alarm summary by type.">
<polygon fill="white" stroke="#666666" points="661.38,-324.5 502.88,-324.5 502.88,-294 661.38,-294 661.38,-324.5"/>
<text xml:space="preserve" text-anchor="start" x="510.88" y="-311" font-family="Helvetica,sans-Serif" font-size="10.00">TemperatureController</text>
<text xml:space="preserve" text-anchor="middle" x="582.12" y="-299.75" font-family="Helvetica,sans-Serif" font-size="10.00">::_displayAlarmSummaryByType</text>
</a>
</g>
</g>
<!-- Node10&#45;&gt;Node13 -->
<g id="edge12_Node000010_Node000013" class="edge">
<title>Node10&#45;&gt;Node13</title>
<g id="a_edge12_Node000010_Node000013"><a xlink:title=" ">
<path fill="none" stroke="#63b8ff" d="M449.56,-342.54C468.15,-337.84 488.7,-332.64 507.94,-327.77"/>
<polygon fill="#63b8ff" stroke="#63b8ff" points="508.78,-331.17 517.61,-325.32 507.06,-324.38 508.78,-331.17"/>
</a>
</g>
</g>
<!-- Node14 -->
<g id="Node000014" class="node">
<title>Node14</title>
<g id="a_Node000014"><a xlink:href="class_temperature_controller.html#a5fc773a967cea261f21bbe86d90d2586" target="_top" xlink:title="Display Modbus status page.">
<polygon fill="white" stroke="#666666" points="642.62,-275.5 521.62,-275.5 521.62,-245 642.62,-245 642.62,-275.5"/>
<text xml:space="preserve" text-anchor="start" x="529.62" y="-262" font-family="Helvetica,sans-Serif" font-size="10.00">TemperatureController</text>
<text xml:space="preserve" text-anchor="middle" x="582.12" y="-250.75" font-family="Helvetica,sans-Serif" font-size="10.00">::_displayModbusStatus</text>
</a>
</g>
</g>
<!-- Node10&#45;&gt;Node14 -->
<g id="edge13_Node000010_Node000014" class="edge">
<title>Node10&#45;&gt;Node14</title>
<g id="a_edge13_Node000010_Node000014"><a xlink:title=" ">
<path fill="none" stroke="#63b8ff" d="M407.22,-342.64C428.54,-326.39 464.06,-301.14 498,-285.25 502.03,-283.36 506.24,-281.58 510.53,-279.9"/>
<polygon fill="#63b8ff" stroke="#63b8ff" points="511.7,-283.19 519.88,-276.46 509.29,-276.62 511.7,-283.19"/>
</a>
</g>
</g>
<!-- Node15 -->
<g id="Node000015" class="node">
<title>Node15</title>
<g id="a_Node000015"><a xlink:href="class_temperature_controller.html#a2436c7043d97ca75c717db2b87326d90" target="_top" xlink:title="Display network info page.">
<polygon fill="white" stroke="#666666" points="638.12,-226.5 526.12,-226.5 526.12,-196 638.12,-196 638.12,-226.5"/>
<text xml:space="preserve" text-anchor="start" x="534.12" y="-213" font-family="Helvetica,sans-Serif" font-size="10.00">TemperatureController</text>
<text xml:space="preserve" text-anchor="middle" x="582.12" y="-201.75" font-family="Helvetica,sans-Serif" font-size="10.00">::_displayNetworkInfo</text>
</a>
</g>
</g>
<!-- Node10&#45;&gt;Node15 -->
<g id="edge14_Node000010_Node000015" class="edge">
<title>Node10&#45;&gt;Node15</title>
<g id="a_edge14_Node000010_Node000015"><a xlink:title=" ">
<path fill="none" stroke="#63b8ff" d="M397.41,-342.66C414.69,-316.73 452.82,-264.79 498,-236.25 503.47,-232.8 509.44,-229.8 515.59,-227.2"/>
<polygon fill="#63b8ff" stroke="#63b8ff" points="516.56,-230.57 524.65,-223.73 514.05,-224.04 516.56,-230.57"/>
</a>
</g>
</g>
<!-- Node16 -->
<g id="Node000016" class="node">
<title>Node16</title>
<g id="a_Node000016"><a xlink:href="class_temperature_controller.html#a45d13ed72fd36b46820af631e4db958b" target="_top" xlink:title="Display system stats page.">
<polygon fill="white" stroke="#666666" points="639.62,-422.5 524.62,-422.5 524.62,-392 639.62,-392 639.62,-422.5"/>
<text xml:space="preserve" text-anchor="start" x="532.62" y="-409" font-family="Helvetica,sans-Serif" font-size="10.00">TemperatureController</text>
<text xml:space="preserve" text-anchor="middle" x="582.12" y="-397.75" font-family="Helvetica,sans-Serif" font-size="10.00">::_displaySystemStats</text>
</a>
</g>
</g>
<!-- Node10&#45;&gt;Node16 -->
<g id="edge15_Node000010_Node000016" class="edge">
<title>Node10&#45;&gt;Node16</title>
<g id="a_edge15_Node000010_Node000016"><a xlink:title=" ">
<path fill="none" stroke="#63b8ff" d="M449.56,-373.96C469.91,-379.11 492.62,-384.85 513.36,-390.1"/>
<polygon fill="#63b8ff" stroke="#63b8ff" points="512.31,-393.45 522.87,-392.51 514.03,-386.66 512.31,-393.45"/>
</a>
</g>
</g>
<!-- Node12 -->
<g id="Node000012" class="node">
<title>Node12</title>
<g id="a_Node000012"><a xlink:href="class_temperature_controller.html#a3022c7a72adb45a7800d5189eecdac4e" target="_top" xlink:title="Get total number of configured alarms.">
<polygon fill="white" stroke="#666666" points="814.25,-348.5 702.25,-348.5 702.25,-318 814.25,-318 814.25,-348.5"/>
<text xml:space="preserve" text-anchor="start" x="710.25" y="-335" font-family="Helvetica,sans-Serif" font-size="10.00">TemperatureController</text>
<text xml:space="preserve" text-anchor="middle" x="758.25" y="-323.75" font-family="Helvetica,sans-Serif" font-size="10.00">::getAlarmCount</text>
</a>
</g>
</g>
<!-- Node11&#45;&gt;Node12 -->
<g id="edge11_Node000011_Node000012" class="edge">
<title>Node11&#45;&gt;Node12</title>
<g id="a_edge11_Node000011_Node000012"><a xlink:title=" ">
<path fill="none" stroke="#63b8ff" d="M666.62,-346.26C674.71,-345.1 682.84,-343.93 690.74,-342.8"/>
<polygon fill="#63b8ff" stroke="#63b8ff" points="691.2,-346.27 700.6,-341.38 690.21,-339.34 691.2,-346.27"/>
</a>
</g>
</g>
<!-- Node17 -->
<g id="Node000017" class="node">
<title>Node17</title>
<g id="a_Node000017"><a xlink:href="class_temperature_controller.html#a9b4fe09d4c87dcf86e78b890012e1e72" target="_top" xlink:title="Get sensor bound to measurement point.">
<polygon fill="white" stroke="#666666" points="814.25,-495.5 702.25,-495.5 702.25,-465 814.25,-465 814.25,-495.5"/>
<text xml:space="preserve" text-anchor="start" x="710.25" y="-482" font-family="Helvetica,sans-Serif" font-size="10.00">TemperatureController</text>
<text xml:space="preserve" text-anchor="middle" x="758.25" y="-470.75" font-family="Helvetica,sans-Serif" font-size="10.00">::getBoundSensor</text>
</a>
</g>
</g>
<!-- Node16&#45;&gt;Node17 -->
<g id="edge16_Node000016_Node000017" class="edge">
<title>Node16&#45;&gt;Node17</title>
<g id="a_edge16_Node000016_Node000017"><a xlink:title=" ">
<path fill="none" stroke="#63b8ff" d="M639.8,-421.99C648.8,-424.99 657.9,-428.42 666.25,-432.25 683.51,-440.17 685.57,-446.19 702.25,-455.25 704.92,-456.7 707.7,-458.15 710.51,-459.56"/>
<polygon fill="#63b8ff" stroke="#63b8ff" points="708.91,-462.68 719.44,-463.9 711.97,-456.38 708.91,-462.68"/>
</a>
</g>
</g>
<!-- Node22 -->
<g id="Node000022" class="node">
<title>Node22</title>
<g id="a_Node000022"><a xlink:href="class_temperature_controller.html#a9ac5f76def1895a8c8f8f92ce8cd2e5c" target="_top" xlink:title="Get count of discovered DS18B20 sensors.">
<polygon fill="white" stroke="#666666" points="814.25,-446.5 702.25,-446.5 702.25,-416 814.25,-416 814.25,-446.5"/>
<text xml:space="preserve" text-anchor="start" x="710.25" y="-433" font-family="Helvetica,sans-Serif" font-size="10.00">TemperatureController</text>
<text xml:space="preserve" text-anchor="middle" x="758.25" y="-421.75" font-family="Helvetica,sans-Serif" font-size="10.00">::getDS18B20Count</text>
</a>
</g>
</g>
<!-- Node16&#45;&gt;Node22 -->
<g id="edge21_Node000016_Node000022" class="edge">
<title>Node16&#45;&gt;Node22</title>
<g id="a_edge21_Node000016_Node000022"><a xlink:title=" ">
<path fill="none" stroke="#63b8ff" d="M639.66,-415.04C656.03,-417.3 674.05,-419.78 690.97,-422.11"/>
<polygon fill="#63b8ff" stroke="#63b8ff" points="690.01,-425.51 700.39,-423.41 690.96,-418.58 690.01,-425.51"/>
</a>
</g>
</g>
<!-- Node23 -->
<g id="Node000023" class="node">
<title>Node23</title>
<g id="a_Node000023"><a xlink:href="class_temperature_controller.html#a6ab2ecc10c283d75d948ce6f1ad723a6" target="_top" xlink:title="Get count of discovered PT1000 sensors.">
<polygon fill="white" stroke="#666666" points="814.25,-397.5 702.25,-397.5 702.25,-367 814.25,-367 814.25,-397.5"/>
<text xml:space="preserve" text-anchor="start" x="710.25" y="-384" font-family="Helvetica,sans-Serif" font-size="10.00">TemperatureController</text>
<text xml:space="preserve" text-anchor="middle" x="758.25" y="-372.75" font-family="Helvetica,sans-Serif" font-size="10.00">::getPT1000Count</text>
</a>
</g>
</g>
<!-- Node16&#45;&gt;Node23 -->
<g id="edge22_Node000016_Node000023" class="edge">
<title>Node16&#45;&gt;Node23</title>
<g id="a_edge22_Node000016_Node000023"><a xlink:title=" ">
<path fill="none" stroke="#63b8ff" d="M639.66,-399.13C656.03,-396.78 674.05,-394.19 690.97,-391.77"/>
<polygon fill="#63b8ff" stroke="#63b8ff" points="690.99,-395.3 700.39,-390.41 690,-388.37 690.99,-395.3"/>
</a>
</g>
</g>
<!-- Node18 -->
<g id="Node000018" class="node">
<title>Node18</title>
<g id="a_Node000018"><a xlink:href="class_measurement_point.html#a81c7ae93a9314344967d0f31c6fefe2f" target="_top" xlink:title="Get pointer to bound sensor.">
<polygon fill="white" stroke="#666666" points="995.25,-519.5 850.25,-519.5 850.25,-489 995.25,-489 995.25,-519.5"/>
<text xml:space="preserve" text-anchor="start" x="858.25" y="-506" font-family="Helvetica,sans-Serif" font-size="10.00">MeasurementPoint::getBound</text>
<text xml:space="preserve" text-anchor="middle" x="922.75" y="-494.75" font-family="Helvetica,sans-Serif" font-size="10.00">Sensor</text>
</a>
</g>
</g>
<!-- Node17&#45;&gt;Node18 -->
<g id="edge17_Node000017_Node000018" class="edge">
<title>Node17&#45;&gt;Node18</title>
<g id="a_edge17_Node000017_Node000018"><a xlink:title=" ">
<path fill="none" stroke="#63b8ff" d="M814.72,-488.44C822.41,-489.58 830.44,-490.76 838.49,-491.95"/>
<polygon fill="#63b8ff" stroke="#63b8ff" points="837.96,-495.41 848.37,-493.41 838.99,-488.49 837.96,-495.41"/>
</a>
</g>
</g>
<!-- Node19 -->
<g id="Node000019" class="node">
<title>Node19</title>
<g id="a_Node000019"><a xlink:href="class_temperature_controller.html#a494f057c234b4ff7526bde271aec9267" target="_top" xlink:title="Get measurement point by address.">
<polygon fill="white" stroke="#666666" points="981.38,-470.5 864.12,-470.5 864.12,-440 981.38,-440 981.38,-470.5"/>
<text xml:space="preserve" text-anchor="start" x="872.12" y="-457" font-family="Helvetica,sans-Serif" font-size="10.00">TemperatureController</text>
<text xml:space="preserve" text-anchor="middle" x="922.75" y="-445.75" font-family="Helvetica,sans-Serif" font-size="10.00">::getMeasurementPoint</text>
</a>
</g>
</g>
<!-- Node17&#45;&gt;Node19 -->
<g id="edge18_Node000017_Node000019" class="edge">
<title>Node17&#45;&gt;Node19</title>
<g id="a_edge18_Node000017_Node000019"><a xlink:title=" ">
<path fill="none" stroke="#63b8ff" d="M814.72,-471.72C826.95,-469.83 840.05,-467.82 852.74,-465.87"/>
<polygon fill="#63b8ff" stroke="#63b8ff" points="852.91,-469.38 862.27,-464.4 851.85,-462.46 852.91,-469.38"/>
</a>
</g>
</g>
<!-- Node20 -->
<g id="Node000020" class="node">
<title>Node20</title>
<g id="a_Node000020"><a xlink:href="class_temperature_controller.html#ad322a5bab8d5788a586206004248f673" target="_top" xlink:title="Check if address is for DS18B20 sensor.">
<polygon fill="white" stroke="#666666" points="1143.25,-495.5 1031.25,-495.5 1031.25,-465 1143.25,-465 1143.25,-495.5"/>
<text xml:space="preserve" text-anchor="start" x="1039.25" y="-482" font-family="Helvetica,sans-Serif" font-size="10.00">TemperatureController</text>
<text xml:space="preserve" text-anchor="middle" x="1087.25" y="-470.75" font-family="Helvetica,sans-Serif" font-size="10.00">::isDS18B20Address</text>
</a>
</g>
</g>
<!-- Node19&#45;&gt;Node20 -->
<g id="edge19_Node000019_Node000020" class="edge">
<title>Node19&#45;&gt;Node20</title>
<g id="a_edge19_Node000019_Node000020"><a xlink:title=" ">
<path fill="none" stroke="#63b8ff" d="M981.5,-464.13C993.92,-466.04 1007.14,-468.08 1019.85,-470.04"/>
<polygon fill="#63b8ff" stroke="#63b8ff" points="1018.95,-473.44 1029.37,-471.5 1020.02,-466.52 1018.95,-473.44"/>
</a>
</g>
</g>
<!-- Node21 -->
<g id="Node000021" class="node">
<title>Node21</title>
<g id="a_Node000021"><a xlink:href="class_temperature_controller.html#a13125ddcf29cb56d27403818543618af" target="_top" xlink:title="Check if address is for PT1000 sensor.">
<polygon fill="white" stroke="#666666" points="1143.25,-446.5 1031.25,-446.5 1031.25,-416 1143.25,-416 1143.25,-446.5"/>
<text xml:space="preserve" text-anchor="start" x="1039.25" y="-433" font-family="Helvetica,sans-Serif" font-size="10.00">TemperatureController</text>
<text xml:space="preserve" text-anchor="middle" x="1087.25" y="-421.75" font-family="Helvetica,sans-Serif" font-size="10.00">::isPT1000Address</text>
</a>
</g>
</g>
<!-- Node19&#45;&gt;Node21 -->
<g id="edge20_Node000019_Node000021" class="edge">
<title>Node19&#45;&gt;Node21</title>
<g id="a_edge20_Node000019_Node000021"><a xlink:title=" ">
<path fill="none" stroke="#63b8ff" d="M981.5,-446.72C993.92,-444.89 1007.14,-442.93 1019.85,-441.06"/>
<polygon fill="#63b8ff" stroke="#63b8ff" points="1019.99,-444.57 1029.37,-439.65 1018.96,-437.65 1019.99,-444.57"/>
</a>
</g>
</g>
<!-- Node25 -->
<g id="Node000025" class="node">
<title>Node25</title>
<g id="a_Node000025"><a xlink:href="class_temperature_controller.html#af58201023d15de003d4f1b9a9771a9e3" target="_top" xlink:title="Get list of active alarms.">
<polygon fill="white" stroke="#666666" points="638.12,-557.5 526.12,-557.5 526.12,-527 638.12,-527 638.12,-557.5"/>
<text xml:space="preserve" text-anchor="start" x="534.12" y="-544" font-family="Helvetica,sans-Serif" font-size="10.00">TemperatureController</text>
<text xml:space="preserve" text-anchor="middle" x="582.12" y="-532.75" font-family="Helvetica,sans-Serif" font-size="10.00">::getActiveAlarms</text>
</a>
</g>
</g>
<!-- Node24&#45;&gt;Node25 -->
<g id="edge26_Node000024_Node000025" class="edge">
<title>Node24&#45;&gt;Node25</title>
<g id="a_edge26_Node000024_Node000025"><a xlink:title=" ">
<path fill="none" stroke="#63b8ff" d="M444.81,-511.98C466.75,-516.85 491.97,-522.45 514.7,-527.5"/>
<polygon fill="#63b8ff" stroke="#63b8ff" points="513.63,-530.85 524.15,-529.6 515.15,-524.01 513.63,-530.85"/>
</a>
</g>
</g>
<!-- Node26 -->
<g id="Node000026" class="node">
<title>Node26</title>
<g id="a_Node000026"><a xlink:href="class_alarm.html#a7a4a3290a6a659542f82fe08a96736a8" target="_top" xlink:title="Get the alarm creation timestamp.">
<polygon fill="white" stroke="#666666" points="637,-508.88 527.25,-508.88 527.25,-489.62 637,-489.62 637,-508.88"/>
<text xml:space="preserve" text-anchor="middle" x="582.12" y="-495.38" font-family="Helvetica,sans-Serif" font-size="10.00">Alarm::getTimestamp</text>
</a>
</g>
</g>
<!-- Node24&#45;&gt;Node26 -->
<g id="edge27_Node000024_Node000026" class="edge">
<title>Node24&#45;&gt;Node26</title>
<g id="a_edge27_Node000024_Node000026"><a xlink:title=" ">
<path fill="none" stroke="#63b8ff" d="M444.81,-499.25C467.04,-499.25 492.62,-499.25 515.57,-499.25"/>
<polygon fill="#63b8ff" stroke="#63b8ff" points="515.44,-502.75 525.44,-499.25 515.44,-495.75 515.44,-502.75"/>
</a>
</g>
</g>
</g>
</svg>
