<?xml version="1.0" encoding="UTF-8" standalone="no"?>
<!DOCTYPE svg PUBLIC "-//W3C//DTD SVG 1.1//EN"
 "http://www.w3.org/Graphics/SVG/1.1/DTD/svg11.dtd">
<!-- Generated by graphviz version 13.1.0 (20250701.0955)
 -->
<!-- Title: MeasurementPoint::getBoundSensor Pages: 1 -->
<svg width="845pt" height="493pt"
 viewBox="0.00 0.00 845.00 493.00" xmlns="http://www.w3.org/2000/svg" xmlns:xlink="http://www.w3.org/1999/xlink">
<g id="graph0" class="graph" transform="scale(1 1) rotate(0) translate(4 488.88)">
<title>MeasurementPoint::getBoundSensor</title>
<!-- Node1 -->
<g id="Node000001" class="node">
<title>Node1</title>
<g id="a_Node000001"><a xlink:title="Get pointer to bound sensor.">
<polygon fill="#999999" stroke="#666666" points="836.75,-275.88 691.75,-275.88 691.75,-245.38 836.75,-245.38 836.75,-275.88"/>
<text xml:space="preserve" text-anchor="start" x="699.75" y="-262.38" font-family="Helvetica,sans-Serif" font-size="10.00">MeasurementPoint::getBound</text>
<text xml:space="preserve" text-anchor="middle" x="764.25" y="-251.12" font-family="Helvetica,sans-Serif" font-size="10.00">Sensor</text>
</a>
</g>
</g>
<!-- Node2 -->
<g id="Node000002" class="node">
<title>Node2</title>
<g id="a_Node000002"><a xlink:href="class_temperature_controller.html#a27da8ccc3effea555f440ce3e6f89b08" target="_top" xlink:title="Check measurement point for alarm conditions.">
<polygon fill="white" stroke="#666666" points="638.12,-484.88 517.12,-484.88 517.12,-454.38 638.12,-454.38 638.12,-484.88"/>
<text xml:space="preserve" text-anchor="start" x="525.12" y="-471.38" font-family="Helvetica,sans-Serif" font-size="10.00">TemperatureController</text>
<text xml:space="preserve" text-anchor="middle" x="577.62" y="-460.12" font-family="Helvetica,sans-Serif" font-size="10.00">::_checkPointForAlarms</text>
</a>
</g>
</g>
<!-- Node1&#45;&gt;Node2 -->
<g id="edge1_Node000001_Node000002" class="edge">
<title>Node1&#45;&gt;Node2</title>
<g id="a_edge1_Node000001_Node000002"><a xlink:title=" ">
<path fill="none" stroke="#63b8ff" d="M754.76,-286.96C740.58,-326.81 708.34,-402.29 655.75,-444.62 650.6,-448.77 644.74,-452.24 638.6,-455.14"/>
<polygon fill="#63b8ff" stroke="#63b8ff" points="758,-288.29 757.94,-277.69 751.38,-286.01 758,-288.29"/>
</a>
</g>
</g>
<!-- Node3 -->
<g id="Node000003" class="node">
<title>Node3</title>
<g id="a_Node000003"><a xlink:href="class_c_s_v_config_manager.html#a2c2673398051c26184c9197aa751a6b3" target="_top" xlink:title="Export single measurement point to CSV format.">
<polygon fill="white" stroke="#666666" points="632.12,-435.88 523.12,-435.88 523.12,-405.38 632.12,-405.38 632.12,-435.88"/>
<text xml:space="preserve" text-anchor="start" x="531.12" y="-422.38" font-family="Helvetica,sans-Serif" font-size="10.00">CSVConfigManager::</text>
<text xml:space="preserve" text-anchor="middle" x="577.62" y="-411.12" font-family="Helvetica,sans-Serif" font-size="10.00">_exportPointToCSV</text>
</a>
</g>
</g>
<!-- Node1&#45;&gt;Node3 -->
<g id="edge2_Node000001_Node000003" class="edge">
<title>Node1&#45;&gt;Node3</title>
<g id="a_edge2_Node000001_Node000003"><a xlink:title=" ">
<path fill="none" stroke="#63b8ff" d="M749.55,-286.09C731.83,-316.68 698.14,-367.51 655.75,-396.62 648.7,-401.47 640.63,-405.37 632.43,-408.49"/>
<polygon fill="#63b8ff" stroke="#63b8ff" points="752.53,-287.93 754.4,-277.5 746.44,-284.49 752.53,-287.93"/>
</a>
</g>
</g>
<!-- Node5 -->
<g id="Node000005" class="node">
<title>Node5</title>
<g id="a_Node000005"><a xlink:href="class_logger_manager.html#aa6938b6a5c002d6ed72ef352f0cc7a19" target="_top" xlink:title=" ">
<polygon fill="white" stroke="#666666" points="655.75,-387.25 499.5,-387.25 499.5,-368 655.75,-368 655.75,-387.25"/>
<text xml:space="preserve" text-anchor="middle" x="577.62" y="-373.75" font-family="Helvetica,sans-Serif" font-size="10.00">LoggerManager::_writeDataRow</text>
</a>
</g>
</g>
<!-- Node1&#45;&gt;Node5 -->
<g id="edge4_Node000001_Node000005" class="edge">
<title>Node1&#45;&gt;Node5</title>
<g id="a_edge4_Node000001_Node000005"><a xlink:title=" ">
<path fill="none" stroke="#63b8ff" d="M743.27,-284.74C723.37,-307.19 690.8,-339.91 655.75,-358.62 648.94,-362.26 641.42,-365.22 633.82,-367.61"/>
<polygon fill="#63b8ff" stroke="#63b8ff" points="745.85,-287.1 749.76,-277.26 740.56,-282.52 745.85,-287.1"/>
</a>
</g>
</g>
<!-- Node8 -->
<g id="Node000008" class="node">
<title>Node8</title>
<g id="a_Node000008"><a xlink:href="class_config_manager.html#ae605c999fabc6344511f455618655326" target="_top" xlink:title="Setup alarms API endpoints.">
<polygon fill="white" stroke="#666666" points="459,-191.25 325.25,-191.25 325.25,-172 459,-172 459,-191.25"/>
<text xml:space="preserve" text-anchor="middle" x="392.12" y="-177.75" font-family="Helvetica,sans-Serif" font-size="10.00">ConfigManager::alarmsAPI</text>
</a>
</g>
</g>
<!-- Node1&#45;&gt;Node8 -->
<g id="edge7_Node000001_Node000008" class="edge">
<title>Node1&#45;&gt;Node8</title>
<g id="a_edge7_Node000001_Node000008"><a xlink:title=" ">
<path fill="none" stroke="#63b8ff" d="M745.31,-236.32C726.17,-212.63 693.45,-178.12 655.75,-163.62 590.93,-138.7 568.7,-157.81 499.5,-163.62 480.74,-165.2 460.32,-168.31 442.43,-171.51"/>
<polygon fill="#63b8ff" stroke="#63b8ff" points="742.35,-238.21 751.27,-243.92 747.86,-233.89 742.35,-238.21"/>
</a>
</g>
</g>
<!-- Node10 -->
<g id="Node000010" class="node">
<title>Node10</title>
<g id="a_Node000010"><a xlink:href="class_temperature_controller.html#ad174e0411bd48422d8e3812fd28a7a0b" target="_top" xlink:title="Ensure all 3 alarm types exist for a measurement point.">
<polygon fill="white" stroke="#666666" points="637,-300.88 518.25,-300.88 518.25,-270.38 637,-270.38 637,-300.88"/>
<text xml:space="preserve" text-anchor="start" x="526.25" y="-287.38" font-family="Helvetica,sans-Serif" font-size="10.00">TemperatureController</text>
<text xml:space="preserve" text-anchor="middle" x="577.62" y="-276.12" font-family="Helvetica,sans-Serif" font-size="10.00">::ensureAlarmsForPoint</text>
</a>
</g>
</g>
<!-- Node1&#45;&gt;Node10 -->
<g id="edge9_Node000001_Node000010" class="edge">
<title>Node1&#45;&gt;Node10</title>
<g id="a_edge9_Node000001_Node000010"><a xlink:title=" ">
<path fill="none" stroke="#63b8ff" d="M680.31,-271.86C665.77,-273.82 650.93,-275.83 637.23,-277.69"/>
<polygon fill="#63b8ff" stroke="#63b8ff" points="680.4,-275.38 689.84,-270.57 679.46,-268.44 680.4,-275.38"/>
</a>
</g>
</g>
<!-- Node11 -->
<g id="Node000011" class="node">
<title>Node11</title>
<g id="a_Node000011"><a xlink:href="class_temperature_controller.html#a9b4fe09d4c87dcf86e78b890012e1e72" target="_top" xlink:title="Get sensor bound to measurement point.">
<polygon fill="white" stroke="#666666" points="633.62,-349.88 521.62,-349.88 521.62,-319.38 633.62,-319.38 633.62,-349.88"/>
<text xml:space="preserve" text-anchor="start" x="529.62" y="-336.38" font-family="Helvetica,sans-Serif" font-size="10.00">TemperatureController</text>
<text xml:space="preserve" text-anchor="middle" x="577.62" y="-325.12" font-family="Helvetica,sans-Serif" font-size="10.00">::getBoundSensor</text>
</a>
</g>
</g>
<!-- Node1&#45;&gt;Node11 -->
<g id="edge10_Node000001_Node000011" class="edge">
<title>Node1&#45;&gt;Node11</title>
<g id="a_edge10_Node000001_Node000011"><a xlink:title=" ">
<path fill="none" stroke="#63b8ff" d="M721.49,-281C701.78,-290.27 677.79,-301.06 655.75,-309.62 647.48,-312.84 638.62,-315.98 629.94,-318.9"/>
<polygon fill="#63b8ff" stroke="#63b8ff" points="722.77,-284.27 730.3,-276.82 719.77,-277.95 722.77,-284.27"/>
</a>
</g>
</g>
<!-- Node17 -->
<g id="Node000017" class="node">
<title>Node17</title>
<g id="a_Node000017"><a xlink:href="class_temperature_controller.html#add39ba7dad38449bbf1787a5c9c51ef9" target="_top" xlink:title="Get JSON representation of all measurement points.">
<polygon fill="white" stroke="#666666" points="633.62,-202.88 521.62,-202.88 521.62,-172.38 633.62,-172.38 633.62,-202.88"/>
<text xml:space="preserve" text-anchor="start" x="529.62" y="-189.38" font-family="Helvetica,sans-Serif" font-size="10.00">TemperatureController</text>
<text xml:space="preserve" text-anchor="middle" x="577.62" y="-178.12" font-family="Helvetica,sans-Serif" font-size="10.00">::getPointsJson</text>
</a>
</g>
</g>
<!-- Node1&#45;&gt;Node17 -->
<g id="edge17_Node000001_Node000017" class="edge">
<title>Node1&#45;&gt;Node17</title>
<g id="a_edge17_Node000001_Node000017"><a xlink:title=" ">
<path fill="none" stroke="#63b8ff" d="M720.31,-240.19C700.81,-231.24 677.32,-220.91 655.75,-212.62 647.34,-209.4 638.32,-206.22 629.51,-203.27"/>
<polygon fill="#63b8ff" stroke="#63b8ff" points="718.78,-243.34 729.32,-244.37 721.72,-236.99 718.78,-243.34"/>
</a>
</g>
</g>
<!-- Node18 -->
<g id="Node000018" class="node">
<title>Node18</title>
<g id="a_Node000018"><a xlink:href="class_config_manager.html#a04edc14e642ecadb9ccb87be05d1d878" target="_top" xlink:title="Load measurement points configuration from file.">
<polygon fill="white" stroke="#666666" points="644.5,-251.88 510.75,-251.88 510.75,-221.38 644.5,-221.38 644.5,-251.88"/>
<text xml:space="preserve" text-anchor="start" x="518.75" y="-238.38" font-family="Helvetica,sans-Serif" font-size="10.00">ConfigManager::loadPoints</text>
<text xml:space="preserve" text-anchor="middle" x="577.62" y="-227.12" font-family="Helvetica,sans-Serif" font-size="10.00">Config</text>
</a>
</g>
</g>
<!-- Node1&#45;&gt;Node18 -->
<g id="edge18_Node000001_Node000018" class="edge">
<title>Node1&#45;&gt;Node18</title>
<g id="a_edge18_Node000001_Node000018"><a xlink:title=" ">
<path fill="none" stroke="#63b8ff" d="M680.12,-249.82C668.32,-248.29 656.33,-246.73 644.91,-245.24"/>
<polygon fill="#63b8ff" stroke="#63b8ff" points="679.47,-253.26 689.84,-251.08 680.37,-246.32 679.47,-253.26"/>
</a>
</g>
</g>
<!-- Node19 -->
<g id="Node000019" class="node">
<title>Node19</title>
<g id="a_Node000019"><a xlink:href="class_config_manager.html#a55b79da91c57039c483ddf5fceabbd64" target="_top" xlink:title="Save measurement points configuration to file.">
<polygon fill="white" stroke="#666666" points="646,-116.88 509.25,-116.88 509.25,-86.38 646,-86.38 646,-116.88"/>
<text xml:space="preserve" text-anchor="start" x="517.25" y="-103.38" font-family="Helvetica,sans-Serif" font-size="10.00">ConfigManager::savePoints</text>
<text xml:space="preserve" text-anchor="middle" x="577.62" y="-92.12" font-family="Helvetica,sans-Serif" font-size="10.00">Config</text>
</a>
</g>
</g>
<!-- Node1&#45;&gt;Node19 -->
<g id="edge20_Node000001_Node000019" class="edge">
<title>Node1&#45;&gt;Node19</title>
<g id="a_edge20_Node000001_Node000019"><a xlink:title=" ">
<path fill="none" stroke="#63b8ff" d="M748.42,-235.78C730.01,-206.86 696.06,-159.38 655.75,-130.62 648.41,-125.39 640.02,-120.98 631.53,-117.29"/>
<polygon fill="#63b8ff" stroke="#63b8ff" points="745.22,-237.25 753.47,-243.89 751.16,-233.55 745.22,-237.25"/>
</a>
</g>
</g>
<!-- Node24 -->
<g id="Node000024" class="node">
<title>Node24</title>
<g id="a_Node000024"><a xlink:href="class_temperature_controller.html#a261c9b96540ec6680dfffd3a26e4ca00" target="_top" xlink:title="Unbind sensor from measurement point.">
<polygon fill="white" stroke="#666666" points="640.75,-67.88 514.5,-67.88 514.5,-37.38 640.75,-37.38 640.75,-67.88"/>
<text xml:space="preserve" text-anchor="start" x="522.5" y="-54.38" font-family="Helvetica,sans-Serif" font-size="10.00">TemperatureController</text>
<text xml:space="preserve" text-anchor="middle" x="577.62" y="-43.12" font-family="Helvetica,sans-Serif" font-size="10.00">::unbindSensorFromPoint</text>
</a>
</g>
</g>
<!-- Node1&#45;&gt;Node24 -->
<g id="edge29_Node000001_Node000024" class="edge">
<title>Node1&#45;&gt;Node24</title>
<g id="a_edge29_Node000001_Node000024"><a xlink:title=" ">
<path fill="none" stroke="#63b8ff" d="M754.72,-234.44C740.49,-194.79 708.18,-119.73 655.75,-77.62 651.25,-74.01 646.21,-70.91 640.93,-68.26"/>
<polygon fill="#63b8ff" stroke="#63b8ff" points="751.33,-235.34 757.91,-243.64 757.94,-233.05 751.33,-235.34"/>
</a>
</g>
</g>
<!-- Node4 -->
<g id="Node000004" class="node">
<title>Node4</title>
<g id="a_Node000004"><a xlink:href="class_c_s_v_config_manager.html#a1c6cbc4c8a132762bf16a8ce9f7d0bfc" target="_top" xlink:title="Export measurement points with alarm configuration to CSV.">
<polygon fill="white" stroke="#666666" points="460.12,-435.88 324.12,-435.88 324.12,-405.38 460.12,-405.38 460.12,-435.88"/>
<text xml:space="preserve" text-anchor="start" x="332.12" y="-422.38" font-family="Helvetica,sans-Serif" font-size="10.00">CSVConfigManager::export</text>
<text xml:space="preserve" text-anchor="middle" x="392.12" y="-411.12" font-family="Helvetica,sans-Serif" font-size="10.00">PointsWithAlarmsToCSV</text>
</a>
</g>
</g>
<!-- Node3&#45;&gt;Node4 -->
<g id="edge3_Node000003_Node000004" class="edge">
<title>Node3&#45;&gt;Node4</title>
<g id="a_edge3_Node000003_Node000004"><a xlink:title=" ">
<path fill="none" stroke="#63b8ff" d="M511.78,-420.62C495.15,-420.62 477.23,-420.62 460.48,-420.62"/>
<polygon fill="#63b8ff" stroke="#63b8ff" points="511.54,-424.13 521.54,-420.63 511.54,-417.13 511.54,-424.13"/>
</a>
</g>
</g>
<!-- Node6 -->
<g id="Node000006" class="node">
<title>Node6</title>
<g id="a_Node000006"><a xlink:href="class_logger_manager.html#a32ce9f462269787130bee46b2c34b632" target="_top" xlink:title=" ">
<polygon fill="white" stroke="#666666" points="463.5,-387.25 320.75,-387.25 320.75,-368 463.5,-368 463.5,-387.25"/>
<text xml:space="preserve" text-anchor="middle" x="392.12" y="-373.75" font-family="Helvetica,sans-Serif" font-size="10.00">LoggerManager::logDataNow</text>
</a>
</g>
</g>
<!-- Node5&#45;&gt;Node6 -->
<g id="edge5_Node000005_Node000006" class="edge">
<title>Node5&#45;&gt;Node6</title>
<g id="a_edge5_Node000005_Node000006"><a xlink:title=" ">
<path fill="none" stroke="#63b8ff" d="M487.81,-377.62C479.82,-377.62 471.8,-377.62 463.99,-377.62"/>
<polygon fill="#63b8ff" stroke="#63b8ff" points="487.56,-381.13 497.56,-377.63 487.56,-374.13 487.56,-381.13"/>
</a>
</g>
</g>
<!-- Node7 -->
<g id="Node000007" class="node">
<title>Node7</title>
<g id="a_Node000007"><a xlink:href="class_logger_manager.html#a830c86f1f27d3799eab1de908fc6b647" target="_top" xlink:title=" ">
<polygon fill="white" stroke="#666666" points="275.38,-387.25 157.38,-387.25 157.38,-368 275.38,-368 275.38,-387.25"/>
<text xml:space="preserve" text-anchor="middle" x="216.38" y="-373.75" font-family="Helvetica,sans-Serif" font-size="10.00">LoggerManager::update</text>
</a>
</g>
</g>
<!-- Node6&#45;&gt;Node7 -->
<g id="edge6_Node000006_Node000007" class="edge">
<title>Node6&#45;&gt;Node7</title>
<g id="a_edge6_Node000006_Node000007"><a xlink:title=" ">
<path fill="none" stroke="#63b8ff" d="M309.23,-377.62C297.93,-377.62 286.53,-377.62 275.78,-377.62"/>
<polygon fill="#63b8ff" stroke="#63b8ff" points="308.94,-381.13 318.94,-377.63 308.94,-374.13 308.94,-381.13"/>
</a>
</g>
</g>
<!-- Node9 -->
<g id="Node000009" class="node">
<title>Node9</title>
<g id="a_Node000009"><a xlink:href="class_config_manager.html#a0497343220fc493f5cf9574922508908" target="_top" xlink:title="Initialize the configuration system.">
<polygon fill="white" stroke="#666666" points="272,-154.25 160.75,-154.25 160.75,-135 272,-135 272,-154.25"/>
<text xml:space="preserve" text-anchor="middle" x="216.38" y="-140.75" font-family="Helvetica,sans-Serif" font-size="10.00">ConfigManager::begin</text>
</a>
</g>
</g>
<!-- Node8&#45;&gt;Node9 -->
<g id="edge8_Node000008_Node000009" class="edge">
<title>Node8&#45;&gt;Node9</title>
<g id="a_edge8_Node000008_Node000009"><a xlink:title=" ">
<path fill="none" stroke="#63b8ff" d="M332.41,-169.12C310.39,-164.43 285.67,-159.17 264.8,-154.72"/>
<polygon fill="#63b8ff" stroke="#63b8ff" points="331.66,-172.54 342.17,-171.2 333.12,-165.69 331.66,-172.54"/>
</a>
</g>
</g>
<!-- Node12 -->
<g id="Node000012" class="node">
<title>Node12</title>
<g id="a_Node000012"><a xlink:href="class_temperature_controller.html#a4e4770607486ebfc6eacafa704945c23" target="_top" xlink:title="Remove sensor by ROM address string.">
<polygon fill="white" stroke="#666666" points="451.12,-349.88 333.12,-349.88 333.12,-319.38 451.12,-319.38 451.12,-349.88"/>
<text xml:space="preserve" text-anchor="start" x="341.12" y="-336.38" font-family="Helvetica,sans-Serif" font-size="10.00">TemperatureController</text>
<text xml:space="preserve" text-anchor="middle" x="392.12" y="-325.12" font-family="Helvetica,sans-Serif" font-size="10.00">::removeSensorByRom</text>
</a>
</g>
</g>
<!-- Node11&#45;&gt;Node12 -->
<g id="edge11_Node000011_Node000012" class="edge">
<title>Node11&#45;&gt;Node12</title>
<g id="a_edge11_Node000011_Node000012"><a xlink:title=" ">
<path fill="none" stroke="#63b8ff" d="M510.14,-334.62C490.89,-334.62 470.03,-334.62 451.33,-334.62"/>
<polygon fill="#63b8ff" stroke="#63b8ff" points="510.06,-338.13 520.06,-334.63 510.06,-331.13 510.06,-338.13"/>
</a>
</g>
</g>
<!-- Node14 -->
<g id="Node000014" class="node">
<title>Node14</title>
<g id="a_Node000014"><a xlink:href="class_temperature_controller.html#a5ac8af90de5dfd79a9a2e4c7270a98a3" target="_top" xlink:title="Update alarm states for all measurement points.">
<polygon fill="white" stroke="#666666" points="448.12,-300.88 336.12,-300.88 336.12,-270.38 448.12,-270.38 448.12,-300.88"/>
<text xml:space="preserve" text-anchor="start" x="344.12" y="-287.38" font-family="Helvetica,sans-Serif" font-size="10.00">TemperatureController</text>
<text xml:space="preserve" text-anchor="middle" x="392.12" y="-276.12" font-family="Helvetica,sans-Serif" font-size="10.00">::updateAlarms</text>
</a>
</g>
</g>
<!-- Node11&#45;&gt;Node14 -->
<g id="edge13_Node000011_Node000014" class="edge">
<title>Node11&#45;&gt;Node14</title>
<g id="a_edge13_Node000011_Node000014"><a xlink:title=" ">
<path fill="none" stroke="#63b8ff" d="M510.49,-316.96C490.15,-311.53 467.99,-305.62 448.46,-300.4"/>
<polygon fill="#63b8ff" stroke="#63b8ff" points="509.54,-320.33 520.11,-319.53 511.35,-313.57 509.54,-320.33"/>
</a>
</g>
</g>
<!-- Node13 -->
<g id="Node000013" class="node">
<title>Node13</title>
<g id="a_Node000013"><a xlink:href="class_temperature_controller.html#a57b74b40c88016965d07248981412f7d" target="_top" xlink:title="Discover DS18B20 sensors on all OneWire buses.">
<polygon fill="white" stroke="#666666" points="284.75,-349.88 148,-349.88 148,-319.38 284.75,-319.38 284.75,-349.88"/>
<text xml:space="preserve" text-anchor="start" x="156" y="-336.38" font-family="Helvetica,sans-Serif" font-size="10.00">TemperatureController</text>
<text xml:space="preserve" text-anchor="middle" x="216.38" y="-325.12" font-family="Helvetica,sans-Serif" font-size="10.00">::discoverDS18B20Sensors</text>
</a>
</g>
</g>
<!-- Node12&#45;&gt;Node13 -->
<g id="edge12_Node000012_Node000013" class="edge">
<title>Node12&#45;&gt;Node13</title>
<g id="a_edge12_Node000012_Node000013"><a xlink:title=" ">
<path fill="none" stroke="#63b8ff" d="M321.48,-334.62C309.51,-334.62 297.09,-334.62 285.17,-334.62"/>
<polygon fill="#63b8ff" stroke="#63b8ff" points="321.27,-338.13 331.27,-334.63 321.27,-331.13 321.27,-338.13"/>
</a>
</g>
</g>
<!-- Node15 -->
<g id="Node000015" class="node">
<title>Node15</title>
<g id="a_Node000015"><a xlink:href="class_temperature_controller.html#aca5deddbf703001373424d876f87b5f2" target="_top" xlink:title="Main update function &#45; must be called in loop()">
<polygon fill="white" stroke="#666666" points="272.38,-300.88 160.38,-300.88 160.38,-270.38 272.38,-270.38 272.38,-300.88"/>
<text xml:space="preserve" text-anchor="start" x="168.38" y="-287.38" font-family="Helvetica,sans-Serif" font-size="10.00">TemperatureController</text>
<text xml:space="preserve" text-anchor="middle" x="216.38" y="-276.12" font-family="Helvetica,sans-Serif" font-size="10.00">::update</text>
</a>
</g>
</g>
<!-- Node14&#45;&gt;Node15 -->
<g id="edge14_Node000014_Node000015" class="edge">
<title>Node14&#45;&gt;Node15</title>
<g id="a_edge14_Node000014_Node000015"><a xlink:title=" ">
<path fill="none" stroke="#63b8ff" d="M324.58,-285.62C307.41,-285.62 289.12,-285.62 272.6,-285.62"/>
<polygon fill="#63b8ff" stroke="#63b8ff" points="324.16,-289.13 334.16,-285.63 324.16,-282.13 324.16,-289.13"/>
</a>
</g>
</g>
<!-- Node16 -->
<g id="Node000016" class="node">
<title>Node16</title>
<g id="a_Node000016"><a xlink:href="class_temperature_controller.html#a11948a87fe7df37543b86ecdd488b341" target="_top" xlink:title="Read temperature from all configured measurement points.">
<polygon fill="white" stroke="#666666" points="112,-300.88 0,-300.88 0,-270.38 112,-270.38 112,-300.88"/>
<text xml:space="preserve" text-anchor="start" x="8" y="-287.38" font-family="Helvetica,sans-Serif" font-size="10.00">TemperatureController</text>
<text xml:space="preserve" text-anchor="middle" x="56" y="-276.12" font-family="Helvetica,sans-Serif" font-size="10.00">::readAllPoints</text>
</a>
</g>
</g>
<!-- Node15&#45;&gt;Node16 -->
<g id="edge15_Node000015_Node000016" class="edge">
<title>Node15&#45;&gt;Node16</title>
<g id="a_edge15_Node000015_Node000016"><a xlink:title=" ">
<path fill="none" stroke="#63b8ff" d="M148.57,-278.95C136.51,-278.8 124.05,-278.87 112.36,-279.15"/>
<polygon fill="#63b8ff" stroke="#63b8ff" points="148.41,-282.45 158.47,-279.13 148.53,-275.45 148.41,-282.45"/>
</a>
</g>
</g>
<!-- Node16&#45;&gt;Node15 -->
<g id="edge16_Node000016_Node000015" class="edge">
<title>Node16&#45;&gt;Node15</title>
<g id="a_edge16_Node000016_Node000015"><a xlink:title=" ">
<path fill="none" stroke="#63b8ff" d="M123.77,-292.3C135.83,-292.45 148.29,-292.38 159.98,-292.1"/>
<polygon fill="#63b8ff" stroke="#63b8ff" points="123.94,-288.8 113.87,-292.12 123.81,-295.8 123.94,-288.8"/>
</a>
</g>
</g>
<!-- Node18&#45;&gt;Node9 -->
<g id="edge19_Node000018_Node000009" class="edge">
<title>Node18&#45;&gt;Node9</title>
<g id="a_edge19_Node000018_Node000009"><a xlink:title=" ">
<path fill="none" stroke="#63b8ff" d="M499.09,-232.91C447.49,-228.7 378.78,-219.74 320.75,-200.62 286.82,-189.45 250.97,-167.39 231.68,-154.54"/>
<polygon fill="#63b8ff" stroke="#63b8ff" points="498.75,-236.39 508.98,-233.67 499.28,-229.41 498.75,-236.39"/>
</a>
</g>
</g>
<!-- Node19&#45;&gt;Node8 -->
<g id="edge21_Node000019_Node000008" class="edge">
<title>Node19&#45;&gt;Node8</title>
<g id="a_edge21_Node000019_Node000008"><a xlink:title=" ">
<path fill="none" stroke="#63b8ff" d="M515.98,-121.85C510.27,-124.52 504.68,-127.44 499.5,-130.62 481,-141.98 482.59,-153.29 463.5,-163.62 457.62,-166.81 451.16,-169.44 444.61,-171.62"/>
<polygon fill="#63b8ff" stroke="#63b8ff" points="517.19,-125.15 524.96,-117.94 514.39,-118.73 517.19,-125.15"/>
</a>
</g>
</g>
<!-- Node20 -->
<g id="Node000020" class="node">
<title>Node20</title>
<g id="a_Node000020"><a xlink:href="class_config_manager.html#a9b7af07b85bf9cc3ac05603db6e89fd2" target="_top" xlink:title="Setup CSV import/export API endpoints.">
<polygon fill="white" stroke="#666666" points="457.88,-67.88 326.38,-67.88 326.38,-37.38 457.88,-37.38 457.88,-67.88"/>
<text xml:space="preserve" text-anchor="start" x="334.38" y="-54.38" font-family="Helvetica,sans-Serif" font-size="10.00">ConfigManager::csvImport</text>
<text xml:space="preserve" text-anchor="middle" x="392.12" y="-43.12" font-family="Helvetica,sans-Serif" font-size="10.00">ExportAPI</text>
</a>
</g>
</g>
<!-- Node19&#45;&gt;Node20 -->
<g id="edge22_Node000019_Node000020" class="edge">
<title>Node19&#45;&gt;Node20</title>
<g id="a_edge22_Node000019_Node000020"><a xlink:title=" ">
<path fill="none" stroke="#63b8ff" d="M506.73,-82.96C488.65,-78.13 469.37,-72.99 451.92,-68.33"/>
<polygon fill="#63b8ff" stroke="#63b8ff" points="505.78,-86.33 516.34,-85.53 507.59,-79.57 505.78,-86.33"/>
</a>
</g>
</g>
<!-- Node21 -->
<g id="Node000021" class="node">
<title>Node21</title>
<g id="a_Node000021"><a xlink:href="class_config_manager.html#a471a844085c27f3a8a8f9394d9c14677" target="_top" xlink:title="Setup measurement points API endpoints.">
<polygon fill="white" stroke="#666666" points="457.5,-19.25 326.75,-19.25 326.75,0 457.5,0 457.5,-19.25"/>
<text xml:space="preserve" text-anchor="middle" x="392.12" y="-5.75" font-family="Helvetica,sans-Serif" font-size="10.00">ConfigManager::pointsAPI</text>
</a>
</g>
</g>
<!-- Node19&#45;&gt;Node21 -->
<g id="edge24_Node000019_Node000021" class="edge">
<title>Node19&#45;&gt;Node21</title>
<g id="a_edge24_Node000019_Node000021"><a xlink:title=" ">
<path fill="none" stroke="#63b8ff" d="M505.89,-80.77C503.68,-79.47 501.55,-78.09 499.5,-76.62 477.8,-61.12 485.58,-43.58 463.5,-28.62 458.16,-25 452.15,-22.07 445.95,-19.7"/>
<polygon fill="#63b8ff" stroke="#63b8ff" points="504.09,-83.78 514.58,-85.29 507.32,-77.57 504.09,-83.78"/>
</a>
</g>
</g>
<!-- Node22 -->
<g id="Node000022" class="node">
<title>Node22</title>
<g id="a_Node000022"><a xlink:href="class_config_manager.html#a45b1ce1f09401af0b6f700cf4388b233" target="_top" xlink:title="Setup sensor&#45;related API endpoints.">
<polygon fill="white" stroke="#666666" points="459,-154.25 325.25,-154.25 325.25,-135 459,-135 459,-154.25"/>
<text xml:space="preserve" text-anchor="middle" x="392.12" y="-140.75" font-family="Helvetica,sans-Serif" font-size="10.00">ConfigManager::sensorAPI</text>
</a>
</g>
</g>
<!-- Node19&#45;&gt;Node22 -->
<g id="edge26_Node000019_Node000022" class="edge">
<title>Node19&#45;&gt;Node22</title>
<g id="a_edge26_Node000019_Node000022"><a xlink:title=" ">
<path fill="none" stroke="#63b8ff" d="M498.56,-119.92C477.23,-124.92 454.88,-130.15 436.28,-134.51"/>
<polygon fill="#63b8ff" stroke="#63b8ff" points="499.19,-123.37 508.12,-117.68 497.59,-116.55 499.19,-123.37"/>
</a>
</g>
</g>
<!-- Node23 -->
<g id="Node000023" class="node">
<title>Node23</title>
<g id="a_Node000023"><a xlink:href="class_config_manager.html#a0daf50bbd376beb24a5400a86e893338" target="_top" xlink:title="Update a measurement point in configuration.">
<polygon fill="white" stroke="#666666" points="462,-116.88 322.25,-116.88 322.25,-86.38 462,-86.38 462,-116.88"/>
<text xml:space="preserve" text-anchor="start" x="330.25" y="-103.38" font-family="Helvetica,sans-Serif" font-size="10.00">ConfigManager::updatePoint</text>
<text xml:space="preserve" text-anchor="middle" x="392.12" y="-92.12" font-family="Helvetica,sans-Serif" font-size="10.00">InConfig</text>
</a>
</g>
</g>
<!-- Node19&#45;&gt;Node23 -->
<g id="edge28_Node000019_Node000023" class="edge">
<title>Node19&#45;&gt;Node23</title>
<g id="a_edge28_Node000019_Node000023"><a xlink:title=" ">
<path fill="none" stroke="#63b8ff" d="M497.34,-101.62C485.74,-101.62 473.87,-101.62 462.49,-101.62"/>
<polygon fill="#63b8ff" stroke="#63b8ff" points="497.3,-105.13 507.3,-101.63 497.3,-98.13 497.3,-105.13"/>
</a>
</g>
</g>
<!-- Node20&#45;&gt;Node9 -->
<g id="edge23_Node000020_Node000009" class="edge">
<title>Node20&#45;&gt;Node9</title>
<g id="a_edge23_Node000020_Node000009"><a xlink:title=" ">
<path fill="none" stroke="#63b8ff" d="M332.08,-72.44C328.2,-74.1 324.39,-75.83 320.75,-77.62 286.42,-94.56 249.56,-120.57 230.49,-134.68"/>
<polygon fill="#63b8ff" stroke="#63b8ff" points="333.07,-75.81 341.03,-68.81 330.44,-69.32 333.07,-75.81"/>
</a>
</g>
</g>
<!-- Node21&#45;&gt;Node9 -->
<g id="edge25_Node000021_Node000009" class="edge">
<title>Node21&#45;&gt;Node9</title>
<g id="a_edge25_Node000021_Node000009"><a xlink:title=" ">
<path fill="none" stroke="#63b8ff" d="M329.32,-24C326.35,-25.41 323.48,-26.94 320.75,-28.62 274.62,-57.12 237.2,-112.38 223.25,-134.81"/>
<polygon fill="#63b8ff" stroke="#63b8ff" points="330.37,-27.36 338.28,-20.31 327.7,-20.88 330.37,-27.36"/>
</a>
</g>
</g>
<!-- Node22&#45;&gt;Node9 -->
<g id="edge27_Node000022_Node000009" class="edge">
<title>Node22&#45;&gt;Node9</title>
<g id="a_edge27_Node000022_Node000009"><a xlink:title=" ">
<path fill="none" stroke="#63b8ff" d="M313.83,-144.62C299.85,-144.62 285.53,-144.62 272.35,-144.62"/>
<polygon fill="#63b8ff" stroke="#63b8ff" points="313.43,-148.13 323.43,-144.63 313.43,-141.13 313.43,-148.13"/>
</a>
</g>
</g>
</g>
</svg>
