<?xml version="1.0" encoding="UTF-8" standalone="no"?>
<!DOCTYPE svg PUBLIC "-//W3C//DTD SVG 1.1//EN"
 "http://www.w3.org/Graphics/SVG/1.1/DTD/svg11.dtd">
<!-- Generated by graphviz version 13.1.0 (20250701.0955)
 -->
<!-- Title: IndicatorInterface::_applyModeLogic Pages: 1 -->
<svg width="371pt" height="161pt"
 viewBox="0.00 0.00 371.00 161.00" xmlns="http://www.w3.org/2000/svg" xmlns:xlink="http://www.w3.org/1999/xlink">
<g id="graph0" class="graph" transform="scale(1 1) rotate(0) translate(4 156.5)">
<title>IndicatorInterface::_applyModeLogic</title>
<!-- Node1 -->
<g id="Node000001" class="node">
<title>Node1</title>
<g id="a_Node000001"><a xlink:title=" ">
<polygon fill="#999999" stroke="#666666" points="363,-79.5 265.25,-79.5 265.25,-49 363,-49 363,-79.5"/>
<text xml:space="preserve" text-anchor="start" x="273.25" y="-66" font-family="Helvetica,sans-Serif" font-size="10.00">IndicatorInterface</text>
<text xml:space="preserve" text-anchor="middle" x="314.12" y="-54.75" font-family="Helvetica,sans-Serif" font-size="10.00">::_applyModeLogic</text>
</a>
</g>
</g>
<!-- Node2 -->
<g id="Node000002" class="node">
<title>Node2</title>
<g id="a_Node000002"><a xlink:href="class_indicator_interface.html#a52dd1fa732e288e344fe017f100d6c0d" target="_top" xlink:title=" ">
<polygon fill="white" stroke="#666666" points="229.25,-128.5 137.5,-128.5 137.5,-98 229.25,-98 229.25,-128.5"/>
<text xml:space="preserve" text-anchor="start" x="145.5" y="-115" font-family="Helvetica,sans-Serif" font-size="10.00">IndicatorInterface</text>
<text xml:space="preserve" text-anchor="middle" x="183.38" y="-103.75" font-family="Helvetica,sans-Serif" font-size="10.00">::setAllOutputs</text>
</a>
</g>
</g>
<!-- Node1&#45;&gt;Node2 -->
<g id="edge1_Node000001_Node000002" class="edge">
<title>Node1&#45;&gt;Node2</title>
<g id="a_edge1_Node000001_Node000002"><a xlink:title=" ">
<path fill="none" stroke="#63b8ff" d="M261.31,-83.97C249.41,-88.5 236.9,-93.26 225.52,-97.59"/>
<polygon fill="#63b8ff" stroke="#63b8ff" points="262.52,-87.26 270.62,-80.43 260.03,-80.71 262.52,-87.26"/>
</a>
</g>
</g>
<!-- Node5 -->
<g id="Node000005" class="node">
<title>Node5</title>
<g id="a_Node000005"><a xlink:href="class_indicator_interface.html#a6b01cb93befc42d644388756ff986f6e" target="_top" xlink:title=" ">
<polygon fill="white" stroke="#666666" points="229.25,-79.5 137.5,-79.5 137.5,-49 229.25,-49 229.25,-79.5"/>
<text xml:space="preserve" text-anchor="start" x="145.5" y="-66" font-family="Helvetica,sans-Serif" font-size="10.00">IndicatorInterface</text>
<text xml:space="preserve" text-anchor="middle" x="183.38" y="-54.75" font-family="Helvetica,sans-Serif" font-size="10.00">::writePort</text>
</a>
</g>
</g>
<!-- Node1&#45;&gt;Node5 -->
<g id="edge4_Node000001_Node000005" class="edge">
<title>Node1&#45;&gt;Node5</title>
<g id="a_edge4_Node000001_Node000005"><a xlink:title=" ">
<path fill="none" stroke="#63b8ff" d="M253.54,-64.25C245.47,-64.25 237.3,-64.25 229.55,-64.25"/>
<polygon fill="#63b8ff" stroke="#63b8ff" points="253.3,-67.75 263.3,-64.25 253.3,-60.75 253.3,-67.75"/>
</a>
</g>
</g>
<!-- Node6 -->
<g id="Node000006" class="node">
<title>Node6</title>
<g id="a_Node000006"><a xlink:href="class_indicator_interface.html#afb68095f494956d24c4013a048b083bf" target="_top" xlink:title=" ">
<polygon fill="white" stroke="#666666" points="229.25,-30.5 137.5,-30.5 137.5,0 229.25,0 229.25,-30.5"/>
<text xml:space="preserve" text-anchor="start" x="145.5" y="-17" font-family="Helvetica,sans-Serif" font-size="10.00">IndicatorInterface</text>
<text xml:space="preserve" text-anchor="middle" x="183.38" y="-5.75" font-family="Helvetica,sans-Serif" font-size="10.00">::writePorts</text>
</a>
</g>
</g>
<!-- Node1&#45;&gt;Node6 -->
<g id="edge5_Node000001_Node000006" class="edge">
<title>Node1&#45;&gt;Node6</title>
<g id="a_edge5_Node000001_Node000006"><a xlink:title=" ">
<path fill="none" stroke="#63b8ff" d="M261.31,-44.53C249.41,-40 236.9,-35.24 225.52,-30.91"/>
<polygon fill="#63b8ff" stroke="#63b8ff" points="260.03,-47.79 270.62,-48.07 262.52,-41.24 260.03,-47.79"/>
</a>
</g>
</g>
<!-- Node3 -->
<g id="Node000003" class="node">
<title>Node3</title>
<g id="a_Node000003"><a xlink:href="class_indicator_interface.html#ada8f967d6d074b194ab4876b10869357" target="_top" xlink:title=" ">
<polygon fill="white" stroke="#666666" points="101.5,-152.5 0,-152.5 0,-122 101.5,-122 101.5,-152.5"/>
<text xml:space="preserve" text-anchor="start" x="8" y="-139" font-family="Helvetica,sans-Serif" font-size="10.00">IndicatorInterface</text>
<text xml:space="preserve" text-anchor="middle" x="50.75" y="-127.75" font-family="Helvetica,sans-Serif" font-size="10.00">::setAllOutputsHigh</text>
</a>
</g>
</g>
<!-- Node2&#45;&gt;Node3 -->
<g id="edge2_Node000002_Node000003" class="edge">
<title>Node2&#45;&gt;Node3</title>
<g id="a_edge2_Node000002_Node000003"><a xlink:title=" ">
<path fill="none" stroke="#63b8ff" d="M125.93,-123.62C117.94,-125.09 109.76,-126.59 101.9,-128.04"/>
<polygon fill="#63b8ff" stroke="#63b8ff" points="126.36,-127.1 135.57,-121.85 125.1,-120.21 126.36,-127.1"/>
</a>
</g>
</g>
<!-- Node4 -->
<g id="Node000004" class="node">
<title>Node4</title>
<g id="a_Node000004"><a xlink:href="class_indicator_interface.html#a7da1cedbcb4ab157e483afcd02f35066" target="_top" xlink:title=" ">
<polygon fill="white" stroke="#666666" points="100.38,-103.5 1.12,-103.5 1.12,-73 100.38,-73 100.38,-103.5"/>
<text xml:space="preserve" text-anchor="start" x="9.12" y="-90" font-family="Helvetica,sans-Serif" font-size="10.00">IndicatorInterface</text>
<text xml:space="preserve" text-anchor="middle" x="50.75" y="-78.75" font-family="Helvetica,sans-Serif" font-size="10.00">::setAllOutputsLow</text>
</a>
</g>
</g>
<!-- Node2&#45;&gt;Node4 -->
<g id="edge3_Node000002_Node000004" class="edge">
<title>Node2&#45;&gt;Node4</title>
<g id="a_edge3_Node000002_Node000004"><a xlink:title=" ">
<path fill="none" stroke="#63b8ff" d="M125.77,-102.42C117.37,-100.81 108.78,-99.16 100.55,-97.59"/>
<polygon fill="#63b8ff" stroke="#63b8ff" points="125.09,-105.85 135.57,-104.29 126.4,-98.97 125.09,-105.85"/>
</a>
</g>
</g>
</g>
</svg>
