<?xml version="1.0" encoding="UTF-8" standalone="no"?>
<!DOCTYPE svg PUBLIC "-//W3C//DTD SVG 1.1//EN"
 "http://www.w3.org/Graphics/SVG/1.1/DTD/svg11.dtd">
<!-- Generated by graphviz version 13.1.0 (20250701.0955)
 -->
<!-- Title: ConfigManager::logsAPI Pages: 1 -->
<svg width="719pt" height="291pt"
 viewBox="0.00 0.00 719.00 291.00" xmlns="http://www.w3.org/2000/svg" xmlns:xlink="http://www.w3.org/1999/xlink">
<g id="graph0" class="graph" transform="scale(1 1) rotate(0) translate(4 286.88)">
<title>ConfigManager::logsAPI</title>
<!-- Node1 -->
<g id="Node000001" class="node">
<title>Node1</title>
<g id="a_Node000001"><a xlink:title=" ">
<polygon fill="#999999" stroke="#666666" points="122.5,-153.88 0,-153.88 0,-134.62 122.5,-134.62 122.5,-153.88"/>
<text xml:space="preserve" text-anchor="middle" x="61.25" y="-140.38" font-family="Helvetica,sans-Serif" font-size="10.00">ConfigManager::logsAPI</text>
</a>
</g>
</g>
<!-- Node2 -->
<g id="Node000002" class="node">
<title>Node2</title>
<g id="a_Node000002"><a xlink:href="class_logger_manager.html#a612d1bdfbfd0d93f9452fd7bac8775ca" target="_top" xlink:title=" ">
<polygon fill="white" stroke="#666666" points="337.25,-282.88 160,-282.88 160,-263.62 337.25,-263.62 337.25,-282.88"/>
<text xml:space="preserve" text-anchor="middle" x="248.62" y="-269.38" font-family="Helvetica,sans-Serif" font-size="10.00">LoggerManager::getAlarmHistoryCsv</text>
</a>
</g>
</g>
<!-- Node1&#45;&gt;Node2 -->
<g id="edge1_Node000001_Node000002" class="edge">
<title>Node1&#45;&gt;Node2</title>
<g id="a_edge1_Node000001_Node000002"><a xlink:title=" ">
<path fill="none" stroke="#63b8ff" d="M67.73,-154.17C80.47,-176.26 114.43,-229.56 158.5,-255.25 160.72,-256.54 163.01,-257.74 165.36,-258.86"/>
<polygon fill="#63b8ff" stroke="#63b8ff" points="164.02,-262.09 174.6,-262.65 166.68,-255.61 164.02,-262.09"/>
</a>
</g>
</g>
<!-- Node5 -->
<g id="Node000005" class="node">
<title>Node5</title>
<g id="a_Node000005"><a xlink:href="class_logger_manager.html#af04d8d79f7bcb9ff4dace5b490502b50" target="_top" xlink:title=" ">
<polygon fill="white" stroke="#666666" points="338.75,-245.88 158.5,-245.88 158.5,-226.62 338.75,-226.62 338.75,-245.88"/>
<text xml:space="preserve" text-anchor="middle" x="248.62" y="-232.38" font-family="Helvetica,sans-Serif" font-size="10.00">LoggerManager::getAlarmHistoryJson</text>
</a>
</g>
</g>
<!-- Node1&#45;&gt;Node5 -->
<g id="edge4_Node000001_Node000005" class="edge">
<title>Node1&#45;&gt;Node5</title>
<g id="a_edge4_Node000001_Node000005"><a xlink:title=" ">
<path fill="none" stroke="#63b8ff" d="M72.21,-154.25C88.67,-170.17 123.22,-201.09 158.5,-217.25 163.07,-219.34 167.89,-221.21 172.81,-222.88"/>
<polygon fill="#63b8ff" stroke="#63b8ff" points="171.67,-226.19 182.26,-225.76 173.72,-219.49 171.67,-226.19"/>
</a>
</g>
</g>
<!-- Node7 -->
<g id="Node000007" class="node">
<title>Node7</title>
<g id="a_Node000007"><a xlink:href="class_logger_manager.html#a19e6a7d2c3ad2b1d3fa5acb578fb1619" target="_top" xlink:title=" ">
<polygon fill="white" stroke="#666666" points="324.12,-208.5 173.12,-208.5 173.12,-178 324.12,-178 324.12,-208.5"/>
<text xml:space="preserve" text-anchor="start" x="181.12" y="-195" font-family="Helvetica,sans-Serif" font-size="10.00">LoggerManager::getAlarmState</text>
<text xml:space="preserve" text-anchor="middle" x="248.62" y="-183.75" font-family="Helvetica,sans-Serif" font-size="10.00">LogFiles</text>
</a>
</g>
</g>
<!-- Node1&#45;&gt;Node7 -->
<g id="edge7_Node000001_Node000007" class="edge">
<title>Node1&#45;&gt;Node7</title>
<g id="a_edge7_Node000001_Node000007"><a xlink:title=" ">
<path fill="none" stroke="#63b8ff" d="M100.21,-154.28C122.36,-160.14 151.01,-167.71 177.15,-174.62"/>
<polygon fill="#63b8ff" stroke="#63b8ff" points="176.15,-177.98 186.72,-177.15 177.94,-171.21 176.15,-177.98"/>
</a>
</g>
</g>
<!-- Node8 -->
<g id="Node000008" class="node">
<title>Node8</title>
<g id="a_Node000008"><a xlink:href="class_logger_manager.html#a782a868803b4e2861169796aad7b8b60" target="_top" xlink:title=" ">
<polygon fill="white" stroke="#666666" points="320.38,-159.5 176.88,-159.5 176.88,-129 320.38,-129 320.38,-159.5"/>
<text xml:space="preserve" text-anchor="start" x="184.88" y="-146" font-family="Helvetica,sans-Serif" font-size="10.00">LoggerManager::getEventLog</text>
<text xml:space="preserve" text-anchor="middle" x="248.62" y="-134.75" font-family="Helvetica,sans-Serif" font-size="10.00">FilesStatic</text>
</a>
</g>
</g>
<!-- Node1&#45;&gt;Node8 -->
<g id="edge8_Node000001_Node000008" class="edge">
<title>Node1&#45;&gt;Node8</title>
<g id="a_edge8_Node000001_Node000008"><a xlink:title=" ">
<path fill="none" stroke="#63b8ff" d="M122.95,-144.25C136.45,-144.25 150.98,-144.25 165.18,-144.25"/>
<polygon fill="#63b8ff" stroke="#63b8ff" points="164.96,-147.75 174.96,-144.25 164.96,-140.75 164.96,-147.75"/>
</a>
</g>
</g>
<!-- Node9 -->
<g id="Node000009" class="node">
<title>Node9</title>
<g id="a_Node000009"><a xlink:href="class_logger_manager.html#a752cebdb1c0344890d265af9daee8313" target="_top" xlink:title=" ">
<polygon fill="white" stroke="#666666" points="332,-110.88 165.25,-110.88 165.25,-91.62 332,-91.62 332,-110.88"/>
<text xml:space="preserve" text-anchor="middle" x="248.62" y="-97.38" font-family="Helvetica,sans-Serif" font-size="10.00">LoggerManager::getEventLogsCsv</text>
</a>
</g>
</g>
<!-- Node1&#45;&gt;Node9 -->
<g id="edge9_Node000001_Node000009" class="edge">
<title>Node1&#45;&gt;Node9</title>
<g id="a_edge9_Node000001_Node000009"><a xlink:title=" ">
<path fill="none" stroke="#63b8ff" d="M101.51,-134.14C118.94,-129.73 139.71,-124.59 158.5,-120.25 168.02,-118.05 178.13,-115.8 188,-113.67"/>
<polygon fill="#63b8ff" stroke="#63b8ff" points="188.47,-117.14 197.51,-111.62 187,-110.3 188.47,-117.14"/>
</a>
</g>
</g>
<!-- Node11 -->
<g id="Node000011" class="node">
<title>Node11</title>
<g id="a_Node000011"><a xlink:href="class_logger_manager.html#a8e154caf5cdb9dd50722e2f52314e383" target="_top" xlink:title=" ">
<polygon fill="white" stroke="#666666" points="333.5,-24.88 163.75,-24.88 163.75,-5.62 333.5,-5.62 333.5,-24.88"/>
<text xml:space="preserve" text-anchor="middle" x="248.62" y="-11.38" font-family="Helvetica,sans-Serif" font-size="10.00">LoggerManager::getEventLogsJson</text>
</a>
</g>
</g>
<!-- Node1&#45;&gt;Node11 -->
<g id="edge12_Node000001_Node000011" class="edge">
<title>Node1&#45;&gt;Node11</title>
<g id="a_edge12_Node000001_Node000011"><a xlink:title=" ">
<path fill="none" stroke="#63b8ff" d="M67.77,-134.45C80.61,-112.63 114.74,-59.95 158.5,-34.25 161.47,-32.5 164.59,-30.92 167.79,-29.48"/>
<polygon fill="#63b8ff" stroke="#63b8ff" points="168.87,-32.81 176.9,-25.9 166.31,-26.3 168.87,-32.81"/>
</a>
</g>
</g>
<!-- Node13 -->
<g id="Node000013" class="node">
<title>Node13</title>
<g id="a_Node000013"><a xlink:href="class_logger_manager.html#ab16e7ab4b0cc70674b9b87118f72d805" target="_top" xlink:title=" ">
<polygon fill="white" stroke="#666666" points="320.38,-73.5 176.88,-73.5 176.88,-43 320.38,-43 320.38,-73.5"/>
<text xml:space="preserve" text-anchor="start" x="184.88" y="-60" font-family="Helvetica,sans-Serif" font-size="10.00">LoggerManager::getEventLog</text>
<text xml:space="preserve" text-anchor="middle" x="248.62" y="-48.75" font-family="Helvetica,sans-Serif" font-size="10.00">StatsJson</text>
</a>
</g>
</g>
<!-- Node1&#45;&gt;Node13 -->
<g id="edge15_Node000001_Node000013" class="edge">
<title>Node1&#45;&gt;Node13</title>
<g id="a_edge15_Node000001_Node000013"><a xlink:title=" ">
<path fill="none" stroke="#63b8ff" d="M74.9,-134.26C92.64,-120.7 126.34,-96.52 158.5,-82.25 162.23,-80.59 166.11,-79.03 170.06,-77.55"/>
<polygon fill="#63b8ff" stroke="#63b8ff" points="170.93,-80.96 179.22,-74.36 168.62,-74.35 170.93,-80.96"/>
</a>
</g>
</g>
<!-- Node3 -->
<g id="Node000003" class="node">
<title>Node3</title>
<g id="a_Node000003"><a xlink:href="class_logger_manager.html#a0bd4f43205e247f114f1a49a8de438d5" target="_top" xlink:title=" ">
<polygon fill="white" stroke="#666666" points="513,-269.5 380,-269.5 380,-239 513,-239 513,-269.5"/>
<text xml:space="preserve" text-anchor="start" x="388" y="-256" font-family="Helvetica,sans-Serif" font-size="10.00">LoggerManager::_getAlarm</text>
<text xml:space="preserve" text-anchor="middle" x="446.5" y="-244.75" font-family="Helvetica,sans-Serif" font-size="10.00">LogFilesInRange</text>
</a>
</g>
</g>
<!-- Node2&#45;&gt;Node3 -->
<g id="edge2_Node000002_Node000003" class="edge">
<title>Node2&#45;&gt;Node3</title>
<g id="a_edge2_Node000002_Node000003"><a xlink:title=" ">
<path fill="none" stroke="#63b8ff" d="M337.54,-264.72C347.81,-263.73 358.23,-262.72 368.34,-261.73"/>
<polygon fill="#63b8ff" stroke="#63b8ff" points="368.47,-265.24 378.09,-260.79 367.8,-258.27 368.47,-265.24"/>
</a>
</g>
</g>
<!-- Node4 -->
<g id="Node000004" class="node">
<title>Node4</title>
<g id="a_Node000004"><a xlink:href="class_logger_manager.html#ab4c92b3ff3b5f56dc21d6ef8835c310b" target="_top" xlink:title=" ">
<polygon fill="white" stroke="#666666" points="711.25,-168.88 554.25,-168.88 554.25,-149.62 711.25,-149.62 711.25,-168.88"/>
<text xml:space="preserve" text-anchor="middle" x="632.75" y="-155.38" font-family="Helvetica,sans-Serif" font-size="10.00">LoggerManager::_normalizeDate</text>
</a>
</g>
</g>
<!-- Node3&#45;&gt;Node4 -->
<g id="edge3_Node000003_Node000004" class="edge">
<title>Node3&#45;&gt;Node4</title>
<g id="a_edge3_Node000003_Node000004"><a xlink:title=" ">
<path fill="none" stroke="#63b8ff" d="M496.39,-238.51C503.82,-235.68 511.32,-232.57 518.25,-229.25 550.85,-213.66 585.89,-191.05 608.28,-175.79"/>
<polygon fill="#63b8ff" stroke="#63b8ff" points="610.13,-178.76 616.37,-170.2 606.16,-173 610.13,-178.76"/>
</a>
</g>
</g>
<!-- Node5&#45;&gt;Node3 -->
<g id="edge5_Node000005_Node000003" class="edge">
<title>Node5&#45;&gt;Node3</title>
<g id="a_edge5_Node000005_Node000003"><a xlink:title=" ">
<path fill="none" stroke="#63b8ff" d="M338.96,-244.46C348.83,-245.37 358.81,-246.28 368.5,-247.17"/>
<polygon fill="#63b8ff" stroke="#63b8ff" points="367.94,-250.64 378.22,-248.07 368.58,-243.67 367.94,-250.64"/>
</a>
</g>
</g>
<!-- Node6 -->
<g id="Node000006" class="node">
<title>Node6</title>
<g id="a_Node000006"><a xlink:href="class_logger_manager.html#a5ec50d53433ca34a292d19dfb30042fc" target="_top" xlink:title=" ">
<polygon fill="white" stroke="#666666" points="518.25,-220.5 374.75,-220.5 374.75,-190 518.25,-190 518.25,-220.5"/>
<text xml:space="preserve" text-anchor="start" x="382.75" y="-207" font-family="Helvetica,sans-Serif" font-size="10.00">LoggerManager::_parseAlarm</text>
<text xml:space="preserve" text-anchor="middle" x="446.5" y="-195.75" font-family="Helvetica,sans-Serif" font-size="10.00">StateLogEntry</text>
</a>
</g>
</g>
<!-- Node5&#45;&gt;Node6 -->
<g id="edge6_Node000005_Node000006" class="edge">
<title>Node5&#45;&gt;Node6</title>
<g id="a_edge6_Node000005_Node000006"><a xlink:title=" ">
<path fill="none" stroke="#63b8ff" d="M313.49,-226.14C329.27,-223.64 346.41,-220.93 362.94,-218.32"/>
<polygon fill="#63b8ff" stroke="#63b8ff" points="363.44,-221.78 372.77,-216.76 362.34,-214.87 363.44,-221.78"/>
</a>
</g>
</g>
<!-- Node10 -->
<g id="Node000010" class="node">
<title>Node10</title>
<g id="a_Node000010"><a xlink:href="class_logger_manager.html#ad3222128e4c210c2006e314966c511f5" target="_top" xlink:title=" ">
<polygon fill="white" stroke="#666666" points="513,-98.5 380,-98.5 380,-68 513,-68 513,-98.5"/>
<text xml:space="preserve" text-anchor="start" x="388" y="-85" font-family="Helvetica,sans-Serif" font-size="10.00">LoggerManager::_getEvent</text>
<text xml:space="preserve" text-anchor="middle" x="446.5" y="-73.75" font-family="Helvetica,sans-Serif" font-size="10.00">LogFilesInRange</text>
</a>
</g>
</g>
<!-- Node9&#45;&gt;Node10 -->
<g id="edge10_Node000009_Node000010" class="edge">
<title>Node9&#45;&gt;Node10</title>
<g id="a_edge10_Node000009_Node000010"><a xlink:title=" ">
<path fill="none" stroke="#63b8ff" d="M332.41,-93.64C344.36,-92.54 356.61,-91.42 368.44,-90.33"/>
<polygon fill="#63b8ff" stroke="#63b8ff" points="368.49,-93.84 378.12,-89.44 367.85,-86.87 368.49,-93.84"/>
</a>
</g>
</g>
<!-- Node10&#45;&gt;Node4 -->
<g id="edge11_Node000010_Node000004" class="edge">
<title>Node10&#45;&gt;Node4</title>
<g id="a_edge11_Node000010_Node000004"><a xlink:title=" ">
<path fill="none" stroke="#63b8ff" d="M485.68,-99C518.4,-112.49 565.13,-131.77 596.86,-144.86"/>
<polygon fill="#63b8ff" stroke="#63b8ff" points="595.43,-148.06 606.01,-148.63 598.1,-141.59 595.43,-148.06"/>
</a>
</g>
</g>
<!-- Node11&#45;&gt;Node10 -->
<g id="edge13_Node000011_Node000010" class="edge">
<title>Node11&#45;&gt;Node10</title>
<g id="a_edge13_Node000011_Node000010"><a xlink:title=" ">
<path fill="none" stroke="#63b8ff" d="M306.23,-25.35C317.14,-27.85 328.39,-30.81 338.75,-34.25 361.72,-41.87 386.33,-52.95 406.13,-62.65"/>
<polygon fill="#63b8ff" stroke="#63b8ff" points="404.43,-65.72 414.95,-67.04 407.56,-59.45 404.43,-65.72"/>
</a>
</g>
</g>
<!-- Node12 -->
<g id="Node000012" class="node">
<title>Node12</title>
<g id="a_Node000012"><a xlink:href="class_logger_manager.html#a26f82b651be286678438022bbfbd21d7" target="_top" xlink:title=" ">
<polygon fill="white" stroke="#666666" points="518.25,-30.5 374.75,-30.5 374.75,0 518.25,0 518.25,-30.5"/>
<text xml:space="preserve" text-anchor="start" x="382.75" y="-17" font-family="Helvetica,sans-Serif" font-size="10.00">LoggerManager::_parseEvent</text>
<text xml:space="preserve" text-anchor="middle" x="446.5" y="-5.75" font-family="Helvetica,sans-Serif" font-size="10.00">LogEntry</text>
</a>
</g>
</g>
<!-- Node11&#45;&gt;Node12 -->
<g id="edge14_Node000011_Node000012" class="edge">
<title>Node11&#45;&gt;Node12</title>
<g id="a_edge14_Node000011_Node000012"><a xlink:title=" ">
<path fill="none" stroke="#63b8ff" d="M333.83,-15.25C343.52,-15.25 353.39,-15.25 363.06,-15.25"/>
<polygon fill="#63b8ff" stroke="#63b8ff" points="362.77,-18.75 372.77,-15.25 362.77,-11.75 362.77,-18.75"/>
</a>
</g>
</g>
<!-- Node13&#45;&gt;Node10 -->
<g id="edge16_Node000013_Node000010" class="edge">
<title>Node13&#45;&gt;Node10</title>
<g id="a_edge16_Node000013_Node000010"><a xlink:title=" ">
<path fill="none" stroke="#63b8ff" d="M320.62,-67.31C336.12,-69.29 352.61,-71.39 368.34,-73.4"/>
<polygon fill="#63b8ff" stroke="#63b8ff" points="367.77,-76.86 378.14,-74.65 368.66,-69.91 367.77,-76.86"/>
</a>
</g>
</g>
</g>
</svg>
