<?xml version="1.0" encoding="UTF-8" standalone="no"?>
<!DOCTYPE svg PUBLIC "-//W3C//DTD SVG 1.1//EN"
 "http://www.w3.org/Graphics/SVG/1.1/DTD/svg11.dtd">
<!-- Generated by graphviz version 13.1.0 (20250701.0955)
 -->
<!-- Title: TemperatureController::setRelayControlMode Pages: 1 -->
<svg width="421pt" height="113pt"
 viewBox="0.00 0.00 421.00 113.00" xmlns="http://www.w3.org/2000/svg" xmlns:xlink="http://www.w3.org/1999/xlink">
<g id="graph0" class="graph" transform="scale(1 1) rotate(0) translate(4 109.25)">
<title>TemperatureController::setRelayControlMode</title>
<!-- Node1 -->
<g id="Node000001" class="node">
<title>Node1</title>
<g id="a_Node000001"><a xlink:title="Set relay control mode.">
<polygon fill="#999999" stroke="#666666" points="116.5,-67.88 0,-67.88 0,-37.38 116.5,-37.38 116.5,-67.88"/>
<text xml:space="preserve" text-anchor="start" x="8" y="-54.38" font-family="Helvetica,sans-Serif" font-size="10.00">TemperatureController</text>
<text xml:space="preserve" text-anchor="middle" x="58.25" y="-43.12" font-family="Helvetica,sans-Serif" font-size="10.00">::setRelayControlMode</text>
</a>
</g>
</g>
<!-- Node2 -->
<g id="Node000002" class="node">
<title>Node2</title>
<g id="a_Node000002"><a xlink:href="class_logger_manager.html#aef24f00186213fa78be3b104a50d58e6" target="_top" xlink:title="Log error message (static convenience method)">
<polygon fill="white" stroke="#666666" points="262.62,-105.25 154.38,-105.25 154.38,-86 262.62,-86 262.62,-105.25"/>
<text xml:space="preserve" text-anchor="middle" x="208.5" y="-91.75" font-family="Helvetica,sans-Serif" font-size="10.00">LoggerManager::error</text>
</a>
</g>
</g>
<!-- Node1&#45;&gt;Node2 -->
<g id="edge1_Node000001_Node000002" class="edge">
<title>Node1&#45;&gt;Node2</title>
<g id="a_edge1_Node000001_Node000002"><a xlink:title=" ">
<path fill="none" stroke="#63b8ff" d="M113.19,-68.27C129.18,-72.91 146.52,-77.94 161.93,-82.41"/>
<polygon fill="#63b8ff" stroke="#63b8ff" points="160.72,-85.7 171.3,-85.13 162.67,-78.98 160.72,-85.7"/>
</a>
</g>
</g>
<!-- Node3 -->
<g id="Node000003" class="node">
<title>Node3</title>
<g id="a_Node000003"><a xlink:href="class_temperature_controller.html#a82e4c37ff4121eaf5e00e9c52381e840" target="_top" xlink:title="Handle alarm output signals.">
<polygon fill="white" stroke="#666666" points="264.5,-67.88 152.5,-67.88 152.5,-37.38 264.5,-37.38 264.5,-67.88"/>
<text xml:space="preserve" text-anchor="start" x="160.5" y="-54.38" font-family="Helvetica,sans-Serif" font-size="10.00">TemperatureController</text>
<text xml:space="preserve" text-anchor="middle" x="208.5" y="-43.12" font-family="Helvetica,sans-Serif" font-size="10.00">::handleAlarmOutputs</text>
</a>
</g>
</g>
<!-- Node1&#45;&gt;Node3 -->
<g id="edge2_Node000001_Node000003" class="edge">
<title>Node1&#45;&gt;Node3</title>
<g id="a_edge2_Node000001_Node000003"><a xlink:title=" ">
<path fill="none" stroke="#63b8ff" d="M116.99,-52.62C124.75,-52.62 132.76,-52.62 140.65,-52.62"/>
<polygon fill="#63b8ff" stroke="#63b8ff" points="140.59,-56.13 150.59,-52.63 140.59,-49.13 140.59,-56.13"/>
</a>
</g>
</g>
<!-- Node5 -->
<g id="Node000005" class="node">
<title>Node5</title>
<g id="a_Node000005"><a xlink:href="class_logger_manager.html#a5c1373ccc47f4112b596fe6f84fbbc21" target="_top" xlink:title="Log informational message (static convenience method)">
<polygon fill="white" stroke="#666666" points="408.75,-19.25 304.25,-19.25 304.25,0 408.75,0 408.75,-19.25"/>
<text xml:space="preserve" text-anchor="middle" x="356.5" y="-5.75" font-family="Helvetica,sans-Serif" font-size="10.00">LoggerManager::info</text>
</a>
</g>
</g>
<!-- Node1&#45;&gt;Node5 -->
<g id="edge5_Node000001_Node000005" class="edge">
<title>Node1&#45;&gt;Node5</title>
<g id="a_edge5_Node000001_Node000005"><a xlink:title=" ">
<path fill="none" stroke="#63b8ff" d="M114.16,-36.95C126.68,-33.81 139.98,-30.81 152.5,-28.62 199.1,-20.5 252.36,-15.68 292.63,-12.93"/>
<polygon fill="#63b8ff" stroke="#63b8ff" points="292.63,-16.44 302.38,-12.29 292.17,-9.45 292.63,-16.44"/>
</a>
</g>
</g>
<!-- Node4 -->
<g id="Node000004" class="node">
<title>Node4</title>
<g id="a_Node000004"><a xlink:href="class_temperature_controller.html#a3022c7a72adb45a7800d5189eecdac4e" target="_top" xlink:title="Get total number of configured alarms.">
<polygon fill="white" stroke="#666666" points="412.5,-67.88 300.5,-67.88 300.5,-37.38 412.5,-37.38 412.5,-67.88"/>
<text xml:space="preserve" text-anchor="start" x="308.5" y="-54.38" font-family="Helvetica,sans-Serif" font-size="10.00">TemperatureController</text>
<text xml:space="preserve" text-anchor="middle" x="356.5" y="-43.12" font-family="Helvetica,sans-Serif" font-size="10.00">::getAlarmCount</text>
</a>
</g>
</g>
<!-- Node3&#45;&gt;Node4 -->
<g id="edge3_Node000003_Node000004" class="edge">
<title>Node3&#45;&gt;Node4</title>
<g id="a_edge3_Node000003_Node000004"><a xlink:title=" ">
<path fill="none" stroke="#63b8ff" d="M264.7,-52.62C272.6,-52.62 280.8,-52.62 288.89,-52.62"/>
<polygon fill="#63b8ff" stroke="#63b8ff" points="288.71,-56.13 298.71,-52.63 288.71,-49.13 288.71,-56.13"/>
</a>
</g>
</g>
<!-- Node3&#45;&gt;Node5 -->
<g id="edge4_Node000003_Node000005" class="edge">
<title>Node3&#45;&gt;Node5</title>
<g id="a_edge4_Node000003_Node000005"><a xlink:title=" ">
<path fill="none" stroke="#63b8ff" d="M262.62,-36.98C278.37,-32.34 295.45,-27.31 310.62,-22.84"/>
<polygon fill="#63b8ff" stroke="#63b8ff" points="311.23,-26.31 319.83,-20.13 309.25,-19.6 311.23,-26.31"/>
</a>
</g>
</g>
</g>
</svg>
