<?xml version="1.0" encoding="UTF-8" standalone="no"?>
<!DOCTYPE svg PUBLIC "-//W3C//DTD SVG 1.1//EN"
 "http://www.w3.org/Graphics/SVG/1.1/DTD/svg11.dtd">
<!-- Generated by graphviz version 13.1.0 (20250701.0955)
 -->
<!-- Title: TemperatureController::_updateAlarmQueues Pages: 1 -->
<svg width="272pt" height="76pt"
 viewBox="0.00 0.00 272.00 76.00" xmlns="http://www.w3.org/2000/svg" xmlns:xlink="http://www.w3.org/1999/xlink">
<g id="graph0" class="graph" transform="scale(1 1) rotate(0) translate(4 71.88)">
<title>TemperatureController::_updateAlarmQueues</title>
<!-- Node1 -->
<g id="Node000001" class="node">
<title>Node1</title>
<g id="a_Node000001"><a xlink:title=" ">
<polygon fill="#999999" stroke="#666666" points="115.75,-45.88 0,-45.88 0,-15.37 115.75,-15.37 115.75,-45.88"/>
<text xml:space="preserve" text-anchor="start" x="8" y="-32.38" font-family="Helvetica,sans-Serif" font-size="10.00">TemperatureController</text>
<text xml:space="preserve" text-anchor="middle" x="57.88" y="-21.12" font-family="Helvetica,sans-Serif" font-size="10.00">::_updateAlarmQueues</text>
</a>
</g>
</g>
<!-- Node2 -->
<g id="Node000002" class="node">
<title>Node2</title>
<g id="a_Node000002"><a xlink:href="class_temperature_controller.html#af58201023d15de003d4f1b9a9771a9e3" target="_top" xlink:title=" ">
<polygon fill="white" stroke="#666666" points="263.75,-67.88 151.75,-67.88 151.75,-37.38 263.75,-37.38 263.75,-67.88"/>
<text xml:space="preserve" text-anchor="start" x="159.75" y="-54.38" font-family="Helvetica,sans-Serif" font-size="10.00">TemperatureController</text>
<text xml:space="preserve" text-anchor="middle" x="207.75" y="-43.12" font-family="Helvetica,sans-Serif" font-size="10.00">::getActiveAlarms</text>
</a>
</g>
</g>
<!-- Node1&#45;&gt;Node2 -->
<g id="edge1_Node000001_Node000002" class="edge">
<title>Node1&#45;&gt;Node2</title>
<g id="a_edge1_Node000001_Node000002"><a xlink:title=" ">
<path fill="none" stroke="#63b8ff" d="M116.05,-39.13C124,-40.31 132.23,-41.54 140.34,-42.74"/>
<polygon fill="#63b8ff" stroke="#63b8ff" points="139.77,-46.2 150.18,-44.21 140.8,-39.27 139.77,-46.2"/>
</a>
</g>
</g>
<!-- Node3 -->
<g id="Node000003" class="node">
<title>Node3</title>
<g id="a_Node000003"><a xlink:href="class_alarm.html#a7a4a3290a6a659542f82fe08a96736a8" target="_top" xlink:title=" ">
<polygon fill="white" stroke="#666666" points="262.62,-19.25 152.88,-19.25 152.88,0 262.62,0 262.62,-19.25"/>
<text xml:space="preserve" text-anchor="middle" x="207.75" y="-5.75" font-family="Helvetica,sans-Serif" font-size="10.00">Alarm::getTimestamp</text>
</a>
</g>
</g>
<!-- Node1&#45;&gt;Node3 -->
<g id="edge2_Node000001_Node000003" class="edge">
<title>Node1&#45;&gt;Node3</title>
<g id="a_edge2_Node000001_Node000003"><a xlink:title=" ">
<path fill="none" stroke="#63b8ff" d="M116.05,-22.51C124.32,-21.33 132.88,-20.12 141.3,-18.92"/>
<polygon fill="#63b8ff" stroke="#63b8ff" points="141.73,-22.39 151.14,-17.52 140.75,-15.46 141.73,-22.39"/>
</a>
</g>
</g>
</g>
</svg>
