<?xml version="1.0" encoding="UTF-8" standalone="no"?>
<!DOCTYPE svg PUBLIC "-//W3C//DTD SVG 1.1//EN"
 "http://www.w3.org/Graphics/SVG/1.1/DTD/svg11.dtd">
<!-- Generated by graphviz version 13.1.0 (20250701.0955)
 -->
<!-- Title: Alarm::isEnabled Pages: 1 -->
<svg width="591pt" height="76pt"
 viewBox="0.00 0.00 591.00 76.00" xmlns="http://www.w3.org/2000/svg" xmlns:xlink="http://www.w3.org/1999/xlink">
<g id="graph0" class="graph" transform="scale(1 1) rotate(0) translate(4 71.88)">
<title>Alarm::isEnabled</title>
<!-- Node1 -->
<g id="Node000001" class="node">
<title>Node1</title>
<g id="a_Node000001"><a xlink:title="Check if alarm is enabled in configuration.">
<polygon fill="#999999" stroke="#666666" points="583,-45.88 492.75,-45.88 492.75,-26.62 583,-26.62 583,-45.88"/>
<text xml:space="preserve" text-anchor="middle" x="537.88" y="-32.38" font-family="Helvetica,sans-Serif" font-size="10.00">Alarm::isEnabled</text>
</a>
</g>
</g>
<!-- Node2 -->
<g id="Node000002" class="node">
<title>Node2</title>
<g id="a_Node000002"><a xlink:href="$class_config_manager.html#aa15fcaf6330fd73a87e8c6f63e8ab9d5" xlink:title="Save alarms configuration to file.">
<polygon fill="white" stroke="#666666" points="456.75,-51.5 317,-51.5 317,-21 456.75,-21 456.75,-51.5"/>
<text xml:space="preserve" text-anchor="start" x="325" y="-38" font-family="Helvetica,sans-Serif" font-size="10.00">ConfigManager::saveAlarms</text>
<text xml:space="preserve" text-anchor="middle" x="386.88" y="-26.75" font-family="Helvetica,sans-Serif" font-size="10.00">Config</text>
</a>
</g>
</g>
<!-- Node1&#45;&gt;Node2 -->
<g id="edge1_Node000001_Node000002" class="edge">
<title>Node1&#45;&gt;Node2</title>
<g id="a_edge1_Node000001_Node000002"><a xlink:title=" ">
<path fill="none" stroke="#63b8ff" d="M481.29,-36.25C473.41,-36.25 465.23,-36.25 457.13,-36.25"/>
<polygon fill="#63b8ff" stroke="#63b8ff" points="481.06,-39.75 491.06,-36.25 481.06,-32.75 481.06,-39.75"/>
</a>
</g>
</g>
<!-- Node3 -->
<g id="Node000003" class="node">
<title>Node3</title>
<g id="a_Node000003"><a xlink:href="$class_config_manager.html#ae605c999fabc6344511f455618655326" xlink:title="Setup alarms API endpoints.">
<polygon fill="white" stroke="#666666" points="281,-67.88 147.25,-67.88 147.25,-48.62 281,-48.62 281,-67.88"/>
<text xml:space="preserve" text-anchor="middle" x="214.12" y="-54.38" font-family="Helvetica,sans-Serif" font-size="10.00">ConfigManager::alarmsAPI</text>
</a>
</g>
</g>
<!-- Node2&#45;&gt;Node3 -->
<g id="edge2_Node000002_Node000003" class="edge">
<title>Node2&#45;&gt;Node3</title>
<g id="a_edge2_Node000002_Node000003"><a xlink:title=" ">
<path fill="none" stroke="#63b8ff" d="M305.52,-46.6C297.41,-47.65 289.23,-48.7 281.3,-49.72"/>
<polygon fill="#63b8ff" stroke="#63b8ff" points="305.94,-50.08 315.42,-45.33 305.05,-43.13 305.94,-50.08"/>
</a>
</g>
</g>
<!-- Node5 -->
<g id="Node000005" class="node">
<title>Node5</title>
<g id="a_Node000005"><a xlink:href="$class_config_manager.html#a9b7af07b85bf9cc3ac05603db6e89fd2" xlink:title="Setup CSV import/export API endpoints.">
<polygon fill="white" stroke="#666666" points="279.88,-30.5 148.38,-30.5 148.38,0 279.88,0 279.88,-30.5"/>
<text xml:space="preserve" text-anchor="start" x="156.38" y="-17" font-family="Helvetica,sans-Serif" font-size="10.00">ConfigManager::csvImport</text>
<text xml:space="preserve" text-anchor="middle" x="214.12" y="-5.75" font-family="Helvetica,sans-Serif" font-size="10.00">ExportAPI</text>
</a>
</g>
</g>
<!-- Node2&#45;&gt;Node5 -->
<g id="edge4_Node000002_Node000005" class="edge">
<title>Node2&#45;&gt;Node5</title>
<g id="a_edge4_Node000002_Node000005"><a xlink:title=" ">
<path fill="none" stroke="#63b8ff" d="M305.73,-26.39C297.18,-25.34 288.55,-24.28 280.19,-23.25"/>
<polygon fill="#63b8ff" stroke="#63b8ff" points="305.06,-29.84 315.41,-27.58 305.92,-22.89 305.06,-29.84"/>
</a>
</g>
</g>
<!-- Node4 -->
<g id="Node000004" class="node">
<title>Node4</title>
<g id="a_Node000004"><a xlink:href="$class_config_manager.html#a0497343220fc493f5cf9574922508908" xlink:title="Initialize the configuration system.">
<polygon fill="white" stroke="#666666" points="111.25,-45.88 0,-45.88 0,-26.62 111.25,-26.62 111.25,-45.88"/>
<text xml:space="preserve" text-anchor="middle" x="55.62" y="-32.38" font-family="Helvetica,sans-Serif" font-size="10.00">ConfigManager::begin</text>
</a>
</g>
</g>
<!-- Node3&#45;&gt;Node4 -->
<g id="edge3_Node000003_Node000004" class="edge">
<title>Node3&#45;&gt;Node4</title>
<g id="a_edge3_Node000003_Node000004"><a xlink:title=" ">
<path fill="none" stroke="#63b8ff" d="M135.59,-47.35C127.37,-46.2 119.14,-45.04 111.27,-43.93"/>
<polygon fill="#63b8ff" stroke="#63b8ff" points="134.87,-50.78 145.26,-48.71 135.84,-43.85 134.87,-50.78"/>
</a>
</g>
</g>
<!-- Node5&#45;&gt;Node4 -->
<g id="edge5_Node000005_Node000004" class="edge">
<title>Node5&#45;&gt;Node4</title>
<g id="a_edge5_Node000005_Node000004"><a xlink:title=" ">
<path fill="none" stroke="#63b8ff" d="M136.97,-25.47C128.46,-26.61 119.91,-27.76 111.73,-28.86"/>
<polygon fill="#63b8ff" stroke="#63b8ff" points="137.17,-28.97 146.61,-24.17 136.24,-22.04 137.17,-28.97"/>
</a>
</g>
</g>
</g>
</svg>
