<?xml version="1.0" encoding="UTF-8" standalone="no"?>
<!DOCTYPE svg PUBLIC "-//W3C//DTD SVG 1.1//EN"
 "http://www.w3.org/Graphics/SVG/1.1/DTD/svg11.dtd">
<!-- Generated by graphviz version 13.1.0 (20250701.0955)
 -->
<!-- Title: MQTTManager::update Pages: 1 -->
<svg width="735pt" height="424pt"
 viewBox="0.00 0.00 735.00 424.00" xmlns="http://www.w3.org/2000/svg" xmlns:xlink="http://www.w3.org/1999/xlink">
<g id="graph0" class="graph" transform="scale(1 1) rotate(0) translate(4 419.5)">
<title>MQTTManager::update</title>
<!-- Node1 -->
<g id="Node000001" class="node">
<title>Node1</title>
<g id="a_Node000001"><a xlink:title="Main update function that handles connection and publishing.">
<polygon fill="#999999" stroke="#666666" points="116.5,-350.88 0,-350.88 0,-331.62 116.5,-331.62 116.5,-350.88"/>
<text xml:space="preserve" text-anchor="middle" x="58.25" y="-337.38" font-family="Helvetica,sans-Serif" font-size="10.00">MQTTManager::update</text>
</a>
</g>
</g>
<!-- Node2 -->
<g id="Node000002" class="node">
<title>Node2</title>
<g id="a_Node000002"><a xlink:href="class_m_q_t_t_manager.html#a9266e647933501851b411b6d2a9a1f95" target="_top" xlink:title="Internal loop function for connection maintenance.">
<polygon fill="white" stroke="#666666" points="301.62,-350.88 196.38,-350.88 196.38,-331.62 301.62,-331.62 301.62,-350.88"/>
<text xml:space="preserve" text-anchor="middle" x="249" y="-337.38" font-family="Helvetica,sans-Serif" font-size="10.00">MQTTManager::loop</text>
</a>
</g>
</g>
<!-- Node1&#45;&gt;Node2 -->
<g id="edge1_Node000001_Node000002" class="edge">
<title>Node1&#45;&gt;Node2</title>
<g id="a_edge1_Node000001_Node000002"><a xlink:title=" ">
<path fill="none" stroke="#63b8ff" d="M116.91,-341.25C138.42,-341.25 162.94,-341.25 184.92,-341.25"/>
<polygon fill="#63b8ff" stroke="#63b8ff" points="184.63,-344.75 194.63,-341.25 184.63,-337.75 184.63,-344.75"/>
</a>
</g>
</g>
<!-- Node7 -->
<g id="Node000007" class="node">
<title>Node7</title>
<g id="a_Node000007"><a xlink:href="class_m_q_t_t_manager.html#a295b55db26948bad7c1849198cc6480e" target="_top" xlink:title="Publish system status.">
<polygon fill="white" stroke="#666666" points="324.88,-415.5 173.12,-415.5 173.12,-385 324.88,-385 324.88,-415.5"/>
<text xml:space="preserve" text-anchor="start" x="181.12" y="-402" font-family="Helvetica,sans-Serif" font-size="10.00">MQTTManager::publishSystem</text>
<text xml:space="preserve" text-anchor="middle" x="249" y="-390.75" font-family="Helvetica,sans-Serif" font-size="10.00">Status</text>
</a>
</g>
</g>
<!-- Node1&#45;&gt;Node7 -->
<g id="edge6_Node000001_Node000007" class="edge">
<title>Node1&#45;&gt;Node7</title>
<g id="a_edge6_Node000001_Node000007"><a xlink:title=" ">
<path fill="none" stroke="#63b8ff" d="M91.27,-351.26C117.33,-359.4 154.88,-371.14 186.68,-381.08"/>
<polygon fill="#63b8ff" stroke="#63b8ff" points="185.63,-384.42 196.22,-384.07 187.72,-377.74 185.63,-384.42"/>
</a>
</g>
</g>
<!-- Node8 -->
<g id="Node000008" class="node">
<title>Node8</title>
<g id="a_Node000008"><a xlink:href="class_m_q_t_t_manager.html#abed500066c9485cb62ce17eb7c8ad197" target="_top" xlink:title="Publish temperature data.">
<polygon fill="white" stroke="#666666" points="345.5,-200.88 152.5,-200.88 152.5,-181.62 345.5,-181.62 345.5,-200.88"/>
<text xml:space="preserve" text-anchor="middle" x="249" y="-187.38" font-family="Helvetica,sans-Serif" font-size="10.00">MQTTManager::publishTemperatureData</text>
</a>
</g>
</g>
<!-- Node1&#45;&gt;Node8 -->
<g id="edge8_Node000001_Node000008" class="edge">
<title>Node1&#45;&gt;Node8</title>
<g id="a_edge8_Node000001_Node000008"><a xlink:title=" ">
<path fill="none" stroke="#63b8ff" d="M71.93,-331.18C103.76,-305.88 187.33,-239.47 226.79,-208.11"/>
<polygon fill="#63b8ff" stroke="#63b8ff" points="228.54,-211.18 234.19,-202.22 224.19,-205.7 228.54,-211.18"/>
</a>
</g>
</g>
<!-- Node3 -->
<g id="Node000003" class="node">
<title>Node3</title>
<g id="a_Node000003"><a xlink:href="class_m_q_t_t_manager.html#a76a2bc2516afb2e3aa07b847f32f611e" target="_top" xlink:title="Connect to MQTT broker.">
<polygon fill="white" stroke="#666666" points="529.12,-350.88 407.38,-350.88 407.38,-331.62 529.12,-331.62 529.12,-350.88"/>
<text xml:space="preserve" text-anchor="middle" x="468.25" y="-337.38" font-family="Helvetica,sans-Serif" font-size="10.00">MQTTManager::connect</text>
</a>
</g>
</g>
<!-- Node2&#45;&gt;Node3 -->
<g id="edge2_Node000002_Node000003" class="edge">
<title>Node2&#45;&gt;Node3</title>
<g id="a_edge2_Node000002_Node000003"><a xlink:title=" ">
<path fill="none" stroke="#63b8ff" d="M302.04,-341.25C330.09,-341.25 365.12,-341.25 395.7,-341.25"/>
<polygon fill="#63b8ff" stroke="#63b8ff" points="395.67,-344.75 405.67,-341.25 395.67,-337.75 395.67,-344.75"/>
</a>
</g>
</g>
<!-- Node4 -->
<g id="Node000004" class="node">
<title>Node4</title>
<g id="a_Node000004"><a xlink:href="class_m_q_t_t_manager.html#a542f100738a605efbd30b788835efd1d" target="_top" xlink:title="Build topic string based on configuration.">
<polygon fill="white" stroke="#666666" points="724.38,-388.88 593.62,-388.88 593.62,-369.62 724.38,-369.62 724.38,-388.88"/>
<text xml:space="preserve" text-anchor="middle" x="659" y="-375.38" font-family="Helvetica,sans-Serif" font-size="10.00">MQTTManager::buildTopic</text>
</a>
</g>
</g>
<!-- Node3&#45;&gt;Node4 -->
<g id="edge3_Node000003_Node000004" class="edge">
<title>Node3&#45;&gt;Node4</title>
<g id="a_edge3_Node000003_Node000004"><a xlink:title=" ">
<path fill="none" stroke="#63b8ff" d="M519.34,-351.33C543.11,-356.12 571.73,-361.88 596.78,-366.92"/>
<polygon fill="#63b8ff" stroke="#63b8ff" points="596.03,-370.34 606.52,-368.89 597.41,-363.48 596.03,-370.34"/>
</a>
</g>
</g>
<!-- Node5 -->
<g id="Node000005" class="node">
<title>Node5</title>
<g id="a_Node000005"><a xlink:href="class_m_q_t_t_manager.html#ae409088b01e23cd804d8ad1ae21ac23f" target="_top" xlink:title=" ">
<polygon fill="white" stroke="#666666" points="725.12,-350.88 592.88,-350.88 592.88,-331.62 725.12,-331.62 725.12,-350.88"/>
<text xml:space="preserve" text-anchor="middle" x="659" y="-337.38" font-family="Helvetica,sans-Serif" font-size="10.00">MQTTManager::connected</text>
</a>
</g>
</g>
<!-- Node3&#45;&gt;Node5 -->
<g id="edge4_Node000003_Node000005" class="edge">
<title>Node3&#45;&gt;Node5</title>
<g id="a_edge4_Node000003_Node000005"><a xlink:title=" ">
<path fill="none" stroke="#63b8ff" d="M529.49,-341.25C545.95,-341.25 564.01,-341.25 581.26,-341.25"/>
<polygon fill="#63b8ff" stroke="#63b8ff" points="580.94,-344.75 590.94,-341.25 580.94,-337.75 580.94,-344.75"/>
</a>
</g>
</g>
<!-- Node6 -->
<g id="Node000006" class="node">
<title>Node6</title>
<g id="a_Node000006"><a xlink:href="class_m_q_t_t_manager.html#a6d04009ffe15591e5faf9589e05787e0" target="_top" xlink:title="Test publish to configured test topic.">
<polygon fill="white" stroke="#666666" points="727,-313.88 591,-313.88 591,-294.62 727,-294.62 727,-313.88"/>
<text xml:space="preserve" text-anchor="middle" x="659" y="-300.38" font-family="Helvetica,sans-Serif" font-size="10.00">MQTTManager::testPublish</text>
</a>
</g>
</g>
<!-- Node3&#45;&gt;Node6 -->
<g id="edge5_Node000003_Node000006" class="edge">
<title>Node3&#45;&gt;Node6</title>
<g id="a_edge5_Node000003_Node000006"><a xlink:title=" ">
<path fill="none" stroke="#63b8ff" d="M520.83,-331.14C543.82,-326.63 571.11,-321.28 595.27,-316.55"/>
<polygon fill="#63b8ff" stroke="#63b8ff" points="595.86,-320 605,-314.64 594.51,-313.13 595.86,-320"/>
</a>
</g>
</g>
<!-- Node7&#45;&gt;Node4 -->
<g id="edge7_Node000007_Node000004" class="edge">
<title>Node7&#45;&gt;Node4</title>
<g id="a_edge7_Node000007_Node000004"><a xlink:title=" ">
<path fill="none" stroke="#63b8ff" d="M325.32,-400.87C387.13,-400.81 476.86,-399.44 555,-393.25 563.73,-392.56 572.85,-391.63 581.9,-390.57"/>
<polygon fill="#63b8ff" stroke="#63b8ff" points="582.28,-394.05 591.78,-389.36 581.43,-387.1 582.28,-394.05"/>
</a>
</g>
</g>
<!-- Node8&#45;&gt;Node4 -->
<g id="edge9_Node000008_Node000004" class="edge">
<title>Node8&#45;&gt;Node4</title>
<g id="a_edge9_Node000008_Node000004"><a xlink:title=" ">
<path fill="none" stroke="#63b8ff" d="M256.99,-201.16C281.59,-235.93 363.7,-350.77 381.5,-360.25 443.12,-393.05 523.7,-394.77 581.96,-390.11"/>
<polygon fill="#63b8ff" stroke="#63b8ff" points="582.15,-393.61 591.8,-389.24 581.52,-386.64 582.15,-393.61"/>
</a>
</g>
</g>
<!-- Node9 -->
<g id="Node000009" class="node">
<title>Node9</title>
<g id="a_Node000009"><a xlink:href="class_measurement_point.html#a7b74a18d86e0e545264a774aa2c31cad" target="_top" xlink:title="Get measurement point address.">
<polygon fill="white" stroke="#666666" points="544.88,-67.88 391.62,-67.88 391.62,-48.62 544.88,-48.62 544.88,-67.88"/>
<text xml:space="preserve" text-anchor="middle" x="468.25" y="-54.38" font-family="Helvetica,sans-Serif" font-size="10.00">MeasurementPoint::getAddress</text>
</a>
</g>
</g>
<!-- Node8&#45;&gt;Node9 -->
<g id="edge10_Node000008_Node000009" class="edge">
<title>Node8&#45;&gt;Node9</title>
<g id="a_edge10_Node000008_Node000009"><a xlink:title=" ">
<path fill="none" stroke="#63b8ff" d="M258.05,-181.37C276.99,-158.84 326.95,-103.46 381.5,-76.25 384.6,-74.7 387.82,-73.29 391.13,-72"/>
<polygon fill="#63b8ff" stroke="#63b8ff" points="392.17,-75.34 400.47,-68.77 389.88,-68.73 392.17,-75.34"/>
</a>
</g>
</g>
<!-- Node10 -->
<g id="Node000010" class="node">
<title>Node10</title>
<g id="a_Node000010"><a xlink:href="class_measurement_point.html#a1421d744f7982e528a579da02adb1919" target="_top" xlink:title="Get alarm status bits.">
<polygon fill="white" stroke="#666666" points="539.62,-30.5 396.88,-30.5 396.88,0 539.62,0 539.62,-30.5"/>
<text xml:space="preserve" text-anchor="start" x="404.88" y="-17" font-family="Helvetica,sans-Serif" font-size="10.00">MeasurementPoint::getAlarm</text>
<text xml:space="preserve" text-anchor="middle" x="468.25" y="-5.75" font-family="Helvetica,sans-Serif" font-size="10.00">Status</text>
</a>
</g>
</g>
<!-- Node8&#45;&gt;Node10 -->
<g id="edge11_Node000008_Node000010" class="edge">
<title>Node8&#45;&gt;Node10</title>
<g id="a_edge11_Node000008_Node000010"><a xlink:title=" ">
<path fill="none" stroke="#63b8ff" d="M255.67,-181.32C271.71,-154.17 320.21,-78.12 381.5,-39.25 383.36,-38.07 385.28,-36.95 387.24,-35.88"/>
<polygon fill="#63b8ff" stroke="#63b8ff" points="388.55,-39.13 396.04,-31.63 385.51,-32.83 388.55,-39.13"/>
</a>
</g>
</g>
<!-- Node11 -->
<g id="Node000011" class="node">
<title>Node11</title>
<g id="a_Node000011"><a xlink:href="class_measurement_point.html#a81c7ae93a9314344967d0f31c6fefe2f" target="_top" xlink:title="Get pointer to bound sensor.">
<polygon fill="white" stroke="#666666" points="540.75,-313.5 395.75,-313.5 395.75,-283 540.75,-283 540.75,-313.5"/>
<text xml:space="preserve" text-anchor="start" x="403.75" y="-300" font-family="Helvetica,sans-Serif" font-size="10.00">MeasurementPoint::getBound</text>
<text xml:space="preserve" text-anchor="middle" x="468.25" y="-288.75" font-family="Helvetica,sans-Serif" font-size="10.00">Sensor</text>
</a>
</g>
</g>
<!-- Node8&#45;&gt;Node11 -->
<g id="edge12_Node000008_Node000011" class="edge">
<title>Node8&#45;&gt;Node11</title>
<g id="a_edge12_Node000008_Node000011"><a xlink:title=" ">
<path fill="none" stroke="#63b8ff" d="M263.09,-201.35C285.94,-218.54 335.11,-253.65 381.5,-274.25 385.07,-275.84 388.77,-277.34 392.54,-278.77"/>
<polygon fill="#63b8ff" stroke="#63b8ff" points="391.28,-282.04 401.87,-282.08 393.62,-275.44 391.28,-282.04"/>
</a>
</g>
</g>
<!-- Node12 -->
<g id="Node000012" class="node">
<title>Node12</title>
<g id="a_Node000012"><a xlink:href="class_measurement_point.html#aceaf14fde40bcd5331e5ea6a07d7dde8" target="_top" xlink:title="Get current temperature.">
<polygon fill="white" stroke="#666666" points="555,-264.88 381.5,-264.88 381.5,-245.62 555,-245.62 555,-264.88"/>
<text xml:space="preserve" text-anchor="middle" x="468.25" y="-251.38" font-family="Helvetica,sans-Serif" font-size="10.00">MeasurementPoint::getCurrentTemp</text>
</a>
</g>
</g>
<!-- Node8&#45;&gt;Node12 -->
<g id="edge13_Node000008_Node000012" class="edge">
<title>Node8&#45;&gt;Node12</title>
<g id="a_edge13_Node000008_Node000012"><a xlink:title=" ">
<path fill="none" stroke="#63b8ff" d="M276.42,-201.27C302.78,-211.03 344.56,-225.87 381.5,-236.25 389.37,-238.46 397.71,-240.58 405.97,-242.55"/>
<polygon fill="#63b8ff" stroke="#63b8ff" points="405.13,-245.95 415.66,-244.79 406.71,-239.13 405.13,-245.95"/>
</a>
</g>
</g>
<!-- Node13 -->
<g id="Node000013" class="node">
<title>Node13</title>
<g id="a_Node000013"><a xlink:href="class_measurement_point.html#a3fb0693931f12190a7f96e5d6be51b51" target="_top" xlink:title="Get error status bits.">
<polygon fill="white" stroke="#666666" points="537.38,-227.5 399.12,-227.5 399.12,-197 537.38,-197 537.38,-227.5"/>
<text xml:space="preserve" text-anchor="start" x="407.12" y="-214" font-family="Helvetica,sans-Serif" font-size="10.00">MeasurementPoint::getError</text>
<text xml:space="preserve" text-anchor="middle" x="468.25" y="-202.75" font-family="Helvetica,sans-Serif" font-size="10.00">Status</text>
</a>
</g>
</g>
<!-- Node8&#45;&gt;Node13 -->
<g id="edge14_Node000008_Node000013" class="edge">
<title>Node8&#45;&gt;Node13</title>
<g id="a_edge14_Node000008_Node000013"><a xlink:title=" ">
<path fill="none" stroke="#63b8ff" d="M345.92,-200.52C359.86,-201.87 374.09,-203.24 387.66,-204.56"/>
<polygon fill="#63b8ff" stroke="#63b8ff" points="387.09,-208.02 397.38,-205.5 387.76,-201.05 387.09,-208.02"/>
</a>
</g>
</g>
<!-- Node14 -->
<g id="Node000014" class="node">
<title>Node14</title>
<g id="a_Node000014"><a xlink:href="class_measurement_point.html#a8677e00e0be369d7874f4982990dc56d" target="_top" xlink:title="Get maximum recorded temperature.">
<polygon fill="white" stroke="#666666" points="548.25,-178.88 388.25,-178.88 388.25,-159.62 548.25,-159.62 548.25,-178.88"/>
<text xml:space="preserve" text-anchor="middle" x="468.25" y="-165.38" font-family="Helvetica,sans-Serif" font-size="10.00">MeasurementPoint::getMaxTemp</text>
</a>
</g>
</g>
<!-- Node8&#45;&gt;Node14 -->
<g id="edge15_Node000008_Node000014" class="edge">
<title>Node8&#45;&gt;Node14</title>
<g id="a_edge15_Node000008_Node000014"><a xlink:title=" ">
<path fill="none" stroke="#63b8ff" d="M345.92,-181.54C356.08,-180.51 366.39,-179.46 376.48,-178.44"/>
<polygon fill="#63b8ff" stroke="#63b8ff" points="376.67,-181.94 386.27,-177.45 375.97,-174.98 376.67,-181.94"/>
</a>
</g>
</g>
<!-- Node15 -->
<g id="Node000015" class="node">
<title>Node15</title>
<g id="a_Node000015"><a xlink:href="class_measurement_point.html#adc31f012462c1623617d5f362bcb2c59" target="_top" xlink:title="Get minimum recorded temperature.">
<polygon fill="white" stroke="#666666" points="546.75,-141.88 389.75,-141.88 389.75,-122.62 546.75,-122.62 546.75,-141.88"/>
<text xml:space="preserve" text-anchor="middle" x="468.25" y="-128.38" font-family="Helvetica,sans-Serif" font-size="10.00">MeasurementPoint::getMinTemp</text>
</a>
</g>
</g>
<!-- Node8&#45;&gt;Node15 -->
<g id="edge16_Node000008_Node000015" class="edge">
<title>Node8&#45;&gt;Node15</title>
<g id="a_edge16_Node000008_Node000015"><a xlink:title=" ">
<path fill="none" stroke="#63b8ff" d="M279.54,-181.15C306.04,-172.31 346.09,-159.46 381.5,-150.25 388.82,-148.35 396.53,-146.5 404.2,-144.77"/>
<polygon fill="#63b8ff" stroke="#63b8ff" points="404.88,-148.2 413.89,-142.63 403.37,-141.37 404.88,-148.2"/>
</a>
</g>
</g>
<!-- Node16 -->
<g id="Node000016" class="node">
<title>Node16</title>
<g id="a_Node000016"><a xlink:href="class_measurement_point.html#aa3a80d373c7609c7b178bf7353ffdd7a" target="_top" xlink:title="Get measurement point name.">
<polygon fill="white" stroke="#666666" points="540,-104.88 396.5,-104.88 396.5,-85.62 540,-85.62 540,-104.88"/>
<text xml:space="preserve" text-anchor="middle" x="468.25" y="-91.38" font-family="Helvetica,sans-Serif" font-size="10.00">MeasurementPoint::getName</text>
</a>
</g>
</g>
<!-- Node8&#45;&gt;Node16 -->
<g id="edge17_Node000008_Node000016" class="edge">
<title>Node8&#45;&gt;Node16</title>
<g id="a_edge17_Node000008_Node000016"><a xlink:title=" ">
<path fill="none" stroke="#63b8ff" d="M263.43,-181.23C286.4,-164.57 335.24,-131.25 381.5,-113.25 386.17,-111.43 391.06,-109.78 396.04,-108.29"/>
<polygon fill="#63b8ff" stroke="#63b8ff" points="396.84,-111.7 405.55,-105.67 394.98,-104.95 396.84,-111.7"/>
</a>
</g>
</g>
</g>
</svg>
