<?xml version="1.0" encoding="UTF-8" standalone="no"?>
<!DOCTYPE svg PUBLIC "-//W3C//DTD SVG 1.1//EN"
 "http://www.w3.org/Graphics/SVG/1.1/DTD/svg11.dtd">
<!-- Generated by graphviz version 13.1.0 (20250701.0955)
 -->
<!-- Title: TemperatureController::_handleDisplaySections Pages: 1 -->
<svg width="1003pt" height="566pt"
 viewBox="0.00 0.00 1003.00 566.00" xmlns="http://www.w3.org/2000/svg" xmlns:xlink="http://www.w3.org/1999/xlink">
<g id="graph0" class="graph" transform="scale(1 1) rotate(0) translate(4 561.88)">
<title>TemperatureController::_handleDisplaySections</title>
<!-- Node1 -->
<g id="Node000001" class="node">
<title>Node1</title>
<g id="a_Node000001"><a xlink:title="Handle display section switching.">
<polygon fill="#999999" stroke="#666666" points="127,-238.88 0,-238.88 0,-208.38 127,-208.38 127,-238.88"/>
<text xml:space="preserve" text-anchor="start" x="8" y="-225.38" font-family="Helvetica,sans-Serif" font-size="10.00">TemperatureController</text>
<text xml:space="preserve" text-anchor="middle" x="63.5" y="-214.12" font-family="Helvetica,sans-Serif" font-size="10.00">::_handleDisplaySections</text>
</a>
</g>
</g>
<!-- Node2 -->
<g id="Node000002" class="node">
<title>Node2</title>
<g id="a_Node000002"><a xlink:href="class_temperature_controller.html#a1d2745c323f7094beac8f406825499b7" target="_top" xlink:title="Handle alarm display rotation timing.">
<polygon fill="white" stroke="#666666" points="314,-459.88 163,-459.88 163,-429.38 314,-429.38 314,-459.88"/>
<text xml:space="preserve" text-anchor="start" x="171" y="-446.38" font-family="Helvetica,sans-Serif" font-size="10.00">TemperatureController</text>
<text xml:space="preserve" text-anchor="middle" x="238.5" y="-435.12" font-family="Helvetica,sans-Serif" font-size="10.00">::_handleAlarmDisplayRotation</text>
</a>
</g>
</g>
<!-- Node1&#45;&gt;Node2 -->
<g id="edge1_Node000001_Node000002" class="edge">
<title>Node1&#45;&gt;Node2</title>
<g id="a_edge1_Node000001_Node000002"><a xlink:title=" ">
<path fill="none" stroke="#63b8ff" d="M76.67,-239.17C106.32,-277.05 182.52,-374.39 218.35,-420.16"/>
<polygon fill="#63b8ff" stroke="#63b8ff" points="215.5,-422.19 224.42,-427.91 221.01,-417.88 215.5,-422.19"/>
</a>
</g>
</g>
<!-- Node6 -->
<g id="Node000006" class="node">
<title>Node6</title>
<g id="a_Node000006"><a xlink:href="class_temperature_controller.html#a4d36576f7d6ab8f5222a082878314912" target="_top" xlink:title="Update normal temperature display.">
<polygon fill="white" stroke="#666666" points="494.62,-410.88 373.62,-410.88 373.62,-380.38 494.62,-380.38 494.62,-410.88"/>
<text xml:space="preserve" text-anchor="start" x="381.62" y="-397.38" font-family="Helvetica,sans-Serif" font-size="10.00">TemperatureController</text>
<text xml:space="preserve" text-anchor="middle" x="434.12" y="-386.12" font-family="Helvetica,sans-Serif" font-size="10.00">::_updateNormalDisplay</text>
</a>
</g>
</g>
<!-- Node1&#45;&gt;Node6 -->
<g id="edge25_Node000001_Node000006" class="edge">
<title>Node1&#45;&gt;Node6</title>
<g id="a_edge25_Node000001_Node000006"><a xlink:title=" ">
<path fill="none" stroke="#63b8ff" d="M90.89,-239.3C140.36,-268.22 251.01,-330.65 350,-370.62 354.9,-372.6 360.01,-374.51 365.18,-376.32"/>
<polygon fill="#63b8ff" stroke="#63b8ff" points="363.83,-379.56 374.42,-379.43 366.06,-372.92 363.83,-379.56"/>
</a>
</g>
</g>
<!-- Node7 -->
<g id="Node000007" class="node">
<title>Node7</title>
<g id="a_Node000007"><a xlink:href="class_temperature_controller.html#a45f7994a3a052a527981dbfdad27606b" target="_top" xlink:title="Handle system status mode display.">
<polygon fill="white" stroke="#666666" points="309.5,-238.88 167.5,-238.88 167.5,-208.38 309.5,-208.38 309.5,-238.88"/>
<text xml:space="preserve" text-anchor="start" x="175.5" y="-225.38" font-family="Helvetica,sans-Serif" font-size="10.00">TemperatureController</text>
<text xml:space="preserve" text-anchor="middle" x="238.5" y="-214.12" font-family="Helvetica,sans-Serif" font-size="10.00">::_handleSystemStatusMode</text>
</a>
</g>
</g>
<!-- Node1&#45;&gt;Node7 -->
<g id="edge6_Node000001_Node000007" class="edge">
<title>Node1&#45;&gt;Node7</title>
<g id="a_edge6_Node000001_Node000007"><a xlink:title=" ">
<path fill="none" stroke="#63b8ff" d="M127.45,-223.62C136.75,-223.62 146.45,-223.62 156.06,-223.62"/>
<polygon fill="#63b8ff" stroke="#63b8ff" points="155.77,-227.13 165.77,-223.63 155.77,-220.13 155.77,-227.13"/>
</a>
</g>
</g>
<!-- Node21 -->
<g id="Node000021" class="node">
<title>Node21</title>
<g id="a_Node000021"><a xlink:href="class_temperature_controller.html#a3955f205bc33dda762cbe5c572cd4f21" target="_top" xlink:title="Switch to a new display section.">
<polygon fill="white" stroke="#666666" points="490.12,-116.88 378.12,-116.88 378.12,-86.38 490.12,-86.38 490.12,-116.88"/>
<text xml:space="preserve" text-anchor="start" x="386.12" y="-103.38" font-family="Helvetica,sans-Serif" font-size="10.00">TemperatureController</text>
<text xml:space="preserve" text-anchor="middle" x="434.12" y="-92.12" font-family="Helvetica,sans-Serif" font-size="10.00">::_switchToSection</text>
</a>
</g>
</g>
<!-- Node1&#45;&gt;Node21 -->
<g id="edge21_Node000001_Node000021" class="edge">
<title>Node1&#45;&gt;Node21</title>
<g id="a_edge21_Node000001_Node000021"><a xlink:title=" ">
<path fill="none" stroke="#63b8ff" d="M108.85,-208.02C164.85,-188.43 264.25,-154.08 350,-126.62 356.16,-124.65 362.59,-122.64 369.03,-120.65"/>
<polygon fill="#63b8ff" stroke="#63b8ff" points="369.84,-124.07 378.38,-117.79 367.79,-117.37 369.84,-124.07"/>
</a>
</g>
</g>
<!-- Node22 -->
<g id="Node000022" class="node">
<title>Node22</title>
<g id="a_Node000022"><a xlink:href="class_temperature_controller.html#a477597992aa9362076843f37b648741a" target="_top" xlink:title="Update alarm display queues.">
<polygon fill="white" stroke="#666666" points="296.38,-67.88 180.62,-67.88 180.62,-37.38 296.38,-37.38 296.38,-67.88"/>
<text xml:space="preserve" text-anchor="start" x="188.62" y="-54.38" font-family="Helvetica,sans-Serif" font-size="10.00">TemperatureController</text>
<text xml:space="preserve" text-anchor="middle" x="238.5" y="-43.12" font-family="Helvetica,sans-Serif" font-size="10.00">::_updateAlarmQueues</text>
</a>
</g>
</g>
<!-- Node1&#45;&gt;Node22 -->
<g id="edge22_Node000001_Node000022" class="edge">
<title>Node1&#45;&gt;Node22</title>
<g id="a_edge22_Node000001_Node000022"><a xlink:title=" ">
<path fill="none" stroke="#63b8ff" d="M77.24,-208.19C95.42,-186.48 130.25,-146.07 163,-114.62 177.34,-100.86 194.31,-86.6 208.43,-75.23"/>
<polygon fill="#63b8ff" stroke="#63b8ff" points="210.41,-78.12 216.05,-69.15 206.05,-72.64 210.41,-78.12"/>
</a>
</g>
</g>
<!-- Node3 -->
<g id="Node000003" class="node">
<title>Node3</title>
<g id="a_Node000003"><a xlink:href="class_temperature_controller.html#ac44de0834e13cec755e247ce1df21f09" target="_top" xlink:title="Display next acknowledged alarm.">
<polygon fill="white" stroke="#666666" points="518.25,-557.88 350,-557.88 350,-527.38 518.25,-527.38 518.25,-557.88"/>
<text xml:space="preserve" text-anchor="start" x="358" y="-544.38" font-family="Helvetica,sans-Serif" font-size="10.00">TemperatureController</text>
<text xml:space="preserve" text-anchor="middle" x="434.12" y="-533.12" font-family="Helvetica,sans-Serif" font-size="10.00">::_displayNextAcknowledgedAlarm</text>
</a>
</g>
</g>
<!-- Node2&#45;&gt;Node3 -->
<g id="edge2_Node000002_Node000003" class="edge">
<title>Node2&#45;&gt;Node3</title>
<g id="a_edge2_Node000002_Node000003"><a xlink:title=" ">
<path fill="none" stroke="#63b8ff" d="M259.22,-460.23C280.54,-476.48 316.06,-501.73 350,-517.62 354.03,-519.51 358.24,-521.3 362.53,-522.98"/>
<polygon fill="#63b8ff" stroke="#63b8ff" points="361.29,-526.25 371.88,-526.42 363.7,-519.68 361.29,-526.25"/>
</a>
</g>
</g>
<!-- Node4 -->
<g id="Node000004" class="node">
<title>Node4</title>
<g id="a_Node000004"><a xlink:href="class_temperature_controller.html#a7ca5124357f98bcd52316cf017341b09" target="_top" xlink:title="Display next active alarm in rotation.">
<polygon fill="white" stroke="#666666" points="500.25,-508.88 368,-508.88 368,-478.38 500.25,-478.38 500.25,-508.88"/>
<text xml:space="preserve" text-anchor="start" x="376" y="-495.38" font-family="Helvetica,sans-Serif" font-size="10.00">TemperatureController</text>
<text xml:space="preserve" text-anchor="middle" x="434.12" y="-484.12" font-family="Helvetica,sans-Serif" font-size="10.00">::_displayNextActiveAlarm</text>
</a>
</g>
</g>
<!-- Node2&#45;&gt;Node4 -->
<g id="edge3_Node000002_Node000004" class="edge">
<title>Node2&#45;&gt;Node4</title>
<g id="a_edge3_Node000002_Node000004"><a xlink:title=" ">
<path fill="none" stroke="#63b8ff" d="M301.56,-460.33C320.15,-465.03 340.7,-470.24 359.94,-475.1"/>
<polygon fill="#63b8ff" stroke="#63b8ff" points="359.06,-478.49 369.61,-477.55 360.78,-471.71 359.06,-478.49"/>
</a>
</g>
</g>
<!-- Node5 -->
<g id="Node000005" class="node">
<title>Node5</title>
<g id="a_Node000005"><a xlink:href="class_temperature_controller.html#a28e81945f5235e161e6c532b428d36d2" target="_top" xlink:title="Show OK status and turn off OLED after delay.">
<polygon fill="white" stroke="#666666" points="505.12,-459.88 363.12,-459.88 363.12,-429.38 505.12,-429.38 505.12,-459.88"/>
<text xml:space="preserve" text-anchor="start" x="371.12" y="-446.38" font-family="Helvetica,sans-Serif" font-size="10.00">TemperatureController</text>
<text xml:space="preserve" text-anchor="middle" x="434.12" y="-435.12" font-family="Helvetica,sans-Serif" font-size="10.00">::_showOKAndTurnOffOLED</text>
</a>
</g>
</g>
<!-- Node2&#45;&gt;Node5 -->
<g id="edge4_Node000002_Node000005" class="edge">
<title>Node2&#45;&gt;Node5</title>
<g id="a_edge4_Node000002_Node000005"><a xlink:title=" ">
<path fill="none" stroke="#63b8ff" d="M314.36,-444.62C326.58,-444.62 339.3,-444.62 351.67,-444.62"/>
<polygon fill="#63b8ff" stroke="#63b8ff" points="351.39,-448.13 361.39,-444.63 351.39,-441.13 351.39,-448.13"/>
</a>
</g>
</g>
<!-- Node2&#45;&gt;Node6 -->
<g id="edge5_Node000002_Node000006" class="edge">
<title>Node2&#45;&gt;Node6</title>
<g id="a_edge5_Node000002_Node000006"><a xlink:title=" ">
<path fill="none" stroke="#63b8ff" d="M301.56,-428.92C320.98,-424.01 342.54,-418.55 362.5,-413.5"/>
<polygon fill="#63b8ff" stroke="#63b8ff" points="363.09,-416.96 371.93,-411.11 361.37,-410.17 363.09,-416.96"/>
</a>
</g>
</g>
<!-- Node8 -->
<g id="Node000008" class="node">
<title>Node8</title>
<g id="a_Node000008"><a xlink:href="class_temperature_controller.html#a3948ceaf046b5f06afcc9083433f532c" target="_top" xlink:title="Display alarm summary by priority.">
<polygon fill="white" stroke="#666666" points="518.25,-361.88 350,-361.88 350,-331.38 518.25,-331.38 518.25,-361.88"/>
<text xml:space="preserve" text-anchor="start" x="358" y="-348.38" font-family="Helvetica,sans-Serif" font-size="10.00">TemperatureController</text>
<text xml:space="preserve" text-anchor="middle" x="434.12" y="-337.12" font-family="Helvetica,sans-Serif" font-size="10.00">::_displayAlarmSummaryByPriority</text>
</a>
</g>
</g>
<!-- Node7&#45;&gt;Node8 -->
<g id="edge7_Node000007_Node000008" class="edge">
<title>Node7&#45;&gt;Node8</title>
<g id="a_edge7_Node000007_Node000008"><a xlink:title=" ">
<path fill="none" stroke="#63b8ff" d="M252.92,-239.18C272.29,-260.7 310.14,-299.39 350,-321.62 353.16,-323.39 356.46,-325.04 359.84,-326.58"/>
<polygon fill="#63b8ff" stroke="#63b8ff" points="358.21,-329.7 368.79,-330.33 360.91,-323.24 358.21,-329.7"/>
</a>
</g>
</g>
<!-- Node10 -->
<g id="Node000010" class="node">
<title>Node10</title>
<g id="a_Node000010"><a xlink:href="class_temperature_controller.html#ab5e076b045677678390603e9a805e4db" target="_top" xlink:title="Display alarm summary by type.">
<polygon fill="white" stroke="#666666" points="513.38,-312.88 354.88,-312.88 354.88,-282.38 513.38,-282.38 513.38,-312.88"/>
<text xml:space="preserve" text-anchor="start" x="362.88" y="-299.38" font-family="Helvetica,sans-Serif" font-size="10.00">TemperatureController</text>
<text xml:space="preserve" text-anchor="middle" x="434.12" y="-288.12" font-family="Helvetica,sans-Serif" font-size="10.00">::_displayAlarmSummaryByType</text>
</a>
</g>
</g>
<!-- Node7&#45;&gt;Node10 -->
<g id="edge9_Node000007_Node000010" class="edge">
<title>Node7&#45;&gt;Node10</title>
<g id="a_edge9_Node000007_Node000010"><a xlink:title=" ">
<path fill="none" stroke="#63b8ff" d="M271.94,-239.3C293.72,-249.5 323.24,-262.71 350,-272.62 355.34,-274.6 360.91,-276.54 366.54,-278.41"/>
<polygon fill="#63b8ff" stroke="#63b8ff" points="365.33,-281.7 375.92,-281.44 367.48,-275.04 365.33,-281.7"/>
</a>
</g>
</g>
<!-- Node11 -->
<g id="Node000011" class="node">
<title>Node11</title>
<g id="a_Node000011"><a xlink:href="class_temperature_controller.html#a5fc773a967cea261f21bbe86d90d2586" target="_top" xlink:title="Display Modbus status page.">
<polygon fill="white" stroke="#666666" points="494.62,-263.88 373.62,-263.88 373.62,-233.38 494.62,-233.38 494.62,-263.88"/>
<text xml:space="preserve" text-anchor="start" x="381.62" y="-250.38" font-family="Helvetica,sans-Serif" font-size="10.00">TemperatureController</text>
<text xml:space="preserve" text-anchor="middle" x="434.12" y="-239.12" font-family="Helvetica,sans-Serif" font-size="10.00">::_displayModbusStatus</text>
</a>
</g>
</g>
<!-- Node7&#45;&gt;Node11 -->
<g id="edge10_Node000007_Node000011" class="edge">
<title>Node7&#45;&gt;Node11</title>
<g id="a_edge10_Node000007_Node000011"><a xlink:title=" ">
<path fill="none" stroke="#63b8ff" d="M309.95,-232.72C326.98,-234.92 345.19,-237.27 362.24,-239.47"/>
<polygon fill="#63b8ff" stroke="#63b8ff" points="361.39,-242.89 371.75,-240.7 362.28,-235.95 361.39,-242.89"/>
</a>
</g>
</g>
<!-- Node12 -->
<g id="Node000012" class="node">
<title>Node12</title>
<g id="a_Node000012"><a xlink:href="class_temperature_controller.html#a2436c7043d97ca75c717db2b87326d90" target="_top" xlink:title="Display network info page.">
<polygon fill="white" stroke="#666666" points="490.12,-214.88 378.12,-214.88 378.12,-184.38 490.12,-184.38 490.12,-214.88"/>
<text xml:space="preserve" text-anchor="start" x="386.12" y="-201.38" font-family="Helvetica,sans-Serif" font-size="10.00">TemperatureController</text>
<text xml:space="preserve" text-anchor="middle" x="434.12" y="-190.12" font-family="Helvetica,sans-Serif" font-size="10.00">::_displayNetworkInfo</text>
</a>
</g>
</g>
<!-- Node7&#45;&gt;Node12 -->
<g id="edge11_Node000007_Node000012" class="edge">
<title>Node7&#45;&gt;Node12</title>
<g id="a_edge11_Node000007_Node000012"><a xlink:title=" ">
<path fill="none" stroke="#63b8ff" d="M309.95,-214.89C328.49,-212.6 348.42,-210.12 366.73,-207.85"/>
<polygon fill="#63b8ff" stroke="#63b8ff" points="366.9,-211.36 376.4,-206.66 366.04,-204.41 366.9,-211.36"/>
</a>
</g>
</g>
<!-- Node13 -->
<g id="Node000013" class="node">
<title>Node13</title>
<g id="a_Node000013"><a xlink:href="class_temperature_controller.html#a45d13ed72fd36b46820af631e4db958b" target="_top" xlink:title="Display system stats page.">
<polygon fill="white" stroke="#666666" points="491.62,-165.88 376.62,-165.88 376.62,-135.38 491.62,-135.38 491.62,-165.88"/>
<text xml:space="preserve" text-anchor="start" x="384.62" y="-152.38" font-family="Helvetica,sans-Serif" font-size="10.00">TemperatureController</text>
<text xml:space="preserve" text-anchor="middle" x="434.12" y="-141.12" font-family="Helvetica,sans-Serif" font-size="10.00">::_displaySystemStats</text>
</a>
</g>
</g>
<!-- Node7&#45;&gt;Node13 -->
<g id="edge12_Node000007_Node000013" class="edge">
<title>Node7&#45;&gt;Node13</title>
<g id="a_edge12_Node000007_Node000013"><a xlink:title=" ">
<path fill="none" stroke="#63b8ff" d="M272.94,-207.88C294.64,-197.96 323.68,-185.26 350,-175.62 355.57,-173.58 361.4,-171.58 367.26,-169.65"/>
<polygon fill="#63b8ff" stroke="#63b8ff" points="367.93,-173.11 376.39,-166.72 365.79,-166.45 367.93,-173.11"/>
</a>
</g>
</g>
<!-- Node7&#45;&gt;Node21 -->
<g id="edge20_Node000007_Node000021" class="edge">
<title>Node7&#45;&gt;Node21</title>
<g id="a_edge20_Node000007_Node000021"><a xlink:title=" ">
<path fill="none" stroke="#63b8ff" d="M252.96,-208.23C272.36,-186.95 310.26,-148.66 350,-126.62 355.35,-123.66 361.1,-121 366.98,-118.63"/>
<polygon fill="#63b8ff" stroke="#63b8ff" points="368.08,-121.96 376.24,-115.2 365.65,-115.39 368.08,-121.96"/>
</a>
</g>
</g>
<!-- Node9 -->
<g id="Node000009" class="node">
<title>Node9</title>
<g id="a_Node000009"><a xlink:href="class_temperature_controller.html#a3022c7a72adb45a7800d5189eecdac4e" target="_top" xlink:title="Get total number of configured alarms.">
<polygon fill="white" stroke="#666666" points="666.25,-361.88 554.25,-361.88 554.25,-331.38 666.25,-331.38 666.25,-361.88"/>
<text xml:space="preserve" text-anchor="start" x="562.25" y="-348.38" font-family="Helvetica,sans-Serif" font-size="10.00">TemperatureController</text>
<text xml:space="preserve" text-anchor="middle" x="610.25" y="-337.12" font-family="Helvetica,sans-Serif" font-size="10.00">::getAlarmCount</text>
</a>
</g>
</g>
<!-- Node8&#45;&gt;Node9 -->
<g id="edge8_Node000008_Node000009" class="edge">
<title>Node8&#45;&gt;Node9</title>
<g id="a_edge8_Node000008_Node000009"><a xlink:title=" ">
<path fill="none" stroke="#63b8ff" d="M518.62,-346.62C526.71,-346.62 534.84,-346.62 542.74,-346.62"/>
<polygon fill="#63b8ff" stroke="#63b8ff" points="542.59,-350.13 552.59,-346.63 542.59,-343.13 542.59,-350.13"/>
</a>
</g>
</g>
<!-- Node14 -->
<g id="Node000014" class="node">
<title>Node14</title>
<g id="a_Node000014"><a xlink:href="class_temperature_controller.html#a9b4fe09d4c87dcf86e78b890012e1e72" target="_top" xlink:title="Get sensor bound to measurement point.">
<polygon fill="white" stroke="#666666" points="666.25,-214.88 554.25,-214.88 554.25,-184.38 666.25,-184.38 666.25,-214.88"/>
<text xml:space="preserve" text-anchor="start" x="562.25" y="-201.38" font-family="Helvetica,sans-Serif" font-size="10.00">TemperatureController</text>
<text xml:space="preserve" text-anchor="middle" x="610.25" y="-190.12" font-family="Helvetica,sans-Serif" font-size="10.00">::getBoundSensor</text>
</a>
</g>
</g>
<!-- Node13&#45;&gt;Node14 -->
<g id="edge13_Node000013_Node000014" class="edge">
<title>Node13&#45;&gt;Node14</title>
<g id="a_edge13_Node000013_Node000014"><a xlink:title=" ">
<path fill="none" stroke="#63b8ff" d="M490.7,-166.26C507.43,-170.97 525.95,-176.19 543.29,-181.06"/>
<polygon fill="#63b8ff" stroke="#63b8ff" points="541.88,-184.3 552.45,-183.64 543.77,-177.56 541.88,-184.3"/>
</a>
</g>
</g>
<!-- Node19 -->
<g id="Node000019" class="node">
<title>Node19</title>
<g id="a_Node000019"><a xlink:href="class_temperature_controller.html#a9ac5f76def1895a8c8f8f92ce8cd2e5c" target="_top" xlink:title="Get count of discovered DS18B20 sensors.">
<polygon fill="white" stroke="#666666" points="666.25,-165.88 554.25,-165.88 554.25,-135.38 666.25,-135.38 666.25,-165.88"/>
<text xml:space="preserve" text-anchor="start" x="562.25" y="-152.38" font-family="Helvetica,sans-Serif" font-size="10.00">TemperatureController</text>
<text xml:space="preserve" text-anchor="middle" x="610.25" y="-141.12" font-family="Helvetica,sans-Serif" font-size="10.00">::getDS18B20Count</text>
</a>
</g>
</g>
<!-- Node13&#45;&gt;Node19 -->
<g id="edge18_Node000013_Node000019" class="edge">
<title>Node13&#45;&gt;Node19</title>
<g id="a_edge18_Node000013_Node000019"><a xlink:title=" ">
<path fill="none" stroke="#63b8ff" d="M491.66,-150.62C507.88,-150.62 525.71,-150.62 542.48,-150.62"/>
<polygon fill="#63b8ff" stroke="#63b8ff" points="542.38,-154.13 552.38,-150.63 542.38,-147.13 542.38,-154.13"/>
</a>
</g>
</g>
<!-- Node20 -->
<g id="Node000020" class="node">
<title>Node20</title>
<g id="a_Node000020"><a xlink:href="class_temperature_controller.html#a6ab2ecc10c283d75d948ce6f1ad723a6" target="_top" xlink:title="Get count of discovered PT1000 sensors.">
<polygon fill="white" stroke="#666666" points="666.25,-116.88 554.25,-116.88 554.25,-86.38 666.25,-86.38 666.25,-116.88"/>
<text xml:space="preserve" text-anchor="start" x="562.25" y="-103.38" font-family="Helvetica,sans-Serif" font-size="10.00">TemperatureController</text>
<text xml:space="preserve" text-anchor="middle" x="610.25" y="-92.12" font-family="Helvetica,sans-Serif" font-size="10.00">::getPT1000Count</text>
</a>
</g>
</g>
<!-- Node13&#45;&gt;Node20 -->
<g id="edge19_Node000013_Node000020" class="edge">
<title>Node13&#45;&gt;Node20</title>
<g id="a_edge19_Node000013_Node000020"><a xlink:title=" ">
<path fill="none" stroke="#63b8ff" d="M490.7,-134.99C507.43,-130.28 525.95,-125.06 543.29,-120.19"/>
<polygon fill="#63b8ff" stroke="#63b8ff" points="543.77,-123.69 552.45,-117.61 541.88,-116.95 543.77,-123.69"/>
</a>
</g>
</g>
<!-- Node15 -->
<g id="Node000015" class="node">
<title>Node15</title>
<g id="a_Node000015"><a xlink:href="class_measurement_point.html#a81c7ae93a9314344967d0f31c6fefe2f" target="_top" xlink:title="Get pointer to bound sensor.">
<polygon fill="white" stroke="#666666" points="847.25,-238.88 702.25,-238.88 702.25,-208.38 847.25,-208.38 847.25,-238.88"/>
<text xml:space="preserve" text-anchor="start" x="710.25" y="-225.38" font-family="Helvetica,sans-Serif" font-size="10.00">MeasurementPoint::getBound</text>
<text xml:space="preserve" text-anchor="middle" x="774.75" y="-214.12" font-family="Helvetica,sans-Serif" font-size="10.00">Sensor</text>
</a>
</g>
</g>
<!-- Node14&#45;&gt;Node15 -->
<g id="edge14_Node000014_Node000015" class="edge">
<title>Node14&#45;&gt;Node15</title>
<g id="a_edge14_Node000014_Node000015"><a xlink:title=" ">
<path fill="none" stroke="#63b8ff" d="M666.72,-207.82C674.41,-208.95 682.44,-210.14 690.49,-211.33"/>
<polygon fill="#63b8ff" stroke="#63b8ff" points="689.96,-214.79 700.37,-212.79 690.99,-207.86 689.96,-214.79"/>
</a>
</g>
</g>
<!-- Node16 -->
<g id="Node000016" class="node">
<title>Node16</title>
<g id="a_Node000016"><a xlink:href="class_temperature_controller.html#a494f057c234b4ff7526bde271aec9267" target="_top" xlink:title="Get measurement point by address.">
<polygon fill="white" stroke="#666666" points="833.38,-189.88 716.12,-189.88 716.12,-159.38 833.38,-159.38 833.38,-189.88"/>
<text xml:space="preserve" text-anchor="start" x="724.12" y="-176.38" font-family="Helvetica,sans-Serif" font-size="10.00">TemperatureController</text>
<text xml:space="preserve" text-anchor="middle" x="774.75" y="-165.12" font-family="Helvetica,sans-Serif" font-size="10.00">::getMeasurementPoint</text>
</a>
</g>
</g>
<!-- Node14&#45;&gt;Node16 -->
<g id="edge15_Node000014_Node000016" class="edge">
<title>Node14&#45;&gt;Node16</title>
<g id="a_edge15_Node000014_Node000016"><a xlink:title=" ">
<path fill="none" stroke="#63b8ff" d="M666.72,-191.09C678.95,-189.21 692.05,-187.19 704.74,-185.24"/>
<polygon fill="#63b8ff" stroke="#63b8ff" points="704.91,-188.76 714.27,-183.78 703.85,-181.84 704.91,-188.76"/>
</a>
</g>
</g>
<!-- Node17 -->
<g id="Node000017" class="node">
<title>Node17</title>
<g id="a_Node000017"><a xlink:href="class_temperature_controller.html#ad322a5bab8d5788a586206004248f673" target="_top" xlink:title="Check if address is for DS18B20 sensor.">
<polygon fill="white" stroke="#666666" points="995.25,-214.88 883.25,-214.88 883.25,-184.38 995.25,-184.38 995.25,-214.88"/>
<text xml:space="preserve" text-anchor="start" x="891.25" y="-201.38" font-family="Helvetica,sans-Serif" font-size="10.00">TemperatureController</text>
<text xml:space="preserve" text-anchor="middle" x="939.25" y="-190.12" font-family="Helvetica,sans-Serif" font-size="10.00">::isDS18B20Address</text>
</a>
</g>
</g>
<!-- Node16&#45;&gt;Node17 -->
<g id="edge16_Node000016_Node000017" class="edge">
<title>Node16&#45;&gt;Node17</title>
<g id="a_edge16_Node000016_Node000017"><a xlink:title=" ">
<path fill="none" stroke="#63b8ff" d="M833.5,-183.51C845.92,-185.42 859.14,-187.45 871.85,-189.41"/>
<polygon fill="#63b8ff" stroke="#63b8ff" points="870.95,-192.81 881.37,-190.87 872.02,-185.89 870.95,-192.81"/>
</a>
</g>
</g>
<!-- Node18 -->
<g id="Node000018" class="node">
<title>Node18</title>
<g id="a_Node000018"><a xlink:href="class_temperature_controller.html#a13125ddcf29cb56d27403818543618af" target="_top" xlink:title="Check if address is for PT1000 sensor.">
<polygon fill="white" stroke="#666666" points="995.25,-165.88 883.25,-165.88 883.25,-135.38 995.25,-135.38 995.25,-165.88"/>
<text xml:space="preserve" text-anchor="start" x="891.25" y="-152.38" font-family="Helvetica,sans-Serif" font-size="10.00">TemperatureController</text>
<text xml:space="preserve" text-anchor="middle" x="939.25" y="-141.12" font-family="Helvetica,sans-Serif" font-size="10.00">::isPT1000Address</text>
</a>
</g>
</g>
<!-- Node16&#45;&gt;Node18 -->
<g id="edge17_Node000016_Node000018" class="edge">
<title>Node16&#45;&gt;Node18</title>
<g id="a_edge17_Node000016_Node000018"><a xlink:title=" ">
<path fill="none" stroke="#63b8ff" d="M833.5,-166.1C845.92,-164.26 859.14,-162.31 871.85,-160.43"/>
<polygon fill="#63b8ff" stroke="#63b8ff" points="871.99,-163.95 881.37,-159.03 870.96,-157.02 871.99,-163.95"/>
</a>
</g>
</g>
<!-- Node23 -->
<g id="Node000023" class="node">
<title>Node23</title>
<g id="a_Node000023"><a xlink:href="class_temperature_controller.html#af58201023d15de003d4f1b9a9771a9e3" target="_top" xlink:title="Get list of active alarms.">
<polygon fill="white" stroke="#666666" points="490.12,-67.88 378.12,-67.88 378.12,-37.38 490.12,-37.38 490.12,-67.88"/>
<text xml:space="preserve" text-anchor="start" x="386.12" y="-54.38" font-family="Helvetica,sans-Serif" font-size="10.00">TemperatureController</text>
<text xml:space="preserve" text-anchor="middle" x="434.12" y="-43.12" font-family="Helvetica,sans-Serif" font-size="10.00">::getActiveAlarms</text>
</a>
</g>
</g>
<!-- Node22&#45;&gt;Node23 -->
<g id="edge23_Node000022_Node000023" class="edge">
<title>Node22&#45;&gt;Node23</title>
<g id="a_edge23_Node000022_Node000023"><a xlink:title=" ">
<path fill="none" stroke="#63b8ff" d="M296.81,-52.62C318.65,-52.62 343.74,-52.62 366.39,-52.62"/>
<polygon fill="#63b8ff" stroke="#63b8ff" points="366.12,-56.13 376.12,-52.63 366.12,-49.13 366.12,-56.13"/>
</a>
</g>
</g>
<!-- Node24 -->
<g id="Node000024" class="node">
<title>Node24</title>
<g id="a_Node000024"><a xlink:href="class_alarm.html#a7a4a3290a6a659542f82fe08a96736a8" target="_top" xlink:title="Get the alarm creation timestamp.">
<polygon fill="white" stroke="#666666" points="489,-19.25 379.25,-19.25 379.25,0 489,0 489,-19.25"/>
<text xml:space="preserve" text-anchor="middle" x="434.12" y="-5.75" font-family="Helvetica,sans-Serif" font-size="10.00">Alarm::getTimestamp</text>
</a>
</g>
</g>
<!-- Node22&#45;&gt;Node24 -->
<g id="edge24_Node000022_Node000024" class="edge">
<title>Node22&#45;&gt;Node24</title>
<g id="a_edge24_Node000022_Node000024"><a xlink:title=" ">
<path fill="none" stroke="#63b8ff" d="M296.81,-39.9C321.95,-34.31 351.38,-27.78 376.45,-22.21"/>
<polygon fill="#63b8ff" stroke="#63b8ff" points="377.15,-25.64 386.16,-20.06 375.64,-18.81 377.15,-25.64"/>
</a>
</g>
</g>
</g>
</svg>
