<?xml version="1.0" encoding="UTF-8" standalone="no"?>
<!DOCTYPE svg PUBLIC "-//W3C//DTD SVG 1.1//EN"
 "http://www.w3.org/Graphics/SVG/1.1/DTD/svg11.dtd">
<!-- Generated by graphviz version 13.1.0 (20250701.0955)
 -->
<!-- Title: TemperatureController::_handleAlarmDisplayRotation Pages: 1 -->
<svg width="363pt" height="186pt"
 viewBox="0.00 0.00 363.00 186.00" xmlns="http://www.w3.org/2000/svg" xmlns:xlink="http://www.w3.org/1999/xlink">
<g id="graph0" class="graph" transform="scale(1 1) rotate(0) translate(4 181.5)">
<title>TemperatureController::_handleAlarmDisplayRotation</title>
<!-- Node1 -->
<g id="Node000001" class="node">
<title>Node1</title>
<g id="a_Node000001"><a xlink:title="Handle alarm display rotation timing.">
<polygon fill="#999999" stroke="#666666" points="151,-103.5 0,-103.5 0,-73 151,-73 151,-103.5"/>
<text xml:space="preserve" text-anchor="start" x="8" y="-90" font-family="Helvetica,sans-Serif" font-size="10.00">TemperatureController</text>
<text xml:space="preserve" text-anchor="middle" x="75.5" y="-78.75" font-family="Helvetica,sans-Serif" font-size="10.00">::_handleAlarmDisplayRotation</text>
</a>
</g>
</g>
<!-- Node2 -->
<g id="Node000002" class="node">
<title>Node2</title>
<g id="a_Node000002"><a xlink:href="class_temperature_controller.html#ac44de0834e13cec755e247ce1df21f09" target="_top" xlink:title="Display next acknowledged alarm.">
<polygon fill="white" stroke="#666666" points="355.25,-177.5 187,-177.5 187,-147 355.25,-147 355.25,-177.5"/>
<text xml:space="preserve" text-anchor="start" x="195" y="-164" font-family="Helvetica,sans-Serif" font-size="10.00">TemperatureController</text>
<text xml:space="preserve" text-anchor="middle" x="271.12" y="-152.75" font-family="Helvetica,sans-Serif" font-size="10.00">::_displayNextAcknowledgedAlarm</text>
</a>
</g>
</g>
<!-- Node1&#45;&gt;Node2 -->
<g id="edge1_Node000001_Node000002" class="edge">
<title>Node1&#45;&gt;Node2</title>
<g id="a_edge1_Node000001_Node000002"><a xlink:title=" ">
<path fill="none" stroke="#63b8ff" d="M108.94,-103.92C130.72,-114.13 160.24,-127.34 187,-137.25 192.34,-139.23 197.91,-141.17 203.54,-143.03"/>
<polygon fill="#63b8ff" stroke="#63b8ff" points="202.33,-146.32 212.92,-146.07 204.48,-139.66 202.33,-146.32"/>
</a>
</g>
</g>
<!-- Node3 -->
<g id="Node000003" class="node">
<title>Node3</title>
<g id="a_Node000003"><a xlink:href="class_temperature_controller.html#a7ca5124357f98bcd52316cf017341b09" target="_top" xlink:title="Display next active alarm in rotation.">
<polygon fill="white" stroke="#666666" points="337.25,-128.5 205,-128.5 205,-98 337.25,-98 337.25,-128.5"/>
<text xml:space="preserve" text-anchor="start" x="213" y="-115" font-family="Helvetica,sans-Serif" font-size="10.00">TemperatureController</text>
<text xml:space="preserve" text-anchor="middle" x="271.12" y="-103.75" font-family="Helvetica,sans-Serif" font-size="10.00">::_displayNextActiveAlarm</text>
</a>
</g>
</g>
<!-- Node1&#45;&gt;Node3 -->
<g id="edge2_Node000001_Node000003" class="edge">
<title>Node1&#45;&gt;Node3</title>
<g id="a_edge2_Node000001_Node000003"><a xlink:title=" ">
<path fill="none" stroke="#63b8ff" d="M151.36,-97.92C165.08,-99.69 179.42,-101.54 193.19,-103.32"/>
<polygon fill="#63b8ff" stroke="#63b8ff" points="192.74,-106.79 203.11,-104.6 193.64,-99.85 192.74,-106.79"/>
</a>
</g>
</g>
<!-- Node4 -->
<g id="Node000004" class="node">
<title>Node4</title>
<g id="a_Node000004"><a xlink:href="class_temperature_controller.html#a28e81945f5235e161e6c532b428d36d2" target="_top" xlink:title="Show OK status and turn off OLED after delay.">
<polygon fill="white" stroke="#666666" points="342.12,-79.5 200.12,-79.5 200.12,-49 342.12,-49 342.12,-79.5"/>
<text xml:space="preserve" text-anchor="start" x="208.12" y="-66" font-family="Helvetica,sans-Serif" font-size="10.00">TemperatureController</text>
<text xml:space="preserve" text-anchor="middle" x="271.12" y="-54.75" font-family="Helvetica,sans-Serif" font-size="10.00">::_showOKAndTurnOffOLED</text>
</a>
</g>
</g>
<!-- Node1&#45;&gt;Node4 -->
<g id="edge3_Node000001_Node000004" class="edge">
<title>Node1&#45;&gt;Node4</title>
<g id="a_edge3_Node000001_Node000004"><a xlink:title=" ">
<path fill="none" stroke="#63b8ff" d="M151.36,-78.97C163.58,-77.46 176.3,-75.88 188.67,-74.35"/>
<polygon fill="#63b8ff" stroke="#63b8ff" points="188.91,-77.84 198.41,-73.14 188.05,-70.9 188.91,-77.84"/>
</a>
</g>
</g>
<!-- Node5 -->
<g id="Node000005" class="node">
<title>Node5</title>
<g id="a_Node000005"><a xlink:href="class_temperature_controller.html#a4d36576f7d6ab8f5222a082878314912" target="_top" xlink:title="Update normal temperature display.">
<polygon fill="white" stroke="#666666" points="331.62,-30.5 210.62,-30.5 210.62,0 331.62,0 331.62,-30.5"/>
<text xml:space="preserve" text-anchor="start" x="218.62" y="-17" font-family="Helvetica,sans-Serif" font-size="10.00">TemperatureController</text>
<text xml:space="preserve" text-anchor="middle" x="271.12" y="-5.75" font-family="Helvetica,sans-Serif" font-size="10.00">::_updateNormalDisplay</text>
</a>
</g>
</g>
<!-- Node1&#45;&gt;Node5 -->
<g id="edge4_Node000001_Node000005" class="edge">
<title>Node1&#45;&gt;Node5</title>
<g id="a_edge4_Node000001_Node000005"><a xlink:title=" ">
<path fill="none" stroke="#63b8ff" d="M109.94,-72.5C131.64,-62.59 160.68,-49.89 187,-40.25 192.57,-38.21 198.4,-36.21 204.26,-34.28"/>
<polygon fill="#63b8ff" stroke="#63b8ff" points="204.93,-37.74 213.39,-31.35 202.79,-31.07 204.93,-37.74"/>
</a>
</g>
</g>
</g>
</svg>
