<?xml version="1.0" encoding="UTF-8" standalone="no"?>
<!DOCTYPE svg PUBLIC "-//W3C//DTD SVG 1.1//EN"
 "http://www.w3.org/Graphics/SVG/1.1/DTD/svg11.dtd">
<!-- Generated by graphviz version 13.1.0 (20250701.0955)
 -->
<!-- Title: CSVConfigManager::_getPriorityString Pages: 1 -->
<svg width="598pt" height="39pt"
 viewBox="0.00 0.00 598.00 39.00" xmlns="http://www.w3.org/2000/svg" xmlns:xlink="http://www.w3.org/1999/xlink">
<g id="graph0" class="graph" transform="scale(1 1) rotate(0) translate(4 34.5)">
<title>CSVConfigManager::_getPriorityString</title>
<!-- Node1 -->
<g id="Node000001" class="node">
<title>Node1</title>
<g id="a_Node000001"><a xlink:title="Convert alarm priority enum to string.">
<polygon fill="#999999" stroke="#666666" points="589.75,-30.5 480.75,-30.5 480.75,0 589.75,0 589.75,-30.5"/>
<text xml:space="preserve" text-anchor="start" x="488.75" y="-17" font-family="Helvetica,sans-Serif" font-size="10.00">CSVConfigManager::</text>
<text xml:space="preserve" text-anchor="middle" x="535.25" y="-5.75" font-family="Helvetica,sans-Serif" font-size="10.00">_getPriorityString</text>
</a>
</g>
</g>
<!-- Node2 -->
<g id="Node000002" class="node">
<title>Node2</title>
<g id="a_Node000002"><a xlink:href="class_c_s_v_config_manager.html#aa43c8405582f387b0330cc1e965f5117" target="_top" xlink:title="Get alarm priority for specific point and alarm type.">
<polygon fill="white" stroke="#666666" points="444.75,-30.5 317,-30.5 317,0 444.75,0 444.75,-30.5"/>
<text xml:space="preserve" text-anchor="start" x="325" y="-17" font-family="Helvetica,sans-Serif" font-size="10.00">CSVConfigManager::</text>
<text xml:space="preserve" text-anchor="middle" x="380.88" y="-5.75" font-family="Helvetica,sans-Serif" font-size="10.00">_getAlarmPriorityForPoint</text>
</a>
</g>
</g>
<!-- Node1&#45;&gt;Node2 -->
<g id="edge1_Node000001_Node000002" class="edge">
<title>Node1&#45;&gt;Node2</title>
<g id="a_edge1_Node000001_Node000002"><a xlink:title=" ">
<path fill="none" stroke="#63b8ff" d="M469.03,-15.25C461.07,-15.25 452.95,-15.25 445.02,-15.25"/>
<polygon fill="#63b8ff" stroke="#63b8ff" points="469.01,-18.75 479.01,-15.25 469.01,-11.75 469.01,-18.75"/>
</a>
</g>
</g>
<!-- Node3 -->
<g id="Node000003" class="node">
<title>Node3</title>
<g id="a_Node000003"><a xlink:href="class_c_s_v_config_manager.html#a2c2673398051c26184c9197aa751a6b3" target="_top" xlink:title="Export single measurement point to CSV format.">
<polygon fill="white" stroke="#666666" points="281,-30.5 172,-30.5 172,0 281,0 281,-30.5"/>
<text xml:space="preserve" text-anchor="start" x="180" y="-17" font-family="Helvetica,sans-Serif" font-size="10.00">CSVConfigManager::</text>
<text xml:space="preserve" text-anchor="middle" x="226.5" y="-5.75" font-family="Helvetica,sans-Serif" font-size="10.00">_exportPointToCSV</text>
</a>
</g>
</g>
<!-- Node2&#45;&gt;Node3 -->
<g id="edge2_Node000002_Node000003" class="edge">
<title>Node2&#45;&gt;Node3</title>
<g id="a_edge2_Node000002_Node000003"><a xlink:title=" ">
<path fill="none" stroke="#63b8ff" d="M305.17,-15.25C297.07,-15.25 288.94,-15.25 281.15,-15.25"/>
<polygon fill="#63b8ff" stroke="#63b8ff" points="305.06,-18.75 315.06,-15.25 305.06,-11.75 305.06,-18.75"/>
</a>
</g>
</g>
<!-- Node4 -->
<g id="Node000004" class="node">
<title>Node4</title>
<g id="a_Node000004"><a xlink:href="class_c_s_v_config_manager.html#a1c6cbc4c8a132762bf16a8ce9f7d0bfc" target="_top" xlink:title="Export measurement points with alarm configuration to CSV.">
<polygon fill="white" stroke="#666666" points="136,-30.5 0,-30.5 0,0 136,0 136,-30.5"/>
<text xml:space="preserve" text-anchor="start" x="8" y="-17" font-family="Helvetica,sans-Serif" font-size="10.00">CSVConfigManager::export</text>
<text xml:space="preserve" text-anchor="middle" x="68" y="-5.75" font-family="Helvetica,sans-Serif" font-size="10.00">PointsWithAlarmsToCSV</text>
</a>
</g>
</g>
<!-- Node3&#45;&gt;Node4 -->
<g id="edge3_Node000003_Node000004" class="edge">
<title>Node3&#45;&gt;Node4</title>
<g id="a_edge3_Node000003_Node000004"><a xlink:title=" ">
<path fill="none" stroke="#63b8ff" d="M160.21,-15.25C152.28,-15.25 144.18,-15.25 136.23,-15.25"/>
<polygon fill="#63b8ff" stroke="#63b8ff" points="160.13,-18.75 170.13,-15.25 160.13,-11.75 160.13,-18.75"/>
</a>
</g>
</g>
</g>
</svg>
