<?xml version="1.0" encoding="UTF-8" standalone="no"?>
<!DOCTYPE svg PUBLIC "-//W3C//DTD SVG 1.1//EN"
 "http://www.w3.org/Graphics/SVG/1.1/DTD/svg11.dtd">
<!-- Generated by graphviz version 13.1.0 (20250701.0955)
 -->
<!-- Title: LoggerManager::_getAlarmLogFilesInRange Pages: 1 -->
<svg width="663pt" height="64pt"
 viewBox="0.00 0.00 663.00 64.00" xmlns="http://www.w3.org/2000/svg" xmlns:xlink="http://www.w3.org/1999/xlink">
<g id="graph0" class="graph" transform="scale(1 1) rotate(0) translate(4 60.25)">
<title>LoggerManager::_getAlarmLogFilesInRange</title>
<!-- Node1 -->
<g id="Node000001" class="node">
<title>Node1</title>
<g id="a_Node000001"><a xlink:title=" ">
<polygon fill="#999999" stroke="#666666" points="655,-42.88 522,-42.88 522,-12.37 655,-12.37 655,-42.88"/>
<text xml:space="preserve" text-anchor="start" x="530" y="-29.38" font-family="Helvetica,sans-Serif" font-size="10.00">LoggerManager::_getAlarm</text>
<text xml:space="preserve" text-anchor="middle" x="588.5" y="-18.12" font-family="Helvetica,sans-Serif" font-size="10.00">LogFilesInRange</text>
</a>
</g>
</g>
<!-- Node2 -->
<g id="Node000002" class="node">
<title>Node2</title>
<g id="a_Node000002"><a xlink:href="class_logger_manager.html#a612d1bdfbfd0d93f9452fd7bac8775ca" target="_top" xlink:title=" ">
<polygon fill="white" stroke="#666666" points="484.5,-56.25 307.25,-56.25 307.25,-37 484.5,-37 484.5,-56.25"/>
<text xml:space="preserve" text-anchor="middle" x="395.88" y="-42.75" font-family="Helvetica,sans-Serif" font-size="10.00">LoggerManager::getAlarmHistoryCsv</text>
</a>
</g>
</g>
<!-- Node1&#45;&gt;Node2 -->
<g id="edge1_Node000001_Node000002" class="edge">
<title>Node1&#45;&gt;Node2</title>
<g id="a_edge1_Node000001_Node000002"><a xlink:title=" ">
<path fill="none" stroke="#63b8ff" d="M510.36,-35.31C501.99,-36.15 493.43,-37 484.94,-37.85"/>
<polygon fill="#63b8ff" stroke="#63b8ff" points="510.52,-38.82 520.12,-34.34 509.83,-31.85 510.52,-38.82"/>
</a>
</g>
</g>
<!-- Node5 -->
<g id="Node000005" class="node">
<title>Node5</title>
<g id="a_Node000005"><a xlink:href="class_logger_manager.html#af04d8d79f7bcb9ff4dace5b490502b50" target="_top" xlink:title=" ">
<polygon fill="white" stroke="#666666" points="486,-19.25 305.75,-19.25 305.75,0 486,0 486,-19.25"/>
<text xml:space="preserve" text-anchor="middle" x="395.88" y="-5.75" font-family="Helvetica,sans-Serif" font-size="10.00">LoggerManager::getAlarmHistoryJson</text>
</a>
</g>
</g>
<!-- Node1&#45;&gt;Node5 -->
<g id="edge4_Node000001_Node000005" class="edge">
<title>Node1&#45;&gt;Node5</title>
<g id="a_edge4_Node000001_Node000005"><a xlink:title=" ">
<path fill="none" stroke="#63b8ff" d="M510.23,-20.33C502.34,-19.58 494.28,-18.82 486.28,-18.07"/>
<polygon fill="#63b8ff" stroke="#63b8ff" points="509.84,-23.81 520.12,-21.26 510.5,-16.84 509.84,-23.81"/>
</a>
</g>
</g>
<!-- Node3 -->
<g id="Node000003" class="node">
<title>Node3</title>
<g id="a_Node000003"><a xlink:href="class_config_manager.html#a9e977107b4795fcbce0482711ff1ce7a" target="_top" xlink:title="Setup logging API endpoints.">
<polygon fill="white" stroke="#666666" points="269.75,-37.25 147.25,-37.25 147.25,-18 269.75,-18 269.75,-37.25"/>
<text xml:space="preserve" text-anchor="middle" x="208.5" y="-23.75" font-family="Helvetica,sans-Serif" font-size="10.00">ConfigManager::logsAPI</text>
</a>
</g>
</g>
<!-- Node2&#45;&gt;Node3 -->
<g id="edge2_Node000002_Node000003" class="edge">
<title>Node2&#45;&gt;Node3</title>
<g id="a_edge2_Node000002_Node000003"><a xlink:title=" ">
<path fill="none" stroke="#63b8ff" d="M295.44,-36.43C286.81,-35.55 278.26,-34.67 270.09,-33.84"/>
<polygon fill="#63b8ff" stroke="#63b8ff" points="294.99,-39.91 305.3,-37.44 295.71,-32.94 294.99,-39.91"/>
</a>
</g>
</g>
<!-- Node4 -->
<g id="Node000004" class="node">
<title>Node4</title>
<g id="a_Node000004"><a xlink:href="class_config_manager.html#a0497343220fc493f5cf9574922508908" target="_top" xlink:title="Initialize the configuration system.">
<polygon fill="white" stroke="#666666" points="111.25,-37.25 0,-37.25 0,-18 111.25,-18 111.25,-37.25"/>
<text xml:space="preserve" text-anchor="middle" x="55.62" y="-23.75" font-family="Helvetica,sans-Serif" font-size="10.00">ConfigManager::begin</text>
</a>
</g>
</g>
<!-- Node3&#45;&gt;Node4 -->
<g id="edge3_Node000003_Node000004" class="edge">
<title>Node3&#45;&gt;Node4</title>
<g id="a_edge3_Node000003_Node000004"><a xlink:title=" ">
<path fill="none" stroke="#63b8ff" d="M135.54,-27.62C127.38,-27.62 119.17,-27.62 111.28,-27.62"/>
<polygon fill="#63b8ff" stroke="#63b8ff" points="135.49,-31.13 145.49,-27.63 135.49,-24.13 135.49,-31.13"/>
</a>
</g>
</g>
<!-- Node5&#45;&gt;Node3 -->
<g id="edge5_Node000005_Node000003" class="edge">
<title>Node5&#45;&gt;Node3</title>
<g id="a_edge5_Node000005_Node000003"><a xlink:title=" ">
<path fill="none" stroke="#63b8ff" d="M294.25,-19.4C286.06,-20.19 277.96,-20.98 270.19,-21.73"/>
<polygon fill="#63b8ff" stroke="#63b8ff" points="294.32,-22.91 303.94,-18.45 293.65,-15.94 294.32,-22.91"/>
</a>
</g>
</g>
</g>
</svg>
