<?xml version="1.0" encoding="UTF-8" standalone="no"?>
<!DOCTYPE svg PUBLIC "-//W3C//DTD SVG 1.1//EN"
 "http://www.w3.org/Graphics/SVG/1.1/DTD/svg11.dtd">
<!-- Generated by graphviz version 13.1.0 (20250701.0955)
 -->
<!-- Title: IndicatorInterface::stopBlinking Pages: 1 -->
<svg width="566pt" height="88pt"
 viewBox="0.00 0.00 566.00 88.00" xmlns="http://www.w3.org/2000/svg" xmlns:xlink="http://www.w3.org/1999/xlink">
<g id="graph0" class="graph" transform="scale(1 1) rotate(0) translate(4 83.5)">
<title>IndicatorInterface::stopBlinking</title>
<!-- Node1 -->
<g id="Node000001" class="node">
<title>Node1</title>
<g id="a_Node000001"><a xlink:title="Stop all blinking and restore normal text.">
<polygon fill="#999999" stroke="#666666" points="91.75,-54.5 0,-54.5 0,-24 91.75,-24 91.75,-54.5"/>
<text xml:space="preserve" text-anchor="start" x="8" y="-41" font-family="Helvetica,sans-Serif" font-size="10.00">IndicatorInterface</text>
<text xml:space="preserve" text-anchor="middle" x="45.88" y="-29.75" font-family="Helvetica,sans-Serif" font-size="10.00">::stopBlinking</text>
</a>
</g>
</g>
<!-- Node2 -->
<g id="Node000002" class="node">
<title>Node2</title>
<g id="a_Node000002"><a xlink:href="$class_indicator_interface.html#aa24a016a7358ca6f0c955794d5774512" xlink:title="Restore previously saved text.">
<polygon fill="white" stroke="#666666" points="236,-54.5 127.75,-54.5 127.75,-24 236,-24 236,-54.5"/>
<text xml:space="preserve" text-anchor="start" x="135.75" y="-41" font-family="Helvetica,sans-Serif" font-size="10.00">IndicatorInterface</text>
<text xml:space="preserve" text-anchor="middle" x="181.88" y="-29.75" font-family="Helvetica,sans-Serif" font-size="10.00">::_restoreCurrentText</text>
</a>
</g>
</g>
<!-- Node1&#45;&gt;Node2 -->
<g id="edge1_Node000001_Node000002" class="edge">
<title>Node1&#45;&gt;Node2</title>
<g id="a_edge1_Node000001_Node000002"><a xlink:title=" ">
<path fill="none" stroke="#63b8ff" d="M92.24,-39.25C99.98,-39.25 108.15,-39.25 116.28,-39.25"/>
<polygon fill="#63b8ff" stroke="#63b8ff" points="116.17,-42.75 126.17,-39.25 116.17,-35.75 116.17,-42.75"/>
</a>
</g>
</g>
<!-- Node3 -->
<g id="Node000003" class="node">
<title>Node3</title>
<g id="a_Node000003"><a xlink:href="$class_indicator_interface.html#a38acc1a5120e275253fc4e458aea91f0" xlink:title="Update OLED display content.">
<polygon fill="white" stroke="#666666" points="388.5,-54.5 272,-54.5 272,-24 388.5,-24 388.5,-54.5"/>
<text xml:space="preserve" text-anchor="start" x="280" y="-41" font-family="Helvetica,sans-Serif" font-size="10.00">IndicatorInterface</text>
<text xml:space="preserve" text-anchor="middle" x="330.25" y="-29.75" font-family="Helvetica,sans-Serif" font-size="10.00">::_updateOLEDDisplay</text>
</a>
</g>
</g>
<!-- Node2&#45;&gt;Node3 -->
<g id="edge2_Node000002_Node000003" class="edge">
<title>Node2&#45;&gt;Node3</title>
<g id="a_edge2_Node000002_Node000003"><a xlink:title=" ">
<path fill="none" stroke="#63b8ff" d="M236.13,-39.25C244.02,-39.25 252.25,-39.25 260.4,-39.25"/>
<polygon fill="#63b8ff" stroke="#63b8ff" points="260.32,-42.75 270.32,-39.25 260.32,-35.75 260.32,-42.75"/>
</a>
</g>
</g>
<!-- Node4 -->
<g id="Node000004" class="node">
<title>Node4</title>
<g id="a_Node000004"><a xlink:href="$class_indicator_interface.html#a2f021f6fa16dec590a8b9cf41a82349d" xlink:title="Calculate display parameters.">
<polygon fill="white" stroke="#666666" points="557.5,-79.5 424.5,-79.5 424.5,-49 557.5,-49 557.5,-79.5"/>
<text xml:space="preserve" text-anchor="start" x="432.5" y="-66" font-family="Helvetica,sans-Serif" font-size="10.00">IndicatorInterface</text>
<text xml:space="preserve" text-anchor="middle" x="491" y="-54.75" font-family="Helvetica,sans-Serif" font-size="10.00">::_calculateDisplayParams</text>
</a>
</g>
</g>
<!-- Node3&#45;&gt;Node4 -->
<g id="edge3_Node000003_Node000004" class="edge">
<title>Node3&#45;&gt;Node4</title>
<g id="a_edge3_Node000003_Node000004"><a xlink:title=" ">
<path fill="none" stroke="#63b8ff" d="M388.56,-48.28C396.5,-49.53 404.76,-50.83 412.98,-52.12"/>
<polygon fill="#63b8ff" stroke="#63b8ff" points="412.22,-55.54 422.65,-53.64 413.31,-48.63 412.22,-55.54"/>
</a>
</g>
</g>
<!-- Node5 -->
<g id="Node000005" class="node">
<title>Node5</title>
<g id="a_Node000005"><a xlink:href="$class_indicator_interface.html#a56c23034a963e2099e36cf55ec70055e" xlink:title="Draw single text line at specified position.">
<polygon fill="white" stroke="#666666" points="536.88,-30.5 445.12,-30.5 445.12,0 536.88,0 536.88,-30.5"/>
<text xml:space="preserve" text-anchor="start" x="453.12" y="-17" font-family="Helvetica,sans-Serif" font-size="10.00">IndicatorInterface</text>
<text xml:space="preserve" text-anchor="middle" x="491" y="-5.75" font-family="Helvetica,sans-Serif" font-size="10.00">::_drawTextLine</text>
</a>
</g>
</g>
<!-- Node3&#45;&gt;Node5 -->
<g id="edge4_Node000003_Node000005" class="edge">
<title>Node3&#45;&gt;Node5</title>
<g id="a_edge4_Node000003_Node000005"><a xlink:title=" ">
<path fill="none" stroke="#63b8ff" d="M388.56,-30.59C403.14,-28.38 418.79,-26.02 433.34,-23.82"/>
<polygon fill="#63b8ff" stroke="#63b8ff" points="433.86,-27.28 443.22,-22.32 432.81,-20.36 433.86,-27.28"/>
</a>
</g>
</g>
</g>
</svg>
