<?xml version="1.0" encoding="UTF-8" standalone="no"?>
<!DOCTYPE svg PUBLIC "-//W3C//DTD SVG 1.1//EN"
 "http://www.w3.org/Graphics/SVG/1.1/DTD/svg11.dtd">
<!-- Generated by graphviz version 13.1.0 (20250701.0955)
 -->
<!-- Title: MeasurementPoint::getAddress Pages: 1 -->
<svg width="709pt" height="468pt"
 viewBox="0.00 0.00 709.00 468.00" xmlns="http://www.w3.org/2000/svg" xmlns:xlink="http://www.w3.org/1999/xlink">
<g id="graph0" class="graph" transform="scale(1 1) rotate(0) translate(4 463.5)">
<title>MeasurementPoint::getAddress</title>
<!-- Node1 -->
<g id="Node000001" class="node">
<title>Node1</title>
<g id="a_Node000001"><a xlink:title="Get measurement point address.">
<polygon fill="#999999" stroke="#666666" points="700.75,-232.88 547.5,-232.88 547.5,-213.62 700.75,-213.62 700.75,-232.88"/>
<text xml:space="preserve" text-anchor="middle" x="624.12" y="-219.38" font-family="Helvetica,sans-Serif" font-size="10.00">MeasurementPoint::getAddress</text>
</a>
</g>
</g>
<!-- Node2 -->
<g id="Node000002" class="node">
<title>Node2</title>
<g id="a_Node000002"><a xlink:href="$class_c_s_v_config_manager.html#a2c2673398051c26184c9197aa751a6b3" xlink:title="Export single measurement point to CSV format.">
<polygon fill="white" stroke="#666666" points="471.75,-459.5 362.75,-459.5 362.75,-429 471.75,-429 471.75,-459.5"/>
<text xml:space="preserve" text-anchor="start" x="370.75" y="-446" font-family="Helvetica,sans-Serif" font-size="10.00">CSVConfigManager::</text>
<text xml:space="preserve" text-anchor="middle" x="417.25" y="-434.75" font-family="Helvetica,sans-Serif" font-size="10.00">_exportPointToCSV</text>
</a>
</g>
</g>
<!-- Node1&#45;&gt;Node2 -->
<g id="edge1_Node000001_Node000002" class="edge">
<title>Node1&#45;&gt;Node2</title>
<g id="a_edge1_Node000001_Node000002"><a xlink:title=" ">
<path fill="none" stroke="#63b8ff" d="M617.22,-244.04C604.71,-284.26 571.61,-372.84 511.5,-419.25 500.09,-428.06 485.82,-433.77 471.91,-437.47"/>
<polygon fill="#63b8ff" stroke="#63b8ff" points="620.52,-245.24 620.02,-234.66 613.81,-243.24 620.52,-245.24"/>
</a>
</g>
</g>
<!-- Node4 -->
<g id="Node000004" class="node">
<title>Node4</title>
<g id="a_Node000004"><a xlink:href="$class_config_manager.html#ae605c999fabc6344511f455618655326" xlink:title="Setup alarms API endpoints.">
<polygon fill="white" stroke="#666666" points="284,-143.88 150.25,-143.88 150.25,-124.62 284,-124.62 284,-143.88"/>
<text xml:space="preserve" text-anchor="middle" x="217.12" y="-130.38" font-family="Helvetica,sans-Serif" font-size="10.00">ConfigManager::alarmsAPI</text>
</a>
</g>
</g>
<!-- Node1&#45;&gt;Node4 -->
<g id="edge3_Node000001_Node000004" class="edge">
<title>Node1&#45;&gt;Node4</title>
<g id="a_edge3_Node000001_Node000004"><a xlink:title=" ">
<path fill="none" stroke="#63b8ff" d="M614.82,-202.89C599.88,-169.37 564.98,-103.68 511.5,-77.25 436.39,-40.13 404.2,-56.61 323,-77.25 287.25,-86.34 250.51,-110.34 231.44,-124.13"/>
<polygon fill="#63b8ff" stroke="#63b8ff" points="611.52,-204.07 618.67,-211.89 617.95,-201.32 611.52,-204.07"/>
</a>
</g>
</g>
<!-- Node6 -->
<g id="Node000006" class="node">
<title>Node6</title>
<g id="a_Node000006"><a xlink:href="$class_register_map.html#a1f102e7d0dd51d4750c916fb6e32c37a" xlink:title="Apply configuration from measurement point to registers.">
<polygon fill="white" stroke="#666666" points="481.88,-361.5 352.62,-361.5 352.62,-331 481.88,-331 481.88,-361.5"/>
<text xml:space="preserve" text-anchor="start" x="360.62" y="-348" font-family="Helvetica,sans-Serif" font-size="10.00">RegisterMap::applyConfig</text>
<text xml:space="preserve" text-anchor="middle" x="417.25" y="-336.75" font-family="Helvetica,sans-Serif" font-size="10.00">FromMeasurementPoint</text>
</a>
</g>
</g>
<!-- Node1&#45;&gt;Node6 -->
<g id="edge5_Node000001_Node000006" class="edge">
<title>Node1&#45;&gt;Node6</title>
<g id="a_edge5_Node000001_Node000006"><a xlink:title=" ">
<path fill="none" stroke="#63b8ff" d="M607.11,-241.75C586.97,-263.87 550.3,-300.49 511.5,-321.25 502.34,-326.15 492.14,-330.15 481.95,-333.38"/>
<polygon fill="#63b8ff" stroke="#63b8ff" points="609.64,-244.17 613.68,-234.38 604.41,-239.52 609.64,-244.17"/>
</a>
</g>
</g>
<!-- Node7 -->
<g id="Node000007" class="node">
<title>Node7</title>
<g id="a_Node000007"><a xlink:href="$class_register_map.html#aa2f819b22096b8c14c421b415f7e83b7" xlink:title="Apply configuration from registers to measurement point.">
<polygon fill="white" stroke="#666666" points="481.88,-312.5 352.62,-312.5 352.62,-282 481.88,-282 481.88,-312.5"/>
<text xml:space="preserve" text-anchor="start" x="360.62" y="-299" font-family="Helvetica,sans-Serif" font-size="10.00">RegisterMap::applyConfig</text>
<text xml:space="preserve" text-anchor="middle" x="417.25" y="-287.75" font-family="Helvetica,sans-Serif" font-size="10.00">ToMeasurementPoint</text>
</a>
</g>
</g>
<!-- Node1&#45;&gt;Node7 -->
<g id="edge6_Node000001_Node000007" class="edge">
<title>Node1&#45;&gt;Node7</title>
<g id="a_edge6_Node000001_Node000007"><a xlink:title=" ">
<path fill="none" stroke="#63b8ff" d="M592.8,-238.06C570.63,-248.51 539.64,-262.36 511.5,-272.25 502.09,-275.56 492.02,-278.67 482.1,-281.52"/>
<polygon fill="#63b8ff" stroke="#63b8ff" points="594.04,-241.34 601.56,-233.88 591.03,-235.03 594.04,-241.34"/>
</a>
</g>
</g>
<!-- Node8 -->
<g id="Node000008" class="node">
<title>Node8</title>
<g id="a_Node000008"><a xlink:href="$class_temperature_controller.html#aa64384fb8503814b46a7d55f53ccb53a" xlink:title="Create new alarm for measurement point.">
<polygon fill="white" stroke="#666666" points="473.25,-410.5 361.25,-410.5 361.25,-380 473.25,-380 473.25,-410.5"/>
<text xml:space="preserve" text-anchor="start" x="369.25" y="-397" font-family="Helvetica,sans-Serif" font-size="10.00">TemperatureController</text>
<text xml:space="preserve" text-anchor="middle" x="417.25" y="-385.75" font-family="Helvetica,sans-Serif" font-size="10.00">::createAlarm</text>
</a>
</g>
</g>
<!-- Node1&#45;&gt;Node8 -->
<g id="edge7_Node000001_Node000008" class="edge">
<title>Node1&#45;&gt;Node8</title>
<g id="a_edge7_Node000001_Node000008"><a xlink:title=" ">
<path fill="none" stroke="#63b8ff" d="M613.53,-243.18C597.15,-275.03 560.75,-337.16 511.5,-370.25 500.23,-377.82 486.76,-383.1 473.6,-386.79"/>
<polygon fill="#63b8ff" stroke="#63b8ff" points="616.46,-245.14 617.8,-234.63 610.2,-242.02 616.46,-245.14"/>
</a>
</g>
</g>
<!-- Node10 -->
<g id="Node000010" class="node">
<title>Node10</title>
<g id="a_Node000010"><a xlink:href="$class_temperature_controller.html#ad174e0411bd48422d8e3812fd28a7a0b" xlink:title="Ensure all 3 alarm types exist for a measurement point.">
<polygon fill="white" stroke="#666666" points="476.62,-214.5 357.88,-214.5 357.88,-184 476.62,-184 476.62,-214.5"/>
<text xml:space="preserve" text-anchor="start" x="365.88" y="-201" font-family="Helvetica,sans-Serif" font-size="10.00">TemperatureController</text>
<text xml:space="preserve" text-anchor="middle" x="417.25" y="-189.75" font-family="Helvetica,sans-Serif" font-size="10.00">::ensureAlarmsForPoint</text>
</a>
</g>
</g>
<!-- Node1&#45;&gt;Node10 -->
<g id="edge9_Node000001_Node000010" class="edge">
<title>Node1&#45;&gt;Node10</title>
<g id="a_edge9_Node000001_Node000010"><a xlink:title=" ">
<path fill="none" stroke="#63b8ff" d="M535.84,-213.02C515.92,-210.69 495.21,-208.27 476.83,-206.11"/>
<polygon fill="#63b8ff" stroke="#63b8ff" points="535.29,-216.48 545.62,-214.17 536.1,-209.53 535.29,-216.48"/>
</a>
</g>
</g>
<!-- Node11 -->
<g id="Node000011" class="node">
<title>Node11</title>
<g id="a_Node000011"><a xlink:href="$class_temperature_controller.html#a880028883101197527de57f626e14512" xlink:title="Get all alarms associated with a measurement point.">
<polygon fill="white" stroke="#666666" points="473.25,-165.5 361.25,-165.5 361.25,-135 473.25,-135 473.25,-165.5"/>
<text xml:space="preserve" text-anchor="start" x="369.25" y="-152" font-family="Helvetica,sans-Serif" font-size="10.00">TemperatureController</text>
<text xml:space="preserve" text-anchor="middle" x="417.25" y="-140.75" font-family="Helvetica,sans-Serif" font-size="10.00">::getAlarmsForPoint</text>
</a>
</g>
</g>
<!-- Node1&#45;&gt;Node11 -->
<g id="edge10_Node000001_Node000011" class="edge">
<title>Node1&#45;&gt;Node11</title>
<g id="a_edge10_Node000001_Node000011"><a xlink:title=" ">
<path fill="none" stroke="#63b8ff" d="M592.06,-208.46C569.92,-198.27 539.29,-184.89 511.5,-175.25 499.31,-171.02 486.01,-167.07 473.38,-163.62"/>
<polygon fill="#63b8ff" stroke="#63b8ff" points="590.58,-211.63 601.12,-212.67 593.53,-205.28 590.58,-211.63"/>
</a>
</g>
</g>
<!-- Node12 -->
<g id="Node000012" class="node">
<title>Node12</title>
<g id="a_Node000012"><a xlink:href="$class_temperature_controller.html#add39ba7dad38449bbf1787a5c9c51ef9" xlink:title="Get JSON representation of all measurement points.">
<polygon fill="white" stroke="#666666" points="473.25,-116.5 361.25,-116.5 361.25,-86 473.25,-86 473.25,-116.5"/>
<text xml:space="preserve" text-anchor="start" x="369.25" y="-103" font-family="Helvetica,sans-Serif" font-size="10.00">TemperatureController</text>
<text xml:space="preserve" text-anchor="middle" x="417.25" y="-91.75" font-family="Helvetica,sans-Serif" font-size="10.00">::getPointsJson</text>
</a>
</g>
</g>
<!-- Node1&#45;&gt;Node12 -->
<g id="edge11_Node000001_Node000012" class="edge">
<title>Node1&#45;&gt;Node12</title>
<g id="a_edge11_Node000001_Node000012"><a xlink:title=" ">
<path fill="none" stroke="#63b8ff" d="M607.07,-204.94C586.89,-183.06 550.18,-146.82 511.5,-126.25 499.81,-120.03 486.45,-115.27 473.57,-111.66"/>
<polygon fill="#63b8ff" stroke="#63b8ff" points="604.35,-207.15 613.65,-212.23 609.54,-202.46 604.35,-207.15"/>
</a>
</g>
</g>
<!-- Node13 -->
<g id="Node000013" class="node">
<title>Node13</title>
<g id="a_Node000013"><a xlink:href="$class_config_manager.html#a55b79da91c57039c483ddf5fceabbd64" xlink:title="Save measurement points configuration to file.">
<polygon fill="white" stroke="#666666" points="485.62,-263.5 348.88,-263.5 348.88,-233 485.62,-233 485.62,-263.5"/>
<text xml:space="preserve" text-anchor="start" x="356.88" y="-250" font-family="Helvetica,sans-Serif" font-size="10.00">ConfigManager::savePoints</text>
<text xml:space="preserve" text-anchor="middle" x="417.25" y="-238.75" font-family="Helvetica,sans-Serif" font-size="10.00">Config</text>
</a>
</g>
</g>
<!-- Node1&#45;&gt;Node13 -->
<g id="edge12_Node000001_Node000013" class="edge">
<title>Node1&#45;&gt;Node13</title>
<g id="a_edge12_Node000001_Node000013"><a xlink:title=" ">
<path fill="none" stroke="#63b8ff" d="M535.72,-233.92C519.09,-235.94 501.92,-238.04 486.02,-239.98"/>
<polygon fill="#63b8ff" stroke="#63b8ff" points="536.12,-237.39 545.63,-232.71 535.28,-230.44 536.12,-237.39"/>
</a>
</g>
</g>
<!-- Node18 -->
<g id="Node000018" class="node">
<title>Node18</title>
<g id="a_Node000018"><a xlink:href="$class_register_map.html#a2940213459a183fc06a2226f1cd1a48b" xlink:title="Update registers from measurement point data.">
<polygon fill="white" stroke="#666666" points="511.5,-30.5 323,-30.5 323,0 511.5,0 511.5,-30.5"/>
<text xml:space="preserve" text-anchor="start" x="331" y="-17" font-family="Helvetica,sans-Serif" font-size="10.00">RegisterMap::updateFromMeasurement</text>
<text xml:space="preserve" text-anchor="middle" x="417.25" y="-5.75" font-family="Helvetica,sans-Serif" font-size="10.00">Point</text>
</a>
</g>
</g>
<!-- Node1&#45;&gt;Node18 -->
<g id="edge21_Node000001_Node000018" class="edge">
<title>Node1&#45;&gt;Node18</title>
<g id="a_edge21_Node000001_Node000018"><a xlink:title=" ">
<path fill="none" stroke="#63b8ff" d="M615.97,-202.93C601.86,-165.84 566.96,-87.06 511.5,-44.25 504.52,-38.86 496.53,-34.47 488.23,-30.88"/>
<polygon fill="#63b8ff" stroke="#63b8ff" points="612.56,-203.81 619.29,-211.99 619.13,-201.39 612.56,-203.81"/>
</a>
</g>
</g>
<!-- Node3 -->
<g id="Node000003" class="node">
<title>Node3</title>
<g id="a_Node000003"><a xlink:href="$class_c_s_v_config_manager.html#a1c6cbc4c8a132762bf16a8ce9f7d0bfc" xlink:title="Export measurement points with alarm configuration to CSV.">
<polygon fill="white" stroke="#666666" points="285.12,-459.5 149.12,-459.5 149.12,-429 285.12,-429 285.12,-459.5"/>
<text xml:space="preserve" text-anchor="start" x="157.12" y="-446" font-family="Helvetica,sans-Serif" font-size="10.00">CSVConfigManager::export</text>
<text xml:space="preserve" text-anchor="middle" x="217.12" y="-434.75" font-family="Helvetica,sans-Serif" font-size="10.00">PointsWithAlarmsToCSV</text>
</a>
</g>
</g>
<!-- Node2&#45;&gt;Node3 -->
<g id="edge2_Node000002_Node000003" class="edge">
<title>Node2&#45;&gt;Node3</title>
<g id="a_edge2_Node000002_Node000003"><a xlink:title=" ">
<path fill="none" stroke="#63b8ff" d="M350.96,-444.25C329.94,-444.25 306.62,-444.25 285.45,-444.25"/>
<polygon fill="#63b8ff" stroke="#63b8ff" points="350.86,-447.75 360.86,-444.25 350.86,-440.75 350.86,-447.75"/>
</a>
</g>
</g>
<!-- Node5 -->
<g id="Node000005" class="node">
<title>Node5</title>
<g id="a_Node000005"><a xlink:href="$class_config_manager.html#a0497343220fc493f5cf9574922508908" xlink:title="Initialize the configuration system.">
<polygon fill="white" stroke="#666666" points="111.25,-256.88 0,-256.88 0,-237.62 111.25,-237.62 111.25,-256.88"/>
<text xml:space="preserve" text-anchor="middle" x="55.62" y="-243.38" font-family="Helvetica,sans-Serif" font-size="10.00">ConfigManager::begin</text>
</a>
</g>
</g>
<!-- Node4&#45;&gt;Node5 -->
<g id="edge4_Node000004_Node000005" class="edge">
<title>Node4&#45;&gt;Node5</title>
<g id="a_edge4_Node000004_Node000005"><a xlink:title=" ">
<path fill="none" stroke="#63b8ff" d="M156.51,-148.46C153.3,-149.91 150.19,-151.5 147.25,-153.25 109.45,-175.73 76.9,-218.12 63.35,-237.33"/>
<polygon fill="#63b8ff" stroke="#63b8ff" points="157.58,-151.8 165.58,-144.85 155,-145.29 157.58,-151.8"/>
</a>
</g>
</g>
<!-- Node9 -->
<g id="Node000009" class="node">
<title>Node9</title>
<g id="a_Node000009"><a xlink:href="$class_temperature_controller.html#a27da8ccc3effea555f440ce3e6f89b08" xlink:title="Check measurement point for alarm conditions.">
<polygon fill="white" stroke="#666666" points="277.62,-410.5 156.62,-410.5 156.62,-380 277.62,-380 277.62,-410.5"/>
<text xml:space="preserve" text-anchor="start" x="164.62" y="-397" font-family="Helvetica,sans-Serif" font-size="10.00">TemperatureController</text>
<text xml:space="preserve" text-anchor="middle" x="217.12" y="-385.75" font-family="Helvetica,sans-Serif" font-size="10.00">::_checkPointForAlarms</text>
</a>
</g>
</g>
<!-- Node8&#45;&gt;Node9 -->
<g id="edge8_Node000008_Node000009" class="edge">
<title>Node8&#45;&gt;Node9</title>
<g id="a_edge8_Node000008_Node000009"><a xlink:title=" ">
<path fill="none" stroke="#63b8ff" d="M349.35,-395.25C326.27,-395.25 300.57,-395.25 278.08,-395.25"/>
<polygon fill="#63b8ff" stroke="#63b8ff" points="349.28,-398.75 359.28,-395.25 349.28,-391.75 349.28,-398.75"/>
</a>
</g>
</g>
<!-- Node13&#45;&gt;Node4 -->
<g id="edge13_Node000013_Node000004" class="edge">
<title>Node13&#45;&gt;Node4</title>
<g id="a_edge13_Node000013_Node000004"><a xlink:title=" ">
<path fill="none" stroke="#63b8ff" d="M338.53,-233.05C332.99,-230.3 327.73,-227.07 323,-223.25 295.77,-201.28 314.15,-175.32 287,-153.25 282.57,-149.65 277.51,-146.73 272.19,-144.37"/>
<polygon fill="#63b8ff" stroke="#63b8ff" points="336.81,-236.11 347.38,-236.87 339.59,-229.69 336.81,-236.11"/>
</a>
</g>
</g>
<!-- Node14 -->
<g id="Node000014" class="node">
<title>Node14</title>
<g id="a_Node000014"><a xlink:href="$class_config_manager.html#a9b7af07b85bf9cc3ac05603db6e89fd2" xlink:title="Setup CSV import/export API endpoints.">
<polygon fill="white" stroke="#666666" points="282.88,-241.5 151.38,-241.5 151.38,-211 282.88,-211 282.88,-241.5"/>
<text xml:space="preserve" text-anchor="start" x="159.38" y="-228" font-family="Helvetica,sans-Serif" font-size="10.00">ConfigManager::csvImport</text>
<text xml:space="preserve" text-anchor="middle" x="217.12" y="-216.75" font-family="Helvetica,sans-Serif" font-size="10.00">ExportAPI</text>
</a>
</g>
</g>
<!-- Node13&#45;&gt;Node14 -->
<g id="edge14_Node000013_Node000014" class="edge">
<title>Node13&#45;&gt;Node14</title>
<g id="a_edge14_Node000013_Node000014"><a xlink:title=" ">
<path fill="none" stroke="#63b8ff" d="M337.27,-239.48C319.3,-237.49 300.42,-235.39 283.11,-233.47"/>
<polygon fill="#63b8ff" stroke="#63b8ff" points="336.79,-242.95 347.12,-240.57 337.56,-235.99 336.79,-242.95"/>
</a>
</g>
</g>
<!-- Node15 -->
<g id="Node000015" class="node">
<title>Node15</title>
<g id="a_Node000015"><a xlink:href="$class_config_manager.html#a471a844085c27f3a8a8f9394d9c14677" xlink:title="Setup measurement points API endpoints.">
<polygon fill="white" stroke="#666666" points="282.5,-315.88 151.75,-315.88 151.75,-296.62 282.5,-296.62 282.5,-315.88"/>
<text xml:space="preserve" text-anchor="middle" x="217.12" y="-302.38" font-family="Helvetica,sans-Serif" font-size="10.00">ConfigManager::pointsAPI</text>
</a>
</g>
</g>
<!-- Node13&#45;&gt;Node15 -->
<g id="edge16_Node000013_Node000015" class="edge">
<title>Node13&#45;&gt;Node15</title>
<g id="a_edge16_Node000013_Node000015"><a xlink:title=" ">
<path fill="none" stroke="#63b8ff" d="M342.21,-267.13C335.68,-269.09 329.2,-271.14 323,-273.25 306.59,-278.84 303.42,-282.71 287,-288.25 278.57,-291.09 269.43,-293.76 260.65,-296.13"/>
<polygon fill="#63b8ff" stroke="#63b8ff" points="343.13,-270.51 351.75,-264.35 341.17,-263.79 343.13,-270.51"/>
</a>
</g>
</g>
<!-- Node16 -->
<g id="Node000016" class="node">
<title>Node16</title>
<g id="a_Node000016"><a xlink:href="$class_config_manager.html#a45b1ce1f09401af0b6f700cf4388b233" xlink:title="Setup sensor&#45;related API endpoints.">
<polygon fill="white" stroke="#666666" points="284,-278.88 150.25,-278.88 150.25,-259.62 284,-259.62 284,-278.88"/>
<text xml:space="preserve" text-anchor="middle" x="217.12" y="-265.38" font-family="Helvetica,sans-Serif" font-size="10.00">ConfigManager::sensorAPI</text>
</a>
</g>
</g>
<!-- Node13&#45;&gt;Node16 -->
<g id="edge18_Node000013_Node000016" class="edge">
<title>Node13&#45;&gt;Node16</title>
<g id="a_edge18_Node000013_Node000016"><a xlink:title=" ">
<path fill="none" stroke="#63b8ff" d="M337.27,-256.62C319.76,-258.48 301.38,-260.43 284.44,-262.22"/>
<polygon fill="#63b8ff" stroke="#63b8ff" points="337.54,-260.11 347.12,-255.58 336.8,-253.15 337.54,-260.11"/>
</a>
</g>
</g>
<!-- Node17 -->
<g id="Node000017" class="node">
<title>Node17</title>
<g id="a_Node000017"><a xlink:href="$class_config_manager.html#a0daf50bbd376beb24a5400a86e893338" xlink:title="Update a measurement point in configuration.">
<polygon fill="white" stroke="#666666" points="287,-192.5 147.25,-192.5 147.25,-162 287,-162 287,-192.5"/>
<text xml:space="preserve" text-anchor="start" x="155.25" y="-179" font-family="Helvetica,sans-Serif" font-size="10.00">ConfigManager::updatePoint</text>
<text xml:space="preserve" text-anchor="middle" x="217.12" y="-167.75" font-family="Helvetica,sans-Serif" font-size="10.00">InConfig</text>
</a>
</g>
</g>
<!-- Node13&#45;&gt;Node17 -->
<g id="edge20_Node000013_Node000017" class="edge">
<title>Node13&#45;&gt;Node17</title>
<g id="a_edge20_Node000013_Node000017"><a xlink:title=" ">
<path fill="none" stroke="#63b8ff" d="M338.41,-229.08C333.14,-227.26 327.96,-225.32 323,-223.25 305.9,-216.12 303.77,-210.11 287,-202.25 279.97,-198.96 272.38,-195.82 264.9,-192.94"/>
<polygon fill="#63b8ff" stroke="#63b8ff" points="337.27,-232.39 347.86,-232.15 339.44,-225.73 337.27,-232.39"/>
</a>
</g>
</g>
<!-- Node14&#45;&gt;Node5 -->
<g id="edge15_Node000014_Node000005" class="edge">
<title>Node14&#45;&gt;Node5</title>
<g id="a_edge15_Node000014_Node000005"><a xlink:title=" ">
<path fill="none" stroke="#63b8ff" d="M140.09,-236.26C130.53,-237.52 120.89,-238.79 111.74,-239.99"/>
<polygon fill="#63b8ff" stroke="#63b8ff" points="140.29,-239.76 149.75,-234.99 139.38,-232.82 140.29,-239.76"/>
</a>
</g>
</g>
<!-- Node15&#45;&gt;Node5 -->
<g id="edge17_Node000015_Node000005" class="edge">
<title>Node15&#45;&gt;Node5</title>
<g id="a_edge17_Node000015_Node000005"><a xlink:title=" ">
<path fill="none" stroke="#63b8ff" d="M162.11,-293.07C157.05,-291.56 152.03,-289.94 147.25,-288.25 122.18,-279.38 94.48,-266.34 76.38,-257.36"/>
<polygon fill="#63b8ff" stroke="#63b8ff" points="161.13,-296.43 171.71,-295.81 163.05,-289.7 161.13,-296.43"/>
</a>
</g>
</g>
<!-- Node16&#45;&gt;Node5 -->
<g id="edge19_Node000016_Node000005" class="edge">
<title>Node16&#45;&gt;Node5</title>
<g id="a_edge19_Node000016_Node000005"><a xlink:title=" ">
<path fill="none" stroke="#63b8ff" d="M138.65,-258.56C129.41,-257.29 120.12,-256.01 111.29,-254.79"/>
<polygon fill="#63b8ff" stroke="#63b8ff" points="137.98,-262.01 148.37,-259.9 138.94,-255.07 137.98,-262.01"/>
</a>
</g>
</g>
</g>
</svg>
