<?xml version="1.0" encoding="UTF-8" standalone="no"?>
<!DOCTYPE svg PUBLIC "-//W3C//DTD SVG 1.1//EN"
 "http://www.w3.org/Graphics/SVG/1.1/DTD/svg11.dtd">
<!-- Generated by graphviz version 13.1.0 (20250701.0955)
 -->
<!-- Title: LoggerManager::warning Pages: 1 -->
<svg width="330pt" height="334pt"
 viewBox="0.00 0.00 330.00 334.00" xmlns="http://www.w3.org/2000/svg" xmlns:xlink="http://www.w3.org/1999/xlink">
<g id="graph0" class="graph" transform="scale(1 1) rotate(0) translate(4 329.88)">
<title>LoggerManager::warning</title>
<!-- Node1 -->
<g id="Node000001" class="node">
<title>Node1</title>
<g id="a_Node000001"><a xlink:title="Log warning message (static convenience method)">
<polygon fill="#999999" stroke="#666666" points="322.25,-172.25 199.75,-172.25 199.75,-153 322.25,-153 322.25,-172.25"/>
<text xml:space="preserve" text-anchor="middle" x="261" y="-158.75" font-family="Helvetica,sans-Serif" font-size="10.00">LoggerManager::warning</text>
</a>
</g>
</g>
<!-- Node2 -->
<g id="Node000002" class="node">
<title>Node2</title>
<g id="a_Node000002"><a xlink:href="class_temperature_controller.html#ac5c3403746d7c850bf7929bf5ee3448a" target="_top" xlink:title="Add alarm configuration.">
<polygon fill="white" stroke="#666666" points="137.88,-325.88 25.88,-325.88 25.88,-295.38 137.88,-295.38 137.88,-325.88"/>
<text xml:space="preserve" text-anchor="start" x="33.88" y="-312.38" font-family="Helvetica,sans-Serif" font-size="10.00">TemperatureController</text>
<text xml:space="preserve" text-anchor="middle" x="81.88" y="-301.12" font-family="Helvetica,sans-Serif" font-size="10.00">::addAlarm</text>
</a>
</g>
</g>
<!-- Node1&#45;&gt;Node2 -->
<g id="edge1_Node000001_Node000002" class="edge">
<title>Node1&#45;&gt;Node2</title>
<g id="a_edge1_Node000001_Node000002"><a xlink:title=" ">
<path fill="none" stroke="#63b8ff" d="M249.67,-182.73C234.53,-210.25 203.69,-259.32 163.75,-286.62 156.01,-291.91 147.09,-296.06 138.05,-299.3"/>
<polygon fill="#63b8ff" stroke="#63b8ff" points="252.69,-184.51 254.31,-174.04 246.52,-181.21 252.69,-184.51"/>
</a>
</g>
</g>
<!-- Node3 -->
<g id="Node000003" class="node">
<title>Node3</title>
<g id="a_Node000003"><a xlink:href="class_config_manager.html#a0497343220fc493f5cf9574922508908" target="_top" xlink:title="Initialize the configuration system.">
<polygon fill="white" stroke="#666666" points="137.5,-277.25 26.25,-277.25 26.25,-258 137.5,-258 137.5,-277.25"/>
<text xml:space="preserve" text-anchor="middle" x="81.88" y="-263.75" font-family="Helvetica,sans-Serif" font-size="10.00">ConfigManager::begin</text>
</a>
</g>
</g>
<!-- Node1&#45;&gt;Node3 -->
<g id="edge2_Node000001_Node000003" class="edge">
<title>Node1&#45;&gt;Node3</title>
<g id="a_edge2_Node000001_Node000003"><a xlink:title=" ">
<path fill="none" stroke="#63b8ff" d="M244.91,-181.05C227.48,-201.07 196.92,-232.48 163.75,-249.62 155.7,-253.79 146.71,-256.99 137.74,-259.45"/>
<polygon fill="#63b8ff" stroke="#63b8ff" points="247.39,-183.54 251.19,-173.65 242.05,-179.01 247.39,-183.54"/>
</a>
</g>
</g>
<!-- Node4 -->
<g id="Node000004" class="node">
<title>Node4</title>
<g id="a_Node000004"><a xlink:href="class_temp_modbus_server.html#aac671b84770f4139745d08d05b5c1d92" target="_top" xlink:title="Initialize and start Modbus server.">
<polygon fill="white" stroke="#666666" points="148,-240.25 15.75,-240.25 15.75,-221 148,-221 148,-240.25"/>
<text xml:space="preserve" text-anchor="middle" x="81.88" y="-226.75" font-family="Helvetica,sans-Serif" font-size="10.00">TempModbusServer::begin</text>
</a>
</g>
</g>
<!-- Node1&#45;&gt;Node4 -->
<g id="edge3_Node000001_Node000004" class="edge">
<title>Node1&#45;&gt;Node4</title>
<g id="a_edge3_Node000001_Node000004"><a xlink:title=" ">
<path fill="none" stroke="#63b8ff" d="M233.57,-178.27C214.66,-188.91 188.3,-202.64 163.75,-211.62 154.27,-215.09 143.93,-218.09 133.9,-220.6"/>
<polygon fill="#63b8ff" stroke="#63b8ff" points="235.26,-181.33 242.2,-173.32 231.78,-175.26 235.26,-181.33"/>
</a>
</g>
</g>
<!-- Node5 -->
<g id="Node000005" class="node">
<title>Node5</title>
<g id="a_Node000005"><a xlink:href="class_temperature_controller.html#a84937fc1aed30193b817f3b062ce0cfc" target="_top" xlink:title="Bind PT1000 sensor to measurement point by chip select pin.">
<polygon fill="white" stroke="#666666" points="163.75,-202.88 0,-202.88 0,-172.38 163.75,-172.38 163.75,-202.88"/>
<text xml:space="preserve" text-anchor="start" x="8" y="-189.38" font-family="Helvetica,sans-Serif" font-size="10.00">TemperatureController</text>
<text xml:space="preserve" text-anchor="middle" x="81.88" y="-178.12" font-family="Helvetica,sans-Serif" font-size="10.00">::bindSensorToPointByChipSelect</text>
</a>
</g>
</g>
<!-- Node1&#45;&gt;Node5 -->
<g id="edge4_Node000001_Node000005" class="edge">
<title>Node1&#45;&gt;Node5</title>
<g id="a_edge4_Node000001_Node000005"><a xlink:title=" ">
<path fill="none" stroke="#63b8ff" d="M188.37,-172.73C180.37,-173.86 172.17,-175.02 164.05,-176.17"/>
<polygon fill="#63b8ff" stroke="#63b8ff" points="188.63,-176.23 198.04,-171.37 187.65,-169.3 188.63,-176.23"/>
</a>
</g>
</g>
<!-- Node6 -->
<g id="Node000006" class="node">
<title>Node6</title>
<g id="a_Node000006"><a xlink:href="class_temperature_controller.html#a5d8f7c51bb176435a5035293a2db78f7" target="_top" xlink:title="Bind sensor to measurement point by ROM address.">
<polygon fill="white" stroke="#666666" points="150.25,-153.88 13.5,-153.88 13.5,-123.38 150.25,-123.38 150.25,-153.88"/>
<text xml:space="preserve" text-anchor="start" x="21.5" y="-140.38" font-family="Helvetica,sans-Serif" font-size="10.00">TemperatureController</text>
<text xml:space="preserve" text-anchor="middle" x="81.88" y="-129.12" font-family="Helvetica,sans-Serif" font-size="10.00">::bindSensorToPointByRom</text>
</a>
</g>
</g>
<!-- Node1&#45;&gt;Node6 -->
<g id="edge5_Node000001_Node000006" class="edge">
<title>Node1&#45;&gt;Node6</title>
<g id="a_edge5_Node000001_Node000006"><a xlink:title=" ">
<path fill="none" stroke="#63b8ff" d="M188.29,-152.91C175.86,-151.22 162.98,-149.48 150.66,-147.81"/>
<polygon fill="#63b8ff" stroke="#63b8ff" points="187.66,-156.35 198.04,-154.23 188.6,-149.42 187.66,-156.35"/>
</a>
</g>
</g>
<!-- Node7 -->
<g id="Node000007" class="node">
<title>Node7</title>
<g id="a_Node000007"><a xlink:href="class_temp_modbus_server.html#a0debe38364d9025833706a6f74d5655a" target="_top" xlink:title="Process pending commands from Modbus writes.">
<polygon fill="white" stroke="#666666" points="153.62,-104.88 10.12,-104.88 10.12,-74.38 153.62,-74.38 153.62,-104.88"/>
<text xml:space="preserve" text-anchor="start" x="18.12" y="-91.38" font-family="Helvetica,sans-Serif" font-size="10.00">TempModbusServer::process</text>
<text xml:space="preserve" text-anchor="middle" x="81.88" y="-80.12" font-family="Helvetica,sans-Serif" font-size="10.00">Commands</text>
</a>
</g>
</g>
<!-- Node1&#45;&gt;Node7 -->
<g id="edge6_Node000001_Node000007" class="edge">
<title>Node1&#45;&gt;Node7</title>
<g id="a_edge6_Node000001_Node000007"><a xlink:title=" ">
<path fill="none" stroke="#63b8ff" d="M231.94,-147.11C213.03,-137.04 187.33,-124.08 163.75,-114.62 155.43,-111.29 146.48,-108.12 137.68,-105.24"/>
<polygon fill="#63b8ff" stroke="#63b8ff" points="230.16,-150.13 240.62,-151.8 233.48,-143.97 230.16,-150.13"/>
</a>
</g>
</g>
<!-- Node8 -->
<g id="Node000008" class="node">
<title>Node8</title>
<g id="a_Node000008"><a xlink:href="class_alarm.html#af8d75ee8622a2a96f4bc9b408e9668e5" target="_top" xlink:title="Reactivate a previously cleared alarm.">
<polygon fill="white" stroke="#666666" points="127,-56.25 36.75,-56.25 36.75,-37 127,-37 127,-56.25"/>
<text xml:space="preserve" text-anchor="middle" x="81.88" y="-42.75" font-family="Helvetica,sans-Serif" font-size="10.00">Alarm::reactivate</text>
</a>
</g>
</g>
<!-- Node1&#45;&gt;Node8 -->
<g id="edge7_Node000001_Node000008" class="edge">
<title>Node1&#45;&gt;Node8</title>
<g id="a_edge7_Node000001_Node000008"><a xlink:title=" ">
<path fill="none" stroke="#63b8ff" d="M246.36,-143.45C229.52,-121.25 198.76,-85.21 163.75,-65.62 152.67,-59.43 139.65,-55.25 127.34,-52.43"/>
<polygon fill="#63b8ff" stroke="#63b8ff" points="243.44,-145.38 252.19,-151.36 249.07,-141.23 243.44,-145.38"/>
</a>
</g>
</g>
<!-- Node9 -->
<g id="Node000009" class="node">
<title>Node9</title>
<g id="a_Node000009"><a xlink:href="class_alarm.html#abc87fe39e6a9b5beb9f09df780f67621" target="_top" xlink:title="Update alarm condition based on current measurement.">
<polygon fill="white" stroke="#666666" points="140.88,-19.25 22.88,-19.25 22.88,0 140.88,0 140.88,-19.25"/>
<text xml:space="preserve" text-anchor="middle" x="81.88" y="-5.75" font-family="Helvetica,sans-Serif" font-size="10.00">Alarm::updateCondition</text>
</a>
</g>
</g>
<!-- Node1&#45;&gt;Node9 -->
<g id="edge8_Node000001_Node000009" class="edge">
<title>Node1&#45;&gt;Node9</title>
<g id="a_edge8_Node000001_Node000009"><a xlink:title=" ">
<path fill="none" stroke="#63b8ff" d="M251.23,-142.05C237.3,-111.96 207.17,-56.4 163.75,-27.62 156.92,-23.1 149.11,-19.69 141.12,-17.14"/>
<polygon fill="#63b8ff" stroke="#63b8ff" points="248.04,-143.47 255.3,-151.18 254.43,-140.63 248.04,-143.47"/>
</a>
</g>
</g>
</g>
</svg>
