<?xml version="1.0" encoding="UTF-8" standalone="no"?>
<!DOCTYPE svg PUBLIC "-//W3C//DTD SVG 1.1//EN"
 "http://www.w3.org/Graphics/SVG/1.1/DTD/svg11.dtd">
<!-- Generated by graphviz version 13.1.0 (20250701.0955)
 -->
<!-- Title: LoggerManager::logAlarmState Pages: 1 -->
<svg width="547pt" height="223pt"
 viewBox="0.00 0.00 547.00 223.00" xmlns="http://www.w3.org/2000/svg" xmlns:xlink="http://www.w3.org/1999/xlink">
<g id="graph0" class="graph" transform="scale(1 1) rotate(0) translate(4 218.5)">
<title>LoggerManager::logAlarmState</title>
<!-- Node1 -->
<g id="Node000001" class="node">
<title>Node1</title>
<g id="a_Node000001"><a xlink:title=" ">
<polygon fill="#999999" stroke="#666666" points="150.25,-116.88 0,-116.88 0,-97.62 150.25,-97.62 150.25,-116.88"/>
<text xml:space="preserve" text-anchor="middle" x="75.12" y="-103.38" font-family="Helvetica,sans-Serif" font-size="10.00">LoggerManager::logAlarmState</text>
</a>
</g>
</g>
<!-- Node2 -->
<g id="Node000002" class="node">
<title>Node2</title>
<g id="a_Node000002"><a xlink:href="class_logger_manager.html#a0bb3b084e2a16c2d089e8761a093bef5" target="_top" xlink:title=" ">
<polygon fill="white" stroke="#666666" points="335,-214.5 186.25,-214.5 186.25,-184 335,-184 335,-214.5"/>
<text xml:space="preserve" text-anchor="start" x="194.25" y="-201" font-family="Helvetica,sans-Serif" font-size="10.00">LoggerManager::_ensureAlarm</text>
<text xml:space="preserve" text-anchor="middle" x="260.62" y="-189.75" font-family="Helvetica,sans-Serif" font-size="10.00">StateLogExists</text>
</a>
</g>
</g>
<!-- Node1&#45;&gt;Node2 -->
<g id="edge1_Node000001_Node000002" class="edge">
<title>Node1&#45;&gt;Node2</title>
<g id="a_edge1_Node000001_Node000002"><a xlink:title=" ">
<path fill="none" stroke="#63b8ff" d="M90.17,-117.18C110.58,-131.28 149.96,-157.28 186.25,-174.25 190.18,-176.09 194.29,-177.86 198.47,-179.56"/>
<polygon fill="#63b8ff" stroke="#63b8ff" points="196.92,-182.71 207.51,-183.05 199.45,-176.18 196.92,-182.71"/>
</a>
</g>
</g>
<!-- Node4 -->
<g id="Node000004" class="node">
<title>Node4</title>
<g id="a_Node000004"><a xlink:href="class_logger_manager.html#ae1e64f32a756b1a0f481eb1d57e8026e" target="_top" xlink:title=" ">
<polygon fill="white" stroke="#666666" points="326.38,-165.5 194.88,-165.5 194.88,-135 326.38,-135 326.38,-165.5"/>
<text xml:space="preserve" text-anchor="start" x="202.88" y="-152" font-family="Helvetica,sans-Serif" font-size="10.00">LoggerManager::_generate</text>
<text xml:space="preserve" text-anchor="middle" x="260.62" y="-140.75" font-family="Helvetica,sans-Serif" font-size="10.00">AlarmStateLogFileName</text>
</a>
</g>
</g>
<!-- Node1&#45;&gt;Node4 -->
<g id="edge3_Node000001_Node000004" class="edge">
<title>Node1&#45;&gt;Node4</title>
<g id="a_edge3_Node000001_Node000004"><a xlink:title=" ">
<path fill="none" stroke="#63b8ff" d="M119.15,-117.33C138.36,-121.83 161.59,-127.28 183.57,-132.43"/>
<polygon fill="#63b8ff" stroke="#63b8ff" points="182.58,-135.79 193.11,-134.66 184.18,-128.97 182.58,-135.79"/>
</a>
</g>
</g>
<!-- Node5 -->
<g id="Node000005" class="node">
<title>Node5</title>
<g id="a_Node000005"><a xlink:href="class_logger_manager.html#a3ca0b934265a4d9ce6391bf97dec179a" target="_top" xlink:title=" ">
<polygon fill="white" stroke="#666666" points="524.62,-143.5 384.88,-143.5 384.88,-113 524.62,-113 524.62,-143.5"/>
<text xml:space="preserve" text-anchor="start" x="392.88" y="-130" font-family="Helvetica,sans-Serif" font-size="10.00">LoggerManager::_getCurrent</text>
<text xml:space="preserve" text-anchor="middle" x="454.75" y="-118.75" font-family="Helvetica,sans-Serif" font-size="10.00">DateString</text>
</a>
</g>
</g>
<!-- Node1&#45;&gt;Node5 -->
<g id="edge5_Node000001_Node000005" class="edge">
<title>Node1&#45;&gt;Node5</title>
<g id="a_edge5_Node000001_Node000005"><a xlink:title=" ">
<path fill="none" stroke="#63b8ff" d="M150.73,-111.4C214.94,-114.97 307.37,-120.11 373.24,-123.77"/>
<polygon fill="#63b8ff" stroke="#63b8ff" points="372.7,-127.25 382.88,-124.31 373.09,-120.26 372.7,-127.25"/>
</a>
</g>
</g>
<!-- Node6 -->
<g id="Node000006" class="node">
<title>Node6</title>
<g id="a_Node000006"><a xlink:href="class_logger_manager.html#a4f31651f8963f741bfbdb944164ffc15" target="_top" xlink:title=" ">
<polygon fill="white" stroke="#666666" points="330.5,-79.5 190.75,-79.5 190.75,-49 330.5,-49 330.5,-79.5"/>
<text xml:space="preserve" text-anchor="start" x="198.75" y="-66" font-family="Helvetica,sans-Serif" font-size="10.00">LoggerManager::_getCurrent</text>
<text xml:space="preserve" text-anchor="middle" x="260.62" y="-54.75" font-family="Helvetica,sans-Serif" font-size="10.00">TimeString</text>
</a>
</g>
</g>
<!-- Node1&#45;&gt;Node6 -->
<g id="edge6_Node000001_Node000006" class="edge">
<title>Node1&#45;&gt;Node6</title>
<g id="a_edge6_Node000001_Node000006"><a xlink:title=" ">
<path fill="none" stroke="#63b8ff" d="M119.15,-97.17C137.73,-92.81 160.07,-87.58 181.41,-82.58"/>
<polygon fill="#63b8ff" stroke="#63b8ff" points="182.04,-86.02 190.98,-80.34 180.45,-79.21 182.04,-86.02"/>
</a>
</g>
</g>
<!-- Node7 -->
<g id="Node000007" class="node">
<title>Node7</title>
<g id="a_Node000007"><a xlink:href="class_logger_manager.html#a72dc7742fbeeba07932fc5cb730c26d5" target="_top" xlink:title=" ">
<polygon fill="white" stroke="#666666" points="330.88,-30.5 190.38,-30.5 190.38,0 330.88,0 330.88,-30.5"/>
<text xml:space="preserve" text-anchor="start" x="198.38" y="-17" font-family="Helvetica,sans-Serif" font-size="10.00">LoggerManager::_writeAlarm</text>
<text xml:space="preserve" text-anchor="middle" x="260.62" y="-5.75" font-family="Helvetica,sans-Serif" font-size="10.00">StateRow</text>
</a>
</g>
</g>
<!-- Node1&#45;&gt;Node7 -->
<g id="edge7_Node000001_Node000007" class="edge">
<title>Node1&#45;&gt;Node7</title>
<g id="a_edge7_Node000001_Node000007"><a xlink:title=" ">
<path fill="none" stroke="#63b8ff" d="M90.17,-97.32C110.58,-83.22 149.96,-57.22 186.25,-40.25 190.18,-38.41 194.29,-36.64 198.47,-34.94"/>
<polygon fill="#63b8ff" stroke="#63b8ff" points="199.45,-38.32 207.51,-31.45 196.92,-31.79 199.45,-38.32"/>
</a>
</g>
</g>
<!-- Node3 -->
<g id="Node000003" class="node">
<title>Node3</title>
<g id="a_Node000003"><a xlink:href="class_logger_manager.html#a58657d1fbd45469bb67c2c4d07c5a730" target="_top" xlink:title=" ">
<polygon fill="white" stroke="#666666" points="525,-214.5 384.5,-214.5 384.5,-184 525,-184 525,-214.5"/>
<text xml:space="preserve" text-anchor="start" x="392.5" y="-201" font-family="Helvetica,sans-Serif" font-size="10.00">LoggerManager::_writeAlarm</text>
<text xml:space="preserve" text-anchor="middle" x="454.75" y="-189.75" font-family="Helvetica,sans-Serif" font-size="10.00">StateHeader</text>
</a>
</g>
</g>
<!-- Node2&#45;&gt;Node3 -->
<g id="edge2_Node000002_Node000003" class="edge">
<title>Node2&#45;&gt;Node3</title>
<g id="a_edge2_Node000002_Node000003"><a xlink:title=" ">
<path fill="none" stroke="#63b8ff" d="M335.36,-199.25C347.59,-199.25 360.34,-199.25 372.74,-199.25"/>
<polygon fill="#63b8ff" stroke="#63b8ff" points="372.49,-202.75 382.49,-199.25 372.49,-195.75 372.49,-202.75"/>
</a>
</g>
</g>
<!-- Node4&#45;&gt;Node5 -->
<g id="edge4_Node000004_Node000005" class="edge">
<title>Node4&#45;&gt;Node5</title>
<g id="a_edge4_Node000004_Node000005"><a xlink:title=" ">
<path fill="none" stroke="#63b8ff" d="M326.67,-142.8C341.65,-141.09 357.76,-139.24 373.3,-137.46"/>
<polygon fill="#63b8ff" stroke="#63b8ff" points="373.46,-140.97 383,-136.35 372.66,-134.01 373.46,-140.97"/>
</a>
</g>
</g>
<!-- Node8 -->
<g id="Node000008" class="node">
<title>Node8</title>
<g id="a_Node000008"><a xlink:href="class_logger_manager.html#a57d230cd2896120a32ecf55a14895d55" target="_top" xlink:title=" ">
<polygon fill="white" stroke="#666666" points="538.5,-24.88 371,-24.88 371,-5.63 538.5,-5.63 538.5,-24.88"/>
<text xml:space="preserve" text-anchor="middle" x="454.75" y="-11.38" font-family="Helvetica,sans-Serif" font-size="10.00">LoggerManager::_escapeCSVField</text>
</a>
</g>
</g>
<!-- Node7&#45;&gt;Node8 -->
<g id="edge8_Node000007_Node000008" class="edge">
<title>Node7&#45;&gt;Node8</title>
<g id="a_edge8_Node000007_Node000008"><a xlink:title=" ">
<path fill="none" stroke="#63b8ff" d="M331.26,-15.25C340.34,-15.25 349.77,-15.25 359.18,-15.25"/>
<polygon fill="#63b8ff" stroke="#63b8ff" points="359.11,-18.75 369.11,-15.25 359.11,-11.75 359.11,-18.75"/>
</a>
</g>
</g>
</g>
</svg>
