<?xml version="1.0" encoding="UTF-8" standalone="no"?>
<!DOCTYPE svg PUBLIC "-//W3C//DTD SVG 1.1//EN"
 "http://www.w3.org/Graphics/SVG/1.1/DTD/svg11.dtd">
<!-- Generated by graphviz version 13.1.0 (20250701.0955)
 -->
<!-- Title: LoggerManager::getFileInfo Pages: 1 -->
<svg width="472pt" height="27pt"
 viewBox="0.00 0.00 472.00 27.00" xmlns="http://www.w3.org/2000/svg" xmlns:xlink="http://www.w3.org/1999/xlink">
<g id="graph0" class="graph" transform="scale(1 1) rotate(0) translate(4 23.25)">
<title>LoggerManager::getFileInfo</title>
<!-- Node1 -->
<g id="Node000001" class="node">
<title>Node1</title>
<g id="a_Node000001"><a xlink:title=" ">
<polygon fill="#999999" stroke="#666666" points="463.5,-19.25 329,-19.25 329,0 463.5,0 463.5,-19.25"/>
<text xml:space="preserve" text-anchor="middle" x="396.25" y="-5.75" font-family="Helvetica,sans-Serif" font-size="10.00">LoggerManager::getFileInfo</text>
</a>
</g>
</g>
<!-- Node2 -->
<g id="Node000002" class="node">
<title>Node2</title>
<g id="a_Node000002"><a xlink:href="$class_config_manager.html#a3b28982c79587a287c8ddf0acf47f71d" xlink:title="Setup file download API endpoints.">
<polygon fill="white" stroke="#666666" points="293,-19.25 147.25,-19.25 147.25,0 293,0 293,-19.25"/>
<text xml:space="preserve" text-anchor="middle" x="220.12" y="-5.75" font-family="Helvetica,sans-Serif" font-size="10.00">ConfigManager::downloadAPI</text>
</a>
</g>
</g>
<!-- Node1&#45;&gt;Node2 -->
<g id="edge1_Node000001_Node000002" class="edge">
<title>Node1&#45;&gt;Node2</title>
<g id="a_edge1_Node000001_Node000002"><a xlink:title=" ">
<path fill="none" stroke="#63b8ff" d="M317.62,-9.62C309.55,-9.62 301.37,-9.62 293.36,-9.62"/>
<polygon fill="#63b8ff" stroke="#63b8ff" points="317.41,-13.13 327.41,-9.63 317.41,-6.13 317.41,-13.13"/>
</a>
</g>
</g>
<!-- Node3 -->
<g id="Node000003" class="node">
<title>Node3</title>
<g id="a_Node000003"><a xlink:href="$class_config_manager.html#a0497343220fc493f5cf9574922508908" xlink:title="Initialize the configuration system.">
<polygon fill="white" stroke="#666666" points="111.25,-19.25 0,-19.25 0,0 111.25,0 111.25,-19.25"/>
<text xml:space="preserve" text-anchor="middle" x="55.62" y="-5.75" font-family="Helvetica,sans-Serif" font-size="10.00">ConfigManager::begin</text>
</a>
</g>
</g>
<!-- Node2&#45;&gt;Node3 -->
<g id="edge2_Node000002_Node000003" class="edge">
<title>Node2&#45;&gt;Node3</title>
<g id="a_edge2_Node000002_Node000003"><a xlink:title=" ">
<path fill="none" stroke="#63b8ff" d="M135.45,-9.62C127.35,-9.62 119.27,-9.62 111.55,-9.62"/>
<polygon fill="#63b8ff" stroke="#63b8ff" points="135.39,-13.13 145.39,-9.63 135.39,-6.13 135.39,-13.13"/>
</a>
</g>
</g>
</g>
</svg>
