<?xml version="1.0" encoding="UTF-8" standalone="no"?>
<!DOCTYPE svg PUBLIC "-//W3C//DTD SVG 1.1//EN"
 "http://www.w3.org/Graphics/SVG/1.1/DTD/svg11.dtd">
<!-- Generated by graphviz version 13.1.0 (20250701.0955)
 -->
<!-- Title: LoggerManager::_getEventLogFilesInRange Pages: 1 -->
<svg width="653pt" height="113pt"
 viewBox="0.00 0.00 653.00 113.00" xmlns="http://www.w3.org/2000/svg" xmlns:xlink="http://www.w3.org/1999/xlink">
<g id="graph0" class="graph" transform="scale(1 1) rotate(0) translate(4 108.88)">
<title>LoggerManager::_getEventLogFilesInRange</title>
<!-- Node1 -->
<g id="Node000001" class="node">
<title>Node1</title>
<g id="a_Node000001"><a xlink:title=" ">
<polygon fill="#999999" stroke="#666666" points="644.5,-73.5 511.5,-73.5 511.5,-43 644.5,-43 644.5,-73.5"/>
<text xml:space="preserve" text-anchor="start" x="519.5" y="-60" font-family="Helvetica,sans-Serif" font-size="10.00">LoggerManager::_getEvent</text>
<text xml:space="preserve" text-anchor="middle" x="578" y="-48.75" font-family="Helvetica,sans-Serif" font-size="10.00">LogFilesInRange</text>
</a>
</g>
</g>
<!-- Node2 -->
<g id="Node000002" class="node">
<title>Node2</title>
<g id="a_Node000002"><a xlink:href="class_logger_manager.html#a752cebdb1c0344890d265af9daee8313" target="_top" xlink:title=" ">
<polygon fill="white" stroke="#666666" points="474,-104.88 307.25,-104.88 307.25,-85.62 474,-85.62 474,-104.88"/>
<text xml:space="preserve" text-anchor="middle" x="390.62" y="-91.38" font-family="Helvetica,sans-Serif" font-size="10.00">LoggerManager::getEventLogsCsv</text>
</a>
</g>
</g>
<!-- Node1&#45;&gt;Node2 -->
<g id="edge1_Node000001_Node000002" class="edge">
<title>Node1&#45;&gt;Node2</title>
<g id="a_edge1_Node000001_Node000002"><a xlink:title=" ">
<path fill="none" stroke="#63b8ff" d="M500.07,-73.61C480.51,-77.51 460,-81.6 442.14,-85.17"/>
<polygon fill="#63b8ff" stroke="#63b8ff" points="500.52,-77.08 509.64,-71.7 499.15,-70.22 500.52,-77.08"/>
</a>
</g>
</g>
<!-- Node5 -->
<g id="Node000005" class="node">
<title>Node5</title>
<g id="a_Node000005"><a xlink:href="class_logger_manager.html#a8e154caf5cdb9dd50722e2f52314e383" target="_top" xlink:title=" ">
<polygon fill="white" stroke="#666666" points="475.5,-67.88 305.75,-67.88 305.75,-48.62 475.5,-48.62 475.5,-67.88"/>
<text xml:space="preserve" text-anchor="middle" x="390.62" y="-54.38" font-family="Helvetica,sans-Serif" font-size="10.00">LoggerManager::getEventLogsJson</text>
</a>
</g>
</g>
<!-- Node1&#45;&gt;Node5 -->
<g id="edge4_Node000001_Node000005" class="edge">
<title>Node1&#45;&gt;Node5</title>
<g id="a_edge4_Node000001_Node000005"><a xlink:title=" ">
<path fill="none" stroke="#63b8ff" d="M499.69,-58.25C491.79,-58.25 483.74,-58.25 475.77,-58.25"/>
<polygon fill="#63b8ff" stroke="#63b8ff" points="499.61,-61.75 509.61,-58.25 499.61,-54.75 499.61,-61.75"/>
</a>
</g>
</g>
<!-- Node6 -->
<g id="Node000006" class="node">
<title>Node6</title>
<g id="a_Node000006"><a xlink:href="class_logger_manager.html#ab16e7ab4b0cc70674b9b87118f72d805" target="_top" xlink:title=" ">
<polygon fill="white" stroke="#666666" points="462.38,-30.5 318.88,-30.5 318.88,0 462.38,0 462.38,-30.5"/>
<text xml:space="preserve" text-anchor="start" x="326.88" y="-17" font-family="Helvetica,sans-Serif" font-size="10.00">LoggerManager::getEventLog</text>
<text xml:space="preserve" text-anchor="middle" x="390.62" y="-5.75" font-family="Helvetica,sans-Serif" font-size="10.00">StatsJson</text>
</a>
</g>
</g>
<!-- Node1&#45;&gt;Node6 -->
<g id="edge6_Node000001_Node000006" class="edge">
<title>Node1&#45;&gt;Node6</title>
<g id="a_edge6_Node000001_Node000006"><a xlink:title=" ">
<path fill="none" stroke="#63b8ff" d="M499.97,-40.38C486.53,-37.27 472.65,-34.04 459.48,-30.99"/>
<polygon fill="#63b8ff" stroke="#63b8ff" points="499.12,-43.78 509.65,-42.63 500.7,-36.96 499.12,-43.78"/>
</a>
</g>
</g>
<!-- Node3 -->
<g id="Node000003" class="node">
<title>Node3</title>
<g id="a_Node000003"><a xlink:href="class_config_manager.html#a9e977107b4795fcbce0482711ff1ce7a" target="_top" xlink:title="Setup logging API endpoints.">
<polygon fill="white" stroke="#666666" points="269.75,-67.88 147.25,-67.88 147.25,-48.62 269.75,-48.62 269.75,-67.88"/>
<text xml:space="preserve" text-anchor="middle" x="208.5" y="-54.38" font-family="Helvetica,sans-Serif" font-size="10.00">ConfigManager::logsAPI</text>
</a>
</g>
</g>
<!-- Node2&#45;&gt;Node3 -->
<g id="edge2_Node000002_Node000003" class="edge">
<title>Node2&#45;&gt;Node3</title>
<g id="a_edge2_Node000002_Node000003"><a xlink:title=" ">
<path fill="none" stroke="#63b8ff" d="M329.39,-82.88C306.4,-78.15 280.49,-72.83 258.66,-68.35"/>
<polygon fill="#63b8ff" stroke="#63b8ff" points="328.42,-86.25 338.92,-84.84 329.83,-79.39 328.42,-86.25"/>
</a>
</g>
</g>
<!-- Node4 -->
<g id="Node000004" class="node">
<title>Node4</title>
<g id="a_Node000004"><a xlink:href="class_config_manager.html#a0497343220fc493f5cf9574922508908" target="_top" xlink:title="Initialize the configuration system.">
<polygon fill="white" stroke="#666666" points="111.25,-67.88 0,-67.88 0,-48.62 111.25,-48.62 111.25,-67.88"/>
<text xml:space="preserve" text-anchor="middle" x="55.62" y="-54.38" font-family="Helvetica,sans-Serif" font-size="10.00">ConfigManager::begin</text>
</a>
</g>
</g>
<!-- Node3&#45;&gt;Node4 -->
<g id="edge3_Node000003_Node000004" class="edge">
<title>Node3&#45;&gt;Node4</title>
<g id="a_edge3_Node000003_Node000004"><a xlink:title=" ">
<path fill="none" stroke="#63b8ff" d="M135.54,-58.25C127.38,-58.25 119.17,-58.25 111.28,-58.25"/>
<polygon fill="#63b8ff" stroke="#63b8ff" points="135.49,-61.75 145.49,-58.25 135.49,-54.75 135.49,-61.75"/>
</a>
</g>
</g>
<!-- Node5&#45;&gt;Node3 -->
<g id="edge5_Node000005_Node000003" class="edge">
<title>Node5&#45;&gt;Node3</title>
<g id="a_edge5_Node000005_Node000003"><a xlink:title=" ">
<path fill="none" stroke="#63b8ff" d="M293.91,-58.25C285.82,-58.25 277.79,-58.25 270.08,-58.25"/>
<polygon fill="#63b8ff" stroke="#63b8ff" points="293.85,-61.75 303.85,-58.25 293.85,-54.75 293.85,-61.75"/>
</a>
</g>
</g>
<!-- Node6&#45;&gt;Node3 -->
<g id="edge7_Node000006_Node000003" class="edge">
<title>Node6&#45;&gt;Node3</title>
<g id="a_edge7_Node000006_Node000003"><a xlink:title=" ">
<path fill="none" stroke="#63b8ff" d="M312.71,-33.61C291.85,-38.59 270.04,-43.8 251.87,-48.14"/>
<polygon fill="#63b8ff" stroke="#63b8ff" points="313.45,-37.03 322.36,-31.31 311.82,-30.23 313.45,-37.03"/>
</a>
</g>
</g>
</g>
</svg>
