<?xml version="1.0" encoding="UTF-8" standalone="no"?>
<!DOCTYPE svg PUBLIC "-//W3C//DTD SVG 1.1//EN"
 "http://www.w3.org/Graphics/SVG/1.1/DTD/svg11.dtd">
<!-- Generated by graphviz version 13.1.0 (20250701.0955)
 -->
<!-- Title: TimeManager::_formatDateTime Pages: 1 -->
<svg width="736pt" height="138pt"
 viewBox="0.00 0.00 736.00 138.00" xmlns="http://www.w3.org/2000/svg" xmlns:xlink="http://www.w3.org/1999/xlink">
<g id="graph0" class="graph" transform="scale(1 1) rotate(0) translate(4 134.25)">
<title>TimeManager::_formatDateTime</title>
<!-- Node1 -->
<g id="Node000001" class="node">
<title>Node1</title>
<g id="a_Node000001"><a xlink:title="Format DateTime according to format string.">
<polygon fill="#999999" stroke="#666666" points="727.75,-74.25 570.75,-74.25 570.75,-55 727.75,-55 727.75,-74.25"/>
<text xml:space="preserve" text-anchor="middle" x="649.25" y="-60.75" font-family="Helvetica,sans-Serif" font-size="10.00">TimeManager::_formatDateTime</text>
</a>
</g>
</g>
<!-- Node2 -->
<g id="Node000002" class="node">
<title>Node2</title>
<g id="a_Node000002"><a xlink:href="class_time_manager.html#a558c17fb7adf5fe7556a7052c971d99f" target="_top" xlink:title="Get date as string (YYYY&#45;MM&#45;DD)">
<polygon fill="white" stroke="#666666" points="525,-130.25 383.75,-130.25 383.75,-111 525,-111 525,-130.25"/>
<text xml:space="preserve" text-anchor="middle" x="454.38" y="-116.75" font-family="Helvetica,sans-Serif" font-size="10.00">TimeManager::getDateString</text>
</a>
</g>
</g>
<!-- Node1&#45;&gt;Node2 -->
<g id="edge1_Node000001_Node000002" class="edge">
<title>Node1&#45;&gt;Node2</title>
<g id="a_edge1_Node000001_Node000002"><a xlink:title=" ">
<path fill="none" stroke="#63b8ff" d="M610.13,-78.45C588.24,-86.12 560.14,-95.52 534.75,-102.62 524.68,-105.44 513.8,-108.14 503.42,-110.54"/>
<polygon fill="#63b8ff" stroke="#63b8ff" points="611.28,-81.75 619.54,-75.12 608.94,-75.16 611.28,-81.75"/>
</a>
</g>
</g>
<!-- Node4 -->
<g id="Node000004" class="node">
<title>Node4</title>
<g id="a_Node000004"><a xlink:href="class_time_manager.html#a06dd5ab29990377c81538d99ba7ccf31" target="_top" xlink:title="Get formatted time string.">
<polygon fill="white" stroke="#666666" points="534.75,-56.25 374,-56.25 374,-37 534.75,-37 534.75,-56.25"/>
<text xml:space="preserve" text-anchor="middle" x="454.38" y="-42.75" font-family="Helvetica,sans-Serif" font-size="10.00">TimeManager::getFormattedTime</text>
</a>
</g>
</g>
<!-- Node1&#45;&gt;Node4 -->
<g id="edge3_Node000001_Node000004" class="edge">
<title>Node1&#45;&gt;Node4</title>
<g id="a_edge3_Node000001_Node000004"><a xlink:title=" ">
<path fill="none" stroke="#63b8ff" d="M559.11,-56.31C551.11,-55.56 543.04,-54.81 535.13,-54.07"/>
<polygon fill="#63b8ff" stroke="#63b8ff" points="558.57,-59.77 568.85,-57.21 559.22,-52.8 558.57,-59.77"/>
</a>
</g>
</g>
<!-- Node8 -->
<g id="Node000008" class="node">
<title>Node8</title>
<g id="a_Node000008"><a xlink:href="class_time_manager.html#aea04045a244a479fed907fd05d64d100" target="_top" xlink:title="Get time as string (HH:MM:SS)">
<polygon fill="white" stroke="#666666" points="525.38,-93.25 383.38,-93.25 383.38,-74 525.38,-74 525.38,-93.25"/>
<text xml:space="preserve" text-anchor="middle" x="454.38" y="-79.75" font-family="Helvetica,sans-Serif" font-size="10.00">TimeManager::getTimeString</text>
</a>
</g>
</g>
<!-- Node1&#45;&gt;Node8 -->
<g id="edge8_Node000001_Node000008" class="edge">
<title>Node1&#45;&gt;Node8</title>
<g id="a_edge8_Node000001_Node000008"><a xlink:title=" ">
<path fill="none" stroke="#63b8ff" d="M559.21,-73.4C548,-74.5 536.65,-75.62 525.78,-76.69"/>
<polygon fill="#63b8ff" stroke="#63b8ff" points="559.24,-76.91 568.85,-72.45 558.56,-69.94 559.24,-76.91"/>
</a>
</g>
</g>
<!-- Node9 -->
<g id="Node000009" class="node">
<title>Node9</title>
<g id="a_Node000009"><a xlink:href="class_time_manager.html#afebf49e57d461818ded70cf5c6cecf2a" target="_top" xlink:title="Set time from DateTime object.">
<polygon fill="white" stroke="#666666" points="512.62,-19.25 396.12,-19.25 396.12,0 512.62,0 512.62,-19.25"/>
<text xml:space="preserve" text-anchor="middle" x="454.38" y="-5.75" font-family="Helvetica,sans-Serif" font-size="10.00">TimeManager::setTime</text>
</a>
</g>
</g>
<!-- Node1&#45;&gt;Node9 -->
<g id="edge10_Node000001_Node000009" class="edge">
<title>Node1&#45;&gt;Node9</title>
<g id="a_edge10_Node000001_Node000009"><a xlink:title=" ">
<path fill="none" stroke="#63b8ff" d="M609.22,-50.92C587.45,-43.52 559.76,-34.52 534.75,-27.62 524.53,-24.81 513.49,-22.1 502.98,-19.67"/>
<polygon fill="#63b8ff" stroke="#63b8ff" points="607.99,-54.2 618.58,-54.13 610.26,-47.57 607.99,-54.2"/>
</a>
</g>
</g>
<!-- Node3 -->
<g id="Node000003" class="node">
<title>Node3</title>
<g id="a_Node000003"><a xlink:href="class_time_manager.html#ad8222e9629445d97b543eb491b3fd4f6" target="_top" xlink:title="Get current time as JSON string.">
<polygon fill="white" stroke="#666666" points="330.12,-93.25 186.62,-93.25 186.62,-74 330.12,-74 330.12,-93.25"/>
<text xml:space="preserve" text-anchor="middle" x="258.38" y="-79.75" font-family="Helvetica,sans-Serif" font-size="10.00">TimeManager::getTimeJSON</text>
</a>
</g>
</g>
<!-- Node2&#45;&gt;Node3 -->
<g id="edge2_Node000002_Node000003" class="edge">
<title>Node2&#45;&gt;Node3</title>
<g id="a_edge2_Node000002_Node000003"><a xlink:title=" ">
<path fill="none" stroke="#63b8ff" d="M389.17,-108.38C364.25,-103.63 336.05,-98.25 312.32,-93.72"/>
<polygon fill="#63b8ff" stroke="#63b8ff" points="388.4,-111.8 398.88,-110.23 389.71,-104.92 388.4,-111.8"/>
</a>
</g>
</g>
<!-- Node4&#45;&gt;Node3 -->
<g id="edge4_Node000004_Node000003" class="edge">
<title>Node4&#45;&gt;Node3</title>
<g id="a_edge4_Node000004_Node000003"><a xlink:title=" ">
<path fill="none" stroke="#63b8ff" d="M389.17,-58.87C364.25,-63.62 336.05,-69 312.32,-73.53"/>
<polygon fill="#63b8ff" stroke="#63b8ff" points="389.71,-62.33 398.88,-57.02 388.4,-55.45 389.71,-62.33"/>
</a>
</g>
</g>
<!-- Node5 -->
<g id="Node000005" class="node">
<title>Node5</title>
<g id="a_Node000005"><a xlink:href="class_time_manager.html#accdbd3c07d63d6ed1f96fddbc4bf2e00" target="_top" xlink:title="Set time from NTP server.">
<polygon fill="white" stroke="#666666" points="338,-56.25 178.75,-56.25 178.75,-37 338,-37 338,-56.25"/>
<text xml:space="preserve" text-anchor="middle" x="258.38" y="-42.75" font-family="Helvetica,sans-Serif" font-size="10.00">TimeManager::setTimeFromNTP</text>
</a>
</g>
</g>
<!-- Node4&#45;&gt;Node5 -->
<g id="edge5_Node000004_Node000005" class="edge">
<title>Node4&#45;&gt;Node5</title>
<g id="a_edge5_Node000004_Node000005"><a xlink:title=" ">
<path fill="none" stroke="#63b8ff" d="M362.12,-46.62C354.23,-46.62 346.28,-46.62 338.5,-46.62"/>
<polygon fill="#63b8ff" stroke="#63b8ff" points="362.11,-50.13 372.11,-46.63 362.11,-43.13 362.11,-50.13"/>
</a>
</g>
</g>
<!-- Node6 -->
<g id="Node000006" class="node">
<title>Node6</title>
<g id="a_Node000006"><a xlink:href="class_time_manager.html#aa8a8cc016ebb9ceabc4fee347a49cbdb" target="_top" xlink:title="Force immediate NTP synchronization.">
<polygon fill="white" stroke="#666666" points="142.75,-75.25 0,-75.25 0,-56 142.75,-56 142.75,-75.25"/>
<text xml:space="preserve" text-anchor="middle" x="71.38" y="-61.75" font-family="Helvetica,sans-Serif" font-size="10.00">TimeManager::syncWithNTP</text>
</a>
</g>
</g>
<!-- Node5&#45;&gt;Node6 -->
<g id="edge6_Node000005_Node000006" class="edge">
<title>Node5&#45;&gt;Node6</title>
<g id="a_edge6_Node000005_Node000006"><a xlink:title=" ">
<path fill="none" stroke="#63b8ff" d="M167.09,-55.9C159.07,-56.72 151.03,-57.55 143.21,-58.35"/>
<polygon fill="#63b8ff" stroke="#63b8ff" points="167.29,-59.4 176.88,-54.89 166.57,-52.43 167.29,-59.4"/>
</a>
</g>
</g>
<!-- Node7 -->
<g id="Node000007" class="node">
<title>Node7</title>
<g id="a_Node000007"><a xlink:href="class_time_manager.html#a97d902b19861efc099141eeb846671a3" target="_top" xlink:title="Update time from NTP if needed.">
<polygon fill="white" stroke="#666666" points="126.62,-38.25 16.12,-38.25 16.12,-19 126.62,-19 126.62,-38.25"/>
<text xml:space="preserve" text-anchor="middle" x="71.38" y="-24.75" font-family="Helvetica,sans-Serif" font-size="10.00">TimeManager::update</text>
</a>
</g>
</g>
<!-- Node5&#45;&gt;Node7 -->
<g id="edge7_Node000005_Node000007" class="edge">
<title>Node5&#45;&gt;Node7</title>
<g id="a_edge7_Node000005_Node000007"><a xlink:title=" ">
<path fill="none" stroke="#63b8ff" d="M166.97,-37.83C153.34,-36.5 139.65,-35.17 127.08,-33.95"/>
<polygon fill="#63b8ff" stroke="#63b8ff" points="166.58,-41.31 176.88,-38.79 167.26,-34.34 166.58,-41.31"/>
</a>
</g>
</g>
<!-- Node8&#45;&gt;Node3 -->
<g id="edge9_Node000008_Node000003" class="edge">
<title>Node8&#45;&gt;Node3</title>
<g id="a_edge9_Node000008_Node000003"><a xlink:title=" ">
<path fill="none" stroke="#63b8ff" d="M371.67,-83.62C357.96,-83.62 343.84,-83.62 330.42,-83.62"/>
<polygon fill="#63b8ff" stroke="#63b8ff" points="371.55,-87.13 381.55,-83.63 371.55,-80.13 371.55,-87.13"/>
</a>
</g>
</g>
</g>
</svg>
