<?xml version="1.0" encoding="UTF-8" standalone="no"?>
<!DOCTYPE svg PUBLIC "-//W3C//DTD SVG 1.1//EN"
 "http://www.w3.org/Graphics/SVG/1.1/DTD/svg11.dtd">
<!-- Generated by graphviz version 13.1.0 (20250701.0955)
 -->
<!-- Title: TemperatureController::getAlarmCount Pages: 1 -->
<svg width="1109pt" height="174pt"
 viewBox="0.00 0.00 1109.00 174.00" xmlns="http://www.w3.org/2000/svg" xmlns:xlink="http://www.w3.org/1999/xlink">
<g id="graph0" class="graph" transform="scale(1 1) rotate(0) translate(4 169.5)">
<title>TemperatureController::getAlarmCount</title>
<!-- Node1 -->
<g id="Node000001" class="node">
<title>Node1</title>
<g id="a_Node000001"><a xlink:title="Get total number of configured alarms.">
<polygon fill="#999999" stroke="#666666" points="1101.25,-116.5 989.25,-116.5 989.25,-86 1101.25,-86 1101.25,-116.5"/>
<text xml:space="preserve" text-anchor="start" x="997.25" y="-103" font-family="Helvetica,sans-Serif" font-size="10.00">TemperatureController</text>
<text xml:space="preserve" text-anchor="middle" x="1045.25" y="-91.75" font-family="Helvetica,sans-Serif" font-size="10.00">::getAlarmCount</text>
</a>
</g>
</g>
<!-- Node2 -->
<g id="Node000002" class="node">
<title>Node2</title>
<g id="a_Node000002"><a xlink:href="class_temperature_controller.html#a3948ceaf046b5f06afcc9083433f532c" target="_top" xlink:title="Display alarm summary by priority.">
<polygon fill="white" stroke="#666666" points="953.25,-165.5 785,-165.5 785,-135 953.25,-135 953.25,-165.5"/>
<text xml:space="preserve" text-anchor="start" x="793" y="-152" font-family="Helvetica,sans-Serif" font-size="10.00">TemperatureController</text>
<text xml:space="preserve" text-anchor="middle" x="869.12" y="-140.75" font-family="Helvetica,sans-Serif" font-size="10.00">::_displayAlarmSummaryByPriority</text>
</a>
</g>
</g>
<!-- Node1&#45;&gt;Node2 -->
<g id="edge1_Node000001_Node000002" class="edge">
<title>Node1&#45;&gt;Node2</title>
<g id="a_edge1_Node000001_Node000002"><a xlink:title=" ">
<path fill="none" stroke="#63b8ff" d="M978.08,-119.87C960.93,-124.7 942.63,-129.85 926.06,-134.51"/>
<polygon fill="#63b8ff" stroke="#63b8ff" points="979.02,-123.24 987.7,-117.16 977.12,-116.5 979.02,-123.24"/>
</a>
</g>
</g>
<!-- Node8 -->
<g id="Node000008" class="node">
<title>Node8</title>
<g id="a_Node000008"><a xlink:href="class_temperature_controller.html#a20a14014a639f3390dba82a6cd39d067" target="_top" xlink:title="Get relay commanded state.">
<polygon fill="white" stroke="#666666" points="939,-116.5 799.25,-116.5 799.25,-86 939,-86 939,-116.5"/>
<text xml:space="preserve" text-anchor="start" x="807.25" y="-103" font-family="Helvetica,sans-Serif" font-size="10.00">TemperatureController</text>
<text xml:space="preserve" text-anchor="middle" x="869.12" y="-91.75" font-family="Helvetica,sans-Serif" font-size="10.00">::getRelayCommandedState</text>
</a>
</g>
</g>
<!-- Node1&#45;&gt;Node8 -->
<g id="edge8_Node000001_Node000008" class="edge">
<title>Node1&#45;&gt;Node8</title>
<g id="a_edge8_Node000001_Node000008"><a xlink:title=" ">
<path fill="none" stroke="#63b8ff" d="M977.78,-101.25C965.17,-101.25 951.95,-101.25 939.26,-101.25"/>
<polygon fill="#63b8ff" stroke="#63b8ff" points="977.64,-104.75 987.64,-101.25 977.64,-97.75 977.64,-104.75"/>
</a>
</g>
</g>
<!-- Node10 -->
<g id="Node000010" class="node">
<title>Node10</title>
<g id="a_Node000010"><a xlink:href="class_temperature_controller.html#a82e4c37ff4121eaf5e00e9c52381e840" target="_top" xlink:title="Handle alarm output signals.">
<polygon fill="white" stroke="#666666" points="925.12,-67.5 813.12,-67.5 813.12,-37 925.12,-37 925.12,-67.5"/>
<text xml:space="preserve" text-anchor="start" x="821.12" y="-54" font-family="Helvetica,sans-Serif" font-size="10.00">TemperatureController</text>
<text xml:space="preserve" text-anchor="middle" x="869.12" y="-42.75" font-family="Helvetica,sans-Serif" font-size="10.00">::handleAlarmOutputs</text>
</a>
</g>
</g>
<!-- Node1&#45;&gt;Node10 -->
<g id="edge11_Node000001_Node000010" class="edge">
<title>Node1&#45;&gt;Node10</title>
<g id="a_edge11_Node000001_Node000010"><a xlink:title=" ">
<path fill="none" stroke="#63b8ff" d="M978.46,-82.74C960.99,-77.82 942.31,-72.56 925.46,-67.82"/>
<polygon fill="#63b8ff" stroke="#63b8ff" points="977.12,-86 987.7,-85.34 979.02,-79.26 977.12,-86"/>
</a>
</g>
</g>
<!-- Node3 -->
<g id="Node000003" class="node">
<title>Node3</title>
<g id="a_Node000003"><a xlink:href="class_temperature_controller.html#a45f7994a3a052a527981dbfdad27606b" target="_top" xlink:title="Handle system status mode display.">
<polygon fill="white" stroke="#666666" points="749,-165.5 607,-165.5 607,-135 749,-135 749,-165.5"/>
<text xml:space="preserve" text-anchor="start" x="615" y="-152" font-family="Helvetica,sans-Serif" font-size="10.00">TemperatureController</text>
<text xml:space="preserve" text-anchor="middle" x="678" y="-140.75" font-family="Helvetica,sans-Serif" font-size="10.00">::_handleSystemStatusMode</text>
</a>
</g>
</g>
<!-- Node2&#45;&gt;Node3 -->
<g id="edge2_Node000002_Node000003" class="edge">
<title>Node2&#45;&gt;Node3</title>
<g id="a_edge2_Node000002_Node000003"><a xlink:title=" ">
<path fill="none" stroke="#63b8ff" d="M773.26,-150.25C765.21,-150.25 757.16,-150.25 749.34,-150.25"/>
<polygon fill="#63b8ff" stroke="#63b8ff" points="773.11,-153.75 783.11,-150.25 773.11,-146.75 773.11,-153.75"/>
</a>
</g>
</g>
<!-- Node4 -->
<g id="Node000004" class="node">
<title>Node4</title>
<g id="a_Node000004"><a xlink:href="class_temperature_controller.html#a6b2f92b5c2af867240200cff2e61e806" target="_top" xlink:title="Handle display section switching.">
<polygon fill="white" stroke="#666666" points="571,-165.5 444,-165.5 444,-135 571,-135 571,-165.5"/>
<text xml:space="preserve" text-anchor="start" x="452" y="-152" font-family="Helvetica,sans-Serif" font-size="10.00">TemperatureController</text>
<text xml:space="preserve" text-anchor="middle" x="507.5" y="-140.75" font-family="Helvetica,sans-Serif" font-size="10.00">::_handleDisplaySections</text>
</a>
</g>
</g>
<!-- Node3&#45;&gt;Node4 -->
<g id="edge3_Node000003_Node000004" class="edge">
<title>Node3&#45;&gt;Node4</title>
<g id="a_edge3_Node000003_Node000004"><a xlink:title=" ">
<path fill="none" stroke="#63b8ff" d="M595.26,-150.25C587.26,-150.25 579.23,-150.25 571.46,-150.25"/>
<polygon fill="#63b8ff" stroke="#63b8ff" points="595,-153.75 605,-150.25 595,-146.75 595,-153.75"/>
</a>
</g>
</g>
<!-- Node5 -->
<g id="Node000005" class="node">
<title>Node5</title>
<g id="a_Node000005"><a xlink:href="class_temperature_controller.html#a5637103784725fb1a73f6463d7cbfde6" target="_top" xlink:title="Handle alarm display on OLED/LEDs.">
<polygon fill="white" stroke="#666666" points="408,-162.5 296,-162.5 296,-132 408,-132 408,-162.5"/>
<text xml:space="preserve" text-anchor="start" x="304" y="-149" font-family="Helvetica,sans-Serif" font-size="10.00">TemperatureController</text>
<text xml:space="preserve" text-anchor="middle" x="352" y="-137.75" font-family="Helvetica,sans-Serif" font-size="10.00">::handleAlarmDisplay</text>
</a>
</g>
</g>
<!-- Node4&#45;&gt;Node5 -->
<g id="edge4_Node000004_Node000005" class="edge">
<title>Node4&#45;&gt;Node5</title>
<g id="a_edge4_Node000004_Node000005"><a xlink:title=" ">
<path fill="none" stroke="#63b8ff" d="M432.22,-148.8C424.12,-148.64 415.98,-148.48 408.16,-148.33"/>
<polygon fill="#63b8ff" stroke="#63b8ff" points="432.04,-152.3 442.11,-148.99 432.18,-145.3 432.04,-152.3"/>
</a>
</g>
</g>
<!-- Node6 -->
<g id="Node000006" class="node">
<title>Node6</title>
<g id="a_Node000006"><a xlink:href="class_temperature_controller.html#aca5deddbf703001373424d876f87b5f2" target="_top" xlink:title="Main update function &#45; must be called in loop()">
<polygon fill="white" stroke="#666666" points="260,-116.5 148,-116.5 148,-86 260,-86 260,-116.5"/>
<text xml:space="preserve" text-anchor="start" x="156" y="-103" font-family="Helvetica,sans-Serif" font-size="10.00">TemperatureController</text>
<text xml:space="preserve" text-anchor="middle" x="204" y="-91.75" font-family="Helvetica,sans-Serif" font-size="10.00">::update</text>
</a>
</g>
</g>
<!-- Node5&#45;&gt;Node6 -->
<g id="edge5_Node000005_Node000006" class="edge">
<title>Node5&#45;&gt;Node6</title>
<g id="a_edge5_Node000005_Node000006"><a xlink:title=" ">
<path fill="none" stroke="#63b8ff" d="M290.39,-128.15C278.48,-124.4 266.11,-120.5 254.61,-116.88"/>
<polygon fill="#63b8ff" stroke="#63b8ff" points="289.13,-131.43 299.72,-131.09 291.23,-124.75 289.13,-131.43"/>
</a>
</g>
</g>
<!-- Node7 -->
<g id="Node000007" class="node">
<title>Node7</title>
<g id="a_Node000007"><a xlink:href="class_temperature_controller.html#a11948a87fe7df37543b86ecdd488b341" target="_top" xlink:title="Read temperature from all configured measurement points.">
<polygon fill="white" stroke="#666666" points="112,-116.5 0,-116.5 0,-86 112,-86 112,-116.5"/>
<text xml:space="preserve" text-anchor="start" x="8" y="-103" font-family="Helvetica,sans-Serif" font-size="10.00">TemperatureController</text>
<text xml:space="preserve" text-anchor="middle" x="56" y="-91.75" font-family="Helvetica,sans-Serif" font-size="10.00">::readAllPoints</text>
</a>
</g>
</g>
<!-- Node6&#45;&gt;Node7 -->
<g id="edge6_Node000006_Node000007" class="edge">
<title>Node6&#45;&gt;Node7</title>
<g id="a_edge6_Node000006_Node000007"><a xlink:title=" ">
<path fill="none" stroke="#63b8ff" d="M136.47,-94.52C128.38,-94.46 120.18,-94.52 112.27,-94.68"/>
<polygon fill="#63b8ff" stroke="#63b8ff" points="136.24,-98.02 146.29,-94.66 136.34,-91.02 136.24,-98.02"/>
</a>
</g>
</g>
<!-- Node7&#45;&gt;Node6 -->
<g id="edge7_Node000007_Node000006" class="edge">
<title>Node7&#45;&gt;Node6</title>
<g id="a_edge7_Node000007_Node000006"><a xlink:title=" ">
<path fill="none" stroke="#63b8ff" d="M123.61,-107.98C131.7,-108.04 139.9,-107.98 147.8,-107.82"/>
<polygon fill="#63b8ff" stroke="#63b8ff" points="123.84,-104.48 113.79,-107.84 123.74,-111.48 123.84,-104.48"/>
</a>
</g>
</g>
<!-- Node9 -->
<g id="Node000009" class="node">
<title>Node9</title>
<g id="a_Node000009"><a xlink:href="class_temperature_controller.html#a62b93899a3b8b55e2e0bd933520c2892" target="_top" xlink:title="Update register map with current values from measurement points.">
<polygon fill="white" stroke="#666666" points="563.5,-116.5 451.5,-116.5 451.5,-86 563.5,-86 563.5,-116.5"/>
<text xml:space="preserve" text-anchor="start" x="459.5" y="-103" font-family="Helvetica,sans-Serif" font-size="10.00">TemperatureController</text>
<text xml:space="preserve" text-anchor="middle" x="507.5" y="-91.75" font-family="Helvetica,sans-Serif" font-size="10.00">::updateRegisterMap</text>
</a>
</g>
</g>
<!-- Node8&#45;&gt;Node9 -->
<g id="edge9_Node000008_Node000009" class="edge">
<title>Node8&#45;&gt;Node9</title>
<g id="a_edge9_Node000008_Node000009"><a xlink:title=" ">
<path fill="none" stroke="#63b8ff" d="M787.67,-101.25C719.52,-101.25 623.6,-101.25 563.79,-101.25"/>
<polygon fill="#63b8ff" stroke="#63b8ff" points="787.27,-104.75 797.27,-101.25 787.27,-97.75 787.27,-104.75"/>
</a>
</g>
</g>
<!-- Node9&#45;&gt;Node6 -->
<g id="edge10_Node000009_Node000006" class="edge">
<title>Node9&#45;&gt;Node6</title>
<g id="a_edge10_Node000009_Node000006"><a xlink:title=" ">
<path fill="none" stroke="#63b8ff" d="M439.7,-101.25C385.86,-101.25 311.03,-101.25 260.46,-101.25"/>
<polygon fill="#63b8ff" stroke="#63b8ff" points="439.69,-104.75 449.69,-101.25 439.69,-97.75 439.69,-104.75"/>
</a>
</g>
</g>
<!-- Node10&#45;&gt;Node6 -->
<g id="edge13_Node000010_Node000006" class="edge">
<title>Node10&#45;&gt;Node6</title>
<g id="a_edge13_Node000010_Node000006"><a xlink:title=" ">
<path fill="none" stroke="#63b8ff" d="M801.48,-55.33C717.89,-59.38 570.23,-67.2 444,-77.25 381.02,-82.27 308.88,-89.75 260.48,-95.03"/>
<polygon fill="#63b8ff" stroke="#63b8ff" points="801.5,-58.83 811.32,-54.85 801.17,-51.84 801.5,-58.83"/>
</a>
</g>
</g>
<!-- Node11 -->
<g id="Node000011" class="node">
<title>Node11</title>
<g id="a_Node000011"><a xlink:href="class_temperature_controller.html#a8b0a764517c60705322f033be420c628" target="_top" xlink:title="Set relay control mode.">
<polygon fill="white" stroke="#666666" points="736.25,-30.5 619.75,-30.5 619.75,0 736.25,0 736.25,-30.5"/>
<text xml:space="preserve" text-anchor="start" x="627.75" y="-17" font-family="Helvetica,sans-Serif" font-size="10.00">TemperatureController</text>
<text xml:space="preserve" text-anchor="middle" x="678" y="-5.75" font-family="Helvetica,sans-Serif" font-size="10.00">::setRelayControlMode</text>
</a>
</g>
</g>
<!-- Node10&#45;&gt;Node11 -->
<g id="edge12_Node000010_Node000011" class="edge">
<title>Node10&#45;&gt;Node11</title>
<g id="a_edge12_Node000010_Node000011"><a xlink:title=" ">
<path fill="none" stroke="#63b8ff" d="M801.44,-39.2C780.22,-35.05 756.94,-30.5 736.44,-26.49"/>
<polygon fill="#63b8ff" stroke="#63b8ff" points="800.69,-42.62 811.17,-41.11 802.03,-35.75 800.69,-42.62"/>
</a>
</g>
</g>
</g>
</svg>
