<?xml version="1.0" encoding="UTF-8" standalone="no"?>
<!DOCTYPE svg PUBLIC "-//W3C//DTD SVG 1.1//EN"
 "http://www.w3.org/Graphics/SVG/1.1/DTD/svg11.dtd">
<!-- Generated by graphviz version 13.1.0 (20250701.0955)
 -->
<!-- Title: TemperatureController::_checkButtonPress Pages: 1 -->
<svg width="324pt" height="88pt"
 viewBox="0.00 0.00 324.00 88.00" xmlns="http://www.w3.org/2000/svg" xmlns:xlink="http://www.w3.org/1999/xlink">
<g id="graph0" class="graph" transform="scale(1 1) rotate(0) translate(4 83.5)">
<title>TemperatureController::_checkButtonPress</title>
<!-- Node1 -->
<g id="Node000001" class="node">
<title>Node1</title>
<g id="a_Node000001"><a xlink:title="Check for button press and handle acknowledgment.">
<polygon fill="#999999" stroke="#666666" points="112,-54.5 0,-54.5 0,-24 112,-24 112,-54.5"/>
<text xml:space="preserve" text-anchor="start" x="8" y="-41" font-family="Helvetica,sans-Serif" font-size="10.00">TemperatureController</text>
<text xml:space="preserve" text-anchor="middle" x="56" y="-29.75" font-family="Helvetica,sans-Serif" font-size="10.00">::_checkButtonPress</text>
</a>
</g>
</g>
<!-- Node2 -->
<g id="Node000002" class="node">
<title>Node2</title>
<g id="a_Node000002"><a xlink:href="class_temperature_controller.html#ac44de0834e13cec755e247ce1df21f09" target="_top" xlink:title="Display next acknowledged alarm.">
<polygon fill="white" stroke="#666666" points="316.25,-79.5 148,-79.5 148,-49 316.25,-49 316.25,-79.5"/>
<text xml:space="preserve" text-anchor="start" x="156" y="-66" font-family="Helvetica,sans-Serif" font-size="10.00">TemperatureController</text>
<text xml:space="preserve" text-anchor="middle" x="232.12" y="-54.75" font-family="Helvetica,sans-Serif" font-size="10.00">::_displayNextAcknowledgedAlarm</text>
</a>
</g>
</g>
<!-- Node1&#45;&gt;Node2 -->
<g id="edge1_Node000001_Node000002" class="edge">
<title>Node1&#45;&gt;Node2</title>
<g id="a_edge1_Node000001_Node000002"><a xlink:title=" ">
<path fill="none" stroke="#63b8ff" d="M112.09,-47.16C119.9,-48.28 128.11,-49.46 136.41,-50.65"/>
<polygon fill="#63b8ff" stroke="#63b8ff" points="135.87,-54.11 146.26,-52.07 136.86,-47.18 135.87,-54.11"/>
</a>
</g>
</g>
<!-- Node3 -->
<g id="Node000003" class="node">
<title>Node3</title>
<g id="a_Node000003"><a xlink:href="class_temperature_controller.html#a3955f205bc33dda762cbe5c572cd4f21" target="_top" xlink:title="Switch to a new display section.">
<polygon fill="white" stroke="#666666" points="288.12,-30.5 176.12,-30.5 176.12,0 288.12,0 288.12,-30.5"/>
<text xml:space="preserve" text-anchor="start" x="184.12" y="-17" font-family="Helvetica,sans-Serif" font-size="10.00">TemperatureController</text>
<text xml:space="preserve" text-anchor="middle" x="232.12" y="-5.75" font-family="Helvetica,sans-Serif" font-size="10.00">::_switchToSection</text>
</a>
</g>
</g>
<!-- Node1&#45;&gt;Node3 -->
<g id="edge2_Node000001_Node000003" class="edge">
<title>Node1&#45;&gt;Node3</title>
<g id="a_edge2_Node000001_Node000003"><a xlink:title=" ">
<path fill="none" stroke="#63b8ff" d="M112.09,-31.66C128.77,-29.36 147.26,-26.81 164.6,-24.42"/>
<polygon fill="#63b8ff" stroke="#63b8ff" points="164.86,-27.92 174.29,-23.08 163.91,-20.98 164.86,-27.92"/>
</a>
</g>
</g>
</g>
</svg>
