<?xml version="1.0" encoding="UTF-8" standalone="no"?>
<!DOCTYPE svg PUBLIC "-//W3C//DTD SVG 1.1//EN"
 "http://www.w3.org/Graphics/SVG/1.1/DTD/svg11.dtd">
<!-- Generated by graphviz version 13.1.0 (20250701.0955)
 -->
<!-- Title: IndicatorInterface::_handleSpecialBlink Pages: 1 -->
<svg width="584pt" height="161pt"
 viewBox="0.00 0.00 584.00 161.00" xmlns="http://www.w3.org/2000/svg" xmlns:xlink="http://www.w3.org/1999/xlink">
<g id="graph0" class="graph" transform="scale(1 1) rotate(0) translate(4 156.5)">
<title>IndicatorInterface::_handleSpecialBlink</title>
<!-- Node1 -->
<g id="Node000001" class="node">
<title>Node1</title>
<g id="a_Node000001"><a xlink:title=" ">
<polygon fill="#999999" stroke="#666666" points="109.75,-79.5 0,-79.5 0,-49 109.75,-49 109.75,-79.5"/>
<text xml:space="preserve" text-anchor="start" x="8" y="-66" font-family="Helvetica,sans-Serif" font-size="10.00">IndicatorInterface</text>
<text xml:space="preserve" text-anchor="middle" x="54.88" y="-54.75" font-family="Helvetica,sans-Serif" font-size="10.00">::_handleSpecialBlink</text>
</a>
</g>
</g>
<!-- Node2 -->
<g id="Node000002" class="node">
<title>Node2</title>
<g id="a_Node000002"><a xlink:href="class_indicator_interface.html#aa24a016a7358ca6f0c955794d5774512" target="_top" xlink:title=" ">
<polygon fill="white" stroke="#666666" points="254,-128.5 145.75,-128.5 145.75,-98 254,-98 254,-128.5"/>
<text xml:space="preserve" text-anchor="start" x="153.75" y="-115" font-family="Helvetica,sans-Serif" font-size="10.00">IndicatorInterface</text>
<text xml:space="preserve" text-anchor="middle" x="199.88" y="-103.75" font-family="Helvetica,sans-Serif" font-size="10.00">::_restoreCurrentText</text>
</a>
</g>
</g>
<!-- Node1&#45;&gt;Node2 -->
<g id="edge1_Node000001_Node000002" class="edge">
<title>Node1&#45;&gt;Node2</title>
<g id="a_edge1_Node000001_Node000002"><a xlink:title=" ">
<path fill="none" stroke="#63b8ff" d="M101.51,-79.89C114.54,-84.35 128.89,-89.27 142.48,-93.93"/>
<polygon fill="#63b8ff" stroke="#63b8ff" points="141.15,-97.17 151.75,-97.1 143.42,-90.55 141.15,-97.17"/>
</a>
</g>
</g>
<!-- Node6 -->
<g id="Node000006" class="node">
<title>Node6</title>
<g id="a_Node000006"><a xlink:href="class_indicator_interface.html#a54fa76657f9ef0c9e19b6e94d682fb65" target="_top" xlink:title=" ">
<polygon fill="white" stroke="#666666" points="245.75,-79.5 154,-79.5 154,-49 245.75,-49 245.75,-79.5"/>
<text xml:space="preserve" text-anchor="start" x="162" y="-66" font-family="Helvetica,sans-Serif" font-size="10.00">IndicatorInterface</text>
<text xml:space="preserve" text-anchor="middle" x="199.88" y="-54.75" font-family="Helvetica,sans-Serif" font-size="10.00">::displayCross</text>
</a>
</g>
</g>
<!-- Node1&#45;&gt;Node6 -->
<g id="edge5_Node000001_Node000006" class="edge">
<title>Node1&#45;&gt;Node6</title>
<g id="a_edge5_Node000001_Node000006"><a xlink:title=" ">
<path fill="none" stroke="#63b8ff" d="M109.94,-64.25C120.51,-64.25 131.62,-64.25 142.27,-64.25"/>
<polygon fill="#63b8ff" stroke="#63b8ff" points="142.09,-67.75 152.09,-64.25 142.09,-60.75 142.09,-67.75"/>
</a>
</g>
</g>
<!-- Node8 -->
<g id="Node000008" class="node">
<title>Node8</title>
<g id="a_Node000008"><a xlink:href="class_indicator_interface.html#aaa36eb97521df2decb957418acc277a9" target="_top" xlink:title=" ">
<polygon fill="white" stroke="#666666" points="245.75,-30.5 154,-30.5 154,0 245.75,0 245.75,-30.5"/>
<text xml:space="preserve" text-anchor="start" x="162" y="-17" font-family="Helvetica,sans-Serif" font-size="10.00">IndicatorInterface</text>
<text xml:space="preserve" text-anchor="middle" x="199.88" y="-5.75" font-family="Helvetica,sans-Serif" font-size="10.00">::displayOK</text>
</a>
</g>
</g>
<!-- Node1&#45;&gt;Node8 -->
<g id="edge7_Node000001_Node000008" class="edge">
<title>Node1&#45;&gt;Node8</title>
<g id="a_edge7_Node000001_Node000008"><a xlink:title=" ">
<path fill="none" stroke="#63b8ff" d="M101.51,-48.61C114.67,-44.1 129.18,-39.13 142.89,-34.43"/>
<polygon fill="#63b8ff" stroke="#63b8ff" points="143.91,-37.78 152.24,-31.23 141.64,-31.16 143.91,-37.78"/>
</a>
</g>
</g>
<!-- Node3 -->
<g id="Node000003" class="node">
<title>Node3</title>
<g id="a_Node000003"><a xlink:href="class_indicator_interface.html#a38acc1a5120e275253fc4e458aea91f0" target="_top" xlink:title=" ">
<polygon fill="white" stroke="#666666" points="406.5,-128.5 290,-128.5 290,-98 406.5,-98 406.5,-128.5"/>
<text xml:space="preserve" text-anchor="start" x="298" y="-115" font-family="Helvetica,sans-Serif" font-size="10.00">IndicatorInterface</text>
<text xml:space="preserve" text-anchor="middle" x="348.25" y="-103.75" font-family="Helvetica,sans-Serif" font-size="10.00">::_updateOLEDDisplay</text>
</a>
</g>
</g>
<!-- Node2&#45;&gt;Node3 -->
<g id="edge2_Node000002_Node000003" class="edge">
<title>Node2&#45;&gt;Node3</title>
<g id="a_edge2_Node000002_Node000003"><a xlink:title=" ">
<path fill="none" stroke="#63b8ff" d="M254.13,-113.25C262.02,-113.25 270.25,-113.25 278.4,-113.25"/>
<polygon fill="#63b8ff" stroke="#63b8ff" points="278.32,-116.75 288.32,-113.25 278.32,-109.75 278.32,-116.75"/>
</a>
</g>
</g>
<!-- Node4 -->
<g id="Node000004" class="node">
<title>Node4</title>
<g id="a_Node000004"><a xlink:href="class_indicator_interface.html#a2f021f6fa16dec590a8b9cf41a82349d" target="_top" xlink:title=" ">
<polygon fill="white" stroke="#666666" points="575.5,-152.5 442.5,-152.5 442.5,-122 575.5,-122 575.5,-152.5"/>
<text xml:space="preserve" text-anchor="start" x="450.5" y="-139" font-family="Helvetica,sans-Serif" font-size="10.00">IndicatorInterface</text>
<text xml:space="preserve" text-anchor="middle" x="509" y="-127.75" font-family="Helvetica,sans-Serif" font-size="10.00">::_calculateDisplayParams</text>
</a>
</g>
</g>
<!-- Node3&#45;&gt;Node4 -->
<g id="edge3_Node000003_Node000004" class="edge">
<title>Node3&#45;&gt;Node4</title>
<g id="a_edge3_Node000003_Node000004"><a xlink:title=" ">
<path fill="none" stroke="#63b8ff" d="M406.56,-121.91C414.5,-123.11 422.76,-124.36 430.98,-125.61"/>
<polygon fill="#63b8ff" stroke="#63b8ff" points="430.23,-129.03 440.64,-127.07 431.28,-122.11 430.23,-129.03"/>
</a>
</g>
</g>
<!-- Node5 -->
<g id="Node000005" class="node">
<title>Node5</title>
<g id="a_Node000005"><a xlink:href="class_indicator_interface.html#a56c23034a963e2099e36cf55ec70055e" target="_top" xlink:title=" ">
<polygon fill="white" stroke="#666666" points="554.88,-103.5 463.12,-103.5 463.12,-73 554.88,-73 554.88,-103.5"/>
<text xml:space="preserve" text-anchor="start" x="471.12" y="-90" font-family="Helvetica,sans-Serif" font-size="10.00">IndicatorInterface</text>
<text xml:space="preserve" text-anchor="middle" x="509" y="-78.75" font-family="Helvetica,sans-Serif" font-size="10.00">::_drawTextLine</text>
</a>
</g>
</g>
<!-- Node3&#45;&gt;Node5 -->
<g id="edge4_Node000003_Node000005" class="edge">
<title>Node3&#45;&gt;Node5</title>
<g id="a_edge4_Node000003_Node000005"><a xlink:title=" ">
<path fill="none" stroke="#63b8ff" d="M406.56,-104.22C421.28,-101.91 437.1,-99.41 451.77,-97.11"/>
<polygon fill="#63b8ff" stroke="#63b8ff" points="451.89,-100.63 461.23,-95.62 450.8,-93.71 451.89,-100.63"/>
</a>
</g>
</g>
<!-- Node7 -->
<g id="Node000007" class="node">
<title>Node7</title>
<g id="a_Node000007"><a xlink:href="class_indicator_interface.html#af64dc2a4b4256050b070991dfaf05f1a" target="_top" xlink:title=" ">
<polygon fill="white" stroke="#666666" points="394.12,-55.5 302.38,-55.5 302.38,-25 394.12,-25 394.12,-55.5"/>
<text xml:space="preserve" text-anchor="start" x="310.38" y="-42" font-family="Helvetica,sans-Serif" font-size="10.00">IndicatorInterface</text>
<text xml:space="preserve" text-anchor="middle" x="348.25" y="-30.75" font-family="Helvetica,sans-Serif" font-size="10.00">::_wakeOLED</text>
</a>
</g>
</g>
<!-- Node6&#45;&gt;Node7 -->
<g id="edge6_Node000006_Node000007" class="edge">
<title>Node6&#45;&gt;Node7</title>
<g id="a_edge6_Node000006_Node000007"><a xlink:title=" ">
<path fill="none" stroke="#63b8ff" d="M245.99,-56.85C260.18,-54.53 276.03,-51.93 290.9,-49.49"/>
<polygon fill="#63b8ff" stroke="#63b8ff" points="291.24,-52.98 300.54,-47.91 290.11,-46.07 291.24,-52.98"/>
</a>
</g>
</g>
<!-- Node8&#45;&gt;Node7 -->
<g id="edge8_Node000008_Node000007" class="edge">
<title>Node8&#45;&gt;Node7</title>
<g id="a_edge8_Node000008_Node000007"><a xlink:title=" ">
<path fill="none" stroke="#63b8ff" d="M245.99,-22.95C260.18,-25.38 276.03,-28.09 290.9,-30.63"/>
<polygon fill="#63b8ff" stroke="#63b8ff" points="290.1,-34.04 300.54,-32.27 291.28,-27.14 290.1,-34.04"/>
</a>
</g>
</g>
</g>
</svg>
