<?xml version="1.0" encoding="UTF-8" standalone="no"?>
<!DOCTYPE svg PUBLIC "-//W3C//DTD SVG 1.1//EN"
 "http://www.w3.org/Graphics/SVG/1.1/DTD/svg11.dtd">
<!-- Generated by graphviz version 13.1.0 (20250701.0955)
 -->
<!-- Title: RegisterMap::updateFromMeasurementPoint Pages: 1 -->
<svg width="406pt" height="236pt"
 viewBox="0.00 0.00 406.00 236.00" xmlns="http://www.w3.org/2000/svg" xmlns:xlink="http://www.w3.org/1999/xlink">
<g id="graph0" class="graph" transform="scale(1 1) rotate(0) translate(4 232.25)">
<title>RegisterMap::updateFromMeasurementPoint</title>
<!-- Node1 -->
<g id="Node000001" class="node">
<title>Node1</title>
<g id="a_Node000001"><a xlink:title="Update registers from measurement point data.">
<polygon fill="#999999" stroke="#666666" points="188.5,-125.88 0,-125.88 0,-95.38 188.5,-95.38 188.5,-125.88"/>
<text xml:space="preserve" text-anchor="start" x="8" y="-112.38" font-family="Helvetica,sans-Serif" font-size="10.00">RegisterMap::updateFromMeasurement</text>
<text xml:space="preserve" text-anchor="middle" x="94.25" y="-101.12" font-family="Helvetica,sans-Serif" font-size="10.00">Point</text>
</a>
</g>
</g>
<!-- Node2 -->
<g id="Node000002" class="node">
<title>Node2</title>
<g id="a_Node000002"><a xlink:href="class_measurement_point.html#a7b74a18d86e0e545264a774aa2c31cad" target="_top" xlink:title="Get measurement point address.">
<polygon fill="white" stroke="#666666" points="387.88,-228.25 234.62,-228.25 234.62,-209 387.88,-209 387.88,-228.25"/>
<text xml:space="preserve" text-anchor="middle" x="311.25" y="-214.75" font-family="Helvetica,sans-Serif" font-size="10.00">MeasurementPoint::getAddress</text>
</a>
</g>
</g>
<!-- Node1&#45;&gt;Node2 -->
<g id="edge1_Node000001_Node000002" class="edge">
<title>Node1&#45;&gt;Node2</title>
<g id="a_edge1_Node000001_Node000002"><a xlink:title=" ">
<path fill="none" stroke="#63b8ff" d="M113.16,-126.35C136.94,-146.39 181.03,-180.71 224.5,-199.62 229.4,-201.76 234.56,-203.66 239.82,-205.36"/>
<polygon fill="#63b8ff" stroke="#63b8ff" points="238.69,-208.67 249.27,-208.14 240.66,-201.96 238.69,-208.67"/>
</a>
</g>
</g>
<!-- Node3 -->
<g id="Node000003" class="node">
<title>Node3</title>
<g id="a_Node000003"><a xlink:href="class_measurement_point.html#a1421d744f7982e528a579da02adb1919" target="_top" xlink:title="Get alarm status bits.">
<polygon fill="white" stroke="#666666" points="382.62,-190.88 239.88,-190.88 239.88,-160.38 382.62,-160.38 382.62,-190.88"/>
<text xml:space="preserve" text-anchor="start" x="247.88" y="-177.38" font-family="Helvetica,sans-Serif" font-size="10.00">MeasurementPoint::getAlarm</text>
<text xml:space="preserve" text-anchor="middle" x="311.25" y="-166.12" font-family="Helvetica,sans-Serif" font-size="10.00">Status</text>
</a>
</g>
</g>
<!-- Node1&#45;&gt;Node3 -->
<g id="edge2_Node000001_Node000003" class="edge">
<title>Node1&#45;&gt;Node3</title>
<g id="a_edge2_Node000001_Node000003"><a xlink:title=" ">
<path fill="none" stroke="#63b8ff" d="M143.31,-126.3C167.59,-134.11 197.54,-143.58 224.5,-151.62 230.24,-153.34 236.21,-155.08 242.2,-156.81"/>
<polygon fill="#63b8ff" stroke="#63b8ff" points="240.94,-160.09 251.52,-159.47 242.87,-153.36 240.94,-160.09"/>
</a>
</g>
</g>
<!-- Node4 -->
<g id="Node000004" class="node">
<title>Node4</title>
<g id="a_Node000004"><a xlink:href="class_measurement_point.html#aceaf14fde40bcd5331e5ea6a07d7dde8" target="_top" xlink:title="Get current temperature.">
<polygon fill="white" stroke="#666666" points="398,-142.25 224.5,-142.25 224.5,-123 398,-123 398,-142.25"/>
<text xml:space="preserve" text-anchor="middle" x="311.25" y="-128.75" font-family="Helvetica,sans-Serif" font-size="10.00">MeasurementPoint::getCurrentTemp</text>
</a>
</g>
</g>
<!-- Node1&#45;&gt;Node4 -->
<g id="edge3_Node000001_Node000004" class="edge">
<title>Node1&#45;&gt;Node4</title>
<g id="a_edge3_Node000001_Node000004"><a xlink:title=" ">
<path fill="none" stroke="#63b8ff" d="M188.93,-120.21C196.93,-121.03 205.03,-121.86 213.05,-122.68"/>
<polygon fill="#63b8ff" stroke="#63b8ff" points="212.52,-126.14 222.82,-123.68 213.23,-119.18 212.52,-126.14"/>
</a>
</g>
</g>
<!-- Node5 -->
<g id="Node000005" class="node">
<title>Node5</title>
<g id="a_Node000005"><a xlink:href="class_measurement_point.html#a3fb0693931f12190a7f96e5d6be51b51" target="_top" xlink:title="Get error status bits.">
<polygon fill="white" stroke="#666666" points="380.38,-104.88 242.12,-104.88 242.12,-74.38 380.38,-74.38 380.38,-104.88"/>
<text xml:space="preserve" text-anchor="start" x="250.12" y="-91.38" font-family="Helvetica,sans-Serif" font-size="10.00">MeasurementPoint::getError</text>
<text xml:space="preserve" text-anchor="middle" x="311.25" y="-80.12" font-family="Helvetica,sans-Serif" font-size="10.00">Status</text>
</a>
</g>
</g>
<!-- Node1&#45;&gt;Node5 -->
<g id="edge4_Node000001_Node000005" class="edge">
<title>Node1&#45;&gt;Node5</title>
<g id="a_edge4_Node000001_Node000005"><a xlink:title=" ">
<path fill="none" stroke="#63b8ff" d="M188.93,-101.48C202.81,-100.12 217,-98.73 230.56,-97.41"/>
<polygon fill="#63b8ff" stroke="#63b8ff" points="230.66,-100.92 240.27,-96.46 229.98,-93.95 230.66,-100.92"/>
</a>
</g>
</g>
<!-- Node6 -->
<g id="Node000006" class="node">
<title>Node6</title>
<g id="a_Node000006"><a xlink:href="class_measurement_point.html#a8677e00e0be369d7874f4982990dc56d" target="_top" xlink:title="Get maximum recorded temperature.">
<polygon fill="white" stroke="#666666" points="391.25,-56.25 231.25,-56.25 231.25,-37 391.25,-37 391.25,-56.25"/>
<text xml:space="preserve" text-anchor="middle" x="311.25" y="-42.75" font-family="Helvetica,sans-Serif" font-size="10.00">MeasurementPoint::getMaxTemp</text>
</a>
</g>
</g>
<!-- Node1&#45;&gt;Node6 -->
<g id="edge5_Node000001_Node000006" class="edge">
<title>Node1&#45;&gt;Node6</title>
<g id="a_edge5_Node000001_Node000006"><a xlink:title=" ">
<path fill="none" stroke="#63b8ff" d="M136.48,-94.89C161.67,-85.62 194.67,-74.09 224.5,-65.62 232.37,-63.39 240.7,-61.26 248.96,-59.29"/>
<polygon fill="#63b8ff" stroke="#63b8ff" points="249.7,-62.71 258.65,-57.04 248.12,-55.89 249.7,-62.71"/>
</a>
</g>
</g>
<!-- Node7 -->
<g id="Node000007" class="node">
<title>Node7</title>
<g id="a_Node000007"><a xlink:href="class_measurement_point.html#adc31f012462c1623617d5f362bcb2c59" target="_top" xlink:title="Get minimum recorded temperature.">
<polygon fill="white" stroke="#666666" points="389.75,-19.25 232.75,-19.25 232.75,0 389.75,0 389.75,-19.25"/>
<text xml:space="preserve" text-anchor="middle" x="311.25" y="-5.75" font-family="Helvetica,sans-Serif" font-size="10.00">MeasurementPoint::getMinTemp</text>
</a>
</g>
</g>
<!-- Node1&#45;&gt;Node7 -->
<g id="edge6_Node000001_Node000007" class="edge">
<title>Node1&#45;&gt;Node7</title>
<g id="a_edge6_Node000001_Node000007"><a xlink:title=" ">
<path fill="none" stroke="#63b8ff" d="M114.58,-94.97C138.81,-76.14 182.3,-44.91 224.5,-27.62 228.78,-25.87 233.24,-24.28 237.8,-22.84"/>
<polygon fill="#63b8ff" stroke="#63b8ff" points="238.44,-26.3 247.08,-20.16 236.5,-19.57 238.44,-26.3"/>
</a>
</g>
</g>
</g>
</svg>
