<?xml version="1.0" encoding="UTF-8" standalone="no"?>
<!DOCTYPE svg PUBLIC "-//W3C//DTD SVG 1.1//EN"
 "http://www.w3.org/Graphics/SVG/1.1/DTD/svg11.dtd">
<!-- Generated by graphviz version 13.1.0 (20250701.0955)
 -->
<!-- Title: Alarm::updateCondition Pages: 1 -->
<svg width="619pt" height="502pt"
 viewBox="0.00 0.00 619.00 502.00" xmlns="http://www.w3.org/2000/svg" xmlns:xlink="http://www.w3.org/1999/xlink">
<g id="graph0" class="graph" transform="scale(1 1) rotate(0) translate(4 498.25)">
<title>Alarm::updateCondition</title>
<!-- Node1 -->
<g id="Node000001" class="node">
<title>Node1</title>
<g id="a_Node000001"><a xlink:title=" ">
<polygon fill="#999999" stroke="#666666" points="118,-267.25 0,-267.25 0,-248 118,-248 118,-267.25"/>
<text xml:space="preserve" text-anchor="middle" x="59" y="-253.75" font-family="Helvetica,sans-Serif" font-size="10.00">Alarm::updateCondition</text>
</a>
</g>
</g>
<!-- Node2 -->
<g id="Node000002" class="node">
<title>Node2</title>
<g id="a_Node000002"><a xlink:href="class_alarm.html#a28229f40ec51928641f04cd1e505bd6c" target="_top" xlink:title=" ">
<polygon fill="white" stroke="#666666" points="289.25,-494.25 169,-494.25 169,-475 289.25,-475 289.25,-494.25"/>
<text xml:space="preserve" text-anchor="middle" x="229.12" y="-480.75" font-family="Helvetica,sans-Serif" font-size="10.00">Alarm::_checkCondition</text>
</a>
</g>
</g>
<!-- Node1&#45;&gt;Node2 -->
<g id="edge1_Node000001_Node000002" class="edge">
<title>Node1&#45;&gt;Node2</title>
<g id="a_edge1_Node000001_Node000002"><a xlink:title=" ">
<path fill="none" stroke="#63b8ff" d="M61.65,-267.32C67.68,-299.7 91.51,-405.24 154,-460.62 158.03,-464.19 162.59,-467.23 167.43,-469.82"/>
<polygon fill="#63b8ff" stroke="#63b8ff" points="165.74,-472.9 176.29,-473.89 168.67,-466.54 165.74,-472.9"/>
</a>
</g>
</g>
<!-- Node3 -->
<g id="Node000003" class="node">
<title>Node3</title>
<g id="a_Node000003"><a xlink:href="class_alarm.html#a5f0ead4dbd06aa64bd316d99dc587302" target="_top" xlink:title=" ">
<polygon fill="white" stroke="#666666" points="457.12,-475.25 345.12,-475.25 345.12,-456 457.12,-456 457.12,-475.25"/>
<text xml:space="preserve" text-anchor="middle" x="401.12" y="-461.75" font-family="Helvetica,sans-Serif" font-size="10.00">Alarm::getStageString</text>
</a>
</g>
</g>
<!-- Node1&#45;&gt;Node3 -->
<g id="edge11_Node000001_Node000003" class="edge">
<title>Node1&#45;&gt;Node3</title>
<g id="a_edge11_Node000001_Node000003"><a xlink:title=" ">
<path fill="none" stroke="#63b8ff" d="M62.18,-267.34C69.38,-296.97 95.37,-386.7 154,-427.62 182.24,-447.34 270.67,-457.24 333.43,-461.9"/>
<polygon fill="#63b8ff" stroke="#63b8ff" points="333.09,-465.38 343.32,-462.6 333.59,-458.4 333.09,-465.38"/>
</a>
</g>
</g>
<!-- Node4 -->
<g id="Node000004" class="node">
<title>Node4</title>
<g id="a_Node000004"><a xlink:href="class_alarm.html#a052a73879f5cd039f6f7cb7ce02e6a9d" target="_top" xlink:title=" ">
<polygon fill="white" stroke="#666666" points="290.38,-418.25 167.88,-418.25 167.88,-399 290.38,-399 290.38,-418.25"/>
<text xml:space="preserve" text-anchor="middle" x="229.12" y="-404.75" font-family="Helvetica,sans-Serif" font-size="10.00">Alarm::_getPriorityString</text>
</a>
</g>
</g>
<!-- Node1&#45;&gt;Node4 -->
<g id="edge3_Node000001_Node000004" class="edge">
<title>Node1&#45;&gt;Node4</title>
<g id="a_edge3_Node000001_Node000004"><a xlink:title=" ">
<path fill="none" stroke="#63b8ff" d="M64.61,-267.52C76.17,-291.31 108.79,-352.12 154,-384.62 159.35,-388.47 165.34,-391.72 171.54,-394.46"/>
<polygon fill="#63b8ff" stroke="#63b8ff" points="170.1,-397.66 180.69,-398.06 172.67,-391.14 170.1,-397.66"/>
</a>
</g>
</g>
<!-- Node5 -->
<g id="Node000005" class="node">
<title>Node5</title>
<g id="a_Node000005"><a xlink:href="class_alarm.html#a11b2da560dbc8653fa9dec671a78b980" target="_top" xlink:title=" ">
<polygon fill="white" stroke="#666666" points="462,-342.25 340.25,-342.25 340.25,-323 462,-323 462,-342.25"/>
<text xml:space="preserve" text-anchor="middle" x="401.12" y="-328.75" font-family="Helvetica,sans-Serif" font-size="10.00">Alarm::_updateMessage</text>
</a>
</g>
</g>
<!-- Node1&#45;&gt;Node5 -->
<g id="edge4_Node000001_Node000005" class="edge">
<title>Node1&#45;&gt;Node5</title>
<g id="a_edge4_Node000001_Node000005"><a xlink:title=" ">
<path fill="none" stroke="#63b8ff" d="M65.98,-267.53C78.97,-287.94 111.99,-334.23 154,-351.62 222.69,-380.08 311.31,-361.24 361.31,-346.14"/>
<polygon fill="#63b8ff" stroke="#63b8ff" points="362.32,-349.49 370.82,-343.16 360.23,-342.81 362.32,-349.49"/>
</a>
</g>
</g>
<!-- Node7 -->
<g id="Node000007" class="node">
<title>Node7</title>
<g id="a_Node000007"><a xlink:href="class_alarm.html#adc66e3d22e173b00c59b040369030a17" target="_top" xlink:title=" ">
<polygon fill="white" stroke="#666666" points="263.38,-342.25 194.88,-342.25 194.88,-323 263.38,-323 263.38,-342.25"/>
<text xml:space="preserve" text-anchor="middle" x="229.12" y="-328.75" font-family="Helvetica,sans-Serif" font-size="10.00">Alarm::clear</text>
</a>
</g>
</g>
<!-- Node1&#45;&gt;Node7 -->
<g id="edge6_Node000001_Node000007" class="edge">
<title>Node1&#45;&gt;Node7</title>
<g id="a_edge6_Node000001_Node000007"><a xlink:title=" ">
<path fill="none" stroke="#63b8ff" d="M73.61,-267.74C91.28,-280.42 123.48,-302.02 154,-314.62 163.34,-318.48 173.69,-321.64 183.63,-324.17"/>
<polygon fill="#63b8ff" stroke="#63b8ff" points="182.58,-327.52 193.12,-326.42 184.2,-320.71 182.58,-327.52"/>
</a>
</g>
</g>
<!-- Node8 -->
<g id="Node000008" class="node">
<title>Node8</title>
<g id="a_Node000008"><a xlink:href="class_alarm.html#abd578ec75a5ac9bce00b7ce7207c5d8c" target="_top" xlink:title=" ">
<polygon fill="white" stroke="#666666" points="454.88,-305.25 347.38,-305.25 347.38,-286 454.88,-286 454.88,-305.25"/>
<text xml:space="preserve" text-anchor="middle" x="401.12" y="-291.75" font-family="Helvetica,sans-Serif" font-size="10.00">Alarm::getTypeString</text>
</a>
</g>
</g>
<!-- Node1&#45;&gt;Node8 -->
<g id="edge12_Node000001_Node000008" class="edge">
<title>Node1&#45;&gt;Node8</title>
<g id="a_edge12_Node000001_Node000008"><a xlink:title=" ">
<path fill="none" stroke="#63b8ff" d="M118.44,-260.23C168.05,-262.91 241.05,-267.93 304.25,-276.62 317.12,-278.39 330.87,-280.81 343.82,-283.32"/>
<polygon fill="#63b8ff" stroke="#63b8ff" points="342.98,-286.72 353.47,-285.24 344.35,-279.85 342.98,-286.72"/>
</a>
</g>
</g>
<!-- Node9 -->
<g id="Node000009" class="node">
<title>Node9</title>
<g id="a_Node000009"><a xlink:href="class_logger_manager.html#a5c1373ccc47f4112b596fe6f84fbbc21" target="_top" xlink:title=" ">
<polygon fill="white" stroke="#666666" points="453.38,-268.25 348.88,-268.25 348.88,-249 453.38,-249 453.38,-268.25"/>
<text xml:space="preserve" text-anchor="middle" x="401.12" y="-254.75" font-family="Helvetica,sans-Serif" font-size="10.00">LoggerManager::info</text>
</a>
</g>
</g>
<!-- Node1&#45;&gt;Node9 -->
<g id="edge13_Node000001_Node000009" class="edge">
<title>Node1&#45;&gt;Node9</title>
<g id="a_edge13_Node000001_Node000009"><a xlink:title=" ">
<path fill="none" stroke="#63b8ff" d="M118.27,-247.58C130.06,-245.93 142.4,-244.48 154,-243.62 220.6,-238.69 237.67,-238.45 304.25,-243.62 314.97,-244.46 326.31,-245.81 337.28,-247.37"/>
<polygon fill="#63b8ff" stroke="#63b8ff" points="336.65,-250.81 347.05,-248.83 337.68,-243.89 336.65,-250.81"/>
</a>
</g>
</g>
<!-- Node10 -->
<g id="Node000010" class="node">
<title>Node10</title>
<g id="a_Node000010"><a xlink:href="class_logger_manager.html#aef24f00186213fa78be3b104a50d58e6" target="_top" xlink:title=" ">
<polygon fill="white" stroke="#666666" points="283.25,-191.25 175,-191.25 175,-172 283.25,-172 283.25,-191.25"/>
<text xml:space="preserve" text-anchor="middle" x="229.12" y="-177.75" font-family="Helvetica,sans-Serif" font-size="10.00">LoggerManager::error</text>
</a>
</g>
</g>
<!-- Node1&#45;&gt;Node10 -->
<g id="edge10_Node000001_Node000010" class="edge">
<title>Node1&#45;&gt;Node10</title>
<g id="a_edge10_Node000001_Node000010"><a xlink:title=" ">
<path fill="none" stroke="#63b8ff" d="M75.82,-247.63C94.13,-236.37 125.43,-218.02 154,-205.62 162.65,-201.88 172.08,-198.39 181.22,-195.3"/>
<polygon fill="#63b8ff" stroke="#63b8ff" points="182.3,-198.63 190.73,-192.21 180.14,-191.97 182.3,-198.63"/>
</a>
</g>
</g>
<!-- Node11 -->
<g id="Node000011" class="node">
<title>Node11</title>
<g id="a_Node000011"><a xlink:href="class_alarm.html#a6404e8478e8c2d726e9399ea1f2268b2" target="_top" xlink:title=" ">
<polygon fill="white" stroke="#666666" points="301.25,-153.88 157,-153.88 157,-123.38 301.25,-123.38 301.25,-153.88"/>
<text xml:space="preserve" text-anchor="start" x="165" y="-140.38" font-family="Helvetica,sans-Serif" font-size="10.00">Alarm::isAcknowledgedDelay</text>
<text xml:space="preserve" text-anchor="middle" x="229.12" y="-129.12" font-family="Helvetica,sans-Serif" font-size="10.00">Elapsed</text>
</a>
</g>
</g>
<!-- Node1&#45;&gt;Node11 -->
<g id="edge14_Node000001_Node000011" class="edge">
<title>Node1&#45;&gt;Node11</title>
<g id="a_edge14_Node000001_Node000011"><a xlink:title=" ">
<path fill="none" stroke="#63b8ff" d="M67.13,-247.76C81.45,-228.61 115.67,-186.23 154,-162.62 155.9,-161.45 157.86,-160.34 159.87,-159.27"/>
<polygon fill="#63b8ff" stroke="#63b8ff" points="161.36,-162.44 168.88,-154.97 158.34,-156.12 161.36,-162.44"/>
</a>
</g>
</g>
<!-- Node12 -->
<g id="Node000012" class="node">
<title>Node12</title>
<g id="a_Node000012"><a xlink:href="class_alarm.html#aa14465fadcd29ef9b872f4b679d1d5b3" target="_top" xlink:title=" ">
<polygon fill="white" stroke="#666666" points="287,-105.25 171.25,-105.25 171.25,-86 287,-86 287,-105.25"/>
<text xml:space="preserve" text-anchor="middle" x="229.12" y="-91.75" font-family="Helvetica,sans-Serif" font-size="10.00">Alarm::isDelayElapsed</text>
</a>
</g>
</g>
<!-- Node1&#45;&gt;Node12 -->
<g id="edge15_Node000001_Node000012" class="edge">
<title>Node1&#45;&gt;Node12</title>
<g id="a_edge15_Node000001_Node000012"><a xlink:title=" ">
<path fill="none" stroke="#63b8ff" d="M63.51,-247.84C73.38,-221.8 103.95,-150.36 154,-114.62 156.19,-113.06 158.5,-111.63 160.89,-110.31"/>
<polygon fill="#63b8ff" stroke="#63b8ff" points="162.17,-113.58 169.75,-106.17 159.21,-107.23 162.17,-113.58"/>
</a>
</g>
</g>
<!-- Node13 -->
<g id="Node000013" class="node">
<title>Node13</title>
<g id="a_Node000013"><a xlink:href="class_logger_manager.html#aa74d58708cf5cdf8ddafad648edadcf7" target="_top" xlink:title=" ">
<polygon fill="white" stroke="#666666" points="304.25,-67.88 154,-67.88 154,-37.38 304.25,-37.38 304.25,-67.88"/>
<text xml:space="preserve" text-anchor="start" x="162" y="-54.38" font-family="Helvetica,sans-Serif" font-size="10.00">LoggerManager::logAlarmState</text>
<text xml:space="preserve" text-anchor="middle" x="229.12" y="-43.12" font-family="Helvetica,sans-Serif" font-size="10.00">Change</text>
</a>
</g>
</g>
<!-- Node1&#45;&gt;Node13 -->
<g id="edge16_Node000001_Node000013" class="edge">
<title>Node1&#45;&gt;Node13</title>
<g id="a_edge16_Node000001_Node000013"><a xlink:title=" ">
<path fill="none" stroke="#63b8ff" d="M62.3,-247.72C69.84,-217.43 96.71,-125.13 154,-76.62 154.93,-75.84 155.88,-75.08 156.86,-74.34"/>
<polygon fill="#63b8ff" stroke="#63b8ff" points="158.4,-77.51 164.94,-69.18 154.63,-71.61 158.4,-77.51"/>
</a>
</g>
</g>
<!-- Node14 -->
<g id="Node000014" class="node">
<title>Node14</title>
<g id="a_Node000014"><a xlink:href="class_alarm.html#a73e7673d61f82aa21441c75f2cee2c6f" target="_top" xlink:title=" ">
<polygon fill="white" stroke="#666666" points="268.62,-305.25 189.62,-305.25 189.62,-286 268.62,-286 268.62,-305.25"/>
<text xml:space="preserve" text-anchor="middle" x="229.12" y="-291.75" font-family="Helvetica,sans-Serif" font-size="10.00">Alarm::resolve</text>
</a>
</g>
</g>
<!-- Node1&#45;&gt;Node14 -->
<g id="edge17_Node000001_Node000014" class="edge">
<title>Node1&#45;&gt;Node14</title>
<g id="a_edge17_Node000001_Node000014"><a xlink:title=" ">
<path fill="none" stroke="#63b8ff" d="M104.61,-267.71C127.27,-272.83 154.87,-279.07 178.23,-284.35"/>
<polygon fill="#63b8ff" stroke="#63b8ff" points="177.31,-287.73 187.84,-286.52 178.86,-280.9 177.31,-287.73"/>
</a>
</g>
</g>
<!-- Node15 -->
<g id="Node000015" class="node">
<title>Node15</title>
<g id="a_Node000015"><a xlink:href="class_logger_manager.html#a0d52b0ff7bff22817e987ad753102854" target="_top" xlink:title=" ">
<polygon fill="white" stroke="#666666" points="290.38,-19.25 167.88,-19.25 167.88,0 290.38,0 290.38,-19.25"/>
<text xml:space="preserve" text-anchor="middle" x="229.12" y="-5.75" font-family="Helvetica,sans-Serif" font-size="10.00">LoggerManager::warning</text>
</a>
</g>
</g>
<!-- Node1&#45;&gt;Node15 -->
<g id="edge21_Node000001_Node000015" class="edge">
<title>Node1&#45;&gt;Node15</title>
<g id="a_edge21_Node000001_Node000015"><a xlink:title=" ">
<path fill="none" stroke="#63b8ff" d="M60.98,-247.56C65.02,-211.82 83.65,-89.84 154,-28.62 155.45,-27.37 156.97,-26.19 158.55,-25.09"/>
<polygon fill="#63b8ff" stroke="#63b8ff" points="159.91,-28.34 166.84,-20.33 156.43,-22.27 159.91,-28.34"/>
</a>
</g>
</g>
<!-- Node2&#45;&gt;Node3 -->
<g id="edge2_Node000002_Node000003" class="edge">
<title>Node2&#45;&gt;Node3</title>
<g id="a_edge2_Node000002_Node000003"><a xlink:title=" ">
<path fill="none" stroke="#63b8ff" d="M289.58,-477.98C303.71,-476.4 318.88,-474.71 333.31,-473.09"/>
<polygon fill="#63b8ff" stroke="#63b8ff" points="333.64,-476.58 343.19,-471.99 332.86,-469.62 333.64,-476.58"/>
</a>
</g>
</g>
<!-- Node6 -->
<g id="Node000006" class="node">
<title>Node6</title>
<g id="a_Node000006"><a xlink:href="class_alarm.html#a480e1d6d474da0cd4e5dd557e41cb87e" target="_top" xlink:title=" ">
<polygon fill="white" stroke="#666666" points="610.75,-342.25 498,-342.25 498,-323 610.75,-323 610.75,-342.25"/>
<text xml:space="preserve" text-anchor="middle" x="554.38" y="-328.75" font-family="Helvetica,sans-Serif" font-size="10.00">Alarm::getDisplayText</text>
</a>
</g>
</g>
<!-- Node5&#45;&gt;Node6 -->
<g id="edge5_Node000005_Node000006" class="edge">
<title>Node5&#45;&gt;Node6</title>
<g id="a_edge5_Node000005_Node000006"><a xlink:title=" ">
<path fill="none" stroke="#63b8ff" d="M462.34,-332.62C470.29,-332.62 478.48,-332.62 486.53,-332.62"/>
<polygon fill="#63b8ff" stroke="#63b8ff" points="486.27,-336.13 496.27,-332.63 486.27,-329.13 486.27,-336.13"/>
</a>
</g>
</g>
<!-- Node7&#45;&gt;Node5 -->
<g id="edge7_Node000007_Node000005" class="edge">
<title>Node7&#45;&gt;Node5</title>
<g id="a_edge7_Node000007_Node000005"><a xlink:title=" ">
<path fill="none" stroke="#63b8ff" d="M263.71,-332.62C282.25,-332.62 306.02,-332.62 328.51,-332.62"/>
<polygon fill="#63b8ff" stroke="#63b8ff" points="328.26,-336.13 338.26,-332.63 328.26,-329.13 328.26,-336.13"/>
</a>
</g>
</g>
<!-- Node7&#45;&gt;Node8 -->
<g id="edge8_Node000007_Node000008" class="edge">
<title>Node7&#45;&gt;Node8</title>
<g id="a_edge8_Node000007_Node000008"><a xlink:title=" ">
<path fill="none" stroke="#63b8ff" d="M263.71,-325.31C286.23,-320.41 316.47,-313.83 342.75,-308.11"/>
<polygon fill="#63b8ff" stroke="#63b8ff" points="343.23,-311.59 352.26,-306.04 341.74,-304.75 343.23,-311.59"/>
</a>
</g>
</g>
<!-- Node7&#45;&gt;Node9 -->
<g id="edge9_Node000007_Node000009" class="edge">
<title>Node7&#45;&gt;Node9</title>
<g id="a_edge9_Node000007_Node000009"><a xlink:title=" ">
<path fill="none" stroke="#63b8ff" d="M263.77,-328.65C277.03,-326.04 291.99,-321.73 304.25,-314.62 324.38,-302.96 320.44,-288.83 340.25,-276.62 342.24,-275.4 344.31,-274.26 346.44,-273.19"/>
<polygon fill="#63b8ff" stroke="#63b8ff" points="347.59,-276.5 355.37,-269.3 344.8,-270.08 347.59,-276.5"/>
</a>
</g>
</g>
<!-- Node14&#45;&gt;Node5 -->
<g id="edge18_Node000014_Node000005" class="edge">
<title>Node14&#45;&gt;Node5</title>
<g id="a_edge18_Node000014_Node000005"><a xlink:title=" ">
<path fill="none" stroke="#63b8ff" d="M268.7,-304.02C290.62,-308.79 318.48,-314.85 342.9,-320.17"/>
<polygon fill="#63b8ff" stroke="#63b8ff" points="341.85,-323.52 352.36,-322.23 343.34,-316.68 341.85,-323.52"/>
</a>
</g>
</g>
<!-- Node14&#45;&gt;Node8 -->
<g id="edge19_Node000014_Node000008" class="edge">
<title>Node14&#45;&gt;Node8</title>
<g id="a_edge19_Node000014_Node000008"><a xlink:title=" ">
<path fill="none" stroke="#63b8ff" d="M268.7,-295.62C288.48,-295.62 313.09,-295.62 335.66,-295.62"/>
<polygon fill="#63b8ff" stroke="#63b8ff" points="335.37,-299.13 345.37,-295.63 335.37,-292.13 335.37,-299.13"/>
</a>
</g>
</g>
<!-- Node14&#45;&gt;Node9 -->
<g id="edge20_Node000014_Node000009" class="edge">
<title>Node14&#45;&gt;Node9</title>
<g id="a_edge20_Node000014_Node000009"><a xlink:title=" ">
<path fill="none" stroke="#63b8ff" d="M268.7,-287.23C290.62,-282.46 318.48,-276.4 342.9,-271.08"/>
<polygon fill="#63b8ff" stroke="#63b8ff" points="343.34,-274.57 352.36,-269.02 341.85,-267.73 343.34,-274.57"/>
</a>
</g>
</g>
</g>
</svg>
