<?xml version="1.0" encoding="UTF-8" standalone="no"?>
<!DOCTYPE svg PUBLIC "-//W3C//DTD SVG 1.1//EN"
 "http://www.w3.org/Graphics/SVG/1.1/DTD/svg11.dtd">
<!-- Generated by graphviz version 13.1.0 (20250701.0955)
 -->
<!-- Title: ConfigManager::downloadAPI Pages: 1 -->
<svg width="749pt" height="376pt"
 viewBox="0.00 0.00 749.00 376.00" xmlns="http://www.w3.org/2000/svg" xmlns:xlink="http://www.w3.org/1999/xlink">
<g id="graph0" class="graph" transform="scale(1 1) rotate(0) translate(4 371.88)">
<title>ConfigManager::downloadAPI</title>
<!-- Node1 -->
<g id="Node000001" class="node">
<title>Node1</title>
<g id="a_Node000001"><a xlink:title="Setup file download API endpoints.">
<polygon fill="#999999" stroke="#666666" points="145.75,-191.25 0,-191.25 0,-172 145.75,-172 145.75,-191.25"/>
<text xml:space="preserve" text-anchor="middle" x="72.88" y="-177.75" font-family="Helvetica,sans-Serif" font-size="10.00">ConfigManager::downloadAPI</text>
</a>
</g>
</g>
<!-- Node2 -->
<g id="Node000002" class="node">
<title>Node2</title>
<g id="a_Node000002"><a xlink:href="class_config_manager.html#aa425fe77d9c00f404f1c02327263f516" target="_top" xlink:title="Get alarm events for a specific point within date range.">
<polygon fill="white" stroke="#666666" points="339.5,-325.88 181.75,-325.88 181.75,-295.38 339.5,-295.38 339.5,-325.88"/>
<text xml:space="preserve" text-anchor="start" x="189.75" y="-312.38" font-family="Helvetica,sans-Serif" font-size="10.00">ConfigManager::getAlarmEvents</text>
<text xml:space="preserve" text-anchor="middle" x="260.62" y="-301.12" font-family="Helvetica,sans-Serif" font-size="10.00">ForPoint</text>
</a>
</g>
</g>
<!-- Node1&#45;&gt;Node2 -->
<g id="edge1_Node000001_Node000002" class="edge">
<title>Node1&#45;&gt;Node2</title>
<g id="a_edge1_Node000001_Node000002"><a xlink:title=" ">
<path fill="none" stroke="#63b8ff" d="M82.11,-191.5C98.95,-211.16 139.35,-255.51 181.75,-281.62 186.97,-284.84 192.6,-287.79 198.37,-290.47"/>
<polygon fill="#63b8ff" stroke="#63b8ff" points="196.87,-293.63 207.44,-294.4 199.66,-287.21 196.87,-293.63"/>
</a>
</g>
</g>
<!-- Node3 -->
<g id="Node000003" class="node">
<title>Node3</title>
<g id="a_Node000003"><a xlink:href="class_logger_manager.html#a19e6a7d2c3ad2b1d3fa5acb578fb1619" target="_top" xlink:title=" ">
<polygon fill="white" stroke="#666666" points="526.5,-367.88 375.5,-367.88 375.5,-337.38 526.5,-337.38 526.5,-367.88"/>
<text xml:space="preserve" text-anchor="start" x="383.5" y="-354.38" font-family="Helvetica,sans-Serif" font-size="10.00">LoggerManager::getAlarmState</text>
<text xml:space="preserve" text-anchor="middle" x="451" y="-343.12" font-family="Helvetica,sans-Serif" font-size="10.00">LogFiles</text>
</a>
</g>
</g>
<!-- Node1&#45;&gt;Node3 -->
<g id="edge6_Node000001_Node000003" class="edge">
<title>Node1&#45;&gt;Node3</title>
<g id="a_edge6_Node000001_Node000003"><a xlink:title=" ">
<path fill="none" stroke="#63b8ff" d="M77.31,-191.43C87.77,-219.66 122.24,-301.2 181.75,-334.62 236.76,-365.53 308.48,-368.81 363.92,-365.03"/>
<polygon fill="#63b8ff" stroke="#63b8ff" points="363.92,-368.54 373.62,-364.27 363.38,-361.56 363.92,-368.54"/>
</a>
</g>
</g>
<!-- Node5 -->
<g id="Node000005" class="node">
<title>Node5</title>
<g id="a_Node000005"><a xlink:href="class_logger_manager.html#a92719154d919a9bd45a8ea192e70dfcc" target="_top" xlink:title=" ">
<polygon fill="white" stroke="#666666" points="521.62,-278.25 380.38,-278.25 380.38,-259 521.62,-259 521.62,-278.25"/>
<text xml:space="preserve" text-anchor="middle" x="451" y="-264.75" font-family="Helvetica,sans-Serif" font-size="10.00">LoggerManager::openLogFile</text>
</a>
</g>
</g>
<!-- Node1&#45;&gt;Node5 -->
<g id="edge14_Node000001_Node000005" class="edge">
<title>Node1&#45;&gt;Node5</title>
<g id="a_edge14_Node000001_Node000005"><a xlink:title=" ">
<path fill="none" stroke="#63b8ff" d="M85.52,-191.56C104.33,-206.94 143.18,-236.05 181.75,-248.62 242.27,-268.35 314.39,-272.74 368.6,-272.53"/>
<polygon fill="#63b8ff" stroke="#63b8ff" points="368.41,-276.04 378.37,-272.44 368.34,-269.04 368.41,-276.04"/>
</a>
</g>
</g>
<!-- Node6 -->
<g id="Node000006" class="node">
<title>Node6</title>
<g id="a_Node000006"><a xlink:href="class_logger_manager.html#a782a868803b4e2861169796aad7b8b60" target="_top" xlink:title=" ">
<polygon fill="white" stroke="#666666" points="332.38,-239.88 188.88,-239.88 188.88,-209.38 332.38,-209.38 332.38,-239.88"/>
<text xml:space="preserve" text-anchor="start" x="196.88" y="-226.38" font-family="Helvetica,sans-Serif" font-size="10.00">LoggerManager::getEventLog</text>
<text xml:space="preserve" text-anchor="middle" x="260.62" y="-215.12" font-family="Helvetica,sans-Serif" font-size="10.00">FilesStatic</text>
</a>
</g>
</g>
<!-- Node1&#45;&gt;Node6 -->
<g id="edge7_Node000001_Node000006" class="edge">
<title>Node1&#45;&gt;Node6</title>
<g id="a_edge7_Node000001_Node000006"><a xlink:title=" ">
<path fill="none" stroke="#63b8ff" d="M117.43,-191.71C136.24,-196.06 158.85,-201.3 180.45,-206.3"/>
<polygon fill="#63b8ff" stroke="#63b8ff" points="179.62,-209.7 190.16,-208.54 181.2,-202.88 179.62,-209.7"/>
</a>
</g>
</g>
<!-- Node7 -->
<g id="Node000007" class="node">
<title>Node7</title>
<g id="a_Node000007"><a xlink:href="class_logger_manager.html#acb4313c65e6a661229f2c3d662f1c059" target="_top" xlink:title=" ">
<polygon fill="white" stroke="#666666" points="518.25,-217.25 383.75,-217.25 383.75,-198 518.25,-198 518.25,-217.25"/>
<text xml:space="preserve" text-anchor="middle" x="451" y="-203.75" font-family="Helvetica,sans-Serif" font-size="10.00">LoggerManager::getFileInfo</text>
</a>
</g>
</g>
<!-- Node1&#45;&gt;Node7 -->
<g id="edge8_Node000001_Node000007" class="edge">
<title>Node1&#45;&gt;Node7</title>
<g id="a_edge8_Node000001_Node000007"><a xlink:title=" ">
<path fill="none" stroke="#63b8ff" d="M145.95,-186.61C210.78,-191.09 305.78,-197.66 372.28,-202.25"/>
<polygon fill="#63b8ff" stroke="#63b8ff" points="371.8,-205.73 382.02,-202.93 372.28,-198.74 371.8,-205.73"/>
</a>
</g>
</g>
<!-- Node8 -->
<g id="Node000008" class="node">
<title>Node8</title>
<g id="a_Node000008"><a xlink:href="class_measurement_point.html#a71d6d440240f110cbd80c58bbc47aff6" target="_top" xlink:title="Get high alarm threshold.">
<polygon fill="white" stroke="#666666" points="329.38,-153.88 191.88,-153.88 191.88,-123.38 329.38,-123.38 329.38,-153.88"/>
<text xml:space="preserve" text-anchor="start" x="199.88" y="-140.38" font-family="Helvetica,sans-Serif" font-size="10.00">MeasurementPoint::getHigh</text>
<text xml:space="preserve" text-anchor="middle" x="260.62" y="-129.12" font-family="Helvetica,sans-Serif" font-size="10.00">AlarmThreshold</text>
</a>
</g>
</g>
<!-- Node1&#45;&gt;Node8 -->
<g id="edge10_Node000001_Node000008" class="edge">
<title>Node1&#45;&gt;Node8</title>
<g id="a_edge10_Node000001_Node000008"><a xlink:title=" ">
<path fill="none" stroke="#63b8ff" d="M117.43,-171.54C136.24,-167.19 158.85,-161.95 180.45,-156.95"/>
<polygon fill="#63b8ff" stroke="#63b8ff" points="181.2,-160.37 190.16,-154.71 179.62,-153.55 181.2,-160.37"/>
</a>
</g>
</g>
<!-- Node9 -->
<g id="Node000009" class="node">
<title>Node9</title>
<g id="a_Node000009"><a xlink:href="class_logger_manager.html#a2b670504d6ebd0c2c2f833caed6842d5" target="_top" xlink:title=" ">
<polygon fill="white" stroke="#666666" points="330.12,-105.25 191.12,-105.25 191.12,-86 330.12,-86 330.12,-105.25"/>
<text xml:space="preserve" text-anchor="middle" x="260.62" y="-91.75" font-family="Helvetica,sans-Serif" font-size="10.00">LoggerManager::getLogFiles</text>
</a>
</g>
</g>
<!-- Node1&#45;&gt;Node9 -->
<g id="edge11_Node000001_Node000009" class="edge">
<title>Node1&#45;&gt;Node9</title>
<g id="a_edge11_Node000001_Node000009"><a xlink:title=" ">
<path fill="none" stroke="#63b8ff" d="M86.75,-171.72C106.27,-157.17 144.96,-130.07 181.75,-114.62 186.7,-112.55 191.93,-110.66 197.24,-108.96"/>
<polygon fill="#63b8ff" stroke="#63b8ff" points="198.14,-112.34 206.74,-106.15 196.16,-105.63 198.14,-112.34"/>
</a>
</g>
</g>
<!-- Node10 -->
<g id="Node000010" class="node">
<title>Node10</title>
<g id="a_Node000010"><a xlink:href="class_measurement_point.html#a6e538e117d9e22c6998b56519a51d6ba" target="_top" xlink:title="Get low alarm threshold.">
<polygon fill="white" stroke="#666666" points="328.25,-67.88 193,-67.88 193,-37.38 328.25,-37.38 328.25,-67.88"/>
<text xml:space="preserve" text-anchor="start" x="201" y="-54.38" font-family="Helvetica,sans-Serif" font-size="10.00">MeasurementPoint::getLow</text>
<text xml:space="preserve" text-anchor="middle" x="260.62" y="-43.12" font-family="Helvetica,sans-Serif" font-size="10.00">AlarmThreshold</text>
</a>
</g>
</g>
<!-- Node1&#45;&gt;Node10 -->
<g id="edge12_Node000001_Node000010" class="edge">
<title>Node1&#45;&gt;Node10</title>
<g id="a_edge12_Node000001_Node000010"><a xlink:title=" ">
<path fill="none" stroke="#63b8ff" d="M81.37,-171.65C97.46,-150.91 137.47,-102.89 181.75,-76.62 183.92,-75.33 186.18,-74.11 188.48,-72.94"/>
<polygon fill="#63b8ff" stroke="#63b8ff" points="189.85,-76.16 197.5,-68.83 186.95,-69.79 189.85,-76.16"/>
</a>
</g>
</g>
<!-- Node11 -->
<g id="Node000011" class="node">
<title>Node11</title>
<g id="a_Node000011"><a xlink:href="class_measurement_point.html#aa3a80d373c7609c7b178bf7353ffdd7a" target="_top" xlink:title="Get measurement point name.">
<polygon fill="white" stroke="#666666" points="332.38,-19.25 188.88,-19.25 188.88,0 332.38,0 332.38,-19.25"/>
<text xml:space="preserve" text-anchor="middle" x="260.62" y="-5.75" font-family="Helvetica,sans-Serif" font-size="10.00">MeasurementPoint::getName</text>
</a>
</g>
</g>
<!-- Node1&#45;&gt;Node11 -->
<g id="edge13_Node000001_Node000011" class="edge">
<title>Node1&#45;&gt;Node11</title>
<g id="a_edge13_Node000001_Node000011"><a xlink:title=" ">
<path fill="none" stroke="#63b8ff" d="M77.94,-171.52C89.58,-143.9 125.88,-66.68 181.75,-28.62 183.98,-27.1 186.32,-25.71 188.74,-24.42"/>
<polygon fill="#63b8ff" stroke="#63b8ff" points="190.03,-27.68 197.69,-20.36 187.14,-21.3 190.03,-27.68"/>
</a>
</g>
</g>
<!-- Node2&#45;&gt;Node3 -->
<g id="edge2_Node000002_Node000003" class="edge">
<title>Node2&#45;&gt;Node3</title>
<g id="a_edge2_Node000002_Node000003"><a xlink:title=" ">
<path fill="none" stroke="#63b8ff" d="M332.04,-326.32C343.88,-328.96 356.26,-331.72 368.35,-334.42"/>
<polygon fill="#63b8ff" stroke="#63b8ff" points="367.36,-337.79 377.88,-336.55 368.88,-330.95 367.36,-337.79"/>
</a>
</g>
</g>
<!-- Node4 -->
<g id="Node000004" class="node">
<title>Node4</title>
<g id="a_Node000004"><a xlink:href="class_logger_manager.html#a72c969cc82b969c4899dc4d2c8280f0b" target="_top" xlink:title=" ">
<polygon fill="white" stroke="#666666" points="740.5,-278.25 562.5,-278.25 562.5,-259 740.5,-259 740.5,-278.25"/>
<text xml:space="preserve" text-anchor="middle" x="651.5" y="-264.75" font-family="Helvetica,sans-Serif" font-size="10.00">LoggerManager::getLogDirectoryPath</text>
</a>
</g>
</g>
<!-- Node2&#45;&gt;Node4 -->
<g id="edge3_Node000002_Node000004" class="edge">
<title>Node2&#45;&gt;Node4</title>
<g id="a_edge3_Node000002_Node000004"><a xlink:title=" ">
<path fill="none" stroke="#63b8ff" d="M340,-305.17C392.79,-301.17 463.94,-295.13 526.5,-287.62 543.44,-285.59 561.62,-283.03 578.71,-280.44"/>
<polygon fill="#63b8ff" stroke="#63b8ff" points="578.9,-283.95 588.25,-278.98 577.83,-277.03 578.9,-283.95"/>
</a>
</g>
</g>
<!-- Node2&#45;&gt;Node5 -->
<g id="edge4_Node000002_Node000005" class="edge">
<title>Node2&#45;&gt;Node5</title>
<g id="a_edge4_Node000002_Node000005"><a xlink:title=" ">
<path fill="none" stroke="#63b8ff" d="M332.04,-294.93C352.39,-290.39 374.33,-285.5 393.7,-281.18"/>
<polygon fill="#63b8ff" stroke="#63b8ff" points="394.31,-284.63 403.3,-279.04 392.78,-277.8 394.31,-284.63"/>
</a>
</g>
</g>
<!-- Node5&#45;&gt;Node4 -->
<g id="edge5_Node000005_Node000004" class="edge">
<title>Node5&#45;&gt;Node4</title>
<g id="a_edge5_Node000005_Node000004"><a xlink:title=" ">
<path fill="none" stroke="#63b8ff" d="M521.98,-268.62C531.29,-268.62 540.97,-268.62 550.66,-268.62"/>
<polygon fill="#63b8ff" stroke="#63b8ff" points="550.51,-272.13 560.51,-268.63 550.51,-265.13 550.51,-272.13"/>
</a>
</g>
</g>
<!-- Node7&#45;&gt;Node4 -->
<g id="edge9_Node000007_Node000004" class="edge">
<title>Node7&#45;&gt;Node4</title>
<g id="a_edge9_Node000007_Node000004"><a xlink:title=" ">
<path fill="none" stroke="#63b8ff" d="M484.78,-217.7C518.11,-227.94 569.95,-243.87 606.77,-255.19"/>
<polygon fill="#63b8ff" stroke="#63b8ff" points="605.64,-258.5 616.23,-258.09 607.7,-251.81 605.64,-258.5"/>
</a>
</g>
</g>
</g>
</svg>
