<?xml version="1.0" encoding="UTF-8" standalone="no"?>
<!DOCTYPE svg PUBLIC "-//W3C//DTD SVG 1.1//EN"
 "http://www.w3.org/Graphics/SVG/1.1/DTD/svg11.dtd">
<!-- Generated by graphviz version 13.1.0 (20250701.0955)
 -->
<!-- Title: Alarm::getTypeString Pages: 1 -->
<svg width="443pt" height="448pt"
 viewBox="0.00 0.00 443.00 448.00" xmlns="http://www.w3.org/2000/svg" xmlns:xlink="http://www.w3.org/1999/xlink">
<g id="graph0" class="graph" transform="scale(1 1) rotate(0) translate(4 444.25)">
<title>Alarm::getTypeString</title>
<!-- Node1 -->
<g id="Node000001" class="node">
<title>Node1</title>
<g id="a_Node000001"><a xlink:title="Get alarm type as string.">
<polygon fill="#999999" stroke="#666666" points="435,-222.25 327.5,-222.25 327.5,-203 435,-203 435,-222.25"/>
<text xml:space="preserve" text-anchor="middle" x="381.25" y="-208.75" font-family="Helvetica,sans-Serif" font-size="10.00">Alarm::getTypeString</text>
</a>
</g>
</g>
<!-- Node2 -->
<g id="Node000002" class="node">
<title>Node2</title>
<g id="a_Node000002"><a xlink:href="$class_alarm.html#aa14f5a764303b269f04573867e2e4fc8" xlink:title="Acknowledge the alarm.">
<polygon fill="white" stroke="#666666" points="287.75,-440.25 183.25,-440.25 183.25,-421 287.75,-421 287.75,-440.25"/>
<text xml:space="preserve" text-anchor="middle" x="235.5" y="-426.75" font-family="Helvetica,sans-Serif" font-size="10.00">Alarm::acknowledge</text>
</a>
</g>
</g>
<!-- Node1&#45;&gt;Node2 -->
<g id="edge1_Node000001_Node000002" class="edge">
<title>Node1&#45;&gt;Node2</title>
<g id="a_edge1_Node000001_Node000002"><a xlink:title=" ">
<path fill="none" stroke="#63b8ff" d="M376.72,-233.74C368.84,-274.28 346.05,-363.34 291.5,-412.62 288,-415.79 283.92,-418.4 279.61,-420.55"/>
<polygon fill="#63b8ff" stroke="#63b8ff" points="380.13,-234.56 378.47,-224.1 373.24,-233.31 380.13,-234.56"/>
</a>
</g>
</g>
<!-- Node4 -->
<g id="Node000004" class="node">
<title>Node4</title>
<g id="a_Node000004"><a xlink:href="$class_temperature_controller.html#ac5c3403746d7c850bf7929bf5ee3448a" xlink:title="Add alarm configuration.">
<polygon fill="white" stroke="#666666" points="291.5,-365.88 179.5,-365.88 179.5,-335.38 291.5,-335.38 291.5,-365.88"/>
<text xml:space="preserve" text-anchor="start" x="187.5" y="-352.38" font-family="Helvetica,sans-Serif" font-size="10.00">TemperatureController</text>
<text xml:space="preserve" text-anchor="middle" x="235.5" y="-341.12" font-family="Helvetica,sans-Serif" font-size="10.00">::addAlarm</text>
</a>
</g>
</g>
<!-- Node1&#45;&gt;Node4 -->
<g id="edge3_Node000001_Node000004" class="edge">
<title>Node1&#45;&gt;Node4</title>
<g id="a_edge3_Node000001_Node000004"><a xlink:title=" ">
<path fill="none" stroke="#63b8ff" d="M369.21,-232.26C354.37,-257.13 325.84,-299.95 291.5,-326.62 287.55,-329.69 283.15,-332.45 278.6,-334.91"/>
<polygon fill="#63b8ff" stroke="#63b8ff" points="372.12,-234.22 374.11,-223.82 366.06,-230.71 372.12,-234.22"/>
</a>
</g>
</g>
<!-- Node5 -->
<g id="Node000005" class="node">
<title>Node5</title>
<g id="a_Node000005"><a xlink:href="$class_alarm.html#abf159b68e429d66de4ab2d10c2ccd44b" xlink:title="Constructor for creating a new alarm.">
<polygon fill="white" stroke="#666666" points="272,-317.25 199,-317.25 199,-298 272,-298 272,-317.25"/>
<text xml:space="preserve" text-anchor="middle" x="235.5" y="-303.75" font-family="Helvetica,sans-Serif" font-size="10.00">Alarm::Alarm</text>
</a>
</g>
</g>
<!-- Node1&#45;&gt;Node5 -->
<g id="edge4_Node000001_Node000005" class="edge">
<title>Node1&#45;&gt;Node5</title>
<g id="a_edge4_Node000001_Node000005"><a xlink:title=" ">
<path fill="none" stroke="#63b8ff" d="M361.64,-229.94C344.39,-245.38 317.54,-267.91 291.5,-283.62 282.76,-288.9 272.65,-293.66 263.5,-297.51"/>
<polygon fill="#63b8ff" stroke="#63b8ff" points="363.57,-232.92 368.61,-223.6 358.86,-227.74 363.57,-232.92"/>
</a>
</g>
</g>
<!-- Node8 -->
<g id="Node000008" class="node">
<title>Node8</title>
<g id="a_Node000008"><a xlink:href="$class_alarm.html#adc66e3d22e173b00c59b040369030a17" xlink:title="Clear the alarm condition.">
<polygon fill="white" stroke="#666666" points="269.75,-241.25 201.25,-241.25 201.25,-222 269.75,-222 269.75,-241.25"/>
<text xml:space="preserve" text-anchor="middle" x="235.5" y="-227.75" font-family="Helvetica,sans-Serif" font-size="10.00">Alarm::clear</text>
</a>
</g>
</g>
<!-- Node1&#45;&gt;Node8 -->
<g id="edge7_Node000001_Node000008" class="edge">
<title>Node1&#45;&gt;Node8</title>
<g id="a_edge7_Node000001_Node000008"><a xlink:title=" ">
<path fill="none" stroke="#63b8ff" d="M315.81,-221.14C300.08,-223.22 283.87,-225.36 270.23,-227.17"/>
<polygon fill="#63b8ff" stroke="#63b8ff" points="316.18,-224.62 325.63,-219.84 315.26,-217.68 316.18,-224.62"/>
</a>
</g>
</g>
<!-- Node9 -->
<g id="Node000009" class="node">
<title>Node9</title>
<g id="a_Node000009"><a xlink:href="$class_alarm.html#abc87fe39e6a9b5beb9f09df780f67621" xlink:title="Update alarm condition based on current measurement.">
<polygon fill="white" stroke="#666666" points="130.75,-241.25 12.75,-241.25 12.75,-222 130.75,-222 130.75,-241.25"/>
<text xml:space="preserve" text-anchor="middle" x="71.75" y="-227.75" font-family="Helvetica,sans-Serif" font-size="10.00">Alarm::updateCondition</text>
</a>
</g>
</g>
<!-- Node1&#45;&gt;Node9 -->
<g id="edge23_Node000001_Node000009" class="edge">
<title>Node1&#45;&gt;Node9</title>
<g id="a_edge23_Node000001_Node000009"><a xlink:title=" ">
<path fill="none" stroke="#63b8ff" d="M352.76,-227.83C335.69,-236.39 312.98,-246.22 291.5,-250.62 229.51,-263.34 155.94,-251.57 111.86,-241.73"/>
<polygon fill="#63b8ff" stroke="#63b8ff" points="353.99,-231.14 361.25,-223.43 350.76,-224.92 353.99,-231.14"/>
</a>
</g>
</g>
<!-- Node10 -->
<g id="Node000010" class="node">
<title>Node10</title>
<g id="a_Node000010"><a xlink:href="$class_alarm.html#adaf4b74537e11d5643ba5a8ae07fe10e" xlink:title="Get status text description.">
<polygon fill="white" stroke="#666666" points="289.62,-403.25 181.38,-403.25 181.38,-384 289.62,-384 289.62,-403.25"/>
<text xml:space="preserve" text-anchor="middle" x="235.5" y="-389.75" font-family="Helvetica,sans-Serif" font-size="10.00">Alarm::getStatusText</text>
</a>
</g>
</g>
<!-- Node1&#45;&gt;Node10 -->
<g id="edge9_Node000001_Node000010" class="edge">
<title>Node1&#45;&gt;Node10</title>
<g id="a_edge9_Node000001_Node000010"><a xlink:title=" ">
<path fill="none" stroke="#63b8ff" d="M374.22,-233.63C363.32,-267.96 337.11,-336.12 291.5,-374.62 287.25,-378.21 282.29,-381.13 277.12,-383.51"/>
<polygon fill="#63b8ff" stroke="#63b8ff" points="377.56,-234.66 377.11,-224.08 370.86,-232.63 377.56,-234.66"/>
</a>
</g>
</g>
<!-- Node11 -->
<g id="Node000011" class="node">
<title>Node11</title>
<g id="a_Node000011"><a xlink:href="$class_alarm.html#af8d75ee8622a2a96f4bc9b408e9668e5" xlink:title="Reactivate a previously cleared alarm.">
<polygon fill="white" stroke="#666666" points="280.62,-167.25 190.38,-167.25 190.38,-148 280.62,-148 280.62,-167.25"/>
<text xml:space="preserve" text-anchor="middle" x="235.5" y="-153.75" font-family="Helvetica,sans-Serif" font-size="10.00">Alarm::reactivate</text>
</a>
</g>
</g>
<!-- Node1&#45;&gt;Node11 -->
<g id="edge11_Node000001_Node000011" class="edge">
<title>Node1&#45;&gt;Node11</title>
<g id="a_edge11_Node000001_Node000011"><a xlink:title=" ">
<path fill="none" stroke="#63b8ff" d="M347.18,-198.11C330.59,-191.02 310.11,-182.54 291.5,-175.62 284.15,-172.9 276.18,-170.16 268.64,-167.67"/>
<polygon fill="#63b8ff" stroke="#63b8ff" points="345.5,-201.2 356.07,-201.94 348.27,-194.77 345.5,-201.2"/>
</a>
</g>
</g>
<!-- Node12 -->
<g id="Node000012" class="node">
<title>Node12</title>
<g id="a_Node000012"><a xlink:href="$class_alarm.html#a73e7673d61f82aa21441c75f2cee2c6f" xlink:title="Resolve the alarm completely.">
<polygon fill="white" stroke="#666666" points="275,-204.25 196,-204.25 196,-185 275,-185 275,-204.25"/>
<text xml:space="preserve" text-anchor="middle" x="235.5" y="-190.75" font-family="Helvetica,sans-Serif" font-size="10.00">Alarm::resolve</text>
</a>
</g>
</g>
<!-- Node1&#45;&gt;Node12 -->
<g id="edge12_Node000001_Node000012" class="edge">
<title>Node1&#45;&gt;Node12</title>
<g id="a_edge12_Node000001_Node000012"><a xlink:title=" ">
<path fill="none" stroke="#63b8ff" d="M315.72,-204.55C301.99,-202.83 287.9,-201.06 275.47,-199.51"/>
<polygon fill="#63b8ff" stroke="#63b8ff" points="315.27,-208.02 325.63,-205.79 316.14,-201.07 315.27,-208.02"/>
</a>
</g>
</g>
<!-- Node13 -->
<g id="Node000013" class="node">
<title>Node13</title>
<g id="a_Node000013"><a xlink:href="$class_alarm.html#acb8f203b2e2317c1f835bb4b19123f3f" xlink:title="Enable or disable the alarm.">
<polygon fill="white" stroke="#666666" points="283.62,-93.25 187.38,-93.25 187.38,-74 283.62,-74 283.62,-93.25"/>
<text xml:space="preserve" text-anchor="middle" x="235.5" y="-79.75" font-family="Helvetica,sans-Serif" font-size="10.00">Alarm::setEnabled</text>
</a>
</g>
</g>
<!-- Node1&#45;&gt;Node13 -->
<g id="edge14_Node000001_Node000013" class="edge">
<title>Node1&#45;&gt;Node13</title>
<g id="a_edge14_Node000001_Node000013"><a xlink:title=" ">
<path fill="none" stroke="#63b8ff" d="M369.46,-193.01C354.89,-168.26 326.65,-126 291.5,-101.62 286.96,-98.48 281.83,-95.85 276.58,-93.67"/>
<polygon fill="#63b8ff" stroke="#63b8ff" points="366.26,-194.46 374.26,-201.41 372.34,-190.99 366.26,-194.46"/>
</a>
</g>
</g>
<!-- Node17 -->
<g id="Node000017" class="node">
<title>Node17</title>
<g id="a_Node000017"><a xlink:href="$class_alarm.html#a8d031874090c0c0e548a1f2e41ea4979" xlink:title="Set the hysteresis value for alarm triggering.">
<polygon fill="white" stroke="#666666" points="289.62,-130.25 181.38,-130.25 181.38,-111 289.62,-111 289.62,-130.25"/>
<text xml:space="preserve" text-anchor="middle" x="235.5" y="-116.75" font-family="Helvetica,sans-Serif" font-size="10.00">Alarm::setHysteresis</text>
</a>
</g>
</g>
<!-- Node1&#45;&gt;Node17 -->
<g id="edge18_Node000001_Node000017" class="edge">
<title>Node1&#45;&gt;Node17</title>
<g id="a_edge18_Node000001_Node000017"><a xlink:title=" ">
<path fill="none" stroke="#63b8ff" d="M362.96,-194.73C346.08,-178.16 319,-153.85 291.5,-138.62 285.96,-135.56 279.82,-132.91 273.7,-130.66"/>
<polygon fill="#63b8ff" stroke="#63b8ff" points="360.2,-196.91 369.73,-201.53 365.15,-191.97 360.2,-196.91"/>
</a>
</g>
</g>
<!-- Node18 -->
<g id="Node000018" class="node">
<title>Node18</title>
<g id="a_Node000018"><a xlink:href="$class_alarm.html#a5095c54c304a52ebbaca5a2ea74059cd" xlink:title="Set the alarm priority.">
<polygon fill="white" stroke="#666666" points="281.38,-56.25 189.62,-56.25 189.62,-37 281.38,-37 281.38,-56.25"/>
<text xml:space="preserve" text-anchor="middle" x="235.5" y="-42.75" font-family="Helvetica,sans-Serif" font-size="10.00">Alarm::setPriority</text>
</a>
</g>
</g>
<!-- Node1&#45;&gt;Node18 -->
<g id="edge20_Node000001_Node000018" class="edge">
<title>Node1&#45;&gt;Node18</title>
<g id="a_edge20_Node000001_Node000018"><a xlink:title=" ">
<path fill="none" stroke="#63b8ff" d="M373.28,-192.01C361.46,-160.12 334.49,-98.92 291.5,-64.62 287.57,-61.49 283.08,-58.9 278.4,-56.75"/>
<polygon fill="#63b8ff" stroke="#63b8ff" points="369.92,-193.01 376.56,-201.26 376.51,-190.66 369.92,-193.01"/>
</a>
</g>
</g>
<!-- Node19 -->
<g id="Node000019" class="node">
<title>Node19</title>
<g id="a_Node000019"><a xlink:href="$class_alarm.html#adb5fc73041badc6a082b78874559c002" xlink:title="Destructor for alarm cleanup.">
<polygon fill="white" stroke="#666666" points="275,-19.25 196,-19.25 196,0 275,0 275,-19.25"/>
<text xml:space="preserve" text-anchor="middle" x="235.5" y="-5.75" font-family="Helvetica,sans-Serif" font-size="10.00">Alarm::~Alarm</text>
</a>
</g>
</g>
<!-- Node1&#45;&gt;Node19 -->
<g id="edge24_Node000001_Node000019" class="edge">
<title>Node1&#45;&gt;Node19</title>
<g id="a_edge24_Node000001_Node000019"><a xlink:title=" ">
<path fill="none" stroke="#63b8ff" d="M375.93,-191.76C366.96,-153.64 342.74,-72.55 291.5,-27.62 286.82,-23.52 281.18,-20.34 275.32,-17.89"/>
<polygon fill="#63b8ff" stroke="#63b8ff" points="372.4,-192.04 377.99,-201.04 379.24,-190.52 372.4,-192.04"/>
</a>
</g>
</g>
<!-- Node3 -->
<g id="Node000003" class="node">
<title>Node3</title>
<g id="a_Node000003"><a xlink:href="$class_temperature_controller.html#a5f1c8fce1e5efb637bfe86bdb609a3b7" xlink:title="Acknowledge highest priority alarm.">
<polygon fill="white" stroke="#666666" points="143.5,-432.5 0,-432.5 0,-390.75 143.5,-390.75 143.5,-432.5"/>
<text xml:space="preserve" text-anchor="start" x="8" y="-419" font-family="Helvetica,sans-Serif" font-size="10.00">TemperatureController</text>
<text xml:space="preserve" text-anchor="start" x="8" y="-407.75" font-family="Helvetica,sans-Serif" font-size="10.00">::acknowledgeHighestPriority</text>
<text xml:space="preserve" text-anchor="middle" x="71.75" y="-396.5" font-family="Helvetica,sans-Serif" font-size="10.00">Alarm</text>
</a>
</g>
</g>
<!-- Node2&#45;&gt;Node3 -->
<g id="edge2_Node000002_Node000003" class="edge">
<title>Node2&#45;&gt;Node3</title>
<g id="a_edge2_Node000002_Node000003"><a xlink:title=" ">
<path fill="none" stroke="#63b8ff" d="M171.6,-423.24C162.53,-422.17 153.15,-421.07 143.94,-419.99"/>
<polygon fill="#63b8ff" stroke="#63b8ff" points="171.03,-426.69 181.37,-424.38 171.85,-419.74 171.03,-426.69"/>
</a>
</g>
</g>
<!-- Node6 -->
<g id="Node000006" class="node">
<title>Node6</title>
<g id="a_Node000006"><a xlink:href="$class_alarm.html#ab9867ec0c314549960584f4ae01328f8" xlink:title="Less&#45;than comparison operator for alarm sorting.">
<polygon fill="white" stroke="#666666" points="116.12,-298.25 27.38,-298.25 27.38,-279 116.12,-279 116.12,-298.25"/>
<text xml:space="preserve" text-anchor="middle" x="71.75" y="-284.75" font-family="Helvetica,sans-Serif" font-size="10.00">Alarm::operator&lt;</text>
</a>
</g>
</g>
<!-- Node5&#45;&gt;Node6 -->
<g id="edge5_Node000005_Node000006" class="edge">
<title>Node5&#45;&gt;Node6</title>
<g id="a_edge5_Node000005_Node000006"><a xlink:title=" ">
<path fill="none" stroke="#63b8ff" d="M187.35,-302.09C165.02,-299.46 138.51,-296.35 116.62,-293.78"/>
<polygon fill="#63b8ff" stroke="#63b8ff" points="186.76,-305.54 197.1,-303.23 187.58,-298.59 186.76,-305.54"/>
</a>
</g>
</g>
<!-- Node7 -->
<g id="Node000007" class="node">
<title>Node7</title>
<g id="a_Node000007"><a xlink:href="$class_alarm.html#a2a6049ea9b003e51f5ac17aba40bb1ad" xlink:title="Equality comparison operator.">
<polygon fill="white" stroke="#666666" points="119.12,-335.25 24.38,-335.25 24.38,-316 119.12,-316 119.12,-335.25"/>
<text xml:space="preserve" text-anchor="middle" x="71.75" y="-321.75" font-family="Helvetica,sans-Serif" font-size="10.00">Alarm::operator==</text>
</a>
</g>
</g>
<!-- Node5&#45;&gt;Node7 -->
<g id="edge6_Node000005_Node000007" class="edge">
<title>Node5&#45;&gt;Node7</title>
<g id="a_edge6_Node000005_Node000007"><a xlink:title=" ">
<path fill="none" stroke="#63b8ff" d="M187.21,-312.89C165.92,-315.26 140.85,-318.05 119.61,-320.41"/>
<polygon fill="#63b8ff" stroke="#63b8ff" points="187.55,-316.37 197.1,-311.79 186.77,-309.41 187.55,-316.37"/>
</a>
</g>
</g>
<!-- Node8&#45;&gt;Node9 -->
<g id="edge8_Node000008_Node000009" class="edge">
<title>Node8&#45;&gt;Node9</title>
<g id="a_edge8_Node000008_Node000009"><a xlink:title=" ">
<path fill="none" stroke="#63b8ff" d="M189.57,-231.62C171.47,-231.62 150.35,-231.62 131.08,-231.62"/>
<polygon fill="#63b8ff" stroke="#63b8ff" points="189.47,-235.13 199.47,-231.63 189.47,-228.13 189.47,-235.13"/>
</a>
</g>
</g>
<!-- Node10&#45;&gt;Node3 -->
<g id="edge10_Node000010_Node000003" class="edge">
<title>Node10&#45;&gt;Node3</title>
<g id="a_edge10_Node000010_Node000003"><a xlink:title=" ">
<path fill="none" stroke="#63b8ff" d="M169.73,-400.83C161.27,-401.77 152.56,-402.74 143.99,-403.7"/>
<polygon fill="#63b8ff" stroke="#63b8ff" points="170.03,-404.32 179.58,-399.74 169.26,-397.36 170.03,-404.32"/>
</a>
</g>
</g>
<!-- Node12&#45;&gt;Node9 -->
<g id="edge13_Node000012_Node000009" class="edge">
<title>Node12&#45;&gt;Node9</title>
<g id="a_edge13_Node000012_Node000009"><a xlink:title=" ">
<path fill="none" stroke="#63b8ff" d="M184.78,-206C163.1,-210.96 137.9,-216.72 116.89,-221.53"/>
<polygon fill="#63b8ff" stroke="#63b8ff" points="185.31,-209.47 194.28,-203.82 183.75,-202.64 185.31,-209.47"/>
</a>
</g>
</g>
<!-- Node14 -->
<g id="Node000014" class="node">
<title>Node14</title>
<g id="a_Node000014"><a xlink:href="$class_c_s_v_config_manager.html#a7ecf23e1c03fa194bcf3afe52408d378" xlink:title="Parse alarm configuration from CSV fields.">
<polygon fill="white" stroke="#666666" points="128.88,-141.88 14.62,-141.88 14.62,-111.38 128.88,-111.38 128.88,-141.88"/>
<text xml:space="preserve" text-anchor="start" x="22.62" y="-128.38" font-family="Helvetica,sans-Serif" font-size="10.00">CSVConfigManager::</text>
<text xml:space="preserve" text-anchor="middle" x="71.75" y="-117.12" font-family="Helvetica,sans-Serif" font-size="10.00">_parseAlarmFromCSV</text>
</a>
</g>
</g>
<!-- Node13&#45;&gt;Node14 -->
<g id="edge15_Node000013_Node000014" class="edge">
<title>Node13&#45;&gt;Node14</title>
<g id="a_edge15_Node000013_Node000014"><a xlink:title=" ">
<path fill="none" stroke="#63b8ff" d="M185.57,-96.63C167.78,-101.36 147.53,-106.75 129.14,-111.63"/>
<polygon fill="#63b8ff" stroke="#63b8ff" points="186.35,-100.05 195.11,-94.1 184.55,-93.28 186.35,-100.05"/>
</a>
</g>
</g>
<!-- Node15 -->
<g id="Node000015" class="node">
<title>Node15</title>
<g id="a_Node000015"><a xlink:href="$class_temperature_controller.html#ad174e0411bd48422d8e3812fd28a7a0b" xlink:title="Ensure all 3 alarm types exist for a measurement point.">
<polygon fill="white" stroke="#666666" points="131.12,-43.88 12.38,-43.88 12.38,-13.37 131.12,-13.37 131.12,-43.88"/>
<text xml:space="preserve" text-anchor="start" x="20.38" y="-30.38" font-family="Helvetica,sans-Serif" font-size="10.00">TemperatureController</text>
<text xml:space="preserve" text-anchor="middle" x="71.75" y="-19.12" font-family="Helvetica,sans-Serif" font-size="10.00">::ensureAlarmsForPoint</text>
</a>
</g>
</g>
<!-- Node13&#45;&gt;Node15 -->
<g id="edge16_Node000013_Node000015" class="edge">
<title>Node13&#45;&gt;Node15</title>
<g id="a_edge16_Node000013_Node000015"><a xlink:title=" ">
<path fill="none" stroke="#63b8ff" d="M192.52,-69.97C188.12,-68.51 183.72,-67.05 179.5,-65.62 159.15,-58.77 136.67,-51.01 117.62,-44.37"/>
<polygon fill="#63b8ff" stroke="#63b8ff" points="191.32,-73.26 201.91,-73.06 193.5,-66.61 191.32,-73.26"/>
</a>
</g>
</g>
<!-- Node16 -->
<g id="Node000016" class="node">
<title>Node16</title>
<g id="a_Node000016"><a xlink:href="$class_temperature_controller.html#a93bd31914a054a4e1df9be7e3966b82e" xlink:title="Update alarm configuration.">
<polygon fill="white" stroke="#666666" points="127.75,-92.88 15.75,-92.88 15.75,-62.38 127.75,-62.38 127.75,-92.88"/>
<text xml:space="preserve" text-anchor="start" x="23.75" y="-79.38" font-family="Helvetica,sans-Serif" font-size="10.00">TemperatureController</text>
<text xml:space="preserve" text-anchor="middle" x="71.75" y="-68.12" font-family="Helvetica,sans-Serif" font-size="10.00">::updateAlarm</text>
</a>
</g>
</g>
<!-- Node13&#45;&gt;Node16 -->
<g id="edge17_Node000013_Node000016" class="edge">
<title>Node13&#45;&gt;Node16</title>
<g id="a_edge17_Node000013_Node000016"><a xlink:title=" ">
<path fill="none" stroke="#63b8ff" d="M176.12,-81.46C160.43,-80.88 143.53,-80.25 128.02,-79.68"/>
<polygon fill="#63b8ff" stroke="#63b8ff" points="175.64,-84.94 185.77,-81.82 175.9,-77.95 175.64,-84.94"/>
</a>
</g>
</g>
<!-- Node17&#45;&gt;Node14 -->
<g id="edge19_Node000017_Node000014" class="edge">
<title>Node17&#45;&gt;Node14</title>
<g id="a_edge19_Node000017_Node000014"><a xlink:title=" ">
<path fill="none" stroke="#63b8ff" d="M169.94,-123.02C156.45,-123.52 142.33,-124.04 129.16,-124.53"/>
<polygon fill="#63b8ff" stroke="#63b8ff" points="169.71,-126.53 179.58,-122.66 169.45,-119.54 169.71,-126.53"/>
</a>
</g>
</g>
<!-- Node18&#45;&gt;Node15 -->
<g id="edge21_Node000018_Node000015" class="edge">
<title>Node18&#45;&gt;Node15</title>
<g id="a_edge21_Node000018_Node000015"><a xlink:title=" ">
<path fill="none" stroke="#63b8ff" d="M178.18,-40.36C163.08,-38.68 146.72,-36.86 131.49,-35.16"/>
<polygon fill="#63b8ff" stroke="#63b8ff" points="177.61,-43.82 187.94,-41.44 178.39,-36.86 177.61,-43.82"/>
</a>
</g>
</g>
<!-- Node18&#45;&gt;Node16 -->
<g id="edge22_Node000018_Node000016" class="edge">
<title>Node18&#45;&gt;Node16</title>
<g id="a_edge22_Node000018_Node000016"><a xlink:title=" ">
<path fill="none" stroke="#63b8ff" d="M178.46,-57.37C162.2,-60.48 144.45,-63.88 128.22,-66.99"/>
<polygon fill="#63b8ff" stroke="#63b8ff" points="178.79,-60.86 187.96,-55.55 177.48,-53.99 178.79,-60.86"/>
</a>
</g>
</g>
</g>
</svg>
