<?xml version="1.0" encoding="UTF-8" standalone="no"?>
<!DOCTYPE svg PUBLIC "-//W3C//DTD SVG 1.1//EN"
 "http://www.w3.org/Graphics/SVG/1.1/DTD/svg11.dtd">
<!-- Generated by graphviz version 13.1.0 (20250701.0955)
 -->
<!-- Title: RegisterMap::applyConfigFromMeasurementPoint Pages: 1 -->
<svg width="327pt" height="125pt"
 viewBox="0.00 0.00 327.00 125.00" xmlns="http://www.w3.org/2000/svg" xmlns:xlink="http://www.w3.org/1999/xlink">
<g id="graph0" class="graph" transform="scale(1 1) rotate(0) translate(4 120.88)">
<title>RegisterMap::applyConfigFromMeasurementPoint</title>
<!-- Node1 -->
<g id="Node000001" class="node">
<title>Node1</title>
<g id="a_Node000001"><a xlink:title=" ">
<polygon fill="#999999" stroke="#666666" points="129.25,-79.5 0,-79.5 0,-49 129.25,-49 129.25,-79.5"/>
<text xml:space="preserve" text-anchor="start" x="8" y="-66" font-family="Helvetica,sans-Serif" font-size="10.00">RegisterMap::applyConfig</text>
<text xml:space="preserve" text-anchor="middle" x="64.62" y="-54.75" font-family="Helvetica,sans-Serif" font-size="10.00">FromMeasurementPoint</text>
</a>
</g>
</g>
<!-- Node2 -->
<g id="Node000002" class="node">
<title>Node2</title>
<g id="a_Node000002"><a xlink:href="class_measurement_point.html#a7b74a18d86e0e545264a774aa2c31cad" target="_top" xlink:title="Get measurement point address.">
<polygon fill="white" stroke="#666666" points="318.5,-116.88 165.25,-116.88 165.25,-97.62 318.5,-97.62 318.5,-116.88"/>
<text xml:space="preserve" text-anchor="middle" x="241.88" y="-103.38" font-family="Helvetica,sans-Serif" font-size="10.00">MeasurementPoint::getAddress</text>
</a>
</g>
</g>
<!-- Node1&#45;&gt;Node2 -->
<g id="edge1_Node000001_Node000002" class="edge">
<title>Node1&#45;&gt;Node2</title>
<g id="a_edge1_Node000001_Node000002"><a xlink:title=" ">
<path fill="none" stroke="#63b8ff" d="M129.39,-79.9C148.93,-84.69 170.19,-89.91 188.85,-94.49"/>
<polygon fill="#63b8ff" stroke="#63b8ff" points="187.78,-97.83 198.33,-96.81 189.45,-91.03 187.78,-97.83"/>
</a>
</g>
</g>
<!-- Node3 -->
<g id="Node000003" class="node">
<title>Node3</title>
<g id="a_Node000003"><a xlink:href="class_measurement_point.html#a71d6d440240f110cbd80c58bbc47aff6" target="_top" xlink:title="Get high alarm threshold.">
<polygon fill="white" stroke="#666666" points="310.62,-79.5 173.12,-79.5 173.12,-49 310.62,-49 310.62,-79.5"/>
<text xml:space="preserve" text-anchor="start" x="181.12" y="-66" font-family="Helvetica,sans-Serif" font-size="10.00">MeasurementPoint::getHigh</text>
<text xml:space="preserve" text-anchor="middle" x="241.88" y="-54.75" font-family="Helvetica,sans-Serif" font-size="10.00">AlarmThreshold</text>
</a>
</g>
</g>
<!-- Node1&#45;&gt;Node3 -->
<g id="edge2_Node000001_Node000003" class="edge">
<title>Node1&#45;&gt;Node3</title>
<g id="a_edge2_Node000001_Node000003"><a xlink:title=" ">
<path fill="none" stroke="#63b8ff" d="M129.39,-64.25C139.74,-64.25 150.57,-64.25 161.24,-64.25"/>
<polygon fill="#63b8ff" stroke="#63b8ff" points="161.21,-67.75 171.21,-64.25 161.21,-60.75 161.21,-67.75"/>
</a>
</g>
</g>
<!-- Node4 -->
<g id="Node000004" class="node">
<title>Node4</title>
<g id="a_Node000004"><a xlink:href="class_measurement_point.html#a6e538e117d9e22c6998b56519a51d6ba" target="_top" xlink:title="Get low alarm threshold.">
<polygon fill="white" stroke="#666666" points="309.5,-30.5 174.25,-30.5 174.25,0 309.5,0 309.5,-30.5"/>
<text xml:space="preserve" text-anchor="start" x="182.25" y="-17" font-family="Helvetica,sans-Serif" font-size="10.00">MeasurementPoint::getLow</text>
<text xml:space="preserve" text-anchor="middle" x="241.88" y="-5.75" font-family="Helvetica,sans-Serif" font-size="10.00">AlarmThreshold</text>
</a>
</g>
</g>
<!-- Node1&#45;&gt;Node4 -->
<g id="edge3_Node000001_Node000004" class="edge">
<title>Node1&#45;&gt;Node4</title>
<g id="a_edge3_Node000001_Node000004"><a xlink:title=" ">
<path fill="none" stroke="#63b8ff" d="M121.56,-48.61C138.07,-43.99 156.33,-38.89 173.48,-34.09"/>
<polygon fill="#63b8ff" stroke="#63b8ff" points="174.43,-37.46 183.11,-31.4 172.54,-30.72 174.43,-37.46"/>
</a>
</g>
</g>
</g>
</svg>
