<?xml version="1.0" encoding="UTF-8" standalone="no"?>
<!DOCTYPE svg PUBLIC "-//W3C//DTD SVG 1.1//EN"
 "http://www.w3.org/Graphics/SVG/1.1/DTD/svg11.dtd">
<!-- Generated by graphviz version 13.1.0 (20250701.0955)
 -->
<!-- Title: MeasurementPoint::setLowAlarmThreshold Pages: 1 -->
<svg width="493pt" height="260pt"
 viewBox="0.00 0.00 493.00 260.00" xmlns="http://www.w3.org/2000/svg" xmlns:xlink="http://www.w3.org/1999/xlink">
<g id="graph0" class="graph" transform="scale(1 1) rotate(0) translate(4 255.5)">
<title>MeasurementPoint::setLowAlarmThreshold</title>
<!-- Node1 -->
<g id="Node000001" class="node">
<title>Node1</title>
<g id="a_Node000001"><a xlink:title=" ">
<polygon fill="#999999" stroke="#666666" points="485.25,-140.5 350,-140.5 350,-110 485.25,-110 485.25,-140.5"/>
<text xml:space="preserve" text-anchor="start" x="358" y="-127" font-family="Helvetica,sans-Serif" font-size="10.00">MeasurementPoint::setLow</text>
<text xml:space="preserve" text-anchor="middle" x="417.62" y="-115.75" font-family="Helvetica,sans-Serif" font-size="10.00">AlarmThreshold</text>
</a>
</g>
</g>
<!-- Node2 -->
<g id="Node000002" class="node">
<title>Node2</title>
<g id="a_Node000002"><a xlink:href="class_c_s_v_config_manager.html#ac91e29ab2468661df752e4e4b2f7186c" target="_top" xlink:title=" ">
<polygon fill="white" stroke="#666666" points="298.62,-251.5 189.62,-251.5 189.62,-221 298.62,-221 298.62,-251.5"/>
<text xml:space="preserve" text-anchor="start" x="197.62" y="-238" font-family="Helvetica,sans-Serif" font-size="10.00">CSVConfigManager::</text>
<text xml:space="preserve" text-anchor="middle" x="244.12" y="-226.75" font-family="Helvetica,sans-Serif" font-size="10.00">_parseCSVLine</text>
</a>
</g>
</g>
<!-- Node1&#45;&gt;Node2 -->
<g id="edge1_Node000001_Node000002" class="edge">
<title>Node1&#45;&gt;Node2</title>
<g id="a_edge1_Node000001_Node000002"><a xlink:title=" ">
<path fill="none" stroke="#63b8ff" d="M393.99,-148.77C374.35,-168.04 344.38,-194.88 314,-212.25 308.61,-215.33 302.77,-218.11 296.83,-220.59"/>
<polygon fill="#63b8ff" stroke="#63b8ff" points="396.33,-151.38 400.92,-141.83 391.38,-146.43 396.33,-151.38"/>
</a>
</g>
</g>
<!-- Node4 -->
<g id="Node000004" class="node">
<title>Node4</title>
<g id="a_Node000004"><a xlink:href="class_config_manager.html#ae605c999fabc6344511f455618655326" target="_top" xlink:title=" ">
<polygon fill="white" stroke="#666666" points="311,-202.88 177.25,-202.88 177.25,-183.62 311,-183.62 311,-202.88"/>
<text xml:space="preserve" text-anchor="middle" x="244.12" y="-189.38" font-family="Helvetica,sans-Serif" font-size="10.00">ConfigManager::alarmsAPI</text>
</a>
</g>
</g>
<!-- Node1&#45;&gt;Node4 -->
<g id="edge3_Node000001_Node000004" class="edge">
<title>Node1&#45;&gt;Node4</title>
<g id="a_edge3_Node000001_Node000004"><a xlink:title=" ">
<path fill="none" stroke="#63b8ff" d="M377.32,-146.02C358.5,-155.45 335.44,-166.25 314,-174.25 305.17,-177.55 295.51,-180.56 286.29,-183.17"/>
<polygon fill="#63b8ff" stroke="#63b8ff" points="378.9,-149.14 386.23,-141.5 375.73,-142.9 378.9,-149.14"/>
</a>
</g>
</g>
<!-- Node6 -->
<g id="Node000006" class="node">
<title>Node6</title>
<g id="a_Node000006"><a xlink:href="class_register_map.html#aa2f819b22096b8c14c421b415f7e83b7" target="_top" xlink:title=" ">
<polygon fill="white" stroke="#666666" points="308.75,-165.5 179.5,-165.5 179.5,-135 308.75,-135 308.75,-165.5"/>
<text xml:space="preserve" text-anchor="start" x="187.5" y="-152" font-family="Helvetica,sans-Serif" font-size="10.00">RegisterMap::applyConfig</text>
<text xml:space="preserve" text-anchor="middle" x="244.12" y="-140.75" font-family="Helvetica,sans-Serif" font-size="10.00">ToMeasurementPoint</text>
</a>
</g>
</g>
<!-- Node1&#45;&gt;Node6 -->
<g id="edge5_Node000001_Node000006" class="edge">
<title>Node1&#45;&gt;Node6</title>
<g id="a_edge5_Node000001_Node000006"><a xlink:title=" ">
<path fill="none" stroke="#63b8ff" d="M338.44,-136.65C328.66,-138.07 318.74,-139.52 309.21,-140.91"/>
<polygon fill="#63b8ff" stroke="#63b8ff" points="338.94,-140.11 348.33,-135.21 337.93,-133.18 338.94,-140.11"/>
</a>
</g>
</g>
<!-- Node7 -->
<g id="Node000007" class="node">
<title>Node7</title>
<g id="a_Node000007"><a xlink:href="class_config_manager.html#a04edc14e642ecadb9ccb87be05d1d878" target="_top" xlink:title=" ">
<polygon fill="white" stroke="#666666" points="311,-116.5 177.25,-116.5 177.25,-86 311,-86 311,-116.5"/>
<text xml:space="preserve" text-anchor="start" x="185.25" y="-103" font-family="Helvetica,sans-Serif" font-size="10.00">ConfigManager::loadPoints</text>
<text xml:space="preserve" text-anchor="middle" x="244.12" y="-91.75" font-family="Helvetica,sans-Serif" font-size="10.00">Config</text>
</a>
</g>
</g>
<!-- Node1&#45;&gt;Node7 -->
<g id="edge6_Node000001_Node000007" class="edge">
<title>Node1&#45;&gt;Node7</title>
<g id="a_edge6_Node000001_Node000007"><a xlink:title=" ">
<path fill="none" stroke="#63b8ff" d="M338.48,-114.31C329.45,-113.05 320.31,-111.77 311.46,-110.53"/>
<polygon fill="#63b8ff" stroke="#63b8ff" points="337.94,-117.77 348.33,-115.69 338.91,-110.84 337.94,-117.77"/>
</a>
</g>
</g>
<!-- Node8 -->
<g id="Node000008" class="node">
<title>Node8</title>
<g id="a_Node000008"><a xlink:href="class_config_manager.html#a471a844085c27f3a8a8f9394d9c14677" target="_top" xlink:title=" ">
<polygon fill="white" stroke="#666666" points="309.5,-67.88 178.75,-67.88 178.75,-48.62 309.5,-48.62 309.5,-67.88"/>
<text xml:space="preserve" text-anchor="middle" x="244.12" y="-54.38" font-family="Helvetica,sans-Serif" font-size="10.00">ConfigManager::pointsAPI</text>
</a>
</g>
</g>
<!-- Node1&#45;&gt;Node8 -->
<g id="edge8_Node000001_Node000008" class="edge">
<title>Node1&#45;&gt;Node8</title>
<g id="a_edge8_Node000001_Node000008"><a xlink:title=" ">
<path fill="none" stroke="#63b8ff" d="M376.45,-104.54C357.78,-95.42 335.08,-85.02 314,-77.25 305.04,-73.95 295.24,-70.91 285.91,-68.28"/>
<polygon fill="#63b8ff" stroke="#63b8ff" points="374.79,-107.62 385.3,-108.93 377.9,-101.35 374.79,-107.62"/>
</a>
</g>
</g>
<!-- Node9 -->
<g id="Node000009" class="node">
<title>Node9</title>
<g id="a_Node000009"><a xlink:href="class_config_manager.html#a0daf50bbd376beb24a5400a86e893338" target="_top" xlink:title=" ">
<polygon fill="white" stroke="#666666" points="314,-30.5 174.25,-30.5 174.25,0 314,0 314,-30.5"/>
<text xml:space="preserve" text-anchor="start" x="182.25" y="-17" font-family="Helvetica,sans-Serif" font-size="10.00">ConfigManager::updatePoint</text>
<text xml:space="preserve" text-anchor="middle" x="244.12" y="-5.75" font-family="Helvetica,sans-Serif" font-size="10.00">InConfig</text>
</a>
</g>
</g>
<!-- Node1&#45;&gt;Node9 -->
<g id="edge10_Node000001_Node000009" class="edge">
<title>Node1&#45;&gt;Node9</title>
<g id="a_edge10_Node000001_Node000009"><a xlink:title=" ">
<path fill="none" stroke="#63b8ff" d="M393.6,-101.68C373.93,-82.66 344.11,-56.35 314,-39.25 308.6,-36.19 302.75,-33.42 296.81,-30.94"/>
<polygon fill="#63b8ff" stroke="#63b8ff" points="390.97,-104.01 400.55,-108.53 395.88,-99.02 390.97,-104.01"/>
</a>
</g>
</g>
<!-- Node3 -->
<g id="Node000003" class="node">
<title>Node3</title>
<g id="a_Node000003"><a xlink:href="class_c_s_v_config_manager.html#aef1d9d5b47814730cb9f80554b6fd623" target="_top" xlink:title=" ">
<polygon fill="white" stroke="#666666" points="138.25,-251.5 0,-251.5 0,-221 138.25,-221 138.25,-251.5"/>
<text xml:space="preserve" text-anchor="start" x="8" y="-238" font-family="Helvetica,sans-Serif" font-size="10.00">CSVConfigManager::import</text>
<text xml:space="preserve" text-anchor="middle" x="69.12" y="-226.75" font-family="Helvetica,sans-Serif" font-size="10.00">PointsWithAlarmsFromCSV</text>
</a>
</g>
</g>
<!-- Node2&#45;&gt;Node3 -->
<g id="edge2_Node000002_Node000003" class="edge">
<title>Node2&#45;&gt;Node3</title>
<g id="a_edge2_Node000002_Node000003"><a xlink:title=" ">
<path fill="none" stroke="#63b8ff" d="M178.17,-236.25C165.23,-236.25 151.61,-236.25 138.56,-236.25"/>
<polygon fill="#63b8ff" stroke="#63b8ff" points="177.82,-239.75 187.82,-236.25 177.82,-232.75 177.82,-239.75"/>
</a>
</g>
</g>
<!-- Node5 -->
<g id="Node000005" class="node">
<title>Node5</title>
<g id="a_Node000005"><a xlink:href="class_config_manager.html#a0497343220fc493f5cf9574922508908" target="_top" xlink:title=" ">
<polygon fill="white" stroke="#666666" points="124.75,-110.88 13.5,-110.88 13.5,-91.62 124.75,-91.62 124.75,-110.88"/>
<text xml:space="preserve" text-anchor="middle" x="69.12" y="-97.38" font-family="Helvetica,sans-Serif" font-size="10.00">ConfigManager::begin</text>
</a>
</g>
</g>
<!-- Node4&#45;&gt;Node5 -->
<g id="edge4_Node000004_Node000005" class="edge">
<title>Node4&#45;&gt;Node5</title>
<g id="a_edge4_Node000004_Node000005"><a xlink:title=" ">
<path fill="none" stroke="#63b8ff" d="M187.31,-179.64C182.82,-178.01 178.42,-176.21 174.25,-174.25 137.5,-156.94 99.79,-126.8 81.48,-111.22"/>
<polygon fill="#63b8ff" stroke="#63b8ff" points="185.83,-182.83 196.43,-182.68 188.05,-176.19 185.83,-182.83"/>
</a>
</g>
</g>
<!-- Node7&#45;&gt;Node5 -->
<g id="edge7_Node000007_Node000005" class="edge">
<title>Node7&#45;&gt;Node5</title>
<g id="a_edge7_Node000007_Node000005"><a xlink:title=" ">
<path fill="none" stroke="#63b8ff" d="M165.81,-101.25C152.1,-101.25 138.08,-101.25 125.14,-101.25"/>
<polygon fill="#63b8ff" stroke="#63b8ff" points="165.71,-104.75 175.71,-101.25 165.71,-97.75 165.71,-104.75"/>
</a>
</g>
</g>
<!-- Node8&#45;&gt;Node5 -->
<g id="edge9_Node000008_Node000005" class="edge">
<title>Node8&#45;&gt;Node5</title>
<g id="a_edge9_Node000008_Node000005"><a xlink:title=" ">
<path fill="none" stroke="#63b8ff" d="M191.46,-71.09C165.64,-77.51 134.84,-85.17 110.73,-91.16"/>
<polygon fill="#63b8ff" stroke="#63b8ff" points="192.23,-74.51 201.1,-68.7 190.55,-67.71 192.23,-74.51"/>
</a>
</g>
</g>
</g>
</svg>
