<?xml version="1.0" encoding="UTF-8" standalone="no"?>
<!DOCTYPE svg PUBLIC "-//W3C//DTD SVG 1.1//EN"
 "http://www.w3.org/Graphics/SVG/1.1/DTD/svg11.dtd">
<!-- Generated by graphviz version 13.1.0 (20250701.0955)
 -->
<!-- Title: IndicatorInterface::readPort Pages: 1 -->
<svg width="498pt" height="88pt"
 viewBox="0.00 0.00 498.00 88.00" xmlns="http://www.w3.org/2000/svg" xmlns:xlink="http://www.w3.org/1999/xlink">
<g id="graph0" class="graph" transform="scale(1 1) rotate(0) translate(4 83.5)">
<title>IndicatorInterface::readPort</title>
<!-- Node1 -->
<g id="Node000001" class="node">
<title>Node1</title>
<g id="a_Node000001"><a xlink:title="Read state of a numbered port.">
<polygon fill="#999999" stroke="#666666" points="91.75,-54.5 0,-54.5 0,-24 91.75,-24 91.75,-54.5"/>
<text xml:space="preserve" text-anchor="start" x="8" y="-41" font-family="Helvetica,sans-Serif" font-size="10.00">IndicatorInterface</text>
<text xml:space="preserve" text-anchor="middle" x="45.88" y="-29.75" font-family="Helvetica,sans-Serif" font-size="10.00">::readPort</text>
</a>
</g>
</g>
<!-- Node2 -->
<g id="Node000002" class="node">
<title>Node2</title>
<g id="a_Node000002"><a xlink:href="$class_indicator_interface.html#a8571bc4adfb0efb4f230b8c9d1b6bda7" xlink:title="Reverse inversion logic from physical to logical.">
<polygon fill="white" stroke="#666666" points="234.5,-79.5 127.75,-79.5 127.75,-49 234.5,-49 234.5,-79.5"/>
<text xml:space="preserve" text-anchor="start" x="135.75" y="-66" font-family="Helvetica,sans-Serif" font-size="10.00">IndicatorInterface</text>
<text xml:space="preserve" text-anchor="middle" x="181.12" y="-54.75" font-family="Helvetica,sans-Serif" font-size="10.00">::_reverseModeLogic</text>
</a>
</g>
</g>
<!-- Node1&#45;&gt;Node2 -->
<g id="edge1_Node000001_Node000002" class="edge">
<title>Node1&#45;&gt;Node2</title>
<g id="a_edge1_Node000001_Node000002"><a xlink:title=" ">
<path fill="none" stroke="#63b8ff" d="M91.99,-47.71C99.88,-49.19 108.22,-50.76 116.5,-52.31"/>
<polygon fill="#63b8ff" stroke="#63b8ff" points="115.74,-55.73 126.21,-54.14 117.03,-48.85 115.74,-55.73"/>
</a>
</g>
</g>
<!-- Node4 -->
<g id="Node000004" class="node">
<title>Node4</title>
<g id="a_Node000004"><a xlink:href="$class_indicator_interface.html#a6e69fba966a59153449facfac1e04057" xlink:title="Get current state of all 16 ports.">
<polygon fill="white" stroke="#666666" points="227,-30.5 135.25,-30.5 135.25,0 227,0 227,-30.5"/>
<text xml:space="preserve" text-anchor="start" x="143.25" y="-17" font-family="Helvetica,sans-Serif" font-size="10.00">IndicatorInterface</text>
<text xml:space="preserve" text-anchor="middle" x="181.12" y="-5.75" font-family="Helvetica,sans-Serif" font-size="10.00">::getCurrentState</text>
</a>
</g>
</g>
<!-- Node1&#45;&gt;Node4 -->
<g id="edge3_Node000001_Node000004" class="edge">
<title>Node1&#45;&gt;Node4</title>
<g id="a_edge3_Node000001_Node000004"><a xlink:title=" ">
<path fill="none" stroke="#63b8ff" d="M91.99,-31.12C102.19,-29.29 113.15,-27.31 123.75,-25.4"/>
<polygon fill="#63b8ff" stroke="#63b8ff" points="124.35,-28.85 133.57,-23.64 123.11,-21.96 124.35,-28.85"/>
</a>
</g>
</g>
<!-- Node3 -->
<g id="Node000003" class="node">
<title>Node3</title>
<g id="a_Node000003"><a xlink:href="$class_indicator_interface.html#a3b900f1de29de5489f19b94b27f4b5c1" xlink:title="Check if port has inverted logic.">
<polygon fill="white" stroke="#666666" points="362.25,-79.5 270.5,-79.5 270.5,-49 362.25,-49 362.25,-79.5"/>
<text xml:space="preserve" text-anchor="start" x="278.5" y="-66" font-family="Helvetica,sans-Serif" font-size="10.00">IndicatorInterface</text>
<text xml:space="preserve" text-anchor="middle" x="316.38" y="-54.75" font-family="Helvetica,sans-Serif" font-size="10.00">::isInverted</text>
</a>
</g>
</g>
<!-- Node2&#45;&gt;Node3 -->
<g id="edge2_Node000002_Node000003" class="edge">
<title>Node2&#45;&gt;Node3</title>
<g id="a_edge2_Node000002_Node000003"><a xlink:title=" ">
<path fill="none" stroke="#63b8ff" d="M234.79,-64.25C242.8,-64.25 251.09,-64.25 259.17,-64.25"/>
<polygon fill="#63b8ff" stroke="#63b8ff" points="258.89,-67.75 268.89,-64.25 258.89,-60.75 258.89,-67.75"/>
</a>
</g>
</g>
<!-- Node5 -->
<g id="Node000005" class="node">
<title>Node5</title>
<g id="a_Node000005"><a xlink:href="$class_indicator_interface.html#aea37934542bbe7b6c50941dff4646fef" xlink:title="Update internal state from PCF8575.">
<polygon fill="white" stroke="#666666" points="362.25,-30.5 270.5,-30.5 270.5,0 362.25,0 362.25,-30.5"/>
<text xml:space="preserve" text-anchor="start" x="278.5" y="-17" font-family="Helvetica,sans-Serif" font-size="10.00">IndicatorInterface</text>
<text xml:space="preserve" text-anchor="middle" x="316.38" y="-5.75" font-family="Helvetica,sans-Serif" font-size="10.00">::_updateState</text>
</a>
</g>
</g>
<!-- Node4&#45;&gt;Node5 -->
<g id="edge4_Node000004_Node000005" class="edge">
<title>Node4&#45;&gt;Node5</title>
<g id="a_edge4_Node000004_Node000005"><a xlink:title=" ">
<path fill="none" stroke="#63b8ff" d="M227.24,-15.25C237.44,-15.25 248.4,-15.25 259,-15.25"/>
<polygon fill="#63b8ff" stroke="#63b8ff" points="258.8,-18.75 268.8,-15.25 258.8,-11.75 258.8,-18.75"/>
</a>
</g>
</g>
<!-- Node6 -->
<g id="Node000006" class="node">
<title>Node6</title>
<g id="a_Node000006"><a xlink:href="$class_indicator_interface.html#aad7f389062d31610e8b0d01e6c75413e" xlink:title="Read raw state from PCF8575.">
<polygon fill="white" stroke="#666666" points="490,-30.5 398.25,-30.5 398.25,0 490,0 490,-30.5"/>
<text xml:space="preserve" text-anchor="start" x="406.25" y="-17" font-family="Helvetica,sans-Serif" font-size="10.00">IndicatorInterface</text>
<text xml:space="preserve" text-anchor="middle" x="444.12" y="-5.75" font-family="Helvetica,sans-Serif" font-size="10.00">::_readPCF</text>
</a>
</g>
</g>
<!-- Node5&#45;&gt;Node6 -->
<g id="edge5_Node000005_Node000006" class="edge">
<title>Node5&#45;&gt;Node6</title>
<g id="a_edge5_Node000005_Node000006"><a xlink:title=" ">
<path fill="none" stroke="#63b8ff" d="M362.42,-15.25C370.27,-15.25 378.53,-15.25 386.65,-15.25"/>
<polygon fill="#63b8ff" stroke="#63b8ff" points="386.46,-18.75 396.46,-15.25 386.46,-11.75 386.46,-18.75"/>
</a>
</g>
</g>
</g>
</svg>
