<?xml version="1.0" encoding="UTF-8" standalone="no"?>
<!DOCTYPE svg PUBLIC "-//W3C//DTD SVG 1.1//EN"
 "http://www.w3.org/Graphics/SVG/1.1/DTD/svg11.dtd">
<!-- Generated by graphviz version 13.1.0 (20250701.0955)
 -->
<!-- Title: CSVConfigManager::_parseAlarmFromCSV Pages: 1 -->
<svg width="411pt" height="162pt"
 viewBox="0.00 0.00 411.00 162.00" xmlns="http://www.w3.org/2000/svg" xmlns:xlink="http://www.w3.org/1999/xlink">
<g id="graph0" class="graph" transform="scale(1 1) rotate(0) translate(4 157.88)">
<title>CSVConfigManager::_parseAlarmFromCSV</title>
<!-- Node1 -->
<g id="Node000001" class="node">
<title>Node1</title>
<g id="a_Node000001"><a xlink:title="Parse alarm configuration from CSV fields.">
<polygon fill="#999999" stroke="#666666" points="114.25,-82.88 0,-82.88 0,-52.38 114.25,-52.38 114.25,-82.88"/>
<text xml:space="preserve" text-anchor="start" x="8" y="-69.38" font-family="Helvetica,sans-Serif" font-size="10.00">CSVConfigManager::</text>
<text xml:space="preserve" text-anchor="middle" x="57.12" y="-58.12" font-family="Helvetica,sans-Serif" font-size="10.00">_parseAlarmFromCSV</text>
</a>
</g>
</g>
<!-- Node2 -->
<g id="Node000002" class="node">
<title>Node2</title>
<g id="a_Node000002"><a xlink:href="class_c_s_v_config_manager.html#aafeae1c990b637d6bfc59cb22d822620" target="_top" xlink:title="Parse alarm type string to enum.">
<polygon fill="white" stroke="#666666" points="259.25,-153.88 150.25,-153.88 150.25,-123.38 259.25,-123.38 259.25,-153.88"/>
<text xml:space="preserve" text-anchor="start" x="158.25" y="-140.38" font-family="Helvetica,sans-Serif" font-size="10.00">CSVConfigManager::</text>
<text xml:space="preserve" text-anchor="middle" x="204.75" y="-129.12" font-family="Helvetica,sans-Serif" font-size="10.00">_parseAlarmType</text>
</a>
</g>
</g>
<!-- Node1&#45;&gt;Node2 -->
<g id="edge1_Node000001_Node000002" class="edge">
<title>Node1&#45;&gt;Node2</title>
<g id="a_edge1_Node000001_Node000002"><a xlink:title=" ">
<path fill="none" stroke="#63b8ff" d="M89.16,-83.37C106.98,-92.35 129.81,-103.75 150.25,-113.62 153.29,-115.09 156.43,-116.6 159.6,-118.11"/>
<polygon fill="#63b8ff" stroke="#63b8ff" points="157.82,-121.13 168.36,-122.24 160.81,-114.8 157.82,-121.13"/>
</a>
</g>
</g>
<!-- Node3 -->
<g id="Node000003" class="node">
<title>Node3</title>
<g id="a_Node000003"><a xlink:href="class_c_s_v_config_manager.html#a99faac6c424979e035a85cb77515e092" target="_top" xlink:title="Parse priority string to enum.">
<polygon fill="white" stroke="#666666" points="259.25,-104.88 150.25,-104.88 150.25,-74.38 259.25,-74.38 259.25,-104.88"/>
<text xml:space="preserve" text-anchor="start" x="158.25" y="-91.38" font-family="Helvetica,sans-Serif" font-size="10.00">CSVConfigManager::</text>
<text xml:space="preserve" text-anchor="middle" x="204.75" y="-80.12" font-family="Helvetica,sans-Serif" font-size="10.00">_parsePriority</text>
</a>
</g>
</g>
<!-- Node1&#45;&gt;Node3 -->
<g id="edge2_Node000001_Node000003" class="edge">
<title>Node1&#45;&gt;Node3</title>
<g id="a_edge2_Node000001_Node000003"><a xlink:title=" ">
<path fill="none" stroke="#63b8ff" d="M114.43,-76.13C122.37,-77.33 130.59,-78.57 138.68,-79.79"/>
<polygon fill="#63b8ff" stroke="#63b8ff" points="138.08,-83.24 148.49,-81.28 139.13,-76.32 138.08,-83.24"/>
</a>
</g>
</g>
<!-- Node4 -->
<g id="Node000004" class="node">
<title>Node4</title>
<g id="a_Node000004"><a xlink:href="class_alarm.html#acb8f203b2e2317c1f835bb4b19123f3f" target="_top" xlink:title="Enable or disable the alarm.">
<polygon fill="white" stroke="#666666" points="252.88,-56.25 156.62,-56.25 156.62,-37 252.88,-37 252.88,-56.25"/>
<text xml:space="preserve" text-anchor="middle" x="204.75" y="-42.75" font-family="Helvetica,sans-Serif" font-size="10.00">Alarm::setEnabled</text>
</a>
</g>
</g>
<!-- Node1&#45;&gt;Node4 -->
<g id="edge3_Node000001_Node000004" class="edge">
<title>Node1&#45;&gt;Node4</title>
<g id="a_edge3_Node000001_Node000004"><a xlink:title=" ">
<path fill="none" stroke="#63b8ff" d="M114.43,-59.51C124.55,-58.05 135.11,-56.52 145.29,-55.06"/>
<polygon fill="#63b8ff" stroke="#63b8ff" points="145.68,-58.54 155.07,-53.64 144.68,-51.61 145.68,-58.54"/>
</a>
</g>
</g>
<!-- Node7 -->
<g id="Node000007" class="node">
<title>Node7</title>
<g id="a_Node000007"><a xlink:href="class_alarm.html#a8d031874090c0c0e548a1f2e41ea4979" target="_top" xlink:title="Set the hysteresis value for alarm triggering.">
<polygon fill="white" stroke="#666666" points="258.88,-19.25 150.62,-19.25 150.62,0 258.88,0 258.88,-19.25"/>
<text xml:space="preserve" text-anchor="middle" x="204.75" y="-5.75" font-family="Helvetica,sans-Serif" font-size="10.00">Alarm::setHysteresis</text>
</a>
</g>
</g>
<!-- Node1&#45;&gt;Node7 -->
<g id="edge6_Node000001_Node000007" class="edge">
<title>Node1&#45;&gt;Node7</title>
<g id="a_edge6_Node000001_Node000007"><a xlink:title=" ">
<path fill="none" stroke="#63b8ff" d="M92.4,-51.92C109.61,-44.24 130.88,-35.07 150.25,-27.62 153.88,-26.23 157.67,-24.83 161.49,-23.47"/>
<polygon fill="#63b8ff" stroke="#63b8ff" points="162.46,-26.84 170.76,-20.24 160.16,-20.22 162.46,-26.84"/>
</a>
</g>
</g>
<!-- Node5 -->
<g id="Node000005" class="node">
<title>Node5</title>
<g id="a_Node000005"><a xlink:href="class_alarm.html#abd578ec75a5ac9bce00b7ce7207c5d8c" target="_top" xlink:title="Get alarm type as string.">
<polygon fill="white" stroke="#666666" points="402.75,-56.25 295.25,-56.25 295.25,-37 402.75,-37 402.75,-56.25"/>
<text xml:space="preserve" text-anchor="middle" x="349" y="-42.75" font-family="Helvetica,sans-Serif" font-size="10.00">Alarm::getTypeString</text>
</a>
</g>
</g>
<!-- Node4&#45;&gt;Node5 -->
<g id="edge4_Node000004_Node000005" class="edge">
<title>Node4&#45;&gt;Node5</title>
<g id="a_edge4_Node000004_Node000005"><a xlink:title=" ">
<path fill="none" stroke="#63b8ff" d="M253.12,-46.62C262.87,-46.62 273.29,-46.62 283.52,-46.62"/>
<polygon fill="#63b8ff" stroke="#63b8ff" points="283.44,-50.13 293.44,-46.63 283.44,-43.13 283.44,-50.13"/>
</a>
</g>
</g>
<!-- Node6 -->
<g id="Node000006" class="node">
<title>Node6</title>
<g id="a_Node000006"><a xlink:href="class_logger_manager.html#a5c1373ccc47f4112b596fe6f84fbbc21" target="_top" xlink:title="Log informational message (static convenience method)">
<polygon fill="white" stroke="#666666" points="401.25,-19.25 296.75,-19.25 296.75,0 401.25,0 401.25,-19.25"/>
<text xml:space="preserve" text-anchor="middle" x="349" y="-5.75" font-family="Helvetica,sans-Serif" font-size="10.00">LoggerManager::info</text>
</a>
</g>
</g>
<!-- Node4&#45;&gt;Node6 -->
<g id="edge5_Node000004_Node000006" class="edge">
<title>Node4&#45;&gt;Node6</title>
<g id="a_edge5_Node000004_Node000006"><a xlink:title=" ">
<path fill="none" stroke="#63b8ff" d="M244.62,-36.51C261.24,-32.19 280.85,-27.09 298.49,-22.5"/>
<polygon fill="#63b8ff" stroke="#63b8ff" points="298.91,-26.01 307.71,-20.1 297.15,-19.23 298.91,-26.01"/>
</a>
</g>
</g>
<!-- Node7&#45;&gt;Node5 -->
<g id="edge7_Node000007_Node000005" class="edge">
<title>Node7&#45;&gt;Node5</title>
<g id="a_edge7_Node000007_Node000005"><a xlink:title=" ">
<path fill="none" stroke="#63b8ff" d="M244.62,-19.74C261.24,-24.06 280.85,-29.16 298.49,-33.75"/>
<polygon fill="#63b8ff" stroke="#63b8ff" points="297.15,-37.02 307.71,-36.15 298.91,-30.24 297.15,-37.02"/>
</a>
</g>
</g>
<!-- Node7&#45;&gt;Node6 -->
<g id="edge8_Node000007_Node000006" class="edge">
<title>Node7&#45;&gt;Node6</title>
<g id="a_edge8_Node000007_Node000006"><a xlink:title=" ">
<path fill="none" stroke="#63b8ff" d="M259.12,-9.62C267.67,-9.62 276.59,-9.62 285.34,-9.62"/>
<polygon fill="#63b8ff" stroke="#63b8ff" points="285.17,-13.13 295.17,-9.63 285.17,-6.13 285.17,-13.13"/>
</a>
</g>
</g>
</g>
</svg>
