<?xml version="1.0" encoding="UTF-8" standalone="no"?>
<!DOCTYPE svg PUBLIC "-//W3C//DTD SVG 1.1//EN"
 "http://www.w3.org/Graphics/SVG/1.1/DTD/svg11.dtd">
<!-- Generated by graphviz version 13.1.0 (20250701.0955)
 -->
<!-- Title: TimeManager::getTimeJSON Pages: 1 -->
<svg width="541pt" height="221pt"
 viewBox="0.00 0.00 541.00 221.00" xmlns="http://www.w3.org/2000/svg" xmlns:xlink="http://www.w3.org/1999/xlink">
<g id="graph0" class="graph" transform="scale(1 1) rotate(0) translate(4 217.33)">
<title>TimeManager::getTimeJSON</title>
<!-- Node1 -->
<g id="Node000001" class="node">
<title>Node1</title>
<g id="a_Node000001"><a xlink:title=" ">
<polygon fill="#999999" stroke="#666666" points="143.5,-134.88 0,-134.88 0,-115.62 143.5,-115.62 143.5,-134.88"/>
<text xml:space="preserve" text-anchor="middle" x="71.75" y="-121.38" font-family="Helvetica,sans-Serif" font-size="10.00">TimeManager::getTimeJSON</text>
</a>
</g>
</g>
<!-- Node2 -->
<g id="Node000002" class="node">
<title>Node2</title>
<g id="a_Node000002"><a xlink:href="class_time_manager.html#a2667b0243b7db24b3055c2b00e2837ba" target="_top" xlink:title=" ">
<polygon fill="white" stroke="#666666" points="529.12,-190.88 380.38,-190.88 380.38,-171.62 529.12,-171.62 529.12,-190.88"/>
<text xml:space="preserve" text-anchor="middle" x="454.75" y="-177.38" font-family="Helvetica,sans-Serif" font-size="10.00">TimeManager::getCurrentTime</text>
</a>
</g>
</g>
<!-- Node1&#45;&gt;Node2 -->
<g id="edge1_Node000001_Node000002" class="edge">
<title>Node1&#45;&gt;Node2</title>
<g id="a_edge1_Node000001_Node000002"><a xlink:title=" ">
<path fill="none" stroke="#63b8ff" d="M82.47,-135.32C99.95,-152.62 138.68,-187.34 179.5,-200.25 257.62,-224.95 354.3,-207.98 409.51,-194.12"/>
<polygon fill="#63b8ff" stroke="#63b8ff" points="410.05,-197.59 418.85,-191.69 408.29,-190.82 410.05,-197.59"/>
</a>
</g>
</g>
<!-- Node3 -->
<g id="Node000003" class="node">
<title>Node3</title>
<g id="a_Node000003"><a xlink:href="class_time_manager.html#a558c17fb7adf5fe7556a7052c971d99f" target="_top" xlink:title=" ">
<polygon fill="white" stroke="#666666" points="330.5,-190.88 189.25,-190.88 189.25,-171.62 330.5,-171.62 330.5,-190.88"/>
<text xml:space="preserve" text-anchor="middle" x="259.88" y="-177.38" font-family="Helvetica,sans-Serif" font-size="10.00">TimeManager::getDateString</text>
</a>
</g>
</g>
<!-- Node1&#45;&gt;Node3 -->
<g id="edge2_Node000001_Node000003" class="edge">
<title>Node1&#45;&gt;Node3</title>
<g id="a_edge2_Node000001_Node000003"><a xlink:title=" ">
<path fill="none" stroke="#63b8ff" d="M98.35,-135.33C119.81,-143.55 151.35,-155.08 179.5,-163.25 185.85,-165.09 192.52,-166.86 199.2,-168.52"/>
<polygon fill="#63b8ff" stroke="#63b8ff" points="198.36,-171.92 208.9,-170.86 199.99,-165.12 198.36,-171.92"/>
</a>
</g>
</g>
<!-- Node5 -->
<g id="Node000005" class="node">
<title>Node5</title>
<g id="a_Node000005"><a xlink:href="class_time_manager.html#a06dd5ab29990377c81538d99ba7ccf31" target="_top" xlink:title=" ">
<polygon fill="white" stroke="#666666" points="340.25,-153.88 179.5,-153.88 179.5,-134.62 340.25,-134.62 340.25,-153.88"/>
<text xml:space="preserve" text-anchor="middle" x="259.88" y="-140.38" font-family="Helvetica,sans-Serif" font-size="10.00">TimeManager::getFormattedTime</text>
</a>
</g>
</g>
<!-- Node1&#45;&gt;Node5 -->
<g id="edge5_Node000001_Node000005" class="edge">
<title>Node1&#45;&gt;Node5</title>
<g id="a_edge5_Node000001_Node000005"><a xlink:title=" ">
<path fill="none" stroke="#63b8ff" d="M143.91,-132.51C151.72,-133.31 159.76,-134.13 167.77,-134.95"/>
<polygon fill="#63b8ff" stroke="#63b8ff" points="167.25,-138.41 177.55,-135.95 167.96,-131.45 167.25,-138.41"/>
</a>
</g>
</g>
<!-- Node6 -->
<g id="Node000006" class="node">
<title>Node6</title>
<g id="a_Node000006"><a xlink:href="class_time_manager.html#aea04045a244a479fed907fd05d64d100" target="_top" xlink:title=" ">
<polygon fill="white" stroke="#666666" points="330.88,-116.88 188.88,-116.88 188.88,-97.62 330.88,-97.62 330.88,-116.88"/>
<text xml:space="preserve" text-anchor="middle" x="259.88" y="-103.38" font-family="Helvetica,sans-Serif" font-size="10.00">TimeManager::getTimeString</text>
</a>
</g>
</g>
<!-- Node1&#45;&gt;Node6 -->
<g id="edge8_Node000001_Node000006" class="edge">
<title>Node1&#45;&gt;Node6</title>
<g id="a_edge8_Node000001_Node000006"><a xlink:title=" ">
<path fill="none" stroke="#63b8ff" d="M143.91,-118.37C154.8,-117.31 166.12,-116.22 177.22,-115.15"/>
<polygon fill="#63b8ff" stroke="#63b8ff" points="177.55,-118.63 187.17,-114.18 176.88,-111.66 177.55,-118.63"/>
</a>
</g>
</g>
<!-- Node7 -->
<g id="Node000007" class="node">
<title>Node7</title>
<g id="a_Node000007"><a xlink:href="class_time_manager.html#a850a0272030e42056077934b4e5dcd9c" target="_top" xlink:title=" ">
<polygon fill="white" stroke="#666666" points="328.62,-79.5 191.12,-79.5 191.12,-49 328.62,-49 328.62,-79.5"/>
<text xml:space="preserve" text-anchor="start" x="199.12" y="-66" font-family="Helvetica,sans-Serif" font-size="10.00">TimeManager::getTimezone</text>
<text xml:space="preserve" text-anchor="middle" x="259.88" y="-54.75" font-family="Helvetica,sans-Serif" font-size="10.00">Hours</text>
</a>
</g>
</g>
<!-- Node1&#45;&gt;Node7 -->
<g id="edge11_Node000001_Node000007" class="edge">
<title>Node1&#45;&gt;Node7</title>
<g id="a_edge11_Node000001_Node000007"><a xlink:title=" ">
<path fill="none" stroke="#63b8ff" d="M100.74,-115.2C122.21,-107.58 152.63,-96.96 179.5,-88.25 184.54,-86.61 189.77,-84.95 195.04,-83.31"/>
<polygon fill="#63b8ff" stroke="#63b8ff" points="195.88,-86.71 204.39,-80.41 193.81,-80.03 195.88,-86.71"/>
</a>
</g>
</g>
<!-- Node8 -->
<g id="Node000008" class="node">
<title>Node8</title>
<g id="a_Node000008"><a xlink:href="class_time_manager.html#ae587839d07c8a9bed0eb2870ba94d48d" target="_top" xlink:title=" ">
<polygon fill="white" stroke="#666666" points="328.62,-30.5 191.12,-30.5 191.12,0 328.62,0 328.62,-30.5"/>
<text xml:space="preserve" text-anchor="start" x="199.12" y="-17" font-family="Helvetica,sans-Serif" font-size="10.00">TimeManager::getTimezone</text>
<text xml:space="preserve" text-anchor="middle" x="259.88" y="-5.75" font-family="Helvetica,sans-Serif" font-size="10.00">Minutes</text>
</a>
</g>
</g>
<!-- Node1&#45;&gt;Node8 -->
<g id="edge12_Node000001_Node000008" class="edge">
<title>Node1&#45;&gt;Node8</title>
<g id="a_edge12_Node000001_Node000008"><a xlink:title=" ">
<path fill="none" stroke="#63b8ff" d="M82.74,-115.15C100.62,-97.58 139.97,-61.27 179.5,-40.25 182.92,-38.43 186.49,-36.72 190.15,-35.11"/>
<polygon fill="#63b8ff" stroke="#63b8ff" points="191.28,-38.43 199.23,-31.42 188.65,-31.95 191.28,-38.43"/>
</a>
</g>
</g>
<!-- Node3&#45;&gt;Node2 -->
<g id="edge4_Node000003_Node000002" class="edge">
<title>Node3&#45;&gt;Node2</title>
<g id="a_edge4_Node000003_Node000002"><a xlink:title=" ">
<path fill="none" stroke="#63b8ff" d="M330.78,-181.25C343.2,-181.25 356.27,-181.25 369.05,-181.25"/>
<polygon fill="#63b8ff" stroke="#63b8ff" points="368.67,-184.75 378.67,-181.25 368.67,-177.75 368.67,-184.75"/>
</a>
</g>
</g>
<!-- Node4 -->
<g id="Node000004" class="node">
<title>Node4</title>
<g id="a_Node000004"><a xlink:href="class_time_manager.html#abcaf17b6da72a3a2f2566d940ce5ce8d" target="_top" xlink:title=" ">
<polygon fill="white" stroke="#666666" points="533.25,-153.88 376.25,-153.88 376.25,-134.62 533.25,-134.62 533.25,-153.88"/>
<text xml:space="preserve" text-anchor="middle" x="454.75" y="-140.38" font-family="Helvetica,sans-Serif" font-size="10.00">TimeManager::_formatDateTime</text>
</a>
</g>
</g>
<!-- Node3&#45;&gt;Node4 -->
<g id="edge3_Node000003_Node000004" class="edge">
<title>Node3&#45;&gt;Node4</title>
<g id="a_edge3_Node000003_Node000004"><a xlink:title=" ">
<path fill="none" stroke="#63b8ff" d="M313.58,-171.14C337.18,-166.61 365.21,-161.23 389.99,-156.48"/>
<polygon fill="#63b8ff" stroke="#63b8ff" points="390.46,-159.95 399.62,-154.63 389.14,-153.08 390.46,-159.95"/>
</a>
</g>
</g>
<!-- Node5&#45;&gt;Node2 -->
<g id="edge7_Node000005_Node000002" class="edge">
<title>Node5&#45;&gt;Node2</title>
<g id="a_edge7_Node000005_Node000002"><a xlink:title=" ">
<path fill="none" stroke="#63b8ff" d="M313.58,-154.36C337.18,-158.89 365.21,-164.27 389.99,-169.02"/>
<polygon fill="#63b8ff" stroke="#63b8ff" points="389.14,-172.42 399.62,-170.87 390.46,-165.55 389.14,-172.42"/>
</a>
</g>
</g>
<!-- Node5&#45;&gt;Node4 -->
<g id="edge6_Node000005_Node000004" class="edge">
<title>Node5&#45;&gt;Node4</title>
<g id="a_edge6_Node000005_Node000004"><a xlink:title=" ">
<path fill="none" stroke="#63b8ff" d="M340.72,-144.25C348.52,-144.25 356.46,-144.25 364.35,-144.25"/>
<polygon fill="#63b8ff" stroke="#63b8ff" points="364.32,-147.75 374.32,-144.25 364.32,-140.75 364.32,-147.75"/>
</a>
</g>
</g>
<!-- Node6&#45;&gt;Node2 -->
<g id="edge10_Node000006_Node000002" class="edge">
<title>Node6&#45;&gt;Node2</title>
<g id="a_edge10_Node000006_Node000002"><a xlink:title=" ">
<path fill="none" stroke="#63b8ff" d="M322.49,-117.36C328.69,-119.51 334.72,-122.1 340.25,-125.25 360.47,-136.76 356.06,-151.68 376.25,-163.25 378.58,-164.58 380.99,-165.82 383.48,-166.96"/>
<polygon fill="#63b8ff" stroke="#63b8ff" points="382,-170.14 392.58,-170.6 384.6,-163.64 382,-170.14"/>
</a>
</g>
</g>
<!-- Node6&#45;&gt;Node4 -->
<g id="edge9_Node000006_Node000004" class="edge">
<title>Node6&#45;&gt;Node4</title>
<g id="a_edge9_Node000006_Node000004"><a xlink:title=" ">
<path fill="none" stroke="#63b8ff" d="M313.58,-117.36C337.18,-121.89 365.21,-127.27 389.99,-132.02"/>
<polygon fill="#63b8ff" stroke="#63b8ff" points="389.14,-135.42 399.62,-133.87 390.46,-128.55 389.14,-135.42"/>
</a>
</g>
</g>
</g>
</svg>
