<?xml version="1.0" encoding="UTF-8" standalone="no"?>
<!DOCTYPE svg PUBLIC "-//W3C//DTD SVG 1.1//EN"
 "http://www.w3.org/Graphics/SVG/1.1/DTD/svg11.dtd">
<!-- Generated by graphviz version 13.1.0 (20250701.0955)
 -->
<!-- Title: ConfigManager::downloadAPI Pages: 1 -->
<svg width="555pt" height="199pt"
 viewBox="0.00 0.00 555.00 199.00" xmlns="http://www.w3.org/2000/svg" xmlns:xlink="http://www.w3.org/1999/xlink">
<g id="graph0" class="graph" transform="scale(1 1) rotate(0) translate(4 194.88)">
<title>ConfigManager::downloadAPI</title>
<!-- Node1 -->
<g id="Node000001" class="node">
<title>Node1</title>
<g id="a_Node000001"><a xlink:title="Setup file download API endpoints.">
<polygon fill="#999999" stroke="#666666" points="145.75,-93.25 0,-93.25 0,-74 145.75,-74 145.75,-93.25"/>
<text xml:space="preserve" text-anchor="middle" x="72.88" y="-79.75" font-family="Helvetica,sans-Serif" font-size="10.00">ConfigManager::downloadAPI</text>
</a>
</g>
</g>
<!-- Node2 -->
<g id="Node000002" class="node">
<title>Node2</title>
<g id="a_Node000002"><a xlink:href="$class_logger_manager.html#a19e6a7d2c3ad2b1d3fa5acb578fb1619" xlink:title=" ">
<polygon fill="white" stroke="#666666" points="332.75,-190.88 181.75,-190.88 181.75,-160.38 332.75,-160.38 332.75,-190.88"/>
<text xml:space="preserve" text-anchor="start" x="189.75" y="-177.38" font-family="Helvetica,sans-Serif" font-size="10.00">LoggerManager::getAlarmState</text>
<text xml:space="preserve" text-anchor="middle" x="257.25" y="-166.12" font-family="Helvetica,sans-Serif" font-size="10.00">LogFiles</text>
</a>
</g>
</g>
<!-- Node1&#45;&gt;Node2 -->
<g id="edge1_Node000001_Node000002" class="edge">
<title>Node1&#45;&gt;Node2</title>
<g id="a_edge1_Node000001_Node000002"><a xlink:title=" ">
<path fill="none" stroke="#63b8ff" d="M87.59,-93.6C107.53,-107.76 146.04,-133.82 181.75,-150.62 185.67,-152.47 189.75,-154.24 193.91,-155.92"/>
<polygon fill="#63b8ff" stroke="#63b8ff" points="192.34,-159.07 202.93,-159.39 194.85,-152.53 192.34,-159.07"/>
</a>
</g>
</g>
<!-- Node3 -->
<g id="Node000003" class="node">
<title>Node3</title>
<g id="a_Node000003"><a xlink:href="$class_logger_manager.html#a782a868803b4e2861169796aad7b8b60" xlink:title=" ">
<polygon fill="white" stroke="#666666" points="329,-141.88 185.5,-141.88 185.5,-111.38 329,-111.38 329,-141.88"/>
<text xml:space="preserve" text-anchor="start" x="193.5" y="-128.38" font-family="Helvetica,sans-Serif" font-size="10.00">LoggerManager::getEventLog</text>
<text xml:space="preserve" text-anchor="middle" x="257.25" y="-117.12" font-family="Helvetica,sans-Serif" font-size="10.00">FilesStatic</text>
</a>
</g>
</g>
<!-- Node1&#45;&gt;Node3 -->
<g id="edge2_Node000001_Node000003" class="edge">
<title>Node1&#45;&gt;Node3</title>
<g id="a_edge2_Node000001_Node000003"><a xlink:title=" ">
<path fill="none" stroke="#63b8ff" d="M116.63,-93.71C135.1,-98.06 157.31,-103.3 178.52,-108.3"/>
<polygon fill="#63b8ff" stroke="#63b8ff" points="177.48,-111.65 188.02,-110.54 179.09,-104.84 177.48,-111.65"/>
</a>
</g>
</g>
<!-- Node4 -->
<g id="Node000004" class="node">
<title>Node4</title>
<g id="a_Node000004"><a xlink:href="$class_logger_manager.html#acb4313c65e6a661229f2c3d662f1c059" xlink:title=" ">
<polygon fill="white" stroke="#666666" points="324.5,-93.25 190,-93.25 190,-74 324.5,-74 324.5,-93.25"/>
<text xml:space="preserve" text-anchor="middle" x="257.25" y="-79.75" font-family="Helvetica,sans-Serif" font-size="10.00">LoggerManager::getFileInfo</text>
</a>
</g>
</g>
<!-- Node1&#45;&gt;Node4 -->
<g id="edge3_Node000001_Node000004" class="edge">
<title>Node1&#45;&gt;Node4</title>
<g id="a_edge3_Node000001_Node000004"><a xlink:title=" ">
<path fill="none" stroke="#63b8ff" d="M146.22,-83.62C156.73,-83.62 167.6,-83.62 178.22,-83.62"/>
<polygon fill="#63b8ff" stroke="#63b8ff" points="178.11,-87.13 188.11,-83.63 178.11,-80.13 178.11,-87.13"/>
</a>
</g>
</g>
<!-- Node6 -->
<g id="Node000006" class="node">
<title>Node6</title>
<g id="a_Node000006"><a xlink:href="$class_logger_manager.html#a2b670504d6ebd0c2c2f833caed6842d5" xlink:title=" ">
<polygon fill="white" stroke="#666666" points="326.75,-56.25 187.75,-56.25 187.75,-37 326.75,-37 326.75,-56.25"/>
<text xml:space="preserve" text-anchor="middle" x="257.25" y="-42.75" font-family="Helvetica,sans-Serif" font-size="10.00">LoggerManager::getLogFiles</text>
</a>
</g>
</g>
<!-- Node1&#45;&gt;Node6 -->
<g id="edge5_Node000001_Node000006" class="edge">
<title>Node1&#45;&gt;Node6</title>
<g id="a_edge5_Node000001_Node000006"><a xlink:title=" ">
<path fill="none" stroke="#63b8ff" d="M123.71,-73.51C145.82,-69.03 172.06,-63.71 195.32,-58.99"/>
<polygon fill="#63b8ff" stroke="#63b8ff" points="195.89,-62.44 204.99,-57.02 194.5,-55.58 195.89,-62.44"/>
</a>
</g>
</g>
<!-- Node7 -->
<g id="Node000007" class="node">
<title>Node7</title>
<g id="a_Node000007"><a xlink:href="$class_logger_manager.html#a92719154d919a9bd45a8ea192e70dfcc" xlink:title=" ">
<polygon fill="white" stroke="#666666" points="327.88,-19.25 186.62,-19.25 186.62,0 327.88,0 327.88,-19.25"/>
<text xml:space="preserve" text-anchor="middle" x="257.25" y="-5.75" font-family="Helvetica,sans-Serif" font-size="10.00">LoggerManager::openLogFile</text>
</a>
</g>
</g>
<!-- Node1&#45;&gt;Node7 -->
<g id="edge6_Node000001_Node000007" class="edge">
<title>Node1&#45;&gt;Node7</title>
<g id="a_edge6_Node000001_Node000007"><a xlink:title=" ">
<path fill="none" stroke="#63b8ff" d="M90.12,-73.6C110.74,-61.25 147.76,-40.34 181.75,-27.62 186.43,-25.87 191.35,-24.25 196.32,-22.75"/>
<polygon fill="#63b8ff" stroke="#63b8ff" points="197.11,-26.16 205.79,-20.08 195.22,-19.42 197.11,-26.16"/>
</a>
</g>
</g>
<!-- Node5 -->
<g id="Node000005" class="node">
<title>Node5</title>
<g id="a_Node000005"><a xlink:href="$class_logger_manager.html#a72c969cc82b969c4899dc4d2c8280f0b" xlink:title=" ">
<polygon fill="white" stroke="#666666" points="546.75,-56.25 368.75,-56.25 368.75,-37 546.75,-37 546.75,-56.25"/>
<text xml:space="preserve" text-anchor="middle" x="457.75" y="-42.75" font-family="Helvetica,sans-Serif" font-size="10.00">LoggerManager::getLogDirectoryPath</text>
</a>
</g>
</g>
<!-- Node4&#45;&gt;Node5 -->
<g id="edge4_Node000004_Node000005" class="edge">
<title>Node4&#45;&gt;Node5</title>
<g id="a_edge4_Node000004_Node000005"><a xlink:title=" ">
<path fill="none" stroke="#63b8ff" d="M312.49,-73.51C336.89,-68.97 365.89,-63.56 391.47,-58.79"/>
<polygon fill="#63b8ff" stroke="#63b8ff" points="391.9,-62.27 401.09,-57 390.61,-55.39 391.9,-62.27"/>
</a>
</g>
</g>
<!-- Node7&#45;&gt;Node5 -->
<g id="edge7_Node000007_Node000005" class="edge">
<title>Node7&#45;&gt;Node5</title>
<g id="a_edge7_Node000007_Node000005"><a xlink:title=" ">
<path fill="none" stroke="#63b8ff" d="M312.49,-19.74C336.89,-24.28 365.89,-29.69 391.47,-34.46"/>
<polygon fill="#63b8ff" stroke="#63b8ff" points="390.61,-37.86 401.09,-36.25 391.9,-30.98 390.61,-37.86"/>
</a>
</g>
</g>
</g>
</svg>
