<?xml version="1.0" encoding="UTF-8" standalone="no"?>
<!DOCTYPE svg PUBLIC "-//W3C//DTD SVG 1.1//EN"
 "http://www.w3.org/Graphics/SVG/1.1/DTD/svg11.dtd">
<!-- Generated by graphviz version 13.1.0 (20250701.0955)
 -->
<!-- Title: TemperatureController::bindSensorToPointByBusNumber Pages: 1 -->
<svg width="562pt" height="199pt"
 viewBox="0.00 0.00 562.00 199.00" xmlns="http://www.w3.org/2000/svg" xmlns:xlink="http://www.w3.org/1999/xlink">
<g id="graph0" class="graph" transform="scale(1 1) rotate(0) translate(4 194.88)">
<title>TemperatureController::bindSensorToPointByBusNumber</title>
<!-- Node1 -->
<g id="Node000001" class="node">
<title>Node1</title>
<g id="a_Node000001"><a xlink:title="Bind sensor to measurement point by bus number.">
<polygon fill="#999999" stroke="#666666" points="167.5,-116.88 0,-116.88 0,-86.38 167.5,-86.38 167.5,-116.88"/>
<text xml:space="preserve" text-anchor="start" x="8" y="-103.38" font-family="Helvetica,sans-Serif" font-size="10.00">TemperatureController</text>
<text xml:space="preserve" text-anchor="middle" x="83.75" y="-92.12" font-family="Helvetica,sans-Serif" font-size="10.00">::bindSensorToPointByBusNumber</text>
</a>
</g>
</g>
<!-- Node2 -->
<g id="Node000002" class="node">
<title>Node2</title>
<g id="a_Node000002"><a xlink:href="class_measurement_point.html#a3c3af28d9aabc9e5b9e2e370eaa29ce0" target="_top" xlink:title="Bind a physical sensor to this measurement point.">
<polygon fill="white" stroke="#666666" points="356,-179.25 203.5,-179.25 203.5,-160 356,-160 356,-179.25"/>
<text xml:space="preserve" text-anchor="middle" x="279.75" y="-165.75" font-family="Helvetica,sans-Serif" font-size="10.00">MeasurementPoint::bindSensor</text>
</a>
</g>
</g>
<!-- Node1&#45;&gt;Node2 -->
<g id="edge1_Node000001_Node000002" class="edge">
<title>Node1&#45;&gt;Node2</title>
<g id="a_edge1_Node000001_Node000002"><a xlink:title=" ">
<path fill="none" stroke="#63b8ff" d="M119.07,-117.33C142.52,-127.67 174.49,-141.03 203.5,-150.62 209.96,-152.76 216.81,-154.8 223.63,-156.68"/>
<polygon fill="#63b8ff" stroke="#63b8ff" points="222.25,-159.94 232.81,-159.13 224.05,-153.17 222.25,-159.94"/>
</a>
</g>
</g>
<!-- Node3 -->
<g id="Node000003" class="node">
<title>Node3</title>
<g id="a_Node000003"><a xlink:href="class_temperature_controller.html#a494f057c234b4ff7526bde271aec9267" target="_top" xlink:title="Get measurement point by address.">
<polygon fill="white" stroke="#666666" points="338.38,-141.88 221.12,-141.88 221.12,-111.38 338.38,-111.38 338.38,-141.88"/>
<text xml:space="preserve" text-anchor="start" x="229.12" y="-128.38" font-family="Helvetica,sans-Serif" font-size="10.00">TemperatureController</text>
<text xml:space="preserve" text-anchor="middle" x="279.75" y="-117.12" font-family="Helvetica,sans-Serif" font-size="10.00">::getMeasurementPoint</text>
</a>
</g>
</g>
<!-- Node1&#45;&gt;Node3 -->
<g id="edge2_Node000001_Node000003" class="edge">
<title>Node1&#45;&gt;Node3</title>
<g id="a_edge2_Node000001_Node000003"><a xlink:title=" ">
<path fill="none" stroke="#63b8ff" d="M167.87,-112.34C181.77,-114.13 196.06,-115.97 209.56,-117.71"/>
<polygon fill="#63b8ff" stroke="#63b8ff" points="208.82,-121.14 219.19,-118.95 209.72,-114.2 208.82,-121.14"/>
</a>
</g>
</g>
<!-- Node6 -->
<g id="Node000006" class="node">
<title>Node6</title>
<g id="a_Node000006"><a xlink:href="class_temperature_controller.html#a01e04714a1712aa10c34276850971a12" target="_top" xlink:title="Get bus number for a sensor.">
<polygon fill="white" stroke="#666666" points="335.75,-92.88 223.75,-92.88 223.75,-62.38 335.75,-62.38 335.75,-92.88"/>
<text xml:space="preserve" text-anchor="start" x="231.75" y="-79.38" font-family="Helvetica,sans-Serif" font-size="10.00">TemperatureController</text>
<text xml:space="preserve" text-anchor="middle" x="279.75" y="-68.12" font-family="Helvetica,sans-Serif" font-size="10.00">::getSensorBus</text>
</a>
</g>
</g>
<!-- Node1&#45;&gt;Node6 -->
<g id="edge5_Node000001_Node000006" class="edge">
<title>Node1&#45;&gt;Node6</title>
<g id="a_edge5_Node000001_Node000006"><a xlink:title=" ">
<path fill="none" stroke="#63b8ff" d="M167.87,-91.34C182.64,-89.52 197.84,-87.63 212.08,-85.87"/>
<polygon fill="#63b8ff" stroke="#63b8ff" points="212.27,-89.38 221.76,-84.67 211.41,-82.43 212.27,-89.38"/>
</a>
</g>
</g>
<!-- Node10 -->
<g id="Node000010" class="node">
<title>Node10</title>
<g id="a_Node000010"><a xlink:href="class_logger_manager.html#a5c1373ccc47f4112b596fe6f84fbbc21" target="_top" xlink:title="Log informational message (static convenience method)">
<polygon fill="white" stroke="#666666" points="332,-44.25 227.5,-44.25 227.5,-25 332,-25 332,-44.25"/>
<text xml:space="preserve" text-anchor="middle" x="279.75" y="-30.75" font-family="Helvetica,sans-Serif" font-size="10.00">LoggerManager::info</text>
</a>
</g>
</g>
<!-- Node1&#45;&gt;Node10 -->
<g id="edge9_Node000001_Node000010" class="edge">
<title>Node1&#45;&gt;Node10</title>
<g id="a_edge9_Node000001_Node000010"><a xlink:title=" ">
<path fill="none" stroke="#63b8ff" d="M119.87,-85.95C143.27,-75.88 174.86,-62.98 203.5,-53.62 210.06,-51.48 217,-49.44 223.91,-47.54"/>
<polygon fill="#63b8ff" stroke="#63b8ff" points="224.46,-51.01 233.23,-45.06 222.66,-44.25 224.46,-51.01"/>
</a>
</g>
</g>
<!-- Node4 -->
<g id="Node000004" class="node">
<title>Node4</title>
<g id="a_Node000004"><a xlink:href="class_temperature_controller.html#ad322a5bab8d5788a586206004248f673" target="_top" xlink:title="Check if address is for DS18B20 sensor.">
<polygon fill="white" stroke="#666666" points="529.12,-190.88 417.12,-190.88 417.12,-160.38 529.12,-160.38 529.12,-190.88"/>
<text xml:space="preserve" text-anchor="start" x="425.12" y="-177.38" font-family="Helvetica,sans-Serif" font-size="10.00">TemperatureController</text>
<text xml:space="preserve" text-anchor="middle" x="473.12" y="-166.12" font-family="Helvetica,sans-Serif" font-size="10.00">::isDS18B20Address</text>
</a>
</g>
</g>
<!-- Node3&#45;&gt;Node4 -->
<g id="edge3_Node000003_Node000004" class="edge">
<title>Node3&#45;&gt;Node4</title>
<g id="a_edge3_Node000003_Node000004"><a xlink:title=" ">
<path fill="none" stroke="#63b8ff" d="M338.69,-141.46C359.86,-146.88 383.98,-153.06 405.82,-158.65"/>
<polygon fill="#63b8ff" stroke="#63b8ff" points="404.66,-161.96 415.21,-161.05 406.39,-155.18 404.66,-161.96"/>
</a>
</g>
</g>
<!-- Node5 -->
<g id="Node000005" class="node">
<title>Node5</title>
<g id="a_Node000005"><a xlink:href="class_temperature_controller.html#a13125ddcf29cb56d27403818543618af" target="_top" xlink:title="Check if address is for PT1000 sensor.">
<polygon fill="white" stroke="#666666" points="529.12,-141.88 417.12,-141.88 417.12,-111.38 529.12,-111.38 529.12,-141.88"/>
<text xml:space="preserve" text-anchor="start" x="425.12" y="-128.38" font-family="Helvetica,sans-Serif" font-size="10.00">TemperatureController</text>
<text xml:space="preserve" text-anchor="middle" x="473.12" y="-117.12" font-family="Helvetica,sans-Serif" font-size="10.00">::isPT1000Address</text>
</a>
</g>
</g>
<!-- Node3&#45;&gt;Node5 -->
<g id="edge4_Node000003_Node000005" class="edge">
<title>Node3&#45;&gt;Node5</title>
<g id="a_edge4_Node000003_Node000005"><a xlink:title=" ">
<path fill="none" stroke="#63b8ff" d="M338.69,-126.62C359.67,-126.62 383.54,-126.62 405.23,-126.62"/>
<polygon fill="#63b8ff" stroke="#63b8ff" points="405.17,-130.13 415.17,-126.63 405.17,-123.13 405.17,-130.13"/>
</a>
</g>
</g>
<!-- Node7 -->
<g id="Node000007" class="node">
<title>Node7</title>
<g id="a_Node000007"><a xlink:href="class_sensor.html#ac42da3a37b0d6a9622344fe83f4c9047" target="_top" xlink:title="Get OneWire bus pin.">
<polygon fill="white" stroke="#666666" points="532.5,-93.25 413.75,-93.25 413.75,-74 532.5,-74 532.5,-93.25"/>
<text xml:space="preserve" text-anchor="middle" x="473.12" y="-79.75" font-family="Helvetica,sans-Serif" font-size="10.00">Sensor::getOneWirePin</text>
</a>
</g>
</g>
<!-- Node6&#45;&gt;Node7 -->
<g id="edge6_Node000006_Node000007" class="edge">
<title>Node6&#45;&gt;Node7</title>
<g id="a_edge6_Node000006_Node000007"><a xlink:title=" ">
<path fill="none" stroke="#63b8ff" d="M336.1,-79.36C356.69,-80.01 380.32,-80.75 402.06,-81.43"/>
<polygon fill="#63b8ff" stroke="#63b8ff" points="401.94,-84.93 412.05,-81.74 402.16,-77.93 401.94,-84.93"/>
</a>
</g>
</g>
<!-- Node8 -->
<g id="Node000008" class="node">
<title>Node8</title>
<g id="a_Node000008"><a xlink:href="class_sensor.html#a6f57825e90b759ccdb9fe07b3a36953d" target="_top" xlink:title="Get PT1000 chip select pin.">
<polygon fill="white" stroke="#666666" points="554.25,-56.25 392,-56.25 392,-37 554.25,-37 554.25,-56.25"/>
<text xml:space="preserve" text-anchor="middle" x="473.12" y="-42.75" font-family="Helvetica,sans-Serif" font-size="10.00">Sensor::getPT1000ChipSelectPin</text>
</a>
</g>
</g>
<!-- Node6&#45;&gt;Node8 -->
<g id="edge7_Node000006_Node000008" class="edge">
<title>Node6&#45;&gt;Node8</title>
<g id="a_edge7_Node000006_Node000008"><a xlink:title=" ">
<path fill="none" stroke="#63b8ff" d="M336.1,-68.66C355.57,-65.51 377.76,-61.91 398.5,-58.55"/>
<polygon fill="#63b8ff" stroke="#63b8ff" points="399.03,-62.01 408.34,-56.96 397.91,-55.1 399.03,-62.01"/>
</a>
</g>
</g>
<!-- Node9 -->
<g id="Node000009" class="node">
<title>Node9</title>
<g id="a_Node000009"><a xlink:href="class_sensor.html#a0f6f095e7cfdfffb2a395dfdae7cfa53" target="_top" xlink:title="Get sensor type.">
<polygon fill="white" stroke="#666666" points="516.75,-19.25 429.5,-19.25 429.5,0 516.75,0 516.75,-19.25"/>
<text xml:space="preserve" text-anchor="middle" x="473.12" y="-5.75" font-family="Helvetica,sans-Serif" font-size="10.00">Sensor::getType</text>
</a>
</g>
</g>
<!-- Node6&#45;&gt;Node9 -->
<g id="edge8_Node000006_Node000009" class="edge">
<title>Node6&#45;&gt;Node9</title>
<g id="a_edge8_Node000006_Node000009"><a xlink:title=" ">
<path fill="none" stroke="#63b8ff" d="M336.22,-62.16C343.01,-59.62 349.76,-56.77 356,-53.62 373.62,-44.74 374,-35.73 392,-27.62 400.13,-23.96 409.08,-21.01 417.95,-18.65"/>
<polygon fill="#63b8ff" stroke="#63b8ff" points="418.72,-22.06 427.62,-16.31 417.08,-15.26 418.72,-22.06"/>
</a>
</g>
</g>
</g>
</svg>
