<?xml version="1.0" encoding="UTF-8" standalone="no"?>
<!DOCTYPE svg PUBLIC "-//W3C//DTD SVG 1.1//EN"
 "http://www.w3.org/Graphics/SVG/1.1/DTD/svg11.dtd">
<!-- Generated by graphviz version 13.1.0 (20250701.0955)
 -->
<!-- Title: LoggerManager::_ensureEventLogExists Pages: 1 -->
<svg width="647pt" height="153pt"
 viewBox="0.00 0.00 647.00 153.00" xmlns="http://www.w3.org/2000/svg" xmlns:xlink="http://www.w3.org/1999/xlink">
<g id="graph0" class="graph" transform="scale(1 1) rotate(0) translate(4 148.91)">
<title>LoggerManager::_ensureEventLogExists</title>
<!-- Node1 -->
<g id="Node000001" class="node">
<title>Node1</title>
<g id="a_Node000001"><a xlink:title=" ">
<polygon fill="#999999" stroke="#666666" points="638.5,-135.88 489.75,-135.88 489.75,-105.38 638.5,-105.38 638.5,-135.88"/>
<text xml:space="preserve" text-anchor="start" x="497.75" y="-122.38" font-family="Helvetica,sans-Serif" font-size="10.00">LoggerManager::_ensureEvent</text>
<text xml:space="preserve" text-anchor="middle" x="564.12" y="-111.12" font-family="Helvetica,sans-Serif" font-size="10.00">LogExists</text>
</a>
</g>
</g>
<!-- Node2 -->
<g id="Node000002" class="node">
<title>Node2</title>
<g id="a_Node000002"><a xlink:href="class_logger_manager.html#a59e0690d922ec968bf64b1b5dda8fcbe" target="_top" xlink:title=" ">
<polygon fill="white" stroke="#666666" points="109.75,-130.25 8.25,-130.25 8.25,-111 109.75,-111 109.75,-130.25"/>
<text xml:space="preserve" text-anchor="middle" x="59" y="-116.75" font-family="Helvetica,sans-Serif" font-size="10.00">LoggerManager::init</text>
</a>
</g>
</g>
<!-- Node1&#45;&gt;Node2 -->
<g id="edge1_Node000001_Node000002" class="edge">
<title>Node1&#45;&gt;Node2</title>
<g id="a_edge1_Node000001_Node000002"><a xlink:title=" ">
<path fill="none" stroke="#63b8ff" d="M478.04,-131.79C395.15,-140.97 265.67,-150.8 154,-139.62 136.44,-137.87 117.3,-134.31 100.91,-130.74"/>
<polygon fill="#63b8ff" stroke="#63b8ff" points="478.37,-135.28 487.91,-130.68 477.58,-128.32 478.37,-135.28"/>
</a>
</g>
</g>
<!-- Node3 -->
<g id="Node000003" class="node">
<title>Node3</title>
<g id="a_Node000003"><a xlink:href="class_logger_manager.html#a0df2f2c96123da1989d0aaf6a4dc1615" target="_top" xlink:title=" ">
<polygon fill="white" stroke="#666666" points="453.75,-93.25 326.75,-93.25 326.75,-74 453.75,-74 453.75,-93.25"/>
<text xml:space="preserve" text-anchor="middle" x="390.25" y="-79.75" font-family="Helvetica,sans-Serif" font-size="10.00">LoggerManager::logEvent</text>
</a>
</g>
</g>
<!-- Node1&#45;&gt;Node3 -->
<g id="edge2_Node000001_Node000003" class="edge">
<title>Node1&#45;&gt;Node3</title>
<g id="a_edge2_Node000001_Node000003"><a xlink:title=" ">
<path fill="none" stroke="#63b8ff" d="M479.35,-102.59C465.06,-99.51 450.7,-96.42 437.83,-93.65"/>
<polygon fill="#63b8ff" stroke="#63b8ff" points="478.24,-105.93 488.75,-104.62 479.72,-99.09 478.24,-105.93"/>
</a>
</g>
</g>
<!-- Node4 -->
<g id="Node000004" class="node">
<title>Node4</title>
<g id="a_Node000004"><a xlink:href="class_logger_manager.html#a5bda848c9bd87201bf6addd035c493b1" target="_top" xlink:title=" ">
<polygon fill="white" stroke="#666666" points="288.5,-130.25 156.25,-130.25 156.25,-111 288.5,-111 288.5,-130.25"/>
<text xml:space="preserve" text-anchor="middle" x="222.38" y="-116.75" font-family="Helvetica,sans-Serif" font-size="10.00">LoggerManager::logCritical</text>
</a>
</g>
</g>
<!-- Node3&#45;&gt;Node4 -->
<g id="edge3_Node000003_Node000004" class="edge">
<title>Node3&#45;&gt;Node4</title>
<g id="a_edge3_Node000003_Node000004"><a xlink:title=" ">
<path fill="none" stroke="#63b8ff" d="M332.91,-96.19C311.96,-100.87 288.48,-106.1 268.65,-110.53"/>
<polygon fill="#63b8ff" stroke="#63b8ff" points="333.45,-99.66 342.45,-94.06 331.92,-92.83 333.45,-99.66"/>
</a>
</g>
</g>
<!-- Node5 -->
<g id="Node000005" class="node">
<title>Node5</title>
<g id="a_Node000005"><a xlink:href="class_logger_manager.html#a181e69ea6fe3c7e07e708eada2cc8024" target="_top" xlink:title=" ">
<polygon fill="white" stroke="#666666" points="283.62,-93.25 161.12,-93.25 161.12,-74 283.62,-74 283.62,-93.25"/>
<text xml:space="preserve" text-anchor="middle" x="222.38" y="-79.75" font-family="Helvetica,sans-Serif" font-size="10.00">LoggerManager::logError</text>
</a>
</g>
</g>
<!-- Node3&#45;&gt;Node5 -->
<g id="edge4_Node000003_Node000005" class="edge">
<title>Node3&#45;&gt;Node5</title>
<g id="a_edge4_Node000003_Node000005"><a xlink:title=" ">
<path fill="none" stroke="#63b8ff" d="M315.29,-83.62C304.82,-83.62 294.16,-83.62 283.98,-83.62"/>
<polygon fill="#63b8ff" stroke="#63b8ff" points="315.03,-87.13 325.03,-83.63 315.03,-80.13 315.03,-87.13"/>
</a>
</g>
</g>
<!-- Node6 -->
<g id="Node000006" class="node">
<title>Node6</title>
<g id="a_Node000006"><a xlink:href="class_logger_manager.html#a2503703714729cc95171579fe4ce0d4c" target="_top" xlink:title=" ">
<polygon fill="white" stroke="#666666" points="281.38,-56.25 163.38,-56.25 163.38,-37 281.38,-37 281.38,-56.25"/>
<text xml:space="preserve" text-anchor="middle" x="222.38" y="-42.75" font-family="Helvetica,sans-Serif" font-size="10.00">LoggerManager::logInfo</text>
</a>
</g>
</g>
<!-- Node3&#45;&gt;Node6 -->
<g id="edge5_Node000003_Node000006" class="edge">
<title>Node3&#45;&gt;Node6</title>
<g id="a_edge5_Node000003_Node000006"><a xlink:title=" ">
<path fill="none" stroke="#63b8ff" d="M332.91,-71.06C311.96,-66.38 288.48,-61.15 268.65,-56.72"/>
<polygon fill="#63b8ff" stroke="#63b8ff" points="331.92,-74.42 342.45,-73.19 333.45,-67.59 331.92,-74.42"/>
</a>
</g>
</g>
<!-- Node9 -->
<g id="Node000009" class="node">
<title>Node9</title>
<g id="a_Node000009"><a xlink:href="class_logger_manager.html#a5768a8a1983298c5b94e23dabe18f3bb" target="_top" xlink:title=" ">
<polygon fill="white" stroke="#666666" points="290.75,-19.25 154,-19.25 154,0 290.75,0 290.75,-19.25"/>
<text xml:space="preserve" text-anchor="middle" x="222.38" y="-5.75" font-family="Helvetica,sans-Serif" font-size="10.00">LoggerManager::logWarning</text>
</a>
</g>
</g>
<!-- Node3&#45;&gt;Node9 -->
<g id="edge9_Node000003_Node000009" class="edge">
<title>Node3&#45;&gt;Node9</title>
<g id="a_edge9_Node000003_Node000009"><a xlink:title=" ">
<path fill="none" stroke="#63b8ff" d="M364.96,-67.47C345.55,-55.15 317.29,-38.5 290.75,-27.62 283.47,-24.64 275.54,-22.01 267.76,-19.75"/>
<polygon fill="#63b8ff" stroke="#63b8ff" points="362.94,-70.33 373.23,-72.82 366.73,-64.45 362.94,-70.33"/>
</a>
</g>
</g>
<!-- Node6&#45;&gt;Node2 -->
<g id="edge7_Node000006_Node000002" class="edge">
<title>Node6&#45;&gt;Node2</title>
<g id="a_edge7_Node000006_Node000002"><a xlink:title=" ">
<path fill="none" stroke="#63b8ff" d="M165.81,-60.15C161.77,-61.53 157.79,-63.03 154,-64.62 123.9,-77.32 91.81,-98.24 74,-110.6"/>
<polygon fill="#63b8ff" stroke="#63b8ff" points="166.66,-63.55 175.13,-57.19 164.54,-56.88 166.66,-63.55"/>
</a>
</g>
</g>
<!-- Node7 -->
<g id="Node000007" class="node">
<title>Node7</title>
<g id="a_Node000007"><a xlink:href="class_logger_manager.html#a4acf0149820d73f4ed11340f63706841" target="_top" xlink:title=" ">
<polygon fill="white" stroke="#666666" points="115,-56.25 3,-56.25 3,-37 115,-37 115,-56.25"/>
<text xml:space="preserve" text-anchor="middle" x="59" y="-42.75" font-family="Helvetica,sans-Serif" font-size="10.00">LoggerManager::begin</text>
</a>
</g>
</g>
<!-- Node6&#45;&gt;Node7 -->
<g id="edge6_Node000006_Node000007" class="edge">
<title>Node6&#45;&gt;Node7</title>
<g id="a_edge6_Node000006_Node000007"><a xlink:title=" ">
<path fill="none" stroke="#63b8ff" d="M151.66,-46.62C139.56,-46.62 127.13,-46.62 115.48,-46.62"/>
<polygon fill="#63b8ff" stroke="#63b8ff" points="151.6,-50.13 161.6,-46.63 151.6,-43.13 151.6,-50.13"/>
</a>
</g>
</g>
<!-- Node8 -->
<g id="Node000008" class="node">
<title>Node8</title>
<g id="a_Node000008"><a xlink:href="class_logger_manager.html#a830c86f1f27d3799eab1de908fc6b647" target="_top" xlink:title=" ">
<polygon fill="white" stroke="#666666" points="118,-19.25 0,-19.25 0,0 118,0 118,-19.25"/>
<text xml:space="preserve" text-anchor="middle" x="59" y="-5.75" font-family="Helvetica,sans-Serif" font-size="10.00">LoggerManager::update</text>
</a>
</g>
</g>
<!-- Node6&#45;&gt;Node8 -->
<g id="edge8_Node000006_Node000008" class="edge">
<title>Node6&#45;&gt;Node8</title>
<g id="a_edge8_Node000006_Node000008"><a xlink:title=" ">
<path fill="none" stroke="#63b8ff" d="M166.28,-33.99C145.97,-29.34 123.25,-24.13 104.04,-19.72"/>
<polygon fill="#63b8ff" stroke="#63b8ff" points="165.27,-37.35 175.8,-36.18 166.84,-30.53 165.27,-37.35"/>
</a>
</g>
</g>
<!-- Node9&#45;&gt;Node8 -->
<g id="edge10_Node000009_Node000008" class="edge">
<title>Node9&#45;&gt;Node8</title>
<g id="a_edge10_Node000009_Node000008"><a xlink:title=" ">
<path fill="none" stroke="#63b8ff" d="M142.42,-9.62C134.28,-9.62 126.12,-9.62 118.26,-9.62"/>
<polygon fill="#63b8ff" stroke="#63b8ff" points="142.36,-13.13 152.36,-9.63 142.36,-6.13 142.36,-13.13"/>
</a>
</g>
</g>
</g>
</svg>
