<?xml version="1.0" encoding="UTF-8" standalone="no"?>
<!DOCTYPE svg PUBLIC "-//W3C//DTD SVG 1.1//EN"
 "http://www.w3.org/Graphics/SVG/1.1/DTD/svg11.dtd">
<!-- Generated by graphviz version 13.1.0 (20250701.0955)
 -->
<!-- Title: LoggerManager::_escapeCSVField Pages: 1 -->
<svg width="897pt" height="374pt"
 viewBox="0.00 0.00 897.00 374.00" xmlns="http://www.w3.org/2000/svg" xmlns:xlink="http://www.w3.org/1999/xlink">
<g id="graph0" class="graph" transform="scale(1 1) rotate(0) translate(4 369.76)">
<title>LoggerManager::_escapeCSVField</title>
<!-- Node1 -->
<g id="Node000001" class="node">
<title>Node1</title>
<g id="a_Node000001"><a xlink:title=" ">
<polygon fill="#999999" stroke="#666666" points="889.25,-148.25 721.75,-148.25 721.75,-129 889.25,-129 889.25,-148.25"/>
<text xml:space="preserve" text-anchor="middle" x="805.5" y="-134.75" font-family="Helvetica,sans-Serif" font-size="10.00">LoggerManager::_escapeCSVField</text>
</a>
</g>
</g>
<!-- Node2 -->
<g id="Node000002" class="node">
<title>Node2</title>
<g id="a_Node000002"><a xlink:href="$class_logger_manager.html#aab43f573f73cfe426cfbea04a9fdd3ee" xlink:title=" ">
<polygon fill="white" stroke="#666666" points="671.12,-153.88 539.62,-153.88 539.62,-123.38 671.12,-123.38 671.12,-153.88"/>
<text xml:space="preserve" text-anchor="start" x="547.62" y="-140.38" font-family="Helvetica,sans-Serif" font-size="10.00">LoggerManager::_generate</text>
<text xml:space="preserve" text-anchor="middle" x="605.38" y="-129.12" font-family="Helvetica,sans-Serif" font-size="10.00">CSVHeader</text>
</a>
</g>
</g>
<!-- Node1&#45;&gt;Node2 -->
<g id="edge1_Node000001_Node000002" class="edge">
<title>Node1&#45;&gt;Node2</title>
<g id="a_edge1_Node000001_Node000002"><a xlink:title=" ">
<path fill="none" stroke="#63b8ff" d="M709.97,-138.62C696.97,-138.62 683.87,-138.62 671.56,-138.62"/>
<polygon fill="#63b8ff" stroke="#63b8ff" points="709.82,-142.13 719.82,-138.63 709.82,-135.13 709.82,-142.13"/>
</a>
</g>
</g>
<!-- Node11 -->
<g id="Node000011" class="node">
<title>Node11</title>
<g id="a_Node000011"><a xlink:href="$class_logger_manager.html#a72dc7742fbeeba07932fc5cb730c26d5" xlink:title=" ">
<polygon fill="white" stroke="#666666" points="675.62,-64.88 535.12,-64.88 535.12,-34.38 675.62,-34.38 675.62,-64.88"/>
<text xml:space="preserve" text-anchor="start" x="543.12" y="-51.38" font-family="Helvetica,sans-Serif" font-size="10.00">LoggerManager::_writeAlarm</text>
<text xml:space="preserve" text-anchor="middle" x="605.38" y="-40.12" font-family="Helvetica,sans-Serif" font-size="10.00">StateRow</text>
</a>
</g>
</g>
<!-- Node1&#45;&gt;Node11 -->
<g id="edge14_Node000001_Node000011" class="edge">
<title>Node1&#45;&gt;Node11</title>
<g id="a_edge14_Node000001_Node000011"><a xlink:title=" ">
<path fill="none" stroke="#63b8ff" d="M771.72,-123.9C735.71,-107.72 678.1,-81.85 641.27,-65.3"/>
<polygon fill="#63b8ff" stroke="#63b8ff" points="770.22,-127.06 780.78,-127.97 773.09,-120.68 770.22,-127.06"/>
</a>
</g>
</g>
<!-- Node13 -->
<g id="Node000013" class="node">
<title>Node13</title>
<g id="a_Node000013"><a xlink:href="$class_logger_manager.html#a472884ce9e2aed6a1570187dd37cc006" xlink:title=" ">
<polygon fill="white" stroke="#666666" points="685.75,-231.25 525,-231.25 525,-212 685.75,-212 685.75,-231.25"/>
<text xml:space="preserve" text-anchor="middle" x="605.38" y="-217.75" font-family="Helvetica,sans-Serif" font-size="10.00">LoggerManager::_writeEventRow</text>
</a>
</g>
</g>
<!-- Node1&#45;&gt;Node13 -->
<g id="edge16_Node000001_Node000013" class="edge">
<title>Node1&#45;&gt;Node13</title>
<g id="a_edge16_Node000001_Node000013"><a xlink:title=" ">
<path fill="none" stroke="#63b8ff" d="M770.03,-153.06C730.06,-169.81 665.21,-196.98 630.36,-211.58"/>
<polygon fill="#63b8ff" stroke="#63b8ff" points="771.33,-156.31 779.21,-149.22 768.63,-149.86 771.33,-156.31"/>
</a>
</g>
</g>
<!-- Node3 -->
<g id="Node000003" class="node">
<title>Node3</title>
<g id="a_Node000003"><a xlink:href="$class_logger_manager.html#a829c2f8dcde77d6506f1d664a291969a" xlink:title=" ">
<polygon fill="white" stroke="#666666" points="484.5,-104.88 343.25,-104.88 343.25,-74.38 484.5,-74.38 484.5,-104.88"/>
<text xml:space="preserve" text-anchor="start" x="351.25" y="-91.38" font-family="Helvetica,sans-Serif" font-size="10.00">LoggerManager::_hasHeader</text>
<text xml:space="preserve" text-anchor="middle" x="413.88" y="-80.12" font-family="Helvetica,sans-Serif" font-size="10.00">Changed</text>
</a>
</g>
</g>
<!-- Node2&#45;&gt;Node3 -->
<g id="edge2_Node000002_Node000003" class="edge">
<title>Node2&#45;&gt;Node3</title>
<g id="a_edge2_Node000002_Node000003"><a xlink:title=" ">
<path fill="none" stroke="#63b8ff" d="M532.73,-120.1C513.9,-115.23 493.79,-110.03 475.6,-105.33"/>
<polygon fill="#63b8ff" stroke="#63b8ff" points="531.61,-123.43 542.17,-122.54 533.36,-116.65 531.61,-123.43"/>
</a>
</g>
</g>
<!-- Node5 -->
<g id="Node000005" class="node">
<title>Node5</title>
<g id="a_Node000005"><a xlink:href="$class_logger_manager.html#ac7866b2b0244358be6a1cfe8d245cc7d" xlink:title=" ">
<polygon fill="white" stroke="#666666" points="302.75,-233.88 154,-233.88 154,-203.38 302.75,-203.38 302.75,-233.88"/>
<text xml:space="preserve" text-anchor="start" x="162" y="-220.38" font-family="Helvetica,sans-Serif" font-size="10.00">LoggerManager::_recoverFrom</text>
<text xml:space="preserve" text-anchor="middle" x="228.38" y="-209.12" font-family="Helvetica,sans-Serif" font-size="10.00">ExistingFiles</text>
</a>
</g>
</g>
<!-- Node2&#45;&gt;Node5 -->
<g id="edge4_Node000002_Node000005" class="edge">
<title>Node2&#45;&gt;Node5</title>
<g id="a_edge4_Node000002_Node000005"><a xlink:title=" ">
<path fill="none" stroke="#63b8ff" d="M528.37,-154.84C462.63,-168.86 368.17,-189.01 303.1,-202.9"/>
<polygon fill="#63b8ff" stroke="#63b8ff" points="528.95,-158.29 538,-152.78 527.49,-151.45 528.95,-158.29"/>
</a>
</g>
</g>
<!-- Node6 -->
<g id="Node000006" class="node">
<title>Node6</title>
<g id="a_Node000006"><a xlink:href="$class_logger_manager.html#a4acf0149820d73f4ed11340f63706841" xlink:title="Begin logging operations.">
<polygon fill="white" stroke="#666666" points="115,-326.25 3,-326.25 3,-307 115,-307 115,-326.25"/>
<text xml:space="preserve" text-anchor="middle" x="59" y="-312.75" font-family="Helvetica,sans-Serif" font-size="10.00">LoggerManager::begin</text>
</a>
</g>
</g>
<!-- Node2&#45;&gt;Node6 -->
<g id="edge10_Node000002_Node000006" class="edge">
<title>Node2&#45;&gt;Node6</title>
<g id="a_edge10_Node000002_Node000006"><a xlink:title=" ">
<path fill="none" stroke="#63b8ff" d="M570.1,-160.84C554.84,-172 537.53,-186.56 525,-202.62 501.52,-232.73 516.72,-254.37 489,-280.62 424.33,-341.88 390.23,-337.88 302.75,-354.62 237.82,-367.05 218,-371.21 154,-354.62 136.28,-350.03 134.83,-341.82 118,-334.62 111.21,-331.72 103.8,-329.06 96.61,-326.73"/>
<polygon fill="#63b8ff" stroke="#63b8ff" points="571.89,-163.86 578.04,-155.23 567.85,-158.14 571.89,-163.86"/>
</a>
</g>
</g>
<!-- Node7 -->
<g id="Node000007" class="node">
<title>Node7</title>
<g id="a_Node000007"><a xlink:href="$class_logger_manager.html#a4095daee15dce39ba5f802ea5b5661a2" xlink:title=" ">
<polygon fill="white" stroke="#666666" points="487.12,-56.25 340.62,-56.25 340.62,-37 487.12,-37 487.12,-56.25"/>
<text xml:space="preserve" text-anchor="middle" x="413.88" y="-42.75" font-family="Helvetica,sans-Serif" font-size="10.00">LoggerManager::_writeHeader</text>
</a>
</g>
</g>
<!-- Node2&#45;&gt;Node7 -->
<g id="edge7_Node000002_Node000007" class="edge">
<title>Node2&#45;&gt;Node7</title>
<g id="a_edge7_Node000002_Node000007"><a xlink:title=" ">
<path fill="none" stroke="#63b8ff" d="M574.9,-116.32C552.41,-100.22 520.09,-79.05 489,-65.62 480.95,-62.15 472.12,-59.2 463.46,-56.74"/>
<polygon fill="#63b8ff" stroke="#63b8ff" points="572.84,-119.14 582.99,-122.2 576.96,-113.48 572.84,-119.14"/>
</a>
</g>
</g>
<!-- Node9 -->
<g id="Node000009" class="node">
<title>Node9</title>
<g id="a_Node000009"><a xlink:href="$class_logger_manager.html#a445856fb9bb37bd5e61d5242d8996c1f" xlink:title=" ">
<polygon fill="white" stroke="#666666" points="481.88,-153.88 345.88,-153.88 345.88,-123.38 481.88,-123.38 481.88,-153.88"/>
<text xml:space="preserve" text-anchor="start" x="353.88" y="-140.38" font-family="Helvetica,sans-Serif" font-size="10.00">LoggerManager::createNew</text>
<text xml:space="preserve" text-anchor="middle" x="413.88" y="-129.12" font-family="Helvetica,sans-Serif" font-size="10.00">LogFile</text>
</a>
</g>
</g>
<!-- Node2&#45;&gt;Node9 -->
<g id="edge11_Node000002_Node000009" class="edge">
<title>Node2&#45;&gt;Node9</title>
<g id="a_edge11_Node000002_Node000009"><a xlink:title=" ">
<path fill="none" stroke="#63b8ff" d="M527.76,-138.62C512.66,-138.62 496.91,-138.62 482.14,-138.62"/>
<polygon fill="#63b8ff" stroke="#63b8ff" points="527.65,-142.13 537.65,-138.63 527.65,-135.13 527.65,-142.13"/>
</a>
</g>
</g>
<!-- Node4 -->
<g id="Node000004" class="node">
<title>Node4</title>
<g id="a_Node000004"><a xlink:href="$class_logger_manager.html#a830c86f1f27d3799eab1de908fc6b647" xlink:title=" ">
<polygon fill="white" stroke="#666666" points="118,-148.25 0,-148.25 0,-129 118,-129 118,-148.25"/>
<text xml:space="preserve" text-anchor="middle" x="59" y="-134.75" font-family="Helvetica,sans-Serif" font-size="10.00">LoggerManager::update</text>
</a>
</g>
</g>
<!-- Node3&#45;&gt;Node4 -->
<g id="edge3_Node000003_Node000004" class="edge">
<title>Node3&#45;&gt;Node4</title>
<g id="a_edge3_Node000003_Node000004"><a xlink:title=" ">
<path fill="none" stroke="#63b8ff" d="M331.51,-91.88C280.22,-94.37 212.82,-99.6 154,-110.62 131.41,-114.86 106.5,-122.41 88.01,-128.61"/>
<polygon fill="#63b8ff" stroke="#63b8ff" points="331.51,-95.38 341.34,-91.43 331.19,-88.39 331.51,-95.38"/>
</a>
</g>
</g>
<!-- Node5&#45;&gt;Node4 -->
<g id="edge6_Node000005_Node000004" class="edge">
<title>Node5&#45;&gt;Node4</title>
<g id="a_edge6_Node000005_Node000004"><a xlink:title=" ">
<path fill="none" stroke="#63b8ff" d="M164.18,-198.96C160.71,-197.57 157.29,-196.12 154,-194.62 124.43,-181.18 92.42,-160.71 74.43,-148.6"/>
<polygon fill="#63b8ff" stroke="#63b8ff" points="162.72,-202.15 173.31,-202.44 165.21,-195.61 162.72,-202.15"/>
</a>
</g>
</g>
<!-- Node5&#45;&gt;Node6 -->
<g id="edge5_Node000005_Node000006" class="edge">
<title>Node5&#45;&gt;Node6</title>
<g id="a_edge5_Node000005_Node000006"><a xlink:title=" ">
<path fill="none" stroke="#63b8ff" d="M161.84,-238.73C159.16,-239.97 156.53,-241.27 154,-242.62 120.31,-260.66 86.49,-291 70.13,-306.64"/>
<polygon fill="#63b8ff" stroke="#63b8ff" points="163.17,-241.97 171,-234.84 160.43,-235.53 163.17,-241.97"/>
</a>
</g>
</g>
<!-- Node8 -->
<g id="Node000008" class="node">
<title>Node8</title>
<g id="a_Node000008"><a xlink:href="$class_logger_manager.html#a32ce9f462269787130bee46b2c34b632" xlink:title=" ">
<polygon fill="white" stroke="#666666" points="299.75,-34.25 157,-34.25 157,-15 299.75,-15 299.75,-34.25"/>
<text xml:space="preserve" text-anchor="middle" x="228.38" y="-20.75" font-family="Helvetica,sans-Serif" font-size="10.00">LoggerManager::logDataNow</text>
</a>
</g>
</g>
<!-- Node7&#45;&gt;Node8 -->
<g id="edge8_Node000007_Node000008" class="edge">
<title>Node7&#45;&gt;Node8</title>
<g id="a_edge8_Node000007_Node000008"><a xlink:title=" ">
<path fill="none" stroke="#63b8ff" d="M329.09,-36.58C319.42,-35.42 309.64,-34.25 300.17,-33.11"/>
<polygon fill="#63b8ff" stroke="#63b8ff" points="328.5,-40.03 338.85,-37.75 329.34,-33.08 328.5,-40.03"/>
</a>
</g>
</g>
<!-- Node8&#45;&gt;Node4 -->
<g id="edge9_Node000008_Node000004" class="edge">
<title>Node8&#45;&gt;Node4</title>
<g id="a_edge9_Node000008_Node000004"><a xlink:title=" ">
<path fill="none" stroke="#63b8ff" d="M174.95,-38.55C167.68,-41.4 160.49,-44.74 154,-48.62 116.79,-70.92 82.52,-110.4 67.71,-128.74"/>
<polygon fill="#63b8ff" stroke="#63b8ff" points="175.94,-41.92 184.17,-35.24 173.57,-35.33 175.94,-41.92"/>
</a>
</g>
</g>
<!-- Node9&#45;&gt;Node4 -->
<g id="edge13_Node000009_Node000004" class="edge">
<title>Node9&#45;&gt;Node4</title>
<g id="a_edge13_Node000009_Node000004"><a xlink:title=" ">
<path fill="none" stroke="#63b8ff" d="M334.21,-123.37C323.67,-121.82 312.97,-120.5 302.75,-119.62 236.88,-113.98 219.78,-113.04 154,-119.62 136.44,-121.38 117.3,-124.94 100.91,-128.51"/>
<polygon fill="#63b8ff" stroke="#63b8ff" points="333.64,-126.83 344.06,-124.9 334.71,-119.91 333.64,-126.83"/>
</a>
</g>
</g>
<!-- Node10 -->
<g id="Node000010" class="node">
<title>Node10</title>
<g id="a_Node000010"><a xlink:href="$class_logger_manager.html#a32e39dd8df48f64677732ede4066f01d" xlink:title=" ">
<polygon fill="white" stroke="#666666" points="301.62,-148.25 155.12,-148.25 155.12,-129 301.62,-129 301.62,-148.25"/>
<text xml:space="preserve" text-anchor="middle" x="228.38" y="-134.75" font-family="Helvetica,sans-Serif" font-size="10.00">LoggerManager::forceNewFile</text>
</a>
</g>
</g>
<!-- Node9&#45;&gt;Node10 -->
<g id="edge12_Node000009_Node000010" class="edge">
<title>Node9&#45;&gt;Node10</title>
<g id="a_edge12_Node000009_Node000010"><a xlink:title=" ">
<path fill="none" stroke="#63b8ff" d="M334.11,-138.62C323.41,-138.62 312.48,-138.62 301.91,-138.62"/>
<polygon fill="#63b8ff" stroke="#63b8ff" points="334.07,-142.13 344.07,-138.63 334.07,-135.13 334.07,-142.13"/>
</a>
</g>
</g>
<!-- Node12 -->
<g id="Node000012" class="node">
<title>Node12</title>
<g id="a_Node000012"><a xlink:href="$class_logger_manager.html#af736040bd57412bef8981960e6df3bda" xlink:title=" ">
<polygon fill="white" stroke="#666666" points="489,-19.25 338.75,-19.25 338.75,0 489,0 489,-19.25"/>
<text xml:space="preserve" text-anchor="middle" x="413.88" y="-5.75" font-family="Helvetica,sans-Serif" font-size="10.00">LoggerManager::logAlarmState</text>
</a>
</g>
</g>
<!-- Node11&#45;&gt;Node12 -->
<g id="edge15_Node000011_Node000012" class="edge">
<title>Node11&#45;&gt;Node12</title>
<g id="a_edge15_Node000011_Node000012"><a xlink:title=" ">
<path fill="none" stroke="#63b8ff" d="M523.79,-32.62C503,-28.23 481.27,-23.64 462.75,-19.73"/>
<polygon fill="#63b8ff" stroke="#63b8ff" points="522.9,-36 533.41,-34.65 524.35,-29.16 522.9,-36"/>
</a>
</g>
</g>
<!-- Node14 -->
<g id="Node000014" class="node">
<title>Node14</title>
<g id="a_Node000014"><a xlink:href="$class_logger_manager.html#a0df2f2c96123da1989d0aaf6a4dc1615" xlink:title=" ">
<polygon fill="white" stroke="#666666" points="477.38,-271.25 350.38,-271.25 350.38,-252 477.38,-252 477.38,-271.25"/>
<text xml:space="preserve" text-anchor="middle" x="413.88" y="-257.75" font-family="Helvetica,sans-Serif" font-size="10.00">LoggerManager::logEvent</text>
</a>
</g>
</g>
<!-- Node13&#45;&gt;Node14 -->
<g id="edge17_Node000013_Node000014" class="edge">
<title>Node13&#45;&gt;Node14</title>
<g id="a_edge17_Node000013_Node000014"><a xlink:title=" ">
<path fill="none" stroke="#63b8ff" d="M545.45,-234.06C518.84,-239.68 487.81,-246.23 462.68,-251.53"/>
<polygon fill="#63b8ff" stroke="#63b8ff" points="546.01,-237.52 555.08,-232.03 544.57,-230.67 546.01,-237.52"/>
</a>
</g>
</g>
<!-- Node15 -->
<g id="Node000015" class="node">
<title>Node15</title>
<g id="a_Node000015"><a xlink:href="$class_logger_manager.html#a5bda848c9bd87201bf6addd035c493b1" xlink:title=" ">
<polygon fill="white" stroke="#666666" points="294.5,-271.25 162.25,-271.25 162.25,-252 294.5,-252 294.5,-271.25"/>
<text xml:space="preserve" text-anchor="middle" x="228.38" y="-257.75" font-family="Helvetica,sans-Serif" font-size="10.00">LoggerManager::logCritical</text>
</a>
</g>
</g>
<!-- Node14&#45;&gt;Node15 -->
<g id="edge18_Node000014_Node000015" class="edge">
<title>Node14&#45;&gt;Node15</title>
<g id="a_edge18_Node000014_Node000015"><a xlink:title=" ">
<path fill="none" stroke="#63b8ff" d="M338.57,-261.62C324.14,-261.62 309.12,-261.62 295,-261.62"/>
<polygon fill="#63b8ff" stroke="#63b8ff" points="338.47,-265.13 348.47,-261.63 338.47,-258.13 338.47,-265.13"/>
</a>
</g>
</g>
<!-- Node16 -->
<g id="Node000016" class="node">
<title>Node16</title>
<g id="a_Node000016"><a xlink:href="$class_logger_manager.html#a181e69ea6fe3c7e07e708eada2cc8024" xlink:title=" ">
<polygon fill="white" stroke="#666666" points="289.62,-308.25 167.12,-308.25 167.12,-289 289.62,-289 289.62,-308.25"/>
<text xml:space="preserve" text-anchor="middle" x="228.38" y="-294.75" font-family="Helvetica,sans-Serif" font-size="10.00">LoggerManager::logError</text>
</a>
</g>
</g>
<!-- Node14&#45;&gt;Node16 -->
<g id="edge19_Node000014_Node000016" class="edge">
<title>Node14&#45;&gt;Node16</title>
<g id="a_edge19_Node000014_Node000016"><a xlink:title=" ">
<path fill="none" stroke="#63b8ff" d="M351.51,-274C328.09,-278.72 301.7,-284.04 279.46,-288.53"/>
<polygon fill="#63b8ff" stroke="#63b8ff" points="352.14,-277.44 361.25,-272.03 350.75,-270.58 352.14,-277.44"/>
</a>
</g>
</g>
<!-- Node17 -->
<g id="Node000017" class="node">
<title>Node17</title>
<g id="a_Node000017"><a xlink:href="$class_logger_manager.html#a2503703714729cc95171579fe4ce0d4c" xlink:title=" ">
<polygon fill="white" stroke="#666666" points="287.38,-345.25 169.38,-345.25 169.38,-326 287.38,-326 287.38,-345.25"/>
<text xml:space="preserve" text-anchor="middle" x="228.38" y="-331.75" font-family="Helvetica,sans-Serif" font-size="10.00">LoggerManager::logInfo</text>
</a>
</g>
</g>
<!-- Node14&#45;&gt;Node17 -->
<g id="edge20_Node000014_Node000017" class="edge">
<title>Node14&#45;&gt;Node17</title>
<g id="a_edge20_Node000014_Node000017"><a xlink:title=" ">
<path fill="none" stroke="#63b8ff" d="M386.42,-277.26C364.58,-289.63 332.47,-306.59 302.75,-317.62 294.63,-320.64 285.83,-323.29 277.22,-325.58"/>
<polygon fill="#63b8ff" stroke="#63b8ff" points="388.02,-280.38 394.94,-272.36 384.53,-274.31 388.02,-280.38"/>
</a>
</g>
</g>
<!-- Node19 -->
<g id="Node000019" class="node">
<title>Node19</title>
<g id="a_Node000019"><a xlink:href="$class_logger_manager.html#a5768a8a1983298c5b94e23dabe18f3bb" xlink:title=" ">
<polygon fill="white" stroke="#666666" points="296.75,-185.25 160,-185.25 160,-166 296.75,-166 296.75,-185.25"/>
<text xml:space="preserve" text-anchor="middle" x="228.38" y="-171.75" font-family="Helvetica,sans-Serif" font-size="10.00">LoggerManager::logWarning</text>
</a>
</g>
</g>
<!-- Node14&#45;&gt;Node19 -->
<g id="edge24_Node000014_Node000019" class="edge">
<title>Node14&#45;&gt;Node19</title>
<g id="a_edge24_Node000014_Node000019"><a xlink:title=" ">
<path fill="none" stroke="#63b8ff" d="M390.06,-244.99C368.5,-229.95 334.78,-208.17 302.75,-194.62 294.51,-191.14 285.47,-188.17 276.63,-185.68"/>
<polygon fill="#63b8ff" stroke="#63b8ff" points="387.91,-247.76 398.1,-250.69 391.96,-242.05 387.91,-247.76"/>
</a>
</g>
</g>
<!-- Node17&#45;&gt;Node4 -->
<g id="edge23_Node000017_Node000004" class="edge">
<title>Node17&#45;&gt;Node4</title>
<g id="a_edge23_Node000017_Node000004"><a xlink:title=" ">
<path fill="none" stroke="#63b8ff" d="M159.35,-321.34C157.49,-320.2 155.7,-318.96 154,-317.62 95.39,-271.77 69.39,-179.11 62.18,-148.61"/>
<polygon fill="#63b8ff" stroke="#63b8ff" points="157.27,-324.21 167.76,-325.66 160.47,-317.98 157.27,-324.21"/>
</a>
</g>
</g>
<!-- Node17&#45;&gt;Node6 -->
<g id="edge21_Node000017_Node000006" class="edge">
<title>Node17&#45;&gt;Node6</title>
<g id="a_edge21_Node000017_Node000006"><a xlink:title=" ">
<path fill="none" stroke="#63b8ff" d="M158.06,-327.76C143.85,-326.14 129.08,-324.47 115.43,-322.92"/>
<polygon fill="#63b8ff" stroke="#63b8ff" points="157.47,-331.21 167.8,-328.86 158.26,-324.26 157.47,-331.21"/>
</a>
</g>
</g>
<!-- Node18 -->
<g id="Node000018" class="node">
<title>Node18</title>
<g id="a_Node000018"><a xlink:href="$class_logger_manager.html#a59e0690d922ec968bf64b1b5dda8fcbe" xlink:title="Initialize the logging system.">
<polygon fill="white" stroke="#666666" points="109.75,-363.25 8.25,-363.25 8.25,-344 109.75,-344 109.75,-363.25"/>
<text xml:space="preserve" text-anchor="middle" x="59" y="-349.75" font-family="Helvetica,sans-Serif" font-size="10.00">LoggerManager::init</text>
</a>
</g>
</g>
<!-- Node17&#45;&gt;Node18 -->
<g id="edge22_Node000017_Node000018" class="edge">
<title>Node17&#45;&gt;Node18</title>
<g id="a_edge22_Node000017_Node000018"><a xlink:title=" ">
<path fill="none" stroke="#63b8ff" d="M158.29,-343.05C142.16,-344.79 125.29,-346.6 110.16,-348.23"/>
<polygon fill="#63b8ff" stroke="#63b8ff" points="158.23,-346.58 167.8,-342.03 157.48,-339.62 158.23,-346.58"/>
</a>
</g>
</g>
<!-- Node19&#45;&gt;Node4 -->
<g id="edge25_Node000019_Node000004" class="edge">
<title>Node19&#45;&gt;Node4</title>
<g id="a_edge25_Node000019_Node000004"><a xlink:title=" ">
<path fill="none" stroke="#63b8ff" d="M170.53,-163.06C149.39,-158.38 125.69,-153.15 105.68,-148.72"/>
<polygon fill="#63b8ff" stroke="#63b8ff" points="169.64,-166.45 180.16,-165.19 171.15,-159.61 169.64,-166.45"/>
</a>
</g>
</g>
</g>
</svg>
