<?xml version="1.0" encoding="UTF-8" standalone="no"?>
<!DOCTYPE svg PUBLIC "-//W3C//DTD SVG 1.1//EN"
 "http://www.w3.org/Graphics/SVG/1.1/DTD/svg11.dtd">
<!-- Generated by graphviz version 13.1.0 (20250701.0955)
 -->
<!-- Title: MQTTManager::connect Pages: 1 -->
<svg width="603pt" height="101pt"
 viewBox="0.00 0.00 603.00 101.00" xmlns="http://www.w3.org/2000/svg" xmlns:xlink="http://www.w3.org/1999/xlink">
<g id="graph0" class="graph" transform="scale(1 1) rotate(0) translate(4 97.25)">
<title>MQTTManager::connect</title>
<!-- Node1 -->
<g id="Node000001" class="node">
<title>Node1</title>
<g id="a_Node000001"><a xlink:title="Connect to MQTT broker.">
<polygon fill="#999999" stroke="#666666" points="595,-56.25 473.25,-56.25 473.25,-37 595,-37 595,-56.25"/>
<text xml:space="preserve" text-anchor="middle" x="534.12" y="-42.75" font-family="Helvetica,sans-Serif" font-size="10.00">MQTTManager::connect</text>
</a>
</g>
</g>
<!-- Node2 -->
<g id="Node000002" class="node">
<title>Node2</title>
<g id="a_Node000002"><a xlink:href="class_m_q_t_t_manager.html#a9266e647933501851b411b6d2a9a1f95" target="_top" xlink:title="Internal loop function for connection maintenance.">
<polygon fill="white" stroke="#666666" points="424.88,-93.25 319.62,-93.25 319.62,-74 424.88,-74 424.88,-93.25"/>
<text xml:space="preserve" text-anchor="middle" x="372.25" y="-79.75" font-family="Helvetica,sans-Serif" font-size="10.00">MQTTManager::loop</text>
</a>
</g>
</g>
<!-- Node1&#45;&gt;Node2 -->
<g id="edge1_Node000001_Node000002" class="edge">
<title>Node1&#45;&gt;Node2</title>
<g id="a_edge1_Node000001_Node000002"><a xlink:title=" ">
<path fill="none" stroke="#63b8ff" d="M478.26,-59.32C458.21,-63.96 435.82,-69.14 416.88,-73.53"/>
<polygon fill="#63b8ff" stroke="#63b8ff" points="479.01,-62.74 487.96,-57.08 477.43,-55.92 479.01,-62.74"/>
</a>
</g>
</g>
<!-- Node5 -->
<g id="Node000005" class="node">
<title>Node5</title>
<g id="a_Node000005"><a xlink:href="class_m_q_t_t_manager.html#ab7e30be38a54f74dc66657dbeb3a1892" target="_top" xlink:title=" ">
<polygon fill="white" stroke="#666666" points="437.25,-56.25 307.25,-56.25 307.25,-37 437.25,-37 437.25,-56.25"/>
<text xml:space="preserve" text-anchor="middle" x="372.25" y="-42.75" font-family="Helvetica,sans-Serif" font-size="10.00">MQTTManager::reconnect</text>
</a>
</g>
</g>
<!-- Node1&#45;&gt;Node5 -->
<g id="edge4_Node000001_Node000005" class="edge">
<title>Node1&#45;&gt;Node5</title>
<g id="a_edge4_Node000001_Node000005"><a xlink:title=" ">
<path fill="none" stroke="#63b8ff" d="M461.84,-46.62C453.76,-46.62 445.56,-46.62 437.59,-46.62"/>
<polygon fill="#63b8ff" stroke="#63b8ff" points="461.63,-50.13 471.63,-46.63 461.63,-43.13 461.63,-50.13"/>
</a>
</g>
</g>
<!-- Node8 -->
<g id="Node000008" class="node">
<title>Node8</title>
<g id="a_Node000008"><a xlink:href="class_m_q_t_t_manager.html#aacbf1b109ac1d6b168309abfd8b3aa72" target="_top" xlink:title="Set new configuration.">
<polygon fill="white" stroke="#666666" points="436.88,-19.25 307.62,-19.25 307.62,0 436.88,0 436.88,-19.25"/>
<text xml:space="preserve" text-anchor="middle" x="372.25" y="-5.75" font-family="Helvetica,sans-Serif" font-size="10.00">MQTTManager::setConfig</text>
</a>
</g>
</g>
<!-- Node1&#45;&gt;Node8 -->
<g id="edge7_Node000001_Node000008" class="edge">
<title>Node1&#45;&gt;Node8</title>
<g id="a_edge7_Node000001_Node000008"><a xlink:title=" ">
<path fill="none" stroke="#63b8ff" d="M478.26,-33.93C458.21,-29.29 435.82,-24.11 416.88,-19.72"/>
<polygon fill="#63b8ff" stroke="#63b8ff" points="477.43,-37.33 487.96,-36.17 479.01,-30.51 477.43,-37.33"/>
</a>
</g>
</g>
<!-- Node3 -->
<g id="Node000003" class="node">
<title>Node3</title>
<g id="a_Node000003"><a xlink:href="class_m_q_t_t_manager.html#aa2391d50cff2826a29a22879c2b33380" target="_top" xlink:title="Main update function that handles connection and publishing.">
<polygon fill="white" stroke="#666666" points="267.5,-93.25 151,-93.25 151,-74 267.5,-74 267.5,-93.25"/>
<text xml:space="preserve" text-anchor="middle" x="209.25" y="-79.75" font-family="Helvetica,sans-Serif" font-size="10.00">MQTTManager::update</text>
</a>
</g>
</g>
<!-- Node2&#45;&gt;Node3 -->
<g id="edge2_Node000002_Node000003" class="edge">
<title>Node2&#45;&gt;Node3</title>
<g id="a_edge2_Node000002_Node000003"><a xlink:title=" ">
<path fill="none" stroke="#63b8ff" d="M307.99,-83.62C294.75,-83.62 280.86,-83.62 267.84,-83.62"/>
<polygon fill="#63b8ff" stroke="#63b8ff" points="307.91,-87.13 317.91,-83.63 307.91,-80.13 307.91,-87.13"/>
</a>
</g>
</g>
<!-- Node4 -->
<g id="Node000004" class="node">
<title>Node4</title>
<g id="a_Node000004"><a xlink:href="main_8cpp.html#afe461d27b9c48d5921c00d521181f12f" target="_top" xlink:title="Main system loop.">
<polygon fill="white" stroke="#666666" points="72.62,-93.25 38.62,-93.25 38.62,-74 72.62,-74 72.62,-93.25"/>
<text xml:space="preserve" text-anchor="middle" x="55.62" y="-79.75" font-family="Helvetica,sans-Serif" font-size="10.00">loop</text>
</a>
</g>
</g>
<!-- Node3&#45;&gt;Node4 -->
<g id="edge3_Node000003_Node000004" class="edge">
<title>Node3&#45;&gt;Node4</title>
<g id="a_edge3_Node000003_Node000004"><a xlink:title=" ">
<path fill="none" stroke="#63b8ff" d="M139.68,-83.62C114.97,-83.62 89.23,-83.62 73.07,-83.62"/>
<polygon fill="#63b8ff" stroke="#63b8ff" points="139.41,-87.13 149.41,-83.63 139.41,-80.13 139.41,-87.13"/>
</a>
</g>
</g>
<!-- Node6 -->
<g id="Node000006" class="node">
<title>Node6</title>
<g id="a_Node000006"><a xlink:href="class_config_manager.html#aeaf809f5fcc5b5be963935c533a56e49" target="_top" xlink:title="Setup MQTT API endpoints.">
<polygon fill="white" stroke="#666666" points="271.25,-56.25 147.25,-56.25 147.25,-37 271.25,-37 271.25,-56.25"/>
<text xml:space="preserve" text-anchor="middle" x="209.25" y="-42.75" font-family="Helvetica,sans-Serif" font-size="10.00">ConfigManager::mqttAPI</text>
</a>
</g>
</g>
<!-- Node5&#45;&gt;Node6 -->
<g id="edge5_Node000005_Node000006" class="edge">
<title>Node5&#45;&gt;Node6</title>
<g id="a_edge5_Node000005_Node000006"><a xlink:title=" ">
<path fill="none" stroke="#63b8ff" d="M295.75,-46.62C287.62,-46.62 279.43,-46.62 271.5,-46.62"/>
<polygon fill="#63b8ff" stroke="#63b8ff" points="295.64,-50.13 305.64,-46.63 295.64,-43.13 295.64,-50.13"/>
</a>
</g>
</g>
<!-- Node7 -->
<g id="Node000007" class="node">
<title>Node7</title>
<g id="a_Node000007"><a xlink:href="class_config_manager.html#a0497343220fc493f5cf9574922508908" target="_top" xlink:title="Initialize the configuration system.">
<polygon fill="white" stroke="#666666" points="111.25,-56.25 0,-56.25 0,-37 111.25,-37 111.25,-56.25"/>
<text xml:space="preserve" text-anchor="middle" x="55.62" y="-42.75" font-family="Helvetica,sans-Serif" font-size="10.00">ConfigManager::begin</text>
</a>
</g>
</g>
<!-- Node6&#45;&gt;Node7 -->
<g id="edge6_Node000006_Node000007" class="edge">
<title>Node6&#45;&gt;Node7</title>
<g id="a_edge6_Node000006_Node000007"><a xlink:title=" ">
<path fill="none" stroke="#63b8ff" d="M135.69,-46.62C127.63,-46.62 119.52,-46.62 111.73,-46.62"/>
<polygon fill="#63b8ff" stroke="#63b8ff" points="135.5,-50.13 145.5,-46.63 135.5,-43.13 135.5,-50.13"/>
</a>
</g>
</g>
</g>
</svg>
