<?xml version="1.0" encoding="UTF-8" standalone="no"?>
<!DOCTYPE svg PUBLIC "-//W3C//DTD SVG 1.1//EN"
 "http://www.w3.org/Graphics/SVG/1.1/DTD/svg11.dtd">
<!-- Generated by graphviz version 13.1.0 (20250701.0955)
 -->
<!-- Title: TemperatureController::update Pages: 1 -->
<svg width="1323pt" height="911pt"
 viewBox="0.00 0.00 1323.00 911.00" xmlns="http://www.w3.org/2000/svg" xmlns:xlink="http://www.w3.org/1999/xlink">
<g id="graph0" class="graph" transform="scale(1 1) rotate(0) translate(4 906.5)">
<title>TemperatureController::update</title>
<!-- Node1 -->
<g id="Node000001" class="node">
<title>Node1</title>
<g id="a_Node000001"><a xlink:title="Main update function &#45; must be called in loop()">
<polygon fill="#999999" stroke="#666666" points="112,-353.5 0,-353.5 0,-323 112,-323 112,-353.5"/>
<text xml:space="preserve" text-anchor="start" x="8" y="-340" font-family="Helvetica,sans-Serif" font-size="10.00">TemperatureController</text>
<text xml:space="preserve" text-anchor="middle" x="56" y="-328.75" font-family="Helvetica,sans-Serif" font-size="10.00">::update</text>
</a>
</g>
</g>
<!-- Node2 -->
<g id="Node000002" class="node">
<title>Node2</title>
<g id="a_Node000002"><a xlink:href="class_temperature_controller.html#a1228b63e95f26c21a8d9c2a27928bc75" target="_top" xlink:title="Check for button press and handle acknowledgment.">
<polygon fill="white" stroke="#666666" points="421.88,-573.5 309.88,-573.5 309.88,-543 421.88,-543 421.88,-573.5"/>
<text xml:space="preserve" text-anchor="start" x="317.88" y="-560" font-family="Helvetica,sans-Serif" font-size="10.00">TemperatureController</text>
<text xml:space="preserve" text-anchor="middle" x="365.88" y="-548.75" font-family="Helvetica,sans-Serif" font-size="10.00">::_checkButtonPress</text>
</a>
</g>
</g>
<!-- Node1&#45;&gt;Node2 -->
<g id="edge1_Node000001_Node000002" class="edge">
<title>Node1&#45;&gt;Node2</title>
<g id="a_edge1_Node000001_Node000002"><a xlink:title=" ">
<path fill="none" stroke="#63b8ff" d="M59.13,-353.88C65.2,-391.8 86.32,-488.8 148,-533.25 191.09,-564.3 251.98,-568.85 298.28,-566.61"/>
<polygon fill="#63b8ff" stroke="#63b8ff" points="298.44,-570.1 308.21,-565.99 298.01,-563.12 298.44,-570.1"/>
</a>
</g>
</g>
<!-- Node4 -->
<g id="Node000004" class="node">
<title>Node4</title>
<g id="a_Node000004"><a xlink:href="class_temperature_controller.html#a5637103784725fb1a73f6463d7cbfde6" target="_top" xlink:title="Handle alarm display on OLED/LEDs.">
<polygon fill="white" stroke="#666666" points="260,-524.5 148,-524.5 148,-494 260,-494 260,-524.5"/>
<text xml:space="preserve" text-anchor="start" x="156" y="-511" font-family="Helvetica,sans-Serif" font-size="10.00">TemperatureController</text>
<text xml:space="preserve" text-anchor="middle" x="204" y="-499.75" font-family="Helvetica,sans-Serif" font-size="10.00">::handleAlarmDisplay</text>
</a>
</g>
</g>
<!-- Node1&#45;&gt;Node4 -->
<g id="edge3_Node000001_Node000004" class="edge">
<title>Node1&#45;&gt;Node4</title>
<g id="a_edge3_Node000001_Node000004"><a xlink:title=" ">
<path fill="none" stroke="#63b8ff" d="M70.21,-353.73C95.84,-383.74 152.43,-450.02 182.8,-485.59"/>
<polygon fill="#63b8ff" stroke="#63b8ff" points="179.78,-487.45 188.94,-492.78 185.11,-482.9 179.78,-487.45"/>
</a>
</g>
</g>
<!-- Node28 -->
<g id="Node000028" class="node">
<title>Node28</title>
<g id="a_Node000028"><a xlink:href="class_temperature_controller.html#a82e4c37ff4121eaf5e00e9c52381e840" target="_top" xlink:title="Handle alarm output signals.">
<polygon fill="white" stroke="#666666" points="260,-296.5 148,-296.5 148,-266 260,-266 260,-296.5"/>
<text xml:space="preserve" text-anchor="start" x="156" y="-283" font-family="Helvetica,sans-Serif" font-size="10.00">TemperatureController</text>
<text xml:space="preserve" text-anchor="middle" x="204" y="-271.75" font-family="Helvetica,sans-Serif" font-size="10.00">::handleAlarmOutputs</text>
</a>
</g>
</g>
<!-- Node1&#45;&gt;Node28 -->
<g id="edge32_Node000001_Node000028" class="edge">
<title>Node1&#45;&gt;Node28</title>
<g id="a_edge32_Node000001_Node000028"><a xlink:title=" ">
<path fill="none" stroke="#63b8ff" d="M97.28,-322.52C114.28,-315.89 134.25,-308.09 152.24,-301.07"/>
<polygon fill="#63b8ff" stroke="#63b8ff" points="153.4,-304.37 161.44,-297.48 150.85,-297.85 153.4,-304.37"/>
</a>
</g>
</g>
<!-- Node30 -->
<g id="Node000030" class="node">
<title>Node30</title>
<g id="a_Node000030"><a xlink:href="class_temperature_controller.html#a11948a87fe7df37543b86ecdd488b341" target="_top" xlink:title="Read temperature from all configured measurement points.">
<polygon fill="white" stroke="#666666" points="260,-353.5 148,-353.5 148,-323 260,-323 260,-353.5"/>
<text xml:space="preserve" text-anchor="start" x="156" y="-340" font-family="Helvetica,sans-Serif" font-size="10.00">TemperatureController</text>
<text xml:space="preserve" text-anchor="middle" x="204" y="-328.75" font-family="Helvetica,sans-Serif" font-size="10.00">::readAllPoints</text>
</a>
</g>
</g>
<!-- Node1&#45;&gt;Node30 -->
<g id="edge35_Node000001_Node000030" class="edge">
<title>Node1&#45;&gt;Node30</title>
<g id="a_edge35_Node000001_Node000030"><a xlink:title=" ">
<path fill="none" stroke="#63b8ff" d="M112.2,-331.68C120.1,-331.52 128.3,-331.46 136.39,-331.52"/>
<polygon fill="#63b8ff" stroke="#63b8ff" points="136.16,-335.02 146.21,-331.66 136.26,-328.02 136.16,-335.02"/>
</a>
</g>
</g>
<!-- Node31 -->
<g id="Node000031" class="node">
<title>Node31</title>
<g id="a_Node000031"><a xlink:href="class_temperature_controller.html#a5ac8af90de5dfd79a9a2e4c7270a98a3" target="_top" xlink:title="Update alarm states for all measurement points.">
<polygon fill="white" stroke="#666666" points="608.88,-416.5 496.88,-416.5 496.88,-386 608.88,-386 608.88,-416.5"/>
<text xml:space="preserve" text-anchor="start" x="504.88" y="-403" font-family="Helvetica,sans-Serif" font-size="10.00">TemperatureController</text>
<text xml:space="preserve" text-anchor="middle" x="552.88" y="-391.75" font-family="Helvetica,sans-Serif" font-size="10.00">::updateAlarms</text>
</a>
</g>
</g>
<!-- Node1&#45;&gt;Node31 -->
<g id="edge37_Node000001_Node000031" class="edge">
<title>Node1&#45;&gt;Node31</title>
<g id="a_edge37_Node000001_Node000031"><a xlink:title=" ">
<path fill="none" stroke="#63b8ff" d="M110.57,-353.92C122.79,-357.06 135.78,-360.06 148,-362.25 265.64,-383.3 404.74,-393.58 485.18,-398.12"/>
<polygon fill="#63b8ff" stroke="#63b8ff" points="484.93,-401.61 495.11,-398.66 485.31,-394.62 484.93,-401.61"/>
</a>
</g>
</g>
<!-- Node32 -->
<g id="Node000032" class="node">
<title>Node32</title>
<g id="a_Node000032"><a xlink:href="class_temperature_controller.html#a23dca296a268baa9b8234c8bf9cf0c3e" target="_top" xlink:title="Update temperature readings for all sensors.">
<polygon fill="white" stroke="#666666" points="260,-215.5 148,-215.5 148,-185 260,-185 260,-215.5"/>
<text xml:space="preserve" text-anchor="start" x="156" y="-202" font-family="Helvetica,sans-Serif" font-size="10.00">TemperatureController</text>
<text xml:space="preserve" text-anchor="middle" x="204" y="-190.75" font-family="Helvetica,sans-Serif" font-size="10.00">::updateAllSensors</text>
</a>
</g>
</g>
<!-- Node1&#45;&gt;Node32 -->
<g id="edge40_Node000001_Node000032" class="edge">
<title>Node1&#45;&gt;Node32</title>
<g id="a_edge40_Node000001_Node000032"><a xlink:title=" ">
<path fill="none" stroke="#63b8ff" d="M73.46,-322.69C98.99,-298.57 148.26,-251.99 178.13,-223.75"/>
<polygon fill="#63b8ff" stroke="#63b8ff" points="180.41,-226.42 185.27,-217.01 175.6,-221.33 180.41,-226.42"/>
</a>
</g>
</g>
<!-- Node38 -->
<g id="Node000038" class="node">
<title>Node38</title>
<g id="a_Node000038"><a xlink:href="class_temperature_controller.html#a62b93899a3b8b55e2e0bd933520c2892" target="_top" xlink:title="Update register map with current values from measurement points.">
<polygon fill="white" stroke="#666666" points="260,-95.5 148,-95.5 148,-65 260,-65 260,-95.5"/>
<text xml:space="preserve" text-anchor="start" x="156" y="-82" font-family="Helvetica,sans-Serif" font-size="10.00">TemperatureController</text>
<text xml:space="preserve" text-anchor="middle" x="204" y="-70.75" font-family="Helvetica,sans-Serif" font-size="10.00">::updateRegisterMap</text>
</a>
</g>
</g>
<!-- Node1&#45;&gt;Node38 -->
<g id="edge46_Node000001_Node000038" class="edge">
<title>Node1&#45;&gt;Node38</title>
<g id="a_edge46_Node000001_Node000038"><a xlink:title=" ">
<path fill="none" stroke="#63b8ff" d="M65.74,-322.59C81.91,-293.64 117.6,-229.84 148,-176.25 161.59,-152.29 177.22,-125.04 188.34,-105.71"/>
<polygon fill="#63b8ff" stroke="#63b8ff" points="191.3,-107.58 193.25,-97.17 185.23,-104.09 191.3,-107.58"/>
</a>
</g>
</g>
<!-- Node3 -->
<g id="Node000003" class="node">
<title>Node3</title>
<g id="a_Node000003"><a xlink:href="class_temperature_controller.html#a3955f205bc33dda762cbe5c572cd4f21" target="_top" xlink:title="Switch to a new display section.">
<polygon fill="white" stroke="#666666" points="810.12,-902.5 698.12,-902.5 698.12,-872 810.12,-872 810.12,-902.5"/>
<text xml:space="preserve" text-anchor="start" x="706.12" y="-889" font-family="Helvetica,sans-Serif" font-size="10.00">TemperatureController</text>
<text xml:space="preserve" text-anchor="middle" x="754.12" y="-877.75" font-family="Helvetica,sans-Serif" font-size="10.00">::_switchToSection</text>
</a>
</g>
</g>
<!-- Node2&#45;&gt;Node3 -->
<g id="edge2_Node000002_Node000003" class="edge">
<title>Node2&#45;&gt;Node3</title>
<g id="a_edge2_Node000002_Node000003"><a xlink:title=" ">
<path fill="none" stroke="#63b8ff" d="M367.87,-573.79C371.74,-620.58 389.97,-761.18 471.75,-830.25 531.62,-880.81 624.07,-890.77 686.51,-890.92"/>
<polygon fill="#63b8ff" stroke="#63b8ff" points="686.31,-894.43 696.29,-890.86 686.27,-887.43 686.31,-894.43"/>
</a>
</g>
</g>
<!-- Node4&#45;&gt;Node2 -->
<g id="edge4_Node000004_Node000002" class="edge">
<title>Node4&#45;&gt;Node2</title>
<g id="a_edge4_Node000004_Node000002"><a xlink:title=" ">
<path fill="none" stroke="#63b8ff" d="M256.03,-524.89C270.95,-529.46 287.43,-534.51 302.95,-539.27"/>
<polygon fill="#63b8ff" stroke="#63b8ff" points="301.48,-542.48 312.06,-542.06 303.53,-535.79 301.48,-542.48"/>
</a>
</g>
</g>
<!-- Node5 -->
<g id="Node000005" class="node">
<title>Node5</title>
<g id="a_Node000005"><a xlink:href="class_temperature_controller.html#a6b2f92b5c2af867240200cff2e61e806" target="_top" xlink:title="Handle display section switching.">
<polygon fill="white" stroke="#666666" points="429.38,-524.5 302.38,-524.5 302.38,-494 429.38,-494 429.38,-524.5"/>
<text xml:space="preserve" text-anchor="start" x="310.38" y="-511" font-family="Helvetica,sans-Serif" font-size="10.00">TemperatureController</text>
<text xml:space="preserve" text-anchor="middle" x="365.88" y="-499.75" font-family="Helvetica,sans-Serif" font-size="10.00">::_handleDisplaySections</text>
</a>
</g>
</g>
<!-- Node4&#45;&gt;Node5 -->
<g id="edge5_Node000004_Node000005" class="edge">
<title>Node4&#45;&gt;Node5</title>
<g id="a_edge5_Node000004_Node000005"><a xlink:title=" ">
<path fill="none" stroke="#63b8ff" d="M260.47,-509.25C270.23,-509.25 280.53,-509.25 290.71,-509.25"/>
<polygon fill="#63b8ff" stroke="#63b8ff" points="290.6,-512.75 300.6,-509.25 290.6,-505.75 290.6,-512.75"/>
</a>
</g>
</g>
<!-- Node5&#45;&gt;Node3 -->
<g id="edge27_Node000005_Node000003" class="edge">
<title>Node5&#45;&gt;Node3</title>
<g id="a_edge27_Node000005_Node000003"><a xlink:title=" ">
<path fill="none" stroke="#63b8ff" d="M425.28,-524.86C429.19,-527.51 432.76,-530.62 435.75,-534.25 501.53,-614.12 407.51,-683.14 471.75,-764.25 520.08,-825.28 567.9,-789.13 634,-830.25 652.18,-841.56 651.31,-851.81 670,-862.25 675.34,-865.24 681.09,-867.9 686.96,-870.28"/>
<polygon fill="#63b8ff" stroke="#63b8ff" points="685.63,-873.51 696.22,-873.72 688.06,-866.95 685.63,-873.51"/>
</a>
</g>
</g>
<!-- Node6 -->
<g id="Node000006" class="node">
<title>Node6</title>
<g id="a_Node000006"><a xlink:href="class_temperature_controller.html#ac44de0834e13cec755e247ce1df21f09" target="_top" xlink:title="Display next acknowledged alarm.">
<polygon fill="white" stroke="#666666" points="838.25,-608.5 670,-608.5 670,-578 838.25,-578 838.25,-608.5"/>
<text xml:space="preserve" text-anchor="start" x="678" y="-595" font-family="Helvetica,sans-Serif" font-size="10.00">TemperatureController</text>
<text xml:space="preserve" text-anchor="middle" x="754.12" y="-583.75" font-family="Helvetica,sans-Serif" font-size="10.00">::_displayNextAcknowledgedAlarm</text>
</a>
</g>
</g>
<!-- Node5&#45;&gt;Node6 -->
<g id="edge6_Node000005_Node000006" class="edge">
<title>Node5&#45;&gt;Node6</title>
<g id="a_edge6_Node000005_Node000006"><a xlink:title=" ">
<path fill="none" stroke="#63b8ff" d="M429.78,-523.81C443.6,-526.96 458.16,-530.25 471.75,-533.25 537,-547.67 610.89,-563.41 666.58,-575.14"/>
<polygon fill="#63b8ff" stroke="#63b8ff" points="665.83,-578.56 676.34,-577.2 667.28,-571.71 665.83,-578.56"/>
</a>
</g>
</g>
<!-- Node7 -->
<g id="Node000007" class="node">
<title>Node7</title>
<g id="a_Node000007"><a xlink:href="class_temperature_controller.html#a1d2745c323f7094beac8f406825499b7" target="_top" xlink:title="Handle alarm display rotation timing.">
<polygon fill="white" stroke="#666666" points="628.38,-524.5 477.38,-524.5 477.38,-494 628.38,-494 628.38,-524.5"/>
<text xml:space="preserve" text-anchor="start" x="485.38" y="-511" font-family="Helvetica,sans-Serif" font-size="10.00">TemperatureController</text>
<text xml:space="preserve" text-anchor="middle" x="552.88" y="-499.75" font-family="Helvetica,sans-Serif" font-size="10.00">::_handleAlarmDisplayRotation</text>
</a>
</g>
</g>
<!-- Node5&#45;&gt;Node7 -->
<g id="edge7_Node000005_Node000007" class="edge">
<title>Node5&#45;&gt;Node7</title>
<g id="a_edge7_Node000005_Node000007"><a xlink:title=" ">
<path fill="none" stroke="#63b8ff" d="M429.77,-509.25C441.28,-509.25 453.47,-509.25 465.52,-509.25"/>
<polygon fill="#63b8ff" stroke="#63b8ff" points="465.5,-512.75 475.5,-509.25 465.5,-505.75 465.5,-512.75"/>
</a>
</g>
</g>
<!-- Node10 -->
<g id="Node000010" class="node">
<title>Node10</title>
<g id="a_Node000010"><a xlink:href="class_temperature_controller.html#a4d36576f7d6ab8f5222a082878314912" target="_top" xlink:title="Update normal temperature display.">
<polygon fill="white" stroke="#666666" points="814.62,-461.5 693.62,-461.5 693.62,-431 814.62,-431 814.62,-461.5"/>
<text xml:space="preserve" text-anchor="start" x="701.62" y="-448" font-family="Helvetica,sans-Serif" font-size="10.00">TemperatureController</text>
<text xml:space="preserve" text-anchor="middle" x="754.12" y="-436.75" font-family="Helvetica,sans-Serif" font-size="10.00">::_updateNormalDisplay</text>
</a>
</g>
</g>
<!-- Node5&#45;&gt;Node10 -->
<g id="edge31_Node000005_Node000010" class="edge">
<title>Node5&#45;&gt;Node10</title>
<g id="a_edge31_Node000005_Node000010"><a xlink:title=" ">
<path fill="none" stroke="#63b8ff" d="M429.63,-493.95C443.46,-490.84 458.06,-487.76 471.75,-485.25 542.89,-472.21 624.85,-461.31 681.9,-454.38"/>
<polygon fill="#63b8ff" stroke="#63b8ff" points="682.31,-457.85 691.82,-453.18 681.48,-450.9 682.31,-457.85"/>
</a>
</g>
</g>
<!-- Node11 -->
<g id="Node000011" class="node">
<title>Node11</title>
<g id="a_Node000011"><a xlink:href="class_temperature_controller.html#a45f7994a3a052a527981dbfdad27606b" target="_top" xlink:title="Handle system status mode display.">
<polygon fill="white" stroke="#666666" points="623.88,-755.5 481.88,-755.5 481.88,-725 623.88,-725 623.88,-755.5"/>
<text xml:space="preserve" text-anchor="start" x="489.88" y="-742" font-family="Helvetica,sans-Serif" font-size="10.00">TemperatureController</text>
<text xml:space="preserve" text-anchor="middle" x="552.88" y="-730.75" font-family="Helvetica,sans-Serif" font-size="10.00">::_handleSystemStatusMode</text>
</a>
</g>
</g>
<!-- Node5&#45;&gt;Node11 -->
<g id="edge12_Node000005_Node000011" class="edge">
<title>Node5&#45;&gt;Node11</title>
<g id="a_edge12_Node000005_Node000011"><a xlink:title=" ">
<path fill="none" stroke="#63b8ff" d="M421.56,-524.84C426.64,-527.52 431.48,-530.63 435.75,-534.25 466.18,-560.03 517.32,-665.35 540.19,-714.62"/>
<polygon fill="#63b8ff" stroke="#63b8ff" points="536.88,-715.78 544.25,-723.4 543.24,-712.85 536.88,-715.78"/>
</a>
</g>
</g>
<!-- Node25 -->
<g id="Node000025" class="node">
<title>Node25</title>
<g id="a_Node000025"><a xlink:href="class_temperature_controller.html#a477597992aa9362076843f37b648741a" target="_top" xlink:title="Update alarm display queues.">
<polygon fill="white" stroke="#666666" points="610.75,-367.5 495,-367.5 495,-337 610.75,-337 610.75,-367.5"/>
<text xml:space="preserve" text-anchor="start" x="503" y="-354" font-family="Helvetica,sans-Serif" font-size="10.00">TemperatureController</text>
<text xml:space="preserve" text-anchor="middle" x="552.88" y="-342.75" font-family="Helvetica,sans-Serif" font-size="10.00">::_updateAlarmQueues</text>
</a>
</g>
</g>
<!-- Node5&#45;&gt;Node25 -->
<g id="edge28_Node000005_Node000025" class="edge">
<title>Node5&#45;&gt;Node25</title>
<g id="a_edge28_Node000005_Node000025"><a xlink:title=" ">
<path fill="none" stroke="#63b8ff" d="M375.05,-493.72C390.33,-466.17 425.88,-408.69 471.75,-377.25 475.67,-374.56 479.89,-372.15 484.28,-370"/>
<polygon fill="#63b8ff" stroke="#63b8ff" points="485.6,-373.24 493.35,-366.01 482.79,-366.83 485.6,-373.24"/>
</a>
</g>
</g>
<!-- Node7&#45;&gt;Node6 -->
<g id="edge8_Node000007_Node000006" class="edge">
<title>Node7&#45;&gt;Node6</title>
<g id="a_edge8_Node000007_Node000006"><a xlink:title=" ">
<path fill="none" stroke="#63b8ff" d="M583.27,-524.94C611.79,-540.02 653.15,-561.5 670,-568.25 674.98,-570.25 680.19,-572.17 685.46,-574.01"/>
<polygon fill="#63b8ff" stroke="#63b8ff" points="684.29,-577.31 694.88,-577.16 686.51,-570.67 684.29,-577.31"/>
</a>
</g>
</g>
<!-- Node8 -->
<g id="Node000008" class="node">
<title>Node8</title>
<g id="a_Node000008"><a xlink:href="class_temperature_controller.html#a7ca5124357f98bcd52316cf017341b09" target="_top" xlink:title="Display next active alarm in rotation.">
<polygon fill="white" stroke="#666666" points="820.25,-559.5 688,-559.5 688,-529 820.25,-529 820.25,-559.5"/>
<text xml:space="preserve" text-anchor="start" x="696" y="-546" font-family="Helvetica,sans-Serif" font-size="10.00">TemperatureController</text>
<text xml:space="preserve" text-anchor="middle" x="754.12" y="-534.75" font-family="Helvetica,sans-Serif" font-size="10.00">::_displayNextActiveAlarm</text>
</a>
</g>
</g>
<!-- Node7&#45;&gt;Node8 -->
<g id="edge9_Node000007_Node000008" class="edge">
<title>Node7&#45;&gt;Node8</title>
<g id="a_edge9_Node000007_Node000008"><a xlink:title=" ">
<path fill="none" stroke="#63b8ff" d="M628.64,-522.38C644.27,-525.13 660.79,-528.03 676.49,-530.79"/>
<polygon fill="#63b8ff" stroke="#63b8ff" points="675.82,-534.22 686.27,-532.51 677.03,-527.33 675.82,-534.22"/>
</a>
</g>
</g>
<!-- Node9 -->
<g id="Node000009" class="node">
<title>Node9</title>
<g id="a_Node000009"><a xlink:href="class_temperature_controller.html#a28e81945f5235e161e6c532b428d36d2" target="_top" xlink:title="Show OK status and turn off OLED after delay.">
<polygon fill="white" stroke="#666666" points="825.12,-510.5 683.12,-510.5 683.12,-480 825.12,-480 825.12,-510.5"/>
<text xml:space="preserve" text-anchor="start" x="691.12" y="-497" font-family="Helvetica,sans-Serif" font-size="10.00">TemperatureController</text>
<text xml:space="preserve" text-anchor="middle" x="754.12" y="-485.75" font-family="Helvetica,sans-Serif" font-size="10.00">::_showOKAndTurnOffOLED</text>
</a>
</g>
</g>
<!-- Node7&#45;&gt;Node9 -->
<g id="edge10_Node000007_Node000009" class="edge">
<title>Node7&#45;&gt;Node9</title>
<g id="a_edge10_Node000007_Node000009"><a xlink:title=" ">
<path fill="none" stroke="#63b8ff" d="M628.64,-504C642.66,-503.01 657.39,-501.98 671.62,-500.98"/>
<polygon fill="#63b8ff" stroke="#63b8ff" points="671.65,-504.48 681.38,-500.29 671.16,-497.5 671.65,-504.48"/>
</a>
</g>
</g>
<!-- Node7&#45;&gt;Node10 -->
<g id="edge11_Node000007_Node000010" class="edge">
<title>Node7&#45;&gt;Node10</title>
<g id="a_edge11_Node000007_Node000010"><a xlink:title=" ">
<path fill="none" stroke="#63b8ff" d="M600.97,-493.55C622.05,-486.6 647.23,-478.4 670,-471.25 676.26,-469.28 682.8,-467.26 689.34,-465.26"/>
<polygon fill="#63b8ff" stroke="#63b8ff" points="690.3,-468.63 698.85,-462.37 688.26,-461.93 690.3,-468.63"/>
</a>
</g>
</g>
<!-- Node11&#45;&gt;Node3 -->
<g id="edge26_Node000011_Node000003" class="edge">
<title>Node11&#45;&gt;Node3</title>
<g id="a_edge26_Node000011_Node000003"><a xlink:title=" ">
<path fill="none" stroke="#63b8ff" d="M578.61,-755.81C595.54,-767.26 617.76,-783.97 634,-802.25 654.65,-825.5 645.46,-843.15 670,-862.25 675.26,-866.34 681.18,-869.76 687.37,-872.63"/>
<polygon fill="#63b8ff" stroke="#63b8ff" points="686.01,-875.85 696.6,-876.37 688.65,-869.37 686.01,-875.85"/>
</a>
</g>
</g>
<!-- Node12 -->
<g id="Node000012" class="node">
<title>Node12</title>
<g id="a_Node000012"><a xlink:href="class_temperature_controller.html#a3948ceaf046b5f06afcc9083433f532c" target="_top" xlink:title="Display alarm summary by priority.">
<polygon fill="white" stroke="#666666" points="838.25,-657.5 670,-657.5 670,-627 838.25,-627 838.25,-657.5"/>
<text xml:space="preserve" text-anchor="start" x="678" y="-644" font-family="Helvetica,sans-Serif" font-size="10.00">TemperatureController</text>
<text xml:space="preserve" text-anchor="middle" x="754.12" y="-632.75" font-family="Helvetica,sans-Serif" font-size="10.00">::_displayAlarmSummaryByPriority</text>
</a>
</g>
</g>
<!-- Node11&#45;&gt;Node12 -->
<g id="edge13_Node000011_Node000012" class="edge">
<title>Node11&#45;&gt;Node12</title>
<g id="a_edge13_Node000011_Node000012"><a xlink:title=" ">
<path fill="none" stroke="#63b8ff" d="M574.73,-724.71C597.25,-708.52 634.66,-683.31 670,-667.25 674.24,-665.32 678.68,-663.49 683.19,-661.77"/>
<polygon fill="#63b8ff" stroke="#63b8ff" points="684.17,-665.14 692.39,-658.45 681.8,-658.55 684.17,-665.14"/>
</a>
</g>
</g>
<!-- Node14 -->
<g id="Node000014" class="node">
<title>Node14</title>
<g id="a_Node000014"><a xlink:href="class_temperature_controller.html#ab5e076b045677678390603e9a805e4db" target="_top" xlink:title="Display alarm summary by type.">
<polygon fill="white" stroke="#666666" points="833.38,-804.5 674.88,-804.5 674.88,-774 833.38,-774 833.38,-804.5"/>
<text xml:space="preserve" text-anchor="start" x="682.88" y="-791" font-family="Helvetica,sans-Serif" font-size="10.00">TemperatureController</text>
<text xml:space="preserve" text-anchor="middle" x="754.12" y="-779.75" font-family="Helvetica,sans-Serif" font-size="10.00">::_displayAlarmSummaryByType</text>
</a>
</g>
</g>
<!-- Node11&#45;&gt;Node14 -->
<g id="edge15_Node000011_Node000014" class="edge">
<title>Node11&#45;&gt;Node14</title>
<g id="a_edge15_Node000011_Node000014"><a xlink:title=" ">
<path fill="none" stroke="#63b8ff" d="M617.74,-755.96C637.05,-760.7 658.42,-765.96 678.36,-770.86"/>
<polygon fill="#63b8ff" stroke="#63b8ff" points="677.26,-774.2 687.81,-773.19 678.93,-767.4 677.26,-774.2"/>
</a>
</g>
</g>
<!-- Node15 -->
<g id="Node000015" class="node">
<title>Node15</title>
<g id="a_Node000015"><a xlink:href="class_temperature_controller.html#a5fc773a967cea261f21bbe86d90d2586" target="_top" xlink:title="Display Modbus status page.">
<polygon fill="white" stroke="#666666" points="814.62,-755.5 693.62,-755.5 693.62,-725 814.62,-725 814.62,-755.5"/>
<text xml:space="preserve" text-anchor="start" x="701.62" y="-742" font-family="Helvetica,sans-Serif" font-size="10.00">TemperatureController</text>
<text xml:space="preserve" text-anchor="middle" x="754.12" y="-730.75" font-family="Helvetica,sans-Serif" font-size="10.00">::_displayModbusStatus</text>
</a>
</g>
</g>
<!-- Node11&#45;&gt;Node15 -->
<g id="edge16_Node000011_Node000015" class="edge">
<title>Node11&#45;&gt;Node15</title>
<g id="a_edge16_Node000011_Node000015"><a xlink:title=" ">
<path fill="none" stroke="#63b8ff" d="M624.12,-740.25C642.87,-740.25 663.13,-740.25 681.92,-740.25"/>
<polygon fill="#63b8ff" stroke="#63b8ff" points="681.9,-743.75 691.9,-740.25 681.9,-736.75 681.9,-743.75"/>
</a>
</g>
</g>
<!-- Node16 -->
<g id="Node000016" class="node">
<title>Node16</title>
<g id="a_Node000016"><a xlink:href="class_temperature_controller.html#a2436c7043d97ca75c717db2b87326d90" target="_top" xlink:title="Display network info page.">
<polygon fill="white" stroke="#666666" points="810.12,-706.5 698.12,-706.5 698.12,-676 810.12,-676 810.12,-706.5"/>
<text xml:space="preserve" text-anchor="start" x="706.12" y="-693" font-family="Helvetica,sans-Serif" font-size="10.00">TemperatureController</text>
<text xml:space="preserve" text-anchor="middle" x="754.12" y="-681.75" font-family="Helvetica,sans-Serif" font-size="10.00">::_displayNetworkInfo</text>
</a>
</g>
</g>
<!-- Node11&#45;&gt;Node16 -->
<g id="edge17_Node000011_Node000016" class="edge">
<title>Node11&#45;&gt;Node16</title>
<g id="a_edge17_Node000011_Node000016"><a xlink:title=" ">
<path fill="none" stroke="#63b8ff" d="M617.74,-724.54C639.75,-719.13 664.44,-713.06 686.65,-707.6"/>
<polygon fill="#63b8ff" stroke="#63b8ff" points="687.32,-711.04 696.2,-705.25 685.65,-704.24 687.32,-711.04"/>
</a>
</g>
</g>
<!-- Node17 -->
<g id="Node000017" class="node">
<title>Node17</title>
<g id="a_Node000017"><a xlink:href="class_temperature_controller.html#a45d13ed72fd36b46820af631e4db958b" target="_top" xlink:title="Display system stats page.">
<polygon fill="white" stroke="#666666" points="811.62,-853.5 696.62,-853.5 696.62,-823 811.62,-823 811.62,-853.5"/>
<text xml:space="preserve" text-anchor="start" x="704.62" y="-840" font-family="Helvetica,sans-Serif" font-size="10.00">TemperatureController</text>
<text xml:space="preserve" text-anchor="middle" x="754.12" y="-828.75" font-family="Helvetica,sans-Serif" font-size="10.00">::_displaySystemStats</text>
</a>
</g>
</g>
<!-- Node11&#45;&gt;Node17 -->
<g id="edge18_Node000011_Node000017" class="edge">
<title>Node11&#45;&gt;Node17</title>
<g id="a_edge18_Node000011_Node000017"><a xlink:title=" ">
<path fill="none" stroke="#63b8ff" d="M574.73,-755.79C597.25,-771.98 634.66,-797.19 670,-813.25 675.1,-815.57 680.47,-817.74 685.93,-819.76"/>
<polygon fill="#63b8ff" stroke="#63b8ff" points="684.45,-822.95 695.05,-822.95 686.77,-816.35 684.45,-822.95"/>
</a>
</g>
</g>
<!-- Node13 -->
<g id="Node000013" class="node">
<title>Node13</title>
<g id="a_Node000013"><a xlink:href="class_temperature_controller.html#a3022c7a72adb45a7800d5189eecdac4e" target="_top" xlink:title="Get total number of configured alarms.">
<polygon fill="white" stroke="#666666" points="986.25,-294.5 874.25,-294.5 874.25,-264 986.25,-264 986.25,-294.5"/>
<text xml:space="preserve" text-anchor="start" x="882.25" y="-281" font-family="Helvetica,sans-Serif" font-size="10.00">TemperatureController</text>
<text xml:space="preserve" text-anchor="middle" x="930.25" y="-269.75" font-family="Helvetica,sans-Serif" font-size="10.00">::getAlarmCount</text>
</a>
</g>
</g>
<!-- Node12&#45;&gt;Node13 -->
<g id="edge14_Node000012_Node000013" class="edge">
<title>Node12&#45;&gt;Node13</title>
<g id="a_edge14_Node000012_Node000013"><a xlink:title=" ">
<path fill="none" stroke="#63b8ff" d="M826.57,-626.51C830.83,-623.88 834.79,-620.82 838.25,-617.25 882.18,-572.02 914.68,-378.06 925.42,-306.18"/>
<polygon fill="#63b8ff" stroke="#63b8ff" points="928.85,-306.89 926.84,-296.48 921.93,-305.87 928.85,-306.89"/>
</a>
</g>
</g>
<!-- Node18 -->
<g id="Node000018" class="node">
<title>Node18</title>
<g id="a_Node000018"><a xlink:href="class_temperature_controller.html#a9b4fe09d4c87dcf86e78b890012e1e72" target="_top" xlink:title="Get sensor bound to measurement point.">
<polygon fill="white" stroke="#666666" points="986.25,-598.5 874.25,-598.5 874.25,-568 986.25,-568 986.25,-598.5"/>
<text xml:space="preserve" text-anchor="start" x="882.25" y="-585" font-family="Helvetica,sans-Serif" font-size="10.00">TemperatureController</text>
<text xml:space="preserve" text-anchor="middle" x="930.25" y="-573.75" font-family="Helvetica,sans-Serif" font-size="10.00">::getBoundSensor</text>
</a>
</g>
</g>
<!-- Node17&#45;&gt;Node18 -->
<g id="edge19_Node000017_Node000018" class="edge">
<title>Node17&#45;&gt;Node18</title>
<g id="a_edge19_Node000017_Node000018"><a xlink:title=" ">
<path fill="none" stroke="#63b8ff" d="M811.99,-828.66C821.58,-825.05 830.81,-820.08 838.25,-813.25 898.32,-758.06 919.35,-658.13 926.2,-610.25"/>
<polygon fill="#63b8ff" stroke="#63b8ff" points="929.65,-610.86 927.49,-600.49 922.71,-609.95 929.65,-610.86"/>
</a>
</g>
</g>
<!-- Node23 -->
<g id="Node000023" class="node">
<title>Node23</title>
<g id="a_Node000023"><a xlink:href="class_temperature_controller.html#a9ac5f76def1895a8c8f8f92ce8cd2e5c" target="_top" xlink:title="Get count of discovered DS18B20 sensors.">
<polygon fill="white" stroke="#666666" points="986.25,-877.5 874.25,-877.5 874.25,-847 986.25,-847 986.25,-877.5"/>
<text xml:space="preserve" text-anchor="start" x="882.25" y="-864" font-family="Helvetica,sans-Serif" font-size="10.00">TemperatureController</text>
<text xml:space="preserve" text-anchor="middle" x="930.25" y="-852.75" font-family="Helvetica,sans-Serif" font-size="10.00">::getDS18B20Count</text>
</a>
</g>
</g>
<!-- Node17&#45;&gt;Node23 -->
<g id="edge24_Node000017_Node000023" class="edge">
<title>Node17&#45;&gt;Node23</title>
<g id="a_edge24_Node000017_Node000023"><a xlink:title=" ">
<path fill="none" stroke="#63b8ff" d="M811.66,-846.04C828.03,-848.3 846.05,-850.78 862.97,-853.11"/>
<polygon fill="#63b8ff" stroke="#63b8ff" points="862.01,-856.51 872.39,-854.41 862.96,-849.58 862.01,-856.51"/>
</a>
</g>
</g>
<!-- Node24 -->
<g id="Node000024" class="node">
<title>Node24</title>
<g id="a_Node000024"><a xlink:href="class_temperature_controller.html#a6ab2ecc10c283d75d948ce6f1ad723a6" target="_top" xlink:title="Get count of discovered PT1000 sensors.">
<polygon fill="white" stroke="#666666" points="986.25,-828.5 874.25,-828.5 874.25,-798 986.25,-798 986.25,-828.5"/>
<text xml:space="preserve" text-anchor="start" x="882.25" y="-815" font-family="Helvetica,sans-Serif" font-size="10.00">TemperatureController</text>
<text xml:space="preserve" text-anchor="middle" x="930.25" y="-803.75" font-family="Helvetica,sans-Serif" font-size="10.00">::getPT1000Count</text>
</a>
</g>
</g>
<!-- Node17&#45;&gt;Node24 -->
<g id="edge25_Node000017_Node000024" class="edge">
<title>Node17&#45;&gt;Node24</title>
<g id="a_edge25_Node000017_Node000024"><a xlink:title=" ">
<path fill="none" stroke="#63b8ff" d="M811.66,-830.13C828.03,-827.78 846.05,-825.19 862.97,-822.77"/>
<polygon fill="#63b8ff" stroke="#63b8ff" points="862.99,-826.3 872.39,-821.41 862,-819.37 862.99,-826.3"/>
</a>
</g>
</g>
<!-- Node19 -->
<g id="Node000019" class="node">
<title>Node19</title>
<g id="a_Node000019"><a xlink:href="class_measurement_point.html#a81c7ae93a9314344967d0f31c6fefe2f" target="_top" xlink:title="Get pointer to bound sensor.">
<polygon fill="white" stroke="#666666" points="1167.25,-622.5 1022.25,-622.5 1022.25,-592 1167.25,-592 1167.25,-622.5"/>
<text xml:space="preserve" text-anchor="start" x="1030.25" y="-609" font-family="Helvetica,sans-Serif" font-size="10.00">MeasurementPoint::getBound</text>
<text xml:space="preserve" text-anchor="middle" x="1094.75" y="-597.75" font-family="Helvetica,sans-Serif" font-size="10.00">Sensor</text>
</a>
</g>
</g>
<!-- Node18&#45;&gt;Node19 -->
<g id="edge20_Node000018_Node000019" class="edge">
<title>Node18&#45;&gt;Node19</title>
<g id="a_edge20_Node000018_Node000019"><a xlink:title=" ">
<path fill="none" stroke="#63b8ff" d="M986.72,-591.44C994.41,-592.58 1002.44,-593.76 1010.49,-594.95"/>
<polygon fill="#63b8ff" stroke="#63b8ff" points="1009.96,-598.41 1020.37,-596.41 1010.99,-591.49 1009.96,-598.41"/>
</a>
</g>
</g>
<!-- Node20 -->
<g id="Node000020" class="node">
<title>Node20</title>
<g id="a_Node000020"><a xlink:href="class_temperature_controller.html#a494f057c234b4ff7526bde271aec9267" target="_top" xlink:title="Get measurement point by address.">
<polygon fill="white" stroke="#666666" points="1153.38,-573.5 1036.12,-573.5 1036.12,-543 1153.38,-543 1153.38,-573.5"/>
<text xml:space="preserve" text-anchor="start" x="1044.12" y="-560" font-family="Helvetica,sans-Serif" font-size="10.00">TemperatureController</text>
<text xml:space="preserve" text-anchor="middle" x="1094.75" y="-548.75" font-family="Helvetica,sans-Serif" font-size="10.00">::getMeasurementPoint</text>
</a>
</g>
</g>
<!-- Node18&#45;&gt;Node20 -->
<g id="edge21_Node000018_Node000020" class="edge">
<title>Node18&#45;&gt;Node20</title>
<g id="a_edge21_Node000018_Node000020"><a xlink:title=" ">
<path fill="none" stroke="#63b8ff" d="M986.72,-574.72C998.95,-572.83 1012.05,-570.82 1024.74,-568.87"/>
<polygon fill="#63b8ff" stroke="#63b8ff" points="1024.91,-572.38 1034.27,-567.4 1023.85,-565.46 1024.91,-572.38"/>
</a>
</g>
</g>
<!-- Node21 -->
<g id="Node000021" class="node">
<title>Node21</title>
<g id="a_Node000021"><a xlink:href="class_temperature_controller.html#ad322a5bab8d5788a586206004248f673" target="_top" xlink:title="Check if address is for DS18B20 sensor.">
<polygon fill="white" stroke="#666666" points="1315.25,-598.5 1203.25,-598.5 1203.25,-568 1315.25,-568 1315.25,-598.5"/>
<text xml:space="preserve" text-anchor="start" x="1211.25" y="-585" font-family="Helvetica,sans-Serif" font-size="10.00">TemperatureController</text>
<text xml:space="preserve" text-anchor="middle" x="1259.25" y="-573.75" font-family="Helvetica,sans-Serif" font-size="10.00">::isDS18B20Address</text>
</a>
</g>
</g>
<!-- Node20&#45;&gt;Node21 -->
<g id="edge22_Node000020_Node000021" class="edge">
<title>Node20&#45;&gt;Node21</title>
<g id="a_edge22_Node000020_Node000021"><a xlink:title=" ">
<path fill="none" stroke="#63b8ff" d="M1153.5,-567.13C1165.92,-569.04 1179.14,-571.08 1191.85,-573.04"/>
<polygon fill="#63b8ff" stroke="#63b8ff" points="1190.95,-576.44 1201.37,-574.5 1192.02,-569.52 1190.95,-576.44"/>
</a>
</g>
</g>
<!-- Node22 -->
<g id="Node000022" class="node">
<title>Node22</title>
<g id="a_Node000022"><a xlink:href="class_temperature_controller.html#a13125ddcf29cb56d27403818543618af" target="_top" xlink:title="Check if address is for PT1000 sensor.">
<polygon fill="white" stroke="#666666" points="1315.25,-549.5 1203.25,-549.5 1203.25,-519 1315.25,-519 1315.25,-549.5"/>
<text xml:space="preserve" text-anchor="start" x="1211.25" y="-536" font-family="Helvetica,sans-Serif" font-size="10.00">TemperatureController</text>
<text xml:space="preserve" text-anchor="middle" x="1259.25" y="-524.75" font-family="Helvetica,sans-Serif" font-size="10.00">::isPT1000Address</text>
</a>
</g>
</g>
<!-- Node20&#45;&gt;Node22 -->
<g id="edge23_Node000020_Node000022" class="edge">
<title>Node20&#45;&gt;Node22</title>
<g id="a_edge23_Node000020_Node000022"><a xlink:title=" ">
<path fill="none" stroke="#63b8ff" d="M1153.5,-549.72C1165.92,-547.89 1179.14,-545.93 1191.85,-544.06"/>
<polygon fill="#63b8ff" stroke="#63b8ff" points="1191.99,-547.57 1201.37,-542.65 1190.96,-540.65 1191.99,-547.57"/>
</a>
</g>
</g>
<!-- Node26 -->
<g id="Node000026" class="node">
<title>Node26</title>
<g id="a_Node000026"><a xlink:href="class_temperature_controller.html#af58201023d15de003d4f1b9a9771a9e3" target="_top" xlink:title="Get list of active alarms.">
<polygon fill="white" stroke="#666666" points="810.12,-375.5 698.12,-375.5 698.12,-345 810.12,-345 810.12,-375.5"/>
<text xml:space="preserve" text-anchor="start" x="706.12" y="-362" font-family="Helvetica,sans-Serif" font-size="10.00">TemperatureController</text>
<text xml:space="preserve" text-anchor="middle" x="754.12" y="-350.75" font-family="Helvetica,sans-Serif" font-size="10.00">::getActiveAlarms</text>
</a>
</g>
</g>
<!-- Node25&#45;&gt;Node26 -->
<g id="edge29_Node000025_Node000026" class="edge">
<title>Node25&#45;&gt;Node26</title>
<g id="a_edge29_Node000025_Node000026"><a xlink:title=" ">
<path fill="none" stroke="#63b8ff" d="M611.24,-354.55C634.76,-355.5 662.14,-356.6 686.54,-357.58"/>
<polygon fill="#63b8ff" stroke="#63b8ff" points="686.23,-361.07 696.37,-357.97 686.52,-354.07 686.23,-361.07"/>
</a>
</g>
</g>
<!-- Node27 -->
<g id="Node000027" class="node">
<title>Node27</title>
<g id="a_Node000027"><a xlink:href="class_alarm.html#a7a4a3290a6a659542f82fe08a96736a8" target="_top" xlink:title="Get the alarm creation timestamp.">
<polygon fill="white" stroke="#666666" points="809,-326.88 699.25,-326.88 699.25,-307.62 809,-307.62 809,-326.88"/>
<text xml:space="preserve" text-anchor="middle" x="754.12" y="-313.38" font-family="Helvetica,sans-Serif" font-size="10.00">Alarm::getTimestamp</text>
</a>
</g>
</g>
<!-- Node25&#45;&gt;Node27 -->
<g id="edge30_Node000025_Node000027" class="edge">
<title>Node25&#45;&gt;Node27</title>
<g id="a_edge30_Node000025_Node000027"><a xlink:title=" ">
<path fill="none" stroke="#63b8ff" d="M611.24,-342.17C635.17,-337.97 663.09,-333.07 687.8,-328.73"/>
<polygon fill="#63b8ff" stroke="#63b8ff" points="688.17,-332.21 697.41,-327.04 686.96,-325.32 688.17,-332.21"/>
</a>
</g>
</g>
<!-- Node28&#45;&gt;Node13 -->
<g id="edge33_Node000028_Node000013" class="edge">
<title>Node28&#45;&gt;Node13</title>
<g id="a_edge33_Node000028_Node000013"><a xlink:title=" ">
<path fill="none" stroke="#63b8ff" d="M260.33,-281.1C391.52,-280.73 721.07,-279.82 862.78,-279.43"/>
<polygon fill="#63b8ff" stroke="#63b8ff" points="862.36,-282.93 872.35,-279.41 862.34,-275.93 862.36,-282.93"/>
</a>
</g>
</g>
<!-- Node29 -->
<g id="Node000029" class="node">
<title>Node29</title>
<g id="a_Node000029"><a xlink:href="class_logger_manager.html#a5c1373ccc47f4112b596fe6f84fbbc21" target="_top" xlink:title="Log informational message (static convenience method)">
<polygon fill="white" stroke="#666666" points="418.12,-252.88 313.62,-252.88 313.62,-233.62 418.12,-233.62 418.12,-252.88"/>
<text xml:space="preserve" text-anchor="middle" x="365.88" y="-239.38" font-family="Helvetica,sans-Serif" font-size="10.00">LoggerManager::info</text>
</a>
</g>
</g>
<!-- Node28&#45;&gt;Node29 -->
<g id="edge34_Node000028_Node000029" class="edge">
<title>Node28&#45;&gt;Node29</title>
<g id="a_edge34_Node000028_Node000029"><a xlink:title=" ">
<path fill="none" stroke="#63b8ff" d="M260.47,-268.07C276.96,-264.15 294.98,-259.86 311.34,-255.97"/>
<polygon fill="#63b8ff" stroke="#63b8ff" points="311.97,-259.42 320.89,-253.7 310.35,-252.61 311.97,-259.42"/>
</a>
</g>
</g>
<!-- Node30&#45;&gt;Node1 -->
<g id="edge36_Node000030_Node000001" class="edge">
<title>Node30&#45;&gt;Node1</title>
<g id="a_edge36_Node000030_Node000001"><a xlink:title=" ">
<path fill="none" stroke="#63b8ff" d="M147.73,-344.82C139.82,-344.98 131.62,-345.04 123.53,-344.98"/>
<polygon fill="#63b8ff" stroke="#63b8ff" points="123.76,-341.48 113.71,-344.84 123.66,-348.48 123.76,-341.48"/>
</a>
</g>
</g>
<!-- Node31&#45;&gt;Node18 -->
<g id="edge39_Node000031_Node000018" class="edge">
<title>Node31&#45;&gt;Node18</title>
<g id="a_edge39_Node000031_Node000018"><a xlink:title=" ">
<path fill="none" stroke="#63b8ff" d="M609.15,-390.86C670.18,-382.47 768.95,-378.31 838.25,-422.25 886.82,-453.04 911.97,-519.56 922.7,-556.74"/>
<polygon fill="#63b8ff" stroke="#63b8ff" points="919.28,-557.51 925.29,-566.24 926.03,-555.67 919.28,-557.51"/>
</a>
</g>
</g>
<!-- Node31&#45;&gt;Node26 -->
<g id="edge38_Node000031_Node000026" class="edge">
<title>Node31&#45;&gt;Node26</title>
<g id="a_edge38_Node000031_Node000026"><a xlink:title=" ">
<path fill="none" stroke="#63b8ff" d="M609.11,-389.88C633.19,-384.93 661.62,-379.08 686.82,-373.89"/>
<polygon fill="#63b8ff" stroke="#63b8ff" points="687.21,-377.39 696.3,-371.94 685.8,-370.53 687.21,-377.39"/>
</a>
</g>
</g>
<!-- Node33 -->
<g id="Node000033" class="node">
<title>Node33</title>
<g id="a_Node000033"><a xlink:href="class_logger_manager.html#aef24f00186213fa78be3b104a50d58e6" target="_top" xlink:title="Log error message (static convenience method)">
<polygon fill="white" stroke="#666666" points="808.25,-59.88 700,-59.88 700,-40.62 808.25,-40.62 808.25,-59.88"/>
<text xml:space="preserve" text-anchor="middle" x="754.12" y="-46.38" font-family="Helvetica,sans-Serif" font-size="10.00">LoggerManager::error</text>
</a>
</g>
</g>
<!-- Node32&#45;&gt;Node33 -->
<g id="edge41_Node000032_Node000033" class="edge">
<title>Node32&#45;&gt;Node33</title>
<g id="a_edge41_Node000032_Node000033"><a xlink:title=" ">
<path fill="none" stroke="#63b8ff" d="M260.32,-185.11C368,-155.64 604.07,-91.04 705.39,-63.31"/>
<polygon fill="#63b8ff" stroke="#63b8ff" points="706.02,-66.77 714.74,-60.75 704.17,-60.02 706.02,-66.77"/>
</a>
</g>
</g>
<!-- Node34 -->
<g id="Node000034" class="node">
<title>Node34</title>
<g id="a_Node000034"><a xlink:href="class_temperature_controller.html#a01e04714a1712aa10c34276850971a12" target="_top" xlink:title="Get bus number for a sensor.">
<polygon fill="white" stroke="#666666" points="421.88,-215.5 309.88,-215.5 309.88,-185 421.88,-185 421.88,-215.5"/>
<text xml:space="preserve" text-anchor="start" x="317.88" y="-202" font-family="Helvetica,sans-Serif" font-size="10.00">TemperatureController</text>
<text xml:space="preserve" text-anchor="middle" x="365.88" y="-190.75" font-family="Helvetica,sans-Serif" font-size="10.00">::getSensorBus</text>
</a>
</g>
</g>
<!-- Node32&#45;&gt;Node34 -->
<g id="edge42_Node000032_Node000034" class="edge">
<title>Node32&#45;&gt;Node34</title>
<g id="a_edge42_Node000032_Node000034"><a xlink:title=" ">
<path fill="none" stroke="#63b8ff" d="M260.47,-200.25C272.62,-200.25 285.61,-200.25 298.15,-200.25"/>
<polygon fill="#63b8ff" stroke="#63b8ff" points="297.99,-203.75 307.99,-200.25 297.99,-196.75 297.99,-203.75"/>
</a>
</g>
</g>
<!-- Node35 -->
<g id="Node000035" class="node">
<title>Node35</title>
<g id="a_Node000035"><a xlink:href="class_sensor.html#ac42da3a37b0d6a9622344fe83f4c9047" target="_top" xlink:title="Get OneWire bus pin.">
<polygon fill="white" stroke="#666666" points="612.25,-215.88 493.5,-215.88 493.5,-196.62 612.25,-196.62 612.25,-215.88"/>
<text xml:space="preserve" text-anchor="middle" x="552.88" y="-202.38" font-family="Helvetica,sans-Serif" font-size="10.00">Sensor::getOneWirePin</text>
</a>
</g>
</g>
<!-- Node34&#45;&gt;Node35 -->
<g id="edge43_Node000034_Node000035" class="edge">
<title>Node34&#45;&gt;Node35</title>
<g id="a_edge43_Node000034_Node000035"><a xlink:title=" ">
<path fill="none" stroke="#63b8ff" d="M422.13,-202.04C440.82,-202.65 461.95,-203.33 481.64,-203.97"/>
<polygon fill="#63b8ff" stroke="#63b8ff" points="481.42,-207.47 491.53,-204.29 481.65,-200.47 481.42,-207.47"/>
</a>
</g>
</g>
<!-- Node36 -->
<g id="Node000036" class="node">
<title>Node36</title>
<g id="a_Node000036"><a xlink:href="class_sensor.html#a6f57825e90b759ccdb9fe07b3a36953d" target="_top" xlink:title="Get PT1000 chip select pin.">
<polygon fill="white" stroke="#666666" points="634,-178.88 471.75,-178.88 471.75,-159.62 634,-159.62 634,-178.88"/>
<text xml:space="preserve" text-anchor="middle" x="552.88" y="-165.38" font-family="Helvetica,sans-Serif" font-size="10.00">Sensor::getPT1000ChipSelectPin</text>
</a>
</g>
</g>
<!-- Node34&#45;&gt;Node36 -->
<g id="edge44_Node000034_Node000036" class="edge">
<title>Node34&#45;&gt;Node36</title>
<g id="a_edge44_Node000034_Node000036"><a xlink:title=" ">
<path fill="none" stroke="#63b8ff" d="M422.13,-190.99C440.47,-187.92 461.14,-184.45 480.51,-181.21"/>
<polygon fill="#63b8ff" stroke="#63b8ff" points="480.97,-184.68 490.25,-179.58 479.81,-177.78 480.97,-184.68"/>
</a>
</g>
</g>
<!-- Node37 -->
<g id="Node000037" class="node">
<title>Node37</title>
<g id="a_Node000037"><a xlink:href="class_sensor.html#a0f6f095e7cfdfffb2a395dfdae7cfa53" target="_top" xlink:title="Get sensor type.">
<polygon fill="white" stroke="#666666" points="596.5,-252.88 509.25,-252.88 509.25,-233.62 596.5,-233.62 596.5,-252.88"/>
<text xml:space="preserve" text-anchor="middle" x="552.88" y="-239.38" font-family="Helvetica,sans-Serif" font-size="10.00">Sensor::getType</text>
</a>
</g>
</g>
<!-- Node34&#45;&gt;Node37 -->
<g id="edge45_Node000034_Node000037" class="edge">
<title>Node34&#45;&gt;Node37</title>
<g id="a_edge45_Node000034_Node000037"><a xlink:title=" ">
<path fill="none" stroke="#63b8ff" d="M422.36,-213.62C438.3,-217.42 455.7,-221.54 471.75,-225.25 480.25,-227.22 489.26,-229.27 498.05,-231.26"/>
<polygon fill="#63b8ff" stroke="#63b8ff" points="497.02,-234.62 507.54,-233.4 498.56,-227.79 497.02,-234.62"/>
</a>
</g>
</g>
<!-- Node39 -->
<g id="Node000039" class="node">
<title>Node39</title>
<g id="a_Node000039"><a xlink:href="class_temperature_controller.html#aac890ae08b5eddcf272771ecdba61453" target="_top" xlink:title="Get relay actual state.">
<polygon fill="white" stroke="#666666" points="421.88,-30.5 309.88,-30.5 309.88,0 421.88,0 421.88,-30.5"/>
<text xml:space="preserve" text-anchor="start" x="317.88" y="-17" font-family="Helvetica,sans-Serif" font-size="10.00">TemperatureController</text>
<text xml:space="preserve" text-anchor="middle" x="365.88" y="-5.75" font-family="Helvetica,sans-Serif" font-size="10.00">::getRelayActualState</text>
</a>
</g>
</g>
<!-- Node38&#45;&gt;Node39 -->
<g id="edge47_Node000038_Node000039" class="edge">
<title>Node38&#45;&gt;Node39</title>
<g id="a_edge47_Node000038_Node000039"><a xlink:title=" ">
<path fill="none" stroke="#63b8ff" d="M243.7,-64.52C265.32,-55.73 292.48,-44.68 315.61,-35.28"/>
<polygon fill="#63b8ff" stroke="#63b8ff" points="316.91,-38.53 324.85,-31.52 314.27,-32.05 316.91,-38.53"/>
</a>
</g>
</g>
<!-- Node40 -->
<g id="Node000040" class="node">
<title>Node40</title>
<g id="a_Node000040"><a xlink:href="class_temperature_controller.html#a20a14014a639f3390dba82a6cd39d067" target="_top" xlink:title="Get relay commanded state.">
<polygon fill="white" stroke="#666666" points="435.75,-95.5 296,-95.5 296,-65 435.75,-65 435.75,-95.5"/>
<text xml:space="preserve" text-anchor="start" x="304" y="-82" font-family="Helvetica,sans-Serif" font-size="10.00">TemperatureController</text>
<text xml:space="preserve" text-anchor="middle" x="365.88" y="-70.75" font-family="Helvetica,sans-Serif" font-size="10.00">::getRelayCommandedState</text>
</a>
</g>
</g>
<!-- Node38&#45;&gt;Node40 -->
<g id="edge49_Node000038_Node000040" class="edge">
<title>Node38&#45;&gt;Node40</title>
<g id="a_edge49_Node000038_Node000040"><a xlink:title=" ">
<path fill="none" stroke="#63b8ff" d="M260.47,-80.25C268.19,-80.25 276.25,-80.25 284.32,-80.25"/>
<polygon fill="#63b8ff" stroke="#63b8ff" points="284.19,-83.75 294.19,-80.25 284.19,-76.75 284.19,-83.75"/>
</a>
</g>
</g>
<!-- Node39&#45;&gt;Node33 -->
<g id="edge48_Node000039_Node000033" class="edge">
<title>Node39&#45;&gt;Node33</title>
<g id="a_edge48_Node000039_Node000033"><a xlink:title=" ">
<path fill="none" stroke="#63b8ff" d="M422.33,-14.99C476.5,-15.34 561.19,-17.47 634,-26.25 655.91,-28.89 679.81,-33.38 700.41,-37.77"/>
<polygon fill="#63b8ff" stroke="#63b8ff" points="699.49,-41.15 710.01,-39.86 700.98,-34.31 699.49,-41.15"/>
</a>
</g>
</g>
<!-- Node40&#45;&gt;Node13 -->
<g id="edge50_Node000040_Node000013" class="edge">
<title>Node40&#45;&gt;Node13</title>
<g id="a_edge50_Node000040_Node000013"><a xlink:title=" ">
<path fill="none" stroke="#63b8ff" d="M436.1,-95.27C490.56,-107.82 567.99,-127.34 634,-150.25 726.84,-182.48 831.3,-231.22 887.71,-258.64"/>
<polygon fill="#63b8ff" stroke="#63b8ff" points="886.12,-261.76 896.64,-263 889.19,-255.47 886.12,-261.76"/>
</a>
</g>
</g>
<!-- Node41 -->
<g id="Node000041" class="node">
<title>Node41</title>
<g id="a_Node000041"><a xlink:href="class_temperature_controller.html#a61ff288cbeaa86dc21c610c778dba64e" target="_top" xlink:title="Get relay control mode.">
<polygon fill="white" stroke="#666666" points="611.12,-65.5 494.62,-65.5 494.62,-35 611.12,-35 611.12,-65.5"/>
<text xml:space="preserve" text-anchor="start" x="502.62" y="-52" font-family="Helvetica,sans-Serif" font-size="10.00">TemperatureController</text>
<text xml:space="preserve" text-anchor="middle" x="552.88" y="-40.75" font-family="Helvetica,sans-Serif" font-size="10.00">::getRelayControlMode</text>
</a>
</g>
</g>
<!-- Node40&#45;&gt;Node41 -->
<g id="edge51_Node000040_Node000041" class="edge">
<title>Node40&#45;&gt;Node41</title>
<g id="a_edge51_Node000040_Node000041"><a xlink:title=" ">
<path fill="none" stroke="#63b8ff" d="M436.03,-69.04C451.47,-66.53 467.84,-63.88 483.26,-61.38"/>
<polygon fill="#63b8ff" stroke="#63b8ff" points="483.49,-64.88 492.8,-59.83 482.37,-57.98 483.49,-64.88"/>
</a>
</g>
</g>
<!-- Node41&#45;&gt;Node33 -->
<g id="edge52_Node000041_Node000033" class="edge">
<title>Node41&#45;&gt;Node33</title>
<g id="a_edge52_Node000041_Node000033"><a xlink:title=" ">
<path fill="none" stroke="#63b8ff" d="M611.51,-50.25C635.52,-50.25 663.51,-50.25 688.24,-50.25"/>
<polygon fill="#63b8ff" stroke="#63b8ff" points="688.2,-53.75 698.2,-50.25 688.2,-46.75 688.2,-53.75"/>
</a>
</g>
</g>
</g>
</svg>
