<?xml version="1.0" encoding="UTF-8" standalone="no"?>
<!DOCTYPE svg PUBLIC "-//W3C//DTD SVG 1.1//EN"
 "http://www.w3.org/Graphics/SVG/1.1/DTD/svg11.dtd">
<!-- Generated by graphviz version 13.1.0 (20250701.0955)
 -->
<!-- Title: Alarm::resolve Pages: 1 -->
<svg width="394pt" height="101pt"
 viewBox="0.00 0.00 394.00 101.00" xmlns="http://www.w3.org/2000/svg" xmlns:xlink="http://www.w3.org/1999/xlink">
<g id="graph0" class="graph" transform="scale(1 1) rotate(0) translate(4 97.25)">
<title>Alarm::resolve</title>
<!-- Node1 -->
<g id="Node000001" class="node">
<title>Node1</title>
<g id="a_Node000001"><a xlink:title="Resolve the alarm completely.">
<polygon fill="#999999" stroke="#666666" points="79,-56.25 0,-56.25 0,-37 79,-37 79,-56.25"/>
<text xml:space="preserve" text-anchor="middle" x="39.5" y="-42.75" font-family="Helvetica,sans-Serif" font-size="10.00">Alarm::resolve</text>
</a>
</g>
</g>
<!-- Node2 -->
<g id="Node000002" class="node">
<title>Node2</title>
<g id="a_Node000002"><a xlink:href="class_alarm.html#a11b2da560dbc8653fa9dec671a78b980" target="_top" xlink:title="Update the alarm display message.">
<polygon fill="white" stroke="#666666" points="236.75,-93.25 115,-93.25 115,-74 236.75,-74 236.75,-93.25"/>
<text xml:space="preserve" text-anchor="middle" x="175.88" y="-79.75" font-family="Helvetica,sans-Serif" font-size="10.00">Alarm::_updateMessage</text>
</a>
</g>
</g>
<!-- Node1&#45;&gt;Node2 -->
<g id="edge1_Node000001_Node000002" class="edge">
<title>Node1&#45;&gt;Node2</title>
<g id="a_edge1_Node000001_Node000002"><a xlink:title=" ">
<path fill="none" stroke="#63b8ff" d="M77.22,-56.74C92.62,-60.98 110.74,-65.97 127.16,-70.49"/>
<polygon fill="#63b8ff" stroke="#63b8ff" points="126.17,-73.84 136.74,-73.13 128.03,-67.1 126.17,-73.84"/>
</a>
</g>
</g>
<!-- Node4 -->
<g id="Node000004" class="node">
<title>Node4</title>
<g id="a_Node000004"><a xlink:href="class_alarm.html#abd578ec75a5ac9bce00b7ce7207c5d8c" target="_top" xlink:title="Get alarm type as string.">
<polygon fill="white" stroke="#666666" points="229.62,-56.25 122.12,-56.25 122.12,-37 229.62,-37 229.62,-56.25"/>
<text xml:space="preserve" text-anchor="middle" x="175.88" y="-42.75" font-family="Helvetica,sans-Serif" font-size="10.00">Alarm::getTypeString</text>
</a>
</g>
</g>
<!-- Node1&#45;&gt;Node4 -->
<g id="edge3_Node000001_Node000004" class="edge">
<title>Node1&#45;&gt;Node4</title>
<g id="a_edge3_Node000001_Node000004"><a xlink:title=" ">
<path fill="none" stroke="#63b8ff" d="M79.37,-46.62C89.16,-46.62 99.93,-46.62 110.6,-46.62"/>
<polygon fill="#63b8ff" stroke="#63b8ff" points="110.58,-50.13 120.58,-46.63 110.58,-43.13 110.58,-50.13"/>
</a>
</g>
</g>
<!-- Node5 -->
<g id="Node000005" class="node">
<title>Node5</title>
<g id="a_Node000005"><a xlink:href="class_logger_manager.html#a5c1373ccc47f4112b596fe6f84fbbc21" target="_top" xlink:title="Log informational message (static convenience method)">
<polygon fill="white" stroke="#666666" points="228.12,-19.25 123.62,-19.25 123.62,0 228.12,0 228.12,-19.25"/>
<text xml:space="preserve" text-anchor="middle" x="175.88" y="-5.75" font-family="Helvetica,sans-Serif" font-size="10.00">LoggerManager::info</text>
</a>
</g>
</g>
<!-- Node1&#45;&gt;Node5 -->
<g id="edge4_Node000001_Node000005" class="edge">
<title>Node1&#45;&gt;Node5</title>
<g id="a_edge4_Node000001_Node000005"><a xlink:title=" ">
<path fill="none" stroke="#63b8ff" d="M77.22,-36.51C92.62,-32.27 110.74,-27.28 127.16,-22.76"/>
<polygon fill="#63b8ff" stroke="#63b8ff" points="128.03,-26.15 136.74,-20.12 126.17,-19.41 128.03,-26.15"/>
</a>
</g>
</g>
<!-- Node3 -->
<g id="Node000003" class="node">
<title>Node3</title>
<g id="a_Node000003"><a xlink:href="class_alarm.html#a480e1d6d474da0cd4e5dd557e41cb87e" target="_top" xlink:title="Get formatted display text for UI.">
<polygon fill="white" stroke="#666666" points="385.5,-93.25 272.75,-93.25 272.75,-74 385.5,-74 385.5,-93.25"/>
<text xml:space="preserve" text-anchor="middle" x="329.12" y="-79.75" font-family="Helvetica,sans-Serif" font-size="10.00">Alarm::getDisplayText</text>
</a>
</g>
</g>
<!-- Node2&#45;&gt;Node3 -->
<g id="edge2_Node000002_Node000003" class="edge">
<title>Node2&#45;&gt;Node3</title>
<g id="a_edge2_Node000002_Node000003"><a xlink:title=" ">
<path fill="none" stroke="#63b8ff" d="M237.09,-83.62C245.04,-83.62 253.23,-83.62 261.28,-83.62"/>
<polygon fill="#63b8ff" stroke="#63b8ff" points="261.02,-87.13 271.02,-83.63 261.02,-80.13 261.02,-87.13"/>
</a>
</g>
</g>
</g>
</svg>
