<?xml version="1.0" encoding="UTF-8" standalone="no"?>
<!DOCTYPE svg PUBLIC "-//W3C//DTD SVG 1.1//EN"
 "http://www.w3.org/Graphics/SVG/1.1/DTD/svg11.dtd">
<!-- Generated by graphviz version 13.1.0 (20250701.0955)
 -->
<!-- Title: IndicatorInterface::_readPCF Pages: 1 -->
<svg width="483pt" height="136pt"
 viewBox="0.00 0.00 483.00 136.00" xmlns="http://www.w3.org/2000/svg" xmlns:xlink="http://www.w3.org/1999/xlink">
<g id="graph0" class="graph" transform="scale(1 1) rotate(0) translate(4 131.5)">
<title>IndicatorInterface::_readPCF</title>
<!-- Node1 -->
<g id="Node000001" class="node">
<title>Node1</title>
<g id="a_Node000001"><a xlink:title=" ">
<polygon fill="#999999" stroke="#666666" points="475,-54.5 383.25,-54.5 383.25,-24 475,-24 475,-54.5"/>
<text xml:space="preserve" text-anchor="start" x="391.25" y="-41" font-family="Helvetica,sans-Serif" font-size="10.00">IndicatorInterface</text>
<text xml:space="preserve" text-anchor="middle" x="429.12" y="-29.75" font-family="Helvetica,sans-Serif" font-size="10.00">::_readPCF</text>
</a>
</g>
</g>
<!-- Node2 -->
<g id="Node000002" class="node">
<title>Node2</title>
<g id="a_Node000002"><a xlink:href="class_indicator_interface.html#aea37934542bbe7b6c50941dff4646fef" target="_top" xlink:title=" ">
<polygon fill="white" stroke="#666666" points="347.25,-79.5 255.5,-79.5 255.5,-49 347.25,-49 347.25,-79.5"/>
<text xml:space="preserve" text-anchor="start" x="263.5" y="-66" font-family="Helvetica,sans-Serif" font-size="10.00">IndicatorInterface</text>
<text xml:space="preserve" text-anchor="middle" x="301.38" y="-54.75" font-family="Helvetica,sans-Serif" font-size="10.00">::_updateState</text>
</a>
</g>
</g>
<!-- Node1&#45;&gt;Node2 -->
<g id="edge1_Node000001_Node000002" class="edge">
<title>Node1&#45;&gt;Node2</title>
<g id="a_edge1_Node000001_Node000002"><a xlink:title=" ">
<path fill="none" stroke="#63b8ff" d="M372.04,-50.4C363.84,-52.03 355.48,-53.69 347.53,-55.27"/>
<polygon fill="#63b8ff" stroke="#63b8ff" points="372.47,-53.88 381.6,-48.5 371.11,-47.02 372.47,-53.88"/>
</a>
</g>
</g>
<!-- Node7 -->
<g id="Node000007" class="node">
<title>Node7</title>
<g id="a_Node000007"><a xlink:href="class_indicator_interface.html#a6083d92cd6b29de3ceb7a9619b9cb03b" target="_top" xlink:title=" ">
<polygon fill="white" stroke="#666666" points="347.25,-30.5 255.5,-30.5 255.5,0 347.25,0 347.25,-30.5"/>
<text xml:space="preserve" text-anchor="start" x="263.5" y="-17" font-family="Helvetica,sans-Serif" font-size="10.00">IndicatorInterface</text>
<text xml:space="preserve" text-anchor="middle" x="301.38" y="-5.75" font-family="Helvetica,sans-Serif" font-size="10.00">::begin</text>
</a>
</g>
</g>
<!-- Node1&#45;&gt;Node7 -->
<g id="edge6_Node000001_Node000007" class="edge">
<title>Node1&#45;&gt;Node7</title>
<g id="a_edge6_Node000001_Node000007"><a xlink:title=" ">
<path fill="none" stroke="#63b8ff" d="M372.04,-28.55C363.84,-26.98 355.48,-25.38 347.53,-23.87"/>
<polygon fill="#63b8ff" stroke="#63b8ff" points="371.12,-31.93 381.59,-30.37 372.43,-25.06 371.12,-31.93"/>
</a>
</g>
</g>
<!-- Node3 -->
<g id="Node000003" class="node">
<title>Node3</title>
<g id="a_Node000003"><a xlink:href="class_indicator_interface.html#a6e69fba966a59153449facfac1e04057" target="_top" xlink:title=" ">
<polygon fill="white" stroke="#666666" points="219.5,-103.5 127.75,-103.5 127.75,-73 219.5,-73 219.5,-103.5"/>
<text xml:space="preserve" text-anchor="start" x="135.75" y="-90" font-family="Helvetica,sans-Serif" font-size="10.00">IndicatorInterface</text>
<text xml:space="preserve" text-anchor="middle" x="173.62" y="-78.75" font-family="Helvetica,sans-Serif" font-size="10.00">::getCurrentState</text>
</a>
</g>
</g>
<!-- Node2&#45;&gt;Node3 -->
<g id="edge2_Node000002_Node000003" class="edge">
<title>Node2&#45;&gt;Node3</title>
<g id="a_edge2_Node000002_Node000003"><a xlink:title=" ">
<path fill="none" stroke="#63b8ff" d="M244.29,-74.95C236.09,-76.52 227.73,-78.12 219.78,-79.63"/>
<polygon fill="#63b8ff" stroke="#63b8ff" points="244.68,-78.44 253.84,-73.13 243.37,-71.57 244.68,-78.44"/>
</a>
</g>
</g>
<!-- Node6 -->
<g id="Node000006" class="node">
<title>Node6</title>
<g id="a_Node000006"><a xlink:href="class_indicator_interface.html#a4586496158d0d102742463c908d9b2c3" target="_top" xlink:title=" ">
<polygon fill="white" stroke="#666666" points="219.5,-54.5 127.75,-54.5 127.75,-24 219.5,-24 219.5,-54.5"/>
<text xml:space="preserve" text-anchor="start" x="135.75" y="-41" font-family="Helvetica,sans-Serif" font-size="10.00">IndicatorInterface</text>
<text xml:space="preserve" text-anchor="middle" x="173.62" y="-29.75" font-family="Helvetica,sans-Serif" font-size="10.00">::handleInterrupt</text>
</a>
</g>
</g>
<!-- Node2&#45;&gt;Node6 -->
<g id="edge5_Node000002_Node000006" class="edge">
<title>Node2&#45;&gt;Node6</title>
<g id="a_edge5_Node000002_Node000006"><a xlink:title=" ">
<path fill="none" stroke="#63b8ff" d="M244.29,-53.1C236.09,-51.47 227.73,-49.81 219.78,-48.23"/>
<polygon fill="#63b8ff" stroke="#63b8ff" points="243.36,-56.48 253.85,-55 244.72,-49.62 243.36,-56.48"/>
</a>
</g>
</g>
<!-- Node4 -->
<g id="Node000004" class="node">
<title>Node4</title>
<g id="a_Node000004"><a xlink:href="class_indicator_interface.html#a21ce0e3bc0531d92f815059890c66c4c" target="_top" xlink:title=" ">
<polygon fill="white" stroke="#666666" points="91.75,-127.5 0,-127.5 0,-97 91.75,-97 91.75,-127.5"/>
<text xml:space="preserve" text-anchor="start" x="8" y="-114" font-family="Helvetica,sans-Serif" font-size="10.00">IndicatorInterface</text>
<text xml:space="preserve" text-anchor="middle" x="45.88" y="-102.75" font-family="Helvetica,sans-Serif" font-size="10.00">::printPortStates</text>
</a>
</g>
</g>
<!-- Node3&#45;&gt;Node4 -->
<g id="edge3_Node000003_Node000004" class="edge">
<title>Node3&#45;&gt;Node4</title>
<g id="a_edge3_Node000003_Node000004"><a xlink:title=" ">
<path fill="none" stroke="#63b8ff" d="M116.54,-98.95C108.34,-100.52 99.98,-102.12 92.03,-103.63"/>
<polygon fill="#63b8ff" stroke="#63b8ff" points="116.93,-102.44 126.09,-97.13 115.62,-95.57 116.93,-102.44"/>
</a>
</g>
</g>
<!-- Node5 -->
<g id="Node000005" class="node">
<title>Node5</title>
<g id="a_Node000005"><a xlink:href="class_indicator_interface.html#a9e7d2c4cadd548e3fe2a16e41f8ae8d4" target="_top" xlink:title=" ">
<polygon fill="white" stroke="#666666" points="91.75,-78.5 0,-78.5 0,-48 91.75,-48 91.75,-78.5"/>
<text xml:space="preserve" text-anchor="start" x="8" y="-65" font-family="Helvetica,sans-Serif" font-size="10.00">IndicatorInterface</text>
<text xml:space="preserve" text-anchor="middle" x="45.88" y="-53.75" font-family="Helvetica,sans-Serif" font-size="10.00">::readPort</text>
</a>
</g>
</g>
<!-- Node3&#45;&gt;Node5 -->
<g id="edge4_Node000003_Node000005" class="edge">
<title>Node3&#45;&gt;Node5</title>
<g id="a_edge4_Node000003_Node000005"><a xlink:title=" ">
<path fill="none" stroke="#63b8ff" d="M116.54,-77.1C108.34,-75.47 99.98,-73.81 92.03,-72.23"/>
<polygon fill="#63b8ff" stroke="#63b8ff" points="115.61,-80.48 126.1,-79 116.97,-73.62 115.61,-80.48"/>
</a>
</g>
</g>
</g>
</svg>
