<?xml version="1.0" encoding="UTF-8" standalone="no"?>
<!DOCTYPE svg PUBLIC "-//W3C//DTD SVG 1.1//EN"
 "http://www.w3.org/Graphics/SVG/1.1/DTD/svg11.dtd">
<!-- Generated by graphviz version 13.1.0 (20250701.0955)
 -->
<!-- Title: TemperatureController::_handleSystemStatusMode Pages: 1 -->
<svg width="831pt" height="284pt"
 viewBox="0.00 0.00 831.00 284.00" xmlns="http://www.w3.org/2000/svg" xmlns:xlink="http://www.w3.org/1999/xlink">
<g id="graph0" class="graph" transform="scale(1 1) rotate(0) translate(4 279.5)">
<title>TemperatureController::_handleSystemStatusMode</title>
<!-- Node1 -->
<g id="Node000001" class="node">
<title>Node1</title>
<g id="a_Node000001"><a xlink:title="Handle system status mode display.">
<polygon fill="#999999" stroke="#666666" points="142,-152.5 0,-152.5 0,-122 142,-122 142,-152.5"/>
<text xml:space="preserve" text-anchor="start" x="8" y="-139" font-family="Helvetica,sans-Serif" font-size="10.00">TemperatureController</text>
<text xml:space="preserve" text-anchor="middle" x="71" y="-127.75" font-family="Helvetica,sans-Serif" font-size="10.00">::_handleSystemStatusMode</text>
</a>
</g>
</g>
<!-- Node2 -->
<g id="Node000002" class="node">
<title>Node2</title>
<g id="a_Node000002"><a xlink:href="class_temperature_controller.html#a3948ceaf046b5f06afcc9083433f532c" target="_top" xlink:title="Display alarm summary by priority.">
<polygon fill="white" stroke="#666666" points="346.25,-275.5 178,-275.5 178,-245 346.25,-245 346.25,-275.5"/>
<text xml:space="preserve" text-anchor="start" x="186" y="-262" font-family="Helvetica,sans-Serif" font-size="10.00">TemperatureController</text>
<text xml:space="preserve" text-anchor="middle" x="262.12" y="-250.75" font-family="Helvetica,sans-Serif" font-size="10.00">::_displayAlarmSummaryByPriority</text>
</a>
</g>
</g>
<!-- Node1&#45;&gt;Node2 -->
<g id="edge1_Node000001_Node000002" class="edge">
<title>Node1&#45;&gt;Node2</title>
<g id="a_edge1_Node000001_Node000002"><a xlink:title=" ">
<path fill="none" stroke="#63b8ff" d="M84.74,-152.83C103.15,-174.38 139.27,-213.12 178,-235.25 181.14,-237.04 184.42,-238.72 187.79,-240.29"/>
<polygon fill="#63b8ff" stroke="#63b8ff" points="186.14,-243.39 196.72,-244.07 188.88,-236.95 186.14,-243.39"/>
</a>
</g>
</g>
<!-- Node4 -->
<g id="Node000004" class="node">
<title>Node4</title>
<g id="a_Node000004"><a xlink:href="class_temperature_controller.html#ab5e076b045677678390603e9a805e4db" target="_top" xlink:title="Display alarm summary by type.">
<polygon fill="white" stroke="#666666" points="341.38,-226.5 182.88,-226.5 182.88,-196 341.38,-196 341.38,-226.5"/>
<text xml:space="preserve" text-anchor="start" x="190.88" y="-213" font-family="Helvetica,sans-Serif" font-size="10.00">TemperatureController</text>
<text xml:space="preserve" text-anchor="middle" x="262.12" y="-201.75" font-family="Helvetica,sans-Serif" font-size="10.00">::_displayAlarmSummaryByType</text>
</a>
</g>
</g>
<!-- Node1&#45;&gt;Node4 -->
<g id="edge3_Node000001_Node000004" class="edge">
<title>Node1&#45;&gt;Node4</title>
<g id="a_edge3_Node000001_Node000004"><a xlink:title=" ">
<path fill="none" stroke="#63b8ff" d="M102.58,-152.78C123.5,-163.06 152.03,-176.4 178,-186.25 183.24,-188.24 188.71,-190.17 194.23,-192.03"/>
<polygon fill="#63b8ff" stroke="#63b8ff" points="192.84,-195.26 203.43,-195.04 195.01,-188.61 192.84,-195.26"/>
</a>
</g>
</g>
<!-- Node5 -->
<g id="Node000005" class="node">
<title>Node5</title>
<g id="a_Node000005"><a xlink:href="class_temperature_controller.html#a5fc773a967cea261f21bbe86d90d2586" target="_top" xlink:title="Display Modbus status page.">
<polygon fill="white" stroke="#666666" points="322.62,-177.5 201.62,-177.5 201.62,-147 322.62,-147 322.62,-177.5"/>
<text xml:space="preserve" text-anchor="start" x="209.62" y="-164" font-family="Helvetica,sans-Serif" font-size="10.00">TemperatureController</text>
<text xml:space="preserve" text-anchor="middle" x="262.12" y="-152.75" font-family="Helvetica,sans-Serif" font-size="10.00">::_displayModbusStatus</text>
</a>
</g>
</g>
<!-- Node1&#45;&gt;Node5 -->
<g id="edge4_Node000001_Node000005" class="edge">
<title>Node1&#45;&gt;Node5</title>
<g id="a_edge4_Node000001_Node000005"><a xlink:title=" ">
<path fill="none" stroke="#63b8ff" d="M142.42,-146.56C157.97,-148.61 174.46,-150.79 190.03,-152.85"/>
<polygon fill="#63b8ff" stroke="#63b8ff" points="189.31,-156.29 199.69,-154.13 190.23,-149.35 189.31,-156.29"/>
</a>
</g>
</g>
<!-- Node6 -->
<g id="Node000006" class="node">
<title>Node6</title>
<g id="a_Node000006"><a xlink:href="class_temperature_controller.html#a2436c7043d97ca75c717db2b87326d90" target="_top" xlink:title="Display network info page.">
<polygon fill="white" stroke="#666666" points="318.12,-128.5 206.12,-128.5 206.12,-98 318.12,-98 318.12,-128.5"/>
<text xml:space="preserve" text-anchor="start" x="214.12" y="-115" font-family="Helvetica,sans-Serif" font-size="10.00">TemperatureController</text>
<text xml:space="preserve" text-anchor="middle" x="262.12" y="-103.75" font-family="Helvetica,sans-Serif" font-size="10.00">::_displayNetworkInfo</text>
</a>
</g>
</g>
<!-- Node1&#45;&gt;Node6 -->
<g id="edge5_Node000001_Node000006" class="edge">
<title>Node1&#45;&gt;Node6</title>
<g id="a_edge5_Node000001_Node000006"><a xlink:title=" ">
<path fill="none" stroke="#63b8ff" d="M142.42,-128.31C159.4,-126.16 177.5,-123.86 194.31,-121.73"/>
<polygon fill="#63b8ff" stroke="#63b8ff" points="194.73,-125.2 204.21,-120.47 193.85,-118.26 194.73,-125.2"/>
</a>
</g>
</g>
<!-- Node7 -->
<g id="Node000007" class="node">
<title>Node7</title>
<g id="a_Node000007"><a xlink:href="class_temperature_controller.html#a45d13ed72fd36b46820af631e4db958b" target="_top" xlink:title="Display system stats page.">
<polygon fill="white" stroke="#666666" points="319.62,-79.5 204.62,-79.5 204.62,-49 319.62,-49 319.62,-79.5"/>
<text xml:space="preserve" text-anchor="start" x="212.62" y="-66" font-family="Helvetica,sans-Serif" font-size="10.00">TemperatureController</text>
<text xml:space="preserve" text-anchor="middle" x="262.12" y="-54.75" font-family="Helvetica,sans-Serif" font-size="10.00">::_displaySystemStats</text>
</a>
</g>
</g>
<!-- Node1&#45;&gt;Node7 -->
<g id="edge6_Node000001_Node000007" class="edge">
<title>Node1&#45;&gt;Node7</title>
<g id="a_edge6_Node000001_Node000007"><a xlink:title=" ">
<path fill="none" stroke="#63b8ff" d="M103.54,-121.63C124.38,-111.65 152.46,-98.82 178,-89.25 183.33,-87.25 188.9,-85.3 194.52,-83.42"/>
<polygon fill="#63b8ff" stroke="#63b8ff" points="195.47,-86.79 203.9,-80.38 193.31,-80.13 195.47,-86.79"/>
</a>
</g>
</g>
<!-- Node15 -->
<g id="Node000015" class="node">
<title>Node15</title>
<g id="a_Node000015"><a xlink:href="class_temperature_controller.html#a3955f205bc33dda762cbe5c572cd4f21" target="_top" xlink:title="Switch to a new display section.">
<polygon fill="white" stroke="#666666" points="318.12,-30.5 206.12,-30.5 206.12,0 318.12,0 318.12,-30.5"/>
<text xml:space="preserve" text-anchor="start" x="214.12" y="-17" font-family="Helvetica,sans-Serif" font-size="10.00">TemperatureController</text>
<text xml:space="preserve" text-anchor="middle" x="262.12" y="-5.75" font-family="Helvetica,sans-Serif" font-size="10.00">::_switchToSection</text>
</a>
</g>
</g>
<!-- Node1&#45;&gt;Node15 -->
<g id="edge14_Node000001_Node000015" class="edge">
<title>Node1&#45;&gt;Node15</title>
<g id="a_edge14_Node000001_Node000015"><a xlink:title=" ">
<path fill="none" stroke="#63b8ff" d="M84.77,-121.83C103.23,-100.51 139.39,-62.18 178,-40.25 183.54,-37.1 189.52,-34.31 195.64,-31.85"/>
<polygon fill="#63b8ff" stroke="#63b8ff" points="196.44,-35.29 204.6,-28.53 194.01,-28.72 196.44,-35.29"/>
</a>
</g>
</g>
<!-- Node3 -->
<g id="Node000003" class="node">
<title>Node3</title>
<g id="a_Node000003"><a xlink:href="class_temperature_controller.html#a3022c7a72adb45a7800d5189eecdac4e" target="_top" xlink:title="Get total number of configured alarms.">
<polygon fill="white" stroke="#666666" points="494.25,-275.5 382.25,-275.5 382.25,-245 494.25,-245 494.25,-275.5"/>
<text xml:space="preserve" text-anchor="start" x="390.25" y="-262" font-family="Helvetica,sans-Serif" font-size="10.00">TemperatureController</text>
<text xml:space="preserve" text-anchor="middle" x="438.25" y="-250.75" font-family="Helvetica,sans-Serif" font-size="10.00">::getAlarmCount</text>
</a>
</g>
</g>
<!-- Node2&#45;&gt;Node3 -->
<g id="edge2_Node000002_Node000003" class="edge">
<title>Node2&#45;&gt;Node3</title>
<g id="a_edge2_Node000002_Node000003"><a xlink:title=" ">
<path fill="none" stroke="#63b8ff" d="M346.62,-260.25C354.71,-260.25 362.84,-260.25 370.74,-260.25"/>
<polygon fill="#63b8ff" stroke="#63b8ff" points="370.59,-263.75 380.59,-260.25 370.59,-256.75 370.59,-263.75"/>
</a>
</g>
</g>
<!-- Node8 -->
<g id="Node000008" class="node">
<title>Node8</title>
<g id="a_Node000008"><a xlink:href="class_temperature_controller.html#a9b4fe09d4c87dcf86e78b890012e1e72" target="_top" xlink:title="Get sensor bound to measurement point.">
<polygon fill="white" stroke="#666666" points="494.25,-128.5 382.25,-128.5 382.25,-98 494.25,-98 494.25,-128.5"/>
<text xml:space="preserve" text-anchor="start" x="390.25" y="-115" font-family="Helvetica,sans-Serif" font-size="10.00">TemperatureController</text>
<text xml:space="preserve" text-anchor="middle" x="438.25" y="-103.75" font-family="Helvetica,sans-Serif" font-size="10.00">::getBoundSensor</text>
</a>
</g>
</g>
<!-- Node7&#45;&gt;Node8 -->
<g id="edge7_Node000007_Node000008" class="edge">
<title>Node7&#45;&gt;Node8</title>
<g id="a_edge7_Node000007_Node000008"><a xlink:title=" ">
<path fill="none" stroke="#63b8ff" d="M318.7,-79.89C335.43,-84.6 353.95,-89.81 371.29,-94.69"/>
<polygon fill="#63b8ff" stroke="#63b8ff" points="369.88,-97.93 380.45,-97.27 371.77,-91.19 369.88,-97.93"/>
</a>
</g>
</g>
<!-- Node13 -->
<g id="Node000013" class="node">
<title>Node13</title>
<g id="a_Node000013"><a xlink:href="class_temperature_controller.html#a9ac5f76def1895a8c8f8f92ce8cd2e5c" target="_top" xlink:title="Get count of discovered DS18B20 sensors.">
<polygon fill="white" stroke="#666666" points="494.25,-79.5 382.25,-79.5 382.25,-49 494.25,-49 494.25,-79.5"/>
<text xml:space="preserve" text-anchor="start" x="390.25" y="-66" font-family="Helvetica,sans-Serif" font-size="10.00">TemperatureController</text>
<text xml:space="preserve" text-anchor="middle" x="438.25" y="-54.75" font-family="Helvetica,sans-Serif" font-size="10.00">::getDS18B20Count</text>
</a>
</g>
</g>
<!-- Node7&#45;&gt;Node13 -->
<g id="edge12_Node000007_Node000013" class="edge">
<title>Node7&#45;&gt;Node13</title>
<g id="a_edge12_Node000007_Node000013"><a xlink:title=" ">
<path fill="none" stroke="#63b8ff" d="M319.66,-64.25C335.88,-64.25 353.71,-64.25 370.48,-64.25"/>
<polygon fill="#63b8ff" stroke="#63b8ff" points="370.38,-67.75 380.38,-64.25 370.38,-60.75 370.38,-67.75"/>
</a>
</g>
</g>
<!-- Node14 -->
<g id="Node000014" class="node">
<title>Node14</title>
<g id="a_Node000014"><a xlink:href="class_temperature_controller.html#a6ab2ecc10c283d75d948ce6f1ad723a6" target="_top" xlink:title="Get count of discovered PT1000 sensors.">
<polygon fill="white" stroke="#666666" points="494.25,-30.5 382.25,-30.5 382.25,0 494.25,0 494.25,-30.5"/>
<text xml:space="preserve" text-anchor="start" x="390.25" y="-17" font-family="Helvetica,sans-Serif" font-size="10.00">TemperatureController</text>
<text xml:space="preserve" text-anchor="middle" x="438.25" y="-5.75" font-family="Helvetica,sans-Serif" font-size="10.00">::getPT1000Count</text>
</a>
</g>
</g>
<!-- Node7&#45;&gt;Node14 -->
<g id="edge13_Node000007_Node000014" class="edge">
<title>Node7&#45;&gt;Node14</title>
<g id="a_edge13_Node000007_Node000014"><a xlink:title=" ">
<path fill="none" stroke="#63b8ff" d="M318.7,-48.61C335.43,-43.9 353.95,-38.69 371.29,-33.81"/>
<polygon fill="#63b8ff" stroke="#63b8ff" points="371.77,-37.31 380.45,-31.23 369.88,-30.57 371.77,-37.31"/>
</a>
</g>
</g>
<!-- Node9 -->
<g id="Node000009" class="node">
<title>Node9</title>
<g id="a_Node000009"><a xlink:href="class_measurement_point.html#a81c7ae93a9314344967d0f31c6fefe2f" target="_top" xlink:title="Get pointer to bound sensor.">
<polygon fill="white" stroke="#666666" points="675.25,-152.5 530.25,-152.5 530.25,-122 675.25,-122 675.25,-152.5"/>
<text xml:space="preserve" text-anchor="start" x="538.25" y="-139" font-family="Helvetica,sans-Serif" font-size="10.00">MeasurementPoint::getBound</text>
<text xml:space="preserve" text-anchor="middle" x="602.75" y="-127.75" font-family="Helvetica,sans-Serif" font-size="10.00">Sensor</text>
</a>
</g>
</g>
<!-- Node8&#45;&gt;Node9 -->
<g id="edge8_Node000008_Node000009" class="edge">
<title>Node8&#45;&gt;Node9</title>
<g id="a_edge8_Node000008_Node000009"><a xlink:title=" ">
<path fill="none" stroke="#63b8ff" d="M494.72,-121.44C502.41,-122.58 510.44,-123.76 518.49,-124.95"/>
<polygon fill="#63b8ff" stroke="#63b8ff" points="517.96,-128.41 528.37,-126.41 518.99,-121.49 517.96,-128.41"/>
</a>
</g>
</g>
<!-- Node10 -->
<g id="Node000010" class="node">
<title>Node10</title>
<g id="a_Node000010"><a xlink:href="class_temperature_controller.html#a494f057c234b4ff7526bde271aec9267" target="_top" xlink:title="Get measurement point by address.">
<polygon fill="white" stroke="#666666" points="661.38,-103.5 544.12,-103.5 544.12,-73 661.38,-73 661.38,-103.5"/>
<text xml:space="preserve" text-anchor="start" x="552.12" y="-90" font-family="Helvetica,sans-Serif" font-size="10.00">TemperatureController</text>
<text xml:space="preserve" text-anchor="middle" x="602.75" y="-78.75" font-family="Helvetica,sans-Serif" font-size="10.00">::getMeasurementPoint</text>
</a>
</g>
</g>
<!-- Node8&#45;&gt;Node10 -->
<g id="edge9_Node000008_Node000010" class="edge">
<title>Node8&#45;&gt;Node10</title>
<g id="a_edge9_Node000008_Node000010"><a xlink:title=" ">
<path fill="none" stroke="#63b8ff" d="M494.72,-104.72C506.95,-102.83 520.05,-100.82 532.74,-98.87"/>
<polygon fill="#63b8ff" stroke="#63b8ff" points="532.91,-102.38 542.27,-97.4 531.85,-95.46 532.91,-102.38"/>
</a>
</g>
</g>
<!-- Node11 -->
<g id="Node000011" class="node">
<title>Node11</title>
<g id="a_Node000011"><a xlink:href="class_temperature_controller.html#ad322a5bab8d5788a586206004248f673" target="_top" xlink:title="Check if address is for DS18B20 sensor.">
<polygon fill="white" stroke="#666666" points="823.25,-128.5 711.25,-128.5 711.25,-98 823.25,-98 823.25,-128.5"/>
<text xml:space="preserve" text-anchor="start" x="719.25" y="-115" font-family="Helvetica,sans-Serif" font-size="10.00">TemperatureController</text>
<text xml:space="preserve" text-anchor="middle" x="767.25" y="-103.75" font-family="Helvetica,sans-Serif" font-size="10.00">::isDS18B20Address</text>
</a>
</g>
</g>
<!-- Node10&#45;&gt;Node11 -->
<g id="edge10_Node000010_Node000011" class="edge">
<title>Node10&#45;&gt;Node11</title>
<g id="a_edge10_Node000010_Node000011"><a xlink:title=" ">
<path fill="none" stroke="#63b8ff" d="M661.5,-97.13C673.92,-99.04 687.14,-101.08 699.85,-103.04"/>
<polygon fill="#63b8ff" stroke="#63b8ff" points="698.95,-106.44 709.37,-104.5 700.02,-99.52 698.95,-106.44"/>
</a>
</g>
</g>
<!-- Node12 -->
<g id="Node000012" class="node">
<title>Node12</title>
<g id="a_Node000012"><a xlink:href="class_temperature_controller.html#a13125ddcf29cb56d27403818543618af" target="_top" xlink:title="Check if address is for PT1000 sensor.">
<polygon fill="white" stroke="#666666" points="823.25,-79.5 711.25,-79.5 711.25,-49 823.25,-49 823.25,-79.5"/>
<text xml:space="preserve" text-anchor="start" x="719.25" y="-66" font-family="Helvetica,sans-Serif" font-size="10.00">TemperatureController</text>
<text xml:space="preserve" text-anchor="middle" x="767.25" y="-54.75" font-family="Helvetica,sans-Serif" font-size="10.00">::isPT1000Address</text>
</a>
</g>
</g>
<!-- Node10&#45;&gt;Node12 -->
<g id="edge11_Node000010_Node000012" class="edge">
<title>Node10&#45;&gt;Node12</title>
<g id="a_edge11_Node000010_Node000012"><a xlink:title=" ">
<path fill="none" stroke="#63b8ff" d="M661.5,-79.72C673.92,-77.89 687.14,-75.93 699.85,-74.06"/>
<polygon fill="#63b8ff" stroke="#63b8ff" points="699.99,-77.57 709.37,-72.65 698.96,-70.65 699.99,-77.57"/>
</a>
</g>
</g>
</g>
</svg>
