<?xml version="1.0" encoding="UTF-8" standalone="no"?>
<!DOCTYPE svg PUBLIC "-//W3C//DTD SVG 1.1//EN"
 "http://www.w3.org/Graphics/SVG/1.1/DTD/svg11.dtd">
<!-- Generated by graphviz version 13.1.0 (20250701.0955)
 -->
<!-- Title: ConfigManager::downloadAPI Pages: 1 -->
<svg width="555pt" height="334pt"
 viewBox="0.00 0.00 555.00 334.00" xmlns="http://www.w3.org/2000/svg" xmlns:xlink="http://www.w3.org/1999/xlink">
<g id="graph0" class="graph" transform="scale(1 1) rotate(0) translate(4 329.88)">
<title>ConfigManager::downloadAPI</title>
<!-- Node1 -->
<g id="Node000001" class="node">
<title>Node1</title>
<g id="a_Node000001"><a xlink:title="Setup file download API endpoints.">
<polygon fill="#999999" stroke="#666666" points="145.75,-163.25 0,-163.25 0,-144 145.75,-144 145.75,-163.25"/>
<text xml:space="preserve" text-anchor="middle" x="72.88" y="-149.75" font-family="Helvetica,sans-Serif" font-size="10.00">ConfigManager::downloadAPI</text>
</a>
</g>
</g>
<!-- Node2 -->
<g id="Node000002" class="node">
<title>Node2</title>
<g id="a_Node000002"><a xlink:href="class_logger_manager.html#a19e6a7d2c3ad2b1d3fa5acb578fb1619" target="_top" xlink:title=" ">
<polygon fill="white" stroke="#666666" points="332.75,-325.88 181.75,-325.88 181.75,-295.38 332.75,-295.38 332.75,-325.88"/>
<text xml:space="preserve" text-anchor="start" x="189.75" y="-312.38" font-family="Helvetica,sans-Serif" font-size="10.00">LoggerManager::getAlarmState</text>
<text xml:space="preserve" text-anchor="middle" x="257.25" y="-301.12" font-family="Helvetica,sans-Serif" font-size="10.00">LogFiles</text>
</a>
</g>
</g>
<!-- Node1&#45;&gt;Node2 -->
<g id="edge1_Node000001_Node000002" class="edge">
<title>Node1&#45;&gt;Node2</title>
<g id="a_edge1_Node000001_Node000002"><a xlink:title=" ">
<path fill="none" stroke="#63b8ff" d="M79.27,-163.5C93.07,-187.86 132.08,-251.3 181.75,-285.62 183.85,-287.07 186.04,-288.45 188.29,-289.74"/>
<polygon fill="#63b8ff" stroke="#63b8ff" points="186.68,-292.85 197.18,-294.27 189.86,-286.61 186.68,-292.85"/>
</a>
</g>
</g>
<!-- Node3 -->
<g id="Node000003" class="node">
<title>Node3</title>
<g id="a_Node000003"><a xlink:href="class_logger_manager.html#a782a868803b4e2861169796aad7b8b60" target="_top" xlink:title=" ">
<polygon fill="white" stroke="#666666" points="329,-276.88 185.5,-276.88 185.5,-246.38 329,-246.38 329,-276.88"/>
<text xml:space="preserve" text-anchor="start" x="193.5" y="-263.38" font-family="Helvetica,sans-Serif" font-size="10.00">LoggerManager::getEventLog</text>
<text xml:space="preserve" text-anchor="middle" x="257.25" y="-252.12" font-family="Helvetica,sans-Serif" font-size="10.00">FilesStatic</text>
</a>
</g>
</g>
<!-- Node1&#45;&gt;Node3 -->
<g id="edge2_Node000001_Node000003" class="edge">
<title>Node1&#45;&gt;Node3</title>
<g id="a_edge2_Node000001_Node000003"><a xlink:title=" ">
<path fill="none" stroke="#63b8ff" d="M84.03,-163.56C102.2,-180.86 142.1,-216.65 181.75,-237.62 184.27,-238.96 186.88,-240.24 189.55,-241.46"/>
<polygon fill="#63b8ff" stroke="#63b8ff" points="188.07,-244.63 198.65,-245.29 190.79,-238.18 188.07,-244.63"/>
</a>
</g>
</g>
<!-- Node4 -->
<g id="Node000004" class="node">
<title>Node4</title>
<g id="a_Node000004"><a xlink:href="class_logger_manager.html#acb4313c65e6a661229f2c3d662f1c059" target="_top" xlink:title=" ">
<polygon fill="white" stroke="#666666" points="324.5,-228.25 190,-228.25 190,-209 324.5,-209 324.5,-228.25"/>
<text xml:space="preserve" text-anchor="middle" x="257.25" y="-214.75" font-family="Helvetica,sans-Serif" font-size="10.00">LoggerManager::getFileInfo</text>
</a>
</g>
</g>
<!-- Node1&#45;&gt;Node4 -->
<g id="edge3_Node000001_Node000004" class="edge">
<title>Node1&#45;&gt;Node4</title>
<g id="a_edge3_Node000001_Node000004"><a xlink:title=" ">
<path fill="none" stroke="#63b8ff" d="M94.59,-163.59C116.04,-173.63 150.7,-189.12 181.75,-199.62 187.99,-201.74 194.59,-203.74 201.18,-205.6"/>
<polygon fill="#63b8ff" stroke="#63b8ff" points="200.17,-208.95 210.73,-208.19 202,-202.19 200.17,-208.95"/>
</a>
</g>
</g>
<!-- Node6 -->
<g id="Node000006" class="node">
<title>Node6</title>
<g id="a_Node000006"><a xlink:href="class_measurement_point.html#a71d6d440240f110cbd80c58bbc47aff6" target="_top" xlink:title="Get high alarm threshold.">
<polygon fill="white" stroke="#666666" points="326,-190.88 188.5,-190.88 188.5,-160.38 326,-160.38 326,-190.88"/>
<text xml:space="preserve" text-anchor="start" x="196.5" y="-177.38" font-family="Helvetica,sans-Serif" font-size="10.00">MeasurementPoint::getHigh</text>
<text xml:space="preserve" text-anchor="middle" x="257.25" y="-166.12" font-family="Helvetica,sans-Serif" font-size="10.00">AlarmThreshold</text>
</a>
</g>
</g>
<!-- Node1&#45;&gt;Node6 -->
<g id="edge5_Node000001_Node000006" class="edge">
<title>Node1&#45;&gt;Node6</title>
<g id="a_edge5_Node000001_Node000006"><a xlink:title=" ">
<path fill="none" stroke="#63b8ff" d="M146.22,-162.35C156.26,-163.56 166.62,-164.81 176.79,-166.04"/>
<polygon fill="#63b8ff" stroke="#63b8ff" points="176.3,-169.51 186.65,-167.23 177.14,-162.56 176.3,-169.51"/>
</a>
</g>
</g>
<!-- Node7 -->
<g id="Node000007" class="node">
<title>Node7</title>
<g id="a_Node000007"><a xlink:href="class_logger_manager.html#a2b670504d6ebd0c2c2f833caed6842d5" target="_top" xlink:title=" ">
<polygon fill="white" stroke="#666666" points="326.75,-142.25 187.75,-142.25 187.75,-123 326.75,-123 326.75,-142.25"/>
<text xml:space="preserve" text-anchor="middle" x="257.25" y="-128.75" font-family="Helvetica,sans-Serif" font-size="10.00">LoggerManager::getLogFiles</text>
</a>
</g>
</g>
<!-- Node1&#45;&gt;Node7 -->
<g id="edge6_Node000001_Node000007" class="edge">
<title>Node1&#45;&gt;Node7</title>
<g id="a_edge6_Node000001_Node000007"><a xlink:title=" ">
<path fill="none" stroke="#63b8ff" d="M146.22,-145.3C156.04,-144.16 166.18,-143 176.13,-141.85"/>
<polygon fill="#63b8ff" stroke="#63b8ff" points="176.23,-145.36 185.76,-140.74 175.43,-138.41 176.23,-145.36"/>
</a>
</g>
</g>
<!-- Node8 -->
<g id="Node000008" class="node">
<title>Node8</title>
<g id="a_Node000008"><a xlink:href="class_measurement_point.html#a6e538e117d9e22c6998b56519a51d6ba" target="_top" xlink:title="Get low alarm threshold.">
<polygon fill="white" stroke="#666666" points="324.88,-104.88 189.62,-104.88 189.62,-74.38 324.88,-74.38 324.88,-104.88"/>
<text xml:space="preserve" text-anchor="start" x="197.62" y="-91.38" font-family="Helvetica,sans-Serif" font-size="10.00">MeasurementPoint::getLow</text>
<text xml:space="preserve" text-anchor="middle" x="257.25" y="-80.12" font-family="Helvetica,sans-Serif" font-size="10.00">AlarmThreshold</text>
</a>
</g>
</g>
<!-- Node1&#45;&gt;Node8 -->
<g id="edge7_Node000001_Node000008" class="edge">
<title>Node1&#45;&gt;Node8</title>
<g id="a_edge7_Node000001_Node000008"><a xlink:title=" ">
<path fill="none" stroke="#63b8ff" d="M99.92,-143.61C121.7,-135.32 153.63,-123.36 181.75,-113.62 186.23,-112.07 190.87,-110.5 195.54,-108.94"/>
<polygon fill="#63b8ff" stroke="#63b8ff" points="196.62,-112.27 205.02,-105.81 194.43,-105.62 196.62,-112.27"/>
</a>
</g>
</g>
<!-- Node9 -->
<g id="Node000009" class="node">
<title>Node9</title>
<g id="a_Node000009"><a xlink:href="class_measurement_point.html#aa3a80d373c7609c7b178bf7353ffdd7a" target="_top" xlink:title="Get measurement point name.">
<polygon fill="white" stroke="#666666" points="329,-56.25 185.5,-56.25 185.5,-37 329,-37 329,-56.25"/>
<text xml:space="preserve" text-anchor="middle" x="257.25" y="-42.75" font-family="Helvetica,sans-Serif" font-size="10.00">MeasurementPoint::getName</text>
</a>
</g>
</g>
<!-- Node1&#45;&gt;Node9 -->
<g id="edge8_Node000001_Node000009" class="edge">
<title>Node1&#45;&gt;Node9</title>
<g id="a_edge8_Node000001_Node000009"><a xlink:title=" ">
<path fill="none" stroke="#63b8ff" d="M83.23,-143.51C100.77,-125.16 140.53,-86.41 181.75,-65.62 185.66,-63.65 189.79,-61.87 194.03,-60.27"/>
<polygon fill="#63b8ff" stroke="#63b8ff" points="194.91,-63.67 203.25,-57.13 192.66,-57.04 194.91,-63.67"/>
</a>
</g>
</g>
<!-- Node10 -->
<g id="Node000010" class="node">
<title>Node10</title>
<g id="a_Node000010"><a xlink:href="class_logger_manager.html#a92719154d919a9bd45a8ea192e70dfcc" target="_top" xlink:title=" ">
<polygon fill="white" stroke="#666666" points="327.88,-19.25 186.62,-19.25 186.62,0 327.88,0 327.88,-19.25"/>
<text xml:space="preserve" text-anchor="middle" x="257.25" y="-5.75" font-family="Helvetica,sans-Serif" font-size="10.00">LoggerManager::openLogFile</text>
</a>
</g>
</g>
<!-- Node1&#45;&gt;Node10 -->
<g id="edge9_Node000001_Node000010" class="edge">
<title>Node1&#45;&gt;Node10</title>
<g id="a_edge9_Node000001_Node000010"><a xlink:title=" ">
<path fill="none" stroke="#63b8ff" d="M79.42,-143.59C93.28,-119.5 131.91,-58.18 181.75,-27.62 183.79,-26.38 185.91,-25.21 188.09,-24.13"/>
<polygon fill="#63b8ff" stroke="#63b8ff" points="189.42,-27.37 197.24,-20.23 186.67,-20.93 189.42,-27.37"/>
</a>
</g>
</g>
<!-- Node5 -->
<g id="Node000005" class="node">
<title>Node5</title>
<g id="a_Node000005"><a xlink:href="class_logger_manager.html#a72c969cc82b969c4899dc4d2c8280f0b" target="_top" xlink:title=" ">
<polygon fill="white" stroke="#666666" points="546.75,-123.25 368.75,-123.25 368.75,-104 546.75,-104 546.75,-123.25"/>
<text xml:space="preserve" text-anchor="middle" x="457.75" y="-109.75" font-family="Helvetica,sans-Serif" font-size="10.00">LoggerManager::getLogDirectoryPath</text>
</a>
</g>
</g>
<!-- Node4&#45;&gt;Node5 -->
<g id="edge4_Node000004_Node000005" class="edge">
<title>Node4&#45;&gt;Node5</title>
<g id="a_edge4_Node000004_Node000005"><a xlink:title=" ">
<path fill="none" stroke="#63b8ff" d="M307.99,-208.58C316.44,-206.13 324.98,-203.17 332.75,-199.62 372.55,-181.46 413.19,-150.4 436.64,-131"/>
<polygon fill="#63b8ff" stroke="#63b8ff" points="438.75,-133.8 444.15,-124.68 434.24,-128.44 438.75,-133.8"/>
</a>
</g>
</g>
<!-- Node10&#45;&gt;Node5 -->
<g id="edge10_Node000010_Node000005" class="edge">
<title>Node10&#45;&gt;Node5</title>
<g id="a_edge10_Node000010_Node000005"><a xlink:title=" ">
<path fill="none" stroke="#63b8ff" d="M310.77,-19.72C318.3,-21.91 325.83,-24.52 332.75,-27.62 372.88,-45.63 413.7,-77 437.05,-96.47"/>
<polygon fill="#63b8ff" stroke="#63b8ff" points="434.61,-98.99 444.5,-102.79 439.14,-93.65 434.61,-98.99"/>
</a>
</g>
</g>
</g>
</svg>
