<?xml version="1.0" encoding="UTF-8" standalone="no"?>
<!DOCTYPE svg PUBLIC "-//W3C//DTD SVG 1.1//EN"
 "http://www.w3.org/Graphics/SVG/1.1/DTD/svg11.dtd">
<!-- Generated by graphviz version 13.1.0 (20250701.0955)
 -->
<!-- Title: IndicatorInterface::_calculateDisplayParams Pages: 1 -->
<svg width="839pt" height="310pt"
 viewBox="0.00 0.00 839.00 310.00" xmlns="http://www.w3.org/2000/svg" xmlns:xlink="http://www.w3.org/1999/xlink">
<g id="graph0" class="graph" transform="scale(1 1) rotate(0) translate(4 305.5)">
<title>IndicatorInterface::_calculateDisplayParams</title>
<!-- Node1 -->
<g id="Node000001" class="node">
<title>Node1</title>
<g id="a_Node000001"><a xlink:title="Calculate display parameters.">
<polygon fill="#999999" stroke="#666666" points="831,-177.5 698,-177.5 698,-147 831,-147 831,-177.5"/>
<text xml:space="preserve" text-anchor="start" x="706" y="-164" font-family="Helvetica,sans-Serif" font-size="10.00">IndicatorInterface</text>
<text xml:space="preserve" text-anchor="middle" x="764.5" y="-152.75" font-family="Helvetica,sans-Serif" font-size="10.00">::_calculateDisplayParams</text>
</a>
</g>
</g>
<!-- Node2 -->
<g id="Node000002" class="node">
<title>Node2</title>
<g id="a_Node000002"><a xlink:href="class_indicator_interface.html#a57958896691800d0526ad7941e305136" target="_top" xlink:title="Initialize OLED display.">
<polygon fill="white" stroke="#666666" points="649.62,-263.5 557.88,-263.5 557.88,-233 649.62,-233 649.62,-263.5"/>
<text xml:space="preserve" text-anchor="start" x="565.88" y="-250" font-family="Helvetica,sans-Serif" font-size="10.00">IndicatorInterface</text>
<text xml:space="preserve" text-anchor="middle" x="603.75" y="-238.75" font-family="Helvetica,sans-Serif" font-size="10.00">::_initOLED</text>
</a>
</g>
</g>
<!-- Node1&#45;&gt;Node2 -->
<g id="edge1_Node000001_Node000002" class="edge">
<title>Node1&#45;&gt;Node2</title>
<g id="a_edge1_Node000001_Node000002"><a xlink:title=" ">
<path fill="none" stroke="#63b8ff" d="M724.87,-183.18C696.79,-198.39 659.39,-218.65 633.82,-232.5"/>
<polygon fill="#63b8ff" stroke="#63b8ff" points="726.3,-186.39 733.42,-178.54 722.96,-180.23 726.3,-186.39"/>
</a>
</g>
</g>
<!-- Node4 -->
<g id="Node000004" class="node">
<title>Node4</title>
<g id="a_Node000004"><a xlink:href="class_indicator_interface.html#a38acc1a5120e275253fc4e458aea91f0" target="_top" xlink:title="Update OLED display content.">
<polygon fill="white" stroke="#666666" points="662,-177.5 545.5,-177.5 545.5,-147 662,-147 662,-177.5"/>
<text xml:space="preserve" text-anchor="start" x="553.5" y="-164" font-family="Helvetica,sans-Serif" font-size="10.00">IndicatorInterface</text>
<text xml:space="preserve" text-anchor="middle" x="603.75" y="-152.75" font-family="Helvetica,sans-Serif" font-size="10.00">::_updateOLEDDisplay</text>
</a>
</g>
</g>
<!-- Node1&#45;&gt;Node4 -->
<g id="edge3_Node000001_Node000004" class="edge">
<title>Node1&#45;&gt;Node4</title>
<g id="a_edge3_Node000001_Node000004"><a xlink:title=" ">
<path fill="none" stroke="#63b8ff" d="M686.17,-162.25C678.08,-162.25 669.96,-162.25 662.14,-162.25"/>
<polygon fill="#63b8ff" stroke="#63b8ff" points="686.04,-165.75 696.04,-162.25 686.04,-158.75 686.04,-165.75"/>
</a>
</g>
</g>
<!-- Node15 -->
<g id="Node000015" class="node">
<title>Node15</title>
<g id="a_Node000015"><a xlink:href="class_indicator_interface.html#acf545ec2921c786020f7826a846b364d" target="_top" xlink:title="Set OLED display mode.">
<polygon fill="white" stroke="#666666" points="649.62,-128.5 557.88,-128.5 557.88,-98 649.62,-98 649.62,-128.5"/>
<text xml:space="preserve" text-anchor="start" x="565.88" y="-115" font-family="Helvetica,sans-Serif" font-size="10.00">IndicatorInterface</text>
<text xml:space="preserve" text-anchor="middle" x="603.75" y="-103.75" font-family="Helvetica,sans-Serif" font-size="10.00">::setOledMode</text>
</a>
</g>
</g>
<!-- Node1&#45;&gt;Node15 -->
<g id="edge16_Node000001_Node000015" class="edge">
<title>Node1&#45;&gt;Node15</title>
<g id="a_edge16_Node000001_Node000015"><a xlink:title=" ">
<path fill="none" stroke="#63b8ff" d="M702.23,-143.34C684.89,-137.98 666.33,-132.26 650.11,-127.25"/>
<polygon fill="#63b8ff" stroke="#63b8ff" points="700.8,-146.56 711.39,-146.16 702.86,-139.87 700.8,-146.56"/>
</a>
</g>
</g>
<!-- Node3 -->
<g id="Node000003" class="node">
<title>Node3</title>
<g id="a_Node000003"><a xlink:href="class_indicator_interface.html#a6083d92cd6b29de3ceb7a9619b9cb03b" target="_top" xlink:title="Initialize the indicator interface.">
<polygon fill="white" stroke="#666666" points="501.25,-301.5 409.5,-301.5 409.5,-271 501.25,-271 501.25,-301.5"/>
<text xml:space="preserve" text-anchor="start" x="417.5" y="-288" font-family="Helvetica,sans-Serif" font-size="10.00">IndicatorInterface</text>
<text xml:space="preserve" text-anchor="middle" x="455.38" y="-276.75" font-family="Helvetica,sans-Serif" font-size="10.00">::begin</text>
</a>
</g>
</g>
<!-- Node2&#45;&gt;Node3 -->
<g id="edge2_Node000002_Node000003" class="edge">
<title>Node2&#45;&gt;Node3</title>
<g id="a_edge2_Node000002_Node000003"><a xlink:title=" ">
<path fill="none" stroke="#63b8ff" d="M546.51,-262.85C531.64,-266.71 515.79,-270.83 501.59,-274.51"/>
<polygon fill="#63b8ff" stroke="#63b8ff" points="547.37,-266.24 556.17,-260.34 545.61,-259.47 547.37,-266.24"/>
</a>
</g>
</g>
<!-- Node5 -->
<g id="Node000005" class="node">
<title>Node5</title>
<g id="a_Node000005"><a xlink:href="class_indicator_interface.html#afc1bacc73d487f912d7a71f559e193ef" target="_top" xlink:title="Handle OLED blinking.">
<polygon fill="white" stroke="#666666" points="362.62,-272.5 258.12,-272.5 258.12,-242 362.62,-242 362.62,-272.5"/>
<text xml:space="preserve" text-anchor="start" x="266.12" y="-259" font-family="Helvetica,sans-Serif" font-size="10.00">IndicatorInterface</text>
<text xml:space="preserve" text-anchor="middle" x="310.38" y="-247.75" font-family="Helvetica,sans-Serif" font-size="10.00">::_handleOLEDBlink</text>
</a>
</g>
</g>
<!-- Node4&#45;&gt;Node5 -->
<g id="edge4_Node000004_Node000005" class="edge">
<title>Node4&#45;&gt;Node5</title>
<g id="a_edge4_Node000004_Node000005"><a xlink:title=" ">
<path fill="none" stroke="#63b8ff" d="M564.18,-183.03C547.67,-191.36 527.97,-200.54 509.5,-207.25 460.82,-224.93 403.22,-238.71 362.71,-247.28"/>
<polygon fill="#63b8ff" stroke="#63b8ff" points="565.36,-186.36 572.66,-178.68 562.17,-180.13 565.36,-186.36"/>
</a>
</g>
</g>
<!-- Node8 -->
<g id="Node000008" class="node">
<title>Node8</title>
<g id="a_Node000008"><a xlink:href="class_indicator_interface.html#a520ad5df9ff7c3f3b716b2b179e50a7e" target="_top" xlink:title="Handle text scrolling.">
<polygon fill="white" stroke="#666666" points="357,-223.5 263.75,-223.5 263.75,-193 357,-193 357,-223.5"/>
<text xml:space="preserve" text-anchor="start" x="271.75" y="-210" font-family="Helvetica,sans-Serif" font-size="10.00">IndicatorInterface</text>
<text xml:space="preserve" text-anchor="middle" x="310.38" y="-198.75" font-family="Helvetica,sans-Serif" font-size="10.00">::_handleScrolling</text>
</a>
</g>
</g>
<!-- Node4&#45;&gt;Node8 -->
<g id="edge7_Node000004_Node000008" class="edge">
<title>Node4&#45;&gt;Node8</title>
<g id="a_edge7_Node000004_Node000008"><a xlink:title=" ">
<path fill="none" stroke="#63b8ff" d="M536.14,-180.61C527.23,-182.71 518.17,-184.66 509.5,-186.25 457.76,-195.73 397.61,-201.71 357.28,-205"/>
<polygon fill="#63b8ff" stroke="#63b8ff" points="536.96,-184.01 545.85,-178.25 535.3,-177.21 536.96,-184.01"/>
</a>
</g>
</g>
<!-- Node9 -->
<g id="Node000009" class="node">
<title>Node9</title>
<g id="a_Node000009"><a xlink:href="class_indicator_interface.html#aa24a016a7358ca6f0c955794d5774512" target="_top" xlink:title="Restore previously saved text.">
<polygon fill="white" stroke="#666666" points="509.5,-177.5 401.25,-177.5 401.25,-147 509.5,-147 509.5,-177.5"/>
<text xml:space="preserve" text-anchor="start" x="409.25" y="-164" font-family="Helvetica,sans-Serif" font-size="10.00">IndicatorInterface</text>
<text xml:space="preserve" text-anchor="middle" x="455.38" y="-152.75" font-family="Helvetica,sans-Serif" font-size="10.00">::_restoreCurrentText</text>
</a>
</g>
</g>
<!-- Node4&#45;&gt;Node9 -->
<g id="edge9_Node000004_Node000009" class="edge">
<title>Node4&#45;&gt;Node9</title>
<g id="a_edge9_Node000004_Node000009"><a xlink:title=" ">
<path fill="none" stroke="#63b8ff" d="M533.95,-162.25C525.85,-162.25 517.67,-162.25 509.82,-162.25"/>
<polygon fill="#63b8ff" stroke="#63b8ff" points="533.81,-165.75 543.81,-162.25 533.81,-158.75 533.81,-165.75"/>
</a>
</g>
</g>
<!-- Node12 -->
<g id="Node000012" class="node">
<title>Node12</title>
<g id="a_Node000012"><a xlink:href="class_indicator_interface.html#ac3d970f4cfa8af402fa2538cf05e8cd6" target="_top" xlink:title="Display text buffer on OLED.">
<polygon fill="white" stroke="#666666" points="501.25,-128.5 409.5,-128.5 409.5,-98 501.25,-98 501.25,-128.5"/>
<text xml:space="preserve" text-anchor="start" x="417.5" y="-115" font-family="Helvetica,sans-Serif" font-size="10.00">IndicatorInterface</text>
<text xml:space="preserve" text-anchor="middle" x="455.38" y="-103.75" font-family="Helvetica,sans-Serif" font-size="10.00">::printText</text>
</a>
</g>
</g>
<!-- Node4&#45;&gt;Node12 -->
<g id="edge13_Node000004_Node000012" class="edge">
<title>Node4&#45;&gt;Node12</title>
<g id="a_edge13_Node000004_Node000012"><a xlink:title=" ">
<path fill="none" stroke="#63b8ff" d="M545.18,-142.98C530.72,-138.14 515.41,-133.01 501.65,-128.41"/>
<polygon fill="#63b8ff" stroke="#63b8ff" points="544,-146.28 554.6,-146.13 546.23,-139.64 544,-146.28"/>
</a>
</g>
</g>
<!-- Node13 -->
<g id="Node000013" class="node">
<title>Node13</title>
<g id="a_Node000013"><a xlink:href="class_indicator_interface.html#a3d7f75c8c69808ecc98d1e1fb272984d" target="_top" xlink:title="Push new line to display, shifting others down.">
<polygon fill="white" stroke="#666666" points="501.25,-79.5 409.5,-79.5 409.5,-49 501.25,-49 501.25,-79.5"/>
<text xml:space="preserve" text-anchor="start" x="417.5" y="-66" font-family="Helvetica,sans-Serif" font-size="10.00">IndicatorInterface</text>
<text xml:space="preserve" text-anchor="middle" x="455.38" y="-54.75" font-family="Helvetica,sans-Serif" font-size="10.00">::pushLine</text>
</a>
</g>
</g>
<!-- Node4&#45;&gt;Node13 -->
<g id="edge14_Node000004_Node000013" class="edge">
<title>Node4&#45;&gt;Node13</title>
<g id="a_edge14_Node000004_Node000013"><a xlink:title=" ">
<path fill="none" stroke="#63b8ff" d="M550.24,-140.72C548.61,-139.61 547.02,-138.45 545.5,-137.25 524.59,-120.7 530.18,-106.09 509.5,-89.25 505.23,-85.77 500.4,-82.65 495.43,-79.89"/>
<polygon fill="#63b8ff" stroke="#63b8ff" points="548.37,-143.68 558.75,-145.82 551.97,-137.68 548.37,-143.68"/>
</a>
</g>
</g>
<!-- Node14 -->
<g id="Node000014" class="node">
<title>Node14</title>
<g id="a_Node000014"><a xlink:href="class_indicator_interface.html#a7d807749bff6ef06c128617b35f4dcce" target="_top" xlink:title="Turn OLED display on.">
<polygon fill="white" stroke="#666666" points="501.25,-30.5 409.5,-30.5 409.5,0 501.25,0 501.25,-30.5"/>
<text xml:space="preserve" text-anchor="start" x="417.5" y="-17" font-family="Helvetica,sans-Serif" font-size="10.00">IndicatorInterface</text>
<text xml:space="preserve" text-anchor="middle" x="455.38" y="-5.75" font-family="Helvetica,sans-Serif" font-size="10.00">::setOLEDOn</text>
</a>
</g>
</g>
<!-- Node4&#45;&gt;Node14 -->
<g id="edge15_Node000004_Node000014" class="edge">
<title>Node4&#45;&gt;Node14</title>
<g id="a_edge15_Node000004_Node000014"><a xlink:title=" ">
<path fill="none" stroke="#63b8ff" d="M548.12,-139.82C547.21,-138.99 546.34,-138.14 545.5,-137.25 513.91,-103.83 540.61,-74.11 509.5,-40.25 506.26,-36.72 502.42,-33.65 498.3,-30.98"/>
<polygon fill="#63b8ff" stroke="#63b8ff" points="545.72,-142.39 555.81,-145.61 549.93,-136.8 545.72,-142.39"/>
</a>
</g>
</g>
<!-- Node6 -->
<g id="Node000006" class="node">
<title>Node6</title>
<g id="a_Node000006"><a xlink:href="class_indicator_interface.html#a5f9eaa4ad4d2da76bf9536a4dfad8723" target="_top" xlink:title="Update OLED display (call in main loop)">
<polygon fill="white" stroke="#666666" points="219.5,-223.5 127.75,-223.5 127.75,-193 219.5,-193 219.5,-223.5"/>
<text xml:space="preserve" text-anchor="start" x="135.75" y="-210" font-family="Helvetica,sans-Serif" font-size="10.00">IndicatorInterface</text>
<text xml:space="preserve" text-anchor="middle" x="173.62" y="-198.75" font-family="Helvetica,sans-Serif" font-size="10.00">::updateOLED</text>
</a>
</g>
</g>
<!-- Node5&#45;&gt;Node6 -->
<g id="edge5_Node000005_Node000006" class="edge">
<title>Node5&#45;&gt;Node6</title>
<g id="a_edge5_Node000005_Node000006"><a xlink:title=" ">
<path fill="none" stroke="#63b8ff" d="M255.91,-237.81C243.22,-233.19 229.84,-228.33 217.68,-223.91"/>
<polygon fill="#63b8ff" stroke="#63b8ff" points="254.35,-240.97 264.95,-241.09 256.74,-234.39 254.35,-240.97"/>
</a>
</g>
</g>
<!-- Node7 -->
<g id="Node000007" class="node">
<title>Node7</title>
<g id="a_Node000007"><a xlink:href="class_indicator_interface.html#a01db31cebc14d62f6aa9b1266e6c278d" target="_top" xlink:title="Update interface state (call in main loop)">
<polygon fill="white" stroke="#666666" points="91.75,-223.5 0,-223.5 0,-193 91.75,-193 91.75,-223.5"/>
<text xml:space="preserve" text-anchor="start" x="8" y="-210" font-family="Helvetica,sans-Serif" font-size="10.00">IndicatorInterface</text>
<text xml:space="preserve" text-anchor="middle" x="45.88" y="-198.75" font-family="Helvetica,sans-Serif" font-size="10.00">::update</text>
</a>
</g>
</g>
<!-- Node6&#45;&gt;Node7 -->
<g id="edge6_Node000006_Node000007" class="edge">
<title>Node6&#45;&gt;Node7</title>
<g id="a_edge6_Node000006_Node000007"><a xlink:title=" ">
<path fill="none" stroke="#63b8ff" d="M116.26,-208.25C108.15,-208.25 99.89,-208.25 92.03,-208.25"/>
<polygon fill="#63b8ff" stroke="#63b8ff" points="116.07,-211.75 126.07,-208.25 116.07,-204.75 116.07,-211.75"/>
</a>
</g>
</g>
<!-- Node8&#45;&gt;Node6 -->
<g id="edge8_Node000008_Node000006" class="edge">
<title>Node8&#45;&gt;Node6</title>
<g id="a_edge8_Node000008_Node000006"><a xlink:title=" ">
<path fill="none" stroke="#63b8ff" d="M251.96,-208.25C241.26,-208.25 230.23,-208.25 219.96,-208.25"/>
<polygon fill="#63b8ff" stroke="#63b8ff" points="251.87,-211.75 261.87,-208.25 251.87,-204.75 251.87,-211.75"/>
</a>
</g>
</g>
<!-- Node10 -->
<g id="Node000010" class="node">
<title>Node10</title>
<g id="a_Node000010"><a xlink:href="class_indicator_interface.html#ad70f8a9e7f527bc4faeb576b47483385" target="_top" xlink:title="Handle special symbol blinking.">
<polygon fill="white" stroke="#666666" points="365.25,-174.5 255.5,-174.5 255.5,-144 365.25,-144 365.25,-174.5"/>
<text xml:space="preserve" text-anchor="start" x="263.5" y="-161" font-family="Helvetica,sans-Serif" font-size="10.00">IndicatorInterface</text>
<text xml:space="preserve" text-anchor="middle" x="310.38" y="-149.75" font-family="Helvetica,sans-Serif" font-size="10.00">::_handleSpecialBlink</text>
</a>
</g>
</g>
<!-- Node9&#45;&gt;Node10 -->
<g id="edge10_Node000009_Node000010" class="edge">
<title>Node9&#45;&gt;Node10</title>
<g id="a_edge10_Node000009_Node000010"><a xlink:title=" ">
<path fill="none" stroke="#63b8ff" d="M389.82,-160.9C381.73,-160.73 373.53,-160.55 365.62,-160.39"/>
<polygon fill="#63b8ff" stroke="#63b8ff" points="389.54,-164.39 399.61,-161.1 389.69,-157.39 389.54,-164.39"/>
</a>
</g>
</g>
<!-- Node11 -->
<g id="Node000011" class="node">
<title>Node11</title>
<g id="a_Node000011"><a xlink:href="class_indicator_interface.html#a1573397b085b78ea7f714665d55cece0" target="_top" xlink:title="Stop all blinking and restore normal text.">
<polygon fill="white" stroke="#666666" points="356.25,-125.5 264.5,-125.5 264.5,-95 356.25,-95 356.25,-125.5"/>
<text xml:space="preserve" text-anchor="start" x="272.5" y="-112" font-family="Helvetica,sans-Serif" font-size="10.00">IndicatorInterface</text>
<text xml:space="preserve" text-anchor="middle" x="310.38" y="-100.75" font-family="Helvetica,sans-Serif" font-size="10.00">::stopBlinking</text>
</a>
</g>
</g>
<!-- Node9&#45;&gt;Node11 -->
<g id="edge12_Node000009_Node000011" class="edge">
<title>Node9&#45;&gt;Node11</title>
<g id="a_edge12_Node000009_Node000011"><a xlink:title=" ">
<path fill="none" stroke="#63b8ff" d="M400.3,-142.59C385.17,-137.08 368.93,-131.18 354.52,-125.94"/>
<polygon fill="#63b8ff" stroke="#63b8ff" points="399.07,-145.86 409.66,-145.99 401.46,-139.28 399.07,-145.86"/>
</a>
</g>
</g>
<!-- Node10&#45;&gt;Node6 -->
<g id="edge11_Node000010_Node000006" class="edge">
<title>Node10&#45;&gt;Node6</title>
<g id="a_edge11_Node000010_Node000006"><a xlink:title=" ">
<path fill="none" stroke="#63b8ff" d="M255.91,-178.69C243.22,-183.31 229.84,-188.17 217.68,-192.59"/>
<polygon fill="#63b8ff" stroke="#63b8ff" points="256.74,-182.11 264.95,-175.41 254.35,-175.53 256.74,-182.11"/>
</a>
</g>
</g>
</g>
</svg>
