<?xml version="1.0" encoding="UTF-8" standalone="no"?>
<!DOCTYPE svg PUBLIC "-//W3C//DTD SVG 1.1//EN"
 "http://www.w3.org/Graphics/SVG/1.1/DTD/svg11.dtd">
<!-- Generated by graphviz version 13.1.0 (20250701.0955)
 -->
<!-- Title: TemperatureController::readAllPoints Pages: 1 -->
<svg width="1471pt" height="959pt"
 viewBox="0.00 0.00 1471.00 959.00" xmlns="http://www.w3.org/2000/svg" xmlns:xlink="http://www.w3.org/1999/xlink">
<g id="graph0" class="graph" transform="scale(1 1) rotate(0) translate(4 955.01)">
<title>TemperatureController::readAllPoints</title>
<!-- Node1 -->
<g id="Node000001" class="node">
<title>Node1</title>
<g id="a_Node000001"><a xlink:title="Read temperature from all configured measurement points.">
<polygon fill="#999999" stroke="#666666" points="112,-352.88 0,-352.88 0,-322.38 112,-322.38 112,-352.88"/>
<text xml:space="preserve" text-anchor="start" x="8" y="-339.38" font-family="Helvetica,sans-Serif" font-size="10.00">TemperatureController</text>
<text xml:space="preserve" text-anchor="middle" x="56" y="-328.12" font-family="Helvetica,sans-Serif" font-size="10.00">::readAllPoints</text>
</a>
</g>
</g>
<!-- Node2 -->
<g id="Node000002" class="node">
<title>Node2</title>
<g id="a_Node000002"><a xlink:href="class_temperature_controller.html#aca5deddbf703001373424d876f87b5f2" target="_top" xlink:title="Main update function &#45; must be called in loop()">
<polygon fill="white" stroke="#666666" points="260,-352.88 148,-352.88 148,-322.38 260,-322.38 260,-352.88"/>
<text xml:space="preserve" text-anchor="start" x="156" y="-339.38" font-family="Helvetica,sans-Serif" font-size="10.00">TemperatureController</text>
<text xml:space="preserve" text-anchor="middle" x="204" y="-328.12" font-family="Helvetica,sans-Serif" font-size="10.00">::update</text>
</a>
</g>
</g>
<!-- Node1&#45;&gt;Node2 -->
<g id="edge1_Node000001_Node000002" class="edge">
<title>Node1&#45;&gt;Node2</title>
<g id="a_edge1_Node000001_Node000002"><a xlink:title=" ">
<path fill="none" stroke="#63b8ff" d="M112.2,-331.06C120.1,-330.89 128.3,-330.84 136.39,-330.9"/>
<polygon fill="#63b8ff" stroke="#63b8ff" points="136.16,-334.4 146.21,-331.03 136.26,-327.4 136.16,-334.4"/>
</a>
</g>
</g>
<!-- Node2&#45;&gt;Node1 -->
<g id="edge36_Node000002_Node000001" class="edge">
<title>Node2&#45;&gt;Node1</title>
<g id="a_edge36_Node000002_Node000001"><a xlink:title=" ">
<path fill="none" stroke="#63b8ff" d="M147.73,-344.19C139.82,-344.36 131.62,-344.41 123.53,-344.35"/>
<polygon fill="#63b8ff" stroke="#63b8ff" points="123.76,-340.85 113.71,-344.21 123.66,-347.85 123.76,-340.85"/>
</a>
</g>
</g>
<!-- Node3 -->
<g id="Node000003" class="node">
<title>Node3</title>
<g id="a_Node000003"><a xlink:href="class_temperature_controller.html#a1228b63e95f26c21a8d9c2a27928bc75" target="_top" xlink:title="Check for button press and handle acknowledgment.">
<polygon fill="white" stroke="#666666" points="569.88,-390.88 457.88,-390.88 457.88,-360.38 569.88,-360.38 569.88,-390.88"/>
<text xml:space="preserve" text-anchor="start" x="465.88" y="-377.38" font-family="Helvetica,sans-Serif" font-size="10.00">TemperatureController</text>
<text xml:space="preserve" text-anchor="middle" x="513.88" y="-366.12" font-family="Helvetica,sans-Serif" font-size="10.00">::_checkButtonPress</text>
</a>
</g>
</g>
<!-- Node2&#45;&gt;Node3 -->
<g id="edge2_Node000002_Node000003" class="edge">
<title>Node2&#45;&gt;Node3</title>
<g id="a_edge2_Node000002_Node000003"><a xlink:title=" ">
<path fill="none" stroke="#63b8ff" d="M260.4,-344.46C312.55,-350.9 390.74,-360.55 446.27,-367.4"/>
<polygon fill="#63b8ff" stroke="#63b8ff" points="445.55,-370.84 455.9,-368.59 446.41,-363.89 445.55,-370.84"/>
</a>
</g>
</g>
<!-- Node5 -->
<g id="Node000005" class="node">
<title>Node5</title>
<g id="a_Node000005"><a xlink:href="class_temperature_controller.html#a5637103784725fb1a73f6463d7cbfde6" target="_top" xlink:title="Handle alarm display on OLED/LEDs.">
<polygon fill="white" stroke="#666666" points="408,-417.88 296,-417.88 296,-387.38 408,-387.38 408,-417.88"/>
<text xml:space="preserve" text-anchor="start" x="304" y="-404.38" font-family="Helvetica,sans-Serif" font-size="10.00">TemperatureController</text>
<text xml:space="preserve" text-anchor="middle" x="352" y="-393.12" font-family="Helvetica,sans-Serif" font-size="10.00">::handleAlarmDisplay</text>
</a>
</g>
</g>
<!-- Node2&#45;&gt;Node5 -->
<g id="edge4_Node000002_Node000005" class="edge">
<title>Node2&#45;&gt;Node5</title>
<g id="a_edge4_Node000002_Node000005"><a xlink:title=" ">
<path fill="none" stroke="#63b8ff" d="M240.34,-353.36C259.91,-362.07 284.44,-372.99 305.43,-382.34"/>
<polygon fill="#63b8ff" stroke="#63b8ff" points="303.79,-385.44 314.35,-386.31 306.64,-379.04 303.79,-385.44"/>
</a>
</g>
</g>
<!-- Node29 -->
<g id="Node000029" class="node">
<title>Node29</title>
<g id="a_Node000029"><a xlink:href="class_temperature_controller.html#a82e4c37ff4121eaf5e00e9c52381e840" target="_top" xlink:title="Handle alarm output signals.">
<polygon fill="white" stroke="#666666" points="408,-331.88 296,-331.88 296,-301.38 408,-301.38 408,-331.88"/>
<text xml:space="preserve" text-anchor="start" x="304" y="-318.38" font-family="Helvetica,sans-Serif" font-size="10.00">TemperatureController</text>
<text xml:space="preserve" text-anchor="middle" x="352" y="-307.12" font-family="Helvetica,sans-Serif" font-size="10.00">::handleAlarmOutputs</text>
</a>
</g>
</g>
<!-- Node2&#45;&gt;Node29 -->
<g id="edge33_Node000002_Node000029" class="edge">
<title>Node2&#45;&gt;Node29</title>
<g id="a_edge33_Node000002_Node000029"><a xlink:title=" ">
<path fill="none" stroke="#63b8ff" d="M260.2,-329.69C268.1,-328.55 276.3,-327.37 284.39,-326.21"/>
<polygon fill="#63b8ff" stroke="#63b8ff" points="284.83,-329.68 294.23,-324.79 283.83,-322.75 284.83,-329.68"/>
</a>
</g>
</g>
<!-- Node31 -->
<g id="Node000031" class="node">
<title>Node31</title>
<g id="a_Node000031"><a xlink:href="class_temperature_controller.html#a5ac8af90de5dfd79a9a2e4c7270a98a3" target="_top" xlink:title="Update alarm states for all measurement points.">
<polygon fill="white" stroke="#666666" points="756.88,-920.88 644.88,-920.88 644.88,-890.38 756.88,-890.38 756.88,-920.88"/>
<text xml:space="preserve" text-anchor="start" x="652.88" y="-907.38" font-family="Helvetica,sans-Serif" font-size="10.00">TemperatureController</text>
<text xml:space="preserve" text-anchor="middle" x="700.88" y="-896.12" font-family="Helvetica,sans-Serif" font-size="10.00">::updateAlarms</text>
</a>
</g>
</g>
<!-- Node2&#45;&gt;Node31 -->
<g id="edge37_Node000002_Node000031" class="edge">
<title>Node2&#45;&gt;Node31</title>
<g id="a_edge37_Node000002_Node000031"><a xlink:title=" ">
<path fill="none" stroke="#63b8ff" d="M211.95,-353.15C245.29,-425.75 396.47,-734.39 619.75,-880.62 624.24,-883.56 629.09,-886.17 634.11,-888.49"/>
<polygon fill="#63b8ff" stroke="#63b8ff" points="632.62,-891.66 643.2,-892.26 635.3,-885.19 632.62,-891.66"/>
</a>
</g>
</g>
<!-- Node32 -->
<g id="Node000032" class="node">
<title>Node32</title>
<g id="a_Node000032"><a xlink:href="class_temperature_controller.html#a23dca296a268baa9b8234c8bf9cf0c3e" target="_top" xlink:title="Update temperature readings for all sensors.">
<polygon fill="white" stroke="#666666" points="408,-174.88 296,-174.88 296,-144.38 408,-144.38 408,-174.88"/>
<text xml:space="preserve" text-anchor="start" x="304" y="-161.38" font-family="Helvetica,sans-Serif" font-size="10.00">TemperatureController</text>
<text xml:space="preserve" text-anchor="middle" x="352" y="-150.12" font-family="Helvetica,sans-Serif" font-size="10.00">::updateAllSensors</text>
</a>
</g>
</g>
<!-- Node2&#45;&gt;Node32 -->
<g id="edge40_Node000002_Node000032" class="edge">
<title>Node2&#45;&gt;Node32</title>
<g id="a_edge40_Node000002_Node000032"><a xlink:title=" ">
<path fill="none" stroke="#63b8ff" d="M217.7,-322.14C243.16,-291.11 300.58,-221.09 331.09,-183.9"/>
<polygon fill="#63b8ff" stroke="#63b8ff" points="333.63,-186.32 337.26,-176.37 328.22,-181.88 333.63,-186.32"/>
</a>
</g>
</g>
<!-- Node38 -->
<g id="Node000038" class="node">
<title>Node38</title>
<g id="a_Node000038"><a xlink:href="class_temperature_controller.html#a62b93899a3b8b55e2e0bd933520c2892" target="_top" xlink:title="Update register map with current values from measurement points.">
<polygon fill="white" stroke="#666666" points="408,-266.88 296,-266.88 296,-236.38 408,-236.38 408,-266.88"/>
<text xml:space="preserve" text-anchor="start" x="304" y="-253.38" font-family="Helvetica,sans-Serif" font-size="10.00">TemperatureController</text>
<text xml:space="preserve" text-anchor="middle" x="352" y="-242.12" font-family="Helvetica,sans-Serif" font-size="10.00">::updateRegisterMap</text>
</a>
</g>
</g>
<!-- Node2&#45;&gt;Node38 -->
<g id="edge46_Node000002_Node000038" class="edge">
<title>Node2&#45;&gt;Node38</title>
<g id="a_edge46_Node000002_Node000038"><a xlink:title=" ">
<path fill="none" stroke="#63b8ff" d="M231.44,-322.05C254.65,-308.38 288.65,-288.35 314.46,-273.15"/>
<polygon fill="#63b8ff" stroke="#63b8ff" points="316.12,-276.23 322.96,-268.14 312.57,-270.2 316.12,-276.23"/>
</a>
</g>
</g>
<!-- Node4 -->
<g id="Node000004" class="node">
<title>Node4</title>
<g id="a_Node000004"><a xlink:href="class_temperature_controller.html#a3955f205bc33dda762cbe5c572cd4f21" target="_top" xlink:title="Switch to a new display section.">
<polygon fill="white" stroke="#666666" points="958.12,-390.88 846.12,-390.88 846.12,-360.38 958.12,-360.38 958.12,-390.88"/>
<text xml:space="preserve" text-anchor="start" x="854.12" y="-377.38" font-family="Helvetica,sans-Serif" font-size="10.00">TemperatureController</text>
<text xml:space="preserve" text-anchor="middle" x="902.12" y="-366.12" font-family="Helvetica,sans-Serif" font-size="10.00">::_switchToSection</text>
</a>
</g>
</g>
<!-- Node3&#45;&gt;Node4 -->
<g id="edge3_Node000003_Node000004" class="edge">
<title>Node3&#45;&gt;Node4</title>
<g id="a_edge3_Node000003_Node000004"><a xlink:title=" ">
<path fill="none" stroke="#63b8ff" d="M570.22,-375.62C640.06,-375.62 760.06,-375.62 834.76,-375.62"/>
<polygon fill="#63b8ff" stroke="#63b8ff" points="834.37,-379.13 844.37,-375.63 834.37,-372.13 834.37,-379.13"/>
</a>
</g>
</g>
<!-- Node5&#45;&gt;Node3 -->
<g id="edge5_Node000005_Node000003" class="edge">
<title>Node5&#45;&gt;Node3</title>
<g id="a_edge5_Node000005_Node000003"><a xlink:title=" ">
<path fill="none" stroke="#63b8ff" d="M408.47,-393.26C420.74,-391.18 433.87,-388.97 446.53,-386.83"/>
<polygon fill="#63b8ff" stroke="#63b8ff" points="446.74,-390.34 456.01,-385.23 445.57,-383.44 446.74,-390.34"/>
</a>
</g>
</g>
<!-- Node6 -->
<g id="Node000006" class="node">
<title>Node6</title>
<g id="a_Node000006"><a xlink:href="class_temperature_controller.html#a6b2f92b5c2af867240200cff2e61e806" target="_top" xlink:title="Handle display section switching.">
<polygon fill="white" stroke="#666666" points="577.38,-668.88 450.38,-668.88 450.38,-638.38 577.38,-638.38 577.38,-668.88"/>
<text xml:space="preserve" text-anchor="start" x="458.38" y="-655.38" font-family="Helvetica,sans-Serif" font-size="10.00">TemperatureController</text>
<text xml:space="preserve" text-anchor="middle" x="513.88" y="-644.12" font-family="Helvetica,sans-Serif" font-size="10.00">::_handleDisplaySections</text>
</a>
</g>
</g>
<!-- Node5&#45;&gt;Node6 -->
<g id="edge6_Node000005_Node000006" class="edge">
<title>Node5&#45;&gt;Node6</title>
<g id="a_edge6_Node000005_Node000006"><a xlink:title=" ">
<path fill="none" stroke="#63b8ff" d="M363,-418.33C389.92,-460.59 464.07,-577.01 496.89,-628.53"/>
<polygon fill="#63b8ff" stroke="#63b8ff" points="493.74,-630.1 502.06,-636.65 499.64,-626.34 493.74,-630.1"/>
</a>
</g>
</g>
<!-- Node6&#45;&gt;Node4 -->
<g id="edge28_Node000006_Node000004" class="edge">
<title>Node6&#45;&gt;Node4</title>
<g id="a_edge28_Node000006_Node000004"><a xlink:title=" ">
<path fill="none" stroke="#63b8ff" d="M521.99,-638.05C536.52,-607.71 572.26,-540.07 619.75,-498.62 682.56,-443.81 773.61,-410.07 834.98,-392.11"/>
<polygon fill="#63b8ff" stroke="#63b8ff" points="835.59,-395.57 844.24,-389.46 833.66,-388.84 835.59,-395.57"/>
</a>
</g>
</g>
<!-- Node7 -->
<g id="Node000007" class="node">
<title>Node7</title>
<g id="a_Node000007"><a xlink:href="class_temperature_controller.html#ac44de0834e13cec755e247ce1df21f09" target="_top" xlink:title="Display next acknowledged alarm.">
<polygon fill="white" stroke="#666666" points="986.25,-684.88 818,-684.88 818,-654.38 986.25,-654.38 986.25,-684.88"/>
<text xml:space="preserve" text-anchor="start" x="826" y="-671.38" font-family="Helvetica,sans-Serif" font-size="10.00">TemperatureController</text>
<text xml:space="preserve" text-anchor="middle" x="902.12" y="-660.12" font-family="Helvetica,sans-Serif" font-size="10.00">::_displayNextAcknowledgedAlarm</text>
</a>
</g>
</g>
<!-- Node6&#45;&gt;Node7 -->
<g id="edge7_Node000006_Node000007" class="edge">
<title>Node6&#45;&gt;Node7</title>
<g id="a_edge7_Node000006_Node000007"><a xlink:title=" ">
<path fill="none" stroke="#63b8ff" d="M577.79,-656.23C639.78,-658.8 735.27,-662.75 806.43,-665.7"/>
<polygon fill="#63b8ff" stroke="#63b8ff" points="805.98,-669.19 816.12,-666.1 806.27,-662.19 805.98,-669.19"/>
</a>
</g>
</g>
<!-- Node8 -->
<g id="Node000008" class="node">
<title>Node8</title>
<g id="a_Node000008"><a xlink:href="class_temperature_controller.html#a1d2745c323f7094beac8f406825499b7" target="_top" xlink:title="Handle alarm display rotation timing.">
<polygon fill="white" stroke="#666666" points="776.38,-749.88 625.38,-749.88 625.38,-719.38 776.38,-719.38 776.38,-749.88"/>
<text xml:space="preserve" text-anchor="start" x="633.38" y="-736.38" font-family="Helvetica,sans-Serif" font-size="10.00">TemperatureController</text>
<text xml:space="preserve" text-anchor="middle" x="700.88" y="-725.12" font-family="Helvetica,sans-Serif" font-size="10.00">::_handleAlarmDisplayRotation</text>
</a>
</g>
</g>
<!-- Node6&#45;&gt;Node8 -->
<g id="edge8_Node000006_Node000008" class="edge">
<title>Node6&#45;&gt;Node8</title>
<g id="a_edge8_Node000006_Node000008"><a xlink:title=" ">
<path fill="none" stroke="#63b8ff" d="M544.29,-669.33C565.09,-680.15 593.77,-694.53 619.75,-705.62 627.23,-708.82 635.2,-711.98 643.09,-714.98"/>
<polygon fill="#63b8ff" stroke="#63b8ff" points="641.75,-718.21 652.35,-718.42 644.19,-711.65 641.75,-718.21"/>
</a>
</g>
</g>
<!-- Node11 -->
<g id="Node000011" class="node">
<title>Node11</title>
<g id="a_Node000011"><a xlink:href="class_temperature_controller.html#a4d36576f7d6ab8f5222a082878314912" target="_top" xlink:title="Update normal temperature display.">
<polygon fill="white" stroke="#666666" points="962.62,-733.88 841.62,-733.88 841.62,-703.38 962.62,-703.38 962.62,-733.88"/>
<text xml:space="preserve" text-anchor="start" x="849.62" y="-720.38" font-family="Helvetica,sans-Serif" font-size="10.00">TemperatureController</text>
<text xml:space="preserve" text-anchor="middle" x="902.12" y="-709.12" font-family="Helvetica,sans-Serif" font-size="10.00">::_updateNormalDisplay</text>
</a>
</g>
</g>
<!-- Node6&#45;&gt;Node11 -->
<g id="edge32_Node000006_Node000011" class="edge">
<title>Node6&#45;&gt;Node11</title>
<g id="a_edge32_Node000006_Node000011"><a xlink:title=" ">
<path fill="none" stroke="#63b8ff" d="M577.71,-667.39C591.53,-670.26 606.11,-673.15 619.75,-675.62 691.09,-688.55 773.08,-700.78 830.08,-708.87"/>
<polygon fill="#63b8ff" stroke="#63b8ff" points="829.25,-712.29 839.64,-710.22 830.23,-705.36 829.25,-712.29"/>
</a>
</g>
</g>
<!-- Node12 -->
<g id="Node000012" class="node">
<title>Node12</title>
<g id="a_Node000012"><a xlink:href="class_temperature_controller.html#a45f7994a3a052a527981dbfdad27606b" target="_top" xlink:title="Handle system status mode display.">
<polygon fill="white" stroke="#666666" points="771.88,-537.88 629.88,-537.88 629.88,-507.38 771.88,-507.38 771.88,-537.88"/>
<text xml:space="preserve" text-anchor="start" x="637.88" y="-524.38" font-family="Helvetica,sans-Serif" font-size="10.00">TemperatureController</text>
<text xml:space="preserve" text-anchor="middle" x="700.88" y="-513.12" font-family="Helvetica,sans-Serif" font-size="10.00">::_handleSystemStatusMode</text>
</a>
</g>
</g>
<!-- Node6&#45;&gt;Node12 -->
<g id="edge13_Node000006_Node000012" class="edge">
<title>Node6&#45;&gt;Node12</title>
<g id="a_edge13_Node000006_Node000012"><a xlink:title=" ">
<path fill="none" stroke="#63b8ff" d="M536.82,-638.08C569.56,-614.9 631.32,-571.17 668.72,-544.69"/>
<polygon fill="#63b8ff" stroke="#63b8ff" points="670.29,-547.86 676.43,-539.23 666.25,-542.15 670.29,-547.86"/>
</a>
</g>
</g>
<!-- Node26 -->
<g id="Node000026" class="node">
<title>Node26</title>
<g id="a_Node000026"><a xlink:href="class_temperature_controller.html#a477597992aa9362076843f37b648741a" target="_top" xlink:title="Update alarm display queues.">
<polygon fill="white" stroke="#666666" points="758.75,-871.88 643,-871.88 643,-841.38 758.75,-841.38 758.75,-871.88"/>
<text xml:space="preserve" text-anchor="start" x="651" y="-858.38" font-family="Helvetica,sans-Serif" font-size="10.00">TemperatureController</text>
<text xml:space="preserve" text-anchor="middle" x="700.88" y="-847.12" font-family="Helvetica,sans-Serif" font-size="10.00">::_updateAlarmQueues</text>
</a>
</g>
</g>
<!-- Node6&#45;&gt;Node26 -->
<g id="edge29_Node000006_Node000026" class="edge">
<title>Node6&#45;&gt;Node26</title>
<g id="a_edge29_Node000006_Node000026"><a xlink:title=" ">
<path fill="none" stroke="#63b8ff" d="M529.08,-669.22C561.23,-704.49 639.73,-790.63 678.08,-832.7"/>
<polygon fill="#63b8ff" stroke="#63b8ff" points="675.27,-834.83 684.6,-839.86 680.45,-830.11 675.27,-834.83"/>
</a>
</g>
</g>
<!-- Node8&#45;&gt;Node7 -->
<g id="edge9_Node000008_Node000007" class="edge">
<title>Node8&#45;&gt;Node7</title>
<g id="a_edge9_Node000008_Node000007"><a xlink:title=" ">
<path fill="none" stroke="#63b8ff" d="M746.13,-718.92C767.73,-711.37 794.15,-702.31 818,-694.62 824.16,-692.64 830.58,-690.62 837.02,-688.63"/>
<polygon fill="#63b8ff" stroke="#63b8ff" points="837.83,-692.04 846.37,-685.76 835.78,-685.35 837.83,-692.04"/>
</a>
</g>
</g>
<!-- Node9 -->
<g id="Node000009" class="node">
<title>Node9</title>
<g id="a_Node000009"><a xlink:href="class_temperature_controller.html#a7ca5124357f98bcd52316cf017341b09" target="_top" xlink:title="Display next active alarm in rotation.">
<polygon fill="white" stroke="#666666" points="968.25,-831.88 836,-831.88 836,-801.38 968.25,-801.38 968.25,-831.88"/>
<text xml:space="preserve" text-anchor="start" x="844" y="-818.38" font-family="Helvetica,sans-Serif" font-size="10.00">TemperatureController</text>
<text xml:space="preserve" text-anchor="middle" x="902.12" y="-807.12" font-family="Helvetica,sans-Serif" font-size="10.00">::_displayNextActiveAlarm</text>
</a>
</g>
</g>
<!-- Node8&#45;&gt;Node9 -->
<g id="edge10_Node000008_Node000009" class="edge">
<title>Node8&#45;&gt;Node9</title>
<g id="a_edge10_Node000008_Node000009"><a xlink:title=" ">
<path fill="none" stroke="#63b8ff" d="M730.39,-750.26C753.54,-762.55 787.27,-779.56 818,-791.62 823,-793.59 828.21,-795.49 833.49,-797.31"/>
<polygon fill="#63b8ff" stroke="#63b8ff" points="832.33,-800.61 842.92,-800.44 834.53,-793.96 832.33,-800.61"/>
</a>
</g>
</g>
<!-- Node10 -->
<g id="Node000010" class="node">
<title>Node10</title>
<g id="a_Node000010"><a xlink:href="class_temperature_controller.html#a28e81945f5235e161e6c532b428d36d2" target="_top" xlink:title="Show OK status and turn off OLED after delay.">
<polygon fill="white" stroke="#666666" points="973.12,-782.88 831.12,-782.88 831.12,-752.38 973.12,-752.38 973.12,-782.88"/>
<text xml:space="preserve" text-anchor="start" x="839.12" y="-769.38" font-family="Helvetica,sans-Serif" font-size="10.00">TemperatureController</text>
<text xml:space="preserve" text-anchor="middle" x="902.12" y="-758.12" font-family="Helvetica,sans-Serif" font-size="10.00">::_showOKAndTurnOffOLED</text>
</a>
</g>
</g>
<!-- Node8&#45;&gt;Node10 -->
<g id="edge11_Node000008_Node000010" class="edge">
<title>Node8&#45;&gt;Node10</title>
<g id="a_edge11_Node000008_Node000010"><a xlink:title=" ">
<path fill="none" stroke="#63b8ff" d="M776.64,-747.01C790.66,-749.33 805.39,-751.77 819.62,-754.13"/>
<polygon fill="#63b8ff" stroke="#63b8ff" points="818.96,-757.56 829.4,-755.75 820.1,-750.66 818.96,-757.56"/>
</a>
</g>
</g>
<!-- Node8&#45;&gt;Node11 -->
<g id="edge12_Node000008_Node000011" class="edge">
<title>Node8&#45;&gt;Node11</title>
<g id="a_edge12_Node000008_Node000011"><a xlink:title=" ">
<path fill="none" stroke="#63b8ff" d="M776.64,-728.62C794.12,-727.22 812.69,-725.73 830.01,-724.34"/>
<polygon fill="#63b8ff" stroke="#63b8ff" points="829.99,-727.85 839.68,-723.56 829.43,-720.87 829.99,-727.85"/>
</a>
</g>
</g>
<!-- Node12&#45;&gt;Node4 -->
<g id="edge27_Node000012_Node000004" class="edge">
<title>Node12&#45;&gt;Node4</title>
<g id="a_edge27_Node000012_Node000004"><a xlink:title=" ">
<path fill="none" stroke="#63b8ff" d="M726.61,-507.06C743.54,-495.61 765.76,-478.9 782,-460.62 802.65,-437.38 793.46,-419.72 818,-400.62 823.26,-396.53 829.18,-393.11 835.37,-390.25"/>
<polygon fill="#63b8ff" stroke="#63b8ff" points="836.65,-393.51 844.6,-386.5 834.01,-387.02 836.65,-393.51"/>
</a>
</g>
</g>
<!-- Node13 -->
<g id="Node000013" class="node">
<title>Node13</title>
<g id="a_Node000013"><a xlink:href="class_temperature_controller.html#a3948ceaf046b5f06afcc9083433f532c" target="_top" xlink:title="Display alarm summary by priority.">
<polygon fill="white" stroke="#666666" points="986.25,-439.88 818,-439.88 818,-409.38 986.25,-409.38 986.25,-439.88"/>
<text xml:space="preserve" text-anchor="start" x="826" y="-426.38" font-family="Helvetica,sans-Serif" font-size="10.00">TemperatureController</text>
<text xml:space="preserve" text-anchor="middle" x="902.12" y="-415.12" font-family="Helvetica,sans-Serif" font-size="10.00">::_displayAlarmSummaryByPriority</text>
</a>
</g>
</g>
<!-- Node12&#45;&gt;Node13 -->
<g id="edge14_Node000012_Node000013" class="edge">
<title>Node12&#45;&gt;Node13</title>
<g id="a_edge14_Node000012_Node000013"><a xlink:title=" ">
<path fill="none" stroke="#63b8ff" d="M722.73,-507.08C745.25,-490.89 782.66,-465.69 818,-449.62 822.24,-447.7 826.68,-445.87 831.19,-444.14"/>
<polygon fill="#63b8ff" stroke="#63b8ff" points="832.17,-447.51 840.39,-440.83 829.8,-440.93 832.17,-447.51"/>
</a>
</g>
</g>
<!-- Node15 -->
<g id="Node000015" class="node">
<title>Node15</title>
<g id="a_Node000015"><a xlink:href="class_temperature_controller.html#ab5e076b045677678390603e9a805e4db" target="_top" xlink:title="Display alarm summary by type.">
<polygon fill="white" stroke="#666666" points="981.38,-635.88 822.88,-635.88 822.88,-605.38 981.38,-605.38 981.38,-635.88"/>
<text xml:space="preserve" text-anchor="start" x="830.88" y="-622.38" font-family="Helvetica,sans-Serif" font-size="10.00">TemperatureController</text>
<text xml:space="preserve" text-anchor="middle" x="902.12" y="-611.12" font-family="Helvetica,sans-Serif" font-size="10.00">::_displayAlarmSummaryByType</text>
</a>
</g>
</g>
<!-- Node12&#45;&gt;Node15 -->
<g id="edge16_Node000012_Node000015" class="edge">
<title>Node12&#45;&gt;Node15</title>
<g id="a_edge16_Node000012_Node000015"><a xlink:title=" ">
<path fill="none" stroke="#63b8ff" d="M722.73,-538.17C745.25,-554.36 782.66,-579.56 818,-595.62 822.24,-597.55 826.68,-599.38 831.19,-601.11"/>
<polygon fill="#63b8ff" stroke="#63b8ff" points="829.8,-604.32 840.39,-604.42 832.17,-597.74 829.8,-604.32"/>
</a>
</g>
</g>
<!-- Node16 -->
<g id="Node000016" class="node">
<title>Node16</title>
<g id="a_Node000016"><a xlink:href="class_temperature_controller.html#a5fc773a967cea261f21bbe86d90d2586" target="_top" xlink:title="Display Modbus status page.">
<polygon fill="white" stroke="#666666" points="962.62,-586.88 841.62,-586.88 841.62,-556.38 962.62,-556.38 962.62,-586.88"/>
<text xml:space="preserve" text-anchor="start" x="849.62" y="-573.38" font-family="Helvetica,sans-Serif" font-size="10.00">TemperatureController</text>
<text xml:space="preserve" text-anchor="middle" x="902.12" y="-562.12" font-family="Helvetica,sans-Serif" font-size="10.00">::_displayModbusStatus</text>
</a>
</g>
</g>
<!-- Node12&#45;&gt;Node16 -->
<g id="edge17_Node000012_Node000016" class="edge">
<title>Node12&#45;&gt;Node16</title>
<g id="a_edge17_Node000012_Node000016"><a xlink:title=" ">
<path fill="none" stroke="#63b8ff" d="M765.74,-538.33C786.29,-543.39 809.19,-549.02 830.21,-554.19"/>
<polygon fill="#63b8ff" stroke="#63b8ff" points="829.33,-557.57 839.87,-556.56 831,-550.78 829.33,-557.57"/>
</a>
</g>
</g>
<!-- Node17 -->
<g id="Node000017" class="node">
<title>Node17</title>
<g id="a_Node000017"><a xlink:href="class_temperature_controller.html#a2436c7043d97ca75c717db2b87326d90" target="_top" xlink:title="Display network info page.">
<polygon fill="white" stroke="#666666" points="958.12,-537.88 846.12,-537.88 846.12,-507.38 958.12,-507.38 958.12,-537.88"/>
<text xml:space="preserve" text-anchor="start" x="854.12" y="-524.38" font-family="Helvetica,sans-Serif" font-size="10.00">TemperatureController</text>
<text xml:space="preserve" text-anchor="middle" x="902.12" y="-513.12" font-family="Helvetica,sans-Serif" font-size="10.00">::_displayNetworkInfo</text>
</a>
</g>
</g>
<!-- Node12&#45;&gt;Node17 -->
<g id="edge18_Node000012_Node000017" class="edge">
<title>Node12&#45;&gt;Node17</title>
<g id="a_edge18_Node000012_Node000017"><a xlink:title=" ">
<path fill="none" stroke="#63b8ff" d="M772.12,-522.62C792.45,-522.62 814.56,-522.62 834.65,-522.62"/>
<polygon fill="#63b8ff" stroke="#63b8ff" points="834.38,-526.13 844.38,-522.63 834.38,-519.13 834.38,-526.13"/>
</a>
</g>
</g>
<!-- Node18 -->
<g id="Node000018" class="node">
<title>Node18</title>
<g id="a_Node000018"><a xlink:href="class_temperature_controller.html#a45d13ed72fd36b46820af631e4db958b" target="_top" xlink:title="Display system stats page.">
<polygon fill="white" stroke="#666666" points="959.62,-488.88 844.62,-488.88 844.62,-458.38 959.62,-458.38 959.62,-488.88"/>
<text xml:space="preserve" text-anchor="start" x="852.62" y="-475.38" font-family="Helvetica,sans-Serif" font-size="10.00">TemperatureController</text>
<text xml:space="preserve" text-anchor="middle" x="902.12" y="-464.12" font-family="Helvetica,sans-Serif" font-size="10.00">::_displaySystemStats</text>
</a>
</g>
</g>
<!-- Node12&#45;&gt;Node18 -->
<g id="edge19_Node000012_Node000018" class="edge">
<title>Node12&#45;&gt;Node18</title>
<g id="a_edge19_Node000012_Node000018"><a xlink:title=" ">
<path fill="none" stroke="#63b8ff" d="M765.74,-506.92C787.26,-501.63 811.35,-495.7 833.17,-490.34"/>
<polygon fill="#63b8ff" stroke="#63b8ff" points="834,-493.74 842.88,-487.95 832.33,-486.94 834,-493.74"/>
</a>
</g>
</g>
<!-- Node14 -->
<g id="Node000014" class="node">
<title>Node14</title>
<g id="a_Node000014"><a xlink:href="class_temperature_controller.html#a3022c7a72adb45a7800d5189eecdac4e" target="_top" xlink:title="Get total number of configured alarms.">
<polygon fill="white" stroke="#666666" points="1134.25,-347.88 1022.25,-347.88 1022.25,-317.38 1134.25,-317.38 1134.25,-347.88"/>
<text xml:space="preserve" text-anchor="start" x="1030.25" y="-334.38" font-family="Helvetica,sans-Serif" font-size="10.00">TemperatureController</text>
<text xml:space="preserve" text-anchor="middle" x="1078.25" y="-323.12" font-family="Helvetica,sans-Serif" font-size="10.00">::getAlarmCount</text>
</a>
</g>
</g>
<!-- Node13&#45;&gt;Node14 -->
<g id="edge15_Node000013_Node000014" class="edge">
<title>Node13&#45;&gt;Node14</title>
<g id="a_edge15_Node000013_Node000014"><a xlink:title=" ">
<path fill="none" stroke="#63b8ff" d="M964,-408.97C971.65,-406.24 979.24,-403.13 986.25,-399.62 1010.01,-387.75 1034.09,-369.7 1051.51,-355.32"/>
<polygon fill="#63b8ff" stroke="#63b8ff" points="1053.42,-358.28 1058.82,-349.16 1048.91,-352.93 1053.42,-358.28"/>
</a>
</g>
</g>
<!-- Node19 -->
<g id="Node000019" class="node">
<title>Node19</title>
<g id="a_Node000019"><a xlink:href="class_temperature_controller.html#a9b4fe09d4c87dcf86e78b890012e1e72" target="_top" xlink:title="Get sensor bound to measurement point.">
<polygon fill="white" stroke="#666666" points="1134.25,-772.88 1022.25,-772.88 1022.25,-742.38 1134.25,-742.38 1134.25,-772.88"/>
<text xml:space="preserve" text-anchor="start" x="1030.25" y="-759.38" font-family="Helvetica,sans-Serif" font-size="10.00">TemperatureController</text>
<text xml:space="preserve" text-anchor="middle" x="1078.25" y="-748.12" font-family="Helvetica,sans-Serif" font-size="10.00">::getBoundSensor</text>
</a>
</g>
</g>
<!-- Node18&#45;&gt;Node19 -->
<g id="edge20_Node000018_Node000019" class="edge">
<title>Node18&#45;&gt;Node19</title>
<g id="a_edge20_Node000018_Node000019"><a xlink:title=" ">
<path fill="none" stroke="#63b8ff" d="M959.78,-482.82C969.5,-486.46 978.84,-491.55 986.25,-498.62 1053.09,-562.48 1070.88,-678.24 1075.58,-730.61"/>
<polygon fill="#63b8ff" stroke="#63b8ff" points="1072.08,-730.72 1076.36,-740.41 1079.06,-730.17 1072.08,-730.72"/>
</a>
</g>
</g>
<!-- Node24 -->
<g id="Node000024" class="node">
<title>Node24</title>
<g id="a_Node000024"><a xlink:href="class_temperature_controller.html#a9ac5f76def1895a8c8f8f92ce8cd2e5c" target="_top" xlink:title="Get count of discovered DS18B20 sensors.">
<polygon fill="white" stroke="#666666" points="1134.25,-512.88 1022.25,-512.88 1022.25,-482.38 1134.25,-482.38 1134.25,-512.88"/>
<text xml:space="preserve" text-anchor="start" x="1030.25" y="-499.38" font-family="Helvetica,sans-Serif" font-size="10.00">TemperatureController</text>
<text xml:space="preserve" text-anchor="middle" x="1078.25" y="-488.12" font-family="Helvetica,sans-Serif" font-size="10.00">::getDS18B20Count</text>
</a>
</g>
</g>
<!-- Node18&#45;&gt;Node24 -->
<g id="edge25_Node000018_Node000024" class="edge">
<title>Node18&#45;&gt;Node24</title>
<g id="a_edge25_Node000018_Node000024"><a xlink:title=" ">
<path fill="none" stroke="#63b8ff" d="M959.66,-481.42C976.03,-483.67 994.05,-486.16 1010.97,-488.49"/>
<polygon fill="#63b8ff" stroke="#63b8ff" points="1010.01,-491.89 1020.39,-489.79 1010.96,-484.96 1010.01,-491.89"/>
</a>
</g>
</g>
<!-- Node25 -->
<g id="Node000025" class="node">
<title>Node25</title>
<g id="a_Node000025"><a xlink:href="class_temperature_controller.html#a6ab2ecc10c283d75d948ce6f1ad723a6" target="_top" xlink:title="Get count of discovered PT1000 sensors.">
<polygon fill="white" stroke="#666666" points="1134.25,-463.88 1022.25,-463.88 1022.25,-433.38 1134.25,-433.38 1134.25,-463.88"/>
<text xml:space="preserve" text-anchor="start" x="1030.25" y="-450.38" font-family="Helvetica,sans-Serif" font-size="10.00">TemperatureController</text>
<text xml:space="preserve" text-anchor="middle" x="1078.25" y="-439.12" font-family="Helvetica,sans-Serif" font-size="10.00">::getPT1000Count</text>
</a>
</g>
</g>
<!-- Node18&#45;&gt;Node25 -->
<g id="edge26_Node000018_Node000025" class="edge">
<title>Node18&#45;&gt;Node25</title>
<g id="a_edge26_Node000018_Node000025"><a xlink:title=" ">
<path fill="none" stroke="#63b8ff" d="M959.66,-465.51C976.03,-463.16 994.05,-460.57 1010.97,-458.14"/>
<polygon fill="#63b8ff" stroke="#63b8ff" points="1010.99,-461.67 1020.39,-456.79 1010,-454.75 1010.99,-461.67"/>
</a>
</g>
</g>
<!-- Node20 -->
<g id="Node000020" class="node">
<title>Node20</title>
<g id="a_Node000020"><a xlink:href="class_measurement_point.html#a81c7ae93a9314344967d0f31c6fefe2f" target="_top" xlink:title="Get pointer to bound sensor.">
<polygon fill="white" stroke="#666666" points="1315.25,-796.88 1170.25,-796.88 1170.25,-766.38 1315.25,-766.38 1315.25,-796.88"/>
<text xml:space="preserve" text-anchor="start" x="1178.25" y="-783.38" font-family="Helvetica,sans-Serif" font-size="10.00">MeasurementPoint::getBound</text>
<text xml:space="preserve" text-anchor="middle" x="1242.75" y="-772.12" font-family="Helvetica,sans-Serif" font-size="10.00">Sensor</text>
</a>
</g>
</g>
<!-- Node19&#45;&gt;Node20 -->
<g id="edge21_Node000019_Node000020" class="edge">
<title>Node19&#45;&gt;Node20</title>
<g id="a_edge21_Node000019_Node000020"><a xlink:title=" ">
<path fill="none" stroke="#63b8ff" d="M1134.72,-765.82C1142.41,-766.95 1150.44,-768.14 1158.49,-769.33"/>
<polygon fill="#63b8ff" stroke="#63b8ff" points="1157.96,-772.79 1168.37,-770.79 1158.99,-765.86 1157.96,-772.79"/>
</a>
</g>
</g>
<!-- Node21 -->
<g id="Node000021" class="node">
<title>Node21</title>
<g id="a_Node000021"><a xlink:href="class_temperature_controller.html#a494f057c234b4ff7526bde271aec9267" target="_top" xlink:title="Get measurement point by address.">
<polygon fill="white" stroke="#666666" points="1301.38,-747.88 1184.12,-747.88 1184.12,-717.38 1301.38,-717.38 1301.38,-747.88"/>
<text xml:space="preserve" text-anchor="start" x="1192.12" y="-734.38" font-family="Helvetica,sans-Serif" font-size="10.00">TemperatureController</text>
<text xml:space="preserve" text-anchor="middle" x="1242.75" y="-723.12" font-family="Helvetica,sans-Serif" font-size="10.00">::getMeasurementPoint</text>
</a>
</g>
</g>
<!-- Node19&#45;&gt;Node21 -->
<g id="edge22_Node000019_Node000021" class="edge">
<title>Node19&#45;&gt;Node21</title>
<g id="a_edge22_Node000019_Node000021"><a xlink:title=" ">
<path fill="none" stroke="#63b8ff" d="M1134.72,-749.09C1146.95,-747.21 1160.05,-745.19 1172.74,-743.24"/>
<polygon fill="#63b8ff" stroke="#63b8ff" points="1172.91,-746.76 1182.27,-741.78 1171.85,-739.84 1172.91,-746.76"/>
</a>
</g>
</g>
<!-- Node22 -->
<g id="Node000022" class="node">
<title>Node22</title>
<g id="a_Node000022"><a xlink:href="class_temperature_controller.html#ad322a5bab8d5788a586206004248f673" target="_top" xlink:title="Check if address is for DS18B20 sensor.">
<polygon fill="white" stroke="#666666" points="1463.25,-772.88 1351.25,-772.88 1351.25,-742.38 1463.25,-742.38 1463.25,-772.88"/>
<text xml:space="preserve" text-anchor="start" x="1359.25" y="-759.38" font-family="Helvetica,sans-Serif" font-size="10.00">TemperatureController</text>
<text xml:space="preserve" text-anchor="middle" x="1407.25" y="-748.12" font-family="Helvetica,sans-Serif" font-size="10.00">::isDS18B20Address</text>
</a>
</g>
</g>
<!-- Node21&#45;&gt;Node22 -->
<g id="edge23_Node000021_Node000022" class="edge">
<title>Node21&#45;&gt;Node22</title>
<g id="a_edge23_Node000021_Node000022"><a xlink:title=" ">
<path fill="none" stroke="#63b8ff" d="M1301.5,-741.51C1313.92,-743.42 1327.14,-745.45 1339.85,-747.41"/>
<polygon fill="#63b8ff" stroke="#63b8ff" points="1338.95,-750.81 1349.37,-748.87 1340.02,-743.89 1338.95,-750.81"/>
</a>
</g>
</g>
<!-- Node23 -->
<g id="Node000023" class="node">
<title>Node23</title>
<g id="a_Node000023"><a xlink:href="class_temperature_controller.html#a13125ddcf29cb56d27403818543618af" target="_top" xlink:title="Check if address is for PT1000 sensor.">
<polygon fill="white" stroke="#666666" points="1463.25,-723.88 1351.25,-723.88 1351.25,-693.38 1463.25,-693.38 1463.25,-723.88"/>
<text xml:space="preserve" text-anchor="start" x="1359.25" y="-710.38" font-family="Helvetica,sans-Serif" font-size="10.00">TemperatureController</text>
<text xml:space="preserve" text-anchor="middle" x="1407.25" y="-699.12" font-family="Helvetica,sans-Serif" font-size="10.00">::isPT1000Address</text>
</a>
</g>
</g>
<!-- Node21&#45;&gt;Node23 -->
<g id="edge24_Node000021_Node000023" class="edge">
<title>Node21&#45;&gt;Node23</title>
<g id="a_edge24_Node000021_Node000023"><a xlink:title=" ">
<path fill="none" stroke="#63b8ff" d="M1301.5,-724.1C1313.92,-722.26 1327.14,-720.31 1339.85,-718.43"/>
<polygon fill="#63b8ff" stroke="#63b8ff" points="1339.99,-721.95 1349.37,-717.03 1338.96,-715.02 1339.99,-721.95"/>
</a>
</g>
</g>
<!-- Node27 -->
<g id="Node000027" class="node">
<title>Node27</title>
<g id="a_Node000027"><a xlink:href="class_temperature_controller.html#af58201023d15de003d4f1b9a9771a9e3" target="_top" xlink:title="Get list of active alarms.">
<polygon fill="white" stroke="#666666" points="958.12,-917.88 846.12,-917.88 846.12,-887.38 958.12,-887.38 958.12,-917.88"/>
<text xml:space="preserve" text-anchor="start" x="854.12" y="-904.38" font-family="Helvetica,sans-Serif" font-size="10.00">TemperatureController</text>
<text xml:space="preserve" text-anchor="middle" x="902.12" y="-893.12" font-family="Helvetica,sans-Serif" font-size="10.00">::getActiveAlarms</text>
</a>
</g>
</g>
<!-- Node26&#45;&gt;Node27 -->
<g id="edge30_Node000026_Node000027" class="edge">
<title>Node26&#45;&gt;Node27</title>
<g id="a_edge30_Node000026_Node000027"><a xlink:title=" ">
<path fill="none" stroke="#63b8ff" d="M759.24,-869.87C782.87,-875.32 810.39,-881.68 834.87,-887.33"/>
<polygon fill="#63b8ff" stroke="#63b8ff" points="833.87,-890.69 844.4,-889.53 835.45,-883.87 833.87,-890.69"/>
</a>
</g>
</g>
<!-- Node28 -->
<g id="Node000028" class="node">
<title>Node28</title>
<g id="a_Node000028"><a xlink:href="class_alarm.html#a7a4a3290a6a659542f82fe08a96736a8" target="_top" xlink:title="Get the alarm creation timestamp.">
<polygon fill="white" stroke="#666666" points="957,-869.25 847.25,-869.25 847.25,-850 957,-850 957,-869.25"/>
<text xml:space="preserve" text-anchor="middle" x="902.12" y="-855.75" font-family="Helvetica,sans-Serif" font-size="10.00">Alarm::getTimestamp</text>
</a>
</g>
</g>
<!-- Node26&#45;&gt;Node28 -->
<g id="edge31_Node000026_Node000028" class="edge">
<title>Node26&#45;&gt;Node28</title>
<g id="a_edge31_Node000026_Node000028"><a xlink:title=" ">
<path fill="none" stroke="#63b8ff" d="M759.24,-857.49C783.06,-857.85 810.83,-858.27 835.46,-858.64"/>
<polygon fill="#63b8ff" stroke="#63b8ff" points="835.34,-862.13 845.39,-858.79 835.44,-855.14 835.34,-862.13"/>
</a>
</g>
</g>
<!-- Node29&#45;&gt;Node14 -->
<g id="edge34_Node000029_Node000014" class="edge">
<title>Node29&#45;&gt;Node14</title>
<g id="a_edge34_Node000029_Node000014"><a xlink:title=" ">
<path fill="none" stroke="#63b8ff" d="M408.33,-317.85C539.52,-320.75 869.07,-328.03 1010.78,-331.16"/>
<polygon fill="#63b8ff" stroke="#63b8ff" points="1010.28,-334.65 1020.35,-331.37 1010.43,-327.65 1010.28,-334.65"/>
</a>
</g>
</g>
<!-- Node30 -->
<g id="Node000030" class="node">
<title>Node30</title>
<g id="a_Node000030"><a xlink:href="class_logger_manager.html#a5c1373ccc47f4112b596fe6f84fbbc21" target="_top" xlink:title="Log informational message (static convenience method)">
<polygon fill="white" stroke="#666666" points="566.12,-304.25 461.62,-304.25 461.62,-285 566.12,-285 566.12,-304.25"/>
<text xml:space="preserve" text-anchor="middle" x="513.88" y="-290.75" font-family="Helvetica,sans-Serif" font-size="10.00">LoggerManager::info</text>
</a>
</g>
</g>
<!-- Node29&#45;&gt;Node30 -->
<g id="edge35_Node000029_Node000030" class="edge">
<title>Node29&#45;&gt;Node30</title>
<g id="a_edge35_Node000029_Node000030"><a xlink:title=" ">
<path fill="none" stroke="#63b8ff" d="M408.47,-308.99C421.85,-307.15 436.26,-305.17 449.96,-303.28"/>
<polygon fill="#63b8ff" stroke="#63b8ff" points="450.33,-306.76 459.76,-301.93 449.38,-299.83 450.33,-306.76"/>
</a>
</g>
</g>
<!-- Node31&#45;&gt;Node19 -->
<g id="edge39_Node000031_Node000019" class="edge">
<title>Node31&#45;&gt;Node19</title>
<g id="a_edge39_Node000031_Node000019"><a xlink:title=" ">
<path fill="none" stroke="#63b8ff" d="M739.56,-921.28C797.19,-942.56 908.69,-972.95 986.25,-926.62 1038.23,-895.58 1062.27,-823.46 1071.84,-784.22"/>
<polygon fill="#63b8ff" stroke="#63b8ff" points="1075.21,-785.18 1074.02,-774.66 1068.39,-783.62 1075.21,-785.18"/>
</a>
</g>
</g>
<!-- Node31&#45;&gt;Node27 -->
<g id="edge38_Node000031_Node000027" class="edge">
<title>Node31&#45;&gt;Node27</title>
<g id="a_edge38_Node000031_Node000027"><a xlink:title=" ">
<path fill="none" stroke="#63b8ff" d="M757.11,-904.79C781.08,-904.43 809.36,-904.01 834.49,-903.63"/>
<polygon fill="#63b8ff" stroke="#63b8ff" points="834.32,-907.13 844.27,-903.48 834.21,-900.13 834.32,-907.13"/>
</a>
</g>
</g>
<!-- Node33 -->
<g id="Node000033" class="node">
<title>Node33</title>
<g id="a_Node000033"><a xlink:href="class_logger_manager.html#aef24f00186213fa78be3b104a50d58e6" target="_top" xlink:title="Log error message (static convenience method)">
<polygon fill="white" stroke="#666666" points="956.25,-212.25 848,-212.25 848,-193 956.25,-193 956.25,-212.25"/>
<text xml:space="preserve" text-anchor="middle" x="902.12" y="-198.75" font-family="Helvetica,sans-Serif" font-size="10.00">LoggerManager::error</text>
</a>
</g>
</g>
<!-- Node32&#45;&gt;Node33 -->
<g id="edge41_Node000032_Node000033" class="edge">
<title>Node32&#45;&gt;Node33</title>
<g id="a_edge41_Node000032_Node000033"><a xlink:title=" ">
<path fill="none" stroke="#63b8ff" d="M408.42,-159.35C490.38,-159.56 648.61,-162.33 782,-178.62 803.82,-181.29 827.62,-185.76 848.16,-190.13"/>
<polygon fill="#63b8ff" stroke="#63b8ff" points="847.21,-193.5 857.73,-192.21 848.7,-186.66 847.21,-193.5"/>
</a>
</g>
</g>
<!-- Node34 -->
<g id="Node000034" class="node">
<title>Node34</title>
<g id="a_Node000034"><a xlink:href="class_temperature_controller.html#a01e04714a1712aa10c34276850971a12" target="_top" xlink:title="Get bus number for a sensor.">
<polygon fill="white" stroke="#666666" points="569.88,-80.88 457.88,-80.88 457.88,-50.38 569.88,-50.38 569.88,-80.88"/>
<text xml:space="preserve" text-anchor="start" x="465.88" y="-67.38" font-family="Helvetica,sans-Serif" font-size="10.00">TemperatureController</text>
<text xml:space="preserve" text-anchor="middle" x="513.88" y="-56.12" font-family="Helvetica,sans-Serif" font-size="10.00">::getSensorBus</text>
</a>
</g>
</g>
<!-- Node32&#45;&gt;Node34 -->
<g id="edge42_Node000032_Node000034" class="edge">
<title>Node32&#45;&gt;Node34</title>
<g id="a_edge42_Node000032_Node000034"><a xlink:title=" ">
<path fill="none" stroke="#63b8ff" d="M379.76,-143.89C406.24,-128.32 446.96,-104.38 476.4,-87.07"/>
<polygon fill="#63b8ff" stroke="#63b8ff" points="478.14,-90.11 484.99,-82.02 474.6,-84.07 478.14,-90.11"/>
</a>
</g>
</g>
<!-- Node35 -->
<g id="Node000035" class="node">
<title>Node35</title>
<g id="a_Node000035"><a xlink:href="class_sensor.html#ac42da3a37b0d6a9622344fe83f4c9047" target="_top" xlink:title="Get OneWire bus pin.">
<polygon fill="white" stroke="#666666" points="760.25,-93.25 641.5,-93.25 641.5,-74 760.25,-74 760.25,-93.25"/>
<text xml:space="preserve" text-anchor="middle" x="700.88" y="-79.75" font-family="Helvetica,sans-Serif" font-size="10.00">Sensor::getOneWirePin</text>
</a>
</g>
</g>
<!-- Node34&#45;&gt;Node35 -->
<g id="edge43_Node000034_Node000035" class="edge">
<title>Node34&#45;&gt;Node35</title>
<g id="a_edge43_Node000034_Node000035"><a xlink:title=" ">
<path fill="none" stroke="#63b8ff" d="M570.13,-71C588.82,-72.82 609.95,-74.88 629.64,-76.79"/>
<polygon fill="#63b8ff" stroke="#63b8ff" points="629.24,-80.27 639.54,-77.75 629.92,-73.3 629.24,-80.27"/>
</a>
</g>
</g>
<!-- Node36 -->
<g id="Node000036" class="node">
<title>Node36</title>
<g id="a_Node000036"><a xlink:href="class_sensor.html#a6f57825e90b759ccdb9fe07b3a36953d" target="_top" xlink:title="Get PT1000 chip select pin.">
<polygon fill="white" stroke="#666666" points="782,-56.25 619.75,-56.25 619.75,-37 782,-37 782,-56.25"/>
<text xml:space="preserve" text-anchor="middle" x="700.88" y="-42.75" font-family="Helvetica,sans-Serif" font-size="10.00">Sensor::getPT1000ChipSelectPin</text>
</a>
</g>
</g>
<!-- Node34&#45;&gt;Node36 -->
<g id="edge44_Node000034_Node000036" class="edge">
<title>Node34&#45;&gt;Node36</title>
<g id="a_edge44_Node000034_Node000036"><a xlink:title=" ">
<path fill="none" stroke="#63b8ff" d="M570.13,-59.95C582.07,-58.72 595.01,-57.4 607.93,-56.07"/>
<polygon fill="#63b8ff" stroke="#63b8ff" points="608.16,-59.56 617.75,-55.06 607.44,-52.6 608.16,-59.56"/>
</a>
</g>
</g>
<!-- Node37 -->
<g id="Node000037" class="node">
<title>Node37</title>
<g id="a_Node000037"><a xlink:href="class_sensor.html#a0f6f095e7cfdfffb2a395dfdae7cfa53" target="_top" xlink:title="Get sensor type.">
<polygon fill="white" stroke="#666666" points="744.5,-19.25 657.25,-19.25 657.25,0 744.5,0 744.5,-19.25"/>
<text xml:space="preserve" text-anchor="middle" x="700.88" y="-5.75" font-family="Helvetica,sans-Serif" font-size="10.00">Sensor::getType</text>
</a>
</g>
</g>
<!-- Node34&#45;&gt;Node37 -->
<g id="edge45_Node000034_Node000037" class="edge">
<title>Node34&#45;&gt;Node37</title>
<g id="a_edge45_Node000034_Node000037"><a xlink:title=" ">
<path fill="none" stroke="#63b8ff" d="M554.32,-49.99C573.82,-42.61 597.82,-34.03 619.75,-27.62 628.12,-25.18 637.07,-22.87 645.83,-20.78"/>
<polygon fill="#63b8ff" stroke="#63b8ff" points="646.36,-24.25 655.31,-18.59 644.78,-17.43 646.36,-24.25"/>
</a>
</g>
</g>
<!-- Node39 -->
<g id="Node000039" class="node">
<title>Node39</title>
<g id="a_Node000039"><a xlink:href="class_temperature_controller.html#aac890ae08b5eddcf272771ecdba61453" target="_top" xlink:title="Get relay actual state.">
<polygon fill="white" stroke="#666666" points="569.88,-266.88 457.88,-266.88 457.88,-236.38 569.88,-236.38 569.88,-266.88"/>
<text xml:space="preserve" text-anchor="start" x="465.88" y="-253.38" font-family="Helvetica,sans-Serif" font-size="10.00">TemperatureController</text>
<text xml:space="preserve" text-anchor="middle" x="513.88" y="-242.12" font-family="Helvetica,sans-Serif" font-size="10.00">::getRelayActualState</text>
</a>
</g>
</g>
<!-- Node38&#45;&gt;Node39 -->
<g id="edge47_Node000038_Node000039" class="edge">
<title>Node38&#45;&gt;Node39</title>
<g id="a_edge47_Node000038_Node000039"><a xlink:title=" ">
<path fill="none" stroke="#63b8ff" d="M408.47,-251.62C420.62,-251.62 433.61,-251.62 446.15,-251.62"/>
<polygon fill="#63b8ff" stroke="#63b8ff" points="445.99,-255.13 455.99,-251.63 445.99,-248.13 445.99,-255.13"/>
</a>
</g>
</g>
<!-- Node40 -->
<g id="Node000040" class="node">
<title>Node40</title>
<g id="a_Node000040"><a xlink:href="class_temperature_controller.html#a20a14014a639f3390dba82a6cd39d067" target="_top" xlink:title="Get relay commanded state.">
<polygon fill="white" stroke="#666666" points="583.75,-217.88 444,-217.88 444,-187.38 583.75,-187.38 583.75,-217.88"/>
<text xml:space="preserve" text-anchor="start" x="452" y="-204.38" font-family="Helvetica,sans-Serif" font-size="10.00">TemperatureController</text>
<text xml:space="preserve" text-anchor="middle" x="513.88" y="-193.12" font-family="Helvetica,sans-Serif" font-size="10.00">::getRelayCommandedState</text>
</a>
</g>
</g>
<!-- Node38&#45;&gt;Node40 -->
<g id="edge49_Node000038_Node000040" class="edge">
<title>Node38&#45;&gt;Node40</title>
<g id="a_edge49_Node000038_Node000040"><a xlink:title=" ">
<path fill="none" stroke="#63b8ff" d="M404.03,-235.99C418.95,-231.41 435.43,-226.36 450.95,-221.6"/>
<polygon fill="#63b8ff" stroke="#63b8ff" points="451.53,-225.09 460.06,-218.81 449.48,-218.39 451.53,-225.09"/>
</a>
</g>
</g>
<!-- Node39&#45;&gt;Node33 -->
<g id="edge48_Node000039_Node000033" class="edge">
<title>Node39&#45;&gt;Node33</title>
<g id="a_edge48_Node000039_Node000033"><a xlink:title=" ">
<path fill="none" stroke="#63b8ff" d="M570.33,-248.15C624.5,-244.35 709.19,-237.34 782,-226.62 802.86,-223.56 825.59,-219.23 845.55,-215.09"/>
<polygon fill="#63b8ff" stroke="#63b8ff" points="846.09,-218.55 855.15,-213.06 844.64,-211.7 846.09,-218.55"/>
</a>
</g>
</g>
<!-- Node40&#45;&gt;Node14 -->
<g id="edge50_Node000040_Node000014" class="edge">
<title>Node40&#45;&gt;Node14</title>
<g id="a_edge50_Node000040_Node000014"><a xlink:title=" ">
<path fill="none" stroke="#63b8ff" d="M556.84,-186.98C643.73,-157.42 846.87,-103.17 986.25,-183.62 1032.71,-210.44 1058.43,-271.4 1069.87,-306.47"/>
<polygon fill="#63b8ff" stroke="#63b8ff" points="1066.47,-307.32 1072.77,-315.84 1073.16,-305.25 1066.47,-307.32"/>
</a>
</g>
</g>
<!-- Node41 -->
<g id="Node000041" class="node">
<title>Node41</title>
<g id="a_Node000041"><a xlink:href="class_temperature_controller.html#a61ff288cbeaa86dc21c610c778dba64e" target="_top" xlink:title="Get relay control mode.">
<polygon fill="white" stroke="#666666" points="759.12,-217.88 642.62,-217.88 642.62,-187.38 759.12,-187.38 759.12,-217.88"/>
<text xml:space="preserve" text-anchor="start" x="650.62" y="-204.38" font-family="Helvetica,sans-Serif" font-size="10.00">TemperatureController</text>
<text xml:space="preserve" text-anchor="middle" x="700.88" y="-193.12" font-family="Helvetica,sans-Serif" font-size="10.00">::getRelayControlMode</text>
</a>
</g>
</g>
<!-- Node40&#45;&gt;Node41 -->
<g id="edge51_Node000040_Node000041" class="edge">
<title>Node40&#45;&gt;Node41</title>
<g id="a_edge51_Node000040_Node000041"><a xlink:title=" ">
<path fill="none" stroke="#63b8ff" d="M584.03,-202.62C599.32,-202.62 615.52,-202.62 630.81,-202.62"/>
<polygon fill="#63b8ff" stroke="#63b8ff" points="630.78,-206.13 640.78,-202.63 630.78,-199.13 630.78,-206.13"/>
</a>
</g>
</g>
<!-- Node41&#45;&gt;Node33 -->
<g id="edge52_Node000041_Node000033" class="edge">
<title>Node41&#45;&gt;Node33</title>
<g id="a_edge52_Node000041_Node000033"><a xlink:title=" ">
<path fill="none" stroke="#63b8ff" d="M759.51,-202.62C783.52,-202.62 811.51,-202.62 836.24,-202.62"/>
<polygon fill="#63b8ff" stroke="#63b8ff" points="836.2,-206.13 846.2,-202.63 836.2,-199.13 836.2,-206.13"/>
</a>
</g>
</g>
</g>
</svg>
