<?xml version="1.0" encoding="UTF-8" standalone="no"?>
<!DOCTYPE svg PUBLIC "-//W3C//DTD SVG 1.1//EN"
 "http://www.w3.org/Graphics/SVG/1.1/DTD/svg11.dtd">
<!-- Generated by graphviz version 13.1.0 (20250701.0955)
 -->
<!-- Title: IndicatorInterface::_updateState Pages: 1 -->
<svg width="355pt" height="112pt"
 viewBox="0.00 0.00 355.00 112.00" xmlns="http://www.w3.org/2000/svg" xmlns:xlink="http://www.w3.org/1999/xlink">
<g id="graph0" class="graph" transform="scale(1 1) rotate(0) translate(4 107.5)">
<title>IndicatorInterface::_updateState</title>
<!-- Node1 -->
<g id="Node000001" class="node">
<title>Node1</title>
<g id="a_Node000001"><a xlink:title="Update internal state from PCF8575.">
<polygon fill="#999999" stroke="#666666" points="347.25,-54.5 255.5,-54.5 255.5,-24 347.25,-24 347.25,-54.5"/>
<text xml:space="preserve" text-anchor="start" x="263.5" y="-41" font-family="Helvetica,sans-Serif" font-size="10.00">IndicatorInterface</text>
<text xml:space="preserve" text-anchor="middle" x="301.38" y="-29.75" font-family="Helvetica,sans-Serif" font-size="10.00">::_updateState</text>
</a>
</g>
</g>
<!-- Node2 -->
<g id="Node000002" class="node">
<title>Node2</title>
<g id="a_Node000002"><a xlink:href="$class_indicator_interface.html#a6e69fba966a59153449facfac1e04057" xlink:title="Get current state of all 16 ports.">
<polygon fill="white" stroke="#666666" points="219.5,-79.5 127.75,-79.5 127.75,-49 219.5,-49 219.5,-79.5"/>
<text xml:space="preserve" text-anchor="start" x="135.75" y="-66" font-family="Helvetica,sans-Serif" font-size="10.00">IndicatorInterface</text>
<text xml:space="preserve" text-anchor="middle" x="173.62" y="-54.75" font-family="Helvetica,sans-Serif" font-size="10.00">::getCurrentState</text>
</a>
</g>
</g>
<!-- Node1&#45;&gt;Node2 -->
<g id="edge1_Node000001_Node000002" class="edge">
<title>Node1&#45;&gt;Node2</title>
<g id="a_edge1_Node000001_Node000002"><a xlink:title=" ">
<path fill="none" stroke="#63b8ff" d="M244.29,-50.4C236.09,-52.03 227.73,-53.69 219.78,-55.27"/>
<polygon fill="#63b8ff" stroke="#63b8ff" points="244.72,-53.88 253.85,-48.5 243.36,-47.02 244.72,-53.88"/>
</a>
</g>
</g>
<!-- Node5 -->
<g id="Node000005" class="node">
<title>Node5</title>
<g id="a_Node000005"><a xlink:href="$class_indicator_interface.html#a4586496158d0d102742463c908d9b2c3" xlink:title="Handle interrupt from PCF8575.">
<polygon fill="white" stroke="#666666" points="219.5,-30.5 127.75,-30.5 127.75,0 219.5,0 219.5,-30.5"/>
<text xml:space="preserve" text-anchor="start" x="135.75" y="-17" font-family="Helvetica,sans-Serif" font-size="10.00">IndicatorInterface</text>
<text xml:space="preserve" text-anchor="middle" x="173.62" y="-5.75" font-family="Helvetica,sans-Serif" font-size="10.00">::handleInterrupt</text>
</a>
</g>
</g>
<!-- Node1&#45;&gt;Node5 -->
<g id="edge4_Node000001_Node000005" class="edge">
<title>Node1&#45;&gt;Node5</title>
<g id="a_edge4_Node000001_Node000005"><a xlink:title=" ">
<path fill="none" stroke="#63b8ff" d="M244.29,-28.55C236.09,-26.98 227.73,-25.38 219.78,-23.87"/>
<polygon fill="#63b8ff" stroke="#63b8ff" points="243.37,-31.93 253.84,-30.37 244.68,-25.06 243.37,-31.93"/>
</a>
</g>
</g>
<!-- Node3 -->
<g id="Node000003" class="node">
<title>Node3</title>
<g id="a_Node000003"><a xlink:href="$class_indicator_interface.html#a21ce0e3bc0531d92f815059890c66c4c" xlink:title="Print current state of all ports to Serial.">
<polygon fill="white" stroke="#666666" points="91.75,-103.5 0,-103.5 0,-73 91.75,-73 91.75,-103.5"/>
<text xml:space="preserve" text-anchor="start" x="8" y="-90" font-family="Helvetica,sans-Serif" font-size="10.00">IndicatorInterface</text>
<text xml:space="preserve" text-anchor="middle" x="45.88" y="-78.75" font-family="Helvetica,sans-Serif" font-size="10.00">::printPortStates</text>
</a>
</g>
</g>
<!-- Node2&#45;&gt;Node3 -->
<g id="edge2_Node000002_Node000003" class="edge">
<title>Node2&#45;&gt;Node3</title>
<g id="a_edge2_Node000002_Node000003"><a xlink:title=" ">
<path fill="none" stroke="#63b8ff" d="M116.54,-74.95C108.34,-76.52 99.98,-78.12 92.03,-79.63"/>
<polygon fill="#63b8ff" stroke="#63b8ff" points="116.93,-78.44 126.09,-73.13 115.62,-71.57 116.93,-78.44"/>
</a>
</g>
</g>
<!-- Node4 -->
<g id="Node000004" class="node">
<title>Node4</title>
<g id="a_Node000004"><a xlink:href="$class_indicator_interface.html#a9e7d2c4cadd548e3fe2a16e41f8ae8d4" xlink:title="Read state of a numbered port.">
<polygon fill="white" stroke="#666666" points="91.75,-54.5 0,-54.5 0,-24 91.75,-24 91.75,-54.5"/>
<text xml:space="preserve" text-anchor="start" x="8" y="-41" font-family="Helvetica,sans-Serif" font-size="10.00">IndicatorInterface</text>
<text xml:space="preserve" text-anchor="middle" x="45.88" y="-29.75" font-family="Helvetica,sans-Serif" font-size="10.00">::readPort</text>
</a>
</g>
</g>
<!-- Node2&#45;&gt;Node4 -->
<g id="edge3_Node000002_Node000004" class="edge">
<title>Node2&#45;&gt;Node4</title>
<g id="a_edge3_Node000002_Node000004"><a xlink:title=" ">
<path fill="none" stroke="#63b8ff" d="M116.54,-53.1C108.34,-51.47 99.98,-49.81 92.03,-48.23"/>
<polygon fill="#63b8ff" stroke="#63b8ff" points="115.61,-56.48 126.1,-55 116.97,-49.62 115.61,-56.48"/>
</a>
</g>
</g>
</g>
</svg>
