<?xml version="1.0" encoding="UTF-8" standalone="no"?>
<!DOCTYPE svg PUBLIC "-//W3C//DTD SVG 1.1//EN"
 "http://www.w3.org/Graphics/SVG/1.1/DTD/svg11.dtd">
<!-- Generated by graphviz version 13.1.0 (20250701.0955)
 -->
<!-- Title: TemperatureController::bindSensorToPointByBusNumber Pages: 1 -->
<svg width="562pt" height="199pt"
 viewBox="0.00 0.00 562.00 199.00" xmlns="http://www.w3.org/2000/svg" xmlns:xlink="http://www.w3.org/1999/xlink">
<g id="graph0" class="graph" transform="scale(1 1) rotate(0) translate(4 194.88)">
<title>TemperatureController::bindSensorToPointByBusNumber</title>
<!-- Node1 -->
<g id="Node000001" class="node">
<title>Node1</title>
<g id="a_Node000001"><a xlink:title=" ">
<polygon fill="#999999" stroke="#666666" points="167.5,-141.88 0,-141.88 0,-111.38 167.5,-111.38 167.5,-141.88"/>
<text xml:space="preserve" text-anchor="start" x="8" y="-128.38" font-family="Helvetica,sans-Serif" font-size="10.00">TemperatureController</text>
<text xml:space="preserve" text-anchor="middle" x="83.75" y="-117.12" font-family="Helvetica,sans-Serif" font-size="10.00">::bindSensorToPointByBusNumber</text>
</a>
</g>
</g>
<!-- Node2 -->
<g id="Node000002" class="node">
<title>Node2</title>
<g id="a_Node000002"><a xlink:href="class_measurement_point.html#a3c3af28d9aabc9e5b9e2e370eaa29ce0" target="_top" xlink:title=" ">
<polygon fill="white" stroke="#666666" points="356,-179.25 203.5,-179.25 203.5,-160 356,-160 356,-179.25"/>
<text xml:space="preserve" text-anchor="middle" x="279.75" y="-165.75" font-family="Helvetica,sans-Serif" font-size="10.00">MeasurementPoint::bindSensor</text>
</a>
</g>
</g>
<!-- Node1&#45;&gt;Node2 -->
<g id="edge1_Node000001_Node000002" class="edge">
<title>Node1&#45;&gt;Node2</title>
<g id="a_edge1_Node000001_Node000002"><a xlink:title=" ">
<path fill="none" stroke="#63b8ff" d="M155.61,-142.33C177.44,-147.17 201.17,-152.43 221.93,-157.03"/>
<polygon fill="#63b8ff" stroke="#63b8ff" points="221.12,-160.44 231.64,-159.18 222.64,-153.6 221.12,-160.44"/>
</a>
</g>
</g>
<!-- Node3 -->
<g id="Node000003" class="node">
<title>Node3</title>
<g id="a_Node000003"><a xlink:href="class_temperature_controller.html#a494f057c234b4ff7526bde271aec9267" target="_top" xlink:title=" ">
<polygon fill="white" stroke="#666666" points="338.38,-141.88 221.12,-141.88 221.12,-111.38 338.38,-111.38 338.38,-141.88"/>
<text xml:space="preserve" text-anchor="start" x="229.12" y="-128.38" font-family="Helvetica,sans-Serif" font-size="10.00">TemperatureController</text>
<text xml:space="preserve" text-anchor="middle" x="279.75" y="-117.12" font-family="Helvetica,sans-Serif" font-size="10.00">::getMeasurementPoint</text>
</a>
</g>
</g>
<!-- Node1&#45;&gt;Node3 -->
<g id="edge2_Node000001_Node000003" class="edge">
<title>Node1&#45;&gt;Node3</title>
<g id="a_edge2_Node000001_Node000003"><a xlink:title=" ">
<path fill="none" stroke="#63b8ff" d="M167.87,-126.62C181.77,-126.62 196.06,-126.62 209.56,-126.62"/>
<polygon fill="#63b8ff" stroke="#63b8ff" points="209.18,-130.13 219.18,-126.63 209.18,-123.13 209.18,-130.13"/>
</a>
</g>
</g>
<!-- Node6 -->
<g id="Node000006" class="node">
<title>Node6</title>
<g id="a_Node000006"><a xlink:href="class_temperature_controller.html#a01e04714a1712aa10c34276850971a12" target="_top" xlink:title=" ">
<polygon fill="white" stroke="#666666" points="335.75,-77.88 223.75,-77.88 223.75,-47.38 335.75,-47.38 335.75,-77.88"/>
<text xml:space="preserve" text-anchor="start" x="231.75" y="-64.38" font-family="Helvetica,sans-Serif" font-size="10.00">TemperatureController</text>
<text xml:space="preserve" text-anchor="middle" x="279.75" y="-53.12" font-family="Helvetica,sans-Serif" font-size="10.00">::getSensorBus</text>
</a>
</g>
</g>
<!-- Node1&#45;&gt;Node6 -->
<g id="edge5_Node000001_Node000006" class="edge">
<title>Node1&#45;&gt;Node6</title>
<g id="a_edge5_Node000001_Node000006"><a xlink:title=" ">
<path fill="none" stroke="#63b8ff" d="M132.21,-110.97C158.75,-102.21 192.05,-91.23 220.2,-81.94"/>
<polygon fill="#63b8ff" stroke="#63b8ff" points="221.27,-85.27 229.67,-78.82 219.08,-78.62 221.27,-85.27"/>
</a>
</g>
</g>
<!-- Node4 -->
<g id="Node000004" class="node">
<title>Node4</title>
<g id="a_Node000004"><a xlink:href="class_temperature_controller.html#ad322a5bab8d5788a586206004248f673" target="_top" xlink:title=" ">
<polygon fill="white" stroke="#666666" points="529.12,-190.88 417.12,-190.88 417.12,-160.38 529.12,-160.38 529.12,-190.88"/>
<text xml:space="preserve" text-anchor="start" x="425.12" y="-177.38" font-family="Helvetica,sans-Serif" font-size="10.00">TemperatureController</text>
<text xml:space="preserve" text-anchor="middle" x="473.12" y="-166.12" font-family="Helvetica,sans-Serif" font-size="10.00">::isDS18B20Address</text>
</a>
</g>
</g>
<!-- Node3&#45;&gt;Node4 -->
<g id="edge3_Node000003_Node000004" class="edge">
<title>Node3&#45;&gt;Node4</title>
<g id="a_edge3_Node000003_Node000004"><a xlink:title=" ">
<path fill="none" stroke="#63b8ff" d="M338.69,-141.46C359.86,-146.88 383.98,-153.06 405.82,-158.65"/>
<polygon fill="#63b8ff" stroke="#63b8ff" points="404.66,-161.96 415.21,-161.05 406.39,-155.18 404.66,-161.96"/>
</a>
</g>
</g>
<!-- Node5 -->
<g id="Node000005" class="node">
<title>Node5</title>
<g id="a_Node000005"><a xlink:href="class_temperature_controller.html#a13125ddcf29cb56d27403818543618af" target="_top" xlink:title=" ">
<polygon fill="white" stroke="#666666" points="529.12,-141.88 417.12,-141.88 417.12,-111.38 529.12,-111.38 529.12,-141.88"/>
<text xml:space="preserve" text-anchor="start" x="425.12" y="-128.38" font-family="Helvetica,sans-Serif" font-size="10.00">TemperatureController</text>
<text xml:space="preserve" text-anchor="middle" x="473.12" y="-117.12" font-family="Helvetica,sans-Serif" font-size="10.00">::isPT1000Address</text>
</a>
</g>
</g>
<!-- Node3&#45;&gt;Node5 -->
<g id="edge4_Node000003_Node000005" class="edge">
<title>Node3&#45;&gt;Node5</title>
<g id="a_edge4_Node000003_Node000005"><a xlink:title=" ">
<path fill="none" stroke="#63b8ff" d="M338.69,-126.62C359.67,-126.62 383.54,-126.62 405.23,-126.62"/>
<polygon fill="#63b8ff" stroke="#63b8ff" points="405.17,-130.13 415.17,-126.63 405.17,-123.13 405.17,-130.13"/>
</a>
</g>
</g>
<!-- Node7 -->
<g id="Node000007" class="node">
<title>Node7</title>
<g id="a_Node000007"><a xlink:href="class_sensor.html#ac42da3a37b0d6a9622344fe83f4c9047" target="_top" xlink:title=" ">
<polygon fill="white" stroke="#666666" points="532.5,-93.25 413.75,-93.25 413.75,-74 532.5,-74 532.5,-93.25"/>
<text xml:space="preserve" text-anchor="middle" x="473.12" y="-79.75" font-family="Helvetica,sans-Serif" font-size="10.00">Sensor::getOneWirePin</text>
</a>
</g>
</g>
<!-- Node6&#45;&gt;Node7 -->
<g id="edge6_Node000006_Node000007" class="edge">
<title>Node6&#45;&gt;Node7</title>
<g id="a_edge6_Node000006_Node000007"><a xlink:title=" ">
<path fill="none" stroke="#63b8ff" d="M336.1,-68.7C356.78,-70.97 380.54,-73.58 402.36,-75.97"/>
<polygon fill="#63b8ff" stroke="#63b8ff" points="401.73,-79.42 412.06,-77.03 402.5,-72.46 401.73,-79.42"/>
</a>
</g>
</g>
<!-- Node8 -->
<g id="Node000008" class="node">
<title>Node8</title>
<g id="a_Node000008"><a xlink:href="class_sensor.html#a6f57825e90b759ccdb9fe07b3a36953d" target="_top" xlink:title=" ">
<polygon fill="white" stroke="#666666" points="554.25,-56.25 392,-56.25 392,-37 554.25,-37 554.25,-56.25"/>
<text xml:space="preserve" text-anchor="middle" x="473.12" y="-42.75" font-family="Helvetica,sans-Serif" font-size="10.00">Sensor::getPT1000ChipSelectPin</text>
</a>
</g>
</g>
<!-- Node6&#45;&gt;Node8 -->
<g id="edge7_Node000006_Node000008" class="edge">
<title>Node6&#45;&gt;Node8</title>
<g id="a_edge7_Node000006_Node000008"><a xlink:title=" ">
<path fill="none" stroke="#63b8ff" d="M336.1,-58C349.91,-56.84 365.1,-55.57 380.16,-54.31"/>
<polygon fill="#63b8ff" stroke="#63b8ff" points="380.44,-57.8 390.12,-53.48 379.86,-50.83 380.44,-57.8"/>
</a>
</g>
</g>
<!-- Node9 -->
<g id="Node000009" class="node">
<title>Node9</title>
<g id="a_Node000009"><a xlink:href="class_sensor.html#a0f6f095e7cfdfffb2a395dfdae7cfa53" target="_top" xlink:title=" ">
<polygon fill="white" stroke="#666666" points="516.75,-19.25 429.5,-19.25 429.5,0 516.75,0 516.75,-19.25"/>
<text xml:space="preserve" text-anchor="middle" x="473.12" y="-5.75" font-family="Helvetica,sans-Serif" font-size="10.00">Sensor::getType</text>
</a>
</g>
</g>
<!-- Node6&#45;&gt;Node9 -->
<g id="edge8_Node000006_Node000009" class="edge">
<title>Node6&#45;&gt;Node9</title>
<g id="a_edge8_Node000006_Node000009"><a xlink:title=" ">
<path fill="none" stroke="#63b8ff" d="M327.59,-46.93C347.36,-40.56 370.69,-33.36 392,-27.62 400.42,-25.36 409.39,-23.15 418.17,-21.09"/>
<polygon fill="#63b8ff" stroke="#63b8ff" points="418.69,-24.57 427.66,-18.92 417.13,-17.74 418.69,-24.57"/>
</a>
</g>
</g>
</g>
</svg>
