<?xml version="1.0" encoding="UTF-8" standalone="no"?>
<!DOCTYPE svg PUBLIC "-//W3C//DTD SVG 1.1//EN"
 "http://www.w3.org/Graphics/SVG/1.1/DTD/svg11.dtd">
<!-- Generated by graphviz version 13.1.0 (20250701.0955)
 -->
<!-- Title: Alarm::updateCondition Pages: 1 -->
<svg width="619pt" height="426pt"
 viewBox="0.00 0.00 619.00 426.00" xmlns="http://www.w3.org/2000/svg" xmlns:xlink="http://www.w3.org/1999/xlink">
<g id="graph0" class="graph" transform="scale(1 1) rotate(0) translate(4 422.25)">
<title>Alarm::updateCondition</title>
<!-- Node1 -->
<g id="Node000001" class="node">
<title>Node1</title>
<g id="a_Node000001"><a xlink:title="Update alarm condition based on current measurement.">
<polygon fill="#999999" stroke="#666666" points="118,-230.25 0,-230.25 0,-211 118,-211 118,-230.25"/>
<text xml:space="preserve" text-anchor="middle" x="59" y="-216.75" font-family="Helvetica,sans-Serif" font-size="10.00">Alarm::updateCondition</text>
</a>
</g>
</g>
<!-- Node2 -->
<g id="Node000002" class="node">
<title>Node2</title>
<g id="a_Node000002"><a xlink:href="class_alarm.html#a28229f40ec51928641f04cd1e505bd6c" target="_top" xlink:title="Check if alarm condition is currently met.">
<polygon fill="white" stroke="#666666" points="289.25,-418.25 169,-418.25 169,-399 289.25,-399 289.25,-418.25"/>
<text xml:space="preserve" text-anchor="middle" x="229.12" y="-404.75" font-family="Helvetica,sans-Serif" font-size="10.00">Alarm::_checkCondition</text>
</a>
</g>
</g>
<!-- Node1&#45;&gt;Node2 -->
<g id="edge1_Node000001_Node000002" class="edge">
<title>Node1&#45;&gt;Node2</title>
<g id="a_edge1_Node000001_Node000002"><a xlink:title=" ">
<path fill="none" stroke="#63b8ff" d="M62.45,-230.53C70.26,-259.96 97.43,-347.45 154,-390.62 155.52,-391.79 157.1,-392.87 158.74,-393.89"/>
<polygon fill="#63b8ff" stroke="#63b8ff" points="156.77,-396.81 167.26,-398.3 159.98,-390.59 156.77,-396.81"/>
</a>
</g>
</g>
<!-- Node3 -->
<g id="Node000003" class="node">
<title>Node3</title>
<g id="a_Node000003"><a xlink:href="class_alarm.html#a052a73879f5cd039f6f7cb7ce02e6a9d" target="_top" xlink:title="Get priority as string (internal version)">
<polygon fill="white" stroke="#666666" points="290.38,-381.25 167.88,-381.25 167.88,-362 290.38,-362 290.38,-381.25"/>
<text xml:space="preserve" text-anchor="middle" x="229.12" y="-367.75" font-family="Helvetica,sans-Serif" font-size="10.00">Alarm::_getPriorityString</text>
</a>
</g>
</g>
<!-- Node1&#45;&gt;Node3 -->
<g id="edge2_Node000001_Node000003" class="edge">
<title>Node1&#45;&gt;Node3</title>
<g id="a_edge2_Node000001_Node000003"><a xlink:title=" ">
<path fill="none" stroke="#63b8ff" d="M64.61,-230.52C76.17,-254.31 108.79,-315.12 154,-347.62 159.35,-351.47 165.34,-354.72 171.54,-357.46"/>
<polygon fill="#63b8ff" stroke="#63b8ff" points="170.1,-360.66 180.69,-361.06 172.67,-354.14 170.1,-360.66"/>
</a>
</g>
</g>
<!-- Node4 -->
<g id="Node000004" class="node">
<title>Node4</title>
<g id="a_Node000004"><a xlink:href="class_alarm.html#a11b2da560dbc8653fa9dec671a78b980" target="_top" xlink:title="Update the alarm display message.">
<polygon fill="white" stroke="#666666" points="462,-268.25 340.25,-268.25 340.25,-249 462,-249 462,-268.25"/>
<text xml:space="preserve" text-anchor="middle" x="401.12" y="-254.75" font-family="Helvetica,sans-Serif" font-size="10.00">Alarm::_updateMessage</text>
</a>
</g>
</g>
<!-- Node1&#45;&gt;Node4 -->
<g id="edge3_Node000001_Node000004" class="edge">
<title>Node1&#45;&gt;Node4</title>
<g id="a_edge3_Node000001_Node000004"><a xlink:title=" ">
<path fill="none" stroke="#63b8ff" d="M118.44,-223.23C168.05,-225.91 241.05,-230.93 304.25,-239.62 317.12,-241.39 330.87,-243.81 343.82,-246.32"/>
<polygon fill="#63b8ff" stroke="#63b8ff" points="342.98,-249.72 353.47,-248.24 344.35,-242.85 342.98,-249.72"/>
</a>
</g>
</g>
<!-- Node6 -->
<g id="Node000006" class="node">
<title>Node6</title>
<g id="a_Node000006"><a xlink:href="class_alarm.html#adc66e3d22e173b00c59b040369030a17" target="_top" xlink:title="Clear the alarm condition.">
<polygon fill="white" stroke="#666666" points="263.38,-305.25 194.88,-305.25 194.88,-286 263.38,-286 263.38,-305.25"/>
<text xml:space="preserve" text-anchor="middle" x="229.12" y="-291.75" font-family="Helvetica,sans-Serif" font-size="10.00">Alarm::clear</text>
</a>
</g>
</g>
<!-- Node1&#45;&gt;Node6 -->
<g id="edge5_Node000001_Node000006" class="edge">
<title>Node1&#45;&gt;Node6</title>
<g id="a_edge5_Node000001_Node000006"><a xlink:title=" ">
<path fill="none" stroke="#63b8ff" d="M73.61,-230.74C91.28,-243.42 123.48,-265.02 154,-277.62 163.34,-281.48 173.69,-284.64 183.63,-287.17"/>
<polygon fill="#63b8ff" stroke="#63b8ff" points="182.58,-290.52 193.12,-289.42 184.2,-283.71 182.58,-290.52"/>
</a>
</g>
</g>
<!-- Node7 -->
<g id="Node000007" class="node">
<title>Node7</title>
<g id="a_Node000007"><a xlink:href="class_alarm.html#abd578ec75a5ac9bce00b7ce7207c5d8c" target="_top" xlink:title="Get alarm type as string.">
<polygon fill="white" stroke="#666666" points="454.88,-231.25 347.38,-231.25 347.38,-212 454.88,-212 454.88,-231.25"/>
<text xml:space="preserve" text-anchor="middle" x="401.12" y="-217.75" font-family="Helvetica,sans-Serif" font-size="10.00">Alarm::getTypeString</text>
</a>
</g>
</g>
<!-- Node1&#45;&gt;Node7 -->
<g id="edge10_Node000001_Node000007" class="edge">
<title>Node1&#45;&gt;Node7</title>
<g id="a_edge10_Node000001_Node000007"><a xlink:title=" ">
<path fill="none" stroke="#63b8ff" d="M118.27,-210.58C130.06,-208.93 142.4,-207.48 154,-206.62 220.6,-201.69 237.67,-201.45 304.25,-206.62 314.49,-207.42 325.29,-208.69 335.8,-210.16"/>
<polygon fill="#63b8ff" stroke="#63b8ff" points="335.15,-213.6 345.55,-211.6 336.17,-206.67 335.15,-213.6"/>
</a>
</g>
</g>
<!-- Node8 -->
<g id="Node000008" class="node">
<title>Node8</title>
<g id="a_Node000008"><a xlink:href="class_logger_manager.html#a5c1373ccc47f4112b596fe6f84fbbc21" target="_top" xlink:title="Log informational message (static convenience method)">
<polygon fill="white" stroke="#666666" points="453.38,-305.25 348.88,-305.25 348.88,-286 453.38,-286 453.38,-305.25"/>
<text xml:space="preserve" text-anchor="middle" x="401.12" y="-291.75" font-family="Helvetica,sans-Serif" font-size="10.00">LoggerManager::info</text>
</a>
</g>
</g>
<!-- Node1&#45;&gt;Node8 -->
<g id="edge11_Node000001_Node000008" class="edge">
<title>Node1&#45;&gt;Node8</title>
<g id="a_edge11_Node000001_Node000008"><a xlink:title=" ">
<path fill="none" stroke="#63b8ff" d="M65.98,-230.53C78.97,-250.94 111.99,-297.23 154,-314.62 222.69,-343.08 311.31,-324.24 361.31,-309.14"/>
<polygon fill="#63b8ff" stroke="#63b8ff" points="362.32,-312.49 370.82,-306.16 360.23,-305.81 362.32,-312.49"/>
</a>
</g>
</g>
<!-- Node9 -->
<g id="Node000009" class="node">
<title>Node9</title>
<g id="a_Node000009"><a xlink:href="class_logger_manager.html#aef24f00186213fa78be3b104a50d58e6" target="_top" xlink:title="Log error message (static convenience method)">
<polygon fill="white" stroke="#666666" points="283.25,-154.25 175,-154.25 175,-135 283.25,-135 283.25,-154.25"/>
<text xml:space="preserve" text-anchor="middle" x="229.12" y="-140.75" font-family="Helvetica,sans-Serif" font-size="10.00">LoggerManager::error</text>
</a>
</g>
</g>
<!-- Node1&#45;&gt;Node9 -->
<g id="edge9_Node000001_Node000009" class="edge">
<title>Node1&#45;&gt;Node9</title>
<g id="a_edge9_Node000001_Node000009"><a xlink:title=" ">
<path fill="none" stroke="#63b8ff" d="M75.82,-210.63C94.13,-199.37 125.43,-181.02 154,-168.62 162.65,-164.88 172.08,-161.39 181.22,-158.3"/>
<polygon fill="#63b8ff" stroke="#63b8ff" points="182.3,-161.63 190.73,-155.21 180.14,-154.97 182.3,-161.63"/>
</a>
</g>
</g>
<!-- Node10 -->
<g id="Node000010" class="node">
<title>Node10</title>
<g id="a_Node000010"><a xlink:href="class_alarm.html#a6404e8478e8c2d726e9399ea1f2268b2" target="_top" xlink:title="Check if acknowledged delay has elapsed.">
<polygon fill="white" stroke="#666666" points="301.25,-116.88 157,-116.88 157,-86.38 301.25,-86.38 301.25,-116.88"/>
<text xml:space="preserve" text-anchor="start" x="165" y="-103.38" font-family="Helvetica,sans-Serif" font-size="10.00">Alarm::isAcknowledgedDelay</text>
<text xml:space="preserve" text-anchor="middle" x="229.12" y="-92.12" font-family="Helvetica,sans-Serif" font-size="10.00">Elapsed</text>
</a>
</g>
</g>
<!-- Node1&#45;&gt;Node10 -->
<g id="edge12_Node000001_Node000010" class="edge">
<title>Node1&#45;&gt;Node10</title>
<g id="a_edge12_Node000001_Node000010"><a xlink:title=" ">
<path fill="none" stroke="#63b8ff" d="M67.13,-210.76C81.45,-191.61 115.67,-149.23 154,-125.62 155.9,-124.45 157.86,-123.34 159.87,-122.27"/>
<polygon fill="#63b8ff" stroke="#63b8ff" points="161.36,-125.44 168.88,-117.97 158.34,-119.12 161.36,-125.44"/>
</a>
</g>
</g>
<!-- Node11 -->
<g id="Node000011" class="node">
<title>Node11</title>
<g id="a_Node000011"><a xlink:href="class_logger_manager.html#aa74d58708cf5cdf8ddafad648edadcf7" target="_top" xlink:title=" ">
<polygon fill="white" stroke="#666666" points="304.25,-67.88 154,-67.88 154,-37.38 304.25,-37.38 304.25,-67.88"/>
<text xml:space="preserve" text-anchor="start" x="162" y="-54.38" font-family="Helvetica,sans-Serif" font-size="10.00">LoggerManager::logAlarmState</text>
<text xml:space="preserve" text-anchor="middle" x="229.12" y="-43.12" font-family="Helvetica,sans-Serif" font-size="10.00">Change</text>
</a>
</g>
</g>
<!-- Node1&#45;&gt;Node11 -->
<g id="edge13_Node000001_Node000011" class="edge">
<title>Node1&#45;&gt;Node11</title>
<g id="a_edge13_Node000001_Node000011"><a xlink:title=" ">
<path fill="none" stroke="#63b8ff" d="M63.81,-210.67C74.21,-184.83 105.55,-115.02 154,-77.62 155.73,-76.29 157.54,-75.02 159.41,-73.82"/>
<polygon fill="#63b8ff" stroke="#63b8ff" points="160.85,-77.02 167.85,-69.08 157.42,-70.92 160.85,-77.02"/>
</a>
</g>
</g>
<!-- Node12 -->
<g id="Node000012" class="node">
<title>Node12</title>
<g id="a_Node000012"><a xlink:href="class_alarm.html#a73e7673d61f82aa21441c75f2cee2c6f" target="_top" xlink:title="Resolve the alarm completely.">
<polygon fill="white" stroke="#666666" points="268.62,-268.25 189.62,-268.25 189.62,-249 268.62,-249 268.62,-268.25"/>
<text xml:space="preserve" text-anchor="middle" x="229.12" y="-254.75" font-family="Helvetica,sans-Serif" font-size="10.00">Alarm::resolve</text>
</a>
</g>
</g>
<!-- Node1&#45;&gt;Node12 -->
<g id="edge14_Node000001_Node000012" class="edge">
<title>Node1&#45;&gt;Node12</title>
<g id="a_edge14_Node000001_Node000012"><a xlink:title=" ">
<path fill="none" stroke="#63b8ff" d="M104.61,-230.71C127.27,-235.83 154.87,-242.07 178.23,-247.35"/>
<polygon fill="#63b8ff" stroke="#63b8ff" points="177.31,-250.73 187.84,-249.52 178.86,-243.9 177.31,-250.73"/>
</a>
</g>
</g>
<!-- Node13 -->
<g id="Node000013" class="node">
<title>Node13</title>
<g id="a_Node000013"><a xlink:href="class_logger_manager.html#a0d52b0ff7bff22817e987ad753102854" target="_top" xlink:title="Log warning message (static convenience method)">
<polygon fill="white" stroke="#666666" points="290.38,-19.25 167.88,-19.25 167.88,0 290.38,0 290.38,-19.25"/>
<text xml:space="preserve" text-anchor="middle" x="229.12" y="-5.75" font-family="Helvetica,sans-Serif" font-size="10.00">LoggerManager::warning</text>
</a>
</g>
</g>
<!-- Node1&#45;&gt;Node13 -->
<g id="edge18_Node000001_Node000013" class="edge">
<title>Node1&#45;&gt;Node13</title>
<g id="a_edge18_Node000001_Node000013"><a xlink:title=" ">
<path fill="none" stroke="#63b8ff" d="M61.79,-210.87C68.1,-179.25 92.4,-78.76 154,-28.62 155.52,-27.39 157.12,-26.23 158.77,-25.14"/>
<polygon fill="#63b8ff" stroke="#63b8ff" points="160.33,-28.28 167.44,-20.43 156.98,-22.13 160.33,-28.28"/>
</a>
</g>
</g>
<!-- Node5 -->
<g id="Node000005" class="node">
<title>Node5</title>
<g id="a_Node000005"><a xlink:href="class_alarm.html#a480e1d6d474da0cd4e5dd557e41cb87e" target="_top" xlink:title="Get formatted display text for UI.">
<polygon fill="white" stroke="#666666" points="610.75,-268.25 498,-268.25 498,-249 610.75,-249 610.75,-268.25"/>
<text xml:space="preserve" text-anchor="middle" x="554.38" y="-254.75" font-family="Helvetica,sans-Serif" font-size="10.00">Alarm::getDisplayText</text>
</a>
</g>
</g>
<!-- Node4&#45;&gt;Node5 -->
<g id="edge4_Node000004_Node000005" class="edge">
<title>Node4&#45;&gt;Node5</title>
<g id="a_edge4_Node000004_Node000005"><a xlink:title=" ">
<path fill="none" stroke="#63b8ff" d="M462.34,-258.62C470.29,-258.62 478.48,-258.62 486.53,-258.62"/>
<polygon fill="#63b8ff" stroke="#63b8ff" points="486.27,-262.13 496.27,-258.63 486.27,-255.13 486.27,-262.13"/>
</a>
</g>
</g>
<!-- Node6&#45;&gt;Node4 -->
<g id="edge6_Node000006_Node000004" class="edge">
<title>Node6&#45;&gt;Node4</title>
<g id="a_edge6_Node000006_Node000004"><a xlink:title=" ">
<path fill="none" stroke="#63b8ff" d="M263.71,-288.31C286.23,-283.41 316.47,-276.83 342.75,-271.11"/>
<polygon fill="#63b8ff" stroke="#63b8ff" points="343.23,-274.59 352.26,-269.04 341.74,-267.75 343.23,-274.59"/>
</a>
</g>
</g>
<!-- Node6&#45;&gt;Node7 -->
<g id="edge7_Node000006_Node000007" class="edge">
<title>Node6&#45;&gt;Node7</title>
<g id="a_edge7_Node000006_Node000007"><a xlink:title=" ">
<path fill="none" stroke="#63b8ff" d="M263.77,-291.65C277.03,-289.04 291.99,-284.73 304.25,-277.62 324.38,-265.96 320.44,-251.83 340.25,-239.62 342.24,-238.4 344.31,-237.26 346.44,-236.19"/>
<polygon fill="#63b8ff" stroke="#63b8ff" points="347.59,-239.5 355.37,-232.3 344.8,-233.08 347.59,-239.5"/>
</a>
</g>
</g>
<!-- Node6&#45;&gt;Node8 -->
<g id="edge8_Node000006_Node000008" class="edge">
<title>Node6&#45;&gt;Node8</title>
<g id="a_edge8_Node000006_Node000008"><a xlink:title=" ">
<path fill="none" stroke="#63b8ff" d="M263.71,-295.62C284.69,-295.62 312.36,-295.62 337.29,-295.62"/>
<polygon fill="#63b8ff" stroke="#63b8ff" points="337.01,-299.13 347.01,-295.63 337.01,-292.13 337.01,-299.13"/>
</a>
</g>
</g>
<!-- Node12&#45;&gt;Node4 -->
<g id="edge15_Node000012_Node000004" class="edge">
<title>Node12&#45;&gt;Node4</title>
<g id="a_edge15_Node000012_Node000004"><a xlink:title=" ">
<path fill="none" stroke="#63b8ff" d="M268.7,-258.62C286.47,-258.62 308.15,-258.62 328.73,-258.62"/>
<polygon fill="#63b8ff" stroke="#63b8ff" points="328.51,-262.13 338.51,-258.63 328.51,-255.13 328.51,-262.13"/>
</a>
</g>
</g>
<!-- Node12&#45;&gt;Node7 -->
<g id="edge16_Node000012_Node000007" class="edge">
<title>Node12&#45;&gt;Node7</title>
<g id="a_edge16_Node000012_Node000007"><a xlink:title=" ">
<path fill="none" stroke="#63b8ff" d="M268.7,-250.23C290.62,-245.46 318.48,-239.4 342.9,-234.08"/>
<polygon fill="#63b8ff" stroke="#63b8ff" points="343.34,-237.57 352.36,-232.02 341.85,-230.73 343.34,-237.57"/>
</a>
</g>
</g>
<!-- Node12&#45;&gt;Node8 -->
<g id="edge17_Node000012_Node000008" class="edge">
<title>Node12&#45;&gt;Node8</title>
<g id="a_edge17_Node000012_Node000008"><a xlink:title=" ">
<path fill="none" stroke="#63b8ff" d="M268.7,-267.02C290.62,-271.79 318.48,-277.85 342.9,-283.17"/>
<polygon fill="#63b8ff" stroke="#63b8ff" points="341.85,-286.52 352.36,-285.23 343.34,-279.68 341.85,-286.52"/>
</a>
</g>
</g>
</g>
</svg>
