<?xml version="1.0" encoding="UTF-8" standalone="no"?>
<!DOCTYPE svg PUBLIC "-//W3C//DTD SVG 1.1//EN"
 "http://www.w3.org/Graphics/SVG/1.1/DTD/svg11.dtd">
<!-- Generated by graphviz version 13.1.0 (20250701.0955)
 -->
<!-- Title: TemperatureController::readAllPoints Pages: 1 -->
<svg width="955pt" height="657pt"
 viewBox="0.00 0.00 955.00 657.00" xmlns="http://www.w3.org/2000/svg" xmlns:xlink="http://www.w3.org/1999/xlink">
<g id="graph0" class="graph" transform="scale(1 1) rotate(0) translate(4 653.15)">
<title>TemperatureController::readAllPoints</title>
<!-- Node1 -->
<g id="Node000001" class="node">
<title>Node1</title>
<g id="a_Node000001"><a xlink:title="Read temperature from all configured measurement points.">
<polygon fill="#999999" stroke="#666666" points="112,-346.15 0,-346.15 0,-315.65 112,-315.65 112,-346.15"/>
<text xml:space="preserve" text-anchor="start" x="8" y="-332.65" font-family="Helvetica,sans-Serif" font-size="10.00">TemperatureController</text>
<text xml:space="preserve" text-anchor="middle" x="56" y="-321.4" font-family="Helvetica,sans-Serif" font-size="10.00">::readAllPoints</text>
</a>
</g>
</g>
<!-- Node2 -->
<g id="Node000002" class="node">
<title>Node2</title>
<g id="a_Node000002"><a xlink:href="class_temperature_controller.html#aca5deddbf703001373424d876f87b5f2" target="_top" xlink:title="Main update function &#45; must be called in loop()">
<polygon fill="white" stroke="#666666" points="260,-346.15 148,-346.15 148,-315.65 260,-315.65 260,-346.15"/>
<text xml:space="preserve" text-anchor="start" x="156" y="-332.65" font-family="Helvetica,sans-Serif" font-size="10.00">TemperatureController</text>
<text xml:space="preserve" text-anchor="middle" x="204" y="-321.4" font-family="Helvetica,sans-Serif" font-size="10.00">::update</text>
</a>
</g>
</g>
<!-- Node1&#45;&gt;Node2 -->
<g id="edge1_Node000001_Node000002" class="edge">
<title>Node1&#45;&gt;Node2</title>
<g id="a_edge1_Node000001_Node000002"><a xlink:title=" ">
<path fill="none" stroke="#63b8ff" d="M112.2,-324.33C120.1,-324.17 128.3,-324.12 136.39,-324.17"/>
<polygon fill="#63b8ff" stroke="#63b8ff" points="136.16,-327.67 146.21,-324.31 136.26,-320.67 136.16,-327.67"/>
</a>
</g>
</g>
<!-- Node2&#45;&gt;Node1 -->
<g id="edge16_Node000002_Node000001" class="edge">
<title>Node2&#45;&gt;Node1</title>
<g id="a_edge16_Node000002_Node000001"><a xlink:title=" ">
<path fill="none" stroke="#63b8ff" d="M147.73,-337.47C139.82,-337.63 131.62,-337.69 123.53,-337.63"/>
<polygon fill="#63b8ff" stroke="#63b8ff" points="123.76,-334.13 113.71,-337.49 123.66,-341.13 123.76,-334.13"/>
</a>
</g>
</g>
<!-- Node3 -->
<g id="Node000003" class="node">
<title>Node3</title>
<g id="a_Node000003"><a xlink:href="class_temperature_controller.html#a1228b63e95f26c21a8d9c2a27928bc75" target="_top" xlink:title="Check for button press and handle acknowledgment.">
<polygon fill="white" stroke="#666666" points="575.5,-552.15 463.5,-552.15 463.5,-521.65 575.5,-521.65 575.5,-552.15"/>
<text xml:space="preserve" text-anchor="start" x="471.5" y="-538.65" font-family="Helvetica,sans-Serif" font-size="10.00">TemperatureController</text>
<text xml:space="preserve" text-anchor="middle" x="519.5" y="-527.4" font-family="Helvetica,sans-Serif" font-size="10.00">::_checkButtonPress</text>
</a>
</g>
</g>
<!-- Node2&#45;&gt;Node3 -->
<g id="edge2_Node000002_Node000003" class="edge">
<title>Node2&#45;&gt;Node3</title>
<g id="a_edge2_Node000002_Node000003"><a xlink:title=" ">
<path fill="none" stroke="#63b8ff" d="M210.24,-346.37C221.2,-376.33 249.47,-442.37 296,-476.9 341.41,-510.6 404.51,-525.38 451.91,-531.85"/>
<polygon fill="#63b8ff" stroke="#63b8ff" points="451.44,-535.32 461.8,-533.1 452.32,-528.38 451.44,-535.32"/>
</a>
</g>
</g>
<!-- Node4 -->
<g id="Node000004" class="node">
<title>Node4</title>
<g id="a_Node000004"><a xlink:href="class_temperature_controller.html#a5637103784725fb1a73f6463d7cbfde6" target="_top" xlink:title="Handle alarm display on OLED/LEDs.">
<polygon fill="white" stroke="#666666" points="408,-468.15 296,-468.15 296,-437.65 408,-437.65 408,-468.15"/>
<text xml:space="preserve" text-anchor="start" x="304" y="-454.65" font-family="Helvetica,sans-Serif" font-size="10.00">TemperatureController</text>
<text xml:space="preserve" text-anchor="middle" x="352" y="-443.4" font-family="Helvetica,sans-Serif" font-size="10.00">::handleAlarmDisplay</text>
</a>
</g>
</g>
<!-- Node2&#45;&gt;Node4 -->
<g id="edge3_Node000002_Node000004" class="edge">
<title>Node2&#45;&gt;Node4</title>
<g id="a_edge3_Node000002_Node000004"><a xlink:title=" ">
<path fill="none" stroke="#63b8ff" d="M223.79,-346.6C249.19,-367.83 294.67,-405.83 323.81,-430.18"/>
<polygon fill="#63b8ff" stroke="#63b8ff" points="321.2,-432.56 331.12,-436.29 325.69,-427.19 321.2,-432.56"/>
</a>
</g>
</g>
<!-- Node13 -->
<g id="Node000013" class="node">
<title>Node13</title>
<g id="a_Node000013"><a xlink:href="class_temperature_controller.html#a82e4c37ff4121eaf5e00e9c52381e840" target="_top" xlink:title="Handle alarm output signals.">
<polygon fill="white" stroke="#666666" points="408,-316.15 296,-316.15 296,-285.65 408,-285.65 408,-316.15"/>
<text xml:space="preserve" text-anchor="start" x="304" y="-302.65" font-family="Helvetica,sans-Serif" font-size="10.00">TemperatureController</text>
<text xml:space="preserve" text-anchor="middle" x="352" y="-291.4" font-family="Helvetica,sans-Serif" font-size="10.00">::handleAlarmOutputs</text>
</a>
</g>
</g>
<!-- Node2&#45;&gt;Node13 -->
<g id="edge13_Node000002_Node000013" class="edge">
<title>Node2&#45;&gt;Node13</title>
<g id="a_edge13_Node000002_Node000013"><a xlink:title=" ">
<path fill="none" stroke="#63b8ff" d="M260.2,-319.56C268.19,-317.92 276.49,-316.21 284.67,-314.53"/>
<polygon fill="#63b8ff" stroke="#63b8ff" points="285.15,-318 294.24,-312.56 283.74,-311.15 285.15,-318"/>
</a>
</g>
</g>
<!-- Node16 -->
<g id="Node000016" class="node">
<title>Node16</title>
<g id="a_Node000016"><a xlink:href="class_temperature_controller.html#a5ac8af90de5dfd79a9a2e4c7270a98a3" target="_top" xlink:title="Update alarm states for all measurement points.">
<polygon fill="white" stroke="#666666" points="408,-366.15 296,-366.15 296,-335.65 408,-335.65 408,-366.15"/>
<text xml:space="preserve" text-anchor="start" x="304" y="-352.65" font-family="Helvetica,sans-Serif" font-size="10.00">TemperatureController</text>
<text xml:space="preserve" text-anchor="middle" x="352" y="-341.4" font-family="Helvetica,sans-Serif" font-size="10.00">::updateAlarms</text>
</a>
</g>
</g>
<!-- Node2&#45;&gt;Node16 -->
<g id="edge17_Node000002_Node000016" class="edge">
<title>Node2&#45;&gt;Node16</title>
<g id="a_edge17_Node000002_Node000016"><a xlink:title=" ">
<path fill="none" stroke="#63b8ff" d="M260.2,-338.46C268.1,-339.55 276.3,-340.67 284.39,-341.78"/>
<polygon fill="#63b8ff" stroke="#63b8ff" points="283.84,-345.23 294.23,-343.12 284.79,-338.3 283.84,-345.23"/>
</a>
</g>
</g>
<!-- Node22 -->
<g id="Node000022" class="node">
<title>Node22</title>
<g id="a_Node000022"><a xlink:href="class_temperature_controller.html#a23dca296a268baa9b8234c8bf9cf0c3e" target="_top" xlink:title="Update temperature readings for all sensors.">
<polygon fill="white" stroke="#666666" points="408,-102.15 296,-102.15 296,-71.65 408,-71.65 408,-102.15"/>
<text xml:space="preserve" text-anchor="start" x="304" y="-88.65" font-family="Helvetica,sans-Serif" font-size="10.00">TemperatureController</text>
<text xml:space="preserve" text-anchor="middle" x="352" y="-77.4" font-family="Helvetica,sans-Serif" font-size="10.00">::updateAllSensors</text>
</a>
</g>
</g>
<!-- Node2&#45;&gt;Node22 -->
<g id="edge24_Node000002_Node000022" class="edge">
<title>Node2&#45;&gt;Node22</title>
<g id="a_edge24_Node000002_Node000022"><a xlink:title=" ">
<path fill="none" stroke="#63b8ff" d="M214.36,-315.27C238.97,-274.12 305.74,-162.55 335.88,-112.18"/>
<polygon fill="#63b8ff" stroke="#63b8ff" points="338.81,-114.08 340.95,-103.7 332.81,-110.49 338.81,-114.08"/>
</a>
</g>
</g>
<!-- Node28 -->
<g id="Node000028" class="node">
<title>Node28</title>
<g id="a_Node000028"><a xlink:href="class_temperature_controller.html#a62b93899a3b8b55e2e0bd933520c2892" target="_top" xlink:title="Update register map with current values from measurement points.">
<polygon fill="white" stroke="#666666" points="408,-232.15 296,-232.15 296,-201.65 408,-201.65 408,-232.15"/>
<text xml:space="preserve" text-anchor="start" x="304" y="-218.65" font-family="Helvetica,sans-Serif" font-size="10.00">TemperatureController</text>
<text xml:space="preserve" text-anchor="middle" x="352" y="-207.4" font-family="Helvetica,sans-Serif" font-size="10.00">::updateRegisterMap</text>
</a>
</g>
</g>
<!-- Node2&#45;&gt;Node28 -->
<g id="edge30_Node000002_Node000028" class="edge">
<title>Node2&#45;&gt;Node28</title>
<g id="a_edge30_Node000002_Node000028"><a xlink:title=" ">
<path fill="none" stroke="#63b8ff" d="M224.99,-315.29C250.22,-295.59 293.78,-261.58 322.49,-239.16"/>
<polygon fill="#63b8ff" stroke="#63b8ff" points="324.33,-242.17 330.05,-233.26 320.02,-236.65 324.33,-242.17"/>
</a>
</g>
</g>
<!-- Node4&#45;&gt;Node3 -->
<g id="edge4_Node000004_Node000003" class="edge">
<title>Node4&#45;&gt;Node3</title>
<g id="a_edge4_Node000004_Node000003"><a xlink:title=" ">
<path fill="none" stroke="#63b8ff" d="M373.8,-468.56C391.69,-481.48 418.56,-499.63 444,-511.9 447.72,-513.7 451.6,-515.42 455.56,-517.05"/>
<polygon fill="#63b8ff" stroke="#63b8ff" points="454.13,-520.26 464.72,-520.64 456.69,-513.74 454.13,-520.26"/>
</a>
</g>
</g>
<!-- Node5 -->
<g id="Node000005" class="node">
<title>Node5</title>
<g id="a_Node000005"><a xlink:href="class_temperature_controller.html#a1d2745c323f7094beac8f406825499b7" target="_top" xlink:title="Handle alarm display rotation timing.">
<polygon fill="white" stroke="#666666" points="595,-503.15 444,-503.15 444,-472.65 595,-472.65 595,-503.15"/>
<text xml:space="preserve" text-anchor="start" x="452" y="-489.65" font-family="Helvetica,sans-Serif" font-size="10.00">TemperatureController</text>
<text xml:space="preserve" text-anchor="middle" x="519.5" y="-478.4" font-family="Helvetica,sans-Serif" font-size="10.00">::_handleAlarmDisplayRotation</text>
</a>
</g>
</g>
<!-- Node4&#45;&gt;Node5 -->
<g id="edge5_Node000004_Node000005" class="edge">
<title>Node4&#45;&gt;Node5</title>
<g id="a_edge5_Node000004_Node000005"><a xlink:title=" ">
<path fill="none" stroke="#63b8ff" d="M408.11,-464.56C416.15,-466.26 424.59,-468.04 433.06,-469.83"/>
<polygon fill="#63b8ff" stroke="#63b8ff" points="432.2,-473.23 442.71,-471.87 433.65,-466.38 432.2,-473.23"/>
</a>
</g>
</g>
<!-- Node10 -->
<g id="Node000010" class="node">
<title>Node10</title>
<g id="a_Node000010"><a xlink:href="class_temperature_controller.html#a477597992aa9362076843f37b648741a" target="_top" xlink:title="Update alarm display queues.">
<polygon fill="white" stroke="#666666" points="577.38,-454.15 461.62,-454.15 461.62,-423.65 577.38,-423.65 577.38,-454.15"/>
<text xml:space="preserve" text-anchor="start" x="469.62" y="-440.65" font-family="Helvetica,sans-Serif" font-size="10.00">TemperatureController</text>
<text xml:space="preserve" text-anchor="middle" x="519.5" y="-429.4" font-family="Helvetica,sans-Serif" font-size="10.00">::_updateAlarmQueues</text>
</a>
</g>
</g>
<!-- Node4&#45;&gt;Node10 -->
<g id="edge10_Node000004_Node000010" class="edge">
<title>Node4&#45;&gt;Node10</title>
<g id="a_edge10_Node000004_Node000010"><a xlink:title=" ">
<path fill="none" stroke="#63b8ff" d="M408.11,-448.24C421.61,-447.1 436.23,-445.86 450.26,-444.67"/>
<polygon fill="#63b8ff" stroke="#63b8ff" points="450.19,-448.19 459.86,-443.86 449.6,-441.22 450.19,-448.19"/>
</a>
</g>
</g>
<!-- Node6 -->
<g id="Node000006" class="node">
<title>Node6</title>
<g id="a_Node000006"><a xlink:href="class_temperature_controller.html#ac44de0834e13cec755e247ce1df21f09" target="_top" xlink:title="Display next acknowledged alarm.">
<polygon fill="white" stroke="#666666" points="799.25,-649.15 631,-649.15 631,-618.65 799.25,-618.65 799.25,-649.15"/>
<text xml:space="preserve" text-anchor="start" x="639" y="-635.65" font-family="Helvetica,sans-Serif" font-size="10.00">TemperatureController</text>
<text xml:space="preserve" text-anchor="middle" x="715.12" y="-624.4" font-family="Helvetica,sans-Serif" font-size="10.00">::_displayNextAcknowledgedAlarm</text>
</a>
</g>
</g>
<!-- Node5&#45;&gt;Node6 -->
<g id="edge6_Node000005_Node000006" class="edge">
<title>Node5&#45;&gt;Node6</title>
<g id="a_edge6_Node000005_Node000006"><a xlink:title=" ">
<path fill="none" stroke="#63b8ff" d="M582.45,-503.58C587.01,-506.22 591.27,-509.3 595,-512.9 627.78,-544.55 597.72,-577.77 631,-608.9 632.08,-609.91 633.21,-610.89 634.36,-611.82"/>
<polygon fill="#63b8ff" stroke="#63b8ff" points="632.35,-614.68 642.59,-617.38 636.27,-608.88 632.35,-614.68"/>
</a>
</g>
</g>
<!-- Node7 -->
<g id="Node000007" class="node">
<title>Node7</title>
<g id="a_Node000007"><a xlink:href="class_temperature_controller.html#a7ca5124357f98bcd52316cf017341b09" target="_top" xlink:title="Display next active alarm in rotation.">
<polygon fill="white" stroke="#666666" points="781.25,-600.15 649,-600.15 649,-569.65 781.25,-569.65 781.25,-600.15"/>
<text xml:space="preserve" text-anchor="start" x="657" y="-586.65" font-family="Helvetica,sans-Serif" font-size="10.00">TemperatureController</text>
<text xml:space="preserve" text-anchor="middle" x="715.12" y="-575.4" font-family="Helvetica,sans-Serif" font-size="10.00">::_displayNextActiveAlarm</text>
</a>
</g>
</g>
<!-- Node5&#45;&gt;Node7 -->
<g id="edge7_Node000005_Node000007" class="edge">
<title>Node5&#45;&gt;Node7</title>
<g id="a_edge7_Node000005_Node000007"><a xlink:title=" ">
<path fill="none" stroke="#63b8ff" d="M578.72,-503.58C584.46,-506.24 590.01,-509.33 595,-512.9 616.41,-528.2 609.35,-544.94 631,-559.9 633.39,-561.55 635.88,-563.09 638.46,-564.54"/>
<polygon fill="#63b8ff" stroke="#63b8ff" points="636.87,-567.65 647.39,-568.95 639.98,-561.38 636.87,-567.65"/>
</a>
</g>
</g>
<!-- Node8 -->
<g id="Node000008" class="node">
<title>Node8</title>
<g id="a_Node000008"><a xlink:href="class_temperature_controller.html#a28e81945f5235e161e6c532b428d36d2" target="_top" xlink:title="Show OK status and turn off OLED after delay.">
<polygon fill="white" stroke="#666666" points="786.12,-551.15 644.12,-551.15 644.12,-520.65 786.12,-520.65 786.12,-551.15"/>
<text xml:space="preserve" text-anchor="start" x="652.12" y="-537.65" font-family="Helvetica,sans-Serif" font-size="10.00">TemperatureController</text>
<text xml:space="preserve" text-anchor="middle" x="715.12" y="-526.4" font-family="Helvetica,sans-Serif" font-size="10.00">::_showOKAndTurnOffOLED</text>
</a>
</g>
</g>
<!-- Node5&#45;&gt;Node8 -->
<g id="edge8_Node000005_Node000008" class="edge">
<title>Node5&#45;&gt;Node8</title>
<g id="a_edge8_Node000005_Node000008"><a xlink:title=" ">
<path fill="none" stroke="#63b8ff" d="M583.9,-503.62C601.79,-508.05 621.42,-512.92 639.89,-517.5"/>
<polygon fill="#63b8ff" stroke="#63b8ff" points="638.9,-520.86 649.44,-519.87 640.58,-514.06 638.9,-520.86"/>
</a>
</g>
</g>
<!-- Node9 -->
<g id="Node000009" class="node">
<title>Node9</title>
<g id="a_Node000009"><a xlink:href="class_temperature_controller.html#a4d36576f7d6ab8f5222a082878314912" target="_top" xlink:title="Update normal temperature display.">
<polygon fill="white" stroke="#666666" points="775.62,-502.15 654.62,-502.15 654.62,-471.65 775.62,-471.65 775.62,-502.15"/>
<text xml:space="preserve" text-anchor="start" x="662.62" y="-488.65" font-family="Helvetica,sans-Serif" font-size="10.00">TemperatureController</text>
<text xml:space="preserve" text-anchor="middle" x="715.12" y="-477.4" font-family="Helvetica,sans-Serif" font-size="10.00">::_updateNormalDisplay</text>
</a>
</g>
</g>
<!-- Node5&#45;&gt;Node9 -->
<g id="edge9_Node000005_Node000009" class="edge">
<title>Node5&#45;&gt;Node9</title>
<g id="a_edge9_Node000005_Node000009"><a xlink:title=" ">
<path fill="none" stroke="#63b8ff" d="M595.36,-487.51C611.03,-487.43 627.51,-487.35 643.04,-487.27"/>
<polygon fill="#63b8ff" stroke="#63b8ff" points="642.66,-490.77 652.64,-487.22 642.62,-483.77 642.66,-490.77"/>
</a>
</g>
</g>
<!-- Node11 -->
<g id="Node000011" class="node">
<title>Node11</title>
<g id="a_Node000011"><a xlink:href="class_temperature_controller.html#af58201023d15de003d4f1b9a9771a9e3" target="_top" xlink:title="Get list of active alarms.">
<polygon fill="white" stroke="#666666" points="771.12,-416.15 659.12,-416.15 659.12,-385.65 771.12,-385.65 771.12,-416.15"/>
<text xml:space="preserve" text-anchor="start" x="667.12" y="-402.65" font-family="Helvetica,sans-Serif" font-size="10.00">TemperatureController</text>
<text xml:space="preserve" text-anchor="middle" x="715.12" y="-391.4" font-family="Helvetica,sans-Serif" font-size="10.00">::getActiveAlarms</text>
</a>
</g>
</g>
<!-- Node10&#45;&gt;Node11 -->
<g id="edge11_Node000010_Node000011" class="edge">
<title>Node10&#45;&gt;Node11</title>
<g id="a_edge11_Node000010_Node000011"><a xlink:title=" ">
<path fill="none" stroke="#63b8ff" d="M577.81,-427.65C599.65,-423.37 624.74,-418.44 647.39,-414"/>
<polygon fill="#63b8ff" stroke="#63b8ff" points="648.01,-417.44 657.14,-412.08 646.66,-410.58 648.01,-417.44"/>
</a>
</g>
</g>
<!-- Node12 -->
<g id="Node000012" class="node">
<title>Node12</title>
<g id="a_Node000012"><a xlink:href="class_alarm.html#a7a4a3290a6a659542f82fe08a96736a8" target="_top" xlink:title="Get the alarm creation timestamp.">
<polygon fill="white" stroke="#666666" points="770,-453.53 660.25,-453.53 660.25,-434.28 770,-434.28 770,-453.53"/>
<text xml:space="preserve" text-anchor="middle" x="715.12" y="-440.03" font-family="Helvetica,sans-Serif" font-size="10.00">Alarm::getTimestamp</text>
</a>
</g>
</g>
<!-- Node10&#45;&gt;Node12 -->
<g id="edge12_Node000010_Node000012" class="edge">
<title>Node10&#45;&gt;Node12</title>
<g id="a_edge12_Node000010_Node000012"><a xlink:title=" ">
<path fill="none" stroke="#63b8ff" d="M577.81,-440.38C600.04,-440.96 625.62,-441.62 648.57,-442.21"/>
<polygon fill="#63b8ff" stroke="#63b8ff" points="648.35,-445.7 658.44,-442.46 648.53,-438.71 648.35,-445.7"/>
</a>
</g>
</g>
<!-- Node14 -->
<g id="Node000014" class="node">
<title>Node14</title>
<g id="a_Node000014"><a xlink:href="class_temperature_controller.html#a3022c7a72adb45a7800d5189eecdac4e" target="_top" xlink:title="Get total number of configured alarms.">
<polygon fill="white" stroke="#666666" points="771.12,-269.15 659.12,-269.15 659.12,-238.65 771.12,-238.65 771.12,-269.15"/>
<text xml:space="preserve" text-anchor="start" x="667.12" y="-255.65" font-family="Helvetica,sans-Serif" font-size="10.00">TemperatureController</text>
<text xml:space="preserve" text-anchor="middle" x="715.12" y="-244.4" font-family="Helvetica,sans-Serif" font-size="10.00">::getAlarmCount</text>
</a>
</g>
</g>
<!-- Node13&#45;&gt;Node14 -->
<g id="edge14_Node000013_Node000014" class="edge">
<title>Node13&#45;&gt;Node14</title>
<g id="a_edge14_Node000013_Node000014"><a xlink:title=" ">
<path fill="none" stroke="#63b8ff" d="M408.06,-298.97C457.29,-296.68 531.29,-291.83 595,-281.9 612.22,-279.22 630.64,-275.38 647.71,-271.4"/>
<polygon fill="#63b8ff" stroke="#63b8ff" points="648.33,-274.85 657.24,-269.13 646.7,-268.04 648.33,-274.85"/>
</a>
</g>
</g>
<!-- Node15 -->
<g id="Node000015" class="node">
<title>Node15</title>
<g id="a_Node000015"><a xlink:href="class_logger_manager.html#a5c1373ccc47f4112b596fe6f84fbbc21" target="_top" xlink:title="Log informational message (static convenience method)">
<polygon fill="white" stroke="#666666" points="571.75,-272.53 467.25,-272.53 467.25,-253.28 571.75,-253.28 571.75,-272.53"/>
<text xml:space="preserve" text-anchor="middle" x="519.5" y="-259.03" font-family="Helvetica,sans-Serif" font-size="10.00">LoggerManager::info</text>
</a>
</g>
</g>
<!-- Node13&#45;&gt;Node15 -->
<g id="edge15_Node000013_Node000015" class="edge">
<title>Node13&#45;&gt;Node15</title>
<g id="a_edge15_Node000013_Node000015"><a xlink:title=" ">
<path fill="none" stroke="#63b8ff" d="M408.11,-288.25C425.93,-284.15 445.69,-279.62 463.51,-275.53"/>
<polygon fill="#63b8ff" stroke="#63b8ff" points="464.17,-278.97 473.13,-273.32 462.6,-272.14 464.17,-278.97"/>
</a>
</g>
</g>
<!-- Node16&#45;&gt;Node11 -->
<g id="edge18_Node000016_Node000011" class="edge">
<title>Node16&#45;&gt;Node11</title>
<g id="a_edge18_Node000016_Node000011"><a xlink:title=" ">
<path fill="none" stroke="#63b8ff" d="M406.57,-366.57C418.79,-369.71 431.78,-372.72 444,-374.9 512.74,-387.19 592.42,-393.96 647.34,-397.49"/>
<polygon fill="#63b8ff" stroke="#63b8ff" points="646.96,-400.97 657.16,-398.1 647.4,-393.99 646.96,-400.97"/>
</a>
</g>
</g>
<!-- Node17 -->
<g id="Node000017" class="node">
<title>Node17</title>
<g id="a_Node000017"><a xlink:href="class_temperature_controller.html#a9b4fe09d4c87dcf86e78b890012e1e72" target="_top" xlink:title="Get sensor bound to measurement point.">
<polygon fill="white" stroke="#666666" points="575.5,-366.15 463.5,-366.15 463.5,-335.65 575.5,-335.65 575.5,-366.15"/>
<text xml:space="preserve" text-anchor="start" x="471.5" y="-352.65" font-family="Helvetica,sans-Serif" font-size="10.00">TemperatureController</text>
<text xml:space="preserve" text-anchor="middle" x="519.5" y="-341.4" font-family="Helvetica,sans-Serif" font-size="10.00">::getBoundSensor</text>
</a>
</g>
</g>
<!-- Node16&#45;&gt;Node17 -->
<g id="edge19_Node000016_Node000017" class="edge">
<title>Node16&#45;&gt;Node17</title>
<g id="a_edge19_Node000016_Node000017"><a xlink:title=" ">
<path fill="none" stroke="#63b8ff" d="M408.11,-350.9C422.06,-350.9 437.19,-350.9 451.65,-350.9"/>
<polygon fill="#63b8ff" stroke="#63b8ff" points="451.55,-354.4 461.55,-350.9 451.55,-347.4 451.55,-354.4"/>
</a>
</g>
</g>
<!-- Node18 -->
<g id="Node000018" class="node">
<title>Node18</title>
<g id="a_Node000018"><a xlink:href="class_measurement_point.html#a81c7ae93a9314344967d0f31c6fefe2f" target="_top" xlink:title="Get pointer to bound sensor.">
<polygon fill="white" stroke="#666666" points="787.62,-367.15 642.62,-367.15 642.62,-336.65 787.62,-336.65 787.62,-367.15"/>
<text xml:space="preserve" text-anchor="start" x="650.62" y="-353.65" font-family="Helvetica,sans-Serif" font-size="10.00">MeasurementPoint::getBound</text>
<text xml:space="preserve" text-anchor="middle" x="715.12" y="-342.4" font-family="Helvetica,sans-Serif" font-size="10.00">Sensor</text>
</a>
</g>
</g>
<!-- Node17&#45;&gt;Node18 -->
<g id="edge20_Node000017_Node000018" class="edge">
<title>Node17&#45;&gt;Node18</title>
<g id="a_edge20_Node000017_Node000018"><a xlink:title=" ">
<path fill="none" stroke="#63b8ff" d="M575.99,-351.19C593.11,-351.28 612.35,-351.38 630.91,-351.47"/>
<polygon fill="#63b8ff" stroke="#63b8ff" points="630.82,-354.97 640.84,-351.52 630.86,-347.97 630.82,-354.97"/>
</a>
</g>
</g>
<!-- Node19 -->
<g id="Node000019" class="node">
<title>Node19</title>
<g id="a_Node000019"><a xlink:href="class_temperature_controller.html#a494f057c234b4ff7526bde271aec9267" target="_top" xlink:title="Get measurement point by address.">
<polygon fill="white" stroke="#666666" points="773.75,-318.15 656.5,-318.15 656.5,-287.65 773.75,-287.65 773.75,-318.15"/>
<text xml:space="preserve" text-anchor="start" x="664.5" y="-304.65" font-family="Helvetica,sans-Serif" font-size="10.00">TemperatureController</text>
<text xml:space="preserve" text-anchor="middle" x="715.12" y="-293.4" font-family="Helvetica,sans-Serif" font-size="10.00">::getMeasurementPoint</text>
</a>
</g>
</g>
<!-- Node17&#45;&gt;Node19 -->
<g id="edge21_Node000017_Node000019" class="edge">
<title>Node17&#45;&gt;Node19</title>
<g id="a_edge21_Node000017_Node000019"><a xlink:title=" ">
<path fill="none" stroke="#63b8ff" d="M575.99,-337.15C597.59,-331.79 622.58,-325.59 645.32,-319.96"/>
<polygon fill="#63b8ff" stroke="#63b8ff" points="645.94,-323.41 654.8,-317.61 644.25,-316.62 645.94,-323.41"/>
</a>
</g>
</g>
<!-- Node20 -->
<g id="Node000020" class="node">
<title>Node20</title>
<g id="a_Node000020"><a xlink:href="class_temperature_controller.html#ad322a5bab8d5788a586206004248f673" target="_top" xlink:title="Check if address is for DS18B20 sensor.">
<polygon fill="white" stroke="#666666" points="947.25,-342.15 835.25,-342.15 835.25,-311.65 947.25,-311.65 947.25,-342.15"/>
<text xml:space="preserve" text-anchor="start" x="843.25" y="-328.65" font-family="Helvetica,sans-Serif" font-size="10.00">TemperatureController</text>
<text xml:space="preserve" text-anchor="middle" x="891.25" y="-317.4" font-family="Helvetica,sans-Serif" font-size="10.00">::isDS18B20Address</text>
</a>
</g>
</g>
<!-- Node19&#45;&gt;Node20 -->
<g id="edge22_Node000019_Node000020" class="edge">
<title>Node19&#45;&gt;Node20</title>
<g id="a_edge22_Node000019_Node000020"><a xlink:title=" ">
<path fill="none" stroke="#63b8ff" d="M774.11,-310.89C790.02,-313.09 807.4,-315.48 823.76,-317.74"/>
<polygon fill="#63b8ff" stroke="#63b8ff" points="823,-321.16 833.38,-319.06 823.96,-314.23 823,-321.16"/>
</a>
</g>
</g>
<!-- Node21 -->
<g id="Node000021" class="node">
<title>Node21</title>
<g id="a_Node000021"><a xlink:href="class_temperature_controller.html#a13125ddcf29cb56d27403818543618af" target="_top" xlink:title="Check if address is for PT1000 sensor.">
<polygon fill="white" stroke="#666666" points="947.25,-293.15 835.25,-293.15 835.25,-262.65 947.25,-262.65 947.25,-293.15"/>
<text xml:space="preserve" text-anchor="start" x="843.25" y="-279.65" font-family="Helvetica,sans-Serif" font-size="10.00">TemperatureController</text>
<text xml:space="preserve" text-anchor="middle" x="891.25" y="-268.4" font-family="Helvetica,sans-Serif" font-size="10.00">::isPT1000Address</text>
</a>
</g>
</g>
<!-- Node19&#45;&gt;Node21 -->
<g id="edge23_Node000019_Node000021" class="edge">
<title>Node19&#45;&gt;Node21</title>
<g id="a_edge23_Node000019_Node000021"><a xlink:title=" ">
<path fill="none" stroke="#63b8ff" d="M774.11,-294.58C790.02,-292.29 807.4,-289.8 823.76,-287.45"/>
<polygon fill="#63b8ff" stroke="#63b8ff" points="823.98,-290.95 833.38,-286.07 822.99,-284.02 823.98,-290.95"/>
</a>
</g>
</g>
<!-- Node23 -->
<g id="Node000023" class="node">
<title>Node23</title>
<g id="a_Node000023"><a xlink:href="class_logger_manager.html#aef24f00186213fa78be3b104a50d58e6" target="_top" xlink:title="Log error message (static convenience method)">
<polygon fill="white" stroke="#666666" points="945.38,-171.53 837.12,-171.53 837.12,-152.28 945.38,-152.28 945.38,-171.53"/>
<text xml:space="preserve" text-anchor="middle" x="891.25" y="-158.03" font-family="Helvetica,sans-Serif" font-size="10.00">LoggerManager::error</text>
</a>
</g>
</g>
<!-- Node22&#45;&gt;Node23 -->
<g id="edge25_Node000022_Node000023" class="edge">
<title>Node22&#45;&gt;Node23</title>
<g id="a_edge25_Node000022_Node000023"><a xlink:title=" ">
<path fill="none" stroke="#63b8ff" d="M384.4,-71.25C460.49,-35.7 658.79,42.55 799.25,-30.9 843.88,-54.24 871.02,-110.53 883,-141.17"/>
<polygon fill="#63b8ff" stroke="#63b8ff" points="879.69,-142.31 886.45,-150.47 886.25,-139.87 879.69,-142.31"/>
</a>
</g>
</g>
<!-- Node24 -->
<g id="Node000024" class="node">
<title>Node24</title>
<g id="a_Node000024"><a xlink:href="class_temperature_controller.html#a01e04714a1712aa10c34276850971a12" target="_top" xlink:title="Get bus number for a sensor.">
<polygon fill="white" stroke="#666666" points="575.5,-102.15 463.5,-102.15 463.5,-71.65 575.5,-71.65 575.5,-102.15"/>
<text xml:space="preserve" text-anchor="start" x="471.5" y="-88.65" font-family="Helvetica,sans-Serif" font-size="10.00">TemperatureController</text>
<text xml:space="preserve" text-anchor="middle" x="519.5" y="-77.4" font-family="Helvetica,sans-Serif" font-size="10.00">::getSensorBus</text>
</a>
</g>
</g>
<!-- Node22&#45;&gt;Node24 -->
<g id="edge26_Node000022_Node000024" class="edge">
<title>Node22&#45;&gt;Node24</title>
<g id="a_edge26_Node000022_Node000024"><a xlink:title=" ">
<path fill="none" stroke="#63b8ff" d="M408.11,-86.9C422.06,-86.9 437.19,-86.9 451.65,-86.9"/>
<polygon fill="#63b8ff" stroke="#63b8ff" points="451.55,-90.4 461.55,-86.9 451.55,-83.4 451.55,-90.4"/>
</a>
</g>
</g>
<!-- Node25 -->
<g id="Node000025" class="node">
<title>Node25</title>
<g id="a_Node000025"><a xlink:href="class_sensor.html#ac42da3a37b0d6a9622344fe83f4c9047" target="_top" xlink:title="Get OneWire bus pin.">
<polygon fill="white" stroke="#666666" points="774.5,-133.53 655.75,-133.53 655.75,-114.28 774.5,-114.28 774.5,-133.53"/>
<text xml:space="preserve" text-anchor="middle" x="715.12" y="-120.03" font-family="Helvetica,sans-Serif" font-size="10.00">Sensor::getOneWirePin</text>
</a>
</g>
</g>
<!-- Node24&#45;&gt;Node25 -->
<g id="edge27_Node000024_Node000025" class="edge">
<title>Node24&#45;&gt;Node25</title>
<g id="a_edge27_Node000024_Node000025"><a xlink:title=" ">
<path fill="none" stroke="#63b8ff" d="M575.99,-97.5C599.14,-101.93 626.17,-107.09 650.16,-111.68"/>
<polygon fill="#63b8ff" stroke="#63b8ff" points="649.33,-115.08 659.81,-113.52 650.64,-108.21 649.33,-115.08"/>
</a>
</g>
</g>
<!-- Node26 -->
<g id="Node000026" class="node">
<title>Node26</title>
<g id="a_Node000026"><a xlink:href="class_sensor.html#a6f57825e90b759ccdb9fe07b3a36953d" target="_top" xlink:title="Get PT1000 chip select pin.">
<polygon fill="white" stroke="#666666" points="796.25,-96.53 634,-96.53 634,-77.28 796.25,-77.28 796.25,-96.53"/>
<text xml:space="preserve" text-anchor="middle" x="715.12" y="-83.03" font-family="Helvetica,sans-Serif" font-size="10.00">Sensor::getPT1000ChipSelectPin</text>
</a>
</g>
</g>
<!-- Node24&#45;&gt;Node26 -->
<g id="edge28_Node000024_Node000026" class="edge">
<title>Node24&#45;&gt;Node26</title>
<g id="a_edge28_Node000024_Node000026"><a xlink:title=" ">
<path fill="none" stroke="#63b8ff" d="M575.99,-86.9C590.46,-86.9 606.46,-86.9 622.28,-86.9"/>
<polygon fill="#63b8ff" stroke="#63b8ff" points="622.23,-90.4 632.23,-86.9 622.23,-83.4 622.23,-90.4"/>
</a>
</g>
</g>
<!-- Node27 -->
<g id="Node000027" class="node">
<title>Node27</title>
<g id="a_Node000027"><a xlink:href="class_sensor.html#a0f6f095e7cfdfffb2a395dfdae7cfa53" target="_top" xlink:title="Get sensor type.">
<polygon fill="white" stroke="#666666" points="758.75,-59.53 671.5,-59.53 671.5,-40.28 758.75,-40.28 758.75,-59.53"/>
<text xml:space="preserve" text-anchor="middle" x="715.12" y="-46.03" font-family="Helvetica,sans-Serif" font-size="10.00">Sensor::getType</text>
</a>
</g>
</g>
<!-- Node24&#45;&gt;Node27 -->
<g id="edge29_Node000024_Node000027" class="edge">
<title>Node24&#45;&gt;Node27</title>
<g id="a_edge29_Node000024_Node000027"><a xlink:title=" ">
<path fill="none" stroke="#63b8ff" d="M575.99,-76.3C602.37,-71.26 633.79,-65.25 659.99,-60.25"/>
<polygon fill="#63b8ff" stroke="#63b8ff" points="660.6,-63.69 669.76,-58.38 659.28,-56.82 660.6,-63.69"/>
</a>
</g>
</g>
<!-- Node29 -->
<g id="Node000029" class="node">
<title>Node29</title>
<g id="a_Node000029"><a xlink:href="class_temperature_controller.html#aac890ae08b5eddcf272771ecdba61453" target="_top" xlink:title="Get relay actual state.">
<polygon fill="white" stroke="#666666" points="575.5,-178.15 463.5,-178.15 463.5,-147.65 575.5,-147.65 575.5,-178.15"/>
<text xml:space="preserve" text-anchor="start" x="471.5" y="-164.65" font-family="Helvetica,sans-Serif" font-size="10.00">TemperatureController</text>
<text xml:space="preserve" text-anchor="middle" x="519.5" y="-153.4" font-family="Helvetica,sans-Serif" font-size="10.00">::getRelayActualState</text>
</a>
</g>
</g>
<!-- Node28&#45;&gt;Node29 -->
<g id="edge31_Node000028_Node000029" class="edge">
<title>Node28&#45;&gt;Node29</title>
<g id="a_edge31_Node000028_Node000029"><a xlink:title=" ">
<path fill="none" stroke="#63b8ff" d="M400.87,-201.28C419.23,-195.29 440.39,-188.39 459.67,-182.1"/>
<polygon fill="#63b8ff" stroke="#63b8ff" points="460.59,-185.48 469.01,-179.05 458.42,-178.82 460.59,-185.48"/>
</a>
</g>
</g>
<!-- Node30 -->
<g id="Node000030" class="node">
<title>Node30</title>
<g id="a_Node000030"><a xlink:href="class_temperature_controller.html#a20a14014a639f3390dba82a6cd39d067" target="_top" xlink:title="Get relay commanded state.">
<polygon fill="white" stroke="#666666" points="589.38,-232.15 449.62,-232.15 449.62,-201.65 589.38,-201.65 589.38,-232.15"/>
<text xml:space="preserve" text-anchor="start" x="457.62" y="-218.65" font-family="Helvetica,sans-Serif" font-size="10.00">TemperatureController</text>
<text xml:space="preserve" text-anchor="middle" x="519.5" y="-207.4" font-family="Helvetica,sans-Serif" font-size="10.00">::getRelayCommandedState</text>
</a>
</g>
</g>
<!-- Node28&#45;&gt;Node30 -->
<g id="edge33_Node000028_Node000030" class="edge">
<title>Node28&#45;&gt;Node30</title>
<g id="a_edge33_Node000028_Node000030"><a xlink:title=" ">
<path fill="none" stroke="#63b8ff" d="M408.11,-216.9C417.67,-216.9 427.8,-216.9 437.87,-216.9"/>
<polygon fill="#63b8ff" stroke="#63b8ff" points="437.69,-220.4 447.69,-216.9 437.69,-213.4 437.69,-220.4"/>
</a>
</g>
</g>
<!-- Node29&#45;&gt;Node23 -->
<g id="edge32_Node000029_Node000023" class="edge">
<title>Node29&#45;&gt;Node23</title>
<g id="a_edge32_Node000029_Node000023"><a xlink:title=" ">
<path fill="none" stroke="#63b8ff" d="M575.86,-162.75C642.65,-162.57 754.77,-162.27 825.51,-162.08"/>
<polygon fill="#63b8ff" stroke="#63b8ff" points="825.42,-165.58 835.41,-162.05 825.4,-158.58 825.42,-165.58"/>
</a>
</g>
</g>
<!-- Node30&#45;&gt;Node14 -->
<g id="edge34_Node000030_Node000014" class="edge">
<title>Node30&#45;&gt;Node14</title>
<g id="a_edge34_Node000030_Node000014"><a xlink:title=" ">
<path fill="none" stroke="#63b8ff" d="M589.86,-230.15C608.73,-233.76 629.11,-237.66 647.81,-241.23"/>
<polygon fill="#63b8ff" stroke="#63b8ff" points="646.93,-244.62 657.41,-243.06 648.25,-237.75 646.93,-244.62"/>
</a>
</g>
</g>
<!-- Node31 -->
<g id="Node000031" class="node">
<title>Node31</title>
<g id="a_Node000031"><a xlink:href="class_temperature_controller.html#a61ff288cbeaa86dc21c610c778dba64e" target="_top" xlink:title="Get relay control mode.">
<polygon fill="white" stroke="#666666" points="773.38,-220.15 656.88,-220.15 656.88,-189.65 773.38,-189.65 773.38,-220.15"/>
<text xml:space="preserve" text-anchor="start" x="664.88" y="-206.65" font-family="Helvetica,sans-Serif" font-size="10.00">TemperatureController</text>
<text xml:space="preserve" text-anchor="middle" x="715.12" y="-195.4" font-family="Helvetica,sans-Serif" font-size="10.00">::getRelayControlMode</text>
</a>
</g>
</g>
<!-- Node30&#45;&gt;Node31 -->
<g id="edge35_Node000030_Node000031" class="edge">
<title>Node30&#45;&gt;Node31</title>
<g id="a_edge35_Node000030_Node000031"><a xlink:title=" ">
<path fill="none" stroke="#63b8ff" d="M589.86,-212.6C607.83,-211.49 627.19,-210.29 645.15,-209.18"/>
<polygon fill="#63b8ff" stroke="#63b8ff" points="645.14,-212.68 654.91,-208.57 644.71,-205.7 645.14,-212.68"/>
</a>
</g>
</g>
<!-- Node31&#45;&gt;Node23 -->
<g id="edge36_Node000031_Node000023" class="edge">
<title>Node31&#45;&gt;Node23</title>
<g id="a_edge36_Node000031_Node000023"><a xlink:title=" ">
<path fill="none" stroke="#63b8ff" d="M773.62,-190.7C794.52,-185.54 817.99,-179.75 838.37,-174.71"/>
<polygon fill="#63b8ff" stroke="#63b8ff" points="839,-178.16 847.87,-172.37 837.32,-171.37 839,-178.16"/>
</a>
</g>
</g>
</g>
</svg>
