<?xml version="1.0" encoding="UTF-8" standalone="no"?>
<!DOCTYPE svg PUBLIC "-//W3C//DTD SVG 1.1//EN"
 "http://www.w3.org/Graphics/SVG/1.1/DTD/svg11.dtd">
<!-- Generated by graphviz version 13.1.0 (20250701.0955)
 -->
<!-- Title: MeasurementPoint::setName Pages: 1 -->
<svg width="502pt" height="211pt"
 viewBox="0.00 0.00 502.00 211.00" xmlns="http://www.w3.org/2000/svg" xmlns:xlink="http://www.w3.org/1999/xlink">
<g id="graph0" class="graph" transform="scale(1 1) rotate(0) translate(4 206.5)">
<title>MeasurementPoint::setName</title>
<!-- Node1 -->
<g id="Node000001" class="node">
<title>Node1</title>
<g id="a_Node000001"><a xlink:title="Set measurement point name.">
<polygon fill="#999999" stroke="#666666" points="493.5,-110.88 350,-110.88 350,-91.62 493.5,-91.62 493.5,-110.88"/>
<text xml:space="preserve" text-anchor="middle" x="421.75" y="-97.38" font-family="Helvetica,sans-Serif" font-size="10.00">MeasurementPoint::setName</text>
</a>
</g>
</g>
<!-- Node2 -->
<g id="Node000002" class="node">
<title>Node2</title>
<g id="a_Node000002"><a xlink:href="$class_c_s_v_config_manager.html#ac91e29ab2468661df752e4e4b2f7186c" xlink:title="Parse single CSV line.">
<polygon fill="white" stroke="#666666" points="298.62,-202.5 189.62,-202.5 189.62,-172 298.62,-172 298.62,-202.5"/>
<text xml:space="preserve" text-anchor="start" x="197.62" y="-189" font-family="Helvetica,sans-Serif" font-size="10.00">CSVConfigManager::</text>
<text xml:space="preserve" text-anchor="middle" x="244.12" y="-177.75" font-family="Helvetica,sans-Serif" font-size="10.00">_parseCSVLine</text>
</a>
</g>
</g>
<!-- Node1&#45;&gt;Node2 -->
<g id="edge1_Node000001_Node000002" class="edge">
<title>Node1&#45;&gt;Node2</title>
<g id="a_edge1_Node000001_Node000002"><a xlink:title=" ">
<path fill="none" stroke="#63b8ff" d="M396.19,-117.33C375.01,-130.75 343.29,-149.79 314,-163.25 307.56,-166.21 300.64,-169.02 293.76,-171.61"/>
<polygon fill="#63b8ff" stroke="#63b8ff" points="397.88,-120.4 404.41,-112.06 394.11,-114.51 397.88,-120.4"/>
</a>
</g>
</g>
<!-- Node4 -->
<g id="Node000004" class="node">
<title>Node4</title>
<g id="a_Node000004"><a xlink:href="$class_config_manager.html#ae605c999fabc6344511f455618655326" xlink:title="Setup alarms API endpoints.">
<polygon fill="white" stroke="#666666" points="311,-153.88 177.25,-153.88 177.25,-134.62 311,-134.62 311,-153.88"/>
<text xml:space="preserve" text-anchor="middle" x="244.12" y="-140.38" font-family="Helvetica,sans-Serif" font-size="10.00">ConfigManager::alarmsAPI</text>
</a>
</g>
</g>
<!-- Node1&#45;&gt;Node4 -->
<g id="edge3_Node000001_Node000004" class="edge">
<title>Node1&#45;&gt;Node4</title>
<g id="a_edge3_Node000001_Node000004"><a xlink:title=" ">
<path fill="none" stroke="#63b8ff" d="M368.66,-114C342.37,-120.44 310.93,-128.14 286.35,-134.16"/>
<polygon fill="#63b8ff" stroke="#63b8ff" points="369.22,-117.47 378.1,-111.69 367.56,-110.67 369.22,-117.47"/>
</a>
</g>
</g>
<!-- Node6 -->
<g id="Node000006" class="node">
<title>Node6</title>
<g id="a_Node000006"><a xlink:href="$class_config_manager.html#a04edc14e642ecadb9ccb87be05d1d878" xlink:title="Load measurement points configuration from file.">
<polygon fill="white" stroke="#666666" points="311,-116.5 177.25,-116.5 177.25,-86 311,-86 311,-116.5"/>
<text xml:space="preserve" text-anchor="start" x="185.25" y="-103" font-family="Helvetica,sans-Serif" font-size="10.00">ConfigManager::loadPoints</text>
<text xml:space="preserve" text-anchor="middle" x="244.12" y="-91.75" font-family="Helvetica,sans-Serif" font-size="10.00">Config</text>
</a>
</g>
</g>
<!-- Node1&#45;&gt;Node6 -->
<g id="edge5_Node000001_Node000006" class="edge">
<title>Node1&#45;&gt;Node6</title>
<g id="a_edge5_Node000001_Node000006"><a xlink:title=" ">
<path fill="none" stroke="#63b8ff" d="M338.21,-101.25C329.19,-101.25 320.09,-101.25 311.3,-101.25"/>
<polygon fill="#63b8ff" stroke="#63b8ff" points="338.06,-104.75 348.06,-101.25 338.06,-97.75 338.06,-104.75"/>
</a>
</g>
</g>
<!-- Node7 -->
<g id="Node000007" class="node">
<title>Node7</title>
<g id="a_Node000007"><a xlink:href="$class_config_manager.html#a471a844085c27f3a8a8f9394d9c14677" xlink:title="Setup measurement points API endpoints.">
<polygon fill="white" stroke="#666666" points="309.5,-67.88 178.75,-67.88 178.75,-48.62 309.5,-48.62 309.5,-67.88"/>
<text xml:space="preserve" text-anchor="middle" x="244.12" y="-54.38" font-family="Helvetica,sans-Serif" font-size="10.00">ConfigManager::pointsAPI</text>
</a>
</g>
</g>
<!-- Node1&#45;&gt;Node7 -->
<g id="edge7_Node000001_Node000007" class="edge">
<title>Node1&#45;&gt;Node7</title>
<g id="a_edge7_Node000001_Node000007"><a xlink:title=" ">
<path fill="none" stroke="#63b8ff" d="M368.66,-88.5C342.37,-82.06 310.93,-74.36 286.35,-68.34"/>
<polygon fill="#63b8ff" stroke="#63b8ff" points="367.56,-91.83 378.1,-90.81 369.22,-85.03 367.56,-91.83"/>
</a>
</g>
</g>
<!-- Node8 -->
<g id="Node000008" class="node">
<title>Node8</title>
<g id="a_Node000008"><a xlink:href="$class_config_manager.html#a0daf50bbd376beb24a5400a86e893338" xlink:title="Update a measurement point in configuration.">
<polygon fill="white" stroke="#666666" points="314,-30.5 174.25,-30.5 174.25,0 314,0 314,-30.5"/>
<text xml:space="preserve" text-anchor="start" x="182.25" y="-17" font-family="Helvetica,sans-Serif" font-size="10.00">ConfigManager::updatePoint</text>
<text xml:space="preserve" text-anchor="middle" x="244.12" y="-5.75" font-family="Helvetica,sans-Serif" font-size="10.00">InConfig</text>
</a>
</g>
</g>
<!-- Node1&#45;&gt;Node8 -->
<g id="edge9_Node000001_Node000008" class="edge">
<title>Node1&#45;&gt;Node8</title>
<g id="a_edge9_Node000001_Node000008"><a xlink:title=" ">
<path fill="none" stroke="#63b8ff" d="M396.19,-85.17C375.01,-71.75 343.29,-52.71 314,-39.25 307.56,-36.29 300.64,-33.48 293.76,-30.89"/>
<polygon fill="#63b8ff" stroke="#63b8ff" points="394.11,-87.99 404.41,-90.44 397.88,-82.1 394.11,-87.99"/>
</a>
</g>
</g>
<!-- Node3 -->
<g id="Node000003" class="node">
<title>Node3</title>
<g id="a_Node000003"><a xlink:href="$class_c_s_v_config_manager.html#aef1d9d5b47814730cb9f80554b6fd623" xlink:title="Import measurement points and alarms from CSV data.">
<polygon fill="white" stroke="#666666" points="138.25,-202.5 0,-202.5 0,-172 138.25,-172 138.25,-202.5"/>
<text xml:space="preserve" text-anchor="start" x="8" y="-189" font-family="Helvetica,sans-Serif" font-size="10.00">CSVConfigManager::import</text>
<text xml:space="preserve" text-anchor="middle" x="69.12" y="-177.75" font-family="Helvetica,sans-Serif" font-size="10.00">PointsWithAlarmsFromCSV</text>
</a>
</g>
</g>
<!-- Node2&#45;&gt;Node3 -->
<g id="edge2_Node000002_Node000003" class="edge">
<title>Node2&#45;&gt;Node3</title>
<g id="a_edge2_Node000002_Node000003"><a xlink:title=" ">
<path fill="none" stroke="#63b8ff" d="M178.17,-187.25C165.23,-187.25 151.61,-187.25 138.56,-187.25"/>
<polygon fill="#63b8ff" stroke="#63b8ff" points="177.82,-190.75 187.82,-187.25 177.82,-183.75 177.82,-190.75"/>
</a>
</g>
</g>
<!-- Node5 -->
<g id="Node000005" class="node">
<title>Node5</title>
<g id="a_Node000005"><a xlink:href="$class_config_manager.html#a0497343220fc493f5cf9574922508908" xlink:title="Initialize the configuration system.">
<polygon fill="white" stroke="#666666" points="124.75,-110.88 13.5,-110.88 13.5,-91.62 124.75,-91.62 124.75,-110.88"/>
<text xml:space="preserve" text-anchor="middle" x="69.12" y="-97.38" font-family="Helvetica,sans-Serif" font-size="10.00">ConfigManager::begin</text>
</a>
</g>
</g>
<!-- Node4&#45;&gt;Node5 -->
<g id="edge4_Node000004_Node000005" class="edge">
<title>Node4&#45;&gt;Node5</title>
<g id="a_edge4_Node000004_Node000005"><a xlink:title=" ">
<path fill="none" stroke="#63b8ff" d="M191.46,-131.41C165.64,-124.99 134.84,-117.33 110.73,-111.34"/>
<polygon fill="#63b8ff" stroke="#63b8ff" points="190.55,-134.79 201.1,-133.8 192.23,-127.99 190.55,-134.79"/>
</a>
</g>
</g>
<!-- Node6&#45;&gt;Node5 -->
<g id="edge6_Node000006_Node000005" class="edge">
<title>Node6&#45;&gt;Node5</title>
<g id="a_edge6_Node000006_Node000005"><a xlink:title=" ">
<path fill="none" stroke="#63b8ff" d="M165.81,-101.25C152.1,-101.25 138.08,-101.25 125.14,-101.25"/>
<polygon fill="#63b8ff" stroke="#63b8ff" points="165.71,-104.75 175.71,-101.25 165.71,-97.75 165.71,-104.75"/>
</a>
</g>
</g>
<!-- Node7&#45;&gt;Node5 -->
<g id="edge8_Node000007_Node000005" class="edge">
<title>Node7&#45;&gt;Node5</title>
<g id="a_edge8_Node000007_Node000005"><a xlink:title=" ">
<path fill="none" stroke="#63b8ff" d="M191.46,-71.09C165.64,-77.51 134.84,-85.17 110.73,-91.16"/>
<polygon fill="#63b8ff" stroke="#63b8ff" points="192.23,-74.51 201.1,-68.7 190.55,-67.71 192.23,-74.51"/>
</a>
</g>
</g>
</g>
</svg>
