<?xml version="1.0" encoding="UTF-8" standalone="no"?>
<!DOCTYPE svg PUBLIC "-//W3C//DTD SVG 1.1//EN"
 "http://www.w3.org/Graphics/SVG/1.1/DTD/svg11.dtd">
<!-- Generated by graphviz version 13.1.0 (20250701.0955)
 -->
<!-- Title: TempModbusServer::processCommands Pages: 1 -->
<svg width="310pt" height="64pt"
 viewBox="0.00 0.00 310.00 64.00" xmlns="http://www.w3.org/2000/svg" xmlns:xlink="http://www.w3.org/1999/xlink">
<g id="graph0" class="graph" transform="scale(1 1) rotate(0) translate(4 60.25)">
<title>TempModbusServer::processCommands</title>
<!-- Node1 -->
<g id="Node000001" class="node">
<title>Node1</title>
<g id="a_Node000001"><a xlink:title="Process pending commands from Modbus writes.">
<polygon fill="#999999" stroke="#666666" points="143.5,-42.88 0,-42.88 0,-12.37 143.5,-12.37 143.5,-42.88"/>
<text xml:space="preserve" text-anchor="start" x="8" y="-29.38" font-family="Helvetica,sans-Serif" font-size="10.00">TempModbusServer::process</text>
<text xml:space="preserve" text-anchor="middle" x="71.75" y="-18.12" font-family="Helvetica,sans-Serif" font-size="10.00">Commands</text>
</a>
</g>
</g>
<!-- Node2 -->
<g id="Node000002" class="node">
<title>Node2</title>
<g id="a_Node000002"><a xlink:href="$class_logger_manager.html#a5c1373ccc47f4112b596fe6f84fbbc21" xlink:title="Log informational message (static convenience method)">
<polygon fill="white" stroke="#666666" points="293,-56.25 188.5,-56.25 188.5,-37 293,-37 293,-56.25"/>
<text xml:space="preserve" text-anchor="middle" x="240.75" y="-42.75" font-family="Helvetica,sans-Serif" font-size="10.00">LoggerManager::info</text>
</a>
</g>
</g>
<!-- Node1&#45;&gt;Node2 -->
<g id="edge1_Node000001_Node000002" class="edge">
<title>Node1&#45;&gt;Node2</title>
<g id="a_edge1_Node000001_Node000002"><a xlink:title=" ">
<path fill="none" stroke="#63b8ff" d="M143.57,-35.68C154.66,-36.94 166.05,-38.24 176.94,-39.48"/>
<polygon fill="#63b8ff" stroke="#63b8ff" points="176.23,-42.92 186.56,-40.57 177.02,-35.97 176.23,-42.92"/>
</a>
</g>
</g>
<!-- Node3 -->
<g id="Node000003" class="node">
<title>Node3</title>
<g id="a_Node000003"><a xlink:href="$class_logger_manager.html#a0d52b0ff7bff22817e987ad753102854" xlink:title="Log warning message (static convenience method)">
<polygon fill="white" stroke="#666666" points="302,-19.25 179.5,-19.25 179.5,0 302,0 302,-19.25"/>
<text xml:space="preserve" text-anchor="middle" x="240.75" y="-5.75" font-family="Helvetica,sans-Serif" font-size="10.00">LoggerManager::warning</text>
</a>
</g>
</g>
<!-- Node1&#45;&gt;Node3 -->
<g id="edge2_Node000001_Node000003" class="edge">
<title>Node1&#45;&gt;Node3</title>
<g id="a_edge2_Node000001_Node000003"><a xlink:title=" ">
<path fill="none" stroke="#63b8ff" d="M143.57,-19.99C151.61,-19.13 159.81,-18.24 167.86,-17.37"/>
<polygon fill="#63b8ff" stroke="#63b8ff" points="168.03,-20.88 177.6,-16.32 167.28,-13.92 168.03,-20.88"/>
</a>
</g>
</g>
</g>
</svg>
