<?xml version="1.0" encoding="UTF-8" standalone="no"?>
<!DOCTYPE svg PUBLIC "-//W3C//DTD SVG 1.1//EN"
 "http://www.w3.org/Graphics/SVG/1.1/DTD/svg11.dtd">
<!-- Generated by graphviz version 13.1.0 (20250701.0955)
 -->
<!-- Title: MeasurementPoint::getMaxTemp Pages: 1 -->
<svg width="565pt" height="137pt"
 viewBox="0.00 0.00 565.00 137.00" xmlns="http://www.w3.org/2000/svg" xmlns:xlink="http://www.w3.org/1999/xlink">
<g id="graph0" class="graph" transform="scale(1 1) rotate(0) translate(4 132.5)">
<title>MeasurementPoint::getMaxTemp</title>
<!-- Node1 -->
<g id="Node000001" class="node">
<title>Node1</title>
<g id="a_Node000001"><a xlink:title=" ">
<polygon fill="#999999" stroke="#666666" points="556.5,-73.88 396.5,-73.88 396.5,-54.62 556.5,-54.62 556.5,-73.88"/>
<text xml:space="preserve" text-anchor="middle" x="476.5" y="-60.38" font-family="Helvetica,sans-Serif" font-size="10.00">MeasurementPoint::getMaxTemp</text>
</a>
</g>
</g>
<!-- Node2 -->
<g id="Node000002" class="node">
<title>Node2</title>
<g id="a_Node000002"><a xlink:href="class_c_s_v_config_manager.html#a2c2673398051c26184c9197aa751a6b3" target="_top" xlink:title=" ">
<polygon fill="white" stroke="#666666" points="320.75,-128.5 211.75,-128.5 211.75,-98 320.75,-98 320.75,-128.5"/>
<text xml:space="preserve" text-anchor="start" x="219.75" y="-115" font-family="Helvetica,sans-Serif" font-size="10.00">CSVConfigManager::</text>
<text xml:space="preserve" text-anchor="middle" x="266.25" y="-103.75" font-family="Helvetica,sans-Serif" font-size="10.00">_exportPointToCSV</text>
</a>
</g>
</g>
<!-- Node1&#45;&gt;Node2 -->
<g id="edge1_Node000001_Node000002" class="edge">
<title>Node1&#45;&gt;Node2</title>
<g id="a_edge1_Node000001_Node000002"><a xlink:title=" ">
<path fill="none" stroke="#63b8ff" d="M421.61,-76.93C390.73,-84.2 352.11,-93.28 321.22,-100.55"/>
<polygon fill="#63b8ff" stroke="#63b8ff" points="422.2,-80.39 431.13,-74.69 420.59,-73.57 422.2,-80.39"/>
</a>
</g>
</g>
<!-- Node4 -->
<g id="Node000004" class="node">
<title>Node4</title>
<g id="a_Node000004"><a xlink:href="class_temperature_controller.html#add39ba7dad38449bbf1787a5c9c51ef9" target="_top" xlink:title=" ">
<polygon fill="white" stroke="#666666" points="322.25,-79.5 210.25,-79.5 210.25,-49 322.25,-49 322.25,-79.5"/>
<text xml:space="preserve" text-anchor="start" x="218.25" y="-66" font-family="Helvetica,sans-Serif" font-size="10.00">TemperatureController</text>
<text xml:space="preserve" text-anchor="middle" x="266.25" y="-54.75" font-family="Helvetica,sans-Serif" font-size="10.00">::getPointsJson</text>
</a>
</g>
</g>
<!-- Node1&#45;&gt;Node4 -->
<g id="edge3_Node000001_Node000004" class="edge">
<title>Node1&#45;&gt;Node4</title>
<g id="a_edge3_Node000001_Node000004"><a xlink:title=" ">
<path fill="none" stroke="#63b8ff" d="M384.82,-64.25C363.58,-64.25 341.58,-64.25 322.44,-64.25"/>
<polygon fill="#63b8ff" stroke="#63b8ff" points="384.66,-67.75 394.66,-64.25 384.66,-60.75 384.66,-67.75"/>
</a>
</g>
</g>
<!-- Node5 -->
<g id="Node000005" class="node">
<title>Node5</title>
<g id="a_Node000005"><a xlink:href="class_register_map.html#a2940213459a183fc06a2226f1cd1a48b" target="_top" xlink:title=" ">
<polygon fill="white" stroke="#666666" points="360.5,-30.5 172,-30.5 172,0 360.5,0 360.5,-30.5"/>
<text xml:space="preserve" text-anchor="start" x="180" y="-17" font-family="Helvetica,sans-Serif" font-size="10.00">RegisterMap::updateFromMeasurement</text>
<text xml:space="preserve" text-anchor="middle" x="266.25" y="-5.75" font-family="Helvetica,sans-Serif" font-size="10.00">Point</text>
</a>
</g>
</g>
<!-- Node1&#45;&gt;Node5 -->
<g id="edge4_Node000001_Node000005" class="edge">
<title>Node1&#45;&gt;Node5</title>
<g id="a_edge4_Node000001_Node000005"><a xlink:title=" ">
<path fill="none" stroke="#63b8ff" d="M421.52,-51.55C394.75,-45.25 362.18,-37.59 333.88,-30.93"/>
<polygon fill="#63b8ff" stroke="#63b8ff" points="420.59,-54.93 431.13,-53.81 422.2,-48.11 420.59,-54.93"/>
</a>
</g>
</g>
<!-- Node3 -->
<g id="Node000003" class="node">
<title>Node3</title>
<g id="a_Node000003"><a xlink:href="class_c_s_v_config_manager.html#a1c6cbc4c8a132762bf16a8ce9f7d0bfc" target="_top" xlink:title=" ">
<polygon fill="white" stroke="#666666" points="136,-128.5 0,-128.5 0,-98 136,-98 136,-128.5"/>
<text xml:space="preserve" text-anchor="start" x="8" y="-115" font-family="Helvetica,sans-Serif" font-size="10.00">CSVConfigManager::export</text>
<text xml:space="preserve" text-anchor="middle" x="68" y="-103.75" font-family="Helvetica,sans-Serif" font-size="10.00">PointsWithAlarmsToCSV</text>
</a>
</g>
</g>
<!-- Node2&#45;&gt;Node3 -->
<g id="edge2_Node000002_Node000003" class="edge">
<title>Node2&#45;&gt;Node3</title>
<g id="a_edge2_Node000002_Node000003"><a xlink:title=" ">
<path fill="none" stroke="#63b8ff" d="M199.95,-113.25C179.54,-113.25 156.99,-113.25 136.44,-113.25"/>
<polygon fill="#63b8ff" stroke="#63b8ff" points="199.85,-116.75 209.85,-113.25 199.85,-109.75 199.85,-116.75"/>
</a>
</g>
</g>
</g>
</svg>
