<?xml version="1.0" encoding="UTF-8" standalone="no"?>
<!DOCTYPE svg PUBLIC "-//W3C//DTD SVG 1.1//EN"
 "http://www.w3.org/Graphics/SVG/1.1/DTD/svg11.dtd">
<!-- Generated by graphviz version 13.1.0 (20250701.0955)
 -->
<!-- Title: SettingsCSVManager::_unescapeCSVField Pages: 1 -->
<svg width="430pt" height="39pt"
 viewBox="0.00 0.00 430.00 39.00" xmlns="http://www.w3.org/2000/svg" xmlns:xlink="http://www.w3.org/1999/xlink">
<g id="graph0" class="graph" transform="scale(1 1) rotate(0) translate(4 34.5)">
<title>SettingsCSVManager::_unescapeCSVField</title>
<!-- Node1 -->
<g id="Node000001" class="node">
<title>Node1</title>
<g id="a_Node000001"><a xlink:title="Unescape CSV field value.">
<polygon fill="#999999" stroke="#666666" points="422.25,-30.5 311,-30.5 311,0 422.25,0 422.25,-30.5"/>
<text xml:space="preserve" text-anchor="start" x="319" y="-17" font-family="Helvetica,sans-Serif" font-size="10.00">SettingsCSVManager</text>
<text xml:space="preserve" text-anchor="middle" x="366.62" y="-5.75" font-family="Helvetica,sans-Serif" font-size="10.00">::_unescapeCSVField</text>
</a>
</g>
</g>
<!-- Node2 -->
<g id="Node000002" class="node">
<title>Node2</title>
<g id="a_Node000002"><a xlink:href="class_settings_c_s_v_manager.html#aa4822a7de38a44a23e051d1a4c8dc3bf" target="_top" xlink:title="Parse single CSV line.">
<polygon fill="white" stroke="#666666" points="275,-30.5 164.5,-30.5 164.5,0 275,0 275,-30.5"/>
<text xml:space="preserve" text-anchor="start" x="172.5" y="-17" font-family="Helvetica,sans-Serif" font-size="10.00">SettingsCSVManager</text>
<text xml:space="preserve" text-anchor="middle" x="219.75" y="-5.75" font-family="Helvetica,sans-Serif" font-size="10.00">::_parseCSVLine</text>
</a>
</g>
</g>
<!-- Node1&#45;&gt;Node2 -->
<g id="edge1_Node000001_Node000002" class="edge">
<title>Node1&#45;&gt;Node2</title>
<g id="a_edge1_Node000001_Node000002"><a xlink:title=" ">
<path fill="none" stroke="#63b8ff" d="M299.45,-15.25C291.31,-15.25 283.06,-15.25 275.12,-15.25"/>
<polygon fill="#63b8ff" stroke="#63b8ff" points="299.34,-18.75 309.34,-15.25 299.34,-11.75 299.34,-18.75"/>
</a>
</g>
</g>
<!-- Node3 -->
<g id="Node000003" class="node">
<title>Node3</title>
<g id="a_Node000003"><a xlink:href="class_settings_c_s_v_manager.html#a1372d30cf87604e22bebf3ec8603454d" target="_top" xlink:title="Import settings from CSV data.">
<polygon fill="white" stroke="#666666" points="128.5,-30.5 0,-30.5 0,0 128.5,0 128.5,-30.5"/>
<text xml:space="preserve" text-anchor="start" x="8" y="-17" font-family="Helvetica,sans-Serif" font-size="10.00">SettingsCSVManager</text>
<text xml:space="preserve" text-anchor="middle" x="64.25" y="-5.75" font-family="Helvetica,sans-Serif" font-size="10.00">::importSettingsFromCSV</text>
</a>
</g>
</g>
<!-- Node2&#45;&gt;Node3 -->
<g id="edge2_Node000002_Node000003" class="edge">
<title>Node2&#45;&gt;Node3</title>
<g id="a_edge2_Node000002_Node000003"><a xlink:title=" ">
<path fill="none" stroke="#63b8ff" d="M152.72,-15.25C144.79,-15.25 136.7,-15.25 128.8,-15.25"/>
<polygon fill="#63b8ff" stroke="#63b8ff" points="152.69,-18.75 162.69,-15.25 152.69,-11.75 152.69,-18.75"/>
</a>
</g>
</g>
</g>
</svg>
