<?xml version="1.0" encoding="UTF-8" standalone="no"?>
<!DOCTYPE svg PUBLIC "-//W3C//DTD SVG 1.1//EN"
 "http://www.w3.org/Graphics/SVG/1.1/DTD/svg11.dtd">
<!-- Generated by graphviz version 13.1.0 (20250701.0955)
 -->
<!-- Title: LoggerManager::logCritical Pages: 1 -->
<svg width="704pt" height="211pt"
 viewBox="0.00 0.00 704.00 211.00" xmlns="http://www.w3.org/2000/svg" xmlns:xlink="http://www.w3.org/1999/xlink">
<g id="graph0" class="graph" transform="scale(1 1) rotate(0) translate(4 206.88)">
<title>LoggerManager::logCritical</title>
<!-- Node1 -->
<g id="Node000001" class="node">
<title>Node1</title>
<g id="a_Node000001"><a xlink:title=" ">
<polygon fill="#999999" stroke="#666666" points="132.25,-105.25 0,-105.25 0,-86 132.25,-86 132.25,-105.25"/>
<text xml:space="preserve" text-anchor="middle" x="66.12" y="-91.75" font-family="Helvetica,sans-Serif" font-size="10.00">LoggerManager::logCritical</text>
</a>
</g>
</g>
<!-- Node2 -->
<g id="Node000002" class="node">
<title>Node2</title>
<g id="a_Node000002"><a xlink:href="$class_logger_manager.html#a0df2f2c96123da1989d0aaf6a4dc1615" xlink:title=" ">
<polygon fill="white" stroke="#666666" points="295.25,-105.25 168.25,-105.25 168.25,-86 295.25,-86 295.25,-105.25"/>
<text xml:space="preserve" text-anchor="middle" x="231.75" y="-91.75" font-family="Helvetica,sans-Serif" font-size="10.00">LoggerManager::logEvent</text>
</a>
</g>
</g>
<!-- Node1&#45;&gt;Node2 -->
<g id="edge1_Node000001_Node000002" class="edge">
<title>Node1&#45;&gt;Node2</title>
<g id="a_edge1_Node000001_Node000002"><a xlink:title=" ">
<path fill="none" stroke="#63b8ff" d="M132.73,-95.62C140.5,-95.62 148.47,-95.62 156.35,-95.62"/>
<polygon fill="#63b8ff" stroke="#63b8ff" points="156.27,-99.13 166.27,-95.63 156.27,-92.13 156.27,-99.13"/>
</a>
</g>
</g>
<!-- Node3 -->
<g id="Node000003" class="node">
<title>Node3</title>
<g id="a_Node000003"><a xlink:href="$class_logger_manager.html#a4f7591a3b5cb024b7354005b4362e049" xlink:title=" ">
<polygon fill="white" stroke="#666666" points="486,-202.88 337.25,-202.88 337.25,-172.38 486,-172.38 486,-202.88"/>
<text xml:space="preserve" text-anchor="start" x="345.25" y="-189.38" font-family="Helvetica,sans-Serif" font-size="10.00">LoggerManager::_ensureEvent</text>
<text xml:space="preserve" text-anchor="middle" x="411.62" y="-178.12" font-family="Helvetica,sans-Serif" font-size="10.00">LogExists</text>
</a>
</g>
</g>
<!-- Node2&#45;&gt;Node3 -->
<g id="edge2_Node000002_Node000003" class="edge">
<title>Node2&#45;&gt;Node3</title>
<g id="a_edge2_Node000002_Node000003"><a xlink:title=" ">
<path fill="none" stroke="#63b8ff" d="M244.78,-105.54C262.66,-119.86 297.75,-146.39 331.25,-162.62 335.16,-164.52 339.25,-166.31 343.42,-168.01"/>
<polygon fill="#63b8ff" stroke="#63b8ff" points="341.89,-171.17 352.48,-171.46 344.38,-164.63 341.89,-171.17"/>
</a>
</g>
</g>
<!-- Node5 -->
<g id="Node000005" class="node">
<title>Node5</title>
<g id="a_Node000005"><a xlink:href="$class_logger_manager.html#a9cf35430e1e61515c6fb12524a58f1ab" xlink:title=" ">
<polygon fill="white" stroke="#666666" points="477.38,-153.88 345.88,-153.88 345.88,-123.38 477.38,-123.38 477.38,-153.88"/>
<text xml:space="preserve" text-anchor="start" x="353.88" y="-140.38" font-family="Helvetica,sans-Serif" font-size="10.00">LoggerManager::_generate</text>
<text xml:space="preserve" text-anchor="middle" x="411.62" y="-129.12" font-family="Helvetica,sans-Serif" font-size="10.00">EventLogFileName</text>
</a>
</g>
</g>
<!-- Node2&#45;&gt;Node5 -->
<g id="edge4_Node000002_Node000005" class="edge">
<title>Node2&#45;&gt;Node5</title>
<g id="a_edge4_Node000002_Node000005"><a xlink:title=" ">
<path fill="none" stroke="#63b8ff" d="M274.45,-105.71C292.38,-110.04 313.92,-115.25 334.52,-120.23"/>
<polygon fill="#63b8ff" stroke="#63b8ff" points="333.5,-123.58 344.04,-122.53 335.14,-116.78 333.5,-123.58"/>
</a>
</g>
</g>
<!-- Node6 -->
<g id="Node000006" class="node">
<title>Node6</title>
<g id="a_Node000006"><a xlink:href="$class_logger_manager.html#a3ca0b934265a4d9ce6391bf97dec179a" xlink:title=" ">
<polygon fill="white" stroke="#666666" points="681.62,-131.88 541.88,-131.88 541.88,-101.38 681.62,-101.38 681.62,-131.88"/>
<text xml:space="preserve" text-anchor="start" x="549.88" y="-118.38" font-family="Helvetica,sans-Serif" font-size="10.00">LoggerManager::_getCurrent</text>
<text xml:space="preserve" text-anchor="middle" x="611.75" y="-107.12" font-family="Helvetica,sans-Serif" font-size="10.00">DateString</text>
</a>
</g>
</g>
<!-- Node2&#45;&gt;Node6 -->
<g id="edge6_Node000002_Node000006" class="edge">
<title>Node2&#45;&gt;Node6</title>
<g id="a_edge6_Node000002_Node000006"><a xlink:title=" ">
<path fill="none" stroke="#63b8ff" d="M295.59,-99.12C359.93,-102.69 460.15,-108.26 530.25,-112.15"/>
<polygon fill="#63b8ff" stroke="#63b8ff" points="529.98,-115.64 540.16,-112.7 530.37,-108.65 529.98,-115.64"/>
</a>
</g>
</g>
<!-- Node7 -->
<g id="Node000007" class="node">
<title>Node7</title>
<g id="a_Node000007"><a xlink:href="$class_logger_manager.html#a4f31651f8963f741bfbdb944164ffc15" xlink:title=" ">
<polygon fill="white" stroke="#666666" points="481.5,-67.88 341.75,-67.88 341.75,-37.38 481.5,-37.38 481.5,-67.88"/>
<text xml:space="preserve" text-anchor="start" x="349.75" y="-54.38" font-family="Helvetica,sans-Serif" font-size="10.00">LoggerManager::_getCurrent</text>
<text xml:space="preserve" text-anchor="middle" x="411.62" y="-43.12" font-family="Helvetica,sans-Serif" font-size="10.00">TimeString</text>
</a>
</g>
</g>
<!-- Node2&#45;&gt;Node7 -->
<g id="edge7_Node000002_Node000007" class="edge">
<title>Node2&#45;&gt;Node7</title>
<g id="a_edge7_Node000002_Node000007"><a xlink:title=" ">
<path fill="none" stroke="#63b8ff" d="M274.45,-85.54C292.38,-81.21 313.92,-76 334.52,-71.02"/>
<polygon fill="#63b8ff" stroke="#63b8ff" points="335.14,-74.47 344.04,-68.72 333.5,-67.67 335.14,-74.47"/>
</a>
</g>
</g>
<!-- Node8 -->
<g id="Node000008" class="node">
<title>Node8</title>
<g id="a_Node000008"><a xlink:href="$class_logger_manager.html#a472884ce9e2aed6a1570187dd37cc006" xlink:title=" ">
<polygon fill="white" stroke="#666666" points="492,-19.25 331.25,-19.25 331.25,0 492,0 492,-19.25"/>
<text xml:space="preserve" text-anchor="middle" x="411.62" y="-5.75" font-family="Helvetica,sans-Serif" font-size="10.00">LoggerManager::_writeEventRow</text>
</a>
</g>
</g>
<!-- Node2&#45;&gt;Node8 -->
<g id="edge8_Node000002_Node000008" class="edge">
<title>Node2&#45;&gt;Node8</title>
<g id="a_edge8_Node000002_Node000008"><a xlink:title=" ">
<path fill="none" stroke="#63b8ff" d="M244.34,-85.64C261.95,-70.98 297.01,-43.76 331.25,-28.62 336.02,-26.52 341.06,-24.62 346.19,-22.92"/>
<polygon fill="#63b8ff" stroke="#63b8ff" points="346.8,-26.39 355.36,-20.14 344.77,-19.7 346.8,-26.39"/>
</a>
</g>
</g>
<!-- Node4 -->
<g id="Node000004" class="node">
<title>Node4</title>
<g id="a_Node000004"><a xlink:href="$class_logger_manager.html#a515beeaa428acafce139d79b41fe9d0a" xlink:title=" ">
<polygon fill="white" stroke="#666666" points="682,-202.88 541.5,-202.88 541.5,-172.38 682,-172.38 682,-202.88"/>
<text xml:space="preserve" text-anchor="start" x="549.5" y="-189.38" font-family="Helvetica,sans-Serif" font-size="10.00">LoggerManager::_writeEvent</text>
<text xml:space="preserve" text-anchor="middle" x="611.75" y="-178.12" font-family="Helvetica,sans-Serif" font-size="10.00">Header</text>
</a>
</g>
</g>
<!-- Node3&#45;&gt;Node4 -->
<g id="edge3_Node000003_Node000004" class="edge">
<title>Node3&#45;&gt;Node4</title>
<g id="a_edge3_Node000003_Node000004"><a xlink:title=" ">
<path fill="none" stroke="#63b8ff" d="M486.4,-187.62C500.55,-187.62 515.44,-187.62 529.8,-187.62"/>
<polygon fill="#63b8ff" stroke="#63b8ff" points="529.67,-191.13 539.67,-187.63 529.67,-184.13 529.67,-191.13"/>
</a>
</g>
</g>
<!-- Node5&#45;&gt;Node6 -->
<g id="edge5_Node000005_Node000006" class="edge">
<title>Node5&#45;&gt;Node6</title>
<g id="a_edge5_Node000005_Node000006"><a xlink:title=" ">
<path fill="none" stroke="#63b8ff" d="M477.77,-131.39C494.52,-129.53 512.74,-127.51 530.16,-125.57"/>
<polygon fill="#63b8ff" stroke="#63b8ff" points="530.42,-129.07 539.97,-124.48 529.65,-122.11 530.42,-129.07"/>
</a>
</g>
</g>
<!-- Node9 -->
<g id="Node000009" class="node">
<title>Node9</title>
<g id="a_Node000009"><a xlink:href="$class_logger_manager.html#a57d230cd2896120a32ecf55a14895d55" xlink:title=" ">
<polygon fill="white" stroke="#666666" points="695.5,-19.25 528,-19.25 528,0 695.5,0 695.5,-19.25"/>
<text xml:space="preserve" text-anchor="middle" x="611.75" y="-5.75" font-family="Helvetica,sans-Serif" font-size="10.00">LoggerManager::_escapeCSVField</text>
</a>
</g>
</g>
<!-- Node8&#45;&gt;Node9 -->
<g id="edge9_Node000008_Node000009" class="edge">
<title>Node8&#45;&gt;Node9</title>
<g id="a_edge9_Node000008_Node000009"><a xlink:title=" ">
<path fill="none" stroke="#63b8ff" d="M492.35,-9.62C500.25,-9.62 508.31,-9.62 516.33,-9.62"/>
<polygon fill="#63b8ff" stroke="#63b8ff" points="516.11,-13.13 526.11,-9.63 516.11,-6.13 516.11,-13.13"/>
</a>
</g>
</g>
</g>
</svg>
