<?xml version="1.0" encoding="UTF-8" standalone="no"?>
<!DOCTYPE svg PUBLIC "-//W3C//DTD SVG 1.1//EN"
 "http://www.w3.org/Graphics/SVG/1.1/DTD/svg11.dtd">
<!-- Generated by graphviz version 13.1.0 (20250701.0955)
 -->
<!-- Title: LoggerManager::begin Pages: 1 -->
<svg width="906pt" height="626pt"
 viewBox="0.00 0.00 906.00 626.00" xmlns="http://www.w3.org/2000/svg" xmlns:xlink="http://www.w3.org/1999/xlink">
<g id="graph0" class="graph" transform="scale(1 1) rotate(0) translate(4 621.72)">
<title>LoggerManager::begin</title>
<!-- Node1 -->
<g id="Node000001" class="node">
<title>Node1</title>
<g id="a_Node000001"><a xlink:title=" ">
<polygon fill="#999999" stroke="#666666" points="112,-449.1 0,-449.1 0,-429.85 112,-429.85 112,-449.1"/>
<text xml:space="preserve" text-anchor="middle" x="56" y="-435.6" font-family="Helvetica,sans-Serif" font-size="10.00">LoggerManager::begin</text>
</a>
</g>
</g>
<!-- Node2 -->
<g id="Node000002" class="node">
<title>Node2</title>
<g id="a_Node000002"><a xlink:href="class_logger_manager.html#a0bb3b084e2a16c2d089e8761a093bef5" target="_top" xlink:title=" ">
<polygon fill="white" stroke="#666666" points="303.88,-617.72 155.12,-617.72 155.12,-587.22 303.88,-587.22 303.88,-617.72"/>
<text xml:space="preserve" text-anchor="start" x="163.12" y="-604.22" font-family="Helvetica,sans-Serif" font-size="10.00">LoggerManager::_ensureAlarm</text>
<text xml:space="preserve" text-anchor="middle" x="229.5" y="-592.97" font-family="Helvetica,sans-Serif" font-size="10.00">StateLogExists</text>
</a>
</g>
</g>
<!-- Node1&#45;&gt;Node2 -->
<g id="edge1_Node000001_Node000002" class="edge">
<title>Node1&#45;&gt;Node2</title>
<g id="a_edge1_Node000001_Node000002"><a xlink:title=" ">
<path fill="none" stroke="#63b8ff" d="M60.8,-449.51C70.91,-474.9 100.97,-542.13 148,-577.47 149.8,-578.82 151.67,-580.1 153.6,-581.31"/>
<polygon fill="#63b8ff" stroke="#63b8ff" points="151.9,-584.37 162.35,-586.09 155.25,-578.23 151.9,-584.37"/>
</a>
</g>
</g>
<!-- Node4 -->
<g id="Node000004" class="node">
<title>Node4</title>
<g id="a_Node000004"><a xlink:href="class_logger_manager.html#a27150c2682f4f8fa6bef8b5bb1b25e52" target="_top" xlink:title=" ">
<polygon fill="white" stroke="#666666" points="311,-568.72 148,-568.72 148,-538.22 311,-538.22 311,-568.72"/>
<text xml:space="preserve" text-anchor="start" x="156" y="-555.22" font-family="Helvetica,sans-Serif" font-size="10.00">LoggerManager::_ensureDirectory</text>
<text xml:space="preserve" text-anchor="middle" x="229.5" y="-543.97" font-family="Helvetica,sans-Serif" font-size="10.00">Exists</text>
</a>
</g>
</g>
<!-- Node1&#45;&gt;Node4 -->
<g id="edge3_Node000001_Node000004" class="edge">
<title>Node1&#45;&gt;Node4</title>
<g id="a_edge3_Node000001_Node000004"><a xlink:title=" ">
<path fill="none" stroke="#63b8ff" d="M64.61,-449.59C78.94,-467.95 111.75,-506.85 148,-528.47 150.77,-530.12 153.66,-531.67 156.63,-533.13"/>
<polygon fill="#63b8ff" stroke="#63b8ff" points="155.01,-536.25 165.57,-537.12 157.86,-529.85 155.01,-536.25"/>
</a>
</g>
</g>
<!-- Node5 -->
<g id="Node000005" class="node">
<title>Node5</title>
<g id="a_Node000005"><a xlink:href="class_logger_manager.html#ae1e64f32a756b1a0f481eb1d57e8026e" target="_top" xlink:title=" ">
<polygon fill="white" stroke="#666666" points="295.25,-519.72 163.75,-519.72 163.75,-489.22 295.25,-489.22 295.25,-519.72"/>
<text xml:space="preserve" text-anchor="start" x="171.75" y="-506.22" font-family="Helvetica,sans-Serif" font-size="10.00">LoggerManager::_generate</text>
<text xml:space="preserve" text-anchor="middle" x="229.5" y="-494.97" font-family="Helvetica,sans-Serif" font-size="10.00">AlarmStateLogFileName</text>
</a>
</g>
</g>
<!-- Node1&#45;&gt;Node5 -->
<g id="edge4_Node000001_Node000005" class="edge">
<title>Node1&#45;&gt;Node5</title>
<g id="a_edge4_Node000001_Node000005"><a xlink:title=" ">
<path fill="none" stroke="#63b8ff" d="M81.64,-449.46C99.9,-456.8 125.43,-466.94 148,-475.47 156.21,-478.57 164.91,-481.79 173.45,-484.89"/>
<polygon fill="#63b8ff" stroke="#63b8ff" points="172.1,-488.13 182.7,-488.25 174.49,-481.55 172.1,-488.13"/>
</a>
</g>
</g>
<!-- Node6 -->
<g id="Node000006" class="node">
<title>Node6</title>
<g id="a_Node000006"><a xlink:href="class_logger_manager.html#a3ca0b934265a4d9ce6391bf97dec179a" target="_top" xlink:title=" ">
<polygon fill="white" stroke="#666666" points="884.38,-370.72 744.62,-370.72 744.62,-340.22 884.38,-340.22 884.38,-370.72"/>
<text xml:space="preserve" text-anchor="start" x="752.62" y="-357.22" font-family="Helvetica,sans-Serif" font-size="10.00">LoggerManager::_getCurrent</text>
<text xml:space="preserve" text-anchor="middle" x="814.5" y="-345.97" font-family="Helvetica,sans-Serif" font-size="10.00">DateString</text>
</a>
</g>
</g>
<!-- Node1&#45;&gt;Node6 -->
<g id="edge11_Node000001_Node000006" class="edge">
<title>Node1&#45;&gt;Node6</title>
<g id="a_edge11_Node000001_Node000006"><a xlink:title=" ">
<path fill="none" stroke="#63b8ff" d="M112.45,-448.9C225.29,-465.86 488.41,-494 694.75,-428.47 728.66,-417.7 762.78,-395.23 785.69,-378.05"/>
<polygon fill="#63b8ff" stroke="#63b8ff" points="787.79,-380.85 793.59,-371.98 783.53,-375.3 787.79,-380.85"/>
</a>
</g>
</g>
<!-- Node7 -->
<g id="Node000007" class="node">
<title>Node7</title>
<g id="a_Node000007"><a xlink:href="class_logger_manager.html#aab43f573f73cfe426cfbea04a9fdd3ee" target="_top" xlink:title=" ">
<polygon fill="white" stroke="#666666" points="484.88,-88.72 353.38,-88.72 353.38,-58.22 484.88,-58.22 484.88,-88.72"/>
<text xml:space="preserve" text-anchor="start" x="361.38" y="-75.22" font-family="Helvetica,sans-Serif" font-size="10.00">LoggerManager::_generate</text>
<text xml:space="preserve" text-anchor="middle" x="419.12" y="-63.97" font-family="Helvetica,sans-Serif" font-size="10.00">CSVHeader</text>
</a>
</g>
</g>
<!-- Node1&#45;&gt;Node7 -->
<g id="edge6_Node000001_Node000007" class="edge">
<title>Node1&#45;&gt;Node7</title>
<g id="a_edge6_Node000001_Node000007"><a xlink:title=" ">
<path fill="none" stroke="#63b8ff" d="M58.29,-429.82C63.37,-395.47 84.84,-277.46 148,-208.47 202.27,-149.19 288.4,-112.5 348.78,-92.6"/>
<polygon fill="#63b8ff" stroke="#63b8ff" points="349.48,-96.05 357.93,-89.66 347.34,-89.39 349.48,-96.05"/>
</a>
</g>
</g>
<!-- Node10 -->
<g id="Node000010" class="node">
<title>Node10</title>
<g id="a_Node000010"><a xlink:href="class_logger_manager.html#ad3276c1ba03fe7e5b98e33cd207baf1f" target="_top" xlink:title=" ">
<polygon fill="white" stroke="#666666" points="298.25,-433.72 160.75,-433.72 160.75,-403.22 298.25,-403.22 298.25,-433.72"/>
<text xml:space="preserve" text-anchor="start" x="168.75" y="-420.22" font-family="Helvetica,sans-Serif" font-size="10.00">LoggerManager::_generate</text>
<text xml:space="preserve" text-anchor="middle" x="229.5" y="-408.97" font-family="Helvetica,sans-Serif" font-size="10.00">LogFileNameWithSequence</text>
</a>
</g>
</g>
<!-- Node1&#45;&gt;Node10 -->
<g id="edge9_Node000001_Node000010" class="edge">
<title>Node1&#45;&gt;Node10</title>
<g id="a_edge9_Node000001_Node000010"><a xlink:title=" ">
<path fill="none" stroke="#63b8ff" d="M112.21,-432.71C123.98,-431.27 136.63,-429.72 149.1,-428.19"/>
<polygon fill="#63b8ff" stroke="#63b8ff" points="149.48,-431.67 158.98,-426.98 148.62,-424.73 149.48,-431.67"/>
</a>
</g>
</g>
<!-- Node11 -->
<g id="Node000011" class="node">
<title>Node11</title>
<g id="a_Node000011"><a xlink:href="class_logger_manager.html#ac7866b2b0244358be6a1cfe8d245cc7d" target="_top" xlink:title=" ">
<polygon fill="white" stroke="#666666" points="303.88,-308.72 155.12,-308.72 155.12,-278.22 303.88,-278.22 303.88,-308.72"/>
<text xml:space="preserve" text-anchor="start" x="163.12" y="-295.22" font-family="Helvetica,sans-Serif" font-size="10.00">LoggerManager::_recoverFrom</text>
<text xml:space="preserve" text-anchor="middle" x="229.5" y="-283.97" font-family="Helvetica,sans-Serif" font-size="10.00">ExistingFiles</text>
</a>
</g>
</g>
<!-- Node1&#45;&gt;Node11 -->
<g id="edge12_Node000001_Node000011" class="edge">
<title>Node1&#45;&gt;Node11</title>
<g id="a_edge12_Node000001_Node000011"><a xlink:title=" ">
<path fill="none" stroke="#63b8ff" d="M68.79,-429.44C95.97,-406.29 163.62,-348.7 201.58,-316.39"/>
<polygon fill="#63b8ff" stroke="#63b8ff" points="203.6,-319.26 208.95,-310.12 199.06,-313.93 203.6,-319.26"/>
</a>
</g>
</g>
<!-- Node17 -->
<g id="Node000017" class="node">
<title>Node17</title>
<g id="a_Node000017"><a xlink:href="class_logger_manager.html#a2503703714729cc95171579fe4ce0d4c" target="_top" xlink:title=" ">
<polygon fill="white" stroke="#666666" points="288.5,-237.1 170.5,-237.1 170.5,-217.85 288.5,-217.85 288.5,-237.1"/>
<text xml:space="preserve" text-anchor="middle" x="229.5" y="-223.6" font-family="Helvetica,sans-Serif" font-size="10.00">LoggerManager::logInfo</text>
</a>
</g>
</g>
<!-- Node1&#45;&gt;Node17 -->
<g id="edge23_Node000001_Node000017" class="edge">
<title>Node1&#45;&gt;Node17</title>
<g id="a_edge23_Node000001_Node000017"><a xlink:title=" ">
<path fill="none" stroke="#63b8ff" d="M60.05,-429.36C69.08,-400.85 98.27,-318.68 148,-269.47 159.72,-257.87 175.31,-248.74 189.64,-241.99"/>
<polygon fill="#63b8ff" stroke="#63b8ff" points="190.67,-245.37 198.4,-238.12 187.84,-238.97 190.67,-245.37"/>
</a>
</g>
</g>
<!-- Node3 -->
<g id="Node000003" class="node">
<title>Node3</title>
<g id="a_Node000003"><a xlink:href="class_logger_manager.html#a58657d1fbd45469bb67c2c4d07c5a730" target="_top" xlink:title=" ">
<polygon fill="white" stroke="#666666" points="489.38,-617.72 348.88,-617.72 348.88,-587.22 489.38,-587.22 489.38,-617.72"/>
<text xml:space="preserve" text-anchor="start" x="356.88" y="-604.22" font-family="Helvetica,sans-Serif" font-size="10.00">LoggerManager::_writeAlarm</text>
<text xml:space="preserve" text-anchor="middle" x="419.12" y="-592.97" font-family="Helvetica,sans-Serif" font-size="10.00">StateHeader</text>
</a>
</g>
</g>
<!-- Node2&#45;&gt;Node3 -->
<g id="edge2_Node000002_Node000003" class="edge">
<title>Node2&#45;&gt;Node3</title>
<g id="a_edge2_Node000002_Node000003"><a xlink:title=" ">
<path fill="none" stroke="#63b8ff" d="M304.12,-602.47C314.94,-602.47 326.13,-602.47 337.09,-602.47"/>
<polygon fill="#63b8ff" stroke="#63b8ff" points="336.89,-605.97 346.89,-602.47 336.89,-598.97 336.89,-605.97"/>
</a>
</g>
</g>
<!-- Node5&#45;&gt;Node6 -->
<g id="edge5_Node000005_Node000006" class="edge">
<title>Node5&#45;&gt;Node6</title>
<g id="a_edge5_Node000005_Node000006"><a xlink:title=" ">
<path fill="none" stroke="#63b8ff" d="M295.52,-514.41C388.61,-525.62 563.15,-535.27 694.75,-475.47 739.86,-454.97 777.18,-409.21 797.33,-380.49"/>
<polygon fill="#63b8ff" stroke="#63b8ff" points="800.12,-382.6 802.87,-372.37 794.34,-378.66 800.12,-382.6"/>
</a>
</g>
</g>
<!-- Node8 -->
<g id="Node000008" class="node">
<title>Node8</title>
<g id="a_Node000008"><a xlink:href="class_logger_manager.html#a57d230cd2896120a32ecf55a14895d55" target="_top" xlink:title=" ">
<polygon fill="white" stroke="#666666" points="898.25,-40.1 730.75,-40.1 730.75,-20.85 898.25,-20.85 898.25,-40.1"/>
<text xml:space="preserve" text-anchor="middle" x="814.5" y="-26.6" font-family="Helvetica,sans-Serif" font-size="10.00">LoggerManager::_escapeCSVField</text>
</a>
</g>
</g>
<!-- Node7&#45;&gt;Node8 -->
<g id="edge7_Node000007_Node000008" class="edge">
<title>Node7&#45;&gt;Node8</title>
<g id="a_edge7_Node000007_Node000008"><a xlink:title=" ">
<path fill="none" stroke="#63b8ff" d="M439.63,-57.9C460.08,-42.65 493.84,-20.44 527.25,-11.47 608.65,10.39 707.51,-4.95 765.18,-17.87"/>
<polygon fill="#63b8ff" stroke="#63b8ff" points="764.14,-21.22 774.67,-20.06 765.72,-14.4 764.14,-21.22"/>
</a>
</g>
</g>
<!-- Node9 -->
<g id="Node000009" class="node">
<title>Node9</title>
<g id="a_Node000009"><a xlink:href="class_measurement_point.html#aa3a80d373c7609c7b178bf7353ffdd7a" target="_top" xlink:title=" ">
<polygon fill="white" stroke="#666666" points="682.75,-40.1 539.25,-40.1 539.25,-20.85 682.75,-20.85 682.75,-40.1"/>
<text xml:space="preserve" text-anchor="middle" x="611" y="-26.6" font-family="Helvetica,sans-Serif" font-size="10.00">MeasurementPoint::getName</text>
</a>
</g>
</g>
<!-- Node7&#45;&gt;Node9 -->
<g id="edge8_Node000007_Node000009" class="edge">
<title>Node7&#45;&gt;Node9</title>
<g id="a_edge8_Node000007_Node000009"><a xlink:title=" ">
<path fill="none" stroke="#63b8ff" d="M485.24,-58.11C499.1,-54.89 513.65,-51.54 527.25,-48.47 535.24,-46.67 543.66,-44.8 551.96,-42.98"/>
<polygon fill="#63b8ff" stroke="#63b8ff" points="552.65,-46.41 561.67,-40.86 551.15,-39.57 552.65,-46.41"/>
</a>
</g>
</g>
<!-- Node10&#45;&gt;Node6 -->
<g id="edge10_Node000010_Node000006" class="edge">
<title>Node10&#45;&gt;Node6</title>
<g id="a_edge10_Node000010_Node000006"><a xlink:title=" ">
<path fill="none" stroke="#63b8ff" d="M298.69,-423.99C390.01,-429.68 556.56,-434.03 694.75,-404.47 722.24,-398.59 751.44,-386.62 774.01,-375.99"/>
<polygon fill="#63b8ff" stroke="#63b8ff" points="775.36,-379.22 782.84,-371.72 772.31,-372.92 775.36,-379.22"/>
</a>
</g>
</g>
<!-- Node11&#45;&gt;Node6 -->
<g id="edge20_Node000011_Node000006" class="edge">
<title>Node11&#45;&gt;Node6</title>
<g id="a_edge20_Node000011_Node000006"><a xlink:title=" ">
<path fill="none" stroke="#63b8ff" d="M258.85,-277.81C274.46,-268.97 294.05,-257.51 311,-246.47 327.54,-235.7 328.22,-226.54 347,-220.47 408,-200.75 434.05,-191.52 491.25,-220.47 515.36,-232.68 504.65,-254.66 527.25,-269.47 591.1,-311.31 621.91,-284.65 694.75,-307.47 719.64,-315.27 746.66,-326 768.62,-335.34"/>
<polygon fill="#63b8ff" stroke="#63b8ff" points="767.01,-338.45 777.57,-339.19 769.77,-332.02 767.01,-338.45"/>
</a>
</g>
</g>
<!-- Node11&#45;&gt;Node7 -->
<g id="edge19_Node000011_Node000007" class="edge">
<title>Node11&#45;&gt;Node7</title>
<g id="a_edge19_Node000011_Node000007"><a xlink:title=" ">
<path fill="none" stroke="#63b8ff" d="M269.39,-277.84C284.14,-270.26 300.01,-259.85 311,-246.47 342.05,-208.68 320.73,-183.73 347,-142.47 358.17,-124.92 374.65,-108.56 388.94,-96.18"/>
<polygon fill="#63b8ff" stroke="#63b8ff" points="390.92,-99.09 396.33,-89.98 386.42,-93.73 390.92,-99.09"/>
</a>
</g>
</g>
<!-- Node12 -->
<g id="Node000012" class="node">
<title>Node12</title>
<g id="a_Node000012"><a xlink:href="class_logger_manager.html#a0efdffdaa8b90ec4a896c5ac52cd2856" target="_top" xlink:title=" ">
<polygon fill="white" stroke="#666666" points="490.88,-308.72 347.38,-308.72 347.38,-278.22 490.88,-278.22 490.88,-308.72"/>
<text xml:space="preserve" text-anchor="start" x="355.38" y="-295.22" font-family="Helvetica,sans-Serif" font-size="10.00">LoggerManager::_findHighest</text>
<text xml:space="preserve" text-anchor="middle" x="419.12" y="-283.97" font-family="Helvetica,sans-Serif" font-size="10.00">SequenceForDate</text>
</a>
</g>
</g>
<!-- Node11&#45;&gt;Node12 -->
<g id="edge13_Node000011_Node000012" class="edge">
<title>Node11&#45;&gt;Node12</title>
<g id="a_edge13_Node000011_Node000012"><a xlink:title=" ">
<path fill="none" stroke="#63b8ff" d="M304.12,-293.47C314.52,-293.47 325.27,-293.47 335.83,-293.47"/>
<polygon fill="#63b8ff" stroke="#63b8ff" points="335.66,-296.97 345.66,-293.47 335.66,-289.97 335.66,-296.97"/>
</a>
</g>
</g>
<!-- Node14 -->
<g id="Node000014" class="node">
<title>Node14</title>
<g id="a_Node000014"><a xlink:href="class_logger_manager.html#a21b4985f38a484ab83b984ab285ea32e" target="_top" xlink:title=" ">
<polygon fill="white" stroke="#666666" points="675.25,-395.72 546.75,-395.72 546.75,-365.22 675.25,-365.22 675.25,-395.72"/>
<text xml:space="preserve" text-anchor="start" x="554.75" y="-382.22" font-family="Helvetica,sans-Serif" font-size="10.00">LoggerManager::_getFiles</text>
<text xml:space="preserve" text-anchor="middle" x="611" y="-370.97" font-family="Helvetica,sans-Serif" font-size="10.00">ForDate</text>
</a>
</g>
</g>
<!-- Node11&#45;&gt;Node14 -->
<g id="edge21_Node000011_Node000014" class="edge">
<title>Node11&#45;&gt;Node14</title>
<g id="a_edge21_Node000011_Node000014"><a xlink:title=" ">
<path fill="none" stroke="#63b8ff" d="M248.78,-309.13C270.54,-326.72 308.77,-354.37 347,-366.47 408.23,-385.84 481.43,-388.17 535.04,-386.33"/>
<polygon fill="#63b8ff" stroke="#63b8ff" points="535.15,-389.83 545,-385.92 534.87,-382.84 535.15,-389.83"/>
</a>
</g>
</g>
<!-- Node15 -->
<g id="Node000015" class="node">
<title>Node15</title>
<g id="a_Node000015"><a xlink:href="class_logger_manager.html#a485fea5149ef2e0199671ad2dcadbcf4" target="_top" xlink:title=" ">
<polygon fill="white" stroke="#666666" points="487.5,-357.72 350.75,-357.72 350.75,-327.22 487.5,-327.22 487.5,-357.72"/>
<text xml:space="preserve" text-anchor="start" x="358.75" y="-344.22" font-family="Helvetica,sans-Serif" font-size="10.00">LoggerManager::_findLatest</text>
<text xml:space="preserve" text-anchor="middle" x="419.12" y="-332.97" font-family="Helvetica,sans-Serif" font-size="10.00">FileForDate</text>
</a>
</g>
</g>
<!-- Node11&#45;&gt;Node15 -->
<g id="edge16_Node000011_Node000015" class="edge">
<title>Node11&#45;&gt;Node15</title>
<g id="a_edge16_Node000011_Node000015"><a xlink:title=" ">
<path fill="none" stroke="#63b8ff" d="M290.64,-309.18C308.57,-313.86 328.38,-319.03 346.94,-323.88"/>
<polygon fill="#63b8ff" stroke="#63b8ff" points="345.98,-327.25 356.54,-326.39 347.75,-320.47 345.98,-327.25"/>
</a>
</g>
</g>
<!-- Node16 -->
<g id="Node000016" class="node">
<title>Node16</title>
<g id="a_Node000016"><a xlink:href="class_logger_manager.html#ac50bc65494e34dca73f6ee0745a8b6e6" target="_top" xlink:title=" ">
<polygon fill="white" stroke="#666666" points="491.25,-259.72 347,-259.72 347,-229.22 491.25,-229.22 491.25,-259.72"/>
<text xml:space="preserve" text-anchor="start" x="355" y="-246.22" font-family="Helvetica,sans-Serif" font-size="10.00">LoggerManager::_readHeader</text>
<text xml:space="preserve" text-anchor="middle" x="419.12" y="-234.97" font-family="Helvetica,sans-Serif" font-size="10.00">FromFile</text>
</a>
</g>
</g>
<!-- Node11&#45;&gt;Node16 -->
<g id="edge22_Node000011_Node000016" class="edge">
<title>Node11&#45;&gt;Node16</title>
<g id="a_edge22_Node000011_Node000016"><a xlink:title=" ">
<path fill="none" stroke="#63b8ff" d="M290.64,-277.76C308.57,-273.08 328.38,-267.91 346.94,-263.06"/>
<polygon fill="#63b8ff" stroke="#63b8ff" points="347.75,-266.47 356.54,-260.55 345.98,-259.69 347.75,-266.47"/>
</a>
</g>
</g>
<!-- Node13 -->
<g id="Node000013" class="node">
<title>Node13</title>
<g id="a_Node000013"><a xlink:href="class_logger_manager.html#aa19a1b81e99d510ce23068e320305675" target="_top" xlink:title=" ">
<polygon fill="white" stroke="#666666" points="694.75,-346.72 527.25,-346.72 527.25,-316.22 694.75,-316.22 694.75,-346.72"/>
<text xml:space="preserve" text-anchor="start" x="535.25" y="-333.22" font-family="Helvetica,sans-Serif" font-size="10.00">LoggerManager::_extractSequence</text>
<text xml:space="preserve" text-anchor="middle" x="611" y="-321.97" font-family="Helvetica,sans-Serif" font-size="10.00">Number</text>
</a>
</g>
</g>
<!-- Node12&#45;&gt;Node13 -->
<g id="edge14_Node000012_Node000013" class="edge">
<title>Node12&#45;&gt;Node13</title>
<g id="a_edge14_Node000012_Node000013"><a xlink:title=" ">
<path fill="none" stroke="#63b8ff" d="M491.37,-307.73C500.75,-309.61 510.45,-311.55 520.09,-313.48"/>
<polygon fill="#63b8ff" stroke="#63b8ff" points="519.38,-316.9 529.87,-315.43 520.75,-310.04 519.38,-316.9"/>
</a>
</g>
</g>
<!-- Node12&#45;&gt;Node14 -->
<g id="edge15_Node000012_Node000014" class="edge">
<title>Node12&#45;&gt;Node14</title>
<g id="a_edge15_Node000012_Node000014"><a xlink:title=" ">
<path fill="none" stroke="#63b8ff" d="M473.46,-309.14C479.66,-311.85 485.74,-314.95 491.25,-318.47 510.58,-330.82 507.64,-343.55 527.25,-355.47 530.17,-357.25 533.22,-358.9 536.37,-360.45"/>
<polygon fill="#63b8ff" stroke="#63b8ff" points="534.7,-363.54 545.26,-364.4 537.55,-357.14 534.7,-363.54"/>
</a>
</g>
</g>
<!-- Node15&#45;&gt;Node13 -->
<g id="edge17_Node000015_Node000013" class="edge">
<title>Node15&#45;&gt;Node13</title>
<g id="a_edge17_Node000015_Node000013"><a xlink:title=" ">
<path fill="none" stroke="#63b8ff" d="M487.87,-338.55C496.88,-338.02 506.25,-337.48 515.61,-336.94"/>
<polygon fill="#63b8ff" stroke="#63b8ff" points="515.71,-340.44 525.49,-336.37 515.3,-333.45 515.71,-340.44"/>
</a>
</g>
</g>
<!-- Node15&#45;&gt;Node14 -->
<g id="edge18_Node000015_Node000014" class="edge">
<title>Node15&#45;&gt;Node14</title>
<g id="a_edge18_Node000015_Node000014"><a xlink:title=" ">
<path fill="none" stroke="#63b8ff" d="M487.87,-356.03C503.21,-359.1 519.59,-362.38 535.2,-365.5"/>
<polygon fill="#63b8ff" stroke="#63b8ff" points="534.43,-368.92 544.92,-367.45 535.8,-362.05 534.43,-368.92"/>
</a>
</g>
</g>
<!-- Node18 -->
<g id="Node000018" class="node">
<title>Node18</title>
<g id="a_Node000018"><a xlink:href="class_logger_manager.html#a0df2f2c96123da1989d0aaf6a4dc1615" target="_top" xlink:title=" ">
<polygon fill="white" stroke="#666666" points="482.62,-171.1 355.62,-171.1 355.62,-151.85 482.62,-151.85 482.62,-171.1"/>
<text xml:space="preserve" text-anchor="middle" x="419.12" y="-157.6" font-family="Helvetica,sans-Serif" font-size="10.00">LoggerManager::logEvent</text>
</a>
</g>
</g>
<!-- Node17&#45;&gt;Node18 -->
<g id="edge24_Node000017_Node000018" class="edge">
<title>Node17&#45;&gt;Node18</title>
<g id="a_edge24_Node000017_Node000018"><a xlink:title=" ">
<path fill="none" stroke="#63b8ff" d="M259,-217.45C290.96,-206.2 342.99,-187.9 378.81,-175.3"/>
<polygon fill="#63b8ff" stroke="#63b8ff" points="379.66,-178.71 387.93,-172.09 377.34,-172.11 379.66,-178.71"/>
</a>
</g>
</g>
<!-- Node18&#45;&gt;Node6 -->
<g id="edge29_Node000018_Node000006" class="edge">
<title>Node18&#45;&gt;Node6</title>
<g id="a_edge29_Node000018_Node000006"><a xlink:title=" ">
<path fill="none" stroke="#63b8ff" d="M468.15,-171.57C545.56,-187.9 689.83,-218.59 694.75,-221.47 740.76,-248.45 778.45,-299.47 798.29,-330.18"/>
<polygon fill="#63b8ff" stroke="#63b8ff" points="795.23,-331.88 803.52,-338.47 801.15,-328.14 795.23,-331.88"/>
</a>
</g>
</g>
<!-- Node19 -->
<g id="Node000019" class="node">
<title>Node19</title>
<g id="a_Node000019"><a xlink:href="class_logger_manager.html#a4f7591a3b5cb024b7354005b4362e049" target="_top" xlink:title=" ">
<polygon fill="white" stroke="#666666" points="685.38,-174.72 536.62,-174.72 536.62,-144.22 685.38,-144.22 685.38,-174.72"/>
<text xml:space="preserve" text-anchor="start" x="544.62" y="-161.22" font-family="Helvetica,sans-Serif" font-size="10.00">LoggerManager::_ensureEvent</text>
<text xml:space="preserve" text-anchor="middle" x="611" y="-149.97" font-family="Helvetica,sans-Serif" font-size="10.00">LogExists</text>
</a>
</g>
</g>
<!-- Node18&#45;&gt;Node19 -->
<g id="edge25_Node000018_Node000019" class="edge">
<title>Node18&#45;&gt;Node19</title>
<g id="a_edge25_Node000018_Node000019"><a xlink:title=" ">
<path fill="none" stroke="#63b8ff" d="M483.09,-160.81C496.55,-160.67 510.97,-160.51 525.1,-160.37"/>
<polygon fill="#63b8ff" stroke="#63b8ff" points="524.87,-163.87 534.83,-160.26 524.8,-156.87 524.87,-163.87"/>
</a>
</g>
</g>
<!-- Node21 -->
<g id="Node000021" class="node">
<title>Node21</title>
<g id="a_Node000021"><a xlink:href="class_logger_manager.html#a9cf35430e1e61515c6fb12524a58f1ab" target="_top" xlink:title=" ">
<polygon fill="white" stroke="#666666" points="676.75,-260.72 545.25,-260.72 545.25,-230.22 676.75,-230.22 676.75,-260.72"/>
<text xml:space="preserve" text-anchor="start" x="553.25" y="-247.22" font-family="Helvetica,sans-Serif" font-size="10.00">LoggerManager::_generate</text>
<text xml:space="preserve" text-anchor="middle" x="611" y="-235.97" font-family="Helvetica,sans-Serif" font-size="10.00">EventLogFileName</text>
</a>
</g>
</g>
<!-- Node18&#45;&gt;Node21 -->
<g id="edge27_Node000018_Node000021" class="edge">
<title>Node18&#45;&gt;Node21</title>
<g id="a_edge27_Node000018_Node000021"><a xlink:title=" ">
<path fill="none" stroke="#63b8ff" d="M454.78,-171.59C466.71,-175.73 479.92,-181.07 491.25,-187.47 509.14,-197.58 509.29,-206.48 527.25,-216.47 533.27,-219.82 539.76,-222.89 546.35,-225.68"/>
<polygon fill="#63b8ff" stroke="#63b8ff" points="544.75,-228.81 555.33,-229.27 547.34,-222.31 544.75,-228.81"/>
</a>
</g>
</g>
<!-- Node22 -->
<g id="Node000022" class="node">
<title>Node22</title>
<g id="a_Node000022"><a xlink:href="class_logger_manager.html#a4f31651f8963f741bfbdb944164ffc15" target="_top" xlink:title=" ">
<polygon fill="white" stroke="#666666" points="680.88,-125.72 541.12,-125.72 541.12,-95.22 680.88,-95.22 680.88,-125.72"/>
<text xml:space="preserve" text-anchor="start" x="549.12" y="-112.22" font-family="Helvetica,sans-Serif" font-size="10.00">LoggerManager::_getCurrent</text>
<text xml:space="preserve" text-anchor="middle" x="611" y="-100.97" font-family="Helvetica,sans-Serif" font-size="10.00">TimeString</text>
</a>
</g>
</g>
<!-- Node18&#45;&gt;Node22 -->
<g id="edge30_Node000018_Node000022" class="edge">
<title>Node18&#45;&gt;Node22</title>
<g id="a_edge30_Node000018_Node000022"><a xlink:title=" ">
<path fill="none" stroke="#63b8ff" d="M457.64,-151.39C481.3,-145.04 512.59,-136.64 540.65,-129.1"/>
<polygon fill="#63b8ff" stroke="#63b8ff" points="541.42,-132.52 550.17,-126.54 539.6,-125.76 541.42,-132.52"/>
</a>
</g>
</g>
<!-- Node23 -->
<g id="Node000023" class="node">
<title>Node23</title>
<g id="a_Node000023"><a xlink:href="class_logger_manager.html#a472884ce9e2aed6a1570187dd37cc006" target="_top" xlink:title=" ">
<polygon fill="white" stroke="#666666" points="691.38,-77.1 530.62,-77.1 530.62,-57.85 691.38,-57.85 691.38,-77.1"/>
<text xml:space="preserve" text-anchor="middle" x="611" y="-63.6" font-family="Helvetica,sans-Serif" font-size="10.00">LoggerManager::_writeEventRow</text>
</a>
</g>
</g>
<!-- Node18&#45;&gt;Node23 -->
<g id="edge31_Node000018_Node000023" class="edge">
<title>Node18&#45;&gt;Node23</title>
<g id="a_edge31_Node000018_Node000023"><a xlink:title=" ">
<path fill="none" stroke="#63b8ff" d="M431.12,-151.56C449.6,-135.44 488.66,-103.62 527.25,-86.47 532.05,-84.34 537.11,-82.43 542.28,-80.73"/>
<polygon fill="#63b8ff" stroke="#63b8ff" points="542.95,-84.18 551.52,-77.95 540.93,-77.48 542.95,-84.18"/>
</a>
</g>
</g>
<!-- Node20 -->
<g id="Node000020" class="node">
<title>Node20</title>
<g id="a_Node000020"><a xlink:href="class_logger_manager.html#a515beeaa428acafce139d79b41fe9d0a" target="_top" xlink:title=" ">
<polygon fill="white" stroke="#666666" points="884.75,-174.72 744.25,-174.72 744.25,-144.22 884.75,-144.22 884.75,-174.72"/>
<text xml:space="preserve" text-anchor="start" x="752.25" y="-161.22" font-family="Helvetica,sans-Serif" font-size="10.00">LoggerManager::_writeEvent</text>
<text xml:space="preserve" text-anchor="middle" x="814.5" y="-149.97" font-family="Helvetica,sans-Serif" font-size="10.00">Header</text>
</a>
</g>
</g>
<!-- Node19&#45;&gt;Node20 -->
<g id="edge26_Node000019_Node000020" class="edge">
<title>Node19&#45;&gt;Node20</title>
<g id="a_edge26_Node000019_Node000020"><a xlink:title=" ">
<path fill="none" stroke="#63b8ff" d="M685.6,-159.47C700.89,-159.47 717.08,-159.47 732.61,-159.47"/>
<polygon fill="#63b8ff" stroke="#63b8ff" points="732.27,-162.97 742.27,-159.47 732.27,-155.97 732.27,-162.97"/>
</a>
</g>
</g>
<!-- Node21&#45;&gt;Node6 -->
<g id="edge28_Node000021_Node000006" class="edge">
<title>Node21&#45;&gt;Node6</title>
<g id="a_edge28_Node000021_Node000006"><a xlink:title=" ">
<path fill="none" stroke="#63b8ff" d="M663.63,-261.22C674.14,-265.07 684.97,-269.53 694.75,-274.47 727.44,-290.99 761.68,-315.19 784.95,-332.84"/>
<polygon fill="#63b8ff" stroke="#63b8ff" points="782.65,-335.48 792.71,-338.8 786.91,-329.93 782.65,-335.48"/>
</a>
</g>
</g>
<!-- Node23&#45;&gt;Node8 -->
<g id="edge32_Node000023_Node000008" class="edge">
<title>Node23&#45;&gt;Node8</title>
<g id="a_edge32_Node000023_Node000008"><a xlink:title=" ">
<path fill="none" stroke="#63b8ff" d="M667.06,-57.36C691.83,-52.81 721.27,-47.41 747.23,-42.64"/>
<polygon fill="#63b8ff" stroke="#63b8ff" points="747.81,-46.09 757.02,-40.84 746.55,-39.21 747.81,-46.09"/>
</a>
</g>
</g>
</g>
</svg>
