<?xml version="1.0" encoding="UTF-8" standalone="no"?>
<!DOCTYPE svg PUBLIC "-//W3C//DTD SVG 1.1//EN"
 "http://www.w3.org/Graphics/SVG/1.1/DTD/svg11.dtd">
<!-- Generated by graphviz version 13.1.0 (20250701.0955)
 -->
<!-- Title: LoggerManager::openLogFile Pages: 1 -->
<svg width="490pt" height="76pt"
 viewBox="0.00 0.00 490.00 76.00" xmlns="http://www.w3.org/2000/svg" xmlns:xlink="http://www.w3.org/1999/xlink">
<g id="graph0" class="graph" transform="scale(1 1) rotate(0) translate(4 71.88)">
<title>LoggerManager::openLogFile</title>
<!-- Node1 -->
<g id="Node000001" class="node">
<title>Node1</title>
<g id="a_Node000001"><a xlink:title=" ">
<polygon fill="#999999" stroke="#666666" points="482.25,-45.88 341,-45.88 341,-26.62 482.25,-26.62 482.25,-45.88"/>
<text xml:space="preserve" text-anchor="middle" x="411.62" y="-32.38" font-family="Helvetica,sans-Serif" font-size="10.00">LoggerManager::openLogFile</text>
</a>
</g>
</g>
<!-- Node2 -->
<g id="Node000002" class="node">
<title>Node2</title>
<g id="a_Node000002"><a xlink:href="class_config_manager.html#a3b28982c79587a287c8ddf0acf47f71d" target="_top" xlink:title="Setup file download API endpoints.">
<polygon fill="white" stroke="#666666" points="299,-67.88 153.25,-67.88 153.25,-48.62 299,-48.62 299,-67.88"/>
<text xml:space="preserve" text-anchor="middle" x="226.12" y="-54.38" font-family="Helvetica,sans-Serif" font-size="10.00">ConfigManager::downloadAPI</text>
</a>
</g>
</g>
<!-- Node1&#45;&gt;Node2 -->
<g id="edge1_Node000001_Node000002" class="edge">
<title>Node1&#45;&gt;Node2</title>
<g id="a_edge1_Node000001_Node000002"><a xlink:title=" ">
<path fill="none" stroke="#63b8ff" d="M329.47,-45.98C319.41,-47.19 309.18,-48.41 299.26,-49.6"/>
<polygon fill="#63b8ff" stroke="#63b8ff" points="329.71,-49.48 339.23,-44.81 328.88,-42.53 329.71,-49.48"/>
</a>
</g>
</g>
<!-- Node4 -->
<g id="Node000004" class="node">
<title>Node4</title>
<g id="a_Node000004"><a xlink:href="class_config_manager.html#aa425fe77d9c00f404f1c02327263f516" target="_top" xlink:title="Get alarm events for a specific point within date range.">
<polygon fill="white" stroke="#666666" points="305,-30.5 147.25,-30.5 147.25,0 305,0 305,-30.5"/>
<text xml:space="preserve" text-anchor="start" x="155.25" y="-17" font-family="Helvetica,sans-Serif" font-size="10.00">ConfigManager::getAlarmEvents</text>
<text xml:space="preserve" text-anchor="middle" x="226.12" y="-5.75" font-family="Helvetica,sans-Serif" font-size="10.00">ForPoint</text>
</a>
</g>
</g>
<!-- Node1&#45;&gt;Node4 -->
<g id="edge3_Node000001_Node000004" class="edge">
<title>Node1&#45;&gt;Node4</title>
<g id="a_edge3_Node000001_Node000004"><a xlink:title=" ">
<path fill="none" stroke="#63b8ff" d="M329.51,-26.97C321.5,-26.05 313.39,-25.12 305.41,-24.21"/>
<polygon fill="#63b8ff" stroke="#63b8ff" points="328.89,-30.42 339.22,-28.08 329.69,-23.46 328.89,-30.42"/>
</a>
</g>
</g>
<!-- Node3 -->
<g id="Node000003" class="node">
<title>Node3</title>
<g id="a_Node000003"><a xlink:href="class_config_manager.html#a0497343220fc493f5cf9574922508908" target="_top" xlink:title="Initialize the configuration system.">
<polygon fill="white" stroke="#666666" points="111.25,-67.88 0,-67.88 0,-48.62 111.25,-48.62 111.25,-67.88"/>
<text xml:space="preserve" text-anchor="middle" x="55.62" y="-54.38" font-family="Helvetica,sans-Serif" font-size="10.00">ConfigManager::begin</text>
</a>
</g>
</g>
<!-- Node2&#45;&gt;Node3 -->
<g id="edge2_Node000002_Node000003" class="edge">
<title>Node2&#45;&gt;Node3</title>
<g id="a_edge2_Node000002_Node000003"><a xlink:title=" ">
<path fill="none" stroke="#63b8ff" d="M141.99,-58.25C131.64,-58.25 121.28,-58.25 111.51,-58.25"/>
<polygon fill="#63b8ff" stroke="#63b8ff" points="141.66,-61.75 151.66,-58.25 141.66,-54.75 141.66,-61.75"/>
</a>
</g>
</g>
</g>
</svg>
