<?xml version="1.0" encoding="UTF-8" standalone="no"?>
<!DOCTYPE svg PUBLIC "-//W3C//DTD SVG 1.1//EN"
 "http://www.w3.org/Graphics/SVG/1.1/DTD/svg11.dtd">
<!-- Generated by graphviz version 13.1.0 (20250701.0955)
 -->
<!-- Title: TimeManager::getCurrentTime Pages: 1 -->
<svg width="728pt" height="158pt"
 viewBox="0.00 0.00 728.00 158.00" xmlns="http://www.w3.org/2000/svg" xmlns:xlink="http://www.w3.org/1999/xlink">
<g id="graph0" class="graph" transform="scale(1 1) rotate(0) translate(4 154.25)">
<title>TimeManager::getCurrentTime</title>
<!-- Node1 -->
<g id="Node000001" class="node">
<title>Node1</title>
<g id="a_Node000001"><a xlink:title=" ">
<polygon fill="#999999" stroke="#666666" points="719.5,-93.25 570.75,-93.25 570.75,-74 719.5,-74 719.5,-93.25"/>
<text xml:space="preserve" text-anchor="middle" x="645.12" y="-79.75" font-family="Helvetica,sans-Serif" font-size="10.00">TimeManager::getCurrentTime</text>
</a>
</g>
</g>
<!-- Node2 -->
<g id="Node000002" class="node">
<title>Node2</title>
<g id="a_Node000002"><a xlink:href="class_time_manager.html#a558c17fb7adf5fe7556a7052c971d99f" target="_top" xlink:title=" ">
<polygon fill="white" stroke="#666666" points="525,-150.25 383.75,-150.25 383.75,-131 525,-131 525,-150.25"/>
<text xml:space="preserve" text-anchor="middle" x="454.38" y="-136.75" font-family="Helvetica,sans-Serif" font-size="10.00">TimeManager::getDateString</text>
</a>
</g>
</g>
<!-- Node1&#45;&gt;Node2 -->
<g id="edge1_Node000001_Node000002" class="edge">
<title>Node1&#45;&gt;Node2</title>
<g id="a_edge1_Node000001_Node000002"><a xlink:title=" ">
<path fill="none" stroke="#63b8ff" d="M600.23,-96.88C566.18,-107.16 519.7,-121.2 488.67,-130.57"/>
<polygon fill="#63b8ff" stroke="#63b8ff" points="600.8,-100.36 609.37,-94.12 598.78,-93.66 600.8,-100.36"/>
</a>
</g>
</g>
<!-- Node3 -->
<g id="Node000003" class="node">
<title>Node3</title>
<g id="a_Node000003"><a xlink:href="class_time_manager.html#ad8222e9629445d97b543eb491b3fd4f6" target="_top" xlink:title=" ">
<polygon fill="white" stroke="#666666" points="330.12,-93.25 186.62,-93.25 186.62,-74 330.12,-74 330.12,-93.25"/>
<text xml:space="preserve" text-anchor="middle" x="258.38" y="-79.75" font-family="Helvetica,sans-Serif" font-size="10.00">TimeManager::getTimeJSON</text>
</a>
</g>
</g>
<!-- Node1&#45;&gt;Node3 -->
<g id="edge8_Node000001_Node000003" class="edge">
<title>Node1&#45;&gt;Node3</title>
<g id="a_edge8_Node000001_Node000003"><a xlink:title=" ">
<path fill="none" stroke="#63b8ff" d="M559.2,-83.62C490.62,-83.62 395.21,-83.62 330.58,-83.62"/>
<polygon fill="#63b8ff" stroke="#63b8ff" points="558.88,-87.13 568.88,-83.63 558.88,-80.13 558.88,-87.13"/>
</a>
</g>
</g>
<!-- Node4 -->
<g id="Node000004" class="node">
<title>Node4</title>
<g id="a_Node000004"><a xlink:href="class_time_manager.html#a06dd5ab29990377c81538d99ba7ccf31" target="_top" xlink:title=" ">
<polygon fill="white" stroke="#666666" points="534.75,-37.25 374,-37.25 374,-18 534.75,-18 534.75,-37.25"/>
<text xml:space="preserve" text-anchor="middle" x="454.38" y="-23.75" font-family="Helvetica,sans-Serif" font-size="10.00">TimeManager::getFormattedTime</text>
</a>
</g>
</g>
<!-- Node1&#45;&gt;Node4 -->
<g id="edge3_Node000001_Node000004" class="edge">
<title>Node1&#45;&gt;Node4</title>
<g id="a_edge3_Node000001_Node000004"><a xlink:title=" ">
<path fill="none" stroke="#63b8ff" d="M607.15,-69.63C586.11,-61.95 559.16,-52.61 534.75,-45.62 524.83,-42.79 514.12,-40.1 503.87,-37.72"/>
<polygon fill="#63b8ff" stroke="#63b8ff" points="605.85,-72.88 616.45,-73.05 608.27,-66.31 605.85,-72.88"/>
</a>
</g>
</g>
<!-- Node8 -->
<g id="Node000008" class="node">
<title>Node8</title>
<g id="a_Node000008"><a xlink:href="class_time_manager.html#aea04045a244a479fed907fd05d64d100" target="_top" xlink:title=" ">
<polygon fill="white" stroke="#666666" points="525.38,-74.25 383.38,-74.25 383.38,-55 525.38,-55 525.38,-74.25"/>
<text xml:space="preserve" text-anchor="middle" x="454.38" y="-60.75" font-family="Helvetica,sans-Serif" font-size="10.00">TimeManager::getTimeString</text>
</a>
</g>
</g>
<!-- Node1&#45;&gt;Node8 -->
<g id="edge9_Node000001_Node000008" class="edge">
<title>Node1&#45;&gt;Node8</title>
<g id="a_edge9_Node000001_Node000008"><a xlink:title=" ">
<path fill="none" stroke="#63b8ff" d="M559.22,-75.08C548.02,-73.95 536.63,-72.8 525.71,-71.71"/>
<polygon fill="#63b8ff" stroke="#63b8ff" points="558.53,-78.53 568.83,-76.05 559.23,-71.56 558.53,-78.53"/>
</a>
</g>
</g>
<!-- Node2&#45;&gt;Node3 -->
<g id="edge2_Node000002_Node000003" class="edge">
<title>Node2&#45;&gt;Node3</title>
<g id="a_edge2_Node000002_Node000003"><a xlink:title=" ">
<path fill="none" stroke="#63b8ff" d="M408.26,-127.37C373.26,-117.09 325.49,-103.05 293.6,-93.68"/>
<polygon fill="#63b8ff" stroke="#63b8ff" points="407.1,-130.68 417.69,-130.14 409.08,-123.96 407.1,-130.68"/>
</a>
</g>
</g>
<!-- Node4&#45;&gt;Node3 -->
<g id="edge4_Node000004_Node000003" class="edge">
<title>Node4&#45;&gt;Node3</title>
<g id="a_edge4_Node000004_Node000003"><a xlink:title=" ">
<path fill="none" stroke="#63b8ff" d="M394.51,-40.3C387.57,-41.99 380.61,-43.78 374,-45.62 343.91,-54 310.01,-65.5 286.94,-73.65"/>
<polygon fill="#63b8ff" stroke="#63b8ff" points="394.94,-43.8 403.86,-38.08 393.33,-36.99 394.94,-43.8"/>
</a>
</g>
</g>
<!-- Node5 -->
<g id="Node000005" class="node">
<title>Node5</title>
<g id="a_Node000005"><a xlink:href="class_time_manager.html#accdbd3c07d63d6ed1f96fddbc4bf2e00" target="_top" xlink:title=" ">
<polygon fill="white" stroke="#666666" points="338,-37.25 178.75,-37.25 178.75,-18 338,-18 338,-37.25"/>
<text xml:space="preserve" text-anchor="middle" x="258.38" y="-23.75" font-family="Helvetica,sans-Serif" font-size="10.00">TimeManager::setTimeFromNTP</text>
</a>
</g>
</g>
<!-- Node4&#45;&gt;Node5 -->
<g id="edge5_Node000004_Node000005" class="edge">
<title>Node4&#45;&gt;Node5</title>
<g id="a_edge5_Node000004_Node000005"><a xlink:title=" ">
<path fill="none" stroke="#63b8ff" d="M362.12,-27.62C354.23,-27.62 346.28,-27.62 338.5,-27.62"/>
<polygon fill="#63b8ff" stroke="#63b8ff" points="362.11,-31.13 372.11,-27.63 362.11,-24.13 362.11,-31.13"/>
</a>
</g>
</g>
<!-- Node6 -->
<g id="Node000006" class="node">
<title>Node6</title>
<g id="a_Node000006"><a xlink:href="class_time_manager.html#aa8a8cc016ebb9ceabc4fee347a49cbdb" target="_top" xlink:title=" ">
<polygon fill="white" stroke="#666666" points="142.75,-56.25 0,-56.25 0,-37 142.75,-37 142.75,-56.25"/>
<text xml:space="preserve" text-anchor="middle" x="71.38" y="-42.75" font-family="Helvetica,sans-Serif" font-size="10.00">TimeManager::syncWithNTP</text>
</a>
</g>
</g>
<!-- Node5&#45;&gt;Node6 -->
<g id="edge6_Node000005_Node000006" class="edge">
<title>Node5&#45;&gt;Node6</title>
<g id="a_edge6_Node000005_Node000006"><a xlink:title=" ">
<path fill="none" stroke="#63b8ff" d="M167.09,-36.9C159.07,-37.72 151.03,-38.55 143.21,-39.35"/>
<polygon fill="#63b8ff" stroke="#63b8ff" points="167.29,-40.4 176.88,-35.89 166.57,-33.43 167.29,-40.4"/>
</a>
</g>
</g>
<!-- Node7 -->
<g id="Node000007" class="node">
<title>Node7</title>
<g id="a_Node000007"><a xlink:href="class_time_manager.html#a97d902b19861efc099141eeb846671a3" target="_top" xlink:title=" ">
<polygon fill="white" stroke="#666666" points="126.62,-19.25 16.12,-19.25 16.12,0 126.62,0 126.62,-19.25"/>
<text xml:space="preserve" text-anchor="middle" x="71.38" y="-5.75" font-family="Helvetica,sans-Serif" font-size="10.00">TimeManager::update</text>
</a>
</g>
</g>
<!-- Node5&#45;&gt;Node7 -->
<g id="edge7_Node000005_Node000007" class="edge">
<title>Node5&#45;&gt;Node7</title>
<g id="a_edge7_Node000005_Node000007"><a xlink:title=" ">
<path fill="none" stroke="#63b8ff" d="M166.97,-18.83C153.34,-17.5 139.65,-16.17 127.08,-14.95"/>
<polygon fill="#63b8ff" stroke="#63b8ff" points="166.58,-22.31 176.88,-19.79 167.26,-15.34 166.58,-22.31"/>
</a>
</g>
</g>
<!-- Node8&#45;&gt;Node3 -->
<g id="edge10_Node000008_Node000003" class="edge">
<title>Node8&#45;&gt;Node3</title>
<g id="a_edge10_Node000008_Node000003"><a xlink:title=" ">
<path fill="none" stroke="#63b8ff" d="M371.67,-72.63C357.96,-73.97 343.84,-75.35 330.42,-76.67"/>
<polygon fill="#63b8ff" stroke="#63b8ff" points="371.94,-76.12 381.56,-71.66 371.26,-69.15 371.94,-76.12"/>
</a>
</g>
</g>
</g>
</svg>
