<?xml version="1.0" encoding="UTF-8" standalone="no"?>
<!DOCTYPE svg PUBLIC "-//W3C//DTD SVG 1.1//EN"
 "http://www.w3.org/Graphics/SVG/1.1/DTD/svg11.dtd">
<!-- Generated by graphviz version 13.1.0 (20250701.0955)
 -->
<!-- Title: Sensor::updateAlarmStatus Pages: 1 -->
<svg width="335pt" height="101pt"
 viewBox="0.00 0.00 335.00 101.00" xmlns="http://www.w3.org/2000/svg" xmlns:xlink="http://www.w3.org/1999/xlink">
<g id="graph0" class="graph" transform="scale(1 1) rotate(0) translate(4 97.25)">
<title>Sensor::updateAlarmStatus</title>
<!-- Node1 -->
<g id="Node000001" class="node">
<title>Node1</title>
<g id="a_Node000001"><a xlink:title="Update alarm status based on current temperature.">
<polygon fill="#999999" stroke="#666666" points="326.75,-56.25 190.75,-56.25 190.75,-37 326.75,-37 326.75,-56.25"/>
<text xml:space="preserve" text-anchor="middle" x="258.75" y="-42.75" font-family="Helvetica,sans-Serif" font-size="10.00">Sensor::updateAlarmStatus</text>
</a>
</g>
</g>
<!-- Node2 -->
<g id="Node000002" class="node">
<title>Node2</title>
<g id="a_Node000002"><a xlink:href="class_sensor.html#a5f3828beedd045bf82b3542ec626bc7b" target="_top" xlink:title="Read temperature from sensor.">
<polygon fill="white" stroke="#666666" points="140.12,-93.25 14.62,-93.25 14.62,-74 140.12,-74 140.12,-93.25"/>
<text xml:space="preserve" text-anchor="middle" x="77.38" y="-79.75" font-family="Helvetica,sans-Serif" font-size="10.00">Sensor::readTemperature</text>
</a>
</g>
</g>
<!-- Node1&#45;&gt;Node2 -->
<g id="edge1_Node000001_Node000002" class="edge">
<title>Node1&#45;&gt;Node2</title>
<g id="a_edge1_Node000001_Node000002"><a xlink:title=" ">
<path fill="none" stroke="#63b8ff" d="M197.76,-59C174.87,-63.72 149.07,-69.04 127.33,-73.53"/>
<polygon fill="#63b8ff" stroke="#63b8ff" points="198.17,-62.49 207.25,-57.04 196.75,-55.63 198.17,-62.49"/>
</a>
</g>
</g>
<!-- Node3 -->
<g id="Node000003" class="node">
<title>Node3</title>
<g id="a_Node000003"><a xlink:href="class_sensor.html#a300550ed551df5688ff101e132c82d3e" target="_top" xlink:title="Set high temperature alarm threshold.">
<polygon fill="white" stroke="#666666" points="154.75,-56.25 0,-56.25 0,-37 154.75,-37 154.75,-56.25"/>
<text xml:space="preserve" text-anchor="middle" x="77.38" y="-42.75" font-family="Helvetica,sans-Serif" font-size="10.00">Sensor::setHighAlarmThreshold</text>
</a>
</g>
</g>
<!-- Node1&#45;&gt;Node3 -->
<g id="edge2_Node000001_Node000003" class="edge">
<title>Node1&#45;&gt;Node3</title>
<g id="a_edge2_Node000001_Node000003"><a xlink:title=" ">
<path fill="none" stroke="#63b8ff" d="M178.95,-46.62C171.03,-46.62 163,-46.62 155.1,-46.62"/>
<polygon fill="#63b8ff" stroke="#63b8ff" points="178.93,-50.13 188.93,-46.63 178.93,-43.13 178.93,-50.13"/>
</a>
</g>
</g>
<!-- Node4 -->
<g id="Node000004" class="node">
<title>Node4</title>
<g id="a_Node000004"><a xlink:href="class_sensor.html#ae2e32117bfa426768afd692d062a13f0" target="_top" xlink:title="Set low temperature alarm threshold.">
<polygon fill="white" stroke="#666666" points="153.62,-19.25 1.12,-19.25 1.12,0 153.62,0 153.62,-19.25"/>
<text xml:space="preserve" text-anchor="middle" x="77.38" y="-5.75" font-family="Helvetica,sans-Serif" font-size="10.00">Sensor::setLowAlarmThreshold</text>
</a>
</g>
</g>
<!-- Node1&#45;&gt;Node4 -->
<g id="edge3_Node000001_Node000004" class="edge">
<title>Node1&#45;&gt;Node4</title>
<g id="a_edge3_Node000001_Node000004"><a xlink:title=" ">
<path fill="none" stroke="#63b8ff" d="M197.76,-34.25C174.87,-29.53 149.07,-24.21 127.33,-19.72"/>
<polygon fill="#63b8ff" stroke="#63b8ff" points="196.75,-37.62 207.25,-36.21 198.17,-30.76 196.75,-37.62"/>
</a>
</g>
</g>
</g>
</svg>
