<?xml version="1.0" encoding="UTF-8" standalone="no"?>
<!DOCTYPE svg PUBLIC "-//W3C//DTD SVG 1.1//EN"
 "http://www.w3.org/Graphics/SVG/1.1/DTD/svg11.dtd">
<!-- Generated by graphviz version 13.1.0 (20250701.0955)
 -->
<!-- Title: IndicatorInterface::isInverted Pages: 1 -->
<svg width="508pt" height="259pt"
 viewBox="0.00 0.00 508.00 259.00" xmlns="http://www.w3.org/2000/svg" xmlns:xlink="http://www.w3.org/1999/xlink">
<g id="graph0" class="graph" transform="scale(1 1) rotate(0) translate(4 254.5)">
<title>IndicatorInterface::isInverted</title>
<!-- Node1 -->
<g id="Node000001" class="node">
<title>Node1</title>
<g id="a_Node000001"><a xlink:title=" ">
<polygon fill="#999999" stroke="#666666" points="499.75,-82.5 408,-82.5 408,-52 499.75,-52 499.75,-82.5"/>
<text xml:space="preserve" text-anchor="start" x="416" y="-69" font-family="Helvetica,sans-Serif" font-size="10.00">IndicatorInterface</text>
<text xml:space="preserve" text-anchor="middle" x="453.88" y="-57.75" font-family="Helvetica,sans-Serif" font-size="10.00">::isInverted</text>
</a>
</g>
</g>
<!-- Node2 -->
<g id="Node000002" class="node">
<title>Node2</title>
<g id="a_Node000002"><a xlink:href="class_indicator_interface.html#a79a3f596138d02404e732cc354b6e78b" target="_top" xlink:title=" ">
<polygon fill="white" stroke="#666666" points="367.5,-152.5 269.75,-152.5 269.75,-122 367.5,-122 367.5,-152.5"/>
<text xml:space="preserve" text-anchor="start" x="277.75" y="-139" font-family="Helvetica,sans-Serif" font-size="10.00">IndicatorInterface</text>
<text xml:space="preserve" text-anchor="middle" x="318.62" y="-127.75" font-family="Helvetica,sans-Serif" font-size="10.00">::_applyModeLogic</text>
</a>
</g>
</g>
<!-- Node1&#45;&gt;Node2 -->
<g id="edge1_Node000001_Node000002" class="edge">
<title>Node1&#45;&gt;Node2</title>
<g id="a_edge1_Node000001_Node000002"><a xlink:title=" ">
<path fill="none" stroke="#63b8ff" d="M413.02,-88.19C392.61,-98.91 368.18,-111.74 349.43,-121.59"/>
<polygon fill="#63b8ff" stroke="#63b8ff" points="414.41,-91.41 421.63,-83.66 411.15,-85.22 414.41,-91.41"/>
</a>
</g>
</g>
<!-- Node8 -->
<g id="Node000008" class="node">
<title>Node8</title>
<g id="a_Node000008"><a xlink:href="class_indicator_interface.html#a8571bc4adfb0efb4f230b8c9d1b6bda7" target="_top" xlink:title=" ">
<polygon fill="white" stroke="#666666" points="372,-39.5 265.25,-39.5 265.25,-9 372,-9 372,-39.5"/>
<text xml:space="preserve" text-anchor="start" x="273.25" y="-26" font-family="Helvetica,sans-Serif" font-size="10.00">IndicatorInterface</text>
<text xml:space="preserve" text-anchor="middle" x="318.62" y="-14.75" font-family="Helvetica,sans-Serif" font-size="10.00">::_reverseModeLogic</text>
</a>
</g>
</g>
<!-- Node1&#45;&gt;Node8 -->
<g id="edge7_Node000001_Node000008" class="edge">
<title>Node1&#45;&gt;Node8</title>
<g id="a_edge7_Node000001_Node000008"><a xlink:title=" ">
<path fill="none" stroke="#63b8ff" d="M396.83,-49.16C387.36,-46.11 377.6,-42.96 368.34,-39.97"/>
<polygon fill="#63b8ff" stroke="#63b8ff" points="395.73,-52.49 406.32,-52.23 397.88,-45.83 395.73,-52.49"/>
</a>
</g>
</g>
<!-- Node9 -->
<g id="Node000009" class="node">
<title>Node9</title>
<g id="a_Node000009"><a xlink:href="class_indicator_interface.html#a21ce0e3bc0531d92f815059890c66c4c" target="_top" xlink:title=" ">
<polygon fill="white" stroke="#666666" points="229.25,-79.5 137.5,-79.5 137.5,-49 229.25,-49 229.25,-79.5"/>
<text xml:space="preserve" text-anchor="start" x="145.5" y="-66" font-family="Helvetica,sans-Serif" font-size="10.00">IndicatorInterface</text>
<text xml:space="preserve" text-anchor="middle" x="183.38" y="-54.75" font-family="Helvetica,sans-Serif" font-size="10.00">::printPortStates</text>
</a>
</g>
</g>
<!-- Node1&#45;&gt;Node9 -->
<g id="edge10_Node000001_Node000009" class="edge">
<title>Node1&#45;&gt;Node9</title>
<g id="a_edge10_Node000001_Node000009"><a xlink:title=" ">
<path fill="none" stroke="#63b8ff" d="M396.12,-66.62C346.43,-66.06 275.2,-65.26 229.36,-64.75"/>
<polygon fill="#63b8ff" stroke="#63b8ff" points="396.08,-70.12 406.12,-66.73 396.16,-63.12 396.08,-70.12"/>
</a>
</g>
</g>
<!-- Node3 -->
<g id="Node000003" class="node">
<title>Node3</title>
<g id="a_Node000003"><a xlink:href="class_indicator_interface.html#a52dd1fa732e288e344fe017f100d6c0d" target="_top" xlink:title=" ">
<polygon fill="white" stroke="#666666" points="229.25,-226.5 137.5,-226.5 137.5,-196 229.25,-196 229.25,-226.5"/>
<text xml:space="preserve" text-anchor="start" x="145.5" y="-213" font-family="Helvetica,sans-Serif" font-size="10.00">IndicatorInterface</text>
<text xml:space="preserve" text-anchor="middle" x="183.38" y="-201.75" font-family="Helvetica,sans-Serif" font-size="10.00">::setAllOutputs</text>
</a>
</g>
</g>
<!-- Node2&#45;&gt;Node3 -->
<g id="edge2_Node000002_Node000003" class="edge">
<title>Node2&#45;&gt;Node3</title>
<g id="a_edge2_Node000002_Node000003"><a xlink:title=" ">
<path fill="none" stroke="#63b8ff" d="M279.35,-158.51C258.05,-170.33 232.02,-184.79 212.59,-195.58"/>
<polygon fill="#63b8ff" stroke="#63b8ff" points="281,-161.59 288.04,-153.68 277.6,-155.47 281,-161.59"/>
</a>
</g>
</g>
<!-- Node6 -->
<g id="Node000006" class="node">
<title>Node6</title>
<g id="a_Node000006"><a xlink:href="class_indicator_interface.html#a6b01cb93befc42d644388756ff986f6e" target="_top" xlink:title=" ">
<polygon fill="white" stroke="#666666" points="229.25,-177.5 137.5,-177.5 137.5,-147 229.25,-147 229.25,-177.5"/>
<text xml:space="preserve" text-anchor="start" x="145.5" y="-164" font-family="Helvetica,sans-Serif" font-size="10.00">IndicatorInterface</text>
<text xml:space="preserve" text-anchor="middle" x="183.38" y="-152.75" font-family="Helvetica,sans-Serif" font-size="10.00">::writePort</text>
</a>
</g>
</g>
<!-- Node2&#45;&gt;Node6 -->
<g id="edge5_Node000002_Node000006" class="edge">
<title>Node2&#45;&gt;Node6</title>
<g id="a_edge5_Node000002_Node000006"><a xlink:title=" ">
<path fill="none" stroke="#63b8ff" d="M258.38,-148.37C248.77,-150.17 238.95,-152.01 229.74,-153.74"/>
<polygon fill="#63b8ff" stroke="#63b8ff" points="258.85,-151.84 268.03,-146.55 257.56,-144.96 258.85,-151.84"/>
</a>
</g>
</g>
<!-- Node7 -->
<g id="Node000007" class="node">
<title>Node7</title>
<g id="a_Node000007"><a xlink:href="class_indicator_interface.html#afb68095f494956d24c4013a048b083bf" target="_top" xlink:title=" ">
<polygon fill="white" stroke="#666666" points="229.25,-128.5 137.5,-128.5 137.5,-98 229.25,-98 229.25,-128.5"/>
<text xml:space="preserve" text-anchor="start" x="145.5" y="-115" font-family="Helvetica,sans-Serif" font-size="10.00">IndicatorInterface</text>
<text xml:space="preserve" text-anchor="middle" x="183.38" y="-103.75" font-family="Helvetica,sans-Serif" font-size="10.00">::writePorts</text>
</a>
</g>
</g>
<!-- Node2&#45;&gt;Node7 -->
<g id="edge6_Node000002_Node000007" class="edge">
<title>Node2&#45;&gt;Node7</title>
<g id="a_edge6_Node000002_Node000007"><a xlink:title=" ">
<path fill="none" stroke="#63b8ff" d="M258.38,-126.58C248.77,-124.85 238.95,-123.08 229.74,-121.42"/>
<polygon fill="#63b8ff" stroke="#63b8ff" points="257.57,-129.99 268.03,-128.32 258.81,-123.1 257.57,-129.99"/>
</a>
</g>
</g>
<!-- Node4 -->
<g id="Node000004" class="node">
<title>Node4</title>
<g id="a_Node000004"><a xlink:href="class_indicator_interface.html#ada8f967d6d074b194ab4876b10869357" target="_top" xlink:title=" ">
<polygon fill="white" stroke="#666666" points="101.5,-250.5 0,-250.5 0,-220 101.5,-220 101.5,-250.5"/>
<text xml:space="preserve" text-anchor="start" x="8" y="-237" font-family="Helvetica,sans-Serif" font-size="10.00">IndicatorInterface</text>
<text xml:space="preserve" text-anchor="middle" x="50.75" y="-225.75" font-family="Helvetica,sans-Serif" font-size="10.00">::setAllOutputsHigh</text>
</a>
</g>
</g>
<!-- Node3&#45;&gt;Node4 -->
<g id="edge3_Node000003_Node000004" class="edge">
<title>Node3&#45;&gt;Node4</title>
<g id="a_edge3_Node000003_Node000004"><a xlink:title=" ">
<path fill="none" stroke="#63b8ff" d="M125.93,-221.62C117.94,-223.09 109.76,-224.59 101.9,-226.04"/>
<polygon fill="#63b8ff" stroke="#63b8ff" points="126.36,-225.1 135.57,-219.85 125.1,-218.21 126.36,-225.1"/>
</a>
</g>
</g>
<!-- Node5 -->
<g id="Node000005" class="node">
<title>Node5</title>
<g id="a_Node000005"><a xlink:href="class_indicator_interface.html#a7da1cedbcb4ab157e483afcd02f35066" target="_top" xlink:title=" ">
<polygon fill="white" stroke="#666666" points="100.38,-201.5 1.12,-201.5 1.12,-171 100.38,-171 100.38,-201.5"/>
<text xml:space="preserve" text-anchor="start" x="9.12" y="-188" font-family="Helvetica,sans-Serif" font-size="10.00">IndicatorInterface</text>
<text xml:space="preserve" text-anchor="middle" x="50.75" y="-176.75" font-family="Helvetica,sans-Serif" font-size="10.00">::setAllOutputsLow</text>
</a>
</g>
</g>
<!-- Node3&#45;&gt;Node5 -->
<g id="edge4_Node000003_Node000005" class="edge">
<title>Node3&#45;&gt;Node5</title>
<g id="a_edge4_Node000003_Node000005"><a xlink:title=" ">
<path fill="none" stroke="#63b8ff" d="M125.77,-200.42C117.37,-198.81 108.78,-197.16 100.55,-195.59"/>
<polygon fill="#63b8ff" stroke="#63b8ff" points="125.09,-203.85 135.57,-202.29 126.4,-196.97 125.09,-203.85"/>
</a>
</g>
</g>
<!-- Node8&#45;&gt;Node9 -->
<g id="edge8_Node000008_Node000009" class="edge">
<title>Node8&#45;&gt;Node9</title>
<g id="a_edge8_Node000008_Node000009"><a xlink:title=" ">
<path fill="none" stroke="#63b8ff" d="M254.42,-43.22C246.04,-45.74 237.59,-48.28 229.6,-50.68"/>
<polygon fill="#63b8ff" stroke="#63b8ff" points="255.32,-46.61 263.89,-40.38 253.31,-39.9 255.32,-46.61"/>
</a>
</g>
</g>
<!-- Node10 -->
<g id="Node000010" class="node">
<title>Node10</title>
<g id="a_Node000010"><a xlink:href="class_indicator_interface.html#a9e7d2c4cadd548e3fe2a16e41f8ae8d4" target="_top" xlink:title=" ">
<polygon fill="white" stroke="#666666" points="229.25,-30.5 137.5,-30.5 137.5,0 229.25,0 229.25,-30.5"/>
<text xml:space="preserve" text-anchor="start" x="145.5" y="-17" font-family="Helvetica,sans-Serif" font-size="10.00">IndicatorInterface</text>
<text xml:space="preserve" text-anchor="middle" x="183.38" y="-5.75" font-family="Helvetica,sans-Serif" font-size="10.00">::readPort</text>
</a>
</g>
</g>
<!-- Node8&#45;&gt;Node10 -->
<g id="edge9_Node000008_Node000010" class="edge">
<title>Node8&#45;&gt;Node10</title>
<g id="a_edge9_Node000008_Node000010"><a xlink:title=" ">
<path fill="none" stroke="#63b8ff" d="M253.5,-19.92C245.33,-19.37 237.12,-18.81 229.34,-18.29"/>
<polygon fill="#63b8ff" stroke="#63b8ff" points="253.24,-23.41 263.45,-20.59 253.71,-16.42 253.24,-23.41"/>
</a>
</g>
</g>
</g>
</svg>
