<?xml version="1.0" encoding="UTF-8" standalone="no"?>
<!DOCTYPE svg PUBLIC "-//W3C//DTD SVG 1.1//EN"
 "http://www.w3.org/Graphics/SVG/1.1/DTD/svg11.dtd">
<!-- Generated by graphviz version 13.1.0 (20250701.0955)
 -->
<!-- Title: IndicatorInterface::blinkCross Pages: 1 -->
<svg width="363pt" height="88pt"
 viewBox="0.00 0.00 363.00 88.00" xmlns="http://www.w3.org/2000/svg" xmlns:xlink="http://www.w3.org/1999/xlink">
<g id="graph0" class="graph" transform="scale(1 1) rotate(0) translate(4 83.5)">
<title>IndicatorInterface::blinkCross</title>
<!-- Node1 -->
<g id="Node000001" class="node">
<title>Node1</title>
<g id="a_Node000001"><a xlink:title="Blink between cross symbol and previous text.">
<polygon fill="#999999" stroke="#666666" points="91.75,-54.5 0,-54.5 0,-24 91.75,-24 91.75,-54.5"/>
<text xml:space="preserve" text-anchor="start" x="8" y="-41" font-family="Helvetica,sans-Serif" font-size="10.00">IndicatorInterface</text>
<text xml:space="preserve" text-anchor="middle" x="45.88" y="-29.75" font-family="Helvetica,sans-Serif" font-size="10.00">::blinkCross</text>
</a>
</g>
</g>
<!-- Node2 -->
<g id="Node000002" class="node">
<title>Node2</title>
<g id="a_Node000002"><a xlink:href="$class_indicator_interface.html#a30f46d2a644df56a3e0864dbee8cf7d1" xlink:title="Save current text before displaying special symbols.">
<polygon fill="white" stroke="#666666" points="227,-79.5 127.75,-79.5 127.75,-49 227,-49 227,-79.5"/>
<text xml:space="preserve" text-anchor="start" x="135.75" y="-66" font-family="Helvetica,sans-Serif" font-size="10.00">IndicatorInterface</text>
<text xml:space="preserve" text-anchor="middle" x="177.38" y="-54.75" font-family="Helvetica,sans-Serif" font-size="10.00">::_saveCurrentText</text>
</a>
</g>
</g>
<!-- Node1&#45;&gt;Node2 -->
<g id="edge1_Node000001_Node000002" class="edge">
<title>Node1&#45;&gt;Node2</title>
<g id="a_edge1_Node000001_Node000002"><a xlink:title=" ">
<path fill="none" stroke="#63b8ff" d="M92.17,-47.99C99.9,-49.49 108.04,-51.06 116.09,-52.61"/>
<polygon fill="#63b8ff" stroke="#63b8ff" points="115.39,-56.04 125.87,-54.5 116.72,-49.17 115.39,-56.04"/>
</a>
</g>
</g>
<!-- Node3 -->
<g id="Node000003" class="node">
<title>Node3</title>
<g id="a_Node000003"><a xlink:href="$class_indicator_interface.html#a54fa76657f9ef0c9e19b6e94d682fb65" xlink:title="Display large cross/error symbol.">
<polygon fill="white" stroke="#666666" points="223.25,-30.5 131.5,-30.5 131.5,0 223.25,0 223.25,-30.5"/>
<text xml:space="preserve" text-anchor="start" x="139.5" y="-17" font-family="Helvetica,sans-Serif" font-size="10.00">IndicatorInterface</text>
<text xml:space="preserve" text-anchor="middle" x="177.38" y="-5.75" font-family="Helvetica,sans-Serif" font-size="10.00">::displayCross</text>
</a>
</g>
</g>
<!-- Node1&#45;&gt;Node3 -->
<g id="edge2_Node000001_Node000003" class="edge">
<title>Node1&#45;&gt;Node3</title>
<g id="a_edge2_Node000001_Node000003"><a xlink:title=" ">
<path fill="none" stroke="#63b8ff" d="M92.17,-30.86C101.19,-29.18 110.77,-27.41 120.11,-25.68"/>
<polygon fill="#63b8ff" stroke="#63b8ff" points="120.64,-29.14 129.84,-23.87 119.37,-22.26 120.64,-29.14"/>
</a>
</g>
</g>
<!-- Node4 -->
<g id="Node000004" class="node">
<title>Node4</title>
<g id="a_Node000004"><a xlink:href="$class_indicator_interface.html#af64dc2a4b4256050b070991dfaf05f1a" xlink:title="Wake OLED from sleep.">
<polygon fill="white" stroke="#666666" points="354.75,-30.5 263,-30.5 263,0 354.75,0 354.75,-30.5"/>
<text xml:space="preserve" text-anchor="start" x="271" y="-17" font-family="Helvetica,sans-Serif" font-size="10.00">IndicatorInterface</text>
<text xml:space="preserve" text-anchor="middle" x="308.88" y="-5.75" font-family="Helvetica,sans-Serif" font-size="10.00">::_wakeOLED</text>
</a>
</g>
</g>
<!-- Node3&#45;&gt;Node4 -->
<g id="edge3_Node000003_Node000004" class="edge">
<title>Node3&#45;&gt;Node4</title>
<g id="a_edge3_Node000003_Node000004"><a xlink:title=" ">
<path fill="none" stroke="#63b8ff" d="M223.67,-15.25C232.69,-15.25 242.27,-15.25 251.61,-15.25"/>
<polygon fill="#63b8ff" stroke="#63b8ff" points="251.31,-18.75 261.31,-15.25 251.31,-11.75 251.31,-18.75"/>
</a>
</g>
</g>
</g>
</svg>
