<?xml version="1.0" encoding="UTF-8" standalone="no"?>
<!DOCTYPE svg PUBLIC "-//W3C//DTD SVG 1.1//EN"
 "http://www.w3.org/Graphics/SVG/1.1/DTD/svg11.dtd">
<!-- Generated by graphviz version 13.1.0 (20250701.0955)
 -->
<!-- Title: TimeManager::begin Pages: 1 -->
<svg width="454pt" height="46pt"
 viewBox="0.00 0.00 454.00 46.00" xmlns="http://www.w3.org/2000/svg" xmlns:xlink="http://www.w3.org/1999/xlink">
<g id="graph0" class="graph" transform="scale(1 1) rotate(0) translate(4 42.25)">
<title>TimeManager::begin</title>
<!-- Node1 -->
<g id="Node000001" class="node">
<title>Node1</title>
<g id="a_Node000001"><a xlink:title="Initialize time manager and RTC.">
<polygon fill="#999999" stroke="#666666" points="104.5,-38.25 0,-38.25 0,-19 104.5,-19 104.5,-38.25"/>
<text xml:space="preserve" text-anchor="middle" x="52.25" y="-24.75" font-family="Helvetica,sans-Serif" font-size="10.00">TimeManager::begin</text>
</a>
</g>
</g>
<!-- Node2 -->
<g id="Node000002" class="node">
<title>Node2</title>
<g id="a_Node000002"><a xlink:href="class_time_manager.html#a2160202e65568b360b4bdfbe7ff7ff96" target="_top" xlink:title="Initialize NTP client with current settings.">
<polygon fill="white" stroke="#666666" points="446.25,-38.25 304.25,-38.25 304.25,-19 446.25,-19 446.25,-38.25"/>
<text xml:space="preserve" text-anchor="middle" x="375.25" y="-24.75" font-family="Helvetica,sans-Serif" font-size="10.00">TimeManager::_initializeNTP</text>
</a>
</g>
</g>
<!-- Node1&#45;&gt;Node2 -->
<g id="edge1_Node000001_Node000002" class="edge">
<title>Node1&#45;&gt;Node2</title>
<g id="a_edge1_Node000001_Node000002"><a xlink:title=" ">
<path fill="none" stroke="#63b8ff" d="M104.82,-28.62C155.52,-28.62 233.67,-28.62 292.78,-28.62"/>
<polygon fill="#63b8ff" stroke="#63b8ff" points="292.44,-32.13 302.44,-28.63 292.44,-25.13 292.44,-32.13"/>
</a>
</g>
</g>
<!-- Node3 -->
<g id="Node000003" class="node">
<title>Node3</title>
<g id="a_Node000003"><a xlink:href="class_time_manager.html#a9d5fe35fd4ba97491afde4647421d010" target="_top" xlink:title="Load time configuration from persistent storage.">
<polygon fill="white" stroke="#666666" points="268.25,-19.25 140.5,-19.25 140.5,0 268.25,0 268.25,-19.25"/>
<text xml:space="preserve" text-anchor="middle" x="204.38" y="-5.75" font-family="Helvetica,sans-Serif" font-size="10.00">TimeManager::loadConfig</text>
</a>
</g>
</g>
<!-- Node1&#45;&gt;Node3 -->
<g id="edge2_Node000001_Node000003" class="edge">
<title>Node1&#45;&gt;Node3</title>
<g id="a_edge2_Node000001_Node000003"><a xlink:title=" ">
<path fill="none" stroke="#63b8ff" d="M104.91,-22.09C112.64,-21.11 120.73,-20.08 128.82,-19.06"/>
<polygon fill="#63b8ff" stroke="#63b8ff" points="129.22,-22.54 138.7,-17.81 128.34,-15.59 129.22,-22.54"/>
</a>
</g>
</g>
<!-- Node3&#45;&gt;Node2 -->
<g id="edge3_Node000003_Node000002" class="edge">
<title>Node3&#45;&gt;Node2</title>
<g id="a_edge3_Node000003_Node000002"><a xlink:title=" ">
<path fill="none" stroke="#63b8ff" d="M268.74,-16.75C276.56,-17.63 284.65,-18.54 292.69,-19.45"/>
<polygon fill="#63b8ff" stroke="#63b8ff" points="292.18,-22.91 302.51,-20.55 292.97,-15.96 292.18,-22.91"/>
</a>
</g>
</g>
</g>
</svg>
