<?xml version="1.0" encoding="UTF-8" standalone="no"?>
<!DOCTYPE svg PUBLIC "-//W3C//DTD SVG 1.1//EN"
 "http://www.w3.org/Graphics/SVG/1.1/DTD/svg11.dtd">
<!-- Generated by graphviz version 13.1.0 (20250701.0955)
 -->
<!-- Title: TemperatureController::readAllPoints Pages: 1 -->
<svg width="1471pt" height="946pt"
 viewBox="0.00 0.00 1471.00 946.00" xmlns="http://www.w3.org/2000/svg" xmlns:xlink="http://www.w3.org/1999/xlink">
<g id="graph0" class="graph" transform="scale(1 1) rotate(0) translate(4 942)">
<title>TemperatureController::readAllPoints</title>
<!-- Node1 -->
<g id="Node000001" class="node">
<title>Node1</title>
<g id="a_Node000001"><a xlink:title="Read temperature from all configured measurement points.">
<polygon fill="#999999" stroke="#666666" points="112,-351 0,-351 0,-320.5 112,-320.5 112,-351"/>
<text xml:space="preserve" text-anchor="start" x="8" y="-337.5" font-family="Helvetica,sans-Serif" font-size="10.00">TemperatureController</text>
<text xml:space="preserve" text-anchor="middle" x="56" y="-326.25" font-family="Helvetica,sans-Serif" font-size="10.00">::readAllPoints</text>
</a>
</g>
</g>
<!-- Node2 -->
<g id="Node000002" class="node">
<title>Node2</title>
<g id="a_Node000002"><a xlink:href="class_temperature_controller.html#aca5deddbf703001373424d876f87b5f2" target="_top" xlink:title="Main update function &#45; must be called in loop()">
<polygon fill="white" stroke="#666666" points="260,-351 148,-351 148,-320.5 260,-320.5 260,-351"/>
<text xml:space="preserve" text-anchor="start" x="156" y="-337.5" font-family="Helvetica,sans-Serif" font-size="10.00">TemperatureController</text>
<text xml:space="preserve" text-anchor="middle" x="204" y="-326.25" font-family="Helvetica,sans-Serif" font-size="10.00">::update</text>
</a>
</g>
</g>
<!-- Node1&#45;&gt;Node2 -->
<g id="edge1_Node000001_Node000002" class="edge">
<title>Node1&#45;&gt;Node2</title>
<g id="a_edge1_Node000001_Node000002"><a xlink:title=" ">
<path fill="none" stroke="#63b8ff" d="M112.2,-329.19C120.1,-329.02 128.3,-328.97 136.39,-329.03"/>
<polygon fill="#63b8ff" stroke="#63b8ff" points="136.16,-332.52 146.21,-329.16 136.26,-325.53 136.16,-332.52"/>
</a>
</g>
</g>
<!-- Node2&#45;&gt;Node1 -->
<g id="edge35_Node000002_Node000001" class="edge">
<title>Node2&#45;&gt;Node1</title>
<g id="a_edge35_Node000002_Node000001"><a xlink:title=" ">
<path fill="none" stroke="#63b8ff" d="M147.73,-342.32C139.82,-342.49 131.62,-342.54 123.53,-342.48"/>
<polygon fill="#63b8ff" stroke="#63b8ff" points="123.76,-338.98 113.71,-342.34 123.66,-345.98 123.76,-338.98"/>
</a>
</g>
</g>
<!-- Node3 -->
<g id="Node000003" class="node">
<title>Node3</title>
<g id="a_Node000003"><a xlink:href="class_temperature_controller.html#a1228b63e95f26c21a8d9c2a27928bc75" target="_top" xlink:title="Check for button press and handle acknowledgment.">
<polygon fill="white" stroke="#666666" points="569.88,-742 457.88,-742 457.88,-711.5 569.88,-711.5 569.88,-742"/>
<text xml:space="preserve" text-anchor="start" x="465.88" y="-728.5" font-family="Helvetica,sans-Serif" font-size="10.00">TemperatureController</text>
<text xml:space="preserve" text-anchor="middle" x="513.88" y="-717.25" font-family="Helvetica,sans-Serif" font-size="10.00">::_checkButtonPress</text>
</a>
</g>
</g>
<!-- Node2&#45;&gt;Node3 -->
<g id="edge2_Node000002_Node000003" class="edge">
<title>Node2&#45;&gt;Node3</title>
<g id="a_edge2_Node000002_Node000003"><a xlink:title=" ">
<path fill="none" stroke="#63b8ff" d="M206.54,-351.3C213.19,-414.85 241.53,-653.89 296,-701.75 336.37,-737.23 398.57,-741.08 446.02,-737.45"/>
<polygon fill="#63b8ff" stroke="#63b8ff" points="446.28,-740.94 455.92,-736.55 445.65,-733.97 446.28,-740.94"/>
</a>
</g>
</g>
<!-- Node5 -->
<g id="Node000005" class="node">
<title>Node5</title>
<g id="a_Node000005"><a xlink:href="class_temperature_controller.html#a5637103784725fb1a73f6463d7cbfde6" target="_top" xlink:title="Handle alarm display on OLED/LEDs.">
<polygon fill="white" stroke="#666666" points="408,-693 296,-693 296,-662.5 408,-662.5 408,-693"/>
<text xml:space="preserve" text-anchor="start" x="304" y="-679.5" font-family="Helvetica,sans-Serif" font-size="10.00">TemperatureController</text>
<text xml:space="preserve" text-anchor="middle" x="352" y="-668.25" font-family="Helvetica,sans-Serif" font-size="10.00">::handleAlarmDisplay</text>
</a>
</g>
</g>
<!-- Node2&#45;&gt;Node5 -->
<g id="edge4_Node000002_Node000005" class="edge">
<title>Node2&#45;&gt;Node5</title>
<g id="a_edge4_Node000002_Node000005"><a xlink:title=" ">
<path fill="none" stroke="#63b8ff" d="M211.65,-351.34C234.64,-405.2 310.92,-583.87 339.79,-651.5"/>
<polygon fill="#63b8ff" stroke="#63b8ff" points="336.57,-652.86 343.71,-660.69 343.01,-650.12 336.57,-652.86"/>
</a>
</g>
</g>
<!-- Node29 -->
<g id="Node000029" class="node">
<title>Node29</title>
<g id="a_Node000029"><a xlink:href="class_temperature_controller.html#a82e4c37ff4121eaf5e00e9c52381e840" target="_top" xlink:title="Handle alarm output signals.">
<polygon fill="white" stroke="#666666" points="408,-330 296,-330 296,-299.5 408,-299.5 408,-330"/>
<text xml:space="preserve" text-anchor="start" x="304" y="-316.5" font-family="Helvetica,sans-Serif" font-size="10.00">TemperatureController</text>
<text xml:space="preserve" text-anchor="middle" x="352" y="-305.25" font-family="Helvetica,sans-Serif" font-size="10.00">::handleAlarmOutputs</text>
</a>
</g>
</g>
<!-- Node2&#45;&gt;Node29 -->
<g id="edge32_Node000002_Node000029" class="edge">
<title>Node2&#45;&gt;Node29</title>
<g id="a_edge32_Node000002_Node000029"><a xlink:title=" ">
<path fill="none" stroke="#63b8ff" d="M260.2,-327.82C268.1,-326.68 276.3,-325.5 284.39,-324.34"/>
<polygon fill="#63b8ff" stroke="#63b8ff" points="284.83,-327.81 294.23,-322.92 283.83,-320.88 284.83,-327.81"/>
</a>
</g>
</g>
<!-- Node31 -->
<g id="Node000031" class="node">
<title>Node31</title>
<g id="a_Node000031"><a xlink:href="class_temperature_controller.html#a5ac8af90de5dfd79a9a2e4c7270a98a3" target="_top" xlink:title="Update alarm states for all measurement points.">
<polygon fill="white" stroke="#666666" points="756.88,-373 644.88,-373 644.88,-342.5 756.88,-342.5 756.88,-373"/>
<text xml:space="preserve" text-anchor="start" x="652.88" y="-359.5" font-family="Helvetica,sans-Serif" font-size="10.00">TemperatureController</text>
<text xml:space="preserve" text-anchor="middle" x="700.88" y="-348.25" font-family="Helvetica,sans-Serif" font-size="10.00">::updateAlarms</text>
</a>
</g>
</g>
<!-- Node2&#45;&gt;Node31 -->
<g id="edge36_Node000002_Node000031" class="edge">
<title>Node2&#45;&gt;Node31</title>
<g id="a_edge36_Node000002_Node000031"><a xlink:title=" ">
<path fill="none" stroke="#63b8ff" d="M260.33,-338.21C351.91,-342.29 534.68,-350.41 633.23,-354.79"/>
<polygon fill="#63b8ff" stroke="#63b8ff" points="632.87,-358.28 643.01,-355.23 633.18,-351.29 632.87,-358.28"/>
</a>
</g>
</g>
<!-- Node32 -->
<g id="Node000032" class="node">
<title>Node32</title>
<g id="a_Node000032"><a xlink:href="class_temperature_controller.html#a23dca296a268baa9b8234c8bf9cf0c3e" target="_top" xlink:title="Update temperature readings for all sensors.">
<polygon fill="white" stroke="#666666" points="408,-254 296,-254 296,-223.5 408,-223.5 408,-254"/>
<text xml:space="preserve" text-anchor="start" x="304" y="-240.5" font-family="Helvetica,sans-Serif" font-size="10.00">TemperatureController</text>
<text xml:space="preserve" text-anchor="middle" x="352" y="-229.25" font-family="Helvetica,sans-Serif" font-size="10.00">::updateAllSensors</text>
</a>
</g>
</g>
<!-- Node2&#45;&gt;Node32 -->
<g id="edge39_Node000002_Node000032" class="edge">
<title>Node2&#45;&gt;Node32</title>
<g id="a_edge39_Node000002_Node000032"><a xlink:title=" ">
<path fill="none" stroke="#63b8ff" d="M228.46,-320.17C252.72,-304.05 290.82,-278.74 318.09,-260.62"/>
<polygon fill="#63b8ff" stroke="#63b8ff" points="319.95,-263.59 326.34,-255.14 316.07,-257.76 319.95,-263.59"/>
</a>
</g>
</g>
<!-- Node38 -->
<g id="Node000038" class="node">
<title>Node38</title>
<g id="a_Node000038"><a xlink:href="class_temperature_controller.html#a62b93899a3b8b55e2e0bd933520c2892" target="_top" xlink:title="Update register map with current values from measurement points.">
<polygon fill="white" stroke="#666666" points="408,-107 296,-107 296,-76.5 408,-76.5 408,-107"/>
<text xml:space="preserve" text-anchor="start" x="304" y="-93.5" font-family="Helvetica,sans-Serif" font-size="10.00">TemperatureController</text>
<text xml:space="preserve" text-anchor="middle" x="352" y="-82.25" font-family="Helvetica,sans-Serif" font-size="10.00">::updateRegisterMap</text>
</a>
</g>
</g>
<!-- Node2&#45;&gt;Node38 -->
<g id="edge45_Node000002_Node000038" class="edge">
<title>Node2&#45;&gt;Node38</title>
<g id="a_edge45_Node000002_Node000038"><a xlink:title=" ">
<path fill="none" stroke="#63b8ff" d="M214.36,-320.12C238.97,-278.98 305.74,-167.4 335.88,-117.03"/>
<polygon fill="#63b8ff" stroke="#63b8ff" points="338.81,-118.94 340.95,-108.56 332.81,-115.34 338.81,-118.94"/>
</a>
</g>
</g>
<!-- Node4 -->
<g id="Node000004" class="node">
<title>Node4</title>
<g id="a_Node000004"><a xlink:href="class_temperature_controller.html#a3955f205bc33dda762cbe5c572cd4f21" target="_top" xlink:title="Switch to a new display section.">
<polygon fill="white" stroke="#666666" points="958.12,-938 846.12,-938 846.12,-907.5 958.12,-907.5 958.12,-938"/>
<text xml:space="preserve" text-anchor="start" x="854.12" y="-924.5" font-family="Helvetica,sans-Serif" font-size="10.00">TemperatureController</text>
<text xml:space="preserve" text-anchor="middle" x="902.12" y="-913.25" font-family="Helvetica,sans-Serif" font-size="10.00">::_switchToSection</text>
</a>
</g>
</g>
<!-- Node3&#45;&gt;Node4 -->
<g id="edge3_Node000003_Node000004" class="edge">
<title>Node3&#45;&gt;Node4</title>
<g id="a_edge3_Node000003_Node000004"><a xlink:title=" ">
<path fill="none" stroke="#63b8ff" d="M521.83,-742.22C535.84,-771.44 570.38,-834.66 619.75,-865.75 685.02,-906.87 774.22,-919.11 834.55,-922.35"/>
<polygon fill="#63b8ff" stroke="#63b8ff" points="834.18,-925.84 844.33,-922.8 834.5,-918.85 834.18,-925.84"/>
</a>
</g>
</g>
<!-- Node5&#45;&gt;Node3 -->
<g id="edge5_Node000005_Node000003" class="edge">
<title>Node5&#45;&gt;Node3</title>
<g id="a_edge5_Node000005_Node000003"><a xlink:title=" ">
<path fill="none" stroke="#63b8ff" d="M404.03,-693.39C418.95,-697.97 435.43,-703.02 450.95,-707.78"/>
<polygon fill="#63b8ff" stroke="#63b8ff" points="449.48,-710.98 460.06,-710.57 451.53,-704.29 449.48,-710.98"/>
</a>
</g>
</g>
<!-- Node6 -->
<g id="Node000006" class="node">
<title>Node6</title>
<g id="a_Node000006"><a xlink:href="class_temperature_controller.html#a6b2f92b5c2af867240200cff2e61e806" target="_top" xlink:title="Handle display section switching.">
<polygon fill="white" stroke="#666666" points="577.38,-693 450.38,-693 450.38,-662.5 577.38,-662.5 577.38,-693"/>
<text xml:space="preserve" text-anchor="start" x="458.38" y="-679.5" font-family="Helvetica,sans-Serif" font-size="10.00">TemperatureController</text>
<text xml:space="preserve" text-anchor="middle" x="513.88" y="-668.25" font-family="Helvetica,sans-Serif" font-size="10.00">::_handleDisplaySections</text>
</a>
</g>
</g>
<!-- Node5&#45;&gt;Node6 -->
<g id="edge6_Node000005_Node000006" class="edge">
<title>Node5&#45;&gt;Node6</title>
<g id="a_edge6_Node000005_Node000006"><a xlink:title=" ">
<path fill="none" stroke="#63b8ff" d="M408.47,-677.75C418.23,-677.75 428.53,-677.75 438.71,-677.75"/>
<polygon fill="#63b8ff" stroke="#63b8ff" points="438.6,-681.25 448.6,-677.75 438.6,-674.25 438.6,-681.25"/>
</a>
</g>
</g>
<!-- Node6&#45;&gt;Node4 -->
<g id="edge27_Node000006_Node000004" class="edge">
<title>Node6&#45;&gt;Node4</title>
<g id="a_edge27_Node000006_Node000004"><a xlink:title=" ">
<path fill="none" stroke="#63b8ff" d="M571.52,-693.46C575.98,-696.09 580.14,-699.17 583.75,-702.75 616.38,-735.15 587.74,-766.74 619.75,-799.75 673.94,-855.65 715.9,-824.63 782,-865.75 800.18,-877.06 799.31,-887.32 818,-897.75 823.34,-900.74 829.09,-903.41 834.96,-905.78"/>
<polygon fill="#63b8ff" stroke="#63b8ff" points="833.63,-909.02 844.22,-909.22 836.06,-902.46 833.63,-909.02"/>
</a>
</g>
</g>
<!-- Node7 -->
<g id="Node000007" class="node">
<title>Node7</title>
<g id="a_Node000007"><a xlink:href="class_temperature_controller.html#a1d2745c323f7094beac8f406825499b7" target="_top" xlink:title="Handle alarm display rotation timing.">
<polygon fill="white" stroke="#666666" points="776.38,-791 625.38,-791 625.38,-760.5 776.38,-760.5 776.38,-791"/>
<text xml:space="preserve" text-anchor="start" x="633.38" y="-777.5" font-family="Helvetica,sans-Serif" font-size="10.00">TemperatureController</text>
<text xml:space="preserve" text-anchor="middle" x="700.88" y="-766.25" font-family="Helvetica,sans-Serif" font-size="10.00">::_handleAlarmDisplayRotation</text>
</a>
</g>
</g>
<!-- Node6&#45;&gt;Node7 -->
<g id="edge7_Node000006_Node000007" class="edge">
<title>Node6&#45;&gt;Node7</title>
<g id="a_edge7_Node000006_Node000007"><a xlink:title=" ">
<path fill="none" stroke="#63b8ff" d="M562.11,-693.38C569.47,-696.25 576.89,-699.4 583.75,-702.75 613.89,-717.49 646.02,-738.11 668.83,-753.68"/>
<polygon fill="#63b8ff" stroke="#63b8ff" points="666.54,-756.35 676.75,-759.15 670.51,-750.59 666.54,-756.35"/>
</a>
</g>
</g>
<!-- Node11 -->
<g id="Node000011" class="node">
<title>Node11</title>
<g id="a_Node000011"><a xlink:href="class_temperature_controller.html#a4d36576f7d6ab8f5222a082878314912" target="_top" xlink:title="Update normal temperature display.">
<polygon fill="white" stroke="#666666" points="962.62,-742 841.62,-742 841.62,-711.5 962.62,-711.5 962.62,-742"/>
<text xml:space="preserve" text-anchor="start" x="849.62" y="-728.5" font-family="Helvetica,sans-Serif" font-size="10.00">TemperatureController</text>
<text xml:space="preserve" text-anchor="middle" x="902.12" y="-717.25" font-family="Helvetica,sans-Serif" font-size="10.00">::_updateNormalDisplay</text>
</a>
</g>
</g>
<!-- Node6&#45;&gt;Node11 -->
<g id="edge31_Node000006_Node000011" class="edge">
<title>Node6&#45;&gt;Node11</title>
<g id="a_edge31_Node000006_Node000011"><a xlink:title=" ">
<path fill="none" stroke="#63b8ff" d="M577.79,-685.74C646.99,-694.51 757.92,-708.59 830.16,-717.75"/>
<polygon fill="#63b8ff" stroke="#63b8ff" points="829.55,-721.2 839.91,-718.99 830.43,-714.26 829.55,-721.2"/>
</a>
</g>
</g>
<!-- Node12 -->
<g id="Node000012" class="node">
<title>Node12</title>
<g id="a_Node000012"><a xlink:href="class_temperature_controller.html#a45f7994a3a052a527981dbfdad27606b" target="_top" xlink:title="Handle system status mode display.">
<polygon fill="white" stroke="#666666" points="771.88,-644 629.88,-644 629.88,-613.5 771.88,-613.5 771.88,-644"/>
<text xml:space="preserve" text-anchor="start" x="637.88" y="-630.5" font-family="Helvetica,sans-Serif" font-size="10.00">TemperatureController</text>
<text xml:space="preserve" text-anchor="middle" x="700.88" y="-619.25" font-family="Helvetica,sans-Serif" font-size="10.00">::_handleSystemStatusMode</text>
</a>
</g>
</g>
<!-- Node6&#45;&gt;Node12 -->
<g id="edge12_Node000006_Node000012" class="edge">
<title>Node6&#45;&gt;Node12</title>
<g id="a_edge12_Node000006_Node000012"><a xlink:title=" ">
<path fill="none" stroke="#63b8ff" d="M574.17,-662.05C591.85,-657.37 611.39,-652.19 629.69,-647.34"/>
<polygon fill="#63b8ff" stroke="#63b8ff" points="630.36,-650.79 639.13,-644.84 628.57,-644.02 630.36,-650.79"/>
</a>
</g>
</g>
<!-- Node26 -->
<g id="Node000026" class="node">
<title>Node26</title>
<g id="a_Node000026"><a xlink:href="class_temperature_controller.html#a477597992aa9362076843f37b648741a" target="_top" xlink:title="Update alarm display queues.">
<polygon fill="white" stroke="#666666" points="758.75,-454 643,-454 643,-423.5 758.75,-423.5 758.75,-454"/>
<text xml:space="preserve" text-anchor="start" x="651" y="-440.5" font-family="Helvetica,sans-Serif" font-size="10.00">TemperatureController</text>
<text xml:space="preserve" text-anchor="middle" x="700.88" y="-429.25" font-family="Helvetica,sans-Serif" font-size="10.00">::_updateAlarmQueues</text>
</a>
</g>
</g>
<!-- Node6&#45;&gt;Node26 -->
<g id="edge28_Node000006_Node000026" class="edge">
<title>Node6&#45;&gt;Node26</title>
<g id="a_edge28_Node000006_Node000026"><a xlink:title=" ">
<path fill="none" stroke="#63b8ff" d="M527.01,-662.07C558.44,-621.47 642.65,-512.68 680.72,-463.5"/>
<polygon fill="#63b8ff" stroke="#63b8ff" points="683.41,-465.74 686.77,-455.69 677.88,-461.46 683.41,-465.74"/>
</a>
</g>
</g>
<!-- Node8 -->
<g id="Node000008" class="node">
<title>Node8</title>
<g id="a_Node000008"><a xlink:href="class_temperature_controller.html#ac44de0834e13cec755e247ce1df21f09" target="_top" xlink:title="Display next acknowledged alarm.">
<polygon fill="white" stroke="#666666" points="986.25,-889 818,-889 818,-858.5 986.25,-858.5 986.25,-889"/>
<text xml:space="preserve" text-anchor="start" x="826" y="-875.5" font-family="Helvetica,sans-Serif" font-size="10.00">TemperatureController</text>
<text xml:space="preserve" text-anchor="middle" x="902.12" y="-864.25" font-family="Helvetica,sans-Serif" font-size="10.00">::_displayNextAcknowledgedAlarm</text>
</a>
</g>
</g>
<!-- Node7&#45;&gt;Node8 -->
<g id="edge8_Node000007_Node000008" class="edge">
<title>Node7&#45;&gt;Node8</title>
<g id="a_edge8_Node000007_Node000008"><a xlink:title=" ">
<path fill="none" stroke="#63b8ff" d="M722.73,-791.3C745.25,-807.49 782.66,-832.69 818,-848.75 822.24,-850.68 826.68,-852.51 831.19,-854.24"/>
<polygon fill="#63b8ff" stroke="#63b8ff" points="829.8,-857.45 840.39,-857.55 832.17,-850.87 829.8,-857.45"/>
</a>
</g>
</g>
<!-- Node9 -->
<g id="Node000009" class="node">
<title>Node9</title>
<g id="a_Node000009"><a xlink:href="class_temperature_controller.html#a7ca5124357f98bcd52316cf017341b09" target="_top" xlink:title="Display next active alarm in rotation.">
<polygon fill="white" stroke="#666666" points="968.25,-840 836,-840 836,-809.5 968.25,-809.5 968.25,-840"/>
<text xml:space="preserve" text-anchor="start" x="844" y="-826.5" font-family="Helvetica,sans-Serif" font-size="10.00">TemperatureController</text>
<text xml:space="preserve" text-anchor="middle" x="902.12" y="-815.25" font-family="Helvetica,sans-Serif" font-size="10.00">::_displayNextActiveAlarm</text>
</a>
</g>
</g>
<!-- Node7&#45;&gt;Node9 -->
<g id="edge9_Node000007_Node000009" class="edge">
<title>Node7&#45;&gt;Node9</title>
<g id="a_edge9_Node000007_Node000009"><a xlink:title=" ">
<path fill="none" stroke="#63b8ff" d="M765.74,-791.46C785.05,-796.21 806.42,-801.46 826.36,-806.37"/>
<polygon fill="#63b8ff" stroke="#63b8ff" points="825.26,-809.7 835.81,-808.69 826.93,-802.91 825.26,-809.7"/>
</a>
</g>
</g>
<!-- Node10 -->
<g id="Node000010" class="node">
<title>Node10</title>
<g id="a_Node000010"><a xlink:href="class_temperature_controller.html#a28e81945f5235e161e6c532b428d36d2" target="_top" xlink:title="Show OK status and turn off OLED after delay.">
<polygon fill="white" stroke="#666666" points="973.12,-791 831.12,-791 831.12,-760.5 973.12,-760.5 973.12,-791"/>
<text xml:space="preserve" text-anchor="start" x="839.12" y="-777.5" font-family="Helvetica,sans-Serif" font-size="10.00">TemperatureController</text>
<text xml:space="preserve" text-anchor="middle" x="902.12" y="-766.25" font-family="Helvetica,sans-Serif" font-size="10.00">::_showOKAndTurnOffOLED</text>
</a>
</g>
</g>
<!-- Node7&#45;&gt;Node10 -->
<g id="edge10_Node000007_Node000010" class="edge">
<title>Node7&#45;&gt;Node10</title>
<g id="a_edge10_Node000007_Node000010"><a xlink:title=" ">
<path fill="none" stroke="#63b8ff" d="M776.64,-775.75C790.66,-775.75 805.39,-775.75 819.62,-775.75"/>
<polygon fill="#63b8ff" stroke="#63b8ff" points="819.38,-779.25 829.38,-775.75 819.38,-772.25 819.38,-779.25"/>
</a>
</g>
</g>
<!-- Node7&#45;&gt;Node11 -->
<g id="edge11_Node000007_Node000011" class="edge">
<title>Node7&#45;&gt;Node11</title>
<g id="a_edge11_Node000007_Node000011"><a xlink:title=" ">
<path fill="none" stroke="#63b8ff" d="M765.74,-760.05C786.29,-754.99 809.19,-749.36 830.21,-744.19"/>
<polygon fill="#63b8ff" stroke="#63b8ff" points="831,-747.6 839.87,-741.82 829.33,-740.81 831,-747.6"/>
</a>
</g>
</g>
<!-- Node12&#45;&gt;Node4 -->
<g id="edge26_Node000012_Node000004" class="edge">
<title>Node12&#45;&gt;Node4</title>
<g id="a_edge26_Node000012_Node000004"><a xlink:title=" ">
<path fill="none" stroke="#63b8ff" d="M714.63,-644.46C732.25,-666.93 763.94,-710.14 782,-751.75 808.61,-813.06 771.95,-849.32 818,-897.75 822.97,-902.99 829,-907.14 835.5,-910.42"/>
<polygon fill="#63b8ff" stroke="#63b8ff" points="834.08,-913.62 844.65,-914.32 836.82,-907.18 834.08,-913.62"/>
</a>
</g>
</g>
<!-- Node13 -->
<g id="Node000013" class="node">
<title>Node13</title>
<g id="a_Node000013"><a xlink:href="class_temperature_controller.html#a3948ceaf046b5f06afcc9083433f532c" target="_top" xlink:title="Display alarm summary by priority.">
<polygon fill="white" stroke="#666666" points="986.25,-644 818,-644 818,-613.5 986.25,-613.5 986.25,-644"/>
<text xml:space="preserve" text-anchor="start" x="826" y="-630.5" font-family="Helvetica,sans-Serif" font-size="10.00">TemperatureController</text>
<text xml:space="preserve" text-anchor="middle" x="902.12" y="-619.25" font-family="Helvetica,sans-Serif" font-size="10.00">::_displayAlarmSummaryByPriority</text>
</a>
</g>
</g>
<!-- Node12&#45;&gt;Node13 -->
<g id="edge13_Node000012_Node000013" class="edge">
<title>Node12&#45;&gt;Node13</title>
<g id="a_edge13_Node000012_Node000013"><a xlink:title=" ">
<path fill="none" stroke="#63b8ff" d="M772.12,-628.75C783.13,-628.75 794.66,-628.75 806.12,-628.75"/>
<polygon fill="#63b8ff" stroke="#63b8ff" points="806.01,-632.25 816.01,-628.75 806.01,-625.25 806.01,-632.25"/>
</a>
</g>
</g>
<!-- Node15 -->
<g id="Node000015" class="node">
<title>Node15</title>
<g id="a_Node000015"><a xlink:href="class_temperature_controller.html#ab5e076b045677678390603e9a805e4db" target="_top" xlink:title="Display alarm summary by type.">
<polygon fill="white" stroke="#666666" points="981.38,-595 822.88,-595 822.88,-564.5 981.38,-564.5 981.38,-595"/>
<text xml:space="preserve" text-anchor="start" x="830.88" y="-581.5" font-family="Helvetica,sans-Serif" font-size="10.00">TemperatureController</text>
<text xml:space="preserve" text-anchor="middle" x="902.12" y="-570.25" font-family="Helvetica,sans-Serif" font-size="10.00">::_displayAlarmSummaryByType</text>
</a>
</g>
</g>
<!-- Node12&#45;&gt;Node15 -->
<g id="edge15_Node000012_Node000015" class="edge">
<title>Node12&#45;&gt;Node15</title>
<g id="a_edge15_Node000012_Node000015"><a xlink:title=" ">
<path fill="none" stroke="#63b8ff" d="M765.74,-613.05C785.05,-608.3 806.42,-603.05 826.36,-598.14"/>
<polygon fill="#63b8ff" stroke="#63b8ff" points="826.93,-601.6 835.81,-595.82 825.26,-594.81 826.93,-601.6"/>
</a>
</g>
</g>
<!-- Node16 -->
<g id="Node000016" class="node">
<title>Node16</title>
<g id="a_Node000016"><a xlink:href="class_temperature_controller.html#a5fc773a967cea261f21bbe86d90d2586" target="_top" xlink:title="Display Modbus status page.">
<polygon fill="white" stroke="#666666" points="962.62,-546 841.62,-546 841.62,-515.5 962.62,-515.5 962.62,-546"/>
<text xml:space="preserve" text-anchor="start" x="849.62" y="-532.5" font-family="Helvetica,sans-Serif" font-size="10.00">TemperatureController</text>
<text xml:space="preserve" text-anchor="middle" x="902.12" y="-521.25" font-family="Helvetica,sans-Serif" font-size="10.00">::_displayModbusStatus</text>
</a>
</g>
</g>
<!-- Node12&#45;&gt;Node16 -->
<g id="edge16_Node000012_Node000016" class="edge">
<title>Node12&#45;&gt;Node16</title>
<g id="a_edge16_Node000012_Node000016"><a xlink:title=" ">
<path fill="none" stroke="#63b8ff" d="M722.73,-613.21C745.25,-597.02 782.66,-571.82 818,-555.75 822.24,-553.83 826.68,-552 831.19,-550.27"/>
<polygon fill="#63b8ff" stroke="#63b8ff" points="832.17,-553.64 840.39,-546.96 829.8,-547.05 832.17,-553.64"/>
</a>
</g>
</g>
<!-- Node17 -->
<g id="Node000017" class="node">
<title>Node17</title>
<g id="a_Node000017"><a xlink:href="class_temperature_controller.html#a2436c7043d97ca75c717db2b87326d90" target="_top" xlink:title="Display network info page.">
<polygon fill="white" stroke="#666666" points="958.12,-497 846.12,-497 846.12,-466.5 958.12,-466.5 958.12,-497"/>
<text xml:space="preserve" text-anchor="start" x="854.12" y="-483.5" font-family="Helvetica,sans-Serif" font-size="10.00">TemperatureController</text>
<text xml:space="preserve" text-anchor="middle" x="902.12" y="-472.25" font-family="Helvetica,sans-Serif" font-size="10.00">::_displayNetworkInfo</text>
</a>
</g>
</g>
<!-- Node12&#45;&gt;Node17 -->
<g id="edge17_Node000012_Node000017" class="edge">
<title>Node12&#45;&gt;Node17</title>
<g id="a_edge17_Node000012_Node000017"><a xlink:title=" ">
<path fill="none" stroke="#63b8ff" d="M712.48,-613.18C730.92,-587.29 771.41,-535.39 818,-506.75 823.43,-503.42 829.33,-500.5 835.4,-497.96"/>
<polygon fill="#63b8ff" stroke="#63b8ff" points="836.22,-501.39 844.32,-494.56 833.72,-494.85 836.22,-501.39"/>
</a>
</g>
</g>
<!-- Node18 -->
<g id="Node000018" class="node">
<title>Node18</title>
<g id="a_Node000018"><a xlink:href="class_temperature_controller.html#a45d13ed72fd36b46820af631e4db958b" target="_top" xlink:title="Display system stats page.">
<polygon fill="white" stroke="#666666" points="959.62,-693 844.62,-693 844.62,-662.5 959.62,-662.5 959.62,-693"/>
<text xml:space="preserve" text-anchor="start" x="852.62" y="-679.5" font-family="Helvetica,sans-Serif" font-size="10.00">TemperatureController</text>
<text xml:space="preserve" text-anchor="middle" x="902.12" y="-668.25" font-family="Helvetica,sans-Serif" font-size="10.00">::_displaySystemStats</text>
</a>
</g>
</g>
<!-- Node12&#45;&gt;Node18 -->
<g id="edge18_Node000012_Node000018" class="edge">
<title>Node12&#45;&gt;Node18</title>
<g id="a_edge18_Node000012_Node000018"><a xlink:title=" ">
<path fill="none" stroke="#63b8ff" d="M765.74,-644.46C787.26,-649.75 811.35,-655.68 833.17,-661.04"/>
<polygon fill="#63b8ff" stroke="#63b8ff" points="832.33,-664.44 842.88,-663.43 834,-657.64 832.33,-664.44"/>
</a>
</g>
</g>
<!-- Node14 -->
<g id="Node000014" class="node">
<title>Node14</title>
<g id="a_Node000014"><a xlink:href="class_temperature_controller.html#a3022c7a72adb45a7800d5189eecdac4e" target="_top" xlink:title="Get total number of configured alarms.">
<polygon fill="white" stroke="#666666" points="1134.25,-330 1022.25,-330 1022.25,-299.5 1134.25,-299.5 1134.25,-330"/>
<text xml:space="preserve" text-anchor="start" x="1030.25" y="-316.5" font-family="Helvetica,sans-Serif" font-size="10.00">TemperatureController</text>
<text xml:space="preserve" text-anchor="middle" x="1078.25" y="-305.25" font-family="Helvetica,sans-Serif" font-size="10.00">::getAlarmCount</text>
</a>
</g>
</g>
<!-- Node13&#45;&gt;Node14 -->
<g id="edge14_Node000013_Node000014" class="edge">
<title>Node13&#45;&gt;Node14</title>
<g id="a_edge14_Node000013_Node000014"><a xlink:title=" ">
<path fill="none" stroke="#63b8ff" d="M974.17,-613.24C978.58,-610.56 982.67,-607.42 986.25,-603.75 1028.69,-560.2 1004.19,-529.82 1022.25,-471.75 1036.7,-425.29 1055.95,-371.99 1067.43,-340.97"/>
<polygon fill="#63b8ff" stroke="#63b8ff" points="1070.69,-342.24 1070.89,-331.65 1064.13,-339.8 1070.69,-342.24"/>
</a>
</g>
</g>
<!-- Node19 -->
<g id="Node000019" class="node">
<title>Node19</title>
<g id="a_Node000019"><a xlink:href="class_temperature_controller.html#a9b4fe09d4c87dcf86e78b890012e1e72" target="_top" xlink:title="Get sensor bound to measurement point.">
<polygon fill="white" stroke="#666666" points="1134.25,-511 1022.25,-511 1022.25,-480.5 1134.25,-480.5 1134.25,-511"/>
<text xml:space="preserve" text-anchor="start" x="1030.25" y="-497.5" font-family="Helvetica,sans-Serif" font-size="10.00">TemperatureController</text>
<text xml:space="preserve" text-anchor="middle" x="1078.25" y="-486.25" font-family="Helvetica,sans-Serif" font-size="10.00">::getBoundSensor</text>
</a>
</g>
</g>
<!-- Node18&#45;&gt;Node19 -->
<g id="edge19_Node000018_Node000019" class="edge">
<title>Node18&#45;&gt;Node19</title>
<g id="a_edge19_Node000018_Node000019"><a xlink:title=" ">
<path fill="none" stroke="#63b8ff" d="M960.06,-666.91C969.42,-663.43 978.56,-658.83 986.25,-652.75 1029.78,-618.36 1056.48,-556.99 1068.91,-522.04"/>
<polygon fill="#63b8ff" stroke="#63b8ff" points="1072.18,-523.3 1072.09,-512.71 1065.55,-521.04 1072.18,-523.3"/>
</a>
</g>
</g>
<!-- Node24 -->
<g id="Node000024" class="node">
<title>Node24</title>
<g id="a_Node000024"><a xlink:href="class_temperature_controller.html#a9ac5f76def1895a8c8f8f92ce8cd2e5c" target="_top" xlink:title="Get count of discovered DS18B20 sensors.">
<polygon fill="white" stroke="#666666" points="1134.25,-717 1022.25,-717 1022.25,-686.5 1134.25,-686.5 1134.25,-717"/>
<text xml:space="preserve" text-anchor="start" x="1030.25" y="-703.5" font-family="Helvetica,sans-Serif" font-size="10.00">TemperatureController</text>
<text xml:space="preserve" text-anchor="middle" x="1078.25" y="-692.25" font-family="Helvetica,sans-Serif" font-size="10.00">::getDS18B20Count</text>
</a>
</g>
</g>
<!-- Node18&#45;&gt;Node24 -->
<g id="edge24_Node000018_Node000024" class="edge">
<title>Node18&#45;&gt;Node24</title>
<g id="a_edge24_Node000018_Node000024"><a xlink:title=" ">
<path fill="none" stroke="#63b8ff" d="M959.66,-685.55C976.03,-687.8 994.05,-690.29 1010.97,-692.62"/>
<polygon fill="#63b8ff" stroke="#63b8ff" points="1010.01,-696.02 1020.39,-693.92 1010.96,-689.09 1010.01,-696.02"/>
</a>
</g>
</g>
<!-- Node25 -->
<g id="Node000025" class="node">
<title>Node25</title>
<g id="a_Node000025"><a xlink:href="class_temperature_controller.html#a6ab2ecc10c283d75d948ce6f1ad723a6" target="_top" xlink:title="Get count of discovered PT1000 sensors.">
<polygon fill="white" stroke="#666666" points="1134.25,-668 1022.25,-668 1022.25,-637.5 1134.25,-637.5 1134.25,-668"/>
<text xml:space="preserve" text-anchor="start" x="1030.25" y="-654.5" font-family="Helvetica,sans-Serif" font-size="10.00">TemperatureController</text>
<text xml:space="preserve" text-anchor="middle" x="1078.25" y="-643.25" font-family="Helvetica,sans-Serif" font-size="10.00">::getPT1000Count</text>
</a>
</g>
</g>
<!-- Node18&#45;&gt;Node25 -->
<g id="edge25_Node000018_Node000025" class="edge">
<title>Node18&#45;&gt;Node25</title>
<g id="a_edge25_Node000018_Node000025"><a xlink:title=" ">
<path fill="none" stroke="#63b8ff" d="M959.66,-669.64C976.03,-667.29 994.05,-664.7 1010.97,-662.27"/>
<polygon fill="#63b8ff" stroke="#63b8ff" points="1010.99,-665.8 1020.39,-660.92 1010,-658.87 1010.99,-665.8"/>
</a>
</g>
</g>
<!-- Node20 -->
<g id="Node000020" class="node">
<title>Node20</title>
<g id="a_Node000020"><a xlink:href="class_measurement_point.html#a81c7ae93a9314344967d0f31c6fefe2f" target="_top" xlink:title="Get pointer to bound sensor.">
<polygon fill="white" stroke="#666666" points="1315.25,-535 1170.25,-535 1170.25,-504.5 1315.25,-504.5 1315.25,-535"/>
<text xml:space="preserve" text-anchor="start" x="1178.25" y="-521.5" font-family="Helvetica,sans-Serif" font-size="10.00">MeasurementPoint::getBound</text>
<text xml:space="preserve" text-anchor="middle" x="1242.75" y="-510.25" font-family="Helvetica,sans-Serif" font-size="10.00">Sensor</text>
</a>
</g>
</g>
<!-- Node19&#45;&gt;Node20 -->
<g id="edge20_Node000019_Node000020" class="edge">
<title>Node19&#45;&gt;Node20</title>
<g id="a_edge20_Node000019_Node000020"><a xlink:title=" ">
<path fill="none" stroke="#63b8ff" d="M1134.72,-503.95C1142.41,-505.08 1150.44,-506.27 1158.49,-507.46"/>
<polygon fill="#63b8ff" stroke="#63b8ff" points="1157.96,-510.92 1168.37,-508.92 1158.99,-503.99 1157.96,-510.92"/>
</a>
</g>
</g>
<!-- Node21 -->
<g id="Node000021" class="node">
<title>Node21</title>
<g id="a_Node000021"><a xlink:href="class_temperature_controller.html#a494f057c234b4ff7526bde271aec9267" target="_top" xlink:title="Get measurement point by address.">
<polygon fill="white" stroke="#666666" points="1301.38,-486 1184.12,-486 1184.12,-455.5 1301.38,-455.5 1301.38,-486"/>
<text xml:space="preserve" text-anchor="start" x="1192.12" y="-472.5" font-family="Helvetica,sans-Serif" font-size="10.00">TemperatureController</text>
<text xml:space="preserve" text-anchor="middle" x="1242.75" y="-461.25" font-family="Helvetica,sans-Serif" font-size="10.00">::getMeasurementPoint</text>
</a>
</g>
</g>
<!-- Node19&#45;&gt;Node21 -->
<g id="edge21_Node000019_Node000021" class="edge">
<title>Node19&#45;&gt;Node21</title>
<g id="a_edge21_Node000019_Node000021"><a xlink:title=" ">
<path fill="none" stroke="#63b8ff" d="M1134.72,-487.22C1146.95,-485.34 1160.05,-483.32 1172.74,-481.37"/>
<polygon fill="#63b8ff" stroke="#63b8ff" points="1172.91,-484.89 1182.27,-479.91 1171.85,-477.97 1172.91,-484.89"/>
</a>
</g>
</g>
<!-- Node22 -->
<g id="Node000022" class="node">
<title>Node22</title>
<g id="a_Node000022"><a xlink:href="class_temperature_controller.html#ad322a5bab8d5788a586206004248f673" target="_top" xlink:title="Check if address is for DS18B20 sensor.">
<polygon fill="white" stroke="#666666" points="1463.25,-511 1351.25,-511 1351.25,-480.5 1463.25,-480.5 1463.25,-511"/>
<text xml:space="preserve" text-anchor="start" x="1359.25" y="-497.5" font-family="Helvetica,sans-Serif" font-size="10.00">TemperatureController</text>
<text xml:space="preserve" text-anchor="middle" x="1407.25" y="-486.25" font-family="Helvetica,sans-Serif" font-size="10.00">::isDS18B20Address</text>
</a>
</g>
</g>
<!-- Node21&#45;&gt;Node22 -->
<g id="edge22_Node000021_Node000022" class="edge">
<title>Node21&#45;&gt;Node22</title>
<g id="a_edge22_Node000021_Node000022"><a xlink:title=" ">
<path fill="none" stroke="#63b8ff" d="M1301.5,-479.64C1313.92,-481.55 1327.14,-483.58 1339.85,-485.54"/>
<polygon fill="#63b8ff" stroke="#63b8ff" points="1338.95,-488.94 1349.37,-487 1340.02,-482.02 1338.95,-488.94"/>
</a>
</g>
</g>
<!-- Node23 -->
<g id="Node000023" class="node">
<title>Node23</title>
<g id="a_Node000023"><a xlink:href="class_temperature_controller.html#a13125ddcf29cb56d27403818543618af" target="_top" xlink:title="Check if address is for PT1000 sensor.">
<polygon fill="white" stroke="#666666" points="1463.25,-462 1351.25,-462 1351.25,-431.5 1463.25,-431.5 1463.25,-462"/>
<text xml:space="preserve" text-anchor="start" x="1359.25" y="-448.5" font-family="Helvetica,sans-Serif" font-size="10.00">TemperatureController</text>
<text xml:space="preserve" text-anchor="middle" x="1407.25" y="-437.25" font-family="Helvetica,sans-Serif" font-size="10.00">::isPT1000Address</text>
</a>
</g>
</g>
<!-- Node21&#45;&gt;Node23 -->
<g id="edge23_Node000021_Node000023" class="edge">
<title>Node21&#45;&gt;Node23</title>
<g id="a_edge23_Node000021_Node000023"><a xlink:title=" ">
<path fill="none" stroke="#63b8ff" d="M1301.5,-462.23C1313.92,-460.39 1327.14,-458.44 1339.85,-456.56"/>
<polygon fill="#63b8ff" stroke="#63b8ff" points="1339.99,-460.08 1349.37,-455.16 1338.96,-453.15 1339.99,-460.08"/>
</a>
</g>
</g>
<!-- Node27 -->
<g id="Node000027" class="node">
<title>Node27</title>
<g id="a_Node000027"><a xlink:href="class_temperature_controller.html#af58201023d15de003d4f1b9a9771a9e3" target="_top" xlink:title="Get list of active alarms.">
<polygon fill="white" stroke="#666666" points="958.12,-411 846.12,-411 846.12,-380.5 958.12,-380.5 958.12,-411"/>
<text xml:space="preserve" text-anchor="start" x="854.12" y="-397.5" font-family="Helvetica,sans-Serif" font-size="10.00">TemperatureController</text>
<text xml:space="preserve" text-anchor="middle" x="902.12" y="-386.25" font-family="Helvetica,sans-Serif" font-size="10.00">::getActiveAlarms</text>
</a>
</g>
</g>
<!-- Node26&#45;&gt;Node27 -->
<g id="edge29_Node000026_Node000027" class="edge">
<title>Node26&#45;&gt;Node27</title>
<g id="a_edge29_Node000026_Node000027"><a xlink:title=" ">
<path fill="none" stroke="#63b8ff" d="M759.24,-426.38C782.87,-421.28 810.39,-415.34 834.87,-410.05"/>
<polygon fill="#63b8ff" stroke="#63b8ff" points="835.36,-413.53 844.4,-408 833.89,-406.68 835.36,-413.53"/>
</a>
</g>
</g>
<!-- Node28 -->
<g id="Node000028" class="node">
<title>Node28</title>
<g id="a_Node000028"><a xlink:href="class_alarm.html#a7a4a3290a6a659542f82fe08a96736a8" target="_top" xlink:title="Get the alarm creation timestamp.">
<polygon fill="white" stroke="#666666" points="957,-448.38 847.25,-448.38 847.25,-429.13 957,-429.13 957,-448.38"/>
<text xml:space="preserve" text-anchor="middle" x="902.12" y="-434.88" font-family="Helvetica,sans-Serif" font-size="10.00">Alarm::getTimestamp</text>
</a>
</g>
</g>
<!-- Node26&#45;&gt;Node28 -->
<g id="edge30_Node000026_Node000028" class="edge">
<title>Node26&#45;&gt;Node28</title>
<g id="a_edge30_Node000026_Node000028"><a xlink:title=" ">
<path fill="none" stroke="#63b8ff" d="M759.24,-438.75C783.06,-438.75 810.83,-438.75 835.46,-438.75"/>
<polygon fill="#63b8ff" stroke="#63b8ff" points="835.39,-442.25 845.39,-438.75 835.39,-435.25 835.39,-442.25"/>
</a>
</g>
</g>
<!-- Node29&#45;&gt;Node14 -->
<g id="edge33_Node000029_Node000014" class="edge">
<title>Node29&#45;&gt;Node14</title>
<g id="a_edge33_Node000029_Node000014"><a xlink:title=" ">
<path fill="none" stroke="#63b8ff" d="M408.33,-314.75C539.52,-314.75 869.07,-314.75 1010.78,-314.75"/>
<polygon fill="#63b8ff" stroke="#63b8ff" points="1010.35,-318.25 1020.35,-314.75 1010.35,-311.25 1010.35,-318.25"/>
</a>
</g>
</g>
<!-- Node30 -->
<g id="Node000030" class="node">
<title>Node30</title>
<g id="a_Node000030"><a xlink:href="class_logger_manager.html#a5c1373ccc47f4112b596fe6f84fbbc21" target="_top" xlink:title="Log informational message (static convenience method)">
<polygon fill="white" stroke="#666666" points="566.12,-286.38 461.62,-286.38 461.62,-267.13 566.12,-267.13 566.12,-286.38"/>
<text xml:space="preserve" text-anchor="middle" x="513.88" y="-272.88" font-family="Helvetica,sans-Serif" font-size="10.00">LoggerManager::info</text>
</a>
</g>
</g>
<!-- Node29&#45;&gt;Node30 -->
<g id="edge34_Node000029_Node000030" class="edge">
<title>Node29&#45;&gt;Node30</title>
<g id="a_edge34_Node000029_Node000030"><a xlink:title=" ">
<path fill="none" stroke="#63b8ff" d="M408.47,-301.57C424.96,-297.65 442.98,-293.37 459.34,-289.48"/>
<polygon fill="#63b8ff" stroke="#63b8ff" points="459.97,-292.93 468.89,-287.21 458.35,-286.12 459.97,-292.93"/>
</a>
</g>
</g>
<!-- Node31&#45;&gt;Node19 -->
<g id="edge38_Node000031_Node000019" class="edge">
<title>Node31&#45;&gt;Node19</title>
<g id="a_edge38_Node000031_Node000019"><a xlink:title=" ">
<path fill="none" stroke="#63b8ff" d="M757.17,-347.12C817.34,-338.46 914.53,-333.18 986.25,-371.75 1025.87,-393.06 1052.76,-440.03 1066.51,-469.66"/>
<polygon fill="#63b8ff" stroke="#63b8ff" points="1063.26,-470.97 1070.52,-478.69 1069.66,-468.13 1063.26,-470.97"/>
</a>
</g>
</g>
<!-- Node31&#45;&gt;Node27 -->
<g id="edge37_Node000031_Node000027" class="edge">
<title>Node31&#45;&gt;Node27</title>
<g id="a_edge37_Node000031_Node000027"><a xlink:title=" ">
<path fill="none" stroke="#63b8ff" d="M757.11,-368.29C781.08,-372.86 809.36,-378.25 834.49,-383.05"/>
<polygon fill="#63b8ff" stroke="#63b8ff" points="833.81,-386.48 844.29,-384.92 835.13,-379.6 833.81,-386.48"/>
</a>
</g>
</g>
<!-- Node33 -->
<g id="Node000033" class="node">
<title>Node33</title>
<g id="a_Node000033"><a xlink:href="class_logger_manager.html#aef24f00186213fa78be3b104a50d58e6" target="_top" xlink:title="Log error message (static convenience method)">
<polygon fill="white" stroke="#666666" points="956.25,-98.38 848,-98.38 848,-79.13 956.25,-79.13 956.25,-98.38"/>
<text xml:space="preserve" text-anchor="middle" x="902.12" y="-84.88" font-family="Helvetica,sans-Serif" font-size="10.00">LoggerManager::error</text>
</a>
</g>
</g>
<!-- Node32&#45;&gt;Node33 -->
<g id="edge40_Node000032_Node000033" class="edge">
<title>Node32&#45;&gt;Node33</title>
<g id="a_edge40_Node000032_Node000033"><a xlink:title=" ">
<path fill="none" stroke="#63b8ff" d="M408.27,-241.5C508.83,-245.65 717.29,-250.11 782,-219.75 833.06,-195.81 872.12,-138.9 890.15,-108.58"/>
<polygon fill="#63b8ff" stroke="#63b8ff" points="893.12,-110.44 895.07,-100.03 887.05,-106.95 893.12,-110.44"/>
</a>
</g>
</g>
<!-- Node34 -->
<g id="Node000034" class="node">
<title>Node34</title>
<g id="a_Node000034"><a xlink:href="class_temperature_controller.html#a01e04714a1712aa10c34276850971a12" target="_top" xlink:title="Get bus number for a sensor.">
<polygon fill="white" stroke="#666666" points="569.88,-195 457.88,-195 457.88,-164.5 569.88,-164.5 569.88,-195"/>
<text xml:space="preserve" text-anchor="start" x="465.88" y="-181.5" font-family="Helvetica,sans-Serif" font-size="10.00">TemperatureController</text>
<text xml:space="preserve" text-anchor="middle" x="513.88" y="-170.25" font-family="Helvetica,sans-Serif" font-size="10.00">::getSensorBus</text>
</a>
</g>
</g>
<!-- Node32&#45;&gt;Node34 -->
<g id="edge41_Node000032_Node000034" class="edge">
<title>Node32&#45;&gt;Node34</title>
<g id="a_edge41_Node000032_Node000034"><a xlink:title=" ">
<path fill="none" stroke="#63b8ff" d="M395.42,-223.1C415.12,-215.83 438.74,-207.11 459.62,-199.41"/>
<polygon fill="#63b8ff" stroke="#63b8ff" points="460.66,-202.75 468.83,-196.01 458.24,-196.19 460.66,-202.75"/>
</a>
</g>
</g>
<!-- Node35 -->
<g id="Node000035" class="node">
<title>Node35</title>
<g id="a_Node000035"><a xlink:href="class_sensor.html#ac42da3a37b0d6a9622344fe83f4c9047" target="_top" xlink:title="Get OneWire bus pin.">
<polygon fill="white" stroke="#666666" points="760.25,-173.38 641.5,-173.38 641.5,-154.13 760.25,-154.13 760.25,-173.38"/>
<text xml:space="preserve" text-anchor="middle" x="700.88" y="-159.88" font-family="Helvetica,sans-Serif" font-size="10.00">Sensor::getOneWirePin</text>
</a>
</g>
</g>
<!-- Node34&#45;&gt;Node35 -->
<g id="edge42_Node000034_Node000035" class="edge">
<title>Node34&#45;&gt;Node35</title>
<g id="a_edge42_Node000034_Node000035"><a xlink:title=" ">
<path fill="none" stroke="#63b8ff" d="M570.13,-174.98C588.82,-173.36 609.95,-171.53 629.64,-169.83"/>
<polygon fill="#63b8ff" stroke="#63b8ff" points="629.87,-173.32 639.54,-168.97 629.27,-166.35 629.87,-173.32"/>
</a>
</g>
</g>
<!-- Node36 -->
<g id="Node000036" class="node">
<title>Node36</title>
<g id="a_Node000036"><a xlink:href="class_sensor.html#a6f57825e90b759ccdb9fe07b3a36953d" target="_top" xlink:title="Get PT1000 chip select pin.">
<polygon fill="white" stroke="#666666" points="782,-136.38 619.75,-136.38 619.75,-117.13 782,-117.13 782,-136.38"/>
<text xml:space="preserve" text-anchor="middle" x="700.88" y="-122.88" font-family="Helvetica,sans-Serif" font-size="10.00">Sensor::getPT1000ChipSelectPin</text>
</a>
</g>
</g>
<!-- Node34&#45;&gt;Node36 -->
<g id="edge43_Node000034_Node000036" class="edge">
<title>Node34&#45;&gt;Node36</title>
<g id="a_edge43_Node000034_Node000036"><a xlink:title=" ">
<path fill="none" stroke="#63b8ff" d="M558.71,-164.03C577.39,-157.61 599.5,-150.39 619.75,-144.75 626.34,-142.92 633.28,-141.14 640.19,-139.46"/>
<polygon fill="#63b8ff" stroke="#63b8ff" points="640.97,-142.87 649.9,-137.17 639.37,-136.06 640.97,-142.87"/>
</a>
</g>
</g>
<!-- Node37 -->
<g id="Node000037" class="node">
<title>Node37</title>
<g id="a_Node000037"><a xlink:href="class_sensor.html#a0f6f095e7cfdfffb2a395dfdae7cfa53" target="_top" xlink:title="Get sensor type.">
<polygon fill="white" stroke="#666666" points="744.5,-210.38 657.25,-210.38 657.25,-191.13 744.5,-191.13 744.5,-210.38"/>
<text xml:space="preserve" text-anchor="middle" x="700.88" y="-196.88" font-family="Helvetica,sans-Serif" font-size="10.00">Sensor::getType</text>
</a>
</g>
</g>
<!-- Node34&#45;&gt;Node37 -->
<g id="edge44_Node000034_Node000037" class="edge">
<title>Node34&#45;&gt;Node37</title>
<g id="a_edge44_Node000034_Node000037"><a xlink:title=" ">
<path fill="none" stroke="#63b8ff" d="M570.13,-186.03C594.01,-188.74 621.87,-191.9 645.64,-194.6"/>
<polygon fill="#63b8ff" stroke="#63b8ff" points="645.1,-198.06 655.43,-195.71 645.89,-191.1 645.1,-198.06"/>
</a>
</g>
</g>
<!-- Node39 -->
<g id="Node000039" class="node">
<title>Node39</title>
<g id="a_Node000039"><a xlink:href="class_temperature_controller.html#aac890ae08b5eddcf272771ecdba61453" target="_top" xlink:title="Get relay actual state.">
<polygon fill="white" stroke="#666666" points="569.88,-107 457.88,-107 457.88,-76.5 569.88,-76.5 569.88,-107"/>
<text xml:space="preserve" text-anchor="start" x="465.88" y="-93.5" font-family="Helvetica,sans-Serif" font-size="10.00">TemperatureController</text>
<text xml:space="preserve" text-anchor="middle" x="513.88" y="-82.25" font-family="Helvetica,sans-Serif" font-size="10.00">::getRelayActualState</text>
</a>
</g>
</g>
<!-- Node38&#45;&gt;Node39 -->
<g id="edge46_Node000038_Node000039" class="edge">
<title>Node38&#45;&gt;Node39</title>
<g id="a_edge46_Node000038_Node000039"><a xlink:title=" ">
<path fill="none" stroke="#63b8ff" d="M408.47,-91.75C420.62,-91.75 433.61,-91.75 446.15,-91.75"/>
<polygon fill="#63b8ff" stroke="#63b8ff" points="445.99,-95.25 455.99,-91.75 445.99,-88.25 445.99,-95.25"/>
</a>
</g>
</g>
<!-- Node40 -->
<g id="Node000040" class="node">
<title>Node40</title>
<g id="a_Node000040"><a xlink:href="class_temperature_controller.html#a20a14014a639f3390dba82a6cd39d067" target="_top" xlink:title="Get relay commanded state.">
<polygon fill="white" stroke="#666666" points="583.75,-58 444,-58 444,-27.5 583.75,-27.5 583.75,-58"/>
<text xml:space="preserve" text-anchor="start" x="452" y="-44.5" font-family="Helvetica,sans-Serif" font-size="10.00">TemperatureController</text>
<text xml:space="preserve" text-anchor="middle" x="513.88" y="-33.25" font-family="Helvetica,sans-Serif" font-size="10.00">::getRelayCommandedState</text>
</a>
</g>
</g>
<!-- Node38&#45;&gt;Node40 -->
<g id="edge48_Node000038_Node000040" class="edge">
<title>Node38&#45;&gt;Node40</title>
<g id="a_edge48_Node000038_Node000040"><a xlink:title=" ">
<path fill="none" stroke="#63b8ff" d="M404.03,-76.12C418.95,-71.54 435.43,-66.49 450.95,-61.73"/>
<polygon fill="#63b8ff" stroke="#63b8ff" points="451.53,-65.22 460.06,-58.94 449.48,-58.52 451.53,-65.22"/>
</a>
</g>
</g>
<!-- Node39&#45;&gt;Node33 -->
<g id="edge47_Node000039_Node000033" class="edge">
<title>Node39&#45;&gt;Node33</title>
<g id="a_edge47_Node000039_Node000033"><a xlink:title=" ">
<path fill="none" stroke="#63b8ff" d="M570.22,-91.32C640.65,-90.78 762.11,-89.83 836.66,-89.26"/>
<polygon fill="#63b8ff" stroke="#63b8ff" points="836.27,-92.76 846.24,-89.18 836.21,-85.76 836.27,-92.76"/>
</a>
</g>
</g>
<!-- Node40&#45;&gt;Node14 -->
<g id="edge49_Node000040_Node000014" class="edge">
<title>Node40&#45;&gt;Node14</title>
<g id="a_edge49_Node000040_Node000014"><a xlink:title=" ">
<path fill="none" stroke="#63b8ff" d="M567.9,-27.06C664.24,-2.12 868.85,33.83 986.25,-69.75 1051.78,-127.58 1070.22,-237.09 1075.33,-287.77"/>
<polygon fill="#63b8ff" stroke="#63b8ff" points="1071.83,-287.89 1076.21,-297.54 1078.8,-287.27 1071.83,-287.89"/>
</a>
</g>
</g>
<!-- Node41 -->
<g id="Node000041" class="node">
<title>Node41</title>
<g id="a_Node000041"><a xlink:href="class_temperature_controller.html#a61ff288cbeaa86dc21c610c778dba64e" target="_top" xlink:title="Get relay control mode.">
<polygon fill="white" stroke="#666666" points="759.12,-61 642.62,-61 642.62,-30.5 759.12,-30.5 759.12,-61"/>
<text xml:space="preserve" text-anchor="start" x="650.62" y="-47.5" font-family="Helvetica,sans-Serif" font-size="10.00">TemperatureController</text>
<text xml:space="preserve" text-anchor="middle" x="700.88" y="-36.25" font-family="Helvetica,sans-Serif" font-size="10.00">::getRelayControlMode</text>
</a>
</g>
</g>
<!-- Node40&#45;&gt;Node41 -->
<g id="edge50_Node000040_Node000041" class="edge">
<title>Node40&#45;&gt;Node41</title>
<g id="a_edge50_Node000040_Node000041"><a xlink:title=" ">
<path fill="none" stroke="#63b8ff" d="M584.03,-43.88C599.32,-44.12 615.52,-44.39 630.81,-44.63"/>
<polygon fill="#63b8ff" stroke="#63b8ff" points="630.73,-48.13 640.78,-44.8 630.84,-41.13 630.73,-48.13"/>
</a>
</g>
</g>
<!-- Node41&#45;&gt;Node33 -->
<g id="edge51_Node000041_Node000033" class="edge">
<title>Node41&#45;&gt;Node33</title>
<g id="a_edge51_Node000041_Node000033"><a xlink:title=" ">
<path fill="none" stroke="#63b8ff" d="M759.51,-58.19C785.85,-63.88 817,-70.6 843.36,-76.29"/>
<polygon fill="#63b8ff" stroke="#63b8ff" points="842.35,-79.65 852.86,-78.34 843.83,-72.81 842.35,-79.65"/>
</a>
</g>
</g>
</g>
</svg>
