<?xml version="1.0" encoding="UTF-8" standalone="no"?>
<!DOCTYPE svg PUBLIC "-//W3C//DTD SVG 1.1//EN"
 "http://www.w3.org/Graphics/SVG/1.1/DTD/svg11.dtd">
<!-- Generated by graphviz version 13.1.0 (20250701.0955)
 -->
<!-- Title: LoggerManager::_getCurrentTimeString Pages: 1 -->
<svg width="673pt" height="212pt"
 viewBox="0.00 0.00 673.00 212.00" xmlns="http://www.w3.org/2000/svg" xmlns:xlink="http://www.w3.org/1999/xlink">
<g id="graph0" class="graph" transform="scale(1 1) rotate(0) translate(4 208.25)">
<title>LoggerManager::_getCurrentTimeString</title>
<!-- Node1 -->
<g id="Node000001" class="node">
<title>Node1</title>
<g id="a_Node000001"><a xlink:title=" ">
<polygon fill="#999999" stroke="#666666" points="664.75,-172.88 525,-172.88 525,-142.38 664.75,-142.38 664.75,-172.88"/>
<text xml:space="preserve" text-anchor="start" x="533" y="-159.38" font-family="Helvetica,sans-Serif" font-size="10.00">LoggerManager::_getCurrent</text>
<text xml:space="preserve" text-anchor="middle" x="594.88" y="-148.12" font-family="Helvetica,sans-Serif" font-size="10.00">TimeString</text>
</a>
</g>
</g>
<!-- Node2 -->
<g id="Node000002" class="node">
<title>Node2</title>
<g id="a_Node000002"><a xlink:href="class_logger_manager.html#aa6938b6a5c002d6ed72ef352f0cc7a19" target="_top" xlink:title=" ">
<polygon fill="white" stroke="#666666" points="489,-204.25 332.75,-204.25 332.75,-185 489,-185 489,-204.25"/>
<text xml:space="preserve" text-anchor="middle" x="410.88" y="-190.75" font-family="Helvetica,sans-Serif" font-size="10.00">LoggerManager::_writeDataRow</text>
</a>
</g>
</g>
<!-- Node1&#45;&gt;Node2 -->
<g id="edge1_Node000001_Node000002" class="edge">
<title>Node1&#45;&gt;Node2</title>
<g id="a_edge1_Node000001_Node000002"><a xlink:title=" ">
<path fill="none" stroke="#63b8ff" d="M513.35,-173.99C495.7,-177.58 477.51,-181.28 461.49,-184.54"/>
<polygon fill="#63b8ff" stroke="#63b8ff" points="513.96,-177.44 523.07,-172.02 512.57,-170.58 513.96,-177.44"/>
</a>
</g>
</g>
<!-- Node5 -->
<g id="Node000005" class="node">
<title>Node5</title>
<g id="a_Node000005"><a xlink:href="class_logger_manager.html#af736040bd57412bef8981960e6df3bda" target="_top" xlink:title=" ">
<polygon fill="white" stroke="#666666" points="486,-167.25 335.75,-167.25 335.75,-148 486,-148 486,-167.25"/>
<text xml:space="preserve" text-anchor="middle" x="410.88" y="-153.75" font-family="Helvetica,sans-Serif" font-size="10.00">LoggerManager::logAlarmState</text>
</a>
</g>
</g>
<!-- Node1&#45;&gt;Node5 -->
<g id="edge4_Node000001_Node000005" class="edge">
<title>Node1&#45;&gt;Node5</title>
<g id="a_edge4_Node000001_Node000005"><a xlink:title=" ">
<path fill="none" stroke="#63b8ff" d="M513.33,-157.62C504.39,-157.62 495.32,-157.62 486.46,-157.62"/>
<polygon fill="#63b8ff" stroke="#63b8ff" points="513.04,-161.13 523.04,-157.63 513.04,-154.13 513.04,-161.13"/>
</a>
</g>
</g>
<!-- Node6 -->
<g id="Node000006" class="node">
<title>Node6</title>
<g id="a_Node000006"><a xlink:href="class_logger_manager.html#a0df2f2c96123da1989d0aaf6a4dc1615" target="_top" xlink:title=" ">
<polygon fill="white" stroke="#666666" points="474.38,-130.25 347.38,-130.25 347.38,-111 474.38,-111 474.38,-130.25"/>
<text xml:space="preserve" text-anchor="middle" x="410.88" y="-116.75" font-family="Helvetica,sans-Serif" font-size="10.00">LoggerManager::logEvent</text>
</a>
</g>
</g>
<!-- Node1&#45;&gt;Node6 -->
<g id="edge5_Node000001_Node000006" class="edge">
<title>Node1&#45;&gt;Node6</title>
<g id="a_edge5_Node000001_Node000006"><a xlink:title=" ">
<path fill="none" stroke="#63b8ff" d="M513.35,-141.26C495.7,-137.67 477.51,-133.97 461.49,-130.71"/>
<polygon fill="#63b8ff" stroke="#63b8ff" points="512.57,-144.67 523.07,-143.23 513.96,-137.81 512.57,-144.67"/>
</a>
</g>
</g>
<!-- Node3 -->
<g id="Node000003" class="node">
<title>Node3</title>
<g id="a_Node000003"><a xlink:href="class_logger_manager.html#a32ce9f462269787130bee46b2c34b632" target="_top" xlink:title=" ">
<polygon fill="white" stroke="#666666" points="296.75,-204.25 154,-204.25 154,-185 296.75,-185 296.75,-204.25"/>
<text xml:space="preserve" text-anchor="middle" x="225.38" y="-190.75" font-family="Helvetica,sans-Serif" font-size="10.00">LoggerManager::logDataNow</text>
</a>
</g>
</g>
<!-- Node2&#45;&gt;Node3 -->
<g id="edge2_Node000002_Node000003" class="edge">
<title>Node2&#45;&gt;Node3</title>
<g id="a_edge2_Node000002_Node000003"><a xlink:title=" ">
<path fill="none" stroke="#63b8ff" d="M321.06,-194.62C313.07,-194.62 305.05,-194.62 297.24,-194.62"/>
<polygon fill="#63b8ff" stroke="#63b8ff" points="320.81,-198.13 330.81,-194.63 320.81,-191.13 320.81,-198.13"/>
</a>
</g>
</g>
<!-- Node4 -->
<g id="Node000004" class="node">
<title>Node4</title>
<g id="a_Node000004"><a xlink:href="class_logger_manager.html#a830c86f1f27d3799eab1de908fc6b647" target="_top" xlink:title=" ">
<polygon fill="white" stroke="#666666" points="118,-93.25 0,-93.25 0,-74 118,-74 118,-93.25"/>
<text xml:space="preserve" text-anchor="middle" x="59" y="-79.75" font-family="Helvetica,sans-Serif" font-size="10.00">LoggerManager::update</text>
</a>
</g>
</g>
<!-- Node3&#45;&gt;Node4 -->
<g id="edge3_Node000003_Node000004" class="edge">
<title>Node3&#45;&gt;Node4</title>
<g id="a_edge3_Node000003_Node000004"><a xlink:title=" ">
<path fill="none" stroke="#63b8ff" d="M161.35,-180.35C158.82,-179.2 156.36,-177.96 154,-176.62 115.25,-154.68 81.25,-112.59 67.05,-93.49"/>
<polygon fill="#63b8ff" stroke="#63b8ff" points="160.04,-183.6 170.63,-184.02 162.62,-177.09 160.04,-183.6"/>
</a>
</g>
</g>
<!-- Node7 -->
<g id="Node000007" class="node">
<title>Node7</title>
<g id="a_Node000007"><a xlink:href="class_logger_manager.html#a5bda848c9bd87201bf6addd035c493b1" target="_top" xlink:title=" ">
<polygon fill="white" stroke="#666666" points="291.5,-167.25 159.25,-167.25 159.25,-148 291.5,-148 291.5,-167.25"/>
<text xml:space="preserve" text-anchor="middle" x="225.38" y="-153.75" font-family="Helvetica,sans-Serif" font-size="10.00">LoggerManager::logCritical</text>
</a>
</g>
</g>
<!-- Node6&#45;&gt;Node7 -->
<g id="edge6_Node000006_Node000007" class="edge">
<title>Node6&#45;&gt;Node7</title>
<g id="a_edge6_Node000006_Node000007"><a xlink:title=" ">
<path fill="none" stroke="#63b8ff" d="M348.51,-133C325.09,-137.72 298.7,-143.04 276.46,-147.53"/>
<polygon fill="#63b8ff" stroke="#63b8ff" points="349.14,-136.44 358.25,-131.03 347.75,-129.58 349.14,-136.44"/>
</a>
</g>
</g>
<!-- Node8 -->
<g id="Node000008" class="node">
<title>Node8</title>
<g id="a_Node000008"><a xlink:href="class_logger_manager.html#a181e69ea6fe3c7e07e708eada2cc8024" target="_top" xlink:title=" ">
<polygon fill="white" stroke="#666666" points="286.62,-130.25 164.12,-130.25 164.12,-111 286.62,-111 286.62,-130.25"/>
<text xml:space="preserve" text-anchor="middle" x="225.38" y="-116.75" font-family="Helvetica,sans-Serif" font-size="10.00">LoggerManager::logError</text>
</a>
</g>
</g>
<!-- Node6&#45;&gt;Node8 -->
<g id="edge7_Node000006_Node000008" class="edge">
<title>Node6&#45;&gt;Node8</title>
<g id="a_edge7_Node000006_Node000008"><a xlink:title=" ">
<path fill="none" stroke="#63b8ff" d="M335.89,-120.62C319.66,-120.62 302.65,-120.62 287.02,-120.62"/>
<polygon fill="#63b8ff" stroke="#63b8ff" points="335.47,-124.13 345.47,-120.63 335.47,-117.13 335.47,-124.13"/>
</a>
</g>
</g>
<!-- Node9 -->
<g id="Node000009" class="node">
<title>Node9</title>
<g id="a_Node000009"><a xlink:href="class_logger_manager.html#a2503703714729cc95171579fe4ce0d4c" target="_top" xlink:title=" ">
<polygon fill="white" stroke="#666666" points="284.38,-56.25 166.38,-56.25 166.38,-37 284.38,-37 284.38,-56.25"/>
<text xml:space="preserve" text-anchor="middle" x="225.38" y="-42.75" font-family="Helvetica,sans-Serif" font-size="10.00">LoggerManager::logInfo</text>
</a>
</g>
</g>
<!-- Node6&#45;&gt;Node9 -->
<g id="edge8_Node000006_Node000009" class="edge">
<title>Node6&#45;&gt;Node9</title>
<g id="a_edge8_Node000006_Node000009"><a xlink:title=" ">
<path fill="none" stroke="#63b8ff" d="M382.53,-105.06C360.05,-92.77 327.08,-75.87 296.75,-64.62 288.71,-61.64 279.97,-58.98 271.48,-56.67"/>
<polygon fill="#63b8ff" stroke="#63b8ff" points="380.6,-107.99 391.04,-109.78 383.99,-101.87 380.6,-107.99"/>
</a>
</g>
</g>
<!-- Node12 -->
<g id="Node000012" class="node">
<title>Node12</title>
<g id="a_Node000012"><a xlink:href="class_logger_manager.html#a5768a8a1983298c5b94e23dabe18f3bb" target="_top" xlink:title=" ">
<polygon fill="white" stroke="#666666" points="293.75,-93.25 157,-93.25 157,-74 293.75,-74 293.75,-93.25"/>
<text xml:space="preserve" text-anchor="middle" x="225.38" y="-79.75" font-family="Helvetica,sans-Serif" font-size="10.00">LoggerManager::logWarning</text>
</a>
</g>
</g>
<!-- Node6&#45;&gt;Node12 -->
<g id="edge12_Node000006_Node000012" class="edge">
<title>Node6&#45;&gt;Node12</title>
<g id="a_edge12_Node000006_Node000012"><a xlink:title=" ">
<path fill="none" stroke="#63b8ff" d="M348.51,-108.25C325.09,-103.53 298.7,-98.21 276.46,-93.72"/>
<polygon fill="#63b8ff" stroke="#63b8ff" points="347.75,-111.67 358.25,-110.22 349.14,-104.81 347.75,-111.67"/>
</a>
</g>
</g>
<!-- Node9&#45;&gt;Node4 -->
<g id="edge11_Node000009_Node000004" class="edge">
<title>Node9&#45;&gt;Node4</title>
<g id="a_edge11_Node000009_Node000004"><a xlink:title=" ">
<path fill="none" stroke="#63b8ff" d="M168.26,-59.26C147.57,-63.91 124.42,-69.12 104.86,-73.53"/>
<polygon fill="#63b8ff" stroke="#63b8ff" points="168.99,-62.68 177.98,-57.07 167.46,-55.85 168.99,-62.68"/>
</a>
</g>
</g>
<!-- Node10 -->
<g id="Node000010" class="node">
<title>Node10</title>
<g id="a_Node000010"><a xlink:href="class_logger_manager.html#a4acf0149820d73f4ed11340f63706841" target="_top" xlink:title="Begin logging operations.">
<polygon fill="white" stroke="#666666" points="115,-56.25 3,-56.25 3,-37 115,-37 115,-56.25"/>
<text xml:space="preserve" text-anchor="middle" x="59" y="-42.75" font-family="Helvetica,sans-Serif" font-size="10.00">LoggerManager::begin</text>
</a>
</g>
</g>
<!-- Node9&#45;&gt;Node10 -->
<g id="edge9_Node000009_Node000010" class="edge">
<title>Node9&#45;&gt;Node10</title>
<g id="a_edge9_Node000009_Node000010"><a xlink:title=" ">
<path fill="none" stroke="#63b8ff" d="M154.62,-46.62C141.54,-46.62 128.04,-46.62 115.47,-46.62"/>
<polygon fill="#63b8ff" stroke="#63b8ff" points="154.45,-50.13 164.45,-46.63 154.45,-43.13 154.45,-50.13"/>
</a>
</g>
</g>
<!-- Node11 -->
<g id="Node000011" class="node">
<title>Node11</title>
<g id="a_Node000011"><a xlink:href="class_logger_manager.html#a59e0690d922ec968bf64b1b5dda8fcbe" target="_top" xlink:title="Initialize the logging system.">
<polygon fill="white" stroke="#666666" points="109.75,-19.25 8.25,-19.25 8.25,0 109.75,0 109.75,-19.25"/>
<text xml:space="preserve" text-anchor="middle" x="59" y="-5.75" font-family="Helvetica,sans-Serif" font-size="10.00">LoggerManager::init</text>
</a>
</g>
</g>
<!-- Node9&#45;&gt;Node11 -->
<g id="edge10_Node000009_Node000011" class="edge">
<title>Node9&#45;&gt;Node11</title>
<g id="a_edge10_Node000009_Node000011"><a xlink:title=" ">
<path fill="none" stroke="#63b8ff" d="M168.26,-33.99C147.57,-29.34 124.42,-24.13 104.86,-19.72"/>
<polygon fill="#63b8ff" stroke="#63b8ff" points="167.46,-37.4 177.98,-36.18 168.99,-30.57 167.46,-37.4"/>
</a>
</g>
</g>
<!-- Node12&#45;&gt;Node4 -->
<g id="edge13_Node000012_Node000004" class="edge">
<title>Node12&#45;&gt;Node4</title>
<g id="a_edge13_Node000012_Node000004"><a xlink:title=" ">
<path fill="none" stroke="#63b8ff" d="M145.21,-83.62C136.2,-83.62 127.14,-83.62 118.47,-83.62"/>
<polygon fill="#63b8ff" stroke="#63b8ff" points="145.05,-87.13 155.05,-83.63 145.05,-80.13 145.05,-87.13"/>
</a>
</g>
</g>
</g>
</svg>
