<?xml version="1.0" encoding="UTF-8" standalone="no"?>
<!DOCTYPE svg PUBLIC "-//W3C//DTD SVG 1.1//EN"
 "http://www.w3.org/Graphics/SVG/1.1/DTD/svg11.dtd">
<!-- Generated by graphviz version 13.1.0 (20250701.0955)
 -->
<!-- Title: TemperatureController::unbindSensorFromPointBySensor Pages: 1 -->
<svg width="377pt" height="88pt"
 viewBox="0.00 0.00 377.00 88.00" xmlns="http://www.w3.org/2000/svg" xmlns:xlink="http://www.w3.org/1999/xlink">
<g id="graph0" class="graph" transform="scale(1 1) rotate(0) translate(4 83.5)">
<title>TemperatureController::unbindSensorFromPointBySensor</title>
<!-- Node1 -->
<g id="Node000001" class="node">
<title>Node1</title>
<g id="a_Node000001"><a xlink:title=" ">
<polygon fill="#999999" stroke="#666666" points="368.75,-54.5 199.75,-54.5 199.75,-24 368.75,-24 368.75,-54.5"/>
<text xml:space="preserve" text-anchor="start" x="207.75" y="-41" font-family="Helvetica,sans-Serif" font-size="10.00">TemperatureController</text>
<text xml:space="preserve" text-anchor="middle" x="284.25" y="-29.75" font-family="Helvetica,sans-Serif" font-size="10.00">::unbindSensorFromPointBySensor</text>
</a>
</g>
</g>
<!-- Node2 -->
<g id="Node000002" class="node">
<title>Node2</title>
<g id="a_Node000002"><a xlink:href="class_temperature_controller.html#a84937fc1aed30193b817f3b062ce0cfc" target="_top" xlink:title=" ">
<polygon fill="white" stroke="#666666" points="163.75,-79.5 0,-79.5 0,-49 163.75,-49 163.75,-79.5"/>
<text xml:space="preserve" text-anchor="start" x="8" y="-66" font-family="Helvetica,sans-Serif" font-size="10.00">TemperatureController</text>
<text xml:space="preserve" text-anchor="middle" x="81.88" y="-54.75" font-family="Helvetica,sans-Serif" font-size="10.00">::bindSensorToPointByChipSelect</text>
</a>
</g>
</g>
<!-- Node1&#45;&gt;Node2 -->
<g id="edge1_Node000001_Node000002" class="edge">
<title>Node1&#45;&gt;Node2</title>
<g id="a_edge1_Node000001_Node000002"><a xlink:title=" ">
<path fill="none" stroke="#63b8ff" d="M188.13,-51.12C180.1,-52.12 172.02,-53.13 164.11,-54.11"/>
<polygon fill="#63b8ff" stroke="#63b8ff" points="188.44,-54.61 197.93,-49.89 187.58,-47.66 188.44,-54.61"/>
</a>
</g>
</g>
<!-- Node3 -->
<g id="Node000003" class="node">
<title>Node3</title>
<g id="a_Node000003"><a xlink:href="class_temperature_controller.html#a5d8f7c51bb176435a5035293a2db78f7" target="_top" xlink:title=" ">
<polygon fill="white" stroke="#666666" points="150.25,-30.5 13.5,-30.5 13.5,0 150.25,0 150.25,-30.5"/>
<text xml:space="preserve" text-anchor="start" x="21.5" y="-17" font-family="Helvetica,sans-Serif" font-size="10.00">TemperatureController</text>
<text xml:space="preserve" text-anchor="middle" x="81.88" y="-5.75" font-family="Helvetica,sans-Serif" font-size="10.00">::bindSensorToPointByRom</text>
</a>
</g>
</g>
<!-- Node1&#45;&gt;Node3 -->
<g id="edge2_Node000001_Node000003" class="edge">
<title>Node1&#45;&gt;Node3</title>
<g id="a_edge2_Node000001_Node000003"><a xlink:title=" ">
<path fill="none" stroke="#63b8ff" d="M188.28,-27.88C175.54,-26.35 162.68,-24.81 150.54,-23.35"/>
<polygon fill="#63b8ff" stroke="#63b8ff" points="187.59,-31.32 197.93,-29.03 188.42,-24.37 187.59,-31.32"/>
</a>
</g>
</g>
</g>
</svg>
