<?xml version="1.0" encoding="UTF-8" standalone="no"?>
<!DOCTYPE svg PUBLIC "-//W3C//DTD SVG 1.1//EN"
 "http://www.w3.org/Graphics/SVG/1.1/DTD/svg11.dtd">
<!-- Generated by graphviz version 13.1.0 (20250701.0955)
 -->
<!-- Title: LoggerManager::logInfo Pages: 1 -->
<svg width="280pt" height="101pt"
 viewBox="0.00 0.00 280.00 101.00" xmlns="http://www.w3.org/2000/svg" xmlns:xlink="http://www.w3.org/1999/xlink">
<g id="graph0" class="graph" transform="scale(1 1) rotate(0) translate(4 97.25)">
<title>LoggerManager::logInfo</title>
<!-- Node1 -->
<g id="Node000001" class="node">
<title>Node1</title>
<g id="a_Node000001"><a xlink:title=" ">
<polygon fill="#999999" stroke="#666666" points="272,-56.25 154,-56.25 154,-37 272,-37 272,-56.25"/>
<text xml:space="preserve" text-anchor="middle" x="213" y="-42.75" font-family="Helvetica,sans-Serif" font-size="10.00">LoggerManager::logInfo</text>
</a>
</g>
</g>
<!-- Node2 -->
<g id="Node000002" class="node">
<title>Node2</title>
<g id="a_Node000002"><a xlink:href="class_logger_manager.html#a4acf0149820d73f4ed11340f63706841" target="_top" xlink:title="Begin logging operations.">
<polygon fill="white" stroke="#666666" points="115,-93.25 3,-93.25 3,-74 115,-74 115,-93.25"/>
<text xml:space="preserve" text-anchor="middle" x="59" y="-79.75" font-family="Helvetica,sans-Serif" font-size="10.00">LoggerManager::begin</text>
</a>
</g>
</g>
<!-- Node1&#45;&gt;Node2 -->
<g id="edge1_Node000001_Node000002" class="edge">
<title>Node1&#45;&gt;Node2</title>
<g id="a_edge1_Node000001_Node000002"><a xlink:title=" ">
<path fill="none" stroke="#63b8ff" d="M159.31,-59.45C140.38,-64.06 119.32,-69.18 101.48,-73.53"/>
<polygon fill="#63b8ff" stroke="#63b8ff" points="160.11,-62.86 168.99,-57.09 158.45,-56.06 160.11,-62.86"/>
</a>
</g>
</g>
<!-- Node3 -->
<g id="Node000003" class="node">
<title>Node3</title>
<g id="a_Node000003"><a xlink:href="class_logger_manager.html#a59e0690d922ec968bf64b1b5dda8fcbe" target="_top" xlink:title="Initialize the logging system.">
<polygon fill="white" stroke="#666666" points="109.75,-56.25 8.25,-56.25 8.25,-37 109.75,-37 109.75,-56.25"/>
<text xml:space="preserve" text-anchor="middle" x="59" y="-42.75" font-family="Helvetica,sans-Serif" font-size="10.00">LoggerManager::init</text>
</a>
</g>
</g>
<!-- Node1&#45;&gt;Node3 -->
<g id="edge2_Node000001_Node000003" class="edge">
<title>Node1&#45;&gt;Node3</title>
<g id="a_edge2_Node000001_Node000003"><a xlink:title=" ">
<path fill="none" stroke="#63b8ff" d="M142.39,-46.62C131.47,-46.62 120.37,-46.62 110.01,-46.62"/>
<polygon fill="#63b8ff" stroke="#63b8ff" points="142.15,-50.13 152.15,-46.63 142.15,-43.13 142.15,-50.13"/>
</a>
</g>
</g>
<!-- Node4 -->
<g id="Node000004" class="node">
<title>Node4</title>
<g id="a_Node000004"><a xlink:href="class_logger_manager.html#a830c86f1f27d3799eab1de908fc6b647" target="_top" xlink:title=" ">
<polygon fill="white" stroke="#666666" points="118,-19.25 0,-19.25 0,0 118,0 118,-19.25"/>
<text xml:space="preserve" text-anchor="middle" x="59" y="-5.75" font-family="Helvetica,sans-Serif" font-size="10.00">LoggerManager::update</text>
</a>
</g>
</g>
<!-- Node1&#45;&gt;Node4 -->
<g id="edge3_Node000001_Node000004" class="edge">
<title>Node1&#45;&gt;Node4</title>
<g id="a_edge3_Node000001_Node000004"><a xlink:title=" ">
<path fill="none" stroke="#63b8ff" d="M159.31,-33.8C140.38,-29.19 119.32,-24.07 101.48,-19.72"/>
<polygon fill="#63b8ff" stroke="#63b8ff" points="158.45,-37.19 168.99,-36.16 160.11,-30.39 158.45,-37.19"/>
</a>
</g>
</g>
</g>
</svg>
