<?xml version="1.0" encoding="UTF-8" standalone="no"?>
<!DOCTYPE svg PUBLIC "-//W3C//DTD SVG 1.1//EN"
 "http://www.w3.org/Graphics/SVG/1.1/DTD/svg11.dtd">
<!-- Generated by graphviz version 13.1.0 (20250701.0955)
 -->
<!-- Title: RegisterMap::writeHoldingRegister Pages: 1 -->
<svg width="341pt" height="64pt"
 viewBox="0.00 0.00 341.00 64.00" xmlns="http://www.w3.org/2000/svg" xmlns:xlink="http://www.w3.org/1999/xlink">
<g id="graph0" class="graph" transform="scale(1 1) rotate(0) translate(4 60.25)">
<title>RegisterMap::writeHoldingRegister</title>
<!-- Node1 -->
<g id="Node000001" class="node">
<title>Node1</title>
<g id="a_Node000001"><a xlink:title="Write value to Modbus holding register.">
<polygon fill="#999999" stroke="#666666" points="131.5,-42.88 0,-42.88 0,-12.37 131.5,-12.37 131.5,-42.88"/>
<text xml:space="preserve" text-anchor="start" x="8" y="-29.38" font-family="Helvetica,sans-Serif" font-size="10.00">RegisterMap::writeHolding</text>
<text xml:space="preserve" text-anchor="middle" x="65.75" y="-18.12" font-family="Helvetica,sans-Serif" font-size="10.00">Register</text>
</a>
</g>
</g>
<!-- Node2 -->
<g id="Node000002" class="node">
<title>Node2</title>
<g id="a_Node000002"><a xlink:href="class_register_map.html#a313522004347397fee66b57e9daed873" target="_top" xlink:title="Check if register is read&#45;only.">
<polygon fill="white" stroke="#666666" points="332.75,-56.25 167.5,-56.25 167.5,-37 332.75,-37 332.75,-56.25"/>
<text xml:space="preserve" text-anchor="middle" x="250.12" y="-42.75" font-family="Helvetica,sans-Serif" font-size="10.00">RegisterMap::isReadOnlyRegister</text>
</a>
</g>
</g>
<!-- Node1&#45;&gt;Node2 -->
<g id="edge1_Node000001_Node000002" class="edge">
<title>Node1&#45;&gt;Node2</title>
<g id="a_edge1_Node000001_Node000002"><a xlink:title=" ">
<path fill="none" stroke="#63b8ff" d="M131.82,-34.4C139.61,-35.22 147.67,-36.06 155.76,-36.9"/>
<polygon fill="#63b8ff" stroke="#63b8ff" points="155.37,-40.38 165.68,-37.93 156.09,-33.41 155.37,-40.38"/>
</a>
</g>
</g>
<!-- Node3 -->
<g id="Node000003" class="node">
<title>Node3</title>
<g id="a_Node000003"><a xlink:href="class_register_map.html#abc2174dcfe96247d4f97e552a2363e50" target="_top" xlink:title="Check if register address is valid.">
<polygon fill="white" stroke="#666666" points="321.12,-19.25 179.12,-19.25 179.12,0 321.12,0 321.12,-19.25"/>
<text xml:space="preserve" text-anchor="middle" x="250.12" y="-5.75" font-family="Helvetica,sans-Serif" font-size="10.00">RegisterMap::isValidAddress</text>
</a>
</g>
</g>
<!-- Node1&#45;&gt;Node3 -->
<g id="edge2_Node000001_Node000003" class="edge">
<title>Node1&#45;&gt;Node3</title>
<g id="a_edge2_Node000001_Node000003"><a xlink:title=" ">
<path fill="none" stroke="#63b8ff" d="M131.82,-21.2C143.37,-20.06 155.53,-18.86 167.47,-17.68"/>
<polygon fill="#63b8ff" stroke="#63b8ff" points="167.71,-21.18 177.32,-16.71 167.02,-14.21 167.71,-21.18"/>
</a>
</g>
</g>
</g>
</svg>
