<?xml version="1.0" encoding="UTF-8" standalone="no"?>
<!DOCTYPE svg PUBLIC "-//W3C//DTD SVG 1.1//EN"
 "http://www.w3.org/Graphics/SVG/1.1/DTD/svg11.dtd">
<!-- Generated by graphviz version 13.1.0 (20250701.0955)
 -->
<!-- Title: LoggerManager::warning Pages: 1 -->
<svg width="330pt" height="285pt"
 viewBox="0.00 0.00 330.00 285.00" xmlns="http://www.w3.org/2000/svg" xmlns:xlink="http://www.w3.org/1999/xlink">
<g id="graph0" class="graph" transform="scale(1 1) rotate(0) translate(4 280.88)">
<title>LoggerManager::warning</title>
<!-- Node1 -->
<g id="Node000001" class="node">
<title>Node1</title>
<g id="a_Node000001"><a xlink:title="Log warning message (static convenience method)">
<polygon fill="#999999" stroke="#666666" points="322.25,-148.25 199.75,-148.25 199.75,-129 322.25,-129 322.25,-148.25"/>
<text xml:space="preserve" text-anchor="middle" x="261" y="-134.75" font-family="Helvetica,sans-Serif" font-size="10.00">LoggerManager::warning</text>
</a>
</g>
</g>
<!-- Node2 -->
<g id="Node000002" class="node">
<title>Node2</title>
<g id="a_Node000002"><a xlink:href="class_temperature_controller.html#ac5c3403746d7c850bf7929bf5ee3448a" target="_top" xlink:title=" ">
<polygon fill="white" stroke="#666666" points="137.88,-276.88 25.88,-276.88 25.88,-246.38 137.88,-246.38 137.88,-276.88"/>
<text xml:space="preserve" text-anchor="start" x="33.88" y="-263.38" font-family="Helvetica,sans-Serif" font-size="10.00">TemperatureController</text>
<text xml:space="preserve" text-anchor="middle" x="81.88" y="-252.12" font-family="Helvetica,sans-Serif" font-size="10.00">::addAlarm</text>
</a>
</g>
</g>
<!-- Node1&#45;&gt;Node2 -->
<g id="edge1_Node000001_Node000002" class="edge">
<title>Node1&#45;&gt;Node2</title>
<g id="a_edge1_Node000001_Node000002"><a xlink:title=" ">
<path fill="none" stroke="#63b8ff" d="M246.25,-157.85C229.29,-180.19 198.44,-216.65 163.75,-237.62 155.85,-242.4 146.95,-246.28 138,-249.41"/>
<polygon fill="#63b8ff" stroke="#63b8ff" points="248.99,-160.03 252.12,-149.91 243.36,-155.87 248.99,-160.03"/>
</a>
</g>
</g>
<!-- Node3 -->
<g id="Node000003" class="node">
<title>Node3</title>
<g id="a_Node000003"><a xlink:href="class_config_manager.html#a0497343220fc493f5cf9574922508908" target="_top" xlink:title="Initialize the configuration system.">
<polygon fill="white" stroke="#666666" points="137.5,-228.25 26.25,-228.25 26.25,-209 137.5,-209 137.5,-228.25"/>
<text xml:space="preserve" text-anchor="middle" x="81.88" y="-214.75" font-family="Helvetica,sans-Serif" font-size="10.00">ConfigManager::begin</text>
</a>
</g>
</g>
<!-- Node1&#45;&gt;Node3 -->
<g id="edge2_Node000001_Node000003" class="edge">
<title>Node1&#45;&gt;Node3</title>
<g id="a_edge2_Node000001_Node000003"><a xlink:title=" ">
<path fill="none" stroke="#63b8ff" d="M238.64,-155.55C219.91,-169.6 191.42,-189.07 163.75,-200.62 155.52,-204.06 146.53,-206.89 137.64,-209.2"/>
<polygon fill="#63b8ff" stroke="#63b8ff" points="240.72,-158.37 246.53,-149.51 236.46,-152.81 240.72,-158.37"/>
</a>
</g>
</g>
<!-- Node4 -->
<g id="Node000004" class="node">
<title>Node4</title>
<g id="a_Node000004"><a xlink:href="class_temp_modbus_server.html#aac671b84770f4139745d08d05b5c1d92" target="_top" xlink:title=" ">
<polygon fill="white" stroke="#666666" points="148,-191.25 15.75,-191.25 15.75,-172 148,-172 148,-191.25"/>
<text xml:space="preserve" text-anchor="middle" x="81.88" y="-177.75" font-family="Helvetica,sans-Serif" font-size="10.00">TempModbusServer::begin</text>
</a>
</g>
</g>
<!-- Node1&#45;&gt;Node4 -->
<g id="edge3_Node000001_Node000004" class="edge">
<title>Node1&#45;&gt;Node4</title>
<g id="a_edge3_Node000001_Node000004"><a xlink:title=" ">
<path fill="none" stroke="#63b8ff" d="M209.31,-151.4C194.62,-155.07 178.56,-159.04 163.75,-162.62 151.55,-165.58 138.31,-168.72 126.13,-171.58"/>
<polygon fill="#63b8ff" stroke="#63b8ff" points="209.91,-154.86 218.76,-149.04 208.21,-148.07 209.91,-154.86"/>
</a>
</g>
</g>
<!-- Node5 -->
<g id="Node000005" class="node">
<title>Node5</title>
<g id="a_Node000005"><a xlink:href="class_temperature_controller.html#a84937fc1aed30193b817f3b062ce0cfc" target="_top" xlink:title=" ">
<polygon fill="white" stroke="#666666" points="163.75,-153.88 0,-153.88 0,-123.38 163.75,-123.38 163.75,-153.88"/>
<text xml:space="preserve" text-anchor="start" x="8" y="-140.38" font-family="Helvetica,sans-Serif" font-size="10.00">TemperatureController</text>
<text xml:space="preserve" text-anchor="middle" x="81.88" y="-129.12" font-family="Helvetica,sans-Serif" font-size="10.00">::bindSensorToPointByChipSelect</text>
</a>
</g>
</g>
<!-- Node1&#45;&gt;Node5 -->
<g id="edge4_Node000001_Node000005" class="edge">
<title>Node1&#45;&gt;Node5</title>
<g id="a_edge4_Node000001_Node000005"><a xlink:title=" ">
<path fill="none" stroke="#63b8ff" d="M188.1,-138.62C180.18,-138.62 172.08,-138.62 164.05,-138.62"/>
<polygon fill="#63b8ff" stroke="#63b8ff" points="188.03,-142.13 198.03,-138.63 188.03,-135.13 188.03,-142.13"/>
</a>
</g>
</g>
<!-- Node6 -->
<g id="Node000006" class="node">
<title>Node6</title>
<g id="a_Node000006"><a xlink:href="class_temperature_controller.html#a5d8f7c51bb176435a5035293a2db78f7" target="_top" xlink:title=" ">
<polygon fill="white" stroke="#666666" points="150.25,-104.88 13.5,-104.88 13.5,-74.38 150.25,-74.38 150.25,-104.88"/>
<text xml:space="preserve" text-anchor="start" x="21.5" y="-91.38" font-family="Helvetica,sans-Serif" font-size="10.00">TemperatureController</text>
<text xml:space="preserve" text-anchor="middle" x="81.88" y="-80.12" font-family="Helvetica,sans-Serif" font-size="10.00">::bindSensorToPointByRom</text>
</a>
</g>
</g>
<!-- Node1&#45;&gt;Node6 -->
<g id="edge5_Node000001_Node000006" class="edge">
<title>Node1&#45;&gt;Node6</title>
<g id="a_edge5_Node000001_Node000006"><a xlink:title=" ">
<path fill="none" stroke="#63b8ff" d="M212.77,-125.56C190.3,-119.34 163.26,-111.86 139.68,-105.34"/>
<polygon fill="#63b8ff" stroke="#63b8ff" points="211.7,-128.89 222.27,-128.19 213.57,-122.15 211.7,-128.89"/>
</a>
</g>
</g>
<!-- Node7 -->
<g id="Node000007" class="node">
<title>Node7</title>
<g id="a_Node000007"><a xlink:href="class_alarm.html#af8d75ee8622a2a96f4bc9b408e9668e5" target="_top" xlink:title="Reactivate a previously cleared alarm.">
<polygon fill="white" stroke="#666666" points="127,-56.25 36.75,-56.25 36.75,-37 127,-37 127,-56.25"/>
<text xml:space="preserve" text-anchor="middle" x="81.88" y="-42.75" font-family="Helvetica,sans-Serif" font-size="10.00">Alarm::reactivate</text>
</a>
</g>
</g>
<!-- Node1&#45;&gt;Node7 -->
<g id="edge6_Node000001_Node000007" class="edge">
<title>Node1&#45;&gt;Node7</title>
<g id="a_edge6_Node000001_Node000007"><a xlink:title=" ">
<path fill="none" stroke="#63b8ff" d="M241.76,-121.01C223.47,-104.32 193.78,-79.76 163.75,-65.62 152.4,-60.28 139.42,-56.38 127.23,-53.55"/>
<polygon fill="#63b8ff" stroke="#63b8ff" points="239.19,-123.4 248.89,-127.67 243.97,-118.29 239.19,-123.4"/>
</a>
</g>
</g>
<!-- Node8 -->
<g id="Node000008" class="node">
<title>Node8</title>
<g id="a_Node000008"><a xlink:href="class_alarm.html#abc87fe39e6a9b5beb9f09df780f67621" target="_top" xlink:title="Update alarm condition based on current measurement.">
<polygon fill="white" stroke="#666666" points="140.88,-19.25 22.88,-19.25 22.88,0 140.88,0 140.88,-19.25"/>
<text xml:space="preserve" text-anchor="middle" x="81.88" y="-5.75" font-family="Helvetica,sans-Serif" font-size="10.00">Alarm::updateCondition</text>
</a>
</g>
</g>
<!-- Node1&#45;&gt;Node8 -->
<g id="edge7_Node000001_Node000008" class="edge">
<title>Node1&#45;&gt;Node8</title>
<g id="a_edge7_Node000001_Node000008"><a xlink:title=" ">
<path fill="none" stroke="#63b8ff" d="M248.7,-119.19C232.99,-93.96 202.09,-50.49 163.75,-27.62 156.83,-23.5 149.07,-20.32 141.17,-17.86"/>
<polygon fill="#63b8ff" stroke="#63b8ff" points="245.54,-120.72 253.71,-127.47 251.53,-117.1 245.54,-120.72"/>
</a>
</g>
</g>
</g>
</svg>
