<?xml version="1.0" encoding="UTF-8" standalone="no"?>
<!DOCTYPE svg PUBLIC "-//W3C//DTD SVG 1.1//EN"
 "http://www.w3.org/Graphics/SVG/1.1/DTD/svg11.dtd">
<!-- Generated by graphviz version 13.1.0 (20250701.0955)
 -->
<!-- Title: LoggerManager::_writeHeader Pages: 1 -->
<svg width="526pt" height="64pt"
 viewBox="0.00 0.00 526.00 64.00" xmlns="http://www.w3.org/2000/svg" xmlns:xlink="http://www.w3.org/1999/xlink">
<g id="graph0" class="graph" transform="scale(1 1) rotate(0) translate(4 60.25)">
<title>LoggerManager::_writeHeader</title>
<!-- Node1 -->
<g id="Node000001" class="node">
<title>Node1</title>
<g id="a_Node000001"><a xlink:title=" ">
<polygon fill="#999999" stroke="#666666" points="146.5,-37.25 0,-37.25 0,-18 146.5,-18 146.5,-37.25"/>
<text xml:space="preserve" text-anchor="middle" x="73.25" y="-23.75" font-family="Helvetica,sans-Serif" font-size="10.00">LoggerManager::_writeHeader</text>
</a>
</g>
</g>
<!-- Node2 -->
<g id="Node000002" class="node">
<title>Node2</title>
<g id="a_Node000002"><a xlink:href="$class_logger_manager.html#aab43f573f73cfe426cfbea04a9fdd3ee" xlink:title=" ">
<polygon fill="white" stroke="#666666" points="314,-42.88 182.5,-42.88 182.5,-12.37 314,-12.37 314,-42.88"/>
<text xml:space="preserve" text-anchor="start" x="190.5" y="-29.38" font-family="Helvetica,sans-Serif" font-size="10.00">LoggerManager::_generate</text>
<text xml:space="preserve" text-anchor="middle" x="248.25" y="-18.12" font-family="Helvetica,sans-Serif" font-size="10.00">CSVHeader</text>
</a>
</g>
</g>
<!-- Node1&#45;&gt;Node2 -->
<g id="edge1_Node000001_Node000002" class="edge">
<title>Node1&#45;&gt;Node2</title>
<g id="a_edge1_Node000001_Node000002"><a xlink:title=" ">
<path fill="none" stroke="#63b8ff" d="M146.87,-27.62C154.76,-27.62 162.8,-27.62 170.74,-27.62"/>
<polygon fill="#63b8ff" stroke="#63b8ff" points="170.74,-31.13 180.74,-27.63 170.74,-24.13 170.74,-31.13"/>
</a>
</g>
</g>
<!-- Node3 -->
<g id="Node000003" class="node">
<title>Node3</title>
<g id="a_Node000003"><a xlink:href="$class_logger_manager.html#a57d230cd2896120a32ecf55a14895d55" xlink:title=" ">
<polygon fill="white" stroke="#666666" points="517.5,-56.25 350,-56.25 350,-37 517.5,-37 517.5,-56.25"/>
<text xml:space="preserve" text-anchor="middle" x="433.75" y="-42.75" font-family="Helvetica,sans-Serif" font-size="10.00">LoggerManager::_escapeCSVField</text>
</a>
</g>
</g>
<!-- Node2&#45;&gt;Node3 -->
<g id="edge2_Node000002_Node000003" class="edge">
<title>Node2&#45;&gt;Node3</title>
<g id="a_edge2_Node000002_Node000003"><a xlink:title=" ">
<path fill="none" stroke="#63b8ff" d="M314.46,-34.38C322.23,-35.18 330.28,-36.02 338.36,-36.85"/>
<polygon fill="#63b8ff" stroke="#63b8ff" points="337.96,-40.33 348.27,-37.88 338.68,-33.37 337.96,-40.33"/>
</a>
</g>
</g>
<!-- Node4 -->
<g id="Node000004" class="node">
<title>Node4</title>
<g id="a_Node000004"><a xlink:href="$class_measurement_point.html#aa3a80d373c7609c7b178bf7353ffdd7a" xlink:title="Get measurement point name.">
<polygon fill="white" stroke="#666666" points="505.5,-19.25 362,-19.25 362,0 505.5,0 505.5,-19.25"/>
<text xml:space="preserve" text-anchor="middle" x="433.75" y="-5.75" font-family="Helvetica,sans-Serif" font-size="10.00">MeasurementPoint::getName</text>
</a>
</g>
</g>
<!-- Node2&#45;&gt;Node4 -->
<g id="edge3_Node000002_Node000004" class="edge">
<title>Node2&#45;&gt;Node4</title>
<g id="a_edge3_Node000002_Node000004"><a xlink:title=" ">
<path fill="none" stroke="#63b8ff" d="M314.46,-21.23C326.02,-20.09 338.18,-18.9 350.14,-17.73"/>
<polygon fill="#63b8ff" stroke="#63b8ff" points="350.4,-21.22 360.01,-16.76 349.72,-14.25 350.4,-21.22"/>
</a>
</g>
</g>
</g>
</svg>
