<?xml version="1.0" encoding="UTF-8" standalone="no"?>
<!DOCTYPE svg PUBLIC "-//W3C//DTD SVG 1.1//EN"
 "http://www.w3.org/Graphics/SVG/1.1/DTD/svg11.dtd">
<!-- Generated by graphviz version 13.1.0 (20250701.0955)
 -->
<!-- Title: TemperatureController::_checkPointForAlarms Pages: 1 -->
<svg width="528pt" height="321pt"
 viewBox="0.00 0.00 528.00 321.00" xmlns="http://www.w3.org/2000/svg" xmlns:xlink="http://www.w3.org/1999/xlink">
<g id="graph0" class="graph" transform="scale(1 1) rotate(0) translate(4 316.5)">
<title>TemperatureController::_checkPointForAlarms</title>
<!-- Node1 -->
<g id="Node000001" class="node">
<title>Node1</title>
<g id="a_Node000001"><a xlink:title="Check measurement point for alarm conditions.">
<polygon fill="#999999" stroke="#666666" points="121,-171.5 0,-171.5 0,-141 121,-141 121,-171.5"/>
<text xml:space="preserve" text-anchor="start" x="8" y="-158" font-family="Helvetica,sans-Serif" font-size="10.00">TemperatureController</text>
<text xml:space="preserve" text-anchor="middle" x="60.5" y="-146.75" font-family="Helvetica,sans-Serif" font-size="10.00">::_checkPointForAlarms</text>
</a>
</g>
</g>
<!-- Node2 -->
<g id="Node000002" class="node">
<title>Node2</title>
<g id="a_Node000002"><a xlink:href="class_temperature_controller.html#a4e75dbef3c1ce99afd4ec8e71102e836" target="_top" xlink:title="Check if alarm exists for point and type.">
<polygon fill="white" stroke="#666666" points="299.75,-312.5 187.75,-312.5 187.75,-282 299.75,-282 299.75,-312.5"/>
<text xml:space="preserve" text-anchor="start" x="195.75" y="-299" font-family="Helvetica,sans-Serif" font-size="10.00">TemperatureController</text>
<text xml:space="preserve" text-anchor="middle" x="243.75" y="-287.75" font-family="Helvetica,sans-Serif" font-size="10.00">::_hasAlarmForPoint</text>
</a>
</g>
</g>
<!-- Node1&#45;&gt;Node2 -->
<g id="edge1_Node000001_Node000002" class="edge">
<title>Node1&#45;&gt;Node2</title>
<g id="a_edge1_Node000001_Node000002"><a xlink:title=" ">
<path fill="none" stroke="#63b8ff" d="M70.17,-171.94C84.78,-196.94 116.71,-245.69 157,-272.25 163.18,-276.32 170.03,-279.74 177.09,-282.62"/>
<polygon fill="#63b8ff" stroke="#63b8ff" points="175.52,-285.77 186.11,-285.93 177.93,-279.2 175.52,-285.77"/>
</a>
</g>
</g>
<!-- Node3 -->
<g id="Node000003" class="node">
<title>Node3</title>
<g id="a_Node000003"><a xlink:href="class_temperature_controller.html#aa64384fb8503814b46a7d55f53ccb53a" target="_top" xlink:title="Create new alarm for measurement point.">
<polygon fill="white" stroke="#666666" points="299.75,-263.5 187.75,-263.5 187.75,-233 299.75,-233 299.75,-263.5"/>
<text xml:space="preserve" text-anchor="start" x="195.75" y="-250" font-family="Helvetica,sans-Serif" font-size="10.00">TemperatureController</text>
<text xml:space="preserve" text-anchor="middle" x="243.75" y="-238.75" font-family="Helvetica,sans-Serif" font-size="10.00">::createAlarm</text>
</a>
</g>
</g>
<!-- Node1&#45;&gt;Node3 -->
<g id="edge2_Node000001_Node000003" class="edge">
<title>Node1&#45;&gt;Node3</title>
<g id="a_edge2_Node000001_Node000003"><a xlink:title=" ">
<path fill="none" stroke="#63b8ff" d="M79.74,-171.81C98.16,-186.84 127.97,-209.31 157,-223.25 163.24,-226.25 169.91,-228.96 176.67,-231.39"/>
<polygon fill="#63b8ff" stroke="#63b8ff" points="175.29,-234.62 185.88,-234.51 177.53,-227.99 175.29,-234.62"/>
</a>
</g>
</g>
<!-- Node6 -->
<g id="Node000006" class="node">
<title>Node6</title>
<g id="a_Node000006"><a xlink:href="class_measurement_point.html#a81c7ae93a9314344967d0f31c6fefe2f" target="_top" xlink:title="Get pointer to bound sensor.">
<polygon fill="white" stroke="#666666" points="316.25,-214.5 171.25,-214.5 171.25,-184 316.25,-184 316.25,-214.5"/>
<text xml:space="preserve" text-anchor="start" x="179.25" y="-201" font-family="Helvetica,sans-Serif" font-size="10.00">MeasurementPoint::getBound</text>
<text xml:space="preserve" text-anchor="middle" x="243.75" y="-189.75" font-family="Helvetica,sans-Serif" font-size="10.00">Sensor</text>
</a>
</g>
</g>
<!-- Node1&#45;&gt;Node6 -->
<g id="edge5_Node000001_Node000006" class="edge">
<title>Node1&#45;&gt;Node6</title>
<g id="a_edge5_Node000001_Node000006"><a xlink:title=" ">
<path fill="none" stroke="#63b8ff" d="M121.35,-170.45C135.4,-173.78 150.57,-177.38 165.27,-180.87"/>
<polygon fill="#63b8ff" stroke="#63b8ff" points="164.38,-184.26 174.92,-183.16 166,-177.44 164.38,-184.26"/>
</a>
</g>
</g>
<!-- Node7 -->
<g id="Node000007" class="node">
<title>Node7</title>
<g id="a_Node000007"><a xlink:href="class_measurement_point.html#aceaf14fde40bcd5331e5ea6a07d7dde8" target="_top" xlink:title="Get current temperature.">
<polygon fill="white" stroke="#666666" points="330.5,-165.88 157,-165.88 157,-146.62 330.5,-146.62 330.5,-165.88"/>
<text xml:space="preserve" text-anchor="middle" x="243.75" y="-152.38" font-family="Helvetica,sans-Serif" font-size="10.00">MeasurementPoint::getCurrentTemp</text>
</a>
</g>
</g>
<!-- Node1&#45;&gt;Node7 -->
<g id="edge6_Node000001_Node000007" class="edge">
<title>Node1&#45;&gt;Node7</title>
<g id="a_edge6_Node000001_Node000007"><a xlink:title=" ">
<path fill="none" stroke="#63b8ff" d="M121.35,-156.25C129.06,-156.25 137.11,-156.25 145.23,-156.25"/>
<polygon fill="#63b8ff" stroke="#63b8ff" points="145.22,-159.75 155.22,-156.25 145.22,-152.75 145.22,-159.75"/>
</a>
</g>
</g>
<!-- Node8 -->
<g id="Node000008" class="node">
<title>Node8</title>
<g id="a_Node000008"><a xlink:href="class_measurement_point.html#a3fb0693931f12190a7f96e5d6be51b51" target="_top" xlink:title="Get error status bits.">
<polygon fill="white" stroke="#666666" points="312.88,-128.5 174.62,-128.5 174.62,-98 312.88,-98 312.88,-128.5"/>
<text xml:space="preserve" text-anchor="start" x="182.62" y="-115" font-family="Helvetica,sans-Serif" font-size="10.00">MeasurementPoint::getError</text>
<text xml:space="preserve" text-anchor="middle" x="243.75" y="-103.75" font-family="Helvetica,sans-Serif" font-size="10.00">Status</text>
</a>
</g>
</g>
<!-- Node1&#45;&gt;Node8 -->
<g id="edge7_Node000001_Node000008" class="edge">
<title>Node1&#45;&gt;Node8</title>
<g id="a_edge7_Node000001_Node000008"><a xlink:title=" ">
<path fill="none" stroke="#63b8ff" d="M121.35,-142.05C135.4,-138.72 150.57,-135.12 165.27,-131.63"/>
<polygon fill="#63b8ff" stroke="#63b8ff" points="166,-135.06 174.92,-129.34 164.38,-128.24 166,-135.06"/>
</a>
</g>
</g>
<!-- Node9 -->
<g id="Node000009" class="node">
<title>Node9</title>
<g id="a_Node000009"><a xlink:href="class_measurement_point.html#a71d6d440240f110cbd80c58bbc47aff6" target="_top" xlink:title="Get high alarm threshold.">
<polygon fill="white" stroke="#666666" points="312.5,-79.5 175,-79.5 175,-49 312.5,-49 312.5,-79.5"/>
<text xml:space="preserve" text-anchor="start" x="183" y="-66" font-family="Helvetica,sans-Serif" font-size="10.00">MeasurementPoint::getHigh</text>
<text xml:space="preserve" text-anchor="middle" x="243.75" y="-54.75" font-family="Helvetica,sans-Serif" font-size="10.00">AlarmThreshold</text>
</a>
</g>
</g>
<!-- Node1&#45;&gt;Node9 -->
<g id="edge8_Node000001_Node000009" class="edge">
<title>Node1&#45;&gt;Node9</title>
<g id="a_edge8_Node000001_Node000009"><a xlink:title=" ">
<path fill="none" stroke="#63b8ff" d="M79.74,-140.69C98.16,-125.66 127.97,-103.19 157,-89.25 160.98,-87.34 165.13,-85.55 169.36,-83.87"/>
<polygon fill="#63b8ff" stroke="#63b8ff" points="170.44,-87.2 178.6,-80.45 168.01,-80.64 170.44,-87.2"/>
</a>
</g>
</g>
<!-- Node10 -->
<g id="Node000010" class="node">
<title>Node10</title>
<g id="a_Node000010"><a xlink:href="class_measurement_point.html#a6e538e117d9e22c6998b56519a51d6ba" target="_top" xlink:title="Get low alarm threshold.">
<polygon fill="white" stroke="#666666" points="311.38,-30.5 176.12,-30.5 176.12,0 311.38,0 311.38,-30.5"/>
<text xml:space="preserve" text-anchor="start" x="184.12" y="-17" font-family="Helvetica,sans-Serif" font-size="10.00">MeasurementPoint::getLow</text>
<text xml:space="preserve" text-anchor="middle" x="243.75" y="-5.75" font-family="Helvetica,sans-Serif" font-size="10.00">AlarmThreshold</text>
</a>
</g>
</g>
<!-- Node1&#45;&gt;Node10 -->
<g id="edge9_Node000001_Node000010" class="edge">
<title>Node1&#45;&gt;Node10</title>
<g id="a_edge9_Node000001_Node000010"><a xlink:title=" ">
<path fill="none" stroke="#63b8ff" d="M70.17,-140.56C84.78,-115.56 116.71,-66.81 157,-40.25 159.73,-38.45 162.59,-36.78 165.55,-35.22"/>
<polygon fill="#63b8ff" stroke="#63b8ff" points="166.95,-38.43 174.52,-31.02 163.98,-32.09 166.95,-38.43"/>
</a>
</g>
</g>
<!-- Node4 -->
<g id="Node000004" class="node">
<title>Node4</title>
<g id="a_Node000004"><a xlink:href="class_measurement_point.html#a7b74a18d86e0e545264a774aa2c31cad" target="_top" xlink:title="Get measurement point address.">
<polygon fill="white" stroke="#666666" points="519.75,-275.88 366.5,-275.88 366.5,-256.62 519.75,-256.62 519.75,-275.88"/>
<text xml:space="preserve" text-anchor="middle" x="443.12" y="-262.38" font-family="Helvetica,sans-Serif" font-size="10.00">MeasurementPoint::getAddress</text>
</a>
</g>
</g>
<!-- Node3&#45;&gt;Node4 -->
<g id="edge3_Node000003_Node000004" class="edge">
<title>Node3&#45;&gt;Node4</title>
<g id="a_edge3_Node000003_Node000004"><a xlink:title=" ">
<path fill="none" stroke="#63b8ff" d="M299.99,-253.29C317.07,-254.85 336.32,-256.6 355.01,-258.31"/>
<polygon fill="#63b8ff" stroke="#63b8ff" points="354.45,-261.77 364.73,-259.19 355.09,-254.8 354.45,-261.77"/>
</a>
</g>
</g>
<!-- Node5 -->
<g id="Node000005" class="node">
<title>Node5</title>
<g id="a_Node000005"><a xlink:href="class_alarm.html#ad116a3e8b622810e1769568fbac16379" target="_top" xlink:title="Set the configuration key.">
<polygon fill="white" stroke="#666666" points="496.5,-238.88 389.75,-238.88 389.75,-219.62 496.5,-219.62 496.5,-238.88"/>
<text xml:space="preserve" text-anchor="middle" x="443.12" y="-225.38" font-family="Helvetica,sans-Serif" font-size="10.00">Alarm::setConfigKey</text>
</a>
</g>
</g>
<!-- Node3&#45;&gt;Node5 -->
<g id="edge4_Node000003_Node000005" class="edge">
<title>Node3&#45;&gt;Node5</title>
<g id="a_edge4_Node000003_Node000005"><a xlink:title=" ">
<path fill="none" stroke="#63b8ff" d="M299.99,-242.93C324.22,-240.6 352.82,-237.85 377.98,-235.42"/>
<polygon fill="#63b8ff" stroke="#63b8ff" points="378.15,-238.92 387.77,-234.48 377.48,-231.96 378.15,-238.92"/>
</a>
</g>
</g>
</g>
</svg>
