<?xml version="1.0" encoding="UTF-8" standalone="no"?>
<!DOCTYPE svg PUBLIC "-//W3C//DTD SVG 1.1//EN"
 "http://www.w3.org/Graphics/SVG/1.1/DTD/svg11.dtd">
<!-- Generated by graphviz version 13.1.0 (20250701.0955)
 -->
<!-- Title: TemperatureController::update Pages: 1 -->
<svg width="1323pt" height="859pt"
 viewBox="0.00 0.00 1323.00 859.00" xmlns="http://www.w3.org/2000/svg" xmlns:xlink="http://www.w3.org/1999/xlink">
<g id="graph0" class="graph" transform="scale(1 1) rotate(0) translate(4 854.88)">
<title>TemperatureController::update</title>
<!-- Node1 -->
<g id="Node000001" class="node">
<title>Node1</title>
<g id="a_Node000001"><a xlink:title="Main update function &#45; must be called in loop()">
<polygon fill="#999999" stroke="#666666" points="112,-236.88 0,-236.88 0,-206.38 112,-206.38 112,-236.88"/>
<text xml:space="preserve" text-anchor="start" x="8" y="-223.38" font-family="Helvetica,sans-Serif" font-size="10.00">TemperatureController</text>
<text xml:space="preserve" text-anchor="middle" x="56" y="-212.12" font-family="Helvetica,sans-Serif" font-size="10.00">::update</text>
</a>
</g>
</g>
<!-- Node2 -->
<g id="Node000002" class="node">
<title>Node2</title>
<g id="a_Node000002"><a xlink:href="class_temperature_controller.html#a1228b63e95f26c21a8d9c2a27928bc75" target="_top" xlink:title="Check for button press and handle acknowledgment.">
<polygon fill="white" stroke="#666666" points="421.88,-654.88 309.88,-654.88 309.88,-624.38 421.88,-624.38 421.88,-654.88"/>
<text xml:space="preserve" text-anchor="start" x="317.88" y="-641.38" font-family="Helvetica,sans-Serif" font-size="10.00">TemperatureController</text>
<text xml:space="preserve" text-anchor="middle" x="365.88" y="-630.12" font-family="Helvetica,sans-Serif" font-size="10.00">::_checkButtonPress</text>
</a>
</g>
</g>
<!-- Node1&#45;&gt;Node2 -->
<g id="edge1_Node000001_Node000002" class="edge">
<title>Node1&#45;&gt;Node2</title>
<g id="a_edge1_Node000001_Node000002"><a xlink:title=" ">
<path fill="none" stroke="#63b8ff" d="M58.24,-236.94C63.93,-303 89.76,-562.61 148,-614.62 188.22,-650.54 250.71,-654.26 298.31,-650.47"/>
<polygon fill="#63b8ff" stroke="#63b8ff" points="298.62,-653.96 308.25,-649.54 297.96,-646.99 298.62,-653.96"/>
</a>
</g>
</g>
<!-- Node5 -->
<g id="Node000005" class="node">
<title>Node5</title>
<g id="a_Node000005"><a xlink:href="class_temperature_controller.html#a5637103784725fb1a73f6463d7cbfde6" target="_top" xlink:title="Handle alarm display on OLED/LEDs.">
<polygon fill="white" stroke="#666666" points="260,-605.88 148,-605.88 148,-575.38 260,-575.38 260,-605.88"/>
<text xml:space="preserve" text-anchor="start" x="156" y="-592.38" font-family="Helvetica,sans-Serif" font-size="10.00">TemperatureController</text>
<text xml:space="preserve" text-anchor="middle" x="204" y="-581.12" font-family="Helvetica,sans-Serif" font-size="10.00">::handleAlarmDisplay</text>
</a>
</g>
</g>
<!-- Node1&#45;&gt;Node5 -->
<g id="edge4_Node000001_Node000005" class="edge">
<title>Node1&#45;&gt;Node5</title>
<g id="a_edge4_Node000001_Node000005"><a xlink:title=" ">
<path fill="none" stroke="#63b8ff" d="M63.09,-237.01C85.63,-293.98 164.5,-493.31 192.8,-564.83"/>
<polygon fill="#63b8ff" stroke="#63b8ff" points="189.4,-565.76 196.33,-573.77 195.9,-563.18 189.4,-565.76"/>
</a>
</g>
</g>
<!-- Node28 -->
<g id="Node000028" class="node">
<title>Node28</title>
<g id="a_Node000028"><a xlink:href="class_temperature_controller.html#a82e4c37ff4121eaf5e00e9c52381e840" target="_top" xlink:title="Handle alarm output signals.">
<polygon fill="white" stroke="#666666" points="260,-158.88 148,-158.88 148,-128.38 260,-128.38 260,-158.88"/>
<text xml:space="preserve" text-anchor="start" x="156" y="-145.38" font-family="Helvetica,sans-Serif" font-size="10.00">TemperatureController</text>
<text xml:space="preserve" text-anchor="middle" x="204" y="-134.12" font-family="Helvetica,sans-Serif" font-size="10.00">::handleAlarmOutputs</text>
</a>
</g>
</g>
<!-- Node1&#45;&gt;Node28 -->
<g id="edge32_Node000001_Node000028" class="edge">
<title>Node1&#45;&gt;Node28</title>
<g id="a_edge32_Node000001_Node000028"><a xlink:title=" ">
<path fill="none" stroke="#63b8ff" d="M82.11,-206.08C100.18,-195.13 125.26,-180.38 148,-168.62 150.88,-167.14 153.87,-165.64 156.9,-164.16"/>
<polygon fill="#63b8ff" stroke="#63b8ff" points="158.35,-167.35 165.88,-159.89 155.34,-161.03 158.35,-167.35"/>
</a>
</g>
</g>
<!-- Node30 -->
<g id="Node000030" class="node">
<title>Node30</title>
<g id="a_Node000030"><a xlink:href="class_temperature_controller.html#a11948a87fe7df37543b86ecdd488b341" target="_top" xlink:title="Read temperature from all configured measurement points.">
<polygon fill="white" stroke="#666666" points="260,-109.88 148,-109.88 148,-79.38 260,-79.38 260,-109.88"/>
<text xml:space="preserve" text-anchor="start" x="156" y="-96.38" font-family="Helvetica,sans-Serif" font-size="10.00">TemperatureController</text>
<text xml:space="preserve" text-anchor="middle" x="204" y="-85.12" font-family="Helvetica,sans-Serif" font-size="10.00">::readAllPoints</text>
</a>
</g>
</g>
<!-- Node1&#45;&gt;Node30 -->
<g id="edge35_Node000001_Node000030" class="edge">
<title>Node1&#45;&gt;Node30</title>
<g id="a_edge35_Node000001_Node000030"><a xlink:title=" ">
<path fill="none" stroke="#63b8ff" d="M64.12,-205.92C77.03,-183.83 106.07,-144.56 139.83,-116.99"/>
<polygon fill="#63b8ff" stroke="#63b8ff" points="141.56,-120.08 147.31,-111.18 137.27,-114.55 141.56,-120.08"/>
</a>
</g>
</g>
<!-- Node31 -->
<g id="Node000031" class="node">
<title>Node31</title>
<g id="a_Node000031"><a xlink:href="class_temperature_controller.html#a5ac8af90de5dfd79a9a2e4c7270a98a3" target="_top" xlink:title="Update alarm states for all measurement points.">
<polygon fill="white" stroke="#666666" points="608.88,-379.88 496.88,-379.88 496.88,-349.38 608.88,-349.38 608.88,-379.88"/>
<text xml:space="preserve" text-anchor="start" x="504.88" y="-366.38" font-family="Helvetica,sans-Serif" font-size="10.00">TemperatureController</text>
<text xml:space="preserve" text-anchor="middle" x="552.88" y="-355.12" font-family="Helvetica,sans-Serif" font-size="10.00">::updateAlarms</text>
</a>
</g>
</g>
<!-- Node1&#45;&gt;Node31 -->
<g id="edge37_Node000001_Node000031" class="edge">
<title>Node1&#45;&gt;Node31</title>
<g id="a_edge37_Node000001_Node000031"><a xlink:title=" ">
<path fill="none" stroke="#63b8ff" d="M83.07,-237.24C100.95,-247.55 125.42,-260.9 148,-270.62 211.63,-298.04 228.81,-302.69 296,-319.62 359.57,-335.65 433.43,-347.98 485.4,-355.65"/>
<polygon fill="#63b8ff" stroke="#63b8ff" points="484.58,-359.07 494.98,-357.04 485.59,-352.14 484.58,-359.07"/>
</a>
</g>
</g>
<!-- Node32 -->
<g id="Node000032" class="node">
<title>Node32</title>
<g id="a_Node000032"><a xlink:href="class_temperature_controller.html#a23dca296a268baa9b8234c8bf9cf0c3e" target="_top" xlink:title="Update temperature readings for all sensors.">
<polygon fill="white" stroke="#666666" points="260,-261.88 148,-261.88 148,-231.38 260,-231.38 260,-261.88"/>
<text xml:space="preserve" text-anchor="start" x="156" y="-248.38" font-family="Helvetica,sans-Serif" font-size="10.00">TemperatureController</text>
<text xml:space="preserve" text-anchor="middle" x="204" y="-237.12" font-family="Helvetica,sans-Serif" font-size="10.00">::updateAllSensors</text>
</a>
</g>
</g>
<!-- Node1&#45;&gt;Node32 -->
<g id="edge40_Node000001_Node000032" class="edge">
<title>Node1&#45;&gt;Node32</title>
<g id="a_edge40_Node000001_Node000032"><a xlink:title=" ">
<path fill="none" stroke="#63b8ff" d="M112.2,-231.08C120.1,-232.43 128.3,-233.83 136.39,-235.22"/>
<polygon fill="#63b8ff" stroke="#63b8ff" points="135.79,-238.67 146.23,-236.9 136.97,-231.77 135.79,-238.67"/>
</a>
</g>
</g>
<!-- Node38 -->
<g id="Node000038" class="node">
<title>Node38</title>
<g id="a_Node000038"><a xlink:href="class_temperature_controller.html#a62b93899a3b8b55e2e0bd933520c2892" target="_top" xlink:title="Update register map with current values from measurement points.">
<polygon fill="white" stroke="#666666" points="260,-207.88 148,-207.88 148,-177.38 260,-177.38 260,-207.88"/>
<text xml:space="preserve" text-anchor="start" x="156" y="-194.38" font-family="Helvetica,sans-Serif" font-size="10.00">TemperatureController</text>
<text xml:space="preserve" text-anchor="middle" x="204" y="-183.12" font-family="Helvetica,sans-Serif" font-size="10.00">::updateRegisterMap</text>
</a>
</g>
</g>
<!-- Node1&#45;&gt;Node38 -->
<g id="edge46_Node000001_Node000038" class="edge">
<title>Node1&#45;&gt;Node38</title>
<g id="a_edge46_Node000001_Node000038"><a xlink:title=" ">
<path fill="none" stroke="#63b8ff" d="M112.2,-210.66C120.19,-209.07 128.49,-207.43 136.67,-205.8"/>
<polygon fill="#63b8ff" stroke="#63b8ff" points="137.11,-209.28 146.24,-203.9 135.75,-202.41 137.11,-209.28"/>
</a>
</g>
</g>
<!-- Node3 -->
<g id="Node000003" class="node">
<title>Node3</title>
<g id="a_Node000003"><a xlink:href="class_temperature_controller.html#ac44de0834e13cec755e247ce1df21f09" target="_top" xlink:title="Display next acknowledged alarm.">
<polygon fill="white" stroke="#666666" points="838.25,-850.88 670,-850.88 670,-820.38 838.25,-820.38 838.25,-850.88"/>
<text xml:space="preserve" text-anchor="start" x="678" y="-837.38" font-family="Helvetica,sans-Serif" font-size="10.00">TemperatureController</text>
<text xml:space="preserve" text-anchor="middle" x="754.12" y="-826.12" font-family="Helvetica,sans-Serif" font-size="10.00">::_displayNextAcknowledgedAlarm</text>
</a>
</g>
</g>
<!-- Node2&#45;&gt;Node3 -->
<g id="edge2_Node000002_Node000003" class="edge">
<title>Node2&#45;&gt;Node3</title>
<g id="a_edge2_Node000002_Node000003"><a xlink:title=" ">
<path fill="none" stroke="#63b8ff" d="M375.72,-654.98C391.54,-681.04 427.23,-733.78 471.75,-761.62 528.16,-796.91 601.01,-815.47 658.45,-825.18"/>
<polygon fill="#63b8ff" stroke="#63b8ff" points="657.8,-828.62 668.23,-826.77 658.92,-821.71 657.8,-828.62"/>
</a>
</g>
</g>
<!-- Node4 -->
<g id="Node000004" class="node">
<title>Node4</title>
<g id="a_Node000004"><a xlink:href="class_temperature_controller.html#a3955f205bc33dda762cbe5c572cd4f21" target="_top" xlink:title="Switch to a new display section.">
<polygon fill="white" stroke="#666666" points="810.12,-654.88 698.12,-654.88 698.12,-624.38 810.12,-624.38 810.12,-654.88"/>
<text xml:space="preserve" text-anchor="start" x="706.12" y="-641.38" font-family="Helvetica,sans-Serif" font-size="10.00">TemperatureController</text>
<text xml:space="preserve" text-anchor="middle" x="754.12" y="-630.12" font-family="Helvetica,sans-Serif" font-size="10.00">::_switchToSection</text>
</a>
</g>
</g>
<!-- Node2&#45;&gt;Node4 -->
<g id="edge3_Node000002_Node000004" class="edge">
<title>Node2&#45;&gt;Node4</title>
<g id="a_edge3_Node000002_Node000004"><a xlink:title=" ">
<path fill="none" stroke="#63b8ff" d="M422.22,-639.62C492.06,-639.62 612.06,-639.62 686.76,-639.62"/>
<polygon fill="#63b8ff" stroke="#63b8ff" points="686.37,-643.13 696.37,-639.63 686.37,-636.13 686.37,-643.13"/>
</a>
</g>
</g>
<!-- Node5&#45;&gt;Node2 -->
<g id="edge5_Node000005_Node000002" class="edge">
<title>Node5&#45;&gt;Node2</title>
<g id="a_edge5_Node000005_Node000002"><a xlink:title=" ">
<path fill="none" stroke="#63b8ff" d="M256.03,-606.26C270.95,-610.84 287.43,-615.89 302.95,-620.65"/>
<polygon fill="#63b8ff" stroke="#63b8ff" points="301.48,-623.86 312.06,-623.44 303.53,-617.16 301.48,-623.86"/>
</a>
</g>
</g>
<!-- Node6 -->
<g id="Node000006" class="node">
<title>Node6</title>
<g id="a_Node000006"><a xlink:href="class_temperature_controller.html#a6b2f92b5c2af867240200cff2e61e806" target="_top" xlink:title="Handle display section switching.">
<polygon fill="white" stroke="#666666" points="429.38,-605.88 302.38,-605.88 302.38,-575.38 429.38,-575.38 429.38,-605.88"/>
<text xml:space="preserve" text-anchor="start" x="310.38" y="-592.38" font-family="Helvetica,sans-Serif" font-size="10.00">TemperatureController</text>
<text xml:space="preserve" text-anchor="middle" x="365.88" y="-581.12" font-family="Helvetica,sans-Serif" font-size="10.00">::_handleDisplaySections</text>
</a>
</g>
</g>
<!-- Node5&#45;&gt;Node6 -->
<g id="edge6_Node000005_Node000006" class="edge">
<title>Node5&#45;&gt;Node6</title>
<g id="a_edge6_Node000005_Node000006"><a xlink:title=" ">
<path fill="none" stroke="#63b8ff" d="M260.47,-590.62C270.23,-590.62 280.53,-590.62 290.71,-590.62"/>
<polygon fill="#63b8ff" stroke="#63b8ff" points="290.6,-594.13 300.6,-590.63 290.6,-587.13 290.6,-594.13"/>
</a>
</g>
</g>
<!-- Node6&#45;&gt;Node4 -->
<g id="edge27_Node000006_Node000004" class="edge">
<title>Node6&#45;&gt;Node4</title>
<g id="a_edge27_Node000006_Node000004"><a xlink:title=" ">
<path fill="none" stroke="#63b8ff" d="M429.79,-598.61C500.41,-607.56 614.49,-622.04 686.56,-631.18"/>
<polygon fill="#63b8ff" stroke="#63b8ff" points="685.89,-634.62 696.25,-632.41 686.77,-627.68 685.89,-634.62"/>
</a>
</g>
</g>
<!-- Node7 -->
<g id="Node000007" class="node">
<title>Node7</title>
<g id="a_Node000007"><a xlink:href="class_temperature_controller.html#a1d2745c323f7094beac8f406825499b7" target="_top" xlink:title="Handle alarm display rotation timing.">
<polygon fill="white" stroke="#666666" points="628.38,-752.88 477.38,-752.88 477.38,-722.38 628.38,-722.38 628.38,-752.88"/>
<text xml:space="preserve" text-anchor="start" x="485.38" y="-739.38" font-family="Helvetica,sans-Serif" font-size="10.00">TemperatureController</text>
<text xml:space="preserve" text-anchor="middle" x="552.88" y="-728.12" font-family="Helvetica,sans-Serif" font-size="10.00">::_handleAlarmDisplayRotation</text>
</a>
</g>
</g>
<!-- Node6&#45;&gt;Node7 -->
<g id="edge7_Node000006_Node000007" class="edge">
<title>Node6&#45;&gt;Node7</title>
<g id="a_edge7_Node000006_Node000007"><a xlink:title=" ">
<path fill="none" stroke="#63b8ff" d="M422.96,-606.36C427.59,-609 431.94,-612.06 435.75,-615.62 464.8,-642.83 444.31,-668.8 471.75,-697.62 478.91,-705.15 487.8,-711.47 497.01,-716.71"/>
<polygon fill="#63b8ff" stroke="#63b8ff" points="495.26,-719.74 505.74,-721.27 498.5,-713.53 495.26,-719.74"/>
</a>
</g>
</g>
<!-- Node10 -->
<g id="Node000010" class="node">
<title>Node10</title>
<g id="a_Node000010"><a xlink:href="class_temperature_controller.html#a4d36576f7d6ab8f5222a082878314912" target="_top" xlink:title="Update normal temperature display.">
<polygon fill="white" stroke="#666666" points="814.62,-703.88 693.62,-703.88 693.62,-673.38 814.62,-673.38 814.62,-703.88"/>
<text xml:space="preserve" text-anchor="start" x="701.62" y="-690.38" font-family="Helvetica,sans-Serif" font-size="10.00">TemperatureController</text>
<text xml:space="preserve" text-anchor="middle" x="754.12" y="-679.12" font-family="Helvetica,sans-Serif" font-size="10.00">::_updateNormalDisplay</text>
</a>
</g>
</g>
<!-- Node6&#45;&gt;Node10 -->
<g id="edge31_Node000006_Node000010" class="edge">
<title>Node6&#45;&gt;Node10</title>
<g id="a_edge31_Node000006_Node000010"><a xlink:title=" ">
<path fill="none" stroke="#63b8ff" d="M409.95,-606.27C438.52,-616.64 470.92,-628.39 471.75,-628.62 542.43,-648.86 624.85,-665.66 682.14,-676.29"/>
<polygon fill="#63b8ff" stroke="#63b8ff" points="681.3,-679.69 691.77,-678.06 682.56,-672.81 681.3,-679.69"/>
</a>
</g>
</g>
<!-- Node11 -->
<g id="Node000011" class="node">
<title>Node11</title>
<g id="a_Node000011"><a xlink:href="class_temperature_controller.html#a45f7994a3a052a527981dbfdad27606b" target="_top" xlink:title="Handle system status mode display.">
<polygon fill="white" stroke="#666666" points="623.88,-556.88 481.88,-556.88 481.88,-526.38 623.88,-526.38 623.88,-556.88"/>
<text xml:space="preserve" text-anchor="start" x="489.88" y="-543.38" font-family="Helvetica,sans-Serif" font-size="10.00">TemperatureController</text>
<text xml:space="preserve" text-anchor="middle" x="552.88" y="-532.12" font-family="Helvetica,sans-Serif" font-size="10.00">::_handleSystemStatusMode</text>
</a>
</g>
</g>
<!-- Node6&#45;&gt;Node11 -->
<g id="edge12_Node000006_Node000011" class="edge">
<title>Node6&#45;&gt;Node11</title>
<g id="a_edge12_Node000006_Node000011"><a xlink:title=" ">
<path fill="none" stroke="#63b8ff" d="M426.17,-574.92C443.85,-570.24 463.39,-565.06 481.69,-560.21"/>
<polygon fill="#63b8ff" stroke="#63b8ff" points="482.36,-563.66 491.13,-557.71 480.57,-556.89 482.36,-563.66"/>
</a>
</g>
</g>
<!-- Node25 -->
<g id="Node000025" class="node">
<title>Node25</title>
<g id="a_Node000025"><a xlink:href="class_temperature_controller.html#a477597992aa9362076843f37b648741a" target="_top" xlink:title="Update alarm display queues.">
<polygon fill="white" stroke="#666666" points="610.75,-428.88 495,-428.88 495,-398.38 610.75,-398.38 610.75,-428.88"/>
<text xml:space="preserve" text-anchor="start" x="503" y="-415.38" font-family="Helvetica,sans-Serif" font-size="10.00">TemperatureController</text>
<text xml:space="preserve" text-anchor="middle" x="552.88" y="-404.12" font-family="Helvetica,sans-Serif" font-size="10.00">::_updateAlarmQueues</text>
</a>
</g>
</g>
<!-- Node6&#45;&gt;Node25 -->
<g id="edge28_Node000006_Node000025" class="edge">
<title>Node6&#45;&gt;Node25</title>
<g id="a_edge28_Node000006_Node000025"><a xlink:title=" ">
<path fill="none" stroke="#63b8ff" d="M383.29,-574.92C415.93,-543.69 489.12,-473.67 527.43,-437.01"/>
<polygon fill="#63b8ff" stroke="#63b8ff" points="529.59,-439.79 534.4,-430.34 524.76,-434.73 529.59,-439.79"/>
</a>
</g>
</g>
<!-- Node7&#45;&gt;Node3 -->
<g id="edge8_Node000007_Node000003" class="edge">
<title>Node7&#45;&gt;Node3</title>
<g id="a_edge8_Node000007_Node000003"><a xlink:title=" ">
<path fill="none" stroke="#63b8ff" d="M574.73,-753.17C597.25,-769.36 634.66,-794.56 670,-810.62 674.24,-812.55 678.68,-814.38 683.19,-816.11"/>
<polygon fill="#63b8ff" stroke="#63b8ff" points="681.8,-819.32 692.39,-819.42 684.17,-812.74 681.8,-819.32"/>
</a>
</g>
</g>
<!-- Node8 -->
<g id="Node000008" class="node">
<title>Node8</title>
<g id="a_Node000008"><a xlink:href="class_temperature_controller.html#a7ca5124357f98bcd52316cf017341b09" target="_top" xlink:title="Display next active alarm in rotation.">
<polygon fill="white" stroke="#666666" points="820.25,-801.88 688,-801.88 688,-771.38 820.25,-771.38 820.25,-801.88"/>
<text xml:space="preserve" text-anchor="start" x="696" y="-788.38" font-family="Helvetica,sans-Serif" font-size="10.00">TemperatureController</text>
<text xml:space="preserve" text-anchor="middle" x="754.12" y="-777.12" font-family="Helvetica,sans-Serif" font-size="10.00">::_displayNextActiveAlarm</text>
</a>
</g>
</g>
<!-- Node7&#45;&gt;Node8 -->
<g id="edge9_Node000007_Node000008" class="edge">
<title>Node7&#45;&gt;Node8</title>
<g id="a_edge9_Node000007_Node000008"><a xlink:title=" ">
<path fill="none" stroke="#63b8ff" d="M617.74,-753.33C637.05,-758.08 658.42,-763.33 678.36,-768.24"/>
<polygon fill="#63b8ff" stroke="#63b8ff" points="677.26,-771.57 687.81,-770.56 678.93,-764.78 677.26,-771.57"/>
</a>
</g>
</g>
<!-- Node9 -->
<g id="Node000009" class="node">
<title>Node9</title>
<g id="a_Node000009"><a xlink:href="class_temperature_controller.html#a28e81945f5235e161e6c532b428d36d2" target="_top" xlink:title="Show OK status and turn off OLED after delay.">
<polygon fill="white" stroke="#666666" points="825.12,-752.88 683.12,-752.88 683.12,-722.38 825.12,-722.38 825.12,-752.88"/>
<text xml:space="preserve" text-anchor="start" x="691.12" y="-739.38" font-family="Helvetica,sans-Serif" font-size="10.00">TemperatureController</text>
<text xml:space="preserve" text-anchor="middle" x="754.12" y="-728.12" font-family="Helvetica,sans-Serif" font-size="10.00">::_showOKAndTurnOffOLED</text>
</a>
</g>
</g>
<!-- Node7&#45;&gt;Node9 -->
<g id="edge10_Node000007_Node000009" class="edge">
<title>Node7&#45;&gt;Node9</title>
<g id="a_edge10_Node000007_Node000009"><a xlink:title=" ">
<path fill="none" stroke="#63b8ff" d="M628.64,-737.62C642.66,-737.62 657.39,-737.62 671.62,-737.62"/>
<polygon fill="#63b8ff" stroke="#63b8ff" points="671.38,-741.13 681.38,-737.63 671.38,-734.13 671.38,-741.13"/>
</a>
</g>
</g>
<!-- Node7&#45;&gt;Node10 -->
<g id="edge11_Node000007_Node000010" class="edge">
<title>Node7&#45;&gt;Node10</title>
<g id="a_edge11_Node000007_Node000010"><a xlink:title=" ">
<path fill="none" stroke="#63b8ff" d="M617.74,-721.92C638.29,-716.86 661.19,-711.23 682.21,-706.06"/>
<polygon fill="#63b8ff" stroke="#63b8ff" points="683,-709.47 691.87,-703.69 681.33,-702.68 683,-709.47"/>
</a>
</g>
</g>
<!-- Node11&#45;&gt;Node4 -->
<g id="edge26_Node000011_Node000004" class="edge">
<title>Node11&#45;&gt;Node4</title>
<g id="a_edge26_Node000011_Node000004"><a xlink:title=" ">
<path fill="none" stroke="#63b8ff" d="M589.28,-557.34C603.63,-564.31 620.07,-573.1 634,-582.62 651.67,-594.71 651.31,-604.19 670,-614.62 675.34,-617.61 681.09,-620.28 686.96,-622.65"/>
<polygon fill="#63b8ff" stroke="#63b8ff" points="685.63,-625.89 696.22,-626.09 688.06,-619.33 685.63,-625.89"/>
</a>
</g>
</g>
<!-- Node12 -->
<g id="Node000012" class="node">
<title>Node12</title>
<g id="a_Node000012"><a xlink:href="class_temperature_controller.html#a3948ceaf046b5f06afcc9083433f532c" target="_top" xlink:title="Display alarm summary by priority.">
<polygon fill="white" stroke="#666666" points="838.25,-409.88 670,-409.88 670,-379.38 838.25,-379.38 838.25,-409.88"/>
<text xml:space="preserve" text-anchor="start" x="678" y="-396.38" font-family="Helvetica,sans-Serif" font-size="10.00">TemperatureController</text>
<text xml:space="preserve" text-anchor="middle" x="754.12" y="-385.12" font-family="Helvetica,sans-Serif" font-size="10.00">::_displayAlarmSummaryByPriority</text>
</a>
</g>
</g>
<!-- Node11&#45;&gt;Node12 -->
<g id="edge13_Node000011_Node000012" class="edge">
<title>Node11&#45;&gt;Node12</title>
<g id="a_edge13_Node000011_Node000012"><a xlink:title=" ">
<path fill="none" stroke="#63b8ff" d="M564.48,-526.05C582.92,-500.16 623.41,-448.26 670,-419.62 672.62,-418.02 675.35,-416.5 678.15,-415.09"/>
<polygon fill="#63b8ff" stroke="#63b8ff" points="679.55,-418.3 687.2,-410.97 676.65,-411.92 679.55,-418.3"/>
</a>
</g>
</g>
<!-- Node14 -->
<g id="Node000014" class="node">
<title>Node14</title>
<g id="a_Node000014"><a xlink:href="class_temperature_controller.html#ab5e076b045677678390603e9a805e4db" target="_top" xlink:title="Display alarm summary by type.">
<polygon fill="white" stroke="#666666" points="833.38,-556.88 674.88,-556.88 674.88,-526.38 833.38,-526.38 833.38,-556.88"/>
<text xml:space="preserve" text-anchor="start" x="682.88" y="-543.38" font-family="Helvetica,sans-Serif" font-size="10.00">TemperatureController</text>
<text xml:space="preserve" text-anchor="middle" x="754.12" y="-532.12" font-family="Helvetica,sans-Serif" font-size="10.00">::_displayAlarmSummaryByType</text>
</a>
</g>
</g>
<!-- Node11&#45;&gt;Node14 -->
<g id="edge15_Node000011_Node000014" class="edge">
<title>Node11&#45;&gt;Node14</title>
<g id="a_edge15_Node000011_Node000014"><a xlink:title=" ">
<path fill="none" stroke="#63b8ff" d="M624.12,-541.62C636.78,-541.62 650.12,-541.62 663.24,-541.62"/>
<polygon fill="#63b8ff" stroke="#63b8ff" points="663.17,-545.13 673.17,-541.63 663.17,-538.13 663.17,-545.13"/>
</a>
</g>
</g>
<!-- Node15 -->
<g id="Node000015" class="node">
<title>Node15</title>
<g id="a_Node000015"><a xlink:href="class_temperature_controller.html#a5fc773a967cea261f21bbe86d90d2586" target="_top" xlink:title="Display Modbus status page.">
<polygon fill="white" stroke="#666666" points="814.62,-507.88 693.62,-507.88 693.62,-477.38 814.62,-477.38 814.62,-507.88"/>
<text xml:space="preserve" text-anchor="start" x="701.62" y="-494.38" font-family="Helvetica,sans-Serif" font-size="10.00">TemperatureController</text>
<text xml:space="preserve" text-anchor="middle" x="754.12" y="-483.12" font-family="Helvetica,sans-Serif" font-size="10.00">::_displayModbusStatus</text>
</a>
</g>
</g>
<!-- Node11&#45;&gt;Node15 -->
<g id="edge16_Node000011_Node000015" class="edge">
<title>Node11&#45;&gt;Node15</title>
<g id="a_edge16_Node000011_Node000015"><a xlink:title=" ">
<path fill="none" stroke="#63b8ff" d="M617.74,-525.92C638.29,-520.86 661.19,-515.23 682.21,-510.06"/>
<polygon fill="#63b8ff" stroke="#63b8ff" points="683,-513.47 691.87,-507.69 681.33,-506.68 683,-513.47"/>
</a>
</g>
</g>
<!-- Node16 -->
<g id="Node000016" class="node">
<title>Node16</title>
<g id="a_Node000016"><a xlink:href="class_temperature_controller.html#a2436c7043d97ca75c717db2b87326d90" target="_top" xlink:title="Display network info page.">
<polygon fill="white" stroke="#666666" points="810.12,-458.88 698.12,-458.88 698.12,-428.38 810.12,-428.38 810.12,-458.88"/>
<text xml:space="preserve" text-anchor="start" x="706.12" y="-445.38" font-family="Helvetica,sans-Serif" font-size="10.00">TemperatureController</text>
<text xml:space="preserve" text-anchor="middle" x="754.12" y="-434.12" font-family="Helvetica,sans-Serif" font-size="10.00">::_displayNetworkInfo</text>
</a>
</g>
</g>
<!-- Node11&#45;&gt;Node16 -->
<g id="edge17_Node000011_Node000016" class="edge">
<title>Node11&#45;&gt;Node16</title>
<g id="a_edge17_Node000011_Node000016"><a xlink:title=" ">
<path fill="none" stroke="#63b8ff" d="M574.73,-526.08C597.25,-509.89 634.66,-484.69 670,-468.62 675.49,-466.13 681.29,-463.8 687.17,-461.66"/>
<polygon fill="#63b8ff" stroke="#63b8ff" points="688.07,-465.05 696.37,-458.48 685.78,-458.44 688.07,-465.05"/>
</a>
</g>
</g>
<!-- Node17 -->
<g id="Node000017" class="node">
<title>Node17</title>
<g id="a_Node000017"><a xlink:href="class_temperature_controller.html#a45d13ed72fd36b46820af631e4db958b" target="_top" xlink:title="Display system stats page.">
<polygon fill="white" stroke="#666666" points="811.62,-605.88 696.62,-605.88 696.62,-575.38 811.62,-575.38 811.62,-605.88"/>
<text xml:space="preserve" text-anchor="start" x="704.62" y="-592.38" font-family="Helvetica,sans-Serif" font-size="10.00">TemperatureController</text>
<text xml:space="preserve" text-anchor="middle" x="754.12" y="-581.12" font-family="Helvetica,sans-Serif" font-size="10.00">::_displaySystemStats</text>
</a>
</g>
</g>
<!-- Node11&#45;&gt;Node17 -->
<g id="edge18_Node000011_Node000017" class="edge">
<title>Node11&#45;&gt;Node17</title>
<g id="a_edge18_Node000011_Node000017"><a xlink:title=" ">
<path fill="none" stroke="#63b8ff" d="M617.74,-557.33C639.26,-562.62 663.35,-568.55 685.17,-573.91"/>
<polygon fill="#63b8ff" stroke="#63b8ff" points="684.33,-577.31 694.88,-576.3 686,-570.51 684.33,-577.31"/>
</a>
</g>
</g>
<!-- Node13 -->
<g id="Node000013" class="node">
<title>Node13</title>
<g id="a_Node000013"><a xlink:href="class_temperature_controller.html#a3022c7a72adb45a7800d5189eecdac4e" target="_top" xlink:title="Get total number of configured alarms.">
<polygon fill="white" stroke="#666666" points="986.25,-100.88 874.25,-100.88 874.25,-70.38 986.25,-70.38 986.25,-100.88"/>
<text xml:space="preserve" text-anchor="start" x="882.25" y="-87.38" font-family="Helvetica,sans-Serif" font-size="10.00">TemperatureController</text>
<text xml:space="preserve" text-anchor="middle" x="930.25" y="-76.12" font-family="Helvetica,sans-Serif" font-size="10.00">::getAlarmCount</text>
</a>
</g>
</g>
<!-- Node12&#45;&gt;Node13 -->
<g id="edge14_Node000012_Node000013" class="edge">
<title>Node12&#45;&gt;Node13</title>
<g id="a_edge14_Node000012_Node000013"><a xlink:title=" ">
<path fill="none" stroke="#63b8ff" d="M827.54,-378.88C831.4,-376.5 835.02,-373.77 838.25,-370.62 911.64,-299.26 925.97,-168.85 928.67,-112.61"/>
<polygon fill="#63b8ff" stroke="#63b8ff" points="932.17,-112.82 929.05,-102.7 925.17,-112.56 932.17,-112.82"/>
</a>
</g>
</g>
<!-- Node18 -->
<g id="Node000018" class="node">
<title>Node18</title>
<g id="a_Node000018"><a xlink:href="class_temperature_controller.html#a9b4fe09d4c87dcf86e78b890012e1e72" target="_top" xlink:title="Get sensor bound to measurement point.">
<polygon fill="white" stroke="#666666" points="986.25,-393.88 874.25,-393.88 874.25,-363.38 986.25,-363.38 986.25,-393.88"/>
<text xml:space="preserve" text-anchor="start" x="882.25" y="-380.38" font-family="Helvetica,sans-Serif" font-size="10.00">TemperatureController</text>
<text xml:space="preserve" text-anchor="middle" x="930.25" y="-369.12" font-family="Helvetica,sans-Serif" font-size="10.00">::getBoundSensor</text>
</a>
</g>
</g>
<!-- Node17&#45;&gt;Node18 -->
<g id="edge19_Node000017_Node000018" class="edge">
<title>Node17&#45;&gt;Node18</title>
<g id="a_edge19_Node000017_Node000018"><a xlink:title=" ">
<path fill="none" stroke="#63b8ff" d="M812.01,-580.4C821.48,-576.85 830.68,-572.07 838.25,-565.62 888.45,-522.91 913.33,-446.03 923.47,-405.43"/>
<polygon fill="#63b8ff" stroke="#63b8ff" points="926.86,-406.31 925.76,-395.77 920.05,-404.7 926.86,-406.31"/>
</a>
</g>
</g>
<!-- Node23 -->
<g id="Node000023" class="node">
<title>Node23</title>
<g id="a_Node000023"><a xlink:href="class_temperature_controller.html#a9ac5f76def1895a8c8f8f92ce8cd2e5c" target="_top" xlink:title="Get count of discovered DS18B20 sensors.">
<polygon fill="white" stroke="#666666" points="986.25,-629.88 874.25,-629.88 874.25,-599.38 986.25,-599.38 986.25,-629.88"/>
<text xml:space="preserve" text-anchor="start" x="882.25" y="-616.38" font-family="Helvetica,sans-Serif" font-size="10.00">TemperatureController</text>
<text xml:space="preserve" text-anchor="middle" x="930.25" y="-605.12" font-family="Helvetica,sans-Serif" font-size="10.00">::getDS18B20Count</text>
</a>
</g>
</g>
<!-- Node17&#45;&gt;Node23 -->
<g id="edge24_Node000017_Node000023" class="edge">
<title>Node17&#45;&gt;Node23</title>
<g id="a_edge24_Node000017_Node000023"><a xlink:title=" ">
<path fill="none" stroke="#63b8ff" d="M811.66,-598.42C828.03,-600.67 846.05,-603.16 862.97,-605.49"/>
<polygon fill="#63b8ff" stroke="#63b8ff" points="862.01,-608.89 872.39,-606.79 862.96,-601.96 862.01,-608.89"/>
</a>
</g>
</g>
<!-- Node24 -->
<g id="Node000024" class="node">
<title>Node24</title>
<g id="a_Node000024"><a xlink:href="class_temperature_controller.html#a6ab2ecc10c283d75d948ce6f1ad723a6" target="_top" xlink:title="Get count of discovered PT1000 sensors.">
<polygon fill="white" stroke="#666666" points="986.25,-580.88 874.25,-580.88 874.25,-550.38 986.25,-550.38 986.25,-580.88"/>
<text xml:space="preserve" text-anchor="start" x="882.25" y="-567.38" font-family="Helvetica,sans-Serif" font-size="10.00">TemperatureController</text>
<text xml:space="preserve" text-anchor="middle" x="930.25" y="-556.12" font-family="Helvetica,sans-Serif" font-size="10.00">::getPT1000Count</text>
</a>
</g>
</g>
<!-- Node17&#45;&gt;Node24 -->
<g id="edge25_Node000017_Node000024" class="edge">
<title>Node17&#45;&gt;Node24</title>
<g id="a_edge25_Node000017_Node000024"><a xlink:title=" ">
<path fill="none" stroke="#63b8ff" d="M811.66,-582.51C828.03,-580.16 846.05,-577.57 862.97,-575.14"/>
<polygon fill="#63b8ff" stroke="#63b8ff" points="862.99,-578.67 872.39,-573.79 862,-571.75 862.99,-578.67"/>
</a>
</g>
</g>
<!-- Node19 -->
<g id="Node000019" class="node">
<title>Node19</title>
<g id="a_Node000019"><a xlink:href="class_measurement_point.html#a81c7ae93a9314344967d0f31c6fefe2f" target="_top" xlink:title="Get pointer to bound sensor.">
<polygon fill="white" stroke="#666666" points="1167.25,-417.88 1022.25,-417.88 1022.25,-387.38 1167.25,-387.38 1167.25,-417.88"/>
<text xml:space="preserve" text-anchor="start" x="1030.25" y="-404.38" font-family="Helvetica,sans-Serif" font-size="10.00">MeasurementPoint::getBound</text>
<text xml:space="preserve" text-anchor="middle" x="1094.75" y="-393.12" font-family="Helvetica,sans-Serif" font-size="10.00">Sensor</text>
</a>
</g>
</g>
<!-- Node18&#45;&gt;Node19 -->
<g id="edge20_Node000018_Node000019" class="edge">
<title>Node18&#45;&gt;Node19</title>
<g id="a_edge20_Node000018_Node000019"><a xlink:title=" ">
<path fill="none" stroke="#63b8ff" d="M986.72,-386.82C994.41,-387.95 1002.44,-389.14 1010.49,-390.33"/>
<polygon fill="#63b8ff" stroke="#63b8ff" points="1009.96,-393.79 1020.37,-391.79 1010.99,-386.86 1009.96,-393.79"/>
</a>
</g>
</g>
<!-- Node20 -->
<g id="Node000020" class="node">
<title>Node20</title>
<g id="a_Node000020"><a xlink:href="class_temperature_controller.html#a494f057c234b4ff7526bde271aec9267" target="_top" xlink:title="Get measurement point by address.">
<polygon fill="white" stroke="#666666" points="1153.38,-368.88 1036.12,-368.88 1036.12,-338.38 1153.38,-338.38 1153.38,-368.88"/>
<text xml:space="preserve" text-anchor="start" x="1044.12" y="-355.38" font-family="Helvetica,sans-Serif" font-size="10.00">TemperatureController</text>
<text xml:space="preserve" text-anchor="middle" x="1094.75" y="-344.12" font-family="Helvetica,sans-Serif" font-size="10.00">::getMeasurementPoint</text>
</a>
</g>
</g>
<!-- Node18&#45;&gt;Node20 -->
<g id="edge21_Node000018_Node000020" class="edge">
<title>Node18&#45;&gt;Node20</title>
<g id="a_edge21_Node000018_Node000020"><a xlink:title=" ">
<path fill="none" stroke="#63b8ff" d="M986.72,-370.09C998.95,-368.21 1012.05,-366.19 1024.74,-364.24"/>
<polygon fill="#63b8ff" stroke="#63b8ff" points="1024.91,-367.76 1034.27,-362.78 1023.85,-360.84 1024.91,-367.76"/>
</a>
</g>
</g>
<!-- Node21 -->
<g id="Node000021" class="node">
<title>Node21</title>
<g id="a_Node000021"><a xlink:href="class_temperature_controller.html#ad322a5bab8d5788a586206004248f673" target="_top" xlink:title="Check if address is for DS18B20 sensor.">
<polygon fill="white" stroke="#666666" points="1315.25,-393.88 1203.25,-393.88 1203.25,-363.38 1315.25,-363.38 1315.25,-393.88"/>
<text xml:space="preserve" text-anchor="start" x="1211.25" y="-380.38" font-family="Helvetica,sans-Serif" font-size="10.00">TemperatureController</text>
<text xml:space="preserve" text-anchor="middle" x="1259.25" y="-369.12" font-family="Helvetica,sans-Serif" font-size="10.00">::isDS18B20Address</text>
</a>
</g>
</g>
<!-- Node20&#45;&gt;Node21 -->
<g id="edge22_Node000020_Node000021" class="edge">
<title>Node20&#45;&gt;Node21</title>
<g id="a_edge22_Node000020_Node000021"><a xlink:title=" ">
<path fill="none" stroke="#63b8ff" d="M1153.5,-362.51C1165.92,-364.42 1179.14,-366.45 1191.85,-368.41"/>
<polygon fill="#63b8ff" stroke="#63b8ff" points="1190.95,-371.81 1201.37,-369.87 1192.02,-364.89 1190.95,-371.81"/>
</a>
</g>
</g>
<!-- Node22 -->
<g id="Node000022" class="node">
<title>Node22</title>
<g id="a_Node000022"><a xlink:href="class_temperature_controller.html#a13125ddcf29cb56d27403818543618af" target="_top" xlink:title="Check if address is for PT1000 sensor.">
<polygon fill="white" stroke="#666666" points="1315.25,-344.88 1203.25,-344.88 1203.25,-314.38 1315.25,-314.38 1315.25,-344.88"/>
<text xml:space="preserve" text-anchor="start" x="1211.25" y="-331.38" font-family="Helvetica,sans-Serif" font-size="10.00">TemperatureController</text>
<text xml:space="preserve" text-anchor="middle" x="1259.25" y="-320.12" font-family="Helvetica,sans-Serif" font-size="10.00">::isPT1000Address</text>
</a>
</g>
</g>
<!-- Node20&#45;&gt;Node22 -->
<g id="edge23_Node000020_Node000022" class="edge">
<title>Node20&#45;&gt;Node22</title>
<g id="a_edge23_Node000020_Node000022"><a xlink:title=" ">
<path fill="none" stroke="#63b8ff" d="M1153.5,-345.1C1165.92,-343.26 1179.14,-341.31 1191.85,-339.43"/>
<polygon fill="#63b8ff" stroke="#63b8ff" points="1191.99,-342.95 1201.37,-338.03 1190.96,-336.02 1191.99,-342.95"/>
</a>
</g>
</g>
<!-- Node26 -->
<g id="Node000026" class="node">
<title>Node26</title>
<g id="a_Node000026"><a xlink:href="class_temperature_controller.html#af58201023d15de003d4f1b9a9771a9e3" target="_top" xlink:title="Get list of active alarms.">
<polygon fill="white" stroke="#666666" points="810.12,-323.88 698.12,-323.88 698.12,-293.38 810.12,-293.38 810.12,-323.88"/>
<text xml:space="preserve" text-anchor="start" x="706.12" y="-310.38" font-family="Helvetica,sans-Serif" font-size="10.00">TemperatureController</text>
<text xml:space="preserve" text-anchor="middle" x="754.12" y="-299.12" font-family="Helvetica,sans-Serif" font-size="10.00">::getActiveAlarms</text>
</a>
</g>
</g>
<!-- Node25&#45;&gt;Node26 -->
<g id="edge29_Node000025_Node000026" class="edge">
<title>Node25&#45;&gt;Node26</title>
<g id="a_edge29_Node000025_Node000026"><a xlink:title=" ">
<path fill="none" stroke="#63b8ff" d="M611.04,-401.25C619.22,-397.97 627.16,-393.83 634,-388.62 657.54,-370.7 646.27,-350.3 670,-332.62 675.25,-328.72 681.12,-325.44 687.24,-322.7"/>
<polygon fill="#63b8ff" stroke="#63b8ff" points="688.3,-326.05 696.32,-319.13 685.74,-319.53 688.3,-326.05"/>
</a>
</g>
</g>
<!-- Node27 -->
<g id="Node000027" class="node">
<title>Node27</title>
<g id="a_Node000027"><a xlink:href="class_alarm.html#a7a4a3290a6a659542f82fe08a96736a8" target="_top" xlink:title="Get the alarm creation timestamp.">
<polygon fill="white" stroke="#666666" points="809,-361.25 699.25,-361.25 699.25,-342 809,-342 809,-361.25"/>
<text xml:space="preserve" text-anchor="middle" x="754.12" y="-347.75" font-family="Helvetica,sans-Serif" font-size="10.00">Alarm::getTimestamp</text>
</a>
</g>
</g>
<!-- Node25&#45;&gt;Node27 -->
<g id="edge30_Node000025_Node000027" class="edge">
<title>Node25&#45;&gt;Node27</title>
<g id="a_edge30_Node000025_Node000027"><a xlink:title=" ">
<path fill="none" stroke="#63b8ff" d="M608.17,-397.99C616.89,-395.11 625.76,-391.95 634,-388.62 650.59,-381.94 653.16,-376.66 670,-370.62 676.16,-368.42 682.67,-366.41 689.23,-364.59"/>
<polygon fill="#63b8ff" stroke="#63b8ff" points="690,-368 698.79,-362.09 688.23,-361.23 690,-368"/>
</a>
</g>
</g>
<!-- Node28&#45;&gt;Node13 -->
<g id="edge33_Node000028_Node000013" class="edge">
<title>Node28&#45;&gt;Node13</title>
<g id="a_edge33_Node000028_Node000013"><a xlink:title=" ">
<path fill="none" stroke="#63b8ff" d="M240.04,-128.02C263.13,-117.84 290.14,-106.16 296,-104.62 496.79,-52.01 745.67,-66.64 862.62,-77.97"/>
<polygon fill="#63b8ff" stroke="#63b8ff" points="862.06,-81.43 872.35,-78.94 862.75,-74.46 862.06,-81.43"/>
</a>
</g>
</g>
<!-- Node29 -->
<g id="Node000029" class="node">
<title>Node29</title>
<g id="a_Node000029"><a xlink:href="class_logger_manager.html#a5c1373ccc47f4112b596fe6f84fbbc21" target="_top" xlink:title="Log informational message (static convenience method)">
<polygon fill="white" stroke="#666666" points="418.12,-19.25 313.62,-19.25 313.62,0 418.12,0 418.12,-19.25"/>
<text xml:space="preserve" text-anchor="middle" x="365.88" y="-5.75" font-family="Helvetica,sans-Serif" font-size="10.00">LoggerManager::info</text>
</a>
</g>
</g>
<!-- Node28&#45;&gt;Node29 -->
<g id="edge34_Node000028_Node000029" class="edge">
<title>Node28&#45;&gt;Node29</title>
<g id="a_edge34_Node000028_Node000029"><a xlink:title=" ">
<path fill="none" stroke="#63b8ff" d="M248.24,-127.9C252.53,-125.23 256.56,-122.16 260,-118.62 288.63,-89.24 266.06,-61.67 296,-33.62 299.74,-30.12 304.02,-27.13 308.57,-24.57"/>
<polygon fill="#63b8ff" stroke="#63b8ff" points="310.01,-27.76 317.51,-20.28 306.98,-21.45 310.01,-27.76"/>
</a>
</g>
</g>
<!-- Node30&#45;&gt;Node1 -->
<g id="edge36_Node000030_Node000001" class="edge">
<title>Node30&#45;&gt;Node1</title>
<g id="a_edge36_Node000030_Node000001"><a xlink:title=" ">
<path fill="none" stroke="#63b8ff" d="M180.97,-110.31C170.43,-115.4 157.97,-121.29 148,-128.62 121.32,-148.26 96.67,-176.82 79.78,-197.27"/>
<polygon fill="#63b8ff" stroke="#63b8ff" points="77.18,-194.91 73.54,-204.86 82.59,-199.35 77.18,-194.91"/>
</a>
</g>
</g>
<!-- Node31&#45;&gt;Node18 -->
<g id="edge39_Node000031_Node000018" class="edge">
<title>Node31&#45;&gt;Node18</title>
<g id="a_edge39_Node000031_Node000018"><a xlink:title=" ">
<path fill="none" stroke="#63b8ff" d="M609.2,-349.67C617.97,-345.9 626.59,-341.28 634,-335.62 656.06,-318.8 645.37,-297.39 670,-284.62 736.39,-250.22 769.4,-255.45 838.25,-284.62 871.04,-298.52 897.8,-330.66 913.62,-353.48"/>
<polygon fill="#63b8ff" stroke="#63b8ff" points="910.61,-355.27 919.07,-361.65 916.43,-351.39 910.61,-355.27"/>
</a>
</g>
</g>
<!-- Node31&#45;&gt;Node26 -->
<g id="edge38_Node000031_Node000026" class="edge">
<title>Node31&#45;&gt;Node26</title>
<g id="a_edge38_Node000031_Node000026"><a xlink:title=" ">
<path fill="none" stroke="#63b8ff" d="M609.11,-349.1C633.19,-342.33 661.62,-334.34 686.82,-327.26"/>
<polygon fill="#63b8ff" stroke="#63b8ff" points="687.64,-330.66 696.32,-324.59 685.75,-323.93 687.64,-330.66"/>
</a>
</g>
</g>
<!-- Node33 -->
<g id="Node000033" class="node">
<title>Node33</title>
<g id="a_Node000033"><a xlink:href="class_logger_manager.html#aef24f00186213fa78be3b104a50d58e6" target="_top" xlink:title="Log error message (static convenience method)">
<polygon fill="white" stroke="#666666" points="808.25,-181.25 700,-181.25 700,-162 808.25,-162 808.25,-181.25"/>
<text xml:space="preserve" text-anchor="middle" x="754.12" y="-167.75" font-family="Helvetica,sans-Serif" font-size="10.00">LoggerManager::error</text>
</a>
</g>
</g>
<!-- Node32&#45;&gt;Node33 -->
<g id="edge41_Node000032_Node000033" class="edge">
<title>Node32&#45;&gt;Node33</title>
<g id="a_edge41_Node000032_Node000033"><a xlink:title=" ">
<path fill="none" stroke="#63b8ff" d="M236.83,-262.3C310.75,-296.34 498.11,-368.83 634,-302.62 657.34,-291.25 652.9,-276.16 670,-256.62 691.07,-232.56 717.1,-206.48 734.35,-189.64"/>
<polygon fill="#63b8ff" stroke="#63b8ff" points="736.67,-192.27 741.42,-182.79 731.8,-187.24 736.67,-192.27"/>
</a>
</g>
</g>
<!-- Node34 -->
<g id="Node000034" class="node">
<title>Node34</title>
<g id="a_Node000034"><a xlink:href="class_temperature_controller.html#a01e04714a1712aa10c34276850971a12" target="_top" xlink:title="Get bus number for a sensor.">
<polygon fill="white" stroke="#666666" points="421.88,-261.88 309.88,-261.88 309.88,-231.38 421.88,-231.38 421.88,-261.88"/>
<text xml:space="preserve" text-anchor="start" x="317.88" y="-248.38" font-family="Helvetica,sans-Serif" font-size="10.00">TemperatureController</text>
<text xml:space="preserve" text-anchor="middle" x="365.88" y="-237.12" font-family="Helvetica,sans-Serif" font-size="10.00">::getSensorBus</text>
</a>
</g>
</g>
<!-- Node32&#45;&gt;Node34 -->
<g id="edge42_Node000032_Node000034" class="edge">
<title>Node32&#45;&gt;Node34</title>
<g id="a_edge42_Node000032_Node000034"><a xlink:title=" ">
<path fill="none" stroke="#63b8ff" d="M260.47,-246.62C272.62,-246.62 285.61,-246.62 298.15,-246.62"/>
<polygon fill="#63b8ff" stroke="#63b8ff" points="297.99,-250.13 307.99,-246.63 297.99,-243.13 297.99,-250.13"/>
</a>
</g>
</g>
<!-- Node35 -->
<g id="Node000035" class="node">
<title>Node35</title>
<g id="a_Node000035"><a xlink:href="class_sensor.html#ac42da3a37b0d6a9622344fe83f4c9047" target="_top" xlink:title="Get OneWire bus pin.">
<polygon fill="white" stroke="#666666" points="612.25,-219.25 493.5,-219.25 493.5,-200 612.25,-200 612.25,-219.25"/>
<text xml:space="preserve" text-anchor="middle" x="552.88" y="-205.75" font-family="Helvetica,sans-Serif" font-size="10.00">Sensor::getOneWirePin</text>
</a>
</g>
</g>
<!-- Node34&#45;&gt;Node35 -->
<g id="edge43_Node000034_Node000035" class="edge">
<title>Node34&#45;&gt;Node35</title>
<g id="a_edge43_Node000034_Node000035"><a xlink:title=" ">
<path fill="none" stroke="#63b8ff" d="M422.13,-235.57C443.53,-231.29 468.12,-226.38 490.1,-221.98"/>
<polygon fill="#63b8ff" stroke="#63b8ff" points="490.72,-225.43 499.84,-220.03 489.34,-218.56 490.72,-225.43"/>
</a>
</g>
</g>
<!-- Node36 -->
<g id="Node000036" class="node">
<title>Node36</title>
<g id="a_Node000036"><a xlink:href="class_sensor.html#a6f57825e90b759ccdb9fe07b3a36953d" target="_top" xlink:title="Get PT1000 chip select pin.">
<polygon fill="white" stroke="#666666" points="634,-293.25 471.75,-293.25 471.75,-274 634,-274 634,-293.25"/>
<text xml:space="preserve" text-anchor="middle" x="552.88" y="-279.75" font-family="Helvetica,sans-Serif" font-size="10.00">Sensor::getPT1000ChipSelectPin</text>
</a>
</g>
</g>
<!-- Node34&#45;&gt;Node36 -->
<g id="edge44_Node000034_Node000036" class="edge">
<title>Node34&#45;&gt;Node36</title>
<g id="a_edge44_Node000034_Node000036"><a xlink:title=" ">
<path fill="none" stroke="#63b8ff" d="M422.13,-257.68C443.53,-261.96 468.12,-266.87 490.1,-271.27"/>
<polygon fill="#63b8ff" stroke="#63b8ff" points="489.34,-274.69 499.84,-273.22 490.72,-267.82 489.34,-274.69"/>
</a>
</g>
</g>
<!-- Node37 -->
<g id="Node000037" class="node">
<title>Node37</title>
<g id="a_Node000037"><a xlink:href="class_sensor.html#a0f6f095e7cfdfffb2a395dfdae7cfa53" target="_top" xlink:title="Get sensor type.">
<polygon fill="white" stroke="#666666" points="596.5,-256.25 509.25,-256.25 509.25,-237 596.5,-237 596.5,-256.25"/>
<text xml:space="preserve" text-anchor="middle" x="552.88" y="-242.75" font-family="Helvetica,sans-Serif" font-size="10.00">Sensor::getType</text>
</a>
</g>
</g>
<!-- Node34&#45;&gt;Node37 -->
<g id="edge45_Node000034_Node000037" class="edge">
<title>Node34&#45;&gt;Node37</title>
<g id="a_edge45_Node000034_Node000037"><a xlink:title=" ">
<path fill="none" stroke="#63b8ff" d="M422.13,-246.62C446.01,-246.62 473.87,-246.62 497.64,-246.62"/>
<polygon fill="#63b8ff" stroke="#63b8ff" points="497.43,-250.13 507.43,-246.63 497.43,-243.13 497.43,-250.13"/>
</a>
</g>
</g>
<!-- Node39 -->
<g id="Node000039" class="node">
<title>Node39</title>
<g id="a_Node000039"><a xlink:href="class_temperature_controller.html#aac890ae08b5eddcf272771ecdba61453" target="_top" xlink:title="Get relay actual state.">
<polygon fill="white" stroke="#666666" points="421.88,-202.88 309.88,-202.88 309.88,-172.38 421.88,-172.38 421.88,-202.88"/>
<text xml:space="preserve" text-anchor="start" x="317.88" y="-189.38" font-family="Helvetica,sans-Serif" font-size="10.00">TemperatureController</text>
<text xml:space="preserve" text-anchor="middle" x="365.88" y="-178.12" font-family="Helvetica,sans-Serif" font-size="10.00">::getRelayActualState</text>
</a>
</g>
</g>
<!-- Node38&#45;&gt;Node39 -->
<g id="edge47_Node000038_Node000039" class="edge">
<title>Node38&#45;&gt;Node39</title>
<g id="a_edge47_Node000038_Node000039"><a xlink:title=" ">
<path fill="none" stroke="#63b8ff" d="M260.47,-190.89C272.62,-190.51 285.61,-190.1 298.15,-189.71"/>
<polygon fill="#63b8ff" stroke="#63b8ff" points="298.11,-193.21 307.99,-189.4 297.89,-186.22 298.11,-193.21"/>
</a>
</g>
</g>
<!-- Node40 -->
<g id="Node000040" class="node">
<title>Node40</title>
<g id="a_Node000040"><a xlink:href="class_temperature_controller.html#a20a14014a639f3390dba82a6cd39d067" target="_top" xlink:title="Get relay commanded state.">
<polygon fill="white" stroke="#666666" points="435.75,-143.88 296,-143.88 296,-113.38 435.75,-113.38 435.75,-143.88"/>
<text xml:space="preserve" text-anchor="start" x="304" y="-130.38" font-family="Helvetica,sans-Serif" font-size="10.00">TemperatureController</text>
<text xml:space="preserve" text-anchor="middle" x="365.88" y="-119.12" font-family="Helvetica,sans-Serif" font-size="10.00">::getRelayCommandedState</text>
</a>
</g>
</g>
<!-- Node38&#45;&gt;Node40 -->
<g id="edge49_Node000038_Node000040" class="edge">
<title>Node38&#45;&gt;Node40</title>
<g id="a_edge49_Node000038_Node000040"><a xlink:title=" ">
<path fill="none" stroke="#63b8ff" d="M244.11,-176.97C265.5,-168.41 292.21,-157.71 315.08,-148.56"/>
<polygon fill="#63b8ff" stroke="#63b8ff" points="316.23,-151.87 324.21,-144.9 313.63,-145.37 316.23,-151.87"/>
</a>
</g>
</g>
<!-- Node39&#45;&gt;Node33 -->
<g id="edge48_Node000039_Node000033" class="edge">
<title>Node39&#45;&gt;Node33</title>
<g id="a_edge48_Node000039_Node000033"><a xlink:title=" ">
<path fill="none" stroke="#63b8ff" d="M422.22,-185.33C492.65,-182.41 614.11,-177.38 688.66,-174.3"/>
<polygon fill="#63b8ff" stroke="#63b8ff" points="688.39,-177.81 698.24,-173.9 688.1,-170.82 688.39,-177.81"/>
</a>
</g>
</g>
<!-- Node40&#45;&gt;Node13 -->
<g id="edge50_Node000040_Node000013" class="edge">
<title>Node40&#45;&gt;Node13</title>
<g id="a_edge50_Node000040_Node000013"><a xlink:title=" ">
<path fill="none" stroke="#63b8ff" d="M426.98,-112.88C441.54,-109.62 457.13,-106.59 471.75,-104.62 609.88,-86.11 773.38,-84.04 862.72,-84.58"/>
<polygon fill="#63b8ff" stroke="#63b8ff" points="862.5,-88.08 872.52,-84.65 862.55,-81.08 862.5,-88.08"/>
</a>
</g>
</g>
<!-- Node41 -->
<g id="Node000041" class="node">
<title>Node41</title>
<g id="a_Node000041"><a xlink:href="class_temperature_controller.html#a61ff288cbeaa86dc21c610c778dba64e" target="_top" xlink:title="Get relay control mode.">
<polygon fill="white" stroke="#666666" points="611.12,-143.88 494.62,-143.88 494.62,-113.38 611.12,-113.38 611.12,-143.88"/>
<text xml:space="preserve" text-anchor="start" x="502.62" y="-130.38" font-family="Helvetica,sans-Serif" font-size="10.00">TemperatureController</text>
<text xml:space="preserve" text-anchor="middle" x="552.88" y="-119.12" font-family="Helvetica,sans-Serif" font-size="10.00">::getRelayControlMode</text>
</a>
</g>
</g>
<!-- Node40&#45;&gt;Node41 -->
<g id="edge51_Node000040_Node000041" class="edge">
<title>Node40&#45;&gt;Node41</title>
<g id="a_edge51_Node000040_Node000041"><a xlink:title=" ">
<path fill="none" stroke="#63b8ff" d="M436.03,-128.62C451.32,-128.62 467.52,-128.62 482.81,-128.62"/>
<polygon fill="#63b8ff" stroke="#63b8ff" points="482.78,-132.13 492.78,-128.63 482.78,-125.13 482.78,-132.13"/>
</a>
</g>
</g>
<!-- Node41&#45;&gt;Node33 -->
<g id="edge52_Node000041_Node000033" class="edge">
<title>Node41&#45;&gt;Node33</title>
<g id="a_edge52_Node000041_Node000033"><a xlink:title=" ">
<path fill="none" stroke="#63b8ff" d="M611.51,-141.06C637.85,-146.75 669,-153.47 695.36,-159.16"/>
<polygon fill="#63b8ff" stroke="#63b8ff" points="694.35,-162.52 704.86,-161.21 695.83,-155.68 694.35,-162.52"/>
</a>
</g>
</g>
</g>
</svg>
