<?xml version="1.0" encoding="UTF-8" standalone="no"?>
<!DOCTYPE svg PUBLIC "-//W3C//DTD SVG 1.1//EN"
 "http://www.w3.org/Graphics/SVG/1.1/DTD/svg11.dtd">
<!-- Generated by graphviz version 13.1.0 (20250701.0955)
 -->
<!-- Title: CSVConfigManager::_exportPointToCSV Pages: 1 -->
<svg width="482pt" height="506pt"
 viewBox="0.00 0.00 482.00 506.00" xmlns="http://www.w3.org/2000/svg" xmlns:xlink="http://www.w3.org/1999/xlink">
<g id="graph0" class="graph" transform="scale(1 1) rotate(0) translate(4 501.88)">
<title>CSVConfigManager::_exportPointToCSV</title>
<!-- Node1 -->
<g id="Node000001" class="node">
<title>Node1</title>
<g id="a_Node000001"><a xlink:title="Export single measurement point to CSV format.">
<polygon fill="#999999" stroke="#666666" points="109,-248.88 0,-248.88 0,-218.38 109,-218.38 109,-248.88"/>
<text xml:space="preserve" text-anchor="start" x="8" y="-235.38" font-family="Helvetica,sans-Serif" font-size="10.00">CSVConfigManager::</text>
<text xml:space="preserve" text-anchor="middle" x="54.5" y="-224.12" font-family="Helvetica,sans-Serif" font-size="10.00">_exportPointToCSV</text>
</a>
</g>
</g>
<!-- Node2 -->
<g id="Node000002" class="node">
<title>Node2</title>
<g id="a_Node000002"><a xlink:href="class_c_s_v_config_manager.html#a7cbb73926f858ab8982287b94797ec7a" target="_top" xlink:title="Escape special characters in CSV field.">
<polygon fill="white" stroke="#666666" points="286.25,-485.88 177.25,-485.88 177.25,-455.38 286.25,-455.38 286.25,-485.88"/>
<text xml:space="preserve" text-anchor="start" x="185.25" y="-472.38" font-family="Helvetica,sans-Serif" font-size="10.00">CSVConfigManager::</text>
<text xml:space="preserve" text-anchor="middle" x="231.75" y="-461.12" font-family="Helvetica,sans-Serif" font-size="10.00">_escapeCSVField</text>
</a>
</g>
</g>
<!-- Node1&#45;&gt;Node2 -->
<g id="edge1_Node000001_Node000002" class="edge">
<title>Node1&#45;&gt;Node2</title>
<g id="a_edge1_Node000001_Node000002"><a xlink:title=" ">
<path fill="none" stroke="#63b8ff" d="M57.5,-249.32C63.34,-288.48 83.98,-391.29 145,-445.62 151.21,-451.15 158.58,-455.47 166.35,-458.82"/>
<polygon fill="#63b8ff" stroke="#63b8ff" points="165.12,-462.1 175.71,-462.31 167.57,-455.54 165.12,-462.1"/>
</a>
</g>
</g>
<!-- Node3 -->
<g id="Node000003" class="node">
<title>Node3</title>
<g id="a_Node000003"><a xlink:href="class_c_s_v_config_manager.html#aa43c8405582f387b0330cc1e965f5117" target="_top" xlink:title="Get alarm priority for specific point and alarm type.">
<polygon fill="white" stroke="#666666" points="295.62,-436.88 167.88,-436.88 167.88,-406.38 295.62,-406.38 295.62,-436.88"/>
<text xml:space="preserve" text-anchor="start" x="175.88" y="-423.38" font-family="Helvetica,sans-Serif" font-size="10.00">CSVConfigManager::</text>
<text xml:space="preserve" text-anchor="middle" x="231.75" y="-412.12" font-family="Helvetica,sans-Serif" font-size="10.00">_getAlarmPriorityForPoint</text>
</a>
</g>
</g>
<!-- Node1&#45;&gt;Node3 -->
<g id="edge2_Node000001_Node000003" class="edge">
<title>Node1&#45;&gt;Node3</title>
<g id="a_edge2_Node000001_Node000003"><a xlink:title=" ">
<path fill="none" stroke="#63b8ff" d="M59.46,-248.91C68.69,-281.4 94.74,-357.64 145,-397.62 148.74,-400.6 152.83,-403.21 157.13,-405.5"/>
<polygon fill="#63b8ff" stroke="#63b8ff" points="155.56,-408.62 166.1,-409.63 158.49,-402.27 155.56,-408.62"/>
</a>
</g>
</g>
<!-- Node8 -->
<g id="Node000008" class="node">
<title>Node8</title>
<g id="a_Node000008"><a xlink:href="class_measurement_point.html#a7b74a18d86e0e545264a774aa2c31cad" target="_top" xlink:title="Get measurement point address.">
<polygon fill="white" stroke="#666666" points="308.38,-388.25 155.12,-388.25 155.12,-369 308.38,-369 308.38,-388.25"/>
<text xml:space="preserve" text-anchor="middle" x="231.75" y="-374.75" font-family="Helvetica,sans-Serif" font-size="10.00">MeasurementPoint::getAddress</text>
</a>
</g>
</g>
<!-- Node1&#45;&gt;Node8 -->
<g id="edge7_Node000001_Node000008" class="edge">
<title>Node1&#45;&gt;Node8</title>
<g id="a_edge7_Node000001_Node000008"><a xlink:title=" ">
<path fill="none" stroke="#63b8ff" d="M62,-249.24C74.1,-276.28 102.74,-331.6 145,-359.62 147.39,-361.21 149.89,-362.67 152.48,-364"/>
<polygon fill="#63b8ff" stroke="#63b8ff" points="150.85,-367.11 161.41,-367.97 153.69,-360.71 150.85,-367.11"/>
</a>
</g>
</g>
<!-- Node9 -->
<g id="Node000009" class="node">
<title>Node9</title>
<g id="a_Node000009"><a xlink:href="class_measurement_point.html#a81c7ae93a9314344967d0f31c6fefe2f" target="_top" xlink:title="Get pointer to bound sensor.">
<polygon fill="white" stroke="#666666" points="304.25,-350.88 159.25,-350.88 159.25,-320.38 304.25,-320.38 304.25,-350.88"/>
<text xml:space="preserve" text-anchor="start" x="167.25" y="-337.38" font-family="Helvetica,sans-Serif" font-size="10.00">MeasurementPoint::getBound</text>
<text xml:space="preserve" text-anchor="middle" x="231.75" y="-326.12" font-family="Helvetica,sans-Serif" font-size="10.00">Sensor</text>
</a>
</g>
</g>
<!-- Node1&#45;&gt;Node9 -->
<g id="edge8_Node000001_Node000009" class="edge">
<title>Node1&#45;&gt;Node9</title>
<g id="a_edge8_Node000001_Node000009"><a xlink:title=" ">
<path fill="none" stroke="#63b8ff" d="M69.15,-249.11C85.51,-266.73 114.53,-295.18 145,-311.62 147.65,-313.06 150.39,-314.41 153.2,-315.68"/>
<polygon fill="#63b8ff" stroke="#63b8ff" points="151.62,-318.82 162.2,-319.41 154.29,-312.35 151.62,-318.82"/>
</a>
</g>
</g>
<!-- Node10 -->
<g id="Node000010" class="node">
<title>Node10</title>
<g id="a_Node000010"><a xlink:href="class_measurement_point.html#aceaf14fde40bcd5331e5ea6a07d7dde8" target="_top" xlink:title="Get current temperature.">
<polygon fill="white" stroke="#666666" points="318.5,-302.25 145,-302.25 145,-283 318.5,-283 318.5,-302.25"/>
<text xml:space="preserve" text-anchor="middle" x="231.75" y="-288.75" font-family="Helvetica,sans-Serif" font-size="10.00">MeasurementPoint::getCurrentTemp</text>
</a>
</g>
</g>
<!-- Node1&#45;&gt;Node10 -->
<g id="edge9_Node000001_Node000010" class="edge">
<title>Node1&#45;&gt;Node10</title>
<g id="a_edge9_Node000001_Node000010"><a xlink:title=" ">
<path fill="none" stroke="#63b8ff" d="M85.07,-249.19C102.2,-257.69 124.38,-267.83 145,-274.62 150.78,-276.53 156.85,-278.28 162.97,-279.87"/>
<polygon fill="#63b8ff" stroke="#63b8ff" points="161.99,-283.23 172.53,-282.22 163.65,-276.44 161.99,-283.23"/>
</a>
</g>
</g>
<!-- Node11 -->
<g id="Node000011" class="node">
<title>Node11</title>
<g id="a_Node000011"><a xlink:href="class_sensor.html#a9f793cde2918130fbc77dad1aebfe53a" target="_top" xlink:title="Get DS18B20 ROM address as hex string.">
<polygon fill="white" stroke="#666666" points="309.12,-265.25 154.38,-265.25 154.38,-246 309.12,-246 309.12,-265.25"/>
<text xml:space="preserve" text-anchor="middle" x="231.75" y="-251.75" font-family="Helvetica,sans-Serif" font-size="10.00">Sensor::getDS18B20RomString</text>
</a>
</g>
</g>
<!-- Node1&#45;&gt;Node11 -->
<g id="edge10_Node000001_Node000011" class="edge">
<title>Node1&#45;&gt;Node11</title>
<g id="a_edge10_Node000001_Node000011"><a xlink:title=" ">
<path fill="none" stroke="#63b8ff" d="M109.03,-240.35C119.79,-241.7 131.36,-243.15 142.93,-244.6"/>
<polygon fill="#63b8ff" stroke="#63b8ff" points="142.14,-248.03 152.5,-245.8 143.01,-241.08 142.14,-248.03"/>
</a>
</g>
</g>
<!-- Node12 -->
<g id="Node000012" class="node">
<title>Node12</title>
<g id="a_Node000012"><a xlink:href="class_measurement_point.html#a71d6d440240f110cbd80c58bbc47aff6" target="_top" xlink:title="Get high alarm threshold.">
<polygon fill="white" stroke="#666666" points="300.5,-227.88 163,-227.88 163,-197.38 300.5,-197.38 300.5,-227.88"/>
<text xml:space="preserve" text-anchor="start" x="171" y="-214.38" font-family="Helvetica,sans-Serif" font-size="10.00">MeasurementPoint::getHigh</text>
<text xml:space="preserve" text-anchor="middle" x="231.75" y="-203.12" font-family="Helvetica,sans-Serif" font-size="10.00">AlarmThreshold</text>
</a>
</g>
</g>
<!-- Node1&#45;&gt;Node12 -->
<g id="edge11_Node000001_Node000012" class="edge">
<title>Node1&#45;&gt;Node12</title>
<g id="a_edge11_Node000001_Node000012"><a xlink:title=" ">
<path fill="none" stroke="#63b8ff" d="M109.03,-227.21C122.38,-225.61 136.97,-223.86 151.27,-222.15"/>
<polygon fill="#63b8ff" stroke="#63b8ff" points="151.63,-225.63 161.15,-220.97 150.8,-218.68 151.63,-225.63"/>
</a>
</g>
</g>
<!-- Node13 -->
<g id="Node000013" class="node">
<title>Node13</title>
<g id="a_Node000013"><a xlink:href="class_measurement_point.html#a6e538e117d9e22c6998b56519a51d6ba" target="_top" xlink:title="Get low alarm threshold.">
<polygon fill="white" stroke="#666666" points="299.38,-178.88 164.12,-178.88 164.12,-148.38 299.38,-148.38 299.38,-178.88"/>
<text xml:space="preserve" text-anchor="start" x="172.12" y="-165.38" font-family="Helvetica,sans-Serif" font-size="10.00">MeasurementPoint::getLow</text>
<text xml:space="preserve" text-anchor="middle" x="231.75" y="-154.12" font-family="Helvetica,sans-Serif" font-size="10.00">AlarmThreshold</text>
</a>
</g>
</g>
<!-- Node1&#45;&gt;Node13 -->
<g id="edge12_Node000001_Node000013" class="edge">
<title>Node1&#45;&gt;Node13</title>
<g id="a_edge12_Node000001_Node000013"><a xlink:title=" ">
<path fill="none" stroke="#63b8ff" d="M83.51,-217.88C100.86,-208.55 123.8,-196.97 145,-188.62 150.19,-186.58 155.61,-184.62 161.1,-182.76"/>
<polygon fill="#63b8ff" stroke="#63b8ff" points="161.83,-186.2 170.25,-179.77 159.66,-179.55 161.83,-186.2"/>
</a>
</g>
</g>
<!-- Node14 -->
<g id="Node000014" class="node">
<title>Node14</title>
<g id="a_Node000014"><a xlink:href="class_measurement_point.html#a8677e00e0be369d7874f4982990dc56d" target="_top" xlink:title="Get maximum recorded temperature.">
<polygon fill="white" stroke="#666666" points="311.75,-130.25 151.75,-130.25 151.75,-111 311.75,-111 311.75,-130.25"/>
<text xml:space="preserve" text-anchor="middle" x="231.75" y="-116.75" font-family="Helvetica,sans-Serif" font-size="10.00">MeasurementPoint::getMaxTemp</text>
</a>
</g>
</g>
<!-- Node1&#45;&gt;Node14 -->
<g id="edge13_Node000001_Node000014" class="edge">
<title>Node1&#45;&gt;Node14</title>
<g id="a_edge13_Node000001_Node000014"><a xlink:title=" ">
<path fill="none" stroke="#63b8ff" d="M65.89,-217.9C80.78,-196.66 110.27,-159.23 145,-139.62 148.19,-137.83 151.53,-136.2 154.97,-134.72"/>
<polygon fill="#63b8ff" stroke="#63b8ff" points="155.99,-138.08 164.12,-131.28 153.53,-131.53 155.99,-138.08"/>
</a>
</g>
</g>
<!-- Node15 -->
<g id="Node000015" class="node">
<title>Node15</title>
<g id="a_Node000015"><a xlink:href="class_measurement_point.html#adc31f012462c1623617d5f362bcb2c59" target="_top" xlink:title="Get minimum recorded temperature.">
<polygon fill="white" stroke="#666666" points="310.25,-93.25 153.25,-93.25 153.25,-74 310.25,-74 310.25,-93.25"/>
<text xml:space="preserve" text-anchor="middle" x="231.75" y="-79.75" font-family="Helvetica,sans-Serif" font-size="10.00">MeasurementPoint::getMinTemp</text>
</a>
</g>
</g>
<!-- Node1&#45;&gt;Node15 -->
<g id="edge14_Node000001_Node000015" class="edge">
<title>Node1&#45;&gt;Node15</title>
<g id="a_edge14_Node000001_Node000015"><a xlink:title=" ">
<path fill="none" stroke="#63b8ff" d="M61.39,-218.12C72.88,-190.07 101.08,-131.09 145,-101.62 146.61,-100.55 148.27,-99.53 149.97,-98.58"/>
<polygon fill="#63b8ff" stroke="#63b8ff" points="151.24,-101.85 158.75,-94.37 148.22,-95.53 151.24,-101.85"/>
</a>
</g>
</g>
<!-- Node16 -->
<g id="Node000016" class="node">
<title>Node16</title>
<g id="a_Node000016"><a xlink:href="class_measurement_point.html#aa3a80d373c7609c7b178bf7353ffdd7a" target="_top" xlink:title="Get measurement point name.">
<polygon fill="white" stroke="#666666" points="303.5,-56.25 160,-56.25 160,-37 303.5,-37 303.5,-56.25"/>
<text xml:space="preserve" text-anchor="middle" x="231.75" y="-42.75" font-family="Helvetica,sans-Serif" font-size="10.00">MeasurementPoint::getName</text>
</a>
</g>
</g>
<!-- Node1&#45;&gt;Node16 -->
<g id="edge15_Node000001_Node000016" class="edge">
<title>Node1&#45;&gt;Node16</title>
<g id="a_edge15_Node000001_Node000016"><a xlink:title=" ">
<path fill="none" stroke="#63b8ff" d="M59.05,-217.88C67.54,-184.04 92.35,-104.26 145,-64.62 146.55,-63.46 148.15,-62.37 149.8,-61.34"/>
<polygon fill="#63b8ff" stroke="#63b8ff" points="151.13,-64.6 158.39,-56.87 147.9,-58.39 151.13,-64.6"/>
</a>
</g>
</g>
<!-- Node17 -->
<g id="Node000017" class="node">
<title>Node17</title>
<g id="a_Node000017"><a xlink:href="class_sensor.html#a0f6f095e7cfdfffb2a395dfdae7cfa53" target="_top" xlink:title="Get sensor type.">
<polygon fill="white" stroke="#666666" points="275.38,-19.25 188.12,-19.25 188.12,0 275.38,0 275.38,-19.25"/>
<text xml:space="preserve" text-anchor="middle" x="231.75" y="-5.75" font-family="Helvetica,sans-Serif" font-size="10.00">Sensor::getType</text>
</a>
</g>
</g>
<!-- Node1&#45;&gt;Node17 -->
<g id="edge16_Node000001_Node000017" class="edge">
<title>Node1&#45;&gt;Node17</title>
<g id="a_edge16_Node000001_Node000017"><a xlink:title=" ">
<path fill="none" stroke="#63b8ff" d="M57.4,-218.09C63.02,-179.35 83.19,-78.01 145,-27.62 154.11,-20.2 165.54,-15.61 177.06,-12.83"/>
<polygon fill="#63b8ff" stroke="#63b8ff" points="177.42,-16.33 186.56,-10.98 176.08,-9.46 177.42,-16.33"/>
</a>
</g>
</g>
<!-- Node4 -->
<g id="Node000004" class="node">
<title>Node4</title>
<g id="a_Node000004"><a xlink:href="class_c_s_v_config_manager.html#a42f3d6d3fe90a50339e53c550cbdcc4a" target="_top" xlink:title="Convert alarm priority enum to string.">
<polygon fill="white" stroke="#666666" points="468.75,-497.88 359.75,-497.88 359.75,-467.38 468.75,-467.38 468.75,-497.88"/>
<text xml:space="preserve" text-anchor="start" x="367.75" y="-484.38" font-family="Helvetica,sans-Serif" font-size="10.00">CSVConfigManager::</text>
<text xml:space="preserve" text-anchor="middle" x="414.25" y="-473.12" font-family="Helvetica,sans-Serif" font-size="10.00">_getPriorityString</text>
</a>
</g>
</g>
<!-- Node3&#45;&gt;Node4 -->
<g id="edge3_Node000003_Node000004" class="edge">
<title>Node3&#45;&gt;Node4</title>
<g id="a_edge3_Node000003_Node000004"><a xlink:title=" ">
<path fill="none" stroke="#63b8ff" d="M288.76,-437.26C298.71,-440.23 308.94,-443.42 318.5,-446.62 333.26,-451.57 349.13,-457.4 363.58,-462.9"/>
<polygon fill="#63b8ff" stroke="#63b8ff" points="362.31,-466.17 372.9,-466.49 364.83,-459.63 362.31,-466.17"/>
</a>
</g>
</g>
<!-- Node5 -->
<g id="Node000005" class="node">
<title>Node5</title>
<g id="a_Node000005"><a xlink:href="class_alarm.html#ab12dd2af567dd87228d9404dcce5b0c0" target="_top" xlink:title="Get the measurement point address.">
<polygon fill="white" stroke="#666666" points="474,-449.25 354.5,-449.25 354.5,-430 474,-430 474,-449.25"/>
<text xml:space="preserve" text-anchor="middle" x="414.25" y="-435.75" font-family="Helvetica,sans-Serif" font-size="10.00">Alarm::getPointAddress</text>
</a>
</g>
</g>
<!-- Node3&#45;&gt;Node5 -->
<g id="edge4_Node000003_Node000005" class="edge">
<title>Node3&#45;&gt;Node5</title>
<g id="a_edge4_Node000003_Node000005"><a xlink:title=" ">
<path fill="none" stroke="#63b8ff" d="M295.88,-427.92C311.1,-429.44 327.45,-431.07 342.97,-432.62"/>
<polygon fill="#63b8ff" stroke="#63b8ff" points="342.29,-436.07 352.59,-433.58 342.98,-429.1 342.29,-436.07"/>
</a>
</g>
</g>
<!-- Node6 -->
<g id="Node000006" class="node">
<title>Node6</title>
<g id="a_Node000006"><a xlink:href="class_alarm.html#abe89e376d8cacb582717ad6a65526ee8" target="_top" xlink:title="Get the alarm priority.">
<polygon fill="white" stroke="#666666" points="460.12,-412.25 368.38,-412.25 368.38,-393 460.12,-393 460.12,-412.25"/>
<text xml:space="preserve" text-anchor="middle" x="414.25" y="-398.75" font-family="Helvetica,sans-Serif" font-size="10.00">Alarm::getPriority</text>
</a>
</g>
</g>
<!-- Node3&#45;&gt;Node6 -->
<g id="edge5_Node000003_Node000006" class="edge">
<title>Node3&#45;&gt;Node6</title>
<g id="a_edge5_Node000003_Node000006"><a xlink:title=" ">
<path fill="none" stroke="#63b8ff" d="M295.88,-414.98C315.67,-412.9 337.38,-410.61 356.69,-408.58"/>
<polygon fill="#63b8ff" stroke="#63b8ff" points="356.97,-412.07 366.55,-407.54 356.24,-405.11 356.97,-412.07"/>
</a>
</g>
</g>
<!-- Node7 -->
<g id="Node000007" class="node">
<title>Node7</title>
<g id="a_Node000007"><a xlink:href="class_alarm.html#acfac41af4628d83d3fdcc11c8fb55069" target="_top" xlink:title="Get the alarm type.">
<polygon fill="white" stroke="#666666" points="455.25,-375.25 373.25,-375.25 373.25,-356 455.25,-356 455.25,-375.25"/>
<text xml:space="preserve" text-anchor="middle" x="414.25" y="-361.75" font-family="Helvetica,sans-Serif" font-size="10.00">Alarm::getType</text>
</a>
</g>
</g>
<!-- Node3&#45;&gt;Node7 -->
<g id="edge6_Node000003_Node000007" class="edge">
<title>Node3&#45;&gt;Node7</title>
<g id="a_edge6_Node000003_Node000007"><a xlink:title=" ">
<path fill="none" stroke="#63b8ff" d="M291.56,-405.99C300.63,-403.34 309.85,-400.51 318.5,-397.62 334.79,-392.19 338.28,-389.25 354.5,-383.62 358.92,-382.09 363.55,-380.55 368.19,-379.06"/>
<polygon fill="#63b8ff" stroke="#63b8ff" points="369.01,-382.47 377.5,-376.13 366.91,-375.79 369.01,-382.47"/>
</a>
</g>
</g>
</g>
</svg>
