<?xml version="1.0" encoding="UTF-8" standalone="no"?>
<!DOCTYPE svg PUBLIC "-//W3C//DTD SVG 1.1//EN"
 "http://www.w3.org/Graphics/SVG/1.1/DTD/svg11.dtd">
<!-- Generated by graphviz version 13.1.0 (20250701.0955)
 -->
<!-- Title: LoggerManager::closeCurrentFile Pages: 1 -->
<svg width="548pt" height="88pt"
 viewBox="0.00 0.00 548.00 88.00" xmlns="http://www.w3.org/2000/svg" xmlns:xlink="http://www.w3.org/1999/xlink">
<g id="graph0" class="graph" transform="scale(1 1) rotate(0) translate(4 84.25)">
<title>LoggerManager::closeCurrentFile</title>
<!-- Node1 -->
<g id="Node000001" class="node">
<title>Node1</title>
<g id="a_Node000001"><a xlink:title=" ">
<polygon fill="#999999" stroke="#666666" points="540,-40.25 380,-40.25 380,-21 540,-21 540,-40.25"/>
<text xml:space="preserve" text-anchor="middle" x="460" y="-26.75" font-family="Helvetica,sans-Serif" font-size="10.00">LoggerManager::closeCurrentFile</text>
</a>
</g>
</g>
<!-- Node2 -->
<g id="Node000002" class="node">
<title>Node2</title>
<g id="a_Node000002"><a xlink:href="$class_logger_manager.html#a445856fb9bb37bd5e61d5242d8996c1f" xlink:title=" ">
<polygon fill="white" stroke="#666666" points="331.25,-67.88 195.25,-67.88 195.25,-37.38 331.25,-37.38 331.25,-67.88"/>
<text xml:space="preserve" text-anchor="start" x="203.25" y="-54.38" font-family="Helvetica,sans-Serif" font-size="10.00">LoggerManager::createNew</text>
<text xml:space="preserve" text-anchor="middle" x="263.25" y="-43.12" font-family="Helvetica,sans-Serif" font-size="10.00">LogFile</text>
</a>
</g>
</g>
<!-- Node1&#45;&gt;Node2 -->
<g id="edge1_Node000001_Node000002" class="edge">
<title>Node1&#45;&gt;Node2</title>
<g id="a_edge1_Node000001_Node000002"><a xlink:title=" ">
<path fill="none" stroke="#63b8ff" d="M368.25,-40.88C355.93,-42.27 343.47,-43.68 331.66,-45.01"/>
<polygon fill="#63b8ff" stroke="#63b8ff" points="368.46,-44.38 378,-39.77 367.67,-37.42 368.46,-44.38"/>
</a>
</g>
</g>
<!-- Node5 -->
<g id="Node000005" class="node">
<title>Node5</title>
<g id="a_Node000005"><a xlink:href="$class_logger_manager.html#a0738a5887eb50eba0f08a250b9aa7675" xlink:title="Destructor for LoggerManager.">
<polygon fill="white" stroke="#666666" points="344,-19.25 182.5,-19.25 182.5,0 344,0 344,-19.25"/>
<text xml:space="preserve" text-anchor="middle" x="263.25" y="-5.75" font-family="Helvetica,sans-Serif" font-size="10.00">LoggerManager::~LoggerManager</text>
</a>
</g>
</g>
<!-- Node1&#45;&gt;Node5 -->
<g id="edge4_Node000001_Node000005" class="edge">
<title>Node1&#45;&gt;Node5</title>
<g id="a_edge4_Node000001_Node000005"><a xlink:title=" ">
<path fill="none" stroke="#63b8ff" d="M368.3,-20.85C360.34,-19.99 352.31,-19.12 344.44,-18.27"/>
<polygon fill="#63b8ff" stroke="#63b8ff" points="367.68,-24.3 378,-21.89 368.43,-17.34 367.68,-24.3"/>
</a>
</g>
</g>
<!-- Node3 -->
<g id="Node000003" class="node">
<title>Node3</title>
<g id="a_Node000003"><a xlink:href="$class_logger_manager.html#a32e39dd8df48f64677732ede4066f01d" xlink:title=" ">
<polygon fill="white" stroke="#666666" points="146.5,-80.25 0,-80.25 0,-61 146.5,-61 146.5,-80.25"/>
<text xml:space="preserve" text-anchor="middle" x="73.25" y="-66.75" font-family="Helvetica,sans-Serif" font-size="10.00">LoggerManager::forceNewFile</text>
</a>
</g>
</g>
<!-- Node2&#45;&gt;Node3 -->
<g id="edge2_Node000002_Node000003" class="edge">
<title>Node2&#45;&gt;Node3</title>
<g id="a_edge2_Node000002_Node000003"><a xlink:title=" ">
<path fill="none" stroke="#63b8ff" d="M183.79,-60.14C171.55,-61.31 158.95,-62.52 146.85,-63.67"/>
<polygon fill="#63b8ff" stroke="#63b8ff" points="183.78,-63.65 193.4,-59.22 183.11,-56.69 183.78,-63.65"/>
</a>
</g>
</g>
<!-- Node4 -->
<g id="Node000004" class="node">
<title>Node4</title>
<g id="a_Node000004"><a xlink:href="$class_logger_manager.html#a830c86f1f27d3799eab1de908fc6b647" xlink:title=" ">
<polygon fill="white" stroke="#666666" points="132.25,-43.25 14.25,-43.25 14.25,-24 132.25,-24 132.25,-43.25"/>
<text xml:space="preserve" text-anchor="middle" x="73.25" y="-29.75" font-family="Helvetica,sans-Serif" font-size="10.00">LoggerManager::update</text>
</a>
</g>
</g>
<!-- Node2&#45;&gt;Node4 -->
<g id="edge3_Node000002_Node000004" class="edge">
<title>Node2&#45;&gt;Node4</title>
<g id="a_edge3_Node000002_Node000004"><a xlink:title=" ">
<path fill="none" stroke="#63b8ff" d="M183.8,-44.7C166.69,-42.97 148.88,-41.17 132.72,-39.53"/>
<polygon fill="#63b8ff" stroke="#63b8ff" points="183.1,-48.14 193.4,-45.67 183.81,-41.18 183.1,-48.14"/>
</a>
</g>
</g>
</g>
</svg>
