<?xml version="1.0" encoding="UTF-8" standalone="no"?>
<!DOCTYPE svg PUBLIC "-//W3C//DTD SVG 1.1//EN"
 "http://www.w3.org/Graphics/SVG/1.1/DTD/svg11.dtd">
<!-- Generated by graphviz version 13.1.0 (20250701.0955)
 -->
<!-- Title: IndicatorInterface::isOutput Pages: 1 -->
<svg width="365pt" height="284pt"
 viewBox="0.00 0.00 365.00 284.00" xmlns="http://www.w3.org/2000/svg" xmlns:xlink="http://www.w3.org/1999/xlink">
<g id="graph0" class="graph" transform="scale(1 1) rotate(0) translate(4 279.5)">
<title>IndicatorInterface::isOutput</title>
<!-- Node1 -->
<g id="Node000001" class="node">
<title>Node1</title>
<g id="a_Node000001"><a xlink:title=" ">
<polygon fill="#999999" stroke="#666666" points="357,-152.5 265.25,-152.5 265.25,-122 357,-122 357,-152.5"/>
<text xml:space="preserve" text-anchor="start" x="273.25" y="-139" font-family="Helvetica,sans-Serif" font-size="10.00">IndicatorInterface</text>
<text xml:space="preserve" text-anchor="middle" x="311.12" y="-127.75" font-family="Helvetica,sans-Serif" font-size="10.00">::isOutput</text>
</a>
</g>
</g>
<!-- Node2 -->
<g id="Node000002" class="node">
<title>Node2</title>
<g id="a_Node000002"><a xlink:href="class_indicator_interface.html#a962c3af9c6eb2c1af86ae52630249563" target="_top" xlink:title=" ">
<polygon fill="white" stroke="#666666" points="229.25,-275.5 137.5,-275.5 137.5,-245 229.25,-245 229.25,-275.5"/>
<text xml:space="preserve" text-anchor="start" x="145.5" y="-262" font-family="Helvetica,sans-Serif" font-size="10.00">IndicatorInterface</text>
<text xml:space="preserve" text-anchor="middle" x="183.38" y="-250.75" font-family="Helvetica,sans-Serif" font-size="10.00">::isInput</text>
</a>
</g>
</g>
<!-- Node1&#45;&gt;Node2 -->
<g id="edge1_Node000001_Node000002" class="edge">
<title>Node1&#45;&gt;Node2</title>
<g id="a_edge1_Node000001_Node000002"><a xlink:title=" ">
<path fill="none" stroke="#63b8ff" d="M293.66,-162.03C278.67,-183.29 255,-213.8 229.25,-235.25 225.14,-238.67 220.49,-241.87 215.78,-244.75"/>
<polygon fill="#63b8ff" stroke="#63b8ff" points="296.45,-164.16 299.25,-153.94 290.68,-160.19 296.45,-164.16"/>
</a>
</g>
</g>
<!-- Node3 -->
<g id="Node000003" class="node">
<title>Node3</title>
<g id="a_Node000003"><a xlink:href="class_indicator_interface.html#a21ce0e3bc0531d92f815059890c66c4c" target="_top" xlink:title=" ">
<polygon fill="white" stroke="#666666" points="229.25,-226.5 137.5,-226.5 137.5,-196 229.25,-196 229.25,-226.5"/>
<text xml:space="preserve" text-anchor="start" x="145.5" y="-213" font-family="Helvetica,sans-Serif" font-size="10.00">IndicatorInterface</text>
<text xml:space="preserve" text-anchor="middle" x="183.38" y="-201.75" font-family="Helvetica,sans-Serif" font-size="10.00">::printPortStates</text>
</a>
</g>
</g>
<!-- Node1&#45;&gt;Node3 -->
<g id="edge2_Node000001_Node000003" class="edge">
<title>Node1&#45;&gt;Node3</title>
<g id="a_edge2_Node000001_Node000003"><a xlink:title=" ">
<path fill="none" stroke="#63b8ff" d="M274.95,-158.94C260.81,-167.56 244.33,-177.49 229.25,-186.25 224.01,-189.3 218.38,-192.49 212.95,-195.54"/>
<polygon fill="#63b8ff" stroke="#63b8ff" points="276.77,-161.93 283.48,-153.73 273.12,-155.96 276.77,-161.93"/>
</a>
</g>
</g>
<!-- Node4 -->
<g id="Node000004" class="node">
<title>Node4</title>
<g id="a_Node000004"><a xlink:href="class_indicator_interface.html#a52dd1fa732e288e344fe017f100d6c0d" target="_top" xlink:title=" ">
<polygon fill="white" stroke="#666666" points="229.25,-177.5 137.5,-177.5 137.5,-147 229.25,-147 229.25,-177.5"/>
<text xml:space="preserve" text-anchor="start" x="145.5" y="-164" font-family="Helvetica,sans-Serif" font-size="10.00">IndicatorInterface</text>
<text xml:space="preserve" text-anchor="middle" x="183.38" y="-152.75" font-family="Helvetica,sans-Serif" font-size="10.00">::setAllOutputs</text>
</a>
</g>
</g>
<!-- Node1&#45;&gt;Node4 -->
<g id="edge3_Node000001_Node000004" class="edge">
<title>Node1&#45;&gt;Node4</title>
<g id="a_edge3_Node000001_Node000004"><a xlink:title=" ">
<path fill="none" stroke="#63b8ff" d="M254.04,-148.4C245.84,-150.03 237.48,-151.69 229.53,-153.27"/>
<polygon fill="#63b8ff" stroke="#63b8ff" points="254.47,-151.88 263.6,-146.5 253.11,-145.02 254.47,-151.88"/>
</a>
</g>
</g>
<!-- Node7 -->
<g id="Node000007" class="node">
<title>Node7</title>
<g id="a_Node000007"><a xlink:href="class_indicator_interface.html#aac59d81d86b39af42b24afc4378736f9" target="_top" xlink:title=" ">
<polygon fill="white" stroke="#666666" points="229.25,-128.5 137.5,-128.5 137.5,-98 229.25,-98 229.25,-128.5"/>
<text xml:space="preserve" text-anchor="start" x="145.5" y="-115" font-family="Helvetica,sans-Serif" font-size="10.00">IndicatorInterface</text>
<text xml:space="preserve" text-anchor="middle" x="183.38" y="-103.75" font-family="Helvetica,sans-Serif" font-size="10.00">::setDirection</text>
</a>
</g>
</g>
<!-- Node1&#45;&gt;Node7 -->
<g id="edge6_Node000001_Node000007" class="edge">
<title>Node1&#45;&gt;Node7</title>
<g id="a_edge6_Node000001_Node000007"><a xlink:title=" ">
<path fill="none" stroke="#63b8ff" d="M254.04,-126.55C245.84,-124.98 237.48,-123.38 229.53,-121.87"/>
<polygon fill="#63b8ff" stroke="#63b8ff" points="253.12,-129.93 263.59,-128.37 254.43,-123.06 253.12,-129.93"/>
</a>
</g>
</g>
<!-- Node8 -->
<g id="Node000008" class="node">
<title>Node8</title>
<g id="a_Node000008"><a xlink:href="class_indicator_interface.html#a6b01cb93befc42d644388756ff986f6e" target="_top" xlink:title=" ">
<polygon fill="white" stroke="#666666" points="229.25,-79.5 137.5,-79.5 137.5,-49 229.25,-49 229.25,-79.5"/>
<text xml:space="preserve" text-anchor="start" x="145.5" y="-66" font-family="Helvetica,sans-Serif" font-size="10.00">IndicatorInterface</text>
<text xml:space="preserve" text-anchor="middle" x="183.38" y="-54.75" font-family="Helvetica,sans-Serif" font-size="10.00">::writePort</text>
</a>
</g>
</g>
<!-- Node1&#45;&gt;Node8 -->
<g id="edge7_Node000001_Node000008" class="edge">
<title>Node1&#45;&gt;Node8</title>
<g id="a_edge7_Node000001_Node000008"><a xlink:title=" ">
<path fill="none" stroke="#63b8ff" d="M274.26,-115.68C260.27,-107.34 244.06,-97.77 229.25,-89.25 223.84,-86.14 218.03,-82.86 212.45,-79.74"/>
<polygon fill="#63b8ff" stroke="#63b8ff" points="272.33,-118.6 282.71,-120.73 275.92,-112.59 272.33,-118.6"/>
</a>
</g>
</g>
<!-- Node9 -->
<g id="Node000009" class="node">
<title>Node9</title>
<g id="a_Node000009"><a xlink:href="class_indicator_interface.html#afb68095f494956d24c4013a048b083bf" target="_top" xlink:title=" ">
<polygon fill="white" stroke="#666666" points="229.25,-30.5 137.5,-30.5 137.5,0 229.25,0 229.25,-30.5"/>
<text xml:space="preserve" text-anchor="start" x="145.5" y="-17" font-family="Helvetica,sans-Serif" font-size="10.00">IndicatorInterface</text>
<text xml:space="preserve" text-anchor="middle" x="183.38" y="-5.75" font-family="Helvetica,sans-Serif" font-size="10.00">::writePorts</text>
</a>
</g>
</g>
<!-- Node1&#45;&gt;Node9 -->
<g id="edge8_Node000001_Node000009" class="edge">
<title>Node1&#45;&gt;Node9</title>
<g id="a_edge8_Node000001_Node000009"><a xlink:title=" ">
<path fill="none" stroke="#63b8ff" d="M293.36,-112.37C278.32,-91.36 254.75,-61.39 229.25,-40.25 225.13,-36.84 220.48,-33.65 215.77,-30.77"/>
<polygon fill="#63b8ff" stroke="#63b8ff" points="290.36,-114.2 298.96,-120.38 296.09,-110.18 290.36,-114.2"/>
</a>
</g>
</g>
<!-- Node5 -->
<g id="Node000005" class="node">
<title>Node5</title>
<g id="a_Node000005"><a xlink:href="class_indicator_interface.html#ada8f967d6d074b194ab4876b10869357" target="_top" xlink:title=" ">
<polygon fill="white" stroke="#666666" points="101.5,-201.5 0,-201.5 0,-171 101.5,-171 101.5,-201.5"/>
<text xml:space="preserve" text-anchor="start" x="8" y="-188" font-family="Helvetica,sans-Serif" font-size="10.00">IndicatorInterface</text>
<text xml:space="preserve" text-anchor="middle" x="50.75" y="-176.75" font-family="Helvetica,sans-Serif" font-size="10.00">::setAllOutputsHigh</text>
</a>
</g>
</g>
<!-- Node4&#45;&gt;Node5 -->
<g id="edge4_Node000004_Node000005" class="edge">
<title>Node4&#45;&gt;Node5</title>
<g id="a_edge4_Node000004_Node000005"><a xlink:title=" ">
<path fill="none" stroke="#63b8ff" d="M125.93,-172.62C117.94,-174.09 109.76,-175.59 101.9,-177.04"/>
<polygon fill="#63b8ff" stroke="#63b8ff" points="126.36,-176.1 135.57,-170.85 125.1,-169.21 126.36,-176.1"/>
</a>
</g>
</g>
<!-- Node6 -->
<g id="Node000006" class="node">
<title>Node6</title>
<g id="a_Node000006"><a xlink:href="class_indicator_interface.html#a7da1cedbcb4ab157e483afcd02f35066" target="_top" xlink:title=" ">
<polygon fill="white" stroke="#666666" points="100.38,-152.5 1.12,-152.5 1.12,-122 100.38,-122 100.38,-152.5"/>
<text xml:space="preserve" text-anchor="start" x="9.12" y="-139" font-family="Helvetica,sans-Serif" font-size="10.00">IndicatorInterface</text>
<text xml:space="preserve" text-anchor="middle" x="50.75" y="-127.75" font-family="Helvetica,sans-Serif" font-size="10.00">::setAllOutputsLow</text>
</a>
</g>
</g>
<!-- Node4&#45;&gt;Node6 -->
<g id="edge5_Node000004_Node000006" class="edge">
<title>Node4&#45;&gt;Node6</title>
<g id="a_edge5_Node000004_Node000006"><a xlink:title=" ">
<path fill="none" stroke="#63b8ff" d="M125.77,-151.42C117.37,-149.81 108.78,-148.16 100.55,-146.59"/>
<polygon fill="#63b8ff" stroke="#63b8ff" points="125.09,-154.85 135.57,-153.29 126.4,-147.97 125.09,-154.85"/>
</a>
</g>
</g>
</g>
</svg>
