<?xml version="1.0" encoding="UTF-8" standalone="no"?>
<!DOCTYPE svg PUBLIC "-//W3C//DTD SVG 1.1//EN"
 "http://www.w3.org/Graphics/SVG/1.1/DTD/svg11.dtd">
<!-- Generated by graphviz version 13.1.0 (20250701.0955)
 -->
<!-- Title: Sensor::getName Pages: 1 -->
<svg width="505pt" height="186pt"
 viewBox="0.00 0.00 505.00 186.00" xmlns="http://www.w3.org/2000/svg" xmlns:xlink="http://www.w3.org/1999/xlink">
<g id="graph0" class="graph" transform="scale(1 1) rotate(0) translate(4 181.5)">
<title>Sensor::getName</title>
<!-- Node1 -->
<g id="Node000001" class="node">
<title>Node1</title>
<g id="a_Node000001"><a xlink:title="Get sensor name.">
<polygon fill="#999999" stroke="#666666" points="497.25,-122.88 404.75,-122.88 404.75,-103.62 497.25,-103.62 497.25,-122.88"/>
<text xml:space="preserve" text-anchor="middle" x="451" y="-109.38" font-family="Helvetica,sans-Serif" font-size="10.00">Sensor::getName</text>
</a>
</g>
</g>
<!-- Node2 -->
<g id="Node000002" class="node">
<title>Node2</title>
<g id="a_Node000002"><a xlink:href="class_temperature_controller.html#a57b74b40c88016965d07248981412f7d" target="_top" xlink:title="Discover DS18B20 sensors on all OneWire buses.">
<polygon fill="white" stroke="#666666" points="352.62,-177.5 215.88,-177.5 215.88,-147 352.62,-147 352.62,-177.5"/>
<text xml:space="preserve" text-anchor="start" x="223.88" y="-164" font-family="Helvetica,sans-Serif" font-size="10.00">TemperatureController</text>
<text xml:space="preserve" text-anchor="middle" x="284.25" y="-152.75" font-family="Helvetica,sans-Serif" font-size="10.00">::discoverDS18B20Sensors</text>
</a>
</g>
</g>
<!-- Node1&#45;&gt;Node2 -->
<g id="edge1_Node000001_Node000002" class="edge">
<title>Node1&#45;&gt;Node2</title>
<g id="a_edge1_Node000001_Node000002"><a xlink:title=" ">
<path fill="none" stroke="#63b8ff" d="M405.5,-126.49C384.71,-132.67 359.82,-140.07 338.08,-146.54"/>
<polygon fill="#63b8ff" stroke="#63b8ff" points="406.22,-129.92 414.81,-123.72 404.23,-123.21 406.22,-129.92"/>
</a>
</g>
</g>
<!-- Node3 -->
<g id="Node000003" class="node">
<title>Node3</title>
<g id="a_Node000003"><a xlink:href="class_temperature_controller.html#a79e98c9a1d42de787a66e02b250b7a74" target="_top" xlink:title="Discover PT1000 sensors on SPI bus.">
<polygon fill="white" stroke="#666666" points="340.25,-128.5 228.25,-128.5 228.25,-98 340.25,-98 340.25,-128.5"/>
<text xml:space="preserve" text-anchor="start" x="236.25" y="-115" font-family="Helvetica,sans-Serif" font-size="10.00">TemperatureController</text>
<text xml:space="preserve" text-anchor="middle" x="284.25" y="-103.75" font-family="Helvetica,sans-Serif" font-size="10.00">::discoverPTSensors</text>
</a>
</g>
</g>
<!-- Node1&#45;&gt;Node3 -->
<g id="edge2_Node000001_Node000003" class="edge">
<title>Node1&#45;&gt;Node3</title>
<g id="a_edge2_Node000001_Node000003"><a xlink:title=" ">
<path fill="none" stroke="#63b8ff" d="M393.06,-113.25C376.05,-113.25 357.43,-113.25 340.52,-113.25"/>
<polygon fill="#63b8ff" stroke="#63b8ff" points="393.03,-116.75 403.03,-113.25 393.03,-109.75 393.03,-116.75"/>
</a>
</g>
</g>
<!-- Node5 -->
<g id="Node000005" class="node">
<title>Node5</title>
<g id="a_Node000005"><a xlink:href="class_temperature_controller.html#ad3819418f9f301f3f7047ba686a11be0" target="_top" xlink:title="Unbind sensor from any measurement point it&#39;s bound to.">
<polygon fill="white" stroke="#666666" points="368.75,-79.5 199.75,-79.5 199.75,-49 368.75,-49 368.75,-79.5"/>
<text xml:space="preserve" text-anchor="start" x="207.75" y="-66" font-family="Helvetica,sans-Serif" font-size="10.00">TemperatureController</text>
<text xml:space="preserve" text-anchor="middle" x="284.25" y="-54.75" font-family="Helvetica,sans-Serif" font-size="10.00">::unbindSensorFromPointBySensor</text>
</a>
</g>
</g>
<!-- Node1&#45;&gt;Node5 -->
<g id="edge4_Node000001_Node000005" class="edge">
<title>Node1&#45;&gt;Node5</title>
<g id="a_edge4_Node000001_Node000005"><a xlink:title=" ">
<path fill="none" stroke="#63b8ff" d="M405.5,-100.01C384.71,-93.83 359.82,-86.43 338.08,-79.96"/>
<polygon fill="#63b8ff" stroke="#63b8ff" points="404.23,-103.29 414.81,-102.78 406.22,-96.58 404.23,-103.29"/>
</a>
</g>
</g>
<!-- Node4 -->
<g id="Node000004" class="node">
<title>Node4</title>
<g id="a_Node000004"><a xlink:href="class_temperature_controller.html#af59d6d6d48ed8ddfb968a1fa2dce6768" target="_top" xlink:title="Initialize the temperature controller system.">
<polygon fill="white" stroke="#666666" points="137.88,-128.5 25.88,-128.5 25.88,-98 137.88,-98 137.88,-128.5"/>
<text xml:space="preserve" text-anchor="start" x="33.88" y="-115" font-family="Helvetica,sans-Serif" font-size="10.00">TemperatureController</text>
<text xml:space="preserve" text-anchor="middle" x="81.88" y="-103.75" font-family="Helvetica,sans-Serif" font-size="10.00">::begin</text>
</a>
</g>
</g>
<!-- Node3&#45;&gt;Node4 -->
<g id="edge3_Node000003_Node000004" class="edge">
<title>Node3&#45;&gt;Node4</title>
<g id="a_edge3_Node000003_Node000004"><a xlink:title=" ">
<path fill="none" stroke="#63b8ff" d="M216.56,-113.25C191.18,-113.25 162.56,-113.25 138.33,-113.25"/>
<polygon fill="#63b8ff" stroke="#63b8ff" points="216.45,-116.75 226.45,-113.25 216.45,-109.75 216.45,-116.75"/>
</a>
</g>
</g>
<!-- Node6 -->
<g id="Node000006" class="node">
<title>Node6</title>
<g id="a_Node000006"><a xlink:href="class_temperature_controller.html#a84937fc1aed30193b817f3b062ce0cfc" target="_top" xlink:title="Bind PT1000 sensor to measurement point by chip select pin.">
<polygon fill="white" stroke="#666666" points="163.75,-79.5 0,-79.5 0,-49 163.75,-49 163.75,-79.5"/>
<text xml:space="preserve" text-anchor="start" x="8" y="-66" font-family="Helvetica,sans-Serif" font-size="10.00">TemperatureController</text>
<text xml:space="preserve" text-anchor="middle" x="81.88" y="-54.75" font-family="Helvetica,sans-Serif" font-size="10.00">::bindSensorToPointByChipSelect</text>
</a>
</g>
</g>
<!-- Node5&#45;&gt;Node6 -->
<g id="edge5_Node000005_Node000006" class="edge">
<title>Node5&#45;&gt;Node6</title>
<g id="a_edge5_Node000005_Node000006"><a xlink:title=" ">
<path fill="none" stroke="#63b8ff" d="M188.13,-64.25C180.1,-64.25 172.02,-64.25 164.11,-64.25"/>
<polygon fill="#63b8ff" stroke="#63b8ff" points="187.92,-67.75 197.92,-64.25 187.92,-60.75 187.92,-67.75"/>
</a>
</g>
</g>
<!-- Node7 -->
<g id="Node000007" class="node">
<title>Node7</title>
<g id="a_Node000007"><a xlink:href="class_temperature_controller.html#a5d8f7c51bb176435a5035293a2db78f7" target="_top" xlink:title="Bind sensor to measurement point by ROM address.">
<polygon fill="white" stroke="#666666" points="150.25,-30.5 13.5,-30.5 13.5,0 150.25,0 150.25,-30.5"/>
<text xml:space="preserve" text-anchor="start" x="21.5" y="-17" font-family="Helvetica,sans-Serif" font-size="10.00">TemperatureController</text>
<text xml:space="preserve" text-anchor="middle" x="81.88" y="-5.75" font-family="Helvetica,sans-Serif" font-size="10.00">::bindSensorToPointByRom</text>
</a>
</g>
</g>
<!-- Node5&#45;&gt;Node7 -->
<g id="edge6_Node000005_Node000007" class="edge">
<title>Node5&#45;&gt;Node7</title>
<g id="a_edge6_Node000005_Node000007"><a xlink:title=" ">
<path fill="none" stroke="#63b8ff" d="M208.05,-45.86C187.98,-40.95 166.49,-35.7 147.08,-30.95"/>
<polygon fill="#63b8ff" stroke="#63b8ff" points="207.01,-49.21 217.55,-48.18 208.67,-42.41 207.01,-49.21"/>
</a>
</g>
</g>
</g>
</svg>
