<?xml version="1.0" encoding="UTF-8" standalone="no"?>
<!DOCTYPE svg PUBLIC "-//W3C//DTD SVG 1.1//EN"
 "http://www.w3.org/Graphics/SVG/1.1/DTD/svg11.dtd">
<!-- Generated by graphviz version 13.1.0 (20250701.0955)
 -->
<!-- Title: IndicatorInterface::_handleOLEDSleep Pages: 1 -->
<svg width="371pt" height="39pt"
 viewBox="0.00 0.00 371.00 39.00" xmlns="http://www.w3.org/2000/svg" xmlns:xlink="http://www.w3.org/1999/xlink">
<g id="graph0" class="graph" transform="scale(1 1) rotate(0) translate(4 34.5)">
<title>IndicatorInterface::_handleOLEDSleep</title>
<!-- Node1 -->
<g id="Node000001" class="node">
<title>Node1</title>
<g id="a_Node000001"><a xlink:title="Handle OLED sleep management.">
<polygon fill="#999999" stroke="#666666" points="363,-30.5 255.5,-30.5 255.5,0 363,0 363,-30.5"/>
<text xml:space="preserve" text-anchor="start" x="263.5" y="-17" font-family="Helvetica,sans-Serif" font-size="10.00">IndicatorInterface</text>
<text xml:space="preserve" text-anchor="middle" x="309.25" y="-5.75" font-family="Helvetica,sans-Serif" font-size="10.00">::_handleOLEDSleep</text>
</a>
</g>
</g>
<!-- Node2 -->
<g id="Node000002" class="node">
<title>Node2</title>
<g id="a_Node000002"><a xlink:href="class_indicator_interface.html#a5f9eaa4ad4d2da76bf9536a4dfad8723" target="_top" xlink:title="Update OLED display (call in main loop)">
<polygon fill="white" stroke="#666666" points="219.5,-30.5 127.75,-30.5 127.75,0 219.5,0 219.5,-30.5"/>
<text xml:space="preserve" text-anchor="start" x="135.75" y="-17" font-family="Helvetica,sans-Serif" font-size="10.00">IndicatorInterface</text>
<text xml:space="preserve" text-anchor="middle" x="173.62" y="-5.75" font-family="Helvetica,sans-Serif" font-size="10.00">::updateOLED</text>
</a>
</g>
</g>
<!-- Node1&#45;&gt;Node2 -->
<g id="edge1_Node000001_Node000002" class="edge">
<title>Node1&#45;&gt;Node2</title>
<g id="a_edge1_Node000001_Node000002"><a xlink:title=" ">
<path fill="none" stroke="#63b8ff" d="M243.74,-15.25C235.67,-15.25 227.57,-15.25 219.89,-15.25"/>
<polygon fill="#63b8ff" stroke="#63b8ff" points="243.54,-18.75 253.54,-15.25 243.54,-11.75 243.54,-18.75"/>
</a>
</g>
</g>
<!-- Node3 -->
<g id="Node000003" class="node">
<title>Node3</title>
<g id="a_Node000003"><a xlink:href="class_indicator_interface.html#a01db31cebc14d62f6aa9b1266e6c278d" target="_top" xlink:title="Update interface state (call in main loop)">
<polygon fill="white" stroke="#666666" points="91.75,-30.5 0,-30.5 0,0 91.75,0 91.75,-30.5"/>
<text xml:space="preserve" text-anchor="start" x="8" y="-17" font-family="Helvetica,sans-Serif" font-size="10.00">IndicatorInterface</text>
<text xml:space="preserve" text-anchor="middle" x="45.88" y="-5.75" font-family="Helvetica,sans-Serif" font-size="10.00">::update</text>
</a>
</g>
</g>
<!-- Node2&#45;&gt;Node3 -->
<g id="edge2_Node000002_Node000003" class="edge">
<title>Node2&#45;&gt;Node3</title>
<g id="a_edge2_Node000002_Node000003"><a xlink:title=" ">
<path fill="none" stroke="#63b8ff" d="M116.26,-15.25C108.15,-15.25 99.89,-15.25 92.03,-15.25"/>
<polygon fill="#63b8ff" stroke="#63b8ff" points="116.07,-18.75 126.07,-15.25 116.07,-11.75 116.07,-18.75"/>
</a>
</g>
</g>
</g>
</svg>
