<?xml version="1.0" encoding="UTF-8" standalone="no"?>
<!DOCTYPE svg PUBLIC "-//W3C//DTD SVG 1.1//EN"
 "http://www.w3.org/Graphics/SVG/1.1/DTD/svg11.dtd">
<!-- Generated by graphviz version 13.1.0 (20250701.0955)
 -->
<!-- Title: MeasurementPoint::getBoundSensor Pages: 1 -->
<svg width="1309pt" height="497pt"
 viewBox="0.00 0.00 1309.00 497.00" xmlns="http://www.w3.org/2000/svg" xmlns:xlink="http://www.w3.org/1999/xlink">
<g id="graph0" class="graph" transform="scale(1 1) rotate(0) translate(4 492.88)">
<title>MeasurementPoint::getBoundSensor</title>
<!-- Node1 -->
<g id="Node000001" class="node">
<title>Node1</title>
<g id="a_Node000001"><a xlink:title="Get pointer to bound sensor.">
<polygon fill="#999999" stroke="#666666" points="1301,-279.88 1156,-279.88 1156,-249.38 1301,-249.38 1301,-279.88"/>
<text xml:space="preserve" text-anchor="start" x="1164" y="-266.38" font-family="Helvetica,sans-Serif" font-size="10.00">MeasurementPoint::getBound</text>
<text xml:space="preserve" text-anchor="middle" x="1228.5" y="-255.12" font-family="Helvetica,sans-Serif" font-size="10.00">Sensor</text>
</a>
</g>
</g>
<!-- Node2 -->
<g id="Node000002" class="node">
<title>Node2</title>
<g id="a_Node000002"><a xlink:href="class_temperature_controller.html#a27da8ccc3effea555f440ce3e6f89b08" target="_top" xlink:title="Check measurement point for alarm conditions.">
<polygon fill="white" stroke="#666666" points="1102.38,-488.88 981.38,-488.88 981.38,-458.38 1102.38,-458.38 1102.38,-488.88"/>
<text xml:space="preserve" text-anchor="start" x="989.38" y="-475.38" font-family="Helvetica,sans-Serif" font-size="10.00">TemperatureController</text>
<text xml:space="preserve" text-anchor="middle" x="1041.88" y="-464.12" font-family="Helvetica,sans-Serif" font-size="10.00">::_checkPointForAlarms</text>
</a>
</g>
</g>
<!-- Node1&#45;&gt;Node2 -->
<g id="edge1_Node000001_Node000002" class="edge">
<title>Node1&#45;&gt;Node2</title>
<g id="a_edge1_Node000001_Node000002"><a xlink:title=" ">
<path fill="none" stroke="#63b8ff" d="M1219.01,-290.96C1204.83,-330.81 1172.59,-406.29 1120,-448.62 1114.85,-452.77 1108.99,-456.24 1102.85,-459.14"/>
<polygon fill="#63b8ff" stroke="#63b8ff" points="1222.25,-292.29 1222.19,-281.69 1215.63,-290.01 1222.25,-292.29"/>
</a>
</g>
</g>
<!-- Node3 -->
<g id="Node000003" class="node">
<title>Node3</title>
<g id="a_Node000003"><a xlink:href="class_c_s_v_config_manager.html#a2c2673398051c26184c9197aa751a6b3" target="_top" xlink:title="Export single measurement point to CSV format.">
<polygon fill="white" stroke="#666666" points="1096.38,-439.88 987.38,-439.88 987.38,-409.38 1096.38,-409.38 1096.38,-439.88"/>
<text xml:space="preserve" text-anchor="start" x="995.38" y="-426.38" font-family="Helvetica,sans-Serif" font-size="10.00">CSVConfigManager::</text>
<text xml:space="preserve" text-anchor="middle" x="1041.88" y="-415.12" font-family="Helvetica,sans-Serif" font-size="10.00">_exportPointToCSV</text>
</a>
</g>
</g>
<!-- Node1&#45;&gt;Node3 -->
<g id="edge2_Node000001_Node000003" class="edge">
<title>Node1&#45;&gt;Node3</title>
<g id="a_edge2_Node000001_Node000003"><a xlink:title=" ">
<path fill="none" stroke="#63b8ff" d="M1213.8,-290.09C1196.08,-320.68 1162.39,-371.51 1120,-400.62 1112.95,-405.47 1104.88,-409.37 1096.68,-412.49"/>
<polygon fill="#63b8ff" stroke="#63b8ff" points="1216.78,-291.93 1218.65,-281.5 1210.69,-288.49 1216.78,-291.93"/>
</a>
</g>
</g>
<!-- Node5 -->
<g id="Node000005" class="node">
<title>Node5</title>
<g id="a_Node000005"><a xlink:href="class_logger_manager.html#aa6938b6a5c002d6ed72ef352f0cc7a19" target="_top" xlink:title=" ">
<polygon fill="white" stroke="#666666" points="1120,-391.25 963.75,-391.25 963.75,-372 1120,-372 1120,-391.25"/>
<text xml:space="preserve" text-anchor="middle" x="1041.88" y="-377.75" font-family="Helvetica,sans-Serif" font-size="10.00">LoggerManager::_writeDataRow</text>
</a>
</g>
</g>
<!-- Node1&#45;&gt;Node5 -->
<g id="edge4_Node000001_Node000005" class="edge">
<title>Node1&#45;&gt;Node5</title>
<g id="a_edge4_Node000001_Node000005"><a xlink:title=" ">
<path fill="none" stroke="#63b8ff" d="M1207.52,-288.74C1187.62,-311.19 1155.05,-343.91 1120,-362.62 1113.19,-366.26 1105.67,-369.22 1098.07,-371.61"/>
<polygon fill="#63b8ff" stroke="#63b8ff" points="1210.1,-291.1 1214.01,-281.26 1204.81,-286.52 1210.1,-291.1"/>
</a>
</g>
</g>
<!-- Node8 -->
<g id="Node000008" class="node">
<title>Node8</title>
<g id="a_Node000008"><a xlink:href="class_config_manager.html#ae605c999fabc6344511f455618655326" target="_top" xlink:title="Setup alarms API endpoints.">
<polygon fill="white" stroke="#666666" points="923.25,-191.25 789.5,-191.25 789.5,-172 923.25,-172 923.25,-191.25"/>
<text xml:space="preserve" text-anchor="middle" x="856.38" y="-177.75" font-family="Helvetica,sans-Serif" font-size="10.00">ConfigManager::alarmsAPI</text>
</a>
</g>
</g>
<!-- Node1&#45;&gt;Node8 -->
<g id="edge7_Node000001_Node000008" class="edge">
<title>Node1&#45;&gt;Node8</title>
<g id="a_edge7_Node000001_Node000008"><a xlink:title=" ">
<path fill="none" stroke="#63b8ff" d="M1209.56,-240.32C1190.42,-216.63 1157.7,-182.12 1120,-167.62 1042.01,-137.64 941.32,-157.68 890.24,-171.54"/>
<polygon fill="#63b8ff" stroke="#63b8ff" points="1206.6,-242.21 1215.52,-247.92 1212.11,-237.89 1206.6,-242.21"/>
</a>
</g>
</g>
<!-- Node10 -->
<g id="Node000010" class="node">
<title>Node10</title>
<g id="a_Node000010"><a xlink:href="class_temperature_controller.html#ad174e0411bd48422d8e3812fd28a7a0b" target="_top" xlink:title="Ensure all 3 alarm types exist for a measurement point.">
<polygon fill="white" stroke="#666666" points="1101.25,-304.88 982.5,-304.88 982.5,-274.38 1101.25,-274.38 1101.25,-304.88"/>
<text xml:space="preserve" text-anchor="start" x="990.5" y="-291.38" font-family="Helvetica,sans-Serif" font-size="10.00">TemperatureController</text>
<text xml:space="preserve" text-anchor="middle" x="1041.88" y="-280.12" font-family="Helvetica,sans-Serif" font-size="10.00">::ensureAlarmsForPoint</text>
</a>
</g>
</g>
<!-- Node1&#45;&gt;Node10 -->
<g id="edge9_Node000001_Node000010" class="edge">
<title>Node1&#45;&gt;Node10</title>
<g id="a_edge9_Node000001_Node000010"><a xlink:title=" ">
<path fill="none" stroke="#63b8ff" d="M1144.56,-275.86C1130.02,-277.82 1115.18,-279.83 1101.48,-281.69"/>
<polygon fill="#63b8ff" stroke="#63b8ff" points="1144.65,-279.38 1154.09,-274.57 1143.71,-272.44 1144.65,-279.38"/>
</a>
</g>
</g>
<!-- Node11 -->
<g id="Node000011" class="node">
<title>Node11</title>
<g id="a_Node000011"><a xlink:href="class_temperature_controller.html#a9b4fe09d4c87dcf86e78b890012e1e72" target="_top" xlink:title="Get sensor bound to measurement point.">
<polygon fill="white" stroke="#666666" points="1097.88,-353.88 985.88,-353.88 985.88,-323.38 1097.88,-323.38 1097.88,-353.88"/>
<text xml:space="preserve" text-anchor="start" x="993.88" y="-340.38" font-family="Helvetica,sans-Serif" font-size="10.00">TemperatureController</text>
<text xml:space="preserve" text-anchor="middle" x="1041.88" y="-329.12" font-family="Helvetica,sans-Serif" font-size="10.00">::getBoundSensor</text>
</a>
</g>
</g>
<!-- Node1&#45;&gt;Node11 -->
<g id="edge10_Node000001_Node000011" class="edge">
<title>Node1&#45;&gt;Node11</title>
<g id="a_edge10_Node000001_Node000011"><a xlink:title=" ">
<path fill="none" stroke="#63b8ff" d="M1185.74,-285C1166.03,-294.27 1142.04,-305.06 1120,-313.62 1111.73,-316.84 1102.87,-319.98 1094.19,-322.9"/>
<polygon fill="#63b8ff" stroke="#63b8ff" points="1187.02,-288.27 1194.55,-280.82 1184.02,-281.95 1187.02,-288.27"/>
</a>
</g>
</g>
<!-- Node21 -->
<g id="Node000021" class="node">
<title>Node21</title>
<g id="a_Node000021"><a xlink:href="class_temperature_controller.html#add39ba7dad38449bbf1787a5c9c51ef9" target="_top" xlink:title="Get JSON representation of all measurement points.">
<polygon fill="white" stroke="#666666" points="1097.88,-206.88 985.88,-206.88 985.88,-176.38 1097.88,-176.38 1097.88,-206.88"/>
<text xml:space="preserve" text-anchor="start" x="993.88" y="-193.38" font-family="Helvetica,sans-Serif" font-size="10.00">TemperatureController</text>
<text xml:space="preserve" text-anchor="middle" x="1041.88" y="-182.12" font-family="Helvetica,sans-Serif" font-size="10.00">::getPointsJson</text>
</a>
</g>
</g>
<!-- Node1&#45;&gt;Node21 -->
<g id="edge22_Node000001_Node000021" class="edge">
<title>Node1&#45;&gt;Node21</title>
<g id="a_edge22_Node000001_Node000021"><a xlink:title=" ">
<path fill="none" stroke="#63b8ff" d="M1184.56,-244.19C1165.06,-235.24 1141.57,-224.91 1120,-216.62 1111.59,-213.4 1102.57,-210.22 1093.76,-207.27"/>
<polygon fill="#63b8ff" stroke="#63b8ff" points="1183.03,-247.34 1193.57,-248.37 1185.97,-240.99 1183.03,-247.34"/>
</a>
</g>
</g>
<!-- Node22 -->
<g id="Node000022" class="node">
<title>Node22</title>
<g id="a_Node000022"><a xlink:href="class_config_manager.html#a04edc14e642ecadb9ccb87be05d1d878" target="_top" xlink:title="Load measurement points configuration from file.">
<polygon fill="white" stroke="#666666" points="1108.75,-255.88 975,-255.88 975,-225.38 1108.75,-225.38 1108.75,-255.88"/>
<text xml:space="preserve" text-anchor="start" x="983" y="-242.38" font-family="Helvetica,sans-Serif" font-size="10.00">ConfigManager::loadPoints</text>
<text xml:space="preserve" text-anchor="middle" x="1041.88" y="-231.12" font-family="Helvetica,sans-Serif" font-size="10.00">Config</text>
</a>
</g>
</g>
<!-- Node1&#45;&gt;Node22 -->
<g id="edge23_Node000001_Node000022" class="edge">
<title>Node1&#45;&gt;Node22</title>
<g id="a_edge23_Node000001_Node000022"><a xlink:title=" ">
<path fill="none" stroke="#63b8ff" d="M1144.37,-253.82C1132.57,-252.29 1120.58,-250.73 1109.16,-249.24"/>
<polygon fill="#63b8ff" stroke="#63b8ff" points="1143.72,-257.26 1154.09,-255.08 1144.62,-250.32 1143.72,-257.26"/>
</a>
</g>
</g>
<!-- Node23 -->
<g id="Node000023" class="node">
<title>Node23</title>
<g id="a_Node000023"><a xlink:href="class_config_manager.html#a55b79da91c57039c483ddf5fceabbd64" target="_top" xlink:title="Save measurement points configuration to file.">
<polygon fill="white" stroke="#666666" points="1110.25,-120.88 973.5,-120.88 973.5,-90.38 1110.25,-90.38 1110.25,-120.88"/>
<text xml:space="preserve" text-anchor="start" x="981.5" y="-107.38" font-family="Helvetica,sans-Serif" font-size="10.00">ConfigManager::savePoints</text>
<text xml:space="preserve" text-anchor="middle" x="1041.88" y="-96.12" font-family="Helvetica,sans-Serif" font-size="10.00">Config</text>
</a>
</g>
</g>
<!-- Node1&#45;&gt;Node23 -->
<g id="edge25_Node000001_Node000023" class="edge">
<title>Node1&#45;&gt;Node23</title>
<g id="a_edge25_Node000001_Node000023"><a xlink:title=" ">
<path fill="none" stroke="#63b8ff" d="M1212.67,-239.78C1194.26,-210.86 1160.31,-163.38 1120,-134.62 1112.66,-129.39 1104.27,-124.98 1095.78,-121.29"/>
<polygon fill="#63b8ff" stroke="#63b8ff" points="1209.47,-241.25 1217.72,-247.89 1215.41,-237.55 1209.47,-241.25"/>
</a>
</g>
</g>
<!-- Node28 -->
<g id="Node000028" class="node">
<title>Node28</title>
<g id="a_Node000028"><a xlink:href="class_temperature_controller.html#a261c9b96540ec6680dfffd3a26e4ca00" target="_top" xlink:title="Unbind sensor from measurement point.">
<polygon fill="white" stroke="#666666" points="1105,-71.88 978.75,-71.88 978.75,-41.38 1105,-41.38 1105,-71.88"/>
<text xml:space="preserve" text-anchor="start" x="986.75" y="-58.38" font-family="Helvetica,sans-Serif" font-size="10.00">TemperatureController</text>
<text xml:space="preserve" text-anchor="middle" x="1041.88" y="-47.12" font-family="Helvetica,sans-Serif" font-size="10.00">::unbindSensorFromPoint</text>
</a>
</g>
</g>
<!-- Node1&#45;&gt;Node28 -->
<g id="edge34_Node000001_Node000028" class="edge">
<title>Node1&#45;&gt;Node28</title>
<g id="a_edge34_Node000001_Node000028"><a xlink:title=" ">
<path fill="none" stroke="#63b8ff" d="M1218.97,-238.44C1204.74,-198.79 1172.43,-123.73 1120,-81.62 1115.5,-78.01 1110.46,-74.91 1105.18,-72.26"/>
<polygon fill="#63b8ff" stroke="#63b8ff" points="1215.58,-239.34 1222.16,-247.64 1222.19,-237.05 1215.58,-239.34"/>
</a>
</g>
</g>
<!-- Node4 -->
<g id="Node000004" class="node">
<title>Node4</title>
<g id="a_Node000004"><a xlink:href="class_c_s_v_config_manager.html#a1c6cbc4c8a132762bf16a8ce9f7d0bfc" target="_top" xlink:title="Export measurement points with alarm configuration to CSV.">
<polygon fill="white" stroke="#666666" points="924.38,-449.88 788.38,-449.88 788.38,-419.38 924.38,-419.38 924.38,-449.88"/>
<text xml:space="preserve" text-anchor="start" x="796.38" y="-436.38" font-family="Helvetica,sans-Serif" font-size="10.00">CSVConfigManager::export</text>
<text xml:space="preserve" text-anchor="middle" x="856.38" y="-425.12" font-family="Helvetica,sans-Serif" font-size="10.00">PointsWithAlarmsToCSV</text>
</a>
</g>
</g>
<!-- Node3&#45;&gt;Node4 -->
<g id="edge3_Node000003_Node000004" class="edge">
<title>Node3&#45;&gt;Node4</title>
<g id="a_edge3_Node000003_Node000004"><a xlink:title=" ">
<path fill="none" stroke="#63b8ff" d="M976.03,-428.16C959.4,-429.06 941.48,-430.04 924.73,-430.95"/>
<polygon fill="#63b8ff" stroke="#63b8ff" points="976,-431.67 985.79,-427.63 975.62,-424.68 976,-431.67"/>
</a>
</g>
</g>
<!-- Node6 -->
<g id="Node000006" class="node">
<title>Node6</title>
<g id="a_Node000006"><a xlink:href="class_logger_manager.html#a32ce9f462269787130bee46b2c34b632" target="_top" xlink:title=" ">
<polygon fill="white" stroke="#666666" points="927.75,-401.25 785,-401.25 785,-382 927.75,-382 927.75,-401.25"/>
<text xml:space="preserve" text-anchor="middle" x="856.38" y="-387.75" font-family="Helvetica,sans-Serif" font-size="10.00">LoggerManager::logDataNow</text>
</a>
</g>
</g>
<!-- Node5&#45;&gt;Node6 -->
<g id="edge5_Node000005_Node000006" class="edge">
<title>Node5&#45;&gt;Node6</title>
<g id="a_edge5_Node000005_Node000006"><a xlink:title=" ">
<path fill="none" stroke="#63b8ff" d="M952.06,-386.46C944.07,-386.9 936.05,-387.34 928.24,-387.76"/>
<polygon fill="#63b8ff" stroke="#63b8ff" points="952.01,-389.97 961.81,-385.93 951.63,-382.98 952.01,-389.97"/>
</a>
</g>
</g>
<!-- Node7 -->
<g id="Node000007" class="node">
<title>Node7</title>
<g id="a_Node000007"><a xlink:href="class_logger_manager.html#a830c86f1f27d3799eab1de908fc6b647" target="_top" xlink:title=" ">
<polygon fill="white" stroke="#666666" points="737,-401.25 619,-401.25 619,-382 737,-382 737,-401.25"/>
<text xml:space="preserve" text-anchor="middle" x="678" y="-387.75" font-family="Helvetica,sans-Serif" font-size="10.00">LoggerManager::update</text>
</a>
</g>
</g>
<!-- Node6&#45;&gt;Node7 -->
<g id="edge6_Node000006_Node000007" class="edge">
<title>Node6&#45;&gt;Node7</title>
<g id="a_edge6_Node000006_Node000007"><a xlink:title=" ">
<path fill="none" stroke="#63b8ff" d="M773.5,-391.62C761.28,-391.62 748.9,-391.62 737.29,-391.62"/>
<polygon fill="#63b8ff" stroke="#63b8ff" points="773.14,-395.13 783.14,-391.63 773.14,-388.13 773.14,-395.13"/>
</a>
</g>
</g>
<!-- Node9 -->
<g id="Node000009" class="node">
<title>Node9</title>
<g id="a_Node000009"><a xlink:href="class_config_manager.html#a0497343220fc493f5cf9574922508908" target="_top" xlink:title="Initialize the configuration system.">
<polygon fill="white" stroke="#666666" points="733.62,-148.25 622.38,-148.25 622.38,-129 733.62,-129 733.62,-148.25"/>
<text xml:space="preserve" text-anchor="middle" x="678" y="-134.75" font-family="Helvetica,sans-Serif" font-size="10.00">ConfigManager::begin</text>
</a>
</g>
</g>
<!-- Node8&#45;&gt;Node9 -->
<g id="edge8_Node000008_Node000009" class="edge">
<title>Node8&#45;&gt;Node9</title>
<g id="a_edge8_Node000008_Node000009"><a xlink:title=" ">
<path fill="none" stroke="#63b8ff" d="M803.06,-168.87C776.66,-162.43 745.09,-154.74 720.4,-148.72"/>
<polygon fill="#63b8ff" stroke="#63b8ff" points="802.01,-172.22 812.55,-171.18 803.67,-165.42 802.01,-172.22"/>
</a>
</g>
</g>
<!-- Node12 -->
<g id="Node000012" class="node">
<title>Node12</title>
<g id="a_Node000012"><a xlink:href="class_temperature_controller.html#a45d13ed72fd36b46820af631e4db958b" target="_top" xlink:title="Display system stats page.">
<polygon fill="white" stroke="#666666" points="913.88,-277.88 798.88,-277.88 798.88,-247.38 913.88,-247.38 913.88,-277.88"/>
<text xml:space="preserve" text-anchor="start" x="806.88" y="-264.38" font-family="Helvetica,sans-Serif" font-size="10.00">TemperatureController</text>
<text xml:space="preserve" text-anchor="middle" x="856.38" y="-253.12" font-family="Helvetica,sans-Serif" font-size="10.00">::_displaySystemStats</text>
</a>
</g>
</g>
<!-- Node11&#45;&gt;Node12 -->
<g id="edge11_Node000011_Node000012" class="edge">
<title>Node11&#45;&gt;Node12</title>
<g id="a_edge11_Node000011_Node000012"><a xlink:title=" ">
<path fill="none" stroke="#63b8ff" d="M976.72,-319.12C972.28,-317.38 967.92,-315.54 963.75,-313.62 946.71,-305.79 944.47,-300.11 927.75,-291.62 918.44,-286.9 908.18,-282.33 898.43,-278.27"/>
<polygon fill="#63b8ff" stroke="#63b8ff" points="975.13,-322.27 985.73,-322.48 977.58,-315.71 975.13,-322.27"/>
</a>
</g>
</g>
<!-- Node18 -->
<g id="Node000018" class="node">
<title>Node18</title>
<g id="a_Node000018"><a xlink:href="class_temperature_controller.html#a4e4770607486ebfc6eacafa704945c23" target="_top" xlink:title="Remove sensor by ROM address string.">
<polygon fill="white" stroke="#666666" points="915.38,-363.88 797.38,-363.88 797.38,-333.38 915.38,-333.38 915.38,-363.88"/>
<text xml:space="preserve" text-anchor="start" x="805.38" y="-350.38" font-family="Helvetica,sans-Serif" font-size="10.00">TemperatureController</text>
<text xml:space="preserve" text-anchor="middle" x="856.38" y="-339.12" font-family="Helvetica,sans-Serif" font-size="10.00">::removeSensorByRom</text>
</a>
</g>
</g>
<!-- Node11&#45;&gt;Node18 -->
<g id="edge18_Node000011_Node000018" class="edge">
<title>Node11&#45;&gt;Node18</title>
<g id="a_edge18_Node000011_Node000018"><a xlink:title=" ">
<path fill="none" stroke="#63b8ff" d="M974.39,-342.25C955.14,-343.3 934.28,-344.43 915.58,-345.45"/>
<polygon fill="#63b8ff" stroke="#63b8ff" points="974.51,-345.75 984.31,-341.71 974.13,-338.76 974.51,-345.75"/>
</a>
</g>
</g>
<!-- Node20 -->
<g id="Node000020" class="node">
<title>Node20</title>
<g id="a_Node000020"><a xlink:href="class_temperature_controller.html#a5ac8af90de5dfd79a9a2e4c7270a98a3" target="_top" xlink:title="Update alarm states for all measurement points.">
<polygon fill="white" stroke="#666666" points="563.5,-321.88 451.5,-321.88 451.5,-291.38 563.5,-291.38 563.5,-321.88"/>
<text xml:space="preserve" text-anchor="start" x="459.5" y="-308.38" font-family="Helvetica,sans-Serif" font-size="10.00">TemperatureController</text>
<text xml:space="preserve" text-anchor="middle" x="507.5" y="-297.12" font-family="Helvetica,sans-Serif" font-size="10.00">::updateAlarms</text>
</a>
</g>
</g>
<!-- Node11&#45;&gt;Node20 -->
<g id="edge20_Node000011_Node000020" class="edge">
<title>Node11&#45;&gt;Node20</title>
<g id="a_edge20_Node000011_Node000020"><a xlink:title=" ">
<path fill="none" stroke="#63b8ff" d="M974.03,-329.45C958.84,-327.62 942.76,-325.87 927.75,-324.62 797.61,-313.8 644.17,-309.31 563.86,-307.59"/>
<polygon fill="#63b8ff" stroke="#63b8ff" points="973.59,-332.92 983.94,-330.68 974.45,-325.98 973.59,-332.92"/>
</a>
</g>
</g>
<!-- Node13 -->
<g id="Node000013" class="node">
<title>Node13</title>
<g id="a_Node000013"><a xlink:href="class_temperature_controller.html#a45f7994a3a052a527981dbfdad27606b" target="_top" xlink:title="Handle system status mode display.">
<polygon fill="white" stroke="#666666" points="749,-274.88 607,-274.88 607,-244.38 749,-244.38 749,-274.88"/>
<text xml:space="preserve" text-anchor="start" x="615" y="-261.38" font-family="Helvetica,sans-Serif" font-size="10.00">TemperatureController</text>
<text xml:space="preserve" text-anchor="middle" x="678" y="-250.12" font-family="Helvetica,sans-Serif" font-size="10.00">::_handleSystemStatusMode</text>
</a>
</g>
</g>
<!-- Node12&#45;&gt;Node13 -->
<g id="edge12_Node000012_Node000013" class="edge">
<title>Node12&#45;&gt;Node13</title>
<g id="a_edge12_Node000012_Node000013"><a xlink:title=" ">
<path fill="none" stroke="#63b8ff" d="M787.33,-261.47C774.85,-261.26 761.81,-261.03 749.27,-260.82"/>
<polygon fill="#63b8ff" stroke="#63b8ff" points="787.03,-264.96 797.08,-261.63 787.15,-257.96 787.03,-264.96"/>
</a>
</g>
</g>
<!-- Node14 -->
<g id="Node000014" class="node">
<title>Node14</title>
<g id="a_Node000014"><a xlink:href="class_temperature_controller.html#a6b2f92b5c2af867240200cff2e61e806" target="_top" xlink:title="Handle display section switching.">
<polygon fill="white" stroke="#666666" points="571,-272.88 444,-272.88 444,-242.38 571,-242.38 571,-272.88"/>
<text xml:space="preserve" text-anchor="start" x="452" y="-259.38" font-family="Helvetica,sans-Serif" font-size="10.00">TemperatureController</text>
<text xml:space="preserve" text-anchor="middle" x="507.5" y="-248.12" font-family="Helvetica,sans-Serif" font-size="10.00">::_handleDisplaySections</text>
</a>
</g>
</g>
<!-- Node13&#45;&gt;Node14 -->
<g id="edge13_Node000013_Node000014" class="edge">
<title>Node13&#45;&gt;Node14</title>
<g id="a_edge13_Node000013_Node000014"><a xlink:title=" ">
<path fill="none" stroke="#63b8ff" d="M595.26,-258.65C587.26,-258.56 579.23,-258.46 571.46,-258.37"/>
<polygon fill="#63b8ff" stroke="#63b8ff" points="594.96,-262.15 605,-258.77 595.05,-255.15 594.96,-262.15"/>
</a>
</g>
</g>
<!-- Node15 -->
<g id="Node000015" class="node">
<title>Node15</title>
<g id="a_Node000015"><a xlink:href="class_temperature_controller.html#a5637103784725fb1a73f6463d7cbfde6" target="_top" xlink:title="Handle alarm display on OLED/LEDs.">
<polygon fill="white" stroke="#666666" points="408,-275.88 296,-275.88 296,-245.38 408,-245.38 408,-275.88"/>
<text xml:space="preserve" text-anchor="start" x="304" y="-262.38" font-family="Helvetica,sans-Serif" font-size="10.00">TemperatureController</text>
<text xml:space="preserve" text-anchor="middle" x="352" y="-251.12" font-family="Helvetica,sans-Serif" font-size="10.00">::handleAlarmDisplay</text>
</a>
</g>
</g>
<!-- Node14&#45;&gt;Node15 -->
<g id="edge14_Node000014_Node000015" class="edge">
<title>Node14&#45;&gt;Node15</title>
<g id="a_edge14_Node000014_Node000015"><a xlink:title=" ">
<path fill="none" stroke="#63b8ff" d="M432.22,-259.08C424.12,-259.24 415.98,-259.39 408.16,-259.55"/>
<polygon fill="#63b8ff" stroke="#63b8ff" points="432.18,-262.58 442.11,-258.88 432.04,-255.58 432.18,-262.58"/>
</a>
</g>
</g>
<!-- Node16 -->
<g id="Node000016" class="node">
<title>Node16</title>
<g id="a_Node000016"><a xlink:href="class_temperature_controller.html#aca5deddbf703001373424d876f87b5f2" target="_top" xlink:title="Main update function &#45; must be called in loop()">
<polygon fill="white" stroke="#666666" points="260,-296.88 148,-296.88 148,-266.38 260,-266.38 260,-296.88"/>
<text xml:space="preserve" text-anchor="start" x="156" y="-283.38" font-family="Helvetica,sans-Serif" font-size="10.00">TemperatureController</text>
<text xml:space="preserve" text-anchor="middle" x="204" y="-272.12" font-family="Helvetica,sans-Serif" font-size="10.00">::update</text>
</a>
</g>
</g>
<!-- Node15&#45;&gt;Node16 -->
<g id="edge15_Node000015_Node000016" class="edge">
<title>Node15&#45;&gt;Node16</title>
<g id="a_edge15_Node000015_Node000016"><a xlink:title=" ">
<path fill="none" stroke="#63b8ff" d="M284.47,-270.19C276.38,-271.36 268.18,-272.54 260.27,-273.67"/>
<polygon fill="#63b8ff" stroke="#63b8ff" points="284.91,-273.67 294.31,-268.78 283.91,-266.74 284.91,-273.67"/>
</a>
</g>
</g>
<!-- Node17 -->
<g id="Node000017" class="node">
<title>Node17</title>
<g id="a_Node000017"><a xlink:href="class_temperature_controller.html#a11948a87fe7df37543b86ecdd488b341" target="_top" xlink:title="Read temperature from all configured measurement points.">
<polygon fill="white" stroke="#666666" points="112,-296.88 0,-296.88 0,-266.38 112,-266.38 112,-296.88"/>
<text xml:space="preserve" text-anchor="start" x="8" y="-283.38" font-family="Helvetica,sans-Serif" font-size="10.00">TemperatureController</text>
<text xml:space="preserve" text-anchor="middle" x="56" y="-272.12" font-family="Helvetica,sans-Serif" font-size="10.00">::readAllPoints</text>
</a>
</g>
</g>
<!-- Node16&#45;&gt;Node17 -->
<g id="edge16_Node000016_Node000017" class="edge">
<title>Node16&#45;&gt;Node17</title>
<g id="a_edge16_Node000016_Node000017"><a xlink:title=" ">
<path fill="none" stroke="#63b8ff" d="M136.47,-274.9C128.38,-274.84 120.18,-274.89 112.27,-275.06"/>
<polygon fill="#63b8ff" stroke="#63b8ff" points="136.24,-278.4 146.29,-275.04 136.34,-271.4 136.24,-278.4"/>
</a>
</g>
</g>
<!-- Node17&#45;&gt;Node16 -->
<g id="edge17_Node000017_Node000016" class="edge">
<title>Node17&#45;&gt;Node16</title>
<g id="a_edge17_Node000017_Node000016"><a xlink:title=" ">
<path fill="none" stroke="#63b8ff" d="M123.61,-288.35C131.7,-288.41 139.9,-288.36 147.8,-288.19"/>
<polygon fill="#63b8ff" stroke="#63b8ff" points="123.84,-284.85 113.79,-288.22 123.74,-291.85 123.84,-284.85"/>
</a>
</g>
</g>
<!-- Node19 -->
<g id="Node000019" class="node">
<title>Node19</title>
<g id="a_Node000019"><a xlink:href="class_temperature_controller.html#a57b74b40c88016965d07248981412f7d" target="_top" xlink:title="Discover DS18B20 sensors on all OneWire buses.">
<polygon fill="white" stroke="#666666" points="746.38,-363.88 609.62,-363.88 609.62,-333.38 746.38,-333.38 746.38,-363.88"/>
<text xml:space="preserve" text-anchor="start" x="617.62" y="-350.38" font-family="Helvetica,sans-Serif" font-size="10.00">TemperatureController</text>
<text xml:space="preserve" text-anchor="middle" x="678" y="-339.12" font-family="Helvetica,sans-Serif" font-size="10.00">::discoverDS18B20Sensors</text>
</a>
</g>
</g>
<!-- Node18&#45;&gt;Node19 -->
<g id="edge19_Node000018_Node000019" class="edge">
<title>Node18&#45;&gt;Node19</title>
<g id="a_edge19_Node000018_Node000019"><a xlink:title=" ">
<path fill="none" stroke="#63b8ff" d="M785.95,-348.62C773.02,-348.62 759.53,-348.62 746.66,-348.62"/>
<polygon fill="#63b8ff" stroke="#63b8ff" points="785.62,-352.13 795.62,-348.63 785.62,-345.13 785.62,-352.13"/>
</a>
</g>
</g>
<!-- Node20&#45;&gt;Node16 -->
<g id="edge21_Node000020_Node000016" class="edge">
<title>Node20&#45;&gt;Node16</title>
<g id="a_edge21_Node000020_Node000016"><a xlink:title=" ">
<path fill="none" stroke="#63b8ff" d="M440.04,-301.11C386.17,-296.65 311.14,-290.43 260.46,-286.22"/>
<polygon fill="#63b8ff" stroke="#63b8ff" points="439.44,-304.58 449.69,-301.91 440.02,-297.6 439.44,-304.58"/>
</a>
</g>
</g>
<!-- Node22&#45;&gt;Node9 -->
<g id="edge24_Node000022_Node000009" class="edge">
<title>Node22&#45;&gt;Node9</title>
<g id="a_edge24_Node000022_Node000009"><a xlink:title=" ">
<path fill="none" stroke="#63b8ff" d="M963.11,-236.04C911.42,-231.18 842.69,-221.17 785,-200.62 749.05,-187.82 711.55,-162.61 692.24,-148.6"/>
<polygon fill="#63b8ff" stroke="#63b8ff" points="962.76,-239.53 973.03,-236.93 963.38,-232.55 962.76,-239.53"/>
</a>
</g>
</g>
<!-- Node23&#45;&gt;Node8 -->
<g id="edge26_Node000023_Node000008" class="edge">
<title>Node23&#45;&gt;Node8</title>
<g id="a_edge26_Node000023_Node000008"><a xlink:title=" ">
<path fill="none" stroke="#63b8ff" d="M981.97,-125.64C975.69,-128.4 969.51,-131.4 963.75,-134.62 946.06,-144.53 945.89,-153.58 927.75,-162.62 920.61,-166.18 912.73,-169.14 904.89,-171.57"/>
<polygon fill="#63b8ff" stroke="#63b8ff" points="983.26,-128.89 991.15,-121.82 980.57,-122.43 983.26,-128.89"/>
</a>
</g>
</g>
<!-- Node24 -->
<g id="Node000024" class="node">
<title>Node24</title>
<g id="a_Node000024"><a xlink:href="class_config_manager.html#a9b7af07b85bf9cc3ac05603db6e89fd2" target="_top" xlink:title="Setup CSV import/export API endpoints.">
<polygon fill="white" stroke="#666666" points="922.12,-153.88 790.62,-153.88 790.62,-123.38 922.12,-123.38 922.12,-153.88"/>
<text xml:space="preserve" text-anchor="start" x="798.62" y="-140.38" font-family="Helvetica,sans-Serif" font-size="10.00">ConfigManager::csvImport</text>
<text xml:space="preserve" text-anchor="middle" x="856.38" y="-129.12" font-family="Helvetica,sans-Serif" font-size="10.00">ExportAPI</text>
</a>
</g>
</g>
<!-- Node23&#45;&gt;Node24 -->
<g id="edge27_Node000023_Node000024" class="edge">
<title>Node23&#45;&gt;Node24</title>
<g id="a_edge27_Node000023_Node000024"><a xlink:title=" ">
<path fill="none" stroke="#63b8ff" d="M962.08,-119.8C948.86,-122.17 935.28,-124.61 922.46,-126.92"/>
<polygon fill="#63b8ff" stroke="#63b8ff" points="962.36,-123.3 971.58,-118.09 961.12,-116.41 962.36,-123.3"/>
</a>
</g>
</g>
<!-- Node25 -->
<g id="Node000025" class="node">
<title>Node25</title>
<g id="a_Node000025"><a xlink:href="class_config_manager.html#a471a844085c27f3a8a8f9394d9c14677" target="_top" xlink:title="Setup measurement points API endpoints.">
<polygon fill="white" stroke="#666666" points="921.75,-105.25 791,-105.25 791,-86 921.75,-86 921.75,-105.25"/>
<text xml:space="preserve" text-anchor="middle" x="856.38" y="-91.75" font-family="Helvetica,sans-Serif" font-size="10.00">ConfigManager::pointsAPI</text>
</a>
</g>
</g>
<!-- Node23&#45;&gt;Node25 -->
<g id="edge29_Node000023_Node000025" class="edge">
<title>Node23&#45;&gt;Node25</title>
<g id="a_edge29_Node000023_Node000025"><a xlink:title=" ">
<path fill="none" stroke="#63b8ff" d="M961.61,-101.31C948.44,-100.59 934.92,-99.85 922.16,-99.16"/>
<polygon fill="#63b8ff" stroke="#63b8ff" points="961.38,-104.8 971.56,-101.85 961.76,-97.81 961.38,-104.8"/>
</a>
</g>
</g>
<!-- Node26 -->
<g id="Node000026" class="node">
<title>Node26</title>
<g id="a_Node000026"><a xlink:href="class_config_manager.html#a45b1ce1f09401af0b6f700cf4388b233" target="_top" xlink:title="Setup sensor&#45;related API endpoints.">
<polygon fill="white" stroke="#666666" points="923.25,-19.25 789.5,-19.25 789.5,0 923.25,0 923.25,-19.25"/>
<text xml:space="preserve" text-anchor="middle" x="856.38" y="-5.75" font-family="Helvetica,sans-Serif" font-size="10.00">ConfigManager::sensorAPI</text>
</a>
</g>
</g>
<!-- Node23&#45;&gt;Node26 -->
<g id="edge31_Node000023_Node000026" class="edge">
<title>Node23&#45;&gt;Node26</title>
<g id="a_edge31_Node000023_Node000026"><a xlink:title=" ">
<path fill="none" stroke="#63b8ff" d="M969.92,-84.78C967.79,-83.48 965.72,-82.09 963.75,-80.62 941.19,-63.85 950.72,-44.83 927.75,-28.62 922.58,-24.98 916.74,-22.03 910.7,-19.65"/>
<polygon fill="#63b8ff" stroke="#63b8ff" points="967.84,-87.63 978.3,-89.29 971.15,-81.47 967.84,-87.63"/>
</a>
</g>
</g>
<!-- Node27 -->
<g id="Node000027" class="node">
<title>Node27</title>
<g id="a_Node000027"><a xlink:href="class_config_manager.html#a0daf50bbd376beb24a5400a86e893338" target="_top" xlink:title="Update a measurement point in configuration.">
<polygon fill="white" stroke="#666666" points="926.25,-67.88 786.5,-67.88 786.5,-37.38 926.25,-37.38 926.25,-67.88"/>
<text xml:space="preserve" text-anchor="start" x="794.5" y="-54.38" font-family="Helvetica,sans-Serif" font-size="10.00">ConfigManager::updatePoint</text>
<text xml:space="preserve" text-anchor="middle" x="856.38" y="-43.12" font-family="Helvetica,sans-Serif" font-size="10.00">InConfig</text>
</a>
</g>
</g>
<!-- Node23&#45;&gt;Node27 -->
<g id="edge33_Node000023_Node000027" class="edge">
<title>Node23&#45;&gt;Node27</title>
<g id="a_edge33_Node000023_Node000027"><a xlink:title=" ">
<path fill="none" stroke="#63b8ff" d="M976.02,-86.89C954.99,-80.82 931.88,-74.14 911.69,-68.31"/>
<polygon fill="#63b8ff" stroke="#63b8ff" points="974.78,-90.18 985.36,-89.59 976.72,-83.45 974.78,-90.18"/>
</a>
</g>
</g>
<!-- Node24&#45;&gt;Node9 -->
<g id="edge28_Node000024_Node000009" class="edge">
<title>Node24&#45;&gt;Node9</title>
<g id="a_edge28_Node000024_Node000009"><a xlink:title=" ">
<path fill="none" stroke="#63b8ff" d="M778.81,-138.62C763.76,-138.62 748.25,-138.62 734.07,-138.62"/>
<polygon fill="#63b8ff" stroke="#63b8ff" points="778.69,-142.13 788.69,-138.63 778.69,-135.13 778.69,-142.13"/>
</a>
</g>
</g>
<!-- Node25&#45;&gt;Node9 -->
<g id="edge30_Node000025_Node000009" class="edge">
<title>Node25&#45;&gt;Node9</title>
<g id="a_edge30_Node000025_Node000009"><a xlink:title=" ">
<path fill="none" stroke="#63b8ff" d="M803.06,-108.38C776.66,-114.82 745.09,-122.51 720.4,-128.53"/>
<polygon fill="#63b8ff" stroke="#63b8ff" points="803.67,-111.83 812.55,-106.07 802.01,-105.03 803.67,-111.83"/>
</a>
</g>
</g>
<!-- Node26&#45;&gt;Node9 -->
<g id="edge32_Node000026_Node000009" class="edge">
<title>Node26&#45;&gt;Node9</title>
<g id="a_edge32_Node000026_Node000009"><a xlink:title=" ">
<path fill="none" stroke="#63b8ff" d="M794.29,-23.84C791.07,-25.29 787.96,-26.88 785,-28.62 739.57,-55.48 700.72,-107.05 685.67,-128.69"/>
<polygon fill="#63b8ff" stroke="#63b8ff" points="795.38,-27.18 803.39,-20.25 792.81,-20.66 795.38,-27.18"/>
</a>
</g>
</g>
</g>
</svg>
