<?xml version="1.0" encoding="UTF-8" standalone="no"?>
<!DOCTYPE svg PUBLIC "-//W3C//DTD SVG 1.1//EN"
 "http://www.w3.org/Graphics/SVG/1.1/DTD/svg11.dtd">
<!-- Generated by graphviz version 13.1.0 (20250701.0955)
 -->
<!-- Title: Alarm::clear Pages: 1 -->
<svg width="383pt" height="101pt"
 viewBox="0.00 0.00 383.00 101.00" xmlns="http://www.w3.org/2000/svg" xmlns:xlink="http://www.w3.org/1999/xlink">
<g id="graph0" class="graph" transform="scale(1 1) rotate(0) translate(4 97.25)">
<title>Alarm::clear</title>
<!-- Node1 -->
<g id="Node000001" class="node">
<title>Node1</title>
<g id="a_Node000001"><a xlink:title=" ">
<polygon fill="#999999" stroke="#666666" points="68.5,-56.25 0,-56.25 0,-37 68.5,-37 68.5,-56.25"/>
<text xml:space="preserve" text-anchor="middle" x="34.25" y="-42.75" font-family="Helvetica,sans-Serif" font-size="10.00">Alarm::clear</text>
</a>
</g>
</g>
<!-- Node2 -->
<g id="Node000002" class="node">
<title>Node2</title>
<g id="a_Node000002"><a xlink:href="class_alarm.html#a11b2da560dbc8653fa9dec671a78b980" target="_top" xlink:title=" ">
<polygon fill="white" stroke="#666666" points="226.25,-93.25 104.5,-93.25 104.5,-74 226.25,-74 226.25,-93.25"/>
<text xml:space="preserve" text-anchor="middle" x="165.38" y="-79.75" font-family="Helvetica,sans-Serif" font-size="10.00">Alarm::_updateMessage</text>
</a>
</g>
</g>
<!-- Node1&#45;&gt;Node2 -->
<g id="edge1_Node000001_Node000002" class="edge">
<title>Node1&#45;&gt;Node2</title>
<g id="a_edge1_Node000001_Node000002"><a xlink:title=" ">
<path fill="none" stroke="#63b8ff" d="M68.84,-56.25C83.9,-60.56 101.9,-65.72 118.2,-70.39"/>
<polygon fill="#63b8ff" stroke="#63b8ff" points="117.12,-73.72 127.69,-73.11 119.05,-67 117.12,-73.72"/>
</a>
</g>
</g>
<!-- Node4 -->
<g id="Node000004" class="node">
<title>Node4</title>
<g id="a_Node000004"><a xlink:href="class_alarm.html#abd578ec75a5ac9bce00b7ce7207c5d8c" target="_top" xlink:title=" ">
<polygon fill="white" stroke="#666666" points="219.12,-56.25 111.62,-56.25 111.62,-37 219.12,-37 219.12,-56.25"/>
<text xml:space="preserve" text-anchor="middle" x="165.38" y="-42.75" font-family="Helvetica,sans-Serif" font-size="10.00">Alarm::getTypeString</text>
</a>
</g>
</g>
<!-- Node1&#45;&gt;Node4 -->
<g id="edge3_Node000001_Node000004" class="edge">
<title>Node1&#45;&gt;Node4</title>
<g id="a_edge3_Node000001_Node000004"><a xlink:title=" ">
<path fill="none" stroke="#63b8ff" d="M68.84,-46.62C78.49,-46.62 89.35,-46.62 100.19,-46.62"/>
<polygon fill="#63b8ff" stroke="#63b8ff" points="99.93,-50.13 109.93,-46.63 99.93,-43.13 99.93,-50.13"/>
</a>
</g>
</g>
<!-- Node5 -->
<g id="Node000005" class="node">
<title>Node5</title>
<g id="a_Node000005"><a xlink:href="class_logger_manager.html#a5c1373ccc47f4112b596fe6f84fbbc21" target="_top" xlink:title=" ">
<polygon fill="white" stroke="#666666" points="217.62,-19.25 113.12,-19.25 113.12,0 217.62,0 217.62,-19.25"/>
<text xml:space="preserve" text-anchor="middle" x="165.38" y="-5.75" font-family="Helvetica,sans-Serif" font-size="10.00">LoggerManager::info</text>
</a>
</g>
</g>
<!-- Node1&#45;&gt;Node5 -->
<g id="edge4_Node000001_Node000005" class="edge">
<title>Node1&#45;&gt;Node5</title>
<g id="a_edge4_Node000001_Node000005"><a xlink:title=" ">
<path fill="none" stroke="#63b8ff" d="M68.84,-37C83.9,-32.69 101.9,-27.53 118.2,-22.86"/>
<polygon fill="#63b8ff" stroke="#63b8ff" points="119.05,-26.25 127.69,-20.14 117.12,-19.53 119.05,-26.25"/>
</a>
</g>
</g>
<!-- Node3 -->
<g id="Node000003" class="node">
<title>Node3</title>
<g id="a_Node000003"><a xlink:href="class_alarm.html#a480e1d6d474da0cd4e5dd557e41cb87e" target="_top" xlink:title=" ">
<polygon fill="white" stroke="#666666" points="375,-93.25 262.25,-93.25 262.25,-74 375,-74 375,-93.25"/>
<text xml:space="preserve" text-anchor="middle" x="318.62" y="-79.75" font-family="Helvetica,sans-Serif" font-size="10.00">Alarm::getDisplayText</text>
</a>
</g>
</g>
<!-- Node2&#45;&gt;Node3 -->
<g id="edge2_Node000002_Node000003" class="edge">
<title>Node2&#45;&gt;Node3</title>
<g id="a_edge2_Node000002_Node000003"><a xlink:title=" ">
<path fill="none" stroke="#63b8ff" d="M226.59,-83.62C234.54,-83.62 242.73,-83.62 250.78,-83.62"/>
<polygon fill="#63b8ff" stroke="#63b8ff" points="250.52,-87.13 260.52,-83.63 250.52,-80.13 250.52,-87.13"/>
</a>
</g>
</g>
</g>
</svg>
