<?xml version="1.0" encoding="UTF-8" standalone="no"?>
<!DOCTYPE svg PUBLIC "-//W3C//DTD SVG 1.1//EN"
 "http://www.w3.org/Graphics/SVG/1.1/DTD/svg11.dtd">
<!-- Generated by graphviz version 13.1.0 (20250701.0955)
 -->
<!-- Title: Alarm::getTimestamp Pages: 1 -->
<svg width="901pt" height="76pt"
 viewBox="0.00 0.00 901.00 76.00" xmlns="http://www.w3.org/2000/svg" xmlns:xlink="http://www.w3.org/1999/xlink">
<g id="graph0" class="graph" transform="scale(1 1) rotate(0) translate(4 71.88)">
<title>Alarm::getTimestamp</title>
<!-- Node1 -->
<g id="Node000001" class="node">
<title>Node1</title>
<g id="a_Node000001"><a xlink:title="Get the alarm creation timestamp.">
<polygon fill="#999999" stroke="#666666" points="892.5,-40.25 782.75,-40.25 782.75,-21 892.5,-21 892.5,-40.25"/>
<text xml:space="preserve" text-anchor="middle" x="837.62" y="-26.75" font-family="Helvetica,sans-Serif" font-size="10.00">Alarm::getTimestamp</text>
</a>
</g>
</g>
<!-- Node2 -->
<g id="Node000002" class="node">
<title>Node2</title>
<g id="a_Node000002"><a xlink:href="class_temperature_controller.html#a477597992aa9362076843f37b648741a" target="_top" xlink:title="Update alarm display queues.">
<polygon fill="white" stroke="#666666" points="734.75,-67.88 619,-67.88 619,-37.38 734.75,-37.38 734.75,-67.88"/>
<text xml:space="preserve" text-anchor="start" x="627" y="-54.38" font-family="Helvetica,sans-Serif" font-size="10.00">TemperatureController</text>
<text xml:space="preserve" text-anchor="middle" x="676.88" y="-43.12" font-family="Helvetica,sans-Serif" font-size="10.00">::_updateAlarmQueues</text>
</a>
</g>
</g>
<!-- Node1&#45;&gt;Node2 -->
<g id="edge1_Node000001_Node000002" class="edge">
<title>Node1&#45;&gt;Node2</title>
<g id="a_edge1_Node000001_Node000002"><a xlink:title=" ">
<path fill="none" stroke="#63b8ff" d="M771.13,-39.7C759.17,-41.36 746.77,-43.08 735.07,-44.7"/>
<polygon fill="#63b8ff" stroke="#63b8ff" points="771.51,-43.18 780.94,-38.34 770.55,-36.25 771.51,-43.18"/>
</a>
</g>
</g>
<!-- Node7 -->
<g id="Node000007" class="node">
<title>Node7</title>
<g id="a_Node000007"><a xlink:href="struct_alarm_comparator.html#a9e59c2531a3bd641d0b3d0cc10bffe54" target="_top" xlink:title="Comparison operator for alarm sorting.">
<polygon fill="white" stroke="#666666" points="746.75,-19.25 607,-19.25 607,0 746.75,0 746.75,-19.25"/>
<text xml:space="preserve" text-anchor="middle" x="676.88" y="-5.75" font-family="Helvetica,sans-Serif" font-size="10.00">AlarmComparator::operator()</text>
</a>
</g>
</g>
<!-- Node1&#45;&gt;Node7 -->
<g id="edge7_Node000001_Node000007" class="edge">
<title>Node1&#45;&gt;Node7</title>
<g id="a_edge7_Node000001_Node000007"><a xlink:title=" ">
<path fill="none" stroke="#63b8ff" d="M771.27,-21.98C763.26,-20.92 755.05,-19.83 746.98,-18.77"/>
<polygon fill="#63b8ff" stroke="#63b8ff" points="770.56,-25.42 780.94,-23.26 771.48,-18.48 770.56,-25.42"/>
</a>
</g>
</g>
<!-- Node3 -->
<g id="Node000003" class="node">
<title>Node3</title>
<g id="a_Node000003"><a xlink:href="class_temperature_controller.html#a6b2f92b5c2af867240200cff2e61e806" target="_top" xlink:title="Handle display section switching.">
<polygon fill="white" stroke="#666666" points="571,-67.88 444,-67.88 444,-37.38 571,-37.38 571,-67.88"/>
<text xml:space="preserve" text-anchor="start" x="452" y="-54.38" font-family="Helvetica,sans-Serif" font-size="10.00">TemperatureController</text>
<text xml:space="preserve" text-anchor="middle" x="507.5" y="-43.12" font-family="Helvetica,sans-Serif" font-size="10.00">::_handleDisplaySections</text>
</a>
</g>
</g>
<!-- Node2&#45;&gt;Node3 -->
<g id="edge2_Node000002_Node000003" class="edge">
<title>Node2&#45;&gt;Node3</title>
<g id="a_edge2_Node000002_Node000003"><a xlink:title=" ">
<path fill="none" stroke="#63b8ff" d="M607.47,-52.62C595.53,-52.62 583.17,-52.62 571.4,-52.62"/>
<polygon fill="#63b8ff" stroke="#63b8ff" points="607.23,-56.13 617.23,-52.63 607.23,-49.13 607.23,-56.13"/>
</a>
</g>
</g>
<!-- Node4 -->
<g id="Node000004" class="node">
<title>Node4</title>
<g id="a_Node000004"><a xlink:href="class_temperature_controller.html#a5637103784725fb1a73f6463d7cbfde6" target="_top" xlink:title="Handle alarm display on OLED/LEDs.">
<polygon fill="white" stroke="#666666" points="408,-67.88 296,-67.88 296,-37.38 408,-37.38 408,-67.88"/>
<text xml:space="preserve" text-anchor="start" x="304" y="-54.38" font-family="Helvetica,sans-Serif" font-size="10.00">TemperatureController</text>
<text xml:space="preserve" text-anchor="middle" x="352" y="-43.12" font-family="Helvetica,sans-Serif" font-size="10.00">::handleAlarmDisplay</text>
</a>
</g>
</g>
<!-- Node3&#45;&gt;Node4 -->
<g id="edge3_Node000003_Node000004" class="edge">
<title>Node3&#45;&gt;Node4</title>
<g id="a_edge3_Node000003_Node000004"><a xlink:title=" ">
<path fill="none" stroke="#63b8ff" d="M432.22,-52.62C424.12,-52.62 415.98,-52.62 408.16,-52.62"/>
<polygon fill="#63b8ff" stroke="#63b8ff" points="432.11,-56.13 442.11,-52.63 432.11,-49.13 432.11,-56.13"/>
</a>
</g>
</g>
<!-- Node5 -->
<g id="Node000005" class="node">
<title>Node5</title>
<g id="a_Node000005"><a xlink:href="class_temperature_controller.html#aca5deddbf703001373424d876f87b5f2" target="_top" xlink:title="Main update function &#45; must be called in loop()">
<polygon fill="white" stroke="#666666" points="260,-67.88 148,-67.88 148,-37.38 260,-37.38 260,-67.88"/>
<text xml:space="preserve" text-anchor="start" x="156" y="-54.38" font-family="Helvetica,sans-Serif" font-size="10.00">TemperatureController</text>
<text xml:space="preserve" text-anchor="middle" x="204" y="-43.12" font-family="Helvetica,sans-Serif" font-size="10.00">::update</text>
</a>
</g>
</g>
<!-- Node4&#45;&gt;Node5 -->
<g id="edge4_Node000004_Node000005" class="edge">
<title>Node4&#45;&gt;Node5</title>
<g id="a_edge4_Node000004_Node000005"><a xlink:title=" ">
<path fill="none" stroke="#63b8ff" d="M284.47,-52.62C276.38,-52.62 268.18,-52.62 260.27,-52.62"/>
<polygon fill="#63b8ff" stroke="#63b8ff" points="284.29,-56.13 294.29,-52.63 284.29,-49.13 284.29,-56.13"/>
</a>
</g>
</g>
<!-- Node6 -->
<g id="Node000006" class="node">
<title>Node6</title>
<g id="a_Node000006"><a xlink:href="class_temperature_controller.html#a11948a87fe7df37543b86ecdd488b341" target="_top" xlink:title="Read temperature from all configured measurement points.">
<polygon fill="white" stroke="#666666" points="112,-67.88 0,-67.88 0,-37.38 112,-37.38 112,-67.88"/>
<text xml:space="preserve" text-anchor="start" x="8" y="-54.38" font-family="Helvetica,sans-Serif" font-size="10.00">TemperatureController</text>
<text xml:space="preserve" text-anchor="middle" x="56" y="-43.12" font-family="Helvetica,sans-Serif" font-size="10.00">::readAllPoints</text>
</a>
</g>
</g>
<!-- Node5&#45;&gt;Node6 -->
<g id="edge5_Node000005_Node000006" class="edge">
<title>Node5&#45;&gt;Node6</title>
<g id="a_edge5_Node000005_Node000006"><a xlink:title=" ">
<path fill="none" stroke="#63b8ff" d="M136.47,-45.9C128.38,-45.84 120.18,-45.89 112.27,-46.06"/>
<polygon fill="#63b8ff" stroke="#63b8ff" points="136.24,-49.4 146.29,-46.04 136.34,-42.4 136.24,-49.4"/>
</a>
</g>
</g>
<!-- Node6&#45;&gt;Node5 -->
<g id="edge6_Node000006_Node000005" class="edge">
<title>Node6&#45;&gt;Node5</title>
<g id="a_edge6_Node000006_Node000005"><a xlink:title=" ">
<path fill="none" stroke="#63b8ff" d="M123.61,-59.35C131.7,-59.41 139.9,-59.36 147.8,-59.19"/>
<polygon fill="#63b8ff" stroke="#63b8ff" points="123.84,-55.85 113.79,-59.22 123.74,-62.85 123.84,-55.85"/>
</a>
</g>
</g>
</g>
</svg>
