<?xml version="1.0" encoding="UTF-8" standalone="no"?>
<!DOCTYPE svg PUBLIC "-//W3C//DTD SVG 1.1//EN"
 "http://www.w3.org/Graphics/SVG/1.1/DTD/svg11.dtd">
<!-- Generated by graphviz version 13.1.0 (20250701.0955)
 -->
<!-- Title: LoggerManager::_hasHeaderChanged Pages: 1 -->
<svg width="520pt" height="64pt"
 viewBox="0.00 0.00 520.00 64.00" xmlns="http://www.w3.org/2000/svg" xmlns:xlink="http://www.w3.org/1999/xlink">
<g id="graph0" class="graph" transform="scale(1 1) rotate(0) translate(4 60.25)">
<title>LoggerManager::_hasHeaderChanged</title>
<!-- Node1 -->
<g id="Node000001" class="node">
<title>Node1</title>
<g id="a_Node000001"><a xlink:title=" ">
<polygon fill="#999999" stroke="#666666" points="141.25,-42.88 0,-42.88 0,-12.37 141.25,-12.37 141.25,-42.88"/>
<text xml:space="preserve" text-anchor="start" x="8" y="-29.38" font-family="Helvetica,sans-Serif" font-size="10.00">LoggerManager::_hasHeader</text>
<text xml:space="preserve" text-anchor="middle" x="70.62" y="-18.12" font-family="Helvetica,sans-Serif" font-size="10.00">Changed</text>
</a>
</g>
</g>
<!-- Node2 -->
<g id="Node000002" class="node">
<title>Node2</title>
<g id="a_Node000002"><a xlink:href="$class_logger_manager.html#aab43f573f73cfe426cfbea04a9fdd3ee" xlink:title=" ">
<polygon fill="white" stroke="#666666" points="308.75,-42.88 177.25,-42.88 177.25,-12.37 308.75,-12.37 308.75,-42.88"/>
<text xml:space="preserve" text-anchor="start" x="185.25" y="-29.38" font-family="Helvetica,sans-Serif" font-size="10.00">LoggerManager::_generate</text>
<text xml:space="preserve" text-anchor="middle" x="243" y="-18.12" font-family="Helvetica,sans-Serif" font-size="10.00">CSVHeader</text>
</a>
</g>
</g>
<!-- Node1&#45;&gt;Node2 -->
<g id="edge1_Node000001_Node000002" class="edge">
<title>Node1&#45;&gt;Node2</title>
<g id="a_edge1_Node000001_Node000002"><a xlink:title=" ">
<path fill="none" stroke="#63b8ff" d="M141.41,-27.62C149.41,-27.62 157.59,-27.62 165.67,-27.62"/>
<polygon fill="#63b8ff" stroke="#63b8ff" points="165.47,-31.13 175.47,-27.63 165.47,-24.13 165.47,-31.13"/>
</a>
</g>
</g>
<!-- Node3 -->
<g id="Node000003" class="node">
<title>Node3</title>
<g id="a_Node000003"><a xlink:href="$class_logger_manager.html#a57d230cd2896120a32ecf55a14895d55" xlink:title=" ">
<polygon fill="white" stroke="#666666" points="512.25,-56.25 344.75,-56.25 344.75,-37 512.25,-37 512.25,-56.25"/>
<text xml:space="preserve" text-anchor="middle" x="428.5" y="-42.75" font-family="Helvetica,sans-Serif" font-size="10.00">LoggerManager::_escapeCSVField</text>
</a>
</g>
</g>
<!-- Node2&#45;&gt;Node3 -->
<g id="edge2_Node000002_Node000003" class="edge">
<title>Node2&#45;&gt;Node3</title>
<g id="a_edge2_Node000002_Node000003"><a xlink:title=" ">
<path fill="none" stroke="#63b8ff" d="M309.21,-34.38C316.98,-35.18 325.03,-36.02 333.11,-36.85"/>
<polygon fill="#63b8ff" stroke="#63b8ff" points="332.71,-40.33 343.02,-37.88 333.43,-33.37 332.71,-40.33"/>
</a>
</g>
</g>
<!-- Node4 -->
<g id="Node000004" class="node">
<title>Node4</title>
<g id="a_Node000004"><a xlink:href="$class_measurement_point.html#aa3a80d373c7609c7b178bf7353ffdd7a" xlink:title="Get measurement point name.">
<polygon fill="white" stroke="#666666" points="500.25,-19.25 356.75,-19.25 356.75,0 500.25,0 500.25,-19.25"/>
<text xml:space="preserve" text-anchor="middle" x="428.5" y="-5.75" font-family="Helvetica,sans-Serif" font-size="10.00">MeasurementPoint::getName</text>
</a>
</g>
</g>
<!-- Node2&#45;&gt;Node4 -->
<g id="edge3_Node000002_Node000004" class="edge">
<title>Node2&#45;&gt;Node4</title>
<g id="a_edge3_Node000002_Node000004"><a xlink:title=" ">
<path fill="none" stroke="#63b8ff" d="M309.21,-21.23C320.77,-20.09 332.93,-18.9 344.89,-17.73"/>
<polygon fill="#63b8ff" stroke="#63b8ff" points="345.15,-21.22 354.76,-16.76 344.47,-14.25 345.15,-21.22"/>
</a>
</g>
</g>
</g>
</svg>
