<?xml version="1.0" encoding="UTF-8" standalone="no"?>
<!DOCTYPE svg PUBLIC "-//W3C//DTD SVG 1.1//EN"
 "http://www.w3.org/Graphics/SVG/1.1/DTD/svg11.dtd">
<!-- Generated by graphviz version 13.1.0 (20250701.0955)
 -->
<!-- Title: TimeManager::_initializeNTP Pages: 1 -->
<svg width="524pt" height="120pt"
 viewBox="0.00 0.00 524.00 120.00" xmlns="http://www.w3.org/2000/svg" xmlns:xlink="http://www.w3.org/1999/xlink">
<g id="graph0" class="graph" transform="scale(1 1) rotate(0) translate(4 116.25)">
<title>TimeManager::_initializeNTP</title>
<!-- Node1 -->
<g id="Node000001" class="node">
<title>Node1</title>
<g id="a_Node000001"><a xlink:title="Initialize NTP client with current settings.">
<polygon fill="#999999" stroke="#666666" points="516,-74.25 374,-74.25 374,-55 516,-55 516,-74.25"/>
<text xml:space="preserve" text-anchor="middle" x="445" y="-60.75" font-family="Helvetica,sans-Serif" font-size="10.00">TimeManager::_initializeNTP</text>
</a>
</g>
</g>
<!-- Node2 -->
<g id="Node000002" class="node">
<title>Node2</title>
<g id="a_Node000002"><a xlink:href="class_time_manager.html#aa535067588a39cafa8ac49f8e342bd08" target="_top" xlink:title="Initialize time manager and RTC.">
<polygon fill="white" stroke="#666666" points="123.62,-112.25 19.12,-112.25 19.12,-93 123.62,-93 123.62,-112.25"/>
<text xml:space="preserve" text-anchor="middle" x="71.38" y="-98.75" font-family="Helvetica,sans-Serif" font-size="10.00">TimeManager::begin</text>
</a>
</g>
</g>
<!-- Node1&#45;&gt;Node2 -->
<g id="edge1_Node000001_Node000002" class="edge">
<title>Node1&#45;&gt;Node2</title>
<g id="a_edge1_Node000001_Node000002"><a xlink:title=" ">
<path fill="none" stroke="#63b8ff" d="M412.28,-79.25C391.61,-87.95 363.8,-98.14 338,-102.62 264.51,-115.4 177.85,-112.03 123.99,-107.82"/>
<polygon fill="#63b8ff" stroke="#63b8ff" points="413.5,-82.53 421.28,-75.34 410.71,-76.11 413.5,-82.53"/>
</a>
</g>
</g>
<!-- Node3 -->
<g id="Node000003" class="node">
<title>Node3</title>
<g id="a_Node000003"><a xlink:href="class_time_manager.html#a9d5fe35fd4ba97491afde4647421d010" target="_top" xlink:title="Load time configuration from persistent storage.">
<polygon fill="white" stroke="#666666" points="322.25,-93.25 194.5,-93.25 194.5,-74 322.25,-74 322.25,-93.25"/>
<text xml:space="preserve" text-anchor="middle" x="258.38" y="-79.75" font-family="Helvetica,sans-Serif" font-size="10.00">TimeManager::loadConfig</text>
</a>
</g>
</g>
<!-- Node1&#45;&gt;Node3 -->
<g id="edge2_Node000001_Node000003" class="edge">
<title>Node1&#45;&gt;Node3</title>
<g id="a_edge2_Node000001_Node000003"><a xlink:title=" ">
<path fill="none" stroke="#63b8ff" d="M362.52,-73.01C349.12,-74.39 335.41,-75.8 322.54,-77.12"/>
<polygon fill="#63b8ff" stroke="#63b8ff" points="362.58,-76.52 372.17,-72.02 361.86,-69.56 362.58,-76.52"/>
</a>
</g>
</g>
<!-- Node4 -->
<g id="Node000004" class="node">
<title>Node4</title>
<g id="a_Node000004"><a xlink:href="class_time_manager.html#aef071f85874c744b35768bc95bff7772" target="_top" xlink:title="Set NTP server address.">
<polygon fill="white" stroke="#666666" points="330.12,-56.25 186.62,-56.25 186.62,-37 330.12,-37 330.12,-56.25"/>
<text xml:space="preserve" text-anchor="middle" x="258.38" y="-42.75" font-family="Helvetica,sans-Serif" font-size="10.00">TimeManager::setNTPServer</text>
</a>
</g>
</g>
<!-- Node1&#45;&gt;Node4 -->
<g id="edge4_Node000001_Node000004" class="edge">
<title>Node1&#45;&gt;Node4</title>
<g id="a_edge4_Node000001_Node000004"><a xlink:title=" ">
<path fill="none" stroke="#63b8ff" d="M362.26,-56.66C351.65,-55.62 340.84,-54.57 330.42,-53.55"/>
<polygon fill="#63b8ff" stroke="#63b8ff" points="361.88,-60.13 372.17,-57.62 362.55,-53.17 361.88,-60.13"/>
</a>
</g>
</g>
<!-- Node5 -->
<g id="Node000005" class="node">
<title>Node5</title>
<g id="a_Node000005"><a xlink:href="class_time_manager.html#accdbd3c07d63d6ed1f96fddbc4bf2e00" target="_top" xlink:title="Set time from NTP server.">
<polygon fill="white" stroke="#666666" points="338,-19.25 178.75,-19.25 178.75,0 338,0 338,-19.25"/>
<text xml:space="preserve" text-anchor="middle" x="258.38" y="-5.75" font-family="Helvetica,sans-Serif" font-size="10.00">TimeManager::setTimeFromNTP</text>
</a>
</g>
</g>
<!-- Node1&#45;&gt;Node5 -->
<g id="edge5_Node000001_Node000005" class="edge">
<title>Node1&#45;&gt;Node5</title>
<g id="a_edge5_Node000001_Node000005"><a xlink:title=" ">
<path fill="none" stroke="#63b8ff" d="M407.06,-50.6C386.83,-43.21 361.23,-34.32 338,-27.62 328.18,-24.8 317.56,-22.12 307.41,-19.73"/>
<polygon fill="#63b8ff" stroke="#63b8ff" points="405.68,-53.82 416.27,-54 408.1,-47.25 405.68,-53.82"/>
</a>
</g>
</g>
<!-- Node3&#45;&gt;Node2 -->
<g id="edge3_Node000003_Node000002" class="edge">
<title>Node3&#45;&gt;Node2</title>
<g id="a_edge3_Node000003_Node000002"><a xlink:title=" ">
<path fill="none" stroke="#63b8ff" d="M183.03,-91.26C163.2,-93.3 142.2,-95.45 123.9,-97.33"/>
<polygon fill="#63b8ff" stroke="#63b8ff" points="183.13,-94.77 192.72,-90.27 182.42,-87.81 183.13,-94.77"/>
</a>
</g>
</g>
<!-- Node6 -->
<g id="Node000006" class="node">
<title>Node6</title>
<g id="a_Node000006"><a xlink:href="class_time_manager.html#aa8a8cc016ebb9ceabc4fee347a49cbdb" target="_top" xlink:title="Force immediate NTP synchronization.">
<polygon fill="white" stroke="#666666" points="142.75,-56.25 0,-56.25 0,-37 142.75,-37 142.75,-56.25"/>
<text xml:space="preserve" text-anchor="middle" x="71.38" y="-42.75" font-family="Helvetica,sans-Serif" font-size="10.00">TimeManager::syncWithNTP</text>
</a>
</g>
</g>
<!-- Node5&#45;&gt;Node6 -->
<g id="edge6_Node000005_Node000006" class="edge">
<title>Node5&#45;&gt;Node6</title>
<g id="a_edge6_Node000005_Node000006"><a xlink:title=" ">
<path fill="none" stroke="#63b8ff" d="M195.83,-21.93C172.14,-26.67 145.39,-32.02 122.87,-36.53"/>
<polygon fill="#63b8ff" stroke="#63b8ff" points="196.22,-25.43 205.34,-20.03 194.85,-18.56 196.22,-25.43"/>
</a>
</g>
</g>
<!-- Node7 -->
<g id="Node000007" class="node">
<title>Node7</title>
<g id="a_Node000007"><a xlink:href="class_time_manager.html#a97d902b19861efc099141eeb846671a3" target="_top" xlink:title="Update time from NTP if needed.">
<polygon fill="white" stroke="#666666" points="126.62,-19.25 16.12,-19.25 16.12,0 126.62,0 126.62,-19.25"/>
<text xml:space="preserve" text-anchor="middle" x="71.38" y="-5.75" font-family="Helvetica,sans-Serif" font-size="10.00">TimeManager::update</text>
</a>
</g>
</g>
<!-- Node5&#45;&gt;Node7 -->
<g id="edge7_Node000005_Node000007" class="edge">
<title>Node5&#45;&gt;Node7</title>
<g id="a_edge7_Node000005_Node000007"><a xlink:title=" ">
<path fill="none" stroke="#63b8ff" d="M166.97,-9.62C153.34,-9.62 139.65,-9.62 127.08,-9.62"/>
<polygon fill="#63b8ff" stroke="#63b8ff" points="166.87,-13.13 176.87,-9.63 166.87,-6.13 166.87,-13.13"/>
</a>
</g>
</g>
</g>
</svg>
