<?xml version="1.0" encoding="UTF-8" standalone="no"?>
<!DOCTYPE svg PUBLIC "-//W3C//DTD SVG 1.1//EN"
 "http://www.w3.org/Graphics/SVG/1.1/DTD/svg11.dtd">
<!-- Generated by graphviz version 13.1.0 (20250701.0955)
 -->
<!-- Title: LoggerManager::update Pages: 1 -->
<svg width="910pt" height="719pt"
 viewBox="0.00 0.00 910.00 719.00" xmlns="http://www.w3.org/2000/svg" xmlns:xlink="http://www.w3.org/1999/xlink">
<g id="graph0" class="graph" transform="scale(1 1) rotate(0) translate(4 714.61)">
<title>LoggerManager::update</title>
<!-- Node1 -->
<g id="Node000001" class="node">
<title>Node1</title>
<g id="a_Node000001"><a xlink:title=" ">
<polygon fill="#999999" stroke="#666666" points="118,-454.99 0,-454.99 0,-435.74 118,-435.74 118,-454.99"/>
<text xml:space="preserve" text-anchor="middle" x="59" y="-441.49" font-family="Helvetica,sans-Serif" font-size="10.00">LoggerManager::update</text>
</a>
</g>
</g>
<!-- Node2 -->
<g id="Node000002" class="node">
<title>Node2</title>
<g id="a_Node000002"><a xlink:href="class_logger_manager.html#a9cf35430e1e61515c6fb12524a58f1ab" target="_top" xlink:title=" ">
<polygon fill="white" stroke="#666666" points="677.5,-624.61 546,-624.61 546,-594.11 677.5,-594.11 677.5,-624.61"/>
<text xml:space="preserve" text-anchor="start" x="554" y="-611.11" font-family="Helvetica,sans-Serif" font-size="10.00">LoggerManager::_generate</text>
<text xml:space="preserve" text-anchor="middle" x="611.75" y="-599.86" font-family="Helvetica,sans-Serif" font-size="10.00">EventLogFileName</text>
</a>
</g>
</g>
<!-- Node1&#45;&gt;Node2 -->
<g id="edge1_Node000001_Node000002" class="edge">
<title>Node1&#45;&gt;Node2</title>
<g id="a_edge1_Node000001_Node000002"><a xlink:title=" ">
<path fill="none" stroke="#63b8ff" d="M65.81,-455.2C78.7,-476.03 111.91,-524.49 154,-546.36 275.89,-609.69 439.59,-616.43 534.28,-613.98"/>
<polygon fill="#63b8ff" stroke="#63b8ff" points="534.36,-617.48 544.25,-613.68 534.15,-610.49 534.36,-617.48"/>
</a>
</g>
</g>
<!-- Node3 -->
<g id="Node000003" class="node">
<title>Node3</title>
<g id="a_Node000003"><a xlink:href="class_logger_manager.html#a3ca0b934265a4d9ce6391bf97dec179a" target="_top" xlink:title=" ">
<polygon fill="white" stroke="#666666" points="888.12,-519.61 748.38,-519.61 748.38,-489.11 888.12,-489.11 888.12,-519.61"/>
<text xml:space="preserve" text-anchor="start" x="756.38" y="-506.11" font-family="Helvetica,sans-Serif" font-size="10.00">LoggerManager::_getCurrent</text>
<text xml:space="preserve" text-anchor="middle" x="818.25" y="-494.86" font-family="Helvetica,sans-Serif" font-size="10.00">DateString</text>
</a>
</g>
</g>
<!-- Node1&#45;&gt;Node3 -->
<g id="edge3_Node000001_Node000003" class="edge">
<title>Node1&#45;&gt;Node3</title>
<g id="a_edge3_Node000001_Node000003"><a xlink:title=" ">
<path fill="none" stroke="#63b8ff" d="M63.69,-455.27C73.8,-480.95 104.51,-549.95 154,-583.36 221.39,-628.86 252.19,-611.34 332.75,-622.36 493.88,-644.41 549.57,-698.69 698.5,-633.36 746.84,-612.16 784.17,-560.49 803.24,-529.36"/>
<polygon fill="#63b8ff" stroke="#63b8ff" points="806.12,-531.35 808.22,-520.97 800.1,-527.78 806.12,-531.35"/>
</a>
</g>
</g>
<!-- Node4 -->
<g id="Node000004" class="node">
<title>Node4</title>
<g id="a_Node000004"><a xlink:href="class_logger_manager.html#a829c2f8dcde77d6506f1d664a291969a" target="_top" xlink:title=" ">
<polygon fill="white" stroke="#666666" points="296,-379.61 154.75,-379.61 154.75,-349.11 296,-349.11 296,-379.61"/>
<text xml:space="preserve" text-anchor="start" x="162.75" y="-366.11" font-family="Helvetica,sans-Serif" font-size="10.00">LoggerManager::_hasHeader</text>
<text xml:space="preserve" text-anchor="middle" x="225.38" y="-354.86" font-family="Helvetica,sans-Serif" font-size="10.00">Changed</text>
</a>
</g>
</g>
<!-- Node1&#45;&gt;Node4 -->
<g id="edge4_Node000001_Node000004" class="edge">
<title>Node1&#45;&gt;Node4</title>
<g id="a_edge4_Node000001_Node000004"><a xlink:title=" ">
<path fill="none" stroke="#63b8ff" d="M74.43,-435.25C92.42,-422.96 124.43,-402.17 154,-388.36 157.06,-386.93 160.23,-385.55 163.45,-384.21"/>
<polygon fill="#63b8ff" stroke="#63b8ff" points="164.44,-387.58 172.46,-380.65 161.88,-381.07 164.44,-387.58"/>
</a>
</g>
</g>
<!-- Node8 -->
<g id="Node000008" class="node">
<title>Node8</title>
<g id="a_Node000008"><a xlink:href="class_logger_manager.html#abb3a1d7dfa336be59051e566de3fce9d" target="_top" xlink:title=" ">
<polygon fill="white" stroke="#666666" points="293.75,-293.61 157,-293.61 157,-263.11 293.75,-263.11 293.75,-293.61"/>
<text xml:space="preserve" text-anchor="start" x="165" y="-280.11" font-family="Helvetica,sans-Serif" font-size="10.00">LoggerManager::_increment</text>
<text xml:space="preserve" text-anchor="middle" x="225.38" y="-268.86" font-family="Helvetica,sans-Serif" font-size="10.00">SequenceNumber</text>
</a>
</g>
</g>
<!-- Node1&#45;&gt;Node8 -->
<g id="edge8_Node000001_Node000008" class="edge">
<title>Node1&#45;&gt;Node8</title>
<g id="a_edge8_Node000001_Node000008"><a xlink:title=" ">
<path fill="none" stroke="#63b8ff" d="M64.21,-435.57C75.34,-410.78 107.86,-344.81 154,-307.36 157.64,-304.41 161.61,-301.72 165.77,-299.28"/>
<polygon fill="#63b8ff" stroke="#63b8ff" points="167.17,-302.49 174.37,-294.72 163.9,-296.31 167.17,-302.49"/>
</a>
</g>
</g>
<!-- Node9 -->
<g id="Node000009" class="node">
<title>Node9</title>
<g id="a_Node000009"><a xlink:href="class_logger_manager.html#ac7866b2b0244358be6a1cfe8d245cc7d" target="_top" xlink:title=" ">
<polygon fill="white" stroke="#666666" points="485.25,-155.61 336.5,-155.61 336.5,-125.11 485.25,-125.11 485.25,-155.61"/>
<text xml:space="preserve" text-anchor="start" x="344.5" y="-142.11" font-family="Helvetica,sans-Serif" font-size="10.00">LoggerManager::_recoverFrom</text>
<text xml:space="preserve" text-anchor="middle" x="410.88" y="-130.86" font-family="Helvetica,sans-Serif" font-size="10.00">ExistingFiles</text>
</a>
</g>
</g>
<!-- Node1&#45;&gt;Node9 -->
<g id="edge9_Node000001_Node000009" class="edge">
<title>Node1&#45;&gt;Node9</title>
<g id="a_edge9_Node000001_Node000009"><a xlink:title=" ">
<path fill="none" stroke="#63b8ff" d="M65.93,-435.54C79.06,-414.65 112.71,-365.7 154,-340.36 209.96,-306.02 248.24,-346.6 296.75,-302.36 331.03,-271.09 305.97,-242.26 332.75,-204.36 344.31,-188 361.06,-173.42 376.01,-162.31"/>
<polygon fill="#63b8ff" stroke="#63b8ff" points="377.69,-165.42 383.79,-156.75 373.62,-159.72 377.69,-165.42"/>
</a>
</g>
</g>
<!-- Node15 -->
<g id="Node000015" class="node">
<title>Node15</title>
<g id="a_Node000015"><a xlink:href="class_logger_manager.html#a445856fb9bb37bd5e61d5242d8996c1f" target="_top" xlink:title=" ">
<polygon fill="white" stroke="#666666" points="478.88,-325.61 342.88,-325.61 342.88,-295.11 478.88,-295.11 478.88,-325.61"/>
<text xml:space="preserve" text-anchor="start" x="350.88" y="-312.11" font-family="Helvetica,sans-Serif" font-size="10.00">LoggerManager::createNew</text>
<text xml:space="preserve" text-anchor="middle" x="410.88" y="-300.86" font-family="Helvetica,sans-Serif" font-size="10.00">LogFile</text>
</a>
</g>
</g>
<!-- Node1&#45;&gt;Node15 -->
<g id="edge20_Node000001_Node000015" class="edge">
<title>Node1&#45;&gt;Node15</title>
<g id="a_edge20_Node000001_Node000015"><a xlink:title=" ">
<path fill="none" stroke="#63b8ff" d="M118.47,-451.96C168.31,-455.02 240.58,-453.23 296.75,-426.36 317.74,-416.32 316.57,-405.08 332.75,-388.36 350.52,-370 370.84,-349.47 386.17,-334.07"/>
<polygon fill="#63b8ff" stroke="#63b8ff" points="388.47,-336.72 393.05,-327.17 383.51,-331.78 388.47,-336.72"/>
</a>
</g>
</g>
<!-- Node18 -->
<g id="Node000018" class="node">
<title>Node18</title>
<g id="a_Node000018"><a xlink:href="class_logger_manager.html#a32ce9f462269787130bee46b2c34b632" target="_top" xlink:title=" ">
<polygon fill="white" stroke="#666666" points="296.75,-416.99 154,-416.99 154,-397.74 296.75,-397.74 296.75,-416.99"/>
<text xml:space="preserve" text-anchor="middle" x="225.38" y="-403.49" font-family="Helvetica,sans-Serif" font-size="10.00">LoggerManager::logDataNow</text>
</a>
</g>
</g>
<!-- Node1&#45;&gt;Node18 -->
<g id="edge25_Node000001_Node000018" class="edge">
<title>Node1&#45;&gt;Node18</title>
<g id="a_edge25_Node000001_Node000018"><a xlink:title=" ">
<path fill="none" stroke="#63b8ff" d="M103.62,-435.28C123.95,-430.58 148.35,-424.94 169.88,-419.96"/>
<polygon fill="#63b8ff" stroke="#63b8ff" points="170.41,-423.43 179.36,-417.77 168.83,-416.61 170.41,-423.43"/>
</a>
</g>
</g>
<!-- Node24 -->
<g id="Node000024" class="node">
<title>Node24</title>
<g id="a_Node000024"><a xlink:href="class_logger_manager.html#a2503703714729cc95171579fe4ce0d4c" target="_top" xlink:title=" ">
<polygon fill="white" stroke="#666666" points="284.38,-494.99 166.38,-494.99 166.38,-475.74 284.38,-475.74 284.38,-494.99"/>
<text xml:space="preserve" text-anchor="middle" x="225.38" y="-481.49" font-family="Helvetica,sans-Serif" font-size="10.00">LoggerManager::logInfo</text>
</a>
</g>
</g>
<!-- Node1&#45;&gt;Node24 -->
<g id="edge33_Node000001_Node000024" class="edge">
<title>Node1&#45;&gt;Node24</title>
<g id="a_edge33_Node000001_Node000024"><a xlink:title=" ">
<path fill="none" stroke="#63b8ff" d="M101.48,-455.45C122.8,-460.64 149,-467.02 171.73,-472.55"/>
<polygon fill="#63b8ff" stroke="#63b8ff" points="170.89,-475.95 181.44,-474.91 172.55,-469.15 170.89,-475.95"/>
</a>
</g>
</g>
<!-- Node29 -->
<g id="Node000029" class="node">
<title>Node29</title>
<g id="a_Node000029"><a xlink:href="class_logger_manager.html#a5768a8a1983298c5b94e23dabe18f3bb" target="_top" xlink:title=" ">
<polygon fill="white" stroke="#666666" points="293.75,-536.99 157,-536.99 157,-517.74 293.75,-517.74 293.75,-536.99"/>
<text xml:space="preserve" text-anchor="middle" x="225.38" y="-523.49" font-family="Helvetica,sans-Serif" font-size="10.00">LoggerManager::logWarning</text>
</a>
</g>
</g>
<!-- Node1&#45;&gt;Node29 -->
<g id="edge42_Node000001_Node000029" class="edge">
<title>Node1&#45;&gt;Node29</title>
<g id="a_edge42_Node000001_Node000029"><a xlink:title=" ">
<path fill="none" stroke="#63b8ff" d="M73.72,-455.49C91.5,-468.25 123.82,-490.22 154,-504.36 161.28,-507.77 169.2,-510.89 177.02,-513.65"/>
<polygon fill="#63b8ff" stroke="#63b8ff" points="175.89,-516.96 186.48,-516.83 178.12,-510.33 175.89,-516.96"/>
</a>
</g>
</g>
<!-- Node2&#45;&gt;Node3 -->
<g id="edge2_Node000002_Node000003" class="edge">
<title>Node2&#45;&gt;Node3</title>
<g id="a_edge2_Node000002_Node000003"><a xlink:title=" ">
<path fill="none" stroke="#63b8ff" d="M665.7,-593.7C676.74,-589.82 688.16,-585.33 698.5,-580.36 730.16,-565.16 763.64,-543.12 786.95,-526.68"/>
<polygon fill="#63b8ff" stroke="#63b8ff" points="788.95,-529.56 795.05,-520.9 784.88,-523.86 788.95,-529.56"/>
</a>
</g>
</g>
<!-- Node5 -->
<g id="Node000005" class="node">
<title>Node5</title>
<g id="a_Node000005"><a xlink:href="class_logger_manager.html#aab43f573f73cfe426cfbea04a9fdd3ee" target="_top" xlink:title=" ">
<polygon fill="white" stroke="#666666" points="677.5,-241.61 546,-241.61 546,-211.11 677.5,-211.11 677.5,-241.61"/>
<text xml:space="preserve" text-anchor="start" x="554" y="-228.11" font-family="Helvetica,sans-Serif" font-size="10.00">LoggerManager::_generate</text>
<text xml:space="preserve" text-anchor="middle" x="611.75" y="-216.86" font-family="Helvetica,sans-Serif" font-size="10.00">CSVHeader</text>
</a>
</g>
</g>
<!-- Node4&#45;&gt;Node5 -->
<g id="edge5_Node000004_Node000005" class="edge">
<title>Node4&#45;&gt;Node5</title>
<g id="a_edge5_Node000004_Node000005"><a xlink:title=" ">
<path fill="none" stroke="#63b8ff" d="M278.19,-348.7C284.99,-345.09 291.43,-340.69 296.75,-335.36 326.59,-305.44 298.58,-272.22 332.75,-247.36 390.48,-205.36 473.97,-204.79 534.37,-211.85"/>
<polygon fill="#63b8ff" stroke="#63b8ff" points="533.89,-215.31 544.25,-213.11 534.77,-208.37 533.89,-215.31"/>
</a>
</g>
</g>
<!-- Node6 -->
<g id="Node000006" class="node">
<title>Node6</title>
<g id="a_Node000006"><a xlink:href="class_logger_manager.html#a57d230cd2896120a32ecf55a14895d55" target="_top" xlink:title=" ">
<polygon fill="white" stroke="#666666" points="902,-402.99 734.5,-402.99 734.5,-383.74 902,-383.74 902,-402.99"/>
<text xml:space="preserve" text-anchor="middle" x="818.25" y="-389.49" font-family="Helvetica,sans-Serif" font-size="10.00">LoggerManager::_escapeCSVField</text>
</a>
</g>
</g>
<!-- Node5&#45;&gt;Node6 -->
<g id="edge6_Node000005_Node000006" class="edge">
<title>Node5&#45;&gt;Node6</title>
<g id="a_edge6_Node000005_Node000006"><a xlink:title=" ">
<path fill="none" stroke="#63b8ff" d="M677.81,-239.98C685.08,-242.82 692.14,-246.24 698.5,-250.36 748.39,-282.72 787.99,-342.59 806.26,-373.59"/>
<polygon fill="#63b8ff" stroke="#63b8ff" points="803.04,-375.03 811.06,-381.95 809.11,-371.54 803.04,-375.03"/>
</a>
</g>
</g>
<!-- Node7 -->
<g id="Node000007" class="node">
<title>Node7</title>
<g id="a_Node000007"><a xlink:href="class_measurement_point.html#aa3a80d373c7609c7b178bf7353ffdd7a" target="_top" xlink:title=" ">
<polygon fill="white" stroke="#666666" points="890,-235.99 746.5,-235.99 746.5,-216.74 890,-216.74 890,-235.99"/>
<text xml:space="preserve" text-anchor="middle" x="818.25" y="-222.49" font-family="Helvetica,sans-Serif" font-size="10.00">MeasurementPoint::getName</text>
</a>
</g>
</g>
<!-- Node5&#45;&gt;Node7 -->
<g id="edge7_Node000005_Node000007" class="edge">
<title>Node5&#45;&gt;Node7</title>
<g id="a_edge7_Node000005_Node000007"><a xlink:title=" ">
<path fill="none" stroke="#63b8ff" d="M677.74,-226.36C695.84,-226.36 715.74,-226.36 734.7,-226.36"/>
<polygon fill="#63b8ff" stroke="#63b8ff" points="734.54,-229.86 744.54,-226.36 734.54,-222.86 734.54,-229.86"/>
</a>
</g>
</g>
<!-- Node9&#45;&gt;Node3 -->
<g id="edge17_Node000009_Node000003" class="edge">
<title>Node9&#45;&gt;Node3</title>
<g id="a_edge17_Node000009_Node000003"><a xlink:title=" ">
<path fill="none" stroke="#63b8ff" d="M485.75,-156.08C570.36,-174.13 697.56,-201.38 698.5,-202.36 764,-270.75 693.21,-327.14 734.5,-412.36 747.52,-439.23 770.79,-464.04 789.35,-481.11"/>
<polygon fill="#63b8ff" stroke="#63b8ff" points="786.83,-483.56 796.62,-487.61 791.5,-478.34 786.83,-483.56"/>
</a>
</g>
</g>
<!-- Node9&#45;&gt;Node5 -->
<g id="edge16_Node000009_Node000005" class="edge">
<title>Node9&#45;&gt;Node5</title>
<g id="a_edge16_Node000009_Node000005"><a xlink:title=" ">
<path fill="none" stroke="#63b8ff" d="M440.18,-156.02C462.75,-168.17 495.38,-184.96 525,-197.36 532.95,-200.69 541.43,-203.92 549.85,-206.95"/>
<polygon fill="#63b8ff" stroke="#63b8ff" points="548.41,-210.15 559,-210.16 550.73,-203.55 548.41,-210.15"/>
</a>
</g>
</g>
<!-- Node10 -->
<g id="Node000010" class="node">
<title>Node10</title>
<g id="a_Node000010"><a xlink:href="class_logger_manager.html#a0efdffdaa8b90ec4a896c5ac52cd2856" target="_top" xlink:title=" ">
<polygon fill="white" stroke="#666666" points="683.5,-106.61 540,-106.61 540,-76.11 683.5,-76.11 683.5,-106.61"/>
<text xml:space="preserve" text-anchor="start" x="548" y="-93.11" font-family="Helvetica,sans-Serif" font-size="10.00">LoggerManager::_findHighest</text>
<text xml:space="preserve" text-anchor="middle" x="611.75" y="-81.86" font-family="Helvetica,sans-Serif" font-size="10.00">SequenceForDate</text>
</a>
</g>
</g>
<!-- Node9&#45;&gt;Node10 -->
<g id="edge10_Node000009_Node000010" class="edge">
<title>Node9&#45;&gt;Node10</title>
<g id="a_edge10_Node000009_Node000010"><a xlink:title=" ">
<path fill="none" stroke="#63b8ff" d="M475.62,-124.65C494.8,-119.93 516.02,-114.7 535.85,-109.81"/>
<polygon fill="#63b8ff" stroke="#63b8ff" points="536.68,-113.21 545.55,-107.42 535.01,-106.42 536.68,-113.21"/>
</a>
</g>
</g>
<!-- Node12 -->
<g id="Node000012" class="node">
<title>Node12</title>
<g id="a_Node000012"><a xlink:href="class_logger_manager.html#a21b4985f38a484ab83b984ab285ea32e" target="_top" xlink:title=" ">
<polygon fill="white" stroke="#666666" points="882.5,-57.61 754,-57.61 754,-27.11 882.5,-27.11 882.5,-57.61"/>
<text xml:space="preserve" text-anchor="start" x="762" y="-44.11" font-family="Helvetica,sans-Serif" font-size="10.00">LoggerManager::_getFiles</text>
<text xml:space="preserve" text-anchor="middle" x="818.25" y="-32.86" font-family="Helvetica,sans-Serif" font-size="10.00">ForDate</text>
</a>
</g>
</g>
<!-- Node9&#45;&gt;Node12 -->
<g id="edge18_Node000009_Node000012" class="edge">
<title>Node9&#45;&gt;Node12</title>
<g id="a_edge18_Node000009_Node000012"><a xlink:title=" ">
<path fill="none" stroke="#63b8ff" d="M420.27,-125.03C436.35,-97.48 474.44,-40.43 525,-18.36 602.75,15.57 703.1,-4.84 763.69,-23.22"/>
<polygon fill="#63b8ff" stroke="#63b8ff" points="762.49,-26.51 773.08,-26.16 764.59,-19.83 762.49,-26.51"/>
</a>
</g>
</g>
<!-- Node13 -->
<g id="Node000013" class="node">
<title>Node13</title>
<g id="a_Node000013"><a xlink:href="class_logger_manager.html#a485fea5149ef2e0199671ad2dcadbcf4" target="_top" xlink:title=" ">
<polygon fill="white" stroke="#666666" points="680.12,-57.61 543.38,-57.61 543.38,-27.11 680.12,-27.11 680.12,-57.61"/>
<text xml:space="preserve" text-anchor="start" x="551.38" y="-44.11" font-family="Helvetica,sans-Serif" font-size="10.00">LoggerManager::_findLatest</text>
<text xml:space="preserve" text-anchor="middle" x="611.75" y="-32.86" font-family="Helvetica,sans-Serif" font-size="10.00">FileForDate</text>
</a>
</g>
</g>
<!-- Node9&#45;&gt;Node13 -->
<g id="edge13_Node000009_Node000013" class="edge">
<title>Node9&#45;&gt;Node13</title>
<g id="a_edge13_Node000009_Node000013"><a xlink:title=" ">
<path fill="none" stroke="#63b8ff" d="M432.09,-124.72C453.96,-108.45 490.34,-83.19 525,-67.36 529.28,-65.4 533.76,-63.56 538.32,-61.83"/>
<polygon fill="#63b8ff" stroke="#63b8ff" points="539.4,-65.16 547.64,-58.5 537.04,-58.57 539.4,-65.16"/>
</a>
</g>
</g>
<!-- Node14 -->
<g id="Node000014" class="node">
<title>Node14</title>
<g id="a_Node000014"><a xlink:href="class_logger_manager.html#ac50bc65494e34dca73f6ee0745a8b6e6" target="_top" xlink:title=" ">
<polygon fill="white" stroke="#666666" points="683.88,-155.61 539.62,-155.61 539.62,-125.11 683.88,-125.11 683.88,-155.61"/>
<text xml:space="preserve" text-anchor="start" x="547.62" y="-142.11" font-family="Helvetica,sans-Serif" font-size="10.00">LoggerManager::_readHeader</text>
<text xml:space="preserve" text-anchor="middle" x="611.75" y="-130.86" font-family="Helvetica,sans-Serif" font-size="10.00">FromFile</text>
</a>
</g>
</g>
<!-- Node9&#45;&gt;Node14 -->
<g id="edge19_Node000009_Node000014" class="edge">
<title>Node9&#45;&gt;Node14</title>
<g id="a_edge19_Node000009_Node000014"><a xlink:title=" ">
<path fill="none" stroke="#63b8ff" d="M485.65,-140.36C499.51,-140.36 514.1,-140.36 528.21,-140.36"/>
<polygon fill="#63b8ff" stroke="#63b8ff" points="527.9,-143.86 537.9,-140.36 527.9,-136.86 527.9,-143.86"/>
</a>
</g>
</g>
<!-- Node11 -->
<g id="Node000011" class="node">
<title>Node11</title>
<g id="a_Node000011"><a xlink:href="class_logger_manager.html#aa19a1b81e99d510ce23068e320305675" target="_top" xlink:title=" ">
<polygon fill="white" stroke="#666666" points="902,-106.61 734.5,-106.61 734.5,-76.11 902,-76.11 902,-106.61"/>
<text xml:space="preserve" text-anchor="start" x="742.5" y="-93.11" font-family="Helvetica,sans-Serif" font-size="10.00">LoggerManager::_extractSequence</text>
<text xml:space="preserve" text-anchor="middle" x="818.25" y="-81.86" font-family="Helvetica,sans-Serif" font-size="10.00">Number</text>
</a>
</g>
</g>
<!-- Node10&#45;&gt;Node11 -->
<g id="edge11_Node000010_Node000011" class="edge">
<title>Node10&#45;&gt;Node11</title>
<g id="a_edge11_Node000010_Node000011"><a xlink:title=" ">
<path fill="none" stroke="#63b8ff" d="M683.99,-91.36C696.56,-91.36 709.82,-91.36 722.91,-91.36"/>
<polygon fill="#63b8ff" stroke="#63b8ff" points="722.83,-94.86 732.83,-91.36 722.83,-87.86 722.83,-94.86"/>
</a>
</g>
</g>
<!-- Node10&#45;&gt;Node12 -->
<g id="edge12_Node000010_Node000012" class="edge">
<title>Node10&#45;&gt;Node12</title>
<g id="a_edge12_Node000010_Node000012"><a xlink:title=" ">
<path fill="none" stroke="#63b8ff" d="M678.3,-75.65C698.8,-70.74 721.57,-65.29 742.64,-60.24"/>
<polygon fill="#63b8ff" stroke="#63b8ff" points="743.44,-63.65 752.34,-57.91 741.8,-56.84 743.44,-63.65"/>
</a>
</g>
</g>
<!-- Node13&#45;&gt;Node11 -->
<g id="edge14_Node000013_Node000011" class="edge">
<title>Node13&#45;&gt;Node11</title>
<g id="a_edge14_Node000013_Node000011"><a xlink:title=" ">
<path fill="none" stroke="#63b8ff" d="M678.3,-58.07C698.2,-62.84 720.25,-68.12 740.8,-73.04"/>
<polygon fill="#63b8ff" stroke="#63b8ff" points="739.71,-76.38 750.25,-75.31 741.34,-69.57 739.71,-76.38"/>
</a>
</g>
</g>
<!-- Node13&#45;&gt;Node12 -->
<g id="edge15_Node000013_Node000012" class="edge">
<title>Node13&#45;&gt;Node12</title>
<g id="a_edge15_Node000013_Node000012"><a xlink:title=" ">
<path fill="none" stroke="#63b8ff" d="M680.56,-42.36C700.38,-42.36 722.16,-42.36 742.39,-42.36"/>
<polygon fill="#63b8ff" stroke="#63b8ff" points="742.26,-45.86 752.26,-42.36 742.26,-38.86 742.26,-45.86"/>
</a>
</g>
</g>
<!-- Node15&#45;&gt;Node5 -->
<g id="edge21_Node000015_Node000005" class="edge">
<title>Node15&#45;&gt;Node5</title>
<g id="a_edge21_Node000015_Node000005"><a xlink:title=" ">
<path fill="none" stroke="#63b8ff" d="M470.02,-294.74C476.62,-292.03 483.09,-288.92 489,-285.36 508.11,-273.84 505.66,-261.49 525,-250.36 528.22,-248.51 531.58,-246.8 535.04,-245.21"/>
<polygon fill="#63b8ff" stroke="#63b8ff" points="536.35,-248.45 544.25,-241.4 533.67,-241.99 536.35,-248.45"/>
</a>
</g>
</g>
<!-- Node16 -->
<g id="Node000016" class="node">
<title>Node16</title>
<g id="a_Node000016"><a xlink:href="class_logger_manager.html#ad3276c1ba03fe7e5b98e33cd207baf1f" target="_top" xlink:title=" ">
<polygon fill="white" stroke="#666666" points="680.5,-327.61 543,-327.61 543,-297.11 680.5,-297.11 680.5,-327.61"/>
<text xml:space="preserve" text-anchor="start" x="551" y="-314.11" font-family="Helvetica,sans-Serif" font-size="10.00">LoggerManager::_generate</text>
<text xml:space="preserve" text-anchor="middle" x="611.75" y="-302.86" font-family="Helvetica,sans-Serif" font-size="10.00">LogFileNameWithSequence</text>
</a>
</g>
</g>
<!-- Node15&#45;&gt;Node16 -->
<g id="edge22_Node000015_Node000016" class="edge">
<title>Node15&#45;&gt;Node16</title>
<g id="a_edge22_Node000015_Node000016"><a xlink:title=" ">
<path fill="none" stroke="#63b8ff" d="M479.21,-311.04C496.03,-311.21 514.23,-311.39 531.57,-311.56"/>
<polygon fill="#63b8ff" stroke="#63b8ff" points="531.26,-315.06 541.3,-311.66 531.33,-308.06 531.26,-315.06"/>
</a>
</g>
</g>
<!-- Node17 -->
<g id="Node000017" class="node">
<title>Node17</title>
<g id="a_Node000017"><a xlink:href="class_logger_manager.html#ae88c89f897e9041a19ec8c68b5375034" target="_top" xlink:title=" ">
<polygon fill="white" stroke="#666666" points="691.75,-278.99 531.75,-278.99 531.75,-259.74 691.75,-259.74 691.75,-278.99"/>
<text xml:space="preserve" text-anchor="middle" x="611.75" y="-265.49" font-family="Helvetica,sans-Serif" font-size="10.00">LoggerManager::closeCurrentFile</text>
</a>
</g>
</g>
<!-- Node15&#45;&gt;Node17 -->
<g id="edge24_Node000015_Node000017" class="edge">
<title>Node15&#45;&gt;Node17</title>
<g id="a_edge24_Node000015_Node000017"><a xlink:title=" ">
<path fill="none" stroke="#63b8ff" d="M479.21,-296.48C502.34,-291.71 528.07,-286.41 550.6,-281.76"/>
<polygon fill="#63b8ff" stroke="#63b8ff" points="551.15,-285.22 560.24,-279.78 549.73,-278.37 551.15,-285.22"/>
</a>
</g>
</g>
<!-- Node16&#45;&gt;Node3 -->
<g id="edge23_Node000016_Node000003" class="edge">
<title>Node16&#45;&gt;Node3</title>
<g id="a_edge23_Node000016_Node000003"><a xlink:title=" ">
<path fill="none" stroke="#63b8ff" d="M680.64,-326.12C687.08,-329.15 693.18,-332.85 698.5,-337.36 726.7,-361.28 713.93,-381.64 734.5,-412.36 751.45,-437.67 775.01,-463.17 792.66,-480.88"/>
<polygon fill="#63b8ff" stroke="#63b8ff" points="790.14,-483.31 799.71,-487.85 795.06,-478.33 790.14,-483.31"/>
</a>
</g>
</g>
<!-- Node19 -->
<g id="Node000019" class="node">
<title>Node19</title>
<g id="a_Node000019"><a xlink:href="class_logger_manager.html#aa6938b6a5c002d6ed72ef352f0cc7a19" target="_top" xlink:title=" ">
<polygon fill="white" stroke="#666666" points="489,-416.99 332.75,-416.99 332.75,-397.74 489,-397.74 489,-416.99"/>
<text xml:space="preserve" text-anchor="middle" x="410.88" y="-403.49" font-family="Helvetica,sans-Serif" font-size="10.00">LoggerManager::_writeDataRow</text>
</a>
</g>
</g>
<!-- Node18&#45;&gt;Node19 -->
<g id="edge26_Node000018_Node000019" class="edge">
<title>Node18&#45;&gt;Node19</title>
<g id="a_edge26_Node000018_Node000019"><a xlink:title=" ">
<path fill="none" stroke="#63b8ff" d="M297.06,-407.36C304.95,-407.36 313.06,-407.36 321.14,-407.36"/>
<polygon fill="#63b8ff" stroke="#63b8ff" points="321,-410.86 331,-407.36 321,-403.86 321,-410.86"/>
</a>
</g>
</g>
<!-- Node23 -->
<g id="Node000023" class="node">
<title>Node23</title>
<g id="a_Node000023"><a xlink:href="class_logger_manager.html#a4095daee15dce39ba5f802ea5b5661a2" target="_top" xlink:title=" ">
<polygon fill="white" stroke="#666666" points="484.12,-275.99 337.62,-275.99 337.62,-256.74 484.12,-256.74 484.12,-275.99"/>
<text xml:space="preserve" text-anchor="middle" x="410.88" y="-262.49" font-family="Helvetica,sans-Serif" font-size="10.00">LoggerManager::_writeHeader</text>
</a>
</g>
</g>
<!-- Node18&#45;&gt;Node23 -->
<g id="edge31_Node000018_Node000023" class="edge">
<title>Node18&#45;&gt;Node23</title>
<g id="a_edge31_Node000018_Node000023"><a xlink:title=" ">
<path fill="none" stroke="#63b8ff" d="M283.52,-397.3C288.34,-394.91 292.85,-391.97 296.75,-388.36 332,-355.68 297.33,-318.87 332.75,-286.36 334.43,-284.82 336.22,-283.39 338.08,-282.07"/>
<polygon fill="#63b8ff" stroke="#63b8ff" points="339.81,-285.12 346.72,-277.08 336.31,-279.05 339.81,-285.12"/>
</a>
</g>
</g>
<!-- Node19&#45;&gt;Node3 -->
<g id="edge27_Node000019_Node000003" class="edge">
<title>Node19&#45;&gt;Node3</title>
<g id="a_edge27_Node000019_Node000003"><a xlink:title=" ">
<path fill="none" stroke="#63b8ff" d="M482.68,-417.44C541.14,-426.54 625.97,-441.53 698.5,-461.36 721.73,-467.71 746.89,-476.53 768.05,-484.53"/>
<polygon fill="#63b8ff" stroke="#63b8ff" points="766.71,-487.76 777.3,-488.08 769.22,-481.23 766.71,-487.76"/>
</a>
</g>
</g>
<!-- Node20 -->
<g id="Node000020" class="node">
<title>Node20</title>
<g id="a_Node000020"><a xlink:href="class_logger_manager.html#a4f31651f8963f741bfbdb944164ffc15" target="_top" xlink:title=" ">
<polygon fill="white" stroke="#666666" points="681.62,-500.61 541.88,-500.61 541.88,-470.11 681.62,-470.11 681.62,-500.61"/>
<text xml:space="preserve" text-anchor="start" x="549.88" y="-487.11" font-family="Helvetica,sans-Serif" font-size="10.00">LoggerManager::_getCurrent</text>
<text xml:space="preserve" text-anchor="middle" x="611.75" y="-475.86" font-family="Helvetica,sans-Serif" font-size="10.00">TimeString</text>
</a>
</g>
</g>
<!-- Node19&#45;&gt;Node20 -->
<g id="edge28_Node000019_Node000020" class="edge">
<title>Node19&#45;&gt;Node20</title>
<g id="a_edge28_Node000019_Node000020"><a xlink:title=" ">
<path fill="none" stroke="#63b8ff" d="M433.76,-417.48C456.39,-427.79 492.84,-443.98 525,-456.36 533.45,-459.61 542.43,-462.87 551.29,-465.96"/>
<polygon fill="#63b8ff" stroke="#63b8ff" points="549.95,-469.2 560.54,-469.15 552.23,-462.59 549.95,-469.2"/>
</a>
</g>
</g>
<!-- Node21 -->
<g id="Node000021" class="node">
<title>Node21</title>
<g id="a_Node000021"><a xlink:href="class_measurement_point.html#a81c7ae93a9314344967d0f31c6fefe2f" target="_top" xlink:title=" ">
<polygon fill="white" stroke="#666666" points="684.25,-376.61 539.25,-376.61 539.25,-346.11 684.25,-346.11 684.25,-376.61"/>
<text xml:space="preserve" text-anchor="start" x="547.25" y="-363.11" font-family="Helvetica,sans-Serif" font-size="10.00">MeasurementPoint::getBound</text>
<text xml:space="preserve" text-anchor="middle" x="611.75" y="-351.86" font-family="Helvetica,sans-Serif" font-size="10.00">Sensor</text>
</a>
</g>
</g>
<!-- Node19&#45;&gt;Node21 -->
<g id="edge29_Node000019_Node000021" class="edge">
<title>Node19&#45;&gt;Node21</title>
<g id="a_edge29_Node000019_Node000021"><a xlink:title=" ">
<path fill="none" stroke="#63b8ff" d="M455.52,-397.27C477.93,-392.08 505.93,-385.61 531.96,-379.59"/>
<polygon fill="#63b8ff" stroke="#63b8ff" points="532.54,-383.04 541.49,-377.38 530.96,-376.22 532.54,-383.04"/>
</a>
</g>
</g>
<!-- Node22 -->
<g id="Node000022" class="node">
<title>Node22</title>
<g id="a_Node000022"><a xlink:href="class_measurement_point.html#aceaf14fde40bcd5331e5ea6a07d7dde8" target="_top" xlink:title=" ">
<polygon fill="white" stroke="#666666" points="698.5,-413.99 525,-413.99 525,-394.74 698.5,-394.74 698.5,-413.99"/>
<text xml:space="preserve" text-anchor="middle" x="611.75" y="-400.49" font-family="Helvetica,sans-Serif" font-size="10.00">MeasurementPoint::getCurrentTemp</text>
</a>
</g>
</g>
<!-- Node19&#45;&gt;Node22 -->
<g id="edge30_Node000019_Node000022" class="edge">
<title>Node19&#45;&gt;Node22</title>
<g id="a_edge30_Node000019_Node000022"><a xlink:title=" ">
<path fill="none" stroke="#63b8ff" d="M489.33,-406.19C497.19,-406.07 505.24,-405.95 513.28,-405.83"/>
<polygon fill="#63b8ff" stroke="#63b8ff" points="513.14,-409.33 523.09,-405.68 513.04,-402.33 513.14,-409.33"/>
</a>
</g>
</g>
<!-- Node23&#45;&gt;Node5 -->
<g id="edge32_Node000023_Node000005" class="edge">
<title>Node23&#45;&gt;Node5</title>
<g id="a_edge32_Node000023_Node000005"><a xlink:title=" ">
<path fill="none" stroke="#63b8ff" d="M462.06,-256.27C484.01,-251.85 510.25,-246.57 534.53,-241.69"/>
<polygon fill="#63b8ff" stroke="#63b8ff" points="534.93,-245.18 544.04,-239.78 533.55,-238.32 534.93,-245.18"/>
</a>
</g>
</g>
<!-- Node25 -->
<g id="Node000025" class="node">
<title>Node25</title>
<g id="a_Node000025"><a xlink:href="class_logger_manager.html#a0df2f2c96123da1989d0aaf6a4dc1615" target="_top" xlink:title=" ">
<polygon fill="white" stroke="#666666" points="474.38,-537.99 347.38,-537.99 347.38,-518.74 474.38,-518.74 474.38,-537.99"/>
<text xml:space="preserve" text-anchor="middle" x="410.88" y="-524.49" font-family="Helvetica,sans-Serif" font-size="10.00">LoggerManager::logEvent</text>
</a>
</g>
</g>
<!-- Node24&#45;&gt;Node25 -->
<g id="edge34_Node000024_Node000025" class="edge">
<title>Node24&#45;&gt;Node25</title>
<g id="a_edge34_Node000024_Node000025"><a xlink:title=" ">
<path fill="none" stroke="#63b8ff" d="M269.4,-495.44C295.19,-501.49 328.21,-509.22 355.76,-515.68"/>
<polygon fill="#63b8ff" stroke="#63b8ff" points="354.8,-519.05 365.33,-517.92 356.39,-512.23 354.8,-519.05"/>
</a>
</g>
</g>
<!-- Node25&#45;&gt;Node2 -->
<g id="edge37_Node000025_Node000002" class="edge">
<title>Node25&#45;&gt;Node2</title>
<g id="a_edge37_Node000025_Node000002"><a xlink:title=" ">
<path fill="none" stroke="#63b8ff" d="M432.03,-538.41C454.44,-549.39 491.86,-567.18 525,-580.36 533.21,-583.63 541.96,-586.86 550.6,-589.91"/>
<polygon fill="#63b8ff" stroke="#63b8ff" points="549.43,-593.21 560.02,-593.18 551.72,-586.6 549.43,-593.21"/>
</a>
</g>
</g>
<!-- Node25&#45;&gt;Node3 -->
<g id="edge38_Node000025_Node000003" class="edge">
<title>Node25&#45;&gt;Node3</title>
<g id="a_edge38_Node000025_Node000003"><a xlink:title=" ">
<path fill="none" stroke="#63b8ff" d="M459.67,-538.45C516.87,-548.94 615.36,-561.95 698.5,-547.36 724.11,-542.87 751.48,-533.31 773.48,-524.34"/>
<polygon fill="#63b8ff" stroke="#63b8ff" points="774.55,-527.69 782.42,-520.6 771.84,-521.23 774.55,-527.69"/>
</a>
</g>
</g>
<!-- Node25&#45;&gt;Node20 -->
<g id="edge39_Node000025_Node000020" class="edge">
<title>Node25&#45;&gt;Node20</title>
<g id="a_edge39_Node000025_Node000020"><a xlink:title=" ">
<path fill="none" stroke="#63b8ff" d="M458.5,-518.28C479.91,-513.65 505.91,-508.03 530.33,-502.75"/>
<polygon fill="#63b8ff" stroke="#63b8ff" points="530.9,-506.21 539.93,-500.67 529.42,-499.37 530.9,-506.21"/>
</a>
</g>
</g>
<!-- Node26 -->
<g id="Node000026" class="node">
<title>Node26</title>
<g id="a_Node000026"><a xlink:href="class_logger_manager.html#a4f7591a3b5cb024b7354005b4362e049" target="_top" xlink:title=" ">
<polygon fill="white" stroke="#666666" points="686.12,-710.61 537.38,-710.61 537.38,-680.11 686.12,-680.11 686.12,-710.61"/>
<text xml:space="preserve" text-anchor="start" x="545.38" y="-697.11" font-family="Helvetica,sans-Serif" font-size="10.00">LoggerManager::_ensureEvent</text>
<text xml:space="preserve" text-anchor="middle" x="611.75" y="-685.86" font-family="Helvetica,sans-Serif" font-size="10.00">LogExists</text>
</a>
</g>
</g>
<!-- Node25&#45;&gt;Node26 -->
<g id="edge35_Node000025_Node000026" class="edge">
<title>Node25&#45;&gt;Node26</title>
<g id="a_edge35_Node000025_Node000026"><a xlink:title=" ">
<path fill="none" stroke="#63b8ff" d="M421.79,-538.35C441.02,-557.54 485.02,-600.56 525,-633.36 542.1,-647.39 562.07,-661.93 578.44,-673.4"/>
<polygon fill="#63b8ff" stroke="#63b8ff" points="576.16,-676.08 586.37,-678.91 580.16,-670.33 576.16,-676.08"/>
</a>
</g>
</g>
<!-- Node28 -->
<g id="Node000028" class="node">
<title>Node28</title>
<g id="a_Node000028"><a xlink:href="class_logger_manager.html#a472884ce9e2aed6a1570187dd37cc006" target="_top" xlink:title=" ">
<polygon fill="white" stroke="#666666" points="692.12,-537.99 531.38,-537.99 531.38,-518.74 692.12,-518.74 692.12,-537.99"/>
<text xml:space="preserve" text-anchor="middle" x="611.75" y="-524.49" font-family="Helvetica,sans-Serif" font-size="10.00">LoggerManager::_writeEventRow</text>
</a>
</g>
</g>
<!-- Node25&#45;&gt;Node28 -->
<g id="edge40_Node000025_Node000028" class="edge">
<title>Node25&#45;&gt;Node28</title>
<g id="a_edge40_Node000025_Node000028"><a xlink:title=" ">
<path fill="none" stroke="#63b8ff" d="M474.8,-528.36C489.04,-528.36 504.43,-528.36 519.57,-528.36"/>
<polygon fill="#63b8ff" stroke="#63b8ff" points="519.56,-531.86 529.56,-528.36 519.56,-524.86 519.56,-531.86"/>
</a>
</g>
</g>
<!-- Node27 -->
<g id="Node000027" class="node">
<title>Node27</title>
<g id="a_Node000027"><a xlink:href="class_logger_manager.html#a515beeaa428acafce139d79b41fe9d0a" target="_top" xlink:title=" ">
<polygon fill="white" stroke="#666666" points="888.5,-710.61 748,-710.61 748,-680.11 888.5,-680.11 888.5,-710.61"/>
<text xml:space="preserve" text-anchor="start" x="756" y="-697.11" font-family="Helvetica,sans-Serif" font-size="10.00">LoggerManager::_writeEvent</text>
<text xml:space="preserve" text-anchor="middle" x="818.25" y="-685.86" font-family="Helvetica,sans-Serif" font-size="10.00">Header</text>
</a>
</g>
</g>
<!-- Node26&#45;&gt;Node27 -->
<g id="edge36_Node000026_Node000027" class="edge">
<title>Node26&#45;&gt;Node27</title>
<g id="a_edge36_Node000026_Node000027"><a xlink:title=" ">
<path fill="none" stroke="#63b8ff" d="M686.58,-695.36C702.75,-695.36 719.96,-695.36 736.39,-695.36"/>
<polygon fill="#63b8ff" stroke="#63b8ff" points="736.11,-698.86 746.11,-695.36 736.11,-691.86 736.11,-698.86"/>
</a>
</g>
</g>
<!-- Node28&#45;&gt;Node6 -->
<g id="edge41_Node000028_Node000006" class="edge">
<title>Node28&#45;&gt;Node6</title>
<g id="a_edge41_Node000028_Node000006"><a xlink:title=" ">
<path fill="none" stroke="#63b8ff" d="M676.94,-518.3C684.44,-515.92 691.79,-512.99 698.5,-509.36 722.06,-496.62 774.01,-441.22 800.71,-411.83"/>
<polygon fill="#63b8ff" stroke="#63b8ff" points="803.3,-414.18 807.4,-404.41 798.1,-409.49 803.3,-414.18"/>
</a>
</g>
</g>
<!-- Node29&#45;&gt;Node25 -->
<g id="edge43_Node000029_Node000025" class="edge">
<title>Node29&#45;&gt;Node25</title>
<g id="a_edge43_Node000029_Node000025"><a xlink:title=" ">
<path fill="none" stroke="#63b8ff" d="M294.18,-527.73C307.66,-527.8 321.88,-527.88 335.57,-527.96"/>
<polygon fill="#63b8ff" stroke="#63b8ff" points="335.37,-531.45 345.39,-528.01 335.41,-524.45 335.37,-531.45"/>
</a>
</g>
</g>
</g>
</svg>
