<?xml version="1.0" encoding="UTF-8" standalone="no"?>
<!DOCTYPE svg PUBLIC "-//W3C//DTD SVG 1.1//EN"
 "http://www.w3.org/Graphics/SVG/1.1/DTD/svg11.dtd">
<!-- Generated by graphviz version 13.1.0 (20250701.0955)
 -->
<!-- Title: LoggerManager::forceNewFile Pages: 1 -->
<svg width="727pt" height="153pt"
 viewBox="0.00 0.00 727.00 153.00" xmlns="http://www.w3.org/2000/svg" xmlns:xlink="http://www.w3.org/1999/xlink">
<g id="graph0" class="graph" transform="scale(1 1) rotate(0) translate(4 149.25)">
<title>LoggerManager::forceNewFile</title>
<!-- Node1 -->
<g id="Node000001" class="node">
<title>Node1</title>
<g id="a_Node000001"><a xlink:title=" ">
<polygon fill="#999999" stroke="#666666" points="146.5,-86.25 0,-86.25 0,-67 146.5,-67 146.5,-86.25"/>
<text xml:space="preserve" text-anchor="middle" x="73.25" y="-72.75" font-family="Helvetica,sans-Serif" font-size="10.00">LoggerManager::forceNewFile</text>
</a>
</g>
</g>
<!-- Node2 -->
<g id="Node000002" class="node">
<title>Node2</title>
<g id="a_Node000002"><a xlink:href="class_logger_manager.html#abb3a1d7dfa336be59051e566de3fce9d" target="_top" xlink:title=" ">
<polygon fill="white" stroke="#666666" points="319.25,-116.88 182.5,-116.88 182.5,-86.38 319.25,-86.38 319.25,-116.88"/>
<text xml:space="preserve" text-anchor="start" x="190.5" y="-103.38" font-family="Helvetica,sans-Serif" font-size="10.00">LoggerManager::_increment</text>
<text xml:space="preserve" text-anchor="middle" x="250.88" y="-92.12" font-family="Helvetica,sans-Serif" font-size="10.00">SequenceNumber</text>
</a>
</g>
</g>
<!-- Node1&#45;&gt;Node2 -->
<g id="edge1_Node000001_Node000002" class="edge">
<title>Node1&#45;&gt;Node2</title>
<g id="a_edge1_Node000001_Node000002"><a xlink:title=" ">
<path fill="none" stroke="#63b8ff" d="M145.18,-86.72C153.65,-87.93 162.34,-89.16 170.92,-90.39"/>
<polygon fill="#63b8ff" stroke="#63b8ff" points="170.21,-93.82 180.6,-91.76 171.19,-86.89 170.21,-93.82"/>
</a>
</g>
</g>
<!-- Node3 -->
<g id="Node000003" class="node">
<title>Node3</title>
<g id="a_Node000003"><a xlink:href="class_logger_manager.html#a445856fb9bb37bd5e61d5242d8996c1f" target="_top" xlink:title=" ">
<polygon fill="white" stroke="#666666" points="318.88,-67.88 182.88,-67.88 182.88,-37.38 318.88,-37.38 318.88,-67.88"/>
<text xml:space="preserve" text-anchor="start" x="190.88" y="-54.38" font-family="Helvetica,sans-Serif" font-size="10.00">LoggerManager::createNew</text>
<text xml:space="preserve" text-anchor="middle" x="250.88" y="-43.12" font-family="Helvetica,sans-Serif" font-size="10.00">LogFile</text>
</a>
</g>
</g>
<!-- Node1&#45;&gt;Node3 -->
<g id="edge2_Node000001_Node000003" class="edge">
<title>Node1&#45;&gt;Node3</title>
<g id="a_edge2_Node000001_Node000003"><a xlink:title=" ">
<path fill="none" stroke="#63b8ff" d="M146.95,-66.69C154.97,-65.59 163.16,-64.48 171.25,-63.37"/>
<polygon fill="#63b8ff" stroke="#63b8ff" points="171.64,-66.85 181.08,-62.03 170.7,-59.91 171.64,-66.85"/>
</a>
</g>
</g>
<!-- Node4 -->
<g id="Node000004" class="node">
<title>Node4</title>
<g id="a_Node000004"><a xlink:href="class_logger_manager.html#aab43f573f73cfe426cfbea04a9fdd3ee" target="_top" xlink:title=" ">
<polygon fill="white" stroke="#666666" points="501,-116.88 369.5,-116.88 369.5,-86.38 501,-86.38 501,-116.88"/>
<text xml:space="preserve" text-anchor="start" x="377.5" y="-103.38" font-family="Helvetica,sans-Serif" font-size="10.00">LoggerManager::_generate</text>
<text xml:space="preserve" text-anchor="middle" x="435.25" y="-92.12" font-family="Helvetica,sans-Serif" font-size="10.00">CSVHeader</text>
</a>
</g>
</g>
<!-- Node3&#45;&gt;Node4 -->
<g id="edge3_Node000003_Node000004" class="edge">
<title>Node3&#45;&gt;Node4</title>
<g id="a_edge3_Node000003_Node000004"><a xlink:title=" ">
<path fill="none" stroke="#63b8ff" d="M310.33,-68.33C327.67,-72.99 346.84,-78.14 364.81,-82.97"/>
<polygon fill="#63b8ff" stroke="#63b8ff" points="363.78,-86.32 374.35,-85.53 365.6,-79.56 363.78,-86.32"/>
</a>
</g>
</g>
<!-- Node7 -->
<g id="Node000007" class="node">
<title>Node7</title>
<g id="a_Node000007"><a xlink:href="class_logger_manager.html#ad3276c1ba03fe7e5b98e33cd207baf1f" target="_top" xlink:title=" ">
<polygon fill="white" stroke="#666666" points="504,-67.88 366.5,-67.88 366.5,-37.38 504,-37.38 504,-67.88"/>
<text xml:space="preserve" text-anchor="start" x="374.5" y="-54.38" font-family="Helvetica,sans-Serif" font-size="10.00">LoggerManager::_generate</text>
<text xml:space="preserve" text-anchor="middle" x="435.25" y="-43.12" font-family="Helvetica,sans-Serif" font-size="10.00">LogFileNameWithSequence</text>
</a>
</g>
</g>
<!-- Node3&#45;&gt;Node7 -->
<g id="edge6_Node000003_Node000007" class="edge">
<title>Node3&#45;&gt;Node7</title>
<g id="a_edge6_Node000003_Node000007"><a xlink:title=" ">
<path fill="none" stroke="#63b8ff" d="M319.27,-52.62C330.88,-52.62 343.04,-52.62 354.93,-52.62"/>
<polygon fill="#63b8ff" stroke="#63b8ff" points="354.71,-56.13 364.71,-52.63 354.71,-49.13 354.71,-56.13"/>
</a>
</g>
</g>
<!-- Node9 -->
<g id="Node000009" class="node">
<title>Node9</title>
<g id="a_Node000009"><a xlink:href="class_logger_manager.html#ae88c89f897e9041a19ec8c68b5375034" target="_top" xlink:title=" ">
<polygon fill="white" stroke="#666666" points="515.25,-19.25 355.25,-19.25 355.25,0 515.25,0 515.25,-19.25"/>
<text xml:space="preserve" text-anchor="middle" x="435.25" y="-5.75" font-family="Helvetica,sans-Serif" font-size="10.00">LoggerManager::closeCurrentFile</text>
</a>
</g>
</g>
<!-- Node3&#45;&gt;Node9 -->
<g id="edge8_Node000003_Node000009" class="edge">
<title>Node3&#45;&gt;Node9</title>
<g id="a_edge8_Node000003_Node000009"><a xlink:title=" ">
<path fill="none" stroke="#63b8ff" d="M318.49,-36.92C338.82,-32.13 360.91,-26.92 380.29,-22.35"/>
<polygon fill="#63b8ff" stroke="#63b8ff" points="380.95,-25.79 389.88,-20.09 379.35,-18.97 380.95,-25.79"/>
</a>
</g>
</g>
<!-- Node5 -->
<g id="Node000005" class="node">
<title>Node5</title>
<g id="a_Node000005"><a xlink:href="class_logger_manager.html#a57d230cd2896120a32ecf55a14895d55" target="_top" xlink:title=" ">
<polygon fill="white" stroke="#666666" points="718.75,-145.25 551.25,-145.25 551.25,-126 718.75,-126 718.75,-145.25"/>
<text xml:space="preserve" text-anchor="middle" x="635" y="-131.75" font-family="Helvetica,sans-Serif" font-size="10.00">LoggerManager::_escapeCSVField</text>
</a>
</g>
</g>
<!-- Node4&#45;&gt;Node5 -->
<g id="edge4_Node000004_Node000005" class="edge">
<title>Node4&#45;&gt;Node5</title>
<g id="a_edge4_Node000004_Node000005"><a xlink:title=" ">
<path fill="none" stroke="#63b8ff" d="M501.27,-112.8C521.41,-116.27 543.68,-120.1 564.13,-123.61"/>
<polygon fill="#63b8ff" stroke="#63b8ff" points="563.34,-127.03 573.79,-125.27 564.52,-120.13 563.34,-127.03"/>
</a>
</g>
</g>
<!-- Node6 -->
<g id="Node000006" class="node">
<title>Node6</title>
<g id="a_Node000006"><a xlink:href="class_measurement_point.html#aa3a80d373c7609c7b178bf7353ffdd7a" target="_top" xlink:title="Get measurement point name.">
<polygon fill="white" stroke="#666666" points="706.75,-108.25 563.25,-108.25 563.25,-89 706.75,-89 706.75,-108.25"/>
<text xml:space="preserve" text-anchor="middle" x="635" y="-94.75" font-family="Helvetica,sans-Serif" font-size="10.00">MeasurementPoint::getName</text>
</a>
</g>
</g>
<!-- Node4&#45;&gt;Node6 -->
<g id="edge5_Node000004_Node000006" class="edge">
<title>Node4&#45;&gt;Node6</title>
<g id="a_edge5_Node000004_Node000006"><a xlink:title=" ">
<path fill="none" stroke="#63b8ff" d="M501.27,-100.64C517.28,-100.4 534.63,-100.13 551.35,-99.88"/>
<polygon fill="#63b8ff" stroke="#63b8ff" points="551.34,-103.38 561.28,-99.73 551.23,-96.38 551.34,-103.38"/>
</a>
</g>
</g>
<!-- Node8 -->
<g id="Node000008" class="node">
<title>Node8</title>
<g id="a_Node000008"><a xlink:href="class_logger_manager.html#a3ca0b934265a4d9ce6391bf97dec179a" target="_top" xlink:title=" ">
<polygon fill="white" stroke="#666666" points="704.88,-67.88 565.12,-67.88 565.12,-37.38 704.88,-37.38 704.88,-67.88"/>
<text xml:space="preserve" text-anchor="start" x="573.12" y="-54.38" font-family="Helvetica,sans-Serif" font-size="10.00">LoggerManager::_getCurrent</text>
<text xml:space="preserve" text-anchor="middle" x="635" y="-43.12" font-family="Helvetica,sans-Serif" font-size="10.00">DateString</text>
</a>
</g>
</g>
<!-- Node7&#45;&gt;Node8 -->
<g id="edge7_Node000007_Node000008" class="edge">
<title>Node7&#45;&gt;Node8</title>
<g id="a_edge7_Node000007_Node000008"><a xlink:title=" ">
<path fill="none" stroke="#63b8ff" d="M504.3,-52.62C520.19,-52.62 537.25,-52.62 553.62,-52.62"/>
<polygon fill="#63b8ff" stroke="#63b8ff" points="553.3,-56.13 563.3,-52.63 553.3,-49.13 553.3,-56.13"/>
</a>
</g>
</g>
</g>
</svg>
