<?xml version="1.0" encoding="UTF-8" standalone="no"?>
<!DOCTYPE svg PUBLIC "-//W3C//DTD SVG 1.1//EN"
 "http://www.w3.org/Graphics/SVG/1.1/DTD/svg11.dtd">
<!-- Generated by graphviz version 13.1.0 (20250701.0955)
 -->
<!-- Title: TemperatureController::_switchToSection Pages: 1 -->
<svg width="905pt" height="120pt"
 viewBox="0.00 0.00 905.00 120.00" xmlns="http://www.w3.org/2000/svg" xmlns:xlink="http://www.w3.org/1999/xlink">
<g id="graph0" class="graph" transform="scale(1 1) rotate(0) translate(4 115.5)">
<title>TemperatureController::_switchToSection</title>
<!-- Node1 -->
<g id="Node000001" class="node">
<title>Node1</title>
<g id="a_Node000001"><a xlink:title="Switch to a new display section.">
<polygon fill="#999999" stroke="#666666" points="897,-73.5 785,-73.5 785,-43 897,-43 897,-73.5"/>
<text xml:space="preserve" text-anchor="start" x="793" y="-60" font-family="Helvetica,sans-Serif" font-size="10.00">TemperatureController</text>
<text xml:space="preserve" text-anchor="middle" x="841" y="-48.75" font-family="Helvetica,sans-Serif" font-size="10.00">::_switchToSection</text>
</a>
</g>
</g>
<!-- Node2 -->
<g id="Node000002" class="node">
<title>Node2</title>
<g id="a_Node000002"><a xlink:href="class_temperature_controller.html#a1228b63e95f26c21a8d9c2a27928bc75" target="_top" xlink:title="Check for button press and handle acknowledgment.">
<polygon fill="white" stroke="#666666" points="563.5,-111.5 451.5,-111.5 451.5,-81 563.5,-81 563.5,-111.5"/>
<text xml:space="preserve" text-anchor="start" x="459.5" y="-98" font-family="Helvetica,sans-Serif" font-size="10.00">TemperatureController</text>
<text xml:space="preserve" text-anchor="middle" x="507.5" y="-86.75" font-family="Helvetica,sans-Serif" font-size="10.00">::_checkButtonPress</text>
</a>
</g>
</g>
<!-- Node1&#45;&gt;Node2 -->
<g id="edge1_Node000001_Node000002" class="edge">
<title>Node1&#45;&gt;Node2</title>
<g id="a_edge1_Node000001_Node000002"><a xlink:title=" ">
<path fill="none" stroke="#63b8ff" d="M773.38,-65.89C711.86,-72.94 621.55,-83.29 563.89,-89.9"/>
<polygon fill="#63b8ff" stroke="#63b8ff" points="773.47,-69.4 783.01,-64.78 772.68,-62.44 773.47,-69.4"/>
</a>
</g>
</g>
<!-- Node6 -->
<g id="Node000006" class="node">
<title>Node6</title>
<g id="a_Node000006"><a xlink:href="class_temperature_controller.html#a6b2f92b5c2af867240200cff2e61e806" target="_top" xlink:title="Handle display section switching.">
<polygon fill="white" stroke="#666666" points="571,-62.5 444,-62.5 444,-32 571,-32 571,-62.5"/>
<text xml:space="preserve" text-anchor="start" x="452" y="-49" font-family="Helvetica,sans-Serif" font-size="10.00">TemperatureController</text>
<text xml:space="preserve" text-anchor="middle" x="507.5" y="-37.75" font-family="Helvetica,sans-Serif" font-size="10.00">::_handleDisplaySections</text>
</a>
</g>
</g>
<!-- Node1&#45;&gt;Node6 -->
<g id="edge7_Node000001_Node000006" class="edge">
<title>Node1&#45;&gt;Node6</title>
<g id="a_edge7_Node000001_Node000006"><a xlink:title=" ">
<path fill="none" stroke="#63b8ff" d="M773.09,-56.03C714.14,-54.07 628.91,-51.25 571.24,-49.33"/>
<polygon fill="#63b8ff" stroke="#63b8ff" points="772.89,-59.52 783,-56.36 773.12,-52.53 772.89,-59.52"/>
</a>
</g>
</g>
<!-- Node7 -->
<g id="Node000007" class="node">
<title>Node7</title>
<g id="a_Node000007"><a xlink:href="class_temperature_controller.html#a45f7994a3a052a527981dbfdad27606b" target="_top" xlink:title="Handle system status mode display.">
<polygon fill="white" stroke="#666666" points="749,-30.5 607,-30.5 607,0 749,0 749,-30.5"/>
<text xml:space="preserve" text-anchor="start" x="615" y="-17" font-family="Helvetica,sans-Serif" font-size="10.00">TemperatureController</text>
<text xml:space="preserve" text-anchor="middle" x="678" y="-5.75" font-family="Helvetica,sans-Serif" font-size="10.00">::_handleSystemStatusMode</text>
</a>
</g>
</g>
<!-- Node1&#45;&gt;Node7 -->
<g id="edge9_Node000001_Node000007" class="edge">
<title>Node1&#45;&gt;Node7</title>
<g id="a_edge9_Node000001_Node000007"><a xlink:title=" ">
<path fill="none" stroke="#63b8ff" d="M773.79,-40.57C761.86,-37.38 749.5,-34.08 737.8,-30.96"/>
<polygon fill="#63b8ff" stroke="#63b8ff" points="772.57,-43.86 783.13,-43.06 774.37,-37.1 772.57,-43.86"/>
</a>
</g>
</g>
<!-- Node3 -->
<g id="Node000003" class="node">
<title>Node3</title>
<g id="a_Node000003"><a xlink:href="class_temperature_controller.html#a5637103784725fb1a73f6463d7cbfde6" target="_top" xlink:title="Handle alarm display on OLED/LEDs.">
<polygon fill="white" stroke="#666666" points="408,-68.5 296,-68.5 296,-38 408,-38 408,-68.5"/>
<text xml:space="preserve" text-anchor="start" x="304" y="-55" font-family="Helvetica,sans-Serif" font-size="10.00">TemperatureController</text>
<text xml:space="preserve" text-anchor="middle" x="352" y="-43.75" font-family="Helvetica,sans-Serif" font-size="10.00">::handleAlarmDisplay</text>
</a>
</g>
</g>
<!-- Node2&#45;&gt;Node3 -->
<g id="edge2_Node000002_Node000003" class="edge">
<title>Node2&#45;&gt;Node3</title>
<g id="a_edge2_Node000002_Node000003"><a xlink:title=" ">
<path fill="none" stroke="#63b8ff" d="M440.16,-77.66C429.54,-74.69 418.66,-71.64 408.34,-68.75"/>
<polygon fill="#63b8ff" stroke="#63b8ff" points="439.05,-80.99 449.63,-80.32 440.94,-74.25 439.05,-80.99"/>
</a>
</g>
</g>
<!-- Node4 -->
<g id="Node000004" class="node">
<title>Node4</title>
<g id="a_Node000004"><a xlink:href="class_temperature_controller.html#aca5deddbf703001373424d876f87b5f2" target="_top" xlink:title="Main update function &#45; must be called in loop()">
<polygon fill="white" stroke="#666666" points="260,-89.5 148,-89.5 148,-59 260,-59 260,-89.5"/>
<text xml:space="preserve" text-anchor="start" x="156" y="-76" font-family="Helvetica,sans-Serif" font-size="10.00">TemperatureController</text>
<text xml:space="preserve" text-anchor="middle" x="204" y="-64.75" font-family="Helvetica,sans-Serif" font-size="10.00">::update</text>
</a>
</g>
</g>
<!-- Node2&#45;&gt;Node4 -->
<g id="edge6_Node000002_Node000004" class="edge">
<title>Node2&#45;&gt;Node4</title>
<g id="a_edge6_Node000002_Node000004"><a xlink:title=" ">
<path fill="none" stroke="#63b8ff" d="M440.04,-91.4C386.17,-87.47 311.14,-81.99 260.46,-78.3"/>
<polygon fill="#63b8ff" stroke="#63b8ff" points="439.46,-94.87 449.69,-92.1 439.97,-87.89 439.46,-94.87"/>
</a>
</g>
</g>
<!-- Node3&#45;&gt;Node4 -->
<g id="edge3_Node000003_Node000004" class="edge">
<title>Node3&#45;&gt;Node4</title>
<g id="a_edge3_Node000003_Node000004"><a xlink:title=" ">
<path fill="none" stroke="#63b8ff" d="M284.47,-62.82C276.38,-63.98 268.18,-65.16 260.27,-66.3"/>
<polygon fill="#63b8ff" stroke="#63b8ff" points="284.91,-66.29 294.31,-61.4 283.91,-59.36 284.91,-66.29"/>
</a>
</g>
</g>
<!-- Node5 -->
<g id="Node000005" class="node">
<title>Node5</title>
<g id="a_Node000005"><a xlink:href="class_temperature_controller.html#a11948a87fe7df37543b86ecdd488b341" target="_top" xlink:title="Read temperature from all configured measurement points.">
<polygon fill="white" stroke="#666666" points="112,-89.5 0,-89.5 0,-59 112,-59 112,-89.5"/>
<text xml:space="preserve" text-anchor="start" x="8" y="-76" font-family="Helvetica,sans-Serif" font-size="10.00">TemperatureController</text>
<text xml:space="preserve" text-anchor="middle" x="56" y="-64.75" font-family="Helvetica,sans-Serif" font-size="10.00">::readAllPoints</text>
</a>
</g>
</g>
<!-- Node4&#45;&gt;Node5 -->
<g id="edge4_Node000004_Node000005" class="edge">
<title>Node4&#45;&gt;Node5</title>
<g id="a_edge4_Node000004_Node000005"><a xlink:title=" ">
<path fill="none" stroke="#63b8ff" d="M136.47,-67.52C128.38,-67.46 120.18,-67.52 112.27,-67.68"/>
<polygon fill="#63b8ff" stroke="#63b8ff" points="136.24,-71.02 146.29,-67.66 136.34,-64.02 136.24,-71.02"/>
</a>
</g>
</g>
<!-- Node5&#45;&gt;Node4 -->
<g id="edge5_Node000005_Node000004" class="edge">
<title>Node5&#45;&gt;Node4</title>
<g id="a_edge5_Node000005_Node000004"><a xlink:title=" ">
<path fill="none" stroke="#63b8ff" d="M123.61,-80.98C131.7,-81.04 139.9,-80.98 147.8,-80.82"/>
<polygon fill="#63b8ff" stroke="#63b8ff" points="123.84,-77.48 113.79,-80.84 123.74,-84.48 123.84,-77.48"/>
</a>
</g>
</g>
<!-- Node6&#45;&gt;Node3 -->
<g id="edge8_Node000006_Node000003" class="edge">
<title>Node6&#45;&gt;Node3</title>
<g id="a_edge8_Node000006_Node000003"><a xlink:title=" ">
<path fill="none" stroke="#63b8ff" d="M432.22,-50.15C424.12,-50.47 415.98,-50.79 408.16,-51.09"/>
<polygon fill="#63b8ff" stroke="#63b8ff" points="432.25,-53.65 442.11,-49.77 431.98,-46.66 432.25,-53.65"/>
</a>
</g>
</g>
<!-- Node7&#45;&gt;Node6 -->
<g id="edge10_Node000007_Node000006" class="edge">
<title>Node7&#45;&gt;Node6</title>
<g id="a_edge10_Node000007_Node000006"><a xlink:title=" ">
<path fill="none" stroke="#63b8ff" d="M595.26,-30.77C587.26,-32.29 579.23,-33.82 571.46,-35.29"/>
<polygon fill="#63b8ff" stroke="#63b8ff" points="595.86,-34.22 605.03,-28.92 594.55,-27.35 595.86,-34.22"/>
</a>
</g>
</g>
</g>
</svg>
