<?xml version="1.0" encoding="UTF-8" standalone="no"?>
<!DOCTYPE svg PUBLIC "-//W3C//DTD SVG 1.1//EN"
 "http://www.w3.org/Graphics/SVG/1.1/DTD/svg11.dtd">
<!-- Generated by graphviz version 13.1.0 (20250701.0955)
 -->
<!-- Title: TemperatureController::update Pages: 1 -->
<svg width="807pt" height="481pt"
 viewBox="0.00 0.00 807.00 481.00" xmlns="http://www.w3.org/2000/svg" xmlns:xlink="http://www.w3.org/1999/xlink">
<g id="graph0" class="graph" transform="scale(1 1) rotate(0) translate(4 476.88)">
<title>TemperatureController::update</title>
<!-- Node1 -->
<g id="Node000001" class="node">
<title>Node1</title>
<g id="a_Node000001"><a xlink:title=" ">
<polygon fill="#999999" stroke="#666666" points="112,-220.88 0,-220.88 0,-190.38 112,-190.38 112,-220.88"/>
<text xml:space="preserve" text-anchor="start" x="8" y="-207.38" font-family="Helvetica,sans-Serif" font-size="10.00">TemperatureController</text>
<text xml:space="preserve" text-anchor="middle" x="56" y="-196.12" font-family="Helvetica,sans-Serif" font-size="10.00">::update</text>
</a>
</g>
</g>
<!-- Node2 -->
<g id="Node000002" class="node">
<title>Node2</title>
<g id="a_Node000002"><a xlink:href="class_temperature_controller.html#a1228b63e95f26c21a8d9c2a27928bc75" target="_top" xlink:title=" ">
<polygon fill="white" stroke="#666666" points="427.5,-421.88 315.5,-421.88 315.5,-391.38 427.5,-391.38 427.5,-421.88"/>
<text xml:space="preserve" text-anchor="start" x="323.5" y="-408.38" font-family="Helvetica,sans-Serif" font-size="10.00">TemperatureController</text>
<text xml:space="preserve" text-anchor="middle" x="371.5" y="-397.12" font-family="Helvetica,sans-Serif" font-size="10.00">::_checkButtonPress</text>
</a>
</g>
</g>
<!-- Node1&#45;&gt;Node2 -->
<g id="edge1_Node000001_Node000002" class="edge">
<title>Node1&#45;&gt;Node2</title>
<g id="a_edge1_Node000001_Node000002"><a xlink:title=" ">
<path fill="none" stroke="#63b8ff" d="M63.53,-221.18C75.9,-248.76 105.39,-306.3 148,-337.62 193.91,-371.38 256.67,-388.88 303.84,-397.79"/>
<polygon fill="#63b8ff" stroke="#63b8ff" points="303.22,-401.23 313.68,-399.56 304.45,-394.34 303.22,-401.23"/>
</a>
</g>
</g>
<!-- Node3 -->
<g id="Node000003" class="node">
<title>Node3</title>
<g id="a_Node000003"><a xlink:href="class_temperature_controller.html#a5637103784725fb1a73f6463d7cbfde6" target="_top" xlink:title=" ">
<polygon fill="white" stroke="#666666" points="260,-328.88 148,-328.88 148,-298.38 260,-298.38 260,-328.88"/>
<text xml:space="preserve" text-anchor="start" x="156" y="-315.38" font-family="Helvetica,sans-Serif" font-size="10.00">TemperatureController</text>
<text xml:space="preserve" text-anchor="middle" x="204" y="-304.12" font-family="Helvetica,sans-Serif" font-size="10.00">::handleAlarmDisplay</text>
</a>
</g>
</g>
<!-- Node1&#45;&gt;Node3 -->
<g id="edge2_Node000001_Node000003" class="edge">
<title>Node1&#45;&gt;Node3</title>
<g id="a_edge2_Node000001_Node000003"><a xlink:title=" ">
<path fill="none" stroke="#63b8ff" d="M75.36,-221.34C93.42,-236.55 121.98,-259.99 148,-278.62 154.24,-283.1 161.04,-287.66 167.66,-291.94"/>
<polygon fill="#63b8ff" stroke="#63b8ff" points="165.56,-294.75 175.87,-297.18 169.32,-288.85 165.56,-294.75"/>
</a>
</g>
</g>
<!-- Node12 -->
<g id="Node000012" class="node">
<title>Node12</title>
<g id="a_Node000012"><a xlink:href="class_temperature_controller.html#a82e4c37ff4121eaf5e00e9c52381e840" target="_top" xlink:title=" ">
<polygon fill="white" stroke="#666666" points="260,-269.88 148,-269.88 148,-239.38 260,-239.38 260,-269.88"/>
<text xml:space="preserve" text-anchor="start" x="156" y="-256.38" font-family="Helvetica,sans-Serif" font-size="10.00">TemperatureController</text>
<text xml:space="preserve" text-anchor="middle" x="204" y="-245.12" font-family="Helvetica,sans-Serif" font-size="10.00">::handleAlarmOutputs</text>
</a>
</g>
</g>
<!-- Node1&#45;&gt;Node12 -->
<g id="edge12_Node000001_Node000012" class="edge">
<title>Node1&#45;&gt;Node12</title>
<g id="a_edge12_Node000001_Node000012"><a xlink:title=" ">
<path fill="none" stroke="#63b8ff" d="M103.6,-221.26C116.83,-225.71 131.41,-230.6 145.22,-235.23"/>
<polygon fill="#63b8ff" stroke="#63b8ff" points="144.07,-238.54 154.66,-238.4 146.29,-231.9 144.07,-238.54"/>
</a>
</g>
</g>
<!-- Node15 -->
<g id="Node000015" class="node">
<title>Node15</title>
<g id="a_Node000015"><a xlink:href="class_temperature_controller.html#a11948a87fe7df37543b86ecdd488b341" target="_top" xlink:title=" ">
<polygon fill="white" stroke="#666666" points="260,-220.88 148,-220.88 148,-190.38 260,-190.38 260,-220.88"/>
<text xml:space="preserve" text-anchor="start" x="156" y="-207.38" font-family="Helvetica,sans-Serif" font-size="10.00">TemperatureController</text>
<text xml:space="preserve" text-anchor="middle" x="204" y="-196.12" font-family="Helvetica,sans-Serif" font-size="10.00">::readAllPoints</text>
</a>
</g>
</g>
<!-- Node1&#45;&gt;Node15 -->
<g id="edge15_Node000001_Node000015" class="edge">
<title>Node1&#45;&gt;Node15</title>
<g id="a_edge15_Node000001_Node000015"><a xlink:title=" ">
<path fill="none" stroke="#63b8ff" d="M112.2,-199.06C120.1,-198.89 128.3,-198.84 136.39,-198.9"/>
<polygon fill="#63b8ff" stroke="#63b8ff" points="136.16,-202.4 146.21,-199.03 136.26,-195.4 136.16,-202.4"/>
</a>
</g>
</g>
<!-- Node16 -->
<g id="Node000016" class="node">
<title>Node16</title>
<g id="a_Node000016"><a xlink:href="class_temperature_controller.html#a5ac8af90de5dfd79a9a2e4c7270a98a3" target="_top" xlink:title=" ">
<polygon fill="white" stroke="#666666" points="260,-171.88 148,-171.88 148,-141.38 260,-141.38 260,-171.88"/>
<text xml:space="preserve" text-anchor="start" x="156" y="-158.38" font-family="Helvetica,sans-Serif" font-size="10.00">TemperatureController</text>
<text xml:space="preserve" text-anchor="middle" x="204" y="-147.12" font-family="Helvetica,sans-Serif" font-size="10.00">::updateAlarms</text>
</a>
</g>
</g>
<!-- Node1&#45;&gt;Node16 -->
<g id="edge17_Node000001_Node000016" class="edge">
<title>Node1&#45;&gt;Node16</title>
<g id="a_edge17_Node000001_Node000016"><a xlink:title=" ">
<path fill="none" stroke="#63b8ff" d="M103.6,-189.99C116.83,-185.54 131.41,-180.65 145.22,-176.02"/>
<polygon fill="#63b8ff" stroke="#63b8ff" points="146.29,-179.35 154.66,-172.85 144.07,-172.71 146.29,-179.35"/>
</a>
</g>
</g>
<!-- Node22 -->
<g id="Node000022" class="node">
<title>Node22</title>
<g id="a_Node000022"><a xlink:href="class_temperature_controller.html#a23dca296a268baa9b8234c8bf9cf0c3e" target="_top" xlink:title=" ">
<polygon fill="white" stroke="#666666" points="260,-114.88 148,-114.88 148,-84.38 260,-84.38 260,-114.88"/>
<text xml:space="preserve" text-anchor="start" x="156" y="-101.38" font-family="Helvetica,sans-Serif" font-size="10.00">TemperatureController</text>
<text xml:space="preserve" text-anchor="middle" x="204" y="-90.12" font-family="Helvetica,sans-Serif" font-size="10.00">::updateAllSensors</text>
</a>
</g>
</g>
<!-- Node1&#45;&gt;Node22 -->
<g id="edge24_Node000001_Node000022" class="edge">
<title>Node1&#45;&gt;Node22</title>
<g id="a_edge24_Node000001_Node000022"><a xlink:title=" ">
<path fill="none" stroke="#63b8ff" d="M74.91,-190.05C92.87,-174.73 121.57,-151.03 148,-132.62 153.5,-128.79 159.46,-124.94 165.35,-121.28"/>
<polygon fill="#63b8ff" stroke="#63b8ff" points="167.09,-124.32 173.83,-116.14 163.46,-118.34 167.09,-124.32"/>
</a>
</g>
</g>
<!-- Node28 -->
<g id="Node000028" class="node">
<title>Node28</title>
<g id="a_Node000028"><a xlink:href="class_temperature_controller.html#a62b93899a3b8b55e2e0bd933520c2892" target="_top" xlink:title=" ">
<polygon fill="white" stroke="#666666" points="260,-65.88 148,-65.88 148,-35.38 260,-35.38 260,-65.88"/>
<text xml:space="preserve" text-anchor="start" x="156" y="-52.38" font-family="Helvetica,sans-Serif" font-size="10.00">TemperatureController</text>
<text xml:space="preserve" text-anchor="middle" x="204" y="-41.12" font-family="Helvetica,sans-Serif" font-size="10.00">::updateRegisterMap</text>
</a>
</g>
</g>
<!-- Node1&#45;&gt;Node28 -->
<g id="edge30_Node000001_Node000028" class="edge">
<title>Node1&#45;&gt;Node28</title>
<g id="a_edge30_Node000001_Node000028"><a xlink:title=" ">
<path fill="none" stroke="#63b8ff" d="M64.42,-189.99C77.76,-163.32 108.17,-108.73 148,-75.62 149.44,-74.43 150.95,-73.27 152.51,-72.17"/>
<polygon fill="#63b8ff" stroke="#63b8ff" points="153.97,-75.38 160.59,-67.11 150.26,-69.45 153.97,-75.38"/>
</a>
</g>
</g>
<!-- Node3&#45;&gt;Node2 -->
<g id="edge3_Node000003_Node000002" class="edge">
<title>Node3&#45;&gt;Node2</title>
<g id="a_edge3_Node000003_Node000002"><a xlink:title=" ">
<path fill="none" stroke="#63b8ff" d="M222.33,-329.25C239.85,-344.36 268.23,-367.07 296,-381.62 299.26,-383.33 302.67,-384.96 306.14,-386.51"/>
<polygon fill="#63b8ff" stroke="#63b8ff" points="304.76,-389.72 315.34,-390.3 307.43,-383.25 304.76,-389.72"/>
</a>
</g>
</g>
<!-- Node4 -->
<g id="Node000004" class="node">
<title>Node4</title>
<g id="a_Node000004"><a xlink:href="class_temperature_controller.html#a1d2745c323f7094beac8f406825499b7" target="_top" xlink:title=" ">
<polygon fill="white" stroke="#666666" points="447,-372.88 296,-372.88 296,-342.38 447,-342.38 447,-372.88"/>
<text xml:space="preserve" text-anchor="start" x="304" y="-359.38" font-family="Helvetica,sans-Serif" font-size="10.00">TemperatureController</text>
<text xml:space="preserve" text-anchor="middle" x="371.5" y="-348.12" font-family="Helvetica,sans-Serif" font-size="10.00">::_handleAlarmDisplayRotation</text>
</a>
</g>
</g>
<!-- Node3&#45;&gt;Node4 -->
<g id="edge4_Node000003_Node000004" class="edge">
<title>Node3&#45;&gt;Node4</title>
<g id="a_edge4_Node000003_Node000004"><a xlink:title=" ">
<path fill="none" stroke="#63b8ff" d="M260.11,-328.28C273.09,-331.73 287.1,-335.45 300.64,-339.05"/>
<polygon fill="#63b8ff" stroke="#63b8ff" points="299.34,-342.33 309.91,-341.52 301.14,-335.56 299.34,-342.33"/>
</a>
</g>
</g>
<!-- Node9 -->
<g id="Node000009" class="node">
<title>Node9</title>
<g id="a_Node000009"><a xlink:href="class_temperature_controller.html#a477597992aa9362076843f37b648741a" target="_top" xlink:title=" ">
<polygon fill="white" stroke="#666666" points="429.38,-323.88 313.62,-323.88 313.62,-293.38 429.38,-293.38 429.38,-323.88"/>
<text xml:space="preserve" text-anchor="start" x="321.62" y="-310.38" font-family="Helvetica,sans-Serif" font-size="10.00">TemperatureController</text>
<text xml:space="preserve" text-anchor="middle" x="371.5" y="-299.12" font-family="Helvetica,sans-Serif" font-size="10.00">::_updateAlarmQueues</text>
</a>
</g>
</g>
<!-- Node3&#45;&gt;Node9 -->
<g id="edge9_Node000003_Node000009" class="edge">
<title>Node3&#45;&gt;Node9</title>
<g id="a_edge9_Node000003_Node000009"><a xlink:title=" ">
<path fill="none" stroke="#63b8ff" d="M260.11,-311.96C273.61,-311.55 288.23,-311.11 302.26,-310.69"/>
<polygon fill="#63b8ff" stroke="#63b8ff" points="301.96,-314.2 311.85,-310.4 301.75,-307.2 301.96,-314.2"/>
</a>
</g>
</g>
<!-- Node5 -->
<g id="Node000005" class="node">
<title>Node5</title>
<g id="a_Node000005"><a xlink:href="class_temperature_controller.html#ac44de0834e13cec755e247ce1df21f09" target="_top" xlink:title=" ">
<polygon fill="white" stroke="#666666" points="651.25,-472.88 483,-472.88 483,-442.38 651.25,-442.38 651.25,-472.88"/>
<text xml:space="preserve" text-anchor="start" x="491" y="-459.38" font-family="Helvetica,sans-Serif" font-size="10.00">TemperatureController</text>
<text xml:space="preserve" text-anchor="middle" x="567.12" y="-448.12" font-family="Helvetica,sans-Serif" font-size="10.00">::_displayNextAcknowledgedAlarm</text>
</a>
</g>
</g>
<!-- Node4&#45;&gt;Node5 -->
<g id="edge5_Node000004_Node000005" class="edge">
<title>Node4&#45;&gt;Node5</title>
<g id="a_edge5_Node000004_Node000005"><a xlink:title=" ">
<path fill="none" stroke="#63b8ff" d="M431.21,-373.33C436.8,-375.99 442.17,-379.06 447,-382.62 469.04,-398.87 460.7,-416.73 483,-432.62 485.04,-434.08 487.17,-435.46 489.37,-436.75"/>
<polygon fill="#63b8ff" stroke="#63b8ff" points="487.53,-439.74 498.01,-441.24 490.75,-433.52 487.53,-439.74"/>
</a>
</g>
</g>
<!-- Node6 -->
<g id="Node000006" class="node">
<title>Node6</title>
<g id="a_Node000006"><a xlink:href="class_temperature_controller.html#a7ca5124357f98bcd52316cf017341b09" target="_top" xlink:title=" ">
<polygon fill="white" stroke="#666666" points="633.25,-423.88 501,-423.88 501,-393.38 633.25,-393.38 633.25,-423.88"/>
<text xml:space="preserve" text-anchor="start" x="509" y="-410.38" font-family="Helvetica,sans-Serif" font-size="10.00">TemperatureController</text>
<text xml:space="preserve" text-anchor="middle" x="567.12" y="-399.12" font-family="Helvetica,sans-Serif" font-size="10.00">::_displayNextActiveAlarm</text>
</a>
</g>
</g>
<!-- Node4&#45;&gt;Node6 -->
<g id="edge6_Node000004_Node000006" class="edge">
<title>Node4&#45;&gt;Node6</title>
<g id="a_edge6_Node000004_Node000006"><a xlink:title=" ">
<path fill="none" stroke="#63b8ff" d="M432.17,-373.34C452.24,-378.63 474.81,-384.57 495.62,-390.05"/>
<polygon fill="#63b8ff" stroke="#63b8ff" points="494.62,-393.41 505.18,-392.57 496.41,-386.64 494.62,-393.41"/>
</a>
</g>
</g>
<!-- Node7 -->
<g id="Node000007" class="node">
<title>Node7</title>
<g id="a_Node000007"><a xlink:href="class_temperature_controller.html#a28e81945f5235e161e6c532b428d36d2" target="_top" xlink:title=" ">
<polygon fill="white" stroke="#666666" points="638.12,-374.88 496.12,-374.88 496.12,-344.38 638.12,-344.38 638.12,-374.88"/>
<text xml:space="preserve" text-anchor="start" x="504.12" y="-361.38" font-family="Helvetica,sans-Serif" font-size="10.00">TemperatureController</text>
<text xml:space="preserve" text-anchor="middle" x="567.12" y="-350.12" font-family="Helvetica,sans-Serif" font-size="10.00">::_showOKAndTurnOffOLED</text>
</a>
</g>
</g>
<!-- Node4&#45;&gt;Node7 -->
<g id="edge7_Node000004_Node000007" class="edge">
<title>Node4&#45;&gt;Node7</title>
<g id="a_edge7_Node000004_Node000007"><a xlink:title=" ">
<path fill="none" stroke="#63b8ff" d="M447.36,-358.4C459.58,-358.52 472.3,-358.66 484.67,-358.78"/>
<polygon fill="#63b8ff" stroke="#63b8ff" points="484.36,-362.28 494.39,-358.88 484.43,-355.28 484.36,-362.28"/>
</a>
</g>
</g>
<!-- Node8 -->
<g id="Node000008" class="node">
<title>Node8</title>
<g id="a_Node000008"><a xlink:href="class_temperature_controller.html#a4d36576f7d6ab8f5222a082878314912" target="_top" xlink:title=" ">
<polygon fill="white" stroke="#666666" points="627.62,-325.88 506.62,-325.88 506.62,-295.38 627.62,-295.38 627.62,-325.88"/>
<text xml:space="preserve" text-anchor="start" x="514.62" y="-312.38" font-family="Helvetica,sans-Serif" font-size="10.00">TemperatureController</text>
<text xml:space="preserve" text-anchor="middle" x="567.12" y="-301.12" font-family="Helvetica,sans-Serif" font-size="10.00">::_updateNormalDisplay</text>
</a>
</g>
</g>
<!-- Node4&#45;&gt;Node8 -->
<g id="edge8_Node000004_Node000008" class="edge">
<title>Node4&#45;&gt;Node8</title>
<g id="a_edge8_Node000004_Node000008"><a xlink:title=" ">
<path fill="none" stroke="#63b8ff" d="M437.24,-341.91C455.9,-337.38 476.35,-332.42 495.35,-327.81"/>
<polygon fill="#63b8ff" stroke="#63b8ff" points="495.98,-331.25 504.87,-325.49 494.33,-324.45 495.98,-331.25"/>
</a>
</g>
</g>
<!-- Node10 -->
<g id="Node000010" class="node">
<title>Node10</title>
<g id="a_Node000010"><a xlink:href="class_temperature_controller.html#af58201023d15de003d4f1b9a9771a9e3" target="_top" xlink:title=" ">
<polygon fill="white" stroke="#666666" points="623.12,-239.88 511.12,-239.88 511.12,-209.38 623.12,-209.38 623.12,-239.88"/>
<text xml:space="preserve" text-anchor="start" x="519.12" y="-226.38" font-family="Helvetica,sans-Serif" font-size="10.00">TemperatureController</text>
<text xml:space="preserve" text-anchor="middle" x="567.12" y="-215.12" font-family="Helvetica,sans-Serif" font-size="10.00">::getActiveAlarms</text>
</a>
</g>
</g>
<!-- Node9&#45;&gt;Node10 -->
<g id="edge10_Node000009_Node000010" class="edge">
<title>Node9&#45;&gt;Node10</title>
<g id="a_edge10_Node000009_Node000010"><a xlink:title=" ">
<path fill="none" stroke="#63b8ff" d="M428.27,-293.01C434.78,-290.29 441.18,-287.18 447,-283.62 466.05,-272.01 463.7,-259.83 483,-248.62 488.36,-245.51 494.15,-242.78 500.09,-240.39"/>
<polygon fill="#63b8ff" stroke="#63b8ff" points="501.28,-243.68 509.47,-236.95 498.88,-237.1 501.28,-243.68"/>
</a>
</g>
</g>
<!-- Node11 -->
<g id="Node000011" class="node">
<title>Node11</title>
<g id="a_Node000011"><a xlink:href="class_alarm.html#a7a4a3290a6a659542f82fe08a96736a8" target="_top" xlink:title="Get the alarm creation timestamp.">
<polygon fill="white" stroke="#666666" points="622,-277.25 512.25,-277.25 512.25,-258 622,-258 622,-277.25"/>
<text xml:space="preserve" text-anchor="middle" x="567.12" y="-263.75" font-family="Helvetica,sans-Serif" font-size="10.00">Alarm::getTimestamp</text>
</a>
</g>
</g>
<!-- Node9&#45;&gt;Node11 -->
<g id="edge11_Node000009_Node000011" class="edge">
<title>Node9&#45;&gt;Node11</title>
<g id="a_edge11_Node000009_Node000011"><a xlink:title=" ">
<path fill="none" stroke="#63b8ff" d="M429.81,-296.49C454.27,-291.31 482.8,-285.27 507.42,-280.06"/>
<polygon fill="#63b8ff" stroke="#63b8ff" points="507.89,-283.53 516.95,-278.04 506.44,-276.69 507.89,-283.53"/>
</a>
</g>
</g>
<!-- Node13 -->
<g id="Node000013" class="node">
<title>Node13</title>
<g id="a_Node000013"><a xlink:href="class_temperature_controller.html#a3022c7a72adb45a7800d5189eecdac4e" target="_top" xlink:title=" ">
<polygon fill="white" stroke="#666666" points="427.5,-274.88 315.5,-274.88 315.5,-244.38 427.5,-244.38 427.5,-274.88"/>
<text xml:space="preserve" text-anchor="start" x="323.5" y="-261.38" font-family="Helvetica,sans-Serif" font-size="10.00">TemperatureController</text>
<text xml:space="preserve" text-anchor="middle" x="371.5" y="-250.12" font-family="Helvetica,sans-Serif" font-size="10.00">::getAlarmCount</text>
</a>
</g>
</g>
<!-- Node12&#45;&gt;Node13 -->
<g id="edge13_Node000012_Node000013" class="edge">
<title>Node12&#45;&gt;Node13</title>
<g id="a_edge13_Node000012_Node000013"><a xlink:title=" ">
<path fill="none" stroke="#63b8ff" d="M260.11,-256.29C274.06,-256.71 289.19,-257.17 303.65,-257.61"/>
<polygon fill="#63b8ff" stroke="#63b8ff" points="303.45,-261.1 313.55,-257.9 303.66,-254.1 303.45,-261.1"/>
</a>
</g>
</g>
<!-- Node14 -->
<g id="Node000014" class="node">
<title>Node14</title>
<g id="a_Node000014"><a xlink:href="class_logger_manager.html#a5c1373ccc47f4112b596fe6f84fbbc21" target="_top" xlink:title="Log informational message (static convenience method)">
<polygon fill="white" stroke="#666666" points="423.75,-226.25 319.25,-226.25 319.25,-207 423.75,-207 423.75,-226.25"/>
<text xml:space="preserve" text-anchor="middle" x="371.5" y="-212.75" font-family="Helvetica,sans-Serif" font-size="10.00">LoggerManager::info</text>
</a>
</g>
</g>
<!-- Node12&#45;&gt;Node14 -->
<g id="edge14_Node000012_Node000014" class="edge">
<title>Node12&#45;&gt;Node14</title>
<g id="a_edge14_Node000012_Node000014"><a xlink:title=" ">
<path fill="none" stroke="#63b8ff" d="M260.11,-241.97C277.93,-237.88 297.69,-233.34 315.51,-229.25"/>
<polygon fill="#63b8ff" stroke="#63b8ff" points="316.17,-232.69 325.13,-227.04 314.6,-225.87 316.17,-232.69"/>
</a>
</g>
</g>
<!-- Node15&#45;&gt;Node1 -->
<g id="edge16_Node000015_Node000001" class="edge">
<title>Node15&#45;&gt;Node1</title>
<g id="a_edge16_Node000015_Node000001"><a xlink:title=" ">
<path fill="none" stroke="#63b8ff" d="M147.73,-212.19C139.82,-212.36 131.62,-212.41 123.53,-212.35"/>
<polygon fill="#63b8ff" stroke="#63b8ff" points="123.76,-208.85 113.71,-212.21 123.66,-215.85 123.76,-208.85"/>
</a>
</g>
</g>
<!-- Node16&#45;&gt;Node10 -->
<g id="edge18_Node000016_Node000010" class="edge">
<title>Node16&#45;&gt;Node10</title>
<g id="a_edge18_Node000016_Node000010"><a xlink:title=" ">
<path fill="none" stroke="#63b8ff" d="M260.42,-165.13C309.58,-172.88 383.25,-185.01 447,-197.62 464.15,-201.02 482.61,-205.03 499.75,-208.9"/>
<polygon fill="#63b8ff" stroke="#63b8ff" points="498.8,-212.27 509.33,-211.08 500.36,-205.45 498.8,-212.27"/>
</a>
</g>
</g>
<!-- Node17 -->
<g id="Node000017" class="node">
<title>Node17</title>
<g id="a_Node000017"><a xlink:href="class_temperature_controller.html#a9b4fe09d4c87dcf86e78b890012e1e72" target="_top" xlink:title=" ">
<polygon fill="white" stroke="#666666" points="427.5,-150.88 315.5,-150.88 315.5,-120.38 427.5,-120.38 427.5,-150.88"/>
<text xml:space="preserve" text-anchor="start" x="323.5" y="-137.38" font-family="Helvetica,sans-Serif" font-size="10.00">TemperatureController</text>
<text xml:space="preserve" text-anchor="middle" x="371.5" y="-126.12" font-family="Helvetica,sans-Serif" font-size="10.00">::getBoundSensor</text>
</a>
</g>
</g>
<!-- Node16&#45;&gt;Node17 -->
<g id="edge19_Node000016_Node000017" class="edge">
<title>Node16&#45;&gt;Node17</title>
<g id="a_edge19_Node000016_Node000017"><a xlink:title=" ">
<path fill="none" stroke="#63b8ff" d="M260.11,-149.63C274.06,-147.86 289.19,-145.94 303.65,-144.11"/>
<polygon fill="#63b8ff" stroke="#63b8ff" points="304.09,-147.58 313.57,-142.85 303.2,-140.64 304.09,-147.58"/>
</a>
</g>
</g>
<!-- Node18 -->
<g id="Node000018" class="node">
<title>Node18</title>
<g id="a_Node000018"><a xlink:href="class_measurement_point.html#a81c7ae93a9314344967d0f31c6fefe2f" target="_top" xlink:title="Get pointer to bound sensor.">
<polygon fill="white" stroke="#666666" points="639.62,-190.88 494.62,-190.88 494.62,-160.38 639.62,-160.38 639.62,-190.88"/>
<text xml:space="preserve" text-anchor="start" x="502.62" y="-177.38" font-family="Helvetica,sans-Serif" font-size="10.00">MeasurementPoint::getBound</text>
<text xml:space="preserve" text-anchor="middle" x="567.12" y="-166.12" font-family="Helvetica,sans-Serif" font-size="10.00">Sensor</text>
</a>
</g>
</g>
<!-- Node17&#45;&gt;Node18 -->
<g id="edge20_Node000017_Node000018" class="edge">
<title>Node17&#45;&gt;Node18</title>
<g id="a_edge20_Node000017_Node000018"><a xlink:title=" ">
<path fill="none" stroke="#63b8ff" d="M427.99,-147.09C445.19,-150.64 464.53,-154.64 483.17,-158.49"/>
<polygon fill="#63b8ff" stroke="#63b8ff" points="482.37,-161.9 492.87,-160.49 483.79,-155.04 482.37,-161.9"/>
</a>
</g>
</g>
<!-- Node19 -->
<g id="Node000019" class="node">
<title>Node19</title>
<g id="a_Node000019"><a xlink:href="class_temperature_controller.html#a494f057c234b4ff7526bde271aec9267" target="_top" xlink:title=" ">
<polygon fill="white" stroke="#666666" points="625.75,-141.88 508.5,-141.88 508.5,-111.38 625.75,-111.38 625.75,-141.88"/>
<text xml:space="preserve" text-anchor="start" x="516.5" y="-128.38" font-family="Helvetica,sans-Serif" font-size="10.00">TemperatureController</text>
<text xml:space="preserve" text-anchor="middle" x="567.12" y="-117.12" font-family="Helvetica,sans-Serif" font-size="10.00">::getMeasurementPoint</text>
</a>
</g>
</g>
<!-- Node17&#45;&gt;Node19 -->
<g id="edge21_Node000017_Node000019" class="edge">
<title>Node17&#45;&gt;Node19</title>
<g id="a_edge21_Node000017_Node000019"><a xlink:title=" ">
<path fill="none" stroke="#63b8ff" d="M427.99,-133.05C449.49,-132.05 474.36,-130.89 497.01,-129.84"/>
<polygon fill="#63b8ff" stroke="#63b8ff" points="496.93,-133.35 506.76,-129.38 496.61,-126.35 496.93,-133.35"/>
</a>
</g>
</g>
<!-- Node20 -->
<g id="Node000020" class="node">
<title>Node20</title>
<g id="a_Node000020"><a xlink:href="class_temperature_controller.html#ad322a5bab8d5788a586206004248f673" target="_top" xlink:title=" ">
<polygon fill="white" stroke="#666666" points="799.25,-165.88 687.25,-165.88 687.25,-135.38 799.25,-135.38 799.25,-165.88"/>
<text xml:space="preserve" text-anchor="start" x="695.25" y="-152.38" font-family="Helvetica,sans-Serif" font-size="10.00">TemperatureController</text>
<text xml:space="preserve" text-anchor="middle" x="743.25" y="-141.12" font-family="Helvetica,sans-Serif" font-size="10.00">::isDS18B20Address</text>
</a>
</g>
</g>
<!-- Node19&#45;&gt;Node20 -->
<g id="edge22_Node000019_Node000020" class="edge">
<title>Node19&#45;&gt;Node20</title>
<g id="a_edge22_Node000019_Node000020"><a xlink:title=" ">
<path fill="none" stroke="#63b8ff" d="M626.11,-134.62C642.02,-136.81 659.4,-139.21 675.76,-141.46"/>
<polygon fill="#63b8ff" stroke="#63b8ff" points="675,-144.89 685.38,-142.79 675.96,-137.95 675,-144.89"/>
</a>
</g>
</g>
<!-- Node21 -->
<g id="Node000021" class="node">
<title>Node21</title>
<g id="a_Node000021"><a xlink:href="class_temperature_controller.html#a13125ddcf29cb56d27403818543618af" target="_top" xlink:title=" ">
<polygon fill="white" stroke="#666666" points="799.25,-116.88 687.25,-116.88 687.25,-86.38 799.25,-86.38 799.25,-116.88"/>
<text xml:space="preserve" text-anchor="start" x="695.25" y="-103.38" font-family="Helvetica,sans-Serif" font-size="10.00">TemperatureController</text>
<text xml:space="preserve" text-anchor="middle" x="743.25" y="-92.12" font-family="Helvetica,sans-Serif" font-size="10.00">::isPT1000Address</text>
</a>
</g>
</g>
<!-- Node19&#45;&gt;Node21 -->
<g id="edge23_Node000019_Node000021" class="edge">
<title>Node19&#45;&gt;Node21</title>
<g id="a_edge23_Node000019_Node000021"><a xlink:title=" ">
<path fill="none" stroke="#63b8ff" d="M626.11,-118.3C642.02,-116.02 659.4,-113.52 675.76,-111.17"/>
<polygon fill="#63b8ff" stroke="#63b8ff" points="675.98,-114.68 685.38,-109.79 674.99,-107.75 675.98,-114.68"/>
</a>
</g>
</g>
<!-- Node23 -->
<g id="Node000023" class="node">
<title>Node23</title>
<g id="a_Node000023"><a xlink:href="class_logger_manager.html#aef24f00186213fa78be3b104a50d58e6" target="_top" xlink:title="Log error message (static convenience method)">
<polygon fill="white" stroke="#666666" points="425.62,-102.25 317.38,-102.25 317.38,-83 425.62,-83 425.62,-102.25"/>
<text xml:space="preserve" text-anchor="middle" x="371.5" y="-88.75" font-family="Helvetica,sans-Serif" font-size="10.00">LoggerManager::error</text>
</a>
</g>
</g>
<!-- Node22&#45;&gt;Node23 -->
<g id="edge25_Node000022_Node000023" class="edge">
<title>Node22&#45;&gt;Node23</title>
<g id="a_edge25_Node000022_Node000023"><a xlink:title=" ">
<path fill="none" stroke="#63b8ff" d="M260.11,-97.29C274.72,-96.68 290.63,-96 305.71,-95.37"/>
<polygon fill="#63b8ff" stroke="#63b8ff" points="305.68,-98.87 315.52,-94.95 305.39,-91.88 305.68,-98.87"/>
</a>
</g>
</g>
<!-- Node24 -->
<g id="Node000024" class="node">
<title>Node24</title>
<g id="a_Node000024"><a xlink:href="class_temperature_controller.html#a01e04714a1712aa10c34276850971a12" target="_top" xlink:title=" ">
<polygon fill="white" stroke="#666666" points="427.5,-63.88 315.5,-63.88 315.5,-33.38 427.5,-33.38 427.5,-63.88"/>
<text xml:space="preserve" text-anchor="start" x="323.5" y="-50.38" font-family="Helvetica,sans-Serif" font-size="10.00">TemperatureController</text>
<text xml:space="preserve" text-anchor="middle" x="371.5" y="-39.12" font-family="Helvetica,sans-Serif" font-size="10.00">::getSensorBus</text>
</a>
</g>
</g>
<!-- Node22&#45;&gt;Node24 -->
<g id="edge26_Node000022_Node000024" class="edge">
<title>Node22&#45;&gt;Node24</title>
<g id="a_edge26_Node000022_Node000024"><a xlink:title=" ">
<path fill="none" stroke="#63b8ff" d="M256.01,-83.91C272.76,-78.74 291.56,-72.95 309,-67.58"/>
<polygon fill="#63b8ff" stroke="#63b8ff" points="309.69,-71.03 318.22,-64.74 307.63,-64.34 309.69,-71.03"/>
</a>
</g>
</g>
<!-- Node25 -->
<g id="Node000025" class="node">
<title>Node25</title>
<g id="a_Node000025"><a xlink:href="class_sensor.html#ac42da3a37b0d6a9622344fe83f4c9047" target="_top" xlink:title=" ">
<polygon fill="white" stroke="#666666" points="626.5,-93.25 507.75,-93.25 507.75,-74 626.5,-74 626.5,-93.25"/>
<text xml:space="preserve" text-anchor="middle" x="567.12" y="-79.75" font-family="Helvetica,sans-Serif" font-size="10.00">Sensor::getOneWirePin</text>
</a>
</g>
</g>
<!-- Node24&#45;&gt;Node25 -->
<g id="edge27_Node000024_Node000025" class="edge">
<title>Node24&#45;&gt;Node25</title>
<g id="a_edge27_Node000024_Node000025"><a xlink:title=" ">
<path fill="none" stroke="#63b8ff" d="M427.99,-58.65C450.17,-62.66 475.92,-67.32 499.13,-71.52"/>
<polygon fill="#63b8ff" stroke="#63b8ff" points="498.34,-74.93 508.81,-73.26 499.59,-68.04 498.34,-74.93"/>
</a>
</g>
</g>
<!-- Node26 -->
<g id="Node000026" class="node">
<title>Node26</title>
<g id="a_Node000026"><a xlink:href="class_sensor.html#a6f57825e90b759ccdb9fe07b3a36953d" target="_top" xlink:title=" ">
<polygon fill="white" stroke="#666666" points="648.25,-56.25 486,-56.25 486,-37 648.25,-37 648.25,-56.25"/>
<text xml:space="preserve" text-anchor="middle" x="567.12" y="-42.75" font-family="Helvetica,sans-Serif" font-size="10.00">Sensor::getPT1000ChipSelectPin</text>
</a>
</g>
</g>
<!-- Node24&#45;&gt;Node26 -->
<g id="edge28_Node000024_Node000026" class="edge">
<title>Node24&#45;&gt;Node26</title>
<g id="a_edge28_Node000024_Node000026"><a xlink:title=" ">
<path fill="none" stroke="#63b8ff" d="M427.99,-48.05C442.46,-47.9 458.46,-47.74 474.28,-47.57"/>
<polygon fill="#63b8ff" stroke="#63b8ff" points="474.26,-51.07 484.23,-47.47 474.19,-44.07 474.26,-51.07"/>
</a>
</g>
</g>
<!-- Node27 -->
<g id="Node000027" class="node">
<title>Node27</title>
<g id="a_Node000027"><a xlink:href="class_sensor.html#a0f6f095e7cfdfffb2a395dfdae7cfa53" target="_top" xlink:title=" ">
<polygon fill="white" stroke="#666666" points="610.75,-19.25 523.5,-19.25 523.5,0 610.75,0 610.75,-19.25"/>
<text xml:space="preserve" text-anchor="middle" x="567.12" y="-5.75" font-family="Helvetica,sans-Serif" font-size="10.00">Sensor::getType</text>
</a>
</g>
</g>
<!-- Node24&#45;&gt;Node27 -->
<g id="edge29_Node000024_Node000027" class="edge">
<title>Node24&#45;&gt;Node27</title>
<g id="a_edge29_Node000024_Node000027"><a xlink:title=" ">
<path fill="none" stroke="#63b8ff" d="M427.99,-37.45C454.37,-32.14 485.79,-25.81 511.99,-20.53"/>
<polygon fill="#63b8ff" stroke="#63b8ff" points="512.65,-23.97 521.76,-18.56 511.27,-17.1 512.65,-23.97"/>
</a>
</g>
</g>
</g>
</svg>
