<?xml version="1.0" encoding="UTF-8" standalone="no"?>
<!DOCTYPE svg PUBLIC "-//W3C//DTD SVG 1.1//EN"
 "http://www.w3.org/Graphics/SVG/1.1/DTD/svg11.dtd">
<!-- Generated by graphviz version 13.1.0 (20250701.0955)
 -->
<!-- Title: TemperatureController::addSensor Pages: 1 -->
<svg width="318pt" height="199pt"
 viewBox="0.00 0.00 318.00 199.00" xmlns="http://www.w3.org/2000/svg" xmlns:xlink="http://www.w3.org/1999/xlink">
<g id="graph0" class="graph" transform="scale(1 1) rotate(0) translate(4 194.88)">
<title>TemperatureController::addSensor</title>
<!-- Node1 -->
<g id="Node000001" class="node">
<title>Node1</title>
<g id="a_Node000001"><a xlink:title=" ">
<polygon fill="#999999" stroke="#666666" points="112,-98.88 0,-98.88 0,-68.38 112,-68.38 112,-98.88"/>
<text xml:space="preserve" text-anchor="start" x="8" y="-85.38" font-family="Helvetica,sans-Serif" font-size="10.00">TemperatureController</text>
<text xml:space="preserve" text-anchor="middle" x="56" y="-74.12" font-family="Helvetica,sans-Serif" font-size="10.00">::addSensor</text>
</a>
</g>
</g>
<!-- Node2 -->
<g id="Node000002" class="node">
<title>Node2</title>
<g id="a_Node000002"><a xlink:href="class_temperature_controller.html#a31a8a32868beaae06649a5006ca96599" target="_top" xlink:title=" ">
<polygon fill="white" stroke="#666666" points="293.38,-190.88 164.88,-190.88 164.88,-160.38 293.38,-160.38 293.38,-190.88"/>
<text xml:space="preserve" text-anchor="start" x="172.88" y="-177.38" font-family="Helvetica,sans-Serif" font-size="10.00">TemperatureController</text>
<text xml:space="preserve" text-anchor="middle" x="229.12" y="-166.12" font-family="Helvetica,sans-Serif" font-size="10.00">::findSensorByChipSelect</text>
</a>
</g>
</g>
<!-- Node1&#45;&gt;Node2 -->
<g id="edge1_Node000001_Node000002" class="edge">
<title>Node1&#45;&gt;Node2</title>
<g id="a_edge1_Node000001_Node000002"><a xlink:title=" ">
<path fill="none" stroke="#63b8ff" d="M74.31,-99.13C91.8,-114.1 120.17,-136.54 148,-150.62 151.66,-152.48 155.49,-154.23 159.39,-155.87"/>
<polygon fill="#63b8ff" stroke="#63b8ff" points="157.88,-159.04 168.47,-159.42 160.44,-152.52 157.88,-159.04"/>
</a>
</g>
</g>
<!-- Node3 -->
<g id="Node000003" class="node">
<title>Node3</title>
<g id="a_Node000003"><a xlink:href="class_temperature_controller.html#ae03306ef9585c7427ef53cd9a5fad12b" target="_top" xlink:title=" ">
<polygon fill="white" stroke="#666666" points="285.12,-141.88 173.12,-141.88 173.12,-111.38 285.12,-111.38 285.12,-141.88"/>
<text xml:space="preserve" text-anchor="start" x="181.12" y="-128.38" font-family="Helvetica,sans-Serif" font-size="10.00">TemperatureController</text>
<text xml:space="preserve" text-anchor="middle" x="229.12" y="-117.12" font-family="Helvetica,sans-Serif" font-size="10.00">::findSensorByRom</text>
</a>
</g>
</g>
<!-- Node1&#45;&gt;Node3 -->
<g id="edge2_Node000001_Node000003" class="edge">
<title>Node1&#45;&gt;Node3</title>
<g id="a_edge2_Node000001_Node000003"><a xlink:title=" ">
<path fill="none" stroke="#63b8ff" d="M112.09,-97.47C128.04,-101.47 145.61,-105.89 162.15,-110.05"/>
<polygon fill="#63b8ff" stroke="#63b8ff" points="160.83,-113.32 171.38,-112.37 162.53,-106.53 160.83,-113.32"/>
</a>
</g>
</g>
<!-- Node4 -->
<g id="Node000004" class="node">
<title>Node4</title>
<g id="a_Node000004"><a xlink:href="class_sensor.html#a9f793cde2918130fbc77dad1aebfe53a" target="_top" xlink:title=" ">
<polygon fill="white" stroke="#666666" points="306.5,-93.25 151.75,-93.25 151.75,-74 306.5,-74 306.5,-93.25"/>
<text xml:space="preserve" text-anchor="middle" x="229.12" y="-79.75" font-family="Helvetica,sans-Serif" font-size="10.00">Sensor::getDS18B20RomString</text>
</a>
</g>
</g>
<!-- Node1&#45;&gt;Node4 -->
<g id="edge3_Node000001_Node000004" class="edge">
<title>Node1&#45;&gt;Node4</title>
<g id="a_edge3_Node000001_Node000004"><a xlink:title=" ">
<path fill="none" stroke="#63b8ff" d="M112.09,-83.62C120.98,-83.62 130.37,-83.62 139.82,-83.62"/>
<polygon fill="#63b8ff" stroke="#63b8ff" points="139.81,-87.13 149.81,-83.63 139.81,-80.13 139.81,-87.13"/>
</a>
</g>
</g>
<!-- Node5 -->
<g id="Node000005" class="node">
<title>Node5</title>
<g id="a_Node000005"><a xlink:href="class_sensor.html#a6f57825e90b759ccdb9fe07b3a36953d" target="_top" xlink:title=" ">
<polygon fill="white" stroke="#666666" points="310.25,-56.25 148,-56.25 148,-37 310.25,-37 310.25,-56.25"/>
<text xml:space="preserve" text-anchor="middle" x="229.12" y="-42.75" font-family="Helvetica,sans-Serif" font-size="10.00">Sensor::getPT1000ChipSelectPin</text>
</a>
</g>
</g>
<!-- Node1&#45;&gt;Node5 -->
<g id="edge4_Node000001_Node000005" class="edge">
<title>Node1&#45;&gt;Node5</title>
<g id="a_edge4_Node000001_Node000005"><a xlink:title=" ">
<path fill="none" stroke="#63b8ff" d="M112.09,-71.71C130.7,-67.69 151.53,-63.19 170.35,-59.12"/>
<polygon fill="#63b8ff" stroke="#63b8ff" points="170.95,-62.57 179.99,-57.03 169.48,-55.73 170.95,-62.57"/>
</a>
</g>
</g>
<!-- Node6 -->
<g id="Node000006" class="node">
<title>Node6</title>
<g id="a_Node000006"><a xlink:href="class_sensor.html#a0f6f095e7cfdfffb2a395dfdae7cfa53" target="_top" xlink:title=" ">
<polygon fill="white" stroke="#666666" points="272.75,-19.25 185.5,-19.25 185.5,0 272.75,0 272.75,-19.25"/>
<text xml:space="preserve" text-anchor="middle" x="229.12" y="-5.75" font-family="Helvetica,sans-Serif" font-size="10.00">Sensor::getType</text>
</a>
</g>
</g>
<!-- Node1&#45;&gt;Node6 -->
<g id="edge5_Node000001_Node000006" class="edge">
<title>Node1&#45;&gt;Node6</title>
<g id="a_edge5_Node000001_Node000006"><a xlink:title=" ">
<path fill="none" stroke="#63b8ff" d="M77.98,-67.91C95.77,-55.3 122.4,-38.04 148,-27.62 156.26,-24.26 165.28,-21.47 174.18,-19.17"/>
<polygon fill="#63b8ff" stroke="#63b8ff" points="174.94,-22.58 183.85,-16.86 173.31,-15.77 174.94,-22.58"/>
</a>
</g>
</g>
</g>
</svg>
