<?xml version="1.0" encoding="UTF-8" standalone="no"?>
<!DOCTYPE svg PUBLIC "-//W3C//DTD SVG 1.1//EN"
 "http://www.w3.org/Graphics/SVG/1.1/DTD/svg11.dtd">
<!-- Generated by graphviz version 13.1.0 (20250701.0955)
 -->
<!-- Title: LoggerManager::getAlarmStateLogFiles Pages: 1 -->
<svg width="500pt" height="113pt"
 viewBox="0.00 0.00 500.00 113.00" xmlns="http://www.w3.org/2000/svg" xmlns:xlink="http://www.w3.org/1999/xlink">
<g id="graph0" class="graph" transform="scale(1 1) rotate(0) translate(4 109.25)">
<title>LoggerManager::getAlarmStateLogFiles</title>
<!-- Node1 -->
<g id="Node000001" class="node">
<title>Node1</title>
<g id="a_Node000001"><a xlink:title=" ">
<polygon fill="#999999" stroke="#666666" points="492,-67.88 341,-67.88 341,-37.38 492,-37.38 492,-67.88"/>
<text xml:space="preserve" text-anchor="start" x="349" y="-54.38" font-family="Helvetica,sans-Serif" font-size="10.00">LoggerManager::getAlarmState</text>
<text xml:space="preserve" text-anchor="middle" x="416.5" y="-43.12" font-family="Helvetica,sans-Serif" font-size="10.00">LogFiles</text>
</a>
</g>
</g>
<!-- Node2 -->
<g id="Node000002" class="node">
<title>Node2</title>
<g id="a_Node000002"><a xlink:href="class_config_manager.html#a3b28982c79587a287c8ddf0acf47f71d" target="_top" xlink:title="Setup file download API endpoints.">
<polygon fill="white" stroke="#666666" points="299,-105.25 153.25,-105.25 153.25,-86 299,-86 299,-105.25"/>
<text xml:space="preserve" text-anchor="middle" x="226.12" y="-91.75" font-family="Helvetica,sans-Serif" font-size="10.00">ConfigManager::downloadAPI</text>
</a>
</g>
</g>
<!-- Node1&#45;&gt;Node2 -->
<g id="edge1_Node000001_Node000002" class="edge">
<title>Node1&#45;&gt;Node2</title>
<g id="a_edge1_Node000001_Node000002"><a xlink:title=" ">
<path fill="none" stroke="#63b8ff" d="M335.66,-70.85C313.67,-75.87 290.61,-81.13 271.43,-85.51"/>
<polygon fill="#63b8ff" stroke="#63b8ff" points="336.25,-74.31 345.22,-68.67 334.69,-67.48 336.25,-74.31"/>
</a>
</g>
</g>
<!-- Node4 -->
<g id="Node000004" class="node">
<title>Node4</title>
<g id="a_Node000004"><a xlink:href="class_config_manager.html#aa425fe77d9c00f404f1c02327263f516" target="_top" xlink:title="Get alarm events for a specific point within date range.">
<polygon fill="white" stroke="#666666" points="305,-67.88 147.25,-67.88 147.25,-37.38 305,-37.38 305,-67.88"/>
<text xml:space="preserve" text-anchor="start" x="155.25" y="-54.38" font-family="Helvetica,sans-Serif" font-size="10.00">ConfigManager::getAlarmEvents</text>
<text xml:space="preserve" text-anchor="middle" x="226.12" y="-43.12" font-family="Helvetica,sans-Serif" font-size="10.00">ForPoint</text>
</a>
</g>
</g>
<!-- Node1&#45;&gt;Node4 -->
<g id="edge3_Node000001_Node000004" class="edge">
<title>Node1&#45;&gt;Node4</title>
<g id="a_edge3_Node000001_Node000004"><a xlink:title=" ">
<path fill="none" stroke="#63b8ff" d="M329.27,-52.62C321.26,-52.62 313.18,-52.62 305.25,-52.62"/>
<polygon fill="#63b8ff" stroke="#63b8ff" points="328.99,-56.13 338.99,-52.63 328.99,-49.13 328.99,-56.13"/>
</a>
</g>
</g>
<!-- Node5 -->
<g id="Node000005" class="node">
<title>Node5</title>
<g id="a_Node000005"><a xlink:href="class_config_manager.html#a9e977107b4795fcbce0482711ff1ce7a" target="_top" xlink:title="Setup logging API endpoints.">
<polygon fill="white" stroke="#666666" points="287.38,-19.25 164.88,-19.25 164.88,0 287.38,0 287.38,-19.25"/>
<text xml:space="preserve" text-anchor="middle" x="226.12" y="-5.75" font-family="Helvetica,sans-Serif" font-size="10.00">ConfigManager::logsAPI</text>
</a>
</g>
</g>
<!-- Node1&#45;&gt;Node5 -->
<g id="edge4_Node000001_Node000005" class="edge">
<title>Node1&#45;&gt;Node5</title>
<g id="a_edge4_Node000001_Node000005"><a xlink:title=" ">
<path fill="none" stroke="#63b8ff" d="M335.66,-34.4C313.67,-29.38 290.61,-24.12 271.43,-19.74"/>
<polygon fill="#63b8ff" stroke="#63b8ff" points="334.69,-37.77 345.22,-36.58 336.25,-30.94 334.69,-37.77"/>
</a>
</g>
</g>
<!-- Node3 -->
<g id="Node000003" class="node">
<title>Node3</title>
<g id="a_Node000003"><a xlink:href="class_config_manager.html#a0497343220fc493f5cf9574922508908" target="_top" xlink:title="Initialize the configuration system.">
<polygon fill="white" stroke="#666666" points="111.25,-62.25 0,-62.25 0,-43 111.25,-43 111.25,-62.25"/>
<text xml:space="preserve" text-anchor="middle" x="55.62" y="-48.75" font-family="Helvetica,sans-Serif" font-size="10.00">ConfigManager::begin</text>
</a>
</g>
</g>
<!-- Node2&#45;&gt;Node3 -->
<g id="edge2_Node000002_Node000003" class="edge">
<title>Node2&#45;&gt;Node3</title>
<g id="a_edge2_Node000002_Node000003"><a xlink:title=" ">
<path fill="none" stroke="#63b8ff" d="M171.94,-82.8C163.67,-80.76 155.22,-78.65 147.25,-76.62 129.74,-72.17 110.38,-67.07 94.06,-62.72"/>
<polygon fill="#63b8ff" stroke="#63b8ff" points="171.04,-86.18 181.59,-85.16 172.71,-79.38 171.04,-86.18"/>
</a>
</g>
</g>
<!-- Node5&#45;&gt;Node3 -->
<g id="edge5_Node000005_Node000003" class="edge">
<title>Node5&#45;&gt;Node3</title>
<g id="a_edge5_Node000005_Node000003"><a xlink:title=" ">
<path fill="none" stroke="#63b8ff" d="M171.94,-22.45C163.67,-24.49 155.22,-26.6 147.25,-28.62 129.74,-33.08 110.38,-38.18 94.06,-42.53"/>
<polygon fill="#63b8ff" stroke="#63b8ff" points="172.71,-25.87 181.59,-20.09 171.04,-19.07 172.71,-25.87"/>
</a>
</g>
</g>
</g>
</svg>
