<?xml version="1.0" encoding="UTF-8" standalone="no"?>
<!DOCTYPE svg PUBLIC "-//W3C//DTD SVG 1.1//EN"
 "http://www.w3.org/Graphics/SVG/1.1/DTD/svg11.dtd">
<!-- Generated by graphviz version 13.1.0 (20250701.0955)
 -->
<!-- Title: TemperatureController::getMeasurementPoint Pages: 1 -->
<svg width="1268pt" height="284pt"
 viewBox="0.00 0.00 1268.00 284.00" xmlns="http://www.w3.org/2000/svg" xmlns:xlink="http://www.w3.org/1999/xlink">
<g id="graph0" class="graph" transform="scale(1 1) rotate(0) translate(4 279.5)">
<title>TemperatureController::getMeasurementPoint</title>
<!-- Node1 -->
<g id="Node000001" class="node">
<title>Node1</title>
<g id="a_Node000001"><a xlink:title="Get measurement point by address.">
<polygon fill="#999999" stroke="#666666" points="1259.75,-152.5 1142.5,-152.5 1142.5,-122 1259.75,-122 1259.75,-152.5"/>
<text xml:space="preserve" text-anchor="start" x="1150.5" y="-139" font-family="Helvetica,sans-Serif" font-size="10.00">TemperatureController</text>
<text xml:space="preserve" text-anchor="middle" x="1201.12" y="-127.75" font-family="Helvetica,sans-Serif" font-size="10.00">::getMeasurementPoint</text>
</a>
</g>
</g>
<!-- Node2 -->
<g id="Node000002" class="node">
<title>Node2</title>
<g id="a_Node000002"><a xlink:href="class_temperature_controller.html#ac5c3403746d7c850bf7929bf5ee3448a" target="_top" xlink:title="Add alarm configuration.">
<polygon fill="white" stroke="#666666" points="1078.75,-275.5 966.75,-275.5 966.75,-245 1078.75,-245 1078.75,-275.5"/>
<text xml:space="preserve" text-anchor="start" x="974.75" y="-262" font-family="Helvetica,sans-Serif" font-size="10.00">TemperatureController</text>
<text xml:space="preserve" text-anchor="middle" x="1022.75" y="-250.75" font-family="Helvetica,sans-Serif" font-size="10.00">::addAlarm</text>
</a>
</g>
</g>
<!-- Node1&#45;&gt;Node2 -->
<g id="edge1_Node000001_Node000002" class="edge">
<title>Node1&#45;&gt;Node2</title>
<g id="a_edge1_Node000001_Node000002"><a xlink:title=" ">
<path fill="none" stroke="#63b8ff" d="M1182.43,-162.04C1165.36,-184.24 1137.59,-216.15 1106.5,-235.25 1098.06,-240.43 1088.47,-244.61 1078.89,-247.95"/>
<polygon fill="#63b8ff" stroke="#63b8ff" points="1185.18,-164.21 1188.38,-154.11 1179.58,-160.01 1185.18,-164.21"/>
</a>
</g>
</g>
<!-- Node3 -->
<g id="Node000003" class="node">
<title>Node3</title>
<g id="a_Node000003"><a xlink:href="class_temperature_controller.html#af4ab2c7b7a3934ab7837603a420b1ae2" target="_top" xlink:title="Bind sensor to measurement point by bus number.">
<polygon fill="white" stroke="#666666" points="1106.5,-226.5 939,-226.5 939,-196 1106.5,-196 1106.5,-226.5"/>
<text xml:space="preserve" text-anchor="start" x="947" y="-213" font-family="Helvetica,sans-Serif" font-size="10.00">TemperatureController</text>
<text xml:space="preserve" text-anchor="middle" x="1022.75" y="-201.75" font-family="Helvetica,sans-Serif" font-size="10.00">::bindSensorToPointByBusNumber</text>
</a>
</g>
</g>
<!-- Node1&#45;&gt;Node3 -->
<g id="edge2_Node000001_Node000003" class="edge">
<title>Node1&#45;&gt;Node3</title>
<g id="a_edge2_Node000001_Node000003"><a xlink:title=" ">
<path fill="none" stroke="#63b8ff" d="M1164.14,-158.12C1147.04,-167.51 1126.09,-178.25 1106.5,-186.25 1098.3,-189.6 1089.49,-192.73 1080.78,-195.57"/>
<polygon fill="#63b8ff" stroke="#63b8ff" points="1165.37,-161.44 1172.4,-153.52 1161.96,-155.33 1165.37,-161.44"/>
</a>
</g>
</g>
<!-- Node4 -->
<g id="Node000004" class="node">
<title>Node4</title>
<g id="a_Node000004"><a xlink:href="class_temperature_controller.html#a84937fc1aed30193b817f3b062ce0cfc" target="_top" xlink:title="Bind PT1000 sensor to measurement point by chip select pin.">
<polygon fill="white" stroke="#666666" points="1104.62,-177.5 940.88,-177.5 940.88,-147 1104.62,-147 1104.62,-177.5"/>
<text xml:space="preserve" text-anchor="start" x="948.88" y="-164" font-family="Helvetica,sans-Serif" font-size="10.00">TemperatureController</text>
<text xml:space="preserve" text-anchor="middle" x="1022.75" y="-152.75" font-family="Helvetica,sans-Serif" font-size="10.00">::bindSensorToPointByChipSelect</text>
</a>
</g>
</g>
<!-- Node1&#45;&gt;Node4 -->
<g id="edge3_Node000001_Node000004" class="edge">
<title>Node1&#45;&gt;Node4</title>
<g id="a_edge3_Node000001_Node000004"><a xlink:title=" ">
<path fill="none" stroke="#63b8ff" d="M1131.24,-147.01C1122.63,-148.23 1113.77,-149.49 1105,-150.73"/>
<polygon fill="#63b8ff" stroke="#63b8ff" points="1131.46,-150.52 1140.87,-145.65 1130.48,-143.59 1131.46,-150.52"/>
</a>
</g>
</g>
<!-- Node5 -->
<g id="Node000005" class="node">
<title>Node5</title>
<g id="a_Node000005"><a xlink:href="class_temperature_controller.html#a5d8f7c51bb176435a5035293a2db78f7" target="_top" xlink:title="Bind sensor to measurement point by ROM address.">
<polygon fill="white" stroke="#666666" points="1091.12,-128.5 954.38,-128.5 954.38,-98 1091.12,-98 1091.12,-128.5"/>
<text xml:space="preserve" text-anchor="start" x="962.38" y="-115" font-family="Helvetica,sans-Serif" font-size="10.00">TemperatureController</text>
<text xml:space="preserve" text-anchor="middle" x="1022.75" y="-103.75" font-family="Helvetica,sans-Serif" font-size="10.00">::bindSensorToPointByRom</text>
</a>
</g>
</g>
<!-- Node1&#45;&gt;Node5 -->
<g id="edge4_Node000001_Node000005" class="edge">
<title>Node1&#45;&gt;Node5</title>
<g id="a_edge4_Node000001_Node000005"><a xlink:title=" ">
<path fill="none" stroke="#63b8ff" d="M1131.1,-127.86C1118.06,-126.08 1104.44,-124.23 1091.44,-122.46"/>
<polygon fill="#63b8ff" stroke="#63b8ff" points="1130.49,-131.31 1140.87,-129.19 1131.44,-124.37 1130.49,-131.31"/>
</a>
</g>
</g>
<!-- Node6 -->
<g id="Node000006" class="node">
<title>Node6</title>
<g id="a_Node000006"><a xlink:href="class_temperature_controller.html#a9b4fe09d4c87dcf86e78b890012e1e72" target="_top" xlink:title="Get sensor bound to measurement point.">
<polygon fill="white" stroke="#666666" points="1078.75,-79.5 966.75,-79.5 966.75,-49 1078.75,-49 1078.75,-79.5"/>
<text xml:space="preserve" text-anchor="start" x="974.75" y="-66" font-family="Helvetica,sans-Serif" font-size="10.00">TemperatureController</text>
<text xml:space="preserve" text-anchor="middle" x="1022.75" y="-54.75" font-family="Helvetica,sans-Serif" font-size="10.00">::getBoundSensor</text>
</a>
</g>
</g>
<!-- Node1&#45;&gt;Node6 -->
<g id="edge5_Node000001_Node000006" class="edge">
<title>Node1&#45;&gt;Node6</title>
<g id="a_edge5_Node000001_Node000006"><a xlink:title=" ">
<path fill="none" stroke="#63b8ff" d="M1162.87,-116.19C1145.99,-107.16 1125.58,-96.95 1106.5,-89.25 1097.73,-85.71 1088.27,-82.4 1078.98,-79.42"/>
<polygon fill="#63b8ff" stroke="#63b8ff" points="1161.09,-119.21 1171.55,-120.9 1164.43,-113.06 1161.09,-119.21"/>
</a>
</g>
</g>
<!-- Node16 -->
<g id="Node000016" class="node">
<title>Node16</title>
<g id="a_Node000016"><a xlink:href="class_temperature_controller.html#a261c9b96540ec6680dfffd3a26e4ca00" target="_top" xlink:title="Unbind sensor from measurement point.">
<polygon fill="white" stroke="#666666" points="1085.88,-30.5 959.62,-30.5 959.62,0 1085.88,0 1085.88,-30.5"/>
<text xml:space="preserve" text-anchor="start" x="967.62" y="-17" font-family="Helvetica,sans-Serif" font-size="10.00">TemperatureController</text>
<text xml:space="preserve" text-anchor="middle" x="1022.75" y="-5.75" font-family="Helvetica,sans-Serif" font-size="10.00">::unbindSensorFromPoint</text>
</a>
</g>
</g>
<!-- Node1&#45;&gt;Node16 -->
<g id="edge17_Node000001_Node000016" class="edge">
<title>Node1&#45;&gt;Node16</title>
<g id="a_edge17_Node000001_Node000016"><a xlink:title=" ">
<path fill="none" stroke="#63b8ff" d="M1182.38,-112.72C1165.27,-90.75 1137.47,-59.16 1106.5,-40.25 1100.22,-36.42 1093.32,-33.14 1086.26,-30.34"/>
<polygon fill="#63b8ff" stroke="#63b8ff" points="1179.5,-114.71 1188.33,-120.56 1185.08,-110.48 1179.5,-114.71"/>
</a>
</g>
</g>
<!-- Node7 -->
<g id="Node000007" class="node">
<title>Node7</title>
<g id="a_Node000007"><a xlink:href="class_temperature_controller.html#a45d13ed72fd36b46820af631e4db958b" target="_top" xlink:title="Display system stats page.">
<polygon fill="white" stroke="#666666" points="901.5,-128.5 786.5,-128.5 786.5,-98 901.5,-98 901.5,-128.5"/>
<text xml:space="preserve" text-anchor="start" x="794.5" y="-115" font-family="Helvetica,sans-Serif" font-size="10.00">TemperatureController</text>
<text xml:space="preserve" text-anchor="middle" x="844" y="-103.75" font-family="Helvetica,sans-Serif" font-size="10.00">::_displaySystemStats</text>
</a>
</g>
</g>
<!-- Node6&#45;&gt;Node7 -->
<g id="edge6_Node000006_Node000007" class="edge">
<title>Node6&#45;&gt;Node7</title>
<g id="a_edge6_Node000006_Node000007"><a xlink:title=" ">
<path fill="none" stroke="#63b8ff" d="M955.24,-82.69C937.64,-87.57 918.8,-92.79 901.77,-97.51"/>
<polygon fill="#63b8ff" stroke="#63b8ff" points="956.15,-86.07 964.85,-80.02 954.28,-79.32 956.15,-86.07"/>
</a>
</g>
</g>
<!-- Node13 -->
<g id="Node000013" class="node">
<title>Node13</title>
<g id="a_Node000013"><a xlink:href="class_temperature_controller.html#a4e4770607486ebfc6eacafa704945c23" target="_top" xlink:title="Remove sensor by ROM address string.">
<polygon fill="white" stroke="#666666" points="903,-79.5 785,-79.5 785,-49 903,-49 903,-79.5"/>
<text xml:space="preserve" text-anchor="start" x="793" y="-66" font-family="Helvetica,sans-Serif" font-size="10.00">TemperatureController</text>
<text xml:space="preserve" text-anchor="middle" x="844" y="-54.75" font-family="Helvetica,sans-Serif" font-size="10.00">::removeSensorByRom</text>
</a>
</g>
</g>
<!-- Node6&#45;&gt;Node13 -->
<g id="edge13_Node000006_Node000013" class="edge">
<title>Node6&#45;&gt;Node13</title>
<g id="a_edge13_Node000006_Node000013"><a xlink:title=" ">
<path fill="none" stroke="#63b8ff" d="M955.28,-64.25C938.19,-64.25 919.94,-64.25 903.3,-64.25"/>
<polygon fill="#63b8ff" stroke="#63b8ff" points="954.8,-67.75 964.8,-64.25 954.8,-60.75 954.8,-67.75"/>
</a>
</g>
</g>
<!-- Node15 -->
<g id="Node000015" class="node">
<title>Node15</title>
<g id="a_Node000015"><a xlink:href="class_temperature_controller.html#a5ac8af90de5dfd79a9a2e4c7270a98a3" target="_top" xlink:title="Update alarm states for all measurement points.">
<polygon fill="white" stroke="#666666" points="563.5,-57.5 451.5,-57.5 451.5,-27 563.5,-27 563.5,-57.5"/>
<text xml:space="preserve" text-anchor="start" x="459.5" y="-44" font-family="Helvetica,sans-Serif" font-size="10.00">TemperatureController</text>
<text xml:space="preserve" text-anchor="middle" x="507.5" y="-32.75" font-family="Helvetica,sans-Serif" font-size="10.00">::updateAlarms</text>
</a>
</g>
</g>
<!-- Node6&#45;&gt;Node15 -->
<g id="edge15_Node000006_Node000015" class="edge">
<title>Node6&#45;&gt;Node15</title>
<g id="a_edge15_Node000006_Node000015"><a xlink:title=" ">
<path fill="none" stroke="#63b8ff" d="M955.55,-48.44C938.53,-45.05 920.17,-41.97 903,-40.25 782.54,-28.2 640.37,-33.74 563.88,-38.33"/>
<polygon fill="#63b8ff" stroke="#63b8ff" points="954.53,-51.81 965.04,-50.4 955.95,-44.95 954.53,-51.81"/>
</a>
</g>
</g>
<!-- Node8 -->
<g id="Node000008" class="node">
<title>Node8</title>
<g id="a_Node000008"><a xlink:href="class_temperature_controller.html#a45f7994a3a052a527981dbfdad27606b" target="_top" xlink:title="Handle system status mode display.">
<polygon fill="white" stroke="#666666" points="749,-128.5 607,-128.5 607,-98 749,-98 749,-128.5"/>
<text xml:space="preserve" text-anchor="start" x="615" y="-115" font-family="Helvetica,sans-Serif" font-size="10.00">TemperatureController</text>
<text xml:space="preserve" text-anchor="middle" x="678" y="-103.75" font-family="Helvetica,sans-Serif" font-size="10.00">::_handleSystemStatusMode</text>
</a>
</g>
</g>
<!-- Node7&#45;&gt;Node8 -->
<g id="edge7_Node000007_Node000008" class="edge">
<title>Node7&#45;&gt;Node8</title>
<g id="a_edge7_Node000007_Node000008"><a xlink:title=" ">
<path fill="none" stroke="#63b8ff" d="M774.81,-113.25C766.41,-113.25 757.81,-113.25 749.38,-113.25"/>
<polygon fill="#63b8ff" stroke="#63b8ff" points="774.59,-116.75 784.59,-113.25 774.59,-109.75 774.59,-116.75"/>
</a>
</g>
</g>
<!-- Node9 -->
<g id="Node000009" class="node">
<title>Node9</title>
<g id="a_Node000009"><a xlink:href="class_temperature_controller.html#a6b2f92b5c2af867240200cff2e61e806" target="_top" xlink:title="Handle display section switching.">
<polygon fill="white" stroke="#666666" points="571,-117.5 444,-117.5 444,-87 571,-87 571,-117.5"/>
<text xml:space="preserve" text-anchor="start" x="452" y="-104" font-family="Helvetica,sans-Serif" font-size="10.00">TemperatureController</text>
<text xml:space="preserve" text-anchor="middle" x="507.5" y="-92.75" font-family="Helvetica,sans-Serif" font-size="10.00">::_handleDisplaySections</text>
</a>
</g>
</g>
<!-- Node8&#45;&gt;Node9 -->
<g id="edge8_Node000008_Node000009" class="edge">
<title>Node8&#45;&gt;Node9</title>
<g id="a_edge8_Node000008_Node000009"><a xlink:title=" ">
<path fill="none" stroke="#63b8ff" d="M595.26,-107.91C587.26,-107.39 579.23,-106.87 571.46,-106.36"/>
<polygon fill="#63b8ff" stroke="#63b8ff" points="594.8,-111.39 605.01,-108.55 595.26,-104.41 594.8,-111.39"/>
</a>
</g>
</g>
<!-- Node10 -->
<g id="Node000010" class="node">
<title>Node10</title>
<g id="a_Node000010"><a xlink:href="class_temperature_controller.html#a5637103784725fb1a73f6463d7cbfde6" target="_top" xlink:title="Handle alarm display on OLED/LEDs.">
<polygon fill="white" stroke="#666666" points="408,-104.5 296,-104.5 296,-74 408,-74 408,-104.5"/>
<text xml:space="preserve" text-anchor="start" x="304" y="-91" font-family="Helvetica,sans-Serif" font-size="10.00">TemperatureController</text>
<text xml:space="preserve" text-anchor="middle" x="352" y="-79.75" font-family="Helvetica,sans-Serif" font-size="10.00">::handleAlarmDisplay</text>
</a>
</g>
</g>
<!-- Node9&#45;&gt;Node10 -->
<g id="edge9_Node000009_Node000010" class="edge">
<title>Node9&#45;&gt;Node10</title>
<g id="a_edge9_Node000009_Node000010"><a xlink:title=" ">
<path fill="none" stroke="#63b8ff" d="M432.22,-95.96C424.12,-95.27 415.98,-94.58 408.16,-93.92"/>
<polygon fill="#63b8ff" stroke="#63b8ff" points="431.85,-99.44 442.11,-96.8 432.45,-92.47 431.85,-99.44"/>
</a>
</g>
</g>
<!-- Node11 -->
<g id="Node000011" class="node">
<title>Node11</title>
<g id="a_Node000011"><a xlink:href="class_temperature_controller.html#aca5deddbf703001373424d876f87b5f2" target="_top" xlink:title="Main update function &#45; must be called in loop()">
<polygon fill="white" stroke="#666666" points="260,-81.5 148,-81.5 148,-51 260,-51 260,-81.5"/>
<text xml:space="preserve" text-anchor="start" x="156" y="-68" font-family="Helvetica,sans-Serif" font-size="10.00">TemperatureController</text>
<text xml:space="preserve" text-anchor="middle" x="204" y="-56.75" font-family="Helvetica,sans-Serif" font-size="10.00">::update</text>
</a>
</g>
</g>
<!-- Node10&#45;&gt;Node11 -->
<g id="edge10_Node000010_Node000011" class="edge">
<title>Node10&#45;&gt;Node11</title>
<g id="a_edge10_Node000010_Node000011"><a xlink:title=" ">
<path fill="none" stroke="#63b8ff" d="M284.47,-78.77C276.38,-77.49 268.18,-76.2 260.27,-74.96"/>
<polygon fill="#63b8ff" stroke="#63b8ff" points="283.89,-82.22 294.31,-80.32 284.98,-75.31 283.89,-82.22"/>
</a>
</g>
</g>
<!-- Node12 -->
<g id="Node000012" class="node">
<title>Node12</title>
<g id="a_Node000012"><a xlink:href="class_temperature_controller.html#a11948a87fe7df37543b86ecdd488b341" target="_top" xlink:title="Read temperature from all configured measurement points.">
<polygon fill="white" stroke="#666666" points="112,-81.5 0,-81.5 0,-51 112,-51 112,-81.5"/>
<text xml:space="preserve" text-anchor="start" x="8" y="-68" font-family="Helvetica,sans-Serif" font-size="10.00">TemperatureController</text>
<text xml:space="preserve" text-anchor="middle" x="56" y="-56.75" font-family="Helvetica,sans-Serif" font-size="10.00">::readAllPoints</text>
</a>
</g>
</g>
<!-- Node11&#45;&gt;Node12 -->
<g id="edge11_Node000011_Node000012" class="edge">
<title>Node11&#45;&gt;Node12</title>
<g id="a_edge11_Node000011_Node000012"><a xlink:title=" ">
<path fill="none" stroke="#63b8ff" d="M136.47,-59.52C128.38,-59.46 120.18,-59.52 112.27,-59.68"/>
<polygon fill="#63b8ff" stroke="#63b8ff" points="136.24,-63.02 146.29,-59.66 136.34,-56.02 136.24,-63.02"/>
</a>
</g>
</g>
<!-- Node12&#45;&gt;Node11 -->
<g id="edge12_Node000012_Node000011" class="edge">
<title>Node12&#45;&gt;Node11</title>
<g id="a_edge12_Node000012_Node000011"><a xlink:title=" ">
<path fill="none" stroke="#63b8ff" d="M123.61,-72.98C131.7,-73.04 139.9,-72.98 147.8,-72.82"/>
<polygon fill="#63b8ff" stroke="#63b8ff" points="123.84,-69.48 113.79,-72.84 123.74,-76.48 123.84,-69.48"/>
</a>
</g>
</g>
<!-- Node14 -->
<g id="Node000014" class="node">
<title>Node14</title>
<g id="a_Node000014"><a xlink:href="class_temperature_controller.html#a57b74b40c88016965d07248981412f7d" target="_top" xlink:title="Discover DS18B20 sensors on all OneWire buses.">
<polygon fill="white" stroke="#666666" points="746.38,-79.5 609.62,-79.5 609.62,-49 746.38,-49 746.38,-79.5"/>
<text xml:space="preserve" text-anchor="start" x="617.62" y="-66" font-family="Helvetica,sans-Serif" font-size="10.00">TemperatureController</text>
<text xml:space="preserve" text-anchor="middle" x="678" y="-54.75" font-family="Helvetica,sans-Serif" font-size="10.00">::discoverDS18B20Sensors</text>
</a>
</g>
</g>
<!-- Node13&#45;&gt;Node14 -->
<g id="edge14_Node000013_Node000014" class="edge">
<title>Node13&#45;&gt;Node14</title>
<g id="a_edge14_Node000013_Node000014"><a xlink:title=" ">
<path fill="none" stroke="#63b8ff" d="M773.26,-64.25C764.43,-64.25 755.41,-64.25 746.61,-64.25"/>
<polygon fill="#63b8ff" stroke="#63b8ff" points="773.2,-67.75 783.2,-64.25 773.2,-60.75 773.2,-67.75"/>
</a>
</g>
</g>
<!-- Node15&#45;&gt;Node11 -->
<g id="edge16_Node000015_Node000011" class="edge">
<title>Node15&#45;&gt;Node11</title>
<g id="a_edge16_Node000015_Node000011"><a xlink:title=" ">
<path fill="none" stroke="#63b8ff" d="M440.04,-47.54C386.17,-51.83 311.14,-57.8 260.46,-61.84"/>
<polygon fill="#63b8ff" stroke="#63b8ff" points="440,-51.05 449.69,-46.77 439.45,-44.08 440,-51.05"/>
</a>
</g>
</g>
</g>
</svg>
