<?xml version="1.0" encoding="UTF-8" standalone="no"?>
<!DOCTYPE svg PUBLIC "-//W3C//DTD SVG 1.1//EN"
 "http://www.w3.org/Graphics/SVG/1.1/DTD/svg11.dtd">
<!-- Generated by graphviz version 13.1.0 (20250701.0955)
 -->
<!-- Title: ConfigManager::savePointsConfig Pages: 1 -->
<svg width="468pt" height="199pt"
 viewBox="0.00 0.00 468.00 199.00" xmlns="http://www.w3.org/2000/svg" xmlns:xlink="http://www.w3.org/1999/xlink">
<g id="graph0" class="graph" transform="scale(1 1) rotate(0) translate(4 194.88)">
<title>ConfigManager::savePointsConfig</title>
<!-- Node1 -->
<g id="Node000001" class="node">
<title>Node1</title>
<g id="a_Node000001"><a xlink:title="Save measurement points configuration to file.">
<polygon fill="#999999" stroke="#666666" points="459.75,-110.5 323,-110.5 323,-80 459.75,-80 459.75,-110.5"/>
<text xml:space="preserve" text-anchor="start" x="331" y="-97" font-family="Helvetica,sans-Serif" font-size="10.00">ConfigManager::savePoints</text>
<text xml:space="preserve" text-anchor="middle" x="391.38" y="-85.75" font-family="Helvetica,sans-Serif" font-size="10.00">Config</text>
</a>
</g>
</g>
<!-- Node2 -->
<g id="Node000002" class="node">
<title>Node2</title>
<g id="a_Node000002"><a xlink:href="$class_config_manager.html#ae605c999fabc6344511f455618655326" xlink:title="Setup alarms API endpoints.">
<polygon fill="white" stroke="#666666" points="284,-190.88 150.25,-190.88 150.25,-171.62 284,-171.62 284,-190.88"/>
<text xml:space="preserve" text-anchor="middle" x="217.12" y="-177.38" font-family="Helvetica,sans-Serif" font-size="10.00">ConfigManager::alarmsAPI</text>
</a>
</g>
</g>
<!-- Node1&#45;&gt;Node2 -->
<g id="edge1_Node000001_Node000002" class="edge">
<title>Node1&#45;&gt;Node2</title>
<g id="a_edge1_Node000001_Node000002"><a xlink:title=" ">
<path fill="none" stroke="#63b8ff" d="M361.3,-117.56C341.31,-132 313.66,-150.28 287,-162.25 279.31,-165.71 270.84,-168.67 262.55,-171.15"/>
<polygon fill="#63b8ff" stroke="#63b8ff" points="363.26,-120.46 369.24,-111.71 359.11,-114.82 363.26,-120.46"/>
</a>
</g>
</g>
<!-- Node4 -->
<g id="Node000004" class="node">
<title>Node4</title>
<g id="a_Node000004"><a xlink:href="$class_config_manager.html#a9b7af07b85bf9cc3ac05603db6e89fd2" xlink:title="Setup CSV import/export API endpoints.">
<polygon fill="white" stroke="#666666" points="282.88,-153.5 151.38,-153.5 151.38,-123 282.88,-123 282.88,-153.5"/>
<text xml:space="preserve" text-anchor="start" x="159.38" y="-140" font-family="Helvetica,sans-Serif" font-size="10.00">ConfigManager::csvImport</text>
<text xml:space="preserve" text-anchor="middle" x="217.12" y="-128.75" font-family="Helvetica,sans-Serif" font-size="10.00">ExportAPI</text>
</a>
</g>
</g>
<!-- Node1&#45;&gt;Node4 -->
<g id="edge3_Node000001_Node000004" class="edge">
<title>Node1&#45;&gt;Node4</title>
<g id="a_edge3_Node000001_Node000004"><a xlink:title=" ">
<path fill="none" stroke="#63b8ff" d="M316.87,-113.6C304.94,-116.58 292.69,-119.64 281.04,-122.54"/>
<polygon fill="#63b8ff" stroke="#63b8ff" points="317.38,-117.08 326.23,-111.26 315.68,-110.29 317.38,-117.08"/>
</a>
</g>
</g>
<!-- Node5 -->
<g id="Node000005" class="node">
<title>Node5</title>
<g id="a_Node000005"><a xlink:href="$class_config_manager.html#a471a844085c27f3a8a8f9394d9c14677" xlink:title="Setup measurement points API endpoints.">
<polygon fill="white" stroke="#666666" points="282.5,-104.88 151.75,-104.88 151.75,-85.62 282.5,-85.62 282.5,-104.88"/>
<text xml:space="preserve" text-anchor="middle" x="217.12" y="-91.38" font-family="Helvetica,sans-Serif" font-size="10.00">ConfigManager::pointsAPI</text>
</a>
</g>
</g>
<!-- Node1&#45;&gt;Node5 -->
<g id="edge5_Node000001_Node000005" class="edge">
<title>Node1&#45;&gt;Node5</title>
<g id="a_edge5_Node000001_Node000005"><a xlink:title=" ">
<path fill="none" stroke="#63b8ff" d="M311.31,-95.25C301.83,-95.25 292.23,-95.25 282.98,-95.25"/>
<polygon fill="#63b8ff" stroke="#63b8ff" points="311.28,-98.75 321.28,-95.25 311.28,-91.75 311.28,-98.75"/>
</a>
</g>
</g>
<!-- Node6 -->
<g id="Node000006" class="node">
<title>Node6</title>
<g id="a_Node000006"><a xlink:href="$class_config_manager.html#a45b1ce1f09401af0b6f700cf4388b233" xlink:title="Setup sensor&#45;related API endpoints.">
<polygon fill="white" stroke="#666666" points="284,-67.88 150.25,-67.88 150.25,-48.62 284,-48.62 284,-67.88"/>
<text xml:space="preserve" text-anchor="middle" x="217.12" y="-54.38" font-family="Helvetica,sans-Serif" font-size="10.00">ConfigManager::sensorAPI</text>
</a>
</g>
</g>
<!-- Node1&#45;&gt;Node6 -->
<g id="edge7_Node000001_Node000006" class="edge">
<title>Node1&#45;&gt;Node6</title>
<g id="a_edge7_Node000001_Node000006"><a xlink:title=" ">
<path fill="none" stroke="#63b8ff" d="M311.81,-78.37C295.83,-74.94 279.51,-71.43 265.05,-68.33"/>
<polygon fill="#63b8ff" stroke="#63b8ff" points="310.8,-81.74 321.31,-80.41 312.27,-74.89 310.8,-81.74"/>
</a>
</g>
</g>
<!-- Node7 -->
<g id="Node000007" class="node">
<title>Node7</title>
<g id="a_Node000007"><a xlink:href="$class_config_manager.html#a0daf50bbd376beb24a5400a86e893338" xlink:title="Update a measurement point in configuration.">
<polygon fill="white" stroke="#666666" points="287,-30.5 147.25,-30.5 147.25,0 287,0 287,-30.5"/>
<text xml:space="preserve" text-anchor="start" x="155.25" y="-17" font-family="Helvetica,sans-Serif" font-size="10.00">ConfigManager::updatePoint</text>
<text xml:space="preserve" text-anchor="middle" x="217.12" y="-5.75" font-family="Helvetica,sans-Serif" font-size="10.00">InConfig</text>
</a>
</g>
</g>
<!-- Node1&#45;&gt;Node7 -->
<g id="edge9_Node000001_Node000007" class="edge">
<title>Node1&#45;&gt;Node7</title>
<g id="a_edge9_Node000001_Node000007"><a xlink:title=" ">
<path fill="none" stroke="#63b8ff" d="M354.21,-73.8C334.69,-62.7 309.95,-49.39 287,-39.25 280.4,-36.33 273.32,-33.53 266.31,-30.92"/>
<polygon fill="#63b8ff" stroke="#63b8ff" points="352.47,-76.83 362.88,-78.78 355.96,-70.76 352.47,-76.83"/>
</a>
</g>
</g>
<!-- Node3 -->
<g id="Node000003" class="node">
<title>Node3</title>
<g id="a_Node000003"><a xlink:href="$class_config_manager.html#a0497343220fc493f5cf9574922508908" xlink:title="Initialize the configuration system.">
<polygon fill="white" stroke="#666666" points="111.25,-125.88 0,-125.88 0,-106.62 111.25,-106.62 111.25,-125.88"/>
<text xml:space="preserve" text-anchor="middle" x="55.62" y="-112.38" font-family="Helvetica,sans-Serif" font-size="10.00">ConfigManager::begin</text>
</a>
</g>
</g>
<!-- Node2&#45;&gt;Node3 -->
<g id="edge2_Node000002_Node000003" class="edge">
<title>Node2&#45;&gt;Node3</title>
<g id="a_edge2_Node000002_Node000003"><a xlink:title=" ">
<path fill="none" stroke="#63b8ff" d="M163.75,-167.99C158.13,-166.22 152.54,-164.3 147.25,-162.25 120.76,-151.99 91.74,-136.44 73.86,-126.31"/>
<polygon fill="#63b8ff" stroke="#63b8ff" points="162.5,-171.27 173.08,-170.79 164.51,-164.57 162.5,-171.27"/>
</a>
</g>
</g>
<!-- Node4&#45;&gt;Node3 -->
<g id="edge4_Node000004_Node000003" class="edge">
<title>Node4&#45;&gt;Node3</title>
<g id="a_edge4_Node000004_Node000003"><a xlink:title=" ">
<path fill="none" stroke="#63b8ff" d="M140.09,-127.76C130.53,-126.44 120.89,-125.11 111.74,-123.85"/>
<polygon fill="#63b8ff" stroke="#63b8ff" points="139.37,-131.2 149.75,-129.09 140.32,-124.26 139.37,-131.2"/>
</a>
</g>
</g>
<!-- Node5&#45;&gt;Node3 -->
<g id="edge6_Node000005_Node000003" class="edge">
<title>Node5&#45;&gt;Node3</title>
<g id="a_edge6_Node000005_Node000003"><a xlink:title=" ">
<path fill="none" stroke="#63b8ff" d="M140.09,-105.26C130.53,-106.52 120.89,-107.79 111.74,-108.99"/>
<polygon fill="#63b8ff" stroke="#63b8ff" points="140.29,-108.76 149.75,-103.99 139.38,-101.82 140.29,-108.76"/>
</a>
</g>
</g>
<!-- Node6&#45;&gt;Node3 -->
<g id="edge8_Node000006_Node000003" class="edge">
<title>Node6&#45;&gt;Node3</title>
<g id="a_edge8_Node000006_Node000003"><a xlink:title=" ">
<path fill="none" stroke="#63b8ff" d="M162.13,-71.48C157.06,-72.98 152.04,-74.58 147.25,-76.25 122.41,-84.92 94.89,-97.51 76.77,-106.24"/>
<polygon fill="#63b8ff" stroke="#63b8ff" points="163.07,-74.85 171.73,-68.75 161.15,-68.11 163.07,-74.85"/>
</a>
</g>
</g>
</g>
</svg>
