<?xml version="1.0" encoding="UTF-8" standalone="no"?>
<!DOCTYPE svg PUBLIC "-//W3C//DTD SVG 1.1//EN"
 "http://www.w3.org/Graphics/SVG/1.1/DTD/svg11.dtd">
<!-- Generated by graphviz version 13.1.0 (20250701.0955)
 -->
<!-- Title: IndicatorInterface::_drawTextLine Pages: 1 -->
<svg width="798pt" height="282pt"
 viewBox="0.00 0.00 798.00 282.00" xmlns="http://www.w3.org/2000/svg" xmlns:xlink="http://www.w3.org/1999/xlink">
<g id="graph0" class="graph" transform="scale(1 1) rotate(0) translate(4 277.5)">
<title>IndicatorInterface::_drawTextLine</title>
<!-- Node1 -->
<g id="Node000001" class="node">
<title>Node1</title>
<g id="a_Node000001"><a xlink:title="Draw single text line at specified position.">
<polygon fill="#999999" stroke="#666666" points="789.75,-152.5 698,-152.5 698,-122 789.75,-122 789.75,-152.5"/>
<text xml:space="preserve" text-anchor="start" x="706" y="-139" font-family="Helvetica,sans-Serif" font-size="10.00">IndicatorInterface</text>
<text xml:space="preserve" text-anchor="middle" x="743.88" y="-127.75" font-family="Helvetica,sans-Serif" font-size="10.00">::_drawTextLine</text>
</a>
</g>
</g>
<!-- Node2 -->
<g id="Node000002" class="node">
<title>Node2</title>
<g id="a_Node000002"><a xlink:href="$class_indicator_interface.html#a38acc1a5120e275253fc4e458aea91f0" xlink:title="Update OLED display content.">
<polygon fill="white" stroke="#666666" points="662,-152.5 545.5,-152.5 545.5,-122 662,-122 662,-152.5"/>
<text xml:space="preserve" text-anchor="start" x="553.5" y="-139" font-family="Helvetica,sans-Serif" font-size="10.00">IndicatorInterface</text>
<text xml:space="preserve" text-anchor="middle" x="603.75" y="-127.75" font-family="Helvetica,sans-Serif" font-size="10.00">::_updateOLEDDisplay</text>
</a>
</g>
</g>
<!-- Node1&#45;&gt;Node2 -->
<g id="edge1_Node000001_Node000002" class="edge">
<title>Node1&#45;&gt;Node2</title>
<g id="a_edge1_Node000001_Node000002"><a xlink:title=" ">
<path fill="none" stroke="#63b8ff" d="M686.23,-137.25C678.29,-137.25 670.13,-137.25 662.18,-137.25"/>
<polygon fill="#63b8ff" stroke="#63b8ff" points="686.13,-140.75 696.13,-137.25 686.13,-133.75 686.13,-140.75"/>
</a>
</g>
</g>
<!-- Node3 -->
<g id="Node000003" class="node">
<title>Node3</title>
<g id="a_Node000003"><a xlink:href="$class_indicator_interface.html#afc1bacc73d487f912d7a71f559e193ef" xlink:title="Handle OLED blinking.">
<polygon fill="white" stroke="#666666" points="362.62,-273.5 258.12,-273.5 258.12,-243 362.62,-243 362.62,-273.5"/>
<text xml:space="preserve" text-anchor="start" x="266.12" y="-260" font-family="Helvetica,sans-Serif" font-size="10.00">IndicatorInterface</text>
<text xml:space="preserve" text-anchor="middle" x="310.38" y="-248.75" font-family="Helvetica,sans-Serif" font-size="10.00">::_handleOLEDBlink</text>
</a>
</g>
</g>
<!-- Node2&#45;&gt;Node3 -->
<g id="edge2_Node000002_Node000003" class="edge">
<title>Node2&#45;&gt;Node3</title>
<g id="a_edge2_Node000002_Node000003"><a xlink:title=" ">
<path fill="none" stroke="#63b8ff" d="M579.3,-160.29C561.52,-176.52 535.74,-197.54 509.5,-210.25 462.67,-232.92 404.3,-245.38 363.08,-251.89"/>
<polygon fill="#63b8ff" stroke="#63b8ff" points="581.33,-163.18 586.25,-153.79 576.55,-158.06 581.33,-163.18"/>
</a>
</g>
</g>
<!-- Node6 -->
<g id="Node000006" class="node">
<title>Node6</title>
<g id="a_Node000006"><a xlink:href="$class_indicator_interface.html#a520ad5df9ff7c3f3b716b2b179e50a7e" xlink:title="Handle text scrolling.">
<polygon fill="white" stroke="#666666" points="357,-224.5 263.75,-224.5 263.75,-194 357,-194 357,-224.5"/>
<text xml:space="preserve" text-anchor="start" x="271.75" y="-211" font-family="Helvetica,sans-Serif" font-size="10.00">IndicatorInterface</text>
<text xml:space="preserve" text-anchor="middle" x="310.38" y="-199.75" font-family="Helvetica,sans-Serif" font-size="10.00">::_handleScrolling</text>
</a>
</g>
</g>
<!-- Node2&#45;&gt;Node6 -->
<g id="edge5_Node000002_Node000006" class="edge">
<title>Node2&#45;&gt;Node6</title>
<g id="a_edge5_Node000002_Node000006"><a xlink:title=" ">
<path fill="none" stroke="#63b8ff" d="M569.31,-158.67C552.1,-168.69 530.39,-179.8 509.5,-186.25 458.88,-201.89 398,-207.05 357.2,-208.67"/>
<polygon fill="#63b8ff" stroke="#63b8ff" points="570.8,-161.86 577.59,-153.73 567.21,-155.85 570.8,-161.86"/>
</a>
</g>
</g>
<!-- Node7 -->
<g id="Node000007" class="node">
<title>Node7</title>
<g id="a_Node000007"><a xlink:href="$class_indicator_interface.html#aa24a016a7358ca6f0c955794d5774512" xlink:title="Restore previously saved text.">
<polygon fill="white" stroke="#666666" points="509.5,-177.5 401.25,-177.5 401.25,-147 509.5,-147 509.5,-177.5"/>
<text xml:space="preserve" text-anchor="start" x="409.25" y="-164" font-family="Helvetica,sans-Serif" font-size="10.00">IndicatorInterface</text>
<text xml:space="preserve" text-anchor="middle" x="455.38" y="-152.75" font-family="Helvetica,sans-Serif" font-size="10.00">::_restoreCurrentText</text>
</a>
</g>
</g>
<!-- Node2&#45;&gt;Node7 -->
<g id="edge7_Node000002_Node000007" class="edge">
<title>Node2&#45;&gt;Node7</title>
<g id="a_edge7_Node000002_Node000007"><a xlink:title=" ">
<path fill="none" stroke="#63b8ff" d="M534.23,-148.95C526.03,-150.35 517.76,-151.77 509.82,-153.12"/>
<polygon fill="#63b8ff" stroke="#63b8ff" points="534.56,-152.45 543.83,-147.31 533.38,-145.55 534.56,-152.45"/>
</a>
</g>
</g>
<!-- Node10 -->
<g id="Node000010" class="node">
<title>Node10</title>
<g id="a_Node000010"><a xlink:href="$class_indicator_interface.html#ac3d970f4cfa8af402fa2538cf05e8cd6" xlink:title="Display text buffer on OLED.">
<polygon fill="white" stroke="#666666" points="501.25,-128.5 409.5,-128.5 409.5,-98 501.25,-98 501.25,-128.5"/>
<text xml:space="preserve" text-anchor="start" x="417.5" y="-115" font-family="Helvetica,sans-Serif" font-size="10.00">IndicatorInterface</text>
<text xml:space="preserve" text-anchor="middle" x="455.38" y="-103.75" font-family="Helvetica,sans-Serif" font-size="10.00">::printText</text>
</a>
</g>
</g>
<!-- Node2&#45;&gt;Node10 -->
<g id="edge11_Node000002_Node000010" class="edge">
<title>Node2&#45;&gt;Node10</title>
<g id="a_edge11_Node000002_Node000010"><a xlink:title=" ">
<path fill="none" stroke="#63b8ff" d="M534.26,-126.02C523.11,-124.19 511.82,-122.34 501.43,-120.64"/>
<polygon fill="#63b8ff" stroke="#63b8ff" points="533.39,-129.42 543.83,-127.59 534.52,-122.52 533.39,-129.42"/>
</a>
</g>
</g>
<!-- Node11 -->
<g id="Node000011" class="node">
<title>Node11</title>
<g id="a_Node000011"><a xlink:href="$class_indicator_interface.html#a3d7f75c8c69808ecc98d1e1fb272984d" xlink:title="Push new line to display, shifting others down.">
<polygon fill="white" stroke="#666666" points="501.25,-79.5 409.5,-79.5 409.5,-49 501.25,-49 501.25,-79.5"/>
<text xml:space="preserve" text-anchor="start" x="417.5" y="-66" font-family="Helvetica,sans-Serif" font-size="10.00">IndicatorInterface</text>
<text xml:space="preserve" text-anchor="middle" x="455.38" y="-54.75" font-family="Helvetica,sans-Serif" font-size="10.00">::pushLine</text>
</a>
</g>
</g>
<!-- Node2&#45;&gt;Node11 -->
<g id="edge12_Node000002_Node000011" class="edge">
<title>Node2&#45;&gt;Node11</title>
<g id="a_edge12_Node000002_Node000011"><a xlink:title=" ">
<path fill="none" stroke="#63b8ff" d="M563.2,-116.5C546.67,-107.93 527.22,-97.98 509.5,-89.25 503.28,-86.19 496.62,-82.99 490.19,-79.94"/>
<polygon fill="#63b8ff" stroke="#63b8ff" points="561.24,-119.42 571.73,-120.93 564.47,-113.21 561.24,-119.42"/>
</a>
</g>
</g>
<!-- Node12 -->
<g id="Node000012" class="node">
<title>Node12</title>
<g id="a_Node000012"><a xlink:href="$class_indicator_interface.html#a7d807749bff6ef06c128617b35f4dcce" xlink:title="Turn OLED display on.">
<polygon fill="white" stroke="#666666" points="501.25,-30.5 409.5,-30.5 409.5,0 501.25,0 501.25,-30.5"/>
<text xml:space="preserve" text-anchor="start" x="417.5" y="-17" font-family="Helvetica,sans-Serif" font-size="10.00">IndicatorInterface</text>
<text xml:space="preserve" text-anchor="middle" x="455.38" y="-5.75" font-family="Helvetica,sans-Serif" font-size="10.00">::setOLEDOn</text>
</a>
</g>
</g>
<!-- Node2&#45;&gt;Node12 -->
<g id="edge13_Node000002_Node000012" class="edge">
<title>Node2&#45;&gt;Node12</title>
<g id="a_edge13_Node000002_Node000012"><a xlink:title=" ">
<path fill="none" stroke="#63b8ff" d="M583.82,-113.03C566.29,-91.79 538.6,-61.13 509.5,-40.25 504.78,-36.86 499.53,-33.74 494.21,-30.94"/>
<polygon fill="#63b8ff" stroke="#63b8ff" points="580.94,-115.03 589.96,-120.6 586.38,-110.63 580.94,-115.03"/>
</a>
</g>
</g>
<!-- Node4 -->
<g id="Node000004" class="node">
<title>Node4</title>
<g id="a_Node000004"><a xlink:href="$class_indicator_interface.html#a5f9eaa4ad4d2da76bf9536a4dfad8723" xlink:title="Update OLED display (call in main loop)">
<polygon fill="white" stroke="#666666" points="219.5,-224.5 127.75,-224.5 127.75,-194 219.5,-194 219.5,-224.5"/>
<text xml:space="preserve" text-anchor="start" x="135.75" y="-211" font-family="Helvetica,sans-Serif" font-size="10.00">IndicatorInterface</text>
<text xml:space="preserve" text-anchor="middle" x="173.62" y="-199.75" font-family="Helvetica,sans-Serif" font-size="10.00">::updateOLED</text>
</a>
</g>
</g>
<!-- Node3&#45;&gt;Node4 -->
<g id="edge3_Node000003_Node000004" class="edge">
<title>Node3&#45;&gt;Node4</title>
<g id="a_edge3_Node000003_Node000004"><a xlink:title=" ">
<path fill="none" stroke="#63b8ff" d="M255.91,-238.81C243.22,-234.19 229.84,-229.33 217.68,-224.91"/>
<polygon fill="#63b8ff" stroke="#63b8ff" points="254.35,-241.97 264.95,-242.09 256.74,-235.39 254.35,-241.97"/>
</a>
</g>
</g>
<!-- Node5 -->
<g id="Node000005" class="node">
<title>Node5</title>
<g id="a_Node000005"><a xlink:href="$class_indicator_interface.html#a01db31cebc14d62f6aa9b1266e6c278d" xlink:title="Update interface state (call in main loop)">
<polygon fill="white" stroke="#666666" points="91.75,-224.5 0,-224.5 0,-194 91.75,-194 91.75,-224.5"/>
<text xml:space="preserve" text-anchor="start" x="8" y="-211" font-family="Helvetica,sans-Serif" font-size="10.00">IndicatorInterface</text>
<text xml:space="preserve" text-anchor="middle" x="45.88" y="-199.75" font-family="Helvetica,sans-Serif" font-size="10.00">::update</text>
</a>
</g>
</g>
<!-- Node4&#45;&gt;Node5 -->
<g id="edge4_Node000004_Node000005" class="edge">
<title>Node4&#45;&gt;Node5</title>
<g id="a_edge4_Node000004_Node000005"><a xlink:title=" ">
<path fill="none" stroke="#63b8ff" d="M116.26,-209.25C108.15,-209.25 99.89,-209.25 92.03,-209.25"/>
<polygon fill="#63b8ff" stroke="#63b8ff" points="116.07,-212.75 126.07,-209.25 116.07,-205.75 116.07,-212.75"/>
</a>
</g>
</g>
<!-- Node6&#45;&gt;Node4 -->
<g id="edge6_Node000006_Node000004" class="edge">
<title>Node6&#45;&gt;Node4</title>
<g id="a_edge6_Node000006_Node000004"><a xlink:title=" ">
<path fill="none" stroke="#63b8ff" d="M251.96,-209.25C241.26,-209.25 230.23,-209.25 219.96,-209.25"/>
<polygon fill="#63b8ff" stroke="#63b8ff" points="251.87,-212.75 261.87,-209.25 251.87,-205.75 251.87,-212.75"/>
</a>
</g>
</g>
<!-- Node8 -->
<g id="Node000008" class="node">
<title>Node8</title>
<g id="a_Node000008"><a xlink:href="$class_indicator_interface.html#ad70f8a9e7f527bc4faeb576b47483385" xlink:title="Handle special symbol blinking.">
<polygon fill="white" stroke="#666666" points="365.25,-175.5 255.5,-175.5 255.5,-145 365.25,-145 365.25,-175.5"/>
<text xml:space="preserve" text-anchor="start" x="263.5" y="-162" font-family="Helvetica,sans-Serif" font-size="10.00">IndicatorInterface</text>
<text xml:space="preserve" text-anchor="middle" x="310.38" y="-150.75" font-family="Helvetica,sans-Serif" font-size="10.00">::_handleSpecialBlink</text>
</a>
</g>
</g>
<!-- Node7&#45;&gt;Node8 -->
<g id="edge8_Node000007_Node000008" class="edge">
<title>Node7&#45;&gt;Node8</title>
<g id="a_edge8_Node000007_Node000008"><a xlink:title=" ">
<path fill="none" stroke="#63b8ff" d="M389.82,-161.35C381.73,-161.23 373.53,-161.12 365.62,-161.01"/>
<polygon fill="#63b8ff" stroke="#63b8ff" points="389.57,-164.84 399.61,-161.48 389.66,-157.84 389.57,-164.84"/>
</a>
</g>
</g>
<!-- Node9 -->
<g id="Node000009" class="node">
<title>Node9</title>
<g id="a_Node000009"><a xlink:href="$class_indicator_interface.html#a1573397b085b78ea7f714665d55cece0" xlink:title="Stop all blinking and restore normal text.">
<polygon fill="white" stroke="#666666" points="356.25,-126.5 264.5,-126.5 264.5,-96 356.25,-96 356.25,-126.5"/>
<text xml:space="preserve" text-anchor="start" x="272.5" y="-113" font-family="Helvetica,sans-Serif" font-size="10.00">IndicatorInterface</text>
<text xml:space="preserve" text-anchor="middle" x="310.38" y="-101.75" font-family="Helvetica,sans-Serif" font-size="10.00">::stopBlinking</text>
</a>
</g>
</g>
<!-- Node7&#45;&gt;Node9 -->
<g id="edge10_Node000007_Node000009" class="edge">
<title>Node7&#45;&gt;Node9</title>
<g id="a_edge10_Node000007_Node000009"><a xlink:title=" ">
<path fill="none" stroke="#63b8ff" d="M399.75,-142.77C384.97,-137.5 369.16,-131.86 355.06,-126.83"/>
<polygon fill="#63b8ff" stroke="#63b8ff" points="398.28,-145.96 408.88,-146.02 400.63,-139.37 398.28,-145.96"/>
</a>
</g>
</g>
<!-- Node8&#45;&gt;Node4 -->
<g id="edge9_Node000008_Node000004" class="edge">
<title>Node8&#45;&gt;Node4</title>
<g id="a_edge9_Node000008_Node000004"><a xlink:title=" ">
<path fill="none" stroke="#63b8ff" d="M255.91,-179.69C243.22,-184.31 229.84,-189.17 217.68,-193.59"/>
<polygon fill="#63b8ff" stroke="#63b8ff" points="256.74,-183.11 264.95,-176.41 254.35,-176.53 256.74,-183.11"/>
</a>
</g>
</g>
</g>
</svg>
