<?xml version="1.0" encoding="UTF-8" standalone="no"?>
<!DOCTYPE svg PUBLIC "-//W3C//DTD SVG 1.1//EN"
 "http://www.w3.org/Graphics/SVG/1.1/DTD/svg11.dtd">
<!-- Generated by graphviz version 13.1.0 (20250701.0955)
 -->
<!-- Title: Sensor::setupPT1000 Pages: 1 -->
<svg width="436pt" height="88pt"
 viewBox="0.00 0.00 436.00 88.00" xmlns="http://www.w3.org/2000/svg" xmlns:xlink="http://www.w3.org/1999/xlink">
<g id="graph0" class="graph" transform="scale(1 1) rotate(0) translate(4 83.5)">
<title>Sensor::setupPT1000</title>
<!-- Node1 -->
<g id="Node000001" class="node">
<title>Node1</title>
<g id="a_Node000001"><a xlink:title=" ">
<polygon fill="#999999" stroke="#666666" points="428.25,-48.88 317.75,-48.88 317.75,-29.62 428.25,-29.62 428.25,-48.88"/>
<text xml:space="preserve" text-anchor="middle" x="373" y="-35.38" font-family="Helvetica,sans-Serif" font-size="10.00">Sensor::setupPT1000</text>
</a>
</g>
</g>
<!-- Node2 -->
<g id="Node000002" class="node">
<title>Node2</title>
<g id="a_Node000002"><a xlink:href="class_temperature_controller.html#a79e98c9a1d42de787a66e02b250b7a74" target="_top" xlink:title=" ">
<polygon fill="white" stroke="#666666" points="270.88,-79.5 158.88,-79.5 158.88,-49 270.88,-49 270.88,-79.5"/>
<text xml:space="preserve" text-anchor="start" x="166.88" y="-66" font-family="Helvetica,sans-Serif" font-size="10.00">TemperatureController</text>
<text xml:space="preserve" text-anchor="middle" x="214.88" y="-54.75" font-family="Helvetica,sans-Serif" font-size="10.00">::discoverPTSensors</text>
</a>
</g>
</g>
<!-- Node1&#45;&gt;Node2 -->
<g id="edge1_Node000001_Node000002" class="edge">
<title>Node1&#45;&gt;Node2</title>
<g id="a_edge1_Node000001_Node000002"><a xlink:title=" ">
<path fill="none" stroke="#63b8ff" d="M306.35,-49.76C294.66,-51.63 282.6,-53.57 271.24,-55.38"/>
<polygon fill="#63b8ff" stroke="#63b8ff" points="306.58,-53.27 315.9,-48.23 305.47,-46.36 306.58,-53.27"/>
</a>
</g>
</g>
<!-- Node4 -->
<g id="Node000004" class="node">
<title>Node4</title>
<g id="a_Node000004"><a xlink:href="class_config_manager.html#a04edc14e642ecadb9ccb87be05d1d878" target="_top" xlink:title="Load measurement points configuration from file.">
<polygon fill="white" stroke="#666666" points="281.75,-30.5 148,-30.5 148,0 281.75,0 281.75,-30.5"/>
<text xml:space="preserve" text-anchor="start" x="156" y="-17" font-family="Helvetica,sans-Serif" font-size="10.00">ConfigManager::loadPoints</text>
<text xml:space="preserve" text-anchor="middle" x="214.88" y="-5.75" font-family="Helvetica,sans-Serif" font-size="10.00">Config</text>
</a>
</g>
</g>
<!-- Node1&#45;&gt;Node4 -->
<g id="edge3_Node000001_Node000004" class="edge">
<title>Node1&#45;&gt;Node4</title>
<g id="a_edge3_Node000001_Node000004"><a xlink:title=" ">
<path fill="none" stroke="#63b8ff" d="M306.22,-29.14C298.2,-27.91 290.01,-26.65 281.99,-25.41"/>
<polygon fill="#63b8ff" stroke="#63b8ff" points="305.48,-32.57 315.9,-30.63 306.55,-25.65 305.48,-32.57"/>
</a>
</g>
</g>
<!-- Node3 -->
<g id="Node000003" class="node">
<title>Node3</title>
<g id="a_Node000003"><a xlink:href="class_temperature_controller.html#af59d6d6d48ed8ddfb968a1fa2dce6768" target="_top" xlink:title=" ">
<polygon fill="white" stroke="#666666" points="112,-79.5 0,-79.5 0,-49 112,-49 112,-79.5"/>
<text xml:space="preserve" text-anchor="start" x="8" y="-66" font-family="Helvetica,sans-Serif" font-size="10.00">TemperatureController</text>
<text xml:space="preserve" text-anchor="middle" x="56" y="-54.75" font-family="Helvetica,sans-Serif" font-size="10.00">::begin</text>
</a>
</g>
</g>
<!-- Node2&#45;&gt;Node3 -->
<g id="edge2_Node000002_Node000003" class="edge">
<title>Node2&#45;&gt;Node3</title>
<g id="a_edge2_Node000002_Node000003"><a xlink:title=" ">
<path fill="none" stroke="#63b8ff" d="M147.13,-64.25C135.53,-64.25 123.59,-64.25 112.34,-64.25"/>
<polygon fill="#63b8ff" stroke="#63b8ff" points="147.05,-67.75 157.05,-64.25 147.05,-60.75 147.05,-67.75"/>
</a>
</g>
</g>
<!-- Node5 -->
<g id="Node000005" class="node">
<title>Node5</title>
<g id="a_Node000005"><a xlink:href="class_config_manager.html#a0497343220fc493f5cf9574922508908" target="_top" xlink:title="Initialize the configuration system.">
<polygon fill="white" stroke="#666666" points="111.62,-24.88 0.38,-24.88 0.38,-5.63 111.62,-5.63 111.62,-24.88"/>
<text xml:space="preserve" text-anchor="middle" x="56" y="-11.38" font-family="Helvetica,sans-Serif" font-size="10.00">ConfigManager::begin</text>
</a>
</g>
</g>
<!-- Node4&#45;&gt;Node5 -->
<g id="edge4_Node000004_Node000005" class="edge">
<title>Node4&#45;&gt;Node5</title>
<g id="a_edge4_Node000004_Node000005"><a xlink:title=" ">
<path fill="none" stroke="#63b8ff" d="M136.29,-15.25C128.12,-15.25 119.93,-15.25 112.09,-15.25"/>
<polygon fill="#63b8ff" stroke="#63b8ff" points="136.29,-18.75 146.29,-15.25 136.29,-11.75 136.29,-18.75"/>
</a>
</g>
</g>
</g>
</svg>
