<?xml version="1.0" encoding="UTF-8" standalone="no"?>
<!DOCTYPE svg PUBLIC "-//W3C//DTD SVG 1.1//EN"
 "http://www.w3.org/Graphics/SVG/1.1/DTD/svg11.dtd">
<!-- Generated by graphviz version 13.1.0 (20250701.0955)
 -->
<!-- Title: MeasurementPoint::setHighAlarmThreshold Pages: 1 -->
<svg width="315pt" height="76pt"
 viewBox="0.00 0.00 315.00 76.00" xmlns="http://www.w3.org/2000/svg" xmlns:xlink="http://www.w3.org/1999/xlink">
<g id="graph0" class="graph" transform="scale(1 1) rotate(0) translate(4 71.88)">
<title>MeasurementPoint::setHighAlarmThreshold</title>
<!-- Node1 -->
<g id="Node000001" class="node">
<title>Node1</title>
<g id="a_Node000001"><a xlink:title="Set high alarm threshold.">
<polygon fill="#999999" stroke="#666666" points="137.5,-51.5 0,-51.5 0,-21 137.5,-21 137.5,-51.5"/>
<text xml:space="preserve" text-anchor="start" x="8" y="-38" font-family="Helvetica,sans-Serif" font-size="10.00">MeasurementPoint::setHigh</text>
<text xml:space="preserve" text-anchor="middle" x="68.75" y="-26.75" font-family="Helvetica,sans-Serif" font-size="10.00">AlarmThreshold</text>
</a>
</g>
</g>
<!-- Node2 -->
<g id="Node000002" class="node">
<title>Node2</title>
<g id="a_Node000002"><a xlink:href="$class_logger_manager.html#a5c1373ccc47f4112b596fe6f84fbbc21" xlink:title="Log informational message (static convenience method)">
<polygon fill="white" stroke="#666666" points="292.25,-67.88 187.75,-67.88 187.75,-48.62 292.25,-48.62 292.25,-67.88"/>
<text xml:space="preserve" text-anchor="middle" x="240" y="-54.38" font-family="Helvetica,sans-Serif" font-size="10.00">LoggerManager::info</text>
</a>
</g>
</g>
<!-- Node1&#45;&gt;Node2 -->
<g id="edge1_Node000001_Node000002" class="edge">
<title>Node1&#45;&gt;Node2</title>
<g id="a_edge1_Node000001_Node000002"><a xlink:title=" ">
<path fill="none" stroke="#63b8ff" d="M137.62,-45.07C150.29,-46.72 163.49,-48.43 176.01,-50.06"/>
<polygon fill="#63b8ff" stroke="#63b8ff" points="175.41,-53.51 185.78,-51.33 176.31,-46.57 175.41,-53.51"/>
</a>
</g>
</g>
<!-- Node3 -->
<g id="Node000003" class="node">
<title>Node3</title>
<g id="a_Node000003"><a xlink:href="$class_measurement_point.html#a71995209f2507e6cc15d01607f60767f" xlink:title="Update alarm status based on current temperature.">
<polygon fill="white" stroke="#666666" points="306.5,-30.5 173.5,-30.5 173.5,0 306.5,0 306.5,-30.5"/>
<text xml:space="preserve" text-anchor="start" x="181.5" y="-17" font-family="Helvetica,sans-Serif" font-size="10.00">MeasurementPoint::update</text>
<text xml:space="preserve" text-anchor="middle" x="240" y="-5.75" font-family="Helvetica,sans-Serif" font-size="10.00">AlarmStatus</text>
</a>
</g>
</g>
<!-- Node1&#45;&gt;Node3 -->
<g id="edge2_Node000001_Node000003" class="edge">
<title>Node1&#45;&gt;Node3</title>
<g id="a_edge2_Node000001_Node000003"><a xlink:title=" ">
<path fill="none" stroke="#63b8ff" d="M137.62,-27.83C145.55,-26.84 153.7,-25.83 161.75,-24.83"/>
<polygon fill="#63b8ff" stroke="#63b8ff" points="162.05,-28.32 171.54,-23.62 161.19,-21.38 162.05,-28.32"/>
</a>
</g>
</g>
</g>
</svg>
