<?xml version="1.0" encoding="UTF-8" standalone="no"?>
<!DOCTYPE svg PUBLIC "-//W3C//DTD SVG 1.1//EN"
 "http://www.w3.org/Graphics/SVG/1.1/DTD/svg11.dtd">
<!-- Generated by graphviz version 13.1.0 (20250701.0955)
 -->
<!-- Title: LoggerManager::logError Pages: 1 -->
<svg width="694pt" height="211pt"
 viewBox="0.00 0.00 694.00 211.00" xmlns="http://www.w3.org/2000/svg" xmlns:xlink="http://www.w3.org/1999/xlink">
<g id="graph0" class="graph" transform="scale(1 1) rotate(0) translate(4 206.88)">
<title>LoggerManager::logError</title>
<!-- Node1 -->
<g id="Node000001" class="node">
<title>Node1</title>
<g id="a_Node000001"><a xlink:title=" ">
<polygon fill="#999999" stroke="#666666" points="122.5,-105.25 0,-105.25 0,-86 122.5,-86 122.5,-105.25"/>
<text xml:space="preserve" text-anchor="middle" x="61.25" y="-91.75" font-family="Helvetica,sans-Serif" font-size="10.00">LoggerManager::logError</text>
</a>
</g>
</g>
<!-- Node2 -->
<g id="Node000002" class="node">
<title>Node2</title>
<g id="a_Node000002"><a xlink:href="$class_logger_manager.html#a0df2f2c96123da1989d0aaf6a4dc1615" xlink:title=" ">
<polygon fill="white" stroke="#666666" points="285.5,-105.25 158.5,-105.25 158.5,-86 285.5,-86 285.5,-105.25"/>
<text xml:space="preserve" text-anchor="middle" x="222" y="-91.75" font-family="Helvetica,sans-Serif" font-size="10.00">LoggerManager::logEvent</text>
</a>
</g>
</g>
<!-- Node1&#45;&gt;Node2 -->
<g id="edge1_Node000001_Node000002" class="edge">
<title>Node1&#45;&gt;Node2</title>
<g id="a_edge1_Node000001_Node000002"><a xlink:title=" ">
<path fill="none" stroke="#63b8ff" d="M122.72,-95.62C130.58,-95.62 138.7,-95.62 146.76,-95.62"/>
<polygon fill="#63b8ff" stroke="#63b8ff" points="146.55,-99.13 156.55,-95.63 146.55,-92.13 146.55,-99.13"/>
</a>
</g>
</g>
<!-- Node3 -->
<g id="Node000003" class="node">
<title>Node3</title>
<g id="a_Node000003"><a xlink:href="$class_logger_manager.html#a4f7591a3b5cb024b7354005b4362e049" xlink:title=" ">
<polygon fill="white" stroke="#666666" points="476.25,-202.88 327.5,-202.88 327.5,-172.38 476.25,-172.38 476.25,-202.88"/>
<text xml:space="preserve" text-anchor="start" x="335.5" y="-189.38" font-family="Helvetica,sans-Serif" font-size="10.00">LoggerManager::_ensureEvent</text>
<text xml:space="preserve" text-anchor="middle" x="401.88" y="-178.12" font-family="Helvetica,sans-Serif" font-size="10.00">LogExists</text>
</a>
</g>
</g>
<!-- Node2&#45;&gt;Node3 -->
<g id="edge2_Node000002_Node000003" class="edge">
<title>Node2&#45;&gt;Node3</title>
<g id="a_edge2_Node000002_Node000003"><a xlink:title=" ">
<path fill="none" stroke="#63b8ff" d="M235.03,-105.54C252.91,-119.86 288,-146.39 321.5,-162.62 325.41,-164.52 329.5,-166.31 333.67,-168.01"/>
<polygon fill="#63b8ff" stroke="#63b8ff" points="332.14,-171.17 342.73,-171.46 334.63,-164.63 332.14,-171.17"/>
</a>
</g>
</g>
<!-- Node5 -->
<g id="Node000005" class="node">
<title>Node5</title>
<g id="a_Node000005"><a xlink:href="$class_logger_manager.html#a9cf35430e1e61515c6fb12524a58f1ab" xlink:title=" ">
<polygon fill="white" stroke="#666666" points="467.62,-153.88 336.12,-153.88 336.12,-123.38 467.62,-123.38 467.62,-153.88"/>
<text xml:space="preserve" text-anchor="start" x="344.12" y="-140.38" font-family="Helvetica,sans-Serif" font-size="10.00">LoggerManager::_generate</text>
<text xml:space="preserve" text-anchor="middle" x="401.88" y="-129.12" font-family="Helvetica,sans-Serif" font-size="10.00">EventLogFileName</text>
</a>
</g>
</g>
<!-- Node2&#45;&gt;Node5 -->
<g id="edge4_Node000002_Node000005" class="edge">
<title>Node2&#45;&gt;Node5</title>
<g id="a_edge4_Node000002_Node000005"><a xlink:title=" ">
<path fill="none" stroke="#63b8ff" d="M264.7,-105.71C282.63,-110.04 304.17,-115.25 324.77,-120.23"/>
<polygon fill="#63b8ff" stroke="#63b8ff" points="323.75,-123.58 334.29,-122.53 325.39,-116.78 323.75,-123.58"/>
</a>
</g>
</g>
<!-- Node6 -->
<g id="Node000006" class="node">
<title>Node6</title>
<g id="a_Node000006"><a xlink:href="$class_logger_manager.html#a3ca0b934265a4d9ce6391bf97dec179a" xlink:title=" ">
<polygon fill="white" stroke="#666666" points="671.88,-131.88 532.12,-131.88 532.12,-101.38 671.88,-101.38 671.88,-131.88"/>
<text xml:space="preserve" text-anchor="start" x="540.12" y="-118.38" font-family="Helvetica,sans-Serif" font-size="10.00">LoggerManager::_getCurrent</text>
<text xml:space="preserve" text-anchor="middle" x="602" y="-107.12" font-family="Helvetica,sans-Serif" font-size="10.00">DateString</text>
</a>
</g>
</g>
<!-- Node2&#45;&gt;Node6 -->
<g id="edge6_Node000002_Node000006" class="edge">
<title>Node2&#45;&gt;Node6</title>
<g id="a_edge6_Node000002_Node000006"><a xlink:title=" ">
<path fill="none" stroke="#63b8ff" d="M285.84,-99.12C350.18,-102.69 450.4,-108.26 520.5,-112.15"/>
<polygon fill="#63b8ff" stroke="#63b8ff" points="520.23,-115.64 530.41,-112.7 520.62,-108.65 520.23,-115.64"/>
</a>
</g>
</g>
<!-- Node7 -->
<g id="Node000007" class="node">
<title>Node7</title>
<g id="a_Node000007"><a xlink:href="$class_logger_manager.html#a4f31651f8963f741bfbdb944164ffc15" xlink:title=" ">
<polygon fill="white" stroke="#666666" points="471.75,-67.88 332,-67.88 332,-37.38 471.75,-37.38 471.75,-67.88"/>
<text xml:space="preserve" text-anchor="start" x="340" y="-54.38" font-family="Helvetica,sans-Serif" font-size="10.00">LoggerManager::_getCurrent</text>
<text xml:space="preserve" text-anchor="middle" x="401.88" y="-43.12" font-family="Helvetica,sans-Serif" font-size="10.00">TimeString</text>
</a>
</g>
</g>
<!-- Node2&#45;&gt;Node7 -->
<g id="edge7_Node000002_Node000007" class="edge">
<title>Node2&#45;&gt;Node7</title>
<g id="a_edge7_Node000002_Node000007"><a xlink:title=" ">
<path fill="none" stroke="#63b8ff" d="M264.7,-85.54C282.63,-81.21 304.17,-76 324.77,-71.02"/>
<polygon fill="#63b8ff" stroke="#63b8ff" points="325.39,-74.47 334.29,-68.72 323.75,-67.67 325.39,-74.47"/>
</a>
</g>
</g>
<!-- Node8 -->
<g id="Node000008" class="node">
<title>Node8</title>
<g id="a_Node000008"><a xlink:href="$class_logger_manager.html#a472884ce9e2aed6a1570187dd37cc006" xlink:title=" ">
<polygon fill="white" stroke="#666666" points="482.25,-19.25 321.5,-19.25 321.5,0 482.25,0 482.25,-19.25"/>
<text xml:space="preserve" text-anchor="middle" x="401.88" y="-5.75" font-family="Helvetica,sans-Serif" font-size="10.00">LoggerManager::_writeEventRow</text>
</a>
</g>
</g>
<!-- Node2&#45;&gt;Node8 -->
<g id="edge8_Node000002_Node000008" class="edge">
<title>Node2&#45;&gt;Node8</title>
<g id="a_edge8_Node000002_Node000008"><a xlink:title=" ">
<path fill="none" stroke="#63b8ff" d="M234.59,-85.64C252.2,-70.98 287.26,-43.76 321.5,-28.62 326.27,-26.52 331.31,-24.62 336.44,-22.92"/>
<polygon fill="#63b8ff" stroke="#63b8ff" points="337.05,-26.39 345.61,-20.14 335.02,-19.7 337.05,-26.39"/>
</a>
</g>
</g>
<!-- Node4 -->
<g id="Node000004" class="node">
<title>Node4</title>
<g id="a_Node000004"><a xlink:href="$class_logger_manager.html#a515beeaa428acafce139d79b41fe9d0a" xlink:title=" ">
<polygon fill="white" stroke="#666666" points="672.25,-202.88 531.75,-202.88 531.75,-172.38 672.25,-172.38 672.25,-202.88"/>
<text xml:space="preserve" text-anchor="start" x="539.75" y="-189.38" font-family="Helvetica,sans-Serif" font-size="10.00">LoggerManager::_writeEvent</text>
<text xml:space="preserve" text-anchor="middle" x="602" y="-178.12" font-family="Helvetica,sans-Serif" font-size="10.00">Header</text>
</a>
</g>
</g>
<!-- Node3&#45;&gt;Node4 -->
<g id="edge3_Node000003_Node000004" class="edge">
<title>Node3&#45;&gt;Node4</title>
<g id="a_edge3_Node000003_Node000004"><a xlink:title=" ">
<path fill="none" stroke="#63b8ff" d="M476.65,-187.62C490.8,-187.62 505.69,-187.62 520.05,-187.62"/>
<polygon fill="#63b8ff" stroke="#63b8ff" points="519.92,-191.13 529.92,-187.63 519.92,-184.13 519.92,-191.13"/>
</a>
</g>
</g>
<!-- Node5&#45;&gt;Node6 -->
<g id="edge5_Node000005_Node000006" class="edge">
<title>Node5&#45;&gt;Node6</title>
<g id="a_edge5_Node000005_Node000006"><a xlink:title=" ">
<path fill="none" stroke="#63b8ff" d="M468.02,-131.39C484.77,-129.53 502.99,-127.51 520.41,-125.57"/>
<polygon fill="#63b8ff" stroke="#63b8ff" points="520.67,-129.07 530.22,-124.48 519.9,-122.11 520.67,-129.07"/>
</a>
</g>
</g>
<!-- Node9 -->
<g id="Node000009" class="node">
<title>Node9</title>
<g id="a_Node000009"><a xlink:href="$class_logger_manager.html#a57d230cd2896120a32ecf55a14895d55" xlink:title=" ">
<polygon fill="white" stroke="#666666" points="685.75,-19.25 518.25,-19.25 518.25,0 685.75,0 685.75,-19.25"/>
<text xml:space="preserve" text-anchor="middle" x="602" y="-5.75" font-family="Helvetica,sans-Serif" font-size="10.00">LoggerManager::_escapeCSVField</text>
</a>
</g>
</g>
<!-- Node8&#45;&gt;Node9 -->
<g id="edge9_Node000008_Node000009" class="edge">
<title>Node8&#45;&gt;Node9</title>
<g id="a_edge9_Node000008_Node000009"><a xlink:title=" ">
<path fill="none" stroke="#63b8ff" d="M482.6,-9.62C490.5,-9.62 498.56,-9.62 506.58,-9.62"/>
<polygon fill="#63b8ff" stroke="#63b8ff" points="506.36,-13.13 516.36,-9.63 506.36,-6.13 506.36,-13.13"/>
</a>
</g>
</g>
</g>
</svg>
