<?xml version="1.0" encoding="UTF-8" standalone="no"?>
<!DOCTYPE svg PUBLIC "-//W3C//DTD SVG 1.1//EN"
 "http://www.w3.org/Graphics/SVG/1.1/DTD/svg11.dtd">
<!-- Generated by graphviz version 13.1.0 (20250701.0955)
 -->
<!-- Title: TemperatureController::handleAlarmDisplay Pages: 1 -->
<svg width="1151pt" height="566pt"
 viewBox="0.00 0.00 1151.00 566.00" xmlns="http://www.w3.org/2000/svg" xmlns:xlink="http://www.w3.org/1999/xlink">
<g id="graph0" class="graph" transform="scale(1 1) rotate(0) translate(4 561.5)">
<title>TemperatureController::handleAlarmDisplay</title>
<!-- Node1 -->
<g id="Node000001" class="node">
<title>Node1</title>
<g id="a_Node000001"><a xlink:title="Handle alarm display on OLED/LEDs.">
<polygon fill="#999999" stroke="#666666" points="112,-358.5 0,-358.5 0,-328 112,-328 112,-358.5"/>
<text xml:space="preserve" text-anchor="start" x="8" y="-345" font-family="Helvetica,sans-Serif" font-size="10.00">TemperatureController</text>
<text xml:space="preserve" text-anchor="middle" x="56" y="-333.75" font-family="Helvetica,sans-Serif" font-size="10.00">::handleAlarmDisplay</text>
</a>
</g>
</g>
<!-- Node2 -->
<g id="Node000002" class="node">
<title>Node2</title>
<g id="a_Node000002"><a xlink:href="class_temperature_controller.html#a1228b63e95f26c21a8d9c2a27928bc75" target="_top" xlink:title="Check for button press and handle acknowledgment.">
<polygon fill="white" stroke="#666666" points="267.5,-432.5 155.5,-432.5 155.5,-402 267.5,-402 267.5,-432.5"/>
<text xml:space="preserve" text-anchor="start" x="163.5" y="-419" font-family="Helvetica,sans-Serif" font-size="10.00">TemperatureController</text>
<text xml:space="preserve" text-anchor="middle" x="211.5" y="-407.75" font-family="Helvetica,sans-Serif" font-size="10.00">::_checkButtonPress</text>
</a>
</g>
</g>
<!-- Node1&#45;&gt;Node2 -->
<g id="edge1_Node000001_Node000002" class="edge">
<title>Node1&#45;&gt;Node2</title>
<g id="a_edge1_Node000001_Node000002"><a xlink:title=" ">
<path fill="none" stroke="#63b8ff" d="M89.55,-358.94C112.35,-369.93 143.03,-384.72 167.79,-396.66"/>
<polygon fill="#63b8ff" stroke="#63b8ff" points="166.1,-399.73 176.63,-400.92 169.14,-393.43 166.1,-399.73"/>
</a>
</g>
</g>
<!-- Node4 -->
<g id="Node000004" class="node">
<title>Node4</title>
<g id="a_Node000004"><a xlink:href="class_temperature_controller.html#a6b2f92b5c2af867240200cff2e61e806" target="_top" xlink:title="Handle display section switching.">
<polygon fill="white" stroke="#666666" points="275,-334.5 148,-334.5 148,-304 275,-304 275,-334.5"/>
<text xml:space="preserve" text-anchor="start" x="156" y="-321" font-family="Helvetica,sans-Serif" font-size="10.00">TemperatureController</text>
<text xml:space="preserve" text-anchor="middle" x="211.5" y="-309.75" font-family="Helvetica,sans-Serif" font-size="10.00">::_handleDisplaySections</text>
</a>
</g>
</g>
<!-- Node1&#45;&gt;Node4 -->
<g id="edge3_Node000001_Node000004" class="edge">
<title>Node1&#45;&gt;Node4</title>
<g id="a_edge3_Node000001_Node000004"><a xlink:title=" ">
<path fill="none" stroke="#63b8ff" d="M112.42,-334.59C120.18,-333.37 128.26,-332.11 136.3,-330.85"/>
<polygon fill="#63b8ff" stroke="#63b8ff" points="136.77,-334.32 146.11,-329.32 135.69,-327.4 136.77,-334.32"/>
</a>
</g>
</g>
<!-- Node3 -->
<g id="Node000003" class="node">
<title>Node3</title>
<g id="a_Node000003"><a xlink:href="class_temperature_controller.html#a3955f205bc33dda762cbe5c572cd4f21" target="_top" xlink:title="Switch to a new display section.">
<polygon fill="white" stroke="#666666" points="638.12,-471.5 526.12,-471.5 526.12,-441 638.12,-441 638.12,-471.5"/>
<text xml:space="preserve" text-anchor="start" x="534.12" y="-458" font-family="Helvetica,sans-Serif" font-size="10.00">TemperatureController</text>
<text xml:space="preserve" text-anchor="middle" x="582.12" y="-446.75" font-family="Helvetica,sans-Serif" font-size="10.00">::_switchToSection</text>
</a>
</g>
</g>
<!-- Node2&#45;&gt;Node3 -->
<g id="edge2_Node000002_Node000003" class="edge">
<title>Node2&#45;&gt;Node3</title>
<g id="a_edge2_Node000002_Node000003"><a xlink:title=" ">
<path fill="none" stroke="#63b8ff" d="M267.69,-423.09C333.61,-430.06 443.82,-441.72 514.45,-449.2"/>
<polygon fill="#63b8ff" stroke="#63b8ff" points="514.04,-452.67 524.36,-450.24 514.78,-445.71 514.04,-452.67"/>
</a>
</g>
</g>
<!-- Node4&#45;&gt;Node3 -->
<g id="edge25_Node000004_Node000003" class="edge">
<title>Node4&#45;&gt;Node3</title>
<g id="a_edge25_Node000004_Node000003"><a xlink:title=" ">
<path fill="none" stroke="#63b8ff" d="M249.55,-334.91C303.65,-357.52 407.68,-400.01 498,-431.25 503.79,-433.25 509.83,-435.25 515.9,-437.19"/>
<polygon fill="#63b8ff" stroke="#63b8ff" points="514.78,-440.51 525.37,-440.16 516.88,-433.83 514.78,-440.51"/>
</a>
</g>
</g>
<!-- Node5 -->
<g id="Node000005" class="node">
<title>Node5</title>
<g id="a_Node000005"><a xlink:href="class_temperature_controller.html#ac44de0834e13cec755e247ce1df21f09" target="_top" xlink:title="Display next acknowledged alarm.">
<polygon fill="white" stroke="#666666" points="666.25,-177.5 498,-177.5 498,-147 666.25,-147 666.25,-177.5"/>
<text xml:space="preserve" text-anchor="start" x="506" y="-164" font-family="Helvetica,sans-Serif" font-size="10.00">TemperatureController</text>
<text xml:space="preserve" text-anchor="middle" x="582.12" y="-152.75" font-family="Helvetica,sans-Serif" font-size="10.00">::_displayNextAcknowledgedAlarm</text>
</a>
</g>
</g>
<!-- Node4&#45;&gt;Node5 -->
<g id="edge4_Node000004_Node000005" class="edge">
<title>Node4&#45;&gt;Node5</title>
<g id="a_edge4_Node000004_Node000005"><a xlink:title=" ">
<path fill="none" stroke="#63b8ff" d="M242.73,-303.55C294.19,-277.21 402.52,-223.47 498,-187.25 503.24,-185.26 508.71,-183.33 514.23,-181.47"/>
<polygon fill="#63b8ff" stroke="#63b8ff" points="515.01,-184.89 523.43,-178.46 512.84,-178.24 515.01,-184.89"/>
</a>
</g>
</g>
<!-- Node6 -->
<g id="Node000006" class="node">
<title>Node6</title>
<g id="a_Node000006"><a xlink:href="class_temperature_controller.html#a1d2745c323f7094beac8f406825499b7" target="_top" xlink:title="Handle alarm display rotation timing.">
<polygon fill="white" stroke="#666666" points="462,-128.5 311,-128.5 311,-98 462,-98 462,-128.5"/>
<text xml:space="preserve" text-anchor="start" x="319" y="-115" font-family="Helvetica,sans-Serif" font-size="10.00">TemperatureController</text>
<text xml:space="preserve" text-anchor="middle" x="386.5" y="-103.75" font-family="Helvetica,sans-Serif" font-size="10.00">::_handleAlarmDisplayRotation</text>
</a>
</g>
</g>
<!-- Node4&#45;&gt;Node6 -->
<g id="edge5_Node000004_Node000006" class="edge">
<title>Node4&#45;&gt;Node6</title>
<g id="a_edge5_Node000004_Node000006"><a xlink:title=" ">
<path fill="none" stroke="#63b8ff" d="M225.17,-303.78C243.84,-281.01 279.91,-237.18 311,-200.25 329,-178.88 349.68,-154.76 364.68,-137.34"/>
<polygon fill="#63b8ff" stroke="#63b8ff" points="367.09,-139.9 370.97,-130.05 361.79,-135.33 367.09,-139.9"/>
</a>
</g>
</g>
<!-- Node9 -->
<g id="Node000009" class="node">
<title>Node9</title>
<g id="a_Node000009"><a xlink:href="class_temperature_controller.html#a4d36576f7d6ab8f5222a082878314912" target="_top" xlink:title="Update normal temperature display.">
<polygon fill="white" stroke="#666666" points="642.62,-30.5 521.62,-30.5 521.62,0 642.62,0 642.62,-30.5"/>
<text xml:space="preserve" text-anchor="start" x="529.62" y="-17" font-family="Helvetica,sans-Serif" font-size="10.00">TemperatureController</text>
<text xml:space="preserve" text-anchor="middle" x="582.12" y="-5.75" font-family="Helvetica,sans-Serif" font-size="10.00">::_updateNormalDisplay</text>
</a>
</g>
</g>
<!-- Node4&#45;&gt;Node9 -->
<g id="edge29_Node000004_Node000009" class="edge">
<title>Node4&#45;&gt;Node9</title>
<g id="a_edge29_Node000004_Node000009"><a xlink:title=" ">
<path fill="none" stroke="#63b8ff" d="M214.49,-303.69C220.65,-262.24 243.21,-148.32 311,-89.25 366.36,-41.01 450.41,-23.93 510.03,-18.04"/>
<polygon fill="#63b8ff" stroke="#63b8ff" points="510.09,-21.55 519.73,-17.17 509.46,-14.58 510.09,-21.55"/>
</a>
</g>
</g>
<!-- Node10 -->
<g id="Node000010" class="node">
<title>Node10</title>
<g id="a_Node000010"><a xlink:href="class_temperature_controller.html#a45f7994a3a052a527981dbfdad27606b" target="_top" xlink:title="Handle system status mode display.">
<polygon fill="white" stroke="#666666" points="457.5,-334.5 315.5,-334.5 315.5,-304 457.5,-304 457.5,-334.5"/>
<text xml:space="preserve" text-anchor="start" x="323.5" y="-321" font-family="Helvetica,sans-Serif" font-size="10.00">TemperatureController</text>
<text xml:space="preserve" text-anchor="middle" x="386.5" y="-309.75" font-family="Helvetica,sans-Serif" font-size="10.00">::_handleSystemStatusMode</text>
</a>
</g>
</g>
<!-- Node4&#45;&gt;Node10 -->
<g id="edge10_Node000004_Node000010" class="edge">
<title>Node4&#45;&gt;Node10</title>
<g id="a_edge10_Node000004_Node000010"><a xlink:title=" ">
<path fill="none" stroke="#63b8ff" d="M275.45,-319.25C284.75,-319.25 294.45,-319.25 304.06,-319.25"/>
<polygon fill="#63b8ff" stroke="#63b8ff" points="303.77,-322.75 313.77,-319.25 303.77,-315.75 303.77,-322.75"/>
</a>
</g>
</g>
<!-- Node24 -->
<g id="Node000024" class="node">
<title>Node24</title>
<g id="a_Node000024"><a xlink:href="class_temperature_controller.html#a477597992aa9362076843f37b648741a" target="_top" xlink:title="Update alarm display queues.">
<polygon fill="white" stroke="#666666" points="444.38,-514.5 328.62,-514.5 328.62,-484 444.38,-484 444.38,-514.5"/>
<text xml:space="preserve" text-anchor="start" x="336.62" y="-501" font-family="Helvetica,sans-Serif" font-size="10.00">TemperatureController</text>
<text xml:space="preserve" text-anchor="middle" x="386.5" y="-489.75" font-family="Helvetica,sans-Serif" font-size="10.00">::_updateAlarmQueues</text>
</a>
</g>
</g>
<!-- Node4&#45;&gt;Node24 -->
<g id="edge26_Node000004_Node000024" class="edge">
<title>Node4&#45;&gt;Node24</title>
<g id="a_edge26_Node000004_Node000024"><a xlink:title=" ">
<path fill="none" stroke="#63b8ff" d="M227.55,-334.91C257.92,-366.5 326.68,-438.05 362.63,-475.46"/>
<polygon fill="#63b8ff" stroke="#63b8ff" points="360.11,-477.88 369.56,-482.66 365.15,-473.03 360.11,-477.88"/>
</a>
</g>
</g>
<!-- Node6&#45;&gt;Node5 -->
<g id="edge6_Node000006_Node000005" class="edge">
<title>Node6&#45;&gt;Node5</title>
<g id="a_edge6_Node000006_Node000005"><a xlink:title=" ">
<path fill="none" stroke="#63b8ff" d="M449.56,-128.96C468.15,-133.66 488.7,-138.86 507.94,-143.73"/>
<polygon fill="#63b8ff" stroke="#63b8ff" points="507.06,-147.12 517.61,-146.18 508.78,-140.33 507.06,-147.12"/>
</a>
</g>
</g>
<!-- Node7 -->
<g id="Node000007" class="node">
<title>Node7</title>
<g id="a_Node000007"><a xlink:href="class_temperature_controller.html#a7ca5124357f98bcd52316cf017341b09" target="_top" xlink:title="Display next active alarm in rotation.">
<polygon fill="white" stroke="#666666" points="648.25,-79.5 516,-79.5 516,-49 648.25,-49 648.25,-79.5"/>
<text xml:space="preserve" text-anchor="start" x="524" y="-66" font-family="Helvetica,sans-Serif" font-size="10.00">TemperatureController</text>
<text xml:space="preserve" text-anchor="middle" x="582.12" y="-54.75" font-family="Helvetica,sans-Serif" font-size="10.00">::_displayNextActiveAlarm</text>
</a>
</g>
</g>
<!-- Node6&#45;&gt;Node7 -->
<g id="edge7_Node000006_Node000007" class="edge">
<title>Node6&#45;&gt;Node7</title>
<g id="a_edge7_Node000006_Node000007"><a xlink:title=" ">
<path fill="none" stroke="#63b8ff" d="M449.56,-97.54C468.15,-92.84 488.7,-87.64 507.94,-82.77"/>
<polygon fill="#63b8ff" stroke="#63b8ff" points="508.78,-86.17 517.61,-80.32 507.06,-79.38 508.78,-86.17"/>
</a>
</g>
</g>
<!-- Node8 -->
<g id="Node000008" class="node">
<title>Node8</title>
<g id="a_Node000008"><a xlink:href="class_temperature_controller.html#a28e81945f5235e161e6c532b428d36d2" target="_top" xlink:title="Show OK status and turn off OLED after delay.">
<polygon fill="white" stroke="#666666" points="653.12,-128.5 511.12,-128.5 511.12,-98 653.12,-98 653.12,-128.5"/>
<text xml:space="preserve" text-anchor="start" x="519.12" y="-115" font-family="Helvetica,sans-Serif" font-size="10.00">TemperatureController</text>
<text xml:space="preserve" text-anchor="middle" x="582.12" y="-103.75" font-family="Helvetica,sans-Serif" font-size="10.00">::_showOKAndTurnOffOLED</text>
</a>
</g>
</g>
<!-- Node6&#45;&gt;Node8 -->
<g id="edge8_Node000006_Node000008" class="edge">
<title>Node6&#45;&gt;Node8</title>
<g id="a_edge8_Node000006_Node000008"><a xlink:title=" ">
<path fill="none" stroke="#63b8ff" d="M462.36,-113.25C474.58,-113.25 487.3,-113.25 499.67,-113.25"/>
<polygon fill="#63b8ff" stroke="#63b8ff" points="499.39,-116.75 509.39,-113.25 499.39,-109.75 499.39,-116.75"/>
</a>
</g>
</g>
<!-- Node6&#45;&gt;Node9 -->
<g id="edge9_Node000006_Node000009" class="edge">
<title>Node6&#45;&gt;Node9</title>
<g id="a_edge9_Node000006_Node000009"><a xlink:title=" ">
<path fill="none" stroke="#63b8ff" d="M407.22,-97.64C428.54,-81.39 464.06,-56.14 498,-40.25 502.03,-38.36 506.24,-36.58 510.53,-34.9"/>
<polygon fill="#63b8ff" stroke="#63b8ff" points="511.7,-38.19 519.88,-31.46 509.29,-31.62 511.7,-38.19"/>
</a>
</g>
</g>
<!-- Node10&#45;&gt;Node3 -->
<g id="edge24_Node000010_Node000003" class="edge">
<title>Node10&#45;&gt;Node3</title>
<g id="a_edge24_Node000010_Node000003"><a xlink:title=" ">
<path fill="none" stroke="#63b8ff" d="M427.31,-334.94C439.52,-341.16 452.28,-349.25 462,-359.25 486.93,-384.91 470.63,-408.21 498,-431.25 503.3,-435.71 509.37,-439.37 515.77,-442.38"/>
<polygon fill="#63b8ff" stroke="#63b8ff" points="514.05,-445.46 524.63,-446.02 516.71,-438.98 514.05,-445.46"/>
</a>
</g>
</g>
<!-- Node11 -->
<g id="Node000011" class="node">
<title>Node11</title>
<g id="a_Node000011"><a xlink:href="class_temperature_controller.html#a3948ceaf046b5f06afcc9083433f532c" target="_top" xlink:title="Display alarm summary by priority.">
<polygon fill="white" stroke="#666666" points="666.25,-422.5 498,-422.5 498,-392 666.25,-392 666.25,-422.5"/>
<text xml:space="preserve" text-anchor="start" x="506" y="-409" font-family="Helvetica,sans-Serif" font-size="10.00">TemperatureController</text>
<text xml:space="preserve" text-anchor="middle" x="582.12" y="-397.75" font-family="Helvetica,sans-Serif" font-size="10.00">::_displayAlarmSummaryByPriority</text>
</a>
</g>
</g>
<!-- Node10&#45;&gt;Node11 -->
<g id="edge11_Node000010_Node000011" class="edge">
<title>Node10&#45;&gt;Node11</title>
<g id="a_edge11_Node000010_Node000011"><a xlink:title=" ">
<path fill="none" stroke="#63b8ff" d="M417.87,-334.89C431.5,-342.08 447.69,-350.85 462,-359.25 478.38,-368.86 480.74,-374.33 498,-382.25 502.24,-384.19 506.66,-386.03 511.17,-387.77"/>
<polygon fill="#63b8ff" stroke="#63b8ff" points="509.78,-390.98 520.37,-391.1 512.16,-384.4 509.78,-390.98"/>
</a>
</g>
</g>
<!-- Node13 -->
<g id="Node000013" class="node">
<title>Node13</title>
<g id="a_Node000013"><a xlink:href="class_temperature_controller.html#ab5e076b045677678390603e9a805e4db" target="_top" xlink:title="Display alarm summary by type.">
<polygon fill="white" stroke="#666666" points="661.38,-373.5 502.88,-373.5 502.88,-343 661.38,-343 661.38,-373.5"/>
<text xml:space="preserve" text-anchor="start" x="510.88" y="-360" font-family="Helvetica,sans-Serif" font-size="10.00">TemperatureController</text>
<text xml:space="preserve" text-anchor="middle" x="582.12" y="-348.75" font-family="Helvetica,sans-Serif" font-size="10.00">::_displayAlarmSummaryByType</text>
</a>
</g>
</g>
<!-- Node10&#45;&gt;Node13 -->
<g id="edge13_Node000010_Node000013" class="edge">
<title>Node10&#45;&gt;Node13</title>
<g id="a_edge13_Node000010_Node000013"><a xlink:title=" ">
<path fill="none" stroke="#63b8ff" d="M457.95,-333.44C469.09,-335.68 480.74,-338.03 492.24,-340.35"/>
<polygon fill="#63b8ff" stroke="#63b8ff" points="491.22,-343.71 501.71,-342.26 492.6,-336.85 491.22,-343.71"/>
</a>
</g>
</g>
<!-- Node14 -->
<g id="Node000014" class="node">
<title>Node14</title>
<g id="a_Node000014"><a xlink:href="class_temperature_controller.html#a5fc773a967cea261f21bbe86d90d2586" target="_top" xlink:title="Display Modbus status page.">
<polygon fill="white" stroke="#666666" points="642.62,-324.5 521.62,-324.5 521.62,-294 642.62,-294 642.62,-324.5"/>
<text xml:space="preserve" text-anchor="start" x="529.62" y="-311" font-family="Helvetica,sans-Serif" font-size="10.00">TemperatureController</text>
<text xml:space="preserve" text-anchor="middle" x="582.12" y="-299.75" font-family="Helvetica,sans-Serif" font-size="10.00">::_displayModbusStatus</text>
</a>
</g>
</g>
<!-- Node10&#45;&gt;Node14 -->
<g id="edge14_Node000010_Node000014" class="edge">
<title>Node10&#45;&gt;Node14</title>
<g id="a_edge14_Node000010_Node000014"><a xlink:title=" ">
<path fill="none" stroke="#63b8ff" d="M457.95,-315.61C474.98,-314.73 493.19,-313.79 510.24,-312.91"/>
<polygon fill="#63b8ff" stroke="#63b8ff" points="509.94,-316.43 519.74,-312.42 509.57,-309.44 509.94,-316.43"/>
</a>
</g>
</g>
<!-- Node15 -->
<g id="Node000015" class="node">
<title>Node15</title>
<g id="a_Node000015"><a xlink:href="class_temperature_controller.html#a2436c7043d97ca75c717db2b87326d90" target="_top" xlink:title="Display network info page.">
<polygon fill="white" stroke="#666666" points="638.12,-275.5 526.12,-275.5 526.12,-245 638.12,-245 638.12,-275.5"/>
<text xml:space="preserve" text-anchor="start" x="534.12" y="-262" font-family="Helvetica,sans-Serif" font-size="10.00">TemperatureController</text>
<text xml:space="preserve" text-anchor="middle" x="582.12" y="-250.75" font-family="Helvetica,sans-Serif" font-size="10.00">::_displayNetworkInfo</text>
</a>
</g>
</g>
<!-- Node10&#45;&gt;Node15 -->
<g id="edge15_Node000010_Node000015" class="edge">
<title>Node10&#45;&gt;Node15</title>
<g id="a_edge15_Node000010_Node000015"><a xlink:title=" ">
<path fill="none" stroke="#63b8ff" d="M438.37,-303.53C457.1,-297.75 478.51,-291.18 498,-285.25 504.53,-283.26 511.35,-281.2 518.15,-279.14"/>
<polygon fill="#63b8ff" stroke="#63b8ff" points="518.77,-282.61 527.34,-276.37 516.75,-275.91 518.77,-282.61"/>
</a>
</g>
</g>
<!-- Node16 -->
<g id="Node000016" class="node">
<title>Node16</title>
<g id="a_Node000016"><a xlink:href="class_temperature_controller.html#a45d13ed72fd36b46820af631e4db958b" target="_top" xlink:title="Display system stats page.">
<polygon fill="white" stroke="#666666" points="639.62,-226.5 524.62,-226.5 524.62,-196 639.62,-196 639.62,-226.5"/>
<text xml:space="preserve" text-anchor="start" x="532.62" y="-213" font-family="Helvetica,sans-Serif" font-size="10.00">TemperatureController</text>
<text xml:space="preserve" text-anchor="middle" x="582.12" y="-201.75" font-family="Helvetica,sans-Serif" font-size="10.00">::_displaySystemStats</text>
</a>
</g>
</g>
<!-- Node10&#45;&gt;Node16 -->
<g id="edge16_Node000010_Node000016" class="edge">
<title>Node10&#45;&gt;Node16</title>
<g id="a_edge16_Node000010_Node000016"><a xlink:title=" ">
<path fill="none" stroke="#63b8ff" d="M404.21,-303.67C424.82,-285.22 461.6,-254.66 498,-236.25 503,-233.72 508.3,-231.4 513.71,-229.28"/>
<polygon fill="#63b8ff" stroke="#63b8ff" points="514.58,-232.69 522.77,-225.97 512.17,-226.11 514.58,-232.69"/>
</a>
</g>
</g>
<!-- Node12 -->
<g id="Node000012" class="node">
<title>Node12</title>
<g id="a_Node000012"><a xlink:href="class_temperature_controller.html#a3022c7a72adb45a7800d5189eecdac4e" target="_top" xlink:title="Get total number of configured alarms.">
<polygon fill="white" stroke="#666666" points="814.25,-422.5 702.25,-422.5 702.25,-392 814.25,-392 814.25,-422.5"/>
<text xml:space="preserve" text-anchor="start" x="710.25" y="-409" font-family="Helvetica,sans-Serif" font-size="10.00">TemperatureController</text>
<text xml:space="preserve" text-anchor="middle" x="758.25" y="-397.75" font-family="Helvetica,sans-Serif" font-size="10.00">::getAlarmCount</text>
</a>
</g>
</g>
<!-- Node11&#45;&gt;Node12 -->
<g id="edge12_Node000011_Node000012" class="edge">
<title>Node11&#45;&gt;Node12</title>
<g id="a_edge12_Node000011_Node000012"><a xlink:title=" ">
<path fill="none" stroke="#63b8ff" d="M666.62,-407.25C674.71,-407.25 682.84,-407.25 690.74,-407.25"/>
<polygon fill="#63b8ff" stroke="#63b8ff" points="690.59,-410.75 700.59,-407.25 690.59,-403.75 690.59,-410.75"/>
</a>
</g>
</g>
<!-- Node17 -->
<g id="Node000017" class="node">
<title>Node17</title>
<g id="a_Node000017"><a xlink:href="class_temperature_controller.html#a9b4fe09d4c87dcf86e78b890012e1e72" target="_top" xlink:title="Get sensor bound to measurement point.">
<polygon fill="white" stroke="#666666" points="814.25,-177.5 702.25,-177.5 702.25,-147 814.25,-147 814.25,-177.5"/>
<text xml:space="preserve" text-anchor="start" x="710.25" y="-164" font-family="Helvetica,sans-Serif" font-size="10.00">TemperatureController</text>
<text xml:space="preserve" text-anchor="middle" x="758.25" y="-152.75" font-family="Helvetica,sans-Serif" font-size="10.00">::getBoundSensor</text>
</a>
</g>
</g>
<!-- Node16&#45;&gt;Node17 -->
<g id="edge17_Node000016_Node000017" class="edge">
<title>Node16&#45;&gt;Node17</title>
<g id="a_edge17_Node000016_Node000017"><a xlink:title=" ">
<path fill="none" stroke="#63b8ff" d="M638.7,-195.61C655.43,-190.9 673.95,-185.69 691.29,-180.81"/>
<polygon fill="#63b8ff" stroke="#63b8ff" points="691.77,-184.31 700.45,-178.23 689.88,-177.57 691.77,-184.31"/>
</a>
</g>
</g>
<!-- Node22 -->
<g id="Node000022" class="node">
<title>Node22</title>
<g id="a_Node000022"><a xlink:href="class_temperature_controller.html#a9ac5f76def1895a8c8f8f92ce8cd2e5c" target="_top" xlink:title="Get count of discovered DS18B20 sensors.">
<polygon fill="white" stroke="#666666" points="814.25,-275.5 702.25,-275.5 702.25,-245 814.25,-245 814.25,-275.5"/>
<text xml:space="preserve" text-anchor="start" x="710.25" y="-262" font-family="Helvetica,sans-Serif" font-size="10.00">TemperatureController</text>
<text xml:space="preserve" text-anchor="middle" x="758.25" y="-250.75" font-family="Helvetica,sans-Serif" font-size="10.00">::getDS18B20Count</text>
</a>
</g>
</g>
<!-- Node16&#45;&gt;Node22 -->
<g id="edge22_Node000016_Node000022" class="edge">
<title>Node16&#45;&gt;Node22</title>
<g id="a_edge22_Node000016_Node000022"><a xlink:title=" ">
<path fill="none" stroke="#63b8ff" d="M638.7,-226.89C655.43,-231.6 673.95,-236.81 691.29,-241.69"/>
<polygon fill="#63b8ff" stroke="#63b8ff" points="689.88,-244.93 700.45,-244.27 691.77,-238.19 689.88,-244.93"/>
</a>
</g>
</g>
<!-- Node23 -->
<g id="Node000023" class="node">
<title>Node23</title>
<g id="a_Node000023"><a xlink:href="class_temperature_controller.html#a6ab2ecc10c283d75d948ce6f1ad723a6" target="_top" xlink:title="Get count of discovered PT1000 sensors.">
<polygon fill="white" stroke="#666666" points="814.25,-226.5 702.25,-226.5 702.25,-196 814.25,-196 814.25,-226.5"/>
<text xml:space="preserve" text-anchor="start" x="710.25" y="-213" font-family="Helvetica,sans-Serif" font-size="10.00">TemperatureController</text>
<text xml:space="preserve" text-anchor="middle" x="758.25" y="-201.75" font-family="Helvetica,sans-Serif" font-size="10.00">::getPT1000Count</text>
</a>
</g>
</g>
<!-- Node16&#45;&gt;Node23 -->
<g id="edge23_Node000016_Node000023" class="edge">
<title>Node16&#45;&gt;Node23</title>
<g id="a_edge23_Node000016_Node000023"><a xlink:title=" ">
<path fill="none" stroke="#63b8ff" d="M639.66,-211.25C655.88,-211.25 673.71,-211.25 690.48,-211.25"/>
<polygon fill="#63b8ff" stroke="#63b8ff" points="690.38,-214.75 700.38,-211.25 690.38,-207.75 690.38,-214.75"/>
</a>
</g>
</g>
<!-- Node18 -->
<g id="Node000018" class="node">
<title>Node18</title>
<g id="a_Node000018"><a xlink:href="class_measurement_point.html#a81c7ae93a9314344967d0f31c6fefe2f" target="_top" xlink:title="Get pointer to bound sensor.">
<polygon fill="white" stroke="#666666" points="995.25,-202.5 850.25,-202.5 850.25,-172 995.25,-172 995.25,-202.5"/>
<text xml:space="preserve" text-anchor="start" x="858.25" y="-189" font-family="Helvetica,sans-Serif" font-size="10.00">MeasurementPoint::getBound</text>
<text xml:space="preserve" text-anchor="middle" x="922.75" y="-177.75" font-family="Helvetica,sans-Serif" font-size="10.00">Sensor</text>
</a>
</g>
</g>
<!-- Node17&#45;&gt;Node18 -->
<g id="edge18_Node000017_Node000018" class="edge">
<title>Node17&#45;&gt;Node18</title>
<g id="a_edge18_Node000017_Node000018"><a xlink:title=" ">
<path fill="none" stroke="#63b8ff" d="M814.72,-170.78C822.41,-171.97 830.44,-173.2 838.49,-174.44"/>
<polygon fill="#63b8ff" stroke="#63b8ff" points="837.95,-177.9 848.37,-175.96 839.02,-170.98 837.95,-177.9"/>
</a>
</g>
</g>
<!-- Node19 -->
<g id="Node000019" class="node">
<title>Node19</title>
<g id="a_Node000019"><a xlink:href="class_temperature_controller.html#a494f057c234b4ff7526bde271aec9267" target="_top" xlink:title="Get measurement point by address.">
<polygon fill="white" stroke="#666666" points="981.38,-153.5 864.12,-153.5 864.12,-123 981.38,-123 981.38,-153.5"/>
<text xml:space="preserve" text-anchor="start" x="872.12" y="-140" font-family="Helvetica,sans-Serif" font-size="10.00">TemperatureController</text>
<text xml:space="preserve" text-anchor="middle" x="922.75" y="-128.75" font-family="Helvetica,sans-Serif" font-size="10.00">::getMeasurementPoint</text>
</a>
</g>
</g>
<!-- Node17&#45;&gt;Node19 -->
<g id="edge19_Node000017_Node000019" class="edge">
<title>Node17&#45;&gt;Node19</title>
<g id="a_edge19_Node000017_Node000019"><a xlink:title=" ">
<path fill="none" stroke="#63b8ff" d="M814.72,-154.06C826.95,-152.25 840.05,-150.32 852.74,-148.44"/>
<polygon fill="#63b8ff" stroke="#63b8ff" points="852.88,-151.96 862.26,-147.04 851.86,-145.03 852.88,-151.96"/>
</a>
</g>
</g>
<!-- Node20 -->
<g id="Node000020" class="node">
<title>Node20</title>
<g id="a_Node000020"><a xlink:href="class_temperature_controller.html#ad322a5bab8d5788a586206004248f673" target="_top" xlink:title="Check if address is for DS18B20 sensor.">
<polygon fill="white" stroke="#666666" points="1143.25,-178.5 1031.25,-178.5 1031.25,-148 1143.25,-148 1143.25,-178.5"/>
<text xml:space="preserve" text-anchor="start" x="1039.25" y="-165" font-family="Helvetica,sans-Serif" font-size="10.00">TemperatureController</text>
<text xml:space="preserve" text-anchor="middle" x="1087.25" y="-153.75" font-family="Helvetica,sans-Serif" font-size="10.00">::isDS18B20Address</text>
</a>
</g>
</g>
<!-- Node19&#45;&gt;Node20 -->
<g id="edge20_Node000019_Node000020" class="edge">
<title>Node19&#45;&gt;Node20</title>
<g id="a_edge20_Node000019_Node000020"><a xlink:title=" ">
<path fill="none" stroke="#63b8ff" d="M981.5,-147.13C993.92,-149.04 1007.14,-151.08 1019.85,-153.04"/>
<polygon fill="#63b8ff" stroke="#63b8ff" points="1018.95,-156.44 1029.37,-154.5 1020.02,-149.52 1018.95,-156.44"/>
</a>
</g>
</g>
<!-- Node21 -->
<g id="Node000021" class="node">
<title>Node21</title>
<g id="a_Node000021"><a xlink:href="class_temperature_controller.html#a13125ddcf29cb56d27403818543618af" target="_top" xlink:title="Check if address is for PT1000 sensor.">
<polygon fill="white" stroke="#666666" points="1143.25,-129.5 1031.25,-129.5 1031.25,-99 1143.25,-99 1143.25,-129.5"/>
<text xml:space="preserve" text-anchor="start" x="1039.25" y="-116" font-family="Helvetica,sans-Serif" font-size="10.00">TemperatureController</text>
<text xml:space="preserve" text-anchor="middle" x="1087.25" y="-104.75" font-family="Helvetica,sans-Serif" font-size="10.00">::isPT1000Address</text>
</a>
</g>
</g>
<!-- Node19&#45;&gt;Node21 -->
<g id="edge21_Node000019_Node000021" class="edge">
<title>Node19&#45;&gt;Node21</title>
<g id="a_edge21_Node000019_Node000021"><a xlink:title=" ">
<path fill="none" stroke="#63b8ff" d="M981.5,-129.72C993.92,-127.89 1007.14,-125.93 1019.85,-124.06"/>
<polygon fill="#63b8ff" stroke="#63b8ff" points="1019.99,-127.57 1029.37,-122.65 1018.96,-120.65 1019.99,-127.57"/>
</a>
</g>
</g>
<!-- Node25 -->
<g id="Node000025" class="node">
<title>Node25</title>
<g id="a_Node000025"><a xlink:href="class_temperature_controller.html#af58201023d15de003d4f1b9a9771a9e3" target="_top" xlink:title="Get list of active alarms.">
<polygon fill="white" stroke="#666666" points="638.12,-557.5 526.12,-557.5 526.12,-527 638.12,-527 638.12,-557.5"/>
<text xml:space="preserve" text-anchor="start" x="534.12" y="-544" font-family="Helvetica,sans-Serif" font-size="10.00">TemperatureController</text>
<text xml:space="preserve" text-anchor="middle" x="582.12" y="-532.75" font-family="Helvetica,sans-Serif" font-size="10.00">::getActiveAlarms</text>
</a>
</g>
</g>
<!-- Node24&#45;&gt;Node25 -->
<g id="edge27_Node000024_Node000025" class="edge">
<title>Node24&#45;&gt;Node25</title>
<g id="a_edge27_Node000024_Node000025"><a xlink:title=" ">
<path fill="none" stroke="#63b8ff" d="M444.81,-511.98C466.75,-516.85 491.97,-522.45 514.7,-527.5"/>
<polygon fill="#63b8ff" stroke="#63b8ff" points="513.63,-530.85 524.15,-529.6 515.15,-524.01 513.63,-530.85"/>
</a>
</g>
</g>
<!-- Node26 -->
<g id="Node000026" class="node">
<title>Node26</title>
<g id="a_Node000026"><a xlink:href="class_alarm.html#a7a4a3290a6a659542f82fe08a96736a8" target="_top" xlink:title="Get the alarm creation timestamp.">
<polygon fill="white" stroke="#666666" points="637,-508.88 527.25,-508.88 527.25,-489.62 637,-489.62 637,-508.88"/>
<text xml:space="preserve" text-anchor="middle" x="582.12" y="-495.38" font-family="Helvetica,sans-Serif" font-size="10.00">Alarm::getTimestamp</text>
</a>
</g>
</g>
<!-- Node24&#45;&gt;Node26 -->
<g id="edge28_Node000024_Node000026" class="edge">
<title>Node24&#45;&gt;Node26</title>
<g id="a_edge28_Node000024_Node000026"><a xlink:title=" ">
<path fill="none" stroke="#63b8ff" d="M444.81,-499.25C467.04,-499.25 492.62,-499.25 515.57,-499.25"/>
<polygon fill="#63b8ff" stroke="#63b8ff" points="515.44,-502.75 525.44,-499.25 515.44,-495.75 515.44,-502.75"/>
</a>
</g>
</g>
</g>
</svg>
