<?xml version="1.0" encoding="UTF-8" standalone="no"?>
<!DOCTYPE svg PUBLIC "-//W3C//DTD SVG 1.1//EN"
 "http://www.w3.org/Graphics/SVG/1.1/DTD/svg11.dtd">
<!-- Generated by graphviz version 13.1.0 (20250701.0955)
 -->
<!-- Title: ConfigManager::getAlarmEventsForPoint Pages: 1 -->
<svg width="567pt" height="76pt"
 viewBox="0.00 0.00 567.00 76.00" xmlns="http://www.w3.org/2000/svg" xmlns:xlink="http://www.w3.org/1999/xlink">
<g id="graph0" class="graph" transform="scale(1 1) rotate(0) translate(4 71.88)">
<title>ConfigManager::getAlarmEventsForPoint</title>
<!-- Node1 -->
<g id="Node000001" class="node">
<title>Node1</title>
<g id="a_Node000001"><a xlink:title="Get alarm events for a specific point within date range.">
<polygon fill="#999999" stroke="#666666" points="157.75,-45.88 0,-45.88 0,-15.37 157.75,-15.37 157.75,-45.88"/>
<text xml:space="preserve" text-anchor="start" x="8" y="-32.38" font-family="Helvetica,sans-Serif" font-size="10.00">ConfigManager::getAlarmEvents</text>
<text xml:space="preserve" text-anchor="middle" x="78.88" y="-21.12" font-family="Helvetica,sans-Serif" font-size="10.00">ForPoint</text>
</a>
</g>
</g>
<!-- Node2 -->
<g id="Node000002" class="node">
<title>Node2</title>
<g id="a_Node000002"><a xlink:href="class_logger_manager.html#a19e6a7d2c3ad2b1d3fa5acb578fb1619" target="_top" xlink:title=" ">
<polygon fill="white" stroke="#666666" points="344.75,-67.88 193.75,-67.88 193.75,-37.38 344.75,-37.38 344.75,-67.88"/>
<text xml:space="preserve" text-anchor="start" x="201.75" y="-54.38" font-family="Helvetica,sans-Serif" font-size="10.00">LoggerManager::getAlarmState</text>
<text xml:space="preserve" text-anchor="middle" x="269.25" y="-43.12" font-family="Helvetica,sans-Serif" font-size="10.00">LogFiles</text>
</a>
</g>
</g>
<!-- Node1&#45;&gt;Node2 -->
<g id="edge1_Node000001_Node000002" class="edge">
<title>Node1&#45;&gt;Node2</title>
<g id="a_edge1_Node000001_Node000002"><a xlink:title=" ">
<path fill="none" stroke="#63b8ff" d="M158.13,-39.76C166.03,-40.69 174.08,-41.63 182.06,-42.56"/>
<polygon fill="#63b8ff" stroke="#63b8ff" points="181.42,-46.01 191.76,-43.69 182.24,-39.06 181.42,-46.01"/>
</a>
</g>
</g>
<!-- Node3 -->
<g id="Node000003" class="node">
<title>Node3</title>
<g id="a_Node000003"><a xlink:href="class_logger_manager.html#a92719154d919a9bd45a8ea192e70dfcc" target="_top" xlink:title=" ">
<polygon fill="white" stroke="#666666" points="339.88,-19.25 198.62,-19.25 198.62,0 339.88,0 339.88,-19.25"/>
<text xml:space="preserve" text-anchor="middle" x="269.25" y="-5.75" font-family="Helvetica,sans-Serif" font-size="10.00">LoggerManager::openLogFile</text>
</a>
</g>
</g>
<!-- Node1&#45;&gt;Node3 -->
<g id="edge2_Node000001_Node000003" class="edge">
<title>Node1&#45;&gt;Node3</title>
<g id="a_edge2_Node000001_Node000003"><a xlink:title=" ">
<path fill="none" stroke="#63b8ff" d="M158.13,-21.9C167.72,-20.83 177.53,-19.74 187.17,-18.66"/>
<polygon fill="#63b8ff" stroke="#63b8ff" points="187.31,-22.17 196.86,-17.58 186.53,-15.21 187.31,-22.17"/>
</a>
</g>
</g>
<!-- Node4 -->
<g id="Node000004" class="node">
<title>Node4</title>
<g id="a_Node000004"><a xlink:href="class_logger_manager.html#a72c969cc82b969c4899dc4d2c8280f0b" target="_top" xlink:title=" ">
<polygon fill="white" stroke="#666666" points="558.75,-19.25 380.75,-19.25 380.75,0 558.75,0 558.75,-19.25"/>
<text xml:space="preserve" text-anchor="middle" x="469.75" y="-5.75" font-family="Helvetica,sans-Serif" font-size="10.00">LoggerManager::getLogDirectoryPath</text>
</a>
</g>
</g>
<!-- Node3&#45;&gt;Node4 -->
<g id="edge3_Node000003_Node000004" class="edge">
<title>Node3&#45;&gt;Node4</title>
<g id="a_edge3_Node000003_Node000004"><a xlink:title=" ">
<path fill="none" stroke="#63b8ff" d="M340.23,-9.62C349.54,-9.62 359.22,-9.62 368.91,-9.62"/>
<polygon fill="#63b8ff" stroke="#63b8ff" points="368.76,-13.13 378.76,-9.63 368.76,-6.13 368.76,-13.13"/>
</a>
</g>
</g>
</g>
</svg>
