<?xml version="1.0" encoding="UTF-8" standalone="no"?>
<!DOCTYPE svg PUBLIC "-//W3C//DTD SVG 1.1//EN"
 "http://www.w3.org/Graphics/SVG/1.1/DTD/svg11.dtd">
<!-- Generated by graphviz version 13.1.0 (20250701.0955)
 -->
<!-- Title: LoggerManager::_generateAlarmStateLogFileName Pages: 1 -->
<svg width="326pt" height="64pt"
 viewBox="0.00 0.00 326.00 64.00" xmlns="http://www.w3.org/2000/svg" xmlns:xlink="http://www.w3.org/1999/xlink">
<g id="graph0" class="graph" transform="scale(1 1) rotate(0) translate(4 60.25)">
<title>LoggerManager::_generateAlarmStateLogFileName</title>
<!-- Node1 -->
<g id="Node000001" class="node">
<title>Node1</title>
<g id="a_Node000001"><a xlink:title=" ">
<polygon fill="#999999" stroke="#666666" points="317.75,-42.88 186.25,-42.88 186.25,-12.37 317.75,-12.37 317.75,-42.88"/>
<text xml:space="preserve" text-anchor="start" x="194.25" y="-29.38" font-family="Helvetica,sans-Serif" font-size="10.00">LoggerManager::_generate</text>
<text xml:space="preserve" text-anchor="middle" x="252" y="-18.12" font-family="Helvetica,sans-Serif" font-size="10.00">AlarmStateLogFileName</text>
</a>
</g>
</g>
<!-- Node2 -->
<g id="Node000002" class="node">
<title>Node2</title>
<g id="a_Node000002"><a xlink:href="class_logger_manager.html#a4acf0149820d73f4ed11340f63706841" target="_top" xlink:title=" ">
<polygon fill="white" stroke="#666666" points="131.12,-56.25 19.13,-56.25 19.13,-37 131.12,-37 131.12,-56.25"/>
<text xml:space="preserve" text-anchor="middle" x="75.12" y="-42.75" font-family="Helvetica,sans-Serif" font-size="10.00">LoggerManager::begin</text>
</a>
</g>
</g>
<!-- Node1&#45;&gt;Node2 -->
<g id="edge1_Node000001_Node000002" class="edge">
<title>Node1&#45;&gt;Node2</title>
<g id="a_edge1_Node000001_Node000002"><a xlink:title=" ">
<path fill="none" stroke="#63b8ff" d="M174.86,-35.9C160.29,-37.48 145.31,-39.11 131.55,-40.6"/>
<polygon fill="#63b8ff" stroke="#63b8ff" points="174.81,-39.42 184.38,-34.86 174.06,-32.46 174.81,-39.42"/>
</a>
</g>
</g>
<!-- Node3 -->
<g id="Node000003" class="node">
<title>Node3</title>
<g id="a_Node000003"><a xlink:href="class_logger_manager.html#af736040bd57412bef8981960e6df3bda" target="_top" xlink:title=" ">
<polygon fill="white" stroke="#666666" points="150.25,-19.25 0,-19.25 0,0 150.25,0 150.25,-19.25"/>
<text xml:space="preserve" text-anchor="middle" x="75.12" y="-5.75" font-family="Helvetica,sans-Serif" font-size="10.00">LoggerManager::logAlarmState</text>
</a>
</g>
</g>
<!-- Node1&#45;&gt;Node3 -->
<g id="edge2_Node000001_Node000003" class="edge">
<title>Node1&#45;&gt;Node3</title>
<g id="a_edge2_Node000001_Node000003"><a xlink:title=" ">
<path fill="none" stroke="#63b8ff" d="M174.46,-19.75C166.58,-18.94 158.58,-18.11 150.72,-17.3"/>
<polygon fill="#63b8ff" stroke="#63b8ff" points="174.07,-23.23 184.38,-20.77 174.79,-16.26 174.07,-23.23"/>
</a>
</g>
</g>
</g>
</svg>
