<?xml version="1.0" encoding="UTF-8" standalone="no"?>
<!DOCTYPE svg PUBLIC "-//W3C//DTD SVG 1.1//EN"
 "http://www.w3.org/Graphics/SVG/1.1/DTD/svg11.dtd">
<!-- Generated by graphviz version 13.1.0 (20250701.0955)
 -->
<!-- Title: LoggerManager::_generateCSVHeader Pages: 1 -->
<svg width="661pt" height="227pt"
 viewBox="0.00 0.00 661.00 227.00" xmlns="http://www.w3.org/2000/svg" xmlns:xlink="http://www.w3.org/1999/xlink">
<g id="graph0" class="graph" transform="scale(1 1) rotate(0) translate(4 222.88)">
<title>LoggerManager::_generateCSVHeader</title>
<!-- Node1 -->
<g id="Node000001" class="node">
<title>Node1</title>
<g id="a_Node000001"><a xlink:title=" ">
<polygon fill="#999999" stroke="#666666" points="652.75,-132.88 521.25,-132.88 521.25,-102.38 652.75,-102.38 652.75,-132.88"/>
<text xml:space="preserve" text-anchor="start" x="529.25" y="-119.38" font-family="Helvetica,sans-Serif" font-size="10.00">LoggerManager::_generate</text>
<text xml:space="preserve" text-anchor="middle" x="587" y="-108.12" font-family="Helvetica,sans-Serif" font-size="10.00">CSVHeader</text>
</a>
</g>
</g>
<!-- Node2 -->
<g id="Node000002" class="node">
<title>Node2</title>
<g id="a_Node000002"><a xlink:href="class_logger_manager.html#a829c2f8dcde77d6506f1d664a291969a" target="_top" xlink:title=" ">
<polygon fill="white" stroke="#666666" points="297.88,-218.88 156.62,-218.88 156.62,-188.38 297.88,-188.38 297.88,-218.88"/>
<text xml:space="preserve" text-anchor="start" x="164.62" y="-205.38" font-family="Helvetica,sans-Serif" font-size="10.00">LoggerManager::_hasHeader</text>
<text xml:space="preserve" text-anchor="middle" x="227.25" y="-194.12" font-family="Helvetica,sans-Serif" font-size="10.00">Changed</text>
</a>
</g>
</g>
<!-- Node1&#45;&gt;Node2 -->
<g id="edge1_Node000001_Node000002" class="edge">
<title>Node1&#45;&gt;Node2</title>
<g id="a_edge1_Node000001_Node000002"><a xlink:title=" ">
<path fill="none" stroke="#63b8ff" d="M559.86,-140.53C540.62,-155.92 513.08,-175.08 485.25,-184.62 424.52,-205.45 351.12,-208.9 298.34,-207.91"/>
<polygon fill="#63b8ff" stroke="#63b8ff" points="561.93,-143.35 567.43,-134.29 557.48,-137.95 561.93,-143.35"/>
</a>
</g>
</g>
<!-- Node4 -->
<g id="Node000004" class="node">
<title>Node4</title>
<g id="a_Node000004"><a xlink:href="class_logger_manager.html#ac7866b2b0244358be6a1cfe8d245cc7d" target="_top" xlink:title=" ">
<polygon fill="white" stroke="#666666" points="485.25,-175.88 336.5,-175.88 336.5,-145.38 485.25,-145.38 485.25,-175.88"/>
<text xml:space="preserve" text-anchor="start" x="344.5" y="-162.38" font-family="Helvetica,sans-Serif" font-size="10.00">LoggerManager::_recoverFrom</text>
<text xml:space="preserve" text-anchor="middle" x="410.88" y="-151.12" font-family="Helvetica,sans-Serif" font-size="10.00">ExistingFiles</text>
</a>
</g>
</g>
<!-- Node1&#45;&gt;Node4 -->
<g id="edge3_Node000001_Node000004" class="edge">
<title>Node1&#45;&gt;Node4</title>
<g id="a_edge3_Node000001_Node000004"><a xlink:title=" ">
<path fill="none" stroke="#63b8ff" d="M511.69,-135.97C499.64,-138.95 487.25,-142.01 475.48,-144.92"/>
<polygon fill="#63b8ff" stroke="#63b8ff" points="512.31,-139.43 521.17,-133.63 510.63,-132.63 512.31,-139.43"/>
</a>
</g>
</g>
<!-- Node5 -->
<g id="Node000005" class="node">
<title>Node5</title>
<g id="a_Node000005"><a xlink:href="class_logger_manager.html#a4acf0149820d73f4ed11340f63706841" target="_top" xlink:title=" ">
<polygon fill="white" stroke="#666666" points="283.25,-132.25 171.25,-132.25 171.25,-113 283.25,-113 283.25,-132.25"/>
<text xml:space="preserve" text-anchor="middle" x="227.25" y="-118.75" font-family="Helvetica,sans-Serif" font-size="10.00">LoggerManager::begin</text>
</a>
</g>
</g>
<!-- Node1&#45;&gt;Node5 -->
<g id="edge9_Node000001_Node000005" class="edge">
<title>Node1&#45;&gt;Node5</title>
<g id="a_edge9_Node000001_Node000005"><a xlink:title=" ">
<path fill="none" stroke="#63b8ff" d="M509.33,-118.7C441.49,-119.64 344.13,-121.01 283.61,-121.85"/>
<polygon fill="#63b8ff" stroke="#63b8ff" points="509.34,-122.2 519.29,-118.56 509.24,-115.2 509.34,-122.2"/>
</a>
</g>
</g>
<!-- Node6 -->
<g id="Node000006" class="node">
<title>Node6</title>
<g id="a_Node000006"><a xlink:href="class_logger_manager.html#a4095daee15dce39ba5f802ea5b5661a2" target="_top" xlink:title=" ">
<polygon fill="white" stroke="#666666" points="484.12,-89.25 337.62,-89.25 337.62,-70 484.12,-70 484.12,-89.25"/>
<text xml:space="preserve" text-anchor="middle" x="410.88" y="-75.75" font-family="Helvetica,sans-Serif" font-size="10.00">LoggerManager::_writeHeader</text>
</a>
</g>
</g>
<!-- Node1&#45;&gt;Node6 -->
<g id="edge6_Node000001_Node000006" class="edge">
<title>Node1&#45;&gt;Node6</title>
<g id="a_edge6_Node000001_Node000006"><a xlink:title=" ">
<path fill="none" stroke="#63b8ff" d="M509.96,-101.03C492.26,-97.17 473.95,-93.17 458.01,-89.69"/>
<polygon fill="#63b8ff" stroke="#63b8ff" points="509.17,-104.44 519.68,-103.15 510.66,-97.6 509.17,-104.44"/>
</a>
</g>
</g>
<!-- Node8 -->
<g id="Node000008" class="node">
<title>Node8</title>
<g id="a_Node000008"><a xlink:href="class_logger_manager.html#a445856fb9bb37bd5e61d5242d8996c1f" target="_top" xlink:title=" ">
<polygon fill="white" stroke="#666666" points="478.88,-51.88 342.88,-51.88 342.88,-21.38 478.88,-21.38 478.88,-51.88"/>
<text xml:space="preserve" text-anchor="start" x="350.88" y="-38.38" font-family="Helvetica,sans-Serif" font-size="10.00">LoggerManager::createNew</text>
<text xml:space="preserve" text-anchor="middle" x="410.88" y="-27.12" font-family="Helvetica,sans-Serif" font-size="10.00">LogFile</text>
</a>
</g>
</g>
<!-- Node1&#45;&gt;Node8 -->
<g id="edge10_Node000001_Node000008" class="edge">
<title>Node1&#45;&gt;Node8</title>
<g id="a_edge10_Node000001_Node000008"><a xlink:title=" ">
<path fill="none" stroke="#63b8ff" d="M551.73,-95.98C532.64,-84.5 508.16,-70.73 485.25,-60.62 478.51,-57.65 471.27,-54.84 464.07,-52.27"/>
<polygon fill="#63b8ff" stroke="#63b8ff" points="549.81,-98.91 560.17,-101.12 553.45,-92.93 549.81,-98.91"/>
</a>
</g>
</g>
<!-- Node3 -->
<g id="Node000003" class="node">
<title>Node3</title>
<g id="a_Node000003"><a xlink:href="class_logger_manager.html#a830c86f1f27d3799eab1de908fc6b647" target="_top" xlink:title=" ">
<polygon fill="white" stroke="#666666" points="118,-132.25 0,-132.25 0,-113 118,-113 118,-132.25"/>
<text xml:space="preserve" text-anchor="middle" x="59" y="-118.75" font-family="Helvetica,sans-Serif" font-size="10.00">LoggerManager::update</text>
</a>
</g>
</g>
<!-- Node2&#45;&gt;Node3 -->
<g id="edge2_Node000002_Node000003" class="edge">
<title>Node2&#45;&gt;Node3</title>
<g id="a_edge2_Node000002_Node000003"><a xlink:title=" ">
<path fill="none" stroke="#63b8ff" d="M174.02,-183.56C167.23,-180.69 160.41,-177.67 154,-174.62 126.2,-161.42 95.19,-143.64 76.65,-132.66"/>
<polygon fill="#63b8ff" stroke="#63b8ff" points="172.63,-186.77 183.21,-187.35 175.3,-180.3 172.63,-186.77"/>
</a>
</g>
</g>
<!-- Node4&#45;&gt;Node3 -->
<g id="edge5_Node000004_Node000003" class="edge">
<title>Node4&#45;&gt;Node3</title>
<g id="a_edge5_Node000004_Node000003"><a xlink:title=" ">
<path fill="none" stroke="#63b8ff" d="M324.87,-156.99C274.94,-154.19 210.7,-149.43 154,-141.62 137.51,-139.35 119.55,-135.96 103.8,-132.66"/>
<polygon fill="#63b8ff" stroke="#63b8ff" points="324.58,-160.48 334.76,-157.53 324.97,-153.49 324.58,-160.48"/>
</a>
</g>
</g>
<!-- Node4&#45;&gt;Node5 -->
<g id="edge4_Node000004_Node000005" class="edge">
<title>Node4&#45;&gt;Node5</title>
<g id="a_edge4_Node000004_Node000005"><a xlink:title=" ">
<path fill="none" stroke="#63b8ff" d="M325.11,-142.89C308.45,-139.4 291.52,-135.86 276.56,-132.73"/>
<polygon fill="#63b8ff" stroke="#63b8ff" points="324.01,-146.24 334.52,-144.86 325.45,-139.39 324.01,-146.24"/>
</a>
</g>
</g>
<!-- Node7 -->
<g id="Node000007" class="node">
<title>Node7</title>
<g id="a_Node000007"><a xlink:href="class_logger_manager.html#a32ce9f462269787130bee46b2c34b632" target="_top" xlink:title=" ">
<polygon fill="white" stroke="#666666" points="298.62,-95.25 155.88,-95.25 155.88,-76 298.62,-76 298.62,-95.25"/>
<text xml:space="preserve" text-anchor="middle" x="227.25" y="-81.75" font-family="Helvetica,sans-Serif" font-size="10.00">LoggerManager::logDataNow</text>
</a>
</g>
</g>
<!-- Node6&#45;&gt;Node7 -->
<g id="edge7_Node000006_Node000007" class="edge">
<title>Node6&#45;&gt;Node7</title>
<g id="a_edge7_Node000006_Node000007"><a xlink:title=" ">
<path fill="none" stroke="#63b8ff" d="M325.94,-82.4C316.91,-82.7 307.78,-83 298.93,-83.29"/>
<polygon fill="#63b8ff" stroke="#63b8ff" points="325.92,-85.9 335.8,-82.07 325.69,-78.9 325.92,-85.9"/>
</a>
</g>
</g>
<!-- Node7&#45;&gt;Node3 -->
<g id="edge8_Node000007_Node000003" class="edge">
<title>Node7&#45;&gt;Node3</title>
<g id="a_edge8_Node000007_Node000003"><a xlink:title=" ">
<path fill="none" stroke="#63b8ff" d="M169.78,-98.19C148.79,-102.87 125.25,-108.1 105.37,-112.53"/>
<polygon fill="#63b8ff" stroke="#63b8ff" points="170.34,-101.65 179.34,-96.06 168.82,-94.82 170.34,-101.65"/>
</a>
</g>
</g>
<!-- Node8&#45;&gt;Node3 -->
<g id="edge12_Node000008_Node000003" class="edge">
<title>Node8&#45;&gt;Node3</title>
<g id="a_edge12_Node000008_Node000003"><a xlink:title=" ">
<path fill="none" stroke="#63b8ff" d="M331.05,-37.38C279.48,-39.92 211.3,-47.19 154,-66.62 122.52,-77.3 90.15,-99.55 72.82,-112.56"/>
<polygon fill="#63b8ff" stroke="#63b8ff" points="331.11,-40.88 340.95,-36.95 330.8,-33.89 331.11,-40.88"/>
</a>
</g>
</g>
<!-- Node9 -->
<g id="Node000009" class="node">
<title>Node9</title>
<g id="a_Node000009"><a xlink:href="class_logger_manager.html#a32e39dd8df48f64677732ede4066f01d" target="_top" xlink:title=" ">
<polygon fill="white" stroke="#666666" points="300.5,-19.25 154,-19.25 154,0 300.5,0 300.5,-19.25"/>
<text xml:space="preserve" text-anchor="middle" x="227.25" y="-5.75" font-family="Helvetica,sans-Serif" font-size="10.00">LoggerManager::forceNewFile</text>
</a>
</g>
</g>
<!-- Node8&#45;&gt;Node9 -->
<g id="edge11_Node000008_Node000009" class="edge">
<title>Node8&#45;&gt;Node9</title>
<g id="a_edge11_Node000008_Node000009"><a xlink:title=" ">
<path fill="none" stroke="#63b8ff" d="M331.36,-24.95C319.63,-23.21 307.61,-21.42 296.12,-19.71"/>
<polygon fill="#63b8ff" stroke="#63b8ff" points="330.6,-28.38 341.01,-26.39 331.63,-21.45 330.6,-28.38"/>
</a>
</g>
</g>
</g>
</svg>
