<?xml version="1.0" encoding="UTF-8" standalone="no"?>
<!DOCTYPE svg PUBLIC "-//W3C//DTD SVG 1.1//EN"
 "http://www.w3.org/Graphics/SVG/1.1/DTD/svg11.dtd">
<!-- Generated by graphviz version 13.1.0 (20250701.0955)
 -->
<!-- Title: src/main.cpp Pages: 1 -->
<svg width="1604pt" height="469pt"
 viewBox="0.00 0.00 1604.00 469.00" xmlns="http://www.w3.org/2000/svg" xmlns:xlink="http://www.w3.org/1999/xlink">
<g id="graph0" class="graph" transform="scale(1 1) rotate(0) translate(4 465.25)">
<title>src/main.cpp</title>
<!-- Node1 -->
<g id="Node000001" class="node">
<title>Node1</title>
<g id="a_Node000001"><a xlink:title="Main application entry point for Industrial Temperature Monitoring System.">
<polygon fill="#999999" stroke="#666666" points="712.38,-461.25 640.12,-461.25 640.12,-442 712.38,-442 712.38,-461.25"/>
<text xml:space="preserve" text-anchor="middle" x="676.25" y="-447.75" font-family="Helvetica,sans-Serif" font-size="10.00">src/main.cpp</text>
</a>
</g>
</g>
<!-- Node2 -->
<g id="Node000002" class="node">
<title>Node2</title>
<g id="a_Node000002"><a xlink:title=" ">
<polygon fill="#e0e0e0" stroke="#999999" points="1047.88,-19.25 990.62,-19.25 990.62,0 1047.88,0 1047.88,-19.25"/>
<text xml:space="preserve" text-anchor="middle" x="1019.25" y="-5.75" font-family="Helvetica,sans-Serif" font-size="10.00">Arduino.h</text>
</a>
</g>
</g>
<!-- Node1&#45;&gt;Node2 -->
<g id="edge1_Node000001_Node000002" class="edge">
<title>Node1&#45;&gt;Node2</title>
<g id="a_edge1_Node000001_Node000002"><a xlink:title=" ">
<path fill="none" stroke="#63b8ff" d="M639.77,-448.7C539.87,-442.44 269.25,-418.45 269.25,-342.12 269.25,-342.12 269.25,-342.12 269.25,-119.12 269.25,-46.76 823.24,-18.64 978.97,-12.16"/>
<polygon fill="#63b8ff" stroke="#63b8ff" points="978.95,-15.67 988.8,-11.76 978.66,-8.67 978.95,-15.67"/>
</a>
</g>
</g>
<!-- Node3 -->
<g id="Node000003" class="node">
<title>Node3</title>
<g id="a_Node000003"><a xlink:href="_temperature_controller_8h.html" target="_top" xlink:title=" ">
<polygon fill="white" stroke="#666666" points="1007,-295.5 887.5,-295.5 887.5,-276.25 1007,-276.25 1007,-295.5"/>
<text xml:space="preserve" text-anchor="middle" x="947.25" y="-282" font-family="Helvetica,sans-Serif" font-size="10.00">TemperatureController.h</text>
</a>
</g>
</g>
<!-- Node1&#45;&gt;Node3 -->
<g id="edge2_Node000001_Node000003" class="edge">
<title>Node1&#45;&gt;Node3</title>
<g id="a_edge2_Node000001_Node000003"><a xlink:title=" ">
<path fill="none" stroke="#63b8ff" d="M690.1,-441.76C721.53,-421.7 800.75,-371.48 868.25,-331.5 885.65,-321.19 905.46,-310 920.9,-301.41"/>
<polygon fill="#63b8ff" stroke="#63b8ff" points="922.43,-304.56 929.47,-296.65 919.03,-298.44 922.43,-304.56"/>
</a>
</g>
</g>
<!-- Node10 -->
<g id="Node000010" class="node">
<title>Node10</title>
<g id="a_Node000010"><a xlink:href="_logger_manager_8h.html" target="_top" xlink:title="Comprehensive data and event logging system for temperature monitoring.">
<polygon fill="white" stroke="#666666" points="1195.38,-129.75 1105.12,-129.75 1105.12,-110.5 1195.38,-110.5 1195.38,-129.75"/>
<text xml:space="preserve" text-anchor="middle" x="1150.25" y="-116.25" font-family="Helvetica,sans-Serif" font-size="10.00">LoggerManager.h</text>
</a>
</g>
</g>
<!-- Node1&#45;&gt;Node10 -->
<g id="edge70_Node000001_Node000010" class="edge">
<title>Node1&#45;&gt;Node10</title>
<g id="a_edge70_Node000001_Node000010"><a xlink:title=" ">
<path fill="none" stroke="#63b8ff" d="M712.79,-449.07C866.51,-442.14 1455.16,-411.76 1508.25,-350.75 1605.9,-238.53 1328.15,-160.73 1205.37,-132.67"/>
<polygon fill="#63b8ff" stroke="#63b8ff" points="1206.34,-129.3 1195.82,-130.52 1204.8,-136.13 1206.34,-129.3"/>
</a>
</g>
</g>
<!-- Node13 -->
<g id="Node000013" class="node">
<title>Node13</title>
<g id="a_Node000013"><a xlink:href="_time_manager_8h.html" target="_top" xlink:title=" ">
<polygon fill="white" stroke="#666666" points="241.62,-74.5 158.88,-74.5 158.88,-55.25 241.62,-55.25 241.62,-74.5"/>
<text xml:space="preserve" text-anchor="middle" x="200.25" y="-61" font-family="Helvetica,sans-Serif" font-size="10.00">TimeManager.h</text>
</a>
</g>
</g>
<!-- Node1&#45;&gt;Node13 -->
<g id="edge69_Node000001_Node000013" class="edge">
<title>Node1&#45;&gt;Node13</title>
<g id="a_edge69_Node000001_Node000013"><a xlink:title=" ">
<path fill="none" stroke="#63b8ff" d="M639.64,-450.05C565.86,-448.17 394.45,-440.15 255.25,-406 180.08,-387.56 93.25,-419.52 93.25,-342.12 93.25,-342.12 93.25,-342.12 93.25,-174.38 93.25,-130.4 138.35,-97.79 169.99,-80.33"/>
<polygon fill="#63b8ff" stroke="#63b8ff" points="171.57,-83.45 178.79,-75.69 168.31,-77.26 171.57,-83.45"/>
</a>
</g>
</g>
<!-- Node22 -->
<g id="Node000022" class="node">
<title>Node22</title>
<g id="a_Node000022"><a xlink:href="_indicator_interface_8h.html" target="_top" xlink:title="Hardware interface for PCF8575 I/O expander and SH1106 OLED display.">
<polygon fill="white" stroke="#666666" points="560.25,-185 460.25,-185 460.25,-165.75 560.25,-165.75 560.25,-185"/>
<text xml:space="preserve" text-anchor="middle" x="510.25" y="-171.5" font-family="Helvetica,sans-Serif" font-size="10.00">IndicatorInterface.h</text>
</a>
</g>
</g>
<!-- Node1&#45;&gt;Node22 -->
<g id="edge67_Node000001_Node000022" class="edge">
<title>Node1&#45;&gt;Node22</title>
<g id="a_edge67_Node000001_Node000022"><a xlink:title=" ">
<path fill="none" stroke="#63b8ff" d="M640.09,-448.78C577.88,-443.46 457.25,-422.74 457.25,-342.12 457.25,-342.12 457.25,-342.12 457.25,-284.88 457.25,-255.26 462.83,-247.41 476.25,-221 481.14,-211.37 488.18,-201.71 494.58,-193.85"/>
<polygon fill="#63b8ff" stroke="#63b8ff" points="497.08,-196.31 500.91,-186.43 491.75,-191.77 497.08,-196.31"/>
</a>
</g>
</g>
<!-- Node29 -->
<g id="Node000029" class="node">
<title>Node29</title>
<g id="a_Node000029"><a xlink:href="_temp_modbus_server_8h.html" target="_top" xlink:title=" ">
<polygon fill="white" stroke="#666666" points="707.5,-295.5 597,-295.5 597,-276.25 707.5,-276.25 707.5,-295.5"/>
<text xml:space="preserve" text-anchor="middle" x="652.25" y="-282" font-family="Helvetica,sans-Serif" font-size="10.00">TempModbusServer.h</text>
</a>
</g>
</g>
<!-- Node1&#45;&gt;Node29 -->
<g id="edge47_Node000001_Node000029" class="edge">
<title>Node1&#45;&gt;Node29</title>
<g id="a_edge47_Node000001_Node000029"><a xlink:title=" ">
<path fill="none" stroke="#63b8ff" d="M674.96,-441.82C671.25,-416.5 660.48,-343 655.21,-307.09"/>
<polygon fill="#63b8ff" stroke="#63b8ff" points="658.68,-306.61 653.77,-297.22 651.75,-307.62 658.68,-306.61"/>
</a>
</g>
</g>
<!-- Node31 -->
<g id="Node000031" class="node">
<title>Node31</title>
<g id="a_Node000031"><a xlink:href="_config_manager_8h.html" target="_top" xlink:title="Configuration management system for temperature monitoring device.">
<polygon fill="white" stroke="#666666" points="1103,-406 1013.5,-406 1013.5,-386.75 1103,-386.75 1103,-406"/>
<text xml:space="preserve" text-anchor="middle" x="1058.25" y="-392.5" font-family="Helvetica,sans-Serif" font-size="10.00">ConfigManager.h</text>
</a>
</g>
</g>
<!-- Node1&#45;&gt;Node31 -->
<g id="edge52_Node000001_Node000031" class="edge">
<title>Node1&#45;&gt;Node31</title>
<g id="a_edge52_Node000001_Node000031"><a xlink:title=" ">
<path fill="none" stroke="#63b8ff" d="M712.53,-445.57C779.36,-436.25 922.34,-416.32 1001.9,-405.23"/>
<polygon fill="#63b8ff" stroke="#63b8ff" points="1002.24,-408.72 1011.66,-403.87 1001.27,-401.78 1002.24,-408.72"/>
</a>
</g>
</g>
<!-- Node39 -->
<g id="Node000039" class="node">
<title>Node39</title>
<g id="a_Node000039"><a xlink:title=" ">
<polygon fill="#e0e0e0" stroke="#999999" points="1595.62,-406 1554.88,-406 1554.88,-386.75 1595.62,-386.75 1595.62,-406"/>
<text xml:space="preserve" text-anchor="middle" x="1575.25" y="-392.5" font-family="Helvetica,sans-Serif" font-size="10.00">SPI.h</text>
</a>
</g>
</g>
<!-- Node1&#45;&gt;Node39 -->
<g id="edge68_Node000001_Node000039" class="edge">
<title>Node1&#45;&gt;Node39</title>
<g id="a_edge68_Node000001_Node000039"><a xlink:title=" ">
<path fill="none" stroke="#63b8ff" d="M712.57,-449.7C855.24,-445.94 1377.51,-430.75 1541.25,-406 1541.93,-405.9 1542.61,-405.79 1543.3,-405.67"/>
<polygon fill="#63b8ff" stroke="#63b8ff" points="1543.97,-409.11 1553.04,-403.63 1542.54,-402.25 1543.97,-409.11"/>
</a>
</g>
</g>
<!-- Node3&#45;&gt;Node2 -->
<g id="edge3_Node000003_Node000002" class="edge">
<title>Node3&#45;&gt;Node2</title>
<g id="a_edge3_Node000003_Node000002"><a xlink:title=" ">
<path fill="none" stroke="#63b8ff" d="M1007.18,-277.01C1090.5,-265.91 1232.3,-246.31 1242.25,-240.25 1269.83,-223.45 1343.5,-98.36 1350.25,-74.5 1352.58,-66.27 1355.88,-61.69 1350.25,-55.25 1312.87,-12.5 1138.93,-9.04 1059.27,-9.78"/>
<polygon fill="#63b8ff" stroke="#63b8ff" points="1059.7,-6.27 1049.75,-9.89 1059.79,-13.27 1059.7,-6.27"/>
</a>
</g>
</g>
<!-- Node4 -->
<g id="Node000004" class="node">
<title>Node4</title>
<g id="a_Node000004"><a xlink:title=" ">
<polygon fill="#e0e0e0" stroke="#999999" points="1321.75,-74.5 1278.75,-74.5 1278.75,-55.25 1321.75,-55.25 1321.75,-74.5"/>
<text xml:space="preserve" text-anchor="middle" x="1300.25" y="-61" font-family="Helvetica,sans-Serif" font-size="10.00">vector</text>
</a>
</g>
</g>
<!-- Node3&#45;&gt;Node4 -->
<g id="edge4_Node000003_Node000004" class="edge">
<title>Node3&#45;&gt;Node4</title>
<g id="a_edge4_Node000003_Node000004"><a xlink:title=" ">
<path fill="none" stroke="#63b8ff" d="M1007.22,-276.48C1084.73,-265.43 1210.84,-246.63 1219.25,-240.25 1270.15,-201.62 1290.22,-123.26 1297.1,-86.19"/>
<polygon fill="#63b8ff" stroke="#63b8ff" points="1300.54,-86.87 1298.77,-76.42 1293.64,-85.69 1300.54,-86.87"/>
</a>
</g>
</g>
<!-- Node5 -->
<g id="Node000005" class="node">
<title>Node5</title>
<g id="a_Node000005"><a xlink:href="_sensor_8h.html" target="_top" xlink:title=" ">
<polygon fill="white" stroke="#666666" points="953.38,-129.75 899.12,-129.75 899.12,-110.5 953.38,-110.5 953.38,-129.75"/>
<text xml:space="preserve" text-anchor="middle" x="926.25" y="-116.25" font-family="Helvetica,sans-Serif" font-size="10.00">Sensor.h</text>
</a>
</g>
</g>
<!-- Node3&#45;&gt;Node5 -->
<g id="edge5_Node000003_Node000005" class="edge">
<title>Node3&#45;&gt;Node5</title>
<g id="a_edge5_Node000003_Node000005"><a xlink:title=" ">
<path fill="none" stroke="#63b8ff" d="M946.12,-276.07C942.87,-250.75 933.45,-177.25 928.84,-141.34"/>
<polygon fill="#63b8ff" stroke="#63b8ff" points="932.32,-140.95 927.58,-131.47 925.38,-141.84 932.32,-140.95"/>
</a>
</g>
</g>
<!-- Node6 -->
<g id="Node000006" class="node">
<title>Node6</title>
<g id="a_Node000006"><a xlink:title=" ">
<polygon fill="#e0e0e0" stroke="#999999" points="780.5,-74.5 718,-74.5 718,-55.25 780.5,-55.25 780.5,-74.5"/>
<text xml:space="preserve" text-anchor="middle" x="749.25" y="-61" font-family="Helvetica,sans-Serif" font-size="10.00">OneWire.h</text>
</a>
</g>
</g>
<!-- Node3&#45;&gt;Node6 -->
<g id="edge43_Node000003_Node000006" class="edge">
<title>Node3&#45;&gt;Node6</title>
<g id="a_edge43_Node000003_Node000006"><a xlink:title=" ">
<path fill="none" stroke="#63b8ff" d="M939.24,-276.02C909.45,-243.07 804.68,-127.19 764.81,-83.09"/>
<polygon fill="#63b8ff" stroke="#63b8ff" points="767.46,-80.79 758.15,-75.72 762.27,-85.49 767.46,-80.79"/>
</a>
</g>
</g>
<!-- Node7 -->
<g id="Node000007" class="node">
<title>Node7</title>
<g id="a_Node000007"><a xlink:title=" ">
<polygon fill="#e0e0e0" stroke="#999999" points="1072.25,-74.5 966.25,-74.5 966.25,-55.25 1072.25,-55.25 1072.25,-74.5"/>
<text xml:space="preserve" text-anchor="middle" x="1019.25" y="-61" font-family="Helvetica,sans-Serif" font-size="10.00">DallasTemperature.h</text>
</a>
</g>
</g>
<!-- Node3&#45;&gt;Node7 -->
<g id="edge44_Node000003_Node000007" class="edge">
<title>Node3&#45;&gt;Node7</title>
<g id="a_edge44_Node000003_Node000007"><a xlink:title=" ">
<path fill="none" stroke="#63b8ff" d="M950.16,-276.02C960.81,-243.62 997.82,-131.05 1012.84,-85.37"/>
<polygon fill="#63b8ff" stroke="#63b8ff" points="1016.11,-86.63 1015.91,-76.04 1009.46,-84.45 1016.11,-86.63"/>
</a>
</g>
</g>
<!-- Node9 -->
<g id="Node000009" class="node">
<title>Node9</title>
<g id="a_Node000009"><a xlink:href="_measurement_point_8h.html" target="_top" xlink:title="Measurement point abstraction for temperature monitoring system.">
<polygon fill="white" stroke="#666666" points="1119.25,-185 1013.25,-185 1013.25,-165.75 1119.25,-165.75 1119.25,-185"/>
<text xml:space="preserve" text-anchor="middle" x="1066.25" y="-171.5" font-family="Helvetica,sans-Serif" font-size="10.00">MeasurementPoint.h</text>
</a>
</g>
</g>
<!-- Node3&#45;&gt;Node9 -->
<g id="edge10_Node000003_Node000009" class="edge">
<title>Node3&#45;&gt;Node9</title>
<g id="a_edge10_Node000003_Node000009"><a xlink:title=" ">
<path fill="none" stroke="#63b8ff" d="M958.15,-275.81C968.77,-266.9 985.31,-252.86 999.25,-240.25 1016.65,-224.51 1036,-205.94 1049.41,-192.9"/>
<polygon fill="#63b8ff" stroke="#63b8ff" points="1051.5,-195.75 1056.21,-186.26 1046.61,-190.75 1051.5,-195.75"/>
</a>
</g>
</g>
<!-- Node19 -->
<g id="Node000019" class="node">
<title>Node19</title>
<g id="a_Node000019"><a xlink:title=" ">
<polygon fill="#e0e0e0" stroke="#999999" points="446.38,-19.25 368.12,-19.25 368.12,0 446.38,0 446.38,-19.25"/>
<text xml:space="preserve" text-anchor="middle" x="407.25" y="-5.75" font-family="Helvetica,sans-Serif" font-size="10.00">ArduinoJson.h</text>
</a>
</g>
</g>
<!-- Node3&#45;&gt;Node19 -->
<g id="edge45_Node000003_Node000019" class="edge">
<title>Node3&#45;&gt;Node19</title>
<g id="a_edge45_Node000003_Node000019"><a xlink:title=" ">
<path fill="none" stroke="#63b8ff" d="M887.22,-276.6C832.1,-268.62 748.32,-255.52 676.25,-240.25 643,-233.2 635.22,-229.22 602.25,-221 476.89,-189.75 396.76,-238.01 326.25,-129.75 301.63,-91.96 351.9,-48.29 383.76,-25.79"/>
<polygon fill="#63b8ff" stroke="#63b8ff" points="385.42,-28.89 391.7,-20.36 381.47,-23.11 385.42,-28.89"/>
</a>
</g>
</g>
<!-- Node20 -->
<g id="Node000020" class="node">
<title>Node20</title>
<g id="a_Node000020"><a xlink:href="_register_map_8h.html" target="_top" xlink:title=" ">
<polygon fill="white" stroke="#666666" points="843.12,-240.25 763.38,-240.25 763.38,-221 843.12,-221 843.12,-240.25"/>
<text xml:space="preserve" text-anchor="middle" x="803.25" y="-226.75" font-family="Helvetica,sans-Serif" font-size="10.00">RegisterMap.h</text>
</a>
</g>
</g>
<!-- Node3&#45;&gt;Node20 -->
<g id="edge26_Node000003_Node000020" class="edge">
<title>Node3&#45;&gt;Node20</title>
<g id="a_edge26_Node000003_Node000020"><a xlink:title=" ">
<path fill="none" stroke="#63b8ff" d="M922.82,-275.84C899.65,-267.27 864.59,-254.31 838.41,-244.63"/>
<polygon fill="#63b8ff" stroke="#63b8ff" points="839.81,-241.41 829.22,-241.23 837.38,-247.98 839.81,-241.41"/>
</a>
</g>
</g>
<!-- Node3&#45;&gt;Node22 -->
<g id="edge29_Node000003_Node000022" class="edge">
<title>Node3&#45;&gt;Node22</title>
<g id="a_edge29_Node000003_Node000022"><a xlink:title=" ">
<path fill="none" stroke="#63b8ff" d="M906.5,-275.81C867.39,-267.03 806.68,-253.17 754.25,-240.25 684.38,-223.03 603.68,-201.6 554.83,-188.46"/>
<polygon fill="#63b8ff" stroke="#63b8ff" points="555.75,-185.08 545.18,-185.86 553.93,-191.84 555.75,-185.08"/>
</a>
</g>
</g>
<!-- Node27 -->
<g id="Node000027" class="node">
<title>Node27</title>
<g id="a_Node000027"><a xlink:href="_alarm_8h.html" target="_top" xlink:title="Alarm management system for temperature monitoring.">
<polygon fill="white" stroke="#666666" points="1210.12,-240.25 1160.38,-240.25 1160.38,-221 1210.12,-221 1210.12,-240.25"/>
<text xml:space="preserve" text-anchor="middle" x="1185.25" y="-226.75" font-family="Helvetica,sans-Serif" font-size="10.00">Alarm.h</text>
</a>
</g>
</g>
<!-- Node3&#45;&gt;Node27 -->
<g id="edge38_Node000003_Node000027" class="edge">
<title>Node3&#45;&gt;Node27</title>
<g id="a_edge38_Node000003_Node000027"><a xlink:title=" ">
<path fill="none" stroke="#63b8ff" d="M987.89,-275.78C1033.13,-265.66 1105.57,-249.45 1148.97,-239.74"/>
<polygon fill="#63b8ff" stroke="#63b8ff" points="1149.66,-243.17 1158.65,-237.58 1148.13,-236.34 1149.66,-243.17"/>
</a>
</g>
</g>
<!-- Node28 -->
<g id="Node000028" class="node">
<title>Node28</title>
<g id="a_Node000028"><a xlink:title=" ">
<polygon fill="#e0e0e0" stroke="#999999" points="1107.12,-240.25 1051.38,-240.25 1051.38,-221 1107.12,-221 1107.12,-240.25"/>
<text xml:space="preserve" text-anchor="middle" x="1079.25" y="-226.75" font-family="Helvetica,sans-Serif" font-size="10.00">algorithm</text>
</a>
</g>
</g>
<!-- Node3&#45;&gt;Node28 -->
<g id="edge46_Node000003_Node000028" class="edge">
<title>Node3&#45;&gt;Node28</title>
<g id="a_edge46_Node000003_Node000028"><a xlink:title=" ">
<path fill="none" stroke="#63b8ff" d="M969.64,-275.84C990.69,-267.35 1022.45,-254.54 1046.37,-244.89"/>
<polygon fill="#63b8ff" stroke="#63b8ff" points="1047.38,-248.26 1055.34,-241.27 1044.76,-241.76 1047.38,-248.26"/>
</a>
</g>
</g>
<!-- Node5&#45;&gt;Node2 -->
<g id="edge6_Node000005_Node000002" class="edge">
<title>Node5&#45;&gt;Node2</title>
<g id="a_edge6_Node000005_Node000002"><a xlink:title=" ">
<path fill="none" stroke="#63b8ff" d="M929.05,-110.07C933.44,-96.91 942.97,-72.23 957.25,-55.25 967.12,-43.52 980.72,-33.28 992.67,-25.58"/>
<polygon fill="#63b8ff" stroke="#63b8ff" points="994.22,-28.74 1000.91,-20.52 990.56,-22.77 994.22,-28.74"/>
</a>
</g>
</g>
<!-- Node5&#45;&gt;Node6 -->
<g id="edge7_Node000005_Node000006" class="edge">
<title>Node5&#45;&gt;Node6</title>
<g id="a_edge7_Node000005_Node000006"><a xlink:title=" ">
<path fill="none" stroke="#63b8ff" d="M898.98,-110.92C869.97,-102.19 823.74,-88.28 790.32,-78.23"/>
<polygon fill="#63b8ff" stroke="#63b8ff" points="791.55,-74.95 780.97,-75.42 789.53,-81.65 791.55,-74.95"/>
</a>
</g>
</g>
<!-- Node5&#45;&gt;Node7 -->
<g id="edge8_Node000005_Node000007" class="edge">
<title>Node5&#45;&gt;Node7</title>
<g id="a_edge8_Node000005_Node000007"><a xlink:title=" ">
<path fill="none" stroke="#63b8ff" d="M942.03,-110.09C956.19,-101.98 977.23,-89.93 993.78,-80.46"/>
<polygon fill="#63b8ff" stroke="#63b8ff" points="995.14,-83.71 1002.08,-75.7 991.67,-77.64 995.14,-83.71"/>
</a>
</g>
</g>
<!-- Node8 -->
<g id="Node000008" class="node">
<title>Node8</title>
<g id="a_Node000008"><a xlink:title=" ">
<polygon fill="#e0e0e0" stroke="#999999" points="909.88,-74.5 798.62,-74.5 798.62,-55.25 909.88,-55.25 909.88,-74.5"/>
<text xml:space="preserve" text-anchor="middle" x="854.25" y="-61" font-family="Helvetica,sans-Serif" font-size="10.00">Adafruit_MAX31865.h</text>
</a>
</g>
</g>
<!-- Node5&#45;&gt;Node8 -->
<g id="edge9_Node000005_Node000008" class="edge">
<title>Node5&#45;&gt;Node8</title>
<g id="a_edge9_Node000005_Node000008"><a xlink:title=" ">
<path fill="none" stroke="#63b8ff" d="M914.04,-110.09C903.42,-102.24 887.81,-90.7 875.21,-81.37"/>
<polygon fill="#63b8ff" stroke="#63b8ff" points="877.62,-78.81 867.5,-75.67 873.46,-84.44 877.62,-78.81"/>
</a>
</g>
</g>
<!-- Node9&#45;&gt;Node2 -->
<g id="edge11_Node000009_Node000002" class="edge">
<title>Node9&#45;&gt;Node2</title>
<g id="a_edge11_Node000009_Node000002"><a xlink:title=" ">
<path fill="none" stroke="#63b8ff" d="M1070.68,-165.41C1080.21,-144.71 1100.35,-92.54 1081.25,-55.25 1074.64,-42.34 1062.36,-32.32 1050.46,-25.07"/>
<polygon fill="#63b8ff" stroke="#63b8ff" points="1052.45,-22.17 1042.01,-20.37 1049.05,-28.29 1052.45,-22.17"/>
</a>
</g>
</g>
<!-- Node9&#45;&gt;Node5 -->
<g id="edge12_Node000009_Node000005" class="edge">
<title>Node9&#45;&gt;Node5</title>
<g id="a_edge12_Node000009_Node000005"><a xlink:title=" ">
<path fill="none" stroke="#63b8ff" d="M1042.5,-165.34C1020.08,-156.81 986.19,-143.92 960.78,-134.26"/>
<polygon fill="#63b8ff" stroke="#63b8ff" points="962.12,-131.02 951.53,-130.74 959.63,-137.57 962.12,-131.02"/>
</a>
</g>
</g>
<!-- Node9&#45;&gt;Node10 -->
<g id="edge13_Node000009_Node000010" class="edge">
<title>Node9&#45;&gt;Node10</title>
<g id="a_edge13_Node000009_Node000010"><a xlink:title=" ">
<path fill="none" stroke="#63b8ff" d="M1080.5,-165.34C1093.05,-157.39 1111.58,-145.64 1126.39,-136.25"/>
<polygon fill="#63b8ff" stroke="#63b8ff" points="1128.08,-139.32 1134.65,-131.01 1124.33,-133.41 1128.08,-139.32"/>
</a>
</g>
</g>
<!-- Node10&#45;&gt;Node2 -->
<g id="edge14_Node000010_Node000002" class="edge">
<title>Node10&#45;&gt;Node2</title>
<g id="a_edge14_Node000010_Node000002"><a xlink:title=" ">
<path fill="none" stroke="#63b8ff" d="M1178.83,-110.05C1209.16,-98.94 1250.26,-78.68 1231.25,-55.25 1210.01,-29.07 1114.58,-17.68 1059.26,-13.19"/>
<polygon fill="#63b8ff" stroke="#63b8ff" points="1059.86,-9.73 1049.62,-12.46 1059.32,-16.71 1059.86,-9.73"/>
</a>
</g>
</g>
<!-- Node10&#45;&gt;Node4 -->
<g id="edge25_Node000010_Node000004" class="edge">
<title>Node10&#45;&gt;Node4</title>
<g id="a_edge25_Node000010_Node000004"><a xlink:title=" ">
<path fill="none" stroke="#63b8ff" d="M1175.7,-110.09C1201.11,-101.07 1240.28,-87.17 1267.89,-77.36"/>
<polygon fill="#63b8ff" stroke="#63b8ff" points="1268.9,-80.72 1277.16,-74.07 1266.56,-74.12 1268.9,-80.72"/>
</a>
</g>
</g>
<!-- Node11 -->
<g id="Node000011" class="node">
<title>Node11</title>
<g id="a_Node000011"><a xlink:title=" ">
<polygon fill="#e0e0e0" stroke="#999999" points="1165.75,-74.5 1128.75,-74.5 1128.75,-55.25 1165.75,-55.25 1165.75,-74.5"/>
<text xml:space="preserve" text-anchor="middle" x="1147.25" y="-61" font-family="Helvetica,sans-Serif" font-size="10.00">FS.h</text>
</a>
</g>
</g>
<!-- Node10&#45;&gt;Node11 -->
<g id="edge15_Node000010_Node000011" class="edge">
<title>Node10&#45;&gt;Node11</title>
<g id="a_edge15_Node000010_Node000011"><a xlink:title=" ">
<path fill="none" stroke="#63b8ff" d="M1149.75,-110.33C1149.38,-103.74 1148.86,-94.46 1148.39,-86.07"/>
<polygon fill="#63b8ff" stroke="#63b8ff" points="1151.9,-86.16 1147.84,-76.37 1144.91,-86.55 1151.9,-86.16"/>
</a>
</g>
</g>
<!-- Node12 -->
<g id="Node000012" class="node">
<title>Node12</title>
<g id="a_Node000012"><a xlink:title=" ">
<polygon fill="#e0e0e0" stroke="#999999" points="1222.5,-74.5 1184,-74.5 1184,-55.25 1222.5,-55.25 1222.5,-74.5"/>
<text xml:space="preserve" text-anchor="middle" x="1203.25" y="-61" font-family="Helvetica,sans-Serif" font-size="10.00">SD.h</text>
</a>
</g>
</g>
<!-- Node10&#45;&gt;Node12 -->
<g id="edge16_Node000010_Node000012" class="edge">
<title>Node10&#45;&gt;Node12</title>
<g id="a_edge16_Node000010_Node000012"><a xlink:title=" ">
<path fill="none" stroke="#63b8ff" d="M1159,-110.33C1166.4,-102.9 1177.21,-92.04 1186.3,-82.91"/>
<polygon fill="#63b8ff" stroke="#63b8ff" points="1188.67,-85.49 1193.24,-75.93 1183.71,-80.55 1188.67,-85.49"/>
</a>
</g>
</g>
<!-- Node10&#45;&gt;Node13 -->
<g id="edge17_Node000010_Node000013" class="edge">
<title>Node10&#45;&gt;Node13</title>
<g id="a_edge17_Node000010_Node000013"><a xlink:title=" ">
<path fill="none" stroke="#63b8ff" d="M1104.75,-116.57C946.81,-107.72 422.7,-78.34 253.45,-68.86"/>
<polygon fill="#63b8ff" stroke="#63b8ff" points="253.81,-65.37 243.63,-68.31 253.42,-72.36 253.81,-65.37"/>
</a>
</g>
</g>
<!-- Node13&#45;&gt;Node2 -->
<g id="edge18_Node000013_Node000002" class="edge">
<title>Node13&#45;&gt;Node2</title>
<g id="a_edge18_Node000013_Node000002"><a xlink:title=" ">
<path fill="none" stroke="#63b8ff" d="M241.94,-56.9C246.42,-56.28 250.93,-55.71 255.25,-55.25 531.16,-25.63 865.4,-14.64 979.14,-11.59"/>
<polygon fill="#63b8ff" stroke="#63b8ff" points="978.96,-15.1 988.86,-11.34 978.77,-8.1 978.96,-15.1"/>
</a>
</g>
</g>
<!-- Node14 -->
<g id="Node000014" class="node">
<title>Node14</title>
<g id="a_Node000014"><a xlink:title=" ">
<polygon fill="#e0e0e0" stroke="#999999" points="188.5,-19.25 144,-19.25 144,0 188.5,0 188.5,-19.25"/>
<text xml:space="preserve" text-anchor="middle" x="166.25" y="-5.75" font-family="Helvetica,sans-Serif" font-size="10.00">WiFi.h</text>
</a>
</g>
</g>
<!-- Node13&#45;&gt;Node14 -->
<g id="edge19_Node000013_Node000014" class="edge">
<title>Node13&#45;&gt;Node14</title>
<g id="a_edge19_Node000013_Node000014"><a xlink:title=" ">
<path fill="none" stroke="#63b8ff" d="M194.64,-55.08C190.13,-48.03 183.66,-37.9 178.04,-29.08"/>
<polygon fill="#63b8ff" stroke="#63b8ff" points="181.13,-27.43 172.8,-20.88 175.23,-31.2 181.13,-27.43"/>
</a>
</g>
</g>
<!-- Node15 -->
<g id="Node000015" class="node">
<title>Node15</title>
<g id="a_Node000015"><a xlink:title=" ">
<polygon fill="#e0e0e0" stroke="#999999" points="44.5,-19.25 0,-19.25 0,0 44.5,0 44.5,-19.25"/>
<text xml:space="preserve" text-anchor="middle" x="22.25" y="-5.75" font-family="Helvetica,sans-Serif" font-size="10.00">Wire.h</text>
</a>
</g>
</g>
<!-- Node13&#45;&gt;Node15 -->
<g id="edge20_Node000013_Node000015" class="edge">
<title>Node13&#45;&gt;Node15</title>
<g id="a_edge20_Node000013_Node000015"><a xlink:title=" ">
<path fill="none" stroke="#63b8ff" d="M170.05,-54.84C138.38,-45.37 88.72,-30.51 55.83,-20.67"/>
<polygon fill="#63b8ff" stroke="#63b8ff" points="56.98,-17.36 46.4,-17.85 54.98,-24.07 56.98,-17.36"/>
</a>
</g>
</g>
<!-- Node16 -->
<g id="Node000016" class="node">
<title>Node16</title>
<g id="a_Node000016"><a xlink:title=" ">
<polygon fill="#e0e0e0" stroke="#999999" points="261.75,-19.25 206.75,-19.25 206.75,0 261.75,0 261.75,-19.25"/>
<text xml:space="preserve" text-anchor="middle" x="234.25" y="-5.75" font-family="Helvetica,sans-Serif" font-size="10.00">RTClib.h</text>
</a>
</g>
</g>
<!-- Node13&#45;&gt;Node16 -->
<g id="edge21_Node000013_Node000016" class="edge">
<title>Node13&#45;&gt;Node16</title>
<g id="a_edge21_Node000013_Node000016"><a xlink:title=" ">
<path fill="none" stroke="#63b8ff" d="M205.86,-55.08C210.37,-48.03 216.84,-37.9 222.46,-29.08"/>
<polygon fill="#63b8ff" stroke="#63b8ff" points="225.27,-31.2 227.7,-20.88 219.37,-27.43 225.27,-31.2"/>
</a>
</g>
</g>
<!-- Node17 -->
<g id="Node000017" class="node">
<title>Node17</title>
<g id="a_Node000017"><a xlink:title=" ">
<polygon fill="#e0e0e0" stroke="#999999" points="350.25,-19.25 280.25,-19.25 280.25,0 350.25,0 350.25,-19.25"/>
<text xml:space="preserve" text-anchor="middle" x="315.25" y="-5.75" font-family="Helvetica,sans-Serif" font-size="10.00">NTPClient.h</text>
</a>
</g>
</g>
<!-- Node13&#45;&gt;Node17 -->
<g id="edge22_Node000013_Node000017" class="edge">
<title>Node13&#45;&gt;Node17</title>
<g id="a_edge22_Node000013_Node000017"><a xlink:title=" ">
<path fill="none" stroke="#63b8ff" d="M219.76,-54.84C237.77,-46.5 264.77,-34 285.48,-24.41"/>
<polygon fill="#63b8ff" stroke="#63b8ff" points="286.67,-27.72 294.27,-20.34 283.73,-21.36 286.67,-27.72"/>
</a>
</g>
</g>
<!-- Node18 -->
<g id="Node000018" class="node">
<title>Node18</title>
<g id="a_Node000018"><a xlink:title=" ">
<polygon fill="#e0e0e0" stroke="#999999" points="125.5,-19.25 63,-19.25 63,0 125.5,0 125.5,-19.25"/>
<text xml:space="preserve" text-anchor="middle" x="94.25" y="-5.75" font-family="Helvetica,sans-Serif" font-size="10.00">WiFiUdp.h</text>
</a>
</g>
</g>
<!-- Node13&#45;&gt;Node18 -->
<g id="edge23_Node000013_Node000018" class="edge">
<title>Node13&#45;&gt;Node18</title>
<g id="a_edge23_Node000013_Node000018"><a xlink:title=" ">
<path fill="none" stroke="#63b8ff" d="M182.27,-54.84C165.9,-46.62 141.46,-34.34 122.49,-24.81"/>
<polygon fill="#63b8ff" stroke="#63b8ff" points="124.18,-21.74 113.67,-20.38 121.04,-28 124.18,-21.74"/>
</a>
</g>
</g>
<!-- Node13&#45;&gt;Node19 -->
<g id="edge24_Node000013_Node000019" class="edge">
<title>Node13&#45;&gt;Node19</title>
<g id="a_edge24_Node000013_Node000019"><a xlink:title=" ">
<path fill="none" stroke="#63b8ff" d="M235.36,-54.84C270.01,-45.93 323.16,-32.26 361.18,-22.48"/>
<polygon fill="#63b8ff" stroke="#63b8ff" points="361.68,-25.96 370.5,-20.08 359.94,-19.18 361.68,-25.96"/>
</a>
</g>
</g>
<!-- Node20&#45;&gt;Node9 -->
<g id="edge28_Node000020_Node000009" class="edge">
<title>Node20&#45;&gt;Node9</title>
<g id="a_edge28_Node000020_Node000009"><a xlink:title=" ">
<path fill="none" stroke="#63b8ff" d="M843.48,-221.48C888.07,-212.45 960.28,-197.83 1010.35,-187.69"/>
<polygon fill="#63b8ff" stroke="#63b8ff" points="1011.03,-191.13 1020.14,-185.71 1009.64,-184.27 1011.03,-191.13"/>
</a>
</g>
</g>
<!-- Node21 -->
<g id="Node000021" class="node">
<title>Node21</title>
<g id="a_Node000021"><a xlink:title=" ">
<polygon fill="#e0e0e0" stroke="#999999" points="827.38,-185 779.12,-185 779.12,-165.75 827.38,-165.75 827.38,-185"/>
<text xml:space="preserve" text-anchor="middle" x="803.25" y="-171.5" font-family="Helvetica,sans-Serif" font-size="10.00">stdint.h</text>
</a>
</g>
</g>
<!-- Node20&#45;&gt;Node21 -->
<g id="edge27_Node000020_Node000021" class="edge">
<title>Node20&#45;&gt;Node21</title>
<g id="a_edge27_Node000020_Node000021"><a xlink:title=" ">
<path fill="none" stroke="#63b8ff" d="M803.25,-220.83C803.25,-214.32 803.25,-205.17 803.25,-196.87"/>
<polygon fill="#63b8ff" stroke="#63b8ff" points="806.75,-196.87 803.25,-186.87 799.75,-196.87 806.75,-196.87"/>
</a>
</g>
</g>
<!-- Node22&#45;&gt;Node2 -->
<g id="edge30_Node000022_Node000002" class="edge">
<title>Node22&#45;&gt;Node2</title>
<g id="a_edge30_Node000022_Node000002"><a xlink:title=" ">
<path fill="none" stroke="#63b8ff" d="M536.04,-165.31C554.24,-157.92 578.3,-146.03 595.25,-129.75 622.82,-103.26 606.31,-76.26 638.25,-55.25 693.51,-18.89 892.44,-12.09 978.78,-10.87"/>
<polygon fill="#63b8ff" stroke="#63b8ff" points="978.72,-14.37 988.68,-10.75 978.64,-7.37 978.72,-14.37"/>
</a>
</g>
</g>
<!-- Node22&#45;&gt;Node4 -->
<g id="edge36_Node000022_Node000004" class="edge">
<title>Node22&#45;&gt;Node4</title>
<g id="a_edge36_Node000022_Node000004"><a xlink:title=" ">
<path fill="none" stroke="#63b8ff" d="M560.59,-170.87C644.25,-164.71 817.07,-150.59 962.25,-129.75 1075.03,-113.56 1207.43,-86.03 1267.57,-73.05"/>
<polygon fill="#63b8ff" stroke="#63b8ff" points="1268.1,-76.51 1277.13,-70.97 1266.62,-69.67 1268.1,-76.51"/>
</a>
</g>
</g>
<!-- Node22&#45;&gt;Node10 -->
<g id="edge37_Node000022_Node000010" class="edge">
<title>Node22&#45;&gt;Node10</title>
<g id="a_edge37_Node000022_Node000010"><a xlink:title=" ">
<path fill="none" stroke="#63b8ff" d="M560.74,-170.17C678.26,-160.4 969.5,-136.16 1093.21,-125.87"/>
<polygon fill="#63b8ff" stroke="#63b8ff" points="1093.46,-129.36 1103.13,-125.05 1092.88,-122.39 1093.46,-129.36"/>
</a>
</g>
</g>
<!-- Node22&#45;&gt;Node15 -->
<g id="edge31_Node000022_Node000015" class="edge">
<title>Node22&#45;&gt;Node15</title>
<g id="a_edge31_Node000022_Node000015"><a xlink:title=" ">
<path fill="none" stroke="#63b8ff" d="M465.13,-165.3C395.87,-150.6 259.87,-118.73 150.25,-74.5 113.98,-59.86 73.89,-39.06 48.41,-25.22"/>
<polygon fill="#63b8ff" stroke="#63b8ff" points="50.21,-22.22 39.76,-20.48 46.85,-28.35 50.21,-22.22"/>
</a>
</g>
</g>
<!-- Node23 -->
<g id="Node000023" class="node">
<title>Node23</title>
<g id="a_Node000023"><a xlink:title=" ">
<polygon fill="#e0e0e0" stroke="#999999" points="369.62,-129.75 334.88,-129.75 334.88,-110.5 369.62,-110.5 369.62,-129.75"/>
<text xml:space="preserve" text-anchor="middle" x="352.25" y="-116.25" font-family="Helvetica,sans-Serif" font-size="10.00">map</text>
</a>
</g>
</g>
<!-- Node22&#45;&gt;Node23 -->
<g id="edge32_Node000022_Node000023" class="edge">
<title>Node22&#45;&gt;Node23</title>
<g id="a_edge32_Node000022_Node000023"><a xlink:title=" ">
<path fill="none" stroke="#63b8ff" d="M483.45,-165.34C454.84,-155.7 409.72,-140.49 380.55,-130.66"/>
<polygon fill="#63b8ff" stroke="#63b8ff" points="381.89,-127.42 371.29,-127.54 379.65,-134.05 381.89,-127.42"/>
</a>
</g>
</g>
<!-- Node24 -->
<g id="Node000024" class="node">
<title>Node24</title>
<g id="a_Node000024"><a xlink:title=" ">
<polygon fill="#e0e0e0" stroke="#999999" points="427.25,-129.75 387.25,-129.75 387.25,-110.5 427.25,-110.5 427.25,-129.75"/>
<text xml:space="preserve" text-anchor="middle" x="407.25" y="-116.25" font-family="Helvetica,sans-Serif" font-size="10.00">string</text>
</a>
</g>
</g>
<!-- Node22&#45;&gt;Node24 -->
<g id="edge33_Node000022_Node000024" class="edge">
<title>Node22&#45;&gt;Node24</title>
<g id="a_edge33_Node000022_Node000024"><a xlink:title=" ">
<path fill="none" stroke="#63b8ff" d="M492.78,-165.34C476.94,-157.16 453.34,-144.96 434.94,-135.44"/>
<polygon fill="#63b8ff" stroke="#63b8ff" points="436.64,-132.38 426.15,-130.9 433.43,-138.6 436.64,-132.38"/>
</a>
</g>
</g>
<!-- Node25 -->
<g id="Node000025" class="node">
<title>Node25</title>
<g id="a_Node000025"><a xlink:title=" ">
<polygon fill="#e0e0e0" stroke="#999999" points="511,-129.75 445.5,-129.75 445.5,-110.5 511,-110.5 511,-129.75"/>
<text xml:space="preserve" text-anchor="middle" x="478.25" y="-116.25" font-family="Helvetica,sans-Serif" font-size="10.00">PCF8575.h</text>
</a>
</g>
</g>
<!-- Node22&#45;&gt;Node25 -->
<g id="edge34_Node000022_Node000025" class="edge">
<title>Node22&#45;&gt;Node25</title>
<g id="a_edge34_Node000022_Node000025"><a xlink:title=" ">
<path fill="none" stroke="#63b8ff" d="M504.97,-165.58C500.78,-158.61 494.77,-148.62 489.52,-139.87"/>
<polygon fill="#63b8ff" stroke="#63b8ff" points="492.58,-138.18 484.43,-131.41 486.58,-141.78 492.58,-138.18"/>
</a>
</g>
</g>
<!-- Node26 -->
<g id="Node000026" class="node">
<title>Node26</title>
<g id="a_Node000026"><a xlink:title=" ">
<polygon fill="#e0e0e0" stroke="#999999" points="585.88,-129.75 528.62,-129.75 528.62,-110.5 585.88,-110.5 585.88,-129.75"/>
<text xml:space="preserve" text-anchor="middle" x="557.25" y="-116.25" font-family="Helvetica,sans-Serif" font-size="10.00">U8g2lib.h</text>
</a>
</g>
</g>
<!-- Node22&#45;&gt;Node26 -->
<g id="edge35_Node000022_Node000026" class="edge">
<title>Node22&#45;&gt;Node26</title>
<g id="a_edge35_Node000022_Node000026"><a xlink:title=" ">
<path fill="none" stroke="#63b8ff" d="M518.01,-165.58C524.44,-158.3 533.76,-147.73 541.71,-138.73"/>
<polygon fill="#63b8ff" stroke="#63b8ff" points="544.33,-141.06 548.32,-131.24 539.08,-136.43 544.33,-141.06"/>
</a>
</g>
</g>
<!-- Node27&#45;&gt;Node2 -->
<g id="edge39_Node000027_Node000002" class="edge">
<title>Node27&#45;&gt;Node2</title>
<g id="a_edge39_Node000027_Node000002"><a xlink:title=" ">
<path fill="none" stroke="#63b8ff" d="M1203.32,-220.64C1253.16,-194.73 1385.44,-117.74 1331.25,-55.25 1296.58,-15.27 1136.22,-10.23 1059.87,-10.15"/>
<polygon fill="#63b8ff" stroke="#63b8ff" points="1059.88,-6.65 1049.89,-10.18 1059.89,-13.65 1059.88,-6.65"/>
</a>
</g>
</g>
<!-- Node27&#45;&gt;Node4 -->
<g id="edge40_Node000027_Node000004" class="edge">
<title>Node27&#45;&gt;Node4</title>
<g id="a_edge40_Node000027_Node000004"><a xlink:title=" ">
<path fill="none" stroke="#63b8ff" d="M1188.55,-220.56C1196.44,-199.65 1217.95,-147.07 1247.25,-110.5 1255.91,-99.69 1267.51,-89.57 1277.65,-81.71"/>
<polygon fill="#63b8ff" stroke="#63b8ff" points="1279.63,-84.6 1285.56,-75.82 1275.45,-78.98 1279.63,-84.6"/>
</a>
</g>
</g>
<!-- Node27&#45;&gt;Node9 -->
<g id="edge41_Node000027_Node000009" class="edge">
<title>Node27&#45;&gt;Node9</title>
<g id="a_edge41_Node000027_Node000009"><a xlink:title=" ">
<path fill="none" stroke="#63b8ff" d="M1165.06,-220.59C1146.34,-212.22 1118.23,-199.63 1096.77,-190.03"/>
<polygon fill="#63b8ff" stroke="#63b8ff" points="1098.47,-186.96 1087.92,-186.07 1095.62,-193.35 1098.47,-186.96"/>
</a>
</g>
</g>
<!-- Node27&#45;&gt;Node10 -->
<g id="edge42_Node000027_Node000010" class="edge">
<title>Node27&#45;&gt;Node10</title>
<g id="a_edge42_Node000027_Node000010"><a xlink:title=" ">
<path fill="none" stroke="#63b8ff" d="M1182.39,-220.75C1176.8,-203.42 1164.32,-164.73 1156.66,-140.99"/>
<polygon fill="#63b8ff" stroke="#63b8ff" points="1160.02,-140.01 1153.62,-131.57 1153.36,-142.16 1160.02,-140.01"/>
</a>
</g>
</g>
<!-- Node29&#45;&gt;Node2 -->
<g id="edge48_Node000029_Node000002" class="edge">
<title>Node29&#45;&gt;Node2</title>
<g id="a_edge48_Node000029_Node000002"><a xlink:title=" ">
<path fill="none" stroke="#63b8ff" d="M649.77,-275.81C640.97,-241.46 614.97,-118.1 676.25,-55.25 717.46,-12.99 897.63,-9.32 979.05,-9.89"/>
<polygon fill="#63b8ff" stroke="#63b8ff" points="978.77,-13.39 988.81,-9.99 978.84,-6.39 978.77,-13.39"/>
</a>
</g>
</g>
<!-- Node29&#45;&gt;Node10 -->
<g id="edge51_Node000029_Node000010" class="edge">
<title>Node29&#45;&gt;Node10</title>
<g id="a_edge51_Node000029_Node000010"><a xlink:title=" ">
<path fill="none" stroke="#63b8ff" d="M707.85,-276.36C826.59,-257.73 1096.75,-212.79 1128.25,-185 1140.77,-173.96 1146.17,-155.45 1148.49,-141.19"/>
<polygon fill="#63b8ff" stroke="#63b8ff" points="1151.93,-141.9 1149.67,-131.55 1144.98,-141.06 1151.93,-141.9"/>
</a>
</g>
</g>
<!-- Node29&#45;&gt;Node20 -->
<g id="edge50_Node000029_Node000020" class="edge">
<title>Node29&#45;&gt;Node20</title>
<g id="a_edge50_Node000029_Node000020"><a xlink:title=" ">
<path fill="none" stroke="#63b8ff" d="M677.87,-275.84C702.27,-267.24 739.26,-254.19 766.75,-244.5"/>
<polygon fill="#63b8ff" stroke="#63b8ff" points="767.82,-247.83 776.08,-241.21 765.49,-241.23 767.82,-247.83"/>
</a>
</g>
</g>
<!-- Node30 -->
<g id="Node000030" class="node">
<title>Node30</title>
<g id="a_Node000030"><a xlink:title=" ">
<polygon fill="#e0e0e0" stroke="#999999" points="593.38,-240.25 485.12,-240.25 485.12,-221 593.38,-221 593.38,-240.25"/>
<text xml:space="preserve" text-anchor="middle" x="539.25" y="-226.75" font-family="Helvetica,sans-Serif" font-size="10.00">ModbusServerRTU.h</text>
</a>
</g>
</g>
<!-- Node29&#45;&gt;Node30 -->
<g id="edge49_Node000029_Node000030" class="edge">
<title>Node29&#45;&gt;Node30</title>
<g id="a_edge49_Node000029_Node000030"><a xlink:title=" ">
<path fill="none" stroke="#63b8ff" d="M633.08,-275.84C615.47,-267.54 589.09,-255.11 568.79,-245.54"/>
<polygon fill="#63b8ff" stroke="#63b8ff" points="570.42,-242.44 559.88,-241.35 567.44,-248.78 570.42,-242.44"/>
</a>
</g>
</g>
<!-- Node31&#45;&gt;Node2 -->
<g id="edge53_Node000031_Node000002" class="edge">
<title>Node31&#45;&gt;Node2</title>
<g id="a_edge53_Node000031_Node000002"><a xlink:title=" ">
<path fill="none" stroke="#63b8ff" d="M1013.21,-391.64C973.11,-386.77 913.89,-375.7 868.25,-350.75 737.39,-279.22 611.59,-167.97 709.25,-55.25 743.68,-15.51 903.02,-10.35 978.89,-10.2"/>
<polygon fill="#63b8ff" stroke="#63b8ff" points="978.79,-13.7 988.8,-10.21 978.8,-6.7 978.79,-13.7"/>
</a>
</g>
</g>
<!-- Node31&#45;&gt;Node3 -->
<g id="edge58_Node000031_Node000003" class="edge">
<title>Node31&#45;&gt;Node3</title>
<g id="a_edge58_Node000031_Node000003"><a xlink:title=" ">
<path fill="none" stroke="#63b8ff" d="M1013.2,-390.64C964.93,-384.53 892.97,-372.06 876.25,-350.75 860.94,-331.23 887.78,-312.71 912.73,-300.68"/>
<polygon fill="#63b8ff" stroke="#63b8ff" points="914.14,-303.89 921.8,-296.57 911.25,-297.51 914.14,-303.89"/>
</a>
</g>
</g>
<!-- Node31&#45;&gt;Node10 -->
<g id="edge66_Node000031_Node000010" class="edge">
<title>Node31&#45;&gt;Node10</title>
<g id="a_edge66_Node000031_Node000010"><a xlink:title=" ">
<path fill="none" stroke="#63b8ff" d="M1065.67,-386.39C1076.25,-373.73 1096.46,-350.13 1115.25,-331.5 1158.91,-288.2 1193.88,-296.26 1219.25,-240.25 1236.72,-201.69 1196.99,-159.46 1170.84,-137.1"/>
<polygon fill="#63b8ff" stroke="#63b8ff" points="1173.39,-134.67 1163.45,-131.02 1168.95,-140.08 1173.39,-134.67"/>
</a>
</g>
</g>
<!-- Node32 -->
<g id="Node000032" class="node">
<title>Node32</title>
<g id="a_Node000032"><a xlink:title=" ">
<polygon fill="#e0e0e0" stroke="#999999" points="1461.5,-295.5 1381,-295.5 1381,-276.25 1461.5,-276.25 1461.5,-295.5"/>
<text xml:space="preserve" text-anchor="middle" x="1421.25" y="-282" font-family="Helvetica,sans-Serif" font-size="10.00">ConfigAssist.h</text>
</a>
</g>
</g>
<!-- Node31&#45;&gt;Node32 -->
<g id="edge54_Node000031_Node000032" class="edge">
<title>Node31&#45;&gt;Node32</title>
<g id="a_edge54_Node000031_Node000032"><a xlink:title=" ">
<path fill="none" stroke="#63b8ff" d="M1068.89,-386.28C1086.04,-372.14 1121.44,-345.09 1156.25,-331.5 1161.2,-329.57 1293.61,-307.74 1369.35,-295.34"/>
<polygon fill="#63b8ff" stroke="#63b8ff" points="1369.74,-298.82 1379.04,-293.76 1368.61,-291.92 1369.74,-298.82"/>
</a>
</g>
</g>
<!-- Node33 -->
<g id="Node000033" class="node">
<title>Node33</title>
<g id="a_Node000033"><a xlink:title=" ">
<polygon fill="#e0e0e0" stroke="#999999" points="1273.38,-350.75 1165.12,-350.75 1165.12,-331.5 1273.38,-331.5 1273.38,-350.75"/>
<text xml:space="preserve" text-anchor="middle" x="1219.25" y="-337.25" font-family="Helvetica,sans-Serif" font-size="10.00">ConfigAssistHelper.h</text>
</a>
</g>
</g>
<!-- Node31&#45;&gt;Node33 -->
<g id="edge55_Node000031_Node000033" class="edge">
<title>Node31&#45;&gt;Node33</title>
<g id="a_edge55_Node000031_Node000033"><a xlink:title=" ">
<path fill="none" stroke="#63b8ff" d="M1085.56,-386.34C1111.81,-377.66 1151.73,-364.46 1181.11,-354.74"/>
<polygon fill="#63b8ff" stroke="#63b8ff" points="1181.97,-358.14 1190.37,-351.68 1179.77,-351.49 1181.97,-358.14"/>
</a>
</g>
</g>
<!-- Node34 -->
<g id="Node000034" class="node">
<title>Node34</title>
<g id="a_Node000034"><a xlink:title=" ">
<polygon fill="#e0e0e0" stroke="#999999" points="1363,-350.75 1291.5,-350.75 1291.5,-331.5 1363,-331.5 1363,-350.75"/>
<text xml:space="preserve" text-anchor="middle" x="1327.25" y="-337.25" font-family="Helvetica,sans-Serif" font-size="10.00">WebServer.h</text>
</a>
</g>
</g>
<!-- Node31&#45;&gt;Node34 -->
<g id="edge56_Node000031_Node000034" class="edge">
<title>Node31&#45;&gt;Node34</title>
<g id="a_edge56_Node000031_Node000034"><a xlink:title=" ">
<path fill="none" stroke="#63b8ff" d="M1103.27,-386.46C1152.26,-376.77 1230.21,-361.33 1280.04,-351.47"/>
<polygon fill="#63b8ff" stroke="#63b8ff" points="1280.53,-354.94 1289.66,-349.57 1279.17,-348.08 1280.53,-354.94"/>
</a>
</g>
</g>
<!-- Node35 -->
<g id="Node000035" class="node">
<title>Node35</title>
<g id="a_Node000035"><a xlink:title=" ">
<polygon fill="#e0e0e0" stroke="#999999" points="943.25,-350.75 885.25,-350.75 885.25,-331.5 943.25,-331.5 943.25,-350.75"/>
<text xml:space="preserve" text-anchor="middle" x="914.25" y="-337.25" font-family="Helvetica,sans-Serif" font-size="10.00">LittleFS.h</text>
</a>
</g>
</g>
<!-- Node31&#45;&gt;Node35 -->
<g id="edge57_Node000031_Node000035" class="edge">
<title>Node31&#45;&gt;Node35</title>
<g id="a_edge57_Node000031_Node000035"><a xlink:title=" ">
<path fill="none" stroke="#63b8ff" d="M1033.82,-386.34C1010.65,-377.77 975.59,-364.81 949.41,-355.13"/>
<polygon fill="#63b8ff" stroke="#63b8ff" points="950.81,-351.91 940.22,-351.73 948.38,-358.48 950.81,-351.91"/>
</a>
</g>
</g>
<!-- Node36 -->
<g id="Node000036" class="node">
<title>Node36</title>
<g id="a_Node000036"><a xlink:href="_c_s_v_config_manager_8h.html" target="_top" xlink:title="CSV configuration import/export manager for measurement points and alarms.">
<polygon fill="white" stroke="#666666" points="1071.5,-350.75 961,-350.75 961,-331.5 1071.5,-331.5 1071.5,-350.75"/>
<text xml:space="preserve" text-anchor="middle" x="1016.25" y="-337.25" font-family="Helvetica,sans-Serif" font-size="10.00">CSVConfigManager.h</text>
</a>
</g>
</g>
<!-- Node31&#45;&gt;Node36 -->
<g id="edge59_Node000031_Node000036" class="edge">
<title>Node31&#45;&gt;Node36</title>
<g id="a_edge59_Node000031_Node000036"><a xlink:title=" ">
<path fill="none" stroke="#63b8ff" d="M1051.31,-386.58C1045.63,-379.38 1037.41,-368.96 1030.36,-360.01"/>
<polygon fill="#63b8ff" stroke="#63b8ff" points="1033.21,-357.98 1024.27,-352.3 1027.72,-362.32 1033.21,-357.98"/>
</a>
</g>
</g>
<!-- Node38 -->
<g id="Node000038" class="node">
<title>Node38</title>
<g id="a_Node000038"><a xlink:href="_settings_c_s_v_manager_8h.html" target="_top" xlink:title=" ">
<polygon fill="white" stroke="#666666" points="1499.25,-350.75 1381.25,-350.75 1381.25,-331.5 1499.25,-331.5 1499.25,-350.75"/>
<text xml:space="preserve" text-anchor="middle" x="1440.25" y="-337.25" font-family="Helvetica,sans-Serif" font-size="10.00">SettingsCSVManager.h</text>
</a>
</g>
</g>
<!-- Node31&#45;&gt;Node38 -->
<g id="edge63_Node000031_Node000038" class="edge">
<title>Node31&#45;&gt;Node38</title>
<g id="a_edge63_Node000031_Node000038"><a xlink:title=" ">
<path fill="none" stroke="#63b8ff" d="M1103.19,-389.11C1168.89,-379.95 1291.78,-362.82 1369.63,-351.97"/>
<polygon fill="#63b8ff" stroke="#63b8ff" points="1369.86,-355.47 1379.28,-350.62 1368.89,-348.54 1369.86,-355.47"/>
</a>
</g>
</g>
<!-- Node36&#45;&gt;Node2 -->
<g id="edge60_Node000036_Node000002" class="edge">
<title>Node36&#45;&gt;Node2</title>
<g id="a_edge60_Node000036_Node000002"><a xlink:title=" ">
<path fill="none" stroke="#63b8ff" d="M1046.32,-331.08C1149.74,-298.57 1478.41,-182.76 1366.25,-55.25 1346.23,-32.5 1146.53,-18.1 1059.47,-12.86"/>
<polygon fill="#63b8ff" stroke="#63b8ff" points="1059.91,-9.38 1049.72,-12.28 1059.5,-16.36 1059.91,-9.38"/>
</a>
</g>
</g>
<!-- Node36&#45;&gt;Node3 -->
<g id="edge62_Node000036_Node000003" class="edge">
<title>Node36&#45;&gt;Node3</title>
<g id="a_edge62_Node000036_Node000003"><a xlink:title=" ">
<path fill="none" stroke="#63b8ff" d="M1004.55,-331.09C994.47,-323.32 979.71,-311.92 967.69,-302.65"/>
<polygon fill="#63b8ff" stroke="#63b8ff" points="970.04,-300.04 959.98,-296.7 965.76,-305.58 970.04,-300.04"/>
</a>
</g>
</g>
<!-- Node37 -->
<g id="Node000037" class="node">
<title>Node37</title>
<g id="a_Node000037"><a xlink:title=" ">
<polygon fill="#e0e0e0" stroke="#999999" points="1103.38,-295.5 1025.12,-295.5 1025.12,-276.25 1103.38,-276.25 1103.38,-295.5"/>
<text xml:space="preserve" text-anchor="middle" x="1064.25" y="-282" font-family="Helvetica,sans-Serif" font-size="10.00">CSV_Parser.h</text>
</a>
</g>
</g>
<!-- Node36&#45;&gt;Node37 -->
<g id="edge61_Node000036_Node000037" class="edge">
<title>Node36&#45;&gt;Node37</title>
<g id="a_edge61_Node000036_Node000037"><a xlink:title=" ">
<path fill="none" stroke="#63b8ff" d="M1024.18,-331.33C1030.81,-323.98 1040.47,-313.26 1048.64,-304.19"/>
<polygon fill="#63b8ff" stroke="#63b8ff" points="1051.04,-306.75 1055.14,-296.98 1045.84,-302.07 1051.04,-306.75"/>
</a>
</g>
</g>
<!-- Node38&#45;&gt;Node2 -->
<g id="edge64_Node000038_Node000002" class="edge">
<title>Node38&#45;&gt;Node2</title>
<g id="a_edge64_Node000038_Node000002"><a xlink:title=" ">
<path fill="none" stroke="#63b8ff" d="M1447.48,-331.17C1461.11,-313.36 1489.25,-271.72 1489.25,-231.62 1489.25,-231.62 1489.25,-231.62 1489.25,-119.12 1489.25,-31.27 1173.51,-14.54 1059.61,-11.37"/>
<polygon fill="#63b8ff" stroke="#63b8ff" points="1059.9,-7.87 1049.81,-11.12 1059.72,-14.87 1059.9,-7.87"/>
</a>
</g>
</g>
<!-- Node38&#45;&gt;Node32 -->
<g id="edge65_Node000038_Node000032" class="edge">
<title>Node38&#45;&gt;Node32</title>
<g id="a_edge65_Node000038_Node000032"><a xlink:title=" ">
<path fill="none" stroke="#63b8ff" d="M1437.11,-331.33C1434.71,-324.59 1431.29,-315.02 1428.25,-306.49"/>
<polygon fill="#63b8ff" stroke="#63b8ff" points="1431.62,-305.53 1424.96,-297.28 1425.03,-307.88 1431.62,-305.53"/>
</a>
</g>
</g>
</g>
</svg>
