<?xml version="1.0" encoding="UTF-8" standalone="no"?>
<!DOCTYPE svg PUBLIC "-//W3C//DTD SVG 1.1//EN"
 "http://www.w3.org/Graphics/SVG/1.1/DTD/svg11.dtd">
<!-- Generated by graphviz version 13.1.0 (20250701.0955)
 -->
<!-- Title: loop Pages: 1 -->
<svg width="753pt" height="184pt"
 viewBox="0.00 0.00 753.00 184.00" xmlns="http://www.w3.org/2000/svg" xmlns:xlink="http://www.w3.org/1999/xlink">
<g id="graph0" class="graph" transform="scale(1 1) rotate(0) translate(4 180.25)">
<title>loop</title>
<!-- Node1 -->
<g id="Node000001" class="node">
<title>Node1</title>
<g id="a_Node000001"><a xlink:title="Main system loop.">
<polygon fill="#999999" stroke="#666666" points="34,-98.25 0,-98.25 0,-79 34,-79 34,-98.25"/>
<text xml:space="preserve" text-anchor="middle" x="17" y="-84.75" font-family="Helvetica,sans-Serif" font-size="10.00">loop</text>
</a>
</g>
</g>
<!-- Node2 -->
<g id="Node000002" class="node">
<title>Node2</title>
<g id="a_Node000002"><a xlink:href="class_m_q_t_t_manager.html#a0865d8e5c42ab2106d9f2c172ee1cec2" target="_top" xlink:title="Initialize MQTT manager and establish connection.">
<polygon fill="white" stroke="#666666" points="180.5,-120.25 70,-120.25 70,-101 180.5,-101 180.5,-120.25"/>
<text xml:space="preserve" text-anchor="middle" x="125.25" y="-106.75" font-family="Helvetica,sans-Serif" font-size="10.00">MQTTManager::begin</text>
</a>
</g>
</g>
<!-- Node1&#45;&gt;Node2 -->
<g id="edge1_Node000001_Node000002" class="edge">
<title>Node1&#45;&gt;Node2</title>
<g id="a_edge1_Node000001_Node000002"><a xlink:title=" ">
<path fill="none" stroke="#63b8ff" d="M34.14,-91.97C42.5,-93.7 53.28,-95.93 64.47,-98.25"/>
<polygon fill="#63b8ff" stroke="#63b8ff" points="63.73,-101.67 74.23,-100.27 65.15,-94.81 63.73,-101.67"/>
</a>
</g>
</g>
<!-- Node9 -->
<g id="Node000009" class="node">
<title>Node9</title>
<g id="a_Node000009"><a xlink:href="class_m_q_t_t_manager.html#a9266e647933501851b411b6d2a9a1f95" target="_top" xlink:title="Main loop function to handle MQTT operations.">
<polygon fill="white" stroke="#666666" points="177.88,-80.25 72.62,-80.25 72.62,-61 177.88,-61 177.88,-80.25"/>
<text xml:space="preserve" text-anchor="middle" x="125.25" y="-66.75" font-family="Helvetica,sans-Serif" font-size="10.00">MQTTManager::loop</text>
</a>
</g>
</g>
<!-- Node1&#45;&gt;Node9 -->
<g id="edge8_Node000001_Node000009" class="edge">
<title>Node1&#45;&gt;Node9</title>
<g id="a_edge8_Node000001_Node000009"><a xlink:title=" ">
<path fill="none" stroke="#63b8ff" d="M34.14,-85.89C41.73,-84.61 51.31,-82.98 61.38,-81.28"/>
<polygon fill="#63b8ff" stroke="#63b8ff" points="61.66,-84.78 70.94,-79.66 60.49,-77.88 61.66,-84.78"/>
</a>
</g>
</g>
<!-- Node3 -->
<g id="Node000003" class="node">
<title>Node3</title>
<g id="a_Node000003"><a xlink:href="class_m_q_t_t_manager.html#a129d111c8b1ae84640849bc206098853" target="_top" xlink:title="Attempt to connect to MQTT broker (non&#45;blocking)">
<polygon fill="white" stroke="#666666" points="386.25,-102.25 216.5,-102.25 216.5,-83 386.25,-83 386.25,-102.25"/>
<text xml:space="preserve" text-anchor="middle" x="301.38" y="-88.75" font-family="Helvetica,sans-Serif" font-size="10.00">MQTTManager::attemptConnection</text>
</a>
</g>
</g>
<!-- Node2&#45;&gt;Node3 -->
<g id="edge2_Node000002_Node000003" class="edge">
<title>Node2&#45;&gt;Node3</title>
<g id="a_edge2_Node000002_Node000003"><a xlink:title=" ">
<path fill="none" stroke="#63b8ff" d="M180.87,-104.98C188.61,-104.18 196.76,-103.34 205.01,-102.48"/>
<polygon fill="#63b8ff" stroke="#63b8ff" points="205.2,-105.98 214.79,-101.47 204.48,-99.02 205.2,-105.98"/>
</a>
</g>
</g>
<!-- Node4 -->
<g id="Node000004" class="node">
<title>Node4</title>
<g id="a_Node000004"><a xlink:href="class_m_q_t_t_manager.html#a43dca57da65facd4d341963403dd737b" target="_top" xlink:title="Load configuration from JSON file on SD card.">
<polygon fill="white" stroke="#666666" points="368.25,-176.25 234.5,-176.25 234.5,-157 368.25,-157 368.25,-176.25"/>
<text xml:space="preserve" text-anchor="middle" x="301.38" y="-162.75" font-family="Helvetica,sans-Serif" font-size="10.00">MQTTManager::loadConfig</text>
</a>
</g>
</g>
<!-- Node2&#45;&gt;Node4 -->
<g id="edge3_Node000002_Node000004" class="edge">
<title>Node2&#45;&gt;Node4</title>
<g id="a_edge3_Node000002_Node000004"><a xlink:title=" ">
<path fill="none" stroke="#63b8ff" d="M146.99,-120.67C165.01,-129.08 192.01,-140.92 216.5,-148.62 222.6,-150.54 229.01,-152.33 235.46,-153.96"/>
<polygon fill="#63b8ff" stroke="#63b8ff" points="234.28,-157.28 244.82,-156.22 235.92,-150.47 234.28,-157.28"/>
</a>
</g>
</g>
<!-- Node7 -->
<g id="Node000007" class="node">
<title>Node7</title>
<g id="a_Node000007"><a xlink:href="class_m_q_t_t_manager.html#aaac19647fab19e7a0f819691ba06e772" target="_top" xlink:title="Static callback function for MQTT message reception.">
<polygon fill="white" stroke="#666666" points="384,-139.25 218.75,-139.25 218.75,-120 384,-120 384,-139.25"/>
<text xml:space="preserve" text-anchor="middle" x="301.38" y="-125.75" font-family="Helvetica,sans-Serif" font-size="10.00">MQTTManager::messageCallback</text>
</a>
</g>
</g>
<!-- Node2&#45;&gt;Node7 -->
<g id="edge6_Node000002_Node000007" class="edge">
<title>Node2&#45;&gt;Node7</title>
<g id="a_edge6_Node000002_Node000007"><a xlink:title=" ">
<path fill="none" stroke="#63b8ff" d="M180.87,-116.58C189.28,-117.5 198.17,-118.47 207.14,-119.45"/>
<polygon fill="#63b8ff" stroke="#63b8ff" points="206.71,-122.92 217.03,-120.53 207.46,-115.97 206.71,-122.92"/>
</a>
</g>
</g>
<!-- Node5 -->
<g id="Node000005" class="node">
<title>Node5</title>
<g id="a_Node000005"><a xlink:href="class_m_q_t_t_manager.html#ac17b9ceb70d483611944d626c8c933a1" target="_top" xlink:title="Set configuration from JSON string.">
<polygon fill="white" stroke="#666666" points="575.12,-176.25 424.88,-176.25 424.88,-157 575.12,-157 575.12,-176.25"/>
<text xml:space="preserve" text-anchor="middle" x="500" y="-162.75" font-family="Helvetica,sans-Serif" font-size="10.00">MQTTManager::setConfigJson</text>
</a>
</g>
</g>
<!-- Node4&#45;&gt;Node5 -->
<g id="edge4_Node000004_Node000005" class="edge">
<title>Node4&#45;&gt;Node5</title>
<g id="a_edge4_Node000004_Node000005"><a xlink:title=" ">
<path fill="none" stroke="#63b8ff" d="M368.67,-166.62C382.97,-166.62 398.29,-166.62 413.22,-166.62"/>
<polygon fill="#63b8ff" stroke="#63b8ff" points="413.02,-170.13 423.02,-166.63 413.02,-163.13 413.02,-170.13"/>
</a>
</g>
</g>
<!-- Node6 -->
<g id="Node000006" class="node">
<title>Node6</title>
<g id="a_Node000006"><a xlink:href="class_m_q_t_t_manager.html#a542f100738a605efbd30b788835efd1d" target="_top" xlink:title="Build topic string based on configuration.">
<polygon fill="white" stroke="#666666" points="744.5,-176.25 613.75,-176.25 613.75,-157 744.5,-157 744.5,-176.25"/>
<text xml:space="preserve" text-anchor="middle" x="679.12" y="-162.75" font-family="Helvetica,sans-Serif" font-size="10.00">MQTTManager::buildTopic</text>
</a>
</g>
</g>
<!-- Node5&#45;&gt;Node6 -->
<g id="edge5_Node000005_Node000006" class="edge">
<title>Node5&#45;&gt;Node6</title>
<g id="a_edge5_Node000005_Node000006"><a xlink:title=" ">
<path fill="none" stroke="#63b8ff" d="M575.6,-166.62C584.35,-166.62 593.28,-166.62 602.04,-166.62"/>
<polygon fill="#63b8ff" stroke="#63b8ff" points="601.92,-170.13 611.92,-166.63 601.92,-163.13 601.92,-170.13"/>
</a>
</g>
</g>
<!-- Node8 -->
<g id="Node000008" class="node">
<title>Node8</title>
<g id="a_Node000008"><a xlink:href="class_m_q_t_t_manager.html#aa915f47a548fa481517a2450ad1a6970" target="_top" xlink:title="Static method to handle received messages.">
<polygon fill="white" stroke="#666666" points="577.75,-139.25 422.25,-139.25 422.25,-120 577.75,-120 577.75,-139.25"/>
<text xml:space="preserve" text-anchor="middle" x="500" y="-125.75" font-family="Helvetica,sans-Serif" font-size="10.00">MQTTManager::handleMessage</text>
</a>
</g>
</g>
<!-- Node7&#45;&gt;Node8 -->
<g id="edge7_Node000007_Node000008" class="edge">
<title>Node7&#45;&gt;Node8</title>
<g id="a_edge7_Node000007_Node000008"><a xlink:title=" ">
<path fill="none" stroke="#63b8ff" d="M384.34,-129.62C392.98,-129.62 401.8,-129.62 410.52,-129.62"/>
<polygon fill="#63b8ff" stroke="#63b8ff" points="410.38,-133.13 420.38,-129.63 410.38,-126.13 410.38,-133.13"/>
</a>
</g>
</g>
<!-- Node9&#45;&gt;Node3 -->
<g id="edge9_Node000009_Node000003" class="edge">
<title>Node9&#45;&gt;Node3</title>
<g id="a_edge9_Node000009_Node000003"><a xlink:title=" ">
<path fill="none" stroke="#63b8ff" d="M178.02,-77.17C187.92,-78.42 198.55,-79.76 209.26,-81.11"/>
<polygon fill="#63b8ff" stroke="#63b8ff" points="208.56,-84.55 218.92,-82.33 209.43,-77.61 208.56,-84.55"/>
</a>
</g>
</g>
<!-- Node10 -->
<g id="Node000010" class="node">
<title>Node10</title>
<g id="a_Node000010"><a xlink:href="class_m_q_t_t_manager.html#ab005f48ef3d1e54464b8f2205346179f" target="_top" xlink:title="Check non&#45;blocking connection progress.">
<polygon fill="white" stroke="#666666" points="382.88,-64.88 219.88,-64.88 219.88,-34.38 382.88,-34.38 382.88,-64.88"/>
<text xml:space="preserve" text-anchor="start" x="227.88" y="-51.38" font-family="Helvetica,sans-Serif" font-size="10.00">MQTTManager::checkConnection</text>
<text xml:space="preserve" text-anchor="middle" x="301.38" y="-40.12" font-family="Helvetica,sans-Serif" font-size="10.00">Progress</text>
</a>
</g>
</g>
<!-- Node9&#45;&gt;Node10 -->
<g id="edge10_Node000009_Node000010" class="edge">
<title>Node9&#45;&gt;Node10</title>
<g id="a_edge10_Node000009_Node000010"><a xlink:title=" ">
<path fill="none" stroke="#63b8ff" d="M178.02,-64.38C187.59,-63.23 197.85,-61.99 208.2,-60.74"/>
<polygon fill="#63b8ff" stroke="#63b8ff" points="208.43,-64.24 217.94,-59.57 207.59,-57.29 208.43,-64.24"/>
</a>
</g>
</g>
<!-- Node12 -->
<g id="Node000012" class="node">
<title>Node12</title>
<g id="a_Node000012"><a xlink:href="class_m_q_t_t_manager.html#a6d04009ffe15591e5faf9589e05787e0" target="_top" xlink:title="Test publish to configured test topic.">
<polygon fill="white" stroke="#666666" points="568,-19.25 432,-19.25 432,0 568,0 568,-19.25"/>
<text xml:space="preserve" text-anchor="middle" x="500" y="-5.75" font-family="Helvetica,sans-Serif" font-size="10.00">MQTTManager::testPublish</text>
</a>
</g>
</g>
<!-- Node9&#45;&gt;Node12 -->
<g id="edge13_Node000009_Node000012" class="edge">
<title>Node9&#45;&gt;Node12</title>
<g id="a_edge13_Node000009_Node000012"><a xlink:title=" ">
<path fill="none" stroke="#63b8ff" d="M141.46,-60.62C158.8,-49.79 188.41,-33.08 216.5,-25.62 283.71,-7.78 362.97,-4.78 420.41,-5.66"/>
<polygon fill="#63b8ff" stroke="#63b8ff" points="420.01,-9.15 430.08,-5.85 420.15,-2.15 420.01,-9.15"/>
</a>
</g>
</g>
<!-- Node11 -->
<g id="Node000011" class="node">
<title>Node11</title>
<g id="a_Node000011"><a xlink:href="class_m_q_t_t_manager.html#aaa6dfaebfbbfb48e3f4de45bab477d2c" target="_top" xlink:title="Check if connected to MQTT broker.">
<polygon fill="white" stroke="#666666" points="566.12,-59.25 433.88,-59.25 433.88,-40 566.12,-40 566.12,-59.25"/>
<text xml:space="preserve" text-anchor="middle" x="500" y="-45.75" font-family="Helvetica,sans-Serif" font-size="10.00">MQTTManager::connected</text>
</a>
</g>
</g>
<!-- Node10&#45;&gt;Node11 -->
<g id="edge11_Node000010_Node000011" class="edge">
<title>Node10&#45;&gt;Node11</title>
<g id="a_edge11_Node000010_Node000011"><a xlink:title=" ">
<path fill="none" stroke="#63b8ff" d="M383.2,-49.62C396.15,-49.62 409.51,-49.62 422.35,-49.62"/>
<polygon fill="#63b8ff" stroke="#63b8ff" points="421.97,-53.13 431.97,-49.63 421.97,-46.13 421.97,-53.13"/>
</a>
</g>
</g>
<!-- Node10&#45;&gt;Node12 -->
<g id="edge12_Node000010_Node000012" class="edge">
<title>Node10&#45;&gt;Node12</title>
<g id="a_edge12_Node000010_Node000012"><a xlink:title=" ">
<path fill="none" stroke="#63b8ff" d="M379.52,-33.93C398.95,-29.98 419.53,-25.79 438.03,-22.03"/>
<polygon fill="#63b8ff" stroke="#63b8ff" points="438.67,-25.47 447.77,-20.05 437.28,-18.61 438.67,-25.47"/>
</a>
</g>
</g>
</g>
</svg>
