<?xml version="1.0" encoding="UTF-8" standalone="no"?>
<!DOCTYPE svg PUBLIC "-//W3C//DTD SVG 1.1//EN"
 "http://www.w3.org/Graphics/SVG/1.1/DTD/svg11.dtd">
<!-- Generated by graphviz version 13.1.0 (20250701.0955)
 -->
<!-- Title: src/main.cpp Pages: 1 -->
<svg width="1519pt" height="469pt"
 viewBox="0.00 0.00 1519.00 469.00" xmlns="http://www.w3.org/2000/svg" xmlns:xlink="http://www.w3.org/1999/xlink">
<g id="graph0" class="graph" transform="scale(1 1) rotate(0) translate(4 465.25)">
<title>src/main.cpp</title>
<!-- Node1 -->
<g id="Node000001" class="node">
<title>Node1</title>
<g id="a_Node000001"><a xlink:title="Main application entry point for Industrial Temperature Monitoring System.">
<polygon fill="#999999" stroke="#666666" points="742.38,-461.25 670.12,-461.25 670.12,-442 742.38,-442 742.38,-461.25"/>
<text xml:space="preserve" text-anchor="middle" x="706.25" y="-447.75" font-family="Helvetica,sans-Serif" font-size="10.00">src/main.cpp</text>
</a>
</g>
</g>
<!-- Node2 -->
<g id="Node000002" class="node">
<title>Node2</title>
<g id="a_Node000002"><a xlink:title=" ">
<polygon fill="#e0e0e0" stroke="#999999" points="1085.88,-19.25 1028.62,-19.25 1028.62,0 1085.88,0 1085.88,-19.25"/>
<text xml:space="preserve" text-anchor="middle" x="1057.25" y="-5.75" font-family="Helvetica,sans-Serif" font-size="10.00">Arduino.h</text>
</a>
</g>
</g>
<!-- Node1&#45;&gt;Node2 -->
<g id="edge1_Node000001_Node000002" class="edge">
<title>Node1&#45;&gt;Node2</title>
<g id="a_edge1_Node000001_Node000002"><a xlink:title=" ">
<path fill="none" stroke="#63b8ff" d="M669.74,-449.36C564.71,-444.73 269.25,-424.4 269.25,-342.12 269.25,-342.12 269.25,-342.12 269.25,-119.12 269.25,-42.84 856.35,-17.41 1017.02,-11.88"/>
<polygon fill="#63b8ff" stroke="#63b8ff" points="1016.88,-15.39 1026.76,-11.55 1016.65,-8.39 1016.88,-15.39"/>
</a>
</g>
</g>
<!-- Node3 -->
<g id="Node000003" class="node">
<title>Node3</title>
<g id="a_Node000003"><a xlink:href="_temperature_controller_8h.html" target="_top" xlink:title="Central temperature monitoring and control system.">
<polygon fill="white" stroke="#666666" points="1089,-295.5 969.5,-295.5 969.5,-276.25 1089,-276.25 1089,-295.5"/>
<text xml:space="preserve" text-anchor="middle" x="1029.25" y="-282" font-family="Helvetica,sans-Serif" font-size="10.00">TemperatureController.h</text>
</a>
</g>
</g>
<!-- Node1&#45;&gt;Node3 -->
<g id="edge2_Node000001_Node000003" class="edge">
<title>Node1&#45;&gt;Node3</title>
<g id="a_edge2_Node000001_Node000003"><a xlink:title=" ">
<path fill="none" stroke="#63b8ff" d="M742.64,-450.26C859.39,-448.23 1221.03,-435.14 1292.25,-350.75 1297.77,-344.21 1297.77,-338.04 1292.25,-331.5 1286.02,-324.13 1176.4,-307.44 1100.67,-296.69"/>
<polygon fill="#63b8ff" stroke="#63b8ff" points="1101.18,-293.22 1090.79,-295.29 1100.2,-300.16 1101.18,-293.22"/>
</a>
</g>
</g>
<!-- Node10 -->
<g id="Node000010" class="node">
<title>Node10</title>
<g id="a_Node000010"><a xlink:href="_logger_manager_8h.html" target="_top" xlink:title="Comprehensive data and event logging system for temperature monitoring.">
<polygon fill="white" stroke="#666666" points="808.38,-129.75 718.12,-129.75 718.12,-110.5 808.38,-110.5 808.38,-129.75"/>
<text xml:space="preserve" text-anchor="middle" x="763.25" y="-116.25" font-family="Helvetica,sans-Serif" font-size="10.00">LoggerManager.h</text>
</a>
</g>
</g>
<!-- Node1&#45;&gt;Node10 -->
<g id="edge71_Node000001_Node000010" class="edge">
<title>Node1&#45;&gt;Node10</title>
<g id="a_edge71_Node000001_Node000010"><a xlink:title=" ">
<path fill="none" stroke="#63b8ff" d="M692.39,-441.54C669.99,-425.99 626.41,-391.92 607.25,-350.75 593.25,-320.66 595.01,-308.64 602.25,-276.25 615.2,-218.32 630.43,-202.23 677.25,-165.75 693.25,-153.28 713.26,-142.66 729.95,-134.91"/>
<polygon fill="#63b8ff" stroke="#63b8ff" points="731.29,-138.14 738.98,-130.86 728.42,-131.76 731.29,-138.14"/>
</a>
</g>
</g>
<!-- Node13 -->
<g id="Node000013" class="node">
<title>Node13</title>
<g id="a_Node000013"><a xlink:href="_time_manager_8h.html" target="_top" xlink:title="Real&#45;time clock and time synchronization management.">
<polygon fill="white" stroke="#666666" points="241.62,-74.5 158.88,-74.5 158.88,-55.25 241.62,-55.25 241.62,-74.5"/>
<text xml:space="preserve" text-anchor="middle" x="200.25" y="-61" font-family="Helvetica,sans-Serif" font-size="10.00">TimeManager.h</text>
</a>
</g>
</g>
<!-- Node1&#45;&gt;Node13 -->
<g id="edge70_Node000001_Node000013" class="edge">
<title>Node1&#45;&gt;Node13</title>
<g id="a_edge70_Node000001_Node000013"><a xlink:title=" ">
<path fill="none" stroke="#63b8ff" d="M669.93,-451.07C575.4,-451.59 324.3,-448.81 255.25,-406 226.78,-388.35 215.25,-375.62 215.25,-342.12 215.25,-342.12 215.25,-342.12 215.25,-174.38 215.25,-143.22 209.11,-107.5 204.68,-85.82"/>
<polygon fill="#63b8ff" stroke="#63b8ff" points="208.16,-85.35 202.65,-76.3 201.31,-86.81 208.16,-85.35"/>
</a>
</g>
</g>
<!-- Node22 -->
<g id="Node000022" class="node">
<title>Node22</title>
<g id="a_Node000022"><a xlink:href="_indicator_interface_8h.html" target="_top" xlink:title="Hardware interface for PCF8575 I/O expander and SH1106 OLED display.">
<polygon fill="white" stroke="#666666" points="539.25,-185 439.25,-185 439.25,-165.75 539.25,-165.75 539.25,-185"/>
<text xml:space="preserve" text-anchor="middle" x="489.25" y="-171.5" font-family="Helvetica,sans-Serif" font-size="10.00">IndicatorInterface.h</text>
</a>
</g>
</g>
<!-- Node1&#45;&gt;Node22 -->
<g id="edge68_Node000001_Node000022" class="edge">
<title>Node1&#45;&gt;Node22</title>
<g id="a_edge68_Node000001_Node000022"><a xlink:title=" ">
<path fill="none" stroke="#63b8ff" d="M669.83,-446.34C620.59,-439.86 536.28,-426.17 513.25,-406 490.44,-386.02 489.25,-372.45 489.25,-342.12 489.25,-342.12 489.25,-342.12 489.25,-284.88 489.25,-254.16 489.25,-218.55 489.25,-196.74"/>
<polygon fill="#63b8ff" stroke="#63b8ff" points="492.75,-196.89 489.25,-186.89 485.75,-196.89 492.75,-196.89"/>
</a>
</g>
</g>
<!-- Node29 -->
<g id="Node000029" class="node">
<title>Node29</title>
<g id="a_Node000029"><a xlink:href="_temp_modbus_server_8h.html" target="_top" xlink:title="Modbus RTU server for temperature monitoring system.">
<polygon fill="white" stroke="#666666" points="1404.5,-295.5 1294,-295.5 1294,-276.25 1404.5,-276.25 1404.5,-295.5"/>
<text xml:space="preserve" text-anchor="middle" x="1349.25" y="-282" font-family="Helvetica,sans-Serif" font-size="10.00">TempModbusServer.h</text>
</a>
</g>
</g>
<!-- Node1&#45;&gt;Node29 -->
<g id="edge47_Node000001_Node000029" class="edge">
<title>Node1&#45;&gt;Node29</title>
<g id="a_edge47_Node000001_Node000029"><a xlink:title=" ">
<path fill="none" stroke="#63b8ff" d="M742.52,-449.69C844.39,-446.7 1131.4,-435.8 1220.25,-406 1264.03,-391.31 1275.43,-383.24 1308.25,-350.75 1321.56,-337.57 1332.74,-319.32 1340.04,-305.71"/>
<polygon fill="#63b8ff" stroke="#63b8ff" points="1343.1,-307.42 1344.54,-296.92 1336.87,-304.23 1343.1,-307.42"/>
</a>
</g>
</g>
<!-- Node31 -->
<g id="Node000031" class="node">
<title>Node31</title>
<g id="a_Node000031"><a xlink:href="_config_manager_8h.html" target="_top" xlink:title="Configuration management system for temperature monitoring device.">
<polygon fill="white" stroke="#666666" points="931,-406 841.5,-406 841.5,-386.75 931,-386.75 931,-406"/>
<text xml:space="preserve" text-anchor="middle" x="886.25" y="-392.5" font-family="Helvetica,sans-Serif" font-size="10.00">ConfigManager.h</text>
</a>
</g>
</g>
<!-- Node1&#45;&gt;Node31 -->
<g id="edge52_Node000001_Node000031" class="edge">
<title>Node1&#45;&gt;Node31</title>
<g id="a_edge52_Node000001_Node000031"><a xlink:title=" ">
<path fill="none" stroke="#63b8ff" d="M736.78,-441.59C766.52,-432.79 811.94,-419.36 844.9,-409.61"/>
<polygon fill="#63b8ff" stroke="#63b8ff" points="845.52,-413.07 854.11,-406.88 843.53,-406.36 845.52,-413.07"/>
</a>
</g>
</g>
<!-- Node39 -->
<g id="Node000039" class="node">
<title>Node39</title>
<g id="a_Node000039"><a xlink:title=" ">
<polygon fill="#e0e0e0" stroke="#999999" points="1417.62,-406 1376.88,-406 1376.88,-386.75 1417.62,-386.75 1417.62,-406"/>
<text xml:space="preserve" text-anchor="middle" x="1397.25" y="-392.5" font-family="Helvetica,sans-Serif" font-size="10.00">SPI.h</text>
</a>
</g>
</g>
<!-- Node1&#45;&gt;Node39 -->
<g id="edge69_Node000001_Node000039" class="edge">
<title>Node1&#45;&gt;Node39</title>
<g id="a_edge69_Node000001_Node000039"><a xlink:title=" ">
<path fill="none" stroke="#63b8ff" d="M742.83,-450.45C842.85,-449.47 1128.98,-443.36 1363.25,-406 1363.93,-405.89 1364.61,-405.78 1365.3,-405.66"/>
<polygon fill="#63b8ff" stroke="#63b8ff" points="1365.98,-409.09 1375.04,-403.58 1364.53,-402.24 1365.98,-409.09"/>
</a>
</g>
</g>
<!-- Node3&#45;&gt;Node2 -->
<g id="edge3_Node000003_Node000002" class="edge">
<title>Node3&#45;&gt;Node2</title>
<g id="a_edge3_Node000003_Node000002"><a xlink:title=" ">
<path fill="none" stroke="#63b8ff" d="M1089.49,-277.2C1154.76,-268.43 1254.37,-253.56 1290.25,-240.25 1301.43,-236.1 1376.38,-195.38 1382.25,-185 1411.68,-133 1411.19,-121.95 1310.25,-55.25 1275.9,-32.55 1159.53,-19.39 1097.3,-13.81"/>
<polygon fill="#63b8ff" stroke="#63b8ff" points="1097.75,-10.33 1087.48,-12.95 1097.14,-17.31 1097.75,-10.33"/>
</a>
</g>
</g>
<!-- Node4 -->
<g id="Node000004" class="node">
<title>Node4</title>
<g id="a_Node000004"><a xlink:title=" ">
<polygon fill="#e0e0e0" stroke="#999999" points="911.75,-74.5 868.75,-74.5 868.75,-55.25 911.75,-55.25 911.75,-74.5"/>
<text xml:space="preserve" text-anchor="middle" x="890.25" y="-61" font-family="Helvetica,sans-Serif" font-size="10.00">vector</text>
</a>
</g>
</g>
<!-- Node3&#45;&gt;Node4 -->
<g id="edge4_Node000003_Node000004" class="edge">
<title>Node3&#45;&gt;Node4</title>
<g id="a_edge4_Node000003_Node000004"><a xlink:title=" ">
<path fill="none" stroke="#63b8ff" d="M1023.63,-276.02C1002.89,-243.34 930.4,-129.13 901.89,-84.21"/>
<polygon fill="#63b8ff" stroke="#63b8ff" points="904.91,-82.45 896.6,-75.88 899,-86.2 904.91,-82.45"/>
</a>
</g>
</g>
<!-- Node5 -->
<g id="Node000005" class="node">
<title>Node5</title>
<g id="a_Node000005"><a xlink:href="_sensor_8h.html" target="_top" xlink:title="Temperature sensor abstraction layer.">
<polygon fill="white" stroke="#666666" points="1192.38,-129.75 1138.12,-129.75 1138.12,-110.5 1192.38,-110.5 1192.38,-129.75"/>
<text xml:space="preserve" text-anchor="middle" x="1165.25" y="-116.25" font-family="Helvetica,sans-Serif" font-size="10.00">Sensor.h</text>
</a>
</g>
</g>
<!-- Node3&#45;&gt;Node5 -->
<g id="edge5_Node000003_Node000005" class="edge">
<title>Node3&#45;&gt;Node5</title>
<g id="a_edge5_Node000003_Node000005"><a xlink:title=" ">
<path fill="none" stroke="#63b8ff" d="M1058.38,-275.85C1077.05,-268.78 1100.62,-257.24 1116.25,-240.25 1130.15,-225.13 1149.33,-170.38 1159.06,-140.65"/>
<polygon fill="#63b8ff" stroke="#63b8ff" points="1162.3,-141.99 1162.04,-131.4 1155.64,-139.84 1162.3,-141.99"/>
</a>
</g>
</g>
<!-- Node6 -->
<g id="Node000006" class="node">
<title>Node6</title>
<g id="a_Node000006"><a xlink:title=" ">
<polygon fill="#e0e0e0" stroke="#999999" points="992.5,-74.5 930,-74.5 930,-55.25 992.5,-55.25 992.5,-74.5"/>
<text xml:space="preserve" text-anchor="middle" x="961.25" y="-61" font-family="Helvetica,sans-Serif" font-size="10.00">OneWire.h</text>
</a>
</g>
</g>
<!-- Node3&#45;&gt;Node6 -->
<g id="edge43_Node000003_Node000006" class="edge">
<title>Node3&#45;&gt;Node6</title>
<g id="a_edge43_Node000003_Node000006"><a xlink:title=" ">
<path fill="none" stroke="#63b8ff" d="M1026.5,-276.02C1016.44,-243.62 981.49,-131.05 967.3,-85.37"/>
<polygon fill="#63b8ff" stroke="#63b8ff" points="970.72,-84.56 964.41,-76.05 964.03,-86.64 970.72,-84.56"/>
</a>
</g>
</g>
<!-- Node7 -->
<g id="Node000007" class="node">
<title>Node7</title>
<g id="a_Node000007"><a xlink:title=" ">
<polygon fill="#e0e0e0" stroke="#999999" points="1116.25,-74.5 1010.25,-74.5 1010.25,-55.25 1116.25,-55.25 1116.25,-74.5"/>
<text xml:space="preserve" text-anchor="middle" x="1063.25" y="-61" font-family="Helvetica,sans-Serif" font-size="10.00">DallasTemperature.h</text>
</a>
</g>
</g>
<!-- Node3&#45;&gt;Node7 -->
<g id="edge44_Node000003_Node000007" class="edge">
<title>Node3&#45;&gt;Node7</title>
<g id="a_edge44_Node000003_Node000007"><a xlink:title=" ">
<path fill="none" stroke="#63b8ff" d="M1030.62,-276.02C1035.63,-243.76 1052.98,-132.01 1060.13,-85.96"/>
<polygon fill="#63b8ff" stroke="#63b8ff" points="1063.59,-86.52 1061.66,-76.1 1056.67,-85.44 1063.59,-86.52"/>
</a>
</g>
</g>
<!-- Node9 -->
<g id="Node000009" class="node">
<title>Node9</title>
<g id="a_Node000009"><a xlink:href="_measurement_point_8h.html" target="_top" xlink:title="Measurement point abstraction for temperature monitoring system.">
<polygon fill="white" stroke="#666666" points="1269.25,-185 1163.25,-185 1163.25,-165.75 1269.25,-165.75 1269.25,-185"/>
<text xml:space="preserve" text-anchor="middle" x="1216.25" y="-171.5" font-family="Helvetica,sans-Serif" font-size="10.00">MeasurementPoint.h</text>
</a>
</g>
</g>
<!-- Node3&#45;&gt;Node9 -->
<g id="edge10_Node000003_Node000009" class="edge">
<title>Node3&#45;&gt;Node9</title>
<g id="a_edge10_Node000003_Node000009"><a xlink:title=" ">
<path fill="none" stroke="#63b8ff" d="M1064.85,-275.77C1089.69,-268.46 1122.96,-256.69 1149.25,-240.25 1169.59,-227.53 1189,-207.92 1201.64,-193.79"/>
<polygon fill="#63b8ff" stroke="#63b8ff" points="1204,-196.4 1207.92,-186.56 1198.72,-191.81 1204,-196.4"/>
</a>
</g>
</g>
<!-- Node19 -->
<g id="Node000019" class="node">
<title>Node19</title>
<g id="a_Node000019"><a xlink:title=" ">
<polygon fill="#e0e0e0" stroke="#999999" points="446.38,-19.25 368.12,-19.25 368.12,0 446.38,0 446.38,-19.25"/>
<text xml:space="preserve" text-anchor="middle" x="407.25" y="-5.75" font-family="Helvetica,sans-Serif" font-size="10.00">ArduinoJson.h</text>
</a>
</g>
</g>
<!-- Node3&#45;&gt;Node19 -->
<g id="edge45_Node000003_Node000019" class="edge">
<title>Node3&#45;&gt;Node19</title>
<g id="a_edge45_Node000003_Node000019"><a xlink:title=" ">
<path fill="none" stroke="#63b8ff" d="M969.33,-281.69C859.55,-274.38 620.02,-251.56 430.25,-185 380.86,-167.68 353.22,-174.61 326.25,-129.75 303.13,-91.29 352.22,-48.22 383.64,-25.9"/>
<polygon fill="#63b8ff" stroke="#63b8ff" points="385.22,-29.06 391.48,-20.52 381.26,-23.29 385.22,-29.06"/>
</a>
</g>
</g>
<!-- Node20 -->
<g id="Node000020" class="node">
<title>Node20</title>
<g id="a_Node000020"><a xlink:href="_register_map_8h.html" target="_top" xlink:title="Modbus register mapping for temperature monitoring system.">
<polygon fill="white" stroke="#666666" points="1281.12,-240.25 1201.38,-240.25 1201.38,-221 1281.12,-221 1281.12,-240.25"/>
<text xml:space="preserve" text-anchor="middle" x="1241.25" y="-226.75" font-family="Helvetica,sans-Serif" font-size="10.00">RegisterMap.h</text>
</a>
</g>
</g>
<!-- Node3&#45;&gt;Node20 -->
<g id="edge26_Node000003_Node000020" class="edge">
<title>Node3&#45;&gt;Node20</title>
<g id="a_edge26_Node000003_Node000020"><a xlink:title=" ">
<path fill="none" stroke="#63b8ff" d="M1065.21,-275.84C1100.69,-266.93 1155.13,-253.26 1194.07,-243.48"/>
<polygon fill="#63b8ff" stroke="#63b8ff" points="1194.8,-246.9 1203.64,-241.07 1193.09,-240.11 1194.8,-246.9"/>
</a>
</g>
</g>
<!-- Node3&#45;&gt;Node22 -->
<g id="edge29_Node000003_Node000022" class="edge">
<title>Node3&#45;&gt;Node22</title>
<g id="a_edge29_Node000003_Node000022"><a xlink:title=" ">
<path fill="none" stroke="#63b8ff" d="M984.14,-275.81C886.07,-256.11 653.62,-209.4 545.88,-187.75"/>
<polygon fill="#63b8ff" stroke="#63b8ff" points="546.59,-184.33 536.1,-185.79 545.21,-191.19 546.59,-184.33"/>
</a>
</g>
</g>
<!-- Node27 -->
<g id="Node000027" class="node">
<title>Node27</title>
<g id="a_Node000027"><a xlink:href="_alarm_8h.html" target="_top" xlink:title="Alarm management system for temperature monitoring.">
<polygon fill="white" stroke="#666666" points="1107.12,-240.25 1057.38,-240.25 1057.38,-221 1107.12,-221 1107.12,-240.25"/>
<text xml:space="preserve" text-anchor="middle" x="1082.25" y="-226.75" font-family="Helvetica,sans-Serif" font-size="10.00">Alarm.h</text>
</a>
</g>
</g>
<!-- Node3&#45;&gt;Node27 -->
<g id="edge38_Node000003_Node000027" class="edge">
<title>Node3&#45;&gt;Node27</title>
<g id="a_edge38_Node000003_Node000027"><a xlink:title=" ">
<path fill="none" stroke="#63b8ff" d="M1038,-276.08C1045.4,-268.65 1056.21,-257.79 1065.3,-248.66"/>
<polygon fill="#63b8ff" stroke="#63b8ff" points="1067.67,-251.24 1072.24,-241.68 1062.71,-246.3 1067.67,-251.24"/>
</a>
</g>
</g>
<!-- Node28 -->
<g id="Node000028" class="node">
<title>Node28</title>
<g id="a_Node000028"><a xlink:title=" ">
<polygon fill="#e0e0e0" stroke="#999999" points="887.12,-240.25 831.38,-240.25 831.38,-221 887.12,-221 887.12,-240.25"/>
<text xml:space="preserve" text-anchor="middle" x="859.25" y="-226.75" font-family="Helvetica,sans-Serif" font-size="10.00">algorithm</text>
</a>
</g>
</g>
<!-- Node3&#45;&gt;Node28 -->
<g id="edge46_Node000003_Node000028" class="edge">
<title>Node3&#45;&gt;Node28</title>
<g id="a_edge46_Node000003_Node000028"><a xlink:title=" ">
<path fill="none" stroke="#63b8ff" d="M1000.41,-275.84C972.32,-267.04 929.41,-253.6 898.27,-243.85"/>
<polygon fill="#63b8ff" stroke="#63b8ff" points="899.41,-240.54 888.82,-240.89 897.32,-247.22 899.41,-240.54"/>
</a>
</g>
</g>
<!-- Node5&#45;&gt;Node2 -->
<g id="edge6_Node000005_Node000002" class="edge">
<title>Node5&#45;&gt;Node2</title>
<g id="a_edge6_Node000005_Node000002"><a xlink:title=" ">
<path fill="none" stroke="#63b8ff" d="M1192.87,-111.85C1226.45,-101.67 1276.19,-81.44 1255.25,-55.25 1235.86,-31.01 1149.39,-19 1097.34,-13.86"/>
<polygon fill="#63b8ff" stroke="#63b8ff" points="1097.96,-10.41 1087.68,-12.96 1097.31,-17.38 1097.96,-10.41"/>
</a>
</g>
</g>
<!-- Node5&#45;&gt;Node6 -->
<g id="edge7_Node000005_Node000006" class="edge">
<title>Node5&#45;&gt;Node6</title>
<g id="a_edge7_Node000005_Node000006"><a xlink:title=" ">
<path fill="none" stroke="#63b8ff" d="M1137.74,-111.94C1103.32,-102.96 1044.01,-87.48 1003.74,-76.97"/>
<polygon fill="#63b8ff" stroke="#63b8ff" points="1004.69,-73.6 994.13,-74.46 1002.92,-80.37 1004.69,-73.6"/>
</a>
</g>
</g>
<!-- Node5&#45;&gt;Node7 -->
<g id="edge8_Node000005_Node000007" class="edge">
<title>Node5&#45;&gt;Node7</title>
<g id="a_edge8_Node000005_Node000007"><a xlink:title=" ">
<path fill="none" stroke="#63b8ff" d="M1147.95,-110.09C1132.27,-101.91 1108.9,-89.71 1090.67,-80.19"/>
<polygon fill="#63b8ff" stroke="#63b8ff" points="1092.46,-77.18 1081.98,-75.65 1089.22,-83.38 1092.46,-77.18"/>
</a>
</g>
</g>
<!-- Node8 -->
<g id="Node000008" class="node">
<title>Node8</title>
<g id="a_Node000008"><a xlink:title=" ">
<polygon fill="#e0e0e0" stroke="#999999" points="1245.88,-74.5 1134.62,-74.5 1134.62,-55.25 1245.88,-55.25 1245.88,-74.5"/>
<text xml:space="preserve" text-anchor="middle" x="1190.25" y="-61" font-family="Helvetica,sans-Serif" font-size="10.00">Adafruit_MAX31865.h</text>
</a>
</g>
</g>
<!-- Node5&#45;&gt;Node8 -->
<g id="edge9_Node000005_Node000008" class="edge">
<title>Node5&#45;&gt;Node8</title>
<g id="a_edge9_Node000005_Node000008"><a xlink:title=" ">
<path fill="none" stroke="#63b8ff" d="M1169.38,-110.33C1172.58,-103.51 1177.14,-93.81 1181.18,-85.2"/>
<polygon fill="#63b8ff" stroke="#63b8ff" points="1184.31,-86.77 1185.39,-76.23 1177.97,-83.79 1184.31,-86.77"/>
</a>
</g>
</g>
<!-- Node9&#45;&gt;Node2 -->
<g id="edge11_Node000009_Node000002" class="edge">
<title>Node9&#45;&gt;Node2</title>
<g id="a_edge11_Node000009_Node000002"><a xlink:title=" ">
<path fill="none" stroke="#63b8ff" d="M1226.43,-165.48C1249.25,-144.48 1300.28,-90.95 1271.25,-55.25 1249.74,-28.79 1152.96,-17.49 1097.2,-13.1"/>
<polygon fill="#63b8ff" stroke="#63b8ff" points="1097.71,-9.63 1087.47,-12.38 1097.19,-16.61 1097.71,-9.63"/>
</a>
</g>
</g>
<!-- Node9&#45;&gt;Node5 -->
<g id="edge12_Node000009_Node000005" class="edge">
<title>Node9&#45;&gt;Node5</title>
<g id="a_edge12_Node000009_Node000005"><a xlink:title=" ">
<path fill="none" stroke="#63b8ff" d="M1207.83,-165.58C1200.71,-158.15 1190.31,-147.29 1181.56,-138.16"/>
<polygon fill="#63b8ff" stroke="#63b8ff" points="1184.35,-136 1174.9,-131.2 1179.29,-140.85 1184.35,-136"/>
</a>
</g>
</g>
<!-- Node9&#45;&gt;Node10 -->
<g id="edge13_Node000009_Node000010" class="edge">
<title>Node9&#45;&gt;Node10</title>
<g id="a_edge13_Node000009_Node000010"><a xlink:title=" ">
<path fill="none" stroke="#63b8ff" d="M1162.95,-168.11C1077,-158.01 908.51,-138.2 820.25,-127.83"/>
<polygon fill="#63b8ff" stroke="#63b8ff" points="820.71,-124.36 810.37,-126.66 819.89,-131.31 820.71,-124.36"/>
</a>
</g>
</g>
<!-- Node10&#45;&gt;Node2 -->
<g id="edge14_Node000010_Node000002" class="edge">
<title>Node10&#45;&gt;Node2</title>
<g id="a_edge14_Node000010_Node000002"><a xlink:title=" ">
<path fill="none" stroke="#63b8ff" d="M769.4,-110.02C779.49,-95.86 800.98,-68.78 826.25,-55.25 887.33,-22.55 968.88,-13.59 1016.96,-11.27"/>
<polygon fill="#63b8ff" stroke="#63b8ff" points="1017.07,-14.77 1026.92,-10.87 1016.79,-7.77 1017.07,-14.77"/>
</a>
</g>
</g>
<!-- Node10&#45;&gt;Node4 -->
<g id="edge25_Node000010_Node000004" class="edge">
<title>Node10&#45;&gt;Node4</title>
<g id="a_edge25_Node000010_Node000004"><a xlink:title=" ">
<path fill="none" stroke="#63b8ff" d="M784.79,-110.09C804.86,-101.68 835.05,-89.02 858,-79.4"/>
<polygon fill="#63b8ff" stroke="#63b8ff" points="859.34,-82.63 867.2,-75.54 856.63,-76.18 859.34,-82.63"/>
</a>
</g>
</g>
<!-- Node11 -->
<g id="Node000011" class="node">
<title>Node11</title>
<g id="a_Node000011"><a xlink:title=" ">
<polygon fill="#e0e0e0" stroke="#999999" points="773.75,-74.5 736.75,-74.5 736.75,-55.25 773.75,-55.25 773.75,-74.5"/>
<text xml:space="preserve" text-anchor="middle" x="755.25" y="-61" font-family="Helvetica,sans-Serif" font-size="10.00">FS.h</text>
</a>
</g>
</g>
<!-- Node10&#45;&gt;Node11 -->
<g id="edge15_Node000010_Node000011" class="edge">
<title>Node10&#45;&gt;Node11</title>
<g id="a_edge15_Node000010_Node000011"><a xlink:title=" ">
<path fill="none" stroke="#63b8ff" d="M761.93,-110.33C760.94,-103.74 759.54,-94.46 758.28,-86.07"/>
<polygon fill="#63b8ff" stroke="#63b8ff" points="761.77,-85.72 756.82,-76.36 754.85,-86.76 761.77,-85.72"/>
</a>
</g>
</g>
<!-- Node12 -->
<g id="Node000012" class="node">
<title>Node12</title>
<g id="a_Node000012"><a xlink:title=" ">
<polygon fill="#e0e0e0" stroke="#999999" points="718.5,-74.5 680,-74.5 680,-55.25 718.5,-55.25 718.5,-74.5"/>
<text xml:space="preserve" text-anchor="middle" x="699.25" y="-61" font-family="Helvetica,sans-Serif" font-size="10.00">SD.h</text>
</a>
</g>
</g>
<!-- Node10&#45;&gt;Node12 -->
<g id="edge16_Node000010_Node000012" class="edge">
<title>Node10&#45;&gt;Node12</title>
<g id="a_edge16_Node000010_Node000012"><a xlink:title=" ">
<path fill="none" stroke="#63b8ff" d="M752.39,-110.09C743.14,-102.4 729.63,-91.15 718.54,-81.93"/>
<polygon fill="#63b8ff" stroke="#63b8ff" points="721.04,-79.45 711.11,-75.74 716.56,-84.83 721.04,-79.45"/>
</a>
</g>
</g>
<!-- Node10&#45;&gt;Node13 -->
<g id="edge17_Node000010_Node000013" class="edge">
<title>Node10&#45;&gt;Node13</title>
<g id="a_edge17_Node000010_Node000013"><a xlink:title=" ">
<path fill="none" stroke="#63b8ff" d="M717.65,-114.81C614.48,-105.05 363.54,-81.32 253.48,-70.91"/>
<polygon fill="#63b8ff" stroke="#63b8ff" points="253.81,-67.43 243.53,-69.97 253.15,-74.39 253.81,-67.43"/>
</a>
</g>
</g>
<!-- Node13&#45;&gt;Node2 -->
<g id="edge18_Node000013_Node000002" class="edge">
<title>Node13&#45;&gt;Node2</title>
<g id="a_edge18_Node000013_Node000002"><a xlink:title=" ">
<path fill="none" stroke="#63b8ff" d="M241.93,-56.89C246.42,-56.27 250.92,-55.71 255.25,-55.25 546.52,-24.39 899.71,-14.13 1017.14,-11.44"/>
<polygon fill="#63b8ff" stroke="#63b8ff" points="1016.96,-14.94 1026.88,-11.22 1016.81,-7.95 1016.96,-14.94"/>
</a>
</g>
</g>
<!-- Node14 -->
<g id="Node000014" class="node">
<title>Node14</title>
<g id="a_Node000014"><a xlink:title=" ">
<polygon fill="#e0e0e0" stroke="#999999" points="188.5,-19.25 144,-19.25 144,0 188.5,0 188.5,-19.25"/>
<text xml:space="preserve" text-anchor="middle" x="166.25" y="-5.75" font-family="Helvetica,sans-Serif" font-size="10.00">WiFi.h</text>
</a>
</g>
</g>
<!-- Node13&#45;&gt;Node14 -->
<g id="edge19_Node000013_Node000014" class="edge">
<title>Node13&#45;&gt;Node14</title>
<g id="a_edge19_Node000013_Node000014"><a xlink:title=" ">
<path fill="none" stroke="#63b8ff" d="M194.64,-55.08C190.13,-48.03 183.66,-37.9 178.04,-29.08"/>
<polygon fill="#63b8ff" stroke="#63b8ff" points="181.13,-27.43 172.8,-20.88 175.23,-31.2 181.13,-27.43"/>
</a>
</g>
</g>
<!-- Node15 -->
<g id="Node000015" class="node">
<title>Node15</title>
<g id="a_Node000015"><a xlink:title=" ">
<polygon fill="#e0e0e0" stroke="#999999" points="44.5,-19.25 0,-19.25 0,0 44.5,0 44.5,-19.25"/>
<text xml:space="preserve" text-anchor="middle" x="22.25" y="-5.75" font-family="Helvetica,sans-Serif" font-size="10.00">Wire.h</text>
</a>
</g>
</g>
<!-- Node13&#45;&gt;Node15 -->
<g id="edge20_Node000013_Node000015" class="edge">
<title>Node13&#45;&gt;Node15</title>
<g id="a_edge20_Node000013_Node000015"><a xlink:title=" ">
<path fill="none" stroke="#63b8ff" d="M170.05,-54.84C138.38,-45.37 88.72,-30.51 55.83,-20.67"/>
<polygon fill="#63b8ff" stroke="#63b8ff" points="56.98,-17.36 46.4,-17.85 54.98,-24.07 56.98,-17.36"/>
</a>
</g>
</g>
<!-- Node16 -->
<g id="Node000016" class="node">
<title>Node16</title>
<g id="a_Node000016"><a xlink:title=" ">
<polygon fill="#e0e0e0" stroke="#999999" points="261.75,-19.25 206.75,-19.25 206.75,0 261.75,0 261.75,-19.25"/>
<text xml:space="preserve" text-anchor="middle" x="234.25" y="-5.75" font-family="Helvetica,sans-Serif" font-size="10.00">RTClib.h</text>
</a>
</g>
</g>
<!-- Node13&#45;&gt;Node16 -->
<g id="edge21_Node000013_Node000016" class="edge">
<title>Node13&#45;&gt;Node16</title>
<g id="a_edge21_Node000013_Node000016"><a xlink:title=" ">
<path fill="none" stroke="#63b8ff" d="M205.86,-55.08C210.37,-48.03 216.84,-37.9 222.46,-29.08"/>
<polygon fill="#63b8ff" stroke="#63b8ff" points="225.27,-31.2 227.7,-20.88 219.37,-27.43 225.27,-31.2"/>
</a>
</g>
</g>
<!-- Node17 -->
<g id="Node000017" class="node">
<title>Node17</title>
<g id="a_Node000017"><a xlink:title=" ">
<polygon fill="#e0e0e0" stroke="#999999" points="350.25,-19.25 280.25,-19.25 280.25,0 350.25,0 350.25,-19.25"/>
<text xml:space="preserve" text-anchor="middle" x="315.25" y="-5.75" font-family="Helvetica,sans-Serif" font-size="10.00">NTPClient.h</text>
</a>
</g>
</g>
<!-- Node13&#45;&gt;Node17 -->
<g id="edge22_Node000013_Node000017" class="edge">
<title>Node13&#45;&gt;Node17</title>
<g id="a_edge22_Node000013_Node000017"><a xlink:title=" ">
<path fill="none" stroke="#63b8ff" d="M219.76,-54.84C237.77,-46.5 264.77,-34 285.48,-24.41"/>
<polygon fill="#63b8ff" stroke="#63b8ff" points="286.67,-27.72 294.27,-20.34 283.73,-21.36 286.67,-27.72"/>
</a>
</g>
</g>
<!-- Node18 -->
<g id="Node000018" class="node">
<title>Node18</title>
<g id="a_Node000018"><a xlink:title=" ">
<polygon fill="#e0e0e0" stroke="#999999" points="125.5,-19.25 63,-19.25 63,0 125.5,0 125.5,-19.25"/>
<text xml:space="preserve" text-anchor="middle" x="94.25" y="-5.75" font-family="Helvetica,sans-Serif" font-size="10.00">WiFiUdp.h</text>
</a>
</g>
</g>
<!-- Node13&#45;&gt;Node18 -->
<g id="edge23_Node000013_Node000018" class="edge">
<title>Node13&#45;&gt;Node18</title>
<g id="a_edge23_Node000013_Node000018"><a xlink:title=" ">
<path fill="none" stroke="#63b8ff" d="M182.27,-54.84C165.9,-46.62 141.46,-34.34 122.49,-24.81"/>
<polygon fill="#63b8ff" stroke="#63b8ff" points="124.18,-21.74 113.67,-20.38 121.04,-28 124.18,-21.74"/>
</a>
</g>
</g>
<!-- Node13&#45;&gt;Node19 -->
<g id="edge24_Node000013_Node000019" class="edge">
<title>Node13&#45;&gt;Node19</title>
<g id="a_edge24_Node000013_Node000019"><a xlink:title=" ">
<path fill="none" stroke="#63b8ff" d="M235.36,-54.84C270.01,-45.93 323.16,-32.26 361.18,-22.48"/>
<polygon fill="#63b8ff" stroke="#63b8ff" points="361.68,-25.96 370.5,-20.08 359.94,-19.18 361.68,-25.96"/>
</a>
</g>
</g>
<!-- Node20&#45;&gt;Node9 -->
<g id="edge28_Node000020_Node000009" class="edge">
<title>Node20&#45;&gt;Node9</title>
<g id="a_edge28_Node000020_Node000009"><a xlink:title=" ">
<path fill="none" stroke="#63b8ff" d="M1237.12,-220.83C1233.92,-214.01 1229.36,-204.31 1225.32,-195.7"/>
<polygon fill="#63b8ff" stroke="#63b8ff" points="1228.53,-194.29 1221.11,-186.73 1222.19,-197.27 1228.53,-194.29"/>
</a>
</g>
</g>
<!-- Node21 -->
<g id="Node000021" class="node">
<title>Node21</title>
<g id="a_Node000021"><a xlink:title=" ">
<polygon fill="#e0e0e0" stroke="#999999" points="1373.38,-185 1325.12,-185 1325.12,-165.75 1373.38,-165.75 1373.38,-185"/>
<text xml:space="preserve" text-anchor="middle" x="1349.25" y="-171.5" font-family="Helvetica,sans-Serif" font-size="10.00">stdint.h</text>
</a>
</g>
</g>
<!-- Node20&#45;&gt;Node21 -->
<g id="edge27_Node000020_Node000021" class="edge">
<title>Node20&#45;&gt;Node21</title>
<g id="a_edge27_Node000020_Node000021"><a xlink:title=" ">
<path fill="none" stroke="#63b8ff" d="M1259.57,-220.59C1276.33,-212.33 1301.38,-199.98 1320.75,-190.43"/>
<polygon fill="#63b8ff" stroke="#63b8ff" points="1322.06,-193.68 1329.48,-186.12 1318.97,-187.4 1322.06,-193.68"/>
</a>
</g>
</g>
<!-- Node22&#45;&gt;Node2 -->
<g id="edge30_Node000022_Node000002" class="edge">
<title>Node22&#45;&gt;Node2</title>
<g id="a_edge30_Node000022_Node000002"><a xlink:title=" ">
<path fill="none" stroke="#63b8ff" d="M526.11,-165.3C548.13,-158.42 575.56,-147.12 595.25,-129.75 623.92,-104.46 606.2,-76.1 638.25,-55.25 700.08,-15.03 924.5,-10.48 1016.99,-10.37"/>
<polygon fill="#63b8ff" stroke="#63b8ff" points="1016.85,-13.87 1026.85,-10.37 1016.85,-6.87 1016.85,-13.87"/>
</a>
</g>
</g>
<!-- Node22&#45;&gt;Node4 -->
<g id="edge36_Node000022_Node000004" class="edge">
<title>Node22&#45;&gt;Node4</title>
<g id="a_edge36_Node000022_Node000004"><a xlink:title=" ">
<path fill="none" stroke="#63b8ff" d="M519.03,-165.31C561.22,-152.56 640.87,-128.85 709.25,-110.5 760.87,-96.65 821.2,-82.1 857.53,-73.52"/>
<polygon fill="#63b8ff" stroke="#63b8ff" points="858.04,-76.99 866.97,-71.29 856.44,-70.18 858.04,-76.99"/>
</a>
</g>
</g>
<!-- Node22&#45;&gt;Node10 -->
<g id="edge37_Node000022_Node000010" class="edge">
<title>Node22&#45;&gt;Node10</title>
<g id="a_edge37_Node000022_Node000010"><a xlink:title=" ">
<path fill="none" stroke="#63b8ff" d="M536.04,-165.28C583.36,-156.09 656.53,-141.87 706.98,-132.06"/>
<polygon fill="#63b8ff" stroke="#63b8ff" points="707.38,-135.55 716.53,-130.2 706.05,-128.68 707.38,-135.55"/>
</a>
</g>
</g>
<!-- Node22&#45;&gt;Node15 -->
<g id="edge31_Node000022_Node000015" class="edge">
<title>Node22&#45;&gt;Node15</title>
<g id="a_edge31_Node000022_Node000015"><a xlink:title=" ">
<path fill="none" stroke="#63b8ff" d="M449.26,-165.27C384.97,-150.04 255.23,-116.86 150.25,-74.5 113.98,-59.86 73.89,-39.06 48.41,-25.22"/>
<polygon fill="#63b8ff" stroke="#63b8ff" points="50.21,-22.22 39.76,-20.48 46.85,-28.35 50.21,-22.22"/>
</a>
</g>
</g>
<!-- Node23 -->
<g id="Node000023" class="node">
<title>Node23</title>
<g id="a_Node000023"><a xlink:title=" ">
<polygon fill="#e0e0e0" stroke="#999999" points="369.62,-129.75 334.88,-129.75 334.88,-110.5 369.62,-110.5 369.62,-129.75"/>
<text xml:space="preserve" text-anchor="middle" x="352.25" y="-116.25" font-family="Helvetica,sans-Serif" font-size="10.00">map</text>
</a>
</g>
</g>
<!-- Node22&#45;&gt;Node23 -->
<g id="edge32_Node000022_Node000023" class="edge">
<title>Node22&#45;&gt;Node23</title>
<g id="a_edge32_Node000022_Node000023"><a xlink:title=" ">
<path fill="none" stroke="#63b8ff" d="M466.01,-165.34C442.34,-156.14 405.61,-141.86 380.32,-132.04"/>
<polygon fill="#63b8ff" stroke="#63b8ff" points="381.93,-128.91 371.34,-128.54 379.39,-135.43 381.93,-128.91"/>
</a>
</g>
</g>
<!-- Node24 -->
<g id="Node000024" class="node">
<title>Node24</title>
<g id="a_Node000024"><a xlink:title=" ">
<polygon fill="#e0e0e0" stroke="#999999" points="427.25,-129.75 387.25,-129.75 387.25,-110.5 427.25,-110.5 427.25,-129.75"/>
<text xml:space="preserve" text-anchor="middle" x="407.25" y="-116.25" font-family="Helvetica,sans-Serif" font-size="10.00">string</text>
</a>
</g>
</g>
<!-- Node22&#45;&gt;Node24 -->
<g id="edge33_Node000022_Node000024" class="edge">
<title>Node22&#45;&gt;Node24</title>
<g id="a_edge33_Node000022_Node000024"><a xlink:title=" ">
<path fill="none" stroke="#63b8ff" d="M475.34,-165.34C463.09,-157.39 445,-145.64 430.54,-136.25"/>
<polygon fill="#63b8ff" stroke="#63b8ff" points="432.79,-133.54 422.5,-131.03 428.98,-139.41 432.79,-133.54"/>
</a>
</g>
</g>
<!-- Node25 -->
<g id="Node000025" class="node">
<title>Node25</title>
<g id="a_Node000025"><a xlink:title=" ">
<polygon fill="#e0e0e0" stroke="#999999" points="511,-129.75 445.5,-129.75 445.5,-110.5 511,-110.5 511,-129.75"/>
<text xml:space="preserve" text-anchor="middle" x="478.25" y="-116.25" font-family="Helvetica,sans-Serif" font-size="10.00">PCF8575.h</text>
</a>
</g>
</g>
<!-- Node22&#45;&gt;Node25 -->
<g id="edge34_Node000022_Node000025" class="edge">
<title>Node22&#45;&gt;Node25</title>
<g id="a_edge34_Node000022_Node000025"><a xlink:title=" ">
<path fill="none" stroke="#63b8ff" d="M487.43,-165.58C486.07,-158.99 484.15,-149.71 482.42,-141.32"/>
<polygon fill="#63b8ff" stroke="#63b8ff" points="485.86,-140.68 480.41,-131.59 479.01,-142.09 485.86,-140.68"/>
</a>
</g>
</g>
<!-- Node26 -->
<g id="Node000026" class="node">
<title>Node26</title>
<g id="a_Node000026"><a xlink:title=" ">
<polygon fill="#e0e0e0" stroke="#999999" points="585.88,-129.75 528.62,-129.75 528.62,-110.5 585.88,-110.5 585.88,-129.75"/>
<text xml:space="preserve" text-anchor="middle" x="557.25" y="-116.25" font-family="Helvetica,sans-Serif" font-size="10.00">U8g2lib.h</text>
</a>
</g>
</g>
<!-- Node22&#45;&gt;Node26 -->
<g id="edge35_Node000022_Node000026" class="edge">
<title>Node22&#45;&gt;Node26</title>
<g id="a_edge35_Node000022_Node000026"><a xlink:title=" ">
<path fill="none" stroke="#63b8ff" d="M500.79,-165.34C510.71,-157.57 525.26,-146.17 537.11,-136.9"/>
<polygon fill="#63b8ff" stroke="#63b8ff" points="538.98,-139.88 544.69,-130.96 534.66,-134.37 538.98,-139.88"/>
</a>
</g>
</g>
<!-- Node27&#45;&gt;Node2 -->
<g id="edge39_Node000027_Node000002" class="edge">
<title>Node27&#45;&gt;Node2</title>
<g id="a_edge39_Node000027_Node000002"><a xlink:title=" ">
<path fill="none" stroke="#63b8ff" d="M1107.6,-227.47C1155.36,-222.86 1255.91,-210.32 1278.25,-185 1316.54,-141.61 1326.11,-99.87 1289.25,-55.25 1265.37,-26.34 1157.29,-15.97 1097.44,-12.39"/>
<polygon fill="#63b8ff" stroke="#63b8ff" points="1097.84,-8.91 1087.66,-11.85 1097.45,-15.9 1097.84,-8.91"/>
</a>
</g>
</g>
<!-- Node27&#45;&gt;Node4 -->
<g id="edge40_Node000027_Node000004" class="edge">
<title>Node27&#45;&gt;Node4</title>
<g id="a_edge40_Node000027_Node000004"><a xlink:title=" ">
<path fill="none" stroke="#63b8ff" d="M1074.13,-220.64C1055.17,-199.92 1006.02,-147.69 959.25,-110.5 945.55,-99.6 929.13,-88.9 915.74,-80.71"/>
<polygon fill="#63b8ff" stroke="#63b8ff" points="917.86,-77.9 907.49,-75.75 914.26,-83.9 917.86,-77.9"/>
</a>
</g>
</g>
<!-- Node27&#45;&gt;Node9 -->
<g id="edge41_Node000027_Node000009" class="edge">
<title>Node27&#45;&gt;Node9</title>
<g id="a_edge41_Node000027_Node000009"><a xlink:title=" ">
<path fill="none" stroke="#63b8ff" d="M1104.98,-220.59C1126.35,-212.1 1158.59,-199.29 1182.88,-189.64"/>
<polygon fill="#63b8ff" stroke="#63b8ff" points="1184,-192.96 1192,-186.01 1181.41,-186.45 1184,-192.96"/>
</a>
</g>
</g>
<!-- Node27&#45;&gt;Node10 -->
<g id="edge42_Node000027_Node000010" class="edge">
<title>Node27&#45;&gt;Node10</title>
<g id="a_edge42_Node000027_Node000010"><a xlink:title=" ">
<path fill="none" stroke="#63b8ff" d="M1056.95,-221.02C1000.95,-201.97 866.28,-156.17 800.57,-133.82"/>
<polygon fill="#63b8ff" stroke="#63b8ff" points="801.92,-130.58 791.32,-130.67 799.66,-137.21 801.92,-130.58"/>
</a>
</g>
</g>
<!-- Node29&#45;&gt;Node2 -->
<g id="edge48_Node000029_Node000002" class="edge">
<title>Node29&#45;&gt;Node2</title>
<g id="a_edge48_Node000029_Node000002"><a xlink:title=" ">
<path fill="none" stroke="#63b8ff" d="M1392.21,-275.81C1413.55,-269.25 1438.15,-258.27 1454.25,-240.25 1473.98,-218.16 1473.25,-205.99 1473.25,-176.38 1473.25,-176.38 1473.25,-176.38 1473.25,-119.12 1473.25,-41.96 1201.84,-18.66 1097.47,-12.56"/>
<polygon fill="#63b8ff" stroke="#63b8ff" points="1097.86,-9.07 1087.68,-12.01 1097.47,-16.06 1097.86,-9.07"/>
</a>
</g>
</g>
<!-- Node29&#45;&gt;Node10 -->
<g id="edge51_Node000029_Node000010" class="edge">
<title>Node29&#45;&gt;Node10</title>
<g id="a_edge51_Node000029_Node000010"><a xlink:title=" ">
<path fill="none" stroke="#63b8ff" d="M1293.64,-280.12C1232.71,-274.11 1132.43,-261.85 1048.25,-240.25 979.84,-222.7 964.38,-212.31 899.25,-185 861.24,-169.06 818.33,-148.46 791.06,-135.03"/>
<polygon fill="#63b8ff" stroke="#63b8ff" points="792.94,-132.05 782.43,-130.76 789.84,-138.33 792.94,-132.05"/>
</a>
</g>
</g>
<!-- Node29&#45;&gt;Node20 -->
<g id="edge50_Node000029_Node000020" class="edge">
<title>Node29&#45;&gt;Node20</title>
<g id="a_edge50_Node000029_Node000020"><a xlink:title=" ">
<path fill="none" stroke="#63b8ff" d="M1330.93,-275.84C1314.17,-267.58 1289.12,-255.23 1269.75,-245.68"/>
<polygon fill="#63b8ff" stroke="#63b8ff" points="1271.53,-242.65 1261.02,-241.37 1268.44,-248.93 1271.53,-242.65"/>
</a>
</g>
</g>
<!-- Node30 -->
<g id="Node000030" class="node">
<title>Node30</title>
<g id="a_Node000030"><a xlink:title=" ">
<polygon fill="#e0e0e0" stroke="#999999" points="1445.38,-240.25 1337.12,-240.25 1337.12,-221 1445.38,-221 1445.38,-240.25"/>
<text xml:space="preserve" text-anchor="middle" x="1391.25" y="-226.75" font-family="Helvetica,sans-Serif" font-size="10.00">ModbusServerRTU.h</text>
</a>
</g>
</g>
<!-- Node29&#45;&gt;Node30 -->
<g id="edge49_Node000029_Node000030" class="edge">
<title>Node29&#45;&gt;Node30</title>
<g id="a_edge49_Node000029_Node000030"><a xlink:title=" ">
<path fill="none" stroke="#63b8ff" d="M1356.19,-276.08C1361.87,-268.88 1370.09,-258.46 1377.14,-249.51"/>
<polygon fill="#63b8ff" stroke="#63b8ff" points="1379.78,-251.82 1383.23,-241.8 1374.29,-247.48 1379.78,-251.82"/>
</a>
</g>
</g>
<!-- Node31&#45;&gt;Node2 -->
<g id="edge53_Node000031_Node000002" class="edge">
<title>Node31&#45;&gt;Node2</title>
<g id="a_edge53_Node000031_Node000002"><a xlink:title=" ">
<path fill="none" stroke="#63b8ff" d="M841.21,-394.64C770.49,-392.47 638.26,-383.96 607.25,-350.75 571.12,-312.06 622.01,-96.03 671.25,-55.25 723.1,-12.32 928.7,-9.2 1016.82,-9.92"/>
<polygon fill="#63b8ff" stroke="#63b8ff" points="1016.65,-13.41 1026.68,-10.02 1016.72,-6.41 1016.65,-13.41"/>
</a>
</g>
</g>
<!-- Node31&#45;&gt;Node3 -->
<g id="edge58_Node000031_Node000003" class="edge">
<title>Node31&#45;&gt;Node3</title>
<g id="a_edge58_Node000031_Node000003"><a xlink:title=" ">
<path fill="none" stroke="#63b8ff" d="M925.93,-386.31C948.37,-379.55 975.76,-368.37 995.25,-350.75 1008.5,-338.77 1017.52,-320.39 1022.92,-306.42"/>
<polygon fill="#63b8ff" stroke="#63b8ff" points="1026.08,-307.98 1026.12,-297.38 1019.48,-305.65 1026.08,-307.98"/>
</a>
</g>
</g>
<!-- Node31&#45;&gt;Node4 -->
<g id="edge67_Node000031_Node000004" class="edge">
<title>Node31&#45;&gt;Node4</title>
<g id="a_edge67_Node000031_Node000004"><a xlink:title=" ">
<path fill="none" stroke="#63b8ff" d="M903.7,-386.29C922.9,-374.94 949.87,-354.23 940.25,-331.5 926.49,-299.01 911.3,-297.64 883.25,-276.25 858.22,-257.16 837.86,-267.59 822.25,-240.25 818.01,-232.82 819.34,-229.04 822.25,-221 829.34,-201.42 842.23,-203.26 852.25,-185 870.12,-152.42 881.08,-110.16 886.38,-85.72"/>
<polygon fill="#63b8ff" stroke="#63b8ff" points="889.76,-86.69 888.34,-76.19 882.9,-85.28 889.76,-86.69"/>
</a>
</g>
</g>
<!-- Node31&#45;&gt;Node10 -->
<g id="edge66_Node000031_Node000010" class="edge">
<title>Node31&#45;&gt;Node10</title>
<g id="a_edge66_Node000031_Node000010"><a xlink:title=" ">
<path fill="none" stroke="#63b8ff" d="M841.07,-394.49C773.15,-392.1 649.74,-383.28 622.25,-350.75 560.56,-277.76 687.11,-175.04 740.76,-136.52"/>
<polygon fill="#63b8ff" stroke="#63b8ff" points="742.48,-139.59 748.63,-130.96 738.44,-133.87 742.48,-139.59"/>
</a>
</g>
</g>
<!-- Node32 -->
<g id="Node000032" class="node">
<title>Node32</title>
<g id="a_Node000032"><a xlink:title=" ">
<polygon fill="#e0e0e0" stroke="#999999" points="874.5,-295.5 794,-295.5 794,-276.25 874.5,-276.25 874.5,-295.5"/>
<text xml:space="preserve" text-anchor="middle" x="834.25" y="-282" font-family="Helvetica,sans-Serif" font-size="10.00">ConfigAssist.h</text>
</a>
</g>
</g>
<!-- Node31&#45;&gt;Node32 -->
<g id="edge54_Node000031_Node000032" class="edge">
<title>Node31&#45;&gt;Node32</title>
<g id="a_edge54_Node000031_Node000032"><a xlink:title=" ">
<path fill="none" stroke="#63b8ff" d="M898.31,-386.43C913.52,-374.01 936.29,-350.91 924.25,-331.5 915.05,-316.67 899.29,-306.61 883.5,-299.87"/>
<polygon fill="#63b8ff" stroke="#63b8ff" points="885.19,-296.77 874.6,-296.44 882.68,-303.3 885.19,-296.77"/>
</a>
</g>
</g>
<!-- Node33 -->
<g id="Node000033" class="node">
<title>Node33</title>
<g id="a_Node000033"><a xlink:title=" ">
<polygon fill="#e0e0e0" stroke="#999999" points="1283.38,-350.75 1175.12,-350.75 1175.12,-331.5 1283.38,-331.5 1283.38,-350.75"/>
<text xml:space="preserve" text-anchor="middle" x="1229.25" y="-337.25" font-family="Helvetica,sans-Serif" font-size="10.00">ConfigAssistHelper.h</text>
</a>
</g>
</g>
<!-- Node31&#45;&gt;Node33 -->
<g id="edge55_Node000031_Node000033" class="edge">
<title>Node31&#45;&gt;Node33</title>
<g id="a_edge55_Node000031_Node000033"><a xlink:title=" ">
<path fill="none" stroke="#63b8ff" d="M931.44,-388.36C990.89,-379.13 1095.78,-362.85 1163.88,-352.27"/>
<polygon fill="#63b8ff" stroke="#63b8ff" points="1164.06,-355.79 1173.4,-350.79 1162.99,-348.87 1164.06,-355.79"/>
</a>
</g>
</g>
<!-- Node34 -->
<g id="Node000034" class="node">
<title>Node34</title>
<g id="a_Node000034"><a xlink:title=" ">
<polygon fill="#e0e0e0" stroke="#999999" points="839,-350.75 767.5,-350.75 767.5,-331.5 839,-331.5 839,-350.75"/>
<text xml:space="preserve" text-anchor="middle" x="803.25" y="-337.25" font-family="Helvetica,sans-Serif" font-size="10.00">WebServer.h</text>
</a>
</g>
</g>
<!-- Node31&#45;&gt;Node34 -->
<g id="edge56_Node000031_Node000034" class="edge">
<title>Node31&#45;&gt;Node34</title>
<g id="a_edge56_Node000031_Node000034"><a xlink:title=" ">
<path fill="none" stroke="#63b8ff" d="M872.17,-386.34C859.77,-378.39 841.46,-366.64 826.82,-357.25"/>
<polygon fill="#63b8ff" stroke="#63b8ff" points="828.98,-354.47 818.67,-352.02 825.2,-360.37 828.98,-354.47"/>
</a>
</g>
</g>
<!-- Node35 -->
<g id="Node000035" class="node">
<title>Node35</title>
<g id="a_Node000035"><a xlink:title=" ">
<polygon fill="#e0e0e0" stroke="#999999" points="915.25,-350.75 857.25,-350.75 857.25,-331.5 915.25,-331.5 915.25,-350.75"/>
<text xml:space="preserve" text-anchor="middle" x="886.25" y="-337.25" font-family="Helvetica,sans-Serif" font-size="10.00">LittleFS.h</text>
</a>
</g>
</g>
<!-- Node31&#45;&gt;Node35 -->
<g id="edge57_Node000031_Node000035" class="edge">
<title>Node31&#45;&gt;Node35</title>
<g id="a_edge57_Node000031_Node000035"><a xlink:title=" ">
<path fill="none" stroke="#63b8ff" d="M886.25,-386.58C886.25,-380.07 886.25,-370.92 886.25,-362.62"/>
<polygon fill="#63b8ff" stroke="#63b8ff" points="889.75,-362.62 886.25,-352.62 882.75,-362.62 889.75,-362.62"/>
</a>
</g>
</g>
<!-- Node36 -->
<g id="Node000036" class="node">
<title>Node36</title>
<g id="a_Node000036"><a xlink:href="_c_s_v_config_manager_8h.html" target="_top" xlink:title="CSV configuration import/export manager for measurement points and alarms.">
<polygon fill="white" stroke="#666666" points="1157.5,-350.75 1047,-350.75 1047,-331.5 1157.5,-331.5 1157.5,-350.75"/>
<text xml:space="preserve" text-anchor="middle" x="1102.25" y="-337.25" font-family="Helvetica,sans-Serif" font-size="10.00">CSVConfigManager.h</text>
</a>
</g>
</g>
<!-- Node31&#45;&gt;Node36 -->
<g id="edge59_Node000031_Node000036" class="edge">
<title>Node31&#45;&gt;Node36</title>
<g id="a_edge59_Node000031_Node000036"><a xlink:title=" ">
<path fill="none" stroke="#63b8ff" d="M922.89,-386.34C959.12,-377.41 1014.74,-363.7 1054.43,-353.91"/>
<polygon fill="#63b8ff" stroke="#63b8ff" points="1055.09,-357.36 1063.96,-351.56 1053.41,-350.56 1055.09,-357.36"/>
</a>
</g>
</g>
<!-- Node38 -->
<g id="Node000038" class="node">
<title>Node38</title>
<g id="a_Node000038"><a xlink:href="_settings_c_s_v_manager_8h.html" target="_top" xlink:title="CSV import/export manager for system settings.">
<polygon fill="white" stroke="#666666" points="749.25,-350.75 631.25,-350.75 631.25,-331.5 749.25,-331.5 749.25,-350.75"/>
<text xml:space="preserve" text-anchor="middle" x="690.25" y="-337.25" font-family="Helvetica,sans-Serif" font-size="10.00">SettingsCSVManager.h</text>
</a>
</g>
</g>
<!-- Node31&#45;&gt;Node38 -->
<g id="edge63_Node000031_Node000038" class="edge">
<title>Node31&#45;&gt;Node38</title>
<g id="a_edge63_Node000031_Node000038"><a xlink:title=" ">
<path fill="none" stroke="#63b8ff" d="M853,-386.34C820.34,-377.47 770.31,-363.87 734.34,-354.1"/>
<polygon fill="#63b8ff" stroke="#63b8ff" points="735.69,-350.84 725.12,-351.6 733.85,-357.6 735.69,-350.84"/>
</a>
</g>
</g>
<!-- Node36&#45;&gt;Node2 -->
<g id="edge60_Node000036_Node000002" class="edge">
<title>Node36&#45;&gt;Node2</title>
<g id="a_edge60_Node000036_Node000002"><a xlink:title=" ">
<path fill="none" stroke="#63b8ff" d="M1157.96,-332.44C1245.83,-320.28 1407.32,-297.73 1413.25,-295.5 1461.91,-277.18 1511.25,-283.62 1511.25,-231.62 1511.25,-231.62 1511.25,-231.62 1511.25,-119.12 1511.25,-34.48 1208.97,-15.73 1097.72,-11.7"/>
<polygon fill="#63b8ff" stroke="#63b8ff" points="1097.97,-8.2 1087.85,-11.36 1097.73,-15.2 1097.97,-8.2"/>
</a>
</g>
</g>
<!-- Node36&#45;&gt;Node3 -->
<g id="edge62_Node000036_Node000003" class="edge">
<title>Node36&#45;&gt;Node3</title>
<g id="a_edge62_Node000036_Node000003"><a xlink:title=" ">
<path fill="none" stroke="#63b8ff" d="M1089.87,-331.09C1079.1,-323.24 1063.28,-311.7 1050.5,-302.37"/>
<polygon fill="#63b8ff" stroke="#63b8ff" points="1052.81,-299.73 1042.67,-296.67 1048.69,-305.39 1052.81,-299.73"/>
</a>
</g>
</g>
<!-- Node37 -->
<g id="Node000037" class="node">
<title>Node37</title>
<g id="a_Node000037"><a xlink:title=" ">
<polygon fill="#e0e0e0" stroke="#999999" points="1185.38,-295.5 1107.12,-295.5 1107.12,-276.25 1185.38,-276.25 1185.38,-295.5"/>
<text xml:space="preserve" text-anchor="middle" x="1146.25" y="-282" font-family="Helvetica,sans-Serif" font-size="10.00">CSV_Parser.h</text>
</a>
</g>
</g>
<!-- Node36&#45;&gt;Node37 -->
<g id="edge61_Node000036_Node000037" class="edge">
<title>Node36&#45;&gt;Node37</title>
<g id="a_edge61_Node000036_Node000037"><a xlink:title=" ">
<path fill="none" stroke="#63b8ff" d="M1109.52,-331.33C1115.53,-324.05 1124.26,-313.48 1131.71,-304.48"/>
<polygon fill="#63b8ff" stroke="#63b8ff" points="1134.19,-306.96 1137.86,-297.03 1128.79,-302.51 1134.19,-306.96"/>
</a>
</g>
</g>
<!-- Node38&#45;&gt;Node2 -->
<g id="edge64_Node000038_Node000002" class="edge">
<title>Node38&#45;&gt;Node2</title>
<g id="a_edge64_Node000038_Node000002"><a xlink:title=" ">
<path fill="none" stroke="#63b8ff" d="M695.67,-331.36C713.4,-302.63 771.23,-208.6 817.25,-129.75 836.41,-96.92 828.75,-77.94 859.25,-55.25 905.64,-20.74 973.9,-12.14 1016.94,-10.41"/>
<polygon fill="#63b8ff" stroke="#63b8ff" points="1016.96,-13.91 1026.86,-10.13 1016.76,-6.91 1016.96,-13.91"/>
</a>
</g>
</g>
<!-- Node38&#45;&gt;Node32 -->
<g id="edge65_Node000038_Node000032" class="edge">
<title>Node38&#45;&gt;Node32</title>
<g id="a_edge65_Node000038_Node000032"><a xlink:title=" ">
<path fill="none" stroke="#63b8ff" d="M714.68,-331.09C737.85,-322.52 772.91,-309.56 799.09,-299.88"/>
<polygon fill="#63b8ff" stroke="#63b8ff" points="800.12,-303.23 808.28,-296.48 797.69,-296.66 800.12,-303.23"/>
</a>
</g>
</g>
</g>
</svg>
