<?xml version="1.0" encoding="UTF-8" standalone="no"?>
<!DOCTYPE svg PUBLIC "-//W3C//DTD SVG 1.1//EN"
 "http://www.w3.org/Graphics/SVG/1.1/DTD/svg11.dtd">
<!-- Generated by graphviz version 13.1.0 (20250701.0955)
 -->
<!-- Title: AlarmComparator::operator() Pages: 1 -->
<svg width="294pt" height="64pt"
 viewBox="0.00 0.00 294.00 64.00" xmlns="http://www.w3.org/2000/svg" xmlns:xlink="http://www.w3.org/1999/xlink">
<g id="graph0" class="graph" transform="scale(1 1) rotate(0) translate(4 60.25)">
<title>AlarmComparator::operator()</title>
<!-- Node1 -->
<g id="Node000001" class="node">
<title>Node1</title>
<g id="a_Node000001"><a xlink:title="Comparison operator for alarm sorting.">
<polygon fill="#999999" stroke="#666666" points="139.75,-37.25 0,-37.25 0,-18 139.75,-18 139.75,-37.25"/>
<text xml:space="preserve" text-anchor="middle" x="69.88" y="-23.75" font-family="Helvetica,sans-Serif" font-size="10.00">AlarmComparator::operator()</text>
</a>
</g>
</g>
<!-- Node2 -->
<g id="Node000002" class="node">
<title>Node2</title>
<g id="a_Node000002"><a xlink:href="class_alarm.html#abe89e376d8cacb582717ad6a65526ee8" target="_top" xlink:title="Get the alarm priority.">
<polygon fill="white" stroke="#666666" points="276.5,-56.25 184.75,-56.25 184.75,-37 276.5,-37 276.5,-56.25"/>
<text xml:space="preserve" text-anchor="middle" x="230.62" y="-42.75" font-family="Helvetica,sans-Serif" font-size="10.00">Alarm::getPriority</text>
</a>
</g>
</g>
<!-- Node1&#45;&gt;Node2 -->
<g id="edge1_Node000001_Node000002" class="edge">
<title>Node1&#45;&gt;Node2</title>
<g id="a_edge1_Node000001_Node000002"><a xlink:title=" ">
<path fill="none" stroke="#63b8ff" d="M140.04,-35.9C151.09,-37.23 162.4,-38.58 173.11,-39.86"/>
<polygon fill="#63b8ff" stroke="#63b8ff" points="172.6,-43.32 182.94,-41.04 173.43,-36.37 172.6,-43.32"/>
</a>
</g>
</g>
<!-- Node3 -->
<g id="Node000003" class="node">
<title>Node3</title>
<g id="a_Node000003"><a xlink:href="class_alarm.html#a7a4a3290a6a659542f82fe08a96736a8" target="_top" xlink:title="Get the alarm creation timestamp.">
<polygon fill="white" stroke="#666666" points="285.5,-19.25 175.75,-19.25 175.75,0 285.5,0 285.5,-19.25"/>
<text xml:space="preserve" text-anchor="middle" x="230.62" y="-5.75" font-family="Helvetica,sans-Serif" font-size="10.00">Alarm::getTimestamp</text>
</a>
</g>
</g>
<!-- Node1&#45;&gt;Node3 -->
<g id="edge2_Node000001_Node000003" class="edge">
<title>Node1&#45;&gt;Node3</title>
<g id="a_edge2_Node000001_Node000003"><a xlink:title=" ">
<path fill="none" stroke="#63b8ff" d="M140.04,-19.78C148.01,-18.88 156.13,-17.96 164.05,-17.06"/>
<polygon fill="#63b8ff" stroke="#63b8ff" points="164.44,-20.54 173.98,-15.93 163.65,-13.58 164.44,-20.54"/>
</a>
</g>
</g>
</g>
</svg>
